<?xml version="1.0" encoding="UTF-8" standalone="no"?>
<!DOCTYPE svg PUBLIC "-//W3C//DTD SVG 1.1//EN"
 "http://www.w3.org/Graphics/SVG/1.1/DTD/svg11.dtd">
<!-- Generated by graphviz version 2.43.0 (0)
 -->
<!-- Title: boards/6lowpan&#45;clicker/include/gpio_params.h Pages: 1 -->
<svg width="410pt" height="207pt"
 viewBox="0.00 0.00 410.22 207.00" xmlns="http://www.w3.org/2000/svg" xmlns:xlink="http://www.w3.org/1999/xlink">
<g id="graph0" class="graph" transform="scale(1 1) rotate(0) translate(4 203)">
<title>boards/6lowpan&#45;clicker/include/gpio_params.h</title>
<!-- Node1 -->
<g id="node1" class="node">
<title>Node1</title>
<g id="a_node1"><a xlink:title="Configuration of SAUL mapped GPIO pins.">
<polygon fill="#bfbfbf" stroke="black" points="36.72,-168.5 36.72,-198.5 166.72,-198.5 166.72,-168.5 36.72,-168.5"/>
<text text-anchor="start" x="44.72" y="-186.5" font-family="Helvetica,sans-Serif" font-size="10.00">boards/6lowpan&#45;clicker</text>
<text text-anchor="middle" x="101.72" y="-175.5" font-family="Helvetica,sans-Serif" font-size="10.00">/include/gpio_params.h</text>
</a>
</g>
</g>
<!-- Node2 -->
<g id="node2" class="node">
<title>Node2</title>
<g id="a_node2"><a xlink:href="6lowpan-clicker_2include_2board_8h.html" target="_top" xlink:title="board configuration for the MikroE 6LoWPAN Clicker">
<polygon fill="none" stroke="black" points="26.22,-112.5 26.22,-131.5 79.22,-131.5 79.22,-112.5 26.22,-112.5"/>
<text text-anchor="middle" x="52.72" y="-119.5" font-family="Helvetica,sans-Serif" font-size="10.00">board.h</text>
</a>
</g>
</g>
<!-- Node1&#45;&gt;Node2 -->
<g id="edge1" class="edge">
<title>Node1&#45;&gt;Node2</title>
<path fill="none" stroke="midnightblue" d="M90.11,-168.4C82.99,-159.75 73.84,-148.64 66.37,-139.58"/>
<polygon fill="midnightblue" stroke="midnightblue" points="68.91,-137.15 59.85,-131.66 63.5,-141.6 68.91,-137.15"/>
</g>
<!-- Node6 -->
<g id="node6" class="node">
<title>Node6</title>
<g id="a_node6"><a xlink:href="periph_8h.html" target="_top" xlink:title="Parameter definitions for mapping peripherals directly to SAUL.">
<polygon fill="none" stroke="black" points="161.72,-112.5 161.72,-131.5 241.72,-131.5 241.72,-112.5 161.72,-112.5"/>
<text text-anchor="middle" x="201.72" y="-119.5" font-family="Helvetica,sans-Serif" font-size="10.00">saul/periph.h</text>
</a>
</g>
</g>
<!-- Node1&#45;&gt;Node6 -->
<g id="edge6" class="edge">
<title>Node1&#45;&gt;Node6</title>
<path fill="none" stroke="midnightblue" d="M125.42,-168.4C141.45,-158.86 162.52,-146.32 178.46,-136.84"/>
<polygon fill="midnightblue" stroke="midnightblue" points="180.36,-139.78 187.17,-131.66 176.79,-133.76 180.36,-139.78"/>
</g>
<!-- Node3 -->
<g id="node3" class="node">
<title>Node3</title>
<g id="a_node3"><a xlink:title=" ">
<polygon fill="none" stroke="#bfbfbf" points="4.22,-0.5 4.22,-19.5 47.22,-19.5 47.22,-0.5 4.22,-0.5"/>
<text text-anchor="middle" x="25.72" y="-7.5" font-family="Helvetica,sans-Serif" font-size="10.00">cpu.h</text>
</a>
</g>
</g>
<!-- Node2&#45;&gt;Node3 -->
<g id="edge2" class="edge">
<title>Node2&#45;&gt;Node3</title>
<path fill="none" stroke="midnightblue" d="M37.77,-112.47C25.79,-104.7 9.85,-92 2.72,-76 -4.4,-60.01 4.12,-41.07 12.74,-27.78"/>
<polygon fill="midnightblue" stroke="midnightblue" points="15.61,-29.77 18.52,-19.58 9.9,-25.73 15.61,-29.77"/>
</g>
<!-- Node4 -->
<g id="node4" class="node">
<title>Node4</title>
<g id="a_node4"><a xlink:href="boards_26lowpan-clicker_2include_2periph__conf_8h.html" target="_top" xlink:title="peripheral configuration for the MikroE 6LoWPAN Clicker">
<polygon fill="none" stroke="black" points="11.72,-56.5 11.72,-75.5 93.72,-75.5 93.72,-56.5 11.72,-56.5"/>
<text text-anchor="middle" x="52.72" y="-63.5" font-family="Helvetica,sans-Serif" font-size="10.00">periph_conf.h</text>
</a>
</g>
</g>
<!-- Node2&#45;&gt;Node4 -->
<g id="edge3" class="edge">
<title>Node2&#45;&gt;Node4</title>
<path fill="none" stroke="midnightblue" d="M52.72,-112.08C52.72,-105.01 52.72,-94.86 52.72,-85.99"/>
<polygon fill="midnightblue" stroke="midnightblue" points="56.22,-85.75 52.72,-75.75 49.22,-85.75 56.22,-85.75"/>
</g>
<!-- Node4&#45;&gt;Node3 -->
<g id="edge4" class="edge">
<title>Node4&#45;&gt;Node3</title>
<path fill="none" stroke="midnightblue" d="M48.26,-56.08C44.57,-48.69 39.2,-37.95 34.62,-28.81"/>
<polygon fill="midnightblue" stroke="midnightblue" points="37.7,-27.13 30.09,-19.75 31.44,-30.26 37.7,-27.13"/>
</g>
<!-- Node5 -->
<g id="node5" class="node">
<title>Node5</title>
<g id="a_node5"><a xlink:title=" ">
<polygon fill="none" stroke="#bfbfbf" points="80.22,-0.5 80.22,-19.5 159.22,-19.5 159.22,-0.5 80.22,-0.5"/>
<text text-anchor="middle" x="119.72" y="-7.5" font-family="Helvetica,sans-Serif" font-size="10.00">periph_cpu.h</text>
</a>
</g>
</g>
<!-- Node4&#45;&gt;Node5 -->
<g id="edge5" class="edge">
<title>Node4&#45;&gt;Node5</title>
<path fill="none" stroke="midnightblue" d="M63.48,-56.32C73.49,-48.26 88.61,-36.08 100.65,-26.37"/>
<polygon fill="midnightblue" stroke="midnightblue" points="103.17,-28.83 108.76,-19.83 98.78,-23.38 103.17,-28.83"/>
</g>
<!-- Node7 -->
<g id="node7" class="node">
<title>Node7</title>
<g id="a_node7"><a xlink:href="gpio_8h.html" target="_top" xlink:title="Low&#45;level GPIO peripheral driver interface definitions.">
<polygon fill="none" stroke="black" points="111.72,-56.5 111.72,-75.5 191.72,-75.5 191.72,-56.5 111.72,-56.5"/>
<text text-anchor="middle" x="151.72" y="-63.5" font-family="Helvetica,sans-Serif" font-size="10.00">periph/gpio.h</text>
</a>
</g>
</g>
<!-- Node6&#45;&gt;Node7 -->
<g id="edge7" class="edge">
<title>Node6&#45;&gt;Node7</title>
<path fill="none" stroke="midnightblue" d="M193.46,-112.08C186.25,-104.3 175.61,-92.8 166.87,-83.37"/>
<polygon fill="midnightblue" stroke="midnightblue" points="169.18,-80.71 159.82,-75.75 164.05,-85.47 169.18,-80.71"/>
</g>
<!-- Node10 -->
<g id="node10" class="node">
<title>Node10</title>
<g id="a_node10"><a xlink:href="adc_8h.html" target="_top" xlink:title="Low&#45;level ADC peripheral driver interface definitions.">
<polygon fill="none" stroke="black" points="311.22,-56.5 311.22,-75.5 388.22,-75.5 388.22,-56.5 311.22,-56.5"/>
<text text-anchor="middle" x="349.72" y="-63.5" font-family="Helvetica,sans-Serif" font-size="10.00">periph/adc.h</text>
</a>
</g>
</g>
<!-- Node6&#45;&gt;Node10 -->
<g id="edge11" class="edge">
<title>Node6&#45;&gt;Node10</title>
<path fill="none" stroke="midnightblue" d="M225.17,-112.44C249.85,-103.44 288.9,-89.19 316.7,-79.05"/>
<polygon fill="midnightblue" stroke="midnightblue" points="318.18,-82.23 326.38,-75.52 315.78,-75.66 318.18,-82.23"/>
</g>
<!-- Node12 -->
<g id="node12" class="node">
<title>Node12</title>
<g id="a_node12"><a xlink:href="pwm_8h.html" target="_top" xlink:title="Low&#45;level PWM peripheral driver interface definitions.">
<polygon fill="none" stroke="black" points="210.22,-56.5 210.22,-75.5 293.22,-75.5 293.22,-56.5 210.22,-56.5"/>
<text text-anchor="middle" x="251.72" y="-63.5" font-family="Helvetica,sans-Serif" font-size="10.00">periph/pwm.h</text>
</a>
</g>
</g>
<!-- Node6&#45;&gt;Node12 -->
<g id="edge16" class="edge">
<title>Node6&#45;&gt;Node12</title>
<path fill="none" stroke="midnightblue" d="M209.98,-112.08C217.18,-104.3 227.83,-92.8 236.57,-83.37"/>
<polygon fill="midnightblue" stroke="midnightblue" points="239.39,-85.47 243.62,-75.75 234.25,-80.71 239.39,-85.47"/>
</g>
<!-- Node7&#45;&gt;Node5 -->
<g id="edge9" class="edge">
<title>Node7&#45;&gt;Node5</title>
<path fill="none" stroke="midnightblue" d="M146.44,-56.08C142.01,-48.61 135.56,-37.72 130.1,-28.52"/>
<polygon fill="midnightblue" stroke="midnightblue" points="133.01,-26.57 124.91,-19.75 126.99,-30.14 133.01,-26.57"/>
</g>
<!-- Node8 -->
<g id="node8" class="node">
<title>Node8</title>
<g id="a_node8"><a xlink:title=" ">
<polygon fill="none" stroke="#bfbfbf" points="177.22,-0.5 177.22,-19.5 230.22,-19.5 230.22,-0.5 177.22,-0.5"/>
<text text-anchor="middle" x="203.72" y="-7.5" font-family="Helvetica,sans-Serif" font-size="10.00">limits.h</text>
</a>
</g>
</g>
<!-- Node7&#45;&gt;Node8 -->
<g id="edge8" class="edge">
<title>Node7&#45;&gt;Node8</title>
<path fill="none" stroke="midnightblue" d="M160.31,-56.08C167.88,-48.22 179.1,-36.57 188.23,-27.08"/>
<polygon fill="midnightblue" stroke="midnightblue" points="190.88,-29.38 195.29,-19.75 185.83,-24.53 190.88,-29.38"/>
</g>
<!-- Node9 -->
<g id="node9" class="node">
<title>Node9</title>
<g id="a_node9"><a xlink:title=" ">
<polygon fill="none" stroke="#bfbfbf" points="248.72,-0.5 248.72,-19.5 330.72,-19.5 330.72,-0.5 248.72,-0.5"/>
<text text-anchor="middle" x="289.72" y="-7.5" font-family="Helvetica,sans-Serif" font-size="10.00">periph_conf.h</text>
</a>
</g>
</g>
<!-- Node7&#45;&gt;Node9 -->
<g id="edge10" class="edge">
<title>Node7&#45;&gt;Node9</title>
<path fill="none" stroke="midnightblue" d="M173.59,-56.44C196.5,-47.48 232.69,-33.31 258.59,-23.18"/>
<polygon fill="midnightblue" stroke="midnightblue" points="259.92,-26.42 267.96,-19.52 257.37,-19.9 259.92,-26.42"/>
</g>
<!-- Node10&#45;&gt;Node5 -->
<g id="edge14" class="edge">
<title>Node10&#45;&gt;Node5</title>
<path fill="none" stroke="midnightblue" d="M313.28,-56.44C273.32,-47.06 209.13,-31.99 165.73,-21.8"/>
<polygon fill="midnightblue" stroke="midnightblue" points="166.53,-18.39 155.99,-19.52 164.93,-25.21 166.53,-18.39"/>
</g>
<!-- Node10&#45;&gt;Node8 -->
<g id="edge12" class="edge">
<title>Node10&#45;&gt;Node8</title>
<path fill="none" stroke="midnightblue" d="M326.59,-56.44C302.24,-47.44 263.71,-33.19 236.3,-23.05"/>
<polygon fill="midnightblue" stroke="midnightblue" points="237.34,-19.7 226.75,-19.52 234.91,-26.27 237.34,-19.7"/>
</g>
<!-- Node10&#45;&gt;Node9 -->
<g id="edge15" class="edge">
<title>Node10&#45;&gt;Node9</title>
<path fill="none" stroke="midnightblue" d="M340.08,-56.32C331.21,-48.34 317.84,-36.31 307.11,-26.65"/>
<polygon fill="midnightblue" stroke="midnightblue" points="309.31,-23.92 299.53,-19.83 304.63,-29.13 309.31,-23.92"/>
</g>
<!-- Node11 -->
<g id="node11" class="node">
<title>Node11</title>
<g id="a_node11"><a xlink:title=" ">
<polygon fill="none" stroke="#bfbfbf" points="349.22,-0.5 349.22,-19.5 402.22,-19.5 402.22,-0.5 349.22,-0.5"/>
<text text-anchor="middle" x="375.72" y="-7.5" font-family="Helvetica,sans-Serif" font-size="10.00">stdint.h</text>
</a>
</g>
</g>
<!-- Node10&#45;&gt;Node11 -->
<g id="edge13" class="edge">
<title>Node10&#45;&gt;Node11</title>
<path fill="none" stroke="midnightblue" d="M354.01,-56.08C357.57,-48.69 362.74,-37.95 367.14,-28.81"/>
<polygon fill="midnightblue" stroke="midnightblue" points="370.32,-30.28 371.51,-19.75 364.01,-27.24 370.32,-30.28"/>
</g>
<!-- Node12&#45;&gt;Node5 -->
<g id="edge19" class="edge">
<title>Node12&#45;&gt;Node5</title>
<path fill="none" stroke="midnightblue" d="M230.8,-56.44C208.98,-47.52 174.57,-33.44 149.83,-23.32"/>
<polygon fill="midnightblue" stroke="midnightblue" points="151.12,-20.06 140.54,-19.52 148.47,-26.54 151.12,-20.06"/>
</g>
<!-- Node12&#45;&gt;Node8 -->
<g id="edge18" class="edge">
<title>Node12&#45;&gt;Node8</title>
<path fill="none" stroke="midnightblue" d="M243.79,-56.08C236.87,-48.3 226.65,-36.8 218.27,-27.37"/>
<polygon fill="midnightblue" stroke="midnightblue" points="220.76,-24.9 211.5,-19.75 215.53,-29.55 220.76,-24.9"/>
</g>
<!-- Node12&#45;&gt;Node9 -->
<g id="edge20" class="edge">
<title>Node12&#45;&gt;Node9</title>
<path fill="none" stroke="midnightblue" d="M257.99,-56.08C263.36,-48.46 271.24,-37.26 277.8,-27.94"/>
<polygon fill="midnightblue" stroke="midnightblue" points="280.67,-29.94 283.56,-19.75 274.94,-25.91 280.67,-29.94"/>
</g>
<!-- Node12&#45;&gt;Node11 -->
<g id="edge17" class="edge">
<title>Node12&#45;&gt;Node11</title>
<path fill="none" stroke="midnightblue" d="M271.37,-56.44C291.68,-47.6 323.62,-33.69 346.82,-23.59"/>
<polygon fill="midnightblue" stroke="midnightblue" points="348.39,-26.72 356.16,-19.52 345.6,-20.3 348.39,-26.72"/>
</g>
</g>
</svg>
