<?xml version="1.0" encoding="UTF-8" standalone="no"?>
<!DOCTYPE svg PUBLIC "-//W3C//DTD SVG 1.1//EN"
 "http://www.w3.org/Graphics/SVG/1.1/DTD/svg11.dtd">
<!-- Generated by graphviz version 2.43.0 (0)
 -->
<!-- Title: sys/include/net/gnrc/ipv6/nib/abr.h Pages: 1 -->
<svg width="398pt" height="319pt"
 viewBox="0.00 0.00 397.50 319.00" xmlns="http://www.w3.org/2000/svg" xmlns:xlink="http://www.w3.org/1999/xlink">
<g id="graph0" class="graph" transform="scale(1 1) rotate(0) translate(4 315)">
<title>sys/include/net/gnrc/ipv6/nib/abr.h</title>
<!-- Node1 -->
<g id="node1" class="node">
<title>Node1</title>
<g id="a_node1"><a xlink:title="Authoritative border router list definitions.">
<polygon fill="#bfbfbf" stroke="black" points="102.5,-280.5 102.5,-310.5 216.5,-310.5 216.5,-280.5 102.5,-280.5"/>
<text text-anchor="start" x="110.5" y="-298.5" font-family="Helvetica,sans-Serif" font-size="10.00">sys/include/net/gnrc</text>
<text text-anchor="middle" x="159.5" y="-287.5" font-family="Helvetica,sans-Serif" font-size="10.00">/ipv6/nib/abr.h</text>
</a>
</g>
</g>
<!-- Node2 -->
<g id="node2" class="node">
<title>Node2</title>
<g id="a_node2"><a xlink:href="kernel__defines_8h.html" target="_top" xlink:title="Common macros and compiler attributes/pragmas configuration.">
<polygon fill="none" stroke="black" points="17,-168.5 17,-187.5 114,-187.5 114,-168.5 17,-168.5"/>
<text text-anchor="middle" x="65.5" y="-175.5" font-family="Helvetica,sans-Serif" font-size="10.00">kernel_defines.h</text>
</a>
</g>
</g>
<!-- Node1&#45;&gt;Node2 -->
<g id="edge1" class="edge">
<title>Node1&#45;&gt;Node2</title>
<path fill="none" stroke="midnightblue" d="M158.53,-280.44C156.85,-265.16 152.21,-240.71 139.5,-224 128.82,-209.96 112.39,-199.34 97.72,-191.95"/>
<polygon fill="midnightblue" stroke="midnightblue" points="98.95,-188.66 88.42,-187.56 95.97,-194.99 98.95,-188.66"/>
</g>
<!-- Node5 -->
<g id="node5" class="node">
<title>Node5</title>
<g id="a_node5"><a xlink:href="ipv6_2addr_8h.html" target="_top" xlink:title="Definitions for IPv6 addresses.">
<polygon fill="none" stroke="black" points="203.5,-224.5 203.5,-243.5 293.5,-243.5 293.5,-224.5 203.5,-224.5"/>
<text text-anchor="middle" x="248.5" y="-231.5" font-family="Helvetica,sans-Serif" font-size="10.00">net/ipv6/addr.h</text>
</a>
</g>
</g>
<!-- Node1&#45;&gt;Node5 -->
<g id="edge4" class="edge">
<title>Node1&#45;&gt;Node5</title>
<path fill="none" stroke="midnightblue" d="M180.59,-280.4C194.59,-271.04 212.91,-258.79 226.99,-249.38"/>
<polygon fill="midnightblue" stroke="midnightblue" points="229.18,-252.13 235.55,-243.66 225.29,-246.31 229.18,-252.13"/>
</g>
<!-- Node11 -->
<g id="node11" class="node">
<title>Node11</title>
<g id="a_node11"><a xlink:href="ipv6_2nib_2conf_8h.html" target="_top" xlink:title="Configuration macro definitions for neighbor information base.">
<polygon fill="none" stroke="black" points="0,-224.5 0,-243.5 131,-243.5 131,-224.5 0,-224.5"/>
<text text-anchor="middle" x="65.5" y="-231.5" font-family="Helvetica,sans-Serif" font-size="10.00">net/gnrc/ipv6/nib/conf.h</text>
</a>
</g>
</g>
<!-- Node1&#45;&gt;Node11 -->
<g id="edge16" class="edge">
<title>Node1&#45;&gt;Node11</title>
<path fill="none" stroke="midnightblue" d="M137.22,-280.4C122.3,-270.95 102.72,-258.56 87.79,-249.11"/>
<polygon fill="midnightblue" stroke="midnightblue" points="89.5,-246.05 79.18,-243.66 85.76,-251.96 89.5,-246.05"/>
</g>
<!-- Node3 -->
<g id="node3" class="node">
<title>Node3</title>
<g id="a_node3"><a xlink:title=" ">
<polygon fill="none" stroke="#bfbfbf" points="116.5,-112.5 116.5,-131.5 172.5,-131.5 172.5,-112.5 116.5,-112.5"/>
<text text-anchor="middle" x="144.5" y="-119.5" font-family="Helvetica,sans-Serif" font-size="10.00">stddef.h</text>
</a>
</g>
</g>
<!-- Node2&#45;&gt;Node3 -->
<g id="edge2" class="edge">
<title>Node2&#45;&gt;Node3</title>
<path fill="none" stroke="midnightblue" d="M78.19,-168.32C90.4,-159.98 109.08,-147.21 123.5,-137.35"/>
<polygon fill="midnightblue" stroke="midnightblue" points="125.56,-140.19 131.84,-131.65 121.61,-134.41 125.56,-140.19"/>
</g>
<!-- Node4 -->
<g id="node4" class="node">
<title>Node4</title>
<g id="a_node4"><a xlink:title=" ">
<polygon fill="none" stroke="#bfbfbf" points="210,-0.5 210,-19.5 263,-19.5 263,-0.5 210,-0.5"/>
<text text-anchor="middle" x="236.5" y="-7.5" font-family="Helvetica,sans-Serif" font-size="10.00">stdint.h</text>
</a>
</g>
</g>
<!-- Node2&#45;&gt;Node4 -->
<g id="edge3" class="edge">
<title>Node2&#45;&gt;Node4</title>
<path fill="none" stroke="midnightblue" d="M69.87,-168.37C76.74,-155.29 91.01,-130.06 107.5,-112 140.24,-76.15 186.68,-43.2 213.99,-25.23"/>
<polygon fill="midnightblue" stroke="midnightblue" points="215.98,-28.1 222.47,-19.72 212.17,-22.23 215.98,-28.1"/>
</g>
<!-- Node6 -->
<g id="node6" class="node">
<title>Node6</title>
<g id="a_node6"><a xlink:title=" ">
<polygon fill="none" stroke="#bfbfbf" points="327.5,-112.5 327.5,-131.5 389.5,-131.5 389.5,-112.5 327.5,-112.5"/>
<text text-anchor="middle" x="358.5" y="-119.5" font-family="Helvetica,sans-Serif" font-size="10.00">stdbool.h</text>
</a>
</g>
</g>
<!-- Node5&#45;&gt;Node6 -->
<g id="edge5" class="edge">
<title>Node5&#45;&gt;Node6</title>
<path fill="none" stroke="midnightblue" d="M266.46,-224.36C281.62,-216.43 303.23,-203.58 318.5,-188 332.09,-174.14 343.22,-154.87 350.26,-140.91"/>
<polygon fill="midnightblue" stroke="midnightblue" points="353.44,-142.36 354.64,-131.84 347.14,-139.32 353.44,-142.36"/>
</g>
<!-- Node7 -->
<g id="node7" class="node">
<title>Node7</title>
<g id="a_node7"><a xlink:title=" ">
<polygon fill="none" stroke="#bfbfbf" points="132,-168.5 132,-187.5 185,-187.5 185,-168.5 132,-168.5"/>
<text text-anchor="middle" x="158.5" y="-175.5" font-family="Helvetica,sans-Serif" font-size="10.00">string.h</text>
</a>
</g>
</g>
<!-- Node5&#45;&gt;Node7 -->
<g id="edge6" class="edge">
<title>Node5&#45;&gt;Node7</title>
<path fill="none" stroke="midnightblue" d="M234.04,-224.32C220,-215.9 198.45,-202.97 181.96,-193.07"/>
<polygon fill="midnightblue" stroke="midnightblue" points="183.3,-189.8 172.92,-187.65 179.7,-195.8 183.3,-189.8"/>
</g>
<!-- Node8 -->
<g id="node8" class="node">
<title>Node8</title>
<g id="a_node8"><a xlink:href="byteorder_8h.html" target="_top" xlink:title="Functions to work with different byte orders.">
<polygon fill="none" stroke="black" points="234,-112.5 234,-131.5 307,-131.5 307,-112.5 234,-112.5"/>
<text text-anchor="middle" x="270.5" y="-119.5" font-family="Helvetica,sans-Serif" font-size="10.00">byteorder.h</text>
</a>
</g>
</g>
<!-- Node5&#45;&gt;Node8 -->
<g id="edge7" class="edge">
<title>Node5&#45;&gt;Node8</title>
<path fill="none" stroke="midnightblue" d="M265.13,-224.46C277.99,-216.84 294.84,-204.36 302.5,-188 310.36,-171.21 298.56,-152.2 287.13,-139.1"/>
<polygon fill="midnightblue" stroke="midnightblue" points="289.65,-136.66 280.25,-131.78 284.55,-141.46 289.65,-136.66"/>
</g>
<!-- Node10 -->
<g id="node10" class="node">
<title>Node10</title>
<g id="a_node10"><a xlink:href="ipv4_2addr_8h.html" target="_top" xlink:title="IPv6 address type and helper functions definitions.">
<polygon fill="none" stroke="black" points="203.5,-168.5 203.5,-187.5 293.5,-187.5 293.5,-168.5 203.5,-168.5"/>
<text text-anchor="middle" x="248.5" y="-175.5" font-family="Helvetica,sans-Serif" font-size="10.00">net/ipv4/addr.h</text>
</a>
</g>
</g>
<!-- Node5&#45;&gt;Node10 -->
<g id="edge11" class="edge">
<title>Node5&#45;&gt;Node10</title>
<path fill="none" stroke="midnightblue" d="M248.5,-224.08C248.5,-217.01 248.5,-206.86 248.5,-197.99"/>
<polygon fill="midnightblue" stroke="midnightblue" points="252,-197.75 248.5,-187.75 245,-197.75 252,-197.75"/>
</g>
<!-- Node8&#45;&gt;Node4 -->
<g id="edge8" class="edge">
<title>Node8&#45;&gt;Node4</title>
<path fill="none" stroke="midnightblue" d="M283.91,-112.46C301.23,-100.3 327.78,-77.12 315.5,-56 306.24,-40.07 288.99,-29.31 272.97,-22.31"/>
<polygon fill="midnightblue" stroke="midnightblue" points="273.82,-18.88 263.23,-18.44 271.23,-25.39 273.82,-18.88"/>
</g>
<!-- Node9 -->
<g id="node9" class="node">
<title>Node9</title>
<g id="a_node9"><a xlink:href="unaligned_8h.html" target="_top" xlink:title="Unaligned but safe memory access functions.">
<polygon fill="none" stroke="black" points="232.5,-56.5 232.5,-75.5 306.5,-75.5 306.5,-56.5 232.5,-56.5"/>
<text text-anchor="middle" x="269.5" y="-63.5" font-family="Helvetica,sans-Serif" font-size="10.00">unaligned.h</text>
</a>
</g>
</g>
<!-- Node8&#45;&gt;Node9 -->
<g id="edge9" class="edge">
<title>Node8&#45;&gt;Node9</title>
<path fill="none" stroke="midnightblue" d="M270.33,-112.08C270.2,-105.01 270.02,-94.86 269.85,-85.99"/>
<polygon fill="midnightblue" stroke="midnightblue" points="273.35,-85.68 269.66,-75.75 266.35,-85.81 273.35,-85.68"/>
</g>
<!-- Node9&#45;&gt;Node4 -->
<g id="edge10" class="edge">
<title>Node9&#45;&gt;Node4</title>
<path fill="none" stroke="midnightblue" d="M264.05,-56.08C259.49,-48.61 252.83,-37.72 247.21,-28.52"/>
<polygon fill="midnightblue" stroke="midnightblue" points="250.05,-26.46 241.85,-19.75 244.08,-30.11 250.05,-26.46"/>
</g>
<!-- Node10&#45;&gt;Node3 -->
<g id="edge14" class="edge">
<title>Node10&#45;&gt;Node3</title>
<path fill="none" stroke="midnightblue" d="M231.79,-168.32C215.19,-159.7 189.5,-146.36 170.28,-136.39"/>
<polygon fill="midnightblue" stroke="midnightblue" points="171.66,-133.16 161.17,-131.65 168.43,-139.37 171.66,-133.16"/>
</g>
<!-- Node10&#45;&gt;Node4 -->
<g id="edge13" class="edge">
<title>Node10&#45;&gt;Node4</title>
<path fill="none" stroke="midnightblue" d="M242.19,-168.22C236.33,-159.51 228.01,-145.54 224.5,-132 216.01,-99.3 218.77,-89.45 223.5,-56 224.77,-47.04 227.39,-37.37 229.95,-29.3"/>
<polygon fill="midnightblue" stroke="midnightblue" points="233.27,-30.4 233.16,-19.8 226.64,-28.16 233.27,-30.4"/>
</g>
<!-- Node10&#45;&gt;Node6 -->
<g id="edge12" class="edge">
<title>Node10&#45;&gt;Node6</title>
<path fill="none" stroke="midnightblue" d="M266.17,-168.32C283.89,-159.62 311.4,-146.12 331.79,-136.11"/>
<polygon fill="midnightblue" stroke="midnightblue" points="333.44,-139.2 340.87,-131.65 330.35,-132.92 333.44,-139.2"/>
</g>
<!-- Node10&#45;&gt;Node8 -->
<g id="edge15" class="edge">
<title>Node10&#45;&gt;Node8</title>
<path fill="none" stroke="midnightblue" d="M252.13,-168.08C255.11,-160.77 259.43,-150.18 263.12,-141.1"/>
<polygon fill="midnightblue" stroke="midnightblue" points="266.4,-142.33 266.93,-131.75 259.92,-139.69 266.4,-142.33"/>
</g>
<!-- Node11&#45;&gt;Node2 -->
<g id="edge17" class="edge">
<title>Node11&#45;&gt;Node2</title>
<path fill="none" stroke="midnightblue" d="M65.5,-224.08C65.5,-217.01 65.5,-206.86 65.5,-197.99"/>
<polygon fill="midnightblue" stroke="midnightblue" points="69,-197.75 65.5,-187.75 62,-197.75 69,-197.75"/>
</g>
</g>
</svg>
