<?xml version="1.0" encoding="UTF-8" standalone="no"?>
<!DOCTYPE svg PUBLIC "-//W3C//DTD SVG 1.1//EN"
 "http://www.w3.org/Graphics/SVG/1.1/DTD/svg11.dtd">
<!-- Generated by graphviz version 2.40.1 (20161225.0304)
 -->
<!-- Title: sys/include/usb/usbus/cdc/acm.h Pages: 1 -->
<svg width="844pt" height="375pt"
 viewBox="0.00 0.00 844.26 375.00" xmlns="http://www.w3.org/2000/svg" xmlns:xlink="http://www.w3.org/1999/xlink">
<g id="graph0" class="graph" transform="scale(1 1) rotate(0) translate(4 371)">
<title>sys/include/usb/usbus/cdc/acm.h</title>
<!-- Node0 -->
<g id="node1" class="node">
<title>Node0</title>
<polygon fill="#bfbfbf" stroke="#000000" points="203.7575,-336.5 203.7575,-366.5 317.7575,-366.5 317.7575,-336.5 203.7575,-336.5"/>
<text text-anchor="start" x="211.7575" y="-354.5" font-family="Helvetica,sans-Serif" font-size="10.00" fill="#000000">sys/include/usb/usbus</text>
<text text-anchor="middle" x="260.7575" y="-343.5" font-family="Helvetica,sans-Serif" font-size="10.00" fill="#000000">/cdc/acm.h</text>
</g>
<!-- Node1 -->
<g id="node2" class="node">
<title>Node1</title>
<polygon fill="none" stroke="#bfbfbf" points="127.2575,-112.5 127.2575,-131.5 176.2575,-131.5 176.2575,-112.5 127.2575,-112.5"/>
<text text-anchor="middle" x="151.7575" y="-119.5" font-family="Helvetica,sans-Serif" font-size="10.00" fill="#000000">stdint.h</text>
</g>
<!-- Node0&#45;&gt;Node1 -->
<g id="edge1" class="edge">
<title>Node0&#45;&gt;Node1</title>
<path fill="none" stroke="#191970" d="M203.458,-338.8101C169.2566,-330.153 125.4761,-317.1403 88.7575,-300 47.7643,-280.8643 25.2127,-283.8283 3.7575,-244 -7.7109,-222.7109 12.4479,-176.6745 20.7575,-168 46.0778,-141.5678 87.452,-130.308 116.9258,-125.5212"/>
<polygon fill="#191970" stroke="#191970" points="117.7992,-128.9314 127.1944,-124.0344 116.796,-122.0036 117.7992,-128.9314"/>
</g>
<!-- Node2 -->
<g id="node3" class="node">
<title>Node2</title>
<g id="a_node3"><a xlink:href="cdc_8h.html" target="_top" xlink:title="Definition for USB CDC interfaces. ">
<polygon fill="none" stroke="#000000" points="98.2575,-280.5 98.2575,-299.5 157.2575,-299.5 157.2575,-280.5 98.2575,-280.5"/>
<text text-anchor="middle" x="127.7575" y="-287.5" font-family="Helvetica,sans-Serif" font-size="10.00" fill="#000000">usb/cdc.h</text>
</a>
</g>
</g>
<!-- Node0&#45;&gt;Node2 -->
<g id="edge2" class="edge">
<title>Node0&#45;&gt;Node2</title>
<path fill="none" stroke="#191970" d="M228.222,-336.4554C206.6146,-326.464 178.4676,-313.4487 157.4655,-303.7372"/>
<polygon fill="#191970" stroke="#191970" points="158.9133,-300.5506 148.3677,-299.5303 155.9754,-306.9043 158.9133,-300.5506"/>
</g>
<!-- Node7 -->
<g id="node8" class="node">
<title>Node7</title>
<g id="a_node8"><a xlink:href="usbus_8h.html" target="_top" xlink:title="USBUS basic interface. ">
<polygon fill="none" stroke="#000000" points="354.7575,-280.5 354.7575,-299.5 424.7575,-299.5 424.7575,-280.5 354.7575,-280.5"/>
<text text-anchor="middle" x="389.7575" y="-287.5" font-family="Helvetica,sans-Serif" font-size="10.00" fill="#000000">usb/usbus.h</text>
</a>
</g>
</g>
<!-- Node0&#45;&gt;Node7 -->
<g id="edge9" class="edge">
<title>Node0&#45;&gt;Node7</title>
<path fill="none" stroke="#191970" d="M292.3144,-336.4554C313.1776,-326.509 340.3266,-313.5659 360.6672,-303.8686"/>
<polygon fill="#191970" stroke="#191970" points="362.2466,-306.9931 369.767,-299.5303 359.2342,-300.6744 362.2466,-306.9931"/>
</g>
<!-- Node25 -->
<g id="node26" class="node">
<title>Node25</title>
<g id="a_node26"><a xlink:href="tsrb_8h.html" target="_top" xlink:title="Thread&#45;safe ringbuffer interface definition. ">
<polygon fill="none" stroke="#000000" points="795.2575,-224.5 795.2575,-243.5 836.2575,-243.5 836.2575,-224.5 795.2575,-224.5"/>
<text text-anchor="middle" x="815.7575" y="-231.5" font-family="Helvetica,sans-Serif" font-size="10.00" fill="#000000">tsrb.h</text>
</a>
</g>
</g>
<!-- Node0&#45;&gt;Node25 -->
<g id="edge42" class="edge">
<title>Node0&#45;&gt;Node25</title>
<path fill="none" stroke="#191970" d="M317.7637,-342.3619C413.1139,-326.5303 610.8888,-291.3558 785.0957,-244.2247"/>
<polygon fill="#191970" stroke="#191970" points="786.2223,-247.5453 794.9499,-241.5388 784.3815,-240.7917 786.2223,-247.5453"/>
</g>
<!-- Node2&#45;&gt;Node1 -->
<g id="edge3" class="edge">
<title>Node2&#45;&gt;Node1</title>
<path fill="none" stroke="#191970" d="M98.0773,-282.5279C66.6137,-273.9356 20.0552,-259.0669 9.7575,-244 4.7418,-236.6614 7.3623,-232.5601 9.7575,-224 17.6032,-195.9599 21.7504,-187.0654 43.7575,-168 64.9577,-149.6337 94.579,-137.7198 117.4387,-130.6291"/>
<polygon fill="#191970" stroke="#191970" points="118.4858,-133.9695 127.0939,-127.7927 116.5128,-127.2532 118.4858,-133.9695"/>
</g>
<!-- Node3 -->
<g id="node4" class="node">
<title>Node3</title>
<g id="a_node4"><a xlink:href="usb_8h.html" target="_top" xlink:title="Definition of global compile time configuration options. ">
<polygon fill="none" stroke="#000000" points="473.2575,-168.5 473.2575,-187.5 514.2575,-187.5 514.2575,-168.5 473.2575,-168.5"/>
<text text-anchor="middle" x="493.7575" y="-175.5" font-family="Helvetica,sans-Serif" font-size="10.00" fill="#000000">usb.h</text>
</a>
</g>
</g>
<!-- Node2&#45;&gt;Node3 -->
<g id="edge4" class="edge">
<title>Node2&#45;&gt;Node3</title>
<path fill="none" stroke="#191970" d="M157.3396,-287.9056C205.327,-283.786 302.5464,-272.4184 379.7575,-244 389.0933,-240.5638 438.4034,-211.3083 469.0348,-192.9191"/>
<polygon fill="#191970" stroke="#191970" points="471.1108,-195.7548 477.8765,-187.6016 467.5031,-189.7561 471.1108,-195.7548"/>
</g>
<!-- Node5 -->
<g id="node6" class="node">
<title>Node5</title>
<g id="a_node6"><a xlink:href="descriptor_8h.html" target="_top" xlink:title="Definitions for USB protocol messages. ">
<polygon fill="none" stroke="#000000" points="18.7575,-224.5 18.7575,-243.5 104.7575,-243.5 104.7575,-224.5 18.7575,-224.5"/>
<text text-anchor="middle" x="61.7575" y="-231.5" font-family="Helvetica,sans-Serif" font-size="10.00" fill="#000000">usb/descriptor.h</text>
</a>
</g>
</g>
<!-- Node2&#45;&gt;Node5 -->
<g id="edge6" class="edge">
<title>Node2&#45;&gt;Node5</title>
<path fill="none" stroke="#191970" d="M116.2611,-280.2455C106.5133,-271.9746 92.3315,-259.9416 80.8777,-250.2232"/>
<polygon fill="#191970" stroke="#191970" points="83.0116,-247.4437 73.122,-243.6427 78.4827,-252.7813 83.0116,-247.4437"/>
</g>
<!-- Node4 -->
<g id="node5" class="node">
<title>Node4</title>
<polygon fill="none" stroke="#bfbfbf" points="501.2575,-112.5 501.2575,-131.5 550.2575,-131.5 550.2575,-112.5 501.2575,-112.5"/>
<text text-anchor="middle" x="525.7575" y="-119.5" font-family="Helvetica,sans-Serif" font-size="10.00" fill="#000000">board.h</text>
</g>
<!-- Node3&#45;&gt;Node4 -->
<g id="edge5" class="edge">
<title>Node3&#45;&gt;Node4</title>
<path fill="none" stroke="#191970" d="M499.3314,-168.2455C503.6906,-160.617 509.8785,-149.7881 515.1708,-140.5267"/>
<polygon fill="#191970" stroke="#191970" points="518.3248,-142.0616 520.2474,-131.6427 512.2471,-138.5886 518.3248,-142.0616"/>
</g>
<!-- Node5&#45;&gt;Node1 -->
<g id="edge7" class="edge">
<title>Node5&#45;&gt;Node1</title>
<path fill="none" stroke="#191970" d="M56.6765,-224.1854C50.3616,-210.483 41.6855,-185.3533 52.7575,-168 66.8132,-145.9702 94.4474,-134.3267 116.9557,-128.2721"/>
<polygon fill="#191970" stroke="#191970" points="117.9769,-131.6259 126.8694,-125.8662 116.326,-124.8233 117.9769,-131.6259"/>
</g>
<!-- Node6 -->
<g id="node7" class="node">
<title>Node6</title>
<polygon fill="none" stroke="#bfbfbf" points="94.7575,-168.5 94.7575,-187.5 150.7575,-187.5 150.7575,-168.5 94.7575,-168.5"/>
<text text-anchor="middle" x="122.7575" y="-175.5" font-family="Helvetica,sans-Serif" font-size="10.00" fill="#000000">stdbool.h</text>
</g>
<!-- Node5&#45;&gt;Node6 -->
<g id="edge8" class="edge">
<title>Node5&#45;&gt;Node6</title>
<path fill="none" stroke="#191970" d="M72.3829,-224.2455C81.3048,-216.0549 94.2455,-204.1749 104.7767,-194.5069"/>
<polygon fill="#191970" stroke="#191970" points="107.2543,-196.9837 112.2538,-187.6427 102.5203,-191.8271 107.2543,-196.9837"/>
</g>
<!-- Node7&#45;&gt;Node1 -->
<g id="edge10" class="edge">
<title>Node7&#45;&gt;Node1</title>
<path fill="none" stroke="#191970" d="M354.7017,-287.4468C309.0666,-283.1128 227.6056,-271.8821 163.7575,-244 124.648,-226.9211 105.2392,-225.9697 85.7575,-188 74.948,-166.9324 97.9823,-148.4119 119.7462,-136.3949"/>
<polygon fill="#191970" stroke="#191970" points="121.6253,-139.3632 128.8934,-131.6544 118.4044,-133.1482 121.6253,-139.3632"/>
</g>
<!-- Node7&#45;&gt;Node3 -->
<g id="edge31" class="edge">
<title>Node7&#45;&gt;Node3</title>
<path fill="none" stroke="#191970" d="M424.982,-282.8106C446.7384,-276.4341 473.195,-264.7782 487.7575,-244 497.1364,-230.6179 497.9552,-211.7691 496.8253,-197.6388"/>
<polygon fill="#191970" stroke="#191970" points="500.2781,-197.0324 495.6278,-187.5127 493.3265,-197.8546 500.2781,-197.0324"/>
</g>
<!-- Node7&#45;&gt;Node5 -->
<g id="edge41" class="edge">
<title>Node7&#45;&gt;Node5</title>
<path fill="none" stroke="#191970" d="M354.6665,-284.1073C302.9951,-275.4159 203.4049,-258.6092 118.7575,-244 117.5044,-243.7837 116.236,-243.5644 114.9567,-243.3429"/>
<polygon fill="#191970" stroke="#191970" points="115.4647,-239.8788 105.013,-241.6146 114.266,-246.7754 115.4647,-239.8788"/>
</g>
<!-- Node8 -->
<g id="node9" class="node">
<title>Node8</title>
<g id="a_node9"><a xlink:href="stdlib_8h.html" target="_top" xlink:title="stdlib.h wrapper for MSP430 ">
<polygon fill="none" stroke="#000000" points="534.7575,-224.5 534.7575,-243.5 582.7575,-243.5 582.7575,-224.5 534.7575,-224.5"/>
<text text-anchor="middle" x="558.7575" y="-231.5" font-family="Helvetica,sans-Serif" font-size="10.00" fill="#000000">stdlib.h</text>
</a>
</g>
</g>
<!-- Node7&#45;&gt;Node8 -->
<g id="edge11" class="edge">
<title>Node7&#45;&gt;Node8</title>
<path fill="none" stroke="#191970" d="M418.8096,-280.3733C448.3594,-270.5816 494.1064,-255.4229 525.1883,-245.1235"/>
<polygon fill="#191970" stroke="#191970" points="526.3339,-248.4311 534.7255,-241.9633 524.1321,-241.7864 526.3339,-248.4311"/>
</g>
<!-- Node10 -->
<g id="node11" class="node">
<title>Node10</title>
<g id="a_node11"><a xlink:href="clist_8h.html" target="_top" xlink:title="Circular linked list. ">
<polygon fill="none" stroke="#000000" points="734.2575,-224.5 734.2575,-243.5 777.2575,-243.5 777.2575,-224.5 734.2575,-224.5"/>
<text text-anchor="middle" x="755.7575" y="-231.5" font-family="Helvetica,sans-Serif" font-size="10.00" fill="#000000">clist.h</text>
</a>
</g>
</g>
<!-- Node7&#45;&gt;Node10 -->
<g id="edge14" class="edge">
<title>Node7&#45;&gt;Node10</title>
<path fill="none" stroke="#191970" d="M424.9739,-287.3448C484.8404,-282.3657 610.2995,-269.9156 724.025,-244.0872"/>
<polygon fill="#191970" stroke="#191970" points="724.9829,-247.4581 733.937,-241.7946 723.4054,-240.6382 724.9829,-247.4581"/>
</g>
<!-- Node13 -->
<g id="node14" class="node">
<title>Node13</title>
<polygon fill="none" stroke="#bfbfbf" points="667.2575,-224.5 667.2575,-243.5 716.2575,-243.5 716.2575,-224.5 667.2575,-224.5"/>
<text text-anchor="middle" x="691.7575" y="-231.5" font-family="Helvetica,sans-Serif" font-size="10.00" fill="#000000">event.h</text>
</g>
<!-- Node7&#45;&gt;Node13 -->
<g id="edge17" class="edge">
<title>Node7&#45;&gt;Node13</title>
<path fill="none" stroke="#191970" d="M424.8099,-284.7588C475.3806,-276.9959 571.6448,-261.4649 652.7575,-244 654.2095,-243.6873 655.6893,-243.3577 657.182,-243.016"/>
<polygon fill="#191970" stroke="#191970" points="658.1637,-246.3798 667.0686,-240.6394 656.5275,-239.5737 658.1637,-246.3798"/>
</g>
<!-- Node14 -->
<g id="node15" class="node">
<title>Node14</title>
<g id="a_node15"><a xlink:href="kernel__types_8h.html" target="_top" xlink:title="Types used by the kernel. ">
<polygon fill="none" stroke="#000000" points="336.7575,-168.5 336.7575,-187.5 416.7575,-187.5 416.7575,-168.5 336.7575,-168.5"/>
<text text-anchor="middle" x="376.7575" y="-175.5" font-family="Helvetica,sans-Serif" font-size="10.00" fill="#000000">kernel_types.h</text>
</a>
</g>
</g>
<!-- Node7&#45;&gt;Node14 -->
<g id="edge18" class="edge">
<title>Node7&#45;&gt;Node14</title>
<path fill="none" stroke="#191970" d="M354.6284,-286.1767C328.0529,-281.2357 293.2471,-269.917 275.7575,-244 258.7478,-218.7943 293.5079,-200.9519 326.7934,-190.2271"/>
<polygon fill="#191970" stroke="#191970" points="328.0066,-193.5165 336.5561,-187.2589 325.9704,-186.8192 328.0066,-193.5165"/>
</g>
<!-- Node18 -->
<g id="node19" class="node">
<title>Node18</title>
<g id="a_node19"><a xlink:href="kernel__defines_8h.html" target="_top" xlink:title="Common macros and compiler attributes/pragmas configuration. ">
<polygon fill="none" stroke="#000000" points="612.7575,-56.5 612.7575,-75.5 700.7575,-75.5 700.7575,-56.5 612.7575,-56.5"/>
<text text-anchor="middle" x="656.7575" y="-63.5" font-family="Helvetica,sans-Serif" font-size="10.00" fill="#000000">kernel_defines.h</text>
</a>
</g>
</g>
<!-- Node7&#45;&gt;Node18 -->
<g id="edge24" class="edge">
<title>Node7&#45;&gt;Node18</title>
<path fill="none" stroke="#191970" d="M424.8273,-286.627C466.33,-281.6123 536.7401,-269.8431 591.7575,-244 628.769,-226.6147 646.6694,-224.6731 664.7575,-188 681.0335,-155.0007 671.5991,-110.7525 663.8105,-85.6203"/>
<polygon fill="#191970" stroke="#191970" points="667.0271,-84.2012 660.5496,-75.8172 660.385,-86.4108 667.0271,-84.2012"/>
</g>
<!-- Node19 -->
<g id="node20" class="node">
<title>Node19</title>
<g id="a_node20"><a xlink:href="msg_8h.html" target="_top" xlink:title="Messaging API for inter process communication. ">
<polygon fill="none" stroke="#000000" points="172.7575,-224.5 172.7575,-243.5 216.7575,-243.5 216.7575,-224.5 172.7575,-224.5"/>
<text text-anchor="middle" x="194.7575" y="-231.5" font-family="Helvetica,sans-Serif" font-size="10.00" fill="#000000">msg.h</text>
</a>
</g>
</g>
<!-- Node7&#45;&gt;Node19 -->
<g id="edge26" class="edge">
<title>Node7&#45;&gt;Node19</title>
<path fill="none" stroke="#191970" d="M356.2358,-280.3733C319.9615,-269.956 262.5341,-253.464 226.8339,-243.2117"/>
<polygon fill="#191970" stroke="#191970" points="227.5157,-239.7661 216.9381,-240.3698 225.5835,-246.4941 227.5157,-239.7661"/>
</g>
<!-- Node20 -->
<g id="node21" class="node">
<title>Node20</title>
<polygon fill="none" stroke="#bfbfbf" points="426.7575,-224.5 426.7575,-243.5 478.7575,-243.5 478.7575,-224.5 426.7575,-224.5"/>
<text text-anchor="middle" x="452.7575" y="-231.5" font-family="Helvetica,sans-Serif" font-size="10.00" fill="#000000">thread.h</text>
</g>
<!-- Node7&#45;&gt;Node20 -->
<g id="edge30" class="edge">
<title>Node7&#45;&gt;Node20</title>
<path fill="none" stroke="#191970" d="M400.7312,-280.2455C409.9457,-272.0549 423.3107,-260.1749 434.1872,-250.5069"/>
<polygon fill="#191970" stroke="#191970" points="436.7606,-252.9023 441.9095,-243.6427 432.1101,-247.6704 436.7606,-252.9023"/>
</g>
<!-- Node21 -->
<g id="node22" class="node">
<title>Node21</title>
<g id="a_node22"><a xlink:href="usbdev_8h.html" target="_top" xlink:title="Definitions low&#45;level USB driver interface. ">
<polygon fill="none" stroke="#000000" points="284.7575,-224.5 284.7575,-243.5 370.7575,-243.5 370.7575,-224.5 284.7575,-224.5"/>
<text text-anchor="middle" x="327.7575" y="-231.5" font-family="Helvetica,sans-Serif" font-size="10.00" fill="#000000">periph/usbdev.h</text>
</a>
</g>
</g>
<!-- Node7&#45;&gt;Node21 -->
<g id="edge32" class="edge">
<title>Node7&#45;&gt;Node21</title>
<path fill="none" stroke="#191970" d="M378.9579,-280.2455C369.8897,-272.0549 356.7368,-260.1749 346.033,-250.5069"/>
<polygon fill="#191970" stroke="#191970" points="348.2004,-247.7482 338.4333,-243.6427 343.5083,-252.9429 348.2004,-247.7482"/>
</g>
<!-- Node9 -->
<g id="node10" class="node">
<title>Node9</title>
<g id="a_node10"><a xlink:href="malloc_8h.html" target="_top" xlink:title="malloc.h">
<polygon fill="none" stroke="#000000" points="532.2575,-168.5 532.2575,-187.5 585.2575,-187.5 585.2575,-168.5 532.2575,-168.5"/>
<text text-anchor="middle" x="558.7575" y="-175.5" font-family="Helvetica,sans-Serif" font-size="10.00" fill="#000000">malloc.h</text>
</a>
</g>
</g>
<!-- Node8&#45;&gt;Node9 -->
<g id="edge12" class="edge">
<title>Node8&#45;&gt;Node9</title>
<path fill="none" stroke="#191970" d="M553.4906,-224.2455C552.0796,-216.9382 551.6754,-206.6944 552.278,-197.7046"/>
<polygon fill="#191970" stroke="#191970" points="555.7686,-197.9945 553.5123,-187.6427 548.8206,-197.1421 555.7686,-197.9945"/>
</g>
<!-- Node9&#45;&gt;Node8 -->
<g id="edge13" class="edge">
<title>Node9&#45;&gt;Node8</title>
<path fill="none" stroke="#191970" d="M564.0026,-187.6427C565.4239,-194.9199 565.8384,-205.155 565.2461,-214.1575"/>
<polygon fill="#191970" stroke="#191970" points="561.7522,-213.8972 564.0243,-224.2455 568.7014,-214.739 561.7522,-213.8972"/>
</g>
<!-- Node11 -->
<g id="node12" class="node">
<title>Node11</title>
<polygon fill="none" stroke="#bfbfbf" points="630.7575,-.5 630.7575,-19.5 682.7575,-19.5 682.7575,-.5 630.7575,-.5"/>
<text text-anchor="middle" x="656.7575" y="-7.5" font-family="Helvetica,sans-Serif" font-size="10.00" fill="#000000">stddef.h</text>
</g>
<!-- Node10&#45;&gt;Node11 -->
<g id="edge15" class="edge">
<title>Node10&#45;&gt;Node11</title>
<path fill="none" stroke="#191970" d="M757.6642,-224.4814C759.9228,-211.5452 762.8908,-187.7598 758.7575,-168 747.6329,-114.8178 741.9517,-99.7679 709.7575,-56 701.2974,-44.4986 689.4767,-33.8878 679.145,-25.7624"/>
<polygon fill="#191970" stroke="#191970" points="681.0132,-22.7874 670.9229,-19.5566 676.7961,-28.3746 681.0132,-22.7874"/>
</g>
<!-- Node12 -->
<g id="node13" class="node">
<title>Node12</title>
<g id="a_node13"><a xlink:href="list_8h.html" target="_top" xlink:title="Intrusive linked list. ">
<polygon fill="none" stroke="#000000" points="711.7575,-168.5 711.7575,-187.5 749.7575,-187.5 749.7575,-168.5 711.7575,-168.5"/>
<text text-anchor="middle" x="730.7575" y="-175.5" font-family="Helvetica,sans-Serif" font-size="10.00" fill="#000000">list.h</text>
</a>
</g>
</g>
<!-- Node10&#45;&gt;Node12 -->
<g id="edge16" class="edge">
<title>Node10&#45;&gt;Node12</title>
<path fill="none" stroke="#191970" d="M751.4028,-224.2455C748.0331,-216.6973 743.2645,-206.0158 739.1591,-196.8197"/>
<polygon fill="#191970" stroke="#191970" points="742.3348,-195.3473 735.0622,-187.6427 735.9428,-198.2009 742.3348,-195.3473"/>
</g>
<!-- Node14&#45;&gt;Node1 -->
<g id="edge19" class="edge">
<title>Node14&#45;&gt;Node1</title>
<path fill="none" stroke="#191970" d="M336.7372,-168.9716C300.1095,-160.5727 244.1899,-147.4111 186.6068,-132.1336"/>
<polygon fill="#191970" stroke="#191970" points="187.1642,-128.6598 176.5997,-129.4614 185.3582,-135.4229 187.1642,-128.6598"/>
</g>
<!-- Node14&#45;&gt;Node11 -->
<g id="edge22" class="edge">
<title>Node14&#45;&gt;Node11</title>
<path fill="none" stroke="#191970" d="M354.1157,-168.3329C329.3422,-156.3329 295.1,-134.6653 310.7575,-112 346.4835,-60.284 538.9234,-26.9564 620.3425,-14.9775"/>
<polygon fill="#191970" stroke="#191970" points="621.2169,-18.3876 630.6135,-13.4934 620.2158,-11.4596 621.2169,-18.3876"/>
</g>
<!-- Node15 -->
<g id="node16" class="node">
<title>Node15</title>
<g id="a_node16"><a xlink:href="inttypes_8h.html" target="_top" xlink:title="Adds include for missing inttype definitions. ">
<polygon fill="none" stroke="#000000" points="319.2575,-112.5 319.2575,-131.5 378.2575,-131.5 378.2575,-112.5 319.2575,-112.5"/>
<text text-anchor="middle" x="348.7575" y="-119.5" font-family="Helvetica,sans-Serif" font-size="10.00" fill="#000000">inttypes.h</text>
</a>
</g>
</g>
<!-- Node14&#45;&gt;Node15 -->
<g id="edge20" class="edge">
<title>Node14&#45;&gt;Node15</title>
<path fill="none" stroke="#191970" d="M371.8802,-168.2455C368.1061,-160.6973 362.7653,-150.0158 358.1673,-140.8197"/>
<polygon fill="#191970" stroke="#191970" points="361.1815,-139.0217 353.5788,-131.6427 354.9205,-142.1522 361.1815,-139.0217"/>
</g>
<!-- Node16 -->
<g id="node17" class="node">
<title>Node16</title>
<polygon fill="none" stroke="#bfbfbf" points="396.7575,-112.5 396.7575,-131.5 444.7575,-131.5 444.7575,-112.5 396.7575,-112.5"/>
<text text-anchor="middle" x="420.7575" y="-119.5" font-family="Helvetica,sans-Serif" font-size="10.00" fill="#000000">limits.h</text>
</g>
<!-- Node14&#45;&gt;Node16 -->
<g id="edge21" class="edge">
<title>Node14&#45;&gt;Node16</title>
<path fill="none" stroke="#191970" d="M384.4217,-168.2455C390.6048,-160.3761 399.4638,-149.101 406.8863,-139.6542"/>
<polygon fill="#191970" stroke="#191970" points="409.755,-141.6683 413.1811,-131.6427 404.2507,-137.3435 409.755,-141.6683"/>
</g>
<!-- Node17 -->
<g id="node18" class="node">
<title>Node17</title>
<polygon fill="none" stroke="#bfbfbf" points="194.7575,-112.5 194.7575,-131.5 262.7575,-131.5 262.7575,-112.5 194.7575,-112.5"/>
<text text-anchor="middle" x="228.7575" y="-119.5" font-family="Helvetica,sans-Serif" font-size="10.00" fill="#000000">sys/types.h</text>
</g>
<!-- Node14&#45;&gt;Node17 -->
<g id="edge23" class="edge">
<title>Node14&#45;&gt;Node17</title>
<path fill="none" stroke="#191970" d="M351.3154,-168.3733C327.0248,-159.1822 290.2367,-145.2624 263.3032,-135.0713"/>
<polygon fill="#191970" stroke="#191970" points="264.4591,-131.7666 253.8676,-131.5011 261.9818,-138.3136 264.4591,-131.7666"/>
</g>
<!-- Node18&#45;&gt;Node11 -->
<g id="edge25" class="edge">
<title>Node18&#45;&gt;Node11</title>
<path fill="none" stroke="#191970" d="M656.7575,-56.2455C656.7575,-48.9382 656.7575,-38.6944 656.7575,-29.7046"/>
<polygon fill="#191970" stroke="#191970" points="660.2576,-29.6426 656.7575,-19.6427 653.2576,-29.6427 660.2576,-29.6426"/>
</g>
<!-- Node19&#45;&gt;Node1 -->
<g id="edge27" class="edge">
<title>Node19&#45;&gt;Node1</title>
<path fill="none" stroke="#191970" d="M191.0913,-224.4509C184.0146,-206.0186 168.3529,-165.2254 159.0686,-141.043"/>
<polygon fill="#191970" stroke="#191970" points="162.2661,-139.606 155.4143,-131.5249 155.7311,-142.115 162.2661,-139.606"/>
</g>
<!-- Node19&#45;&gt;Node6 -->
<g id="edge28" class="edge">
<title>Node19&#45;&gt;Node6</title>
<path fill="none" stroke="#191970" d="M182.216,-224.2455C171.4787,-215.8943 155.8101,-203.7076 143.2528,-193.9408"/>
<polygon fill="#191970" stroke="#191970" points="145.1975,-191.0194 135.1552,-187.6427 140.8999,-196.5449 145.1975,-191.0194"/>
</g>
<!-- Node19&#45;&gt;Node14 -->
<g id="edge29" class="edge">
<title>Node19&#45;&gt;Node14</title>
<path fill="none" stroke="#191970" d="M217.0742,-227.1333C246.5737,-218.0565 299.0952,-201.8961 335.8214,-190.5957"/>
<polygon fill="#191970" stroke="#191970" points="337.2005,-193.8334 345.729,-187.5472 335.1419,-187.1429 337.2005,-193.8334"/>
</g>
<!-- Node21&#45;&gt;Node1 -->
<g id="edge33" class="edge">
<title>Node21&#45;&gt;Node1</title>
<path fill="none" stroke="#191970" d="M324.7387,-224.4606C319.7369,-210.1609 308.3918,-183.2258 289.7575,-168 285.5771,-164.5843 225.4029,-145.2057 185.908,-132.7148"/>
<polygon fill="#191970" stroke="#191970" points="186.9488,-129.3732 176.3591,-129.7014 184.8422,-136.0487 186.9488,-129.3732"/>
</g>
<!-- Node21&#45;&gt;Node3 -->
<g id="edge38" class="edge">
<title>Node21&#45;&gt;Node3</title>
<path fill="none" stroke="#191970" d="M356.2939,-224.3733C386.1096,-214.3149 432.7133,-198.5932 463.246,-188.293"/>
<polygon fill="#191970" stroke="#191970" points="464.5804,-191.5367 472.9369,-185.0238 462.3428,-184.904 464.5804,-191.5367"/>
</g>
<!-- Node21&#45;&gt;Node11 -->
<g id="edge34" class="edge">
<title>Node21&#45;&gt;Node11</title>
<path fill="none" stroke="#191970" d="M355.6161,-224.4511C376.1979,-216.5906 404.2569,-204.1272 425.7575,-188 461.7796,-160.9803 458.3847,-141.0889 492.7575,-112 536.3894,-75.0753 594.6349,-42.0972 628.6833,-24.1833"/>
<polygon fill="#191970" stroke="#191970" points="630.3558,-27.2586 637.6129,-19.5394 627.126,-21.0482 630.3558,-27.2586"/>
</g>
<!-- Node22 -->
<g id="node23" class="node">
<title>Node22</title>
<g id="a_node23"><a xlink:href="assert_8h.html" target="_top" xlink:title="POSIX.1&#45;2008 compliant version of the assert macro. ">
<polygon fill="none" stroke="#000000" points="603.7575,-168.5 603.7575,-187.5 655.7575,-187.5 655.7575,-168.5 603.7575,-168.5"/>
<text text-anchor="middle" x="629.7575" y="-175.5" font-family="Helvetica,sans-Serif" font-size="10.00" fill="#000000">assert.h</text>
</a>
</g>
</g>
<!-- Node21&#45;&gt;Node22 -->
<g id="edge35" class="edge">
<title>Node21&#45;&gt;Node22</title>
<path fill="none" stroke="#191970" d="M371.0475,-228.0074C422.0759,-220.6203 509.5842,-206.943 593.5129,-188.1033"/>
<polygon fill="#191970" stroke="#191970" points="594.4875,-191.4711 603.4628,-185.8412 592.9357,-184.6453 594.4875,-191.4711"/>
</g>
<!-- Node24 -->
<g id="node25" class="node">
<title>Node24</title>
<g id="a_node25"><a xlink:href="usbopt_8h.html" target="_top" xlink:title="Definition of global USB peripheral and USB peripheral endpoint configuration options. ">
<polygon fill="none" stroke="#000000" points="207.2575,-168.5 207.2575,-187.5 280.2575,-187.5 280.2575,-168.5 207.2575,-168.5"/>
<text text-anchor="middle" x="243.7575" y="-175.5" font-family="Helvetica,sans-Serif" font-size="10.00" fill="#000000">usb/usbopt.h</text>
</a>
</g>
</g>
<!-- Node21&#45;&gt;Node24 -->
<g id="edge39" class="edge">
<title>Node21&#45;&gt;Node24</title>
<path fill="none" stroke="#191970" d="M313.1258,-224.2455C300.3581,-215.7337 281.6137,-203.2375 266.8276,-193.3801"/>
<polygon fill="#191970" stroke="#191970" points="268.4835,-190.2775 258.2215,-187.6427 264.6005,-196.1019 268.4835,-190.2775"/>
</g>
<!-- Node23 -->
<g id="node24" class="node">
<title>Node23</title>
<g id="a_node24"><a xlink:href="panic_8h.html" target="_top" xlink:title="Crash handling header. ">
<polygon fill="none" stroke="#000000" points="606.7575,-112.5 606.7575,-131.5 654.7575,-131.5 654.7575,-112.5 606.7575,-112.5"/>
<text text-anchor="middle" x="630.7575" y="-119.5" font-family="Helvetica,sans-Serif" font-size="10.00" fill="#000000">panic.h</text>
</a>
</g>
</g>
<!-- Node22&#45;&gt;Node23 -->
<g id="edge36" class="edge">
<title>Node22&#45;&gt;Node23</title>
<path fill="none" stroke="#191970" d="M629.9317,-168.2455C630.0621,-160.9382 630.2451,-150.6944 630.4056,-141.7046"/>
<polygon fill="#191970" stroke="#191970" points="633.9061,-141.7036 630.5853,-131.6427 626.9072,-141.5786 633.9061,-141.7036"/>
</g>
<!-- Node23&#45;&gt;Node18 -->
<g id="edge37" class="edge">
<title>Node23&#45;&gt;Node18</title>
<path fill="none" stroke="#191970" d="M635.2863,-112.2455C638.7909,-104.6973 643.7502,-94.0158 648.0197,-84.8197"/>
<polygon fill="#191970" stroke="#191970" points="651.2439,-86.1867 652.2805,-75.6427 644.8948,-83.2389 651.2439,-86.1867"/>
</g>
<!-- Node24&#45;&gt;Node1 -->
<g id="edge40" class="edge">
<title>Node24&#45;&gt;Node1</title>
<path fill="none" stroke="#191970" d="M227.7323,-168.2455C213.6167,-159.6534 192.8311,-147.0014 176.5676,-137.1018"/>
<polygon fill="#191970" stroke="#191970" points="177.9608,-133.8525 167.599,-131.6427 174.3212,-139.8319 177.9608,-133.8525"/>
</g>
<!-- Node25&#45;&gt;Node1 -->
<g id="edge45" class="edge">
<title>Node25&#45;&gt;Node1</title>
<path fill="none" stroke="#191970" d="M810.6891,-224.2129C802.2407,-209.0607 783.7121,-180.3821 758.7575,-168 647.2589,-112.676 327.539,-152.1051 186.7177,-131.6205"/>
<polygon fill="#191970" stroke="#191970" points="186.9179,-128.1076 176.4877,-129.9677 185.8014,-135.018 186.9179,-128.1076"/>
</g>
<!-- Node25&#45;&gt;Node11 -->
<g id="edge44" class="edge">
<title>Node25&#45;&gt;Node11</title>
<path fill="none" stroke="#191970" d="M813.383,-224.3197C805.8766,-195.4533 780.1812,-108.7114 730.7575,-56 718.5353,-42.9648 701.8368,-32.1651 687.3952,-24.3133"/>
<polygon fill="#191970" stroke="#191970" points="688.7877,-21.0926 678.3006,-19.5853 685.5588,-27.3034 688.7877,-21.0926"/>
</g>
<!-- Node25&#45;&gt;Node22 -->
<g id="edge43" class="edge">
<title>Node25&#45;&gt;Node22</title>
<path fill="none" stroke="#191970" d="M795.2022,-226.7783C792.372,-225.8231 789.4975,-224.8733 786.7575,-224 745.4896,-210.8473 697.6768,-197.0416 665.7601,-188.028"/>
<polygon fill="#191970" stroke="#191970" points="666.5589,-184.6169 655.9846,-185.2768 664.6624,-191.3551 666.5589,-184.6169"/>
</g>
</g>
</svg>
