<?xml version="1.0" encoding="UTF-8" standalone="no"?>
<!DOCTYPE svg PUBLIC "-//W3C//DTD SVG 1.1//EN"
 "http://www.w3.org/Graphics/SVG/1.1/DTD/svg11.dtd">
<!-- Generated by graphviz version 2.40.1 (20161225.0304)
 -->
<!-- Title: sys/include/crypto/aes.h Pages: 1 -->
<svg width="400pt" height="151pt"
 viewBox="0.00 0.00 400.00 151.00" xmlns="http://www.w3.org/2000/svg" xmlns:xlink="http://www.w3.org/1999/xlink">
<g id="graph0" class="graph" transform="scale(1 1) rotate(0) translate(4 147)">
<title>sys/include/crypto/aes.h</title>
<!-- Node0 -->
<g id="node1" class="node">
<title>Node0</title>
<polygon fill="#bfbfbf" stroke="#000000" points="144,-112.5 144,-142.5 240,-142.5 240,-112.5 144,-112.5"/>
<text text-anchor="start" x="152" y="-130.5" font-family="Helvetica,sans-Serif" font-size="10.00" fill="#000000">sys/include/crypto</text>
<text text-anchor="middle" x="192" y="-119.5" font-family="Helvetica,sans-Serif" font-size="10.00" fill="#000000">/aes.h</text>
</g>
<!-- Node1 -->
<g id="node2" class="node">
<title>Node1</title>
<g id="a_node2"><a xlink:href="stdio_8h.html" target="_top" xlink:title="stdio.h wrapper for MSP430 ">
<polygon fill="none" stroke="#000000" points="0,-56.5 0,-75.5 46,-75.5 46,-56.5 0,-56.5"/>
<text text-anchor="middle" x="23" y="-63.5" font-family="Helvetica,sans-Serif" font-size="10.00" fill="#000000">stdio.h</text>
</a>
</g>
</g>
<!-- Node0&#45;&gt;Node1 -->
<g id="edge1" class="edge">
<title>Node0&#45;&gt;Node1</title>
<path fill="none" stroke="#191970" d="M150.6579,-112.4554C121.4155,-101.8139 82.7469,-87.7422 55.6602,-77.8852"/>
<polygon fill="#191970" stroke="#191970" points="56.8379,-74.5893 46.2438,-74.4586 54.4441,-81.1673 56.8379,-74.5893"/>
</g>
<!-- Node2 -->
<g id="node3" class="node">
<title>Node2</title>
<polygon fill="none" stroke="#bfbfbf" points="64,-56.5 64,-75.5 116,-75.5 116,-56.5 64,-56.5"/>
<text text-anchor="middle" x="90" y="-63.5" font-family="Helvetica,sans-Serif" font-size="10.00" fill="#000000">stdarg.h</text>
</g>
<!-- Node0&#45;&gt;Node2 -->
<g id="edge2" class="edge">
<title>Node0&#45;&gt;Node2</title>
<path fill="none" stroke="#191970" d="M167.048,-112.4554C151.0741,-102.8241 130.4398,-90.3828 114.5457,-80.7996"/>
<polygon fill="#191970" stroke="#191970" points="116.1774,-77.6965 105.8064,-75.5303 112.563,-83.6912 116.1774,-77.6965"/>
</g>
<!-- Node3 -->
<g id="node4" class="node">
<title>Node3</title>
<polygon fill="none" stroke="#bfbfbf" points="134.5,-56.5 134.5,-75.5 183.5,-75.5 183.5,-56.5 134.5,-56.5"/>
<text text-anchor="middle" x="159" y="-63.5" font-family="Helvetica,sans-Serif" font-size="10.00" fill="#000000">string.h</text>
</g>
<!-- Node0&#45;&gt;Node3 -->
<g id="edge3" class="edge">
<title>Node0&#45;&gt;Node3</title>
<path fill="none" stroke="#191970" d="M183.8427,-112.2977C179.4051,-104.0277 173.875,-93.7215 169.1596,-84.9339"/>
<polygon fill="#191970" stroke="#191970" points="172.096,-83.0037 164.2837,-75.8469 165.9279,-86.3134 172.096,-83.0037"/>
</g>
<!-- Node4 -->
<g id="node5" class="node">
<title>Node4</title>
<g id="a_node5"><a xlink:href="stdlib_8h.html" target="_top" xlink:title="stdlib.h wrapper for MSP430 ">
<polygon fill="none" stroke="#000000" points="202,-56.5 202,-75.5 250,-75.5 250,-56.5 202,-56.5"/>
<text text-anchor="middle" x="226" y="-63.5" font-family="Helvetica,sans-Serif" font-size="10.00" fill="#000000">stdlib.h</text>
</a>
</g>
</g>
<!-- Node0&#45;&gt;Node4 -->
<g id="edge4" class="edge">
<title>Node0&#45;&gt;Node4</title>
<path fill="none" stroke="#191970" d="M200.4045,-112.2977C205.0257,-103.9388 210.7969,-93.4997 215.6889,-84.6509"/>
<polygon fill="#191970" stroke="#191970" points="218.7809,-86.292 220.5562,-75.8469 212.6548,-82.9051 218.7809,-86.292"/>
</g>
<!-- Node6 -->
<g id="node7" class="node">
<title>Node6</title>
<polygon fill="none" stroke="#bfbfbf" points="297.5,-.5 297.5,-19.5 346.5,-19.5 346.5,-.5 297.5,-.5"/>
<text text-anchor="middle" x="322" y="-7.5" font-family="Helvetica,sans-Serif" font-size="10.00" fill="#000000">stdint.h</text>
</g>
<!-- Node0&#45;&gt;Node6 -->
<g id="edge7" class="edge">
<title>Node0&#45;&gt;Node6</title>
<path fill="none" stroke="#191970" d="M213.4862,-112.2898C226.9684,-102.4324 244.4856,-89.0413 259,-76 276.1736,-60.5694 294.2131,-41.3157 306.5659,-27.5939"/>
<polygon fill="#191970" stroke="#191970" points="309.4267,-29.6442 313.4637,-19.8487 304.1992,-24.9887 309.4267,-29.6442"/>
</g>
<!-- Node7 -->
<g id="node8" class="node">
<title>Node7</title>
<g id="a_node8"><a xlink:href="ciphers_8h.html" target="_top" xlink:title="Headers for the packet encryption class. ">
<polygon fill="none" stroke="#000000" points="306,-56.5 306,-75.5 392,-75.5 392,-56.5 306,-56.5"/>
<text text-anchor="middle" x="349" y="-63.5" font-family="Helvetica,sans-Serif" font-size="10.00" fill="#000000">crypto/ciphers.h</text>
</a>
</g>
</g>
<!-- Node0&#45;&gt;Node7 -->
<g id="edge8" class="edge">
<title>Node0&#45;&gt;Node7</title>
<path fill="none" stroke="#191970" d="M230.4065,-112.4554C256.3726,-102.284 290.339,-88.9787 315.263,-79.2155"/>
<polygon fill="#191970" stroke="#191970" points="316.636,-82.4366 324.6706,-75.5303 314.0829,-75.9188 316.636,-82.4366"/>
</g>
<!-- Node5 -->
<g id="node6" class="node">
<title>Node5</title>
<g id="a_node6"><a xlink:href="malloc_8h.html" target="_top" xlink:title="malloc.h">
<polygon fill="none" stroke="#000000" points="199.5,-.5 199.5,-19.5 252.5,-19.5 252.5,-.5 199.5,-.5"/>
<text text-anchor="middle" x="226" y="-7.5" font-family="Helvetica,sans-Serif" font-size="10.00" fill="#000000">malloc.h</text>
</a>
</g>
</g>
<!-- Node4&#45;&gt;Node5 -->
<g id="edge5" class="edge">
<title>Node4&#45;&gt;Node5</title>
<path fill="none" stroke="#191970" d="M220.7332,-56.2455C219.3221,-48.9382 218.9179,-38.6944 219.5205,-29.7046"/>
<polygon fill="#191970" stroke="#191970" points="223.0111,-29.9945 220.7549,-19.6427 216.0632,-29.1421 223.0111,-29.9945"/>
</g>
<!-- Node5&#45;&gt;Node4 -->
<g id="edge6" class="edge">
<title>Node5&#45;&gt;Node4</title>
<path fill="none" stroke="#191970" d="M231.2451,-19.6427C232.6665,-26.9199 233.081,-37.155 232.4887,-46.1575"/>
<polygon fill="#191970" stroke="#191970" points="228.9947,-45.8972 231.2668,-56.2455 235.9439,-46.739 228.9947,-45.8972"/>
</g>
<!-- Node7&#45;&gt;Node6 -->
<g id="edge9" class="edge">
<title>Node7&#45;&gt;Node6</title>
<path fill="none" stroke="#191970" d="M344.297,-56.2455C340.6576,-48.6973 335.5076,-38.0158 331.0738,-28.8197"/>
<polygon fill="#191970" stroke="#191970" points="334.1449,-27.1303 326.6491,-19.6427 327.8395,-30.1704 334.1449,-27.1303"/>
</g>
</g>
</svg>
