<?xml version="1.0" encoding="UTF-8" standalone="no"?>
<!DOCTYPE svg PUBLIC "-//W3C//DTD SVG 1.1//EN"
 "http://www.w3.org/Graphics/SVG/1.1/DTD/svg11.dtd">
<!-- Generated by graphviz version 2.43.0 (0)
 -->
<!-- Title: drivers/aip31068/include/aip31068_regs.h Pages: 1 -->
<svg width="310pt" height="106pt"
 viewBox="0.00 0.00 309.50 106.00" xmlns="http://www.w3.org/2000/svg" xmlns:xlink="http://www.w3.org/1999/xlink">
<g id="graph0" class="graph" transform="scale(1 1) rotate(0) translate(4 102)">
<title>drivers/aip31068/include/aip31068_regs.h</title>
<!-- Node1 -->
<g id="node1" class="node">
<title>Node1</title>
<g id="a_node1"><a xlink:title="Register definitions for the AIP31068 I2C LCD controller.">
<polygon fill="#bfbfbf" stroke="black" points="80,-67.5 80,-97.5 217,-97.5 217,-67.5 80,-67.5"/>
<text text-anchor="start" x="88" y="-85.5" font-family="Helvetica,sans-Serif" font-size="10.00">drivers/aip31068/include</text>
<text text-anchor="middle" x="148.5" y="-74.5" font-family="Helvetica,sans-Serif" font-size="10.00">/aip31068_regs.h</text>
</a>
</g>
</g>
<!-- Node2 -->
<g id="node2" class="node">
<title>Node2</title>
<g id="a_node2"><a xlink:href="aip31068__params_8h.html" target="_top" xlink:title="Default configuration for the AIP31068 I2C LCD controller.">
<polygon fill="none" stroke="black" points="0,-0.5 0,-30.5 137,-30.5 137,-0.5 0,-0.5"/>
<text text-anchor="start" x="8" y="-18.5" font-family="Helvetica,sans-Serif" font-size="10.00">drivers/aip31068/include</text>
<text text-anchor="middle" x="68.5" y="-7.5" font-family="Helvetica,sans-Serif" font-size="10.00">/aip31068_params.h</text>
</a>
</g>
</g>
<!-- Node1&#45;&gt;Node2 -->
<g id="edge1" class="edge">
<title>Node1&#45;&gt;Node2</title>
<path fill="none" stroke="midnightblue" d="M123.13,-60.88C110.97,-51.01 96.72,-39.43 85.82,-30.58"/>
<polygon fill="midnightblue" stroke="midnightblue" points="121.17,-63.81 131.14,-67.4 125.59,-58.37 121.17,-63.81"/>
</g>
<!-- Node3 -->
<g id="node3" class="node">
<title>Node3</title>
<g id="a_node3"><a xlink:href="aip31068_8h.html" target="_top" xlink:title=" ">
<polygon fill="none" stroke="black" points="155.5,-6 155.5,-25 301.5,-25 301.5,-6 155.5,-6"/>
<text text-anchor="middle" x="228.5" y="-13" font-family="Helvetica,sans-Serif" font-size="10.00">drivers/include/aip31068.h</text>
</a>
</g>
</g>
<!-- Node1&#45;&gt;Node3 -->
<g id="edge2" class="edge">
<title>Node1&#45;&gt;Node3</title>
<path fill="none" stroke="midnightblue" d="M173.72,-61.01C188.57,-48.94 206.59,-34.3 217.8,-25.19"/>
<polygon fill="midnightblue" stroke="midnightblue" points="171.41,-58.37 165.86,-67.4 175.83,-63.81 171.41,-58.37"/>
</g>
</g>
</svg>
