<?xml version="1.0" encoding="UTF-8" standalone="no"?>
<!DOCTYPE svg PUBLIC "-//W3C//DTD SVG 1.1//EN"
 "http://www.w3.org/Graphics/SVG/1.1/DTD/svg11.dtd">
<!-- Generated by graphviz version 2.40.1 (20161225.0304)
 -->
<!-- Title: sys/include/analog_util.h Pages: 1 -->
<svg width="307pt" height="151pt"
 viewBox="0.00 0.00 307.00 151.00" xmlns="http://www.w3.org/2000/svg" xmlns:xlink="http://www.w3.org/1999/xlink">
<g id="graph0" class="graph" transform="scale(1 1) rotate(0) translate(4 147)">
<title>sys/include/analog_util.h</title>
<!-- Node0 -->
<g id="node1" class="node">
<title>Node0</title>
<polygon fill="#bfbfbf" stroke="#000000" points="8.5,-112.5 8.5,-142.5 106.5,-142.5 106.5,-112.5 8.5,-112.5"/>
<text text-anchor="start" x="16.5" y="-130.5" font-family="Helvetica,sans-Serif" font-size="10.00" fill="#000000">sys/include/analog</text>
<text text-anchor="middle" x="57.5" y="-119.5" font-family="Helvetica,sans-Serif" font-size="10.00" fill="#000000">_util.h</text>
</g>
<!-- Node1 -->
<g id="node2" class="node">
<title>Node1</title>
<polygon fill="none" stroke="#bfbfbf" points="0,-.5 0,-19.5 49,-19.5 49,-.5 0,-.5"/>
<text text-anchor="middle" x="24.5" y="-7.5" font-family="Helvetica,sans-Serif" font-size="10.00" fill="#000000">stdint.h</text>
</g>
<!-- Node0&#45;&gt;Node1 -->
<g id="edge1" class="edge">
<title>Node0&#45;&gt;Node1</title>
<path fill="none" stroke="#191970" d="M53.1858,-112.1389C47.2133,-90.873 36.4278,-52.4702 29.9192,-29.2956"/>
<polygon fill="#191970" stroke="#191970" points="33.2584,-28.2406 27.1848,-19.5595 26.5191,-30.1334 33.2584,-28.2406"/>
</g>
<!-- Node2 -->
<g id="node3" class="node">
<title>Node2</title>
<g id="a_node3"><a xlink:href="adc_8h.html" target="_top" xlink:title="Low&#45;level ADC peripheral driver interface definitions. ">
<polygon fill="none" stroke="#000000" points="56.5,-56.5 56.5,-75.5 126.5,-75.5 126.5,-56.5 56.5,-56.5"/>
<text text-anchor="middle" x="91.5" y="-63.5" font-family="Helvetica,sans-Serif" font-size="10.00" fill="#000000">periph/adc.h</text>
</a>
</g>
</g>
<!-- Node0&#45;&gt;Node2 -->
<g id="edge2" class="edge">
<title>Node0&#45;&gt;Node2</title>
<path fill="none" stroke="#191970" d="M65.9045,-112.2977C70.5257,-103.9388 76.2969,-93.4997 81.1889,-84.6509"/>
<polygon fill="#191970" stroke="#191970" points="84.2809,-86.292 86.0562,-75.8469 78.1548,-82.9051 84.2809,-86.292"/>
</g>
<!-- Node2&#45;&gt;Node1 -->
<g id="edge4" class="edge">
<title>Node2&#45;&gt;Node1</title>
<path fill="none" stroke="#191970" d="M79.8295,-56.2455C69.9339,-47.9746 55.5373,-35.9416 43.9099,-26.2232"/>
<polygon fill="#191970" stroke="#191970" points="45.9542,-23.3703 36.0368,-19.6427 41.465,-28.7413 45.9542,-23.3703"/>
</g>
<!-- Node3 -->
<g id="node4" class="node">
<title>Node3</title>
<polygon fill="none" stroke="#bfbfbf" points="67.5,-.5 67.5,-19.5 115.5,-19.5 115.5,-.5 67.5,-.5"/>
<text text-anchor="middle" x="91.5" y="-7.5" font-family="Helvetica,sans-Serif" font-size="10.00" fill="#000000">limits.h</text>
</g>
<!-- Node2&#45;&gt;Node3 -->
<g id="edge3" class="edge">
<title>Node2&#45;&gt;Node3</title>
<path fill="none" stroke="#191970" d="M91.5,-56.2455C91.5,-48.9382 91.5,-38.6944 91.5,-29.7046"/>
<polygon fill="#191970" stroke="#191970" points="95.0001,-29.6426 91.5,-19.6427 88.0001,-29.6427 95.0001,-29.6426"/>
</g>
<!-- Node4 -->
<g id="node5" class="node">
<title>Node4</title>
<polygon fill="none" stroke="#bfbfbf" points="133.5,-.5 133.5,-19.5 205.5,-19.5 205.5,-.5 133.5,-.5"/>
<text text-anchor="middle" x="169.5" y="-7.5" font-family="Helvetica,sans-Serif" font-size="10.00" fill="#000000">periph_cpu.h</text>
</g>
<!-- Node2&#45;&gt;Node4 -->
<g id="edge5" class="edge">
<title>Node2&#45;&gt;Node4</title>
<path fill="none" stroke="#191970" d="M105.0866,-56.2455C116.8305,-47.814 134.0199,-35.4729 147.6882,-25.6598"/>
<polygon fill="#191970" stroke="#191970" points="149.9871,-28.3179 156.0691,-19.6427 145.9046,-22.6316 149.9871,-28.3179"/>
</g>
<!-- Node5 -->
<g id="node6" class="node">
<title>Node5</title>
<polygon fill="none" stroke="#bfbfbf" points="224,-.5 224,-19.5 299,-19.5 299,-.5 224,-.5"/>
<text text-anchor="middle" x="261.5" y="-7.5" font-family="Helvetica,sans-Serif" font-size="10.00" fill="#000000">periph_conf.h</text>
</g>
<!-- Node2&#45;&gt;Node5 -->
<g id="edge6" class="edge">
<title>Node2&#45;&gt;Node5</title>
<path fill="none" stroke="#191970" d="M120.724,-56.3733C148.9925,-47.0613 191.9965,-32.8953 223.0344,-22.671"/>
<polygon fill="#191970" stroke="#191970" points="224.2544,-25.9542 232.6573,-19.5011 222.0643,-19.3056 224.2544,-25.9542"/>
</g>
</g>
</svg>
