<?xml version="1.0" encoding="UTF-8" standalone="no"?>
<!DOCTYPE svg PUBLIC "-//W3C//DTD SVG 1.1//EN"
 "http://www.w3.org/Graphics/SVG/1.1/DTD/svg11.dtd">
<!-- Generated by graphviz version 2.43.0 (0)
 -->
<!-- Title: drivers/apds99xx/include/apds99xx_params.h Pages: 1 -->
<svg width="560pt" height="319pt"
 viewBox="0.00 0.00 559.99 319.00" xmlns="http://www.w3.org/2000/svg" xmlns:xlink="http://www.w3.org/1999/xlink">
<g id="graph0" class="graph" transform="scale(1 1) rotate(0) translate(4 315)">
<title>drivers/apds99xx/include/apds99xx_params.h</title>
<!-- Node1 -->
<g id="node1" class="node">
<title>Node1</title>
<g id="a_node1"><a xlink:title="Default configuration for Broadcom APDS99XX proximity and ambient light sensor.">
<polygon fill="#bfbfbf" stroke="black" points="312,-280.5 312,-310.5 451,-310.5 451,-280.5 312,-280.5"/>
<text text-anchor="start" x="320" y="-298.5" font-family="Helvetica,sans-Serif" font-size="10.00">drivers/apds99xx/include</text>
<text text-anchor="middle" x="381.5" y="-287.5" font-family="Helvetica,sans-Serif" font-size="10.00">/apds99xx_params.h</text>
</a>
</g>
</g>
<!-- Node2 -->
<g id="node2" class="node">
<title>Node2</title>
<g id="a_node2"><a xlink:title=" ">
<polygon fill="none" stroke="#bfbfbf" points="300,-224.5 300,-243.5 353,-243.5 353,-224.5 300,-224.5"/>
<text text-anchor="middle" x="326.5" y="-231.5" font-family="Helvetica,sans-Serif" font-size="10.00">board.h</text>
</a>
</g>
</g>
<!-- Node1&#45;&gt;Node2 -->
<g id="edge1" class="edge">
<title>Node1&#45;&gt;Node2</title>
<path fill="none" stroke="midnightblue" d="M368.47,-280.4C360.31,-271.58 349.78,-260.18 341.31,-251.02"/>
<polygon fill="midnightblue" stroke="midnightblue" points="343.86,-248.63 334.5,-243.66 338.72,-253.38 343.86,-248.63"/>
</g>
<!-- Node3 -->
<g id="node3" class="node">
<title>Node3</title>
<g id="a_node3"><a xlink:href="apds99xx_8h.html" target="_top" xlink:title=" ">
<polygon fill="none" stroke="black" points="228,-112.5 228,-131.5 301,-131.5 301,-112.5 228,-112.5"/>
<text text-anchor="middle" x="264.5" y="-119.5" font-family="Helvetica,sans-Serif" font-size="10.00">apds99xx.h</text>
</a>
</g>
</g>
<!-- Node1&#45;&gt;Node3 -->
<g id="edge2" class="edge">
<title>Node1&#45;&gt;Node3</title>
<path fill="none" stroke="midnightblue" d="M379.58,-280.47C377.11,-265.65 371.82,-241.99 361.5,-224 341.21,-188.63 305.87,-156.25 283.91,-138.13"/>
<polygon fill="midnightblue" stroke="midnightblue" points="285.91,-135.25 275.93,-131.69 281.52,-140.69 285.91,-135.25"/>
</g>
<!-- Node12 -->
<g id="node12" class="node">
<title>Node12</title>
<g id="a_node12"><a xlink:href="saul__reg_8h.html" target="_top" xlink:title="SAUL registry interface definition.">
<polygon fill="none" stroke="black" points="435,-224.5 435,-243.5 502,-243.5 502,-224.5 435,-224.5"/>
<text text-anchor="middle" x="468.5" y="-231.5" font-family="Helvetica,sans-Serif" font-size="10.00">saul_reg.h</text>
</a>
</g>
</g>
<!-- Node1&#45;&gt;Node12 -->
<g id="edge15" class="edge">
<title>Node1&#45;&gt;Node12</title>
<path fill="none" stroke="midnightblue" d="M402.12,-280.4C415.8,-271.04 433.71,-258.79 447.48,-249.38"/>
<polygon fill="midnightblue" stroke="midnightblue" points="449.56,-252.19 455.84,-243.66 445.61,-246.41 449.56,-252.19"/>
</g>
<!-- Node4 -->
<g id="node4" class="node">
<title>Node4</title>
<g id="a_node4"><a xlink:title=" ">
<polygon fill="none" stroke="#bfbfbf" points="233.5,-56.5 233.5,-75.5 295.5,-75.5 295.5,-56.5 233.5,-56.5"/>
<text text-anchor="middle" x="264.5" y="-63.5" font-family="Helvetica,sans-Serif" font-size="10.00">stdbool.h</text>
</a>
</g>
</g>
<!-- Node3&#45;&gt;Node4 -->
<g id="edge3" class="edge">
<title>Node3&#45;&gt;Node4</title>
<path fill="none" stroke="midnightblue" d="M264.5,-112.08C264.5,-105.01 264.5,-94.86 264.5,-85.99"/>
<polygon fill="midnightblue" stroke="midnightblue" points="268,-85.75 264.5,-75.75 261,-85.75 268,-85.75"/>
</g>
<!-- Node5 -->
<g id="node5" class="node">
<title>Node5</title>
<g id="a_node5"><a xlink:title=" ">
<polygon fill="none" stroke="#bfbfbf" points="450,-0.5 450,-19.5 503,-19.5 503,-0.5 450,-0.5"/>
<text text-anchor="middle" x="476.5" y="-7.5" font-family="Helvetica,sans-Serif" font-size="10.00">stdint.h</text>
</a>
</g>
</g>
<!-- Node3&#45;&gt;Node5 -->
<g id="edge4" class="edge">
<title>Node3&#45;&gt;Node5</title>
<path fill="none" stroke="midnightblue" d="M279.11,-112.48C301.09,-99.76 344.09,-75.23 381.5,-56 403.62,-44.63 429.1,-32.62 448.1,-23.87"/>
<polygon fill="midnightblue" stroke="midnightblue" points="449.76,-26.96 457.4,-19.61 446.85,-20.59 449.76,-26.96"/>
</g>
<!-- Node6 -->
<g id="node6" class="node">
<title>Node6</title>
<g id="a_node6"><a xlink:href="gpio_8h.html" target="_top" xlink:title="Low&#45;level GPIO peripheral driver interface definitions.">
<polygon fill="none" stroke="black" points="43.5,-56.5 43.5,-75.5 123.5,-75.5 123.5,-56.5 43.5,-56.5"/>
<text text-anchor="middle" x="83.5" y="-63.5" font-family="Helvetica,sans-Serif" font-size="10.00">periph/gpio.h</text>
</a>
</g>
</g>
<!-- Node3&#45;&gt;Node6 -->
<g id="edge5" class="edge">
<title>Node3&#45;&gt;Node6</title>
<path fill="none" stroke="midnightblue" d="M235.82,-112.44C204.97,-103.24 155.77,-88.56 121.67,-78.39"/>
<polygon fill="midnightblue" stroke="midnightblue" points="122.63,-75.02 112.05,-75.52 120.63,-81.73 122.63,-75.02"/>
</g>
<!-- Node10 -->
<g id="node10" class="node">
<title>Node10</title>
<g id="a_node10"><a xlink:href="i2c_8h.html" target="_top" xlink:title="Low&#45;level I2C peripheral driver interface definition.">
<polygon fill="none" stroke="black" points="141.5,-56.5 141.5,-75.5 215.5,-75.5 215.5,-56.5 141.5,-56.5"/>
<text text-anchor="middle" x="178.5" y="-63.5" font-family="Helvetica,sans-Serif" font-size="10.00">periph/i2c.h</text>
</a>
</g>
</g>
<!-- Node3&#45;&gt;Node10 -->
<g id="edge9" class="edge">
<title>Node3&#45;&gt;Node10</title>
<path fill="none" stroke="midnightblue" d="M250.68,-112.32C237.27,-103.9 216.68,-90.97 200.91,-81.07"/>
<polygon fill="midnightblue" stroke="midnightblue" points="202.61,-78.01 192.28,-75.65 198.89,-83.94 202.61,-78.01"/>
</g>
<!-- Node7 -->
<g id="node7" class="node">
<title>Node7</title>
<g id="a_node7"><a xlink:title=" ">
<polygon fill="none" stroke="#bfbfbf" points="0,-0.5 0,-19.5 53,-19.5 53,-0.5 0,-0.5"/>
<text text-anchor="middle" x="26.5" y="-7.5" font-family="Helvetica,sans-Serif" font-size="10.00">limits.h</text>
</a>
</g>
</g>
<!-- Node6&#45;&gt;Node7 -->
<g id="edge6" class="edge">
<title>Node6&#45;&gt;Node7</title>
<path fill="none" stroke="midnightblue" d="M74.34,-56.32C66,-48.42 53.47,-36.55 43.32,-26.94"/>
<polygon fill="midnightblue" stroke="midnightblue" points="45.49,-24.17 35.82,-19.83 40.68,-29.25 45.49,-24.17"/>
</g>
<!-- Node8 -->
<g id="node8" class="node">
<title>Node8</title>
<g id="a_node8"><a xlink:title=" ">
<polygon fill="none" stroke="#bfbfbf" points="71,-0.5 71,-19.5 150,-19.5 150,-0.5 71,-0.5"/>
<text text-anchor="middle" x="110.5" y="-7.5" font-family="Helvetica,sans-Serif" font-size="10.00">periph_cpu.h</text>
</a>
</g>
</g>
<!-- Node6&#45;&gt;Node8 -->
<g id="edge7" class="edge">
<title>Node6&#45;&gt;Node8</title>
<path fill="none" stroke="midnightblue" d="M87.96,-56.08C91.65,-48.69 97.02,-37.95 101.59,-28.81"/>
<polygon fill="midnightblue" stroke="midnightblue" points="104.78,-30.26 106.12,-19.75 98.52,-27.13 104.78,-30.26"/>
</g>
<!-- Node9 -->
<g id="node9" class="node">
<title>Node9</title>
<g id="a_node9"><a xlink:title=" ">
<polygon fill="none" stroke="#bfbfbf" points="168.5,-0.5 168.5,-19.5 250.5,-19.5 250.5,-0.5 168.5,-0.5"/>
<text text-anchor="middle" x="209.5" y="-7.5" font-family="Helvetica,sans-Serif" font-size="10.00">periph_conf.h</text>
</a>
</g>
</g>
<!-- Node6&#45;&gt;Node9 -->
<g id="edge8" class="edge">
<title>Node6&#45;&gt;Node9</title>
<path fill="none" stroke="midnightblue" d="M103.47,-56.44C124.11,-47.6 156.56,-33.69 180.13,-23.59"/>
<polygon fill="midnightblue" stroke="midnightblue" points="181.82,-26.67 189.63,-19.52 179.06,-20.24 181.82,-26.67"/>
</g>
<!-- Node10&#45;&gt;Node5 -->
<g id="edge10" class="edge">
<title>Node10&#45;&gt;Node5</title>
<path fill="none" stroke="midnightblue" d="M215.65,-57.68C218.64,-57.1 221.62,-56.54 224.5,-56 301.01,-41.68 390.79,-25.89 439.86,-17.35"/>
<polygon fill="midnightblue" stroke="midnightblue" points="440.74,-20.75 449.99,-15.59 439.54,-13.85 440.74,-20.75"/>
</g>
<!-- Node10&#45;&gt;Node7 -->
<g id="edge12" class="edge">
<title>Node10&#45;&gt;Node7</title>
<path fill="none" stroke="midnightblue" d="M154.42,-56.44C128.96,-47.4 88.61,-33.06 60.04,-22.92"/>
<polygon fill="midnightblue" stroke="midnightblue" points="61.07,-19.57 50.47,-19.52 58.72,-26.16 61.07,-19.57"/>
</g>
<!-- Node10&#45;&gt;Node8 -->
<g id="edge14" class="edge">
<title>Node10&#45;&gt;Node8</title>
<path fill="none" stroke="midnightblue" d="M167.57,-56.32C157.33,-48.18 141.78,-35.84 129.5,-26.09"/>
<polygon fill="midnightblue" stroke="midnightblue" points="131.63,-23.31 121.62,-19.83 127.28,-28.79 131.63,-23.31"/>
</g>
<!-- Node10&#45;&gt;Node9 -->
<g id="edge13" class="edge">
<title>Node10&#45;&gt;Node9</title>
<path fill="none" stroke="midnightblue" d="M183.62,-56.08C187.91,-48.61 194.16,-37.72 199.44,-28.52"/>
<polygon fill="midnightblue" stroke="midnightblue" points="202.53,-30.17 204.48,-19.75 196.46,-26.68 202.53,-30.17"/>
</g>
<!-- Node11 -->
<g id="node11" class="node">
<title>Node11</title>
<g id="a_node11"><a xlink:title=" ">
<polygon fill="none" stroke="#bfbfbf" points="295.5,-0.5 295.5,-19.5 351.5,-19.5 351.5,-0.5 295.5,-0.5"/>
<text text-anchor="middle" x="323.5" y="-7.5" font-family="Helvetica,sans-Serif" font-size="10.00">stddef.h</text>
</a>
</g>
</g>
<!-- Node10&#45;&gt;Node11 -->
<g id="edge11" class="edge">
<title>Node10&#45;&gt;Node11</title>
<path fill="none" stroke="midnightblue" d="M201.48,-56.44C225.66,-47.44 263.92,-33.19 291.15,-23.05"/>
<polygon fill="midnightblue" stroke="midnightblue" points="292.48,-26.29 300.63,-19.52 290.04,-19.73 292.48,-26.29"/>
</g>
<!-- Node12&#45;&gt;Node5 -->
<g id="edge16" class="edge">
<title>Node12&#45;&gt;Node5</title>
<path fill="none" stroke="midnightblue" d="M480.87,-224.5C492.26,-216.2 509.07,-202.71 520.5,-188 537.57,-166.03 542.11,-159.08 548.5,-132 556.48,-98.22 549.91,-84.78 530.5,-56 522.31,-43.87 509.95,-33.23 499.11,-25.34"/>
<polygon fill="midnightblue" stroke="midnightblue" points="501.07,-22.44 490.86,-19.63 497.09,-28.2 501.07,-22.44"/>
</g>
<!-- Node13 -->
<g id="node13" class="node">
<title>Node13</title>
<g id="a_node13"><a xlink:href="saul_8h.html" target="_top" xlink:title="Definition of the generic [S]ensor [A]ctuator [U]ber [L]ayer.">
<polygon fill="none" stroke="black" points="465.5,-168.5 465.5,-187.5 511.5,-187.5 511.5,-168.5 465.5,-168.5"/>
<text text-anchor="middle" x="488.5" y="-175.5" font-family="Helvetica,sans-Serif" font-size="10.00">saul.h</text>
</a>
</g>
</g>
<!-- Node12&#45;&gt;Node13 -->
<g id="edge17" class="edge">
<title>Node12&#45;&gt;Node13</title>
<path fill="none" stroke="midnightblue" d="M471.8,-224.08C474.48,-216.85 478.35,-206.41 481.69,-197.4"/>
<polygon fill="midnightblue" stroke="midnightblue" points="485.07,-198.34 485.26,-187.75 478.5,-195.91 485.07,-198.34"/>
</g>
<!-- Node15 -->
<g id="node15" class="node">
<title>Node15</title>
<g id="a_node15"><a xlink:href="phydat_8h.html" target="_top" xlink:title="Generic data container for physical data interface.">
<polygon fill="none" stroke="black" points="397,-112.5 397,-131.5 456,-131.5 456,-112.5 397,-112.5"/>
<text text-anchor="middle" x="426.5" y="-119.5" font-family="Helvetica,sans-Serif" font-size="10.00">phydat.h</text>
</a>
</g>
</g>
<!-- Node12&#45;&gt;Node15 -->
<g id="edge26" class="edge">
<title>Node12&#45;&gt;Node15</title>
<path fill="none" stroke="midnightblue" d="M465.2,-224.37C458.37,-206.46 442.51,-164.92 433.35,-140.95"/>
<polygon fill="midnightblue" stroke="midnightblue" points="436.62,-139.69 429.78,-131.59 430.08,-142.18 436.62,-139.69"/>
</g>
<!-- Node13&#45;&gt;Node5 -->
<g id="edge18" class="edge">
<title>Node13&#45;&gt;Node5</title>
<path fill="none" stroke="midnightblue" d="M502.29,-168.19C513.33,-160.24 528,-147.45 534.5,-132 537.95,-123.81 536.22,-120.72 534.5,-112 529.29,-85.6 524.99,-79.28 511.5,-56 505.68,-45.96 497.85,-35.67 491.07,-27.48"/>
<polygon fill="midnightblue" stroke="midnightblue" points="493.66,-25.13 484.51,-19.79 488.34,-29.67 493.66,-25.13"/>
</g>
<!-- Node14 -->
<g id="node14" class="node">
<title>Node14</title>
<g id="a_node14"><a xlink:href="errno_8h.html" target="_top" xlink:title=" ">
<polygon fill="none" stroke="black" points="474,-112.5 474,-131.5 525,-131.5 525,-112.5 474,-112.5"/>
<text text-anchor="middle" x="499.5" y="-119.5" font-family="Helvetica,sans-Serif" font-size="10.00">errno.h</text>
</a>
</g>
</g>
<!-- Node13&#45;&gt;Node14 -->
<g id="edge19" class="edge">
<title>Node13&#45;&gt;Node14</title>
<path fill="none" stroke="midnightblue" d="M490.32,-168.08C491.77,-160.93 493.87,-150.64 495.69,-141.69"/>
<polygon fill="midnightblue" stroke="midnightblue" points="499.15,-142.25 497.72,-131.75 492.29,-140.85 499.15,-142.25"/>
</g>
<!-- Node13&#45;&gt;Node15 -->
<g id="edge20" class="edge">
<title>Node13&#45;&gt;Node15</title>
<path fill="none" stroke="midnightblue" d="M478.54,-168.32C469.37,-160.34 455.56,-148.31 444.47,-138.65"/>
<polygon fill="midnightblue" stroke="midnightblue" points="446.48,-135.76 436.64,-131.83 441.88,-141.04 446.48,-135.76"/>
</g>
<!-- Node15&#45;&gt;Node5 -->
<g id="edge22" class="edge">
<title>Node15&#45;&gt;Node5</title>
<path fill="none" stroke="midnightblue" d="M450.97,-112.44C467.07,-105.38 486.88,-93.63 496.5,-76 504.77,-60.84 497.07,-41.79 488.94,-28.24"/>
<polygon fill="midnightblue" stroke="midnightblue" points="491.85,-26.29 483.43,-19.85 485.99,-30.13 491.85,-26.29"/>
</g>
<!-- Node15&#45;&gt;Node11 -->
<g id="edge21" class="edge">
<title>Node15&#45;&gt;Node11</title>
<path fill="none" stroke="midnightblue" d="M417.38,-112.18C408.18,-103.22 393.64,-88.85 381.5,-76 366.16,-59.77 349.22,-40.64 337.63,-27.35"/>
<polygon fill="midnightblue" stroke="midnightblue" points="340.06,-24.81 330.86,-19.55 334.77,-29.4 340.06,-24.81"/>
</g>
<!-- Node16 -->
<g id="node16" class="node">
<title>Node16</title>
<g id="a_node16"><a xlink:href="kernel__defines_8h.html" target="_top" xlink:title="Common macros and compiler attributes/pragmas configuration.">
<polygon fill="none" stroke="black" points="390,-56.5 390,-75.5 487,-75.5 487,-56.5 390,-56.5"/>
<text text-anchor="middle" x="438.5" y="-63.5" font-family="Helvetica,sans-Serif" font-size="10.00">kernel_defines.h</text>
</a>
</g>
</g>
<!-- Node15&#45;&gt;Node16 -->
<g id="edge23" class="edge">
<title>Node15&#45;&gt;Node16</title>
<path fill="none" stroke="midnightblue" d="M428.48,-112.08C430.07,-104.93 432.36,-94.64 434.35,-85.69"/>
<polygon fill="midnightblue" stroke="midnightblue" points="437.8,-86.27 436.56,-75.75 430.97,-84.75 437.8,-86.27"/>
</g>
<!-- Node16&#45;&gt;Node5 -->
<g id="edge25" class="edge">
<title>Node16&#45;&gt;Node5</title>
<path fill="none" stroke="midnightblue" d="M444.77,-56.08C450.14,-48.46 458.02,-37.26 464.58,-27.94"/>
<polygon fill="midnightblue" stroke="midnightblue" points="467.45,-29.94 470.34,-19.75 461.72,-25.91 467.45,-29.94"/>
</g>
<!-- Node16&#45;&gt;Node11 -->
<g id="edge24" class="edge">
<title>Node16&#45;&gt;Node11</title>
<path fill="none" stroke="midnightblue" d="M420.28,-56.44C401.6,-47.68 372.34,-33.94 350.88,-23.86"/>
<polygon fill="midnightblue" stroke="midnightblue" points="352.18,-20.6 341.64,-19.52 349.2,-26.93 352.18,-20.6"/>
</g>
</g>
</svg>
