<?xml version="1.0" encoding="UTF-8" standalone="no"?>
<!DOCTYPE svg PUBLIC "-//W3C//DTD SVG 1.1//EN"
 "http://www.w3.org/Graphics/SVG/1.1/DTD/svg11.dtd">
<!-- Generated by graphviz version 2.40.1 (20161225.0304)
 -->
<!-- Title: sys/arduino/include/arduino.hpp Pages: 1 -->
<svg width="457pt" height="263pt"
 viewBox="0.00 0.00 457.48 263.00" xmlns="http://www.w3.org/2000/svg" xmlns:xlink="http://www.w3.org/1999/xlink">
<g id="graph0" class="graph" transform="scale(1 1) rotate(0) translate(4 259)">
<title>sys/arduino/include/arduino.hpp</title>
<!-- Node0 -->
<g id="node1" class="node">
<title>Node0</title>
<polygon fill="#bfbfbf" stroke="#000000" points="147,-224.5 147,-254.5 248,-254.5 248,-224.5 147,-224.5"/>
<text text-anchor="start" x="155" y="-242.5" font-family="Helvetica,sans-Serif" font-size="10.00" fill="#000000">sys/arduino/include</text>
<text text-anchor="middle" x="197.5" y="-231.5" font-family="Helvetica,sans-Serif" font-size="10.00" fill="#000000">/arduino.hpp</text>
</g>
<!-- Node1 -->
<g id="node2" class="node">
<title>Node1</title>
<polygon fill="none" stroke="#bfbfbf" points="0,-56.5 0,-75.5 49,-75.5 49,-56.5 0,-56.5"/>
<text text-anchor="middle" x="24.5" y="-63.5" font-family="Helvetica,sans-Serif" font-size="10.00" fill="#000000">stdint.h</text>
</g>
<!-- Node0&#45;&gt;Node1 -->
<g id="edge1" class="edge">
<title>Node0&#45;&gt;Node1</title>
<path fill="none" stroke="#191970" d="M159.5079,-224.3229C140.8864,-215.6093 118.9822,-203.335 102.5,-188 69.8406,-157.614 44.9815,-110.7368 32.8004,-84.829"/>
<polygon fill="#191970" stroke="#191970" points="35.9717,-83.3477 28.6311,-75.7079 29.6053,-86.2579 35.9717,-83.3477"/>
</g>
<!-- Node2 -->
<g id="node3" class="node">
<title>Node2</title>
<g id="a_node3"><a xlink:href="gpio_8h.html" target="_top" xlink:title="Low&#45;level GPIO peripheral driver interface definitions. ">
<polygon fill="none" stroke="#000000" points="336.5,-112.5 336.5,-131.5 408.5,-131.5 408.5,-112.5 336.5,-112.5"/>
<text text-anchor="middle" x="372.5" y="-119.5" font-family="Helvetica,sans-Serif" font-size="10.00" fill="#000000">periph/gpio.h</text>
</a>
</g>
</g>
<!-- Node0&#45;&gt;Node2 -->
<g id="edge2" class="edge">
<title>Node0&#45;&gt;Node2</title>
<path fill="none" stroke="#191970" d="M233.2725,-224.3056C253.4602,-215.0388 278.7256,-202.2528 299.5,-188 320.6592,-173.4832 342.1167,-153.2835 356.2399,-139.0654"/>
<polygon fill="#191970" stroke="#191970" points="358.7986,-141.4548 363.2831,-131.8558 353.7914,-136.5631 358.7986,-141.4548"/>
</g>
<!-- Node6 -->
<g id="node7" class="node">
<title>Node6</title>
<polygon fill="none" stroke="#bfbfbf" points="204.5,-168.5 204.5,-187.5 290.5,-187.5 290.5,-168.5 204.5,-168.5"/>
<text text-anchor="middle" x="247.5" y="-175.5" font-family="Helvetica,sans-Serif" font-size="10.00" fill="#000000">arduino_board.h</text>
</g>
<!-- Node0&#45;&gt;Node6 -->
<g id="edge6" class="edge">
<title>Node0&#45;&gt;Node6</title>
<path fill="none" stroke="#191970" d="M209.8596,-224.2977C216.8724,-215.672 225.686,-204.8312 233.0214,-195.8087"/>
<polygon fill="#191970" stroke="#191970" points="235.9018,-197.8141 239.4944,-187.8469 230.4703,-193.3982 235.9018,-197.8141"/>
</g>
<!-- Node7 -->
<g id="node8" class="node">
<title>Node7</title>
<g id="a_node8"><a xlink:href="serialport_8hpp.html" target="_top" xlink:title="Definition of the Arduino &#39;Serial&#39; interface. ">
<polygon fill="none" stroke="#000000" points="111,-168.5 111,-187.5 186,-187.5 186,-168.5 111,-168.5"/>
<text text-anchor="middle" x="148.5" y="-175.5" font-family="Helvetica,sans-Serif" font-size="10.00" fill="#000000">serialport.hpp</text>
</a>
</g>
</g>
<!-- Node0&#45;&gt;Node7 -->
<g id="edge7" class="edge">
<title>Node0&#45;&gt;Node7</title>
<path fill="none" stroke="#191970" d="M185.3876,-224.2977C178.5151,-215.672 169.8777,-204.8312 162.689,-195.8087"/>
<polygon fill="#191970" stroke="#191970" points="165.3144,-193.487 156.3455,-187.8469 159.8396,-197.849 165.3144,-193.487"/>
</g>
<!-- Node3 -->
<g id="node4" class="node">
<title>Node3</title>
<polygon fill="none" stroke="#bfbfbf" points="387.5,-56.5 387.5,-75.5 435.5,-75.5 435.5,-56.5 387.5,-56.5"/>
<text text-anchor="middle" x="411.5" y="-63.5" font-family="Helvetica,sans-Serif" font-size="10.00" fill="#000000">limits.h</text>
</g>
<!-- Node2&#45;&gt;Node3 -->
<g id="edge3" class="edge">
<title>Node2&#45;&gt;Node3</title>
<path fill="none" stroke="#191970" d="M379.2933,-112.2455C384.7178,-104.4564 392.4661,-93.3308 399.0033,-83.9439"/>
<polygon fill="#191970" stroke="#191970" points="401.9417,-85.849 404.7846,-75.6427 396.1975,-81.8485 401.9417,-85.849"/>
</g>
<!-- Node4 -->
<g id="node5" class="node">
<title>Node4</title>
<polygon fill="none" stroke="#bfbfbf" points="297.5,-56.5 297.5,-75.5 369.5,-75.5 369.5,-56.5 297.5,-56.5"/>
<text text-anchor="middle" x="333.5" y="-63.5" font-family="Helvetica,sans-Serif" font-size="10.00" fill="#000000">periph_cpu.h</text>
</g>
<!-- Node2&#45;&gt;Node4 -->
<g id="edge4" class="edge">
<title>Node2&#45;&gt;Node4</title>
<path fill="none" stroke="#191970" d="M365.7067,-112.2455C360.2822,-104.4564 352.5339,-93.3308 345.9967,-83.9439"/>
<polygon fill="#191970" stroke="#191970" points="348.8025,-81.8485 340.2154,-75.6427 343.0583,-85.849 348.8025,-81.8485"/>
</g>
<!-- Node5 -->
<g id="node6" class="node">
<title>Node5</title>
<polygon fill="none" stroke="#bfbfbf" points="190,-.5 190,-19.5 265,-19.5 265,-.5 190,-.5"/>
<text text-anchor="middle" x="227.5" y="-7.5" font-family="Helvetica,sans-Serif" font-size="10.00" fill="#000000">periph_conf.h</text>
</g>
<!-- Node2&#45;&gt;Node5 -->
<g id="edge5" class="edge">
<title>Node2&#45;&gt;Node5</title>
<path fill="none" stroke="#191970" d="M397.0791,-112.4547C424.4969,-100.4091 462.7544,-78.5296 444.5,-56 423.6737,-30.2962 333.0641,-18.3746 275.7173,-13.3132"/>
<polygon fill="#191970" stroke="#191970" points="275.6793,-9.7977 265.4209,-12.4462 275.0919,-16.773 275.6793,-9.7977"/>
</g>
<!-- Node8 -->
<g id="node9" class="node">
<title>Node8</title>
<g id="a_node9"><a xlink:href="ringbuffer_8h.html" target="_top" xlink:title="A utility for storing and retrieving byte data using a ring buffer. ">
<polygon fill="none" stroke="#000000" points="193,-112.5 193,-131.5 258,-131.5 258,-112.5 193,-112.5"/>
<text text-anchor="middle" x="225.5" y="-119.5" font-family="Helvetica,sans-Serif" font-size="10.00" fill="#000000">ringbuffer.h</text>
</a>
</g>
</g>
<!-- Node7&#45;&gt;Node8 -->
<g id="edge8" class="edge">
<title>Node7&#45;&gt;Node8</title>
<path fill="none" stroke="#191970" d="M161.9124,-168.2455C173.5057,-159.814 190.4748,-147.4729 203.9678,-137.6598"/>
<polygon fill="#191970" stroke="#191970" points="206.2126,-140.355 212.2413,-131.6427 202.0953,-134.6938 206.2126,-140.355"/>
</g>
<!-- Node9 -->
<g id="node10" class="node">
<title>Node9</title>
<g id="a_node10"><a xlink:href="uart_8h.html" target="_top" xlink:title="Low&#45;level UART peripheral driver interface definition. ">
<polygon fill="none" stroke="#000000" points="104,-112.5 104,-131.5 175,-131.5 175,-112.5 104,-112.5"/>
<text text-anchor="middle" x="139.5" y="-119.5" font-family="Helvetica,sans-Serif" font-size="10.00" fill="#000000">periph/uart.h</text>
</a>
</g>
</g>
<!-- Node7&#45;&gt;Node9 -->
<g id="edge9" class="edge">
<title>Node7&#45;&gt;Node9</title>
<path fill="none" stroke="#191970" d="M146.9323,-168.2455C145.7579,-160.9382 144.1116,-150.6944 142.6668,-141.7046"/>
<polygon fill="#191970" stroke="#191970" points="146.0922,-140.9606 141.0497,-131.6427 139.1809,-142.0714 146.0922,-140.9606"/>
</g>
<!-- Node9&#45;&gt;Node1 -->
<g id="edge11" class="edge">
<title>Node9&#45;&gt;Node1</title>
<path fill="none" stroke="#191970" d="M119.7308,-112.3733C101.3531,-103.4241 73.7688,-89.9917 53.0107,-79.8835"/>
<polygon fill="#191970" stroke="#191970" points="54.5343,-76.7325 44.0112,-75.5011 51.4696,-83.026 54.5343,-76.7325"/>
</g>
<!-- Node9&#45;&gt;Node3 -->
<g id="edge12" class="edge">
<title>Node9&#45;&gt;Node3</title>
<path fill="none" stroke="#191970" d="M175.3371,-113.917C178.4333,-113.2548 181.5201,-112.6074 184.5,-112 267.3226,-95.1184 291.5606,-96.6101 377.5026,-76.0377"/>
<polygon fill="#191970" stroke="#191970" points="378.541,-79.3874 387.4343,-73.6289 376.891,-72.5846 378.541,-79.3874"/>
</g>
<!-- Node9&#45;&gt;Node4 -->
<g id="edge13" class="edge">
<title>Node9&#45;&gt;Node4</title>
<path fill="none" stroke="#191970" d="M172.8498,-112.3733C205.528,-102.9404 255.4618,-88.5265 290.977,-78.2747"/>
<polygon fill="#191970" stroke="#191970" points="291.9484,-81.6373 300.5854,-75.5011 290.007,-74.9119 291.9484,-81.6373"/>
</g>
<!-- Node9&#45;&gt;Node5 -->
<g id="edge14" class="edge">
<title>Node9&#45;&gt;Node5</title>
<path fill="none" stroke="#191970" d="M125.4495,-112.4456C108.1259,-99.4687 82.5826,-75.6375 96.5,-56 106.5102,-41.8756 146.5296,-29.1194 179.7306,-20.6427"/>
<polygon fill="#191970" stroke="#191970" points="180.9108,-23.9562 189.7747,-18.1527 179.2263,-17.1619 180.9108,-23.9562"/>
</g>
<!-- Node10 -->
<g id="node11" class="node">
<title>Node10</title>
<polygon fill="none" stroke="#bfbfbf" points="105.5,-56.5 105.5,-75.5 157.5,-75.5 157.5,-56.5 105.5,-56.5"/>
<text text-anchor="middle" x="131.5" y="-63.5" font-family="Helvetica,sans-Serif" font-size="10.00" fill="#000000">stddef.h</text>
</g>
<!-- Node9&#45;&gt;Node10 -->
<g id="edge10" class="edge">
<title>Node9&#45;&gt;Node10</title>
<path fill="none" stroke="#191970" d="M138.1065,-112.2455C137.0626,-104.9382 135.5992,-94.6944 134.3149,-85.7046"/>
<polygon fill="#191970" stroke="#191970" points="137.7566,-85.0472 132.8775,-75.6427 130.827,-86.0372 137.7566,-85.0472"/>
</g>
<!-- Node11 -->
<g id="node12" class="node">
<title>Node11</title>
<g id="a_node12"><a xlink:href="dev__enums_8h.html" target="_top" xlink:title="Device enumerations for backward compatibility with existing peripheral driver implementations. ">
<polygon fill="none" stroke="#000000" points="175.5,-56.5 175.5,-75.5 279.5,-75.5 279.5,-56.5 175.5,-56.5"/>
<text text-anchor="middle" x="227.5" y="-63.5" font-family="Helvetica,sans-Serif" font-size="10.00" fill="#000000">periph/dev_enums.h</text>
</a>
</g>
</g>
<!-- Node9&#45;&gt;Node11 -->
<g id="edge15" class="edge">
<title>Node9&#45;&gt;Node11</title>
<path fill="none" stroke="#191970" d="M154.8284,-112.2455C168.3303,-103.6534 188.2122,-91.0014 203.7686,-81.1018"/>
<polygon fill="#191970" stroke="#191970" points="205.7897,-83.9643 212.3472,-75.6427 202.0315,-78.0587 205.7897,-83.9643"/>
</g>
<!-- Node11&#45;&gt;Node5 -->
<g id="edge16" class="edge">
<title>Node11&#45;&gt;Node5</title>
<path fill="none" stroke="#191970" d="M227.5,-56.2455C227.5,-48.9382 227.5,-38.6944 227.5,-29.7046"/>
<polygon fill="#191970" stroke="#191970" points="231.0001,-29.6426 227.5,-19.6427 224.0001,-29.6427 231.0001,-29.6426"/>
</g>
</g>
</svg>
