<?xml version="1.0" encoding="UTF-8" standalone="no"?>
<!DOCTYPE svg PUBLIC "-//W3C//DTD SVG 1.1//EN"
 "http://www.w3.org/Graphics/SVG/1.1/DTD/svg11.dtd">
<!-- Generated by graphviz version 2.40.1 (20161225.0304)
 -->
<!-- Title: cpu/arm7_common/include/irq_arch.h Pages: 1 -->
<svg width="142pt" height="151pt"
 viewBox="0.00 0.00 142.00 151.00" xmlns="http://www.w3.org/2000/svg" xmlns:xlink="http://www.w3.org/1999/xlink">
<g id="graph0" class="graph" transform="scale(1 1) rotate(0) translate(4 147)">
<title>cpu/arm7_common/include/irq_arch.h</title>
<!-- Node0 -->
<g id="node1" class="node">
<title>Node0</title>
<polygon fill="#bfbfbf" stroke="#000000" points="0,-112.5 0,-142.5 134,-142.5 134,-112.5 0,-112.5"/>
<text text-anchor="start" x="8" y="-130.5" font-family="Helvetica,sans-Serif" font-size="10.00" fill="#000000">cpu/arm7_common/include</text>
<text text-anchor="middle" x="67" y="-119.5" font-family="Helvetica,sans-Serif" font-size="10.00" fill="#000000">/irq_arch.h</text>
</g>
<!-- Node1 -->
<g id="node2" class="node">
<title>Node1</title>
<g id="a_node2"><a xlink:href="VIC_8h_source.html" target="_top" xlink:title="VIC.h">
<polygon fill="none" stroke="#000000" points="71,-56.5 71,-75.5 113,-75.5 113,-56.5 71,-56.5"/>
<text text-anchor="middle" x="92" y="-63.5" font-family="Helvetica,sans-Serif" font-size="10.00" fill="#000000">VIC.h</text>
</a>
</g>
</g>
<!-- Node0&#45;&gt;Node1 -->
<g id="edge1" class="edge">
<title>Node0&#45;&gt;Node1</title>
<path fill="none" stroke="#191970" d="M73.1798,-112.2977C76.5054,-104.1166 80.6411,-93.943 84.1879,-85.2179"/>
<polygon fill="#191970" stroke="#191970" points="87.4737,-86.4288 87.9972,-75.8469 80.989,-83.7927 87.4737,-86.4288"/>
</g>
<!-- Node2 -->
<g id="node3" class="node">
<title>Node2</title>
<polygon fill="none" stroke="#bfbfbf" points="15,-.5 15,-19.5 71,-19.5 71,-.5 15,-.5"/>
<text text-anchor="middle" x="43" y="-7.5" font-family="Helvetica,sans-Serif" font-size="10.00" fill="#000000">stdbool.h</text>
</g>
<!-- Node0&#45;&gt;Node2 -->
<g id="edge4" class="edge">
<title>Node0&#45;&gt;Node2</title>
<path fill="none" stroke="#191970" d="M63.8624,-112.1389C59.5384,-90.9692 51.7457,-52.8174 47.0057,-29.6112"/>
<polygon fill="#191970" stroke="#191970" points="50.3831,-28.6567 44.9526,-19.5595 43.5247,-30.0576 50.3831,-28.6567"/>
</g>
<!-- Node1&#45;&gt;Node2 -->
<g id="edge2" class="edge">
<title>Node1&#45;&gt;Node2</title>
<path fill="none" stroke="#191970" d="M83.4649,-56.2455C76.5088,-48.2958 66.5117,-36.8706 58.1949,-27.3656"/>
<polygon fill="#191970" stroke="#191970" points="60.6564,-24.8637 51.4373,-19.6427 55.3884,-29.4732 60.6564,-24.8637"/>
</g>
<!-- Node3 -->
<g id="node4" class="node">
<title>Node3</title>
<polygon fill="none" stroke="#bfbfbf" points="89.5,-.5 89.5,-19.5 130.5,-19.5 130.5,-.5 89.5,-.5"/>
<text text-anchor="middle" x="110" y="-7.5" font-family="Helvetica,sans-Serif" font-size="10.00" fill="#000000">cpu.h</text>
</g>
<!-- Node1&#45;&gt;Node3 -->
<g id="edge3" class="edge">
<title>Node1&#45;&gt;Node3</title>
<path fill="none" stroke="#191970" d="M95.1354,-56.2455C97.51,-48.8579 100.8493,-38.4689 103.7615,-29.4087"/>
<polygon fill="#191970" stroke="#191970" points="107.1725,-30.234 106.9006,-19.6427 100.5083,-28.0919 107.1725,-30.234"/>
</g>
</g>
</svg>
