<?xml version="1.0" encoding="UTF-8" standalone="no"?>
<!DOCTYPE svg PUBLIC "-//W3C//DTD SVG 1.1//EN"
 "http://www.w3.org/Graphics/SVG/1.1/DTD/svg11.dtd">
<!-- Generated by graphviz version 2.40.1 (20161225.0304)
 -->
<!-- Title: sys/include/net/sock/async.h Pages: 1 -->
<svg width="242pt" height="151pt"
 viewBox="0.00 0.00 241.50 151.00" xmlns="http://www.w3.org/2000/svg" xmlns:xlink="http://www.w3.org/1999/xlink">
<g id="graph0" class="graph" transform="scale(1 1) rotate(0) translate(4 147)">
<title>sys/include/net/sock/async.h</title>
<!-- Node0 -->
<g id="node1" class="node">
<title>Node0</title>
<polygon fill="#bfbfbf" stroke="#000000" points="69,-112.5 69,-142.5 176,-142.5 176,-112.5 69,-112.5"/>
<text text-anchor="start" x="77" y="-130.5" font-family="Helvetica,sans-Serif" font-size="10.00" fill="#000000">sys/include/net/sock</text>
<text text-anchor="middle" x="122.5" y="-119.5" font-family="Helvetica,sans-Serif" font-size="10.00" fill="#000000">/async.h</text>
</g>
<!-- Node1 -->
<g id="node2" class="node">
<title>Node1</title>
<g id="a_node2"><a xlink:href="sys_2include_2net_2sock_2async_2types_8h.html" target="_top" xlink:title="Definitions for sock extension for asynchronous access. ">
<polygon fill="none" stroke="#000000" points="0,-56.5 0,-75.5 119,-75.5 119,-56.5 0,-56.5"/>
<text text-anchor="middle" x="59.5" y="-63.5" font-family="Helvetica,sans-Serif" font-size="10.00" fill="#000000">net/sock/async/types.h</text>
</a>
</g>
</g>
<!-- Node0&#45;&gt;Node1 -->
<g id="edge1" class="edge">
<title>Node0&#45;&gt;Node1</title>
<path fill="none" stroke="#191970" d="M106.927,-112.2977C97.8175,-103.4052 86.2966,-92.1586 76.8909,-82.9769"/>
<polygon fill="#191970" stroke="#191970" points="79.1878,-80.3278 69.5871,-75.8469 74.298,-85.3368 79.1878,-80.3278"/>
</g>
<!-- Node3 -->
<g id="node4" class="node">
<title>Node3</title>
<g id="a_node4"><a xlink:href="sock__async__ctx_8h.html" target="_top" xlink:title="Type definitions for asynchronous socks with Event Queue. ">
<polygon fill="none" stroke="#000000" points="137.5,-56.5 137.5,-75.5 233.5,-75.5 233.5,-56.5 137.5,-56.5"/>
<text text-anchor="middle" x="185.5" y="-63.5" font-family="Helvetica,sans-Serif" font-size="10.00" fill="#000000">sock_async_ctx.h</text>
</a>
</g>
</g>
<!-- Node0&#45;&gt;Node3 -->
<g id="edge3" class="edge">
<title>Node0&#45;&gt;Node3</title>
<path fill="none" stroke="#191970" d="M138.073,-112.2977C147.1825,-103.4052 158.7034,-92.1586 168.1091,-82.9769"/>
<polygon fill="#191970" stroke="#191970" points="170.702,-85.3368 175.4129,-75.8469 165.8122,-80.3278 170.702,-85.3368"/>
</g>
<!-- Node2 -->
<g id="node3" class="node">
<title>Node2</title>
<polygon fill="none" stroke="#bfbfbf" points="22,-.5 22,-19.5 97,-19.5 97,-.5 22,-.5"/>
<text text-anchor="middle" x="59.5" y="-7.5" font-family="Helvetica,sans-Serif" font-size="10.00" fill="#000000">sock_types.h</text>
</g>
<!-- Node1&#45;&gt;Node2 -->
<g id="edge2" class="edge">
<title>Node1&#45;&gt;Node2</title>
<path fill="none" stroke="#191970" d="M59.5,-56.2455C59.5,-48.9382 59.5,-38.6944 59.5,-29.7046"/>
<polygon fill="#191970" stroke="#191970" points="63.0001,-29.6426 59.5,-19.6427 56.0001,-29.6427 63.0001,-29.6426"/>
</g>
<!-- Node4 -->
<g id="node5" class="node">
<title>Node4</title>
<polygon fill="none" stroke="#bfbfbf" points="161,-.5 161,-19.5 210,-19.5 210,-.5 161,-.5"/>
<text text-anchor="middle" x="185.5" y="-7.5" font-family="Helvetica,sans-Serif" font-size="10.00" fill="#000000">event.h</text>
</g>
<!-- Node3&#45;&gt;Node4 -->
<g id="edge4" class="edge">
<title>Node3&#45;&gt;Node4</title>
<path fill="none" stroke="#191970" d="M185.5,-56.2455C185.5,-48.9382 185.5,-38.6944 185.5,-29.7046"/>
<polygon fill="#191970" stroke="#191970" points="189.0001,-29.6426 185.5,-19.6427 182.0001,-29.6427 189.0001,-29.6426"/>
</g>
</g>
</svg>
