<?xml version="1.0" encoding="UTF-8" standalone="no"?>
<!DOCTYPE svg PUBLIC "-//W3C//DTD SVG 1.1//EN"
 "http://www.w3.org/Graphics/SVG/1.1/DTD/svg11.dtd">
<!-- Generated by graphviz version 2.43.0 (0)
 -->
<!-- Title: drivers/at24mac/include/at24mac_params.h Pages: 1 -->
<svg width="617pt" height="375pt"
 viewBox="0.00 0.00 616.50 375.00" xmlns="http://www.w3.org/2000/svg" xmlns:xlink="http://www.w3.org/1999/xlink">
<g id="graph0" class="graph" transform="scale(1 1) rotate(0) translate(4 371)">
<title>drivers/at24mac/include/at24mac_params.h</title>
<!-- Node1 -->
<g id="node1" class="node">
<title>Node1</title>
<g id="a_node1"><a xlink:title="Default configuration for the AT24MAC chip.">
<polygon fill="#bfbfbf" stroke="black" points="0,-336.5 0,-366.5 134,-366.5 134,-336.5 0,-336.5"/>
<text text-anchor="start" x="8" y="-354.5" font-family="Helvetica,sans-Serif" font-size="10.00">drivers/at24mac/include</text>
<text text-anchor="middle" x="67" y="-343.5" font-family="Helvetica,sans-Serif" font-size="10.00">/at24mac_params.h</text>
</a>
</g>
</g>
<!-- Node2 -->
<g id="node2" class="node">
<title>Node2</title>
<g id="a_node2"><a xlink:title=" ">
<polygon fill="none" stroke="#bfbfbf" points="1.5,-280.5 1.5,-299.5 54.5,-299.5 54.5,-280.5 1.5,-280.5"/>
<text text-anchor="middle" x="28" y="-287.5" font-family="Helvetica,sans-Serif" font-size="10.00">board.h</text>
</a>
</g>
</g>
<!-- Node1&#45;&gt;Node2 -->
<g id="edge1" class="edge">
<title>Node1&#45;&gt;Node2</title>
<path fill="none" stroke="midnightblue" d="M57.76,-336.4C52.21,-327.93 45.11,-317.1 39.23,-308.14"/>
<polygon fill="midnightblue" stroke="midnightblue" points="42.08,-306.1 33.67,-299.66 36.23,-309.94 42.08,-306.1"/>
</g>
<!-- Node3 -->
<g id="node3" class="node">
<title>Node3</title>
<g id="a_node3"><a xlink:href="at24mac_8h.html" target="_top" xlink:title=" ">
<polygon fill="none" stroke="black" points="73,-280.5 73,-299.5 141,-299.5 141,-280.5 73,-280.5"/>
<text text-anchor="middle" x="107" y="-287.5" font-family="Helvetica,sans-Serif" font-size="10.00">at24mac.h</text>
</a>
</g>
</g>
<!-- Node1&#45;&gt;Node3 -->
<g id="edge2" class="edge">
<title>Node1&#45;&gt;Node3</title>
<path fill="none" stroke="midnightblue" d="M76.48,-336.4C82.17,-327.93 89.45,-317.1 95.48,-308.14"/>
<polygon fill="midnightblue" stroke="midnightblue" points="98.51,-309.91 101.18,-299.66 92.7,-306 98.51,-309.91"/>
</g>
<!-- Node4 -->
<g id="node4" class="node">
<title>Node4</title>
<g id="a_node4"><a xlink:title=" ">
<polygon fill="none" stroke="#bfbfbf" points="79.5,-0.5 79.5,-19.5 132.5,-19.5 132.5,-0.5 79.5,-0.5"/>
<text text-anchor="middle" x="106" y="-7.5" font-family="Helvetica,sans-Serif" font-size="10.00">stdint.h</text>
</a>
</g>
</g>
<!-- Node3&#45;&gt;Node4 -->
<g id="edge3" class="edge">
<title>Node3&#45;&gt;Node4</title>
<path fill="none" stroke="midnightblue" d="M82.84,-280.48C65.75,-273.28 43.54,-261.33 30,-244 11.47,-220.28 11,-209.1 11,-179 11,-179 11,-179 11,-121 11,-77.74 53.61,-43.09 81.75,-24.91"/>
<polygon fill="midnightblue" stroke="midnightblue" points="83.66,-27.85 90.31,-19.6 79.97,-21.9 83.66,-27.85"/>
</g>
<!-- Node5 -->
<g id="node5" class="node">
<title>Node5</title>
<g id="a_node5"><a xlink:href="eui48_8h.html" target="_top" xlink:title="Definition and IPv6 IID conversion for IEEE EUI&#45;48 identifiers.">
<polygon fill="none" stroke="black" points="39.5,-224.5 39.5,-243.5 110.5,-243.5 110.5,-224.5 39.5,-224.5"/>
<text text-anchor="middle" x="75" y="-231.5" font-family="Helvetica,sans-Serif" font-size="10.00">net/eui48.h</text>
</a>
</g>
</g>
<!-- Node3&#45;&gt;Node5 -->
<g id="edge4" class="edge">
<title>Node3&#45;&gt;Node5</title>
<path fill="none" stroke="midnightblue" d="M101.72,-280.08C97.29,-272.61 90.84,-261.72 85.38,-252.52"/>
<polygon fill="midnightblue" stroke="midnightblue" points="88.29,-250.57 80.19,-243.75 82.27,-254.14 88.29,-250.57"/>
</g>
<!-- Node6 -->
<g id="node6" class="node">
<title>Node6</title>
<g id="a_node6"><a xlink:href="eui64_8h.html" target="_top" xlink:title="EUI&#45;64 data type definition.">
<polygon fill="none" stroke="black" points="90.5,-168.5 90.5,-187.5 161.5,-187.5 161.5,-168.5 90.5,-168.5"/>
<text text-anchor="middle" x="126" y="-175.5" font-family="Helvetica,sans-Serif" font-size="10.00">net/eui64.h</text>
</a>
</g>
</g>
<!-- Node3&#45;&gt;Node6 -->
<g id="edge12" class="edge">
<title>Node3&#45;&gt;Node6</title>
<path fill="none" stroke="midnightblue" d="M109.7,-280.46C112.44,-271.48 116.6,-256.88 119,-244 121.86,-228.64 123.67,-211 124.73,-197.98"/>
<polygon fill="midnightblue" stroke="midnightblue" points="128.23,-198.13 125.48,-187.89 121.25,-197.61 128.23,-198.13"/>
</g>
<!-- Node9 -->
<g id="node9" class="node">
<title>Node9</title>
<g id="a_node9"><a xlink:href="i2c_8h.html" target="_top" xlink:title="Low&#45;level I2C peripheral driver interface definition.">
<polygon fill="none" stroke="black" points="310,-224.5 310,-243.5 384,-243.5 384,-224.5 310,-224.5"/>
<text text-anchor="middle" x="347" y="-231.5" font-family="Helvetica,sans-Serif" font-size="10.00">periph/i2c.h</text>
</a>
</g>
</g>
<!-- Node3&#45;&gt;Node9 -->
<g id="edge13" class="edge">
<title>Node3&#45;&gt;Node9</title>
<path fill="none" stroke="midnightblue" d="M141.13,-281.32C182.73,-271.96 253.23,-256.1 299.95,-245.59"/>
<polygon fill="midnightblue" stroke="midnightblue" points="300.84,-248.97 309.83,-243.36 299.31,-242.14 300.84,-248.97"/>
</g>
<!-- Node5&#45;&gt;Node4 -->
<g id="edge5" class="edge">
<title>Node5&#45;&gt;Node4</title>
<path fill="none" stroke="midnightblue" d="M75.65,-224.15C76.61,-211.63 78.56,-188.02 81,-168 87.09,-118.02 89.82,-105.68 98,-56 99.44,-47.28 101.14,-37.63 102.6,-29.51"/>
<polygon fill="midnightblue" stroke="midnightblue" points="106.05,-30.08 104.4,-19.62 99.17,-28.83 106.05,-30.08"/>
</g>
<!-- Node5&#45;&gt;Node6 -->
<g id="edge6" class="edge">
<title>Node5&#45;&gt;Node6</title>
<path fill="none" stroke="midnightblue" d="M83.42,-224.08C90.85,-216.22 101.85,-204.57 110.81,-195.08"/>
<polygon fill="midnightblue" stroke="midnightblue" points="113.41,-197.42 117.74,-187.75 108.32,-192.62 113.41,-197.42"/>
</g>
<!-- Node6&#45;&gt;Node4 -->
<g id="edge7" class="edge">
<title>Node6&#45;&gt;Node4</title>
<path fill="none" stroke="midnightblue" d="M120.87,-168.41C115.94,-159.61 108.84,-145.38 106,-132 98.47,-96.5 101.1,-53.82 103.61,-29.81"/>
<polygon fill="midnightblue" stroke="midnightblue" points="107.11,-29.97 104.79,-19.64 100.16,-29.17 107.11,-29.97"/>
</g>
<!-- Node7 -->
<g id="node7" class="node">
<title>Node7</title>
<g id="a_node7"><a xlink:href="byteorder_8h.html" target="_top" xlink:title="Functions to work with different byte orders.">
<polygon fill="none" stroke="black" points="115.5,-112.5 115.5,-131.5 188.5,-131.5 188.5,-112.5 115.5,-112.5"/>
<text text-anchor="middle" x="152" y="-119.5" font-family="Helvetica,sans-Serif" font-size="10.00">byteorder.h</text>
</a>
</g>
</g>
<!-- Node6&#45;&gt;Node7 -->
<g id="edge8" class="edge">
<title>Node6&#45;&gt;Node7</title>
<path fill="none" stroke="midnightblue" d="M130.29,-168.08C133.85,-160.69 139.02,-149.95 143.42,-140.81"/>
<polygon fill="midnightblue" stroke="midnightblue" points="146.6,-142.28 147.79,-131.75 140.29,-139.24 146.6,-142.28"/>
</g>
<!-- Node7&#45;&gt;Node4 -->
<g id="edge9" class="edge">
<title>Node7&#45;&gt;Node4</title>
<path fill="none" stroke="midnightblue" d="M148.39,-112.37C140.9,-94.46 123.53,-52.92 113.51,-28.95"/>
<polygon fill="midnightblue" stroke="midnightblue" points="116.68,-27.47 109.59,-19.59 110.22,-30.17 116.68,-27.47"/>
</g>
<!-- Node8 -->
<g id="node8" class="node">
<title>Node8</title>
<g id="a_node8"><a xlink:href="unaligned_8h.html" target="_top" xlink:title="Unaligned but safe memory access functions.">
<polygon fill="none" stroke="black" points="153,-56.5 153,-75.5 227,-75.5 227,-56.5 153,-56.5"/>
<text text-anchor="middle" x="190" y="-63.5" font-family="Helvetica,sans-Serif" font-size="10.00">unaligned.h</text>
</a>
</g>
</g>
<!-- Node7&#45;&gt;Node8 -->
<g id="edge10" class="edge">
<title>Node7&#45;&gt;Node8</title>
<path fill="none" stroke="midnightblue" d="M158.27,-112.08C163.64,-104.46 171.52,-93.26 178.08,-83.94"/>
<polygon fill="midnightblue" stroke="midnightblue" points="180.95,-85.94 183.84,-75.75 175.22,-81.91 180.95,-85.94"/>
</g>
<!-- Node8&#45;&gt;Node4 -->
<g id="edge11" class="edge">
<title>Node8&#45;&gt;Node4</title>
<path fill="none" stroke="midnightblue" d="M176.5,-56.32C163.4,-47.9 143.29,-34.97 127.89,-25.07"/>
<polygon fill="midnightblue" stroke="midnightblue" points="129.77,-22.12 119.46,-19.65 125.98,-28.01 129.77,-22.12"/>
</g>
<!-- Node9&#45;&gt;Node4 -->
<g id="edge14" class="edge">
<title>Node9&#45;&gt;Node4</title>
<path fill="none" stroke="midnightblue" d="M324.41,-224.35C308.14,-217.01 286.87,-204.96 274,-188 237.09,-139.38 278.01,-100.3 236,-56 211.63,-30.3 171.87,-19.28 142.73,-14.55"/>
<polygon fill="midnightblue" stroke="midnightblue" points="142.92,-11.04 132.52,-13.07 141.92,-17.97 142.92,-11.04"/>
</g>
<!-- Node10 -->
<g id="node10" class="node">
<title>Node10</title>
<g id="a_node10"><a xlink:title=" ">
<polygon fill="none" stroke="#bfbfbf" points="283,-168.5 283,-187.5 339,-187.5 339,-168.5 283,-168.5"/>
<text text-anchor="middle" x="311" y="-175.5" font-family="Helvetica,sans-Serif" font-size="10.00">stddef.h</text>
</a>
</g>
</g>
<!-- Node9&#45;&gt;Node10 -->
<g id="edge15" class="edge">
<title>Node9&#45;&gt;Node10</title>
<path fill="none" stroke="midnightblue" d="M341.06,-224.08C336.02,-216.53 328.66,-205.49 322.49,-196.23"/>
<polygon fill="midnightblue" stroke="midnightblue" points="325.29,-194.13 316.83,-187.75 319.47,-198.01 325.29,-194.13"/>
</g>
<!-- Node11 -->
<g id="node11" class="node">
<title>Node11</title>
<g id="a_node11"><a xlink:title=" ">
<polygon fill="none" stroke="#bfbfbf" points="357.5,-168.5 357.5,-187.5 410.5,-187.5 410.5,-168.5 357.5,-168.5"/>
<text text-anchor="middle" x="384" y="-175.5" font-family="Helvetica,sans-Serif" font-size="10.00">limits.h</text>
</a>
</g>
</g>
<!-- Node9&#45;&gt;Node11 -->
<g id="edge16" class="edge">
<title>Node9&#45;&gt;Node11</title>
<path fill="none" stroke="midnightblue" d="M353.11,-224.08C358.28,-216.53 365.85,-205.49 372.19,-196.23"/>
<polygon fill="midnightblue" stroke="midnightblue" points="375.24,-197.98 378,-187.75 369.46,-194.02 375.24,-197.98"/>
</g>
<!-- Node12 -->
<g id="node12" class="node">
<title>Node12</title>
<g id="a_node12"><a xlink:title=" ">
<polygon fill="none" stroke="#bfbfbf" points="429,-168.5 429,-187.5 511,-187.5 511,-168.5 429,-168.5"/>
<text text-anchor="middle" x="470" y="-175.5" font-family="Helvetica,sans-Serif" font-size="10.00">periph_conf.h</text>
</a>
</g>
</g>
<!-- Node9&#45;&gt;Node12 -->
<g id="edge17" class="edge">
<title>Node9&#45;&gt;Node12</title>
<path fill="none" stroke="midnightblue" d="M366.49,-224.44C386.64,-215.6 418.32,-201.69 441.33,-191.59"/>
<polygon fill="midnightblue" stroke="midnightblue" points="442.85,-194.74 450.6,-187.52 440.04,-188.33 442.85,-194.74"/>
</g>
<!-- Node13 -->
<g id="node13" class="node">
<title>Node13</title>
<g id="a_node13"><a xlink:title=" ">
<polygon fill="none" stroke="#bfbfbf" points="529.5,-168.5 529.5,-187.5 608.5,-187.5 608.5,-168.5 529.5,-168.5"/>
<text text-anchor="middle" x="569" y="-175.5" font-family="Helvetica,sans-Serif" font-size="10.00">periph_cpu.h</text>
</a>
</g>
</g>
<!-- Node9&#45;&gt;Node13 -->
<g id="edge18" class="edge">
<title>Node9&#45;&gt;Node13</title>
<path fill="none" stroke="midnightblue" d="M382.18,-224.44C420.58,-215.1 482.18,-200.12 524.06,-189.93"/>
<polygon fill="midnightblue" stroke="midnightblue" points="525.1,-193.28 533.99,-187.52 523.44,-186.48 525.1,-193.28"/>
</g>
</g>
</svg>
