<?xml version="1.0" encoding="UTF-8" standalone="no"?>
<!DOCTYPE svg PUBLIC "-//W3C//DTD SVG 1.1//EN"
 "http://www.w3.org/Graphics/SVG/1.1/DTD/svg11.dtd">
<!-- Generated by graphviz version 2.43.0 (0)
 -->
<!-- Title: drivers/include/at30tse75x.h Pages: 1 -->
<svg width="163pt" height="173pt"
 viewBox="0.00 0.00 163.00 173.00" xmlns="http://www.w3.org/2000/svg" xmlns:xlink="http://www.w3.org/1999/xlink">
<g id="graph0" class="graph" transform="scale(1 1) rotate(0) translate(4 169)">
<title>drivers/include/at30tse75x.h</title>
<!-- Node1 -->
<g id="node1" class="node">
<title>Node1</title>
<g id="a_node1"><a xlink:title="Driver for the AT30TSE75x temperature sensor with serial EEPROM.">
<polygon fill="#bfbfbf" stroke="black" points="0,-145.5 0,-164.5 155,-164.5 155,-145.5 0,-145.5"/>
<text text-anchor="middle" x="77.5" y="-152.5" font-family="Helvetica,sans-Serif" font-size="10.00">drivers/include/at30tse75x.h</text>
</a>
</g>
</g>
<!-- Node2 -->
<g id="node2" class="node">
<title>Node2</title>
<g id="a_node2"><a xlink:href="io1__xplained_8h.html" target="_top" xlink:title="Device driver interface for the Atmel IO1 Xplained extension.">
<polygon fill="none" stroke="black" points="24,-78.5 24,-108.5 131,-108.5 131,-78.5 24,-78.5"/>
<text text-anchor="start" x="32" y="-96.5" font-family="Helvetica,sans-Serif" font-size="10.00">drivers/include/io1</text>
<text text-anchor="middle" x="77.5" y="-85.5" font-family="Helvetica,sans-Serif" font-size="10.00">_xplained.h</text>
</a>
</g>
</g>
<!-- Node1&#45;&gt;Node2 -->
<g id="edge1" class="edge">
<title>Node1&#45;&gt;Node2</title>
<path fill="none" stroke="midnightblue" d="M77.5,-135.23C77.5,-126.59 77.5,-116.5 77.5,-108.52"/>
<polygon fill="midnightblue" stroke="midnightblue" points="74,-135.48 77.5,-145.48 81,-135.48 74,-135.48"/>
</g>
<!-- Node3 -->
<g id="node3" class="node">
<title>Node3</title>
<g id="a_node3"><a xlink:href="io1__xplained__params_8h.html" target="_top" xlink:title="Default configuration for IO1 Xplained.">
<polygon fill="none" stroke="black" points="17.5,-0.5 17.5,-41.5 137.5,-41.5 137.5,-0.5 17.5,-0.5"/>
<text text-anchor="start" x="25.5" y="-29.5" font-family="Helvetica,sans-Serif" font-size="10.00">drivers/io1_xplained</text>
<text text-anchor="start" x="25.5" y="-18.5" font-family="Helvetica,sans-Serif" font-size="10.00">/include/io1_xplained</text>
<text text-anchor="middle" x="77.5" y="-7.5" font-family="Helvetica,sans-Serif" font-size="10.00">_params.h</text>
</a>
</g>
</g>
<!-- Node2&#45;&gt;Node3 -->
<g id="edge2" class="edge">
<title>Node2&#45;&gt;Node3</title>
<path fill="none" stroke="midnightblue" d="M77.5,-67.98C77.5,-59.35 77.5,-49.76 77.5,-41.59"/>
<polygon fill="midnightblue" stroke="midnightblue" points="74,-68.23 77.5,-78.23 81,-68.23 74,-68.23"/>
</g>
</g>
</svg>
