<?xml version="1.0" encoding="UTF-8" standalone="no"?>
<!DOCTYPE svg PUBLIC "-//W3C//DTD SVG 1.1//EN"
 "http://www.w3.org/Graphics/SVG/1.1/DTD/svg11.dtd">
<!-- Generated by graphviz version 2.40.1 (20161225.0304)
 -->
<!-- Title: drivers/include/at86rf215.h Pages: 1 -->
<svg width="1683pt" height="420pt"
 viewBox="0.00 0.00 1683.07 420.00" xmlns="http://www.w3.org/2000/svg" xmlns:xlink="http://www.w3.org/1999/xlink">
<g id="graph0" class="graph" transform="scale(1 1) rotate(0) translate(4 416)">
<title>drivers/include/at86rf215.h</title>
<!-- Node0 -->
<g id="node1" class="node">
<title>Node0</title>
<polygon fill="#bfbfbf" stroke="#000000" points="383.5692,-392.5 383.5692,-411.5 514.5692,-411.5 514.5692,-392.5 383.5692,-392.5"/>
<text text-anchor="middle" x="449.0692" y="-399.5" font-family="Helvetica,sans-Serif" font-size="10.00" fill="#000000">drivers/include/at86rf215.h</text>
</g>
<!-- Node1 -->
<g id="node2" class="node">
<title>Node1</title>
<polygon fill="none" stroke="#bfbfbf" points="985.5692,-112.5 985.5692,-131.5 1034.5692,-131.5 1034.5692,-112.5 985.5692,-112.5"/>
<text text-anchor="middle" x="1010.0692" y="-119.5" font-family="Helvetica,sans-Serif" font-size="10.00" fill="#000000">stdint.h</text>
</g>
<!-- Node0&#45;&gt;Node1 -->
<g id="edge1" class="edge">
<title>Node0&#45;&gt;Node1</title>
<path fill="none" stroke="#191970" d="M514.7954,-399.3978C659.6978,-393.3067 997.5615,-377.0316 1045.0692,-356 1097.6773,-332.7104 1259.2029,-212.7703 1223.0692,-168 1201.0723,-140.7455 1099.4712,-128.8523 1044.9229,-124.3569"/>
<polygon fill="#191970" stroke="#191970" points="1044.9211,-120.8462 1034.6782,-123.5542 1044.3742,-127.8248 1044.9211,-120.8462"/>
</g>
<!-- Node2 -->
<g id="node3" class="node">
<title>Node2</title>
<polygon fill="none" stroke="#bfbfbf" points="336.0692,-168.5 336.0692,-187.5 392.0692,-187.5 392.0692,-168.5 336.0692,-168.5"/>
<text text-anchor="middle" x="364.0692" y="-175.5" font-family="Helvetica,sans-Serif" font-size="10.00" fill="#000000">stdbool.h</text>
</g>
<!-- Node0&#45;&gt;Node2 -->
<g id="edge2" class="edge">
<title>Node0&#45;&gt;Node2</title>
<path fill="none" stroke="#191970" d="M433.3426,-392.4131C399.7842,-370.888 321.9494,-314.9979 294.0692,-244 290.8201,-235.7262 289.8489,-231.8232 294.0692,-224 301.6421,-209.9617 315.5764,-199.5084 329.0306,-192.1453"/>
<polygon fill="#191970" stroke="#191970" points="330.8272,-195.1593 338.1842,-187.5353 327.6785,-188.9074 330.8272,-195.1593"/>
</g>
<!-- Node3 -->
<g id="node4" class="node">
<title>Node3</title>
<polygon fill="none" stroke="#bfbfbf" points="443.5692,-280.5 443.5692,-299.5 492.5692,-299.5 492.5692,-280.5 443.5692,-280.5"/>
<text text-anchor="middle" x="468.0692" y="-287.5" font-family="Helvetica,sans-Serif" font-size="10.00" fill="#000000">board.h</text>
</g>
<!-- Node0&#45;&gt;Node3 -->
<g id="edge3" class="edge">
<title>Node0&#45;&gt;Node3</title>
<path fill="none" stroke="#191970" d="M450.6891,-392.4509C453.788,-374.184 460.6125,-333.9553 464.7276,-309.6976"/>
<polygon fill="#191970" stroke="#191970" points="468.2314,-309.9694 466.4533,-299.5249 461.33,-308.7986 468.2314,-309.9694"/>
</g>
<!-- Node4 -->
<g id="node5" class="node">
<title>Node4</title>
<g id="a_node5"><a xlink:href="spi_8h.html" target="_top" xlink:title="Low&#45;level SPI peripheral driver interface definition. ">
<polygon fill="none" stroke="#000000" points="90.5692,-224.5 90.5692,-243.5 157.5692,-243.5 157.5692,-224.5 90.5692,-224.5"/>
<text text-anchor="middle" x="124.0692" y="-231.5" font-family="Helvetica,sans-Serif" font-size="10.00" fill="#000000">periph/spi.h</text>
</a>
</g>
</g>
<!-- Node0&#45;&gt;Node4 -->
<g id="edge4" class="edge">
<title>Node0&#45;&gt;Node4</title>
<path fill="none" stroke="#191970" d="M383.3834,-398.4701C311.9501,-393.3778 203.7139,-381.6034 172.0692,-356 140.4989,-330.4568 129.6189,-281.2586 125.924,-253.7851"/>
<polygon fill="#191970" stroke="#191970" points="129.3934,-253.3183 124.7706,-243.7852 122.4395,-254.1204 129.3934,-253.3183"/>
</g>
<!-- Node9 -->
<g id="node10" class="node">
<title>Node9</title>
<g id="a_node10"><a xlink:href="gpio_8h.html" target="_top" xlink:title="Low&#45;level GPIO peripheral driver interface definitions. ">
<polygon fill="none" stroke="#000000" points="24.0692,-168.5 24.0692,-187.5 96.0692,-187.5 96.0692,-168.5 24.0692,-168.5"/>
<text text-anchor="middle" x="60.0692" y="-175.5" font-family="Helvetica,sans-Serif" font-size="10.00" fill="#000000">periph/gpio.h</text>
</a>
</g>
</g>
<!-- Node0&#45;&gt;Node9 -->
<g id="edge15" class="edge">
<title>Node0&#45;&gt;Node9</title>
<path fill="none" stroke="#191970" d="M383.3522,-398.2036C307.444,-392.7357 188.2235,-380.4847 151.0692,-356 94.8658,-318.962 71.5924,-235.8857 63.6113,-197.7819"/>
<polygon fill="#191970" stroke="#191970" points="66.9557,-196.646 61.6058,-187.5011 60.0852,-197.9863 66.9557,-196.646"/>
</g>
<!-- Node10 -->
<g id="node11" class="node">
<title>Node10</title>
<g id="a_node11"><a xlink:href="drivers_2include_2net_2netdev_8h.html" target="_top" xlink:title="Definitions low&#45;level network driver interface. ">
<polygon fill="none" stroke="#000000" points="354.5692,-280.5 354.5692,-299.5 425.5692,-299.5 425.5692,-280.5 354.5692,-280.5"/>
<text text-anchor="middle" x="390.0692" y="-287.5" font-family="Helvetica,sans-Serif" font-size="10.00" fill="#000000">net/netdev.h</text>
</a>
</g>
</g>
<!-- Node0&#45;&gt;Node10 -->
<g id="edge16" class="edge">
<title>Node0&#45;&gt;Node10</title>
<path fill="none" stroke="#191970" d="M444.0389,-392.4509C434.2419,-373.8533 412.4533,-332.4919 399.7601,-308.3964"/>
<polygon fill="#191970" stroke="#191970" points="402.8441,-306.7411 395.0867,-299.5249 396.6509,-310.0036 402.8441,-306.7411"/>
</g>
<!-- Node15 -->
<g id="node16" class="node">
<title>Node15</title>
<g id="a_node16"><a xlink:href="drivers_2include_2net_2netdev_2ieee802154_8h.html" target="_top" xlink:title="Definitions for netdev common IEEE 802.15.4 code. ">
<polygon fill="none" stroke="#000000" points="477.5692,-336.5 477.5692,-355.5 600.5692,-355.5 600.5692,-336.5 477.5692,-336.5"/>
<text text-anchor="middle" x="539.0692" y="-343.5" font-family="Helvetica,sans-Serif" font-size="10.00" fill="#000000">net/netdev/ieee802154.h</text>
</a>
</g>
</g>
<!-- Node0&#45;&gt;Node15 -->
<g id="edge22" class="edge">
<title>Node0&#45;&gt;Node15</title>
<path fill="none" stroke="#191970" d="M464.746,-392.2455C478.5547,-383.6534 498.8884,-371.0014 514.7984,-361.1018"/>
<polygon fill="#191970" stroke="#191970" points="516.9305,-363.8974 523.572,-355.6427 513.2324,-357.954 516.9305,-363.8974"/>
</g>
<!-- Node21 -->
<g id="node22" class="node">
<title>Node21</title>
<g id="a_node22"><a xlink:href="nettype_8h.html" target="_top" xlink:title="Protocol type definitions. ">
<polygon fill="none" stroke="#000000" points="1451.5692,-280.5 1451.5692,-299.5 1546.5692,-299.5 1546.5692,-280.5 1451.5692,-280.5"/>
<text text-anchor="middle" x="1499.0692" y="-287.5" font-family="Helvetica,sans-Serif" font-size="10.00" fill="#000000">net/gnrc/nettype.h</text>
</a>
</g>
</g>
<!-- Node0&#45;&gt;Node21 -->
<g id="edge41" class="edge">
<title>Node0&#45;&gt;Node21</title>
<path fill="none" stroke="#191970" d="M514.8438,-400.8395C642.4821,-397.9224 932.4558,-388.0446 1174.0692,-356 1273.2797,-342.842 1387.5999,-317.124 1450.7713,-301.9688"/>
<polygon fill="#191970" stroke="#191970" points="1451.9349,-305.2885 1460.8345,-299.5399 1450.2925,-298.4839 1451.9349,-305.2885"/>
</g>
<!-- Node26 -->
<g id="node27" class="node">
<title>Node26</title>
<g id="a_node27"><a xlink:href="xtimer_8h.html" target="_top" xlink:title="xtimer interface definitions ">
<polygon fill="none" stroke="#000000" points="984.0692,-336.5 984.0692,-355.5 1036.0692,-355.5 1036.0692,-336.5 984.0692,-336.5"/>
<text text-anchor="middle" x="1010.0692" y="-343.5" font-family="Helvetica,sans-Serif" font-size="10.00" fill="#000000">xtimer.h</text>
</a>
</g>
</g>
<!-- Node0&#45;&gt;Node26 -->
<g id="edge42" class="edge">
<title>Node0&#45;&gt;Node26</title>
<path fill="none" stroke="#191970" d="M514.7966,-395.439C633.7591,-383.5639 881.044,-358.8795 973.8414,-349.6163"/>
<polygon fill="#191970" stroke="#191970" points="974.263,-353.0917 983.8659,-348.6157 973.5677,-346.1263 974.263,-353.0917"/>
</g>
<!-- Node4&#45;&gt;Node1 -->
<g id="edge7" class="edge">
<title>Node4&#45;&gt;Node1</title>
<path fill="none" stroke="#191970" d="M144.1505,-224.4407C163.4233,-215.2276 193.3204,-200.834 219.0692,-188 236.5032,-179.3103 239.2822,-173.1484 258.0692,-168 395.9524,-130.2146 846.6998,-123.4184 975.4446,-122.2391"/>
<polygon fill="#191970" stroke="#191970" points="975.5555,-125.7384 985.525,-122.1524 975.4953,-118.7386 975.5555,-125.7384"/>
</g>
<!-- Node4&#45;&gt;Node2 -->
<g id="edge5" class="edge">
<title>Node4&#45;&gt;Node2</title>
<path fill="none" stroke="#191970" d="M157.5756,-226.8497C195.9346,-218.5669 260.8847,-204.2479 325.8217,-188.2414"/>
<polygon fill="#191970" stroke="#191970" points="326.9543,-191.5667 335.8185,-185.7636 325.2702,-184.7723 326.9543,-191.5667"/>
</g>
<!-- Node5 -->
<g id="node6" class="node">
<title>Node5</title>
<polygon fill="none" stroke="#bfbfbf" points="1242.0692,-.5 1242.0692,-19.5 1294.0692,-19.5 1294.0692,-.5 1242.0692,-.5"/>
<text text-anchor="middle" x="1268.0692" y="-7.5" font-family="Helvetica,sans-Serif" font-size="10.00" fill="#000000">stddef.h</text>
</g>
<!-- Node4&#45;&gt;Node5 -->
<g id="edge6" class="edge">
<title>Node4&#45;&gt;Node5</title>
<path fill="none" stroke="#191970" d="M90.5385,-230.7443C63.2599,-226.1292 26.3887,-214.972 8.0692,-188 -2.5086,-172.4262 -4.3433,-130.5927 15.0692,-112 105.273,-25.605 1036.0316,-12.1603 1231.9843,-10.2825"/>
<polygon fill="#191970" stroke="#191970" points="1232.0767,-13.7819 1242.0441,-10.1902 1232.0124,-6.7822 1232.0767,-13.7819"/>
</g>
<!-- Node6 -->
<g id="node7" class="node">
<title>Node6</title>
<polygon fill="none" stroke="#bfbfbf" points="427.0692,-112.5 427.0692,-131.5 475.0692,-131.5 475.0692,-112.5 427.0692,-112.5"/>
<text text-anchor="middle" x="451.0692" y="-119.5" font-family="Helvetica,sans-Serif" font-size="10.00" fill="#000000">limits.h</text>
</g>
<!-- Node4&#45;&gt;Node6 -->
<g id="edge8" class="edge">
<title>Node4&#45;&gt;Node6</title>
<path fill="none" stroke="#191970" d="M135.5342,-224.2665C153.2962,-209.7132 189.0772,-182.4513 224.0692,-168 289.0994,-141.1432 371.279,-129.5098 416.7861,-124.8361"/>
<polygon fill="#191970" stroke="#191970" points="417.3824,-128.2947 426.9961,-123.842 416.7039,-121.3277 417.3824,-128.2947"/>
</g>
<!-- Node7 -->
<g id="node8" class="node">
<title>Node7</title>
<polygon fill="none" stroke="#bfbfbf" points="24.0692,-112.5 24.0692,-131.5 96.0692,-131.5 96.0692,-112.5 24.0692,-112.5"/>
<text text-anchor="middle" x="60.0692" y="-119.5" font-family="Helvetica,sans-Serif" font-size="10.00" fill="#000000">periph_cpu.h</text>
</g>
<!-- Node4&#45;&gt;Node7 -->
<g id="edge9" class="edge">
<title>Node4&#45;&gt;Node7</title>
<path fill="none" stroke="#191970" d="M90.4324,-229.7145C64.9955,-224.5153 31.7035,-213.0749 15.0692,-188 3.6444,-170.778 20.7698,-151.2414 37.0776,-137.921"/>
<polygon fill="#191970" stroke="#191970" points="39.5636,-140.4256 45.3754,-131.567 35.3078,-134.8679 39.5636,-140.4256"/>
</g>
<!-- Node8 -->
<g id="node9" class="node">
<title>Node8</title>
<polygon fill="none" stroke="#bfbfbf" points="119.5692,-112.5 119.5692,-131.5 194.5692,-131.5 194.5692,-112.5 119.5692,-112.5"/>
<text text-anchor="middle" x="157.0692" y="-119.5" font-family="Helvetica,sans-Serif" font-size="10.00" fill="#000000">periph_conf.h</text>
</g>
<!-- Node4&#45;&gt;Node8 -->
<g id="edge10" class="edge">
<title>Node4&#45;&gt;Node8</title>
<path fill="none" stroke="#191970" d="M126.8827,-224.4509C132.2893,-206.1013 144.2254,-165.5908 151.3621,-141.3693"/>
<polygon fill="#191970" stroke="#191970" points="154.7937,-142.1064 154.2627,-131.5249 148.079,-140.128 154.7937,-142.1064"/>
</g>
<!-- Node4&#45;&gt;Node9 -->
<g id="edge11" class="edge">
<title>Node4&#45;&gt;Node9</title>
<path fill="none" stroke="#191970" d="M112.9212,-224.2455C103.5605,-216.0549 89.9834,-204.1749 78.9342,-194.5069"/>
<polygon fill="#191970" stroke="#191970" points="80.9199,-191.5937 71.0894,-187.6427 76.3104,-196.8618 80.9199,-191.5937"/>
</g>
<!-- Node9&#45;&gt;Node6 -->
<g id="edge12" class="edge">
<title>Node9&#45;&gt;Node6</title>
<path fill="none" stroke="#191970" d="M96.1527,-172.832C171.1124,-162.0961 342.8219,-137.5034 416.4778,-126.9543"/>
<polygon fill="#191970" stroke="#191970" points="417.2076,-130.3855 426.6104,-125.5031 416.2151,-123.4562 417.2076,-130.3855"/>
</g>
<!-- Node9&#45;&gt;Node7 -->
<g id="edge13" class="edge">
<title>Node9&#45;&gt;Node7</title>
<path fill="none" stroke="#191970" d="M60.0692,-168.2455C60.0692,-160.9382 60.0692,-150.6944 60.0692,-141.7046"/>
<polygon fill="#191970" stroke="#191970" points="63.5693,-141.6426 60.0692,-131.6427 56.5693,-141.6427 63.5693,-141.6426"/>
</g>
<!-- Node9&#45;&gt;Node8 -->
<g id="edge14" class="edge">
<title>Node9&#45;&gt;Node8</title>
<path fill="none" stroke="#191970" d="M76.9653,-168.2455C91.9871,-159.5731 114.1735,-146.7645 131.3902,-136.825"/>
<polygon fill="#191970" stroke="#191970" points="133.4562,-139.6737 140.3667,-131.6427 129.9563,-133.6114 133.4562,-139.6737"/>
</g>
<!-- Node10&#45;&gt;Node1 -->
<g id="edge17" class="edge">
<title>Node10&#45;&gt;Node1</title>
<path fill="none" stroke="#191970" d="M425.8573,-281.6488C428.9642,-281.0448 432.0668,-280.4841 435.0692,-280 513.3515,-267.3776 723.8956,-287.6865 790.0692,-244 822.2762,-222.7376 801.5675,-191.6439 832.0692,-168 854.3024,-150.7655 930.3088,-135.4559 975.4962,-127.5914"/>
<polygon fill="#191970" stroke="#191970" points="976.1862,-131.0243 985.4548,-125.8917 975.0084,-124.1241 976.1862,-131.0243"/>
</g>
<!-- Node11 -->
<g id="node12" class="node">
<title>Node11</title>
<g id="a_node12"><a xlink:href="errno_8h.html" target="_top" xlink:title="errno.h">
<polygon fill="none" stroke="#000000" points="302.5692,-224.5 302.5692,-243.5 349.5692,-243.5 349.5692,-224.5 302.5692,-224.5"/>
<text text-anchor="middle" x="326.0692" y="-231.5" font-family="Helvetica,sans-Serif" font-size="10.00" fill="#000000">errno.h</text>
</a>
</g>
</g>
<!-- Node10&#45;&gt;Node11 -->
<g id="edge18" class="edge">
<title>Node10&#45;&gt;Node11</title>
<path fill="none" stroke="#191970" d="M378.9212,-280.2455C369.5605,-272.0549 355.9834,-260.1749 344.9342,-250.5069"/>
<polygon fill="#191970" stroke="#191970" points="346.9199,-247.5937 337.0894,-243.6427 342.3104,-252.8618 346.9199,-247.5937"/>
</g>
<!-- Node12 -->
<g id="node13" class="node">
<title>Node12</title>
<g id="a_node13"><a xlink:href="iolist_8h.html" target="_top" xlink:title="iolist scatter / gather IO ">
<polygon fill="none" stroke="#000000" points="367.5692,-224.5 367.5692,-243.5 412.5692,-243.5 412.5692,-224.5 367.5692,-224.5"/>
<text text-anchor="middle" x="390.0692" y="-231.5" font-family="Helvetica,sans-Serif" font-size="10.00" fill="#000000">iolist.h</text>
</a>
</g>
</g>
<!-- Node10&#45;&gt;Node12 -->
<g id="edge19" class="edge">
<title>Node10&#45;&gt;Node12</title>
<path fill="none" stroke="#191970" d="M390.0692,-280.2455C390.0692,-272.9382 390.0692,-262.6944 390.0692,-253.7046"/>
<polygon fill="#191970" stroke="#191970" points="393.5693,-253.6426 390.0692,-243.6427 386.5693,-253.6427 393.5693,-253.6426"/>
</g>
<!-- Node14 -->
<g id="node15" class="node">
<title>Node14</title>
<g id="a_node15"><a xlink:href="netopt_8h.html" target="_top" xlink:title="Definition of global configuration options. ">
<polygon fill="none" stroke="#000000" points="439.0692,-224.5 439.0692,-243.5 507.0692,-243.5 507.0692,-224.5 439.0692,-224.5"/>
<text text-anchor="middle" x="473.0692" y="-231.5" font-family="Helvetica,sans-Serif" font-size="10.00" fill="#000000">net/netopt.h</text>
</a>
</g>
</g>
<!-- Node10&#45;&gt;Node14 -->
<g id="edge21" class="edge">
<title>Node10&#45;&gt;Node14</title>
<path fill="none" stroke="#191970" d="M404.5267,-280.2455C417.1424,-271.7337 435.6636,-259.2375 450.2737,-249.3801"/>
<polygon fill="#191970" stroke="#191970" points="452.4452,-252.1371 458.7773,-243.6427 448.5301,-246.3343 452.4452,-252.1371"/>
</g>
<!-- Node13 -->
<g id="node14" class="node">
<title>Node13</title>
<polygon fill="none" stroke="#bfbfbf" points="266.5692,-168.5 266.5692,-187.5 317.5692,-187.5 317.5692,-168.5 266.5692,-168.5"/>
<text text-anchor="middle" x="292.0692" y="-175.5" font-family="Helvetica,sans-Serif" font-size="10.00" fill="#000000">unistd.h</text>
</g>
<!-- Node12&#45;&gt;Node13 -->
<g id="edge20" class="edge">
<title>Node12&#45;&gt;Node13</title>
<path fill="none" stroke="#191970" d="M372.9989,-224.2455C357.8221,-215.5731 335.4071,-202.7645 318.0129,-192.825"/>
<polygon fill="#191970" stroke="#191970" points="319.3628,-189.5653 308.9438,-187.6427 315.8898,-195.643 319.3628,-189.5653"/>
</g>
<!-- Node15&#45;&gt;Node10 -->
<g id="edge40" class="edge">
<title>Node15&#45;&gt;Node10</title>
<path fill="none" stroke="#191970" d="M513.4551,-336.3733C489.0005,-327.1822 451.9637,-313.2624 424.8483,-303.0713"/>
<polygon fill="#191970" stroke="#191970" points="425.941,-299.7431 415.3489,-299.5011 423.4783,-306.2956 425.941,-299.7431"/>
</g>
<!-- Node15&#45;&gt;Node14 -->
<g id="edge39" class="edge">
<title>Node15&#45;&gt;Node14</title>
<path fill="none" stroke="#191970" d="M533.7098,-336.0693C526.6493,-323.074 513.7563,-299.6428 502.0692,-280 496.5978,-270.8042 490.2865,-260.734 484.9516,-252.3664"/>
<polygon fill="#191970" stroke="#191970" points="487.7873,-250.3047 479.4401,-243.7798 481.8964,-254.0859 487.7873,-250.3047"/>
</g>
<!-- Node16 -->
<g id="node17" class="node">
<title>Node16</title>
<g id="a_node17"><a xlink:href="sys_2include_2net_2ieee802154_8h.html" target="_top" xlink:title="IEEE 802.15.4 header definitions. ">
<polygon fill="none" stroke="#000000" points="804.5692,-280.5 804.5692,-299.5 895.5692,-299.5 895.5692,-280.5 804.5692,-280.5"/>
<text text-anchor="middle" x="850.0692" y="-287.5" font-family="Helvetica,sans-Serif" font-size="10.00" fill="#000000">net/ieee802154.h</text>
</a>
</g>
</g>
<!-- Node15&#45;&gt;Node16 -->
<g id="edge23" class="edge">
<title>Node15&#45;&gt;Node16</title>
<path fill="none" stroke="#191970" d="M592.1786,-336.4369C648.4778,-326.2994 737.0116,-310.3576 794.3012,-300.0418"/>
<polygon fill="#191970" stroke="#191970" points="795.0474,-303.4638 804.2688,-298.247 793.8068,-296.5746 795.0474,-303.4638"/>
</g>
<!-- Node15&#45;&gt;Node21 -->
<g id="edge33" class="edge">
<title>Node15&#45;&gt;Node21</title>
<path fill="none" stroke="#191970" d="M600.5819,-342.4118C775.083,-332.2325 1271.579,-303.2703 1441.3343,-293.3679"/>
<polygon fill="#191970" stroke="#191970" points="1441.782,-296.8478 1451.5612,-292.7713 1441.3743,-289.8597 1441.782,-296.8478"/>
</g>
<!-- Node16&#45;&gt;Node1 -->
<g id="edge24" class="edge">
<title>Node16&#45;&gt;Node1</title>
<path fill="none" stroke="#191970" d="M887.6641,-280.3461C909.0402,-273.2532 935.0534,-261.7111 953.0692,-244 968.5041,-228.826 991.4318,-171.7751 1002.9377,-141.3661"/>
<polygon fill="#191970" stroke="#191970" points="1006.278,-142.426 1006.5002,-131.8335 999.7209,-139.9755 1006.278,-142.426"/>
</g>
<!-- Node17 -->
<g id="node18" class="node">
<title>Node17</title>
<g id="a_node18"><a xlink:href="stdlib_8h.html" target="_top" xlink:title="stdlib.h wrapper for MSP430 ">
<polygon fill="none" stroke="#000000" points="733.0692,-224.5 733.0692,-243.5 781.0692,-243.5 781.0692,-224.5 733.0692,-224.5"/>
<text text-anchor="middle" x="757.0692" y="-231.5" font-family="Helvetica,sans-Serif" font-size="10.00" fill="#000000">stdlib.h</text>
</a>
</g>
</g>
<!-- Node16&#45;&gt;Node17 -->
<g id="edge25" class="edge">
<title>Node16&#45;&gt;Node17</title>
<path fill="none" stroke="#191970" d="M833.8698,-280.2455C819.4674,-271.5731 798.1959,-258.7645 781.6892,-248.825"/>
<polygon fill="#191970" stroke="#191970" points="783.4552,-245.8028 773.0829,-243.6427 779.8442,-251.7996 783.4552,-245.8028"/>
</g>
<!-- Node19 -->
<g id="node20" class="node">
<title>Node19</title>
<g id="a_node20"><a xlink:href="byteorder_8h.html" target="_top" xlink:title="Functions to work with different byte orders. ">
<polygon fill="none" stroke="#000000" points="840.5692,-168.5 840.5692,-187.5 905.5692,-187.5 905.5692,-168.5 840.5692,-168.5"/>
<text text-anchor="middle" x="873.0692" y="-175.5" font-family="Helvetica,sans-Serif" font-size="10.00" fill="#000000">byteorder.h</text>
</a>
</g>
</g>
<!-- Node16&#45;&gt;Node19 -->
<g id="edge28" class="edge">
<title>Node16&#45;&gt;Node19</title>
<path fill="none" stroke="#191970" d="M852.0301,-280.4509C855.7984,-262.1013 864.1175,-221.5908 869.0915,-197.3693"/>
<polygon fill="#191970" stroke="#191970" points="872.5299,-198.0246 871.1132,-187.5249 865.673,-196.6164 872.5299,-198.0246"/>
</g>
<!-- Node20 -->
<g id="node21" class="node">
<title>Node20</title>
<g id="a_node21"><a xlink:href="eui64_8h.html" target="_top" xlink:title="EUI&#45;64 data type definition. ">
<polygon fill="none" stroke="#000000" points="878.5692,-224.5 878.5692,-243.5 943.5692,-243.5 943.5692,-224.5 878.5692,-224.5"/>
<text text-anchor="middle" x="911.0692" y="-231.5" font-family="Helvetica,sans-Serif" font-size="10.00" fill="#000000">net/eui64.h</text>
</a>
</g>
</g>
<!-- Node16&#45;&gt;Node20 -->
<g id="edge30" class="edge">
<title>Node16&#45;&gt;Node20</title>
<path fill="none" stroke="#191970" d="M860.6945,-280.2455C869.6165,-272.0549 882.5572,-260.1749 893.0884,-250.5069"/>
<polygon fill="#191970" stroke="#191970" points="895.5659,-252.9837 900.5655,-243.6427 890.832,-247.8271 895.5659,-252.9837"/>
</g>
<!-- Node18 -->
<g id="node19" class="node">
<title>Node18</title>
<g id="a_node19"><a xlink:href="malloc_8h.html" target="_top" xlink:title="malloc.h">
<polygon fill="none" stroke="#000000" points="730.5692,-168.5 730.5692,-187.5 783.5692,-187.5 783.5692,-168.5 730.5692,-168.5"/>
<text text-anchor="middle" x="757.0692" y="-175.5" font-family="Helvetica,sans-Serif" font-size="10.00" fill="#000000">malloc.h</text>
</a>
</g>
</g>
<!-- Node17&#45;&gt;Node18 -->
<g id="edge26" class="edge">
<title>Node17&#45;&gt;Node18</title>
<path fill="none" stroke="#191970" d="M751.8023,-224.2455C750.3913,-216.9382 749.9871,-206.6944 750.5897,-197.7046"/>
<polygon fill="#191970" stroke="#191970" points="754.0802,-197.9945 751.824,-187.6427 747.1323,-197.1421 754.0802,-197.9945"/>
</g>
<!-- Node18&#45;&gt;Node17 -->
<g id="edge27" class="edge">
<title>Node18&#45;&gt;Node17</title>
<path fill="none" stroke="#191970" d="M762.3143,-187.6427C763.7356,-194.9199 764.1501,-205.155 763.5578,-214.1575"/>
<polygon fill="#191970" stroke="#191970" points="760.0639,-213.8972 762.336,-224.2455 767.0131,-214.739 760.0639,-213.8972"/>
</g>
<!-- Node19&#45;&gt;Node1 -->
<g id="edge29" class="edge">
<title>Node19&#45;&gt;Node1</title>
<path fill="none" stroke="#191970" d="M896.6203,-168.3733C918.9082,-159.2629 952.5628,-145.5062 977.4329,-135.3404"/>
<polygon fill="#191970" stroke="#191970" points="978.8931,-138.5247 986.8253,-131.5011 976.2445,-132.0451 978.8931,-138.5247"/>
</g>
<!-- Node20&#45;&gt;Node1 -->
<g id="edge31" class="edge">
<title>Node20&#45;&gt;Node1</title>
<path fill="none" stroke="#191970" d="M917.1186,-224.0843C925.5047,-210.698 941.5097,-186.4044 958.0692,-168 967.7687,-157.2198 979.8366,-146.4123 989.9044,-137.9841"/>
<polygon fill="#191970" stroke="#191970" points="992.2795,-140.5629 997.795,-131.5169 987.8422,-135.1489 992.2795,-140.5629"/>
</g>
<!-- Node20&#45;&gt;Node19 -->
<g id="edge32" class="edge">
<title>Node20&#45;&gt;Node19</title>
<path fill="none" stroke="#191970" d="M904.4501,-224.2455C899.1646,-216.4564 891.615,-205.3308 885.2454,-195.9439"/>
<polygon fill="#191970" stroke="#191970" points="888.1236,-193.9522 879.6124,-187.6427 882.3313,-197.8827 888.1236,-193.9522"/>
</g>
<!-- Node22 -->
<g id="node23" class="node">
<title>Node22</title>
<g id="a_node23"><a xlink:href="inttypes_8h.html" target="_top" xlink:title="Adds include for missing inttype definitions. ">
<polygon fill="none" stroke="#000000" points="1401.5692,-112.5 1401.5692,-131.5 1460.5692,-131.5 1460.5692,-112.5 1401.5692,-112.5"/>
<text text-anchor="middle" x="1431.0692" y="-119.5" font-family="Helvetica,sans-Serif" font-size="10.00" fill="#000000">inttypes.h</text>
</a>
</g>
</g>
<!-- Node21&#45;&gt;Node22 -->
<g id="edge34" class="edge">
<title>Node21&#45;&gt;Node22</title>
<path fill="none" stroke="#191970" d="M1536.8503,-280.4174C1569.1696,-270.1396 1608.2482,-251.4943 1593.0692,-224 1567.0806,-176.926 1509.2367,-148.6127 1470.1819,-134.1488"/>
<polygon fill="#191970" stroke="#191970" points="1471.283,-130.8256 1460.6883,-130.7669 1468.934,-137.4197 1471.283,-130.8256"/>
</g>
<!-- Node23 -->
<g id="node24" class="node">
<title>Node23</title>
<g id="a_node24"><a xlink:href="kernel__defines_8h.html" target="_top" xlink:title="Common macros and compiler attributes/pragmas configuration. ">
<polygon fill="none" stroke="#000000" points="1587.0692,-56.5 1587.0692,-75.5 1675.0692,-75.5 1675.0692,-56.5 1587.0692,-56.5"/>
<text text-anchor="middle" x="1631.0692" y="-63.5" font-family="Helvetica,sans-Serif" font-size="10.00" fill="#000000">kernel_defines.h</text>
</a>
</g>
</g>
<!-- Node21&#45;&gt;Node23 -->
<g id="edge35" class="edge">
<title>Node21&#45;&gt;Node23</title>
<path fill="none" stroke="#191970" d="M1537.9272,-280.4081C1579.9712,-267.5536 1643.965,-240.0678 1666.0692,-188 1670.7754,-176.9141 1674.2711,-141.882 1664.0692,-112 1660.4867,-101.5068 1653.6532,-91.3289 1647.1297,-83.226"/>
<polygon fill="#191970" stroke="#191970" points="1649.7608,-80.9176 1640.593,-75.607 1644.4481,-85.4756 1649.7608,-80.9176"/>
</g>
<!-- Node24 -->
<g id="node25" class="node">
<title>Node24</title>
<g id="a_node25"><a xlink:href="ethertype_8h.html" target="_top" xlink:title="Ether type definitions. ">
<polygon fill="none" stroke="#000000" points="1406.0692,-224.5 1406.0692,-243.5 1488.0692,-243.5 1488.0692,-224.5 1406.0692,-224.5"/>
<text text-anchor="middle" x="1447.0692" y="-231.5" font-family="Helvetica,sans-Serif" font-size="10.00" fill="#000000">net/ethertype.h</text>
</a>
</g>
</g>
<!-- Node21&#45;&gt;Node24 -->
<g id="edge37" class="edge">
<title>Node21&#45;&gt;Node24</title>
<path fill="none" stroke="#191970" d="M1490.0115,-280.2455C1482.555,-272.2155 1471.8057,-260.6394 1462.9274,-251.0781"/>
<polygon fill="#191970" stroke="#191970" points="1465.3924,-248.589 1456.0231,-243.6427 1460.2628,-253.3522 1465.3924,-248.589"/>
</g>
<!-- Node25 -->
<g id="node26" class="node">
<title>Node25</title>
<g id="a_node26"><a xlink:href="protnum_8h.html" target="_top" xlink:title="Protocol number definitions. ">
<polygon fill="none" stroke="#000000" points="1506.5692,-224.5 1506.5692,-243.5 1583.5692,-243.5 1583.5692,-224.5 1506.5692,-224.5"/>
<text text-anchor="middle" x="1545.0692" y="-231.5" font-family="Helvetica,sans-Serif" font-size="10.00" fill="#000000">net/protnum.h</text>
</a>
</g>
</g>
<!-- Node21&#45;&gt;Node25 -->
<g id="edge38" class="edge">
<title>Node21&#45;&gt;Node25</title>
<path fill="none" stroke="#191970" d="M1507.0817,-280.2455C1513.5459,-272.3761 1522.8076,-261.101 1530.5675,-251.6542"/>
<polygon fill="#191970" stroke="#191970" points="1533.5055,-253.5916 1537.1484,-243.6427 1528.0964,-249.1484 1533.5055,-253.5916"/>
</g>
<!-- Node23&#45;&gt;Node5 -->
<g id="edge36" class="edge">
<title>Node23&#45;&gt;Node5</title>
<path fill="none" stroke="#191970" d="M1586.9211,-59.1893C1514.4635,-48.0112 1371.6735,-25.983 1304.556,-15.6288"/>
<polygon fill="#191970" stroke="#191970" points="1304.8729,-12.1364 1294.4562,-14.0707 1303.8056,-19.0546 1304.8729,-12.1364"/>
</g>
<!-- Node26&#45;&gt;Node1 -->
<g id="edge44" class="edge">
<title>Node26&#45;&gt;Node1</title>
<path fill="none" stroke="#191970" d="M1010.0692,-336.375C1010.0692,-302.4851 1010.0692,-188.2317 1010.0692,-141.8332"/>
<polygon fill="#191970" stroke="#191970" points="1013.5693,-141.5891 1010.0692,-131.5891 1006.5693,-141.5892 1013.5693,-141.5891"/>
</g>
<!-- Node26&#45;&gt;Node2 -->
<g id="edge43" class="edge">
<title>Node26&#45;&gt;Node2</title>
<path fill="none" stroke="#191970" d="M983.8952,-345.098C905.0562,-342.0631 671.041,-330.6364 602.0692,-300 555.4525,-279.2935 560.6163,-248.8482 516.0692,-224 505.948,-218.3545 443.5542,-200.2819 401.9173,-188.5414"/>
<polygon fill="#191970" stroke="#191970" points="402.6564,-185.1136 392.0824,-185.7769 400.7622,-191.8524 402.6564,-185.1136"/>
</g>
<!-- Node26&#45;&gt;Node3 -->
<g id="edge63" class="edge">
<title>Node26&#45;&gt;Node3</title>
<path fill="none" stroke="#191970" d="M983.8199,-343.6865C912.9647,-337.3804 711.9066,-319.0813 545.0692,-300 531.2252,-298.4167 516.0072,-296.4816 502.7818,-294.737"/>
<polygon fill="#191970" stroke="#191970" points="503.0416,-291.2407 492.6668,-293.389 502.1168,-298.1794 503.0416,-291.2407"/>
</g>
<!-- Node26&#45;&gt;Node8 -->
<g id="edge64" class="edge">
<title>Node26&#45;&gt;Node8</title>
<path fill="none" stroke="#191970" d="M983.9305,-345.227C868.2311,-341.6662 405.2906,-325.9016 346.0692,-300 264.5987,-264.3673 196.4539,-177.9449 169.4793,-140.1742"/>
<polygon fill="#191970" stroke="#191970" points="172.1313,-137.8598 163.5254,-131.6802 166.3993,-141.8778 172.1313,-137.8598"/>
</g>
<!-- Node27 -->
<g id="node28" class="node">
<title>Node27</title>
<g id="a_node28"><a xlink:href="timex_8h.html" target="_top" xlink:title="Utility library for comparing and computing timestamps. ">
<polygon fill="none" stroke="#000000" points="1406.5692,-168.5 1406.5692,-187.5 1455.5692,-187.5 1455.5692,-168.5 1406.5692,-168.5"/>
<text text-anchor="middle" x="1431.0692" y="-175.5" font-family="Helvetica,sans-Serif" font-size="10.00" fill="#000000">timex.h</text>
</a>
</g>
</g>
<!-- Node26&#45;&gt;Node27 -->
<g id="edge45" class="edge">
<title>Node26&#45;&gt;Node27</title>
<path fill="none" stroke="#191970" d="M1036.2287,-344.9984C1105.2369,-341.9495 1290.4441,-331.0168 1342.0692,-300 1377.8095,-278.5269 1372.4551,-257.6544 1397.0692,-224 1403.8569,-214.7193 1411.4595,-204.4241 1417.7514,-195.9305"/>
<polygon fill="#191970" stroke="#191970" points="1420.599,-197.9664 1423.7448,-187.8494 1414.9765,-193.7965 1420.599,-197.9664"/>
</g>
<!-- Node28 -->
<g id="node29" class="node">
<title>Node28</title>
<g id="a_node29"><a xlink:href="mutex_8h.html" target="_top" xlink:title="Mutex for thread synchronization. ">
<polygon fill="none" stroke="#000000" points="1162.0692,-168.5 1162.0692,-187.5 1214.0692,-187.5 1214.0692,-168.5 1162.0692,-168.5"/>
<text text-anchor="middle" x="1188.0692" y="-175.5" font-family="Helvetica,sans-Serif" font-size="10.00" fill="#000000">mutex.h</text>
</a>
</g>
</g>
<!-- Node26&#45;&gt;Node28 -->
<g id="edge48" class="edge">
<title>Node26&#45;&gt;Node28</title>
<path fill="none" stroke="#191970" d="M1020.1492,-336.4862C1049.1395,-309.1246 1133.0239,-229.9528 1170.093,-194.9663"/>
<polygon fill="#191970" stroke="#191970" points="1172.7862,-197.2371 1177.6563,-187.8279 1167.9815,-192.1464 1172.7862,-197.2371"/>
</g>
<!-- Node30 -->
<g id="node31" class="node">
<title>Node30</title>
<g id="a_node31"><a xlink:href="kernel__types_8h.html" target="_top" xlink:title="Types used by the kernel. ">
<polygon fill="none" stroke="#000000" points="1308.0692,-168.5 1308.0692,-187.5 1388.0692,-187.5 1388.0692,-168.5 1308.0692,-168.5"/>
<text text-anchor="middle" x="1348.0692" y="-175.5" font-family="Helvetica,sans-Serif" font-size="10.00" fill="#000000">kernel_types.h</text>
</a>
</g>
</g>
<!-- Node26&#45;&gt;Node30 -->
<g id="edge52" class="edge">
<title>Node26&#45;&gt;Node30</title>
<path fill="none" stroke="#191970" d="M1036.3225,-343.8173C1107.5099,-337.6653 1300.276,-319.3678 1321.0692,-300 1349.2649,-273.7371 1351.332,-225.1853 1349.9549,-197.9184"/>
<polygon fill="#191970" stroke="#191970" points="1353.4259,-197.387 1349.22,-187.6628 1346.4438,-197.8874 1353.4259,-197.387"/>
</g>
<!-- Node32 -->
<g id="node33" class="node">
<title>Node32</title>
<g id="a_node33"><a xlink:href="rmutex_8h.html" target="_top" xlink:title="Recursive Mutex for thread synchronization. ">
<polygon fill="none" stroke="#000000" points="1038.5692,-224.5 1038.5692,-243.5 1093.5692,-243.5 1093.5692,-224.5 1038.5692,-224.5"/>
<text text-anchor="middle" x="1066.0692" y="-231.5" font-family="Helvetica,sans-Serif" font-size="10.00" fill="#000000">rmutex.h</text>
</a>
</g>
</g>
<!-- Node26&#45;&gt;Node32 -->
<g id="edge58" class="edge">
<title>Node26&#45;&gt;Node32</title>
<path fill="none" stroke="#191970" d="M1014.8437,-336.4509C1024.1012,-317.936 1044.6396,-276.8591 1056.7098,-252.7187"/>
<polygon fill="#191970" stroke="#191970" points="1059.965,-254.0344 1061.3067,-243.5249 1053.704,-250.9039 1059.965,-254.0344"/>
</g>
<!-- Node34 -->
<g id="node35" class="node">
<title>Node34</title>
<g id="a_node35"><a xlink:href="tick__conversion_8h.html" target="_top" xlink:title="xtimer tick &lt;&#45;&gt; seconds conversions for different values of XTIMER_HZ ">
<polygon fill="none" stroke="#000000" points="1188.5692,-280.5 1188.5692,-299.5 1311.5692,-299.5 1311.5692,-280.5 1188.5692,-280.5"/>
<text text-anchor="middle" x="1250.0692" y="-287.5" font-family="Helvetica,sans-Serif" font-size="10.00" fill="#000000">xtimer/tick_conversion.h</text>
</a>
</g>
</g>
<!-- Node26&#45;&gt;Node34 -->
<g id="edge65" class="edge">
<title>Node26&#45;&gt;Node34</title>
<path fill="none" stroke="#191970" d="M1036.2102,-339.9004C1075.1954,-330.8039 1149.3185,-313.5085 1199.2209,-301.8646"/>
<polygon fill="#191970" stroke="#191970" points="1200.2274,-305.2238 1209.1705,-299.543 1198.6368,-298.4069 1200.2274,-305.2238"/>
</g>
<!-- Node38 -->
<g id="node39" class="node">
<title>Node38</title>
<g id="a_node39"><a xlink:href="implementation_8h.html" target="_top" xlink:title="xtimer implementation ">
<polygon fill="none" stroke="#000000" points="610.5692,-280.5 610.5692,-299.5 731.5692,-299.5 731.5692,-280.5 610.5692,-280.5"/>
<text text-anchor="middle" x="671.0692" y="-287.5" font-family="Helvetica,sans-Serif" font-size="10.00" fill="#000000">xtimer/implementation.h</text>
</a>
</g>
</g>
<!-- Node26&#45;&gt;Node38 -->
<g id="edge71" class="edge">
<title>Node26&#45;&gt;Node38</title>
<path fill="none" stroke="#191970" d="M984.0313,-341.6988C932.0244,-333.1076 813.8305,-313.583 738.4979,-301.1387"/>
<polygon fill="#191970" stroke="#191970" points="739.0569,-297.6837 728.6201,-299.5069 737.9159,-304.5901 739.0569,-297.6837"/>
</g>
<!-- Node27&#45;&gt;Node1 -->
<g id="edge46" class="edge">
<title>Node27&#45;&gt;Node1</title>
<path fill="none" stroke="#191970" d="M1406.3079,-170.1954C1403.2164,-169.3757 1400.0829,-168.6178 1397.0692,-168 1268.7197,-141.6909 1113.1159,-128.8636 1044.9243,-124.1754"/>
<polygon fill="#191970" stroke="#191970" points="1044.9601,-120.67 1034.748,-123.4921 1044.491,-127.6543 1044.9601,-120.67"/>
</g>
<!-- Node27&#45;&gt;Node22 -->
<g id="edge47" class="edge">
<title>Node27&#45;&gt;Node22</title>
<path fill="none" stroke="#191970" d="M1431.0692,-168.2455C1431.0692,-160.9382 1431.0692,-150.6944 1431.0692,-141.7046"/>
<polygon fill="#191970" stroke="#191970" points="1434.5693,-141.6426 1431.0692,-131.6427 1427.5693,-141.6427 1434.5693,-141.6426"/>
</g>
<!-- Node28&#45;&gt;Node1 -->
<g id="edge50" class="edge">
<title>Node28&#45;&gt;Node1</title>
<path fill="none" stroke="#191970" d="M1161.8046,-169.737C1130.6463,-159.9344 1078.6154,-143.5651 1044.3204,-132.7757"/>
<polygon fill="#191970" stroke="#191970" points="1045.3094,-129.4178 1034.7199,-129.7553 1043.2086,-136.0951 1045.3094,-129.4178"/>
</g>
<!-- Node28&#45;&gt;Node5 -->
<g id="edge49" class="edge">
<title>Node28&#45;&gt;Node5</title>
<path fill="none" stroke="#191970" d="M1187.9902,-168.2478C1188.1938,-155.0469 1189.6748,-130.9626 1197.0692,-112 1209.9061,-79.0802 1235.3744,-46.5373 1252.06,-27.3609"/>
<polygon fill="#191970" stroke="#191970" points="1254.785,-29.5637 1258.8212,-19.7678 1249.5571,-24.9086 1254.785,-29.5637"/>
</g>
<!-- Node29 -->
<g id="node30" class="node">
<title>Node29</title>
<g id="a_node30"><a xlink:href="list_8h.html" target="_top" xlink:title="Intrusive linked list. ">
<polygon fill="none" stroke="#000000" points="1206.0692,-112.5 1206.0692,-131.5 1244.0692,-131.5 1244.0692,-112.5 1206.0692,-112.5"/>
<text text-anchor="middle" x="1225.0692" y="-119.5" font-family="Helvetica,sans-Serif" font-size="10.00" fill="#000000">list.h</text>
</a>
</g>
</g>
<!-- Node28&#45;&gt;Node29 -->
<g id="edge51" class="edge">
<title>Node28&#45;&gt;Node29</title>
<path fill="none" stroke="#191970" d="M1194.5141,-168.2455C1199.6074,-160.5367 1206.86,-149.5598 1213.0212,-140.2348"/>
<polygon fill="#191970" stroke="#191970" points="1216.1057,-141.9155 1218.6981,-131.6427 1210.2653,-138.0566 1216.1057,-141.9155"/>
</g>
<!-- Node30&#45;&gt;Node1 -->
<g id="edge53" class="edge">
<title>Node30&#45;&gt;Node1</title>
<path fill="none" stroke="#191970" d="M1307.9827,-170.4727C1303.2949,-169.6233 1298.5783,-168.7826 1294.0692,-168 1204.3333,-152.4258 1098.3462,-135.7002 1044.7855,-127.3649"/>
<polygon fill="#191970" stroke="#191970" points="1045.2116,-123.8892 1034.7928,-125.8126 1044.1369,-130.8062 1045.2116,-123.8892"/>
</g>
<!-- Node30&#45;&gt;Node5 -->
<g id="edge56" class="edge">
<title>Node30&#45;&gt;Node5</title>
<path fill="none" stroke="#191970" d="M1348.1481,-168.2478C1347.9445,-155.0469 1346.4635,-130.9626 1339.0692,-112 1326.2322,-79.0802 1300.7639,-46.5373 1284.0783,-27.3609"/>
<polygon fill="#191970" stroke="#191970" points="1286.5812,-24.9086 1277.3171,-19.7678 1281.3533,-29.5637 1286.5812,-24.9086"/>
</g>
<!-- Node30&#45;&gt;Node6 -->
<g id="edge55" class="edge">
<title>Node30&#45;&gt;Node6</title>
<path fill="none" stroke="#191970" d="M1307.8342,-174.5725C1283.3401,-172.5378 1251.411,-169.9779 1223.0692,-168 937.8978,-148.0992 593.0829,-129.4828 485.084,-123.7796"/>
<polygon fill="#191970" stroke="#191970" points="485.2641,-120.2843 475.0937,-123.2532 484.8957,-127.2746 485.2641,-120.2843"/>
</g>
<!-- Node30&#45;&gt;Node22 -->
<g id="edge54" class="edge">
<title>Node30&#45;&gt;Node22</title>
<path fill="none" stroke="#191970" d="M1362.5267,-168.2455C1375.1424,-159.7337 1393.6636,-147.2375 1408.2737,-137.3801"/>
<polygon fill="#191970" stroke="#191970" points="1410.4452,-140.1371 1416.7773,-131.6427 1406.5301,-134.3343 1410.4452,-140.1371"/>
</g>
<!-- Node31 -->
<g id="node32" class="node">
<title>Node31</title>
<polygon fill="none" stroke="#bfbfbf" points="1262.0692,-112.5 1262.0692,-131.5 1330.0692,-131.5 1330.0692,-112.5 1262.0692,-112.5"/>
<text text-anchor="middle" x="1296.0692" y="-119.5" font-family="Helvetica,sans-Serif" font-size="10.00" fill="#000000">sys/types.h</text>
</g>
<!-- Node30&#45;&gt;Node31 -->
<g id="edge57" class="edge">
<title>Node30&#45;&gt;Node31</title>
<path fill="none" stroke="#191970" d="M1339.0115,-168.2455C1331.555,-160.2155 1320.8057,-148.6394 1311.9274,-139.0781"/>
<polygon fill="#191970" stroke="#191970" points="1314.3924,-136.589 1305.0231,-131.6427 1309.2628,-141.3522 1314.3924,-136.589"/>
</g>
<!-- Node32&#45;&gt;Node1 -->
<g id="edge59" class="edge">
<title>Node32&#45;&gt;Node1</title>
<path fill="none" stroke="#191970" d="M1061.2946,-224.4509C1052.0372,-205.936 1031.4987,-164.8591 1019.4285,-140.7187"/>
<polygon fill="#191970" stroke="#191970" points="1022.4343,-138.9039 1014.8316,-131.5249 1016.1733,-142.0344 1022.4343,-138.9039"/>
</g>
<!-- Node32&#45;&gt;Node28 -->
<g id="edge61" class="edge">
<title>Node32&#45;&gt;Node28</title>
<path fill="none" stroke="#191970" d="M1087.0417,-224.3733C1106.6259,-215.3838 1136.0653,-201.8706 1158.1201,-191.7471"/>
<polygon fill="#191970" stroke="#191970" points="1159.7421,-194.8538 1167.3703,-187.5011 1156.8219,-188.4919 1159.7421,-194.8538"/>
</g>
<!-- Node32&#45;&gt;Node30 -->
<g id="edge62" class="edge">
<title>Node32&#45;&gt;Node30</title>
<path fill="none" stroke="#191970" d="M1093.622,-228.5285C1140.9172,-219.1366 1238.2037,-199.8173 1297.8303,-187.9765"/>
<polygon fill="#191970" stroke="#191970" points="1298.657,-191.3808 1307.7837,-186 1297.2935,-184.5148 1298.657,-191.3808"/>
</g>
<!-- Node33 -->
<g id="node34" class="node">
<title>Node33</title>
<polygon fill="none" stroke="#bfbfbf" points="1076.0692,-168.5 1076.0692,-187.5 1144.0692,-187.5 1144.0692,-168.5 1076.0692,-168.5"/>
<text text-anchor="middle" x="1110.0692" y="-175.5" font-family="Helvetica,sans-Serif" font-size="10.00" fill="#000000">stdatomic.h</text>
</g>
<!-- Node32&#45;&gt;Node33 -->
<g id="edge60" class="edge">
<title>Node32&#45;&gt;Node33</title>
<path fill="none" stroke="#191970" d="M1073.7334,-224.2455C1079.9165,-216.3761 1088.7755,-205.101 1096.198,-195.6542"/>
<polygon fill="#191970" stroke="#191970" points="1099.0666,-197.6683 1102.4928,-187.6427 1093.5624,-193.3435 1099.0666,-197.6683"/>
</g>
<!-- Node35 -->
<g id="node36" class="node">
<title>Node35</title>
<g id="a_node36"><a xlink:href="div_8h.html" target="_top" xlink:title="div.h">
<polygon fill="none" stroke="#000000" points="1261.0692,-224.5 1261.0692,-243.5 1299.0692,-243.5 1299.0692,-224.5 1261.0692,-224.5"/>
<text text-anchor="middle" x="1280.0692" y="-231.5" font-family="Helvetica,sans-Serif" font-size="10.00" fill="#000000">div.h</text>
</a>
</g>
</g>
<!-- Node34&#45;&gt;Node35 -->
<g id="edge66" class="edge">
<title>Node34&#45;&gt;Node35</title>
<path fill="none" stroke="#191970" d="M1255.2948,-280.2455C1259.3815,-272.617 1265.1827,-261.7881 1270.1441,-252.5267"/>
<polygon fill="#191970" stroke="#191970" points="1273.2664,-254.1103 1274.9034,-243.6427 1267.096,-250.8047 1273.2664,-254.1103"/>
</g>
<!-- Node35&#45;&gt;Node1 -->
<g id="edge70" class="edge">
<title>Node35&#45;&gt;Node1</title>
<path fill="none" stroke="#191970" d="M1279.4544,-224.242C1277.983,-209.6567 1272.9918,-182.3536 1256.0692,-168 1224.6548,-141.3548 1104.8178,-128.9447 1044.779,-124.3003"/>
<polygon fill="#191970" stroke="#191970" points="1044.8755,-120.7978 1034.6434,-123.5463 1044.3561,-127.7786 1044.8755,-120.7978"/>
</g>
<!-- Node36 -->
<g id="node37" class="node">
<title>Node36</title>
<g id="a_node37"><a xlink:href="assert_8h.html" target="_top" xlink:title="POSIX.1&#45;2008 compliant version of the assert macro. ">
<polygon fill="none" stroke="#000000" points="1605.0692,-168.5 1605.0692,-187.5 1657.0692,-187.5 1657.0692,-168.5 1605.0692,-168.5"/>
<text text-anchor="middle" x="1631.0692" y="-175.5" font-family="Helvetica,sans-Serif" font-size="10.00" fill="#000000">assert.h</text>
</a>
</g>
</g>
<!-- Node35&#45;&gt;Node36 -->
<g id="edge67" class="edge">
<title>Node35&#45;&gt;Node36</title>
<path fill="none" stroke="#191970" d="M1299.1897,-230.9494C1355.3669,-221.9867 1520.5965,-195.6253 1594.5535,-183.8259"/>
<polygon fill="#191970" stroke="#191970" points="1595.4555,-187.2263 1604.7791,-182.1944 1594.3525,-180.3137 1595.4555,-187.2263"/>
</g>
<!-- Node37 -->
<g id="node38" class="node">
<title>Node37</title>
<g id="a_node38"><a xlink:href="panic_8h.html" target="_top" xlink:title="Crash handling header. ">
<polygon fill="none" stroke="#000000" points="1607.0692,-112.5 1607.0692,-131.5 1655.0692,-131.5 1655.0692,-112.5 1607.0692,-112.5"/>
<text text-anchor="middle" x="1631.0692" y="-119.5" font-family="Helvetica,sans-Serif" font-size="10.00" fill="#000000">panic.h</text>
</a>
</g>
</g>
<!-- Node36&#45;&gt;Node37 -->
<g id="edge68" class="edge">
<title>Node36&#45;&gt;Node37</title>
<path fill="none" stroke="#191970" d="M1631.0692,-168.2455C1631.0692,-160.9382 1631.0692,-150.6944 1631.0692,-141.7046"/>
<polygon fill="#191970" stroke="#191970" points="1634.5693,-141.6426 1631.0692,-131.6427 1627.5693,-141.6427 1634.5693,-141.6426"/>
</g>
<!-- Node37&#45;&gt;Node23 -->
<g id="edge69" class="edge">
<title>Node37&#45;&gt;Node23</title>
<path fill="none" stroke="#191970" d="M1631.0692,-112.2455C1631.0692,-104.9382 1631.0692,-94.6944 1631.0692,-85.7046"/>
<polygon fill="#191970" stroke="#191970" points="1634.5693,-85.6426 1631.0692,-75.6427 1627.5693,-85.6427 1634.5693,-85.6426"/>
</g>
<!-- Node39 -->
<g id="node40" class="node">
<title>Node39</title>
<g id="a_node40"><a xlink:href="drivers_2include_2periph_2timer_8h.html" target="_top" xlink:title="Low&#45;level timer peripheral driver interface definitions. ">
<polygon fill="none" stroke="#000000" points="633.0692,-224.5 633.0692,-243.5 709.0692,-243.5 709.0692,-224.5 633.0692,-224.5"/>
<text text-anchor="middle" x="671.0692" y="-231.5" font-family="Helvetica,sans-Serif" font-size="10.00" fill="#000000">periph/timer.h</text>
</a>
</g>
</g>
<!-- Node38&#45;&gt;Node39 -->
<g id="edge72" class="edge">
<title>Node38&#45;&gt;Node39</title>
<path fill="none" stroke="#191970" d="M671.0692,-280.2455C671.0692,-272.9382 671.0692,-262.6944 671.0692,-253.7046"/>
<polygon fill="#191970" stroke="#191970" points="674.5693,-253.6426 671.0692,-243.6427 667.5693,-253.6427 674.5693,-253.6426"/>
</g>
<!-- Node41 -->
<g id="node42" class="node">
<title>Node41</title>
<g id="a_node42"><a xlink:href="irq_8h.html" target="_top" xlink:title="IRQ driver interface. ">
<polygon fill="none" stroke="#000000" points="579.5692,-224.5 579.5692,-243.5 614.5692,-243.5 614.5692,-224.5 579.5692,-224.5"/>
<text text-anchor="middle" x="597.0692" y="-231.5" font-family="Helvetica,sans-Serif" font-size="10.00" fill="#000000">irq.h</text>
</a>
</g>
</g>
<!-- Node38&#45;&gt;Node41 -->
<g id="edge78" class="edge">
<title>Node38&#45;&gt;Node41</title>
<path fill="none" stroke="#191970" d="M658.1793,-280.2455C647.1438,-271.8943 631.0399,-259.7076 618.1338,-249.9408"/>
<polygon fill="#191970" stroke="#191970" points="619.8974,-246.8862 609.8113,-243.6427 615.6733,-252.4681 619.8974,-246.8862"/>
</g>
<!-- Node39&#45;&gt;Node1 -->
<g id="edge74" class="edge">
<title>Node39&#45;&gt;Node1</title>
<path fill="none" stroke="#191970" d="M675.7087,-224.0158C683.1898,-209.1351 699.4056,-181.4514 722.0692,-168 764.3299,-142.9171 908.0903,-129.4248 975.1252,-124.3674"/>
<polygon fill="#191970" stroke="#191970" points="975.4811,-127.8508 985.1978,-123.6276 974.9683,-120.8696 975.4811,-127.8508"/>
</g>
<!-- Node39&#45;&gt;Node6 -->
<g id="edge73" class="edge">
<title>Node39&#45;&gt;Node6</title>
<path fill="none" stroke="#191970" d="M670.0533,-224.324C668.002,-209.8459 662.006,-182.6809 645.0692,-168 621.4323,-147.5114 534.4721,-133.0244 485.384,-126.2772"/>
<polygon fill="#191970" stroke="#191970" points="485.6062,-122.7758 475.2301,-124.9177 484.6771,-129.7139 485.6062,-122.7758"/>
</g>
<!-- Node39&#45;&gt;Node7 -->
<g id="edge75" class="edge">
<title>Node39&#45;&gt;Node7</title>
<path fill="none" stroke="#191970" d="M633.914,-224.4877C603.5746,-216.2393 559.8569,-203.2471 523.0692,-188 505.4382,-180.6926 503.3563,-173.4615 485.0692,-168 325.062,-120.2136 276.3123,-156.0944 111.0692,-132 109.5625,-131.7803 108.0329,-131.5461 106.4898,-131.3003"/>
<polygon fill="#191970" stroke="#191970" points="106.6607,-127.7787 96.2133,-129.5398 105.4787,-134.6782 106.6607,-127.7787"/>
</g>
<!-- Node40 -->
<g id="node41" class="node">
<title>Node40</title>
<g id="a_node41"><a xlink:href="dev__enums_8h.html" target="_top" xlink:title="Device enumerations for backward compatibility with existing peripheral driver implementations. ">
<polygon fill="none" stroke="#000000" points="532.0692,-168.5 532.0692,-187.5 636.0692,-187.5 636.0692,-168.5 532.0692,-168.5"/>
<text text-anchor="middle" x="584.0692" y="-175.5" font-family="Helvetica,sans-Serif" font-size="10.00" fill="#000000">periph/dev_enums.h</text>
</a>
</g>
</g>
<!-- Node39&#45;&gt;Node40 -->
<g id="edge76" class="edge">
<title>Node39&#45;&gt;Node40</title>
<path fill="none" stroke="#191970" d="M655.9149,-224.2455C642.5664,-215.6534 622.9105,-203.0014 607.5309,-193.1018"/>
<polygon fill="#191970" stroke="#191970" points="609.3528,-190.1121 599.0497,-187.6427 605.564,-195.9982 609.3528,-190.1121"/>
</g>
<!-- Node40&#45;&gt;Node8 -->
<g id="edge77" class="edge">
<title>Node40&#45;&gt;Node8</title>
<path fill="none" stroke="#191970" d="M531.847,-169.9711C527.1899,-169.2904 522.5456,-168.6242 518.0692,-168 406.0238,-152.3753 274.1077,-136.1035 204.9333,-127.7339"/>
<polygon fill="#191970" stroke="#191970" points="205.1348,-124.2329 194.7873,-126.5085 204.2955,-131.1824 205.1348,-124.2329"/>
</g>
<!-- Node41&#45;&gt;Node2 -->
<g id="edge79" class="edge">
<title>Node41&#45;&gt;Node2</title>
<path fill="none" stroke="#191970" d="M579.5426,-228.2264C574.8633,-226.7665 569.7939,-225.2575 565.0692,-224 493.3748,-204.918 474.1795,-205.4439 402.0692,-188 401.9697,-187.9759 401.8701,-187.9518 401.7704,-187.9276"/>
<polygon fill="#191970" stroke="#191970" points="402.8092,-184.5796 392.2591,-185.5524 401.1131,-191.3711 402.8092,-184.5796"/>
</g>
<!-- Node42 -->
<g id="node43" class="node">
<title>Node42</title>
<polygon fill="none" stroke="#bfbfbf" points="410.5692,-168.5 410.5692,-187.5 475.5692,-187.5 475.5692,-168.5 410.5692,-168.5"/>
<text text-anchor="middle" x="443.0692" y="-175.5" font-family="Helvetica,sans-Serif" font-size="10.00" fill="#000000">cpu_conf.h</text>
</g>
<!-- Node41&#45;&gt;Node42 -->
<g id="edge80" class="edge">
<title>Node41&#45;&gt;Node42</title>
<path fill="none" stroke="#191970" d="M579.4034,-227.5761C555.0222,-218.7102 510.5027,-202.5213 478.9787,-191.058"/>
<polygon fill="#191970" stroke="#191970" points="479.8363,-187.6457 469.2422,-187.5175 477.444,-194.2242 479.8363,-187.6457"/>
</g>
</g>
</svg>
