<?xml version="1.0" encoding="UTF-8" standalone="no"?>
<!DOCTYPE svg PUBLIC "-//W3C//DTD SVG 1.1//EN"
 "http://www.w3.org/Graphics/SVG/1.1/DTD/svg11.dtd">
<!-- Generated by graphviz version 2.43.0 (0)
 -->
<!-- Title: drivers/at86rf2xx/include/at86rf2xx_internal.h Pages: 1 -->
<svg width="1157pt" height="487pt"
 viewBox="0.00 0.00 1156.50 487.00" xmlns="http://www.w3.org/2000/svg" xmlns:xlink="http://www.w3.org/1999/xlink">
<g id="graph0" class="graph" transform="scale(1 1) rotate(0) translate(4 483)">
<title>drivers/at86rf2xx/include/at86rf2xx_internal.h</title>
<!-- Node1 -->
<g id="node1" class="node">
<title>Node1</title>
<g id="a_node1"><a xlink:title="Internal interfaces for AT86RF2xx drivers.">
<polygon fill="#bfbfbf" stroke="black" points="855,-448.5 855,-478.5 994,-478.5 994,-448.5 855,-448.5"/>
<text text-anchor="start" x="863" y="-466.5" font-family="Helvetica,sans-Serif" font-size="10.00">drivers/at86rf2xx/include</text>
<text text-anchor="middle" x="924.5" y="-455.5" font-family="Helvetica,sans-Serif" font-size="10.00">/at86rf2xx_internal.h</text>
</a>
</g>
</g>
<!-- Node2 -->
<g id="node2" class="node">
<title>Node2</title>
<g id="a_node2"><a xlink:title=" ">
<polygon fill="none" stroke="#bfbfbf" points="399,-0.5 399,-19.5 452,-19.5 452,-0.5 399,-0.5"/>
<text text-anchor="middle" x="425.5" y="-7.5" font-family="Helvetica,sans-Serif" font-size="10.00">stdint.h</text>
</a>
</g>
</g>
<!-- Node1&#45;&gt;Node2 -->
<g id="edge1" class="edge">
<title>Node1&#45;&gt;Node2</title>
<path fill="none" stroke="midnightblue" d="M994.02,-448.74C1046.85,-433.77 1110.5,-403.92 1110.5,-347 1110.5,-347 1110.5,-347 1110.5,-177 1110.5,-103.11 1063.13,-87.93 996.5,-56 901.58,-10.51 573.17,-9.48 462.35,-10.49"/>
<polygon fill="midnightblue" stroke="midnightblue" points="461.98,-6.99 452.02,-10.6 462.06,-13.99 461.98,-6.99"/>
</g>
<!-- Node3 -->
<g id="node3" class="node">
<title>Node3</title>
<g id="a_node3"><a xlink:href="at86rf2xx_8h.html" target="_top" xlink:title="Interface definition for AT86RF2xx based drivers.">
<polygon fill="none" stroke="black" points="746,-392.5 746,-411.5 819,-411.5 819,-392.5 746,-392.5"/>
<text text-anchor="middle" x="782.5" y="-399.5" font-family="Helvetica,sans-Serif" font-size="10.00">at86rf2xx.h</text>
</a>
</g>
</g>
<!-- Node1&#45;&gt;Node3 -->
<g id="edge2" class="edge">
<title>Node1&#45;&gt;Node3</title>
<path fill="none" stroke="midnightblue" d="M890.85,-448.4C867.02,-438.42 835.35,-425.15 812.41,-415.53"/>
<polygon fill="midnightblue" stroke="midnightblue" points="813.74,-412.29 803.16,-411.66 811.03,-418.75 813.74,-412.29"/>
</g>
<!-- Node3&#45;&gt;Node2 -->
<g id="edge3" class="edge">
<title>Node3&#45;&gt;Node2</title>
<path fill="none" stroke="midnightblue" d="M819.17,-399.51C859.15,-396.31 923.55,-386.41 969.5,-356 1027.29,-317.76 1089.07,-282.86 1052.5,-224 963.55,-80.83 873.16,-106.97 712.5,-56 625.34,-28.34 517.67,-17.29 462.27,-13.19"/>
<polygon fill="midnightblue" stroke="midnightblue" points="462.45,-9.7 452.23,-12.49 461.96,-16.68 462.45,-9.7"/>
</g>
<!-- Node4 -->
<g id="node4" class="node">
<title>Node4</title>
<g id="a_node4"><a xlink:title=" ">
<polygon fill="none" stroke="#bfbfbf" points="674.5,-280.5 674.5,-299.5 736.5,-299.5 736.5,-280.5 674.5,-280.5"/>
<text text-anchor="middle" x="705.5" y="-287.5" font-family="Helvetica,sans-Serif" font-size="10.00">stdbool.h</text>
</a>
</g>
</g>
<!-- Node3&#45;&gt;Node4 -->
<g id="edge4" class="edge">
<title>Node3&#45;&gt;Node4</title>
<path fill="none" stroke="midnightblue" d="M776.46,-392.37C763.75,-374.22 734.06,-331.8 717.39,-307.99"/>
<polygon fill="midnightblue" stroke="midnightblue" points="720.12,-305.78 711.51,-299.59 714.38,-309.79 720.12,-305.78"/>
</g>
<!-- Node5 -->
<g id="node5" class="node">
<title>Node5</title>
<g id="a_node5"><a xlink:title=" ">
<polygon fill="none" stroke="#bfbfbf" points="908,-336.5 908,-355.5 961,-355.5 961,-336.5 908,-336.5"/>
<text text-anchor="middle" x="934.5" y="-343.5" font-family="Helvetica,sans-Serif" font-size="10.00">board.h</text>
</a>
</g>
</g>
<!-- Node3&#45;&gt;Node5 -->
<g id="edge5" class="edge">
<title>Node3&#45;&gt;Node5</title>
<path fill="none" stroke="midnightblue" d="M806.58,-392.44C832.04,-383.4 872.39,-369.06 900.96,-358.92"/>
<polygon fill="midnightblue" stroke="midnightblue" points="902.28,-362.16 910.53,-355.52 899.93,-355.57 902.28,-362.16"/>
</g>
<!-- Node6 -->
<g id="node6" class="node">
<title>Node6</title>
<g id="a_node6"><a xlink:href="kernel__defines_8h.html" target="_top" xlink:title="Common macros and compiler attributes/pragmas configuration.">
<polygon fill="none" stroke="black" points="538,-168.5 538,-187.5 635,-187.5 635,-168.5 538,-168.5"/>
<text text-anchor="middle" x="586.5" y="-175.5" font-family="Helvetica,sans-Serif" font-size="10.00">kernel_defines.h</text>
</a>
</g>
</g>
<!-- Node3&#45;&gt;Node6 -->
<g id="edge6" class="edge">
<title>Node3&#45;&gt;Node6</title>
<path fill="none" stroke="midnightblue" d="M745.85,-399.76C665.34,-394.7 477.2,-369.44 439.5,-244 436.94,-235.49 434.21,-231.15 439.5,-224 450.38,-209.29 491.77,-197.43 527.87,-189.58"/>
<polygon fill="midnightblue" stroke="midnightblue" points="528.82,-192.96 537.89,-187.48 527.38,-186.11 528.82,-192.96"/>
</g>
<!-- Node8 -->
<g id="node8" class="node">
<title>Node8</title>
<g id="a_node8"><a xlink:href="drivers_2include_2net_2netdev_8h.html" target="_top" xlink:title="Definitions low&#45;level network driver interface.">
<polygon fill="none" stroke="black" points="285,-224.5 285,-243.5 362,-243.5 362,-224.5 285,-224.5"/>
<text text-anchor="middle" x="323.5" y="-231.5" font-family="Helvetica,sans-Serif" font-size="10.00">net/netdev.h</text>
</a>
</g>
</g>
<!-- Node3&#45;&gt;Node8 -->
<g id="edge9" class="edge">
<title>Node3&#45;&gt;Node8</title>
<path fill="none" stroke="midnightblue" d="M745.94,-401.49C657.44,-401.98 434.7,-398.81 376.5,-356 343.04,-331.39 330.4,-281.03 325.86,-253.68"/>
<polygon fill="midnightblue" stroke="midnightblue" points="329.29,-252.9 324.38,-243.51 322.36,-253.91 329.29,-252.9"/>
</g>
<!-- Node14 -->
<g id="node14" class="node">
<title>Node14</title>
<g id="a_node14"><a xlink:href="drivers_2include_2net_2netdev_2ieee802154_8h.html" target="_top" xlink:title="Definitions for netdev common IEEE 802.15.4 code.">
<polygon fill="none" stroke="black" points="186.5,-336.5 186.5,-355.5 324.5,-355.5 324.5,-336.5 186.5,-336.5"/>
<text text-anchor="middle" x="255.5" y="-343.5" font-family="Helvetica,sans-Serif" font-size="10.00">net/netdev/ieee802154.h</text>
</a>
</g>
</g>
<!-- Node3&#45;&gt;Node14 -->
<g id="edge21" class="edge">
<title>Node3&#45;&gt;Node14</title>
<path fill="none" stroke="midnightblue" d="M745.94,-397.38C670.02,-389.85 489.72,-371.86 338.5,-356 337.38,-355.88 336.26,-355.76 335.12,-355.65"/>
<polygon fill="midnightblue" stroke="midnightblue" points="335.1,-352.12 324.79,-354.55 334.36,-359.08 335.1,-352.12"/>
</g>
<!-- Node22 -->
<g id="node22" class="node">
<title>Node22</title>
<g id="a_node22"><a xlink:href="nettype_8h.html" target="_top" xlink:title="Protocol type definitions.">
<polygon fill="none" stroke="black" points="485.5,-280.5 485.5,-299.5 591.5,-299.5 591.5,-280.5 485.5,-280.5"/>
<text text-anchor="middle" x="538.5" y="-287.5" font-family="Helvetica,sans-Serif" font-size="10.00">net/gnrc/nettype.h</text>
</a>
</g>
</g>
<!-- Node3&#45;&gt;Node22 -->
<g id="edge45" class="edge">
<title>Node3&#45;&gt;Node22</title>
<path fill="none" stroke="midnightblue" d="M763.35,-392.37C720.59,-373.09 617.14,-326.45 566.87,-303.79"/>
<polygon fill="midnightblue" stroke="midnightblue" points="568.11,-300.51 557.56,-299.59 565.24,-306.89 568.11,-300.51"/>
</g>
<!-- Node26 -->
<g id="node26" class="node">
<title>Node26</title>
<g id="a_node26"><a xlink:href="spi_8h.html" target="_top" xlink:title="Low&#45;level SPI peripheral driver interface definition.">
<polygon fill="none" stroke="black" points="777.5,-336.5 777.5,-355.5 851.5,-355.5 851.5,-336.5 777.5,-336.5"/>
<text text-anchor="middle" x="814.5" y="-343.5" font-family="Helvetica,sans-Serif" font-size="10.00">periph/spi.h</text>
</a>
</g>
</g>
<!-- Node3&#45;&gt;Node26 -->
<g id="edge46" class="edge">
<title>Node3&#45;&gt;Node26</title>
<path fill="none" stroke="midnightblue" d="M787.78,-392.08C792.21,-384.61 798.66,-373.72 804.12,-364.52"/>
<polygon fill="midnightblue" stroke="midnightblue" points="807.23,-366.14 809.31,-355.75 801.21,-362.57 807.23,-366.14"/>
</g>
<!-- Node30 -->
<g id="node30" class="node">
<title>Node30</title>
<g id="a_node30"><a xlink:href="gpio_8h.html" target="_top" xlink:title="Low&#45;level GPIO peripheral driver interface definitions.">
<polygon fill="none" stroke="black" points="880.5,-280.5 880.5,-299.5 960.5,-299.5 960.5,-280.5 880.5,-280.5"/>
<text text-anchor="middle" x="920.5" y="-287.5" font-family="Helvetica,sans-Serif" font-size="10.00">periph/gpio.h</text>
</a>
</g>
</g>
<!-- Node3&#45;&gt;Node30 -->
<g id="edge57" class="edge">
<title>Node3&#45;&gt;Node30</title>
<path fill="none" stroke="midnightblue" d="M800.82,-392.42C817.29,-384.26 841.69,-371.03 860.5,-356 878.58,-341.55 896.17,-321.58 907.58,-307.61"/>
<polygon fill="midnightblue" stroke="midnightblue" points="910.32,-309.78 913.83,-299.78 904.85,-305.41 910.32,-309.78"/>
</g>
<!-- Node6&#45;&gt;Node2 -->
<g id="edge8" class="edge">
<title>Node6&#45;&gt;Node2</title>
<path fill="none" stroke="midnightblue" d="M577.84,-168.08C551.84,-141.27 474.18,-61.19 440.91,-26.89"/>
<polygon fill="midnightblue" stroke="midnightblue" points="443.28,-24.31 433.81,-19.57 438.26,-29.18 443.28,-24.31"/>
</g>
<!-- Node7 -->
<g id="node7" class="node">
<title>Node7</title>
<g id="a_node7"><a xlink:title=" ">
<polygon fill="none" stroke="#bfbfbf" points="1044.5,-0.5 1044.5,-19.5 1100.5,-19.5 1100.5,-0.5 1044.5,-0.5"/>
<text text-anchor="middle" x="1072.5" y="-7.5" font-family="Helvetica,sans-Serif" font-size="10.00">stddef.h</text>
</a>
</g>
</g>
<!-- Node6&#45;&gt;Node7 -->
<g id="edge7" class="edge">
<title>Node6&#45;&gt;Node7</title>
<path fill="none" stroke="midnightblue" d="M635.17,-176.83C721.3,-174.29 903.11,-158.67 1026.5,-76 1043.86,-64.37 1056.75,-43.82 1064.4,-28.93"/>
<polygon fill="midnightblue" stroke="midnightblue" points="1067.66,-30.24 1068.85,-19.71 1061.36,-27.2 1067.66,-30.24"/>
</g>
<!-- Node8&#45;&gt;Node2 -->
<g id="edge10" class="edge">
<title>Node8&#45;&gt;Node2</title>
<path fill="none" stroke="midnightblue" d="M329.77,-224.32C336,-215.46 345.61,-201.18 352.5,-188 381.7,-132.16 407.68,-61.96 419.2,-29.29"/>
<polygon fill="midnightblue" stroke="midnightblue" points="422.55,-30.32 422.54,-19.72 415.94,-28.01 422.55,-30.32"/>
</g>
<!-- Node8&#45;&gt;Node6 -->
<g id="edge20" class="edge">
<title>Node8&#45;&gt;Node6</title>
<path fill="none" stroke="midnightblue" d="M362.02,-225.09C407.77,-215.7 484.25,-199.99 535.03,-189.57"/>
<polygon fill="midnightblue" stroke="midnightblue" points="535.74,-193 544.83,-187.56 534.33,-186.14 535.74,-193"/>
</g>
<!-- Node9 -->
<g id="node9" class="node">
<title>Node9</title>
<g id="a_node9"><a xlink:href="errno_8h.html" target="_top" xlink:title=" ">
<polygon fill="none" stroke="black" points="400,-168.5 400,-187.5 451,-187.5 451,-168.5 400,-168.5"/>
<text text-anchor="middle" x="425.5" y="-175.5" font-family="Helvetica,sans-Serif" font-size="10.00">errno.h</text>
</a>
</g>
</g>
<!-- Node8&#45;&gt;Node9 -->
<g id="edge11" class="edge">
<title>Node8&#45;&gt;Node9</title>
<path fill="none" stroke="midnightblue" d="M339.89,-224.32C356.17,-215.7 381.37,-202.36 400.22,-192.39"/>
<polygon fill="midnightblue" stroke="midnightblue" points="401.95,-195.43 409.15,-187.65 398.68,-189.24 401.95,-195.43"/>
</g>
<!-- Node10 -->
<g id="node10" class="node">
<title>Node10</title>
<g id="a_node10"><a xlink:href="iolist_8h.html" target="_top" xlink:title="iolist scatter / gather IO">
<polygon fill="none" stroke="black" points="469.5,-168.5 469.5,-187.5 519.5,-187.5 519.5,-168.5 469.5,-168.5"/>
<text text-anchor="middle" x="494.5" y="-175.5" font-family="Helvetica,sans-Serif" font-size="10.00">iolist.h</text>
</a>
</g>
</g>
<!-- Node8&#45;&gt;Node10 -->
<g id="edge12" class="edge">
<title>Node8&#45;&gt;Node10</title>
<path fill="none" stroke="midnightblue" d="M350.6,-224.44C380.08,-215.13 427.32,-200.21 459.58,-190.03"/>
<polygon fill="midnightblue" stroke="midnightblue" points="461,-193.25 469.48,-186.9 458.89,-186.58 461,-193.25"/>
</g>
<!-- Node13 -->
<g id="node13" class="node">
<title>Node13</title>
<g id="a_node13"><a xlink:href="netopt_8h.html" target="_top" xlink:title="Definition of global configuration options.">
<polygon fill="none" stroke="black" points="267.5,-168.5 267.5,-187.5 343.5,-187.5 343.5,-168.5 267.5,-168.5"/>
<text text-anchor="middle" x="305.5" y="-175.5" font-family="Helvetica,sans-Serif" font-size="10.00">net/netopt.h</text>
</a>
</g>
</g>
<!-- Node8&#45;&gt;Node13 -->
<g id="edge19" class="edge">
<title>Node8&#45;&gt;Node13</title>
<path fill="none" stroke="midnightblue" d="M320.53,-224.08C318.12,-216.85 314.64,-206.41 311.63,-197.4"/>
<polygon fill="midnightblue" stroke="midnightblue" points="314.9,-196.13 308.42,-187.75 308.26,-198.34 314.9,-196.13"/>
</g>
<!-- Node11 -->
<g id="node11" class="node">
<title>Node11</title>
<g id="a_node11"><a xlink:href="unistd_8h_source.html" target="_top" xlink:title=" ">
<polygon fill="none" stroke="black" points="650.5,-112.5 650.5,-131.5 706.5,-131.5 706.5,-112.5 650.5,-112.5"/>
<text text-anchor="middle" x="678.5" y="-119.5" font-family="Helvetica,sans-Serif" font-size="10.00">unistd.h</text>
</a>
</g>
</g>
<!-- Node10&#45;&gt;Node11 -->
<g id="edge13" class="edge">
<title>Node10&#45;&gt;Node11</title>
<path fill="none" stroke="midnightblue" d="M519.7,-169.6C550.92,-160.44 604.4,-144.75 640.58,-134.13"/>
<polygon fill="midnightblue" stroke="midnightblue" points="641.68,-137.45 650.29,-131.28 639.71,-130.74 641.68,-137.45"/>
</g>
<!-- Node11&#45;&gt;Node2 -->
<g id="edge15" class="edge">
<title>Node11&#45;&gt;Node2</title>
<path fill="none" stroke="midnightblue" d="M662.49,-112.46C637.9,-99.49 589.2,-74.4 546.5,-56 517.92,-43.68 484.74,-31.49 460.36,-22.91"/>
<polygon fill="midnightblue" stroke="midnightblue" points="461.42,-19.57 450.82,-19.57 459.11,-26.18 461.42,-19.57"/>
</g>
<!-- Node11&#45;&gt;Node7 -->
<g id="edge14" class="edge">
<title>Node11&#45;&gt;Node7</title>
<path fill="none" stroke="midnightblue" d="M706.61,-119.04C774.35,-114.01 944.79,-99.34 996.5,-76 1021.33,-64.79 1044.28,-42.9 1058.32,-27.63"/>
<polygon fill="midnightblue" stroke="midnightblue" points="1061.13,-29.74 1065.16,-19.94 1055.9,-25.09 1061.13,-29.74"/>
</g>
<!-- Node12 -->
<g id="node12" class="node">
<title>Node12</title>
<g id="a_node12"><a xlink:href="cpu_2atmega__common_2avr__libc__extra_2include_2sys_2types_8h_source.html" target="_top" xlink:title=" ">
<polygon fill="none" stroke="black" points="915.5,-56.5 915.5,-75.5 987.5,-75.5 987.5,-56.5 915.5,-56.5"/>
<text text-anchor="middle" x="951.5" y="-63.5" font-family="Helvetica,sans-Serif" font-size="10.00">sys/types.h</text>
</a>
</g>
</g>
<!-- Node11&#45;&gt;Node12 -->
<g id="edge16" class="edge">
<title>Node11&#45;&gt;Node12</title>
<path fill="none" stroke="midnightblue" d="M706.69,-115.42C753.63,-106.14 848.26,-87.42 905.14,-76.17"/>
<polygon fill="midnightblue" stroke="midnightblue" points="906.17,-79.54 915.3,-74.16 904.81,-72.67 906.17,-79.54"/>
</g>
<!-- Node12&#45;&gt;Node2 -->
<g id="edge17" class="edge">
<title>Node12&#45;&gt;Node2</title>
<path fill="none" stroke="midnightblue" d="M915.24,-58.1C910.62,-57.34 905.96,-56.61 901.5,-56 738.38,-33.65 542.29,-18.92 462.24,-13.42"/>
<polygon fill="midnightblue" stroke="midnightblue" points="462.38,-9.92 452.17,-12.73 461.91,-16.9 462.38,-9.92"/>
</g>
<!-- Node12&#45;&gt;Node7 -->
<g id="edge18" class="edge">
<title>Node12&#45;&gt;Node7</title>
<path fill="none" stroke="midnightblue" d="M970.67,-56.44C990.41,-47.64 1021.39,-33.81 1043.99,-23.72"/>
<polygon fill="midnightblue" stroke="midnightblue" points="1045.71,-26.79 1053.42,-19.52 1042.86,-20.4 1045.71,-26.79"/>
</g>
<!-- Node14&#45;&gt;Node8 -->
<g id="edge44" class="edge">
<title>Node14&#45;&gt;Node8</title>
<path fill="none" stroke="midnightblue" d="M260.84,-336.37C272.01,-318.3 298.05,-276.18 312.8,-252.31"/>
<polygon fill="midnightblue" stroke="midnightblue" points="315.91,-253.94 318.19,-243.59 309.95,-250.26 315.91,-253.94"/>
</g>
<!-- Node14&#45;&gt;Node13 -->
<g id="edge43" class="edge">
<title>Node14&#45;&gt;Node13</title>
<path fill="none" stroke="midnightblue" d="M255.69,-336.46C256.39,-316.21 259.71,-264.01 275.5,-224 279.46,-213.97 285.9,-203.89 291.8,-195.82"/>
<polygon fill="midnightblue" stroke="midnightblue" points="294.75,-197.73 298.07,-187.67 289.2,-193.46 294.75,-197.73"/>
</g>
<!-- Node15 -->
<g id="node15" class="node">
<title>Node15</title>
<g id="a_node15"><a xlink:href="eui__provider_8h.html" target="_top" xlink:title="EUI&#45;48 and EUI&#45;64 address provider.">
<polygon fill="none" stroke="black" points="123,-280.5 123,-299.5 228,-299.5 228,-280.5 123,-280.5"/>
<text text-anchor="middle" x="175.5" y="-287.5" font-family="Helvetica,sans-Serif" font-size="10.00">net/eui_provider.h</text>
</a>
</g>
</g>
<!-- Node14&#45;&gt;Node15 -->
<g id="edge22" class="edge">
<title>Node14&#45;&gt;Node15</title>
<path fill="none" stroke="midnightblue" d="M242.65,-336.32C230.28,-327.98 211.37,-315.21 196.76,-305.35"/>
<polygon fill="midnightblue" stroke="midnightblue" points="198.57,-302.35 188.32,-299.65 194.65,-308.15 198.57,-302.35"/>
</g>
<!-- Node20 -->
<g id="node20" class="node">
<title>Node20</title>
<g id="a_node20"><a xlink:href="sys_2include_2net_2ieee802154_8h.html" target="_top" xlink:title="IEEE 802.15.4 header definitions.">
<polygon fill="none" stroke="black" points="0,-224.5 0,-243.5 101,-243.5 101,-224.5 0,-224.5"/>
<text text-anchor="middle" x="50.5" y="-231.5" font-family="Helvetica,sans-Serif" font-size="10.00">net/ieee802154.h</text>
</a>
</g>
</g>
<!-- Node14&#45;&gt;Node20 -->
<g id="edge33" class="edge">
<title>Node14&#45;&gt;Node20</title>
<path fill="none" stroke="midnightblue" d="M209.24,-336.43C180.22,-329.62 142.86,-318.16 113.5,-300 93.13,-287.4 74.69,-266.77 63.1,-252.14"/>
<polygon fill="midnightblue" stroke="midnightblue" points="65.67,-249.73 56.81,-243.92 60.11,-253.99 65.67,-249.73"/>
</g>
<!-- Node14&#45;&gt;Node22 -->
<g id="edge38" class="edge">
<title>Node14&#45;&gt;Node22</title>
<path fill="none" stroke="midnightblue" d="M300.34,-336.44C350.12,-326.94 430.48,-311.61 483.89,-301.42"/>
<polygon fill="midnightblue" stroke="midnightblue" points="484.7,-304.83 493.87,-299.52 483.39,-297.95 484.7,-304.83"/>
</g>
<!-- Node15&#45;&gt;Node8 -->
<g id="edge32" class="edge">
<title>Node15&#45;&gt;Node8</title>
<path fill="none" stroke="midnightblue" d="M198.95,-280.44C223.63,-271.44 262.69,-257.19 290.48,-247.05"/>
<polygon fill="midnightblue" stroke="midnightblue" points="291.96,-250.23 300.16,-243.52 289.56,-243.66 291.96,-250.23"/>
</g>
<!-- Node16 -->
<g id="node16" class="node">
<title>Node16</title>
<g id="a_node16"><a xlink:href="eui48_8h.html" target="_top" xlink:title="Definition and IPv6 IID conversion for IEEE EUI&#45;48 identifiers.">
<polygon fill="none" stroke="black" points="119,-224.5 119,-243.5 190,-243.5 190,-224.5 119,-224.5"/>
<text text-anchor="middle" x="154.5" y="-231.5" font-family="Helvetica,sans-Serif" font-size="10.00">net/eui48.h</text>
</a>
</g>
</g>
<!-- Node15&#45;&gt;Node16 -->
<g id="edge23" class="edge">
<title>Node15&#45;&gt;Node16</title>
<path fill="none" stroke="midnightblue" d="M172.03,-280.08C169.19,-272.77 165.07,-262.18 161.54,-253.1"/>
<polygon fill="midnightblue" stroke="midnightblue" points="164.79,-251.8 157.9,-243.75 158.27,-254.34 164.79,-251.8"/>
</g>
<!-- Node17 -->
<g id="node17" class="node">
<title>Node17</title>
<g id="a_node17"><a xlink:href="eui64_8h.html" target="_top" xlink:title="EUI&#45;64 data type definition.">
<polygon fill="none" stroke="black" points="178,-168.5 178,-187.5 249,-187.5 249,-168.5 178,-168.5"/>
<text text-anchor="middle" x="213.5" y="-175.5" font-family="Helvetica,sans-Serif" font-size="10.00">net/eui64.h</text>
</a>
</g>
</g>
<!-- Node15&#45;&gt;Node17 -->
<g id="edge31" class="edge">
<title>Node15&#45;&gt;Node17</title>
<path fill="none" stroke="midnightblue" d="M180.75,-280.33C185.91,-271.47 193.69,-257.19 198.5,-244 204.02,-228.85 207.98,-210.96 210.43,-197.78"/>
<polygon fill="midnightblue" stroke="midnightblue" points="213.94,-198.06 212.21,-187.61 207.04,-196.86 213.94,-198.06"/>
</g>
<!-- Node16&#45;&gt;Node2 -->
<g id="edge24" class="edge">
<title>Node16&#45;&gt;Node2</title>
<path fill="none" stroke="midnightblue" d="M153.36,-224.41C151.01,-204.05 147.06,-151.63 162.5,-112 174.09,-82.25 180.26,-72.65 207.5,-56 264.24,-21.31 343.21,-12.92 388.88,-11.15"/>
<polygon fill="midnightblue" stroke="midnightblue" points="389.03,-14.65 398.92,-10.85 388.82,-7.65 389.03,-14.65"/>
</g>
<!-- Node16&#45;&gt;Node17 -->
<g id="edge25" class="edge">
<title>Node16&#45;&gt;Node17</title>
<path fill="none" stroke="midnightblue" d="M163.98,-224.32C172.7,-216.34 185.84,-204.31 196.4,-194.65"/>
<polygon fill="midnightblue" stroke="midnightblue" points="198.83,-197.17 203.85,-187.83 194.11,-192 198.83,-197.17"/>
</g>
<!-- Node17&#45;&gt;Node2 -->
<g id="edge26" class="edge">
<title>Node17&#45;&gt;Node2</title>
<path fill="none" stroke="midnightblue" d="M222.97,-168.39C245.55,-147.99 304.66,-95.48 357.5,-56 372.24,-44.98 389.55,-33.55 403.01,-24.97"/>
<polygon fill="midnightblue" stroke="midnightblue" points="405.05,-27.82 411.64,-19.52 401.32,-21.9 405.05,-27.82"/>
</g>
<!-- Node18 -->
<g id="node18" class="node">
<title>Node18</title>
<g id="a_node18"><a xlink:href="byteorder_8h.html" target="_top" xlink:title="Functions to work with different byte orders.">
<polygon fill="none" stroke="black" points="172,-112.5 172,-131.5 245,-131.5 245,-112.5 172,-112.5"/>
<text text-anchor="middle" x="208.5" y="-119.5" font-family="Helvetica,sans-Serif" font-size="10.00">byteorder.h</text>
</a>
</g>
</g>
<!-- Node17&#45;&gt;Node18 -->
<g id="edge27" class="edge">
<title>Node17&#45;&gt;Node18</title>
<path fill="none" stroke="midnightblue" d="M212.67,-168.08C212.02,-161.01 211.08,-150.86 210.26,-141.99"/>
<polygon fill="midnightblue" stroke="midnightblue" points="213.72,-141.39 209.31,-131.75 206.75,-142.03 213.72,-141.39"/>
</g>
<!-- Node18&#45;&gt;Node2 -->
<g id="edge28" class="edge">
<title>Node18&#45;&gt;Node2</title>
<path fill="none" stroke="midnightblue" d="M207.67,-112.49C206.83,-98.64 207.36,-71.23 222.5,-56 245.42,-32.95 336.55,-20.06 388.59,-14.44"/>
<polygon fill="midnightblue" stroke="midnightblue" points="389.16,-17.9 398.75,-13.38 388.44,-10.94 389.16,-17.9"/>
</g>
<!-- Node19 -->
<g id="node19" class="node">
<title>Node19</title>
<g id="a_node19"><a xlink:href="unaligned_8h.html" target="_top" xlink:title="Unaligned but safe memory access functions.">
<polygon fill="none" stroke="black" points="231.5,-56.5 231.5,-75.5 305.5,-75.5 305.5,-56.5 231.5,-56.5"/>
<text text-anchor="middle" x="268.5" y="-63.5" font-family="Helvetica,sans-Serif" font-size="10.00">unaligned.h</text>
</a>
</g>
</g>
<!-- Node18&#45;&gt;Node19 -->
<g id="edge29" class="edge">
<title>Node18&#45;&gt;Node19</title>
<path fill="none" stroke="midnightblue" d="M218.14,-112.32C227.01,-104.34 240.37,-92.31 251.11,-82.65"/>
<polygon fill="midnightblue" stroke="midnightblue" points="253.59,-85.13 258.68,-75.83 248.91,-79.92 253.59,-85.13"/>
</g>
<!-- Node19&#45;&gt;Node2 -->
<g id="edge30" class="edge">
<title>Node19&#45;&gt;Node2</title>
<path fill="none" stroke="midnightblue" d="M293.38,-56.44C319.79,-47.36 361.72,-32.94 391.24,-22.78"/>
<polygon fill="midnightblue" stroke="midnightblue" points="392.42,-26.08 400.74,-19.52 390.14,-19.46 392.42,-26.08"/>
</g>
<!-- Node20&#45;&gt;Node2 -->
<g id="edge34" class="edge">
<title>Node20&#45;&gt;Node2</title>
<path fill="none" stroke="midnightblue" d="M41.42,-224.47C29.23,-211.93 10.23,-187.87 20.5,-168 60.02,-91.54 99.17,-89.39 178.5,-56 249.05,-26.3 339.04,-16.17 388.6,-12.74"/>
<polygon fill="midnightblue" stroke="midnightblue" points="389.08,-16.22 398.83,-12.09 388.63,-9.23 389.08,-16.22"/>
</g>
<!-- Node20&#45;&gt;Node17 -->
<g id="edge37" class="edge">
<title>Node20&#45;&gt;Node17</title>
<path fill="none" stroke="midnightblue" d="M76.33,-224.44C103.75,-215.36 147.28,-200.94 177.93,-190.78"/>
<polygon fill="midnightblue" stroke="midnightblue" points="179.4,-193.98 187.79,-187.52 177.2,-187.34 179.4,-193.98"/>
</g>
<!-- Node20&#45;&gt;Node18 -->
<g id="edge36" class="edge">
<title>Node20&#45;&gt;Node18</title>
<path fill="none" stroke="midnightblue" d="M62.9,-224.37C89.9,-205.57 154.25,-160.77 187.62,-137.53"/>
<polygon fill="midnightblue" stroke="midnightblue" points="189.95,-140.18 196.16,-131.59 185.95,-134.43 189.95,-140.18"/>
</g>
<!-- Node21 -->
<g id="node21" class="node">
<title>Node21</title>
<g id="a_node21"><a xlink:title=" ">
<polygon fill="none" stroke="#bfbfbf" points="30,-168.5 30,-187.5 83,-187.5 83,-168.5 30,-168.5"/>
<text text-anchor="middle" x="56.5" y="-175.5" font-family="Helvetica,sans-Serif" font-size="10.00">stdlib.h</text>
</a>
</g>
</g>
<!-- Node20&#45;&gt;Node21 -->
<g id="edge35" class="edge">
<title>Node20&#45;&gt;Node21</title>
<path fill="none" stroke="midnightblue" d="M51.49,-224.08C52.29,-216.93 53.43,-206.64 54.42,-197.69"/>
<polygon fill="midnightblue" stroke="midnightblue" points="57.9,-198.08 55.53,-187.75 50.94,-197.3 57.9,-198.08"/>
</g>
<!-- Node22&#45;&gt;Node6 -->
<g id="edge40" class="edge">
<title>Node22&#45;&gt;Node6</title>
<path fill="none" stroke="midnightblue" d="M506.53,-280.5C473.23,-270.01 428.37,-250.3 447.5,-224 457.82,-209.81 497.58,-197.82 531.95,-189.79"/>
<polygon fill="midnightblue" stroke="midnightblue" points="532.95,-193.15 541.93,-187.53 531.41,-186.32 532.95,-193.15"/>
</g>
<!-- Node23 -->
<g id="node23" class="node">
<title>Node23</title>
<g id="a_node23"><a xlink:href="inttypes_8h.html" target="_top" xlink:title="Adds include for missing inttype definitions.">
<polygon fill="none" stroke="black" points="457,-224.5 457,-243.5 522,-243.5 522,-224.5 457,-224.5"/>
<text text-anchor="middle" x="489.5" y="-231.5" font-family="Helvetica,sans-Serif" font-size="10.00">inttypes.h</text>
</a>
</g>
</g>
<!-- Node22&#45;&gt;Node23 -->
<g id="edge39" class="edge">
<title>Node22&#45;&gt;Node23</title>
<path fill="none" stroke="midnightblue" d="M530.41,-280.08C523.34,-272.3 512.91,-260.8 504.35,-251.37"/>
<polygon fill="midnightblue" stroke="midnightblue" points="506.75,-248.8 497.44,-243.75 501.57,-253.51 506.75,-248.8"/>
</g>
<!-- Node24 -->
<g id="node24" class="node">
<title>Node24</title>
<g id="a_node24"><a xlink:href="ethertype_8h.html" target="_top" xlink:title="Ether type definitions.">
<polygon fill="none" stroke="black" points="540.5,-224.5 540.5,-243.5 632.5,-243.5 632.5,-224.5 540.5,-224.5"/>
<text text-anchor="middle" x="586.5" y="-231.5" font-family="Helvetica,sans-Serif" font-size="10.00">net/ethertype.h</text>
</a>
</g>
</g>
<!-- Node22&#45;&gt;Node24 -->
<g id="edge41" class="edge">
<title>Node22&#45;&gt;Node24</title>
<path fill="none" stroke="midnightblue" d="M546.43,-280.08C553.35,-272.3 563.57,-260.8 571.95,-251.37"/>
<polygon fill="midnightblue" stroke="midnightblue" points="574.69,-253.55 578.72,-243.75 569.46,-248.9 574.69,-253.55"/>
</g>
<!-- Node25 -->
<g id="node25" class="node">
<title>Node25</title>
<g id="a_node25"><a xlink:href="protnum_8h.html" target="_top" xlink:title="Protocol number definitions.">
<polygon fill="none" stroke="black" points="650.5,-224.5 650.5,-243.5 736.5,-243.5 736.5,-224.5 650.5,-224.5"/>
<text text-anchor="middle" x="693.5" y="-231.5" font-family="Helvetica,sans-Serif" font-size="10.00">net/protnum.h</text>
</a>
</g>
</g>
<!-- Node22&#45;&gt;Node25 -->
<g id="edge42" class="edge">
<title>Node22&#45;&gt;Node25</title>
<path fill="none" stroke="midnightblue" d="M563.06,-280.44C589.02,-271.4 630.17,-257.06 659.3,-246.92"/>
<polygon fill="midnightblue" stroke="midnightblue" points="660.76,-250.11 669.05,-243.52 658.46,-243.5 660.76,-250.11"/>
</g>
<!-- Node26&#45;&gt;Node2 -->
<g id="edge49" class="edge">
<title>Node26&#45;&gt;Node2</title>
<path fill="none" stroke="midnightblue" d="M807.55,-336.48C793.81,-318.75 764.5,-276.12 764.5,-235 764.5,-235 764.5,-235 764.5,-121 764.5,-57.97 549.82,-25.6 462.14,-15"/>
<polygon fill="midnightblue" stroke="midnightblue" points="462.44,-11.51 452.1,-13.82 461.62,-18.47 462.44,-11.51"/>
</g>
<!-- Node26&#45;&gt;Node4 -->
<g id="edge47" class="edge">
<title>Node26&#45;&gt;Node4</title>
<path fill="none" stroke="midnightblue" d="M796.99,-336.32C779.43,-327.62 752.17,-314.12 731.97,-304.11"/>
<polygon fill="midnightblue" stroke="midnightblue" points="733.48,-300.96 722.97,-299.65 730.38,-307.23 733.48,-300.96"/>
</g>
<!-- Node26&#45;&gt;Node7 -->
<g id="edge48" class="edge">
<title>Node26&#45;&gt;Node7</title>
<path fill="none" stroke="midnightblue" d="M851.52,-340.78C938.48,-329.83 1148.5,-296.97 1148.5,-235 1148.5,-235 1148.5,-235 1148.5,-121 1148.5,-81.28 1114.54,-45.5 1092.02,-26.15"/>
<polygon fill="midnightblue" stroke="midnightblue" points="1093.98,-23.24 1084.04,-19.57 1089.52,-28.63 1093.98,-23.24"/>
</g>
<!-- Node27 -->
<g id="node27" class="node">
<title>Node27</title>
<g id="a_node27"><a xlink:title=" ">
<polygon fill="none" stroke="#bfbfbf" points="991,-224.5 991,-243.5 1044,-243.5 1044,-224.5 991,-224.5"/>
<text text-anchor="middle" x="1017.5" y="-231.5" font-family="Helvetica,sans-Serif" font-size="10.00">limits.h</text>
</a>
</g>
</g>
<!-- Node26&#45;&gt;Node27 -->
<g id="edge50" class="edge">
<title>Node26&#45;&gt;Node27</title>
<path fill="none" stroke="midnightblue" d="M851.53,-341.06C884.88,-336.02 933.98,-324.75 969.5,-300 986.89,-287.88 1000.48,-267.42 1008.69,-252.69"/>
<polygon fill="midnightblue" stroke="midnightblue" points="1011.93,-254.05 1013.5,-243.58 1005.74,-250.79 1011.93,-254.05"/>
</g>
<!-- Node28 -->
<g id="node28" class="node">
<title>Node28</title>
<g id="a_node28"><a xlink:title=" ">
<polygon fill="none" stroke="#bfbfbf" points="793,-224.5 793,-243.5 872,-243.5 872,-224.5 793,-224.5"/>
<text text-anchor="middle" x="832.5" y="-231.5" font-family="Helvetica,sans-Serif" font-size="10.00">periph_cpu.h</text>
</a>
</g>
</g>
<!-- Node26&#45;&gt;Node28 -->
<g id="edge51" class="edge">
<title>Node26&#45;&gt;Node28</title>
<path fill="none" stroke="midnightblue" d="M815.91,-336.37C818.82,-318.62 825.52,-277.67 829.46,-253.6"/>
<polygon fill="midnightblue" stroke="midnightblue" points="832.93,-254.03 831.09,-243.59 826.03,-252.89 832.93,-254.03"/>
</g>
<!-- Node29 -->
<g id="node29" class="node">
<title>Node29</title>
<g id="a_node29"><a xlink:title=" ">
<polygon fill="none" stroke="#bfbfbf" points="890.5,-224.5 890.5,-243.5 972.5,-243.5 972.5,-224.5 890.5,-224.5"/>
<text text-anchor="middle" x="931.5" y="-231.5" font-family="Helvetica,sans-Serif" font-size="10.00">periph_conf.h</text>
</a>
</g>
</g>
<!-- Node26&#45;&gt;Node29 -->
<g id="edge52" class="edge">
<title>Node26&#45;&gt;Node29</title>
<path fill="none" stroke="midnightblue" d="M821.01,-336.5C831.11,-323.59 851.46,-298.56 871.5,-280 883.53,-268.86 898.24,-257.79 910.08,-249.42"/>
<polygon fill="midnightblue" stroke="midnightblue" points="912.27,-252.16 918.49,-243.59 908.28,-246.41 912.27,-252.16"/>
</g>
<!-- Node26&#45;&gt;Node30 -->
<g id="edge53" class="edge">
<title>Node26&#45;&gt;Node30</title>
<path fill="none" stroke="midnightblue" d="M831.53,-336.32C848.53,-327.66 874.88,-314.24 894.49,-304.25"/>
<polygon fill="midnightblue" stroke="midnightblue" points="896.19,-307.31 903.51,-299.65 893.01,-301.08 896.19,-307.31"/>
</g>
<!-- Node30&#45;&gt;Node27 -->
<g id="edge54" class="edge">
<title>Node30&#45;&gt;Node27</title>
<path fill="none" stroke="midnightblue" d="M936.08,-280.32C951.5,-271.74 975.31,-258.49 993.21,-248.52"/>
<polygon fill="midnightblue" stroke="midnightblue" points="994.92,-251.58 1001.95,-243.65 991.51,-245.46 994.92,-251.58"/>
</g>
<!-- Node30&#45;&gt;Node28 -->
<g id="edge55" class="edge">
<title>Node30&#45;&gt;Node28</title>
<path fill="none" stroke="midnightblue" d="M906.36,-280.32C892.63,-271.9 871.56,-258.97 855.44,-249.07"/>
<polygon fill="midnightblue" stroke="midnightblue" points="856.96,-245.9 846.6,-243.65 853.3,-251.87 856.96,-245.9"/>
</g>
<!-- Node30&#45;&gt;Node29 -->
<g id="edge56" class="edge">
<title>Node30&#45;&gt;Node29</title>
<path fill="none" stroke="midnightblue" d="M922.32,-280.08C923.77,-272.93 925.87,-262.64 927.69,-253.69"/>
<polygon fill="midnightblue" stroke="midnightblue" points="931.15,-254.25 929.72,-243.75 924.29,-252.85 931.15,-254.25"/>
</g>
</g>
</svg>
