<?xml version="1.0" encoding="UTF-8" standalone="no"?>
<!DOCTYPE svg PUBLIC "-//W3C//DTD SVG 1.1//EN"
 "http://www.w3.org/Graphics/SVG/1.1/DTD/svg11.dtd">
<!-- Generated by graphviz version 2.43.0 (0)
 -->
<!-- Title: drivers/include/ata8520e.h Pages: 1 -->
<svg width="1340pt" height="532pt"
 viewBox="0.00 0.00 1340.00 532.00" xmlns="http://www.w3.org/2000/svg" xmlns:xlink="http://www.w3.org/1999/xlink">
<g id="graph0" class="graph" transform="scale(1 1) rotate(0) translate(4 528)">
<title>drivers/include/ata8520e.h</title>
<!-- Node1 -->
<g id="node1" class="node">
<title>Node1</title>
<g id="a_node1"><a xlink:title="Device driver for Microchip ATA8520E transceiver (Sigfox)">
<polygon fill="#bfbfbf" stroke="black" points="355,-504.5 355,-523.5 501,-523.5 501,-504.5 355,-504.5"/>
<text text-anchor="middle" x="428" y="-511.5" font-family="Helvetica,sans-Serif" font-size="10.00">drivers/include/ata8520e.h</text>
</a>
</g>
</g>
<!-- Node2 -->
<g id="node2" class="node">
<title>Node2</title>
<g id="a_node2"><a xlink:title=" ">
<polygon fill="none" stroke="#bfbfbf" points="336.5,-0.5 336.5,-19.5 389.5,-19.5 389.5,-0.5 336.5,-0.5"/>
<text text-anchor="middle" x="363" y="-7.5" font-family="Helvetica,sans-Serif" font-size="10.00">stdint.h</text>
</a>
</g>
</g>
<!-- Node1&#45;&gt;Node2 -->
<g id="edge1" class="edge">
<title>Node1&#45;&gt;Node2</title>
<path fill="none" stroke="midnightblue" d="M354.98,-508.68C266.6,-502.58 123.57,-489.72 75,-468 34.73,-450 0,-447.11 0,-403 0,-403 0,-403 0,-121 0,-53.31 234.09,-23.4 326.3,-14.24"/>
<polygon fill="midnightblue" stroke="midnightblue" points="326.69,-17.72 336.31,-13.28 326.02,-10.75 326.69,-17.72"/>
</g>
<!-- Node3 -->
<g id="node3" class="node">
<title>Node3</title>
<g id="a_node3"><a xlink:href="inttypes_8h.html" target="_top" xlink:title="Adds include for missing inttype definitions.">
<polygon fill="none" stroke="black" points="142.5,-112.5 142.5,-131.5 207.5,-131.5 207.5,-112.5 142.5,-112.5"/>
<text text-anchor="middle" x="175" y="-119.5" font-family="Helvetica,sans-Serif" font-size="10.00">inttypes.h</text>
</a>
</g>
</g>
<!-- Node1&#45;&gt;Node3 -->
<g id="edge2" class="edge">
<title>Node1&#45;&gt;Node3</title>
<path fill="none" stroke="midnightblue" d="M354.64,-507.33C241.67,-496.54 38,-468.07 38,-403 38,-403 38,-403 38,-233 38,-182 96.45,-150.69 136.99,-135.11"/>
<polygon fill="midnightblue" stroke="midnightblue" points="138.43,-138.31 146.61,-131.58 136.02,-131.74 138.43,-138.31"/>
</g>
<!-- Node4 -->
<g id="node4" class="node">
<title>Node4</title>
<g id="a_node4"><a xlink:href="xtimer_8h.html" target="_top" xlink:title="xtimer interface definitions">
<polygon fill="none" stroke="black" points="399,-448.5 399,-467.5 457,-467.5 457,-448.5 399,-448.5"/>
<text text-anchor="middle" x="428" y="-455.5" font-family="Helvetica,sans-Serif" font-size="10.00">xtimer.h</text>
</a>
</g>
</g>
<!-- Node1&#45;&gt;Node4 -->
<g id="edge3" class="edge">
<title>Node1&#45;&gt;Node4</title>
<path fill="none" stroke="midnightblue" d="M428,-504.08C428,-497.01 428,-486.86 428,-477.99"/>
<polygon fill="midnightblue" stroke="midnightblue" points="431.5,-477.75 428,-467.75 424.5,-477.75 431.5,-477.75"/>
</g>
<!-- Node31 -->
<g id="node31" class="node">
<title>Node31</title>
<g id="a_node31"><a xlink:href="gpio_8h.html" target="_top" xlink:title="Low&#45;level GPIO peripheral driver interface definitions.">
<polygon fill="none" stroke="black" points="1186,-280.5 1186,-299.5 1266,-299.5 1266,-280.5 1186,-280.5"/>
<text text-anchor="middle" x="1226" y="-287.5" font-family="Helvetica,sans-Serif" font-size="10.00">periph/gpio.h</text>
</a>
</g>
</g>
<!-- Node1&#45;&gt;Node31 -->
<g id="edge57" class="edge">
<title>Node1&#45;&gt;Node31</title>
<path fill="none" stroke="midnightblue" d="M501.3,-509.7C586.21,-504.84 729.94,-493.43 851,-468 931.33,-451.13 950.59,-441.99 1027,-412 1081.41,-390.65 1096.51,-387.1 1146,-356 1169.27,-341.38 1193.41,-320.91 1209,-306.87"/>
<polygon fill="midnightblue" stroke="midnightblue" points="1211.7,-309.14 1216.72,-299.81 1206.98,-303.97 1211.7,-309.14"/>
</g>
<!-- Node32 -->
<g id="node32" class="node">
<title>Node32</title>
<g id="a_node32"><a xlink:href="spi_8h.html" target="_top" xlink:title="Low&#45;level SPI peripheral driver interface definition.">
<polygon fill="none" stroke="black" points="1063,-336.5 1063,-355.5 1137,-355.5 1137,-336.5 1063,-336.5"/>
<text text-anchor="middle" x="1100" y="-343.5" font-family="Helvetica,sans-Serif" font-size="10.00">periph/spi.h</text>
</a>
</g>
</g>
<!-- Node1&#45;&gt;Node32 -->
<g id="edge61" class="edge">
<title>Node1&#45;&gt;Node32</title>
<path fill="none" stroke="midnightblue" d="M501.01,-508.42C610.72,-499.67 823.23,-475.43 992,-412 1025.19,-399.53 1059.63,-376.81 1080.44,-361.8"/>
<polygon fill="midnightblue" stroke="midnightblue" points="1082.75,-364.45 1088.74,-355.71 1078.61,-358.81 1082.75,-364.45"/>
</g>
<!-- Node4&#45;&gt;Node2 -->
<g id="edge5" class="edge">
<title>Node4&#45;&gt;Node2</title>
<path fill="none" stroke="midnightblue" d="M398.91,-456.01C330.23,-453.19 160.33,-443.16 114,-412 86.23,-393.33 76,-380.46 76,-347 76,-347 76,-347 76,-121 76,-73.79 117.26,-76.04 160,-56 214.54,-30.43 284.22,-19.08 326.14,-14.27"/>
<polygon fill="midnightblue" stroke="midnightblue" points="326.61,-17.74 336.17,-13.18 325.85,-10.78 326.61,-17.74"/>
</g>
<!-- Node5 -->
<g id="node5" class="node">
<title>Node5</title>
<g id="a_node5"><a xlink:title=" ">
<polygon fill="none" stroke="#bfbfbf" points="833,-168.5 833,-187.5 895,-187.5 895,-168.5 833,-168.5"/>
<text text-anchor="middle" x="864" y="-175.5" font-family="Helvetica,sans-Serif" font-size="10.00">stdbool.h</text>
</a>
</g>
</g>
<!-- Node4&#45;&gt;Node5 -->
<g id="edge4" class="edge">
<title>Node4&#45;&gt;Node5</title>
<path fill="none" stroke="midnightblue" d="M457.04,-450.09C543.01,-429.06 793.42,-363.37 845,-300 868.86,-270.69 868.75,-223.77 866.45,-197.81"/>
<polygon fill="midnightblue" stroke="midnightblue" points="869.92,-197.35 865.36,-187.78 862.96,-198.11 869.92,-197.35"/>
</g>
<!-- Node6 -->
<g id="node6" class="node">
<title>Node6</title>
<g id="a_node6"><a xlink:href="timex_8h.html" target="_top" xlink:title="Utility library for comparing and computing timestamps.">
<polygon fill="none" stroke="black" points="104,-168.5 104,-187.5 158,-187.5 158,-168.5 104,-168.5"/>
<text text-anchor="middle" x="131" y="-175.5" font-family="Helvetica,sans-Serif" font-size="10.00">timex.h</text>
</a>
</g>
</g>
<!-- Node4&#45;&gt;Node6 -->
<g id="edge6" class="edge">
<title>Node4&#45;&gt;Node6</title>
<path fill="none" stroke="midnightblue" d="M398.92,-456.42C332.49,-454.52 172.28,-446.37 133,-412 110.35,-392.18 114,-377.1 114,-347 114,-347 114,-347 114,-289 114,-256.58 121.3,-219.42 126.33,-197.64"/>
<polygon fill="midnightblue" stroke="midnightblue" points="129.77,-198.31 128.71,-187.77 122.97,-196.67 129.77,-198.31"/>
</g>
<!-- Node7 -->
<g id="node7" class="node">
<title>Node7</title>
<g id="a_node7"><a xlink:href="mutex_8h.html" target="_top" xlink:title="Mutex for thread synchronization.">
<polygon fill="none" stroke="black" points="515.5,-336.5 515.5,-355.5 572.5,-355.5 572.5,-336.5 515.5,-336.5"/>
<text text-anchor="middle" x="544" y="-343.5" font-family="Helvetica,sans-Serif" font-size="10.00">mutex.h</text>
</a>
</g>
</g>
<!-- Node4&#45;&gt;Node7 -->
<g id="edge9" class="edge">
<title>Node4&#45;&gt;Node7</title>
<path fill="none" stroke="midnightblue" d="M437.1,-448.37C456.58,-429.89 502.56,-386.29 527.4,-362.74"/>
<polygon fill="midnightblue" stroke="midnightblue" points="530.09,-365.01 534.94,-355.59 525.28,-359.93 530.09,-365.01"/>
</g>
<!-- Node19 -->
<g id="node19" class="node">
<title>Node19</title>
<g id="a_node19"><a xlink:href="sched_8h.html" target="_top" xlink:title="Scheduler API definition.">
<polygon fill="none" stroke="black" points="440,-168.5 440,-187.5 494,-187.5 494,-168.5 440,-168.5"/>
<text text-anchor="middle" x="467" y="-175.5" font-family="Helvetica,sans-Serif" font-size="10.00">sched.h</text>
</a>
</g>
</g>
<!-- Node4&#45;&gt;Node19 -->
<g id="edge38" class="edge">
<title>Node4&#45;&gt;Node19</title>
<path fill="none" stroke="midnightblue" d="M430.16,-448.42C432.37,-439.4 435.79,-424.78 438,-412 451.72,-332.67 461.53,-237.06 465.3,-197.51"/>
<polygon fill="midnightblue" stroke="midnightblue" points="468.79,-197.79 466.24,-187.51 461.82,-197.14 468.79,-197.79"/>
</g>
<!-- Node21 -->
<g id="node21" class="node">
<title>Node21</title>
<g id="a_node21"><a xlink:href="rmutex_8h.html" target="_top" xlink:title="Recursive Mutex for thread synchronization.">
<polygon fill="none" stroke="black" points="368.5,-392.5 368.5,-411.5 429.5,-411.5 429.5,-392.5 368.5,-392.5"/>
<text text-anchor="middle" x="399" y="-399.5" font-family="Helvetica,sans-Serif" font-size="10.00">rmutex.h</text>
</a>
</g>
</g>
<!-- Node4&#45;&gt;Node21 -->
<g id="edge39" class="edge">
<title>Node4&#45;&gt;Node21</title>
<path fill="none" stroke="midnightblue" d="M423.21,-448.08C419.24,-440.69 413.47,-429.95 408.57,-420.81"/>
<polygon fill="midnightblue" stroke="midnightblue" points="411.51,-418.91 403.7,-411.75 405.35,-422.22 411.51,-418.91"/>
</g>
<!-- Node23 -->
<g id="node23" class="node">
<title>Node23</title>
<g id="a_node23"><a xlink:title=" ">
<polygon fill="none" stroke="#bfbfbf" points="297.5,-392.5 297.5,-411.5 350.5,-411.5 350.5,-392.5 297.5,-392.5"/>
<text text-anchor="middle" x="324" y="-399.5" font-family="Helvetica,sans-Serif" font-size="10.00">board.h</text>
</a>
</g>
</g>
<!-- Node4&#45;&gt;Node23 -->
<g id="edge44" class="edge">
<title>Node4&#45;&gt;Node23</title>
<path fill="none" stroke="midnightblue" d="M411.29,-448.32C394.69,-439.7 369,-426.36 349.78,-416.39"/>
<polygon fill="midnightblue" stroke="midnightblue" points="351.16,-413.16 340.67,-411.65 347.93,-419.37 351.16,-413.16"/>
</g>
<!-- Node24 -->
<g id="node24" class="node">
<title>Node24</title>
<g id="a_node24"><a xlink:title=" ">
<polygon fill="none" stroke="#bfbfbf" points="968,-224.5 968,-243.5 1050,-243.5 1050,-224.5 968,-224.5"/>
<text text-anchor="middle" x="1009" y="-231.5" font-family="Helvetica,sans-Serif" font-size="10.00">periph_conf.h</text>
</a>
</g>
</g>
<!-- Node4&#45;&gt;Node24 -->
<g id="edge45" class="edge">
<title>Node4&#45;&gt;Node24</title>
<path fill="none" stroke="midnightblue" d="M457.07,-456.6C523.66,-455.07 691.86,-447.68 827,-412 888.22,-395.84 913.34,-400.89 958,-356 986.71,-327.14 1000.18,-279.67 1005.71,-253.59"/>
<polygon fill="midnightblue" stroke="midnightblue" points="1009.19,-254.03 1007.66,-243.55 1002.31,-252.7 1009.19,-254.03"/>
</g>
<!-- Node25 -->
<g id="node25" class="node">
<title>Node25</title>
<g id="a_node25"><a xlink:href="tick__conversion_8h.html" target="_top" xlink:title="xtimer tick &lt;&#45;&gt; seconds conversions for different values of XTIMER_HZ">
<polygon fill="none" stroke="black" points="142.5,-392.5 142.5,-411.5 279.5,-411.5 279.5,-392.5 142.5,-392.5"/>
<text text-anchor="middle" x="211" y="-399.5" font-family="Helvetica,sans-Serif" font-size="10.00">xtimer/tick_conversion.h</text>
</a>
</g>
</g>
<!-- Node4&#45;&gt;Node25 -->
<g id="edge46" class="edge">
<title>Node4&#45;&gt;Node25</title>
<path fill="none" stroke="midnightblue" d="M398.73,-449.72C361.89,-440.55 298.25,-424.71 255.4,-414.05"/>
<polygon fill="midnightblue" stroke="midnightblue" points="256.07,-410.61 245.52,-411.59 254.38,-417.4 256.07,-410.61"/>
</g>
<!-- Node27 -->
<g id="node27" class="node">
<title>Node27</title>
<g id="a_node27"><a xlink:href="implementation_8h.html" target="_top" xlink:title="xtimer implementation">
<polygon fill="none" stroke="black" points="810.5,-336.5 810.5,-355.5 949.5,-355.5 949.5,-336.5 810.5,-336.5"/>
<text text-anchor="middle" x="880" y="-343.5" font-family="Helvetica,sans-Serif" font-size="10.00">xtimer/implementation.h</text>
</a>
</g>
</g>
<!-- Node4&#45;&gt;Node27 -->
<g id="edge50" class="edge">
<title>Node4&#45;&gt;Node27</title>
<path fill="none" stroke="midnightblue" d="M457.06,-455.44C532.78,-451.05 734.54,-437.27 796,-412 823.3,-400.77 849.31,-378.17 864.96,-362.81"/>
<polygon fill="midnightblue" stroke="midnightblue" points="867.61,-365.1 872.15,-355.53 862.63,-360.18 867.61,-365.1"/>
</g>
<!-- Node6&#45;&gt;Node2 -->
<g id="edge7" class="edge">
<title>Node6&#45;&gt;Node2</title>
<path fill="none" stroke="midnightblue" d="M128.85,-168.32C126.09,-155.16 122.79,-129.83 133,-112 172.41,-43.17 271.91,-21.16 326.23,-14.19"/>
<polygon fill="midnightblue" stroke="midnightblue" points="326.94,-17.63 336.46,-12.98 326.12,-10.68 326.94,-17.63"/>
</g>
<!-- Node6&#45;&gt;Node3 -->
<g id="edge8" class="edge">
<title>Node6&#45;&gt;Node3</title>
<path fill="none" stroke="midnightblue" d="M138.27,-168.08C144.54,-160.38 153.79,-149.03 161.43,-139.65"/>
<polygon fill="midnightblue" stroke="midnightblue" points="164.27,-141.71 167.87,-131.75 158.84,-137.29 164.27,-141.71"/>
</g>
<!-- Node7&#45;&gt;Node2 -->
<g id="edge11" class="edge">
<title>Node7&#45;&gt;Node2</title>
<path fill="none" stroke="midnightblue" d="M545.37,-336.39C548.84,-315.99 559.15,-263.46 579,-224 605.37,-171.56 686.49,-157.17 649,-112 593.55,-45.19 537.13,-109.42 457,-76 427.57,-63.73 398.05,-41.25 380.15,-26.21"/>
<polygon fill="midnightblue" stroke="midnightblue" points="382.21,-23.37 372.34,-19.51 377.65,-28.68 382.21,-23.37"/>
</g>
<!-- Node8 -->
<g id="node8" class="node">
<title>Node8</title>
<g id="a_node8"><a xlink:title=" ">
<polygon fill="none" stroke="#bfbfbf" points="602,-0.5 602,-19.5 658,-19.5 658,-0.5 602,-0.5"/>
<text text-anchor="middle" x="630" y="-7.5" font-family="Helvetica,sans-Serif" font-size="10.00">stddef.h</text>
</a>
</g>
</g>
<!-- Node7&#45;&gt;Node8 -->
<g id="edge10" class="edge">
<title>Node7&#45;&gt;Node8</title>
<path fill="none" stroke="midnightblue" d="M572.65,-344.34C609.52,-342.09 673.82,-333.24 716,-300 738.18,-282.52 739.13,-271.39 746,-244 767.99,-156.4 684.92,-63.55 647.45,-27.05"/>
<polygon fill="midnightblue" stroke="midnightblue" points="649.45,-24.12 639.79,-19.76 644.62,-29.19 649.45,-24.12"/>
</g>
<!-- Node9 -->
<g id="node9" class="node">
<title>Node9</title>
<g id="a_node9"><a xlink:href="irq_8h.html" target="_top" xlink:title="IRQ driver interface.">
<polygon fill="none" stroke="black" points="798,-280.5 798,-299.5 836,-299.5 836,-280.5 798,-280.5"/>
<text text-anchor="middle" x="817" y="-287.5" font-family="Helvetica,sans-Serif" font-size="10.00">irq.h</text>
</a>
</g>
</g>
<!-- Node7&#45;&gt;Node9 -->
<g id="edge12" class="edge">
<title>Node7&#45;&gt;Node9</title>
<path fill="none" stroke="midnightblue" d="M572.6,-340.41C617.75,-332.99 708.18,-317.42 784,-300 785.27,-299.71 786.56,-299.4 787.87,-299.08"/>
<polygon fill="midnightblue" stroke="midnightblue" points="789.06,-302.39 797.87,-296.5 787.31,-295.61 789.06,-302.39"/>
</g>
<!-- Node11 -->
<g id="node11" class="node">
<title>Node11</title>
<g id="a_node11"><a xlink:href="kernel__defines_8h.html" target="_top" xlink:title="Common macros and compiler attributes/pragmas configuration.">
<polygon fill="none" stroke="black" points="466.5,-56.5 466.5,-75.5 563.5,-75.5 563.5,-56.5 466.5,-56.5"/>
<text text-anchor="middle" x="515" y="-63.5" font-family="Helvetica,sans-Serif" font-size="10.00">kernel_defines.h</text>
</a>
</g>
</g>
<!-- Node7&#45;&gt;Node11 -->
<g id="edge15" class="edge">
<title>Node7&#45;&gt;Node11</title>
<path fill="none" stroke="midnightblue" d="M572.56,-340.4C628.66,-329.7 746.52,-298.19 731,-224 719.88,-170.82 723.18,-147.45 682,-112 665.66,-97.93 615.07,-85.48 573.81,-77.26"/>
<polygon fill="midnightblue" stroke="midnightblue" points="574.31,-73.79 563.82,-75.32 572.97,-80.66 574.31,-73.79"/>
</g>
<!-- Node12 -->
<g id="node12" class="node">
<title>Node12</title>
<g id="a_node12"><a xlink:href="list_8h.html" target="_top" xlink:title="Intrusive linked list.">
<polygon fill="none" stroke="black" points="342.5,-56.5 342.5,-75.5 383.5,-75.5 383.5,-56.5 342.5,-56.5"/>
<text text-anchor="middle" x="363" y="-63.5" font-family="Helvetica,sans-Serif" font-size="10.00">list.h</text>
</a>
</g>
</g>
<!-- Node7&#45;&gt;Node12 -->
<g id="edge18" class="edge">
<title>Node7&#45;&gt;Node12</title>
<path fill="none" stroke="midnightblue" d="M515.09,-344.29C452.89,-341.06 312,-323.93 312,-235 312,-235 312,-235 312,-177 312,-146.9 317.87,-139.08 331,-112 335.85,-101.99 342.88,-91.81 349.11,-83.67"/>
<polygon fill="midnightblue" stroke="midnightblue" points="351.93,-85.75 355.43,-75.74 346.46,-81.38 351.93,-85.75"/>
</g>
<!-- Node13 -->
<g id="node13" class="node">
<title>Node13</title>
<g id="a_node13"><a xlink:href="core_2include_2thread_8h.html" target="_top" xlink:title="Threading API.">
<polygon fill="none" stroke="black" points="474.5,-280.5 474.5,-299.5 531.5,-299.5 531.5,-280.5 474.5,-280.5"/>
<text text-anchor="middle" x="503" y="-287.5" font-family="Helvetica,sans-Serif" font-size="10.00">thread.h</text>
</a>
</g>
</g>
<!-- Node7&#45;&gt;Node13 -->
<g id="edge19" class="edge">
<title>Node7&#45;&gt;Node13</title>
<path fill="none" stroke="midnightblue" d="M537.23,-336.08C531.44,-328.46 522.94,-317.26 515.86,-307.94"/>
<polygon fill="midnightblue" stroke="midnightblue" points="518.48,-305.6 509.64,-299.75 512.9,-309.83 518.48,-305.6"/>
</g>
<!-- Node9&#45;&gt;Node5 -->
<g id="edge13" class="edge">
<title>Node9&#45;&gt;Node5</title>
<path fill="none" stroke="midnightblue" d="M820.69,-280.37C828.34,-262.46 846.09,-220.92 856.33,-196.95"/>
<polygon fill="midnightblue" stroke="midnightblue" points="859.62,-198.16 860.33,-187.59 853.18,-195.41 859.62,-198.16"/>
</g>
<!-- Node10 -->
<g id="node10" class="node">
<title>Node10</title>
<g id="a_node10"><a xlink:title=" ">
<polygon fill="none" stroke="#bfbfbf" points="654,-224.5 654,-243.5 722,-243.5 722,-224.5 654,-224.5"/>
<text text-anchor="middle" x="688" y="-231.5" font-family="Helvetica,sans-Serif" font-size="10.00">cpu_conf.h</text>
</a>
</g>
</g>
<!-- Node9&#45;&gt;Node10 -->
<g id="edge14" class="edge">
<title>Node9&#45;&gt;Node10</title>
<path fill="none" stroke="midnightblue" d="M797.97,-281.03C776.81,-272.17 742.36,-257.76 717.66,-247.42"/>
<polygon fill="midnightblue" stroke="midnightblue" points="718.97,-244.17 708.39,-243.54 716.26,-250.63 718.97,-244.17"/>
</g>
<!-- Node11&#45;&gt;Node2 -->
<g id="edge17" class="edge">
<title>Node11&#45;&gt;Node2</title>
<path fill="none" stroke="midnightblue" d="M490.92,-56.44C465.46,-47.4 425.11,-33.06 396.54,-22.92"/>
<polygon fill="midnightblue" stroke="midnightblue" points="397.57,-19.57 386.97,-19.52 395.22,-26.16 397.57,-19.57"/>
</g>
<!-- Node11&#45;&gt;Node8 -->
<g id="edge16" class="edge">
<title>Node11&#45;&gt;Node8</title>
<path fill="none" stroke="midnightblue" d="M533.22,-56.44C551.9,-47.68 581.16,-33.94 602.62,-23.86"/>
<polygon fill="midnightblue" stroke="midnightblue" points="604.3,-26.93 611.86,-19.52 601.32,-20.6 604.3,-26.93"/>
</g>
<!-- Node13&#45;&gt;Node10 -->
<g id="edge36" class="edge">
<title>Node13&#45;&gt;Node10</title>
<path fill="none" stroke="midnightblue" d="M531.5,-280.68C562.96,-271.5 613.78,-256.66 648.94,-246.4"/>
<polygon fill="midnightblue" stroke="midnightblue" points="650.24,-249.67 658.86,-243.51 648.28,-242.95 650.24,-249.67"/>
</g>
<!-- Node14 -->
<g id="node14" class="node">
<title>Node14</title>
<g id="a_node14"><a xlink:href="clist_8h.html" target="_top" xlink:title="Circular linked list.">
<polygon fill="none" stroke="black" points="594,-112.5 594,-131.5 640,-131.5 640,-112.5 594,-112.5"/>
<text text-anchor="middle" x="617" y="-119.5" font-family="Helvetica,sans-Serif" font-size="10.00">clist.h</text>
</a>
</g>
</g>
<!-- Node13&#45;&gt;Node14 -->
<g id="edge20" class="edge">
<title>Node13&#45;&gt;Node14</title>
<path fill="none" stroke="midnightblue" d="M508.76,-280.12C516.94,-267.55 532.43,-243.9 546,-224 566.33,-194.19 590.62,-159.91 604.88,-139.93"/>
<polygon fill="midnightblue" stroke="midnightblue" points="607.87,-141.76 610.84,-131.59 602.18,-137.69 607.87,-141.76"/>
</g>
<!-- Node15 -->
<g id="node15" class="node">
<title>Node15</title>
<g id="a_node15"><a xlink:href="cib_8h.html" target="_top" xlink:title="Circular integer buffer interface.">
<polygon fill="none" stroke="black" points="340,-224.5 340,-243.5 380,-243.5 380,-224.5 340,-224.5"/>
<text text-anchor="middle" x="360" y="-231.5" font-family="Helvetica,sans-Serif" font-size="10.00">cib.h</text>
</a>
</g>
</g>
<!-- Node13&#45;&gt;Node15 -->
<g id="edge23" class="edge">
<title>Node13&#45;&gt;Node15</title>
<path fill="none" stroke="midnightblue" d="M480.34,-280.44C455.9,-271.21 416.87,-256.48 389.92,-246.3"/>
<polygon fill="midnightblue" stroke="midnightblue" points="390.83,-242.9 380.24,-242.64 388.36,-249.45 390.83,-242.9"/>
</g>
<!-- Node18 -->
<g id="node18" class="node">
<title>Node18</title>
<g id="a_node18"><a xlink:href="msg_8h.html" target="_top" xlink:title="Messaging API for inter process communication.">
<polygon fill="none" stroke="black" points="588.5,-224.5 588.5,-243.5 635.5,-243.5 635.5,-224.5 588.5,-224.5"/>
<text text-anchor="middle" x="612" y="-231.5" font-family="Helvetica,sans-Serif" font-size="10.00">msg.h</text>
</a>
</g>
</g>
<!-- Node13&#45;&gt;Node18 -->
<g id="edge27" class="edge">
<title>Node13&#45;&gt;Node18</title>
<path fill="none" stroke="midnightblue" d="M520.51,-280.32C538.07,-271.62 565.33,-258.12 585.53,-248.11"/>
<polygon fill="midnightblue" stroke="midnightblue" points="587.12,-251.23 594.53,-243.65 584.02,-244.96 587.12,-251.23"/>
</g>
<!-- Node13&#45;&gt;Node19 -->
<g id="edge37" class="edge">
<title>Node13&#45;&gt;Node19</title>
<path fill="none" stroke="midnightblue" d="M500.18,-280.37C494.34,-262.54 480.84,-221.3 472.98,-197.27"/>
<polygon fill="midnightblue" stroke="midnightblue" points="476.25,-196.01 469.81,-187.59 469.6,-198.18 476.25,-196.01"/>
</g>
<!-- Node14&#45;&gt;Node8 -->
<g id="edge21" class="edge">
<title>Node14&#45;&gt;Node8</title>
<path fill="none" stroke="midnightblue" d="M618.02,-112.37C620.12,-94.62 624.96,-53.67 627.8,-29.6"/>
<polygon fill="midnightblue" stroke="midnightblue" points="631.29,-29.93 628.98,-19.59 624.34,-29.11 631.29,-29.93"/>
</g>
<!-- Node14&#45;&gt;Node12 -->
<g id="edge22" class="edge">
<title>Node14&#45;&gt;Node12</title>
<path fill="none" stroke="midnightblue" d="M593.56,-116.02C547.37,-106.2 444.64,-84.36 393.35,-73.45"/>
<polygon fill="midnightblue" stroke="midnightblue" points="394.03,-70.02 383.52,-71.36 392.57,-76.86 394.03,-70.02"/>
</g>
<!-- Node16 -->
<g id="node16" class="node">
<title>Node16</title>
<g id="a_node16"><a xlink:href="assert_8h.html" target="_top" xlink:title="POSIX.1&#45;2008 compliant version of the assert macro.">
<polygon fill="none" stroke="black" points="340,-168.5 340,-187.5 396,-187.5 396,-168.5 340,-168.5"/>
<text text-anchor="middle" x="368" y="-175.5" font-family="Helvetica,sans-Serif" font-size="10.00">assert.h</text>
</a>
</g>
</g>
<!-- Node15&#45;&gt;Node16 -->
<g id="edge24" class="edge">
<title>Node15&#45;&gt;Node16</title>
<path fill="none" stroke="midnightblue" d="M361.32,-224.08C362.38,-216.93 363.91,-206.64 365.23,-197.69"/>
<polygon fill="midnightblue" stroke="midnightblue" points="368.7,-198.16 366.7,-187.75 361.78,-197.13 368.7,-198.16"/>
</g>
<!-- Node17 -->
<g id="node17" class="node">
<title>Node17</title>
<g id="a_node17"><a xlink:href="panic_8h.html" target="_top" xlink:title="Crash handling header.">
<polygon fill="none" stroke="black" points="340,-112.5 340,-131.5 392,-131.5 392,-112.5 340,-112.5"/>
<text text-anchor="middle" x="366" y="-119.5" font-family="Helvetica,sans-Serif" font-size="10.00">panic.h</text>
</a>
</g>
</g>
<!-- Node16&#45;&gt;Node17 -->
<g id="edge25" class="edge">
<title>Node16&#45;&gt;Node17</title>
<path fill="none" stroke="midnightblue" d="M367.67,-168.08C367.41,-161.01 367.03,-150.86 366.7,-141.99"/>
<polygon fill="midnightblue" stroke="midnightblue" points="370.19,-141.61 366.32,-131.75 363.2,-141.87 370.19,-141.61"/>
</g>
<!-- Node17&#45;&gt;Node11 -->
<g id="edge26" class="edge">
<title>Node17&#45;&gt;Node11</title>
<path fill="none" stroke="midnightblue" d="M389.61,-112.44C414.46,-103.44 453.77,-89.19 481.75,-79.05"/>
<polygon fill="midnightblue" stroke="midnightblue" points="483.29,-82.21 491.5,-75.52 480.91,-75.63 483.29,-82.21"/>
</g>
<!-- Node18&#45;&gt;Node2 -->
<g id="edge28" class="edge">
<title>Node18&#45;&gt;Node2</title>
<path fill="none" stroke="midnightblue" d="M623.84,-224.4C649.8,-204.46 707.49,-153.59 682,-112 651.92,-62.93 477.24,-29.3 399.87,-16.62"/>
<polygon fill="midnightblue" stroke="midnightblue" points="400.05,-13.1 389.62,-14.97 398.94,-20.01 400.05,-13.1"/>
</g>
<!-- Node18&#45;&gt;Node5 -->
<g id="edge29" class="edge">
<title>Node18&#45;&gt;Node5</title>
<path fill="none" stroke="midnightblue" d="M635.75,-226.33C638.85,-225.51 642,-224.72 645,-224 706.51,-209.31 778.44,-195.09 822.61,-186.69"/>
<polygon fill="midnightblue" stroke="midnightblue" points="823.5,-190.09 832.67,-184.79 822.2,-183.21 823.5,-190.09"/>
</g>
<!-- Node18&#45;&gt;Node19 -->
<g id="edge30" class="edge">
<title>Node18&#45;&gt;Node19</title>
<path fill="none" stroke="midnightblue" d="M589.02,-224.44C564.84,-215.44 526.58,-201.19 499.35,-191.05"/>
<polygon fill="midnightblue" stroke="midnightblue" points="500.46,-187.73 489.87,-187.52 498.02,-194.29 500.46,-187.73"/>
</g>
<!-- Node19&#45;&gt;Node3 -->
<g id="edge32" class="edge">
<title>Node19&#45;&gt;Node3</title>
<path fill="none" stroke="midnightblue" d="M439.79,-171.97C388.8,-162.54 278.52,-142.14 217.6,-130.88"/>
<polygon fill="midnightblue" stroke="midnightblue" points="218.01,-127.39 207.54,-129.02 216.74,-134.28 218.01,-127.39"/>
</g>
<!-- Node19&#45;&gt;Node8 -->
<g id="edge31" class="edge">
<title>Node19&#45;&gt;Node8</title>
<path fill="none" stroke="midnightblue" d="M479.81,-168.41C492.19,-159.83 511.19,-145.97 526,-132 562.09,-97.96 598.59,-52.32 617.26,-27.97"/>
<polygon fill="midnightblue" stroke="midnightblue" points="620.24,-29.84 623.5,-19.76 614.67,-25.6 620.24,-29.84"/>
</g>
<!-- Node19&#45;&gt;Node11 -->
<g id="edge33" class="edge">
<title>Node19&#45;&gt;Node11</title>
<path fill="none" stroke="midnightblue" d="M478.48,-168.41C488.44,-160.25 502.27,-147.02 509,-132 515.45,-117.6 516.66,-99.64 516.42,-86.25"/>
<polygon fill="midnightblue" stroke="midnightblue" points="519.9,-85.69 515.93,-75.86 512.91,-86.02 519.9,-85.69"/>
</g>
<!-- Node19&#45;&gt;Node14 -->
<g id="edge35" class="edge">
<title>Node19&#45;&gt;Node14</title>
<path fill="none" stroke="midnightblue" d="M490.77,-168.44C516.04,-159.35 556.18,-144.9 584.4,-134.74"/>
<polygon fill="midnightblue" stroke="midnightblue" points="585.61,-138.02 593.84,-131.34 583.24,-131.43 585.61,-138.02"/>
</g>
<!-- Node20 -->
<g id="node20" class="node">
<title>Node20</title>
<g id="a_node20"><a xlink:href="native__sched_8h.html" target="_top" xlink:title="Add definitions required on the native board.">
<polygon fill="none" stroke="black" points="410,-112.5 410,-131.5 500,-131.5 500,-112.5 410,-112.5"/>
<text text-anchor="middle" x="455" y="-119.5" font-family="Helvetica,sans-Serif" font-size="10.00">native_sched.h</text>
</a>
</g>
</g>
<!-- Node19&#45;&gt;Node20 -->
<g id="edge34" class="edge">
<title>Node19&#45;&gt;Node20</title>
<path fill="none" stroke="midnightblue" d="M465.02,-168.08C463.43,-160.93 461.14,-150.64 459.15,-141.69"/>
<polygon fill="midnightblue" stroke="midnightblue" points="462.53,-140.75 456.94,-131.75 455.7,-142.27 462.53,-140.75"/>
</g>
<!-- Node21&#45;&gt;Node2 -->
<g id="edge40" class="edge">
<title>Node21&#45;&gt;Node2</title>
<path fill="none" stroke="midnightblue" d="M385.62,-392.34C353.38,-370.31 274,-308.6 274,-235 274,-235 274,-235 274,-121 274,-78.85 313.99,-43.78 340.36,-25.24"/>
<polygon fill="midnightblue" stroke="midnightblue" points="342.38,-28.1 348.7,-19.6 338.46,-22.3 342.38,-28.1"/>
</g>
<!-- Node21&#45;&gt;Node7 -->
<g id="edge42" class="edge">
<title>Node21&#45;&gt;Node7</title>
<path fill="none" stroke="midnightblue" d="M421.98,-392.44C446.16,-383.44 484.42,-369.19 511.65,-359.05"/>
<polygon fill="midnightblue" stroke="midnightblue" points="512.98,-362.29 521.13,-355.52 510.54,-355.73 512.98,-362.29"/>
</g>
<!-- Node21&#45;&gt;Node19 -->
<g id="edge43" class="edge">
<title>Node21&#45;&gt;Node19</title>
<path fill="none" stroke="midnightblue" d="M399.18,-392.47C400.02,-366.16 404.82,-284.44 432,-224 436.7,-213.55 444.31,-203.35 451.23,-195.31"/>
<polygon fill="midnightblue" stroke="midnightblue" points="453.92,-197.55 458.05,-187.79 448.74,-192.85 453.92,-197.55"/>
</g>
<!-- Node22 -->
<g id="node22" class="node">
<title>Node22</title>
<g id="a_node22"><a xlink:title=" ">
<polygon fill="none" stroke="#bfbfbf" points="209,-336.5 209,-355.5 283,-355.5 283,-336.5 209,-336.5"/>
<text text-anchor="middle" x="246" y="-343.5" font-family="Helvetica,sans-Serif" font-size="10.00">stdatomic.h</text>
</a>
</g>
</g>
<!-- Node21&#45;&gt;Node22 -->
<g id="edge41" class="edge">
<title>Node21&#45;&gt;Node22</title>
<path fill="none" stroke="midnightblue" d="M374.76,-392.44C349.13,-383.4 308.51,-369.06 279.76,-358.92"/>
<polygon fill="midnightblue" stroke="midnightblue" points="280.72,-355.54 270.13,-355.52 278.39,-362.15 280.72,-355.54"/>
</g>
<!-- Node26 -->
<g id="node26" class="node">
<title>Node26</title>
<g id="a_node26"><a xlink:href="div_8h.html" target="_top" xlink:title=" ">
<polygon fill="none" stroke="black" points="206,-224.5 206,-243.5 246,-243.5 246,-224.5 206,-224.5"/>
<text text-anchor="middle" x="226" y="-231.5" font-family="Helvetica,sans-Serif" font-size="10.00">div.h</text>
</a>
</g>
</g>
<!-- Node25&#45;&gt;Node26 -->
<g id="edge47" class="edge">
<title>Node25&#45;&gt;Node26</title>
<path fill="none" stroke="midnightblue" d="M208.27,-392.49C205.55,-383.52 201.56,-368.94 200,-356 195.54,-319 209.06,-276.6 218.24,-253.09"/>
<polygon fill="midnightblue" stroke="midnightblue" points="221.53,-254.29 222.07,-243.71 215.05,-251.65 221.53,-254.29"/>
</g>
<!-- Node26&#45;&gt;Node2 -->
<g id="edge49" class="edge">
<title>Node26&#45;&gt;Node2</title>
<path fill="none" stroke="midnightblue" d="M225.07,-224.49C222.52,-196.85 218.19,-108.31 260,-56 276.38,-35.51 303.95,-24.13 326.45,-17.95"/>
<polygon fill="midnightblue" stroke="midnightblue" points="327.53,-21.28 336.37,-15.45 325.82,-14.49 327.53,-21.28"/>
</g>
<!-- Node26&#45;&gt;Node16 -->
<g id="edge48" class="edge">
<title>Node26&#45;&gt;Node16</title>
<path fill="none" stroke="midnightblue" d="M246.04,-225.38C269.33,-216.52 308.07,-201.79 335.64,-191.31"/>
<polygon fill="midnightblue" stroke="midnightblue" points="337.14,-194.48 345.24,-187.65 334.65,-187.94 337.14,-194.48"/>
</g>
<!-- Node27&#45;&gt;Node9 -->
<g id="edge56" class="edge">
<title>Node27&#45;&gt;Node9</title>
<path fill="none" stroke="midnightblue" d="M869.88,-336.32C860.47,-328.26 846.26,-316.08 834.93,-306.37"/>
<polygon fill="midnightblue" stroke="midnightblue" points="837.18,-303.68 827.31,-299.83 832.62,-309 837.18,-303.68"/>
</g>
<!-- Node28 -->
<g id="node28" class="node">
<title>Node28</title>
<g id="a_node28"><a xlink:href="drivers_2include_2periph_2timer_8h.html" target="_top" xlink:title="Low&#45;level timer peripheral driver interface definitions.">
<polygon fill="none" stroke="black" points="1044,-280.5 1044,-299.5 1130,-299.5 1130,-280.5 1044,-280.5"/>
<text text-anchor="middle" x="1087" y="-287.5" font-family="Helvetica,sans-Serif" font-size="10.00">periph/timer.h</text>
</a>
</g>
</g>
<!-- Node27&#45;&gt;Node28 -->
<g id="edge51" class="edge">
<title>Node27&#45;&gt;Node28</title>
<path fill="none" stroke="midnightblue" d="M912.8,-336.44C948.38,-327.16 1005.31,-312.31 1044.35,-302.13"/>
<polygon fill="midnightblue" stroke="midnightblue" points="1045.56,-305.43 1054.35,-299.52 1043.79,-298.65 1045.56,-305.43"/>
</g>
<!-- Node28&#45;&gt;Node2 -->
<g id="edge53" class="edge">
<title>Node28&#45;&gt;Node2</title>
<path fill="none" stroke="midnightblue" d="M1085.16,-280.11C1077.2,-244.21 1042.07,-109.28 954,-56 930.23,-41.62 526,-19.48 400.11,-12.9"/>
<polygon fill="midnightblue" stroke="midnightblue" points="400,-9.39 389.83,-12.37 399.64,-16.38 400,-9.39"/>
</g>
<!-- Node28&#45;&gt;Node24 -->
<g id="edge55" class="edge">
<title>Node28&#45;&gt;Node24</title>
<path fill="none" stroke="midnightblue" d="M1074.47,-280.32C1062.41,-271.98 1043.97,-259.21 1029.73,-249.35"/>
<polygon fill="midnightblue" stroke="midnightblue" points="1031.72,-246.47 1021.5,-243.65 1027.73,-252.22 1031.72,-246.47"/>
</g>
<!-- Node29 -->
<g id="node29" class="node">
<title>Node29</title>
<g id="a_node29"><a xlink:title=" ">
<polygon fill="none" stroke="#bfbfbf" points="1123.5,-224.5 1123.5,-243.5 1176.5,-243.5 1176.5,-224.5 1123.5,-224.5"/>
<text text-anchor="middle" x="1150" y="-231.5" font-family="Helvetica,sans-Serif" font-size="10.00">limits.h</text>
</a>
</g>
</g>
<!-- Node28&#45;&gt;Node29 -->
<g id="edge52" class="edge">
<title>Node28&#45;&gt;Node29</title>
<path fill="none" stroke="midnightblue" d="M1097.12,-280.32C1106.53,-272.26 1120.74,-260.08 1132.07,-250.37"/>
<polygon fill="midnightblue" stroke="midnightblue" points="1134.38,-253 1139.69,-243.83 1129.82,-247.68 1134.38,-253"/>
</g>
<!-- Node30 -->
<g id="node30" class="node">
<title>Node30</title>
<g id="a_node30"><a xlink:title=" ">
<polygon fill="none" stroke="#bfbfbf" points="1194.5,-224.5 1194.5,-243.5 1273.5,-243.5 1273.5,-224.5 1194.5,-224.5"/>
<text text-anchor="middle" x="1234" y="-231.5" font-family="Helvetica,sans-Serif" font-size="10.00">periph_cpu.h</text>
</a>
</g>
</g>
<!-- Node28&#45;&gt;Node30 -->
<g id="edge54" class="edge">
<title>Node28&#45;&gt;Node30</title>
<path fill="none" stroke="midnightblue" d="M1110.29,-280.44C1134.81,-271.44 1173.6,-257.19 1201.2,-247.05"/>
<polygon fill="midnightblue" stroke="midnightblue" points="1202.64,-250.25 1210.82,-243.52 1200.22,-243.68 1202.64,-250.25"/>
</g>
<!-- Node31&#45;&gt;Node24 -->
<g id="edge60" class="edge">
<title>Node31&#45;&gt;Node24</title>
<path fill="none" stroke="midnightblue" d="M1191.62,-280.44C1154.08,-271.1 1093.87,-256.12 1052.93,-245.93"/>
<polygon fill="midnightblue" stroke="midnightblue" points="1053.77,-242.53 1043.22,-243.52 1052.08,-249.33 1053.77,-242.53"/>
</g>
<!-- Node31&#45;&gt;Node29 -->
<g id="edge58" class="edge">
<title>Node31&#45;&gt;Node29</title>
<path fill="none" stroke="midnightblue" d="M1213.79,-280.32C1202.22,-272.11 1184.62,-259.6 1170.84,-249.81"/>
<polygon fill="midnightblue" stroke="midnightblue" points="1172.61,-246.77 1162.43,-243.83 1168.56,-252.48 1172.61,-246.77"/>
</g>
<!-- Node31&#45;&gt;Node30 -->
<g id="edge59" class="edge">
<title>Node31&#45;&gt;Node30</title>
<path fill="none" stroke="midnightblue" d="M1227.32,-280.08C1228.38,-272.93 1229.91,-262.64 1231.23,-253.69"/>
<polygon fill="midnightblue" stroke="midnightblue" points="1234.7,-254.16 1232.7,-243.75 1227.78,-253.13 1234.7,-254.16"/>
</g>
<!-- Node32&#45;&gt;Node2 -->
<g id="edge64" class="edge">
<title>Node32&#45;&gt;Node2</title>
<path fill="none" stroke="midnightblue" d="M1062.89,-336.87C1015.62,-324.07 940,-294.33 940,-235 940,-235 940,-235 940,-121 940,-65.76 526.71,-25.23 399.69,-14.08"/>
<polygon fill="midnightblue" stroke="midnightblue" points="399.94,-10.59 389.67,-13.21 399.33,-17.56 399.94,-10.59"/>
</g>
<!-- Node32&#45;&gt;Node5 -->
<g id="edge62" class="edge">
<title>Node32&#45;&gt;Node5</title>
<path fill="none" stroke="midnightblue" d="M1062.81,-344.03C1024.65,-341.22 965.46,-331.59 926,-300 908.69,-286.14 883.4,-227.47 871.16,-197.21"/>
<polygon fill="midnightblue" stroke="midnightblue" points="874.37,-195.81 867.41,-187.82 867.87,-198.4 874.37,-195.81"/>
</g>
<!-- Node32&#45;&gt;Node8 -->
<g id="edge63" class="edge">
<title>Node32&#45;&gt;Node8</title>
<path fill="none" stroke="midnightblue" d="M1137.02,-343.81C1202.52,-339.52 1332,-320.25 1332,-235 1332,-235 1332,-235 1332,-121 1332,-53.3 815.88,-20.83 668.73,-12.94"/>
<polygon fill="midnightblue" stroke="midnightblue" points="668.56,-9.43 658.39,-12.4 668.19,-16.42 668.56,-9.43"/>
</g>
<!-- Node32&#45;&gt;Node24 -->
<g id="edge67" class="edge">
<title>Node32&#45;&gt;Node24</title>
<path fill="none" stroke="midnightblue" d="M1082.11,-336.37C1067.67,-328.61 1047.75,-315.99 1035,-300 1024.12,-286.35 1017.27,-267.56 1013.34,-253.69"/>
<polygon fill="midnightblue" stroke="midnightblue" points="1016.68,-252.63 1010.81,-243.82 1009.91,-254.37 1016.68,-252.63"/>
</g>
<!-- Node32&#45;&gt;Node29 -->
<g id="edge65" class="edge">
<title>Node32&#45;&gt;Node29</title>
<path fill="none" stroke="midnightblue" d="M1110.05,-336.44C1119.14,-328.11 1132.12,-314.59 1139,-300 1145.8,-285.59 1148.46,-267.63 1149.47,-254.24"/>
<polygon fill="midnightblue" stroke="midnightblue" points="1152.98,-254.02 1149.99,-243.86 1145.99,-253.67 1152.98,-254.02"/>
</g>
<!-- Node32&#45;&gt;Node30 -->
<g id="edge66" class="edge">
<title>Node32&#45;&gt;Node30</title>
<path fill="none" stroke="midnightblue" d="M1137.22,-340.75C1183.44,-334.61 1258.28,-321.57 1275,-300 1287.6,-283.75 1270.17,-263.5 1254.3,-249.97"/>
<polygon fill="midnightblue" stroke="midnightblue" points="1256.3,-247.08 1246.31,-243.55 1251.91,-252.54 1256.3,-247.08"/>
</g>
<!-- Node32&#45;&gt;Node31 -->
<g id="edge68" class="edge">
<title>Node32&#45;&gt;Node31</title>
<path fill="none" stroke="midnightblue" d="M1119.97,-336.44C1140.61,-327.6 1173.06,-313.69 1196.63,-303.59"/>
<polygon fill="midnightblue" stroke="midnightblue" points="1198.32,-306.67 1206.13,-299.52 1195.56,-300.24 1198.32,-306.67"/>
</g>
</g>
</svg>
