<?xml version="1.0" encoding="UTF-8" standalone="no"?>
<!DOCTYPE svg PUBLIC "-//W3C//DTD SVG 1.1//EN"
 "http://www.w3.org/Graphics/SVG/1.1/DTD/svg11.dtd">
<!-- Generated by graphviz version 2.40.1 (20161225.0304)
 -->
<!-- Title: cpu/atmega_common/include/irq_arch.h Pages: 1 -->
<svg width="687pt" height="263pt"
 viewBox="0.00 0.00 686.50 263.00" xmlns="http://www.w3.org/2000/svg" xmlns:xlink="http://www.w3.org/1999/xlink">
<g id="graph0" class="graph" transform="scale(1 1) rotate(0) translate(4 259)">
<title>cpu/atmega_common/include/irq_arch.h</title>
<!-- Node0 -->
<g id="node1" class="node">
<title>Node0</title>
<polygon fill="#bfbfbf" stroke="#000000" points="93.5,-224.5 93.5,-254.5 237.5,-254.5 237.5,-224.5 93.5,-224.5"/>
<text text-anchor="start" x="101.5" y="-242.5" font-family="Helvetica,sans-Serif" font-size="10.00" fill="#000000">cpu/atmega_common/include</text>
<text text-anchor="middle" x="165.5" y="-231.5" font-family="Helvetica,sans-Serif" font-size="10.00" fill="#000000">/irq_arch.h</text>
</g>
<!-- Node1 -->
<g id="node2" class="node">
<title>Node1</title>
<polygon fill="none" stroke="#bfbfbf" points="0,-.5 0,-19.5 49,-19.5 49,-.5 0,-.5"/>
<text text-anchor="middle" x="24.5" y="-7.5" font-family="Helvetica,sans-Serif" font-size="10.00" fill="#000000">stdint.h</text>
</g>
<!-- Node0&#45;&gt;Node1 -->
<g id="edge1" class="edge">
<title>Node0&#45;&gt;Node1</title>
<path fill="none" stroke="#191970" d="M139.4771,-224.382C110.9066,-206.2918 66.0961,-173.2152 43.5,-132 25.6272,-99.4001 23.2508,-54.9753 23.577,-29.7112"/>
<polygon fill="#191970" stroke="#191970" points="27.0799,-29.6602 23.8711,-19.563 20.0828,-29.4574 27.0799,-29.6602"/>
</g>
<!-- Node2 -->
<g id="node3" class="node">
<title>Node2</title>
<g id="a_node3"><a xlink:href="stdio_8h.html" target="_top" xlink:title="stdio.h wrapper for MSP430 ">
<polygon fill="none" stroke="#000000" points="52.5,-112.5 52.5,-131.5 98.5,-131.5 98.5,-112.5 52.5,-112.5"/>
<text text-anchor="middle" x="75.5" y="-119.5" font-family="Helvetica,sans-Serif" font-size="10.00" fill="#000000">stdio.h</text>
</a>
</g>
</g>
<!-- Node0&#45;&gt;Node2 -->
<g id="edge2" class="edge">
<title>Node0&#45;&gt;Node2</title>
<path fill="none" stroke="#191970" d="M153.7341,-224.1389C137.0768,-202.3919 106.6927,-162.7238 89.093,-139.7465"/>
<polygon fill="#191970" stroke="#191970" points="91.6815,-137.37 82.8222,-131.5595 86.1244,-141.6266 91.6815,-137.37"/>
</g>
<!-- Node3 -->
<g id="node4" class="node">
<title>Node3</title>
<g id="a_node4"><a xlink:href="irq_8h.html" target="_top" xlink:title="IRQ driver interface. ">
<polygon fill="none" stroke="#000000" points="493,-168.5 493,-187.5 528,-187.5 528,-168.5 493,-168.5"/>
<text text-anchor="middle" x="510.5" y="-175.5" font-family="Helvetica,sans-Serif" font-size="10.00" fill="#000000">irq.h</text>
</a>
</g>
</g>
<!-- Node0&#45;&gt;Node3 -->
<g id="edge3" class="edge">
<title>Node0&#45;&gt;Node3</title>
<path fill="none" stroke="#191970" d="M237.8233,-226.6076C313.9827,-213.0313 430.0104,-192.3481 482.7162,-182.9528"/>
<polygon fill="#191970" stroke="#191970" points="483.4435,-186.3784 492.674,-181.1777 482.215,-179.487 483.4435,-186.3784"/>
</g>
<!-- Node6 -->
<g id="node7" class="node">
<title>Node6</title>
<g id="a_node7"><a xlink:href="atmega__common_2include_2cpu_8h.html" target="_top" xlink:title="Common implementations and headers for ATmega family based micro&#45;controllers. ">
<polygon fill="none" stroke="#000000" points="176,-168.5 176,-187.5 217,-187.5 217,-168.5 176,-168.5"/>
<text text-anchor="middle" x="196.5" y="-175.5" font-family="Helvetica,sans-Serif" font-size="10.00" fill="#000000">cpu.h</text>
</a>
</g>
</g>
<!-- Node0&#45;&gt;Node6 -->
<g id="edge6" class="edge">
<title>Node0&#45;&gt;Node6</title>
<path fill="none" stroke="#191970" d="M173.1629,-224.2977C177.3316,-216.0277 182.5265,-205.7215 186.9561,-196.9339"/>
<polygon fill="#191970" stroke="#191970" points="190.1607,-198.3521 191.5365,-187.8469 183.9099,-195.2012 190.1607,-198.3521"/>
</g>
<!-- Node4 -->
<g id="node5" class="node">
<title>Node4</title>
<polygon fill="none" stroke="#bfbfbf" points="561.5,-112.5 561.5,-131.5 617.5,-131.5 617.5,-112.5 561.5,-112.5"/>
<text text-anchor="middle" x="589.5" y="-119.5" font-family="Helvetica,sans-Serif" font-size="10.00" fill="#000000">stdbool.h</text>
</g>
<!-- Node3&#45;&gt;Node4 -->
<g id="edge4" class="edge">
<title>Node3&#45;&gt;Node4</title>
<path fill="none" stroke="#191970" d="M524.2607,-168.2455C536.1552,-159.814 553.565,-147.4729 567.4085,-137.6598"/>
<polygon fill="#191970" stroke="#191970" points="569.7628,-140.2811 575.8969,-131.6427 565.7146,-134.5704 569.7628,-140.2811"/>
</g>
<!-- Node5 -->
<g id="node6" class="node">
<title>Node5</title>
<polygon fill="none" stroke="#bfbfbf" points="478,-112.5 478,-131.5 543,-131.5 543,-112.5 478,-112.5"/>
<text text-anchor="middle" x="510.5" y="-119.5" font-family="Helvetica,sans-Serif" font-size="10.00" fill="#000000">cpu_conf.h</text>
</g>
<!-- Node3&#45;&gt;Node5 -->
<g id="edge5" class="edge">
<title>Node3&#45;&gt;Node5</title>
<path fill="none" stroke="#191970" d="M510.5,-168.2455C510.5,-160.9382 510.5,-150.6944 510.5,-141.7046"/>
<polygon fill="#191970" stroke="#191970" points="514.0001,-141.6426 510.5,-131.6427 507.0001,-141.6427 514.0001,-141.6426"/>
</g>
<!-- Node6&#45;&gt;Node1 -->
<g id="edge8" class="edge">
<title>Node6&#45;&gt;Node1</title>
<path fill="none" stroke="#191970" d="M195.7731,-168.1233C194.3216,-154.3471 190.0306,-129.1303 177.5,-112 168.6073,-99.843 89.6733,-50.1753 48.8018,-24.9108"/>
<polygon fill="#191970" stroke="#191970" points="50.5772,-21.8937 40.2283,-19.6241 46.9031,-27.852 50.5772,-21.8937"/>
</g>
<!-- Node6&#45;&gt;Node2 -->
<g id="edge7" class="edge">
<title>Node6&#45;&gt;Node2</title>
<path fill="none" stroke="#191970" d="M175.974,-168.5004C156.5918,-159.5301 127.3021,-145.9745 105.3396,-135.8101"/>
<polygon fill="#191970" stroke="#191970" points="106.672,-132.5701 96.1267,-131.5462 103.7318,-138.9227 106.672,-132.5701"/>
</g>
<!-- Node7 -->
<g id="node8" class="node">
<title>Node7</title>
<polygon fill="none" stroke="#bfbfbf" points="300,-112.5 300,-131.5 377,-131.5 377,-112.5 300,-112.5"/>
<text text-anchor="middle" x="338.5" y="-119.5" font-family="Helvetica,sans-Serif" font-size="10.00" fill="#000000">avr/interrupt.h</text>
</g>
<!-- Node6&#45;&gt;Node7 -->
<g id="edge9" class="edge">
<title>Node6&#45;&gt;Node7</title>
<path fill="none" stroke="#191970" d="M217.148,-169.8571C240.0295,-160.8334 277.2858,-146.1408 304.4898,-135.4125"/>
<polygon fill="#191970" stroke="#191970" points="305.9936,-138.5818 314.0123,-131.6571 303.4255,-132.0699 305.9936,-138.5818"/>
</g>
<!-- Node8 -->
<g id="node9" class="node">
<title>Node8</title>
<g id="a_node9"><a xlink:href="atmega__common_2include_2cpu__conf_8h.html" target="_top" xlink:title="Implementation specific CPU configuration options. ">
<polygon fill="none" stroke="#000000" points="395,-112.5 395,-131.5 460,-131.5 460,-112.5 395,-112.5"/>
<text text-anchor="middle" x="427.5" y="-119.5" font-family="Helvetica,sans-Serif" font-size="10.00" fill="#000000">cpu_conf.h</text>
</a>
</g>
</g>
<!-- Node6&#45;&gt;Node8 -->
<g id="edge10" class="edge">
<title>Node6&#45;&gt;Node8</title>
<path fill="none" stroke="#191970" d="M217.4071,-172.9316C255.1235,-163.7882 335.2368,-144.3668 384.911,-132.3246"/>
<polygon fill="#191970" stroke="#191970" points="385.8265,-135.7041 394.7204,-129.9466 384.1773,-128.9012 385.8265,-135.7041"/>
</g>
<!-- Node12 -->
<g id="node13" class="node">
<title>Node12</title>
<g id="a_node13"><a xlink:href="sched_8h.html" target="_top" xlink:title="Scheduler API definition. ">
<polygon fill="none" stroke="#000000" points="231,-112.5 231,-131.5 282,-131.5 282,-112.5 231,-112.5"/>
<text text-anchor="middle" x="256.5" y="-119.5" font-family="Helvetica,sans-Serif" font-size="10.00" fill="#000000">sched.h</text>
</a>
</g>
</g>
<!-- Node6&#45;&gt;Node12 -->
<g id="edge14" class="edge">
<title>Node6&#45;&gt;Node12</title>
<path fill="none" stroke="#191970" d="M206.9512,-168.2455C215.7269,-160.0549 228.4554,-148.1749 238.814,-138.5069"/>
<polygon fill="#191970" stroke="#191970" points="241.2461,-141.0246 246.1686,-131.6427 236.4699,-135.9072 241.2461,-141.0246"/>
</g>
<!-- Node22 -->
<g id="node23" class="node">
<title>Node22</title>
<polygon fill="none" stroke="#bfbfbf" points="116.5,-112.5 116.5,-131.5 168.5,-131.5 168.5,-112.5 116.5,-112.5"/>
<text text-anchor="middle" x="142.5" y="-119.5" font-family="Helvetica,sans-Serif" font-size="10.00" fill="#000000">thread.h</text>
</g>
<!-- Node6&#45;&gt;Node22 -->
<g id="edge28" class="edge">
<title>Node6&#45;&gt;Node22</title>
<path fill="none" stroke="#191970" d="M187.0939,-168.2455C179.3507,-160.2155 168.188,-148.6394 158.9682,-139.0781"/>
<polygon fill="#191970" stroke="#191970" points="161.2591,-136.4117 151.7983,-131.6427 156.2202,-141.2706 161.2591,-136.4117"/>
</g>
<!-- Node9 -->
<g id="node10" class="node">
<title>Node9</title>
<g id="a_node10"><a xlink:href="atmega__regs__common_8h.html" target="_top" xlink:title="CMSIS style register definitions for the atmega family. ">
<polygon fill="none" stroke="#000000" points="544.5,-56.5 544.5,-75.5 668.5,-75.5 668.5,-56.5 544.5,-56.5"/>
<text text-anchor="middle" x="606.5" y="-63.5" font-family="Helvetica,sans-Serif" font-size="10.00" fill="#000000">atmega_regs_common.h</text>
</a>
</g>
</g>
<!-- Node8&#45;&gt;Node9 -->
<g id="edge11" class="edge">
<title>Node8&#45;&gt;Node9</title>
<path fill="none" stroke="#191970" d="M458.2712,-112.3733C488.165,-103.021 533.7093,-88.7725 566.4217,-78.5385"/>
<polygon fill="#191970" stroke="#191970" points="567.6315,-81.8273 576.1303,-75.5011 565.5414,-75.1466 567.6315,-81.8273"/>
</g>
<!-- Node10 -->
<g id="node11" class="node">
<title>Node10</title>
<polygon fill="none" stroke="#bfbfbf" points="543,-.5 543,-19.5 592,-19.5 592,-.5 543,-.5"/>
<text text-anchor="middle" x="567.5" y="-7.5" font-family="Helvetica,sans-Serif" font-size="10.00" fill="#000000">avr/io.h</text>
</g>
<!-- Node9&#45;&gt;Node10 -->
<g id="edge12" class="edge">
<title>Node9&#45;&gt;Node10</title>
<path fill="none" stroke="#191970" d="M599.7067,-56.2455C594.2822,-48.4564 586.5339,-37.3308 579.9967,-27.9439"/>
<polygon fill="#191970" stroke="#191970" points="582.8025,-25.8485 574.2154,-19.6427 577.0583,-29.849 582.8025,-25.8485"/>
</g>
<!-- Node11 -->
<g id="node12" class="node">
<title>Node11</title>
<polygon fill="none" stroke="#bfbfbf" points="610.5,-.5 610.5,-19.5 678.5,-19.5 678.5,-.5 610.5,-.5"/>
<text text-anchor="middle" x="644.5" y="-7.5" font-family="Helvetica,sans-Serif" font-size="10.00" fill="#000000">avr/power.h</text>
</g>
<!-- Node9&#45;&gt;Node11 -->
<g id="edge13" class="edge">
<title>Node9&#45;&gt;Node11</title>
<path fill="none" stroke="#191970" d="M613.1191,-56.2455C618.4046,-48.4564 625.9541,-37.3308 632.3238,-27.9439"/>
<polygon fill="#191970" stroke="#191970" points="635.2379,-29.8827 637.9568,-19.6427 629.4455,-25.9522 635.2379,-29.8827"/>
</g>
<!-- Node13 -->
<g id="node14" class="node">
<title>Node13</title>
<polygon fill="none" stroke="#bfbfbf" points="369.5,-.5 369.5,-19.5 421.5,-19.5 421.5,-.5 369.5,-.5"/>
<text text-anchor="middle" x="395.5" y="-7.5" font-family="Helvetica,sans-Serif" font-size="10.00" fill="#000000">stddef.h</text>
</g>
<!-- Node12&#45;&gt;Node13 -->
<g id="edge15" class="edge">
<title>Node12&#45;&gt;Node13</title>
<path fill="none" stroke="#191970" d="M282.1349,-113.998C320.0638,-102.0452 387.0598,-80.4522 390.5,-76 400.4792,-63.0852 400.9243,-44.1852 399.3429,-29.9166"/>
<polygon fill="#191970" stroke="#191970" points="402.7482,-29.0289 397.7835,-19.6693 395.8278,-30.0821 402.7482,-29.0289"/>
</g>
<!-- Node14 -->
<g id="node15" class="node">
<title>Node14</title>
<g id="a_node15"><a xlink:href="kernel__defines_8h.html" target="_top" xlink:title="Common macros and compiler attributes/pragmas configuration. ">
<polygon fill="none" stroke="#000000" points="438.5,-56.5 438.5,-75.5 526.5,-75.5 526.5,-56.5 438.5,-56.5"/>
<text text-anchor="middle" x="482.5" y="-63.5" font-family="Helvetica,sans-Serif" font-size="10.00" fill="#000000">kernel_defines.h</text>
</a>
</g>
</g>
<!-- Node12&#45;&gt;Node14 -->
<g id="edge16" class="edge">
<title>Node12&#45;&gt;Node14</title>
<path fill="none" stroke="#191970" d="M282.0805,-114.3248C284.9156,-113.5193 287.7653,-112.7293 290.5,-112 337.4719,-99.4742 391.3278,-86.7087 430.0232,-77.8135"/>
<polygon fill="#191970" stroke="#191970" points="431.0517,-81.1686 440.018,-75.5245 429.489,-74.3453 431.0517,-81.1686"/>
</g>
<!-- Node15 -->
<g id="node16" class="node">
<title>Node15</title>
<g id="a_node16"><a xlink:href="kernel__types_8h.html" target="_top" xlink:title="Types used by the kernel. ">
<polygon fill="none" stroke="#000000" points="139.5,-56.5 139.5,-75.5 219.5,-75.5 219.5,-56.5 139.5,-56.5"/>
<text text-anchor="middle" x="179.5" y="-63.5" font-family="Helvetica,sans-Serif" font-size="10.00" fill="#000000">kernel_types.h</text>
</a>
</g>
</g>
<!-- Node12&#45;&gt;Node15 -->
<g id="edge18" class="edge">
<title>Node12&#45;&gt;Node15</title>
<path fill="none" stroke="#191970" d="M243.0876,-112.2455C231.4943,-103.814 214.5252,-91.4729 201.0322,-81.6598"/>
<polygon fill="#191970" stroke="#191970" points="202.9047,-78.6938 192.7587,-75.6427 198.7874,-84.355 202.9047,-78.6938"/>
</g>
<!-- Node19 -->
<g id="node20" class="node">
<title>Node19</title>
<g id="a_node20"><a xlink:href="native__sched_8h.html" target="_top" xlink:title="Add definitions required on the native board. ">
<polygon fill="none" stroke="#000000" points="299,-56.5 299,-75.5 382,-75.5 382,-56.5 299,-56.5"/>
<text text-anchor="middle" x="340.5" y="-63.5" font-family="Helvetica,sans-Serif" font-size="10.00" fill="#000000">native_sched.h</text>
</a>
</g>
</g>
<!-- Node12&#45;&gt;Node19 -->
<g id="edge24" class="edge">
<title>Node12&#45;&gt;Node19</title>
<path fill="none" stroke="#191970" d="M271.1317,-112.2455C283.8994,-103.7337 302.6438,-91.2375 317.4299,-81.3801"/>
<polygon fill="#191970" stroke="#191970" points="319.6569,-84.1019 326.036,-75.6427 315.774,-78.2775 319.6569,-84.1019"/>
</g>
<!-- Node20 -->
<g id="node21" class="node">
<title>Node20</title>
<g id="a_node21"><a xlink:href="clist_8h.html" target="_top" xlink:title="Circular linked list. ">
<polygon fill="none" stroke="#000000" points="238,-56.5 238,-75.5 281,-75.5 281,-56.5 238,-56.5"/>
<text text-anchor="middle" x="259.5" y="-63.5" font-family="Helvetica,sans-Serif" font-size="10.00" fill="#000000">clist.h</text>
</a>
</g>
</g>
<!-- Node12&#45;&gt;Node20 -->
<g id="edge25" class="edge">
<title>Node12&#45;&gt;Node20</title>
<path fill="none" stroke="#191970" d="M257.0226,-112.2455C257.414,-104.9382 257.9628,-94.6944 258.4444,-85.7046"/>
<polygon fill="#191970" stroke="#191970" points="261.9434,-85.8156 258.9834,-75.6427 254.9534,-85.4411 261.9434,-85.8156"/>
</g>
<!-- Node14&#45;&gt;Node13 -->
<g id="edge17" class="edge">
<title>Node14&#45;&gt;Node13</title>
<path fill="none" stroke="#191970" d="M467.3458,-56.2455C453.9973,-47.6534 434.3414,-35.0014 418.9617,-25.1018"/>
<polygon fill="#191970" stroke="#191970" points="420.7836,-22.1121 410.4806,-19.6427 416.9949,-27.9982 420.7836,-22.1121"/>
</g>
<!-- Node15&#45;&gt;Node1 -->
<g id="edge19" class="edge">
<title>Node15&#45;&gt;Node1</title>
<path fill="none" stroke="#191970" d="M152.8546,-56.3733C126.839,-46.9741 87.1351,-32.6295 58.7793,-22.3848"/>
<polygon fill="#191970" stroke="#191970" points="59.8581,-19.0532 49.2638,-18.9469 57.4795,-25.6367 59.8581,-19.0532"/>
</g>
<!-- Node15&#45;&gt;Node13 -->
<g id="edge22" class="edge">
<title>Node15&#45;&gt;Node13</title>
<path fill="none" stroke="#191970" d="M216.6317,-56.3733C256.6887,-45.9881 320.033,-29.5655 359.6034,-19.3065"/>
<polygon fill="#191970" stroke="#191970" points="360.564,-22.6733 369.3656,-16.7756 358.8072,-15.8973 360.564,-22.6733"/>
</g>
<!-- Node16 -->
<g id="node17" class="node">
<title>Node16</title>
<g id="a_node17"><a xlink:href="inttypes_8h.html" target="_top" xlink:title="Adds include for missing inttype definitions. ">
<polygon fill="none" stroke="#000000" points="154,-.5 154,-19.5 213,-19.5 213,-.5 154,-.5"/>
<text text-anchor="middle" x="183.5" y="-7.5" font-family="Helvetica,sans-Serif" font-size="10.00" fill="#000000">inttypes.h</text>
</a>
</g>
</g>
<!-- Node15&#45;&gt;Node16 -->
<g id="edge20" class="edge">
<title>Node15&#45;&gt;Node16</title>
<path fill="none" stroke="#191970" d="M180.1967,-56.2455C180.7187,-48.9382 181.4504,-38.6944 182.0925,-29.7046"/>
<polygon fill="#191970" stroke="#191970" points="185.5898,-29.8667 182.8112,-19.6427 178.6076,-29.3679 185.5898,-29.8667"/>
</g>
<!-- Node17 -->
<g id="node18" class="node">
<title>Node17</title>
<polygon fill="none" stroke="#bfbfbf" points="231.5,-.5 231.5,-19.5 279.5,-19.5 279.5,-.5 231.5,-.5"/>
<text text-anchor="middle" x="255.5" y="-7.5" font-family="Helvetica,sans-Serif" font-size="10.00" fill="#000000">limits.h</text>
</g>
<!-- Node15&#45;&gt;Node17 -->
<g id="edge21" class="edge">
<title>Node15&#45;&gt;Node17</title>
<path fill="none" stroke="#191970" d="M192.7382,-56.2455C204.181,-47.814 220.9296,-35.4729 234.2475,-25.6598"/>
<polygon fill="#191970" stroke="#191970" points="236.4391,-28.3924 242.4135,-19.6427 232.2867,-22.757 236.4391,-28.3924"/>
</g>
<!-- Node18 -->
<g id="node19" class="node">
<title>Node18</title>
<polygon fill="none" stroke="#bfbfbf" points="67.5,-.5 67.5,-19.5 135.5,-19.5 135.5,-.5 67.5,-.5"/>
<text text-anchor="middle" x="101.5" y="-7.5" font-family="Helvetica,sans-Serif" font-size="10.00" fill="#000000">sys/types.h</text>
</g>
<!-- Node15&#45;&gt;Node18 -->
<g id="edge23" class="edge">
<title>Node15&#45;&gt;Node18</title>
<path fill="none" stroke="#191970" d="M165.9134,-56.2455C154.1695,-47.814 136.9801,-35.4729 123.3118,-25.6598"/>
<polygon fill="#191970" stroke="#191970" points="125.0954,-22.6316 114.9309,-19.6427 121.0129,-28.3179 125.0954,-22.6316"/>
</g>
<!-- Node20&#45;&gt;Node13 -->
<g id="edge26" class="edge">
<title>Node20&#45;&gt;Node13</title>
<path fill="none" stroke="#191970" d="M281.0496,-57.1266C303.002,-48.0874 337.3263,-33.9539 362.6642,-23.5206"/>
<polygon fill="#191970" stroke="#191970" points="364.3153,-26.6259 372.2295,-19.582 361.65,-20.1532 364.3153,-26.6259"/>
</g>
<!-- Node21 -->
<g id="node22" class="node">
<title>Node21</title>
<g id="a_node22"><a xlink:href="list_8h.html" target="_top" xlink:title="Intrusive linked list. ">
<polygon fill="none" stroke="#000000" points="297.5,-.5 297.5,-19.5 335.5,-19.5 335.5,-.5 297.5,-.5"/>
<text text-anchor="middle" x="316.5" y="-7.5" font-family="Helvetica,sans-Serif" font-size="10.00" fill="#000000">list.h</text>
</a>
</g>
</g>
<!-- Node20&#45;&gt;Node21 -->
<g id="edge27" class="edge">
<title>Node20&#45;&gt;Node21</title>
<path fill="none" stroke="#191970" d="M269.4286,-56.2455C277.6838,-48.1352 289.6209,-36.4075 299.4082,-26.7919"/>
<polygon fill="#191970" stroke="#191970" points="302.0046,-29.1476 306.6851,-19.6427 297.0989,-24.1542 302.0046,-29.1476"/>
</g>
</g>
</svg>
