<?xml version="1.0" encoding="UTF-8" standalone="no"?>
<!DOCTYPE svg PUBLIC "-//W3C//DTD SVG 1.1//EN"
 "http://www.w3.org/Graphics/SVG/1.1/DTD/svg11.dtd">
<!-- Generated by graphviz version 2.40.1 (20161225.0304)
 -->
<!-- Title: cpu/atmega_common/include/atmega_regs_common.h Pages: 1 -->
<svg width="616pt" height="240pt"
 viewBox="0.00 0.00 616.00 240.00" xmlns="http://www.w3.org/2000/svg" xmlns:xlink="http://www.w3.org/1999/xlink">
<g id="graph0" class="graph" transform="scale(1 1) rotate(0) translate(4 236)">
<title>cpu/atmega_common/include/atmega_regs_common.h</title>
<!-- Node3 -->
<g id="node1" class="node">
<title>Node3</title>
<polygon fill="#bfbfbf" stroke="#000000" points="146,-201.5 146,-231.5 290,-231.5 290,-201.5 146,-201.5"/>
<text text-anchor="start" x="154" y="-219.5" font-family="Helvetica,sans-Serif" font-size="10.00" fill="#000000">cpu/atmega_common/include</text>
<text text-anchor="middle" x="218" y="-208.5" font-family="Helvetica,sans-Serif" font-size="10.00" fill="#000000">/atmega_regs_common.h</text>
</g>
<!-- Node4 -->
<g id="node2" class="node">
<title>Node4</title>
<g id="a_node2"><a xlink:href="atmega128rfa1_2include_2periph__cpu_8h.html" target="_top" xlink:title="CPU specific definitions for internal peripheral handling. ">
<polygon fill="none" stroke="#000000" points="0,-134.5 0,-164.5 134,-164.5 134,-134.5 0,-134.5"/>
<text text-anchor="start" x="8" y="-152.5" font-family="Helvetica,sans-Serif" font-size="10.00" fill="#000000">cpu/atmega128rfa1/include</text>
<text text-anchor="middle" x="67" y="-141.5" font-family="Helvetica,sans-Serif" font-size="10.00" fill="#000000">/periph_cpu.h</text>
</a>
</g>
</g>
<!-- Node3&#45;&gt;Node4 -->
<g id="edge1" class="edge">
<title>Node3&#45;&gt;Node4</title>
<path fill="none" stroke="#191970" d="M174.7582,-197.3132C151.3497,-186.9267 122.8461,-174.2794 101.0351,-164.6017"/>
<polygon fill="#191970" stroke="#191970" points="173.5525,-200.6073 184.1127,-201.4639 176.3916,-194.2089 173.5525,-200.6073"/>
</g>
<!-- Node5 -->
<g id="node3" class="node">
<title>Node5</title>
<g id="a_node3"><a xlink:href="atmega256rfr2_2include_2periph__cpu_8h.html" target="_top" xlink:title="CPU specific definitions for internal peripheral handling. ">
<polygon fill="none" stroke="#000000" points="152.5,-134.5 152.5,-164.5 283.5,-164.5 283.5,-134.5 152.5,-134.5"/>
<text text-anchor="start" x="160.5" y="-152.5" font-family="Helvetica,sans-Serif" font-size="10.00" fill="#000000">cpu/atmega256rfr2/include</text>
<text text-anchor="middle" x="218" y="-141.5" font-family="Helvetica,sans-Serif" font-size="10.00" fill="#000000">/periph_cpu.h</text>
</a>
</g>
</g>
<!-- Node3&#45;&gt;Node5 -->
<g id="edge2" class="edge">
<title>Node3&#45;&gt;Node5</title>
<path fill="none" stroke="#191970" d="M218,-191.0249C218,-182.128 218,-172.4287 218,-164.6432"/>
<polygon fill="#191970" stroke="#191970" points="214.5001,-191.2966 218,-201.2967 221.5001,-191.2967 214.5001,-191.2966"/>
</g>
<!-- Node6 -->
<g id="node4" class="node">
<title>Node6</title>
<g id="a_node4"><a xlink:href="atmega__common_2include_2cpu__conf_8h.html" target="_top" xlink:title="Implementation specific CPU configuration options. ">
<polygon fill="none" stroke="#000000" points="302,-134.5 302,-164.5 446,-164.5 446,-134.5 302,-134.5"/>
<text text-anchor="start" x="310" y="-152.5" font-family="Helvetica,sans-Serif" font-size="10.00" fill="#000000">cpu/atmega_common/include</text>
<text text-anchor="middle" x="374" y="-141.5" font-family="Helvetica,sans-Serif" font-size="10.00" fill="#000000">/cpu_conf.h</text>
</a>
</g>
</g>
<!-- Node3&#45;&gt;Node6 -->
<g id="edge3" class="edge">
<title>Node3&#45;&gt;Node6</title>
<path fill="none" stroke="#191970" d="M262.3516,-197.4516C286.5953,-187.0392 316.2045,-174.3224 338.8379,-164.6017"/>
<polygon fill="#191970" stroke="#191970" points="260.8166,-194.3016 253.0094,-201.4639 263.5791,-200.7335 260.8166,-194.3016"/>
</g>
<!-- Node7 -->
<g id="node5" class="node">
<title>Node7</title>
<g id="a_node5"><a xlink:href="atmega__common_2include_2cpu_8h.html" target="_top" xlink:title="Common implementations and headers for ATmega family based micro&#45;controllers. ">
<polygon fill="none" stroke="#000000" points="302,-67.5 302,-97.5 446,-97.5 446,-67.5 302,-67.5"/>
<text text-anchor="start" x="310" y="-85.5" font-family="Helvetica,sans-Serif" font-size="10.00" fill="#000000">cpu/atmega_common/include</text>
<text text-anchor="middle" x="374" y="-74.5" font-family="Helvetica,sans-Serif" font-size="10.00" fill="#000000">/cpu.h</text>
</a>
</g>
</g>
<!-- Node6&#45;&gt;Node7 -->
<g id="edge4" class="edge">
<title>Node6&#45;&gt;Node7</title>
<path fill="none" stroke="#191970" d="M374,-124.0249C374,-115.128 374,-105.4287 374,-97.6432"/>
<polygon fill="#191970" stroke="#191970" points="370.5001,-124.2966 374,-134.2967 377.5001,-124.2967 370.5001,-124.2966"/>
</g>
<!-- Node8 -->
<g id="node6" class="node">
<title>Node8</title>
<g id="a_node6"><a xlink:href="atmega__gpio_8h.html" target="_top" xlink:title="Macros and inline functions for accessing GPIOs of the ATmega family. ">
<polygon fill="none" stroke="#000000" points="140,-.5 140,-30.5 284,-30.5 284,-.5 140,-.5"/>
<text text-anchor="start" x="148" y="-18.5" font-family="Helvetica,sans-Serif" font-size="10.00" fill="#000000">cpu/atmega_common/include</text>
<text text-anchor="middle" x="212" y="-7.5" font-family="Helvetica,sans-Serif" font-size="10.00" fill="#000000">/atmega_gpio.h</text>
</a>
</g>
</g>
<!-- Node7&#45;&gt;Node8 -->
<g id="edge5" class="edge">
<title>Node7&#45;&gt;Node8</title>
<path fill="none" stroke="#191970" d="M328.2765,-63.5897C303.0386,-53.1518 272.1224,-40.3654 248.5145,-30.6017"/>
<polygon fill="#191970" stroke="#191970" points="327.0655,-66.8763 337.644,-67.4639 329.7408,-60.4077 327.0655,-66.8763"/>
</g>
<!-- Node9 -->
<g id="node7" class="node">
<title>Node9</title>
<g id="a_node7"><a xlink:href="atmega__common_2include_2irq__arch_8h.html" target="_top" xlink:title="Implementation of the kernels irq interface. ">
<polygon fill="none" stroke="#000000" points="302,-.5 302,-30.5 446,-30.5 446,-.5 302,-.5"/>
<text text-anchor="start" x="310" y="-18.5" font-family="Helvetica,sans-Serif" font-size="10.00" fill="#000000">cpu/atmega_common/include</text>
<text text-anchor="middle" x="374" y="-7.5" font-family="Helvetica,sans-Serif" font-size="10.00" fill="#000000">/irq_arch.h</text>
</a>
</g>
</g>
<!-- Node7&#45;&gt;Node9 -->
<g id="edge6" class="edge">
<title>Node7&#45;&gt;Node9</title>
<path fill="none" stroke="#191970" d="M374,-57.0249C374,-48.128 374,-38.4287 374,-30.6432"/>
<polygon fill="#191970" stroke="#191970" points="370.5001,-57.2966 374,-67.2967 377.5001,-57.2967 370.5001,-57.2966"/>
</g>
<!-- Node10 -->
<g id="node8" class="node">
<title>Node10</title>
<g id="a_node8"><a xlink:href="atmega__common_2include_2periph__cpu__common_8h.html" target="_top" xlink:title="CPU specific definitions for internal peripheral handling. ">
<polygon fill="none" stroke="#000000" points="464,-.5 464,-30.5 608,-30.5 608,-.5 464,-.5"/>
<text text-anchor="start" x="472" y="-18.5" font-family="Helvetica,sans-Serif" font-size="10.00" fill="#000000">cpu/atmega_common/include</text>
<text text-anchor="middle" x="536" y="-7.5" font-family="Helvetica,sans-Serif" font-size="10.00" fill="#000000">/periph_cpu_common.h</text>
</a>
</g>
</g>
<!-- Node7&#45;&gt;Node10 -->
<g id="edge7" class="edge">
<title>Node7&#45;&gt;Node10</title>
<path fill="none" stroke="#191970" d="M419.7235,-63.5897C444.9614,-53.1518 475.8776,-40.3654 499.4855,-30.6017"/>
<polygon fill="#191970" stroke="#191970" points="418.2592,-60.4077 410.356,-67.4639 420.9345,-66.8763 418.2592,-60.4077"/>
</g>
</g>
</svg>
