<?xml version="1.0" encoding="UTF-8" standalone="no"?>
<!DOCTYPE svg PUBLIC "-//W3C//DTD SVG 1.1//EN"
 "http://www.w3.org/Graphics/SVG/1.1/DTD/svg11.dtd">
<!-- Generated by graphviz version 2.43.0 (0)
 -->
<!-- Title: cpu/atmega_common/include/periph_cpu_common.h Pages: 1 -->
<svg width="696pt" height="263pt"
 viewBox="0.00 0.00 695.50 263.00" xmlns="http://www.w3.org/2000/svg" xmlns:xlink="http://www.w3.org/1999/xlink">
<g id="graph0" class="graph" transform="scale(1 1) rotate(0) translate(4 259)">
<title>cpu/atmega_common/include/periph_cpu_common.h</title>
<!-- Node1 -->
<g id="node1" class="node">
<title>Node1</title>
<g id="a_node1"><a xlink:title="CPU specific definitions for internal peripheral handling.">
<polygon fill="#bfbfbf" stroke="black" points="151.5,-224.5 151.5,-254.5 312.5,-254.5 312.5,-224.5 151.5,-224.5"/>
<text text-anchor="start" x="159.5" y="-242.5" font-family="Helvetica,sans-Serif" font-size="10.00">cpu/atmega_common/include</text>
<text text-anchor="middle" x="232" y="-231.5" font-family="Helvetica,sans-Serif" font-size="10.00">/periph_cpu_common.h</text>
</a>
</g>
</g>
<!-- Node2 -->
<g id="node2" class="node">
<title>Node2</title>
<g id="a_node2"><a xlink:href="atmega__common_2include_2cpu_8h.html" target="_top" xlink:title="Common implementations and headers for ATmega family based micro&#45;controllers.">
<polygon fill="none" stroke="black" points="210.5,-168.5 210.5,-187.5 253.5,-187.5 253.5,-168.5 210.5,-168.5"/>
<text text-anchor="middle" x="232" y="-175.5" font-family="Helvetica,sans-Serif" font-size="10.00">cpu.h</text>
</a>
</g>
</g>
<!-- Node1&#45;&gt;Node2 -->
<g id="edge1" class="edge">
<title>Node1&#45;&gt;Node2</title>
<path fill="none" stroke="midnightblue" d="M232,-224.4C232,-216.47 232,-206.46 232,-197.86"/>
<polygon fill="midnightblue" stroke="midnightblue" points="235.5,-197.66 232,-187.66 228.5,-197.66 235.5,-197.66"/>
</g>
<!-- Node3 -->
<g id="node3" class="node">
<title>Node3</title>
<g id="a_node3"><a xlink:title=" ">
<polygon fill="none" stroke="#bfbfbf" points="0,-112.5 0,-131.5 50,-131.5 50,-112.5 0,-112.5"/>
<text text-anchor="middle" x="25" y="-119.5" font-family="Helvetica,sans-Serif" font-size="10.00">stdio.h</text>
</a>
</g>
</g>
<!-- Node2&#45;&gt;Node3 -->
<g id="edge2" class="edge">
<title>Node2&#45;&gt;Node3</title>
<path fill="none" stroke="midnightblue" d="M210.42,-171.42C179.4,-163.39 120.16,-148.03 60.25,-132.32"/>
<polygon fill="midnightblue" stroke="midnightblue" points="60.81,-128.85 50.25,-129.7 59.03,-135.62 60.81,-128.85"/>
</g>
<!-- Node4 -->
<g id="node4" class="node">
<title>Node4</title>
<g id="a_node4"><a xlink:title=" ">
<polygon fill="none" stroke="#bfbfbf" points="280.5,-0.5 280.5,-19.5 333.5,-19.5 333.5,-0.5 280.5,-0.5"/>
<text text-anchor="middle" x="307" y="-7.5" font-family="Helvetica,sans-Serif" font-size="10.00">stdint.h</text>
</a>
</g>
</g>
<!-- Node2&#45;&gt;Node4 -->
<g id="edge3" class="edge">
<title>Node2&#45;&gt;Node4</title>
<path fill="none" stroke="midnightblue" d="M236.03,-168.08C247.89,-141.83 282.81,-64.55 298.81,-29.12"/>
<polygon fill="midnightblue" stroke="midnightblue" points="302.2,-30.12 303.13,-19.57 295.82,-27.24 302.2,-30.12"/>
</g>
<!-- Node5 -->
<g id="node5" class="node">
<title>Node5</title>
<g id="a_node5"><a xlink:title=" ">
<polygon fill="none" stroke="#bfbfbf" points="154,-112.5 154,-131.5 240,-131.5 240,-112.5 154,-112.5"/>
<text text-anchor="middle" x="197" y="-119.5" font-family="Helvetica,sans-Serif" font-size="10.00">avr/interrupt.h</text>
</a>
</g>
</g>
<!-- Node2&#45;&gt;Node5 -->
<g id="edge4" class="edge">
<title>Node2&#45;&gt;Node5</title>
<path fill="none" stroke="midnightblue" d="M226.22,-168.08C221.33,-160.53 214.17,-149.49 208.17,-140.23"/>
<polygon fill="midnightblue" stroke="midnightblue" points="211.05,-138.24 202.67,-131.75 205.17,-142.05 211.05,-138.24"/>
</g>
<!-- Node6 -->
<g id="node6" class="node">
<title>Node6</title>
<g id="a_node6"><a xlink:href="atmega__common_2include_2cpu__conf_8h.html" target="_top" xlink:title="Implementation specific CPU configuration options.">
<polygon fill="none" stroke="black" points="68,-112.5 68,-131.5 136,-131.5 136,-112.5 68,-112.5"/>
<text text-anchor="middle" x="102" y="-119.5" font-family="Helvetica,sans-Serif" font-size="10.00">cpu_conf.h</text>
</a>
</g>
</g>
<!-- Node2&#45;&gt;Node6 -->
<g id="edge5" class="edge">
<title>Node2&#45;&gt;Node6</title>
<path fill="none" stroke="midnightblue" d="M211.4,-168.44C190.01,-159.56 156.32,-145.56 131.98,-135.45"/>
<polygon fill="midnightblue" stroke="midnightblue" points="133.08,-132.12 122.5,-131.52 130.39,-138.58 133.08,-132.12"/>
</g>
<!-- Node10 -->
<g id="node10" class="node">
<title>Node10</title>
<g id="a_node10"><a xlink:href="sched_8h.html" target="_top" xlink:title="Scheduler API definition.">
<polygon fill="none" stroke="black" points="430,-112.5 430,-131.5 484,-131.5 484,-112.5 430,-112.5"/>
<text text-anchor="middle" x="457" y="-119.5" font-family="Helvetica,sans-Serif" font-size="10.00">sched.h</text>
</a>
</g>
</g>
<!-- Node2&#45;&gt;Node10 -->
<g id="edge9" class="edge">
<title>Node2&#45;&gt;Node10</title>
<path fill="none" stroke="midnightblue" d="M253.57,-171.82C292,-162.6 372.7,-143.23 420.1,-131.86"/>
<polygon fill="midnightblue" stroke="midnightblue" points="421.05,-135.23 429.96,-129.49 419.42,-128.42 421.05,-135.23"/>
</g>
<!-- Node17 -->
<g id="node17" class="node">
<title>Node17</title>
<g id="a_node17"><a xlink:title=" ">
<polygon fill="none" stroke="#bfbfbf" points="502.5,-112.5 502.5,-131.5 559.5,-131.5 559.5,-112.5 502.5,-112.5"/>
<text text-anchor="middle" x="531" y="-119.5" font-family="Helvetica,sans-Serif" font-size="10.00">thread.h</text>
</a>
</g>
</g>
<!-- Node2&#45;&gt;Node17 -->
<g id="edge19" class="edge">
<title>Node2&#45;&gt;Node17</title>
<path fill="none" stroke="midnightblue" d="M253.74,-173.72C297.08,-167.07 397.52,-151.19 492.36,-132.02"/>
<polygon fill="midnightblue" stroke="midnightblue" points="493.31,-135.4 502.41,-129.97 491.91,-128.54 493.31,-135.4"/>
</g>
<!-- Node7 -->
<g id="node7" class="node">
<title>Node7</title>
<g id="a_node7"><a xlink:href="atmega__regs__common_8h.html" target="_top" xlink:title="CMSIS style register definitions for the atmega family.">
<polygon fill="none" stroke="black" points="33.5,-56.5 33.5,-75.5 170.5,-75.5 170.5,-56.5 33.5,-56.5"/>
<text text-anchor="middle" x="102" y="-63.5" font-family="Helvetica,sans-Serif" font-size="10.00">atmega_regs_common.h</text>
</a>
</g>
</g>
<!-- Node6&#45;&gt;Node7 -->
<g id="edge6" class="edge">
<title>Node6&#45;&gt;Node7</title>
<path fill="none" stroke="midnightblue" d="M102,-112.08C102,-105.01 102,-94.86 102,-85.99"/>
<polygon fill="midnightblue" stroke="midnightblue" points="105.5,-85.75 102,-75.75 98.5,-85.75 105.5,-85.75"/>
</g>
<!-- Node8 -->
<g id="node8" class="node">
<title>Node8</title>
<g id="a_node8"><a xlink:title=" ">
<polygon fill="none" stroke="#bfbfbf" points="116.5,-0.5 116.5,-19.5 169.5,-19.5 169.5,-0.5 116.5,-0.5"/>
<text text-anchor="middle" x="143" y="-7.5" font-family="Helvetica,sans-Serif" font-size="10.00">avr/io.h</text>
</a>
</g>
</g>
<!-- Node7&#45;&gt;Node8 -->
<g id="edge7" class="edge">
<title>Node7&#45;&gt;Node8</title>
<path fill="none" stroke="midnightblue" d="M108.77,-56.08C114.56,-48.46 123.06,-37.26 130.14,-27.94"/>
<polygon fill="midnightblue" stroke="midnightblue" points="133.1,-29.83 136.36,-19.75 127.52,-25.6 133.1,-29.83"/>
</g>
<!-- Node9 -->
<g id="node9" class="node">
<title>Node9</title>
<g id="a_node9"><a xlink:title=" ">
<polygon fill="none" stroke="#bfbfbf" points="24,-0.5 24,-19.5 98,-19.5 98,-0.5 24,-0.5"/>
<text text-anchor="middle" x="61" y="-7.5" font-family="Helvetica,sans-Serif" font-size="10.00">avr/power.h</text>
</a>
</g>
</g>
<!-- Node7&#45;&gt;Node9 -->
<g id="edge8" class="edge">
<title>Node7&#45;&gt;Node9</title>
<path fill="none" stroke="midnightblue" d="M95.23,-56.08C89.44,-48.46 80.94,-37.26 73.86,-27.94"/>
<polygon fill="midnightblue" stroke="midnightblue" points="76.48,-25.6 67.64,-19.75 70.9,-29.83 76.48,-25.6"/>
</g>
<!-- Node11 -->
<g id="node11" class="node">
<title>Node11</title>
<g id="a_node11"><a xlink:title=" ">
<polygon fill="none" stroke="#bfbfbf" points="494,-0.5 494,-19.5 550,-19.5 550,-0.5 494,-0.5"/>
<text text-anchor="middle" x="522" y="-7.5" font-family="Helvetica,sans-Serif" font-size="10.00">stddef.h</text>
</a>
</g>
</g>
<!-- Node10&#45;&gt;Node11 -->
<g id="edge10" class="edge">
<title>Node10&#45;&gt;Node11</title>
<path fill="none" stroke="midnightblue" d="M472.41,-112.41C484.9,-104.59 501.88,-91.87 511,-76 519.11,-61.89 521.61,-43.4 522.22,-29.75"/>
<polygon fill="midnightblue" stroke="midnightblue" points="525.72,-29.68 522.38,-19.63 518.72,-29.57 525.72,-29.68"/>
</g>
<!-- Node12 -->
<g id="node12" class="node">
<title>Node12</title>
<g id="a_node12"><a xlink:href="inttypes_8h.html" target="_top" xlink:title="Adds include for missing inttype definitions.">
<polygon fill="none" stroke="black" points="622.5,-56.5 622.5,-75.5 687.5,-75.5 687.5,-56.5 622.5,-56.5"/>
<text text-anchor="middle" x="655" y="-63.5" font-family="Helvetica,sans-Serif" font-size="10.00">inttypes.h</text>
</a>
</g>
</g>
<!-- Node10&#45;&gt;Node12 -->
<g id="edge11" class="edge">
<title>Node10&#45;&gt;Node12</title>
<path fill="none" stroke="midnightblue" d="M484.12,-113.6C517.56,-104.48 574.75,-88.89 613.68,-78.27"/>
<polygon fill="midnightblue" stroke="midnightblue" points="614.92,-81.56 623.65,-75.55 613.08,-74.81 614.92,-81.56"/>
</g>
<!-- Node13 -->
<g id="node13" class="node">
<title>Node13</title>
<g id="a_node13"><a xlink:href="kernel__defines_8h.html" target="_top" xlink:title="Common macros and compiler attributes/pragmas configuration.">
<polygon fill="none" stroke="black" points="296.5,-56.5 296.5,-75.5 393.5,-75.5 393.5,-56.5 296.5,-56.5"/>
<text text-anchor="middle" x="345" y="-63.5" font-family="Helvetica,sans-Serif" font-size="10.00">kernel_defines.h</text>
</a>
</g>
</g>
<!-- Node10&#45;&gt;Node13 -->
<g id="edge12" class="edge">
<title>Node10&#45;&gt;Node13</title>
<path fill="none" stroke="midnightblue" d="M439.01,-112.32C420.96,-103.62 392.95,-90.12 372.2,-80.11"/>
<polygon fill="midnightblue" stroke="midnightblue" points="373.48,-76.84 362.95,-75.65 370.44,-83.15 373.48,-76.84"/>
</g>
<!-- Node14 -->
<g id="node14" class="node">
<title>Node14</title>
<g id="a_node14"><a xlink:href="native__sched_8h.html" target="_top" xlink:title="Add definitions required on the native board.">
<polygon fill="none" stroke="black" points="412,-56.5 412,-75.5 502,-75.5 502,-56.5 412,-56.5"/>
<text text-anchor="middle" x="457" y="-63.5" font-family="Helvetica,sans-Serif" font-size="10.00">native_sched.h</text>
</a>
</g>
</g>
<!-- Node10&#45;&gt;Node14 -->
<g id="edge15" class="edge">
<title>Node10&#45;&gt;Node14</title>
<path fill="none" stroke="midnightblue" d="M457,-112.08C457,-105.01 457,-94.86 457,-85.99"/>
<polygon fill="midnightblue" stroke="midnightblue" points="460.5,-85.75 457,-75.75 453.5,-85.75 460.5,-85.75"/>
</g>
<!-- Node15 -->
<g id="node15" class="node">
<title>Node15</title>
<g id="a_node15"><a xlink:href="clist_8h.html" target="_top" xlink:title="Circular linked list.">
<polygon fill="none" stroke="black" points="558,-56.5 558,-75.5 604,-75.5 604,-56.5 558,-56.5"/>
<text text-anchor="middle" x="581" y="-63.5" font-family="Helvetica,sans-Serif" font-size="10.00">clist.h</text>
</a>
</g>
</g>
<!-- Node10&#45;&gt;Node15 -->
<g id="edge16" class="edge">
<title>Node10&#45;&gt;Node15</title>
<path fill="none" stroke="midnightblue" d="M476.65,-112.44C496.96,-103.6 528.9,-89.69 552.1,-79.59"/>
<polygon fill="midnightblue" stroke="midnightblue" points="553.67,-82.72 561.44,-75.52 550.88,-76.3 553.67,-82.72"/>
</g>
<!-- Node13&#45;&gt;Node4 -->
<g id="edge14" class="edge">
<title>Node13&#45;&gt;Node4</title>
<path fill="none" stroke="midnightblue" d="M338.73,-56.08C333.36,-48.46 325.48,-37.26 318.92,-27.94"/>
<polygon fill="midnightblue" stroke="midnightblue" points="321.78,-25.91 313.16,-19.75 316.05,-29.94 321.78,-25.91"/>
</g>
<!-- Node13&#45;&gt;Node11 -->
<g id="edge13" class="edge">
<title>Node13&#45;&gt;Node11</title>
<path fill="none" stroke="midnightblue" d="M373.05,-56.44C403.08,-47.28 450.91,-32.69 484.24,-22.52"/>
<polygon fill="midnightblue" stroke="midnightblue" points="485.54,-25.78 494.09,-19.52 483.5,-19.09 485.54,-25.78"/>
</g>
<!-- Node15&#45;&gt;Node11 -->
<g id="edge17" class="edge">
<title>Node15&#45;&gt;Node11</title>
<path fill="none" stroke="midnightblue" d="M571.52,-56.32C562.8,-48.34 549.66,-36.31 539.1,-26.65"/>
<polygon fill="midnightblue" stroke="midnightblue" points="541.39,-24 531.65,-19.83 536.67,-29.17 541.39,-24"/>
</g>
<!-- Node16 -->
<g id="node16" class="node">
<title>Node16</title>
<g id="a_node16"><a xlink:href="list_8h.html" target="_top" xlink:title="Intrusive linked list.">
<polygon fill="none" stroke="black" points="568.5,-0.5 568.5,-19.5 609.5,-19.5 609.5,-0.5 568.5,-0.5"/>
<text text-anchor="middle" x="589" y="-7.5" font-family="Helvetica,sans-Serif" font-size="10.00">list.h</text>
</a>
</g>
</g>
<!-- Node15&#45;&gt;Node16 -->
<g id="edge18" class="edge">
<title>Node15&#45;&gt;Node16</title>
<path fill="none" stroke="midnightblue" d="M582.32,-56.08C583.38,-48.93 584.91,-38.64 586.23,-29.69"/>
<polygon fill="midnightblue" stroke="midnightblue" points="589.7,-30.16 587.7,-19.75 582.78,-29.13 589.7,-30.16"/>
</g>
</g>
</svg>
