<?xml version="1.0" encoding="UTF-8" standalone="no"?>
<!DOCTYPE svg PUBLIC "-//W3C//DTD SVG 1.1//EN"
 "http://www.w3.org/Graphics/SVG/1.1/DTD/svg11.dtd">
<!-- Generated by graphviz version 2.43.0 (0)
 -->
<!-- Title: cpu/atmega1284p/include/periph_cpu.h Pages: 1 -->
<svg width="251pt" height="151pt"
 viewBox="0.00 0.00 250.50 151.00" xmlns="http://www.w3.org/2000/svg" xmlns:xlink="http://www.w3.org/1999/xlink">
<g id="graph0" class="graph" transform="scale(1 1) rotate(0) translate(4 147)">
<title>cpu/atmega1284p/include/periph_cpu.h</title>
<!-- Node1 -->
<g id="node1" class="node">
<title>Node1</title>
<g id="a_node1"><a xlink:title="CPU specific definitions for internal peripheral handling.">
<polygon fill="#bfbfbf" stroke="black" points="54,-112.5 54,-142.5 197,-142.5 197,-112.5 54,-112.5"/>
<text text-anchor="start" x="62" y="-130.5" font-family="Helvetica,sans-Serif" font-size="10.00">cpu/atmega1284p/include</text>
<text text-anchor="middle" x="125.5" y="-119.5" font-family="Helvetica,sans-Serif" font-size="10.00">/periph_cpu.h</text>
</a>
</g>
</g>
<!-- Node2 -->
<g id="node2" class="node">
<title>Node2</title>
<g id="a_node2"><a xlink:title=" ">
<polygon fill="none" stroke="#bfbfbf" points="0,-0.5 0,-19.5 127,-19.5 127,-0.5 0,-0.5"/>
<text text-anchor="middle" x="63.5" y="-7.5" font-family="Helvetica,sans-Serif" font-size="10.00">periph_cpu_common.h</text>
</a>
</g>
</g>
<!-- Node1&#45;&gt;Node2 -->
<g id="edge1" class="edge">
<title>Node1&#45;&gt;Node2</title>
<path fill="none" stroke="midnightblue" d="M92.09,-112.34C77.11,-104.09 60.94,-92.11 52.5,-76 44.79,-61.3 49.35,-42.39 54.75,-28.76"/>
<polygon fill="midnightblue" stroke="midnightblue" points="57.99,-30.09 58.85,-19.53 51.59,-27.25 57.99,-30.09"/>
</g>
<!-- Node3 -->
<g id="node3" class="node">
<title>Node3</title>
<g id="a_node3"><a xlink:title=" ">
<polygon fill="none" stroke="#bfbfbf" points="160.5,-0.5 160.5,-19.5 242.5,-19.5 242.5,-0.5 160.5,-0.5"/>
<text text-anchor="middle" x="201.5" y="-7.5" font-family="Helvetica,sans-Serif" font-size="10.00">periph_conf.h</text>
</a>
</g>
</g>
<!-- Node1&#45;&gt;Node3 -->
<g id="edge2" class="edge">
<title>Node1&#45;&gt;Node3</title>
<path fill="none" stroke="midnightblue" d="M158.21,-112.37C173.22,-104.08 189.61,-92.04 198.5,-76 206.28,-61.95 206.35,-43.45 204.86,-29.79"/>
<polygon fill="midnightblue" stroke="midnightblue" points="208.29,-29.04 203.39,-19.65 201.36,-30.04 208.29,-29.04"/>
</g>
<!-- Node4 -->
<g id="node4" class="node">
<title>Node4</title>
<g id="a_node4"><a xlink:href="atmega1284p_2include_2default__timer__config_8h.html" target="_top" xlink:title="Default timer configuration.">
<polygon fill="none" stroke="black" points="62,-56.5 62,-75.5 189,-75.5 189,-56.5 62,-56.5"/>
<text text-anchor="middle" x="125.5" y="-63.5" font-family="Helvetica,sans-Serif" font-size="10.00">default_timer_config.h</text>
</a>
</g>
</g>
<!-- Node1&#45;&gt;Node4 -->
<g id="edge3" class="edge">
<title>Node1&#45;&gt;Node4</title>
<path fill="none" stroke="midnightblue" d="M125.5,-112.4C125.5,-104.47 125.5,-94.46 125.5,-85.86"/>
<polygon fill="midnightblue" stroke="midnightblue" points="129,-85.66 125.5,-75.66 122,-85.66 129,-85.66"/>
</g>
<!-- Node4&#45;&gt;Node2 -->
<g id="edge4" class="edge">
<title>Node4&#45;&gt;Node2</title>
<path fill="none" stroke="midnightblue" d="M115.54,-56.32C106.37,-48.34 92.56,-36.31 81.47,-26.65"/>
<polygon fill="midnightblue" stroke="midnightblue" points="83.48,-23.76 73.64,-19.83 78.88,-29.04 83.48,-23.76"/>
</g>
<!-- Node4&#45;&gt;Node3 -->
<g id="edge5" class="edge">
<title>Node4&#45;&gt;Node3</title>
<path fill="none" stroke="midnightblue" d="M137.71,-56.32C149.28,-48.11 166.88,-35.6 180.66,-25.81"/>
<polygon fill="midnightblue" stroke="midnightblue" points="182.94,-28.48 189.07,-19.83 178.89,-22.77 182.94,-28.48"/>
</g>
</g>
</svg>
