<?xml version="1.0" encoding="UTF-8" standalone="no"?>
<!DOCTYPE svg PUBLIC "-//W3C//DTD SVG 1.1//EN"
 "http://www.w3.org/Graphics/SVG/1.1/DTD/svg11.dtd">
<!-- Generated by graphviz version 2.43.0 (0)
 -->
<!-- Title: boards/avsextrem/include/board.h Pages: 1 -->
<svg width="329pt" height="263pt"
 viewBox="0.00 0.00 328.50 263.00" xmlns="http://www.w3.org/2000/svg" xmlns:xlink="http://www.w3.org/1999/xlink">
<g id="graph0" class="graph" transform="scale(1 1) rotate(0) translate(4 259)">
<title>boards/avsextrem/include/board.h</title>
<!-- Node1 -->
<g id="node1" class="node">
<title>Node1</title>
<g id="a_node1"><a xlink:title="Boards specific drivers and configuration for the Avsextrem board.">
<polygon fill="#bfbfbf" stroke="black" points="155,-224.5 155,-254.5 298,-254.5 298,-224.5 155,-224.5"/>
<text text-anchor="start" x="163" y="-242.5" font-family="Helvetica,sans-Serif" font-size="10.00">boards/avsextrem/include</text>
<text text-anchor="middle" x="226.5" y="-231.5" font-family="Helvetica,sans-Serif" font-size="10.00">/board.h</text>
</a>
</g>
</g>
<!-- Node2 -->
<g id="node2" class="node">
<title>Node2</title>
<g id="a_node2"><a xlink:href="lpc23xx_8h_source.html" target="_top" xlink:title=" ">
<polygon fill="none" stroke="black" points="164.5,-168.5 164.5,-187.5 228.5,-187.5 228.5,-168.5 164.5,-168.5"/>
<text text-anchor="middle" x="196.5" y="-175.5" font-family="Helvetica,sans-Serif" font-size="10.00">lpc23xx.h</text>
</a>
</g>
</g>
<!-- Node1&#45;&gt;Node2 -->
<g id="edge1" class="edge">
<title>Node1&#45;&gt;Node2</title>
<path fill="none" stroke="midnightblue" d="M219.39,-224.4C215.21,-216.11 209.89,-205.55 205.43,-196.71"/>
<polygon fill="midnightblue" stroke="midnightblue" points="208.49,-195.01 200.87,-187.66 202.24,-198.16 208.49,-195.01"/>
</g>
<!-- Node5 -->
<g id="node5" class="node">
<title>Node5</title>
<g id="a_node5"><a xlink:href="bitarithm_8h.html" target="_top" xlink:title="Helper functions for bit arithmetic.">
<polygon fill="none" stroke="black" points="211,-56.5 211,-75.5 282,-75.5 282,-56.5 211,-56.5"/>
<text text-anchor="middle" x="246.5" y="-63.5" font-family="Helvetica,sans-Serif" font-size="10.00">bitarithm.h</text>
</a>
</g>
</g>
<!-- Node1&#45;&gt;Node5 -->
<g id="edge8" class="edge">
<title>Node1&#45;&gt;Node5</title>
<path fill="none" stroke="midnightblue" d="M229.92,-224.42C232.29,-214.32 235.38,-200.38 237.5,-188 241.73,-163.28 242.56,-157.01 244.5,-132 245.7,-116.5 246.19,-98.88 246.38,-85.89"/>
<polygon fill="midnightblue" stroke="midnightblue" points="249.89,-85.88 246.49,-75.85 242.89,-85.81 249.89,-85.88"/>
</g>
<!-- Node3 -->
<g id="node3" class="node">
<title>Node3</title>
<g id="a_node3"><a xlink:title=" ">
<polygon fill="none" stroke="#bfbfbf" points="0,-112.5 0,-131.5 101,-131.5 101,-112.5 0,-112.5"/>
<text text-anchor="middle" x="50.5" y="-119.5" font-family="Helvetica,sans-Serif" font-size="10.00">vendor/lpc23xx.h</text>
</a>
</g>
</g>
<!-- Node2&#45;&gt;Node3 -->
<g id="edge2" class="edge">
<title>Node2&#45;&gt;Node3</title>
<path fill="none" stroke="midnightblue" d="M173.37,-168.44C149.02,-159.44 110.49,-145.19 83.08,-135.05"/>
<polygon fill="midnightblue" stroke="midnightblue" points="84.12,-131.7 73.53,-131.52 81.69,-138.27 84.12,-131.7"/>
</g>
<!-- Node4 -->
<g id="node4" class="node">
<title>Node4</title>
<g id="a_node4"><a xlink:href="arm7__common_8h.html" target="_top" xlink:title="ARM7 CPU common declarations.">
<polygon fill="none" stroke="black" points="119,-112.5 119,-131.5 218,-131.5 218,-112.5 119,-112.5"/>
<text text-anchor="middle" x="168.5" y="-119.5" font-family="Helvetica,sans-Serif" font-size="10.00">arm7_common.h</text>
</a>
</g>
</g>
<!-- Node2&#45;&gt;Node4 -->
<g id="edge3" class="edge">
<title>Node2&#45;&gt;Node4</title>
<path fill="none" stroke="midnightblue" d="M191.88,-168.08C188.04,-160.69 182.48,-149.95 177.74,-140.81"/>
<polygon fill="midnightblue" stroke="midnightblue" points="180.75,-139.02 173.04,-131.75 174.53,-142.24 180.75,-139.02"/>
</g>
<!-- Node2&#45;&gt;Node5 -->
<g id="edge7" class="edge">
<title>Node2&#45;&gt;Node5</title>
<path fill="none" stroke="midnightblue" d="M203.82,-168.22C210.76,-159.51 221.06,-145.54 227.5,-132 234.6,-117.07 239.63,-98.93 242.73,-85.61"/>
<polygon fill="midnightblue" stroke="midnightblue" points="246.17,-86.25 244.87,-75.73 239.33,-84.76 246.17,-86.25"/>
</g>
<!-- Node4&#45;&gt;Node5 -->
<g id="edge4" class="edge">
<title>Node4&#45;&gt;Node5</title>
<path fill="none" stroke="midnightblue" d="M181.03,-112.32C193.09,-103.98 211.53,-91.21 225.77,-81.35"/>
<polygon fill="midnightblue" stroke="midnightblue" points="227.77,-84.22 234,-75.65 223.78,-78.47 227.77,-84.22"/>
</g>
<!-- Node6 -->
<g id="node6" class="node">
<title>Node6</title>
<g id="a_node6"><a xlink:title=" ">
<polygon fill="none" stroke="#bfbfbf" points="181,-0.5 181,-19.5 234,-19.5 234,-0.5 181,-0.5"/>
<text text-anchor="middle" x="207.5" y="-7.5" font-family="Helvetica,sans-Serif" font-size="10.00">stdint.h</text>
</a>
</g>
</g>
<!-- Node5&#45;&gt;Node6 -->
<g id="edge5" class="edge">
<title>Node5&#45;&gt;Node6</title>
<path fill="none" stroke="midnightblue" d="M240.06,-56.08C234.55,-48.46 226.47,-37.26 219.74,-27.94"/>
<polygon fill="midnightblue" stroke="midnightblue" points="222.51,-25.81 213.82,-19.75 216.84,-29.91 222.51,-25.81"/>
</g>
<!-- Node7 -->
<g id="node7" class="node">
<title>Node7</title>
<g id="a_node7"><a xlink:title=" ">
<polygon fill="none" stroke="#bfbfbf" points="252.5,-0.5 252.5,-19.5 320.5,-19.5 320.5,-0.5 252.5,-0.5"/>
<text text-anchor="middle" x="286.5" y="-7.5" font-family="Helvetica,sans-Serif" font-size="10.00">cpu_conf.h</text>
</a>
</g>
</g>
<!-- Node5&#45;&gt;Node7 -->
<g id="edge6" class="edge">
<title>Node5&#45;&gt;Node7</title>
<path fill="none" stroke="midnightblue" d="M253.11,-56.08C258.76,-48.46 267.04,-37.26 273.95,-27.94"/>
<polygon fill="midnightblue" stroke="midnightblue" points="276.88,-29.87 280.02,-19.75 271.25,-25.7 276.88,-29.87"/>
</g>
</g>
</svg>
