<?xml version="1.0" encoding="UTF-8" standalone="no"?>
<!DOCTYPE svg PUBLIC "-//W3C//DTD SVG 1.1//EN"
 "http://www.w3.org/Graphics/SVG/1.1/DTD/svg11.dtd">
<!-- Generated by graphviz version 2.40.1 (20161225.0304)
 -->
<!-- Title: pkg/driver_bme680/include/bme680_hal.h Pages: 1 -->
<svg width="141pt" height="162pt"
 viewBox="0.00 0.00 141.00 162.00" xmlns="http://www.w3.org/2000/svg" xmlns:xlink="http://www.w3.org/1999/xlink">
<g id="graph0" class="graph" transform="scale(1 1) rotate(0) translate(4 158)">
<title>pkg/driver_bme680/include/bme680_hal.h</title>
<!-- Node1 -->
<g id="node1" class="node">
<title>Node1</title>
<polygon fill="#bfbfbf" stroke="#000000" points="0,-123.5 0,-153.5 133,-153.5 133,-123.5 0,-123.5"/>
<text text-anchor="start" x="8" y="-141.5" font-family="Helvetica,sans-Serif" font-size="10.00" fill="#000000">pkg/driver_bme680/include</text>
<text text-anchor="middle" x="66.5" y="-130.5" font-family="Helvetica,sans-Serif" font-size="10.00" fill="#000000">/bme680_hal.h</text>
</g>
<!-- Node2 -->
<g id="node2" class="node">
<title>Node2</title>
<g id="a_node2"><a xlink:href="bme680_8h.html" target="_top" xlink:title="Interface definition for the Bosch BME680 sensor. ">
<polygon fill="none" stroke="#000000" points="4,-67.5 4,-86.5 129,-86.5 129,-67.5 4,-67.5"/>
<text text-anchor="middle" x="66.5" y="-74.5" font-family="Helvetica,sans-Serif" font-size="10.00" fill="#000000">drivers/include/bme680.h</text>
</a>
</g>
</g>
<!-- Node1&#45;&gt;Node2 -->
<g id="edge1" class="edge">
<title>Node1&#45;&gt;Node2</title>
<path fill="none" stroke="#191970" d="M66.5,-113.2849C66.5,-103.9858 66.5,-93.9883 66.5,-86.8469"/>
<polygon fill="#191970" stroke="#191970" points="63.0001,-113.2977 66.5,-123.2977 70.0001,-113.2978 63.0001,-113.2977"/>
</g>
<!-- Node3 -->
<g id="node3" class="node">
<title>Node3</title>
<g id="a_node3"><a xlink:href="bme680__params_8h.html" target="_top" xlink:title="Default configuration for BME680 device driver. ">
<polygon fill="none" stroke="#000000" points="8,-.5 8,-30.5 125,-30.5 125,-.5 8,-.5"/>
<text text-anchor="start" x="16" y="-18.5" font-family="Helvetica,sans-Serif" font-size="10.00" fill="#000000">drivers/bme680/include</text>
<text text-anchor="middle" x="66.5" y="-7.5" font-family="Helvetica,sans-Serif" font-size="10.00" fill="#000000">/bme680_params.h</text>
</a>
</g>
</g>
<!-- Node2&#45;&gt;Node3 -->
<g id="edge2" class="edge">
<title>Node2&#45;&gt;Node3</title>
<path fill="none" stroke="#191970" d="M66.5,-57.3693C66.5,-48.681 66.5,-38.6241 66.5,-30.5446"/>
<polygon fill="#191970" stroke="#191970" points="63.0001,-57.3906 66.5,-67.3906 70.0001,-57.3907 63.0001,-57.3906"/>
</g>
</g>
</svg>
