<?xml version="1.0" encoding="UTF-8" standalone="no"?>
<!DOCTYPE svg PUBLIC "-//W3C//DTD SVG 1.1//EN"
 "http://www.w3.org/Graphics/SVG/1.1/DTD/svg11.dtd">
<!-- Generated by graphviz version 2.43.0 (0)
 -->
<!-- Title: boards/stm32f769i&#45;disco/include/periph_conf.h Pages: 1 -->
<svg width="623pt" height="162pt"
 viewBox="0.00 0.00 623.00 162.00" xmlns="http://www.w3.org/2000/svg" xmlns:xlink="http://www.w3.org/1999/xlink">
<g id="graph0" class="graph" transform="scale(1 1) rotate(0) translate(4 158)">
<title>boards/stm32f769i&#45;disco/include/periph_conf.h</title>
<!-- Node1 -->
<g id="node1" class="node">
<title>Node1</title>
<g id="a_node1"><a xlink:title="Peripheral MCU configuration for the STM32F769I&#45;DISCO board.">
<polygon fill="#bfbfbf" stroke="black" points="263.5,-123.5 263.5,-153.5 400.5,-153.5 400.5,-123.5 263.5,-123.5"/>
<text text-anchor="start" x="271.5" y="-141.5" font-family="Helvetica,sans-Serif" font-size="10.00">boards/stm32f769i&#45;disco</text>
<text text-anchor="middle" x="332" y="-130.5" font-family="Helvetica,sans-Serif" font-size="10.00">/include/periph_conf.h</text>
</a>
</g>
</g>
<!-- Node2 -->
<g id="node2" class="node">
<title>Node2</title>
<g id="a_node2"><a xlink:title=" ">
<polygon fill="none" stroke="#bfbfbf" points="409.5,-0.5 409.5,-19.5 488.5,-19.5 488.5,-0.5 409.5,-0.5"/>
<text text-anchor="middle" x="449" y="-7.5" font-family="Helvetica,sans-Serif" font-size="10.00">periph_cpu.h</text>
</a>
</g>
</g>
<!-- Node1&#45;&gt;Node2 -->
<g id="edge1" class="edge">
<title>Node1&#45;&gt;Node2</title>
<path fill="none" stroke="midnightblue" d="M309.81,-123.4C286.69,-106.95 256.12,-79.06 274,-56 289.28,-36.29 353.07,-23.71 399.23,-17"/>
<polygon fill="midnightblue" stroke="midnightblue" points="399.95,-20.43 409.37,-15.58 398.98,-13.5 399.95,-20.43"/>
</g>
<!-- Node3 -->
<g id="node3" class="node">
<title>Node3</title>
<g id="a_node3"><a xlink:href="cfg__clock__default__216_8h.html" target="_top" xlink:title="Default STM32F7 clock configuration for 216MHz boards.">
<polygon fill="none" stroke="black" points="93,-56.5 93,-86.5 227,-86.5 227,-56.5 93,-56.5"/>
<text text-anchor="start" x="101" y="-74.5" font-family="Helvetica,sans-Serif" font-size="10.00">f2f4f7/cfg_clock_default</text>
<text text-anchor="middle" x="160" y="-63.5" font-family="Helvetica,sans-Serif" font-size="10.00">_216.h</text>
</a>
</g>
</g>
<!-- Node1&#45;&gt;Node3 -->
<g id="edge2" class="edge">
<title>Node1&#45;&gt;Node3</title>
<path fill="none" stroke="midnightblue" d="M294.68,-123.4C268.87,-113.64 234.34,-100.59 206.71,-90.15"/>
<polygon fill="midnightblue" stroke="midnightblue" points="207.84,-86.84 197.25,-86.58 205.37,-93.39 207.84,-86.84"/>
</g>
<!-- Node6 -->
<g id="node6" class="node">
<title>Node6</title>
<g id="a_node6"><a xlink:title=" ">
<polygon fill="none" stroke="#bfbfbf" points="283.5,-62 283.5,-81 380.5,-81 380.5,-62 283.5,-62"/>
<text text-anchor="middle" x="332" y="-69" font-family="Helvetica,sans-Serif" font-size="10.00">cfg_rtt_default.h</text>
</a>
</g>
</g>
<!-- Node1&#45;&gt;Node6 -->
<g id="edge5" class="edge">
<title>Node1&#45;&gt;Node6</title>
<path fill="none" stroke="midnightblue" d="M332,-123.4C332,-114.06 332,-101.71 332,-91.52"/>
<polygon fill="midnightblue" stroke="midnightblue" points="335.5,-91.19 332,-81.19 328.5,-91.19 335.5,-91.19"/>
</g>
<!-- Node7 -->
<g id="node7" class="node">
<title>Node7</title>
<g id="a_node7"><a xlink:href="cfg__timer__tim2_8h.html" target="_top" xlink:title="Common configuration for STM32 Timer peripheral based on TIM2.">
<polygon fill="none" stroke="black" points="399,-62 399,-81 499,-81 499,-62 399,-62"/>
<text text-anchor="middle" x="449" y="-69" font-family="Helvetica,sans-Serif" font-size="10.00">cfg_timer_tim2.h</text>
</a>
</g>
</g>
<!-- Node1&#45;&gt;Node7 -->
<g id="edge6" class="edge">
<title>Node1&#45;&gt;Node7</title>
<path fill="none" stroke="midnightblue" d="M357.39,-123.4C377.37,-112.29 405.04,-96.92 424.73,-85.98"/>
<polygon fill="midnightblue" stroke="midnightblue" points="426.65,-88.92 433.69,-81.01 423.25,-82.8 426.65,-88.92"/>
</g>
<!-- Node8 -->
<g id="node8" class="node">
<title>Node8</title>
<g id="a_node8"><a xlink:href="cfg__usb__otg__fs_8h.html" target="_top" xlink:title="Common configuration for STM32 OTG FS peripheral.">
<polygon fill="none" stroke="black" points="517,-62 517,-81 615,-81 615,-62 517,-62"/>
<text text-anchor="middle" x="566" y="-69" font-family="Helvetica,sans-Serif" font-size="10.00">cfg_usb_otg_fs.h</text>
</a>
</g>
</g>
<!-- Node1&#45;&gt;Node8 -->
<g id="edge8" class="edge">
<title>Node1&#45;&gt;Node8</title>
<path fill="none" stroke="midnightblue" d="M382.49,-123.48C425.25,-111.6 485.77,-94.79 525.44,-83.77"/>
<polygon fill="midnightblue" stroke="midnightblue" points="526.6,-87.08 535.3,-81.03 524.72,-80.33 526.6,-87.08"/>
</g>
<!-- Node4 -->
<g id="node4" class="node">
<title>Node4</title>
<g id="a_node4"><a xlink:href="f2f4f7_2cfg__clock__common_8h.html" target="_top" xlink:title="Base STM32F4 clock configuration.">
<polygon fill="none" stroke="black" points="0,-0.5 0,-19.5 152,-19.5 152,-0.5 0,-0.5"/>
<text text-anchor="middle" x="76" y="-7.5" font-family="Helvetica,sans-Serif" font-size="10.00">f2f4f7/cfg_clock_common.h</text>
</a>
</g>
</g>
<!-- Node3&#45;&gt;Node4 -->
<g id="edge3" class="edge">
<title>Node3&#45;&gt;Node4</title>
<path fill="none" stroke="midnightblue" d="M140.09,-56.4C127.01,-47.13 109.92,-35.03 96.68,-25.65"/>
<polygon fill="midnightblue" stroke="midnightblue" points="98.41,-22.58 88.22,-19.66 94.36,-28.29 98.41,-22.58"/>
</g>
<!-- Node5 -->
<g id="node5" class="node">
<title>Node5</title>
<g id="a_node5"><a xlink:href="f2f4f7_2cfg__clock__values_8h.html" target="_top" xlink:title="STM32F4 clock values definitions.">
<polygon fill="none" stroke="black" points="170.5,-0.5 170.5,-19.5 311.5,-19.5 311.5,-0.5 170.5,-0.5"/>
<text text-anchor="middle" x="241" y="-7.5" font-family="Helvetica,sans-Serif" font-size="10.00">f2f4f7/cfg_clock_values.h</text>
</a>
</g>
</g>
<!-- Node3&#45;&gt;Node5 -->
<g id="edge4" class="edge">
<title>Node3&#45;&gt;Node5</title>
<path fill="none" stroke="midnightblue" d="M179.2,-56.4C191.82,-47.13 208.29,-35.03 221.06,-25.65"/>
<polygon fill="midnightblue" stroke="midnightblue" points="223.23,-28.4 229.21,-19.66 219.08,-22.76 223.23,-28.4"/>
</g>
<!-- Node7&#45;&gt;Node2 -->
<g id="edge7" class="edge">
<title>Node7&#45;&gt;Node2</title>
<path fill="none" stroke="midnightblue" d="M449,-61.98C449,-53.58 449,-40.48 449,-29.66"/>
<polygon fill="midnightblue" stroke="midnightblue" points="452.5,-29.51 449,-19.51 445.5,-29.51 452.5,-29.51"/>
</g>
<!-- Node8&#45;&gt;Node2 -->
<g id="edge9" class="edge">
<title>Node8&#45;&gt;Node2</title>
<path fill="none" stroke="midnightblue" d="M549.24,-61.98C529.78,-52.08 497.45,-35.64 474.79,-24.12"/>
<polygon fill="midnightblue" stroke="midnightblue" points="476.23,-20.92 465.73,-19.51 473.06,-27.16 476.23,-20.92"/>
</g>
</g>
</svg>
