<?xml version="1.0" encoding="UTF-8" standalone="no"?>
<!DOCTYPE svg PUBLIC "-//W3C//DTD SVG 1.1//EN"
 "http://www.w3.org/Graphics/SVG/1.1/DTD/svg11.dtd">
<!-- Generated by graphviz version 2.40.1 (20161225.0304)
 -->
<!-- Title: boards/atmega328p/include/periph_conf.h Pages: 1 -->
<svg width="144pt" height="162pt"
 viewBox="0.00 0.00 144.00 162.00" xmlns="http://www.w3.org/2000/svg" xmlns:xlink="http://www.w3.org/1999/xlink">
<g id="graph0" class="graph" transform="scale(1 1) rotate(0) translate(4 158)">
<title>boards/atmega328p/include/periph_conf.h</title>
<!-- Node0 -->
<g id="node1" class="node">
<title>Node0</title>
<polygon fill="#bfbfbf" stroke="#000000" points="0,-123.5 0,-153.5 136,-153.5 136,-123.5 0,-123.5"/>
<text text-anchor="start" x="8" y="-141.5" font-family="Helvetica,sans-Serif" font-size="10.00" fill="#000000">boards/atmega328p/include</text>
<text text-anchor="middle" x="68" y="-130.5" font-family="Helvetica,sans-Serif" font-size="10.00" fill="#000000">/periph_conf.h</text>
</g>
<!-- Node1 -->
<g id="node2" class="node">
<title>Node1</title>
<g id="a_node2"><a xlink:href="periph__conf__atmega__common_8h.html" target="_top" xlink:title="Common configuration of MCU periphery for ATmega boards. ">
<polygon fill="none" stroke="#000000" points="16,-56.5 16,-86.5 120,-86.5 120,-56.5 16,-56.5"/>
<text text-anchor="start" x="24" y="-74.5" font-family="Helvetica,sans-Serif" font-size="10.00" fill="#000000">periph_conf_atmega</text>
<text text-anchor="middle" x="68" y="-63.5" font-family="Helvetica,sans-Serif" font-size="10.00" fill="#000000">_common.h</text>
</a>
</g>
</g>
<!-- Node0&#45;&gt;Node1 -->
<g id="edge1" class="edge">
<title>Node0&#45;&gt;Node1</title>
<path fill="none" stroke="#191970" d="M68,-123.2967C68,-115.5013 68,-105.7991 68,-96.9064"/>
<polygon fill="#191970" stroke="#191970" points="71.5001,-96.6431 68,-86.6432 64.5001,-96.6432 71.5001,-96.6431"/>
</g>
<!-- Node2 -->
<g id="node3" class="node">
<title>Node2</title>
<polygon fill="none" stroke="#bfbfbf" points="32,-.5 32,-19.5 104,-19.5 104,-.5 32,-.5"/>
<text text-anchor="middle" x="68" y="-7.5" font-family="Helvetica,sans-Serif" font-size="10.00" fill="#000000">periph_cpu.h</text>
</g>
<!-- Node1&#45;&gt;Node2 -->
<g id="edge2" class="edge">
<title>Node1&#45;&gt;Node2</title>
<path fill="none" stroke="#191970" d="M68,-56.2977C68,-48.3834 68,-38.6043 68,-30.0759"/>
<polygon fill="#191970" stroke="#191970" points="71.5001,-29.8469 68,-19.8469 64.5001,-29.847 71.5001,-29.8469"/>
</g>
</g>
</svg>
