<?xml version="1.0" encoding="UTF-8" standalone="no"?>
<!DOCTYPE svg PUBLIC "-//W3C//DTD SVG 1.1//EN"
 "http://www.w3.org/Graphics/SVG/1.1/DTD/svg11.dtd">
<!-- Generated by graphviz version 2.40.1 (20161225.0304)
 -->
<!-- Title: boards/nucleo&#45;g474re/include/periph_conf.h Pages: 1 -->
<svg width="474pt" height="151pt"
 viewBox="0.00 0.00 473.89 151.00" xmlns="http://www.w3.org/2000/svg" xmlns:xlink="http://www.w3.org/1999/xlink">
<g id="graph0" class="graph" transform="scale(1 1) rotate(0) translate(4 147)">
<title>boards/nucleo&#45;g474re/include/periph_conf.h</title>
<!-- Node0 -->
<g id="node1" class="node">
<title>Node0</title>
<polygon fill="#bfbfbf" stroke="#000000" points="145.3874,-112.5 145.3874,-142.5 257.3874,-142.5 257.3874,-112.5 145.3874,-112.5"/>
<text text-anchor="start" x="153.3874" y="-130.5" font-family="Helvetica,sans-Serif" font-size="10.00" fill="#000000">boards/nucleo&#45;g474re</text>
<text text-anchor="middle" x="201.3874" y="-119.5" font-family="Helvetica,sans-Serif" font-size="10.00" fill="#000000">/include/periph_conf.h</text>
</g>
<!-- Node1 -->
<g id="node2" class="node">
<title>Node1</title>
<polygon fill="none" stroke="#bfbfbf" points="101.3874,-.5 101.3874,-19.5 173.3874,-19.5 173.3874,-.5 101.3874,-.5"/>
<text text-anchor="middle" x="137.3874" y="-7.5" font-family="Helvetica,sans-Serif" font-size="10.00" fill="#000000">periph_cpu.h</text>
</g>
<!-- Node0&#45;&gt;Node1 -->
<g id="edge1" class="edge">
<title>Node0&#45;&gt;Node1</title>
<path fill="none" stroke="#191970" d="M144.9577,-120.2717C93.5898,-112.3963 23.2663,-97.9153 6.3874,-76 -19.454,-42.4477 43.5574,-24.6359 90.8884,-16.2729"/>
<polygon fill="#191970" stroke="#191970" points="91.7258,-19.6816 101.0126,-14.5821 90.5727,-12.7772 91.7258,-19.6816"/>
</g>
<!-- Node2 -->
<g id="node3" class="node">
<title>Node2</title>
<g id="a_node3"><a xlink:href="stm32_2include_2g4_2cfg__clock__default_8h.html" target="_top" xlink:title="Configure STM32G4 clock. ">
<polygon fill="none" stroke="#000000" points="15.8874,-56.5 15.8874,-75.5 130.8874,-75.5 130.8874,-56.5 15.8874,-56.5"/>
<text text-anchor="middle" x="73.3874" y="-63.5" font-family="Helvetica,sans-Serif" font-size="10.00" fill="#000000">g4/cfg_clock_default.h</text>
</a>
</g>
</g>
<!-- Node0&#45;&gt;Node2 -->
<g id="edge2" class="edge">
<title>Node0&#45;&gt;Node2</title>
<path fill="none" stroke="#191970" d="M170.0751,-112.4554C149.3737,-102.509 122.4351,-89.5659 102.2521,-79.8686"/>
<polygon fill="#191970" stroke="#191970" points="103.7523,-76.7064 93.2229,-75.5303 100.7207,-83.0159 103.7523,-76.7064"/>
</g>
<!-- Node3 -->
<g id="node4" class="node">
<title>Node3</title>
<g id="a_node4"><a xlink:href="cfg__i2c1__pb8__pb9_8h.html" target="_top" xlink:title="Common configuration for STM32 I2C. ">
<polygon fill="none" stroke="#000000" points="149.3874,-56.5 149.3874,-75.5 253.3874,-75.5 253.3874,-56.5 149.3874,-56.5"/>
<text text-anchor="middle" x="201.3874" y="-63.5" font-family="Helvetica,sans-Serif" font-size="10.00" fill="#000000">cfg_i2c1_pb8_pb9.h</text>
</a>
</g>
</g>
<!-- Node0&#45;&gt;Node3 -->
<g id="edge4" class="edge">
<title>Node0&#45;&gt;Node3</title>
<path fill="none" stroke="#191970" d="M201.3874,-112.2977C201.3874,-104.3834 201.3874,-94.6043 201.3874,-86.0759"/>
<polygon fill="#191970" stroke="#191970" points="204.8875,-85.8469 201.3874,-75.8469 197.8875,-85.847 204.8875,-85.8469"/>
</g>
<!-- Node4 -->
<g id="node5" class="node">
<title>Node4</title>
<polygon fill="none" stroke="#bfbfbf" points="271.8874,-56.5 271.8874,-75.5 358.8874,-75.5 358.8874,-56.5 271.8874,-56.5"/>
<text text-anchor="middle" x="315.3874" y="-63.5" font-family="Helvetica,sans-Serif" font-size="10.00" fill="#000000">cfg_rtt_default.h</text>
</g>
<!-- Node0&#45;&gt;Node4 -->
<g id="edge6" class="edge">
<title>Node0&#45;&gt;Node4</title>
<path fill="none" stroke="#191970" d="M229.275,-112.4554C247.295,-102.734 270.6216,-90.15 288.4506,-80.5317"/>
<polygon fill="#191970" stroke="#191970" points="290.5823,-83.3586 297.7215,-75.5303 287.2587,-77.1979 290.5823,-83.3586"/>
</g>
<!-- Node5 -->
<g id="node6" class="node">
<title>Node5</title>
<g id="a_node6"><a xlink:href="cfg__timer__tim5_8h.html" target="_top" xlink:title="Common configuration for STM32 Timer peripheral based on TIM5. ">
<polygon fill="none" stroke="#000000" points="376.8874,-56.5 376.8874,-75.5 465.8874,-75.5 465.8874,-56.5 376.8874,-56.5"/>
<text text-anchor="middle" x="421.3874" y="-63.5" font-family="Helvetica,sans-Serif" font-size="10.00" fill="#000000">cfg_timer_tim5.h</text>
</a>
</g>
</g>
<!-- Node0&#45;&gt;Node5 -->
<g id="edge7" class="edge">
<title>Node0&#45;&gt;Node5</title>
<path fill="none" stroke="#191970" d="M255.2055,-112.4554C292.718,-101.9689 342.1465,-88.1515 377.3207,-78.3187"/>
<polygon fill="#191970" stroke="#191970" points="378.6068,-81.5934 387.2952,-75.5303 376.7222,-74.8519 378.6068,-81.5934"/>
</g>
<!-- Node2&#45;&gt;Node1 -->
<g id="edge3" class="edge">
<title>Node2&#45;&gt;Node1</title>
<path fill="none" stroke="#191970" d="M84.5354,-56.2455C93.8961,-48.0549 107.4732,-36.1749 118.5224,-26.5069"/>
<polygon fill="#191970" stroke="#191970" points="121.1462,-28.8618 126.3672,-19.6427 116.5367,-23.5937 121.1462,-28.8618"/>
</g>
<!-- Node3&#45;&gt;Node1 -->
<g id="edge5" class="edge">
<title>Node3&#45;&gt;Node1</title>
<path fill="none" stroke="#191970" d="M190.2395,-56.2455C180.8788,-48.0549 167.3016,-36.1749 156.2525,-26.5069"/>
<polygon fill="#191970" stroke="#191970" points="158.2382,-23.5937 148.4076,-19.6427 153.6286,-28.8618 158.2382,-23.5937"/>
</g>
<!-- Node5&#45;&gt;Node1 -->
<g id="edge8" class="edge">
<title>Node5&#45;&gt;Node1</title>
<path fill="none" stroke="#191970" d="M376.7,-57.1884C324.0168,-46.8002 236.9004,-29.6223 183.574,-19.1072"/>
<polygon fill="#191970" stroke="#191970" points="184.1911,-15.6616 173.7028,-17.1608 182.8368,-22.5293 184.1911,-15.6616"/>
</g>
</g>
</svg>
