<?xml version="1.0" encoding="UTF-8" standalone="no"?>
<!DOCTYPE svg PUBLIC "-//W3C//DTD SVG 1.1//EN"
 "http://www.w3.org/Graphics/SVG/1.1/DTD/svg11.dtd">
<!-- Generated by graphviz version 2.40.1 (20161225.0304)
 -->
<!-- Title: boards/reel/include/periph_conf.h Pages: 1 -->
<svg width="524pt" height="95pt"
 viewBox="0.00 0.00 524.00 95.00" xmlns="http://www.w3.org/2000/svg" xmlns:xlink="http://www.w3.org/1999/xlink">
<g id="graph0" class="graph" transform="scale(1 1) rotate(0) translate(4 91)">
<title>boards/reel/include/periph_conf.h</title>
<!-- Node0 -->
<g id="node1" class="node">
<title>Node0</title>
<polygon fill="#bfbfbf" stroke="#000000" points="198,-56.5 198,-86.5 296,-86.5 296,-56.5 198,-56.5"/>
<text text-anchor="start" x="206" y="-74.5" font-family="Helvetica,sans-Serif" font-size="10.00" fill="#000000">boards/reel/include</text>
<text text-anchor="middle" x="247" y="-63.5" font-family="Helvetica,sans-Serif" font-size="10.00" fill="#000000">/periph_conf.h</text>
</g>
<!-- Node1 -->
<g id="node2" class="node">
<title>Node1</title>
<polygon fill="none" stroke="#bfbfbf" points="0,-.5 0,-19.5 72,-19.5 72,-.5 0,-.5"/>
<text text-anchor="middle" x="36" y="-7.5" font-family="Helvetica,sans-Serif" font-size="10.00" fill="#000000">periph_cpu.h</text>
</g>
<!-- Node0&#45;&gt;Node1 -->
<g id="edge1" class="edge">
<title>Node0&#45;&gt;Node1</title>
<path fill="none" stroke="#191970" d="M197.7962,-57.1586C161.6642,-46.6272 113.0732,-32.4645 78.5979,-22.416"/>
<polygon fill="#191970" stroke="#191970" points="79.4066,-19.0061 68.8267,-19.568 77.4478,-25.7265 79.4066,-19.0061"/>
</g>
<!-- Node2 -->
<g id="node3" class="node">
<title>Node2</title>
<g id="a_node3"><a xlink:href="cfg__clock__32__1_8h.html" target="_top" xlink:title="Common clock configuration for the nRF52 based boards. ">
<polygon fill="none" stroke="#000000" points="90.5,-.5 90.5,-19.5 183.5,-19.5 183.5,-.5 90.5,-.5"/>
<text text-anchor="middle" x="137" y="-7.5" font-family="Helvetica,sans-Serif" font-size="10.00" fill="#000000">cfg_clock_32_1.h</text>
</a>
</g>
</g>
<!-- Node0&#45;&gt;Node2 -->
<g id="edge2" class="edge">
<title>Node0&#45;&gt;Node2</title>
<path fill="none" stroke="#191970" d="M220.091,-56.4554C202.7032,-46.734 180.1951,-34.15 162.9916,-24.5317"/>
<polygon fill="#191970" stroke="#191970" points="164.4826,-21.3554 154.0461,-19.5303 161.0665,-27.4653 164.4826,-21.3554"/>
</g>
<!-- Node3 -->
<g id="node4" class="node">
<title>Node3</title>
<polygon fill="none" stroke="#bfbfbf" points="201.5,-.5 201.5,-19.5 292.5,-19.5 292.5,-.5 201.5,-.5"/>
<text text-anchor="middle" x="247" y="-7.5" font-family="Helvetica,sans-Serif" font-size="10.00" fill="#000000">cfg_i2c_default.h</text>
</g>
<!-- Node0&#45;&gt;Node3 -->
<g id="edge3" class="edge">
<title>Node0&#45;&gt;Node3</title>
<path fill="none" stroke="#191970" d="M247,-56.2977C247,-48.3834 247,-38.6043 247,-30.0759"/>
<polygon fill="#191970" stroke="#191970" points="250.5001,-29.8469 247,-19.8469 243.5001,-29.847 250.5001,-29.8469"/>
</g>
<!-- Node4 -->
<g id="node5" class="node">
<title>Node4</title>
<polygon fill="none" stroke="#bfbfbf" points="310.5,-.5 310.5,-19.5 397.5,-19.5 397.5,-.5 310.5,-.5"/>
<text text-anchor="middle" x="354" y="-7.5" font-family="Helvetica,sans-Serif" font-size="10.00" fill="#000000">cfg_rtt_default.h</text>
</g>
<!-- Node0&#45;&gt;Node4 -->
<g id="edge4" class="edge">
<title>Node0&#45;&gt;Node4</title>
<path fill="none" stroke="#191970" d="M273.1751,-56.4554C290.0887,-46.734 311.9829,-34.15 328.7172,-24.5317"/>
<polygon fill="#191970" stroke="#191970" points="330.493,-27.548 337.4188,-19.5303 327.0047,-21.4791 330.493,-27.548"/>
</g>
<!-- Node5 -->
<g id="node6" class="node">
<title>Node5</title>
<polygon fill="none" stroke="#bfbfbf" points="416,-.5 416,-19.5 516,-19.5 516,-.5 416,-.5"/>
<text text-anchor="middle" x="466" y="-7.5" font-family="Helvetica,sans-Serif" font-size="10.00" fill="#000000">cfg_timer_default.h</text>
</g>
<!-- Node0&#45;&gt;Node5 -->
<g id="edge5" class="edge">
<title>Node0&#45;&gt;Node5</title>
<path fill="none" stroke="#191970" d="M296.1479,-57.6982C333.9573,-47.0805 385.7277,-32.5422 422.1442,-22.3157"/>
<polygon fill="#191970" stroke="#191970" points="423.3027,-25.6258 431.984,-19.5524 421.4101,-18.8865 423.3027,-25.6258"/>
</g>
</g>
</svg>
