<?xml version="1.0" encoding="UTF-8" standalone="no"?>
<!DOCTYPE svg PUBLIC "-//W3C//DTD SVG 1.1//EN"
 "http://www.w3.org/Graphics/SVG/1.1/DTD/svg11.dtd">
<!-- Generated by graphviz version 2.40.1 (20161225.0304)
 -->
<!-- Title: boards/arduino&#45;nano&#45;33&#45;ble/include/periph_conf.h Pages: 1 -->
<svg width="415pt" height="106pt"
 viewBox="0.00 0.00 415.00 106.00" xmlns="http://www.w3.org/2000/svg" xmlns:xlink="http://www.w3.org/1999/xlink">
<g id="graph0" class="graph" transform="scale(1 1) rotate(0) translate(4 102)">
<title>boards/arduino&#45;nano&#45;33&#45;ble/include/periph_conf.h</title>
<!-- Node0 -->
<g id="node1" class="node">
<title>Node0</title>
<polygon fill="#bfbfbf" stroke="#000000" points="136.5,-56.5 136.5,-97.5 245.5,-97.5 245.5,-56.5 136.5,-56.5"/>
<text text-anchor="start" x="144.5" y="-85.5" font-family="Helvetica,sans-Serif" font-size="10.00" fill="#000000">boards/arduino&#45;nano</text>
<text text-anchor="start" x="144.5" y="-74.5" font-family="Helvetica,sans-Serif" font-size="10.00" fill="#000000">&#45;33&#45;ble/include/periph</text>
<text text-anchor="middle" x="191" y="-63.5" font-family="Helvetica,sans-Serif" font-size="10.00" fill="#000000">_conf.h</text>
</g>
<!-- Node1 -->
<g id="node2" class="node">
<title>Node1</title>
<polygon fill="none" stroke="#bfbfbf" points="0,-.5 0,-19.5 72,-19.5 72,-.5 0,-.5"/>
<text text-anchor="middle" x="36" y="-7.5" font-family="Helvetica,sans-Serif" font-size="10.00" fill="#000000">periph_cpu.h</text>
</g>
<!-- Node0&#45;&gt;Node1 -->
<g id="edge1" class="edge">
<title>Node0&#45;&gt;Node1</title>
<path fill="none" stroke="#191970" d="M143.2301,-56.3511C118.7006,-45.748 89.4876,-33.1204 67.7521,-23.7251"/>
<polygon fill="#191970" stroke="#191970" points="68.9033,-20.4098 58.3354,-19.6546 66.1258,-26.8352 68.9033,-20.4098"/>
</g>
<!-- Node2 -->
<g id="node3" class="node">
<title>Node2</title>
<g id="a_node3"><a xlink:href="cfg__clock__32__1_8h.html" target="_top" xlink:title="Common clock configuration for the nRF52 based boards. ">
<polygon fill="none" stroke="#000000" points="90.5,-.5 90.5,-19.5 183.5,-19.5 183.5,-.5 90.5,-.5"/>
<text text-anchor="middle" x="137" y="-7.5" font-family="Helvetica,sans-Serif" font-size="10.00" fill="#000000">cfg_clock_32_1.h</text>
</a>
</g>
</g>
<!-- Node0&#45;&gt;Node2 -->
<g id="edge2" class="edge">
<title>Node0&#45;&gt;Node2</title>
<path fill="none" stroke="#191970" d="M174.2101,-56.168C166.8724,-47.0639 158.3549,-36.4959 151.322,-27.7699"/>
<polygon fill="#191970" stroke="#191970" points="153.8831,-25.3701 144.8828,-19.7805 148.433,-29.7628 153.8831,-25.3701"/>
</g>
<!-- Node3 -->
<g id="node4" class="node">
<title>Node3</title>
<polygon fill="none" stroke="#bfbfbf" points="201.5,-.5 201.5,-19.5 288.5,-19.5 288.5,-.5 201.5,-.5"/>
<text text-anchor="middle" x="245" y="-7.5" font-family="Helvetica,sans-Serif" font-size="10.00" fill="#000000">cfg_rtt_default.h</text>
</g>
<!-- Node0&#45;&gt;Node3 -->
<g id="edge3" class="edge">
<title>Node0&#45;&gt;Node3</title>
<path fill="none" stroke="#191970" d="M207.7899,-56.168C215.1276,-47.0639 223.6451,-36.4959 230.678,-27.7699"/>
<polygon fill="#191970" stroke="#191970" points="233.567,-29.7628 237.1172,-19.7805 228.1169,-25.3701 233.567,-29.7628"/>
</g>
<!-- Node4 -->
<g id="node5" class="node">
<title>Node4</title>
<polygon fill="none" stroke="#bfbfbf" points="307,-.5 307,-19.5 407,-19.5 407,-.5 307,-.5"/>
<text text-anchor="middle" x="357" y="-7.5" font-family="Helvetica,sans-Serif" font-size="10.00" fill="#000000">cfg_timer_default.h</text>
</g>
<!-- Node0&#45;&gt;Node4 -->
<g id="edge4" class="edge">
<title>Node0&#45;&gt;Node4</title>
<path fill="none" stroke="#191970" d="M242.16,-56.3511C268.667,-45.6525 300.2806,-32.8928 323.6217,-23.472"/>
<polygon fill="#191970" stroke="#191970" points="325.1164,-26.6431 333.0796,-19.6546 322.4964,-20.1519 325.1164,-26.6431"/>
</g>
</g>
</svg>
