<?xml version="1.0" encoding="UTF-8" standalone="no"?>
<!DOCTYPE svg PUBLIC "-//W3C//DTD SVG 1.1//EN"
 "http://www.w3.org/Graphics/SVG/1.1/DTD/svg11.dtd">
<!-- Generated by graphviz version 2.43.0 (0)
 -->
<!-- Title: boards/nucleo&#45;f722ze/include/periph_conf.h Pages: 1 -->
<svg width="726pt" height="162pt"
 viewBox="0.00 0.00 726.00 162.00" xmlns="http://www.w3.org/2000/svg" xmlns:xlink="http://www.w3.org/1999/xlink">
<g id="graph0" class="graph" transform="scale(1 1) rotate(0) translate(4 158)">
<title>boards/nucleo&#45;f722ze/include/periph_conf.h</title>
<!-- Node1 -->
<g id="node1" class="node">
<title>Node1</title>
<g id="a_node1"><a xlink:title="Peripheral MCU configuration for the nucleo&#45;f722ze board.">
<polygon fill="#bfbfbf" stroke="black" points="311.5,-123.5 311.5,-153.5 434.5,-153.5 434.5,-123.5 311.5,-123.5"/>
<text text-anchor="start" x="319.5" y="-141.5" font-family="Helvetica,sans-Serif" font-size="10.00">boards/nucleo&#45;f722ze</text>
<text text-anchor="middle" x="373" y="-130.5" font-family="Helvetica,sans-Serif" font-size="10.00">/include/periph_conf.h</text>
</a>
</g>
</g>
<!-- Node2 -->
<g id="node2" class="node">
<title>Node2</title>
<g id="a_node2"><a xlink:title=" ">
<polygon fill="none" stroke="#bfbfbf" points="420.5,-0.5 420.5,-19.5 499.5,-19.5 499.5,-0.5 420.5,-0.5"/>
<text text-anchor="middle" x="460" y="-7.5" font-family="Helvetica,sans-Serif" font-size="10.00">periph_cpu.h</text>
</a>
</g>
</g>
<!-- Node1&#45;&gt;Node2 -->
<g id="edge1" class="edge">
<title>Node1&#45;&gt;Node2</title>
<path fill="none" stroke="midnightblue" d="M314.73,-123.39C270.38,-109.85 220.91,-86.92 246,-56 266.27,-31.02 353.47,-19.4 410.11,-14.39"/>
<polygon fill="midnightblue" stroke="midnightblue" points="410.64,-17.86 420.31,-13.53 410.05,-10.88 410.64,-17.86"/>
</g>
<!-- Node3 -->
<g id="node3" class="node">
<title>Node3</title>
<g id="a_node3"><a xlink:href="cfg__clock__default__216_8h.html" target="_top" xlink:title="Default STM32F7 clock configuration for 216MHz boards.">
<polygon fill="none" stroke="black" points="65,-56.5 65,-86.5 199,-86.5 199,-56.5 65,-56.5"/>
<text text-anchor="start" x="73" y="-74.5" font-family="Helvetica,sans-Serif" font-size="10.00">f2f4f7/cfg_clock_default</text>
<text text-anchor="middle" x="132" y="-63.5" font-family="Helvetica,sans-Serif" font-size="10.00">_216.h</text>
</a>
</g>
</g>
<!-- Node1&#45;&gt;Node3 -->
<g id="edge2" class="edge">
<title>Node1&#45;&gt;Node3</title>
<path fill="none" stroke="midnightblue" d="M321,-123.48C283.75,-113.43 233.43,-99.86 194.07,-89.24"/>
<polygon fill="midnightblue" stroke="midnightblue" points="194.89,-85.84 184.32,-86.61 193.06,-92.59 194.89,-85.84"/>
</g>
<!-- Node6 -->
<g id="node6" class="node">
<title>Node6</title>
<g id="a_node6"><a xlink:href="cfg__i2c1__pb8__pb9_8h.html" target="_top" xlink:title="Common configuration for STM32 I2C.">
<polygon fill="none" stroke="black" points="255.5,-62 255.5,-81 368.5,-81 368.5,-62 255.5,-62"/>
<text text-anchor="middle" x="312" y="-69" font-family="Helvetica,sans-Serif" font-size="10.00">cfg_i2c1_pb8_pb9.h</text>
</a>
</g>
</g>
<!-- Node1&#45;&gt;Node6 -->
<g id="edge5" class="edge">
<title>Node1&#45;&gt;Node6</title>
<path fill="none" stroke="midnightblue" d="M359.76,-123.4C350.16,-113.16 337.15,-99.3 327.13,-88.62"/>
<polygon fill="midnightblue" stroke="midnightblue" points="329.55,-86.09 320.16,-81.19 324.45,-90.88 329.55,-86.09"/>
</g>
<!-- Node7 -->
<g id="node7" class="node">
<title>Node7</title>
<g id="a_node7"><a xlink:title=" ">
<polygon fill="none" stroke="#bfbfbf" points="386.5,-62 386.5,-81 483.5,-81 483.5,-62 386.5,-62"/>
<text text-anchor="middle" x="435" y="-69" font-family="Helvetica,sans-Serif" font-size="10.00">cfg_rtt_default.h</text>
</a>
</g>
</g>
<!-- Node1&#45;&gt;Node7 -->
<g id="edge7" class="edge">
<title>Node1&#45;&gt;Node7</title>
<path fill="none" stroke="midnightblue" d="M386.45,-123.4C396.22,-113.16 409.44,-99.3 419.62,-88.62"/>
<polygon fill="midnightblue" stroke="midnightblue" points="422.34,-90.85 426.71,-81.19 417.27,-86.01 422.34,-90.85"/>
</g>
<!-- Node8 -->
<g id="node8" class="node">
<title>Node8</title>
<g id="a_node8"><a xlink:href="cfg__timer__tim2_8h.html" target="_top" xlink:title="Common configuration for STM32 Timer peripheral based on TIM2.">
<polygon fill="none" stroke="black" points="502,-62 502,-81 602,-81 602,-62 502,-62"/>
<text text-anchor="middle" x="552" y="-69" font-family="Helvetica,sans-Serif" font-size="10.00">cfg_timer_tim2.h</text>
</a>
</g>
</g>
<!-- Node1&#45;&gt;Node8 -->
<g id="edge8" class="edge">
<title>Node1&#45;&gt;Node8</title>
<path fill="none" stroke="midnightblue" d="M411.84,-123.4C443.8,-111.79 488.62,-95.51 518.9,-84.52"/>
<polygon fill="midnightblue" stroke="midnightblue" points="520.37,-87.71 528.57,-81.01 517.98,-81.13 520.37,-87.71"/>
</g>
<!-- Node9 -->
<g id="node9" class="node">
<title>Node9</title>
<g id="a_node9"><a xlink:href="cfg__usb__otg__fs_8h.html" target="_top" xlink:title="Common configuration for STM32 OTG FS peripheral.">
<polygon fill="none" stroke="black" points="620,-62 620,-81 718,-81 718,-62 620,-62"/>
<text text-anchor="middle" x="669" y="-69" font-family="Helvetica,sans-Serif" font-size="10.00">cfg_usb_otg_fs.h</text>
</a>
</g>
</g>
<!-- Node1&#45;&gt;Node9 -->
<g id="edge10" class="edge">
<title>Node1&#45;&gt;Node9</title>
<path fill="none" stroke="midnightblue" d="M434.77,-125.03C482.9,-115.16 551.32,-100.79 611,-87 615.74,-85.9 620.7,-84.72 625.62,-83.52"/>
<polygon fill="midnightblue" stroke="midnightblue" points="626.75,-86.85 635.62,-81.06 625.07,-80.06 626.75,-86.85"/>
</g>
<!-- Node4 -->
<g id="node4" class="node">
<title>Node4</title>
<g id="a_node4"><a xlink:href="f2f4f7_2cfg__clock__common_8h.html" target="_top" xlink:title="Base STM32F4 clock configuration.">
<polygon fill="none" stroke="black" points="0,-0.5 0,-19.5 152,-19.5 152,-0.5 0,-0.5"/>
<text text-anchor="middle" x="76" y="-7.5" font-family="Helvetica,sans-Serif" font-size="10.00">f2f4f7/cfg_clock_common.h</text>
</a>
</g>
</g>
<!-- Node3&#45;&gt;Node4 -->
<g id="edge3" class="edge">
<title>Node3&#45;&gt;Node4</title>
<path fill="none" stroke="midnightblue" d="M118.73,-56.4C110.42,-47.58 99.7,-36.18 91.08,-27.02"/>
<polygon fill="midnightblue" stroke="midnightblue" points="93.55,-24.54 84.15,-19.66 88.45,-29.34 93.55,-24.54"/>
</g>
<!-- Node5 -->
<g id="node5" class="node">
<title>Node5</title>
<g id="a_node5"><a xlink:href="f2f4f7_2cfg__clock__values_8h.html" target="_top" xlink:title="STM32F4 clock values definitions.">
<polygon fill="none" stroke="black" points="170.5,-0.5 170.5,-19.5 311.5,-19.5 311.5,-0.5 170.5,-0.5"/>
<text text-anchor="middle" x="241" y="-7.5" font-family="Helvetica,sans-Serif" font-size="10.00">f2f4f7/cfg_clock_values.h</text>
</a>
</g>
</g>
<!-- Node3&#45;&gt;Node5 -->
<g id="edge4" class="edge">
<title>Node3&#45;&gt;Node5</title>
<path fill="none" stroke="midnightblue" d="M157.83,-56.4C175.47,-46.77 198.7,-34.09 216.13,-24.58"/>
<polygon fill="midnightblue" stroke="midnightblue" points="218.04,-27.52 225.14,-19.66 214.69,-21.38 218.04,-27.52"/>
</g>
<!-- Node6&#45;&gt;Node2 -->
<g id="edge6" class="edge">
<title>Node6&#45;&gt;Node2</title>
<path fill="none" stroke="midnightblue" d="M333.2,-61.98C358.37,-51.86 400.54,-34.9 429.28,-23.35"/>
<polygon fill="midnightblue" stroke="midnightblue" points="430.86,-26.49 438.83,-19.51 428.25,-19.99 430.86,-26.49"/>
</g>
<!-- Node8&#45;&gt;Node2 -->
<g id="edge9" class="edge">
<title>Node8&#45;&gt;Node2</title>
<path fill="none" stroke="midnightblue" d="M538.82,-61.98C523.93,-52.34 499.46,-36.52 481.73,-25.05"/>
<polygon fill="midnightblue" stroke="midnightblue" points="483.45,-22 473.16,-19.51 479.65,-27.88 483.45,-22"/>
</g>
<!-- Node9&#45;&gt;Node2 -->
<g id="edge11" class="edge">
<title>Node9&#45;&gt;Node2</title>
<path fill="none" stroke="midnightblue" d="M639.06,-61.98C602.43,-51.55 540.3,-33.86 499.72,-22.31"/>
<polygon fill="midnightblue" stroke="midnightblue" points="500.47,-18.88 489.89,-19.51 498.55,-25.61 500.47,-18.88"/>
</g>
</g>
</svg>
