<?xml version="1.0" encoding="UTF-8" standalone="no"?>
<!DOCTYPE svg PUBLIC "-//W3C//DTD SVG 1.1//EN"
 "http://www.w3.org/Graphics/SVG/1.1/DTD/svg11.dtd">
<!-- Generated by graphviz version 2.43.0 (0)
 -->
<!-- Title: boards/esp32&#45;wrover&#45;kit/include/periph_conf.h Pages: 1 -->
<svg width="210pt" height="106pt"
 viewBox="0.00 0.00 210.00 106.00" xmlns="http://www.w3.org/2000/svg" xmlns:xlink="http://www.w3.org/1999/xlink">
<g id="graph0" class="graph" transform="scale(1 1) rotate(0) translate(4 102)">
<title>boards/esp32&#45;wrover&#45;kit/include/periph_conf.h</title>
<!-- Node1 -->
<g id="node1" class="node">
<title>Node1</title>
<g id="a_node1"><a xlink:title="Peripheral MCU configuration for Espressif ESP&#45;WROVER&#45;KIT V3.">
<polygon fill="#bfbfbf" stroke="black" points="22,-56.5 22,-97.5 141,-97.5 141,-56.5 22,-56.5"/>
<text text-anchor="start" x="30" y="-85.5" font-family="Helvetica,sans-Serif" font-size="10.00">boards/esp32&#45;wrover</text>
<text text-anchor="start" x="30" y="-74.5" font-family="Helvetica,sans-Serif" font-size="10.00">&#45;kit/include/periph</text>
<text text-anchor="middle" x="81.5" y="-63.5" font-family="Helvetica,sans-Serif" font-size="10.00">_conf.h</text>
</a>
</g>
</g>
<!-- Node2 -->
<g id="node2" class="node">
<title>Node2</title>
<g id="a_node2"><a xlink:title=" ">
<polygon fill="none" stroke="#bfbfbf" points="0,-0.5 0,-19.5 53,-19.5 53,-0.5 0,-0.5"/>
<text text-anchor="middle" x="26.5" y="-7.5" font-family="Helvetica,sans-Serif" font-size="10.00">stdint.h</text>
</a>
</g>
</g>
<!-- Node1&#45;&gt;Node2 -->
<g id="edge1" class="edge">
<title>Node1&#45;&gt;Node2</title>
<path fill="none" stroke="midnightblue" d="M65,-56.5C57.13,-47.2 47.83,-36.21 40.34,-27.36"/>
<polygon fill="midnightblue" stroke="midnightblue" points="42.95,-25.03 33.82,-19.65 37.61,-29.55 42.95,-25.03"/>
</g>
<!-- Node3 -->
<g id="node3" class="node">
<title>Node3</title>
<g id="a_node3"><a xlink:title=" ">
<polygon fill="none" stroke="#bfbfbf" points="71,-0.5 71,-19.5 202,-19.5 202,-0.5 71,-0.5"/>
<text text-anchor="middle" x="136.5" y="-7.5" font-family="Helvetica,sans-Serif" font-size="10.00">periph_conf_common.h</text>
</a>
</g>
</g>
<!-- Node1&#45;&gt;Node3 -->
<g id="edge2" class="edge">
<title>Node1&#45;&gt;Node3</title>
<path fill="none" stroke="midnightblue" d="M98,-56.5C105.87,-47.2 115.17,-36.21 122.66,-27.36"/>
<polygon fill="midnightblue" stroke="midnightblue" points="125.39,-29.55 129.18,-19.65 120.05,-25.03 125.39,-29.55"/>
</g>
</g>
</svg>
