<?xml version="1.0" encoding="UTF-8" standalone="no"?>
<!DOCTYPE svg PUBLIC "-//W3C//DTD SVG 1.1//EN"
 "http://www.w3.org/Graphics/SVG/1.1/DTD/svg11.dtd">
<!-- Generated by graphviz version 2.43.0 (0)
 -->
<!-- Title: boards/feather&#45;nrf52840/include/periph_conf.h Pages: 1 -->
<svg width="452pt" height="95pt"
 viewBox="0.00 0.00 451.50 95.00" xmlns="http://www.w3.org/2000/svg" xmlns:xlink="http://www.w3.org/1999/xlink">
<g id="graph0" class="graph" transform="scale(1 1) rotate(0) translate(4 91)">
<title>boards/feather&#45;nrf52840/include/periph_conf.h</title>
<!-- Node1 -->
<g id="node1" class="node">
<title>Node1</title>
<g id="a_node1"><a xlink:title="Peripheral configuration for the Adafruit Feather nRF52840 Express.">
<polygon fill="#bfbfbf" stroke="black" points="138.5,-56.5 138.5,-86.5 272.5,-86.5 272.5,-56.5 138.5,-56.5"/>
<text text-anchor="start" x="146.5" y="-74.5" font-family="Helvetica,sans-Serif" font-size="10.00">boards/feather&#45;nrf52840</text>
<text text-anchor="middle" x="205.5" y="-63.5" font-family="Helvetica,sans-Serif" font-size="10.00">/include/periph_conf.h</text>
</a>
</g>
</g>
<!-- Node2 -->
<g id="node2" class="node">
<title>Node2</title>
<g id="a_node2"><a xlink:title=" ">
<polygon fill="none" stroke="#bfbfbf" points="0,-0.5 0,-19.5 79,-19.5 79,-0.5 0,-0.5"/>
<text text-anchor="middle" x="39.5" y="-7.5" font-family="Helvetica,sans-Serif" font-size="10.00">periph_cpu.h</text>
</a>
</g>
</g>
<!-- Node1&#45;&gt;Node2 -->
<g id="edge1" class="edge">
<title>Node1&#45;&gt;Node2</title>
<path fill="none" stroke="midnightblue" d="M166.16,-56.4C137.94,-46.28 100.29,-32.79 73.4,-23.15"/>
<polygon fill="midnightblue" stroke="midnightblue" points="74.25,-19.74 63.65,-19.66 71.89,-26.33 74.25,-19.74"/>
</g>
<!-- Node3 -->
<g id="node3" class="node">
<title>Node3</title>
<g id="a_node3"><a xlink:href="cfg__clock__32__1_8h.html" target="_top" xlink:title="Common clock configuration for the nRF52 based boards.">
<polygon fill="none" stroke="black" points="97.5,-0.5 97.5,-19.5 197.5,-19.5 197.5,-0.5 97.5,-0.5"/>
<text text-anchor="middle" x="147.5" y="-7.5" font-family="Helvetica,sans-Serif" font-size="10.00">cfg_clock_32_1.h</text>
</a>
</g>
</g>
<!-- Node1&#45;&gt;Node3 -->
<g id="edge2" class="edge">
<title>Node1&#45;&gt;Node3</title>
<path fill="none" stroke="midnightblue" d="M191.75,-56.4C183.15,-47.58 172.05,-36.18 163.11,-27.02"/>
<polygon fill="midnightblue" stroke="midnightblue" points="165.43,-24.38 155.94,-19.66 160.41,-29.26 165.43,-24.38"/>
</g>
<!-- Node4 -->
<g id="node4" class="node">
<title>Node4</title>
<g id="a_node4"><a xlink:title=" ">
<polygon fill="none" stroke="#bfbfbf" points="216,-0.5 216,-19.5 313,-19.5 313,-0.5 216,-0.5"/>
<text text-anchor="middle" x="264.5" y="-7.5" font-family="Helvetica,sans-Serif" font-size="10.00">cfg_rtt_default.h</text>
</a>
</g>
</g>
<!-- Node1&#45;&gt;Node4 -->
<g id="edge3" class="edge">
<title>Node1&#45;&gt;Node4</title>
<path fill="none" stroke="midnightblue" d="M219.48,-56.4C228.23,-47.58 239.53,-36.18 248.62,-27.02"/>
<polygon fill="midnightblue" stroke="midnightblue" points="251.36,-29.22 255.91,-19.66 246.39,-24.29 251.36,-29.22"/>
</g>
<!-- Node5 -->
<g id="node5" class="node">
<title>Node5</title>
<g id="a_node5"><a xlink:title=" ">
<polygon fill="none" stroke="#bfbfbf" points="331.5,-0.5 331.5,-19.5 443.5,-19.5 443.5,-0.5 331.5,-0.5"/>
<text text-anchor="middle" x="387.5" y="-7.5" font-family="Helvetica,sans-Serif" font-size="10.00">cfg_timer_default.h</text>
</a>
</g>
</g>
<!-- Node1&#45;&gt;Node5 -->
<g id="edge4" class="edge">
<title>Node1&#45;&gt;Node5</title>
<path fill="none" stroke="midnightblue" d="M248.63,-56.4C280.08,-46.12 322.19,-32.35 351.77,-22.68"/>
<polygon fill="midnightblue" stroke="midnightblue" points="352.87,-26.01 361.28,-19.57 350.69,-19.35 352.87,-26.01"/>
</g>
</g>
</svg>
