<?xml version="1.0" encoding="UTF-8" standalone="no"?>
<!DOCTYPE svg PUBLIC "-//W3C//DTD SVG 1.1//EN"
 "http://www.w3.org/Graphics/SVG/1.1/DTD/svg11.dtd">
<!-- Generated by graphviz version 2.43.0 (0)
 -->
<!-- Title: boards/b&#45;l072z&#45;lrwan1/include/periph_conf.h Pages: 1 -->
<svg width="454pt" height="151pt"
 viewBox="0.00 0.00 454.40 151.00" xmlns="http://www.w3.org/2000/svg" xmlns:xlink="http://www.w3.org/1999/xlink">
<g id="graph0" class="graph" transform="scale(1 1) rotate(0) translate(4 147)">
<title>boards/b&#45;l072z&#45;lrwan1/include/periph_conf.h</title>
<!-- Node1 -->
<g id="node1" class="node">
<title>Node1</title>
<g id="a_node1"><a xlink:title="Peripheral MCU configuration for the ST B&#45;L072Z&#45;LRWAN1 board.">
<polygon fill="#bfbfbf" stroke="black" points="85.9,-112.5 85.9,-142.5 210.9,-142.5 210.9,-112.5 85.9,-112.5"/>
<text text-anchor="start" x="93.9" y="-130.5" font-family="Helvetica,sans-Serif" font-size="10.00">boards/b&#45;l072z&#45;lrwan1</text>
<text text-anchor="middle" x="148.4" y="-119.5" font-family="Helvetica,sans-Serif" font-size="10.00">/include/periph_conf.h</text>
</a>
</g>
</g>
<!-- Node2 -->
<g id="node2" class="node">
<title>Node2</title>
<g id="a_node2"><a xlink:title=" ">
<polygon fill="none" stroke="#bfbfbf" points="231.9,-0.5 231.9,-19.5 310.9,-19.5 310.9,-0.5 231.9,-0.5"/>
<text text-anchor="middle" x="271.4" y="-7.5" font-family="Helvetica,sans-Serif" font-size="10.00">periph_cpu.h</text>
</a>
</g>
</g>
<!-- Node1&#45;&gt;Node2 -->
<g id="edge1" class="edge">
<title>Node1&#45;&gt;Node2</title>
<path fill="none" stroke="midnightblue" d="M85.66,-117.08C36.4,-107.06 -19.7,-88.1 7.4,-56 34.25,-24.19 152.69,-14.86 221.47,-12.13"/>
<polygon fill="midnightblue" stroke="midnightblue" points="221.78,-15.62 231.65,-11.76 221.53,-8.63 221.78,-15.62"/>
</g>
<!-- Node3 -->
<g id="node3" class="node">
<title>Node3</title>
<g id="a_node3"><a xlink:title=" ">
<polygon fill="none" stroke="#bfbfbf" points="16.9,-56.5 16.9,-75.5 81.9,-75.5 81.9,-56.5 16.9,-56.5"/>
<text text-anchor="middle" x="49.4" y="-63.5" font-family="Helvetica,sans-Serif" font-size="10.00">clk_conf.h</text>
</a>
</g>
</g>
<!-- Node1&#45;&gt;Node3 -->
<g id="edge2" class="edge">
<title>Node1&#45;&gt;Node3</title>
<path fill="none" stroke="midnightblue" d="M124.94,-112.4C109.07,-102.86 88.21,-90.32 72.43,-80.84"/>
<polygon fill="midnightblue" stroke="midnightblue" points="74.18,-77.81 63.81,-75.66 70.57,-83.81 74.18,-77.81"/>
</g>
<!-- Node4 -->
<g id="node4" class="node">
<title>Node4</title>
<g id="a_node4"><a xlink:title=" ">
<polygon fill="none" stroke="#bfbfbf" points="99.9,-56.5 99.9,-75.5 196.9,-75.5 196.9,-56.5 99.9,-56.5"/>
<text text-anchor="middle" x="148.4" y="-63.5" font-family="Helvetica,sans-Serif" font-size="10.00">cfg_rtt_default.h</text>
</a>
</g>
</g>
<!-- Node1&#45;&gt;Node4 -->
<g id="edge3" class="edge">
<title>Node1&#45;&gt;Node4</title>
<path fill="none" stroke="midnightblue" d="M148.4,-112.4C148.4,-104.47 148.4,-94.46 148.4,-85.86"/>
<polygon fill="midnightblue" stroke="midnightblue" points="151.9,-85.66 148.4,-75.66 144.9,-85.66 151.9,-85.66"/>
</g>
<!-- Node5 -->
<g id="node5" class="node">
<title>Node5</title>
<g id="a_node5"><a xlink:href="cfg__i2c1__pb8__pb9_8h.html" target="_top" xlink:title="Common configuration for STM32 I2C.">
<polygon fill="none" stroke="black" points="214.9,-56.5 214.9,-75.5 327.9,-75.5 327.9,-56.5 214.9,-56.5"/>
<text text-anchor="middle" x="271.4" y="-63.5" font-family="Helvetica,sans-Serif" font-size="10.00">cfg_i2c1_pb8_pb9.h</text>
</a>
</g>
</g>
<!-- Node1&#45;&gt;Node5 -->
<g id="edge4" class="edge">
<title>Node1&#45;&gt;Node5</title>
<path fill="none" stroke="midnightblue" d="M177.55,-112.4C197.82,-102.59 224.64,-89.62 244.42,-80.05"/>
<polygon fill="midnightblue" stroke="midnightblue" points="246.02,-83.16 253.5,-75.66 242.98,-76.86 246.02,-83.16"/>
</g>
<!-- Node6 -->
<g id="node6" class="node">
<title>Node6</title>
<g id="a_node6"><a xlink:href="cfg__timer__tim2_8h.html" target="_top" xlink:title="Common configuration for STM32 Timer peripheral based on TIM2.">
<polygon fill="none" stroke="black" points="346.4,-56.5 346.4,-75.5 446.4,-75.5 446.4,-56.5 346.4,-56.5"/>
<text text-anchor="middle" x="396.4" y="-63.5" font-family="Helvetica,sans-Serif" font-size="10.00">cfg_timer_tim2.h</text>
</a>
</g>
</g>
<!-- Node1&#45;&gt;Node6 -->
<g id="edge6" class="edge">
<title>Node1&#45;&gt;Node6</title>
<path fill="none" stroke="midnightblue" d="M206.86,-112.47C250.95,-101.9 310.56,-87.59 351.08,-77.87"/>
<polygon fill="midnightblue" stroke="midnightblue" points="352.04,-81.24 360.95,-75.51 350.4,-74.44 352.04,-81.24"/>
</g>
<!-- Node5&#45;&gt;Node2 -->
<g id="edge5" class="edge">
<title>Node5&#45;&gt;Node2</title>
<path fill="none" stroke="midnightblue" d="M271.4,-56.08C271.4,-49.01 271.4,-38.86 271.4,-29.99"/>
<polygon fill="midnightblue" stroke="midnightblue" points="274.9,-29.75 271.4,-19.75 267.9,-29.75 274.9,-29.75"/>
</g>
<!-- Node6&#45;&gt;Node2 -->
<g id="edge7" class="edge">
<title>Node6&#45;&gt;Node2</title>
<path fill="none" stroke="midnightblue" d="M376.59,-56.44C356.11,-47.6 323.92,-33.69 300.54,-23.59"/>
<polygon fill="midnightblue" stroke="midnightblue" points="301.68,-20.27 291.11,-19.52 298.91,-26.7 301.68,-20.27"/>
</g>
</g>
</svg>
