<?xml version="1.0" encoding="UTF-8" standalone="no"?>
<!DOCTYPE svg PUBLIC "-//W3C//DTD SVG 1.1//EN"
 "http://www.w3.org/Graphics/SVG/1.1/DTD/svg11.dtd">
<!-- Generated by graphviz version 2.40.1 (20161225.0304)
 -->
<!-- Title: boards/feather&#45;m0/include/sdcard_spi_params.h Pages: 1 -->
<svg width="207pt" height="207pt"
 viewBox="0.00 0.00 206.50 207.00" xmlns="http://www.w3.org/2000/svg" xmlns:xlink="http://www.w3.org/1999/xlink">
<g id="graph0" class="graph" transform="scale(1 1) rotate(0) translate(4 203)">
<title>boards/feather&#45;m0/include/sdcard_spi_params.h</title>
<!-- Node0 -->
<g id="node1" class="node">
<title>Node0</title>
<polygon fill="#bfbfbf" stroke="#000000" points="22,-168.5 22,-198.5 151,-198.5 151,-168.5 22,-168.5"/>
<text text-anchor="start" x="30" y="-186.5" font-family="Helvetica,sans-Serif" font-size="10.00" fill="#000000">boards/feather&#45;m0/include</text>
<text text-anchor="middle" x="86.5" y="-175.5" font-family="Helvetica,sans-Serif" font-size="10.00" fill="#000000">/sdcard_spi_params.h</text>
</g>
<!-- Node1 -->
<g id="node2" class="node">
<title>Node1</title>
<g id="a_node2"><a xlink:href="feather-m0_2include_2board_8h.html" target="_top" xlink:title="Board specific configuration for the Adafruit Feather M0. ">
<polygon fill="none" stroke="#000000" points="62,-112.5 62,-131.5 111,-131.5 111,-112.5 62,-112.5"/>
<text text-anchor="middle" x="86.5" y="-119.5" font-family="Helvetica,sans-Serif" font-size="10.00" fill="#000000">board.h</text>
</a>
</g>
</g>
<!-- Node0&#45;&gt;Node1 -->
<g id="edge1" class="edge">
<title>Node0&#45;&gt;Node1</title>
<path fill="none" stroke="#191970" d="M86.5,-168.2977C86.5,-160.3834 86.5,-150.6043 86.5,-142.0759"/>
<polygon fill="#191970" stroke="#191970" points="90.0001,-141.8469 86.5,-131.8469 83.0001,-141.847 90.0001,-141.8469"/>
</g>
<!-- Node2 -->
<g id="node3" class="node">
<title>Node2</title>
<polygon fill="none" stroke="#bfbfbf" points="0,-.5 0,-19.5 41,-19.5 41,-.5 0,-.5"/>
<text text-anchor="middle" x="20.5" y="-7.5" font-family="Helvetica,sans-Serif" font-size="10.00" fill="#000000">cpu.h</text>
</g>
<!-- Node1&#45;&gt;Node2 -->
<g id="edge2" class="edge">
<title>Node1&#45;&gt;Node2</title>
<path fill="none" stroke="#191970" d="M73.8499,-112.3458C63.5036,-103.8273 49.2074,-90.5321 40.5,-76 31.8568,-61.5749 26.6775,-43.1116 23.7628,-29.3833"/>
<polygon fill="#191970" stroke="#191970" points="27.2001,-28.723 21.888,-19.5561 20.3241,-30.0349 27.2001,-28.723"/>
</g>
<!-- Node3 -->
<g id="node4" class="node">
<title>Node3</title>
<g id="a_node4"><a xlink:href="boards_2feather-m0_2include_2periph__conf_8h.html" target="_top" xlink:title="Configuration of CPU peripherals for Adafruit Feather M0. ">
<polygon fill="none" stroke="#000000" points="49,-56.5 49,-75.5 124,-75.5 124,-56.5 49,-56.5"/>
<text text-anchor="middle" x="86.5" y="-63.5" font-family="Helvetica,sans-Serif" font-size="10.00" fill="#000000">periph_conf.h</text>
</a>
</g>
</g>
<!-- Node1&#45;&gt;Node3 -->
<g id="edge3" class="edge">
<title>Node1&#45;&gt;Node3</title>
<path fill="none" stroke="#191970" d="M86.5,-112.2455C86.5,-104.9382 86.5,-94.6944 86.5,-85.7046"/>
<polygon fill="#191970" stroke="#191970" points="90.0001,-85.6426 86.5,-75.6427 83.0001,-85.6427 90.0001,-85.6426"/>
</g>
<!-- Node5 -->
<g id="node6" class="node">
<title>Node5</title>
<polygon fill="none" stroke="#bfbfbf" points="126.5,-.5 126.5,-19.5 198.5,-19.5 198.5,-.5 126.5,-.5"/>
<text text-anchor="middle" x="162.5" y="-7.5" font-family="Helvetica,sans-Serif" font-size="10.00" fill="#000000">periph_cpu.h</text>
</g>
<!-- Node1&#45;&gt;Node5 -->
<g id="edge7" class="edge">
<title>Node1&#45;&gt;Node5</title>
<path fill="none" stroke="#191970" d="M98.2657,-112.379C108.3384,-103.6812 122.7218,-90.11 132.5,-76 142.5694,-61.4699 150.6201,-43.0168 155.8362,-29.3191"/>
<polygon fill="#191970" stroke="#191970" points="159.2714,-30.1132 159.3961,-19.5191 152.692,-27.7231 159.2714,-30.1132"/>
</g>
<!-- Node3&#45;&gt;Node2 -->
<g id="edge5" class="edge">
<title>Node3&#45;&gt;Node2</title>
<path fill="none" stroke="#191970" d="M75.0037,-56.2455C65.2558,-47.9746 51.0741,-35.9416 39.6202,-26.2232"/>
<polygon fill="#191970" stroke="#191970" points="41.7541,-23.4437 31.8646,-19.6427 37.2253,-28.7813 41.7541,-23.4437"/>
</g>
<!-- Node4 -->
<g id="node5" class="node">
<title>Node4</title>
<polygon fill="none" stroke="#bfbfbf" points="59,-.5 59,-19.5 108,-19.5 108,-.5 59,-.5"/>
<text text-anchor="middle" x="83.5" y="-7.5" font-family="Helvetica,sans-Serif" font-size="10.00" fill="#000000">stdint.h</text>
</g>
<!-- Node3&#45;&gt;Node4 -->
<g id="edge4" class="edge">
<title>Node3&#45;&gt;Node4</title>
<path fill="none" stroke="#191970" d="M85.9774,-56.2455C85.586,-48.9382 85.0372,-38.6944 84.5556,-29.7046"/>
<polygon fill="#191970" stroke="#191970" points="88.0466,-29.4411 84.0166,-19.6427 81.0566,-29.8156 88.0466,-29.4411"/>
</g>
<!-- Node3&#45;&gt;Node5 -->
<g id="edge6" class="edge">
<title>Node3&#45;&gt;Node5</title>
<path fill="none" stroke="#191970" d="M99.7382,-56.2455C111.181,-47.814 127.9296,-35.4729 141.2475,-25.6598"/>
<polygon fill="#191970" stroke="#191970" points="143.4391,-28.3924 149.4135,-19.6427 139.2867,-22.757 143.4391,-28.3924"/>
</g>
</g>
</svg>
