<?xml version="1.0" encoding="UTF-8" standalone="no"?>
<!DOCTYPE svg PUBLIC "-//W3C//DTD SVG 1.1//EN"
 "http://www.w3.org/Graphics/SVG/1.1/DTD/svg11.dtd">
<!-- Generated by graphviz version 2.40.1 (20161225.0304)
 -->
<!-- Title: boards/nucleo&#45;f429zi/include/periph_conf.h Pages: 1 -->
<svg width="619pt" height="162pt"
 viewBox="0.00 0.00 619.00 162.00" xmlns="http://www.w3.org/2000/svg" xmlns:xlink="http://www.w3.org/1999/xlink">
<g id="graph0" class="graph" transform="scale(1 1) rotate(0) translate(4 158)">
<title>boards/nucleo&#45;f429zi/include/periph_conf.h</title>
<!-- Node0 -->
<g id="node1" class="node">
<title>Node0</title>
<polygon fill="#bfbfbf" stroke="#000000" points="231,-123.5 231,-153.5 343,-153.5 343,-123.5 231,-123.5"/>
<text text-anchor="start" x="239" y="-141.5" font-family="Helvetica,sans-Serif" font-size="10.00" fill="#000000">boards/nucleo&#45;f429zi</text>
<text text-anchor="middle" x="287" y="-130.5" font-family="Helvetica,sans-Serif" font-size="10.00" fill="#000000">/include/periph_conf.h</text>
</g>
<!-- Node1 -->
<g id="node2" class="node">
<title>Node1</title>
<polygon fill="none" stroke="#bfbfbf" points="306,-6 306,-25 378,-25 378,-6 306,-6"/>
<text text-anchor="middle" x="342" y="-13" font-family="Helvetica,sans-Serif" font-size="10.00" fill="#000000">periph_cpu.h</text>
</g>
<!-- Node0&#45;&gt;Node1 -->
<g id="edge1" class="edge">
<title>Node0&#45;&gt;Node1</title>
<path fill="none" stroke="#191970" d="M230.6988,-126.7455C189.8543,-115.5385 145.2818,-96.0305 167,-67 182.5095,-46.2686 249.5931,-31.0111 296.0451,-22.692"/>
<polygon fill="#191970" stroke="#191970" points="296.6579,-26.1381 305.9086,-20.9734 295.4563,-19.2419 296.6579,-26.1381"/>
</g>
<!-- Node2 -->
<g id="node3" class="node">
<title>Node2</title>
<g id="a_node3"><a xlink:href="cfg__clock__168__8__1_8h.html" target="_top" xlink:title="Configure STM32F4 clock to 168MHz using PLL with LSE. ">
<polygon fill="none" stroke="#000000" points="0,-67.5 0,-86.5 120,-86.5 120,-67.5 0,-67.5"/>
<text text-anchor="middle" x="60" y="-74.5" font-family="Helvetica,sans-Serif" font-size="10.00" fill="#000000">f4/cfg_clock_168_8_1.h</text>
</a>
</g>
</g>
<!-- Node0&#45;&gt;Node2 -->
<g id="edge2" class="edge">
<title>Node0&#45;&gt;Node2</title>
<path fill="none" stroke="#191970" d="M231.4696,-123.4554C192.5973,-112.9239 141.3243,-99.0328 105.0024,-89.1923"/>
<polygon fill="#191970" stroke="#191970" points="105.7443,-85.7672 95.1769,-86.5303 103.9137,-92.5236 105.7443,-85.7672"/>
</g>
<!-- Node4 -->
<g id="node5" class="node">
<title>Node4</title>
<g id="a_node5"><a xlink:href="cfg__i2c1__pb8__pb9_8h.html" target="_top" xlink:title="Common configuration for STM32 I2C. ">
<polygon fill="none" stroke="#000000" points="176,-67.5 176,-86.5 280,-86.5 280,-67.5 176,-67.5"/>
<text text-anchor="middle" x="228" y="-74.5" font-family="Helvetica,sans-Serif" font-size="10.00" fill="#000000">cfg_i2c1_pb8_pb9.h</text>
</a>
</g>
</g>
<!-- Node0&#45;&gt;Node4 -->
<g id="edge4" class="edge">
<title>Node0&#45;&gt;Node4</title>
<path fill="none" stroke="#191970" d="M272.4157,-123.2977C263.97,-114.4941 253.3108,-103.3833 244.5516,-94.2529"/>
<polygon fill="#191970" stroke="#191970" points="246.8952,-91.6402 237.4466,-86.8469 241.8439,-96.4862 246.8952,-91.6402"/>
</g>
<!-- Node5 -->
<g id="node6" class="node">
<title>Node5</title>
<g id="a_node6"><a xlink:href="cfg__spi__divtable_8h.html" target="_top" xlink:title="Collection of pre&#45;computed bus pre&#45;scalers for SPI configuration. ">
<polygon fill="none" stroke="#000000" points="298.5,-67.5 298.5,-86.5 393.5,-86.5 393.5,-67.5 298.5,-67.5"/>
<text text-anchor="middle" x="346" y="-74.5" font-family="Helvetica,sans-Serif" font-size="10.00" fill="#000000">cfg_spi_divtable.h</text>
</a>
</g>
</g>
<!-- Node0&#45;&gt;Node5 -->
<g id="edge6" class="edge">
<title>Node0&#45;&gt;Node5</title>
<path fill="none" stroke="#191970" d="M301.5843,-123.2977C310.03,-114.4941 320.6892,-103.3833 329.4484,-94.2529"/>
<polygon fill="#191970" stroke="#191970" points="332.1561,-96.4862 336.5534,-86.8469 327.1048,-91.6402 332.1561,-96.4862"/>
</g>
<!-- Node6 -->
<g id="node7" class="node">
<title>Node6</title>
<g id="a_node7"><a xlink:href="cfg__timer__tim5_8h.html" target="_top" xlink:title="Common configuration for STM32 Timer peripheral based on TIM5. ">
<polygon fill="none" stroke="#000000" points="411.5,-67.5 411.5,-86.5 500.5,-86.5 500.5,-67.5 411.5,-67.5"/>
<text text-anchor="middle" x="456" y="-74.5" font-family="Helvetica,sans-Serif" font-size="10.00" fill="#000000">cfg_timer_tim5.h</text>
</a>
</g>
</g>
<!-- Node0&#45;&gt;Node6 -->
<g id="edge7" class="edge">
<title>Node0&#45;&gt;Node6</title>
<path fill="none" stroke="#191970" d="M328.3421,-123.4554C356.5401,-113.194 393.5031,-99.7429 420.3943,-89.9571"/>
<polygon fill="#191970" stroke="#191970" points="421.6108,-93.239 429.811,-86.5303 419.217,-86.6611 421.6108,-93.239"/>
</g>
<!-- Node7 -->
<g id="node8" class="node">
<title>Node7</title>
<g id="a_node8"><a xlink:href="cfg__usb__otg__fs_8h.html" target="_top" xlink:title="Common configuration for STM32 OTG FS peripheral. ">
<polygon fill="none" stroke="#000000" points="519,-67.5 519,-86.5 611,-86.5 611,-67.5 519,-67.5"/>
<text text-anchor="middle" x="565" y="-74.5" font-family="Helvetica,sans-Serif" font-size="10.00" fill="#000000">cfg_usb_otg_fs.h</text>
</a>
</g>
</g>
<!-- Node0&#45;&gt;Node7 -->
<g id="edge9" class="edge">
<title>Node0&#45;&gt;Node7</title>
<path fill="none" stroke="#191970" d="M343.2574,-126.0546C392.5818,-115.1429 463.7615,-99.3963 512.0698,-88.7094"/>
<polygon fill="#191970" stroke="#191970" points="513.0071,-92.0867 522.015,-86.5093 511.495,-85.252 513.0071,-92.0867"/>
</g>
<!-- Node3 -->
<g id="node4" class="node">
<title>Node3</title>
<g id="a_node4"><a xlink:href="cfg__clock__168__8__common_8h.html" target="_top" xlink:title="Configure STM32F4 clock to 168MHz using PLL. ">
<polygon fill="none" stroke="#000000" points="9.5,-.5 9.5,-30.5 110.5,-30.5 110.5,-.5 9.5,-.5"/>
<text text-anchor="start" x="17.5" y="-18.5" font-family="Helvetica,sans-Serif" font-size="10.00" fill="#000000">f4/cfg_clock_168_8</text>
<text text-anchor="middle" x="60" y="-7.5" font-family="Helvetica,sans-Serif" font-size="10.00" fill="#000000">_common.h</text>
</a>
</g>
</g>
<!-- Node2&#45;&gt;Node3 -->
<g id="edge3" class="edge">
<title>Node2&#45;&gt;Node3</title>
<path fill="none" stroke="#191970" d="M60,-67.3906C60,-60.2234 60,-50.0862 60,-40.671"/>
<polygon fill="#191970" stroke="#191970" points="63.5001,-40.5446 60,-30.5446 56.5001,-40.5446 63.5001,-40.5446"/>
</g>
<!-- Node4&#45;&gt;Node1 -->
<g id="edge5" class="edge">
<title>Node4&#45;&gt;Node1</title>
<path fill="none" stroke="#191970" d="M245.8125,-67.3906C264.4685,-57.3262 293.9797,-41.4057 315.3974,-29.8514"/>
<polygon fill="#191970" stroke="#191970" points="317.1734,-32.8702 324.3126,-25.0419 313.8498,-26.7095 317.1734,-32.8702"/>
</g>
<!-- Node6&#45;&gt;Node1 -->
<g id="edge8" class="edge">
<title>Node6&#45;&gt;Node1</title>
<path fill="none" stroke="#191970" d="M438.1875,-67.3906C419.5315,-57.3262 390.0203,-41.4057 368.6026,-29.8514"/>
<polygon fill="#191970" stroke="#191970" points="370.1502,-26.7095 359.6874,-25.0419 366.8266,-32.8702 370.1502,-26.7095"/>
</g>
<!-- Node7&#45;&gt;Node1 -->
<g id="edge10" class="edge">
<title>Node7&#45;&gt;Node1</title>
<path fill="none" stroke="#191970" d="M530.1563,-67.3906C491.3714,-56.6944 428.6023,-39.3836 386.3441,-27.7294"/>
<polygon fill="#191970" stroke="#191970" points="387.1697,-24.3265 376.5991,-25.0419 385.3087,-31.0746 387.1697,-24.3265"/>
</g>
</g>
</svg>
