<?xml version="1.0" encoding="UTF-8" standalone="no"?>
<!DOCTYPE svg PUBLIC "-//W3C//DTD SVG 1.1//EN"
 "http://www.w3.org/Graphics/SVG/1.1/DTD/svg11.dtd">
<!-- Generated by graphviz version 2.40.1 (20161225.0304)
 -->
<!-- Title: boards/b&#45;l072z&#45;lrwan1/include/periph_conf.h Pages: 1 -->
<svg width="476pt" height="151pt"
 viewBox="0.00 0.00 475.59 151.00" xmlns="http://www.w3.org/2000/svg" xmlns:xlink="http://www.w3.org/1999/xlink">
<g id="graph0" class="graph" transform="scale(1 1) rotate(0) translate(4 147)">
<title>boards/b&#45;l072z&#45;lrwan1/include/periph_conf.h</title>
<!-- Node0 -->
<g id="node1" class="node">
<title>Node0</title>
<polygon fill="#bfbfbf" stroke="#000000" points="138.0898,-112.5 138.0898,-142.5 250.0898,-142.5 250.0898,-112.5 138.0898,-112.5"/>
<text text-anchor="start" x="146.0898" y="-130.5" font-family="Helvetica,sans-Serif" font-size="10.00" fill="#000000">boards/b&#45;l072z&#45;lrwan1</text>
<text text-anchor="middle" x="194.0898" y="-119.5" font-family="Helvetica,sans-Serif" font-size="10.00" fill="#000000">/include/periph_conf.h</text>
</g>
<!-- Node1 -->
<g id="node2" class="node">
<title>Node1</title>
<polygon fill="none" stroke="#bfbfbf" points="154.0898,-.5 154.0898,-19.5 226.0898,-19.5 226.0898,-.5 154.0898,-.5"/>
<text text-anchor="middle" x="190.0898" y="-7.5" font-family="Helvetica,sans-Serif" font-size="10.00" fill="#000000">periph_cpu.h</text>
</g>
<!-- Node0&#45;&gt;Node1 -->
<g id="edge1" class="edge">
<title>Node0&#45;&gt;Node1</title>
<path fill="none" stroke="#191970" d="M137.6582,-119.834C87.7284,-111.7576 20.3393,-97.2402 4.0898,-76 -1.3112,-68.9401 -1.3893,-62.9993 4.0898,-56 21.1271,-34.236 94.4223,-21.3442 143.7577,-14.9769"/>
<polygon fill="#191970" stroke="#191970" points="144.4013,-18.4239 153.8928,-13.7164 143.5373,-11.4774 144.4013,-18.4239"/>
</g>
<!-- Node2 -->
<g id="node3" class="node">
<title>Node2</title>
<g id="a_node3"><a xlink:href="cfg__clock__32__16__1_8h.html" target="_top" xlink:title="Configure STM32L0 clock using 32MHz core clock and LSE (32.768kHz) ">
<polygon fill="none" stroke="#000000" points="13.5898,-56.5 13.5898,-75.5 132.5898,-75.5 132.5898,-56.5 13.5898,-56.5"/>
<text text-anchor="middle" x="73.0898" y="-63.5" font-family="Helvetica,sans-Serif" font-size="10.00" fill="#000000">l0/cfg_clock_32_16_1.h</text>
</a>
</g>
</g>
<!-- Node0&#45;&gt;Node2 -->
<g id="edge2" class="edge">
<title>Node0&#45;&gt;Node2</title>
<path fill="none" stroke="#191970" d="M164.4899,-112.4554C145.0977,-102.599 119.9157,-89.7999 100.8956,-80.1327"/>
<polygon fill="#191970" stroke="#191970" points="102.341,-76.9412 91.8406,-75.5303 99.1693,-83.1815 102.341,-76.9412"/>
</g>
<!-- Node3 -->
<g id="node4" class="node">
<title>Node3</title>
<polygon fill="none" stroke="#bfbfbf" points="150.5898,-56.5 150.5898,-75.5 237.5898,-75.5 237.5898,-56.5 150.5898,-56.5"/>
<text text-anchor="middle" x="194.0898" y="-63.5" font-family="Helvetica,sans-Serif" font-size="10.00" fill="#000000">cfg_rtt_default.h</text>
</g>
<!-- Node0&#45;&gt;Node3 -->
<g id="edge4" class="edge">
<title>Node0&#45;&gt;Node3</title>
<path fill="none" stroke="#191970" d="M194.0898,-112.2977C194.0898,-104.3834 194.0898,-94.6043 194.0898,-86.0759"/>
<polygon fill="#191970" stroke="#191970" points="197.5899,-85.8469 194.0898,-75.8469 190.5899,-85.847 197.5899,-85.8469"/>
</g>
<!-- Node4 -->
<g id="node5" class="node">
<title>Node4</title>
<g id="a_node5"><a xlink:href="cfg__i2c1__pb8__pb9_8h.html" target="_top" xlink:title="Common configuration for STM32 I2C. ">
<polygon fill="none" stroke="#000000" points="256.0898,-56.5 256.0898,-75.5 360.0898,-75.5 360.0898,-56.5 256.0898,-56.5"/>
<text text-anchor="middle" x="308.0898" y="-63.5" font-family="Helvetica,sans-Serif" font-size="10.00" fill="#000000">cfg_i2c1_pb8_pb9.h</text>
</a>
</g>
</g>
<!-- Node0&#45;&gt;Node4 -->
<g id="edge5" class="edge">
<title>Node0&#45;&gt;Node4</title>
<path fill="none" stroke="#191970" d="M221.9774,-112.4554C239.9975,-102.734 263.324,-90.15 281.153,-80.5317"/>
<polygon fill="#191970" stroke="#191970" points="283.2847,-83.3586 290.4239,-75.5303 279.9611,-77.1979 283.2847,-83.3586"/>
</g>
<!-- Node5 -->
<g id="node6" class="node">
<title>Node5</title>
<g id="a_node6"><a xlink:href="cfg__timer__tim2_8h.html" target="_top" xlink:title="Common configuration for STM32 Timer peripheral based on TIM2. ">
<polygon fill="none" stroke="#000000" points="378.5898,-56.5 378.5898,-75.5 467.5898,-75.5 467.5898,-56.5 378.5898,-56.5"/>
<text text-anchor="middle" x="423.0898" y="-63.5" font-family="Helvetica,sans-Serif" font-size="10.00" fill="#000000">cfg_timer_tim2.h</text>
</a>
</g>
</g>
<!-- Node0&#45;&gt;Node5 -->
<g id="edge7" class="edge">
<title>Node0&#45;&gt;Node5</title>
<path fill="none" stroke="#191970" d="M250.1096,-112.4554C289.3243,-101.9239 341.0491,-88.0328 377.691,-78.1923"/>
<polygon fill="#191970" stroke="#191970" points="378.853,-81.5043 387.603,-75.5303 377.0374,-74.7438 378.853,-81.5043"/>
</g>
<!-- Node2&#45;&gt;Node1 -->
<g id="edge3" class="edge">
<title>Node2&#45;&gt;Node1</title>
<path fill="none" stroke="#191970" d="M93.2029,-56.3733C111.9002,-47.4241 139.9642,-33.9917 161.0833,-23.8835"/>
<polygon fill="#191970" stroke="#191970" points="162.7303,-26.9755 170.2393,-19.5011 159.7082,-20.6614 162.7303,-26.9755"/>
</g>
<!-- Node4&#45;&gt;Node1 -->
<g id="edge6" class="edge">
<title>Node4&#45;&gt;Node1</title>
<path fill="none" stroke="#191970" d="M287.8049,-56.3733C268.9478,-47.4241 240.6439,-33.9917 219.3444,-23.8835"/>
<polygon fill="#191970" stroke="#191970" points="220.645,-20.6266 210.1101,-19.5011 217.6437,-26.9506 220.645,-20.6266"/>
</g>
<!-- Node5&#45;&gt;Node1 -->
<g id="edge8" class="edge">
<title>Node5&#45;&gt;Node1</title>
<path fill="none" stroke="#191970" d="M383.3005,-56.4369C342.5089,-46.6329 279.1301,-31.4002 236.1813,-21.0778"/>
<polygon fill="#191970" stroke="#191970" points="236.8089,-17.629 226.2679,-18.6951 235.1731,-24.4352 236.8089,-17.629"/>
</g>
</g>
</svg>
