<?xml version="1.0" encoding="UTF-8" standalone="no"?>
<!DOCTYPE svg PUBLIC "-//W3C//DTD SVG 1.1//EN"
 "http://www.w3.org/Graphics/SVG/1.1/DTD/svg11.dtd">
<!-- Generated by graphviz version 2.43.0 (0)
 -->
<!-- Title: boards/nucleo&#45;f072rb/include/periph_conf.h Pages: 1 -->
<svg width="276pt" height="151pt"
 viewBox="0.00 0.00 276.46 151.00" xmlns="http://www.w3.org/2000/svg" xmlns:xlink="http://www.w3.org/1999/xlink">
<g id="graph0" class="graph" transform="scale(1 1) rotate(0) translate(4 147)">
<title>boards/nucleo&#45;f072rb/include/periph_conf.h</title>
<!-- Node1 -->
<g id="node1" class="node">
<title>Node1</title>
<g id="a_node1"><a xlink:title="Peripheral MCU configuration for the nucleo&#45;f072rb board.">
<polygon fill="#bfbfbf" stroke="black" points="13.46,-112.5 13.46,-142.5 136.46,-142.5 136.46,-112.5 13.46,-112.5"/>
<text text-anchor="start" x="21.46" y="-130.5" font-family="Helvetica,sans-Serif" font-size="10.00">boards/nucleo&#45;f072rb</text>
<text text-anchor="middle" x="74.96" y="-119.5" font-family="Helvetica,sans-Serif" font-size="10.00">/include/periph_conf.h</text>
</a>
</g>
</g>
<!-- Node2 -->
<g id="node2" class="node">
<title>Node2</title>
<g id="a_node2"><a xlink:title=" ">
<polygon fill="none" stroke="#bfbfbf" points="58.46,-0.5 58.46,-19.5 137.46,-19.5 137.46,-0.5 58.46,-0.5"/>
<text text-anchor="middle" x="97.96" y="-7.5" font-family="Helvetica,sans-Serif" font-size="10.00">periph_cpu.h</text>
</a>
</g>
</g>
<!-- Node1&#45;&gt;Node2 -->
<g id="edge1" class="edge">
<title>Node1&#45;&gt;Node2</title>
<path fill="none" stroke="midnightblue" d="M42.85,-112.37C17.92,-99.28 -10.21,-78.49 3.96,-56 14.05,-39.98 31.59,-29.54 48.81,-22.79"/>
<polygon fill="midnightblue" stroke="midnightblue" points="50.05,-26.07 58.29,-19.41 47.7,-19.47 50.05,-26.07"/>
</g>
<!-- Node3 -->
<g id="node3" class="node">
<title>Node3</title>
<g id="a_node3"><a xlink:href="cpu_2stm32_2include_2clk_2f0_2cfg__clock__default_8h.html" target="_top" xlink:title="Default clock configuration for STM32F0.">
<polygon fill="none" stroke="black" points="12.96,-56.5 12.96,-75.5 136.96,-75.5 136.96,-56.5 12.96,-56.5"/>
<text text-anchor="middle" x="74.96" y="-63.5" font-family="Helvetica,sans-Serif" font-size="10.00">f0/cfg_clock_default.h</text>
</a>
</g>
</g>
<!-- Node1&#45;&gt;Node3 -->
<g id="edge2" class="edge">
<title>Node1&#45;&gt;Node3</title>
<path fill="none" stroke="midnightblue" d="M74.96,-112.4C74.96,-104.47 74.96,-94.46 74.96,-85.86"/>
<polygon fill="midnightblue" stroke="midnightblue" points="78.46,-85.66 74.96,-75.66 71.46,-85.66 78.46,-85.66"/>
</g>
<!-- Node4 -->
<g id="node4" class="node">
<title>Node4</title>
<g id="a_node4"><a xlink:href="cfg__i2c1__pb8__pb9_8h.html" target="_top" xlink:title="Common configuration for STM32 I2C.">
<polygon fill="none" stroke="black" points="155.46,-56.5 155.46,-75.5 268.46,-75.5 268.46,-56.5 155.46,-56.5"/>
<text text-anchor="middle" x="211.96" y="-63.5" font-family="Helvetica,sans-Serif" font-size="10.00">cfg_i2c1_pb8_pb9.h</text>
</a>
</g>
</g>
<!-- Node1&#45;&gt;Node4 -->
<g id="edge3" class="edge">
<title>Node1&#45;&gt;Node4</title>
<path fill="none" stroke="midnightblue" d="M107.42,-112.4C130.31,-102.46 160.69,-89.26 182.8,-79.66"/>
<polygon fill="midnightblue" stroke="midnightblue" points="184.24,-82.85 192.02,-75.66 181.46,-76.43 184.24,-82.85"/>
</g>
<!-- Node4&#45;&gt;Node2 -->
<g id="edge4" class="edge">
<title>Node4&#45;&gt;Node2</title>
<path fill="none" stroke="midnightblue" d="M193.89,-56.44C175.38,-47.68 146.38,-33.94 125.1,-23.86"/>
<polygon fill="midnightblue" stroke="midnightblue" points="126.47,-20.63 115.94,-19.52 123.47,-26.96 126.47,-20.63"/>
</g>
</g>
</svg>
