<?xml version="1.0" encoding="UTF-8" standalone="no"?>
<!DOCTYPE svg PUBLIC "-//W3C//DTD SVG 1.1//EN"
 "http://www.w3.org/Graphics/SVG/1.1/DTD/svg11.dtd">
<!-- Generated by graphviz version 2.40.1 (20161225.0304)
 -->
<!-- Title: boards/mbed_lpc1768/include/periph_conf.h Pages: 1 -->
<svg width="125pt" height="173pt"
 viewBox="0.00 0.00 125.00 173.00" xmlns="http://www.w3.org/2000/svg" xmlns:xlink="http://www.w3.org/1999/xlink">
<g id="graph0" class="graph" transform="scale(1 1) rotate(0) translate(4 169)">
<title>boards/mbed_lpc1768/include/periph_conf.h</title>
<!-- Node1 -->
<g id="node1" class="node">
<title>Node1</title>
<polygon fill="#bfbfbf" stroke="#000000" points="2.5,-134.5 2.5,-164.5 114.5,-164.5 114.5,-134.5 2.5,-134.5"/>
<text text-anchor="start" x="10.5" y="-152.5" font-family="Helvetica,sans-Serif" font-size="10.00" fill="#000000">boards/mbed_lpc1768</text>
<text text-anchor="middle" x="58.5" y="-141.5" font-family="Helvetica,sans-Serif" font-size="10.00" fill="#000000">/include/periph_conf.h</text>
</g>
<!-- Node2 -->
<g id="node2" class="node">
<title>Node2</title>
<g id="a_node2"><a xlink:href="mbed__lpc1768_2include_2board_8h.html" target="_top" xlink:title="Board specific definitions for the mbed_lpc1768 board. ">
<polygon fill="none" stroke="#000000" points="2.5,-67.5 2.5,-97.5 114.5,-97.5 114.5,-67.5 2.5,-67.5"/>
<text text-anchor="start" x="10.5" y="-85.5" font-family="Helvetica,sans-Serif" font-size="10.00" fill="#000000">boards/mbed_lpc1768</text>
<text text-anchor="middle" x="58.5" y="-74.5" font-family="Helvetica,sans-Serif" font-size="10.00" fill="#000000">/include/board.h</text>
</a>
</g>
</g>
<!-- Node1&#45;&gt;Node2 -->
<g id="edge1" class="edge">
<title>Node1&#45;&gt;Node2</title>
<path fill="none" stroke="#191970" d="M58.5,-124.0249C58.5,-115.128 58.5,-105.4287 58.5,-97.6432"/>
<polygon fill="#191970" stroke="#191970" points="55.0001,-124.2966 58.5,-134.2967 62.0001,-124.2967 55.0001,-124.2966"/>
</g>
<!-- Node3 -->
<g id="node3" class="node">
<title>Node3</title>
<g id="a_node3"><a xlink:href="mbed__lpc1768_2include_2gpio__params_8h.html" target="_top" xlink:title="Board specific configuration of direct mapped GPIOs. ">
<polygon fill="none" stroke="#000000" points="0,-.5 0,-30.5 117,-30.5 117,-.5 0,-.5"/>
<text text-anchor="start" x="8" y="-18.5" font-family="Helvetica,sans-Serif" font-size="10.00" fill="#000000">boards/mbed_lpc1768</text>
<text text-anchor="middle" x="58.5" y="-7.5" font-family="Helvetica,sans-Serif" font-size="10.00" fill="#000000">/include/gpio_params.h</text>
</a>
</g>
</g>
<!-- Node2&#45;&gt;Node3 -->
<g id="edge2" class="edge">
<title>Node2&#45;&gt;Node3</title>
<path fill="none" stroke="#191970" d="M58.5,-57.0249C58.5,-48.128 58.5,-38.4287 58.5,-30.6432"/>
<polygon fill="#191970" stroke="#191970" points="55.0001,-57.2966 58.5,-67.2967 62.0001,-57.2967 55.0001,-57.2966"/>
</g>
</g>
</svg>
