<?xml version="1.0" encoding="UTF-8" standalone="no"?>
<!DOCTYPE svg PUBLIC "-//W3C//DTD SVG 1.1//EN"
 "http://www.w3.org/Graphics/SVG/1.1/DTD/svg11.dtd">
<!-- Generated by graphviz version 2.40.1 (20161225.0304)
 -->
<!-- Title: boards/nucleo&#45;l412kb/include/periph_conf.h Pages: 1 -->
<svg width="461pt" height="151pt"
 viewBox="0.00 0.00 461.49 151.00" xmlns="http://www.w3.org/2000/svg" xmlns:xlink="http://www.w3.org/1999/xlink">
<g id="graph0" class="graph" transform="scale(1 1) rotate(0) translate(4 147)">
<title>boards/nucleo&#45;l412kb/include/periph_conf.h</title>
<!-- Node0 -->
<g id="node1" class="node">
<title>Node0</title>
<polygon fill="#bfbfbf" stroke="#000000" points="132.9861,-112.5 132.9861,-142.5 244.9861,-142.5 244.9861,-112.5 132.9861,-112.5"/>
<text text-anchor="start" x="140.9861" y="-130.5" font-family="Helvetica,sans-Serif" font-size="10.00" fill="#000000">boards/nucleo&#45;l412kb</text>
<text text-anchor="middle" x="188.9861" y="-119.5" font-family="Helvetica,sans-Serif" font-size="10.00" fill="#000000">/include/periph_conf.h</text>
</g>
<!-- Node1 -->
<g id="node2" class="node">
<title>Node1</title>
<polygon fill="none" stroke="#bfbfbf" points="91.9861,-.5 91.9861,-19.5 163.9861,-19.5 163.9861,-.5 91.9861,-.5"/>
<text text-anchor="middle" x="127.9861" y="-7.5" font-family="Helvetica,sans-Serif" font-size="10.00" fill="#000000">periph_cpu.h</text>
</g>
<!-- Node0&#45;&gt;Node1 -->
<g id="edge1" class="edge">
<title>Node0&#45;&gt;Node1</title>
<path fill="none" stroke="#191970" d="M132.7551,-119.2173C84.8475,-110.8745 21.3803,-96.3244 5.9861,-76 -17.6872,-44.7449 38.1015,-26.5494 81.8517,-17.4444"/>
<polygon fill="#191970" stroke="#191970" points="82.679,-20.8487 91.813,-15.4803 81.3248,-13.9809 82.679,-20.8487"/>
</g>
<!-- Node2 -->
<g id="node3" class="node">
<title>Node2</title>
<g id="a_node3"><a xlink:href="cfg__clock__80__1_8h.html" target="_top" xlink:title="Configure STM32L4 clock using 80MHz core clock and LSE (32.768kHz) ">
<polygon fill="none" stroke="#000000" points="14.9861,-56.5 14.9861,-75.5 118.9861,-75.5 118.9861,-56.5 14.9861,-56.5"/>
<text text-anchor="middle" x="66.9861" y="-63.5" font-family="Helvetica,sans-Serif" font-size="10.00" fill="#000000">l4/cfg_clock_80_1.h</text>
</a>
</g>
</g>
<!-- Node0&#45;&gt;Node2 -->
<g id="edge2" class="edge">
<title>Node0&#45;&gt;Node2</title>
<path fill="none" stroke="#191970" d="M159.1416,-112.4554C139.5891,-102.599 114.1989,-89.7999 95.0217,-80.1327"/>
<polygon fill="#191970" stroke="#191970" points="96.3969,-76.9064 85.8918,-75.5303 93.2459,-83.1571 96.3969,-76.9064"/>
</g>
<!-- Node3 -->
<g id="node4" class="node">
<title>Node3</title>
<g id="a_node4"><a xlink:href="cfg__i2c1__pb6__pb7_8h.html" target="_top" xlink:title="Common configuration for STM32 I2C. ">
<polygon fill="none" stroke="#000000" points="136.9861,-56.5 136.9861,-75.5 240.9861,-75.5 240.9861,-56.5 136.9861,-56.5"/>
<text text-anchor="middle" x="188.9861" y="-63.5" font-family="Helvetica,sans-Serif" font-size="10.00" fill="#000000">cfg_i2c1_pb6_pb7.h</text>
</a>
</g>
</g>
<!-- Node0&#45;&gt;Node3 -->
<g id="edge4" class="edge">
<title>Node0&#45;&gt;Node3</title>
<path fill="none" stroke="#191970" d="M188.9861,-112.2977C188.9861,-104.3834 188.9861,-94.6043 188.9861,-86.0759"/>
<polygon fill="#191970" stroke="#191970" points="192.4862,-85.8469 188.9861,-75.8469 185.4862,-85.847 192.4862,-85.8469"/>
</g>
<!-- Node4 -->
<g id="node5" class="node">
<title>Node4</title>
<g id="a_node5"><a xlink:href="cfg__timer__tim2_8h.html" target="_top" xlink:title="Common configuration for STM32 Timer peripheral based on TIM2. ">
<polygon fill="none" stroke="#000000" points="259.4861,-56.5 259.4861,-75.5 348.4861,-75.5 348.4861,-56.5 259.4861,-56.5"/>
<text text-anchor="middle" x="303.9861" y="-63.5" font-family="Helvetica,sans-Serif" font-size="10.00" fill="#000000">cfg_timer_tim2.h</text>
</a>
</g>
</g>
<!-- Node0&#45;&gt;Node4 -->
<g id="edge6" class="edge">
<title>Node0&#45;&gt;Node4</title>
<path fill="none" stroke="#191970" d="M217.1183,-112.4554C235.4648,-102.644 259.2638,-89.9167 277.3112,-80.2653"/>
<polygon fill="#191970" stroke="#191970" points="278.9975,-83.3326 286.1652,-75.5303 275.6964,-77.1598 278.9975,-83.3326"/>
</g>
<!-- Node5 -->
<g id="node6" class="node">
<title>Node5</title>
<polygon fill="none" stroke="#bfbfbf" points="366.4861,-56.5 366.4861,-75.5 453.4861,-75.5 453.4861,-56.5 366.4861,-56.5"/>
<text text-anchor="middle" x="409.9861" y="-63.5" font-family="Helvetica,sans-Serif" font-size="10.00" fill="#000000">cfg_rtt_default.h</text>
</g>
<!-- Node0&#45;&gt;Node5 -->
<g id="edge8" class="edge">
<title>Node0&#45;&gt;Node5</title>
<path fill="none" stroke="#191970" d="M243.0488,-112.4554C280.7319,-101.9689 330.385,-88.1515 365.7191,-78.3187"/>
<polygon fill="#191970" stroke="#191970" points="367.0434,-81.5832 375.739,-75.5303 365.1667,-74.8394 367.0434,-81.5832"/>
</g>
<!-- Node2&#45;&gt;Node1 -->
<g id="edge3" class="edge">
<title>Node2&#45;&gt;Node1</title>
<path fill="none" stroke="#191970" d="M77.6115,-56.2455C86.5334,-48.0549 99.4742,-36.1749 110.0054,-26.5069"/>
<polygon fill="#191970" stroke="#191970" points="112.4829,-28.9837 117.4825,-19.6427 107.749,-23.8271 112.4829,-28.9837"/>
</g>
<!-- Node3&#45;&gt;Node1 -->
<g id="edge5" class="edge">
<title>Node3&#45;&gt;Node1</title>
<path fill="none" stroke="#191970" d="M178.3607,-56.2455C169.4388,-48.0549 156.4981,-36.1749 145.9669,-26.5069"/>
<polygon fill="#191970" stroke="#191970" points="148.2233,-23.8271 138.4898,-19.6427 143.4893,-28.9837 148.2233,-23.8271"/>
</g>
<!-- Node4&#45;&gt;Node1 -->
<g id="edge7" class="edge">
<title>Node4&#45;&gt;Node1</title>
<path fill="none" stroke="#191970" d="M273.7307,-56.3733C244.3378,-47.021 199.5569,-32.7725 167.3927,-22.5385"/>
<polygon fill="#191970" stroke="#191970" points="168.4373,-19.198 157.8468,-19.5011 166.3148,-25.8685 168.4373,-19.198"/>
</g>
</g>
</svg>
