<?xml version="1.0" encoding="UTF-8" standalone="no"?>
<!DOCTYPE svg PUBLIC "-//W3C//DTD SVG 1.1//EN"
 "http://www.w3.org/Graphics/SVG/1.1/DTD/svg11.dtd">
<!-- Generated by graphviz version 2.40.1 (20161225.0304)
 -->
<!-- Title: boards/sodaq&#45;autonomo/include/periph_conf.h Pages: 1 -->
<svg width="768pt" height="151pt"
 viewBox="0.00 0.00 767.81 151.00" xmlns="http://www.w3.org/2000/svg" xmlns:xlink="http://www.w3.org/1999/xlink">
<g id="graph0" class="graph" transform="scale(1 1) rotate(0) translate(4 147)">
<title>boards/sodaq&#45;autonomo/include/periph_conf.h</title>
<!-- Node0 -->
<g id="node1" class="node">
<title>Node0</title>
<polygon fill="#bfbfbf" stroke="#000000" points="237.3147,-112.5 237.3147,-142.5 358.3147,-142.5 358.3147,-112.5 237.3147,-112.5"/>
<text text-anchor="start" x="245.3147" y="-130.5" font-family="Helvetica,sans-Serif" font-size="10.00" fill="#000000">boards/sodaq&#45;autonomo</text>
<text text-anchor="middle" x="297.8147" y="-119.5" font-family="Helvetica,sans-Serif" font-size="10.00" fill="#000000">/include/periph_conf.h</text>
</g>
<!-- Node1 -->
<g id="node2" class="node">
<title>Node1</title>
<polygon fill="none" stroke="#bfbfbf" points="132.3147,-.5 132.3147,-19.5 181.3147,-19.5 181.3147,-.5 132.3147,-.5"/>
<text text-anchor="middle" x="156.8147" y="-7.5" font-family="Helvetica,sans-Serif" font-size="10.00" fill="#000000">stdint.h</text>
</g>
<!-- Node0&#45;&gt;Node1 -->
<g id="edge1" class="edge">
<title>Node0&#45;&gt;Node1</title>
<path fill="none" stroke="#191970" d="M288.3632,-112.3555C278.0929,-96.7903 260.4946,-72.5556 240.8147,-56 225.2861,-42.9367 205.4719,-31.874 188.9877,-23.8734"/>
<polygon fill="#191970" stroke="#191970" points="190.264,-20.6061 179.7245,-19.5246 187.2892,-26.9426 190.264,-20.6061"/>
</g>
<!-- Node2 -->
<g id="node3" class="node">
<title>Node2</title>
<polygon fill="none" stroke="#bfbfbf" points="199.3147,-.5 199.3147,-19.5 240.3147,-19.5 240.3147,-.5 199.3147,-.5"/>
<text text-anchor="middle" x="219.8147" y="-7.5" font-family="Helvetica,sans-Serif" font-size="10.00" fill="#000000">cpu.h</text>
</g>
<!-- Node0&#45;&gt;Node2 -->
<g id="edge2" class="edge">
<title>Node0&#45;&gt;Node2</title>
<path fill="none" stroke="#191970" d="M295.2308,-112.4837C292.071,-97.2413 285.6228,-73.4637 273.8147,-56 265.7589,-44.0858 253.8156,-33.4691 243.208,-25.4454"/>
<polygon fill="#191970" stroke="#191970" points="245.2457,-22.5998 235.087,-19.5913 241.1523,-28.2782 245.2457,-22.5998"/>
</g>
<!-- Node3 -->
<g id="node4" class="node">
<title>Node3</title>
<polygon fill="none" stroke="#bfbfbf" points="22.8147,-.5 22.8147,-19.5 94.8147,-19.5 94.8147,-.5 22.8147,-.5"/>
<text text-anchor="middle" x="58.8147" y="-7.5" font-family="Helvetica,sans-Serif" font-size="10.00" fill="#000000">periph_cpu.h</text>
</g>
<!-- Node0&#45;&gt;Node3 -->
<g id="edge3" class="edge">
<title>Node0&#45;&gt;Node3</title>
<path fill="none" stroke="#191970" d="M237.1051,-125.6903C160.1221,-121.9683 33.8729,-110.6111 4.8147,-76 -9.6969,-58.7153 12.2219,-38.6129 32.33,-25.1775"/>
<polygon fill="#191970" stroke="#191970" points="34.4358,-27.9868 41.0141,-19.6816 30.6924,-22.0719 34.4358,-27.9868"/>
</g>
<!-- Node4 -->
<g id="node5" class="node">
<title>Node4</title>
<polygon fill="none" stroke="#bfbfbf" points="326.3147,-56.5 326.3147,-75.5 427.3147,-75.5 427.3147,-56.5 326.3147,-56.5"/>
<text text-anchor="middle" x="376.8147" y="-63.5" font-family="Helvetica,sans-Serif" font-size="10.00" fill="#000000">cfg_clock_default.h</text>
</g>
<!-- Node0&#45;&gt;Node4 -->
<g id="edge4" class="edge">
<title>Node0&#45;&gt;Node4</title>
<path fill="none" stroke="#191970" d="M317.3428,-112.2977C329.1084,-103.1384 344.0822,-91.4816 356.0612,-82.1562"/>
<polygon fill="#191970" stroke="#191970" points="358.425,-84.7516 364.1658,-75.8469 354.1249,-79.228 358.425,-84.7516"/>
</g>
<!-- Node5 -->
<g id="node6" class="node">
<title>Node5</title>
<g id="a_node6"><a xlink:href="cfg__rtc__default_8h.html" target="_top" xlink:title="Default RTC configuration for SODAQ boards. ">
<polygon fill="none" stroke="#000000" points="14.3147,-56.5 14.3147,-75.5 103.3147,-75.5 103.3147,-56.5 14.3147,-56.5"/>
<text text-anchor="middle" x="58.8147" y="-63.5" font-family="Helvetica,sans-Serif" font-size="10.00" fill="#000000">cfg_rtc_default.h</text>
</a>
</g>
</g>
<!-- Node0&#45;&gt;Node5 -->
<g id="edge5" class="edge">
<title>Node0&#45;&gt;Node5</title>
<path fill="none" stroke="#191970" d="M239.3487,-112.4554C198.2466,-101.8789 143.9764,-87.914 105.7066,-78.0663"/>
<polygon fill="#191970" stroke="#191970" points="106.408,-74.6329 95.8512,-75.5303 104.6635,-81.412 106.408,-74.6329"/>
</g>
<!-- Node6 -->
<g id="node7" class="node">
<title>Node6</title>
<polygon fill="none" stroke="#bfbfbf" points="445.3147,-56.5 445.3147,-75.5 532.3147,-75.5 532.3147,-56.5 445.3147,-56.5"/>
<text text-anchor="middle" x="488.8147" y="-63.5" font-family="Helvetica,sans-Serif" font-size="10.00" fill="#000000">cfg_rtt_default.h</text>
</g>
<!-- Node0&#45;&gt;Node6 -->
<g id="edge9" class="edge">
<title>Node0&#45;&gt;Node6</title>
<path fill="none" stroke="#191970" d="M344.5386,-112.4554C376.687,-102.104 418.9158,-88.5067 449.3711,-78.7004"/>
<polygon fill="#191970" stroke="#191970" points="450.7705,-81.9269 459.2165,-75.5303 448.625,-75.2638 450.7705,-81.9269"/>
</g>
<!-- Node7 -->
<g id="node8" class="node">
<title>Node7</title>
<polygon fill="none" stroke="#bfbfbf" points="550.3147,-56.5 550.3147,-75.5 641.3147,-75.5 641.3147,-56.5 550.3147,-56.5"/>
<text text-anchor="middle" x="595.8147" y="-63.5" font-family="Helvetica,sans-Serif" font-size="10.00" fill="#000000">cfg_spi_default.h</text>
</g>
<!-- Node0&#45;&gt;Node7 -->
<g id="edge10" class="edge">
<title>Node0&#45;&gt;Node7</title>
<path fill="none" stroke="#191970" d="M358.4786,-114.9804C411.7654,-103.9833 488.6434,-88.1176 540.3267,-77.4514"/>
<polygon fill="#191970" stroke="#191970" points="541.2268,-80.8395 550.313,-75.3905 539.8119,-73.9839 541.2268,-80.8395"/>
</g>
<!-- Node8 -->
<g id="node9" class="node">
<title>Node8</title>
<polygon fill="none" stroke="#bfbfbf" points="659.8147,-56.5 659.8147,-75.5 759.8147,-75.5 759.8147,-56.5 659.8147,-56.5"/>
<text text-anchor="middle" x="709.8147" y="-63.5" font-family="Helvetica,sans-Serif" font-size="10.00" fill="#000000">cfg_timer_default.h</text>
</g>
<!-- Node0&#45;&gt;Node8 -->
<g id="edge11" class="edge">
<title>Node0&#45;&gt;Node8</title>
<path fill="none" stroke="#191970" d="M358.4682,-119.0838C426.7131,-109.517 541.1518,-93.1833 649.4886,-76.1831"/>
<polygon fill="#191970" stroke="#191970" points="650.2814,-79.6015 659.6155,-74.5892 649.1929,-72.6866 650.2814,-79.6015"/>
</g>
<!-- Node9 -->
<g id="node10" class="node">
<title>Node9</title>
<g id="a_node10"><a xlink:href="cfg__usbdev__default_8h.html" target="_top" xlink:title="Default usbdev configuration for SODAQ boards. ">
<polygon fill="none" stroke="#000000" points="121.8147,-56.5 121.8147,-75.5 231.8147,-75.5 231.8147,-56.5 121.8147,-56.5"/>
<text text-anchor="middle" x="176.8147" y="-63.5" font-family="Helvetica,sans-Serif" font-size="10.00" fill="#000000">cfg_usbdev_default.h</text>
</a>
</g>
</g>
<!-- Node0&#45;&gt;Node9 -->
<g id="edge12" class="edge">
<title>Node0&#45;&gt;Node9</title>
<path fill="none" stroke="#191970" d="M268.2148,-112.4554C248.8226,-102.599 223.6405,-89.7999 204.6204,-80.1327"/>
<polygon fill="#191970" stroke="#191970" points="206.0659,-76.9412 195.5654,-75.5303 202.8942,-83.1815 206.0659,-76.9412"/>
</g>
<!-- Node5&#45;&gt;Node1 -->
<g id="edge6" class="edge">
<title>Node5&#45;&gt;Node1</title>
<path fill="none" stroke="#191970" d="M75.885,-56.2455C91.0617,-47.5731 113.4768,-34.7645 130.871,-24.825"/>
<polygon fill="#191970" stroke="#191970" points="132.9941,-27.643 139.94,-19.6427 129.5211,-21.5653 132.9941,-27.643"/>
</g>
<!-- Node5&#45;&gt;Node2 -->
<g id="edge7" class="edge">
<title>Node5&#45;&gt;Node2</title>
<path fill="none" stroke="#191970" d="M86.4916,-56.3733C115.1227,-46.4146 159.715,-30.9043 189.3373,-20.6009"/>
<polygon fill="#191970" stroke="#191970" points="190.8449,-23.7822 199.14,-17.1912 188.5452,-17.1707 190.8449,-23.7822"/>
</g>
<!-- Node5&#45;&gt;Node3 -->
<g id="edge8" class="edge">
<title>Node5&#45;&gt;Node3</title>
<path fill="none" stroke="#191970" d="M58.8147,-56.2455C58.8147,-48.9382 58.8147,-38.6944 58.8147,-29.7046"/>
<polygon fill="#191970" stroke="#191970" points="62.3148,-29.6426 58.8147,-19.6427 55.3148,-29.6427 62.3148,-29.6426"/>
</g>
<!-- Node9&#45;&gt;Node1 -->
<g id="edge13" class="edge">
<title>Node9&#45;&gt;Node1</title>
<path fill="none" stroke="#191970" d="M173.331,-56.2455C170.6639,-48.7776 166.9014,-38.2427 163.641,-29.1137"/>
<polygon fill="#191970" stroke="#191970" points="166.918,-27.8829 160.2585,-19.6427 160.3258,-30.2373 166.918,-27.8829"/>
</g>
<!-- Node9&#45;&gt;Node2 -->
<g id="edge14" class="edge">
<title>Node9&#45;&gt;Node2</title>
<path fill="none" stroke="#191970" d="M184.3047,-56.2455C190.3473,-48.3761 199.005,-37.101 206.2588,-27.6542"/>
<polygon fill="#191970" stroke="#191970" points="209.0962,-29.7058 212.4105,-19.6427 203.5442,-25.4426 209.0962,-29.7058"/>
</g>
<!-- Node9&#45;&gt;Node3 -->
<g id="edge15" class="edge">
<title>Node9&#45;&gt;Node3</title>
<path fill="none" stroke="#191970" d="M156.5298,-56.3733C137.6727,-47.4241 109.3687,-33.9917 88.0692,-23.8835"/>
<polygon fill="#191970" stroke="#191970" points="89.3698,-20.6266 78.8349,-19.5011 86.3686,-26.9506 89.3698,-20.6266"/>
</g>
</g>
</svg>
