<?xml version="1.0" encoding="UTF-8" standalone="no"?>
<!DOCTYPE svg PUBLIC "-//W3C//DTD SVG 1.1//EN"
 "http://www.w3.org/Graphics/SVG/1.1/DTD/svg11.dtd">
<!-- Generated by graphviz version 2.43.0 (0)
 -->
<!-- Title: boards/feather&#45;m0/include/periph_conf.h Pages: 1 -->
<svg width="316pt" height="173pt"
 viewBox="0.00 0.00 316.00 173.00" xmlns="http://www.w3.org/2000/svg" xmlns:xlink="http://www.w3.org/1999/xlink">
<g id="graph0" class="graph" transform="scale(1 1) rotate(0) translate(4 169)">
<title>boards/feather&#45;m0/include/periph_conf.h</title>
<!-- Node1 -->
<g id="node1" class="node">
<title>Node1</title>
<g id="a_node1"><a xlink:title="Configuration of CPU peripherals for Adafruit Feather M0.">
<polygon fill="#bfbfbf" stroke="black" points="81,-134.5 81,-164.5 226,-164.5 226,-134.5 81,-134.5"/>
<text text-anchor="start" x="89" y="-152.5" font-family="Helvetica,sans-Serif" font-size="10.00">boards/feather&#45;m0/include</text>
<text text-anchor="middle" x="153.5" y="-141.5" font-family="Helvetica,sans-Serif" font-size="10.00">/periph_conf.h</text>
</a>
</g>
</g>
<!-- Node2 -->
<g id="node2" class="node">
<title>Node2</title>
<g id="a_node2"><a xlink:href="feather-m0_2include_2board_8h.html" target="_top" xlink:title="Board specific configuration for the Adafruit Feather M0.">
<polygon fill="none" stroke="black" points="81,-67.5 81,-97.5 226,-97.5 226,-67.5 81,-67.5"/>
<text text-anchor="start" x="89" y="-85.5" font-family="Helvetica,sans-Serif" font-size="10.00">boards/feather&#45;m0/include</text>
<text text-anchor="middle" x="153.5" y="-74.5" font-family="Helvetica,sans-Serif" font-size="10.00">/board.h</text>
</a>
</g>
</g>
<!-- Node1&#45;&gt;Node2 -->
<g id="edge1" class="edge">
<title>Node1&#45;&gt;Node2</title>
<path fill="none" stroke="midnightblue" d="M153.5,-124.11C153.5,-115.15 153.5,-105.32 153.5,-97.58"/>
<polygon fill="midnightblue" stroke="midnightblue" points="150,-124.4 153.5,-134.4 157,-124.4 150,-124.4"/>
</g>
<!-- Node3 -->
<g id="node3" class="node">
<title>Node3</title>
<g id="a_node3"><a xlink:href="feather-m0_2include_2gpio__params_8h.html" target="_top" xlink:title="Board specific configuration of direct mapped GPIOs.">
<polygon fill="none" stroke="black" points="0,-0.5 0,-30.5 145,-30.5 145,-0.5 0,-0.5"/>
<text text-anchor="start" x="8" y="-18.5" font-family="Helvetica,sans-Serif" font-size="10.00">boards/feather&#45;m0/include</text>
<text text-anchor="middle" x="72.5" y="-7.5" font-family="Helvetica,sans-Serif" font-size="10.00">/gpio_params.h</text>
</a>
</g>
</g>
<!-- Node2&#45;&gt;Node3 -->
<g id="edge2" class="edge">
<title>Node2&#45;&gt;Node3</title>
<path fill="none" stroke="midnightblue" d="M127.81,-60.88C115.5,-51.01 101.07,-39.43 90.04,-30.58"/>
<polygon fill="midnightblue" stroke="midnightblue" points="125.93,-63.87 135.92,-67.4 130.32,-58.41 125.93,-63.87"/>
</g>
<!-- Node4 -->
<g id="node4" class="node">
<title>Node4</title>
<g id="a_node4"><a xlink:href="boards_2feather-m0_2include_2sdcard__spi__params_8h.html" target="_top" xlink:title="SD card configuration for the Adafruit Feather M0 Adalogger.">
<polygon fill="none" stroke="black" points="163,-0.5 163,-30.5 308,-30.5 308,-0.5 163,-0.5"/>
<text text-anchor="start" x="171" y="-18.5" font-family="Helvetica,sans-Serif" font-size="10.00">boards/feather&#45;m0/include</text>
<text text-anchor="middle" x="235.5" y="-7.5" font-family="Helvetica,sans-Serif" font-size="10.00">/sdcard_spi_params.h</text>
</a>
</g>
</g>
<!-- Node2&#45;&gt;Node4 -->
<g id="edge3" class="edge">
<title>Node2&#45;&gt;Node4</title>
<path fill="none" stroke="midnightblue" d="M179.15,-61.17C191.69,-51.23 206.47,-39.51 217.74,-30.58"/>
<polygon fill="midnightblue" stroke="midnightblue" points="176.96,-58.44 171.29,-67.4 181.3,-63.93 176.96,-58.44"/>
</g>
</g>
</svg>
