<?xml version="1.0" encoding="UTF-8" standalone="no"?>
<!DOCTYPE svg PUBLIC "-//W3C//DTD SVG 1.1//EN"
 "http://www.w3.org/Graphics/SVG/1.1/DTD/svg11.dtd">
<!-- Generated by graphviz version 2.40.1 (20161225.0304)
 -->
<!-- Title: boards/stm32f769i&#45;disco/include/periph_conf.h Pages: 1 -->
<svg width="131pt" height="173pt"
 viewBox="0.00 0.00 131.00 173.00" xmlns="http://www.w3.org/2000/svg" xmlns:xlink="http://www.w3.org/1999/xlink">
<g id="graph0" class="graph" transform="scale(1 1) rotate(0) translate(4 169)">
<title>boards/stm32f769i&#45;disco/include/periph_conf.h</title>
<!-- Node5 -->
<g id="node1" class="node">
<title>Node5</title>
<polygon fill="#bfbfbf" stroke="#000000" points="0,-134.5 0,-164.5 123,-164.5 123,-134.5 0,-134.5"/>
<text text-anchor="start" x="8" y="-152.5" font-family="Helvetica,sans-Serif" font-size="10.00" fill="#000000">boards/stm32f769i&#45;disco</text>
<text text-anchor="middle" x="61.5" y="-141.5" font-family="Helvetica,sans-Serif" font-size="10.00" fill="#000000">/include/periph_conf.h</text>
</g>
<!-- Node6 -->
<g id="node2" class="node">
<title>Node6</title>
<g id="a_node2"><a xlink:href="stm32f769i-disco_2include_2board_8h.html" target="_top" xlink:title="Board specific definitions for the STM32F769I&#45;DISCO board. ">
<polygon fill="none" stroke="#000000" points="0,-67.5 0,-97.5 123,-97.5 123,-67.5 0,-67.5"/>
<text text-anchor="start" x="8" y="-85.5" font-family="Helvetica,sans-Serif" font-size="10.00" fill="#000000">boards/stm32f769i&#45;disco</text>
<text text-anchor="middle" x="61.5" y="-74.5" font-family="Helvetica,sans-Serif" font-size="10.00" fill="#000000">/include/board.h</text>
</a>
</g>
</g>
<!-- Node5&#45;&gt;Node6 -->
<g id="edge1" class="edge">
<title>Node5&#45;&gt;Node6</title>
<path fill="none" stroke="#191970" d="M61.5,-124.0249C61.5,-115.128 61.5,-105.4287 61.5,-97.6432"/>
<polygon fill="#191970" stroke="#191970" points="58.0001,-124.2966 61.5,-134.2967 65.0001,-124.2967 58.0001,-124.2966"/>
</g>
<!-- Node7 -->
<g id="node3" class="node">
<title>Node7</title>
<g id="a_node3"><a xlink:href="stm32f769i-disco_2include_2gpio__params_8h.html" target="_top" xlink:title="Board specific configuration of direct mapped GPIOs. ">
<polygon fill="none" stroke="#000000" points="0,-.5 0,-30.5 123,-30.5 123,-.5 0,-.5"/>
<text text-anchor="start" x="8" y="-18.5" font-family="Helvetica,sans-Serif" font-size="10.00" fill="#000000">boards/stm32f769i&#45;disco</text>
<text text-anchor="middle" x="61.5" y="-7.5" font-family="Helvetica,sans-Serif" font-size="10.00" fill="#000000">/include/gpio_params.h</text>
</a>
</g>
</g>
<!-- Node6&#45;&gt;Node7 -->
<g id="edge2" class="edge">
<title>Node6&#45;&gt;Node7</title>
<path fill="none" stroke="#191970" d="M61.5,-57.0249C61.5,-48.128 61.5,-38.4287 61.5,-30.6432"/>
<polygon fill="#191970" stroke="#191970" points="58.0001,-57.2966 61.5,-67.2967 65.0001,-57.2967 58.0001,-57.2966"/>
</g>
</g>
</svg>
