<?xml version="1.0" encoding="UTF-8" standalone="no"?>
<!DOCTYPE svg PUBLIC "-//W3C//DTD SVG 1.1//EN"
 "http://www.w3.org/Graphics/SVG/1.1/DTD/svg11.dtd">
<!-- Generated by graphviz version 2.43.0 (0)
 -->
<!-- Title: boards/ublox&#45;c030&#45;u201/include/periph_conf.h Pages: 1 -->
<svg width="226pt" height="151pt"
 viewBox="0.00 0.00 226.00 151.00" xmlns="http://www.w3.org/2000/svg" xmlns:xlink="http://www.w3.org/1999/xlink">
<g id="graph0" class="graph" transform="scale(1 1) rotate(0) translate(4 147)">
<title>boards/ublox&#45;c030&#45;u201/include/periph_conf.h</title>
<!-- Node1 -->
<g id="node1" class="node">
<title>Node1</title>
<g id="a_node1"><a xlink:title="Peripheral MCU configuration for the Ublox C030&#45;U201 board.">
<polygon fill="#bfbfbf" stroke="black" points="0,-112.5 0,-142.5 134,-142.5 134,-112.5 0,-112.5"/>
<text text-anchor="start" x="8" y="-130.5" font-family="Helvetica,sans-Serif" font-size="10.00">boards/ublox&#45;c030&#45;u201</text>
<text text-anchor="middle" x="67" y="-119.5" font-family="Helvetica,sans-Serif" font-size="10.00">/include/periph_conf.h</text>
</a>
</g>
</g>
<!-- Node2 -->
<g id="node2" class="node">
<title>Node2</title>
<g id="a_node2"><a xlink:title=" ">
<polygon fill="none" stroke="#bfbfbf" points="47.5,-0.5 47.5,-19.5 126.5,-19.5 126.5,-0.5 47.5,-0.5"/>
<text text-anchor="middle" x="87" y="-7.5" font-family="Helvetica,sans-Serif" font-size="10.00">periph_cpu.h</text>
</a>
</g>
</g>
<!-- Node1&#45;&gt;Node2 -->
<g id="edge1" class="edge">
<title>Node1&#45;&gt;Node2</title>
<path fill="none" stroke="midnightblue" d="M49.05,-112.5C33.4,-98.49 14.71,-76.18 25,-56 32,-42.27 45.37,-31.75 57.9,-24.35"/>
<polygon fill="midnightblue" stroke="midnightblue" points="59.67,-27.37 66.78,-19.51 56.32,-21.22 59.67,-27.37"/>
</g>
<!-- Node3 -->
<g id="node3" class="node">
<title>Node3</title>
<g id="a_node3"><a xlink:title=" ">
<polygon fill="none" stroke="#bfbfbf" points="34.5,-56.5 34.5,-75.5 99.5,-75.5 99.5,-56.5 34.5,-56.5"/>
<text text-anchor="middle" x="67" y="-63.5" font-family="Helvetica,sans-Serif" font-size="10.00">clk_conf.h</text>
</a>
</g>
</g>
<!-- Node1&#45;&gt;Node3 -->
<g id="edge2" class="edge">
<title>Node1&#45;&gt;Node3</title>
<path fill="none" stroke="midnightblue" d="M67,-112.4C67,-104.47 67,-94.46 67,-85.86"/>
<polygon fill="midnightblue" stroke="midnightblue" points="70.5,-85.66 67,-75.66 63.5,-85.66 70.5,-85.66"/>
</g>
<!-- Node4 -->
<g id="node4" class="node">
<title>Node4</title>
<g id="a_node4"><a xlink:href="cfg__timer__tim5_8h.html" target="_top" xlink:title="Common configuration for STM32 Timer peripheral based on TIM5.">
<polygon fill="none" stroke="black" points="118,-56.5 118,-75.5 218,-75.5 218,-56.5 118,-56.5"/>
<text text-anchor="middle" x="168" y="-63.5" font-family="Helvetica,sans-Serif" font-size="10.00">cfg_timer_tim5.h</text>
</a>
</g>
</g>
<!-- Node1&#45;&gt;Node4 -->
<g id="edge3" class="edge">
<title>Node1&#45;&gt;Node4</title>
<path fill="none" stroke="midnightblue" d="M90.94,-112.4C107.13,-102.86 128.41,-90.32 144.5,-80.84"/>
<polygon fill="midnightblue" stroke="midnightblue" points="146.46,-83.75 153.3,-75.66 142.91,-77.72 146.46,-83.75"/>
</g>
<!-- Node4&#45;&gt;Node2 -->
<g id="edge4" class="edge">
<title>Node4&#45;&gt;Node2</title>
<path fill="none" stroke="midnightblue" d="M154.99,-56.32C142.47,-47.98 123.32,-35.21 108.53,-25.35"/>
<polygon fill="midnightblue" stroke="midnightblue" points="110.24,-22.29 99.98,-19.65 106.36,-28.11 110.24,-22.29"/>
</g>
</g>
</svg>
