<?xml version="1.0" encoding="UTF-8" standalone="no"?>
<!DOCTYPE svg PUBLIC "-//W3C//DTD SVG 1.1//EN"
 "http://www.w3.org/Graphics/SVG/1.1/DTD/svg11.dtd">
<!-- Generated by graphviz version 2.43.0 (0)
 -->
<!-- Title: boards/common/arduino&#45;mkr/include/periph_conf.h Pages: 1 -->
<svg width="194pt" height="151pt"
 viewBox="0.00 0.00 193.50 151.00" xmlns="http://www.w3.org/2000/svg" xmlns:xlink="http://www.w3.org/1999/xlink">
<g id="graph0" class="graph" transform="scale(1 1) rotate(0) translate(4 147)">
<title>boards/common/arduino&#45;mkr/include/periph_conf.h</title>
<!-- Node1 -->
<g id="node1" class="node">
<title>Node1</title>
<g id="a_node1"><a xlink:title="Configuration of CPU peripherals for Arduino MKR boards.">
<polygon fill="#bfbfbf" stroke="black" points="0,-112.5 0,-142.5 146,-142.5 146,-112.5 0,-112.5"/>
<text text-anchor="start" x="8" y="-130.5" font-family="Helvetica,sans-Serif" font-size="10.00">boards/common/arduino</text>
<text text-anchor="middle" x="73" y="-119.5" font-family="Helvetica,sans-Serif" font-size="10.00">&#45;mkr/include/periph_conf.h</text>
</a>
</g>
</g>
<!-- Node2 -->
<g id="node2" class="node">
<title>Node2</title>
<g id="a_node2"><a xlink:title=" ">
<polygon fill="none" stroke="#bfbfbf" points="33.5,-0.5 33.5,-19.5 112.5,-19.5 112.5,-0.5 33.5,-0.5"/>
<text text-anchor="middle" x="73" y="-7.5" font-family="Helvetica,sans-Serif" font-size="10.00">periph_cpu.h</text>
</a>
</g>
</g>
<!-- Node1&#45;&gt;Node2 -->
<g id="edge1" class="edge">
<title>Node1&#45;&gt;Node2</title>
<path fill="none" stroke="midnightblue" d="M61.51,-112.48C51.44,-98.45 39.25,-76.13 45,-56 47.9,-45.84 53.83,-35.75 59.49,-27.7"/>
<polygon fill="midnightblue" stroke="midnightblue" points="62.38,-29.69 65.59,-19.59 56.78,-25.48 62.38,-29.69"/>
</g>
<!-- Node3 -->
<g id="node3" class="node">
<title>Node3</title>
<g id="a_node3"><a xlink:href="arduino-mkr_2include_2periph__conf__common_8h.html" target="_top" xlink:title="Common configuration for clock, timer, pwm, adc, rtc and rtt peripherals for Arduino MKR boards.">
<polygon fill="none" stroke="black" points="54.5,-56.5 54.5,-75.5 185.5,-75.5 185.5,-56.5 54.5,-56.5"/>
<text text-anchor="middle" x="120" y="-63.5" font-family="Helvetica,sans-Serif" font-size="10.00">periph_conf_common.h</text>
</a>
</g>
</g>
<!-- Node1&#45;&gt;Node3 -->
<g id="edge2" class="edge">
<title>Node1&#45;&gt;Node3</title>
<path fill="none" stroke="midnightblue" d="M84.14,-112.4C90.97,-103.75 99.74,-92.64 106.91,-83.58"/>
<polygon fill="midnightblue" stroke="midnightblue" points="109.71,-85.67 113.16,-75.66 104.22,-81.34 109.71,-85.67"/>
</g>
<!-- Node3&#45;&gt;Node2 -->
<g id="edge3" class="edge">
<title>Node3&#45;&gt;Node2</title>
<path fill="none" stroke="midnightblue" d="M112.24,-56.08C105.46,-48.3 95.46,-36.8 87.24,-27.37"/>
<polygon fill="midnightblue" stroke="midnightblue" points="89.82,-25 80.62,-19.75 84.54,-29.59 89.82,-25"/>
</g>
</g>
</svg>
