<?xml version="1.0" encoding="UTF-8" standalone="no"?>
<!DOCTYPE svg PUBLIC "-//W3C//DTD SVG 1.1//EN"
 "http://www.w3.org/Graphics/SVG/1.1/DTD/svg11.dtd">
<!-- Generated by graphviz version 2.43.0 (0)
 -->
<!-- Title: boards/openmote&#45;b/include/periph_conf.h Pages: 1 -->
<svg width="404pt" height="207pt"
 viewBox="0.00 0.00 403.50 207.00" xmlns="http://www.w3.org/2000/svg" xmlns:xlink="http://www.w3.org/1999/xlink">
<g id="graph0" class="graph" transform="scale(1 1) rotate(0) translate(4 203)">
<title>boards/openmote&#45;b/include/periph_conf.h</title>
<!-- Node1 -->
<g id="node1" class="node">
<title>Node1</title>
<g id="a_node1"><a xlink:title="Peripheral MCU configuration for the OpenMote&#45;B board.">
<polygon fill="#bfbfbf" stroke="black" points="141.5,-168.5 141.5,-198.5 291.5,-198.5 291.5,-168.5 141.5,-168.5"/>
<text text-anchor="start" x="149.5" y="-186.5" font-family="Helvetica,sans-Serif" font-size="10.00">boards/openmote&#45;b/include</text>
<text text-anchor="middle" x="216.5" y="-175.5" font-family="Helvetica,sans-Serif" font-size="10.00">/periph_conf.h</text>
</a>
</g>
</g>
<!-- Node2 -->
<g id="node2" class="node">
<title>Node2</title>
<g id="a_node2"><a xlink:href="cc2538__gpio_8h.html" target="_top" xlink:title="Driver for the cc2538 GPIO controller.">
<polygon fill="none" stroke="black" points="23.5,-112.5 23.5,-131.5 109.5,-131.5 109.5,-112.5 23.5,-112.5"/>
<text text-anchor="middle" x="66.5" y="-119.5" font-family="Helvetica,sans-Serif" font-size="10.00">cc2538_gpio.h</text>
</a>
</g>
</g>
<!-- Node1&#45;&gt;Node2 -->
<g id="edge1" class="edge">
<title>Node1&#45;&gt;Node2</title>
<path fill="none" stroke="midnightblue" d="M180.95,-168.4C155.67,-158.37 122.03,-145.03 97.77,-135.4"/>
<polygon fill="midnightblue" stroke="midnightblue" points="98.91,-132.09 88.33,-131.66 96.33,-138.6 98.91,-132.09"/>
</g>
<!-- Node6 -->
<g id="node6" class="node">
<title>Node6</title>
<g id="a_node6"><a xlink:title=" ">
<polygon fill="none" stroke="#bfbfbf" points="217,-56.5 217,-75.5 296,-75.5 296,-56.5 217,-56.5"/>
<text text-anchor="middle" x="256.5" y="-63.5" font-family="Helvetica,sans-Serif" font-size="10.00">periph_cpu.h</text>
</a>
</g>
</g>
<!-- Node1&#45;&gt;Node6 -->
<g id="edge5" class="edge">
<title>Node1&#45;&gt;Node6</title>
<path fill="none" stroke="midnightblue" d="M222.4,-168.46C226.55,-158.39 232.12,-144.46 236.5,-132 241.94,-116.51 247.37,-98.67 251.2,-85.6"/>
<polygon fill="midnightblue" stroke="midnightblue" points="254.59,-86.48 254,-75.9 247.86,-84.54 254.59,-86.48"/>
</g>
<!-- Node7 -->
<g id="node7" class="node">
<title>Node7</title>
<g id="a_node7"><a xlink:href="cfg__clk__default_8h.html" target="_top" xlink:title="Default clock configuration for cc2538 based boards.">
<polygon fill="none" stroke="black" points="127.5,-112.5 127.5,-131.5 227.5,-131.5 227.5,-112.5 127.5,-112.5"/>
<text text-anchor="middle" x="177.5" y="-119.5" font-family="Helvetica,sans-Serif" font-size="10.00">cfg_clk_default.h</text>
</a>
</g>
</g>
<!-- Node1&#45;&gt;Node7 -->
<g id="edge6" class="edge">
<title>Node1&#45;&gt;Node7</title>
<path fill="none" stroke="midnightblue" d="M207.26,-168.4C201.71,-159.93 194.61,-149.1 188.73,-140.14"/>
<polygon fill="midnightblue" stroke="midnightblue" points="191.58,-138.1 183.17,-131.66 185.73,-141.94 191.58,-138.1"/>
</g>
<!-- Node9 -->
<g id="node9" class="node">
<title>Node9</title>
<g id="a_node9"><a xlink:title=" ">
<polygon fill="none" stroke="#bfbfbf" points="283.5,-112.5 283.5,-131.5 395.5,-131.5 395.5,-112.5 283.5,-112.5"/>
<text text-anchor="middle" x="339.5" y="-119.5" font-family="Helvetica,sans-Serif" font-size="10.00">cfg_timer_default.h</text>
</a>
</g>
</g>
<!-- Node1&#45;&gt;Node9 -->
<g id="edge10" class="edge">
<title>Node1&#45;&gt;Node9</title>
<path fill="none" stroke="midnightblue" d="M245.65,-168.4C265.92,-158.59 292.74,-145.62 312.52,-136.05"/>
<polygon fill="midnightblue" stroke="midnightblue" points="314.12,-139.16 321.6,-131.66 311.08,-132.86 314.12,-139.16"/>
</g>
<!-- Node3 -->
<g id="node3" class="node">
<title>Node3</title>
<g id="a_node3"><a xlink:title=" ">
<polygon fill="none" stroke="#bfbfbf" points="85,-56.5 85,-75.5 138,-75.5 138,-56.5 85,-56.5"/>
<text text-anchor="middle" x="111.5" y="-63.5" font-family="Helvetica,sans-Serif" font-size="10.00">stdint.h</text>
</a>
</g>
</g>
<!-- Node2&#45;&gt;Node3 -->
<g id="edge2" class="edge">
<title>Node2&#45;&gt;Node3</title>
<path fill="none" stroke="midnightblue" d="M73.93,-112.08C80.35,-104.38 89.81,-93.03 97.62,-83.65"/>
<polygon fill="midnightblue" stroke="midnightblue" points="100.49,-85.67 104.21,-75.75 95.12,-81.19 100.49,-85.67"/>
</g>
<!-- Node4 -->
<g id="node4" class="node">
<title>Node4</title>
<g id="a_node4"><a xlink:href="cc2538_8h.html" target="_top" xlink:title="CC2538 MCU interrupt and register definitions.">
<polygon fill="none" stroke="black" points="6.5,-56.5 6.5,-75.5 66.5,-75.5 66.5,-56.5 6.5,-56.5"/>
<text text-anchor="middle" x="36.5" y="-63.5" font-family="Helvetica,sans-Serif" font-size="10.00">cc2538.h</text>
</a>
</g>
</g>
<!-- Node2&#45;&gt;Node4 -->
<g id="edge3" class="edge">
<title>Node2&#45;&gt;Node4</title>
<path fill="none" stroke="midnightblue" d="M61.55,-112.08C57.4,-104.61 51.35,-93.72 46.23,-84.52"/>
<polygon fill="midnightblue" stroke="midnightblue" points="49.28,-82.79 41.36,-75.75 43.16,-86.19 49.28,-82.79"/>
</g>
<!-- Node5 -->
<g id="node5" class="node">
<title>Node5</title>
<g id="a_node5"><a xlink:title=" ">
<polygon fill="none" stroke="#bfbfbf" points="0,-0.5 0,-19.5 73,-19.5 73,-0.5 0,-0.5"/>
<text text-anchor="middle" x="36.5" y="-7.5" font-family="Helvetica,sans-Serif" font-size="10.00">core_cm3.h</text>
</a>
</g>
</g>
<!-- Node4&#45;&gt;Node5 -->
<g id="edge4" class="edge">
<title>Node4&#45;&gt;Node5</title>
<path fill="none" stroke="midnightblue" d="M36.5,-56.08C36.5,-49.01 36.5,-38.86 36.5,-29.99"/>
<polygon fill="midnightblue" stroke="midnightblue" points="40,-29.75 36.5,-19.75 33,-29.75 40,-29.75"/>
</g>
<!-- Node7&#45;&gt;Node3 -->
<g id="edge7" class="edge">
<title>Node7&#45;&gt;Node3</title>
<path fill="none" stroke="midnightblue" d="M166.9,-112.32C157.04,-104.26 142.15,-92.08 130.28,-82.37"/>
<polygon fill="midnightblue" stroke="midnightblue" points="132.25,-79.46 122.3,-75.83 127.82,-84.88 132.25,-79.46"/>
</g>
<!-- Node7&#45;&gt;Node6 -->
<g id="edge9" class="edge">
<title>Node7&#45;&gt;Node6</title>
<path fill="none" stroke="midnightblue" d="M190.19,-112.32C202.4,-103.98 221.08,-91.21 235.5,-81.35"/>
<polygon fill="midnightblue" stroke="midnightblue" points="237.56,-84.19 243.84,-75.65 233.61,-78.41 237.56,-84.19"/>
</g>
<!-- Node8 -->
<g id="node8" class="node">
<title>Node8</title>
<g id="a_node8"><a xlink:title=" ">
<polygon fill="none" stroke="#bfbfbf" points="156,-56.5 156,-75.5 199,-75.5 199,-56.5 156,-56.5"/>
<text text-anchor="middle" x="177.5" y="-63.5" font-family="Helvetica,sans-Serif" font-size="10.00">cpu.h</text>
</a>
</g>
</g>
<!-- Node7&#45;&gt;Node8 -->
<g id="edge8" class="edge">
<title>Node7&#45;&gt;Node8</title>
<path fill="none" stroke="midnightblue" d="M177.5,-112.08C177.5,-105.01 177.5,-94.86 177.5,-85.99"/>
<polygon fill="midnightblue" stroke="midnightblue" points="181,-85.75 177.5,-75.75 174,-85.75 181,-85.75"/>
</g>
</g>
</svg>
