<?xml version="1.0" encoding="UTF-8" standalone="no"?>
<!DOCTYPE svg PUBLIC "-//W3C//DTD SVG 1.1//EN"
 "http://www.w3.org/Graphics/SVG/1.1/DTD/svg11.dtd">
<!-- Generated by graphviz version 2.43.0 (0)
 -->
<!-- Title: boards/mega&#45;xplained/include/periph_conf.h Pages: 1 -->
<svg width="134pt" height="162pt"
 viewBox="0.00 0.00 134.00 162.00" xmlns="http://www.w3.org/2000/svg" xmlns:xlink="http://www.w3.org/1999/xlink">
<g id="graph0" class="graph" transform="scale(1 1) rotate(0) translate(4 158)">
<title>boards/mega&#45;xplained/include/periph_conf.h</title>
<!-- Node1 -->
<g id="node1" class="node">
<title>Node1</title>
<g id="a_node1"><a xlink:title="Common configuration of MCU periphery for Mega Xplained.">
<polygon fill="#bfbfbf" stroke="black" points="0,-123.5 0,-153.5 126,-153.5 126,-123.5 0,-123.5"/>
<text text-anchor="start" x="8" y="-141.5" font-family="Helvetica,sans-Serif" font-size="10.00">boards/mega&#45;xplained</text>
<text text-anchor="middle" x="63" y="-130.5" font-family="Helvetica,sans-Serif" font-size="10.00">/include/periph_conf.h</text>
</a>
</g>
</g>
<!-- Node2 -->
<g id="node2" class="node">
<title>Node2</title>
<g id="a_node2"><a xlink:href="periph__conf__atmega__common_8h.html" target="_top" xlink:title="Common configuration of MCU periphery for ATmega boards.">
<polygon fill="none" stroke="black" points="5,-56.5 5,-86.5 121,-86.5 121,-56.5 5,-56.5"/>
<text text-anchor="start" x="13" y="-74.5" font-family="Helvetica,sans-Serif" font-size="10.00">periph_conf_atmega</text>
<text text-anchor="middle" x="63" y="-63.5" font-family="Helvetica,sans-Serif" font-size="10.00">_common.h</text>
</a>
</g>
</g>
<!-- Node1&#45;&gt;Node2 -->
<g id="edge1" class="edge">
<title>Node1&#45;&gt;Node2</title>
<path fill="none" stroke="midnightblue" d="M63,-123.4C63,-115.64 63,-105.81 63,-96.86"/>
<polygon fill="midnightblue" stroke="midnightblue" points="66.5,-96.58 63,-86.58 59.5,-96.58 66.5,-96.58"/>
</g>
<!-- Node3 -->
<g id="node3" class="node">
<title>Node3</title>
<g id="a_node3"><a xlink:title=" ">
<polygon fill="none" stroke="#bfbfbf" points="23.5,-0.5 23.5,-19.5 102.5,-19.5 102.5,-0.5 23.5,-0.5"/>
<text text-anchor="middle" x="63" y="-7.5" font-family="Helvetica,sans-Serif" font-size="10.00">periph_cpu.h</text>
</a>
</g>
</g>
<!-- Node2&#45;&gt;Node3 -->
<g id="edge2" class="edge">
<title>Node2&#45;&gt;Node3</title>
<path fill="none" stroke="midnightblue" d="M63,-56.4C63,-48.47 63,-38.46 63,-29.86"/>
<polygon fill="midnightblue" stroke="midnightblue" points="66.5,-29.66 63,-19.66 59.5,-29.66 66.5,-29.66"/>
</g>
</g>
</svg>
