<?xml version="1.0" encoding="UTF-8" standalone="no"?>
<!DOCTYPE svg PUBLIC "-//W3C//DTD SVG 1.1//EN"
 "http://www.w3.org/Graphics/SVG/1.1/DTD/svg11.dtd">
<!-- Generated by graphviz version 2.43.0 (0)
 -->
<!-- Title: boards/p&#45;l496g&#45;cell02/include/periph_conf.h Pages: 1 -->
<svg width="321pt" height="151pt"
 viewBox="0.00 0.00 320.72 151.00" xmlns="http://www.w3.org/2000/svg" xmlns:xlink="http://www.w3.org/1999/xlink">
<g id="graph0" class="graph" transform="scale(1 1) rotate(0) translate(4 147)">
<title>boards/p&#45;l496g&#45;cell02/include/periph_conf.h</title>
<!-- Node1 -->
<g id="node1" class="node">
<title>Node1</title>
<g id="a_node1"><a xlink:title="Peripheral MCU configuration for the P&#45;L496G&#45;CELL02 board.">
<polygon fill="#bfbfbf" stroke="black" points="34.22,-112.5 34.22,-142.5 157.22,-142.5 157.22,-112.5 34.22,-112.5"/>
<text text-anchor="start" x="42.22" y="-130.5" font-family="Helvetica,sans-Serif" font-size="10.00">boards/p&#45;l496g&#45;cell02</text>
<text text-anchor="middle" x="95.72" y="-119.5" font-family="Helvetica,sans-Serif" font-size="10.00">/include/periph_conf.h</text>
</a>
</g>
</g>
<!-- Node2 -->
<g id="node2" class="node">
<title>Node2</title>
<g id="a_node2"><a xlink:title=" ">
<polygon fill="none" stroke="#bfbfbf" points="84.22,-0.5 84.22,-19.5 163.22,-19.5 163.22,-0.5 84.22,-0.5"/>
<text text-anchor="middle" x="123.72" y="-7.5" font-family="Helvetica,sans-Serif" font-size="10.00">periph_cpu.h</text>
</a>
</g>
</g>
<!-- Node1&#45;&gt;Node2 -->
<g id="edge1" class="edge">
<title>Node1&#45;&gt;Node2</title>
<path fill="none" stroke="midnightblue" d="M51.81,-112.44C20.94,-100.09 -12.1,-80.33 4.72,-56 20.34,-33.38 48.91,-22.12 74.14,-16.52"/>
<polygon fill="midnightblue" stroke="midnightblue" points="74.84,-19.95 83.97,-14.57 73.48,-13.08 74.84,-19.95"/>
</g>
<!-- Node3 -->
<g id="node3" class="node">
<title>Node3</title>
<g id="a_node3"><a xlink:title=" ">
<polygon fill="none" stroke="#bfbfbf" points="14.22,-56.5 14.22,-75.5 79.22,-75.5 79.22,-56.5 14.22,-56.5"/>
<text text-anchor="middle" x="46.72" y="-63.5" font-family="Helvetica,sans-Serif" font-size="10.00">clk_conf.h</text>
</a>
</g>
</g>
<!-- Node1&#45;&gt;Node3 -->
<g id="edge2" class="edge">
<title>Node1&#45;&gt;Node3</title>
<path fill="none" stroke="midnightblue" d="M84.1,-112.4C76.98,-103.75 67.83,-92.64 60.37,-83.58"/>
<polygon fill="midnightblue" stroke="midnightblue" points="62.9,-81.15 53.85,-75.66 57.5,-85.6 62.9,-81.15"/>
</g>
<!-- Node4 -->
<g id="node4" class="node">
<title>Node4</title>
<g id="a_node4"><a xlink:title=" ">
<polygon fill="none" stroke="#bfbfbf" points="97.22,-56.5 97.22,-75.5 194.22,-75.5 194.22,-56.5 97.22,-56.5"/>
<text text-anchor="middle" x="145.72" y="-63.5" font-family="Helvetica,sans-Serif" font-size="10.00">cfg_rtt_default.h</text>
</a>
</g>
</g>
<!-- Node1&#45;&gt;Node4 -->
<g id="edge3" class="edge">
<title>Node1&#45;&gt;Node4</title>
<path fill="none" stroke="midnightblue" d="M107.56,-112.4C114.83,-103.75 124.17,-92.64 131.79,-83.58"/>
<polygon fill="midnightblue" stroke="midnightblue" points="134.69,-85.57 138.44,-75.66 129.33,-81.06 134.69,-85.57"/>
</g>
<!-- Node5 -->
<g id="node5" class="node">
<title>Node5</title>
<g id="a_node5"><a xlink:href="cfg__timer__tim2_8h.html" target="_top" xlink:title="Common configuration for STM32 Timer peripheral based on TIM2.">
<polygon fill="none" stroke="black" points="212.72,-56.5 212.72,-75.5 312.72,-75.5 312.72,-56.5 212.72,-56.5"/>
<text text-anchor="middle" x="262.72" y="-63.5" font-family="Helvetica,sans-Serif" font-size="10.00">cfg_timer_tim2.h</text>
</a>
</g>
</g>
<!-- Node1&#45;&gt;Node5 -->
<g id="edge4" class="edge">
<title>Node1&#45;&gt;Node5</title>
<path fill="none" stroke="midnightblue" d="M135.29,-112.4C163.81,-102.24 201.89,-88.67 228.97,-79.02"/>
<polygon fill="midnightblue" stroke="midnightblue" points="230.17,-82.31 238.42,-75.66 227.82,-75.72 230.17,-82.31"/>
</g>
<!-- Node5&#45;&gt;Node2 -->
<g id="edge5" class="edge">
<title>Node5&#45;&gt;Node2</title>
<path fill="none" stroke="midnightblue" d="M240.69,-56.44C217.61,-47.48 181.15,-33.31 155.07,-23.18"/>
<polygon fill="midnightblue" stroke="midnightblue" points="156.23,-19.88 145.64,-19.52 153.69,-26.4 156.23,-19.88"/>
</g>
</g>
</svg>
