<?xml version="1.0" encoding="UTF-8" standalone="no"?>
<!DOCTYPE svg PUBLIC "-//W3C//DTD SVG 1.1//EN"
 "http://www.w3.org/Graphics/SVG/1.1/DTD/svg11.dtd">
<!-- Generated by graphviz version 2.40.1 (20161225.0304)
 -->
<!-- Title: boards/nucleo&#45;f446re/include/periph_conf.h Pages: 1 -->
<svg width="484pt" height="151pt"
 viewBox="0.00 0.00 483.63 151.00" xmlns="http://www.w3.org/2000/svg" xmlns:xlink="http://www.w3.org/1999/xlink">
<g id="graph0" class="graph" transform="scale(1 1) rotate(0) translate(4 147)">
<title>boards/nucleo&#45;f446re/include/periph_conf.h</title>
<!-- Node0 -->
<g id="node1" class="node">
<title>Node0</title>
<polygon fill="#bfbfbf" stroke="#000000" points="147.1266,-112.5 147.1266,-142.5 259.1266,-142.5 259.1266,-112.5 147.1266,-112.5"/>
<text text-anchor="start" x="155.1266" y="-130.5" font-family="Helvetica,sans-Serif" font-size="10.00" fill="#000000">boards/nucleo&#45;f446re</text>
<text text-anchor="middle" x="203.1266" y="-119.5" font-family="Helvetica,sans-Serif" font-size="10.00" fill="#000000">/include/periph_conf.h</text>
</g>
<!-- Node1 -->
<g id="node2" class="node">
<title>Node1</title>
<polygon fill="none" stroke="#bfbfbf" points="167.1266,-.5 167.1266,-19.5 239.1266,-19.5 239.1266,-.5 167.1266,-.5"/>
<text text-anchor="middle" x="203.1266" y="-7.5" font-family="Helvetica,sans-Serif" font-size="10.00" fill="#000000">periph_cpu.h</text>
</g>
<!-- Node0&#45;&gt;Node1 -->
<g id="edge1" class="edge">
<title>Node0&#45;&gt;Node1</title>
<path fill="none" stroke="#191970" d="M147.0413,-120.6568C94.5104,-112.958 21.5486,-98.5046 4.1266,-76 -1.3148,-68.9712 -1.4059,-62.9573 4.1266,-56 22.8519,-32.4525 104.1859,-19.911 156.9021,-14.1308"/>
<polygon fill="#191970" stroke="#191970" points="157.4582,-17.5917 167.0367,-13.0637 156.7252,-10.6302 157.4582,-17.5917"/>
</g>
<!-- Node2 -->
<g id="node3" class="node">
<title>Node2</title>
<g id="a_node3"><a xlink:href="cfg__clock__180__8__1_8h.html" target="_top" xlink:title="Configure STM32F4 clock to 180MHz using PLL. ">
<polygon fill="none" stroke="#000000" points="13.1266,-56.5 13.1266,-75.5 133.1266,-75.5 133.1266,-56.5 13.1266,-56.5"/>
<text text-anchor="middle" x="73.1266" y="-63.5" font-family="Helvetica,sans-Serif" font-size="10.00" fill="#000000">f4/cfg_clock_180_8_1.h</text>
</a>
</g>
</g>
<!-- Node0&#45;&gt;Node2 -->
<g id="edge2" class="edge">
<title>Node0&#45;&gt;Node2</title>
<path fill="none" stroke="#191970" d="M171.325,-112.4554C150.3001,-102.509 122.9406,-89.5659 102.4423,-79.8686"/>
<polygon fill="#191970" stroke="#191970" points="103.8082,-76.6429 93.272,-75.5303 100.8147,-82.9706 103.8082,-76.6429"/>
</g>
<!-- Node3 -->
<g id="node4" class="node">
<title>Node3</title>
<g id="a_node4"><a xlink:href="cfg__i2c1__pb8__pb9_8h.html" target="_top" xlink:title="Common configuration for STM32 I2C. ">
<polygon fill="none" stroke="#000000" points="151.1266,-56.5 151.1266,-75.5 255.1266,-75.5 255.1266,-56.5 151.1266,-56.5"/>
<text text-anchor="middle" x="203.1266" y="-63.5" font-family="Helvetica,sans-Serif" font-size="10.00" fill="#000000">cfg_i2c1_pb8_pb9.h</text>
</a>
</g>
</g>
<!-- Node0&#45;&gt;Node3 -->
<g id="edge3" class="edge">
<title>Node0&#45;&gt;Node3</title>
<path fill="none" stroke="#191970" d="M203.1266,-112.2977C203.1266,-104.3834 203.1266,-94.6043 203.1266,-86.0759"/>
<polygon fill="#191970" stroke="#191970" points="206.6267,-85.8469 203.1266,-75.8469 199.6267,-85.847 206.6267,-85.8469"/>
</g>
<!-- Node4 -->
<g id="node5" class="node">
<title>Node4</title>
<g id="a_node5"><a xlink:href="cfg__spi__divtable_8h.html" target="_top" xlink:title="Collection of pre&#45;computed bus pre&#45;scalers for SPI configuration. ">
<polygon fill="none" stroke="#000000" points="273.6266,-56.5 273.6266,-75.5 368.6266,-75.5 368.6266,-56.5 273.6266,-56.5"/>
<text text-anchor="middle" x="321.1266" y="-63.5" font-family="Helvetica,sans-Serif" font-size="10.00" fill="#000000">cfg_spi_divtable.h</text>
</a>
</g>
</g>
<!-- Node0&#45;&gt;Node4 -->
<g id="edge5" class="edge">
<title>Node0&#45;&gt;Node4</title>
<path fill="none" stroke="#191970" d="M231.9926,-112.4554C250.8177,-102.644 275.2376,-89.9167 293.7558,-80.2653"/>
<polygon fill="#191970" stroke="#191970" points="295.5906,-83.2559 302.8408,-75.5303 292.3553,-77.0484 295.5906,-83.2559"/>
</g>
<!-- Node5 -->
<g id="node6" class="node">
<title>Node5</title>
<g id="a_node6"><a xlink:href="cfg__timer__tim5_8h.html" target="_top" xlink:title="Common configuration for STM32 Timer peripheral based on TIM5. ">
<polygon fill="none" stroke="#000000" points="386.6266,-56.5 386.6266,-75.5 475.6266,-75.5 475.6266,-56.5 386.6266,-56.5"/>
<text text-anchor="middle" x="431.1266" y="-63.5" font-family="Helvetica,sans-Serif" font-size="10.00" fill="#000000">cfg_timer_tim5.h</text>
</a>
</g>
</g>
<!-- Node0&#45;&gt;Node5 -->
<g id="edge6" class="edge">
<title>Node0&#45;&gt;Node5</title>
<path fill="none" stroke="#191970" d="M258.9017,-112.4554C297.9452,-101.9239 349.4441,-88.0328 385.926,-78.1923"/>
<polygon fill="#191970" stroke="#191970" points="387.0513,-81.5139 395.7947,-75.5303 385.2282,-74.7555 387.0513,-81.5139"/>
</g>
<!-- Node3&#45;&gt;Node1 -->
<g id="edge4" class="edge">
<title>Node3&#45;&gt;Node1</title>
<path fill="none" stroke="#191970" d="M203.1266,-56.2455C203.1266,-48.9382 203.1266,-38.6944 203.1266,-29.7046"/>
<polygon fill="#191970" stroke="#191970" points="206.6267,-29.6426 203.1266,-19.6427 199.6267,-29.6427 206.6267,-29.6426"/>
</g>
<!-- Node5&#45;&gt;Node1 -->
<g id="edge7" class="edge">
<title>Node5&#45;&gt;Node1</title>
<path fill="none" stroke="#191970" d="M392.1911,-56.4369C352.5941,-46.7113 291.2467,-31.6435 249.241,-21.3264"/>
<polygon fill="#191970" stroke="#191970" points="249.8144,-17.8632 239.2681,-18.8769 248.1446,-24.6612 249.8144,-17.8632"/>
</g>
</g>
</svg>
