<?xml version="1.0" encoding="UTF-8" standalone="no"?>
<!DOCTYPE svg PUBLIC "-//W3C//DTD SVG 1.1//EN"
 "http://www.w3.org/Graphics/SVG/1.1/DTD/svg11.dtd">
<!-- Generated by graphviz version 2.40.1 (20161225.0304)
 -->
<!-- Title: boards/firefly/include/periph_conf.h Pages: 1 -->
<svg width="559pt" height="151pt"
 viewBox="0.00 0.00 558.50 151.00" xmlns="http://www.w3.org/2000/svg" xmlns:xlink="http://www.w3.org/1999/xlink">
<g id="graph0" class="graph" transform="scale(1 1) rotate(0) translate(4 147)">
<title>boards/firefly/include/periph_conf.h</title>
<!-- Node0 -->
<g id="node1" class="node">
<title>Node0</title>
<polygon fill="#bfbfbf" stroke="#000000" points="217.5,-112.5 217.5,-142.5 324.5,-142.5 324.5,-112.5 217.5,-112.5"/>
<text text-anchor="start" x="225.5" y="-130.5" font-family="Helvetica,sans-Serif" font-size="10.00" fill="#000000">boards/firefly/include</text>
<text text-anchor="middle" x="271" y="-119.5" font-family="Helvetica,sans-Serif" font-size="10.00" fill="#000000">/periph_conf.h</text>
</g>
<!-- Node1 -->
<g id="node2" class="node">
<title>Node1</title>
<g id="a_node2"><a xlink:href="cfg__adc__default_8h.html" target="_top" xlink:title="Common default ADC configuration for the RE&#45;Mote board revision A. ">
<polygon fill="none" stroke="#000000" points="0,-56.5 0,-75.5 94,-75.5 94,-56.5 0,-56.5"/>
<text text-anchor="middle" x="47" y="-63.5" font-family="Helvetica,sans-Serif" font-size="10.00" fill="#000000">cfg_adc_default.h</text>
</a>
</g>
</g>
<!-- Node0&#45;&gt;Node1 -->
<g id="edge1" class="edge">
<title>Node0&#45;&gt;Node1</title>
<path fill="none" stroke="#191970" d="M217.3464,-112.7692C178.8965,-102.2126 127.7179,-88.1614 91.5256,-78.2247"/>
<polygon fill="#191970" stroke="#191970" points="92.3078,-74.81 81.7379,-75.5374 90.4544,-81.5602 92.3078,-74.81"/>
</g>
<!-- Node3 -->
<g id="node4" class="node">
<title>Node3</title>
<g id="a_node4"><a xlink:href="cfg__clk__default_8h.html" target="_top" xlink:title="Default clock configuration for cc2538 based boards. ">
<polygon fill="none" stroke="#000000" points="453.5,-56.5 453.5,-75.5 544.5,-75.5 544.5,-56.5 453.5,-56.5"/>
<text text-anchor="middle" x="499" y="-63.5" font-family="Helvetica,sans-Serif" font-size="10.00" fill="#000000">cfg_clk_default.h</text>
</a>
</g>
</g>
<!-- Node0&#45;&gt;Node3 -->
<g id="edge3" class="edge">
<title>Node0&#45;&gt;Node3</title>
<path fill="none" stroke="#191970" d="M324.7441,-113.0032C363.9749,-102.4212 416.5658,-88.2355 453.6772,-78.2252"/>
<polygon fill="#191970" stroke="#191970" points="454.9666,-81.5026 463.71,-75.519 453.1436,-74.7441 454.9666,-81.5026"/>
</g>
<!-- Node6 -->
<g id="node7" class="node">
<title>Node6</title>
<polygon fill="none" stroke="#bfbfbf" points="225.5,-56.5 225.5,-75.5 316.5,-75.5 316.5,-56.5 225.5,-56.5"/>
<text text-anchor="middle" x="271" y="-63.5" font-family="Helvetica,sans-Serif" font-size="10.00" fill="#000000">cfg_i2c_default.h</text>
</g>
<!-- Node0&#45;&gt;Node6 -->
<g id="edge7" class="edge">
<title>Node0&#45;&gt;Node6</title>
<path fill="none" stroke="#191970" d="M271,-112.2977C271,-104.3834 271,-94.6043 271,-86.0759"/>
<polygon fill="#191970" stroke="#191970" points="274.5001,-85.8469 271,-75.8469 267.5001,-85.847 274.5001,-85.8469"/>
</g>
<!-- Node7 -->
<g id="node8" class="node">
<title>Node7</title>
<polygon fill="none" stroke="#bfbfbf" points="335,-56.5 335,-75.5 435,-75.5 435,-56.5 335,-56.5"/>
<text text-anchor="middle" x="385" y="-63.5" font-family="Helvetica,sans-Serif" font-size="10.00" fill="#000000">cfg_timer_default.h</text>
</g>
<!-- Node0&#45;&gt;Node7 -->
<g id="edge8" class="edge">
<title>Node0&#45;&gt;Node7</title>
<path fill="none" stroke="#191970" d="M298.8875,-112.4554C316.9076,-102.734 340.2341,-90.15 358.0632,-80.5317"/>
<polygon fill="#191970" stroke="#191970" points="360.1948,-83.3586 367.334,-75.5303 356.8713,-77.1979 360.1948,-83.3586"/>
</g>
<!-- Node8 -->
<g id="node9" class="node">
<title>Node8</title>
<g id="a_node9"><a xlink:href="cfg__uart__default_8h.html" target="_top" xlink:title="Common default UART configuration for the RE&#45;Mote board revision A. ">
<polygon fill="none" stroke="#000000" points="112.5,-56.5 112.5,-75.5 207.5,-75.5 207.5,-56.5 112.5,-56.5"/>
<text text-anchor="middle" x="160" y="-63.5" font-family="Helvetica,sans-Serif" font-size="10.00" fill="#000000">cfg_uart_default.h</text>
</a>
</g>
</g>
<!-- Node0&#45;&gt;Node8 -->
<g id="edge9" class="edge">
<title>Node0&#45;&gt;Node8</title>
<path fill="none" stroke="#191970" d="M243.8463,-112.4554C226.3005,-102.734 203.5878,-90.15 186.2279,-80.5317"/>
<polygon fill="#191970" stroke="#191970" points="187.6445,-77.3153 177.2011,-75.5303 184.252,-83.4383 187.6445,-77.3153"/>
</g>
<!-- Node2 -->
<g id="node3" class="node">
<title>Node2</title>
<polygon fill="none" stroke="#bfbfbf" points="124,-.5 124,-19.5 196,-19.5 196,-.5 124,-.5"/>
<text text-anchor="middle" x="160" y="-7.5" font-family="Helvetica,sans-Serif" font-size="10.00" fill="#000000">periph_cpu.h</text>
</g>
<!-- Node1&#45;&gt;Node2 -->
<g id="edge2" class="edge">
<title>Node1&#45;&gt;Node2</title>
<path fill="none" stroke="#191970" d="M66.4254,-56.3733C84.4021,-47.4644 111.3441,-34.1127 131.709,-24.0203"/>
<polygon fill="#191970" stroke="#191970" points="133.4222,-27.0776 140.8281,-19.5011 130.3139,-20.8055 133.4222,-27.0776"/>
</g>
<!-- Node3&#45;&gt;Node2 -->
<g id="edge6" class="edge">
<title>Node3&#45;&gt;Node2</title>
<path fill="none" stroke="#191970" d="M453.3935,-57.638C450.2157,-57.0769 447.0608,-56.5261 444,-56 360.3528,-41.6228 262.6239,-26.0649 206.3608,-17.2281"/>
<polygon fill="#191970" stroke="#191970" points="206.7721,-13.7499 196.3506,-15.6581 205.6875,-20.6654 206.7721,-13.7499"/>
</g>
<!-- Node4 -->
<g id="node5" class="node">
<title>Node4</title>
<polygon fill="none" stroke="#bfbfbf" points="442.5,-.5 442.5,-19.5 491.5,-19.5 491.5,-.5 442.5,-.5"/>
<text text-anchor="middle" x="467" y="-7.5" font-family="Helvetica,sans-Serif" font-size="10.00" fill="#000000">stdint.h</text>
</g>
<!-- Node3&#45;&gt;Node4 -->
<g id="edge4" class="edge">
<title>Node3&#45;&gt;Node4</title>
<path fill="none" stroke="#191970" d="M493.426,-56.2455C489.0669,-48.617 482.8789,-37.7881 477.5867,-28.5267"/>
<polygon fill="#191970" stroke="#191970" points="480.5104,-26.5886 472.5101,-19.6427 474.4327,-30.0616 480.5104,-26.5886"/>
</g>
<!-- Node5 -->
<g id="node6" class="node">
<title>Node5</title>
<polygon fill="none" stroke="#bfbfbf" points="509.5,-.5 509.5,-19.5 550.5,-19.5 550.5,-.5 509.5,-.5"/>
<text text-anchor="middle" x="530" y="-7.5" font-family="Helvetica,sans-Serif" font-size="10.00" fill="#000000">cpu.h</text>
</g>
<!-- Node3&#45;&gt;Node5 -->
<g id="edge5" class="edge">
<title>Node3&#45;&gt;Node5</title>
<path fill="none" stroke="#191970" d="M504.3998,-56.2455C508.6227,-48.617 514.6173,-37.7881 519.7441,-28.5267"/>
<polygon fill="#191970" stroke="#191970" points="522.881,-30.0867 524.6621,-19.6427 516.7568,-26.6965 522.881,-30.0867"/>
</g>
<!-- Node8&#45;&gt;Node2 -->
<g id="edge10" class="edge">
<title>Node8&#45;&gt;Node2</title>
<path fill="none" stroke="#191970" d="M160,-56.2455C160,-48.9382 160,-38.6944 160,-29.7046"/>
<polygon fill="#191970" stroke="#191970" points="163.5001,-29.6426 160,-19.6427 156.5001,-29.6427 163.5001,-29.6426"/>
</g>
</g>
</svg>
