<?xml version="1.0" encoding="UTF-8" standalone="no"?>
<!DOCTYPE svg PUBLIC "-//W3C//DTD SVG 1.1//EN"
 "http://www.w3.org/Graphics/SVG/1.1/DTD/svg11.dtd">
<!-- Generated by graphviz version 2.40.1 (20161225.0304)
 -->
<!-- Title: boards/stm32f4discovery/include/periph_conf.h Pages: 1 -->
<svg width="390pt" height="162pt"
 viewBox="0.00 0.00 390.00 162.00" xmlns="http://www.w3.org/2000/svg" xmlns:xlink="http://www.w3.org/1999/xlink">
<g id="graph0" class="graph" transform="scale(1 1) rotate(0) translate(4 158)">
<title>boards/stm32f4discovery/include/periph_conf.h</title>
<!-- Node0 -->
<g id="node1" class="node">
<title>Node0</title>
<polygon fill="#bfbfbf" stroke="#000000" points="123,-123.5 123,-153.5 249,-153.5 249,-123.5 123,-123.5"/>
<text text-anchor="start" x="131" y="-141.5" font-family="Helvetica,sans-Serif" font-size="10.00" fill="#000000">boards/stm32f4discovery</text>
<text text-anchor="middle" x="186" y="-130.5" font-family="Helvetica,sans-Serif" font-size="10.00" fill="#000000">/include/periph_conf.h</text>
</g>
<!-- Node1 -->
<g id="node2" class="node">
<title>Node1</title>
<polygon fill="none" stroke="#bfbfbf" points="214,-6 214,-25 286,-25 286,-6 214,-6"/>
<text text-anchor="middle" x="250" y="-13" font-family="Helvetica,sans-Serif" font-size="10.00" fill="#000000">periph_cpu.h</text>
</g>
<!-- Node0&#45;&gt;Node1 -->
<g id="edge1" class="edge">
<title>Node0&#45;&gt;Node1</title>
<path fill="none" stroke="#191970" d="M176.1244,-123.4387C167.5996,-108.3729 158.0912,-84.9242 168,-67 177.4505,-49.9048 195.2153,-37.7185 211.7998,-29.5067"/>
<polygon fill="#191970" stroke="#191970" points="213.7257,-32.474 221.3564,-25.124 210.8077,-26.1113 213.7257,-32.474"/>
</g>
<!-- Node2 -->
<g id="node3" class="node">
<title>Node2</title>
<g id="a_node3"><a xlink:href="cfg__clock__168__8__0_8h.html" target="_top" xlink:title="Configure STM32F4 clock to 168MHz using PLL and without LSE. ">
<polygon fill="none" stroke="#000000" points="0,-67.5 0,-86.5 120,-86.5 120,-67.5 0,-67.5"/>
<text text-anchor="middle" x="60" y="-74.5" font-family="Helvetica,sans-Serif" font-size="10.00" fill="#000000">f4/cfg_clock_168_8_0.h</text>
</a>
</g>
</g>
<!-- Node0&#45;&gt;Node2 -->
<g id="edge2" class="edge">
<title>Node0&#45;&gt;Node2</title>
<path fill="none" stroke="#191970" d="M155.1769,-123.4554C134.8912,-113.554 108.5212,-100.683 88.6838,-91.0004"/>
<polygon fill="#191970" stroke="#191970" points="90.0474,-87.7714 79.5255,-86.5303 86.977,-94.062 90.0474,-87.7714"/>
</g>
<!-- Node4 -->
<g id="node5" class="node">
<title>Node4</title>
<g id="a_node5"><a xlink:href="cfg__spi__divtable_8h.html" target="_top" xlink:title="Collection of pre&#45;computed bus pre&#45;scalers for SPI configuration. ">
<polygon fill="none" stroke="#000000" points="176.5,-67.5 176.5,-86.5 271.5,-86.5 271.5,-67.5 176.5,-67.5"/>
<text text-anchor="middle" x="224" y="-74.5" font-family="Helvetica,sans-Serif" font-size="10.00" fill="#000000">cfg_spi_divtable.h</text>
</a>
</g>
</g>
<!-- Node0&#45;&gt;Node4 -->
<g id="edge4" class="edge">
<title>Node0&#45;&gt;Node4</title>
<path fill="none" stroke="#191970" d="M195.3933,-123.2977C200.6131,-114.8498 207.1457,-104.2773 212.65,-95.369"/>
<polygon fill="#191970" stroke="#191970" points="215.6368,-97.1938 217.9157,-86.8469 209.6818,-93.5143 215.6368,-97.1938"/>
</g>
<!-- Node5 -->
<g id="node6" class="node">
<title>Node5</title>
<g id="a_node6"><a xlink:href="cfg__usb__otg__fs_8h.html" target="_top" xlink:title="Common configuration for STM32 OTG FS peripheral. ">
<polygon fill="none" stroke="#000000" points="290,-67.5 290,-86.5 382,-86.5 382,-67.5 290,-67.5"/>
<text text-anchor="middle" x="336" y="-74.5" font-family="Helvetica,sans-Serif" font-size="10.00" fill="#000000">cfg_usb_otg_fs.h</text>
</a>
</g>
</g>
<!-- Node0&#45;&gt;Node5 -->
<g id="edge5" class="edge">
<title>Node0&#45;&gt;Node5</title>
<path fill="none" stroke="#191970" d="M222.6941,-123.4554C247.3927,-113.329 279.6674,-100.0964 303.4506,-90.3453"/>
<polygon fill="#191970" stroke="#191970" points="304.8306,-93.5623 312.7553,-86.5303 302.175,-87.0855 304.8306,-93.5623"/>
</g>
<!-- Node3 -->
<g id="node4" class="node">
<title>Node3</title>
<g id="a_node4"><a xlink:href="cfg__clock__168__8__common_8h.html" target="_top" xlink:title="Configure STM32F4 clock to 168MHz using PLL. ">
<polygon fill="none" stroke="#000000" points="9.5,-.5 9.5,-30.5 110.5,-30.5 110.5,-.5 9.5,-.5"/>
<text text-anchor="start" x="17.5" y="-18.5" font-family="Helvetica,sans-Serif" font-size="10.00" fill="#000000">f4/cfg_clock_168_8</text>
<text text-anchor="middle" x="60" y="-7.5" font-family="Helvetica,sans-Serif" font-size="10.00" fill="#000000">_common.h</text>
</a>
</g>
</g>
<!-- Node2&#45;&gt;Node3 -->
<g id="edge3" class="edge">
<title>Node2&#45;&gt;Node3</title>
<path fill="none" stroke="#191970" d="M60,-67.3906C60,-60.2234 60,-50.0862 60,-40.671"/>
<polygon fill="#191970" stroke="#191970" points="63.5001,-40.5446 60,-30.5446 56.5001,-40.5446 63.5001,-40.5446"/>
</g>
<!-- Node5&#45;&gt;Node1 -->
<g id="edge6" class="edge">
<title>Node5&#45;&gt;Node1</title>
<path fill="none" stroke="#191970" d="M322.5625,-67.3906C308.9305,-57.6421 287.6154,-42.3994 271.6078,-30.9521"/>
<polygon fill="#191970" stroke="#191970" points="273.5132,-28.0118 263.3431,-25.0419 269.4414,-33.7057 273.5132,-28.0118"/>
</g>
</g>
</svg>
