<?xml version="1.0" encoding="UTF-8" standalone="no"?>
<!DOCTYPE svg PUBLIC "-//W3C//DTD SVG 1.1//EN"
 "http://www.w3.org/Graphics/SVG/1.1/DTD/svg11.dtd">
<!-- Generated by graphviz version 2.43.0 (0)
 -->
<!-- Title: boards/stm32f030f4&#45;demo/include/periph_conf.h Pages: 1 -->
<svg width="229pt" height="106pt"
 viewBox="0.00 0.00 228.50 106.00" xmlns="http://www.w3.org/2000/svg" xmlns:xlink="http://www.w3.org/1999/xlink">
<g id="graph0" class="graph" transform="scale(1 1) rotate(0) translate(4 102)">
<title>boards/stm32f030f4&#45;demo/include/periph_conf.h</title>
<!-- Node1 -->
<g id="node1" class="node">
<title>Node1</title>
<g id="a_node1"><a xlink:title="Peripheral MCU configuration for the stm32f030f4&#45;demo board.">
<polygon fill="#bfbfbf" stroke="black" points="38.5,-56.5 38.5,-97.5 158.5,-97.5 158.5,-56.5 38.5,-56.5"/>
<text text-anchor="start" x="46.5" y="-85.5" font-family="Helvetica,sans-Serif" font-size="10.00">boards/stm32f030f4</text>
<text text-anchor="start" x="46.5" y="-74.5" font-family="Helvetica,sans-Serif" font-size="10.00">&#45;demo/include/periph</text>
<text text-anchor="middle" x="98.5" y="-63.5" font-family="Helvetica,sans-Serif" font-size="10.00">_conf.h</text>
</a>
</g>
</g>
<!-- Node2 -->
<g id="node2" class="node">
<title>Node2</title>
<g id="a_node2"><a xlink:title=" ">
<polygon fill="none" stroke="#bfbfbf" points="0,-0.5 0,-19.5 79,-19.5 79,-0.5 0,-0.5"/>
<text text-anchor="middle" x="39.5" y="-7.5" font-family="Helvetica,sans-Serif" font-size="10.00">periph_cpu.h</text>
</a>
</g>
</g>
<!-- Node1&#45;&gt;Node2 -->
<g id="edge1" class="edge">
<title>Node1&#45;&gt;Node2</title>
<path fill="none" stroke="midnightblue" d="M80.8,-56.5C72.27,-47.11 62.18,-35.98 54.1,-27.08"/>
<polygon fill="midnightblue" stroke="midnightblue" points="56.67,-24.7 47.35,-19.65 51.48,-29.41 56.67,-24.7"/>
</g>
<!-- Node3 -->
<g id="node3" class="node">
<title>Node3</title>
<g id="a_node3"><a xlink:href="cpu_2stm32_2include_2clk_2f0_2cfg__clock__default_8h.html" target="_top" xlink:title="Default clock configuration for STM32F0.">
<polygon fill="none" stroke="black" points="96.5,-0.5 96.5,-19.5 220.5,-19.5 220.5,-0.5 96.5,-0.5"/>
<text text-anchor="middle" x="158.5" y="-7.5" font-family="Helvetica,sans-Serif" font-size="10.00">f0/cfg_clock_default.h</text>
</a>
</g>
</g>
<!-- Node1&#45;&gt;Node3 -->
<g id="edge2" class="edge">
<title>Node1&#45;&gt;Node3</title>
<path fill="none" stroke="midnightblue" d="M116.5,-56.5C125.17,-47.11 135.44,-35.98 143.65,-27.08"/>
<polygon fill="midnightblue" stroke="midnightblue" points="146.3,-29.37 150.51,-19.65 141.16,-24.63 146.3,-29.37"/>
</g>
</g>
</svg>
