<?xml version="1.0" encoding="UTF-8" standalone="no"?>
<!DOCTYPE svg PUBLIC "-//W3C//DTD SVG 1.1//EN"
 "http://www.w3.org/Graphics/SVG/1.1/DTD/svg11.dtd">
<!-- Generated by graphviz version 2.43.0 (0)
 -->
<!-- Title: boards/stm32f4discovery/include/periph_conf.h Pages: 1 -->
<svg width="227pt" height="151pt"
 viewBox="0.00 0.00 227.00 151.00" xmlns="http://www.w3.org/2000/svg" xmlns:xlink="http://www.w3.org/1999/xlink">
<g id="graph0" class="graph" transform="scale(1 1) rotate(0) translate(4 147)">
<title>boards/stm32f4discovery/include/periph_conf.h</title>
<!-- Node1 -->
<g id="node1" class="node">
<title>Node1</title>
<g id="a_node1"><a xlink:title=" ">
<polygon fill="#bfbfbf" stroke="black" points="0,-112.5 0,-142.5 140,-142.5 140,-112.5 0,-112.5"/>
<text text-anchor="start" x="8" y="-130.5" font-family="Helvetica,sans-Serif" font-size="10.00">boards/stm32f4discovery</text>
<text text-anchor="middle" x="70" y="-119.5" font-family="Helvetica,sans-Serif" font-size="10.00">/include/periph_conf.h</text>
</a>
</g>
</g>
<!-- Node2 -->
<g id="node2" class="node">
<title>Node2</title>
<g id="a_node2"><a xlink:title=" ">
<polygon fill="none" stroke="#bfbfbf" points="49.5,-0.5 49.5,-19.5 128.5,-19.5 128.5,-0.5 49.5,-0.5"/>
<text text-anchor="middle" x="89" y="-7.5" font-family="Helvetica,sans-Serif" font-size="10.00">periph_cpu.h</text>
</a>
</g>
</g>
<!-- Node1&#45;&gt;Node2 -->
<g id="edge1" class="edge">
<title>Node1&#45;&gt;Node2</title>
<path fill="none" stroke="midnightblue" d="M51.79,-112.25C36.23,-98.24 17.85,-76.09 28,-56 34.81,-42.52 47.77,-32.08 60,-24.67"/>
<polygon fill="midnightblue" stroke="midnightblue" points="62.07,-27.52 69.09,-19.59 58.66,-21.41 62.07,-27.52"/>
</g>
<!-- Node3 -->
<g id="node3" class="node">
<title>Node3</title>
<g id="a_node3"><a xlink:title=" ">
<polygon fill="none" stroke="#bfbfbf" points="37.5,-56.5 37.5,-75.5 102.5,-75.5 102.5,-56.5 37.5,-56.5"/>
<text text-anchor="middle" x="70" y="-63.5" font-family="Helvetica,sans-Serif" font-size="10.00">clk_conf.h</text>
</a>
</g>
</g>
<!-- Node1&#45;&gt;Node3 -->
<g id="edge2" class="edge">
<title>Node1&#45;&gt;Node3</title>
<path fill="none" stroke="midnightblue" d="M70,-112.4C70,-104.47 70,-94.46 70,-85.86"/>
<polygon fill="midnightblue" stroke="midnightblue" points="73.5,-85.66 70,-75.66 66.5,-85.66 73.5,-85.66"/>
</g>
<!-- Node4 -->
<g id="node4" class="node">
<title>Node4</title>
<g id="a_node4"><a xlink:href="cfg__usb__otg__fs_8h.html" target="_top" xlink:title="Common configuration for STM32 OTG FS peripheral.">
<polygon fill="none" stroke="black" points="121,-56.5 121,-75.5 219,-75.5 219,-56.5 121,-56.5"/>
<text text-anchor="middle" x="170" y="-63.5" font-family="Helvetica,sans-Serif" font-size="10.00">cfg_usb_otg_fs.h</text>
</a>
</g>
</g>
<!-- Node1&#45;&gt;Node4 -->
<g id="edge3" class="edge">
<title>Node1&#45;&gt;Node4</title>
<path fill="none" stroke="midnightblue" d="M93.7,-112.4C109.73,-102.86 130.8,-90.32 146.74,-80.84"/>
<polygon fill="midnightblue" stroke="midnightblue" points="148.64,-83.78 155.45,-75.66 145.07,-77.76 148.64,-83.78"/>
</g>
<!-- Node4&#45;&gt;Node2 -->
<g id="edge4" class="edge">
<title>Node4&#45;&gt;Node2</title>
<path fill="none" stroke="midnightblue" d="M156.99,-56.32C144.47,-47.98 125.32,-35.21 110.53,-25.35"/>
<polygon fill="midnightblue" stroke="midnightblue" points="112.24,-22.29 101.98,-19.65 108.36,-28.11 112.24,-22.29"/>
</g>
</g>
</svg>
