<?xml version="1.0" encoding="UTF-8" standalone="no"?>
<!DOCTYPE svg PUBLIC "-//W3C//DTD SVG 1.1//EN"
 "http://www.w3.org/Graphics/SVG/1.1/DTD/svg11.dtd">
<!-- Generated by graphviz version 2.43.0 (0)
 -->
<!-- Title: boards/stm32f723e&#45;disco/include/periph_conf.h Pages: 1 -->
<svg width="546pt" height="162pt"
 viewBox="0.00 0.00 546.00 162.00" xmlns="http://www.w3.org/2000/svg" xmlns:xlink="http://www.w3.org/1999/xlink">
<g id="graph0" class="graph" transform="scale(1 1) rotate(0) translate(4 158)">
<title>boards/stm32f723e&#45;disco/include/periph_conf.h</title>
<!-- Node1 -->
<g id="node1" class="node">
<title>Node1</title>
<g id="a_node1"><a xlink:title="Peripheral MCU configuration for the STM32F723E&#45;DISCO board.">
<polygon fill="#bfbfbf" stroke="black" points="264,-123.5 264,-153.5 404,-153.5 404,-123.5 264,-123.5"/>
<text text-anchor="start" x="272" y="-141.5" font-family="Helvetica,sans-Serif" font-size="10.00">boards/stm32f723e&#45;disco</text>
<text text-anchor="middle" x="334" y="-130.5" font-family="Helvetica,sans-Serif" font-size="10.00">/include/periph_conf.h</text>
</a>
</g>
</g>
<!-- Node2 -->
<g id="node2" class="node">
<title>Node2</title>
<g id="a_node2"><a xlink:title=" ">
<polygon fill="none" stroke="#bfbfbf" points="409.5,-0.5 409.5,-19.5 488.5,-19.5 488.5,-0.5 409.5,-0.5"/>
<text text-anchor="middle" x="449" y="-7.5" font-family="Helvetica,sans-Serif" font-size="10.00">periph_cpu.h</text>
</a>
</g>
</g>
<!-- Node1&#45;&gt;Node2 -->
<g id="edge1" class="edge">
<title>Node1&#45;&gt;Node2</title>
<path fill="none" stroke="midnightblue" d="M324.49,-123.49C314,-106.1 300.41,-76.29 315,-56 334.03,-29.53 369.39,-18.42 399.01,-13.85"/>
<polygon fill="midnightblue" stroke="midnightblue" points="399.76,-17.28 409.21,-12.49 398.84,-10.34 399.76,-17.28"/>
</g>
<!-- Node3 -->
<g id="node3" class="node">
<title>Node3</title>
<g id="a_node3"><a xlink:href="cfg__clock__default__216_8h.html" target="_top" xlink:title="Default STM32F7 clock configuration for 216MHz boards.">
<polygon fill="none" stroke="black" points="134,-56.5 134,-86.5 268,-86.5 268,-56.5 134,-56.5"/>
<text text-anchor="start" x="142" y="-74.5" font-family="Helvetica,sans-Serif" font-size="10.00">f2f4f7/cfg_clock_default</text>
<text text-anchor="middle" x="201" y="-63.5" font-family="Helvetica,sans-Serif" font-size="10.00">_216.h</text>
</a>
</g>
</g>
<!-- Node1&#45;&gt;Node3 -->
<g id="edge2" class="edge">
<title>Node1&#45;&gt;Node3</title>
<path fill="none" stroke="midnightblue" d="M305.14,-123.4C285.71,-113.9 259.88,-101.28 238.81,-90.98"/>
<polygon fill="midnightblue" stroke="midnightblue" points="240.32,-87.82 229.8,-86.58 237.25,-94.11 240.32,-87.82"/>
</g>
<!-- Node6 -->
<g id="node6" class="node">
<title>Node6</title>
<g id="a_node6"><a xlink:title=" ">
<polygon fill="none" stroke="#bfbfbf" points="324.5,-62 324.5,-81 421.5,-81 421.5,-62 324.5,-62"/>
<text text-anchor="middle" x="373" y="-69" font-family="Helvetica,sans-Serif" font-size="10.00">cfg_rtt_default.h</text>
</a>
</g>
</g>
<!-- Node1&#45;&gt;Node6 -->
<g id="edge5" class="edge">
<title>Node1&#45;&gt;Node6</title>
<path fill="none" stroke="midnightblue" d="M342.46,-123.4C348.36,-113.56 356.27,-100.38 362.56,-89.89"/>
<polygon fill="midnightblue" stroke="midnightblue" points="365.64,-91.57 367.78,-81.19 359.64,-87.97 365.64,-91.57"/>
</g>
<!-- Node7 -->
<g id="node7" class="node">
<title>Node7</title>
<g id="a_node7"><a xlink:href="cfg__usb__otg__fs_8h.html" target="_top" xlink:title="Common configuration for STM32 OTG FS peripheral.">
<polygon fill="none" stroke="black" points="440,-62 440,-81 538,-81 538,-62 440,-62"/>
<text text-anchor="middle" x="489" y="-69" font-family="Helvetica,sans-Serif" font-size="10.00">cfg_usb_otg_fs.h</text>
</a>
</g>
</g>
<!-- Node1&#45;&gt;Node7 -->
<g id="edge6" class="edge">
<title>Node1&#45;&gt;Node7</title>
<path fill="none" stroke="midnightblue" d="M367.63,-123.4C394.95,-111.94 433.11,-95.94 459.31,-84.95"/>
<polygon fill="midnightblue" stroke="midnightblue" points="460.85,-88.1 468.71,-81.01 458.14,-81.65 460.85,-88.1"/>
</g>
<!-- Node4 -->
<g id="node4" class="node">
<title>Node4</title>
<g id="a_node4"><a xlink:href="f2f4f7_2cfg__clock__common_8h.html" target="_top" xlink:title="Base STM32F4 clock configuration.">
<polygon fill="none" stroke="black" points="0,-0.5 0,-19.5 152,-19.5 152,-0.5 0,-0.5"/>
<text text-anchor="middle" x="76" y="-7.5" font-family="Helvetica,sans-Serif" font-size="10.00">f2f4f7/cfg_clock_common.h</text>
</a>
</g>
</g>
<!-- Node3&#45;&gt;Node4 -->
<g id="edge3" class="edge">
<title>Node3&#45;&gt;Node4</title>
<path fill="none" stroke="midnightblue" d="M171.38,-56.4C150.78,-46.59 123.52,-33.62 103.42,-24.05"/>
<polygon fill="midnightblue" stroke="midnightblue" points="104.72,-20.8 94.19,-19.66 101.71,-27.12 104.72,-20.8"/>
</g>
<!-- Node5 -->
<g id="node5" class="node">
<title>Node5</title>
<g id="a_node5"><a xlink:href="f2f4f7_2cfg__clock__values_8h.html" target="_top" xlink:title="STM32F4 clock values definitions.">
<polygon fill="none" stroke="black" points="170.5,-0.5 170.5,-19.5 311.5,-19.5 311.5,-0.5 170.5,-0.5"/>
<text text-anchor="middle" x="241" y="-7.5" font-family="Helvetica,sans-Serif" font-size="10.00">f2f4f7/cfg_clock_values.h</text>
</a>
</g>
</g>
<!-- Node3&#45;&gt;Node5 -->
<g id="edge4" class="edge">
<title>Node3&#45;&gt;Node5</title>
<path fill="none" stroke="midnightblue" d="M210.48,-56.4C216.17,-47.93 223.45,-37.1 229.48,-28.14"/>
<polygon fill="midnightblue" stroke="midnightblue" points="232.51,-29.91 235.18,-19.66 226.7,-26 232.51,-29.91"/>
</g>
<!-- Node7&#45;&gt;Node2 -->
<g id="edge7" class="edge">
<title>Node7&#45;&gt;Node2</title>
<path fill="none" stroke="midnightblue" d="M483.27,-61.98C477.33,-53.14 467.88,-39.09 460.41,-27.98"/>
<polygon fill="midnightblue" stroke="midnightblue" points="463.2,-25.86 454.72,-19.51 457.39,-29.76 463.2,-25.86"/>
</g>
</g>
</svg>
