<?xml version="1.0" encoding="UTF-8" standalone="no"?>
<!DOCTYPE svg PUBLIC "-//W3C//DTD SVG 1.1//EN"
 "http://www.w3.org/Graphics/SVG/1.1/DTD/svg11.dtd">
<!-- Generated by graphviz version 2.43.0 (0)
 -->
<!-- Title: boards/nucleo&#45;f746zg/include/periph_conf.h Pages: 1 -->
<svg width="899pt" height="218pt"
 viewBox="0.00 0.00 898.50 218.00" xmlns="http://www.w3.org/2000/svg" xmlns:xlink="http://www.w3.org/1999/xlink">
<g id="graph0" class="graph" transform="scale(1 1) rotate(0) translate(4 214)">
<title>boards/nucleo&#45;f746zg/include/periph_conf.h</title>
<!-- Node1 -->
<g id="node1" class="node">
<title>Node1</title>
<g id="a_node1"><a xlink:title="Peripheral MCU configuration for the nucleo&#45;f746zg board.">
<polygon fill="#bfbfbf" stroke="black" points="394,-179.5 394,-209.5 517,-209.5 517,-179.5 394,-179.5"/>
<text text-anchor="start" x="402" y="-197.5" font-family="Helvetica,sans-Serif" font-size="10.00">boards/nucleo&#45;f746zg</text>
<text text-anchor="middle" x="455.5" y="-186.5" font-family="Helvetica,sans-Serif" font-size="10.00">/include/periph_conf.h</text>
</a>
</g>
</g>
<!-- Node2 -->
<g id="node2" class="node">
<title>Node2</title>
<g id="a_node2"><a xlink:title=" ">
<polygon fill="none" stroke="#bfbfbf" points="432,-56.5 432,-75.5 511,-75.5 511,-56.5 432,-56.5"/>
<text text-anchor="middle" x="471.5" y="-63.5" font-family="Helvetica,sans-Serif" font-size="10.00">periph_cpu.h</text>
</a>
</g>
</g>
<!-- Node1&#45;&gt;Node2 -->
<g id="edge1" class="edge">
<title>Node1&#45;&gt;Node2</title>
<path fill="none" stroke="midnightblue" d="M393.86,-188.22C325.11,-179.92 228.26,-159.54 266.5,-112 285.59,-88.26 367.21,-76.33 421.53,-70.92"/>
<polygon fill="midnightblue" stroke="midnightblue" points="422.04,-74.38 431.66,-69.95 421.38,-67.42 422.04,-74.38"/>
</g>
<!-- Node3 -->
<g id="node3" class="node">
<title>Node3</title>
<g id="a_node3"><a xlink:href="cfg__clock__default__216_8h.html" target="_top" xlink:title="Default STM32F7 clock configuration for 216MHz boards.">
<polygon fill="none" stroke="black" points="85.5,-112.5 85.5,-142.5 219.5,-142.5 219.5,-112.5 85.5,-112.5"/>
<text text-anchor="start" x="93.5" y="-130.5" font-family="Helvetica,sans-Serif" font-size="10.00">f2f4f7/cfg_clock_default</text>
<text text-anchor="middle" x="152.5" y="-119.5" font-family="Helvetica,sans-Serif" font-size="10.00">_216.h</text>
</a>
</g>
</g>
<!-- Node1&#45;&gt;Node3 -->
<g id="edge2" class="edge">
<title>Node1&#45;&gt;Node3</title>
<path fill="none" stroke="midnightblue" d="M393.82,-180.27C345.8,-169.97 278.95,-155.63 227.78,-144.65"/>
<polygon fill="midnightblue" stroke="midnightblue" points="228.27,-141.18 217.76,-142.5 226.81,-148.02 228.27,-141.18"/>
</g>
<!-- Node6 -->
<g id="node6" class="node">
<title>Node6</title>
<g id="a_node6"><a xlink:href="cfg__i2c1__pb8__pb9_8h.html" target="_top" xlink:title="Common configuration for STM32 I2C.">
<polygon fill="none" stroke="black" points="276,-118 276,-137 389,-137 389,-118 276,-118"/>
<text text-anchor="middle" x="332.5" y="-125" font-family="Helvetica,sans-Serif" font-size="10.00">cfg_i2c1_pb8_pb9.h</text>
</a>
</g>
</g>
<!-- Node1&#45;&gt;Node6 -->
<g id="edge5" class="edge">
<title>Node1&#45;&gt;Node6</title>
<path fill="none" stroke="midnightblue" d="M428.81,-179.4C407.61,-168.19 378.18,-152.64 357.45,-141.69"/>
<polygon fill="midnightblue" stroke="midnightblue" points="359.07,-138.58 348.6,-137.01 355.8,-144.77 359.07,-138.58"/>
</g>
<!-- Node7 -->
<g id="node7" class="node">
<title>Node7</title>
<g id="a_node7"><a xlink:title=" ">
<polygon fill="none" stroke="#bfbfbf" points="407,-118 407,-137 504,-137 504,-118 407,-118"/>
<text text-anchor="middle" x="455.5" y="-125" font-family="Helvetica,sans-Serif" font-size="10.00">cfg_rtt_default.h</text>
</a>
</g>
</g>
<!-- Node1&#45;&gt;Node7 -->
<g id="edge7" class="edge">
<title>Node1&#45;&gt;Node7</title>
<path fill="none" stroke="midnightblue" d="M455.5,-179.4C455.5,-170.06 455.5,-157.71 455.5,-147.52"/>
<polygon fill="midnightblue" stroke="midnightblue" points="459,-147.19 455.5,-137.19 452,-147.19 459,-147.19"/>
</g>
<!-- Node8 -->
<g id="node8" class="node">
<title>Node8</title>
<g id="a_node8"><a xlink:href="cfg__timer__tim2_8h.html" target="_top" xlink:title="Common configuration for STM32 Timer peripheral based on TIM2.">
<polygon fill="none" stroke="black" points="522.5,-118 522.5,-137 622.5,-137 622.5,-118 522.5,-118"/>
<text text-anchor="middle" x="572.5" y="-125" font-family="Helvetica,sans-Serif" font-size="10.00">cfg_timer_tim2.h</text>
</a>
</g>
</g>
<!-- Node1&#45;&gt;Node8 -->
<g id="edge8" class="edge">
<title>Node1&#45;&gt;Node8</title>
<path fill="none" stroke="midnightblue" d="M480.89,-179.4C500.87,-168.29 528.54,-152.92 548.23,-141.98"/>
<polygon fill="midnightblue" stroke="midnightblue" points="550.15,-144.92 557.19,-137.01 546.75,-138.8 550.15,-144.92"/>
</g>
<!-- Node9 -->
<g id="node9" class="node">
<title>Node9</title>
<g id="a_node9"><a xlink:href="cfg__usb__otg__fs_8h.html" target="_top" xlink:title="Common configuration for STM32 OTG FS peripheral.">
<polygon fill="none" stroke="black" points="640.5,-118 640.5,-137 738.5,-137 738.5,-118 640.5,-118"/>
<text text-anchor="middle" x="689.5" y="-125" font-family="Helvetica,sans-Serif" font-size="10.00">cfg_usb_otg_fs.h</text>
</a>
</g>
</g>
<!-- Node1&#45;&gt;Node9 -->
<g id="edge10" class="edge">
<title>Node1&#45;&gt;Node9</title>
<path fill="none" stroke="midnightblue" d="M505.99,-179.48C548.75,-167.6 609.27,-150.79 648.94,-139.77"/>
<polygon fill="midnightblue" stroke="midnightblue" points="650.1,-143.08 658.8,-137.03 648.22,-136.33 650.1,-143.08"/>
</g>
<!-- Node10 -->
<g id="node10" class="node">
<title>Node10</title>
<g id="a_node10"><a xlink:href="mii_8h.html" target="_top" xlink:title="Interface definition for MII/RMII h.">
<polygon fill="none" stroke="black" points="757,-118 757,-137 798,-137 798,-118 757,-118"/>
<text text-anchor="middle" x="777.5" y="-125" font-family="Helvetica,sans-Serif" font-size="10.00">mii.h</text>
</a>
</g>
</g>
<!-- Node1&#45;&gt;Node10 -->
<g id="edge12" class="edge">
<title>Node1&#45;&gt;Node10</title>
<path fill="none" stroke="midnightblue" d="M517.09,-187.89C577.02,-181.27 670.11,-167.85 747.5,-143 749.17,-142.46 750.86,-141.85 752.54,-141.19"/>
<polygon fill="midnightblue" stroke="midnightblue" points="754.23,-144.27 761.96,-137.03 751.4,-137.87 754.23,-144.27"/>
</g>
<!-- Node4 -->
<g id="node4" class="node">
<title>Node4</title>
<g id="a_node4"><a xlink:href="f2f4f7_2cfg__clock__common_8h.html" target="_top" xlink:title="Base STM32F4 clock configuration.">
<polygon fill="none" stroke="black" points="159.5,-56.5 159.5,-75.5 311.5,-75.5 311.5,-56.5 159.5,-56.5"/>
<text text-anchor="middle" x="235.5" y="-63.5" font-family="Helvetica,sans-Serif" font-size="10.00">f2f4f7/cfg_clock_common.h</text>
</a>
</g>
</g>
<!-- Node3&#45;&gt;Node4 -->
<g id="edge3" class="edge">
<title>Node3&#45;&gt;Node4</title>
<path fill="none" stroke="midnightblue" d="M172.17,-112.4C185.1,-103.13 201.99,-91.03 215.07,-81.65"/>
<polygon fill="midnightblue" stroke="midnightblue" points="217.33,-84.33 223.42,-75.66 213.26,-78.64 217.33,-84.33"/>
</g>
<!-- Node5 -->
<g id="node5" class="node">
<title>Node5</title>
<g id="a_node5"><a xlink:href="f2f4f7_2cfg__clock__values_8h.html" target="_top" xlink:title="STM32F4 clock values definitions.">
<polygon fill="none" stroke="black" points="0,-56.5 0,-75.5 141,-75.5 141,-56.5 0,-56.5"/>
<text text-anchor="middle" x="70.5" y="-63.5" font-family="Helvetica,sans-Serif" font-size="10.00">f2f4f7/cfg_clock_values.h</text>
</a>
</g>
</g>
<!-- Node3&#45;&gt;Node5 -->
<g id="edge4" class="edge">
<title>Node3&#45;&gt;Node5</title>
<path fill="none" stroke="midnightblue" d="M133.07,-112.4C120.29,-103.13 103.61,-91.03 90.69,-81.65"/>
<polygon fill="midnightblue" stroke="midnightblue" points="92.58,-78.7 82.43,-75.66 88.47,-84.36 92.58,-78.7"/>
</g>
<!-- Node6&#45;&gt;Node2 -->
<g id="edge6" class="edge">
<title>Node6&#45;&gt;Node2</title>
<path fill="none" stroke="midnightblue" d="M352.42,-117.98C375.95,-107.9 415.31,-91.05 442.29,-79.5"/>
<polygon fill="midnightblue" stroke="midnightblue" points="443.81,-82.66 451.62,-75.51 441.05,-76.23 443.81,-82.66"/>
</g>
<!-- Node8&#45;&gt;Node2 -->
<g id="edge9" class="edge">
<title>Node8&#45;&gt;Node2</title>
<path fill="none" stroke="midnightblue" d="M558.03,-117.98C541.53,-108.25 514.32,-92.23 494.82,-80.74"/>
<polygon fill="midnightblue" stroke="midnightblue" points="496.34,-77.57 485.94,-75.51 492.78,-83.6 496.34,-77.57"/>
</g>
<!-- Node9&#45;&gt;Node2 -->
<g id="edge11" class="edge">
<title>Node9&#45;&gt;Node2</title>
<path fill="none" stroke="midnightblue" d="M658.27,-117.98C619.9,-107.5 554.71,-89.71 512.39,-78.16"/>
<polygon fill="midnightblue" stroke="midnightblue" points="513.24,-74.77 502.68,-75.51 511.4,-81.52 513.24,-74.77"/>
</g>
<!-- Node11 -->
<g id="node11" class="node">
<title>Node11</title>
<g id="a_node11"><a xlink:title=" ">
<polygon fill="none" stroke="#bfbfbf" points="687.5,-56.5 687.5,-75.5 749.5,-75.5 749.5,-56.5 687.5,-56.5"/>
<text text-anchor="middle" x="718.5" y="-63.5" font-family="Helvetica,sans-Serif" font-size="10.00">stdbool.h</text>
</a>
</g>
</g>
<!-- Node10&#45;&gt;Node11 -->
<g id="edge13" class="edge">
<title>Node10&#45;&gt;Node11</title>
<path fill="none" stroke="midnightblue" d="M769.05,-117.98C759.93,-108.78 745.23,-93.96 734.02,-82.66"/>
<polygon fill="midnightblue" stroke="midnightblue" points="736.46,-80.15 726.94,-75.51 731.49,-85.07 736.46,-80.15"/>
</g>
<!-- Node12 -->
<g id="node12" class="node">
<title>Node12</title>
<g id="a_node12"><a xlink:title=" ">
<polygon fill="none" stroke="#bfbfbf" points="751,-0.5 751,-19.5 804,-19.5 804,-0.5 751,-0.5"/>
<text text-anchor="middle" x="777.5" y="-7.5" font-family="Helvetica,sans-Serif" font-size="10.00">stdint.h</text>
</a>
</g>
</g>
<!-- Node10&#45;&gt;Node12 -->
<g id="edge14" class="edge">
<title>Node10&#45;&gt;Node12</title>
<path fill="none" stroke="midnightblue" d="M777.5,-117.82C777.5,-99.26 777.5,-55.34 777.5,-29.97"/>
<polygon fill="midnightblue" stroke="midnightblue" points="781,-29.78 777.5,-19.78 774,-29.78 781,-29.78"/>
</g>
<!-- Node13 -->
<g id="node13" class="node">
<title>Node13</title>
<g id="a_node13"><a xlink:href="bitarithm_8h.html" target="_top" xlink:title="Helper functions for bit arithmetic.">
<polygon fill="none" stroke="black" points="806,-56.5 806,-75.5 877,-75.5 877,-56.5 806,-56.5"/>
<text text-anchor="middle" x="841.5" y="-63.5" font-family="Helvetica,sans-Serif" font-size="10.00">bitarithm.h</text>
</a>
</g>
</g>
<!-- Node10&#45;&gt;Node13 -->
<g id="edge15" class="edge">
<title>Node10&#45;&gt;Node13</title>
<path fill="none" stroke="midnightblue" d="M786.67,-117.98C796.65,-108.7 812.81,-93.67 825.01,-82.33"/>
<polygon fill="midnightblue" stroke="midnightblue" points="827.41,-84.88 832.35,-75.51 822.64,-79.75 827.41,-84.88"/>
</g>
<!-- Node13&#45;&gt;Node12 -->
<g id="edge16" class="edge">
<title>Node13&#45;&gt;Node12</title>
<path fill="none" stroke="midnightblue" d="M831.22,-56.32C821.66,-48.26 807.22,-36.08 795.72,-26.37"/>
<polygon fill="midnightblue" stroke="midnightblue" points="797.87,-23.61 787.97,-19.83 793.36,-28.96 797.87,-23.61"/>
</g>
<!-- Node14 -->
<g id="node14" class="node">
<title>Node14</title>
<g id="a_node14"><a xlink:title=" ">
<polygon fill="none" stroke="#bfbfbf" points="822.5,-0.5 822.5,-19.5 890.5,-19.5 890.5,-0.5 822.5,-0.5"/>
<text text-anchor="middle" x="856.5" y="-7.5" font-family="Helvetica,sans-Serif" font-size="10.00">cpu_conf.h</text>
</a>
</g>
</g>
<!-- Node13&#45;&gt;Node14 -->
<g id="edge17" class="edge">
<title>Node13&#45;&gt;Node14</title>
<path fill="none" stroke="midnightblue" d="M843.98,-56.08C845.99,-48.85 848.89,-38.41 851.39,-29.4"/>
<polygon fill="midnightblue" stroke="midnightblue" points="854.76,-30.32 854.07,-19.75 848.02,-28.45 854.76,-30.32"/>
</g>
</g>
</svg>
