<?xml version="1.0" encoding="UTF-8" standalone="no"?>
<!DOCTYPE svg PUBLIC "-//W3C//DTD SVG 1.1//EN"
 "http://www.w3.org/Graphics/SVG/1.1/DTD/svg11.dtd">
<!-- Generated by graphviz version 2.43.0 (0)
 -->
<!-- Title: boards/remote&#45;reva/include/periph_conf.h Pages: 1 -->
<svg width="723pt" height="151pt"
 viewBox="0.00 0.00 723.00 151.00" xmlns="http://www.w3.org/2000/svg" xmlns:xlink="http://www.w3.org/1999/xlink">
<g id="graph0" class="graph" transform="scale(1 1) rotate(0) translate(4 147)">
<title>boards/remote&#45;reva/include/periph_conf.h</title>
<!-- Node1 -->
<g id="node1" class="node">
<title>Node1</title>
<g id="a_node1"><a xlink:title="Peripheral MCU configuration for the RE&#45;Mote board revision A.">
<polygon fill="#bfbfbf" stroke="black" points="292,-112.5 292,-142.5 415,-142.5 415,-112.5 292,-112.5"/>
<text text-anchor="start" x="300" y="-130.5" font-family="Helvetica,sans-Serif" font-size="10.00">boards/remote&#45;reva</text>
<text text-anchor="middle" x="353.5" y="-119.5" font-family="Helvetica,sans-Serif" font-size="10.00">/include/periph_conf.h</text>
</a>
</g>
</g>
<!-- Node2 -->
<g id="node2" class="node">
<title>Node2</title>
<g id="a_node2"><a xlink:href="cfg__adc__default_8h.html" target="_top" xlink:title="Common default ADC configuration for the RE&#45;Mote board revision A.">
<polygon fill="none" stroke="black" points="123,-56.5 123,-75.5 226,-75.5 226,-56.5 123,-56.5"/>
<text text-anchor="middle" x="174.5" y="-63.5" font-family="Helvetica,sans-Serif" font-size="10.00">cfg_adc_default.h</text>
</a>
</g>
</g>
<!-- Node1&#45;&gt;Node2 -->
<g id="edge1" class="edge">
<title>Node1&#45;&gt;Node2</title>
<path fill="none" stroke="midnightblue" d="M311.08,-112.4C280.28,-102.16 239.09,-88.47 210.02,-78.81"/>
<polygon fill="midnightblue" stroke="midnightblue" points="210.88,-75.4 200.28,-75.57 208.67,-82.05 210.88,-75.4"/>
</g>
<!-- Node4 -->
<g id="node4" class="node">
<title>Node4</title>
<g id="a_node4"><a xlink:href="cfg__clk__default_8h.html" target="_top" xlink:title="Default clock configuration for cc2538 based boards.">
<polygon fill="none" stroke="black" points="610.5,-56.5 610.5,-75.5 710.5,-75.5 710.5,-56.5 610.5,-56.5"/>
<text text-anchor="middle" x="660.5" y="-63.5" font-family="Helvetica,sans-Serif" font-size="10.00">cfg_clk_default.h</text>
</a>
</g>
</g>
<!-- Node1&#45;&gt;Node4 -->
<g id="edge3" class="edge">
<title>Node1&#45;&gt;Node4</title>
<path fill="none" stroke="midnightblue" d="M415.26,-114.53C471.18,-103.69 552.78,-87.88 606.25,-77.51"/>
<polygon fill="midnightblue" stroke="midnightblue" points="607.07,-80.92 616.22,-75.58 605.74,-74.05 607.07,-80.92"/>
</g>
<!-- Node7 -->
<g id="node7" class="node">
<title>Node7</title>
<g id="a_node7"><a xlink:title=" ">
<polygon fill="none" stroke="#bfbfbf" points="244.5,-56.5 244.5,-75.5 344.5,-75.5 344.5,-56.5 244.5,-56.5"/>
<text text-anchor="middle" x="294.5" y="-63.5" font-family="Helvetica,sans-Serif" font-size="10.00">cfg_i2c_default.h</text>
</a>
</g>
</g>
<!-- Node1&#45;&gt;Node7 -->
<g id="edge7" class="edge">
<title>Node1&#45;&gt;Node7</title>
<path fill="none" stroke="midnightblue" d="M339.52,-112.4C330.77,-103.58 319.47,-92.18 310.38,-83.02"/>
<polygon fill="midnightblue" stroke="midnightblue" points="312.61,-80.29 303.09,-75.66 307.64,-85.22 312.61,-80.29"/>
</g>
<!-- Node8 -->
<g id="node8" class="node">
<title>Node8</title>
<g id="a_node8"><a xlink:title=" ">
<polygon fill="none" stroke="#bfbfbf" points="362.5,-56.5 362.5,-75.5 462.5,-75.5 462.5,-56.5 362.5,-56.5"/>
<text text-anchor="middle" x="412.5" y="-63.5" font-family="Helvetica,sans-Serif" font-size="10.00">cfg_spi_default.h</text>
</a>
</g>
</g>
<!-- Node1&#45;&gt;Node8 -->
<g id="edge8" class="edge">
<title>Node1&#45;&gt;Node8</title>
<path fill="none" stroke="midnightblue" d="M367.48,-112.4C376.23,-103.58 387.53,-92.18 396.62,-83.02"/>
<polygon fill="midnightblue" stroke="midnightblue" points="399.36,-85.22 403.91,-75.66 394.39,-80.29 399.36,-85.22"/>
</g>
<!-- Node9 -->
<g id="node9" class="node">
<title>Node9</title>
<g id="a_node9"><a xlink:title=" ">
<polygon fill="none" stroke="#bfbfbf" points="480.5,-56.5 480.5,-75.5 592.5,-75.5 592.5,-56.5 480.5,-56.5"/>
<text text-anchor="middle" x="536.5" y="-63.5" font-family="Helvetica,sans-Serif" font-size="10.00">cfg_timer_default.h</text>
</a>
</g>
</g>
<!-- Node1&#45;&gt;Node9 -->
<g id="edge9" class="edge">
<title>Node1&#45;&gt;Node9</title>
<path fill="none" stroke="midnightblue" d="M396.87,-112.4C428.49,-102.12 470.83,-88.35 500.57,-78.68"/>
<polygon fill="midnightblue" stroke="midnightblue" points="501.71,-81.99 510.14,-75.57 499.55,-75.33 501.71,-81.99"/>
</g>
<!-- Node10 -->
<g id="node10" class="node">
<title>Node10</title>
<g id="a_node10"><a xlink:href="cfg__uart__default_8h.html" target="_top" xlink:title="Common default UART configuration for the RE&#45;Mote board revision A.">
<polygon fill="none" stroke="black" points="0,-56.5 0,-75.5 105,-75.5 105,-56.5 0,-56.5"/>
<text text-anchor="middle" x="52.5" y="-63.5" font-family="Helvetica,sans-Serif" font-size="10.00">cfg_uart_default.h</text>
</a>
</g>
</g>
<!-- Node1&#45;&gt;Node10 -->
<g id="edge10" class="edge">
<title>Node1&#45;&gt;Node10</title>
<path fill="none" stroke="midnightblue" d="M291.86,-114.32C237.04,-103.48 157.7,-87.8 105.63,-77.5"/>
<polygon fill="midnightblue" stroke="midnightblue" points="106.08,-74.02 95.59,-75.52 104.72,-80.89 106.08,-74.02"/>
</g>
<!-- Node3 -->
<g id="node3" class="node">
<title>Node3</title>
<g id="a_node3"><a xlink:title=" ">
<polygon fill="none" stroke="#bfbfbf" points="135,-0.5 135,-19.5 214,-19.5 214,-0.5 135,-0.5"/>
<text text-anchor="middle" x="174.5" y="-7.5" font-family="Helvetica,sans-Serif" font-size="10.00">periph_cpu.h</text>
</a>
</g>
</g>
<!-- Node2&#45;&gt;Node3 -->
<g id="edge2" class="edge">
<title>Node2&#45;&gt;Node3</title>
<path fill="none" stroke="midnightblue" d="M174.5,-56.08C174.5,-49.01 174.5,-38.86 174.5,-29.99"/>
<polygon fill="midnightblue" stroke="midnightblue" points="178,-29.75 174.5,-19.75 171,-29.75 178,-29.75"/>
</g>
<!-- Node4&#45;&gt;Node3 -->
<g id="edge6" class="edge">
<title>Node4&#45;&gt;Node3</title>
<path fill="none" stroke="midnightblue" d="M610.31,-57.18C607.33,-56.77 604.38,-56.37 601.5,-56 465.3,-38.44 303.99,-22.85 224.25,-15.49"/>
<polygon fill="midnightblue" stroke="midnightblue" points="224.29,-11.98 214.01,-14.55 223.65,-18.95 224.29,-11.98"/>
</g>
<!-- Node5 -->
<g id="node5" class="node">
<title>Node5</title>
<g id="a_node5"><a xlink:title=" ">
<polygon fill="none" stroke="#bfbfbf" points="601,-0.5 601,-19.5 654,-19.5 654,-0.5 601,-0.5"/>
<text text-anchor="middle" x="627.5" y="-7.5" font-family="Helvetica,sans-Serif" font-size="10.00">stdint.h</text>
</a>
</g>
</g>
<!-- Node4&#45;&gt;Node5 -->
<g id="edge4" class="edge">
<title>Node4&#45;&gt;Node5</title>
<path fill="none" stroke="midnightblue" d="M655.05,-56.08C650.49,-48.61 643.83,-37.72 638.21,-28.52"/>
<polygon fill="midnightblue" stroke="midnightblue" points="641.05,-26.46 632.85,-19.75 635.08,-30.11 641.05,-26.46"/>
</g>
<!-- Node6 -->
<g id="node6" class="node">
<title>Node6</title>
<g id="a_node6"><a xlink:title=" ">
<polygon fill="none" stroke="#bfbfbf" points="672,-0.5 672,-19.5 715,-19.5 715,-0.5 672,-0.5"/>
<text text-anchor="middle" x="693.5" y="-7.5" font-family="Helvetica,sans-Serif" font-size="10.00">cpu.h</text>
</a>
</g>
</g>
<!-- Node4&#45;&gt;Node6 -->
<g id="edge5" class="edge">
<title>Node4&#45;&gt;Node6</title>
<path fill="none" stroke="midnightblue" d="M665.95,-56.08C670.51,-48.61 677.17,-37.72 682.79,-28.52"/>
<polygon fill="midnightblue" stroke="midnightblue" points="685.92,-30.11 688.15,-19.75 679.95,-26.46 685.92,-30.11"/>
</g>
<!-- Node10&#45;&gt;Node3 -->
<g id="edge11" class="edge">
<title>Node10&#45;&gt;Node3</title>
<path fill="none" stroke="midnightblue" d="M71.83,-56.44C91.82,-47.6 123.24,-33.69 146.06,-23.59"/>
<polygon fill="midnightblue" stroke="midnightblue" points="147.53,-26.76 155.26,-19.52 144.7,-20.36 147.53,-26.76"/>
</g>
</g>
</svg>
