<?xml version="1.0" encoding="UTF-8" standalone="no"?>
<!DOCTYPE svg PUBLIC "-//W3C//DTD SVG 1.1//EN"
 "http://www.w3.org/Graphics/SVG/1.1/DTD/svg11.dtd">
<!-- Generated by graphviz version 2.43.0 (0)
 -->
<!-- Title: boards/sodaq&#45;explorer/include/periph_conf.h Pages: 1 -->
<svg width="753pt" height="151pt"
 viewBox="0.00 0.00 752.84 151.00" xmlns="http://www.w3.org/2000/svg" xmlns:xlink="http://www.w3.org/1999/xlink">
<g id="graph0" class="graph" transform="scale(1 1) rotate(0) translate(4 147)">
<title>boards/sodaq&#45;explorer/include/periph_conf.h</title>
<!-- Node1 -->
<g id="node1" class="node">
<title>Node1</title>
<g id="a_node1"><a xlink:title="Configuration of CPU peripherals for the Sodaq LoRaWAN Explorer board.">
<polygon fill="#bfbfbf" stroke="black" points="262.84,-112.5 262.84,-142.5 388.84,-142.5 388.84,-112.5 262.84,-112.5"/>
<text text-anchor="start" x="270.84" y="-130.5" font-family="Helvetica,sans-Serif" font-size="10.00">boards/sodaq&#45;explorer</text>
<text text-anchor="middle" x="325.84" y="-119.5" font-family="Helvetica,sans-Serif" font-size="10.00">/include/periph_conf.h</text>
</a>
</g>
</g>
<!-- Node2 -->
<g id="node2" class="node">
<title>Node2</title>
<g id="a_node2"><a xlink:title=" ">
<polygon fill="none" stroke="#bfbfbf" points="18.34,-0.5 18.34,-19.5 97.34,-19.5 97.34,-0.5 18.34,-0.5"/>
<text text-anchor="middle" x="57.84" y="-7.5" font-family="Helvetica,sans-Serif" font-size="10.00">periph_cpu.h</text>
</a>
</g>
</g>
<!-- Node1&#45;&gt;Node2 -->
<g id="edge1" class="edge">
<title>Node1&#45;&gt;Node2</title>
<path fill="none" stroke="midnightblue" d="M262.62,-125.89C178.71,-123.59 37.33,-114 4.84,-76 -10,-58.65 13.22,-38.17 33.44,-24.9"/>
<polygon fill="midnightblue" stroke="midnightblue" points="35.45,-27.77 42.09,-19.52 31.75,-21.83 35.45,-27.77"/>
</g>
<!-- Node3 -->
<g id="node3" class="node">
<title>Node3</title>
<g id="a_node3"><a xlink:title=" ">
<polygon fill="none" stroke="#bfbfbf" points="270.34,-56.5 270.34,-75.5 381.34,-75.5 381.34,-56.5 270.34,-56.5"/>
<text text-anchor="middle" x="325.84" y="-63.5" font-family="Helvetica,sans-Serif" font-size="10.00">cfg_clock_default.h</text>
</a>
</g>
</g>
<!-- Node1&#45;&gt;Node3 -->
<g id="edge2" class="edge">
<title>Node1&#45;&gt;Node3</title>
<path fill="none" stroke="midnightblue" d="M325.84,-112.4C325.84,-104.47 325.84,-94.46 325.84,-85.86"/>
<polygon fill="midnightblue" stroke="midnightblue" points="329.34,-85.66 325.84,-75.66 322.34,-85.66 329.34,-85.66"/>
</g>
<!-- Node4 -->
<g id="node4" class="node">
<title>Node4</title>
<g id="a_node4"><a xlink:href="cfg__rtc__default_8h.html" target="_top" xlink:title="Default RTC configuration for SODAQ boards.">
<polygon fill="none" stroke="black" points="153.84,-56.5 153.84,-75.5 251.84,-75.5 251.84,-56.5 153.84,-56.5"/>
<text text-anchor="middle" x="202.84" y="-63.5" font-family="Helvetica,sans-Serif" font-size="10.00">cfg_rtc_default.h</text>
</a>
</g>
</g>
<!-- Node1&#45;&gt;Node4 -->
<g id="edge3" class="edge">
<title>Node1&#45;&gt;Node4</title>
<path fill="none" stroke="midnightblue" d="M296.69,-112.4C276.42,-102.59 249.6,-89.62 229.82,-80.05"/>
<polygon fill="midnightblue" stroke="midnightblue" points="231.26,-76.86 220.73,-75.66 228.21,-83.16 231.26,-76.86"/>
</g>
<!-- Node7 -->
<g id="node7" class="node">
<title>Node7</title>
<g id="a_node7"><a xlink:title=" ">
<polygon fill="none" stroke="#bfbfbf" points="399.34,-56.5 399.34,-75.5 496.34,-75.5 496.34,-56.5 399.34,-56.5"/>
<text text-anchor="middle" x="447.84" y="-63.5" font-family="Helvetica,sans-Serif" font-size="10.00">cfg_rtt_default.h</text>
</a>
</g>
</g>
<!-- Node1&#45;&gt;Node7 -->
<g id="edge7" class="edge">
<title>Node1&#45;&gt;Node7</title>
<path fill="none" stroke="midnightblue" d="M354.75,-112.4C374.85,-102.59 401.46,-89.62 421.07,-80.05"/>
<polygon fill="midnightblue" stroke="midnightblue" points="422.63,-83.19 430.08,-75.66 419.56,-76.9 422.63,-83.19"/>
</g>
<!-- Node8 -->
<g id="node8" class="node">
<title>Node8</title>
<g id="a_node8"><a xlink:title=" ">
<polygon fill="none" stroke="#bfbfbf" points="514.84,-56.5 514.84,-75.5 614.84,-75.5 614.84,-56.5 514.84,-56.5"/>
<text text-anchor="middle" x="564.84" y="-63.5" font-family="Helvetica,sans-Serif" font-size="10.00">cfg_spi_default.h</text>
</a>
</g>
</g>
<!-- Node1&#45;&gt;Node8 -->
<g id="edge8" class="edge">
<title>Node1&#45;&gt;Node8</title>
<path fill="none" stroke="midnightblue" d="M382.17,-112.47C424.49,-101.94 481.63,-87.72 520.66,-78"/>
<polygon fill="midnightblue" stroke="midnightblue" points="521.81,-81.32 530.67,-75.51 520.12,-74.53 521.81,-81.32"/>
</g>
<!-- Node9 -->
<g id="node9" class="node">
<title>Node9</title>
<g id="a_node9"><a xlink:title=" ">
<polygon fill="none" stroke="#bfbfbf" points="632.84,-56.5 632.84,-75.5 744.84,-75.5 744.84,-56.5 632.84,-56.5"/>
<text text-anchor="middle" x="688.84" y="-63.5" font-family="Helvetica,sans-Serif" font-size="10.00">cfg_timer_default.h</text>
</a>
</g>
</g>
<!-- Node1&#45;&gt;Node9 -->
<g id="edge9" class="edge">
<title>Node1&#45;&gt;Node9</title>
<path fill="none" stroke="midnightblue" d="M389.07,-116.14C455.92,-105.18 560.68,-88.01 627,-77.14"/>
<polygon fill="midnightblue" stroke="midnightblue" points="627.6,-80.58 636.9,-75.51 626.47,-73.68 627.6,-80.58"/>
</g>
<!-- Node10 -->
<g id="node10" class="node">
<title>Node10</title>
<g id="a_node10"><a xlink:href="cfg__usbdev__default_8h.html" target="_top" xlink:title="Default usbdev configuration for SODAQ boards.">
<polygon fill="none" stroke="black" points="14.34,-56.5 14.34,-75.5 135.34,-75.5 135.34,-56.5 14.34,-56.5"/>
<text text-anchor="middle" x="74.84" y="-63.5" font-family="Helvetica,sans-Serif" font-size="10.00">cfg_usbdev_default.h</text>
</a>
</g>
</g>
<!-- Node1&#45;&gt;Node10 -->
<g id="edge10" class="edge">
<title>Node1&#45;&gt;Node10</title>
<path fill="none" stroke="midnightblue" d="M266.67,-112.47C222.04,-101.9 161.71,-87.59 120.71,-77.87"/>
<polygon fill="midnightblue" stroke="midnightblue" points="121.26,-74.41 110.72,-75.51 119.64,-81.22 121.26,-74.41"/>
</g>
<!-- Node4&#45;&gt;Node2 -->
<g id="edge6" class="edge">
<title>Node4&#45;&gt;Node2</title>
<path fill="none" stroke="midnightblue" d="M179.86,-56.44C155.68,-47.44 117.42,-33.19 90.19,-23.05"/>
<polygon fill="midnightblue" stroke="midnightblue" points="91.3,-19.73 80.7,-19.52 88.85,-26.29 91.3,-19.73"/>
</g>
<!-- Node5 -->
<g id="node5" class="node">
<title>Node5</title>
<g id="a_node5"><a xlink:title=" ">
<polygon fill="none" stroke="#bfbfbf" points="176.34,-0.5 176.34,-19.5 229.34,-19.5 229.34,-0.5 176.34,-0.5"/>
<text text-anchor="middle" x="202.84" y="-7.5" font-family="Helvetica,sans-Serif" font-size="10.00">stdint.h</text>
</a>
</g>
</g>
<!-- Node4&#45;&gt;Node5 -->
<g id="edge4" class="edge">
<title>Node4&#45;&gt;Node5</title>
<path fill="none" stroke="midnightblue" d="M202.84,-56.08C202.84,-49.01 202.84,-38.86 202.84,-29.99"/>
<polygon fill="midnightblue" stroke="midnightblue" points="206.34,-29.75 202.84,-19.75 199.34,-29.75 206.34,-29.75"/>
</g>
<!-- Node6 -->
<g id="node6" class="node">
<title>Node6</title>
<g id="a_node6"><a xlink:title=" ">
<polygon fill="none" stroke="#bfbfbf" points="115.34,-0.5 115.34,-19.5 158.34,-19.5 158.34,-0.5 115.34,-0.5"/>
<text text-anchor="middle" x="136.84" y="-7.5" font-family="Helvetica,sans-Serif" font-size="10.00">cpu.h</text>
</a>
</g>
</g>
<!-- Node4&#45;&gt;Node6 -->
<g id="edge5" class="edge">
<title>Node4&#45;&gt;Node6</title>
<path fill="none" stroke="midnightblue" d="M192.23,-56.32C182.38,-48.26 167.49,-36.08 155.62,-26.37"/>
<polygon fill="midnightblue" stroke="midnightblue" points="157.59,-23.46 147.63,-19.83 153.16,-28.88 157.59,-23.46"/>
</g>
<!-- Node10&#45;&gt;Node2 -->
<g id="edge13" class="edge">
<title>Node10&#45;&gt;Node2</title>
<path fill="none" stroke="midnightblue" d="M72.03,-56.08C69.75,-48.85 66.46,-38.41 63.63,-29.4"/>
<polygon fill="midnightblue" stroke="midnightblue" points="66.93,-28.24 60.59,-19.75 60.26,-30.34 66.93,-28.24"/>
</g>
<!-- Node10&#45;&gt;Node5 -->
<g id="edge11" class="edge">
<title>Node10&#45;&gt;Node5</title>
<path fill="none" stroke="midnightblue" d="M95.12,-56.44C116.18,-47.56 149.35,-33.56 173.32,-23.45"/>
<polygon fill="midnightblue" stroke="midnightblue" points="174.8,-26.63 182.65,-19.52 172.08,-20.18 174.8,-26.63"/>
</g>
<!-- Node10&#45;&gt;Node6 -->
<g id="edge12" class="edge">
<title>Node10&#45;&gt;Node6</title>
<path fill="none" stroke="midnightblue" d="M84.8,-56.32C93.96,-48.34 107.77,-36.31 118.86,-26.65"/>
<polygon fill="midnightblue" stroke="midnightblue" points="121.45,-29.04 126.69,-19.83 116.85,-23.76 121.45,-29.04"/>
</g>
</g>
</svg>
