<?xml version="1.0" encoding="UTF-8" standalone="no"?>
<!DOCTYPE svg PUBLIC "-//W3C//DTD SVG 1.1//EN"
 "http://www.w3.org/Graphics/SVG/1.1/DTD/svg11.dtd">
<!-- Generated by graphviz version 2.43.0 (0)
 -->
<!-- Title: boards/firefly/include/periph_conf.h Pages: 1 -->
<svg width="605pt" height="151pt"
 viewBox="0.00 0.00 605.00 151.00" xmlns="http://www.w3.org/2000/svg" xmlns:xlink="http://www.w3.org/1999/xlink">
<g id="graph0" class="graph" transform="scale(1 1) rotate(0) translate(4 147)">
<title>boards/firefly/include/periph_conf.h</title>
<!-- Node1 -->
<g id="node1" class="node">
<title>Node1</title>
<g id="a_node1"><a xlink:title="Peripheral MCU configuration for the Firefly board revision A.">
<polygon fill="#bfbfbf" stroke="black" points="234.5,-112.5 234.5,-142.5 354.5,-142.5 354.5,-112.5 234.5,-112.5"/>
<text text-anchor="start" x="242.5" y="-130.5" font-family="Helvetica,sans-Serif" font-size="10.00">boards/firefly/include</text>
<text text-anchor="middle" x="294.5" y="-119.5" font-family="Helvetica,sans-Serif" font-size="10.00">/periph_conf.h</text>
</a>
</g>
</g>
<!-- Node2 -->
<g id="node2" class="node">
<title>Node2</title>
<g id="a_node2"><a xlink:href="cfg__adc__default_8h.html" target="_top" xlink:title="Common default ADC configuration for the RE&#45;Mote board revision A.">
<polygon fill="none" stroke="black" points="0,-56.5 0,-75.5 103,-75.5 103,-56.5 0,-56.5"/>
<text text-anchor="middle" x="51.5" y="-63.5" font-family="Helvetica,sans-Serif" font-size="10.00">cfg_adc_default.h</text>
</a>
</g>
</g>
<!-- Node1&#45;&gt;Node2 -->
<g id="edge1" class="edge">
<title>Node1&#45;&gt;Node2</title>
<path fill="none" stroke="midnightblue" d="M237.22,-112.47C194.11,-101.92 135.86,-87.66 96.16,-77.94"/>
<polygon fill="midnightblue" stroke="midnightblue" points="96.79,-74.49 86.24,-75.51 95.12,-81.28 96.79,-74.49"/>
</g>
<!-- Node4 -->
<g id="node4" class="node">
<title>Node4</title>
<g id="a_node4"><a xlink:href="cfg__clk__default_8h.html" target="_top" xlink:title="Default clock configuration for cc2538 based boards.">
<polygon fill="none" stroke="black" points="492.5,-56.5 492.5,-75.5 592.5,-75.5 592.5,-56.5 492.5,-56.5"/>
<text text-anchor="middle" x="542.5" y="-63.5" font-family="Helvetica,sans-Serif" font-size="10.00">cfg_clk_default.h</text>
</a>
</g>
</g>
<!-- Node1&#45;&gt;Node4 -->
<g id="edge3" class="edge">
<title>Node1&#45;&gt;Node4</title>
<path fill="none" stroke="midnightblue" d="M352.96,-112.47C397.05,-101.9 456.66,-87.59 497.18,-77.87"/>
<polygon fill="midnightblue" stroke="midnightblue" points="498.14,-81.24 507.04,-75.51 496.5,-74.44 498.14,-81.24"/>
</g>
<!-- Node7 -->
<g id="node7" class="node">
<title>Node7</title>
<g id="a_node7"><a xlink:title=" ">
<polygon fill="none" stroke="#bfbfbf" points="244.5,-56.5 244.5,-75.5 344.5,-75.5 344.5,-56.5 244.5,-56.5"/>
<text text-anchor="middle" x="294.5" y="-63.5" font-family="Helvetica,sans-Serif" font-size="10.00">cfg_i2c_default.h</text>
</a>
</g>
</g>
<!-- Node1&#45;&gt;Node7 -->
<g id="edge7" class="edge">
<title>Node1&#45;&gt;Node7</title>
<path fill="none" stroke="midnightblue" d="M294.5,-112.4C294.5,-104.47 294.5,-94.46 294.5,-85.86"/>
<polygon fill="midnightblue" stroke="midnightblue" points="298,-85.66 294.5,-75.66 291,-85.66 298,-85.66"/>
</g>
<!-- Node8 -->
<g id="node8" class="node">
<title>Node8</title>
<g id="a_node8"><a xlink:title=" ">
<polygon fill="none" stroke="#bfbfbf" points="362.5,-56.5 362.5,-75.5 474.5,-75.5 474.5,-56.5 362.5,-56.5"/>
<text text-anchor="middle" x="418.5" y="-63.5" font-family="Helvetica,sans-Serif" font-size="10.00">cfg_timer_default.h</text>
</a>
</g>
</g>
<!-- Node1&#45;&gt;Node8 -->
<g id="edge8" class="edge">
<title>Node1&#45;&gt;Node8</title>
<path fill="none" stroke="midnightblue" d="M323.89,-112.4C344.32,-102.59 371.36,-89.62 391.3,-80.05"/>
<polygon fill="midnightblue" stroke="midnightblue" points="392.96,-83.14 400.46,-75.66 389.93,-76.83 392.96,-83.14"/>
</g>
<!-- Node9 -->
<g id="node9" class="node">
<title>Node9</title>
<g id="a_node9"><a xlink:href="cfg__uart__default_8h.html" target="_top" xlink:title="Common default UART configuration for the RE&#45;Mote board revision A.">
<polygon fill="none" stroke="black" points="121,-56.5 121,-75.5 226,-75.5 226,-56.5 121,-56.5"/>
<text text-anchor="middle" x="173.5" y="-63.5" font-family="Helvetica,sans-Serif" font-size="10.00">cfg_uart_default.h</text>
</a>
</g>
</g>
<!-- Node1&#45;&gt;Node9 -->
<g id="edge9" class="edge">
<title>Node1&#45;&gt;Node9</title>
<path fill="none" stroke="midnightblue" d="M265.82,-112.4C245.98,-102.64 219.74,-89.74 200.31,-80.18"/>
<polygon fill="midnightblue" stroke="midnightblue" points="201.62,-76.93 191.11,-75.66 198.54,-83.21 201.62,-76.93"/>
</g>
<!-- Node3 -->
<g id="node3" class="node">
<title>Node3</title>
<g id="a_node3"><a xlink:title=" ">
<polygon fill="none" stroke="#bfbfbf" points="134,-0.5 134,-19.5 213,-19.5 213,-0.5 134,-0.5"/>
<text text-anchor="middle" x="173.5" y="-7.5" font-family="Helvetica,sans-Serif" font-size="10.00">periph_cpu.h</text>
</a>
</g>
</g>
<!-- Node2&#45;&gt;Node3 -->
<g id="edge2" class="edge">
<title>Node2&#45;&gt;Node3</title>
<path fill="none" stroke="midnightblue" d="M70.83,-56.44C90.82,-47.6 122.24,-33.69 145.06,-23.59"/>
<polygon fill="midnightblue" stroke="midnightblue" points="146.53,-26.76 154.26,-19.52 143.7,-20.36 146.53,-26.76"/>
</g>
<!-- Node4&#45;&gt;Node3 -->
<g id="edge6" class="edge">
<title>Node4&#45;&gt;Node3</title>
<path fill="none" stroke="midnightblue" d="M492.29,-57.32C489.32,-56.87 486.37,-56.43 483.5,-56 391.72,-42.34 284.57,-26.9 223.31,-18.12"/>
<polygon fill="midnightblue" stroke="midnightblue" points="223.55,-14.62 213.15,-16.66 222.55,-21.55 223.55,-14.62"/>
</g>
<!-- Node5 -->
<g id="node5" class="node">
<title>Node5</title>
<g id="a_node5"><a xlink:title=" ">
<polygon fill="none" stroke="#bfbfbf" points="483,-0.5 483,-19.5 536,-19.5 536,-0.5 483,-0.5"/>
<text text-anchor="middle" x="509.5" y="-7.5" font-family="Helvetica,sans-Serif" font-size="10.00">stdint.h</text>
</a>
</g>
</g>
<!-- Node4&#45;&gt;Node5 -->
<g id="edge4" class="edge">
<title>Node4&#45;&gt;Node5</title>
<path fill="none" stroke="midnightblue" d="M537.05,-56.08C532.49,-48.61 525.83,-37.72 520.21,-28.52"/>
<polygon fill="midnightblue" stroke="midnightblue" points="523.05,-26.46 514.85,-19.75 517.08,-30.11 523.05,-26.46"/>
</g>
<!-- Node6 -->
<g id="node6" class="node">
<title>Node6</title>
<g id="a_node6"><a xlink:title=" ">
<polygon fill="none" stroke="#bfbfbf" points="554,-0.5 554,-19.5 597,-19.5 597,-0.5 554,-0.5"/>
<text text-anchor="middle" x="575.5" y="-7.5" font-family="Helvetica,sans-Serif" font-size="10.00">cpu.h</text>
</a>
</g>
</g>
<!-- Node4&#45;&gt;Node6 -->
<g id="edge5" class="edge">
<title>Node4&#45;&gt;Node6</title>
<path fill="none" stroke="midnightblue" d="M547.95,-56.08C552.51,-48.61 559.17,-37.72 564.79,-28.52"/>
<polygon fill="midnightblue" stroke="midnightblue" points="567.92,-30.11 570.15,-19.75 561.95,-26.46 567.92,-30.11"/>
</g>
<!-- Node9&#45;&gt;Node3 -->
<g id="edge10" class="edge">
<title>Node9&#45;&gt;Node3</title>
<path fill="none" stroke="midnightblue" d="M173.5,-56.08C173.5,-49.01 173.5,-38.86 173.5,-29.99"/>
<polygon fill="midnightblue" stroke="midnightblue" points="177,-29.75 173.5,-19.75 170,-29.75 177,-29.75"/>
</g>
</g>
</svg>
