<?xml version="1.0" encoding="UTF-8" standalone="no"?>
<!DOCTYPE svg PUBLIC "-//W3C//DTD SVG 1.1//EN"
 "http://www.w3.org/Graphics/SVG/1.1/DTD/svg11.dtd">
<!-- Generated by graphviz version 2.43.0 (0)
 -->
<!-- Title: sys/posix/include/sys/bytes.h Pages: 1 -->
<svg width="608pt" height="352pt"
 viewBox="0.00 0.00 608.00 352.00" xmlns="http://www.w3.org/2000/svg" xmlns:xlink="http://www.w3.org/1999/xlink">
<g id="graph0" class="graph" transform="scale(1 1) rotate(0) translate(4 348)">
<title>sys/posix/include/sys/bytes.h</title>
<!-- Node1 -->
<g id="node1" class="node">
<title>Node1</title>
<g id="a_node1"><a xlink:title="System&#45;internal byte operations.">
<polygon fill="#bfbfbf" stroke="black" points="297,-313.5 297,-343.5 417,-343.5 417,-313.5 297,-313.5"/>
<text text-anchor="start" x="305" y="-331.5" font-family="Helvetica,sans-Serif" font-size="10.00">sys/posix/include/sys</text>
<text text-anchor="middle" x="357" y="-320.5" font-family="Helvetica,sans-Serif" font-size="10.00">/bytes.h</text>
</a>
</g>
</g>
<!-- Node2 -->
<g id="node2" class="node">
<title>Node2</title>
<g id="a_node2"><a xlink:href="inet_8h.html" target="_top" xlink:title="Definitions for internet operations.">
<polygon fill="none" stroke="black" points="309.5,-123.5 309.5,-153.5 434.5,-153.5 434.5,-123.5 309.5,-123.5"/>
<text text-anchor="start" x="317.5" y="-141.5" font-family="Helvetica,sans-Serif" font-size="10.00">sys/posix/include/arpa</text>
<text text-anchor="middle" x="372" y="-130.5" font-family="Helvetica,sans-Serif" font-size="10.00">/inet.h</text>
</a>
</g>
</g>
<!-- Node1&#45;&gt;Node2 -->
<g id="edge1" class="edge">
<title>Node1&#45;&gt;Node2</title>
<path fill="none" stroke="midnightblue" d="M347.55,-303.45C338,-275.61 326.21,-228.63 338,-190 342.14,-176.45 351.26,-163.25 359.01,-153.75"/>
<polygon fill="midnightblue" stroke="midnightblue" points="344.35,-304.91 351.04,-313.13 350.94,-302.53 344.35,-304.91"/>
</g>
<!-- Node9 -->
<g id="node9" class="node">
<title>Node9</title>
<g id="a_node9"><a xlink:href="in_8h.html" target="_top" xlink:title="Main socket header.">
<polygon fill="none" stroke="black" points="346.5,-190.5 346.5,-209.5 505.5,-209.5 505.5,-190.5 346.5,-190.5"/>
<text text-anchor="middle" x="426" y="-197.5" font-family="Helvetica,sans-Serif" font-size="10.00">sys/posix/include/netinet/in.h</text>
</a>
</g>
</g>
<!-- Node1&#45;&gt;Node9 -->
<g id="edge8" class="edge">
<title>Node1&#45;&gt;Node9</title>
<path fill="none" stroke="midnightblue" d="M358.82,-303.05C360.98,-286.07 365.7,-263.45 376,-246 385.03,-230.72 400.96,-217.72 412.42,-209.68"/>
<polygon fill="midnightblue" stroke="midnightblue" points="355.31,-302.97 357.74,-313.29 362.27,-303.71 355.31,-302.97"/>
</g>
<!-- Node10 -->
<g id="node10" class="node">
<title>Node10</title>
<g id="a_node10"><a xlink:href="socket_8h.html" target="_top" xlink:title="Main socket header.">
<polygon fill="none" stroke="black" points="385,-246.5 385,-276.5 505,-276.5 505,-246.5 385,-246.5"/>
<text text-anchor="start" x="393" y="-264.5" font-family="Helvetica,sans-Serif" font-size="10.00">sys/posix/include/sys</text>
<text text-anchor="middle" x="445" y="-253.5" font-family="Helvetica,sans-Serif" font-size="10.00">/socket.h</text>
</a>
</g>
</g>
<!-- Node1&#45;&gt;Node10 -->
<g id="edge10" class="edge">
<title>Node1&#45;&gt;Node10</title>
<path fill="none" stroke="midnightblue" d="M384.14,-307.45C397.68,-297.45 413.73,-285.6 425.94,-276.58"/>
<polygon fill="midnightblue" stroke="midnightblue" points="382.06,-304.64 376.09,-313.4 386.22,-310.27 382.06,-304.64"/>
</g>
<!-- Node3 -->
<g id="node3" class="node">
<title>Node3</title>
<g id="a_node3"><a xlink:href="nanocoap_8h.html" target="_top" xlink:title="nanocoap API">
<polygon fill="none" stroke="black" points="220.5,-67.5 220.5,-86.5 369.5,-86.5 369.5,-67.5 220.5,-67.5"/>
<text text-anchor="middle" x="295" y="-74.5" font-family="Helvetica,sans-Serif" font-size="10.00">sys/include/net/nanocoap.h</text>
</a>
</g>
</g>
<!-- Node2&#45;&gt;Node3 -->
<g id="edge2" class="edge">
<title>Node2&#45;&gt;Node3</title>
<path fill="none" stroke="midnightblue" d="M345.71,-117.19C332.23,-106.77 316.52,-94.63 306.2,-86.66"/>
<polygon fill="midnightblue" stroke="midnightblue" points="343.7,-120.05 353.75,-123.4 347.98,-114.52 343.7,-120.05"/>
</g>
<!-- Node8 -->
<g id="node8" class="node">
<title>Node8</title>
<g id="a_node8"><a xlink:href="uhcp_8h.html" target="_top" xlink:title="UHCP header.">
<polygon fill="none" stroke="black" points="387.5,-67.5 387.5,-86.5 512.5,-86.5 512.5,-67.5 387.5,-67.5"/>
<text text-anchor="middle" x="450" y="-74.5" font-family="Helvetica,sans-Serif" font-size="10.00">sys/include/net/uhcp.h</text>
</a>
</g>
</g>
<!-- Node2&#45;&gt;Node8 -->
<g id="edge7" class="edge">
<title>Node2&#45;&gt;Node8</title>
<path fill="none" stroke="midnightblue" d="M398.63,-117.19C412.28,-106.77 428.2,-94.63 438.65,-86.66"/>
<polygon fill="midnightblue" stroke="midnightblue" points="396.31,-114.55 390.48,-123.4 400.56,-120.12 396.31,-114.55"/>
</g>
<!-- Node4 -->
<g id="node4" class="node">
<title>Node4</title>
<g id="a_node4"><a xlink:href="lc_8h.html" target="_top" xlink:title="CoRE Resource Directory lookup interface.">
<polygon fill="none" stroke="black" points="0,-6 0,-25 134,-25 134,-6 0,-6"/>
<text text-anchor="middle" x="67" y="-13" font-family="Helvetica,sans-Serif" font-size="10.00">sys/include/net/cord/lc.h</text>
</a>
</g>
</g>
<!-- Node3&#45;&gt;Node4 -->
<g id="edge3" class="edge">
<title>Node3&#45;&gt;Node4</title>
<path fill="none" stroke="midnightblue" d="M252.45,-64.9C208.17,-53.34 139.79,-35.5 99.61,-25.01"/>
<polygon fill="midnightblue" stroke="midnightblue" points="251.77,-68.34 262.33,-67.48 253.54,-61.56 251.77,-68.34"/>
</g>
<!-- Node5 -->
<g id="node5" class="node">
<title>Node5</title>
<g id="a_node5"><a xlink:href="gcoap_8h.html" target="_top" xlink:title="gcoap definition">
<polygon fill="none" stroke="black" points="152.5,-6 152.5,-25 283.5,-25 283.5,-6 152.5,-6"/>
<text text-anchor="middle" x="218" y="-13" font-family="Helvetica,sans-Serif" font-size="10.00">sys/include/net/gcoap.h</text>
</a>
</g>
</g>
<!-- Node3&#45;&gt;Node5 -->
<g id="edge4" class="edge">
<title>Node3&#45;&gt;Node5</title>
<path fill="none" stroke="midnightblue" d="M275.97,-61.29C261.2,-49.88 241.24,-34.46 229.01,-25.01"/>
<polygon fill="midnightblue" stroke="midnightblue" points="273.91,-64.13 283.97,-67.48 278.19,-58.59 273.91,-64.13"/>
</g>
<!-- Node6 -->
<g id="node6" class="node">
<title>Node6</title>
<g id="a_node6"><a xlink:href="nanocoap__sock_8h.html" target="_top" xlink:title="nanocoap high&#45;level API">
<polygon fill="none" stroke="black" points="302,-0.5 302,-30.5 442,-30.5 442,-0.5 302,-0.5"/>
<text text-anchor="start" x="310" y="-18.5" font-family="Helvetica,sans-Serif" font-size="10.00">sys/include/net/nanocoap</text>
<text text-anchor="middle" x="372" y="-7.5" font-family="Helvetica,sans-Serif" font-size="10.00">_sock.h</text>
</a>
</g>
</g>
<!-- Node3&#45;&gt;Node6 -->
<g id="edge5" class="edge">
<title>Node3&#45;&gt;Node6</title>
<path fill="none" stroke="midnightblue" d="M314.16,-61.2C326.3,-51.81 341.91,-39.75 353.85,-30.52"/>
<polygon fill="midnightblue" stroke="midnightblue" points="311.81,-58.59 306.03,-67.48 316.09,-64.13 311.81,-58.59"/>
</g>
<!-- Node7 -->
<g id="node7" class="node">
<title>Node7</title>
<g id="a_node7"><a xlink:href="suit_2transport_2coap_8h_source.html" target="_top" xlink:title=" ">
<polygon fill="none" stroke="black" points="460,-0.5 460,-30.5 600,-30.5 600,-0.5 460,-0.5"/>
<text text-anchor="start" x="468" y="-18.5" font-family="Helvetica,sans-Serif" font-size="10.00">sys/include/suit/transport</text>
<text text-anchor="middle" x="530" y="-7.5" font-family="Helvetica,sans-Serif" font-size="10.00">/coap.h</text>
</a>
</g>
</g>
<!-- Node3&#45;&gt;Node7 -->
<g id="edge6" class="edge">
<title>Node3&#45;&gt;Node7</title>
<path fill="none" stroke="midnightblue" d="M338.51,-64.98C376.89,-55.27 433.04,-41.05 474.62,-30.52"/>
<polygon fill="midnightblue" stroke="midnightblue" points="337.5,-61.63 328.67,-67.48 339.22,-68.41 337.5,-61.63"/>
</g>
<!-- Node9&#45;&gt;Node2 -->
<g id="edge9" class="edge">
<title>Node9&#45;&gt;Node2</title>
<path fill="none" stroke="midnightblue" d="M411.31,-182.81C402.99,-173.65 392.7,-162.3 384.73,-153.52"/>
<polygon fill="midnightblue" stroke="midnightblue" points="408.95,-185.42 418.26,-190.48 414.13,-180.72 408.95,-185.42"/>
</g>
<!-- Node10&#45;&gt;Node9 -->
<g id="edge11" class="edge">
<title>Node10&#45;&gt;Node9</title>
<path fill="none" stroke="midnightblue" d="M437.37,-236.59C434.33,-227.08 431.02,-216.73 428.76,-209.66"/>
<polygon fill="midnightblue" stroke="midnightblue" points="434.12,-237.94 440.5,-246.4 440.79,-235.81 434.12,-237.94"/>
</g>
</g>
</svg>
