<?xml version="1.0" encoding="UTF-8" standalone="no"?>
<!DOCTYPE svg PUBLIC "-//W3C//DTD SVG 1.1//EN"
 "http://www.w3.org/Graphics/SVG/1.1/DTD/svg11.dtd">
<!-- Generated by graphviz version 2.43.0 (0)
 -->
<!-- Title: sys/posix/include/sys/bytes.h Pages: 1 -->
<svg width="188pt" height="207pt"
 viewBox="0.00 0.00 188.00 207.00" xmlns="http://www.w3.org/2000/svg" xmlns:xlink="http://www.w3.org/1999/xlink">
<g id="graph0" class="graph" transform="scale(1 1) rotate(0) translate(4 203)">
<title>sys/posix/include/sys/bytes.h</title>
<!-- Node1 -->
<g id="node1" class="node">
<title>Node1</title>
<g id="a_node1"><a xlink:title="System&#45;internal byte operations.">
<polygon fill="#bfbfbf" stroke="black" points="9,-168.5 9,-198.5 129,-198.5 129,-168.5 9,-168.5"/>
<text text-anchor="start" x="17" y="-186.5" font-family="Helvetica,sans-Serif" font-size="10.00">sys/posix/include/sys</text>
<text text-anchor="middle" x="69" y="-175.5" font-family="Helvetica,sans-Serif" font-size="10.00">/bytes.h</text>
</a>
</g>
</g>
<!-- Node2 -->
<g id="node2" class="node">
<title>Node2</title>
<g id="a_node2"><a xlink:title=" ">
<polygon fill="none" stroke="#bfbfbf" points="0,-112.5 0,-131.5 56,-131.5 56,-112.5 0,-112.5"/>
<text text-anchor="middle" x="28" y="-119.5" font-family="Helvetica,sans-Serif" font-size="10.00">stddef.h</text>
</a>
</g>
</g>
<!-- Node1&#45;&gt;Node2 -->
<g id="edge1" class="edge">
<title>Node1&#45;&gt;Node2</title>
<path fill="none" stroke="midnightblue" d="M59.28,-168.4C53.45,-159.93 45.98,-149.1 39.81,-140.14"/>
<polygon fill="midnightblue" stroke="midnightblue" points="42.52,-137.91 33.97,-131.66 36.76,-141.88 42.52,-137.91"/>
</g>
<!-- Node3 -->
<g id="node3" class="node">
<title>Node3</title>
<g id="a_node3"><a xlink:href="byteorder_8h.html" target="_top" xlink:title="Functions to work with different byte orders.">
<polygon fill="none" stroke="black" points="74.5,-112.5 74.5,-131.5 147.5,-131.5 147.5,-112.5 74.5,-112.5"/>
<text text-anchor="middle" x="111" y="-119.5" font-family="Helvetica,sans-Serif" font-size="10.00">byteorder.h</text>
</a>
</g>
</g>
<!-- Node1&#45;&gt;Node3 -->
<g id="edge2" class="edge">
<title>Node1&#45;&gt;Node3</title>
<path fill="none" stroke="midnightblue" d="M78.95,-168.4C84.99,-159.84 92.74,-148.87 99.1,-139.86"/>
<polygon fill="midnightblue" stroke="midnightblue" points="101.98,-141.85 104.89,-131.66 96.26,-137.81 101.98,-141.85"/>
</g>
<!-- Node4 -->
<g id="node4" class="node">
<title>Node4</title>
<g id="a_node4"><a xlink:title=" ">
<polygon fill="none" stroke="#bfbfbf" points="83.5,-0.5 83.5,-19.5 136.5,-19.5 136.5,-0.5 83.5,-0.5"/>
<text text-anchor="middle" x="110" y="-7.5" font-family="Helvetica,sans-Serif" font-size="10.00">stdint.h</text>
</a>
</g>
</g>
<!-- Node3&#45;&gt;Node4 -->
<g id="edge3" class="edge">
<title>Node3&#45;&gt;Node4</title>
<path fill="none" stroke="midnightblue" d="M107.4,-112.22C103.94,-103.28 98.97,-88.94 97,-76 94.6,-60.18 98.64,-42.37 102.84,-29.39"/>
<polygon fill="midnightblue" stroke="midnightblue" points="106.2,-30.38 106.26,-19.79 99.61,-28.03 106.2,-30.38"/>
</g>
<!-- Node5 -->
<g id="node5" class="node">
<title>Node5</title>
<g id="a_node5"><a xlink:href="unaligned_8h.html" target="_top" xlink:title="Unaligned but safe memory access functions.">
<polygon fill="none" stroke="black" points="106,-56.5 106,-75.5 180,-75.5 180,-56.5 106,-56.5"/>
<text text-anchor="middle" x="143" y="-63.5" font-family="Helvetica,sans-Serif" font-size="10.00">unaligned.h</text>
</a>
</g>
</g>
<!-- Node3&#45;&gt;Node5 -->
<g id="edge4" class="edge">
<title>Node3&#45;&gt;Node5</title>
<path fill="none" stroke="midnightblue" d="M116.28,-112.08C120.71,-104.61 127.16,-93.72 132.62,-84.52"/>
<polygon fill="midnightblue" stroke="midnightblue" points="135.73,-86.14 137.81,-75.75 129.71,-82.57 135.73,-86.14"/>
</g>
<!-- Node5&#45;&gt;Node4 -->
<g id="edge5" class="edge">
<title>Node5&#45;&gt;Node4</title>
<path fill="none" stroke="midnightblue" d="M137.55,-56.08C132.99,-48.61 126.33,-37.72 120.71,-28.52"/>
<polygon fill="midnightblue" stroke="midnightblue" points="123.55,-26.46 115.35,-19.75 117.58,-30.11 123.55,-26.46"/>
</g>
</g>
</svg>
