<?xml version="1.0" encoding="UTF-8" standalone="no"?>
<!DOCTYPE svg PUBLIC "-//W3C//DTD SVG 1.1//EN"
 "http://www.w3.org/Graphics/SVG/1.1/DTD/svg11.dtd">
<!-- Generated by graphviz version 2.43.0 (0)
 -->
<!-- Title: sys/include/event/callback.h Pages: 1 -->
<svg width="781pt" height="296pt"
 viewBox="0.00 0.00 780.50 296.00" xmlns="http://www.w3.org/2000/svg" xmlns:xlink="http://www.w3.org/1999/xlink">
<g id="graph0" class="graph" transform="scale(1 1) rotate(0) translate(4 292)">
<title>sys/include/event/callback.h</title>
<!-- Node1 -->
<g id="node1" class="node">
<title>Node1</title>
<g id="a_node1"><a xlink:title="Provides a callback&#45;with&#45;argument event type.">
<polygon fill="#bfbfbf" stroke="black" points="316.5,-268.5 316.5,-287.5 471.5,-287.5 471.5,-268.5 316.5,-268.5"/>
<text text-anchor="middle" x="394" y="-275.5" font-family="Helvetica,sans-Serif" font-size="10.00">sys/include/event/callback.h</text>
</a>
</g>
</g>
<!-- Node2 -->
<g id="node2" class="node">
<title>Node2</title>
<g id="a_node2"><a xlink:href="ieee802154__submac_8h_source.html" target="_top" xlink:title=" ">
<polygon fill="none" stroke="black" points="0,-201.5 0,-231.5 166,-231.5 166,-201.5 0,-201.5"/>
<text text-anchor="start" x="8" y="-219.5" font-family="Helvetica,sans-Serif" font-size="10.00">drivers/include/net</text>
<text text-anchor="middle" x="83" y="-208.5" font-family="Helvetica,sans-Serif" font-size="10.00">/netdev/ieee802154_submac.h</text>
</a>
</g>
</g>
<!-- Node1&#45;&gt;Node2 -->
<g id="edge1" class="edge">
<title>Node1&#45;&gt;Node2</title>
<path fill="none" stroke="midnightblue" d="M339.31,-266.54C288.47,-256.81 212.38,-242.25 156.3,-231.52"/>
<polygon fill="midnightblue" stroke="midnightblue" points="338.96,-270.03 349.44,-268.48 340.28,-263.16 338.96,-270.03"/>
</g>
<!-- Node3 -->
<g id="node3" class="node">
<title>Node3</title>
<g id="a_node3"><a xlink:href="scheduler__types_8h.html" target="_top" xlink:title="RIOT scheduler types variable declaration.">
<polygon fill="none" stroke="black" points="184.5,-201.5 184.5,-231.5 315.5,-231.5 315.5,-201.5 184.5,-201.5"/>
<text text-anchor="start" x="192.5" y="-219.5" font-family="Helvetica,sans-Serif" font-size="10.00">pkg/openwsn/scheduler</text>
<text text-anchor="middle" x="250" y="-208.5" font-family="Helvetica,sans-Serif" font-size="10.00">/scheduler_types.h</text>
</a>
</g>
</g>
<!-- Node1&#45;&gt;Node3 -->
<g id="edge2" class="edge">
<title>Node1&#45;&gt;Node3</title>
<path fill="none" stroke="midnightblue" d="M363.97,-264.59C340.62,-254.94 308.22,-241.56 283.94,-231.52"/>
<polygon fill="midnightblue" stroke="midnightblue" points="362.79,-267.89 373.37,-268.48 365.46,-261.42 362.79,-267.89"/>
</g>
<!-- Node4 -->
<g id="node4" class="node">
<title>Node4</title>
<g id="a_node4"><a xlink:href="dpl__eventq_8h.html" target="_top" xlink:title="uwb&#45;core DPL (Decawave Porting Layer) event queue wrappers">
<polygon fill="none" stroke="black" points="333.5,-201.5 333.5,-231.5 454.5,-231.5 454.5,-201.5 333.5,-201.5"/>
<text text-anchor="start" x="341.5" y="-219.5" font-family="Helvetica,sans-Serif" font-size="10.00">pkg/uwb&#45;core/include</text>
<text text-anchor="middle" x="394" y="-208.5" font-family="Helvetica,sans-Serif" font-size="10.00">/dpl/dpl_eventq.h</text>
</a>
</g>
</g>
<!-- Node1&#45;&gt;Node4 -->
<g id="edge3" class="edge">
<title>Node1&#45;&gt;Node4</title>
<path fill="none" stroke="midnightblue" d="M394,-258.23C394,-249.59 394,-239.5 394,-231.52"/>
<polygon fill="midnightblue" stroke="midnightblue" points="390.5,-258.48 394,-268.48 397.5,-258.48 390.5,-258.48"/>
</g>
<!-- Node8 -->
<g id="node8" class="node">
<title>Node8</title>
<g id="a_node8"><a xlink:href="asymcute_8h.html" target="_top" xlink:title="Asymcute MQTT&#45;SN interface definition.">
<polygon fill="none" stroke="black" points="473,-207 473,-226 623,-226 623,-207 473,-207"/>
<text text-anchor="middle" x="548" y="-214" font-family="Helvetica,sans-Serif" font-size="10.00">sys/include/net/asymcute.h</text>
</a>
</g>
</g>
<!-- Node1&#45;&gt;Node8 -->
<g id="edge8" class="edge">
<title>Node1&#45;&gt;Node8</title>
<path fill="none" stroke="midnightblue" d="M425.62,-264.78C455.55,-253.22 499.69,-236.16 525.98,-226.01"/>
<polygon fill="midnightblue" stroke="midnightblue" points="424.13,-261.61 416.06,-268.48 426.65,-268.14 424.13,-261.61"/>
</g>
<!-- Node9 -->
<g id="node9" class="node">
<title>Node9</title>
<g id="a_node9"><a xlink:href="gcoap_8h.html" target="_top" xlink:title="gcoap definition">
<polygon fill="none" stroke="black" points="641.5,-207 641.5,-226 772.5,-226 772.5,-207 641.5,-207"/>
<text text-anchor="middle" x="707" y="-214" font-family="Helvetica,sans-Serif" font-size="10.00">sys/include/net/gcoap.h</text>
</a>
</g>
</g>
<!-- Node1&#45;&gt;Node9 -->
<g id="edge9" class="edge">
<title>Node1&#45;&gt;Node9</title>
<path fill="none" stroke="midnightblue" d="M449.56,-266.56C497.81,-257.48 569.53,-243.94 632,-232 642.03,-230.08 652.81,-228.01 662.99,-226.04"/>
<polygon fill="midnightblue" stroke="midnightblue" points="448.82,-263.14 439.64,-268.43 450.11,-270.02 448.82,-263.14"/>
</g>
<!-- Node5 -->
<g id="node5" class="node">
<title>Node5</title>
<g id="a_node5"><a xlink:href="dpl_8h.html" target="_top" xlink:title="Abstraction layer for RIOT adaption.">
<polygon fill="none" stroke="black" points="332.5,-67.5 332.5,-97.5 453.5,-97.5 453.5,-67.5 332.5,-67.5"/>
<text text-anchor="start" x="340.5" y="-85.5" font-family="Helvetica,sans-Serif" font-size="10.00">pkg/uwb&#45;core/include</text>
<text text-anchor="middle" x="393" y="-74.5" font-family="Helvetica,sans-Serif" font-size="10.00">/dpl/dpl.h</text>
</a>
</g>
</g>
<!-- Node4&#45;&gt;Node5 -->
<g id="edge4" class="edge">
<title>Node4&#45;&gt;Node5</title>
<path fill="none" stroke="midnightblue" d="M379.23,-192.47C374.69,-184.15 370.29,-174.47 368,-165 364.76,-151.61 364.86,-147.42 368,-134 371.03,-121.05 377.9,-107.6 383.67,-97.85"/>
<polygon fill="midnightblue" stroke="midnightblue" points="376.25,-194.32 384.3,-201.21 382.3,-190.8 376.25,-194.32"/>
</g>
<!-- Node7 -->
<g id="node7" class="node">
<title>Node7</title>
<g id="a_node7"><a xlink:href="dpl__callout_8h.html" target="_top" xlink:title="uwb&#45;core DPL (Decawave Porting Layer) callout abstraction">
<polygon fill="none" stroke="black" points="377.5,-134.5 377.5,-164.5 498.5,-164.5 498.5,-134.5 377.5,-134.5"/>
<text text-anchor="start" x="385.5" y="-152.5" font-family="Helvetica,sans-Serif" font-size="10.00">pkg/uwb&#45;core/include</text>
<text text-anchor="middle" x="438" y="-141.5" font-family="Helvetica,sans-Serif" font-size="10.00">/dpl/dpl_callout.h</text>
</a>
</g>
</g>
<!-- Node4&#45;&gt;Node7 -->
<g id="edge6" class="edge">
<title>Node4&#45;&gt;Node7</title>
<path fill="none" stroke="midnightblue" d="M409.32,-192.87C415.69,-183.46 422.88,-172.83 428.47,-164.58"/>
<polygon fill="midnightblue" stroke="midnightblue" points="406.25,-191.15 403.55,-201.4 412.05,-195.08 406.25,-191.15"/>
</g>
<!-- Node6 -->
<g id="node6" class="node">
<title>Node6</title>
<g id="a_node6"><a xlink:href="os__dev_8h.html" target="_top" xlink:title="Abstraction layer for RIOT adaption.">
<polygon fill="none" stroke="black" points="332.5,-0.5 332.5,-30.5 453.5,-30.5 453.5,-0.5 332.5,-0.5"/>
<text text-anchor="start" x="340.5" y="-18.5" font-family="Helvetica,sans-Serif" font-size="10.00">pkg/uwb&#45;core/include</text>
<text text-anchor="middle" x="393" y="-7.5" font-family="Helvetica,sans-Serif" font-size="10.00">/os/os_dev.h</text>
</a>
</g>
</g>
<!-- Node5&#45;&gt;Node6 -->
<g id="edge5" class="edge">
<title>Node5&#45;&gt;Node6</title>
<path fill="none" stroke="midnightblue" d="M393,-57.11C393,-48.15 393,-38.32 393,-30.58"/>
<polygon fill="midnightblue" stroke="midnightblue" points="389.5,-57.4 393,-67.4 396.5,-57.4 389.5,-57.4"/>
</g>
<!-- Node7&#45;&gt;Node5 -->
<g id="edge7" class="edge">
<title>Node7&#45;&gt;Node5</title>
<path fill="none" stroke="midnightblue" d="M422.53,-126.16C415.97,-116.68 408.52,-105.92 402.75,-97.58"/>
<polygon fill="midnightblue" stroke="midnightblue" points="419.67,-128.17 428.24,-134.4 425.42,-124.18 419.67,-128.17"/>
</g>
</g>
</svg>
