<?xml version="1.0" encoding="UTF-8" standalone="no"?>
<!DOCTYPE svg PUBLIC "-//W3C//DTD SVG 1.1//EN"
 "http://www.w3.org/Graphics/SVG/1.1/DTD/svg11.dtd">
<!-- Generated by graphviz version 2.43.0 (0)
 -->
<!-- Title: sys/include/can/raw.h Pages: 1 -->
<svg width="943pt" height="532pt"
 viewBox="0.00 0.00 942.50 532.00" xmlns="http://www.w3.org/2000/svg" xmlns:xlink="http://www.w3.org/1999/xlink">
<g id="graph0" class="graph" transform="scale(1 1) rotate(0) translate(4 528)">
<title>sys/include/can/raw.h</title>
<!-- Node1 -->
<g id="node1" class="node">
<title>Node1</title>
<g id="a_node1"><a xlink:title="Definitions high&#45;level RAW CAN interface.">
<polygon fill="#bfbfbf" stroke="black" points="709.5,-504.5 709.5,-523.5 830.5,-523.5 830.5,-504.5 709.5,-504.5"/>
<text text-anchor="middle" x="770" y="-511.5" font-family="Helvetica,sans-Serif" font-size="10.00">sys/include/can/raw.h</text>
</a>
</g>
</g>
<!-- Node2 -->
<g id="node2" class="node">
<title>Node2</title>
<g id="a_node2"><a xlink:href="sched_8h.html" target="_top" xlink:title="Scheduler API definition.">
<polygon fill="none" stroke="black" points="223,-168.5 223,-187.5 277,-187.5 277,-168.5 223,-168.5"/>
<text text-anchor="middle" x="250" y="-175.5" font-family="Helvetica,sans-Serif" font-size="10.00">sched.h</text>
</a>
</g>
</g>
<!-- Node1&#45;&gt;Node2 -->
<g id="edge1" class="edge">
<title>Node1&#45;&gt;Node2</title>
<path fill="none" stroke="midnightblue" d="M709.26,-510.7C527.44,-503.01 0,-474.53 0,-403 0,-403 0,-403 0,-289 0,-197.22 142.92,-181.34 212.64,-179.06"/>
<polygon fill="midnightblue" stroke="midnightblue" points="212.86,-182.55 222.77,-178.81 212.69,-175.56 212.86,-182.55"/>
</g>
<!-- Node10 -->
<g id="node10" class="node">
<title>Node10</title>
<g id="a_node10"><a xlink:href="sys_2include_2can_2can_8h.html" target="_top" xlink:title="Definitions high&#45;level CAN interface.">
<polygon fill="none" stroke="black" points="871.5,-336.5 871.5,-355.5 934.5,-355.5 934.5,-336.5 871.5,-336.5"/>
<text text-anchor="middle" x="903" y="-343.5" font-family="Helvetica,sans-Serif" font-size="10.00">can/can.h</text>
</a>
</g>
</g>
<!-- Node1&#45;&gt;Node10 -->
<g id="edge11" class="edge">
<title>Node1&#45;&gt;Node10</title>
<path fill="none" stroke="midnightblue" d="M777.15,-504.08C798.45,-477.49 861.71,-398.54 889.57,-363.76"/>
<polygon fill="midnightblue" stroke="midnightblue" points="892.61,-365.56 896.14,-355.57 887.15,-361.18 892.61,-365.56"/>
</g>
<!-- Node11 -->
<g id="node11" class="node">
<title>Node11</title>
<g id="a_node11"><a xlink:href="can_2common_8h.html" target="_top" xlink:title="Definitions of high&#45;level CAN interface.">
<polygon fill="none" stroke="black" points="764.5,-336.5 764.5,-355.5 853.5,-355.5 853.5,-336.5 764.5,-336.5"/>
<text text-anchor="middle" x="809" y="-343.5" font-family="Helvetica,sans-Serif" font-size="10.00">can/common.h</text>
</a>
</g>
</g>
<!-- Node1&#45;&gt;Node11 -->
<g id="edge13" class="edge">
<title>Node1&#45;&gt;Node11</title>
<path fill="none" stroke="midnightblue" d="M772.94,-504.44C775.96,-495.45 780.69,-480.83 784,-468 793.26,-432.12 801.41,-389.57 805.73,-365.69"/>
<polygon fill="midnightblue" stroke="midnightblue" points="809.22,-366.03 807.53,-355.57 802.33,-364.81 809.22,-366.03"/>
</g>
<!-- Node17 -->
<g id="node17" class="node">
<title>Node17</title>
<g id="a_node17"><a xlink:href="sys_2include_2can_2device_8h.html" target="_top" xlink:title="Definitions of CAN device interface.">
<polygon fill="none" stroke="black" points="697,-448.5 697,-467.5 775,-467.5 775,-448.5 697,-448.5"/>
<text text-anchor="middle" x="736" y="-455.5" font-family="Helvetica,sans-Serif" font-size="10.00">can/device.h</text>
</a>
</g>
</g>
<!-- Node1&#45;&gt;Node17 -->
<g id="edge22" class="edge">
<title>Node1&#45;&gt;Node17</title>
<path fill="none" stroke="midnightblue" d="M764.39,-504.08C759.63,-496.53 752.68,-485.49 746.85,-476.23"/>
<polygon fill="midnightblue" stroke="midnightblue" points="749.8,-474.35 741.51,-467.75 743.88,-478.08 749.8,-474.35"/>
</g>
<!-- Node3 -->
<g id="node3" class="node">
<title>Node3</title>
<g id="a_node3"><a xlink:title=" ">
<polygon fill="none" stroke="#bfbfbf" points="129,-0.5 129,-19.5 185,-19.5 185,-0.5 129,-0.5"/>
<text text-anchor="middle" x="157" y="-7.5" font-family="Helvetica,sans-Serif" font-size="10.00">stddef.h</text>
</a>
</g>
</g>
<!-- Node2&#45;&gt;Node3 -->
<g id="edge2" class="edge">
<title>Node2&#45;&gt;Node3</title>
<path fill="none" stroke="midnightblue" d="M235.94,-168.29C224.02,-160.23 207.25,-147.21 197,-132 175.23,-99.7 164.49,-54.61 159.9,-29.59"/>
<polygon fill="midnightblue" stroke="midnightblue" points="163.33,-28.9 158.21,-19.62 156.43,-30.07 163.33,-28.9"/>
</g>
<!-- Node4 -->
<g id="node4" class="node">
<title>Node4</title>
<g id="a_node4"><a xlink:href="inttypes_8h.html" target="_top" xlink:title="Adds include for missing inttype definitions.">
<polygon fill="none" stroke="black" points="460.5,-112.5 460.5,-131.5 525.5,-131.5 525.5,-112.5 460.5,-112.5"/>
<text text-anchor="middle" x="493" y="-119.5" font-family="Helvetica,sans-Serif" font-size="10.00">inttypes.h</text>
</a>
</g>
</g>
<!-- Node2&#45;&gt;Node4 -->
<g id="edge3" class="edge">
<title>Node2&#45;&gt;Node4</title>
<path fill="none" stroke="midnightblue" d="M277.4,-170.91C319.56,-161.54 400.64,-143.52 450.47,-132.45"/>
<polygon fill="midnightblue" stroke="midnightblue" points="451.3,-135.85 460.3,-130.27 449.78,-129.02 451.3,-135.85"/>
</g>
<!-- Node5 -->
<g id="node5" class="node">
<title>Node5</title>
<g id="a_node5"><a xlink:href="kernel__defines_8h.html" target="_top" xlink:title="Common macros and compiler attributes/pragmas configuration.">
<polygon fill="none" stroke="black" points="313.5,-56.5 313.5,-75.5 410.5,-75.5 410.5,-56.5 313.5,-56.5"/>
<text text-anchor="middle" x="362" y="-63.5" font-family="Helvetica,sans-Serif" font-size="10.00">kernel_defines.h</text>
</a>
</g>
</g>
<!-- Node2&#45;&gt;Node5 -->
<g id="edge4" class="edge">
<title>Node2&#45;&gt;Node5</title>
<path fill="none" stroke="midnightblue" d="M261.85,-168.22C273.32,-159.51 290.98,-145.55 305,-132 320.94,-116.6 337.45,-97.34 348.58,-83.8"/>
<polygon fill="midnightblue" stroke="midnightblue" points="351.47,-85.79 355.05,-75.82 346.03,-81.38 351.47,-85.79"/>
</g>
<!-- Node7 -->
<g id="node7" class="node">
<title>Node7</title>
<g id="a_node7"><a xlink:href="native__sched_8h.html" target="_top" xlink:title="Add definitions required on the native board.">
<polygon fill="none" stroke="black" points="206,-112.5 206,-131.5 296,-131.5 296,-112.5 206,-112.5"/>
<text text-anchor="middle" x="251" y="-119.5" font-family="Helvetica,sans-Serif" font-size="10.00">native_sched.h</text>
</a>
</g>
</g>
<!-- Node2&#45;&gt;Node7 -->
<g id="edge7" class="edge">
<title>Node2&#45;&gt;Node7</title>
<path fill="none" stroke="midnightblue" d="M250.17,-168.08C250.3,-161.01 250.48,-150.86 250.65,-141.99"/>
<polygon fill="midnightblue" stroke="midnightblue" points="254.15,-141.81 250.84,-131.75 247.15,-141.68 254.15,-141.81"/>
</g>
<!-- Node8 -->
<g id="node8" class="node">
<title>Node8</title>
<g id="a_node8"><a xlink:href="clist_8h.html" target="_top" xlink:title="Circular linked list.">
<polygon fill="none" stroke="black" points="104,-112.5 104,-131.5 150,-131.5 150,-112.5 104,-112.5"/>
<text text-anchor="middle" x="127" y="-119.5" font-family="Helvetica,sans-Serif" font-size="10.00">clist.h</text>
</a>
</g>
</g>
<!-- Node2&#45;&gt;Node8 -->
<g id="edge8" class="edge">
<title>Node2&#45;&gt;Node8</title>
<path fill="none" stroke="midnightblue" d="M230.51,-168.44C210.36,-159.6 178.68,-145.69 155.67,-135.59"/>
<polygon fill="midnightblue" stroke="midnightblue" points="156.96,-132.33 146.4,-131.52 154.15,-138.74 156.96,-132.33"/>
</g>
<!-- Node5&#45;&gt;Node3 -->
<g id="edge5" class="edge">
<title>Node5&#45;&gt;Node3</title>
<path fill="none" stroke="midnightblue" d="M329.52,-56.44C292.93,-46.81 233.55,-31.17 194.89,-20.98"/>
<polygon fill="midnightblue" stroke="midnightblue" points="195.61,-17.55 185.05,-18.39 193.83,-24.32 195.61,-17.55"/>
</g>
<!-- Node6 -->
<g id="node6" class="node">
<title>Node6</title>
<g id="a_node6"><a xlink:title=" ">
<polygon fill="none" stroke="#bfbfbf" points="675.5,-0.5 675.5,-19.5 728.5,-19.5 728.5,-0.5 675.5,-0.5"/>
<text text-anchor="middle" x="702" y="-7.5" font-family="Helvetica,sans-Serif" font-size="10.00">stdint.h</text>
</a>
</g>
</g>
<!-- Node5&#45;&gt;Node6 -->
<g id="edge6" class="edge">
<title>Node5&#45;&gt;Node6</title>
<path fill="none" stroke="midnightblue" d="M410.71,-57.26C479.45,-46.35 603.39,-26.66 665.06,-16.87"/>
<polygon fill="midnightblue" stroke="midnightblue" points="665.79,-20.3 675.12,-15.27 664.69,-13.38 665.79,-20.3"/>
</g>
<!-- Node8&#45;&gt;Node3 -->
<g id="edge9" class="edge">
<title>Node8&#45;&gt;Node3</title>
<path fill="none" stroke="midnightblue" d="M129.35,-112.37C134.22,-94.54 145.46,-53.3 152.02,-29.27"/>
<polygon fill="midnightblue" stroke="midnightblue" points="155.4,-30.16 154.66,-19.59 148.65,-28.32 155.4,-30.16"/>
</g>
<!-- Node9 -->
<g id="node9" class="node">
<title>Node9</title>
<g id="a_node9"><a xlink:href="list_8h.html" target="_top" xlink:title="Intrusive linked list.">
<polygon fill="none" stroke="black" points="68.5,-56.5 68.5,-75.5 109.5,-75.5 109.5,-56.5 68.5,-56.5"/>
<text text-anchor="middle" x="89" y="-63.5" font-family="Helvetica,sans-Serif" font-size="10.00">list.h</text>
</a>
</g>
</g>
<!-- Node8&#45;&gt;Node9 -->
<g id="edge10" class="edge">
<title>Node8&#45;&gt;Node9</title>
<path fill="none" stroke="midnightblue" d="M120.73,-112.08C115.36,-104.46 107.48,-93.26 100.92,-83.94"/>
<polygon fill="midnightblue" stroke="midnightblue" points="103.78,-81.91 95.16,-75.75 98.05,-85.94 103.78,-81.91"/>
</g>
<!-- Node10&#45;&gt;Node6 -->
<g id="edge12" class="edge">
<title>Node10&#45;&gt;Node6</title>
<path fill="none" stroke="midnightblue" d="M906.1,-336.29C912.38,-317.86 926,-273.44 926,-235 926,-235 926,-235 926,-121 926,-38.51 802.09,-17.88 738.59,-12.72"/>
<polygon fill="midnightblue" stroke="midnightblue" points="738.8,-9.22 728.58,-11.99 738.3,-16.21 738.8,-9.22"/>
</g>
<!-- Node11&#45;&gt;Node6 -->
<g id="edge14" class="edge">
<title>Node11&#45;&gt;Node6</title>
<path fill="none" stroke="midnightblue" d="M825.89,-336.35C839.44,-328.58 857.95,-315.95 869,-300 886.14,-275.26 888,-265.1 888,-235 888,-235 888,-235 888,-121 888,-52.27 792.75,-25.58 738.58,-15.95"/>
<polygon fill="midnightblue" stroke="midnightblue" points="739.09,-12.49 728.65,-14.3 737.94,-19.4 739.09,-12.49"/>
</g>
<!-- Node12 -->
<g id="node12" class="node">
<title>Node12</title>
<g id="a_node12"><a xlink:href="uio_8h.html" target="_top" xlink:title="libc header for scatter/gather I/O">
<polygon fill="none" stroke="black" points="648,-280.5 648,-299.5 708,-299.5 708,-280.5 648,-280.5"/>
<text text-anchor="middle" x="678" y="-287.5" font-family="Helvetica,sans-Serif" font-size="10.00">sys/uio.h</text>
</a>
</g>
</g>
<!-- Node11&#45;&gt;Node12 -->
<g id="edge15" class="edge">
<title>Node11&#45;&gt;Node12</title>
<path fill="none" stroke="midnightblue" d="M788.24,-336.44C766.68,-327.56 732.74,-313.56 708.21,-303.45"/>
<polygon fill="midnightblue" stroke="midnightblue" points="709.24,-300.09 698.66,-299.52 706.57,-306.56 709.24,-300.09"/>
</g>
<!-- Node15 -->
<g id="node15" class="node">
<title>Node15</title>
<g id="a_node15"><a xlink:href="timex_8h.html" target="_top" xlink:title="Utility library for comparing and computing timestamps.">
<polygon fill="none" stroke="black" points="675,-168.5 675,-187.5 729,-187.5 729,-168.5 675,-168.5"/>
<text text-anchor="middle" x="702" y="-175.5" font-family="Helvetica,sans-Serif" font-size="10.00">timex.h</text>
</a>
</g>
</g>
<!-- Node11&#45;&gt;Node15 -->
<g id="edge18" class="edge">
<title>Node11&#45;&gt;Node15</title>
<path fill="none" stroke="midnightblue" d="M805.67,-336.21C796.29,-311.71 769.42,-243.23 755,-224 746.29,-212.38 734.06,-201.74 723.54,-193.73"/>
<polygon fill="midnightblue" stroke="midnightblue" points="725.37,-190.73 715.23,-187.66 721.24,-196.38 725.37,-190.73"/>
</g>
<!-- Node16 -->
<g id="node16" class="node">
<title>Node16</title>
<g id="a_node16"><a xlink:title=" ">
<polygon fill="none" stroke="#bfbfbf" points="802.5,-280.5 802.5,-299.5 859.5,-299.5 859.5,-280.5 802.5,-280.5"/>
<text text-anchor="middle" x="831" y="-287.5" font-family="Helvetica,sans-Serif" font-size="10.00">thread.h</text>
</a>
</g>
</g>
<!-- Node11&#45;&gt;Node16 -->
<g id="edge21" class="edge">
<title>Node11&#45;&gt;Node16</title>
<path fill="none" stroke="midnightblue" d="M812.63,-336.08C815.61,-328.77 819.93,-318.18 823.62,-309.1"/>
<polygon fill="midnightblue" stroke="midnightblue" points="826.9,-310.33 827.43,-299.75 820.42,-307.69 826.9,-310.33"/>
</g>
<!-- Node13 -->
<g id="node13" class="node">
<title>Node13</title>
<g id="a_node13"><a xlink:title=" ">
<polygon fill="none" stroke="#bfbfbf" points="602.5,-224.5 602.5,-243.5 655.5,-243.5 655.5,-224.5 602.5,-224.5"/>
<text text-anchor="middle" x="629" y="-231.5" font-family="Helvetica,sans-Serif" font-size="10.00">stdlib.h</text>
</a>
</g>
</g>
<!-- Node12&#45;&gt;Node13 -->
<g id="edge16" class="edge">
<title>Node12&#45;&gt;Node13</title>
<path fill="none" stroke="midnightblue" d="M669.91,-280.08C662.84,-272.3 652.41,-260.8 643.85,-251.37"/>
<polygon fill="midnightblue" stroke="midnightblue" points="646.25,-248.8 636.94,-243.75 641.07,-253.51 646.25,-248.8"/>
</g>
<!-- Node14 -->
<g id="node14" class="node">
<title>Node14</title>
<g id="a_node14"><a xlink:title=" ">
<polygon fill="none" stroke="#bfbfbf" points="674,-224.5 674,-243.5 746,-243.5 746,-224.5 674,-224.5"/>
<text text-anchor="middle" x="710" y="-231.5" font-family="Helvetica,sans-Serif" font-size="10.00">sys/types.h</text>
</a>
</g>
</g>
<!-- Node12&#45;&gt;Node14 -->
<g id="edge17" class="edge">
<title>Node12&#45;&gt;Node14</title>
<path fill="none" stroke="midnightblue" d="M683.28,-280.08C687.71,-272.61 694.16,-261.72 699.62,-252.52"/>
<polygon fill="midnightblue" stroke="midnightblue" points="702.73,-254.14 704.81,-243.75 696.71,-250.57 702.73,-254.14"/>
</g>
<!-- Node15&#45;&gt;Node4 -->
<g id="edge20" class="edge">
<title>Node15&#45;&gt;Node4</title>
<path fill="none" stroke="midnightblue" d="M674.68,-169.94C639.31,-160.8 577.29,-144.78 535.68,-134.03"/>
<polygon fill="midnightblue" stroke="midnightblue" points="536.39,-130.6 525.84,-131.48 534.64,-137.37 536.39,-130.6"/>
</g>
<!-- Node15&#45;&gt;Node6 -->
<g id="edge19" class="edge">
<title>Node15&#45;&gt;Node6</title>
<path fill="none" stroke="midnightblue" d="M702,-168.08C702,-141.95 702,-65.21 702,-29.58"/>
<polygon fill="midnightblue" stroke="midnightblue" points="705.5,-29.57 702,-19.57 698.5,-29.57 705.5,-29.57"/>
</g>
<!-- Node17&#45;&gt;Node2 -->
<g id="edge48" class="edge">
<title>Node17&#45;&gt;Node2</title>
<path fill="none" stroke="midnightblue" d="M696.62,-454.23C559.89,-444.08 114,-406.42 114,-347 114,-347 114,-347 114,-289 114,-237.8 172.99,-206.33 213.27,-190.81"/>
<polygon fill="midnightblue" stroke="midnightblue" points="214.63,-194.03 222.81,-187.29 212.21,-187.47 214.63,-194.03"/>
</g>
<!-- Node18 -->
<g id="node18" class="node">
<title>Node18</title>
<g id="a_node18"><a xlink:href="candev_8h.html" target="_top" xlink:title="Definitions for low&#45;level CAN driver interface.">
<polygon fill="none" stroke="black" points="696,-392.5 696,-411.5 776,-411.5 776,-392.5 696,-392.5"/>
<text text-anchor="middle" x="736" y="-399.5" font-family="Helvetica,sans-Serif" font-size="10.00">can/candev.h</text>
</a>
</g>
</g>
<!-- Node17&#45;&gt;Node18 -->
<g id="edge23" class="edge">
<title>Node17&#45;&gt;Node18</title>
<path fill="none" stroke="midnightblue" d="M736,-448.08C736,-441.01 736,-430.86 736,-421.99"/>
<polygon fill="midnightblue" stroke="midnightblue" points="739.5,-421.75 736,-411.75 732.5,-421.75 739.5,-421.75"/>
</g>
<!-- Node18&#45;&gt;Node6 -->
<g id="edge24" class="edge">
<title>Node18&#45;&gt;Node6</title>
<path fill="none" stroke="midnightblue" d="M738.59,-392.13C742.3,-379.58 749.38,-355.95 756,-336 779.34,-265.69 812,-253.08 812,-179 812,-179 812,-179 812,-121 812,-74.91 763.12,-41.39 730.53,-24.16"/>
<polygon fill="midnightblue" stroke="midnightblue" points="731.91,-20.94 721.41,-19.54 728.75,-27.18 731.91,-20.94"/>
</g>
<!-- Node18&#45;&gt;Node10 -->
<g id="edge26" class="edge">
<title>Node18&#45;&gt;Node10</title>
<path fill="none" stroke="midnightblue" d="M762.46,-392.44C790.68,-383.32 835.54,-368.81 866.97,-358.65"/>
<polygon fill="midnightblue" stroke="midnightblue" points="868.22,-361.92 876.66,-355.52 866.07,-355.26 868.22,-361.92"/>
</g>
<!-- Node18&#45;&gt;Node11 -->
<g id="edge27" class="edge">
<title>Node18&#45;&gt;Node11</title>
<path fill="none" stroke="midnightblue" d="M747.73,-392.32C758.84,-384.11 775.74,-371.6 788.98,-361.81"/>
<polygon fill="midnightblue" stroke="midnightblue" points="791.1,-364.59 797.06,-355.83 786.94,-358.97 791.1,-364.59"/>
</g>
<!-- Node18&#45;&gt;Node13 -->
<g id="edge25" class="edge">
<title>Node18&#45;&gt;Node13</title>
<path fill="none" stroke="midnightblue" d="M723.73,-392.33C702.53,-376.61 659.35,-341.19 639,-300 631.89,-285.61 629.57,-267.41 628.93,-253.94"/>
<polygon fill="midnightblue" stroke="midnightblue" points="632.43,-253.84 628.71,-243.91 625.43,-253.99 632.43,-253.84"/>
</g>
<!-- Node19 -->
<g id="node19" class="node">
<title>Node19</title>
<g id="a_node19"><a xlink:href="mutex_8h.html" target="_top" xlink:title="Mutex for thread synchronization.">
<polygon fill="none" stroke="black" points="316.5,-336.5 316.5,-355.5 373.5,-355.5 373.5,-336.5 316.5,-336.5"/>
<text text-anchor="middle" x="345" y="-343.5" font-family="Helvetica,sans-Serif" font-size="10.00">mutex.h</text>
</a>
</g>
</g>
<!-- Node18&#45;&gt;Node19 -->
<g id="edge28" class="edge">
<title>Node18&#45;&gt;Node19</title>
<path fill="none" stroke="midnightblue" d="M695.99,-395.47C620.68,-385.07 458.71,-362.7 384.1,-352.4"/>
<polygon fill="midnightblue" stroke="midnightblue" points="384.13,-348.87 373.74,-350.97 383.17,-355.8 384.13,-348.87"/>
</g>
<!-- Node19&#45;&gt;Node3 -->
<g id="edge29" class="edge">
<title>Node19&#45;&gt;Node3</title>
<path fill="none" stroke="midnightblue" d="M316.39,-341.02C240.18,-329.61 38,-293.81 38,-235 38,-235 38,-235 38,-121 38,-90.64 38.84,-78.7 59,-56 74.71,-38.32 98.78,-27.13 119.13,-20.33"/>
<polygon fill="midnightblue" stroke="midnightblue" points="120.26,-23.65 128.77,-17.34 118.18,-16.96 120.26,-23.65"/>
</g>
<!-- Node19&#45;&gt;Node5 -->
<g id="edge34" class="edge">
<title>Node19&#45;&gt;Node5</title>
<path fill="none" stroke="midnightblue" d="M334.62,-336.22C325.68,-327.93 313.38,-314.62 308,-300 296.32,-268.3 301.34,-257.3 307,-224 315.93,-171.51 340.52,-113.2 353.59,-84.67"/>
<polygon fill="midnightblue" stroke="midnightblue" points="356.77,-86.12 357.83,-75.58 350.43,-83.16 356.77,-86.12"/>
</g>
<!-- Node19&#45;&gt;Node6 -->
<g id="edge30" class="edge">
<title>Node19&#45;&gt;Node6</title>
<path fill="none" stroke="midnightblue" d="M373.58,-342.62C407.11,-338.6 463.06,-327.93 502,-300 605.68,-225.62 673.43,-79.91 694.77,-29.04"/>
<polygon fill="midnightblue" stroke="midnightblue" points="698.05,-30.26 698.61,-19.68 691.57,-27.6 698.05,-30.26"/>
</g>
<!-- Node19&#45;&gt;Node9 -->
<g id="edge35" class="edge">
<title>Node19&#45;&gt;Node9</title>
<path fill="none" stroke="midnightblue" d="M327.69,-336.45C280.52,-312.09 149.62,-237.28 95,-132 87.58,-117.7 86.55,-99.23 87.1,-85.64"/>
<polygon fill="midnightblue" stroke="midnightblue" points="90.6,-85.79 87.83,-75.56 83.62,-85.29 90.6,-85.79"/>
</g>
<!-- Node20 -->
<g id="node20" class="node">
<title>Node20</title>
<g id="a_node20"><a xlink:href="irq_8h.html" target="_top" xlink:title="IRQ driver interface.">
<polygon fill="none" stroke="black" points="455,-280.5 455,-299.5 493,-299.5 493,-280.5 455,-280.5"/>
<text text-anchor="middle" x="474" y="-287.5" font-family="Helvetica,sans-Serif" font-size="10.00">irq.h</text>
</a>
</g>
</g>
<!-- Node19&#45;&gt;Node20 -->
<g id="edge31" class="edge">
<title>Node19&#45;&gt;Node20</title>
<path fill="none" stroke="midnightblue" d="M365.44,-336.44C387.05,-327.4 421.28,-313.07 445.53,-302.92"/>
<polygon fill="midnightblue" stroke="midnightblue" points="447.04,-306.08 454.92,-298.99 444.34,-299.62 447.04,-306.08"/>
</g>
<!-- Node23 -->
<g id="node23" class="node">
<title>Node23</title>
<g id="a_node23"><a xlink:href="core_2include_2thread_8h.html" target="_top" xlink:title="Threading API.">
<polygon fill="none" stroke="black" points="316.5,-280.5 316.5,-299.5 373.5,-299.5 373.5,-280.5 316.5,-280.5"/>
<text text-anchor="middle" x="345" y="-287.5" font-family="Helvetica,sans-Serif" font-size="10.00">thread.h</text>
</a>
</g>
</g>
<!-- Node19&#45;&gt;Node23 -->
<g id="edge36" class="edge">
<title>Node19&#45;&gt;Node23</title>
<path fill="none" stroke="midnightblue" d="M345,-336.08C345,-329.01 345,-318.86 345,-309.99"/>
<polygon fill="midnightblue" stroke="midnightblue" points="348.5,-309.75 345,-299.75 341.5,-309.75 348.5,-309.75"/>
</g>
<!-- Node21 -->
<g id="node21" class="node">
<title>Node21</title>
<g id="a_node21"><a xlink:title=" ">
<polygon fill="none" stroke="#bfbfbf" points="504,-168.5 504,-187.5 566,-187.5 566,-168.5 504,-168.5"/>
<text text-anchor="middle" x="535" y="-175.5" font-family="Helvetica,sans-Serif" font-size="10.00">stdbool.h</text>
</a>
</g>
</g>
<!-- Node20&#45;&gt;Node21 -->
<g id="edge32" class="edge">
<title>Node20&#45;&gt;Node21</title>
<path fill="none" stroke="midnightblue" d="M484.75,-280.48C494.53,-272.16 508.68,-258.66 517,-244 525.22,-229.52 529.86,-211.07 532.36,-197.53"/>
<polygon fill="midnightblue" stroke="midnightblue" points="535.84,-197.94 534,-187.51 528.94,-196.82 535.84,-197.94"/>
</g>
<!-- Node22 -->
<g id="node22" class="node">
<title>Node22</title>
<g id="a_node22"><a xlink:title=" ">
<polygon fill="none" stroke="#bfbfbf" points="440,-224.5 440,-243.5 508,-243.5 508,-224.5 440,-224.5"/>
<text text-anchor="middle" x="474" y="-231.5" font-family="Helvetica,sans-Serif" font-size="10.00">cpu_conf.h</text>
</a>
</g>
</g>
<!-- Node20&#45;&gt;Node22 -->
<g id="edge33" class="edge">
<title>Node20&#45;&gt;Node22</title>
<path fill="none" stroke="midnightblue" d="M474,-280.08C474,-273.01 474,-262.86 474,-253.99"/>
<polygon fill="midnightblue" stroke="midnightblue" points="477.5,-253.75 474,-243.75 470.5,-253.75 477.5,-253.75"/>
</g>
<!-- Node23&#45;&gt;Node2 -->
<g id="edge47" class="edge">
<title>Node23&#45;&gt;Node2</title>
<path fill="none" stroke="midnightblue" d="M337.55,-280.37C321.73,-262.05 284.59,-219.05 264.13,-195.36"/>
<polygon fill="midnightblue" stroke="midnightblue" points="266.6,-192.87 257.42,-187.59 261.31,-197.45 266.6,-192.87"/>
</g>
<!-- Node23&#45;&gt;Node8 -->
<g id="edge37" class="edge">
<title>Node23&#45;&gt;Node8</title>
<path fill="none" stroke="midnightblue" d="M333.25,-280.45C320.93,-271.45 301.02,-256.84 284,-244 233.95,-206.26 175.64,-160.96 146.16,-137.97"/>
<polygon fill="midnightblue" stroke="midnightblue" points="148.02,-134.98 137.98,-131.59 143.71,-140.5 148.02,-134.98"/>
</g>
<!-- Node23&#45;&gt;Node22 -->
<g id="edge46" class="edge">
<title>Node23&#45;&gt;Node22</title>
<path fill="none" stroke="midnightblue" d="M365.44,-280.44C386.67,-271.56 420.1,-257.56 444.25,-247.45"/>
<polygon fill="midnightblue" stroke="midnightblue" points="445.78,-250.61 453.66,-243.52 443.08,-244.15 445.78,-250.61"/>
</g>
<!-- Node24 -->
<g id="node24" class="node">
<title>Node24</title>
<g id="a_node24"><a xlink:href="cib_8h.html" target="_top" xlink:title="Circular integer buffer interface.">
<polygon fill="none" stroke="black" points="316,-224.5 316,-243.5 356,-243.5 356,-224.5 316,-224.5"/>
<text text-anchor="middle" x="336" y="-231.5" font-family="Helvetica,sans-Serif" font-size="10.00">cib.h</text>
</a>
</g>
</g>
<!-- Node23&#45;&gt;Node24 -->
<g id="edge38" class="edge">
<title>Node23&#45;&gt;Node24</title>
<path fill="none" stroke="midnightblue" d="M343.51,-280.08C342.32,-272.93 340.61,-262.64 339.12,-253.69"/>
<polygon fill="midnightblue" stroke="midnightblue" points="342.55,-253.04 337.46,-243.75 335.65,-254.19 342.55,-253.04"/>
</g>
<!-- Node27 -->
<g id="node27" class="node">
<title>Node27</title>
<g id="a_node27"><a xlink:href="msg_8h.html" target="_top" xlink:title="Messaging API for inter process communication.">
<polygon fill="none" stroke="black" points="374.5,-224.5 374.5,-243.5 421.5,-243.5 421.5,-224.5 374.5,-224.5"/>
<text text-anchor="middle" x="398" y="-231.5" font-family="Helvetica,sans-Serif" font-size="10.00">msg.h</text>
</a>
</g>
</g>
<!-- Node23&#45;&gt;Node27 -->
<g id="edge42" class="edge">
<title>Node23&#45;&gt;Node27</title>
<path fill="none" stroke="midnightblue" d="M353.75,-280.08C361.47,-272.22 372.9,-260.57 382.22,-251.08"/>
<polygon fill="midnightblue" stroke="midnightblue" points="384.9,-253.34 389.41,-243.75 379.91,-248.44 384.9,-253.34"/>
</g>
<!-- Node25 -->
<g id="node25" class="node">
<title>Node25</title>
<g id="a_node25"><a xlink:href="assert_8h.html" target="_top" xlink:title="POSIX.1&#45;2008 compliant version of the assert macro.">
<polygon fill="none" stroke="black" points="375,-168.5 375,-187.5 431,-187.5 431,-168.5 375,-168.5"/>
<text text-anchor="middle" x="403" y="-175.5" font-family="Helvetica,sans-Serif" font-size="10.00">assert.h</text>
</a>
</g>
</g>
<!-- Node24&#45;&gt;Node25 -->
<g id="edge39" class="edge">
<title>Node24&#45;&gt;Node25</title>
<path fill="none" stroke="midnightblue" d="M346.76,-224.32C356.77,-216.26 371.89,-204.08 383.93,-194.37"/>
<polygon fill="midnightblue" stroke="midnightblue" points="386.45,-196.83 392.04,-187.83 382.06,-191.38 386.45,-196.83"/>
</g>
<!-- Node26 -->
<g id="node26" class="node">
<title>Node26</title>
<g id="a_node26"><a xlink:href="panic_8h.html" target="_top" xlink:title="Crash handling header.">
<polygon fill="none" stroke="black" points="390,-112.5 390,-131.5 442,-131.5 442,-112.5 390,-112.5"/>
<text text-anchor="middle" x="416" y="-119.5" font-family="Helvetica,sans-Serif" font-size="10.00">panic.h</text>
</a>
</g>
</g>
<!-- Node25&#45;&gt;Node26 -->
<g id="edge40" class="edge">
<title>Node25&#45;&gt;Node26</title>
<path fill="none" stroke="midnightblue" d="M405.15,-168.08C406.87,-160.93 409.35,-150.64 411.5,-141.69"/>
<polygon fill="midnightblue" stroke="midnightblue" points="414.96,-142.29 413.89,-131.75 408.15,-140.65 414.96,-142.29"/>
</g>
<!-- Node26&#45;&gt;Node5 -->
<g id="edge41" class="edge">
<title>Node26&#45;&gt;Node5</title>
<path fill="none" stroke="midnightblue" d="M407.08,-112.08C399.22,-104.22 387.57,-92.57 378.08,-83.08"/>
<polygon fill="midnightblue" stroke="midnightblue" points="380.3,-80.35 370.75,-75.75 375.35,-85.3 380.3,-80.35"/>
</g>
<!-- Node27&#45;&gt;Node2 -->
<g id="edge45" class="edge">
<title>Node27&#45;&gt;Node2</title>
<path fill="none" stroke="midnightblue" d="M374.55,-224.44C349.87,-215.44 310.81,-201.19 283.02,-191.05"/>
<polygon fill="midnightblue" stroke="midnightblue" points="283.94,-187.66 273.34,-187.52 281.54,-194.23 283.94,-187.66"/>
</g>
<!-- Node27&#45;&gt;Node6 -->
<g id="edge43" class="edge">
<title>Node27&#45;&gt;Node6</title>
<path fill="none" stroke="midnightblue" d="M411.04,-224.37C441.26,-204.22 514.98,-154.14 535,-132 561.33,-102.88 549.84,-81.13 580,-56 604.5,-35.58 639.1,-24 665.2,-17.71"/>
<polygon fill="midnightblue" stroke="midnightblue" points="666.12,-21.09 675.1,-15.48 664.58,-14.27 666.12,-21.09"/>
</g>
<!-- Node27&#45;&gt;Node21 -->
<g id="edge44" class="edge">
<title>Node27&#45;&gt;Node21</title>
<path fill="none" stroke="midnightblue" d="M419.71,-224.44C442.35,-215.52 478.07,-201.44 503.75,-191.32"/>
<polygon fill="midnightblue" stroke="midnightblue" points="505.37,-194.44 513.39,-187.52 502.81,-187.93 505.37,-194.44"/>
</g>
</g>
</svg>
