<?xml version="1.0" encoding="UTF-8" standalone="no"?>
<!DOCTYPE svg PUBLIC "-//W3C//DTD SVG 1.1//EN"
 "http://www.w3.org/Graphics/SVG/1.1/DTD/svg11.dtd">
<!-- Generated by graphviz version 2.40.1 (20161225.0304)
 -->
<!-- Title: drivers/include/can/can_trx.h Pages: 1 -->
<svg width="276pt" height="95pt"
 viewBox="0.00 0.00 276.00 95.00" xmlns="http://www.w3.org/2000/svg" xmlns:xlink="http://www.w3.org/1999/xlink">
<g id="graph0" class="graph" transform="scale(1 1) rotate(0) translate(4 91)">
<title>drivers/include/can/can_trx.h</title>
<!-- Node1 -->
<g id="node1" class="node">
<title>Node1</title>
<polygon fill="#bfbfbf" stroke="#000000" points="86,-56.5 86,-86.5 184,-86.5 184,-56.5 86,-56.5"/>
<text text-anchor="start" x="94" y="-74.5" font-family="Helvetica,sans-Serif" font-size="10.00" fill="#000000">drivers/include/can</text>
<text text-anchor="middle" x="135" y="-63.5" font-family="Helvetica,sans-Serif" font-size="10.00" fill="#000000">/can_trx.h</text>
</g>
<!-- Node2 -->
<g id="node2" class="node">
<title>Node2</title>
<g id="a_node2"><a xlink:href="ncv7356_8h.html" target="_top" xlink:title="ncv7356 generic CAN transceiver interface initialization ">
<polygon fill="none" stroke="#000000" points="0,-.5 0,-19.5 128,-19.5 128,-.5 0,-.5"/>
<text text-anchor="middle" x="64" y="-7.5" font-family="Helvetica,sans-Serif" font-size="10.00" fill="#000000">drivers/include/ncv7356.h</text>
</a>
</g>
</g>
<!-- Node1&#45;&gt;Node2 -->
<g id="edge1" class="edge">
<title>Node1&#45;&gt;Node2</title>
<path fill="none" stroke="#191970" d="M109.6587,-49.5494C97.9308,-39.3907 84.5876,-27.8329 75.368,-19.8469"/>
<polygon fill="#191970" stroke="#191970" points="107.5992,-52.396 117.4494,-56.2977 112.1823,-47.1049 107.5992,-52.396"/>
</g>
<!-- Node3 -->
<g id="node3" class="node">
<title>Node3</title>
<g id="a_node3"><a xlink:href="tja1042_8h.html" target="_top" xlink:title="tja1042 generic CAN transceiver interface initialization ">
<polygon fill="none" stroke="#000000" points="146,-.5 146,-19.5 268,-19.5 268,-.5 146,-.5"/>
<text text-anchor="middle" x="207" y="-7.5" font-family="Helvetica,sans-Serif" font-size="10.00" fill="#000000">drivers/include/tja1042.h</text>
</a>
</g>
</g>
<!-- Node1&#45;&gt;Node3 -->
<g id="edge2" class="edge">
<title>Node1&#45;&gt;Node3</title>
<path fill="none" stroke="#191970" d="M160.6982,-49.5494C172.5913,-39.3907 186.1224,-27.8329 195.4719,-19.8469"/>
<polygon fill="#191970" stroke="#191970" points="158.1283,-47.1415 152.7978,-56.2977 162.6747,-52.4642 158.1283,-47.1415"/>
</g>
</g>
</svg>
