<?xml version="1.0" encoding="UTF-8" standalone="no"?>
<!DOCTYPE svg PUBLIC "-//W3C//DTD SVG 1.1//EN"
 "http://www.w3.org/Graphics/SVG/1.1/DTD/svg11.dtd">
<!-- Generated by graphviz version 2.40.1 (20161225.0304)
 -->
<!-- Title: cpu/native/include/candev_linux.h Pages: 1 -->
<svg width="551pt" height="319pt"
 viewBox="0.00 0.00 550.50 319.00" xmlns="http://www.w3.org/2000/svg" xmlns:xlink="http://www.w3.org/1999/xlink">
<g id="graph0" class="graph" transform="scale(1 1) rotate(0) translate(4 315)">
<title>cpu/native/include/candev_linux.h</title>
<!-- Node0 -->
<g id="node1" class="node">
<title>Node0</title>
<polygon fill="#bfbfbf" stroke="#000000" points="297,-280.5 297,-310.5 392,-310.5 392,-280.5 297,-280.5"/>
<text text-anchor="start" x="305" y="-298.5" font-family="Helvetica,sans-Serif" font-size="10.00" fill="#000000">cpu/native/include</text>
<text text-anchor="middle" x="344.5" y="-287.5" font-family="Helvetica,sans-Serif" font-size="10.00" fill="#000000">/candev_linux.h</text>
</g>
<!-- Node1 -->
<g id="node2" class="node">
<title>Node1</title>
<polygon fill="none" stroke="#bfbfbf" points="232.5,-224.5 232.5,-243.5 288.5,-243.5 288.5,-224.5 232.5,-224.5"/>
<text text-anchor="middle" x="260.5" y="-231.5" font-family="Helvetica,sans-Serif" font-size="10.00" fill="#000000">stdbool.h</text>
</g>
<!-- Node0&#45;&gt;Node1 -->
<g id="edge1" class="edge">
<title>Node0&#45;&gt;Node1</title>
<path fill="none" stroke="#191970" d="M323.7359,-280.2977C311.1042,-271.0495 294.9947,-259.2551 282.1969,-249.8853"/>
<polygon fill="#191970" stroke="#191970" points="284.0857,-246.9303 273.9495,-243.8469 279.9505,-252.5784 284.0857,-246.9303"/>
</g>
<!-- Node2 -->
<g id="node3" class="node">
<title>Node2</title>
<g id="a_node3"><a xlink:href="candev_8h.html" target="_top" xlink:title="Definitions for low&#45;level CAN driver interface. ">
<polygon fill="none" stroke="#000000" points="307,-224.5 307,-243.5 382,-243.5 382,-224.5 307,-224.5"/>
<text text-anchor="middle" x="344.5" y="-231.5" font-family="Helvetica,sans-Serif" font-size="10.00" fill="#000000">can/candev.h</text>
</a>
</g>
</g>
<!-- Node0&#45;&gt;Node2 -->
<g id="edge2" class="edge">
<title>Node0&#45;&gt;Node2</title>
<path fill="none" stroke="#191970" d="M344.5,-280.2977C344.5,-272.3834 344.5,-262.6043 344.5,-254.0759"/>
<polygon fill="#191970" stroke="#191970" points="348.0001,-253.8469 344.5,-243.8469 341.0001,-253.847 348.0001,-253.8469"/>
</g>
<!-- Node13 -->
<g id="node14" class="node">
<title>Node13</title>
<g id="a_node14"><a xlink:href="mutex_8h.html" target="_top" xlink:title="Mutex for thread synchronization. ">
<polygon fill="none" stroke="#000000" points="434.5,-168.5 434.5,-187.5 486.5,-187.5 486.5,-168.5 434.5,-168.5"/>
<text text-anchor="middle" x="460.5" y="-175.5" font-family="Helvetica,sans-Serif" font-size="10.00" fill="#000000">mutex.h</text>
</a>
</g>
</g>
<!-- Node0&#45;&gt;Node13 -->
<g id="edge22" class="edge">
<title>Node0&#45;&gt;Node13</title>
<path fill="none" stroke="#191970" d="M359.665,-280.1389C381.4194,-258.1032 421.3389,-217.6675 443.8746,-194.8403"/>
<polygon fill="#191970" stroke="#191970" points="446.5278,-197.1348 451.0626,-187.5595 441.5463,-192.2169 446.5278,-197.1348"/>
</g>
<!-- Node3 -->
<g id="node4" class="node">
<title>Node3</title>
<polygon fill="none" stroke="#bfbfbf" points="305,-56.5 305,-75.5 354,-75.5 354,-56.5 305,-56.5"/>
<text text-anchor="middle" x="329.5" y="-63.5" font-family="Helvetica,sans-Serif" font-size="10.00" fill="#000000">stdint.h</text>
</g>
<!-- Node2&#45;&gt;Node3 -->
<g id="edge3" class="edge">
<title>Node2&#45;&gt;Node3</title>
<path fill="none" stroke="#191970" d="M343.6506,-224.4862C341.2794,-197.9293 334.5505,-122.5651 331.3005,-86.1655"/>
<polygon fill="#191970" stroke="#191970" points="334.753,-85.477 330.3775,-75.8279 327.7808,-86.0996 334.753,-85.477"/>
</g>
<!-- Node4 -->
<g id="node5" class="node">
<title>Node4</title>
<g id="a_node5"><a xlink:href="stdlib_8h.html" target="_top" xlink:title="stdlib.h wrapper for MSP430 ">
<polygon fill="none" stroke="#000000" points="2.5,-56.5 2.5,-75.5 50.5,-75.5 50.5,-56.5 2.5,-56.5"/>
<text text-anchor="middle" x="26.5" y="-63.5" font-family="Helvetica,sans-Serif" font-size="10.00" fill="#000000">stdlib.h</text>
</a>
</g>
</g>
<!-- Node2&#45;&gt;Node4 -->
<g id="edge4" class="edge">
<title>Node2&#45;&gt;Node4</title>
<path fill="none" stroke="#191970" d="M306.9913,-224.5262C238.5603,-206.6115 97.1205,-166.4729 60.5,-132 46.9061,-119.2033 37.8107,-99.759 32.4751,-85.286"/>
<polygon fill="#191970" stroke="#191970" points="35.7793,-84.1312 29.2438,-75.7922 29.1526,-86.3866 35.7793,-84.1312"/>
</g>
<!-- Node6 -->
<g id="node7" class="node">
<title>Node6</title>
<g id="a_node7"><a xlink:href="sys_2include_2can_2can_8h.html" target="_top" xlink:title="Definitions high&#45;level CAN interface. ">
<polygon fill="none" stroke="#000000" points="357,-168.5 357,-187.5 416,-187.5 416,-168.5 357,-168.5"/>
<text text-anchor="middle" x="386.5" y="-175.5" font-family="Helvetica,sans-Serif" font-size="10.00" fill="#000000">can/can.h</text>
</a>
</g>
</g>
<!-- Node2&#45;&gt;Node6 -->
<g id="edge7" class="edge">
<title>Node2&#45;&gt;Node6</title>
<path fill="none" stroke="#191970" d="M351.8158,-224.2455C357.7179,-216.3761 366.1742,-205.101 373.2594,-195.6542"/>
<polygon fill="#191970" stroke="#191970" points="376.068,-197.7427 379.268,-187.6427 370.4679,-193.5427 376.068,-197.7427"/>
</g>
<!-- Node7 -->
<g id="node8" class="node">
<title>Node7</title>
<g id="a_node8"><a xlink:href="include_2can_2common_8h.html" target="_top" xlink:title="Definitions of high&#45;level CAN interface. ">
<polygon fill="none" stroke="#000000" points="197,-168.5 197,-187.5 278,-187.5 278,-168.5 197,-168.5"/>
<text text-anchor="middle" x="237.5" y="-175.5" font-family="Helvetica,sans-Serif" font-size="10.00" fill="#000000">can/common.h</text>
</a>
</g>
</g>
<!-- Node2&#45;&gt;Node7 -->
<g id="edge9" class="edge">
<title>Node2&#45;&gt;Node7</title>
<path fill="none" stroke="#191970" d="M325.862,-224.2455C309.0614,-215.4527 284.1366,-202.4079 265.0382,-192.4125"/>
<polygon fill="#191970" stroke="#191970" points="266.4073,-189.1787 255.9244,-187.6427 263.1614,-195.3807 266.4073,-189.1787"/>
</g>
<!-- Node2&#45;&gt;Node13 -->
<g id="edge18" class="edge">
<title>Node2&#45;&gt;Node13</title>
<path fill="none" stroke="#191970" d="M364.4411,-224.3733C382.9786,-215.4241 410.8028,-201.9917 431.7413,-191.8835"/>
<polygon fill="#191970" stroke="#191970" points="433.3352,-195.0006 440.8191,-187.5011 430.2919,-188.6967 433.3352,-195.0006"/>
</g>
<!-- Node5 -->
<g id="node6" class="node">
<title>Node5</title>
<g id="a_node6"><a xlink:href="malloc_8h.html" target="_top" xlink:title="malloc.h">
<polygon fill="none" stroke="#000000" points="0,-.5 0,-19.5 53,-19.5 53,-.5 0,-.5"/>
<text text-anchor="middle" x="26.5" y="-7.5" font-family="Helvetica,sans-Serif" font-size="10.00" fill="#000000">malloc.h</text>
</a>
</g>
</g>
<!-- Node4&#45;&gt;Node5 -->
<g id="edge5" class="edge">
<title>Node4&#45;&gt;Node5</title>
<path fill="none" stroke="#191970" d="M21.2332,-56.2455C19.8221,-48.9382 19.4179,-38.6944 20.0205,-29.7046"/>
<polygon fill="#191970" stroke="#191970" points="23.5111,-29.9945 21.2549,-19.6427 16.5632,-29.1421 23.5111,-29.9945"/>
</g>
<!-- Node5&#45;&gt;Node4 -->
<g id="edge6" class="edge">
<title>Node5&#45;&gt;Node4</title>
<path fill="none" stroke="#191970" d="M31.7451,-19.6427C33.1665,-26.9199 33.581,-37.155 32.9887,-46.1575"/>
<polygon fill="#191970" stroke="#191970" points="29.4947,-45.8972 31.7668,-56.2455 36.4439,-46.739 29.4947,-45.8972"/>
</g>
<!-- Node6&#45;&gt;Node3 -->
<g id="edge8" class="edge">
<title>Node6&#45;&gt;Node3</title>
<path fill="none" stroke="#191970" d="M381.6402,-168.4509C372.2174,-149.936 351.3122,-108.8591 339.0265,-84.7187"/>
<polygon fill="#191970" stroke="#191970" points="342.0025,-82.8496 334.3475,-75.5249 335.7639,-86.0246 342.0025,-82.8496"/>
</g>
<!-- Node7&#45;&gt;Node3 -->
<g id="edge10" class="edge">
<title>Node7&#45;&gt;Node3</title>
<path fill="none" stroke="#191970" d="M245.3439,-168.4509C260.8242,-149.6054 295.5053,-107.3849 315.1727,-83.4419"/>
<polygon fill="#191970" stroke="#191970" points="318.0331,-85.4738 321.676,-75.5249 312.624,-81.0306 318.0331,-85.4738"/>
</g>
<!-- Node8 -->
<g id="node9" class="node">
<title>Node8</title>
<g id="a_node9"><a xlink:href="uio_8h.html" target="_top" xlink:title="libc header for scatter/gather I/O ">
<polygon fill="none" stroke="#000000" points="69.5,-112.5 69.5,-131.5 125.5,-131.5 125.5,-112.5 69.5,-112.5"/>
<text text-anchor="middle" x="97.5" y="-119.5" font-family="Helvetica,sans-Serif" font-size="10.00" fill="#000000">sys/uio.h</text>
</a>
</g>
</g>
<!-- Node7&#45;&gt;Node8 -->
<g id="edge11" class="edge">
<title>Node7&#45;&gt;Node8</title>
<path fill="none" stroke="#191970" d="M213.4331,-168.3733C190.6572,-159.2629 156.2656,-145.5062 130.851,-135.3404"/>
<polygon fill="#191970" stroke="#191970" points="131.8375,-131.9654 121.2528,-131.5011 129.2377,-138.4648 131.8375,-131.9654"/>
</g>
<!-- Node10 -->
<g id="node11" class="node">
<title>Node10</title>
<g id="a_node11"><a xlink:href="timex_8h.html" target="_top" xlink:title="Utility library for comparing and computing timestamps. ">
<polygon fill="none" stroke="#000000" points="144,-112.5 144,-131.5 193,-131.5 193,-112.5 144,-112.5"/>
<text text-anchor="middle" x="168.5" y="-119.5" font-family="Helvetica,sans-Serif" font-size="10.00" fill="#000000">timex.h</text>
</a>
</g>
</g>
<!-- Node7&#45;&gt;Node10 -->
<g id="edge14" class="edge">
<title>Node7&#45;&gt;Node10</title>
<path fill="none" stroke="#191970" d="M225.4811,-168.2455C215.2902,-159.9746 200.4638,-147.9416 188.4893,-138.2232"/>
<polygon fill="#191970" stroke="#191970" points="190.3514,-135.2268 180.3812,-131.6427 185.9402,-140.662 190.3514,-135.2268"/>
</g>
<!-- Node12 -->
<g id="node13" class="node">
<title>Node12</title>
<polygon fill="none" stroke="#bfbfbf" points="211.5,-112.5 211.5,-131.5 263.5,-131.5 263.5,-112.5 211.5,-112.5"/>
<text text-anchor="middle" x="237.5" y="-119.5" font-family="Helvetica,sans-Serif" font-size="10.00" fill="#000000">thread.h</text>
</g>
<!-- Node7&#45;&gt;Node12 -->
<g id="edge17" class="edge">
<title>Node7&#45;&gt;Node12</title>
<path fill="none" stroke="#191970" d="M237.5,-168.2455C237.5,-160.9382 237.5,-150.6944 237.5,-141.7046"/>
<polygon fill="#191970" stroke="#191970" points="241.0001,-141.6426 237.5,-131.6427 234.0001,-141.6427 241.0001,-141.6426"/>
</g>
<!-- Node8&#45;&gt;Node4 -->
<g id="edge12" class="edge">
<title>Node8&#45;&gt;Node4</title>
<path fill="none" stroke="#191970" d="M85.1327,-112.2455C74.5446,-103.8943 59.0936,-91.7076 46.7107,-81.9408"/>
<polygon fill="#191970" stroke="#191970" points="48.7447,-79.0875 38.7255,-75.6427 44.4097,-84.5837 48.7447,-79.0875"/>
</g>
<!-- Node9 -->
<g id="node10" class="node">
<title>Node9</title>
<polygon fill="none" stroke="#bfbfbf" points="68.5,-56.5 68.5,-75.5 136.5,-75.5 136.5,-56.5 68.5,-56.5"/>
<text text-anchor="middle" x="102.5" y="-63.5" font-family="Helvetica,sans-Serif" font-size="10.00" fill="#000000">sys/types.h</text>
</g>
<!-- Node8&#45;&gt;Node9 -->
<g id="edge13" class="edge">
<title>Node8&#45;&gt;Node9</title>
<path fill="none" stroke="#191970" d="M98.3709,-112.2455C99.0234,-104.9382 99.938,-94.6944 100.7407,-85.7046"/>
<polygon fill="#191970" stroke="#191970" points="104.2358,-85.9143 101.639,-75.6427 97.2635,-85.2918 104.2358,-85.9143"/>
</g>
<!-- Node10&#45;&gt;Node3 -->
<g id="edge15" class="edge">
<title>Node10&#45;&gt;Node3</title>
<path fill="none" stroke="#191970" d="M193.3034,-113.3727C220.5648,-103.8905 264.5413,-88.5943 295.1197,-77.9584"/>
<polygon fill="#191970" stroke="#191970" points="296.6375,-81.1362 304.9326,-74.5452 294.3378,-74.5247 296.6375,-81.1362"/>
</g>
<!-- Node11 -->
<g id="node12" class="node">
<title>Node11</title>
<g id="a_node12"><a xlink:href="inttypes_8h.html" target="_top" xlink:title="Adds include for missing inttype definitions. ">
<polygon fill="none" stroke="#000000" points="155,-56.5 155,-75.5 214,-75.5 214,-56.5 155,-56.5"/>
<text text-anchor="middle" x="184.5" y="-63.5" font-family="Helvetica,sans-Serif" font-size="10.00" fill="#000000">inttypes.h</text>
</a>
</g>
</g>
<!-- Node10&#45;&gt;Node11 -->
<g id="edge16" class="edge">
<title>Node10&#45;&gt;Node11</title>
<path fill="none" stroke="#191970" d="M171.287,-112.2455C173.3977,-104.8579 176.366,-94.4689 178.9547,-85.4087"/>
<polygon fill="#191970" stroke="#191970" points="182.363,-86.2195 181.745,-75.6427 175.6323,-84.2964 182.363,-86.2195"/>
</g>
<!-- Node13&#45;&gt;Node3 -->
<g id="edge20" class="edge">
<title>Node13&#45;&gt;Node3</title>
<path fill="none" stroke="#191970" d="M449.331,-168.4509C426.9017,-149.2747 376.1643,-105.8962 348.4468,-82.1988"/>
<polygon fill="#191970" stroke="#191970" points="350.5159,-79.363 340.6407,-75.5249 345.9671,-84.6835 350.5159,-79.363"/>
</g>
<!-- Node14 -->
<g id="node15" class="node">
<title>Node14</title>
<polygon fill="none" stroke="#bfbfbf" points="434.5,-112.5 434.5,-131.5 486.5,-131.5 486.5,-112.5 434.5,-112.5"/>
<text text-anchor="middle" x="460.5" y="-119.5" font-family="Helvetica,sans-Serif" font-size="10.00" fill="#000000">stddef.h</text>
</g>
<!-- Node13&#45;&gt;Node14 -->
<g id="edge19" class="edge">
<title>Node13&#45;&gt;Node14</title>
<path fill="none" stroke="#191970" d="M460.5,-168.2455C460.5,-160.9382 460.5,-150.6944 460.5,-141.7046"/>
<polygon fill="#191970" stroke="#191970" points="464.0001,-141.6426 460.5,-131.6427 457.0001,-141.6427 464.0001,-141.6426"/>
</g>
<!-- Node15 -->
<g id="node16" class="node">
<title>Node15</title>
<g id="a_node16"><a xlink:href="list_8h.html" target="_top" xlink:title="Intrusive linked list. ">
<polygon fill="none" stroke="#000000" points="504.5,-112.5 504.5,-131.5 542.5,-131.5 542.5,-112.5 504.5,-112.5"/>
<text text-anchor="middle" x="523.5" y="-119.5" font-family="Helvetica,sans-Serif" font-size="10.00" fill="#000000">list.h</text>
</a>
</g>
</g>
<!-- Node13&#45;&gt;Node15 -->
<g id="edge21" class="edge">
<title>Node13&#45;&gt;Node15</title>
<path fill="none" stroke="#191970" d="M471.4738,-168.2455C480.6882,-160.0549 494.0532,-148.1749 504.9297,-138.5069"/>
<polygon fill="#191970" stroke="#191970" points="507.5032,-140.9023 512.652,-131.6427 502.8526,-135.6704 507.5032,-140.9023"/>
</g>
</g>
</svg>
