<?xml version="1.0" encoding="UTF-8" standalone="no"?>
<!DOCTYPE svg PUBLIC "-//W3C//DTD SVG 1.1//EN"
 "http://www.w3.org/Graphics/SVG/1.1/DTD/svg11.dtd">
<!-- Generated by graphviz version 2.43.0 (0)
 -->
<!-- Title: drivers/include/candev_mcp2515.h Pages: 1 -->
<svg width="1560pt" height="543pt"
 viewBox="0.00 0.00 1560.03 543.00" xmlns="http://www.w3.org/2000/svg" xmlns:xlink="http://www.w3.org/1999/xlink">
<g id="graph0" class="graph" transform="scale(1 1) rotate(0) translate(4 539)">
<title>drivers/include/candev_mcp2515.h</title>
<!-- Node1 -->
<g id="node1" class="node">
<title>Node1</title>
<g id="a_node1"><a xlink:title="Definition of the implementation of the CAN controller driver.">
<polygon fill="#bfbfbf" stroke="black" points="649.53,-504.5 649.53,-534.5 776.53,-534.5 776.53,-504.5 649.53,-504.5"/>
<text text-anchor="start" x="657.53" y="-522.5" font-family="Helvetica,sans-Serif" font-size="10.00">drivers/include/candev</text>
<text text-anchor="middle" x="713.03" y="-511.5" font-family="Helvetica,sans-Serif" font-size="10.00">_mcp2515.h</text>
</a>
</g>
</g>
<!-- Node2 -->
<g id="node2" class="node">
<title>Node2</title>
<g id="a_node2"><a xlink:title=" ">
<polygon fill="none" stroke="#bfbfbf" points="985.03,-168.5 985.03,-187.5 1047.03,-187.5 1047.03,-168.5 985.03,-168.5"/>
<text text-anchor="middle" x="1016.03" y="-175.5" font-family="Helvetica,sans-Serif" font-size="10.00">stdbool.h</text>
</a>
</g>
</g>
<!-- Node1&#45;&gt;Node2 -->
<g id="edge1" class="edge">
<title>Node1&#45;&gt;Node2</title>
<path fill="none" stroke="midnightblue" d="M649.2,-514.16C613.83,-508.51 571.58,-495.88 544.03,-468 519.77,-443.45 514.68,-423.83 528.03,-392 541.77,-359.25 556.84,-357.59 585.03,-336 594.8,-328.52 764.51,-228.31 776.03,-224 842.99,-198.96 925.87,-187.38 974.65,-182.4"/>
<polygon fill="midnightblue" stroke="midnightblue" points="975.2,-185.86 984.81,-181.4 974.52,-178.89 975.2,-185.86"/>
</g>
<!-- Node3 -->
<g id="node3" class="node">
<title>Node3</title>
<g id="a_node3"><a xlink:href="candev_8h.html" target="_top" xlink:title="Definitions for low&#45;level CAN driver interface.">
<polygon fill="none" stroke="black" points="215.03,-392.5 215.03,-411.5 295.03,-411.5 295.03,-392.5 215.03,-392.5"/>
<text text-anchor="middle" x="255.03" y="-399.5" font-family="Helvetica,sans-Serif" font-size="10.00">can/candev.h</text>
</a>
</g>
</g>
<!-- Node1&#45;&gt;Node3 -->
<g id="edge2" class="edge">
<title>Node1&#45;&gt;Node3</title>
<path fill="none" stroke="midnightblue" d="M649.48,-514C583.63,-508.08 478.32,-495.07 391.03,-468 349.63,-455.16 304.86,-431.72 278.42,-416.77"/>
<polygon fill="midnightblue" stroke="midnightblue" points="279.97,-413.63 269.55,-411.69 276.49,-419.7 279.97,-413.63"/>
</g>
<!-- Node13 -->
<g id="node13" class="node">
<title>Node13</title>
<g id="a_node13"><a xlink:href="mutex_8h.html" target="_top" xlink:title="Mutex for thread synchronization.">
<polygon fill="none" stroke="black" points="672.53,-336.5 672.53,-355.5 729.53,-355.5 729.53,-336.5 672.53,-336.5"/>
<text text-anchor="middle" x="701.03" y="-343.5" font-family="Helvetica,sans-Serif" font-size="10.00">mutex.h</text>
</a>
</g>
</g>
<!-- Node1&#45;&gt;Node13 -->
<g id="edge58" class="edge">
<title>Node1&#45;&gt;Node13</title>
<path fill="none" stroke="midnightblue" d="M712.05,-504.47C709.9,-473.7 704.77,-400.33 702.34,-365.7"/>
<polygon fill="midnightblue" stroke="midnightblue" points="705.82,-365.29 701.63,-355.56 698.84,-365.78 705.82,-365.29"/>
</g>
<!-- Node16 -->
<g id="node16" class="node">
<title>Node16</title>
<g id="a_node16"><a xlink:title=" ">
<polygon fill="none" stroke="#bfbfbf" points="785.03,-224.5 785.03,-243.5 853.03,-243.5 853.03,-224.5 785.03,-224.5"/>
<text text-anchor="middle" x="819.03" y="-231.5" font-family="Helvetica,sans-Serif" font-size="10.00">cpu_conf.h</text>
</a>
</g>
</g>
<!-- Node1&#45;&gt;Node16 -->
<g id="edge45" class="edge">
<title>Node1&#45;&gt;Node16</title>
<path fill="none" stroke="midnightblue" d="M658.06,-504.46C595.35,-485.49 505.45,-447.53 538.03,-392 552.56,-367.25 724.67,-281.15 792.14,-248.08"/>
<polygon fill="midnightblue" stroke="midnightblue" points="793.86,-251.13 801.3,-243.6 790.78,-244.84 793.86,-251.13"/>
</g>
<!-- Node27 -->
<g id="node27" class="node">
<title>Node27</title>
<g id="a_node27"><a xlink:href="gpio_8h.html" target="_top" xlink:title="Low&#45;level GPIO peripheral driver interface definitions.">
<polygon fill="none" stroke="black" points="1406.03,-280.5 1406.03,-299.5 1486.03,-299.5 1486.03,-280.5 1406.03,-280.5"/>
<text text-anchor="middle" x="1446.03" y="-287.5" font-family="Helvetica,sans-Serif" font-size="10.00">periph/gpio.h</text>
</a>
</g>
</g>
<!-- Node1&#45;&gt;Node27 -->
<g id="edge46" class="edge">
<title>Node1&#45;&gt;Node27</title>
<path fill="none" stroke="midnightblue" d="M776.77,-517.67C864.13,-515.09 1025.25,-505.17 1157.03,-468 1213.68,-452.02 1225.98,-441.28 1277.03,-412 1334.87,-378.83 1397.25,-330.51 1427.49,-306.19"/>
<polygon fill="midnightblue" stroke="midnightblue" points="1429.91,-308.74 1435.47,-299.72 1425.5,-303.3 1429.91,-308.74"/>
</g>
<!-- Node31 -->
<g id="node31" class="node">
<title>Node31</title>
<g id="a_node31"><a xlink:href="spi_8h.html" target="_top" xlink:title="Low&#45;level SPI peripheral driver interface definition.">
<polygon fill="none" stroke="black" points="1275.03,-336.5 1275.03,-355.5 1349.03,-355.5 1349.03,-336.5 1275.03,-336.5"/>
<text text-anchor="middle" x="1312.03" y="-343.5" font-family="Helvetica,sans-Serif" font-size="10.00">periph/spi.h</text>
</a>
</g>
</g>
<!-- Node1&#45;&gt;Node31 -->
<g id="edge50" class="edge">
<title>Node1&#45;&gt;Node31</title>
<path fill="none" stroke="midnightblue" d="M776.55,-518.24C881.75,-515.23 1095.94,-498 1251.03,-412 1271.88,-400.44 1289.73,-379.26 1300.63,-364.22"/>
<polygon fill="midnightblue" stroke="midnightblue" points="1303.66,-366 1306.49,-355.79 1297.91,-362 1303.66,-366"/>
</g>
<!-- Node32 -->
<g id="node32" class="node">
<title>Node32</title>
<g id="a_node32"><a xlink:href="xtimer_8h.html" target="_top" xlink:title="xtimer interface definitions">
<polygon fill="none" stroke="black" points="788.03,-448.5 788.03,-467.5 846.03,-467.5 846.03,-448.5 788.03,-448.5"/>
<text text-anchor="middle" x="817.03" y="-455.5" font-family="Helvetica,sans-Serif" font-size="10.00">xtimer.h</text>
</a>
</g>
</g>
<!-- Node1&#45;&gt;Node32 -->
<g id="edge59" class="edge">
<title>Node1&#45;&gt;Node32</title>
<path fill="none" stroke="midnightblue" d="M737.68,-504.4C754.35,-494.86 776.26,-482.32 792.84,-472.84"/>
<polygon fill="midnightblue" stroke="midnightblue" points="794.96,-475.66 801.9,-467.66 791.48,-469.59 794.96,-475.66"/>
</g>
<!-- Node4 -->
<g id="node4" class="node">
<title>Node4</title>
<g id="a_node4"><a xlink:title=" ">
<polygon fill="none" stroke="#bfbfbf" points="435.53,-0.5 435.53,-19.5 488.53,-19.5 488.53,-0.5 435.53,-0.5"/>
<text text-anchor="middle" x="462.03" y="-7.5" font-family="Helvetica,sans-Serif" font-size="10.00">stdint.h</text>
</a>
</g>
</g>
<!-- Node3&#45;&gt;Node4 -->
<g id="edge3" class="edge">
<title>Node3&#45;&gt;Node4</title>
<path fill="none" stroke="midnightblue" d="M214.79,-401.1C143.17,-398.93 1.03,-383.03 1.03,-291 1.03,-291 1.03,-291 1.03,-121 1.03,-90.9 -3.1,-75.25 20.03,-56 50.93,-30.3 324.45,-16.62 425.09,-12.42"/>
<polygon fill="midnightblue" stroke="midnightblue" points="425.53,-15.91 435.38,-12 425.24,-8.91 425.53,-15.91"/>
</g>
<!-- Node5 -->
<g id="node5" class="node">
<title>Node5</title>
<g id="a_node5"><a xlink:title=" ">
<polygon fill="none" stroke="#bfbfbf" points="219.53,-224.5 219.53,-243.5 272.53,-243.5 272.53,-224.5 219.53,-224.5"/>
<text text-anchor="middle" x="246.03" y="-231.5" font-family="Helvetica,sans-Serif" font-size="10.00">stdlib.h</text>
</a>
</g>
</g>
<!-- Node3&#45;&gt;Node5 -->
<g id="edge4" class="edge">
<title>Node3&#45;&gt;Node5</title>
<path fill="none" stroke="midnightblue" d="M259.15,-392.28C263.09,-383.38 268.78,-369.07 271.03,-356 276.78,-322.71 279.51,-312.7 271.03,-280 268.49,-270.18 263.28,-260.21 258.28,-252.17"/>
<polygon fill="midnightblue" stroke="midnightblue" points="261.11,-250.11 252.66,-243.73 255.29,-253.99 261.11,-250.11"/>
</g>
<!-- Node6 -->
<g id="node6" class="node">
<title>Node6</title>
<g id="a_node6"><a xlink:href="sys_2include_2can_2can_8h.html" target="_top" xlink:title="Definitions high&#45;level CAN interface.">
<polygon fill="none" stroke="black" points="29.53,-56.5 29.53,-75.5 92.53,-75.5 92.53,-56.5 29.53,-56.5"/>
<text text-anchor="middle" x="61.03" y="-63.5" font-family="Helvetica,sans-Serif" font-size="10.00">can/can.h</text>
</a>
</g>
</g>
<!-- Node3&#45;&gt;Node6 -->
<g id="edge5" class="edge">
<title>Node3&#45;&gt;Node6</title>
<path fill="none" stroke="midnightblue" d="M214.84,-396.25C158.01,-387.05 61.03,-361.08 61.03,-291 61.03,-291 61.03,-291 61.03,-177 61.03,-144.95 61.03,-107.64 61.03,-85.75"/>
<polygon fill="midnightblue" stroke="midnightblue" points="64.53,-85.56 61.03,-75.56 57.53,-85.56 64.53,-85.56"/>
</g>
<!-- Node7 -->
<g id="node7" class="node">
<title>Node7</title>
<g id="a_node7"><a xlink:href="can_2common_8h.html" target="_top" xlink:title="Definitions of high&#45;level CAN interface.">
<polygon fill="none" stroke="black" points="173.53,-336.5 173.53,-355.5 262.53,-355.5 262.53,-336.5 173.53,-336.5"/>
<text text-anchor="middle" x="218.03" y="-343.5" font-family="Helvetica,sans-Serif" font-size="10.00">can/common.h</text>
</a>
</g>
</g>
<!-- Node3&#45;&gt;Node7 -->
<g id="edge7" class="edge">
<title>Node3&#45;&gt;Node7</title>
<path fill="none" stroke="midnightblue" d="M248.92,-392.08C243.75,-384.53 236.19,-373.49 229.84,-364.23"/>
<polygon fill="midnightblue" stroke="midnightblue" points="232.57,-362.02 224.03,-355.75 226.8,-365.98 232.57,-362.02"/>
</g>
<!-- Node3&#45;&gt;Node13 -->
<g id="edge16" class="edge">
<title>Node3&#45;&gt;Node13</title>
<path fill="none" stroke="midnightblue" d="M295.4,-396.11C380.74,-385.78 578.49,-361.84 662.34,-351.69"/>
<polygon fill="midnightblue" stroke="midnightblue" points="662.95,-355.14 672.46,-350.46 662.11,-348.19 662.95,-355.14"/>
</g>
<!-- Node6&#45;&gt;Node4 -->
<g id="edge6" class="edge">
<title>Node6&#45;&gt;Node4</title>
<path fill="none" stroke="midnightblue" d="M92.66,-58.52C97.47,-57.62 102.37,-56.75 107.03,-56 222.65,-37.38 360.49,-21.78 425.13,-14.85"/>
<polygon fill="midnightblue" stroke="midnightblue" points="425.65,-18.32 435.23,-13.78 424.91,-11.36 425.65,-18.32"/>
</g>
<!-- Node7&#45;&gt;Node4 -->
<g id="edge8" class="edge">
<title>Node7&#45;&gt;Node4</title>
<path fill="none" stroke="midnightblue" d="M173.34,-336.48C152.81,-330.09 130.34,-319.02 118.03,-300 99.69,-271.64 105.94,-255.54 118.03,-224 153.97,-130.26 182.61,-107.09 269.03,-56 318.21,-26.93 384.79,-16.64 425.51,-13"/>
<polygon fill="midnightblue" stroke="midnightblue" points="425.84,-16.48 435.53,-12.19 425.28,-9.5 425.84,-16.48"/>
</g>
<!-- Node8 -->
<g id="node8" class="node">
<title>Node8</title>
<g id="a_node8"><a xlink:href="uio_8h.html" target="_top" xlink:title="libc header for scatter/gather I/O">
<polygon fill="none" stroke="black" points="127.03,-280.5 127.03,-299.5 187.03,-299.5 187.03,-280.5 127.03,-280.5"/>
<text text-anchor="middle" x="157.03" y="-287.5" font-family="Helvetica,sans-Serif" font-size="10.00">sys/uio.h</text>
</a>
</g>
</g>
<!-- Node7&#45;&gt;Node8 -->
<g id="edge9" class="edge">
<title>Node7&#45;&gt;Node8</title>
<path fill="none" stroke="midnightblue" d="M208.23,-336.32C199.22,-328.34 185.63,-316.31 174.72,-306.65"/>
<polygon fill="midnightblue" stroke="midnightblue" points="176.82,-303.84 167.01,-299.83 172.18,-309.08 176.82,-303.84"/>
</g>
<!-- Node10 -->
<g id="node10" class="node">
<title>Node10</title>
<g id="a_node10"><a xlink:href="timex_8h.html" target="_top" xlink:title="Utility library for comparing and computing timestamps.">
<polygon fill="none" stroke="black" points="337.03,-168.5 337.03,-187.5 391.03,-187.5 391.03,-168.5 337.03,-168.5"/>
<text text-anchor="middle" x="364.03" y="-175.5" font-family="Helvetica,sans-Serif" font-size="10.00">timex.h</text>
</a>
</g>
</g>
<!-- Node7&#45;&gt;Node10 -->
<g id="edge12" class="edge">
<title>Node7&#45;&gt;Node10</title>
<path fill="none" stroke="midnightblue" d="M229.61,-336.34C240.77,-327.71 257.88,-313.81 271.03,-300 303.62,-265.79 335.94,-220.53 352.55,-196.21"/>
<polygon fill="midnightblue" stroke="midnightblue" points="355.59,-197.95 358.29,-187.71 349.79,-194.03 355.59,-197.95"/>
</g>
<!-- Node12 -->
<g id="node12" class="node">
<title>Node12</title>
<g id="a_node12"><a xlink:title=" ">
<polygon fill="none" stroke="#bfbfbf" points="205.53,-280.5 205.53,-299.5 262.53,-299.5 262.53,-280.5 205.53,-280.5"/>
<text text-anchor="middle" x="234.03" y="-287.5" font-family="Helvetica,sans-Serif" font-size="10.00">thread.h</text>
</a>
</g>
</g>
<!-- Node7&#45;&gt;Node12 -->
<g id="edge15" class="edge">
<title>Node7&#45;&gt;Node12</title>
<path fill="none" stroke="midnightblue" d="M220.68,-336.08C222.82,-328.85 225.91,-318.41 228.58,-309.4"/>
<polygon fill="midnightblue" stroke="midnightblue" points="231.96,-310.33 231.44,-299.75 225.24,-308.34 231.96,-310.33"/>
</g>
<!-- Node8&#45;&gt;Node5 -->
<g id="edge10" class="edge">
<title>Node8&#45;&gt;Node5</title>
<path fill="none" stroke="midnightblue" d="M171.33,-280.32C185.22,-271.9 206.53,-258.97 222.84,-249.07"/>
<polygon fill="midnightblue" stroke="midnightblue" points="225.04,-251.83 231.77,-243.65 221.41,-245.85 225.04,-251.83"/>
</g>
<!-- Node9 -->
<g id="node9" class="node">
<title>Node9</title>
<g id="a_node9"><a xlink:title=" ">
<polygon fill="none" stroke="#bfbfbf" points="127.03,-224.5 127.03,-243.5 199.03,-243.5 199.03,-224.5 127.03,-224.5"/>
<text text-anchor="middle" x="163.03" y="-231.5" font-family="Helvetica,sans-Serif" font-size="10.00">sys/types.h</text>
</a>
</g>
</g>
<!-- Node8&#45;&gt;Node9 -->
<g id="edge11" class="edge">
<title>Node8&#45;&gt;Node9</title>
<path fill="none" stroke="midnightblue" d="M158.03,-280.08C158.82,-272.93 159.96,-262.64 160.96,-253.69"/>
<polygon fill="midnightblue" stroke="midnightblue" points="164.44,-254.08 162.06,-243.75 157.48,-253.3 164.44,-254.08"/>
</g>
<!-- Node10&#45;&gt;Node4 -->
<g id="edge13" class="edge">
<title>Node10&#45;&gt;Node4</title>
<path fill="none" stroke="midnightblue" d="M356.51,-168.4C346.43,-155.77 330.82,-131.59 340.03,-112 359.47,-70.69 405.01,-40.48 434.62,-24.35"/>
<polygon fill="midnightblue" stroke="midnightblue" points="436.4,-27.36 443.62,-19.61 433.14,-21.17 436.4,-27.36"/>
</g>
<!-- Node11 -->
<g id="node11" class="node">
<title>Node11</title>
<g id="a_node11"><a xlink:href="inttypes_8h.html" target="_top" xlink:title="Adds include for missing inttype definitions.">
<polygon fill="none" stroke="black" points="349.53,-112.5 349.53,-131.5 414.53,-131.5 414.53,-112.5 349.53,-112.5"/>
<text text-anchor="middle" x="382.03" y="-119.5" font-family="Helvetica,sans-Serif" font-size="10.00">inttypes.h</text>
</a>
</g>
</g>
<!-- Node10&#45;&gt;Node11 -->
<g id="edge14" class="edge">
<title>Node10&#45;&gt;Node11</title>
<path fill="none" stroke="midnightblue" d="M367.01,-168.08C369.42,-160.85 372.9,-150.41 375.9,-141.4"/>
<polygon fill="midnightblue" stroke="midnightblue" points="379.28,-142.34 379.12,-131.75 372.63,-140.13 379.28,-142.34"/>
</g>
<!-- Node13&#45;&gt;Node4 -->
<g id="edge18" class="edge">
<title>Node13&#45;&gt;Node4</title>
<path fill="none" stroke="midnightblue" d="M672.27,-343.64C612.64,-339.11 481.03,-319.55 481.03,-235 481.03,-235 481.03,-235 481.03,-121 481.03,-88.49 472.88,-51.35 467.25,-29.61"/>
<polygon fill="midnightblue" stroke="midnightblue" points="470.58,-28.5 464.6,-19.75 463.82,-30.32 470.58,-28.5"/>
</g>
<!-- Node14 -->
<g id="node14" class="node">
<title>Node14</title>
<g id="a_node14"><a xlink:title=" ">
<polygon fill="none" stroke="#bfbfbf" points="1192.03,-0.5 1192.03,-19.5 1248.03,-19.5 1248.03,-0.5 1192.03,-0.5"/>
<text text-anchor="middle" x="1220.03" y="-7.5" font-family="Helvetica,sans-Serif" font-size="10.00">stddef.h</text>
</a>
</g>
</g>
<!-- Node13&#45;&gt;Node14 -->
<g id="edge17" class="edge">
<title>Node13&#45;&gt;Node14</title>
<path fill="none" stroke="midnightblue" d="M729.64,-338.41C756.54,-331.42 797.32,-318.79 829.03,-300 904.58,-255.24 906.22,-221.26 976.03,-168 1052.87,-109.38 1151.58,-50.45 1196.22,-24.59"/>
<polygon fill="midnightblue" stroke="midnightblue" points="1197.99,-27.61 1204.9,-19.59 1194.49,-21.55 1197.99,-27.61"/>
</g>
<!-- Node15 -->
<g id="node15" class="node">
<title>Node15</title>
<g id="a_node15"><a xlink:href="irq_8h.html" target="_top" xlink:title="IRQ driver interface.">
<polygon fill="none" stroke="black" points="918.03,-280.5 918.03,-299.5 956.03,-299.5 956.03,-280.5 918.03,-280.5"/>
<text text-anchor="middle" x="937.03" y="-287.5" font-family="Helvetica,sans-Serif" font-size="10.00">irq.h</text>
</a>
</g>
</g>
<!-- Node13&#45;&gt;Node15 -->
<g id="edge19" class="edge">
<title>Node13&#45;&gt;Node15</title>
<path fill="none" stroke="midnightblue" d="M729.97,-338.38C775.31,-328.01 862.57,-308.04 907.97,-297.65"/>
<polygon fill="midnightblue" stroke="midnightblue" points="908.82,-301.05 917.78,-295.4 907.26,-294.22 908.82,-301.05"/>
</g>
<!-- Node17 -->
<g id="node17" class="node">
<title>Node17</title>
<g id="a_node17"><a xlink:href="kernel__defines_8h.html" target="_top" xlink:title="Common macros and compiler attributes/pragmas configuration.">
<polygon fill="none" stroke="black" points="832.53,-56.5 832.53,-75.5 929.53,-75.5 929.53,-56.5 832.53,-56.5"/>
<text text-anchor="middle" x="881.03" y="-63.5" font-family="Helvetica,sans-Serif" font-size="10.00">kernel_defines.h</text>
</a>
</g>
</g>
<!-- Node13&#45;&gt;Node17 -->
<g id="edge22" class="edge">
<title>Node13&#45;&gt;Node17</title>
<path fill="none" stroke="midnightblue" d="M727.06,-336.41C763.57,-322.92 829.21,-293.1 862.03,-244 894.9,-194.83 889.25,-120.27 884.3,-85.75"/>
<polygon fill="midnightblue" stroke="midnightblue" points="887.72,-85 882.7,-75.67 880.81,-86.1 887.72,-85"/>
</g>
<!-- Node18 -->
<g id="node18" class="node">
<title>Node18</title>
<g id="a_node18"><a xlink:href="list_8h.html" target="_top" xlink:title="Intrusive linked list.">
<polygon fill="none" stroke="black" points="630.53,-56.5 630.53,-75.5 671.53,-75.5 671.53,-56.5 630.53,-56.5"/>
<text text-anchor="middle" x="651.03" y="-63.5" font-family="Helvetica,sans-Serif" font-size="10.00">list.h</text>
</a>
</g>
</g>
<!-- Node13&#45;&gt;Node18 -->
<g id="edge25" class="edge">
<title>Node13&#45;&gt;Node18</title>
<path fill="none" stroke="midnightblue" d="M672.2,-341.03C620.88,-332.18 519.03,-305.7 519.03,-235 519.03,-235 519.03,-235 519.03,-177 519.03,-124.42 581.6,-92.1 620.59,-77.07"/>
<polygon fill="midnightblue" stroke="midnightblue" points="622.24,-80.19 630.41,-73.45 619.82,-73.62 622.24,-80.19"/>
</g>
<!-- Node19 -->
<g id="node19" class="node">
<title>Node19</title>
<g id="a_node19"><a xlink:href="core_2include_2thread_8h.html" target="_top" xlink:title="Threading API.">
<polygon fill="none" stroke="black" points="576.53,-280.5 576.53,-299.5 633.53,-299.5 633.53,-280.5 576.53,-280.5"/>
<text text-anchor="middle" x="605.03" y="-287.5" font-family="Helvetica,sans-Serif" font-size="10.00">thread.h</text>
</a>
</g>
</g>
<!-- Node13&#45;&gt;Node19 -->
<g id="edge26" class="edge">
<title>Node13&#45;&gt;Node19</title>
<path fill="none" stroke="midnightblue" d="M685.61,-336.32C670.49,-327.82 647.22,-314.73 629.56,-304.8"/>
<polygon fill="midnightblue" stroke="midnightblue" points="630.85,-301.51 620.42,-299.65 627.42,-307.61 630.85,-301.51"/>
</g>
<!-- Node15&#45;&gt;Node2 -->
<g id="edge20" class="edge">
<title>Node15&#45;&gt;Node2</title>
<path fill="none" stroke="midnightblue" d="M943.66,-280.45C950.59,-271.46 961.74,-256.85 971.03,-244 982.56,-228.07 995.27,-209.62 1004.24,-196.45"/>
<polygon fill="midnightblue" stroke="midnightblue" points="1007.32,-198.15 1010.04,-187.91 1001.52,-194.22 1007.32,-198.15"/>
</g>
<!-- Node15&#45;&gt;Node16 -->
<g id="edge21" class="edge">
<title>Node15&#45;&gt;Node16</title>
<path fill="none" stroke="midnightblue" d="M918.34,-280.44C899.09,-271.64 868.88,-257.81 846.83,-247.72"/>
<polygon fill="midnightblue" stroke="midnightblue" points="848.19,-244.5 837.64,-243.52 845.28,-250.86 848.19,-244.5"/>
</g>
<!-- Node17&#45;&gt;Node4 -->
<g id="edge24" class="edge">
<title>Node17&#45;&gt;Node4</title>
<path fill="none" stroke="midnightblue" d="M832.15,-58.7C747.2,-47.75 574.22,-25.46 498.69,-15.72"/>
<polygon fill="midnightblue" stroke="midnightblue" points="499.06,-12.24 488.7,-14.44 498.17,-19.19 499.06,-12.24"/>
</g>
<!-- Node17&#45;&gt;Node14 -->
<g id="edge23" class="edge">
<title>Node17&#45;&gt;Node14</title>
<path fill="none" stroke="midnightblue" d="M929.6,-57.26C997.62,-46.43 1119.84,-26.96 1181.8,-17.09"/>
<polygon fill="midnightblue" stroke="midnightblue" points="1182.6,-20.51 1191.92,-15.48 1181.49,-13.6 1182.6,-20.51"/>
</g>
<!-- Node19&#45;&gt;Node16 -->
<g id="edge43" class="edge">
<title>Node19&#45;&gt;Node16</title>
<path fill="none" stroke="midnightblue" d="M633.9,-281.72C670.23,-272.55 732.99,-256.71 775.25,-246.05"/>
<polygon fill="midnightblue" stroke="midnightblue" points="776.15,-249.43 784.99,-243.59 774.44,-242.64 776.15,-249.43"/>
</g>
<!-- Node20 -->
<g id="node20" class="node">
<title>Node20</title>
<g id="a_node20"><a xlink:href="clist_8h.html" target="_top" xlink:title="Circular linked list.">
<polygon fill="none" stroke="black" points="629.03,-112.5 629.03,-131.5 675.03,-131.5 675.03,-112.5 629.03,-112.5"/>
<text text-anchor="middle" x="652.03" y="-119.5" font-family="Helvetica,sans-Serif" font-size="10.00">clist.h</text>
</a>
</g>
</g>
<!-- Node19&#45;&gt;Node20 -->
<g id="edge27" class="edge">
<title>Node19&#45;&gt;Node20</title>
<path fill="none" stroke="midnightblue" d="M597.36,-280.46C590.26,-271.93 580.18,-258.09 576.03,-244 566.5,-211.6 559.31,-197.34 576.03,-168 585.34,-151.67 603.16,-140.66 619.2,-133.63"/>
<polygon fill="midnightblue" stroke="midnightblue" points="620.89,-136.72 628.87,-129.74 618.28,-130.22 620.89,-136.72"/>
</g>
<!-- Node21 -->
<g id="node21" class="node">
<title>Node21</title>
<g id="a_node21"><a xlink:href="cib_8h.html" target="_top" xlink:title="Circular integer buffer interface.">
<polygon fill="none" stroke="black" points="585.03,-224.5 585.03,-243.5 625.03,-243.5 625.03,-224.5 585.03,-224.5"/>
<text text-anchor="middle" x="605.03" y="-231.5" font-family="Helvetica,sans-Serif" font-size="10.00">cib.h</text>
</a>
</g>
</g>
<!-- Node19&#45;&gt;Node21 -->
<g id="edge30" class="edge">
<title>Node19&#45;&gt;Node21</title>
<path fill="none" stroke="midnightblue" d="M605.03,-280.08C605.03,-273.01 605.03,-262.86 605.03,-253.99"/>
<polygon fill="midnightblue" stroke="midnightblue" points="608.53,-253.75 605.03,-243.75 601.53,-253.75 608.53,-253.75"/>
</g>
<!-- Node24 -->
<g id="node24" class="node">
<title>Node24</title>
<g id="a_node24"><a xlink:href="msg_8h.html" target="_top" xlink:title="Messaging API for inter process communication.">
<polygon fill="none" stroke="black" points="681.53,-224.5 681.53,-243.5 728.53,-243.5 728.53,-224.5 681.53,-224.5"/>
<text text-anchor="middle" x="705.03" y="-231.5" font-family="Helvetica,sans-Serif" font-size="10.00">msg.h</text>
</a>
</g>
</g>
<!-- Node19&#45;&gt;Node24 -->
<g id="edge34" class="edge">
<title>Node19&#45;&gt;Node24</title>
<path fill="none" stroke="midnightblue" d="M621.1,-280.32C636.99,-271.74 661.54,-258.49 679.99,-248.52"/>
<polygon fill="midnightblue" stroke="midnightblue" points="681.87,-251.49 689.01,-243.65 678.55,-245.33 681.87,-251.49"/>
</g>
<!-- Node25 -->
<g id="node25" class="node">
<title>Node25</title>
<g id="a_node25"><a xlink:href="sched_8h.html" target="_top" xlink:title="Scheduler API definition.">
<polygon fill="none" stroke="black" points="781.03,-168.5 781.03,-187.5 835.03,-187.5 835.03,-168.5 781.03,-168.5"/>
<text text-anchor="middle" x="808.03" y="-175.5" font-family="Helvetica,sans-Serif" font-size="10.00">sched.h</text>
</a>
</g>
</g>
<!-- Node19&#45;&gt;Node25 -->
<g id="edge44" class="edge">
<title>Node19&#45;&gt;Node25</title>
<path fill="none" stroke="midnightblue" d="M611.9,-280.14C623.08,-266.27 646.53,-239.46 672.03,-224 702.91,-205.29 742.5,-193.33 771,-186.48"/>
<polygon fill="midnightblue" stroke="midnightblue" points="772,-189.84 780.96,-184.18 770.42,-183.02 772,-189.84"/>
</g>
<!-- Node20&#45;&gt;Node14 -->
<g id="edge28" class="edge">
<title>Node20&#45;&gt;Node14</title>
<path fill="none" stroke="midnightblue" d="M670.03,-112.43C700.68,-98.23 765.32,-70.01 823.03,-56 951.91,-24.73 1109.71,-15.07 1181.36,-12.18"/>
<polygon fill="midnightblue" stroke="midnightblue" points="1181.84,-15.66 1191.7,-11.79 1181.57,-8.67 1181.84,-15.66"/>
</g>
<!-- Node20&#45;&gt;Node18 -->
<g id="edge29" class="edge">
<title>Node20&#45;&gt;Node18</title>
<path fill="none" stroke="midnightblue" d="M651.87,-112.08C651.74,-105.01 651.55,-94.86 651.39,-85.99"/>
<polygon fill="midnightblue" stroke="midnightblue" points="654.88,-85.68 651.2,-75.75 647.88,-85.81 654.88,-85.68"/>
</g>
<!-- Node22 -->
<g id="node22" class="node">
<title>Node22</title>
<g id="a_node22"><a xlink:href="assert_8h.html" target="_top" xlink:title="POSIX.1&#45;2008 compliant version of the assert macro.">
<polygon fill="none" stroke="black" points="585.03,-168.5 585.03,-187.5 641.03,-187.5 641.03,-168.5 585.03,-168.5"/>
<text text-anchor="middle" x="613.03" y="-175.5" font-family="Helvetica,sans-Serif" font-size="10.00">assert.h</text>
</a>
</g>
</g>
<!-- Node21&#45;&gt;Node22 -->
<g id="edge31" class="edge">
<title>Node21&#45;&gt;Node22</title>
<path fill="none" stroke="midnightblue" d="M606.36,-224.08C607.42,-216.93 608.94,-206.64 610.27,-197.69"/>
<polygon fill="midnightblue" stroke="midnightblue" points="613.73,-198.16 611.74,-187.75 606.81,-197.13 613.73,-198.16"/>
</g>
<!-- Node23 -->
<g id="node23" class="node">
<title>Node23</title>
<g id="a_node23"><a xlink:href="panic_8h.html" target="_top" xlink:title="Crash handling header.">
<polygon fill="none" stroke="black" points="693.03,-112.5 693.03,-131.5 745.03,-131.5 745.03,-112.5 693.03,-112.5"/>
<text text-anchor="middle" x="719.03" y="-119.5" font-family="Helvetica,sans-Serif" font-size="10.00">panic.h</text>
</a>
</g>
</g>
<!-- Node22&#45;&gt;Node23 -->
<g id="edge32" class="edge">
<title>Node22&#45;&gt;Node23</title>
<path fill="none" stroke="midnightblue" d="M630.07,-168.32C647.06,-159.66 673.41,-146.24 693.03,-136.25"/>
<polygon fill="midnightblue" stroke="midnightblue" points="694.72,-139.31 702.05,-131.65 691.55,-133.08 694.72,-139.31"/>
</g>
<!-- Node23&#45;&gt;Node17 -->
<g id="edge33" class="edge">
<title>Node23&#45;&gt;Node17</title>
<path fill="none" stroke="midnightblue" d="M744.7,-112.44C771.96,-103.36 815.22,-88.94 845.68,-78.78"/>
<polygon fill="midnightblue" stroke="midnightblue" points="847.1,-82 855.49,-75.52 844.89,-75.36 847.1,-82"/>
</g>
<!-- Node24&#45;&gt;Node2 -->
<g id="edge36" class="edge">
<title>Node24&#45;&gt;Node2</title>
<path fill="none" stroke="midnightblue" d="M728.7,-227.13C733.43,-226.03 738.38,-224.93 743.03,-224 824.72,-207.62 921.03,-192.78 974.65,-184.91"/>
<polygon fill="midnightblue" stroke="midnightblue" points="975.4,-188.34 984.79,-183.43 974.39,-181.41 975.4,-188.34"/>
</g>
<!-- Node24&#45;&gt;Node4 -->
<g id="edge35" class="edge">
<title>Node24&#45;&gt;Node4</title>
<path fill="none" stroke="midnightblue" d="M698.36,-224.17C688.43,-211.27 668.91,-186.75 650.03,-168 592.75,-111.08 517,-52.21 481.7,-25.61"/>
<polygon fill="midnightblue" stroke="midnightblue" points="483.74,-22.76 473.64,-19.56 479.54,-28.36 483.74,-22.76"/>
</g>
<!-- Node24&#45;&gt;Node25 -->
<g id="edge37" class="edge">
<title>Node24&#45;&gt;Node25</title>
<path fill="none" stroke="midnightblue" d="M721.58,-224.32C738.03,-215.7 763.47,-202.36 782.5,-192.39"/>
<polygon fill="midnightblue" stroke="midnightblue" points="784.3,-195.4 791.53,-187.65 781.04,-189.2 784.3,-195.4"/>
</g>
<!-- Node25&#45;&gt;Node11 -->
<g id="edge39" class="edge">
<title>Node25&#45;&gt;Node11</title>
<path fill="none" stroke="midnightblue" d="M780.74,-173.54C708.56,-164.39 512.26,-139.51 424.92,-128.44"/>
<polygon fill="midnightblue" stroke="midnightblue" points="425.19,-124.94 414.83,-127.16 424.31,-131.89 425.19,-124.94"/>
</g>
<!-- Node25&#45;&gt;Node14 -->
<g id="edge38" class="edge">
<title>Node25&#45;&gt;Node14</title>
<path fill="none" stroke="midnightblue" d="M829.32,-168.42C897.27,-141.05 1109.21,-55.65 1189.12,-23.45"/>
<polygon fill="midnightblue" stroke="midnightblue" points="1190.66,-26.61 1198.63,-19.62 1188.05,-20.11 1190.66,-26.61"/>
</g>
<!-- Node25&#45;&gt;Node17 -->
<g id="edge40" class="edge">
<title>Node25&#45;&gt;Node17</title>
<path fill="none" stroke="midnightblue" d="M822.49,-168.44C834.73,-160.47 851.87,-147.51 862.03,-132 871.2,-118.02 876.04,-99.52 878.54,-85.83"/>
<polygon fill="midnightblue" stroke="midnightblue" points="882.04,-86.09 880.13,-75.67 875.13,-85.01 882.04,-86.09"/>
</g>
<!-- Node25&#45;&gt;Node20 -->
<g id="edge42" class="edge">
<title>Node25&#45;&gt;Node20</title>
<path fill="none" stroke="midnightblue" d="M783.32,-168.44C756.72,-159.24 714.31,-144.56 684.92,-134.38"/>
<polygon fill="midnightblue" stroke="midnightblue" points="685.71,-130.95 675.11,-130.99 683.42,-137.57 685.71,-130.95"/>
</g>
<!-- Node26 -->
<g id="node26" class="node">
<title>Node26</title>
<g id="a_node26"><a xlink:href="native__sched_8h.html" target="_top" xlink:title="Add definitions required on the native board.">
<polygon fill="none" stroke="black" points="763.03,-112.5 763.03,-131.5 853.03,-131.5 853.03,-112.5 763.03,-112.5"/>
<text text-anchor="middle" x="808.03" y="-119.5" font-family="Helvetica,sans-Serif" font-size="10.00">native_sched.h</text>
</a>
</g>
</g>
<!-- Node25&#45;&gt;Node26 -->
<g id="edge41" class="edge">
<title>Node25&#45;&gt;Node26</title>
<path fill="none" stroke="midnightblue" d="M808.03,-168.08C808.03,-161.01 808.03,-150.86 808.03,-141.99"/>
<polygon fill="midnightblue" stroke="midnightblue" points="811.53,-141.75 808.03,-131.75 804.53,-141.75 811.53,-141.75"/>
</g>
<!-- Node28 -->
<g id="node28" class="node">
<title>Node28</title>
<g id="a_node28"><a xlink:title=" ">
<polygon fill="none" stroke="#bfbfbf" points="1351.53,-224.5 1351.53,-243.5 1404.53,-243.5 1404.53,-224.5 1351.53,-224.5"/>
<text text-anchor="middle" x="1378.03" y="-231.5" font-family="Helvetica,sans-Serif" font-size="10.00">limits.h</text>
</a>
</g>
</g>
<!-- Node27&#45;&gt;Node28 -->
<g id="edge47" class="edge">
<title>Node27&#45;&gt;Node28</title>
<path fill="none" stroke="midnightblue" d="M1435.11,-280.32C1424.86,-272.18 1409.31,-259.84 1397.03,-250.09"/>
<polygon fill="midnightblue" stroke="midnightblue" points="1399.17,-247.31 1389.16,-243.83 1394.81,-252.79 1399.17,-247.31"/>
</g>
<!-- Node29 -->
<g id="node29" class="node">
<title>Node29</title>
<g id="a_node29"><a xlink:title=" ">
<polygon fill="none" stroke="#bfbfbf" points="1422.53,-224.5 1422.53,-243.5 1501.53,-243.5 1501.53,-224.5 1422.53,-224.5"/>
<text text-anchor="middle" x="1462.03" y="-231.5" font-family="Helvetica,sans-Serif" font-size="10.00">periph_cpu.h</text>
</a>
</g>
</g>
<!-- Node27&#45;&gt;Node29 -->
<g id="edge48" class="edge">
<title>Node27&#45;&gt;Node29</title>
<path fill="none" stroke="midnightblue" d="M1448.68,-280.08C1450.82,-272.85 1453.91,-262.41 1456.58,-253.4"/>
<polygon fill="midnightblue" stroke="midnightblue" points="1459.96,-254.33 1459.44,-243.75 1453.24,-252.34 1459.96,-254.33"/>
</g>
<!-- Node30 -->
<g id="node30" class="node">
<title>Node30</title>
<g id="a_node30"><a xlink:title=" ">
<polygon fill="none" stroke="#bfbfbf" points="1213.03,-224.5 1213.03,-243.5 1295.03,-243.5 1295.03,-224.5 1213.03,-224.5"/>
<text text-anchor="middle" x="1254.03" y="-231.5" font-family="Helvetica,sans-Serif" font-size="10.00">periph_conf.h</text>
</a>
</g>
</g>
<!-- Node27&#45;&gt;Node30 -->
<g id="edge49" class="edge">
<title>Node27&#45;&gt;Node30</title>
<path fill="none" stroke="midnightblue" d="M1415.61,-280.44C1382.75,-271.2 1330.25,-256.44 1294.06,-246.26"/>
<polygon fill="midnightblue" stroke="midnightblue" points="1294.89,-242.85 1284.31,-243.52 1292.99,-249.59 1294.89,-242.85"/>
</g>
<!-- Node31&#45;&gt;Node2 -->
<g id="edge51" class="edge">
<title>Node31&#45;&gt;Node2</title>
<path fill="none" stroke="midnightblue" d="M1278.74,-336.44C1252.17,-328.88 1214.48,-316.49 1184.03,-300 1135.26,-273.58 1130.3,-256.06 1085.03,-224 1069.86,-213.25 1052.31,-201.82 1038.7,-193.16"/>
<polygon fill="midnightblue" stroke="midnightblue" points="1040.31,-190.04 1029.99,-187.66 1036.57,-195.96 1040.31,-190.04"/>
</g>
<!-- Node31&#45;&gt;Node4 -->
<g id="edge53" class="edge">
<title>Node31&#45;&gt;Node4</title>
<path fill="none" stroke="midnightblue" d="M1296.01,-336.38C1281.68,-328.19 1260.6,-314.95 1245.03,-300 1222.78,-278.63 1219.52,-270.68 1204.03,-244 1158.08,-164.86 1195.08,-108.39 1120.03,-56 1069.01,-20.38 630.16,-12.81 498.94,-11.33"/>
<polygon fill="midnightblue" stroke="midnightblue" points="498.66,-7.83 488.62,-11.22 498.58,-14.83 498.66,-7.83"/>
</g>
<!-- Node31&#45;&gt;Node14 -->
<g id="edge52" class="edge">
<title>Node31&#45;&gt;Node14</title>
<path fill="none" stroke="midnightblue" d="M1349.27,-344.33C1416.68,-340.92 1552.03,-323.12 1552.03,-235 1552.03,-235 1552.03,-235 1552.03,-121 1552.03,-59.66 1345.25,-26.63 1258.07,-15.43"/>
<polygon fill="midnightblue" stroke="midnightblue" points="1258.41,-11.94 1248.05,-14.17 1257.54,-18.89 1258.41,-11.94"/>
</g>
<!-- Node31&#45;&gt;Node27 -->
<g id="edge57" class="edge">
<title>Node31&#45;&gt;Node27</title>
<path fill="none" stroke="midnightblue" d="M1333.27,-336.44C1355.42,-327.52 1390.35,-313.44 1415.47,-303.32"/>
<polygon fill="midnightblue" stroke="midnightblue" points="1416.93,-306.5 1424.9,-299.52 1414.32,-300.01 1416.93,-306.5"/>
</g>
<!-- Node31&#45;&gt;Node28 -->
<g id="edge54" class="edge">
<title>Node31&#45;&gt;Node28</title>
<path fill="none" stroke="midnightblue" d="M1324.17,-336.34C1334.83,-328.13 1350,-314.87 1359.03,-300 1367.71,-285.71 1372.61,-267.24 1375.25,-253.65"/>
<polygon fill="midnightblue" stroke="midnightblue" points="1378.74,-254.02 1376.97,-243.57 1371.84,-252.84 1378.74,-254.02"/>
</g>
<!-- Node31&#45;&gt;Node29 -->
<g id="edge55" class="edge">
<title>Node31&#45;&gt;Node29</title>
<path fill="none" stroke="midnightblue" d="M1349.27,-341.2C1397.44,-335.43 1477.27,-322.66 1495.03,-300 1506.91,-284.85 1493.02,-264.75 1479.79,-250.93"/>
<polygon fill="midnightblue" stroke="midnightblue" points="1481.88,-248.08 1472.27,-243.61 1476.99,-253.1 1481.88,-248.08"/>
</g>
<!-- Node31&#45;&gt;Node30 -->
<g id="edge56" class="edge">
<title>Node31&#45;&gt;Node30</title>
<path fill="none" stroke="midnightblue" d="M1294.02,-336.36C1280.58,-328.82 1263.19,-316.5 1255.03,-300 1247.93,-285.61 1248.4,-267.16 1250.24,-253.59"/>
<polygon fill="midnightblue" stroke="midnightblue" points="1253.72,-253.98 1251.96,-243.54 1246.82,-252.8 1253.72,-253.98"/>
</g>
<!-- Node32&#45;&gt;Node2 -->
<g id="edge60" class="edge">
<title>Node32&#45;&gt;Node2</title>
<path fill="none" stroke="midnightblue" d="M827.19,-448.36C852.97,-426.01 921.97,-363.58 965.03,-300 980.42,-277.28 980.33,-269.26 991.03,-244 997.6,-228.52 1004.41,-210.68 1009.26,-197.61"/>
<polygon fill="midnightblue" stroke="midnightblue" points="1012.66,-198.5 1012.83,-187.91 1006.09,-196.08 1012.66,-198.5"/>
</g>
<!-- Node32&#45;&gt;Node4 -->
<g id="edge61" class="edge">
<title>Node32&#45;&gt;Node4</title>
<path fill="none" stroke="midnightblue" d="M787.71,-455.39C719.73,-451.25 553.47,-438.63 505.03,-412 476.31,-396.21 477.69,-381.45 457.03,-356 393.18,-277.32 322.63,-269.19 328.03,-168 330.82,-115.92 325.23,-91.92 363.03,-56 380.56,-39.35 405.32,-28.1 425.7,-21.01"/>
<polygon fill="midnightblue" stroke="midnightblue" points="426.89,-24.3 435.3,-17.86 424.7,-17.65 426.89,-24.3"/>
</g>
<!-- Node32&#45;&gt;Node10 -->
<g id="edge62" class="edge">
<title>Node32&#45;&gt;Node10</title>
<path fill="none" stroke="midnightblue" d="M787.97,-454.96C725.39,-450.16 580.19,-436.62 538.03,-412 455.57,-363.82 458.94,-322.15 404.03,-244 393.11,-228.45 381.87,-209.92 374.1,-196.63"/>
<polygon fill="midnightblue" stroke="midnightblue" points="376.93,-194.53 368.89,-187.62 370.87,-198.03 376.93,-194.53"/>
</g>
<!-- Node32&#45;&gt;Node13 -->
<g id="edge63" class="edge">
<title>Node32&#45;&gt;Node13</title>
<path fill="none" stroke="midnightblue" d="M807.93,-448.37C788.45,-429.89 742.47,-386.29 717.64,-362.74"/>
<polygon fill="midnightblue" stroke="midnightblue" points="719.76,-359.93 710.09,-355.59 714.94,-365.01 719.76,-359.93"/>
</g>
<!-- Node32&#45;&gt;Node25 -->
<g id="edge64" class="edge">
<title>Node32&#45;&gt;Node25</title>
<path fill="none" stroke="midnightblue" d="M846.44,-457.14C907.17,-455.61 1045.54,-442.34 1103.03,-356 1171.24,-253.58 938.59,-201.37 845.17,-184.89"/>
<polygon fill="midnightblue" stroke="midnightblue" points="845.72,-181.44 835.27,-183.19 844.53,-188.33 845.72,-181.44"/>
</g>
<!-- Node32&#45;&gt;Node30 -->
<g id="edge71" class="edge">
<title>Node32&#45;&gt;Node30</title>
<path fill="none" stroke="midnightblue" d="M846.21,-455.9C915.55,-452.81 1087.98,-442.23 1136.03,-412 1197.49,-373.34 1234.15,-289.67 1247.85,-252.93"/>
<polygon fill="midnightblue" stroke="midnightblue" points="1251.15,-254.1 1251.24,-243.5 1244.56,-251.73 1251.15,-254.1"/>
</g>
<!-- Node33 -->
<g id="node33" class="node">
<title>Node33</title>
<g id="a_node33"><a xlink:href="rmutex_8h.html" target="_top" xlink:title="Recursive Mutex for thread synchronization.">
<polygon fill="none" stroke="black" points="786.53,-392.5 786.53,-411.5 847.53,-411.5 847.53,-392.5 786.53,-392.5"/>
<text text-anchor="middle" x="817.03" y="-399.5" font-family="Helvetica,sans-Serif" font-size="10.00">rmutex.h</text>
</a>
</g>
</g>
<!-- Node32&#45;&gt;Node33 -->
<g id="edge65" class="edge">
<title>Node32&#45;&gt;Node33</title>
<path fill="none" stroke="midnightblue" d="M817.03,-448.08C817.03,-441.01 817.03,-430.86 817.03,-421.99"/>
<polygon fill="midnightblue" stroke="midnightblue" points="820.53,-421.75 817.03,-411.75 813.53,-421.75 820.53,-421.75"/>
</g>
<!-- Node35 -->
<g id="node35" class="node">
<title>Node35</title>
<g id="a_node35"><a xlink:title=" ">
<polygon fill="none" stroke="#bfbfbf" points="1188.53,-392.5 1188.53,-411.5 1241.53,-411.5 1241.53,-392.5 1188.53,-392.5"/>
<text text-anchor="middle" x="1215.03" y="-399.5" font-family="Helvetica,sans-Serif" font-size="10.00">board.h</text>
</a>
</g>
</g>
<!-- Node32&#45;&gt;Node35 -->
<g id="edge70" class="edge">
<title>Node32&#45;&gt;Node35</title>
<path fill="none" stroke="midnightblue" d="M846.32,-454.22C907.47,-448.21 1053.07,-432.86 1174.03,-412 1175.33,-411.78 1176.64,-411.54 1177.97,-411.29"/>
<polygon fill="midnightblue" stroke="midnightblue" points="1179.07,-414.64 1188.2,-409.26 1177.71,-407.78 1179.07,-414.64"/>
</g>
<!-- Node36 -->
<g id="node36" class="node">
<title>Node36</title>
<g id="a_node36"><a xlink:href="tick__conversion_8h.html" target="_top" xlink:title="xtimer tick &lt;&#45;&gt; seconds conversions for different values of XTIMER_HZ">
<polygon fill="none" stroke="black" points="547.53,-392.5 547.53,-411.5 684.53,-411.5 684.53,-392.5 547.53,-392.5"/>
<text text-anchor="middle" x="616.03" y="-399.5" font-family="Helvetica,sans-Serif" font-size="10.00">xtimer/tick_conversion.h</text>
</a>
</g>
</g>
<!-- Node32&#45;&gt;Node36 -->
<g id="edge72" class="edge">
<title>Node32&#45;&gt;Node36</title>
<path fill="none" stroke="midnightblue" d="M787.81,-449.15C753.62,-439.96 696.78,-424.69 657.91,-414.25"/>
<polygon fill="midnightblue" stroke="midnightblue" points="658.52,-410.79 647.95,-411.58 656.7,-417.55 658.52,-410.79"/>
</g>
<!-- Node38 -->
<g id="node38" class="node">
<title>Node38</title>
<g id="a_node38"><a xlink:href="implementation_8h.html" target="_top" xlink:title="xtimer implementation">
<polygon fill="none" stroke="black" points="954.53,-336.5 954.53,-355.5 1093.53,-355.5 1093.53,-336.5 954.53,-336.5"/>
<text text-anchor="middle" x="1024.03" y="-343.5" font-family="Helvetica,sans-Serif" font-size="10.00">xtimer/implementation.h</text>
</a>
</g>
</g>
<!-- Node32&#45;&gt;Node38 -->
<g id="edge76" class="edge">
<title>Node32&#45;&gt;Node38</title>
<path fill="none" stroke="midnightblue" d="M846.21,-449.1C871.84,-441.53 909.68,-428.77 940.03,-412 965.33,-398.03 991.12,-376.81 1007.34,-362.45"/>
<polygon fill="midnightblue" stroke="midnightblue" points="1009.8,-364.94 1014.89,-355.64 1005.12,-359.74 1009.8,-364.94"/>
</g>
<!-- Node33&#45;&gt;Node4 -->
<g id="edge66" class="edge">
<title>Node33&#45;&gt;Node4</title>
<path fill="none" stroke="midnightblue" d="M804.81,-392.29C788.08,-379.32 761.75,-354.48 777.03,-336 831.24,-270.43 892.02,-343.65 965.03,-300 1026.19,-263.44 1084.16,-233.47 1056.03,-168 1027.49,-101.56 1003.86,-85.93 938.03,-56 859.83,-20.44 596.9,-12.96 499.09,-11.41"/>
<polygon fill="midnightblue" stroke="midnightblue" points="498.86,-7.9 488.81,-11.25 498.76,-14.9 498.86,-7.9"/>
</g>
<!-- Node33&#45;&gt;Node13 -->
<g id="edge68" class="edge">
<title>Node33&#45;&gt;Node13</title>
<path fill="none" stroke="midnightblue" d="M798.65,-392.44C779.82,-383.68 750.3,-369.94 728.66,-359.86"/>
<polygon fill="midnightblue" stroke="midnightblue" points="729.87,-356.56 719.33,-355.52 726.92,-362.91 729.87,-356.56"/>
</g>
<!-- Node33&#45;&gt;Node25 -->
<g id="edge69" class="edge">
<title>Node33&#45;&gt;Node25</title>
<path fill="none" stroke="midnightblue" d="M832.82,-392.47C845.24,-384.77 861.64,-372.18 869.03,-356 872.73,-347.92 869.31,-344.88 869.03,-336 867.48,-286.15 884.59,-268.48 862.03,-224 855.55,-211.2 843.63,-200.67 832.64,-193.02"/>
<polygon fill="midnightblue" stroke="midnightblue" points="834.44,-190.01 824.14,-187.51 830.63,-195.89 834.44,-190.01"/>
</g>
<!-- Node34 -->
<g id="node34" class="node">
<title>Node34</title>
<g id="a_node34"><a xlink:title=" ">
<polygon fill="none" stroke="#bfbfbf" points="786.03,-336.5 786.03,-355.5 860.03,-355.5 860.03,-336.5 786.03,-336.5"/>
<text text-anchor="middle" x="823.03" y="-343.5" font-family="Helvetica,sans-Serif" font-size="10.00">stdatomic.h</text>
</a>
</g>
</g>
<!-- Node33&#45;&gt;Node34 -->
<g id="edge67" class="edge">
<title>Node33&#45;&gt;Node34</title>
<path fill="none" stroke="midnightblue" d="M818.03,-392.08C818.82,-384.93 819.96,-374.64 820.96,-365.69"/>
<polygon fill="midnightblue" stroke="midnightblue" points="824.44,-366.08 822.06,-355.75 817.48,-365.3 824.44,-366.08"/>
</g>
<!-- Node37 -->
<g id="node37" class="node">
<title>Node37</title>
<g id="a_node37"><a xlink:href="div_8h.html" target="_top" xlink:title=" ">
<polygon fill="none" stroke="black" points="413.03,-224.5 413.03,-243.5 453.03,-243.5 453.03,-224.5 413.03,-224.5"/>
<text text-anchor="middle" x="433.03" y="-231.5" font-family="Helvetica,sans-Serif" font-size="10.00">div.h</text>
</a>
</g>
</g>
<!-- Node36&#45;&gt;Node37 -->
<g id="edge73" class="edge">
<title>Node36&#45;&gt;Node37</title>
<path fill="none" stroke="midnightblue" d="M597.88,-392.45C567.51,-377.4 505.94,-343.61 467.03,-300 454.74,-286.22 445.46,-267.19 439.73,-253.28"/>
<polygon fill="midnightblue" stroke="midnightblue" points="442.93,-251.87 436.05,-243.82 436.41,-254.41 442.93,-251.87"/>
</g>
<!-- Node37&#45;&gt;Node4 -->
<g id="edge75" class="edge">
<title>Node37&#45;&gt;Node4</title>
<path fill="none" stroke="midnightblue" d="M434.17,-224.3C438.44,-191.63 453.56,-75.87 459.56,-29.96"/>
<polygon fill="midnightblue" stroke="midnightblue" points="463.05,-30.25 460.87,-19.88 456.11,-29.35 463.05,-30.25"/>
</g>
<!-- Node37&#45;&gt;Node22 -->
<g id="edge74" class="edge">
<title>Node37&#45;&gt;Node22</title>
<path fill="none" stroke="midnightblue" d="M453.33,-226.91C482.75,-218.09 537.76,-201.58 574.89,-190.44"/>
<polygon fill="midnightblue" stroke="midnightblue" points="576.28,-193.68 584.85,-187.45 574.27,-186.98 576.28,-193.68"/>
</g>
<!-- Node38&#45;&gt;Node15 -->
<g id="edge82" class="edge">
<title>Node38&#45;&gt;Node15</title>
<path fill="none" stroke="midnightblue" d="M1010.06,-336.32C996.48,-327.9 975.65,-314.97 959.71,-305.07"/>
<polygon fill="midnightblue" stroke="midnightblue" points="961.32,-301.95 950.98,-299.65 957.63,-307.9 961.32,-301.95"/>
</g>
<!-- Node39 -->
<g id="node39" class="node">
<title>Node39</title>
<g id="a_node39"><a xlink:href="drivers_2include_2periph_2timer_8h.html" target="_top" xlink:title="Low&#45;level timer peripheral driver interface definitions.">
<polygon fill="none" stroke="black" points="1264.03,-280.5 1264.03,-299.5 1350.03,-299.5 1350.03,-280.5 1264.03,-280.5"/>
<text text-anchor="middle" x="1307.03" y="-287.5" font-family="Helvetica,sans-Serif" font-size="10.00">periph/timer.h</text>
</a>
</g>
</g>
<!-- Node38&#45;&gt;Node39 -->
<g id="edge77" class="edge">
<title>Node38&#45;&gt;Node39</title>
<path fill="none" stroke="midnightblue" d="M1068.88,-336.44C1119.1,-326.86 1200.44,-311.34 1253.83,-301.15"/>
<polygon fill="midnightblue" stroke="midnightblue" points="1254.63,-304.56 1263.79,-299.25 1253.32,-297.69 1254.63,-304.56"/>
</g>
<!-- Node39&#45;&gt;Node4 -->
<g id="edge79" class="edge">
<title>Node39&#45;&gt;Node4</title>
<path fill="none" stroke="midnightblue" d="M1308.4,-280.21C1310,-267.34 1311.59,-242.88 1304.03,-224 1267.27,-132.16 1246.68,-99.91 1158.03,-56 1098.81,-26.66 634.34,-14.63 498.95,-11.73"/>
<polygon fill="midnightblue" stroke="midnightblue" points="498.76,-8.23 488.69,-11.51 498.61,-15.22 498.76,-8.23"/>
</g>
<!-- Node39&#45;&gt;Node28 -->
<g id="edge78" class="edge">
<title>Node39&#45;&gt;Node28</title>
<path fill="none" stroke="midnightblue" d="M1318.44,-280.32C1329.14,-272.18 1345.37,-259.84 1358.2,-250.09"/>
<polygon fill="midnightblue" stroke="midnightblue" points="1360.58,-252.67 1366.42,-243.83 1356.34,-247.1 1360.58,-252.67"/>
</g>
<!-- Node39&#45;&gt;Node29 -->
<g id="edge80" class="edge">
<title>Node39&#45;&gt;Node29</title>
<path fill="none" stroke="midnightblue" d="M1331.59,-280.44C1357.56,-271.4 1398.7,-257.06 1427.83,-246.92"/>
<polygon fill="midnightblue" stroke="midnightblue" points="1429.3,-250.11 1437.59,-243.52 1426.99,-243.5 1429.3,-250.11"/>
</g>
<!-- Node39&#45;&gt;Node30 -->
<g id="edge81" class="edge">
<title>Node39&#45;&gt;Node30</title>
<path fill="none" stroke="midnightblue" d="M1298.28,-280.08C1290.56,-272.22 1279.13,-260.57 1269.82,-251.08"/>
<polygon fill="midnightblue" stroke="midnightblue" points="1272.13,-248.44 1262.62,-243.75 1267.13,-253.34 1272.13,-248.44"/>
</g>
</g>
</svg>
