<?xml version="1.0" encoding="UTF-8" standalone="no"?>
<!DOCTYPE svg PUBLIC "-//W3C//DTD SVG 1.1//EN"
 "http://www.w3.org/Graphics/SVG/1.1/DTD/svg11.dtd">
<!-- Generated by graphviz version 2.43.0 (0)
 -->
<!-- Title: drivers/include/can/candev.h Pages: 1 -->
<svg width="984pt" height="431pt"
 viewBox="0.00 0.00 984.08 431.00" xmlns="http://www.w3.org/2000/svg" xmlns:xlink="http://www.w3.org/1999/xlink">
<g id="graph0" class="graph" transform="scale(1 1) rotate(0) translate(4 427)">
<title>drivers/include/can/candev.h</title>
<!-- Node1 -->
<g id="node1" class="node">
<title>Node1</title>
<g id="a_node1"><a xlink:title="Definitions for low&#45;level CAN driver interface.">
<polygon fill="#bfbfbf" stroke="black" points="65.57,-392.5 65.57,-422.5 174.57,-422.5 174.57,-392.5 65.57,-392.5"/>
<text text-anchor="start" x="73.57" y="-410.5" font-family="Helvetica,sans-Serif" font-size="10.00">drivers/include/can</text>
<text text-anchor="middle" x="120.07" y="-399.5" font-family="Helvetica,sans-Serif" font-size="10.00">/candev.h</text>
</a>
</g>
</g>
<!-- Node2 -->
<g id="node2" class="node">
<title>Node2</title>
<g id="a_node2"><a xlink:title=" ">
<polygon fill="none" stroke="#bfbfbf" points="340.57,-0.5 340.57,-19.5 393.57,-19.5 393.57,-0.5 340.57,-0.5"/>
<text text-anchor="middle" x="367.07" y="-7.5" font-family="Helvetica,sans-Serif" font-size="10.00">stdint.h</text>
</a>
</g>
</g>
<!-- Node1&#45;&gt;Node2 -->
<g id="edge1" class="edge">
<title>Node1&#45;&gt;Node2</title>
<path fill="none" stroke="midnightblue" d="M73.25,-392.43C54.05,-384.52 33.08,-372.78 19.07,-356 -0.22,-332.9 0.07,-321.1 0.07,-291 0.07,-291 0.07,-291 0.07,-121 0.07,-52.55 237.29,-23.06 330.3,-14.13"/>
<polygon fill="midnightblue" stroke="midnightblue" points="330.75,-17.61 340.38,-13.19 330.1,-10.64 330.75,-17.61"/>
</g>
<!-- Node3 -->
<g id="node3" class="node">
<title>Node3</title>
<g id="a_node3"><a xlink:title=" ">
<polygon fill="none" stroke="#bfbfbf" points="79.57,-112.5 79.57,-131.5 132.57,-131.5 132.57,-112.5 79.57,-112.5"/>
<text text-anchor="middle" x="106.07" y="-119.5" font-family="Helvetica,sans-Serif" font-size="10.00">stdlib.h</text>
</a>
</g>
</g>
<!-- Node1&#45;&gt;Node3 -->
<g id="edge2" class="edge">
<title>Node1&#45;&gt;Node3</title>
<path fill="none" stroke="midnightblue" d="M120.07,-392.28C120.07,-370.48 120.07,-327.49 120.07,-291 120.07,-291 120.07,-291 120.07,-233 120.07,-200.54 114,-163.12 109.85,-141.36"/>
<polygon fill="midnightblue" stroke="midnightblue" points="113.28,-140.64 107.9,-131.51 106.41,-142 113.28,-140.64"/>
</g>
<!-- Node4 -->
<g id="node4" class="node">
<title>Node4</title>
<g id="a_node4"><a xlink:href="sys_2include_2can_2can_8h.html" target="_top" xlink:title="Definitions high&#45;level CAN interface.">
<polygon fill="none" stroke="black" points="28.57,-336.5 28.57,-355.5 91.57,-355.5 91.57,-336.5 28.57,-336.5"/>
<text text-anchor="middle" x="60.07" y="-343.5" font-family="Helvetica,sans-Serif" font-size="10.00">can/can.h</text>
</a>
</g>
</g>
<!-- Node1&#45;&gt;Node4 -->
<g id="edge3" class="edge">
<title>Node1&#45;&gt;Node4</title>
<path fill="none" stroke="midnightblue" d="M105.85,-392.4C96.87,-383.49 85.23,-371.95 75.95,-362.74"/>
<polygon fill="midnightblue" stroke="midnightblue" points="78.37,-360.21 68.8,-355.66 73.44,-365.18 78.37,-360.21"/>
</g>
<!-- Node5 -->
<g id="node5" class="node">
<title>Node5</title>
<g id="a_node5"><a xlink:href="can_2common_8h.html" target="_top" xlink:title="Definitions of high&#45;level CAN interface.">
<polygon fill="none" stroke="black" points="191.57,-224.5 191.57,-243.5 280.57,-243.5 280.57,-224.5 191.57,-224.5"/>
<text text-anchor="middle" x="236.07" y="-231.5" font-family="Helvetica,sans-Serif" font-size="10.00">can/common.h</text>
</a>
</g>
</g>
<!-- Node1&#45;&gt;Node5 -->
<g id="edge5" class="edge">
<title>Node1&#45;&gt;Node5</title>
<path fill="none" stroke="midnightblue" d="M129.57,-392.47C150.73,-361.17 201.74,-285.76 224.62,-251.93"/>
<polygon fill="midnightblue" stroke="midnightblue" points="227.58,-253.8 230.28,-243.56 221.78,-249.88 227.58,-253.8"/>
</g>
<!-- Node11 -->
<g id="node11" class="node">
<title>Node11</title>
<g id="a_node11"><a xlink:href="mutex_8h.html" target="_top" xlink:title="Mutex for thread synchronization.">
<polygon fill="none" stroke="black" points="504.57,-336.5 504.57,-355.5 561.57,-355.5 561.57,-336.5 504.57,-336.5"/>
<text text-anchor="middle" x="533.07" y="-343.5" font-family="Helvetica,sans-Serif" font-size="10.00">mutex.h</text>
</a>
</g>
</g>
<!-- Node1&#45;&gt;Node11 -->
<g id="edge14" class="edge">
<title>Node1&#45;&gt;Node11</title>
<path fill="none" stroke="midnightblue" d="M174.92,-398.6C259.62,-386.4 420.18,-363.26 494.07,-352.62"/>
<polygon fill="midnightblue" stroke="midnightblue" points="494.93,-356.03 504.33,-351.14 493.93,-349.1 494.93,-356.03"/>
</g>
<!-- Node4&#45;&gt;Node2 -->
<g id="edge4" class="edge">
<title>Node4&#45;&gt;Node2</title>
<path fill="none" stroke="midnightblue" d="M58.9,-336.46C56.46,-317.99 51.07,-272.94 51.07,-235 51.07,-235 51.07,-235 51.07,-121 51.07,-62.44 247.09,-27.89 330.36,-15.85"/>
<polygon fill="midnightblue" stroke="midnightblue" points="330.99,-19.3 340.4,-14.43 330.01,-12.37 330.99,-19.3"/>
</g>
<!-- Node5&#45;&gt;Node2 -->
<g id="edge6" class="edge">
<title>Node5&#45;&gt;Node2</title>
<path fill="none" stroke="midnightblue" d="M237.84,-224.26C240.62,-211.46 246.7,-187.07 256.07,-168 283.45,-112.32 329.59,-54.72 352.81,-27.35"/>
<polygon fill="midnightblue" stroke="midnightblue" points="355.64,-29.43 359.5,-19.57 350.33,-24.87 355.64,-29.43"/>
</g>
<!-- Node6 -->
<g id="node6" class="node">
<title>Node6</title>
<g id="a_node6"><a xlink:href="uio_8h.html" target="_top" xlink:title="libc header for scatter/gather I/O">
<polygon fill="none" stroke="black" points="148.07,-168.5 148.07,-187.5 208.07,-187.5 208.07,-168.5 148.07,-168.5"/>
<text text-anchor="middle" x="178.07" y="-175.5" font-family="Helvetica,sans-Serif" font-size="10.00">sys/uio.h</text>
</a>
</g>
</g>
<!-- Node5&#45;&gt;Node6 -->
<g id="edge7" class="edge">
<title>Node5&#45;&gt;Node6</title>
<path fill="none" stroke="midnightblue" d="M226.75,-224.32C218.18,-216.34 205.26,-204.31 194.89,-194.65"/>
<polygon fill="midnightblue" stroke="midnightblue" points="197.27,-192.09 187.56,-187.83 192.5,-197.21 197.27,-192.09"/>
</g>
<!-- Node8 -->
<g id="node8" class="node">
<title>Node8</title>
<g id="a_node8"><a xlink:href="timex_8h.html" target="_top" xlink:title="Utility library for comparing and computing timestamps.">
<polygon fill="none" stroke="black" points="340.07,-168.5 340.07,-187.5 394.07,-187.5 394.07,-168.5 340.07,-168.5"/>
<text text-anchor="middle" x="367.07" y="-175.5" font-family="Helvetica,sans-Serif" font-size="10.00">timex.h</text>
</a>
</g>
</g>
<!-- Node5&#45;&gt;Node8 -->
<g id="edge10" class="edge">
<title>Node5&#45;&gt;Node8</title>
<path fill="none" stroke="midnightblue" d="M256.83,-224.44C278.39,-215.56 312.34,-201.56 336.87,-191.45"/>
<polygon fill="midnightblue" stroke="midnightblue" points="338.5,-194.56 346.41,-187.52 335.83,-188.09 338.5,-194.56"/>
</g>
<!-- Node10 -->
<g id="node10" class="node">
<title>Node10</title>
<g id="a_node10"><a xlink:title=" ">
<polygon fill="none" stroke="#bfbfbf" points="264.57,-168.5 264.57,-187.5 321.57,-187.5 321.57,-168.5 264.57,-168.5"/>
<text text-anchor="middle" x="293.07" y="-175.5" font-family="Helvetica,sans-Serif" font-size="10.00">thread.h</text>
</a>
</g>
</g>
<!-- Node5&#45;&gt;Node10 -->
<g id="edge13" class="edge">
<title>Node5&#45;&gt;Node10</title>
<path fill="none" stroke="midnightblue" d="M245.23,-224.32C253.57,-216.42 266.11,-204.55 276.25,-194.94"/>
<polygon fill="midnightblue" stroke="midnightblue" points="278.9,-197.25 283.75,-187.83 274.08,-192.17 278.9,-197.25"/>
</g>
<!-- Node6&#45;&gt;Node3 -->
<g id="edge8" class="edge">
<title>Node6&#45;&gt;Node3</title>
<path fill="none" stroke="midnightblue" d="M166.5,-168.32C155.65,-160.18 139.19,-147.84 126.19,-138.09"/>
<polygon fill="midnightblue" stroke="midnightblue" points="127.95,-135.03 117.85,-131.83 123.75,-140.63 127.95,-135.03"/>
</g>
<!-- Node7 -->
<g id="node7" class="node">
<title>Node7</title>
<g id="a_node7"><a xlink:title=" ">
<polygon fill="none" stroke="#bfbfbf" points="151.07,-112.5 151.07,-131.5 223.07,-131.5 223.07,-112.5 151.07,-112.5"/>
<text text-anchor="middle" x="187.07" y="-119.5" font-family="Helvetica,sans-Serif" font-size="10.00">sys/types.h</text>
</a>
</g>
</g>
<!-- Node6&#45;&gt;Node7 -->
<g id="edge9" class="edge">
<title>Node6&#45;&gt;Node7</title>
<path fill="none" stroke="midnightblue" d="M179.56,-168.08C180.75,-160.93 182.47,-150.64 183.96,-141.69"/>
<polygon fill="midnightblue" stroke="midnightblue" points="187.42,-142.19 185.61,-131.75 180.52,-141.04 187.42,-142.19"/>
</g>
<!-- Node8&#45;&gt;Node2 -->
<g id="edge11" class="edge">
<title>Node8&#45;&gt;Node2</title>
<path fill="none" stroke="midnightblue" d="M367.07,-168.08C367.07,-141.95 367.07,-65.21 367.07,-29.58"/>
<polygon fill="midnightblue" stroke="midnightblue" points="370.57,-29.57 367.07,-19.57 363.57,-29.57 370.57,-29.57"/>
</g>
<!-- Node9 -->
<g id="node9" class="node">
<title>Node9</title>
<g id="a_node9"><a xlink:href="inttypes_8h.html" target="_top" xlink:title="Adds include for missing inttype definitions.">
<polygon fill="none" stroke="black" points="596.57,-112.5 596.57,-131.5 661.57,-131.5 661.57,-112.5 596.57,-112.5"/>
<text text-anchor="middle" x="629.07" y="-119.5" font-family="Helvetica,sans-Serif" font-size="10.00">inttypes.h</text>
</a>
</g>
</g>
<!-- Node8&#45;&gt;Node9 -->
<g id="edge12" class="edge">
<title>Node8&#45;&gt;Node9</title>
<path fill="none" stroke="midnightblue" d="M394.12,-171.42C439.69,-162.03 532.1,-142.99 586.45,-131.78"/>
<polygon fill="midnightblue" stroke="midnightblue" points="587.38,-135.17 596.47,-129.72 585.97,-128.31 587.38,-135.17"/>
</g>
<!-- Node11&#45;&gt;Node2 -->
<g id="edge16" class="edge">
<title>Node11&#45;&gt;Node2</title>
<path fill="none" stroke="midnightblue" d="M513.23,-336.39C481.3,-321.04 422.07,-285.73 422.07,-235 422.07,-235 422.07,-235 422.07,-121 422.07,-84.57 397.64,-47.84 381.34,-27.39"/>
<polygon fill="midnightblue" stroke="midnightblue" points="384.03,-25.14 374.95,-19.67 378.63,-29.6 384.03,-25.14"/>
</g>
<!-- Node12 -->
<g id="node12" class="node">
<title>Node12</title>
<g id="a_node12"><a xlink:title=" ">
<polygon fill="none" stroke="#bfbfbf" points="827.07,-0.5 827.07,-19.5 883.07,-19.5 883.07,-0.5 827.07,-0.5"/>
<text text-anchor="middle" x="855.07" y="-7.5" font-family="Helvetica,sans-Serif" font-size="10.00">stddef.h</text>
</a>
</g>
</g>
<!-- Node11&#45;&gt;Node12 -->
<g id="edge15" class="edge">
<title>Node11&#45;&gt;Node12</title>
<path fill="none" stroke="midnightblue" d="M561.8,-344.06C659.96,-340.1 976.07,-320.68 976.07,-235 976.07,-235 976.07,-235 976.07,-121 976.07,-90.77 976.12,-78.62 956.07,-56 939.7,-37.52 914.28,-26.25 893.04,-19.61"/>
<polygon fill="midnightblue" stroke="midnightblue" points="893.89,-16.21 883.32,-16.79 891.95,-22.94 893.89,-16.21"/>
</g>
<!-- Node13 -->
<g id="node13" class="node">
<title>Node13</title>
<g id="a_node13"><a xlink:href="irq_8h.html" target="_top" xlink:title="IRQ driver interface.">
<polygon fill="none" stroke="black" points="514.07,-280.5 514.07,-299.5 552.07,-299.5 552.07,-280.5 514.07,-280.5"/>
<text text-anchor="middle" x="533.07" y="-287.5" font-family="Helvetica,sans-Serif" font-size="10.00">irq.h</text>
</a>
</g>
</g>
<!-- Node11&#45;&gt;Node13 -->
<g id="edge17" class="edge">
<title>Node11&#45;&gt;Node13</title>
<path fill="none" stroke="midnightblue" d="M533.07,-336.08C533.07,-329.01 533.07,-318.86 533.07,-309.99"/>
<polygon fill="midnightblue" stroke="midnightblue" points="536.57,-309.75 533.07,-299.75 529.57,-309.75 536.57,-309.75"/>
</g>
<!-- Node16 -->
<g id="node16" class="node">
<title>Node16</title>
<g id="a_node16"><a xlink:href="kernel__defines_8h.html" target="_top" xlink:title="Common macros and compiler attributes/pragmas configuration.">
<polygon fill="none" stroke="black" points="596.57,-56.5 596.57,-75.5 693.57,-75.5 693.57,-56.5 596.57,-56.5"/>
<text text-anchor="middle" x="645.07" y="-63.5" font-family="Helvetica,sans-Serif" font-size="10.00">kernel_defines.h</text>
</a>
</g>
</g>
<!-- Node11&#45;&gt;Node16 -->
<g id="edge20" class="edge">
<title>Node11&#45;&gt;Node16</title>
<path fill="none" stroke="midnightblue" d="M521.99,-336.33C501.56,-319.29 460.07,-279.24 460.07,-235 460.07,-235 460.07,-235 460.07,-177 460.07,-146.9 457.58,-133.07 479.07,-112 507.31,-84.32 550.75,-73.23 586.11,-68.98"/>
<polygon fill="midnightblue" stroke="midnightblue" points="586.75,-72.43 596.33,-67.91 586.02,-65.47 586.75,-72.43"/>
</g>
<!-- Node17 -->
<g id="node17" class="node">
<title>Node17</title>
<g id="a_node17"><a xlink:href="list_8h.html" target="_top" xlink:title="Intrusive linked list.">
<polygon fill="none" stroke="black" points="905.57,-56.5 905.57,-75.5 946.57,-75.5 946.57,-56.5 905.57,-56.5"/>
<text text-anchor="middle" x="926.07" y="-63.5" font-family="Helvetica,sans-Serif" font-size="10.00">list.h</text>
</a>
</g>
</g>
<!-- Node11&#45;&gt;Node17 -->
<g id="edge23" class="edge">
<title>Node11&#45;&gt;Node17</title>
<path fill="none" stroke="midnightblue" d="M561.87,-343.41C654.4,-337.5 938.07,-313.05 938.07,-235 938.07,-235 938.07,-235 938.07,-177 938.07,-144.76 932.92,-107.51 929.36,-85.68"/>
<polygon fill="midnightblue" stroke="midnightblue" points="932.76,-84.8 927.64,-75.52 925.86,-85.97 932.76,-84.8"/>
</g>
<!-- Node18 -->
<g id="node18" class="node">
<title>Node18</title>
<g id="a_node18"><a xlink:href="core_2include_2thread_8h.html" target="_top" xlink:title="Threading API.">
<polygon fill="none" stroke="black" points="634.57,-280.5 634.57,-299.5 691.57,-299.5 691.57,-280.5 634.57,-280.5"/>
<text text-anchor="middle" x="663.07" y="-287.5" font-family="Helvetica,sans-Serif" font-size="10.00">thread.h</text>
</a>
</g>
</g>
<!-- Node11&#45;&gt;Node18 -->
<g id="edge24" class="edge">
<title>Node11&#45;&gt;Node18</title>
<path fill="none" stroke="midnightblue" d="M553.67,-336.44C575.07,-327.56 608.75,-313.56 633.1,-303.45"/>
<polygon fill="midnightblue" stroke="midnightblue" points="634.68,-306.58 642.57,-299.52 631.99,-300.12 634.68,-306.58"/>
</g>
<!-- Node14 -->
<g id="node14" class="node">
<title>Node14</title>
<g id="a_node14"><a xlink:title=" ">
<polygon fill="none" stroke="#bfbfbf" points="488.07,-168.5 488.07,-187.5 550.07,-187.5 550.07,-168.5 488.07,-168.5"/>
<text text-anchor="middle" x="519.07" y="-175.5" font-family="Helvetica,sans-Serif" font-size="10.00">stdbool.h</text>
</a>
</g>
</g>
<!-- Node13&#45;&gt;Node14 -->
<g id="edge18" class="edge">
<title>Node13&#45;&gt;Node14</title>
<path fill="none" stroke="midnightblue" d="M528.96,-280.28C525.01,-271.38 519.33,-257.07 517.07,-244 514.43,-228.68 515.21,-211.04 516.49,-198.01"/>
<polygon fill="midnightblue" stroke="midnightblue" points="519.99,-198.25 517.68,-187.91 513.04,-197.43 519.99,-198.25"/>
</g>
<!-- Node15 -->
<g id="node15" class="node">
<title>Node15</title>
<g id="a_node15"><a xlink:title=" ">
<polygon fill="none" stroke="#bfbfbf" points="526.07,-224.5 526.07,-243.5 594.07,-243.5 594.07,-224.5 526.07,-224.5"/>
<text text-anchor="middle" x="560.07" y="-231.5" font-family="Helvetica,sans-Serif" font-size="10.00">cpu_conf.h</text>
</a>
</g>
</g>
<!-- Node13&#45;&gt;Node15 -->
<g id="edge19" class="edge">
<title>Node13&#45;&gt;Node15</title>
<path fill="none" stroke="midnightblue" d="M537.53,-280.08C541.23,-272.69 546.6,-261.95 551.17,-252.81"/>
<polygon fill="midnightblue" stroke="midnightblue" points="554.36,-254.26 555.7,-243.75 548.09,-251.13 554.36,-254.26"/>
</g>
<!-- Node16&#45;&gt;Node2 -->
<g id="edge22" class="edge">
<title>Node16&#45;&gt;Node2</title>
<path fill="none" stroke="midnightblue" d="M601.02,-56.44C546.45,-45.84 454.48,-27.98 403.62,-18.1"/>
<polygon fill="midnightblue" stroke="midnightblue" points="404.21,-14.65 393.73,-16.18 402.87,-21.52 404.21,-14.65"/>
</g>
<!-- Node16&#45;&gt;Node12 -->
<g id="edge21" class="edge">
<title>Node16&#45;&gt;Node12</title>
<path fill="none" stroke="midnightblue" d="M678.35,-56.44C716.12,-46.73 777.6,-30.92 817.19,-20.74"/>
<polygon fill="midnightblue" stroke="midnightblue" points="818.18,-24.1 826.99,-18.22 816.44,-17.32 818.18,-24.1"/>
</g>
<!-- Node18&#45;&gt;Node15 -->
<g id="edge41" class="edge">
<title>Node18&#45;&gt;Node15</title>
<path fill="none" stroke="midnightblue" d="M646.52,-280.32C630.08,-271.7 604.64,-258.36 585.6,-248.39"/>
<polygon fill="midnightblue" stroke="midnightblue" points="587.06,-245.2 576.58,-243.65 583.81,-251.4 587.06,-245.2"/>
</g>
<!-- Node19 -->
<g id="node19" class="node">
<title>Node19</title>
<g id="a_node19"><a xlink:href="clist_8h.html" target="_top" xlink:title="Circular linked list.">
<polygon fill="none" stroke="black" points="864.07,-112.5 864.07,-131.5 910.07,-131.5 910.07,-112.5 864.07,-112.5"/>
<text text-anchor="middle" x="887.07" y="-119.5" font-family="Helvetica,sans-Serif" font-size="10.00">clist.h</text>
</a>
</g>
</g>
<!-- Node18&#45;&gt;Node19 -->
<g id="edge25" class="edge">
<title>Node18&#45;&gt;Node19</title>
<path fill="none" stroke="midnightblue" d="M681.53,-280.4C698.8,-272.04 725.01,-258.5 746.07,-244 794.74,-210.49 845.95,-162.98 871.15,-138.67"/>
<polygon fill="midnightblue" stroke="midnightblue" points="873.65,-141.12 878.38,-131.64 868.77,-136.1 873.65,-141.12"/>
</g>
<!-- Node20 -->
<g id="node20" class="node">
<title>Node20</title>
<g id="a_node20"><a xlink:href="cib_8h.html" target="_top" xlink:title="Circular integer buffer interface.">
<polygon fill="none" stroke="black" points="612.07,-224.5 612.07,-243.5 652.07,-243.5 652.07,-224.5 612.07,-224.5"/>
<text text-anchor="middle" x="632.07" y="-231.5" font-family="Helvetica,sans-Serif" font-size="10.00">cib.h</text>
</a>
</g>
</g>
<!-- Node18&#45;&gt;Node20 -->
<g id="edge28" class="edge">
<title>Node18&#45;&gt;Node20</title>
<path fill="none" stroke="midnightblue" d="M657.95,-280.08C653.67,-272.61 647.41,-261.72 642.13,-252.52"/>
<polygon fill="midnightblue" stroke="midnightblue" points="645.11,-250.68 637.1,-243.75 639.04,-254.17 645.11,-250.68"/>
</g>
<!-- Node23 -->
<g id="node23" class="node">
<title>Node23</title>
<g id="a_node23"><a xlink:href="msg_8h.html" target="_top" xlink:title="Messaging API for inter process communication.">
<polygon fill="none" stroke="black" points="670.57,-224.5 670.57,-243.5 717.57,-243.5 717.57,-224.5 670.57,-224.5"/>
<text text-anchor="middle" x="694.07" y="-231.5" font-family="Helvetica,sans-Serif" font-size="10.00">msg.h</text>
</a>
</g>
</g>
<!-- Node18&#45;&gt;Node23 -->
<g id="edge32" class="edge">
<title>Node18&#45;&gt;Node23</title>
<path fill="none" stroke="midnightblue" d="M668.19,-280.08C672.48,-272.61 678.73,-261.72 684.02,-252.52"/>
<polygon fill="midnightblue" stroke="midnightblue" points="687.11,-254.17 689.05,-243.75 681.04,-250.68 687.11,-254.17"/>
</g>
<!-- Node24 -->
<g id="node24" class="node">
<title>Node24</title>
<g id="a_node24"><a xlink:href="sched_8h.html" target="_top" xlink:title="Scheduler API definition.">
<polygon fill="none" stroke="black" points="719.07,-168.5 719.07,-187.5 773.07,-187.5 773.07,-168.5 719.07,-168.5"/>
<text text-anchor="middle" x="746.07" y="-175.5" font-family="Helvetica,sans-Serif" font-size="10.00">sched.h</text>
</a>
</g>
</g>
<!-- Node18&#45;&gt;Node24 -->
<g id="edge42" class="edge">
<title>Node18&#45;&gt;Node24</title>
<path fill="none" stroke="midnightblue" d="M681.39,-280.46C695.81,-272.83 715.37,-260.35 727.07,-244 736.8,-230.41 741.59,-211.86 743.91,-198.06"/>
<polygon fill="midnightblue" stroke="midnightblue" points="747.43,-198.18 745.35,-187.79 740.5,-197.21 747.43,-198.18"/>
</g>
<!-- Node19&#45;&gt;Node12 -->
<g id="edge26" class="edge">
<title>Node19&#45;&gt;Node12</title>
<path fill="none" stroke="midnightblue" d="M884.56,-112.37C879.37,-94.54 867.38,-53.3 860.39,-29.27"/>
<polygon fill="midnightblue" stroke="midnightblue" points="863.73,-28.22 857.57,-19.59 857,-30.17 863.73,-28.22"/>
</g>
<!-- Node19&#45;&gt;Node17 -->
<g id="edge27" class="edge">
<title>Node19&#45;&gt;Node17</title>
<path fill="none" stroke="midnightblue" d="M893.51,-112.08C899.02,-104.46 907.1,-93.26 913.84,-83.94"/>
<polygon fill="midnightblue" stroke="midnightblue" points="916.74,-85.91 919.75,-75.75 911.06,-81.81 916.74,-85.91"/>
</g>
<!-- Node21 -->
<g id="node21" class="node">
<title>Node21</title>
<g id="a_node21"><a xlink:href="assert_8h.html" target="_top" xlink:title="POSIX.1&#45;2008 compliant version of the assert macro.">
<polygon fill="none" stroke="black" points="568.07,-168.5 568.07,-187.5 624.07,-187.5 624.07,-168.5 568.07,-168.5"/>
<text text-anchor="middle" x="596.07" y="-175.5" font-family="Helvetica,sans-Serif" font-size="10.00">assert.h</text>
</a>
</g>
</g>
<!-- Node20&#45;&gt;Node21 -->
<g id="edge29" class="edge">
<title>Node20&#45;&gt;Node21</title>
<path fill="none" stroke="midnightblue" d="M626.13,-224.08C621.1,-216.53 613.74,-205.49 607.56,-196.23"/>
<polygon fill="midnightblue" stroke="midnightblue" points="610.37,-194.13 601.91,-187.75 604.54,-198.01 610.37,-194.13"/>
</g>
<!-- Node22 -->
<g id="node22" class="node">
<title>Node22</title>
<g id="a_node22"><a xlink:href="panic_8h.html" target="_top" xlink:title="Crash handling header.">
<polygon fill="none" stroke="black" points="488.07,-112.5 488.07,-131.5 540.07,-131.5 540.07,-112.5 488.07,-112.5"/>
<text text-anchor="middle" x="514.07" y="-119.5" font-family="Helvetica,sans-Serif" font-size="10.00">panic.h</text>
</a>
</g>
</g>
<!-- Node21&#45;&gt;Node22 -->
<g id="edge30" class="edge">
<title>Node21&#45;&gt;Node22</title>
<path fill="none" stroke="midnightblue" d="M582.9,-168.32C570.23,-159.98 550.84,-147.21 535.87,-137.35"/>
<polygon fill="midnightblue" stroke="midnightblue" points="537.49,-134.23 527.21,-131.65 533.64,-140.08 537.49,-134.23"/>
</g>
<!-- Node22&#45;&gt;Node16 -->
<g id="edge31" class="edge">
<title>Node22&#45;&gt;Node16</title>
<path fill="none" stroke="midnightblue" d="M534.83,-112.44C556.39,-103.56 590.34,-89.56 614.87,-79.45"/>
<polygon fill="midnightblue" stroke="midnightblue" points="616.5,-82.56 624.41,-75.52 613.83,-76.09 616.5,-82.56"/>
</g>
<!-- Node23&#45;&gt;Node2 -->
<g id="edge33" class="edge">
<title>Node23&#45;&gt;Node2</title>
<path fill="none" stroke="midnightblue" d="M687.12,-224.41C676.33,-211.38 654.57,-186.2 633.07,-168 555.22,-102.08 446.18,-47.43 395.3,-23.71"/>
<polygon fill="midnightblue" stroke="midnightblue" points="396.76,-20.53 386.21,-19.51 393.82,-26.88 396.76,-20.53"/>
</g>
<!-- Node23&#45;&gt;Node14 -->
<g id="edge34" class="edge">
<title>Node23&#45;&gt;Node14</title>
<path fill="none" stroke="midnightblue" d="M670.47,-225.72C641.26,-216.7 591.16,-201.24 556.64,-190.59"/>
<polygon fill="midnightblue" stroke="midnightblue" points="557.5,-187.19 546.91,-187.59 555.43,-193.88 557.5,-187.19"/>
</g>
<!-- Node23&#45;&gt;Node24 -->
<g id="edge35" class="edge">
<title>Node23&#45;&gt;Node24</title>
<path fill="none" stroke="midnightblue" d="M702.66,-224.08C710.23,-216.22 721.45,-204.57 730.59,-195.08"/>
<polygon fill="midnightblue" stroke="midnightblue" points="733.23,-197.38 737.65,-187.75 728.19,-192.53 733.23,-197.38"/>
</g>
<!-- Node24&#45;&gt;Node9 -->
<g id="edge37" class="edge">
<title>Node24&#45;&gt;Node9</title>
<path fill="none" stroke="midnightblue" d="M727.53,-168.44C708.45,-159.64 678.5,-145.81 656.64,-135.72"/>
<polygon fill="midnightblue" stroke="midnightblue" points="658.07,-132.53 647.53,-131.52 655.14,-138.88 658.07,-132.53"/>
</g>
<!-- Node24&#45;&gt;Node12 -->
<g id="edge36" class="edge">
<title>Node24&#45;&gt;Node12</title>
<path fill="none" stroke="midnightblue" d="M767.27,-168.42C783.12,-160.99 804.18,-148.78 817.07,-132 840.8,-101.11 849.88,-55.13 853.23,-29.67"/>
<polygon fill="midnightblue" stroke="midnightblue" points="856.73,-29.87 854.39,-19.54 849.77,-29.07 856.73,-29.87"/>
</g>
<!-- Node24&#45;&gt;Node16 -->
<g id="edge38" class="edge">
<title>Node24&#45;&gt;Node16</title>
<path fill="none" stroke="midnightblue" d="M738.15,-168.37C721.26,-149.97 681.5,-106.67 659.81,-83.05"/>
<polygon fill="midnightblue" stroke="midnightblue" points="662.3,-80.59 652.96,-75.59 657.15,-85.32 662.3,-80.59"/>
</g>
<!-- Node24&#45;&gt;Node19 -->
<g id="edge40" class="edge">
<title>Node24&#45;&gt;Node19</title>
<path fill="none" stroke="midnightblue" d="M768.41,-168.44C791.83,-159.48 828.81,-145.31 855.26,-135.18"/>
<polygon fill="midnightblue" stroke="midnightblue" points="856.75,-138.36 864.84,-131.52 854.25,-131.82 856.75,-138.36"/>
</g>
<!-- Node25 -->
<g id="node25" class="node">
<title>Node25</title>
<g id="a_node25"><a xlink:href="native__sched_8h.html" target="_top" xlink:title="Add definitions required on the native board.">
<polygon fill="none" stroke="black" points="718.07,-112.5 718.07,-131.5 808.07,-131.5 808.07,-112.5 718.07,-112.5"/>
<text text-anchor="middle" x="763.07" y="-119.5" font-family="Helvetica,sans-Serif" font-size="10.00">native_sched.h</text>
</a>
</g>
</g>
<!-- Node24&#45;&gt;Node25 -->
<g id="edge39" class="edge">
<title>Node24&#45;&gt;Node25</title>
<path fill="none" stroke="midnightblue" d="M748.88,-168.08C751.16,-160.85 754.44,-150.41 757.28,-141.4"/>
<polygon fill="midnightblue" stroke="midnightblue" points="760.65,-142.34 760.32,-131.75 753.98,-140.24 760.65,-142.34"/>
</g>
</g>
</svg>
