<?xml version="1.0" encoding="UTF-8" standalone="no"?>
<!DOCTYPE svg PUBLIC "-//W3C//DTD SVG 1.1//EN"
 "http://www.w3.org/Graphics/SVG/1.1/DTD/svg11.dtd">
<!-- Generated by graphviz version 2.40.1 (20161225.0304)
 -->
<!-- Title: cpu/native/include/candev_linux_params.h Pages: 1 -->
<svg width="638pt" height="375pt"
 viewBox="0.00 0.00 637.50 375.00" xmlns="http://www.w3.org/2000/svg" xmlns:xlink="http://www.w3.org/1999/xlink">
<g id="graph0" class="graph" transform="scale(1 1) rotate(0) translate(4 371)">
<title>cpu/native/include/candev_linux_params.h</title>
<!-- Node0 -->
<g id="node1" class="node">
<title>Node0</title>
<polygon fill="#bfbfbf" stroke="#000000" points="100,-336.5 100,-366.5 222,-366.5 222,-336.5 100,-336.5"/>
<text text-anchor="start" x="108" y="-354.5" font-family="Helvetica,sans-Serif" font-size="10.00" fill="#000000">cpu/native/include</text>
<text text-anchor="middle" x="161" y="-343.5" font-family="Helvetica,sans-Serif" font-size="10.00" fill="#000000">/candev_linux_params.h</text>
</g>
<!-- Node1 -->
<g id="node2" class="node">
<title>Node1</title>
<g id="a_node2"><a xlink:href="candev__linux_8h.html" target="_top" xlink:title="Implementation of simulated CAN controller driver using SocketCAN on Linux. ">
<polygon fill="none" stroke="#000000" points="73,-280.5 73,-299.5 155,-299.5 155,-280.5 73,-280.5"/>
<text text-anchor="middle" x="114" y="-287.5" font-family="Helvetica,sans-Serif" font-size="10.00" fill="#000000">candev_linux.h</text>
</a>
</g>
</g>
<!-- Node0&#45;&gt;Node1 -->
<g id="edge1" class="edge">
<title>Node0&#45;&gt;Node1</title>
<path fill="none" stroke="#191970" d="M149.382,-336.2977C142.79,-327.672 134.5052,-316.8312 127.6099,-307.8087"/>
<polygon fill="#191970" stroke="#191970" points="130.3783,-305.6671 121.5253,-299.8469 124.8165,-309.9176 130.3783,-305.6671"/>
</g>
<!-- Node17 -->
<g id="node18" class="node">
<title>Node17</title>
<g id="a_node18"><a xlink:href="sys_2include_2can_2device_8h.html" target="_top" xlink:title="Definitions of CAN device interface. ">
<polygon fill="none" stroke="#000000" points="173,-280.5 173,-299.5 245,-299.5 245,-280.5 173,-280.5"/>
<text text-anchor="middle" x="209" y="-287.5" font-family="Helvetica,sans-Serif" font-size="10.00" fill="#000000">can/device.h</text>
</a>
</g>
</g>
<!-- Node0&#45;&gt;Node17 -->
<g id="edge24" class="edge">
<title>Node0&#45;&gt;Node17</title>
<path fill="none" stroke="#191970" d="M172.8652,-336.2977C179.5975,-327.672 188.0585,-316.8312 195.1006,-307.8087"/>
<polygon fill="#191970" stroke="#191970" points="197.921,-309.8836 201.3146,-299.8469 192.4027,-305.5766 197.921,-309.8836"/>
</g>
<!-- Node2 -->
<g id="node3" class="node">
<title>Node2</title>
<polygon fill="none" stroke="#bfbfbf" points="0,-224.5 0,-243.5 56,-243.5 56,-224.5 0,-224.5"/>
<text text-anchor="middle" x="28" y="-231.5" font-family="Helvetica,sans-Serif" font-size="10.00" fill="#000000">stdbool.h</text>
</g>
<!-- Node1&#45;&gt;Node2 -->
<g id="edge2" class="edge">
<title>Node1&#45;&gt;Node2</title>
<path fill="none" stroke="#191970" d="M99.0199,-280.2455C85.8249,-271.6534 66.3949,-259.0014 51.1921,-249.1018"/>
<polygon fill="#191970" stroke="#191970" points="53.0983,-246.1665 42.8084,-243.6427 49.2785,-252.0325 53.0983,-246.1665"/>
</g>
<!-- Node3 -->
<g id="node4" class="node">
<title>Node3</title>
<g id="a_node4"><a xlink:href="candev_8h.html" target="_top" xlink:title="Definitions for low&#45;level CAN driver interface. ">
<polygon fill="none" stroke="#000000" points="171.5,-224.5 171.5,-243.5 246.5,-243.5 246.5,-224.5 171.5,-224.5"/>
<text text-anchor="middle" x="209" y="-231.5" font-family="Helvetica,sans-Serif" font-size="10.00" fill="#000000">can/candev.h</text>
</a>
</g>
</g>
<!-- Node1&#45;&gt;Node3 -->
<g id="edge3" class="edge">
<title>Node1&#45;&gt;Node3</title>
<path fill="none" stroke="#191970" d="M130.5477,-280.2455C145.2599,-271.5731 166.9888,-258.7645 183.8505,-248.825"/>
<polygon fill="#191970" stroke="#191970" points="185.8046,-251.736 192.6419,-243.6427 182.2498,-245.7057 185.8046,-251.736"/>
</g>
<!-- Node14 -->
<g id="node15" class="node">
<title>Node14</title>
<g id="a_node15"><a xlink:href="mutex_8h.html" target="_top" xlink:title="Mutex for thread synchronization. ">
<polygon fill="none" stroke="#000000" points="98,-112.5 98,-131.5 150,-131.5 150,-112.5 98,-112.5"/>
<text text-anchor="middle" x="124" y="-119.5" font-family="Helvetica,sans-Serif" font-size="10.00" fill="#000000">mutex.h</text>
</a>
</g>
</g>
<!-- Node1&#45;&gt;Node14 -->
<g id="edge23" class="edge">
<title>Node1&#45;&gt;Node14</title>
<path fill="none" stroke="#191970" d="M114.5663,-280.4862C116.1471,-253.9293 120.633,-178.5651 122.7997,-142.1655"/>
<polygon fill="#191970" stroke="#191970" points="126.3145,-142.0182 123.415,-131.8279 119.3269,-141.6022 126.3145,-142.0182"/>
</g>
<!-- Node4 -->
<g id="node5" class="node">
<title>Node4</title>
<polygon fill="none" stroke="#bfbfbf" points="194.5,-56.5 194.5,-75.5 243.5,-75.5 243.5,-56.5 194.5,-56.5"/>
<text text-anchor="middle" x="219" y="-63.5" font-family="Helvetica,sans-Serif" font-size="10.00" fill="#000000">stdint.h</text>
</g>
<!-- Node3&#45;&gt;Node4 -->
<g id="edge4" class="edge">
<title>Node3&#45;&gt;Node4</title>
<path fill="none" stroke="#191970" d="M211.7621,-224.2293C214.2226,-214.985 217.638,-200.6764 219,-188 222.8675,-152.0033 221.5704,-109.6867 220.2812,-85.5376"/>
<polygon fill="#191970" stroke="#191970" points="223.7737,-85.3044 219.6899,-75.5283 216.7858,-85.7173 223.7737,-85.3044"/>
</g>
<!-- Node5 -->
<g id="node6" class="node">
<title>Node5</title>
<g id="a_node6"><a xlink:href="stdlib_8h.html" target="_top" xlink:title="stdlib.h wrapper for MSP430 ">
<polygon fill="none" stroke="#000000" points="579,-56.5 579,-75.5 627,-75.5 627,-56.5 579,-56.5"/>
<text text-anchor="middle" x="603" y="-63.5" font-family="Helvetica,sans-Serif" font-size="10.00" fill="#000000">stdlib.h</text>
</a>
</g>
</g>
<!-- Node3&#45;&gt;Node5 -->
<g id="edge5" class="edge">
<title>Node3&#45;&gt;Node5</title>
<path fill="none" stroke="#191970" d="M246.802,-228.489C332.0704,-215.3298 535.7016,-179.5924 584,-132 596.3177,-119.8623 600.7769,-100.2943 602.3283,-85.6106"/>
<polygon fill="#191970" stroke="#191970" points="605.8265,-85.757 603.0298,-75.538 598.8434,-85.2706 605.8265,-85.757"/>
</g>
<!-- Node7 -->
<g id="node8" class="node">
<title>Node7</title>
<g id="a_node8"><a xlink:href="sys_2include_2can_2can_8h.html" target="_top" xlink:title="Definitions high&#45;level CAN interface. ">
<polygon fill="none" stroke="#000000" points="150.5,-168.5 150.5,-187.5 209.5,-187.5 209.5,-168.5 150.5,-168.5"/>
<text text-anchor="middle" x="180" y="-175.5" font-family="Helvetica,sans-Serif" font-size="10.00" fill="#000000">can/can.h</text>
</a>
</g>
</g>
<!-- Node3&#45;&gt;Node7 -->
<g id="edge8" class="edge">
<title>Node3&#45;&gt;Node7</title>
<path fill="none" stroke="#191970" d="M203.9486,-224.2455C199.9981,-216.617 194.3903,-205.7881 189.5942,-196.5267"/>
<polygon fill="#191970" stroke="#191970" points="192.7001,-194.9131 184.9935,-187.6427 186.4841,-198.1321 192.7001,-194.9131"/>
</g>
<!-- Node8 -->
<g id="node9" class="node">
<title>Node8</title>
<g id="a_node9"><a xlink:href="include_2can_2common_8h.html" target="_top" xlink:title="Definitions of high&#45;level CAN interface. ">
<polygon fill="none" stroke="#000000" points="267.5,-168.5 267.5,-187.5 348.5,-187.5 348.5,-168.5 267.5,-168.5"/>
<text text-anchor="middle" x="308" y="-175.5" font-family="Helvetica,sans-Serif" font-size="10.00" fill="#000000">can/common.h</text>
</a>
</g>
</g>
<!-- Node3&#45;&gt;Node8 -->
<g id="edge10" class="edge">
<title>Node3&#45;&gt;Node8</title>
<path fill="none" stroke="#191970" d="M226.2445,-224.2455C241.5761,-215.5731 264.2199,-202.7645 281.7916,-192.825"/>
<polygon fill="#191970" stroke="#191970" points="283.9724,-195.6126 290.9531,-187.6427 280.5259,-189.5198 283.9724,-195.6126"/>
</g>
<!-- Node3&#45;&gt;Node14 -->
<g id="edge19" class="edge">
<title>Node3&#45;&gt;Node14</title>
<path fill="none" stroke="#191970" d="M187.1721,-224.4356C172.0321,-216.7117 152.5797,-204.4253 141,-188 131.4243,-174.4172 127.2387,-155.8719 125.4111,-141.898"/>
<polygon fill="#191970" stroke="#191970" points="128.8837,-141.4495 124.3931,-131.8534 121.9194,-142.1554 128.8837,-141.4495"/>
</g>
<!-- Node6 -->
<g id="node7" class="node">
<title>Node6</title>
<g id="a_node7"><a xlink:href="malloc_8h.html" target="_top" xlink:title="malloc.h">
<polygon fill="none" stroke="#000000" points="576.5,-.5 576.5,-19.5 629.5,-19.5 629.5,-.5 576.5,-.5"/>
<text text-anchor="middle" x="603" y="-7.5" font-family="Helvetica,sans-Serif" font-size="10.00" fill="#000000">malloc.h</text>
</a>
</g>
</g>
<!-- Node5&#45;&gt;Node6 -->
<g id="edge6" class="edge">
<title>Node5&#45;&gt;Node6</title>
<path fill="none" stroke="#191970" d="M597.7332,-56.2455C596.3221,-48.9382 595.9179,-38.6944 596.5205,-29.7046"/>
<polygon fill="#191970" stroke="#191970" points="600.0111,-29.9945 597.7549,-19.6427 593.0632,-29.1421 600.0111,-29.9945"/>
</g>
<!-- Node6&#45;&gt;Node5 -->
<g id="edge7" class="edge">
<title>Node6&#45;&gt;Node5</title>
<path fill="none" stroke="#191970" d="M608.2451,-19.6427C609.6665,-26.9199 610.081,-37.155 609.4887,-46.1575"/>
<polygon fill="#191970" stroke="#191970" points="605.9947,-45.8972 608.2668,-56.2455 612.9439,-46.739 605.9947,-45.8972"/>
</g>
<!-- Node7&#45;&gt;Node4 -->
<g id="edge9" class="edge">
<title>Node7&#45;&gt;Node4</title>
<path fill="none" stroke="#191970" d="M183.3251,-168.4509C189.7435,-150.0186 203.9483,-109.2254 212.369,-85.043"/>
<polygon fill="#191970" stroke="#191970" points="215.7001,-86.1197 215.6833,-75.5249 209.0894,-83.8177 215.7001,-86.1197"/>
</g>
<!-- Node8&#45;&gt;Node4 -->
<g id="edge11" class="edge">
<title>Node8&#45;&gt;Node4</title>
<path fill="none" stroke="#191970" d="M300.4119,-168.4509C285.4364,-149.6054 251.8862,-107.3849 232.8601,-83.4419"/>
<polygon fill="#191970" stroke="#191970" points="235.5305,-81.1765 226.5689,-75.5249 230.0501,-85.5315 235.5305,-81.1765"/>
</g>
<!-- Node9 -->
<g id="node10" class="node">
<title>Node9</title>
<g id="a_node10"><a xlink:href="uio_8h.html" target="_top" xlink:title="libc header for scatter/gather I/O ">
<polygon fill="none" stroke="#000000" points="519,-112.5 519,-131.5 575,-131.5 575,-112.5 519,-112.5"/>
<text text-anchor="middle" x="547" y="-119.5" font-family="Helvetica,sans-Serif" font-size="10.00" fill="#000000">sys/uio.h</text>
</a>
</g>
</g>
<!-- Node8&#45;&gt;Node9 -->
<g id="edge12" class="edge">
<title>Node8&#45;&gt;Node9</title>
<path fill="none" stroke="#191970" d="M348.7386,-169.2252C387.5408,-160.7555 447.8195,-147.3086 508.9358,-132.1992"/>
<polygon fill="#191970" stroke="#191970" points="509.888,-135.5691 518.7486,-129.7605 508.1996,-128.7758 509.888,-135.5691"/>
</g>
<!-- Node11 -->
<g id="node12" class="node">
<title>Node11</title>
<g id="a_node12"><a xlink:href="timex_8h.html" target="_top" xlink:title="Utility library for comparing and computing timestamps. ">
<polygon fill="none" stroke="#000000" points="283.5,-112.5 283.5,-131.5 332.5,-131.5 332.5,-112.5 283.5,-112.5"/>
<text text-anchor="middle" x="308" y="-119.5" font-family="Helvetica,sans-Serif" font-size="10.00" fill="#000000">timex.h</text>
</a>
</g>
</g>
<!-- Node8&#45;&gt;Node11 -->
<g id="edge15" class="edge">
<title>Node8&#45;&gt;Node11</title>
<path fill="none" stroke="#191970" d="M308,-168.2455C308,-160.9382 308,-150.6944 308,-141.7046"/>
<polygon fill="#191970" stroke="#191970" points="311.5001,-141.6426 308,-131.6427 304.5001,-141.6427 311.5001,-141.6426"/>
</g>
<!-- Node13 -->
<g id="node14" class="node">
<title>Node13</title>
<polygon fill="none" stroke="#bfbfbf" points="351,-112.5 351,-131.5 403,-131.5 403,-112.5 351,-112.5"/>
<text text-anchor="middle" x="377" y="-119.5" font-family="Helvetica,sans-Serif" font-size="10.00" fill="#000000">thread.h</text>
</g>
<!-- Node8&#45;&gt;Node13 -->
<g id="edge18" class="edge">
<title>Node8&#45;&gt;Node13</title>
<path fill="none" stroke="#191970" d="M320.0189,-168.2455C330.2098,-159.9746 345.0362,-147.9416 357.0107,-138.2232"/>
<polygon fill="#191970" stroke="#191970" points="359.5598,-140.662 365.1188,-131.6427 355.1486,-135.2268 359.5598,-140.662"/>
</g>
<!-- Node9&#45;&gt;Node5 -->
<g id="edge13" class="edge">
<title>Node9&#45;&gt;Node5</title>
<path fill="none" stroke="#191970" d="M556.7545,-112.2455C564.8648,-104.1352 576.5925,-92.4075 586.2081,-82.7919"/>
<polygon fill="#191970" stroke="#191970" points="588.7611,-85.1887 593.3573,-75.6427 583.8113,-80.2389 588.7611,-85.1887"/>
</g>
<!-- Node10 -->
<g id="node11" class="node">
<title>Node10</title>
<polygon fill="none" stroke="#bfbfbf" points="493,-56.5 493,-75.5 561,-75.5 561,-56.5 493,-56.5"/>
<text text-anchor="middle" x="527" y="-63.5" font-family="Helvetica,sans-Serif" font-size="10.00" fill="#000000">sys/types.h</text>
</g>
<!-- Node9&#45;&gt;Node10 -->
<g id="edge14" class="edge">
<title>Node9&#45;&gt;Node10</title>
<path fill="none" stroke="#191970" d="M543.5163,-112.2455C540.8492,-104.7776 537.0867,-94.2427 533.8263,-85.1137"/>
<polygon fill="#191970" stroke="#191970" points="537.1033,-83.8829 530.4438,-75.6427 530.5111,-86.2373 537.1033,-83.8829"/>
</g>
<!-- Node11&#45;&gt;Node4 -->
<g id="edge16" class="edge">
<title>Node11&#45;&gt;Node4</title>
<path fill="none" stroke="#191970" d="M292.4974,-112.2455C278.842,-103.6534 258.7343,-91.0014 243.0011,-81.1018"/>
<polygon fill="#191970" stroke="#191970" points="244.6529,-78.006 234.325,-75.6427 240.9249,-83.9307 244.6529,-78.006"/>
</g>
<!-- Node12 -->
<g id="node13" class="node">
<title>Node12</title>
<g id="a_node13"><a xlink:href="inttypes_8h.html" target="_top" xlink:title="Adds include for missing inttype definitions. ">
<polygon fill="none" stroke="#000000" points="344.5,-56.5 344.5,-75.5 403.5,-75.5 403.5,-56.5 344.5,-56.5"/>
<text text-anchor="middle" x="374" y="-63.5" font-family="Helvetica,sans-Serif" font-size="10.00" fill="#000000">inttypes.h</text>
</a>
</g>
</g>
<!-- Node11&#45;&gt;Node12 -->
<g id="edge17" class="edge">
<title>Node11&#45;&gt;Node12</title>
<path fill="none" stroke="#191970" d="M319.4963,-112.2455C329.2442,-103.9746 343.4259,-91.9416 354.8798,-82.2232"/>
<polygon fill="#191970" stroke="#191970" points="357.2747,-84.7813 362.6354,-75.6427 352.7459,-79.4437 357.2747,-84.7813"/>
</g>
<!-- Node14&#45;&gt;Node4 -->
<g id="edge21" class="edge">
<title>Node14&#45;&gt;Node4</title>
<path fill="none" stroke="#191970" d="M140.5477,-112.2455C155.2599,-103.5731 176.9888,-90.7645 193.8505,-80.825"/>
<polygon fill="#191970" stroke="#191970" points="195.8046,-83.736 202.6419,-75.6427 192.2498,-77.7057 195.8046,-83.736"/>
</g>
<!-- Node15 -->
<g id="node16" class="node">
<title>Node15</title>
<polygon fill="none" stroke="#bfbfbf" points="265,-56.5 265,-75.5 317,-75.5 317,-56.5 265,-56.5"/>
<text text-anchor="middle" x="291" y="-63.5" font-family="Helvetica,sans-Serif" font-size="10.00" fill="#000000">stddef.h</text>
</g>
<!-- Node14&#45;&gt;Node15 -->
<g id="edge20" class="edge">
<title>Node14&#45;&gt;Node15</title>
<path fill="none" stroke="#191970" d="M150.0938,-113.25C178.3208,-103.7846 223.5116,-88.6308 255.0818,-78.0444"/>
<polygon fill="#191970" stroke="#191970" points="256.4461,-81.2786 264.8145,-74.7808 254.2205,-74.6418 256.4461,-81.2786"/>
</g>
<!-- Node16 -->
<g id="node17" class="node">
<title>Node16</title>
<g id="a_node17"><a xlink:href="list_8h.html" target="_top" xlink:title="Intrusive linked list. ">
<polygon fill="none" stroke="#000000" points="105,-56.5 105,-75.5 143,-75.5 143,-56.5 105,-56.5"/>
<text text-anchor="middle" x="124" y="-63.5" font-family="Helvetica,sans-Serif" font-size="10.00" fill="#000000">list.h</text>
</a>
</g>
</g>
<!-- Node14&#45;&gt;Node16 -->
<g id="edge22" class="edge">
<title>Node14&#45;&gt;Node16</title>
<path fill="none" stroke="#191970" d="M124,-112.2455C124,-104.9382 124,-94.6944 124,-85.7046"/>
<polygon fill="#191970" stroke="#191970" points="127.5001,-85.6426 124,-75.6427 120.5001,-85.6427 127.5001,-85.6426"/>
</g>
<!-- Node17&#45;&gt;Node3 -->
<g id="edge25" class="edge">
<title>Node17&#45;&gt;Node3</title>
<path fill="none" stroke="#191970" d="M209,-280.2455C209,-272.9382 209,-262.6944 209,-253.7046"/>
<polygon fill="#191970" stroke="#191970" points="212.5001,-253.6426 209,-243.6427 205.5001,-253.6427 212.5001,-253.6426"/>
</g>
<!-- Node18 -->
<g id="node19" class="node">
<title>Node18</title>
<g id="a_node19"><a xlink:href="kernel__types_8h.html" target="_top" xlink:title="Types used by the kernel. ">
<polygon fill="none" stroke="#000000" points="421,-112.5 421,-131.5 501,-131.5 501,-112.5 421,-112.5"/>
<text text-anchor="middle" x="461" y="-119.5" font-family="Helvetica,sans-Serif" font-size="10.00" fill="#000000">kernel_types.h</text>
</a>
</g>
</g>
<!-- Node17&#45;&gt;Node18 -->
<g id="edge26" class="edge">
<title>Node17&#45;&gt;Node18</title>
<path fill="none" stroke="#191970" d="M223.2706,-280.4862C265.0149,-252.6567 387.1548,-171.2301 438.1838,-137.2108"/>
<polygon fill="#191970" stroke="#191970" points="440.1945,-140.0769 446.5735,-131.6177 436.3115,-134.2525 440.1945,-140.0769"/>
</g>
<!-- Node18&#45;&gt;Node4 -->
<g id="edge27" class="edge">
<title>Node18&#45;&gt;Node4</title>
<path fill="none" stroke="#191970" d="M420.8127,-113.5198C379.3936,-104.6538 313.0091,-90.0931 256,-76 255.1239,-75.7834 254.2368,-75.5617 253.3423,-75.3361"/>
<polygon fill="#191970" stroke="#191970" points="254.1991,-71.9426 243.6406,-72.8188 252.441,-78.7182 254.1991,-71.9426"/>
</g>
<!-- Node18&#45;&gt;Node10 -->
<g id="edge31" class="edge">
<title>Node18&#45;&gt;Node10</title>
<path fill="none" stroke="#191970" d="M472.4963,-112.2455C482.2442,-103.9746 496.4259,-91.9416 507.8798,-82.2232"/>
<polygon fill="#191970" stroke="#191970" points="510.2747,-84.7813 515.6354,-75.6427 505.7459,-79.4437 510.2747,-84.7813"/>
</g>
<!-- Node18&#45;&gt;Node12 -->
<g id="edge28" class="edge">
<title>Node18&#45;&gt;Node12</title>
<path fill="none" stroke="#191970" d="M445.8458,-112.2455C432.4973,-103.6534 412.8414,-91.0014 397.4617,-81.1018"/>
<polygon fill="#191970" stroke="#191970" points="399.2836,-78.1121 388.9806,-75.6427 395.4949,-83.9982 399.2836,-78.1121"/>
</g>
<!-- Node18&#45;&gt;Node15 -->
<g id="edge30" class="edge">
<title>Node18&#45;&gt;Node15</title>
<path fill="none" stroke="#191970" d="M431.776,-112.3733C402.6509,-102.7791 357.8836,-88.0323 326.6777,-77.7527"/>
<polygon fill="#191970" stroke="#191970" points="327.6525,-74.3888 317.0594,-74.5843 325.4623,-81.0374 327.6525,-74.3888"/>
</g>
<!-- Node19 -->
<g id="node20" class="node">
<title>Node19</title>
<polygon fill="none" stroke="#bfbfbf" points="427,-56.5 427,-75.5 475,-75.5 475,-56.5 427,-56.5"/>
<text text-anchor="middle" x="451" y="-63.5" font-family="Helvetica,sans-Serif" font-size="10.00" fill="#000000">limits.h</text>
</g>
<!-- Node18&#45;&gt;Node19 -->
<g id="edge29" class="edge">
<title>Node18&#45;&gt;Node19</title>
<path fill="none" stroke="#191970" d="M459.2581,-112.2455C457.9533,-104.9382 456.124,-94.6944 454.5187,-85.7046"/>
<polygon fill="#191970" stroke="#191970" points="457.9254,-84.8717 452.7219,-75.6427 451.0344,-86.1022 457.9254,-84.8717"/>
</g>
</g>
</svg>
