<?xml version="1.0" encoding="UTF-8" standalone="no"?>
<!DOCTYPE svg PUBLIC "-//W3C//DTD SVG 1.1//EN"
 "http://www.w3.org/Graphics/SVG/1.1/DTD/svg11.dtd">
<!-- Generated by graphviz version 2.40.1 (20161225.0304)
 -->
<!-- Title: drivers/cc110x/include/cc110x_constants.h Pages: 1 -->
<svg width="178pt" height="173pt"
 viewBox="0.00 0.00 177.50 173.00" xmlns="http://www.w3.org/2000/svg" xmlns:xlink="http://www.w3.org/1999/xlink">
<g id="graph0" class="graph" transform="scale(1 1) rotate(0) translate(4 169)">
<title>drivers/cc110x/include/cc110x_constants.h</title>
<!-- Node1 -->
<g id="node1" class="node">
<title>Node1</title>
<polygon fill="#bfbfbf" stroke="#000000" points="55.5,-134.5 55.5,-164.5 169.5,-164.5 169.5,-134.5 55.5,-134.5"/>
<text text-anchor="start" x="63.5" y="-152.5" font-family="Helvetica,sans-Serif" font-size="10.00" fill="#000000">drivers/cc110x/include</text>
<text text-anchor="middle" x="112.5" y="-141.5" font-family="Helvetica,sans-Serif" font-size="10.00" fill="#000000">/cc110x_constants.h</text>
</g>
<!-- Node2 -->
<g id="node2" class="node">
<title>Node2</title>
<g id="a_node2"><a xlink:href="cc110x__communication_8h.html" target="_top" xlink:title="Functions to communicate with the CC1100/CC1101 transceiver. ">
<polygon fill="none" stroke="#000000" points="0,-67.5 0,-97.5 131,-97.5 131,-67.5 0,-67.5"/>
<text text-anchor="start" x="8" y="-85.5" font-family="Helvetica,sans-Serif" font-size="10.00" fill="#000000">drivers/cc110x/include</text>
<text text-anchor="middle" x="65.5" y="-74.5" font-family="Helvetica,sans-Serif" font-size="10.00" fill="#000000">/cc110x_communication.h</text>
</a>
</g>
</g>
<!-- Node1&#45;&gt;Node2 -->
<g id="edge1" class="edge">
<title>Node1&#45;&gt;Node2</title>
<path fill="none" stroke="#191970" d="M96.0588,-126.0626C89.443,-116.6315 82.0045,-106.0276 76.1228,-97.6432"/>
<polygon fill="#191970" stroke="#191970" points="93.2268,-128.1201 101.835,-134.2967 98.9574,-124.1001 93.2268,-128.1201"/>
</g>
<!-- Node3 -->
<g id="node3" class="node">
<title>Node3</title>
<g id="a_node3"><a xlink:href="cc110x__internal_8h.html" target="_top" xlink:title="Internal functions of the CC110x transceiver driver. ">
<polygon fill="none" stroke="#000000" points="55.5,-.5 55.5,-30.5 169.5,-30.5 169.5,-.5 55.5,-.5"/>
<text text-anchor="start" x="63.5" y="-18.5" font-family="Helvetica,sans-Serif" font-size="10.00" fill="#000000">drivers/cc110x/include</text>
<text text-anchor="middle" x="112.5" y="-7.5" font-family="Helvetica,sans-Serif" font-size="10.00" fill="#000000">/cc110x_internal.h</text>
</a>
</g>
</g>
<!-- Node1&#45;&gt;Node3 -->
<g id="edge3" class="edge">
<title>Node1&#45;&gt;Node3</title>
<path fill="none" stroke="#191970" d="M128.8331,-125.3666C133.5619,-117.0592 138.0948,-107.4594 140.5,-98 143.8952,-84.6471 143.8952,-80.3529 140.5,-67 137.1896,-53.9806 129.8487,-40.6952 123.5139,-30.8796"/>
<polygon fill="#191970" stroke="#191970" points="125.7158,-123.7569 123.5139,-134.1204 131.698,-127.392 125.7158,-123.7569"/>
</g>
<!-- Node2&#45;&gt;Node3 -->
<g id="edge2" class="edge">
<title>Node2&#45;&gt;Node3</title>
<path fill="none" stroke="#191970" d="M81.9412,-59.0626C88.557,-49.6315 95.9955,-39.0276 101.8772,-30.6432"/>
<polygon fill="#191970" stroke="#191970" points="79.0426,-57.1001 76.165,-67.2967 84.7732,-61.1201 79.0426,-57.1001"/>
</g>
</g>
</svg>
