<?xml version="1.0" encoding="UTF-8" standalone="no"?>
<!DOCTYPE svg PUBLIC "-//W3C//DTD SVG 1.1//EN"
 "http://www.w3.org/Graphics/SVG/1.1/DTD/svg11.dtd">
<!-- Generated by graphviz version 2.43.0 (0)
 -->
<!-- Title: drivers/include/cc2420.h Pages: 1 -->
<svg width="1078pt" height="420pt"
 viewBox="0.00 0.00 1078.00 420.00" xmlns="http://www.w3.org/2000/svg" xmlns:xlink="http://www.w3.org/1999/xlink">
<g id="graph0" class="graph" transform="scale(1 1) rotate(0) translate(4 416)">
<title>drivers/include/cc2420.h</title>
<!-- Node1 -->
<g id="node1" class="node">
<title>Node1</title>
<g id="a_node1"><a xlink:title="Interface definition for the CC2420 driver.">
<polygon fill="#bfbfbf" stroke="black" points="634.5,-392.5 634.5,-411.5 769.5,-411.5 769.5,-392.5 634.5,-392.5"/>
<text text-anchor="middle" x="702" y="-399.5" font-family="Helvetica,sans-Serif" font-size="10.00">drivers/include/cc2420.h</text>
</a>
</g>
</g>
<!-- Node2 -->
<g id="node2" class="node">
<title>Node2</title>
<g id="a_node2"><a xlink:title=" ">
<polygon fill="none" stroke="#bfbfbf" points="249.5,-0.5 249.5,-19.5 302.5,-19.5 302.5,-0.5 249.5,-0.5"/>
<text text-anchor="middle" x="276" y="-7.5" font-family="Helvetica,sans-Serif" font-size="10.00">stdint.h</text>
</a>
</g>
</g>
<!-- Node1&#45;&gt;Node2 -->
<g id="edge1" class="edge">
<title>Node1&#45;&gt;Node2</title>
<path fill="none" stroke="midnightblue" d="M634.37,-397.45C458.43,-387.32 0,-354.8 0,-291 0,-291 0,-291 0,-121 0,-78.54 32.38,-75.67 70,-56 124.58,-27.47 196.39,-17 239.22,-13.18"/>
<polygon fill="midnightblue" stroke="midnightblue" points="239.77,-16.65 249.45,-12.34 239.2,-9.67 239.77,-16.65"/>
</g>
<!-- Node3 -->
<g id="node3" class="node">
<title>Node3</title>
<g id="a_node3"><a xlink:href="spi_8h.html" target="_top" xlink:title="Low&#45;level SPI peripheral driver interface definition.">
<polygon fill="none" stroke="black" points="900,-336.5 900,-355.5 974,-355.5 974,-336.5 900,-336.5"/>
<text text-anchor="middle" x="937" y="-343.5" font-family="Helvetica,sans-Serif" font-size="10.00">periph/spi.h</text>
</a>
</g>
</g>
<!-- Node1&#45;&gt;Node3 -->
<g id="edge2" class="edge">
<title>Node1&#45;&gt;Node3</title>
<path fill="none" stroke="midnightblue" d="M739.24,-392.44C780.06,-383.06 845.64,-367.99 889.98,-357.8"/>
<polygon fill="midnightblue" stroke="midnightblue" points="890.98,-361.17 899.94,-355.52 889.41,-354.34 890.98,-361.17"/>
</g>
<!-- Node9 -->
<g id="node9" class="node">
<title>Node9</title>
<g id="a_node9"><a xlink:href="gpio_8h.html" target="_top" xlink:title="Low&#45;level GPIO peripheral driver interface definitions.">
<polygon fill="none" stroke="black" points="730,-280.5 730,-299.5 810,-299.5 810,-280.5 730,-280.5"/>
<text text-anchor="middle" x="770" y="-287.5" font-family="Helvetica,sans-Serif" font-size="10.00">periph/gpio.h</text>
</a>
</g>
</g>
<!-- Node1&#45;&gt;Node9 -->
<g id="edge13" class="edge">
<title>Node1&#45;&gt;Node9</title>
<path fill="none" stroke="midnightblue" d="M707.34,-392.37C718.51,-374.3 744.55,-332.18 759.3,-308.31"/>
<polygon fill="midnightblue" stroke="midnightblue" points="762.41,-309.94 764.69,-299.59 756.45,-306.26 762.41,-309.94"/>
</g>
<!-- Node10 -->
<g id="node10" class="node">
<title>Node10</title>
<g id="a_node10"><a xlink:href="drivers_2include_2net_2netdev_8h.html" target="_top" xlink:title="Definitions low&#45;level network driver interface.">
<polygon fill="none" stroke="black" points="619.5,-224.5 619.5,-243.5 696.5,-243.5 696.5,-224.5 619.5,-224.5"/>
<text text-anchor="middle" x="658" y="-231.5" font-family="Helvetica,sans-Serif" font-size="10.00">net/netdev.h</text>
</a>
</g>
</g>
<!-- Node1&#45;&gt;Node10 -->
<g id="edge14" class="edge">
<title>Node1&#45;&gt;Node10</title>
<path fill="none" stroke="midnightblue" d="M699.63,-392.08C692.71,-365.95 672.37,-289.21 662.92,-253.58"/>
<polygon fill="midnightblue" stroke="midnightblue" points="666.22,-252.34 660.27,-243.57 659.45,-254.13 666.22,-252.34"/>
</g>
<!-- Node17 -->
<g id="node17" class="node">
<title>Node17</title>
<g id="a_node17"><a xlink:href="drivers_2include_2net_2netdev_2ieee802154_8h.html" target="_top" xlink:title="Definitions for netdev common IEEE 802.15.4 code.">
<polygon fill="none" stroke="black" points="463,-336.5 463,-355.5 601,-355.5 601,-336.5 463,-336.5"/>
<text text-anchor="middle" x="532" y="-343.5" font-family="Helvetica,sans-Serif" font-size="10.00">net/netdev/ieee802154.h</text>
</a>
</g>
</g>
<!-- Node1&#45;&gt;Node17 -->
<g id="edge28" class="edge">
<title>Node1&#45;&gt;Node17</title>
<path fill="none" stroke="midnightblue" d="M675.06,-392.44C646.34,-383.32 600.67,-368.81 568.68,-358.65"/>
<polygon fill="midnightblue" stroke="midnightblue" points="569.4,-355.21 558.81,-355.52 567.28,-361.88 569.4,-355.21"/>
</g>
<!-- Node3&#45;&gt;Node2 -->
<g id="edge5" class="edge">
<title>Node3&#45;&gt;Node2</title>
<path fill="none" stroke="midnightblue" d="M949.8,-336.42C978.6,-316.07 1043.61,-263.67 1013,-224 914.48,-96.32 813.47,-187.36 662,-132 642.58,-124.9 638.88,-120.43 620,-112 561.07,-85.67 547.6,-75.29 486,-56 426.46,-37.36 355.04,-23.86 312.71,-16.75"/>
<polygon fill="midnightblue" stroke="midnightblue" points="313.03,-13.25 302.6,-15.08 311.89,-20.16 313.03,-13.25"/>
</g>
<!-- Node4 -->
<g id="node4" class="node">
<title>Node4</title>
<g id="a_node4"><a xlink:title=" ">
<polygon fill="none" stroke="#bfbfbf" points="828,-280.5 828,-299.5 890,-299.5 890,-280.5 828,-280.5"/>
<text text-anchor="middle" x="859" y="-287.5" font-family="Helvetica,sans-Serif" font-size="10.00">stdbool.h</text>
</a>
</g>
</g>
<!-- Node3&#45;&gt;Node4 -->
<g id="edge3" class="edge">
<title>Node3&#45;&gt;Node4</title>
<path fill="none" stroke="midnightblue" d="M924.47,-336.32C912.41,-327.98 893.97,-315.21 879.73,-305.35"/>
<polygon fill="midnightblue" stroke="midnightblue" points="881.72,-302.47 871.5,-299.65 877.73,-308.22 881.72,-302.47"/>
</g>
<!-- Node5 -->
<g id="node5" class="node">
<title>Node5</title>
<g id="a_node5"><a xlink:title=" ">
<polygon fill="none" stroke="#bfbfbf" points="757,-0.5 757,-19.5 813,-19.5 813,-0.5 757,-0.5"/>
<text text-anchor="middle" x="785" y="-7.5" font-family="Helvetica,sans-Serif" font-size="10.00">stddef.h</text>
</a>
</g>
</g>
<!-- Node3&#45;&gt;Node5 -->
<g id="edge4" class="edge">
<title>Node3&#45;&gt;Node5</title>
<path fill="none" stroke="midnightblue" d="M974.19,-337.69C997.57,-331.33 1026.83,-319.91 1046,-300 1067.36,-277.82 1070,-265.8 1070,-235 1070,-235 1070,-235 1070,-121 1070,-68.66 900.56,-31.63 822.98,-17.43"/>
<polygon fill="midnightblue" stroke="midnightblue" points="823.57,-13.98 813.11,-15.65 822.33,-20.87 823.57,-13.98"/>
</g>
<!-- Node6 -->
<g id="node6" class="node">
<title>Node6</title>
<g id="a_node6"><a xlink:title=" ">
<polygon fill="none" stroke="#bfbfbf" points="753.5,-224.5 753.5,-243.5 806.5,-243.5 806.5,-224.5 753.5,-224.5"/>
<text text-anchor="middle" x="780" y="-231.5" font-family="Helvetica,sans-Serif" font-size="10.00">limits.h</text>
</a>
</g>
</g>
<!-- Node3&#45;&gt;Node6 -->
<g id="edge6" class="edge">
<title>Node3&#45;&gt;Node6</title>
<path fill="none" stroke="midnightblue" d="M934.03,-336.15C928.96,-322.31 917.37,-295.52 899,-280 886.15,-269.14 846.48,-255.28 816.44,-245.83"/>
<polygon fill="midnightblue" stroke="midnightblue" points="817.27,-242.42 806.68,-242.8 815.2,-249.11 817.27,-242.42"/>
</g>
<!-- Node7 -->
<g id="node7" class="node">
<title>Node7</title>
<g id="a_node7"><a xlink:title=" ">
<polygon fill="none" stroke="#bfbfbf" points="824.5,-224.5 824.5,-243.5 903.5,-243.5 903.5,-224.5 824.5,-224.5"/>
<text text-anchor="middle" x="864" y="-231.5" font-family="Helvetica,sans-Serif" font-size="10.00">periph_cpu.h</text>
</a>
</g>
</g>
<!-- Node3&#45;&gt;Node7 -->
<g id="edge7" class="edge">
<title>Node3&#45;&gt;Node7</title>
<path fill="none" stroke="midnightblue" d="M938.61,-336.3C940.56,-323.12 942.44,-297.76 932,-280 923.72,-265.92 909.09,-255.39 895.52,-248.07"/>
<polygon fill="midnightblue" stroke="midnightblue" points="896.89,-244.85 886.38,-243.51 893.77,-251.11 896.89,-244.85"/>
</g>
<!-- Node8 -->
<g id="node8" class="node">
<title>Node8</title>
<g id="a_node8"><a xlink:title=" ">
<polygon fill="none" stroke="#bfbfbf" points="922,-224.5 922,-243.5 1004,-243.5 1004,-224.5 922,-224.5"/>
<text text-anchor="middle" x="963" y="-231.5" font-family="Helvetica,sans-Serif" font-size="10.00">periph_conf.h</text>
</a>
</g>
</g>
<!-- Node3&#45;&gt;Node8 -->
<g id="edge8" class="edge">
<title>Node3&#45;&gt;Node8</title>
<path fill="none" stroke="midnightblue" d="M946.02,-336.34C954.07,-327.93 965.3,-314.36 970,-300 974.97,-284.83 972.36,-266.71 969.01,-253.46"/>
<polygon fill="midnightblue" stroke="midnightblue" points="972.31,-252.28 966.17,-243.65 965.59,-254.23 972.31,-252.28"/>
</g>
<!-- Node3&#45;&gt;Node9 -->
<g id="edge9" class="edge">
<title>Node3&#45;&gt;Node9</title>
<path fill="none" stroke="midnightblue" d="M910.54,-336.44C882.32,-327.32 837.46,-312.81 806.03,-302.65"/>
<polygon fill="midnightblue" stroke="midnightblue" points="806.93,-299.26 796.34,-299.52 804.78,-305.92 806.93,-299.26"/>
</g>
<!-- Node9&#45;&gt;Node6 -->
<g id="edge10" class="edge">
<title>Node9&#45;&gt;Node6</title>
<path fill="none" stroke="midnightblue" d="M771.65,-280.08C772.98,-272.93 774.88,-262.64 776.54,-253.69"/>
<polygon fill="midnightblue" stroke="midnightblue" points="780,-254.22 778.38,-243.75 773.12,-252.95 780,-254.22"/>
</g>
<!-- Node9&#45;&gt;Node7 -->
<g id="edge11" class="edge">
<title>Node9&#45;&gt;Node7</title>
<path fill="none" stroke="midnightblue" d="M785.1,-280.32C799.9,-271.82 822.69,-258.73 839.98,-248.8"/>
<polygon fill="midnightblue" stroke="midnightblue" points="842.01,-251.67 848.93,-243.65 838.52,-245.6 842.01,-251.67"/>
</g>
<!-- Node9&#45;&gt;Node8 -->
<g id="edge12" class="edge">
<title>Node9&#45;&gt;Node8</title>
<path fill="none" stroke="midnightblue" d="M800.58,-280.44C833.61,-271.2 886.39,-256.44 922.77,-246.26"/>
<polygon fill="midnightblue" stroke="midnightblue" points="923.87,-249.58 932.56,-243.52 921.99,-242.84 923.87,-249.58"/>
</g>
<!-- Node10&#45;&gt;Node2 -->
<g id="edge15" class="edge">
<title>Node10&#45;&gt;Node2</title>
<path fill="none" stroke="midnightblue" d="M619.6,-224.48C590.25,-217.11 549.3,-204.96 516,-188 424.22,-141.24 330.14,-60.26 292.77,-26.49"/>
<polygon fill="midnightblue" stroke="midnightblue" points="295.04,-23.82 285.29,-19.67 290.32,-28.99 295.04,-23.82"/>
</g>
<!-- Node11 -->
<g id="node11" class="node">
<title>Node11</title>
<g id="a_node11"><a xlink:href="errno_8h.html" target="_top" xlink:title=" ">
<polygon fill="none" stroke="black" points="525.5,-168.5 525.5,-187.5 576.5,-187.5 576.5,-168.5 525.5,-168.5"/>
<text text-anchor="middle" x="551" y="-175.5" font-family="Helvetica,sans-Serif" font-size="10.00">errno.h</text>
</a>
</g>
</g>
<!-- Node10&#45;&gt;Node11 -->
<g id="edge16" class="edge">
<title>Node10&#45;&gt;Node11</title>
<path fill="none" stroke="midnightblue" d="M640.81,-224.32C623.65,-215.66 597.05,-202.24 577.25,-192.25"/>
<polygon fill="midnightblue" stroke="midnightblue" points="578.65,-189.04 568.15,-187.65 575.5,-195.28 578.65,-189.04"/>
</g>
<!-- Node12 -->
<g id="node12" class="node">
<title>Node12</title>
<g id="a_node12"><a xlink:href="iolist_8h.html" target="_top" xlink:title="iolist scatter / gather IO">
<polygon fill="none" stroke="black" points="633,-168.5 633,-187.5 683,-187.5 683,-168.5 633,-168.5"/>
<text text-anchor="middle" x="658" y="-175.5" font-family="Helvetica,sans-Serif" font-size="10.00">iolist.h</text>
</a>
</g>
</g>
<!-- Node10&#45;&gt;Node12 -->
<g id="edge17" class="edge">
<title>Node10&#45;&gt;Node12</title>
<path fill="none" stroke="midnightblue" d="M658,-224.08C658,-217.01 658,-206.86 658,-197.99"/>
<polygon fill="midnightblue" stroke="midnightblue" points="661.5,-197.75 658,-187.75 654.5,-197.75 661.5,-197.75"/>
</g>
<!-- Node15 -->
<g id="node15" class="node">
<title>Node15</title>
<g id="a_node15"><a xlink:href="netopt_8h.html" target="_top" xlink:title="Definition of global configuration options.">
<polygon fill="none" stroke="black" points="701,-168.5 701,-187.5 777,-187.5 777,-168.5 701,-168.5"/>
<text text-anchor="middle" x="739" y="-175.5" font-family="Helvetica,sans-Serif" font-size="10.00">net/netopt.h</text>
</a>
</g>
</g>
<!-- Node10&#45;&gt;Node15 -->
<g id="edge24" class="edge">
<title>Node10&#45;&gt;Node15</title>
<path fill="none" stroke="midnightblue" d="M671.01,-224.32C683.53,-215.98 702.68,-203.21 717.47,-193.35"/>
<polygon fill="midnightblue" stroke="midnightblue" points="719.64,-196.11 726.02,-187.65 715.76,-190.29 719.64,-196.11"/>
</g>
<!-- Node16 -->
<g id="node16" class="node">
<title>Node16</title>
<g id="a_node16"><a xlink:href="kernel__defines_8h.html" target="_top" xlink:title="Common macros and compiler attributes/pragmas configuration.">
<polygon fill="none" stroke="black" points="514.5,-112.5 514.5,-131.5 611.5,-131.5 611.5,-112.5 514.5,-112.5"/>
<text text-anchor="middle" x="563" y="-119.5" font-family="Helvetica,sans-Serif" font-size="10.00">kernel_defines.h</text>
</a>
</g>
</g>
<!-- Node10&#45;&gt;Node16 -->
<g id="edge25" class="edge">
<title>Node10&#45;&gt;Node16</title>
<path fill="none" stroke="midnightblue" d="M650.55,-224.37C634.73,-206.05 597.59,-163.05 577.13,-139.36"/>
<polygon fill="midnightblue" stroke="midnightblue" points="579.6,-136.87 570.42,-131.59 574.31,-141.45 579.6,-136.87"/>
</g>
<!-- Node13 -->
<g id="node13" class="node">
<title>Node13</title>
<g id="a_node13"><a xlink:href="unistd_8h_source.html" target="_top" xlink:title=" ">
<polygon fill="none" stroke="black" points="671,-112.5 671,-131.5 727,-131.5 727,-112.5 671,-112.5"/>
<text text-anchor="middle" x="699" y="-119.5" font-family="Helvetica,sans-Serif" font-size="10.00">unistd.h</text>
</a>
</g>
</g>
<!-- Node12&#45;&gt;Node13 -->
<g id="edge18" class="edge">
<title>Node12&#45;&gt;Node13</title>
<path fill="none" stroke="midnightblue" d="M664.77,-168.08C670.56,-160.46 679.06,-149.26 686.14,-139.94"/>
<polygon fill="midnightblue" stroke="midnightblue" points="689.1,-141.83 692.36,-131.75 683.52,-137.6 689.1,-141.83"/>
</g>
<!-- Node13&#45;&gt;Node2 -->
<g id="edge20" class="edge">
<title>Node13&#45;&gt;Node2</title>
<path fill="none" stroke="midnightblue" d="M690.57,-112.04C676.33,-97.54 645.92,-69.22 614,-56 560.06,-33.67 388.62,-19.04 312.74,-13.5"/>
<polygon fill="midnightblue" stroke="midnightblue" points="312.92,-10 302.69,-12.77 312.41,-16.98 312.92,-10"/>
</g>
<!-- Node13&#45;&gt;Node5 -->
<g id="edge19" class="edge">
<title>Node13&#45;&gt;Node5</title>
<path fill="none" stroke="midnightblue" d="M727.12,-113.04C745.41,-106.3 768.02,-94.69 780,-76 788.69,-62.45 789.27,-43.9 788.07,-30.09"/>
<polygon fill="midnightblue" stroke="midnightblue" points="791.49,-29.29 786.78,-19.81 784.55,-30.17 791.49,-29.29"/>
</g>
<!-- Node14 -->
<g id="node14" class="node">
<title>Node14</title>
<g id="a_node14"><a xlink:href="cpu_2atmega__common_2avr__libc__extra_2include_2sys_2types_8h_source.html" target="_top" xlink:title=" ">
<polygon fill="none" stroke="black" points="666,-56.5 666,-75.5 738,-75.5 738,-56.5 666,-56.5"/>
<text text-anchor="middle" x="702" y="-63.5" font-family="Helvetica,sans-Serif" font-size="10.00">sys/types.h</text>
</a>
</g>
</g>
<!-- Node13&#45;&gt;Node14 -->
<g id="edge21" class="edge">
<title>Node13&#45;&gt;Node14</title>
<path fill="none" stroke="midnightblue" d="M699.5,-112.08C699.89,-105.01 700.45,-94.86 700.95,-85.99"/>
<polygon fill="midnightblue" stroke="midnightblue" points="704.45,-85.93 701.51,-75.75 697.46,-85.54 704.45,-85.93"/>
</g>
<!-- Node14&#45;&gt;Node2 -->
<g id="edge22" class="edge">
<title>Node14&#45;&gt;Node2</title>
<path fill="none" stroke="midnightblue" d="M665.99,-58.26C661.29,-57.45 656.54,-56.68 652,-56 527.95,-37.43 379.96,-21.54 312.61,-14.66"/>
<polygon fill="midnightblue" stroke="midnightblue" points="312.81,-11.16 302.51,-13.63 312.11,-18.12 312.81,-11.16"/>
</g>
<!-- Node14&#45;&gt;Node5 -->
<g id="edge23" class="edge">
<title>Node14&#45;&gt;Node5</title>
<path fill="none" stroke="midnightblue" d="M715.34,-56.32C728.16,-47.98 747.78,-35.21 762.94,-25.35"/>
<polygon fill="midnightblue" stroke="midnightblue" points="765.22,-28.04 771.7,-19.65 761.41,-22.17 765.22,-28.04"/>
</g>
<!-- Node16&#45;&gt;Node2 -->
<g id="edge27" class="edge">
<title>Node16&#45;&gt;Node2</title>
<path fill="none" stroke="midnightblue" d="M550.94,-112.4C531.16,-98.66 490.21,-71.71 452,-56 405.67,-36.95 349.09,-24.22 312.8,-17.3"/>
<polygon fill="midnightblue" stroke="midnightblue" points="313.15,-13.8 302.68,-15.42 311.87,-20.68 313.15,-13.8"/>
</g>
<!-- Node16&#45;&gt;Node5 -->
<g id="edge26" class="edge">
<title>Node16&#45;&gt;Node5</title>
<path fill="none" stroke="midnightblue" d="M611.58,-119.38C651.46,-115.8 707.59,-105.39 747,-76 762.68,-64.3 773.02,-44.07 778.9,-29.27"/>
<polygon fill="midnightblue" stroke="midnightblue" points="782.26,-30.26 782.4,-19.66 775.69,-27.86 782.26,-30.26"/>
</g>
<!-- Node17&#45;&gt;Node10 -->
<g id="edge51" class="edge">
<title>Node17&#45;&gt;Node10</title>
<path fill="none" stroke="midnightblue" d="M541.89,-336.37C563.14,-317.81 613.43,-273.91 640.32,-250.44"/>
<polygon fill="midnightblue" stroke="midnightblue" points="642.93,-252.8 648.16,-243.59 638.32,-247.53 642.93,-252.8"/>
</g>
<!-- Node17&#45;&gt;Node15 -->
<g id="edge50" class="edge">
<title>Node17&#45;&gt;Node15</title>
<path fill="none" stroke="midnightblue" d="M555.16,-336.39C591.15,-322.04 660.93,-290.16 705,-244 717.89,-230.49 727.17,-211.14 732.74,-197.06"/>
<polygon fill="midnightblue" stroke="midnightblue" points="736.09,-198.1 736.28,-187.51 729.53,-195.67 736.09,-198.1"/>
</g>
<!-- Node18 -->
<g id="node18" class="node">
<title>Node18</title>
<g id="a_node18"><a xlink:href="eui__provider_8h.html" target="_top" xlink:title="EUI&#45;48 and EUI&#45;64 address provider.">
<polygon fill="none" stroke="black" points="239.5,-280.5 239.5,-299.5 344.5,-299.5 344.5,-280.5 239.5,-280.5"/>
<text text-anchor="middle" x="292" y="-287.5" font-family="Helvetica,sans-Serif" font-size="10.00">net/eui_provider.h</text>
</a>
</g>
</g>
<!-- Node17&#45;&gt;Node18 -->
<g id="edge29" class="edge">
<title>Node17&#45;&gt;Node18</title>
<path fill="none" stroke="midnightblue" d="M493.97,-336.44C452.19,-327.04 385.02,-311.93 339.73,-301.74"/>
<polygon fill="midnightblue" stroke="midnightblue" points="340.38,-298.3 329.85,-299.52 338.84,-305.13 340.38,-298.3"/>
</g>
<!-- Node23 -->
<g id="node23" class="node">
<title>Node23</title>
<g id="a_node23"><a xlink:href="sys_2include_2net_2ieee802154_8h.html" target="_top" xlink:title="IEEE 802.15.4 header definitions.">
<polygon fill="none" stroke="black" points="35.5,-224.5 35.5,-243.5 136.5,-243.5 136.5,-224.5 35.5,-224.5"/>
<text text-anchor="middle" x="86" y="-231.5" font-family="Helvetica,sans-Serif" font-size="10.00">net/ieee802154.h</text>
</a>
</g>
</g>
<!-- Node17&#45;&gt;Node23 -->
<g id="edge40" class="edge">
<title>Node17&#45;&gt;Node23</title>
<path fill="none" stroke="midnightblue" d="M462.77,-340.15C400.79,-334.52 307.94,-322.92 230,-300 186.22,-287.13 138.52,-263.53 110.49,-248.59"/>
<polygon fill="midnightblue" stroke="midnightblue" points="111.89,-245.37 101.43,-243.69 108.57,-251.53 111.89,-245.37"/>
</g>
<!-- Node25 -->
<g id="node25" class="node">
<title>Node25</title>
<g id="a_node25"><a xlink:href="nettype_8h.html" target="_top" xlink:title="Protocol type definitions.">
<polygon fill="none" stroke="black" points="405,-280.5 405,-299.5 511,-299.5 511,-280.5 405,-280.5"/>
<text text-anchor="middle" x="458" y="-287.5" font-family="Helvetica,sans-Serif" font-size="10.00">net/gnrc/nettype.h</text>
</a>
</g>
</g>
<!-- Node17&#45;&gt;Node25 -->
<g id="edge45" class="edge">
<title>Node17&#45;&gt;Node25</title>
<path fill="none" stroke="midnightblue" d="M520.11,-336.32C508.85,-328.11 491.71,-315.6 478.29,-305.81"/>
<polygon fill="midnightblue" stroke="midnightblue" points="480.25,-302.9 470.11,-299.83 476.12,-308.56 480.25,-302.9"/>
</g>
<!-- Node18&#45;&gt;Node10 -->
<g id="edge39" class="edge">
<title>Node18&#45;&gt;Node10</title>
<path fill="none" stroke="midnightblue" d="M344.72,-282.27C405.86,-274.31 509.9,-260.25 609.34,-244.05"/>
<polygon fill="midnightblue" stroke="midnightblue" points="609.95,-247.49 619.25,-242.42 608.82,-240.58 609.95,-247.49"/>
</g>
<!-- Node19 -->
<g id="node19" class="node">
<title>Node19</title>
<g id="a_node19"><a xlink:href="eui48_8h.html" target="_top" xlink:title="Definition and IPv6 IID conversion for IEEE EUI&#45;48 identifiers.">
<polygon fill="none" stroke="black" points="193.5,-224.5 193.5,-243.5 264.5,-243.5 264.5,-224.5 193.5,-224.5"/>
<text text-anchor="middle" x="229" y="-231.5" font-family="Helvetica,sans-Serif" font-size="10.00">net/eui48.h</text>
</a>
</g>
</g>
<!-- Node18&#45;&gt;Node19 -->
<g id="edge30" class="edge">
<title>Node18&#45;&gt;Node19</title>
<path fill="none" stroke="midnightblue" d="M281.88,-280.32C272.47,-272.26 258.26,-260.08 246.93,-250.37"/>
<polygon fill="midnightblue" stroke="midnightblue" points="249.18,-247.68 239.31,-243.83 244.62,-253 249.18,-247.68"/>
</g>
<!-- Node20 -->
<g id="node20" class="node">
<title>Node20</title>
<g id="a_node20"><a xlink:href="eui64_8h.html" target="_top" xlink:title="EUI&#45;64 data type definition.">
<polygon fill="none" stroke="black" points="176.5,-168.5 176.5,-187.5 247.5,-187.5 247.5,-168.5 176.5,-168.5"/>
<text text-anchor="middle" x="212" y="-175.5" font-family="Helvetica,sans-Serif" font-size="10.00">net/eui64.h</text>
</a>
</g>
</g>
<!-- Node18&#45;&gt;Node20 -->
<g id="edge38" class="edge">
<title>Node18&#45;&gt;Node20</title>
<path fill="none" stroke="midnightblue" d="M240.47,-280.44C219.27,-274.1 196.73,-263.1 184,-244 173.84,-228.76 185.01,-209.23 196.11,-195.57"/>
<polygon fill="midnightblue" stroke="midnightblue" points="198.86,-197.75 202.82,-187.92 193.59,-193.13 198.86,-197.75"/>
</g>
<!-- Node19&#45;&gt;Node2 -->
<g id="edge31" class="edge">
<title>Node19&#45;&gt;Node2</title>
<path fill="none" stroke="midnightblue" d="M235.81,-224.26C242.18,-215.58 251.38,-201.63 256,-188 274.72,-132.71 276.71,-62.74 276.46,-29.78"/>
<polygon fill="midnightblue" stroke="midnightblue" points="279.96,-29.7 276.3,-19.76 272.96,-29.81 279.96,-29.7"/>
</g>
<!-- Node19&#45;&gt;Node20 -->
<g id="edge32" class="edge">
<title>Node19&#45;&gt;Node20</title>
<path fill="none" stroke="midnightblue" d="M226.19,-224.08C223.92,-216.85 220.63,-206.41 217.79,-197.4"/>
<polygon fill="midnightblue" stroke="midnightblue" points="221.1,-196.24 214.75,-187.75 214.42,-198.34 221.1,-196.24"/>
</g>
<!-- Node20&#45;&gt;Node2 -->
<g id="edge33" class="edge">
<title>Node20&#45;&gt;Node2</title>
<path fill="none" stroke="midnightblue" d="M215.44,-168.08C225.56,-141.83 255.36,-64.55 269.02,-29.12"/>
<polygon fill="midnightblue" stroke="midnightblue" points="272.36,-30.16 272.7,-19.57 265.83,-27.64 272.36,-30.16"/>
</g>
<!-- Node21 -->
<g id="node21" class="node">
<title>Node21</title>
<g id="a_node21"><a xlink:href="byteorder_8h.html" target="_top" xlink:title="Functions to work with different byte orders.">
<polygon fill="none" stroke="black" points="124.5,-112.5 124.5,-131.5 197.5,-131.5 197.5,-112.5 124.5,-112.5"/>
<text text-anchor="middle" x="161" y="-119.5" font-family="Helvetica,sans-Serif" font-size="10.00">byteorder.h</text>
</a>
</g>
</g>
<!-- Node20&#45;&gt;Node21 -->
<g id="edge34" class="edge">
<title>Node20&#45;&gt;Node21</title>
<path fill="none" stroke="midnightblue" d="M203.58,-168.08C196.15,-160.22 185.15,-148.57 176.19,-139.08"/>
<polygon fill="midnightblue" stroke="midnightblue" points="178.68,-136.62 169.26,-131.75 173.59,-141.42 178.68,-136.62"/>
</g>
<!-- Node21&#45;&gt;Node2 -->
<g id="edge35" class="edge">
<title>Node21&#45;&gt;Node2</title>
<path fill="none" stroke="midnightblue" d="M168.92,-112.35C180.65,-99.67 203.44,-75.43 224,-56 234.85,-45.75 247.5,-34.78 257.61,-26.24"/>
<polygon fill="midnightblue" stroke="midnightblue" points="259.99,-28.81 265.4,-19.7 255.49,-23.44 259.99,-28.81"/>
</g>
<!-- Node22 -->
<g id="node22" class="node">
<title>Node22</title>
<g id="a_node22"><a xlink:href="unaligned_8h.html" target="_top" xlink:title="Unaligned but safe memory access functions.">
<polygon fill="none" stroke="black" points="98,-56.5 98,-75.5 172,-75.5 172,-56.5 98,-56.5"/>
<text text-anchor="middle" x="135" y="-63.5" font-family="Helvetica,sans-Serif" font-size="10.00">unaligned.h</text>
</a>
</g>
</g>
<!-- Node21&#45;&gt;Node22 -->
<g id="edge36" class="edge">
<title>Node21&#45;&gt;Node22</title>
<path fill="none" stroke="midnightblue" d="M156.71,-112.08C153.15,-104.69 147.98,-93.95 143.58,-84.81"/>
<polygon fill="midnightblue" stroke="midnightblue" points="146.71,-83.24 139.21,-75.75 140.4,-86.28 146.71,-83.24"/>
</g>
<!-- Node22&#45;&gt;Node2 -->
<g id="edge37" class="edge">
<title>Node22&#45;&gt;Node2</title>
<path fill="none" stroke="midnightblue" d="M157.34,-56.44C180.75,-47.48 217.74,-33.31 244.19,-23.18"/>
<polygon fill="midnightblue" stroke="midnightblue" points="245.68,-26.36 253.76,-19.52 243.17,-19.82 245.68,-26.36"/>
</g>
<!-- Node23&#45;&gt;Node2 -->
<g id="edge41" class="edge">
<title>Node23&#45;&gt;Node2</title>
<path fill="none" stroke="midnightblue" d="M78.33,-224.46C71.22,-215.93 61.15,-202.09 57,-188 43.51,-142.18 55.56,-88.06 89,-56 110.28,-35.6 191.14,-21.94 239.29,-15.42"/>
<polygon fill="midnightblue" stroke="midnightblue" points="239.87,-18.87 249.32,-14.1 238.95,-11.93 239.87,-18.87"/>
</g>
<!-- Node23&#45;&gt;Node20 -->
<g id="edge44" class="edge">
<title>Node23&#45;&gt;Node20</title>
<path fill="none" stroke="midnightblue" d="M105.97,-224.44C126.61,-215.6 159.06,-201.69 182.63,-191.59"/>
<polygon fill="midnightblue" stroke="midnightblue" points="184.32,-194.67 192.13,-187.52 181.56,-188.24 184.32,-194.67"/>
</g>
<!-- Node23&#45;&gt;Node21 -->
<g id="edge43" class="edge">
<title>Node23&#45;&gt;Node21</title>
<path fill="none" stroke="midnightblue" d="M95.5,-224.35C104.59,-215.73 118.32,-201.84 128,-188 138.3,-173.27 147.33,-154.88 153.33,-141.42"/>
<polygon fill="midnightblue" stroke="midnightblue" points="156.71,-142.42 157.45,-131.85 150.28,-139.65 156.71,-142.42"/>
</g>
<!-- Node24 -->
<g id="node24" class="node">
<title>Node24</title>
<g id="a_node24"><a xlink:title=" ">
<polygon fill="none" stroke="#bfbfbf" points="66.5,-168.5 66.5,-187.5 119.5,-187.5 119.5,-168.5 66.5,-168.5"/>
<text text-anchor="middle" x="93" y="-175.5" font-family="Helvetica,sans-Serif" font-size="10.00">stdlib.h</text>
</a>
</g>
</g>
<!-- Node23&#45;&gt;Node24 -->
<g id="edge42" class="edge">
<title>Node23&#45;&gt;Node24</title>
<path fill="none" stroke="midnightblue" d="M87.16,-224.08C88.08,-216.93 89.42,-206.64 90.58,-197.69"/>
<polygon fill="midnightblue" stroke="midnightblue" points="94.05,-198.12 91.87,-187.75 87.11,-197.22 94.05,-198.12"/>
</g>
<!-- Node25&#45;&gt;Node16 -->
<g id="edge47" class="edge">
<title>Node25&#45;&gt;Node16</title>
<path fill="none" stroke="midnightblue" d="M404.64,-284.4C353.2,-277.68 286.61,-261.59 312,-224 354.75,-160.71 444.45,-137.07 504.21,-128.25"/>
<polygon fill="midnightblue" stroke="midnightblue" points="504.84,-131.7 514.27,-126.86 503.89,-124.76 504.84,-131.7"/>
</g>
<!-- Node26 -->
<g id="node26" class="node">
<title>Node26</title>
<g id="a_node26"><a xlink:href="inttypes_8h.html" target="_top" xlink:title="Adds include for missing inttype definitions.">
<polygon fill="none" stroke="black" points="425.5,-224.5 425.5,-243.5 490.5,-243.5 490.5,-224.5 425.5,-224.5"/>
<text text-anchor="middle" x="458" y="-231.5" font-family="Helvetica,sans-Serif" font-size="10.00">inttypes.h</text>
</a>
</g>
</g>
<!-- Node25&#45;&gt;Node26 -->
<g id="edge46" class="edge">
<title>Node25&#45;&gt;Node26</title>
<path fill="none" stroke="midnightblue" d="M458,-280.08C458,-273.01 458,-262.86 458,-253.99"/>
<polygon fill="midnightblue" stroke="midnightblue" points="461.5,-253.75 458,-243.75 454.5,-253.75 461.5,-253.75"/>
</g>
<!-- Node27 -->
<g id="node27" class="node">
<title>Node27</title>
<g id="a_node27"><a xlink:href="ethertype_8h.html" target="_top" xlink:title="Ether type definitions.">
<polygon fill="none" stroke="black" points="509,-224.5 509,-243.5 601,-243.5 601,-224.5 509,-224.5"/>
<text text-anchor="middle" x="555" y="-231.5" font-family="Helvetica,sans-Serif" font-size="10.00">net/ethertype.h</text>
</a>
</g>
</g>
<!-- Node25&#45;&gt;Node27 -->
<g id="edge48" class="edge">
<title>Node25&#45;&gt;Node27</title>
<path fill="none" stroke="midnightblue" d="M473.58,-280.32C489,-271.74 512.81,-258.49 530.71,-248.52"/>
<polygon fill="midnightblue" stroke="midnightblue" points="532.42,-251.58 539.45,-243.65 529.01,-245.46 532.42,-251.58"/>
</g>
<!-- Node28 -->
<g id="node28" class="node">
<title>Node28</title>
<g id="a_node28"><a xlink:href="protnum_8h.html" target="_top" xlink:title="Protocol number definitions.">
<polygon fill="none" stroke="black" points="321,-224.5 321,-243.5 407,-243.5 407,-224.5 321,-224.5"/>
<text text-anchor="middle" x="364" y="-231.5" font-family="Helvetica,sans-Serif" font-size="10.00">net/protnum.h</text>
</a>
</g>
</g>
<!-- Node25&#45;&gt;Node28 -->
<g id="edge49" class="edge">
<title>Node25&#45;&gt;Node28</title>
<path fill="none" stroke="midnightblue" d="M442.9,-280.32C428.1,-271.82 405.31,-258.73 388.02,-248.8"/>
<polygon fill="midnightblue" stroke="midnightblue" points="389.48,-245.6 379.07,-243.65 385.99,-251.67 389.48,-245.6"/>
</g>
</g>
</svg>
