<?xml version="1.0" encoding="UTF-8" standalone="no"?>
<!DOCTYPE svg PUBLIC "-//W3C//DTD SVG 1.1//EN"
 "http://www.w3.org/Graphics/SVG/1.1/DTD/svg11.dtd">
<!-- Generated by graphviz version 2.40.1 (20161225.0304)
 -->
<!-- Title: drivers/include/cc2420.h Pages: 1 -->
<svg width="1217pt" height="308pt"
 viewBox="0.00 0.00 1217.02 308.00" xmlns="http://www.w3.org/2000/svg" xmlns:xlink="http://www.w3.org/1999/xlink">
<g id="graph0" class="graph" transform="scale(1 1) rotate(0) translate(4 304)">
<title>drivers/include/cc2420.h</title>
<!-- Node0 -->
<g id="node1" class="node">
<title>Node0</title>
<polygon fill="#bfbfbf" stroke="#000000" points="807.5,-280.5 807.5,-299.5 929.5,-299.5 929.5,-280.5 807.5,-280.5"/>
<text text-anchor="middle" x="868.5" y="-287.5" font-family="Helvetica,sans-Serif" font-size="10.00" fill="#000000">drivers/include/cc2420.h</text>
</g>
<!-- Node1 -->
<g id="node2" class="node">
<title>Node1</title>
<polygon fill="none" stroke="#bfbfbf" points="329,-.5 329,-19.5 378,-19.5 378,-.5 329,-.5"/>
<text text-anchor="middle" x="353.5" y="-7.5" font-family="Helvetica,sans-Serif" font-size="10.00" fill="#000000">stdint.h</text>
</g>
<!-- Node0&#45;&gt;Node1 -->
<g id="edge1" class="edge">
<title>Node0&#45;&gt;Node1</title>
<path fill="none" stroke="#191970" d="M868.5,-280.4116C868.5,-261.0538 868.5,-215.9167 868.5,-178 868.5,-178 868.5,-178 868.5,-122 868.5,-72.7551 504.3068,-27.1305 388.4458,-13.8619"/>
<polygon fill="#191970" stroke="#191970" points="388.6705,-10.365 378.3395,-12.7147 387.8809,-17.3204 388.6705,-10.365"/>
</g>
<!-- Node2 -->
<g id="node3" class="node">
<title>Node2</title>
<g id="a_node3"><a xlink:href="spi_8h.html" target="_top" xlink:title="Low&#45;level SPI peripheral driver interface definition. ">
<polygon fill="none" stroke="#000000" points="1016,-224.5 1016,-243.5 1083,-243.5 1083,-224.5 1016,-224.5"/>
<text text-anchor="middle" x="1049.5" y="-231.5" font-family="Helvetica,sans-Serif" font-size="10.00" fill="#000000">periph/spi.h</text>
</a>
</g>
</g>
<!-- Node0&#45;&gt;Node2 -->
<g id="edge2" class="edge">
<title>Node0&#45;&gt;Node2</title>
<path fill="none" stroke="#191970" d="M899.615,-280.3733C929.8429,-271.021 975.896,-256.7725 1008.9739,-246.5385"/>
<polygon fill="#191970" stroke="#191970" points="1010.2723,-249.8005 1018.791,-243.5011 1008.2033,-243.1133 1010.2723,-249.8005"/>
</g>
<!-- Node8 -->
<g id="node9" class="node">
<title>Node8</title>
<g id="a_node9"><a xlink:href="gpio_8h.html" target="_top" xlink:title="Low&#45;level GPIO peripheral driver interface definitions. ">
<polygon fill="none" stroke="#000000" points="972.5,-168.5 972.5,-187.5 1044.5,-187.5 1044.5,-168.5 972.5,-168.5"/>
<text text-anchor="middle" x="1008.5" y="-175.5" font-family="Helvetica,sans-Serif" font-size="10.00" fill="#000000">periph/gpio.h</text>
</a>
</g>
</g>
<!-- Node0&#45;&gt;Node8 -->
<g id="edge13" class="edge">
<title>Node0&#45;&gt;Node8</title>
<path fill="none" stroke="#191970" d="M880.4363,-280.4509C904.5099,-261.1921 959.0977,-217.5218 988.6331,-193.8935"/>
<polygon fill="#191970" stroke="#191970" points="990.9716,-196.5049 996.5939,-187.5249 986.5987,-191.0388 990.9716,-196.5049"/>
</g>
<!-- Node9 -->
<g id="node10" class="node">
<title>Node9</title>
<g id="a_node10"><a xlink:href="drivers_2include_2net_2netdev_8h.html" target="_top" xlink:title="Definitions low&#45;level network driver interface. ">
<polygon fill="none" stroke="#000000" points="134,-168.5 134,-187.5 205,-187.5 205,-168.5 134,-168.5"/>
<text text-anchor="middle" x="169.5" y="-175.5" font-family="Helvetica,sans-Serif" font-size="10.00" fill="#000000">net/netdev.h</text>
</a>
</g>
</g>
<!-- Node0&#45;&gt;Node9 -->
<g id="edge14" class="edge">
<title>Node0&#45;&gt;Node9</title>
<path fill="none" stroke="#191970" d="M807.3809,-288.7685C677.1865,-285.5712 376.4721,-274.9752 279.5,-244 245.1582,-233.0304 210.265,-209.5445 189.2487,-193.757"/>
<polygon fill="#191970" stroke="#191970" points="191.1954,-190.8389 181.1334,-187.5212 186.9303,-196.3895 191.1954,-190.8389"/>
</g>
<!-- Node14 -->
<g id="node15" class="node">
<title>Node14</title>
<g id="a_node15"><a xlink:href="drivers_2include_2net_2netdev_2ieee802154_8h.html" target="_top" xlink:title="Definitions for netdev common IEEE 802.15.4 code. ">
<polygon fill="none" stroke="#000000" points="289,-224.5 289,-243.5 412,-243.5 412,-224.5 289,-224.5"/>
<text text-anchor="middle" x="350.5" y="-231.5" font-family="Helvetica,sans-Serif" font-size="10.00" fill="#000000">net/netdev/ieee802154.h</text>
</a>
</g>
</g>
<!-- Node0&#45;&gt;Node14 -->
<g id="edge20" class="edge">
<title>Node0&#45;&gt;Node14</title>
<path fill="none" stroke="#191970" d="M807.3002,-283.3838C711.0484,-272.9782 524.7301,-252.8357 422.2959,-241.7617"/>
<polygon fill="#191970" stroke="#191970" points="422.6666,-238.2815 412.3483,-240.6863 421.9141,-245.2409 422.6666,-238.2815"/>
</g>
<!-- Node2&#45;&gt;Node1 -->
<g id="edge5" class="edge">
<title>Node2&#45;&gt;Node1</title>
<path fill="none" stroke="#191970" d="M1080.4578,-224.3967C1135.179,-205.8496 1239.6081,-162.4492 1199.5,-112 1148.0846,-47.3282 542.2124,-17.8551 388.6851,-11.3955"/>
<polygon fill="#191970" stroke="#191970" points="388.5632,-7.8876 378.4267,-10.97 388.2731,-14.8816 388.5632,-7.8876"/>
</g>
<!-- Node3 -->
<g id="node4" class="node">
<title>Node3</title>
<polygon fill="none" stroke="#bfbfbf" points="1062.5,-168.5 1062.5,-187.5 1118.5,-187.5 1118.5,-168.5 1062.5,-168.5"/>
<text text-anchor="middle" x="1090.5" y="-175.5" font-family="Helvetica,sans-Serif" font-size="10.00" fill="#000000">stdbool.h</text>
</g>
<!-- Node2&#45;&gt;Node3 -->
<g id="edge3" class="edge">
<title>Node2&#45;&gt;Node3</title>
<path fill="none" stroke="#191970" d="M1056.6417,-224.2455C1062.3444,-216.4564 1070.49,-205.3308 1077.3625,-195.9439"/>
<polygon fill="#191970" stroke="#191970" points="1080.3568,-197.7789 1083.4402,-187.6427 1074.7087,-193.6437 1080.3568,-197.7789"/>
</g>
<!-- Node4 -->
<g id="node5" class="node">
<title>Node4</title>
<polygon fill="none" stroke="#bfbfbf" points="896.5,-56.5 896.5,-75.5 948.5,-75.5 948.5,-56.5 896.5,-56.5"/>
<text text-anchor="middle" x="922.5" y="-63.5" font-family="Helvetica,sans-Serif" font-size="10.00" fill="#000000">stddef.h</text>
</g>
<!-- Node2&#45;&gt;Node4 -->
<g id="edge4" class="edge">
<title>Node2&#45;&gt;Node4</title>
<path fill="none" stroke="#191970" d="M1015.6335,-224.4713C995.3802,-217.2878 970.3844,-205.608 953.5,-188 926.7659,-160.1202 922.1704,-112.5819 921.8871,-85.8209"/>
<polygon fill="#191970" stroke="#191970" points="925.3876,-85.7729 921.9777,-75.7418 918.3879,-85.7099 925.3876,-85.7729"/>
</g>
<!-- Node5 -->
<g id="node6" class="node">
<title>Node5</title>
<polygon fill="none" stroke="#bfbfbf" points="938.5,-112.5 938.5,-131.5 986.5,-131.5 986.5,-112.5 938.5,-112.5"/>
<text text-anchor="middle" x="962.5" y="-119.5" font-family="Helvetica,sans-Serif" font-size="10.00" fill="#000000">limits.h</text>
</g>
<!-- Node2&#45;&gt;Node5 -->
<g id="edge6" class="edge">
<title>Node2&#45;&gt;Node5</title>
<path fill="none" stroke="#191970" d="M1015.8336,-225.1986C996.9544,-218.3641 974.9563,-206.7956 963.5,-188 955.1229,-174.2563 955.6369,-155.7267 957.8075,-141.7997"/>
<polygon fill="#191970" stroke="#191970" points="961.2793,-142.2827 959.7652,-131.7967 954.4096,-140.9382 961.2793,-142.2827"/>
</g>
<!-- Node6 -->
<g id="node7" class="node">
<title>Node6</title>
<polygon fill="none" stroke="#bfbfbf" points="1018.5,-112.5 1018.5,-131.5 1090.5,-131.5 1090.5,-112.5 1018.5,-112.5"/>
<text text-anchor="middle" x="1054.5" y="-119.5" font-family="Helvetica,sans-Serif" font-size="10.00" fill="#000000">periph_cpu.h</text>
</g>
<!-- Node2&#45;&gt;Node6 -->
<g id="edge7" class="edge">
<title>Node2&#45;&gt;Node6</title>
<path fill="none" stroke="#191970" d="M1080.2191,-224.4362C1097.4074,-217.3313 1117.3632,-205.7464 1127.5,-188 1139.9737,-166.1624 1113.969,-147.6174 1089.6108,-135.7982"/>
<polygon fill="#191970" stroke="#191970" points="1090.9894,-132.5801 1080.4396,-131.6048 1088.0786,-138.9462 1090.9894,-132.5801"/>
</g>
<!-- Node7 -->
<g id="node8" class="node">
<title>Node7</title>
<polygon fill="none" stroke="#bfbfbf" points="1116,-112.5 1116,-131.5 1191,-131.5 1191,-112.5 1116,-112.5"/>
<text text-anchor="middle" x="1153.5" y="-119.5" font-family="Helvetica,sans-Serif" font-size="10.00" fill="#000000">periph_conf.h</text>
</g>
<!-- Node2&#45;&gt;Node7 -->
<g id="edge8" class="edge">
<title>Node2&#45;&gt;Node7</title>
<path fill="none" stroke="#191970" d="M1083.3845,-225.9897C1104.0174,-219.312 1129.097,-207.6287 1143.5,-188 1153.2377,-174.7292 1155.2484,-155.8682 1155.1087,-141.705"/>
<polygon fill="#191970" stroke="#191970" points="1158.5975,-141.3789 1154.6422,-131.55 1151.6049,-141.7002 1158.5975,-141.3789"/>
</g>
<!-- Node2&#45;&gt;Node8 -->
<g id="edge9" class="edge">
<title>Node2&#45;&gt;Node8</title>
<path fill="none" stroke="#191970" d="M1042.3583,-224.2455C1036.6556,-216.4564 1028.51,-205.3308 1021.6375,-195.9439"/>
<polygon fill="#191970" stroke="#191970" points="1024.2913,-193.6437 1015.5598,-187.6427 1018.6432,-197.7789 1024.2913,-193.6437"/>
</g>
<!-- Node8&#45;&gt;Node5 -->
<g id="edge10" class="edge">
<title>Node8&#45;&gt;Node5</title>
<path fill="none" stroke="#191970" d="M1000.4874,-168.2455C994.0232,-160.3761 984.7615,-149.101 977.0017,-139.6542"/>
<polygon fill="#191970" stroke="#191970" points="979.4727,-137.1484 970.4208,-131.6427 974.0636,-141.5916 979.4727,-137.1484"/>
</g>
<!-- Node8&#45;&gt;Node6 -->
<g id="edge11" class="edge">
<title>Node8&#45;&gt;Node6</title>
<path fill="none" stroke="#191970" d="M1016.5126,-168.2455C1022.9768,-160.3761 1032.2385,-149.101 1039.9983,-139.6542"/>
<polygon fill="#191970" stroke="#191970" points="1042.9364,-141.5916 1046.5792,-131.6427 1037.5273,-137.1484 1042.9364,-141.5916"/>
</g>
<!-- Node8&#45;&gt;Node7 -->
<g id="edge12" class="edge">
<title>Node8&#45;&gt;Node7</title>
<path fill="none" stroke="#191970" d="M1033.4264,-168.3733C1057.1202,-159.2226 1092.9511,-145.3844 1119.3068,-135.2057"/>
<polygon fill="#191970" stroke="#191970" points="1120.8314,-138.3689 1128.8989,-131.5011 1118.3094,-131.8389 1120.8314,-138.3689"/>
</g>
<!-- Node9&#45;&gt;Node1 -->
<g id="edge15" class="edge">
<title>Node9&#45;&gt;Node1</title>
<path fill="none" stroke="#191970" d="M163.8414,-168.2881C156.7474,-154.7076 146.7446,-129.7218 157.5,-112 192.6552,-54.0742 272.6123,-27.5238 318.807,-16.6292"/>
<polygon fill="#191970" stroke="#191970" points="319.6815,-20.0201 328.6748,-14.4192 318.1516,-13.1893 319.6815,-20.0201"/>
</g>
<!-- Node10 -->
<g id="node11" class="node">
<title>Node10</title>
<g id="a_node11"><a xlink:href="errno_8h.html" target="_top" xlink:title="errno.h">
<polygon fill="none" stroke="#000000" points="0,-112.5 0,-131.5 47,-131.5 47,-112.5 0,-112.5"/>
<text text-anchor="middle" x="23.5" y="-119.5" font-family="Helvetica,sans-Serif" font-size="10.00" fill="#000000">errno.h</text>
</a>
</g>
</g>
<!-- Node9&#45;&gt;Node10 -->
<g id="edge16" class="edge">
<title>Node9&#45;&gt;Node10</title>
<path fill="none" stroke="#191970" d="M144.4017,-168.3733C120.2553,-159.1116 83.5901,-145.0482 56.9683,-134.8371"/>
<polygon fill="#191970" stroke="#191970" points="57.8942,-131.4437 47.304,-131.1303 55.3873,-137.9794 57.8942,-131.4437"/>
</g>
<!-- Node11 -->
<g id="node12" class="node">
<title>Node11</title>
<g id="a_node12"><a xlink:href="iolist_8h.html" target="_top" xlink:title="iolist scatter / gather IO ">
<polygon fill="none" stroke="#000000" points="65,-112.5 65,-131.5 110,-131.5 110,-112.5 65,-112.5"/>
<text text-anchor="middle" x="87.5" y="-119.5" font-family="Helvetica,sans-Serif" font-size="10.00" fill="#000000">iolist.h</text>
</a>
</g>
</g>
<!-- Node9&#45;&gt;Node11 -->
<g id="edge17" class="edge">
<title>Node9&#45;&gt;Node11</title>
<path fill="none" stroke="#191970" d="M155.2167,-168.2455C142.753,-159.7337 124.4549,-147.2375 110.0208,-137.3801"/>
<polygon fill="#191970" stroke="#191970" points="111.8515,-134.392 101.6196,-131.6427 107.9038,-140.1726 111.8515,-134.392"/>
</g>
<!-- Node13 -->
<g id="node14" class="node">
<title>Node13</title>
<g id="a_node14"><a xlink:href="netopt_8h.html" target="_top" xlink:title="Definition of global configuration options. ">
<polygon fill="none" stroke="#000000" points="166.5,-112.5 166.5,-131.5 234.5,-131.5 234.5,-112.5 166.5,-112.5"/>
<text text-anchor="middle" x="200.5" y="-119.5" font-family="Helvetica,sans-Serif" font-size="10.00" fill="#000000">net/netopt.h</text>
</a>
</g>
</g>
<!-- Node9&#45;&gt;Node13 -->
<g id="edge19" class="edge">
<title>Node9&#45;&gt;Node13</title>
<path fill="none" stroke="#191970" d="M174.8998,-168.2455C179.1227,-160.617 185.1173,-149.7881 190.2441,-140.5267"/>
<polygon fill="#191970" stroke="#191970" points="193.381,-142.0867 195.1621,-131.6427 187.2568,-138.6965 193.381,-142.0867"/>
</g>
<!-- Node12 -->
<g id="node13" class="node">
<title>Node12</title>
<polygon fill="none" stroke="#bfbfbf" points="59,-56.5 59,-75.5 110,-75.5 110,-56.5 59,-56.5"/>
<text text-anchor="middle" x="84.5" y="-63.5" font-family="Helvetica,sans-Serif" font-size="10.00" fill="#000000">unistd.h</text>
</g>
<!-- Node11&#45;&gt;Node12 -->
<g id="edge18" class="edge">
<title>Node11&#45;&gt;Node12</title>
<path fill="none" stroke="#191970" d="M86.9774,-112.2455C86.586,-104.9382 86.0372,-94.6944 85.5556,-85.7046"/>
<polygon fill="#191970" stroke="#191970" points="89.0466,-85.4411 85.0166,-75.6427 82.0566,-85.8156 89.0466,-85.4411"/>
</g>
<!-- Node14&#45;&gt;Node9 -->
<g id="edge38" class="edge">
<title>Node14&#45;&gt;Node9</title>
<path fill="none" stroke="#191970" d="M319.385,-224.3733C289.1571,-215.021 243.104,-200.7725 210.0261,-190.5385"/>
<polygon fill="#191970" stroke="#191970" points="210.7967,-187.1133 200.209,-187.5011 208.7277,-193.8005 210.7967,-187.1133"/>
</g>
<!-- Node14&#45;&gt;Node13 -->
<g id="edge37" class="edge">
<title>Node14&#45;&gt;Node13</title>
<path fill="none" stroke="#191970" d="M337.7111,-224.4509C311.8073,-205.1094 252.9284,-161.1465 221.38,-137.5904"/>
<polygon fill="#191970" stroke="#191970" points="223.3634,-134.7033 213.2565,-131.5249 219.1753,-140.3123 223.3634,-134.7033"/>
</g>
<!-- Node15 -->
<g id="node16" class="node">
<title>Node15</title>
<g id="a_node16"><a xlink:href="sys_2include_2net_2ieee802154_8h.html" target="_top" xlink:title="IEEE 802.15.4 header definitions. ">
<polygon fill="none" stroke="#000000" points="305,-168.5 305,-187.5 396,-187.5 396,-168.5 305,-168.5"/>
<text text-anchor="middle" x="350.5" y="-175.5" font-family="Helvetica,sans-Serif" font-size="10.00" fill="#000000">net/ieee802154.h</text>
</a>
</g>
</g>
<!-- Node14&#45;&gt;Node15 -->
<g id="edge21" class="edge">
<title>Node14&#45;&gt;Node15</title>
<path fill="none" stroke="#191970" d="M350.5,-224.2455C350.5,-216.9382 350.5,-206.6944 350.5,-197.7046"/>
<polygon fill="#191970" stroke="#191970" points="354.0001,-197.6426 350.5,-187.6427 347.0001,-197.6427 354.0001,-197.6426"/>
</g>
<!-- Node20 -->
<g id="node21" class="node">
<title>Node20</title>
<g id="a_node21"><a xlink:href="nettype_8h.html" target="_top" xlink:title="Protocol type definitions. ">
<polygon fill="none" stroke="#000000" points="550,-168.5 550,-187.5 645,-187.5 645,-168.5 550,-168.5"/>
<text text-anchor="middle" x="597.5" y="-175.5" font-family="Helvetica,sans-Serif" font-size="10.00" fill="#000000">net/gnrc/nettype.h</text>
</a>
</g>
</g>
<!-- Node14&#45;&gt;Node20 -->
<g id="edge31" class="edge">
<title>Node14&#45;&gt;Node20</title>
<path fill="none" stroke="#191970" d="M392.6802,-224.4369C434.9523,-214.8529 500.1062,-200.0812 545.5417,-189.78"/>
<polygon fill="#191970" stroke="#191970" points="546.5152,-193.1482 555.4938,-187.5237 544.9674,-186.3215 546.5152,-193.1482"/>
</g>
<!-- Node15&#45;&gt;Node1 -->
<g id="edge22" class="edge">
<title>Node15&#45;&gt;Node1</title>
<path fill="none" stroke="#191970" d="M337.5246,-168.2459C311.7449,-147.6247 258.4701,-98.0424 281.5,-56 289.6841,-41.0595 305.0152,-30.2664 319.4339,-22.9064"/>
<polygon fill="#191970" stroke="#191970" points="321.1304,-25.9764 328.693,-18.5564 318.1538,-19.6408 321.1304,-25.9764"/>
</g>
<!-- Node16 -->
<g id="node17" class="node">
<title>Node16</title>
<g id="a_node17"><a xlink:href="stdlib_8h.html" target="_top" xlink:title="stdlib.h wrapper for MSP430 ">
<polygon fill="none" stroke="#000000" points="412.5,-112.5 412.5,-131.5 460.5,-131.5 460.5,-112.5 412.5,-112.5"/>
<text text-anchor="middle" x="436.5" y="-119.5" font-family="Helvetica,sans-Serif" font-size="10.00" fill="#000000">stdlib.h</text>
</a>
</g>
</g>
<!-- Node15&#45;&gt;Node16 -->
<g id="edge23" class="edge">
<title>Node15&#45;&gt;Node16</title>
<path fill="none" stroke="#191970" d="M365.4801,-168.2455C378.6751,-159.6534 398.1051,-147.0014 413.3079,-137.1018"/>
<polygon fill="#191970" stroke="#191970" points="415.2215,-140.0325 421.6916,-131.6427 411.4017,-134.1665 415.2215,-140.0325"/>
</g>
<!-- Node18 -->
<g id="node19" class="node">
<title>Node18</title>
<g id="a_node19"><a xlink:href="byteorder_8h.html" target="_top" xlink:title="Functions to work with different byte orders. ">
<polygon fill="none" stroke="#000000" points="291,-56.5 291,-75.5 356,-75.5 356,-56.5 291,-56.5"/>
<text text-anchor="middle" x="323.5" y="-63.5" font-family="Helvetica,sans-Serif" font-size="10.00" fill="#000000">byteorder.h</text>
</a>
</g>
</g>
<!-- Node15&#45;&gt;Node18 -->
<g id="edge26" class="edge">
<title>Node15&#45;&gt;Node18</title>
<path fill="none" stroke="#191970" d="M341.4259,-168.3243C333.9037,-159.5913 323.7769,-145.9994 319.5,-132 314.8883,-116.9046 316.3845,-98.9849 318.7578,-85.6296"/>
<polygon fill="#191970" stroke="#191970" points="322.2243,-86.1512 320.8429,-75.6469 315.3722,-84.72 322.2243,-86.1512"/>
</g>
<!-- Node19 -->
<g id="node20" class="node">
<title>Node19</title>
<g id="a_node20"><a xlink:href="eui64_8h.html" target="_top" xlink:title="EUI&#45;64 data type definition. ">
<polygon fill="none" stroke="#000000" points="329,-112.5 329,-131.5 394,-131.5 394,-112.5 329,-112.5"/>
<text text-anchor="middle" x="361.5" y="-119.5" font-family="Helvetica,sans-Serif" font-size="10.00" fill="#000000">net/eui64.h</text>
</a>
</g>
</g>
<!-- Node15&#45;&gt;Node19 -->
<g id="edge28" class="edge">
<title>Node15&#45;&gt;Node19</title>
<path fill="none" stroke="#191970" d="M352.4161,-168.2455C353.8514,-160.9382 355.8636,-150.6944 357.6295,-141.7046"/>
<polygon fill="#191970" stroke="#191970" points="361.1127,-142.1298 359.6059,-131.6427 354.244,-140.7805 361.1127,-142.1298"/>
</g>
<!-- Node17 -->
<g id="node18" class="node">
<title>Node17</title>
<g id="a_node18"><a xlink:href="malloc_8h.html" target="_top" xlink:title="malloc.h">
<polygon fill="none" stroke="#000000" points="413,-56.5 413,-75.5 466,-75.5 466,-56.5 413,-56.5"/>
<text text-anchor="middle" x="439.5" y="-63.5" font-family="Helvetica,sans-Serif" font-size="10.00" fill="#000000">malloc.h</text>
</a>
</g>
</g>
<!-- Node16&#45;&gt;Node17 -->
<g id="edge24" class="edge">
<title>Node16&#45;&gt;Node17</title>
<path fill="none" stroke="#191970" d="M431.7557,-112.2455C430.7361,-104.9382 430.8807,-94.6944 431.9649,-85.7046"/>
<polygon fill="#191970" stroke="#191970" points="435.4494,-86.0984 433.7383,-75.6427 428.5556,-84.8834 435.4494,-86.0984"/>
</g>
<!-- Node17&#45;&gt;Node16 -->
<g id="edge25" class="edge">
<title>Node17&#45;&gt;Node16</title>
<path fill="none" stroke="#191970" d="M444.2286,-75.6427C445.26,-82.9199 445.1262,-93.155 444.0517,-102.1575"/>
<polygon fill="#191970" stroke="#191970" points="440.5625,-101.7924 442.2894,-112.2455 447.4581,-102.997 440.5625,-101.7924"/>
</g>
<!-- Node18&#45;&gt;Node1 -->
<g id="edge27" class="edge">
<title>Node18&#45;&gt;Node1</title>
<path fill="none" stroke="#191970" d="M328.7256,-56.2455C332.8123,-48.617 338.6135,-37.7881 343.575,-28.5267"/>
<polygon fill="#191970" stroke="#191970" points="346.6972,-30.1103 348.3343,-19.6427 340.5268,-26.8047 346.6972,-30.1103"/>
</g>
<!-- Node19&#45;&gt;Node1 -->
<g id="edge29" class="edge">
<title>Node19&#45;&gt;Node1</title>
<path fill="none" stroke="#191970" d="M362.9455,-112.1241C364.6112,-99.1881 366.8369,-75.8208 364.5,-56 363.4571,-47.1546 361.3232,-37.5467 359.21,-29.4104"/>
<polygon fill="#191970" stroke="#191970" points="362.5772,-28.4548 356.5375,-19.7501 355.8306,-30.3213 362.5772,-28.4548"/>
</g>
<!-- Node19&#45;&gt;Node18 -->
<g id="edge30" class="edge">
<title>Node19&#45;&gt;Node18</title>
<path fill="none" stroke="#191970" d="M354.8809,-112.2455C349.5954,-104.4564 342.0459,-93.3308 335.6762,-83.9439"/>
<polygon fill="#191970" stroke="#191970" points="338.5545,-81.9522 330.0432,-75.6427 332.7621,-85.8827 338.5545,-81.9522"/>
</g>
<!-- Node21 -->
<g id="node22" class="node">
<title>Node21</title>
<g id="a_node22"><a xlink:href="inttypes_8h.html" target="_top" xlink:title="Adds include for missing inttype definitions. ">
<polygon fill="none" stroke="#000000" points="479,-112.5 479,-131.5 538,-131.5 538,-112.5 479,-112.5"/>
<text text-anchor="middle" x="508.5" y="-119.5" font-family="Helvetica,sans-Serif" font-size="10.00" fill="#000000">inttypes.h</text>
</a>
</g>
</g>
<!-- Node20&#45;&gt;Node21 -->
<g id="edge32" class="edge">
<title>Node20&#45;&gt;Node21</title>
<path fill="none" stroke="#191970" d="M581.9974,-168.2455C568.342,-159.6534 548.2343,-147.0014 532.5011,-137.1018"/>
<polygon fill="#191970" stroke="#191970" points="534.1529,-134.006 523.825,-131.6427 530.4249,-139.9307 534.1529,-134.006"/>
</g>
<!-- Node22 -->
<g id="node23" class="node">
<title>Node22</title>
<g id="a_node23"><a xlink:href="kernel__defines_8h.html" target="_top" xlink:title="Common macros and compiler attributes/pragmas configuration. ">
<polygon fill="none" stroke="#000000" points="752.5,-112.5 752.5,-131.5 840.5,-131.5 840.5,-112.5 752.5,-112.5"/>
<text text-anchor="middle" x="796.5" y="-119.5" font-family="Helvetica,sans-Serif" font-size="10.00" fill="#000000">kernel_defines.h</text>
</a>
</g>
</g>
<!-- Node20&#45;&gt;Node22 -->
<g id="edge33" class="edge">
<title>Node20&#45;&gt;Node22</title>
<path fill="none" stroke="#191970" d="M631.7093,-168.3733C665.2297,-158.9404 716.4505,-144.5265 752.881,-134.2747"/>
<polygon fill="#191970" stroke="#191970" points="754.0591,-137.5792 762.7371,-131.5011 752.1628,-130.8409 754.0591,-137.5792"/>
</g>
<!-- Node23 -->
<g id="node24" class="node">
<title>Node23</title>
<g id="a_node24"><a xlink:href="ethertype_8h.html" target="_top" xlink:title="Ether type definitions. ">
<polygon fill="none" stroke="#000000" points="556.5,-112.5 556.5,-131.5 638.5,-131.5 638.5,-112.5 556.5,-112.5"/>
<text text-anchor="middle" x="597.5" y="-119.5" font-family="Helvetica,sans-Serif" font-size="10.00" fill="#000000">net/ethertype.h</text>
</a>
</g>
</g>
<!-- Node20&#45;&gt;Node23 -->
<g id="edge35" class="edge">
<title>Node20&#45;&gt;Node23</title>
<path fill="none" stroke="#191970" d="M597.5,-168.2455C597.5,-160.9382 597.5,-150.6944 597.5,-141.7046"/>
<polygon fill="#191970" stroke="#191970" points="601.0001,-141.6426 597.5,-131.6427 594.0001,-141.6427 601.0001,-141.6426"/>
</g>
<!-- Node24 -->
<g id="node25" class="node">
<title>Node24</title>
<g id="a_node25"><a xlink:href="protnum_8h.html" target="_top" xlink:title="Protocol number definitions. ">
<polygon fill="none" stroke="#000000" points="657,-112.5 657,-131.5 734,-131.5 734,-112.5 657,-112.5"/>
<text text-anchor="middle" x="695.5" y="-119.5" font-family="Helvetica,sans-Serif" font-size="10.00" fill="#000000">net/protnum.h</text>
</a>
</g>
</g>
<!-- Node20&#45;&gt;Node24 -->
<g id="edge36" class="edge">
<title>Node20&#45;&gt;Node24</title>
<path fill="none" stroke="#191970" d="M614.5703,-168.2455C629.747,-159.5731 652.1621,-146.7645 669.5563,-136.825"/>
<polygon fill="#191970" stroke="#191970" points="671.6794,-139.643 678.6253,-131.6427 668.2064,-133.5653 671.6794,-139.643"/>
</g>
<!-- Node22&#45;&gt;Node4 -->
<g id="edge34" class="edge">
<title>Node22&#45;&gt;Node4</title>
<path fill="none" stroke="#191970" d="M818.1602,-112.3733C838.4772,-103.3435 869.064,-89.7494 891.875,-79.6111"/>
<polygon fill="#191970" stroke="#191970" points="893.4059,-82.7609 901.1225,-75.5011 890.5628,-76.3642 893.4059,-82.7609"/>
</g>
</g>
</svg>
