<?xml version="1.0" encoding="UTF-8" standalone="no"?>
<!DOCTYPE svg PUBLIC "-//W3C//DTD SVG 1.1//EN"
 "http://www.w3.org/Graphics/SVG/1.1/DTD/svg11.dtd">
<!-- Generated by graphviz version 2.43.0 (0)
 -->
<!-- Title: cpu/cc2538/include/cc2538_eui_primary.h Pages: 1 -->
<svg width="179pt" height="263pt"
 viewBox="0.00 0.00 178.50 263.00" xmlns="http://www.w3.org/2000/svg" xmlns:xlink="http://www.w3.org/1999/xlink">
<g id="graph0" class="graph" transform="scale(1 1) rotate(0) translate(4 259)">
<title>cpu/cc2538/include/cc2538_eui_primary.h</title>
<!-- Node1 -->
<g id="node1" class="node">
<title>Node1</title>
<g id="a_node1"><a xlink:title="CC2538 EUI&#45;64 provider.">
<polygon fill="#bfbfbf" stroke="black" points="0,-224.5 0,-254.5 125,-254.5 125,-224.5 0,-224.5"/>
<text text-anchor="start" x="8" y="-242.5" font-family="Helvetica,sans-Serif" font-size="10.00">cpu/cc2538/include</text>
<text text-anchor="middle" x="62.5" y="-231.5" font-family="Helvetica,sans-Serif" font-size="10.00">/cc2538_eui_primary.h</text>
</a>
</g>
</g>
<!-- Node2 -->
<g id="node2" class="node">
<title>Node2</title>
<g id="a_node2"><a xlink:href="eui64_8h.html" target="_top" xlink:title="EUI&#45;64 data type definition.">
<polygon fill="none" stroke="black" points="27,-168.5 27,-187.5 98,-187.5 98,-168.5 27,-168.5"/>
<text text-anchor="middle" x="62.5" y="-175.5" font-family="Helvetica,sans-Serif" font-size="10.00">net/eui64.h</text>
</a>
</g>
</g>
<!-- Node1&#45;&gt;Node2 -->
<g id="edge1" class="edge">
<title>Node1&#45;&gt;Node2</title>
<path fill="none" stroke="midnightblue" d="M62.5,-224.4C62.5,-216.47 62.5,-206.46 62.5,-197.86"/>
<polygon fill="midnightblue" stroke="midnightblue" points="66,-197.66 62.5,-187.66 59,-197.66 66,-197.66"/>
</g>
<!-- Node3 -->
<g id="node3" class="node">
<title>Node3</title>
<g id="a_node3"><a xlink:title=" ">
<polygon fill="none" stroke="#bfbfbf" points="42,-0.5 42,-19.5 95,-19.5 95,-0.5 42,-0.5"/>
<text text-anchor="middle" x="68.5" y="-7.5" font-family="Helvetica,sans-Serif" font-size="10.00">stdint.h</text>
</a>
</g>
</g>
<!-- Node2&#45;&gt;Node3 -->
<g id="edge2" class="edge">
<title>Node2&#45;&gt;Node3</title>
<path fill="none" stroke="midnightblue" d="M59.16,-168.2C55.95,-159.24 51.32,-144.88 49.5,-132 44.35,-95.65 54.79,-53.29 62.13,-29.57"/>
<polygon fill="midnightblue" stroke="midnightblue" points="65.55,-30.38 65.31,-19.79 58.89,-28.22 65.55,-30.38"/>
</g>
<!-- Node4 -->
<g id="node4" class="node">
<title>Node4</title>
<g id="a_node4"><a xlink:href="byteorder_8h.html" target="_top" xlink:title="Functions to work with different byte orders.">
<polygon fill="none" stroke="black" points="59,-112.5 59,-131.5 132,-131.5 132,-112.5 59,-112.5"/>
<text text-anchor="middle" x="95.5" y="-119.5" font-family="Helvetica,sans-Serif" font-size="10.00">byteorder.h</text>
</a>
</g>
</g>
<!-- Node2&#45;&gt;Node4 -->
<g id="edge3" class="edge">
<title>Node2&#45;&gt;Node4</title>
<path fill="none" stroke="midnightblue" d="M67.95,-168.08C72.51,-160.61 79.17,-149.72 84.79,-140.52"/>
<polygon fill="midnightblue" stroke="midnightblue" points="87.92,-142.11 90.15,-131.75 81.95,-138.46 87.92,-142.11"/>
</g>
<!-- Node4&#45;&gt;Node3 -->
<g id="edge4" class="edge">
<title>Node4&#45;&gt;Node3</title>
<path fill="none" stroke="midnightblue" d="M93.38,-112.37C89.02,-94.62 78.97,-53.67 73.06,-29.6"/>
<polygon fill="midnightblue" stroke="midnightblue" points="76.39,-28.47 70.61,-19.59 69.59,-30.14 76.39,-28.47"/>
</g>
<!-- Node5 -->
<g id="node5" class="node">
<title>Node5</title>
<g id="a_node5"><a xlink:href="unaligned_8h.html" target="_top" xlink:title="Unaligned but safe memory access functions.">
<polygon fill="none" stroke="black" points="96.5,-56.5 96.5,-75.5 170.5,-75.5 170.5,-56.5 96.5,-56.5"/>
<text text-anchor="middle" x="133.5" y="-63.5" font-family="Helvetica,sans-Serif" font-size="10.00">unaligned.h</text>
</a>
</g>
</g>
<!-- Node4&#45;&gt;Node5 -->
<g id="edge5" class="edge">
<title>Node4&#45;&gt;Node5</title>
<path fill="none" stroke="midnightblue" d="M101.77,-112.08C107.14,-104.46 115.02,-93.26 121.58,-83.94"/>
<polygon fill="midnightblue" stroke="midnightblue" points="124.45,-85.94 127.34,-75.75 118.72,-81.91 124.45,-85.94"/>
</g>
<!-- Node5&#45;&gt;Node3 -->
<g id="edge6" class="edge">
<title>Node5&#45;&gt;Node3</title>
<path fill="none" stroke="midnightblue" d="M123.06,-56.32C113.35,-48.26 98.68,-36.08 87,-26.37"/>
<polygon fill="midnightblue" stroke="midnightblue" points="89.06,-23.53 79.13,-19.83 84.59,-28.92 89.06,-23.53"/>
</g>
</g>
</svg>
