<?xml version="1.0" encoding="UTF-8" standalone="no"?>
<!DOCTYPE svg PUBLIC "-//W3C//DTD SVG 1.1//EN"
 "http://www.w3.org/Graphics/SVG/1.1/DTD/svg11.dtd">
<!-- Generated by graphviz version 2.43.0 (0)
 -->
<!-- Title: cpu/cc2538/include/cc2538.h Pages: 1 -->
<svg width="1080pt" height="173pt"
 viewBox="0.00 0.00 1079.81 173.00" xmlns="http://www.w3.org/2000/svg" xmlns:xlink="http://www.w3.org/1999/xlink">
<g id="graph0" class="graph" transform="scale(1 1) rotate(0) translate(4 169)">
<title>cpu/cc2538/include/cc2538.h</title>
<!-- Node1 -->
<g id="node1" class="node">
<title>Node1</title>
<g id="a_node1"><a xlink:title="CC2538 MCU interrupt and register definitions.">
<polygon fill="#bfbfbf" stroke="black" points="335.81,-134.5 335.81,-164.5 445.81,-164.5 445.81,-134.5 335.81,-134.5"/>
<text text-anchor="start" x="343.81" y="-152.5" font-family="Helvetica,sans-Serif" font-size="10.00">cpu/cc2538/include</text>
<text text-anchor="middle" x="390.81" y="-141.5" font-family="Helvetica,sans-Serif" font-size="10.00">/cc2538.h</text>
</a>
</g>
</g>
<!-- Node2 -->
<g id="node2" class="node">
<title>Node2</title>
<g id="a_node2"><a xlink:href="cc2538__gpio_8h.html" target="_top" xlink:title="Driver for the cc2538 GPIO controller.">
<polygon fill="none" stroke="black" points="783.81,-67.5 783.81,-97.5 893.81,-97.5 893.81,-67.5 783.81,-67.5"/>
<text text-anchor="start" x="791.81" y="-85.5" font-family="Helvetica,sans-Serif" font-size="10.00">cpu/cc2538/include</text>
<text text-anchor="middle" x="838.81" y="-74.5" font-family="Helvetica,sans-Serif" font-size="10.00">/cc2538_gpio.h</text>
</a>
</g>
</g>
<!-- Node1&#45;&gt;Node2 -->
<g id="edge1" class="edge">
<title>Node1&#45;&gt;Node2</title>
<path fill="none" stroke="midnightblue" d="M456.05,-141.77C532.68,-133.44 663.48,-117.89 774.81,-98 777.73,-97.48 780.71,-96.91 783.72,-96.32"/>
<polygon fill="midnightblue" stroke="midnightblue" points="455.63,-138.3 446.06,-142.85 456.38,-145.26 455.63,-138.3"/>
</g>
<!-- Node3 -->
<g id="node3" class="node">
<title>Node3</title>
<g id="a_node3"><a xlink:href="cc2538_2include_2cpu__conf_8h.html" target="_top" xlink:title="Implementation specific CPU configuration options.">
<polygon fill="none" stroke="black" points="335.81,-0.5 335.81,-30.5 445.81,-30.5 445.81,-0.5 335.81,-0.5"/>
<text text-anchor="start" x="343.81" y="-18.5" font-family="Helvetica,sans-Serif" font-size="10.00">cpu/cc2538/include</text>
<text text-anchor="middle" x="390.81" y="-7.5" font-family="Helvetica,sans-Serif" font-size="10.00">/cpu_conf.h</text>
</a>
</g>
</g>
<!-- Node1&#45;&gt;Node3 -->
<g id="edge18" class="edge">
<title>Node1&#45;&gt;Node3</title>
<path fill="none" stroke="midnightblue" d="M325.5,-144.54C221.42,-137.56 27.46,-121.54 6.81,-98 -2.27,-87.64 -2.27,-77.36 6.81,-67 28.15,-42.67 234.53,-26.38 335.59,-19.79"/>
<polygon fill="midnightblue" stroke="midnightblue" points="325.38,-148.04 335.59,-145.21 325.85,-141.06 325.38,-148.04"/>
</g>
<!-- Node7 -->
<g id="node7" class="node">
<title>Node7</title>
<g id="a_node7"><a xlink:href="cc2538__gptimer_8h.html" target="_top" xlink:title="CC2538 General Purpose Timer (GPTIMER) driver.">
<polygon fill="none" stroke="black" points="15.81,-67.5 15.81,-97.5 125.81,-97.5 125.81,-67.5 15.81,-67.5"/>
<text text-anchor="start" x="23.81" y="-85.5" font-family="Helvetica,sans-Serif" font-size="10.00">cpu/cc2538/include</text>
<text text-anchor="middle" x="70.81" y="-74.5" font-family="Helvetica,sans-Serif" font-size="10.00">/cc2538_gptimer.h</text>
</a>
</g>
</g>
<!-- Node1&#45;&gt;Node7 -->
<g id="edge6" class="edge">
<title>Node1&#45;&gt;Node7</title>
<path fill="none" stroke="midnightblue" d="M325.74,-136.19C273.94,-126.26 199.63,-111.73 134.81,-98 131.92,-97.39 128.95,-96.75 125.95,-96.09"/>
<polygon fill="midnightblue" stroke="midnightblue" points="325.31,-139.67 335.79,-138.11 326.63,-132.79 325.31,-139.67"/>
</g>
<!-- Node8 -->
<g id="node8" class="node">
<title>Node8</title>
<g id="a_node8"><a xlink:href="cc2538__rfcore_8h.html" target="_top" xlink:title="CC2538 RF core interface.">
<polygon fill="none" stroke="black" points="143.81,-67.5 143.81,-97.5 253.81,-97.5 253.81,-67.5 143.81,-67.5"/>
<text text-anchor="start" x="151.81" y="-85.5" font-family="Helvetica,sans-Serif" font-size="10.00">cpu/cc2538/include</text>
<text text-anchor="middle" x="198.81" y="-74.5" font-family="Helvetica,sans-Serif" font-size="10.00">/cc2538_rfcore.h</text>
</a>
</g>
</g>
<!-- Node1&#45;&gt;Node8 -->
<g id="edge8" class="edge">
<title>Node1&#45;&gt;Node8</title>
<path fill="none" stroke="midnightblue" d="M339.39,-131.09C308.4,-120.6 269.43,-107.41 240.39,-97.58"/>
<polygon fill="midnightblue" stroke="midnightblue" points="338.56,-134.5 349.15,-134.4 340.8,-127.87 338.56,-134.5"/>
</g>
<!-- Node9 -->
<g id="node9" class="node">
<title>Node9</title>
<g id="a_node9"><a xlink:href="cc2538__soc__adc_8h.html" target="_top" xlink:title="CC2538 SOC ADC interface.">
<polygon fill="none" stroke="black" points="271.81,-67.5 271.81,-97.5 381.81,-97.5 381.81,-67.5 271.81,-67.5"/>
<text text-anchor="start" x="279.81" y="-85.5" font-family="Helvetica,sans-Serif" font-size="10.00">cpu/cc2538/include</text>
<text text-anchor="middle" x="326.81" y="-74.5" font-family="Helvetica,sans-Serif" font-size="10.00">/cc2538_soc_adc.h</text>
</a>
</g>
</g>
<!-- Node1&#45;&gt;Node9 -->
<g id="edge10" class="edge">
<title>Node1&#45;&gt;Node9</title>
<path fill="none" stroke="midnightblue" d="M369.67,-127.02C360.13,-117.34 349.14,-106.17 340.67,-97.58"/>
<polygon fill="midnightblue" stroke="midnightblue" points="367.42,-129.73 376.93,-134.4 372.4,-124.81 367.42,-129.73"/>
</g>
<!-- Node10 -->
<g id="node10" class="node">
<title>Node10</title>
<g id="a_node10"><a xlink:href="cc2538__ssi_8h.html" target="_top" xlink:title="CC2538 SSI interface.">
<polygon fill="none" stroke="black" points="399.81,-67.5 399.81,-97.5 509.81,-97.5 509.81,-67.5 399.81,-67.5"/>
<text text-anchor="start" x="407.81" y="-85.5" font-family="Helvetica,sans-Serif" font-size="10.00">cpu/cc2538/include</text>
<text text-anchor="middle" x="454.81" y="-74.5" font-family="Helvetica,sans-Serif" font-size="10.00">/cc2538_ssi.h</text>
</a>
</g>
</g>
<!-- Node1&#45;&gt;Node10 -->
<g id="edge12" class="edge">
<title>Node1&#45;&gt;Node10</title>
<path fill="none" stroke="midnightblue" d="M411.96,-127.02C421.49,-117.34 432.49,-106.17 440.95,-97.58"/>
<polygon fill="midnightblue" stroke="midnightblue" points="409.22,-124.81 404.7,-134.4 414.21,-129.73 409.22,-124.81"/>
</g>
<!-- Node11 -->
<g id="node11" class="node">
<title>Node11</title>
<g id="a_node11"><a xlink:href="cc2538__sys__ctrl_8h.html" target="_top" xlink:title="CC2538 System Control interface.">
<polygon fill="none" stroke="black" points="527.81,-67.5 527.81,-97.5 637.81,-97.5 637.81,-67.5 527.81,-67.5"/>
<text text-anchor="start" x="535.81" y="-85.5" font-family="Helvetica,sans-Serif" font-size="10.00">cpu/cc2538/include</text>
<text text-anchor="middle" x="582.81" y="-74.5" font-family="Helvetica,sans-Serif" font-size="10.00">/cc2538_sys_ctrl.h</text>
</a>
</g>
</g>
<!-- Node1&#45;&gt;Node11 -->
<g id="edge14" class="edge">
<title>Node1&#45;&gt;Node11</title>
<path fill="none" stroke="midnightblue" d="M442.24,-131.09C473.23,-120.6 512.19,-107.41 541.23,-97.58"/>
<polygon fill="midnightblue" stroke="midnightblue" points="440.82,-127.87 432.47,-134.4 443.07,-134.5 440.82,-127.87"/>
</g>
<!-- Node12 -->
<g id="node12" class="node">
<title>Node12</title>
<g id="a_node12"><a xlink:href="cc2538__uart_8h.html" target="_top" xlink:title="CC2538 UART interface.">
<polygon fill="none" stroke="black" points="655.81,-67.5 655.81,-97.5 765.81,-97.5 765.81,-67.5 655.81,-67.5"/>
<text text-anchor="start" x="663.81" y="-85.5" font-family="Helvetica,sans-Serif" font-size="10.00">cpu/cc2538/include</text>
<text text-anchor="middle" x="710.81" y="-74.5" font-family="Helvetica,sans-Serif" font-size="10.00">/cc2538_uart.h</text>
</a>
</g>
</g>
<!-- Node1&#45;&gt;Node12 -->
<g id="edge16" class="edge">
<title>Node1&#45;&gt;Node12</title>
<path fill="none" stroke="midnightblue" d="M455.89,-136.19C507.69,-126.26 582,-111.73 646.81,-98 649.71,-97.39 652.68,-96.75 655.68,-96.09"/>
<polygon fill="midnightblue" stroke="midnightblue" points="455,-132.79 445.84,-138.11 456.32,-139.67 455,-132.79"/>
</g>
<!-- Node2&#45;&gt;Node3 -->
<g id="edge2" class="edge">
<title>Node2&#45;&gt;Node3</title>
<path fill="none" stroke="midnightblue" d="M773.79,-66.92C651.27,-45.38 518.92,-29.96 446.06,-22.15"/>
<polygon fill="midnightblue" stroke="midnightblue" points="773.26,-70.38 783.72,-68.68 774.49,-63.49 773.26,-70.38"/>
</g>
<!-- Node4 -->
<g id="node4" class="node">
<title>Node4</title>
<g id="a_node4"><a xlink:href="boards_2omote_2include_2periph__conf_8h.html" target="_top" xlink:title="Peripheral MCU configuration for the omote board.">
<polygon fill="none" stroke="black" points="623.81,-0.5 623.81,-30.5 745.81,-30.5 745.81,-0.5 623.81,-0.5"/>
<text text-anchor="start" x="631.81" y="-18.5" font-family="Helvetica,sans-Serif" font-size="10.00">boards/omote/include</text>
<text text-anchor="middle" x="684.81" y="-7.5" font-family="Helvetica,sans-Serif" font-size="10.00">/periph_conf.h</text>
</a>
</g>
</g>
<!-- Node2&#45;&gt;Node4 -->
<g id="edge3" class="edge">
<title>Node2&#45;&gt;Node4</title>
<path fill="none" stroke="midnightblue" d="M795.95,-63.41C771.36,-53.03 740.95,-40.2 718.16,-30.58"/>
<polygon fill="midnightblue" stroke="midnightblue" points="794.82,-66.73 805.4,-67.4 797.55,-60.28 794.82,-66.73"/>
</g>
<!-- Node5 -->
<g id="node5" class="node">
<title>Node5</title>
<g id="a_node5"><a xlink:href="boards_2openmote-b_2include_2periph__conf_8h.html" target="_top" xlink:title="Peripheral MCU configuration for the OpenMote&#45;B board.">
<polygon fill="none" stroke="black" points="763.81,-0.5 763.81,-30.5 913.81,-30.5 913.81,-0.5 763.81,-0.5"/>
<text text-anchor="start" x="771.81" y="-18.5" font-family="Helvetica,sans-Serif" font-size="10.00">boards/openmote&#45;b/include</text>
<text text-anchor="middle" x="838.81" y="-7.5" font-family="Helvetica,sans-Serif" font-size="10.00">/periph_conf.h</text>
</a>
</g>
</g>
<!-- Node2&#45;&gt;Node5 -->
<g id="edge4" class="edge">
<title>Node2&#45;&gt;Node5</title>
<path fill="none" stroke="midnightblue" d="M838.81,-57.11C838.81,-48.15 838.81,-38.32 838.81,-30.58"/>
<polygon fill="midnightblue" stroke="midnightblue" points="835.31,-57.4 838.81,-67.4 842.31,-57.4 835.31,-57.4"/>
</g>
<!-- Node6 -->
<g id="node6" class="node">
<title>Node6</title>
<g id="a_node6"><a xlink:href="boards_2openmote-cc2538_2include_2periph__conf_8h.html" target="_top" xlink:title="Peripheral MCU configuration for the OpenMote&#45;cc2538 board.">
<polygon fill="none" stroke="black" points="931.81,-0.5 931.81,-30.5 1071.81,-30.5 1071.81,-0.5 931.81,-0.5"/>
<text text-anchor="start" x="939.81" y="-18.5" font-family="Helvetica,sans-Serif" font-size="10.00">boards/openmote&#45;cc2538</text>
<text text-anchor="middle" x="1001.81" y="-7.5" font-family="Helvetica,sans-Serif" font-size="10.00">/include/periph_conf.h</text>
</a>
</g>
</g>
<!-- Node2&#45;&gt;Node6 -->
<g id="edge5" class="edge">
<title>Node2&#45;&gt;Node6</title>
<path fill="none" stroke="midnightblue" d="M883.5,-63.68C909.64,-53.26 942.18,-40.28 966.51,-30.58"/>
<polygon fill="midnightblue" stroke="midnightblue" points="882.17,-60.44 874.18,-67.4 884.77,-66.94 882.17,-60.44"/>
</g>
<!-- Node7&#45;&gt;Node3 -->
<g id="edge7" class="edge">
<title>Node7&#45;&gt;Node3</title>
<path fill="none" stroke="midnightblue" d="M136.01,-66.78C210.77,-51.03 286.12,-36.38 335.79,-26.89"/>
<polygon fill="midnightblue" stroke="midnightblue" points="135.01,-63.41 125.95,-68.91 136.46,-70.26 135.01,-63.41"/>
</g>
<!-- Node8&#45;&gt;Node3 -->
<g id="edge9" class="edge">
<title>Node8&#45;&gt;Node3</title>
<path fill="none" stroke="midnightblue" d="M250.24,-64.09C281.23,-53.6 320.19,-40.41 349.23,-30.58"/>
<polygon fill="midnightblue" stroke="midnightblue" points="248.82,-60.87 240.47,-67.4 251.07,-67.5 248.82,-60.87"/>
</g>
<!-- Node9&#45;&gt;Node3 -->
<g id="edge11" class="edge">
<title>Node9&#45;&gt;Node3</title>
<path fill="none" stroke="midnightblue" d="M347.96,-60.02C357.49,-50.34 368.49,-39.17 376.95,-30.58"/>
<polygon fill="midnightblue" stroke="midnightblue" points="345.22,-57.81 340.7,-67.4 350.21,-62.73 345.22,-57.81"/>
</g>
<!-- Node10&#45;&gt;Node3 -->
<g id="edge13" class="edge">
<title>Node10&#45;&gt;Node3</title>
<path fill="none" stroke="midnightblue" d="M433.67,-60.02C424.13,-50.34 413.14,-39.17 404.67,-30.58"/>
<polygon fill="midnightblue" stroke="midnightblue" points="431.42,-62.73 440.93,-67.4 436.4,-57.81 431.42,-62.73"/>
</g>
<!-- Node11&#45;&gt;Node3 -->
<g id="edge15" class="edge">
<title>Node11&#45;&gt;Node3</title>
<path fill="none" stroke="midnightblue" d="M531.39,-64.09C500.4,-53.6 461.43,-40.41 432.39,-30.58"/>
<polygon fill="midnightblue" stroke="midnightblue" points="530.56,-67.5 541.15,-67.4 532.8,-60.87 530.56,-67.5"/>
</g>
<!-- Node12&#45;&gt;Node3 -->
<g id="edge17" class="edge">
<title>Node12&#45;&gt;Node3</title>
<path fill="none" stroke="midnightblue" d="M645.61,-66.78C570.86,-51.03 495.51,-36.38 445.84,-26.89"/>
<polygon fill="midnightblue" stroke="midnightblue" points="645.17,-70.26 655.68,-68.91 646.62,-63.41 645.17,-70.26"/>
</g>
</g>
</svg>
