<?xml version="1.0" encoding="UTF-8" standalone="no"?>
<!DOCTYPE svg PUBLIC "-//W3C//DTD SVG 1.1//EN"
 "http://www.w3.org/Graphics/SVG/1.1/DTD/svg11.dtd">
<!-- Generated by graphviz version 2.40.1 (20161225.0304)
 -->
<!-- Title: cpu/cc2538/include/cc2538_rfcore.h Pages: 1 -->
<svg width="109pt" height="151pt"
 viewBox="0.00 0.00 109.00 151.00" xmlns="http://www.w3.org/2000/svg" xmlns:xlink="http://www.w3.org/1999/xlink">
<g id="graph0" class="graph" transform="scale(1 1) rotate(0) translate(4 147)">
<title>cpu/cc2538/include/cc2538_rfcore.h</title>
<!-- Node0 -->
<g id="node1" class="node">
<title>Node0</title>
<polygon fill="#bfbfbf" stroke="#000000" points="0,-112.5 0,-142.5 101,-142.5 101,-112.5 0,-112.5"/>
<text text-anchor="start" x="8" y="-130.5" font-family="Helvetica,sans-Serif" font-size="10.00" fill="#000000">cpu/cc2538/include</text>
<text text-anchor="middle" x="50.5" y="-119.5" font-family="Helvetica,sans-Serif" font-size="10.00" fill="#000000">/cc2538_rfcore.h</text>
</g>
<!-- Node1 -->
<g id="node2" class="node">
<title>Node1</title>
<g id="a_node2"><a xlink:href="cc2538_8h.html" target="_top" xlink:title="CC2538 MCU interrupt and register definitions. ">
<polygon fill="none" stroke="#000000" points="22.5,-56.5 22.5,-75.5 78.5,-75.5 78.5,-56.5 22.5,-56.5"/>
<text text-anchor="middle" x="50.5" y="-63.5" font-family="Helvetica,sans-Serif" font-size="10.00" fill="#000000">cc2538.h</text>
</a>
</g>
</g>
<!-- Node0&#45;&gt;Node1 -->
<g id="edge1" class="edge">
<title>Node0&#45;&gt;Node1</title>
<path fill="none" stroke="#191970" d="M50.5,-112.2977C50.5,-104.3834 50.5,-94.6043 50.5,-86.0759"/>
<polygon fill="#191970" stroke="#191970" points="54.0001,-85.8469 50.5,-75.8469 47.0001,-85.847 54.0001,-85.8469"/>
</g>
<!-- Node2 -->
<g id="node3" class="node">
<title>Node2</title>
<polygon fill="none" stroke="#bfbfbf" points="16.5,-.5 16.5,-19.5 84.5,-19.5 84.5,-.5 16.5,-.5"/>
<text text-anchor="middle" x="50.5" y="-7.5" font-family="Helvetica,sans-Serif" font-size="10.00" fill="#000000">core_cm3.h</text>
</g>
<!-- Node1&#45;&gt;Node2 -->
<g id="edge2" class="edge">
<title>Node1&#45;&gt;Node2</title>
<path fill="none" stroke="#191970" d="M50.5,-56.2455C50.5,-48.9382 50.5,-38.6944 50.5,-29.7046"/>
<polygon fill="#191970" stroke="#191970" points="54.0001,-29.6426 50.5,-19.6427 47.0001,-29.6427 54.0001,-29.6426"/>
</g>
</g>
</svg>
