<?xml version="1.0" encoding="UTF-8" standalone="no"?>
<!DOCTYPE svg PUBLIC "-//W3C//DTD SVG 1.1//EN"
 "http://www.w3.org/Graphics/SVG/1.1/DTD/svg11.dtd">
<!-- Generated by graphviz version 2.40.1 (20161225.0304)
 -->
<!-- Title: cpu/cc26x2_cc13x2/include/cpu_conf.h Pages: 1 -->
<svg width="2051pt" height="274pt"
 viewBox="0.00 0.00 2050.50 274.00" xmlns="http://www.w3.org/2000/svg" xmlns:xlink="http://www.w3.org/1999/xlink">
<g id="graph0" class="graph" transform="scale(1 1) rotate(0) translate(4 270)">
<title>cpu/cc26x2_cc13x2/include/cpu_conf.h</title>
<!-- Node0 -->
<g id="node1" class="node">
<title>Node0</title>
<polygon fill="#bfbfbf" stroke="#000000" points="1638,-235.5 1638,-265.5 1775,-265.5 1775,-235.5 1638,-235.5"/>
<text text-anchor="start" x="1646" y="-253.5" font-family="Helvetica,sans-Serif" font-size="10.00" fill="#000000">cpu/cc26x2_cc13x2/include</text>
<text text-anchor="middle" x="1706.5" y="-242.5" font-family="Helvetica,sans-Serif" font-size="10.00" fill="#000000">/cpu_conf.h</text>
</g>
<!-- Node1 -->
<g id="node2" class="node">
<title>Node1</title>
<g id="a_node2"><a xlink:href="cpu__conf__cc26xx__cc13xx_8h.html" target="_top" xlink:title="Implementation specific CPU configuration options. ">
<polygon fill="none" stroke="#000000" points="742.5,-179.5 742.5,-198.5 880.5,-198.5 880.5,-179.5 742.5,-179.5"/>
<text text-anchor="middle" x="811.5" y="-186.5" font-family="Helvetica,sans-Serif" font-size="10.00" fill="#000000">cpu_conf_cc26xx_cc13xx.h</text>
</a>
</g>
</g>
<!-- Node0&#45;&gt;Node1 -->
<g id="edge1" class="edge">
<title>Node0&#45;&gt;Node1</title>
<path fill="none" stroke="#191970" d="M1637.757,-245.7763C1474.5151,-234.5591 1064.2769,-206.3696 890.8626,-194.4534"/>
<polygon fill="#191970" stroke="#191970" points="891.0014,-190.9548 880.785,-193.7609 890.5215,-197.9383 891.0014,-190.9548"/>
</g>
<!-- Node17 -->
<g id="node18" class="node">
<title>Node17</title>
<g id="a_node18"><a xlink:href="cc26x2__cc13x2__aux_8h.html" target="_top" xlink:title="CC26x2, CC13x2 AUX register definitions. ">
<polygon fill="none" stroke="#000000" points="1516.5,-179.5 1516.5,-198.5 1630.5,-198.5 1630.5,-179.5 1516.5,-179.5"/>
<text text-anchor="middle" x="1573.5" y="-186.5" font-family="Helvetica,sans-Serif" font-size="10.00" fill="#000000">cc26x2_cc13x2_aux.h</text>
</a>
</g>
</g>
<!-- Node0&#45;&gt;Node17 -->
<g id="edge27" class="edge">
<title>Node0&#45;&gt;Node17</title>
<path fill="none" stroke="#191970" d="M1673.9645,-235.4554C1652.3571,-225.464 1624.2102,-212.4487 1603.208,-202.7372"/>
<polygon fill="#191970" stroke="#191970" points="1604.6559,-199.5506 1594.1103,-198.5303 1601.7179,-205.9043 1604.6559,-199.5506"/>
</g>
<!-- Node19 -->
<g id="node20" class="node">
<title>Node19</title>
<g id="a_node20"><a xlink:href="cc26x2__cc13x2__fcfg_8h.html" target="_top" xlink:title="CC26x2, CC13x2 FCFG register definitions. ">
<polygon fill="none" stroke="#000000" points="1649,-179.5 1649,-198.5 1764,-198.5 1764,-179.5 1649,-179.5"/>
<text text-anchor="middle" x="1706.5" y="-186.5" font-family="Helvetica,sans-Serif" font-size="10.00" fill="#000000">cc26x2_cc13x2_fcfg.h</text>
</a>
</g>
</g>
<!-- Node0&#45;&gt;Node19 -->
<g id="edge30" class="edge">
<title>Node0&#45;&gt;Node19</title>
<path fill="none" stroke="#191970" d="M1706.5,-235.2977C1706.5,-227.3834 1706.5,-217.6043 1706.5,-209.0759"/>
<polygon fill="#191970" stroke="#191970" points="1710.0001,-208.8469 1706.5,-198.8469 1703.0001,-208.847 1710.0001,-208.8469"/>
</g>
<!-- Node20 -->
<g id="node21" class="node">
<title>Node20</title>
<g id="a_node21"><a xlink:href="cc26x2__cc13x2__prcm_8h.html" target="_top" xlink:title="CC26x2, CC13x2 PRCM register definitions. ">
<polygon fill="none" stroke="#000000" points="1782.5,-179.5 1782.5,-198.5 1902.5,-198.5 1902.5,-179.5 1782.5,-179.5"/>
<text text-anchor="middle" x="1842.5" y="-186.5" font-family="Helvetica,sans-Serif" font-size="10.00" fill="#000000">cc26x2_cc13x2_prcm.h</text>
</a>
</g>
</g>
<!-- Node0&#45;&gt;Node20 -->
<g id="edge32" class="edge">
<title>Node0&#45;&gt;Node20</title>
<path fill="none" stroke="#191970" d="M1739.7693,-235.4554C1761.8641,-225.464 1790.646,-212.4487 1812.1219,-202.7372"/>
<polygon fill="#191970" stroke="#191970" points="1813.7553,-205.8398 1821.4248,-198.5303 1810.871,-199.4616 1813.7553,-205.8398"/>
</g>
<!-- Node21 -->
<g id="node22" class="node">
<title>Node21</title>
<g id="a_node22"><a xlink:href="cc26x2__cc13x2__setup_8h.html" target="_top" xlink:title="CC26x2/CC13x2 Device setup functions. ">
<polygon fill="none" stroke="#000000" points="1920.5,-179.5 1920.5,-198.5 2042.5,-198.5 2042.5,-179.5 1920.5,-179.5"/>
<text text-anchor="middle" x="1981.5" y="-186.5" font-family="Helvetica,sans-Serif" font-size="10.00" fill="#000000">cc26x2_cc13x2_setup.h</text>
</a>
</g>
</g>
<!-- Node0&#45;&gt;Node21 -->
<g id="edge34" class="edge">
<title>Node0&#45;&gt;Node21</title>
<path fill="none" stroke="#191970" d="M1773.7726,-235.4554C1821.5689,-224.7664 1884.8409,-210.6165 1928.9439,-200.7535"/>
<polygon fill="#191970" stroke="#191970" points="1929.8897,-204.1285 1938.8848,-198.5303 1928.3619,-197.2972 1929.8897,-204.1285"/>
</g>
<!-- Node2 -->
<g id="node3" class="node">
<title>Node2</title>
<polygon fill="none" stroke="#bfbfbf" points="0,-118 0,-137 107,-137 107,-118 0,-118"/>
<text text-anchor="middle" x="53.5" y="-125" font-family="Helvetica,sans-Serif" font-size="10.00" fill="#000000">cpu_conf_common.h</text>
</g>
<!-- Node1&#45;&gt;Node2 -->
<g id="edge2" class="edge">
<title>Node1&#45;&gt;Node2</title>
<path fill="none" stroke="#191970" d="M742.0738,-187.9813C617.2476,-185.3488 346.9074,-175.9934 121.5,-143 114.6579,-141.9985 107.4844,-140.6725 100.4679,-139.2165"/>
<polygon fill="#191970" stroke="#191970" points="100.873,-135.7227 90.3571,-137.0131 99.3825,-142.5622 100.873,-135.7227"/>
</g>
<!-- Node3 -->
<g id="node4" class="node">
<title>Node3</title>
<g id="a_node4"><a xlink:href="cc26xx__cc13xx_8h.html" target="_top" xlink:title="CC26xx, CC13xx definitions. ">
<polygon fill="none" stroke="#000000" points="958,-56.5 958,-75.5 1051,-75.5 1051,-56.5 958,-56.5"/>
<text text-anchor="middle" x="1004.5" y="-63.5" font-family="Helvetica,sans-Serif" font-size="10.00" fill="#000000">cc26xx_cc13xx.h</text>
</a>
</g>
</g>
<!-- Node1&#45;&gt;Node3 -->
<g id="edge3" class="edge">
<title>Node1&#45;&gt;Node3</title>
<path fill="none" stroke="#191970" d="M742.4415,-186.6736C577.7945,-180.7926 174.3354,-164.2728 154.5,-143 145.104,-132.9232 145.0245,-122.0021 154.5,-112 181.7914,-83.1917 761.7806,-70.3411 947.6955,-66.9518"/>
<polygon fill="#191970" stroke="#191970" points="947.8756,-70.4493 957.811,-66.7697 947.7496,-63.4504 947.8756,-70.4493"/>
</g>
<!-- Node6 -->
<g id="node7" class="node">
<title>Node6</title>
<g id="a_node7"><a xlink:href="cc26xx__cc13xx__adi_8h.html" target="_top" xlink:title="CC26xx/CC13xx MCU I/O register definitions. ">
<polygon fill="none" stroke="#000000" points="164,-118 164,-137 275,-137 275,-118 164,-118"/>
<text text-anchor="middle" x="219.5" y="-125" font-family="Helvetica,sans-Serif" font-size="10.00" fill="#000000">cc26xx_cc13xx_adi.h</text>
</a>
</g>
</g>
<!-- Node1&#45;&gt;Node6 -->
<g id="edge6" class="edge">
<title>Node1&#45;&gt;Node6</title>
<path fill="none" stroke="#191970" d="M742.3195,-186.2994C641.0427,-181.5951 446.7225,-169.7189 283.5,-143 277.3547,-141.994 270.9272,-140.7145 264.6157,-139.3232"/>
<polygon fill="#191970" stroke="#191970" points="265.3815,-135.9081 254.8504,-137.0684 263.8066,-142.7286 265.3815,-135.9081"/>
</g>
<!-- Node7 -->
<g id="node8" class="node">
<title>Node7</title>
<g id="a_node8"><a xlink:href="cc26xx__cc13xx__ccfg_8h.html" target="_top" xlink:title="CC26xx/CC13xx CCFG register definitions. ">
<polygon fill="none" stroke="#000000" points="293,-118 293,-137 410,-137 410,-118 293,-118"/>
<text text-anchor="middle" x="351.5" y="-125" font-family="Helvetica,sans-Serif" font-size="10.00" fill="#000000">cc26xx_cc13xx_ccfg.h</text>
</a>
</g>
</g>
<!-- Node1&#45;&gt;Node7 -->
<g id="edge8" class="edge">
<title>Node1&#45;&gt;Node7</title>
<path fill="none" stroke="#191970" d="M742.4912,-183.1608C663.9368,-175.9911 531.9364,-162.354 419.5,-143 413.2352,-141.9216 406.6801,-140.6337 400.2172,-139.2675"/>
<polygon fill="#191970" stroke="#191970" points="400.7091,-135.7924 390.1922,-137.075 399.2135,-142.6307 400.7091,-135.7924"/>
</g>
<!-- Node8 -->
<g id="node9" class="node">
<title>Node8</title>
<g id="a_node9"><a xlink:href="cc26xx__cc13xx__gpio_8h.html" target="_top" xlink:title="Driver for the cc26xx/cc13xx GPIO controller. ">
<polygon fill="none" stroke="#000000" points="428.5,-118 428.5,-137 544.5,-137 544.5,-118 428.5,-118"/>
<text text-anchor="middle" x="486.5" y="-125" font-family="Helvetica,sans-Serif" font-size="10.00" fill="#000000">cc26xx_cc13xx_gpio.h</text>
</a>
</g>
</g>
<!-- Node1&#45;&gt;Node8 -->
<g id="edge10" class="edge">
<title>Node1&#45;&gt;Node8</title>
<path fill="none" stroke="#191970" d="M753.1889,-179.4745C700.7916,-170.7082 621.8095,-156.9816 553.5,-143 547.8052,-141.8344 541.8531,-140.5515 535.9476,-139.2381"/>
<polygon fill="#191970" stroke="#191970" points="536.6321,-135.8046 526.1066,-137.0142 535.0891,-142.6324 536.6321,-135.8046"/>
</g>
<!-- Node9 -->
<g id="node10" class="node">
<title>Node9</title>
<g id="a_node10"><a xlink:href="cc26xx__cc13xx__gpt_8h.html" target="_top" xlink:title="definitions for the CC26xx/CC13XX GPT modules ">
<polygon fill="none" stroke="#000000" points="562.5,-118 562.5,-137 674.5,-137 674.5,-118 562.5,-118"/>
<text text-anchor="middle" x="618.5" y="-125" font-family="Helvetica,sans-Serif" font-size="10.00" fill="#000000">cc26xx_cc13xx_gpt.h</text>
</a>
</g>
</g>
<!-- Node1&#45;&gt;Node9 -->
<g id="edge12" class="edge">
<title>Node1&#45;&gt;Node9</title>
<path fill="none" stroke="#191970" d="M781.3438,-179.3906C748.2015,-168.8298 694.8238,-151.8208 658.2758,-140.1747"/>
<polygon fill="#191970" stroke="#191970" points="659.0351,-136.7433 648.4445,-137.0419 656.9098,-143.4129 659.0351,-136.7433"/>
</g>
<!-- Node10 -->
<g id="node11" class="node">
<title>Node10</title>
<g id="a_node11"><a xlink:href="cc26xx__cc13xx__hard__api_8h.html" target="_top" xlink:title="CC26xx/CC13xx ROM Hard&#45;API. ">
<polygon fill="none" stroke="#000000" points="693,-112.5 693,-142.5 802,-142.5 802,-112.5 693,-112.5"/>
<text text-anchor="start" x="701" y="-130.5" font-family="Helvetica,sans-Serif" font-size="10.00" fill="#000000">cc26xx_cc13xx_hard</text>
<text text-anchor="middle" x="747.5" y="-119.5" font-family="Helvetica,sans-Serif" font-size="10.00" fill="#000000">_api.h</text>
</a>
</g>
</g>
<!-- Node1&#45;&gt;Node10 -->
<g id="edge14" class="edge">
<title>Node1&#45;&gt;Node10</title>
<path fill="none" stroke="#191970" d="M801.5,-179.3906C793.2394,-171.4527 781.1878,-159.8718 770.5645,-149.6635"/>
<polygon fill="#191970" stroke="#191970" points="772.7918,-146.9498 763.1562,-142.5446 767.9416,-151.9971 772.7918,-146.9498"/>
</g>
<!-- Node11 -->
<g id="node12" class="node">
<title>Node11</title>
<g id="a_node12"><a xlink:href="cc26xx__cc13xx__i2c_8h.html" target="_top" xlink:title="CC26xx/CC13xx MCU I/O register definitions. ">
<polygon fill="none" stroke="#000000" points="820,-118 820,-137 931,-137 931,-118 820,-118"/>
<text text-anchor="middle" x="875.5" y="-125" font-family="Helvetica,sans-Serif" font-size="10.00" fill="#000000">cc26xx_cc13xx_i2c.h</text>
</a>
</g>
</g>
<!-- Node1&#45;&gt;Node11 -->
<g id="edge16" class="edge">
<title>Node1&#45;&gt;Node11</title>
<path fill="none" stroke="#191970" d="M821.5,-179.3906C831.2119,-170.0581 846.1639,-155.6902 857.8741,-144.4374"/>
<polygon fill="#191970" stroke="#191970" points="860.5736,-146.6974 865.359,-137.2449 855.7234,-141.65 860.5736,-146.6974"/>
</g>
<!-- Node12 -->
<g id="node13" class="node">
<title>Node12</title>
<g id="a_node13"><a xlink:href="cc26xx__cc13xx__ioc_8h.html" target="_top" xlink:title="CC26xx/CC13xx MCU I/O register definitions. ">
<polygon fill="none" stroke="#000000" points="949,-118 949,-137 1060,-137 1060,-118 949,-118"/>
<text text-anchor="middle" x="1004.5" y="-125" font-family="Helvetica,sans-Serif" font-size="10.00" fill="#000000">cc26xx_cc13xx_ioc.h</text>
</a>
</g>
</g>
<!-- Node1&#45;&gt;Node12 -->
<g id="edge18" class="edge">
<title>Node1&#45;&gt;Node12</title>
<path fill="none" stroke="#191970" d="M841.6563,-179.3906C874.7985,-168.8298 928.1762,-151.8208 964.7242,-140.1747"/>
<polygon fill="#191970" stroke="#191970" points="966.0902,-143.4129 974.5555,-137.0419 963.9649,-136.7433 966.0902,-143.4129"/>
</g>
<!-- Node13 -->
<g id="node14" class="node">
<title>Node13</title>
<g id="a_node14"><a xlink:href="cc26xx__cc13xx__rfc_8h.html" target="_top" xlink:title="CC26xx/CC13xx MCU I/O register definitions. ">
<polygon fill="none" stroke="#000000" points="1078.5,-118 1078.5,-137 1188.5,-137 1188.5,-118 1078.5,-118"/>
<text text-anchor="middle" x="1133.5" y="-125" font-family="Helvetica,sans-Serif" font-size="10.00" fill="#000000">cc26xx_cc13xx_rfc.h</text>
</a>
</g>
</g>
<!-- Node1&#45;&gt;Node13 -->
<g id="edge20" class="edge">
<title>Node1&#45;&gt;Node13</title>
<path fill="none" stroke="#191970" d="M870.1182,-179.4858C922.3279,-170.7792 1000.7211,-157.1352 1068.5,-143 1073.8945,-141.875 1079.5249,-140.6338 1085.118,-139.3584"/>
<polygon fill="#191970" stroke="#191970" points="1086.1373,-142.7149 1095.0862,-137.0432 1084.5536,-135.8964 1086.1373,-142.7149"/>
</g>
<!-- Node14 -->
<g id="node15" class="node">
<title>Node14</title>
<g id="a_node15"><a xlink:href="cc26xx__cc13xx__uart_8h.html" target="_top" xlink:title="CC26xx/CC13xx UART interface. ">
<polygon fill="none" stroke="#000000" points="1207,-118 1207,-137 1322,-137 1322,-118 1207,-118"/>
<text text-anchor="middle" x="1264.5" y="-125" font-family="Helvetica,sans-Serif" font-size="10.00" fill="#000000">cc26xx_cc13xx_uart.h</text>
</a>
</g>
</g>
<!-- Node1&#45;&gt;Node14 -->
<g id="edge22" class="edge">
<title>Node1&#45;&gt;Node14</title>
<path fill="none" stroke="#191970" d="M880.5103,-183.0584C957.9926,-175.8585 1087.3079,-162.2532 1197.5,-143 1203.6745,-141.9212 1210.1343,-140.6329 1216.5028,-139.2666"/>
<polygon fill="#191970" stroke="#191970" points="1217.377,-142.6578 1226.3809,-137.074 1215.8601,-135.8241 1217.377,-142.6578"/>
</g>
<!-- Node15 -->
<g id="node16" class="node">
<title>Node15</title>
<g id="a_node16"><a xlink:href="cc26xx__cc13xx__vims_8h.html" target="_top" xlink:title="CC26xx/CC13xx VIMS register definitions. ">
<polygon fill="none" stroke="#000000" points="1340,-118 1340,-137 1459,-137 1459,-118 1340,-118"/>
<text text-anchor="middle" x="1399.5" y="-125" font-family="Helvetica,sans-Serif" font-size="10.00" fill="#000000">cc26xx_cc13xx_vims.h</text>
</a>
</g>
</g>
<!-- Node1&#45;&gt;Node15 -->
<g id="edge24" class="edge">
<title>Node1&#45;&gt;Node15</title>
<path fill="none" stroke="#191970" d="M880.6939,-185.7894C980.5161,-180.4967 1170.5146,-167.9467 1330.5,-143 1337.265,-141.9451 1344.3569,-140.6143 1351.3122,-139.1779"/>
<polygon fill="#191970" stroke="#191970" points="1352.3111,-142.5431 1361.3509,-137.0175 1350.8383,-135.6998 1352.3111,-142.5431"/>
</g>
<!-- Node16 -->
<g id="node17" class="node">
<title>Node16</title>
<g id="a_node17"><a xlink:href="cc26xx__cc13xx__wdt_8h.html" target="_top" xlink:title="CC26xx/CC13xx WDT register definitions. ">
<polygon fill="none" stroke="#000000" points="1477.5,-118 1477.5,-137 1591.5,-137 1591.5,-118 1477.5,-118"/>
<text text-anchor="middle" x="1534.5" y="-125" font-family="Helvetica,sans-Serif" font-size="10.00" fill="#000000">cc26xx_cc13xx_wdt.h</text>
</a>
</g>
</g>
<!-- Node1&#45;&gt;Node16 -->
<g id="edge25" class="edge">
<title>Node1&#45;&gt;Node16</title>
<path fill="none" stroke="#191970" d="M880.9524,-187.7998C1001.2639,-184.9059 1255.9605,-175.1841 1468.5,-143 1475.1461,-141.9936 1482.1114,-140.6649 1488.9229,-139.2077"/>
<polygon fill="#191970" stroke="#191970" points="1489.7473,-142.6098 1498.7373,-137.0034 1488.2133,-135.7799 1489.7473,-142.6098"/>
</g>
<!-- Node4 -->
<g id="node5" class="node">
<title>Node4</title>
<polygon fill="none" stroke="#bfbfbf" points="942,-.5 942,-19.5 991,-19.5 991,-.5 942,-.5"/>
<text text-anchor="middle" x="966.5" y="-7.5" font-family="Helvetica,sans-Serif" font-size="10.00" fill="#000000">stdint.h</text>
</g>
<!-- Node3&#45;&gt;Node4 -->
<g id="edge4" class="edge">
<title>Node3&#45;&gt;Node4</title>
<path fill="none" stroke="#191970" d="M997.8809,-56.2455C992.5954,-48.4564 985.0459,-37.3308 978.6762,-27.9439"/>
<polygon fill="#191970" stroke="#191970" points="981.5545,-25.9522 973.0432,-19.6427 975.7621,-29.8827 981.5545,-25.9522"/>
</g>
<!-- Node5 -->
<g id="node6" class="node">
<title>Node5</title>
<polygon fill="none" stroke="#bfbfbf" points="1009.5,-.5 1009.5,-19.5 1077.5,-19.5 1077.5,-.5 1009.5,-.5"/>
<text text-anchor="middle" x="1043.5" y="-7.5" font-family="Helvetica,sans-Serif" font-size="10.00" fill="#000000">core_cm3.h</text>
</g>
<!-- Node3&#45;&gt;Node5 -->
<g id="edge5" class="edge">
<title>Node3&#45;&gt;Node5</title>
<path fill="none" stroke="#191970" d="M1011.2933,-56.2455C1016.7178,-48.4564 1024.4661,-37.3308 1031.0033,-27.9439"/>
<polygon fill="#191970" stroke="#191970" points="1033.9417,-29.849 1036.7846,-19.6427 1028.1975,-25.8485 1033.9417,-29.849"/>
</g>
<!-- Node6&#45;&gt;Node3 -->
<g id="edge7" class="edge">
<title>Node6&#45;&gt;Node3</title>
<path fill="none" stroke="#191970" d="M254.1585,-117.9439C263.6095,-115.6573 273.8926,-113.4585 283.5,-112 411.2614,-92.6041 800.4634,-74.6299 947.4662,-68.3547"/>
<polygon fill="#191970" stroke="#191970" points="947.7824,-71.8446 957.6249,-67.9233 947.4853,-64.8509 947.7824,-71.8446"/>
</g>
<!-- Node7&#45;&gt;Node3 -->
<g id="edge9" class="edge">
<title>Node7&#45;&gt;Node3</title>
<path fill="none" stroke="#191970" d="M388.724,-117.9873C398.6675,-115.7287 409.4452,-113.5329 419.5,-112 611.9967,-82.6526 843.1539,-71.4856 947.9358,-67.7108"/>
<polygon fill="#191970" stroke="#191970" points="948.106,-71.207 957.9769,-67.3578 947.8601,-64.2113 948.106,-71.207"/>
</g>
<!-- Node8&#45;&gt;Node3 -->
<g id="edge11" class="edge">
<title>Node8&#45;&gt;Node3</title>
<path fill="none" stroke="#191970" d="M523.896,-117.974C533.497,-115.7696 543.842,-113.6032 553.5,-112 694.3255,-88.6238 861.9921,-75.2809 947.7745,-69.4884"/>
<polygon fill="#191970" stroke="#191970" points="948.0772,-72.976 957.8225,-68.8192 947.612,-65.9915 948.0772,-72.976"/>
</g>
<!-- Node9&#45;&gt;Node3 -->
<g id="edge13" class="edge">
<title>Node9&#45;&gt;Node3</title>
<path fill="none" stroke="#191970" d="M655.839,-117.9764C664.8605,-115.8473 674.497,-113.7148 683.5,-112 775.499,-94.4773 883.4768,-80.3039 947.8206,-72.5259"/>
<polygon fill="#191970" stroke="#191970" points="948.2518,-75.9994 957.7636,-71.333 947.4178,-69.0492 948.2518,-75.9994"/>
</g>
<!-- Node10&#45;&gt;Node3 -->
<g id="edge15" class="edge">
<title>Node10&#45;&gt;Node3</title>
<path fill="none" stroke="#191970" d="M802.1289,-114.0297C804.9594,-113.3411 807.7628,-112.6612 810.5,-112 859.2498,-100.2236 914.9599,-87.0426 954.1362,-77.8192"/>
<polygon fill="#191970" stroke="#191970" points="955.0431,-81.2015 963.9757,-75.504 953.4398,-74.3875 955.0431,-81.2015"/>
</g>
<!-- Node11&#45;&gt;Node3 -->
<g id="edge17" class="edge">
<title>Node11&#45;&gt;Node3</title>
<path fill="none" stroke="#191970" d="M895.6563,-117.8906C917.051,-107.6908 951.062,-91.4763 975.3702,-79.8875"/>
<polygon fill="#191970" stroke="#191970" points="976.9648,-83.0047 984.4853,-75.5419 973.9524,-76.686 976.9648,-83.0047"/>
</g>
<!-- Node12&#45;&gt;Node3 -->
<g id="edge19" class="edge">
<title>Node12&#45;&gt;Node3</title>
<path fill="none" stroke="#191970" d="M1004.5,-117.8906C1004.5,-109.3657 1004.5,-96.6392 1004.5,-85.9235"/>
<polygon fill="#191970" stroke="#191970" points="1008.0001,-85.7448 1004.5,-75.7449 1001.0001,-85.7449 1008.0001,-85.7448"/>
</g>
<!-- Node13&#45;&gt;Node3 -->
<g id="edge21" class="edge">
<title>Node13&#45;&gt;Node3</title>
<path fill="none" stroke="#191970" d="M1113.3438,-117.8906C1091.949,-107.6908 1057.938,-91.4763 1033.6298,-79.8875"/>
<polygon fill="#191970" stroke="#191970" points="1035.0476,-76.686 1024.5147,-75.5419 1032.0352,-83.0047 1035.0476,-76.686"/>
</g>
<!-- Node14&#45;&gt;Node3 -->
<g id="edge23" class="edge">
<title>Node14&#45;&gt;Node3</title>
<path fill="none" stroke="#191970" d="M1224.1603,-117.9581C1178.5232,-107.1632 1104.143,-89.5694 1054.766,-77.8899"/>
<polygon fill="#191970" stroke="#191970" points="1055.4715,-74.4602 1044.9344,-75.5643 1053.8602,-81.2722 1055.4715,-74.4602"/>
</g>
<!-- Node16&#45;&gt;Node3 -->
<g id="edge26" class="edge">
<title>Node16&#45;&gt;Node3</title>
<path fill="none" stroke="#191970" d="M1497.6719,-117.9458C1488.2139,-115.7419 1478.0208,-113.5828 1468.5,-112 1322.7471,-87.7688 1148.9616,-74.7066 1061.2092,-69.2046"/>
<polygon fill="#191970" stroke="#191970" points="1061.3943,-65.7095 1051.1976,-68.5864 1060.9628,-72.6962 1061.3943,-65.7095"/>
</g>
<!-- Node17&#45;&gt;Node3 -->
<g id="edge29" class="edge">
<title>Node17&#45;&gt;Node3</title>
<path fill="none" stroke="#191970" d="M1582.2492,-179.4705C1595.7945,-163.5649 1618.4965,-131.439 1600.5,-112 1582.319,-92.3617 1206.3969,-74.5022 1061.1153,-68.3077"/>
<polygon fill="#191970" stroke="#191970" points="1061.2008,-64.8082 1051.0617,-67.882 1060.9046,-71.802 1061.2008,-64.8082"/>
</g>
<!-- Node18 -->
<g id="node19" class="node">
<title>Node18</title>
<polygon fill="none" stroke="#bfbfbf" points="1647.5,-118 1647.5,-137 1703.5,-137 1703.5,-118 1647.5,-118"/>
<text text-anchor="middle" x="1675.5" y="-125" font-family="Helvetica,sans-Serif" font-size="10.00" fill="#000000">stdbool.h</text>
</g>
<!-- Node17&#45;&gt;Node18 -->
<g id="edge28" class="edge">
<title>Node17&#45;&gt;Node18</title>
<path fill="none" stroke="#191970" d="M1589.4375,-179.3906C1605.9051,-169.4616 1631.8258,-153.833 1650.9204,-142.3201"/>
<polygon fill="#191970" stroke="#191970" points="1652.9178,-145.2027 1659.6744,-137.0419 1649.3034,-139.2081 1652.9178,-145.2027"/>
</g>
<!-- Node19&#45;&gt;Node3 -->
<g id="edge31" class="edge">
<title>Node19&#45;&gt;Node3</title>
<path fill="none" stroke="#191970" d="M1711.1937,-179.481C1718.4215,-163.2982 1729.7373,-130.3936 1712.5,-112 1690.3373,-88.3506 1225.9145,-72.4915 1061.5382,-67.6014"/>
<polygon fill="#191970" stroke="#191970" points="1061.2516,-64.0915 1051.1528,-67.2952 1061.0453,-71.0885 1061.2516,-64.0915"/>
</g>
<!-- Node20&#45;&gt;Node3 -->
<g id="edge33" class="edge">
<title>Node20&#45;&gt;Node3</title>
<path fill="none" stroke="#191970" d="M1832.7437,-179.4761C1814.4765,-162.339 1773.0966,-126.7229 1730.5,-112 1667.9384,-90.3765 1220.951,-73.3194 1061.1332,-67.8514"/>
<polygon fill="#191970" stroke="#191970" points="1061.1418,-64.3498 1051.0287,-67.5081 1060.904,-71.3457 1061.1418,-64.3498"/>
</g>
<!-- Node21&#45;&gt;Node3 -->
<g id="edge35" class="edge">
<title>Node21&#45;&gt;Node3</title>
<path fill="none" stroke="#191970" d="M1961.5143,-179.4243C1924.8429,-162.3692 1843.9156,-127.1076 1771.5,-112 1635.7875,-83.6872 1214.8418,-71.0262 1061.2926,-67.265"/>
<polygon fill="#191970" stroke="#191970" points="1061.2201,-63.7623 1051.1385,-67.0198 1061.051,-70.7603 1061.2201,-63.7623"/>
</g>
</g>
</svg>
