<?xml version="1.0" encoding="UTF-8" standalone="no"?>
<!DOCTYPE svg PUBLIC "-//W3C//DTD SVG 1.1//EN"
 "http://www.w3.org/Graphics/SVG/1.1/DTD/svg11.dtd">
<!-- Generated by graphviz version 2.43.0 (0)
 -->
<!-- Title: cpu/cc26xx_cc13xx/include/cc26xx_cc13xx_hard_api.h Pages: 1 -->
<svg width="161pt" height="151pt"
 viewBox="0.00 0.00 160.50 151.00" xmlns="http://www.w3.org/2000/svg" xmlns:xlink="http://www.w3.org/1999/xlink">
<g id="graph0" class="graph" transform="scale(1 1) rotate(0) translate(4 147)">
<title>cpu/cc26xx_cc13xx/include/cc26xx_cc13xx_hard_api.h</title>
<!-- Node1 -->
<g id="node1" class="node">
<title>Node1</title>
<g id="a_node1"><a xlink:title="CC26xx/CC13xx ROM Hard&#45;API.">
<polygon fill="#bfbfbf" stroke="black" points="0,-112.5 0,-142.5 150,-142.5 150,-112.5 0,-112.5"/>
<text text-anchor="start" x="8" y="-130.5" font-family="Helvetica,sans-Serif" font-size="10.00">cpu/cc26xx_cc13xx/include</text>
<text text-anchor="middle" x="75" y="-119.5" font-family="Helvetica,sans-Serif" font-size="10.00">/cc26xx_cc13xx_hard_api.h</text>
</a>
</g>
</g>
<!-- Node2 -->
<g id="node2" class="node">
<title>Node2</title>
<g id="a_node2"><a xlink:href="cc26xx__cc13xx_8h.html" target="_top" xlink:title="CC26xx, CC13xx definitions.">
<polygon fill="none" stroke="black" points="25,-56.5 25,-75.5 125,-75.5 125,-56.5 25,-56.5"/>
<text text-anchor="middle" x="75" y="-63.5" font-family="Helvetica,sans-Serif" font-size="10.00">cc26xx_cc13xx.h</text>
</a>
</g>
</g>
<!-- Node1&#45;&gt;Node2 -->
<g id="edge1" class="edge">
<title>Node1&#45;&gt;Node2</title>
<path fill="none" stroke="midnightblue" d="M75,-112.4C75,-104.47 75,-94.46 75,-85.86"/>
<polygon fill="midnightblue" stroke="midnightblue" points="78.5,-85.66 75,-75.66 71.5,-85.66 78.5,-85.66"/>
</g>
<!-- Node3 -->
<g id="node3" class="node">
<title>Node3</title>
<g id="a_node3"><a xlink:title=" ">
<polygon fill="none" stroke="#bfbfbf" points="8.5,-0.5 8.5,-19.5 61.5,-19.5 61.5,-0.5 8.5,-0.5"/>
<text text-anchor="middle" x="35" y="-7.5" font-family="Helvetica,sans-Serif" font-size="10.00">stdint.h</text>
</a>
</g>
</g>
<!-- Node2&#45;&gt;Node3 -->
<g id="edge2" class="edge">
<title>Node2&#45;&gt;Node3</title>
<path fill="none" stroke="midnightblue" d="M68.39,-56.08C62.74,-48.46 54.46,-37.26 47.55,-27.94"/>
<polygon fill="midnightblue" stroke="midnightblue" points="50.25,-25.7 41.48,-19.75 44.62,-29.87 50.25,-25.7"/>
</g>
<!-- Node4 -->
<g id="node4" class="node">
<title>Node4</title>
<g id="a_node4"><a xlink:title=" ">
<polygon fill="none" stroke="#bfbfbf" points="79.5,-0.5 79.5,-19.5 152.5,-19.5 152.5,-0.5 79.5,-0.5"/>
<text text-anchor="middle" x="116" y="-7.5" font-family="Helvetica,sans-Serif" font-size="10.00">core_cm3.h</text>
</a>
</g>
</g>
<!-- Node2&#45;&gt;Node4 -->
<g id="edge3" class="edge">
<title>Node2&#45;&gt;Node4</title>
<path fill="none" stroke="midnightblue" d="M81.77,-56.08C87.56,-48.46 96.06,-37.26 103.14,-27.94"/>
<polygon fill="midnightblue" stroke="midnightblue" points="106.1,-29.83 109.36,-19.75 100.52,-25.6 106.1,-29.83"/>
</g>
</g>
</svg>
