<?xml version="1.0" encoding="UTF-8" standalone="no"?>
<!DOCTYPE svg PUBLIC "-//W3C//DTD SVG 1.1//EN"
 "http://www.w3.org/Graphics/SVG/1.1/DTD/svg11.dtd">
<!-- Generated by graphviz version 2.40.1 (20161225.0304)
 -->
<!-- Title: cpu/cc26xx_cc13xx/include/cc26xx_cc13xx.h Pages: 1 -->
<svg width="2280pt" height="240pt"
 viewBox="0.00 0.00 2280.00 240.00" xmlns="http://www.w3.org/2000/svg" xmlns:xlink="http://www.w3.org/1999/xlink">
<g id="graph0" class="graph" transform="scale(1 1) rotate(0) translate(4 236)">
<title>cpu/cc26xx_cc13xx/include/cc26xx_cc13xx.h</title>
<!-- Node3 -->
<g id="node1" class="node">
<title>Node3</title>
<polygon fill="#bfbfbf" stroke="#000000" points="1147,-201.5 1147,-231.5 1284,-231.5 1284,-201.5 1147,-201.5"/>
<text text-anchor="start" x="1155" y="-219.5" font-family="Helvetica,sans-Serif" font-size="10.00" fill="#000000">cpu/cc26xx_cc13xx/include</text>
<text text-anchor="middle" x="1215.5" y="-208.5" font-family="Helvetica,sans-Serif" font-size="10.00" fill="#000000">/cc26xx_cc13xx.h</text>
</g>
<!-- Node4 -->
<g id="node2" class="node">
<title>Node4</title>
<g id="a_node2"><a xlink:href="cc26x0__aux_8h.html" target="_top" xlink:title="CC26x0 AUX register definitions. ">
<polygon fill="none" stroke="#000000" points="119,-67.5 119,-97.5 220,-97.5 220,-67.5 119,-67.5"/>
<text text-anchor="start" x="127" y="-85.5" font-family="Helvetica,sans-Serif" font-size="10.00" fill="#000000">cpu/cc26x0/include</text>
<text text-anchor="middle" x="169.5" y="-74.5" font-family="Helvetica,sans-Serif" font-size="10.00" fill="#000000">/cc26x0_aux.h</text>
</a>
</g>
</g>
<!-- Node3&#45;&gt;Node4 -->
<g id="edge1" class="edge">
<title>Node3&#45;&gt;Node4</title>
<path fill="none" stroke="#191970" d="M1136.6463,-214.9613C903.703,-210.0954 232.565,-193.6461 195.5,-165 174.8249,-149.021 170.2437,-116.6505 169.4301,-97.5526"/>
<polygon fill="#191970" stroke="#191970" points="1136.6707,-218.4624 1146.7412,-215.1706 1136.8159,-211.4639 1136.6707,-218.4624"/>
</g>
<!-- Node6 -->
<g id="node4" class="node">
<title>Node6</title>
<g id="a_node4"><a xlink:href="cc26x0__fcfg_8h.html" target="_top" xlink:title="CC26x0 FCFG register definitions. ">
<polygon fill="none" stroke="#000000" points="238,-67.5 238,-97.5 339,-97.5 339,-67.5 238,-67.5"/>
<text text-anchor="start" x="246" y="-85.5" font-family="Helvetica,sans-Serif" font-size="10.00" fill="#000000">cpu/cc26x0/include</text>
<text text-anchor="middle" x="288.5" y="-74.5" font-family="Helvetica,sans-Serif" font-size="10.00" fill="#000000">/cc26x0_fcfg.h</text>
</a>
</g>
</g>
<!-- Node3&#45;&gt;Node6 -->
<g id="edge3" class="edge">
<title>Node3&#45;&gt;Node6</title>
<path fill="none" stroke="#191970" d="M1136.5804,-215.4092C904.3262,-211.8165 237.4355,-198.6054 205.5,-165 182.6169,-140.9203 222.8192,-113.9468 254.8593,-97.598"/>
<polygon fill="#191970" stroke="#191970" points="1136.5946,-218.9097 1146.6469,-215.5631 1136.7016,-211.9106 1136.5946,-218.9097"/>
</g>
<!-- Node7 -->
<g id="node5" class="node">
<title>Node7</title>
<g id="a_node5"><a xlink:href="cc26x0__prcm_8h.html" target="_top" xlink:title="CC26x0 PRCM register definitions. ">
<polygon fill="none" stroke="#000000" points="0,-67.5 0,-97.5 101,-97.5 101,-67.5 0,-67.5"/>
<text text-anchor="start" x="8" y="-85.5" font-family="Helvetica,sans-Serif" font-size="10.00" fill="#000000">cpu/cc26x0/include</text>
<text text-anchor="middle" x="50.5" y="-74.5" font-family="Helvetica,sans-Serif" font-size="10.00" fill="#000000">/cc26x0_prcm.h</text>
</a>
</g>
</g>
<!-- Node3&#45;&gt;Node7 -->
<g id="edge5" class="edge">
<title>Node3&#45;&gt;Node7</title>
<path fill="none" stroke="#191970" d="M1136.5937,-215.0518C909.1985,-210.536 262.9584,-195.1744 172.5,-165 130.0539,-150.8412 88.6289,-117.4878 66.6641,-97.7989"/>
<polygon fill="#191970" stroke="#191970" points="1136.7111,-218.5547 1146.7781,-215.2523 1136.8489,-211.556 1136.7111,-218.5547"/>
</g>
<!-- Node8 -->
<g id="node6" class="node">
<title>Node8</title>
<g id="a_node6"><a xlink:href="cc26x2__cc13x2__aux_8h.html" target="_top" xlink:title="CC26x2, CC13x2 AUX register definitions. ">
<polygon fill="none" stroke="#000000" points="1670,-67.5 1670,-97.5 1807,-97.5 1807,-67.5 1670,-67.5"/>
<text text-anchor="start" x="1678" y="-85.5" font-family="Helvetica,sans-Serif" font-size="10.00" fill="#000000">cpu/cc26x2_cc13x2/include</text>
<text text-anchor="middle" x="1738.5" y="-74.5" font-family="Helvetica,sans-Serif" font-size="10.00" fill="#000000">/cc26x2_cc13x2_aux.h</text>
</a>
</g>
</g>
<!-- Node3&#45;&gt;Node8 -->
<g id="edge7" class="edge">
<title>Node3&#45;&gt;Node8</title>
<path fill="none" stroke="#191970" d="M1294.291,-215.3119C1445.4432,-212.2117 1764.1904,-201.3873 1797.5,-165 1817.356,-143.3094 1786.1985,-114.8102 1762.1345,-97.616"/>
<polygon fill="#191970" stroke="#191970" points="1294.0713,-211.8155 1284.1428,-215.5136 1294.2104,-218.8141 1294.0713,-211.8155"/>
</g>
<!-- Node10 -->
<g id="node8" class="node">
<title>Node10</title>
<g id="a_node8"><a xlink:href="cc26x2__cc13x2__fcfg_8h.html" target="_top" xlink:title="CC26x2, CC13x2 FCFG register definitions. ">
<polygon fill="none" stroke="#000000" points="1825,-67.5 1825,-97.5 1962,-97.5 1962,-67.5 1825,-67.5"/>
<text text-anchor="start" x="1833" y="-85.5" font-family="Helvetica,sans-Serif" font-size="10.00" fill="#000000">cpu/cc26x2_cc13x2/include</text>
<text text-anchor="middle" x="1893.5" y="-74.5" font-family="Helvetica,sans-Serif" font-size="10.00" fill="#000000">/cc26x2_cc13x2_fcfg.h</text>
</a>
</g>
</g>
<!-- Node3&#45;&gt;Node10 -->
<g id="edge9" class="edge">
<title>Node3&#45;&gt;Node10</title>
<path fill="none" stroke="#191970" d="M1294.3102,-214.1425C1486.9827,-207.9969 1967.9206,-190.1962 1991.5,-165 2015.8143,-139.0185 1971.4545,-113.2873 1934.7654,-97.6426"/>
<polygon fill="#191970" stroke="#191970" points="1294.1332,-210.6462 1284.2491,-214.4612 1294.3549,-217.6427 1294.1332,-210.6462"/>
</g>
<!-- Node11 -->
<g id="node9" class="node">
<title>Node11</title>
<g id="a_node9"><a xlink:href="cc26x2__cc13x2__prcm_8h.html" target="_top" xlink:title="CC26x2, CC13x2 PRCM register definitions. ">
<polygon fill="none" stroke="#000000" points="1980,-67.5 1980,-97.5 2117,-97.5 2117,-67.5 1980,-67.5"/>
<text text-anchor="start" x="1988" y="-85.5" font-family="Helvetica,sans-Serif" font-size="10.00" fill="#000000">cpu/cc26x2_cc13x2/include</text>
<text text-anchor="middle" x="2048.5" y="-74.5" font-family="Helvetica,sans-Serif" font-size="10.00" fill="#000000">/cc26x2_cc13x2_prcm.h</text>
</a>
</g>
</g>
<!-- Node3&#45;&gt;Node11 -->
<g id="edge11" class="edge">
<title>Node3&#45;&gt;Node11</title>
<path fill="none" stroke="#191970" d="M1294.1685,-215.8372C1482.9253,-213.6217 1950.2224,-204.1974 2008.5,-165 2031.4819,-149.5424 2041.7018,-116.9845 2045.891,-97.7131"/>
<polygon fill="#191970" stroke="#191970" points="1293.9966,-212.3389 1284.037,-215.9523 1294.0762,-219.3384 1293.9966,-212.3389"/>
</g>
<!-- Node12 -->
<g id="node10" class="node">
<title>Node12</title>
<g id="a_node10"><a xlink:href="cc26x2__cc13x2__setup_8h.html" target="_top" xlink:title="CC26x2/CC13x2 Device setup functions. ">
<polygon fill="none" stroke="#000000" points="2135,-67.5 2135,-97.5 2272,-97.5 2272,-67.5 2135,-67.5"/>
<text text-anchor="start" x="2143" y="-85.5" font-family="Helvetica,sans-Serif" font-size="10.00" fill="#000000">cpu/cc26x2_cc13x2/include</text>
<text text-anchor="middle" x="2203.5" y="-74.5" font-family="Helvetica,sans-Serif" font-size="10.00" fill="#000000">/cc26x2_cc13x2_setup.h</text>
</a>
</g>
</g>
<!-- Node3&#45;&gt;Node12 -->
<g id="edge13" class="edge">
<title>Node3&#45;&gt;Node12</title>
<path fill="none" stroke="#191970" d="M1294.2156,-215.4456C1471.2823,-212.444 1896.2625,-201.5474 2034.5,-165 2089.7389,-150.3959 2148.4296,-117.206 2180.0397,-97.6652"/>
<polygon fill="#191970" stroke="#191970" points="1294.1285,-211.9464 1284.1878,-215.6116 1294.2444,-218.9455 1294.1285,-211.9464"/>
</g>
<!-- Node13 -->
<g id="node11" class="node">
<title>Node13</title>
<g id="a_node11"><a xlink:href="cc26xx__cc13xx__adi_8h.html" target="_top" xlink:title="CC26xx/CC13xx MCU I/O register definitions. ">
<polygon fill="none" stroke="#000000" points="1302,-134.5 1302,-164.5 1439,-164.5 1439,-134.5 1302,-134.5"/>
<text text-anchor="start" x="1310" y="-152.5" font-family="Helvetica,sans-Serif" font-size="10.00" fill="#000000">cpu/cc26xx_cc13xx/include</text>
<text text-anchor="middle" x="1370.5" y="-141.5" font-family="Helvetica,sans-Serif" font-size="10.00" fill="#000000">/cc26xx_cc13xx_adi.h</text>
</a>
</g>
</g>
<!-- Node3&#45;&gt;Node13 -->
<g id="edge15" class="edge">
<title>Node3&#45;&gt;Node13</title>
<path fill="none" stroke="#191970" d="M1259.5672,-197.4516C1283.6556,-187.0392 1313.075,-174.3224 1335.5633,-164.6017"/>
<polygon fill="#191970" stroke="#191970" points="1258.0754,-194.2834 1250.285,-201.4639 1260.8529,-200.7088 1258.0754,-194.2834"/>
</g>
<!-- Node14 -->
<g id="node12" class="node">
<title>Node14</title>
<g id="a_node12"><a xlink:href="cpu__conf__cc26xx__cc13xx_8h.html" target="_top" xlink:title="Implementation specific CPU configuration options. ">
<polygon fill="none" stroke="#000000" points="990,-67.5 990,-97.5 1131,-97.5 1131,-67.5 990,-67.5"/>
<text text-anchor="start" x="998" y="-85.5" font-family="Helvetica,sans-Serif" font-size="10.00" fill="#000000">cpu/cc26xx_cc13xx/include</text>
<text text-anchor="middle" x="1060.5" y="-74.5" font-family="Helvetica,sans-Serif" font-size="10.00" fill="#000000">/cpu_conf_cc26xx_cc13xx.h</text>
</a>
</g>
</g>
<!-- Node3&#45;&gt;Node14 -->
<g id="edge38" class="edge">
<title>Node3&#45;&gt;Node14</title>
<path fill="none" stroke="#191970" d="M1294.4528,-209.524C1354.248,-202.4128 1429.2807,-188.9312 1448.5,-165 1457.1272,-154.2577 1457.5788,-144.3635 1448.5,-134 1427.9587,-110.552 1237.5117,-94.2583 1131.2889,-86.9101"/>
<polygon fill="#191970" stroke="#191970" points="1293.7779,-206.0784 1284.2418,-210.695 1294.5755,-213.0328 1293.7779,-206.0784"/>
</g>
<!-- Node15 -->
<g id="node13" class="node">
<title>Node15</title>
<g id="a_node13"><a xlink:href="cc26xx__cc13xx__ccfg_8h.html" target="_top" xlink:title="CC26xx/CC13xx CCFG register definitions. ">
<polygon fill="none" stroke="#000000" points="1496,-134.5 1496,-164.5 1633,-164.5 1633,-134.5 1496,-134.5"/>
<text text-anchor="start" x="1504" y="-152.5" font-family="Helvetica,sans-Serif" font-size="10.00" fill="#000000">cpu/cc26xx_cc13xx/include</text>
<text text-anchor="middle" x="1564.5" y="-141.5" font-family="Helvetica,sans-Serif" font-size="10.00" fill="#000000">/cc26xx_cc13xx_ccfg.h</text>
</a>
</g>
</g>
<!-- Node3&#45;&gt;Node15 -->
<g id="edge19" class="edge">
<title>Node3&#45;&gt;Node15</title>
<path fill="none" stroke="#191970" d="M1293.9488,-201.4396C1354.6125,-189.7936 1437.7721,-173.8289 1495.8242,-162.6842"/>
<polygon fill="#191970" stroke="#191970" points="1293.1955,-198.0202 1284.0348,-203.3429 1294.5153,-204.8947 1293.1955,-198.0202"/>
</g>
<!-- Node16 -->
<g id="node14" class="node">
<title>Node16</title>
<g id="a_node14"><a xlink:href="cc26xx__cc13xx__gpio_8h.html" target="_top" xlink:title="Driver for the cc26xx/cc13xx GPIO controller. ">
<polygon fill="none" stroke="#000000" points="1651,-134.5 1651,-164.5 1788,-164.5 1788,-134.5 1651,-134.5"/>
<text text-anchor="start" x="1659" y="-152.5" font-family="Helvetica,sans-Serif" font-size="10.00" fill="#000000">cpu/cc26xx_cc13xx/include</text>
<text text-anchor="middle" x="1719.5" y="-141.5" font-family="Helvetica,sans-Serif" font-size="10.00" fill="#000000">/cc26xx_cc13xx_gpio.h</text>
</a>
</g>
</g>
<!-- Node3&#45;&gt;Node16 -->
<g id="edge21" class="edge">
<title>Node3&#45;&gt;Node16</title>
<path fill="none" stroke="#191970" d="M1294.3335,-208.8676C1380.2197,-200.1159 1521.5347,-184.439 1642.5,-165 1645.1927,-164.5673 1647.9346,-164.1076 1650.7017,-163.6277"/>
<polygon fill="#191970" stroke="#191970" points="1293.7357,-205.4102 1284.1395,-209.9004 1294.4414,-212.3746 1293.7357,-205.4102"/>
</g>
<!-- Node17 -->
<g id="node15" class="node">
<title>Node17</title>
<g id="a_node15"><a xlink:href="cc26xx__cc13xx__gpt_8h.html" target="_top" xlink:title="definitions for the CC26xx/CC13XX GPT modules ">
<polygon fill="none" stroke="#000000" points="215,-134.5 215,-164.5 352,-164.5 352,-134.5 215,-134.5"/>
<text text-anchor="start" x="223" y="-152.5" font-family="Helvetica,sans-Serif" font-size="10.00" fill="#000000">cpu/cc26xx_cc13xx/include</text>
<text text-anchor="middle" x="283.5" y="-141.5" font-family="Helvetica,sans-Serif" font-size="10.00" fill="#000000">/cc26xx_cc13xx_gpt.h</text>
</a>
</g>
</g>
<!-- Node3&#45;&gt;Node17 -->
<g id="edge23" class="edge">
<title>Node3&#45;&gt;Node17</title>
<path fill="none" stroke="#191970" d="M1136.7424,-215.3227C985.7598,-212.2763 645.3709,-201.5921 361.5,-165 358.4875,-164.6117 355.4167,-164.1756 352.32,-163.7029"/>
<polygon fill="#191970" stroke="#191970" points="1136.78,-218.824 1146.8468,-215.5208 1136.9173,-211.8253 1136.78,-218.824"/>
</g>
<!-- Node18 -->
<g id="node16" class="node">
<title>Node18</title>
<g id="a_node16"><a xlink:href="cc26xx__cc13xx__hard__api_8h.html" target="_top" xlink:title="CC26xx/CC13xx ROM Hard&#45;API. ">
<polygon fill="none" stroke="#000000" points="370.5,-134.5 370.5,-164.5 508.5,-164.5 508.5,-134.5 370.5,-134.5"/>
<text text-anchor="start" x="378.5" y="-152.5" font-family="Helvetica,sans-Serif" font-size="10.00" fill="#000000">cpu/cc26xx_cc13xx/include</text>
<text text-anchor="middle" x="439.5" y="-141.5" font-family="Helvetica,sans-Serif" font-size="10.00" fill="#000000">/cc26xx_cc13xx_hard_api.h</text>
</a>
</g>
</g>
<!-- Node3&#45;&gt;Node18 -->
<g id="edge25" class="edge">
<title>Node3&#45;&gt;Node18</title>
<path fill="none" stroke="#191970" d="M1136.6165,-213.8295C1006.9438,-208.7345 740.8253,-195.312 517.5,-165 514.627,-164.61 511.7005,-164.1798 508.7485,-163.7184"/>
<polygon fill="#191970" stroke="#191970" points="1136.72,-217.336 1146.8478,-214.2253 1136.9906,-210.3412 1136.72,-217.336"/>
</g>
<!-- Node19 -->
<g id="node17" class="node">
<title>Node19</title>
<g id="a_node17"><a xlink:href="cc26xx__cc13xx__i2c_8h.html" target="_top" xlink:title="CC26xx/CC13xx MCU I/O register definitions. ">
<polygon fill="none" stroke="#000000" points="527,-134.5 527,-164.5 664,-164.5 664,-134.5 527,-134.5"/>
<text text-anchor="start" x="535" y="-152.5" font-family="Helvetica,sans-Serif" font-size="10.00" fill="#000000">cpu/cc26xx_cc13xx/include</text>
<text text-anchor="middle" x="595.5" y="-141.5" font-family="Helvetica,sans-Serif" font-size="10.00" fill="#000000">/cc26xx_cc13xx_i2c.h</text>
</a>
</g>
</g>
<!-- Node3&#45;&gt;Node19 -->
<g id="edge27" class="edge">
<title>Node3&#45;&gt;Node19</title>
<path fill="none" stroke="#191970" d="M1136.3565,-211.5861C1030.3547,-204.4135 836.5931,-189.2303 672.5,-165 669.802,-164.6016 667.0556,-164.1709 664.2848,-163.7153"/>
<polygon fill="#191970" stroke="#191970" points="1136.438,-215.0993 1146.6497,-212.276 1136.9062,-208.115 1136.438,-215.0993"/>
</g>
<!-- Node20 -->
<g id="node18" class="node">
<title>Node20</title>
<g id="a_node18"><a xlink:href="cc26xx__cc13xx__ioc_8h.html" target="_top" xlink:title="CC26xx/CC13xx MCU I/O register definitions. ">
<polygon fill="none" stroke="#000000" points="682,-134.5 682,-164.5 819,-164.5 819,-134.5 682,-134.5"/>
<text text-anchor="start" x="690" y="-152.5" font-family="Helvetica,sans-Serif" font-size="10.00" fill="#000000">cpu/cc26xx_cc13xx/include</text>
<text text-anchor="middle" x="750.5" y="-141.5" font-family="Helvetica,sans-Serif" font-size="10.00" fill="#000000">/cc26xx_cc13xx_ioc.h</text>
</a>
</g>
</g>
<!-- Node3&#45;&gt;Node20 -->
<g id="edge29" class="edge">
<title>Node3&#45;&gt;Node20</title>
<path fill="none" stroke="#191970" d="M1136.6574,-207.5976C1058.1004,-198.3602 934.1421,-182.7905 827.5,-165 824.8099,-164.5512 822.0702,-164.078 819.305,-163.5868"/>
<polygon fill="#191970" stroke="#191970" points="1136.6193,-211.1169 1146.9583,-208.8031 1137.433,-204.1644 1136.6193,-211.1169"/>
</g>
<!-- Node21 -->
<g id="node19" class="node">
<title>Node21</title>
<g id="a_node19"><a xlink:href="cc26xx__cc13xx__power_8h.html" target="_top" xlink:title="CC26xx/CC13xx Power management. ">
<polygon fill="none" stroke="#000000" points="1845,-134.5 1845,-164.5 1982,-164.5 1982,-134.5 1845,-134.5"/>
<text text-anchor="start" x="1853" y="-152.5" font-family="Helvetica,sans-Serif" font-size="10.00" fill="#000000">cpu/cc26xx_cc13xx/include</text>
<text text-anchor="middle" x="1913.5" y="-141.5" font-family="Helvetica,sans-Serif" font-size="10.00" fill="#000000">/cc26xx_cc13xx_power.h</text>
</a>
</g>
</g>
<!-- Node3&#45;&gt;Node21 -->
<g id="edge31" class="edge">
<title>Node3&#45;&gt;Node21</title>
<path fill="none" stroke="#191970" d="M1294.314,-212.4556C1411.5846,-205.8604 1638.786,-190.8607 1830.5,-165 1835.1487,-164.3729 1839.9321,-163.6604 1844.7439,-162.8937"/>
<polygon fill="#191970" stroke="#191970" points="1293.7903,-208.9792 1284.0004,-213.0298 1294.1795,-215.9684 1293.7903,-208.9792"/>
</g>
<!-- Node22 -->
<g id="node20" class="node">
<title>Node22</title>
<g id="a_node20"><a xlink:href="cc26xx__cc13xx__rfc_8h.html" target="_top" xlink:title="CC26xx/CC13xx MCU I/O register definitions. ">
<polygon fill="none" stroke="#000000" points="837,-134.5 837,-164.5 974,-164.5 974,-134.5 837,-134.5"/>
<text text-anchor="start" x="845" y="-152.5" font-family="Helvetica,sans-Serif" font-size="10.00" fill="#000000">cpu/cc26xx_cc13xx/include</text>
<text text-anchor="middle" x="905.5" y="-141.5" font-family="Helvetica,sans-Serif" font-size="10.00" fill="#000000">/cc26xx_cc13xx_rfc.h</text>
</a>
</g>
</g>
<!-- Node3&#45;&gt;Node22 -->
<g id="edge32" class="edge">
<title>Node3&#45;&gt;Node22</title>
<path fill="none" stroke="#191970" d="M1136.8606,-199.5037C1086.6642,-188.6548 1022.2248,-174.7276 974.1067,-164.3279"/>
<polygon fill="#191970" stroke="#191970" points="1136.1872,-202.9389 1146.701,-201.6305 1137.666,-196.0969 1136.1872,-202.9389"/>
</g>
<!-- Node23 -->
<g id="node21" class="node">
<title>Node23</title>
<g id="a_node21"><a xlink:href="cc26xx__cc13xx__uart_8h.html" target="_top" xlink:title="CC26xx/CC13xx UART interface. ">
<polygon fill="none" stroke="#000000" points="992,-134.5 992,-164.5 1129,-164.5 1129,-134.5 992,-134.5"/>
<text text-anchor="start" x="1000" y="-152.5" font-family="Helvetica,sans-Serif" font-size="10.00" fill="#000000">cpu/cc26xx_cc13xx/include</text>
<text text-anchor="middle" x="1060.5" y="-141.5" font-family="Helvetica,sans-Serif" font-size="10.00" fill="#000000">/cc26xx_cc13xx_uart.h</text>
</a>
</g>
</g>
<!-- Node3&#45;&gt;Node23 -->
<g id="edge34" class="edge">
<title>Node3&#45;&gt;Node23</title>
<path fill="none" stroke="#191970" d="M1171.4328,-197.4516C1147.3444,-187.0392 1117.925,-174.3224 1095.4367,-164.6017"/>
<polygon fill="#191970" stroke="#191970" points="1170.1471,-200.7088 1180.715,-201.4639 1172.9246,-194.2834 1170.1471,-200.7088"/>
</g>
<!-- Node24 -->
<g id="node22" class="node">
<title>Node24</title>
<g id="a_node22"><a xlink:href="cc26xx__cc13xx__wdt_8h.html" target="_top" xlink:title="CC26xx/CC13xx WDT register definitions. ">
<polygon fill="none" stroke="#000000" points="1147,-134.5 1147,-164.5 1284,-164.5 1284,-134.5 1147,-134.5"/>
<text text-anchor="start" x="1155" y="-152.5" font-family="Helvetica,sans-Serif" font-size="10.00" fill="#000000">cpu/cc26xx_cc13xx/include</text>
<text text-anchor="middle" x="1215.5" y="-141.5" font-family="Helvetica,sans-Serif" font-size="10.00" fill="#000000">/cc26xx_cc13xx_wdt.h</text>
</a>
</g>
</g>
<!-- Node3&#45;&gt;Node24 -->
<g id="edge36" class="edge">
<title>Node3&#45;&gt;Node24</title>
<path fill="none" stroke="#191970" d="M1215.5,-191.0249C1215.5,-182.128 1215.5,-172.4287 1215.5,-164.6432"/>
<polygon fill="#191970" stroke="#191970" points="1212.0001,-191.2966 1215.5,-201.2967 1219.0001,-191.2967 1212.0001,-191.2966"/>
</g>
<!-- Node5 -->
<g id="node3" class="node">
<title>Node5</title>
<g id="a_node3"><a xlink:href="cc26x0_2include_2cpu__conf_8h.html" target="_top" xlink:title="Implementation specific CPU configuration options. ">
<polygon fill="none" stroke="#000000" points="179,-.5 179,-30.5 280,-30.5 280,-.5 179,-.5"/>
<text text-anchor="start" x="187" y="-18.5" font-family="Helvetica,sans-Serif" font-size="10.00" fill="#000000">cpu/cc26x0/include</text>
<text text-anchor="middle" x="229.5" y="-7.5" font-family="Helvetica,sans-Serif" font-size="10.00" fill="#000000">/cpu_conf.h</text>
</a>
</g>
</g>
<!-- Node4&#45;&gt;Node5 -->
<g id="edge2" class="edge">
<title>Node4&#45;&gt;Node5</title>
<path fill="none" stroke="#191970" d="M189.973,-59.6385C198.546,-50.0653 208.2773,-39.1987 215.939,-30.6432"/>
<polygon fill="#191970" stroke="#191970" points="187.1788,-57.5122 183.1149,-67.2967 192.3935,-62.1821 187.1788,-57.5122"/>
</g>
<!-- Node6&#45;&gt;Node5 -->
<g id="edge4" class="edge">
<title>Node6&#45;&gt;Node5</title>
<path fill="none" stroke="#191970" d="M268.3682,-59.6385C259.9381,-50.0653 250.369,-39.1987 242.835,-30.6432"/>
<polygon fill="#191970" stroke="#191970" points="265.8764,-62.1048 275.112,-67.2967 271.1299,-57.4786 265.8764,-62.1048"/>
</g>
<!-- Node7&#45;&gt;Node5 -->
<g id="edge6" class="edge">
<title>Node7&#45;&gt;Node5</title>
<path fill="none" stroke="#191970" d="M100.286,-63.865C128.3054,-53.3773 162.8387,-40.4515 189.1537,-30.6017"/>
<polygon fill="#191970" stroke="#191970" points="98.8096,-60.6804 90.6711,-67.4639 101.2635,-67.2362 98.8096,-60.6804"/>
</g>
<!-- Node9 -->
<g id="node7" class="node">
<title>Node9</title>
<g id="a_node7"><a xlink:href="cc26x2__cc13x2_2include_2cpu__conf_8h.html" target="_top" xlink:title="Implementation specific CPU configuration options. ">
<polygon fill="none" stroke="#000000" points="1825,-.5 1825,-30.5 1962,-30.5 1962,-.5 1825,-.5"/>
<text text-anchor="start" x="1833" y="-18.5" font-family="Helvetica,sans-Serif" font-size="10.00" fill="#000000">cpu/cc26x2_cc13x2/include</text>
<text text-anchor="middle" x="1893.5" y="-7.5" font-family="Helvetica,sans-Serif" font-size="10.00" fill="#000000">/cpu_conf.h</text>
</a>
</g>
</g>
<!-- Node8&#45;&gt;Node9 -->
<g id="edge8" class="edge">
<title>Node8&#45;&gt;Node9</title>
<path fill="none" stroke="#191970" d="M1782.5672,-63.4516C1806.6556,-53.0392 1836.075,-40.3224 1858.5633,-30.6017"/>
<polygon fill="#191970" stroke="#191970" points="1781.0754,-60.2834 1773.285,-67.4639 1783.8529,-66.7088 1781.0754,-60.2834"/>
</g>
<!-- Node10&#45;&gt;Node9 -->
<g id="edge10" class="edge">
<title>Node10&#45;&gt;Node9</title>
<path fill="none" stroke="#191970" d="M1893.5,-57.0249C1893.5,-48.128 1893.5,-38.4287 1893.5,-30.6432"/>
<polygon fill="#191970" stroke="#191970" points="1890.0001,-57.2966 1893.5,-67.2967 1897.0001,-57.2967 1890.0001,-57.2966"/>
</g>
<!-- Node11&#45;&gt;Node9 -->
<g id="edge12" class="edge">
<title>Node11&#45;&gt;Node9</title>
<path fill="none" stroke="#191970" d="M2004.4328,-63.4516C1980.3444,-53.0392 1950.925,-40.3224 1928.4367,-30.6017"/>
<polygon fill="#191970" stroke="#191970" points="2003.1471,-66.7088 2013.715,-67.4639 2005.9246,-60.2834 2003.1471,-66.7088"/>
</g>
<!-- Node12&#45;&gt;Node9 -->
<g id="edge14" class="edge">
<title>Node12&#45;&gt;Node9</title>
<path fill="none" stroke="#191970" d="M2124.8606,-65.5037C2074.6642,-54.6548 2010.2248,-40.7276 1962.1067,-30.3279"/>
<polygon fill="#191970" stroke="#191970" points="2124.1872,-68.9389 2134.701,-67.6305 2125.666,-62.0969 2124.1872,-68.9389"/>
</g>
<!-- Node13&#45;&gt;Node14 -->
<g id="edge16" class="edge">
<title>Node13&#45;&gt;Node14</title>
<path fill="none" stroke="#191970" d="M1291.9129,-132.515C1241.9878,-121.7248 1177.9572,-107.8859 1129.9102,-97.5016"/>
<polygon fill="#191970" stroke="#191970" points="1291.1872,-135.9389 1301.701,-134.6305 1292.666,-129.0969 1291.1872,-135.9389"/>
</g>
<!-- Node14&#45;&gt;Node5 -->
<g id="edge17" class="edge">
<title>Node14&#45;&gt;Node5</title>
<path fill="none" stroke="#191970" d="M979.5066,-75.9698C809.4473,-62.2587 419.425,-30.8128 280.1128,-19.5807"/>
<polygon fill="#191970" stroke="#191970" points="979.4004,-79.4726 989.6494,-76.7876 979.9631,-72.4952 979.4004,-79.4726"/>
</g>
<!-- Node14&#45;&gt;Node9 -->
<g id="edge18" class="edge">
<title>Node14&#45;&gt;Node9</title>
<path fill="none" stroke="#191970" d="M1141.1539,-76.0128C1304.5712,-62.8688 1672.1759,-33.3016 1824.9242,-21.0157"/>
<polygon fill="#191970" stroke="#191970" points="1140.8489,-72.526 1131.1618,-76.8165 1141.4102,-79.5034 1140.8489,-72.526"/>
</g>
<!-- Node15&#45;&gt;Node14 -->
<g id="edge20" class="edge">
<title>Node15&#45;&gt;Node14</title>
<path fill="none" stroke="#191970" d="M1485.4419,-134.6183C1484.1186,-134.4076 1482.8038,-134.2013 1481.5,-134 1358.6956,-115.0413 1214.8595,-98.6993 1131.0798,-89.7622"/>
<polygon fill="#191970" stroke="#191970" points="1485.2787,-138.1385 1495.7145,-136.3099 1486.4161,-131.2315 1485.2787,-138.1385"/>
</g>
<!-- Node16&#45;&gt;Node14 -->
<g id="edge22" class="edge">
<title>Node16&#45;&gt;Node14</title>
<path fill="none" stroke="#191970" d="M1640.5859,-133.8108C1451.3943,-106.9773 1238.9849,-92.4777 1131.1169,-86.2272"/>
<polygon fill="#191970" stroke="#191970" points="1640.3229,-137.3088 1650.7183,-135.2631 1641.3161,-130.3796 1640.3229,-137.3088"/>
</g>
<!-- Node17&#45;&gt;Node14 -->
<g id="edge24" class="edge">
<title>Node17&#45;&gt;Node14</title>
<path fill="none" stroke="#191970" d="M362.4438,-133.9845C597.7045,-102.6228 865.0174,-89.6061 989.7586,-84.8442"/>
<polygon fill="#191970" stroke="#191970" points="361.7698,-130.5436 352.3266,-135.3473 362.7044,-137.481 361.7698,-130.5436"/>
</g>
<!-- Node18&#45;&gt;Node14 -->
<g id="edge26" class="edge">
<title>Node18&#45;&gt;Node14</title>
<path fill="none" stroke="#191970" d="M518.6561,-133.9185C693.5378,-108.7407 888.0145,-93.7501 989.9358,-86.8938"/>
<polygon fill="#191970" stroke="#191970" points="518.1516,-130.455 508.7592,-135.3575 519.1588,-137.3822 518.1516,-130.455"/>
</g>
<!-- Node19&#45;&gt;Node14 -->
<g id="edge28" class="edge">
<title>Node19&#45;&gt;Node14</title>
<path fill="none" stroke="#191970" d="M674.4066,-133.7372C790.1899,-114.6755 914.1228,-99.2805 989.8426,-90.4436"/>
<polygon fill="#191970" stroke="#191970" points="673.5973,-130.3236 664.305,-135.4132 674.7431,-137.2292 673.5973,-130.3236"/>
</g>
<!-- Node20&#45;&gt;Node14 -->
<g id="edge30" class="edge">
<title>Node20&#45;&gt;Node14</title>
<path fill="none" stroke="#191970" d="M829.0871,-132.515C879.0122,-121.7248 943.0428,-107.8859 991.0898,-97.5016"/>
<polygon fill="#191970" stroke="#191970" points="828.334,-129.0969 819.299,-134.6305 829.8128,-135.9389 828.334,-129.0969"/>
</g>
<!-- Node22&#45;&gt;Node14 -->
<g id="edge33" class="edge">
<title>Node22&#45;&gt;Node14</title>
<path fill="none" stroke="#191970" d="M949.5672,-130.4516C973.6556,-120.0392 1003.075,-107.3224 1025.5633,-97.6017"/>
<polygon fill="#191970" stroke="#191970" points="948.0754,-127.2834 940.285,-134.4639 950.8529,-133.7088 948.0754,-127.2834"/>
</g>
<!-- Node23&#45;&gt;Node14 -->
<g id="edge35" class="edge">
<title>Node23&#45;&gt;Node14</title>
<path fill="none" stroke="#191970" d="M1060.5,-124.0249C1060.5,-115.128 1060.5,-105.4287 1060.5,-97.6432"/>
<polygon fill="#191970" stroke="#191970" points="1057.0001,-124.2966 1060.5,-134.2967 1064.0001,-124.2967 1057.0001,-124.2966"/>
</g>
<!-- Node24&#45;&gt;Node14 -->
<g id="edge37" class="edge">
<title>Node24&#45;&gt;Node14</title>
<path fill="none" stroke="#191970" d="M1171.4328,-130.4516C1147.3444,-120.0392 1117.925,-107.3224 1095.4367,-97.6017"/>
<polygon fill="#191970" stroke="#191970" points="1170.1471,-133.7088 1180.715,-134.4639 1172.9246,-127.2834 1170.1471,-133.7088"/>
</g>
</g>
</svg>
