<?xml version="1.0" encoding="UTF-8" standalone="no"?>
<!DOCTYPE svg PUBLIC "-//W3C//DTD SVG 1.1//EN"
 "http://www.w3.org/Graphics/SVG/1.1/DTD/svg11.dtd">
<!-- Generated by graphviz version 2.43.0 (0)
 -->
<!-- Title: cpu/cc26xx_cc13xx/include/cc26xx_cc13xx_ioc.h Pages: 1 -->
<svg width="286pt" height="173pt"
 viewBox="0.00 0.00 285.50 173.00" xmlns="http://www.w3.org/2000/svg" xmlns:xlink="http://www.w3.org/1999/xlink">
<g id="graph0" class="graph" transform="scale(1 1) rotate(0) translate(4 169)">
<title>cpu/cc26xx_cc13xx/include/cc26xx_cc13xx_ioc.h</title>
<!-- Node1 -->
<g id="node1" class="node">
<title>Node1</title>
<g id="a_node1"><a xlink:title="CC26xx/CC13xx MCU I/O register definitions.">
<polygon fill="#bfbfbf" stroke="black" points="54.5,-134.5 54.5,-164.5 203.5,-164.5 203.5,-134.5 54.5,-134.5"/>
<text text-anchor="start" x="62.5" y="-152.5" font-family="Helvetica,sans-Serif" font-size="10.00">cpu/cc26xx_cc13xx/include</text>
<text text-anchor="middle" x="129" y="-141.5" font-family="Helvetica,sans-Serif" font-size="10.00">/cc26xx_cc13xx_ioc.h</text>
</a>
</g>
</g>
<!-- Node2 -->
<g id="node2" class="node">
<title>Node2</title>
<g id="a_node2"><a xlink:href="cpu__conf__cc26xx__cc13xx_8h.html" target="_top" xlink:title="Implementation specific CPU configuration options.">
<polygon fill="none" stroke="black" points="53,-67.5 53,-97.5 205,-97.5 205,-67.5 53,-67.5"/>
<text text-anchor="start" x="61" y="-85.5" font-family="Helvetica,sans-Serif" font-size="10.00">cpu/cc26xx_cc13xx/include</text>
<text text-anchor="middle" x="129" y="-74.5" font-family="Helvetica,sans-Serif" font-size="10.00">/cpu_conf_cc26xx_cc13xx.h</text>
</a>
</g>
</g>
<!-- Node1&#45;&gt;Node2 -->
<g id="edge1" class="edge">
<title>Node1&#45;&gt;Node2</title>
<path fill="none" stroke="midnightblue" d="M129,-124.11C129,-115.15 129,-105.32 129,-97.58"/>
<polygon fill="midnightblue" stroke="midnightblue" points="125.5,-124.4 129,-134.4 132.5,-124.4 125.5,-124.4"/>
</g>
<!-- Node3 -->
<g id="node3" class="node">
<title>Node3</title>
<g id="a_node3"><a xlink:href="cc26x0_2include_2cpu__conf_8h.html" target="_top" xlink:title="Implementation specific CPU configuration options.">
<polygon fill="none" stroke="black" points="0,-0.5 0,-30.5 110,-30.5 110,-0.5 0,-0.5"/>
<text text-anchor="start" x="8" y="-18.5" font-family="Helvetica,sans-Serif" font-size="10.00">cpu/cc26x0/include</text>
<text text-anchor="middle" x="55" y="-7.5" font-family="Helvetica,sans-Serif" font-size="10.00">/cpu_conf.h</text>
</a>
</g>
</g>
<!-- Node2&#45;&gt;Node3 -->
<g id="edge2" class="edge">
<title>Node2&#45;&gt;Node3</title>
<path fill="none" stroke="midnightblue" d="M105.2,-60.6C94.03,-50.78 81.01,-39.34 71.03,-30.58"/>
<polygon fill="midnightblue" stroke="midnightblue" points="103.12,-63.43 112.94,-67.4 107.74,-58.17 103.12,-63.43"/>
</g>
<!-- Node4 -->
<g id="node4" class="node">
<title>Node4</title>
<g id="a_node4"><a xlink:href="cc26x2__cc13x2_2include_2cpu__conf_8h.html" target="_top" xlink:title="Implementation specific CPU configuration options.">
<polygon fill="none" stroke="black" points="128.5,-0.5 128.5,-30.5 277.5,-30.5 277.5,-0.5 128.5,-0.5"/>
<text text-anchor="start" x="136.5" y="-18.5" font-family="Helvetica,sans-Serif" font-size="10.00">cpu/cc26x2_cc13x2/include</text>
<text text-anchor="middle" x="203" y="-7.5" font-family="Helvetica,sans-Serif" font-size="10.00">/cpu_conf.h</text>
</a>
</g>
</g>
<!-- Node2&#45;&gt;Node4 -->
<g id="edge3" class="edge">
<title>Node2&#45;&gt;Node4</title>
<path fill="none" stroke="midnightblue" d="M152.8,-60.6C163.97,-50.78 176.99,-39.34 186.97,-30.58"/>
<polygon fill="midnightblue" stroke="midnightblue" points="150.26,-58.17 145.06,-67.4 154.88,-63.43 150.26,-58.17"/>
</g>
</g>
</svg>
