<?xml version="1.0" encoding="UTF-8" standalone="no"?>
<!DOCTYPE svg PUBLIC "-//W3C//DTD SVG 1.1//EN"
 "http://www.w3.org/Graphics/SVG/1.1/DTD/svg11.dtd">
<!-- Generated by graphviz version 2.40.1 (20161225.0304)
 -->
<!-- Title: cpu/cc26x0/include/cpu_conf.h Pages: 1 -->
<svg width="1864pt" height="274pt"
 viewBox="0.00 0.00 1864.00 274.00" xmlns="http://www.w3.org/2000/svg" xmlns:xlink="http://www.w3.org/1999/xlink">
<g id="graph0" class="graph" transform="scale(1 1) rotate(0) translate(4 270)">
<title>cpu/cc26x0/include/cpu_conf.h</title>
<!-- Node0 -->
<g id="node1" class="node">
<title>Node0</title>
<polygon fill="#bfbfbf" stroke="#000000" points="1617,-235.5 1617,-265.5 1718,-265.5 1718,-235.5 1617,-235.5"/>
<text text-anchor="start" x="1625" y="-253.5" font-family="Helvetica,sans-Serif" font-size="10.00" fill="#000000">cpu/cc26x0/include</text>
<text text-anchor="middle" x="1667.5" y="-242.5" font-family="Helvetica,sans-Serif" font-size="10.00" fill="#000000">/cpu_conf.h</text>
</g>
<!-- Node1 -->
<g id="node2" class="node">
<title>Node1</title>
<g id="a_node2"><a xlink:href="cpu__conf__cc26xx__cc13xx_8h.html" target="_top" xlink:title="Implementation specific CPU configuration options. ">
<polygon fill="none" stroke="#000000" points="742.5,-179.5 742.5,-198.5 880.5,-198.5 880.5,-179.5 742.5,-179.5"/>
<text text-anchor="middle" x="811.5" y="-186.5" font-family="Helvetica,sans-Serif" font-size="10.00" fill="#000000">cpu_conf_cc26xx_cc13xx.h</text>
</a>
</g>
</g>
<!-- Node0&#45;&gt;Node1 -->
<g id="edge1" class="edge">
<title>Node0&#45;&gt;Node1</title>
<path fill="none" stroke="#191970" d="M1616.8334,-246.8598C1473.5138,-236.5629 1064.3933,-207.1693 890.8609,-194.7017"/>
<polygon fill="#191970" stroke="#191970" points="891,-191.2028 880.7748,-193.9771 890.4983,-198.1848 891,-191.2028"/>
</g>
<!-- Node17 -->
<g id="node18" class="node">
<title>Node17</title>
<g id="a_node18"><a xlink:href="cc26x0__aux_8h.html" target="_top" xlink:title="CC26x0 AUX register definitions. ">
<polygon fill="none" stroke="#000000" points="1581,-179.5 1581,-198.5 1658,-198.5 1658,-179.5 1581,-179.5"/>
<text text-anchor="middle" x="1619.5" y="-186.5" font-family="Helvetica,sans-Serif" font-size="10.00" fill="#000000">cc26x0_aux.h</text>
</a>
</g>
</g>
<!-- Node0&#45;&gt;Node17 -->
<g id="edge27" class="edge">
<title>Node0&#45;&gt;Node17</title>
<path fill="none" stroke="#191970" d="M1655.6348,-235.2977C1648.9025,-226.672 1640.4415,-215.8312 1633.3994,-206.8087"/>
<polygon fill="#191970" stroke="#191970" points="1636.0973,-204.5766 1627.1854,-198.8469 1630.579,-208.8836 1636.0973,-204.5766"/>
</g>
<!-- Node19 -->
<g id="node20" class="node">
<title>Node19</title>
<g id="a_node20"><a xlink:href="cc26x0__fcfg_8h.html" target="_top" xlink:title="CC26x0 FCFG register definitions. ">
<polygon fill="none" stroke="#000000" points="1676.5,-179.5 1676.5,-198.5 1754.5,-198.5 1754.5,-179.5 1676.5,-179.5"/>
<text text-anchor="middle" x="1715.5" y="-186.5" font-family="Helvetica,sans-Serif" font-size="10.00" fill="#000000">cc26x0_fcfg.h</text>
</a>
</g>
</g>
<!-- Node0&#45;&gt;Node19 -->
<g id="edge30" class="edge">
<title>Node0&#45;&gt;Node19</title>
<path fill="none" stroke="#191970" d="M1679.3652,-235.2977C1686.0975,-226.672 1694.5585,-215.8312 1701.6006,-206.8087"/>
<polygon fill="#191970" stroke="#191970" points="1704.421,-208.8836 1707.8146,-198.8469 1698.9027,-204.5766 1704.421,-208.8836"/>
</g>
<!-- Node20 -->
<g id="node21" class="node">
<title>Node20</title>
<g id="a_node21"><a xlink:href="cc26x0__prcm_8h.html" target="_top" xlink:title="CC26x0 PRCM register definitions. ">
<polygon fill="none" stroke="#000000" points="1773,-179.5 1773,-198.5 1856,-198.5 1856,-179.5 1773,-179.5"/>
<text text-anchor="middle" x="1814.5" y="-186.5" font-family="Helvetica,sans-Serif" font-size="10.00" fill="#000000">cc26x0_prcm.h</text>
</a>
</g>
</g>
<!-- Node0&#45;&gt;Node20 -->
<g id="edge32" class="edge">
<title>Node0&#45;&gt;Node20</title>
<path fill="none" stroke="#191970" d="M1703.4602,-235.4554C1727.5573,-225.374 1759.013,-212.2139 1782.2903,-202.4755"/>
<polygon fill="#191970" stroke="#191970" points="1783.8459,-205.6187 1791.7202,-198.5303 1781.1442,-199.1611 1783.8459,-205.6187"/>
</g>
<!-- Node2 -->
<g id="node3" class="node">
<title>Node2</title>
<polygon fill="none" stroke="#bfbfbf" points="0,-118 0,-137 107,-137 107,-118 0,-118"/>
<text text-anchor="middle" x="53.5" y="-125" font-family="Helvetica,sans-Serif" font-size="10.00" fill="#000000">cpu_conf_common.h</text>
</g>
<!-- Node1&#45;&gt;Node2 -->
<g id="edge2" class="edge">
<title>Node1&#45;&gt;Node2</title>
<path fill="none" stroke="#191970" d="M742.0738,-187.9813C617.2476,-185.3488 346.9074,-175.9934 121.5,-143 114.6579,-141.9985 107.4844,-140.6725 100.4679,-139.2165"/>
<polygon fill="#191970" stroke="#191970" points="100.873,-135.7227 90.3571,-137.0131 99.3825,-142.5622 100.873,-135.7227"/>
</g>
<!-- Node3 -->
<g id="node4" class="node">
<title>Node3</title>
<g id="a_node4"><a xlink:href="cc26xx__cc13xx_8h.html" target="_top" xlink:title="CC26xx, CC13xx definitions. ">
<polygon fill="none" stroke="#000000" points="893,-56.5 893,-75.5 986,-75.5 986,-56.5 893,-56.5"/>
<text text-anchor="middle" x="939.5" y="-63.5" font-family="Helvetica,sans-Serif" font-size="10.00" fill="#000000">cc26xx_cc13xx.h</text>
</a>
</g>
</g>
<!-- Node1&#45;&gt;Node3 -->
<g id="edge3" class="edge">
<title>Node1&#45;&gt;Node3</title>
<path fill="none" stroke="#191970" d="M742.4415,-186.6736C577.7945,-180.7926 174.3354,-164.2728 154.5,-143 145.104,-132.9232 145.0469,-122.0233 154.5,-112 179.4397,-85.5561 706.3484,-71.2712 882.6252,-67.2189"/>
<polygon fill="#191970" stroke="#191970" points="882.8178,-70.7156 892.7355,-66.9889 882.6585,-63.7174 882.8178,-70.7156"/>
</g>
<!-- Node6 -->
<g id="node7" class="node">
<title>Node6</title>
<g id="a_node7"><a xlink:href="cc26xx__cc13xx__adi_8h.html" target="_top" xlink:title="CC26xx/CC13xx MCU I/O register definitions. ">
<polygon fill="none" stroke="#000000" points="164,-118 164,-137 275,-137 275,-118 164,-118"/>
<text text-anchor="middle" x="219.5" y="-125" font-family="Helvetica,sans-Serif" font-size="10.00" fill="#000000">cc26xx_cc13xx_adi.h</text>
</a>
</g>
</g>
<!-- Node1&#45;&gt;Node6 -->
<g id="edge6" class="edge">
<title>Node1&#45;&gt;Node6</title>
<path fill="none" stroke="#191970" d="M742.3195,-186.2994C641.0427,-181.5951 446.7225,-169.7189 283.5,-143 277.3547,-141.994 270.9272,-140.7145 264.6157,-139.3232"/>
<polygon fill="#191970" stroke="#191970" points="265.3815,-135.9081 254.8504,-137.0684 263.8066,-142.7286 265.3815,-135.9081"/>
</g>
<!-- Node7 -->
<g id="node8" class="node">
<title>Node7</title>
<g id="a_node8"><a xlink:href="cc26xx__cc13xx__ccfg_8h.html" target="_top" xlink:title="CC26xx/CC13xx CCFG register definitions. ">
<polygon fill="none" stroke="#000000" points="293,-118 293,-137 410,-137 410,-118 293,-118"/>
<text text-anchor="middle" x="351.5" y="-125" font-family="Helvetica,sans-Serif" font-size="10.00" fill="#000000">cc26xx_cc13xx_ccfg.h</text>
</a>
</g>
</g>
<!-- Node1&#45;&gt;Node7 -->
<g id="edge8" class="edge">
<title>Node1&#45;&gt;Node7</title>
<path fill="none" stroke="#191970" d="M742.4912,-183.1608C663.9368,-175.9911 531.9364,-162.354 419.5,-143 413.2352,-141.9216 406.6801,-140.6337 400.2172,-139.2675"/>
<polygon fill="#191970" stroke="#191970" points="400.7091,-135.7924 390.1922,-137.075 399.2135,-142.6307 400.7091,-135.7924"/>
</g>
<!-- Node8 -->
<g id="node9" class="node">
<title>Node8</title>
<g id="a_node9"><a xlink:href="cc26xx__cc13xx__gpio_8h.html" target="_top" xlink:title="Driver for the cc26xx/cc13xx GPIO controller. ">
<polygon fill="none" stroke="#000000" points="428.5,-118 428.5,-137 544.5,-137 544.5,-118 428.5,-118"/>
<text text-anchor="middle" x="486.5" y="-125" font-family="Helvetica,sans-Serif" font-size="10.00" fill="#000000">cc26xx_cc13xx_gpio.h</text>
</a>
</g>
</g>
<!-- Node1&#45;&gt;Node8 -->
<g id="edge10" class="edge">
<title>Node1&#45;&gt;Node8</title>
<path fill="none" stroke="#191970" d="M753.1889,-179.4745C700.7916,-170.7082 621.8095,-156.9816 553.5,-143 547.8052,-141.8344 541.8531,-140.5515 535.9476,-139.2381"/>
<polygon fill="#191970" stroke="#191970" points="536.6321,-135.8046 526.1066,-137.0142 535.0891,-142.6324 536.6321,-135.8046"/>
</g>
<!-- Node9 -->
<g id="node10" class="node">
<title>Node9</title>
<g id="a_node10"><a xlink:href="cc26xx__cc13xx__gpt_8h.html" target="_top" xlink:title="definitions for the CC26xx/CC13XX GPT modules ">
<polygon fill="none" stroke="#000000" points="562.5,-118 562.5,-137 674.5,-137 674.5,-118 562.5,-118"/>
<text text-anchor="middle" x="618.5" y="-125" font-family="Helvetica,sans-Serif" font-size="10.00" fill="#000000">cc26xx_cc13xx_gpt.h</text>
</a>
</g>
</g>
<!-- Node1&#45;&gt;Node9 -->
<g id="edge12" class="edge">
<title>Node1&#45;&gt;Node9</title>
<path fill="none" stroke="#191970" d="M781.3438,-179.3906C748.2015,-168.8298 694.8238,-151.8208 658.2758,-140.1747"/>
<polygon fill="#191970" stroke="#191970" points="659.0351,-136.7433 648.4445,-137.0419 656.9098,-143.4129 659.0351,-136.7433"/>
</g>
<!-- Node10 -->
<g id="node11" class="node">
<title>Node10</title>
<g id="a_node11"><a xlink:href="cc26xx__cc13xx__hard__api_8h.html" target="_top" xlink:title="CC26xx/CC13xx ROM Hard&#45;API. ">
<polygon fill="none" stroke="#000000" points="693,-112.5 693,-142.5 802,-142.5 802,-112.5 693,-112.5"/>
<text text-anchor="start" x="701" y="-130.5" font-family="Helvetica,sans-Serif" font-size="10.00" fill="#000000">cc26xx_cc13xx_hard</text>
<text text-anchor="middle" x="747.5" y="-119.5" font-family="Helvetica,sans-Serif" font-size="10.00" fill="#000000">_api.h</text>
</a>
</g>
</g>
<!-- Node1&#45;&gt;Node10 -->
<g id="edge14" class="edge">
<title>Node1&#45;&gt;Node10</title>
<path fill="none" stroke="#191970" d="M801.5,-179.3906C793.2394,-171.4527 781.1878,-159.8718 770.5645,-149.6635"/>
<polygon fill="#191970" stroke="#191970" points="772.7918,-146.9498 763.1562,-142.5446 767.9416,-151.9971 772.7918,-146.9498"/>
</g>
<!-- Node11 -->
<g id="node12" class="node">
<title>Node11</title>
<g id="a_node12"><a xlink:href="cc26xx__cc13xx__i2c_8h.html" target="_top" xlink:title="CC26xx/CC13xx MCU I/O register definitions. ">
<polygon fill="none" stroke="#000000" points="820,-118 820,-137 931,-137 931,-118 820,-118"/>
<text text-anchor="middle" x="875.5" y="-125" font-family="Helvetica,sans-Serif" font-size="10.00" fill="#000000">cc26xx_cc13xx_i2c.h</text>
</a>
</g>
</g>
<!-- Node1&#45;&gt;Node11 -->
<g id="edge16" class="edge">
<title>Node1&#45;&gt;Node11</title>
<path fill="none" stroke="#191970" d="M821.5,-179.3906C831.2119,-170.0581 846.1639,-155.6902 857.8741,-144.4374"/>
<polygon fill="#191970" stroke="#191970" points="860.5736,-146.6974 865.359,-137.2449 855.7234,-141.65 860.5736,-146.6974"/>
</g>
<!-- Node12 -->
<g id="node13" class="node">
<title>Node12</title>
<g id="a_node13"><a xlink:href="cc26xx__cc13xx__ioc_8h.html" target="_top" xlink:title="CC26xx/CC13xx MCU I/O register definitions. ">
<polygon fill="none" stroke="#000000" points="949,-118 949,-137 1060,-137 1060,-118 949,-118"/>
<text text-anchor="middle" x="1004.5" y="-125" font-family="Helvetica,sans-Serif" font-size="10.00" fill="#000000">cc26xx_cc13xx_ioc.h</text>
</a>
</g>
</g>
<!-- Node1&#45;&gt;Node12 -->
<g id="edge18" class="edge">
<title>Node1&#45;&gt;Node12</title>
<path fill="none" stroke="#191970" d="M841.6563,-179.3906C874.7985,-168.8298 928.1762,-151.8208 964.7242,-140.1747"/>
<polygon fill="#191970" stroke="#191970" points="966.0902,-143.4129 974.5555,-137.0419 963.9649,-136.7433 966.0902,-143.4129"/>
</g>
<!-- Node13 -->
<g id="node14" class="node">
<title>Node13</title>
<g id="a_node14"><a xlink:href="cc26xx__cc13xx__rfc_8h.html" target="_top" xlink:title="CC26xx/CC13xx MCU I/O register definitions. ">
<polygon fill="none" stroke="#000000" points="1078.5,-118 1078.5,-137 1188.5,-137 1188.5,-118 1078.5,-118"/>
<text text-anchor="middle" x="1133.5" y="-125" font-family="Helvetica,sans-Serif" font-size="10.00" fill="#000000">cc26xx_cc13xx_rfc.h</text>
</a>
</g>
</g>
<!-- Node1&#45;&gt;Node13 -->
<g id="edge20" class="edge">
<title>Node1&#45;&gt;Node13</title>
<path fill="none" stroke="#191970" d="M870.1182,-179.4858C922.3279,-170.7792 1000.7211,-157.1352 1068.5,-143 1073.8945,-141.875 1079.5249,-140.6338 1085.118,-139.3584"/>
<polygon fill="#191970" stroke="#191970" points="1086.1373,-142.7149 1095.0862,-137.0432 1084.5536,-135.8964 1086.1373,-142.7149"/>
</g>
<!-- Node14 -->
<g id="node15" class="node">
<title>Node14</title>
<g id="a_node15"><a xlink:href="cc26xx__cc13xx__uart_8h.html" target="_top" xlink:title="CC26xx/CC13xx UART interface. ">
<polygon fill="none" stroke="#000000" points="1207,-118 1207,-137 1322,-137 1322,-118 1207,-118"/>
<text text-anchor="middle" x="1264.5" y="-125" font-family="Helvetica,sans-Serif" font-size="10.00" fill="#000000">cc26xx_cc13xx_uart.h</text>
</a>
</g>
</g>
<!-- Node1&#45;&gt;Node14 -->
<g id="edge22" class="edge">
<title>Node1&#45;&gt;Node14</title>
<path fill="none" stroke="#191970" d="M880.5103,-183.0584C957.9926,-175.8585 1087.3079,-162.2532 1197.5,-143 1203.6745,-141.9212 1210.1343,-140.6329 1216.5028,-139.2666"/>
<polygon fill="#191970" stroke="#191970" points="1217.377,-142.6578 1226.3809,-137.074 1215.8601,-135.8241 1217.377,-142.6578"/>
</g>
<!-- Node15 -->
<g id="node16" class="node">
<title>Node15</title>
<g id="a_node16"><a xlink:href="cc26xx__cc13xx__vims_8h.html" target="_top" xlink:title="CC26xx/CC13xx VIMS register definitions. ">
<polygon fill="none" stroke="#000000" points="1340,-118 1340,-137 1459,-137 1459,-118 1340,-118"/>
<text text-anchor="middle" x="1399.5" y="-125" font-family="Helvetica,sans-Serif" font-size="10.00" fill="#000000">cc26xx_cc13xx_vims.h</text>
</a>
</g>
</g>
<!-- Node1&#45;&gt;Node15 -->
<g id="edge24" class="edge">
<title>Node1&#45;&gt;Node15</title>
<path fill="none" stroke="#191970" d="M880.6939,-185.7894C980.5161,-180.4967 1170.5146,-167.9467 1330.5,-143 1337.265,-141.9451 1344.3569,-140.6143 1351.3122,-139.1779"/>
<polygon fill="#191970" stroke="#191970" points="1352.3111,-142.5431 1361.3509,-137.0175 1350.8383,-135.6998 1352.3111,-142.5431"/>
</g>
<!-- Node16 -->
<g id="node17" class="node">
<title>Node16</title>
<g id="a_node17"><a xlink:href="cc26xx__cc13xx__wdt_8h.html" target="_top" xlink:title="CC26xx/CC13xx WDT register definitions. ">
<polygon fill="none" stroke="#000000" points="1477.5,-118 1477.5,-137 1591.5,-137 1591.5,-118 1477.5,-118"/>
<text text-anchor="middle" x="1534.5" y="-125" font-family="Helvetica,sans-Serif" font-size="10.00" fill="#000000">cc26xx_cc13xx_wdt.h</text>
</a>
</g>
</g>
<!-- Node1&#45;&gt;Node16 -->
<g id="edge25" class="edge">
<title>Node1&#45;&gt;Node16</title>
<path fill="none" stroke="#191970" d="M880.8355,-187.7172C1000.9469,-184.6986 1255.231,-174.7938 1467.5,-143 1474.1638,-142.0019 1481.1458,-140.6905 1487.9818,-139.2525"/>
<polygon fill="#191970" stroke="#191970" points="1488.8282,-142.6501 1497.8387,-137.0769 1487.3193,-135.8146 1488.8282,-142.6501"/>
</g>
<!-- Node4 -->
<g id="node5" class="node">
<title>Node4</title>
<polygon fill="none" stroke="#bfbfbf" points="877,-.5 877,-19.5 926,-19.5 926,-.5 877,-.5"/>
<text text-anchor="middle" x="901.5" y="-7.5" font-family="Helvetica,sans-Serif" font-size="10.00" fill="#000000">stdint.h</text>
</g>
<!-- Node3&#45;&gt;Node4 -->
<g id="edge4" class="edge">
<title>Node3&#45;&gt;Node4</title>
<path fill="none" stroke="#191970" d="M932.8809,-56.2455C927.5954,-48.4564 920.0459,-37.3308 913.6762,-27.9439"/>
<polygon fill="#191970" stroke="#191970" points="916.5545,-25.9522 908.0432,-19.6427 910.7621,-29.8827 916.5545,-25.9522"/>
</g>
<!-- Node5 -->
<g id="node6" class="node">
<title>Node5</title>
<polygon fill="none" stroke="#bfbfbf" points="944.5,-.5 944.5,-19.5 1012.5,-19.5 1012.5,-.5 944.5,-.5"/>
<text text-anchor="middle" x="978.5" y="-7.5" font-family="Helvetica,sans-Serif" font-size="10.00" fill="#000000">core_cm3.h</text>
</g>
<!-- Node3&#45;&gt;Node5 -->
<g id="edge5" class="edge">
<title>Node3&#45;&gt;Node5</title>
<path fill="none" stroke="#191970" d="M946.2933,-56.2455C951.7178,-48.4564 959.4661,-37.3308 966.0033,-27.9439"/>
<polygon fill="#191970" stroke="#191970" points="968.9417,-29.849 971.7846,-19.6427 963.1975,-25.8485 968.9417,-29.849"/>
</g>
<!-- Node6&#45;&gt;Node3 -->
<g id="edge7" class="edge">
<title>Node6&#45;&gt;Node3</title>
<path fill="none" stroke="#191970" d="M254.1647,-117.9844C263.6156,-115.6977 273.8972,-113.4888 283.5,-112 503.1311,-77.9496 768.074,-69.0854 882.4091,-66.7925"/>
<polygon fill="#191970" stroke="#191970" points="882.7397,-70.2869 892.671,-66.5964 882.6059,-63.2882 882.7397,-70.2869"/>
</g>
<!-- Node7&#45;&gt;Node3 -->
<g id="edge9" class="edge">
<title>Node7&#45;&gt;Node3</title>
<path fill="none" stroke="#191970" d="M389.0897,-117.973C398.9342,-115.742 409.5724,-113.5631 419.5,-112 586.8611,-85.6483 787.08,-73.2534 882.9267,-68.4836"/>
<polygon fill="#191970" stroke="#191970" points="883.1643,-71.9762 892.9815,-67.9922 882.8226,-64.9846 883.1643,-71.9762"/>
</g>
<!-- Node8&#45;&gt;Node3 -->
<g id="edge11" class="edge">
<title>Node8&#45;&gt;Node3</title>
<path fill="none" stroke="#191970" d="M524.6191,-117.926C534.0199,-115.7741 544.0912,-113.6439 553.5,-112 669.6949,-91.698 807.1532,-77.676 882.6795,-70.8221"/>
<polygon fill="#191970" stroke="#191970" points="883.2701,-74.2832 892.9169,-69.9027 882.6438,-67.3113 883.2701,-74.2832"/>
</g>
<!-- Node9&#45;&gt;Node3 -->
<g id="edge13" class="edge">
<title>Node9&#45;&gt;Node3</title>
<path fill="none" stroke="#191970" d="M656.9147,-117.9612C665.6345,-115.9015 674.8694,-113.8029 683.5,-112 751.6679,-97.7596 830.6088,-83.9828 882.6044,-75.279"/>
<polygon fill="#191970" stroke="#191970" points="883.3448,-78.704 892.6331,-73.6073 882.1937,-71.7993 883.3448,-78.704"/>
</g>
<!-- Node10&#45;&gt;Node3 -->
<g id="edge15" class="edge">
<title>Node10&#45;&gt;Node3</title>
<path fill="none" stroke="#191970" d="M794.4685,-112.4554C826.7852,-102.104 869.2351,-88.5067 899.8499,-78.7004"/>
<polygon fill="#191970" stroke="#191970" points="901.2911,-81.914 909.7468,-75.5303 899.1557,-75.2477 901.2911,-81.914"/>
</g>
<!-- Node11&#45;&gt;Node3 -->
<g id="edge17" class="edge">
<title>Node11&#45;&gt;Node3</title>
<path fill="none" stroke="#191970" d="M885.5,-117.8906C895.2119,-108.5581 910.1639,-94.1902 921.8741,-82.9374"/>
<polygon fill="#191970" stroke="#191970" points="924.5736,-85.1974 929.359,-75.7449 919.7234,-80.15 924.5736,-85.1974"/>
</g>
<!-- Node12&#45;&gt;Node3 -->
<g id="edge19" class="edge">
<title>Node12&#45;&gt;Node3</title>
<path fill="none" stroke="#191970" d="M994.3438,-117.8906C984.4801,-108.5581 969.2945,-94.1902 957.4013,-82.9374"/>
<polygon fill="#191970" stroke="#191970" points="959.4689,-80.0753 949.7994,-75.7449 954.6579,-85.1601 959.4689,-80.0753"/>
</g>
<!-- Node13&#45;&gt;Node3 -->
<g id="edge21" class="edge">
<title>Node13&#45;&gt;Node3</title>
<path fill="none" stroke="#191970" d="M1103.1875,-117.8906C1069.8735,-107.3298 1016.2192,-90.3208 979.4819,-78.6747"/>
<polygon fill="#191970" stroke="#191970" points="980.1898,-75.2275 969.5996,-75.5419 978.0744,-81.9002 980.1898,-75.2275"/>
</g>
<!-- Node14&#45;&gt;Node3 -->
<g id="edge23" class="edge">
<title>Node14&#45;&gt;Node3</title>
<path fill="none" stroke="#191970" d="M1224.8934,-117.9858C1215.9058,-115.9248 1206.3895,-113.8195 1197.5,-112 1128.5497,-97.8872 1048.7257,-84.0343 996.3437,-75.2801"/>
<polygon fill="#191970" stroke="#191970" points="996.6836,-71.7886 986.2445,-73.5987 995.5339,-78.6935 996.6836,-71.7886"/>
</g>
<!-- Node16&#45;&gt;Node3 -->
<g id="edge26" class="edge">
<title>Node16&#45;&gt;Node3</title>
<path fill="none" stroke="#191970" d="M1497.471,-117.9559C1487.7712,-115.7251 1477.2874,-113.5506 1467.5,-112 1297.1711,-85.015 1093.2398,-72.8866 996.2021,-68.3251"/>
<polygon fill="#191970" stroke="#191970" points="996.1778,-64.8204 986.0273,-67.8563 995.8556,-71.8129 996.1778,-64.8204"/>
</g>
<!-- Node17&#45;&gt;Node3 -->
<g id="edge29" class="edge">
<title>Node17&#45;&gt;Node3</title>
<path fill="none" stroke="#191970" d="M1620.3698,-179.3796C1621.2817,-162.7363 1620.4176,-128.7484 1600.5,-112 1577.531,-92.6857 1152.6884,-74.2902 996.4951,-68.1524"/>
<polygon fill="#191970" stroke="#191970" points="996.2911,-64.6418 986.1621,-67.7488 996.0179,-71.6365 996.2911,-64.6418"/>
</g>
<!-- Node18 -->
<g id="node19" class="node">
<title>Node18</title>
<polygon fill="none" stroke="#bfbfbf" points="1647.5,-118 1647.5,-137 1703.5,-137 1703.5,-118 1647.5,-118"/>
<text text-anchor="middle" x="1675.5" y="-125" font-family="Helvetica,sans-Serif" font-size="10.00" fill="#000000">stdbool.h</text>
</g>
<!-- Node17&#45;&gt;Node18 -->
<g id="edge28" class="edge">
<title>Node17&#45;&gt;Node18</title>
<path fill="none" stroke="#191970" d="M1628.25,-179.3906C1636.6662,-170.1478 1649.5797,-155.966 1659.781,-144.7628"/>
<polygon fill="#191970" stroke="#191970" points="1662.4818,-146.9953 1666.6266,-137.2449 1657.306,-142.2824 1662.4818,-146.9953"/>
</g>
<!-- Node19&#45;&gt;Node3 -->
<g id="edge31" class="edge">
<title>Node19&#45;&gt;Node3</title>
<path fill="none" stroke="#191970" d="M1718.7031,-179.3904C1723.4686,-163.0709 1730.1013,-129.9658 1712.5,-112 1687.4908,-86.4728 1170.6302,-71.614 996.3242,-67.3141"/>
<polygon fill="#191970" stroke="#191970" points="996.1603,-63.8092 986.0778,-67.0638 995.9893,-70.8071 996.1603,-63.8092"/>
</g>
<!-- Node20&#45;&gt;Node3 -->
<g id="edge33" class="edge">
<title>Node20&#45;&gt;Node3</title>
<path fill="none" stroke="#191970" d="M1807.8439,-179.476C1795.2399,-162.3386 1766.0353,-126.7222 1731.5,-112 1664.4131,-83.4013 1166.2198,-70.6377 996.1808,-67.0828"/>
<polygon fill="#191970" stroke="#191970" points="996.2472,-63.5835 986.1771,-66.8764 996.1028,-70.582 996.2472,-63.5835"/>
</g>
</g>
</svg>
