<?xml version="1.0" encoding="UTF-8" standalone="no"?>
<!DOCTYPE svg PUBLIC "-//W3C//DTD SVG 1.1//EN"
 "http://www.w3.org/Graphics/SVG/1.1/DTD/svg11.dtd">
<!-- Generated by graphviz version 2.40.1 (20161225.0304)
 -->
<!-- Title: sys/include/usb/cdc.h Pages: 1 -->
<svg width="209pt" height="140pt"
 viewBox="0.00 0.00 208.50 140.00" xmlns="http://www.w3.org/2000/svg" xmlns:xlink="http://www.w3.org/1999/xlink">
<g id="graph0" class="graph" transform="scale(1 1) rotate(0) translate(4 136)">
<title>sys/include/usb/cdc.h</title>
<!-- Node0 -->
<g id="node1" class="node">
<title>Node0</title>
<polygon fill="#bfbfbf" stroke="#000000" points="30.5,-112.5 30.5,-131.5 142.5,-131.5 142.5,-112.5 30.5,-112.5"/>
<text text-anchor="middle" x="86.5" y="-119.5" font-family="Helvetica,sans-Serif" font-size="10.00" fill="#000000">sys/include/usb/cdc.h</text>
</g>
<!-- Node1 -->
<g id="node2" class="node">
<title>Node1</title>
<polygon fill="none" stroke="#bfbfbf" points="67,-.5 67,-19.5 116,-19.5 116,-.5 67,-.5"/>
<text text-anchor="middle" x="91.5" y="-7.5" font-family="Helvetica,sans-Serif" font-size="10.00" fill="#000000">stdint.h</text>
</g>
<!-- Node0&#45;&gt;Node1 -->
<g id="edge1" class="edge">
<title>Node0&#45;&gt;Node1</title>
<path fill="none" stroke="#191970" d="M86.9263,-112.4509C87.7418,-94.184 89.5377,-53.9553 90.6206,-29.6976"/>
<polygon fill="#191970" stroke="#191970" points="94.1252,-29.6711 91.0748,-19.5249 87.1322,-29.3588 94.1252,-29.6711"/>
</g>
<!-- Node2 -->
<g id="node3" class="node">
<title>Node2</title>
<g id="a_node3"><a xlink:href="usb_8h.html" target="_top" xlink:title="Definition of global compile time configuration options. ">
<polygon fill="none" stroke="#000000" points="13,-56.5 13,-75.5 54,-75.5 54,-56.5 13,-56.5"/>
<text text-anchor="middle" x="33.5" y="-63.5" font-family="Helvetica,sans-Serif" font-size="10.00" fill="#000000">usb.h</text>
</a>
</g>
</g>
<!-- Node0&#45;&gt;Node2 -->
<g id="edge2" class="edge">
<title>Node0&#45;&gt;Node2</title>
<path fill="none" stroke="#191970" d="M77.2681,-112.2455C69.6683,-104.2155 58.7123,-92.6394 49.6632,-83.0781"/>
<polygon fill="#191970" stroke="#191970" points="52.042,-80.4998 42.6261,-75.6427 46.9579,-85.3115 52.042,-80.4998"/>
</g>
<!-- Node4 -->
<g id="node5" class="node">
<title>Node4</title>
<g id="a_node5"><a xlink:href="descriptor_8h.html" target="_top" xlink:title="Definitions for USB protocol messages. ">
<polygon fill="none" stroke="#000000" points="114.5,-56.5 114.5,-75.5 200.5,-75.5 200.5,-56.5 114.5,-56.5"/>
<text text-anchor="middle" x="157.5" y="-63.5" font-family="Helvetica,sans-Serif" font-size="10.00" fill="#000000">usb/descriptor.h</text>
</a>
</g>
</g>
<!-- Node0&#45;&gt;Node4 -->
<g id="edge4" class="edge">
<title>Node0&#45;&gt;Node4</title>
<path fill="none" stroke="#191970" d="M98.8673,-112.2455C109.4554,-103.8943 124.9064,-91.7076 137.2893,-81.9408"/>
<polygon fill="#191970" stroke="#191970" points="139.5903,-84.5837 145.2745,-75.6427 135.2553,-79.0875 139.5903,-84.5837"/>
</g>
<!-- Node3 -->
<g id="node4" class="node">
<title>Node3</title>
<polygon fill="none" stroke="#bfbfbf" points="0,-.5 0,-19.5 49,-19.5 49,-.5 0,-.5"/>
<text text-anchor="middle" x="24.5" y="-7.5" font-family="Helvetica,sans-Serif" font-size="10.00" fill="#000000">board.h</text>
</g>
<!-- Node2&#45;&gt;Node3 -->
<g id="edge3" class="edge">
<title>Node2&#45;&gt;Node3</title>
<path fill="none" stroke="#191970" d="M31.9323,-56.2455C30.7579,-48.9382 29.1116,-38.6944 27.6668,-29.7046"/>
<polygon fill="#191970" stroke="#191970" points="31.0922,-28.9606 26.0497,-19.6427 24.1809,-30.0714 31.0922,-28.9606"/>
</g>
<!-- Node4&#45;&gt;Node1 -->
<g id="edge5" class="edge">
<title>Node4&#45;&gt;Node1</title>
<path fill="none" stroke="#191970" d="M146.0037,-56.2455C136.2558,-47.9746 122.0741,-35.9416 110.6202,-26.2232"/>
<polygon fill="#191970" stroke="#191970" points="112.7541,-23.4437 102.8646,-19.6427 108.2253,-28.7813 112.7541,-23.4437"/>
</g>
<!-- Node5 -->
<g id="node6" class="node">
<title>Node5</title>
<polygon fill="none" stroke="#bfbfbf" points="134.5,-.5 134.5,-19.5 190.5,-19.5 190.5,-.5 134.5,-.5"/>
<text text-anchor="middle" x="162.5" y="-7.5" font-family="Helvetica,sans-Serif" font-size="10.00" fill="#000000">stdbool.h</text>
</g>
<!-- Node4&#45;&gt;Node5 -->
<g id="edge6" class="edge">
<title>Node4&#45;&gt;Node5</title>
<path fill="none" stroke="#191970" d="M158.3709,-56.2455C159.0234,-48.9382 159.938,-38.6944 160.7407,-29.7046"/>
<polygon fill="#191970" stroke="#191970" points="164.2358,-29.9143 161.639,-19.6427 157.2635,-29.2918 164.2358,-29.9143"/>
</g>
</g>
</svg>
