<?xml version="1.0" encoding="UTF-8" standalone="no"?>
<!DOCTYPE svg PUBLIC "-//W3C//DTD SVG 1.1//EN"
 "http://www.w3.org/Graphics/SVG/1.1/DTD/svg11.dtd">
<!-- Generated by graphviz version 2.40.1 (20161225.0304)
 -->
<!-- Title: boards/common/stm32/include/cfg_spi_divtable.h Pages: 1 -->
<svg width="926pt" height="240pt"
 viewBox="0.00 0.00 926.00 240.00" xmlns="http://www.w3.org/2000/svg" xmlns:xlink="http://www.w3.org/1999/xlink">
<g id="graph0" class="graph" transform="scale(1 1) rotate(0) translate(4 236)">
<title>boards/common/stm32/include/cfg_spi_divtable.h</title>
<!-- Node1 -->
<g id="node1" class="node">
<title>Node1</title>
<polygon fill="#bfbfbf" stroke="#000000" points="380,-201.5 380,-231.5 512,-231.5 512,-201.5 380,-201.5"/>
<text text-anchor="start" x="388" y="-219.5" font-family="Helvetica,sans-Serif" font-size="10.00" fill="#000000">boards/common/stm32</text>
<text text-anchor="middle" x="446" y="-208.5" font-family="Helvetica,sans-Serif" font-size="10.00" fill="#000000">/include/cfg_spi_divtable.h</text>
</g>
<!-- Node2 -->
<g id="node2" class="node">
<title>Node2</title>
<g id="a_node2"><a xlink:href="boards_2msbiot_2include_2periph__conf_8h.html" target="_top" xlink:title="boards/msbiot/include\l/periph_conf.h">
<polygon fill="none" stroke="#000000" points="0,-134.5 0,-164.5 112,-164.5 112,-134.5 0,-134.5"/>
<text text-anchor="start" x="8" y="-152.5" font-family="Helvetica,sans-Serif" font-size="10.00" fill="#000000">boards/msbiot/include</text>
<text text-anchor="middle" x="56" y="-141.5" font-family="Helvetica,sans-Serif" font-size="10.00" fill="#000000">/periph_conf.h</text>
</a>
</g>
</g>
<!-- Node1&#45;&gt;Node2 -->
<g id="edge1" class="edge">
<title>Node1&#45;&gt;Node2</title>
<path fill="none" stroke="#191970" d="M369.8424,-206.1221C303.7917,-196.7189 205.7498,-181.7937 121,-165 118.155,-164.4363 115.2458,-163.8348 112.3121,-163.2084"/>
<polygon fill="#191970" stroke="#191970" points="369.3634,-209.5892 379.7554,-207.5261 370.3451,-202.6583 369.3634,-209.5892"/>
</g>
<!-- Node5 -->
<g id="node5" class="node">
<title>Node5</title>
<g id="a_node5"><a xlink:href="boards_2nucleo-f429zi_2include_2periph__conf_8h.html" target="_top" xlink:title="boards/nucleo&#45;f429zi\l/include/periph_conf.h">
<polygon fill="none" stroke="#000000" points="130,-134.5 130,-164.5 242,-164.5 242,-134.5 130,-134.5"/>
<text text-anchor="start" x="138" y="-152.5" font-family="Helvetica,sans-Serif" font-size="10.00" fill="#000000">boards/nucleo&#45;f429zi</text>
<text text-anchor="middle" x="186" y="-141.5" font-family="Helvetica,sans-Serif" font-size="10.00" fill="#000000">/include/periph_conf.h</text>
</a>
</g>
</g>
<!-- Node1&#45;&gt;Node5 -->
<g id="edge4" class="edge">
<title>Node1&#45;&gt;Node5</title>
<path fill="none" stroke="#191970" d="M377.7401,-198.9099C335.5733,-188.0439 282.1191,-174.2691 242.3686,-164.0257"/>
<polygon fill="#191970" stroke="#191970" points="377.0939,-202.3577 387.6509,-201.4639 378.8407,-195.5791 377.0939,-202.3577"/>
</g>
<!-- Node6 -->
<g id="node6" class="node">
<title>Node6</title>
<g id="a_node6"><a xlink:href="boards_2nucleo-f446re_2include_2periph__conf_8h.html" target="_top" xlink:title="boards/nucleo&#45;f446re\l/include/periph_conf.h">
<polygon fill="none" stroke="#000000" points="260,-134.5 260,-164.5 372,-164.5 372,-134.5 260,-134.5"/>
<text text-anchor="start" x="268" y="-152.5" font-family="Helvetica,sans-Serif" font-size="10.00" fill="#000000">boards/nucleo&#45;f446re</text>
<text text-anchor="middle" x="316" y="-141.5" font-family="Helvetica,sans-Serif" font-size="10.00" fill="#000000">/include/periph_conf.h</text>
</a>
</g>
</g>
<!-- Node1&#45;&gt;Node6 -->
<g id="edge5" class="edge">
<title>Node1&#45;&gt;Node6</title>
<path fill="none" stroke="#191970" d="M407.7262,-196.7743C387.856,-186.5335 363.9509,-174.2132 345.527,-164.7177"/>
<polygon fill="#191970" stroke="#191970" points="406.3331,-199.9938 416.8255,-201.4639 409.54,-193.7715 406.3331,-199.9938"/>
</g>
<!-- Node7 -->
<g id="node7" class="node">
<title>Node7</title>
<g id="a_node7"><a xlink:href="boards_2nucleo-f446ze_2include_2periph__conf_8h.html" target="_top" xlink:title="boards/nucleo&#45;f446ze\l/include/periph_conf.h">
<polygon fill="none" stroke="#000000" points="390,-134.5 390,-164.5 502,-164.5 502,-134.5 390,-134.5"/>
<text text-anchor="start" x="398" y="-152.5" font-family="Helvetica,sans-Serif" font-size="10.00" fill="#000000">boards/nucleo&#45;f446ze</text>
<text text-anchor="middle" x="446" y="-141.5" font-family="Helvetica,sans-Serif" font-size="10.00" fill="#000000">/include/periph_conf.h</text>
</a>
</g>
</g>
<!-- Node1&#45;&gt;Node7 -->
<g id="edge6" class="edge">
<title>Node1&#45;&gt;Node7</title>
<path fill="none" stroke="#191970" d="M446,-191.0249C446,-182.128 446,-172.4287 446,-164.6432"/>
<polygon fill="#191970" stroke="#191970" points="442.5001,-191.2966 446,-201.2967 449.5001,-191.2967 442.5001,-191.2966"/>
</g>
<!-- Node8 -->
<g id="node8" class="node">
<title>Node8</title>
<g id="a_node8"><a xlink:href="boards_2nucleo-f767zi_2include_2periph__conf_8h.html" target="_top" xlink:title="Peripheral MCU configuration for the nucleo&#45;f767zi board. ">
<polygon fill="none" stroke="#000000" points="520,-134.5 520,-164.5 632,-164.5 632,-134.5 520,-134.5"/>
<text text-anchor="start" x="528" y="-152.5" font-family="Helvetica,sans-Serif" font-size="10.00" fill="#000000">boards/nucleo&#45;f767zi</text>
<text text-anchor="middle" x="576" y="-141.5" font-family="Helvetica,sans-Serif" font-size="10.00" fill="#000000">/include/periph_conf.h</text>
</a>
</g>
</g>
<!-- Node1&#45;&gt;Node8 -->
<g id="edge7" class="edge">
<title>Node1&#45;&gt;Node8</title>
<path fill="none" stroke="#191970" d="M484.2738,-196.7743C504.144,-186.5335 528.0491,-174.2132 546.473,-164.7177"/>
<polygon fill="#191970" stroke="#191970" points="482.46,-193.7715 475.1745,-201.4639 485.6669,-199.9938 482.46,-193.7715"/>
</g>
<!-- Node9 -->
<g id="node9" class="node">
<title>Node9</title>
<g id="a_node9"><a xlink:href="boards_2stm32f429i-disc1_2include_2periph__conf_8h.html" target="_top" xlink:title="boards/stm32f429i&#45;disc1\l/include/periph_conf.h">
<polygon fill="none" stroke="#000000" points="650.5,-134.5 650.5,-164.5 773.5,-164.5 773.5,-134.5 650.5,-134.5"/>
<text text-anchor="start" x="658.5" y="-152.5" font-family="Helvetica,sans-Serif" font-size="10.00" fill="#000000">boards/stm32f429i&#45;disc1</text>
<text text-anchor="middle" x="712" y="-141.5" font-family="Helvetica,sans-Serif" font-size="10.00" fill="#000000">/include/periph_conf.h</text>
</a>
</g>
</g>
<!-- Node1&#45;&gt;Node9 -->
<g id="edge8" class="edge">
<title>Node1&#45;&gt;Node9</title>
<path fill="none" stroke="#191970" d="M515.6563,-198.955C558.021,-188.2842 611.5729,-174.7955 652.044,-164.6017"/>
<polygon fill="#191970" stroke="#191970" points="514.5378,-195.6273 505.6956,-201.4639 516.2476,-202.4153 514.5378,-195.6273"/>
</g>
<!-- Node12 -->
<g id="node12" class="node">
<title>Node12</title>
<g id="a_node12"><a xlink:href="boards_2stm32f4discovery_2include_2periph__conf_8h.html" target="_top" xlink:title="boards/stm32f4discovery\l/include/periph_conf.h">
<polygon fill="none" stroke="#000000" points="792,-134.5 792,-164.5 918,-164.5 918,-134.5 792,-134.5"/>
<text text-anchor="start" x="800" y="-152.5" font-family="Helvetica,sans-Serif" font-size="10.00" fill="#000000">boards/stm32f4discovery</text>
<text text-anchor="middle" x="855" y="-141.5" font-family="Helvetica,sans-Serif" font-size="10.00" fill="#000000">/include/periph_conf.h</text>
</a>
</g>
</g>
<!-- Node1&#45;&gt;Node12 -->
<g id="edge11" class="edge">
<title>Node1&#45;&gt;Node12</title>
<path fill="none" stroke="#191970" d="M522.4037,-206.058C590.6415,-196.4304 693.2347,-181.2127 782,-165 785.1863,-164.418 788.4465,-163.8019 791.7357,-163.1638"/>
<polygon fill="#191970" stroke="#191970" points="521.5884,-202.6381 512.1729,-207.4959 522.5627,-209.57 521.5884,-202.6381"/>
</g>
<!-- Node3 -->
<g id="node3" class="node">
<title>Node3</title>
<g id="a_node3"><a xlink:href="msbiot_2include_2board_8h.html" target="_top" xlink:title="Board specific definitions for the MSB&#45;IoT board. ">
<polygon fill="none" stroke="#000000" points="0,-67.5 0,-97.5 112,-97.5 112,-67.5 0,-67.5"/>
<text text-anchor="start" x="8" y="-85.5" font-family="Helvetica,sans-Serif" font-size="10.00" fill="#000000">boards/msbiot/include</text>
<text text-anchor="middle" x="56" y="-74.5" font-family="Helvetica,sans-Serif" font-size="10.00" fill="#000000">/board.h</text>
</a>
</g>
</g>
<!-- Node2&#45;&gt;Node3 -->
<g id="edge2" class="edge">
<title>Node2&#45;&gt;Node3</title>
<path fill="none" stroke="#191970" d="M56,-124.0249C56,-115.128 56,-105.4287 56,-97.6432"/>
<polygon fill="#191970" stroke="#191970" points="52.5001,-124.2966 56,-134.2967 59.5001,-124.2967 52.5001,-124.2966"/>
</g>
<!-- Node4 -->
<g id="node4" class="node">
<title>Node4</title>
<g id="a_node4"><a xlink:href="msbiot_2include_2gpio__params_8h.html" target="_top" xlink:title="Board specific configuration of direct mapped GPIOs. ">
<polygon fill="none" stroke="#000000" points="0,-.5 0,-30.5 112,-30.5 112,-.5 0,-.5"/>
<text text-anchor="start" x="8" y="-18.5" font-family="Helvetica,sans-Serif" font-size="10.00" fill="#000000">boards/msbiot/include</text>
<text text-anchor="middle" x="56" y="-7.5" font-family="Helvetica,sans-Serif" font-size="10.00" fill="#000000">/gpio_params.h</text>
</a>
</g>
</g>
<!-- Node3&#45;&gt;Node4 -->
<g id="edge3" class="edge">
<title>Node3&#45;&gt;Node4</title>
<path fill="none" stroke="#191970" d="M56,-57.0249C56,-48.128 56,-38.4287 56,-30.6432"/>
<polygon fill="#191970" stroke="#191970" points="52.5001,-57.2966 56,-67.2967 59.5001,-57.2967 52.5001,-57.2966"/>
</g>
<!-- Node10 -->
<g id="node10" class="node">
<title>Node10</title>
<g id="a_node10"><a xlink:href="stm32f429i-disc1_2include_2board_8h.html" target="_top" xlink:title="Board specific definitions for the STM32F429I&#45;DISC1 evaluation board. ">
<polygon fill="none" stroke="#000000" points="650.5,-67.5 650.5,-97.5 773.5,-97.5 773.5,-67.5 650.5,-67.5"/>
<text text-anchor="start" x="658.5" y="-85.5" font-family="Helvetica,sans-Serif" font-size="10.00" fill="#000000">boards/stm32f429i&#45;disc1</text>
<text text-anchor="middle" x="712" y="-74.5" font-family="Helvetica,sans-Serif" font-size="10.00" fill="#000000">/include/board.h</text>
</a>
</g>
</g>
<!-- Node9&#45;&gt;Node10 -->
<g id="edge9" class="edge">
<title>Node9&#45;&gt;Node10</title>
<path fill="none" stroke="#191970" d="M712,-124.0249C712,-115.128 712,-105.4287 712,-97.6432"/>
<polygon fill="#191970" stroke="#191970" points="708.5001,-124.2966 712,-134.2967 715.5001,-124.2967 708.5001,-124.2966"/>
</g>
<!-- Node11 -->
<g id="node11" class="node">
<title>Node11</title>
<g id="a_node11"><a xlink:href="stm32f429i-disc1_2include_2gpio__params_8h.html" target="_top" xlink:title="Board specific configuration of direct mapped GPIOs. ">
<polygon fill="none" stroke="#000000" points="650.5,-.5 650.5,-30.5 773.5,-30.5 773.5,-.5 650.5,-.5"/>
<text text-anchor="start" x="658.5" y="-18.5" font-family="Helvetica,sans-Serif" font-size="10.00" fill="#000000">boards/stm32f429i&#45;disc1</text>
<text text-anchor="middle" x="712" y="-7.5" font-family="Helvetica,sans-Serif" font-size="10.00" fill="#000000">/include/gpio_params.h</text>
</a>
</g>
</g>
<!-- Node10&#45;&gt;Node11 -->
<g id="edge10" class="edge">
<title>Node10&#45;&gt;Node11</title>
<path fill="none" stroke="#191970" d="M712,-57.0249C712,-48.128 712,-38.4287 712,-30.6432"/>
<polygon fill="#191970" stroke="#191970" points="708.5001,-57.2966 712,-67.2967 715.5001,-57.2967 708.5001,-57.2966"/>
</g>
<!-- Node13 -->
<g id="node13" class="node">
<title>Node13</title>
<g id="a_node13"><a xlink:href="stm32f4discovery_2include_2board_8h.html" target="_top" xlink:title="Board specific definitions for the STM32F4Discovery evaluation board. ">
<polygon fill="none" stroke="#000000" points="792,-67.5 792,-97.5 918,-97.5 918,-67.5 792,-67.5"/>
<text text-anchor="start" x="800" y="-85.5" font-family="Helvetica,sans-Serif" font-size="10.00" fill="#000000">boards/stm32f4discovery</text>
<text text-anchor="middle" x="855" y="-74.5" font-family="Helvetica,sans-Serif" font-size="10.00" fill="#000000">/include/board.h</text>
</a>
</g>
</g>
<!-- Node12&#45;&gt;Node13 -->
<g id="edge12" class="edge">
<title>Node12&#45;&gt;Node13</title>
<path fill="none" stroke="#191970" d="M855,-124.0249C855,-115.128 855,-105.4287 855,-97.6432"/>
<polygon fill="#191970" stroke="#191970" points="851.5001,-124.2966 855,-134.2967 858.5001,-124.2967 851.5001,-124.2966"/>
</g>
<!-- Node14 -->
<g id="node14" class="node">
<title>Node14</title>
<g id="a_node14"><a xlink:href="stm32f4discovery_2include_2gpio__params_8h.html" target="_top" xlink:title="Board specific configuration of direct mapped GPIOs. ">
<polygon fill="none" stroke="#000000" points="792,-.5 792,-30.5 918,-30.5 918,-.5 792,-.5"/>
<text text-anchor="start" x="800" y="-18.5" font-family="Helvetica,sans-Serif" font-size="10.00" fill="#000000">boards/stm32f4discovery</text>
<text text-anchor="middle" x="855" y="-7.5" font-family="Helvetica,sans-Serif" font-size="10.00" fill="#000000">/include/gpio_params.h</text>
</a>
</g>
</g>
<!-- Node13&#45;&gt;Node14 -->
<g id="edge13" class="edge">
<title>Node13&#45;&gt;Node14</title>
<path fill="none" stroke="#191970" d="M855,-57.0249C855,-48.128 855,-38.4287 855,-30.6432"/>
<polygon fill="#191970" stroke="#191970" points="851.5001,-57.2966 855,-67.2967 858.5001,-57.2967 851.5001,-57.2966"/>
</g>
</g>
</svg>
