<?xml version="1.0" encoding="UTF-8" standalone="no"?>
<!DOCTYPE svg PUBLIC "-//W3C//DTD SVG 1.1//EN"
 "http://www.w3.org/Graphics/SVG/1.1/DTD/svg11.dtd">
<!-- Generated by graphviz version 2.40.1 (20161225.0304)
 -->
<!-- Title: boards/common/stm32/include/f4/cfg_clock_168_8_common.h Pages: 1 -->
<svg width="406pt" height="329pt"
 viewBox="0.00 0.00 405.50 329.00" xmlns="http://www.w3.org/2000/svg" xmlns:xlink="http://www.w3.org/1999/xlink">
<g id="graph0" class="graph" transform="scale(1 1) rotate(0) translate(4 325)">
<title>boards/common/stm32/include/f4/cfg_clock_168_8_common.h</title>
<!-- Node1 -->
<g id="node1" class="node">
<title>Node1</title>
<polygon fill="#bfbfbf" stroke="#000000" points="74,-279.5 74,-320.5 190,-320.5 190,-279.5 74,-279.5"/>
<text text-anchor="start" x="82" y="-308.5" font-family="Helvetica,sans-Serif" font-size="10.00" fill="#000000">boards/common/stm32</text>
<text text-anchor="start" x="82" y="-297.5" font-family="Helvetica,sans-Serif" font-size="10.00" fill="#000000">/include/f4/cfg_clock</text>
<text text-anchor="middle" x="132" y="-286.5" font-family="Helvetica,sans-Serif" font-size="10.00" fill="#000000">_168_8_common.h</text>
</g>
<!-- Node2 -->
<g id="node2" class="node">
<title>Node2</title>
<g id="a_node2"><a xlink:href="cfg__clock__168__8__0_8h.html" target="_top" xlink:title="Configure STM32F4 clock to 168MHz using PLL and without LSE. ">
<polygon fill="none" stroke="#000000" points="7,-201.5 7,-242.5 123,-242.5 123,-201.5 7,-201.5"/>
<text text-anchor="start" x="15" y="-230.5" font-family="Helvetica,sans-Serif" font-size="10.00" fill="#000000">boards/common/stm32</text>
<text text-anchor="start" x="15" y="-219.5" font-family="Helvetica,sans-Serif" font-size="10.00" fill="#000000">/include/f4/cfg_clock</text>
<text text-anchor="middle" x="65" y="-208.5" font-family="Helvetica,sans-Serif" font-size="10.00" fill="#000000">_168_8_0.h</text>
</a>
</g>
</g>
<!-- Node1&#45;&gt;Node2 -->
<g id="edge1" class="edge">
<title>Node1&#45;&gt;Node2</title>
<path fill="none" stroke="#191970" d="M107.4127,-271.376C99.2476,-261.8703 90.3207,-251.4778 82.772,-242.6898"/>
<polygon fill="#191970" stroke="#191970" points="104.8743,-273.7923 114.0452,-279.0974 110.1843,-269.2311 104.8743,-273.7923"/>
</g>
<!-- Node6 -->
<g id="node6" class="node">
<title>Node6</title>
<g id="a_node6"><a xlink:href="cfg__clock__168__8__1_8h.html" target="_top" xlink:title="Configure STM32F4 clock to 168MHz using PLL with LSE. ">
<polygon fill="none" stroke="#000000" points="142,-201.5 142,-242.5 258,-242.5 258,-201.5 142,-201.5"/>
<text text-anchor="start" x="150" y="-230.5" font-family="Helvetica,sans-Serif" font-size="10.00" fill="#000000">boards/common/stm32</text>
<text text-anchor="start" x="150" y="-219.5" font-family="Helvetica,sans-Serif" font-size="10.00" fill="#000000">/include/f4/cfg_clock</text>
<text text-anchor="middle" x="200" y="-208.5" font-family="Helvetica,sans-Serif" font-size="10.00" fill="#000000">_168_8_1.h</text>
</a>
</g>
</g>
<!-- Node1&#45;&gt;Node6 -->
<g id="edge5" class="edge">
<title>Node1&#45;&gt;Node6</title>
<path fill="none" stroke="#191970" d="M156.9543,-271.376C165.2413,-261.8703 174.3014,-251.4778 181.9627,-242.6898"/>
<polygon fill="#191970" stroke="#191970" points="154.1559,-269.2597 150.2228,-279.0974 159.4324,-273.8597 154.1559,-269.2597"/>
</g>
<!-- Node3 -->
<g id="node3" class="node">
<title>Node3</title>
<g id="a_node3"><a xlink:href="boards_2stm32f4discovery_2include_2periph__conf_8h.html" target="_top" xlink:title="boards/stm32f4discovery\l/include/periph_conf.h">
<polygon fill="none" stroke="#000000" points="0,-134.5 0,-164.5 126,-164.5 126,-134.5 0,-134.5"/>
<text text-anchor="start" x="8" y="-152.5" font-family="Helvetica,sans-Serif" font-size="10.00" fill="#000000">boards/stm32f4discovery</text>
<text text-anchor="middle" x="63" y="-141.5" font-family="Helvetica,sans-Serif" font-size="10.00" fill="#000000">/include/periph_conf.h</text>
</a>
</g>
</g>
<!-- Node2&#45;&gt;Node3 -->
<g id="edge2" class="edge">
<title>Node2&#45;&gt;Node3</title>
<path fill="none" stroke="#191970" d="M64.1539,-191.3279C63.899,-182.0871 63.6304,-172.3508 63.4165,-164.5991"/>
<polygon fill="#191970" stroke="#191970" points="60.6577,-191.5187 64.4322,-201.4183 67.655,-191.3256 60.6577,-191.5187"/>
</g>
<!-- Node4 -->
<g id="node4" class="node">
<title>Node4</title>
<g id="a_node4"><a xlink:href="stm32f4discovery_2include_2board_8h.html" target="_top" xlink:title="Board specific definitions for the STM32F4Discovery evaluation board. ">
<polygon fill="none" stroke="#000000" points="0,-67.5 0,-97.5 126,-97.5 126,-67.5 0,-67.5"/>
<text text-anchor="start" x="8" y="-85.5" font-family="Helvetica,sans-Serif" font-size="10.00" fill="#000000">boards/stm32f4discovery</text>
<text text-anchor="middle" x="63" y="-74.5" font-family="Helvetica,sans-Serif" font-size="10.00" fill="#000000">/include/board.h</text>
</a>
</g>
</g>
<!-- Node3&#45;&gt;Node4 -->
<g id="edge3" class="edge">
<title>Node3&#45;&gt;Node4</title>
<path fill="none" stroke="#191970" d="M63,-124.0249C63,-115.128 63,-105.4287 63,-97.6432"/>
<polygon fill="#191970" stroke="#191970" points="59.5001,-124.2966 63,-134.2967 66.5001,-124.2967 59.5001,-124.2966"/>
</g>
<!-- Node5 -->
<g id="node5" class="node">
<title>Node5</title>
<g id="a_node5"><a xlink:href="stm32f4discovery_2include_2gpio__params_8h.html" target="_top" xlink:title="Board specific configuration of direct mapped GPIOs. ">
<polygon fill="none" stroke="#000000" points="0,-.5 0,-30.5 126,-30.5 126,-.5 0,-.5"/>
<text text-anchor="start" x="8" y="-18.5" font-family="Helvetica,sans-Serif" font-size="10.00" fill="#000000">boards/stm32f4discovery</text>
<text text-anchor="middle" x="63" y="-7.5" font-family="Helvetica,sans-Serif" font-size="10.00" fill="#000000">/include/gpio_params.h</text>
</a>
</g>
</g>
<!-- Node4&#45;&gt;Node5 -->
<g id="edge4" class="edge">
<title>Node4&#45;&gt;Node5</title>
<path fill="none" stroke="#191970" d="M63,-57.0249C63,-48.128 63,-38.4287 63,-30.6432"/>
<polygon fill="#191970" stroke="#191970" points="59.5001,-57.2966 63,-67.2967 66.5001,-57.2967 59.5001,-57.2966"/>
</g>
<!-- Node7 -->
<g id="node7" class="node">
<title>Node7</title>
<g id="a_node7"><a xlink:href="boards_2nucleo-f429zi_2include_2periph__conf_8h.html" target="_top" xlink:title="boards/nucleo&#45;f429zi\l/include/periph_conf.h">
<polygon fill="none" stroke="#000000" points="144,-134.5 144,-164.5 256,-164.5 256,-134.5 144,-134.5"/>
<text text-anchor="start" x="152" y="-152.5" font-family="Helvetica,sans-Serif" font-size="10.00" fill="#000000">boards/nucleo&#45;f429zi</text>
<text text-anchor="middle" x="200" y="-141.5" font-family="Helvetica,sans-Serif" font-size="10.00" fill="#000000">/include/periph_conf.h</text>
</a>
</g>
</g>
<!-- Node6&#45;&gt;Node7 -->
<g id="edge6" class="edge">
<title>Node6&#45;&gt;Node7</title>
<path fill="none" stroke="#191970" d="M200,-191.3279C200,-182.0871 200,-172.3508 200,-164.5991"/>
<polygon fill="#191970" stroke="#191970" points="196.5001,-191.4183 200,-201.4183 203.5001,-191.4184 196.5001,-191.4183"/>
</g>
<!-- Node8 -->
<g id="node8" class="node">
<title>Node8</title>
<g id="a_node8"><a xlink:href="boards_2stm32f429i-disc1_2include_2periph__conf_8h.html" target="_top" xlink:title="boards/stm32f429i&#45;disc1\l/include/periph_conf.h">
<polygon fill="none" stroke="#000000" points="274.5,-134.5 274.5,-164.5 397.5,-164.5 397.5,-134.5 274.5,-134.5"/>
<text text-anchor="start" x="282.5" y="-152.5" font-family="Helvetica,sans-Serif" font-size="10.00" fill="#000000">boards/stm32f429i&#45;disc1</text>
<text text-anchor="middle" x="336" y="-141.5" font-family="Helvetica,sans-Serif" font-size="10.00" fill="#000000">/include/periph_conf.h</text>
</a>
</g>
</g>
<!-- Node6&#45;&gt;Node8 -->
<g id="edge7" class="edge">
<title>Node6&#45;&gt;Node8</title>
<path fill="none" stroke="#191970" d="M247.6097,-196.6198C267.6618,-185.9303 290.3206,-173.8511 307.6762,-164.5991"/>
<polygon fill="#191970" stroke="#191970" points="245.7863,-193.6255 238.6084,-201.4183 249.0793,-199.8026 245.7863,-193.6255"/>
</g>
<!-- Node9 -->
<g id="node9" class="node">
<title>Node9</title>
<g id="a_node9"><a xlink:href="stm32f429i-disc1_2include_2board_8h.html" target="_top" xlink:title="Board specific definitions for the STM32F429I&#45;DISC1 evaluation board. ">
<polygon fill="none" stroke="#000000" points="274.5,-67.5 274.5,-97.5 397.5,-97.5 397.5,-67.5 274.5,-67.5"/>
<text text-anchor="start" x="282.5" y="-85.5" font-family="Helvetica,sans-Serif" font-size="10.00" fill="#000000">boards/stm32f429i&#45;disc1</text>
<text text-anchor="middle" x="336" y="-74.5" font-family="Helvetica,sans-Serif" font-size="10.00" fill="#000000">/include/board.h</text>
</a>
</g>
</g>
<!-- Node8&#45;&gt;Node9 -->
<g id="edge8" class="edge">
<title>Node8&#45;&gt;Node9</title>
<path fill="none" stroke="#191970" d="M336,-124.0249C336,-115.128 336,-105.4287 336,-97.6432"/>
<polygon fill="#191970" stroke="#191970" points="332.5001,-124.2966 336,-134.2967 339.5001,-124.2967 332.5001,-124.2966"/>
</g>
<!-- Node10 -->
<g id="node10" class="node">
<title>Node10</title>
<g id="a_node10"><a xlink:href="stm32f429i-disc1_2include_2gpio__params_8h.html" target="_top" xlink:title="Board specific configuration of direct mapped GPIOs. ">
<polygon fill="none" stroke="#000000" points="274.5,-.5 274.5,-30.5 397.5,-30.5 397.5,-.5 274.5,-.5"/>
<text text-anchor="start" x="282.5" y="-18.5" font-family="Helvetica,sans-Serif" font-size="10.00" fill="#000000">boards/stm32f429i&#45;disc1</text>
<text text-anchor="middle" x="336" y="-7.5" font-family="Helvetica,sans-Serif" font-size="10.00" fill="#000000">/include/gpio_params.h</text>
</a>
</g>
</g>
<!-- Node9&#45;&gt;Node10 -->
<g id="edge9" class="edge">
<title>Node9&#45;&gt;Node10</title>
<path fill="none" stroke="#191970" d="M336,-57.0249C336,-48.128 336,-38.4287 336,-30.6432"/>
<polygon fill="#191970" stroke="#191970" points="332.5001,-57.2966 336,-67.2967 339.5001,-57.2967 332.5001,-57.2966"/>
</g>
</g>
</svg>
