<?xml version="1.0" encoding="UTF-8" standalone="no"?>
<!DOCTYPE svg PUBLIC "-//W3C//DTD SVG 1.1//EN"
 "http://www.w3.org/Graphics/SVG/1.1/DTD/svg11.dtd">
<!-- Generated by graphviz version 2.40.1 (20161225.0304)
 -->
<!-- Title: boards/common/stm32/include/f4/cfg_clock_180_8_1.h Pages: 1 -->
<svg width="250pt" height="117pt"
 viewBox="0.00 0.00 250.00 117.00" xmlns="http://www.w3.org/2000/svg" xmlns:xlink="http://www.w3.org/1999/xlink">
<g id="graph0" class="graph" transform="scale(1 1) rotate(0) translate(4 113)">
<title>boards/common/stm32/include/f4/cfg_clock_180_8_1.h</title>
<!-- Node1 -->
<g id="node1" class="node">
<title>Node1</title>
<polygon fill="#bfbfbf" stroke="#000000" points="63,-67.5 63,-108.5 179,-108.5 179,-67.5 63,-67.5"/>
<text text-anchor="start" x="71" y="-96.5" font-family="Helvetica,sans-Serif" font-size="10.00" fill="#000000">boards/common/stm32</text>
<text text-anchor="start" x="71" y="-85.5" font-family="Helvetica,sans-Serif" font-size="10.00" fill="#000000">/include/f4/cfg_clock</text>
<text text-anchor="middle" x="121" y="-74.5" font-family="Helvetica,sans-Serif" font-size="10.00" fill="#000000">_180_8_1.h</text>
</g>
<!-- Node2 -->
<g id="node2" class="node">
<title>Node2</title>
<g id="a_node2"><a xlink:href="boards_2nucleo-f446re_2include_2periph__conf_8h.html" target="_top" xlink:title="boards/nucleo&#45;f446re\l/include/periph_conf.h">
<polygon fill="none" stroke="#000000" points="0,-.5 0,-30.5 112,-30.5 112,-.5 0,-.5"/>
<text text-anchor="start" x="8" y="-18.5" font-family="Helvetica,sans-Serif" font-size="10.00" fill="#000000">boards/nucleo&#45;f446re</text>
<text text-anchor="middle" x="56" y="-7.5" font-family="Helvetica,sans-Serif" font-size="10.00" fill="#000000">/include/periph_conf.h</text>
</a>
</g>
</g>
<!-- Node1&#45;&gt;Node2 -->
<g id="edge1" class="edge">
<title>Node1&#45;&gt;Node2</title>
<path fill="none" stroke="#191970" d="M95.6276,-59.7C86.7309,-49.7768 77.0848,-39.0176 69.5371,-30.5991"/>
<polygon fill="#191970" stroke="#191970" points="93.266,-62.309 102.5475,-67.4183 98.478,-57.6362 93.266,-62.309"/>
</g>
<!-- Node3 -->
<g id="node3" class="node">
<title>Node3</title>
<g id="a_node3"><a xlink:href="boards_2nucleo-f446ze_2include_2periph__conf_8h.html" target="_top" xlink:title="boards/nucleo&#45;f446ze\l/include/periph_conf.h">
<polygon fill="none" stroke="#000000" points="130,-.5 130,-30.5 242,-30.5 242,-.5 130,-.5"/>
<text text-anchor="start" x="138" y="-18.5" font-family="Helvetica,sans-Serif" font-size="10.00" fill="#000000">boards/nucleo&#45;f446ze</text>
<text text-anchor="middle" x="186" y="-7.5" font-family="Helvetica,sans-Serif" font-size="10.00" fill="#000000">/include/periph_conf.h</text>
</a>
</g>
</g>
<!-- Node1&#45;&gt;Node3 -->
<g id="edge2" class="edge">
<title>Node1&#45;&gt;Node3</title>
<path fill="none" stroke="#191970" d="M146.3724,-59.7C155.2691,-49.7768 164.9152,-39.0176 172.4629,-30.5991"/>
<polygon fill="#191970" stroke="#191970" points="143.522,-57.6362 139.4525,-67.4183 148.734,-62.309 143.522,-57.6362"/>
</g>
</g>
</svg>
