<?xml version="1.0" encoding="UTF-8" standalone="no"?>
<!DOCTYPE svg PUBLIC "-//W3C//DTD SVG 1.1//EN"
 "http://www.w3.org/Graphics/SVG/1.1/DTD/svg11.dtd">
<!-- Generated by graphviz version 2.43.0 (0)
 -->
<!-- Title: cpu/stm32/include/clk/mp1/cfg_clock_default_208.h Pages: 1 -->
<svg width="304pt" height="95pt"
 viewBox="0.00 0.00 304.00 95.00" xmlns="http://www.w3.org/2000/svg" xmlns:xlink="http://www.w3.org/1999/xlink">
<g id="graph0" class="graph" transform="scale(1 1) rotate(0) translate(4 91)">
<title>cpu/stm32/include/clk/mp1/cfg_clock_default_208.h</title>
<!-- Node1 -->
<g id="node1" class="node">
<title>Node1</title>
<g id="a_node1"><a xlink:title="Default STM32MP1 clock configuration for 208MHz boards.">
<polygon fill="#bfbfbf" stroke="black" points="69,-56.5 69,-86.5 231,-86.5 231,-56.5 69,-56.5"/>
<text text-anchor="start" x="77" y="-74.5" font-family="Helvetica,sans-Serif" font-size="10.00">cpu/stm32/include/clk</text>
<text text-anchor="middle" x="150" y="-63.5" font-family="Helvetica,sans-Serif" font-size="10.00">/mp1/cfg_clock_default_208.h</text>
</a>
</g>
</g>
<!-- Node2 -->
<g id="node2" class="node">
<title>Node2</title>
<g id="a_node2"><a xlink:href="mp1_2cfg__clock__common_8h.html" target="_top" xlink:title="Base STM32MP1 clock configuration.">
<polygon fill="none" stroke="black" points="0,-0.5 0,-19.5 144,-19.5 144,-0.5 0,-0.5"/>
<text text-anchor="middle" x="72" y="-7.5" font-family="Helvetica,sans-Serif" font-size="10.00">mp1/cfg_clock_common.h</text>
</a>
</g>
</g>
<!-- Node1&#45;&gt;Node2 -->
<g id="edge1" class="edge">
<title>Node1&#45;&gt;Node2</title>
<path fill="none" stroke="midnightblue" d="M131.52,-56.4C119.48,-47.22 103.8,-35.26 91.56,-25.92"/>
<polygon fill="midnightblue" stroke="midnightblue" points="93.42,-22.94 83.35,-19.66 89.18,-28.51 93.42,-22.94"/>
</g>
<!-- Node3 -->
<g id="node3" class="node">
<title>Node3</title>
<g id="a_node3"><a xlink:href="mp1_2cfg__clock__values_8h.html" target="_top" xlink:title="STM32MP1 clock values definitions.">
<polygon fill="none" stroke="black" points="162,-0.5 162,-19.5 296,-19.5 296,-0.5 162,-0.5"/>
<text text-anchor="middle" x="229" y="-7.5" font-family="Helvetica,sans-Serif" font-size="10.00">mp1/cfg_clock_values.h</text>
</a>
</g>
</g>
<!-- Node1&#45;&gt;Node3 -->
<g id="edge2" class="edge">
<title>Node1&#45;&gt;Node3</title>
<path fill="none" stroke="midnightblue" d="M168.72,-56.4C180.91,-47.22 196.79,-35.26 209.19,-25.92"/>
<polygon fill="midnightblue" stroke="midnightblue" points="211.62,-28.47 217.5,-19.66 207.41,-22.88 211.62,-28.47"/>
</g>
</g>
</svg>
