<?xml version="1.0" encoding="UTF-8" standalone="no"?>
<!DOCTYPE svg PUBLIC "-//W3C//DTD SVG 1.1//EN"
 "http://www.w3.org/Graphics/SVG/1.1/DTD/svg11.dtd">
<!-- Generated by graphviz version 2.40.1 (20161225.0304)
 -->
<!-- Title: boards/common/stm32/include/l0/cfg_clock_32_16_1.h Pages: 1 -->
<svg width="766pt" height="117pt"
 viewBox="0.00 0.00 766.00 117.00" xmlns="http://www.w3.org/2000/svg" xmlns:xlink="http://www.w3.org/1999/xlink">
<g id="graph0" class="graph" transform="scale(1 1) rotate(0) translate(4 113)">
<title>boards/common/stm32/include/l0/cfg_clock_32_16_1.h</title>
<!-- Node2 -->
<g id="node1" class="node">
<title>Node2</title>
<polygon fill="#bfbfbf" stroke="#000000" points="320,-67.5 320,-108.5 436,-108.5 436,-67.5 320,-67.5"/>
<text text-anchor="start" x="328" y="-96.5" font-family="Helvetica,sans-Serif" font-size="10.00" fill="#000000">boards/common/stm32</text>
<text text-anchor="start" x="328" y="-85.5" font-family="Helvetica,sans-Serif" font-size="10.00" fill="#000000">/include/l0/cfg_clock</text>
<text text-anchor="middle" x="378" y="-74.5" font-family="Helvetica,sans-Serif" font-size="10.00" fill="#000000">_32_16_1.h</text>
</g>
<!-- Node3 -->
<g id="node2" class="node">
<title>Node3</title>
<g id="a_node2"><a xlink:href="boards_2b-l072z-lrwan1_2include_2periph__conf_8h.html" target="_top" xlink:title="Peripheral MCU configuration for the ST B&#45;L072Z&#45;LRWAN1 board. ">
<polygon fill="none" stroke="#000000" points="0,-.5 0,-30.5 112,-30.5 112,-.5 0,-.5"/>
<text text-anchor="start" x="8" y="-18.5" font-family="Helvetica,sans-Serif" font-size="10.00" fill="#000000">boards/b&#45;l072z&#45;lrwan1</text>
<text text-anchor="middle" x="56" y="-7.5" font-family="Helvetica,sans-Serif" font-size="10.00" fill="#000000">/include/periph_conf.h</text>
</a>
</g>
</g>
<!-- Node2&#45;&gt;Node3 -->
<g id="edge1" class="edge">
<title>Node2&#45;&gt;Node3</title>
<path fill="none" stroke="#191970" d="M309.6872,-73.1572C257.8622,-61.8221 184.8847,-45.7005 121,-31 118.0605,-30.3236 115.0477,-29.6247 112.0066,-28.9149"/>
<polygon fill="#191970" stroke="#191970" points="309.2445,-76.643 319.7612,-75.3586 310.7389,-69.8044 309.2445,-76.643"/>
</g>
<!-- Node4 -->
<g id="node3" class="node">
<title>Node4</title>
<g id="a_node3"><a xlink:href="boards_2i-nucleo-lrwan1_2include_2periph__conf_8h.html" target="_top" xlink:title="Peripheral MCU configuration for the ST I&#45;NUCLEO&#45;LRWAN1 board. ">
<polygon fill="none" stroke="#000000" points="130,-.5 130,-30.5 244,-30.5 244,-.5 130,-.5"/>
<text text-anchor="start" x="138" y="-18.5" font-family="Helvetica,sans-Serif" font-size="10.00" fill="#000000">boards/i&#45;nucleo&#45;lrwan1</text>
<text text-anchor="middle" x="187" y="-7.5" font-family="Helvetica,sans-Serif" font-size="10.00" fill="#000000">/include/periph_conf.h</text>
</a>
</g>
</g>
<!-- Node2&#45;&gt;Node4 -->
<g id="edge2" class="edge">
<title>Node2&#45;&gt;Node4</title>
<path fill="none" stroke="#191970" d="M314.1661,-63.7699C285.2781,-52.8045 252.031,-40.1845 226.7783,-30.5991"/>
<polygon fill="#191970" stroke="#191970" points="313.1867,-67.1417 323.778,-67.4183 315.6709,-60.5973 313.1867,-67.1417"/>
</g>
<!-- Node5 -->
<g id="node4" class="node">
<title>Node5</title>
<g id="a_node4"><a xlink:href="boards_2lsn50_2include_2periph__conf_8h.html" target="_top" xlink:title="Peripheral MCU configuration for the LSN50 board. ">
<polygon fill="none" stroke="#000000" points="262,-.5 262,-30.5 368,-30.5 368,-.5 262,-.5"/>
<text text-anchor="start" x="270" y="-18.5" font-family="Helvetica,sans-Serif" font-size="10.00" fill="#000000">boards/lsn50/include</text>
<text text-anchor="middle" x="315" y="-7.5" font-family="Helvetica,sans-Serif" font-size="10.00" fill="#000000">/periph_conf.h</text>
</a>
</g>
</g>
<!-- Node2&#45;&gt;Node5 -->
<g id="edge3" class="edge">
<title>Node2&#45;&gt;Node5</title>
<path fill="none" stroke="#191970" d="M353.4083,-59.7C344.7854,-49.7768 335.436,-39.0176 328.1206,-30.5991"/>
<polygon fill="#191970" stroke="#191970" points="350.9141,-62.1658 360.1152,-67.4183 356.1979,-57.5743 350.9141,-62.1658"/>
</g>
<!-- Node6 -->
<g id="node5" class="node">
<title>Node6</title>
<g id="a_node5"><a xlink:href="boards_2nucleo-l031k6_2include_2periph__conf_8h.html" target="_top" xlink:title="Peripheral MCU configuration for the nucleo&#45;l031k6 board. ">
<polygon fill="none" stroke="#000000" points="386,-.5 386,-30.5 498,-30.5 498,-.5 386,-.5"/>
<text text-anchor="start" x="394" y="-18.5" font-family="Helvetica,sans-Serif" font-size="10.00" fill="#000000">boards/nucleo&#45;l031k6</text>
<text text-anchor="middle" x="442" y="-7.5" font-family="Helvetica,sans-Serif" font-size="10.00" fill="#000000">/include/periph_conf.h</text>
</a>
</g>
</g>
<!-- Node2&#45;&gt;Node6 -->
<g id="edge4" class="edge">
<title>Node2&#45;&gt;Node6</title>
<path fill="none" stroke="#191970" d="M402.982,-59.7C411.7419,-49.7768 421.2396,-39.0176 428.6711,-30.5991"/>
<polygon fill="#191970" stroke="#191970" points="400.1627,-57.6052 396.1686,-67.4183 405.4105,-62.2377 400.1627,-57.6052"/>
</g>
<!-- Node7 -->
<g id="node6" class="node">
<title>Node7</title>
<g id="a_node6"><a xlink:href="boards_2nucleo-l053r8_2include_2periph__conf_8h.html" target="_top" xlink:title="Peripheral MCU configuration for the nucleo&#45;l053r8 board. ">
<polygon fill="none" stroke="#000000" points="516,-.5 516,-30.5 628,-30.5 628,-.5 516,-.5"/>
<text text-anchor="start" x="524" y="-18.5" font-family="Helvetica,sans-Serif" font-size="10.00" fill="#000000">boards/nucleo&#45;l053r8</text>
<text text-anchor="middle" x="572" y="-7.5" font-family="Helvetica,sans-Serif" font-size="10.00" fill="#000000">/include/periph_conf.h</text>
</a>
</g>
</g>
<!-- Node2&#45;&gt;Node7 -->
<g id="edge5" class="edge">
<title>Node2&#45;&gt;Node7</title>
<path fill="none" stroke="#191970" d="M442.454,-63.9128C471.8844,-52.9143 505.8361,-40.2262 531.5969,-30.5991"/>
<polygon fill="#191970" stroke="#191970" points="441.2157,-60.6391 433.0737,-67.4183 443.6662,-67.1962 441.2157,-60.6391"/>
</g>
<!-- Node8 -->
<g id="node7" class="node">
<title>Node8</title>
<g id="a_node7"><a xlink:href="boards_2nucleo-l073rz_2include_2periph__conf_8h.html" target="_top" xlink:title="Peripheral MCU configuration for the nucleo&#45;l073rz board. ">
<polygon fill="none" stroke="#000000" points="646,-.5 646,-30.5 758,-30.5 758,-.5 646,-.5"/>
<text text-anchor="start" x="654" y="-18.5" font-family="Helvetica,sans-Serif" font-size="10.00" fill="#000000">boards/nucleo&#45;l073rz</text>
<text text-anchor="middle" x="702" y="-7.5" font-family="Helvetica,sans-Serif" font-size="10.00" fill="#000000">/include/periph_conf.h</text>
</a>
</g>
</g>
<!-- Node2&#45;&gt;Node8 -->
<g id="edge6" class="edge">
<title>Node2&#45;&gt;Node8</title>
<path fill="none" stroke="#191970" d="M446.0132,-73.3715C498.2941,-62.0445 572.2844,-45.8361 637,-31 639.94,-30.326 642.9533,-29.629 645.9947,-28.9207"/>
<polygon fill="#191970" stroke="#191970" points="445.2169,-69.9627 436.1836,-75.499 446.6977,-76.8043 445.2169,-69.9627"/>
</g>
</g>
</svg>
