<?xml version="1.0" encoding="UTF-8" standalone="no"?>
<!DOCTYPE svg PUBLIC "-//W3C//DTD SVG 1.1//EN"
 "http://www.w3.org/Graphics/SVG/1.1/DTD/svg11.dtd">
<!-- Generated by graphviz version 2.40.1 (20161225.0304)
 -->
<!-- Title: sys/include/crypto/chacha20poly1305.h Pages: 1 -->
<svg width="128pt" height="151pt"
 viewBox="0.00 0.00 127.50 151.00" xmlns="http://www.w3.org/2000/svg" xmlns:xlink="http://www.w3.org/1999/xlink">
<g id="graph0" class="graph" transform="scale(1 1) rotate(0) translate(4 147)">
<title>sys/include/crypto/chacha20poly1305.h</title>
<!-- Node0 -->
<g id="node1" class="node">
<title>Node0</title>
<polygon fill="#bfbfbf" stroke="#000000" points="5.5,-112.5 5.5,-142.5 114.5,-142.5 114.5,-112.5 5.5,-112.5"/>
<text text-anchor="start" x="13.5" y="-130.5" font-family="Helvetica,sans-Serif" font-size="10.00" fill="#000000">sys/include/crypto</text>
<text text-anchor="middle" x="60" y="-119.5" font-family="Helvetica,sans-Serif" font-size="10.00" fill="#000000">/chacha20poly1305.h</text>
</g>
<!-- Node1 -->
<g id="node2" class="node">
<title>Node1</title>
<g id="a_node2"><a xlink:href="poly1305_8h.html" target="_top" xlink:title="Poly1305 MAC interface. ">
<polygon fill="none" stroke="#000000" points="13,-56.5 13,-75.5 107,-75.5 107,-56.5 13,-56.5"/>
<text text-anchor="middle" x="60" y="-63.5" font-family="Helvetica,sans-Serif" font-size="10.00" fill="#000000">crypto/poly1305.h</text>
</a>
</g>
</g>
<!-- Node0&#45;&gt;Node1 -->
<g id="edge1" class="edge">
<title>Node0&#45;&gt;Node1</title>
<path fill="none" stroke="#191970" d="M60,-112.2977C60,-104.3834 60,-94.6043 60,-86.0759"/>
<polygon fill="#191970" stroke="#191970" points="63.5001,-85.8469 60,-75.8469 56.5001,-85.847 63.5001,-85.8469"/>
</g>
<!-- Node2 -->
<g id="node3" class="node">
<title>Node2</title>
<polygon fill="none" stroke="#bfbfbf" points="0,-.5 0,-19.5 52,-19.5 52,-.5 0,-.5"/>
<text text-anchor="middle" x="26" y="-7.5" font-family="Helvetica,sans-Serif" font-size="10.00" fill="#000000">stddef.h</text>
</g>
<!-- Node1&#45;&gt;Node2 -->
<g id="edge2" class="edge">
<title>Node1&#45;&gt;Node2</title>
<path fill="none" stroke="#191970" d="M54.0777,-56.2455C49.3973,-48.5367 42.7327,-37.5598 37.0711,-28.2348"/>
<polygon fill="#191970" stroke="#191970" points="40.0361,-26.3741 31.8545,-19.6427 34.0525,-30.007 40.0361,-26.3741"/>
</g>
<!-- Node3 -->
<g id="node4" class="node">
<title>Node3</title>
<polygon fill="none" stroke="#bfbfbf" points="70.5,-.5 70.5,-19.5 119.5,-19.5 119.5,-.5 70.5,-.5"/>
<text text-anchor="middle" x="95" y="-7.5" font-family="Helvetica,sans-Serif" font-size="10.00" fill="#000000">stdint.h</text>
</g>
<!-- Node1&#45;&gt;Node3 -->
<g id="edge3" class="edge">
<title>Node1&#45;&gt;Node3</title>
<path fill="none" stroke="#191970" d="M66.0965,-56.2455C70.9145,-48.5367 77.7751,-37.5598 83.6032,-28.2348"/>
<polygon fill="#191970" stroke="#191970" points="86.6413,-29.9777 88.9733,-19.6427 80.7053,-26.2677 86.6413,-29.9777"/>
</g>
</g>
</svg>
