<?xml version="1.0" encoding="UTF-8" standalone="no"?>
<!DOCTYPE svg PUBLIC "-//W3C//DTD SVG 1.1//EN"
 "http://www.w3.org/Graphics/SVG/1.1/DTD/svg11.dtd">
<!-- Generated by graphviz version 2.40.1 (20161225.0304)
 -->
<!-- Title: core/include/cib.h Pages: 1 -->
<svg width="101pt" height="252pt"
 viewBox="0.00 0.00 101.00 252.00" xmlns="http://www.w3.org/2000/svg" xmlns:xlink="http://www.w3.org/1999/xlink">
<g id="graph0" class="graph" transform="scale(1 1) rotate(0) translate(4 248)">
<title>core/include/cib.h</title>
<!-- Node0 -->
<g id="node1" class="node">
<title>Node0</title>
<polygon fill="#bfbfbf" stroke="#000000" points="0,-224.5 0,-243.5 93,-243.5 93,-224.5 0,-224.5"/>
<text text-anchor="middle" x="46.5" y="-231.5" font-family="Helvetica,sans-Serif" font-size="10.00" fill="#000000">core/include/cib.h</text>
</g>
<!-- Node1 -->
<g id="node2" class="node">
<title>Node1</title>
<g id="a_node2"><a xlink:href="assert_8h.html" target="_top" xlink:title="POSIX.1&#45;2008 compliant version of the assert macro. ">
<polygon fill="none" stroke="#000000" points="20.5,-168.5 20.5,-187.5 72.5,-187.5 72.5,-168.5 20.5,-168.5"/>
<text text-anchor="middle" x="46.5" y="-175.5" font-family="Helvetica,sans-Serif" font-size="10.00" fill="#000000">assert.h</text>
</a>
</g>
</g>
<!-- Node0&#45;&gt;Node1 -->
<g id="edge1" class="edge">
<title>Node0&#45;&gt;Node1</title>
<path fill="none" stroke="#191970" d="M46.5,-224.2455C46.5,-216.9382 46.5,-206.6944 46.5,-197.7046"/>
<polygon fill="#191970" stroke="#191970" points="50.0001,-197.6426 46.5,-187.6427 43.0001,-197.6427 50.0001,-197.6426"/>
</g>
<!-- Node2 -->
<g id="node3" class="node">
<title>Node2</title>
<g id="a_node3"><a xlink:href="panic_8h.html" target="_top" xlink:title="Crash handling header. ">
<polygon fill="none" stroke="#000000" points="22.5,-112.5 22.5,-131.5 70.5,-131.5 70.5,-112.5 22.5,-112.5"/>
<text text-anchor="middle" x="46.5" y="-119.5" font-family="Helvetica,sans-Serif" font-size="10.00" fill="#000000">panic.h</text>
</a>
</g>
</g>
<!-- Node1&#45;&gt;Node2 -->
<g id="edge2" class="edge">
<title>Node1&#45;&gt;Node2</title>
<path fill="none" stroke="#191970" d="M46.5,-168.2455C46.5,-160.9382 46.5,-150.6944 46.5,-141.7046"/>
<polygon fill="#191970" stroke="#191970" points="50.0001,-141.6426 46.5,-131.6427 43.0001,-141.6427 50.0001,-141.6426"/>
</g>
<!-- Node3 -->
<g id="node4" class="node">
<title>Node3</title>
<g id="a_node4"><a xlink:href="kernel__defines_8h.html" target="_top" xlink:title="Common macros and compiler attributes/pragmas configuration. ">
<polygon fill="none" stroke="#000000" points="2.5,-56.5 2.5,-75.5 90.5,-75.5 90.5,-56.5 2.5,-56.5"/>
<text text-anchor="middle" x="46.5" y="-63.5" font-family="Helvetica,sans-Serif" font-size="10.00" fill="#000000">kernel_defines.h</text>
</a>
</g>
</g>
<!-- Node2&#45;&gt;Node3 -->
<g id="edge3" class="edge">
<title>Node2&#45;&gt;Node3</title>
<path fill="none" stroke="#191970" d="M46.5,-112.2455C46.5,-104.9382 46.5,-94.6944 46.5,-85.7046"/>
<polygon fill="#191970" stroke="#191970" points="50.0001,-85.6426 46.5,-75.6427 43.0001,-85.6427 50.0001,-85.6426"/>
</g>
<!-- Node4 -->
<g id="node5" class="node">
<title>Node4</title>
<polygon fill="none" stroke="#bfbfbf" points="20.5,-.5 20.5,-19.5 72.5,-19.5 72.5,-.5 20.5,-.5"/>
<text text-anchor="middle" x="46.5" y="-7.5" font-family="Helvetica,sans-Serif" font-size="10.00" fill="#000000">stddef.h</text>
</g>
<!-- Node3&#45;&gt;Node4 -->
<g id="edge4" class="edge">
<title>Node3&#45;&gt;Node4</title>
<path fill="none" stroke="#191970" d="M46.5,-56.2455C46.5,-48.9382 46.5,-38.6944 46.5,-29.7046"/>
<polygon fill="#191970" stroke="#191970" points="50.0001,-29.6426 46.5,-19.6427 43.0001,-29.6427 50.0001,-29.6426"/>
</g>
</g>
</svg>
