<?xml version="1.0" encoding="UTF-8" standalone="no"?>
<!DOCTYPE svg PUBLIC "-//W3C//DTD SVG 1.1//EN"
 "http://www.w3.org/Graphics/SVG/1.1/DTD/svg11.dtd">
<!-- Generated by graphviz version 2.43.0 (0)
 -->
<!-- Title: sys/include/crypto/ciphers.h Pages: 1 -->
<svg width="855pt" height="106pt"
 viewBox="0.00 0.00 855.00 106.00" xmlns="http://www.w3.org/2000/svg" xmlns:xlink="http://www.w3.org/1999/xlink">
<g id="graph0" class="graph" transform="scale(1 1) rotate(0) translate(4 102)">
<title>sys/include/crypto/ciphers.h</title>
<!-- Node1 -->
<g id="node1" class="node">
<title>Node1</title>
<g id="a_node1"><a xlink:title="Headers for the packet encryption class. They are used to encrypt single packets.">
<polygon fill="#bfbfbf" stroke="black" points="369,-67.5 369,-97.5 474,-97.5 474,-67.5 369,-67.5"/>
<text text-anchor="start" x="377" y="-85.5" font-family="Helvetica,sans-Serif" font-size="10.00">sys/include/crypto</text>
<text text-anchor="middle" x="421.5" y="-74.5" font-family="Helvetica,sans-Serif" font-size="10.00">/ciphers.h</text>
</a>
</g>
</g>
<!-- Node2 -->
<g id="node2" class="node">
<title>Node2</title>
<g id="a_node2"><a xlink:href="aes_8h.html" target="_top" xlink:title="Headers for the implementation of the AES cipher&#45;algorithm.">
<polygon fill="none" stroke="black" points="0,-0.5 0,-30.5 105,-30.5 105,-0.5 0,-0.5"/>
<text text-anchor="start" x="8" y="-18.5" font-family="Helvetica,sans-Serif" font-size="10.00">sys/include/crypto</text>
<text text-anchor="middle" x="52.5" y="-7.5" font-family="Helvetica,sans-Serif" font-size="10.00">/aes.h</text>
</a>
</g>
</g>
<!-- Node1&#45;&gt;Node2 -->
<g id="edge1" class="edge">
<title>Node1&#45;&gt;Node2</title>
<path fill="none" stroke="midnightblue" d="M358.9,-72.57C296.5,-63.35 198.05,-47.96 113.5,-31 110.73,-30.44 107.88,-29.85 105.02,-29.23"/>
<polygon fill="midnightblue" stroke="midnightblue" points="358.58,-76.06 368.98,-74.05 359.59,-69.13 358.58,-76.06"/>
</g>
<!-- Node3 -->
<g id="node3" class="node">
<title>Node3</title>
<g id="a_node3"><a xlink:href="cbc_8h.html" target="_top" xlink:title="Cipher block chaining mode of operation for block ciphers.">
<polygon fill="none" stroke="black" points="123,-0.5 123,-30.5 228,-30.5 228,-0.5 123,-0.5"/>
<text text-anchor="start" x="131" y="-18.5" font-family="Helvetica,sans-Serif" font-size="10.00">sys/include/crypto</text>
<text text-anchor="middle" x="175.5" y="-7.5" font-family="Helvetica,sans-Serif" font-size="10.00">/modes/cbc.h</text>
</a>
</g>
</g>
<!-- Node1&#45;&gt;Node3 -->
<g id="edge2" class="edge">
<title>Node1&#45;&gt;Node3</title>
<path fill="none" stroke="midnightblue" d="M358.98,-64.98C318.55,-54.3 266.51,-40.55 228.19,-30.42"/>
<polygon fill="midnightblue" stroke="midnightblue" points="358.16,-68.39 368.73,-67.56 359.95,-61.62 358.16,-68.39"/>
</g>
<!-- Node4 -->
<g id="node4" class="node">
<title>Node4</title>
<g id="a_node4"><a xlink:href="ccm_8h.html" target="_top" xlink:title="Counter with CBC&#45;MAC mode of operation for block ciphers.">
<polygon fill="none" stroke="black" points="246,-0.5 246,-30.5 351,-30.5 351,-0.5 246,-0.5"/>
<text text-anchor="start" x="254" y="-18.5" font-family="Helvetica,sans-Serif" font-size="10.00">sys/include/crypto</text>
<text text-anchor="middle" x="298.5" y="-7.5" font-family="Helvetica,sans-Serif" font-size="10.00">/modes/ccm.h</text>
</a>
</g>
</g>
<!-- Node1&#45;&gt;Node4 -->
<g id="edge3" class="edge">
<title>Node1&#45;&gt;Node4</title>
<path fill="none" stroke="midnightblue" d="M385.95,-62.71C366.55,-52.46 342.94,-39.98 325.14,-30.58"/>
<polygon fill="midnightblue" stroke="midnightblue" points="384.33,-65.82 394.81,-67.4 387.6,-59.63 384.33,-65.82"/>
</g>
<!-- Node5 -->
<g id="node5" class="node">
<title>Node5</title>
<g id="a_node5"><a xlink:href="ctr_8h.html" target="_top" xlink:title="Counter mode of operation for block ciphers.">
<polygon fill="none" stroke="black" points="369,-0.5 369,-30.5 474,-30.5 474,-0.5 369,-0.5"/>
<text text-anchor="start" x="377" y="-18.5" font-family="Helvetica,sans-Serif" font-size="10.00">sys/include/crypto</text>
<text text-anchor="middle" x="421.5" y="-7.5" font-family="Helvetica,sans-Serif" font-size="10.00">/modes/ctr.h</text>
</a>
</g>
</g>
<!-- Node1&#45;&gt;Node5 -->
<g id="edge4" class="edge">
<title>Node1&#45;&gt;Node5</title>
<path fill="none" stroke="midnightblue" d="M421.5,-57.11C421.5,-48.15 421.5,-38.32 421.5,-30.58"/>
<polygon fill="midnightblue" stroke="midnightblue" points="418,-57.4 421.5,-67.4 425,-57.4 418,-57.4"/>
</g>
<!-- Node6 -->
<g id="node6" class="node">
<title>Node6</title>
<g id="a_node6"><a xlink:href="ecb_8h.html" target="_top" xlink:title="Electronic code book mode of operation for block ciphers.">
<polygon fill="none" stroke="black" points="492,-0.5 492,-30.5 597,-30.5 597,-0.5 492,-0.5"/>
<text text-anchor="start" x="500" y="-18.5" font-family="Helvetica,sans-Serif" font-size="10.00">sys/include/crypto</text>
<text text-anchor="middle" x="544.5" y="-7.5" font-family="Helvetica,sans-Serif" font-size="10.00">/modes/ecb.h</text>
</a>
</g>
</g>
<!-- Node1&#45;&gt;Node6 -->
<g id="edge5" class="edge">
<title>Node1&#45;&gt;Node6</title>
<path fill="none" stroke="midnightblue" d="M457.05,-62.71C476.45,-52.46 500.06,-39.98 517.86,-30.58"/>
<polygon fill="midnightblue" stroke="midnightblue" points="455.4,-59.63 448.19,-67.4 458.67,-65.82 455.4,-59.63"/>
</g>
<!-- Node7 -->
<g id="node7" class="node">
<title>Node7</title>
<g id="a_node7"><a xlink:href="ocb_8h.html" target="_top" xlink:title="Offset Codebook (OCB3) AEAD mode as specified in RFC 7253.">
<polygon fill="none" stroke="black" points="615,-0.5 615,-30.5 720,-30.5 720,-0.5 615,-0.5"/>
<text text-anchor="start" x="623" y="-18.5" font-family="Helvetica,sans-Serif" font-size="10.00">sys/include/crypto</text>
<text text-anchor="middle" x="667.5" y="-7.5" font-family="Helvetica,sans-Serif" font-size="10.00">/modes/ocb.h</text>
</a>
</g>
</g>
<!-- Node1&#45;&gt;Node7 -->
<g id="edge6" class="edge">
<title>Node1&#45;&gt;Node7</title>
<path fill="none" stroke="midnightblue" d="M484.02,-64.98C524.45,-54.3 576.49,-40.55 614.81,-30.42"/>
<polygon fill="midnightblue" stroke="midnightblue" points="483.05,-61.62 474.27,-67.56 484.84,-68.39 483.05,-61.62"/>
</g>
<!-- Node8 -->
<g id="node8" class="node">
<title>Node8</title>
<g id="a_node8"><a xlink:href="cmac_8h.html" target="_top" xlink:title="AES_CMAC interface definition.">
<polygon fill="none" stroke="black" points="738,-0.5 738,-30.5 847,-30.5 847,-0.5 738,-0.5"/>
<text text-anchor="start" x="746" y="-18.5" font-family="Helvetica,sans-Serif" font-size="10.00">sys/include/hashes</text>
<text text-anchor="middle" x="792.5" y="-7.5" font-family="Helvetica,sans-Serif" font-size="10.00">/cmac.h</text>
</a>
</g>
</g>
<!-- Node1&#45;&gt;Node8 -->
<g id="edge7" class="edge">
<title>Node1&#45;&gt;Node8</title>
<path fill="none" stroke="midnightblue" d="M484.35,-72.39C546.74,-63.07 645.02,-47.63 729.5,-31 732.25,-30.46 735.07,-29.88 737.91,-29.29"/>
<polygon fill="midnightblue" stroke="midnightblue" points="483.65,-68.96 474.27,-73.89 484.68,-75.88 483.65,-68.96"/>
</g>
</g>
</svg>
