<?xml version="1.0" encoding="UTF-8" standalone="no"?>
<!DOCTYPE svg PUBLIC "-//W3C//DTD SVG 1.1//EN"
 "http://www.w3.org/Graphics/SVG/1.1/DTD/svg11.dtd">
<!-- Generated by graphviz version 2.40.1 (20161225.0304)
 -->
<!-- Title: sys/include/net/dhcpv6/client.h Pages: 1 -->
<svg width="333pt" height="263pt"
 viewBox="0.00 0.00 333.00 263.00" xmlns="http://www.w3.org/2000/svg" xmlns:xlink="http://www.w3.org/1999/xlink">
<g id="graph0" class="graph" transform="scale(1 1) rotate(0) translate(4 259)">
<title>sys/include/net/dhcpv6/client.h</title>
<!-- Node0 -->
<g id="node1" class="node">
<title>Node0</title>
<polygon fill="#bfbfbf" stroke="#000000" points="159.5,-224.5 159.5,-254.5 276.5,-254.5 276.5,-224.5 159.5,-224.5"/>
<text text-anchor="start" x="167.5" y="-242.5" font-family="Helvetica,sans-Serif" font-size="10.00" fill="#000000">sys/include/net/dhcpv6</text>
<text text-anchor="middle" x="218" y="-231.5" font-family="Helvetica,sans-Serif" font-size="10.00" fill="#000000">/client.h</text>
</g>
<!-- Node1 -->
<g id="node2" class="node">
<title>Node1</title>
<g id="a_node2"><a xlink:href="byteorder_8h.html" target="_top" xlink:title="Functions to work with different byte orders. ">
<polygon fill="none" stroke="#000000" points="155.5,-56.5 155.5,-75.5 220.5,-75.5 220.5,-56.5 155.5,-56.5"/>
<text text-anchor="middle" x="188" y="-63.5" font-family="Helvetica,sans-Serif" font-size="10.00" fill="#000000">byteorder.h</text>
</a>
</g>
</g>
<!-- Node0&#45;&gt;Node1 -->
<g id="edge1" class="edge">
<title>Node0&#45;&gt;Node1</title>
<path fill="none" stroke="#191970" d="M221.0011,-224.2484C222.8541,-214.0369 225.0527,-200.269 226,-188 226.6842,-179.1375 227.5766,-176.748 226,-168 220.5484,-137.7511 206.6849,-104.7655 197.299,-84.7311"/>
<polygon fill="#191970" stroke="#191970" points="200.3562,-83.0124 192.8672,-75.518 194.0481,-86.0468 200.3562,-83.0124"/>
</g>
<!-- Node3 -->
<g id="node4" class="node">
<title>Node3</title>
<polygon fill="none" stroke="#bfbfbf" points="167.5,-168.5 167.5,-187.5 216.5,-187.5 216.5,-168.5 167.5,-168.5"/>
<text text-anchor="middle" x="192" y="-175.5" font-family="Helvetica,sans-Serif" font-size="10.00" fill="#000000">event.h</text>
</g>
<!-- Node0&#45;&gt;Node3 -->
<g id="edge3" class="edge">
<title>Node0&#45;&gt;Node3</title>
<path fill="none" stroke="#191970" d="M211.573,-224.2977C208.1143,-216.1166 203.8133,-205.943 200.1246,-197.2179"/>
<polygon fill="#191970" stroke="#191970" points="203.2807,-195.6947 196.1629,-187.8469 196.8332,-198.4205 203.2807,-195.6947"/>
</g>
<!-- Node4 -->
<g id="node5" class="node">
<title>Node4</title>
<g id="a_node5"><a xlink:href="ipv6_2addr_8h.html" target="_top" xlink:title="Definitions for IPv6 addresses. ">
<polygon fill="none" stroke="#000000" points="68.5,-168.5 68.5,-187.5 149.5,-187.5 149.5,-168.5 68.5,-168.5"/>
<text text-anchor="middle" x="109" y="-175.5" font-family="Helvetica,sans-Serif" font-size="10.00" fill="#000000">net/ipv6/addr.h</text>
</a>
</g>
</g>
<!-- Node0&#45;&gt;Node4 -->
<g id="edge4" class="edge">
<title>Node0&#45;&gt;Node4</title>
<path fill="none" stroke="#191970" d="M191.3356,-224.4554C174.1059,-214.734 151.8025,-202.15 134.7554,-192.5317"/>
<polygon fill="#191970" stroke="#191970" points="136.3204,-189.3961 125.8911,-187.5303 132.8806,-195.4926 136.3204,-189.3961"/>
</g>
<!-- Node8 -->
<g id="node9" class="node">
<title>Node8</title>
<polygon fill="none" stroke="#bfbfbf" points="273,-168.5 273,-187.5 325,-187.5 325,-168.5 273,-168.5"/>
<text text-anchor="middle" x="299" y="-175.5" font-family="Helvetica,sans-Serif" font-size="10.00" fill="#000000">thread.h</text>
</g>
<!-- Node0&#45;&gt;Node8 -->
<g id="edge12" class="edge">
<title>Node0&#45;&gt;Node8</title>
<path fill="none" stroke="#191970" d="M238.0225,-224.2977C250.086,-215.1384 265.4388,-203.4816 277.7211,-194.1562"/>
<polygon fill="#191970" stroke="#191970" points="280.1829,-196.6816 286.0309,-187.8469 275.9499,-191.1065 280.1829,-196.6816"/>
</g>
<!-- Node2 -->
<g id="node3" class="node">
<title>Node2</title>
<polygon fill="none" stroke="#bfbfbf" points="114.5,-.5 114.5,-19.5 163.5,-19.5 163.5,-.5 114.5,-.5"/>
<text text-anchor="middle" x="139" y="-7.5" font-family="Helvetica,sans-Serif" font-size="10.00" fill="#000000">stdint.h</text>
</g>
<!-- Node1&#45;&gt;Node2 -->
<g id="edge2" class="edge">
<title>Node1&#45;&gt;Node2</title>
<path fill="none" stroke="#191970" d="M179.4649,-56.2455C172.5088,-48.2958 162.5117,-36.8706 154.1949,-27.3656"/>
<polygon fill="#191970" stroke="#191970" points="156.6564,-24.8637 147.4373,-19.6427 151.3884,-29.4732 156.6564,-24.8637"/>
</g>
<!-- Node4&#45;&gt;Node1 -->
<g id="edge7" class="edge">
<title>Node4&#45;&gt;Node1</title>
<path fill="none" stroke="#191970" d="M140.5032,-168.3744C157.8159,-161.2912 177.796,-149.7494 188,-132 196.0211,-118.0477 195.2407,-99.5384 192.9022,-85.6722"/>
<polygon fill="#191970" stroke="#191970" points="196.2957,-84.7998 190.8311,-75.723 189.4426,-86.2265 196.2957,-84.7998"/>
</g>
<!-- Node5 -->
<g id="node6" class="node">
<title>Node5</title>
<polygon fill="none" stroke="#bfbfbf" points="0,-56.5 0,-75.5 56,-75.5 56,-56.5 0,-56.5"/>
<text text-anchor="middle" x="28" y="-63.5" font-family="Helvetica,sans-Serif" font-size="10.00" fill="#000000">stdbool.h</text>
</g>
<!-- Node4&#45;&gt;Node5 -->
<g id="edge5" class="edge">
<title>Node4&#45;&gt;Node5</title>
<path fill="none" stroke="#191970" d="M71.318,-168.3393C52.7287,-161.4646 31.9848,-150.137 21,-132 12.533,-118.0201 15.5977,-99.2699 20.0147,-85.3276"/>
<polygon fill="#191970" stroke="#191970" points="23.3649,-86.3558 23.4873,-75.7616 16.785,-83.9671 23.3649,-86.3558"/>
</g>
<!-- Node6 -->
<g id="node7" class="node">
<title>Node6</title>
<polygon fill="none" stroke="#bfbfbf" points="129.5,-112.5 129.5,-131.5 178.5,-131.5 178.5,-112.5 129.5,-112.5"/>
<text text-anchor="middle" x="154" y="-119.5" font-family="Helvetica,sans-Serif" font-size="10.00" fill="#000000">string.h</text>
</g>
<!-- Node4&#45;&gt;Node6 -->
<g id="edge6" class="edge">
<title>Node4&#45;&gt;Node6</title>
<path fill="none" stroke="#191970" d="M116.8384,-168.2455C123.162,-160.3761 132.2224,-149.101 139.8136,-139.6542"/>
<polygon fill="#191970" stroke="#191970" points="142.7158,-141.6302 146.2514,-131.6427 137.2592,-137.2454 142.7158,-141.6302"/>
</g>
<!-- Node7 -->
<g id="node8" class="node">
<title>Node7</title>
<g id="a_node8"><a xlink:href="ipv4_2addr_8h.html" target="_top" xlink:title="IPv6 address type and helper functions definitions. ">
<polygon fill="none" stroke="#000000" points="30.5,-112.5 30.5,-131.5 111.5,-131.5 111.5,-112.5 30.5,-112.5"/>
<text text-anchor="middle" x="71" y="-119.5" font-family="Helvetica,sans-Serif" font-size="10.00" fill="#000000">net/ipv4/addr.h</text>
</a>
</g>
</g>
<!-- Node4&#45;&gt;Node7 -->
<g id="edge8" class="edge">
<title>Node4&#45;&gt;Node7</title>
<path fill="none" stroke="#191970" d="M102.3809,-168.2455C97.0954,-160.4564 89.5459,-149.3308 83.1762,-139.9439"/>
<polygon fill="#191970" stroke="#191970" points="86.0545,-137.9522 77.5432,-131.6427 80.2621,-141.8827 86.0545,-137.9522"/>
</g>
<!-- Node7&#45;&gt;Node1 -->
<g id="edge11" class="edge">
<title>Node7&#45;&gt;Node1</title>
<path fill="none" stroke="#191970" d="M91.113,-112.3733C109.8103,-103.4241 137.8744,-89.9917 158.9934,-79.8835"/>
<polygon fill="#191970" stroke="#191970" points="160.6405,-82.9755 168.1494,-75.5011 157.6183,-76.6614 160.6405,-82.9755"/>
</g>
<!-- Node7&#45;&gt;Node2 -->
<g id="edge10" class="edge">
<title>Node7&#45;&gt;Node2</title>
<path fill="none" stroke="#191970" d="M76.7976,-112.4509C88.1392,-93.7707 113.4249,-52.1238 128.0252,-28.0761"/>
<polygon fill="#191970" stroke="#191970" points="131.019,-29.8892 133.217,-19.5249 125.0354,-26.2563 131.019,-29.8892"/>
</g>
<!-- Node7&#45;&gt;Node5 -->
<g id="edge9" class="edge">
<title>Node7&#45;&gt;Node5</title>
<path fill="none" stroke="#191970" d="M63.51,-112.2455C57.4674,-104.3761 48.8097,-93.101 41.5559,-83.6542"/>
<polygon fill="#191970" stroke="#191970" points="44.2705,-81.4426 35.4042,-75.6427 38.7185,-85.7058 44.2705,-81.4426"/>
</g>
</g>
</svg>
