<?xml version="1.0" encoding="UTF-8" standalone="no"?>
<!DOCTYPE svg PUBLIC "-//W3C//DTD SVG 1.1//EN"
 "http://www.w3.org/Graphics/SVG/1.1/DTD/svg11.dtd">
<!-- Generated by graphviz version 2.40.1 (20161225.0304)
 -->
<!-- Title: sys/include/color.h Pages: 1 -->
<svg width="697pt" height="151pt"
 viewBox="0.00 0.00 696.50 151.00" xmlns="http://www.w3.org/2000/svg" xmlns:xlink="http://www.w3.org/1999/xlink">
<g id="graph0" class="graph" transform="scale(1 1) rotate(0) translate(4 147)">
<title>sys/include/color.h</title>
<!-- Node2 -->
<g id="node1" class="node">
<title>Node2</title>
<polygon fill="#bfbfbf" stroke="#000000" points="299,-123.5 299,-142.5 397,-142.5 397,-123.5 299,-123.5"/>
<text text-anchor="middle" x="348" y="-130.5" font-family="Helvetica,sans-Serif" font-size="10.00" fill="#000000">sys/include/color.h</text>
</g>
<!-- Node3 -->
<g id="node2" class="node">
<title>Node3</title>
<g id="a_node2"><a xlink:href="apa102_8h.html" target="_top" xlink:title="Interface for controlling APA102 LEDs. ">
<polygon fill="none" stroke="#000000" points="0,-67.5 0,-86.5 122,-86.5 122,-67.5 0,-67.5"/>
<text text-anchor="middle" x="61" y="-74.5" font-family="Helvetica,sans-Serif" font-size="10.00" fill="#000000">drivers/include/apa102.h</text>
</a>
</g>
</g>
<!-- Node2&#45;&gt;Node3 -->
<g id="edge1" class="edge">
<title>Node2&#45;&gt;Node3</title>
<path fill="none" stroke="#191970" d="M289.0679,-121.501C236.1468,-111.175 159.3687,-96.1939 109.8088,-86.5237"/>
<polygon fill="#191970" stroke="#191970" points="288.5038,-124.9569 298.989,-123.4369 289.8444,-118.0865 288.5038,-124.9569"/>
</g>
<!-- Node4 -->
<g id="node3" class="node">
<title>Node4</title>
<g id="a_node3"><a xlink:href="isl29125_8h.html" target="_top" xlink:title="Device driver interface for the ISL29125 RGB light sensor. ">
<polygon fill="none" stroke="#000000" points="140.5,-67.5 140.5,-86.5 267.5,-86.5 267.5,-67.5 140.5,-67.5"/>
<text text-anchor="middle" x="204" y="-74.5" font-family="Helvetica,sans-Serif" font-size="10.00" fill="#000000">drivers/include/isl29125.h</text>
</a>
</g>
</g>
<!-- Node2&#45;&gt;Node4 -->
<g id="edge2" class="edge">
<title>Node2&#45;&gt;Node4</title>
<path fill="none" stroke="#191970" d="M313.6818,-119.6541C287.422,-109.4419 251.8508,-95.6086 228.4315,-86.5011"/>
<polygon fill="#191970" stroke="#191970" points="312.6569,-123.0108 323.2455,-123.3733 315.194,-116.4867 312.6569,-123.0108"/>
</g>
<!-- Node6 -->
<g id="node5" class="node">
<title>Node6</title>
<g id="a_node5"><a xlink:href="lpd8808_8h.html" target="_top" xlink:title="Interface definition for the LPD8808 LED strip driver. ">
<polygon fill="none" stroke="#000000" points="285.5,-67.5 285.5,-86.5 410.5,-86.5 410.5,-67.5 285.5,-67.5"/>
<text text-anchor="middle" x="348" y="-74.5" font-family="Helvetica,sans-Serif" font-size="10.00" fill="#000000">drivers/include/lpd8808.h</text>
</a>
</g>
</g>
<!-- Node2&#45;&gt;Node6 -->
<g id="edge4" class="edge">
<title>Node2&#45;&gt;Node6</title>
<path fill="none" stroke="#191970" d="M348,-113.1575C348,-104.155 348,-93.9199 348,-86.6427"/>
<polygon fill="#191970" stroke="#191970" points="344.5001,-113.2455 348,-123.2455 351.5001,-113.2456 344.5001,-113.2455"/>
</g>
<!-- Node7 -->
<g id="node6" class="node">
<title>Node7</title>
<g id="a_node6"><a xlink:href="rgbled_8h.html" target="_top" xlink:title="High&#45;level driver for easy handling of RGB&#45;LEDs. ">
<polygon fill="none" stroke="#000000" points="428.5,-67.5 428.5,-86.5 545.5,-86.5 545.5,-67.5 428.5,-67.5"/>
<text text-anchor="middle" x="487" y="-74.5" font-family="Helvetica,sans-Serif" font-size="10.00" fill="#000000">drivers/include/rgbled.h</text>
</a>
</g>
</g>
<!-- Node2&#45;&gt;Node7 -->
<g id="edge5" class="edge">
<title>Node2&#45;&gt;Node7</title>
<path fill="none" stroke="#191970" d="M381.4621,-119.5189C406.7769,-109.3201 440.9103,-95.5685 463.4169,-86.5011"/>
<polygon fill="#191970" stroke="#191970" points="379.8626,-116.3899 371.895,-123.3733 382.4784,-122.8827 379.8626,-116.3899"/>
</g>
<!-- Node8 -->
<g id="node7" class="node">
<title>Node8</title>
<g id="a_node7"><a xlink:href="ws281x_8h.html" target="_top" xlink:title="WS2812/SK6812 RGB LED Driver. ">
<polygon fill="none" stroke="#000000" points="563.5,-67.5 563.5,-86.5 688.5,-86.5 688.5,-67.5 563.5,-67.5"/>
<text text-anchor="middle" x="626" y="-74.5" font-family="Helvetica,sans-Serif" font-size="10.00" fill="#000000">drivers/include/ws281x.h</text>
</a>
</g>
</g>
<!-- Node2&#45;&gt;Node8 -->
<g id="edge6" class="edge">
<title>Node2&#45;&gt;Node8</title>
<path fill="none" stroke="#191970" d="M405.4041,-121.4366C456.6547,-111.1127 530.8158,-96.1738 578.7218,-86.5237"/>
<polygon fill="#191970" stroke="#191970" points="404.5859,-118.031 395.474,-123.4369 405.9683,-124.8932 404.5859,-118.031"/>
</g>
<!-- Node5 -->
<g id="node4" class="node">
<title>Node5</title>
<g id="a_node4"><a xlink:href="isl29125__params_8h.html" target="_top" xlink:title="Default configuration for ISL29125 devices. ">
<polygon fill="none" stroke="#000000" points="144.5,-.5 144.5,-30.5 263.5,-30.5 263.5,-.5 144.5,-.5"/>
<text text-anchor="start" x="152.5" y="-18.5" font-family="Helvetica,sans-Serif" font-size="10.00" fill="#000000">drivers/isl29125/include</text>
<text text-anchor="middle" x="204" y="-7.5" font-family="Helvetica,sans-Serif" font-size="10.00" fill="#000000">/isl29125_params.h</text>
</a>
</g>
</g>
<!-- Node4&#45;&gt;Node5 -->
<g id="edge3" class="edge">
<title>Node4&#45;&gt;Node5</title>
<path fill="none" stroke="#191970" d="M204,-57.3693C204,-48.681 204,-38.6241 204,-30.5446"/>
<polygon fill="#191970" stroke="#191970" points="200.5001,-57.3906 204,-67.3906 207.5001,-57.3907 200.5001,-57.3906"/>
</g>
<!-- Node9 -->
<g id="node8" class="node">
<title>Node9</title>
<g id="a_node8"><a xlink:href="ws281x__params_8h.html" target="_top" xlink:title="Default configuration for WS2812/SK6812 RGB LEDs. ">
<polygon fill="none" stroke="#000000" points="568,-.5 568,-30.5 684,-30.5 684,-.5 568,-.5"/>
<text text-anchor="start" x="576" y="-18.5" font-family="Helvetica,sans-Serif" font-size="10.00" fill="#000000">drivers/ws281x/include</text>
<text text-anchor="middle" x="626" y="-7.5" font-family="Helvetica,sans-Serif" font-size="10.00" fill="#000000">/ws281x_params.h</text>
</a>
</g>
</g>
<!-- Node8&#45;&gt;Node9 -->
<g id="edge7" class="edge">
<title>Node8&#45;&gt;Node9</title>
<path fill="none" stroke="#191970" d="M626,-57.3693C626,-48.681 626,-38.6241 626,-30.5446"/>
<polygon fill="#191970" stroke="#191970" points="622.5001,-57.3906 626,-67.3906 629.5001,-57.3907 622.5001,-57.3906"/>
</g>
</g>
</svg>
