<?xml version="1.0" encoding="UTF-8" standalone="no"?>
<!DOCTYPE svg PUBLIC "-//W3C//DTD SVG 1.1//EN"
 "http://www.w3.org/Graphics/SVG/1.1/DTD/svg11.dtd">
<!-- Generated by graphviz version 2.40.1 (20161225.0304)
 -->
<!-- Title: boards/common/nucleo64/include/gpio_params.h Pages: 1 -->
<svg width="390pt" height="263pt"
 viewBox="0.00 0.00 390.00 263.00" xmlns="http://www.w3.org/2000/svg" xmlns:xlink="http://www.w3.org/1999/xlink">
<g id="graph0" class="graph" transform="scale(1 1) rotate(0) translate(4 259)">
<title>boards/common/nucleo64/include/gpio_params.h</title>
<!-- Node0 -->
<g id="node1" class="node">
<title>Node0</title>
<polygon fill="#bfbfbf" stroke="#000000" points="74.5,-224.5 74.5,-254.5 202.5,-254.5 202.5,-224.5 74.5,-224.5"/>
<text text-anchor="start" x="82.5" y="-242.5" font-family="Helvetica,sans-Serif" font-size="10.00" fill="#000000">boards/common/nucleo64</text>
<text text-anchor="middle" x="138.5" y="-231.5" font-family="Helvetica,sans-Serif" font-size="10.00" fill="#000000">/include/gpio_params.h</text>
</g>
<!-- Node1 -->
<g id="node2" class="node">
<title>Node1</title>
<g id="a_node2"><a xlink:href="common_2nucleo64_2include_2board_8h.html" target="_top" xlink:title="Common pin definitions and board configuration options. ">
<polygon fill="none" stroke="#000000" points="165,-168.5 165,-187.5 214,-187.5 214,-168.5 165,-168.5"/>
<text text-anchor="middle" x="189.5" y="-175.5" font-family="Helvetica,sans-Serif" font-size="10.00" fill="#000000">board.h</text>
</a>
</g>
</g>
<!-- Node0&#45;&gt;Node1 -->
<g id="edge1" class="edge">
<title>Node0&#45;&gt;Node1</title>
<path fill="none" stroke="#191970" d="M151.1067,-224.2977C158.2598,-215.672 167.2497,-204.8312 174.7318,-195.8087"/>
<polygon fill="#191970" stroke="#191970" points="177.645,-197.7787 181.3343,-187.8469 172.2567,-193.3103 177.645,-197.7787"/>
</g>
<!-- Node13 -->
<g id="node14" class="node">
<title>Node13</title>
<g id="a_node14"><a xlink:href="periph_8h.html" target="_top" xlink:title="Parameter definitions for mapping peripherals directly to SAUL. ">
<polygon fill="none" stroke="#000000" points=".5,-112.5 .5,-131.5 72.5,-131.5 72.5,-112.5 .5,-112.5"/>
<text text-anchor="middle" x="36.5" y="-119.5" font-family="Helvetica,sans-Serif" font-size="10.00" fill="#000000">saul/periph.h</text>
</a>
</g>
</g>
<!-- Node0&#45;&gt;Node13 -->
<g id="edge22" class="edge">
<title>Node0&#45;&gt;Node13</title>
<path fill="none" stroke="#191970" d="M125.1653,-224.1389C106.1199,-202.1994 71.241,-162.0203 51.3793,-139.1404"/>
<polygon fill="#191970" stroke="#191970" points="53.997,-136.8167 44.7984,-131.5595 48.7108,-141.4055 53.997,-136.8167"/>
</g>
<!-- Node2 -->
<g id="node3" class="node">
<title>Node2</title>
<g id="a_node3"><a xlink:href="board__nucleo_8h.html" target="_top" xlink:title="Global common Nucleo board configuration. ">
<polygon fill="none" stroke="#000000" points="299,-112.5 299,-131.5 382,-131.5 382,-112.5 299,-112.5"/>
<text text-anchor="middle" x="340.5" y="-119.5" font-family="Helvetica,sans-Serif" font-size="10.00" fill="#000000">board_nucleo.h</text>
</a>
</g>
</g>
<!-- Node1&#45;&gt;Node2 -->
<g id="edge2" class="edge">
<title>Node1&#45;&gt;Node2</title>
<path fill="none" stroke="#191970" d="M214.0968,-168.878C238.8409,-159.7014 277.2392,-145.461 305.224,-135.0825"/>
<polygon fill="#191970" stroke="#191970" points="306.4898,-138.3461 314.6488,-131.5872 304.0558,-131.7829 306.4898,-138.3461"/>
</g>
<!-- Node5 -->
<g id="node6" class="node">
<title>Node5</title>
<g id="a_node6"><a xlink:href="common_2nucleo64_2include_2arduino__pinmap_8h.html" target="_top" xlink:title="Mapping from MCU pins to Arduino pins. ">
<polygon fill="none" stroke="#000000" points="91,-112.5 91,-131.5 184,-131.5 184,-112.5 91,-112.5"/>
<text text-anchor="middle" x="137.5" y="-119.5" font-family="Helvetica,sans-Serif" font-size="10.00" fill="#000000">arduino_pinmap.h</text>
</a>
</g>
</g>
<!-- Node1&#45;&gt;Node5 -->
<g id="edge5" class="edge">
<title>Node1&#45;&gt;Node5</title>
<path fill="none" stroke="#191970" d="M180.4423,-168.2455C172.9858,-160.2155 162.2366,-148.6394 153.3583,-139.0781"/>
<polygon fill="#191970" stroke="#191970" points="155.8232,-136.589 146.4539,-131.6427 150.6937,-141.3522 155.8232,-136.589"/>
</g>
<!-- Node11 -->
<g id="node12" class="node">
<title>Node11</title>
<g id="a_node12"><a xlink:href="motor__driver_8h.html" target="_top" xlink:title="High&#45;level driver for DC motors. ">
<polygon fill="none" stroke="#000000" points="202,-112.5 202,-131.5 281,-131.5 281,-112.5 202,-112.5"/>
<text text-anchor="middle" x="241.5" y="-119.5" font-family="Helvetica,sans-Serif" font-size="10.00" fill="#000000">motor_driver.h</text>
</a>
</g>
</g>
<!-- Node1&#45;&gt;Node11 -->
<g id="edge15" class="edge">
<title>Node1&#45;&gt;Node11</title>
<path fill="none" stroke="#191970" d="M198.5577,-168.2455C206.0142,-160.2155 216.7634,-148.6394 225.6417,-139.0781"/>
<polygon fill="#191970" stroke="#191970" points="228.3063,-141.3522 232.5461,-131.6427 223.1768,-136.589 228.3063,-141.3522"/>
</g>
<!-- Node3 -->
<g id="node4" class="node">
<title>Node3</title>
<polygon fill="none" stroke="#bfbfbf" points="327,-56.5 327,-75.5 368,-75.5 368,-56.5 327,-56.5"/>
<text text-anchor="middle" x="347.5" y="-63.5" font-family="Helvetica,sans-Serif" font-size="10.00" fill="#000000">cpu.h</text>
</g>
<!-- Node2&#45;&gt;Node3 -->
<g id="edge3" class="edge">
<title>Node2&#45;&gt;Node3</title>
<path fill="none" stroke="#191970" d="M341.7193,-112.2455C342.6327,-104.9382 343.9132,-94.6944 345.0369,-85.7046"/>
<polygon fill="#191970" stroke="#191970" points="348.5272,-85.9996 346.2947,-75.6427 341.5813,-85.1313 348.5272,-85.9996"/>
</g>
<!-- Node4 -->
<g id="node5" class="node">
<title>Node4</title>
<polygon fill="none" stroke="#bfbfbf" points="224,-.5 224,-19.5 299,-19.5 299,-.5 224,-.5"/>
<text text-anchor="middle" x="261.5" y="-7.5" font-family="Helvetica,sans-Serif" font-size="10.00" fill="#000000">periph_conf.h</text>
</g>
<!-- Node2&#45;&gt;Node4 -->
<g id="edge4" class="edge">
<title>Node2&#45;&gt;Node4</title>
<path fill="none" stroke="#191970" d="M333.7645,-112.4509C320.5299,-93.688 290.952,-51.7548 274.0257,-27.758"/>
<polygon fill="#191970" stroke="#191970" points="276.8426,-25.6792 268.2184,-19.5249 271.1224,-29.714 276.8426,-25.6792"/>
</g>
<!-- Node6 -->
<g id="node7" class="node">
<title>Node6</title>
<g id="a_node7"><a xlink:href="gpio_8h.html" target="_top" xlink:title="Low&#45;level GPIO peripheral driver interface definitions. ">
<polygon fill="none" stroke="#000000" points="198.5,-56.5 198.5,-75.5 270.5,-75.5 270.5,-56.5 198.5,-56.5"/>
<text text-anchor="middle" x="234.5" y="-63.5" font-family="Helvetica,sans-Serif" font-size="10.00" fill="#000000">periph/gpio.h</text>
</a>
</g>
</g>
<!-- Node5&#45;&gt;Node6 -->
<g id="edge6" class="edge">
<title>Node5&#45;&gt;Node6</title>
<path fill="none" stroke="#191970" d="M154.3961,-112.2455C169.418,-103.5731 191.6043,-90.7645 208.821,-80.825"/>
<polygon fill="#191970" stroke="#191970" points="210.8871,-83.6737 217.7975,-75.6427 207.3872,-77.6114 210.8871,-83.6737"/>
</g>
<!-- Node9 -->
<g id="node10" class="node">
<title>Node9</title>
<g id="a_node10"><a xlink:href="adc_8h.html" target="_top" xlink:title="Low&#45;level ADC peripheral driver interface definitions. ">
<polygon fill="none" stroke="#000000" points="16.5,-56.5 16.5,-75.5 86.5,-75.5 86.5,-56.5 16.5,-56.5"/>
<text text-anchor="middle" x="51.5" y="-63.5" font-family="Helvetica,sans-Serif" font-size="10.00" fill="#000000">periph/adc.h</text>
</a>
</g>
</g>
<!-- Node5&#45;&gt;Node9 -->
<g id="edge10" class="edge">
<title>Node5&#45;&gt;Node9</title>
<path fill="none" stroke="#191970" d="M122.5199,-112.2455C109.3249,-103.6534 89.8949,-91.0014 74.6921,-81.1018"/>
<polygon fill="#191970" stroke="#191970" points="76.5983,-78.1665 66.3084,-75.6427 72.7785,-84.0325 76.5983,-78.1665"/>
</g>
<!-- Node6&#45;&gt;Node4 -->
<g id="edge9" class="edge">
<title>Node6&#45;&gt;Node4</title>
<path fill="none" stroke="#191970" d="M239.203,-56.2455C242.8424,-48.6973 247.9924,-38.0158 252.4262,-28.8197"/>
<polygon fill="#191970" stroke="#191970" points="255.6605,-30.1704 256.8509,-19.6427 249.3551,-27.1303 255.6605,-30.1704"/>
</g>
<!-- Node7 -->
<g id="node8" class="node">
<title>Node7</title>
<polygon fill="none" stroke="#bfbfbf" points="157.5,-.5 157.5,-19.5 205.5,-19.5 205.5,-.5 157.5,-.5"/>
<text text-anchor="middle" x="181.5" y="-7.5" font-family="Helvetica,sans-Serif" font-size="10.00" fill="#000000">limits.h</text>
</g>
<!-- Node6&#45;&gt;Node7 -->
<g id="edge7" class="edge">
<title>Node6&#45;&gt;Node7</title>
<path fill="none" stroke="#191970" d="M225.2681,-56.2455C217.6683,-48.2155 206.7123,-36.6394 197.6632,-27.0781"/>
<polygon fill="#191970" stroke="#191970" points="200.042,-24.4998 190.6261,-19.6427 194.9579,-29.3115 200.042,-24.4998"/>
</g>
<!-- Node8 -->
<g id="node9" class="node">
<title>Node8</title>
<polygon fill="none" stroke="#bfbfbf" points="67.5,-.5 67.5,-19.5 139.5,-19.5 139.5,-.5 67.5,-.5"/>
<text text-anchor="middle" x="103.5" y="-7.5" font-family="Helvetica,sans-Serif" font-size="10.00" fill="#000000">periph_cpu.h</text>
</g>
<!-- Node6&#45;&gt;Node8 -->
<g id="edge8" class="edge">
<title>Node6&#45;&gt;Node8</title>
<path fill="none" stroke="#191970" d="M211.9803,-56.3733C190.7628,-47.3032 158.7724,-33.6279 135.0231,-23.4755"/>
<polygon fill="#191970" stroke="#191970" points="136.2967,-20.2136 125.7258,-19.5011 133.5452,-26.6502 136.2967,-20.2136"/>
</g>
<!-- Node9&#45;&gt;Node4 -->
<g id="edge14" class="edge">
<title>Node9&#45;&gt;Node4</title>
<path fill="none" stroke="#191970" d="M86.6493,-56.6269C122.0198,-47.1947 176.7441,-32.6016 215.5387,-22.2563"/>
<polygon fill="#191970" stroke="#191970" points="216.7716,-25.55 225.5321,-19.5914 214.9679,-18.7863 216.7716,-25.55"/>
</g>
<!-- Node9&#45;&gt;Node7 -->
<g id="edge11" class="edge">
<title>Node9&#45;&gt;Node7</title>
<path fill="none" stroke="#191970" d="M73.8478,-56.3733C94.9033,-47.3032 126.6495,-33.6279 150.2175,-23.4755"/>
<polygon fill="#191970" stroke="#191970" points="151.6444,-26.6719 159.4438,-19.5011 148.875,-20.243 151.6444,-26.6719"/>
</g>
<!-- Node9&#45;&gt;Node8 -->
<g id="edge13" class="edge">
<title>Node9&#45;&gt;Node8</title>
<path fill="none" stroke="#191970" d="M60.5577,-56.2455C68.0142,-48.2155 78.7634,-36.6394 87.6417,-27.0781"/>
<polygon fill="#191970" stroke="#191970" points="90.3063,-29.3522 94.5461,-19.6427 85.1768,-24.589 90.3063,-29.3522"/>
</g>
<!-- Node10 -->
<g id="node11" class="node">
<title>Node10</title>
<polygon fill="none" stroke="#bfbfbf" points="0,-.5 0,-19.5 49,-19.5 49,-.5 0,-.5"/>
<text text-anchor="middle" x="24.5" y="-7.5" font-family="Helvetica,sans-Serif" font-size="10.00" fill="#000000">stdint.h</text>
</g>
<!-- Node9&#45;&gt;Node10 -->
<g id="edge12" class="edge">
<title>Node9&#45;&gt;Node10</title>
<path fill="none" stroke="#191970" d="M46.797,-56.2455C43.1576,-48.6973 38.0076,-38.0158 33.5738,-28.8197"/>
<polygon fill="#191970" stroke="#191970" points="36.6449,-27.1303 29.1491,-19.6427 30.3395,-30.1704 36.6449,-27.1303"/>
</g>
<!-- Node11&#45;&gt;Node6 -->
<g id="edge21" class="edge">
<title>Node11&#45;&gt;Node6</title>
<path fill="none" stroke="#191970" d="M240.2807,-112.2455C239.3673,-104.9382 238.0868,-94.6944 236.9631,-85.7046"/>
<polygon fill="#191970" stroke="#191970" points="240.4187,-85.1313 235.7053,-75.6427 233.4728,-85.9996 240.4187,-85.1313"/>
</g>
<!-- Node12 -->
<g id="node13" class="node">
<title>Node12</title>
<g id="a_node13"><a xlink:href="pwm_8h.html" target="_top" xlink:title="Low&#45;level PWM peripheral driver interface definitions. ">
<polygon fill="none" stroke="#000000" points="105,-56.5 105,-75.5 180,-75.5 180,-56.5 105,-56.5"/>
<text text-anchor="middle" x="142.5" y="-63.5" font-family="Helvetica,sans-Serif" font-size="10.00" fill="#000000">periph/pwm.h</text>
</a>
</g>
</g>
<!-- Node11&#45;&gt;Node12 -->
<g id="edge16" class="edge">
<title>Node11&#45;&gt;Node12</title>
<path fill="none" stroke="#191970" d="M224.2555,-112.2455C208.9239,-103.5731 186.2801,-90.7645 168.7084,-80.825"/>
<polygon fill="#191970" stroke="#191970" points="169.9741,-77.5198 159.5469,-75.6427 166.5276,-83.6126 169.9741,-77.5198"/>
</g>
<!-- Node12&#45;&gt;Node4 -->
<g id="edge20" class="edge">
<title>Node12&#45;&gt;Node4</title>
<path fill="none" stroke="#191970" d="M162.9568,-56.3733C181.9738,-47.4241 210.5175,-33.9917 231.9976,-23.8835"/>
<polygon fill="#191970" stroke="#191970" points="233.7522,-26.926 241.3101,-19.5011 230.7716,-20.5923 233.7522,-26.926"/>
</g>
<!-- Node12&#45;&gt;Node7 -->
<g id="edge18" class="edge">
<title>Node12&#45;&gt;Node7</title>
<path fill="none" stroke="#191970" d="M149.2933,-56.2455C154.7178,-48.4564 162.4661,-37.3308 169.0033,-27.9439"/>
<polygon fill="#191970" stroke="#191970" points="171.9417,-29.849 174.7846,-19.6427 166.1975,-25.8485 171.9417,-29.849"/>
</g>
<!-- Node12&#45;&gt;Node8 -->
<g id="edge19" class="edge">
<title>Node12&#45;&gt;Node8</title>
<path fill="none" stroke="#191970" d="M135.7067,-56.2455C130.2822,-48.4564 122.5339,-37.3308 115.9967,-27.9439"/>
<polygon fill="#191970" stroke="#191970" points="118.8025,-25.8485 110.2154,-19.6427 113.0583,-29.849 118.8025,-25.8485"/>
</g>
<!-- Node12&#45;&gt;Node10 -->
<g id="edge17" class="edge">
<title>Node12&#45;&gt;Node10</title>
<path fill="none" stroke="#191970" d="M122.2151,-56.3733C103.3579,-47.4241 75.054,-33.9917 53.7545,-23.8835"/>
<polygon fill="#191970" stroke="#191970" points="55.0551,-20.6266 44.5202,-19.5011 52.0539,-26.9506 55.0551,-20.6266"/>
</g>
<!-- Node13&#45;&gt;Node6 -->
<g id="edge23" class="edge">
<title>Node13&#45;&gt;Node6</title>
<path fill="none" stroke="#191970" d="M70.5374,-112.3733C103.8894,-102.9404 154.8527,-88.5265 191.1002,-78.2747"/>
<polygon fill="#191970" stroke="#191970" points="192.2368,-81.5906 200.9067,-75.5011 190.3316,-74.8548 192.2368,-81.5906"/>
</g>
<!-- Node13&#45;&gt;Node9 -->
<g id="edge24" class="edge">
<title>Node13&#45;&gt;Node9</title>
<path fill="none" stroke="#191970" d="M39.1128,-112.2455C41.0916,-104.8579 43.8744,-94.4689 46.3012,-85.4087"/>
<polygon fill="#191970" stroke="#191970" points="49.7105,-86.2078 48.9171,-75.6427 42.9489,-84.3966 49.7105,-86.2078"/>
</g>
</g>
</svg>
