<?xml version="1.0" encoding="UTF-8" standalone="no"?>
<!DOCTYPE svg PUBLIC "-//W3C//DTD SVG 1.1//EN"
 "http://www.w3.org/Graphics/SVG/1.1/DTD/svg11.dtd">
<!-- Generated by graphviz version 2.40.1 (20161225.0304)
 -->
<!-- Title: boards/common/arduino&#45;zero/include/board.h Pages: 1 -->
<svg width="340pt" height="207pt"
 viewBox="0.00 0.00 339.50 207.00" xmlns="http://www.w3.org/2000/svg" xmlns:xlink="http://www.w3.org/1999/xlink">
<g id="graph0" class="graph" transform="scale(1 1) rotate(0) translate(4 203)">
<title>boards/common/arduino&#45;zero/include/board.h</title>
<!-- Node0 -->
<g id="node1" class="node">
<title>Node0</title>
<polygon fill="#bfbfbf" stroke="#000000" points="77,-168.5 77,-198.5 198,-198.5 198,-168.5 77,-168.5"/>
<text text-anchor="start" x="85" y="-186.5" font-family="Helvetica,sans-Serif" font-size="10.00" fill="#000000">boards/common/arduino</text>
<text text-anchor="middle" x="137.5" y="-175.5" font-family="Helvetica,sans-Serif" font-size="10.00" fill="#000000">&#45;zero/include/board.h</text>
</g>
<!-- Node1 -->
<g id="node2" class="node">
<title>Node1</title>
<polygon fill="none" stroke="#bfbfbf" points="0,-56.5 0,-75.5 41,-75.5 41,-56.5 0,-56.5"/>
<text text-anchor="middle" x="20.5" y="-63.5" font-family="Helvetica,sans-Serif" font-size="10.00" fill="#000000">cpu.h</text>
</g>
<!-- Node0&#45;&gt;Node1 -->
<g id="edge1" class="edge">
<title>Node0&#45;&gt;Node1</title>
<path fill="none" stroke="#191970" d="M91.5135,-168.4591C73.0069,-160.3121 52.9142,-148.4658 39.5,-132 28.8035,-118.8702 24.1276,-99.9938 22.0842,-85.7888"/>
<polygon fill="#191970" stroke="#191970" points="25.5343,-85.1466 20.9452,-75.5973 18.5776,-85.9242 25.5343,-85.1466"/>
</g>
<!-- Node2 -->
<g id="node3" class="node">
<title>Node2</title>
<g id="a_node3"><a xlink:href="boards_2common_2arduino-zero_2include_2periph__conf_8h.html" target="_top" xlink:title="Configuration of CPU peripherals for Arduino Zero board and clones. ">
<polygon fill="none" stroke="#000000" points="49,-112.5 49,-131.5 124,-131.5 124,-112.5 49,-112.5"/>
<text text-anchor="middle" x="86.5" y="-119.5" font-family="Helvetica,sans-Serif" font-size="10.00" fill="#000000">periph_conf.h</text>
</a>
</g>
</g>
<!-- Node0&#45;&gt;Node2 -->
<g id="edge2" class="edge">
<title>Node0&#45;&gt;Node2</title>
<path fill="none" stroke="#191970" d="M124.8933,-168.2977C117.7402,-159.672 108.7503,-148.8312 101.2682,-139.8087"/>
<polygon fill="#191970" stroke="#191970" points="103.7433,-137.3103 94.6657,-131.8469 98.355,-141.7787 103.7433,-137.3103"/>
</g>
<!-- Node4 -->
<g id="node5" class="node">
<title>Node4</title>
<polygon fill="none" stroke="#bfbfbf" points="259.5,-.5 259.5,-19.5 331.5,-19.5 331.5,-.5 259.5,-.5"/>
<text text-anchor="middle" x="295.5" y="-7.5" font-family="Helvetica,sans-Serif" font-size="10.00" fill="#000000">periph_cpu.h</text>
</g>
<!-- Node0&#45;&gt;Node4 -->
<g id="edge6" class="edge">
<title>Node0&#45;&gt;Node4</title>
<path fill="none" stroke="#191970" d="M179.0219,-168.4951C199.6971,-159.7915 224.3071,-147.4744 243.5,-132 268.141,-112.133 275.3697,-105.2358 287.5,-76 293.5821,-61.3412 295.4386,-43.389 295.8541,-29.9102"/>
<polygon fill="#191970" stroke="#191970" points="299.3546,-29.835 295.9253,-19.8106 292.3548,-29.7856 299.3546,-29.835"/>
</g>
<!-- Node5 -->
<g id="node6" class="node">
<title>Node5</title>
<g id="a_node6"><a xlink:href="common_2arduino-zero_2include_2arduino__pinmap_8h.html" target="_top" xlink:title="Mapping from MCU pins to Arduino pins. ">
<polygon fill="none" stroke="#000000" points="142,-112.5 142,-131.5 235,-131.5 235,-112.5 142,-112.5"/>
<text text-anchor="middle" x="188.5" y="-119.5" font-family="Helvetica,sans-Serif" font-size="10.00" fill="#000000">arduino_pinmap.h</text>
</a>
</g>
</g>
<!-- Node0&#45;&gt;Node5 -->
<g id="edge7" class="edge">
<title>Node0&#45;&gt;Node5</title>
<path fill="none" stroke="#191970" d="M150.1067,-168.2977C157.2598,-159.672 166.2497,-148.8312 173.7318,-139.8087"/>
<polygon fill="#191970" stroke="#191970" points="176.645,-141.7787 180.3343,-131.8469 171.2567,-137.3103 176.645,-141.7787"/>
</g>
<!-- Node2&#45;&gt;Node1 -->
<g id="edge4" class="edge">
<title>Node2&#45;&gt;Node1</title>
<path fill="none" stroke="#191970" d="M75.0037,-112.2455C65.2558,-103.9746 51.0741,-91.9416 39.6202,-82.2232"/>
<polygon fill="#191970" stroke="#191970" points="41.7541,-79.4437 31.8646,-75.6427 37.2253,-84.7813 41.7541,-79.4437"/>
</g>
<!-- Node3 -->
<g id="node4" class="node">
<title>Node3</title>
<polygon fill="none" stroke="#bfbfbf" points="33,-.5 33,-19.5 82,-19.5 82,-.5 33,-.5"/>
<text text-anchor="middle" x="57.5" y="-7.5" font-family="Helvetica,sans-Serif" font-size="10.00" fill="#000000">stdint.h</text>
</g>
<!-- Node2&#45;&gt;Node3 -->
<g id="edge3" class="edge">
<title>Node2&#45;&gt;Node3</title>
<path fill="none" stroke="#191970" d="M84.0275,-112.4509C79.2762,-94.1013 68.7869,-53.5908 62.5153,-29.3693"/>
<polygon fill="#191970" stroke="#191970" points="65.8612,-28.3283 59.9663,-19.5249 59.0847,-30.083 65.8612,-28.3283"/>
</g>
<!-- Node2&#45;&gt;Node4 -->
<g id="edge5" class="edge">
<title>Node2&#45;&gt;Node4</title>
<path fill="none" stroke="#191970" d="M124.0636,-113.2858C175.1861,-101.2981 260.9965,-80.6685 266.5,-76 280.3421,-64.2579 287.808,-44.6373 291.6796,-29.8336"/>
<polygon fill="#191970" stroke="#191970" points="295.1879,-30.1888 293.9857,-19.6624 288.3611,-28.6409 295.1879,-30.1888"/>
</g>
<!-- Node6 -->
<g id="node7" class="node">
<title>Node6</title>
<g id="a_node7"><a xlink:href="gpio_8h.html" target="_top" xlink:title="Low&#45;level GPIO peripheral driver interface definitions. ">
<polygon fill="none" stroke="#000000" points="185.5,-56.5 185.5,-75.5 257.5,-75.5 257.5,-56.5 185.5,-56.5"/>
<text text-anchor="middle" x="221.5" y="-63.5" font-family="Helvetica,sans-Serif" font-size="10.00" fill="#000000">periph/gpio.h</text>
</a>
</g>
</g>
<!-- Node5&#45;&gt;Node6 -->
<g id="edge8" class="edge">
<title>Node5&#45;&gt;Node6</title>
<path fill="none" stroke="#191970" d="M194.2482,-112.2455C198.7435,-104.617 205.1248,-93.7881 210.5825,-84.5267"/>
<polygon fill="#191970" stroke="#191970" points="213.7561,-86.035 215.8177,-75.6427 207.7253,-82.4811 213.7561,-86.035"/>
</g>
<!-- Node9 -->
<g id="node10" class="node">
<title>Node9</title>
<g id="a_node10"><a xlink:href="adc_8h.html" target="_top" xlink:title="Low&#45;level ADC peripheral driver interface definitions. ">
<polygon fill="none" stroke="#000000" points="97.5,-56.5 97.5,-75.5 167.5,-75.5 167.5,-56.5 97.5,-56.5"/>
<text text-anchor="middle" x="132.5" y="-63.5" font-family="Helvetica,sans-Serif" font-size="10.00" fill="#000000">periph/adc.h</text>
</a>
</g>
</g>
<!-- Node5&#45;&gt;Node9 -->
<g id="edge12" class="edge">
<title>Node5&#45;&gt;Node9</title>
<path fill="none" stroke="#191970" d="M178.7455,-112.2455C170.6352,-104.1352 158.9075,-92.4075 149.2919,-82.7919"/>
<polygon fill="#191970" stroke="#191970" points="151.6887,-80.2389 142.1427,-75.6427 146.7389,-85.1887 151.6887,-80.2389"/>
</g>
<!-- Node6&#45;&gt;Node4 -->
<g id="edge10" class="edge">
<title>Node6&#45;&gt;Node4</title>
<path fill="none" stroke="#191970" d="M234.3898,-56.2455C245.4254,-47.8943 261.5292,-35.7076 274.4353,-25.9408"/>
<polygon fill="#191970" stroke="#191970" points="276.8959,-28.4681 282.7579,-19.6427 272.6717,-22.8862 276.8959,-28.4681"/>
</g>
<!-- Node7 -->
<g id="node8" class="node">
<title>Node7</title>
<polygon fill="none" stroke="#bfbfbf" points="193.5,-.5 193.5,-19.5 241.5,-19.5 241.5,-.5 193.5,-.5"/>
<text text-anchor="middle" x="217.5" y="-7.5" font-family="Helvetica,sans-Serif" font-size="10.00" fill="#000000">limits.h</text>
</g>
<!-- Node6&#45;&gt;Node7 -->
<g id="edge9" class="edge">
<title>Node6&#45;&gt;Node7</title>
<path fill="none" stroke="#191970" d="M220.8033,-56.2455C220.2813,-48.9382 219.5496,-38.6944 218.9075,-29.7046"/>
<polygon fill="#191970" stroke="#191970" points="222.3924,-29.3679 218.1888,-19.6427 215.4102,-29.8667 222.3924,-29.3679"/>
</g>
<!-- Node8 -->
<g id="node9" class="node">
<title>Node8</title>
<polygon fill="none" stroke="#bfbfbf" points="100,-.5 100,-19.5 175,-19.5 175,-.5 100,-.5"/>
<text text-anchor="middle" x="137.5" y="-7.5" font-family="Helvetica,sans-Serif" font-size="10.00" fill="#000000">periph_conf.h</text>
</g>
<!-- Node6&#45;&gt;Node8 -->
<g id="edge11" class="edge">
<title>Node6&#45;&gt;Node8</title>
<path fill="none" stroke="#191970" d="M206.8683,-56.2455C194.1006,-47.7337 175.3562,-35.2375 160.5701,-25.3801"/>
<polygon fill="#191970" stroke="#191970" points="162.226,-22.2775 151.964,-19.6427 158.3431,-28.1019 162.226,-22.2775"/>
</g>
<!-- Node9&#45;&gt;Node3 -->
<g id="edge14" class="edge">
<title>Node9&#45;&gt;Node3</title>
<path fill="none" stroke="#191970" d="M119.436,-56.2455C108.1438,-47.814 91.6155,-35.4729 78.4729,-25.6598"/>
<polygon fill="#191970" stroke="#191970" points="80.5211,-22.8211 70.4143,-19.6427 76.3331,-28.4301 80.5211,-22.8211"/>
</g>
<!-- Node9&#45;&gt;Node4 -->
<g id="edge15" class="edge">
<title>Node9&#45;&gt;Node4</title>
<path fill="none" stroke="#191970" d="M160.5207,-56.3733C187.5078,-47.1016 228.5017,-33.0178 258.2311,-22.804"/>
<polygon fill="#191970" stroke="#191970" points="259.5248,-26.0605 267.8449,-19.5011 257.2503,-19.4403 259.5248,-26.0605"/>
</g>
<!-- Node9&#45;&gt;Node7 -->
<g id="edge13" class="edge">
<title>Node9&#45;&gt;Node7</title>
<path fill="none" stroke="#191970" d="M147.3059,-56.2455C160.2256,-47.7337 179.1931,-35.2375 194.1552,-25.3801"/>
<polygon fill="#191970" stroke="#191970" points="196.4387,-28.067 202.8638,-19.6427 192.5876,-22.2216 196.4387,-28.067"/>
</g>
<!-- Node9&#45;&gt;Node8 -->
<g id="edge16" class="edge">
<title>Node9&#45;&gt;Node8</title>
<path fill="none" stroke="#191970" d="M133.3709,-56.2455C134.0234,-48.9382 134.938,-38.6944 135.7407,-29.7046"/>
<polygon fill="#191970" stroke="#191970" points="139.2358,-29.9143 136.639,-19.6427 132.2635,-29.2918 139.2358,-29.9143"/>
</g>
</g>
</svg>
