<?xml version="1.0" encoding="UTF-8" standalone="no"?>
<!DOCTYPE svg PUBLIC "-//W3C//DTD SVG 1.1//EN"
 "http://www.w3.org/Graphics/SVG/1.1/DTD/svg11.dtd">
<!-- Generated by graphviz version 2.43.0 (0)
 -->
<!-- Title: boards/common/arduino&#45;due/include/gpio_params.h Pages: 1 -->
<svg width="341pt" height="263pt"
 viewBox="0.00 0.00 340.50 263.00" xmlns="http://www.w3.org/2000/svg" xmlns:xlink="http://www.w3.org/1999/xlink">
<g id="graph0" class="graph" transform="scale(1 1) rotate(0) translate(4 259)">
<title>boards/common/arduino&#45;due/include/gpio_params.h</title>
<!-- Node1 -->
<g id="node1" class="node">
<title>Node1</title>
<g id="a_node1"><a xlink:title="Board specific configuration of direct mapped GPIOs.">
<polygon fill="#bfbfbf" stroke="black" points="95,-224.5 95,-254.5 247,-254.5 247,-224.5 95,-224.5"/>
<text text-anchor="start" x="103" y="-242.5" font-family="Helvetica,sans-Serif" font-size="10.00">boards/common/arduino</text>
<text text-anchor="middle" x="171" y="-231.5" font-family="Helvetica,sans-Serif" font-size="10.00">&#45;due/include/gpio_params.h</text>
</a>
</g>
</g>
<!-- Node2 -->
<g id="node2" class="node">
<title>Node2</title>
<g id="a_node2"><a xlink:href="common_2arduino-due_2include_2board_8h.html" target="_top" xlink:title="Board specific definitions for the Arduino Due based boards.">
<polygon fill="none" stroke="black" points="117.5,-168.5 117.5,-187.5 170.5,-187.5 170.5,-168.5 117.5,-168.5"/>
<text text-anchor="middle" x="144" y="-175.5" font-family="Helvetica,sans-Serif" font-size="10.00">board.h</text>
</a>
</g>
</g>
<!-- Node1&#45;&gt;Node2 -->
<g id="edge1" class="edge">
<title>Node1&#45;&gt;Node2</title>
<path fill="none" stroke="midnightblue" d="M164.6,-224.4C160.88,-216.2 156.15,-205.78 152.17,-196.99"/>
<polygon fill="midnightblue" stroke="midnightblue" points="155.25,-195.32 147.93,-187.66 148.87,-198.21 155.25,-195.32"/>
</g>
<!-- Node11 -->
<g id="node11" class="node">
<title>Node11</title>
<g id="a_node11"><a xlink:href="periph_8h.html" target="_top" xlink:title="Parameter definitions for mapping peripherals directly to SAUL.">
<polygon fill="none" stroke="black" points="184,-112.5 184,-131.5 264,-131.5 264,-112.5 184,-112.5"/>
<text text-anchor="middle" x="224" y="-119.5" font-family="Helvetica,sans-Serif" font-size="10.00">saul/periph.h</text>
</a>
</g>
</g>
<!-- Node1&#45;&gt;Node11 -->
<g id="edge13" class="edge">
<title>Node1&#45;&gt;Node11</title>
<path fill="none" stroke="midnightblue" d="M177.5,-224.34C187.13,-203.34 205.21,-163.96 215.76,-140.96"/>
<polygon fill="midnightblue" stroke="midnightblue" points="219.03,-142.22 220.02,-131.67 212.67,-139.3 219.03,-142.22"/>
</g>
<!-- Node3 -->
<g id="node3" class="node">
<title>Node3</title>
<g id="a_node3"><a xlink:title=" ">
<polygon fill="none" stroke="#bfbfbf" points="122.5,-112.5 122.5,-131.5 165.5,-131.5 165.5,-112.5 122.5,-112.5"/>
<text text-anchor="middle" x="144" y="-119.5" font-family="Helvetica,sans-Serif" font-size="10.00">cpu.h</text>
</a>
</g>
</g>
<!-- Node2&#45;&gt;Node3 -->
<g id="edge2" class="edge">
<title>Node2&#45;&gt;Node3</title>
<path fill="none" stroke="midnightblue" d="M144,-168.08C144,-161.01 144,-150.86 144,-141.99"/>
<polygon fill="midnightblue" stroke="midnightblue" points="147.5,-141.75 144,-131.75 140.5,-141.75 147.5,-141.75"/>
</g>
<!-- Node4 -->
<g id="node4" class="node">
<title>Node4</title>
<g id="a_node4"><a xlink:href="common_2arduino-due_2include_2arduino__pinmap_8h.html" target="_top" xlink:title="Mapping from MCU pins to Arduino pins.">
<polygon fill="none" stroke="black" points="0,-112.5 0,-131.5 104,-131.5 104,-112.5 0,-112.5"/>
<text text-anchor="middle" x="52" y="-119.5" font-family="Helvetica,sans-Serif" font-size="10.00">arduino_pinmap.h</text>
</a>
</g>
</g>
<!-- Node2&#45;&gt;Node4 -->
<g id="edge3" class="edge">
<title>Node2&#45;&gt;Node4</title>
<path fill="none" stroke="midnightblue" d="M129.22,-168.32C114.73,-159.82 92.43,-146.73 75.51,-136.8"/>
<polygon fill="midnightblue" stroke="midnightblue" points="77.14,-133.7 66.74,-131.65 73.6,-139.74 77.14,-133.7"/>
</g>
<!-- Node5 -->
<g id="node5" class="node">
<title>Node5</title>
<g id="a_node5"><a xlink:href="gpio_8h.html" target="_top" xlink:title="Low&#45;level GPIO peripheral driver interface definitions.">
<polygon fill="none" stroke="black" points="12,-56.5 12,-75.5 92,-75.5 92,-56.5 12,-56.5"/>
<text text-anchor="middle" x="52" y="-63.5" font-family="Helvetica,sans-Serif" font-size="10.00">periph/gpio.h</text>
</a>
</g>
</g>
<!-- Node4&#45;&gt;Node5 -->
<g id="edge4" class="edge">
<title>Node4&#45;&gt;Node5</title>
<path fill="none" stroke="midnightblue" d="M52,-112.08C52,-105.01 52,-94.86 52,-85.99"/>
<polygon fill="midnightblue" stroke="midnightblue" points="55.5,-85.75 52,-75.75 48.5,-85.75 55.5,-85.75"/>
</g>
<!-- Node9 -->
<g id="node9" class="node">
<title>Node9</title>
<g id="a_node9"><a xlink:href="adc_8h.html" target="_top" xlink:title="Low&#45;level ADC peripheral driver interface definitions.">
<polygon fill="none" stroke="black" points="110.5,-56.5 110.5,-75.5 187.5,-75.5 187.5,-56.5 110.5,-56.5"/>
<text text-anchor="middle" x="149" y="-63.5" font-family="Helvetica,sans-Serif" font-size="10.00">periph/adc.h</text>
</a>
</g>
</g>
<!-- Node4&#45;&gt;Node9 -->
<g id="edge8" class="edge">
<title>Node4&#45;&gt;Node9</title>
<path fill="none" stroke="midnightblue" d="M67.58,-112.32C83,-103.74 106.81,-90.49 124.71,-80.52"/>
<polygon fill="midnightblue" stroke="midnightblue" points="126.42,-83.58 133.45,-75.65 123.01,-77.46 126.42,-83.58"/>
</g>
<!-- Node6 -->
<g id="node6" class="node">
<title>Node6</title>
<g id="a_node6"><a xlink:title=" ">
<polygon fill="none" stroke="#bfbfbf" points="111.5,-0.5 111.5,-19.5 164.5,-19.5 164.5,-0.5 111.5,-0.5"/>
<text text-anchor="middle" x="138" y="-7.5" font-family="Helvetica,sans-Serif" font-size="10.00">limits.h</text>
</a>
</g>
</g>
<!-- Node5&#45;&gt;Node6 -->
<g id="edge5" class="edge">
<title>Node5&#45;&gt;Node6</title>
<path fill="none" stroke="midnightblue" d="M65.82,-56.32C79.23,-47.9 99.82,-34.97 115.59,-25.07"/>
<polygon fill="midnightblue" stroke="midnightblue" points="117.61,-27.94 124.22,-19.65 113.89,-22.01 117.61,-27.94"/>
</g>
<!-- Node7 -->
<g id="node7" class="node">
<title>Node7</title>
<g id="a_node7"><a xlink:title=" ">
<polygon fill="none" stroke="#bfbfbf" points="182.5,-0.5 182.5,-19.5 261.5,-19.5 261.5,-0.5 182.5,-0.5"/>
<text text-anchor="middle" x="222" y="-7.5" font-family="Helvetica,sans-Serif" font-size="10.00">periph_cpu.h</text>
</a>
</g>
</g>
<!-- Node5&#45;&gt;Node7 -->
<g id="edge6" class="edge">
<title>Node5&#45;&gt;Node7</title>
<path fill="none" stroke="midnightblue" d="M78.94,-56.44C107.66,-47.32 153.33,-32.81 185.32,-22.65"/>
<polygon fill="midnightblue" stroke="midnightblue" points="186.72,-25.88 195.19,-19.52 184.6,-19.21 186.72,-25.88"/>
</g>
<!-- Node8 -->
<g id="node8" class="node">
<title>Node8</title>
<g id="a_node8"><a xlink:title=" ">
<polygon fill="none" stroke="#bfbfbf" points="11,-0.5 11,-19.5 93,-19.5 93,-0.5 11,-0.5"/>
<text text-anchor="middle" x="52" y="-7.5" font-family="Helvetica,sans-Serif" font-size="10.00">periph_conf.h</text>
</a>
</g>
</g>
<!-- Node5&#45;&gt;Node8 -->
<g id="edge7" class="edge">
<title>Node5&#45;&gt;Node8</title>
<path fill="none" stroke="midnightblue" d="M52,-56.08C52,-49.01 52,-38.86 52,-29.99"/>
<polygon fill="midnightblue" stroke="midnightblue" points="55.5,-29.75 52,-19.75 48.5,-29.75 55.5,-29.75"/>
</g>
<!-- Node9&#45;&gt;Node6 -->
<g id="edge9" class="edge">
<title>Node9&#45;&gt;Node6</title>
<path fill="none" stroke="midnightblue" d="M147.18,-56.08C145.73,-48.93 143.63,-38.64 141.81,-29.69"/>
<polygon fill="midnightblue" stroke="midnightblue" points="145.21,-28.85 139.78,-19.75 138.35,-30.25 145.21,-28.85"/>
</g>
<!-- Node9&#45;&gt;Node7 -->
<g id="edge11" class="edge">
<title>Node9&#45;&gt;Node7</title>
<path fill="none" stroke="midnightblue" d="M160.73,-56.32C171.84,-48.11 188.74,-35.6 201.98,-25.81"/>
<polygon fill="midnightblue" stroke="midnightblue" points="204.1,-28.59 210.06,-19.83 199.94,-22.97 204.1,-28.59"/>
</g>
<!-- Node9&#45;&gt;Node8 -->
<g id="edge12" class="edge">
<title>Node9&#45;&gt;Node8</title>
<path fill="none" stroke="midnightblue" d="M133.42,-56.32C118,-47.74 94.19,-34.49 76.29,-24.52"/>
<polygon fill="midnightblue" stroke="midnightblue" points="77.99,-21.46 67.55,-19.65 74.58,-27.58 77.99,-21.46"/>
</g>
<!-- Node10 -->
<g id="node10" class="node">
<title>Node10</title>
<g id="a_node10"><a xlink:title=" ">
<polygon fill="none" stroke="#bfbfbf" points="279.5,-0.5 279.5,-19.5 332.5,-19.5 332.5,-0.5 279.5,-0.5"/>
<text text-anchor="middle" x="306" y="-7.5" font-family="Helvetica,sans-Serif" font-size="10.00">stdint.h</text>
</a>
</g>
</g>
<!-- Node9&#45;&gt;Node10 -->
<g id="edge10" class="edge">
<title>Node9&#45;&gt;Node10</title>
<path fill="none" stroke="midnightblue" d="M173.88,-56.44C200.29,-47.36 242.22,-32.94 271.74,-22.78"/>
<polygon fill="midnightblue" stroke="midnightblue" points="272.92,-26.08 281.24,-19.52 270.64,-19.46 272.92,-26.08"/>
</g>
<!-- Node11&#45;&gt;Node5 -->
<g id="edge14" class="edge">
<title>Node11&#45;&gt;Node5</title>
<path fill="none" stroke="midnightblue" d="M196.75,-112.44C167.56,-103.28 121.08,-88.69 88.69,-78.52"/>
<polygon fill="midnightblue" stroke="midnightblue" points="89.72,-75.17 79.13,-75.52 87.62,-81.85 89.72,-75.17"/>
</g>
<!-- Node11&#45;&gt;Node9 -->
<g id="edge15" class="edge">
<title>Node11&#45;&gt;Node9</title>
<path fill="none" stroke="midnightblue" d="M211.95,-112.32C200.54,-104.11 183.17,-91.6 169.57,-81.81"/>
<polygon fill="midnightblue" stroke="midnightblue" points="171.43,-78.84 161.27,-75.83 167.34,-84.52 171.43,-78.84"/>
</g>
<!-- Node12 -->
<g id="node12" class="node">
<title>Node12</title>
<g id="a_node12"><a xlink:href="pwm_8h.html" target="_top" xlink:title="Low&#45;level PWM peripheral driver interface definitions.">
<polygon fill="none" stroke="black" points="205.5,-56.5 205.5,-75.5 288.5,-75.5 288.5,-56.5 205.5,-56.5"/>
<text text-anchor="middle" x="247" y="-63.5" font-family="Helvetica,sans-Serif" font-size="10.00">periph/pwm.h</text>
</a>
</g>
</g>
<!-- Node11&#45;&gt;Node12 -->
<g id="edge16" class="edge">
<title>Node11&#45;&gt;Node12</title>
<path fill="none" stroke="midnightblue" d="M227.8,-112.08C230.91,-104.77 235.42,-94.18 239.29,-85.1"/>
<polygon fill="midnightblue" stroke="midnightblue" points="242.57,-86.32 243.27,-75.75 236.13,-83.58 242.57,-86.32"/>
</g>
<!-- Node12&#45;&gt;Node6 -->
<g id="edge18" class="edge">
<title>Node12&#45;&gt;Node6</title>
<path fill="none" stroke="midnightblue" d="M229.49,-56.32C211.93,-47.62 184.67,-34.12 164.47,-24.11"/>
<polygon fill="midnightblue" stroke="midnightblue" points="165.98,-20.96 155.47,-19.65 162.88,-27.23 165.98,-20.96"/>
</g>
<!-- Node12&#45;&gt;Node7 -->
<g id="edge19" class="edge">
<title>Node12&#45;&gt;Node7</title>
<path fill="none" stroke="midnightblue" d="M242.87,-56.08C239.49,-48.77 234.58,-38.18 230.38,-29.1"/>
<polygon fill="midnightblue" stroke="midnightblue" points="233.43,-27.36 226.05,-19.75 227.08,-30.3 233.43,-27.36"/>
</g>
<!-- Node12&#45;&gt;Node8 -->
<g id="edge20" class="edge">
<title>Node12&#45;&gt;Node8</title>
<path fill="none" stroke="midnightblue" d="M216.1,-56.44C182.73,-47.2 129.41,-32.44 92.65,-22.26"/>
<polygon fill="midnightblue" stroke="midnightblue" points="93.33,-18.81 82.75,-19.52 91.46,-25.56 93.33,-18.81"/>
</g>
<!-- Node12&#45;&gt;Node10 -->
<g id="edge17" class="edge">
<title>Node12&#45;&gt;Node10</title>
<path fill="none" stroke="midnightblue" d="M256.48,-56.32C265.2,-48.34 278.34,-36.31 288.9,-26.65"/>
<polygon fill="midnightblue" stroke="midnightblue" points="291.33,-29.17 296.35,-19.83 286.61,-24 291.33,-29.17"/>
</g>
</g>
</svg>
