<?xml version="1.0" encoding="UTF-8" standalone="no"?>
<!DOCTYPE svg PUBLIC "-//W3C//DTD SVG 1.1//EN"
 "http://www.w3.org/Graphics/SVG/1.1/DTD/svg11.dtd">
<!-- Generated by graphviz version 2.43.0 (0)
 -->
<!-- Title: boards/common/arduino&#45;zero/include/board.h Pages: 1 -->
<svg width="362pt" height="207pt"
 viewBox="0.00 0.00 362.00 207.00" xmlns="http://www.w3.org/2000/svg" xmlns:xlink="http://www.w3.org/1999/xlink">
<g id="graph0" class="graph" transform="scale(1 1) rotate(0) translate(4 203)">
<title>boards/common/arduino&#45;zero/include/board.h</title>
<!-- Node1 -->
<g id="node1" class="node">
<title>Node1</title>
<g id="a_node1"><a xlink:title="Board specific definitions for the Arduino Zero board and clones.">
<polygon fill="#bfbfbf" stroke="black" points="78,-168.5 78,-198.5 213,-198.5 213,-168.5 78,-168.5"/>
<text text-anchor="start" x="86" y="-186.5" font-family="Helvetica,sans-Serif" font-size="10.00">boards/common/arduino</text>
<text text-anchor="middle" x="145.5" y="-175.5" font-family="Helvetica,sans-Serif" font-size="10.00">&#45;zero/include/board.h</text>
</a>
</g>
</g>
<!-- Node2 -->
<g id="node2" class="node">
<title>Node2</title>
<g id="a_node2"><a xlink:title=" ">
<polygon fill="none" stroke="#bfbfbf" points="0,-56.5 0,-75.5 43,-75.5 43,-56.5 0,-56.5"/>
<text text-anchor="middle" x="21.5" y="-63.5" font-family="Helvetica,sans-Serif" font-size="10.00">cpu.h</text>
</a>
</g>
</g>
<!-- Node1&#45;&gt;Node2 -->
<g id="edge1" class="edge">
<title>Node1&#45;&gt;Node2</title>
<path fill="none" stroke="midnightblue" d="M95.77,-168.41C76.11,-160.57 54.83,-148.89 40.5,-132 29.46,-118.98 24.83,-99.82 22.89,-85.68"/>
<polygon fill="midnightblue" stroke="midnightblue" points="26.36,-85.2 21.84,-75.62 19.4,-85.93 26.36,-85.2"/>
</g>
<!-- Node3 -->
<g id="node3" class="node">
<title>Node3</title>
<g id="a_node3"><a xlink:href="boards_2common_2arduino-zero_2include_2periph__conf_8h.html" target="_top" xlink:title="Configuration of CPU peripherals for Arduino Zero board and clones.">
<polygon fill="none" stroke="black" points="49.5,-112.5 49.5,-131.5 131.5,-131.5 131.5,-112.5 49.5,-112.5"/>
<text text-anchor="middle" x="90.5" y="-119.5" font-family="Helvetica,sans-Serif" font-size="10.00">periph_conf.h</text>
</a>
</g>
</g>
<!-- Node1&#45;&gt;Node3 -->
<g id="edge2" class="edge">
<title>Node1&#45;&gt;Node3</title>
<path fill="none" stroke="midnightblue" d="M132.47,-168.4C124.31,-159.58 113.78,-148.18 105.31,-139.02"/>
<polygon fill="midnightblue" stroke="midnightblue" points="107.86,-136.63 98.5,-131.66 102.72,-141.38 107.86,-136.63"/>
</g>
<!-- Node5 -->
<g id="node5" class="node">
<title>Node5</title>
<g id="a_node5"><a xlink:title=" ">
<polygon fill="none" stroke="#bfbfbf" points="275,-0.5 275,-19.5 354,-19.5 354,-0.5 275,-0.5"/>
<text text-anchor="middle" x="314.5" y="-7.5" font-family="Helvetica,sans-Serif" font-size="10.00">periph_cpu.h</text>
</a>
</g>
</g>
<!-- Node1&#45;&gt;Node5 -->
<g id="edge6" class="edge">
<title>Node1&#45;&gt;Node5</title>
<path fill="none" stroke="midnightblue" d="M192.31,-168.49C214.99,-160.23 241.73,-148.18 262.5,-132 287.26,-112.72 293.39,-104.95 305.5,-76 311.62,-61.37 313.75,-43.43 314.41,-30.1"/>
<polygon fill="midnightblue" stroke="midnightblue" points="317.92,-29.87 314.68,-19.78 310.92,-29.69 317.92,-29.87"/>
</g>
<!-- Node6 -->
<g id="node6" class="node">
<title>Node6</title>
<g id="a_node6"><a xlink:href="common_2arduino-zero_2include_2arduino__pinmap_8h.html" target="_top" xlink:title="Mapping from MCU pins to Arduino pins.">
<polygon fill="none" stroke="black" points="149.5,-112.5 149.5,-131.5 253.5,-131.5 253.5,-112.5 149.5,-112.5"/>
<text text-anchor="middle" x="201.5" y="-119.5" font-family="Helvetica,sans-Serif" font-size="10.00">arduino_pinmap.h</text>
</a>
</g>
</g>
<!-- Node1&#45;&gt;Node6 -->
<g id="edge7" class="edge">
<title>Node1&#45;&gt;Node6</title>
<path fill="none" stroke="midnightblue" d="M158.77,-168.4C167.08,-159.58 177.8,-148.18 186.42,-139.02"/>
<polygon fill="midnightblue" stroke="midnightblue" points="189.05,-141.34 193.35,-131.66 183.95,-136.54 189.05,-141.34"/>
</g>
<!-- Node3&#45;&gt;Node2 -->
<g id="edge4" class="edge">
<title>Node3&#45;&gt;Node2</title>
<path fill="none" stroke="midnightblue" d="M79.41,-112.32C69.01,-104.18 53.24,-91.84 40.78,-82.09"/>
<polygon fill="midnightblue" stroke="midnightblue" points="42.82,-79.24 32.79,-75.83 38.51,-84.75 42.82,-79.24"/>
</g>
<!-- Node4 -->
<g id="node4" class="node">
<title>Node4</title>
<g id="a_node4"><a xlink:title=" ">
<polygon fill="none" stroke="#bfbfbf" points="32,-0.5 32,-19.5 85,-19.5 85,-0.5 32,-0.5"/>
<text text-anchor="middle" x="58.5" y="-7.5" font-family="Helvetica,sans-Serif" font-size="10.00">stdint.h</text>
</a>
</g>
</g>
<!-- Node3&#45;&gt;Node4 -->
<g id="edge3" class="edge">
<title>Node3&#45;&gt;Node4</title>
<path fill="none" stroke="midnightblue" d="M87.99,-112.37C82.8,-94.54 70.8,-53.3 63.82,-29.27"/>
<polygon fill="midnightblue" stroke="midnightblue" points="67.15,-28.22 61,-19.59 60.43,-30.17 67.15,-28.22"/>
</g>
<!-- Node3&#45;&gt;Node5 -->
<g id="edge5" class="edge">
<title>Node3&#45;&gt;Node5</title>
<path fill="none" stroke="midnightblue" d="M131.58,-113.46C184.93,-103.37 272.67,-85.63 284.5,-76 298.79,-64.37 306.59,-44.42 310.62,-29.68"/>
<polygon fill="midnightblue" stroke="midnightblue" points="314.1,-30.19 313.02,-19.65 307.29,-28.56 314.1,-30.19"/>
</g>
<!-- Node7 -->
<g id="node7" class="node">
<title>Node7</title>
<g id="a_node7"><a xlink:href="gpio_8h.html" target="_top" xlink:title="Low&#45;level GPIO peripheral driver interface definitions.">
<polygon fill="none" stroke="black" points="195.5,-56.5 195.5,-75.5 275.5,-75.5 275.5,-56.5 195.5,-56.5"/>
<text text-anchor="middle" x="235.5" y="-63.5" font-family="Helvetica,sans-Serif" font-size="10.00">periph/gpio.h</text>
</a>
</g>
</g>
<!-- Node6&#45;&gt;Node7 -->
<g id="edge8" class="edge">
<title>Node6&#45;&gt;Node7</title>
<path fill="none" stroke="midnightblue" d="M207.11,-112.08C211.87,-104.53 218.82,-93.49 224.65,-84.23"/>
<polygon fill="midnightblue" stroke="midnightblue" points="227.62,-86.08 229.99,-75.75 221.7,-82.35 227.62,-86.08"/>
</g>
<!-- Node10 -->
<g id="node10" class="node">
<title>Node10</title>
<g id="a_node10"><a xlink:href="adc_8h.html" target="_top" xlink:title="Low&#45;level ADC peripheral driver interface definitions.">
<polygon fill="none" stroke="black" points="100,-56.5 100,-75.5 177,-75.5 177,-56.5 100,-56.5"/>
<text text-anchor="middle" x="138.5" y="-63.5" font-family="Helvetica,sans-Serif" font-size="10.00">periph/adc.h</text>
</a>
</g>
</g>
<!-- Node6&#45;&gt;Node10 -->
<g id="edge12" class="edge">
<title>Node6&#45;&gt;Node10</title>
<path fill="none" stroke="midnightblue" d="M191.38,-112.32C181.97,-104.26 167.76,-92.08 156.43,-82.37"/>
<polygon fill="midnightblue" stroke="midnightblue" points="158.68,-79.68 148.81,-75.83 154.12,-85 158.68,-79.68"/>
</g>
<!-- Node7&#45;&gt;Node5 -->
<g id="edge10" class="edge">
<title>Node7&#45;&gt;Node5</title>
<path fill="none" stroke="midnightblue" d="M248.19,-56.32C260.4,-47.98 279.08,-35.21 293.5,-25.35"/>
<polygon fill="midnightblue" stroke="midnightblue" points="295.56,-28.19 301.84,-19.65 291.61,-22.41 295.56,-28.19"/>
</g>
<!-- Node8 -->
<g id="node8" class="node">
<title>Node8</title>
<g id="a_node8"><a xlink:title=" ">
<polygon fill="none" stroke="#bfbfbf" points="204,-0.5 204,-19.5 257,-19.5 257,-0.5 204,-0.5"/>
<text text-anchor="middle" x="230.5" y="-7.5" font-family="Helvetica,sans-Serif" font-size="10.00">limits.h</text>
</a>
</g>
</g>
<!-- Node7&#45;&gt;Node8 -->
<g id="edge9" class="edge">
<title>Node7&#45;&gt;Node8</title>
<path fill="none" stroke="midnightblue" d="M234.67,-56.08C234.02,-49.01 233.08,-38.86 232.26,-29.99"/>
<polygon fill="midnightblue" stroke="midnightblue" points="235.72,-29.39 231.31,-19.75 228.75,-30.03 235.72,-29.39"/>
</g>
<!-- Node9 -->
<g id="node9" class="node">
<title>Node9</title>
<g id="a_node9"><a xlink:title=" ">
<polygon fill="none" stroke="#bfbfbf" points="103.5,-0.5 103.5,-19.5 185.5,-19.5 185.5,-0.5 103.5,-0.5"/>
<text text-anchor="middle" x="144.5" y="-7.5" font-family="Helvetica,sans-Serif" font-size="10.00">periph_conf.h</text>
</a>
</g>
</g>
<!-- Node7&#45;&gt;Node9 -->
<g id="edge11" class="edge">
<title>Node7&#45;&gt;Node9</title>
<path fill="none" stroke="midnightblue" d="M220.88,-56.32C206.55,-47.82 184.49,-34.73 167.75,-24.8"/>
<polygon fill="midnightblue" stroke="midnightblue" points="169.47,-21.75 159.08,-19.65 165.9,-27.77 169.47,-21.75"/>
</g>
<!-- Node10&#45;&gt;Node4 -->
<g id="edge14" class="edge">
<title>Node10&#45;&gt;Node4</title>
<path fill="none" stroke="midnightblue" d="M125.65,-56.32C113.28,-47.98 94.37,-35.21 79.76,-25.35"/>
<polygon fill="midnightblue" stroke="midnightblue" points="81.57,-22.35 71.32,-19.65 77.65,-28.15 81.57,-22.35"/>
</g>
<!-- Node10&#45;&gt;Node5 -->
<g id="edge15" class="edge">
<title>Node10&#45;&gt;Node5</title>
<path fill="none" stroke="midnightblue" d="M166.39,-56.44C196.25,-47.28 243.81,-32.69 276.96,-22.52"/>
<polygon fill="midnightblue" stroke="midnightblue" points="278.21,-25.8 286.74,-19.52 276.16,-19.1 278.21,-25.8"/>
</g>
<!-- Node10&#45;&gt;Node8 -->
<g id="edge13" class="edge">
<title>Node10&#45;&gt;Node8</title>
<path fill="none" stroke="midnightblue" d="M153.28,-56.32C167.77,-47.82 190.07,-34.73 206.99,-24.8"/>
<polygon fill="midnightblue" stroke="midnightblue" points="208.9,-27.74 215.76,-19.65 205.36,-21.7 208.9,-27.74"/>
</g>
<!-- Node10&#45;&gt;Node9 -->
<g id="edge16" class="edge">
<title>Node10&#45;&gt;Node9</title>
<path fill="none" stroke="midnightblue" d="M139.49,-56.08C140.29,-48.93 141.43,-38.64 142.42,-29.69"/>
<polygon fill="midnightblue" stroke="midnightblue" points="145.9,-30.08 143.53,-19.75 138.94,-29.3 145.9,-30.08"/>
</g>
</g>
</svg>
