<?xml version="1.0" encoding="UTF-8" standalone="no"?>
<!DOCTYPE svg PUBLIC "-//W3C//DTD SVG 1.1//EN"
 "http://www.w3.org/Graphics/SVG/1.1/DTD/svg11.dtd">
<!-- Generated by graphviz version 2.43.0 (0)
 -->
<!-- Title: boards/common/nucleo64/include/board.h Pages: 1 -->
<svg width="400pt" height="207pt"
 viewBox="0.00 0.00 400.00 207.00" xmlns="http://www.w3.org/2000/svg" xmlns:xlink="http://www.w3.org/1999/xlink">
<g id="graph0" class="graph" transform="scale(1 1) rotate(0) translate(4 203)">
<title>boards/common/nucleo64/include/board.h</title>
<!-- Node1 -->
<g id="node1" class="node">
<title>Node1</title>
<g id="a_node1"><a xlink:title="Common pin definitions and board configuration options.">
<polygon fill="#bfbfbf" stroke="black" points="82,-168.5 82,-198.5 225,-198.5 225,-168.5 82,-168.5"/>
<text text-anchor="start" x="90" y="-186.5" font-family="Helvetica,sans-Serif" font-size="10.00">boards/common/nucleo64</text>
<text text-anchor="middle" x="153.5" y="-175.5" font-family="Helvetica,sans-Serif" font-size="10.00">/include/board.h</text>
</a>
</g>
</g>
<!-- Node2 -->
<g id="node2" class="node">
<title>Node2</title>
<g id="a_node2"><a xlink:href="board__nucleo_8h.html" target="_top" xlink:title="Global common Nucleo board configuration.">
<polygon fill="none" stroke="black" points="0,-112.5 0,-131.5 91,-131.5 91,-112.5 0,-112.5"/>
<text text-anchor="middle" x="45.5" y="-119.5" font-family="Helvetica,sans-Serif" font-size="10.00">board_nucleo.h</text>
</a>
</g>
</g>
<!-- Node1&#45;&gt;Node2 -->
<g id="edge1" class="edge">
<title>Node1&#45;&gt;Node2</title>
<path fill="none" stroke="midnightblue" d="M127.91,-168.4C110.43,-158.77 87.41,-146.09 70.14,-136.58"/>
<polygon fill="midnightblue" stroke="midnightblue" points="71.66,-133.42 61.21,-131.66 68.28,-139.55 71.66,-133.42"/>
</g>
<!-- Node5 -->
<g id="node5" class="node">
<title>Node5</title>
<g id="a_node5"><a xlink:href="common_2nucleo64_2include_2arduino__pinmap_8h.html" target="_top" xlink:title="Mapping from MCU pins to Arduino pins.">
<polygon fill="none" stroke="black" points="216.5,-112.5 216.5,-131.5 320.5,-131.5 320.5,-112.5 216.5,-112.5"/>
<text text-anchor="middle" x="268.5" y="-119.5" font-family="Helvetica,sans-Serif" font-size="10.00">arduino_pinmap.h</text>
</a>
</g>
</g>
<!-- Node1&#45;&gt;Node5 -->
<g id="edge4" class="edge">
<title>Node1&#45;&gt;Node5</title>
<path fill="none" stroke="midnightblue" d="M180.75,-168.4C199.53,-158.68 224.33,-145.86 242.77,-136.31"/>
<polygon fill="midnightblue" stroke="midnightblue" points="244.49,-139.36 251.77,-131.66 241.28,-133.14 244.49,-139.36"/>
</g>
<!-- Node11 -->
<g id="node11" class="node">
<title>Node11</title>
<g id="a_node11"><a xlink:href="motor__driver_8h.html" target="_top" xlink:title="High&#45;level driver for DC motors.">
<polygon fill="none" stroke="black" points="109,-112.5 109,-131.5 198,-131.5 198,-112.5 109,-112.5"/>
<text text-anchor="middle" x="153.5" y="-119.5" font-family="Helvetica,sans-Serif" font-size="10.00">motor_driver.h</text>
</a>
</g>
</g>
<!-- Node1&#45;&gt;Node11 -->
<g id="edge14" class="edge">
<title>Node1&#45;&gt;Node11</title>
<path fill="none" stroke="midnightblue" d="M153.5,-168.4C153.5,-160.47 153.5,-150.46 153.5,-141.86"/>
<polygon fill="midnightblue" stroke="midnightblue" points="157,-141.66 153.5,-131.66 150,-141.66 157,-141.66"/>
</g>
<!-- Node3 -->
<g id="node3" class="node">
<title>Node3</title>
<g id="a_node3"><a xlink:title=" ">
<polygon fill="none" stroke="#bfbfbf" points="38,-56.5 38,-75.5 81,-75.5 81,-56.5 38,-56.5"/>
<text text-anchor="middle" x="59.5" y="-63.5" font-family="Helvetica,sans-Serif" font-size="10.00">cpu.h</text>
</a>
</g>
</g>
<!-- Node2&#45;&gt;Node3 -->
<g id="edge2" class="edge">
<title>Node2&#45;&gt;Node3</title>
<path fill="none" stroke="midnightblue" d="M47.81,-112.08C49.67,-104.93 52.34,-94.64 54.65,-85.69"/>
<polygon fill="midnightblue" stroke="midnightblue" points="58.11,-86.31 57.23,-75.75 51.33,-84.55 58.11,-86.31"/>
</g>
<!-- Node4 -->
<g id="node4" class="node">
<title>Node4</title>
<g id="a_node4"><a xlink:title=" ">
<polygon fill="none" stroke="#bfbfbf" points="70.5,-0.5 70.5,-19.5 152.5,-19.5 152.5,-0.5 70.5,-0.5"/>
<text text-anchor="middle" x="111.5" y="-7.5" font-family="Helvetica,sans-Serif" font-size="10.00">periph_conf.h</text>
</a>
</g>
</g>
<!-- Node2&#45;&gt;Node4 -->
<g id="edge3" class="edge">
<title>Node2&#45;&gt;Node4</title>
<path fill="none" stroke="midnightblue" d="M39.34,-112.42C30.81,-99.4 17.64,-74.24 28.5,-56 37.6,-40.72 53.89,-30.31 69.64,-23.39"/>
<polygon fill="midnightblue" stroke="midnightblue" points="71.33,-26.48 79.32,-19.51 68.73,-19.98 71.33,-26.48"/>
</g>
<!-- Node6 -->
<g id="node6" class="node">
<title>Node6</title>
<g id="a_node6"><a xlink:href="gpio_8h.html" target="_top" xlink:title="Low&#45;level GPIO peripheral driver interface definitions.">
<polygon fill="none" stroke="black" points="99.5,-56.5 99.5,-75.5 179.5,-75.5 179.5,-56.5 99.5,-56.5"/>
<text text-anchor="middle" x="139.5" y="-63.5" font-family="Helvetica,sans-Serif" font-size="10.00">periph/gpio.h</text>
</a>
</g>
</g>
<!-- Node5&#45;&gt;Node6 -->
<g id="edge5" class="edge">
<title>Node5&#45;&gt;Node6</title>
<path fill="none" stroke="midnightblue" d="M248.06,-112.44C226.83,-103.56 193.4,-89.56 169.25,-79.45"/>
<polygon fill="midnightblue" stroke="midnightblue" points="170.42,-76.15 159.84,-75.52 167.72,-82.61 170.42,-76.15"/>
</g>
<!-- Node9 -->
<g id="node9" class="node">
<title>Node9</title>
<g id="a_node9"><a xlink:href="adc_8h.html" target="_top" xlink:title="Low&#45;level ADC peripheral driver interface definitions.">
<polygon fill="none" stroke="black" points="299,-56.5 299,-75.5 376,-75.5 376,-56.5 299,-56.5"/>
<text text-anchor="middle" x="337.5" y="-63.5" font-family="Helvetica,sans-Serif" font-size="10.00">periph/adc.h</text>
</a>
</g>
</g>
<!-- Node5&#45;&gt;Node9 -->
<g id="edge9" class="edge">
<title>Node5&#45;&gt;Node9</title>
<path fill="none" stroke="midnightblue" d="M279.59,-112.32C289.99,-104.18 305.76,-91.84 318.22,-82.09"/>
<polygon fill="midnightblue" stroke="midnightblue" points="320.49,-84.75 326.21,-75.83 316.18,-79.24 320.49,-84.75"/>
</g>
<!-- Node6&#45;&gt;Node4 -->
<g id="edge8" class="edge">
<title>Node6&#45;&gt;Node4</title>
<path fill="none" stroke="midnightblue" d="M134.88,-56.08C131.04,-48.69 125.48,-37.95 120.74,-28.81"/>
<polygon fill="midnightblue" stroke="midnightblue" points="123.75,-27.02 116.04,-19.75 117.53,-30.24 123.75,-27.02"/>
</g>
<!-- Node7 -->
<g id="node7" class="node">
<title>Node7</title>
<g id="a_node7"><a xlink:title=" ">
<polygon fill="none" stroke="#bfbfbf" points="171,-0.5 171,-19.5 224,-19.5 224,-0.5 171,-0.5"/>
<text text-anchor="middle" x="197.5" y="-7.5" font-family="Helvetica,sans-Serif" font-size="10.00">limits.h</text>
</a>
</g>
</g>
<!-- Node6&#45;&gt;Node7 -->
<g id="edge6" class="edge">
<title>Node6&#45;&gt;Node7</title>
<path fill="none" stroke="midnightblue" d="M148.82,-56.32C157.39,-48.34 170.31,-36.31 180.69,-26.65"/>
<polygon fill="midnightblue" stroke="midnightblue" points="183.08,-29.21 188.01,-19.83 178.31,-24.09 183.08,-29.21"/>
</g>
<!-- Node8 -->
<g id="node8" class="node">
<title>Node8</title>
<g id="a_node8"><a xlink:title=" ">
<polygon fill="none" stroke="#bfbfbf" points="242,-0.5 242,-19.5 321,-19.5 321,-0.5 242,-0.5"/>
<text text-anchor="middle" x="281.5" y="-7.5" font-family="Helvetica,sans-Serif" font-size="10.00">periph_cpu.h</text>
</a>
</g>
</g>
<!-- Node6&#45;&gt;Node8 -->
<g id="edge7" class="edge">
<title>Node6&#45;&gt;Node8</title>
<path fill="none" stroke="midnightblue" d="M162,-56.44C185.58,-47.48 222.82,-33.31 249.46,-23.18"/>
<polygon fill="midnightblue" stroke="midnightblue" points="251,-26.34 259.1,-19.52 248.51,-19.8 251,-26.34"/>
</g>
<!-- Node9&#45;&gt;Node4 -->
<g id="edge13" class="edge">
<title>Node9&#45;&gt;Node4</title>
<path fill="none" stroke="midnightblue" d="M301.69,-56.44C262.51,-47.08 199.62,-32.06 156.98,-21.87"/>
<polygon fill="midnightblue" stroke="midnightblue" points="157.68,-18.44 147.14,-19.52 156.06,-25.24 157.68,-18.44"/>
</g>
<!-- Node9&#45;&gt;Node7 -->
<g id="edge10" class="edge">
<title>Node9&#45;&gt;Node7</title>
<path fill="none" stroke="midnightblue" d="M315.32,-56.44C292.07,-47.48 255.35,-33.31 229.08,-23.18"/>
<polygon fill="midnightblue" stroke="midnightblue" points="230.17,-19.85 219.58,-19.52 227.65,-26.38 230.17,-19.85"/>
</g>
<!-- Node9&#45;&gt;Node8 -->
<g id="edge12" class="edge">
<title>Node9&#45;&gt;Node8</title>
<path fill="none" stroke="midnightblue" d="M328.5,-56.32C320.31,-48.42 307.99,-36.55 298.03,-26.94"/>
<polygon fill="midnightblue" stroke="midnightblue" points="300.29,-24.26 290.66,-19.83 295.43,-29.29 300.29,-24.26"/>
</g>
<!-- Node10 -->
<g id="node10" class="node">
<title>Node10</title>
<g id="a_node10"><a xlink:title=" ">
<polygon fill="none" stroke="#bfbfbf" points="339,-0.5 339,-19.5 392,-19.5 392,-0.5 339,-0.5"/>
<text text-anchor="middle" x="365.5" y="-7.5" font-family="Helvetica,sans-Serif" font-size="10.00">stdint.h</text>
</a>
</g>
</g>
<!-- Node9&#45;&gt;Node10 -->
<g id="edge11" class="edge">
<title>Node9&#45;&gt;Node10</title>
<path fill="none" stroke="midnightblue" d="M342.12,-56.08C345.96,-48.69 351.52,-37.95 356.26,-28.81"/>
<polygon fill="midnightblue" stroke="midnightblue" points="359.47,-30.24 360.96,-19.75 353.25,-27.02 359.47,-30.24"/>
</g>
<!-- Node11&#45;&gt;Node6 -->
<g id="edge20" class="edge">
<title>Node11&#45;&gt;Node6</title>
<path fill="none" stroke="midnightblue" d="M151.19,-112.08C149.33,-104.93 146.66,-94.64 144.35,-85.69"/>
<polygon fill="midnightblue" stroke="midnightblue" points="147.67,-84.55 141.77,-75.75 140.89,-86.31 147.67,-84.55"/>
</g>
<!-- Node12 -->
<g id="node12" class="node">
<title>Node12</title>
<g id="a_node12"><a xlink:href="pwm_8h.html" target="_top" xlink:title="Low&#45;level PWM peripheral driver interface definitions.">
<polygon fill="none" stroke="black" points="198,-56.5 198,-75.5 281,-75.5 281,-56.5 198,-56.5"/>
<text text-anchor="middle" x="239.5" y="-63.5" font-family="Helvetica,sans-Serif" font-size="10.00">periph/pwm.h</text>
</a>
</g>
</g>
<!-- Node11&#45;&gt;Node12 -->
<g id="edge15" class="edge">
<title>Node11&#45;&gt;Node12</title>
<path fill="none" stroke="midnightblue" d="M167.32,-112.32C180.73,-103.9 201.32,-90.97 217.09,-81.07"/>
<polygon fill="midnightblue" stroke="midnightblue" points="219.11,-83.94 225.72,-75.65 215.39,-78.01 219.11,-83.94"/>
</g>
<!-- Node12&#45;&gt;Node4 -->
<g id="edge19" class="edge">
<title>Node12&#45;&gt;Node4</title>
<path fill="none" stroke="midnightblue" d="M219.22,-56.44C198.15,-47.56 164.98,-33.56 141.01,-23.45"/>
<polygon fill="midnightblue" stroke="midnightblue" points="142.26,-20.18 131.69,-19.52 139.54,-26.63 142.26,-20.18"/>
</g>
<!-- Node12&#45;&gt;Node7 -->
<g id="edge17" class="edge">
<title>Node12&#45;&gt;Node7</title>
<path fill="none" stroke="midnightblue" d="M232.56,-56.08C226.57,-48.38 217.75,-37.03 210.45,-27.65"/>
<polygon fill="midnightblue" stroke="midnightblue" points="213.21,-25.5 204.31,-19.75 207.68,-29.79 213.21,-25.5"/>
</g>
<!-- Node12&#45;&gt;Node8 -->
<g id="edge18" class="edge">
<title>Node12&#45;&gt;Node8</title>
<path fill="none" stroke="midnightblue" d="M246.44,-56.08C252.43,-48.38 261.25,-37.03 268.55,-27.65"/>
<polygon fill="midnightblue" stroke="midnightblue" points="271.32,-29.79 274.69,-19.75 265.79,-25.5 271.32,-29.79"/>
</g>
<!-- Node12&#45;&gt;Node10 -->
<g id="edge16" class="edge">
<title>Node12&#45;&gt;Node10</title>
<path fill="none" stroke="midnightblue" d="M259.47,-56.44C280.11,-47.6 312.56,-33.69 336.13,-23.59"/>
<polygon fill="midnightblue" stroke="midnightblue" points="337.82,-26.67 345.63,-19.52 335.06,-20.24 337.82,-26.67"/>
</g>
</g>
</svg>
