<?xml version="1.0" encoding="UTF-8" standalone="no"?>
<!DOCTYPE svg PUBLIC "-//W3C//DTD SVG 1.1//EN"
 "http://www.w3.org/Graphics/SVG/1.1/DTD/svg11.dtd">
<!-- Generated by graphviz version 2.43.0 (0)
 -->
<!-- Title: boards/common/nucleo144/include/board.h Pages: 1 -->
<svg width="360pt" height="207pt"
 viewBox="0.00 0.00 360.00 207.00" xmlns="http://www.w3.org/2000/svg" xmlns:xlink="http://www.w3.org/1999/xlink">
<g id="graph0" class="graph" transform="scale(1 1) rotate(0) translate(4 203)">
<title>boards/common/nucleo144/include/board.h</title>
<!-- Node1 -->
<g id="node1" class="node">
<title>Node1</title>
<g id="a_node1"><a xlink:title="Common pin definitions and board configuration options.">
<polygon fill="#bfbfbf" stroke="black" points="33,-168.5 33,-198.5 182,-198.5 182,-168.5 33,-168.5"/>
<text text-anchor="start" x="41" y="-186.5" font-family="Helvetica,sans-Serif" font-size="10.00">boards/common/nucleo144</text>
<text text-anchor="middle" x="107.5" y="-175.5" font-family="Helvetica,sans-Serif" font-size="10.00">/include/board.h</text>
</a>
</g>
</g>
<!-- Node2 -->
<g id="node2" class="node">
<title>Node2</title>
<g id="a_node2"><a xlink:href="board__nucleo_8h.html" target="_top" xlink:title="Global common Nucleo board configuration.">
<polygon fill="none" stroke="black" points="4,-112.5 4,-131.5 95,-131.5 95,-112.5 4,-112.5"/>
<text text-anchor="middle" x="49.5" y="-119.5" font-family="Helvetica,sans-Serif" font-size="10.00">board_nucleo.h</text>
</a>
</g>
</g>
<!-- Node1&#45;&gt;Node2 -->
<g id="edge1" class="edge">
<title>Node1&#45;&gt;Node2</title>
<path fill="none" stroke="midnightblue" d="M93.75,-168.4C85.15,-159.58 74.05,-148.18 65.11,-139.02"/>
<polygon fill="midnightblue" stroke="midnightblue" points="67.43,-136.38 57.94,-131.66 62.41,-141.26 67.43,-136.38"/>
</g>
<!-- Node5 -->
<g id="node5" class="node">
<title>Node5</title>
<g id="a_node5"><a xlink:href="common_2nucleo144_2include_2arduino__pinmap_8h.html" target="_top" xlink:title="Mapping from MCU pins to Arduino pins.">
<polygon fill="none" stroke="black" points="113.5,-112.5 113.5,-131.5 217.5,-131.5 217.5,-112.5 113.5,-112.5"/>
<text text-anchor="middle" x="165.5" y="-119.5" font-family="Helvetica,sans-Serif" font-size="10.00">arduino_pinmap.h</text>
</a>
</g>
</g>
<!-- Node1&#45;&gt;Node5 -->
<g id="edge4" class="edge">
<title>Node1&#45;&gt;Node5</title>
<path fill="none" stroke="midnightblue" d="M121.25,-168.4C129.85,-159.58 140.95,-148.18 149.89,-139.02"/>
<polygon fill="midnightblue" stroke="midnightblue" points="152.59,-141.26 157.06,-131.66 147.57,-136.38 152.59,-141.26"/>
</g>
<!-- Node3 -->
<g id="node3" class="node">
<title>Node3</title>
<g id="a_node3"><a xlink:title=" ">
<polygon fill="none" stroke="#bfbfbf" points="0,-56.5 0,-75.5 43,-75.5 43,-56.5 0,-56.5"/>
<text text-anchor="middle" x="21.5" y="-63.5" font-family="Helvetica,sans-Serif" font-size="10.00">cpu.h</text>
</a>
</g>
</g>
<!-- Node2&#45;&gt;Node3 -->
<g id="edge2" class="edge">
<title>Node2&#45;&gt;Node3</title>
<path fill="none" stroke="midnightblue" d="M44.88,-112.08C41.04,-104.69 35.48,-93.95 30.74,-84.81"/>
<polygon fill="midnightblue" stroke="midnightblue" points="33.75,-83.02 26.04,-75.75 27.53,-86.24 33.75,-83.02"/>
</g>
<!-- Node4 -->
<g id="node4" class="node">
<title>Node4</title>
<g id="a_node4"><a xlink:title=" ">
<polygon fill="none" stroke="#bfbfbf" points="30.5,-0.5 30.5,-19.5 112.5,-19.5 112.5,-0.5 30.5,-0.5"/>
<text text-anchor="middle" x="71.5" y="-7.5" font-family="Helvetica,sans-Serif" font-size="10.00">periph_conf.h</text>
</a>
</g>
</g>
<!-- Node2&#45;&gt;Node4 -->
<g id="edge3" class="edge">
<title>Node2&#45;&gt;Node4</title>
<path fill="none" stroke="midnightblue" d="M51.23,-112.37C54.78,-94.62 62.97,-53.67 67.78,-29.6"/>
<polygon fill="midnightblue" stroke="midnightblue" points="71.25,-30.08 69.78,-19.59 64.39,-28.71 71.25,-30.08"/>
</g>
<!-- Node6 -->
<g id="node6" class="node">
<title>Node6</title>
<g id="a_node6"><a xlink:href="gpio_8h.html" target="_top" xlink:title="Low&#45;level GPIO peripheral driver interface definitions.">
<polygon fill="none" stroke="black" points="104.5,-56.5 104.5,-75.5 184.5,-75.5 184.5,-56.5 104.5,-56.5"/>
<text text-anchor="middle" x="144.5" y="-63.5" font-family="Helvetica,sans-Serif" font-size="10.00">periph/gpio.h</text>
</a>
</g>
</g>
<!-- Node5&#45;&gt;Node6 -->
<g id="edge5" class="edge">
<title>Node5&#45;&gt;Node6</title>
<path fill="none" stroke="midnightblue" d="M162.03,-112.08C159.19,-104.77 155.07,-94.18 151.54,-85.1"/>
<polygon fill="midnightblue" stroke="midnightblue" points="154.79,-83.8 147.9,-75.75 148.27,-86.34 154.79,-83.8"/>
</g>
<!-- Node9 -->
<g id="node9" class="node">
<title>Node9</title>
<g id="a_node9"><a xlink:href="adc_8h.html" target="_top" xlink:title="Low&#45;level ADC peripheral driver interface definitions.">
<polygon fill="none" stroke="black" points="203,-56.5 203,-75.5 280,-75.5 280,-56.5 203,-56.5"/>
<text text-anchor="middle" x="241.5" y="-63.5" font-family="Helvetica,sans-Serif" font-size="10.00">periph/adc.h</text>
</a>
</g>
</g>
<!-- Node5&#45;&gt;Node9 -->
<g id="edge9" class="edge">
<title>Node5&#45;&gt;Node9</title>
<path fill="none" stroke="midnightblue" d="M177.71,-112.32C189.28,-104.11 206.88,-91.6 220.66,-81.81"/>
<polygon fill="midnightblue" stroke="midnightblue" points="222.94,-84.48 229.07,-75.83 218.89,-78.77 222.94,-84.48"/>
</g>
<!-- Node6&#45;&gt;Node4 -->
<g id="edge8" class="edge">
<title>Node6&#45;&gt;Node4</title>
<path fill="none" stroke="midnightblue" d="M132.77,-56.32C121.66,-48.11 104.76,-35.6 91.52,-25.81"/>
<polygon fill="midnightblue" stroke="midnightblue" points="93.56,-22.97 83.44,-19.83 89.4,-28.59 93.56,-22.97"/>
</g>
<!-- Node7 -->
<g id="node7" class="node">
<title>Node7</title>
<g id="a_node7"><a xlink:title=" ">
<polygon fill="none" stroke="#bfbfbf" points="131,-0.5 131,-19.5 184,-19.5 184,-0.5 131,-0.5"/>
<text text-anchor="middle" x="157.5" y="-7.5" font-family="Helvetica,sans-Serif" font-size="10.00">limits.h</text>
</a>
</g>
</g>
<!-- Node6&#45;&gt;Node7 -->
<g id="edge6" class="edge">
<title>Node6&#45;&gt;Node7</title>
<path fill="none" stroke="midnightblue" d="M146.65,-56.08C148.37,-48.93 150.85,-38.64 153,-29.69"/>
<polygon fill="midnightblue" stroke="midnightblue" points="156.46,-30.29 155.39,-19.75 149.65,-28.65 156.46,-30.29"/>
</g>
<!-- Node8 -->
<g id="node8" class="node">
<title>Node8</title>
<g id="a_node8"><a xlink:title=" ">
<polygon fill="none" stroke="#bfbfbf" points="202,-0.5 202,-19.5 281,-19.5 281,-0.5 202,-0.5"/>
<text text-anchor="middle" x="241.5" y="-7.5" font-family="Helvetica,sans-Serif" font-size="10.00">periph_cpu.h</text>
</a>
</g>
</g>
<!-- Node6&#45;&gt;Node8 -->
<g id="edge7" class="edge">
<title>Node6&#45;&gt;Node8</title>
<path fill="none" stroke="midnightblue" d="M160.08,-56.32C175.5,-47.74 199.31,-34.49 217.21,-24.52"/>
<polygon fill="midnightblue" stroke="midnightblue" points="218.92,-27.58 225.95,-19.65 215.51,-21.46 218.92,-27.58"/>
</g>
<!-- Node9&#45;&gt;Node4 -->
<g id="edge13" class="edge">
<title>Node9&#45;&gt;Node4</title>
<path fill="none" stroke="midnightblue" d="M214.56,-56.44C185.84,-47.32 140.17,-32.81 108.18,-22.65"/>
<polygon fill="midnightblue" stroke="midnightblue" points="108.9,-19.21 98.31,-19.52 106.78,-25.88 108.9,-19.21"/>
</g>
<!-- Node9&#45;&gt;Node7 -->
<g id="edge10" class="edge">
<title>Node9&#45;&gt;Node7</title>
<path fill="none" stroke="midnightblue" d="M228,-56.32C214.9,-47.9 194.79,-34.97 179.39,-25.07"/>
<polygon fill="midnightblue" stroke="midnightblue" points="181.27,-22.12 170.96,-19.65 177.48,-28.01 181.27,-22.12"/>
</g>
<!-- Node9&#45;&gt;Node8 -->
<g id="edge12" class="edge">
<title>Node9&#45;&gt;Node8</title>
<path fill="none" stroke="midnightblue" d="M241.5,-56.08C241.5,-49.01 241.5,-38.86 241.5,-29.99"/>
<polygon fill="midnightblue" stroke="midnightblue" points="245,-29.75 241.5,-19.75 238,-29.75 245,-29.75"/>
</g>
<!-- Node10 -->
<g id="node10" class="node">
<title>Node10</title>
<g id="a_node10"><a xlink:title=" ">
<polygon fill="none" stroke="#bfbfbf" points="299,-0.5 299,-19.5 352,-19.5 352,-0.5 299,-0.5"/>
<text text-anchor="middle" x="325.5" y="-7.5" font-family="Helvetica,sans-Serif" font-size="10.00">stdint.h</text>
</a>
</g>
</g>
<!-- Node9&#45;&gt;Node10 -->
<g id="edge11" class="edge">
<title>Node9&#45;&gt;Node10</title>
<path fill="none" stroke="midnightblue" d="M255,-56.32C268.1,-47.9 288.21,-34.97 303.61,-25.07"/>
<polygon fill="midnightblue" stroke="midnightblue" points="305.52,-28.01 312.04,-19.65 301.73,-22.12 305.52,-28.01"/>
</g>
</g>
</svg>
