<?xml version="1.0" encoding="UTF-8" standalone="no"?>
<!DOCTYPE svg PUBLIC "-//W3C//DTD SVG 1.1//EN"
 "http://www.w3.org/Graphics/SVG/1.1/DTD/svg11.dtd">
<!-- Generated by graphviz version 2.40.1 (20161225.0304)
 -->
<!-- Title: boards/common/nucleo144/include/board.h Pages: 1 -->
<svg width="339pt" height="207pt"
 viewBox="0.00 0.00 339.00 207.00" xmlns="http://www.w3.org/2000/svg" xmlns:xlink="http://www.w3.org/1999/xlink">
<g id="graph0" class="graph" transform="scale(1 1) rotate(0) translate(4 203)">
<title>boards/common/nucleo144/include/board.h</title>
<!-- Node0 -->
<g id="node1" class="node">
<title>Node0</title>
<polygon fill="#bfbfbf" stroke="#000000" points="36.5,-168.5 36.5,-198.5 170.5,-198.5 170.5,-168.5 36.5,-168.5"/>
<text text-anchor="start" x="44.5" y="-186.5" font-family="Helvetica,sans-Serif" font-size="10.00" fill="#000000">boards/common/nucleo144</text>
<text text-anchor="middle" x="103.5" y="-175.5" font-family="Helvetica,sans-Serif" font-size="10.00" fill="#000000">/include/board.h</text>
</g>
<!-- Node1 -->
<g id="node2" class="node">
<title>Node1</title>
<g id="a_node2"><a xlink:href="board__nucleo_8h.html" target="_top" xlink:title="Global common Nucleo board configuration. ">
<polygon fill="none" stroke="#000000" points="9,-112.5 9,-131.5 92,-131.5 92,-112.5 9,-112.5"/>
<text text-anchor="middle" x="50.5" y="-119.5" font-family="Helvetica,sans-Serif" font-size="10.00" fill="#000000">board_nucleo.h</text>
</a>
</g>
</g>
<!-- Node0&#45;&gt;Node1 -->
<g id="edge1" class="edge">
<title>Node0&#45;&gt;Node1</title>
<path fill="none" stroke="#191970" d="M90.3989,-168.2977C82.8887,-159.5831 73.43,-148.6075 65.6073,-139.5302"/>
<polygon fill="#191970" stroke="#191970" points="68.1655,-137.1372 58.986,-131.8469 62.8629,-141.707 68.1655,-137.1372"/>
</g>
<!-- Node4 -->
<g id="node5" class="node">
<title>Node4</title>
<g id="a_node5"><a xlink:href="common_2nucleo144_2include_2arduino__pinmap_8h.html" target="_top" xlink:title="Mapping from MCU pins to Arduino pins. ">
<polygon fill="none" stroke="#000000" points="110,-112.5 110,-131.5 203,-131.5 203,-112.5 110,-112.5"/>
<text text-anchor="middle" x="156.5" y="-119.5" font-family="Helvetica,sans-Serif" font-size="10.00" fill="#000000">arduino_pinmap.h</text>
</a>
</g>
</g>
<!-- Node0&#45;&gt;Node4 -->
<g id="edge4" class="edge">
<title>Node0&#45;&gt;Node4</title>
<path fill="none" stroke="#191970" d="M116.6011,-168.2977C124.1113,-159.5831 133.57,-148.6075 141.3927,-139.5302"/>
<polygon fill="#191970" stroke="#191970" points="144.1371,-141.707 148.014,-131.8469 138.8345,-137.1372 144.1371,-141.707"/>
</g>
<!-- Node2 -->
<g id="node3" class="node">
<title>Node2</title>
<polygon fill="none" stroke="#bfbfbf" points="0,-56.5 0,-75.5 41,-75.5 41,-56.5 0,-56.5"/>
<text text-anchor="middle" x="20.5" y="-63.5" font-family="Helvetica,sans-Serif" font-size="10.00" fill="#000000">cpu.h</text>
</g>
<!-- Node1&#45;&gt;Node2 -->
<g id="edge2" class="edge">
<title>Node1&#45;&gt;Node2</title>
<path fill="none" stroke="#191970" d="M45.2744,-112.2455C41.1877,-104.617 35.3865,-93.7881 30.425,-84.5267"/>
<polygon fill="#191970" stroke="#191970" points="33.4732,-82.8047 25.6657,-75.6427 27.3028,-86.1103 33.4732,-82.8047"/>
</g>
<!-- Node3 -->
<g id="node4" class="node">
<title>Node3</title>
<polygon fill="none" stroke="#bfbfbf" points="32,-.5 32,-19.5 107,-19.5 107,-.5 32,-.5"/>
<text text-anchor="middle" x="69.5" y="-7.5" font-family="Helvetica,sans-Serif" font-size="10.00" fill="#000000">periph_conf.h</text>
</g>
<!-- Node1&#45;&gt;Node3 -->
<g id="edge3" class="edge">
<title>Node1&#45;&gt;Node3</title>
<path fill="none" stroke="#191970" d="M52.1199,-112.4509C55.2188,-94.184 62.0433,-53.9553 66.1584,-29.6976"/>
<polygon fill="#191970" stroke="#191970" points="69.6623,-29.9694 67.8842,-19.5249 62.7609,-28.7986 69.6623,-29.9694"/>
</g>
<!-- Node5 -->
<g id="node6" class="node">
<title>Node5</title>
<g id="a_node6"><a xlink:href="gpio_8h.html" target="_top" xlink:title="Low&#45;level GPIO peripheral driver interface definitions. ">
<polygon fill="none" stroke="#000000" points="102.5,-56.5 102.5,-75.5 174.5,-75.5 174.5,-56.5 102.5,-56.5"/>
<text text-anchor="middle" x="138.5" y="-63.5" font-family="Helvetica,sans-Serif" font-size="10.00" fill="#000000">periph/gpio.h</text>
</a>
</g>
</g>
<!-- Node4&#45;&gt;Node5 -->
<g id="edge5" class="edge">
<title>Node4&#45;&gt;Node5</title>
<path fill="none" stroke="#191970" d="M153.3646,-112.2455C150.99,-104.8579 147.6507,-94.4689 144.7385,-85.4087"/>
<polygon fill="#191970" stroke="#191970" points="147.9917,-84.0919 141.5994,-75.6427 141.3275,-86.234 147.9917,-84.0919"/>
</g>
<!-- Node8 -->
<g id="node9" class="node">
<title>Node8</title>
<g id="a_node9"><a xlink:href="adc_8h.html" target="_top" xlink:title="Low&#45;level ADC peripheral driver interface definitions. ">
<polygon fill="none" stroke="#000000" points="192.5,-56.5 192.5,-75.5 262.5,-75.5 262.5,-56.5 192.5,-56.5"/>
<text text-anchor="middle" x="227.5" y="-63.5" font-family="Helvetica,sans-Serif" font-size="10.00" fill="#000000">periph/adc.h</text>
</a>
</g>
</g>
<!-- Node4&#45;&gt;Node8 -->
<g id="edge9" class="edge">
<title>Node4&#45;&gt;Node8</title>
<path fill="none" stroke="#191970" d="M168.8673,-112.2455C179.4554,-103.8943 194.9064,-91.7076 207.2893,-81.9408"/>
<polygon fill="#191970" stroke="#191970" points="209.5903,-84.5837 215.2745,-75.6427 205.2553,-79.0875 209.5903,-84.5837"/>
</g>
<!-- Node5&#45;&gt;Node3 -->
<g id="edge8" class="edge">
<title>Node5&#45;&gt;Node3</title>
<path fill="none" stroke="#191970" d="M126.4811,-56.2455C116.2902,-47.9746 101.4638,-35.9416 89.4893,-26.2232"/>
<polygon fill="#191970" stroke="#191970" points="91.3514,-23.2268 81.3812,-19.6427 86.9402,-28.662 91.3514,-23.2268"/>
</g>
<!-- Node6 -->
<g id="node7" class="node">
<title>Node6</title>
<polygon fill="none" stroke="#bfbfbf" points="125.5,-.5 125.5,-19.5 173.5,-19.5 173.5,-.5 125.5,-.5"/>
<text text-anchor="middle" x="149.5" y="-7.5" font-family="Helvetica,sans-Serif" font-size="10.00" fill="#000000">limits.h</text>
</g>
<!-- Node5&#45;&gt;Node6 -->
<g id="edge6" class="edge">
<title>Node5&#45;&gt;Node6</title>
<path fill="none" stroke="#191970" d="M140.4161,-56.2455C141.8514,-48.9382 143.8636,-38.6944 145.6295,-29.7046"/>
<polygon fill="#191970" stroke="#191970" points="149.1127,-30.1298 147.6059,-19.6427 142.244,-28.7805 149.1127,-30.1298"/>
</g>
<!-- Node7 -->
<g id="node8" class="node">
<title>Node7</title>
<polygon fill="none" stroke="#bfbfbf" points="191.5,-.5 191.5,-19.5 263.5,-19.5 263.5,-.5 191.5,-.5"/>
<text text-anchor="middle" x="227.5" y="-7.5" font-family="Helvetica,sans-Serif" font-size="10.00" fill="#000000">periph_cpu.h</text>
</g>
<!-- Node5&#45;&gt;Node7 -->
<g id="edge7" class="edge">
<title>Node5&#45;&gt;Node7</title>
<path fill="none" stroke="#191970" d="M154.0026,-56.2455C167.658,-47.6534 187.7657,-35.0014 203.4989,-25.1018"/>
<polygon fill="#191970" stroke="#191970" points="205.5751,-27.9307 212.175,-19.6427 201.8471,-22.006 205.5751,-27.9307"/>
</g>
<!-- Node8&#45;&gt;Node3 -->
<g id="edge13" class="edge">
<title>Node8&#45;&gt;Node3</title>
<path fill="none" stroke="#191970" d="M200.3388,-56.3733C174.2933,-47.1419 134.7884,-33.1402 106.0021,-22.9375"/>
<polygon fill="#191970" stroke="#191970" points="106.9015,-19.5429 96.3067,-19.5011 104.563,-26.1408 106.9015,-19.5429"/>
</g>
<!-- Node8&#45;&gt;Node6 -->
<g id="edge10" class="edge">
<title>Node8&#45;&gt;Node6</title>
<path fill="none" stroke="#191970" d="M213.9134,-56.2455C202.1695,-47.814 184.9801,-35.4729 171.3118,-25.6598"/>
<polygon fill="#191970" stroke="#191970" points="173.0954,-22.6316 162.9309,-19.6427 169.0129,-28.3179 173.0954,-22.6316"/>
</g>
<!-- Node8&#45;&gt;Node7 -->
<g id="edge12" class="edge">
<title>Node8&#45;&gt;Node7</title>
<path fill="none" stroke="#191970" d="M227.5,-56.2455C227.5,-48.9382 227.5,-38.6944 227.5,-29.7046"/>
<polygon fill="#191970" stroke="#191970" points="231.0001,-29.6426 227.5,-19.6427 224.0001,-29.6427 231.0001,-29.6426"/>
</g>
<!-- Node9 -->
<g id="node10" class="node">
<title>Node9</title>
<polygon fill="none" stroke="#bfbfbf" points="282,-.5 282,-19.5 331,-19.5 331,-.5 282,-.5"/>
<text text-anchor="middle" x="306.5" y="-7.5" font-family="Helvetica,sans-Serif" font-size="10.00" fill="#000000">stdint.h</text>
</g>
<!-- Node8&#45;&gt;Node9 -->
<g id="edge11" class="edge">
<title>Node8&#45;&gt;Node9</title>
<path fill="none" stroke="#191970" d="M241.2607,-56.2455C253.1552,-47.814 270.565,-35.4729 284.4085,-25.6598"/>
<polygon fill="#191970" stroke="#191970" points="286.7628,-28.2811 292.8969,-19.6427 282.7146,-22.5704 286.7628,-28.2811"/>
</g>
</g>
</svg>
