<?xml version="1.0" encoding="UTF-8" standalone="no"?>
<!DOCTYPE svg PUBLIC "-//W3C//DTD SVG 1.1//EN"
 "http://www.w3.org/Graphics/SVG/1.1/DTD/svg11.dtd">
<!-- Generated by graphviz version 2.43.0 (0)
 -->
<!-- Title: boards/common/nucleo64/include/gpio_params.h Pages: 1 -->
<svg width="437pt" height="263pt"
 viewBox="0.00 0.00 437.00 263.00" xmlns="http://www.w3.org/2000/svg" xmlns:xlink="http://www.w3.org/1999/xlink">
<g id="graph0" class="graph" transform="scale(1 1) rotate(0) translate(4 259)">
<title>boards/common/nucleo64/include/gpio_params.h</title>
<!-- Node1 -->
<g id="node1" class="node">
<title>Node1</title>
<g id="a_node1"><a xlink:title="Board specific configuration of direct mapped GPIOs.">
<polygon fill="#bfbfbf" stroke="black" points="174,-224.5 174,-254.5 317,-254.5 317,-224.5 174,-224.5"/>
<text text-anchor="start" x="182" y="-242.5" font-family="Helvetica,sans-Serif" font-size="10.00">boards/common/nucleo64</text>
<text text-anchor="middle" x="245.5" y="-231.5" font-family="Helvetica,sans-Serif" font-size="10.00">/include/gpio_params.h</text>
</a>
</g>
</g>
<!-- Node2 -->
<g id="node2" class="node">
<title>Node2</title>
<g id="a_node2"><a xlink:href="common_2nucleo64_2include_2board_8h.html" target="_top" xlink:title="Common pin definitions and board configuration options.">
<polygon fill="none" stroke="black" points="192,-168.5 192,-187.5 245,-187.5 245,-168.5 192,-168.5"/>
<text text-anchor="middle" x="218.5" y="-175.5" font-family="Helvetica,sans-Serif" font-size="10.00">board.h</text>
</a>
</g>
</g>
<!-- Node1&#45;&gt;Node2 -->
<g id="edge1" class="edge">
<title>Node1&#45;&gt;Node2</title>
<path fill="none" stroke="midnightblue" d="M239.1,-224.4C235.38,-216.2 230.65,-205.78 226.67,-196.99"/>
<polygon fill="midnightblue" stroke="midnightblue" points="229.75,-195.32 222.43,-187.66 223.37,-198.21 229.75,-195.32"/>
</g>
<!-- Node14 -->
<g id="node14" class="node">
<title>Node14</title>
<g id="a_node14"><a xlink:href="periph_8h.html" target="_top" xlink:title="Parameter definitions for mapping peripherals directly to SAUL.">
<polygon fill="none" stroke="black" points="339.5,-112.5 339.5,-131.5 419.5,-131.5 419.5,-112.5 339.5,-112.5"/>
<text text-anchor="middle" x="379.5" y="-119.5" font-family="Helvetica,sans-Serif" font-size="10.00">saul/periph.h</text>
</a>
</g>
</g>
<!-- Node1&#45;&gt;Node14 -->
<g id="edge22" class="edge">
<title>Node1&#45;&gt;Node14</title>
<path fill="none" stroke="midnightblue" d="M261.93,-224.34C287.28,-202.49 335.72,-160.73 361.81,-138.24"/>
<polygon fill="midnightblue" stroke="midnightblue" points="364.15,-140.85 369.44,-131.67 359.58,-135.55 364.15,-140.85"/>
</g>
<!-- Node3 -->
<g id="node3" class="node">
<title>Node3</title>
<g id="a_node3"><a xlink:href="board__nucleo_8h.html" target="_top" xlink:title="Global common Nucleo board configuration.">
<polygon fill="none" stroke="black" points="0,-112.5 0,-131.5 91,-131.5 91,-112.5 0,-112.5"/>
<text text-anchor="middle" x="45.5" y="-119.5" font-family="Helvetica,sans-Serif" font-size="10.00">board_nucleo.h</text>
</a>
</g>
</g>
<!-- Node2&#45;&gt;Node3 -->
<g id="edge2" class="edge">
<title>Node2&#45;&gt;Node3</title>
<path fill="none" stroke="midnightblue" d="M191.85,-168.68C162.56,-159.54 115.31,-144.79 82.45,-134.53"/>
<polygon fill="midnightblue" stroke="midnightblue" points="83.34,-131.15 72.75,-131.51 81.26,-137.83 83.34,-131.15"/>
</g>
<!-- Node6 -->
<g id="node6" class="node">
<title>Node6</title>
<g id="a_node6"><a xlink:href="common_2nucleo64_2include_2arduino__pinmap_8h.html" target="_top" xlink:title="Mapping from MCU pins to Arduino pins.">
<polygon fill="none" stroke="black" points="109.5,-112.5 109.5,-131.5 213.5,-131.5 213.5,-112.5 109.5,-112.5"/>
<text text-anchor="middle" x="161.5" y="-119.5" font-family="Helvetica,sans-Serif" font-size="10.00">arduino_pinmap.h</text>
</a>
</g>
</g>
<!-- Node2&#45;&gt;Node6 -->
<g id="edge5" class="edge">
<title>Node2&#45;&gt;Node6</title>
<path fill="none" stroke="midnightblue" d="M209.34,-168.32C201,-160.42 188.47,-148.55 178.32,-138.94"/>
<polygon fill="midnightblue" stroke="midnightblue" points="180.49,-136.17 170.82,-131.83 175.68,-141.25 180.49,-136.17"/>
</g>
<!-- Node12 -->
<g id="node12" class="node">
<title>Node12</title>
<g id="a_node12"><a xlink:href="motor__driver_8h.html" target="_top" xlink:title="High&#45;level driver for DC motors.">
<polygon fill="none" stroke="black" points="232,-112.5 232,-131.5 321,-131.5 321,-112.5 232,-112.5"/>
<text text-anchor="middle" x="276.5" y="-119.5" font-family="Helvetica,sans-Serif" font-size="10.00">motor_driver.h</text>
</a>
</g>
</g>
<!-- Node2&#45;&gt;Node12 -->
<g id="edge15" class="edge">
<title>Node2&#45;&gt;Node12</title>
<path fill="none" stroke="midnightblue" d="M227.82,-168.32C236.39,-160.34 249.31,-148.31 259.69,-138.65"/>
<polygon fill="midnightblue" stroke="midnightblue" points="262.08,-141.21 267.01,-131.83 257.31,-136.09 262.08,-141.21"/>
</g>
<!-- Node4 -->
<g id="node4" class="node">
<title>Node4</title>
<g id="a_node4"><a xlink:title=" ">
<polygon fill="none" stroke="#bfbfbf" points="24,-56.5 24,-75.5 67,-75.5 67,-56.5 24,-56.5"/>
<text text-anchor="middle" x="45.5" y="-63.5" font-family="Helvetica,sans-Serif" font-size="10.00">cpu.h</text>
</a>
</g>
</g>
<!-- Node3&#45;&gt;Node4 -->
<g id="edge3" class="edge">
<title>Node3&#45;&gt;Node4</title>
<path fill="none" stroke="midnightblue" d="M45.5,-112.08C45.5,-105.01 45.5,-94.86 45.5,-85.99"/>
<polygon fill="midnightblue" stroke="midnightblue" points="49,-85.75 45.5,-75.75 42,-85.75 49,-85.75"/>
</g>
<!-- Node5 -->
<g id="node5" class="node">
<title>Node5</title>
<g id="a_node5"><a xlink:title=" ">
<polygon fill="none" stroke="#bfbfbf" points="107.5,-0.5 107.5,-19.5 189.5,-19.5 189.5,-0.5 107.5,-0.5"/>
<text text-anchor="middle" x="148.5" y="-7.5" font-family="Helvetica,sans-Serif" font-size="10.00">periph_conf.h</text>
</a>
</g>
</g>
<!-- Node3&#45;&gt;Node5 -->
<g id="edge4" class="edge">
<title>Node3&#45;&gt;Node5</title>
<path fill="none" stroke="midnightblue" d="M53.58,-112.37C70.81,-93.97 111.35,-50.67 133.47,-27.05"/>
<polygon fill="midnightblue" stroke="midnightblue" points="136.18,-29.28 140.46,-19.59 131.07,-24.5 136.18,-29.28"/>
</g>
<!-- Node7 -->
<g id="node7" class="node">
<title>Node7</title>
<g id="a_node7"><a xlink:href="gpio_8h.html" target="_top" xlink:title="Low&#45;level GPIO peripheral driver interface definitions.">
<polygon fill="none" stroke="black" points="138.5,-56.5 138.5,-75.5 218.5,-75.5 218.5,-56.5 138.5,-56.5"/>
<text text-anchor="middle" x="178.5" y="-63.5" font-family="Helvetica,sans-Serif" font-size="10.00">periph/gpio.h</text>
</a>
</g>
</g>
<!-- Node6&#45;&gt;Node7 -->
<g id="edge6" class="edge">
<title>Node6&#45;&gt;Node7</title>
<path fill="none" stroke="midnightblue" d="M164.31,-112.08C166.58,-104.85 169.87,-94.41 172.71,-85.4"/>
<polygon fill="midnightblue" stroke="midnightblue" points="176.08,-86.34 175.75,-75.75 169.4,-84.24 176.08,-86.34"/>
</g>
<!-- Node10 -->
<g id="node10" class="node">
<title>Node10</title>
<g id="a_node10"><a xlink:href="adc_8h.html" target="_top" xlink:title="Low&#45;level ADC peripheral driver interface definitions.">
<polygon fill="none" stroke="black" points="237,-56.5 237,-75.5 314,-75.5 314,-56.5 237,-56.5"/>
<text text-anchor="middle" x="275.5" y="-63.5" font-family="Helvetica,sans-Serif" font-size="10.00">periph/adc.h</text>
</a>
</g>
</g>
<!-- Node6&#45;&gt;Node10 -->
<g id="edge10" class="edge">
<title>Node6&#45;&gt;Node10</title>
<path fill="none" stroke="midnightblue" d="M179.56,-112.44C198.07,-103.68 227.08,-89.94 248.36,-79.86"/>
<polygon fill="midnightblue" stroke="midnightblue" points="249.98,-82.96 257.52,-75.52 246.99,-76.63 249.98,-82.96"/>
</g>
<!-- Node7&#45;&gt;Node5 -->
<g id="edge9" class="edge">
<title>Node7&#45;&gt;Node5</title>
<path fill="none" stroke="midnightblue" d="M173.55,-56.08C169.4,-48.61 163.35,-37.72 158.23,-28.52"/>
<polygon fill="midnightblue" stroke="midnightblue" points="161.28,-26.79 153.36,-19.75 155.16,-30.19 161.28,-26.79"/>
</g>
<!-- Node8 -->
<g id="node8" class="node">
<title>Node8</title>
<g id="a_node8"><a xlink:title=" ">
<polygon fill="none" stroke="#bfbfbf" points="208,-0.5 208,-19.5 261,-19.5 261,-0.5 208,-0.5"/>
<text text-anchor="middle" x="234.5" y="-7.5" font-family="Helvetica,sans-Serif" font-size="10.00">limits.h</text>
</a>
</g>
</g>
<!-- Node7&#45;&gt;Node8 -->
<g id="edge7" class="edge">
<title>Node7&#45;&gt;Node8</title>
<path fill="none" stroke="midnightblue" d="M187.5,-56.32C195.69,-48.42 208.01,-36.55 217.97,-26.94"/>
<polygon fill="midnightblue" stroke="midnightblue" points="220.57,-29.29 225.34,-19.83 215.71,-24.26 220.57,-29.29"/>
</g>
<!-- Node9 -->
<g id="node9" class="node">
<title>Node9</title>
<g id="a_node9"><a xlink:title=" ">
<polygon fill="none" stroke="#bfbfbf" points="279,-0.5 279,-19.5 358,-19.5 358,-0.5 279,-0.5"/>
<text text-anchor="middle" x="318.5" y="-7.5" font-family="Helvetica,sans-Serif" font-size="10.00">periph_cpu.h</text>
</a>
</g>
</g>
<!-- Node7&#45;&gt;Node9 -->
<g id="edge8" class="edge">
<title>Node7&#45;&gt;Node9</title>
<path fill="none" stroke="midnightblue" d="M200.68,-56.44C223.93,-47.48 260.65,-33.31 286.92,-23.18"/>
<polygon fill="midnightblue" stroke="midnightblue" points="288.35,-26.38 296.42,-19.52 285.83,-19.85 288.35,-26.38"/>
</g>
<!-- Node10&#45;&gt;Node5 -->
<g id="edge14" class="edge">
<title>Node10&#45;&gt;Node5</title>
<path fill="none" stroke="midnightblue" d="M255.38,-56.44C234.48,-47.56 201.57,-33.56 177.78,-23.45"/>
<polygon fill="midnightblue" stroke="midnightblue" points="179.1,-20.21 168.53,-19.52 176.36,-26.65 179.1,-20.21"/>
</g>
<!-- Node10&#45;&gt;Node8 -->
<g id="edge11" class="edge">
<title>Node10&#45;&gt;Node8</title>
<path fill="none" stroke="midnightblue" d="M268.73,-56.08C262.94,-48.46 254.44,-37.26 247.36,-27.94"/>
<polygon fill="midnightblue" stroke="midnightblue" points="249.98,-25.6 241.14,-19.75 244.4,-29.83 249.98,-25.6"/>
</g>
<!-- Node10&#45;&gt;Node9 -->
<g id="edge13" class="edge">
<title>Node10&#45;&gt;Node9</title>
<path fill="none" stroke="midnightblue" d="M282.6,-56.08C288.74,-48.38 297.77,-37.03 305.24,-27.65"/>
<polygon fill="midnightblue" stroke="midnightblue" points="308.04,-29.75 311.53,-19.75 302.56,-25.39 308.04,-29.75"/>
</g>
<!-- Node11 -->
<g id="node11" class="node">
<title>Node11</title>
<g id="a_node11"><a xlink:title=" ">
<polygon fill="none" stroke="#bfbfbf" points="376,-0.5 376,-19.5 429,-19.5 429,-0.5 376,-0.5"/>
<text text-anchor="middle" x="402.5" y="-7.5" font-family="Helvetica,sans-Serif" font-size="10.00">stdint.h</text>
</a>
</g>
</g>
<!-- Node10&#45;&gt;Node11 -->
<g id="edge12" class="edge">
<title>Node10&#45;&gt;Node11</title>
<path fill="none" stroke="midnightblue" d="M295.62,-56.44C316.52,-47.56 349.43,-33.56 373.22,-23.45"/>
<polygon fill="midnightblue" stroke="midnightblue" points="374.64,-26.65 382.47,-19.52 371.9,-20.21 374.64,-26.65"/>
</g>
<!-- Node12&#45;&gt;Node7 -->
<g id="edge21" class="edge">
<title>Node12&#45;&gt;Node7</title>
<path fill="none" stroke="midnightblue" d="M260.75,-112.32C245.18,-103.74 221.12,-90.49 203.04,-80.52"/>
<polygon fill="midnightblue" stroke="midnightblue" points="204.65,-77.42 194.21,-75.65 201.28,-83.55 204.65,-77.42"/>
</g>
<!-- Node13 -->
<g id="node13" class="node">
<title>Node13</title>
<g id="a_node13"><a xlink:href="pwm_8h.html" target="_top" xlink:title="Low&#45;level PWM peripheral driver interface definitions.">
<polygon fill="none" stroke="black" points="332,-56.5 332,-75.5 415,-75.5 415,-56.5 332,-56.5"/>
<text text-anchor="middle" x="373.5" y="-63.5" font-family="Helvetica,sans-Serif" font-size="10.00">periph/pwm.h</text>
</a>
</g>
</g>
<!-- Node12&#45;&gt;Node13 -->
<g id="edge16" class="edge">
<title>Node12&#45;&gt;Node13</title>
<path fill="none" stroke="midnightblue" d="M292.08,-112.32C307.5,-103.74 331.31,-90.49 349.21,-80.52"/>
<polygon fill="midnightblue" stroke="midnightblue" points="350.92,-83.58 357.95,-75.65 347.51,-77.46 350.92,-83.58"/>
</g>
<!-- Node13&#45;&gt;Node5 -->
<g id="edge20" class="edge">
<title>Node13&#45;&gt;Node5</title>
<path fill="none" stroke="midnightblue" d="M337.85,-56.44C298.84,-47.08 236.23,-32.06 193.78,-21.87"/>
<polygon fill="midnightblue" stroke="midnightblue" points="194.53,-18.45 183.99,-19.52 192.89,-25.25 194.53,-18.45"/>
</g>
<!-- Node13&#45;&gt;Node8 -->
<g id="edge18" class="edge">
<title>Node13&#45;&gt;Node8</title>
<path fill="none" stroke="midnightblue" d="M351.48,-56.44C328.4,-47.48 291.94,-33.31 265.86,-23.18"/>
<polygon fill="midnightblue" stroke="midnightblue" points="267.01,-19.88 256.42,-19.52 264.48,-26.4 267.01,-19.88"/>
</g>
<!-- Node13&#45;&gt;Node9 -->
<g id="edge19" class="edge">
<title>Node13&#45;&gt;Node9</title>
<path fill="none" stroke="midnightblue" d="M364.42,-56.08C356.33,-48.14 344.3,-36.34 334.59,-26.8"/>
<polygon fill="midnightblue" stroke="midnightblue" points="337,-24.26 327.41,-19.75 332.1,-29.25 337,-24.26"/>
</g>
<!-- Node13&#45;&gt;Node11 -->
<g id="edge17" class="edge">
<title>Node13&#45;&gt;Node11</title>
<path fill="none" stroke="midnightblue" d="M378.29,-56.08C382.26,-48.69 388.03,-37.95 392.93,-28.81"/>
<polygon fill="midnightblue" stroke="midnightblue" points="396.15,-30.22 397.8,-19.75 389.99,-26.91 396.15,-30.22"/>
</g>
<!-- Node14&#45;&gt;Node7 -->
<g id="edge23" class="edge">
<title>Node14&#45;&gt;Node7</title>
<path fill="none" stroke="midnightblue" d="M347.65,-112.44C313.1,-103.16 257.82,-88.31 219.92,-78.13"/>
<polygon fill="midnightblue" stroke="midnightblue" points="220.77,-74.73 210.2,-75.52 218.95,-81.49 220.77,-74.73"/>
</g>
<!-- Node14&#45;&gt;Node10 -->
<g id="edge24" class="edge">
<title>Node14&#45;&gt;Node10</title>
<path fill="none" stroke="midnightblue" d="M362.79,-112.32C346.19,-103.7 320.5,-90.36 301.28,-80.39"/>
<polygon fill="midnightblue" stroke="midnightblue" points="302.66,-77.16 292.17,-75.65 299.43,-83.37 302.66,-77.16"/>
</g>
<!-- Node14&#45;&gt;Node13 -->
<g id="edge25" class="edge">
<title>Node14&#45;&gt;Node13</title>
<path fill="none" stroke="midnightblue" d="M378.51,-112.08C377.71,-104.93 376.57,-94.64 375.58,-85.69"/>
<polygon fill="midnightblue" stroke="midnightblue" points="379.06,-85.3 374.47,-75.75 372.1,-86.08 379.06,-85.3"/>
</g>
</g>
</svg>
