<?xml version="1.0" encoding="UTF-8" standalone="no"?>
<!DOCTYPE svg PUBLIC "-//W3C//DTD SVG 1.1//EN"
 "http://www.w3.org/Graphics/SVG/1.1/DTD/svg11.dtd">
<!-- Generated by graphviz version 2.40.1 (20161225.0304)
 -->
<!-- Title: boards/common/slwstk6000b/include/board.h Pages: 1 -->
<svg width="670pt" height="207pt"
 viewBox="0.00 0.00 669.50 207.00" xmlns="http://www.w3.org/2000/svg" xmlns:xlink="http://www.w3.org/1999/xlink">
<g id="graph0" class="graph" transform="scale(1 1) rotate(0) translate(4 203)">
<title>boards/common/slwstk6000b/include/board.h</title>
<!-- Node0 -->
<g id="node1" class="node">
<title>Node0</title>
<polygon fill="#bfbfbf" stroke="#000000" points="210.5,-168.5 210.5,-198.5 354.5,-198.5 354.5,-168.5 210.5,-168.5"/>
<text text-anchor="start" x="218.5" y="-186.5" font-family="Helvetica,sans-Serif" font-size="10.00" fill="#000000">boards/common/slwstk6000b</text>
<text text-anchor="middle" x="282.5" y="-175.5" font-family="Helvetica,sans-Serif" font-size="10.00" fill="#000000">/include/board.h</text>
</g>
<!-- Node1 -->
<g id="node2" class="node">
<title>Node1</title>
<polygon fill="none" stroke="#bfbfbf" points="0,-56.5 0,-75.5 41,-75.5 41,-56.5 0,-56.5"/>
<text text-anchor="middle" x="20.5" y="-63.5" font-family="Helvetica,sans-Serif" font-size="10.00" fill="#000000">cpu.h</text>
</g>
<!-- Node0&#45;&gt;Node1 -->
<g id="edge1" class="edge">
<title>Node0&#45;&gt;Node1</title>
<path fill="none" stroke="#191970" d="M232.2688,-168.4395C203.4398,-159.1721 166.8539,-146.3415 135.5,-132 102.5662,-116.9358 66.6793,-95.4608 43.9069,-81.1438"/>
<polygon fill="#191970" stroke="#191970" points="45.6016,-78.0739 35.2833,-75.6692 41.8499,-83.9836 45.6016,-78.0739"/>
</g>
<!-- Node2 -->
<g id="node3" class="node">
<title>Node2</title>
<g id="a_node3"><a xlink:href="boards_2common_2slwstk6000b_2include_2periph__conf_8h.html" target="_top" xlink:title="Configuration of CPU peripherals for the SLWSTK6000B starter kit. ">
<polygon fill="none" stroke="#000000" points="145,-112.5 145,-131.5 220,-131.5 220,-112.5 145,-112.5"/>
<text text-anchor="middle" x="182.5" y="-119.5" font-family="Helvetica,sans-Serif" font-size="10.00" fill="#000000">periph_conf.h</text>
</a>
</g>
</g>
<!-- Node0&#45;&gt;Node2 -->
<g id="edge2" class="edge">
<title>Node0&#45;&gt;Node2</title>
<path fill="none" stroke="#191970" d="M258.0372,-168.4554C242.3765,-158.8241 222.1468,-146.3828 206.5644,-136.7996"/>
<polygon fill="#191970" stroke="#191970" points="208.348,-133.7876 197.9965,-131.5303 204.681,-139.7503 208.348,-133.7876"/>
</g>
<!-- Node6 -->
<g id="node7" class="node">
<title>Node6</title>
<g id="a_node7"><a xlink:href="gpio_8h.html" target="_top" xlink:title="Low&#45;level GPIO peripheral driver interface definitions. ">
<polygon fill="none" stroke="#000000" points="569.5,-56.5 569.5,-75.5 641.5,-75.5 641.5,-56.5 569.5,-56.5"/>
<text text-anchor="middle" x="605.5" y="-63.5" font-family="Helvetica,sans-Serif" font-size="10.00" fill="#000000">periph/gpio.h</text>
</a>
</g>
</g>
<!-- Node0&#45;&gt;Node6 -->
<g id="edge7" class="edge">
<title>Node0&#45;&gt;Node6</title>
<path fill="none" stroke="#191970" d="M342.1801,-168.3961C376.8235,-159.0698 421.0735,-146.1948 459.5,-132 501.4635,-116.4987 548.3212,-94.4271 577.3635,-80.1576"/>
<polygon fill="#191970" stroke="#191970" points="579.0864,-83.2102 586.4969,-75.6382 575.9819,-76.9363 579.0864,-83.2102"/>
</g>
<!-- Node9 -->
<g id="node10" class="node">
<title>Node9</title>
<g id="a_node10"><a xlink:href="spi_8h.html" target="_top" xlink:title="Low&#45;level SPI peripheral driver interface definition. ">
<polygon fill="none" stroke="#000000" points="384,-112.5 384,-131.5 451,-131.5 451,-112.5 384,-112.5"/>
<text text-anchor="middle" x="417.5" y="-119.5" font-family="Helvetica,sans-Serif" font-size="10.00" fill="#000000">periph/spi.h</text>
</a>
</g>
</g>
<!-- Node0&#45;&gt;Node9 -->
<g id="edge11" class="edge">
<title>Node0&#45;&gt;Node9</title>
<path fill="none" stroke="#191970" d="M315.5247,-168.4554C337.457,-158.464 366.0273,-145.4487 387.3453,-135.7372"/>
<polygon fill="#191970" stroke="#191970" points="388.9306,-138.8611 396.5798,-131.5303 386.0286,-132.4909 388.9306,-138.8611"/>
</g>
<!-- Node2&#45;&gt;Node1 -->
<g id="edge3" class="edge">
<title>Node2&#45;&gt;Node1</title>
<path fill="none" stroke="#191970" d="M154.6512,-112.3733C125.7165,-102.3711 80.5808,-86.7687 50.7771,-76.4662"/>
<polygon fill="#191970" stroke="#191970" points="51.8979,-73.1504 41.3031,-73.1912 49.6109,-79.7663 51.8979,-73.1504"/>
</g>
<!-- Node3 -->
<g id="node4" class="node">
<title>Node3</title>
<polygon fill="none" stroke="#bfbfbf" points="255.5,-.5 255.5,-19.5 327.5,-19.5 327.5,-.5 255.5,-.5"/>
<text text-anchor="middle" x="291.5" y="-7.5" font-family="Helvetica,sans-Serif" font-size="10.00" fill="#000000">periph_cpu.h</text>
</g>
<!-- Node2&#45;&gt;Node3 -->
<g id="edge4" class="edge">
<title>Node2&#45;&gt;Node3</title>
<path fill="none" stroke="#191970" d="M194.4734,-112.1995C205.2856,-103.1675 221.4531,-89.203 234.5,-76 249.8641,-60.4521 266.0278,-41.4494 277.2025,-27.8338"/>
<polygon fill="#191970" stroke="#191970" points="280.1772,-29.723 283.767,-19.7548 274.7445,-25.3087 280.1772,-29.723"/>
</g>
<!-- Node4 -->
<g id="node5" class="node">
<title>Node4</title>
<polygon fill="none" stroke="#bfbfbf" points="59.5,-56.5 59.5,-75.5 121.5,-75.5 121.5,-56.5 59.5,-56.5"/>
<text text-anchor="middle" x="90.5" y="-63.5" font-family="Helvetica,sans-Serif" font-size="10.00" fill="#000000">em_cmu.h</text>
</g>
<!-- Node2&#45;&gt;Node4 -->
<g id="edge5" class="edge">
<title>Node2&#45;&gt;Node4</title>
<path fill="none" stroke="#191970" d="M166.4748,-112.2455C152.3592,-103.6534 131.5737,-91.0014 115.3101,-81.1018"/>
<polygon fill="#191970" stroke="#191970" points="116.7034,-77.8525 106.3415,-75.6427 113.0637,-83.8319 116.7034,-77.8525"/>
</g>
<!-- Node5 -->
<g id="node6" class="node">
<title>Node5</title>
<polygon fill="none" stroke="#bfbfbf" points="139.5,-56.5 139.5,-75.5 225.5,-75.5 225.5,-56.5 139.5,-56.5"/>
<text text-anchor="middle" x="182.5" y="-63.5" font-family="Helvetica,sans-Serif" font-size="10.00" fill="#000000">board_module.h</text>
</g>
<!-- Node2&#45;&gt;Node5 -->
<g id="edge6" class="edge">
<title>Node2&#45;&gt;Node5</title>
<path fill="none" stroke="#191970" d="M182.5,-112.2455C182.5,-104.9382 182.5,-94.6944 182.5,-85.7046"/>
<polygon fill="#191970" stroke="#191970" points="186.0001,-85.6426 182.5,-75.6427 179.0001,-85.6427 186.0001,-85.6426"/>
</g>
<!-- Node6&#45;&gt;Node3 -->
<g id="edge9" class="edge">
<title>Node6&#45;&gt;Node3</title>
<path fill="none" stroke="#191970" d="M569.1829,-57.7684C566.2489,-57.1525 563.3271,-56.5555 560.5,-56 482.5392,-40.6816 391.2898,-25.6937 337.6133,-17.1763"/>
<polygon fill="#191970" stroke="#191970" points="338.1408,-13.7163 327.7169,-15.6117 337.0476,-20.6304 338.1408,-13.7163"/>
</g>
<!-- Node7 -->
<g id="node8" class="node">
<title>Node7</title>
<polygon fill="none" stroke="#bfbfbf" points="613.5,-.5 613.5,-19.5 661.5,-19.5 661.5,-.5 613.5,-.5"/>
<text text-anchor="middle" x="637.5" y="-7.5" font-family="Helvetica,sans-Serif" font-size="10.00" fill="#000000">limits.h</text>
</g>
<!-- Node6&#45;&gt;Node7 -->
<g id="edge8" class="edge">
<title>Node6&#45;&gt;Node7</title>
<path fill="none" stroke="#191970" d="M611.074,-56.2455C615.4331,-48.617 621.6211,-37.7881 626.9133,-28.5267"/>
<polygon fill="#191970" stroke="#191970" points="630.0673,-30.0616 631.9899,-19.6427 623.9896,-26.5886 630.0673,-30.0616"/>
</g>
<!-- Node8 -->
<g id="node9" class="node">
<title>Node8</title>
<polygon fill="none" stroke="#bfbfbf" points="449,-.5 449,-19.5 524,-19.5 524,-.5 449,-.5"/>
<text text-anchor="middle" x="486.5" y="-7.5" font-family="Helvetica,sans-Serif" font-size="10.00" fill="#000000">periph_conf.h</text>
</g>
<!-- Node6&#45;&gt;Node8 -->
<g id="edge10" class="edge">
<title>Node6&#45;&gt;Node8</title>
<path fill="none" stroke="#191970" d="M585.0432,-56.3733C566.0262,-47.4241 537.4825,-33.9917 516.0024,-23.8835"/>
<polygon fill="#191970" stroke="#191970" points="517.2284,-20.5923 506.6899,-19.5011 514.2478,-26.926 517.2284,-20.5923"/>
</g>
<!-- Node9&#45;&gt;Node3 -->
<g id="edge16" class="edge">
<title>Node9&#45;&gt;Node3</title>
<path fill="none" stroke="#191970" d="M396.7419,-112.435C380.345,-104.2439 357.4758,-91.3558 340.5,-76 325.1937,-62.1543 311.5429,-42.8882 302.5623,-28.745"/>
<polygon fill="#191970" stroke="#191970" points="305.3456,-26.5892 297.1281,-19.9016 299.3816,-30.254 305.3456,-26.5892"/>
</g>
<!-- Node9&#45;&gt;Node6 -->
<g id="edge18" class="edge">
<title>Node9&#45;&gt;Node6</title>
<path fill="none" stroke="#191970" d="M449.8184,-112.3733C481.3506,-102.9807 529.4621,-88.6496 563.8501,-78.4064"/>
<polygon fill="#191970" stroke="#191970" points="565.0187,-81.7103 573.6034,-75.5011 563.0203,-75.0016 565.0187,-81.7103"/>
</g>
<!-- Node9&#45;&gt;Node7 -->
<g id="edge15" class="edge">
<title>Node9&#45;&gt;Node7</title>
<path fill="none" stroke="#191970" d="M451.0158,-120.4382C509.3295,-116.9423 625.6288,-106.2615 650.5,-76 661.3448,-62.8049 655.5557,-43.1457 648.5989,-28.7147"/>
<polygon fill="#191970" stroke="#191970" points="651.5843,-26.875 643.7861,-19.7029 645.4097,-30.1726 651.5843,-26.875"/>
</g>
<!-- Node9&#45;&gt;Node8 -->
<g id="edge17" class="edge">
<title>Node9&#45;&gt;Node8</title>
<path fill="none" stroke="#191970" d="M393.7924,-112.3993C367.8567,-100.4646 332.0224,-78.8614 348.5,-56 359.3526,-40.9428 403.2388,-28.0113 438.6462,-19.7285"/>
<polygon fill="#191970" stroke="#191970" points="439.8666,-23.0406 448.8438,-17.414 438.3172,-16.2142 439.8666,-23.0406"/>
</g>
<!-- Node10 -->
<g id="node11" class="node">
<title>Node10</title>
<polygon fill="none" stroke="#bfbfbf" points="495.5,-56.5 495.5,-75.5 551.5,-75.5 551.5,-56.5 495.5,-56.5"/>
<text text-anchor="middle" x="523.5" y="-63.5" font-family="Helvetica,sans-Serif" font-size="10.00" fill="#000000">stdbool.h</text>
</g>
<!-- Node9&#45;&gt;Node10 -->
<g id="edge12" class="edge">
<title>Node9&#45;&gt;Node10</title>
<path fill="none" stroke="#191970" d="M435.9638,-112.2455C452.6074,-103.4527 477.2993,-90.4079 496.2192,-80.4125"/>
<polygon fill="#191970" stroke="#191970" points="498.0408,-83.4086 505.2478,-75.6427 494.7709,-77.2193 498.0408,-83.4086"/>
</g>
<!-- Node11 -->
<g id="node12" class="node">
<title>Node11</title>
<polygon fill="none" stroke="#bfbfbf" points="357.5,-56.5 357.5,-75.5 409.5,-75.5 409.5,-56.5 357.5,-56.5"/>
<text text-anchor="middle" x="383.5" y="-63.5" font-family="Helvetica,sans-Serif" font-size="10.00" fill="#000000">stddef.h</text>
</g>
<!-- Node9&#45;&gt;Node11 -->
<g id="edge13" class="edge">
<title>Node9&#45;&gt;Node11</title>
<path fill="none" stroke="#191970" d="M411.5777,-112.2455C406.8973,-104.5367 400.2327,-93.5598 394.5711,-84.2348"/>
<polygon fill="#191970" stroke="#191970" points="397.5361,-82.3741 389.3545,-75.6427 391.5525,-86.007 397.5361,-82.3741"/>
</g>
<!-- Node12 -->
<g id="node13" class="node">
<title>Node12</title>
<polygon fill="none" stroke="#bfbfbf" points="428,-56.5 428,-75.5 477,-75.5 477,-56.5 428,-56.5"/>
<text text-anchor="middle" x="452.5" y="-63.5" font-family="Helvetica,sans-Serif" font-size="10.00" fill="#000000">stdint.h</text>
</g>
<!-- Node9&#45;&gt;Node12 -->
<g id="edge14" class="edge">
<title>Node9&#45;&gt;Node12</title>
<path fill="none" stroke="#191970" d="M423.5965,-112.2455C428.4145,-104.5367 435.2751,-93.5598 441.1032,-84.2348"/>
<polygon fill="#191970" stroke="#191970" points="444.1413,-85.9777 446.4733,-75.6427 438.2053,-82.2677 444.1413,-85.9777"/>
</g>
</g>
</svg>
