<?xml version="1.0" encoding="UTF-8" standalone="no"?>
<!DOCTYPE svg PUBLIC "-//W3C//DTD SVG 1.1//EN"
 "http://www.w3.org/Graphics/SVG/1.1/DTD/svg11.dtd">
<!-- Generated by graphviz version 2.43.0 (0)
 -->
<!-- Title: boards/common/arduino&#45;zero/include/gpio_params.h Pages: 1 -->
<svg width="467pt" height="263pt"
 viewBox="0.00 0.00 466.50 263.00" xmlns="http://www.w3.org/2000/svg" xmlns:xlink="http://www.w3.org/1999/xlink">
<g id="graph0" class="graph" transform="scale(1 1) rotate(0) translate(4 259)">
<title>boards/common/arduino&#45;zero/include/gpio_params.h</title>
<!-- Node1 -->
<g id="node1" class="node">
<title>Node1</title>
<g id="a_node1"><a xlink:title="Board specific configuration of direct mapped GPIOs.">
<polygon fill="#bfbfbf" stroke="black" points="103,-224.5 103,-254.5 258,-254.5 258,-224.5 103,-224.5"/>
<text text-anchor="start" x="111" y="-242.5" font-family="Helvetica,sans-Serif" font-size="10.00">boards/common/arduino</text>
<text text-anchor="middle" x="180.5" y="-231.5" font-family="Helvetica,sans-Serif" font-size="10.00">&#45;zero/include/gpio_params.h</text>
</a>
</g>
</g>
<!-- Node2 -->
<g id="node2" class="node">
<title>Node2</title>
<g id="a_node2"><a xlink:href="common_2arduino-zero_2include_2board_8h.html" target="_top" xlink:title="Board specific definitions for the Arduino Zero board and clones.">
<polygon fill="none" stroke="black" points="127,-168.5 127,-187.5 180,-187.5 180,-168.5 127,-168.5"/>
<text text-anchor="middle" x="153.5" y="-175.5" font-family="Helvetica,sans-Serif" font-size="10.00">board.h</text>
</a>
</g>
</g>
<!-- Node1&#45;&gt;Node2 -->
<g id="edge1" class="edge">
<title>Node1&#45;&gt;Node2</title>
<path fill="none" stroke="midnightblue" d="M174.1,-224.4C170.38,-216.2 165.65,-205.78 161.67,-196.99"/>
<polygon fill="midnightblue" stroke="midnightblue" points="164.75,-195.32 157.43,-187.66 158.37,-198.21 164.75,-195.32"/>
</g>
<!-- Node12 -->
<g id="node12" class="node">
<title>Node12</title>
<g id="a_node12"><a xlink:href="periph_8h.html" target="_top" xlink:title="Parameter definitions for mapping peripherals directly to SAUL.">
<polygon fill="none" stroke="black" points="303.5,-112.5 303.5,-131.5 383.5,-131.5 383.5,-112.5 303.5,-112.5"/>
<text text-anchor="middle" x="343.5" y="-119.5" font-family="Helvetica,sans-Serif" font-size="10.00">saul/periph.h</text>
</a>
</g>
</g>
<!-- Node1&#45;&gt;Node12 -->
<g id="edge18" class="edge">
<title>Node1&#45;&gt;Node12</title>
<path fill="none" stroke="midnightblue" d="M200.49,-224.34C231.59,-202.3 291.27,-160.01 322.8,-137.66"/>
<polygon fill="midnightblue" stroke="midnightblue" points="325.13,-140.31 331.27,-131.67 321.08,-134.6 325.13,-140.31"/>
</g>
<!-- Node3 -->
<g id="node3" class="node">
<title>Node3</title>
<g id="a_node3"><a xlink:title=" ">
<polygon fill="none" stroke="#bfbfbf" points="0,-56.5 0,-75.5 43,-75.5 43,-56.5 0,-56.5"/>
<text text-anchor="middle" x="21.5" y="-63.5" font-family="Helvetica,sans-Serif" font-size="10.00">cpu.h</text>
</a>
</g>
</g>
<!-- Node2&#45;&gt;Node3 -->
<g id="edge2" class="edge">
<title>Node2&#45;&gt;Node3</title>
<path fill="none" stroke="midnightblue" d="M126.76,-174.33C99.41,-170.13 57.71,-159.37 34.5,-132 23.69,-119.26 20.96,-100.06 20.62,-85.83"/>
<polygon fill="midnightblue" stroke="midnightblue" points="24.13,-85.75 20.76,-75.7 17.13,-85.65 24.13,-85.75"/>
</g>
<!-- Node4 -->
<g id="node4" class="node">
<title>Node4</title>
<g id="a_node4"><a xlink:href="boards_2common_2arduino-zero_2include_2periph__conf_8h.html" target="_top" xlink:title="Configuration of CPU peripherals for Arduino Zero board and clones.">
<polygon fill="none" stroke="black" points="43.5,-112.5 43.5,-131.5 125.5,-131.5 125.5,-112.5 43.5,-112.5"/>
<text text-anchor="middle" x="84.5" y="-119.5" font-family="Helvetica,sans-Serif" font-size="10.00">periph_conf.h</text>
</a>
</g>
</g>
<!-- Node2&#45;&gt;Node4 -->
<g id="edge3" class="edge">
<title>Node2&#45;&gt;Node4</title>
<path fill="none" stroke="midnightblue" d="M142.41,-168.32C132.01,-160.18 116.24,-147.84 103.78,-138.09"/>
<polygon fill="midnightblue" stroke="midnightblue" points="105.82,-135.24 95.79,-131.83 101.51,-140.75 105.82,-135.24"/>
</g>
<!-- Node6 -->
<g id="node6" class="node">
<title>Node6</title>
<g id="a_node6"><a xlink:title=" ">
<polygon fill="none" stroke="#bfbfbf" points="184,-0.5 184,-19.5 263,-19.5 263,-0.5 184,-0.5"/>
<text text-anchor="middle" x="223.5" y="-7.5" font-family="Helvetica,sans-Serif" font-size="10.00">periph_cpu.h</text>
</a>
</g>
</g>
<!-- Node2&#45;&gt;Node6 -->
<g id="edge7" class="edge">
<title>Node2&#45;&gt;Node6</title>
<path fill="none" stroke="midnightblue" d="M152.94,-168.45C151.96,-147.76 151.74,-93.85 172.5,-56 179.16,-43.87 190.4,-33.41 200.65,-25.64"/>
<polygon fill="midnightblue" stroke="midnightblue" points="202.78,-28.42 208.89,-19.77 198.72,-22.72 202.78,-28.42"/>
</g>
<!-- Node7 -->
<g id="node7" class="node">
<title>Node7</title>
<g id="a_node7"><a xlink:href="common_2arduino-zero_2include_2arduino__pinmap_8h.html" target="_top" xlink:title="Mapping from MCU pins to Arduino pins.">
<polygon fill="none" stroke="black" points="181.5,-112.5 181.5,-131.5 285.5,-131.5 285.5,-112.5 181.5,-112.5"/>
<text text-anchor="middle" x="233.5" y="-119.5" font-family="Helvetica,sans-Serif" font-size="10.00">arduino_pinmap.h</text>
</a>
</g>
</g>
<!-- Node2&#45;&gt;Node7 -->
<g id="edge8" class="edge">
<title>Node2&#45;&gt;Node7</title>
<path fill="none" stroke="midnightblue" d="M166.35,-168.32C178.72,-159.98 197.63,-147.21 212.24,-137.35"/>
<polygon fill="midnightblue" stroke="midnightblue" points="214.35,-140.15 220.68,-131.65 210.43,-134.35 214.35,-140.15"/>
</g>
<!-- Node4&#45;&gt;Node3 -->
<g id="edge5" class="edge">
<title>Node4&#45;&gt;Node3</title>
<path fill="none" stroke="midnightblue" d="M74.38,-112.32C64.97,-104.26 50.76,-92.08 39.43,-82.37"/>
<polygon fill="midnightblue" stroke="midnightblue" points="41.68,-79.68 31.81,-75.83 37.12,-85 41.68,-79.68"/>
</g>
<!-- Node5 -->
<g id="node5" class="node">
<title>Node5</title>
<g id="a_node5"><a xlink:title=" ">
<polygon fill="none" stroke="#bfbfbf" points="113,-0.5 113,-19.5 166,-19.5 166,-0.5 113,-0.5"/>
<text text-anchor="middle" x="139.5" y="-7.5" font-family="Helvetica,sans-Serif" font-size="10.00">stdint.h</text>
</a>
</g>
</g>
<!-- Node4&#45;&gt;Node5 -->
<g id="edge4" class="edge">
<title>Node4&#45;&gt;Node5</title>
<path fill="none" stroke="midnightblue" d="M85.55,-112.14C87.36,-99.2 91.83,-74.64 101.5,-56 107.01,-45.38 115.42,-35.07 122.93,-27"/>
<polygon fill="midnightblue" stroke="midnightblue" points="125.52,-29.36 130,-19.75 120.51,-24.47 125.52,-29.36"/>
</g>
<!-- Node4&#45;&gt;Node6 -->
<g id="edge6" class="edge">
<title>Node4&#45;&gt;Node6</title>
<path fill="none" stroke="midnightblue" d="M90.39,-112.09C99.61,-98.64 118.58,-72.92 139.5,-56 155.74,-42.87 176.38,-31.74 193.14,-23.84"/>
<polygon fill="midnightblue" stroke="midnightblue" points="194.86,-26.91 202.5,-19.57 191.95,-20.54 194.86,-26.91"/>
</g>
<!-- Node8 -->
<g id="node8" class="node">
<title>Node8</title>
<g id="a_node8"><a xlink:href="gpio_8h.html" target="_top" xlink:title="Low&#45;level GPIO peripheral driver interface definitions.">
<polygon fill="none" stroke="black" points="378.5,-56.5 378.5,-75.5 458.5,-75.5 458.5,-56.5 378.5,-56.5"/>
<text text-anchor="middle" x="418.5" y="-63.5" font-family="Helvetica,sans-Serif" font-size="10.00">periph/gpio.h</text>
</a>
</g>
</g>
<!-- Node7&#45;&gt;Node8 -->
<g id="edge9" class="edge">
<title>Node7&#45;&gt;Node8</title>
<path fill="none" stroke="midnightblue" d="M262.81,-112.44C294.34,-103.24 344.63,-88.56 379.49,-78.39"/>
<polygon fill="midnightblue" stroke="midnightblue" points="380.7,-81.68 389.32,-75.52 378.74,-74.96 380.7,-81.68"/>
</g>
<!-- Node11 -->
<g id="node11" class="node">
<title>Node11</title>
<g id="a_node11"><a xlink:href="adc_8h.html" target="_top" xlink:title="Low&#45;level ADC peripheral driver interface definitions.">
<polygon fill="none" stroke="black" points="182,-56.5 182,-75.5 259,-75.5 259,-56.5 182,-56.5"/>
<text text-anchor="middle" x="220.5" y="-63.5" font-family="Helvetica,sans-Serif" font-size="10.00">periph/adc.h</text>
</a>
</g>
</g>
<!-- Node7&#45;&gt;Node11 -->
<g id="edge13" class="edge">
<title>Node7&#45;&gt;Node11</title>
<path fill="none" stroke="midnightblue" d="M231.35,-112.08C229.63,-104.93 227.15,-94.64 225,-85.69"/>
<polygon fill="midnightblue" stroke="midnightblue" points="228.35,-84.65 222.61,-75.75 221.54,-86.29 228.35,-84.65"/>
</g>
<!-- Node8&#45;&gt;Node6 -->
<g id="edge11" class="edge">
<title>Node8&#45;&gt;Node6</title>
<path fill="none" stroke="midnightblue" d="M387.6,-56.44C354.23,-47.2 300.91,-32.44 264.15,-22.26"/>
<polygon fill="midnightblue" stroke="midnightblue" points="264.83,-18.81 254.25,-19.52 262.96,-25.56 264.83,-18.81"/>
</g>
<!-- Node9 -->
<g id="node9" class="node">
<title>Node9</title>
<g id="a_node9"><a xlink:title=" ">
<polygon fill="none" stroke="#bfbfbf" points="288,-0.5 288,-19.5 341,-19.5 341,-0.5 288,-0.5"/>
<text text-anchor="middle" x="314.5" y="-7.5" font-family="Helvetica,sans-Serif" font-size="10.00">limits.h</text>
</a>
</g>
</g>
<!-- Node8&#45;&gt;Node9 -->
<g id="edge10" class="edge">
<title>Node8&#45;&gt;Node9</title>
<path fill="none" stroke="midnightblue" d="M401.79,-56.32C385.19,-47.7 359.5,-34.36 340.28,-24.39"/>
<polygon fill="midnightblue" stroke="midnightblue" points="341.66,-21.16 331.17,-19.65 338.43,-27.37 341.66,-21.16"/>
</g>
<!-- Node10 -->
<g id="node10" class="node">
<title>Node10</title>
<g id="a_node10"><a xlink:title=" ">
<polygon fill="none" stroke="#bfbfbf" points="359.5,-0.5 359.5,-19.5 441.5,-19.5 441.5,-0.5 359.5,-0.5"/>
<text text-anchor="middle" x="400.5" y="-7.5" font-family="Helvetica,sans-Serif" font-size="10.00">periph_conf.h</text>
</a>
</g>
</g>
<!-- Node8&#45;&gt;Node10 -->
<g id="edge12" class="edge">
<title>Node8&#45;&gt;Node10</title>
<path fill="none" stroke="midnightblue" d="M415.53,-56.08C413.12,-48.85 409.64,-38.41 406.63,-29.4"/>
<polygon fill="midnightblue" stroke="midnightblue" points="409.9,-28.13 403.42,-19.75 403.26,-30.34 409.9,-28.13"/>
</g>
<!-- Node11&#45;&gt;Node5 -->
<g id="edge15" class="edge">
<title>Node11&#45;&gt;Node5</title>
<path fill="none" stroke="midnightblue" d="M207.49,-56.32C194.97,-47.98 175.82,-35.21 161.03,-25.35"/>
<polygon fill="midnightblue" stroke="midnightblue" points="162.74,-22.29 152.48,-19.65 158.86,-28.11 162.74,-22.29"/>
</g>
<!-- Node11&#45;&gt;Node6 -->
<g id="edge16" class="edge">
<title>Node11&#45;&gt;Node6</title>
<path fill="none" stroke="midnightblue" d="M221,-56.08C221.39,-49.01 221.95,-38.86 222.45,-29.99"/>
<polygon fill="midnightblue" stroke="midnightblue" points="225.95,-29.93 223.01,-19.75 218.96,-29.54 225.95,-29.93"/>
</g>
<!-- Node11&#45;&gt;Node9 -->
<g id="edge14" class="edge">
<title>Node11&#45;&gt;Node9</title>
<path fill="none" stroke="midnightblue" d="M235.6,-56.32C250.4,-47.82 273.19,-34.73 290.48,-24.8"/>
<polygon fill="midnightblue" stroke="midnightblue" points="292.51,-27.67 299.43,-19.65 289.02,-21.6 292.51,-27.67"/>
</g>
<!-- Node11&#45;&gt;Node10 -->
<g id="edge17" class="edge">
<title>Node11&#45;&gt;Node10</title>
<path fill="none" stroke="midnightblue" d="M249.02,-56.44C279.57,-47.28 328.21,-32.69 362.1,-22.52"/>
<polygon fill="midnightblue" stroke="midnightblue" points="363.54,-25.74 372.11,-19.52 361.53,-19.04 363.54,-25.74"/>
</g>
<!-- Node12&#45;&gt;Node8 -->
<g id="edge19" class="edge">
<title>Node12&#45;&gt;Node8</title>
<path fill="none" stroke="midnightblue" d="M355.55,-112.32C366.96,-104.11 384.33,-91.6 397.93,-81.81"/>
<polygon fill="midnightblue" stroke="midnightblue" points="400.16,-84.52 406.23,-75.83 396.07,-78.84 400.16,-84.52"/>
</g>
<!-- Node12&#45;&gt;Node11 -->
<g id="edge20" class="edge">
<title>Node12&#45;&gt;Node11</title>
<path fill="none" stroke="midnightblue" d="M324.01,-112.44C303.86,-103.6 272.18,-89.69 249.17,-79.59"/>
<polygon fill="midnightblue" stroke="midnightblue" points="250.46,-76.33 239.9,-75.52 247.65,-82.74 250.46,-76.33"/>
</g>
<!-- Node13 -->
<g id="node13" class="node">
<title>Node13</title>
<g id="a_node13"><a xlink:href="pwm_8h.html" target="_top" xlink:title="Low&#45;level PWM peripheral driver interface definitions.">
<polygon fill="none" stroke="black" points="277,-56.5 277,-75.5 360,-75.5 360,-56.5 277,-56.5"/>
<text text-anchor="middle" x="318.5" y="-63.5" font-family="Helvetica,sans-Serif" font-size="10.00">periph/pwm.h</text>
</a>
</g>
</g>
<!-- Node12&#45;&gt;Node13 -->
<g id="edge21" class="edge">
<title>Node12&#45;&gt;Node13</title>
<path fill="none" stroke="midnightblue" d="M339.37,-112.08C335.99,-104.77 331.08,-94.18 326.88,-85.1"/>
<polygon fill="midnightblue" stroke="midnightblue" points="329.93,-83.36 322.55,-75.75 323.58,-86.3 329.93,-83.36"/>
</g>
<!-- Node13&#45;&gt;Node5 -->
<g id="edge22" class="edge">
<title>Node13&#45;&gt;Node5</title>
<path fill="none" stroke="midnightblue" d="M290.14,-56.44C259.32,-47.15 209.96,-32.26 176.21,-22.07"/>
<polygon fill="midnightblue" stroke="midnightblue" points="176.85,-18.61 166.27,-19.08 174.83,-25.31 176.85,-18.61"/>
</g>
<!-- Node13&#45;&gt;Node6 -->
<g id="edge24" class="edge">
<title>Node13&#45;&gt;Node6</title>
<path fill="none" stroke="midnightblue" d="M303.24,-56.32C288.28,-47.82 265.25,-34.73 247.77,-24.8"/>
<polygon fill="midnightblue" stroke="midnightblue" points="249.15,-21.55 238.73,-19.65 245.69,-27.64 249.15,-21.55"/>
</g>
<!-- Node13&#45;&gt;Node9 -->
<g id="edge23" class="edge">
<title>Node13&#45;&gt;Node9</title>
<path fill="none" stroke="midnightblue" d="M317.84,-56.08C317.32,-49.01 316.56,-38.86 315.91,-29.99"/>
<polygon fill="midnightblue" stroke="midnightblue" points="319.38,-29.47 315.15,-19.75 312.4,-29.98 319.38,-29.47"/>
</g>
<!-- Node13&#45;&gt;Node10 -->
<g id="edge25" class="edge">
<title>Node13&#45;&gt;Node10</title>
<path fill="none" stroke="midnightblue" d="M331.67,-56.32C344.35,-47.98 363.73,-35.21 378.71,-25.35"/>
<polygon fill="midnightblue" stroke="midnightblue" points="380.93,-28.08 387.36,-19.65 377.08,-22.23 380.93,-28.08"/>
</g>
</g>
</svg>
