<?xml version="1.0" encoding="UTF-8" standalone="no"?>
<!DOCTYPE svg PUBLIC "-//W3C//DTD SVG 1.1//EN"
 "http://www.w3.org/Graphics/SVG/1.1/DTD/svg11.dtd">
<!-- Generated by graphviz version 2.40.1 (20161225.0304)
 -->
<!-- Title: sys/cpp11&#45;compat/include/riot/condition_variable.hpp Pages: 1 -->
<svg width="1191pt" height="487pt"
 viewBox="0.00 0.00 1191.44 487.00" xmlns="http://www.w3.org/2000/svg" xmlns:xlink="http://www.w3.org/1999/xlink">
<g id="graph0" class="graph" transform="scale(1 1) rotate(0) translate(4 483)">
<title>sys/cpp11&#45;compat/include/riot/condition_variable.hpp</title>
<!-- Node0 -->
<g id="node1" class="node">
<title>Node0</title>
<polygon fill="#bfbfbf" stroke="#000000" points="331.0837,-448.5 331.0837,-478.5 464.0837,-478.5 464.0837,-448.5 331.0837,-448.5"/>
<text text-anchor="start" x="339.0837" y="-466.5" font-family="Helvetica,sans-Serif" font-size="10.00" fill="#000000">sys/cpp11&#45;compat/include</text>
<text text-anchor="middle" x="397.5837" y="-455.5" font-family="Helvetica,sans-Serif" font-size="10.00" fill="#000000">/riot/condition_variable.hpp</text>
</g>
<!-- Node1 -->
<g id="node2" class="node">
<title>Node1</title>
<g id="a_node2"><a xlink:href="sched_8h.html" target="_top" xlink:title="Scheduler API definition. ">
<polygon fill="none" stroke="#000000" points="141.0837,-280.5 141.0837,-299.5 192.0837,-299.5 192.0837,-280.5 141.0837,-280.5"/>
<text text-anchor="middle" x="166.5837" y="-287.5" font-family="Helvetica,sans-Serif" font-size="10.00" fill="#000000">sched.h</text>
</a>
</g>
</g>
<!-- Node0&#45;&gt;Node1 -->
<g id="edge1" class="edge">
<title>Node0&#45;&gt;Node1</title>
<path fill="none" stroke="#191970" d="M336.3123,-448.4639C311.2496,-440.3617 282.9517,-428.5478 260.5837,-412 222.0816,-383.5162 191.4401,-335.1665 176.508,-308.6945"/>
<polygon fill="#191970" stroke="#191970" points="179.4532,-306.7864 171.5707,-299.7071 173.318,-310.1569 179.4532,-306.7864"/>
</g>
<!-- Node12 -->
<g id="node13" class="node">
<title>Node12</title>
<g id="a_node13"><a xlink:href="xtimer_8h.html" target="_top" xlink:title="xtimer interface definitions ">
<polygon fill="none" stroke="#000000" points="599.5837,-336.5 599.5837,-355.5 651.5837,-355.5 651.5837,-336.5 599.5837,-336.5"/>
<text text-anchor="middle" x="625.5837" y="-343.5" font-family="Helvetica,sans-Serif" font-size="10.00" fill="#000000">xtimer.h</text>
</a>
</g>
</g>
<!-- Node0&#45;&gt;Node12 -->
<g id="edge15" class="edge">
<title>Node0&#45;&gt;Node12</title>
<path fill="none" stroke="#191970" d="M426.924,-448.3795C471.2028,-425.5603 554.5189,-382.6233 597.8384,-360.2986"/>
<polygon fill="#191970" stroke="#191970" points="599.661,-363.2968 606.9467,-355.6046 596.4543,-357.0745 599.661,-363.2968"/>
</g>
<!-- Node30 -->
<g id="node31" class="node">
<title>Node30</title>
<g id="a_node31"><a xlink:href="priority__queue_8h.html" target="_top" xlink:title="A simple priority queue. ">
<polygon fill="none" stroke="#000000" points="229.5837,-224.5 229.5837,-243.5 315.5837,-243.5 315.5837,-224.5 229.5837,-224.5"/>
<text text-anchor="middle" x="272.5837" y="-231.5" font-family="Helvetica,sans-Serif" font-size="10.00" fill="#000000">priority_queue.h</text>
</a>
</g>
</g>
<!-- Node0&#45;&gt;Node30 -->
<g id="edge49" class="edge">
<title>Node0&#45;&gt;Node30</title>
<path fill="none" stroke="#191970" d="M381.0493,-448.377C371.0728,-438.6579 358.5926,-425.3839 349.5837,-412 314.1262,-359.3232 289.1227,-287.6583 278.4134,-253.5691"/>
<polygon fill="#191970" stroke="#191970" points="281.7237,-252.4259 275.4434,-243.8932 275.0319,-254.48 281.7237,-252.4259"/>
</g>
<!-- Node31 -->
<g id="node32" class="node">
<title>Node31</title>
<g id="a_node32"><a xlink:href="mutex_8hpp.html" target="_top" xlink:title="C++11 mutex drop in replacement. ">
<polygon fill="none" stroke="#000000" points="358.0837,-392.5 358.0837,-411.5 437.0837,-411.5 437.0837,-392.5 358.0837,-392.5"/>
<text text-anchor="middle" x="397.5837" y="-399.5" font-family="Helvetica,sans-Serif" font-size="10.00" fill="#000000">riot/mutex.hpp</text>
</a>
</g>
</g>
<!-- Node0&#45;&gt;Node31 -->
<g id="edge52" class="edge">
<title>Node0&#45;&gt;Node31</title>
<path fill="none" stroke="#191970" d="M397.5837,-448.2977C397.5837,-440.3834 397.5837,-430.6043 397.5837,-422.0759"/>
<polygon fill="#191970" stroke="#191970" points="401.0838,-421.8469 397.5837,-411.8469 394.0838,-421.847 401.0838,-421.8469"/>
</g>
<!-- Node35 -->
<g id="node36" class="node">
<title>Node35</title>
<g id="a_node36"><a xlink:href="chrono_8hpp.html" target="_top" xlink:title="C++11 chrono drop in replacement that adds the function now based on xtimer/timex. ">
<polygon fill="none" stroke="#000000" points="657.0837,-392.5 657.0837,-411.5 738.0837,-411.5 738.0837,-392.5 657.0837,-392.5"/>
<text text-anchor="middle" x="697.5837" y="-399.5" font-family="Helvetica,sans-Serif" font-size="10.00" fill="#000000">riot/chrono.hpp</text>
</a>
</g>
</g>
<!-- Node0&#45;&gt;Node35 -->
<g id="edge57" class="edge">
<title>Node0&#45;&gt;Node35</title>
<path fill="none" stroke="#191970" d="M464.1634,-449.8512C519.395,-438.5287 596.7517,-422.6706 647.0118,-412.3672"/>
<polygon fill="#191970" stroke="#191970" points="647.9043,-415.7572 656.9976,-410.3201 646.4985,-408.8998 647.9043,-415.7572"/>
</g>
<!-- Node2 -->
<g id="node3" class="node">
<title>Node2</title>
<polygon fill="none" stroke="#bfbfbf" points="249.5837,-.5 249.5837,-19.5 301.5837,-19.5 301.5837,-.5 249.5837,-.5"/>
<text text-anchor="middle" x="275.5837" y="-7.5" font-family="Helvetica,sans-Serif" font-size="10.00" fill="#000000">stddef.h</text>
</g>
<!-- Node1&#45;&gt;Node2 -->
<g id="edge2" class="edge">
<title>Node1&#45;&gt;Node2</title>
<path fill="none" stroke="#191970" d="M140.7908,-284.9898C103.3467,-277.2239 36.5453,-261.3558 19.5837,-244 -1.7511,-222.1693 .5837,-208.5246 .5837,-178 .5837,-178 .5837,-178 .5837,-122 .5837,-71.0417 164.5941,-31.9936 239.2941,-16.8515"/>
<polygon fill="#191970" stroke="#191970" points="240.0922,-20.2614 249.2156,-14.8748 238.7244,-13.3963 240.0922,-20.2614"/>
</g>
<!-- Node3 -->
<g id="node4" class="node">
<title>Node3</title>
<g id="a_node4"><a xlink:href="kernel__defines_8h.html" target="_top" xlink:title="Common macros and compiler attributes/pragmas configuration. ">
<polygon fill="none" stroke="#000000" points="267.5837,-56.5 267.5837,-75.5 355.5837,-75.5 355.5837,-56.5 267.5837,-56.5"/>
<text text-anchor="middle" x="311.5837" y="-63.5" font-family="Helvetica,sans-Serif" font-size="10.00" fill="#000000">kernel_defines.h</text>
</a>
</g>
</g>
<!-- Node1&#45;&gt;Node3 -->
<g id="edge3" class="edge">
<title>Node1&#45;&gt;Node3</title>
<path fill="none" stroke="#191970" d="M172.8142,-280.375C195.0307,-246.0543 270.5992,-129.3139 299.8692,-84.097"/>
<polygon fill="#191970" stroke="#191970" points="302.8805,-85.8858 305.3765,-75.5891 297.0042,-82.0819 302.8805,-85.8858"/>
</g>
<!-- Node4 -->
<g id="node5" class="node">
<title>Node4</title>
<g id="a_node5"><a xlink:href="kernel__types_8h.html" target="_top" xlink:title="Types used by the kernel. ">
<polygon fill="none" stroke="#000000" points="689.5837,-224.5 689.5837,-243.5 769.5837,-243.5 769.5837,-224.5 689.5837,-224.5"/>
<text text-anchor="middle" x="729.5837" y="-231.5" font-family="Helvetica,sans-Serif" font-size="10.00" fill="#000000">kernel_types.h</text>
</a>
</g>
</g>
<!-- Node1&#45;&gt;Node4 -->
<g id="edge5" class="edge">
<title>Node1&#45;&gt;Node4</title>
<path fill="none" stroke="#191970" d="M192.1061,-288.7307C265.9804,-284.8427 486.4873,-271.7301 679.4951,-244.0125"/>
<polygon fill="#191970" stroke="#191970" points="680.1439,-247.4551 689.5367,-242.5535 679.1373,-240.5279 680.1439,-247.4551"/>
</g>
<!-- Node9 -->
<g id="node10" class="node">
<title>Node9</title>
<g id="a_node10"><a xlink:href="native__sched_8h.html" target="_top" xlink:title="Add definitions required on the native board. ">
<polygon fill="none" stroke="#000000" points="90.0837,-224.5 90.0837,-243.5 173.0837,-243.5 173.0837,-224.5 90.0837,-224.5"/>
<text text-anchor="middle" x="131.5837" y="-231.5" font-family="Helvetica,sans-Serif" font-size="10.00" fill="#000000">native_sched.h</text>
</a>
</g>
</g>
<!-- Node1&#45;&gt;Node9 -->
<g id="edge11" class="edge">
<title>Node1&#45;&gt;Node9</title>
<path fill="none" stroke="#191970" d="M160.4872,-280.2455C155.6692,-272.5367 148.8086,-261.5598 142.9805,-252.2348"/>
<polygon fill="#191970" stroke="#191970" points="145.8784,-250.2677 137.6104,-243.6427 139.9424,-253.9777 145.8784,-250.2677"/>
</g>
<!-- Node10 -->
<g id="node11" class="node">
<title>Node10</title>
<g id="a_node11"><a xlink:href="clist_8h.html" target="_top" xlink:title="Circular linked list. ">
<polygon fill="none" stroke="#000000" points="29.0837,-224.5 29.0837,-243.5 72.0837,-243.5 72.0837,-224.5 29.0837,-224.5"/>
<text text-anchor="middle" x="50.5837" y="-231.5" font-family="Helvetica,sans-Serif" font-size="10.00" fill="#000000">clist.h</text>
</a>
</g>
</g>
<!-- Node1&#45;&gt;Node10 -->
<g id="edge12" class="edge">
<title>Node1&#45;&gt;Node10</title>
<path fill="none" stroke="#191970" d="M146.6426,-280.3733C128.1051,-271.4241 100.2809,-257.9917 79.3424,-247.8835"/>
<polygon fill="#191970" stroke="#191970" points="80.7918,-244.6967 70.2646,-243.5011 77.7485,-251.0006 80.7918,-244.6967"/>
</g>
<!-- Node3&#45;&gt;Node2 -->
<g id="edge4" class="edge">
<title>Node3&#45;&gt;Node2</title>
<path fill="none" stroke="#191970" d="M305.313,-56.2455C300.3573,-48.5367 293.3007,-37.5598 287.3061,-28.2348"/>
<polygon fill="#191970" stroke="#191970" points="290.1343,-26.1618 281.7826,-19.6427 284.2461,-29.9471 290.1343,-26.1618"/>
</g>
<!-- Node4&#45;&gt;Node2 -->
<g id="edge9" class="edge">
<title>Node4&#45;&gt;Node2</title>
<path fill="none" stroke="#191970" d="M728.7566,-224.1193C727.0507,-209.8727 721.9035,-183.5677 706.5837,-168 594.5261,-54.1291 393.6827,-21.7108 311.8142,-13.0042"/>
<polygon fill="#191970" stroke="#191970" points="312.0522,-9.5106 301.7519,-11.9911 311.3509,-16.4754 312.0522,-9.5106"/>
</g>
<!-- Node5 -->
<g id="node6" class="node">
<title>Node5</title>
<polygon fill="none" stroke="#bfbfbf" points="485.0837,-168.5 485.0837,-187.5 534.0837,-187.5 534.0837,-168.5 485.0837,-168.5"/>
<text text-anchor="middle" x="509.5837" y="-175.5" font-family="Helvetica,sans-Serif" font-size="10.00" fill="#000000">stdint.h</text>
</g>
<!-- Node4&#45;&gt;Node5 -->
<g id="edge6" class="edge">
<title>Node4&#45;&gt;Node5</title>
<path fill="none" stroke="#191970" d="M689.5426,-224.6308C653.8513,-216.1603 599.9702,-203.0822 544.1372,-188.0684"/>
<polygon fill="#191970" stroke="#191970" points="544.9976,-184.6754 534.4307,-185.4437 543.1704,-191.4327 544.9976,-184.6754"/>
</g>
<!-- Node6 -->
<g id="node7" class="node">
<title>Node6</title>
<g id="a_node7"><a xlink:href="inttypes_8h.html" target="_top" xlink:title="Adds include for missing inttype definitions. ">
<polygon fill="none" stroke="#000000" points="552.0837,-168.5 552.0837,-187.5 611.0837,-187.5 611.0837,-168.5 552.0837,-168.5"/>
<text text-anchor="middle" x="581.5837" y="-175.5" font-family="Helvetica,sans-Serif" font-size="10.00" fill="#000000">inttypes.h</text>
</a>
</g>
</g>
<!-- Node4&#45;&gt;Node6 -->
<g id="edge7" class="edge">
<title>Node4&#45;&gt;Node6</title>
<path fill="none" stroke="#191970" d="M704.1416,-224.3733C679.8511,-215.1822 643.0629,-201.2624 616.1294,-191.0713"/>
<polygon fill="#191970" stroke="#191970" points="617.2853,-187.7666 606.6938,-187.5011 614.808,-194.3136 617.2853,-187.7666"/>
</g>
<!-- Node7 -->
<g id="node8" class="node">
<title>Node7</title>
<polygon fill="none" stroke="#bfbfbf" points="753.5837,-168.5 753.5837,-187.5 801.5837,-187.5 801.5837,-168.5 753.5837,-168.5"/>
<text text-anchor="middle" x="777.5837" y="-175.5" font-family="Helvetica,sans-Serif" font-size="10.00" fill="#000000">limits.h</text>
</g>
<!-- Node4&#45;&gt;Node7 -->
<g id="edge8" class="edge">
<title>Node4&#45;&gt;Node7</title>
<path fill="none" stroke="#191970" d="M737.9447,-224.2455C744.7587,-216.2958 754.5518,-204.8706 762.6989,-195.3656"/>
<polygon fill="#191970" stroke="#191970" points="765.468,-197.513 769.3186,-187.6427 760.1532,-192.9575 765.468,-197.513"/>
</g>
<!-- Node8 -->
<g id="node9" class="node">
<title>Node8</title>
<polygon fill="none" stroke="#bfbfbf" points="629.5837,-168.5 629.5837,-187.5 697.5837,-187.5 697.5837,-168.5 629.5837,-168.5"/>
<text text-anchor="middle" x="663.5837" y="-175.5" font-family="Helvetica,sans-Serif" font-size="10.00" fill="#000000">sys/types.h</text>
</g>
<!-- Node4&#45;&gt;Node8 -->
<g id="edge10" class="edge">
<title>Node4&#45;&gt;Node8</title>
<path fill="none" stroke="#191970" d="M718.0874,-224.2455C708.3395,-215.9746 694.1578,-203.9416 682.7039,-194.2232"/>
<polygon fill="#191970" stroke="#191970" points="684.8378,-191.4437 674.9483,-187.6427 680.309,-196.7813 684.8378,-191.4437"/>
</g>
<!-- Node10&#45;&gt;Node2 -->
<g id="edge13" class="edge">
<title>Node10&#45;&gt;Node2</title>
<path fill="none" stroke="#191970" d="M60.2517,-224.375C95.0862,-189.6953 214.4493,-70.8627 258.8075,-26.7017"/>
<polygon fill="#191970" stroke="#191970" points="261.3343,-29.1249 265.9518,-19.5891 256.3956,-24.1641 261.3343,-29.1249"/>
</g>
<!-- Node11 -->
<g id="node12" class="node">
<title>Node11</title>
<g id="a_node12"><a xlink:href="list_8h.html" target="_top" xlink:title="Intrusive linked list. ">
<polygon fill="none" stroke="#000000" points="267.5837,-168.5 267.5837,-187.5 305.5837,-187.5 305.5837,-168.5 267.5837,-168.5"/>
<text text-anchor="middle" x="286.5837" y="-175.5" font-family="Helvetica,sans-Serif" font-size="10.00" fill="#000000">list.h</text>
</a>
</g>
</g>
<!-- Node10&#45;&gt;Node11 -->
<g id="edge14" class="edge">
<title>Node10&#45;&gt;Node11</title>
<path fill="none" stroke="#191970" d="M72.1327,-226.5246C74.9617,-225.6294 77.8329,-224.7635 80.5837,-224 142.9797,-206.6828 217.3888,-191.355 257.4965,-183.5212"/>
<polygon fill="#191970" stroke="#191970" points="258.2418,-186.942 267.394,-181.6046 256.911,-180.0697 258.2418,-186.942"/>
</g>
<!-- Node12&#45;&gt;Node4 -->
<g id="edge25" class="edge">
<title>Node12&#45;&gt;Node4</title>
<path fill="none" stroke="#191970" d="M634.4507,-336.4509C652.0269,-317.5227 691.4992,-275.014 713.6792,-251.1279"/>
<polygon fill="#191970" stroke="#191970" points="716.4994,-253.2344 720.7392,-243.5249 711.3698,-248.4713 716.4994,-253.2344"/>
</g>
<!-- Node12&#45;&gt;Node5 -->
<g id="edge17" class="edge">
<title>Node12&#45;&gt;Node5</title>
<path fill="none" stroke="#191970" d="M620.8956,-336.3238C610.3569,-315.012 583.3746,-262.8308 553.5837,-224 545.6523,-213.6619 535.6933,-203.0888 527.2569,-194.6903"/>
<polygon fill="#191970" stroke="#191970" points="529.644,-192.1294 520.039,-187.6577 524.759,-197.1431 529.644,-192.1294"/>
</g>
<!-- Node13 -->
<g id="node14" class="node">
<title>Node13</title>
<polygon fill="none" stroke="#bfbfbf" points="1115.5837,-168.5 1115.5837,-187.5 1171.5837,-187.5 1171.5837,-168.5 1115.5837,-168.5"/>
<text text-anchor="middle" x="1143.5837" y="-175.5" font-family="Helvetica,sans-Serif" font-size="10.00" fill="#000000">stdbool.h</text>
</g>
<!-- Node12&#45;&gt;Node13 -->
<g id="edge16" class="edge">
<title>Node12&#45;&gt;Node13</title>
<path fill="none" stroke="#191970" d="M651.8596,-338.0733C654.7887,-337.315 657.7403,-336.6047 660.5837,-336 852.17,-295.2555 930.4744,-355.3967 1091.5837,-244 1109.4972,-231.6139 1124.2026,-211.2274 1133.3491,-196.3846"/>
<polygon fill="#191970" stroke="#191970" points="1136.4801,-197.9649 1138.5348,-187.5712 1130.447,-194.415 1136.4801,-197.9649"/>
</g>
<!-- Node14 -->
<g id="node15" class="node">
<title>Node14</title>
<g id="a_node15"><a xlink:href="timex_8h.html" target="_top" xlink:title="Utility library for comparing and computing timestamps. ">
<polygon fill="none" stroke="#000000" points="622.0837,-224.5 622.0837,-243.5 671.0837,-243.5 671.0837,-224.5 622.0837,-224.5"/>
<text text-anchor="middle" x="646.5837" y="-231.5" font-family="Helvetica,sans-Serif" font-size="10.00" fill="#000000">timex.h</text>
</a>
</g>
</g>
<!-- Node12&#45;&gt;Node14 -->
<g id="edge18" class="edge">
<title>Node12&#45;&gt;Node14</title>
<path fill="none" stroke="#191970" d="M627.3742,-336.4509C630.8147,-318.1013 638.4104,-277.5908 642.952,-253.3693"/>
<polygon fill="#191970" stroke="#191970" points="646.3949,-253.9986 644.7978,-243.5249 639.5148,-252.7086 646.3949,-253.9986"/>
</g>
<!-- Node15 -->
<g id="node16" class="node">
<title>Node15</title>
<g id="a_node16"><a xlink:href="mutex_8h.html" target="_top" xlink:title="Mutex for thread synchronization. ">
<polygon fill="none" stroke="#000000" points="333.5837,-224.5 333.5837,-243.5 385.5837,-243.5 385.5837,-224.5 333.5837,-224.5"/>
<text text-anchor="middle" x="359.5837" y="-231.5" font-family="Helvetica,sans-Serif" font-size="10.00" fill="#000000">mutex.h</text>
</a>
</g>
</g>
<!-- Node12&#45;&gt;Node15 -->
<g id="edge21" class="edge">
<title>Node12&#45;&gt;Node15</title>
<path fill="none" stroke="#191970" d="M599.1186,-341.5664C535.2581,-330.816 377.6499,-303.952 373.5837,-300 361.4017,-288.1599 358.5292,-268.5524 358.3279,-253.7784"/>
<polygon fill="#191970" stroke="#191970" points="361.8305,-253.717 358.5847,-243.6316 354.8327,-253.5398 361.8305,-253.717"/>
</g>
<!-- Node16 -->
<g id="node17" class="node">
<title>Node16</title>
<g id="a_node17"><a xlink:href="rmutex_8h.html" target="_top" xlink:title="Recursive Mutex for thread synchronization. ">
<polygon fill="none" stroke="#000000" points="523.0837,-280.5 523.0837,-299.5 578.0837,-299.5 578.0837,-280.5 523.0837,-280.5"/>
<text text-anchor="middle" x="550.5837" y="-287.5" font-family="Helvetica,sans-Serif" font-size="10.00" fill="#000000">rmutex.h</text>
</a>
</g>
</g>
<!-- Node12&#45;&gt;Node16 -->
<g id="edge26" class="edge">
<title>Node12&#45;&gt;Node16</title>
<path fill="none" stroke="#191970" d="M612.5197,-336.2455C601.2275,-327.814 584.6992,-315.4729 571.5566,-305.6598"/>
<polygon fill="#191970" stroke="#191970" points="573.6049,-302.8211 563.498,-299.6427 569.4168,-308.4301 573.6049,-302.8211"/>
</g>
<!-- Node18 -->
<g id="node19" class="node">
<title>Node18</title>
<polygon fill="none" stroke="#bfbfbf" points="711.0837,-280.5 711.0837,-299.5 760.0837,-299.5 760.0837,-280.5 711.0837,-280.5"/>
<text text-anchor="middle" x="735.5837" y="-287.5" font-family="Helvetica,sans-Serif" font-size="10.00" fill="#000000">board.h</text>
</g>
<!-- Node12&#45;&gt;Node18 -->
<g id="edge31" class="edge">
<title>Node12&#45;&gt;Node18</title>
<path fill="none" stroke="#191970" d="M644.7442,-336.2455C662.0948,-327.4125 687.8738,-314.2887 707.542,-304.2758"/>
<polygon fill="#191970" stroke="#191970" points="709.319,-307.2986 716.6427,-299.6427 706.1432,-301.0605 709.319,-307.2986"/>
</g>
<!-- Node19 -->
<g id="node20" class="node">
<title>Node19</title>
<polygon fill="none" stroke="#bfbfbf" points="1043.0837,-112.5 1043.0837,-131.5 1118.0837,-131.5 1118.0837,-112.5 1043.0837,-112.5"/>
<text text-anchor="middle" x="1080.5837" y="-119.5" font-family="Helvetica,sans-Serif" font-size="10.00" fill="#000000">periph_conf.h</text>
</g>
<!-- Node12&#45;&gt;Node19 -->
<g id="edge32" class="edge">
<title>Node12&#45;&gt;Node19</title>
<path fill="none" stroke="#191970" d="M651.8358,-337.9558C654.7694,-337.2195 657.7286,-336.5465 660.5837,-336 818.0803,-305.8536 867.0689,-349.5298 1019.5837,-300 1102.4882,-273.0764 1144.2607,-267.238 1180.5837,-188 1193.1132,-160.6671 1159.6121,-143.1587 1128.0669,-133.0945"/>
<polygon fill="#191970" stroke="#191970" points="1128.9762,-129.7134 1118.3929,-130.2074 1126.9744,-136.421 1128.9762,-129.7134"/>
</g>
<!-- Node20 -->
<g id="node21" class="node">
<title>Node20</title>
<g id="a_node21"><a xlink:href="tick__conversion_8h.html" target="_top" xlink:title="xtimer tick &lt;&#45;&gt; seconds conversions for different values of XTIMER_HZ ">
<polygon fill="none" stroke="#000000" points="382.0837,-280.5 382.0837,-299.5 505.0837,-299.5 505.0837,-280.5 382.0837,-280.5"/>
<text text-anchor="middle" x="443.5837" y="-287.5" font-family="Helvetica,sans-Serif" font-size="10.00" fill="#000000">xtimer/tick_conversion.h</text>
</a>
</g>
</g>
<!-- Node12&#45;&gt;Node20 -->
<g id="edge33" class="edge">
<title>Node12&#45;&gt;Node20</title>
<path fill="none" stroke="#191970" d="M599.5075,-337.9766C569.4491,-328.7278 519.6712,-313.4115 484.4539,-302.5754"/>
<polygon fill="#191970" stroke="#191970" points="485.0704,-299.1033 474.4833,-299.5076 483.0118,-305.7937 485.0704,-299.1033"/>
</g>
<!-- Node24 -->
<g id="node25" class="node">
<title>Node24</title>
<g id="a_node25"><a xlink:href="implementation_8h.html" target="_top" xlink:title="xtimer implementation ">
<polygon fill="none" stroke="#000000" points="784.0837,-280.5 784.0837,-299.5 905.0837,-299.5 905.0837,-280.5 784.0837,-280.5"/>
<text text-anchor="middle" x="844.5837" y="-287.5" font-family="Helvetica,sans-Serif" font-size="10.00" fill="#000000">xtimer/implementation.h</text>
</a>
</g>
</g>
<!-- Node12&#45;&gt;Node24 -->
<g id="edge39" class="edge">
<title>Node12&#45;&gt;Node24</title>
<path fill="none" stroke="#191970" d="M651.9309,-338.3706C654.8467,-337.5565 657.7757,-336.7519 660.5837,-336 705.7931,-323.8939 757.5219,-311.0505 794.5939,-302.0205"/>
<polygon fill="#191970" stroke="#191970" points="795.7531,-305.3407 804.6439,-299.5784 794.1002,-298.5387 795.7531,-305.3407"/>
</g>
<!-- Node14&#45;&gt;Node5 -->
<g id="edge19" class="edge">
<title>Node14&#45;&gt;Node5</title>
<path fill="none" stroke="#191970" d="M623.0326,-224.3733C600.7446,-215.2629 567.09,-201.5062 542.22,-191.3404"/>
<polygon fill="#191970" stroke="#191970" points="543.4084,-188.0451 532.8275,-187.5011 540.7598,-194.5247 543.4084,-188.0451"/>
</g>
<!-- Node14&#45;&gt;Node6 -->
<g id="edge20" class="edge">
<title>Node14&#45;&gt;Node6</title>
<path fill="none" stroke="#191970" d="M635.2616,-224.2455C625.6614,-215.9746 611.6945,-203.9416 600.4142,-194.2232"/>
<polygon fill="#191970" stroke="#191970" points="602.6367,-191.5182 592.7761,-187.6427 598.0677,-196.8214 602.6367,-191.5182"/>
</g>
<!-- Node15&#45;&gt;Node2 -->
<g id="edge22" class="edge">
<title>Node15&#45;&gt;Node2</title>
<path fill="none" stroke="#191970" d="M366.6852,-224.3724C372.7889,-215.4569 381.1354,-201.5662 384.5837,-188 395.2011,-146.2291 396.7526,-99.6389 364.5837,-56 351.7238,-38.5548 330.2972,-27.194 311.6902,-20.1276"/>
<polygon fill="#191970" stroke="#191970" points="312.592,-16.7348 301.9972,-16.7234 310.2724,-23.3393 312.592,-16.7348"/>
</g>
<!-- Node15&#45;&gt;Node5 -->
<g id="edge23" class="edge">
<title>Node15&#45;&gt;Node5</title>
<path fill="none" stroke="#191970" d="M385.3696,-224.3733C410.1376,-215.1265 447.7261,-201.0935 475.0664,-190.8865"/>
<polygon fill="#191970" stroke="#191970" points="476.4884,-194.0916 484.6327,-187.315 474.0401,-187.5337 476.4884,-194.0916"/>
</g>
<!-- Node15&#45;&gt;Node11 -->
<g id="edge24" class="edge">
<title>Node15&#45;&gt;Node11</title>
<path fill="none" stroke="#191970" d="M346.8681,-224.2455C335.9817,-215.8943 320.0954,-203.7076 307.3637,-193.9408"/>
<polygon fill="#191970" stroke="#191970" points="309.2183,-190.9523 299.1536,-187.6427 304.9576,-196.5063 309.2183,-190.9523"/>
</g>
<!-- Node16&#45;&gt;Node4 -->
<g id="edge30" class="edge">
<title>Node16&#45;&gt;Node4</title>
<path fill="none" stroke="#191970" d="M578.1602,-281.3727C607.8829,-272.074 655.4773,-257.1841 689.3696,-246.581"/>
<polygon fill="#191970" stroke="#191970" points="690.4766,-249.902 698.9754,-243.5758 688.3865,-243.2213 690.4766,-249.902"/>
</g>
<!-- Node16&#45;&gt;Node5 -->
<g id="edge27" class="edge">
<title>Node16&#45;&gt;Node5</title>
<path fill="none" stroke="#191970" d="M549.5201,-280.3235C547.8589,-267.2085 544.0366,-243.221 536.5837,-224 532.8379,-214.3395 527.2086,-204.3362 522.0578,-196.1352"/>
<polygon fill="#191970" stroke="#191970" points="524.9777,-194.2052 516.5716,-187.7562 519.1213,-198.0397 524.9777,-194.2052"/>
</g>
<!-- Node16&#45;&gt;Node15 -->
<g id="edge29" class="edge">
<title>Node16&#45;&gt;Node15</title>
<path fill="none" stroke="#191970" d="M522.8107,-281.8571C489.2375,-272.0137 432.6567,-255.4245 395.7168,-244.594"/>
<polygon fill="#191970" stroke="#191970" points="396.4349,-241.1573 385.8541,-241.7023 394.4654,-247.8745 396.4349,-241.1573"/>
</g>
<!-- Node17 -->
<g id="node18" class="node">
<title>Node17</title>
<polygon fill="none" stroke="#bfbfbf" points="459.5837,-224.5 459.5837,-243.5 527.5837,-243.5 527.5837,-224.5 459.5837,-224.5"/>
<text text-anchor="middle" x="493.5837" y="-231.5" font-family="Helvetica,sans-Serif" font-size="10.00" fill="#000000">stdatomic.h</text>
</g>
<!-- Node16&#45;&gt;Node17 -->
<g id="edge28" class="edge">
<title>Node16&#45;&gt;Node17</title>
<path fill="none" stroke="#191970" d="M540.6551,-280.2455C532.3999,-272.1352 520.4628,-260.4075 510.6755,-250.7919"/>
<polygon fill="#191970" stroke="#191970" points="512.9849,-248.1542 503.3986,-243.6427 508.0791,-253.1476 512.9849,-248.1542"/>
</g>
<!-- Node21 -->
<g id="node22" class="node">
<title>Node21</title>
<g id="a_node22"><a xlink:href="div_8h.html" target="_top" xlink:title="div.h">
<polygon fill="none" stroke="#000000" points="403.5837,-224.5 403.5837,-243.5 441.5837,-243.5 441.5837,-224.5 403.5837,-224.5"/>
<text text-anchor="middle" x="422.5837" y="-231.5" font-family="Helvetica,sans-Serif" font-size="10.00" fill="#000000">div.h</text>
</a>
</g>
</g>
<!-- Node20&#45;&gt;Node21 -->
<g id="edge34" class="edge">
<title>Node20&#45;&gt;Node21</title>
<path fill="none" stroke="#191970" d="M439.9258,-280.2455C437.1253,-272.7776 433.1747,-262.2427 429.7514,-253.1137"/>
<polygon fill="#191970" stroke="#191970" points="432.9882,-251.777 426.1997,-243.6427 426.4339,-254.2349 432.9882,-251.777"/>
</g>
<!-- Node21&#45;&gt;Node5 -->
<g id="edge38" class="edge">
<title>Node21&#45;&gt;Node5</title>
<path fill="none" stroke="#191970" d="M437.738,-224.2455C451.0864,-215.6534 470.7423,-203.0014 486.122,-193.1018"/>
<polygon fill="#191970" stroke="#191970" points="488.0888,-195.9982 494.6031,-187.6427 484.3001,-190.1121 488.0888,-195.9982"/>
</g>
<!-- Node22 -->
<g id="node23" class="node">
<title>Node22</title>
<g id="a_node23"><a xlink:href="assert_8h.html" target="_top" xlink:title="POSIX.1&#45;2008 compliant version of the assert macro. ">
<polygon fill="none" stroke="#000000" points="323.5837,-168.5 323.5837,-187.5 375.5837,-187.5 375.5837,-168.5 323.5837,-168.5"/>
<text text-anchor="middle" x="349.5837" y="-175.5" font-family="Helvetica,sans-Serif" font-size="10.00" fill="#000000">assert.h</text>
</a>
</g>
</g>
<!-- Node21&#45;&gt;Node22 -->
<g id="edge35" class="edge">
<title>Node21&#45;&gt;Node22</title>
<path fill="none" stroke="#191970" d="M409.8681,-224.2455C398.9817,-215.8943 383.0954,-203.7076 370.3637,-193.9408"/>
<polygon fill="#191970" stroke="#191970" points="372.2183,-190.9523 362.1536,-187.6427 367.9576,-196.5063 372.2183,-190.9523"/>
</g>
<!-- Node23 -->
<g id="node24" class="node">
<title>Node23</title>
<g id="a_node24"><a xlink:href="panic_8h.html" target="_top" xlink:title="Crash handling header. ">
<polygon fill="none" stroke="#000000" points="315.5837,-112.5 315.5837,-131.5 363.5837,-131.5 363.5837,-112.5 315.5837,-112.5"/>
<text text-anchor="middle" x="339.5837" y="-119.5" font-family="Helvetica,sans-Serif" font-size="10.00" fill="#000000">panic.h</text>
</a>
</g>
</g>
<!-- Node22&#45;&gt;Node23 -->
<g id="edge36" class="edge">
<title>Node22&#45;&gt;Node23</title>
<path fill="none" stroke="#191970" d="M347.8418,-168.2455C346.537,-160.9382 344.7077,-150.6944 343.1024,-141.7046"/>
<polygon fill="#191970" stroke="#191970" points="346.5091,-140.8717 341.3056,-131.6427 339.6181,-142.1022 346.5091,-140.8717"/>
</g>
<!-- Node23&#45;&gt;Node3 -->
<g id="edge37" class="edge">
<title>Node23&#45;&gt;Node3</title>
<path fill="none" stroke="#191970" d="M334.7065,-112.2455C330.9324,-104.6973 325.5916,-94.0158 320.9936,-84.8197"/>
<polygon fill="#191970" stroke="#191970" points="324.0077,-83.0217 316.405,-75.6427 317.7467,-86.1522 324.0077,-83.0217"/>
</g>
<!-- Node25 -->
<g id="node26" class="node">
<title>Node25</title>
<g id="a_node26"><a xlink:href="drivers_2include_2periph_2timer_8h.html" target="_top" xlink:title="Low&#45;level timer peripheral driver interface definitions. ">
<polygon fill="none" stroke="#000000" points="806.5837,-224.5 806.5837,-243.5 882.5837,-243.5 882.5837,-224.5 806.5837,-224.5"/>
<text text-anchor="middle" x="844.5837" y="-231.5" font-family="Helvetica,sans-Serif" font-size="10.00" fill="#000000">periph/timer.h</text>
</a>
</g>
</g>
<!-- Node24&#45;&gt;Node25 -->
<g id="edge40" class="edge">
<title>Node24&#45;&gt;Node25</title>
<path fill="none" stroke="#191970" d="M844.5837,-280.2455C844.5837,-272.9382 844.5837,-262.6944 844.5837,-253.7046"/>
<polygon fill="#191970" stroke="#191970" points="848.0838,-253.6426 844.5837,-243.6427 841.0838,-253.6427 848.0838,-253.6426"/>
</g>
<!-- Node28 -->
<g id="node29" class="node">
<title>Node28</title>
<g id="a_node29"><a xlink:href="irq_8h.html" target="_top" xlink:title="IRQ driver interface. ">
<polygon fill="none" stroke="#000000" points="1047.0837,-224.5 1047.0837,-243.5 1082.0837,-243.5 1082.0837,-224.5 1047.0837,-224.5"/>
<text text-anchor="middle" x="1064.5837" y="-231.5" font-family="Helvetica,sans-Serif" font-size="10.00" fill="#000000">irq.h</text>
</a>
</g>
</g>
<!-- Node24&#45;&gt;Node28 -->
<g id="edge46" class="edge">
<title>Node24&#45;&gt;Node28</title>
<path fill="none" stroke="#191970" d="M882.4031,-280.3733C926.3109,-269.1967 997.6898,-251.0275 1036.793,-241.074"/>
<polygon fill="#191970" stroke="#191970" points="1038.0891,-244.3558 1046.9166,-238.4971 1036.3622,-237.5721 1038.0891,-244.3558"/>
</g>
<!-- Node25&#45;&gt;Node5 -->
<g id="edge42" class="edge">
<title>Node25&#45;&gt;Node5</title>
<path fill="none" stroke="#191970" d="M806.3339,-228.1882C734.9364,-217.3359 585.461,-194.596 544.3485,-187.5585"/>
<polygon fill="#191970" stroke="#191970" points="544.8364,-184.0894 534.3658,-185.7071 543.5599,-190.972 544.8364,-184.0894"/>
</g>
<!-- Node25&#45;&gt;Node7 -->
<g id="edge41" class="edge">
<title>Node25&#45;&gt;Node7</title>
<path fill="none" stroke="#191970" d="M832.9132,-224.2455C823.0176,-215.9746 808.621,-203.9416 796.9936,-194.2232"/>
<polygon fill="#191970" stroke="#191970" points="799.0379,-191.3703 789.1205,-187.6427 794.5487,-196.7413 799.0379,-191.3703"/>
</g>
<!-- Node26 -->
<g id="node27" class="node">
<title>Node26</title>
<polygon fill="none" stroke="#bfbfbf" points="819.5837,-168.5 819.5837,-187.5 891.5837,-187.5 891.5837,-168.5 819.5837,-168.5"/>
<text text-anchor="middle" x="855.5837" y="-175.5" font-family="Helvetica,sans-Serif" font-size="10.00" fill="#000000">periph_cpu.h</text>
</g>
<!-- Node25&#45;&gt;Node26 -->
<g id="edge43" class="edge">
<title>Node25&#45;&gt;Node26</title>
<path fill="none" stroke="#191970" d="M846.4998,-224.2455C847.9351,-216.9382 849.9473,-206.6944 851.7132,-197.7046"/>
<polygon fill="#191970" stroke="#191970" points="855.1965,-198.1298 853.6896,-187.6427 848.3277,-196.7805 855.1965,-198.1298"/>
</g>
<!-- Node27 -->
<g id="node28" class="node">
<title>Node27</title>
<g id="a_node28"><a xlink:href="dev__enums_8h.html" target="_top" xlink:title="Device enumerations for backward compatibility with existing peripheral driver implementations. ">
<polygon fill="none" stroke="#000000" points="909.5837,-168.5 909.5837,-187.5 1013.5837,-187.5 1013.5837,-168.5 909.5837,-168.5"/>
<text text-anchor="middle" x="961.5837" y="-175.5" font-family="Helvetica,sans-Serif" font-size="10.00" fill="#000000">periph/dev_enums.h</text>
</a>
</g>
</g>
<!-- Node25&#45;&gt;Node27 -->
<g id="edge44" class="edge">
<title>Node25&#45;&gt;Node27</title>
<path fill="none" stroke="#191970" d="M864.6967,-224.3733C883.394,-215.4241 911.4581,-201.9917 932.5771,-191.8835"/>
<polygon fill="#191970" stroke="#191970" points="934.2242,-194.9755 941.7331,-187.5011 931.202,-188.6614 934.2242,-194.9755"/>
</g>
<!-- Node27&#45;&gt;Node19 -->
<g id="edge45" class="edge">
<title>Node27&#45;&gt;Node19</title>
<path fill="none" stroke="#191970" d="M982.0405,-168.3733C1001.0575,-159.4241 1029.6013,-145.9917 1051.0813,-135.8835"/>
<polygon fill="#191970" stroke="#191970" points="1052.8359,-138.926 1060.3938,-131.5011 1049.8553,-132.5923 1052.8359,-138.926"/>
</g>
<!-- Node28&#45;&gt;Node13 -->
<g id="edge47" class="edge">
<title>Node28&#45;&gt;Node13</title>
<path fill="none" stroke="#191970" d="M1078.3445,-224.2455C1090.2389,-215.814 1107.6487,-203.4729 1121.4923,-193.6598"/>
<polygon fill="#191970" stroke="#191970" points="1123.8465,-196.2811 1129.9807,-187.6427 1119.7983,-190.5704 1123.8465,-196.2811"/>
</g>
<!-- Node29 -->
<g id="node30" class="node">
<title>Node29</title>
<polygon fill="none" stroke="#bfbfbf" points="1032.0837,-168.5 1032.0837,-187.5 1097.0837,-187.5 1097.0837,-168.5 1032.0837,-168.5"/>
<text text-anchor="middle" x="1064.5837" y="-175.5" font-family="Helvetica,sans-Serif" font-size="10.00" fill="#000000">cpu_conf.h</text>
</g>
<!-- Node28&#45;&gt;Node29 -->
<g id="edge48" class="edge">
<title>Node28&#45;&gt;Node29</title>
<path fill="none" stroke="#191970" d="M1064.5837,-224.2455C1064.5837,-216.9382 1064.5837,-206.6944 1064.5837,-197.7046"/>
<polygon fill="#191970" stroke="#191970" points="1068.0838,-197.6426 1064.5837,-187.6427 1061.0838,-197.6427 1068.0838,-197.6426"/>
</g>
<!-- Node30&#45;&gt;Node2 -->
<g id="edge50" class="edge">
<title>Node30&#45;&gt;Node2</title>
<path fill="none" stroke="#191970" d="M268.7213,-224.3228C265.2799,-215.1446 260.5004,-200.8807 258.5837,-188 249.9489,-129.9723 248.2539,-113.7501 258.5837,-56 260.2281,-46.8071 263.5842,-37.047 266.8834,-28.8935"/>
<polygon fill="#191970" stroke="#191970" points="270.1502,-30.1569 270.8988,-19.5885 263.7231,-27.3833 270.1502,-30.1569"/>
</g>
<!-- Node30&#45;&gt;Node5 -->
<g id="edge51" class="edge">
<title>Node30&#45;&gt;Node5</title>
<path fill="none" stroke="#191970" d="M313.0562,-224.4369C358.6131,-213.6724 431.8675,-196.3633 474.9017,-186.1949"/>
<polygon fill="#191970" stroke="#191970" points="475.9706,-189.5388 484.8978,-183.833 474.3609,-182.7264 475.9706,-189.5388"/>
</g>
<!-- Node31&#45;&gt;Node15 -->
<g id="edge53" class="edge">
<title>Node31&#45;&gt;Node15</title>
<path fill="none" stroke="#191970" d="M375.4771,-392.4742C360.9506,-384.902 343.11,-372.7828 334.5837,-356 317.3797,-322.1364 335.5616,-277.2962 348.6643,-252.4923"/>
<polygon fill="#191970" stroke="#191970" points="351.7259,-254.1884 353.5191,-243.7464 345.6056,-250.791 351.7259,-254.1884"/>
</g>
<!-- Node32 -->
<g id="node33" class="node">
<title>Node32</title>
<polygon fill="none" stroke="#bfbfbf" points="343.5837,-336.5 343.5837,-355.5 383.5837,-355.5 383.5837,-336.5 343.5837,-336.5"/>
<text text-anchor="middle" x="363.5837" y="-343.5" font-family="Helvetica,sans-Serif" font-size="10.00" fill="#000000">utility</text>
</g>
<!-- Node31&#45;&gt;Node32 -->
<g id="edge54" class="edge">
<title>Node31&#45;&gt;Node32</title>
<path fill="none" stroke="#191970" d="M391.6614,-392.2455C386.981,-384.5367 380.3164,-373.5598 374.6548,-364.2348"/>
<polygon fill="#191970" stroke="#191970" points="377.6198,-362.3741 369.4382,-355.6427 371.6363,-366.007 377.6198,-362.3741"/>
</g>
<!-- Node33 -->
<g id="node34" class="node">
<title>Node33</title>
<polygon fill="none" stroke="#bfbfbf" points="402.0837,-336.5 402.0837,-355.5 461.0837,-355.5 461.0837,-336.5 402.0837,-336.5"/>
<text text-anchor="middle" x="431.5837" y="-343.5" font-family="Helvetica,sans-Serif" font-size="10.00" fill="#000000">stdexcept</text>
</g>
<!-- Node31&#45;&gt;Node33 -->
<g id="edge55" class="edge">
<title>Node31&#45;&gt;Node33</title>
<path fill="none" stroke="#191970" d="M403.5061,-392.2455C408.1864,-384.5367 414.851,-373.5598 420.5126,-364.2348"/>
<polygon fill="#191970" stroke="#191970" points="423.5312,-366.007 425.7292,-355.6427 417.5476,-362.3741 423.5312,-366.007"/>
</g>
<!-- Node34 -->
<g id="node35" class="node">
<title>Node34</title>
<polygon fill="none" stroke="#bfbfbf" points="479.5837,-336.5 479.5837,-355.5 553.5837,-355.5 553.5837,-336.5 479.5837,-336.5"/>
<text text-anchor="middle" x="516.5837" y="-343.5" font-family="Helvetica,sans-Serif" font-size="10.00" fill="#000000">system_error</text>
</g>
<!-- Node31&#45;&gt;Node34 -->
<g id="edge56" class="edge">
<title>Node31&#45;&gt;Node34</title>
<path fill="none" stroke="#191970" d="M418.0405,-392.3733C437.0575,-383.4241 465.6013,-369.9917 487.0813,-359.8835"/>
<polygon fill="#191970" stroke="#191970" points="488.8359,-362.926 496.3938,-355.5011 485.8553,-356.5923 488.8359,-362.926"/>
</g>
<!-- Node35&#45;&gt;Node12 -->
<g id="edge61" class="edge">
<title>Node35&#45;&gt;Node12</title>
<path fill="none" stroke="#191970" d="M685.0423,-392.2455C674.305,-383.8943 658.6364,-371.7076 646.079,-361.9408"/>
<polygon fill="#191970" stroke="#191970" points="648.0238,-359.0194 637.9814,-355.6427 643.7262,-364.5449 648.0238,-359.0194"/>
</g>
<!-- Node36 -->
<g id="node37" class="node">
<title>Node36</title>
<polygon fill="none" stroke="#bfbfbf" points="805.5837,-336.5 805.5837,-355.5 851.5837,-355.5 851.5837,-336.5 805.5837,-336.5"/>
<text text-anchor="middle" x="828.5837" y="-343.5" font-family="Helvetica,sans-Serif" font-size="10.00" fill="#000000">chrono</text>
</g>
<!-- Node35&#45;&gt;Node36 -->
<g id="edge58" class="edge">
<title>Node35&#45;&gt;Node36</title>
<path fill="none" stroke="#191970" d="M720.1034,-392.3733C741.3209,-383.3032 773.3113,-369.6279 797.0606,-359.4755"/>
<polygon fill="#191970" stroke="#191970" points="798.5386,-362.6502 806.3579,-355.5011 795.787,-356.2136 798.5386,-362.6502"/>
</g>
<!-- Node37 -->
<g id="node38" class="node">
<title>Node37</title>
<polygon fill="none" stroke="#bfbfbf" points="669.5837,-336.5 669.5837,-355.5 725.5837,-355.5 725.5837,-336.5 669.5837,-336.5"/>
<text text-anchor="middle" x="697.5837" y="-343.5" font-family="Helvetica,sans-Serif" font-size="10.00" fill="#000000">algorithm</text>
</g>
<!-- Node35&#45;&gt;Node37 -->
<g id="edge59" class="edge">
<title>Node35&#45;&gt;Node37</title>
<path fill="none" stroke="#191970" d="M697.5837,-392.2455C697.5837,-384.9382 697.5837,-374.6944 697.5837,-365.7046"/>
<polygon fill="#191970" stroke="#191970" points="701.0838,-365.6426 697.5837,-355.6427 694.0838,-365.6427 701.0838,-365.6426"/>
</g>
<!-- Node38 -->
<g id="node39" class="node">
<title>Node38</title>
<polygon fill="none" stroke="#bfbfbf" points="743.5837,-336.5 743.5837,-355.5 787.5837,-355.5 787.5837,-336.5 743.5837,-336.5"/>
<text text-anchor="middle" x="765.5837" y="-343.5" font-family="Helvetica,sans-Serif" font-size="10.00" fill="#000000">time.h</text>
</g>
<!-- Node35&#45;&gt;Node38 -->
<g id="edge60" class="edge">
<title>Node35&#45;&gt;Node38</title>
<path fill="none" stroke="#191970" d="M709.4284,-392.2455C719.4717,-383.9746 734.0832,-371.9416 745.8841,-362.2232"/>
<polygon fill="#191970" stroke="#191970" points="748.3804,-364.7015 753.8747,-355.6427 743.9304,-359.298 748.3804,-364.7015"/>
</g>
</g>
</svg>
