<?xml version="1.0" encoding="UTF-8" standalone="no"?>
<!DOCTYPE svg PUBLIC "-//W3C//DTD SVG 1.1//EN"
 "http://www.w3.org/Graphics/SVG/1.1/DTD/svg11.dtd">
<!-- Generated by graphviz version 2.40.1 (20161225.0304)
 -->
<!-- Title: cpu/fe310/include/context_frame.h Pages: 1 -->
<svg width="151pt" height="263pt"
 viewBox="0.00 0.00 151.00 263.00" xmlns="http://www.w3.org/2000/svg" xmlns:xlink="http://www.w3.org/1999/xlink">
<g id="graph0" class="graph" transform="scale(1 1) rotate(0) translate(4 259)">
<title>cpu/fe310/include/context_frame.h</title>
<!-- Node0 -->
<g id="node1" class="node">
<title>Node0</title>
<polygon fill="#bfbfbf" stroke="#000000" points="0,-224.5 0,-254.5 128,-254.5 128,-224.5 0,-224.5"/>
<text text-anchor="start" x="8" y="-242.5" font-family="Helvetica,sans-Serif" font-size="10.00" fill="#000000">cpu/fe310/include/context</text>
<text text-anchor="middle" x="64" y="-231.5" font-family="Helvetica,sans-Serif" font-size="10.00" fill="#000000">_frame.h</text>
</g>
<!-- Node1 -->
<g id="node2" class="node">
<title>Node1</title>
<polygon fill="none" stroke="#bfbfbf" points="5.5,-168.5 5.5,-187.5 54.5,-187.5 54.5,-168.5 5.5,-168.5"/>
<text text-anchor="middle" x="30" y="-175.5" font-family="Helvetica,sans-Serif" font-size="10.00" fill="#000000">stdint.h</text>
</g>
<!-- Node0&#45;&gt;Node1 -->
<g id="edge1" class="edge">
<title>Node0&#45;&gt;Node1</title>
<path fill="none" stroke="#191970" d="M55.5955,-224.2977C50.9743,-215.9388 45.2031,-205.4997 40.3111,-196.6509"/>
<polygon fill="#191970" stroke="#191970" points="43.3452,-194.9051 35.4438,-187.8469 37.2191,-198.292 43.3452,-194.9051"/>
</g>
<!-- Node2 -->
<g id="node3" class="node">
<title>Node2</title>
<g id="a_node3"><a xlink:href="assert_8h.html" target="_top" xlink:title="POSIX.1&#45;2008 compliant version of the assert macro. ">
<polygon fill="none" stroke="#000000" points="73,-168.5 73,-187.5 125,-187.5 125,-168.5 73,-168.5"/>
<text text-anchor="middle" x="99" y="-175.5" font-family="Helvetica,sans-Serif" font-size="10.00" fill="#000000">assert.h</text>
</a>
</g>
</g>
<!-- Node0&#45;&gt;Node2 -->
<g id="edge2" class="edge">
<title>Node0&#45;&gt;Node2</title>
<path fill="none" stroke="#191970" d="M72.6517,-224.2977C77.4088,-215.9388 83.3498,-205.4997 88.3857,-196.6509"/>
<polygon fill="#191970" stroke="#191970" points="91.4917,-198.2692 93.3961,-187.8469 85.4079,-194.8069 91.4917,-198.2692"/>
</g>
<!-- Node3 -->
<g id="node4" class="node">
<title>Node3</title>
<g id="a_node4"><a xlink:href="panic_8h.html" target="_top" xlink:title="Crash handling header. ">
<polygon fill="none" stroke="#000000" points="75,-112.5 75,-131.5 123,-131.5 123,-112.5 75,-112.5"/>
<text text-anchor="middle" x="99" y="-119.5" font-family="Helvetica,sans-Serif" font-size="10.00" fill="#000000">panic.h</text>
</a>
</g>
</g>
<!-- Node2&#45;&gt;Node3 -->
<g id="edge3" class="edge">
<title>Node2&#45;&gt;Node3</title>
<path fill="none" stroke="#191970" d="M99,-168.2455C99,-160.9382 99,-150.6944 99,-141.7046"/>
<polygon fill="#191970" stroke="#191970" points="102.5001,-141.6426 99,-131.6427 95.5001,-141.6427 102.5001,-141.6426"/>
</g>
<!-- Node4 -->
<g id="node5" class="node">
<title>Node4</title>
<g id="a_node5"><a xlink:href="kernel__defines_8h.html" target="_top" xlink:title="Common macros and compiler attributes/pragmas configuration. ">
<polygon fill="none" stroke="#000000" points="55,-56.5 55,-75.5 143,-75.5 143,-56.5 55,-56.5"/>
<text text-anchor="middle" x="99" y="-63.5" font-family="Helvetica,sans-Serif" font-size="10.00" fill="#000000">kernel_defines.h</text>
</a>
</g>
</g>
<!-- Node3&#45;&gt;Node4 -->
<g id="edge4" class="edge">
<title>Node3&#45;&gt;Node4</title>
<path fill="none" stroke="#191970" d="M99,-112.2455C99,-104.9382 99,-94.6944 99,-85.7046"/>
<polygon fill="#191970" stroke="#191970" points="102.5001,-85.6426 99,-75.6427 95.5001,-85.6427 102.5001,-85.6426"/>
</g>
<!-- Node5 -->
<g id="node6" class="node">
<title>Node5</title>
<polygon fill="none" stroke="#bfbfbf" points="73,-.5 73,-19.5 125,-19.5 125,-.5 73,-.5"/>
<text text-anchor="middle" x="99" y="-7.5" font-family="Helvetica,sans-Serif" font-size="10.00" fill="#000000">stddef.h</text>
</g>
<!-- Node4&#45;&gt;Node5 -->
<g id="edge5" class="edge">
<title>Node4&#45;&gt;Node5</title>
<path fill="none" stroke="#191970" d="M99,-56.2455C99,-48.9382 99,-38.6944 99,-29.7046"/>
<polygon fill="#191970" stroke="#191970" points="102.5001,-29.6426 99,-19.6427 95.5001,-29.6427 102.5001,-29.6426"/>
</g>
</g>
</svg>
