<?xml version="1.0" encoding="UTF-8" standalone="no"?>
<!DOCTYPE svg PUBLIC "-//W3C//DTD SVG 1.1//EN"
 "http://www.w3.org/Graphics/SVG/1.1/DTD/svg11.dtd">
<!-- Generated by graphviz version 2.40.1 (20161225.0304)
 -->
<!-- Title: sys/include/ztimer/convert.h Pages: 1 -->
<svg width="358pt" height="106pt"
 viewBox="0.00 0.00 358.00 106.00" xmlns="http://www.w3.org/2000/svg" xmlns:xlink="http://www.w3.org/1999/xlink">
<g id="graph0" class="graph" transform="scale(1 1) rotate(0) translate(4 102)">
<title>sys/include/ztimer/convert.h</title>
<!-- Node10 -->
<g id="node1" class="node">
<title>Node10</title>
<polygon fill="#bfbfbf" stroke="#000000" points="136,-67.5 136,-97.5 232,-97.5 232,-67.5 136,-67.5"/>
<text text-anchor="start" x="144" y="-85.5" font-family="Helvetica,sans-Serif" font-size="10.00" fill="#000000">sys/include/ztimer</text>
<text text-anchor="middle" x="184" y="-74.5" font-family="Helvetica,sans-Serif" font-size="10.00" fill="#000000">/convert.h</text>
</g>
<!-- Node11 -->
<g id="node2" class="node">
<title>Node11</title>
<g id="a_node2"><a xlink:href="convert__frac_8h.html" target="_top" xlink:title="ztimer_convert_frac interface definitions ">
<polygon fill="none" stroke="#000000" points="0,-.5 0,-30.5 96,-30.5 96,-.5 0,-.5"/>
<text text-anchor="start" x="8" y="-18.5" font-family="Helvetica,sans-Serif" font-size="10.00" fill="#000000">sys/include/ztimer</text>
<text text-anchor="middle" x="48" y="-7.5" font-family="Helvetica,sans-Serif" font-size="10.00" fill="#000000">/convert_frac.h</text>
</a>
</g>
</g>
<!-- Node10&#45;&gt;Node11 -->
<g id="edge1" class="edge">
<title>Node10&#45;&gt;Node11</title>
<path fill="none" stroke="#191970" d="M144.2417,-62.9132C123.3989,-52.645 98.2513,-40.2561 78.8897,-30.7177"/>
<polygon fill="#191970" stroke="#191970" points="142.9617,-66.1842 153.4789,-67.4639 146.0552,-59.9049 142.9617,-66.1842"/>
</g>
<!-- Node12 -->
<g id="node3" class="node">
<title>Node12</title>
<g id="a_node3"><a xlink:href="convert__muldiv64_8h.html" target="_top" xlink:title="ztimer frequency conversion module API ">
<polygon fill="none" stroke="#000000" points="132,-.5 132,-30.5 236,-30.5 236,-.5 132,-.5"/>
<text text-anchor="start" x="140" y="-18.5" font-family="Helvetica,sans-Serif" font-size="10.00" fill="#000000">sys/include/ztimer</text>
<text text-anchor="middle" x="184" y="-7.5" font-family="Helvetica,sans-Serif" font-size="10.00" fill="#000000">/convert_muldiv64.h</text>
</a>
</g>
</g>
<!-- Node10&#45;&gt;Node12 -->
<g id="edge3" class="edge">
<title>Node10&#45;&gt;Node12</title>
<path fill="none" stroke="#191970" d="M184,-57.0249C184,-48.128 184,-38.4287 184,-30.6432"/>
<polygon fill="#191970" stroke="#191970" points="180.5001,-57.2966 184,-67.2967 187.5001,-57.2967 180.5001,-57.2966"/>
</g>
<!-- Node13 -->
<g id="node4" class="node">
<title>Node13</title>
<g id="a_node4"><a xlink:href="convert__shift_8h.html" target="_top" xlink:title="ztimer_convert_shift interface definitions ">
<polygon fill="none" stroke="#000000" points="254,-.5 254,-30.5 350,-30.5 350,-.5 254,-.5"/>
<text text-anchor="start" x="262" y="-18.5" font-family="Helvetica,sans-Serif" font-size="10.00" fill="#000000">sys/include/ztimer</text>
<text text-anchor="middle" x="302" y="-7.5" font-family="Helvetica,sans-Serif" font-size="10.00" fill="#000000">/convert_shift.h</text>
</a>
</g>
</g>
<!-- Node10&#45;&gt;Node13 -->
<g id="edge4" class="edge">
<title>Node10&#45;&gt;Node13</title>
<path fill="none" stroke="#191970" d="M219.4773,-62.3561C237.365,-52.1995 258.7023,-40.0843 275.1986,-30.7177"/>
<polygon fill="#191970" stroke="#191970" points="217.4494,-59.4827 210.4815,-67.4639 220.9057,-65.5699 217.4494,-59.4827"/>
</g>
<!-- Node11&#45;&gt;Node11 -->
<g id="edge2" class="edge">
<title>Node11&#45;&gt;Node11</title>
<path fill="none" stroke="#191970" d="M105.944,-25.1474C110.9041,-23.0926 114,-19.8768 114,-15.5 114,-8.668 106.4563,-4.6648 96.0542,-3.4906"/>
<polygon fill="#191970" stroke="#191970" points="104.9676,-21.7821 96.0542,-27.5094 106.5938,-28.5906 104.9676,-21.7821"/>
</g>
</g>
</svg>
