<?xml version="1.0" encoding="UTF-8" standalone="no"?>
<!DOCTYPE svg PUBLIC "-//W3C//DTD SVG 1.1//EN"
 "http://www.w3.org/Graphics/SVG/1.1/DTD/svg11.dtd">
<!-- Generated by graphviz version 2.43.0 (0)
 -->
<!-- Title: sys/include/ztimer/convert.h Pages: 1 -->
<svg width="390pt" height="106pt"
 viewBox="0.00 0.00 390.00 106.00" xmlns="http://www.w3.org/2000/svg" xmlns:xlink="http://www.w3.org/1999/xlink">
<g id="graph0" class="graph" transform="scale(1 1) rotate(0) translate(4 102)">
<title>sys/include/ztimer/convert.h</title>
<!-- Node1 -->
<g id="node1" class="node">
<title>Node1</title>
<g id="a_node1"><a xlink:title="ztimer frequency conversion base module">
<polygon fill="#bfbfbf" stroke="black" points="147,-67.5 147,-97.5 253,-97.5 253,-67.5 147,-67.5"/>
<text text-anchor="start" x="155" y="-85.5" font-family="Helvetica,sans-Serif" font-size="10.00">sys/include/ztimer</text>
<text text-anchor="middle" x="200" y="-74.5" font-family="Helvetica,sans-Serif" font-size="10.00">/convert.h</text>
</a>
</g>
</g>
<!-- Node2 -->
<g id="node2" class="node">
<title>Node2</title>
<g id="a_node2"><a xlink:href="convert__frac_8h.html" target="_top" xlink:title="ztimer_convert_frac interface definitions">
<polygon fill="none" stroke="black" points="0,-0.5 0,-30.5 106,-30.5 106,-0.5 0,-0.5"/>
<text text-anchor="start" x="8" y="-18.5" font-family="Helvetica,sans-Serif" font-size="10.00">sys/include/ztimer</text>
<text text-anchor="middle" x="53" y="-7.5" font-family="Helvetica,sans-Serif" font-size="10.00">/convert_frac.h</text>
</a>
</g>
</g>
<!-- Node1&#45;&gt;Node2 -->
<g id="edge1" class="edge">
<title>Node1&#45;&gt;Node2</title>
<path fill="none" stroke="midnightblue" d="M158.77,-63.27C135.36,-52.92 106.49,-40.15 84.83,-30.58"/>
<polygon fill="midnightblue" stroke="midnightblue" points="157.54,-66.55 168.1,-67.4 160.37,-60.15 157.54,-66.55"/>
</g>
<!-- Node3 -->
<g id="node3" class="node">
<title>Node3</title>
<g id="a_node3"><a xlink:href="convert__muldiv64_8h.html" target="_top" xlink:title="ztimer frequency conversion module API">
<polygon fill="none" stroke="black" points="142,-0.5 142,-30.5 258,-30.5 258,-0.5 142,-0.5"/>
<text text-anchor="start" x="150" y="-18.5" font-family="Helvetica,sans-Serif" font-size="10.00">sys/include/ztimer</text>
<text text-anchor="middle" x="200" y="-7.5" font-family="Helvetica,sans-Serif" font-size="10.00">/convert_muldiv64.h</text>
</a>
</g>
</g>
<!-- Node1&#45;&gt;Node3 -->
<g id="edge3" class="edge">
<title>Node1&#45;&gt;Node3</title>
<path fill="none" stroke="midnightblue" d="M200,-57.11C200,-48.15 200,-38.32 200,-30.58"/>
<polygon fill="midnightblue" stroke="midnightblue" points="196.5,-57.4 200,-67.4 203.5,-57.4 196.5,-57.4"/>
</g>
<!-- Node4 -->
<g id="node4" class="node">
<title>Node4</title>
<g id="a_node4"><a xlink:href="convert__shift_8h.html" target="_top" xlink:title="ztimer_convert_shift interface definitions">
<polygon fill="none" stroke="black" points="276,-0.5 276,-30.5 382,-30.5 382,-0.5 276,-0.5"/>
<text text-anchor="start" x="284" y="-18.5" font-family="Helvetica,sans-Serif" font-size="10.00">sys/include/ztimer</text>
<text text-anchor="middle" x="329" y="-7.5" font-family="Helvetica,sans-Serif" font-size="10.00">/convert_shift.h</text>
</a>
</g>
</g>
<!-- Node1&#45;&gt;Node4 -->
<g id="edge4" class="edge">
<title>Node1&#45;&gt;Node4</title>
<path fill="none" stroke="midnightblue" d="M237.01,-62.85C257.4,-52.58 282.31,-40.03 301.06,-30.58"/>
<polygon fill="midnightblue" stroke="midnightblue" points="235.35,-59.77 227.99,-67.4 238.5,-66.02 235.35,-59.77"/>
</g>
<!-- Node2&#45;&gt;Node2 -->
<g id="edge2" class="edge">
<title>Node2&#45;&gt;Node2</title>
<path fill="none" stroke="midnightblue" d="M116.08,-24.85C120.98,-22.79 124,-19.67 124,-15.5 124,-8.99 116.63,-5.05 106.26,-3.68"/>
<polygon fill="midnightblue" stroke="midnightblue" points="115.1,-21.49 106.26,-27.32 116.81,-28.27 115.1,-21.49"/>
</g>
</g>
</svg>
