<?xml version="1.0" encoding="UTF-8" standalone="no"?>
<!DOCTYPE svg PUBLIC "-//W3C//DTD SVG 1.1//EN"
 "http://www.w3.org/Graphics/SVG/1.1/DTD/svg11.dtd">
<!-- Generated by graphviz version 2.43.0 (0)
 -->
<!-- Title: core/include/thread.h Pages: 1 -->
<svg width="421pt" height="308pt"
 viewBox="0.00 0.00 421.00 308.00" xmlns="http://www.w3.org/2000/svg" xmlns:xlink="http://www.w3.org/1999/xlink">
<g id="graph0" class="graph" transform="scale(1 1) rotate(0) translate(4 304)">
<title>core/include/thread.h</title>
<!-- Node1 -->
<g id="node1" class="node">
<title>Node1</title>
<g id="a_node1"><a xlink:title="Threading API.">
<polygon fill="#bfbfbf" stroke="black" points="176,-280.5 176,-299.5 295,-299.5 295,-280.5 176,-280.5"/>
<text text-anchor="middle" x="235.5" y="-287.5" font-family="Helvetica,sans-Serif" font-size="10.00">core/include/thread.h</text>
</a>
</g>
</g>
<!-- Node2 -->
<g id="node2" class="node">
<title>Node2</title>
<g id="a_node2"><a xlink:href="clist_8h.html" target="_top" xlink:title="Circular linked list.">
<polygon fill="none" stroke="black" points="5.5,-56.5 5.5,-75.5 51.5,-75.5 51.5,-56.5 5.5,-56.5"/>
<text text-anchor="middle" x="28.5" y="-63.5" font-family="Helvetica,sans-Serif" font-size="10.00">clist.h</text>
</a>
</g>
</g>
<!-- Node1&#45;&gt;Node2 -->
<g id="edge1" class="edge">
<title>Node1&#45;&gt;Node2</title>
<path fill="none" stroke="midnightblue" d="M227.39,-280.3C196.35,-247.01 84.84,-127.42 43.8,-83.41"/>
<polygon fill="midnightblue" stroke="midnightblue" points="46.16,-80.81 36.78,-75.88 41.04,-85.58 46.16,-80.81"/>
</g>
<!-- Node5 -->
<g id="node5" class="node">
<title>Node5</title>
<g id="a_node5"><a xlink:href="cib_8h.html" target="_top" xlink:title="Circular integer buffer interface.">
<polygon fill="none" stroke="black" points="215.5,-224.5 215.5,-243.5 255.5,-243.5 255.5,-224.5 215.5,-224.5"/>
<text text-anchor="middle" x="235.5" y="-231.5" font-family="Helvetica,sans-Serif" font-size="10.00">cib.h</text>
</a>
</g>
</g>
<!-- Node1&#45;&gt;Node5 -->
<g id="edge4" class="edge">
<title>Node1&#45;&gt;Node5</title>
<path fill="none" stroke="midnightblue" d="M235.5,-280.08C235.5,-273.01 235.5,-262.86 235.5,-253.99"/>
<polygon fill="midnightblue" stroke="midnightblue" points="239,-253.75 235.5,-243.75 232,-253.75 239,-253.75"/>
</g>
<!-- Node10 -->
<g id="node10" class="node">
<title>Node10</title>
<g id="a_node10"><a xlink:href="msg_8h.html" target="_top" xlink:title="Messaging API for inter process communication.">
<polygon fill="none" stroke="black" points="299,-168.5 299,-187.5 346,-187.5 346,-168.5 299,-168.5"/>
<text text-anchor="middle" x="322.5" y="-175.5" font-family="Helvetica,sans-Serif" font-size="10.00">msg.h</text>
</a>
</g>
</g>
<!-- Node1&#45;&gt;Node10 -->
<g id="edge10" class="edge">
<title>Node1&#45;&gt;Node10</title>
<path fill="none" stroke="midnightblue" d="M242.33,-280.37C256.75,-262.14 290.53,-219.43 309.31,-195.68"/>
<polygon fill="midnightblue" stroke="midnightblue" points="312.25,-197.61 315.7,-187.59 306.76,-193.26 312.25,-197.61"/>
</g>
<!-- Node12 -->
<g id="node12" class="node">
<title>Node12</title>
<g id="a_node12"><a xlink:href="sched_8h.html" target="_top" xlink:title="Scheduler API definition.">
<polygon fill="none" stroke="black" points="153.5,-112.5 153.5,-131.5 207.5,-131.5 207.5,-112.5 153.5,-112.5"/>
<text text-anchor="middle" x="180.5" y="-119.5" font-family="Helvetica,sans-Serif" font-size="10.00">sched.h</text>
</a>
</g>
</g>
<!-- Node1&#45;&gt;Node12 -->
<g id="edge20" class="edge">
<title>Node1&#45;&gt;Node12</title>
<path fill="none" stroke="midnightblue" d="M228.47,-280.23C221.84,-271.53 212.11,-257.57 206.5,-244 192.18,-209.37 185.31,-165.78 182.38,-141.5"/>
<polygon fill="midnightblue" stroke="midnightblue" points="185.85,-141.08 181.27,-131.53 178.9,-141.85 185.85,-141.08"/>
</g>
<!-- Node15 -->
<g id="node15" class="node">
<title>Node15</title>
<g id="a_node15"><a xlink:title=" ">
<polygon fill="none" stroke="#bfbfbf" points="311.5,-224.5 311.5,-243.5 379.5,-243.5 379.5,-224.5 311.5,-224.5"/>
<text text-anchor="middle" x="345.5" y="-231.5" font-family="Helvetica,sans-Serif" font-size="10.00">cpu_conf.h</text>
</a>
</g>
</g>
<!-- Node1&#45;&gt;Node15 -->
<g id="edge19" class="edge">
<title>Node1&#45;&gt;Node15</title>
<path fill="none" stroke="midnightblue" d="M253.17,-280.32C270.89,-271.62 298.4,-258.12 318.79,-248.11"/>
<polygon fill="midnightblue" stroke="midnightblue" points="320.44,-251.2 327.87,-243.65 317.35,-244.92 320.44,-251.2"/>
</g>
<!-- Node3 -->
<g id="node3" class="node">
<title>Node3</title>
<g id="a_node3"><a xlink:title=" ">
<polygon fill="none" stroke="#bfbfbf" points="59.5,-0.5 59.5,-19.5 115.5,-19.5 115.5,-0.5 59.5,-0.5"/>
<text text-anchor="middle" x="87.5" y="-7.5" font-family="Helvetica,sans-Serif" font-size="10.00">stddef.h</text>
</a>
</g>
</g>
<!-- Node2&#45;&gt;Node3 -->
<g id="edge2" class="edge">
<title>Node2&#45;&gt;Node3</title>
<path fill="none" stroke="midnightblue" d="M37.98,-56.32C46.7,-48.34 59.84,-36.31 70.4,-26.65"/>
<polygon fill="midnightblue" stroke="midnightblue" points="72.83,-29.17 77.85,-19.83 68.11,-24 72.83,-29.17"/>
</g>
<!-- Node4 -->
<g id="node4" class="node">
<title>Node4</title>
<g id="a_node4"><a xlink:href="list_8h.html" target="_top" xlink:title="Intrusive linked list.">
<polygon fill="none" stroke="black" points="0,-0.5 0,-19.5 41,-19.5 41,-0.5 0,-0.5"/>
<text text-anchor="middle" x="20.5" y="-7.5" font-family="Helvetica,sans-Serif" font-size="10.00">list.h</text>
</a>
</g>
</g>
<!-- Node2&#45;&gt;Node4 -->
<g id="edge3" class="edge">
<title>Node2&#45;&gt;Node4</title>
<path fill="none" stroke="midnightblue" d="M27.18,-56.08C26.12,-48.93 24.59,-38.64 23.27,-29.69"/>
<polygon fill="midnightblue" stroke="midnightblue" points="26.72,-29.13 21.8,-19.75 19.8,-30.16 26.72,-29.13"/>
</g>
<!-- Node6 -->
<g id="node6" class="node">
<title>Node6</title>
<g id="a_node6"><a xlink:href="assert_8h.html" target="_top" xlink:title="POSIX.1&#45;2008 compliant version of the assert macro.">
<polygon fill="none" stroke="black" points="218.5,-168.5 218.5,-187.5 274.5,-187.5 274.5,-168.5 218.5,-168.5"/>
<text text-anchor="middle" x="246.5" y="-175.5" font-family="Helvetica,sans-Serif" font-size="10.00">assert.h</text>
</a>
</g>
</g>
<!-- Node5&#45;&gt;Node6 -->
<g id="edge5" class="edge">
<title>Node5&#45;&gt;Node6</title>
<path fill="none" stroke="midnightblue" d="M237.32,-224.08C238.77,-216.93 240.87,-206.64 242.69,-197.69"/>
<polygon fill="midnightblue" stroke="midnightblue" points="246.15,-198.25 244.72,-187.75 239.29,-196.85 246.15,-198.25"/>
</g>
<!-- Node7 -->
<g id="node7" class="node">
<title>Node7</title>
<g id="a_node7"><a xlink:href="panic_8h.html" target="_top" xlink:title="Crash handling header.">
<polygon fill="none" stroke="black" points="225.5,-112.5 225.5,-131.5 277.5,-131.5 277.5,-112.5 225.5,-112.5"/>
<text text-anchor="middle" x="251.5" y="-119.5" font-family="Helvetica,sans-Serif" font-size="10.00">panic.h</text>
</a>
</g>
</g>
<!-- Node6&#45;&gt;Node7 -->
<g id="edge6" class="edge">
<title>Node6&#45;&gt;Node7</title>
<path fill="none" stroke="midnightblue" d="M247.33,-168.08C247.98,-161.01 248.92,-150.86 249.74,-141.99"/>
<polygon fill="midnightblue" stroke="midnightblue" points="253.25,-142.03 250.69,-131.75 246.28,-141.39 253.25,-142.03"/>
</g>
<!-- Node8 -->
<g id="node8" class="node">
<title>Node8</title>
<g id="a_node8"><a xlink:href="kernel__defines_8h.html" target="_top" xlink:title="Common macros and compiler attributes/pragmas configuration.">
<polygon fill="none" stroke="black" points="300,-56.5 300,-75.5 397,-75.5 397,-56.5 300,-56.5"/>
<text text-anchor="middle" x="348.5" y="-63.5" font-family="Helvetica,sans-Serif" font-size="10.00">kernel_defines.h</text>
</a>
</g>
</g>
<!-- Node7&#45;&gt;Node8 -->
<g id="edge7" class="edge">
<title>Node7&#45;&gt;Node8</title>
<path fill="none" stroke="midnightblue" d="M267.08,-112.32C282.5,-103.74 306.31,-90.49 324.21,-80.52"/>
<polygon fill="midnightblue" stroke="midnightblue" points="325.92,-83.58 332.95,-75.65 322.51,-77.46 325.92,-83.58"/>
</g>
<!-- Node8&#45;&gt;Node3 -->
<g id="edge8" class="edge">
<title>Node8&#45;&gt;Node3</title>
<path fill="none" stroke="midnightblue" d="M307.14,-56.44C257.33,-46.14 174.31,-28.96 125.87,-18.94"/>
<polygon fill="midnightblue" stroke="midnightblue" points="126.29,-15.45 115.79,-16.85 124.88,-22.31 126.29,-15.45"/>
</g>
<!-- Node9 -->
<g id="node9" class="node">
<title>Node9</title>
<g id="a_node9"><a xlink:title=" ">
<polygon fill="none" stroke="#bfbfbf" points="360,-0.5 360,-19.5 413,-19.5 413,-0.5 360,-0.5"/>
<text text-anchor="middle" x="386.5" y="-7.5" font-family="Helvetica,sans-Serif" font-size="10.00">stdint.h</text>
</a>
</g>
</g>
<!-- Node8&#45;&gt;Node9 -->
<g id="edge9" class="edge">
<title>Node8&#45;&gt;Node9</title>
<path fill="none" stroke="midnightblue" d="M354.77,-56.08C360.14,-48.46 368.02,-37.26 374.58,-27.94"/>
<polygon fill="midnightblue" stroke="midnightblue" points="377.45,-29.94 380.34,-19.75 371.72,-25.91 377.45,-29.94"/>
</g>
<!-- Node10&#45;&gt;Node9 -->
<g id="edge11" class="edge">
<title>Node10&#45;&gt;Node9</title>
<path fill="none" stroke="midnightblue" d="M334.05,-168.3C353.83,-152.54 393.35,-117.05 406.5,-76 411.61,-60.05 404.92,-41.82 397.93,-28.73"/>
<polygon fill="midnightblue" stroke="midnightblue" points="400.8,-26.71 392.72,-19.85 394.76,-30.25 400.8,-26.71"/>
</g>
<!-- Node11 -->
<g id="node11" class="node">
<title>Node11</title>
<g id="a_node11"><a xlink:title=" ">
<polygon fill="none" stroke="#bfbfbf" points="295.5,-112.5 295.5,-131.5 357.5,-131.5 357.5,-112.5 295.5,-112.5"/>
<text text-anchor="middle" x="326.5" y="-119.5" font-family="Helvetica,sans-Serif" font-size="10.00">stdbool.h</text>
</a>
</g>
</g>
<!-- Node10&#45;&gt;Node11 -->
<g id="edge12" class="edge">
<title>Node10&#45;&gt;Node11</title>
<path fill="none" stroke="midnightblue" d="M323.16,-168.08C323.68,-161.01 324.44,-150.86 325.09,-141.99"/>
<polygon fill="midnightblue" stroke="midnightblue" points="328.6,-141.98 325.85,-131.75 321.62,-141.47 328.6,-141.98"/>
</g>
<!-- Node10&#45;&gt;Node12 -->
<g id="edge13" class="edge">
<title>Node10&#45;&gt;Node12</title>
<path fill="none" stroke="midnightblue" d="M300,-168.44C276.42,-159.48 239.18,-145.31 212.54,-135.18"/>
<polygon fill="midnightblue" stroke="midnightblue" points="213.49,-131.8 202.9,-131.52 211,-138.34 213.49,-131.8"/>
</g>
<!-- Node12&#45;&gt;Node2 -->
<g id="edge18" class="edge">
<title>Node12&#45;&gt;Node2</title>
<path fill="none" stroke="midnightblue" d="M156.42,-112.44C130.81,-103.35 90.13,-88.9 61.54,-78.74"/>
<polygon fill="midnightblue" stroke="midnightblue" points="62.57,-75.39 51.97,-75.34 60.22,-81.98 62.57,-75.39"/>
</g>
<!-- Node12&#45;&gt;Node3 -->
<g id="edge14" class="edge">
<title>Node12&#45;&gt;Node3</title>
<path fill="none" stroke="midnightblue" d="M153.37,-113.07C134.97,-106.25 111.68,-94.53 98.5,-76 89.07,-62.74 86.72,-44.16 86.5,-30.26"/>
<polygon fill="midnightblue" stroke="midnightblue" points="90,-29.97 86.7,-19.9 83,-29.83 90,-29.97"/>
</g>
<!-- Node12&#45;&gt;Node8 -->
<g id="edge16" class="edge">
<title>Node12&#45;&gt;Node8</title>
<path fill="none" stroke="midnightblue" d="M207.12,-112.44C235.51,-103.32 280.64,-88.81 312.25,-78.65"/>
<polygon fill="midnightblue" stroke="midnightblue" points="313.56,-81.91 322,-75.52 311.41,-75.24 313.56,-81.91"/>
</g>
<!-- Node13 -->
<g id="node13" class="node">
<title>Node13</title>
<g id="a_node13"><a xlink:href="inttypes_8h.html" target="_top" xlink:title="Adds include for missing inttype definitions.">
<polygon fill="none" stroke="black" points="108,-56.5 108,-75.5 173,-75.5 173,-56.5 108,-56.5"/>
<text text-anchor="middle" x="140.5" y="-63.5" font-family="Helvetica,sans-Serif" font-size="10.00">inttypes.h</text>
</a>
</g>
</g>
<!-- Node12&#45;&gt;Node13 -->
<g id="edge15" class="edge">
<title>Node12&#45;&gt;Node13</title>
<path fill="none" stroke="midnightblue" d="M173.89,-112.08C168.24,-104.46 159.96,-93.26 153.05,-83.94"/>
<polygon fill="midnightblue" stroke="midnightblue" points="155.75,-81.7 146.98,-75.75 150.12,-85.87 155.75,-81.7"/>
</g>
<!-- Node14 -->
<g id="node14" class="node">
<title>Node14</title>
<g id="a_node14"><a xlink:href="native__sched_8h.html" target="_top" xlink:title="Add definitions required on the native board.">
<polygon fill="none" stroke="black" points="191.5,-56.5 191.5,-75.5 281.5,-75.5 281.5,-56.5 191.5,-56.5"/>
<text text-anchor="middle" x="236.5" y="-63.5" font-family="Helvetica,sans-Serif" font-size="10.00">native_sched.h</text>
</a>
</g>
</g>
<!-- Node12&#45;&gt;Node14 -->
<g id="edge17" class="edge">
<title>Node12&#45;&gt;Node14</title>
<path fill="none" stroke="midnightblue" d="M189.5,-112.32C197.69,-104.42 210.01,-92.55 219.97,-82.94"/>
<polygon fill="midnightblue" stroke="midnightblue" points="222.57,-85.29 227.34,-75.83 217.71,-80.26 222.57,-85.29"/>
</g>
</g>
</svg>
