<?xml version="1.0" encoding="UTF-8" standalone="no"?>
<!DOCTYPE svg PUBLIC "-//W3C//DTD SVG 1.1//EN"
 "http://www.w3.org/Graphics/SVG/1.1/DTD/svg11.dtd">
<!-- Generated by graphviz version 2.40.1 (20161225.0304)
 -->
<!-- Title: core/include/thread.h Pages: 1 -->
<svg width="520pt" height="308pt"
 viewBox="0.00 0.00 520.00 308.00" xmlns="http://www.w3.org/2000/svg" xmlns:xlink="http://www.w3.org/1999/xlink">
<g id="graph0" class="graph" transform="scale(1 1) rotate(0) translate(4 304)">
<title>core/include/thread.h</title>
<!-- Node0 -->
<g id="node1" class="node">
<title>Node0</title>
<polygon fill="#bfbfbf" stroke="#000000" points="176,-280.5 176,-299.5 283,-299.5 283,-280.5 176,-280.5"/>
<text text-anchor="middle" x="229.5" y="-287.5" font-family="Helvetica,sans-Serif" font-size="10.00" fill="#000000">core/include/thread.h</text>
</g>
<!-- Node1 -->
<g id="node2" class="node">
<title>Node1</title>
<g id="a_node2"><a xlink:href="clist_8h.html" target="_top" xlink:title="Circular linked list. ">
<polygon fill="none" stroke="#000000" points="0,-56.5 0,-75.5 43,-75.5 43,-56.5 0,-56.5"/>
<text text-anchor="middle" x="21.5" y="-63.5" font-family="Helvetica,sans-Serif" font-size="10.00" fill="#000000">clist.h</text>
</a>
</g>
</g>
<!-- Node0&#45;&gt;Node1 -->
<g id="edge1" class="edge">
<title>Node0&#45;&gt;Node1</title>
<path fill="none" stroke="#191970" d="M220.5625,-280.375C188.4266,-245.7671 78.4719,-127.3544 37.2643,-82.9769"/>
<polygon fill="#191970" stroke="#191970" points="39.7735,-80.5355 30.4042,-75.5891 34.644,-85.2987 39.7735,-80.5355"/>
</g>
<!-- Node4 -->
<g id="node5" class="node">
<title>Node4</title>
<g id="a_node5"><a xlink:href="cib_8h.html" target="_top" xlink:title="Circular integer buffer interface. ">
<polygon fill="none" stroke="#000000" points="210.5,-224.5 210.5,-243.5 248.5,-243.5 248.5,-224.5 210.5,-224.5"/>
<text text-anchor="middle" x="229.5" y="-231.5" font-family="Helvetica,sans-Serif" font-size="10.00" fill="#000000">cib.h</text>
</a>
</g>
</g>
<!-- Node0&#45;&gt;Node4 -->
<g id="edge4" class="edge">
<title>Node0&#45;&gt;Node4</title>
<path fill="none" stroke="#191970" d="M229.5,-280.2455C229.5,-272.9382 229.5,-262.6944 229.5,-253.7046"/>
<polygon fill="#191970" stroke="#191970" points="233.0001,-253.6426 229.5,-243.6427 226.0001,-253.6427 233.0001,-253.6426"/>
</g>
<!-- Node8 -->
<g id="node9" class="node">
<title>Node8</title>
<g id="a_node9"><a xlink:href="msg_8h.html" target="_top" xlink:title="Messaging API for inter process communication. ">
<polygon fill="none" stroke="#000000" points="368.5,-112.5 368.5,-131.5 412.5,-131.5 412.5,-112.5 368.5,-112.5"/>
<text text-anchor="middle" x="390.5" y="-119.5" font-family="Helvetica,sans-Serif" font-size="10.00" fill="#000000">msg.h</text>
</a>
</g>
</g>
<!-- Node0&#45;&gt;Node8 -->
<g id="edge9" class="edge">
<title>Node0&#45;&gt;Node8</title>
<path fill="none" stroke="#191970" d="M238.6174,-280.4862C264.7288,-253.2396 340.0752,-174.6172 373.8158,-139.4096"/>
<polygon fill="#191970" stroke="#191970" points="376.6895,-141.4695 381.0816,-131.8279 371.6356,-136.6261 376.6895,-141.4695"/>
</g>
<!-- Node15 -->
<g id="node16" class="node">
<title>Node15</title>
<polygon fill="none" stroke="#bfbfbf" points="312,-224.5 312,-243.5 377,-243.5 377,-224.5 312,-224.5"/>
<text text-anchor="middle" x="344.5" y="-231.5" font-family="Helvetica,sans-Serif" font-size="10.00" fill="#000000">cpu_conf.h</text>
</g>
<!-- Node0&#45;&gt;Node15 -->
<g id="edge18" class="edge">
<title>Node0&#45;&gt;Node15</title>
<path fill="none" stroke="#191970" d="M249.2692,-280.3733C267.6469,-271.4241 295.2312,-257.9917 315.9893,-247.8835"/>
<polygon fill="#191970" stroke="#191970" points="317.5304,-251.026 324.9888,-243.5011 314.4657,-244.7325 317.5304,-251.026"/>
</g>
<!-- Node16 -->
<g id="node17" class="node">
<title>Node16</title>
<g id="a_node17"><a xlink:href="sched_8h.html" target="_top" xlink:title="Scheduler API definition. ">
<polygon fill="none" stroke="#000000" points="119,-112.5 119,-131.5 170,-131.5 170,-112.5 119,-112.5"/>
<text text-anchor="middle" x="144.5" y="-119.5" font-family="Helvetica,sans-Serif" font-size="10.00" fill="#000000">sched.h</text>
</a>
</g>
</g>
<!-- Node0&#45;&gt;Node16 -->
<g id="edge19" class="edge">
<title>Node0&#45;&gt;Node16</title>
<path fill="none" stroke="#191970" d="M223.1739,-280.3112C217.2794,-271.1248 208.3888,-256.8554 201.5,-244 182.4547,-208.4593 163.1989,-165.4304 152.6614,-141.1361"/>
<polygon fill="#191970" stroke="#191970" points="155.7537,-139.4677 148.5849,-131.6665 149.3242,-142.2355 155.7537,-139.4677"/>
</g>
<!-- Node2 -->
<g id="node3" class="node">
<title>Node2</title>
<polygon fill="none" stroke="#bfbfbf" points="110.5,-.5 110.5,-19.5 162.5,-19.5 162.5,-.5 110.5,-.5"/>
<text text-anchor="middle" x="136.5" y="-7.5" font-family="Helvetica,sans-Serif" font-size="10.00" fill="#000000">stddef.h</text>
</g>
<!-- Node1&#45;&gt;Node2 -->
<g id="edge2" class="edge">
<title>Node1&#45;&gt;Node2</title>
<path fill="none" stroke="#191970" d="M41.2692,-56.3733C59.6469,-47.4241 87.2312,-33.9917 107.9893,-23.8835"/>
<polygon fill="#191970" stroke="#191970" points="109.5304,-27.026 116.9888,-19.5011 106.4657,-20.7325 109.5304,-27.026"/>
</g>
<!-- Node3 -->
<g id="node4" class="node">
<title>Node3</title>
<g id="a_node4"><a xlink:href="list_8h.html" target="_top" xlink:title="Intrusive linked list. ">
<polygon fill="none" stroke="#000000" points="2.5,-.5 2.5,-19.5 40.5,-19.5 40.5,-.5 2.5,-.5"/>
<text text-anchor="middle" x="21.5" y="-7.5" font-family="Helvetica,sans-Serif" font-size="10.00" fill="#000000">list.h</text>
</a>
</g>
</g>
<!-- Node1&#45;&gt;Node3 -->
<g id="edge3" class="edge">
<title>Node1&#45;&gt;Node3</title>
<path fill="none" stroke="#191970" d="M21.5,-56.2455C21.5,-48.9382 21.5,-38.6944 21.5,-29.7046"/>
<polygon fill="#191970" stroke="#191970" points="25.0001,-29.6426 21.5,-19.6427 18.0001,-29.6427 25.0001,-29.6426"/>
</g>
<!-- Node5 -->
<g id="node6" class="node">
<title>Node5</title>
<g id="a_node6"><a xlink:href="assert_8h.html" target="_top" xlink:title="POSIX.1&#45;2008 compliant version of the assert macro. ">
<polygon fill="none" stroke="#000000" points="203.5,-168.5 203.5,-187.5 255.5,-187.5 255.5,-168.5 203.5,-168.5"/>
<text text-anchor="middle" x="229.5" y="-175.5" font-family="Helvetica,sans-Serif" font-size="10.00" fill="#000000">assert.h</text>
</a>
</g>
</g>
<!-- Node4&#45;&gt;Node5 -->
<g id="edge5" class="edge">
<title>Node4&#45;&gt;Node5</title>
<path fill="none" stroke="#191970" d="M229.5,-224.2455C229.5,-216.9382 229.5,-206.6944 229.5,-197.7046"/>
<polygon fill="#191970" stroke="#191970" points="233.0001,-197.6426 229.5,-187.6427 226.0001,-197.6427 233.0001,-197.6426"/>
</g>
<!-- Node6 -->
<g id="node7" class="node">
<title>Node6</title>
<g id="a_node7"><a xlink:href="panic_8h.html" target="_top" xlink:title="Crash handling header. ">
<polygon fill="none" stroke="#000000" points="209.5,-112.5 209.5,-131.5 257.5,-131.5 257.5,-112.5 209.5,-112.5"/>
<text text-anchor="middle" x="233.5" y="-119.5" font-family="Helvetica,sans-Serif" font-size="10.00" fill="#000000">panic.h</text>
</a>
</g>
</g>
<!-- Node5&#45;&gt;Node6 -->
<g id="edge6" class="edge">
<title>Node5&#45;&gt;Node6</title>
<path fill="none" stroke="#191970" d="M230.1967,-168.2455C230.7187,-160.9382 231.4504,-150.6944 232.0925,-141.7046"/>
<polygon fill="#191970" stroke="#191970" points="235.5898,-141.8667 232.8112,-131.6427 228.6076,-141.3679 235.5898,-141.8667"/>
</g>
<!-- Node7 -->
<g id="node8" class="node">
<title>Node7</title>
<g id="a_node8"><a xlink:href="kernel__defines_8h.html" target="_top" xlink:title="Common macros and compiler attributes/pragmas configuration. ">
<polygon fill="none" stroke="#000000" points="201.5,-56.5 201.5,-75.5 289.5,-75.5 289.5,-56.5 201.5,-56.5"/>
<text text-anchor="middle" x="245.5" y="-63.5" font-family="Helvetica,sans-Serif" font-size="10.00" fill="#000000">kernel_defines.h</text>
</a>
</g>
</g>
<!-- Node6&#45;&gt;Node7 -->
<g id="edge7" class="edge">
<title>Node6&#45;&gt;Node7</title>
<path fill="none" stroke="#191970" d="M235.5902,-112.2455C237.1561,-104.9382 239.3512,-94.6944 241.2776,-85.7046"/>
<polygon fill="#191970" stroke="#191970" points="244.7607,-86.1541 243.4337,-75.6427 237.916,-84.6873 244.7607,-86.1541"/>
</g>
<!-- Node7&#45;&gt;Node2 -->
<g id="edge8" class="edge">
<title>Node7&#45;&gt;Node2</title>
<path fill="none" stroke="#191970" d="M226.5136,-56.2455C209.3208,-47.4125 183.7762,-34.2887 164.2868,-24.2758"/>
<polygon fill="#191970" stroke="#191970" points="165.763,-21.0993 155.2688,-19.6427 162.5641,-27.3257 165.763,-21.0993"/>
</g>
<!-- Node9 -->
<g id="node10" class="node">
<title>Node9</title>
<polygon fill="none" stroke="#bfbfbf" points="463,-.5 463,-19.5 512,-19.5 512,-.5 463,-.5"/>
<text text-anchor="middle" x="487.5" y="-7.5" font-family="Helvetica,sans-Serif" font-size="10.00" fill="#000000">stdint.h</text>
</g>
<!-- Node8&#45;&gt;Node9 -->
<g id="edge10" class="edge">
<title>Node8&#45;&gt;Node9</title>
<path fill="none" stroke="#191970" d="M412.8034,-114.7074C430.9818,-107.6296 455.9462,-95.1236 470.5,-76 480.6776,-62.6267 484.7948,-43.777 486.4435,-29.644"/>
<polygon fill="#191970" stroke="#191970" points="489.9448,-29.7764 487.3051,-19.5157 482.97,-29.183 489.9448,-29.7764"/>
</g>
<!-- Node10 -->
<g id="node11" class="node">
<title>Node10</title>
<polygon fill="none" stroke="#bfbfbf" points="405.5,-56.5 405.5,-75.5 461.5,-75.5 461.5,-56.5 405.5,-56.5"/>
<text text-anchor="middle" x="433.5" y="-63.5" font-family="Helvetica,sans-Serif" font-size="10.00" fill="#000000">stdbool.h</text>
</g>
<!-- Node8&#45;&gt;Node10 -->
<g id="edge11" class="edge">
<title>Node8&#45;&gt;Node10</title>
<path fill="none" stroke="#191970" d="M397.99,-112.2455C404.0326,-104.3761 412.6903,-93.101 419.9441,-83.6542"/>
<polygon fill="#191970" stroke="#191970" points="422.7815,-85.7058 426.0958,-75.6427 417.2295,-81.4426 422.7815,-85.7058"/>
</g>
<!-- Node11 -->
<g id="node12" class="node">
<title>Node11</title>
<g id="a_node12"><a xlink:href="kernel__types_8h.html" target="_top" xlink:title="Types used by the kernel. ">
<polygon fill="none" stroke="#000000" points="307.5,-56.5 307.5,-75.5 387.5,-75.5 387.5,-56.5 307.5,-56.5"/>
<text text-anchor="middle" x="347.5" y="-63.5" font-family="Helvetica,sans-Serif" font-size="10.00" fill="#000000">kernel_types.h</text>
</a>
</g>
</g>
<!-- Node8&#45;&gt;Node11 -->
<g id="edge12" class="edge">
<title>Node8&#45;&gt;Node11</title>
<path fill="none" stroke="#191970" d="M383.01,-112.2455C376.9674,-104.3761 368.3097,-93.101 361.0559,-83.6542"/>
<polygon fill="#191970" stroke="#191970" points="363.7705,-81.4426 354.9042,-75.6427 358.2185,-85.7058 363.7705,-81.4426"/>
</g>
<!-- Node11&#45;&gt;Node2 -->
<g id="edge16" class="edge">
<title>Node11&#45;&gt;Node2</title>
<path fill="none" stroke="#191970" d="M311.2278,-56.3733C272.3974,-46.0676 211.1657,-29.8165 172.457,-19.5431"/>
<polygon fill="#191970" stroke="#191970" points="173.2147,-16.1231 162.6515,-16.9407 171.419,-22.8889 173.2147,-16.1231"/>
</g>
<!-- Node11&#45;&gt;Node9 -->
<g id="edge13" class="edge">
<title>Node11&#45;&gt;Node9</title>
<path fill="none" stroke="#191970" d="M371.5669,-56.3733C394.3428,-47.2629 428.7344,-33.5062 454.149,-23.3404"/>
<polygon fill="#191970" stroke="#191970" points="455.7623,-26.4648 463.7472,-19.5011 453.1625,-19.9654 455.7623,-26.4648"/>
</g>
<!-- Node12 -->
<g id="node13" class="node">
<title>Node12</title>
<g id="a_node13"><a xlink:href="inttypes_8h.html" target="_top" xlink:title="Adds include for missing inttype definitions. ">
<polygon fill="none" stroke="#000000" points="318,-.5 318,-19.5 377,-19.5 377,-.5 318,-.5"/>
<text text-anchor="middle" x="347.5" y="-7.5" font-family="Helvetica,sans-Serif" font-size="10.00" fill="#000000">inttypes.h</text>
</a>
</g>
</g>
<!-- Node11&#45;&gt;Node12 -->
<g id="edge14" class="edge">
<title>Node11&#45;&gt;Node12</title>
<path fill="none" stroke="#191970" d="M347.5,-56.2455C347.5,-48.9382 347.5,-38.6944 347.5,-29.7046"/>
<polygon fill="#191970" stroke="#191970" points="351.0001,-29.6426 347.5,-19.6427 344.0001,-29.6427 351.0001,-29.6426"/>
</g>
<!-- Node13 -->
<g id="node14" class="node">
<title>Node13</title>
<polygon fill="none" stroke="#bfbfbf" points="395.5,-.5 395.5,-19.5 443.5,-19.5 443.5,-.5 395.5,-.5"/>
<text text-anchor="middle" x="419.5" y="-7.5" font-family="Helvetica,sans-Serif" font-size="10.00" fill="#000000">limits.h</text>
</g>
<!-- Node11&#45;&gt;Node13 -->
<g id="edge15" class="edge">
<title>Node11&#45;&gt;Node13</title>
<path fill="none" stroke="#191970" d="M360.0414,-56.2455C370.7787,-47.8943 386.4473,-35.7076 399.0047,-25.9408"/>
<polygon fill="#191970" stroke="#191970" points="401.3575,-28.5449 407.1023,-19.6427 397.0599,-23.0194 401.3575,-28.5449"/>
</g>
<!-- Node14 -->
<g id="node15" class="node">
<title>Node14</title>
<polygon fill="none" stroke="#bfbfbf" points="231.5,-.5 231.5,-19.5 299.5,-19.5 299.5,-.5 231.5,-.5"/>
<text text-anchor="middle" x="265.5" y="-7.5" font-family="Helvetica,sans-Serif" font-size="10.00" fill="#000000">sys/types.h</text>
</g>
<!-- Node11&#45;&gt;Node14 -->
<g id="edge17" class="edge">
<title>Node11&#45;&gt;Node14</title>
<path fill="none" stroke="#191970" d="M333.2167,-56.2455C320.753,-47.7337 302.4549,-35.2375 288.0208,-25.3801"/>
<polygon fill="#191970" stroke="#191970" points="289.8515,-22.392 279.6196,-19.6427 285.9038,-28.1726 289.8515,-22.392"/>
</g>
<!-- Node16&#45;&gt;Node1 -->
<g id="edge24" class="edge">
<title>Node16&#45;&gt;Node1</title>
<path fill="none" stroke="#191970" d="M123.3555,-112.3733C103.6108,-103.3838 73.9302,-89.8706 51.6945,-79.7471"/>
<polygon fill="#191970" stroke="#191970" points="52.92,-76.4594 42.3685,-75.5011 50.0194,-82.8302 52.92,-76.4594"/>
</g>
<!-- Node16&#45;&gt;Node2 -->
<g id="edge20" class="edge">
<title>Node16&#45;&gt;Node2</title>
<path fill="none" stroke="#191970" d="M126.5401,-112.3701C113.8676,-104.4681 97.8833,-91.9885 90.5,-76 82.0022,-57.598 97.9221,-38.8496 113.3061,-26.0614"/>
<polygon fill="#191970" stroke="#191970" points="115.8745,-28.4994 121.6392,-19.6101 111.5893,-22.9643 115.8745,-28.4994"/>
</g>
<!-- Node16&#45;&gt;Node7 -->
<g id="edge21" class="edge">
<title>Node16&#45;&gt;Node7</title>
<path fill="none" stroke="#191970" d="M162.0929,-112.2455C177.879,-103.4928 201.2639,-90.527 219.2587,-80.5496"/>
<polygon fill="#191970" stroke="#191970" points="221.0603,-83.5528 228.1087,-75.6427 217.6659,-77.4308 221.0603,-83.5528"/>
</g>
<!-- Node16&#45;&gt;Node11 -->
<g id="edge22" class="edge">
<title>Node16&#45;&gt;Node11</title>
<path fill="none" stroke="#191970" d="M170.2101,-114.9076C203.6225,-105.6903 262.4923,-89.4504 303.1749,-78.2276"/>
<polygon fill="#191970" stroke="#191970" points="304.1336,-81.594 312.8427,-75.5606 302.272,-74.846 304.1336,-81.594"/>
</g>
<!-- Node17 -->
<g id="node18" class="node">
<title>Node17</title>
<g id="a_node18"><a xlink:href="native__sched_8h.html" target="_top" xlink:title="Add definitions required on the native board. ">
<polygon fill="none" stroke="#000000" points="100,-56.5 100,-75.5 183,-75.5 183,-56.5 100,-56.5"/>
<text text-anchor="middle" x="141.5" y="-63.5" font-family="Helvetica,sans-Serif" font-size="10.00" fill="#000000">native_sched.h</text>
</a>
</g>
</g>
<!-- Node16&#45;&gt;Node17 -->
<g id="edge23" class="edge">
<title>Node16&#45;&gt;Node17</title>
<path fill="none" stroke="#191970" d="M143.9774,-112.2455C143.586,-104.9382 143.0372,-94.6944 142.5556,-85.7046"/>
<polygon fill="#191970" stroke="#191970" points="146.0466,-85.4411 142.0166,-75.6427 139.0566,-85.8156 146.0466,-85.4411"/>
</g>
</g>
</svg>
