<?xml version="1.0" encoding="UTF-8" standalone="no"?>
<!DOCTYPE svg PUBLIC "-//W3C//DTD SVG 1.1//EN"
 "http://www.w3.org/Graphics/SVG/1.1/DTD/svg11.dtd">
<!-- Generated by graphviz version 2.43.0 (0)
 -->
<!-- Title: cpu/stm32/include/clk/f0/cfg_clock_default.h Pages: 1 -->
<svg width="1133pt" height="117pt"
 viewBox="0.00 0.00 1132.50 117.00" xmlns="http://www.w3.org/2000/svg" xmlns:xlink="http://www.w3.org/1999/xlink">
<g id="graph0" class="graph" transform="scale(1 1) rotate(0) translate(4 113)">
<title>cpu/stm32/include/clk/f0/cfg_clock_default.h</title>
<!-- Node1 -->
<g id="node1" class="node">
<title>Node1</title>
<g id="a_node1"><a xlink:title="Default clock configuration for STM32F0.">
<polygon fill="#bfbfbf" stroke="black" points="491,-78.5 491,-108.5 618,-108.5 618,-78.5 491,-78.5"/>
<text text-anchor="start" x="499" y="-96.5" font-family="Helvetica,sans-Serif" font-size="10.00">cpu/stm32/include/clk</text>
<text text-anchor="middle" x="554.5" y="-85.5" font-family="Helvetica,sans-Serif" font-size="10.00">/f0/cfg_clock_default.h</text>
</a>
</g>
</g>
<!-- Node2 -->
<g id="node2" class="node">
<title>Node2</title>
<g id="a_node2"><a xlink:href="boards_2nucleo-f030r8_2include_2periph__conf_8h.html" target="_top" xlink:title="Peripheral MCU configuration for the nucleo&#45;f030r8 board.">
<polygon fill="none" stroke="black" points="0,-6 0,-36 123,-36 123,-6 0,-6"/>
<text text-anchor="start" x="8" y="-24" font-family="Helvetica,sans-Serif" font-size="10.00">boards/nucleo&#45;f030r8</text>
<text text-anchor="middle" x="61.5" y="-13" font-family="Helvetica,sans-Serif" font-size="10.00">/include/periph_conf.h</text>
</a>
</g>
</g>
<!-- Node1&#45;&gt;Node2 -->
<g id="edge1" class="edge">
<title>Node1&#45;&gt;Node2</title>
<path fill="none" stroke="midnightblue" d="M480.89,-87.29C396.05,-80.47 252.73,-66.39 131.5,-42 123.45,-40.38 114.97,-38.29 106.8,-36.08"/>
<polygon fill="midnightblue" stroke="midnightblue" points="480.69,-90.79 490.94,-88.09 481.24,-83.81 480.69,-90.79"/>
</g>
<!-- Node3 -->
<g id="node3" class="node">
<title>Node3</title>
<g id="a_node3"><a xlink:href="boards_2nucleo-f031k6_2include_2periph__conf_8h.html" target="_top" xlink:title="Peripheral MCU configuration for the nucleo&#45;f031k6 board.">
<polygon fill="none" stroke="black" points="141,-6 141,-36 264,-36 264,-6 141,-6"/>
<text text-anchor="start" x="149" y="-24" font-family="Helvetica,sans-Serif" font-size="10.00">boards/nucleo&#45;f031k6</text>
<text text-anchor="middle" x="202.5" y="-13" font-family="Helvetica,sans-Serif" font-size="10.00">/include/periph_conf.h</text>
</a>
</g>
</g>
<!-- Node1&#45;&gt;Node3 -->
<g id="edge2" class="edge">
<title>Node1&#45;&gt;Node3</title>
<path fill="none" stroke="midnightblue" d="M480.82,-81.4C423.68,-72.28 342.66,-58.26 272.5,-42 264.87,-40.23 256.82,-38.15 249.02,-36"/>
<polygon fill="midnightblue" stroke="midnightblue" points="480.42,-84.88 490.85,-82.99 481.52,-77.96 480.42,-84.88"/>
</g>
<!-- Node4 -->
<g id="node4" class="node">
<title>Node4</title>
<g id="a_node4"><a xlink:href="boards_2nucleo-f042k6_2include_2periph__conf_8h.html" target="_top" xlink:title="Peripheral MCU configuration for the nucleo&#45;f042k6 board.">
<polygon fill="none" stroke="black" points="282,-6 282,-36 405,-36 405,-6 282,-6"/>
<text text-anchor="start" x="290" y="-24" font-family="Helvetica,sans-Serif" font-size="10.00">boards/nucleo&#45;f042k6</text>
<text text-anchor="middle" x="343.5" y="-13" font-family="Helvetica,sans-Serif" font-size="10.00">/include/periph_conf.h</text>
</a>
</g>
</g>
<!-- Node1&#45;&gt;Node4 -->
<g id="edge3" class="edge">
<title>Node1&#45;&gt;Node4</title>
<path fill="none" stroke="midnightblue" d="M502.74,-75.2C466.76,-63.18 419.41,-47.36 385.72,-36.11"/>
<polygon fill="midnightblue" stroke="midnightblue" points="501.97,-78.64 512.56,-78.49 504.19,-72 501.97,-78.64"/>
</g>
<!-- Node5 -->
<g id="node5" class="node">
<title>Node5</title>
<g id="a_node5"><a xlink:href="boards_2nucleo-f070rb_2include_2periph__conf_8h.html" target="_top" xlink:title="Peripheral MCU configuration for the nucleo&#45;f070rb board.">
<polygon fill="none" stroke="black" points="423,-6 423,-36 546,-36 546,-6 423,-6"/>
<text text-anchor="start" x="431" y="-24" font-family="Helvetica,sans-Serif" font-size="10.00">boards/nucleo&#45;f070rb</text>
<text text-anchor="middle" x="484.5" y="-13" font-family="Helvetica,sans-Serif" font-size="10.00">/include/periph_conf.h</text>
</a>
</g>
</g>
<!-- Node1&#45;&gt;Node5 -->
<g id="edge4" class="edge">
<title>Node1&#45;&gt;Node5</title>
<path fill="none" stroke="midnightblue" d="M533.02,-70.86C521.85,-59.61 508.51,-46.18 498.64,-36.25"/>
<polygon fill="midnightblue" stroke="midnightblue" points="530.8,-73.6 540.33,-78.23 535.77,-68.67 530.8,-73.6"/>
</g>
<!-- Node6 -->
<g id="node6" class="node">
<title>Node6</title>
<g id="a_node6"><a xlink:href="boards_2nucleo-f072rb_2include_2periph__conf_8h.html" target="_top" xlink:title="Peripheral MCU configuration for the nucleo&#45;f072rb board.">
<polygon fill="none" stroke="black" points="564,-6 564,-36 687,-36 687,-6 564,-6"/>
<text text-anchor="start" x="572" y="-24" font-family="Helvetica,sans-Serif" font-size="10.00">boards/nucleo&#45;f072rb</text>
<text text-anchor="middle" x="625.5" y="-13" font-family="Helvetica,sans-Serif" font-size="10.00">/include/periph_conf.h</text>
</a>
</g>
</g>
<!-- Node1&#45;&gt;Node6 -->
<g id="edge5" class="edge">
<title>Node1&#45;&gt;Node6</title>
<path fill="none" stroke="midnightblue" d="M576.29,-70.86C587.62,-59.61 601.15,-46.18 611.15,-36.25"/>
<polygon fill="midnightblue" stroke="midnightblue" points="573.5,-68.7 568.87,-78.23 578.43,-73.67 573.5,-68.7"/>
</g>
<!-- Node7 -->
<g id="node7" class="node">
<title>Node7</title>
<g id="a_node7"><a xlink:href="boards_2nucleo-f091rc_2include_2periph__conf_8h.html" target="_top" xlink:title="Peripheral MCU configuration for the nucleo&#45;f091rc board.">
<polygon fill="none" stroke="black" points="705,-6 705,-36 828,-36 828,-6 705,-6"/>
<text text-anchor="start" x="713" y="-24" font-family="Helvetica,sans-Serif" font-size="10.00">boards/nucleo&#45;f091rc</text>
<text text-anchor="middle" x="766.5" y="-13" font-family="Helvetica,sans-Serif" font-size="10.00">/include/periph_conf.h</text>
</a>
</g>
</g>
<!-- Node1&#45;&gt;Node7 -->
<g id="edge6" class="edge">
<title>Node1&#45;&gt;Node7</title>
<path fill="none" stroke="midnightblue" d="M606.51,-75.2C642.65,-63.18 690.23,-47.36 724.08,-36.11"/>
<polygon fill="midnightblue" stroke="midnightblue" points="605.02,-72.01 596.64,-78.49 607.23,-78.65 605.02,-72.01"/>
</g>
<!-- Node8 -->
<g id="node8" class="node">
<title>Node8</title>
<g id="a_node8"><a xlink:href="boards_2stm32f030f4-demo_2include_2periph__conf_8h.html" target="_top" xlink:title="Peripheral MCU configuration for the stm32f030f4&#45;demo board.">
<polygon fill="none" stroke="black" points="846.5,-0.5 846.5,-41.5 966.5,-41.5 966.5,-0.5 846.5,-0.5"/>
<text text-anchor="start" x="854.5" y="-29.5" font-family="Helvetica,sans-Serif" font-size="10.00">boards/stm32f030f4</text>
<text text-anchor="start" x="854.5" y="-18.5" font-family="Helvetica,sans-Serif" font-size="10.00">&#45;demo/include/periph</text>
<text text-anchor="middle" x="906.5" y="-7.5" font-family="Helvetica,sans-Serif" font-size="10.00">_conf.h</text>
</a>
</g>
</g>
<!-- Node1&#45;&gt;Node8 -->
<g id="edge7" class="edge">
<title>Node1&#45;&gt;Node8</title>
<path fill="none" stroke="midnightblue" d="M628.18,-81.54C685.55,-72.48 767.01,-58.46 837.5,-42 840.41,-41.32 843.39,-40.59 846.39,-39.83"/>
<polygon fill="midnightblue" stroke="midnightblue" points="627.45,-78.11 618.11,-83.12 628.54,-85.02 627.45,-78.11"/>
</g>
<!-- Node9 -->
<g id="node9" class="node">
<title>Node9</title>
<g id="a_node9"><a xlink:href="boards_2stm32f0discovery_2include_2periph__conf_8h.html" target="_top" xlink:title="Peripheral MCU configuration for the STM32F0discovery board.">
<polygon fill="none" stroke="black" points="984.5,-6 984.5,-36 1124.5,-36 1124.5,-6 984.5,-6"/>
<text text-anchor="start" x="992.5" y="-24" font-family="Helvetica,sans-Serif" font-size="10.00">boards/stm32f0discovery</text>
<text text-anchor="middle" x="1054.5" y="-13" font-family="Helvetica,sans-Serif" font-size="10.00">/include/periph_conf.h</text>
</a>
</g>
</g>
<!-- Node1&#45;&gt;Node9 -->
<g id="edge8" class="edge">
<title>Node1&#45;&gt;Node9</title>
<path fill="none" stroke="midnightblue" d="M628,-86.57C712.36,-79.1 854.66,-64.45 975.5,-42 984.4,-40.35 993.79,-38.27 1002.87,-36.08"/>
<polygon fill="midnightblue" stroke="midnightblue" points="627.66,-83.09 618.01,-87.45 628.27,-90.06 627.66,-83.09"/>
</g>
</g>
</svg>
