<?xml version="1.0" encoding="UTF-8" standalone="no"?>
<!DOCTYPE svg PUBLIC "-//W3C//DTD SVG 1.1//EN"
 "http://www.w3.org/Graphics/SVG/1.1/DTD/svg11.dtd">
<!-- Generated by graphviz version 2.40.1 (20161225.0304)
 -->
<!-- Title: cpu/kinetis/include/cpu_conf_kinetis.h Pages: 1 -->
<svg width="180pt" height="151pt"
 viewBox="0.00 0.00 180.00 151.00" xmlns="http://www.w3.org/2000/svg" xmlns:xlink="http://www.w3.org/1999/xlink">
<g id="graph0" class="graph" transform="scale(1 1) rotate(0) translate(4 147)">
<title>cpu/kinetis/include/cpu_conf_kinetis.h</title>
<!-- Node0 -->
<g id="node1" class="node">
<title>Node0</title>
<polygon fill="#bfbfbf" stroke="#000000" points="50,-112.5 50,-142.5 151,-142.5 151,-112.5 50,-112.5"/>
<text text-anchor="start" x="58" y="-130.5" font-family="Helvetica,sans-Serif" font-size="10.00" fill="#000000">cpu/kinetis/include</text>
<text text-anchor="middle" x="100.5" y="-119.5" font-family="Helvetica,sans-Serif" font-size="10.00" fill="#000000">/cpu_conf_kinetis.h</text>
</g>
<!-- Node1 -->
<g id="node2" class="node">
<title>Node1</title>
<polygon fill="none" stroke="#bfbfbf" points="0,-56.5 0,-75.5 107,-75.5 107,-56.5 0,-56.5"/>
<text text-anchor="middle" x="53.5" y="-63.5" font-family="Helvetica,sans-Serif" font-size="10.00" fill="#000000">cpu_conf_common.h</text>
</g>
<!-- Node0&#45;&gt;Node1 -->
<g id="edge1" class="edge">
<title>Node0&#45;&gt;Node1</title>
<path fill="none" stroke="#191970" d="M88.882,-112.2977C82.29,-103.672 74.0052,-92.8312 67.1099,-83.8087"/>
<polygon fill="#191970" stroke="#191970" points="69.8783,-81.6671 61.0253,-75.8469 64.3165,-85.9176 69.8783,-81.6671"/>
</g>
<!-- Node2 -->
<g id="node3" class="node">
<title>Node2</title>
<g id="a_node3"><a xlink:href="bme_8h.html" target="_top" xlink:title="Macro definitions for the Kinetis Bit Manipulation Engine (BME) ">
<polygon fill="none" stroke="#000000" points="125.5,-56.5 125.5,-75.5 169.5,-75.5 169.5,-56.5 125.5,-56.5"/>
<text text-anchor="middle" x="147.5" y="-63.5" font-family="Helvetica,sans-Serif" font-size="10.00" fill="#000000">bme.h</text>
</a>
</g>
</g>
<!-- Node0&#45;&gt;Node2 -->
<g id="edge2" class="edge">
<title>Node0&#45;&gt;Node2</title>
<path fill="none" stroke="#191970" d="M112.118,-112.2977C118.71,-103.672 126.9948,-92.8312 133.8901,-83.8087"/>
<polygon fill="#191970" stroke="#191970" points="136.6835,-85.9176 139.9747,-75.8469 131.1217,-81.6671 136.6835,-85.9176"/>
</g>
<!-- Node3 -->
<g id="node4" class="node">
<title>Node3</title>
<polygon fill="none" stroke="#bfbfbf" points="123,-.5 123,-19.5 172,-19.5 172,-.5 123,-.5"/>
<text text-anchor="middle" x="147.5" y="-7.5" font-family="Helvetica,sans-Serif" font-size="10.00" fill="#000000">stdint.h</text>
</g>
<!-- Node2&#45;&gt;Node3 -->
<g id="edge3" class="edge">
<title>Node2&#45;&gt;Node3</title>
<path fill="none" stroke="#191970" d="M147.5,-56.2455C147.5,-48.9382 147.5,-38.6944 147.5,-29.7046"/>
<polygon fill="#191970" stroke="#191970" points="151.0001,-29.6426 147.5,-19.6427 144.0001,-29.6427 151.0001,-29.6426"/>
</g>
</g>
</svg>
