<?xml version="1.0" encoding="UTF-8" standalone="no"?>
<!DOCTYPE svg PUBLIC "-//W3C//DTD SVG 1.1//EN"
 "http://www.w3.org/Graphics/SVG/1.1/DTD/svg11.dtd">
<!-- Generated by graphviz version 2.40.1 (20161225.0304)
 -->
<!-- Title: sys/include/net/csma_sender.h Pages: 1 -->
<svg width="272pt" height="207pt"
 viewBox="0.00 0.00 271.50 207.00" xmlns="http://www.w3.org/2000/svg" xmlns:xlink="http://www.w3.org/1999/xlink">
<g id="graph0" class="graph" transform="scale(1 1) rotate(0) translate(4 203)">
<title>sys/include/net/csma_sender.h</title>
<!-- Node0 -->
<g id="node1" class="node">
<title>Node0</title>
<polygon fill="#bfbfbf" stroke="#000000" points="2.5,-168.5 2.5,-198.5 112.5,-198.5 112.5,-168.5 2.5,-168.5"/>
<text text-anchor="start" x="10.5" y="-186.5" font-family="Helvetica,sans-Serif" font-size="10.00" fill="#000000">sys/include/net/csma</text>
<text text-anchor="middle" x="57.5" y="-175.5" font-family="Helvetica,sans-Serif" font-size="10.00" fill="#000000">_sender.h</text>
</g>
<!-- Node1 -->
<g id="node2" class="node">
<title>Node1</title>
<polygon fill="none" stroke="#bfbfbf" points="0,-56.5 0,-75.5 49,-75.5 49,-56.5 0,-56.5"/>
<text text-anchor="middle" x="24.5" y="-63.5" font-family="Helvetica,sans-Serif" font-size="10.00" fill="#000000">stdint.h</text>
</g>
<!-- Node0&#45;&gt;Node1 -->
<g id="edge1" class="edge">
<title>Node0&#45;&gt;Node1</title>
<path fill="none" stroke="#191970" d="M53.1858,-168.1389C47.2133,-146.873 36.4278,-108.4702 29.9192,-85.2956"/>
<polygon fill="#191970" stroke="#191970" points="33.2584,-84.2406 27.1848,-75.5595 26.5191,-86.1334 33.2584,-84.2406"/>
</g>
<!-- Node2 -->
<g id="node3" class="node">
<title>Node2</title>
<g id="a_node3"><a xlink:href="drivers_2include_2net_2netdev_8h.html" target="_top" xlink:title="Definitions low&#45;level network driver interface. ">
<polygon fill="none" stroke="#000000" points="55,-112.5 55,-131.5 126,-131.5 126,-112.5 55,-112.5"/>
<text text-anchor="middle" x="90.5" y="-119.5" font-family="Helvetica,sans-Serif" font-size="10.00" fill="#000000">net/netdev.h</text>
</a>
</g>
</g>
<!-- Node0&#45;&gt;Node2 -->
<g id="edge2" class="edge">
<title>Node0&#45;&gt;Node2</title>
<path fill="none" stroke="#191970" d="M65.6573,-168.2977C70.0949,-160.0277 75.625,-149.7215 80.3404,-140.9339"/>
<polygon fill="#191970" stroke="#191970" points="83.5721,-142.3134 85.2163,-131.8469 77.404,-139.0037 83.5721,-142.3134"/>
</g>
<!-- Node2&#45;&gt;Node1 -->
<g id="edge3" class="edge">
<title>Node2&#45;&gt;Node1</title>
<path fill="none" stroke="#191970" d="M79.0037,-112.2455C69.2558,-103.9746 55.0741,-91.9416 43.6202,-82.2232"/>
<polygon fill="#191970" stroke="#191970" points="45.7541,-79.4437 35.8646,-75.6427 41.2253,-84.7813 45.7541,-79.4437"/>
</g>
<!-- Node3 -->
<g id="node4" class="node">
<title>Node3</title>
<g id="a_node4"><a xlink:href="errno_8h.html" target="_top" xlink:title="errno.h">
<polygon fill="none" stroke="#000000" points="67,-56.5 67,-75.5 114,-75.5 114,-56.5 67,-56.5"/>
<text text-anchor="middle" x="90.5" y="-63.5" font-family="Helvetica,sans-Serif" font-size="10.00" fill="#000000">errno.h</text>
</a>
</g>
</g>
<!-- Node2&#45;&gt;Node3 -->
<g id="edge4" class="edge">
<title>Node2&#45;&gt;Node3</title>
<path fill="none" stroke="#191970" d="M90.5,-112.2455C90.5,-104.9382 90.5,-94.6944 90.5,-85.7046"/>
<polygon fill="#191970" stroke="#191970" points="94.0001,-85.6426 90.5,-75.6427 87.0001,-85.6427 94.0001,-85.6426"/>
</g>
<!-- Node4 -->
<g id="node5" class="node">
<title>Node4</title>
<g id="a_node5"><a xlink:href="iolist_8h.html" target="_top" xlink:title="iolist scatter / gather IO ">
<polygon fill="none" stroke="#000000" points="132,-56.5 132,-75.5 177,-75.5 177,-56.5 132,-56.5"/>
<text text-anchor="middle" x="154.5" y="-63.5" font-family="Helvetica,sans-Serif" font-size="10.00" fill="#000000">iolist.h</text>
</a>
</g>
</g>
<!-- Node2&#45;&gt;Node4 -->
<g id="edge5" class="edge">
<title>Node2&#45;&gt;Node4</title>
<path fill="none" stroke="#191970" d="M101.6479,-112.2455C111.0087,-104.0549 124.5858,-92.1749 135.6349,-82.5069"/>
<polygon fill="#191970" stroke="#191970" points="138.2588,-84.8618 143.4798,-75.6427 133.6492,-79.5937 138.2588,-84.8618"/>
</g>
<!-- Node6 -->
<g id="node7" class="node">
<title>Node6</title>
<g id="a_node7"><a xlink:href="netopt_8h.html" target="_top" xlink:title="Definition of global configuration options. ">
<polygon fill="none" stroke="#000000" points="195.5,-56.5 195.5,-75.5 263.5,-75.5 263.5,-56.5 195.5,-56.5"/>
<text text-anchor="middle" x="229.5" y="-63.5" font-family="Helvetica,sans-Serif" font-size="10.00" fill="#000000">net/netopt.h</text>
</a>
</g>
</g>
<!-- Node2&#45;&gt;Node6 -->
<g id="edge7" class="edge">
<title>Node2&#45;&gt;Node6</title>
<path fill="none" stroke="#191970" d="M114.395,-112.3733C137.0082,-103.2629 171.1542,-89.5062 196.3873,-79.3404"/>
<polygon fill="#191970" stroke="#191970" points="197.9493,-82.4845 205.9169,-75.5011 195.3334,-75.9917 197.9493,-82.4845"/>
</g>
<!-- Node5 -->
<g id="node6" class="node">
<title>Node5</title>
<polygon fill="none" stroke="#bfbfbf" points="129,-.5 129,-19.5 180,-19.5 180,-.5 129,-.5"/>
<text text-anchor="middle" x="154.5" y="-7.5" font-family="Helvetica,sans-Serif" font-size="10.00" fill="#000000">unistd.h</text>
</g>
<!-- Node4&#45;&gt;Node5 -->
<g id="edge6" class="edge">
<title>Node4&#45;&gt;Node5</title>
<path fill="none" stroke="#191970" d="M154.5,-56.2455C154.5,-48.9382 154.5,-38.6944 154.5,-29.7046"/>
<polygon fill="#191970" stroke="#191970" points="158.0001,-29.6426 154.5,-19.6427 151.0001,-29.6427 158.0001,-29.6426"/>
</g>
</g>
</svg>
