<?xml version="1.0" encoding="UTF-8" standalone="no"?>
<!DOCTYPE svg PUBLIC "-//W3C//DTD SVG 1.1//EN"
 "http://www.w3.org/Graphics/SVG/1.1/DTD/svg11.dtd">
<!-- Generated by graphviz version 2.40.1 (20161225.0304)
 -->
<!-- Title: core/include/debug.h Pages: 1 -->
<svg width="663pt" height="364pt"
 viewBox="0.00 0.00 662.50 364.00" xmlns="http://www.w3.org/2000/svg" xmlns:xlink="http://www.w3.org/1999/xlink">
<g id="graph0" class="graph" transform="scale(1 1) rotate(0) translate(4 360)">
<title>core/include/debug.h</title>
<!-- Node0 -->
<g id="node1" class="node">
<title>Node0</title>
<polygon fill="#bfbfbf" stroke="#000000" points="291,-336.5 291,-355.5 398,-355.5 398,-336.5 291,-336.5"/>
<text text-anchor="middle" x="344.5" y="-343.5" font-family="Helvetica,sans-Serif" font-size="10.00" fill="#000000">core/include/debug.h</text>
</g>
<!-- Node1 -->
<g id="node2" class="node">
<title>Node1</title>
<g id="a_node2"><a xlink:href="stdio_8h.html" target="_top" xlink:title="stdio.h wrapper for MSP430 ">
<polygon fill="none" stroke="#000000" points="243.5,-280.5 243.5,-299.5 289.5,-299.5 289.5,-280.5 243.5,-280.5"/>
<text text-anchor="middle" x="266.5" y="-287.5" font-family="Helvetica,sans-Serif" font-size="10.00" fill="#000000">stdio.h</text>
</a>
</g>
</g>
<!-- Node0&#45;&gt;Node1 -->
<g id="edge1" class="edge">
<title>Node0&#45;&gt;Node1</title>
<path fill="none" stroke="#191970" d="M330.9134,-336.2455C319.1695,-327.814 301.9801,-315.4729 288.3118,-305.6598"/>
<polygon fill="#191970" stroke="#191970" points="290.0954,-302.6316 279.9309,-299.6427 286.0129,-308.3179 290.0954,-302.6316"/>
</g>
<!-- Node2 -->
<g id="node3" class="node">
<title>Node2</title>
<g id="a_node3"><a xlink:href="sched_8h.html" target="_top" xlink:title="Scheduler API definition. ">
<polygon fill="none" stroke="#000000" points="218,-224.5 218,-243.5 269,-243.5 269,-224.5 218,-224.5"/>
<text text-anchor="middle" x="243.5" y="-231.5" font-family="Helvetica,sans-Serif" font-size="10.00" fill="#000000">sched.h</text>
</a>
</g>
</g>
<!-- Node0&#45;&gt;Node2 -->
<g id="edge2" class="edge">
<title>Node0&#45;&gt;Node2</title>
<path fill="none" stroke="#191970" d="M338.9673,-336.4586C330.9709,-323.0807 315.2906,-298.3341 298.5,-280 288.4166,-268.9897 275.7091,-258.1993 265.0496,-249.8394"/>
<polygon fill="#191970" stroke="#191970" points="267.0969,-246.9988 257.0292,-243.6983 262.8413,-252.5567 267.0969,-246.9988"/>
</g>
<!-- Node13 -->
<g id="node14" class="node">
<title>Node13</title>
<g id="a_node14"><a xlink:href="core_2include_2thread_8h.html" target="_top" xlink:title="Threading API. ">
<polygon fill="none" stroke="#000000" points="345.5,-280.5 345.5,-299.5 397.5,-299.5 397.5,-280.5 345.5,-280.5"/>
<text text-anchor="middle" x="371.5" y="-287.5" font-family="Helvetica,sans-Serif" font-size="10.00" fill="#000000">thread.h</text>
</a>
</g>
</g>
<!-- Node0&#45;&gt;Node13 -->
<g id="edge16" class="edge">
<title>Node0&#45;&gt;Node13</title>
<path fill="none" stroke="#191970" d="M349.203,-336.2455C352.8424,-328.6973 357.9924,-318.0158 362.4262,-308.8197"/>
<polygon fill="#191970" stroke="#191970" points="365.6605,-310.1704 366.8509,-299.6427 359.3551,-307.1303 365.6605,-310.1704"/>
</g>
<!-- Node19 -->
<g id="node20" class="node">
<title>Node19</title>
<polygon fill="none" stroke="#bfbfbf" points="468,-224.5 468,-243.5 533,-243.5 533,-224.5 468,-224.5"/>
<text text-anchor="middle" x="500.5" y="-231.5" font-family="Helvetica,sans-Serif" font-size="10.00" fill="#000000">cpu_conf.h</text>
</g>
<!-- Node0&#45;&gt;Node19 -->
<g id="edge28" class="edge">
<title>Node0&#45;&gt;Node19</title>
<path fill="none" stroke="#191970" d="M357.8005,-336.4509C384.7404,-317.1094 445.9745,-273.1465 478.7848,-249.5904"/>
<polygon fill="#191970" stroke="#191970" points="481.1512,-252.2001 487.2332,-243.5249 477.0687,-246.5139 481.1512,-252.2001"/>
</g>
<!-- Node3 -->
<g id="node4" class="node">
<title>Node3</title>
<polygon fill="none" stroke="#bfbfbf" points="253.5,-.5 253.5,-19.5 305.5,-19.5 305.5,-.5 253.5,-.5"/>
<text text-anchor="middle" x="279.5" y="-7.5" font-family="Helvetica,sans-Serif" font-size="10.00" fill="#000000">stddef.h</text>
</g>
<!-- Node2&#45;&gt;Node3 -->
<g id="edge3" class="edge">
<title>Node2&#45;&gt;Node3</title>
<path fill="none" stroke="#191970" d="M218.9064,-224.4267C202.7596,-216.8961 182.4828,-204.8451 170.5,-188 150.6361,-160.076 142.9899,-143.0448 157.5,-112 176.487,-71.3768 220.4909,-41.2421 250.1242,-24.6394"/>
<polygon fill="#191970" stroke="#191970" points="252.0648,-27.5687 259.1905,-19.7282 248.7306,-21.4138 252.0648,-27.5687"/>
</g>
<!-- Node4 -->
<g id="node5" class="node">
<title>Node4</title>
<g id="a_node5"><a xlink:href="kernel__defines_8h.html" target="_top" xlink:title="Common macros and compiler attributes/pragmas configuration. ">
<polygon fill="none" stroke="#000000" points="271.5,-56.5 271.5,-75.5 359.5,-75.5 359.5,-56.5 271.5,-56.5"/>
<text text-anchor="middle" x="315.5" y="-63.5" font-family="Helvetica,sans-Serif" font-size="10.00" fill="#000000">kernel_defines.h</text>
</a>
</g>
</g>
<!-- Node2&#45;&gt;Node4 -->
<g id="edge4" class="edge">
<title>Node2&#45;&gt;Node4</title>
<path fill="none" stroke="#191970" d="M229.6436,-224.4782C200.7724,-203.4742 139.2007,-151.8688 168.5,-112 179.7903,-96.6368 224.1108,-84.1166 261.1625,-76.0388"/>
<polygon fill="#191970" stroke="#191970" points="262.3257,-79.3704 271.3867,-73.8796 260.8793,-72.5215 262.3257,-79.3704"/>
</g>
<!-- Node5 -->
<g id="node6" class="node">
<title>Node5</title>
<g id="a_node6"><a xlink:href="kernel__types_8h.html" target="_top" xlink:title="Types used by the kernel. ">
<polygon fill="none" stroke="#000000" points="331.5,-168.5 331.5,-187.5 411.5,-187.5 411.5,-168.5 331.5,-168.5"/>
<text text-anchor="middle" x="371.5" y="-175.5" font-family="Helvetica,sans-Serif" font-size="10.00" fill="#000000">kernel_types.h</text>
</a>
</g>
</g>
<!-- Node2&#45;&gt;Node5 -->
<g id="edge6" class="edge">
<title>Node2&#45;&gt;Node5</title>
<path fill="none" stroke="#191970" d="M265.504,-224.3733C286.1435,-215.3435 317.2158,-201.7494 340.3889,-191.6111"/>
<polygon fill="#191970" stroke="#191970" points="342.0245,-194.7159 349.7831,-187.5011 339.2187,-188.3028 342.0245,-194.7159"/>
</g>
<!-- Node10 -->
<g id="node11" class="node">
<title>Node10</title>
<g id="a_node11"><a xlink:href="native__sched_8h.html" target="_top" xlink:title="Add definitions required on the native board. ">
<polygon fill="none" stroke="#000000" points="0,-168.5 0,-187.5 83,-187.5 83,-168.5 0,-168.5"/>
<text text-anchor="middle" x="41.5" y="-175.5" font-family="Helvetica,sans-Serif" font-size="10.00" fill="#000000">native_sched.h</text>
</a>
</g>
</g>
<!-- Node2&#45;&gt;Node10 -->
<g id="edge12" class="edge">
<title>Node2&#45;&gt;Node10</title>
<path fill="none" stroke="#191970" d="M217.9166,-226.9076C184.739,-217.7098 126.3366,-201.519 85.8637,-190.2988"/>
<polygon fill="#191970" stroke="#191970" points="86.5582,-186.8594 75.9866,-187.5606 84.6881,-193.605 86.5582,-186.8594"/>
</g>
<!-- Node11 -->
<g id="node12" class="node">
<title>Node11</title>
<g id="a_node12"><a xlink:href="clist_8h.html" target="_top" xlink:title="Circular linked list. ">
<polygon fill="none" stroke="#000000" points="222,-168.5 222,-187.5 265,-187.5 265,-168.5 222,-168.5"/>
<text text-anchor="middle" x="243.5" y="-175.5" font-family="Helvetica,sans-Serif" font-size="10.00" fill="#000000">clist.h</text>
</a>
</g>
</g>
<!-- Node2&#45;&gt;Node11 -->
<g id="edge13" class="edge">
<title>Node2&#45;&gt;Node11</title>
<path fill="none" stroke="#191970" d="M243.5,-224.2455C243.5,-216.9382 243.5,-206.6944 243.5,-197.7046"/>
<polygon fill="#191970" stroke="#191970" points="247.0001,-197.6426 243.5,-187.6427 240.0001,-197.6427 247.0001,-197.6426"/>
</g>
<!-- Node4&#45;&gt;Node3 -->
<g id="edge5" class="edge">
<title>Node4&#45;&gt;Node3</title>
<path fill="none" stroke="#191970" d="M309.2293,-56.2455C304.2736,-48.5367 297.217,-37.5598 291.2224,-28.2348"/>
<polygon fill="#191970" stroke="#191970" points="294.0506,-26.1618 285.6989,-19.6427 288.1624,-29.9471 294.0506,-26.1618"/>
</g>
<!-- Node5&#45;&gt;Node3 -->
<g id="edge10" class="edge">
<title>Node5&#45;&gt;Node3</title>
<path fill="none" stroke="#191970" d="M384.831,-168.3825C395.1173,-160.0729 408.5611,-147.0499 414.5,-132 417.7628,-123.7316 417.4965,-120.3686 414.5,-112 398.5695,-67.5087 349.3483,-38.6549 314.9684,-23.3549"/>
<polygon fill="#191970" stroke="#191970" points="316.2761,-20.1076 305.7051,-19.3972 313.5259,-26.5447 316.2761,-20.1076"/>
</g>
<!-- Node6 -->
<g id="node7" class="node">
<title>Node6</title>
<polygon fill="none" stroke="#bfbfbf" points="539,-112.5 539,-131.5 588,-131.5 588,-112.5 539,-112.5"/>
<text text-anchor="middle" x="563.5" y="-119.5" font-family="Helvetica,sans-Serif" font-size="10.00" fill="#000000">stdint.h</text>
</g>
<!-- Node5&#45;&gt;Node6 -->
<g id="edge7" class="edge">
<title>Node5&#45;&gt;Node6</title>
<path fill="none" stroke="#191970" d="M404.4927,-168.4231C434.464,-159.7169 480.1525,-146.4294 529.1487,-132.0973"/>
<polygon fill="#191970" stroke="#191970" points="530.3738,-135.3857 538.9883,-129.218 528.4078,-128.6674 530.3738,-135.3857"/>
</g>
<!-- Node7 -->
<g id="node8" class="node">
<title>Node7</title>
<g id="a_node8"><a xlink:href="inttypes_8h.html" target="_top" xlink:title="Adds include for missing inttype definitions. ">
<polygon fill="none" stroke="#000000" points="462,-112.5 462,-131.5 521,-131.5 521,-112.5 462,-112.5"/>
<text text-anchor="middle" x="491.5" y="-119.5" font-family="Helvetica,sans-Serif" font-size="10.00" fill="#000000">inttypes.h</text>
</a>
</g>
</g>
<!-- Node5&#45;&gt;Node7 -->
<g id="edge8" class="edge">
<title>Node5&#45;&gt;Node7</title>
<path fill="none" stroke="#191970" d="M392.1287,-168.3733C411.3919,-159.3838 440.3486,-145.8706 462.0419,-135.7471"/>
<polygon fill="#191970" stroke="#191970" points="463.5587,-138.9017 471.1405,-131.5011 460.5985,-132.5584 463.5587,-138.9017"/>
</g>
<!-- Node8 -->
<g id="node9" class="node">
<title>Node8</title>
<polygon fill="none" stroke="#bfbfbf" points="271.5,-112.5 271.5,-131.5 319.5,-131.5 319.5,-112.5 271.5,-112.5"/>
<text text-anchor="middle" x="295.5" y="-119.5" font-family="Helvetica,sans-Serif" font-size="10.00" fill="#000000">limits.h</text>
</g>
<!-- Node5&#45;&gt;Node8 -->
<g id="edge9" class="edge">
<title>Node5&#45;&gt;Node8</title>
<path fill="none" stroke="#191970" d="M358.2618,-168.2455C346.819,-159.814 330.0704,-147.4729 316.7525,-137.6598"/>
<polygon fill="#191970" stroke="#191970" points="318.7133,-134.757 308.5865,-131.6427 314.5609,-140.3924 318.7133,-134.757"/>
</g>
<!-- Node9 -->
<g id="node10" class="node">
<title>Node9</title>
<polygon fill="none" stroke="#bfbfbf" points="337.5,-112.5 337.5,-131.5 405.5,-131.5 405.5,-112.5 337.5,-112.5"/>
<text text-anchor="middle" x="371.5" y="-119.5" font-family="Helvetica,sans-Serif" font-size="10.00" fill="#000000">sys/types.h</text>
</g>
<!-- Node5&#45;&gt;Node9 -->
<g id="edge11" class="edge">
<title>Node5&#45;&gt;Node9</title>
<path fill="none" stroke="#191970" d="M371.5,-168.2455C371.5,-160.9382 371.5,-150.6944 371.5,-141.7046"/>
<polygon fill="#191970" stroke="#191970" points="375.0001,-141.6426 371.5,-131.6427 368.0001,-141.6427 375.0001,-141.6426"/>
</g>
<!-- Node11&#45;&gt;Node3 -->
<g id="edge14" class="edge">
<title>Node11&#45;&gt;Node3</title>
<path fill="none" stroke="#191970" d="M244.34,-168.3764C246.2969,-147.5948 251.8249,-97.0786 262.5,-56 264.8489,-46.9614 268.3058,-37.2234 271.4901,-29.0447"/>
<polygon fill="#191970" stroke="#191970" points="274.7692,-30.2718 275.2738,-19.689 268.2798,-27.6473 274.7692,-30.2718"/>
</g>
<!-- Node12 -->
<g id="node13" class="node">
<title>Node12</title>
<g id="a_node13"><a xlink:href="list_8h.html" target="_top" xlink:title="Intrusive linked list. ">
<polygon fill="none" stroke="#000000" points="177.5,-112.5 177.5,-131.5 215.5,-131.5 215.5,-112.5 177.5,-112.5"/>
<text text-anchor="middle" x="196.5" y="-119.5" font-family="Helvetica,sans-Serif" font-size="10.00" fill="#000000">list.h</text>
</a>
</g>
</g>
<!-- Node11&#45;&gt;Node12 -->
<g id="edge15" class="edge">
<title>Node11&#45;&gt;Node12</title>
<path fill="none" stroke="#191970" d="M235.3132,-168.2455C228.6411,-160.2958 219.0521,-148.8706 211.0747,-139.3656"/>
<polygon fill="#191970" stroke="#191970" points="213.7026,-137.0524 204.593,-131.6427 208.3408,-141.5525 213.7026,-137.0524"/>
</g>
<!-- Node13&#45;&gt;Node2 -->
<g id="edge27" class="edge">
<title>Node13&#45;&gt;Node2</title>
<path fill="none" stroke="#191970" d="M349.496,-280.3733C328.8565,-271.3435 297.7842,-257.7494 274.6111,-247.6111"/>
<polygon fill="#191970" stroke="#191970" points="275.7813,-244.3028 265.2169,-243.5011 272.9755,-250.7159 275.7813,-244.3028"/>
</g>
<!-- Node13&#45;&gt;Node11 -->
<g id="edge17" class="edge">
<title>Node13&#45;&gt;Node11</title>
<path fill="none" stroke="#191970" d="M360.5868,-280.4509C338.6711,-261.2747 289.0957,-217.8962 262.0129,-194.1988"/>
<polygon fill="#191970" stroke="#191970" points="264.2162,-191.4759 254.3856,-187.5249 259.6066,-196.744 264.2162,-191.4759"/>
</g>
<!-- Node14 -->
<g id="node15" class="node">
<title>Node14</title>
<g id="a_node15"><a xlink:href="cib_8h.html" target="_top" xlink:title="Circular integer buffer interface. ">
<polygon fill="none" stroke="#000000" points="411.5,-224.5 411.5,-243.5 449.5,-243.5 449.5,-224.5 411.5,-224.5"/>
<text text-anchor="middle" x="430.5" y="-231.5" font-family="Helvetica,sans-Serif" font-size="10.00" fill="#000000">cib.h</text>
</a>
</g>
</g>
<!-- Node13&#45;&gt;Node14 -->
<g id="edge18" class="edge">
<title>Node13&#45;&gt;Node14</title>
<path fill="none" stroke="#191970" d="M381.777,-280.2455C390.3218,-272.1352 402.6778,-260.4075 412.8085,-250.7919"/>
<polygon fill="#191970" stroke="#191970" points="415.4972,-253.0655 420.3408,-243.6427 410.6782,-247.9884 415.4972,-253.0655"/>
</g>
<!-- Node17 -->
<g id="node18" class="node">
<title>Node17</title>
<g id="a_node18"><a xlink:href="msg_8h.html" target="_top" xlink:title="Messaging API for inter process communication. ">
<polygon fill="none" stroke="#000000" points="349.5,-224.5 349.5,-243.5 393.5,-243.5 393.5,-224.5 349.5,-224.5"/>
<text text-anchor="middle" x="371.5" y="-231.5" font-family="Helvetica,sans-Serif" font-size="10.00" fill="#000000">msg.h</text>
</a>
</g>
</g>
<!-- Node13&#45;&gt;Node17 -->
<g id="edge22" class="edge">
<title>Node13&#45;&gt;Node17</title>
<path fill="none" stroke="#191970" d="M371.5,-280.2455C371.5,-272.9382 371.5,-262.6944 371.5,-253.7046"/>
<polygon fill="#191970" stroke="#191970" points="375.0001,-253.6426 371.5,-243.6427 368.0001,-253.6427 375.0001,-253.6426"/>
</g>
<!-- Node13&#45;&gt;Node19 -->
<g id="edge26" class="edge">
<title>Node13&#45;&gt;Node19</title>
<path fill="none" stroke="#191970" d="M393.6759,-280.3733C414.4766,-271.3435 445.7917,-257.7494 469.1458,-247.6111"/>
<polygon fill="#191970" stroke="#191970" points="470.8343,-250.6938 478.6135,-243.5011 468.0468,-244.2727 470.8343,-250.6938"/>
</g>
<!-- Node15 -->
<g id="node16" class="node">
<title>Node15</title>
<g id="a_node16"><a xlink:href="assert_8h.html" target="_top" xlink:title="POSIX.1&#45;2008 compliant version of the assert macro. ">
<polygon fill="none" stroke="#000000" points="585.5,-168.5 585.5,-187.5 637.5,-187.5 637.5,-168.5 585.5,-168.5"/>
<text text-anchor="middle" x="611.5" y="-175.5" font-family="Helvetica,sans-Serif" font-size="10.00" fill="#000000">assert.h</text>
</a>
</g>
</g>
<!-- Node14&#45;&gt;Node15 -->
<g id="edge19" class="edge">
<title>Node14&#45;&gt;Node15</title>
<path fill="none" stroke="#191970" d="M449.7353,-226.9849C452.6631,-225.9593 455.6558,-224.9348 458.5,-224 498.2726,-210.9283 544.3324,-197.2798 575.4395,-188.2788"/>
<polygon fill="#191970" stroke="#191970" points="576.7456,-191.5449 585.385,-185.4121 574.8068,-184.8188 576.7456,-191.5449"/>
</g>
<!-- Node16 -->
<g id="node17" class="node">
<title>Node16</title>
<g id="a_node17"><a xlink:href="panic_8h.html" target="_top" xlink:title="Crash handling header. ">
<polygon fill="none" stroke="#000000" points="606.5,-112.5 606.5,-131.5 654.5,-131.5 654.5,-112.5 606.5,-112.5"/>
<text text-anchor="middle" x="630.5" y="-119.5" font-family="Helvetica,sans-Serif" font-size="10.00" fill="#000000">panic.h</text>
</a>
</g>
</g>
<!-- Node15&#45;&gt;Node16 -->
<g id="edge20" class="edge">
<title>Node15&#45;&gt;Node16</title>
<path fill="none" stroke="#191970" d="M614.8095,-168.2455C617.3433,-160.7776 620.9177,-150.2427 624.015,-141.1137"/>
<polygon fill="#191970" stroke="#191970" points="627.3298,-142.237 627.2284,-131.6427 620.7009,-139.9879 627.3298,-142.237"/>
</g>
<!-- Node16&#45;&gt;Node4 -->
<g id="edge21" class="edge">
<title>Node16&#45;&gt;Node4</title>
<path fill="none" stroke="#191970" d="M606.4509,-114.5266C603.125,-113.6105 599.7394,-112.7385 596.5,-112 518.458,-94.2074 426.7219,-80.5197 369.8368,-72.8623"/>
<polygon fill="#191970" stroke="#191970" points="370.0064,-69.3541 359.6318,-71.5031 369.0822,-76.2928 370.0064,-69.3541"/>
</g>
<!-- Node17&#45;&gt;Node5 -->
<g id="edge25" class="edge">
<title>Node17&#45;&gt;Node5</title>
<path fill="none" stroke="#191970" d="M371.5,-224.2455C371.5,-216.9382 371.5,-206.6944 371.5,-197.7046"/>
<polygon fill="#191970" stroke="#191970" points="375.0001,-197.6426 371.5,-187.6427 368.0001,-197.6427 375.0001,-197.6426"/>
</g>
<!-- Node17&#45;&gt;Node6 -->
<g id="edge23" class="edge">
<title>Node17&#45;&gt;Node6</title>
<path fill="none" stroke="#191970" d="M393.7545,-226.8793C424.2653,-216.914 477.266,-198.8176 494.5,-188 515.6261,-174.7394 535.7553,-154.266 548.7609,-139.6398"/>
<polygon fill="#191970" stroke="#191970" points="551.6476,-141.653 555.549,-131.8026 546.3564,-137.0701 551.6476,-141.653"/>
</g>
<!-- Node18 -->
<g id="node19" class="node">
<title>Node18</title>
<polygon fill="none" stroke="#bfbfbf" points="429.5,-168.5 429.5,-187.5 485.5,-187.5 485.5,-168.5 429.5,-168.5"/>
<text text-anchor="middle" x="457.5" y="-175.5" font-family="Helvetica,sans-Serif" font-size="10.00" fill="#000000">stdbool.h</text>
</g>
<!-- Node17&#45;&gt;Node18 -->
<g id="edge24" class="edge">
<title>Node17&#45;&gt;Node18</title>
<path fill="none" stroke="#191970" d="M386.4801,-224.2455C399.6751,-215.6534 419.1051,-203.0014 434.3079,-193.1018"/>
<polygon fill="#191970" stroke="#191970" points="436.2215,-196.0325 442.6916,-187.6427 432.4017,-190.1665 436.2215,-196.0325"/>
</g>
</g>
</svg>
