<?xml version="1.0" encoding="UTF-8" standalone="no"?>
<!DOCTYPE svg PUBLIC "-//W3C//DTD SVG 1.1//EN"
 "http://www.w3.org/Graphics/SVG/1.1/DTD/svg11.dtd">
<!-- Generated by graphviz version 2.43.0 (0)
 -->
<!-- Title: core/include/debug.h Pages: 1 -->
<svg width="544pt" height="364pt"
 viewBox="0.00 0.00 543.50 364.00" xmlns="http://www.w3.org/2000/svg" xmlns:xlink="http://www.w3.org/1999/xlink">
<g id="graph0" class="graph" transform="scale(1 1) rotate(0) translate(4 360)">
<title>core/include/debug.h</title>
<!-- Node1 -->
<g id="node1" class="node">
<title>Node1</title>
<g id="a_node1"><a xlink:title="Debug&#45;header.">
<polygon fill="#bfbfbf" stroke="black" points="205.5,-336.5 205.5,-355.5 323.5,-355.5 323.5,-336.5 205.5,-336.5"/>
<text text-anchor="middle" x="264.5" y="-343.5" font-family="Helvetica,sans-Serif" font-size="10.00">core/include/debug.h</text>
</a>
</g>
</g>
<!-- Node2 -->
<g id="node2" class="node">
<title>Node2</title>
<g id="a_node2"><a xlink:title=" ">
<polygon fill="none" stroke="#bfbfbf" points="151.5,-280.5 151.5,-299.5 201.5,-299.5 201.5,-280.5 151.5,-280.5"/>
<text text-anchor="middle" x="176.5" y="-287.5" font-family="Helvetica,sans-Serif" font-size="10.00">stdio.h</text>
</a>
</g>
</g>
<!-- Node1&#45;&gt;Node2 -->
<g id="edge1" class="edge">
<title>Node1&#45;&gt;Node2</title>
<path fill="none" stroke="midnightblue" d="M250.36,-336.32C236.63,-327.9 215.56,-314.97 199.44,-305.07"/>
<polygon fill="midnightblue" stroke="midnightblue" points="200.96,-301.9 190.6,-299.65 197.3,-307.87 200.96,-301.9"/>
</g>
<!-- Node3 -->
<g id="node3" class="node">
<title>Node3</title>
<g id="a_node3"><a xlink:href="sched_8h.html" target="_top" xlink:title="Scheduler API definition.">
<polygon fill="none" stroke="black" points="202.5,-168.5 202.5,-187.5 256.5,-187.5 256.5,-168.5 202.5,-168.5"/>
<text text-anchor="middle" x="229.5" y="-175.5" font-family="Helvetica,sans-Serif" font-size="10.00">sched.h</text>
</a>
</g>
</g>
<!-- Node1&#45;&gt;Node3 -->
<g id="edge2" class="edge">
<title>Node1&#45;&gt;Node3</title>
<path fill="none" stroke="midnightblue" d="M262.62,-336.08C257.11,-309.95 240.93,-233.21 233.42,-197.58"/>
<polygon fill="midnightblue" stroke="midnightblue" points="236.79,-196.63 231.31,-187.57 229.94,-198.08 236.79,-196.63"/>
</g>
<!-- Node11 -->
<g id="node11" class="node">
<title>Node11</title>
<g id="a_node11"><a xlink:href="core_2include_2thread_8h.html" target="_top" xlink:title="Threading API.">
<polygon fill="none" stroke="black" points="272,-280.5 272,-299.5 329,-299.5 329,-280.5 272,-280.5"/>
<text text-anchor="middle" x="300.5" y="-287.5" font-family="Helvetica,sans-Serif" font-size="10.00">thread.h</text>
</a>
</g>
</g>
<!-- Node1&#45;&gt;Node11 -->
<g id="edge12" class="edge">
<title>Node1&#45;&gt;Node11</title>
<path fill="none" stroke="midnightblue" d="M270.44,-336.08C275.48,-328.53 282.84,-317.49 289.01,-308.23"/>
<polygon fill="midnightblue" stroke="midnightblue" points="292.03,-310.01 294.67,-299.75 286.21,-306.13 292.03,-310.01"/>
</g>
<!-- Node17 -->
<g id="node17" class="node">
<title>Node17</title>
<g id="a_node17"><a xlink:title=" ">
<polygon fill="none" stroke="#bfbfbf" points="419.5,-224.5 419.5,-243.5 487.5,-243.5 487.5,-224.5 419.5,-224.5"/>
<text text-anchor="middle" x="453.5" y="-231.5" font-family="Helvetica,sans-Serif" font-size="10.00">cpu_conf.h</text>
</a>
</g>
</g>
<!-- Node1&#45;&gt;Node17 -->
<g id="edge24" class="edge">
<title>Node1&#45;&gt;Node17</title>
<path fill="none" stroke="midnightblue" d="M279.33,-336.37C312.04,-317.33 390.59,-271.62 430.05,-248.65"/>
<polygon fill="midnightblue" stroke="midnightblue" points="431.86,-251.65 438.74,-243.59 428.34,-245.6 431.86,-251.65"/>
</g>
<!-- Node4 -->
<g id="node4" class="node">
<title>Node4</title>
<g id="a_node4"><a xlink:title=" ">
<polygon fill="none" stroke="#bfbfbf" points="79.5,-0.5 79.5,-19.5 135.5,-19.5 135.5,-0.5 79.5,-0.5"/>
<text text-anchor="middle" x="107.5" y="-7.5" font-family="Helvetica,sans-Serif" font-size="10.00">stddef.h</text>
</a>
</g>
</g>
<!-- Node3&#45;&gt;Node4 -->
<g id="edge3" class="edge">
<title>Node3&#45;&gt;Node4</title>
<path fill="none" stroke="midnightblue" d="M202.22,-172.59C178.41,-167.24 144.86,-155.79 126.5,-132 103.52,-102.22 103.22,-55.82 105.24,-29.99"/>
<polygon fill="midnightblue" stroke="midnightblue" points="108.75,-29.99 106.25,-19.7 101.79,-29.31 108.75,-29.99"/>
</g>
<!-- Node5 -->
<g id="node5" class="node">
<title>Node5</title>
<g id="a_node5"><a xlink:href="inttypes_8h.html" target="_top" xlink:title="Adds include for missing inttype definitions.">
<polygon fill="none" stroke="black" points="136,-112.5 136,-131.5 201,-131.5 201,-112.5 136,-112.5"/>
<text text-anchor="middle" x="168.5" y="-119.5" font-family="Helvetica,sans-Serif" font-size="10.00">inttypes.h</text>
</a>
</g>
</g>
<!-- Node3&#45;&gt;Node5 -->
<g id="edge4" class="edge">
<title>Node3&#45;&gt;Node5</title>
<path fill="none" stroke="midnightblue" d="M219.7,-168.32C210.68,-160.34 197.09,-148.31 186.18,-138.65"/>
<polygon fill="midnightblue" stroke="midnightblue" points="188.29,-135.84 178.48,-131.83 183.65,-141.08 188.29,-135.84"/>
</g>
<!-- Node6 -->
<g id="node6" class="node">
<title>Node6</title>
<g id="a_node6"><a xlink:href="kernel__defines_8h.html" target="_top" xlink:title="Common macros and compiler attributes/pragmas configuration.">
<polygon fill="none" stroke="black" points="250,-56.5 250,-75.5 347,-75.5 347,-56.5 250,-56.5"/>
<text text-anchor="middle" x="298.5" y="-63.5" font-family="Helvetica,sans-Serif" font-size="10.00">kernel_defines.h</text>
</a>
</g>
</g>
<!-- Node3&#45;&gt;Node6 -->
<g id="edge5" class="edge">
<title>Node3&#45;&gt;Node6</title>
<path fill="none" stroke="midnightblue" d="M230.49,-168.39C232.31,-155.33 237.11,-130.12 248.5,-112 255.81,-100.38 266.95,-89.94 276.86,-82.05"/>
<polygon fill="midnightblue" stroke="midnightblue" points="279.26,-84.62 285.13,-75.81 275.04,-79.04 279.26,-84.62"/>
</g>
<!-- Node8 -->
<g id="node8" class="node">
<title>Node8</title>
<g id="a_node8"><a xlink:href="native__sched_8h.html" target="_top" xlink:title="Add definitions required on the native board.">
<polygon fill="none" stroke="black" points="257.5,-112.5 257.5,-131.5 347.5,-131.5 347.5,-112.5 257.5,-112.5"/>
<text text-anchor="middle" x="302.5" y="-119.5" font-family="Helvetica,sans-Serif" font-size="10.00">native_sched.h</text>
</a>
</g>
</g>
<!-- Node3&#45;&gt;Node8 -->
<g id="edge8" class="edge">
<title>Node3&#45;&gt;Node8</title>
<path fill="none" stroke="midnightblue" d="M241.23,-168.32C252.34,-160.11 269.24,-147.6 282.48,-137.81"/>
<polygon fill="midnightblue" stroke="midnightblue" points="284.6,-140.59 290.56,-131.83 280.44,-134.97 284.6,-140.59"/>
</g>
<!-- Node9 -->
<g id="node9" class="node">
<title>Node9</title>
<g id="a_node9"><a xlink:href="clist_8h.html" target="_top" xlink:title="Circular linked list.">
<polygon fill="none" stroke="black" points="33.5,-112.5 33.5,-131.5 79.5,-131.5 79.5,-112.5 33.5,-112.5"/>
<text text-anchor="middle" x="56.5" y="-119.5" font-family="Helvetica,sans-Serif" font-size="10.00">clist.h</text>
</a>
</g>
</g>
<!-- Node3&#45;&gt;Node9 -->
<g id="edge9" class="edge">
<title>Node3&#45;&gt;Node9</title>
<path fill="none" stroke="midnightblue" d="M202.47,-168.56C171.9,-159.02 122.11,-143.48 89.33,-133.25"/>
<polygon fill="midnightblue" stroke="midnightblue" points="90.33,-129.89 79.74,-130.25 88.24,-136.58 90.33,-129.89"/>
</g>
<!-- Node6&#45;&gt;Node4 -->
<g id="edge6" class="edge">
<title>Node6&#45;&gt;Node4</title>
<path fill="none" stroke="midnightblue" d="M268.24,-56.44C234.97,-47.04 181.47,-31.91 145.43,-21.72"/>
<polygon fill="midnightblue" stroke="midnightblue" points="146.33,-18.34 135.75,-18.99 144.43,-25.08 146.33,-18.34"/>
</g>
<!-- Node7 -->
<g id="node7" class="node">
<title>Node7</title>
<g id="a_node7"><a xlink:title=" ">
<polygon fill="none" stroke="#bfbfbf" points="345,-0.5 345,-19.5 398,-19.5 398,-0.5 345,-0.5"/>
<text text-anchor="middle" x="371.5" y="-7.5" font-family="Helvetica,sans-Serif" font-size="10.00">stdint.h</text>
</a>
</g>
</g>
<!-- Node6&#45;&gt;Node7 -->
<g id="edge7" class="edge">
<title>Node6&#45;&gt;Node7</title>
<path fill="none" stroke="midnightblue" d="M310.23,-56.32C321.34,-48.11 338.24,-35.6 351.48,-25.81"/>
<polygon fill="midnightblue" stroke="midnightblue" points="353.6,-28.59 359.56,-19.83 349.44,-22.97 353.6,-28.59"/>
</g>
<!-- Node9&#45;&gt;Node4 -->
<g id="edge10" class="edge">
<title>Node9&#45;&gt;Node4</title>
<path fill="none" stroke="midnightblue" d="M60.5,-112.37C68.81,-94.46 88.06,-52.92 99.18,-28.95"/>
<polygon fill="midnightblue" stroke="midnightblue" points="102.49,-30.14 103.52,-19.59 96.14,-27.19 102.49,-30.14"/>
</g>
<!-- Node10 -->
<g id="node10" class="node">
<title>Node10</title>
<g id="a_node10"><a xlink:href="list_8h.html" target="_top" xlink:title="Intrusive linked list.">
<polygon fill="none" stroke="black" points="0,-56.5 0,-75.5 41,-75.5 41,-56.5 0,-56.5"/>
<text text-anchor="middle" x="20.5" y="-63.5" font-family="Helvetica,sans-Serif" font-size="10.00">list.h</text>
</a>
</g>
</g>
<!-- Node9&#45;&gt;Node10 -->
<g id="edge11" class="edge">
<title>Node9&#45;&gt;Node10</title>
<path fill="none" stroke="midnightblue" d="M50.56,-112.08C45.52,-104.53 38.16,-93.49 31.99,-84.23"/>
<polygon fill="midnightblue" stroke="midnightblue" points="34.79,-82.13 26.33,-75.75 28.97,-86.01 34.79,-82.13"/>
</g>
<!-- Node11&#45;&gt;Node3 -->
<g id="edge23" class="edge">
<title>Node11&#45;&gt;Node3</title>
<path fill="none" stroke="midnightblue" d="M294.93,-280.37C283.26,-262.3 256.08,-220.18 240.67,-196.31"/>
<polygon fill="midnightblue" stroke="midnightblue" points="243.41,-194.1 235.05,-187.59 237.53,-197.89 243.41,-194.1"/>
</g>
<!-- Node11&#45;&gt;Node9 -->
<g id="edge13" class="edge">
<title>Node11&#45;&gt;Node9</title>
<path fill="none" stroke="midnightblue" d="M287.73,-280.31C248.03,-253.3 126.56,-170.67 77.44,-137.25"/>
<polygon fill="midnightblue" stroke="midnightblue" points="79.39,-134.34 69.15,-131.61 75.45,-140.12 79.39,-134.34"/>
</g>
<!-- Node12 -->
<g id="node12" class="node">
<title>Node12</title>
<g id="a_node12"><a xlink:href="cib_8h.html" target="_top" xlink:title="Circular integer buffer interface.">
<polygon fill="none" stroke="black" points="295.5,-224.5 295.5,-243.5 335.5,-243.5 335.5,-224.5 295.5,-224.5"/>
<text text-anchor="middle" x="315.5" y="-231.5" font-family="Helvetica,sans-Serif" font-size="10.00">cib.h</text>
</a>
</g>
</g>
<!-- Node11&#45;&gt;Node12 -->
<g id="edge14" class="edge">
<title>Node11&#45;&gt;Node12</title>
<path fill="none" stroke="midnightblue" d="M302.98,-280.08C304.99,-272.85 307.89,-262.41 310.39,-253.4"/>
<polygon fill="midnightblue" stroke="midnightblue" points="313.76,-254.32 313.07,-243.75 307.02,-252.45 313.76,-254.32"/>
</g>
<!-- Node15 -->
<g id="node15" class="node">
<title>Node15</title>
<g id="a_node15"><a xlink:href="msg_8h.html" target="_top" xlink:title="Messaging API for inter process communication.">
<polygon fill="none" stroke="black" points="354,-224.5 354,-243.5 401,-243.5 401,-224.5 354,-224.5"/>
<text text-anchor="middle" x="377.5" y="-231.5" font-family="Helvetica,sans-Serif" font-size="10.00">msg.h</text>
</a>
</g>
</g>
<!-- Node11&#45;&gt;Node15 -->
<g id="edge18" class="edge">
<title>Node11&#45;&gt;Node15</title>
<path fill="none" stroke="midnightblue" d="M312.87,-280.32C324.66,-272.06 342.63,-259.45 356.64,-249.63"/>
<polygon fill="midnightblue" stroke="midnightblue" points="358.98,-252.26 365.16,-243.65 354.96,-246.53 358.98,-252.26"/>
</g>
<!-- Node11&#45;&gt;Node17 -->
<g id="edge22" class="edge">
<title>Node11&#45;&gt;Node17</title>
<path fill="none" stroke="midnightblue" d="M324.74,-280.44C350.37,-271.4 390.99,-257.06 419.74,-246.92"/>
<polygon fill="midnightblue" stroke="midnightblue" points="421.11,-250.15 429.37,-243.52 418.78,-243.54 421.11,-250.15"/>
</g>
<!-- Node13 -->
<g id="node13" class="node">
<title>Node13</title>
<g id="a_node13"><a xlink:href="assert_8h.html" target="_top" xlink:title="POSIX.1&#45;2008 compliant version of the assert macro.">
<polygon fill="none" stroke="black" points="324.5,-168.5 324.5,-187.5 380.5,-187.5 380.5,-168.5 324.5,-168.5"/>
<text text-anchor="middle" x="352.5" y="-175.5" font-family="Helvetica,sans-Serif" font-size="10.00">assert.h</text>
</a>
</g>
</g>
<!-- Node12&#45;&gt;Node13 -->
<g id="edge15" class="edge">
<title>Node12&#45;&gt;Node13</title>
<path fill="none" stroke="midnightblue" d="M321.61,-224.08C326.78,-216.53 334.35,-205.49 340.69,-196.23"/>
<polygon fill="midnightblue" stroke="midnightblue" points="343.74,-197.98 346.5,-187.75 337.96,-194.02 343.74,-197.98"/>
</g>
<!-- Node14 -->
<g id="node14" class="node">
<title>Node14</title>
<g id="a_node14"><a xlink:href="panic_8h.html" target="_top" xlink:title="Crash handling header.">
<polygon fill="none" stroke="black" points="365.5,-112.5 365.5,-131.5 417.5,-131.5 417.5,-112.5 365.5,-112.5"/>
<text text-anchor="middle" x="391.5" y="-119.5" font-family="Helvetica,sans-Serif" font-size="10.00">panic.h</text>
</a>
</g>
</g>
<!-- Node13&#45;&gt;Node14 -->
<g id="edge16" class="edge">
<title>Node13&#45;&gt;Node14</title>
<path fill="none" stroke="midnightblue" d="M358.94,-168.08C364.45,-160.46 372.53,-149.26 379.26,-139.94"/>
<polygon fill="midnightblue" stroke="midnightblue" points="382.16,-141.91 385.18,-131.75 376.49,-137.81 382.16,-141.91"/>
</g>
<!-- Node14&#45;&gt;Node6 -->
<g id="edge17" class="edge">
<title>Node14&#45;&gt;Node6</title>
<path fill="none" stroke="midnightblue" d="M376.56,-112.32C361.91,-103.82 339.37,-90.73 322.26,-80.8"/>
<polygon fill="midnightblue" stroke="midnightblue" points="323.81,-77.65 313.4,-75.65 320.3,-83.7 323.81,-77.65"/>
</g>
<!-- Node15&#45;&gt;Node3 -->
<g id="edge21" class="edge">
<title>Node15&#45;&gt;Node3</title>
<path fill="none" stroke="midnightblue" d="M354.05,-224.44C329.37,-215.44 290.31,-201.19 262.52,-191.05"/>
<polygon fill="midnightblue" stroke="midnightblue" points="263.44,-187.66 252.84,-187.52 261.04,-194.23 263.44,-187.66"/>
</g>
<!-- Node15&#45;&gt;Node7 -->
<g id="edge19" class="edge">
<title>Node15&#45;&gt;Node7</title>
<path fill="none" stroke="midnightblue" d="M385.11,-224.47C401.49,-205.07 437.68,-155.93 426.5,-112 418.33,-79.91 397.66,-47 384.12,-27.81"/>
<polygon fill="midnightblue" stroke="midnightblue" points="386.83,-25.59 378.13,-19.56 381.16,-29.7 386.83,-25.59"/>
</g>
<!-- Node16 -->
<g id="node16" class="node">
<title>Node16</title>
<g id="a_node16"><a xlink:title=" ">
<polygon fill="none" stroke="#bfbfbf" points="473.5,-168.5 473.5,-187.5 535.5,-187.5 535.5,-168.5 473.5,-168.5"/>
<text text-anchor="middle" x="504.5" y="-175.5" font-family="Helvetica,sans-Serif" font-size="10.00">stdbool.h</text>
</a>
</g>
</g>
<!-- Node15&#45;&gt;Node16 -->
<g id="edge20" class="edge">
<title>Node15&#45;&gt;Node16</title>
<path fill="none" stroke="midnightblue" d="M397.62,-224.44C418.52,-215.56 451.43,-201.56 475.22,-191.45"/>
<polygon fill="midnightblue" stroke="midnightblue" points="476.64,-194.65 484.47,-187.52 473.9,-188.21 476.64,-194.65"/>
</g>
</g>
</svg>
