<?xml version="1.0" encoding="UTF-8" standalone="no"?>
<!DOCTYPE svg PUBLIC "-//W3C//DTD SVG 1.1//EN"
 "http://www.w3.org/Graphics/SVG/1.1/DTD/svg11.dtd">
<!-- Generated by graphviz version 2.43.0 (0)
 -->
<!-- Title: sys/include/usb/descriptor.h Pages: 1 -->
<svg width="504pt" height="218pt"
 viewBox="0.00 0.00 504.00 218.00" xmlns="http://www.w3.org/2000/svg" xmlns:xlink="http://www.w3.org/1999/xlink">
<g id="graph0" class="graph" transform="scale(1 1) rotate(0) translate(4 214)">
<title>sys/include/usb/descriptor.h</title>
<!-- Node1 -->
<g id="node1" class="node">
<title>Node1</title>
<g id="a_node1"><a xlink:title="Definitions for USB protocol messages.">
<polygon fill="#bfbfbf" stroke="black" points="199.5,-190.5 199.5,-209.5 351.5,-209.5 351.5,-190.5 199.5,-190.5"/>
<text text-anchor="middle" x="275.5" y="-197.5" font-family="Helvetica,sans-Serif" font-size="10.00">sys/include/usb/descriptor.h</text>
</a>
</g>
</g>
<!-- Node2 -->
<g id="node2" class="node">
<title>Node2</title>
<g id="a_node2"><a xlink:href="cdc_8h.html" target="_top" xlink:title="Definition for USB CDC interfaces.">
<polygon fill="none" stroke="black" points="37.5,-134.5 37.5,-153.5 157.5,-153.5 157.5,-134.5 37.5,-134.5"/>
<text text-anchor="middle" x="97.5" y="-141.5" font-family="Helvetica,sans-Serif" font-size="10.00">sys/include/usb/cdc.h</text>
</a>
</g>
</g>
<!-- Node1&#45;&gt;Node2 -->
<g id="edge1" class="edge">
<title>Node1&#45;&gt;Node2</title>
<path fill="none" stroke="midnightblue" d="M237.38,-187.44C203.82,-177.26 155.73,-162.66 125.57,-153.52"/>
<polygon fill="midnightblue" stroke="midnightblue" points="236.71,-190.89 247.3,-190.44 238.74,-184.19 236.71,-190.89"/>
</g>
<!-- Node5 -->
<g id="node5" class="node">
<title>Node5</title>
<g id="a_node5"><a xlink:href="ecm_8h.html" target="_top" xlink:title="Interface and definitions for USB CDC ECM type interfaces.">
<polygon fill="none" stroke="black" points="373,-0.5 373,-30.5 496,-30.5 496,-0.5 373,-0.5"/>
<text text-anchor="start" x="381" y="-18.5" font-family="Helvetica,sans-Serif" font-size="10.00">sys/include/usb/usbus</text>
<text text-anchor="middle" x="434.5" y="-7.5" font-family="Helvetica,sans-Serif" font-size="10.00">/cdc/ecm.h</text>
</a>
</g>
</g>
<!-- Node1&#45;&gt;Node5 -->
<g id="edge4" class="edge">
<title>Node1&#45;&gt;Node5</title>
<path fill="none" stroke="midnightblue" d="M314.53,-187.1C353.47,-172.88 411.06,-144.93 436.5,-98 447.97,-76.85 443.32,-47.85 438.91,-30.75"/>
<polygon fill="midnightblue" stroke="midnightblue" points="313.34,-183.81 305.06,-190.42 315.65,-190.41 313.34,-183.81"/>
</g>
<!-- Node6 -->
<g id="node6" class="node">
<title>Node6</title>
<g id="a_node6"><a xlink:href="usbus_8h.html" target="_top" xlink:title="USBUS basic interface.">
<polygon fill="none" stroke="black" points="209.5,-134.5 209.5,-153.5 341.5,-153.5 341.5,-134.5 209.5,-134.5"/>
<text text-anchor="middle" x="275.5" y="-141.5" font-family="Helvetica,sans-Serif" font-size="10.00">sys/include/usb/usbus.h</text>
</a>
</g>
</g>
<!-- Node1&#45;&gt;Node6 -->
<g id="edge5" class="edge">
<title>Node1&#45;&gt;Node6</title>
<path fill="none" stroke="midnightblue" d="M275.5,-179.8C275.5,-170.91 275.5,-160.78 275.5,-153.75"/>
<polygon fill="midnightblue" stroke="midnightblue" points="272,-180.08 275.5,-190.08 279,-180.08 272,-180.08"/>
</g>
<!-- Node3 -->
<g id="node3" class="node">
<title>Node3</title>
<g id="a_node3"><a xlink:href="acm_8h.html" target="_top" xlink:title="Interface and definitions for USB CDC ACM type interfaces in USBUS.">
<polygon fill="none" stroke="black" points="1,-67.5 1,-97.5 124,-97.5 124,-67.5 1,-67.5"/>
<text text-anchor="start" x="9" y="-85.5" font-family="Helvetica,sans-Serif" font-size="10.00">sys/include/usb/usbus</text>
<text text-anchor="middle" x="62.5" y="-74.5" font-family="Helvetica,sans-Serif" font-size="10.00">/cdc/acm.h</text>
</a>
</g>
</g>
<!-- Node2&#45;&gt;Node3 -->
<g id="edge2" class="edge">
<title>Node2&#45;&gt;Node3</title>
<path fill="none" stroke="midnightblue" d="M87.31,-125.68C82.05,-116.73 75.7,-105.94 70.75,-97.52"/>
<polygon fill="midnightblue" stroke="midnightblue" points="84.4,-127.63 92.49,-134.48 90.43,-124.08 84.4,-127.63"/>
</g>
<!-- Node4 -->
<g id="node4" class="node">
<title>Node4</title>
<g id="a_node4"><a xlink:href="usb__board__reset__internal_8h.html" target="_top" xlink:title=" ">
<polygon fill="none" stroke="black" points="0,-0.5 0,-30.5 125,-30.5 125,-0.5 0,-0.5"/>
<text text-anchor="start" x="8" y="-18.5" font-family="Helvetica,sans-Serif" font-size="10.00">sys/include/usb_board</text>
<text text-anchor="middle" x="62.5" y="-7.5" font-family="Helvetica,sans-Serif" font-size="10.00">_reset_internal.h</text>
</a>
</g>
</g>
<!-- Node3&#45;&gt;Node4 -->
<g id="edge3" class="edge">
<title>Node3&#45;&gt;Node4</title>
<path fill="none" stroke="midnightblue" d="M62.5,-57.11C62.5,-48.15 62.5,-38.32 62.5,-30.58"/>
<polygon fill="midnightblue" stroke="midnightblue" points="59,-57.4 62.5,-67.4 66,-57.4 59,-57.4"/>
</g>
<!-- Node6&#45;&gt;Node3 -->
<g id="edge6" class="edge">
<title>Node6&#45;&gt;Node3</title>
<path fill="none" stroke="midnightblue" d="M235.17,-131.73C200.41,-122.02 150.07,-107.96 112.7,-97.52"/>
<polygon fill="midnightblue" stroke="midnightblue" points="234.41,-135.16 244.98,-134.48 236.29,-128.41 234.41,-135.16"/>
</g>
<!-- Node6&#45;&gt;Node5 -->
<g id="edge7" class="edge">
<title>Node6&#45;&gt;Node5</title>
<path fill="none" stroke="midnightblue" d="M351.56,-133.41C374.93,-126.92 398.85,-116.07 415.5,-98 432.63,-79.41 435.25,-48.44 435.17,-30.51"/>
<polygon fill="midnightblue" stroke="midnightblue" points="350.43,-130.09 341.6,-135.94 352.16,-136.87 350.43,-130.09"/>
</g>
<!-- Node7 -->
<g id="node7" class="node">
<title>Node7</title>
<g id="a_node7"><a xlink:href="control_8h.html" target="_top" xlink:title="USBUS control endpoint module.">
<polygon fill="none" stroke="black" points="142,-67.5 142,-97.5 265,-97.5 265,-67.5 142,-67.5"/>
<text text-anchor="start" x="150" y="-85.5" font-family="Helvetica,sans-Serif" font-size="10.00">sys/include/usb/usbus</text>
<text text-anchor="middle" x="203.5" y="-74.5" font-family="Helvetica,sans-Serif" font-size="10.00">/control.h</text>
</a>
</g>
</g>
<!-- Node6&#45;&gt;Node7 -->
<g id="edge8" class="edge">
<title>Node6&#45;&gt;Node7</title>
<path fill="none" stroke="midnightblue" d="M257.25,-127.92C245.95,-118.58 231.53,-106.66 220.47,-97.52"/>
<polygon fill="midnightblue" stroke="midnightblue" points="255.25,-130.8 265.18,-134.48 259.71,-125.41 255.25,-130.8"/>
</g>
<!-- Node8 -->
<g id="node8" class="node">
<title>Node8</title>
<g id="a_node8"><a xlink:href="usb_2usbus_2fmt_8h.html" target="_top" xlink:title="USBUS descriptor formatter functions.">
<polygon fill="none" stroke="black" points="283,-67.5 283,-97.5 406,-97.5 406,-67.5 283,-67.5"/>
<text text-anchor="start" x="291" y="-85.5" font-family="Helvetica,sans-Serif" font-size="10.00">sys/include/usb/usbus</text>
<text text-anchor="middle" x="344.5" y="-74.5" font-family="Helvetica,sans-Serif" font-size="10.00">/fmt.h</text>
</a>
</g>
</g>
<!-- Node6&#45;&gt;Node8 -->
<g id="edge10" class="edge">
<title>Node6&#45;&gt;Node8</title>
<path fill="none" stroke="midnightblue" d="M292.99,-127.92C303.82,-118.58 317.64,-106.66 328.24,-97.52"/>
<polygon fill="midnightblue" stroke="midnightblue" points="290.67,-125.29 285.39,-134.48 295.24,-130.6 290.67,-125.29"/>
</g>
<!-- Node7&#45;&gt;Node5 -->
<g id="edge9" class="edge">
<title>Node7&#45;&gt;Node5</title>
<path fill="none" stroke="midnightblue" d="M263.15,-64.71C300.74,-54.14 348.73,-40.63 384.35,-30.61"/>
<polygon fill="midnightblue" stroke="midnightblue" points="262.02,-61.4 253.34,-67.48 263.91,-68.14 262.02,-61.4"/>
</g>
</g>
</svg>
