<?xml version="1.0" encoding="UTF-8" standalone="no"?>
<!DOCTYPE svg PUBLIC "-//W3C//DTD SVG 1.1//EN"
 "http://www.w3.org/Graphics/SVG/1.1/DTD/svg11.dtd">
<!-- Generated by graphviz version 2.43.0 (0)
 -->
<!-- Title: sys/include/fs/devfs.h Pages: 1 -->
<svg width="519pt" height="252pt"
 viewBox="0.00 0.00 518.84 252.00" xmlns="http://www.w3.org/2000/svg" xmlns:xlink="http://www.w3.org/1999/xlink">
<g id="graph0" class="graph" transform="scale(1 1) rotate(0) translate(4 248)">
<title>sys/include/fs/devfs.h</title>
<!-- Node1 -->
<g id="node1" class="node">
<title>Node1</title>
<g id="a_node1"><a xlink:title="DevFS public API.">
<polygon fill="#bfbfbf" stroke="black" points="288.34,-224.5 288.34,-243.5 410.34,-243.5 410.34,-224.5 288.34,-224.5"/>
<text text-anchor="middle" x="349.34" y="-231.5" font-family="Helvetica,sans-Serif" font-size="10.00">sys/include/fs/devfs.h</text>
</a>
</g>
</g>
<!-- Node2 -->
<g id="node2" class="node">
<title>Node2</title>
<g id="a_node2"><a xlink:href="clist_8h.html" target="_top" xlink:title="Circular linked list.">
<polygon fill="none" stroke="black" points="459.34,-56.5 459.34,-75.5 505.34,-75.5 505.34,-56.5 459.34,-56.5"/>
<text text-anchor="middle" x="482.34" y="-63.5" font-family="Helvetica,sans-Serif" font-size="10.00">clist.h</text>
</a>
</g>
</g>
<!-- Node1&#45;&gt;Node2 -->
<g id="edge1" class="edge">
<title>Node1&#45;&gt;Node2</title>
<path fill="none" stroke="midnightblue" d="M356.49,-224.08C377.79,-197.49 441.05,-118.54 468.91,-83.76"/>
<polygon fill="midnightblue" stroke="midnightblue" points="471.96,-85.56 475.48,-75.57 466.49,-81.18 471.96,-85.56"/>
</g>
<!-- Node5 -->
<g id="node5" class="node">
<title>Node5</title>
<g id="a_node5"><a xlink:href="vfs_8h.html" target="_top" xlink:title="VFS layer API declarations.">
<polygon fill="none" stroke="black" points="254.84,-168.5 254.84,-187.5 295.84,-187.5 295.84,-168.5 254.84,-168.5"/>
<text text-anchor="middle" x="275.34" y="-175.5" font-family="Helvetica,sans-Serif" font-size="10.00">vfs.h</text>
</a>
</g>
</g>
<!-- Node1&#45;&gt;Node5 -->
<g id="edge4" class="edge">
<title>Node1&#45;&gt;Node5</title>
<path fill="none" stroke="midnightblue" d="M337.45,-224.32C326.19,-216.11 309.06,-203.6 295.63,-193.81"/>
<polygon fill="midnightblue" stroke="midnightblue" points="297.59,-190.9 287.45,-187.83 293.46,-196.56 297.59,-190.9"/>
</g>
<!-- Node3 -->
<g id="node3" class="node">
<title>Node3</title>
<g id="a_node3"><a xlink:title=" ">
<polygon fill="none" stroke="#bfbfbf" points="395.34,-0.5 395.34,-19.5 451.34,-19.5 451.34,-0.5 395.34,-0.5"/>
<text text-anchor="middle" x="423.34" y="-7.5" font-family="Helvetica,sans-Serif" font-size="10.00">stddef.h</text>
</a>
</g>
</g>
<!-- Node2&#45;&gt;Node3 -->
<g id="edge2" class="edge">
<title>Node2&#45;&gt;Node3</title>
<path fill="none" stroke="midnightblue" d="M472.86,-56.32C464.14,-48.34 451,-36.31 440.44,-26.65"/>
<polygon fill="midnightblue" stroke="midnightblue" points="442.73,-24 432.99,-19.83 438.01,-29.17 442.73,-24"/>
</g>
<!-- Node4 -->
<g id="node4" class="node">
<title>Node4</title>
<g id="a_node4"><a xlink:href="list_8h.html" target="_top" xlink:title="Intrusive linked list.">
<polygon fill="none" stroke="black" points="469.84,-0.5 469.84,-19.5 510.84,-19.5 510.84,-0.5 469.84,-0.5"/>
<text text-anchor="middle" x="490.34" y="-7.5" font-family="Helvetica,sans-Serif" font-size="10.00">list.h</text>
</a>
</g>
</g>
<!-- Node2&#45;&gt;Node4 -->
<g id="edge3" class="edge">
<title>Node2&#45;&gt;Node4</title>
<path fill="none" stroke="midnightblue" d="M483.66,-56.08C484.72,-48.93 486.25,-38.64 487.57,-29.69"/>
<polygon fill="midnightblue" stroke="midnightblue" points="491.04,-30.16 489.05,-19.75 484.12,-29.13 491.04,-30.16"/>
</g>
<!-- Node5&#45;&gt;Node2 -->
<g id="edge19" class="edge">
<title>Node5&#45;&gt;Node2</title>
<path fill="none" stroke="midnightblue" d="M296.26,-171.25C321.04,-163.99 363.13,-150.21 396.34,-132 422.05,-117.9 448.51,-96.71 465.17,-82.39"/>
<polygon fill="midnightblue" stroke="midnightblue" points="467.7,-84.82 472.93,-75.6 463.09,-79.55 467.7,-84.82"/>
</g>
<!-- Node6 -->
<g id="node6" class="node">
<title>Node6</title>
<g id="a_node6"><a xlink:title=" ">
<polygon fill="none" stroke="#bfbfbf" points="94.84,-0.5 94.84,-19.5 147.84,-19.5 147.84,-0.5 94.84,-0.5"/>
<text text-anchor="middle" x="121.34" y="-7.5" font-family="Helvetica,sans-Serif" font-size="10.00">stdint.h</text>
</a>
</g>
</g>
<!-- Node5&#45;&gt;Node6 -->
<g id="edge5" class="edge">
<title>Node5&#45;&gt;Node6</title>
<path fill="none" stroke="midnightblue" d="M254.58,-176.69C198.49,-175.37 46.02,-168.45 15.34,-132 -6.41,-106.16 -3.3,-84.17 15.34,-56 30.69,-32.81 60.67,-21.53 84.83,-16.07"/>
<polygon fill="midnightblue" stroke="midnightblue" points="85.66,-19.47 94.78,-14.07 84.28,-12.61 85.66,-19.47"/>
</g>
<!-- Node7 -->
<g id="node7" class="node">
<title>Node7</title>
<g id="a_node7"><a xlink:title=" ">
<polygon fill="none" stroke="#bfbfbf" points="121.34,-112.5 121.34,-131.5 195.34,-131.5 195.34,-112.5 121.34,-112.5"/>
<text text-anchor="middle" x="158.34" y="-119.5" font-family="Helvetica,sans-Serif" font-size="10.00">stdatomic.h</text>
</a>
</g>
</g>
<!-- Node5&#45;&gt;Node7 -->
<g id="edge6" class="edge">
<title>Node5&#45;&gt;Node7</title>
<path fill="none" stroke="midnightblue" d="M256.8,-168.44C237.72,-159.64 207.77,-145.81 185.91,-135.72"/>
<polygon fill="midnightblue" stroke="midnightblue" points="187.34,-132.53 176.79,-131.52 184.41,-138.88 187.34,-132.53"/>
</g>
<!-- Node8 -->
<g id="node8" class="node">
<title>Node8</title>
<g id="a_node8"><a xlink:title=" ">
<polygon fill="none" stroke="#bfbfbf" points="213.34,-112.5 213.34,-131.5 277.34,-131.5 277.34,-112.5 213.34,-112.5"/>
<text text-anchor="middle" x="245.34" y="-119.5" font-family="Helvetica,sans-Serif" font-size="10.00">sys/stat.h</text>
</a>
</g>
</g>
<!-- Node5&#45;&gt;Node8 -->
<g id="edge7" class="edge">
<title>Node5&#45;&gt;Node8</title>
<path fill="none" stroke="midnightblue" d="M270.39,-168.08C266.24,-160.61 260.19,-149.72 255.08,-140.52"/>
<polygon fill="midnightblue" stroke="midnightblue" points="258.12,-138.79 250.2,-131.75 252,-142.19 258.12,-138.79"/>
</g>
<!-- Node9 -->
<g id="node9" class="node">
<title>Node9</title>
<g id="a_node9"><a xlink:title=" ">
<polygon fill="none" stroke="#bfbfbf" points="24.34,-56.5 24.34,-75.5 96.34,-75.5 96.34,-56.5 24.34,-56.5"/>
<text text-anchor="middle" x="60.34" y="-63.5" font-family="Helvetica,sans-Serif" font-size="10.00">sys/types.h</text>
</a>
</g>
</g>
<!-- Node5&#45;&gt;Node9 -->
<g id="edge8" class="edge">
<title>Node5&#45;&gt;Node9</title>
<path fill="none" stroke="midnightblue" d="M280.63,-168.33C288.17,-154.74 299.7,-128.28 286.34,-112 285.98,-111.56 172.78,-89.17 106.75,-76.15"/>
<polygon fill="midnightblue" stroke="midnightblue" points="107.07,-72.64 96.58,-74.14 105.71,-79.51 107.07,-72.64"/>
</g>
<!-- Node10 -->
<g id="node10" class="node">
<title>Node10</title>
<g id="a_node10"><a xlink:href="statvfs_8h.html" target="_top" xlink:title="POSIX compatible sys/statvfs.h definitions.">
<polygon fill="none" stroke="black" points="23.84,-112.5 23.84,-131.5 102.84,-131.5 102.84,-112.5 23.84,-112.5"/>
<text text-anchor="middle" x="63.34" y="-119.5" font-family="Helvetica,sans-Serif" font-size="10.00">sys/statvfs.h</text>
</a>
</g>
</g>
<!-- Node5&#45;&gt;Node10 -->
<g id="edge9" class="edge">
<title>Node5&#45;&gt;Node10</title>
<path fill="none" stroke="midnightblue" d="M254.63,-171.72C220.53,-163.04 151.88,-145.55 106.77,-134.06"/>
<polygon fill="midnightblue" stroke="midnightblue" points="107.52,-130.64 96.96,-131.56 105.79,-137.42 107.52,-130.64"/>
</g>
<!-- Node11 -->
<g id="node11" class="node">
<title>Node11</title>
<g id="a_node11"><a xlink:href="sched_8h.html" target="_top" xlink:title="Scheduler API definition.">
<polygon fill="none" stroke="black" points="333.34,-112.5 333.34,-131.5 387.34,-131.5 387.34,-112.5 333.34,-112.5"/>
<text text-anchor="middle" x="360.34" y="-119.5" font-family="Helvetica,sans-Serif" font-size="10.00">sched.h</text>
</a>
</g>
</g>
<!-- Node5&#45;&gt;Node11 -->
<g id="edge11" class="edge">
<title>Node5&#45;&gt;Node11</title>
<path fill="none" stroke="midnightblue" d="M289,-168.32C302.26,-159.9 322.61,-146.97 338.19,-137.07"/>
<polygon fill="midnightblue" stroke="midnightblue" points="340.16,-139.97 346.72,-131.65 336.4,-134.06 340.16,-139.97"/>
</g>
<!-- Node10&#45;&gt;Node9 -->
<g id="edge10" class="edge">
<title>Node10&#45;&gt;Node9</title>
<path fill="none" stroke="midnightblue" d="M62.85,-112.08C62.45,-105.01 61.89,-94.86 61.4,-85.99"/>
<polygon fill="midnightblue" stroke="midnightblue" points="64.88,-85.54 60.83,-75.75 57.89,-85.93 64.88,-85.54"/>
</g>
<!-- Node11&#45;&gt;Node2 -->
<g id="edge18" class="edge">
<title>Node11&#45;&gt;Node2</title>
<path fill="none" stroke="midnightblue" d="M379.67,-112.44C399.66,-103.6 431.09,-89.69 453.91,-79.59"/>
<polygon fill="midnightblue" stroke="midnightblue" points="455.37,-82.76 463.1,-75.52 452.54,-76.36 455.37,-82.76"/>
</g>
<!-- Node11&#45;&gt;Node3 -->
<g id="edge12" class="edge">
<title>Node11&#45;&gt;Node3</title>
<path fill="none" stroke="midnightblue" d="M375.19,-112.27C387.22,-104.37 403.56,-91.61 412.34,-76 420.32,-61.82 422.83,-43.34 423.49,-29.71"/>
<polygon fill="midnightblue" stroke="midnightblue" points="426.99,-29.67 423.68,-19.6 419.99,-29.53 426.99,-29.67"/>
</g>
<!-- Node12 -->
<g id="node12" class="node">
<title>Node12</title>
<g id="a_node12"><a xlink:href="inttypes_8h.html" target="_top" xlink:title="Adds include for missing inttype definitions.">
<polygon fill="none" stroke="black" points="114.84,-56.5 114.84,-75.5 179.84,-75.5 179.84,-56.5 114.84,-56.5"/>
<text text-anchor="middle" x="147.34" y="-63.5" font-family="Helvetica,sans-Serif" font-size="10.00">inttypes.h</text>
</a>
</g>
</g>
<!-- Node11&#45;&gt;Node12 -->
<g id="edge13" class="edge">
<title>Node11&#45;&gt;Node12</title>
<path fill="none" stroke="midnightblue" d="M332.93,-114.05C296.63,-104.85 232.24,-88.52 189.67,-77.73"/>
<polygon fill="midnightblue" stroke="midnightblue" points="190.43,-74.31 179.87,-75.25 188.71,-81.1 190.43,-74.31"/>
</g>
<!-- Node13 -->
<g id="node13" class="node">
<title>Node13</title>
<g id="a_node13"><a xlink:href="kernel__defines_8h.html" target="_top" xlink:title="Common macros and compiler attributes/pragmas configuration.">
<polygon fill="none" stroke="black" points="197.84,-56.5 197.84,-75.5 294.84,-75.5 294.84,-56.5 197.84,-56.5"/>
<text text-anchor="middle" x="246.34" y="-63.5" font-family="Helvetica,sans-Serif" font-size="10.00">kernel_defines.h</text>
</a>
</g>
</g>
<!-- Node11&#45;&gt;Node13 -->
<g id="edge14" class="edge">
<title>Node11&#45;&gt;Node13</title>
<path fill="none" stroke="midnightblue" d="M342.28,-112.44C323.77,-103.68 294.76,-89.94 273.49,-79.86"/>
<polygon fill="midnightblue" stroke="midnightblue" points="274.86,-76.63 264.32,-75.52 271.86,-82.96 274.86,-76.63"/>
</g>
<!-- Node14 -->
<g id="node14" class="node">
<title>Node14</title>
<g id="a_node14"><a xlink:href="native__sched_8h.html" target="_top" xlink:title="Add definitions required on the native board.">
<polygon fill="none" stroke="black" points="313.34,-56.5 313.34,-75.5 403.34,-75.5 403.34,-56.5 313.34,-56.5"/>
<text text-anchor="middle" x="358.34" y="-63.5" font-family="Helvetica,sans-Serif" font-size="10.00">native_sched.h</text>
</a>
</g>
</g>
<!-- Node11&#45;&gt;Node14 -->
<g id="edge17" class="edge">
<title>Node11&#45;&gt;Node14</title>
<path fill="none" stroke="midnightblue" d="M360.01,-112.08C359.75,-105.01 359.37,-94.86 359.05,-85.99"/>
<polygon fill="midnightblue" stroke="midnightblue" points="362.53,-85.61 358.67,-75.75 355.54,-85.87 362.53,-85.61"/>
</g>
<!-- Node13&#45;&gt;Node3 -->
<g id="edge15" class="edge">
<title>Node13&#45;&gt;Node3</title>
<path fill="none" stroke="midnightblue" d="M274.39,-56.44C304.42,-47.28 352.26,-32.69 385.59,-22.52"/>
<polygon fill="midnightblue" stroke="midnightblue" points="386.88,-25.78 395.43,-19.52 384.84,-19.09 386.88,-25.78"/>
</g>
<!-- Node13&#45;&gt;Node6 -->
<g id="edge16" class="edge">
<title>Node13&#45;&gt;Node6</title>
<path fill="none" stroke="midnightblue" d="M226.54,-56.44C206.06,-47.6 173.86,-33.69 150.48,-23.59"/>
<polygon fill="midnightblue" stroke="midnightblue" points="151.62,-20.27 141.06,-19.52 148.85,-26.7 151.62,-20.27"/>
</g>
</g>
</svg>
