<?xml version="1.0" encoding="UTF-8" standalone="no"?>
<!DOCTYPE svg PUBLIC "-//W3C//DTD SVG 1.1//EN"
 "http://www.w3.org/Graphics/SVG/1.1/DTD/svg11.dtd">
<!-- Generated by graphviz version 2.40.1 (20161225.0304)
 -->
<!-- Title: drivers/dfplayer/include/dfplayer_implementation.h Pages: 1 -->
<svg width="142pt" height="95pt"
 viewBox="0.00 0.00 142.00 95.00" xmlns="http://www.w3.org/2000/svg" xmlns:xlink="http://www.w3.org/1999/xlink">
<g id="graph0" class="graph" transform="scale(1 1) rotate(0) translate(4 91)">
<title>drivers/dfplayer/include/dfplayer_implementation.h</title>
<!-- Node23 -->
<g id="node1" class="node">
<title>Node23</title>
<polygon fill="#bfbfbf" stroke="#000000" points="0,-56.5 0,-86.5 134,-86.5 134,-56.5 0,-56.5"/>
<text text-anchor="start" x="8" y="-74.5" font-family="Helvetica,sans-Serif" font-size="10.00" fill="#000000">drivers/dfplayer/include</text>
<text text-anchor="middle" x="67" y="-63.5" font-family="Helvetica,sans-Serif" font-size="10.00" fill="#000000">/dfplayer_implementation.h</text>
</g>
<!-- Node24 -->
<g id="node2" class="node">
<title>Node24</title>
<g id="a_node2"><a xlink:href="dfplayer_8h.html" target="_top" xlink:title="DFPlayer Mini Device Driver. ">
<polygon fill="none" stroke="#000000" points="4.5,-.5 4.5,-19.5 129.5,-19.5 129.5,-.5 4.5,-.5"/>
<text text-anchor="middle" x="67" y="-7.5" font-family="Helvetica,sans-Serif" font-size="10.00" fill="#000000">drivers/include/dfplayer.h</text>
</a>
</g>
</g>
<!-- Node23&#45;&gt;Node24 -->
<g id="edge1" class="edge">
<title>Node23&#45;&gt;Node24</title>
<path fill="none" stroke="#191970" d="M60.3481,-46.2849C60.0151,-36.9858 60.5296,-26.9883 61.8917,-19.8469"/>
<polygon fill="#191970" stroke="#191970" points="56.8604,-46.5813 61.0843,-56.2977 63.8416,-46.068 56.8604,-46.5813"/>
</g>
<!-- Node24&#45;&gt;Node23 -->
<g id="edge2" class="edge">
<title>Node24&#45;&gt;Node23</title>
<path fill="none" stroke="#191970" d="M73.3534,-29.7889C74.0013,-38.3843 73.8554,-48.2945 72.9157,-56.2977"/>
<polygon fill="#191970" stroke="#191970" points="76.824,-29.3345 72.1083,-19.8469 69.8782,-30.2044 76.824,-29.3345"/>
</g>
</g>
</svg>
