<?xml version="1.0" encoding="UTF-8" standalone="no"?>
<!DOCTYPE svg PUBLIC "-//W3C//DTD SVG 1.1//EN"
 "http://www.w3.org/Graphics/SVG/1.1/DTD/svg11.dtd">
<!-- Generated by graphviz version 2.40.1 (20161225.0304)
 -->
<!-- Title: drivers/dfplayer/include/dfplayer_internal.h Pages: 1 -->
<svg width="678pt" height="263pt"
 viewBox="0.00 0.00 677.51 263.00" xmlns="http://www.w3.org/2000/svg" xmlns:xlink="http://www.w3.org/1999/xlink">
<g id="graph0" class="graph" transform="scale(1 1) rotate(0) translate(4 259)">
<title>drivers/dfplayer/include/dfplayer_internal.h</title>
<!-- Node0 -->
<g id="node1" class="node">
<title>Node0</title>
<polygon fill="#bfbfbf" stroke="#000000" points="55,-224.5 55,-254.5 172,-254.5 172,-224.5 55,-224.5"/>
<text text-anchor="start" x="63" y="-242.5" font-family="Helvetica,sans-Serif" font-size="10.00" fill="#000000">drivers/dfplayer/include</text>
<text text-anchor="middle" x="113.5" y="-231.5" font-family="Helvetica,sans-Serif" font-size="10.00" fill="#000000">/dfplayer_internal.h</text>
</g>
<!-- Node1 -->
<g id="node2" class="node">
<title>Node1</title>
<polygon fill="none" stroke="#bfbfbf" points="0,-56.5 0,-75.5 49,-75.5 49,-56.5 0,-56.5"/>
<text text-anchor="middle" x="24.5" y="-63.5" font-family="Helvetica,sans-Serif" font-size="10.00" fill="#000000">stdint.h</text>
</g>
<!-- Node0&#45;&gt;Node1 -->
<g id="edge1" class="edge">
<title>Node0&#45;&gt;Node1</title>
<path fill="none" stroke="#191970" d="M105.7575,-224.4065C89.514,-192.7408 51.9134,-119.4408 34.1396,-84.7918"/>
<polygon fill="#191970" stroke="#191970" points="37.1737,-83.0382 29.4953,-75.738 30.9454,-86.2331 37.1737,-83.0382"/>
</g>
<!-- Node2 -->
<g id="node3" class="node">
<title>Node2</title>
<g id="a_node3"><a xlink:href="dfplayer__types_8h.html" target="_top" xlink:title="Types used in the DFPlayer Mini Device Driver. ">
<polygon fill="none" stroke="#000000" points="168,-168.5 168,-187.5 257,-187.5 257,-168.5 168,-168.5"/>
<text text-anchor="middle" x="212.5" y="-175.5" font-family="Helvetica,sans-Serif" font-size="10.00" fill="#000000">dfplayer_types.h</text>
</a>
</g>
</g>
<!-- Node0&#45;&gt;Node2 -->
<g id="edge2" class="edge">
<title>Node0&#45;&gt;Node2</title>
<path fill="none" stroke="#191970" d="M137.7181,-224.4554C153.0773,-214.9141 172.8757,-202.6151 188.2425,-193.0691"/>
<polygon fill="#191970" stroke="#191970" points="190.511,-195.7802 197.1585,-187.5303 186.8172,-189.8341 190.511,-195.7802"/>
</g>
<!-- Node2&#45;&gt;Node1 -->
<g id="edge4" class="edge">
<title>Node2&#45;&gt;Node1</title>
<path fill="none" stroke="#191970" d="M175.9831,-168.4489C150.9629,-160.897 117.6953,-148.812 91.5,-132 70.8238,-118.7301 51.3066,-98.2583 38.729,-83.6351"/>
<polygon fill="#191970" stroke="#191970" points="41.2722,-81.2205 32.1692,-75.7997 35.9049,-85.7141 41.2722,-81.2205"/>
</g>
<!-- Node3 -->
<g id="node4" class="node">
<title>Node3</title>
<polygon fill="none" stroke="#bfbfbf" points="270.5,-112.5 270.5,-131.5 326.5,-131.5 326.5,-112.5 270.5,-112.5"/>
<text text-anchor="middle" x="298.5" y="-119.5" font-family="Helvetica,sans-Serif" font-size="10.00" fill="#000000">stdbool.h</text>
</g>
<!-- Node2&#45;&gt;Node3 -->
<g id="edge3" class="edge">
<title>Node2&#45;&gt;Node3</title>
<path fill="none" stroke="#191970" d="M227.4801,-168.2455C240.6751,-159.6534 260.1051,-147.0014 275.3079,-137.1018"/>
<polygon fill="#191970" stroke="#191970" points="277.2215,-140.0325 283.6916,-131.6427 273.4017,-134.1665 277.2215,-140.0325"/>
</g>
<!-- Node4 -->
<g id="node5" class="node">
<title>Node4</title>
<g id="a_node5"><a xlink:href="kernel__types_8h.html" target="_top" xlink:title="Types used by the kernel. ">
<polygon fill="none" stroke="#000000" points="172.5,-112.5 172.5,-131.5 252.5,-131.5 252.5,-112.5 172.5,-112.5"/>
<text text-anchor="middle" x="212.5" y="-119.5" font-family="Helvetica,sans-Serif" font-size="10.00" fill="#000000">kernel_types.h</text>
</a>
</g>
</g>
<!-- Node2&#45;&gt;Node4 -->
<g id="edge5" class="edge">
<title>Node2&#45;&gt;Node4</title>
<path fill="none" stroke="#191970" d="M212.5,-168.2455C212.5,-160.9382 212.5,-150.6944 212.5,-141.7046"/>
<polygon fill="#191970" stroke="#191970" points="216.0001,-141.6426 212.5,-131.6427 209.0001,-141.6427 216.0001,-141.6426"/>
</g>
<!-- Node9 -->
<g id="node10" class="node">
<title>Node9</title>
<g id="a_node10"><a xlink:href="mutex_8h.html" target="_top" xlink:title="Mutex for thread synchronization. ">
<polygon fill="none" stroke="#000000" points="100.5,-112.5 100.5,-131.5 152.5,-131.5 152.5,-112.5 100.5,-112.5"/>
<text text-anchor="middle" x="126.5" y="-119.5" font-family="Helvetica,sans-Serif" font-size="10.00" fill="#000000">mutex.h</text>
</a>
</g>
</g>
<!-- Node2&#45;&gt;Node9 -->
<g id="edge11" class="edge">
<title>Node2&#45;&gt;Node9</title>
<path fill="none" stroke="#191970" d="M197.5199,-168.2455C184.3249,-159.6534 164.8949,-147.0014 149.6921,-137.1018"/>
<polygon fill="#191970" stroke="#191970" points="151.5983,-134.1665 141.3084,-131.6427 147.7785,-140.0325 151.5983,-134.1665"/>
</g>
<!-- Node11 -->
<g id="node12" class="node">
<title>Node11</title>
<g id="a_node12"><a xlink:href="gpio_8h.html" target="_top" xlink:title="Low&#45;level GPIO peripheral driver interface definitions. ">
<polygon fill="none" stroke="#000000" points="509.5,-112.5 509.5,-131.5 581.5,-131.5 581.5,-112.5 509.5,-112.5"/>
<text text-anchor="middle" x="545.5" y="-119.5" font-family="Helvetica,sans-Serif" font-size="10.00" fill="#000000">periph/gpio.h</text>
</a>
</g>
</g>
<!-- Node2&#45;&gt;Node11 -->
<g id="edge15" class="edge">
<title>Node2&#45;&gt;Node11</title>
<path fill="none" stroke="#191970" d="M257.0643,-170.5057C320.1871,-159.8905 435.069,-140.571 499.151,-129.7944"/>
<polygon fill="#191970" stroke="#191970" points="500.0823,-133.187 509.3633,-128.077 498.9214,-126.284 500.0823,-133.187"/>
</g>
<!-- Node14 -->
<g id="node15" class="node">
<title>Node14</title>
<g id="a_node15"><a xlink:href="uart_8h.html" target="_top" xlink:title="Low&#45;level UART peripheral driver interface definition. ">
<polygon fill="none" stroke="#000000" points="346,-112.5 346,-131.5 417,-131.5 417,-112.5 346,-112.5"/>
<text text-anchor="middle" x="381.5" y="-119.5" font-family="Helvetica,sans-Serif" font-size="10.00" fill="#000000">periph/uart.h</text>
</a>
</g>
</g>
<!-- Node2&#45;&gt;Node14 -->
<g id="edge19" class="edge">
<title>Node2&#45;&gt;Node14</title>
<path fill="none" stroke="#191970" d="M241.5521,-168.3733C269.6543,-159.0613 312.4054,-144.8953 343.2607,-134.671"/>
<polygon fill="#191970" stroke="#191970" points="344.4355,-137.969 352.827,-131.5011 342.2336,-131.3243 344.4355,-137.969"/>
</g>
<!-- Node4&#45;&gt;Node1 -->
<g id="edge6" class="edge">
<title>Node4&#45;&gt;Node1</title>
<path fill="none" stroke="#191970" d="M180.1816,-112.3733C146.3562,-102.2976 93.4522,-86.539 58.8765,-76.2398"/>
<polygon fill="#191970" stroke="#191970" points="59.7921,-72.8606 49.2091,-73.3601 57.7937,-79.5693 59.7921,-72.8606"/>
</g>
<!-- Node5 -->
<g id="node6" class="node">
<title>Node5</title>
<g id="a_node6"><a xlink:href="inttypes_8h.html" target="_top" xlink:title="Adds include for missing inttype definitions. ">
<polygon fill="none" stroke="#000000" points="210,-56.5 210,-75.5 269,-75.5 269,-56.5 210,-56.5"/>
<text text-anchor="middle" x="239.5" y="-63.5" font-family="Helvetica,sans-Serif" font-size="10.00" fill="#000000">inttypes.h</text>
</a>
</g>
</g>
<!-- Node4&#45;&gt;Node5 -->
<g id="edge7" class="edge">
<title>Node4&#45;&gt;Node5</title>
<path fill="none" stroke="#191970" d="M217.203,-112.2455C220.8424,-104.6973 225.9924,-94.0158 230.4262,-84.8197"/>
<polygon fill="#191970" stroke="#191970" points="233.6605,-86.1704 234.8509,-75.6427 227.3551,-83.1303 233.6605,-86.1704"/>
</g>
<!-- Node6 -->
<g id="node7" class="node">
<title>Node6</title>
<polygon fill="none" stroke="#bfbfbf" points="357.5,-56.5 357.5,-75.5 405.5,-75.5 405.5,-56.5 357.5,-56.5"/>
<text text-anchor="middle" x="381.5" y="-63.5" font-family="Helvetica,sans-Serif" font-size="10.00" fill="#000000">limits.h</text>
</g>
<!-- Node4&#45;&gt;Node6 -->
<g id="edge8" class="edge">
<title>Node4&#45;&gt;Node6</title>
<path fill="none" stroke="#191970" d="M241.5521,-112.3733C271.102,-102.5816 316.8489,-87.4229 347.9309,-77.1235"/>
<polygon fill="#191970" stroke="#191970" points="349.0765,-80.4311 357.468,-73.9633 346.8746,-73.7864 349.0765,-80.4311"/>
</g>
<!-- Node7 -->
<g id="node8" class="node">
<title>Node7</title>
<polygon fill="none" stroke="#bfbfbf" points="287.5,-56.5 287.5,-75.5 339.5,-75.5 339.5,-56.5 287.5,-56.5"/>
<text text-anchor="middle" x="313.5" y="-63.5" font-family="Helvetica,sans-Serif" font-size="10.00" fill="#000000">stddef.h</text>
</g>
<!-- Node4&#45;&gt;Node7 -->
<g id="edge9" class="edge">
<title>Node4&#45;&gt;Node7</title>
<path fill="none" stroke="#191970" d="M230.0929,-112.2455C245.879,-103.4928 269.2639,-90.527 287.2587,-80.5496"/>
<polygon fill="#191970" stroke="#191970" points="289.0603,-83.5528 296.1087,-75.6427 285.6659,-77.4308 289.0603,-83.5528"/>
</g>
<!-- Node8 -->
<g id="node9" class="node">
<title>Node8</title>
<polygon fill="none" stroke="#bfbfbf" points="123.5,-56.5 123.5,-75.5 191.5,-75.5 191.5,-56.5 123.5,-56.5"/>
<text text-anchor="middle" x="157.5" y="-63.5" font-family="Helvetica,sans-Serif" font-size="10.00" fill="#000000">sys/types.h</text>
</g>
<!-- Node4&#45;&gt;Node8 -->
<g id="edge10" class="edge">
<title>Node4&#45;&gt;Node8</title>
<path fill="none" stroke="#191970" d="M202.9197,-112.2455C194.9542,-104.1352 183.4359,-92.4075 173.9921,-82.7919"/>
<polygon fill="#191970" stroke="#191970" points="176.4747,-80.3247 166.9705,-75.6427 171.4805,-85.2297 176.4747,-80.3247"/>
</g>
<!-- Node9&#45;&gt;Node1 -->
<g id="edge13" class="edge">
<title>Node9&#45;&gt;Node1</title>
<path fill="none" stroke="#191970" d="M108.733,-112.2455C92.7905,-103.4928 69.1741,-90.527 51.0011,-80.5496"/>
<polygon fill="#191970" stroke="#191970" points="52.5137,-77.3873 42.0634,-75.6427 49.1448,-83.5233 52.5137,-77.3873"/>
</g>
<!-- Node9&#45;&gt;Node7 -->
<g id="edge12" class="edge">
<title>Node9&#45;&gt;Node7</title>
<path fill="none" stroke="#191970" d="M152.5015,-114.2134C185.0664,-104.4614 241.0219,-87.7047 277.639,-76.7391"/>
<polygon fill="#191970" stroke="#191970" points="278.843,-80.0322 287.4185,-73.8105 276.8348,-73.3265 278.843,-80.0322"/>
</g>
<!-- Node10 -->
<g id="node11" class="node">
<title>Node10</title>
<g id="a_node11"><a xlink:href="list_8h.html" target="_top" xlink:title="Intrusive linked list. ">
<polygon fill="none" stroke="#000000" points="67.5,-56.5 67.5,-75.5 105.5,-75.5 105.5,-56.5 67.5,-56.5"/>
<text text-anchor="middle" x="86.5" y="-63.5" font-family="Helvetica,sans-Serif" font-size="10.00" fill="#000000">list.h</text>
</a>
</g>
</g>
<!-- Node9&#45;&gt;Node10 -->
<g id="edge14" class="edge">
<title>Node9&#45;&gt;Node10</title>
<path fill="none" stroke="#191970" d="M119.5325,-112.2455C113.9689,-104.4564 106.022,-93.3308 99.3171,-83.9439"/>
<polygon fill="#191970" stroke="#191970" points="102.0481,-81.7457 93.3876,-75.6427 96.352,-85.8144 102.0481,-81.7457"/>
</g>
<!-- Node11&#45;&gt;Node6 -->
<g id="edge16" class="edge">
<title>Node11&#45;&gt;Node6</title>
<path fill="none" stroke="#191970" d="M517.3074,-112.3733C489.0028,-102.7083 445.3844,-87.8142 415.2537,-77.5256"/>
<polygon fill="#191970" stroke="#191970" points="416.1887,-74.1465 405.5941,-74.2273 413.9266,-80.771 416.1887,-74.1465"/>
</g>
<!-- Node12 -->
<g id="node13" class="node">
<title>Node12</title>
<polygon fill="none" stroke="#bfbfbf" points="583.5,-56.5 583.5,-75.5 655.5,-75.5 655.5,-56.5 583.5,-56.5"/>
<text text-anchor="middle" x="619.5" y="-63.5" font-family="Helvetica,sans-Serif" font-size="10.00" fill="#000000">periph_cpu.h</text>
</g>
<!-- Node11&#45;&gt;Node12 -->
<g id="edge17" class="edge">
<title>Node11&#45;&gt;Node12</title>
<path fill="none" stroke="#191970" d="M558.3898,-112.2455C569.4254,-103.8943 585.5292,-91.7076 598.4353,-81.9408"/>
<polygon fill="#191970" stroke="#191970" points="600.8959,-84.4681 606.7579,-75.6427 596.6717,-78.8862 600.8959,-84.4681"/>
</g>
<!-- Node13 -->
<g id="node14" class="node">
<title>Node13</title>
<polygon fill="none" stroke="#bfbfbf" points="518,-.5 518,-19.5 593,-19.5 593,-.5 518,-.5"/>
<text text-anchor="middle" x="555.5" y="-7.5" font-family="Helvetica,sans-Serif" font-size="10.00" fill="#000000">periph_conf.h</text>
</g>
<!-- Node11&#45;&gt;Node13 -->
<g id="edge18" class="edge">
<title>Node11&#45;&gt;Node13</title>
<path fill="none" stroke="#191970" d="M581.618,-112.8653C612.9481,-104.1245 654.7624,-90.2039 664.5,-76 683.7336,-47.9446 640.5412,-29.7813 602.9734,-19.7481"/>
<polygon fill="#191970" stroke="#191970" points="603.6379,-16.3061 593.0853,-17.2519 601.9244,-23.0932 603.6379,-16.3061"/>
</g>
<!-- Node14&#45;&gt;Node1 -->
<g id="edge21" class="edge">
<title>Node14&#45;&gt;Node1</title>
<path fill="none" stroke="#191970" d="M345.8983,-113.9483C342.3926,-113.2494 338.8821,-112.5863 335.5,-112 216.4032,-91.3539 181.7923,-101.0464 59.4075,-75.894"/>
<polygon fill="#191970" stroke="#191970" points="59.7728,-72.3947 49.2679,-73.7726 58.3392,-79.2464 59.7728,-72.3947"/>
</g>
<!-- Node14&#45;&gt;Node6 -->
<g id="edge22" class="edge">
<title>Node14&#45;&gt;Node6</title>
<path fill="none" stroke="#191970" d="M381.5,-112.2455C381.5,-104.9382 381.5,-94.6944 381.5,-85.7046"/>
<polygon fill="#191970" stroke="#191970" points="385.0001,-85.6426 381.5,-75.6427 378.0001,-85.6427 385.0001,-85.6426"/>
</g>
<!-- Node14&#45;&gt;Node7 -->
<g id="edge20" class="edge">
<title>Node14&#45;&gt;Node7</title>
<path fill="none" stroke="#191970" d="M369.6553,-112.2455C359.612,-103.9746 345.0005,-91.9416 333.1996,-82.2232"/>
<polygon fill="#191970" stroke="#191970" points="335.1533,-79.298 325.209,-75.6427 330.7033,-84.7015 335.1533,-79.298"/>
</g>
<!-- Node14&#45;&gt;Node12 -->
<g id="edge23" class="edge">
<title>Node14&#45;&gt;Node12</title>
<path fill="none" stroke="#191970" d="M417.131,-113.6162C458.7235,-103.8298 527.6223,-87.6183 573.2928,-76.8723"/>
<polygon fill="#191970" stroke="#191970" points="574.3021,-80.2305 583.2346,-74.533 572.6988,-73.4165 574.3021,-80.2305"/>
</g>
<!-- Node14&#45;&gt;Node13 -->
<g id="edge24" class="edge">
<title>Node14&#45;&gt;Node13</title>
<path fill="none" stroke="#191970" d="M417.2499,-115.5077C457.5972,-107.4933 519.797,-92.8404 536.5,-76 548.544,-63.8569 553.0563,-44.6014 554.6958,-30.016"/>
<polygon fill="#191970" stroke="#191970" points="558.1914,-30.2063 555.4668,-19.9678 551.2119,-29.6707 558.1914,-30.2063"/>
</g>
<!-- Node15 -->
<g id="node16" class="node">
<title>Node15</title>
<g id="a_node16"><a xlink:href="dev__enums_8h.html" target="_top" xlink:title="Device enumerations for backward compatibility with existing peripheral driver implementations. ">
<polygon fill="none" stroke="#000000" points="423.5,-56.5 423.5,-75.5 527.5,-75.5 527.5,-56.5 423.5,-56.5"/>
<text text-anchor="middle" x="475.5" y="-63.5" font-family="Helvetica,sans-Serif" font-size="10.00" fill="#000000">periph/dev_enums.h</text>
</a>
</g>
</g>
<!-- Node14&#45;&gt;Node15 -->
<g id="edge25" class="edge">
<title>Node14&#45;&gt;Node15</title>
<path fill="none" stroke="#191970" d="M397.8736,-112.2455C412.4308,-103.5731 433.931,-90.7645 450.6152,-80.825"/>
<polygon fill="#191970" stroke="#191970" points="452.5144,-83.7676 459.3141,-75.6427 448.9317,-77.7539 452.5144,-83.7676"/>
</g>
<!-- Node15&#45;&gt;Node13 -->
<g id="edge26" class="edge">
<title>Node15&#45;&gt;Node13</title>
<path fill="none" stroke="#191970" d="M489.4349,-56.2455C501.5947,-47.7337 519.4464,-35.2375 533.5285,-25.3801"/>
<polygon fill="#191970" stroke="#191970" points="535.5395,-28.2447 541.7248,-19.6427 531.5253,-22.51 535.5395,-28.2447"/>
</g>
</g>
</svg>
