<?xml version="1.0" encoding="UTF-8" standalone="no"?>
<!DOCTYPE svg PUBLIC "-//W3C//DTD SVG 1.1//EN"
 "http://www.w3.org/Graphics/SVG/1.1/DTD/svg11.dtd">
<!-- Generated by graphviz version 2.43.0 (0)
 -->
<!-- Title: drivers/dfplayer/include/dfplayer_internal.h Pages: 1 -->
<svg width="1163pt" height="487pt"
 viewBox="0.00 0.00 1163.00 487.00" xmlns="http://www.w3.org/2000/svg" xmlns:xlink="http://www.w3.org/1999/xlink">
<g id="graph0" class="graph" transform="scale(1 1) rotate(0) translate(4 483)">
<title>drivers/dfplayer/include/dfplayer_internal.h</title>
<!-- Node1 -->
<g id="node1" class="node">
<title>Node1</title>
<g id="a_node1"><a xlink:title="Internal functions of DFPlayer Mini Device driver.">
<polygon fill="#bfbfbf" stroke="black" points="898,-448.5 898,-478.5 1030,-478.5 1030,-448.5 898,-448.5"/>
<text text-anchor="start" x="906" y="-466.5" font-family="Helvetica,sans-Serif" font-size="10.00">drivers/dfplayer/include</text>
<text text-anchor="middle" x="964" y="-455.5" font-family="Helvetica,sans-Serif" font-size="10.00">/dfplayer_internal.h</text>
</a>
</g>
</g>
<!-- Node2 -->
<g id="node2" class="node">
<title>Node2</title>
<g id="a_node2"><a xlink:title=" ">
<polygon fill="none" stroke="#bfbfbf" points="983.5,-0.5 983.5,-19.5 1036.5,-19.5 1036.5,-0.5 983.5,-0.5"/>
<text text-anchor="middle" x="1010" y="-7.5" font-family="Helvetica,sans-Serif" font-size="10.00">stdint.h</text>
</a>
</g>
</g>
<!-- Node1&#45;&gt;Node2 -->
<g id="edge1" class="edge">
<title>Node1&#45;&gt;Node2</title>
<path fill="none" stroke="midnightblue" d="M1030.27,-450.66C1085.43,-436.54 1155,-406.87 1155,-347 1155,-347 1155,-347 1155,-121 1155,-66.48 1089.12,-35.48 1046.17,-21.06"/>
<polygon fill="midnightblue" stroke="midnightblue" points="1047.19,-17.71 1036.6,-17.99 1045.05,-24.38 1047.19,-17.71"/>
</g>
<!-- Node3 -->
<g id="node3" class="node">
<title>Node3</title>
<g id="a_node3"><a xlink:href="dfplayer__types_8h.html" target="_top" xlink:title="Types used in the DFPlayer Mini Device Driver.">
<polygon fill="none" stroke="black" points="811,-392.5 811,-411.5 909,-411.5 909,-392.5 811,-392.5"/>
<text text-anchor="middle" x="860" y="-399.5" font-family="Helvetica,sans-Serif" font-size="10.00">dfplayer_types.h</text>
</a>
</g>
</g>
<!-- Node1&#45;&gt;Node3 -->
<g id="edge2" class="edge">
<title>Node1&#45;&gt;Node3</title>
<path fill="none" stroke="midnightblue" d="M939.35,-448.4C922.68,-438.86 900.77,-426.32 884.2,-416.84"/>
<polygon fill="midnightblue" stroke="midnightblue" points="885.55,-413.59 875.13,-411.66 882.08,-419.66 885.55,-413.59"/>
</g>
<!-- Node3&#45;&gt;Node2 -->
<g id="edge4" class="edge">
<title>Node3&#45;&gt;Node2</title>
<path fill="none" stroke="midnightblue" d="M909.25,-400.99C983.87,-398.11 1117,-380.42 1117,-291 1117,-291 1117,-291 1117,-121 1117,-75.41 1069.2,-41.62 1037.5,-24.23"/>
<polygon fill="midnightblue" stroke="midnightblue" points="1039.12,-21.13 1028.64,-19.56 1035.85,-27.32 1039.12,-21.13"/>
</g>
<!-- Node4 -->
<g id="node4" class="node">
<title>Node4</title>
<g id="a_node4"><a xlink:title=" ">
<polygon fill="none" stroke="#bfbfbf" points="989,-168.5 989,-187.5 1051,-187.5 1051,-168.5 989,-168.5"/>
<text text-anchor="middle" x="1020" y="-175.5" font-family="Helvetica,sans-Serif" font-size="10.00">stdbool.h</text>
</a>
</g>
</g>
<!-- Node3&#45;&gt;Node4 -->
<g id="edge3" class="edge">
<title>Node3&#45;&gt;Node4</title>
<path fill="none" stroke="midnightblue" d="M881.7,-392.39C914.04,-378.33 974.14,-347.19 1003,-300 1022.48,-268.14 1023.21,-222.88 1021.76,-197.72"/>
<polygon fill="midnightblue" stroke="midnightblue" points="1025.25,-197.4 1021.01,-187.69 1018.27,-197.92 1025.25,-197.4"/>
</g>
<!-- Node5 -->
<g id="node5" class="node">
<title>Node5</title>
<g id="a_node5"><a xlink:href="kernel__types_8h.html" target="_top" xlink:title="Types used by the kernel.">
<polygon fill="none" stroke="black" points="380,-168.5 380,-187.5 468,-187.5 468,-168.5 380,-168.5"/>
<text text-anchor="middle" x="424" y="-175.5" font-family="Helvetica,sans-Serif" font-size="10.00">kernel_types.h</text>
</a>
</g>
</g>
<!-- Node3&#45;&gt;Node5 -->
<g id="edge5" class="edge">
<title>Node3&#45;&gt;Node5</title>
<path fill="none" stroke="midnightblue" d="M819.64,-392.44C760.68,-378.81 648.78,-348.63 564,-300 512.45,-270.43 462.3,-220.42 438.44,-194.94"/>
<polygon fill="midnightblue" stroke="midnightblue" points="441.01,-192.56 431.65,-187.59 435.87,-197.31 441.01,-192.56"/>
</g>
<!-- Node10 -->
<g id="node10" class="node">
<title>Node10</title>
<g id="a_node10"><a xlink:href="mutex_8h.html" target="_top" xlink:title="Mutex for thread synchronization.">
<polygon fill="none" stroke="black" points="831.5,-336.5 831.5,-355.5 888.5,-355.5 888.5,-336.5 831.5,-336.5"/>
<text text-anchor="middle" x="860" y="-343.5" font-family="Helvetica,sans-Serif" font-size="10.00">mutex.h</text>
</a>
</g>
</g>
<!-- Node3&#45;&gt;Node10 -->
<g id="edge11" class="edge">
<title>Node3&#45;&gt;Node10</title>
<path fill="none" stroke="midnightblue" d="M860,-392.08C860,-385.01 860,-374.86 860,-365.99"/>
<polygon fill="midnightblue" stroke="midnightblue" points="863.5,-365.75 860,-355.75 856.5,-365.75 863.5,-365.75"/>
</g>
<!-- Node23 -->
<g id="node23" class="node">
<title>Node23</title>
<g id="a_node23"><a xlink:href="gpio_8h.html" target="_top" xlink:title="Low&#45;level GPIO peripheral driver interface definitions.">
<polygon fill="none" stroke="black" points="211,-168.5 211,-187.5 291,-187.5 291,-168.5 211,-168.5"/>
<text text-anchor="middle" x="251" y="-175.5" font-family="Helvetica,sans-Serif" font-size="10.00">periph/gpio.h</text>
</a>
</g>
</g>
<!-- Node3&#45;&gt;Node23 -->
<g id="edge40" class="edge">
<title>Node3&#45;&gt;Node23</title>
<path fill="none" stroke="midnightblue" d="M810.88,-394.42C765.13,-387.52 695.4,-375 637,-356 494.55,-309.66 335.06,-225.38 275.32,-192.57"/>
<polygon fill="midnightblue" stroke="midnightblue" points="276.73,-189.36 266.29,-187.59 273.35,-195.49 276.73,-189.36"/>
</g>
<!-- Node26 -->
<g id="node26" class="node">
<title>Node26</title>
<g id="a_node26"><a xlink:href="uart_8h.html" target="_top" xlink:title="Low&#45;level UART peripheral driver interface definition.">
<polygon fill="none" stroke="black" points="70.5,-168.5 70.5,-187.5 149.5,-187.5 149.5,-168.5 70.5,-168.5"/>
<text text-anchor="middle" x="110" y="-175.5" font-family="Helvetica,sans-Serif" font-size="10.00">periph/uart.h</text>
</a>
</g>
</g>
<!-- Node3&#45;&gt;Node26 -->
<g id="edge44" class="edge">
<title>Node3&#45;&gt;Node26</title>
<path fill="none" stroke="midnightblue" d="M810.97,-396.24C754.21,-390.02 658.25,-377.34 578,-356 406.02,-310.27 209.59,-224.38 137.97,-191.89"/>
<polygon fill="midnightblue" stroke="midnightblue" points="139.26,-188.63 128.71,-187.67 136.36,-195 139.26,-188.63"/>
</g>
<!-- Node5&#45;&gt;Node2 -->
<g id="edge6" class="edge">
<title>Node5&#45;&gt;Node2</title>
<path fill="none" stroke="midnightblue" d="M428.44,-168.3C436.13,-154.18 453.29,-126.38 476,-112 559.89,-58.87 866.85,-24.83 973.33,-14.4"/>
<polygon fill="midnightblue" stroke="midnightblue" points="973.67,-17.89 983.28,-13.44 972.99,-10.92 973.67,-17.89"/>
</g>
<!-- Node6 -->
<g id="node6" class="node">
<title>Node6</title>
<g id="a_node6"><a xlink:href="inttypes_8h.html" target="_top" xlink:title="Adds include for missing inttype definitions.">
<polygon fill="none" stroke="black" points="484.5,-112.5 484.5,-131.5 549.5,-131.5 549.5,-112.5 484.5,-112.5"/>
<text text-anchor="middle" x="517" y="-119.5" font-family="Helvetica,sans-Serif" font-size="10.00">inttypes.h</text>
</a>
</g>
</g>
<!-- Node5&#45;&gt;Node6 -->
<g id="edge7" class="edge">
<title>Node5&#45;&gt;Node6</title>
<path fill="none" stroke="midnightblue" d="M438.94,-168.32C453.59,-159.82 476.13,-146.73 493.24,-136.8"/>
<polygon fill="midnightblue" stroke="midnightblue" points="495.21,-139.7 502.1,-131.65 491.69,-133.65 495.21,-139.7"/>
</g>
<!-- Node7 -->
<g id="node7" class="node">
<title>Node7</title>
<g id="a_node7"><a xlink:title=" ">
<polygon fill="none" stroke="#bfbfbf" points="246.5,-112.5 246.5,-131.5 299.5,-131.5 299.5,-112.5 246.5,-112.5"/>
<text text-anchor="middle" x="273" y="-119.5" font-family="Helvetica,sans-Serif" font-size="10.00">limits.h</text>
</a>
</g>
</g>
<!-- Node5&#45;&gt;Node7 -->
<g id="edge8" class="edge">
<title>Node5&#45;&gt;Node7</title>
<path fill="none" stroke="midnightblue" d="M400.07,-168.44C374.78,-159.4 334.7,-145.06 306.32,-134.92"/>
<polygon fill="midnightblue" stroke="midnightblue" points="307.41,-131.59 296.82,-131.52 305.05,-138.18 307.41,-131.59"/>
</g>
<!-- Node8 -->
<g id="node8" class="node">
<title>Node8</title>
<g id="a_node8"><a xlink:title=" ">
<polygon fill="none" stroke="#bfbfbf" points="569,-0.5 569,-19.5 625,-19.5 625,-0.5 569,-0.5"/>
<text text-anchor="middle" x="597" y="-7.5" font-family="Helvetica,sans-Serif" font-size="10.00">stddef.h</text>
</a>
</g>
</g>
<!-- Node5&#45;&gt;Node8 -->
<g id="edge9" class="edge">
<title>Node5&#45;&gt;Node8</title>
<path fill="none" stroke="midnightblue" d="M398.64,-168.46C370.25,-157.47 330.27,-136.8 347,-112 394.68,-41.31 501.09,-20.08 558.51,-13.72"/>
<polygon fill="midnightblue" stroke="midnightblue" points="559.03,-17.18 568.63,-12.69 558.33,-10.22 559.03,-17.18"/>
</g>
<!-- Node9 -->
<g id="node9" class="node">
<title>Node9</title>
<g id="a_node9"><a xlink:title=" ">
<polygon fill="none" stroke="#bfbfbf" points="356,-112.5 356,-131.5 428,-131.5 428,-112.5 356,-112.5"/>
<text text-anchor="middle" x="392" y="-119.5" font-family="Helvetica,sans-Serif" font-size="10.00">sys/types.h</text>
</a>
</g>
</g>
<!-- Node5&#45;&gt;Node9 -->
<g id="edge10" class="edge">
<title>Node5&#45;&gt;Node9</title>
<path fill="none" stroke="midnightblue" d="M418.72,-168.08C414.29,-160.61 407.84,-149.72 402.38,-140.52"/>
<polygon fill="midnightblue" stroke="midnightblue" points="405.3,-138.57 397.19,-131.75 399.27,-142.14 405.3,-138.57"/>
</g>
<!-- Node10&#45;&gt;Node2 -->
<g id="edge13" class="edge">
<title>Node10&#45;&gt;Node2</title>
<path fill="none" stroke="midnightblue" d="M888.76,-341.89C919.73,-337.28 969.11,-326.16 1003,-300 1053.27,-261.19 1079,-242.51 1079,-179 1079,-179 1079,-179 1079,-121 1079,-82.39 1048.12,-46.21 1027.67,-26.49"/>
<polygon fill="midnightblue" stroke="midnightblue" points="1029.89,-23.77 1020.18,-19.54 1025.13,-28.9 1029.89,-23.77"/>
</g>
<!-- Node10&#45;&gt;Node8 -->
<g id="edge12" class="edge">
<title>Node10&#45;&gt;Node8</title>
<path fill="none" stroke="midnightblue" d="M831.26,-345.74C784.98,-345.63 692.58,-339.89 628,-300 596.99,-280.85 578,-271.45 578,-235 578,-235 578,-235 578,-121 578,-88.49 586.16,-51.35 591.78,-29.61"/>
<polygon fill="midnightblue" stroke="midnightblue" points="595.22,-30.32 594.44,-19.75 588.46,-28.5 595.22,-30.32"/>
</g>
<!-- Node11 -->
<g id="node11" class="node">
<title>Node11</title>
<g id="a_node11"><a xlink:href="irq_8h.html" target="_top" xlink:title="IRQ driver interface.">
<polygon fill="none" stroke="black" points="956,-280.5 956,-299.5 994,-299.5 994,-280.5 956,-280.5"/>
<text text-anchor="middle" x="975" y="-287.5" font-family="Helvetica,sans-Serif" font-size="10.00">irq.h</text>
</a>
</g>
</g>
<!-- Node10&#45;&gt;Node11 -->
<g id="edge14" class="edge">
<title>Node10&#45;&gt;Node11</title>
<path fill="none" stroke="midnightblue" d="M878.22,-336.44C896.9,-327.68 926.16,-313.94 947.62,-303.86"/>
<polygon fill="midnightblue" stroke="midnightblue" points="949.3,-306.93 956.86,-299.52 946.32,-300.6 949.3,-306.93"/>
</g>
<!-- Node13 -->
<g id="node13" class="node">
<title>Node13</title>
<g id="a_node13"><a xlink:href="kernel__defines_8h.html" target="_top" xlink:title="Common macros and compiler attributes/pragmas configuration.">
<polygon fill="none" stroke="black" points="720.5,-56.5 720.5,-75.5 817.5,-75.5 817.5,-56.5 720.5,-56.5"/>
<text text-anchor="middle" x="769" y="-63.5" font-family="Helvetica,sans-Serif" font-size="10.00">kernel_defines.h</text>
</a>
</g>
</g>
<!-- Node10&#45;&gt;Node13 -->
<g id="edge17" class="edge">
<title>Node10&#45;&gt;Node13</title>
<path fill="none" stroke="midnightblue" d="M831.05,-344.88C766.42,-342.94 616,-328.4 616,-235 616,-235 616,-235 616,-177 616,-146.9 614.14,-133.7 635,-112 654.75,-91.45 684.17,-80.28 710.41,-74.22"/>
<polygon fill="midnightblue" stroke="midnightblue" points="711.23,-77.62 720.29,-72.13 709.78,-70.77 711.23,-77.62"/>
</g>
<!-- Node14 -->
<g id="node14" class="node">
<title>Node14</title>
<g id="a_node14"><a xlink:href="list_8h.html" target="_top" xlink:title="Intrusive linked list.">
<polygon fill="none" stroke="black" points="888.5,-56.5 888.5,-75.5 929.5,-75.5 929.5,-56.5 888.5,-56.5"/>
<text text-anchor="middle" x="909" y="-63.5" font-family="Helvetica,sans-Serif" font-size="10.00">list.h</text>
</a>
</g>
</g>
<!-- Node10&#45;&gt;Node14 -->
<g id="edge20" class="edge">
<title>Node10&#45;&gt;Node14</title>
<path fill="none" stroke="midnightblue" d="M870,-336.49C888.03,-320.48 925.6,-283.9 942,-244 964.38,-189.55 975.22,-166.51 953,-112 948.2,-100.23 938.67,-89.86 929.71,-82.05"/>
<polygon fill="midnightblue" stroke="midnightblue" points="931.76,-79.2 921.78,-75.63 927.35,-84.64 931.76,-79.2"/>
</g>
<!-- Node15 -->
<g id="node15" class="node">
<title>Node15</title>
<g id="a_node15"><a xlink:href="core_2include_2thread_8h.html" target="_top" xlink:title="Threading API.">
<polygon fill="none" stroke="black" points="763.5,-280.5 763.5,-299.5 820.5,-299.5 820.5,-280.5 763.5,-280.5"/>
<text text-anchor="middle" x="792" y="-287.5" font-family="Helvetica,sans-Serif" font-size="10.00">thread.h</text>
</a>
</g>
</g>
<!-- Node10&#45;&gt;Node15 -->
<g id="edge21" class="edge">
<title>Node10&#45;&gt;Node15</title>
<path fill="none" stroke="midnightblue" d="M849.08,-336.32C838.83,-328.18 823.28,-315.84 811,-306.09"/>
<polygon fill="midnightblue" stroke="midnightblue" points="813.13,-303.31 803.12,-299.83 808.78,-308.79 813.13,-303.31"/>
</g>
<!-- Node11&#45;&gt;Node4 -->
<g id="edge15" class="edge">
<title>Node11&#45;&gt;Node4</title>
<path fill="none" stroke="midnightblue" d="M978.53,-280.37C985.86,-262.46 1002.85,-220.92 1012.66,-196.95"/>
<polygon fill="midnightblue" stroke="midnightblue" points="1015.94,-198.17 1016.49,-187.59 1009.46,-195.52 1015.94,-198.17"/>
</g>
<!-- Node12 -->
<g id="node12" class="node">
<title>Node12</title>
<g id="a_node12"><a xlink:title=" ">
<polygon fill="none" stroke="#bfbfbf" points="865,-224.5 865,-243.5 933,-243.5 933,-224.5 865,-224.5"/>
<text text-anchor="middle" x="899" y="-231.5" font-family="Helvetica,sans-Serif" font-size="10.00">cpu_conf.h</text>
</a>
</g>
</g>
<!-- Node11&#45;&gt;Node12 -->
<g id="edge16" class="edge">
<title>Node11&#45;&gt;Node12</title>
<path fill="none" stroke="midnightblue" d="M962.79,-280.32C951.22,-272.11 933.63,-259.6 919.84,-249.81"/>
<polygon fill="midnightblue" stroke="midnightblue" points="921.61,-246.77 911.43,-243.83 917.56,-252.48 921.61,-246.77"/>
</g>
<!-- Node13&#45;&gt;Node2 -->
<g id="edge19" class="edge">
<title>Node13&#45;&gt;Node2</title>
<path fill="none" stroke="midnightblue" d="M807.19,-56.44C852.75,-46.24 928.38,-29.29 973.28,-19.23"/>
<polygon fill="midnightblue" stroke="midnightblue" points="974.19,-22.61 983.19,-17.01 972.66,-15.78 974.19,-22.61"/>
</g>
<!-- Node13&#45;&gt;Node8 -->
<g id="edge18" class="edge">
<title>Node13&#45;&gt;Node8</title>
<path fill="none" stroke="midnightblue" d="M741.75,-56.44C712.56,-47.28 666.08,-32.69 633.69,-22.52"/>
<polygon fill="midnightblue" stroke="midnightblue" points="634.72,-19.17 624.13,-19.52 632.62,-25.85 634.72,-19.17"/>
</g>
<!-- Node15&#45;&gt;Node12 -->
<g id="edge38" class="edge">
<title>Node15&#45;&gt;Node12</title>
<path fill="none" stroke="midnightblue" d="M809.19,-280.32C826.35,-271.66 852.95,-258.24 872.75,-248.25"/>
<polygon fill="midnightblue" stroke="midnightblue" points="874.5,-251.28 881.85,-243.65 871.35,-245.04 874.5,-251.28"/>
</g>
<!-- Node16 -->
<g id="node16" class="node">
<title>Node16</title>
<g id="a_node16"><a xlink:href="clist_8h.html" target="_top" xlink:title="Circular linked list.">
<polygon fill="none" stroke="black" points="644,-112.5 644,-131.5 690,-131.5 690,-112.5 644,-112.5"/>
<text text-anchor="middle" x="667" y="-119.5" font-family="Helvetica,sans-Serif" font-size="10.00">clist.h</text>
</a>
</g>
</g>
<!-- Node15&#45;&gt;Node16 -->
<g id="edge22" class="edge">
<title>Node15&#45;&gt;Node16</title>
<path fill="none" stroke="midnightblue" d="M773.49,-280.49C757.88,-272.65 735.64,-259.84 720,-244 691.23,-214.85 676.81,-167.49 670.72,-141.51"/>
<polygon fill="midnightblue" stroke="midnightblue" points="674.09,-140.54 668.54,-131.51 667.25,-142.03 674.09,-140.54"/>
</g>
<!-- Node17 -->
<g id="node17" class="node">
<title>Node17</title>
<g id="a_node17"><a xlink:href="cib_8h.html" target="_top" xlink:title="Circular integer buffer interface.">
<polygon fill="none" stroke="black" points="741,-224.5 741,-243.5 781,-243.5 781,-224.5 741,-224.5"/>
<text text-anchor="middle" x="761" y="-231.5" font-family="Helvetica,sans-Serif" font-size="10.00">cib.h</text>
</a>
</g>
</g>
<!-- Node15&#45;&gt;Node17 -->
<g id="edge25" class="edge">
<title>Node15&#45;&gt;Node17</title>
<path fill="none" stroke="midnightblue" d="M786.88,-280.08C782.59,-272.61 776.34,-261.72 771.06,-252.52"/>
<polygon fill="midnightblue" stroke="midnightblue" points="774.04,-250.68 766.02,-243.75 767.97,-254.17 774.04,-250.68"/>
</g>
<!-- Node20 -->
<g id="node20" class="node">
<title>Node20</title>
<g id="a_node20"><a xlink:href="msg_8h.html" target="_top" xlink:title="Messaging API for inter process communication.">
<polygon fill="none" stroke="black" points="799.5,-224.5 799.5,-243.5 846.5,-243.5 846.5,-224.5 799.5,-224.5"/>
<text text-anchor="middle" x="823" y="-231.5" font-family="Helvetica,sans-Serif" font-size="10.00">msg.h</text>
</a>
</g>
</g>
<!-- Node15&#45;&gt;Node20 -->
<g id="edge29" class="edge">
<title>Node15&#45;&gt;Node20</title>
<path fill="none" stroke="midnightblue" d="M797.12,-280.08C801.41,-272.61 807.66,-261.72 812.94,-252.52"/>
<polygon fill="midnightblue" stroke="midnightblue" points="816.03,-254.17 817.98,-243.75 809.96,-250.68 816.03,-254.17"/>
</g>
<!-- Node21 -->
<g id="node21" class="node">
<title>Node21</title>
<g id="a_node21"><a xlink:href="sched_8h.html" target="_top" xlink:title="Scheduler API definition.">
<polygon fill="none" stroke="black" points="695,-168.5 695,-187.5 749,-187.5 749,-168.5 695,-168.5"/>
<text text-anchor="middle" x="722" y="-175.5" font-family="Helvetica,sans-Serif" font-size="10.00">sched.h</text>
</a>
</g>
</g>
<!-- Node15&#45;&gt;Node21 -->
<g id="edge39" class="edge">
<title>Node15&#45;&gt;Node21</title>
<path fill="none" stroke="midnightblue" d="M773.98,-280.4C760.16,-272.82 741.84,-260.42 732,-244 723.65,-230.08 721.49,-211.57 721.22,-197.86"/>
<polygon fill="midnightblue" stroke="midnightblue" points="724.73,-197.73 721.35,-187.69 717.73,-197.64 724.73,-197.73"/>
</g>
<!-- Node16&#45;&gt;Node8 -->
<g id="edge23" class="edge">
<title>Node16&#45;&gt;Node8</title>
<path fill="none" stroke="midnightblue" d="M661.51,-112.37C650.01,-94.3 623.2,-52.18 608.01,-28.31"/>
<polygon fill="midnightblue" stroke="midnightblue" points="610.79,-26.15 602.47,-19.59 604.88,-29.91 610.79,-26.15"/>
</g>
<!-- Node16&#45;&gt;Node14 -->
<g id="edge24" class="edge">
<title>Node16&#45;&gt;Node14</title>
<path fill="none" stroke="midnightblue" d="M690.2,-115.82C734.07,-106.03 829.15,-84.82 878.26,-73.86"/>
<polygon fill="midnightblue" stroke="midnightblue" points="879.3,-77.21 888.29,-71.62 877.77,-70.38 879.3,-77.21"/>
</g>
<!-- Node18 -->
<g id="node18" class="node">
<title>Node18</title>
<g id="a_node18"><a xlink:href="assert_8h.html" target="_top" xlink:title="POSIX.1&#45;2008 compliant version of the assert macro.">
<polygon fill="none" stroke="black" points="807,-168.5 807,-187.5 863,-187.5 863,-168.5 807,-168.5"/>
<text text-anchor="middle" x="835" y="-175.5" font-family="Helvetica,sans-Serif" font-size="10.00">assert.h</text>
</a>
</g>
</g>
<!-- Node17&#45;&gt;Node18 -->
<g id="edge26" class="edge">
<title>Node17&#45;&gt;Node18</title>
<path fill="none" stroke="midnightblue" d="M772.89,-224.32C784.15,-216.11 801.29,-203.6 814.71,-193.81"/>
<polygon fill="midnightblue" stroke="midnightblue" points="816.88,-196.56 822.9,-187.83 812.75,-190.9 816.88,-196.56"/>
</g>
<!-- Node19 -->
<g id="node19" class="node">
<title>Node19</title>
<g id="a_node19"><a xlink:href="panic_8h.html" target="_top" xlink:title="Crash handling header.">
<polygon fill="none" stroke="black" points="892,-112.5 892,-131.5 944,-131.5 944,-112.5 892,-112.5"/>
<text text-anchor="middle" x="918" y="-119.5" font-family="Helvetica,sans-Serif" font-size="10.00">panic.h</text>
</a>
</g>
</g>
<!-- Node18&#45;&gt;Node19 -->
<g id="edge27" class="edge">
<title>Node18&#45;&gt;Node19</title>
<path fill="none" stroke="midnightblue" d="M848.34,-168.32C861.16,-159.98 880.79,-147.21 895.94,-137.35"/>
<polygon fill="midnightblue" stroke="midnightblue" points="898.22,-140.04 904.7,-131.65 894.41,-134.17 898.22,-140.04"/>
</g>
<!-- Node19&#45;&gt;Node13 -->
<g id="edge28" class="edge">
<title>Node19&#45;&gt;Node13</title>
<path fill="none" stroke="midnightblue" d="M894.39,-112.44C869.54,-103.44 830.23,-89.19 802.25,-79.05"/>
<polygon fill="midnightblue" stroke="midnightblue" points="803.09,-75.63 792.5,-75.52 800.71,-82.21 803.09,-75.63"/>
</g>
<!-- Node20&#45;&gt;Node2 -->
<g id="edge30" class="edge">
<title>Node20&#45;&gt;Node2</title>
<path fill="none" stroke="midnightblue" d="M838.54,-224.28C865.05,-208.75 919.41,-173.94 953,-132 978.67,-99.95 996.07,-54.44 1004.38,-29.36"/>
<polygon fill="midnightblue" stroke="midnightblue" points="1007.77,-30.27 1007.47,-19.68 1001.1,-28.14 1007.77,-30.27"/>
</g>
<!-- Node20&#45;&gt;Node4 -->
<g id="edge31" class="edge">
<title>Node20&#45;&gt;Node4</title>
<path fill="none" stroke="midnightblue" d="M846.76,-226.49C879.5,-217.51 938.95,-201.22 978.96,-190.25"/>
<polygon fill="midnightblue" stroke="midnightblue" points="979.97,-193.6 988.69,-187.58 978.12,-186.85 979.97,-193.6"/>
</g>
<!-- Node20&#45;&gt;Node21 -->
<g id="edge32" class="edge">
<title>Node20&#45;&gt;Node21</title>
<path fill="none" stroke="midnightblue" d="M806.77,-224.32C790.65,-215.7 765.7,-202.36 747.04,-192.39"/>
<polygon fill="midnightblue" stroke="midnightblue" points="748.66,-189.28 738.19,-187.65 745.36,-195.46 748.66,-189.28"/>
</g>
<!-- Node21&#45;&gt;Node6 -->
<g id="edge34" class="edge">
<title>Node21&#45;&gt;Node6</title>
<path fill="none" stroke="midnightblue" d="M694.78,-169.83C660.14,-160.7 599.93,-144.85 559.29,-134.14"/>
<polygon fill="midnightblue" stroke="midnightblue" points="559.97,-130.7 549.41,-131.54 558.19,-137.47 559.97,-130.7"/>
</g>
<!-- Node21&#45;&gt;Node8 -->
<g id="edge33" class="edge">
<title>Node21&#45;&gt;Node8</title>
<path fill="none" stroke="midnightblue" d="M720.27,-168.46C717.37,-155.49 710.67,-130.4 699,-112 676.51,-76.54 639.45,-44.01 616.73,-25.91"/>
<polygon fill="midnightblue" stroke="midnightblue" points="618.82,-23.1 608.79,-19.7 614.51,-28.62 618.82,-23.1"/>
</g>
<!-- Node21&#45;&gt;Node13 -->
<g id="edge35" class="edge">
<title>Node21&#45;&gt;Node13</title>
<path fill="none" stroke="midnightblue" d="M725.69,-168.37C733.34,-150.46 751.09,-108.92 761.33,-84.95"/>
<polygon fill="midnightblue" stroke="midnightblue" points="764.62,-86.16 765.33,-75.59 758.18,-83.41 764.62,-86.16"/>
</g>
<!-- Node21&#45;&gt;Node16 -->
<g id="edge37" class="edge">
<title>Node21&#45;&gt;Node16</title>
<path fill="none" stroke="midnightblue" d="M712.92,-168.08C704.83,-160.14 692.81,-148.34 683.09,-138.8"/>
<polygon fill="midnightblue" stroke="midnightblue" points="685.5,-136.26 675.91,-131.75 680.6,-141.25 685.5,-136.26"/>
</g>
<!-- Node22 -->
<g id="node22" class="node">
<title>Node22</title>
<g id="a_node22"><a xlink:href="native__sched_8h.html" target="_top" xlink:title="Add definitions required on the native board.">
<polygon fill="none" stroke="black" points="784,-112.5 784,-131.5 874,-131.5 874,-112.5 784,-112.5"/>
<text text-anchor="middle" x="829" y="-119.5" font-family="Helvetica,sans-Serif" font-size="10.00">native_sched.h</text>
</a>
</g>
</g>
<!-- Node21&#45;&gt;Node22 -->
<g id="edge36" class="edge">
<title>Node21&#45;&gt;Node22</title>
<path fill="none" stroke="midnightblue" d="M739.19,-168.32C756.35,-159.66 782.95,-146.24 802.75,-136.25"/>
<polygon fill="midnightblue" stroke="midnightblue" points="804.5,-139.28 811.85,-131.65 801.35,-133.04 804.5,-139.28"/>
</g>
<!-- Node23&#45;&gt;Node7 -->
<g id="edge41" class="edge">
<title>Node23&#45;&gt;Node7</title>
<path fill="none" stroke="midnightblue" d="M254.63,-168.08C257.61,-160.77 261.93,-150.18 265.63,-141.1"/>
<polygon fill="midnightblue" stroke="midnightblue" points="268.9,-142.33 269.44,-131.75 262.42,-139.69 268.9,-142.33"/>
</g>
<!-- Node24 -->
<g id="node24" class="node">
<title>Node24</title>
<g id="a_node24"><a xlink:title=" ">
<polygon fill="none" stroke="#bfbfbf" points="48.5,-112.5 48.5,-131.5 127.5,-131.5 127.5,-112.5 48.5,-112.5"/>
<text text-anchor="middle" x="88" y="-119.5" font-family="Helvetica,sans-Serif" font-size="10.00">periph_cpu.h</text>
</a>
</g>
</g>
<!-- Node23&#45;&gt;Node24 -->
<g id="edge42" class="edge">
<title>Node23&#45;&gt;Node24</title>
<path fill="none" stroke="midnightblue" d="M225.17,-168.44C197.75,-159.36 154.22,-144.94 123.57,-134.78"/>
<polygon fill="midnightblue" stroke="midnightblue" points="124.3,-131.34 113.71,-131.52 122.1,-137.98 124.3,-131.34"/>
</g>
<!-- Node25 -->
<g id="node25" class="node">
<title>Node25</title>
<g id="a_node25"><a xlink:title=" ">
<polygon fill="none" stroke="#bfbfbf" points="146,-112.5 146,-131.5 228,-131.5 228,-112.5 146,-112.5"/>
<text text-anchor="middle" x="187" y="-119.5" font-family="Helvetica,sans-Serif" font-size="10.00">periph_conf.h</text>
</a>
</g>
</g>
<!-- Node23&#45;&gt;Node25 -->
<g id="edge43" class="edge">
<title>Node23&#45;&gt;Node25</title>
<path fill="none" stroke="midnightblue" d="M240.72,-168.32C231.16,-160.26 216.72,-148.08 205.22,-138.37"/>
<polygon fill="midnightblue" stroke="midnightblue" points="207.37,-135.61 197.47,-131.83 202.86,-140.96 207.37,-135.61"/>
</g>
<!-- Node26&#45;&gt;Node2 -->
<g id="edge46" class="edge">
<title>Node26&#45;&gt;Node2</title>
<path fill="none" stroke="midnightblue" d="M87.77,-168.33C60.25,-156.38 19.31,-133.85 39,-112 79.08,-67.51 515.44,-62.19 575,-56 722.19,-40.7 897.42,-22.61 972.66,-14.85"/>
<polygon fill="midnightblue" stroke="midnightblue" points="973.43,-18.29 983.02,-13.78 972.71,-11.33 973.43,-18.29"/>
</g>
<!-- Node26&#45;&gt;Node7 -->
<g id="edge47" class="edge">
<title>Node26&#45;&gt;Node7</title>
<path fill="none" stroke="midnightblue" d="M135.83,-168.44C163.25,-159.36 206.78,-144.94 237.43,-134.78"/>
<polygon fill="midnightblue" stroke="midnightblue" points="238.9,-137.98 247.29,-131.52 236.7,-131.34 238.9,-137.98"/>
</g>
<!-- Node26&#45;&gt;Node8 -->
<g id="edge45" class="edge">
<title>Node26&#45;&gt;Node8</title>
<path fill="none" stroke="midnightblue" d="M71.68,-168.47C33.4,-158.21 -16.72,-138.93 6,-112 77.51,-27.24 439.38,-13.61 558.75,-11.42"/>
<polygon fill="midnightblue" stroke="midnightblue" points="558.94,-14.91 568.88,-11.25 558.82,-7.92 558.94,-14.91"/>
</g>
<!-- Node26&#45;&gt;Node24 -->
<g id="edge48" class="edge">
<title>Node26&#45;&gt;Node24</title>
<path fill="none" stroke="midnightblue" d="M106.37,-168.08C103.39,-160.77 99.07,-150.18 95.38,-141.1"/>
<polygon fill="midnightblue" stroke="midnightblue" points="98.58,-139.69 91.57,-131.75 92.1,-142.33 98.58,-139.69"/>
</g>
<!-- Node26&#45;&gt;Node25 -->
<g id="edge49" class="edge">
<title>Node26&#45;&gt;Node25</title>
<path fill="none" stroke="midnightblue" d="M122.37,-168.32C134.16,-160.06 152.13,-147.45 166.14,-137.63"/>
<polygon fill="midnightblue" stroke="midnightblue" points="168.48,-140.26 174.66,-131.65 164.46,-134.53 168.48,-140.26"/>
</g>
</g>
</svg>
