<?xml version="1.0" encoding="UTF-8" standalone="no"?>
<!DOCTYPE svg PUBLIC "-//W3C//DTD SVG 1.1//EN"
 "http://www.w3.org/Graphics/SVG/1.1/DTD/svg11.dtd">
<!-- Generated by graphviz version 2.40.1 (20161225.0304)
 -->
<!-- Title: drivers/dfplayer/include/dfplayer_implementation.h Pages: 1 -->
<svg width="679pt" height="375pt"
 viewBox="0.00 0.00 679.39 375.00" xmlns="http://www.w3.org/2000/svg" xmlns:xlink="http://www.w3.org/1999/xlink">
<g id="graph0" class="graph" transform="scale(1 1) rotate(0) translate(4 371)">
<title>drivers/dfplayer/include/dfplayer_implementation.h</title>
<!-- Node0 -->
<g id="node1" class="node">
<title>Node0</title>
<polygon fill="#bfbfbf" stroke="#000000" points="186,-336.5 186,-366.5 320,-366.5 320,-336.5 186,-336.5"/>
<text text-anchor="start" x="194" y="-354.5" font-family="Helvetica,sans-Serif" font-size="10.00" fill="#000000">drivers/dfplayer/include</text>
<text text-anchor="middle" x="253" y="-343.5" font-family="Helvetica,sans-Serif" font-size="10.00" fill="#000000">/dfplayer_implementation.h</text>
</g>
<!-- Node1 -->
<g id="node2" class="node">
<title>Node1</title>
<g id="a_node2"><a xlink:href="errno_8h.html" target="_top" xlink:title="errno.h">
<polygon fill="none" stroke="#000000" points="129.5,-280.5 129.5,-299.5 176.5,-299.5 176.5,-280.5 129.5,-280.5"/>
<text text-anchor="middle" x="153" y="-287.5" font-family="Helvetica,sans-Serif" font-size="10.00" fill="#000000">errno.h</text>
</a>
</g>
</g>
<!-- Node0&#45;&gt;Node1 -->
<g id="edge1" class="edge">
<title>Node0&#45;&gt;Node1</title>
<path fill="none" stroke="#191970" d="M228.5372,-336.4554C212.8765,-326.8241 192.6468,-314.3828 177.0644,-304.7996"/>
<polygon fill="#191970" stroke="#191970" points="178.848,-301.7876 168.4965,-299.5303 175.181,-307.7503 178.848,-301.7876"/>
</g>
<!-- Node2 -->
<g id="node3" class="node">
<title>Node2</title>
<g id="a_node3"><a xlink:href="dfplayer_8h.html" target="_top" xlink:title="DFPlayer Mini Device Driver. ">
<polygon fill="none" stroke="#000000" points="194.5,-280.5 194.5,-299.5 253.5,-299.5 253.5,-280.5 194.5,-280.5"/>
<text text-anchor="middle" x="224" y="-287.5" font-family="Helvetica,sans-Serif" font-size="10.00" fill="#000000">dfplayer.h</text>
</a>
</g>
</g>
<!-- Node0&#45;&gt;Node2 -->
<g id="edge2" class="edge">
<title>Node0&#45;&gt;Node2</title>
<path fill="none" stroke="#191970" d="M239.9157,-336.2977C235.1498,-328.2055 230.2761,-318.1639 226.8649,-309.5029"/>
<polygon fill="#191970" stroke="#191970" points="230.104,-308.1595 223.5349,-299.8469 223.4865,-310.4417 230.104,-308.1595"/>
</g>
<!-- Node7 -->
<g id="node8" class="node">
<title>Node7</title>
<g id="a_node8"><a xlink:href="dfplayer__types_8h.html" target="_top" xlink:title="Types used in the DFPlayer Mini Device Driver. ">
<polygon fill="none" stroke="#000000" points="234.5,-168.5 234.5,-187.5 323.5,-187.5 323.5,-168.5 234.5,-168.5"/>
<text text-anchor="middle" x="279" y="-175.5" font-family="Helvetica,sans-Serif" font-size="10.00" fill="#000000">dfplayer_types.h</text>
</a>
</g>
</g>
<!-- Node0&#45;&gt;Node7 -->
<g id="edge43" class="edge">
<title>Node0&#45;&gt;Node7</title>
<path fill="none" stroke="#191970" d="M256.2222,-336.2203C258.3151,-325.997 261.0132,-312.2265 263,-300 268.8568,-263.9589 274.0256,-221.6572 276.814,-197.5229"/>
<polygon fill="#191970" stroke="#191970" points="280.299,-197.8522 277.953,-187.5204 273.344,-197.0601 280.299,-197.8522"/>
</g>
<!-- Node21 -->
<g id="node22" class="node">
<title>Node21</title>
<g id="a_node22"><a xlink:href="dfplayer__constants_8h.html" target="_top" xlink:title="Constants used in the DFPlayer Mini Driver. ">
<polygon fill="none" stroke="#000000" points="380.5,-168.5 380.5,-187.5 487.5,-187.5 487.5,-168.5 380.5,-168.5"/>
<text text-anchor="middle" x="434" y="-175.5" font-family="Helvetica,sans-Serif" font-size="10.00" fill="#000000">dfplayer_constants.h</text>
</a>
</g>
</g>
<!-- Node0&#45;&gt;Node21 -->
<g id="edge36" class="edge">
<title>Node0&#45;&gt;Node21</title>
<path fill="none" stroke="#191970" d="M289.4084,-336.4998C326.3839,-319.4342 382.6692,-288.0997 415,-244 424.9019,-230.4937 429.6578,-211.941 431.9337,-197.9448"/>
<polygon fill="#191970" stroke="#191970" points="435.4231,-198.2558 433.2782,-187.8804 428.4848,-197.3289 435.4231,-198.2558"/>
</g>
<!-- Node22 -->
<g id="node23" class="node">
<title>Node22</title>
<g id="a_node23"><a xlink:href="dfplayer__internal_8h.html" target="_top" xlink:title="Internal functions of DFPlayer Mini Device driver. ">
<polygon fill="none" stroke="#000000" points="310,-224.5 310,-243.5 406,-243.5 406,-224.5 310,-224.5"/>
<text text-anchor="middle" x="358" y="-231.5" font-family="Helvetica,sans-Serif" font-size="10.00" fill="#000000">dfplayer_internal.h</text>
</a>
</g>
</g>
<!-- Node0&#45;&gt;Node22 -->
<g id="edge40" class="edge">
<title>Node0&#45;&gt;Node22</title>
<path fill="none" stroke="#191970" d="M266.7269,-336.1389C286.3324,-314.1994 322.2372,-274.0203 342.683,-251.1404"/>
<polygon fill="#191970" stroke="#191970" points="345.4039,-253.3482 349.4575,-243.5595 340.1843,-248.6839 345.4039,-253.3482"/>
</g>
<!-- Node2&#45;&gt;Node0 -->
<g id="edge35" class="edge">
<title>Node2&#45;&gt;Node0</title>
<path fill="none" stroke="#191970" d="M233.7516,-299.8469C238.5828,-307.1418 243.935,-317.4171 248.0216,-326.8839"/>
<polygon fill="#191970" stroke="#191970" points="244.8128,-328.2874 251.7472,-336.2977 251.3217,-325.7115 244.8128,-328.2874"/>
</g>
<!-- Node3 -->
<g id="node4" class="node">
<title>Node3</title>
<polygon fill="none" stroke="#bfbfbf" points="24,-112.5 24,-131.5 80,-131.5 80,-112.5 24,-112.5"/>
<text text-anchor="middle" x="52" y="-119.5" font-family="Helvetica,sans-Serif" font-size="10.00" fill="#000000">stdbool.h</text>
</g>
<!-- Node2&#45;&gt;Node3 -->
<g id="edge3" class="edge">
<title>Node2&#45;&gt;Node3</title>
<path fill="none" stroke="#191970" d="M194.2505,-281.8099C153.1063,-270.3592 82.6696,-250.2639 72,-244 41.0993,-225.8589 28.0022,-220.9831 14,-188 6.5712,-170.5011 19.4741,-151.8391 32.2136,-138.8405"/>
<polygon fill="#191970" stroke="#191970" points="34.6922,-141.3136 39.5406,-131.8932 29.8758,-136.2339 34.6922,-141.3136"/>
</g>
<!-- Node4 -->
<g id="node5" class="node">
<title>Node4</title>
<polygon fill="none" stroke="#bfbfbf" points="290.5,-56.5 290.5,-75.5 339.5,-75.5 339.5,-56.5 290.5,-56.5"/>
<text text-anchor="middle" x="315" y="-63.5" font-family="Helvetica,sans-Serif" font-size="10.00" fill="#000000">stdint.h</text>
</g>
<!-- Node2&#45;&gt;Node4 -->
<g id="edge4" class="edge">
<title>Node2&#45;&gt;Node4</title>
<path fill="none" stroke="#191970" d="M220.7891,-280.1764C212.0979,-251.6374 190.9709,-167.2596 225,-112 231.4811,-101.4754 258.0832,-88.6042 280.6988,-79.1561"/>
<polygon fill="#191970" stroke="#191970" points="282.1378,-82.3492 290.0768,-75.3333 279.4954,-75.8671 282.1378,-82.3492"/>
</g>
<!-- Node5 -->
<g id="node6" class="node">
<title>Node5</title>
<g id="a_node6"><a xlink:href="dfplayer__params_8h.html" target="_top" xlink:title="Default configuration for the DFPlayer Mini driver. ">
<polygon fill="none" stroke="#000000" points="80.5,-224.5 80.5,-243.5 177.5,-243.5 177.5,-224.5 80.5,-224.5"/>
<text text-anchor="middle" x="129" y="-231.5" font-family="Helvetica,sans-Serif" font-size="10.00" fill="#000000">dfplayer_params.h</text>
</a>
</g>
</g>
<!-- Node2&#45;&gt;Node5 -->
<g id="edge5" class="edge">
<title>Node2&#45;&gt;Node5</title>
<path fill="none" stroke="#191970" d="M207.4523,-280.2455C192.7401,-271.5731 171.0112,-258.7645 154.1495,-248.825"/>
<polygon fill="#191970" stroke="#191970" points="155.7502,-245.7057 145.3581,-243.6427 152.1954,-251.736 155.7502,-245.7057"/>
</g>
<!-- Node2&#45;&gt;Node7 -->
<g id="edge34" class="edge">
<title>Node2&#45;&gt;Node7</title>
<path fill="none" stroke="#191970" d="M228.6893,-280.4509C237.7814,-261.936 257.9531,-220.8591 269.8078,-196.7187"/>
<polygon fill="#191970" stroke="#191970" points="273.0563,-198.0438 274.3226,-187.5249 266.773,-194.9582 273.0563,-198.0438"/>
</g>
<!-- Node6 -->
<g id="node7" class="node">
<title>Node6</title>
<polygon fill="none" stroke="#bfbfbf" points="128.5,-168.5 128.5,-187.5 177.5,-187.5 177.5,-168.5 128.5,-168.5"/>
<text text-anchor="middle" x="153" y="-175.5" font-family="Helvetica,sans-Serif" font-size="10.00" fill="#000000">board.h</text>
</g>
<!-- Node5&#45;&gt;Node6 -->
<g id="edge6" class="edge">
<title>Node5&#45;&gt;Node6</title>
<path fill="none" stroke="#191970" d="M133.1805,-224.2455C136.381,-216.7776 140.896,-206.2427 144.8084,-197.1137"/>
<polygon fill="#191970" stroke="#191970" points="148.1452,-198.2129 148.8674,-187.6427 141.7112,-195.4554 148.1452,-198.2129"/>
</g>
<!-- Node5&#45;&gt;Node7 -->
<g id="edge7" class="edge">
<title>Node5&#45;&gt;Node7</title>
<path fill="none" stroke="#191970" d="M154.7859,-224.3733C179.4047,-215.1822 216.69,-201.2624 243.9875,-191.0713"/>
<polygon fill="#191970" stroke="#191970" points="245.4063,-194.2777 253.5506,-187.5011 242.958,-187.7198 245.4063,-194.2777"/>
</g>
<!-- Node20 -->
<g id="node21" class="node">
<title>Node20</title>
<g id="a_node21"><a xlink:href="kernel__defines_8h.html" target="_top" xlink:title="Common macros and compiler attributes/pragmas configuration. ">
<polygon fill="none" stroke="#000000" points="23,-168.5 23,-187.5 111,-187.5 111,-168.5 23,-168.5"/>
<text text-anchor="middle" x="67" y="-175.5" font-family="Helvetica,sans-Serif" font-size="10.00" fill="#000000">kernel_defines.h</text>
</a>
</g>
</g>
<!-- Node5&#45;&gt;Node20 -->
<g id="edge32" class="edge">
<title>Node5&#45;&gt;Node20</title>
<path fill="none" stroke="#191970" d="M118.2004,-224.2455C109.1322,-216.0549 95.9794,-204.1749 85.2755,-194.5069"/>
<polygon fill="#191970" stroke="#191970" points="87.4429,-191.7482 77.6758,-187.6427 82.7509,-196.9429 87.4429,-191.7482"/>
</g>
<!-- Node7&#45;&gt;Node3 -->
<g id="edge8" class="edge">
<title>Node7&#45;&gt;Node3</title>
<path fill="none" stroke="#191970" d="M238.153,-168.4402C201.731,-159.8424 146.7167,-146.6759 90.1003,-132.2385"/>
<polygon fill="#191970" stroke="#191970" points="90.817,-128.8092 80.2615,-129.7207 89.0816,-135.5907 90.817,-128.8092"/>
</g>
<!-- Node7&#45;&gt;Node4 -->
<g id="edge9" class="edge">
<title>Node7&#45;&gt;Node4</title>
<path fill="none" stroke="#191970" d="M282.5491,-168.1685C285.871,-158.8812 290.9198,-144.5435 295,-132 300.0345,-116.5226 305.3616,-98.8725 309.2511,-85.7213"/>
<polygon fill="#191970" stroke="#191970" points="312.6819,-86.46 312.1421,-75.8789 305.9656,-84.4872 312.6819,-86.46"/>
</g>
<!-- Node8 -->
<g id="node9" class="node">
<title>Node8</title>
<g id="a_node9"><a xlink:href="kernel__types_8h.html" target="_top" xlink:title="Types used by the kernel. ">
<polygon fill="none" stroke="#000000" points="98,-112.5 98,-131.5 178,-131.5 178,-112.5 98,-112.5"/>
<text text-anchor="middle" x="138" y="-119.5" font-family="Helvetica,sans-Serif" font-size="10.00" fill="#000000">kernel_types.h</text>
</a>
</g>
</g>
<!-- Node7&#45;&gt;Node8 -->
<g id="edge10" class="edge">
<title>Node7&#45;&gt;Node8</title>
<path fill="none" stroke="#191970" d="M254.7612,-168.3733C231.7211,-159.2226 196.8786,-145.3844 171.2499,-135.2057"/>
<polygon fill="#191970" stroke="#191970" points="172.5082,-131.9395 161.9225,-131.5011 169.9244,-138.4452 172.5082,-131.9395"/>
</g>
<!-- Node13 -->
<g id="node14" class="node">
<title>Node13</title>
<g id="a_node14"><a xlink:href="mutex_8h.html" target="_top" xlink:title="Mutex for thread synchronization. ">
<polygon fill="none" stroke="#000000" points="234,-112.5 234,-131.5 286,-131.5 286,-112.5 234,-112.5"/>
<text text-anchor="middle" x="260" y="-119.5" font-family="Helvetica,sans-Serif" font-size="10.00" fill="#000000">mutex.h</text>
</a>
</g>
</g>
<!-- Node7&#45;&gt;Node13 -->
<g id="edge16" class="edge">
<title>Node7&#45;&gt;Node13</title>
<path fill="none" stroke="#191970" d="M275.6905,-168.2455C273.1567,-160.7776 269.5823,-150.2427 266.485,-141.1137"/>
<polygon fill="#191970" stroke="#191970" points="269.7991,-139.9879 263.2716,-131.6427 263.1702,-142.237 269.7991,-139.9879"/>
</g>
<!-- Node15 -->
<g id="node16" class="node">
<title>Node15</title>
<g id="a_node16"><a xlink:href="gpio_8h.html" target="_top" xlink:title="Low&#45;level GPIO peripheral driver interface definitions. ">
<polygon fill="none" stroke="#000000" points="508,-112.5 508,-131.5 580,-131.5 580,-112.5 508,-112.5"/>
<text text-anchor="middle" x="544" y="-119.5" font-family="Helvetica,sans-Serif" font-size="10.00" fill="#000000">periph/gpio.h</text>
</a>
</g>
</g>
<!-- Node7&#45;&gt;Node15 -->
<g id="edge20" class="edge">
<title>Node7&#45;&gt;Node15</title>
<path fill="none" stroke="#191970" d="M323.6985,-168.8252C366.0017,-160.1037 431.5596,-146.4893 497.5037,-132.3051"/>
<polygon fill="#191970" stroke="#191970" points="498.6209,-135.6448 507.6593,-130.1167 497.1464,-128.8018 498.6209,-135.6448"/>
</g>
<!-- Node18 -->
<g id="node19" class="node">
<title>Node18</title>
<g id="a_node19"><a xlink:href="uart_8h.html" target="_top" xlink:title="Low&#45;level UART peripheral driver interface definition. ">
<polygon fill="none" stroke="#000000" points="418.5,-112.5 418.5,-131.5 489.5,-131.5 489.5,-112.5 418.5,-112.5"/>
<text text-anchor="middle" x="454" y="-119.5" font-family="Helvetica,sans-Serif" font-size="10.00" fill="#000000">periph/uart.h</text>
</a>
</g>
</g>
<!-- Node7&#45;&gt;Node18 -->
<g id="edge24" class="edge">
<title>Node7&#45;&gt;Node18</title>
<path fill="none" stroke="#191970" d="M309.0836,-168.3733C338.1834,-159.0613 382.4523,-144.8953 414.403,-134.671"/>
<polygon fill="#191970" stroke="#191970" points="415.8515,-137.8824 424.309,-131.5011 413.718,-131.2155 415.8515,-137.8824"/>
</g>
<!-- Node8&#45;&gt;Node4 -->
<g id="edge11" class="edge">
<title>Node8&#45;&gt;Node4</title>
<path fill="none" stroke="#191970" d="M168.4274,-112.3733C199.6891,-102.4825 248.2597,-87.1156 280.8251,-76.8124"/>
<polygon fill="#191970" stroke="#191970" points="281.9025,-80.1426 290.3809,-73.7891 279.7909,-73.4687 281.9025,-80.1426"/>
</g>
<!-- Node9 -->
<g id="node10" class="node">
<title>Node9</title>
<g id="a_node10"><a xlink:href="inttypes_8h.html" target="_top" xlink:title="Adds include for missing inttype definitions. ">
<polygon fill="none" stroke="#000000" points="86.5,-56.5 86.5,-75.5 145.5,-75.5 145.5,-56.5 86.5,-56.5"/>
<text text-anchor="middle" x="116" y="-63.5" font-family="Helvetica,sans-Serif" font-size="10.00" fill="#000000">inttypes.h</text>
</a>
</g>
</g>
<!-- Node8&#45;&gt;Node9 -->
<g id="edge12" class="edge">
<title>Node8&#45;&gt;Node9</title>
<path fill="none" stroke="#191970" d="M134.1679,-112.2455C131.2341,-104.7776 127.0953,-94.2427 123.509,-85.1137"/>
<polygon fill="#191970" stroke="#191970" points="126.7024,-83.6704 119.7882,-75.6427 120.1871,-86.23 126.7024,-83.6704"/>
</g>
<!-- Node10 -->
<g id="node11" class="node">
<title>Node10</title>
<polygon fill="none" stroke="#bfbfbf" points="518,-56.5 518,-75.5 566,-75.5 566,-56.5 518,-56.5"/>
<text text-anchor="middle" x="542" y="-63.5" font-family="Helvetica,sans-Serif" font-size="10.00" fill="#000000">limits.h</text>
</g>
<!-- Node8&#45;&gt;Node10 -->
<g id="edge13" class="edge">
<title>Node8&#45;&gt;Node10</title>
<path fill="none" stroke="#191970" d="M178.0743,-117.2178C263.0976,-107.0484 457.3571,-83.6826 508.0135,-75.5843"/>
<polygon fill="#191970" stroke="#191970" points="508.7473,-79.0086 517.9731,-73.7993 507.5124,-72.1184 508.7473,-79.0086"/>
</g>
<!-- Node11 -->
<g id="node12" class="node">
<title>Node11</title>
<polygon fill="none" stroke="#bfbfbf" points="164,-56.5 164,-75.5 216,-75.5 216,-56.5 164,-56.5"/>
<text text-anchor="middle" x="190" y="-63.5" font-family="Helvetica,sans-Serif" font-size="10.00" fill="#000000">stddef.h</text>
</g>
<!-- Node8&#45;&gt;Node11 -->
<g id="edge14" class="edge">
<title>Node8&#45;&gt;Node11</title>
<path fill="none" stroke="#191970" d="M147.0577,-112.2455C154.5142,-104.2155 165.2634,-92.6394 174.1417,-83.0781"/>
<polygon fill="#191970" stroke="#191970" points="176.8063,-85.3522 181.0461,-75.6427 171.6768,-80.589 176.8063,-85.3522"/>
</g>
<!-- Node12 -->
<g id="node13" class="node">
<title>Node12</title>
<polygon fill="none" stroke="#bfbfbf" points="0,-56.5 0,-75.5 68,-75.5 68,-56.5 0,-56.5"/>
<text text-anchor="middle" x="34" y="-63.5" font-family="Helvetica,sans-Serif" font-size="10.00" fill="#000000">sys/types.h</text>
</g>
<!-- Node8&#45;&gt;Node12 -->
<g id="edge15" class="edge">
<title>Node8&#45;&gt;Node12</title>
<path fill="none" stroke="#191970" d="M119.8846,-112.2455C103.555,-103.4527 79.329,-90.4079 60.7661,-80.4125"/>
<polygon fill="#191970" stroke="#191970" points="62.3719,-77.3021 51.9078,-75.6427 59.0532,-83.4654 62.3719,-77.3021"/>
</g>
<!-- Node13&#45;&gt;Node4 -->
<g id="edge18" class="edge">
<title>Node13&#45;&gt;Node4</title>
<path fill="none" stroke="#191970" d="M269.5803,-112.2455C277.5458,-104.1352 289.0641,-92.4075 298.5079,-82.7919"/>
<polygon fill="#191970" stroke="#191970" points="301.0195,-85.2297 305.5295,-75.6427 296.0253,-80.3247 301.0195,-85.2297"/>
</g>
<!-- Node13&#45;&gt;Node11 -->
<g id="edge17" class="edge">
<title>Node13&#45;&gt;Node11</title>
<path fill="none" stroke="#191970" d="M247.8069,-112.2455C237.3679,-103.8943 222.1345,-91.7076 209.926,-81.9408"/>
<polygon fill="#191970" stroke="#191970" points="212.0485,-79.1566 202.0533,-75.6427 207.6756,-84.6227 212.0485,-79.1566"/>
</g>
<!-- Node14 -->
<g id="node15" class="node">
<title>Node14</title>
<g id="a_node15"><a xlink:href="list_8h.html" target="_top" xlink:title="Intrusive linked list. ">
<polygon fill="none" stroke="#000000" points="234,-56.5 234,-75.5 272,-75.5 272,-56.5 234,-56.5"/>
<text text-anchor="middle" x="253" y="-63.5" font-family="Helvetica,sans-Serif" font-size="10.00" fill="#000000">list.h</text>
</a>
</g>
</g>
<!-- Node13&#45;&gt;Node14 -->
<g id="edge19" class="edge">
<title>Node13&#45;&gt;Node14</title>
<path fill="none" stroke="#191970" d="M258.7807,-112.2455C257.8673,-104.9382 256.5868,-94.6944 255.4631,-85.7046"/>
<polygon fill="#191970" stroke="#191970" points="258.9187,-85.1313 254.2053,-75.6427 251.9728,-85.9996 258.9187,-85.1313"/>
</g>
<!-- Node15&#45;&gt;Node10 -->
<g id="edge21" class="edge">
<title>Node15&#45;&gt;Node10</title>
<path fill="none" stroke="#191970" d="M543.6516,-112.2455C543.3907,-104.9382 543.0248,-94.6944 542.7037,-85.7046"/>
<polygon fill="#191970" stroke="#191970" points="546.1992,-85.5113 542.3444,-75.6427 539.2036,-85.7613 546.1992,-85.5113"/>
</g>
<!-- Node16 -->
<g id="node17" class="node">
<title>Node16</title>
<polygon fill="none" stroke="#bfbfbf" points="584,-56.5 584,-75.5 656,-75.5 656,-56.5 584,-56.5"/>
<text text-anchor="middle" x="620" y="-63.5" font-family="Helvetica,sans-Serif" font-size="10.00" fill="#000000">periph_cpu.h</text>
</g>
<!-- Node15&#45;&gt;Node16 -->
<g id="edge22" class="edge">
<title>Node15&#45;&gt;Node16</title>
<path fill="none" stroke="#191970" d="M557.2382,-112.2455C568.681,-103.814 585.4296,-91.4729 598.7475,-81.6598"/>
<polygon fill="#191970" stroke="#191970" points="600.9391,-84.3924 606.9135,-75.6427 596.7867,-78.757 600.9391,-84.3924"/>
</g>
<!-- Node17 -->
<g id="node18" class="node">
<title>Node17</title>
<polygon fill="none" stroke="#bfbfbf" points="410.5,-.5 410.5,-19.5 485.5,-19.5 485.5,-.5 410.5,-.5"/>
<text text-anchor="middle" x="448" y="-7.5" font-family="Helvetica,sans-Serif" font-size="10.00" fill="#000000">periph_conf.h</text>
</g>
<!-- Node15&#45;&gt;Node17 -->
<g id="edge23" class="edge">
<title>Node15&#45;&gt;Node17</title>
<path fill="none" stroke="#191970" d="M580.2115,-116.2051C624.7596,-107.5389 691.4373,-88.6289 665,-56 644.1737,-30.2962 553.5641,-18.3746 496.2173,-13.3132"/>
<polygon fill="#191970" stroke="#191970" points="496.1793,-9.7977 485.9209,-12.4462 495.5919,-16.773 496.1793,-9.7977"/>
</g>
<!-- Node18&#45;&gt;Node4 -->
<g id="edge26" class="edge">
<title>Node18&#45;&gt;Node4</title>
<path fill="none" stroke="#191970" d="M430.105,-112.3733C407.4918,-103.2629 373.3458,-89.5062 348.1127,-79.3404"/>
<polygon fill="#191970" stroke="#191970" points="349.1666,-75.9917 338.5831,-75.5011 346.5507,-82.4845 349.1666,-75.9917"/>
</g>
<!-- Node18&#45;&gt;Node10 -->
<g id="edge27" class="edge">
<title>Node18&#45;&gt;Node10</title>
<path fill="none" stroke="#191970" d="M469.3284,-112.2455C482.8303,-103.6534 502.7122,-91.0014 518.2686,-81.1018"/>
<polygon fill="#191970" stroke="#191970" points="520.2897,-83.9643 526.8472,-75.6427 516.5315,-78.0587 520.2897,-83.9643"/>
</g>
<!-- Node18&#45;&gt;Node11 -->
<g id="edge25" class="edge">
<title>Node18&#45;&gt;Node11</title>
<path fill="none" stroke="#191970" d="M418.4994,-115.7802C375.2602,-108.0051 299.8141,-93.7984 226.2127,-76.1588"/>
<polygon fill="#191970" stroke="#191970" points="226.8561,-72.7135 216.3133,-73.7623 225.209,-79.517 226.8561,-72.7135"/>
</g>
<!-- Node18&#45;&gt;Node16 -->
<g id="edge28" class="edge">
<title>Node18&#45;&gt;Node16</title>
<path fill="none" stroke="#191970" d="M482.5364,-112.3733C510.0202,-103.1016 551.7686,-89.0178 582.0452,-78.804"/>
<polygon fill="#191970" stroke="#191970" points="583.4794,-82.0141 591.836,-75.5011 581.2418,-75.3813 583.4794,-82.0141"/>
</g>
<!-- Node18&#45;&gt;Node17 -->
<g id="edge29" class="edge">
<title>Node18&#45;&gt;Node17</title>
<path fill="none" stroke="#191970" d="M429.5288,-112.3462C414.2893,-104.9011 395.9388,-92.9799 387,-76 376.3001,-55.6747 398.0785,-36.9002 418.5198,-24.6143"/>
<polygon fill="#191970" stroke="#191970" points="420.4099,-27.5666 427.3972,-19.6023 416.9684,-21.4709 420.4099,-27.5666"/>
</g>
<!-- Node19 -->
<g id="node20" class="node">
<title>Node19</title>
<g id="a_node20"><a xlink:href="dev__enums_8h.html" target="_top" xlink:title="Device enumerations for backward compatibility with existing peripheral driver implementations. ">
<polygon fill="none" stroke="#000000" points="396,-56.5 396,-75.5 500,-75.5 500,-56.5 396,-56.5"/>
<text text-anchor="middle" x="448" y="-63.5" font-family="Helvetica,sans-Serif" font-size="10.00" fill="#000000">periph/dev_enums.h</text>
</a>
</g>
</g>
<!-- Node18&#45;&gt;Node19 -->
<g id="edge30" class="edge">
<title>Node18&#45;&gt;Node19</title>
<path fill="none" stroke="#191970" d="M452.9549,-112.2455C452.172,-104.9382 451.0744,-94.6944 450.1112,-85.7046"/>
<polygon fill="#191970" stroke="#191970" points="453.5786,-85.2129 449.0331,-75.6427 446.6185,-85.9587 453.5786,-85.2129"/>
</g>
<!-- Node19&#45;&gt;Node17 -->
<g id="edge31" class="edge">
<title>Node19&#45;&gt;Node17</title>
<path fill="none" stroke="#191970" d="M448,-56.2455C448,-48.9382 448,-38.6944 448,-29.7046"/>
<polygon fill="#191970" stroke="#191970" points="451.5001,-29.6426 448,-19.6427 444.5001,-29.6427 451.5001,-29.6426"/>
</g>
<!-- Node20&#45;&gt;Node11 -->
<g id="edge33" class="edge">
<title>Node20&#45;&gt;Node11</title>
<path fill="none" stroke="#191970" d="M49.9786,-168.4179C29.4007,-155.6082 -.6427,-132.174 15,-112 52.5225,-63.6081 89.3731,-90.0451 153.92,-75.9914"/>
<polygon fill="#191970" stroke="#191970" points="154.7666,-79.3876 163.6477,-73.6104 153.1023,-72.5884 154.7666,-79.3876"/>
</g>
<!-- Node21&#45;&gt;Node4 -->
<g id="edge37" class="edge">
<title>Node21&#45;&gt;Node4</title>
<path fill="none" stroke="#191970" d="M424.4228,-168.4883C411.3551,-155.5599 387.1431,-131.7833 366,-112 355.3888,-102.0712 343.322,-91.1704 333.5906,-82.4733"/>
<polygon fill="#191970" stroke="#191970" points="335.8441,-79.7934 326.0488,-75.7559 331.1883,-85.0206 335.8441,-79.7934"/>
</g>
<!-- Node21&#45;&gt;Node13 -->
<g id="edge39" class="edge">
<title>Node21&#45;&gt;Node13</title>
<path fill="none" stroke="#191970" d="M404.0883,-168.3733C374.1026,-158.7227 327.9178,-143.8586 295.955,-133.5717"/>
<polygon fill="#191970" stroke="#191970" points="296.7072,-130.1371 286.1157,-130.4051 294.5626,-136.8005 296.7072,-130.1371"/>
</g>
<!-- Node21&#45;&gt;Node15 -->
<g id="edge38" class="edge">
<title>Node21&#45;&gt;Node15</title>
<path fill="none" stroke="#191970" d="M453.1605,-168.2455C470.5111,-159.4125 496.2901,-146.2887 515.9583,-136.2758"/>
<polygon fill="#191970" stroke="#191970" points="517.7353,-139.2986 525.059,-131.6427 514.5595,-133.0605 517.7353,-139.2986"/>
</g>
<!-- Node22&#45;&gt;Node4 -->
<g id="edge41" class="edge">
<title>Node22&#45;&gt;Node4</title>
<path fill="none" stroke="#191970" d="M355.5649,-224.4862C348.7382,-197.8144 329.3107,-121.9117 320.041,-85.695"/>
<polygon fill="#191970" stroke="#191970" points="323.3858,-84.6477 317.5155,-75.8279 316.6044,-86.3835 323.3858,-84.6477"/>
</g>
<!-- Node22&#45;&gt;Node7 -->
<g id="edge42" class="edge">
<title>Node22&#45;&gt;Node7</title>
<path fill="none" stroke="#191970" d="M344.2393,-224.2455C332.3448,-215.814 314.935,-203.4729 301.0915,-193.6598"/>
<polygon fill="#191970" stroke="#191970" points="302.7854,-190.5704 292.6031,-187.6427 298.7372,-196.2811 302.7854,-190.5704"/>
</g>
</g>
</svg>
