<?xml version="1.0" encoding="UTF-8" standalone="no"?>
<!DOCTYPE svg PUBLIC "-//W3C//DTD SVG 1.1//EN"
 "http://www.w3.org/Graphics/SVG/1.1/DTD/svg11.dtd">
<!-- Generated by graphviz version 2.40.1 (20161225.0304)
 -->
<!-- Title: drivers/dfplayer/include/dfplayer_types.h Pages: 1 -->
<svg width="679pt" height="207pt"
 viewBox="0.00 0.00 678.96 207.00" xmlns="http://www.w3.org/2000/svg" xmlns:xlink="http://www.w3.org/1999/xlink">
<g id="graph0" class="graph" transform="scale(1 1) rotate(0) translate(4 203)">
<title>drivers/dfplayer/include/dfplayer_types.h</title>
<!-- Node0 -->
<g id="node1" class="node">
<title>Node0</title>
<polygon fill="#bfbfbf" stroke="#000000" points="135.5,-168.5 135.5,-198.5 252.5,-198.5 252.5,-168.5 135.5,-168.5"/>
<text text-anchor="start" x="143.5" y="-186.5" font-family="Helvetica,sans-Serif" font-size="10.00" fill="#000000">drivers/dfplayer/include</text>
<text text-anchor="middle" x="194" y="-175.5" font-family="Helvetica,sans-Serif" font-size="10.00" fill="#000000">/dfplayer_types.h</text>
</g>
<!-- Node1 -->
<g id="node2" class="node">
<title>Node1</title>
<polygon fill="none" stroke="#bfbfbf" points="14,-112.5 14,-131.5 70,-131.5 70,-112.5 14,-112.5"/>
<text text-anchor="middle" x="42" y="-119.5" font-family="Helvetica,sans-Serif" font-size="10.00" fill="#000000">stdbool.h</text>
</g>
<!-- Node0&#45;&gt;Node1 -->
<g id="edge1" class="edge">
<title>Node0&#45;&gt;Node1</title>
<path fill="none" stroke="#191970" d="M156.8166,-168.4554C131.7887,-158.329 99.0837,-145.0964 74.9834,-135.3453"/>
<polygon fill="#191970" stroke="#191970" points="76.1373,-132.0366 65.5546,-131.5303 73.5118,-138.5256 76.1373,-132.0366"/>
</g>
<!-- Node2 -->
<g id="node3" class="node">
<title>Node2</title>
<polygon fill="none" stroke="#bfbfbf" points="56.5,-56.5 56.5,-75.5 105.5,-75.5 105.5,-56.5 56.5,-56.5"/>
<text text-anchor="middle" x="81" y="-63.5" font-family="Helvetica,sans-Serif" font-size="10.00" fill="#000000">stdint.h</text>
</g>
<!-- Node0&#45;&gt;Node2 -->
<g id="edge2" class="edge">
<title>Node0&#45;&gt;Node2</title>
<path fill="none" stroke="#191970" d="M164.425,-168.2861C148.9376,-159.2654 130.4516,-146.7224 117,-132 104.5122,-118.3324 94.8107,-99.5485 88.6417,-85.5139"/>
<polygon fill="#191970" stroke="#191970" points="91.7011,-83.7563 84.6251,-75.8708 85.2393,-86.4478 91.7011,-83.7563"/>
</g>
<!-- Node3 -->
<g id="node4" class="node">
<title>Node3</title>
<g id="a_node4"><a xlink:href="kernel__types_8h.html" target="_top" xlink:title="Types used by the kernel. ">
<polygon fill="none" stroke="#000000" points="196,-112.5 196,-131.5 276,-131.5 276,-112.5 196,-112.5"/>
<text text-anchor="middle" x="236" y="-119.5" font-family="Helvetica,sans-Serif" font-size="10.00" fill="#000000">kernel_types.h</text>
</a>
</g>
</g>
<!-- Node0&#45;&gt;Node3 -->
<g id="edge3" class="edge">
<title>Node0&#45;&gt;Node3</title>
<path fill="none" stroke="#191970" d="M204.382,-168.2977C210.1513,-159.8498 217.3716,-149.2773 223.4553,-140.369"/>
<polygon fill="#191970" stroke="#191970" points="226.5259,-142.0788 229.2753,-131.8469 220.7453,-138.1311 226.5259,-142.0788"/>
</g>
<!-- Node8 -->
<g id="node9" class="node">
<title>Node8</title>
<g id="a_node9"><a xlink:href="mutex_8h.html" target="_top" xlink:title="Mutex for thread synchronization. ">
<polygon fill="none" stroke="#000000" points="126,-112.5 126,-131.5 178,-131.5 178,-112.5 126,-112.5"/>
<text text-anchor="middle" x="152" y="-119.5" font-family="Helvetica,sans-Serif" font-size="10.00" fill="#000000">mutex.h</text>
</a>
</g>
</g>
<!-- Node0&#45;&gt;Node8 -->
<g id="edge9" class="edge">
<title>Node0&#45;&gt;Node8</title>
<path fill="none" stroke="#191970" d="M183.618,-168.2977C177.8487,-159.8498 170.6284,-149.2773 164.5447,-140.369"/>
<polygon fill="#191970" stroke="#191970" points="167.2547,-138.1311 158.7247,-131.8469 161.4741,-142.0788 167.2547,-138.1311"/>
</g>
<!-- Node10 -->
<g id="node11" class="node">
<title>Node10</title>
<g id="a_node11"><a xlink:href="gpio_8h.html" target="_top" xlink:title="Low&#45;level GPIO peripheral driver interface definitions. ">
<polygon fill="none" stroke="#000000" points="503,-112.5 503,-131.5 575,-131.5 575,-112.5 503,-112.5"/>
<text text-anchor="middle" x="539" y="-119.5" font-family="Helvetica,sans-Serif" font-size="10.00" fill="#000000">periph/gpio.h</text>
</a>
</g>
</g>
<!-- Node0&#45;&gt;Node10 -->
<g id="edge13" class="edge">
<title>Node0&#45;&gt;Node10</title>
<path fill="none" stroke="#191970" d="M252.5245,-173.0674C320.4509,-160.9588 431.0552,-141.2423 493.0847,-130.1849"/>
<polygon fill="#191970" stroke="#191970" points="493.7463,-133.6222 502.9769,-128.4215 492.5178,-126.7309 493.7463,-133.6222"/>
</g>
<!-- Node13 -->
<g id="node14" class="node">
<title>Node13</title>
<g id="a_node14"><a xlink:href="uart_8h.html" target="_top" xlink:title="Low&#45;level UART peripheral driver interface definition. ">
<polygon fill="none" stroke="#000000" points="332.5,-112.5 332.5,-131.5 403.5,-131.5 403.5,-112.5 332.5,-112.5"/>
<text text-anchor="middle" x="368" y="-119.5" font-family="Helvetica,sans-Serif" font-size="10.00" fill="#000000">periph/uart.h</text>
</a>
</g>
</g>
<!-- Node0&#45;&gt;Node13 -->
<g id="edge17" class="edge">
<title>Node0&#45;&gt;Node13</title>
<path fill="none" stroke="#191970" d="M236.5652,-168.4554C265.5975,-158.194 303.6541,-144.7429 331.3409,-134.9571"/>
<polygon fill="#191970" stroke="#191970" points="332.7741,-138.1628 341.0362,-131.5303 330.4414,-131.5629 332.7741,-138.1628"/>
</g>
<!-- Node3&#45;&gt;Node2 -->
<g id="edge4" class="edge">
<title>Node3&#45;&gt;Node2</title>
<path fill="none" stroke="#191970" d="M209.3546,-112.3733C183.339,-102.9741 143.6351,-88.6295 115.2793,-78.3848"/>
<polygon fill="#191970" stroke="#191970" points="116.3581,-75.0532 105.7638,-74.9469 113.9795,-81.6367 116.3581,-75.0532"/>
</g>
<!-- Node4 -->
<g id="node5" class="node">
<title>Node4</title>
<g id="a_node5"><a xlink:href="inttypes_8h.html" target="_top" xlink:title="Adds include for missing inttype definitions. ">
<polygon fill="none" stroke="#000000" points="280.5,-56.5 280.5,-75.5 339.5,-75.5 339.5,-56.5 280.5,-56.5"/>
<text text-anchor="middle" x="310" y="-63.5" font-family="Helvetica,sans-Serif" font-size="10.00" fill="#000000">inttypes.h</text>
</a>
</g>
</g>
<!-- Node3&#45;&gt;Node4 -->
<g id="edge5" class="edge">
<title>Node3&#45;&gt;Node4</title>
<path fill="none" stroke="#191970" d="M248.8898,-112.2455C259.9254,-103.8943 276.0292,-91.7076 288.9353,-81.9408"/>
<polygon fill="#191970" stroke="#191970" points="291.3959,-84.4681 297.2579,-75.6427 287.1717,-78.8862 291.3959,-84.4681"/>
</g>
<!-- Node5 -->
<g id="node6" class="node">
<title>Node5</title>
<polygon fill="none" stroke="#bfbfbf" points="396,-56.5 396,-75.5 444,-75.5 444,-56.5 396,-56.5"/>
<text text-anchor="middle" x="420" y="-63.5" font-family="Helvetica,sans-Serif" font-size="10.00" fill="#000000">limits.h</text>
</g>
<!-- Node3&#45;&gt;Node5 -->
<g id="edge6" class="edge">
<title>Node3&#45;&gt;Node5</title>
<path fill="none" stroke="#191970" d="M267.6307,-112.3733C300.5944,-102.3408 352.0707,-86.6741 385.9183,-76.3727"/>
<polygon fill="#191970" stroke="#191970" points="387.269,-79.6202 395.8167,-73.3601 385.2308,-72.9235 387.269,-79.6202"/>
</g>
<!-- Node6 -->
<g id="node7" class="node">
<title>Node6</title>
<polygon fill="none" stroke="#bfbfbf" points="210,-56.5 210,-75.5 262,-75.5 262,-56.5 210,-56.5"/>
<text text-anchor="middle" x="236" y="-63.5" font-family="Helvetica,sans-Serif" font-size="10.00" fill="#000000">stddef.h</text>
</g>
<!-- Node3&#45;&gt;Node6 -->
<g id="edge7" class="edge">
<title>Node3&#45;&gt;Node6</title>
<path fill="none" stroke="#191970" d="M236,-112.2455C236,-104.9382 236,-94.6944 236,-85.7046"/>
<polygon fill="#191970" stroke="#191970" points="239.5001,-85.6426 236,-75.6427 232.5001,-85.6427 239.5001,-85.6426"/>
</g>
<!-- Node7 -->
<g id="node8" class="node">
<title>Node7</title>
<polygon fill="none" stroke="#bfbfbf" points="124,-56.5 124,-75.5 192,-75.5 192,-56.5 124,-56.5"/>
<text text-anchor="middle" x="158" y="-63.5" font-family="Helvetica,sans-Serif" font-size="10.00" fill="#000000">sys/types.h</text>
</g>
<!-- Node3&#45;&gt;Node7 -->
<g id="edge8" class="edge">
<title>Node3&#45;&gt;Node7</title>
<path fill="none" stroke="#191970" d="M222.4134,-112.2455C210.6695,-103.814 193.4801,-91.4729 179.8118,-81.6598"/>
<polygon fill="#191970" stroke="#191970" points="181.5954,-78.6316 171.4309,-75.6427 177.5129,-84.3179 181.5954,-78.6316"/>
</g>
<!-- Node8&#45;&gt;Node2 -->
<g id="edge11" class="edge">
<title>Node8&#45;&gt;Node2</title>
<path fill="none" stroke="#191970" d="M139.6327,-112.2455C129.0446,-103.8943 113.5936,-91.7076 101.2107,-81.9408"/>
<polygon fill="#191970" stroke="#191970" points="103.2447,-79.0875 93.2255,-75.6427 98.9097,-84.5837 103.2447,-79.0875"/>
</g>
<!-- Node8&#45;&gt;Node6 -->
<g id="edge10" class="edge">
<title>Node8&#45;&gt;Node6</title>
<path fill="none" stroke="#191970" d="M166.6317,-112.2455C179.3994,-103.7337 198.1438,-91.2375 212.9299,-81.3801"/>
<polygon fill="#191970" stroke="#191970" points="215.1569,-84.1019 221.536,-75.6427 211.274,-78.2775 215.1569,-84.1019"/>
</g>
<!-- Node9 -->
<g id="node10" class="node">
<title>Node9</title>
<g id="a_node10"><a xlink:href="list_8h.html" target="_top" xlink:title="Intrusive linked list. ">
<polygon fill="none" stroke="#000000" points="0,-56.5 0,-75.5 38,-75.5 38,-56.5 0,-56.5"/>
<text text-anchor="middle" x="19" y="-63.5" font-family="Helvetica,sans-Serif" font-size="10.00" fill="#000000">list.h</text>
</a>
</g>
</g>
<!-- Node8&#45;&gt;Node9 -->
<g id="edge12" class="edge">
<title>Node8&#45;&gt;Node9</title>
<path fill="none" stroke="#191970" d="M129.1365,-112.3733C106.5506,-102.8634 71.9411,-88.291 47.5584,-78.0246"/>
<polygon fill="#191970" stroke="#191970" points="48.6955,-74.7058 38.1209,-74.0509 45.979,-81.1573 48.6955,-74.7058"/>
</g>
<!-- Node10&#45;&gt;Node5 -->
<g id="edge14" class="edge">
<title>Node10&#45;&gt;Node5</title>
<path fill="none" stroke="#191970" d="M518.5432,-112.3733C499.5262,-103.4241 470.9825,-89.9917 449.5024,-79.8835"/>
<polygon fill="#191970" stroke="#191970" points="450.7284,-76.5923 440.1899,-75.5011 447.7478,-82.926 450.7284,-76.5923"/>
</g>
<!-- Node11 -->
<g id="node12" class="node">
<title>Node11</title>
<polygon fill="none" stroke="#bfbfbf" points="584,-56.5 584,-75.5 656,-75.5 656,-56.5 584,-56.5"/>
<text text-anchor="middle" x="620" y="-63.5" font-family="Helvetica,sans-Serif" font-size="10.00" fill="#000000">periph_cpu.h</text>
</g>
<!-- Node10&#45;&gt;Node11 -->
<g id="edge15" class="edge">
<title>Node10&#45;&gt;Node11</title>
<path fill="none" stroke="#191970" d="M553.1091,-112.2455C565.4209,-103.7337 583.4958,-91.2375 597.7538,-81.3801"/>
<polygon fill="#191970" stroke="#191970" points="599.8174,-84.2085 606.0526,-75.6427 595.8366,-78.4506 599.8174,-84.2085"/>
</g>
<!-- Node12 -->
<g id="node13" class="node">
<title>Node12</title>
<polygon fill="none" stroke="#bfbfbf" points="476.5,-.5 476.5,-19.5 551.5,-19.5 551.5,-.5 476.5,-.5"/>
<text text-anchor="middle" x="514" y="-7.5" font-family="Helvetica,sans-Serif" font-size="10.00" fill="#000000">periph_conf.h</text>
</g>
<!-- Node10&#45;&gt;Node12 -->
<g id="edge16" class="edge">
<title>Node10&#45;&gt;Node12</title>
<path fill="none" stroke="#191970" d="M575.0241,-117.0578C620.8238,-109.2281 691.0167,-91.1227 665,-56 652.5452,-39.186 601.2195,-26.0635 561.8285,-18.2113"/>
<polygon fill="#191970" stroke="#191970" points="562.3291,-14.7433 551.8465,-16.2816 561.0004,-21.6161 562.3291,-14.7433"/>
</g>
<!-- Node13&#45;&gt;Node2 -->
<g id="edge19" class="edge">
<title>Node13&#45;&gt;Node2</title>
<path fill="none" stroke="#191970" d="M332.1381,-116.7094C284.7564,-109.4511 198.5548,-95.32 115.6326,-75.9503"/>
<polygon fill="#191970" stroke="#191970" points="116.3381,-72.5207 105.801,-73.625 114.7269,-79.3327 116.3381,-72.5207"/>
</g>
<!-- Node13&#45;&gt;Node5 -->
<g id="edge20" class="edge">
<title>Node13&#45;&gt;Node5</title>
<path fill="none" stroke="#191970" d="M377.0577,-112.2455C384.5142,-104.2155 395.2634,-92.6394 404.1417,-83.0781"/>
<polygon fill="#191970" stroke="#191970" points="406.8063,-85.3522 411.0461,-75.6427 401.6768,-80.589 406.8063,-85.3522"/>
</g>
<!-- Node13&#45;&gt;Node6 -->
<g id="edge18" class="edge">
<title>Node13&#45;&gt;Node6</title>
<path fill="none" stroke="#191970" d="M345.3084,-112.3733C323.9289,-103.3032 291.6943,-89.6279 267.7638,-79.4755"/>
<polygon fill="#191970" stroke="#191970" points="268.9683,-76.1846 258.3955,-75.5011 266.2344,-82.6287 268.9683,-76.1846"/>
</g>
<!-- Node13&#45;&gt;Node11 -->
<g id="edge21" class="edge">
<title>Node13&#45;&gt;Node11</title>
<path fill="none" stroke="#191970" d="M403.571,-114.0953C448.1561,-104.1875 524.6691,-87.1847 573.7568,-76.2763"/>
<polygon fill="#191970" stroke="#191970" points="574.7914,-79.6318 583.794,-74.0458 573.2728,-72.7985 574.7914,-79.6318"/>
</g>
<!-- Node13&#45;&gt;Node12 -->
<g id="edge22" class="edge">
<title>Node13&#45;&gt;Node12</title>
<path fill="none" stroke="#191970" d="M368.1538,-112.1483C368.9035,-97.938 372.3421,-71.6777 387,-56 407.6627,-33.8997 439.7553,-22.3919 466.5088,-16.413"/>
<polygon fill="#191970" stroke="#191970" points="467.3675,-19.8101 476.466,-14.3818 465.9682,-12.9513 467.3675,-19.8101"/>
</g>
<!-- Node14 -->
<g id="node15" class="node">
<title>Node14</title>
<g id="a_node15"><a xlink:href="dev__enums_8h.html" target="_top" xlink:title="Device enumerations for backward compatibility with existing peripheral driver implementations. ">
<polygon fill="none" stroke="#000000" points="462,-56.5 462,-75.5 566,-75.5 566,-56.5 462,-56.5"/>
<text text-anchor="middle" x="514" y="-63.5" font-family="Helvetica,sans-Serif" font-size="10.00" fill="#000000">periph/dev_enums.h</text>
</a>
</g>
</g>
<!-- Node13&#45;&gt;Node14 -->
<g id="edge23" class="edge">
<title>Node13&#45;&gt;Node14</title>
<path fill="none" stroke="#191970" d="M393.0983,-112.3733C416.9555,-103.2226 453.0335,-89.3844 479.571,-79.2057"/>
<polygon fill="#191970" stroke="#191970" points="481.1459,-82.3503 489.2292,-75.5011 478.639,-75.8145 481.1459,-82.3503"/>
</g>
<!-- Node14&#45;&gt;Node12 -->
<g id="edge24" class="edge">
<title>Node14&#45;&gt;Node12</title>
<path fill="none" stroke="#191970" d="M514,-56.2455C514,-48.9382 514,-38.6944 514,-29.7046"/>
<polygon fill="#191970" stroke="#191970" points="517.5001,-29.6426 514,-19.6427 510.5001,-29.6427 517.5001,-29.6426"/>
</g>
</g>
</svg>
