<?xml version="1.0" encoding="UTF-8" standalone="no"?>
<!DOCTYPE svg PUBLIC "-//W3C//DTD SVG 1.1//EN"
 "http://www.w3.org/Graphics/SVG/1.1/DTD/svg11.dtd">
<!-- Generated by graphviz version 2.43.0 (0)
 -->
<!-- Title: drivers/dfplayer/include/dfplayer_implementation.h Pages: 1 -->
<svg width="1256pt" height="599pt"
 viewBox="0.00 0.00 1256.15 599.00" xmlns="http://www.w3.org/2000/svg" xmlns:xlink="http://www.w3.org/1999/xlink">
<g id="graph0" class="graph" transform="scale(1 1) rotate(0) translate(4 595)">
<title>drivers/dfplayer/include/dfplayer_implementation.h</title>
<!-- Node1 -->
<g id="node1" class="node">
<title>Node1</title>
<g id="a_node1"><a xlink:title="Header&#45;only functions of the DFPlayer Mini Device driver.">
<polygon fill="#bfbfbf" stroke="black" points="402,-560.5 402,-590.5 554,-590.5 554,-560.5 402,-560.5"/>
<text text-anchor="start" x="410" y="-578.5" font-family="Helvetica,sans-Serif" font-size="10.00">drivers/dfplayer/include</text>
<text text-anchor="middle" x="478" y="-567.5" font-family="Helvetica,sans-Serif" font-size="10.00">/dfplayer_implementation.h</text>
</a>
</g>
</g>
<!-- Node2 -->
<g id="node2" class="node">
<title>Node2</title>
<g id="a_node2"><a xlink:href="errno_8h.html" target="_top" xlink:title=" ">
<polygon fill="none" stroke="black" points="243.5,-504.5 243.5,-523.5 294.5,-523.5 294.5,-504.5 243.5,-504.5"/>
<text text-anchor="middle" x="269" y="-511.5" font-family="Helvetica,sans-Serif" font-size="10.00">errno.h</text>
</a>
</g>
</g>
<!-- Node1&#45;&gt;Node2 -->
<g id="edge1" class="edge">
<title>Node1&#45;&gt;Node2</title>
<path fill="none" stroke="midnightblue" d="M428.73,-560.47C390.67,-549.64 338.9,-534.9 304.74,-525.17"/>
<polygon fill="midnightblue" stroke="midnightblue" points="305.32,-521.7 294.74,-522.33 303.4,-528.43 305.32,-521.7"/>
</g>
<!-- Node3 -->
<g id="node3" class="node">
<title>Node3</title>
<g id="a_node3"><a xlink:href="dfplayer_8h.html" target="_top" xlink:title="DFPlayer Mini Device Driver.">
<polygon fill="none" stroke="black" points="497,-504.5 497,-523.5 563,-523.5 563,-504.5 497,-504.5"/>
<text text-anchor="middle" x="530" y="-511.5" font-family="Helvetica,sans-Serif" font-size="10.00">dfplayer.h</text>
</a>
</g>
</g>
<!-- Node1&#45;&gt;Node3 -->
<g id="edge2" class="edge">
<title>Node1&#45;&gt;Node3</title>
<path fill="none" stroke="midnightblue" d="M484.48,-560.4C491.13,-551.49 501.14,-539.95 510.21,-530.74"/>
<polygon fill="midnightblue" stroke="midnightblue" points="512.77,-533.13 517.5,-523.66 507.89,-528.11 512.77,-533.13"/>
</g>
<!-- Node8 -->
<g id="node8" class="node">
<title>Node8</title>
<g id="a_node8"><a xlink:href="dfplayer__types_8h.html" target="_top" xlink:title="Types used in the DFPlayer Mini Device Driver.">
<polygon fill="none" stroke="black" points="642,-392.5 642,-411.5 740,-411.5 740,-392.5 642,-392.5"/>
<text text-anchor="middle" x="691" y="-399.5" font-family="Helvetica,sans-Serif" font-size="10.00">dfplayer_types.h</text>
</a>
</g>
</g>
<!-- Node1&#45;&gt;Node8 -->
<g id="edge65" class="edge">
<title>Node1&#45;&gt;Node8</title>
<path fill="none" stroke="midnightblue" d="M515.25,-560.44C555.15,-543.74 618.09,-512.44 658,-468 670.26,-454.34 679.22,-435.3 684.69,-421.35"/>
<polygon fill="midnightblue" stroke="midnightblue" points="688.01,-422.45 688.18,-411.86 681.44,-420.03 688.01,-422.45"/>
</g>
<!-- Node31 -->
<g id="node31" class="node">
<title>Node31</title>
<g id="a_node31"><a xlink:href="dfplayer__constants_8h.html" target="_top" xlink:title="Constants used in the DFPlayer Mini Driver.">
<polygon fill="none" stroke="black" points="341.5,-392.5 341.5,-411.5 460.5,-411.5 460.5,-392.5 341.5,-392.5"/>
<text text-anchor="middle" x="401" y="-399.5" font-family="Helvetica,sans-Serif" font-size="10.00">dfplayer_constants.h</text>
</a>
</g>
</g>
<!-- Node1&#45;&gt;Node31 -->
<g id="edge58" class="edge">
<title>Node1&#45;&gt;Node31</title>
<path fill="none" stroke="midnightblue" d="M446.58,-560.41C413.6,-543.68 363.6,-512.35 342,-468 331.99,-447.44 353.97,-428.66 373.89,-416.63"/>
<polygon fill="midnightblue" stroke="midnightblue" points="375.8,-419.57 382.78,-411.59 372.35,-413.48 375.8,-419.57"/>
</g>
<!-- Node32 -->
<g id="node32" class="node">
<title>Node32</title>
<g id="a_node32"><a xlink:href="dfplayer__internal_8h.html" target="_top" xlink:title="Internal functions of DFPlayer Mini Device driver.">
<polygon fill="none" stroke="black" points="351.5,-448.5 351.5,-467.5 460.5,-467.5 460.5,-448.5 351.5,-448.5"/>
<text text-anchor="middle" x="406" y="-455.5" font-family="Helvetica,sans-Serif" font-size="10.00">dfplayer_internal.h</text>
</a>
</g>
</g>
<!-- Node1&#45;&gt;Node32 -->
<g id="edge62" class="edge">
<title>Node1&#45;&gt;Node32</title>
<path fill="none" stroke="midnightblue" d="M469.17,-560.34C455.96,-539.15 431.09,-499.24 416.81,-476.34"/>
<polygon fill="midnightblue" stroke="midnightblue" points="419.66,-474.3 411.4,-467.67 413.72,-478.01 419.66,-474.3"/>
</g>
<!-- Node3&#45;&gt;Node1 -->
<g id="edge57" class="edge">
<title>Node3&#45;&gt;Node1</title>
<path fill="none" stroke="midnightblue" d="M527.36,-523.66C522.31,-531.33 512.76,-542.86 503.3,-553"/>
<polygon fill="midnightblue" stroke="midnightblue" points="500.59,-550.77 496.16,-560.4 505.63,-555.63 500.59,-550.77"/>
</g>
<!-- Node4 -->
<g id="node4" class="node">
<title>Node4</title>
<g id="a_node4"><a xlink:title=" ">
<polygon fill="none" stroke="#bfbfbf" points="618,-168.5 618,-187.5 680,-187.5 680,-168.5 618,-168.5"/>
<text text-anchor="middle" x="649" y="-175.5" font-family="Helvetica,sans-Serif" font-size="10.00">stdbool.h</text>
</a>
</g>
</g>
<!-- Node3&#45;&gt;Node4 -->
<g id="edge3" class="edge">
<title>Node3&#45;&gt;Node4</title>
<path fill="none" stroke="midnightblue" d="M563.09,-512.41C628.49,-509.3 768,-492.22 768,-403 768,-403 768,-403 768,-345 768,-278.6 704.32,-220.52 670.13,-194.11"/>
<polygon fill="midnightblue" stroke="midnightblue" points="671.83,-191.02 661.74,-187.81 667.63,-196.61 671.83,-191.02"/>
</g>
<!-- Node5 -->
<g id="node5" class="node">
<title>Node5</title>
<g id="a_node5"><a xlink:title=" ">
<polygon fill="none" stroke="#bfbfbf" points="125.5,-0.5 125.5,-19.5 178.5,-19.5 178.5,-0.5 125.5,-0.5"/>
<text text-anchor="middle" x="152" y="-7.5" font-family="Helvetica,sans-Serif" font-size="10.00">stdint.h</text>
</a>
</g>
</g>
<!-- Node3&#45;&gt;Node5 -->
<g id="edge4" class="edge">
<title>Node3&#45;&gt;Node5</title>
<path fill="none" stroke="midnightblue" d="M524.4,-504.31C514.83,-490.19 493.92,-462.41 469,-448 391.92,-403.42 151.48,-407.73 79,-356 51.2,-336.16 38,-325.16 38,-291 38,-291 38,-291 38,-121 38,-74.11 88.55,-40.89 122.33,-23.93"/>
<polygon fill="midnightblue" stroke="midnightblue" points="123.87,-27.07 131.36,-19.58 120.83,-20.77 123.87,-27.07"/>
</g>
<!-- Node6 -->
<g id="node6" class="node">
<title>Node6</title>
<g id="a_node6"><a xlink:href="dfplayer__params_8h.html" target="_top" xlink:title="Default configuration for the DFPlayer Mini driver.">
<polygon fill="none" stroke="black" points="517,-448.5 517,-467.5 625,-467.5 625,-448.5 517,-448.5"/>
<text text-anchor="middle" x="571" y="-455.5" font-family="Helvetica,sans-Serif" font-size="10.00">dfplayer_params.h</text>
</a>
</g>
</g>
<!-- Node3&#45;&gt;Node6 -->
<g id="edge5" class="edge">
<title>Node3&#45;&gt;Node6</title>
<path fill="none" stroke="midnightblue" d="M536.77,-504.08C542.56,-496.46 551.06,-485.26 558.14,-475.94"/>
<polygon fill="midnightblue" stroke="midnightblue" points="561.1,-477.83 564.36,-467.75 555.52,-473.6 561.1,-477.83"/>
</g>
<!-- Node3&#45;&gt;Node8 -->
<g id="edge56" class="edge">
<title>Node3&#45;&gt;Node8</title>
<path fill="none" stroke="midnightblue" d="M558.7,-504.43C580.64,-497 610.94,-484.8 634,-468 652.31,-454.66 668.84,-434.45 679.33,-420.12"/>
<polygon fill="midnightblue" stroke="midnightblue" points="682.39,-421.86 685.31,-411.67 676.67,-417.81 682.39,-421.86"/>
</g>
<!-- Node7 -->
<g id="node7" class="node">
<title>Node7</title>
<g id="a_node7"><a xlink:title=" ">
<polygon fill="none" stroke="#bfbfbf" points="532.5,-392.5 532.5,-411.5 585.5,-411.5 585.5,-392.5 532.5,-392.5"/>
<text text-anchor="middle" x="559" y="-399.5" font-family="Helvetica,sans-Serif" font-size="10.00">board.h</text>
</a>
</g>
</g>
<!-- Node6&#45;&gt;Node7 -->
<g id="edge6" class="edge">
<title>Node6&#45;&gt;Node7</title>
<path fill="none" stroke="midnightblue" d="M569.02,-448.08C567.43,-440.93 565.14,-430.64 563.15,-421.69"/>
<polygon fill="midnightblue" stroke="midnightblue" points="566.53,-420.75 560.94,-411.75 559.7,-422.27 566.53,-420.75"/>
</g>
<!-- Node6&#45;&gt;Node8 -->
<g id="edge7" class="edge">
<title>Node6&#45;&gt;Node8</title>
<path fill="none" stroke="midnightblue" d="M590.01,-448.44C609.59,-439.64 640.31,-425.81 662.73,-415.72"/>
<polygon fill="midnightblue" stroke="midnightblue" points="664.39,-418.81 672.07,-411.52 661.52,-412.43 664.39,-418.81"/>
</g>
<!-- Node17 -->
<g id="node17" class="node">
<title>Node17</title>
<g id="a_node17"><a xlink:href="kernel__defines_8h.html" target="_top" xlink:title="Common macros and compiler attributes/pragmas configuration.">
<polygon fill="none" stroke="black" points="458.5,-56.5 458.5,-75.5 555.5,-75.5 555.5,-56.5 458.5,-56.5"/>
<text text-anchor="middle" x="507" y="-63.5" font-family="Helvetica,sans-Serif" font-size="10.00">kernel_defines.h</text>
</a>
</g>
</g>
<!-- Node6&#45;&gt;Node17 -->
<g id="edge55" class="edge">
<title>Node6&#45;&gt;Node17</title>
<path fill="none" stroke="midnightblue" d="M580.42,-448.06C617.67,-411.6 749.76,-271.21 689,-168 660,-118.74 597.35,-91.8 553.71,-78.39"/>
<polygon fill="midnightblue" stroke="midnightblue" points="554.46,-74.97 543.88,-75.51 552.49,-81.68 554.46,-74.97"/>
</g>
<!-- Node8&#45;&gt;Node4 -->
<g id="edge8" class="edge">
<title>Node8&#45;&gt;Node4</title>
<path fill="none" stroke="midnightblue" d="M689.35,-392.3C683.17,-359.63 661.27,-243.87 652.59,-197.96"/>
<polygon fill="midnightblue" stroke="midnightblue" points="655.98,-197.06 650.68,-187.88 649.1,-198.36 655.98,-197.06"/>
</g>
<!-- Node8&#45;&gt;Node5 -->
<g id="edge9" class="edge">
<title>Node8&#45;&gt;Node5</title>
<path fill="none" stroke="midnightblue" d="M641.81,-394.21C502.27,-374.64 114,-317.77 114,-291 114,-291 114,-291 114,-121 114,-86.81 130.6,-49.76 141.86,-28.57"/>
<polygon fill="midnightblue" stroke="midnightblue" points="144.95,-30.22 146.72,-19.77 138.82,-26.83 144.95,-30.22"/>
</g>
<!-- Node9 -->
<g id="node9" class="node">
<title>Node9</title>
<g id="a_node9"><a xlink:href="kernel__types_8h.html" target="_top" xlink:title="Types used by the kernel.">
<polygon fill="none" stroke="black" points="782,-168.5 782,-187.5 870,-187.5 870,-168.5 782,-168.5"/>
<text text-anchor="middle" x="826" y="-175.5" font-family="Helvetica,sans-Serif" font-size="10.00">kernel_types.h</text>
</a>
</g>
</g>
<!-- Node8&#45;&gt;Node9 -->
<g id="edge10" class="edge">
<title>Node8&#45;&gt;Node9</title>
<path fill="none" stroke="midnightblue" d="M704.18,-392.31C715.85,-384.07 732.75,-370.79 744,-356 783.06,-304.66 809.39,-231.74 820.31,-197.76"/>
<polygon fill="midnightblue" stroke="midnightblue" points="823.77,-198.41 823.42,-187.82 817.09,-196.32 823.77,-198.41"/>
</g>
<!-- Node14 -->
<g id="node14" class="node">
<title>Node14</title>
<g id="a_node14"><a xlink:href="mutex_8h.html" target="_top" xlink:title="Mutex for thread synchronization.">
<polygon fill="none" stroke="black" points="398.5,-336.5 398.5,-355.5 455.5,-355.5 455.5,-336.5 398.5,-336.5"/>
<text text-anchor="middle" x="427" y="-343.5" font-family="Helvetica,sans-Serif" font-size="10.00">mutex.h</text>
</a>
</g>
</g>
<!-- Node8&#45;&gt;Node14 -->
<g id="edge16" class="edge">
<title>Node8&#45;&gt;Node14</title>
<path fill="none" stroke="midnightblue" d="M649.17,-392.44C598.67,-382.12 514.46,-364.89 465.5,-354.88"/>
<polygon fill="midnightblue" stroke="midnightblue" points="466.12,-351.43 455.62,-352.85 464.71,-358.29 466.12,-351.43"/>
</g>
<!-- Node27 -->
<g id="node27" class="node">
<title>Node27</title>
<g id="a_node27"><a xlink:href="gpio_8h.html" target="_top" xlink:title="Low&#45;level GPIO peripheral driver interface definitions.">
<polygon fill="none" stroke="black" points="925,-168.5 925,-187.5 1005,-187.5 1005,-168.5 925,-168.5"/>
<text text-anchor="middle" x="965" y="-175.5" font-family="Helvetica,sans-Serif" font-size="10.00">periph/gpio.h</text>
</a>
</g>
</g>
<!-- Node8&#45;&gt;Node27 -->
<g id="edge45" class="edge">
<title>Node8&#45;&gt;Node27</title>
<path fill="none" stroke="midnightblue" d="M708.97,-392.42C740.88,-376.71 808.7,-341.13 858,-300 896.93,-267.52 934.24,-220.57 952.8,-195.78"/>
<polygon fill="midnightblue" stroke="midnightblue" points="955.63,-197.84 958.76,-187.72 950,-193.68 955.63,-197.84"/>
</g>
<!-- Node30 -->
<g id="node30" class="node">
<title>Node30</title>
<g id="a_node30"><a xlink:href="uart_8h.html" target="_top" xlink:title="Low&#45;level UART peripheral driver interface definition.">
<polygon fill="none" stroke="black" points="1066.5,-168.5 1066.5,-187.5 1145.5,-187.5 1145.5,-168.5 1066.5,-168.5"/>
<text text-anchor="middle" x="1106" y="-175.5" font-family="Helvetica,sans-Serif" font-size="10.00">periph/uart.h</text>
</a>
</g>
</g>
<!-- Node8&#45;&gt;Node30 -->
<g id="edge49" class="edge">
<title>Node8&#45;&gt;Node30</title>
<path fill="none" stroke="midnightblue" d="M716.17,-392.47C739.8,-384.15 775.93,-370.64 806,-356 914.8,-303.04 1036.81,-224.73 1084.9,-193.06"/>
<polygon fill="midnightblue" stroke="midnightblue" points="1086.84,-195.97 1093.25,-187.53 1082.98,-190.13 1086.84,-195.97"/>
</g>
<!-- Node9&#45;&gt;Node5 -->
<g id="edge11" class="edge">
<title>Node9&#45;&gt;Node5</title>
<path fill="none" stroke="midnightblue" d="M820.07,-168.44C809.98,-154.51 788.1,-126.99 763,-112 684.48,-65.11 654.77,-73.46 565,-56 427.68,-29.29 261.36,-17.22 188.81,-12.94"/>
<polygon fill="midnightblue" stroke="midnightblue" points="188.99,-9.45 178.81,-12.37 188.59,-16.44 188.99,-9.45"/>
</g>
<!-- Node10 -->
<g id="node10" class="node">
<title>Node10</title>
<g id="a_node10"><a xlink:href="inttypes_8h.html" target="_top" xlink:title="Adds include for missing inttype definitions.">
<polygon fill="none" stroke="black" points="688.5,-112.5 688.5,-131.5 753.5,-131.5 753.5,-112.5 688.5,-112.5"/>
<text text-anchor="middle" x="721" y="-119.5" font-family="Helvetica,sans-Serif" font-size="10.00">inttypes.h</text>
</a>
</g>
</g>
<!-- Node9&#45;&gt;Node10 -->
<g id="edge12" class="edge">
<title>Node9&#45;&gt;Node10</title>
<path fill="none" stroke="midnightblue" d="M809.13,-168.32C792.29,-159.66 766.19,-146.24 746.76,-136.25"/>
<polygon fill="midnightblue" stroke="midnightblue" points="748.32,-133.12 737.83,-131.65 745.12,-139.34 748.32,-133.12"/>
</g>
<!-- Node11 -->
<g id="node11" class="node">
<title>Node11</title>
<g id="a_node11"><a xlink:title=" ">
<polygon fill="none" stroke="#bfbfbf" points="938.5,-112.5 938.5,-131.5 991.5,-131.5 991.5,-112.5 938.5,-112.5"/>
<text text-anchor="middle" x="965" y="-119.5" font-family="Helvetica,sans-Serif" font-size="10.00">limits.h</text>
</a>
</g>
</g>
<!-- Node9&#45;&gt;Node11 -->
<g id="edge13" class="edge">
<title>Node9&#45;&gt;Node11</title>
<path fill="none" stroke="midnightblue" d="M848.02,-168.44C871.1,-159.48 907.56,-145.31 933.64,-135.18"/>
<polygon fill="midnightblue" stroke="midnightblue" points="935.02,-138.4 943.08,-131.52 932.49,-131.88 935.02,-138.4"/>
</g>
<!-- Node12 -->
<g id="node12" class="node">
<title>Node12</title>
<g id="a_node12"><a xlink:title=" ">
<polygon fill="none" stroke="#bfbfbf" points="575,-0.5 575,-19.5 631,-19.5 631,-0.5 575,-0.5"/>
<text text-anchor="middle" x="603" y="-7.5" font-family="Helvetica,sans-Serif" font-size="10.00">stddef.h</text>
</a>
</g>
</g>
<!-- Node9&#45;&gt;Node12 -->
<g id="edge14" class="edge">
<title>Node9&#45;&gt;Node12</title>
<path fill="none" stroke="midnightblue" d="M846.39,-168.49C870.2,-157.23 904.7,-135.97 891,-112 841.22,-24.88 707.5,-11.38 641.26,-10.26"/>
<polygon fill="midnightblue" stroke="midnightblue" points="641.26,-6.76 631.23,-10.18 641.2,-13.76 641.26,-6.76"/>
</g>
<!-- Node13 -->
<g id="node13" class="node">
<title>Node13</title>
<g id="a_node13"><a xlink:title=" ">
<polygon fill="none" stroke="#bfbfbf" points="810,-112.5 810,-131.5 882,-131.5 882,-112.5 810,-112.5"/>
<text text-anchor="middle" x="846" y="-119.5" font-family="Helvetica,sans-Serif" font-size="10.00">sys/types.h</text>
</a>
</g>
</g>
<!-- Node9&#45;&gt;Node13 -->
<g id="edge15" class="edge">
<title>Node9&#45;&gt;Node13</title>
<path fill="none" stroke="midnightblue" d="M829.3,-168.08C831.98,-160.85 835.85,-150.41 839.19,-141.4"/>
<polygon fill="midnightblue" stroke="midnightblue" points="842.57,-142.34 842.76,-131.75 836,-139.91 842.57,-142.34"/>
</g>
<!-- Node14&#45;&gt;Node5 -->
<g id="edge18" class="edge">
<title>Node14&#45;&gt;Node5</title>
<path fill="none" stroke="midnightblue" d="M398.19,-345.4C353.2,-344.74 264.98,-338.16 203,-300 171.73,-280.75 152,-271.72 152,-235 152,-235 152,-235 152,-121 152,-88.95 152,-51.64 152,-29.75"/>
<polygon fill="midnightblue" stroke="midnightblue" points="155.5,-29.56 152,-19.56 148.5,-29.56 155.5,-29.56"/>
</g>
<!-- Node14&#45;&gt;Node12 -->
<g id="edge17" class="edge">
<title>Node14&#45;&gt;Node12</title>
<path fill="none" stroke="midnightblue" d="M455.86,-338.16C477.52,-331.67 506.5,-319.87 525,-300 598.42,-221.12 604.07,-80.43 603.57,-29.8"/>
<polygon fill="midnightblue" stroke="midnightblue" points="607.07,-29.61 603.37,-19.68 600.07,-29.75 607.07,-29.61"/>
</g>
<!-- Node15 -->
<g id="node15" class="node">
<title>Node15</title>
<g id="a_node15"><a xlink:href="irq_8h.html" target="_top" xlink:title="IRQ driver interface.">
<polygon fill="none" stroke="black" points="459,-280.5 459,-299.5 497,-299.5 497,-280.5 459,-280.5"/>
<text text-anchor="middle" x="478" y="-287.5" font-family="Helvetica,sans-Serif" font-size="10.00">irq.h</text>
</a>
</g>
</g>
<!-- Node14&#45;&gt;Node15 -->
<g id="edge19" class="edge">
<title>Node14&#45;&gt;Node15</title>
<path fill="none" stroke="midnightblue" d="M435.42,-336.08C442.85,-328.22 453.85,-316.57 462.81,-307.08"/>
<polygon fill="midnightblue" stroke="midnightblue" points="465.41,-309.42 469.74,-299.75 460.32,-304.62 465.41,-309.42"/>
</g>
<!-- Node14&#45;&gt;Node17 -->
<g id="edge22" class="edge">
<title>Node14&#45;&gt;Node17</title>
<path fill="none" stroke="midnightblue" d="M452.64,-336.43C470.14,-329.31 492.5,-317.49 506,-300 555.8,-235.49 527.84,-128.21 513.66,-85.43"/>
<polygon fill="midnightblue" stroke="midnightblue" points="516.91,-84.11 510.34,-75.8 510.29,-86.39 516.91,-84.11"/>
</g>
<!-- Node18 -->
<g id="node18" class="node">
<title>Node18</title>
<g id="a_node18"><a xlink:href="list_8h.html" target="_top" xlink:title="Intrusive linked list.">
<polygon fill="none" stroke="black" points="182.5,-56.5 182.5,-75.5 223.5,-75.5 223.5,-56.5 182.5,-56.5"/>
<text text-anchor="middle" x="203" y="-63.5" font-family="Helvetica,sans-Serif" font-size="10.00">list.h</text>
</a>
</g>
</g>
<!-- Node14&#45;&gt;Node18 -->
<g id="edge25" class="edge">
<title>Node14&#45;&gt;Node18</title>
<path fill="none" stroke="midnightblue" d="M398.41,-344.56C335.38,-341.91 190,-325.95 190,-235 190,-235 190,-235 190,-177 190,-144.58 195.64,-107.15 199.49,-85.37"/>
<polygon fill="midnightblue" stroke="midnightblue" points="202.93,-85.99 201.3,-75.52 196.05,-84.72 202.93,-85.99"/>
</g>
<!-- Node19 -->
<g id="node19" class="node">
<title>Node19</title>
<g id="a_node19"><a xlink:href="core_2include_2thread_8h.html" target="_top" xlink:title="Threading API.">
<polygon fill="none" stroke="black" points="347.5,-280.5 347.5,-299.5 404.5,-299.5 404.5,-280.5 347.5,-280.5"/>
<text text-anchor="middle" x="376" y="-287.5" font-family="Helvetica,sans-Serif" font-size="10.00">thread.h</text>
</a>
</g>
</g>
<!-- Node14&#45;&gt;Node19 -->
<g id="edge26" class="edge">
<title>Node14&#45;&gt;Node19</title>
<path fill="none" stroke="midnightblue" d="M418.58,-336.08C411.15,-328.22 400.15,-316.57 391.19,-307.08"/>
<polygon fill="midnightblue" stroke="midnightblue" points="393.68,-304.62 384.26,-299.75 388.59,-309.42 393.68,-304.62"/>
</g>
<!-- Node15&#45;&gt;Node4 -->
<g id="edge20" class="edge">
<title>Node15&#45;&gt;Node4</title>
<path fill="none" stroke="midnightblue" d="M491.42,-280.37C520.76,-261.49 590.88,-216.38 626.87,-193.24"/>
<polygon fill="midnightblue" stroke="midnightblue" points="629.13,-195.95 635.64,-187.59 625.34,-190.06 629.13,-195.95"/>
</g>
<!-- Node16 -->
<g id="node16" class="node">
<title>Node16</title>
<g id="a_node16"><a xlink:title=" ">
<polygon fill="none" stroke="#bfbfbf" points="444,-224.5 444,-243.5 512,-243.5 512,-224.5 444,-224.5"/>
<text text-anchor="middle" x="478" y="-231.5" font-family="Helvetica,sans-Serif" font-size="10.00">cpu_conf.h</text>
</a>
</g>
</g>
<!-- Node15&#45;&gt;Node16 -->
<g id="edge21" class="edge">
<title>Node15&#45;&gt;Node16</title>
<path fill="none" stroke="midnightblue" d="M478,-280.08C478,-273.01 478,-262.86 478,-253.99"/>
<polygon fill="midnightblue" stroke="midnightblue" points="481.5,-253.75 478,-243.75 474.5,-253.75 481.5,-253.75"/>
</g>
<!-- Node17&#45;&gt;Node5 -->
<g id="edge24" class="edge">
<title>Node17&#45;&gt;Node5</title>
<path fill="none" stroke="midnightblue" d="M458.38,-57.6C386.43,-46.66 253.18,-26.39 188.76,-16.59"/>
<polygon fill="midnightblue" stroke="midnightblue" points="189.08,-13.1 178.66,-15.06 188.02,-20.02 189.08,-13.1"/>
</g>
<!-- Node17&#45;&gt;Node12 -->
<g id="edge23" class="edge">
<title>Node17&#45;&gt;Node12</title>
<path fill="none" stroke="midnightblue" d="M522.42,-56.32C537.54,-47.82 560.82,-34.73 578.47,-24.8"/>
<polygon fill="midnightblue" stroke="midnightblue" points="580.61,-27.61 587.61,-19.65 577.18,-21.51 580.61,-27.61"/>
</g>
<!-- Node19&#45;&gt;Node16 -->
<g id="edge43" class="edge">
<title>Node19&#45;&gt;Node16</title>
<path fill="none" stroke="midnightblue" d="M392.39,-280.32C408.67,-271.7 433.87,-258.36 452.72,-248.39"/>
<polygon fill="midnightblue" stroke="midnightblue" points="454.45,-251.43 461.65,-243.65 451.18,-245.24 454.45,-251.43"/>
</g>
<!-- Node20 -->
<g id="node20" class="node">
<title>Node20</title>
<g id="a_node20"><a xlink:href="clist_8h.html" target="_top" xlink:title="Circular linked list.">
<polygon fill="none" stroke="black" points="218,-112.5 218,-131.5 264,-131.5 264,-112.5 218,-112.5"/>
<text text-anchor="middle" x="241" y="-119.5" font-family="Helvetica,sans-Serif" font-size="10.00">clist.h</text>
</a>
</g>
</g>
<!-- Node19&#45;&gt;Node20 -->
<g id="edge27" class="edge">
<title>Node19&#45;&gt;Node20</title>
<path fill="none" stroke="midnightblue" d="M347.45,-283.67C324.14,-277.85 292.05,-266.22 273,-244 247.87,-214.68 242.21,-167.76 241.1,-141.81"/>
<polygon fill="midnightblue" stroke="midnightblue" points="244.59,-141.7 240.85,-131.78 237.6,-141.87 244.59,-141.7"/>
</g>
<!-- Node21 -->
<g id="node21" class="node">
<title>Node21</title>
<g id="a_node21"><a xlink:href="cib_8h.html" target="_top" xlink:title="Circular integer buffer interface.">
<polygon fill="none" stroke="black" points="282,-224.5 282,-243.5 322,-243.5 322,-224.5 282,-224.5"/>
<text text-anchor="middle" x="302" y="-231.5" font-family="Helvetica,sans-Serif" font-size="10.00">cib.h</text>
</a>
</g>
</g>
<!-- Node19&#45;&gt;Node21 -->
<g id="edge30" class="edge">
<title>Node19&#45;&gt;Node21</title>
<path fill="none" stroke="midnightblue" d="M364.11,-280.32C352.85,-272.11 335.71,-259.6 322.29,-249.81"/>
<polygon fill="midnightblue" stroke="midnightblue" points="324.25,-246.9 314.11,-243.83 320.12,-252.56 324.25,-246.9"/>
</g>
<!-- Node24 -->
<g id="node24" class="node">
<title>Node24</title>
<g id="a_node24"><a xlink:href="msg_8h.html" target="_top" xlink:title="Messaging API for inter process communication.">
<polygon fill="none" stroke="black" points="378.5,-224.5 378.5,-243.5 425.5,-243.5 425.5,-224.5 378.5,-224.5"/>
<text text-anchor="middle" x="402" y="-231.5" font-family="Helvetica,sans-Serif" font-size="10.00">msg.h</text>
</a>
</g>
</g>
<!-- Node19&#45;&gt;Node24 -->
<g id="edge34" class="edge">
<title>Node19&#45;&gt;Node24</title>
<path fill="none" stroke="midnightblue" d="M380.29,-280.08C383.85,-272.69 389.02,-261.95 393.42,-252.81"/>
<polygon fill="midnightblue" stroke="midnightblue" points="396.6,-254.28 397.79,-243.75 390.29,-251.24 396.6,-254.28"/>
</g>
<!-- Node25 -->
<g id="node25" class="node">
<title>Node25</title>
<g id="a_node25"><a xlink:href="sched_8h.html" target="_top" xlink:title="Scheduler API definition.">
<polygon fill="none" stroke="black" points="408,-168.5 408,-187.5 462,-187.5 462,-168.5 408,-168.5"/>
<text text-anchor="middle" x="435" y="-175.5" font-family="Helvetica,sans-Serif" font-size="10.00">sched.h</text>
</a>
</g>
</g>
<!-- Node19&#45;&gt;Node25 -->
<g id="edge44" class="edge">
<title>Node19&#45;&gt;Node25</title>
<path fill="none" stroke="midnightblue" d="M372.16,-280.42C366.96,-267.41 359.35,-242.26 369,-224 376.42,-209.95 390.42,-199.47 403.62,-192.17"/>
<polygon fill="midnightblue" stroke="midnightblue" points="405.22,-195.28 412.54,-187.62 402.04,-189.04 405.22,-195.28"/>
</g>
<!-- Node20&#45;&gt;Node12 -->
<g id="edge28" class="edge">
<title>Node20&#45;&gt;Node12</title>
<path fill="none" stroke="midnightblue" d="M264.16,-113.67C302.67,-101.51 382.35,-76.47 450,-56 489.05,-44.19 533.83,-31.06 564.81,-22.05"/>
<polygon fill="midnightblue" stroke="midnightblue" points="566.14,-25.31 574.76,-19.16 564.18,-18.59 566.14,-25.31"/>
</g>
<!-- Node20&#45;&gt;Node18 -->
<g id="edge29" class="edge">
<title>Node20&#45;&gt;Node18</title>
<path fill="none" stroke="midnightblue" d="M234.73,-112.08C229.36,-104.46 221.48,-93.26 214.92,-83.94"/>
<polygon fill="midnightblue" stroke="midnightblue" points="217.78,-81.91 209.16,-75.75 212.05,-85.94 217.78,-81.91"/>
</g>
<!-- Node22 -->
<g id="node22" class="node">
<title>Node22</title>
<g id="a_node22"><a xlink:href="assert_8h.html" target="_top" xlink:title="POSIX.1&#45;2008 compliant version of the assert macro.">
<polygon fill="none" stroke="black" points="320,-168.5 320,-187.5 376,-187.5 376,-168.5 320,-168.5"/>
<text text-anchor="middle" x="348" y="-175.5" font-family="Helvetica,sans-Serif" font-size="10.00">assert.h</text>
</a>
</g>
</g>
<!-- Node21&#45;&gt;Node22 -->
<g id="edge31" class="edge">
<title>Node21&#45;&gt;Node22</title>
<path fill="none" stroke="midnightblue" d="M309.6,-224.08C316.23,-216.3 326.02,-204.8 334.06,-195.37"/>
<polygon fill="midnightblue" stroke="midnightblue" points="336.73,-197.63 340.55,-187.75 331.4,-193.09 336.73,-197.63"/>
</g>
<!-- Node23 -->
<g id="node23" class="node">
<title>Node23</title>
<g id="a_node23"><a xlink:href="panic_8h.html" target="_top" xlink:title="Crash handling header.">
<polygon fill="none" stroke="black" points="320,-112.5 320,-131.5 372,-131.5 372,-112.5 320,-112.5"/>
<text text-anchor="middle" x="346" y="-119.5" font-family="Helvetica,sans-Serif" font-size="10.00">panic.h</text>
</a>
</g>
</g>
<!-- Node22&#45;&gt;Node23 -->
<g id="edge32" class="edge">
<title>Node22&#45;&gt;Node23</title>
<path fill="none" stroke="midnightblue" d="M347.67,-168.08C347.41,-161.01 347.03,-150.86 346.7,-141.99"/>
<polygon fill="midnightblue" stroke="midnightblue" points="350.19,-141.61 346.32,-131.75 343.2,-141.87 350.19,-141.61"/>
</g>
<!-- Node23&#45;&gt;Node17 -->
<g id="edge33" class="edge">
<title>Node23&#45;&gt;Node17</title>
<path fill="none" stroke="midnightblue" d="M371.51,-112.44C398.6,-103.36 441.59,-88.94 471.87,-78.78"/>
<polygon fill="midnightblue" stroke="midnightblue" points="473.24,-82.01 481.61,-75.52 471.01,-75.38 473.24,-82.01"/>
</g>
<!-- Node24&#45;&gt;Node4 -->
<g id="edge36" class="edge">
<title>Node24&#45;&gt;Node4</title>
<path fill="none" stroke="midnightblue" d="M425.75,-226.34C428.85,-225.53 432,-224.72 435,-224 494.79,-209.57 564.61,-195.38 607.82,-186.91"/>
<polygon fill="midnightblue" stroke="midnightblue" points="608.54,-190.34 617.68,-184.98 607.2,-183.47 608.54,-190.34"/>
</g>
<!-- Node24&#45;&gt;Node5 -->
<g id="edge35" class="edge">
<title>Node24&#45;&gt;Node5</title>
<path fill="none" stroke="midnightblue" d="M378.15,-225.98C358.13,-219.06 329.86,-206.78 311,-188 284.24,-161.36 292.67,-144.24 273,-112 256.93,-85.67 255.08,-76.47 232,-56 217.19,-42.86 197.92,-31.88 182,-24.05"/>
<polygon fill="midnightblue" stroke="midnightblue" points="183.13,-20.72 172.59,-19.6 180.13,-27.04 183.13,-20.72"/>
</g>
<!-- Node24&#45;&gt;Node25 -->
<g id="edge37" class="edge">
<title>Node24&#45;&gt;Node25</title>
<path fill="none" stroke="midnightblue" d="M407.45,-224.08C412.01,-216.61 418.67,-205.72 424.29,-196.52"/>
<polygon fill="midnightblue" stroke="midnightblue" points="427.42,-198.11 429.65,-187.75 421.45,-194.46 427.42,-198.11"/>
</g>
<!-- Node25&#45;&gt;Node10 -->
<g id="edge39" class="edge">
<title>Node25&#45;&gt;Node10</title>
<path fill="none" stroke="midnightblue" d="M462.16,-171.87C512.12,-162.44 618.9,-142.28 678.52,-131.02"/>
<polygon fill="midnightblue" stroke="midnightblue" points="679.2,-134.45 688.37,-129.16 677.9,-127.58 679.2,-134.45"/>
</g>
<!-- Node25&#45;&gt;Node12 -->
<g id="edge38" class="edge">
<title>Node25&#45;&gt;Node12</title>
<path fill="none" stroke="midnightblue" d="M450.79,-168.41C465.81,-159.95 488.76,-146.25 507,-132 535.24,-109.94 542.86,-104.18 565,-76 576.58,-61.26 587.12,-42.63 594.14,-29.1"/>
<polygon fill="midnightblue" stroke="midnightblue" points="597.4,-30.4 598.78,-19.89 591.15,-27.24 597.4,-30.4"/>
</g>
<!-- Node25&#45;&gt;Node17 -->
<g id="edge40" class="edge">
<title>Node25&#45;&gt;Node17</title>
<path fill="none" stroke="midnightblue" d="M449.52,-168.47C461.79,-160.53 478.94,-147.59 489,-132 498.03,-118.01 502.58,-99.51 504.84,-85.82"/>
<polygon fill="midnightblue" stroke="midnightblue" points="508.35,-86.05 506.25,-75.67 501.41,-85.09 508.35,-86.05"/>
</g>
<!-- Node25&#45;&gt;Node20 -->
<g id="edge42" class="edge">
<title>Node25&#45;&gt;Node20</title>
<path fill="none" stroke="midnightblue" d="M407.62,-169.38C372.48,-159.6 311.6,-142.65 273.96,-132.18"/>
<polygon fill="midnightblue" stroke="midnightblue" points="274.58,-128.71 264,-129.4 272.7,-135.46 274.58,-128.71"/>
</g>
<!-- Node26 -->
<g id="node26" class="node">
<title>Node26</title>
<g id="a_node26"><a xlink:href="native__sched_8h.html" target="_top" xlink:title="Add definitions required on the native board.">
<polygon fill="none" stroke="black" points="390,-112.5 390,-131.5 480,-131.5 480,-112.5 390,-112.5"/>
<text text-anchor="middle" x="435" y="-119.5" font-family="Helvetica,sans-Serif" font-size="10.00">native_sched.h</text>
</a>
</g>
</g>
<!-- Node25&#45;&gt;Node26 -->
<g id="edge41" class="edge">
<title>Node25&#45;&gt;Node26</title>
<path fill="none" stroke="midnightblue" d="M435,-168.08C435,-161.01 435,-150.86 435,-141.99"/>
<polygon fill="midnightblue" stroke="midnightblue" points="438.5,-141.75 435,-131.75 431.5,-141.75 438.5,-141.75"/>
</g>
<!-- Node27&#45;&gt;Node11 -->
<g id="edge46" class="edge">
<title>Node27&#45;&gt;Node11</title>
<path fill="none" stroke="midnightblue" d="M965,-168.08C965,-161.01 965,-150.86 965,-141.99"/>
<polygon fill="midnightblue" stroke="midnightblue" points="968.5,-141.75 965,-131.75 961.5,-141.75 968.5,-141.75"/>
</g>
<!-- Node28 -->
<g id="node28" class="node">
<title>Node28</title>
<g id="a_node28"><a xlink:title=" ">
<polygon fill="none" stroke="#bfbfbf" points="1110.5,-112.5 1110.5,-131.5 1189.5,-131.5 1189.5,-112.5 1110.5,-112.5"/>
<text text-anchor="middle" x="1150" y="-119.5" font-family="Helvetica,sans-Serif" font-size="10.00">periph_cpu.h</text>
</a>
</g>
</g>
<!-- Node27&#45;&gt;Node28 -->
<g id="edge47" class="edge">
<title>Node27&#45;&gt;Node28</title>
<path fill="none" stroke="midnightblue" d="M994.31,-168.44C1025.84,-159.24 1076.13,-144.56 1110.99,-134.39"/>
<polygon fill="midnightblue" stroke="midnightblue" points="1112.2,-137.68 1120.82,-131.52 1110.24,-130.96 1112.2,-137.68"/>
</g>
<!-- Node29 -->
<g id="node29" class="node">
<title>Node29</title>
<g id="a_node29"><a xlink:title=" ">
<polygon fill="none" stroke="#bfbfbf" points="1010,-112.5 1010,-131.5 1092,-131.5 1092,-112.5 1010,-112.5"/>
<text text-anchor="middle" x="1051" y="-119.5" font-family="Helvetica,sans-Serif" font-size="10.00">periph_conf.h</text>
</a>
</g>
</g>
<!-- Node27&#45;&gt;Node29 -->
<g id="edge48" class="edge">
<title>Node27&#45;&gt;Node29</title>
<path fill="none" stroke="midnightblue" d="M978.82,-168.32C992.23,-159.9 1012.82,-146.97 1028.59,-137.07"/>
<polygon fill="midnightblue" stroke="midnightblue" points="1030.61,-139.94 1037.22,-131.65 1026.89,-134.01 1030.61,-139.94"/>
</g>
<!-- Node30&#45;&gt;Node5 -->
<g id="edge51" class="edge">
<title>Node30&#45;&gt;Node5</title>
<path fill="none" stroke="midnightblue" d="M1137.74,-168.42C1172.81,-157.46 1221.54,-136.9 1199,-112 1129.74,-35.51 366.73,-15.36 188.89,-11.68"/>
<polygon fill="midnightblue" stroke="midnightblue" points="188.81,-8.18 178.74,-11.48 188.67,-15.18 188.81,-8.18"/>
</g>
<!-- Node30&#45;&gt;Node11 -->
<g id="edge52" class="edge">
<title>Node30&#45;&gt;Node11</title>
<path fill="none" stroke="midnightblue" d="M1083.66,-168.44C1060.25,-159.48 1023.26,-145.31 996.81,-135.18"/>
<polygon fill="midnightblue" stroke="midnightblue" points="997.83,-131.82 987.24,-131.52 995.32,-138.36 997.83,-131.82"/>
</g>
<!-- Node30&#45;&gt;Node12 -->
<g id="edge50" class="edge">
<title>Node30&#45;&gt;Node12</title>
<path fill="none" stroke="midnightblue" d="M1145.58,-174.48C1174.75,-170.31 1212.6,-159.53 1232,-132 1251.46,-104.39 1255.02,-80.72 1232,-56 1191.73,-12.74 771.89,-10.44 641.45,-10.78"/>
<polygon fill="midnightblue" stroke="midnightblue" points="641.14,-7.28 631.15,-10.82 641.16,-14.28 641.14,-7.28"/>
</g>
<!-- Node30&#45;&gt;Node28 -->
<g id="edge53" class="edge">
<title>Node30&#45;&gt;Node28</title>
<path fill="none" stroke="midnightblue" d="M1113.27,-168.08C1119.54,-160.38 1128.79,-149.03 1136.43,-139.65"/>
<polygon fill="midnightblue" stroke="midnightblue" points="1139.27,-141.71 1142.87,-131.75 1133.84,-137.29 1139.27,-141.71"/>
</g>
<!-- Node30&#45;&gt;Node29 -->
<g id="edge54" class="edge">
<title>Node30&#45;&gt;Node29</title>
<path fill="none" stroke="midnightblue" d="M1096.92,-168.08C1088.83,-160.14 1076.8,-148.34 1067.09,-138.8"/>
<polygon fill="midnightblue" stroke="midnightblue" points="1069.5,-136.26 1059.91,-131.75 1064.6,-141.25 1069.5,-136.26"/>
</g>
<!-- Node31&#45;&gt;Node5 -->
<g id="edge59" class="edge">
<title>Node31&#45;&gt;Node5</title>
<path fill="none" stroke="midnightblue" d="M341.43,-399.14C264.45,-395.58 136.02,-385.29 100,-356 76.11,-336.57 76,-321.8 76,-291 76,-291 76,-291 76,-121 76,-90.2 82.47,-81.32 100,-56 108.18,-44.19 120.15,-33.54 130.55,-25.57"/>
<polygon fill="midnightblue" stroke="midnightblue" points="132.79,-28.27 138.8,-19.54 128.66,-22.62 132.79,-28.27"/>
</g>
<!-- Node31&#45;&gt;Node14 -->
<g id="edge61" class="edge">
<title>Node31&#45;&gt;Node14</title>
<path fill="none" stroke="midnightblue" d="M405.29,-392.08C408.85,-384.69 414.02,-373.95 418.42,-364.81"/>
<polygon fill="midnightblue" stroke="midnightblue" points="421.6,-366.28 422.79,-355.75 415.29,-363.24 421.6,-366.28"/>
</g>
<!-- Node31&#45;&gt;Node27 -->
<g id="edge60" class="edge">
<title>Node31&#45;&gt;Node27</title>
<path fill="none" stroke="midnightblue" d="M422.76,-392.43C509.65,-358.23 831.92,-231.38 933.87,-191.25"/>
<polygon fill="midnightblue" stroke="midnightblue" points="935.28,-194.46 943.3,-187.54 932.71,-187.95 935.28,-194.46"/>
</g>
<!-- Node32&#45;&gt;Node5 -->
<g id="edge63" class="edge">
<title>Node32&#45;&gt;Node5</title>
<path fill="none" stroke="midnightblue" d="M351.25,-453.63C240.42,-445.3 0,-418.93 0,-347 0,-347 0,-347 0,-121 0,-90.2 2.05,-77.6 24,-56 48.67,-31.72 87.19,-20.48 115.54,-15.32"/>
<polygon fill="midnightblue" stroke="midnightblue" points="116.18,-18.76 125.48,-13.68 115.04,-11.86 116.18,-18.76"/>
</g>
<!-- Node32&#45;&gt;Node8 -->
<g id="edge64" class="edge">
<title>Node32&#45;&gt;Node8</title>
<path fill="none" stroke="midnightblue" d="M451.16,-448.44C501.29,-438.94 582.22,-423.61 636.01,-413.42"/>
<polygon fill="midnightblue" stroke="midnightblue" points="636.88,-416.82 646.05,-411.52 635.58,-409.94 636.88,-416.82"/>
</g>
</g>
</svg>
