<?xml version="1.0" encoding="UTF-8" standalone="no"?>
<!DOCTYPE svg PUBLIC "-//W3C//DTD SVG 1.1//EN"
 "http://www.w3.org/Graphics/SVG/1.1/DTD/svg11.dtd">
<!-- Generated by graphviz version 2.43.0 (0)
 -->
<!-- Title: drivers/dfplayer/include/dfplayer_params.h Pages: 1 -->
<svg width="1232pt" height="487pt"
 viewBox="0.00 0.00 1231.50 487.00" xmlns="http://www.w3.org/2000/svg" xmlns:xlink="http://www.w3.org/1999/xlink">
<g id="graph0" class="graph" transform="scale(1 1) rotate(0) translate(4 483)">
<title>drivers/dfplayer/include/dfplayer_params.h</title>
<!-- Node1 -->
<g id="node1" class="node">
<title>Node1</title>
<g id="a_node1"><a xlink:title="Default configuration for the DFPlayer Mini driver.">
<polygon fill="#bfbfbf" stroke="black" points="15.5,-448.5 15.5,-478.5 147.5,-478.5 147.5,-448.5 15.5,-448.5"/>
<text text-anchor="start" x="23.5" y="-466.5" font-family="Helvetica,sans-Serif" font-size="10.00">drivers/dfplayer/include</text>
<text text-anchor="middle" x="81.5" y="-455.5" font-family="Helvetica,sans-Serif" font-size="10.00">/dfplayer_params.h</text>
</a>
</g>
</g>
<!-- Node2 -->
<g id="node2" class="node">
<title>Node2</title>
<g id="a_node2"><a xlink:title=" ">
<polygon fill="none" stroke="#bfbfbf" points="0,-392.5 0,-411.5 53,-411.5 53,-392.5 0,-392.5"/>
<text text-anchor="middle" x="26.5" y="-399.5" font-family="Helvetica,sans-Serif" font-size="10.00">board.h</text>
</a>
</g>
</g>
<!-- Node1&#45;&gt;Node2 -->
<g id="edge1" class="edge">
<title>Node1&#45;&gt;Node2</title>
<path fill="none" stroke="midnightblue" d="M68.47,-448.4C60.31,-439.58 49.78,-428.18 41.31,-419.02"/>
<polygon fill="midnightblue" stroke="midnightblue" points="43.86,-416.63 34.5,-411.66 38.72,-421.38 43.86,-416.63"/>
</g>
<!-- Node3 -->
<g id="node3" class="node">
<title>Node3</title>
<g id="a_node3"><a xlink:href="dfplayer__types_8h.html" target="_top" xlink:title="Types used in the DFPlayer Mini Device Driver.">
<polygon fill="none" stroke="black" points="738.5,-392.5 738.5,-411.5 836.5,-411.5 836.5,-392.5 738.5,-392.5"/>
<text text-anchor="middle" x="787.5" y="-399.5" font-family="Helvetica,sans-Serif" font-size="10.00">dfplayer_types.h</text>
</a>
</g>
</g>
<!-- Node1&#45;&gt;Node3 -->
<g id="edge2" class="edge">
<title>Node1&#45;&gt;Node3</title>
<path fill="none" stroke="midnightblue" d="M147.6,-456.93C284.44,-445.4 596.88,-419.06 727.92,-408.02"/>
<polygon fill="midnightblue" stroke="midnightblue" points="728.49,-411.49 738.16,-407.16 727.9,-404.51 728.49,-411.49"/>
</g>
<!-- Node14 -->
<g id="node14" class="node">
<title>Node14</title>
<g id="a_node14"><a xlink:href="kernel__defines_8h.html" target="_top" xlink:title="Common macros and compiler attributes/pragmas configuration.">
<polygon fill="none" stroke="black" points="361,-56.5 361,-75.5 458,-75.5 458,-56.5 361,-56.5"/>
<text text-anchor="middle" x="409.5" y="-63.5" font-family="Helvetica,sans-Serif" font-size="10.00">kernel_defines.h</text>
</a>
</g>
</g>
<!-- Node1&#45;&gt;Node14 -->
<g id="edge50" class="edge">
<title>Node1&#45;&gt;Node14</title>
<path fill="none" stroke="midnightblue" d="M81.5,-448.28C81.5,-426.48 81.5,-383.49 81.5,-347 81.5,-347 81.5,-347 81.5,-289 81.5,-199.72 104.6,-164.92 176.5,-112 203.63,-92.03 291.18,-79.21 350.89,-72.56"/>
<polygon fill="midnightblue" stroke="midnightblue" points="351.39,-76.02 360.96,-71.46 350.64,-69.06 351.39,-76.02"/>
</g>
<!-- Node4 -->
<g id="node4" class="node">
<title>Node4</title>
<g id="a_node4"><a xlink:title=" ">
<polygon fill="none" stroke="#bfbfbf" points="600.5,-168.5 600.5,-187.5 662.5,-187.5 662.5,-168.5 600.5,-168.5"/>
<text text-anchor="middle" x="631.5" y="-175.5" font-family="Helvetica,sans-Serif" font-size="10.00">stdbool.h</text>
</a>
</g>
</g>
<!-- Node3&#45;&gt;Node4 -->
<g id="edge3" class="edge">
<title>Node3&#45;&gt;Node4</title>
<path fill="none" stroke="midnightblue" d="M781.38,-392.3C758.14,-359.22 675,-240.91 643.62,-196.24"/>
<polygon fill="midnightblue" stroke="midnightblue" points="646.36,-194.05 637.74,-187.88 640.63,-198.08 646.36,-194.05"/>
</g>
<!-- Node5 -->
<g id="node5" class="node">
<title>Node5</title>
<g id="a_node5"><a xlink:title=" ">
<polygon fill="none" stroke="#bfbfbf" points="806,-0.5 806,-19.5 859,-19.5 859,-0.5 806,-0.5"/>
<text text-anchor="middle" x="832.5" y="-7.5" font-family="Helvetica,sans-Serif" font-size="10.00">stdint.h</text>
</a>
</g>
</g>
<!-- Node3&#45;&gt;Node5 -->
<g id="edge4" class="edge">
<title>Node3&#45;&gt;Node5</title>
<path fill="none" stroke="midnightblue" d="M836.67,-398.95C950.69,-392.86 1223.5,-370.04 1223.5,-291 1223.5,-291 1223.5,-291 1223.5,-121 1223.5,-47.85 966.69,-21.02 869.32,-13.47"/>
<polygon fill="midnightblue" stroke="midnightblue" points="869.3,-9.96 859.07,-12.71 868.78,-16.94 869.3,-9.96"/>
</g>
<!-- Node6 -->
<g id="node6" class="node">
<title>Node6</title>
<g id="a_node6"><a xlink:href="kernel__types_8h.html" target="_top" xlink:title="Types used by the kernel.">
<polygon fill="none" stroke="black" points="741.5,-168.5 741.5,-187.5 829.5,-187.5 829.5,-168.5 741.5,-168.5"/>
<text text-anchor="middle" x="785.5" y="-175.5" font-family="Helvetica,sans-Serif" font-size="10.00">kernel_types.h</text>
</a>
</g>
</g>
<!-- Node3&#45;&gt;Node6 -->
<g id="edge5" class="edge">
<title>Node3&#45;&gt;Node6</title>
<path fill="none" stroke="midnightblue" d="M787.42,-392.3C787.13,-359.63 786.08,-243.87 785.67,-197.96"/>
<polygon fill="midnightblue" stroke="midnightblue" points="789.17,-197.85 785.58,-187.88 782.17,-197.91 789.17,-197.85"/>
</g>
<!-- Node11 -->
<g id="node11" class="node">
<title>Node11</title>
<g id="a_node11"><a xlink:href="mutex_8h.html" target="_top" xlink:title="Mutex for thread synchronization.">
<polygon fill="none" stroke="black" points="403,-336.5 403,-355.5 460,-355.5 460,-336.5 403,-336.5"/>
<text text-anchor="middle" x="431.5" y="-343.5" font-family="Helvetica,sans-Serif" font-size="10.00">mutex.h</text>
</a>
</g>
</g>
<!-- Node3&#45;&gt;Node11 -->
<g id="edge11" class="edge">
<title>Node3&#45;&gt;Node11</title>
<path fill="none" stroke="midnightblue" d="M738.37,-393.55C667,-382.72 536.06,-362.86 470.73,-352.95"/>
<polygon fill="midnightblue" stroke="midnightblue" points="470.86,-349.43 460.45,-351.39 469.81,-356.35 470.86,-349.43"/>
</g>
<!-- Node24 -->
<g id="node24" class="node">
<title>Node24</title>
<g id="a_node24"><a xlink:href="gpio_8h.html" target="_top" xlink:title="Low&#45;level GPIO peripheral driver interface definitions.">
<polygon fill="none" stroke="black" points="1003.5,-168.5 1003.5,-187.5 1083.5,-187.5 1083.5,-168.5 1003.5,-168.5"/>
<text text-anchor="middle" x="1043.5" y="-175.5" font-family="Helvetica,sans-Serif" font-size="10.00">periph/gpio.h</text>
</a>
</g>
</g>
<!-- Node3&#45;&gt;Node24 -->
<g id="edge40" class="edge">
<title>Node3&#45;&gt;Node24</title>
<path fill="none" stroke="midnightblue" d="M797.69,-392.41C808.39,-383.39 825.68,-368.75 840.5,-356 909.44,-296.68 990.82,-225.32 1025.93,-194.46"/>
<polygon fill="midnightblue" stroke="midnightblue" points="1028.62,-196.75 1033.82,-187.52 1024,-191.49 1028.62,-196.75"/>
</g>
<!-- Node27 -->
<g id="node27" class="node">
<title>Node27</title>
<g id="a_node27"><a xlink:href="uart_8h.html" target="_top" xlink:title="Low&#45;level UART peripheral driver interface definition.">
<polygon fill="none" stroke="black" points="899,-168.5 899,-187.5 978,-187.5 978,-168.5 899,-168.5"/>
<text text-anchor="middle" x="938.5" y="-175.5" font-family="Helvetica,sans-Serif" font-size="10.00">periph/uart.h</text>
</a>
</g>
</g>
<!-- Node3&#45;&gt;Node27 -->
<g id="edge44" class="edge">
<title>Node3&#45;&gt;Node27</title>
<path fill="none" stroke="midnightblue" d="M793.42,-392.3C815.92,-359.22 896.39,-240.91 926.77,-196.24"/>
<polygon fill="midnightblue" stroke="midnightblue" points="929.73,-198.12 932.46,-187.88 923.94,-194.18 929.73,-198.12"/>
</g>
<!-- Node6&#45;&gt;Node5 -->
<g id="edge6" class="edge">
<title>Node6&#45;&gt;Node5</title>
<path fill="none" stroke="midnightblue" d="M794.73,-168.33C803.03,-159.91 814.77,-146.34 820.5,-132 834.15,-97.81 834.77,-54.06 833.78,-29.63"/>
<polygon fill="midnightblue" stroke="midnightblue" points="837.27,-29.39 833.23,-19.59 830.28,-29.77 837.27,-29.39"/>
</g>
<!-- Node7 -->
<g id="node7" class="node">
<title>Node7</title>
<g id="a_node7"><a xlink:href="inttypes_8h.html" target="_top" xlink:title="Adds include for missing inttype definitions.">
<polygon fill="none" stroke="black" points="580,-112.5 580,-131.5 645,-131.5 645,-112.5 580,-112.5"/>
<text text-anchor="middle" x="612.5" y="-119.5" font-family="Helvetica,sans-Serif" font-size="10.00">inttypes.h</text>
</a>
</g>
</g>
<!-- Node6&#45;&gt;Node7 -->
<g id="edge7" class="edge">
<title>Node6&#45;&gt;Node7</title>
<path fill="none" stroke="midnightblue" d="M758.09,-168.44C728.73,-159.28 681.98,-144.69 649.4,-134.52"/>
<polygon fill="midnightblue" stroke="midnightblue" points="650.37,-131.16 639.78,-131.52 648.29,-137.84 650.37,-131.16"/>
</g>
<!-- Node8 -->
<g id="node8" class="node">
<title>Node8</title>
<g id="a_node8"><a xlink:title=" ">
<polygon fill="none" stroke="#bfbfbf" points="906,-112.5 906,-131.5 959,-131.5 959,-112.5 906,-112.5"/>
<text text-anchor="middle" x="932.5" y="-119.5" font-family="Helvetica,sans-Serif" font-size="10.00">limits.h</text>
</a>
</g>
</g>
<!-- Node6&#45;&gt;Node8 -->
<g id="edge8" class="edge">
<title>Node6&#45;&gt;Node8</title>
<path fill="none" stroke="midnightblue" d="M808.79,-168.44C833.31,-159.44 872.1,-145.19 899.7,-135.05"/>
<polygon fill="midnightblue" stroke="midnightblue" points="901.14,-138.25 909.32,-131.52 898.72,-131.68 901.14,-138.25"/>
</g>
<!-- Node9 -->
<g id="node9" class="node">
<title>Node9</title>
<g id="a_node9"><a xlink:title=" ">
<polygon fill="none" stroke="#bfbfbf" points="325.5,-0.5 325.5,-19.5 381.5,-19.5 381.5,-0.5 325.5,-0.5"/>
<text text-anchor="middle" x="353.5" y="-7.5" font-family="Helvetica,sans-Serif" font-size="10.00">stddef.h</text>
</a>
</g>
</g>
<!-- Node6&#45;&gt;Node9 -->
<g id="edge9" class="edge">
<title>Node6&#45;&gt;Node9</title>
<path fill="none" stroke="midnightblue" d="M769.56,-168.29C745.06,-155.1 696.48,-129.73 653.5,-112 561.24,-73.95 448.91,-39.06 391.41,-21.99"/>
<polygon fill="midnightblue" stroke="midnightblue" points="392.25,-18.59 381.67,-19.12 390.27,-25.3 392.25,-18.59"/>
</g>
<!-- Node10 -->
<g id="node10" class="node">
<title>Node10</title>
<g id="a_node10"><a xlink:title=" ">
<polygon fill="none" stroke="#bfbfbf" points="739.5,-112.5 739.5,-131.5 811.5,-131.5 811.5,-112.5 739.5,-112.5"/>
<text text-anchor="middle" x="775.5" y="-119.5" font-family="Helvetica,sans-Serif" font-size="10.00">sys/types.h</text>
</a>
</g>
</g>
<!-- Node6&#45;&gt;Node10 -->
<g id="edge10" class="edge">
<title>Node6&#45;&gt;Node10</title>
<path fill="none" stroke="midnightblue" d="M783.85,-168.08C782.52,-160.93 780.62,-150.64 778.96,-141.69"/>
<polygon fill="midnightblue" stroke="midnightblue" points="782.38,-140.95 777.12,-131.75 775.5,-142.22 782.38,-140.95"/>
</g>
<!-- Node11&#45;&gt;Node5 -->
<g id="edge13" class="edge">
<title>Node11&#45;&gt;Node5</title>
<path fill="none" stroke="midnightblue" d="M460.15,-340.06C531.51,-326.96 711.5,-288.6 711.5,-235 711.5,-235 711.5,-235 711.5,-177 711.5,-146.9 715.09,-137.86 730.5,-112 751.99,-75.93 789.37,-43.59 812.42,-25.7"/>
<polygon fill="midnightblue" stroke="midnightblue" points="814.64,-28.4 820.49,-19.57 810.41,-22.83 814.64,-28.4"/>
</g>
<!-- Node11&#45;&gt;Node9 -->
<g id="edge12" class="edge">
<title>Node11&#45;&gt;Node9</title>
<path fill="none" stroke="midnightblue" d="M402.7,-343.8C364.38,-340.98 295.84,-331.53 247.5,-300 154.93,-239.62 159.79,-184.65 139.5,-76 137.87,-67.26 133.9,-62.9 139.5,-56 161.19,-29.28 259.5,-17.83 315.02,-13.43"/>
<polygon fill="midnightblue" stroke="midnightblue" points="315.48,-16.91 325.19,-12.67 314.96,-9.93 315.48,-16.91"/>
</g>
<!-- Node12 -->
<g id="node12" class="node">
<title>Node12</title>
<g id="a_node12"><a xlink:href="irq_8h.html" target="_top" xlink:title="IRQ driver interface.">
<polygon fill="none" stroke="black" points="550.5,-280.5 550.5,-299.5 588.5,-299.5 588.5,-280.5 550.5,-280.5"/>
<text text-anchor="middle" x="569.5" y="-287.5" font-family="Helvetica,sans-Serif" font-size="10.00">irq.h</text>
</a>
</g>
</g>
<!-- Node11&#45;&gt;Node12 -->
<g id="edge14" class="edge">
<title>Node11&#45;&gt;Node12</title>
<path fill="none" stroke="midnightblue" d="M453.37,-336.44C477.09,-327.16 515.05,-312.31 541.07,-302.13"/>
<polygon fill="midnightblue" stroke="midnightblue" points="542.37,-305.38 550.4,-298.47 539.81,-298.86 542.37,-305.38"/>
</g>
<!-- Node11&#45;&gt;Node14 -->
<g id="edge17" class="edge">
<title>Node11&#45;&gt;Node14</title>
<path fill="none" stroke="midnightblue" d="M402.71,-340.19C353.75,-330.17 259.5,-302.17 259.5,-235 259.5,-235 259.5,-235 259.5,-177 259.5,-123.71 321.83,-93.41 366.13,-78.61"/>
<polygon fill="midnightblue" stroke="midnightblue" points="367.37,-81.89 375.84,-75.52 365.25,-75.22 367.37,-81.89"/>
</g>
<!-- Node15 -->
<g id="node15" class="node">
<title>Node15</title>
<g id="a_node15"><a xlink:href="list_8h.html" target="_top" xlink:title="Intrusive linked list.">
<polygon fill="none" stroke="black" points="149,-56.5 149,-75.5 190,-75.5 190,-56.5 149,-56.5"/>
<text text-anchor="middle" x="169.5" y="-63.5" font-family="Helvetica,sans-Serif" font-size="10.00">list.h</text>
</a>
</g>
</g>
<!-- Node11&#45;&gt;Node15 -->
<g id="edge20" class="edge">
<title>Node11&#45;&gt;Node15</title>
<path fill="none" stroke="midnightblue" d="M402.93,-343.27C368.86,-339.88 311.73,-329.82 273.5,-300 205.51,-246.98 203.25,-213.96 176.5,-132 171.6,-116.98 169.96,-99.07 169.48,-85.86"/>
<polygon fill="midnightblue" stroke="midnightblue" points="172.98,-85.59 169.31,-75.65 165.98,-85.71 172.98,-85.59"/>
</g>
<!-- Node16 -->
<g id="node16" class="node">
<title>Node16</title>
<g id="a_node16"><a xlink:href="core_2include_2thread_8h.html" target="_top" xlink:title="Threading API.">
<polygon fill="none" stroke="black" points="403,-280.5 403,-299.5 460,-299.5 460,-280.5 403,-280.5"/>
<text text-anchor="middle" x="431.5" y="-287.5" font-family="Helvetica,sans-Serif" font-size="10.00">thread.h</text>
</a>
</g>
</g>
<!-- Node11&#45;&gt;Node16 -->
<g id="edge21" class="edge">
<title>Node11&#45;&gt;Node16</title>
<path fill="none" stroke="midnightblue" d="M431.5,-336.08C431.5,-329.01 431.5,-318.86 431.5,-309.99"/>
<polygon fill="midnightblue" stroke="midnightblue" points="435,-309.75 431.5,-299.75 428,-309.75 435,-309.75"/>
</g>
<!-- Node12&#45;&gt;Node4 -->
<g id="edge15" class="edge">
<title>Node12&#45;&gt;Node4</title>
<path fill="none" stroke="midnightblue" d="M580.2,-280.45C589.95,-272.12 604.07,-258.6 612.5,-244 620.86,-229.52 625.79,-211.07 628.53,-197.53"/>
<polygon fill="midnightblue" stroke="midnightblue" points="632.01,-197.97 630.34,-187.51 625.12,-196.73 632.01,-197.97"/>
</g>
<!-- Node13 -->
<g id="node13" class="node">
<title>Node13</title>
<g id="a_node13"><a xlink:title=" ">
<polygon fill="none" stroke="#bfbfbf" points="535.5,-224.5 535.5,-243.5 603.5,-243.5 603.5,-224.5 535.5,-224.5"/>
<text text-anchor="middle" x="569.5" y="-231.5" font-family="Helvetica,sans-Serif" font-size="10.00">cpu_conf.h</text>
</a>
</g>
</g>
<!-- Node12&#45;&gt;Node13 -->
<g id="edge16" class="edge">
<title>Node12&#45;&gt;Node13</title>
<path fill="none" stroke="midnightblue" d="M569.5,-280.08C569.5,-273.01 569.5,-262.86 569.5,-253.99"/>
<polygon fill="midnightblue" stroke="midnightblue" points="573,-253.75 569.5,-243.75 566,-253.75 573,-253.75"/>
</g>
<!-- Node14&#45;&gt;Node5 -->
<g id="edge19" class="edge">
<title>Node14&#45;&gt;Node5</title>
<path fill="none" stroke="midnightblue" d="M458.02,-58.81C543.62,-47.88 719.59,-25.41 795.88,-15.67"/>
<polygon fill="midnightblue" stroke="midnightblue" points="796.49,-19.13 805.96,-14.39 795.6,-12.18 796.49,-19.13"/>
</g>
<!-- Node14&#45;&gt;Node9 -->
<g id="edge18" class="edge">
<title>Node14&#45;&gt;Node9</title>
<path fill="none" stroke="midnightblue" d="M400.5,-56.32C392.31,-48.42 379.99,-36.55 370.03,-26.94"/>
<polygon fill="midnightblue" stroke="midnightblue" points="372.29,-24.26 362.66,-19.83 367.43,-29.29 372.29,-24.26"/>
</g>
<!-- Node16&#45;&gt;Node13 -->
<g id="edge38" class="edge">
<title>Node16&#45;&gt;Node13</title>
<path fill="none" stroke="midnightblue" d="M453.37,-280.44C476.28,-271.48 512.48,-257.31 538.37,-247.18"/>
<polygon fill="midnightblue" stroke="midnightblue" points="539.7,-250.42 547.74,-243.52 537.15,-243.9 539.7,-250.42"/>
</g>
<!-- Node17 -->
<g id="node17" class="node">
<title>Node17</title>
<g id="a_node17"><a xlink:href="clist_8h.html" target="_top" xlink:title="Circular linked list.">
<polygon fill="none" stroke="black" points="185.5,-112.5 185.5,-131.5 231.5,-131.5 231.5,-112.5 185.5,-112.5"/>
<text text-anchor="middle" x="208.5" y="-119.5" font-family="Helvetica,sans-Serif" font-size="10.00">clist.h</text>
</a>
</g>
</g>
<!-- Node16&#45;&gt;Node17 -->
<g id="edge22" class="edge">
<title>Node16&#45;&gt;Node17</title>
<path fill="none" stroke="midnightblue" d="M419.82,-280.31C383.7,-253.42 273.45,-171.35 228.2,-137.67"/>
<polygon fill="midnightblue" stroke="midnightblue" points="230.17,-134.77 220.06,-131.61 225.99,-140.38 230.17,-134.77"/>
</g>
<!-- Node18 -->
<g id="node18" class="node">
<title>Node18</title>
<g id="a_node18"><a xlink:href="cib_8h.html" target="_top" xlink:title="Circular integer buffer interface.">
<polygon fill="none" stroke="black" points="411.5,-224.5 411.5,-243.5 451.5,-243.5 451.5,-224.5 411.5,-224.5"/>
<text text-anchor="middle" x="431.5" y="-231.5" font-family="Helvetica,sans-Serif" font-size="10.00">cib.h</text>
</a>
</g>
</g>
<!-- Node16&#45;&gt;Node18 -->
<g id="edge25" class="edge">
<title>Node16&#45;&gt;Node18</title>
<path fill="none" stroke="midnightblue" d="M431.5,-280.08C431.5,-273.01 431.5,-262.86 431.5,-253.99"/>
<polygon fill="midnightblue" stroke="midnightblue" points="435,-253.75 431.5,-243.75 428,-253.75 435,-253.75"/>
</g>
<!-- Node21 -->
<g id="node21" class="node">
<title>Node21</title>
<g id="a_node21"><a xlink:href="msg_8h.html" target="_top" xlink:title="Messaging API for inter process communication.">
<polygon fill="none" stroke="black" points="470,-224.5 470,-243.5 517,-243.5 517,-224.5 470,-224.5"/>
<text text-anchor="middle" x="493.5" y="-231.5" font-family="Helvetica,sans-Serif" font-size="10.00">msg.h</text>
</a>
</g>
</g>
<!-- Node16&#45;&gt;Node21 -->
<g id="edge29" class="edge">
<title>Node16&#45;&gt;Node21</title>
<path fill="none" stroke="midnightblue" d="M441.46,-280.32C450.63,-272.34 464.44,-260.31 475.53,-250.65"/>
<polygon fill="midnightblue" stroke="midnightblue" points="478.12,-253.04 483.36,-243.83 473.52,-247.76 478.12,-253.04"/>
</g>
<!-- Node22 -->
<g id="node22" class="node">
<title>Node22</title>
<g id="a_node22"><a xlink:href="sched_8h.html" target="_top" xlink:title="Scheduler API definition.">
<polygon fill="none" stroke="black" points="356.5,-168.5 356.5,-187.5 410.5,-187.5 410.5,-168.5 356.5,-168.5"/>
<text text-anchor="middle" x="383.5" y="-175.5" font-family="Helvetica,sans-Serif" font-size="10.00">sched.h</text>
</a>
</g>
</g>
<!-- Node16&#45;&gt;Node22 -->
<g id="edge39" class="edge">
<title>Node16&#45;&gt;Node22</title>
<path fill="none" stroke="midnightblue" d="M424.93,-280.47C418.46,-271.72 408.68,-257.53 402.5,-244 395.63,-228.96 390.58,-210.83 387.41,-197.54"/>
<polygon fill="midnightblue" stroke="midnightblue" points="390.81,-196.69 385.2,-187.7 383.98,-198.22 390.81,-196.69"/>
</g>
<!-- Node17&#45;&gt;Node9 -->
<g id="edge23" class="edge">
<title>Node17&#45;&gt;Node9</title>
<path fill="none" stroke="midnightblue" d="M217.84,-112.13C231.68,-99.17 258.67,-74.59 283.5,-56 298.44,-44.81 316.13,-33.46 329.99,-24.95"/>
<polygon fill="midnightblue" stroke="midnightblue" points="332.15,-27.73 338.89,-19.56 328.52,-21.75 332.15,-27.73"/>
</g>
<!-- Node17&#45;&gt;Node15 -->
<g id="edge24" class="edge">
<title>Node17&#45;&gt;Node15</title>
<path fill="none" stroke="midnightblue" d="M202.06,-112.08C196.55,-104.46 188.47,-93.26 181.74,-83.94"/>
<polygon fill="midnightblue" stroke="midnightblue" points="184.51,-81.81 175.82,-75.75 178.84,-85.91 184.51,-81.81"/>
</g>
<!-- Node19 -->
<g id="node19" class="node">
<title>Node19</title>
<g id="a_node19"><a xlink:href="assert_8h.html" target="_top" xlink:title="POSIX.1&#45;2008 compliant version of the assert macro.">
<polygon fill="none" stroke="black" points="441.5,-168.5 441.5,-187.5 497.5,-187.5 497.5,-168.5 441.5,-168.5"/>
<text text-anchor="middle" x="469.5" y="-175.5" font-family="Helvetica,sans-Serif" font-size="10.00">assert.h</text>
</a>
</g>
</g>
<!-- Node18&#45;&gt;Node19 -->
<g id="edge26" class="edge">
<title>Node18&#45;&gt;Node19</title>
<path fill="none" stroke="midnightblue" d="M437.77,-224.08C443.14,-216.46 451.02,-205.26 457.58,-195.94"/>
<polygon fill="midnightblue" stroke="midnightblue" points="460.45,-197.94 463.34,-187.75 454.72,-193.91 460.45,-197.94"/>
</g>
<!-- Node20 -->
<g id="node20" class="node">
<title>Node20</title>
<g id="a_node20"><a xlink:href="panic_8h.html" target="_top" xlink:title="Crash handling header.">
<polygon fill="none" stroke="black" points="471.5,-112.5 471.5,-131.5 523.5,-131.5 523.5,-112.5 471.5,-112.5"/>
<text text-anchor="middle" x="497.5" y="-119.5" font-family="Helvetica,sans-Serif" font-size="10.00">panic.h</text>
</a>
</g>
</g>
<!-- Node19&#45;&gt;Node20 -->
<g id="edge27" class="edge">
<title>Node19&#45;&gt;Node20</title>
<path fill="none" stroke="midnightblue" d="M474.12,-168.08C477.96,-160.69 483.52,-149.95 488.26,-140.81"/>
<polygon fill="midnightblue" stroke="midnightblue" points="491.47,-142.24 492.96,-131.75 485.25,-139.02 491.47,-142.24"/>
</g>
<!-- Node20&#45;&gt;Node14 -->
<g id="edge28" class="edge">
<title>Node20&#45;&gt;Node14</title>
<path fill="none" stroke="midnightblue" d="M483.36,-112.32C469.63,-103.9 448.56,-90.97 432.44,-81.07"/>
<polygon fill="midnightblue" stroke="midnightblue" points="433.96,-77.9 423.6,-75.65 430.3,-83.87 433.96,-77.9"/>
</g>
<!-- Node21&#45;&gt;Node4 -->
<g id="edge31" class="edge">
<title>Node21&#45;&gt;Node4</title>
<path fill="none" stroke="midnightblue" d="M515.37,-224.44C538.28,-215.48 574.48,-201.31 600.37,-191.18"/>
<polygon fill="midnightblue" stroke="midnightblue" points="601.7,-194.42 609.74,-187.52 599.15,-187.9 601.7,-194.42"/>
</g>
<!-- Node21&#45;&gt;Node5 -->
<g id="edge30" class="edge">
<title>Node21&#45;&gt;Node5</title>
<path fill="none" stroke="midnightblue" d="M496.75,-224.36C505.39,-202.47 531,-144.33 570.5,-112 638.89,-56.01 741.83,-28.67 796.08,-17.48"/>
<polygon fill="midnightblue" stroke="midnightblue" points="796.81,-20.9 805.93,-15.51 795.44,-14.03 796.81,-20.9"/>
</g>
<!-- Node21&#45;&gt;Node22 -->
<g id="edge32" class="edge">
<title>Node21&#45;&gt;Node22</title>
<path fill="none" stroke="midnightblue" d="M475.83,-224.32C458.11,-215.62 430.6,-202.12 410.21,-192.11"/>
<polygon fill="midnightblue" stroke="midnightblue" points="411.65,-188.92 401.13,-187.65 408.56,-195.2 411.65,-188.92"/>
</g>
<!-- Node22&#45;&gt;Node7 -->
<g id="edge34" class="edge">
<title>Node22&#45;&gt;Node7</title>
<path fill="none" stroke="midnightblue" d="M410.67,-170.59C450.07,-161.3 523.45,-144 570.04,-133.01"/>
<polygon fill="midnightblue" stroke="midnightblue" points="570.91,-136.4 579.84,-130.7 569.3,-129.59 570.91,-136.4"/>
</g>
<!-- Node22&#45;&gt;Node9 -->
<g id="edge33" class="edge">
<title>Node22&#45;&gt;Node9</title>
<path fill="none" stroke="midnightblue" d="M360.71,-168.47C345.17,-161.32 325.79,-149.44 316.5,-132 297.99,-97.28 323.5,-51.91 340.49,-27.79"/>
<polygon fill="midnightblue" stroke="midnightblue" points="343.36,-29.78 346.47,-19.65 337.73,-25.64 343.36,-29.78"/>
</g>
<!-- Node22&#45;&gt;Node14 -->
<g id="edge35" class="edge">
<title>Node22&#45;&gt;Node14</title>
<path fill="none" stroke="midnightblue" d="M395.04,-168.49C404.98,-160.38 418.62,-147.18 424.5,-132 430.5,-116.51 425.07,-97.97 419.13,-84.66"/>
<polygon fill="midnightblue" stroke="midnightblue" points="422.24,-83.06 414.67,-75.64 415.96,-86.16 422.24,-83.06"/>
</g>
<!-- Node22&#45;&gt;Node17 -->
<g id="edge37" class="edge">
<title>Node22&#45;&gt;Node17</title>
<path fill="none" stroke="midnightblue" d="M356.16,-168.56C325.14,-158.99 274.59,-143.39 241.43,-133.16"/>
<polygon fill="midnightblue" stroke="midnightblue" points="242.33,-129.77 231.74,-130.17 240.26,-136.46 242.33,-129.77"/>
</g>
<!-- Node23 -->
<g id="node23" class="node">
<title>Node23</title>
<g id="a_node23"><a xlink:href="native__sched_8h.html" target="_top" xlink:title="Add definitions required on the native board.">
<polygon fill="none" stroke="black" points="325.5,-112.5 325.5,-131.5 415.5,-131.5 415.5,-112.5 325.5,-112.5"/>
<text text-anchor="middle" x="370.5" y="-119.5" font-family="Helvetica,sans-Serif" font-size="10.00">native_sched.h</text>
</a>
</g>
</g>
<!-- Node22&#45;&gt;Node23 -->
<g id="edge36" class="edge">
<title>Node22&#45;&gt;Node23</title>
<path fill="none" stroke="midnightblue" d="M381.35,-168.08C379.63,-160.93 377.15,-150.64 375,-141.69"/>
<polygon fill="midnightblue" stroke="midnightblue" points="378.35,-140.65 372.61,-131.75 371.54,-142.29 378.35,-140.65"/>
</g>
<!-- Node24&#45;&gt;Node8 -->
<g id="edge41" class="edge">
<title>Node24&#45;&gt;Node8</title>
<path fill="none" stroke="midnightblue" d="M1025.67,-168.32C1007.78,-159.62 980.02,-146.12 959.45,-136.11"/>
<polygon fill="midnightblue" stroke="midnightblue" points="960.81,-132.88 950.29,-131.65 957.75,-139.18 960.81,-132.88"/>
</g>
<!-- Node25 -->
<g id="node25" class="node">
<title>Node25</title>
<g id="a_node25"><a xlink:title=" ">
<polygon fill="none" stroke="#bfbfbf" points="1016,-112.5 1016,-131.5 1095,-131.5 1095,-112.5 1016,-112.5"/>
<text text-anchor="middle" x="1055.5" y="-119.5" font-family="Helvetica,sans-Serif" font-size="10.00">periph_cpu.h</text>
</a>
</g>
</g>
<!-- Node24&#45;&gt;Node25 -->
<g id="edge42" class="edge">
<title>Node24&#45;&gt;Node25</title>
<path fill="none" stroke="midnightblue" d="M1045.48,-168.08C1047.07,-160.93 1049.36,-150.64 1051.35,-141.69"/>
<polygon fill="midnightblue" stroke="midnightblue" points="1054.8,-142.27 1053.56,-131.75 1047.97,-140.75 1054.8,-142.27"/>
</g>
<!-- Node26 -->
<g id="node26" class="node">
<title>Node26</title>
<g id="a_node26"><a xlink:title=" ">
<polygon fill="none" stroke="#bfbfbf" points="1113.5,-112.5 1113.5,-131.5 1195.5,-131.5 1195.5,-112.5 1113.5,-112.5"/>
<text text-anchor="middle" x="1154.5" y="-119.5" font-family="Helvetica,sans-Serif" font-size="10.00">periph_conf.h</text>
</a>
</g>
</g>
<!-- Node24&#45;&gt;Node26 -->
<g id="edge43" class="edge">
<title>Node24&#45;&gt;Node26</title>
<path fill="none" stroke="midnightblue" d="M1061.33,-168.32C1079.22,-159.62 1106.98,-146.12 1127.55,-136.11"/>
<polygon fill="midnightblue" stroke="midnightblue" points="1129.25,-139.18 1136.71,-131.65 1126.19,-132.88 1129.25,-139.18"/>
</g>
<!-- Node27&#45;&gt;Node5 -->
<g id="edge46" class="edge">
<title>Node27&#45;&gt;Node5</title>
<path fill="none" stroke="midnightblue" d="M947.28,-168.47C959.08,-155.94 977.46,-131.89 967.5,-112 945.85,-68.76 895.93,-39.27 863.24,-23.79"/>
<polygon fill="midnightblue" stroke="midnightblue" points="864.65,-20.59 854.1,-19.61 861.74,-26.95 864.65,-20.59"/>
</g>
<!-- Node27&#45;&gt;Node8 -->
<g id="edge47" class="edge">
<title>Node27&#45;&gt;Node8</title>
<path fill="none" stroke="midnightblue" d="M937.51,-168.08C936.71,-160.93 935.57,-150.64 934.58,-141.69"/>
<polygon fill="midnightblue" stroke="midnightblue" points="938.06,-141.3 933.47,-131.75 931.1,-142.08 938.06,-141.3"/>
</g>
<!-- Node27&#45;&gt;Node9 -->
<g id="edge45" class="edge">
<title>Node27&#45;&gt;Node9</title>
<path fill="none" stroke="midnightblue" d="M926,-168.5C905.07,-154.65 861.24,-127.25 820.5,-112 667.35,-54.66 473.12,-25.74 391.91,-15.47"/>
<polygon fill="midnightblue" stroke="midnightblue" points="392.03,-11.96 381.67,-14.2 391.16,-18.9 392.03,-11.96"/>
</g>
<!-- Node27&#45;&gt;Node25 -->
<g id="edge48" class="edge">
<title>Node27&#45;&gt;Node25</title>
<path fill="none" stroke="midnightblue" d="M957.04,-168.44C976.12,-159.64 1006.07,-145.81 1027.94,-135.72"/>
<polygon fill="midnightblue" stroke="midnightblue" points="1029.43,-138.88 1037.05,-131.52 1026.5,-132.53 1029.43,-138.88"/>
</g>
<!-- Node27&#45;&gt;Node26 -->
<g id="edge49" class="edge">
<title>Node27&#45;&gt;Node26</title>
<path fill="none" stroke="midnightblue" d="M972.73,-168.44C1010.01,-159.12 1069.77,-144.18 1110.51,-134"/>
<polygon fill="midnightblue" stroke="midnightblue" points="1111.58,-137.34 1120.43,-131.52 1109.88,-130.55 1111.58,-137.34"/>
</g>
</g>
</svg>
