<?xml version="1.0" encoding="UTF-8" standalone="no"?>
<!DOCTYPE svg PUBLIC "-//W3C//DTD SVG 1.1//EN"
 "http://www.w3.org/Graphics/SVG/1.1/DTD/svg11.dtd">
<!-- Generated by graphviz version 2.40.1 (20161225.0304)
 -->
<!-- Title: drivers/dfplayer/include/dfplayer_params.h Pages: 1 -->
<svg width="677pt" height="263pt"
 viewBox="0.00 0.00 677.03 263.00" xmlns="http://www.w3.org/2000/svg" xmlns:xlink="http://www.w3.org/1999/xlink">
<g id="graph0" class="graph" transform="scale(1 1) rotate(0) translate(4 259)">
<title>drivers/dfplayer/include/dfplayer_params.h</title>
<!-- Node0 -->
<g id="node1" class="node">
<title>Node0</title>
<polygon fill="#bfbfbf" stroke="#000000" points="58.5,-224.5 58.5,-254.5 175.5,-254.5 175.5,-224.5 58.5,-224.5"/>
<text text-anchor="start" x="66.5" y="-242.5" font-family="Helvetica,sans-Serif" font-size="10.00" fill="#000000">drivers/dfplayer/include</text>
<text text-anchor="middle" x="117" y="-231.5" font-family="Helvetica,sans-Serif" font-size="10.00" fill="#000000">/dfplayer_params.h</text>
</g>
<!-- Node1 -->
<g id="node2" class="node">
<title>Node1</title>
<polygon fill="none" stroke="#bfbfbf" points="5.5,-168.5 5.5,-187.5 54.5,-187.5 54.5,-168.5 5.5,-168.5"/>
<text text-anchor="middle" x="30" y="-175.5" font-family="Helvetica,sans-Serif" font-size="10.00" fill="#000000">board.h</text>
</g>
<!-- Node0&#45;&gt;Node1 -->
<g id="edge1" class="edge">
<title>Node0&#45;&gt;Node1</title>
<path fill="none" stroke="#191970" d="M95.4944,-224.2977C82.2032,-214.9022 65.1943,-202.8787 51.8412,-193.4395"/>
<polygon fill="#191970" stroke="#191970" points="53.8561,-190.5776 43.67,-187.6633 49.8154,-196.2937 53.8561,-190.5776"/>
</g>
<!-- Node2 -->
<g id="node3" class="node">
<title>Node2</title>
<g id="a_node3"><a xlink:href="dfplayer__types_8h.html" target="_top" xlink:title="Types used in the DFPlayer Mini Device Driver. ">
<polygon fill="none" stroke="#000000" points="213.5,-168.5 213.5,-187.5 302.5,-187.5 302.5,-168.5 213.5,-168.5"/>
<text text-anchor="middle" x="258" y="-175.5" font-family="Helvetica,sans-Serif" font-size="10.00" fill="#000000">dfplayer_types.h</text>
</a>
</g>
</g>
<!-- Node0&#45;&gt;Node2 -->
<g id="edge2" class="edge">
<title>Node0&#45;&gt;Node2</title>
<path fill="none" stroke="#191970" d="M151.4925,-224.4554C174.5028,-214.419 204.5086,-201.3314 226.8055,-191.6061"/>
<polygon fill="#191970" stroke="#191970" points="228.3833,-194.7364 236.15,-187.5303 225.5846,-188.3202 228.3833,-194.7364"/>
</g>
<!-- Node17 -->
<g id="node18" class="node">
<title>Node17</title>
<g id="a_node18"><a xlink:href="kernel__defines_8h.html" target="_top" xlink:title="Common macros and compiler attributes/pragmas configuration. ">
<polygon fill="none" stroke="#000000" points="73,-168.5 73,-187.5 161,-187.5 161,-168.5 73,-168.5"/>
<text text-anchor="middle" x="117" y="-175.5" font-family="Helvetica,sans-Serif" font-size="10.00" fill="#000000">kernel_defines.h</text>
</a>
</g>
</g>
<!-- Node0&#45;&gt;Node17 -->
<g id="edge27" class="edge">
<title>Node0&#45;&gt;Node17</title>
<path fill="none" stroke="#191970" d="M117,-224.2977C117,-216.3834 117,-206.6043 117,-198.0759"/>
<polygon fill="#191970" stroke="#191970" points="120.5001,-197.8469 117,-187.8469 113.5001,-197.847 120.5001,-197.8469"/>
</g>
<!-- Node3 -->
<g id="node4" class="node">
<title>Node3</title>
<polygon fill="none" stroke="#bfbfbf" points="413,-112.5 413,-131.5 469,-131.5 469,-112.5 413,-112.5"/>
<text text-anchor="middle" x="441" y="-119.5" font-family="Helvetica,sans-Serif" font-size="10.00" fill="#000000">stdbool.h</text>
</g>
<!-- Node2&#45;&gt;Node3 -->
<g id="edge3" class="edge">
<title>Node2&#45;&gt;Node3</title>
<path fill="none" stroke="#191970" d="M289.4588,-168.3733C320.9468,-158.7376 369.4193,-143.9045 403.0295,-133.6194"/>
<polygon fill="#191970" stroke="#191970" points="404.4097,-136.8573 412.9478,-130.5843 402.3613,-130.1637 404.4097,-136.8573"/>
</g>
<!-- Node4 -->
<g id="node5" class="node">
<title>Node4</title>
<polygon fill="none" stroke="#bfbfbf" points="126.5,-56.5 126.5,-75.5 175.5,-75.5 175.5,-56.5 126.5,-56.5"/>
<text text-anchor="middle" x="151" y="-63.5" font-family="Helvetica,sans-Serif" font-size="10.00" fill="#000000">stdint.h</text>
</g>
<!-- Node2&#45;&gt;Node4 -->
<g id="edge4" class="edge">
<title>Node2&#45;&gt;Node4</title>
<path fill="none" stroke="#191970" d="M247.2051,-168.4144C237.0845,-159.3008 221.6578,-145.0807 209,-132 193.6853,-116.1736 177.1972,-97.2065 165.7302,-83.675"/>
<polygon fill="#191970" stroke="#191970" points="168.0989,-81.0538 158.9826,-75.6553 162.7426,-85.5605 168.0989,-81.0538"/>
</g>
<!-- Node5 -->
<g id="node6" class="node">
<title>Node5</title>
<g id="a_node6"><a xlink:href="kernel__types_8h.html" target="_top" xlink:title="Types used by the kernel. ">
<polygon fill="none" stroke="#000000" points="218,-112.5 218,-131.5 298,-131.5 298,-112.5 218,-112.5"/>
<text text-anchor="middle" x="258" y="-119.5" font-family="Helvetica,sans-Serif" font-size="10.00" fill="#000000">kernel_types.h</text>
</a>
</g>
</g>
<!-- Node2&#45;&gt;Node5 -->
<g id="edge5" class="edge">
<title>Node2&#45;&gt;Node5</title>
<path fill="none" stroke="#191970" d="M258,-168.2455C258,-160.9382 258,-150.6944 258,-141.7046"/>
<polygon fill="#191970" stroke="#191970" points="261.5001,-141.6426 258,-131.6427 254.5001,-141.6427 261.5001,-141.6426"/>
</g>
<!-- Node10 -->
<g id="node11" class="node">
<title>Node10</title>
<g id="a_node11"><a xlink:href="mutex_8h.html" target="_top" xlink:title="Mutex for thread synchronization. ">
<polygon fill="none" stroke="#000000" points="110,-112.5 110,-131.5 162,-131.5 162,-112.5 110,-112.5"/>
<text text-anchor="middle" x="136" y="-119.5" font-family="Helvetica,sans-Serif" font-size="10.00" fill="#000000">mutex.h</text>
</a>
</g>
</g>
<!-- Node2&#45;&gt;Node10 -->
<g id="edge11" class="edge">
<title>Node2&#45;&gt;Node10</title>
<path fill="none" stroke="#191970" d="M237.0275,-168.3733C217.4433,-159.3838 188.0039,-145.8706 165.949,-135.7471"/>
<polygon fill="#191970" stroke="#191970" points="167.2473,-132.4919 156.6989,-131.5011 164.3271,-138.8538 167.2473,-132.4919"/>
</g>
<!-- Node12 -->
<g id="node13" class="node">
<title>Node12</title>
<g id="a_node13"><a xlink:href="gpio_8h.html" target="_top" xlink:title="Low&#45;level GPIO peripheral driver interface definitions. ">
<polygon fill="none" stroke="#000000" points="535,-112.5 535,-131.5 607,-131.5 607,-112.5 535,-112.5"/>
<text text-anchor="middle" x="571" y="-119.5" font-family="Helvetica,sans-Serif" font-size="10.00" fill="#000000">periph/gpio.h</text>
</a>
</g>
</g>
<!-- Node2&#45;&gt;Node12 -->
<g id="edge15" class="edge">
<title>Node2&#45;&gt;Node12</title>
<path fill="none" stroke="#191970" d="M302.5129,-170.036C361.5452,-159.4743 465.2195,-140.9256 524.9938,-130.2311"/>
<polygon fill="#191970" stroke="#191970" points="525.6827,-133.6636 534.9099,-128.457 524.4498,-126.773 525.6827,-133.6636"/>
</g>
<!-- Node15 -->
<g id="node16" class="node">
<title>Node15</title>
<g id="a_node16"><a xlink:href="uart_8h.html" target="_top" xlink:title="Low&#45;level UART peripheral driver interface definition. ">
<polygon fill="none" stroke="#000000" points="323.5,-112.5 323.5,-131.5 394.5,-131.5 394.5,-112.5 323.5,-112.5"/>
<text text-anchor="middle" x="359" y="-119.5" font-family="Helvetica,sans-Serif" font-size="10.00" fill="#000000">periph/uart.h</text>
</a>
</g>
</g>
<!-- Node2&#45;&gt;Node15 -->
<g id="edge19" class="edge">
<title>Node2&#45;&gt;Node15</title>
<path fill="none" stroke="#191970" d="M275.5929,-168.2455C291.379,-159.4928 314.7639,-146.527 332.7587,-136.5496"/>
<polygon fill="#191970" stroke="#191970" points="334.5603,-139.5528 341.6087,-131.6427 331.1659,-133.4308 334.5603,-139.5528"/>
</g>
<!-- Node5&#45;&gt;Node4 -->
<g id="edge6" class="edge">
<title>Node5&#45;&gt;Node4</title>
<path fill="none" stroke="#191970" d="M239.362,-112.2455C222.5614,-103.4527 197.6366,-90.4079 178.5382,-80.4125"/>
<polygon fill="#191970" stroke="#191970" points="179.9073,-77.1787 169.4244,-75.6427 176.6614,-83.3807 179.9073,-77.1787"/>
</g>
<!-- Node6 -->
<g id="node7" class="node">
<title>Node6</title>
<g id="a_node7"><a xlink:href="inttypes_8h.html" target="_top" xlink:title="Adds include for missing inttype definitions. ">
<polygon fill="none" stroke="#000000" points="193.5,-56.5 193.5,-75.5 252.5,-75.5 252.5,-56.5 193.5,-56.5"/>
<text text-anchor="middle" x="223" y="-63.5" font-family="Helvetica,sans-Serif" font-size="10.00" fill="#000000">inttypes.h</text>
</a>
</g>
</g>
<!-- Node5&#45;&gt;Node6 -->
<g id="edge7" class="edge">
<title>Node5&#45;&gt;Node6</title>
<path fill="none" stroke="#191970" d="M251.9035,-112.2455C247.0855,-104.5367 240.2249,-93.5598 234.3968,-84.2348"/>
<polygon fill="#191970" stroke="#191970" points="237.2947,-82.2677 229.0267,-75.6427 231.3587,-85.9777 237.2947,-82.2677"/>
</g>
<!-- Node7 -->
<g id="node8" class="node">
<title>Node7</title>
<polygon fill="none" stroke="#bfbfbf" points="395,-56.5 395,-75.5 443,-75.5 443,-56.5 395,-56.5"/>
<text text-anchor="middle" x="419" y="-63.5" font-family="Helvetica,sans-Serif" font-size="10.00" fill="#000000">limits.h</text>
</g>
<!-- Node5&#45;&gt;Node7 -->
<g id="edge8" class="edge">
<title>Node5&#45;&gt;Node7</title>
<path fill="none" stroke="#191970" d="M285.6769,-112.3733C313.3022,-102.7645 355.7868,-87.9872 385.3465,-77.7056"/>
<polygon fill="#191970" stroke="#191970" points="386.5403,-80.9961 394.8354,-74.4051 384.2406,-74.3846 386.5403,-80.9961"/>
</g>
<!-- Node8 -->
<g id="node9" class="node">
<title>Node8</title>
<polygon fill="none" stroke="#bfbfbf" points="56,-56.5 56,-75.5 108,-75.5 108,-56.5 56,-56.5"/>
<text text-anchor="middle" x="82" y="-63.5" font-family="Helvetica,sans-Serif" font-size="10.00" fill="#000000">stddef.h</text>
</g>
<!-- Node5&#45;&gt;Node8 -->
<g id="edge9" class="edge">
<title>Node5&#45;&gt;Node8</title>
<path fill="none" stroke="#191970" d="M227.7445,-112.3733C197.1938,-102.6526 150.0187,-87.6423 117.6658,-77.3482"/>
<polygon fill="#191970" stroke="#191970" points="118.7265,-74.0129 108.136,-74.316 116.604,-80.6833 118.7265,-74.0129"/>
</g>
<!-- Node9 -->
<g id="node10" class="node">
<title>Node9</title>
<polygon fill="none" stroke="#bfbfbf" points="271,-56.5 271,-75.5 339,-75.5 339,-56.5 271,-56.5"/>
<text text-anchor="middle" x="305" y="-63.5" font-family="Helvetica,sans-Serif" font-size="10.00" fill="#000000">sys/types.h</text>
</g>
<!-- Node5&#45;&gt;Node9 -->
<g id="edge10" class="edge">
<title>Node5&#45;&gt;Node9</title>
<path fill="none" stroke="#191970" d="M266.1868,-112.2455C272.8589,-104.2958 282.4479,-92.8706 290.4253,-83.3656"/>
<polygon fill="#191970" stroke="#191970" points="293.1592,-85.5525 296.907,-75.6427 287.7974,-81.0524 293.1592,-85.5525"/>
</g>
<!-- Node10&#45;&gt;Node4 -->
<g id="edge13" class="edge">
<title>Node10&#45;&gt;Node4</title>
<path fill="none" stroke="#191970" d="M138.6128,-112.2455C140.5916,-104.8579 143.3744,-94.4689 145.8012,-85.4087"/>
<polygon fill="#191970" stroke="#191970" points="149.2105,-86.2078 148.4171,-75.6427 142.4489,-84.3966 149.2105,-86.2078"/>
</g>
<!-- Node10&#45;&gt;Node8 -->
<g id="edge12" class="edge">
<title>Node10&#45;&gt;Node8</title>
<path fill="none" stroke="#191970" d="M126.5939,-112.2455C118.8507,-104.2155 107.688,-92.6394 98.4682,-83.0781"/>
<polygon fill="#191970" stroke="#191970" points="100.7591,-80.4117 91.2983,-75.6427 95.7202,-85.2706 100.7591,-80.4117"/>
</g>
<!-- Node11 -->
<g id="node12" class="node">
<title>Node11</title>
<g id="a_node12"><a xlink:href="list_8h.html" target="_top" xlink:title="Intrusive linked list. ">
<polygon fill="none" stroke="#000000" points="0,-56.5 0,-75.5 38,-75.5 38,-56.5 0,-56.5"/>
<text text-anchor="middle" x="19" y="-63.5" font-family="Helvetica,sans-Serif" font-size="10.00" fill="#000000">list.h</text>
</a>
</g>
</g>
<!-- Node10&#45;&gt;Node11 -->
<g id="edge14" class="edge">
<title>Node10&#45;&gt;Node11</title>
<path fill="none" stroke="#191970" d="M115.887,-112.3733C96.963,-103.3156 68.4439,-89.6655 47.2417,-79.5174"/>
<polygon fill="#191970" stroke="#191970" points="48.6069,-76.2906 38.0758,-75.1303 45.5848,-82.6047 48.6069,-76.2906"/>
</g>
<!-- Node12&#45;&gt;Node7 -->
<g id="edge16" class="edge">
<title>Node12&#45;&gt;Node7</title>
<path fill="none" stroke="#191970" d="M544.8703,-112.3733C519.4696,-103.0151 480.7626,-88.7547 452.9807,-78.5192"/>
<polygon fill="#191970" stroke="#191970" points="453.8779,-75.1198 443.2845,-74.9469 451.4579,-81.6882 453.8779,-75.1198"/>
</g>
<!-- Node13 -->
<g id="node14" class="node">
<title>Node13</title>
<polygon fill="none" stroke="#bfbfbf" points="583,-56.5 583,-75.5 655,-75.5 655,-56.5 583,-56.5"/>
<text text-anchor="middle" x="619" y="-63.5" font-family="Helvetica,sans-Serif" font-size="10.00" fill="#000000">periph_cpu.h</text>
</g>
<!-- Node12&#45;&gt;Node13 -->
<g id="edge17" class="edge">
<title>Node12&#45;&gt;Node13</title>
<path fill="none" stroke="#191970" d="M579.361,-112.2455C586.175,-104.2958 595.9681,-92.8706 604.1152,-83.3656"/>
<polygon fill="#191970" stroke="#191970" points="606.8843,-85.513 610.7349,-75.6427 601.5695,-80.9575 606.8843,-85.513"/>
</g>
<!-- Node14 -->
<g id="node15" class="node">
<title>Node14</title>
<polygon fill="none" stroke="#bfbfbf" points="475.5,-.5 475.5,-19.5 550.5,-19.5 550.5,-.5 475.5,-.5"/>
<text text-anchor="middle" x="513" y="-7.5" font-family="Helvetica,sans-Serif" font-size="10.00" fill="#000000">periph_conf.h</text>
</g>
<!-- Node12&#45;&gt;Node14 -->
<g id="edge18" class="edge">
<title>Node12&#45;&gt;Node14</title>
<path fill="none" stroke="#191970" d="M606.5082,-112.4649C640.2532,-101.5984 683.2089,-81.9321 664,-56 651.5452,-39.186 600.2195,-26.0635 560.8285,-18.2113"/>
<polygon fill="#191970" stroke="#191970" points="561.3291,-14.7433 550.8465,-16.2816 560.0004,-21.6161 561.3291,-14.7433"/>
</g>
<!-- Node15&#45;&gt;Node4 -->
<g id="edge21" class="edge">
<title>Node15&#45;&gt;Node4</title>
<path fill="none" stroke="#191970" d="M323.2648,-112.8603C290.0305,-104.292 238.9048,-90.9382 185.5004,-76.088"/>
<polygon fill="#191970" stroke="#191970" points="186.4324,-72.7144 175.8597,-73.3976 184.5508,-79.4568 186.4324,-72.7144"/>
</g>
<!-- Node15&#45;&gt;Node7 -->
<g id="edge22" class="edge">
<title>Node15&#45;&gt;Node7</title>
<path fill="none" stroke="#191970" d="M369.4512,-112.2455C378.2269,-104.0549 390.9554,-92.1749 401.314,-82.5069"/>
<polygon fill="#191970" stroke="#191970" points="403.7461,-85.0246 408.6686,-75.6427 398.9699,-79.9072 403.7461,-85.0246"/>
</g>
<!-- Node15&#45;&gt;Node8 -->
<g id="edge20" class="edge">
<title>Node15&#45;&gt;Node8</title>
<path fill="none" stroke="#191970" d="M323.4779,-115.1554C317.9618,-114.0964 312.3278,-113.017 307,-112 225.6279,-96.4669 202.2965,-95.8514 118.0441,-76.0977"/>
<polygon fill="#191970" stroke="#191970" points="118.843,-72.6902 108.3057,-73.7937 117.2312,-79.5021 118.843,-72.6902"/>
</g>
<!-- Node15&#45;&gt;Node13 -->
<g id="edge23" class="edge">
<title>Node15&#45;&gt;Node13</title>
<path fill="none" stroke="#191970" d="M394.8543,-113.9985C397.9468,-113.3187 401.028,-112.6449 404,-112 476.3791,-96.2946 496.8676,-92.6654 572.6254,-76.2827"/>
<polygon fill="#191970" stroke="#191970" points="573.6257,-79.6473 582.6575,-74.1088 572.1431,-72.8061 573.6257,-79.6473"/>
</g>
<!-- Node15&#45;&gt;Node14 -->
<g id="edge24" class="edge">
<title>Node15&#45;&gt;Node14</title>
<path fill="none" stroke="#191970" d="M360.4756,-112.0835C363.1068,-97.7924 369.9245,-71.4324 386,-56 407.6006,-35.2634 439.2485,-23.7689 465.5471,-17.4558"/>
<polygon fill="#191970" stroke="#191970" points="466.3297,-20.8673 475.3323,-15.2814 464.8112,-14.034 466.3297,-20.8673"/>
</g>
<!-- Node16 -->
<g id="node17" class="node">
<title>Node16</title>
<g id="a_node17"><a xlink:href="dev__enums_8h.html" target="_top" xlink:title="Device enumerations for backward compatibility with existing peripheral driver implementations. ">
<polygon fill="none" stroke="#000000" points="461,-56.5 461,-75.5 565,-75.5 565,-56.5 461,-56.5"/>
<text text-anchor="middle" x="513" y="-63.5" font-family="Helvetica,sans-Serif" font-size="10.00" fill="#000000">periph/dev_enums.h</text>
</a>
</g>
</g>
<!-- Node15&#45;&gt;Node16 -->
<g id="edge25" class="edge">
<title>Node15&#45;&gt;Node16</title>
<path fill="none" stroke="#191970" d="M385.4735,-112.3733C410.8597,-103.1419 449.3645,-89.1402 477.422,-78.9375"/>
<polygon fill="#191970" stroke="#191970" points="478.6701,-82.2079 486.8719,-75.5011 476.2778,-75.6293 478.6701,-82.2079"/>
</g>
<!-- Node16&#45;&gt;Node14 -->
<g id="edge26" class="edge">
<title>Node16&#45;&gt;Node14</title>
<path fill="none" stroke="#191970" d="M513,-56.2455C513,-48.9382 513,-38.6944 513,-29.7046"/>
<polygon fill="#191970" stroke="#191970" points="516.5001,-29.6426 513,-19.6427 509.5001,-29.6427 516.5001,-29.6426"/>
</g>
<!-- Node17&#45;&gt;Node8 -->
<g id="edge28" class="edge">
<title>Node17&#45;&gt;Node8</title>
<path fill="none" stroke="#191970" d="M113.4108,-168.1813C110.0607,-158.9031 104.9927,-144.5717 101,-132 96.0937,-116.5516 91.0406,-98.8998 87.38,-85.7405"/>
<polygon fill="#191970" stroke="#191970" points="90.6967,-84.6016 84.6664,-75.8903 83.9481,-86.4608 90.6967,-84.6016"/>
</g>
</g>
</svg>
