<?xml version="1.0" encoding="UTF-8" standalone="no"?>
<!DOCTYPE svg PUBLIC "-//W3C//DTD SVG 1.1//EN"
 "http://www.w3.org/Graphics/SVG/1.1/DTD/svg11.dtd">
<!-- Generated by graphviz version 2.43.0 (0)
 -->
<!-- Title: pkg/uwb&#45;core/include/dpl/dpl_cputime.h Pages: 1 -->
<svg width="1122pt" height="599pt"
 viewBox="0.00 0.00 1122.00 599.00" xmlns="http://www.w3.org/2000/svg" xmlns:xlink="http://www.w3.org/1999/xlink">
<g id="graph0" class="graph" transform="scale(1 1) rotate(0) translate(4 595)">
<title>pkg/uwb&#45;core/include/dpl/dpl_cputime.h</title>
<!-- Node1 -->
<g id="node1" class="node">
<title>Node1</title>
<g id="a_node1"><a xlink:title="uwb&#45;core DPL (Decawave Porting Layer) cputime abstraction">
<polygon fill="#bfbfbf" stroke="black" points="743.5,-560.5 743.5,-590.5 864.5,-590.5 864.5,-560.5 743.5,-560.5"/>
<text text-anchor="start" x="751.5" y="-578.5" font-family="Helvetica,sans-Serif" font-size="10.00">pkg/uwb&#45;core/include</text>
<text text-anchor="middle" x="804" y="-567.5" font-family="Helvetica,sans-Serif" font-size="10.00">/dpl/dpl_cputime.h</text>
</a>
</g>
</g>
<!-- Node2 -->
<g id="node2" class="node">
<title>Node2</title>
<g id="a_node2"><a xlink:title=" ">
<polygon fill="none" stroke="#bfbfbf" points="623.5,-0.5 623.5,-19.5 676.5,-19.5 676.5,-0.5 623.5,-0.5"/>
<text text-anchor="middle" x="650" y="-7.5" font-family="Helvetica,sans-Serif" font-size="10.00">stdint.h</text>
</a>
</g>
</g>
<!-- Node1&#45;&gt;Node2 -->
<g id="edge1" class="edge">
<title>Node1&#45;&gt;Node2</title>
<path fill="none" stroke="midnightblue" d="M864.51,-564.64C954.72,-548.19 1114,-511.7 1114,-459 1114,-459 1114,-459 1114,-121 1114,-33.37 796.69,-15.45 686.88,-11.87"/>
<polygon fill="midnightblue" stroke="midnightblue" points="686.72,-8.36 676.61,-11.56 686.5,-15.36 686.72,-8.36"/>
</g>
<!-- Node3 -->
<g id="node3" class="node">
<title>Node3</title>
<g id="a_node3"><a xlink:href="xtimer_8h.html" target="_top" xlink:title="xtimer interface definitions">
<polygon fill="none" stroke="black" points="702,-448.5 702,-467.5 760,-467.5 760,-448.5 702,-448.5"/>
<text text-anchor="middle" x="731" y="-455.5" font-family="Helvetica,sans-Serif" font-size="10.00">xtimer.h</text>
</a>
</g>
</g>
<!-- Node1&#45;&gt;Node3 -->
<g id="edge2" class="edge">
<title>Node1&#45;&gt;Node3</title>
<path fill="none" stroke="midnightblue" d="M784.25,-560.38C772.75,-551.21 758.81,-538.32 750,-524 741.24,-509.76 736.35,-491.29 733.73,-477.68"/>
<polygon fill="midnightblue" stroke="midnightblue" points="737.15,-476.87 732.03,-467.59 730.24,-478.03 737.15,-476.87"/>
</g>
<!-- Node31 -->
<g id="node31" class="node">
<title>Node31</title>
<g id="a_node31"><a xlink:href="hal__timer_8h.html" target="_top" xlink:title="Timer abstraction layer RIOT adaption.">
<polygon fill="none" stroke="black" points="759,-504.5 759,-523.5 849,-523.5 849,-504.5 759,-504.5"/>
<text text-anchor="middle" x="804" y="-511.5" font-family="Helvetica,sans-Serif" font-size="10.00">hal/hal_timer.h</text>
</a>
</g>
</g>
<!-- Node1&#45;&gt;Node31 -->
<g id="edge56" class="edge">
<title>Node1&#45;&gt;Node31</title>
<path fill="none" stroke="midnightblue" d="M804,-560.4C804,-552.47 804,-542.46 804,-533.86"/>
<polygon fill="midnightblue" stroke="midnightblue" points="807.5,-533.66 804,-523.66 800.5,-533.66 807.5,-533.66"/>
</g>
<!-- Node3&#45;&gt;Node2 -->
<g id="edge4" class="edge">
<title>Node3&#45;&gt;Node2</title>
<path fill="none" stroke="midnightblue" d="M736.28,-448.23C746.73,-430.04 769,-386.6 769,-347 769,-347 769,-347 769,-121 769,-73.3 716.8,-40.53 681.54,-23.84"/>
<polygon fill="midnightblue" stroke="midnightblue" points="682.66,-20.5 672.1,-19.56 679.77,-26.88 682.66,-20.5"/>
</g>
<!-- Node4 -->
<g id="node4" class="node">
<title>Node4</title>
<g id="a_node4"><a xlink:title=" ">
<polygon fill="none" stroke="#bfbfbf" points="522,-168.5 522,-187.5 584,-187.5 584,-168.5 522,-168.5"/>
<text text-anchor="middle" x="553" y="-175.5" font-family="Helvetica,sans-Serif" font-size="10.00">stdbool.h</text>
</a>
</g>
</g>
<!-- Node3&#45;&gt;Node4 -->
<g id="edge3" class="edge">
<title>Node3&#45;&gt;Node4</title>
<path fill="none" stroke="midnightblue" d="M727.91,-448.21C716.24,-415.79 672.22,-300.89 609,-224 599.38,-212.29 586.27,-201.56 575.16,-193.52"/>
<polygon fill="midnightblue" stroke="midnightblue" points="576.98,-190.52 566.78,-187.67 572.98,-196.26 576.98,-190.52"/>
</g>
<!-- Node5 -->
<g id="node5" class="node">
<title>Node5</title>
<g id="a_node5"><a xlink:href="timex_8h.html" target="_top" xlink:title="Utility library for comparing and computing timestamps.">
<polygon fill="none" stroke="black" points="678,-168.5 678,-187.5 732,-187.5 732,-168.5 678,-168.5"/>
<text text-anchor="middle" x="705" y="-175.5" font-family="Helvetica,sans-Serif" font-size="10.00">timex.h</text>
</a>
</g>
</g>
<!-- Node3&#45;&gt;Node5 -->
<g id="edge5" class="edge">
<title>Node3&#45;&gt;Node5</title>
<path fill="none" stroke="midnightblue" d="M731,-448.44C731,-429.94 731,-384.81 731,-347 731,-347 731,-347 731,-289 731,-255.93 719.73,-218.73 712.03,-197.17"/>
<polygon fill="midnightblue" stroke="midnightblue" points="715.27,-195.83 708.51,-187.68 708.71,-198.27 715.27,-195.83"/>
</g>
<!-- Node7 -->
<g id="node7" class="node">
<title>Node7</title>
<g id="a_node7"><a xlink:href="mutex_8h.html" target="_top" xlink:title="Mutex for thread synchronization.">
<polygon fill="none" stroke="black" points="179.5,-336.5 179.5,-355.5 236.5,-355.5 236.5,-336.5 179.5,-336.5"/>
<text text-anchor="middle" x="208" y="-343.5" font-family="Helvetica,sans-Serif" font-size="10.00">mutex.h</text>
</a>
</g>
</g>
<!-- Node3&#45;&gt;Node7 -->
<g id="edge8" class="edge">
<title>Node3&#45;&gt;Node7</title>
<path fill="none" stroke="midnightblue" d="M701.88,-456.78C636.79,-455.61 475.09,-448.88 346,-412 303.59,-399.88 257.95,-376.02 231.24,-360.82"/>
<polygon fill="midnightblue" stroke="midnightblue" points="232.7,-357.63 222.29,-355.66 229.2,-363.69 232.7,-357.63"/>
</g>
<!-- Node19 -->
<g id="node19" class="node">
<title>Node19</title>
<g id="a_node19"><a xlink:href="sched_8h.html" target="_top" xlink:title="Scheduler API definition.">
<polygon fill="none" stroke="black" points="219,-168.5 219,-187.5 273,-187.5 273,-168.5 219,-168.5"/>
<text text-anchor="middle" x="246" y="-175.5" font-family="Helvetica,sans-Serif" font-size="10.00">sched.h</text>
</a>
</g>
</g>
<!-- Node3&#45;&gt;Node19 -->
<g id="edge37" class="edge">
<title>Node3&#45;&gt;Node19</title>
<path fill="none" stroke="midnightblue" d="M701.81,-456.99C594.94,-456.22 228.3,-446.9 170,-356 134.72,-300.98 197.6,-226.81 229.33,-194.79"/>
<polygon fill="midnightblue" stroke="midnightblue" points="231.97,-197.11 236.65,-187.6 227.06,-192.12 231.97,-197.11"/>
</g>
<!-- Node21 -->
<g id="node21" class="node">
<title>Node21</title>
<g id="a_node21"><a xlink:href="rmutex_8h.html" target="_top" xlink:title="Recursive Mutex for thread synchronization.">
<polygon fill="none" stroke="black" points="355.5,-392.5 355.5,-411.5 416.5,-411.5 416.5,-392.5 355.5,-392.5"/>
<text text-anchor="middle" x="386" y="-399.5" font-family="Helvetica,sans-Serif" font-size="10.00">rmutex.h</text>
</a>
</g>
</g>
<!-- Node3&#45;&gt;Node21 -->
<g id="edge38" class="edge">
<title>Node3&#45;&gt;Node21</title>
<path fill="none" stroke="midnightblue" d="M701.88,-452.44C640.54,-442.84 497.86,-420.51 427.18,-409.45"/>
<polygon fill="midnightblue" stroke="midnightblue" points="427.31,-405.92 416.89,-407.83 426.23,-412.84 427.31,-405.92"/>
</g>
<!-- Node23 -->
<g id="node23" class="node">
<title>Node23</title>
<g id="a_node23"><a xlink:title=" ">
<polygon fill="none" stroke="#bfbfbf" points="954.5,-392.5 954.5,-411.5 1007.5,-411.5 1007.5,-392.5 954.5,-392.5"/>
<text text-anchor="middle" x="981" y="-399.5" font-family="Helvetica,sans-Serif" font-size="10.00">board.h</text>
</a>
</g>
</g>
<!-- Node3&#45;&gt;Node23 -->
<g id="edge43" class="edge">
<title>Node3&#45;&gt;Node23</title>
<path fill="none" stroke="midnightblue" d="M760.15,-451.23C799.56,-443.36 872.23,-428.56 944.15,-412.13"/>
<polygon fill="midnightblue" stroke="midnightblue" points="945.33,-415.45 954.29,-409.8 943.76,-408.62 945.33,-415.45"/>
</g>
<!-- Node24 -->
<g id="node24" class="node">
<title>Node24</title>
<g id="a_node24"><a xlink:title=" ">
<polygon fill="none" stroke="#bfbfbf" points="1004,-280.5 1004,-299.5 1086,-299.5 1086,-280.5 1004,-280.5"/>
<text text-anchor="middle" x="1045" y="-287.5" font-family="Helvetica,sans-Serif" font-size="10.00">periph_conf.h</text>
</a>
</g>
</g>
<!-- Node3&#45;&gt;Node24 -->
<g id="edge44" class="edge">
<title>Node3&#45;&gt;Node24</title>
<path fill="none" stroke="midnightblue" d="M760.18,-456.38C825.19,-454.38 979.12,-446.09 1016,-412 1044.47,-385.69 1047.27,-336.81 1046.41,-309.93"/>
<polygon fill="midnightblue" stroke="midnightblue" points="1049.88,-309.39 1045.85,-299.59 1042.89,-309.76 1049.88,-309.39"/>
</g>
<!-- Node25 -->
<g id="node25" class="node">
<title>Node25</title>
<g id="a_node25"><a xlink:href="tick__conversion_8h.html" target="_top" xlink:title="xtimer tick &lt;&#45;&gt; seconds conversions for different values of XTIMER_HZ">
<polygon fill="none" stroke="black" points="489.5,-392.5 489.5,-411.5 626.5,-411.5 626.5,-392.5 489.5,-392.5"/>
<text text-anchor="middle" x="558" y="-399.5" font-family="Helvetica,sans-Serif" font-size="10.00">xtimer/tick_conversion.h</text>
</a>
</g>
</g>
<!-- Node3&#45;&gt;Node25 -->
<g id="edge45" class="edge">
<title>Node3&#45;&gt;Node25</title>
<path fill="none" stroke="midnightblue" d="M703.59,-448.44C674.23,-439.28 627.48,-424.69 594.9,-414.52"/>
<polygon fill="midnightblue" stroke="midnightblue" points="595.87,-411.16 585.28,-411.52 593.79,-417.84 595.87,-411.16"/>
</g>
<!-- Node27 -->
<g id="node27" class="node">
<title>Node27</title>
<g id="a_node27"><a xlink:href="implementation_8h.html" target="_top" xlink:title="xtimer implementation">
<polygon fill="none" stroke="black" points="797.5,-392.5 797.5,-411.5 936.5,-411.5 936.5,-392.5 797.5,-392.5"/>
<text text-anchor="middle" x="867" y="-399.5" font-family="Helvetica,sans-Serif" font-size="10.00">xtimer/implementation.h</text>
</a>
</g>
</g>
<!-- Node3&#45;&gt;Node27 -->
<g id="edge49" class="edge">
<title>Node3&#45;&gt;Node27</title>
<path fill="none" stroke="midnightblue" d="M752.55,-448.44C775.03,-439.52 810.49,-425.44 835.98,-415.32"/>
<polygon fill="midnightblue" stroke="midnightblue" points="837.55,-418.46 845.55,-411.52 834.97,-411.95 837.55,-418.46"/>
</g>
<!-- Node5&#45;&gt;Node2 -->
<g id="edge6" class="edge">
<title>Node5&#45;&gt;Node2</title>
<path fill="none" stroke="midnightblue" d="M702.04,-168.08C693.35,-141.83 667.74,-64.55 656,-29.12"/>
<polygon fill="midnightblue" stroke="midnightblue" points="659.31,-27.96 652.84,-19.57 652.66,-30.16 659.31,-27.96"/>
</g>
<!-- Node6 -->
<g id="node6" class="node">
<title>Node6</title>
<g id="a_node6"><a xlink:href="inttypes_8h.html" target="_top" xlink:title="Adds include for missing inttype definitions.">
<polygon fill="none" stroke="black" points="460.5,-112.5 460.5,-131.5 525.5,-131.5 525.5,-112.5 460.5,-112.5"/>
<text text-anchor="middle" x="493" y="-119.5" font-family="Helvetica,sans-Serif" font-size="10.00">inttypes.h</text>
</a>
</g>
</g>
<!-- Node5&#45;&gt;Node6 -->
<g id="edge7" class="edge">
<title>Node5&#45;&gt;Node6</title>
<path fill="none" stroke="midnightblue" d="M677.72,-170.05C641.69,-160.87 577.86,-144.62 535.49,-133.82"/>
<polygon fill="midnightblue" stroke="midnightblue" points="536.29,-130.42 525.74,-131.34 534.56,-137.2 536.29,-130.42"/>
</g>
<!-- Node7&#45;&gt;Node2 -->
<g id="edge10" class="edge">
<title>Node7&#45;&gt;Node2</title>
<path fill="none" stroke="midnightblue" d="M236.89,-341.11C290.1,-332.57 404.56,-307.6 475,-244 503.03,-218.69 491.97,-199.37 513,-168 550.77,-111.66 606.7,-53.63 633.93,-26.61"/>
<polygon fill="midnightblue" stroke="midnightblue" points="636.44,-29.05 641.11,-19.54 631.53,-24.06 636.44,-29.05"/>
</g>
<!-- Node8 -->
<g id="node8" class="node">
<title>Node8</title>
<g id="a_node8"><a xlink:title=" ">
<polygon fill="none" stroke="#bfbfbf" points="92,-0.5 92,-19.5 148,-19.5 148,-0.5 92,-0.5"/>
<text text-anchor="middle" x="120" y="-7.5" font-family="Helvetica,sans-Serif" font-size="10.00">stddef.h</text>
</a>
</g>
</g>
<!-- Node7&#45;&gt;Node8 -->
<g id="edge9" class="edge">
<title>Node7&#45;&gt;Node8</title>
<path fill="none" stroke="midnightblue" d="M179.08,-342.9C121.93,-337.01 0,-315.07 0,-235 0,-235 0,-235 0,-121 0,-90.77 -0,-78.66 20,-56 36.1,-37.76 61.04,-26.52 81.98,-19.84"/>
<polygon fill="midnightblue" stroke="midnightblue" points="82.99,-23.19 91.58,-16.99 81,-16.48 82.99,-23.19"/>
</g>
<!-- Node9 -->
<g id="node9" class="node">
<title>Node9</title>
<g id="a_node9"><a xlink:href="irq_8h.html" target="_top" xlink:title="IRQ driver interface.">
<polygon fill="none" stroke="black" points="513,-280.5 513,-299.5 551,-299.5 551,-280.5 513,-280.5"/>
<text text-anchor="middle" x="532" y="-287.5" font-family="Helvetica,sans-Serif" font-size="10.00">irq.h</text>
</a>
</g>
</g>
<!-- Node7&#45;&gt;Node9 -->
<g id="edge11" class="edge">
<title>Node7&#45;&gt;Node9</title>
<path fill="none" stroke="midnightblue" d="M236.7,-341.65C289.12,-335.3 403.75,-320.29 499,-300 500.27,-299.73 501.57,-299.44 502.88,-299.13"/>
<polygon fill="midnightblue" stroke="midnightblue" points="504.06,-302.45 512.9,-296.6 502.34,-295.66 504.06,-302.45"/>
</g>
<!-- Node11 -->
<g id="node11" class="node">
<title>Node11</title>
<g id="a_node11"><a xlink:href="kernel__defines_8h.html" target="_top" xlink:title="Common macros and compiler attributes/pragmas configuration.">
<polygon fill="none" stroke="black" points="275.5,-56.5 275.5,-75.5 372.5,-75.5 372.5,-56.5 275.5,-56.5"/>
<text text-anchor="middle" x="324" y="-63.5" font-family="Helvetica,sans-Serif" font-size="10.00">kernel_defines.h</text>
</a>
</g>
</g>
<!-- Node7&#45;&gt;Node11 -->
<g id="edge14" class="edge">
<title>Node7&#45;&gt;Node11</title>
<path fill="none" stroke="midnightblue" d="M197.29,-336.3C188.06,-328.07 175.41,-314.79 170,-300 149.61,-244.26 60.95,-275.23 197,-112 213.92,-91.71 240.62,-80.56 265.19,-74.44"/>
<polygon fill="midnightblue" stroke="midnightblue" points="266.21,-77.8 275.19,-72.19 264.67,-70.97 266.21,-77.8"/>
</g>
<!-- Node12 -->
<g id="node12" class="node">
<title>Node12</title>
<g id="a_node12"><a xlink:href="list_8h.html" target="_top" xlink:title="Intrusive linked list.">
<polygon fill="none" stroke="black" points="29.5,-56.5 29.5,-75.5 70.5,-75.5 70.5,-56.5 29.5,-56.5"/>
<text text-anchor="middle" x="50" y="-63.5" font-family="Helvetica,sans-Serif" font-size="10.00">list.h</text>
</a>
</g>
</g>
<!-- Node7&#45;&gt;Node12 -->
<g id="edge17" class="edge">
<title>Node7&#45;&gt;Node12</title>
<path fill="none" stroke="midnightblue" d="M195.33,-336.43C183.63,-328.09 166.26,-314.56 154,-300 98.47,-234.05 83.75,-213.96 57,-132 52.1,-116.98 50.46,-99.07 49.98,-85.86"/>
<polygon fill="midnightblue" stroke="midnightblue" points="53.48,-85.59 49.81,-75.65 46.48,-85.71 53.48,-85.59"/>
</g>
<!-- Node13 -->
<g id="node13" class="node">
<title>Node13</title>
<g id="a_node13"><a xlink:href="core_2include_2thread_8h.html" target="_top" xlink:title="Threading API.">
<polygon fill="none" stroke="black" points="179.5,-280.5 179.5,-299.5 236.5,-299.5 236.5,-280.5 179.5,-280.5"/>
<text text-anchor="middle" x="208" y="-287.5" font-family="Helvetica,sans-Serif" font-size="10.00">thread.h</text>
</a>
</g>
</g>
<!-- Node7&#45;&gt;Node13 -->
<g id="edge18" class="edge">
<title>Node7&#45;&gt;Node13</title>
<path fill="none" stroke="midnightblue" d="M208,-336.08C208,-329.01 208,-318.86 208,-309.99"/>
<polygon fill="midnightblue" stroke="midnightblue" points="211.5,-309.75 208,-299.75 204.5,-309.75 211.5,-309.75"/>
</g>
<!-- Node9&#45;&gt;Node4 -->
<g id="edge12" class="edge">
<title>Node9&#45;&gt;Node4</title>
<path fill="none" stroke="midnightblue" d="M533.65,-280.37C537.04,-262.62 544.86,-221.67 549.45,-197.6"/>
<polygon fill="midnightblue" stroke="midnightblue" points="552.92,-198.07 551.36,-187.59 546.05,-196.76 552.92,-198.07"/>
</g>
<!-- Node10 -->
<g id="node10" class="node">
<title>Node10</title>
<g id="a_node10"><a xlink:title=" ">
<polygon fill="none" stroke="#bfbfbf" points="398,-224.5 398,-243.5 466,-243.5 466,-224.5 398,-224.5"/>
<text text-anchor="middle" x="432" y="-231.5" font-family="Helvetica,sans-Serif" font-size="10.00">cpu_conf.h</text>
</a>
</g>
</g>
<!-- Node9&#45;&gt;Node10 -->
<g id="edge13" class="edge">
<title>Node9&#45;&gt;Node10</title>
<path fill="none" stroke="midnightblue" d="M515.93,-280.32C500.04,-271.74 475.49,-258.49 457.04,-248.52"/>
<polygon fill="midnightblue" stroke="midnightblue" points="458.49,-245.33 448.03,-243.65 455.16,-251.49 458.49,-245.33"/>
</g>
<!-- Node11&#45;&gt;Node2 -->
<g id="edge16" class="edge">
<title>Node11&#45;&gt;Node2</title>
<path fill="none" stroke="midnightblue" d="M372.81,-56.92C438.66,-46.01 554.48,-26.82 613.38,-17.07"/>
<polygon fill="midnightblue" stroke="midnightblue" points="614.06,-20.5 623.35,-15.41 612.91,-13.6 614.06,-20.5"/>
</g>
<!-- Node11&#45;&gt;Node8 -->
<g id="edge15" class="edge">
<title>Node11&#45;&gt;Node8</title>
<path fill="none" stroke="midnightblue" d="M291.68,-56.44C255.37,-46.83 196.52,-31.25 158.03,-21.07"/>
<polygon fill="midnightblue" stroke="midnightblue" points="158.79,-17.65 148.23,-18.47 157,-24.42 158.79,-17.65"/>
</g>
<!-- Node13&#45;&gt;Node10 -->
<g id="edge35" class="edge">
<title>Node13&#45;&gt;Node10</title>
<path fill="none" stroke="midnightblue" d="M236.83,-282.05C275.17,-272.81 343.29,-256.38 388.06,-245.59"/>
<polygon fill="midnightblue" stroke="midnightblue" points="388.89,-248.99 397.79,-243.25 387.25,-242.19 388.89,-248.99"/>
</g>
<!-- Node14 -->
<g id="node14" class="node">
<title>Node14</title>
<g id="a_node14"><a xlink:href="clist_8h.html" target="_top" xlink:title="Circular linked list.">
<polygon fill="none" stroke="black" points="66,-112.5 66,-131.5 112,-131.5 112,-112.5 66,-112.5"/>
<text text-anchor="middle" x="89" y="-119.5" font-family="Helvetica,sans-Serif" font-size="10.00">clist.h</text>
</a>
</g>
</g>
<!-- Node13&#45;&gt;Node14 -->
<g id="edge19" class="edge">
<title>Node13&#45;&gt;Node14</title>
<path fill="none" stroke="midnightblue" d="M201.6,-280.08C182.55,-253.49 125.95,-174.54 101.02,-139.76"/>
<polygon fill="midnightblue" stroke="midnightblue" points="103.81,-137.66 95.14,-131.57 98.12,-141.73 103.81,-137.66"/>
</g>
<!-- Node15 -->
<g id="node15" class="node">
<title>Node15</title>
<g id="a_node15"><a xlink:href="cib_8h.html" target="_top" xlink:title="Circular integer buffer interface.">
<polygon fill="none" stroke="black" points="274,-224.5 274,-243.5 314,-243.5 314,-224.5 274,-224.5"/>
<text text-anchor="middle" x="294" y="-231.5" font-family="Helvetica,sans-Serif" font-size="10.00">cib.h</text>
</a>
</g>
</g>
<!-- Node13&#45;&gt;Node15 -->
<g id="edge22" class="edge">
<title>Node13&#45;&gt;Node15</title>
<path fill="none" stroke="midnightblue" d="M221.82,-280.32C235.23,-271.9 255.82,-258.97 271.59,-249.07"/>
<polygon fill="midnightblue" stroke="midnightblue" points="273.61,-251.94 280.22,-243.65 269.89,-246.01 273.61,-251.94"/>
</g>
<!-- Node18 -->
<g id="node18" class="node">
<title>Node18</title>
<g id="a_node18"><a xlink:href="msg_8h.html" target="_top" xlink:title="Messaging API for inter process communication.">
<polygon fill="none" stroke="black" points="332.5,-224.5 332.5,-243.5 379.5,-243.5 379.5,-224.5 332.5,-224.5"/>
<text text-anchor="middle" x="356" y="-231.5" font-family="Helvetica,sans-Serif" font-size="10.00">msg.h</text>
</a>
</g>
</g>
<!-- Node13&#45;&gt;Node18 -->
<g id="edge26" class="edge">
<title>Node13&#45;&gt;Node18</title>
<path fill="none" stroke="midnightblue" d="M231.45,-280.44C256.13,-271.44 295.19,-257.19 322.98,-247.05"/>
<polygon fill="midnightblue" stroke="midnightblue" points="324.46,-250.23 332.66,-243.52 322.07,-243.66 324.46,-250.23"/>
</g>
<!-- Node13&#45;&gt;Node19 -->
<g id="edge36" class="edge">
<title>Node13&#45;&gt;Node19</title>
<path fill="none" stroke="midnightblue" d="M210.98,-280.37C217.14,-262.54 231.39,-221.3 239.69,-197.27"/>
<polygon fill="midnightblue" stroke="midnightblue" points="243.08,-198.19 243.03,-187.59 236.46,-195.9 243.08,-198.19"/>
</g>
<!-- Node14&#45;&gt;Node8 -->
<g id="edge20" class="edge">
<title>Node14&#45;&gt;Node8</title>
<path fill="none" stroke="midnightblue" d="M91.43,-112.37C96.46,-94.54 108.08,-53.3 114.85,-29.27"/>
<polygon fill="midnightblue" stroke="midnightblue" points="118.24,-30.17 117.58,-19.59 111.5,-28.27 118.24,-30.17"/>
</g>
<!-- Node14&#45;&gt;Node12 -->
<g id="edge21" class="edge">
<title>Node14&#45;&gt;Node12</title>
<path fill="none" stroke="midnightblue" d="M82.56,-112.08C77.05,-104.46 68.97,-93.26 62.24,-83.94"/>
<polygon fill="midnightblue" stroke="midnightblue" points="65.01,-81.81 56.32,-75.75 59.34,-85.91 65.01,-81.81"/>
</g>
<!-- Node16 -->
<g id="node16" class="node">
<title>Node16</title>
<g id="a_node16"><a xlink:href="assert_8h.html" target="_top" xlink:title="POSIX.1&#45;2008 compliant version of the assert macro.">
<polygon fill="none" stroke="black" points="348,-168.5 348,-187.5 404,-187.5 404,-168.5 348,-168.5"/>
<text text-anchor="middle" x="376" y="-175.5" font-family="Helvetica,sans-Serif" font-size="10.00">assert.h</text>
</a>
</g>
</g>
<!-- Node15&#45;&gt;Node16 -->
<g id="edge23" class="edge">
<title>Node15&#45;&gt;Node16</title>
<path fill="none" stroke="midnightblue" d="M307.18,-224.32C319.85,-215.98 339.23,-203.21 354.21,-193.35"/>
<polygon fill="midnightblue" stroke="midnightblue" points="356.43,-196.08 362.86,-187.65 352.58,-190.23 356.43,-196.08"/>
</g>
<!-- Node17 -->
<g id="node17" class="node">
<title>Node17</title>
<g id="a_node17"><a xlink:href="panic_8h.html" target="_top" xlink:title="Crash handling header.">
<polygon fill="none" stroke="black" points="352,-112.5 352,-131.5 404,-131.5 404,-112.5 352,-112.5"/>
<text text-anchor="middle" x="378" y="-119.5" font-family="Helvetica,sans-Serif" font-size="10.00">panic.h</text>
</a>
</g>
</g>
<!-- Node16&#45;&gt;Node17 -->
<g id="edge24" class="edge">
<title>Node16&#45;&gt;Node17</title>
<path fill="none" stroke="midnightblue" d="M376.33,-168.08C376.59,-161.01 376.97,-150.86 377.3,-141.99"/>
<polygon fill="midnightblue" stroke="midnightblue" points="380.8,-141.87 377.68,-131.75 373.81,-141.61 380.8,-141.87"/>
</g>
<!-- Node17&#45;&gt;Node11 -->
<g id="edge25" class="edge">
<title>Node17&#45;&gt;Node11</title>
<path fill="none" stroke="midnightblue" d="M369.08,-112.08C361.22,-104.22 349.57,-92.57 340.08,-83.08"/>
<polygon fill="midnightblue" stroke="midnightblue" points="342.3,-80.35 332.75,-75.75 337.35,-85.3 342.3,-80.35"/>
</g>
<!-- Node18&#45;&gt;Node2 -->
<g id="edge27" class="edge">
<title>Node18&#45;&gt;Node2</title>
<path fill="none" stroke="midnightblue" d="M370.1,-224.43C382.61,-216.29 400.75,-203.06 413,-188 436.84,-158.71 425.64,-139.98 451,-112 482.39,-77.38 498.44,-77.37 540,-56 564.67,-43.32 593.75,-31.55 615.82,-23.23"/>
<polygon fill="midnightblue" stroke="midnightblue" points="617.27,-26.42 625.43,-19.66 614.83,-19.86 617.27,-26.42"/>
</g>
<!-- Node18&#45;&gt;Node4 -->
<g id="edge28" class="edge">
<title>Node18&#45;&gt;Node4</title>
<path fill="none" stroke="midnightblue" d="M379.76,-226.49C412.5,-217.51 471.95,-201.22 511.96,-190.25"/>
<polygon fill="midnightblue" stroke="midnightblue" points="512.97,-193.6 521.69,-187.58 511.12,-186.85 512.97,-193.6"/>
</g>
<!-- Node18&#45;&gt;Node19 -->
<g id="edge29" class="edge">
<title>Node18&#45;&gt;Node19</title>
<path fill="none" stroke="midnightblue" d="M338.33,-224.32C320.61,-215.62 293.1,-202.12 272.71,-192.11"/>
<polygon fill="midnightblue" stroke="midnightblue" points="274.15,-188.92 263.63,-187.65 271.06,-195.2 274.15,-188.92"/>
</g>
<!-- Node19&#45;&gt;Node6 -->
<g id="edge31" class="edge">
<title>Node19&#45;&gt;Node6</title>
<path fill="none" stroke="midnightblue" d="M273.38,-171.01C316.27,-161.64 399.64,-143.41 450.42,-132.31"/>
<polygon fill="midnightblue" stroke="midnightblue" points="451.4,-135.68 460.42,-130.12 449.91,-128.84 451.4,-135.68"/>
</g>
<!-- Node19&#45;&gt;Node8 -->
<g id="edge30" class="edge">
<title>Node19&#45;&gt;Node8</title>
<path fill="none" stroke="midnightblue" d="M235.11,-168.42C224.64,-159.85 208.72,-145.99 197,-132 168.61,-98.11 142.57,-53.03 129.27,-28.58"/>
<polygon fill="midnightblue" stroke="midnightblue" points="132.33,-26.89 124.52,-19.73 126.16,-30.2 132.33,-26.89"/>
</g>
<!-- Node19&#45;&gt;Node11 -->
<g id="edge32" class="edge">
<title>Node19&#45;&gt;Node11</title>
<path fill="none" stroke="midnightblue" d="M262.34,-168.44C275.69,-160.64 294.06,-147.93 305,-132 314.46,-118.22 319.28,-99.7 321.69,-85.95"/>
<polygon fill="midnightblue" stroke="midnightblue" points="325.2,-86.14 323.19,-75.73 318.27,-85.11 325.2,-86.14"/>
</g>
<!-- Node19&#45;&gt;Node14 -->
<g id="edge34" class="edge">
<title>Node19&#45;&gt;Node14</title>
<path fill="none" stroke="midnightblue" d="M221.12,-168.44C194.25,-159.2 151.3,-144.43 121.71,-134.25"/>
<polygon fill="midnightblue" stroke="midnightblue" points="122.82,-130.93 112.23,-130.99 120.54,-137.55 122.82,-130.93"/>
</g>
<!-- Node20 -->
<g id="node20" class="node">
<title>Node20</title>
<g id="a_node20"><a xlink:href="native__sched_8h.html" target="_top" xlink:title="Add definitions required on the native board.">
<polygon fill="none" stroke="black" points="206,-112.5 206,-131.5 296,-131.5 296,-112.5 206,-112.5"/>
<text text-anchor="middle" x="251" y="-119.5" font-family="Helvetica,sans-Serif" font-size="10.00">native_sched.h</text>
</a>
</g>
</g>
<!-- Node19&#45;&gt;Node20 -->
<g id="edge33" class="edge">
<title>Node19&#45;&gt;Node20</title>
<path fill="none" stroke="midnightblue" d="M246.83,-168.08C247.48,-161.01 248.42,-150.86 249.24,-141.99"/>
<polygon fill="midnightblue" stroke="midnightblue" points="252.75,-142.03 250.19,-131.75 245.78,-141.39 252.75,-142.03"/>
</g>
<!-- Node21&#45;&gt;Node2 -->
<g id="edge39" class="edge">
<title>Node21&#45;&gt;Node2</title>
<path fill="none" stroke="midnightblue" d="M411.91,-392.4C461.67,-374.27 569.23,-326.8 609,-244 644.36,-170.38 649.53,-70.56 650.07,-29.65"/>
<polygon fill="midnightblue" stroke="midnightblue" points="653.57,-29.56 650.12,-19.54 646.57,-29.52 653.57,-29.56"/>
</g>
<!-- Node21&#45;&gt;Node7 -->
<g id="edge41" class="edge">
<title>Node21&#45;&gt;Node7</title>
<path fill="none" stroke="midnightblue" d="M357.8,-392.44C327.59,-383.28 279.49,-368.69 245.97,-358.52"/>
<polygon fill="midnightblue" stroke="midnightblue" points="246.66,-355.07 236.07,-355.52 244.63,-361.77 246.66,-355.07"/>
</g>
<!-- Node21&#45;&gt;Node19 -->
<g id="edge42" class="edge">
<title>Node21&#45;&gt;Node19</title>
<path fill="none" stroke="midnightblue" d="M375.9,-392.23C366.16,-383.54 351.28,-369.58 340,-356 301.72,-309.92 290.37,-298.27 265,-244 258,-229.02 252.96,-210.89 249.83,-197.58"/>
<polygon fill="midnightblue" stroke="midnightblue" points="253.23,-196.73 247.66,-187.72 246.39,-198.23 253.23,-196.73"/>
</g>
<!-- Node22 -->
<g id="node22" class="node">
<title>Node22</title>
<g id="a_node22"><a xlink:title=" ">
<polygon fill="none" stroke="#bfbfbf" points="349,-336.5 349,-355.5 423,-355.5 423,-336.5 349,-336.5"/>
<text text-anchor="middle" x="386" y="-343.5" font-family="Helvetica,sans-Serif" font-size="10.00">stdatomic.h</text>
</a>
</g>
</g>
<!-- Node21&#45;&gt;Node22 -->
<g id="edge40" class="edge">
<title>Node21&#45;&gt;Node22</title>
<path fill="none" stroke="midnightblue" d="M386,-392.08C386,-385.01 386,-374.86 386,-365.99"/>
<polygon fill="midnightblue" stroke="midnightblue" points="389.5,-365.75 386,-355.75 382.5,-365.75 389.5,-365.75"/>
</g>
<!-- Node26 -->
<g id="node26" class="node">
<title>Node26</title>
<g id="a_node26"><a xlink:href="div_8h.html" target="_top" xlink:title=" ">
<polygon fill="none" stroke="black" points="560,-224.5 560,-243.5 600,-243.5 600,-224.5 560,-224.5"/>
<text text-anchor="middle" x="580" y="-231.5" font-family="Helvetica,sans-Serif" font-size="10.00">div.h</text>
</a>
</g>
</g>
<!-- Node25&#45;&gt;Node26 -->
<g id="edge46" class="edge">
<title>Node25&#45;&gt;Node26</title>
<path fill="none" stroke="midnightblue" d="M559.18,-392.08C562.65,-365.95 572.82,-289.21 577.54,-253.58"/>
<polygon fill="midnightblue" stroke="midnightblue" points="581.02,-253.94 578.87,-243.57 574.08,-253.02 581.02,-253.94"/>
</g>
<!-- Node26&#45;&gt;Node2 -->
<g id="edge48" class="edge">
<title>Node26&#45;&gt;Node2</title>
<path fill="none" stroke="midnightblue" d="M582.74,-224.3C593.07,-191.56 629.7,-75.38 644.12,-29.67"/>
<polygon fill="midnightblue" stroke="midnightblue" points="647.53,-30.47 647.2,-19.88 640.85,-28.37 647.53,-30.47"/>
</g>
<!-- Node26&#45;&gt;Node16 -->
<g id="edge47" class="edge">
<title>Node26&#45;&gt;Node16</title>
<path fill="none" stroke="midnightblue" d="M559.69,-227.62C525.83,-218.66 457.28,-200.52 414.17,-189.1"/>
<polygon fill="midnightblue" stroke="midnightblue" points="414.89,-185.67 404.32,-186.5 413.09,-192.44 414.89,-185.67"/>
</g>
<!-- Node27&#45;&gt;Node9 -->
<g id="edge55" class="edge">
<title>Node27&#45;&gt;Node9</title>
<path fill="none" stroke="midnightblue" d="M840.99,-392.46C779.41,-372.24 625.06,-321.56 560.79,-300.45"/>
<polygon fill="midnightblue" stroke="midnightblue" points="561.87,-297.12 551.27,-297.33 559.68,-303.77 561.87,-297.12"/>
</g>
<!-- Node28 -->
<g id="node28" class="node">
<title>Node28</title>
<g id="a_node28"><a xlink:href="drivers_2include_2periph_2timer_8h.html" target="_top" xlink:title="Low&#45;level timer peripheral driver interface definitions.">
<polygon fill="none" stroke="black" points="878,-336.5 878,-355.5 964,-355.5 964,-336.5 878,-336.5"/>
<text text-anchor="middle" x="921" y="-343.5" font-family="Helvetica,sans-Serif" font-size="10.00">periph/timer.h</text>
</a>
</g>
</g>
<!-- Node27&#45;&gt;Node28 -->
<g id="edge50" class="edge">
<title>Node27&#45;&gt;Node28</title>
<path fill="none" stroke="midnightblue" d="M875.92,-392.08C883.78,-384.22 895.43,-372.57 904.92,-363.08"/>
<polygon fill="midnightblue" stroke="midnightblue" points="907.65,-365.3 912.25,-355.75 902.7,-360.35 907.65,-365.3"/>
</g>
<!-- Node28&#45;&gt;Node2 -->
<g id="edge52" class="edge">
<title>Node28&#45;&gt;Node2</title>
<path fill="none" stroke="midnightblue" d="M929.29,-336.36C937.14,-327.76 948.78,-313.87 956,-300 969.95,-273.19 976,-265.23 976,-235 976,-235 976,-235 976,-121 976,-60.51 771.92,-26.88 686.7,-15.47"/>
<polygon fill="midnightblue" stroke="midnightblue" points="687.05,-11.99 676.68,-14.16 686.14,-18.93 687.05,-11.99"/>
</g>
<!-- Node28&#45;&gt;Node24 -->
<g id="edge54" class="edge">
<title>Node28&#45;&gt;Node24</title>
<path fill="none" stroke="midnightblue" d="M940.65,-336.44C960.97,-327.6 992.9,-313.69 1016.1,-303.59"/>
<polygon fill="midnightblue" stroke="midnightblue" points="1017.67,-306.72 1025.44,-299.52 1014.88,-300.3 1017.67,-306.72"/>
</g>
<!-- Node29 -->
<g id="node29" class="node">
<title>Node29</title>
<g id="a_node29"><a xlink:title=" ">
<polygon fill="none" stroke="#bfbfbf" points="894.5,-280.5 894.5,-299.5 947.5,-299.5 947.5,-280.5 894.5,-280.5"/>
<text text-anchor="middle" x="921" y="-287.5" font-family="Helvetica,sans-Serif" font-size="10.00">limits.h</text>
</a>
</g>
</g>
<!-- Node28&#45;&gt;Node29 -->
<g id="edge51" class="edge">
<title>Node28&#45;&gt;Node29</title>
<path fill="none" stroke="midnightblue" d="M921,-336.08C921,-329.01 921,-318.86 921,-309.99"/>
<polygon fill="midnightblue" stroke="midnightblue" points="924.5,-309.75 921,-299.75 917.5,-309.75 924.5,-309.75"/>
</g>
<!-- Node30 -->
<g id="node30" class="node">
<title>Node30</title>
<g id="a_node30"><a xlink:title=" ">
<polygon fill="none" stroke="#bfbfbf" points="797.5,-280.5 797.5,-299.5 876.5,-299.5 876.5,-280.5 797.5,-280.5"/>
<text text-anchor="middle" x="837" y="-287.5" font-family="Helvetica,sans-Serif" font-size="10.00">periph_cpu.h</text>
</a>
</g>
</g>
<!-- Node28&#45;&gt;Node30 -->
<g id="edge53" class="edge">
<title>Node28&#45;&gt;Node30</title>
<path fill="none" stroke="midnightblue" d="M907.5,-336.32C894.4,-327.9 874.29,-314.97 858.89,-305.07"/>
<polygon fill="midnightblue" stroke="midnightblue" points="860.77,-302.12 850.46,-299.65 856.98,-308.01 860.77,-302.12"/>
</g>
<!-- Node31&#45;&gt;Node3 -->
<g id="edge57" class="edge">
<title>Node31&#45;&gt;Node3</title>
<path fill="none" stroke="midnightblue" d="M792.27,-504.32C781.16,-496.11 764.26,-483.6 751.02,-473.81"/>
<polygon fill="midnightblue" stroke="midnightblue" points="753.06,-470.97 742.94,-467.83 748.9,-476.59 753.06,-470.97"/>
</g>
</g>
</svg>
