<?xml version="1.0" encoding="UTF-8" standalone="no"?>
<!DOCTYPE svg PUBLIC "-//W3C//DTD SVG 1.1//EN"
 "http://www.w3.org/Graphics/SVG/1.1/DTD/svg11.dtd">
<!-- Generated by graphviz version 2.43.0 (0)
 -->
<!-- Title: pkg/uwb&#45;core/include/dpl/dpl_error.h Pages: 1 -->
<svg width="431pt" height="240pt"
 viewBox="0.00 0.00 431.33 240.00" xmlns="http://www.w3.org/2000/svg" xmlns:xlink="http://www.w3.org/1999/xlink">
<g id="graph0" class="graph" transform="scale(1 1) rotate(0) translate(4 236)">
<title>pkg/uwb&#45;core/include/dpl/dpl_error.h</title>
<!-- Node1 -->
<g id="node1" class="node">
<title>Node1</title>
<g id="a_node1"><a xlink:title="uwb&#45;core DPL (Decawave Porting Layer) error types">
<polygon fill="#bfbfbf" stroke="black" points="84.83,-201.5 84.83,-231.5 205.83,-231.5 205.83,-201.5 84.83,-201.5"/>
<text text-anchor="start" x="92.83" y="-219.5" font-family="Helvetica,sans-Serif" font-size="10.00">pkg/uwb&#45;core/include</text>
<text text-anchor="middle" x="145.33" y="-208.5" font-family="Helvetica,sans-Serif" font-size="10.00">/dpl/dpl_error.h</text>
</a>
</g>
</g>
<!-- Node2 -->
<g id="node2" class="node">
<title>Node2</title>
<g id="a_node2"><a xlink:href="dpl_8h.html" target="_top" xlink:title="Abstraction layer for RIOT adaption.">
<polygon fill="none" stroke="black" points="80.83,-67.5 80.83,-97.5 201.83,-97.5 201.83,-67.5 80.83,-67.5"/>
<text text-anchor="start" x="88.83" y="-85.5" font-family="Helvetica,sans-Serif" font-size="10.00">pkg/uwb&#45;core/include</text>
<text text-anchor="middle" x="141.33" y="-74.5" font-family="Helvetica,sans-Serif" font-size="10.00">/dpl/dpl.h</text>
</a>
</g>
</g>
<!-- Node1&#45;&gt;Node2 -->
<g id="edge1" class="edge">
<title>Node1&#45;&gt;Node2</title>
<path fill="none" stroke="midnightblue" d="M74.79,-206.93C48.88,-199.98 22.07,-187.47 6.33,-165 -17.55,-130.92 34.52,-108.58 80.76,-96.05"/>
<polygon fill="midnightblue" stroke="midnightblue" points="74.1,-210.36 84.64,-209.33 75.76,-203.56 74.1,-210.36"/>
</g>
<!-- Node4 -->
<g id="node4" class="node">
<title>Node4</title>
<g id="a_node4"><a xlink:href="dpl__callout_8h.html" target="_top" xlink:title="uwb&#45;core DPL (Decawave Porting Layer) callout abstraction">
<polygon fill="none" stroke="black" points="15.83,-134.5 15.83,-164.5 136.83,-164.5 136.83,-134.5 15.83,-134.5"/>
<text text-anchor="start" x="23.83" y="-152.5" font-family="Helvetica,sans-Serif" font-size="10.00">pkg/uwb&#45;core/include</text>
<text text-anchor="middle" x="76.33" y="-141.5" font-family="Helvetica,sans-Serif" font-size="10.00">/dpl/dpl_callout.h</text>
</a>
</g>
</g>
<!-- Node1&#45;&gt;Node4 -->
<g id="edge3" class="edge">
<title>Node1&#45;&gt;Node4</title>
<path fill="none" stroke="midnightblue" d="M122.83,-194.31C112.48,-184.56 100.48,-173.26 91.27,-164.58"/>
<polygon fill="midnightblue" stroke="midnightblue" points="120.67,-197.09 130.35,-201.4 125.47,-191.99 120.67,-197.09"/>
</g>
<!-- Node5 -->
<g id="node5" class="node">
<title>Node5</title>
<g id="a_node5"><a xlink:href="dpl__mutex_8h.html" target="_top" xlink:title="uwb&#45;core DPL (Decawave Porting Layer) mutex wrappers">
<polygon fill="none" stroke="black" points="154.83,-134.5 154.83,-164.5 275.83,-164.5 275.83,-134.5 154.83,-134.5"/>
<text text-anchor="start" x="162.83" y="-152.5" font-family="Helvetica,sans-Serif" font-size="10.00">pkg/uwb&#45;core/include</text>
<text text-anchor="middle" x="215.33" y="-141.5" font-family="Helvetica,sans-Serif" font-size="10.00">/dpl/dpl_mutex.h</text>
</a>
</g>
</g>
<!-- Node1&#45;&gt;Node5 -->
<g id="edge5" class="edge">
<title>Node1&#45;&gt;Node5</title>
<path fill="none" stroke="midnightblue" d="M168.14,-194.31C178.64,-184.56 190.82,-173.26 200.17,-164.58"/>
<polygon fill="midnightblue" stroke="midnightblue" points="165.46,-192.03 160.51,-201.4 170.22,-197.16 165.46,-192.03"/>
</g>
<!-- Node6 -->
<g id="node6" class="node">
<title>Node6</title>
<g id="a_node6"><a xlink:href="dpl__sem_8h.html" target="_top" xlink:title="uwb&#45;core DPL (Decawave Porting Layer) semapahore wrappers">
<polygon fill="none" stroke="black" points="293.83,-134.5 293.83,-164.5 414.83,-164.5 414.83,-134.5 293.83,-134.5"/>
<text text-anchor="start" x="301.83" y="-152.5" font-family="Helvetica,sans-Serif" font-size="10.00">pkg/uwb&#45;core/include</text>
<text text-anchor="middle" x="354.33" y="-141.5" font-family="Helvetica,sans-Serif" font-size="10.00">/dpl/dpl_sem.h</text>
</a>
</g>
</g>
<!-- Node1&#45;&gt;Node6 -->
<g id="edge7" class="edge">
<title>Node1&#45;&gt;Node6</title>
<path fill="none" stroke="midnightblue" d="M200.17,-198.44C234.04,-187.91 277,-174.55 308.95,-164.61"/>
<polygon fill="midnightblue" stroke="midnightblue" points="198.93,-195.16 190.42,-201.48 201.01,-201.85 198.93,-195.16"/>
</g>
<!-- Node3 -->
<g id="node3" class="node">
<title>Node3</title>
<g id="a_node3"><a xlink:href="os__dev_8h.html" target="_top" xlink:title="Abstraction layer for RIOT adaption.">
<polygon fill="none" stroke="black" points="80.83,-0.5 80.83,-30.5 201.83,-30.5 201.83,-0.5 80.83,-0.5"/>
<text text-anchor="start" x="88.83" y="-18.5" font-family="Helvetica,sans-Serif" font-size="10.00">pkg/uwb&#45;core/include</text>
<text text-anchor="middle" x="141.33" y="-7.5" font-family="Helvetica,sans-Serif" font-size="10.00">/os/os_dev.h</text>
</a>
</g>
</g>
<!-- Node2&#45;&gt;Node3 -->
<g id="edge2" class="edge">
<title>Node2&#45;&gt;Node3</title>
<path fill="none" stroke="midnightblue" d="M141.33,-57.11C141.33,-48.15 141.33,-38.32 141.33,-30.58"/>
<polygon fill="midnightblue" stroke="midnightblue" points="137.83,-57.4 141.33,-67.4 144.83,-57.4 137.83,-57.4"/>
</g>
<!-- Node4&#45;&gt;Node2 -->
<g id="edge4" class="edge">
<title>Node4&#45;&gt;Node2</title>
<path fill="none" stroke="midnightblue" d="M97.51,-127.31C107.26,-117.56 118.57,-106.26 127.25,-97.58"/>
<polygon fill="midnightblue" stroke="midnightblue" points="95.03,-124.85 90.43,-134.4 99.98,-129.8 95.03,-124.85"/>
</g>
<!-- Node5&#45;&gt;Node2 -->
<g id="edge6" class="edge">
<title>Node5&#45;&gt;Node2</title>
<path fill="none" stroke="midnightblue" d="M191.53,-127.6C180.36,-117.78 167.33,-106.34 157.35,-97.58"/>
<polygon fill="midnightblue" stroke="midnightblue" points="189.45,-130.43 199.27,-134.4 194.06,-125.17 189.45,-130.43"/>
</g>
<!-- Node6&#45;&gt;Node2 -->
<g id="edge8" class="edge">
<title>Node6&#45;&gt;Node2</title>
<path fill="none" stroke="midnightblue" d="M298.43,-131.44C263.91,-120.91 220.13,-107.55 187.57,-97.61"/>
<polygon fill="midnightblue" stroke="midnightblue" points="297.78,-134.9 308.37,-134.48 299.83,-128.21 297.78,-134.9"/>
</g>
<!-- Node7 -->
<g id="node7" class="node">
<title>Node7</title>
<g id="a_node7"><a xlink:href="uwb__dw1000__params_8h.html" target="_top" xlink:title="Default configuration.">
<polygon fill="none" stroke="black" points="285.33,-67.5 285.33,-97.5 423.33,-97.5 423.33,-67.5 285.33,-67.5"/>
<text text-anchor="start" x="293.33" y="-85.5" font-family="Helvetica,sans-Serif" font-size="10.00">pkg/uwb&#45;dw1000/include</text>
<text text-anchor="middle" x="354.33" y="-74.5" font-family="Helvetica,sans-Serif" font-size="10.00">/uwb_dw1000_params.h</text>
</a>
</g>
</g>
<!-- Node6&#45;&gt;Node7 -->
<g id="edge9" class="edge">
<title>Node6&#45;&gt;Node7</title>
<path fill="none" stroke="midnightblue" d="M354.33,-124.11C354.33,-115.15 354.33,-105.32 354.33,-97.58"/>
<polygon fill="midnightblue" stroke="midnightblue" points="350.83,-124.4 354.33,-134.4 357.83,-124.4 350.83,-124.4"/>
</g>
</g>
</svg>
