<?xml version="1.0" encoding="UTF-8" standalone="no"?>
<!DOCTYPE svg PUBLIC "-//W3C//DTD SVG 1.1//EN"
 "http://www.w3.org/Graphics/SVG/1.1/DTD/svg11.dtd">
<!-- Generated by graphviz version 2.43.0 (0)
 -->
<!-- Title: drivers/include/net/netdev/lora.h Pages: 1 -->
<svg width="326pt" height="319pt"
 viewBox="0.00 0.00 326.00 319.00" xmlns="http://www.w3.org/2000/svg" xmlns:xlink="http://www.w3.org/1999/xlink">
<g id="graph0" class="graph" transform="scale(1 1) rotate(0) translate(4 315)">
<title>drivers/include/net/netdev/lora.h</title>
<!-- Node1 -->
<g id="node1" class="node">
<title>Node1</title>
<g id="a_node1"><a xlink:title="Definitions for netdev common LoRa code.">
<polygon fill="#bfbfbf" stroke="black" points="193.5,-280.5 193.5,-310.5 300.5,-310.5 300.5,-280.5 193.5,-280.5"/>
<text text-anchor="start" x="201.5" y="-298.5" font-family="Helvetica,sans-Serif" font-size="10.00">drivers/include/net</text>
<text text-anchor="middle" x="247" y="-287.5" font-family="Helvetica,sans-Serif" font-size="10.00">/netdev/lora.h</text>
</a>
</g>
</g>
<!-- Node2 -->
<g id="node2" class="node">
<title>Node2</title>
<g id="a_node2"><a xlink:title=" ">
<polygon fill="none" stroke="#bfbfbf" points="176.5,-0.5 176.5,-19.5 229.5,-19.5 229.5,-0.5 176.5,-0.5"/>
<text text-anchor="middle" x="203" y="-7.5" font-family="Helvetica,sans-Serif" font-size="10.00">stdint.h</text>
</a>
</g>
</g>
<!-- Node1&#45;&gt;Node2 -->
<g id="edge1" class="edge">
<title>Node1&#45;&gt;Node2</title>
<path fill="none" stroke="midnightblue" d="M263.11,-280.19C284.06,-259.93 318,-220.66 318,-179 318,-179 318,-179 318,-121 318,-73.9 267.01,-40.75 232.93,-23.86"/>
<polygon fill="midnightblue" stroke="midnightblue" points="234.36,-20.66 223.83,-19.53 231.35,-26.98 234.36,-20.66"/>
</g>
<!-- Node3 -->
<g id="node3" class="node">
<title>Node3</title>
<g id="a_node3"><a xlink:href="drivers_2include_2net_2netdev_8h.html" target="_top" xlink:title="Definitions low&#45;level network driver interface.">
<polygon fill="none" stroke="black" points="170.5,-224.5 170.5,-243.5 247.5,-243.5 247.5,-224.5 170.5,-224.5"/>
<text text-anchor="middle" x="209" y="-231.5" font-family="Helvetica,sans-Serif" font-size="10.00">net/netdev.h</text>
</a>
</g>
</g>
<!-- Node1&#45;&gt;Node3 -->
<g id="edge2" class="edge">
<title>Node1&#45;&gt;Node3</title>
<path fill="none" stroke="midnightblue" d="M237.99,-280.4C232.59,-271.93 225.67,-261.1 219.95,-252.14"/>
<polygon fill="midnightblue" stroke="midnightblue" points="222.86,-250.2 214.53,-243.66 216.96,-253.97 222.86,-250.2"/>
</g>
<!-- Node3&#45;&gt;Node2 -->
<g id="edge3" class="edge">
<title>Node3&#45;&gt;Node2</title>
<path fill="none" stroke="midnightblue" d="M215.9,-224.14C235.7,-197.59 289.43,-116.72 260,-56 253.6,-42.8 241.25,-32.3 229.67,-24.78"/>
<polygon fill="midnightblue" stroke="midnightblue" points="231.45,-21.77 221.08,-19.61 227.84,-27.77 231.45,-21.77"/>
</g>
<!-- Node4 -->
<g id="node4" class="node">
<title>Node4</title>
<g id="a_node4"><a xlink:href="errno_8h.html" target="_top" xlink:title=" ">
<polygon fill="none" stroke="black" points="68.5,-168.5 68.5,-187.5 119.5,-187.5 119.5,-168.5 68.5,-168.5"/>
<text text-anchor="middle" x="94" y="-175.5" font-family="Helvetica,sans-Serif" font-size="10.00">errno.h</text>
</a>
</g>
</g>
<!-- Node3&#45;&gt;Node4 -->
<g id="edge4" class="edge">
<title>Node3&#45;&gt;Node4</title>
<path fill="none" stroke="midnightblue" d="M190.78,-224.44C172.1,-215.68 142.84,-201.94 121.38,-191.86"/>
<polygon fill="midnightblue" stroke="midnightblue" points="122.68,-188.6 112.14,-187.52 119.7,-194.93 122.68,-188.6"/>
</g>
<!-- Node5 -->
<g id="node5" class="node">
<title>Node5</title>
<g id="a_node5"><a xlink:href="iolist_8h.html" target="_top" xlink:title="iolist scatter / gather IO">
<polygon fill="none" stroke="black" points="0,-168.5 0,-187.5 50,-187.5 50,-168.5 0,-168.5"/>
<text text-anchor="middle" x="25" y="-175.5" font-family="Helvetica,sans-Serif" font-size="10.00">iolist.h</text>
</a>
</g>
</g>
<!-- Node3&#45;&gt;Node5 -->
<g id="edge5" class="edge">
<title>Node3&#45;&gt;Node5</title>
<path fill="none" stroke="midnightblue" d="M179.84,-224.44C147.29,-214.89 94.62,-199.43 59.9,-189.24"/>
<polygon fill="midnightblue" stroke="midnightblue" points="60.76,-185.85 50.18,-186.39 58.79,-192.56 60.76,-185.85"/>
</g>
<!-- Node9 -->
<g id="node9" class="node">
<title>Node9</title>
<g id="a_node9"><a xlink:href="netopt_8h.html" target="_top" xlink:title="Definition of global configuration options.">
<polygon fill="none" stroke="black" points="138,-168.5 138,-187.5 214,-187.5 214,-168.5 138,-168.5"/>
<text text-anchor="middle" x="176" y="-175.5" font-family="Helvetica,sans-Serif" font-size="10.00">net/netopt.h</text>
</a>
</g>
</g>
<!-- Node3&#45;&gt;Node9 -->
<g id="edge12" class="edge">
<title>Node3&#45;&gt;Node9</title>
<path fill="none" stroke="midnightblue" d="M203.55,-224.08C198.99,-216.61 192.33,-205.72 186.71,-196.52"/>
<polygon fill="midnightblue" stroke="midnightblue" points="189.55,-194.46 181.35,-187.75 183.58,-198.11 189.55,-194.46"/>
</g>
<!-- Node10 -->
<g id="node10" class="node">
<title>Node10</title>
<g id="a_node10"><a xlink:href="kernel__defines_8h.html" target="_top" xlink:title="Common macros and compiler attributes/pragmas configuration.">
<polygon fill="none" stroke="black" points="154.5,-56.5 154.5,-75.5 251.5,-75.5 251.5,-56.5 154.5,-56.5"/>
<text text-anchor="middle" x="203" y="-63.5" font-family="Helvetica,sans-Serif" font-size="10.00">kernel_defines.h</text>
</a>
</g>
</g>
<!-- Node3&#45;&gt;Node10 -->
<g id="edge13" class="edge">
<title>Node3&#45;&gt;Node10</title>
<path fill="none" stroke="midnightblue" d="M212.6,-224.22C216.06,-215.28 221.03,-200.94 223,-188 228.52,-151.66 217.5,-109.3 209.74,-85.57"/>
<polygon fill="midnightblue" stroke="midnightblue" points="212.94,-84.11 206.37,-75.79 206.32,-86.39 212.94,-84.11"/>
</g>
<!-- Node6 -->
<g id="node6" class="node">
<title>Node6</title>
<g id="a_node6"><a xlink:href="unistd_8h_source.html" target="_top" xlink:title=" ">
<polygon fill="none" stroke="black" points="15,-112.5 15,-131.5 71,-131.5 71,-112.5 15,-112.5"/>
<text text-anchor="middle" x="43" y="-119.5" font-family="Helvetica,sans-Serif" font-size="10.00">unistd.h</text>
</a>
</g>
</g>
<!-- Node5&#45;&gt;Node6 -->
<g id="edge6" class="edge">
<title>Node5&#45;&gt;Node6</title>
<path fill="none" stroke="midnightblue" d="M27.97,-168.08C30.38,-160.85 33.86,-150.41 36.87,-141.4"/>
<polygon fill="midnightblue" stroke="midnightblue" points="40.24,-142.34 40.08,-131.75 33.6,-140.13 40.24,-142.34"/>
</g>
<!-- Node6&#45;&gt;Node2 -->
<g id="edge8" class="edge">
<title>Node6&#45;&gt;Node2</title>
<path fill="none" stroke="midnightblue" d="M55.55,-112.37C82.89,-93.57 148.06,-48.77 181.86,-25.53"/>
<polygon fill="midnightblue" stroke="midnightblue" points="184.25,-28.14 190.5,-19.59 180.28,-22.37 184.25,-28.14"/>
</g>
<!-- Node7 -->
<g id="node7" class="node">
<title>Node7</title>
<g id="a_node7"><a xlink:title=" ">
<polygon fill="none" stroke="#bfbfbf" points="34,-0.5 34,-19.5 90,-19.5 90,-0.5 34,-0.5"/>
<text text-anchor="middle" x="62" y="-7.5" font-family="Helvetica,sans-Serif" font-size="10.00">stddef.h</text>
</a>
</g>
</g>
<!-- Node6&#45;&gt;Node7 -->
<g id="edge7" class="edge">
<title>Node6&#45;&gt;Node7</title>
<path fill="none" stroke="midnightblue" d="M34.92,-112.14C24.52,-99.6 8.72,-75.99 17,-56 21.92,-44.12 31.67,-33.74 40.83,-25.96"/>
<polygon fill="midnightblue" stroke="midnightblue" points="43.25,-28.51 48.94,-19.56 38.92,-23.01 43.25,-28.51"/>
</g>
<!-- Node8 -->
<g id="node8" class="node">
<title>Node8</title>
<g id="a_node8"><a xlink:href="cpu_2atmega__common_2avr__libc__extra_2include_2sys_2types_8h_source.html" target="_top" xlink:title=" ">
<polygon fill="none" stroke="black" points="26,-56.5 26,-75.5 98,-75.5 98,-56.5 26,-56.5"/>
<text text-anchor="middle" x="62" y="-63.5" font-family="Helvetica,sans-Serif" font-size="10.00">sys/types.h</text>
</a>
</g>
</g>
<!-- Node6&#45;&gt;Node8 -->
<g id="edge9" class="edge">
<title>Node6&#45;&gt;Node8</title>
<path fill="none" stroke="midnightblue" d="M46.14,-112.08C48.68,-104.85 52.36,-94.41 55.53,-85.4"/>
<polygon fill="midnightblue" stroke="midnightblue" points="58.9,-86.35 58.92,-75.75 52.3,-84.02 58.9,-86.35"/>
</g>
<!-- Node8&#45;&gt;Node2 -->
<g id="edge10" class="edge">
<title>Node8&#45;&gt;Node2</title>
<path fill="none" stroke="midnightblue" d="M84.34,-56.44C107.75,-47.48 144.74,-33.31 171.19,-23.18"/>
<polygon fill="midnightblue" stroke="midnightblue" points="172.68,-26.36 180.76,-19.52 170.17,-19.82 172.68,-26.36"/>
</g>
<!-- Node8&#45;&gt;Node7 -->
<g id="edge11" class="edge">
<title>Node8&#45;&gt;Node7</title>
<path fill="none" stroke="midnightblue" d="M62,-56.08C62,-49.01 62,-38.86 62,-29.99"/>
<polygon fill="midnightblue" stroke="midnightblue" points="65.5,-29.75 62,-19.75 58.5,-29.75 65.5,-29.75"/>
</g>
<!-- Node10&#45;&gt;Node2 -->
<g id="edge15" class="edge">
<title>Node10&#45;&gt;Node2</title>
<path fill="none" stroke="midnightblue" d="M203,-56.08C203,-49.01 203,-38.86 203,-29.99"/>
<polygon fill="midnightblue" stroke="midnightblue" points="206.5,-29.75 203,-19.75 199.5,-29.75 206.5,-29.75"/>
</g>
<!-- Node10&#45;&gt;Node7 -->
<g id="edge14" class="edge">
<title>Node10&#45;&gt;Node7</title>
<path fill="none" stroke="midnightblue" d="M180.66,-56.44C157.25,-47.48 120.26,-33.31 93.81,-23.18"/>
<polygon fill="midnightblue" stroke="midnightblue" points="94.83,-19.82 84.24,-19.52 92.32,-26.36 94.83,-19.82"/>
</g>
</g>
</svg>
