<?xml version="1.0" encoding="UTF-8" standalone="no"?>
<!DOCTYPE svg PUBLIC "-//W3C//DTD SVG 1.1//EN"
 "http://www.w3.org/Graphics/SVG/1.1/DTD/svg11.dtd">
<!-- Generated by graphviz version 2.40.1 (20161225.0304)
 -->
<!-- Title: drivers/include/net/netdev/ieee802154.h Pages: 1 -->
<svg width="838pt" height="263pt"
 viewBox="0.00 0.00 837.73 263.00" xmlns="http://www.w3.org/2000/svg" xmlns:xlink="http://www.w3.org/1999/xlink">
<g id="graph0" class="graph" transform="scale(1 1) rotate(0) translate(4 259)">
<title>drivers/include/net/netdev/ieee802154.h</title>
<!-- Node0 -->
<g id="node1" class="node">
<title>Node0</title>
<polygon fill="#bfbfbf" stroke="#000000" points="475.2338,-224.5 475.2338,-254.5 585.2338,-254.5 585.2338,-224.5 475.2338,-224.5"/>
<text text-anchor="start" x="483.2338" y="-242.5" font-family="Helvetica,sans-Serif" font-size="10.00" fill="#000000">drivers/include/net</text>
<text text-anchor="middle" x="530.2338" y="-231.5" font-family="Helvetica,sans-Serif" font-size="10.00" fill="#000000">/netdev/ieee802154.h</text>
</g>
<!-- Node1 -->
<g id="node2" class="node">
<title>Node1</title>
<g id="a_node2"><a xlink:href="sys_2include_2net_2ieee802154_8h.html" target="_top" xlink:title="IEEE 802.15.4 header definitions. ">
<polygon fill="none" stroke="#000000" points="55.7338,-168.5 55.7338,-187.5 146.7338,-187.5 146.7338,-168.5 55.7338,-168.5"/>
<text text-anchor="middle" x="101.2338" y="-175.5" font-family="Helvetica,sans-Serif" font-size="10.00" fill="#000000">net/ieee802154.h</text>
</a>
</g>
</g>
<!-- Node0&#45;&gt;Node1 -->
<g id="edge1" class="edge">
<title>Node0&#45;&gt;Node1</title>
<path fill="none" stroke="#191970" d="M475.0278,-231.5859C392.8024,-219.7983 239.0325,-197.7544 156.6725,-185.9475"/>
<polygon fill="#191970" stroke="#191970" points="157.1455,-182.4796 146.75,-184.5251 156.1521,-189.4088 157.1455,-182.4796"/>
</g>
<!-- Node7 -->
<g id="node8" class="node">
<title>Node7</title>
<g id="a_node8"><a xlink:href="nettype_8h.html" target="_top" xlink:title="Protocol type definitions. ">
<polygon fill="none" stroke="#000000" points="389.7338,-168.5 389.7338,-187.5 484.7338,-187.5 484.7338,-168.5 389.7338,-168.5"/>
<text text-anchor="middle" x="437.2338" y="-175.5" font-family="Helvetica,sans-Serif" font-size="10.00" fill="#000000">net/gnrc/nettype.h</text>
</a>
</g>
</g>
<!-- Node0&#45;&gt;Node7 -->
<g id="edge11" class="edge">
<title>Node0&#45;&gt;Node7</title>
<path fill="none" stroke="#191970" d="M507.245,-224.2977C493.0372,-214.9022 474.8553,-202.8787 460.5813,-193.4395"/>
<polygon fill="#191970" stroke="#191970" points="462.1183,-190.2598 451.8465,-187.6633 458.2571,-196.0986 462.1183,-190.2598"/>
</g>
<!-- Node13 -->
<g id="node14" class="node">
<title>Node13</title>
<g id="a_node14"><a xlink:href="netopt_8h.html" target="_top" xlink:title="Definition of global configuration options. ">
<polygon fill="none" stroke="#000000" points="592.2338,-112.5 592.2338,-131.5 660.2338,-131.5 660.2338,-112.5 592.2338,-112.5"/>
<text text-anchor="middle" x="626.2338" y="-119.5" font-family="Helvetica,sans-Serif" font-size="10.00" fill="#000000">net/netopt.h</text>
</a>
</g>
</g>
<!-- Node0&#45;&gt;Node13 -->
<g id="edge17" class="edge">
<title>Node0&#45;&gt;Node13</title>
<path fill="none" stroke="#191970" d="M542.7841,-224.1389C560.6305,-202.2957 593.2487,-162.3724 611.9829,-139.4424"/>
<polygon fill="#191970" stroke="#191970" points="614.8068,-141.5179 618.4235,-131.5595 609.3861,-137.089 614.8068,-141.5179"/>
</g>
<!-- Node14 -->
<g id="node15" class="node">
<title>Node14</title>
<g id="a_node15"><a xlink:href="drivers_2include_2net_2netdev_8h.html" target="_top" xlink:title="Definitions low&#45;level network driver interface. ">
<polygon fill="none" stroke="#000000" points="652.7338,-168.5 652.7338,-187.5 723.7338,-187.5 723.7338,-168.5 652.7338,-168.5"/>
<text text-anchor="middle" x="688.2338" y="-175.5" font-family="Helvetica,sans-Serif" font-size="10.00" fill="#000000">net/netdev.h</text>
</a>
</g>
</g>
<!-- Node0&#45;&gt;Node14 -->
<g id="edge18" class="edge">
<title>Node0&#45;&gt;Node14</title>
<path fill="none" stroke="#191970" d="M568.8849,-224.4554C595.0164,-214.284 629.1991,-200.9787 654.2818,-191.2155"/>
<polygon fill="#191970" stroke="#191970" points="655.7,-194.4193 663.7494,-187.5303 653.1609,-187.8961 655.7,-194.4193"/>
</g>
<!-- Node2 -->
<g id="node3" class="node">
<title>Node2</title>
<polygon fill="none" stroke="#bfbfbf" points="131.7338,-.5 131.7338,-19.5 180.7338,-19.5 180.7338,-.5 131.7338,-.5"/>
<text text-anchor="middle" x="156.2338" y="-7.5" font-family="Helvetica,sans-Serif" font-size="10.00" fill="#000000">stdint.h</text>
</g>
<!-- Node1&#45;&gt;Node2 -->
<g id="edge2" class="edge">
<title>Node1&#45;&gt;Node2</title>
<path fill="none" stroke="#191970" d="M66.9153,-168.4482C48.6361,-161.4695 27.6278,-150.0078 16.2338,-132 -1.8408,-103.4338 -6.6759,-83.3189 13.2338,-56 26.1154,-38.3245 83.5046,-24.0639 121.5489,-16.331"/>
<polygon fill="#191970" stroke="#191970" points="122.58,-19.6952 131.7134,-14.3257 121.225,-12.8276 122.58,-19.6952"/>
</g>
<!-- Node3 -->
<g id="node4" class="node">
<title>Node3</title>
<g id="a_node4"><a xlink:href="stdlib_8h.html" target="_top" xlink:title="stdlib.h wrapper for MSP430 ">
<polygon fill="none" stroke="#000000" points="25.2338,-112.5 25.2338,-131.5 73.2338,-131.5 73.2338,-112.5 25.2338,-112.5"/>
<text text-anchor="middle" x="49.2338" y="-119.5" font-family="Helvetica,sans-Serif" font-size="10.00" fill="#000000">stdlib.h</text>
</a>
</g>
</g>
<!-- Node1&#45;&gt;Node3 -->
<g id="edge3" class="edge">
<title>Node1&#45;&gt;Node3</title>
<path fill="none" stroke="#191970" d="M92.1761,-168.2455C84.7196,-160.2155 73.9704,-148.6394 65.0921,-139.0781"/>
<polygon fill="#191970" stroke="#191970" points="67.557,-136.589 58.1877,-131.6427 62.4274,-141.3522 67.557,-136.589"/>
</g>
<!-- Node5 -->
<g id="node6" class="node">
<title>Node5</title>
<g id="a_node6"><a xlink:href="byteorder_8h.html" target="_top" xlink:title="Functions to work with different byte orders. ">
<polygon fill="none" stroke="#000000" points="93.7338,-56.5 93.7338,-75.5 158.7338,-75.5 158.7338,-56.5 93.7338,-56.5"/>
<text text-anchor="middle" x="126.2338" y="-63.5" font-family="Helvetica,sans-Serif" font-size="10.00" fill="#000000">byteorder.h</text>
</a>
</g>
</g>
<!-- Node1&#45;&gt;Node5 -->
<g id="edge6" class="edge">
<title>Node1&#45;&gt;Node5</title>
<path fill="none" stroke="#191970" d="M103.3653,-168.4509C107.4612,-150.1013 116.5037,-109.5908 121.9103,-85.3693"/>
<polygon fill="#191970" stroke="#191970" points="125.345,-86.0472 124.1077,-75.5249 118.5131,-84.5222 125.345,-86.0472"/>
</g>
<!-- Node6 -->
<g id="node7" class="node">
<title>Node6</title>
<g id="a_node7"><a xlink:href="eui64_8h.html" target="_top" xlink:title="EUI&#45;64 data type definition. ">
<polygon fill="none" stroke="#000000" points="129.7338,-112.5 129.7338,-131.5 194.7338,-131.5 194.7338,-112.5 129.7338,-112.5"/>
<text text-anchor="middle" x="162.2338" y="-119.5" font-family="Helvetica,sans-Serif" font-size="10.00" fill="#000000">net/eui64.h</text>
</a>
</g>
</g>
<!-- Node1&#45;&gt;Node6 -->
<g id="edge8" class="edge">
<title>Node1&#45;&gt;Node6</title>
<path fill="none" stroke="#191970" d="M111.8592,-168.2455C120.7811,-160.0549 133.7218,-148.1749 144.253,-138.5069"/>
<polygon fill="#191970" stroke="#191970" points="146.7306,-140.9837 151.7302,-131.6427 141.9966,-135.8271 146.7306,-140.9837"/>
</g>
<!-- Node4 -->
<g id="node5" class="node">
<title>Node4</title>
<g id="a_node5"><a xlink:href="malloc_8h.html" target="_top" xlink:title="malloc.h">
<polygon fill="none" stroke="#000000" points="22.7338,-56.5 22.7338,-75.5 75.7338,-75.5 75.7338,-56.5 22.7338,-56.5"/>
<text text-anchor="middle" x="49.2338" y="-63.5" font-family="Helvetica,sans-Serif" font-size="10.00" fill="#000000">malloc.h</text>
</a>
</g>
</g>
<!-- Node3&#45;&gt;Node4 -->
<g id="edge4" class="edge">
<title>Node3&#45;&gt;Node4</title>
<path fill="none" stroke="#191970" d="M43.9669,-112.2455C42.5559,-104.9382 42.1517,-94.6944 42.7543,-85.7046"/>
<polygon fill="#191970" stroke="#191970" points="46.2449,-85.9945 43.9886,-75.6427 39.297,-85.1421 46.2449,-85.9945"/>
</g>
<!-- Node4&#45;&gt;Node3 -->
<g id="edge5" class="edge">
<title>Node4&#45;&gt;Node3</title>
<path fill="none" stroke="#191970" d="M54.4789,-75.6427C55.9002,-82.9199 56.3147,-93.155 55.7224,-102.1575"/>
<polygon fill="#191970" stroke="#191970" points="52.2285,-101.8972 54.5006,-112.2455 59.1777,-102.739 52.2285,-101.8972"/>
</g>
<!-- Node5&#45;&gt;Node2 -->
<g id="edge7" class="edge">
<title>Node5&#45;&gt;Node2</title>
<path fill="none" stroke="#191970" d="M131.4594,-56.2455C135.5461,-48.617 141.3473,-37.7881 146.3087,-28.5267"/>
<polygon fill="#191970" stroke="#191970" points="149.431,-30.1103 151.0681,-19.6427 143.2606,-26.8047 149.431,-30.1103"/>
</g>
<!-- Node6&#45;&gt;Node2 -->
<g id="edge9" class="edge">
<title>Node6&#45;&gt;Node2</title>
<path fill="none" stroke="#191970" d="M164.1648,-112.1353C166.4237,-99.2113 169.575,-75.8571 167.2338,-56 166.1909,-47.1546 164.0569,-37.5467 161.9438,-29.4104"/>
<polygon fill="#191970" stroke="#191970" points="165.311,-28.4548 159.2713,-19.7501 158.5644,-30.3213 165.311,-28.4548"/>
</g>
<!-- Node6&#45;&gt;Node5 -->
<g id="edge10" class="edge">
<title>Node6&#45;&gt;Node5</title>
<path fill="none" stroke="#191970" d="M155.9631,-112.2455C151.0074,-104.5367 143.9508,-93.5598 137.9562,-84.2348"/>
<polygon fill="#191970" stroke="#191970" points="140.7844,-82.1618 132.4326,-75.6427 134.8961,-85.9471 140.7844,-82.1618"/>
</g>
<!-- Node8 -->
<g id="node9" class="node">
<title>Node8</title>
<g id="a_node9"><a xlink:href="inttypes_8h.html" target="_top" xlink:title="Adds include for missing inttype definitions. ">
<polygon fill="none" stroke="#000000" points="212.7338,-112.5 212.7338,-131.5 271.7338,-131.5 271.7338,-112.5 212.7338,-112.5"/>
<text text-anchor="middle" x="242.2338" y="-119.5" font-family="Helvetica,sans-Serif" font-size="10.00" fill="#000000">inttypes.h</text>
</a>
</g>
</g>
<!-- Node7&#45;&gt;Node8 -->
<g id="edge12" class="edge">
<title>Node7&#45;&gt;Node8</title>
<path fill="none" stroke="#191970" d="M403.7121,-168.3733C369.7705,-158.6259 317.3089,-143.56 281.4557,-133.2637"/>
<polygon fill="#191970" stroke="#191970" points="282.3904,-129.8908 271.8128,-130.4945 280.4582,-136.6188 282.3904,-129.8908"/>
</g>
<!-- Node9 -->
<g id="node10" class="node">
<title>Node9</title>
<g id="a_node10"><a xlink:href="kernel__defines_8h.html" target="_top" xlink:title="Common macros and compiler attributes/pragmas configuration. ">
<polygon fill="none" stroke="#000000" points="290.2338,-112.5 290.2338,-131.5 378.2338,-131.5 378.2338,-112.5 290.2338,-112.5"/>
<text text-anchor="middle" x="334.2338" y="-119.5" font-family="Helvetica,sans-Serif" font-size="10.00" fill="#000000">kernel_defines.h</text>
</a>
</g>
</g>
<!-- Node7&#45;&gt;Node9 -->
<g id="edge13" class="edge">
<title>Node7&#45;&gt;Node9</title>
<path fill="none" stroke="#191970" d="M419.2925,-168.2455C403.1938,-159.4928 379.3459,-146.527 360.9947,-136.5496"/>
<polygon fill="#191970" stroke="#191970" points="362.4267,-133.3444 351.9694,-131.6427 359.0831,-139.4942 362.4267,-133.3444"/>
</g>
<!-- Node11 -->
<g id="node12" class="node">
<title>Node11</title>
<g id="a_node12"><a xlink:href="ethertype_8h.html" target="_top" xlink:title="Ether type definitions. ">
<polygon fill="none" stroke="#000000" points="396.2338,-112.5 396.2338,-131.5 478.2338,-131.5 478.2338,-112.5 396.2338,-112.5"/>
<text text-anchor="middle" x="437.2338" y="-119.5" font-family="Helvetica,sans-Serif" font-size="10.00" fill="#000000">net/ethertype.h</text>
</a>
</g>
</g>
<!-- Node7&#45;&gt;Node11 -->
<g id="edge15" class="edge">
<title>Node7&#45;&gt;Node11</title>
<path fill="none" stroke="#191970" d="M437.2338,-168.2455C437.2338,-160.9382 437.2338,-150.6944 437.2338,-141.7046"/>
<polygon fill="#191970" stroke="#191970" points="440.7339,-141.6426 437.2338,-131.6427 433.7339,-141.6427 440.7339,-141.6426"/>
</g>
<!-- Node12 -->
<g id="node13" class="node">
<title>Node12</title>
<g id="a_node13"><a xlink:href="protnum_8h.html" target="_top" xlink:title="Protocol number definitions. ">
<polygon fill="none" stroke="#000000" points="496.7338,-112.5 496.7338,-131.5 573.7338,-131.5 573.7338,-112.5 496.7338,-112.5"/>
<text text-anchor="middle" x="535.2338" y="-119.5" font-family="Helvetica,sans-Serif" font-size="10.00" fill="#000000">net/protnum.h</text>
</a>
</g>
</g>
<!-- Node7&#45;&gt;Node12 -->
<g id="edge16" class="edge">
<title>Node7&#45;&gt;Node12</title>
<path fill="none" stroke="#191970" d="M454.3041,-168.2455C469.4808,-159.5731 491.8959,-146.7645 509.2901,-136.825"/>
<polygon fill="#191970" stroke="#191970" points="511.4132,-139.643 518.3591,-131.6427 507.9402,-133.5653 511.4132,-139.643"/>
</g>
<!-- Node10 -->
<g id="node11" class="node">
<title>Node10</title>
<polygon fill="none" stroke="#bfbfbf" points="308.2338,-56.5 308.2338,-75.5 360.2338,-75.5 360.2338,-56.5 308.2338,-56.5"/>
<text text-anchor="middle" x="334.2338" y="-63.5" font-family="Helvetica,sans-Serif" font-size="10.00" fill="#000000">stddef.h</text>
</g>
<!-- Node9&#45;&gt;Node10 -->
<g id="edge14" class="edge">
<title>Node9&#45;&gt;Node10</title>
<path fill="none" stroke="#191970" d="M334.2338,-112.2455C334.2338,-104.9382 334.2338,-94.6944 334.2338,-85.7046"/>
<polygon fill="#191970" stroke="#191970" points="337.7339,-85.6426 334.2338,-75.6427 330.7339,-85.6427 337.7339,-85.6426"/>
</g>
<!-- Node14&#45;&gt;Node2 -->
<g id="edge19" class="edge">
<title>Node14&#45;&gt;Node2</title>
<path fill="none" stroke="#191970" d="M688.3936,-168.3255C688.0731,-153.8494 685.2098,-126.6869 669.2338,-112 598.616,-47.0801 295.1553,-19.8433 191.2731,-12.3076"/>
<polygon fill="#191970" stroke="#191970" points="191.2356,-8.7963 181.0132,-11.5808 190.7409,-15.7788 191.2356,-8.7963"/>
</g>
<!-- Node14&#45;&gt;Node13 -->
<g id="edge23" class="edge">
<title>Node14&#45;&gt;Node13</title>
<path fill="none" stroke="#191970" d="M677.4342,-168.2455C668.366,-160.0549 655.2132,-148.1749 644.5093,-138.5069"/>
<polygon fill="#191970" stroke="#191970" points="646.6767,-135.7482 636.9096,-131.6427 641.9846,-140.9429 646.6767,-135.7482"/>
</g>
<!-- Node15 -->
<g id="node16" class="node">
<title>Node15</title>
<g id="a_node16"><a xlink:href="errno_8h.html" target="_top" xlink:title="errno.h">
<polygon fill="none" stroke="#000000" points="716.7338,-112.5 716.7338,-131.5 763.7338,-131.5 763.7338,-112.5 716.7338,-112.5"/>
<text text-anchor="middle" x="740.2338" y="-119.5" font-family="Helvetica,sans-Serif" font-size="10.00" fill="#000000">errno.h</text>
</a>
</g>
</g>
<!-- Node14&#45;&gt;Node15 -->
<g id="edge20" class="edge">
<title>Node14&#45;&gt;Node15</title>
<path fill="none" stroke="#191970" d="M697.2915,-168.2455C704.7479,-160.2155 715.4972,-148.6394 724.3755,-139.0781"/>
<polygon fill="#191970" stroke="#191970" points="727.0401,-141.3522 731.2799,-131.6427 721.9105,-136.589 727.0401,-141.3522"/>
</g>
<!-- Node16 -->
<g id="node17" class="node">
<title>Node16</title>
<g id="a_node17"><a xlink:href="iolist_8h.html" target="_top" xlink:title="iolist scatter / gather IO ">
<polygon fill="none" stroke="#000000" points="781.7338,-112.5 781.7338,-131.5 826.7338,-131.5 826.7338,-112.5 781.7338,-112.5"/>
<text text-anchor="middle" x="804.2338" y="-119.5" font-family="Helvetica,sans-Serif" font-size="10.00" fill="#000000">iolist.h</text>
</a>
</g>
</g>
<!-- Node14&#45;&gt;Node16 -->
<g id="edge21" class="edge">
<title>Node14&#45;&gt;Node16</title>
<path fill="none" stroke="#191970" d="M708.1749,-168.3733C726.7124,-159.4241 754.5366,-145.9917 775.4751,-135.8835"/>
<polygon fill="#191970" stroke="#191970" points="777.069,-139.0006 784.5529,-131.5011 774.0257,-132.6967 777.069,-139.0006"/>
</g>
<!-- Node17 -->
<g id="node18" class="node">
<title>Node17</title>
<polygon fill="none" stroke="#bfbfbf" points="778.7338,-56.5 778.7338,-75.5 829.7338,-75.5 829.7338,-56.5 778.7338,-56.5"/>
<text text-anchor="middle" x="804.2338" y="-63.5" font-family="Helvetica,sans-Serif" font-size="10.00" fill="#000000">unistd.h</text>
</g>
<!-- Node16&#45;&gt;Node17 -->
<g id="edge22" class="edge">
<title>Node16&#45;&gt;Node17</title>
<path fill="none" stroke="#191970" d="M804.2338,-112.2455C804.2338,-104.9382 804.2338,-94.6944 804.2338,-85.7046"/>
<polygon fill="#191970" stroke="#191970" points="807.7339,-85.6426 804.2338,-75.6427 800.7339,-85.6427 807.7339,-85.6426"/>
</g>
</g>
</svg>
