<?xml version="1.0" encoding="UTF-8" standalone="no"?>
<!DOCTYPE svg PUBLIC "-//W3C//DTD SVG 1.1//EN"
 "http://www.w3.org/Graphics/SVG/1.1/DTD/svg11.dtd">
<!-- Generated by graphviz version 2.40.1 (20161225.0304)
 -->
<!-- Title: drivers/include/net/netdev/ble.h Pages: 1 -->
<svg width="244pt" height="162pt"
 viewBox="0.00 0.00 244.00 162.00" xmlns="http://www.w3.org/2000/svg" xmlns:xlink="http://www.w3.org/1999/xlink">
<g id="graph0" class="graph" transform="scale(1 1) rotate(0) translate(4 158)">
<title>drivers/include/net/netdev/ble.h</title>
<!-- Node7 -->
<g id="node1" class="node">
<title>Node7</title>
<polygon fill="#bfbfbf" stroke="#000000" points="69.5,-123.5 69.5,-153.5 165.5,-153.5 165.5,-123.5 69.5,-123.5"/>
<text text-anchor="start" x="77.5" y="-141.5" font-family="Helvetica,sans-Serif" font-size="10.00" fill="#000000">drivers/include/net</text>
<text text-anchor="middle" x="117.5" y="-130.5" font-family="Helvetica,sans-Serif" font-size="10.00" fill="#000000">/netdev/ble.h</text>
</g>
<!-- Node8 -->
<g id="node2" class="node">
<title>Node8</title>
<g id="a_node2"><a xlink:href="skald_8h.html" target="_top" xlink:title="Skald&#39;s basic interface. ">
<polygon fill="none" stroke="#000000" points="59,-67.5 59,-86.5 176,-86.5 176,-67.5 59,-67.5"/>
<text text-anchor="middle" x="117.5" y="-74.5" font-family="Helvetica,sans-Serif" font-size="10.00" fill="#000000">sys/include/net/skald.h</text>
</a>
</g>
</g>
<!-- Node7&#45;&gt;Node8 -->
<g id="edge1" class="edge">
<title>Node7&#45;&gt;Node8</title>
<path fill="none" stroke="#191970" d="M117.5,-113.2849C117.5,-103.9858 117.5,-93.9883 117.5,-86.8469"/>
<polygon fill="#191970" stroke="#191970" points="114.0001,-113.2977 117.5,-123.2977 121.0001,-113.2978 114.0001,-113.2977"/>
</g>
<!-- Node9 -->
<g id="node3" class="node">
<title>Node9</title>
<g id="a_node3"><a xlink:href="skald_2eddystone_8h.html" target="_top" xlink:title="Skald&#39;s basic interface. ">
<polygon fill="none" stroke="#000000" points="0,-.5 0,-30.5 109,-30.5 109,-.5 0,-.5"/>
<text text-anchor="start" x="8" y="-18.5" font-family="Helvetica,sans-Serif" font-size="10.00" fill="#000000">sys/include/net/skald</text>
<text text-anchor="middle" x="54.5" y="-7.5" font-family="Helvetica,sans-Serif" font-size="10.00" fill="#000000">/eddystone.h</text>
</a>
</g>
</g>
<!-- Node8&#45;&gt;Node9 -->
<g id="edge2" class="edge">
<title>Node8&#45;&gt;Node9</title>
<path fill="none" stroke="#191970" d="M100.3006,-60.2101C90.8047,-50.9403 79.1077,-39.5218 69.9115,-30.5446"/>
<polygon fill="#191970" stroke="#191970" points="98.0556,-62.9097 107.6563,-67.3906 102.9454,-57.9007 98.0556,-62.9097"/>
</g>
<!-- Node10 -->
<g id="node4" class="node">
<title>Node10</title>
<g id="a_node4"><a xlink:href="ibeacon_8h.html" target="_top" xlink:title="Skald&#39;s basic interface. ">
<polygon fill="none" stroke="#000000" points="127,-.5 127,-30.5 236,-30.5 236,-.5 127,-.5"/>
<text text-anchor="start" x="135" y="-18.5" font-family="Helvetica,sans-Serif" font-size="10.00" fill="#000000">sys/include/net/skald</text>
<text text-anchor="middle" x="181.5" y="-7.5" font-family="Helvetica,sans-Serif" font-size="10.00" fill="#000000">/ibeacon.h</text>
</a>
</g>
</g>
<!-- Node8&#45;&gt;Node10 -->
<g id="edge3" class="edge">
<title>Node8&#45;&gt;Node10</title>
<path fill="none" stroke="#191970" d="M134.9724,-60.2101C144.6191,-50.9403 156.5017,-39.5218 165.8438,-30.5446"/>
<polygon fill="#191970" stroke="#191970" points="132.2854,-57.9381 127.5,-67.3906 137.1356,-62.9854 132.2854,-57.9381"/>
</g>
</g>
</svg>
