<?xml version="1.0" encoding="UTF-8" standalone="no"?>
<!DOCTYPE svg PUBLIC "-//W3C//DTD SVG 1.1//EN"
 "http://www.w3.org/Graphics/SVG/1.1/DTD/svg11.dtd">
<!-- Generated by graphviz version 2.40.1 (20161225.0304)
 -->
<!-- Title: drivers/include/ds1307.h Pages: 1 -->
<svg width="525pt" height="196pt"
 viewBox="0.00 0.00 524.98 196.00" xmlns="http://www.w3.org/2000/svg" xmlns:xlink="http://www.w3.org/1999/xlink">
<g id="graph0" class="graph" transform="scale(1 1) rotate(0) translate(4 192)">
<title>drivers/include/ds1307.h</title>
<!-- Node0 -->
<g id="node1" class="node">
<title>Node0</title>
<polygon fill="#bfbfbf" stroke="#000000" points="101,-168.5 101,-187.5 223,-187.5 223,-168.5 101,-168.5"/>
<text text-anchor="middle" x="162" y="-175.5" font-family="Helvetica,sans-Serif" font-size="10.00" fill="#000000">drivers/include/ds1307.h</text>
</g>
<!-- Node1 -->
<g id="node2" class="node">
<title>Node1</title>
<polygon fill="none" stroke="#bfbfbf" points="0,-112.5 0,-131.5 56,-131.5 56,-112.5 0,-112.5"/>
<text text-anchor="middle" x="28" y="-119.5" font-family="Helvetica,sans-Serif" font-size="10.00" fill="#000000">stdbool.h</text>
</g>
<!-- Node0&#45;&gt;Node1 -->
<g id="edge1" class="edge">
<title>Node0&#45;&gt;Node1</title>
<path fill="none" stroke="#191970" d="M138.9646,-168.3733C117.2612,-159.3032 84.5382,-145.6279 60.245,-135.4755"/>
<polygon fill="#191970" stroke="#191970" points="61.3111,-132.1278 50.7348,-131.5011 58.6119,-138.5865 61.3111,-132.1278"/>
</g>
<!-- Node2 -->
<g id="node3" class="node">
<title>Node2</title>
<polygon fill="none" stroke="#bfbfbf" points="74,-112.5 74,-131.5 118,-131.5 118,-112.5 74,-112.5"/>
<text text-anchor="middle" x="96" y="-119.5" font-family="Helvetica,sans-Serif" font-size="10.00" fill="#000000">time.h</text>
</g>
<!-- Node0&#45;&gt;Node2 -->
<g id="edge2" class="edge">
<title>Node0&#45;&gt;Node2</title>
<path fill="none" stroke="#191970" d="M150.5037,-168.2455C140.7558,-159.9746 126.5741,-147.9416 115.1202,-138.2232"/>
<polygon fill="#191970" stroke="#191970" points="117.2541,-135.4437 107.3646,-131.6427 112.7253,-140.7813 117.2541,-135.4437"/>
</g>
<!-- Node3 -->
<g id="node4" class="node">
<title>Node3</title>
<g id="a_node4"><a xlink:href="nvram_8h.html" target="_top" xlink:title="Generic non&#45;volatile RAM driver interface. ">
<polygon fill="none" stroke="#000000" points="136,-112.5 136,-131.5 188,-131.5 188,-112.5 136,-112.5"/>
<text text-anchor="middle" x="162" y="-119.5" font-family="Helvetica,sans-Serif" font-size="10.00" fill="#000000">nvram.h</text>
</a>
</g>
</g>
<!-- Node0&#45;&gt;Node3 -->
<g id="edge3" class="edge">
<title>Node0&#45;&gt;Node3</title>
<path fill="none" stroke="#191970" d="M162,-168.2455C162,-160.9382 162,-150.6944 162,-141.7046"/>
<polygon fill="#191970" stroke="#191970" points="165.5001,-141.6426 162,-131.6427 158.5001,-141.6427 165.5001,-141.6426"/>
</g>
<!-- Node6 -->
<g id="node7" class="node">
<title>Node6</title>
<g id="a_node7"><a xlink:href="i2c_8h.html" target="_top" xlink:title="Low&#45;level I2C peripheral driver interface definition. ">
<polygon fill="none" stroke="#000000" points="206.5,-112.5 206.5,-131.5 273.5,-131.5 273.5,-112.5 206.5,-112.5"/>
<text text-anchor="middle" x="240" y="-119.5" font-family="Helvetica,sans-Serif" font-size="10.00" fill="#000000">periph/i2c.h</text>
</a>
</g>
</g>
<!-- Node0&#45;&gt;Node6 -->
<g id="edge6" class="edge">
<title>Node0&#45;&gt;Node6</title>
<path fill="none" stroke="#191970" d="M175.5866,-168.2455C187.3305,-159.814 204.5199,-147.4729 218.1882,-137.6598"/>
<polygon fill="#191970" stroke="#191970" points="220.4871,-140.3179 226.5691,-131.6427 216.4046,-134.6316 220.4871,-140.3179"/>
</g>
<!-- Node11 -->
<g id="node12" class="node">
<title>Node11</title>
<g id="a_node12"><a xlink:href="gpio_8h.html" target="_top" xlink:title="Low&#45;level GPIO peripheral driver interface definitions. ">
<polygon fill="none" stroke="#000000" points="404,-112.5 404,-131.5 476,-131.5 476,-112.5 404,-112.5"/>
<text text-anchor="middle" x="440" y="-119.5" font-family="Helvetica,sans-Serif" font-size="10.00" fill="#000000">periph/gpio.h</text>
</a>
</g>
</g>
<!-- Node0&#45;&gt;Node11 -->
<g id="edge14" class="edge">
<title>Node0&#45;&gt;Node11</title>
<path fill="none" stroke="#191970" d="M209.474,-168.4369C260.9785,-158.0619 342.6633,-141.6074 393.7025,-131.3261"/>
<polygon fill="#191970" stroke="#191970" points="394.6832,-134.699 403.7951,-129.2931 393.3008,-127.8368 394.6832,-134.699"/>
</g>
<!-- Node4 -->
<g id="node5" class="node">
<title>Node4</title>
<polygon fill="none" stroke="#bfbfbf" points="137.5,-56.5 137.5,-75.5 186.5,-75.5 186.5,-56.5 137.5,-56.5"/>
<text text-anchor="middle" x="162" y="-63.5" font-family="Helvetica,sans-Serif" font-size="10.00" fill="#000000">stdint.h</text>
</g>
<!-- Node3&#45;&gt;Node4 -->
<g id="edge4" class="edge">
<title>Node3&#45;&gt;Node4</title>
<path fill="none" stroke="#191970" d="M162,-112.2455C162,-104.9382 162,-94.6944 162,-85.7046"/>
<polygon fill="#191970" stroke="#191970" points="165.5001,-85.6426 162,-75.6427 158.5001,-85.6427 165.5001,-85.6426"/>
</g>
<!-- Node5 -->
<g id="node6" class="node">
<title>Node5</title>
<polygon fill="none" stroke="#bfbfbf" points="67,-56.5 67,-75.5 119,-75.5 119,-56.5 67,-56.5"/>
<text text-anchor="middle" x="93" y="-63.5" font-family="Helvetica,sans-Serif" font-size="10.00" fill="#000000">stddef.h</text>
</g>
<!-- Node3&#45;&gt;Node5 -->
<g id="edge5" class="edge">
<title>Node3&#45;&gt;Node5</title>
<path fill="none" stroke="#191970" d="M149.9811,-112.2455C139.7902,-103.9746 124.9638,-91.9416 112.9893,-82.2232"/>
<polygon fill="#191970" stroke="#191970" points="114.8514,-79.2268 104.8812,-75.6427 110.4402,-84.662 114.8514,-79.2268"/>
</g>
<!-- Node6&#45;&gt;Node4 -->
<g id="edge7" class="edge">
<title>Node6&#45;&gt;Node4</title>
<path fill="none" stroke="#191970" d="M226.4134,-112.2455C214.6695,-103.814 197.4801,-91.4729 183.8118,-81.6598"/>
<polygon fill="#191970" stroke="#191970" points="185.5954,-78.6316 175.4309,-75.6427 181.5129,-84.3179 185.5954,-78.6316"/>
</g>
<!-- Node6&#45;&gt;Node5 -->
<g id="edge8" class="edge">
<title>Node6&#45;&gt;Node5</title>
<path fill="none" stroke="#191970" d="M214.7298,-112.3733C190.6034,-103.1822 154.0638,-89.2624 127.3123,-79.0713"/>
<polygon fill="#191970" stroke="#191970" points="128.5313,-75.7904 117.9404,-75.5011 126.0393,-82.3318 128.5313,-75.7904"/>
</g>
<!-- Node7 -->
<g id="node8" class="node">
<title>Node7</title>
<polygon fill="none" stroke="#bfbfbf" points="455,-56.5 455,-75.5 503,-75.5 503,-56.5 455,-56.5"/>
<text text-anchor="middle" x="479" y="-63.5" font-family="Helvetica,sans-Serif" font-size="10.00" fill="#000000">limits.h</text>
</g>
<!-- Node6&#45;&gt;Node7 -->
<g id="edge9" class="edge">
<title>Node6&#45;&gt;Node7</title>
<path fill="none" stroke="#191970" d="M273.7255,-115.2743C312.7579,-107.3139 379.1527,-93.2322 445.1736,-76.0795"/>
<polygon fill="#191970" stroke="#191970" points="446.1232,-79.4489 454.9084,-73.5269 444.3477,-72.6778 446.1232,-79.4489"/>
</g>
<!-- Node8 -->
<g id="node9" class="node">
<title>Node8</title>
<polygon fill="none" stroke="#bfbfbf" points="257.5,-.5 257.5,-19.5 332.5,-19.5 332.5,-.5 257.5,-.5"/>
<text text-anchor="middle" x="295" y="-7.5" font-family="Helvetica,sans-Serif" font-size="10.00" fill="#000000">periph_conf.h</text>
</g>
<!-- Node6&#45;&gt;Node8 -->
<g id="edge10" class="edge">
<title>Node6&#45;&gt;Node8</title>
<path fill="none" stroke="#191970" d="M236.1243,-112.4574C231.3342,-99.078 224.8651,-74.3298 234,-56 240.6003,-42.756 253.0327,-32.3192 264.9605,-24.7581"/>
<polygon fill="#191970" stroke="#191970" points="267.0165,-27.6102 273.8784,-19.5378 263.4801,-21.5691 267.0165,-27.6102"/>
</g>
<!-- Node9 -->
<g id="node10" class="node">
<title>Node9</title>
<polygon fill="none" stroke="#bfbfbf" points="365,-56.5 365,-75.5 437,-75.5 437,-56.5 365,-56.5"/>
<text text-anchor="middle" x="401" y="-63.5" font-family="Helvetica,sans-Serif" font-size="10.00" fill="#000000">periph_cpu.h</text>
</g>
<!-- Node6&#45;&gt;Node9 -->
<g id="edge11" class="edge">
<title>Node6&#45;&gt;Node9</title>
<path fill="none" stroke="#191970" d="M267.6769,-112.3733C294.3328,-103.1016 334.8238,-89.0178 364.1884,-78.804"/>
<polygon fill="#191970" stroke="#191970" points="365.3891,-82.0921 373.6843,-75.5011 363.0895,-75.4807 365.3891,-82.0921"/>
</g>
<!-- Node10 -->
<g id="node11" class="node">
<title>Node10</title>
<g id="a_node11"><a xlink:href="dev__enums_8h.html" target="_top" xlink:title="Device enumerations for backward compatibility with existing peripheral driver implementations. ">
<polygon fill="none" stroke="#000000" points="243,-56.5 243,-75.5 347,-75.5 347,-56.5 243,-56.5"/>
<text text-anchor="middle" x="295" y="-63.5" font-family="Helvetica,sans-Serif" font-size="10.00" fill="#000000">periph/dev_enums.h</text>
</a>
</g>
</g>
<!-- Node6&#45;&gt;Node10 -->
<g id="edge12" class="edge">
<title>Node6&#45;&gt;Node10</title>
<path fill="none" stroke="#191970" d="M249.5803,-112.2455C257.5458,-104.1352 269.0641,-92.4075 278.5079,-82.7919"/>
<polygon fill="#191970" stroke="#191970" points="281.0195,-85.2297 285.5295,-75.6427 276.0253,-80.3247 281.0195,-85.2297"/>
</g>
<!-- Node10&#45;&gt;Node8 -->
<g id="edge13" class="edge">
<title>Node10&#45;&gt;Node8</title>
<path fill="none" stroke="#191970" d="M295,-56.2455C295,-48.9382 295,-38.6944 295,-29.7046"/>
<polygon fill="#191970" stroke="#191970" points="298.5001,-29.6426 295,-19.6427 291.5001,-29.6427 298.5001,-29.6426"/>
</g>
<!-- Node11&#45;&gt;Node7 -->
<g id="edge15" class="edge">
<title>Node11&#45;&gt;Node7</title>
<path fill="none" stroke="#191970" d="M446.7933,-112.2455C452.2178,-104.4564 459.9661,-93.3308 466.5033,-83.9439"/>
<polygon fill="#191970" stroke="#191970" points="469.4417,-85.849 472.2846,-75.6427 463.6975,-81.8485 469.4417,-85.849"/>
</g>
<!-- Node11&#45;&gt;Node8 -->
<g id="edge17" class="edge">
<title>Node11&#45;&gt;Node8</title>
<path fill="none" stroke="#191970" d="M464.5791,-112.4547C491.9969,-100.4091 530.2544,-78.5296 512,-56 491.1737,-30.2962 400.5641,-18.3746 343.2173,-13.3132"/>
<polygon fill="#191970" stroke="#191970" points="343.1793,-9.7977 332.9209,-12.4462 342.5919,-16.773 343.1793,-9.7977"/>
</g>
<!-- Node11&#45;&gt;Node9 -->
<g id="edge16" class="edge">
<title>Node11&#45;&gt;Node9</title>
<path fill="none" stroke="#191970" d="M433.2067,-112.2455C427.7822,-104.4564 420.0339,-93.3308 413.4967,-83.9439"/>
<polygon fill="#191970" stroke="#191970" points="416.3025,-81.8485 407.7154,-75.6427 410.5583,-85.849 416.3025,-81.8485"/>
</g>
</g>
</svg>
