<?xml version="1.0" encoding="UTF-8" standalone="no"?>
<!DOCTYPE svg PUBLIC "-//W3C//DTD SVG 1.1//EN"
 "http://www.w3.org/Graphics/SVG/1.1/DTD/svg11.dtd">
<!-- Generated by graphviz version 2.40.1 (20161225.0304)
 -->
<!-- Title: drivers/dynamixel/include/dynamixel_protocol.h Pages: 1 -->
<svg width="433pt" height="106pt"
 viewBox="0.00 0.00 433.00 106.00" xmlns="http://www.w3.org/2000/svg" xmlns:xlink="http://www.w3.org/1999/xlink">
<g id="graph0" class="graph" transform="scale(1 1) rotate(0) translate(4 102)">
<title>drivers/dynamixel/include/dynamixel_protocol.h</title>
<!-- Node2 -->
<g id="node1" class="node">
<title>Node2</title>
<polygon fill="#bfbfbf" stroke="#000000" points="145,-67.5 145,-97.5 272,-97.5 272,-67.5 145,-67.5"/>
<text text-anchor="start" x="153" y="-85.5" font-family="Helvetica,sans-Serif" font-size="10.00" fill="#000000">drivers/dynamixel/include</text>
<text text-anchor="middle" x="208.5" y="-74.5" font-family="Helvetica,sans-Serif" font-size="10.00" fill="#000000">/dynamixel_protocol.h</text>
</g>
<!-- Node3 -->
<g id="node2" class="node">
<title>Node3</title>
<g id="a_node2"><a xlink:href="dynamixel__reader_8h.html" target="_top" xlink:title="Interface definition for Dynamixel packet reader. ">
<polygon fill="none" stroke="#000000" points="0,-.5 0,-30.5 127,-30.5 127,-.5 0,-.5"/>
<text text-anchor="start" x="8" y="-18.5" font-family="Helvetica,sans-Serif" font-size="10.00" fill="#000000">drivers/dynamixel/include</text>
<text text-anchor="middle" x="63.5" y="-7.5" font-family="Helvetica,sans-Serif" font-size="10.00" fill="#000000">/dynamixel_reader.h</text>
</a>
</g>
</g>
<!-- Node2&#45;&gt;Node3 -->
<g id="edge1" class="edge">
<title>Node2&#45;&gt;Node3</title>
<path fill="none" stroke="#191970" d="M166.6764,-63.1746C144.2549,-52.8143 117.034,-40.2364 96.1828,-30.6017"/>
<polygon fill="#191970" stroke="#191970" points="165.4133,-66.4465 175.9592,-67.4639 168.3495,-60.0921 165.4133,-66.4465"/>
</g>
<!-- Node4 -->
<g id="node3" class="node">
<title>Node4</title>
<g id="a_node3"><a xlink:href="dynamixel__writer_8h.html" target="_top" xlink:title="Interface definition for Dynamixel packet writer. ">
<polygon fill="none" stroke="#000000" points="145,-.5 145,-30.5 272,-30.5 272,-.5 145,-.5"/>
<text text-anchor="start" x="153" y="-18.5" font-family="Helvetica,sans-Serif" font-size="10.00" fill="#000000">drivers/dynamixel/include</text>
<text text-anchor="middle" x="208.5" y="-7.5" font-family="Helvetica,sans-Serif" font-size="10.00" fill="#000000">/dynamixel_writer.h</text>
</a>
</g>
</g>
<!-- Node2&#45;&gt;Node4 -->
<g id="edge2" class="edge">
<title>Node2&#45;&gt;Node4</title>
<path fill="none" stroke="#191970" d="M208.5,-57.0249C208.5,-48.128 208.5,-38.4287 208.5,-30.6432"/>
<polygon fill="#191970" stroke="#191970" points="205.0001,-57.2966 208.5,-67.2967 212.0001,-57.2967 205.0001,-57.2966"/>
</g>
<!-- Node5 -->
<g id="node4" class="node">
<title>Node5</title>
<g id="a_node4"><a xlink:href="dynamixel_8h.html" target="_top" xlink:title="Interface definition for Dynamixel devices driver. ">
<polygon fill="none" stroke="#000000" points="290,-6 290,-25 425,-25 425,-6 290,-6"/>
<text text-anchor="middle" x="357.5" y="-13" font-family="Helvetica,sans-Serif" font-size="10.00" fill="#000000">drivers/include/dynamixel.h</text>
</a>
</g>
</g>
<!-- Node2&#45;&gt;Node5 -->
<g id="edge3" class="edge">
<title>Node2&#45;&gt;Node5</title>
<path fill="none" stroke="#191970" d="M251.0622,-63.3613C278.8803,-50.8525 314.0267,-35.0484 336.142,-25.1039"/>
<polygon fill="#191970" stroke="#191970" points="249.6235,-60.1706 241.9385,-67.4639 252.4943,-66.5549 249.6235,-60.1706"/>
</g>
</g>
</svg>
