<?xml version="1.0" encoding="UTF-8" standalone="no"?>
<!DOCTYPE svg PUBLIC "-//W3C//DTD SVG 1.1//EN"
 "http://www.w3.org/Graphics/SVG/1.1/DTD/svg11.dtd">
<!-- Generated by graphviz version 2.40.1 (20161225.0304)
 -->
<!-- Title: drivers/dynamixel/include/dynamixel_writer.h Pages: 1 -->
<svg width="296pt" height="151pt"
 viewBox="0.00 0.00 295.50 151.00" xmlns="http://www.w3.org/2000/svg" xmlns:xlink="http://www.w3.org/1999/xlink">
<g id="graph0" class="graph" transform="scale(1 1) rotate(0) translate(4 147)">
<title>drivers/dynamixel/include/dynamixel_writer.h</title>
<!-- Node0 -->
<g id="node1" class="node">
<title>Node0</title>
<polygon fill="#bfbfbf" stroke="#000000" points="100,-112.5 100,-142.5 227,-142.5 227,-112.5 100,-112.5"/>
<text text-anchor="start" x="108" y="-130.5" font-family="Helvetica,sans-Serif" font-size="10.00" fill="#000000">drivers/dynamixel/include</text>
<text text-anchor="middle" x="163.5" y="-119.5" font-family="Helvetica,sans-Serif" font-size="10.00" fill="#000000">/dynamixel_writer.h</text>
</g>
<!-- Node1 -->
<g id="node2" class="node">
<title>Node1</title>
<g id="a_node2"><a xlink:href="dynamixel__protocol_8h.html" target="_top" xlink:title="Dynamixel protocol definitions. ">
<polygon fill="none" stroke="#000000" points="0,-56.5 0,-75.5 109,-75.5 109,-56.5 0,-56.5"/>
<text text-anchor="middle" x="54.5" y="-63.5" font-family="Helvetica,sans-Serif" font-size="10.00" fill="#000000">dynamixel_protocol.h</text>
</a>
</g>
</g>
<!-- Node0&#45;&gt;Node1 -->
<g id="edge1" class="edge">
<title>Node0&#45;&gt;Node1</title>
<path fill="none" stroke="#191970" d="M136.8356,-112.4554C119.6059,-102.734 97.3025,-90.15 80.2554,-80.5317"/>
<polygon fill="#191970" stroke="#191970" points="81.8204,-77.3961 71.3911,-75.5303 78.3806,-83.4926 81.8204,-77.3961"/>
</g>
<!-- Node2 -->
<g id="node3" class="node">
<title>Node2</title>
<polygon fill="none" stroke="#bfbfbf" points="63,-.5 63,-19.5 112,-19.5 112,-.5 63,-.5"/>
<text text-anchor="middle" x="87.5" y="-7.5" font-family="Helvetica,sans-Serif" font-size="10.00" fill="#000000">stdint.h</text>
</g>
<!-- Node0&#45;&gt;Node2 -->
<g id="edge3" class="edge">
<title>Node0&#45;&gt;Node2</title>
<path fill="none" stroke="#191970" d="M153.8351,-112.4177C144.5455,-97.9353 130.0987,-75.4497 117.5,-56 111.4855,-46.7149 104.7601,-36.3968 99.2039,-27.8895"/>
<polygon fill="#191970" stroke="#191970" points="102.1235,-25.9591 93.7225,-19.5036 96.2641,-29.789 102.1235,-25.9591"/>
</g>
<!-- Node3 -->
<g id="node4" class="node">
<title>Node3</title>
<g id="a_node4"><a xlink:href="stdlib_8h.html" target="_top" xlink:title="stdlib.h wrapper for MSP430 ">
<polygon fill="none" stroke="#000000" points="165.5,-56.5 165.5,-75.5 213.5,-75.5 213.5,-56.5 165.5,-56.5"/>
<text text-anchor="middle" x="189.5" y="-63.5" font-family="Helvetica,sans-Serif" font-size="10.00" fill="#000000">stdlib.h</text>
</a>
</g>
</g>
<!-- Node0&#45;&gt;Node3 -->
<g id="edge4" class="edge">
<title>Node0&#45;&gt;Node3</title>
<path fill="none" stroke="#191970" d="M169.927,-112.2977C173.3857,-104.1166 177.6867,-93.943 181.3754,-85.2179"/>
<polygon fill="#191970" stroke="#191970" points="184.6668,-86.4205 185.3371,-75.8469 178.2193,-83.6947 184.6668,-86.4205"/>
</g>
<!-- Node5 -->
<g id="node6" class="node">
<title>Node5</title>
<polygon fill="none" stroke="#bfbfbf" points="231.5,-56.5 231.5,-75.5 287.5,-75.5 287.5,-56.5 231.5,-56.5"/>
<text text-anchor="middle" x="259.5" y="-63.5" font-family="Helvetica,sans-Serif" font-size="10.00" fill="#000000">stdbool.h</text>
</g>
<!-- Node0&#45;&gt;Node5 -->
<g id="edge7" class="edge">
<title>Node0&#45;&gt;Node5</title>
<path fill="none" stroke="#191970" d="M187.2303,-112.2977C202.0362,-102.8127 221.0228,-90.6495 235.8193,-81.1705"/>
<polygon fill="#191970" stroke="#191970" points="237.8835,-84.0047 244.4159,-75.6633 234.1075,-78.1105 237.8835,-84.0047"/>
</g>
<!-- Node1&#45;&gt;Node2 -->
<g id="edge2" class="edge">
<title>Node1&#45;&gt;Node2</title>
<path fill="none" stroke="#191970" d="M60.2482,-56.2455C64.7435,-48.617 71.1248,-37.7881 76.5825,-28.5267"/>
<polygon fill="#191970" stroke="#191970" points="79.7561,-30.035 81.8177,-19.6427 73.7253,-26.4811 79.7561,-30.035"/>
</g>
<!-- Node4 -->
<g id="node5" class="node">
<title>Node4</title>
<g id="a_node5"><a xlink:href="malloc_8h.html" target="_top" xlink:title="malloc.h">
<polygon fill="none" stroke="#000000" points="163,-.5 163,-19.5 216,-19.5 216,-.5 163,-.5"/>
<text text-anchor="middle" x="189.5" y="-7.5" font-family="Helvetica,sans-Serif" font-size="10.00" fill="#000000">malloc.h</text>
</a>
</g>
</g>
<!-- Node3&#45;&gt;Node4 -->
<g id="edge5" class="edge">
<title>Node3&#45;&gt;Node4</title>
<path fill="none" stroke="#191970" d="M184.2332,-56.2455C182.8221,-48.9382 182.4179,-38.6944 183.0205,-29.7046"/>
<polygon fill="#191970" stroke="#191970" points="186.5111,-29.9945 184.2549,-19.6427 179.5632,-29.1421 186.5111,-29.9945"/>
</g>
<!-- Node4&#45;&gt;Node3 -->
<g id="edge6" class="edge">
<title>Node4&#45;&gt;Node3</title>
<path fill="none" stroke="#191970" d="M194.7451,-19.6427C196.1665,-26.9199 196.581,-37.155 195.9887,-46.1575"/>
<polygon fill="#191970" stroke="#191970" points="192.4947,-45.8972 194.7668,-56.2455 199.4439,-46.739 192.4947,-45.8972"/>
</g>
</g>
</svg>
