<?xml version="1.0" encoding="UTF-8" standalone="no"?>
<!DOCTYPE svg PUBLIC "-//W3C//DTD SVG 1.1//EN"
 "http://www.w3.org/Graphics/SVG/1.1/DTD/svg11.dtd">
<!-- Generated by graphviz version 2.40.1 (20161225.0304)
 -->
<!-- Title: drivers/dynamixel/include/dynamixel_reader.h Pages: 1 -->
<svg width="260pt" height="151pt"
 viewBox="0.00 0.00 260.00 151.00" xmlns="http://www.w3.org/2000/svg" xmlns:xlink="http://www.w3.org/1999/xlink">
<g id="graph0" class="graph" transform="scale(1 1) rotate(0) translate(4 147)">
<title>drivers/dynamixel/include/dynamixel_reader.h</title>
<!-- Node0 -->
<g id="node1" class="node">
<title>Node0</title>
<polygon fill="#bfbfbf" stroke="#000000" points="33,-112.5 33,-142.5 160,-142.5 160,-112.5 33,-112.5"/>
<text text-anchor="start" x="41" y="-130.5" font-family="Helvetica,sans-Serif" font-size="10.00" fill="#000000">drivers/dynamixel/include</text>
<text text-anchor="middle" x="96.5" y="-119.5" font-family="Helvetica,sans-Serif" font-size="10.00" fill="#000000">/dynamixel_reader.h</text>
</g>
<!-- Node1 -->
<g id="node2" class="node">
<title>Node1</title>
<g id="a_node2"><a xlink:href="stdlib_8h.html" target="_top" xlink:title="stdlib.h wrapper for MSP430 ">
<polygon fill="none" stroke="#000000" points="2.5,-56.5 2.5,-75.5 50.5,-75.5 50.5,-56.5 2.5,-56.5"/>
<text text-anchor="middle" x="26.5" y="-63.5" font-family="Helvetica,sans-Serif" font-size="10.00" fill="#000000">stdlib.h</text>
</a>
</g>
</g>
<!-- Node0&#45;&gt;Node1 -->
<g id="edge1" class="edge">
<title>Node0&#45;&gt;Node1</title>
<path fill="none" stroke="#191970" d="M79.1966,-112.2977C68.9738,-103.3163 56.0177,-91.9334 45.5104,-82.702"/>
<polygon fill="#191970" stroke="#191970" points="47.5305,-79.8178 37.7079,-75.8469 42.9103,-85.0766 47.5305,-79.8178"/>
</g>
<!-- Node3 -->
<g id="node4" class="node">
<title>Node3</title>
<polygon fill="none" stroke="#bfbfbf" points="68.5,-56.5 68.5,-75.5 124.5,-75.5 124.5,-56.5 68.5,-56.5"/>
<text text-anchor="middle" x="96.5" y="-63.5" font-family="Helvetica,sans-Serif" font-size="10.00" fill="#000000">stdbool.h</text>
</g>
<!-- Node0&#45;&gt;Node3 -->
<g id="edge4" class="edge">
<title>Node0&#45;&gt;Node3</title>
<path fill="none" stroke="#191970" d="M96.5,-112.2977C96.5,-104.3834 96.5,-94.6043 96.5,-86.0759"/>
<polygon fill="#191970" stroke="#191970" points="100.0001,-85.8469 96.5,-75.8469 93.0001,-85.847 100.0001,-85.8469"/>
</g>
<!-- Node4 -->
<g id="node5" class="node">
<title>Node4</title>
<g id="a_node5"><a xlink:href="dynamixel__protocol_8h.html" target="_top" xlink:title="Dynamixel protocol definitions. ">
<polygon fill="none" stroke="#000000" points="143,-56.5 143,-75.5 252,-75.5 252,-56.5 143,-56.5"/>
<text text-anchor="middle" x="197.5" y="-63.5" font-family="Helvetica,sans-Serif" font-size="10.00" fill="#000000">dynamixel_protocol.h</text>
</a>
</g>
</g>
<!-- Node0&#45;&gt;Node4 -->
<g id="edge5" class="edge">
<title>Node0&#45;&gt;Node4</title>
<path fill="none" stroke="#191970" d="M121.2074,-112.4554C137.0247,-102.8241 157.4567,-90.3828 173.1949,-80.7996"/>
<polygon fill="#191970" stroke="#191970" points="175.1277,-83.7206 181.8486,-75.5303 171.4871,-77.7418 175.1277,-83.7206"/>
</g>
<!-- Node2 -->
<g id="node3" class="node">
<title>Node2</title>
<g id="a_node3"><a xlink:href="malloc_8h.html" target="_top" xlink:title="malloc.h">
<polygon fill="none" stroke="#000000" points="0,-.5 0,-19.5 53,-19.5 53,-.5 0,-.5"/>
<text text-anchor="middle" x="26.5" y="-7.5" font-family="Helvetica,sans-Serif" font-size="10.00" fill="#000000">malloc.h</text>
</a>
</g>
</g>
<!-- Node1&#45;&gt;Node2 -->
<g id="edge2" class="edge">
<title>Node1&#45;&gt;Node2</title>
<path fill="none" stroke="#191970" d="M21.2332,-56.2455C19.8221,-48.9382 19.4179,-38.6944 20.0205,-29.7046"/>
<polygon fill="#191970" stroke="#191970" points="23.5111,-29.9945 21.2549,-19.6427 16.5632,-29.1421 23.5111,-29.9945"/>
</g>
<!-- Node2&#45;&gt;Node1 -->
<g id="edge3" class="edge">
<title>Node2&#45;&gt;Node1</title>
<path fill="none" stroke="#191970" d="M31.7451,-19.6427C33.1665,-26.9199 33.581,-37.155 32.9887,-46.1575"/>
<polygon fill="#191970" stroke="#191970" points="29.4947,-45.8972 31.7668,-56.2455 36.4439,-46.739 29.4947,-45.8972"/>
</g>
<!-- Node5 -->
<g id="node6" class="node">
<title>Node5</title>
<polygon fill="none" stroke="#bfbfbf" points="173,-.5 173,-19.5 222,-19.5 222,-.5 173,-.5"/>
<text text-anchor="middle" x="197.5" y="-7.5" font-family="Helvetica,sans-Serif" font-size="10.00" fill="#000000">stdint.h</text>
</g>
<!-- Node4&#45;&gt;Node5 -->
<g id="edge6" class="edge">
<title>Node4&#45;&gt;Node5</title>
<path fill="none" stroke="#191970" d="M197.5,-56.2455C197.5,-48.9382 197.5,-38.6944 197.5,-29.7046"/>
<polygon fill="#191970" stroke="#191970" points="201.0001,-29.6426 197.5,-19.6427 194.0001,-29.6427 201.0001,-29.6426"/>
</g>
</g>
</svg>
