<?xml version="1.0" encoding="UTF-8" standalone="no"?>
<!DOCTYPE svg PUBLIC "-//W3C//DTD SVG 1.1//EN"
 "http://www.w3.org/Graphics/SVG/1.1/DTD/svg11.dtd">
<!-- Generated by graphviz version 2.40.1 (20161225.0304)
 -->
<!-- Title: drivers/include/edbg_eui.h Pages: 1 -->
<svg width="162pt" height="207pt"
 viewBox="0.00 0.00 161.50 207.00" xmlns="http://www.w3.org/2000/svg" xmlns:xlink="http://www.w3.org/1999/xlink">
<g id="graph0" class="graph" transform="scale(1 1) rotate(0) translate(4 203)">
<title>drivers/include/edbg_eui.h</title>
<!-- Node0 -->
<g id="node1" class="node">
<title>Node0</title>
<polygon fill="#bfbfbf" stroke="#000000" points="0,-168.5 0,-198.5 104,-198.5 104,-168.5 0,-168.5"/>
<text text-anchor="start" x="8" y="-186.5" font-family="Helvetica,sans-Serif" font-size="10.00" fill="#000000">drivers/include/edbg</text>
<text text-anchor="middle" x="52" y="-175.5" font-family="Helvetica,sans-Serif" font-size="10.00" fill="#000000">_eui.h</text>
</g>
<!-- Node1 -->
<g id="node2" class="node">
<title>Node1</title>
<polygon fill="none" stroke="#bfbfbf" points="35.5,-.5 35.5,-19.5 84.5,-19.5 84.5,-.5 35.5,-.5"/>
<text text-anchor="middle" x="60" y="-7.5" font-family="Helvetica,sans-Serif" font-size="10.00" fill="#000000">stdint.h</text>
</g>
<!-- Node0&#45;&gt;Node1 -->
<g id="edge1" class="edge">
<title>Node0&#45;&gt;Node1</title>
<path fill="none" stroke="#191970" d="M47.8757,-168.3118C45.3287,-158.1271 42.3058,-144.3652 41,-132 37.1541,-95.5823 46.9024,-53.4399 53.8139,-29.431"/>
<polygon fill="#191970" stroke="#191970" points="57.1935,-30.3464 56.7309,-19.7616 50.4918,-28.3246 57.1935,-30.3464"/>
</g>
<!-- Node2 -->
<g id="node3" class="node">
<title>Node2</title>
<g id="a_node3"><a xlink:href="eui64_8h.html" target="_top" xlink:title="EUI&#45;64 data type definition. ">
<polygon fill="none" stroke="#000000" points="50.5,-112.5 50.5,-131.5 115.5,-131.5 115.5,-112.5 50.5,-112.5"/>
<text text-anchor="middle" x="83" y="-119.5" font-family="Helvetica,sans-Serif" font-size="10.00" fill="#000000">net/eui64.h</text>
</a>
</g>
</g>
<!-- Node0&#45;&gt;Node2 -->
<g id="edge2" class="edge">
<title>Node0&#45;&gt;Node2</title>
<path fill="none" stroke="#191970" d="M59.6629,-168.2977C63.8316,-160.0277 69.0265,-149.7215 73.4561,-140.9339"/>
<polygon fill="#191970" stroke="#191970" points="76.6607,-142.3521 78.0365,-131.8469 70.4099,-139.2012 76.6607,-142.3521"/>
</g>
<!-- Node2&#45;&gt;Node1 -->
<g id="edge3" class="edge">
<title>Node2&#45;&gt;Node1</title>
<path fill="none" stroke="#191970" d="M81.039,-112.4509C77.2708,-94.1013 68.9517,-53.5908 63.9776,-29.3693"/>
<polygon fill="#191970" stroke="#191970" points="67.3961,-28.6164 61.956,-19.5249 60.5392,-30.0246 67.3961,-28.6164"/>
</g>
<!-- Node3 -->
<g id="node4" class="node">
<title>Node3</title>
<g id="a_node4"><a xlink:href="byteorder_8h.html" target="_top" xlink:title="Functions to work with different byte orders. ">
<polygon fill="none" stroke="#000000" points="88.5,-56.5 88.5,-75.5 153.5,-75.5 153.5,-56.5 88.5,-56.5"/>
<text text-anchor="middle" x="121" y="-63.5" font-family="Helvetica,sans-Serif" font-size="10.00" fill="#000000">byteorder.h</text>
</a>
</g>
</g>
<!-- Node2&#45;&gt;Node3 -->
<g id="edge4" class="edge">
<title>Node2&#45;&gt;Node3</title>
<path fill="none" stroke="#191970" d="M89.6191,-112.2455C94.9046,-104.4564 102.4541,-93.3308 108.8238,-83.9439"/>
<polygon fill="#191970" stroke="#191970" points="111.7379,-85.8827 114.4568,-75.6427 105.9455,-81.9522 111.7379,-85.8827"/>
</g>
<!-- Node3&#45;&gt;Node1 -->
<g id="edge5" class="edge">
<title>Node3&#45;&gt;Node1</title>
<path fill="none" stroke="#191970" d="M110.3746,-56.2455C101.4527,-48.0549 88.512,-36.1749 77.9808,-26.5069"/>
<polygon fill="#191970" stroke="#191970" points="80.2371,-23.8271 70.5036,-19.6427 75.5032,-28.9837 80.2371,-23.8271"/>
</g>
</g>
</svg>
