<?xml version="1.0" encoding="UTF-8" standalone="no"?>
<!DOCTYPE svg PUBLIC "-//W3C//DTD SVG 1.1//EN"
 "http://www.w3.org/Graphics/SVG/1.1/DTD/svg11.dtd">
<!-- Generated by graphviz version 2.43.0 (0)
 -->
<!-- Title: drivers/include/edbg_eui.h Pages: 1 -->
<svg width="212pt" height="263pt"
 viewBox="0.00 0.00 212.00 263.00" xmlns="http://www.w3.org/2000/svg" xmlns:xlink="http://www.w3.org/1999/xlink">
<g id="graph0" class="graph" transform="scale(1 1) rotate(0) translate(4 259)">
<title>drivers/include/edbg_eui.h</title>
<!-- Node1 -->
<g id="node1" class="node">
<title>Node1</title>
<g id="a_node1"><a xlink:title=" ">
<polygon fill="#bfbfbf" stroke="black" points="0,-224.5 0,-254.5 116,-254.5 116,-224.5 0,-224.5"/>
<text text-anchor="start" x="8" y="-242.5" font-family="Helvetica,sans-Serif" font-size="10.00">drivers/include/edbg</text>
<text text-anchor="middle" x="58" y="-231.5" font-family="Helvetica,sans-Serif" font-size="10.00">_eui.h</text>
</a>
</g>
</g>
<!-- Node2 -->
<g id="node2" class="node">
<title>Node2</title>
<g id="a_node2"><a xlink:title=" ">
<polygon fill="none" stroke="#bfbfbf" points="56.5,-0.5 56.5,-19.5 109.5,-19.5 109.5,-0.5 56.5,-0.5"/>
<text text-anchor="middle" x="83" y="-7.5" font-family="Helvetica,sans-Serif" font-size="10.00">stdint.h</text>
</a>
</g>
</g>
<!-- Node1&#45;&gt;Node2 -->
<g id="edge1" class="edge">
<title>Node1&#45;&gt;Node2</title>
<path fill="none" stroke="midnightblue" d="M53.26,-224.1C50.22,-214.1 46.57,-200.39 45,-188 37.55,-129.17 61.72,-60.92 74.95,-29.08"/>
<polygon fill="midnightblue" stroke="midnightblue" points="78.23,-30.32 78.96,-19.75 71.8,-27.56 78.23,-30.32"/>
</g>
<!-- Node3 -->
<g id="node3" class="node">
<title>Node3</title>
<g id="a_node3"><a xlink:href="eui64_8h.html" target="_top" xlink:title="EUI&#45;64 data type definition.">
<polygon fill="none" stroke="black" points="54.5,-168.5 54.5,-187.5 125.5,-187.5 125.5,-168.5 54.5,-168.5"/>
<text text-anchor="middle" x="90" y="-175.5" font-family="Helvetica,sans-Serif" font-size="10.00">net/eui64.h</text>
</a>
</g>
</g>
<!-- Node1&#45;&gt;Node3 -->
<g id="edge2" class="edge">
<title>Node1&#45;&gt;Node3</title>
<path fill="none" stroke="midnightblue" d="M65.58,-224.4C70.04,-216.11 75.72,-205.55 80.48,-196.71"/>
<polygon fill="midnightblue" stroke="midnightblue" points="83.69,-198.12 85.34,-187.66 77.52,-194.81 83.69,-198.12"/>
</g>
<!-- Node3&#45;&gt;Node2 -->
<g id="edge3" class="edge">
<title>Node3&#45;&gt;Node2</title>
<path fill="none" stroke="midnightblue" d="M88.26,-168.42C86.53,-159.4 83.99,-144.77 83,-132 80.2,-95.82 81.18,-53.38 82.11,-29.59"/>
<polygon fill="midnightblue" stroke="midnightblue" points="85.61,-29.67 82.55,-19.53 78.62,-29.36 85.61,-29.67"/>
</g>
<!-- Node4 -->
<g id="node4" class="node">
<title>Node4</title>
<g id="a_node4"><a xlink:href="byteorder_8h.html" target="_top" xlink:title="Functions to work with different byte orders.">
<polygon fill="none" stroke="black" points="92.5,-112.5 92.5,-131.5 165.5,-131.5 165.5,-112.5 92.5,-112.5"/>
<text text-anchor="middle" x="129" y="-119.5" font-family="Helvetica,sans-Serif" font-size="10.00">byteorder.h</text>
</a>
</g>
</g>
<!-- Node3&#45;&gt;Node4 -->
<g id="edge4" class="edge">
<title>Node3&#45;&gt;Node4</title>
<path fill="none" stroke="midnightblue" d="M96.44,-168.08C101.95,-160.46 110.03,-149.26 116.76,-139.94"/>
<polygon fill="midnightblue" stroke="midnightblue" points="119.66,-141.91 122.68,-131.75 113.99,-137.81 119.66,-141.91"/>
</g>
<!-- Node4&#45;&gt;Node2 -->
<g id="edge5" class="edge">
<title>Node4&#45;&gt;Node2</title>
<path fill="none" stroke="midnightblue" d="M125.39,-112.37C117.9,-94.46 100.53,-52.92 90.51,-28.95"/>
<polygon fill="midnightblue" stroke="midnightblue" points="93.68,-27.47 86.59,-19.59 87.22,-30.17 93.68,-27.47"/>
</g>
<!-- Node5 -->
<g id="node5" class="node">
<title>Node5</title>
<g id="a_node5"><a xlink:href="unaligned_8h.html" target="_top" xlink:title="Unaligned but safe memory access functions.">
<polygon fill="none" stroke="black" points="130,-56.5 130,-75.5 204,-75.5 204,-56.5 130,-56.5"/>
<text text-anchor="middle" x="167" y="-63.5" font-family="Helvetica,sans-Serif" font-size="10.00">unaligned.h</text>
</a>
</g>
</g>
<!-- Node4&#45;&gt;Node5 -->
<g id="edge6" class="edge">
<title>Node4&#45;&gt;Node5</title>
<path fill="none" stroke="midnightblue" d="M135.27,-112.08C140.64,-104.46 148.52,-93.26 155.08,-83.94"/>
<polygon fill="midnightblue" stroke="midnightblue" points="157.95,-85.94 160.84,-75.75 152.22,-81.91 157.95,-85.94"/>
</g>
<!-- Node5&#45;&gt;Node2 -->
<g id="edge7" class="edge">
<title>Node5&#45;&gt;Node2</title>
<path fill="none" stroke="midnightblue" d="M153.5,-56.32C140.4,-47.9 120.29,-34.97 104.89,-25.07"/>
<polygon fill="midnightblue" stroke="midnightblue" points="106.77,-22.12 96.46,-19.65 102.98,-28.01 106.77,-22.12"/>
</g>
</g>
</svg>
