<?xml version="1.0" encoding="UTF-8" standalone="no"?>
<!DOCTYPE svg PUBLIC "-//W3C//DTD SVG 1.1//EN"
 "http://www.w3.org/Graphics/SVG/1.1/DTD/svg11.dtd">
<!-- Generated by graphviz version 2.40.1 (20161225.0304)
 -->
<!-- Title: cpu/efm32/include/periph_cpu.h Pages: 1 -->
<svg width="755pt" height="151pt"
 viewBox="0.00 0.00 754.50 151.00" xmlns="http://www.w3.org/2000/svg" xmlns:xlink="http://www.w3.org/1999/xlink">
<g id="graph0" class="graph" transform="scale(1 1) rotate(0) translate(4 147)">
<title>cpu/efm32/include/periph_cpu.h</title>
<!-- Node0 -->
<g id="node1" class="node">
<title>Node0</title>
<polygon fill="#bfbfbf" stroke="#000000" points="366.5,-112.5 366.5,-142.5 491.5,-142.5 491.5,-112.5 366.5,-112.5"/>
<text text-anchor="start" x="374.5" y="-130.5" font-family="Helvetica,sans-Serif" font-size="10.00" fill="#000000">cpu/efm32/include/periph</text>
<text text-anchor="middle" x="429" y="-119.5" font-family="Helvetica,sans-Serif" font-size="10.00" fill="#000000">_cpu.h</text>
</g>
<!-- Node1 -->
<g id="node2" class="node">
<title>Node1</title>
<g id="a_node2"><a xlink:href="mutex_8h.html" target="_top" xlink:title="Mutex for thread synchronization. ">
<polygon fill="none" stroke="#000000" points="100,-56.5 100,-75.5 152,-75.5 152,-56.5 100,-56.5"/>
<text text-anchor="middle" x="126" y="-63.5" font-family="Helvetica,sans-Serif" font-size="10.00" fill="#000000">mutex.h</text>
</a>
</g>
</g>
<!-- Node0&#45;&gt;Node1 -->
<g id="edge1" class="edge">
<title>Node0&#45;&gt;Node1</title>
<path fill="none" stroke="#191970" d="M366.2182,-114.7572C304.561,-102.2426 212.6338,-83.5841 162.2536,-73.3584"/>
<polygon fill="#191970" stroke="#191970" points="162.6559,-69.8688 152.1595,-71.3096 161.2635,-76.7289 162.6559,-69.8688"/>
</g>
<!-- Node5 -->
<g id="node6" class="node">
<title>Node5</title>
<g id="a_node6"><a xlink:href="efm32_2include_2cpu__conf_8h.html" target="_top" xlink:title="Implementation specific CPU configuration options. ">
<polygon fill="none" stroke="#000000" points="238.5,-56.5 238.5,-75.5 303.5,-75.5 303.5,-56.5 238.5,-56.5"/>
<text text-anchor="middle" x="271" y="-63.5" font-family="Helvetica,sans-Serif" font-size="10.00" fill="#000000">cpu_conf.h</text>
</a>
</g>
</g>
<!-- Node0&#45;&gt;Node5 -->
<g id="edge5" class="edge">
<title>Node0&#45;&gt;Node5</title>
<path fill="none" stroke="#191970" d="M390.3489,-112.4554C364.2174,-102.284 330.0347,-88.9787 304.9519,-79.2155"/>
<polygon fill="#191970" stroke="#191970" points="306.0729,-75.8961 295.4844,-75.5303 303.5338,-82.4193 306.0729,-75.8961"/>
</g>
<!-- Node7 -->
<g id="node8" class="node">
<title>Node7</title>
<polygon fill="none" stroke="#bfbfbf" points="320,-.5 320,-19.5 392,-19.5 392,-.5 320,-.5"/>
<text text-anchor="middle" x="356" y="-7.5" font-family="Helvetica,sans-Serif" font-size="10.00" fill="#000000">em_device.h</text>
</g>
<!-- Node0&#45;&gt;Node7 -->
<g id="edge10" class="edge">
<title>Node0&#45;&gt;Node7</title>
<path fill="none" stroke="#191970" d="M392.1828,-112.4687C376.8532,-104.1524 360.6389,-92.1711 352,-76 344.4028,-61.779 346.346,-43.2958 349.6478,-29.508"/>
<polygon fill="#191970" stroke="#191970" points="353.0883,-30.2026 352.4308,-19.6282 346.3505,-28.3046 353.0883,-30.2026"/>
</g>
<!-- Node8 -->
<g id="node9" class="node">
<title>Node8</title>
<polygon fill="none" stroke="#bfbfbf" points="360.5,-56.5 360.5,-75.5 419.5,-75.5 419.5,-56.5 360.5,-56.5"/>
<text text-anchor="middle" x="390" y="-63.5" font-family="Helvetica,sans-Serif" font-size="10.00" fill="#000000">em_adc.h</text>
</g>
<!-- Node0&#45;&gt;Node8 -->
<g id="edge8" class="edge">
<title>Node0&#45;&gt;Node8</title>
<path fill="none" stroke="#191970" d="M419.3595,-112.2977C414.0023,-103.8498 407.2978,-93.2773 401.6487,-84.369"/>
<polygon fill="#191970" stroke="#191970" points="404.5556,-82.4176 396.2444,-75.8469 398.6441,-86.1664 404.5556,-82.4176"/>
</g>
<!-- Node9 -->
<g id="node10" class="node">
<title>Node9</title>
<polygon fill="none" stroke="#bfbfbf" points="438,-56.5 438,-75.5 500,-75.5 500,-56.5 438,-56.5"/>
<text text-anchor="middle" x="469" y="-63.5" font-family="Helvetica,sans-Serif" font-size="10.00" fill="#000000">em_cmu.h</text>
</g>
<!-- Node0&#45;&gt;Node9 -->
<g id="edge9" class="edge">
<title>Node0&#45;&gt;Node9</title>
<path fill="none" stroke="#191970" d="M438.8876,-112.2977C444.3822,-103.8498 451.2586,-93.2773 457.0527,-84.369"/>
<polygon fill="#191970" stroke="#191970" points="460.0772,-86.1381 462.5955,-75.8469 454.2092,-82.3215 460.0772,-86.1381"/>
</g>
<!-- Node10 -->
<g id="node11" class="node">
<title>Node10</title>
<polygon fill="none" stroke="#bfbfbf" points="518,-56.5 518,-75.5 580,-75.5 580,-56.5 518,-56.5"/>
<text text-anchor="middle" x="549" y="-63.5" font-family="Helvetica,sans-Serif" font-size="10.00" fill="#000000">em_gpio.h</text>
</g>
<!-- Node0&#45;&gt;Node10 -->
<g id="edge11" class="edge">
<title>Node0&#45;&gt;Node10</title>
<path fill="none" stroke="#191970" d="M458.3553,-112.4554C477.5873,-102.599 502.5612,-89.7999 521.4241,-80.1327"/>
<polygon fill="#191970" stroke="#191970" points="523.1013,-83.206 530.4043,-75.5303 519.9086,-76.9765 523.1013,-83.206"/>
</g>
<!-- Node11 -->
<g id="node12" class="node">
<title>Node11</title>
<polygon fill="none" stroke="#bfbfbf" points="598.5,-56.5 598.5,-75.5 663.5,-75.5 663.5,-56.5 598.5,-56.5"/>
<text text-anchor="middle" x="631" y="-63.5" font-family="Helvetica,sans-Serif" font-size="10.00" fill="#000000">em_timer.h</text>
</g>
<!-- Node0&#45;&gt;Node11 -->
<g id="edge12" class="edge">
<title>Node0&#45;&gt;Node11</title>
<path fill="none" stroke="#191970" d="M478.4148,-112.4554C512.7103,-102.0139 557.853,-88.27 590.1222,-78.4455"/>
<polygon fill="#191970" stroke="#191970" points="591.1501,-81.7912 599.6972,-75.5303 589.1113,-75.0947 591.1501,-81.7912"/>
</g>
<!-- Node12 -->
<g id="node13" class="node">
<title>Node12</title>
<polygon fill="none" stroke="#bfbfbf" points="681.5,-56.5 681.5,-75.5 746.5,-75.5 746.5,-56.5 681.5,-56.5"/>
<text text-anchor="middle" x="714" y="-63.5" font-family="Helvetica,sans-Serif" font-size="10.00" fill="#000000">em_usart.h</text>
</g>
<!-- Node0&#45;&gt;Node12 -->
<g id="edge13" class="edge">
<title>Node0&#45;&gt;Node12</title>
<path fill="none" stroke="#191970" d="M491.5493,-114.8581C538.5973,-105.2204 604.9013,-91.3665 671.5191,-76.2936"/>
<polygon fill="#191970" stroke="#191970" points="672.3716,-79.6892 681.348,-74.0612 670.8211,-72.863 672.3716,-79.6892"/>
</g>
<!-- Node2 -->
<g id="node3" class="node">
<title>Node2</title>
<polygon fill="none" stroke="#bfbfbf" points="0,-.5 0,-19.5 52,-19.5 52,-.5 0,-.5"/>
<text text-anchor="middle" x="26" y="-7.5" font-family="Helvetica,sans-Serif" font-size="10.00" fill="#000000">stddef.h</text>
</g>
<!-- Node1&#45;&gt;Node2 -->
<g id="edge2" class="edge">
<title>Node1&#45;&gt;Node2</title>
<path fill="none" stroke="#191970" d="M108.5813,-56.2455C92.9515,-47.4928 69.7981,-34.527 51.9815,-24.5496"/>
<polygon fill="#191970" stroke="#191970" points="53.6543,-21.475 43.2191,-19.6427 50.234,-27.5825 53.6543,-21.475"/>
</g>
<!-- Node3 -->
<g id="node4" class="node">
<title>Node3</title>
<polygon fill="none" stroke="#bfbfbf" points="70.5,-.5 70.5,-19.5 119.5,-19.5 119.5,-.5 70.5,-.5"/>
<text text-anchor="middle" x="95" y="-7.5" font-family="Helvetica,sans-Serif" font-size="10.00" fill="#000000">stdint.h</text>
</g>
<!-- Node1&#45;&gt;Node3 -->
<g id="edge3" class="edge">
<title>Node1&#45;&gt;Node3</title>
<path fill="none" stroke="#191970" d="M120.6002,-56.2455C116.3773,-48.617 110.3827,-37.7881 105.2559,-28.5267"/>
<polygon fill="#191970" stroke="#191970" points="108.2432,-26.6965 100.3379,-19.6427 102.119,-30.0867 108.2432,-26.6965"/>
</g>
<!-- Node4 -->
<g id="node5" class="node">
<title>Node4</title>
<g id="a_node5"><a xlink:href="list_8h.html" target="_top" xlink:title="Intrusive linked list. ">
<polygon fill="none" stroke="#000000" points="138,-.5 138,-19.5 176,-19.5 176,-.5 138,-.5"/>
<text text-anchor="middle" x="157" y="-7.5" font-family="Helvetica,sans-Serif" font-size="10.00" fill="#000000">list.h</text>
</a>
</g>
</g>
<!-- Node1&#45;&gt;Node4 -->
<g id="edge4" class="edge">
<title>Node1&#45;&gt;Node4</title>
<path fill="none" stroke="#191970" d="M131.3998,-56.2455C135.6227,-48.617 141.6173,-37.7881 146.7441,-28.5267"/>
<polygon fill="#191970" stroke="#191970" points="149.881,-30.0867 151.6621,-19.6427 143.7568,-26.6965 149.881,-30.0867"/>
</g>
<!-- Node6 -->
<g id="node7" class="node">
<title>Node6</title>
<polygon fill="none" stroke="#bfbfbf" points="194.5,-.5 194.5,-19.5 301.5,-19.5 301.5,-.5 194.5,-.5"/>
<text text-anchor="middle" x="248" y="-7.5" font-family="Helvetica,sans-Serif" font-size="10.00" fill="#000000">cpu_conf_common.h</text>
</g>
<!-- Node5&#45;&gt;Node6 -->
<g id="edge6" class="edge">
<title>Node5&#45;&gt;Node6</title>
<path fill="none" stroke="#191970" d="M266.9937,-56.2455C263.9265,-48.7776 259.5997,-38.2427 255.8503,-29.1137"/>
<polygon fill="#191970" stroke="#191970" points="258.9972,-27.5631 251.9604,-19.6427 252.5221,-30.2226 258.9972,-27.5631"/>
</g>
<!-- Node5&#45;&gt;Node7 -->
<g id="edge7" class="edge">
<title>Node5&#45;&gt;Node7</title>
<path fill="none" stroke="#191970" d="M285.8059,-56.2455C298.7256,-47.7337 317.6931,-35.2375 332.6552,-25.3801"/>
<polygon fill="#191970" stroke="#191970" points="334.9387,-28.067 341.3638,-19.6427 331.0876,-22.2216 334.9387,-28.067"/>
</g>
</g>
</svg>
