<?xml version="1.0" encoding="UTF-8" standalone="no"?>
<!DOCTYPE svg PUBLIC "-//W3C//DTD SVG 1.1//EN"
 "http://www.w3.org/Graphics/SVG/1.1/DTD/svg11.dtd">
<!-- Generated by graphviz version 2.40.1 (20161225.0304)
 -->
<!-- Title: boards/ek&#45;lm4f120xl/include/board.h Pages: 1 -->
<svg width="444pt" height="207pt"
 viewBox="0.00 0.00 444.00 207.00" xmlns="http://www.w3.org/2000/svg" xmlns:xlink="http://www.w3.org/1999/xlink">
<g id="graph0" class="graph" transform="scale(1 1) rotate(0) translate(4 203)">
<title>boards/ek&#45;lm4f120xl/include/board.h</title>
<!-- Node0 -->
<g id="node1" class="node">
<title>Node0</title>
<polygon fill="#bfbfbf" stroke="#000000" points="107,-168.5 107,-198.5 211,-198.5 211,-168.5 107,-168.5"/>
<text text-anchor="start" x="115" y="-186.5" font-family="Helvetica,sans-Serif" font-size="10.00" fill="#000000">boards/ek&#45;lm4f120xl</text>
<text text-anchor="middle" x="159" y="-175.5" font-family="Helvetica,sans-Serif" font-size="10.00" fill="#000000">/include/board.h</text>
</g>
<!-- Node1 -->
<g id="node2" class="node">
<title>Node1</title>
<polygon fill="none" stroke="#bfbfbf" points="64.5,-112.5 64.5,-131.5 105.5,-131.5 105.5,-112.5 64.5,-112.5"/>
<text text-anchor="middle" x="85" y="-119.5" font-family="Helvetica,sans-Serif" font-size="10.00" fill="#000000">cpu.h</text>
</g>
<!-- Node0&#45;&gt;Node1 -->
<g id="edge1" class="edge">
<title>Node0&#45;&gt;Node1</title>
<path fill="none" stroke="#191970" d="M140.7079,-168.2977C129.7939,-159.2274 115.9329,-147.7077 104.7676,-138.4285"/>
<polygon fill="#191970" stroke="#191970" points="106.7762,-135.5468 96.8483,-131.8469 102.302,-140.9303 106.7762,-135.5468"/>
</g>
<!-- Node2 -->
<g id="node3" class="node">
<title>Node2</title>
<g id="a_node3"><a xlink:href="uart_8h.html" target="_top" xlink:title="Low&#45;level UART peripheral driver interface definition. ">
<polygon fill="none" stroke="#000000" points="123.5,-112.5 123.5,-131.5 194.5,-131.5 194.5,-112.5 123.5,-112.5"/>
<text text-anchor="middle" x="159" y="-119.5" font-family="Helvetica,sans-Serif" font-size="10.00" fill="#000000">periph/uart.h</text>
</a>
</g>
</g>
<!-- Node0&#45;&gt;Node2 -->
<g id="edge2" class="edge">
<title>Node0&#45;&gt;Node2</title>
<path fill="none" stroke="#191970" d="M159,-168.2977C159,-160.3834 159,-150.6043 159,-142.0759"/>
<polygon fill="#191970" stroke="#191970" points="162.5001,-141.8469 159,-131.8469 155.5001,-141.847 162.5001,-141.8469"/>
</g>
<!-- Node9 -->
<g id="node10" class="node">
<title>Node9</title>
<g id="a_node10"><a xlink:href="drivers_2include_2periph_2timer_8h.html" target="_top" xlink:title="Low&#45;level timer peripheral driver interface definitions. ">
<polygon fill="none" stroke="#000000" points="213,-112.5 213,-131.5 289,-131.5 289,-112.5 213,-112.5"/>
<text text-anchor="middle" x="251" y="-119.5" font-family="Helvetica,sans-Serif" font-size="10.00" fill="#000000">periph/timer.h</text>
</a>
</g>
</g>
<!-- Node0&#45;&gt;Node9 -->
<g id="edge10" class="edge">
<title>Node0&#45;&gt;Node9</title>
<path fill="none" stroke="#191970" d="M181.7416,-168.2977C195.7967,-158.9022 213.783,-146.8787 227.9036,-137.4395"/>
<polygon fill="#191970" stroke="#191970" points="230.1759,-140.1305 236.5444,-131.6633 226.2857,-134.311 230.1759,-140.1305"/>
</g>
<!-- Node3 -->
<g id="node4" class="node">
<title>Node3</title>
<polygon fill="none" stroke="#bfbfbf" points="0,-56.5 0,-75.5 52,-75.5 52,-56.5 0,-56.5"/>
<text text-anchor="middle" x="26" y="-63.5" font-family="Helvetica,sans-Serif" font-size="10.00" fill="#000000">stddef.h</text>
</g>
<!-- Node2&#45;&gt;Node3 -->
<g id="edge3" class="edge">
<title>Node2&#45;&gt;Node3</title>
<path fill="none" stroke="#191970" d="M136.1365,-112.3733C114.595,-103.3032 82.1162,-89.6279 58.0044,-79.4755"/>
<polygon fill="#191970" stroke="#191970" points="59.1397,-76.156 48.5652,-75.5011 56.4233,-82.6075 59.1397,-76.156"/>
</g>
<!-- Node4 -->
<g id="node5" class="node">
<title>Node4</title>
<polygon fill="none" stroke="#bfbfbf" points="108.5,-56.5 108.5,-75.5 157.5,-75.5 157.5,-56.5 108.5,-56.5"/>
<text text-anchor="middle" x="133" y="-63.5" font-family="Helvetica,sans-Serif" font-size="10.00" fill="#000000">stdint.h</text>
</g>
<!-- Node2&#45;&gt;Node4 -->
<g id="edge4" class="edge">
<title>Node2&#45;&gt;Node4</title>
<path fill="none" stroke="#191970" d="M154.4711,-112.2455C150.9666,-104.6973 146.0073,-94.0158 141.7377,-84.8197"/>
<polygon fill="#191970" stroke="#191970" points="144.8627,-83.2389 137.477,-75.6427 138.5136,-86.1867 144.8627,-83.2389"/>
</g>
<!-- Node5 -->
<g id="node6" class="node">
<title>Node5</title>
<polygon fill="none" stroke="#bfbfbf" points="176,-56.5 176,-75.5 224,-75.5 224,-56.5 176,-56.5"/>
<text text-anchor="middle" x="200" y="-63.5" font-family="Helvetica,sans-Serif" font-size="10.00" fill="#000000">limits.h</text>
</g>
<!-- Node2&#45;&gt;Node5 -->
<g id="edge5" class="edge">
<title>Node2&#45;&gt;Node5</title>
<path fill="none" stroke="#191970" d="M166.1417,-112.2455C171.8444,-104.4564 179.99,-93.3308 186.8625,-83.9439"/>
<polygon fill="#191970" stroke="#191970" points="189.8568,-85.7789 192.9402,-75.6427 184.2087,-81.6437 189.8568,-85.7789"/>
</g>
<!-- Node6 -->
<g id="node7" class="node">
<title>Node6</title>
<polygon fill="none" stroke="#bfbfbf" points="242,-56.5 242,-75.5 314,-75.5 314,-56.5 242,-56.5"/>
<text text-anchor="middle" x="278" y="-63.5" font-family="Helvetica,sans-Serif" font-size="10.00" fill="#000000">periph_cpu.h</text>
</g>
<!-- Node2&#45;&gt;Node6 -->
<g id="edge6" class="edge">
<title>Node2&#45;&gt;Node6</title>
<path fill="none" stroke="#191970" d="M179.4568,-112.3733C198.4738,-103.4241 227.0175,-89.9917 248.4976,-79.8835"/>
<polygon fill="#191970" stroke="#191970" points="250.2522,-82.926 257.8101,-75.5011 247.2716,-76.5923 250.2522,-82.926"/>
</g>
<!-- Node7 -->
<g id="node8" class="node">
<title>Node7</title>
<polygon fill="none" stroke="#bfbfbf" points="194.5,-.5 194.5,-19.5 269.5,-19.5 269.5,-.5 194.5,-.5"/>
<text text-anchor="middle" x="232" y="-7.5" font-family="Helvetica,sans-Serif" font-size="10.00" fill="#000000">periph_conf.h</text>
</g>
<!-- Node2&#45;&gt;Node7 -->
<g id="edge7" class="edge">
<title>Node2&#45;&gt;Node7</title>
<path fill="none" stroke="#191970" d="M139.1664,-112.3059C116.5857,-99.9354 84.689,-77.5497 100,-56 110.1269,-41.7467 150.6737,-28.9652 184.1872,-20.5143"/>
<polygon fill="#191970" stroke="#191970" points="185.4397,-23.8111 194.3208,-18.0338 183.7753,-17.0118 185.4397,-23.8111"/>
</g>
<!-- Node8 -->
<g id="node9" class="node">
<title>Node8</title>
<g id="a_node9"><a xlink:href="dev__enums_8h.html" target="_top" xlink:title="Device enumerations for backward compatibility with existing peripheral driver implementations. ">
<polygon fill="none" stroke="#000000" points="332,-56.5 332,-75.5 436,-75.5 436,-56.5 332,-56.5"/>
<text text-anchor="middle" x="384" y="-63.5" font-family="Helvetica,sans-Serif" font-size="10.00" fill="#000000">periph/dev_enums.h</text>
</a>
</g>
</g>
<!-- Node2&#45;&gt;Node8 -->
<g id="edge8" class="edge">
<title>Node2&#45;&gt;Node8</title>
<path fill="none" stroke="#191970" d="M194.6519,-113.1266C232.738,-103.6474 293.3331,-88.566 335.6872,-78.0245"/>
<polygon fill="#191970" stroke="#191970" points="336.6423,-81.3937 345.5009,-75.582 334.9516,-74.6009 336.6423,-81.3937"/>
</g>
<!-- Node8&#45;&gt;Node7 -->
<g id="edge9" class="edge">
<title>Node8&#45;&gt;Node7</title>
<path fill="none" stroke="#191970" d="M357.8703,-56.3733C332.9232,-47.1822 295.1408,-33.2624 267.4794,-23.0713"/>
<polygon fill="#191970" stroke="#191970" points="268.3822,-19.674 257.7888,-19.5011 265.9622,-26.2424 268.3822,-19.674"/>
</g>
<!-- Node9&#45;&gt;Node4 -->
<g id="edge12" class="edge">
<title>Node9&#45;&gt;Node4</title>
<path fill="none" stroke="#191970" d="M230.7151,-112.3733C211.8579,-103.4241 183.554,-89.9917 162.2545,-79.8835"/>
<polygon fill="#191970" stroke="#191970" points="163.5551,-76.6266 153.0202,-75.5011 160.5539,-82.9506 163.5551,-76.6266"/>
</g>
<!-- Node9&#45;&gt;Node5 -->
<g id="edge11" class="edge">
<title>Node9&#45;&gt;Node5</title>
<path fill="none" stroke="#191970" d="M242.1165,-112.2455C234.8034,-104.2155 224.2609,-92.6394 215.5533,-83.0781"/>
<polygon fill="#191970" stroke="#191970" points="218.1028,-80.6795 208.7817,-75.6427 212.9273,-85.3928 218.1028,-80.6795"/>
</g>
<!-- Node9&#45;&gt;Node6 -->
<g id="edge13" class="edge">
<title>Node9&#45;&gt;Node6</title>
<path fill="none" stroke="#191970" d="M255.703,-112.2455C259.3424,-104.6973 264.4924,-94.0158 268.9262,-84.8197"/>
<polygon fill="#191970" stroke="#191970" points="272.1605,-86.1704 273.3509,-75.6427 265.8551,-83.1303 272.1605,-86.1704"/>
</g>
<!-- Node9&#45;&gt;Node8 -->
<g id="edge14" class="edge">
<title>Node9&#45;&gt;Node8</title>
<path fill="none" stroke="#191970" d="M273.8635,-112.3733C295.405,-103.3032 327.8838,-89.6279 351.9956,-79.4755"/>
<polygon fill="#191970" stroke="#191970" points="353.5767,-82.6075 361.4348,-75.5011 350.8603,-76.156 353.5767,-82.6075"/>
</g>
</g>
</svg>
