<?xml version="1.0" encoding="UTF-8" standalone="no"?>
<!DOCTYPE svg PUBLIC "-//W3C//DTD SVG 1.1//EN"
 "http://www.w3.org/Graphics/SVG/1.1/DTD/svg11.dtd">
<!-- Generated by graphviz version 2.40.1 (20161225.0304)
 -->
<!-- Title: drivers/include/enc28j60.h Pages: 1 -->
<svg width="677pt" height="196pt"
 viewBox="0.00 0.00 677.00 196.00" xmlns="http://www.w3.org/2000/svg" xmlns:xlink="http://www.w3.org/1999/xlink">
<g id="graph0" class="graph" transform="scale(1 1) rotate(0) translate(4 192)">
<title>drivers/include/enc28j60.h</title>
<!-- Node0 -->
<g id="node1" class="node">
<title>Node0</title>
<polygon fill="#bfbfbf" stroke="#000000" points="213,-168.5 213,-187.5 343,-187.5 343,-168.5 213,-168.5"/>
<text text-anchor="middle" x="278" y="-175.5" font-family="Helvetica,sans-Serif" font-size="10.00" fill="#000000">drivers/include/enc28j60.h</text>
</g>
<!-- Node1 -->
<g id="node2" class="node">
<title>Node1</title>
<polygon fill="none" stroke="#bfbfbf" points="126.5,-56.5 126.5,-75.5 175.5,-75.5 175.5,-56.5 126.5,-56.5"/>
<text text-anchor="middle" x="151" y="-63.5" font-family="Helvetica,sans-Serif" font-size="10.00" fill="#000000">stdint.h</text>
</g>
<!-- Node0&#45;&gt;Node1 -->
<g id="edge1" class="edge">
<title>Node0&#45;&gt;Node1</title>
<path fill="none" stroke="#191970" d="M267.1721,-168.4509C245.4276,-149.2747 196.2395,-105.8962 169.3683,-82.1988"/>
<polygon fill="#191970" stroke="#191970" points="171.6157,-79.5141 161.8005,-75.5249 166.9857,-84.7642 171.6157,-79.5141"/>
</g>
<!-- Node2 -->
<g id="node3" class="node">
<title>Node2</title>
<g id="a_node3"><a xlink:href="mutex_8h.html" target="_top" xlink:title="Mutex for thread synchronization. ">
<polygon fill="none" stroke="#000000" points="91,-112.5 91,-131.5 143,-131.5 143,-112.5 91,-112.5"/>
<text text-anchor="middle" x="117" y="-119.5" font-family="Helvetica,sans-Serif" font-size="10.00" fill="#000000">mutex.h</text>
</a>
</g>
</g>
<!-- Node0&#45;&gt;Node2 -->
<g id="edge2" class="edge">
<title>Node0&#45;&gt;Node2</title>
<path fill="none" stroke="#191970" d="M250.3231,-168.3733C223.3441,-158.9892 182.1926,-144.6757 152.7487,-134.4343"/>
<polygon fill="#191970" stroke="#191970" points="153.8444,-131.1098 143.2496,-131.1303 151.5447,-137.7213 153.8444,-131.1098"/>
</g>
<!-- Node5 -->
<g id="node6" class="node">
<title>Node5</title>
<g id="a_node6"><a xlink:href="spi_8h.html" target="_top" xlink:title="Low&#45;level SPI peripheral driver interface definition. ">
<polygon fill="none" stroke="#000000" points="244.5,-112.5 244.5,-131.5 311.5,-131.5 311.5,-112.5 244.5,-112.5"/>
<text text-anchor="middle" x="278" y="-119.5" font-family="Helvetica,sans-Serif" font-size="10.00" fill="#000000">periph/spi.h</text>
</a>
</g>
</g>
<!-- Node0&#45;&gt;Node5 -->
<g id="edge6" class="edge">
<title>Node0&#45;&gt;Node5</title>
<path fill="none" stroke="#191970" d="M278,-168.2455C278,-160.9382 278,-150.6944 278,-141.7046"/>
<polygon fill="#191970" stroke="#191970" points="281.5001,-141.6426 278,-131.6427 274.5001,-141.6427 281.5001,-141.6426"/>
</g>
<!-- Node10 -->
<g id="node11" class="node">
<title>Node10</title>
<g id="a_node11"><a xlink:href="gpio_8h.html" target="_top" xlink:title="Low&#45;level GPIO peripheral driver interface definitions. ">
<polygon fill="none" stroke="#000000" points="344,-56.5 344,-75.5 416,-75.5 416,-56.5 344,-56.5"/>
<text text-anchor="middle" x="380" y="-63.5" font-family="Helvetica,sans-Serif" font-size="10.00" fill="#000000">periph/gpio.h</text>
</a>
</g>
</g>
<!-- Node0&#45;&gt;Node10 -->
<g id="edge17" class="edge">
<title>Node0&#45;&gt;Node10</title>
<path fill="none" stroke="#191970" d="M286.6934,-168.4907C295.1911,-159.1926 308.4928,-144.6305 320,-132 335.0276,-115.5055 352.1472,-96.6694 364.2428,-83.3534"/>
<polygon fill="#191970" stroke="#191970" points="366.9289,-85.6018 371.0612,-75.846 361.747,-80.8955 366.9289,-85.6018"/>
</g>
<!-- Node11 -->
<g id="node12" class="node">
<title>Node11</title>
<g id="a_node12"><a xlink:href="drivers_2include_2net_2netdev_8h.html" target="_top" xlink:title="Definitions low&#45;level network driver interface. ">
<polygon fill="none" stroke="#000000" points="460.5,-112.5 460.5,-131.5 531.5,-131.5 531.5,-112.5 460.5,-112.5"/>
<text text-anchor="middle" x="496" y="-119.5" font-family="Helvetica,sans-Serif" font-size="10.00" fill="#000000">net/netdev.h</text>
</a>
</g>
</g>
<!-- Node0&#45;&gt;Node11 -->
<g id="edge18" class="edge">
<title>Node0&#45;&gt;Node11</title>
<path fill="none" stroke="#191970" d="M315.4755,-168.3733C352.9592,-158.7444 410.647,-143.9255 450.682,-133.6413"/>
<polygon fill="#191970" stroke="#191970" points="451.6423,-137.0083 460.457,-131.1303 449.9007,-130.2285 451.6423,-137.0083"/>
</g>
<!-- Node2&#45;&gt;Node1 -->
<g id="edge4" class="edge">
<title>Node2&#45;&gt;Node1</title>
<path fill="none" stroke="#191970" d="M122.9223,-112.2455C127.6027,-104.5367 134.2673,-93.5598 139.9289,-84.2348"/>
<polygon fill="#191970" stroke="#191970" points="142.9475,-86.007 145.1455,-75.6427 136.9639,-82.3741 142.9475,-86.007"/>
</g>
<!-- Node3 -->
<g id="node4" class="node">
<title>Node3</title>
<polygon fill="none" stroke="#bfbfbf" points="56,-56.5 56,-75.5 108,-75.5 108,-56.5 56,-56.5"/>
<text text-anchor="middle" x="82" y="-63.5" font-family="Helvetica,sans-Serif" font-size="10.00" fill="#000000">stddef.h</text>
</g>
<!-- Node2&#45;&gt;Node3 -->
<g id="edge3" class="edge">
<title>Node2&#45;&gt;Node3</title>
<path fill="none" stroke="#191970" d="M110.9035,-112.2455C106.0855,-104.5367 99.2249,-93.5598 93.3968,-84.2348"/>
<polygon fill="#191970" stroke="#191970" points="96.2947,-82.2677 88.0267,-75.6427 90.3587,-85.9777 96.2947,-82.2677"/>
</g>
<!-- Node4 -->
<g id="node5" class="node">
<title>Node4</title>
<g id="a_node5"><a xlink:href="list_8h.html" target="_top" xlink:title="Intrusive linked list. ">
<polygon fill="none" stroke="#000000" points="0,-56.5 0,-75.5 38,-75.5 38,-56.5 0,-56.5"/>
<text text-anchor="middle" x="19" y="-63.5" font-family="Helvetica,sans-Serif" font-size="10.00" fill="#000000">list.h</text>
</a>
</g>
</g>
<!-- Node2&#45;&gt;Node4 -->
<g id="edge5" class="edge">
<title>Node2&#45;&gt;Node4</title>
<path fill="none" stroke="#191970" d="M99.9297,-112.2455C84.753,-103.5731 62.3379,-90.7645 44.9437,-80.825"/>
<polygon fill="#191970" stroke="#191970" points="46.2936,-77.5653 35.8747,-75.6427 42.8206,-83.643 46.2936,-77.5653"/>
</g>
<!-- Node5&#45;&gt;Node1 -->
<g id="edge9" class="edge">
<title>Node5&#45;&gt;Node1</title>
<path fill="none" stroke="#191970" d="M256.1679,-112.3733C235.6897,-103.3435 204.8601,-89.7494 181.8681,-79.6111"/>
<polygon fill="#191970" stroke="#191970" points="183.1093,-76.3333 172.5472,-75.5011 180.285,-82.7383 183.1093,-76.3333"/>
</g>
<!-- Node5&#45;&gt;Node3 -->
<g id="edge8" class="edge">
<title>Node5&#45;&gt;Node3</title>
<path fill="none" stroke="#191970" d="M244.3064,-112.3733C208.9903,-102.2829 153.7258,-86.4931 117.6821,-76.1949"/>
<polygon fill="#191970" stroke="#191970" points="118.6349,-72.8271 108.0581,-73.4452 116.7118,-79.5578 118.6349,-72.8271"/>
</g>
<!-- Node6 -->
<g id="node7" class="node">
<title>Node6</title>
<polygon fill="none" stroke="#bfbfbf" points="194,-56.5 194,-75.5 250,-75.5 250,-56.5 194,-56.5"/>
<text text-anchor="middle" x="222" y="-63.5" font-family="Helvetica,sans-Serif" font-size="10.00" fill="#000000">stdbool.h</text>
</g>
<!-- Node5&#45;&gt;Node6 -->
<g id="edge7" class="edge">
<title>Node5&#45;&gt;Node6</title>
<path fill="none" stroke="#191970" d="M268.2455,-112.2455C260.1352,-104.1352 248.4075,-92.4075 238.7919,-82.7919"/>
<polygon fill="#191970" stroke="#191970" points="241.1887,-80.2389 231.6427,-75.6427 236.2389,-85.1887 241.1887,-80.2389"/>
</g>
<!-- Node7 -->
<g id="node8" class="node">
<title>Node7</title>
<polygon fill="none" stroke="#bfbfbf" points="252,-.5 252,-19.5 300,-19.5 300,-.5 252,-.5"/>
<text text-anchor="middle" x="276" y="-7.5" font-family="Helvetica,sans-Serif" font-size="10.00" fill="#000000">limits.h</text>
</g>
<!-- Node5&#45;&gt;Node7 -->
<g id="edge10" class="edge">
<title>Node5&#45;&gt;Node7</title>
<path fill="none" stroke="#191970" d="M277.8295,-112.4509C277.5033,-94.184 276.7849,-53.9553 276.3517,-29.6976"/>
<polygon fill="#191970" stroke="#191970" points="279.8482,-29.4608 276.1701,-19.5249 272.8493,-29.5858 279.8482,-29.4608"/>
</g>
<!-- Node8 -->
<g id="node9" class="node">
<title>Node8</title>
<polygon fill="none" stroke="#bfbfbf" points="318,-.5 318,-19.5 390,-19.5 390,-.5 318,-.5"/>
<text text-anchor="middle" x="354" y="-7.5" font-family="Helvetica,sans-Serif" font-size="10.00" fill="#000000">periph_cpu.h</text>
</g>
<!-- Node5&#45;&gt;Node8 -->
<g id="edge11" class="edge">
<title>Node5&#45;&gt;Node8</title>
<path fill="none" stroke="#191970" d="M284.4797,-112.4509C297.1556,-93.7707 325.416,-52.1238 341.734,-28.0761"/>
<polygon fill="#191970" stroke="#191970" points="344.8178,-29.7649 347.5367,-19.5249 339.0255,-25.8344 344.8178,-29.7649"/>
</g>
<!-- Node9 -->
<g id="node10" class="node">
<title>Node9</title>
<polygon fill="none" stroke="#bfbfbf" points="408.5,-.5 408.5,-19.5 483.5,-19.5 483.5,-.5 408.5,-.5"/>
<text text-anchor="middle" x="446" y="-7.5" font-family="Helvetica,sans-Serif" font-size="10.00" fill="#000000">periph_conf.h</text>
</g>
<!-- Node5&#45;&gt;Node9 -->
<g id="edge12" class="edge">
<title>Node5&#45;&gt;Node9</title>
<path fill="none" stroke="#191970" d="M311.5054,-115.2693C349.7014,-106.9695 408.9365,-91.9869 425,-76 437.2249,-63.8334 442.3432,-44.5808 444.4808,-30.0023"/>
<polygon fill="#191970" stroke="#191970" points="447.9707,-30.2868 445.6027,-19.96 441.014,-29.5096 447.9707,-30.2868"/>
</g>
<!-- Node5&#45;&gt;Node10 -->
<g id="edge13" class="edge">
<title>Node5&#45;&gt;Node10</title>
<path fill="none" stroke="#191970" d="M295.767,-112.2455C311.7095,-103.4928 335.3259,-90.527 353.4989,-80.5496"/>
<polygon fill="#191970" stroke="#191970" points="355.3552,-83.5233 362.4366,-75.6427 351.9863,-77.3873 355.3552,-83.5233"/>
</g>
<!-- Node10&#45;&gt;Node7 -->
<g id="edge14" class="edge">
<title>Node10&#45;&gt;Node7</title>
<path fill="none" stroke="#191970" d="M361.8846,-56.2455C345.555,-47.4527 321.329,-34.4079 302.7661,-24.4125"/>
<polygon fill="#191970" stroke="#191970" points="304.3719,-21.3021 293.9078,-19.6427 301.0532,-27.4654 304.3719,-21.3021"/>
</g>
<!-- Node10&#45;&gt;Node8 -->
<g id="edge15" class="edge">
<title>Node10&#45;&gt;Node8</title>
<path fill="none" stroke="#191970" d="M375.4711,-56.2455C371.9666,-48.6973 367.0073,-38.0158 362.7377,-28.8197"/>
<polygon fill="#191970" stroke="#191970" points="365.8627,-27.2389 358.477,-19.6427 359.5136,-30.1867 365.8627,-27.2389"/>
</g>
<!-- Node10&#45;&gt;Node9 -->
<g id="edge16" class="edge">
<title>Node10&#45;&gt;Node9</title>
<path fill="none" stroke="#191970" d="M391.4963,-56.2455C401.2442,-47.9746 415.4259,-35.9416 426.8798,-26.2232"/>
<polygon fill="#191970" stroke="#191970" points="429.2747,-28.7813 434.6354,-19.6427 424.7459,-23.4437 429.2747,-28.7813"/>
</g>
<!-- Node11&#45;&gt;Node1 -->
<g id="edge19" class="edge">
<title>Node11&#45;&gt;Node1</title>
<path fill="none" stroke="#191970" d="M460.2602,-118.3518C403.8764,-112.242 290.7372,-98.5478 185.6003,-75.8713"/>
<polygon fill="#191970" stroke="#191970" points="186.2962,-72.4408 175.779,-73.7212 184.7991,-79.2788 186.2962,-72.4408"/>
</g>
<!-- Node12 -->
<g id="node13" class="node">
<title>Node12</title>
<g id="a_node13"><a xlink:href="errno_8h.html" target="_top" xlink:title="errno.h">
<polygon fill="none" stroke="#000000" points="472.5,-56.5 472.5,-75.5 519.5,-75.5 519.5,-56.5 472.5,-56.5"/>
<text text-anchor="middle" x="496" y="-63.5" font-family="Helvetica,sans-Serif" font-size="10.00" fill="#000000">errno.h</text>
</a>
</g>
</g>
<!-- Node11&#45;&gt;Node12 -->
<g id="edge20" class="edge">
<title>Node11&#45;&gt;Node12</title>
<path fill="none" stroke="#191970" d="M496,-112.2455C496,-104.9382 496,-94.6944 496,-85.7046"/>
<polygon fill="#191970" stroke="#191970" points="499.5001,-85.6426 496,-75.6427 492.5001,-85.6427 499.5001,-85.6426"/>
</g>
<!-- Node13 -->
<g id="node14" class="node">
<title>Node13</title>
<g id="a_node14"><a xlink:href="iolist_8h.html" target="_top" xlink:title="iolist scatter / gather IO ">
<polygon fill="none" stroke="#000000" points="537.5,-56.5 537.5,-75.5 582.5,-75.5 582.5,-56.5 537.5,-56.5"/>
<text text-anchor="middle" x="560" y="-63.5" font-family="Helvetica,sans-Serif" font-size="10.00" fill="#000000">iolist.h</text>
</a>
</g>
</g>
<!-- Node11&#45;&gt;Node13 -->
<g id="edge21" class="edge">
<title>Node11&#45;&gt;Node13</title>
<path fill="none" stroke="#191970" d="M507.1479,-112.2455C516.5087,-104.0549 530.0858,-92.1749 541.1349,-82.5069"/>
<polygon fill="#191970" stroke="#191970" points="543.7588,-84.8618 548.9798,-75.6427 539.1492,-79.5937 543.7588,-84.8618"/>
</g>
<!-- Node15 -->
<g id="node16" class="node">
<title>Node15</title>
<g id="a_node16"><a xlink:href="netopt_8h.html" target="_top" xlink:title="Definition of global configuration options. ">
<polygon fill="none" stroke="#000000" points="601,-56.5 601,-75.5 669,-75.5 669,-56.5 601,-56.5"/>
<text text-anchor="middle" x="635" y="-63.5" font-family="Helvetica,sans-Serif" font-size="10.00" fill="#000000">net/netopt.h</text>
</a>
</g>
</g>
<!-- Node11&#45;&gt;Node15 -->
<g id="edge23" class="edge">
<title>Node11&#45;&gt;Node15</title>
<path fill="none" stroke="#191970" d="M519.895,-112.3733C542.5082,-103.2629 576.6542,-89.5062 601.8873,-79.3404"/>
<polygon fill="#191970" stroke="#191970" points="603.4493,-82.4845 611.4169,-75.5011 600.8334,-75.9917 603.4493,-82.4845"/>
</g>
<!-- Node14 -->
<g id="node15" class="node">
<title>Node14</title>
<polygon fill="none" stroke="#bfbfbf" points="534.5,-.5 534.5,-19.5 585.5,-19.5 585.5,-.5 534.5,-.5"/>
<text text-anchor="middle" x="560" y="-7.5" font-family="Helvetica,sans-Serif" font-size="10.00" fill="#000000">unistd.h</text>
</g>
<!-- Node13&#45;&gt;Node14 -->
<g id="edge22" class="edge">
<title>Node13&#45;&gt;Node14</title>
<path fill="none" stroke="#191970" d="M560,-56.2455C560,-48.9382 560,-38.6944 560,-29.7046"/>
<polygon fill="#191970" stroke="#191970" points="563.5001,-29.6426 560,-19.6427 556.5001,-29.6427 563.5001,-29.6426"/>
</g>
</g>
</svg>
