<?xml version="1.0" encoding="UTF-8" standalone="no"?>
<!DOCTYPE svg PUBLIC "-//W3C//DTD SVG 1.1//EN"
 "http://www.w3.org/Graphics/SVG/1.1/DTD/svg11.dtd">
<!-- Generated by graphviz version 2.43.0 (0)
 -->
<!-- Title: sys/include/net/cord/epsim.h Pages: 1 -->
<svg width="350pt" height="207pt"
 viewBox="0.00 0.00 349.60 207.00" xmlns="http://www.w3.org/2000/svg" xmlns:xlink="http://www.w3.org/1999/xlink">
<g id="graph0" class="graph" transform="scale(1 1) rotate(0) translate(4 203)">
<title>sys/include/net/cord/epsim.h</title>
<!-- Node1 -->
<g id="node1" class="node">
<title>Node1</title>
<g id="a_node1"><a xlink:title="Interface for the CoRE RD simple registration endpoint.">
<polygon fill="#bfbfbf" stroke="black" points="64.6,-168.5 64.6,-198.5 178.6,-198.5 178.6,-168.5 64.6,-168.5"/>
<text text-anchor="start" x="72.6" y="-186.5" font-family="Helvetica,sans-Serif" font-size="10.00">sys/include/net/cord</text>
<text text-anchor="middle" x="121.6" y="-175.5" font-family="Helvetica,sans-Serif" font-size="10.00">/epsim.h</text>
</a>
</g>
</g>
<!-- Node2 -->
<g id="node2" class="node">
<title>Node2</title>
<g id="a_node2"><a xlink:href="sock_2udp_8h.html" target="_top" xlink:title="UDP sock definitions.">
<polygon fill="none" stroke="black" points="77.6,-112.5 77.6,-131.5 165.6,-131.5 165.6,-112.5 77.6,-112.5"/>
<text text-anchor="middle" x="121.6" y="-119.5" font-family="Helvetica,sans-Serif" font-size="10.00">net/sock/udp.h</text>
</a>
</g>
</g>
<!-- Node1&#45;&gt;Node2 -->
<g id="edge1" class="edge">
<title>Node1&#45;&gt;Node2</title>
<path fill="none" stroke="midnightblue" d="M121.6,-168.4C121.6,-160.47 121.6,-150.46 121.6,-141.86"/>
<polygon fill="midnightblue" stroke="midnightblue" points="125.1,-141.66 121.6,-131.66 118.1,-141.66 125.1,-141.66"/>
</g>
<!-- Node3 -->
<g id="node3" class="node">
<title>Node3</title>
<g id="a_node3"><a xlink:title=" ">
<polygon fill="none" stroke="#bfbfbf" points="71.1,-0.5 71.1,-19.5 124.1,-19.5 124.1,-0.5 71.1,-0.5"/>
<text text-anchor="middle" x="97.6" y="-7.5" font-family="Helvetica,sans-Serif" font-size="10.00">stdint.h</text>
</a>
</g>
</g>
<!-- Node2&#45;&gt;Node3 -->
<g id="edge2" class="edge">
<title>Node2&#45;&gt;Node3</title>
<path fill="none" stroke="midnightblue" d="M77.58,-116.28C51.7,-110.99 20.93,-99.77 4.6,-76 -13.29,-49.95 27.75,-31.03 60.9,-20.53"/>
<polygon fill="midnightblue" stroke="midnightblue" points="62.29,-23.76 70.86,-17.54 60.27,-17.06 62.29,-23.76"/>
</g>
<!-- Node4 -->
<g id="node4" class="node">
<title>Node4</title>
<g id="a_node4"><a xlink:title=" ">
<polygon fill="none" stroke="#bfbfbf" points="14.1,-56.5 14.1,-75.5 67.1,-75.5 67.1,-56.5 14.1,-56.5"/>
<text text-anchor="middle" x="40.6" y="-63.5" font-family="Helvetica,sans-Serif" font-size="10.00">stdlib.h</text>
</a>
</g>
</g>
<!-- Node2&#45;&gt;Node4 -->
<g id="edge3" class="edge">
<title>Node2&#45;&gt;Node4</title>
<path fill="none" stroke="midnightblue" d="M108.59,-112.32C96.07,-103.98 76.92,-91.21 62.13,-81.35"/>
<polygon fill="midnightblue" stroke="midnightblue" points="63.85,-78.29 53.58,-75.65 59.96,-84.11 63.85,-78.29"/>
</g>
<!-- Node5 -->
<g id="node5" class="node">
<title>Node5</title>
<g id="a_node5"><a xlink:title=" ">
<polygon fill="none" stroke="#bfbfbf" points="85.6,-56.5 85.6,-75.5 157.6,-75.5 157.6,-56.5 85.6,-56.5"/>
<text text-anchor="middle" x="121.6" y="-63.5" font-family="Helvetica,sans-Serif" font-size="10.00">sys/types.h</text>
</a>
</g>
</g>
<!-- Node2&#45;&gt;Node5 -->
<g id="edge4" class="edge">
<title>Node2&#45;&gt;Node5</title>
<path fill="none" stroke="midnightblue" d="M121.6,-112.08C121.6,-105.01 121.6,-94.86 121.6,-85.99"/>
<polygon fill="midnightblue" stroke="midnightblue" points="125.1,-85.75 121.6,-75.75 118.1,-85.75 125.1,-85.75"/>
</g>
<!-- Node6 -->
<g id="node6" class="node">
<title>Node6</title>
<g id="a_node6"><a xlink:href="sock_8h.html" target="_top" xlink:title="Common sock API definitions.">
<polygon fill="none" stroke="black" points="176.1,-56.5 176.1,-75.5 243.1,-75.5 243.1,-56.5 176.1,-56.5"/>
<text text-anchor="middle" x="209.6" y="-63.5" font-family="Helvetica,sans-Serif" font-size="10.00">net/sock.h</text>
</a>
</g>
</g>
<!-- Node2&#45;&gt;Node6 -->
<g id="edge5" class="edge">
<title>Node2&#45;&gt;Node6</title>
<path fill="none" stroke="midnightblue" d="M135.74,-112.32C149.47,-103.9 170.54,-90.97 186.67,-81.07"/>
<polygon fill="midnightblue" stroke="midnightblue" points="188.81,-83.87 195.5,-75.65 185.14,-77.9 188.81,-83.87"/>
</g>
<!-- Node7 -->
<g id="node7" class="node">
<title>Node7</title>
<g id="a_node7"><a xlink:title=" ">
<polygon fill="none" stroke="#bfbfbf" points="261.6,-56.5 261.6,-75.5 341.6,-75.5 341.6,-56.5 261.6,-56.5"/>
<text text-anchor="middle" x="301.6" y="-63.5" font-family="Helvetica,sans-Serif" font-size="10.00">sock_types.h</text>
</a>
</g>
</g>
<!-- Node2&#45;&gt;Node7 -->
<g id="edge7" class="edge">
<title>Node2&#45;&gt;Node7</title>
<path fill="none" stroke="midnightblue" d="M150.12,-112.44C180.67,-103.28 229.31,-88.69 263.2,-78.52"/>
<polygon fill="midnightblue" stroke="midnightblue" points="264.64,-81.74 273.21,-75.52 262.63,-75.04 264.64,-81.74"/>
</g>
<!-- Node6&#45;&gt;Node3 -->
<g id="edge6" class="edge">
<title>Node6&#45;&gt;Node3</title>
<path fill="none" stroke="midnightblue" d="M191.61,-56.32C173.56,-47.62 145.55,-34.12 124.8,-24.11"/>
<polygon fill="midnightblue" stroke="midnightblue" points="126.08,-20.84 115.55,-19.65 123.04,-27.15 126.08,-20.84"/>
</g>
</g>
</svg>
