<?xml version="1.0" encoding="UTF-8" standalone="no"?>
<!DOCTYPE svg PUBLIC "-//W3C//DTD SVG 1.1//EN"
 "http://www.w3.org/Graphics/SVG/1.1/DTD/svg11.dtd">
<!-- Generated by graphviz version 2.40.1 (20161225.0304)
 -->
<!-- Title: boards/esp32&#45;wemos&#45;lolin&#45;d32&#45;pro/include/gpio_params.h Pages: 1 -->
<svg width="333pt" height="218pt"
 viewBox="0.00 0.00 333.20 218.00" xmlns="http://www.w3.org/2000/svg" xmlns:xlink="http://www.w3.org/1999/xlink">
<g id="graph0" class="graph" transform="scale(1 1) rotate(0) translate(4 214)">
<title>boards/esp32&#45;wemos&#45;lolin&#45;d32&#45;pro/include/gpio_params.h</title>
<!-- Node0 -->
<g id="node1" class="node">
<title>Node0</title>
<polygon fill="#bfbfbf" stroke="#000000" points="51.7049,-168.5 51.7049,-209.5 161.7049,-209.5 161.7049,-168.5 51.7049,-168.5"/>
<text text-anchor="start" x="59.7049" y="-197.5" font-family="Helvetica,sans-Serif" font-size="10.00" fill="#000000">boards/esp32&#45;wemos</text>
<text text-anchor="start" x="59.7049" y="-186.5" font-family="Helvetica,sans-Serif" font-size="10.00" fill="#000000">&#45;lolin&#45;d32&#45;pro/include</text>
<text text-anchor="middle" x="106.7049" y="-175.5" font-family="Helvetica,sans-Serif" font-size="10.00" fill="#000000">/gpio_params.h</text>
</g>
<!-- Node1 -->
<g id="node2" class="node">
<title>Node1</title>
<g id="a_node2"><a xlink:href="esp32-wemos-lolin-d32-pro_2include_2board_8h.html" target="_top" xlink:title="Board specific definitions for Wemos LOLIN D32 Pro. ">
<polygon fill="none" stroke="#000000" points="33.2049,-112.5 33.2049,-131.5 82.2049,-131.5 82.2049,-112.5 33.2049,-112.5"/>
<text text-anchor="middle" x="57.7049" y="-119.5" font-family="Helvetica,sans-Serif" font-size="10.00" fill="#000000">board.h</text>
</a>
</g>
</g>
<!-- Node0&#45;&gt;Node1 -->
<g id="edge1" class="edge">
<title>Node0&#45;&gt;Node1</title>
<path fill="none" stroke="#191970" d="M91.4696,-168.168C84.8807,-159.1587 77.2434,-148.7159 70.9007,-140.0432"/>
<polygon fill="#191970" stroke="#191970" points="73.5861,-137.7861 64.8578,-131.7805 67.9359,-141.9183 73.5861,-137.7861"/>
</g>
<!-- Node4 -->
<g id="node5" class="node">
<title>Node4</title>
<g id="a_node5"><a xlink:href="periph_8h.html" target="_top" xlink:title="Parameter definitions for mapping peripherals directly to SAUL. ">
<polygon fill="none" stroke="#000000" points="120.7049,-112.5 120.7049,-131.5 192.7049,-131.5 192.7049,-112.5 120.7049,-112.5"/>
<text text-anchor="middle" x="156.7049" y="-119.5" font-family="Helvetica,sans-Serif" font-size="10.00" fill="#000000">saul/periph.h</text>
</a>
</g>
</g>
<!-- Node0&#45;&gt;Node4 -->
<g id="edge4" class="edge">
<title>Node0&#45;&gt;Node4</title>
<path fill="none" stroke="#191970" d="M122.2512,-168.168C128.9745,-159.1587 136.7677,-148.7159 143.2398,-140.0432"/>
<polygon fill="#191970" stroke="#191970" points="146.2302,-141.8881 149.4061,-131.7805 140.6202,-137.7015 146.2302,-141.8881"/>
</g>
<!-- Node2 -->
<g id="node3" class="node">
<title>Node2</title>
<polygon fill="none" stroke="#bfbfbf" points="12.2049,-.5 12.2049,-19.5 61.2049,-19.5 61.2049,-.5 12.2049,-.5"/>
<text text-anchor="middle" x="36.7049" y="-7.5" font-family="Helvetica,sans-Serif" font-size="10.00" fill="#000000">stdint.h</text>
</g>
<!-- Node1&#45;&gt;Node2 -->
<g id="edge2" class="edge">
<title>Node1&#45;&gt;Node2</title>
<path fill="none" stroke="#191970" d="M39.4216,-112.4509C26.5192,-104.5902 10.2408,-92.1269 2.7049,-76 -5.1578,-59.1736 6.6026,-40.3793 18.3868,-27.1632"/>
<polygon fill="#191970" stroke="#191970" points="21.1365,-29.3536 25.552,-19.7227 16.0944,-24.498 21.1365,-29.3536"/>
</g>
<!-- Node3 -->
<g id="node4" class="node">
<title>Node3</title>
<polygon fill="none" stroke="#bfbfbf" points="11.7049,-56.5 11.7049,-75.5 103.7049,-75.5 103.7049,-56.5 11.7049,-56.5"/>
<text text-anchor="middle" x="57.7049" y="-63.5" font-family="Helvetica,sans-Serif" font-size="10.00" fill="#000000">board_common.h</text>
</g>
<!-- Node1&#45;&gt;Node3 -->
<g id="edge3" class="edge">
<title>Node1&#45;&gt;Node3</title>
<path fill="none" stroke="#191970" d="M57.7049,-112.2455C57.7049,-104.9382 57.7049,-94.6944 57.7049,-85.7046"/>
<polygon fill="#191970" stroke="#191970" points="61.205,-85.6426 57.7049,-75.6427 54.205,-85.6427 61.205,-85.6426"/>
</g>
<!-- Node5 -->
<g id="node6" class="node">
<title>Node5</title>
<g id="a_node6"><a xlink:href="gpio_8h.html" target="_top" xlink:title="Low&#45;level GPIO peripheral driver interface definitions. ">
<polygon fill="none" stroke="#000000" points="209.7049,-56.5 209.7049,-75.5 281.7049,-75.5 281.7049,-56.5 209.7049,-56.5"/>
<text text-anchor="middle" x="245.7049" y="-63.5" font-family="Helvetica,sans-Serif" font-size="10.00" fill="#000000">periph/gpio.h</text>
</a>
</g>
</g>
<!-- Node4&#45;&gt;Node5 -->
<g id="edge5" class="edge">
<title>Node4&#45;&gt;Node5</title>
<path fill="none" stroke="#191970" d="M172.2075,-112.2455C185.8629,-103.6534 205.9706,-91.0014 221.7038,-81.1018"/>
<polygon fill="#191970" stroke="#191970" points="223.78,-83.9307 230.38,-75.6427 220.052,-78.006 223.78,-83.9307"/>
</g>
<!-- Node9 -->
<g id="node10" class="node">
<title>Node9</title>
<g id="a_node10"><a xlink:href="adc_8h.html" target="_top" xlink:title="Low&#45;level ADC peripheral driver interface definitions. ">
<polygon fill="none" stroke="#000000" points="121.7049,-56.5 121.7049,-75.5 191.7049,-75.5 191.7049,-56.5 121.7049,-56.5"/>
<text text-anchor="middle" x="156.7049" y="-63.5" font-family="Helvetica,sans-Serif" font-size="10.00" fill="#000000">periph/adc.h</text>
</a>
</g>
</g>
<!-- Node4&#45;&gt;Node9 -->
<g id="edge9" class="edge">
<title>Node4&#45;&gt;Node9</title>
<path fill="none" stroke="#191970" d="M156.7049,-112.2455C156.7049,-104.9382 156.7049,-94.6944 156.7049,-85.7046"/>
<polygon fill="#191970" stroke="#191970" points="160.205,-85.6426 156.7049,-75.6427 153.205,-85.6427 160.205,-85.6426"/>
</g>
<!-- Node6 -->
<g id="node7" class="node">
<title>Node6</title>
<polygon fill="none" stroke="#bfbfbf" points="93.7049,-.5 93.7049,-19.5 141.7049,-19.5 141.7049,-.5 93.7049,-.5"/>
<text text-anchor="middle" x="117.7049" y="-7.5" font-family="Helvetica,sans-Serif" font-size="10.00" fill="#000000">limits.h</text>
</g>
<!-- Node5&#45;&gt;Node6 -->
<g id="edge6" class="edge">
<title>Node5&#45;&gt;Node6</title>
<path fill="none" stroke="#191970" d="M223.7009,-56.3733C203.0615,-47.3435 171.9892,-33.7494 148.816,-23.6111"/>
<polygon fill="#191970" stroke="#191970" points="149.9862,-20.3028 139.4218,-19.5011 147.1805,-26.7159 149.9862,-20.3028"/>
</g>
<!-- Node7 -->
<g id="node8" class="node">
<title>Node7</title>
<polygon fill="none" stroke="#bfbfbf" points="159.7049,-.5 159.7049,-19.5 231.7049,-19.5 231.7049,-.5 159.7049,-.5"/>
<text text-anchor="middle" x="195.7049" y="-7.5" font-family="Helvetica,sans-Serif" font-size="10.00" fill="#000000">periph_cpu.h</text>
</g>
<!-- Node5&#45;&gt;Node7 -->
<g id="edge7" class="edge">
<title>Node5&#45;&gt;Node7</title>
<path fill="none" stroke="#191970" d="M236.9956,-56.2455C229.8976,-48.2958 219.6965,-36.8706 211.2099,-27.3656"/>
<polygon fill="#191970" stroke="#191970" points="213.5854,-24.771 204.3144,-19.6427 208.3638,-29.4331 213.5854,-24.771"/>
</g>
<!-- Node8 -->
<g id="node9" class="node">
<title>Node8</title>
<polygon fill="none" stroke="#bfbfbf" points="250.2049,-.5 250.2049,-19.5 325.2049,-19.5 325.2049,-.5 250.2049,-.5"/>
<text text-anchor="middle" x="287.7049" y="-7.5" font-family="Helvetica,sans-Serif" font-size="10.00" fill="#000000">periph_conf.h</text>
</g>
<!-- Node5&#45;&gt;Node8 -->
<g id="edge8" class="edge">
<title>Node5&#45;&gt;Node8</title>
<path fill="none" stroke="#191970" d="M253.0208,-56.2455C258.9228,-48.3761 267.3792,-37.101 274.4643,-27.6542"/>
<polygon fill="#191970" stroke="#191970" points="277.2729,-29.7427 280.4729,-19.6427 271.6729,-25.5427 277.2729,-29.7427"/>
</g>
<!-- Node9&#45;&gt;Node2 -->
<g id="edge11" class="edge">
<title>Node9&#45;&gt;Node2</title>
<path fill="none" stroke="#191970" d="M136.0762,-56.3733C116.8131,-47.3838 87.8563,-33.8706 66.163,-23.7471"/>
<polygon fill="#191970" stroke="#191970" points="67.6064,-20.5584 57.0645,-19.5011 64.6462,-26.9017 67.6064,-20.5584"/>
</g>
<!-- Node9&#45;&gt;Node6 -->
<g id="edge10" class="edge">
<title>Node9&#45;&gt;Node6</title>
<path fill="none" stroke="#191970" d="M149.9116,-56.2455C144.4871,-48.4564 136.7388,-37.3308 130.2016,-27.9439"/>
<polygon fill="#191970" stroke="#191970" points="133.0075,-25.8485 124.4204,-19.6427 127.2632,-29.849 133.0075,-25.8485"/>
</g>
<!-- Node9&#45;&gt;Node7 -->
<g id="edge12" class="edge">
<title>Node9&#45;&gt;Node7</title>
<path fill="none" stroke="#191970" d="M163.4982,-56.2455C168.9228,-48.4564 176.671,-37.3308 183.2082,-27.9439"/>
<polygon fill="#191970" stroke="#191970" points="186.1466,-29.849 188.9895,-19.6427 180.4024,-25.8485 186.1466,-29.849"/>
</g>
<!-- Node9&#45;&gt;Node8 -->
<g id="edge13" class="edge">
<title>Node9&#45;&gt;Node8</title>
<path fill="none" stroke="#191970" d="M179.2246,-56.3733C200.4421,-47.3032 232.4325,-33.6279 256.1818,-23.4755"/>
<polygon fill="#191970" stroke="#191970" points="257.6598,-26.6502 265.4791,-19.5011 254.9082,-20.2136 257.6598,-26.6502"/>
</g>
</g>
</svg>
