<?xml version="1.0" encoding="UTF-8" standalone="no"?>
<!DOCTYPE svg PUBLIC "-//W3C//DTD SVG 1.1//EN"
 "http://www.w3.org/Graphics/SVG/1.1/DTD/svg11.dtd">
<!-- Generated by graphviz version 2.40.1 (20161225.0304)
 -->
<!-- Title: boards/esp32&#45;mh&#45;et&#45;live&#45;minikit/include/gpio_params.h Pages: 1 -->
<svg width="504pt" height="218pt"
 viewBox="0.00 0.00 504.00 218.00" xmlns="http://www.w3.org/2000/svg" xmlns:xlink="http://www.w3.org/1999/xlink">
<g id="graph0" class="graph" transform="scale(1 1) rotate(0) translate(4 214)">
<title>boards/esp32&#45;mh&#45;et&#45;live&#45;minikit/include/gpio_params.h</title>
<!-- Node0 -->
<g id="node1" class="node">
<title>Node0</title>
<polygon fill="#bfbfbf" stroke="#000000" points="187,-168.5 187,-209.5 290,-209.5 290,-168.5 187,-168.5"/>
<text text-anchor="start" x="195" y="-197.5" font-family="Helvetica,sans-Serif" font-size="10.00" fill="#000000">boards/esp32&#45;mh&#45;et</text>
<text text-anchor="start" x="195" y="-186.5" font-family="Helvetica,sans-Serif" font-size="10.00" fill="#000000">&#45;live&#45;minikit/include</text>
<text text-anchor="middle" x="238.5" y="-175.5" font-family="Helvetica,sans-Serif" font-size="10.00" fill="#000000">/gpio_params.h</text>
</g>
<!-- Node1 -->
<g id="node2" class="node">
<title>Node1</title>
<g id="a_node2"><a xlink:href="esp32-mh-et-live-minikit_2include_2board_8h.html" target="_top" xlink:title="Board specific definitions for MH&#45;ET LIVE MiniKit for ESP32. ">
<polygon fill="none" stroke="#000000" points="287,-112.5 287,-131.5 336,-131.5 336,-112.5 287,-112.5"/>
<text text-anchor="middle" x="311.5" y="-119.5" font-family="Helvetica,sans-Serif" font-size="10.00" fill="#000000">board.h</text>
</a>
</g>
</g>
<!-- Node0&#45;&gt;Node1 -->
<g id="edge1" class="edge">
<title>Node0&#45;&gt;Node1</title>
<path fill="none" stroke="#191970" d="M261.1975,-168.168C271.5302,-158.6846 283.5936,-147.6127 293.3164,-138.689"/>
<polygon fill="#191970" stroke="#191970" points="295.8429,-141.1209 300.8437,-131.7805 291.1096,-135.9637 295.8429,-141.1209"/>
</g>
<!-- Node5 -->
<g id="node6" class="node">
<title>Node5</title>
<g id="a_node6"><a xlink:href="periph_8h.html" target="_top" xlink:title="Parameter definitions for mapping peripherals directly to SAUL. ">
<polygon fill="none" stroke="#000000" points="163.5,-112.5 163.5,-131.5 235.5,-131.5 235.5,-112.5 163.5,-112.5"/>
<text text-anchor="middle" x="199.5" y="-119.5" font-family="Helvetica,sans-Serif" font-size="10.00" fill="#000000">saul/periph.h</text>
</a>
</g>
</g>
<!-- Node0&#45;&gt;Node5 -->
<g id="edge5" class="edge">
<title>Node0&#45;&gt;Node5</title>
<path fill="none" stroke="#191970" d="M226.3739,-168.168C221.2401,-159.3484 215.3066,-149.155 210.323,-140.5933"/>
<polygon fill="#191970" stroke="#191970" points="213.2487,-138.6622 205.1931,-131.7805 207.199,-142.1837 213.2487,-138.6622"/>
</g>
<!-- Node2 -->
<g id="node3" class="node">
<title>Node2</title>
<polygon fill="none" stroke="#bfbfbf" points="250,-.5 250,-19.5 299,-19.5 299,-.5 250,-.5"/>
<text text-anchor="middle" x="274.5" y="-7.5" font-family="Helvetica,sans-Serif" font-size="10.00" fill="#000000">stdint.h</text>
</g>
<!-- Node1&#45;&gt;Node2 -->
<g id="edge2" class="edge">
<title>Node1&#45;&gt;Node2</title>
<path fill="none" stroke="#191970" d="M304.649,-112.2549C298.661,-103.2603 290.2086,-89.3194 285.5,-76 280.1764,-60.9408 277.3981,-43.0183 275.9668,-29.6528"/>
<polygon fill="#191970" stroke="#191970" points="279.4493,-29.3009 275.0549,-19.6604 272.4783,-29.9371 279.4493,-29.3009"/>
</g>
<!-- Node3 -->
<g id="node4" class="node">
<title>Node3</title>
<polygon fill="none" stroke="#bfbfbf" points="294.5,-56.5 294.5,-75.5 386.5,-75.5 386.5,-56.5 294.5,-56.5"/>
<text text-anchor="middle" x="340.5" y="-63.5" font-family="Helvetica,sans-Serif" font-size="10.00" fill="#000000">board_common.h</text>
</g>
<!-- Node1&#45;&gt;Node3 -->
<g id="edge3" class="edge">
<title>Node1&#45;&gt;Node3</title>
<path fill="none" stroke="#191970" d="M316.5514,-112.2455C320.5019,-104.617 326.1097,-93.7881 330.9058,-84.5267"/>
<polygon fill="#191970" stroke="#191970" points="334.0159,-86.1321 335.5065,-75.6427 327.7999,-82.9131 334.0159,-86.1321"/>
</g>
<!-- Node4 -->
<g id="node5" class="node">
<title>Node4</title>
<g id="a_node5"><a xlink:href="esp32-mh-et-live-minikit_2include_2board__modules_8h.html" target="_top" xlink:title="Definitions for Wemos stackable hardware modules (shields) ">
<polygon fill="none" stroke="#000000" points="405,-56.5 405,-75.5 496,-75.5 496,-56.5 405,-56.5"/>
<text text-anchor="middle" x="450.5" y="-63.5" font-family="Helvetica,sans-Serif" font-size="10.00" fill="#000000">board_modules.h</text>
</a>
</g>
</g>
<!-- Node1&#45;&gt;Node4 -->
<g id="edge4" class="edge">
<title>Node1&#45;&gt;Node4</title>
<path fill="none" stroke="#191970" d="M335.395,-112.3733C358.0082,-103.2629 392.1542,-89.5062 417.3873,-79.3404"/>
<polygon fill="#191970" stroke="#191970" points="418.9493,-82.4845 426.9169,-75.5011 416.3334,-75.9917 418.9493,-82.4845"/>
</g>
<!-- Node6 -->
<g id="node7" class="node">
<title>Node6</title>
<g id="a_node7"><a xlink:href="gpio_8h.html" target="_top" xlink:title="Low&#45;level GPIO peripheral driver interface definitions. ">
<polygon fill="none" stroke="#000000" points="74.5,-56.5 74.5,-75.5 146.5,-75.5 146.5,-56.5 74.5,-56.5"/>
<text text-anchor="middle" x="110.5" y="-63.5" font-family="Helvetica,sans-Serif" font-size="10.00" fill="#000000">periph/gpio.h</text>
</a>
</g>
</g>
<!-- Node5&#45;&gt;Node6 -->
<g id="edge6" class="edge">
<title>Node5&#45;&gt;Node6</title>
<path fill="none" stroke="#191970" d="M183.9974,-112.2455C170.342,-103.6534 150.2343,-91.0014 134.5011,-81.1018"/>
<polygon fill="#191970" stroke="#191970" points="136.1529,-78.006 125.825,-75.6427 132.4249,-83.9307 136.1529,-78.006"/>
</g>
<!-- Node10 -->
<g id="node11" class="node">
<title>Node10</title>
<g id="a_node11"><a xlink:href="adc_8h.html" target="_top" xlink:title="Low&#45;level ADC peripheral driver interface definitions. ">
<polygon fill="none" stroke="#000000" points="164.5,-56.5 164.5,-75.5 234.5,-75.5 234.5,-56.5 164.5,-56.5"/>
<text text-anchor="middle" x="199.5" y="-63.5" font-family="Helvetica,sans-Serif" font-size="10.00" fill="#000000">periph/adc.h</text>
</a>
</g>
</g>
<!-- Node5&#45;&gt;Node10 -->
<g id="edge10" class="edge">
<title>Node5&#45;&gt;Node10</title>
<path fill="none" stroke="#191970" d="M199.5,-112.2455C199.5,-104.9382 199.5,-94.6944 199.5,-85.7046"/>
<polygon fill="#191970" stroke="#191970" points="203.0001,-85.6426 199.5,-75.6427 196.0001,-85.6427 203.0001,-85.6426"/>
</g>
<!-- Node7 -->
<g id="node8" class="node">
<title>Node7</title>
<polygon fill="none" stroke="#bfbfbf" points="93.5,-.5 93.5,-19.5 141.5,-19.5 141.5,-.5 93.5,-.5"/>
<text text-anchor="middle" x="117.5" y="-7.5" font-family="Helvetica,sans-Serif" font-size="10.00" fill="#000000">limits.h</text>
</g>
<!-- Node6&#45;&gt;Node7 -->
<g id="edge7" class="edge">
<title>Node6&#45;&gt;Node7</title>
<path fill="none" stroke="#191970" d="M111.7193,-56.2455C112.6327,-48.9382 113.9132,-38.6944 115.0369,-29.7046"/>
<polygon fill="#191970" stroke="#191970" points="118.5272,-29.9996 116.2947,-19.6427 111.5813,-29.1313 118.5272,-29.9996"/>
</g>
<!-- Node8 -->
<g id="node9" class="node">
<title>Node8</title>
<polygon fill="none" stroke="#bfbfbf" points="159.5,-.5 159.5,-19.5 231.5,-19.5 231.5,-.5 159.5,-.5"/>
<text text-anchor="middle" x="195.5" y="-7.5" font-family="Helvetica,sans-Serif" font-size="10.00" fill="#000000">periph_cpu.h</text>
</g>
<!-- Node6&#45;&gt;Node8 -->
<g id="edge8" class="edge">
<title>Node6&#45;&gt;Node8</title>
<path fill="none" stroke="#191970" d="M125.3059,-56.2455C138.2256,-47.7337 157.1931,-35.2375 172.1552,-25.3801"/>
<polygon fill="#191970" stroke="#191970" points="174.4387,-28.067 180.8638,-19.6427 170.5876,-22.2216 174.4387,-28.067"/>
</g>
<!-- Node9 -->
<g id="node10" class="node">
<title>Node9</title>
<polygon fill="none" stroke="#bfbfbf" points="0,-.5 0,-19.5 75,-19.5 75,-.5 0,-.5"/>
<text text-anchor="middle" x="37.5" y="-7.5" font-family="Helvetica,sans-Serif" font-size="10.00" fill="#000000">periph_conf.h</text>
</g>
<!-- Node6&#45;&gt;Node9 -->
<g id="edge9" class="edge">
<title>Node6&#45;&gt;Node9</title>
<path fill="none" stroke="#191970" d="M97.7844,-56.2455C86.898,-47.8943 71.0117,-35.7076 58.28,-25.9408"/>
<polygon fill="#191970" stroke="#191970" points="60.1346,-22.9523 50.0699,-19.6427 55.8739,-28.5063 60.1346,-22.9523"/>
</g>
<!-- Node10&#45;&gt;Node2 -->
<g id="edge12" class="edge">
<title>Node10&#45;&gt;Node2</title>
<path fill="none" stroke="#191970" d="M212.564,-56.2455C223.8562,-47.814 240.3845,-35.4729 253.5271,-25.6598"/>
<polygon fill="#191970" stroke="#191970" points="255.6669,-28.4301 261.5857,-19.6427 251.4789,-22.8211 255.6669,-28.4301"/>
</g>
<!-- Node10&#45;&gt;Node7 -->
<g id="edge11" class="edge">
<title>Node10&#45;&gt;Node7</title>
<path fill="none" stroke="#191970" d="M185.2167,-56.2455C172.753,-47.7337 154.4549,-35.2375 140.0208,-25.3801"/>
<polygon fill="#191970" stroke="#191970" points="141.8515,-22.392 131.6196,-19.6427 137.9038,-28.1726 141.8515,-22.392"/>
</g>
<!-- Node10&#45;&gt;Node8 -->
<g id="edge13" class="edge">
<title>Node10&#45;&gt;Node8</title>
<path fill="none" stroke="#191970" d="M198.8033,-56.2455C198.2813,-48.9382 197.5496,-38.6944 196.9075,-29.7046"/>
<polygon fill="#191970" stroke="#191970" points="200.3924,-29.3679 196.1888,-19.6427 193.4102,-29.8667 200.3924,-29.3679"/>
</g>
<!-- Node10&#45;&gt;Node9 -->
<g id="edge14" class="edge">
<title>Node10&#45;&gt;Node9</title>
<path fill="none" stroke="#191970" d="M171.6512,-56.3733C144.8297,-47.1016 104.0873,-33.0178 74.5402,-22.804"/>
<polygon fill="#191970" stroke="#191970" points="75.5802,-19.4603 64.9854,-19.5011 73.2931,-26.0762 75.5802,-19.4603"/>
</g>
</g>
</svg>
