<?xml version="1.0" encoding="UTF-8" standalone="no"?>
<!DOCTYPE svg PUBLIC "-//W3C//DTD SVG 1.1//EN"
 "http://www.w3.org/Graphics/SVG/1.1/DTD/svg11.dtd">
<!-- Generated by graphviz version 2.43.0 (0)
 -->
<!-- Title: boards/esp32&#45;mh&#45;et&#45;live&#45;minikit/include/board.h Pages: 1 -->
<svg width="299pt" height="106pt"
 viewBox="0.00 0.00 299.00 106.00" xmlns="http://www.w3.org/2000/svg" xmlns:xlink="http://www.w3.org/1999/xlink">
<g id="graph0" class="graph" transform="scale(1 1) rotate(0) translate(4 102)">
<title>boards/esp32&#45;mh&#45;et&#45;live&#45;minikit/include/board.h</title>
<!-- Node1 -->
<g id="node1" class="node">
<title>Node1</title>
<g id="a_node1"><a xlink:title="Board specific definitions for MH&#45;ET LIVE MiniKit for ESP32.">
<polygon fill="#bfbfbf" stroke="black" points="64,-56.5 64,-97.5 179,-97.5 179,-56.5 64,-56.5"/>
<text text-anchor="start" x="72" y="-85.5" font-family="Helvetica,sans-Serif" font-size="10.00">boards/esp32&#45;mh&#45;et</text>
<text text-anchor="start" x="72" y="-74.5" font-family="Helvetica,sans-Serif" font-size="10.00">&#45;live&#45;minikit/include</text>
<text text-anchor="middle" x="121.5" y="-63.5" font-family="Helvetica,sans-Serif" font-size="10.00">/board.h</text>
</a>
</g>
</g>
<!-- Node2 -->
<g id="node2" class="node">
<title>Node2</title>
<g id="a_node2"><a xlink:title=" ">
<polygon fill="none" stroke="#bfbfbf" points="0,-0.5 0,-19.5 53,-19.5 53,-0.5 0,-0.5"/>
<text text-anchor="middle" x="26.5" y="-7.5" font-family="Helvetica,sans-Serif" font-size="10.00">stdint.h</text>
</a>
</g>
</g>
<!-- Node1&#45;&gt;Node2 -->
<g id="edge1" class="edge">
<title>Node1&#45;&gt;Node2</title>
<path fill="none" stroke="midnightblue" d="M93,-56.5C78.43,-46.53 61.01,-34.61 47.66,-25.48"/>
<polygon fill="midnightblue" stroke="midnightblue" points="49.38,-22.41 39.15,-19.65 45.42,-28.19 49.38,-22.41"/>
</g>
<!-- Node3 -->
<g id="node3" class="node">
<title>Node3</title>
<g id="a_node3"><a xlink:title=" ">
<polygon fill="none" stroke="#bfbfbf" points="71,-0.5 71,-19.5 172,-19.5 172,-0.5 71,-0.5"/>
<text text-anchor="middle" x="121.5" y="-7.5" font-family="Helvetica,sans-Serif" font-size="10.00">board_common.h</text>
</a>
</g>
</g>
<!-- Node1&#45;&gt;Node3 -->
<g id="edge2" class="edge">
<title>Node1&#45;&gt;Node3</title>
<path fill="none" stroke="midnightblue" d="M121.5,-56.5C121.5,-48.07 121.5,-38.24 121.5,-29.87"/>
<polygon fill="midnightblue" stroke="midnightblue" points="125,-29.65 121.5,-19.65 118,-29.65 125,-29.65"/>
</g>
<!-- Node4 -->
<g id="node4" class="node">
<title>Node4</title>
<g id="a_node4"><a xlink:href="esp32-mh-et-live-minikit_2include_2board__modules_8h.html" target="_top" xlink:title="Definitions for Wemos stackable hardware modules (shields)">
<polygon fill="none" stroke="black" points="190,-0.5 190,-19.5 291,-19.5 291,-0.5 190,-0.5"/>
<text text-anchor="middle" x="240.5" y="-7.5" font-family="Helvetica,sans-Serif" font-size="10.00">board_modules.h</text>
</a>
</g>
</g>
<!-- Node1&#45;&gt;Node4 -->
<g id="edge3" class="edge">
<title>Node1&#45;&gt;Node4</title>
<path fill="none" stroke="midnightblue" d="M157.2,-56.5C175.98,-46.24 198.53,-33.93 215.43,-24.69"/>
<polygon fill="midnightblue" stroke="midnightblue" points="217.56,-27.52 224.66,-19.65 214.21,-21.37 217.56,-27.52"/>
</g>
</g>
</svg>
