<?xml version="1.0" encoding="UTF-8" standalone="no"?>
<!DOCTYPE svg PUBLIC "-//W3C//DTD SVG 1.1//EN"
 "http://www.w3.org/Graphics/SVG/1.1/DTD/svg11.dtd">
<!-- Generated by graphviz version 2.40.1 (20161225.0304)
 -->
<!-- Title: boards/esp32&#45;wroom&#45;32/include/arduino_board.h Pages: 1 -->
<svg width="136pt" height="162pt"
 viewBox="0.00 0.00 136.00 162.00" xmlns="http://www.w3.org/2000/svg" xmlns:xlink="http://www.w3.org/1999/xlink">
<g id="graph0" class="graph" transform="scale(1 1) rotate(0) translate(4 158)">
<title>boards/esp32&#45;wroom&#45;32/include/arduino_board.h</title>
<!-- Node0 -->
<g id="node1" class="node">
<title>Node0</title>
<polygon fill="#bfbfbf" stroke="#000000" points="10.5,-112.5 10.5,-153.5 117.5,-153.5 117.5,-112.5 10.5,-112.5"/>
<text text-anchor="start" x="18.5" y="-141.5" font-family="Helvetica,sans-Serif" font-size="10.00" fill="#000000">boards/esp32&#45;wroom</text>
<text text-anchor="start" x="18.5" y="-130.5" font-family="Helvetica,sans-Serif" font-size="10.00" fill="#000000">&#45;32/include/arduino</text>
<text text-anchor="middle" x="64" y="-119.5" font-family="Helvetica,sans-Serif" font-size="10.00" fill="#000000">_board.h</text>
</g>
<!-- Node1 -->
<g id="node2" class="node">
<title>Node1</title>
<g id="a_node2"><a xlink:href="arduino__board__common_8h.html" target="_top" xlink:title="Common board for the Arduino API. ">
<polygon fill="none" stroke="#000000" points="0,-56.5 0,-75.5 128,-75.5 128,-56.5 0,-56.5"/>
<text text-anchor="middle" x="64" y="-63.5" font-family="Helvetica,sans-Serif" font-size="10.00" fill="#000000">arduino_board_common.h</text>
</a>
</g>
</g>
<!-- Node0&#45;&gt;Node1 -->
<g id="edge1" class="edge">
<title>Node0&#45;&gt;Node1</title>
<path fill="none" stroke="#191970" d="M64,-112.168C64,-103.8226 64,-94.2471 64,-85.9879"/>
<polygon fill="#191970" stroke="#191970" points="67.5001,-85.7804 64,-75.7805 60.5001,-85.7805 67.5001,-85.7804"/>
</g>
<!-- Node2 -->
<g id="node3" class="node">
<title>Node2</title>
<polygon fill="none" stroke="#bfbfbf" points="17.5,-.5 17.5,-19.5 110.5,-19.5 110.5,-.5 17.5,-.5"/>
<text text-anchor="middle" x="64" y="-7.5" font-family="Helvetica,sans-Serif" font-size="10.00" fill="#000000">arduino_pinmap.h</text>
</g>
<!-- Node1&#45;&gt;Node2 -->
<g id="edge2" class="edge">
<title>Node1&#45;&gt;Node2</title>
<path fill="none" stroke="#191970" d="M64,-56.2455C64,-48.9382 64,-38.6944 64,-29.7046"/>
<polygon fill="#191970" stroke="#191970" points="67.5001,-29.6426 64,-19.6427 60.5001,-29.6427 67.5001,-29.6426"/>
</g>
</g>
</svg>
