<?xml version="1.0" encoding="UTF-8" standalone="no"?>
<!DOCTYPE svg PUBLIC "-//W3C//DTD SVG 1.1//EN"
 "http://www.w3.org/Graphics/SVG/1.1/DTD/svg11.dtd">
<!-- Generated by graphviz version 2.40.1 (20161225.0304)
 -->
<!-- Title: cpu/esp8266/include/irq_arch.h Pages: 1 -->
<svg width="552pt" height="263pt"
 viewBox="0.00 0.00 552.00 263.00" xmlns="http://www.w3.org/2000/svg" xmlns:xlink="http://www.w3.org/1999/xlink">
<g id="graph0" class="graph" transform="scale(1 1) rotate(0) translate(4 259)">
<title>cpu/esp8266/include/irq_arch.h</title>
<!-- Node0 -->
<g id="node1" class="node">
<title>Node0</title>
<polygon fill="#bfbfbf" stroke="#000000" points="282.5,-224.5 282.5,-254.5 388.5,-254.5 388.5,-224.5 282.5,-224.5"/>
<text text-anchor="start" x="290.5" y="-242.5" font-family="Helvetica,sans-Serif" font-size="10.00" fill="#000000">cpu/esp8266/include</text>
<text text-anchor="middle" x="335.5" y="-231.5" font-family="Helvetica,sans-Serif" font-size="10.00" fill="#000000">/irq_arch.h</text>
</g>
<!-- Node1 -->
<g id="node2" class="node">
<title>Node1</title>
<g id="a_node2"><a xlink:href="irq__arch__common_8h.html" target="_top" xlink:title="Implementation of the kernels irq interface. ">
<polygon fill="none" stroke="#000000" points="284.5,-168.5 284.5,-187.5 386.5,-187.5 386.5,-168.5 284.5,-168.5"/>
<text text-anchor="middle" x="335.5" y="-175.5" font-family="Helvetica,sans-Serif" font-size="10.00" fill="#000000">irq_arch_common.h</text>
</a>
</g>
</g>
<!-- Node0&#45;&gt;Node1 -->
<g id="edge1" class="edge">
<title>Node0&#45;&gt;Node1</title>
<path fill="none" stroke="#191970" d="M335.5,-224.2977C335.5,-216.3834 335.5,-206.6043 335.5,-198.0759"/>
<polygon fill="#191970" stroke="#191970" points="339.0001,-197.8469 335.5,-187.8469 332.0001,-197.847 339.0001,-197.8469"/>
</g>
<!-- Node2 -->
<g id="node3" class="node">
<title>Node2</title>
<g id="a_node3"><a xlink:href="irq_8h.html" target="_top" xlink:title="IRQ driver interface. ">
<polygon fill="none" stroke="#000000" points="94,-112.5 94,-131.5 129,-131.5 129,-112.5 94,-112.5"/>
<text text-anchor="middle" x="111.5" y="-119.5" font-family="Helvetica,sans-Serif" font-size="10.00" fill="#000000">irq.h</text>
</a>
</g>
</g>
<!-- Node1&#45;&gt;Node2 -->
<g id="edge2" class="edge">
<title>Node1&#45;&gt;Node2</title>
<path fill="none" stroke="#191970" d="M297.2475,-168.4369C252.2832,-157.1958 178.7715,-138.8179 139.0501,-128.8875"/>
<polygon fill="#191970" stroke="#191970" points="139.8057,-125.4688 129.2553,-126.4388 138.1079,-132.2598 139.8057,-125.4688"/>
</g>
<!-- Node5 -->
<g id="node6" class="node">
<title>Node5</title>
<g id="a_node6"><a xlink:href="sched_8h.html" target="_top" xlink:title="Scheduler API definition. ">
<polygon fill="none" stroke="#000000" points="310,-112.5 310,-131.5 361,-131.5 361,-112.5 310,-112.5"/>
<text text-anchor="middle" x="335.5" y="-119.5" font-family="Helvetica,sans-Serif" font-size="10.00" fill="#000000">sched.h</text>
</a>
</g>
</g>
<!-- Node1&#45;&gt;Node5 -->
<g id="edge5" class="edge">
<title>Node1&#45;&gt;Node5</title>
<path fill="none" stroke="#191970" d="M335.5,-168.2455C335.5,-160.9382 335.5,-150.6944 335.5,-141.7046"/>
<polygon fill="#191970" stroke="#191970" points="339.0001,-141.6426 335.5,-131.6427 332.0001,-141.6427 339.0001,-141.6426"/>
</g>
<!-- Node16 -->
<g id="node17" class="node">
<title>Node16</title>
<polygon fill="none" stroke="#bfbfbf" points="379.5,-112.5 379.5,-131.5 431.5,-131.5 431.5,-112.5 379.5,-112.5"/>
<text text-anchor="middle" x="405.5" y="-119.5" font-family="Helvetica,sans-Serif" font-size="10.00" fill="#000000">thread.h</text>
</g>
<!-- Node1&#45;&gt;Node16 -->
<g id="edge19" class="edge">
<title>Node1&#45;&gt;Node16</title>
<path fill="none" stroke="#191970" d="M347.6931,-168.2455C358.1321,-159.8943 373.3655,-147.7076 385.574,-137.9408"/>
<polygon fill="#191970" stroke="#191970" points="387.8244,-140.6227 393.4467,-131.6427 383.4515,-135.1566 387.8244,-140.6227"/>
</g>
<!-- Node3 -->
<g id="node4" class="node">
<title>Node3</title>
<polygon fill="none" stroke="#bfbfbf" points="83.5,-56.5 83.5,-75.5 139.5,-75.5 139.5,-56.5 83.5,-56.5"/>
<text text-anchor="middle" x="111.5" y="-63.5" font-family="Helvetica,sans-Serif" font-size="10.00" fill="#000000">stdbool.h</text>
</g>
<!-- Node2&#45;&gt;Node3 -->
<g id="edge3" class="edge">
<title>Node2&#45;&gt;Node3</title>
<path fill="none" stroke="#191970" d="M111.5,-112.2455C111.5,-104.9382 111.5,-94.6944 111.5,-85.7046"/>
<polygon fill="#191970" stroke="#191970" points="115.0001,-85.6426 111.5,-75.6427 108.0001,-85.6427 115.0001,-85.6426"/>
</g>
<!-- Node4 -->
<g id="node5" class="node">
<title>Node4</title>
<polygon fill="none" stroke="#bfbfbf" points="0,-56.5 0,-75.5 65,-75.5 65,-56.5 0,-56.5"/>
<text text-anchor="middle" x="32.5" y="-63.5" font-family="Helvetica,sans-Serif" font-size="10.00" fill="#000000">cpu_conf.h</text>
</g>
<!-- Node2&#45;&gt;Node4 -->
<g id="edge4" class="edge">
<title>Node2&#45;&gt;Node4</title>
<path fill="none" stroke="#191970" d="M97.7393,-112.2455C85.8448,-103.814 68.435,-91.4729 54.5915,-81.6598"/>
<polygon fill="#191970" stroke="#191970" points="56.2854,-78.5704 46.1031,-75.6427 52.2372,-84.2811 56.2854,-78.5704"/>
</g>
<!-- Node6 -->
<g id="node7" class="node">
<title>Node6</title>
<polygon fill="none" stroke="#bfbfbf" points="340.5,-.5 340.5,-19.5 392.5,-19.5 392.5,-.5 340.5,-.5"/>
<text text-anchor="middle" x="366.5" y="-7.5" font-family="Helvetica,sans-Serif" font-size="10.00" fill="#000000">stddef.h</text>
</g>
<!-- Node5&#45;&gt;Node6 -->
<g id="edge6" class="edge">
<title>Node5&#45;&gt;Node6</title>
<path fill="none" stroke="#191970" d="M339.5664,-112.2671C343.3046,-103.0496 348.8102,-88.7591 352.5,-76 356.9743,-60.5282 360.681,-42.6364 363.154,-29.3876"/>
<polygon fill="#191970" stroke="#191970" points="366.6058,-29.9673 364.9308,-19.5057 359.7163,-28.7284 366.6058,-29.9673"/>
</g>
<!-- Node7 -->
<g id="node8" class="node">
<title>Node7</title>
<g id="a_node8"><a xlink:href="kernel__defines_8h.html" target="_top" xlink:title="Common macros and compiler attributes/pragmas configuration. ">
<polygon fill="none" stroke="#000000" points="255.5,-56.5 255.5,-75.5 343.5,-75.5 343.5,-56.5 255.5,-56.5"/>
<text text-anchor="middle" x="299.5" y="-63.5" font-family="Helvetica,sans-Serif" font-size="10.00" fill="#000000">kernel_defines.h</text>
</a>
</g>
</g>
<!-- Node5&#45;&gt;Node7 -->
<g id="edge7" class="edge">
<title>Node5&#45;&gt;Node7</title>
<path fill="none" stroke="#191970" d="M329.2293,-112.2455C324.2736,-104.5367 317.217,-93.5598 311.2224,-84.2348"/>
<polygon fill="#191970" stroke="#191970" points="314.0506,-82.1618 305.6989,-75.6427 308.1624,-85.9471 314.0506,-82.1618"/>
</g>
<!-- Node8 -->
<g id="node9" class="node">
<title>Node8</title>
<g id="a_node9"><a xlink:href="kernel__types_8h.html" target="_top" xlink:title="Types used by the kernel. ">
<polygon fill="none" stroke="#000000" points="157.5,-56.5 157.5,-75.5 237.5,-75.5 237.5,-56.5 157.5,-56.5"/>
<text text-anchor="middle" x="197.5" y="-63.5" font-family="Helvetica,sans-Serif" font-size="10.00" fill="#000000">kernel_types.h</text>
</a>
</g>
</g>
<!-- Node5&#45;&gt;Node8 -->
<g id="edge9" class="edge">
<title>Node5&#45;&gt;Node8</title>
<path fill="none" stroke="#191970" d="M311.777,-112.3733C289.3263,-103.2629 255.4261,-89.5062 230.3745,-79.3404"/>
<polygon fill="#191970" stroke="#191970" points="231.4957,-76.0182 220.9135,-75.5011 228.8635,-82.5045 231.4957,-76.0182"/>
</g>
<!-- Node13 -->
<g id="node14" class="node">
<title>Node13</title>
<g id="a_node14"><a xlink:href="native__sched_8h.html" target="_top" xlink:title="Add definitions required on the native board. ">
<polygon fill="none" stroke="#000000" points="400,-56.5 400,-75.5 483,-75.5 483,-56.5 400,-56.5"/>
<text text-anchor="middle" x="441.5" y="-63.5" font-family="Helvetica,sans-Serif" font-size="10.00" fill="#000000">native_sched.h</text>
</a>
</g>
</g>
<!-- Node5&#45;&gt;Node13 -->
<g id="edge15" class="edge">
<title>Node5&#45;&gt;Node13</title>
<path fill="none" stroke="#191970" d="M353.9638,-112.2455C370.6074,-103.4527 395.2993,-90.4079 414.2192,-80.4125"/>
<polygon fill="#191970" stroke="#191970" points="416.0408,-83.4086 423.2478,-75.6427 412.7709,-77.2193 416.0408,-83.4086"/>
</g>
<!-- Node14 -->
<g id="node15" class="node">
<title>Node14</title>
<g id="a_node15"><a xlink:href="clist_8h.html" target="_top" xlink:title="Circular linked list. ">
<polygon fill="none" stroke="#000000" points="501,-56.5 501,-75.5 544,-75.5 544,-56.5 501,-56.5"/>
<text text-anchor="middle" x="522.5" y="-63.5" font-family="Helvetica,sans-Serif" font-size="10.00" fill="#000000">clist.h</text>
</a>
</g>
</g>
<!-- Node5&#45;&gt;Node14 -->
<g id="edge16" class="edge">
<title>Node5&#45;&gt;Node14</title>
<path fill="none" stroke="#191970" d="M361.0882,-114.6268C395.491,-104.6944 455.6964,-87.2408 491.1679,-76.331"/>
<polygon fill="#191970" stroke="#191970" points="492.3907,-79.6162 500.9007,-73.3051 490.3124,-72.9318 492.3907,-79.6162"/>
</g>
<!-- Node7&#45;&gt;Node6 -->
<g id="edge8" class="edge">
<title>Node7&#45;&gt;Node6</title>
<path fill="none" stroke="#191970" d="M311.1705,-56.2455C321.0661,-47.9746 335.4627,-35.9416 347.0901,-26.2232"/>
<polygon fill="#191970" stroke="#191970" points="349.535,-28.7413 354.9632,-19.6427 345.0458,-23.3703 349.535,-28.7413"/>
</g>
<!-- Node8&#45;&gt;Node6 -->
<g id="edge13" class="edge">
<title>Node8&#45;&gt;Node6</title>
<path fill="none" stroke="#191970" d="M226.5521,-56.3733C255.4207,-46.8073 299.7481,-32.119 330.7581,-21.8435"/>
<polygon fill="#191970" stroke="#191970" points="331.9303,-25.1423 340.3218,-18.6744 329.7285,-18.4976 331.9303,-25.1423"/>
</g>
<!-- Node9 -->
<g id="node10" class="node">
<title>Node9</title>
<polygon fill="none" stroke="#bfbfbf" points="34,-.5 34,-19.5 83,-19.5 83,-.5 34,-.5"/>
<text text-anchor="middle" x="58.5" y="-7.5" font-family="Helvetica,sans-Serif" font-size="10.00" fill="#000000">stdint.h</text>
</g>
<!-- Node8&#45;&gt;Node9 -->
<g id="edge10" class="edge">
<title>Node8&#45;&gt;Node9</title>
<path fill="none" stroke="#191970" d="M173.605,-56.3733C150.9918,-47.2629 116.8458,-33.5062 91.6127,-23.3404"/>
<polygon fill="#191970" stroke="#191970" points="92.6666,-19.9917 82.0831,-19.5011 90.0507,-26.4845 92.6666,-19.9917"/>
</g>
<!-- Node10 -->
<g id="node11" class="node">
<title>Node10</title>
<g id="a_node11"><a xlink:href="inttypes_8h.html" target="_top" xlink:title="Adds include for missing inttype definitions. ">
<polygon fill="none" stroke="#000000" points="101,-.5 101,-19.5 160,-19.5 160,-.5 101,-.5"/>
<text text-anchor="middle" x="130.5" y="-7.5" font-family="Helvetica,sans-Serif" font-size="10.00" fill="#000000">inttypes.h</text>
</a>
</g>
</g>
<!-- Node8&#45;&gt;Node10 -->
<g id="edge11" class="edge">
<title>Node8&#45;&gt;Node10</title>
<path fill="none" stroke="#191970" d="M185.8295,-56.2455C175.9339,-47.9746 161.5373,-35.9416 149.9099,-26.2232"/>
<polygon fill="#191970" stroke="#191970" points="151.9542,-23.3703 142.0368,-19.6427 147.465,-28.7413 151.9542,-23.3703"/>
</g>
<!-- Node11 -->
<g id="node12" class="node">
<title>Node11</title>
<polygon fill="none" stroke="#bfbfbf" points="178.5,-.5 178.5,-19.5 226.5,-19.5 226.5,-.5 178.5,-.5"/>
<text text-anchor="middle" x="202.5" y="-7.5" font-family="Helvetica,sans-Serif" font-size="10.00" fill="#000000">limits.h</text>
</g>
<!-- Node8&#45;&gt;Node11 -->
<g id="edge12" class="edge">
<title>Node8&#45;&gt;Node11</title>
<path fill="none" stroke="#191970" d="M198.3709,-56.2455C199.0234,-48.9382 199.938,-38.6944 200.7407,-29.7046"/>
<polygon fill="#191970" stroke="#191970" points="204.2358,-29.9143 201.639,-19.6427 197.2635,-29.2918 204.2358,-29.9143"/>
</g>
<!-- Node12 -->
<g id="node13" class="node">
<title>Node12</title>
<polygon fill="none" stroke="#bfbfbf" points="244.5,-.5 244.5,-19.5 312.5,-19.5 312.5,-.5 244.5,-.5"/>
<text text-anchor="middle" x="278.5" y="-7.5" font-family="Helvetica,sans-Serif" font-size="10.00" fill="#000000">sys/types.h</text>
</g>
<!-- Node8&#45;&gt;Node12 -->
<g id="edge14" class="edge">
<title>Node8&#45;&gt;Node12</title>
<path fill="none" stroke="#191970" d="M211.6091,-56.2455C223.9209,-47.7337 241.9958,-35.2375 256.2538,-25.3801"/>
<polygon fill="#191970" stroke="#191970" points="258.3174,-28.2085 264.5526,-19.6427 254.3366,-22.4506 258.3174,-28.2085"/>
</g>
<!-- Node14&#45;&gt;Node6 -->
<g id="edge17" class="edge">
<title>Node14&#45;&gt;Node6</title>
<path fill="none" stroke="#191970" d="M500.8089,-58.2134C475.3855,-49.0871 432.8728,-33.8262 402.4859,-22.918"/>
<polygon fill="#191970" stroke="#191970" points="403.2823,-19.4853 392.6878,-19.4008 400.9172,-26.0737 403.2823,-19.4853"/>
</g>
<!-- Node15 -->
<g id="node16" class="node">
<title>Node15</title>
<g id="a_node16"><a xlink:href="list_8h.html" target="_top" xlink:title="Intrusive linked list. ">
<polygon fill="none" stroke="#000000" points="503.5,-.5 503.5,-19.5 541.5,-19.5 541.5,-.5 503.5,-.5"/>
<text text-anchor="middle" x="522.5" y="-7.5" font-family="Helvetica,sans-Serif" font-size="10.00" fill="#000000">list.h</text>
</a>
</g>
</g>
<!-- Node14&#45;&gt;Node15 -->
<g id="edge18" class="edge">
<title>Node14&#45;&gt;Node15</title>
<path fill="none" stroke="#191970" d="M522.5,-56.2455C522.5,-48.9382 522.5,-38.6944 522.5,-29.7046"/>
<polygon fill="#191970" stroke="#191970" points="526.0001,-29.6426 522.5,-19.6427 519.0001,-29.6427 526.0001,-29.6426"/>
</g>
</g>
</svg>
