<?xml version="1.0" encoding="UTF-8" standalone="no"?>
<!DOCTYPE svg PUBLIC "-//W3C//DTD SVG 1.1//EN"
 "http://www.w3.org/Graphics/SVG/1.1/DTD/svg11.dtd">
<!-- Generated by graphviz version 2.40.1 (20161225.0304)
 -->
<!-- Title: cpu/esp8266/include/cpu_conf.h Pages: 1 -->
<svg width="212pt" height="95pt"
 viewBox="0.00 0.00 211.50 95.00" xmlns="http://www.w3.org/2000/svg" xmlns:xlink="http://www.w3.org/1999/xlink">
<g id="graph0" class="graph" transform="scale(1 1) rotate(0) translate(4 91)">
<title>cpu/esp8266/include/cpu_conf.h</title>
<!-- Node0 -->
<g id="node1" class="node">
<title>Node0</title>
<polygon fill="#bfbfbf" stroke="#000000" points="55.5,-56.5 55.5,-86.5 161.5,-86.5 161.5,-56.5 55.5,-56.5"/>
<text text-anchor="start" x="63.5" y="-74.5" font-family="Helvetica,sans-Serif" font-size="10.00" fill="#000000">cpu/esp8266/include</text>
<text text-anchor="middle" x="108.5" y="-63.5" font-family="Helvetica,sans-Serif" font-size="10.00" fill="#000000">/cpu_conf.h</text>
</g>
<!-- Node1 -->
<g id="node2" class="node">
<title>Node1</title>
<polygon fill="none" stroke="#bfbfbf" points="0,-.5 0,-19.5 107,-19.5 107,-.5 0,-.5"/>
<text text-anchor="middle" x="53.5" y="-7.5" font-family="Helvetica,sans-Serif" font-size="10.00" fill="#000000">cpu_conf_common.h</text>
</g>
<!-- Node0&#45;&gt;Node1 -->
<g id="edge1" class="edge">
<title>Node0&#45;&gt;Node1</title>
<path fill="none" stroke="#191970" d="M94.9045,-56.2977C87.1109,-47.5831 77.2953,-36.6075 69.1774,-27.5302"/>
<polygon fill="#191970" stroke="#191970" points="71.5813,-24.9678 62.3062,-19.8469 66.3635,-29.6341 71.5813,-24.9678"/>
</g>
<!-- Node2 -->
<g id="node3" class="node">
<title>Node2</title>
<g id="a_node3"><a xlink:href="xtensa__conf_8h.html" target="_top" xlink:title="Xtensa ASM code specific configuration options for ESP SoCs. ">
<polygon fill="none" stroke="#000000" points="125.5,-.5 125.5,-19.5 203.5,-19.5 203.5,-.5 125.5,-.5"/>
<text text-anchor="middle" x="164.5" y="-7.5" font-family="Helvetica,sans-Serif" font-size="10.00" fill="#000000">xtensa_conf.h</text>
</a>
</g>
</g>
<!-- Node0&#45;&gt;Node2 -->
<g id="edge2" class="edge">
<title>Node0&#45;&gt;Node2</title>
<path fill="none" stroke="#191970" d="M122.3427,-56.2977C130.359,-47.4941 140.4762,-36.3833 148.79,-27.2529"/>
<polygon fill="#191970" stroke="#191970" points="151.3888,-29.5974 155.5337,-19.8469 146.2131,-24.8845 151.3888,-29.5974"/>
</g>
</g>
</svg>
