<?xml version="1.0" encoding="UTF-8" standalone="no"?>
<!DOCTYPE svg PUBLIC "-//W3C//DTD SVG 1.1//EN"
 "http://www.w3.org/Graphics/SVG/1.1/DTD/svg11.dtd">
<!-- Generated by graphviz version 2.40.1 (20161225.0304)
 -->
<!-- Title: drivers/include/net/netdev/eth.h Pages: 1 -->
<svg width="272pt" height="207pt"
 viewBox="0.00 0.00 271.50 207.00" xmlns="http://www.w3.org/2000/svg" xmlns:xlink="http://www.w3.org/1999/xlink">
<g id="graph0" class="graph" transform="scale(1 1) rotate(0) translate(4 203)">
<title>drivers/include/net/netdev/eth.h</title>
<!-- Node0 -->
<g id="node1" class="node">
<title>Node0</title>
<polygon fill="#bfbfbf" stroke="#000000" points="61.5,-168.5 61.5,-198.5 157.5,-198.5 157.5,-168.5 61.5,-168.5"/>
<text text-anchor="start" x="69.5" y="-186.5" font-family="Helvetica,sans-Serif" font-size="10.00" fill="#000000">drivers/include/net</text>
<text text-anchor="middle" x="109.5" y="-175.5" font-family="Helvetica,sans-Serif" font-size="10.00" fill="#000000">/netdev/eth.h</text>
</g>
<!-- Node1 -->
<g id="node2" class="node">
<title>Node1</title>
<polygon fill="none" stroke="#bfbfbf" points="0,-56.5 0,-75.5 49,-75.5 49,-56.5 0,-56.5"/>
<text text-anchor="middle" x="24.5" y="-63.5" font-family="Helvetica,sans-Serif" font-size="10.00" fill="#000000">stdint.h</text>
</g>
<!-- Node0&#45;&gt;Node1 -->
<g id="edge1" class="edge">
<title>Node0&#45;&gt;Node1</title>
<path fill="none" stroke="#191970" d="M94.9805,-168.3088C85.7819,-158.3502 73.8928,-144.8418 64.5,-132 53.2976,-116.684 42.2478,-98.1147 34.6104,-84.5792"/>
<polygon fill="#191970" stroke="#191970" points="37.6125,-82.7759 29.6988,-75.7314 31.4922,-86.1734 37.6125,-82.7759"/>
</g>
<!-- Node2 -->
<g id="node3" class="node">
<title>Node2</title>
<g id="a_node3"><a xlink:href="drivers_2include_2net_2netdev_8h.html" target="_top" xlink:title="Definitions low&#45;level network driver interface. ">
<polygon fill="none" stroke="#000000" points="74,-112.5 74,-131.5 145,-131.5 145,-112.5 74,-112.5"/>
<text text-anchor="middle" x="109.5" y="-119.5" font-family="Helvetica,sans-Serif" font-size="10.00" fill="#000000">net/netdev.h</text>
</a>
</g>
</g>
<!-- Node0&#45;&gt;Node2 -->
<g id="edge2" class="edge">
<title>Node0&#45;&gt;Node2</title>
<path fill="none" stroke="#191970" d="M109.5,-168.2977C109.5,-160.3834 109.5,-150.6043 109.5,-142.0759"/>
<polygon fill="#191970" stroke="#191970" points="113.0001,-141.8469 109.5,-131.8469 106.0001,-141.847 113.0001,-141.8469"/>
</g>
<!-- Node6 -->
<g id="node7" class="node">
<title>Node6</title>
<g id="a_node7"><a xlink:href="netopt_8h.html" target="_top" xlink:title="Definition of global configuration options. ">
<polygon fill="none" stroke="#000000" points="195.5,-56.5 195.5,-75.5 263.5,-75.5 263.5,-56.5 195.5,-56.5"/>
<text text-anchor="middle" x="229.5" y="-63.5" font-family="Helvetica,sans-Serif" font-size="10.00" fill="#000000">net/netopt.h</text>
</a>
</g>
</g>
<!-- Node0&#45;&gt;Node6 -->
<g id="edge8" class="edge">
<title>Node0&#45;&gt;Node6</title>
<path fill="none" stroke="#191970" d="M125.1879,-168.1389C147.6925,-146.1032 188.9885,-105.6675 212.3013,-82.8403"/>
<polygon fill="#191970" stroke="#191970" points="215.0407,-85.0566 219.7371,-75.5595 210.1433,-80.055 215.0407,-85.0566"/>
</g>
<!-- Node2&#45;&gt;Node1 -->
<g id="edge3" class="edge">
<title>Node2&#45;&gt;Node1</title>
<path fill="none" stroke="#191970" d="M94.6941,-112.2455C81.7744,-103.7337 62.8069,-91.2375 47.8448,-81.3801"/>
<polygon fill="#191970" stroke="#191970" points="49.4124,-78.2216 39.1362,-75.6427 45.5613,-84.067 49.4124,-78.2216"/>
</g>
<!-- Node3 -->
<g id="node4" class="node">
<title>Node3</title>
<g id="a_node4"><a xlink:href="errno_8h.html" target="_top" xlink:title="errno.h">
<polygon fill="none" stroke="#000000" points="67,-56.5 67,-75.5 114,-75.5 114,-56.5 67,-56.5"/>
<text text-anchor="middle" x="90.5" y="-63.5" font-family="Helvetica,sans-Serif" font-size="10.00" fill="#000000">errno.h</text>
</a>
</g>
</g>
<!-- Node2&#45;&gt;Node3 -->
<g id="edge4" class="edge">
<title>Node2&#45;&gt;Node3</title>
<path fill="none" stroke="#191970" d="M106.1905,-112.2455C103.6567,-104.7776 100.0823,-94.2427 96.985,-85.1137"/>
<polygon fill="#191970" stroke="#191970" points="100.2991,-83.9879 93.7716,-75.6427 93.6702,-86.237 100.2991,-83.9879"/>
</g>
<!-- Node4 -->
<g id="node5" class="node">
<title>Node4</title>
<g id="a_node5"><a xlink:href="iolist_8h.html" target="_top" xlink:title="iolist scatter / gather IO ">
<polygon fill="none" stroke="#000000" points="132,-56.5 132,-75.5 177,-75.5 177,-56.5 132,-56.5"/>
<text text-anchor="middle" x="154.5" y="-63.5" font-family="Helvetica,sans-Serif" font-size="10.00" fill="#000000">iolist.h</text>
</a>
</g>
</g>
<!-- Node2&#45;&gt;Node4 -->
<g id="edge5" class="edge">
<title>Node2&#45;&gt;Node4</title>
<path fill="none" stroke="#191970" d="M117.3384,-112.2455C123.662,-104.3761 132.7224,-93.101 140.3136,-83.6542"/>
<polygon fill="#191970" stroke="#191970" points="143.2158,-85.6302 146.7514,-75.6427 137.7592,-81.2454 143.2158,-85.6302"/>
</g>
<!-- Node2&#45;&gt;Node6 -->
<g id="edge7" class="edge">
<title>Node2&#45;&gt;Node6</title>
<path fill="none" stroke="#191970" d="M130.1287,-112.3733C149.3919,-103.3838 178.3486,-89.8706 200.0419,-79.7471"/>
<polygon fill="#191970" stroke="#191970" points="201.5587,-82.9017 209.1405,-75.5011 198.5985,-76.5584 201.5587,-82.9017"/>
</g>
<!-- Node5 -->
<g id="node6" class="node">
<title>Node5</title>
<polygon fill="none" stroke="#bfbfbf" points="129,-.5 129,-19.5 180,-19.5 180,-.5 129,-.5"/>
<text text-anchor="middle" x="154.5" y="-7.5" font-family="Helvetica,sans-Serif" font-size="10.00" fill="#000000">unistd.h</text>
</g>
<!-- Node4&#45;&gt;Node5 -->
<g id="edge6" class="edge">
<title>Node4&#45;&gt;Node5</title>
<path fill="none" stroke="#191970" d="M154.5,-56.2455C154.5,-48.9382 154.5,-38.6944 154.5,-29.7046"/>
<polygon fill="#191970" stroke="#191970" points="158.0001,-29.6426 154.5,-19.6427 151.0001,-29.6427 158.0001,-29.6426"/>
</g>
</g>
</svg>
