<?xml version="1.0" encoding="UTF-8" standalone="no"?>
<!DOCTYPE svg PUBLIC "-//W3C//DTD SVG 1.1//EN"
 "http://www.w3.org/Graphics/SVG/1.1/DTD/svg11.dtd">
<!-- Generated by graphviz version 2.43.0 (0)
 -->
<!-- Title: drivers/include/ethos.h Pages: 1 -->
<svg width="1236pt" height="420pt"
 viewBox="0.00 0.00 1236.00 420.00" xmlns="http://www.w3.org/2000/svg" xmlns:xlink="http://www.w3.org/1999/xlink">
<g id="graph0" class="graph" transform="scale(1 1) rotate(0) translate(4 416)">
<title>drivers/include/ethos.h</title>
<!-- Node1 -->
<g id="node1" class="node">
<title>Node1</title>
<g id="a_node1"><a xlink:title="Interface definition for the ethernet&#45;over&#45;serial module.">
<polygon fill="#bfbfbf" stroke="black" points="416,-392.5 416,-411.5 544,-411.5 544,-392.5 416,-392.5"/>
<text text-anchor="middle" x="480" y="-399.5" font-family="Helvetica,sans-Serif" font-size="10.00">drivers/include/ethos.h</text>
</a>
</g>
</g>
<!-- Node2 -->
<g id="node2" class="node">
<title>Node2</title>
<g id="a_node2"><a xlink:title=" ">
<polygon fill="none" stroke="#bfbfbf" points="754,-112.5 754,-131.5 816,-131.5 816,-112.5 754,-112.5"/>
<text text-anchor="middle" x="785" y="-119.5" font-family="Helvetica,sans-Serif" font-size="10.00">stdbool.h</text>
</a>
</g>
</g>
<!-- Node1&#45;&gt;Node2 -->
<g id="edge1" class="edge">
<title>Node1&#45;&gt;Node2</title>
<path fill="none" stroke="midnightblue" d="M482.56,-392.25C487.75,-373.74 499,-329.18 499,-291 499,-291 499,-291 499,-233 499,-202.77 496.28,-187.93 519,-168 551.76,-139.27 677.39,-128.53 743.61,-124.81"/>
<polygon fill="midnightblue" stroke="midnightblue" points="743.9,-128.3 753.7,-124.27 743.53,-121.31 743.9,-128.3"/>
</g>
<!-- Node3 -->
<g id="node3" class="node">
<title>Node3</title>
<g id="a_node3"><a xlink:href="kernel__types_8h.html" target="_top" xlink:title="Types used by the kernel.">
<polygon fill="none" stroke="black" points="197,-56.5 197,-75.5 285,-75.5 285,-56.5 197,-56.5"/>
<text text-anchor="middle" x="241" y="-63.5" font-family="Helvetica,sans-Serif" font-size="10.00">kernel_types.h</text>
</a>
</g>
</g>
<!-- Node1&#45;&gt;Node3 -->
<g id="edge2" class="edge">
<title>Node1&#45;&gt;Node3</title>
<path fill="none" stroke="midnightblue" d="M415.59,-394.91C310.8,-383.21 115,-353.05 115,-291 115,-291 115,-291 115,-177 115,-127.95 169.85,-95.74 207.17,-79.5"/>
<polygon fill="midnightblue" stroke="midnightblue" points="208.82,-82.61 216.71,-75.53 206.13,-76.14 208.82,-82.61"/>
</g>
<!-- Node9 -->
<g id="node9" class="node">
<title>Node9</title>
<g id="a_node9"><a xlink:href="uart_8h.html" target="_top" xlink:title="Low&#45;level UART peripheral driver interface definition.">
<polygon fill="none" stroke="black" points="100.5,-56.5 100.5,-75.5 179.5,-75.5 179.5,-56.5 100.5,-56.5"/>
<text text-anchor="middle" x="140" y="-63.5" font-family="Helvetica,sans-Serif" font-size="10.00">periph/uart.h</text>
</a>
</g>
</g>
<!-- Node1&#45;&gt;Node9 -->
<g id="edge8" class="edge">
<title>Node1&#45;&gt;Node9</title>
<path fill="none" stroke="midnightblue" d="M415.84,-396.24C335.05,-389.54 201.31,-375.87 156,-356 114.36,-337.74 77,-336.47 77,-291 77,-291 77,-291 77,-177 77,-139.48 104.95,-103.14 123.61,-83.05"/>
<polygon fill="midnightblue" stroke="midnightblue" points="126.27,-85.34 130.7,-75.72 121.24,-80.48 126.27,-85.34"/>
</g>
<!-- Node12 -->
<g id="node12" class="node">
<title>Node12</title>
<g id="a_node12"><a xlink:href="drivers_2include_2net_2netdev_8h.html" target="_top" xlink:title="Definitions low&#45;level network driver interface.">
<polygon fill="none" stroke="black" points="291.5,-224.5 291.5,-243.5 368.5,-243.5 368.5,-224.5 291.5,-224.5"/>
<text text-anchor="middle" x="330" y="-231.5" font-family="Helvetica,sans-Serif" font-size="10.00">net/netdev.h</text>
</a>
</g>
</g>
<!-- Node1&#45;&gt;Node12 -->
<g id="edge14" class="edge">
<title>Node1&#45;&gt;Node12</title>
<path fill="none" stroke="midnightblue" d="M471.94,-392.08C447.81,-365.38 375.96,-285.87 344.75,-251.32"/>
<polygon fill="midnightblue" stroke="midnightblue" points="347.04,-248.64 337.74,-243.57 341.85,-253.33 347.04,-248.64"/>
</g>
<!-- Node18 -->
<g id="node18" class="node">
<title>Node18</title>
<g id="a_node18"><a xlink:href="kernel__defines_8h.html" target="_top" xlink:title="Common macros and compiler attributes/pragmas configuration.">
<polygon fill="none" stroke="black" points="610.5,-56.5 610.5,-75.5 707.5,-75.5 707.5,-56.5 610.5,-56.5"/>
<text text-anchor="middle" x="659" y="-63.5" font-family="Helvetica,sans-Serif" font-size="10.00">kernel_defines.h</text>
</a>
</g>
</g>
<!-- Node1&#45;&gt;Node18 -->
<g id="edge60" class="edge">
<title>Node1&#45;&gt;Node18</title>
<path fill="none" stroke="midnightblue" d="M477.44,-392.25C472.25,-373.74 461,-329.18 461,-291 461,-291 461,-291 461,-233 461,-149.89 564.72,-100.13 622.02,-78.98"/>
<polygon fill="midnightblue" stroke="midnightblue" points="623.23,-82.26 631.47,-75.59 620.87,-75.67 623.23,-82.26"/>
</g>
<!-- Node19 -->
<g id="node19" class="node">
<title>Node19</title>
<g id="a_node19"><a xlink:href="tsrb_8h.html" target="_top" xlink:title="Thread&#45;safe ringbuffer interface definition.">
<polygon fill="none" stroke="black" points="768,-224.5 768,-243.5 812,-243.5 812,-224.5 768,-224.5"/>
<text text-anchor="middle" x="790" y="-231.5" font-family="Helvetica,sans-Serif" font-size="10.00">tsrb.h</text>
</a>
</g>
</g>
<!-- Node1&#45;&gt;Node19 -->
<g id="edge28" class="edge">
<title>Node1&#45;&gt;Node19</title>
<path fill="none" stroke="midnightblue" d="M496.23,-392.31C547.08,-365.08 703.55,-281.29 764.93,-248.43"/>
<polygon fill="midnightblue" stroke="midnightblue" points="766.77,-251.41 773.93,-243.61 763.46,-245.24 766.77,-251.41"/>
</g>
<!-- Node24 -->
<g id="node24" class="node">
<title>Node24</title>
<g id="a_node24"><a xlink:href="mutex_8h.html" target="_top" xlink:title="Mutex for thread synchronization.">
<polygon fill="none" stroke="black" points="849.5,-336.5 849.5,-355.5 906.5,-355.5 906.5,-336.5 849.5,-336.5"/>
<text text-anchor="middle" x="878" y="-343.5" font-family="Helvetica,sans-Serif" font-size="10.00">mutex.h</text>
</a>
</g>
</g>
<!-- Node1&#45;&gt;Node24 -->
<g id="edge37" class="edge">
<title>Node1&#45;&gt;Node24</title>
<path fill="none" stroke="midnightblue" d="M543.06,-392.44C626.25,-381.16 770.14,-361.63 839.04,-352.29"/>
<polygon fill="midnightblue" stroke="midnightblue" points="839.6,-355.74 849.04,-350.93 838.66,-348.81 839.6,-355.74"/>
</g>
<!-- Node32 -->
<g id="node32" class="node">
<title>Node32</title>
<g id="a_node32"><a xlink:href="stdio__uart_8h.html" target="_top" xlink:title=" ">
<polygon fill="none" stroke="black" points="527,-224.5 527,-243.5 601,-243.5 601,-224.5 527,-224.5"/>
<text text-anchor="middle" x="564" y="-231.5" font-family="Helvetica,sans-Serif" font-size="10.00">stdio_uart.h</text>
</a>
</g>
</g>
<!-- Node1&#45;&gt;Node32 -->
<g id="edge61" class="edge">
<title>Node1&#45;&gt;Node32</title>
<path fill="none" stroke="midnightblue" d="M487.22,-392.45C494.38,-383.69 505.35,-369.48 513,-356 532.7,-321.26 549.32,-277.41 557.85,-253.18"/>
<polygon fill="midnightblue" stroke="midnightblue" points="561.22,-254.13 561.18,-243.53 554.61,-251.84 561.22,-254.13"/>
</g>
<!-- Node4 -->
<g id="node4" class="node">
<title>Node4</title>
<g id="a_node4"><a xlink:title=" ">
<polygon fill="none" stroke="#bfbfbf" points="389.5,-0.5 389.5,-19.5 442.5,-19.5 442.5,-0.5 389.5,-0.5"/>
<text text-anchor="middle" x="416" y="-7.5" font-family="Helvetica,sans-Serif" font-size="10.00">stdint.h</text>
</a>
</g>
</g>
<!-- Node3&#45;&gt;Node4 -->
<g id="edge3" class="edge">
<title>Node3&#45;&gt;Node4</title>
<path fill="none" stroke="midnightblue" d="M268.73,-56.44C298.69,-47.2 346.55,-32.43 379.54,-22.25"/>
<polygon fill="midnightblue" stroke="midnightblue" points="380.74,-25.54 389.26,-19.25 378.67,-18.85 380.74,-25.54"/>
</g>
<!-- Node5 -->
<g id="node5" class="node">
<title>Node5</title>
<g id="a_node5"><a xlink:href="inttypes_8h.html" target="_top" xlink:title="Adds include for missing inttype definitions.">
<polygon fill="none" stroke="black" points="504.5,-0.5 504.5,-19.5 569.5,-19.5 569.5,-0.5 504.5,-0.5"/>
<text text-anchor="middle" x="537" y="-7.5" font-family="Helvetica,sans-Serif" font-size="10.00">inttypes.h</text>
</a>
</g>
</g>
<!-- Node3&#45;&gt;Node5 -->
<g id="edge4" class="edge">
<title>Node3&#45;&gt;Node5</title>
<path fill="none" stroke="midnightblue" d="M285.31,-56.92C341.79,-46.61 438.76,-28.92 494.4,-18.77"/>
<polygon fill="midnightblue" stroke="midnightblue" points="495.08,-22.2 504.29,-16.97 493.83,-15.32 495.08,-22.2"/>
</g>
<!-- Node6 -->
<g id="node6" class="node">
<title>Node6</title>
<g id="a_node6"><a xlink:title=" ">
<polygon fill="none" stroke="#bfbfbf" points="197.5,-0.5 197.5,-19.5 250.5,-19.5 250.5,-0.5 197.5,-0.5"/>
<text text-anchor="middle" x="224" y="-7.5" font-family="Helvetica,sans-Serif" font-size="10.00">limits.h</text>
</a>
</g>
</g>
<!-- Node3&#45;&gt;Node6 -->
<g id="edge5" class="edge">
<title>Node3&#45;&gt;Node6</title>
<path fill="none" stroke="midnightblue" d="M238.19,-56.08C235.92,-48.85 232.63,-38.41 229.79,-29.4"/>
<polygon fill="midnightblue" stroke="midnightblue" points="233.1,-28.24 226.75,-19.75 226.42,-30.34 233.1,-28.24"/>
</g>
<!-- Node7 -->
<g id="node7" class="node">
<title>Node7</title>
<g id="a_node7"><a xlink:title=" ">
<polygon fill="none" stroke="#bfbfbf" points="631,-0.5 631,-19.5 687,-19.5 687,-0.5 631,-0.5"/>
<text text-anchor="middle" x="659" y="-7.5" font-family="Helvetica,sans-Serif" font-size="10.00">stddef.h</text>
</a>
</g>
</g>
<!-- Node3&#45;&gt;Node7 -->
<g id="edge6" class="edge">
<title>Node3&#45;&gt;Node7</title>
<path fill="none" stroke="midnightblue" d="M285.34,-59.27C367.71,-48.63 543.03,-25.98 620.65,-15.95"/>
<polygon fill="midnightblue" stroke="midnightblue" points="621.47,-19.38 630.94,-14.63 620.57,-12.44 621.47,-19.38"/>
</g>
<!-- Node8 -->
<g id="node8" class="node">
<title>Node8</title>
<g id="a_node8"><a xlink:title=" ">
<polygon fill="none" stroke="#bfbfbf" points="269,-0.5 269,-19.5 341,-19.5 341,-0.5 269,-0.5"/>
<text text-anchor="middle" x="305" y="-7.5" font-family="Helvetica,sans-Serif" font-size="10.00">sys/types.h</text>
</a>
</g>
</g>
<!-- Node3&#45;&gt;Node8 -->
<g id="edge7" class="edge">
<title>Node3&#45;&gt;Node8</title>
<path fill="none" stroke="midnightblue" d="M251.28,-56.32C260.84,-48.26 275.28,-36.08 286.78,-26.37"/>
<polygon fill="midnightblue" stroke="midnightblue" points="289.14,-28.96 294.53,-19.83 284.63,-23.61 289.14,-28.96"/>
</g>
<!-- Node9&#45;&gt;Node4 -->
<g id="edge10" class="edge">
<title>Node9&#45;&gt;Node4</title>
<path fill="none" stroke="midnightblue" d="M179.54,-57.26C232.95,-46.81 327.42,-28.33 379.31,-18.18"/>
<polygon fill="midnightblue" stroke="midnightblue" points="380.26,-21.56 389.4,-16.2 378.92,-14.69 380.26,-21.56"/>
</g>
<!-- Node9&#45;&gt;Node6 -->
<g id="edge11" class="edge">
<title>Node9&#45;&gt;Node6</title>
<path fill="none" stroke="midnightblue" d="M153.5,-56.32C166.6,-47.9 186.71,-34.97 202.11,-25.07"/>
<polygon fill="midnightblue" stroke="midnightblue" points="204.02,-28.01 210.54,-19.65 200.23,-22.12 204.02,-28.01"/>
</g>
<!-- Node9&#45;&gt;Node7 -->
<g id="edge9" class="edge">
<title>Node9&#45;&gt;Node7</title>
<path fill="none" stroke="midnightblue" d="M179.5,-57.29C182.37,-56.82 185.23,-56.39 188,-56 360.84,-31.89 405.39,-37.76 579,-20 592.6,-18.61 607.5,-16.97 620.7,-15.47"/>
<polygon fill="midnightblue" stroke="midnightblue" points="621.34,-18.92 630.88,-14.3 620.54,-11.96 621.34,-18.92"/>
</g>
<!-- Node10 -->
<g id="node10" class="node">
<title>Node10</title>
<g id="a_node10"><a xlink:title=" ">
<polygon fill="none" stroke="#bfbfbf" points="100.5,-0.5 100.5,-19.5 179.5,-19.5 179.5,-0.5 100.5,-0.5"/>
<text text-anchor="middle" x="140" y="-7.5" font-family="Helvetica,sans-Serif" font-size="10.00">periph_cpu.h</text>
</a>
</g>
</g>
<!-- Node9&#45;&gt;Node10 -->
<g id="edge12" class="edge">
<title>Node9&#45;&gt;Node10</title>
<path fill="none" stroke="midnightblue" d="M140,-56.08C140,-49.01 140,-38.86 140,-29.99"/>
<polygon fill="midnightblue" stroke="midnightblue" points="143.5,-29.75 140,-19.75 136.5,-29.75 143.5,-29.75"/>
</g>
<!-- Node11 -->
<g id="node11" class="node">
<title>Node11</title>
<g id="a_node11"><a xlink:title=" ">
<polygon fill="none" stroke="#bfbfbf" points="0,-0.5 0,-19.5 82,-19.5 82,-0.5 0,-0.5"/>
<text text-anchor="middle" x="41" y="-7.5" font-family="Helvetica,sans-Serif" font-size="10.00">periph_conf.h</text>
</a>
</g>
</g>
<!-- Node9&#45;&gt;Node11 -->
<g id="edge13" class="edge">
<title>Node9&#45;&gt;Node11</title>
<path fill="none" stroke="midnightblue" d="M124.09,-56.32C108.36,-47.74 84.06,-34.49 65.79,-24.52"/>
<polygon fill="midnightblue" stroke="midnightblue" points="67.32,-21.37 56.87,-19.65 63.97,-27.52 67.32,-21.37"/>
</g>
<!-- Node12&#45;&gt;Node4 -->
<g id="edge15" class="edge">
<title>Node12&#45;&gt;Node4</title>
<path fill="none" stroke="midnightblue" d="M291.34,-231.64C237.02,-228.04 147.4,-215.03 173,-168 185.29,-145.44 333.16,-58.65 392.04,-24.71"/>
<polygon fill="midnightblue" stroke="midnightblue" points="394.08,-27.58 401.01,-19.56 390.59,-21.51 394.08,-27.58"/>
</g>
<!-- Node13 -->
<g id="node13" class="node">
<title>Node13</title>
<g id="a_node13"><a xlink:href="errno_8h.html" target="_top" xlink:title=" ">
<polygon fill="none" stroke="black" points="181.5,-168.5 181.5,-187.5 232.5,-187.5 232.5,-168.5 181.5,-168.5"/>
<text text-anchor="middle" x="207" y="-175.5" font-family="Helvetica,sans-Serif" font-size="10.00">errno.h</text>
</a>
</g>
</g>
<!-- Node12&#45;&gt;Node13 -->
<g id="edge16" class="edge">
<title>Node12&#45;&gt;Node13</title>
<path fill="none" stroke="midnightblue" d="M310.51,-224.44C290.36,-215.6 258.68,-201.69 235.67,-191.59"/>
<polygon fill="midnightblue" stroke="midnightblue" points="236.96,-188.33 226.4,-187.52 234.15,-194.74 236.96,-188.33"/>
</g>
<!-- Node14 -->
<g id="node14" class="node">
<title>Node14</title>
<g id="a_node14"><a xlink:href="iolist_8h.html" target="_top" xlink:title="iolist scatter / gather IO">
<polygon fill="none" stroke="black" points="345,-168.5 345,-187.5 395,-187.5 395,-168.5 345,-168.5"/>
<text text-anchor="middle" x="370" y="-175.5" font-family="Helvetica,sans-Serif" font-size="10.00">iolist.h</text>
</a>
</g>
</g>
<!-- Node12&#45;&gt;Node14 -->
<g id="edge17" class="edge">
<title>Node12&#45;&gt;Node14</title>
<path fill="none" stroke="midnightblue" d="M336.61,-224.08C342.26,-216.46 350.54,-205.26 357.45,-195.94"/>
<polygon fill="midnightblue" stroke="midnightblue" points="360.38,-197.87 363.52,-187.75 354.75,-193.7 360.38,-197.87"/>
</g>
<!-- Node17 -->
<g id="node17" class="node">
<title>Node17</title>
<g id="a_node17"><a xlink:href="netopt_8h.html" target="_top" xlink:title="Definition of global configuration options.">
<polygon fill="none" stroke="black" points="251,-168.5 251,-187.5 327,-187.5 327,-168.5 251,-168.5"/>
<text text-anchor="middle" x="289" y="-175.5" font-family="Helvetica,sans-Serif" font-size="10.00">net/netopt.h</text>
</a>
</g>
</g>
<!-- Node12&#45;&gt;Node17 -->
<g id="edge24" class="edge">
<title>Node12&#45;&gt;Node17</title>
<path fill="none" stroke="midnightblue" d="M323.23,-224.08C317.44,-216.46 308.94,-205.26 301.86,-195.94"/>
<polygon fill="midnightblue" stroke="midnightblue" points="304.48,-193.6 295.64,-187.75 298.9,-197.83 304.48,-193.6"/>
</g>
<!-- Node12&#45;&gt;Node18 -->
<g id="edge25" class="edge">
<title>Node12&#45;&gt;Node18</title>
<path fill="none" stroke="midnightblue" d="M346.65,-224.45C362.19,-216.13 385.65,-202.61 404,-188 440.88,-158.63 437.12,-135.47 478,-112 515.47,-90.48 563.07,-79.17 600.04,-73.27"/>
<polygon fill="midnightblue" stroke="midnightblue" points="600.8,-76.7 610.17,-71.75 599.76,-69.77 600.8,-76.7"/>
</g>
<!-- Node15 -->
<g id="node15" class="node">
<title>Node15</title>
<g id="a_node15"><a xlink:href="unistd_8h_source.html" target="_top" xlink:title=" ">
<polygon fill="none" stroke="black" points="332,-112.5 332,-131.5 388,-131.5 388,-112.5 332,-112.5"/>
<text text-anchor="middle" x="360" y="-119.5" font-family="Helvetica,sans-Serif" font-size="10.00">unistd.h</text>
</a>
</g>
</g>
<!-- Node14&#45;&gt;Node15 -->
<g id="edge18" class="edge">
<title>Node14&#45;&gt;Node15</title>
<path fill="none" stroke="midnightblue" d="M368.35,-168.08C367.02,-160.93 365.12,-150.64 363.46,-141.69"/>
<polygon fill="midnightblue" stroke="midnightblue" points="366.88,-140.95 361.62,-131.75 360,-142.22 366.88,-140.95"/>
</g>
<!-- Node15&#45;&gt;Node4 -->
<g id="edge20" class="edge">
<title>Node15&#45;&gt;Node4</title>
<path fill="none" stroke="midnightblue" d="M364.39,-112.37C373.55,-94.38 394.85,-52.55 407.03,-28.63"/>
<polygon fill="midnightblue" stroke="midnightblue" points="410.21,-30.09 411.63,-19.59 403.97,-26.92 410.21,-30.09"/>
</g>
<!-- Node15&#45;&gt;Node7 -->
<g id="edge19" class="edge">
<title>Node15&#45;&gt;Node7</title>
<path fill="none" stroke="midnightblue" d="M388.23,-114.98C421.5,-107.51 478.16,-93.58 525,-76 564.67,-61.12 608.46,-38.65 634.84,-24.41"/>
<polygon fill="midnightblue" stroke="midnightblue" points="636.63,-27.42 643.73,-19.57 633.28,-21.28 636.63,-27.42"/>
</g>
<!-- Node16 -->
<g id="node16" class="node">
<title>Node16</title>
<g id="a_node16"><a xlink:href="cpu_2atmega__common_2avr__libc__extra_2include_2sys_2types_8h_source.html" target="_top" xlink:title=" ">
<polygon fill="none" stroke="black" points="444,-56.5 444,-75.5 516,-75.5 516,-56.5 444,-56.5"/>
<text text-anchor="middle" x="480" y="-63.5" font-family="Helvetica,sans-Serif" font-size="10.00">sys/types.h</text>
</a>
</g>
</g>
<!-- Node15&#45;&gt;Node16 -->
<g id="edge21" class="edge">
<title>Node15&#45;&gt;Node16</title>
<path fill="none" stroke="midnightblue" d="M379.01,-112.44C398.59,-103.64 429.31,-89.81 451.73,-79.72"/>
<polygon fill="midnightblue" stroke="midnightblue" points="453.39,-82.81 461.07,-75.52 450.52,-76.43 453.39,-82.81"/>
</g>
<!-- Node16&#45;&gt;Node4 -->
<g id="edge22" class="edge">
<title>Node16&#45;&gt;Node4</title>
<path fill="none" stroke="midnightblue" d="M469.72,-56.32C460.16,-48.26 445.72,-36.08 434.22,-26.37"/>
<polygon fill="midnightblue" stroke="midnightblue" points="436.37,-23.61 426.47,-19.83 431.86,-28.96 436.37,-23.61"/>
</g>
<!-- Node16&#45;&gt;Node7 -->
<g id="edge23" class="edge">
<title>Node16&#45;&gt;Node7</title>
<path fill="none" stroke="midnightblue" d="M508.36,-56.44C538.74,-47.28 587.11,-32.69 620.82,-22.52"/>
<polygon fill="midnightblue" stroke="midnightblue" points="622.21,-25.76 630.77,-19.52 620.18,-19.05 622.21,-25.76"/>
</g>
<!-- Node18&#45;&gt;Node4 -->
<g id="edge27" class="edge">
<title>Node18&#45;&gt;Node4</title>
<path fill="none" stroke="midnightblue" d="M620.5,-56.44C574.43,-46.21 497.89,-29.2 452.66,-19.15"/>
<polygon fill="midnightblue" stroke="midnightblue" points="453.21,-15.68 442.69,-16.93 451.69,-22.52 453.21,-15.68"/>
</g>
<!-- Node18&#45;&gt;Node7 -->
<g id="edge26" class="edge">
<title>Node18&#45;&gt;Node7</title>
<path fill="none" stroke="midnightblue" d="M659,-56.08C659,-49.01 659,-38.86 659,-29.99"/>
<polygon fill="midnightblue" stroke="midnightblue" points="662.5,-29.75 659,-19.75 655.5,-29.75 662.5,-29.75"/>
</g>
<!-- Node19&#45;&gt;Node4 -->
<g id="edge33" class="edge">
<title>Node19&#45;&gt;Node4</title>
<path fill="none" stroke="midnightblue" d="M777.99,-224.33C759.11,-210.98 721,-185.12 686,-168 579.27,-115.79 516.15,-162.78 435,-76 423.34,-63.53 418.79,-44.3 417.04,-29.99"/>
<polygon fill="midnightblue" stroke="midnightblue" points="420.51,-29.44 416.16,-19.78 413.54,-30.05 420.51,-29.44"/>
</g>
<!-- Node19&#45;&gt;Node7 -->
<g id="edge32" class="edge">
<title>Node19&#45;&gt;Node7</title>
<path fill="none" stroke="midnightblue" d="M785.95,-224.44C777.83,-207.13 759.1,-166.68 745,-132 731.45,-98.65 738.26,-85.04 717,-56 707.88,-43.54 694.41,-32.8 682.74,-24.94"/>
<polygon fill="midnightblue" stroke="midnightblue" points="684.58,-21.96 674.27,-19.51 680.8,-27.85 684.58,-21.96"/>
</g>
<!-- Node20 -->
<g id="node20" class="node">
<title>Node20</title>
<g id="a_node20"><a xlink:href="assert_8h.html" target="_top" xlink:title="POSIX.1&#45;2008 compliant version of the assert macro.">
<polygon fill="none" stroke="black" points="903,-168.5 903,-187.5 959,-187.5 959,-168.5 903,-168.5"/>
<text text-anchor="middle" x="931" y="-175.5" font-family="Helvetica,sans-Serif" font-size="10.00">assert.h</text>
</a>
</g>
</g>
<!-- Node19&#45;&gt;Node20 -->
<g id="edge29" class="edge">
<title>Node19&#45;&gt;Node20</title>
<path fill="none" stroke="midnightblue" d="M812.03,-224.56C835.38,-215.62 872.48,-201.41 899.04,-191.24"/>
<polygon fill="midnightblue" stroke="midnightblue" points="900.57,-194.4 908.66,-187.56 898.07,-187.86 900.57,-194.4"/>
</g>
<!-- Node22 -->
<g id="node22" class="node">
<title>Node22</title>
<g id="a_node22"><a xlink:href="irq_8h.html" target="_top" xlink:title="IRQ driver interface.">
<polygon fill="none" stroke="black" points="809,-168.5 809,-187.5 847,-187.5 847,-168.5 809,-168.5"/>
<text text-anchor="middle" x="828" y="-175.5" font-family="Helvetica,sans-Serif" font-size="10.00">irq.h</text>
</a>
</g>
</g>
<!-- Node19&#45;&gt;Node22 -->
<g id="edge34" class="edge">
<title>Node19&#45;&gt;Node22</title>
<path fill="none" stroke="midnightblue" d="M796.27,-224.08C801.64,-216.46 809.52,-205.26 816.08,-195.94"/>
<polygon fill="midnightblue" stroke="midnightblue" points="818.95,-197.94 821.84,-187.75 813.22,-193.91 818.95,-197.94"/>
</g>
<!-- Node21 -->
<g id="node21" class="node">
<title>Node21</title>
<g id="a_node21"><a xlink:href="panic_8h.html" target="_top" xlink:title="Crash handling header.">
<polygon fill="none" stroke="black" points="958,-112.5 958,-131.5 1010,-131.5 1010,-112.5 958,-112.5"/>
<text text-anchor="middle" x="984" y="-119.5" font-family="Helvetica,sans-Serif" font-size="10.00">panic.h</text>
</a>
</g>
</g>
<!-- Node20&#45;&gt;Node21 -->
<g id="edge30" class="edge">
<title>Node20&#45;&gt;Node21</title>
<path fill="none" stroke="midnightblue" d="M939.75,-168.08C947.47,-160.22 958.9,-148.57 968.22,-139.08"/>
<polygon fill="midnightblue" stroke="midnightblue" points="970.9,-141.34 975.41,-131.75 965.91,-136.44 970.9,-141.34"/>
</g>
<!-- Node21&#45;&gt;Node18 -->
<g id="edge31" class="edge">
<title>Node21&#45;&gt;Node18</title>
<path fill="none" stroke="midnightblue" d="M957.69,-113.94C954.77,-113.24 951.83,-112.58 949,-112 869.55,-95.66 776.77,-82.24 717.96,-74.43"/>
<polygon fill="midnightblue" stroke="midnightblue" points="718.12,-70.92 707.75,-73.08 717.21,-77.86 718.12,-70.92"/>
</g>
<!-- Node22&#45;&gt;Node2 -->
<g id="edge35" class="edge">
<title>Node22&#45;&gt;Node2</title>
<path fill="none" stroke="midnightblue" d="M820.9,-168.08C814.76,-160.38 805.73,-149.03 798.26,-139.65"/>
<polygon fill="midnightblue" stroke="midnightblue" points="800.94,-137.39 791.97,-131.75 795.46,-141.75 800.94,-137.39"/>
</g>
<!-- Node23 -->
<g id="node23" class="node">
<title>Node23</title>
<g id="a_node23"><a xlink:title=" ">
<polygon fill="none" stroke="#bfbfbf" points="872,-112.5 872,-131.5 940,-131.5 940,-112.5 872,-112.5"/>
<text text-anchor="middle" x="906" y="-119.5" font-family="Helvetica,sans-Serif" font-size="10.00">cpu_conf.h</text>
</a>
</g>
</g>
<!-- Node22&#45;&gt;Node23 -->
<g id="edge36" class="edge">
<title>Node22&#45;&gt;Node23</title>
<path fill="none" stroke="midnightblue" d="M840.53,-168.32C852.59,-159.98 871.03,-147.21 885.27,-137.35"/>
<polygon fill="midnightblue" stroke="midnightblue" points="887.27,-140.22 893.5,-131.65 883.28,-134.47 887.27,-140.22"/>
</g>
<!-- Node24&#45;&gt;Node4 -->
<g id="edge39" class="edge">
<title>Node24&#45;&gt;Node4</title>
<path fill="none" stroke="midnightblue" d="M867.18,-336.43C845.89,-319.45 797.3,-280.01 759,-244 724.88,-211.92 721.62,-198.41 686,-168 619.71,-111.4 601.51,-97.76 525,-56 501,-42.9 472.38,-31.22 450.49,-23.05"/>
<polygon fill="midnightblue" stroke="midnightblue" points="451.54,-19.7 440.94,-19.54 449.13,-26.28 451.54,-19.7"/>
</g>
<!-- Node24&#45;&gt;Node7 -->
<g id="edge38" class="edge">
<title>Node24&#45;&gt;Node7</title>
<path fill="none" stroke="midnightblue" d="M906.52,-341.19C983.54,-330.1 1190,-294.8 1190,-235 1190,-235 1190,-235 1190,-121 1190,-90.9 1194.27,-75.09 1171,-56 1134.58,-26.12 809.81,-14.91 697.23,-11.91"/>
<polygon fill="midnightblue" stroke="midnightblue" points="697.1,-8.4 687.01,-11.64 696.91,-15.4 697.1,-8.4"/>
</g>
<!-- Node24&#45;&gt;Node18 -->
<g id="edge41" class="edge">
<title>Node24&#45;&gt;Node18</title>
<path fill="none" stroke="midnightblue" d="M879.34,-336.3C884.23,-301.11 897.15,-168.57 825,-112 808.01,-98.68 757.27,-86.05 716.31,-77.58"/>
<polygon fill="midnightblue" stroke="midnightblue" points="716.9,-74.13 706.4,-75.58 715.51,-80.99 716.9,-74.13"/>
</g>
<!-- Node24&#45;&gt;Node22 -->
<g id="edge40" class="edge">
<title>Node24&#45;&gt;Node22</title>
<path fill="none" stroke="midnightblue" d="M875.28,-336.38C872.44,-327.33 867.86,-312.68 864,-300 852.93,-263.62 840.33,-220.96 833.36,-197.26"/>
<polygon fill="midnightblue" stroke="midnightblue" points="836.67,-196.13 830.5,-187.52 829.95,-198.1 836.67,-196.13"/>
</g>
<!-- Node25 -->
<g id="node25" class="node">
<title>Node25</title>
<g id="a_node25"><a xlink:href="list_8h.html" target="_top" xlink:title="Intrusive linked list.">
<polygon fill="none" stroke="black" points="1162.5,-0.5 1162.5,-19.5 1203.5,-19.5 1203.5,-0.5 1162.5,-0.5"/>
<text text-anchor="middle" x="1183" y="-7.5" font-family="Helvetica,sans-Serif" font-size="10.00">list.h</text>
</a>
</g>
</g>
<!-- Node24&#45;&gt;Node25 -->
<g id="edge42" class="edge">
<title>Node24&#45;&gt;Node25</title>
<path fill="none" stroke="midnightblue" d="M906.61,-344.3C955.96,-342.18 1059.41,-333.72 1139,-300 1184.1,-280.89 1228,-283.98 1228,-235 1228,-235 1228,-235 1228,-121 1228,-85.93 1208.16,-48.94 1194.83,-28.04"/>
<polygon fill="midnightblue" stroke="midnightblue" points="1197.7,-26.03 1189.26,-19.63 1191.87,-29.9 1197.7,-26.03"/>
</g>
<!-- Node26 -->
<g id="node26" class="node">
<title>Node26</title>
<g id="a_node26"><a xlink:href="core_2include_2thread_8h.html" target="_top" xlink:title="Threading API.">
<polygon fill="none" stroke="black" points="980.5,-280.5 980.5,-299.5 1037.5,-299.5 1037.5,-280.5 980.5,-280.5"/>
<text text-anchor="middle" x="1009" y="-287.5" font-family="Helvetica,sans-Serif" font-size="10.00">thread.h</text>
</a>
</g>
</g>
<!-- Node24&#45;&gt;Node26 -->
<g id="edge43" class="edge">
<title>Node24&#45;&gt;Node26</title>
<path fill="none" stroke="midnightblue" d="M898.76,-336.44C920.32,-327.56 954.26,-313.56 978.79,-303.45"/>
<polygon fill="midnightblue" stroke="midnightblue" points="980.43,-306.56 988.34,-299.52 977.76,-300.09 980.43,-306.56"/>
</g>
<!-- Node26&#45;&gt;Node23 -->
<g id="edge58" class="edge">
<title>Node26&#45;&gt;Node23</title>
<path fill="none" stroke="midnightblue" d="M1007.89,-280.25C1004.84,-259.1 994.7,-204.25 968,-168 958.54,-155.16 944.34,-144.48 931.92,-136.75"/>
<polygon fill="midnightblue" stroke="midnightblue" points="933.67,-133.72 923.28,-131.65 930.12,-139.74 933.67,-133.72"/>
</g>
<!-- Node27 -->
<g id="node27" class="node">
<title>Node27</title>
<g id="a_node27"><a xlink:href="clist_8h.html" target="_top" xlink:title="Circular linked list.">
<polygon fill="none" stroke="black" points="1116,-56.5 1116,-75.5 1162,-75.5 1162,-56.5 1116,-56.5"/>
<text text-anchor="middle" x="1139" y="-63.5" font-family="Helvetica,sans-Serif" font-size="10.00">clist.h</text>
</a>
</g>
</g>
<!-- Node26&#45;&gt;Node27 -->
<g id="edge44" class="edge">
<title>Node26&#45;&gt;Node27</title>
<path fill="none" stroke="midnightblue" d="M1019.9,-280.42C1030.37,-271.86 1046.29,-258 1058,-244 1095.81,-198.79 1108.3,-187.18 1129,-132 1134.58,-117.12 1137.05,-99.2 1138.14,-85.95"/>
<polygon fill="midnightblue" stroke="midnightblue" points="1141.65,-85.9 1138.79,-75.7 1134.66,-85.46 1141.65,-85.9"/>
</g>
<!-- Node28 -->
<g id="node28" class="node">
<title>Node28</title>
<g id="a_node28"><a xlink:href="cib_8h.html" target="_top" xlink:title="Circular integer buffer interface.">
<polygon fill="none" stroke="black" points="915,-224.5 915,-243.5 955,-243.5 955,-224.5 915,-224.5"/>
<text text-anchor="middle" x="935" y="-231.5" font-family="Helvetica,sans-Serif" font-size="10.00">cib.h</text>
</a>
</g>
</g>
<!-- Node26&#45;&gt;Node28 -->
<g id="edge47" class="edge">
<title>Node26&#45;&gt;Node28</title>
<path fill="none" stroke="midnightblue" d="M997.11,-280.32C985.85,-272.11 968.71,-259.6 955.29,-249.81"/>
<polygon fill="midnightblue" stroke="midnightblue" points="957.25,-246.9 947.11,-243.83 953.12,-252.56 957.25,-246.9"/>
</g>
<!-- Node29 -->
<g id="node29" class="node">
<title>Node29</title>
<g id="a_node29"><a xlink:href="msg_8h.html" target="_top" xlink:title="Messaging API for inter process communication.">
<polygon fill="none" stroke="black" points="1015.5,-168.5 1015.5,-187.5 1062.5,-187.5 1062.5,-168.5 1015.5,-168.5"/>
<text text-anchor="middle" x="1039" y="-175.5" font-family="Helvetica,sans-Serif" font-size="10.00">msg.h</text>
</a>
</g>
</g>
<!-- Node26&#45;&gt;Node29 -->
<g id="edge49" class="edge">
<title>Node26&#45;&gt;Node29</title>
<path fill="none" stroke="midnightblue" d="M1011.35,-280.37C1016.22,-262.54 1027.46,-221.3 1034.02,-197.27"/>
<polygon fill="midnightblue" stroke="midnightblue" points="1037.4,-198.16 1036.66,-187.59 1030.65,-196.32 1037.4,-198.16"/>
</g>
<!-- Node30 -->
<g id="node30" class="node">
<title>Node30</title>
<g id="a_node30"><a xlink:href="sched_8h.html" target="_top" xlink:title="Scheduler API definition.">
<polygon fill="none" stroke="black" points="1066,-112.5 1066,-131.5 1120,-131.5 1120,-112.5 1066,-112.5"/>
<text text-anchor="middle" x="1093" y="-119.5" font-family="Helvetica,sans-Serif" font-size="10.00">sched.h</text>
</a>
</g>
</g>
<!-- Node26&#45;&gt;Node30 -->
<g id="edge59" class="edge">
<title>Node26&#45;&gt;Node30</title>
<path fill="none" stroke="midnightblue" d="M1014.63,-280.42C1020.52,-271.39 1030.01,-256.76 1038,-244 1053.44,-219.32 1059.89,-214.48 1072,-188 1078.94,-172.83 1084.59,-154.72 1088.28,-141.47"/>
<polygon fill="midnightblue" stroke="midnightblue" points="1091.7,-142.22 1090.89,-131.65 1084.93,-140.41 1091.7,-142.22"/>
</g>
<!-- Node27&#45;&gt;Node7 -->
<g id="edge45" class="edge">
<title>Node27&#45;&gt;Node7</title>
<path fill="none" stroke="midnightblue" d="M1115.61,-58.8C1111.12,-57.75 1106.43,-56.76 1102,-56 953.55,-30.53 774.46,-17.76 697.36,-13.12"/>
<polygon fill="midnightblue" stroke="midnightblue" points="697.36,-9.61 687.17,-12.51 696.95,-16.6 697.36,-9.61"/>
</g>
<!-- Node27&#45;&gt;Node25 -->
<g id="edge46" class="edge">
<title>Node27&#45;&gt;Node25</title>
<path fill="none" stroke="midnightblue" d="M1146.27,-56.08C1152.54,-48.38 1161.79,-37.03 1169.43,-27.65"/>
<polygon fill="midnightblue" stroke="midnightblue" points="1172.27,-29.71 1175.87,-19.75 1166.84,-25.29 1172.27,-29.71"/>
</g>
<!-- Node28&#45;&gt;Node20 -->
<g id="edge48" class="edge">
<title>Node28&#45;&gt;Node20</title>
<path fill="none" stroke="midnightblue" d="M934.34,-224.08C933.82,-217.01 933.06,-206.86 932.41,-197.99"/>
<polygon fill="midnightblue" stroke="midnightblue" points="935.88,-197.47 931.65,-187.75 928.9,-197.98 935.88,-197.47"/>
</g>
<!-- Node29&#45;&gt;Node2 -->
<g id="edge51" class="edge">
<title>Node29&#45;&gt;Node2</title>
<path fill="none" stroke="midnightblue" d="M1015.1,-171.92C971.71,-162.69 879.51,-143.09 825.93,-131.7"/>
<polygon fill="midnightblue" stroke="midnightblue" points="826.58,-128.26 816.07,-129.61 825.13,-135.11 826.58,-128.26"/>
</g>
<!-- Node29&#45;&gt;Node4 -->
<g id="edge50" class="edge">
<title>Node29&#45;&gt;Node4</title>
<path fill="none" stroke="midnightblue" d="M1039.01,-168.35C1038.52,-154.3 1035.4,-126.61 1019,-112 997.54,-92.88 580.49,-33.78 452.82,-16.07"/>
<polygon fill="midnightblue" stroke="midnightblue" points="453.14,-12.58 442.76,-14.67 452.18,-19.51 453.14,-12.58"/>
</g>
<!-- Node29&#45;&gt;Node30 -->
<g id="edge52" class="edge">
<title>Node29&#45;&gt;Node30</title>
<path fill="none" stroke="midnightblue" d="M1047.92,-168.08C1055.78,-160.22 1067.43,-148.57 1076.92,-139.08"/>
<polygon fill="midnightblue" stroke="midnightblue" points="1079.65,-141.3 1084.25,-131.75 1074.7,-136.35 1079.65,-141.3"/>
</g>
<!-- Node30&#45;&gt;Node5 -->
<g id="edge54" class="edge">
<title>Node30&#45;&gt;Node5</title>
<path fill="none" stroke="midnightblue" d="M1087.79,-112.37C1078.47,-97.81 1057.42,-68.71 1031,-56 948.78,-16.44 712.81,-28.8 622,-20 608.23,-18.67 593.21,-17.11 579.69,-15.67"/>
<polygon fill="midnightblue" stroke="midnightblue" points="580,-12.18 569.68,-14.6 579.25,-19.14 580,-12.18"/>
</g>
<!-- Node30&#45;&gt;Node7 -->
<g id="edge53" class="edge">
<title>Node30&#45;&gt;Node7</title>
<path fill="none" stroke="midnightblue" d="M1091.84,-112.12C1089.46,-97.73 1082.56,-69.56 1064,-56 1006.22,-13.79 786.9,-10.19 697.39,-10.54"/>
<polygon fill="midnightblue" stroke="midnightblue" points="697.11,-7.04 687.14,-10.6 697.16,-14.04 697.11,-7.04"/>
</g>
<!-- Node30&#45;&gt;Node18 -->
<g id="edge55" class="edge">
<title>Node30&#45;&gt;Node18</title>
<path fill="none" stroke="midnightblue" d="M1065.85,-117.62C996.74,-109.02 812.9,-86.15 717.81,-74.32"/>
<polygon fill="midnightblue" stroke="midnightblue" points="718.13,-70.83 707.78,-73.07 717.27,-77.78 718.13,-70.83"/>
</g>
<!-- Node30&#45;&gt;Node27 -->
<g id="edge57" class="edge">
<title>Node30&#45;&gt;Node27</title>
<path fill="none" stroke="midnightblue" d="M1100.6,-112.08C1107.23,-104.3 1117.02,-92.8 1125.06,-83.37"/>
<polygon fill="midnightblue" stroke="midnightblue" points="1127.73,-85.63 1131.55,-75.75 1122.4,-81.09 1127.73,-85.63"/>
</g>
<!-- Node31 -->
<g id="node31" class="node">
<title>Node31</title>
<g id="a_node31"><a xlink:href="native__sched_8h.html" target="_top" xlink:title="Add definitions required on the native board.">
<polygon fill="none" stroke="black" points="932,-56.5 932,-75.5 1022,-75.5 1022,-56.5 932,-56.5"/>
<text text-anchor="middle" x="977" y="-63.5" font-family="Helvetica,sans-Serif" font-size="10.00">native_sched.h</text>
</a>
</g>
</g>
<!-- Node30&#45;&gt;Node31 -->
<g id="edge56" class="edge">
<title>Node30&#45;&gt;Node31</title>
<path fill="none" stroke="midnightblue" d="M1074.62,-112.44C1055.78,-103.68 1026.27,-89.94 1004.62,-79.86"/>
<polygon fill="midnightblue" stroke="midnightblue" points="1005.84,-76.56 995.29,-75.52 1002.88,-82.91 1005.84,-76.56"/>
</g>
<!-- Node33 -->
<g id="node33" class="node">
<title>Node33</title>
<g id="a_node33"><a xlink:title=" ">
<polygon fill="none" stroke="#bfbfbf" points="527.5,-168.5 527.5,-187.5 580.5,-187.5 580.5,-168.5 527.5,-168.5"/>
<text text-anchor="middle" x="554" y="-175.5" font-family="Helvetica,sans-Serif" font-size="10.00">board.h</text>
</a>
</g>
</g>
<!-- Node32&#45;&gt;Node33 -->
<g id="edge62" class="edge">
<title>Node32&#45;&gt;Node33</title>
<path fill="none" stroke="midnightblue" d="M562.35,-224.08C561.02,-216.93 559.12,-206.64 557.46,-197.69"/>
<polygon fill="midnightblue" stroke="midnightblue" points="560.88,-196.95 555.62,-187.75 554,-198.22 560.88,-196.95"/>
</g>
<!-- Node34 -->
<g id="node34" class="node">
<title>Node34</title>
<g id="a_node34"><a xlink:href="stdio__base_8h.html" target="_top" xlink:title=" ">
<polygon fill="none" stroke="black" points="599,-168.5 599,-187.5 677,-187.5 677,-168.5 599,-168.5"/>
<text text-anchor="middle" x="638" y="-175.5" font-family="Helvetica,sans-Serif" font-size="10.00">stdio_base.h</text>
</a>
</g>
</g>
<!-- Node32&#45;&gt;Node34 -->
<g id="edge63" class="edge">
<title>Node32&#45;&gt;Node34</title>
<path fill="none" stroke="midnightblue" d="M575.89,-224.32C587.15,-216.11 604.29,-203.6 617.71,-193.81"/>
<polygon fill="midnightblue" stroke="midnightblue" points="619.88,-196.56 625.89,-187.83 615.75,-190.9 619.88,-196.56"/>
</g>
<!-- Node34&#45;&gt;Node15 -->
<g id="edge64" class="edge">
<title>Node34&#45;&gt;Node15</title>
<path fill="none" stroke="midnightblue" d="M598.63,-169.6C541.65,-158.88 439,-139.49 402,-132 400.77,-131.75 399.51,-131.49 398.25,-131.23"/>
<polygon fill="midnightblue" stroke="midnightblue" points="398.95,-127.81 388.45,-129.19 397.52,-134.66 398.95,-127.81"/>
</g>
</g>
</svg>
