<?xml version="1.0" encoding="UTF-8" standalone="no"?>
<!DOCTYPE svg PUBLIC "-//W3C//DTD SVG 1.1//EN"
 "http://www.w3.org/Graphics/SVG/1.1/DTD/svg11.dtd">
<!-- Generated by graphviz version 2.43.0 (0)
 -->
<!-- Title: sys/include/evtimer_msg.h Pages: 1 -->
<svg width="1986pt" height="329pt"
 viewBox="0.00 0.00 1985.50 329.00" xmlns="http://www.w3.org/2000/svg" xmlns:xlink="http://www.w3.org/1999/xlink">
<g id="graph0" class="graph" transform="scale(1 1) rotate(0) translate(4 325)">
<title>sys/include/evtimer_msg.h</title>
<!-- Node1 -->
<g id="node1" class="node">
<title>Node1</title>
<g id="a_node1"><a xlink:title="IPC&#45;based evtimer definitions.">
<polygon fill="#bfbfbf" stroke="black" points="1323.5,-290.5 1323.5,-320.5 1436.5,-320.5 1436.5,-290.5 1323.5,-290.5"/>
<text text-anchor="start" x="1331.5" y="-308.5" font-family="Helvetica,sans-Serif" font-size="10.00">sys/include/evtimer</text>
<text text-anchor="middle" x="1380" y="-297.5" font-family="Helvetica,sans-Serif" font-size="10.00">_msg.h</text>
</a>
</g>
</g>
<!-- Node2 -->
<g id="node2" class="node">
<title>Node2</title>
<g id="a_node2"><a xlink:href="net_2gnrc_2mac_2timeout_8h.html" target="_top" xlink:title="Timeout APIs used by GNRC_MAC.">
<polygon fill="none" stroke="black" points="258,-218 258,-248 372,-248 372,-218 258,-218"/>
<text text-anchor="start" x="266" y="-236" font-family="Helvetica,sans-Serif" font-size="10.00">sys/include/net/gnrc</text>
<text text-anchor="middle" x="315" y="-225" font-family="Helvetica,sans-Serif" font-size="10.00">/mac/timeout.h</text>
</a>
</g>
</g>
<!-- Node1&#45;&gt;Node2 -->
<g id="edge1" class="edge">
<title>Node1&#45;&gt;Node2</title>
<path fill="none" stroke="midnightblue" d="M1313.23,-303.24C1119.71,-299.27 560.95,-285.33 381,-254 372.74,-252.56 364.07,-250.42 355.82,-248.06"/>
<polygon fill="midnightblue" stroke="midnightblue" points="1313.19,-306.74 1323.26,-303.45 1313.33,-299.75 1313.19,-306.74"/>
</g>
<!-- Node3 -->
<g id="node3" class="node">
<title>Node3</title>
<g id="a_node3"><a xlink:href="gnrc_2netif_2ipv6_8h.html" target="_top" xlink:title="IPv6 definitions for Network interface API.">
<polygon fill="none" stroke="black" points="1474,-218 1474,-248 1588,-248 1588,-218 1474,-218"/>
<text text-anchor="start" x="1482" y="-236" font-family="Helvetica,sans-Serif" font-size="10.00">sys/include/net/gnrc</text>
<text text-anchor="middle" x="1531" y="-225" font-family="Helvetica,sans-Serif" font-size="10.00">/netif/ipv6.h</text>
</a>
</g>
</g>
<!-- Node1&#45;&gt;Node3 -->
<g id="edge2" class="edge">
<title>Node1&#45;&gt;Node3</title>
<path fill="none" stroke="midnightblue" d="M1419.56,-286.03C1444.99,-274.16 1477.52,-258.97 1500.86,-248.07"/>
<polygon fill="midnightblue" stroke="midnightblue" points="1417.77,-283 1410.19,-290.4 1420.74,-289.34 1417.77,-283"/>
</g>
<!-- Node5 -->
<g id="node5" class="node">
<title>Node5</title>
<g id="a_node5"><a xlink:href="structs_8h.html" target="_top" xlink:title="RPL data structs.">
<polygon fill="none" stroke="black" points="390,-218 390,-248 504,-248 504,-218 390,-218"/>
<text text-anchor="start" x="398" y="-236" font-family="Helvetica,sans-Serif" font-size="10.00">sys/include/net/gnrc</text>
<text text-anchor="middle" x="447" y="-225" font-family="Helvetica,sans-Serif" font-size="10.00">/rpl/structs.h</text>
</a>
</g>
</g>
<!-- Node1&#45;&gt;Node5 -->
<g id="edge4" class="edge">
<title>Node1&#45;&gt;Node5</title>
<path fill="none" stroke="midnightblue" d="M1313.28,-299.46C1138.22,-286.23 667.92,-250.69 504.16,-238.32"/>
<polygon fill="midnightblue" stroke="midnightblue" points="1313.15,-302.96 1323.39,-300.22 1313.68,-295.98 1313.15,-302.96"/>
</g>
<!-- Node14 -->
<g id="node14" class="node">
<title>Node14</title>
<g id="a_node14"><a xlink:href="tcb_8h.html" target="_top" xlink:title="GNRC TCP transmission control block (TCB)">
<polygon fill="none" stroke="black" points="1216,-218 1216,-248 1330,-248 1330,-218 1216,-218"/>
<text text-anchor="start" x="1224" y="-236" font-family="Helvetica,sans-Serif" font-size="10.00">sys/include/net/gnrc</text>
<text text-anchor="middle" x="1273" y="-225" font-family="Helvetica,sans-Serif" font-size="10.00">/tcp/tcb.h</text>
</a>
</g>
</g>
<!-- Node1&#45;&gt;Node14 -->
<g id="edge17" class="edge">
<title>Node1&#45;&gt;Node14</title>
<path fill="none" stroke="midnightblue" d="M1349.8,-284.6C1332.13,-272.96 1310.24,-258.54 1294.36,-248.07"/>
<polygon fill="midnightblue" stroke="midnightblue" points="1348.33,-287.82 1358.6,-290.4 1352.18,-281.98 1348.33,-287.82"/>
</g>
<!-- Node21 -->
<g id="node21" class="node">
<title>Node21</title>
<g id="a_node21"><a xlink:href="__nib-internal_8h_source.html" target="_top" xlink:title=" ">
<polygon fill="none" stroke="black" points="1688.5,-212.5 1688.5,-253.5 1807.5,-253.5 1807.5,-212.5 1688.5,-212.5"/>
<text text-anchor="start" x="1696.5" y="-241.5" font-family="Helvetica,sans-Serif" font-size="10.00">sys/net/gnrc/network</text>
<text text-anchor="start" x="1696.5" y="-230.5" font-family="Helvetica,sans-Serif" font-size="10.00">_layer/ipv6/nib/_nib</text>
<text text-anchor="middle" x="1748" y="-219.5" font-family="Helvetica,sans-Serif" font-size="10.00">&#45;internal.h</text>
</a>
</g>
</g>
<!-- Node1&#45;&gt;Node21 -->
<g id="edge24" class="edge">
<title>Node1&#45;&gt;Node21</title>
<path fill="none" stroke="midnightblue" d="M1446.58,-291.74C1515.54,-278.53 1622.27,-258.09 1688.5,-245.4"/>
<polygon fill="midnightblue" stroke="midnightblue" points="1445.86,-288.32 1436.69,-293.64 1447.17,-295.19 1445.86,-288.32"/>
</g>
<!-- Node25 -->
<g id="node25" class="node">
<title>Node25</title>
<g id="a_node25"><a xlink:href="gnrc__tcp__eventloop_8h.html" target="_top" xlink:title="TCP event loop declarations.">
<polygon fill="none" stroke="black" points="1825.5,-212.5 1825.5,-253.5 1952.5,-253.5 1952.5,-212.5 1825.5,-212.5"/>
<text text-anchor="start" x="1833.5" y="-241.5" font-family="Helvetica,sans-Serif" font-size="10.00">sys/net/gnrc/transport</text>
<text text-anchor="start" x="1833.5" y="-230.5" font-family="Helvetica,sans-Serif" font-size="10.00">_layer/tcp/include/gnrc</text>
<text text-anchor="middle" x="1889" y="-219.5" font-family="Helvetica,sans-Serif" font-size="10.00">_tcp_eventloop.h</text>
</a>
</g>
</g>
<!-- Node1&#45;&gt;Node25 -->
<g id="edge32" class="edge">
<title>Node1&#45;&gt;Node25</title>
<path fill="none" stroke="midnightblue" d="M1446.82,-300.03C1532.97,-293.53 1687.17,-279.37 1817,-254 1819.67,-253.48 1822.39,-252.91 1825.13,-252.3"/>
<polygon fill="midnightblue" stroke="midnightblue" points="1446.37,-296.56 1436.65,-300.79 1446.89,-303.54 1446.37,-296.56"/>
</g>
<!-- Node4 -->
<g id="node4" class="node">
<title>Node4</title>
<g id="a_node4"><a xlink:href="__nib-router_8h_source.html" target="_top" xlink:title=" ">
<polygon fill="none" stroke="black" points="1644.5,-134.5 1644.5,-175.5 1763.5,-175.5 1763.5,-134.5 1644.5,-134.5"/>
<text text-anchor="start" x="1652.5" y="-163.5" font-family="Helvetica,sans-Serif" font-size="10.00">sys/net/gnrc/network</text>
<text text-anchor="start" x="1652.5" y="-152.5" font-family="Helvetica,sans-Serif" font-size="10.00">_layer/ipv6/nib/_nib</text>
<text text-anchor="middle" x="1704" y="-141.5" font-family="Helvetica,sans-Serif" font-size="10.00">&#45;router.h</text>
</a>
</g>
</g>
<!-- Node3&#45;&gt;Node4 -->
<g id="edge3" class="edge">
<title>Node3&#45;&gt;Node4</title>
<path fill="none" stroke="midnightblue" d="M1572.42,-213.81C1598.63,-202.29 1632.51,-187.41 1659.32,-175.63"/>
<polygon fill="midnightblue" stroke="midnightblue" points="1570.88,-210.66 1563.13,-217.88 1573.7,-217.07 1570.88,-210.66"/>
</g>
<!-- Node6 -->
<g id="node6" class="node">
<title>Node6</title>
<g id="a_node6"><a xlink:href="dodag_8h.html" target="_top" xlink:title="DODAG&#45;related functions for RPL.">
<polygon fill="none" stroke="black" points="654,-140 654,-170 768,-170 768,-140 654,-140"/>
<text text-anchor="start" x="662" y="-158" font-family="Helvetica,sans-Serif" font-size="10.00">sys/include/net/gnrc</text>
<text text-anchor="middle" x="711" y="-147" font-family="Helvetica,sans-Serif" font-size="10.00">/rpl/dodag.h</text>
</a>
</g>
</g>
<!-- Node5&#45;&gt;Node6 -->
<g id="edge5" class="edge">
<title>Node5&#45;&gt;Node6</title>
<path fill="none" stroke="midnightblue" d="M507.22,-215.28C546.5,-204.3 598.86,-189.52 645,-176 651.43,-174.12 658.21,-172.1 664.87,-170.1"/>
<polygon fill="midnightblue" stroke="midnightblue" points="506.22,-211.93 497.53,-217.99 508.1,-218.67 506.22,-211.93"/>
</g>
<!-- Node7 -->
<g id="node7" class="node">
<title>Node7</title>
<g id="a_node7"><a xlink:href="rpl_8h.html" target="_top" xlink:title="RPL header. Declaration of global variables and functions needed for core functionality of RPL.">
<polygon fill="none" stroke="black" points="588,-67.5 588,-97.5 702,-97.5 702,-67.5 588,-67.5"/>
<text text-anchor="start" x="596" y="-85.5" font-family="Helvetica,sans-Serif" font-size="10.00">sys/include/net/gnrc</text>
<text text-anchor="middle" x="645" y="-74.5" font-family="Helvetica,sans-Serif" font-size="10.00">/rpl.h</text>
</a>
</g>
</g>
<!-- Node5&#45;&gt;Node7 -->
<g id="edge14" class="edge">
<title>Node5&#45;&gt;Node7</title>
<path fill="none" stroke="midnightblue" d="M391.37,-215C387.86,-213.97 384.38,-212.96 381,-212 321.28,-194.99 283.83,-225.24 246,-176 234.63,-161.2 233.66,-148 246,-134 268.22,-108.79 482.63,-92.94 587.63,-86.63"/>
<polygon fill="midnightblue" stroke="midnightblue" points="390.68,-218.44 401.26,-217.92 392.66,-211.73 390.68,-218.44"/>
</g>
<!-- Node8 -->
<g id="node8" class="node">
<title>Node8</title>
<g id="a_node8"><a xlink:href="of__manager_8h.html" target="_top" xlink:title="RPL Objective functions manager header.">
<polygon fill="none" stroke="black" points="522,-140 522,-170 636,-170 636,-140 522,-140"/>
<text text-anchor="start" x="530" y="-158" font-family="Helvetica,sans-Serif" font-size="10.00">sys/include/net/gnrc</text>
<text text-anchor="middle" x="579" y="-147" font-family="Helvetica,sans-Serif" font-size="10.00">/rpl/of_manager.h</text>
</a>
</g>
</g>
<!-- Node5&#45;&gt;Node8 -->
<g id="edge8" class="edge">
<title>Node5&#45;&gt;Node8</title>
<path fill="none" stroke="midnightblue" d="M480.31,-212.82C503.43,-199.51 533.72,-182.07 554.61,-170.04"/>
<polygon fill="midnightblue" stroke="midnightblue" points="478.44,-209.86 471.52,-217.88 481.93,-215.93 478.44,-209.86"/>
</g>
<!-- Node9 -->
<g id="node9" class="node">
<title>Node9</title>
<g id="a_node9"><a xlink:href="p2p_8h.html" target="_top" xlink:title="Definititions for P2P&#45;RPL.">
<polygon fill="none" stroke="black" points="0,-67.5 0,-97.5 114,-97.5 114,-67.5 0,-67.5"/>
<text text-anchor="start" x="8" y="-85.5" font-family="Helvetica,sans-Serif" font-size="10.00">sys/include/net/gnrc</text>
<text text-anchor="middle" x="57" y="-74.5" font-family="Helvetica,sans-Serif" font-size="10.00">/rpl/p2p.h</text>
</a>
</g>
</g>
<!-- Node5&#45;&gt;Node9 -->
<g id="edge10" class="edge">
<title>Node5&#45;&gt;Node9</title>
<path fill="none" stroke="midnightblue" d="M394.68,-215.23C390.08,-214.03 385.47,-212.93 381,-212 314.19,-198.05 126.27,-222.16 76,-176 54.26,-156.04 53.7,-118.42 55.28,-97.84"/>
<polygon fill="midnightblue" stroke="midnightblue" points="394.11,-218.7 404.68,-217.97 395.96,-211.95 394.11,-218.7"/>
</g>
<!-- Node10 -->
<g id="node10" class="node">
<title>Node10</title>
<g id="a_node10"><a xlink:href="p2p__structs_8h.html" target="_top" xlink:title="P2P&#45;RPL data structs.">
<polygon fill="none" stroke="black" points="85,-140 85,-170 199,-170 199,-140 85,-140"/>
<text text-anchor="start" x="93" y="-158" font-family="Helvetica,sans-Serif" font-size="10.00">sys/include/net/gnrc</text>
<text text-anchor="middle" x="142" y="-147" font-family="Helvetica,sans-Serif" font-size="10.00">/rpl/p2p_structs.h</text>
</a>
</g>
</g>
<!-- Node5&#45;&gt;Node10 -->
<g id="edge11" class="edge">
<title>Node5&#45;&gt;Node10</title>
<path fill="none" stroke="midnightblue" d="M392.65,-215.14C388.72,-214.04 384.8,-212.98 381,-212 307.06,-192.91 287.12,-194.36 213,-176 205.67,-174.18 197.94,-172.14 190.4,-170.08"/>
<polygon fill="midnightblue" stroke="midnightblue" points="391.83,-218.55 402.41,-217.94 393.76,-211.82 391.83,-218.55"/>
</g>
<!-- Node12 -->
<g id="node12" class="node">
<title>Node12</title>
<g id="a_node12"><a xlink:href="validation_8h.html" target="_top" xlink:title="RPL control message validation functions.">
<polygon fill="none" stroke="black" points="255.5,-134.5 255.5,-175.5 372.5,-175.5 372.5,-134.5 255.5,-134.5"/>
<text text-anchor="start" x="263.5" y="-163.5" font-family="Helvetica,sans-Serif" font-size="10.00">sys/net/gnrc/routing</text>
<text text-anchor="start" x="263.5" y="-152.5" font-family="Helvetica,sans-Serif" font-size="10.00">/rpl/gnrc_rpl_internal</text>
<text text-anchor="middle" x="314" y="-141.5" font-family="Helvetica,sans-Serif" font-size="10.00">/validation.h</text>
</a>
</g>
</g>
<!-- Node5&#45;&gt;Node12 -->
<g id="edge15" class="edge">
<title>Node5&#45;&gt;Node12</title>
<path fill="none" stroke="midnightblue" d="M413.56,-212.89C393.64,-201.51 368.42,-187.1 348.35,-175.63"/>
<polygon fill="midnightblue" stroke="midnightblue" points="411.88,-215.96 422.3,-217.88 415.35,-209.88 411.88,-215.96"/>
</g>
<!-- Node13 -->
<g id="node13" class="node">
<title>Node13</title>
<g id="a_node13"><a xlink:href="of0_8h.html" target="_top" xlink:title="Objective Function Zero.">
<polygon fill="none" stroke="black" points="390.5,-140 390.5,-170 503.5,-170 503.5,-140 390.5,-140"/>
<text text-anchor="start" x="398.5" y="-158" font-family="Helvetica,sans-Serif" font-size="10.00">sys/net/gnrc/routing</text>
<text text-anchor="middle" x="447" y="-147" font-family="Helvetica,sans-Serif" font-size="10.00">/rpl/of0.h</text>
</a>
</g>
</g>
<!-- Node5&#45;&gt;Node13 -->
<g id="edge16" class="edge">
<title>Node5&#45;&gt;Node13</title>
<path fill="none" stroke="midnightblue" d="M447,-207.59C447,-195.26 447,-180.72 447,-170.23"/>
<polygon fill="midnightblue" stroke="midnightblue" points="443.5,-207.7 447,-217.7 450.5,-207.71 443.5,-207.7"/>
</g>
<!-- Node6&#45;&gt;Node7 -->
<g id="edge6" class="edge">
<title>Node6&#45;&gt;Node7</title>
<path fill="none" stroke="midnightblue" d="M684.79,-132.69C673.36,-121.37 660.86,-107.77 652.79,-97.75"/>
<polygon fill="midnightblue" stroke="midnightblue" points="682.47,-135.31 692.1,-139.73 687.33,-130.27 682.47,-135.31"/>
</g>
<!-- Node7&#45;&gt;Node6 -->
<g id="edge7" class="edge">
<title>Node7&#45;&gt;Node6</title>
<path fill="none" stroke="midnightblue" d="M670.96,-104.57C682.45,-115.92 695.06,-129.63 703.19,-139.73"/>
<polygon fill="midnightblue" stroke="midnightblue" points="673.26,-101.92 663.62,-97.5 668.4,-106.96 673.26,-101.92"/>
</g>
<!-- Node8&#45;&gt;Node7 -->
<g id="edge9" class="edge">
<title>Node8&#45;&gt;Node7</title>
<path fill="none" stroke="midnightblue" d="M599.25,-132.36C609.79,-121.11 622.36,-107.68 631.66,-97.75"/>
<polygon fill="midnightblue" stroke="midnightblue" points="596.64,-130.04 592.36,-139.73 601.75,-134.83 596.64,-130.04"/>
</g>
<!-- Node10&#45;&gt;Node9 -->
<g id="edge12" class="edge">
<title>Node10&#45;&gt;Node9</title>
<path fill="none" stroke="midnightblue" d="M117.03,-133.29C103.14,-121.77 86.22,-107.73 73.89,-97.5"/>
<polygon fill="midnightblue" stroke="midnightblue" points="114.87,-136.04 124.8,-139.73 119.34,-130.66 114.87,-136.04"/>
</g>
<!-- Node11 -->
<g id="node11" class="node">
<title>Node11</title>
<g id="a_node11"><a xlink:href="p2p__dodag_8h.html" target="_top" xlink:title="DODAG&#45;related functions for P2P&#45;RPL.">
<polygon fill="none" stroke="black" points="132,-67.5 132,-97.5 246,-97.5 246,-67.5 132,-67.5"/>
<text text-anchor="start" x="140" y="-85.5" font-family="Helvetica,sans-Serif" font-size="10.00">sys/include/net/gnrc</text>
<text text-anchor="middle" x="189" y="-74.5" font-family="Helvetica,sans-Serif" font-size="10.00">/rpl/p2p_dodag.h</text>
</a>
</g>
</g>
<!-- Node10&#45;&gt;Node11 -->
<g id="edge13" class="edge">
<title>Node10&#45;&gt;Node11</title>
<path fill="none" stroke="midnightblue" d="M157.08,-131.39C164.44,-120.34 173.07,-107.39 179.5,-97.75"/>
<polygon fill="midnightblue" stroke="midnightblue" points="154.15,-129.47 151.51,-139.73 159.97,-133.35 154.15,-129.47"/>
</g>
<!-- Node15 -->
<g id="node15" class="node">
<title>Node15</title>
<g id="a_node15"><a xlink:href="gnrc_2tcp_8h.html" target="_top" xlink:title="GNRC TCP API.">
<polygon fill="none" stroke="black" points="932,-140 932,-170 1046,-170 1046,-140 932,-140"/>
<text text-anchor="start" x="940" y="-158" font-family="Helvetica,sans-Serif" font-size="10.00">sys/include/net/gnrc</text>
<text text-anchor="middle" x="989" y="-147" font-family="Helvetica,sans-Serif" font-size="10.00">/tcp.h</text>
</a>
</g>
</g>
<!-- Node14&#45;&gt;Node15 -->
<g id="edge18" class="edge">
<title>Node14&#45;&gt;Node15</title>
<path fill="none" stroke="midnightblue" d="M1206.4,-215.5C1163.38,-204.67 1106.25,-189.98 1056,-176 1049.33,-174.15 1042.31,-172.13 1035.43,-170.11"/>
<polygon fill="midnightblue" stroke="midnightblue" points="1205.64,-218.92 1216.19,-217.96 1207.34,-212.13 1205.64,-218.92"/>
</g>
<!-- Node16 -->
<g id="node16" class="node">
<title>Node16</title>
<g id="a_node16"><a xlink:href="gnrc__tcp__common_8h.html" target="_top" xlink:title="Internally used defines, macros and variable declarations.">
<polygon fill="none" stroke="black" points="1064.5,-134.5 1064.5,-175.5 1191.5,-175.5 1191.5,-134.5 1064.5,-134.5"/>
<text text-anchor="start" x="1072.5" y="-163.5" font-family="Helvetica,sans-Serif" font-size="10.00">sys/net/gnrc/transport</text>
<text text-anchor="start" x="1072.5" y="-152.5" font-family="Helvetica,sans-Serif" font-size="10.00">_layer/tcp/include/gnrc</text>
<text text-anchor="middle" x="1128" y="-141.5" font-family="Helvetica,sans-Serif" font-size="10.00">_tcp_common.h</text>
</a>
</g>
</g>
<!-- Node14&#45;&gt;Node16 -->
<g id="edge19" class="edge">
<title>Node14&#45;&gt;Node16</title>
<path fill="none" stroke="midnightblue" d="M1237.12,-213.2C1215.32,-201.77 1187.53,-187.2 1165.45,-175.63"/>
<polygon fill="midnightblue" stroke="midnightblue" points="1235.58,-216.34 1246.07,-217.88 1238.83,-210.14 1235.58,-216.34"/>
</g>
<!-- Node17 -->
<g id="node17" class="node">
<title>Node17</title>
<g id="a_node17"><a xlink:href="gnrc__tcp__fsm_8h.html" target="_top" xlink:title="TCP finite state maschine declarations.">
<polygon fill="none" stroke="black" points="1209.5,-134.5 1209.5,-175.5 1336.5,-175.5 1336.5,-134.5 1209.5,-134.5"/>
<text text-anchor="start" x="1217.5" y="-163.5" font-family="Helvetica,sans-Serif" font-size="10.00">sys/net/gnrc/transport</text>
<text text-anchor="start" x="1217.5" y="-152.5" font-family="Helvetica,sans-Serif" font-size="10.00">_layer/tcp/include/gnrc</text>
<text text-anchor="middle" x="1273" y="-141.5" font-family="Helvetica,sans-Serif" font-size="10.00">_tcp_fsm.h</text>
</a>
</g>
</g>
<!-- Node14&#45;&gt;Node17 -->
<g id="edge20" class="edge">
<title>Node14&#45;&gt;Node17</title>
<path fill="none" stroke="midnightblue" d="M1273,-207.66C1273,-197.33 1273,-185.44 1273,-175.68"/>
<polygon fill="midnightblue" stroke="midnightblue" points="1269.5,-207.7 1273,-217.7 1276.5,-207.71 1269.5,-207.7"/>
</g>
<!-- Node18 -->
<g id="node18" class="node">
<title>Node18</title>
<g id="a_node18"><a xlink:href="gnrc__tcp__option_8h.html" target="_top" xlink:title="TCP option handling declarations.">
<polygon fill="none" stroke="black" points="1354.5,-134.5 1354.5,-175.5 1481.5,-175.5 1481.5,-134.5 1354.5,-134.5"/>
<text text-anchor="start" x="1362.5" y="-163.5" font-family="Helvetica,sans-Serif" font-size="10.00">sys/net/gnrc/transport</text>
<text text-anchor="start" x="1362.5" y="-152.5" font-family="Helvetica,sans-Serif" font-size="10.00">_layer/tcp/include/gnrc</text>
<text text-anchor="middle" x="1418" y="-141.5" font-family="Helvetica,sans-Serif" font-size="10.00">_tcp_option.h</text>
</a>
</g>
</g>
<!-- Node14&#45;&gt;Node18 -->
<g id="edge21" class="edge">
<title>Node14&#45;&gt;Node18</title>
<path fill="none" stroke="midnightblue" d="M1308.88,-213.2C1330.68,-201.77 1358.47,-187.2 1380.55,-175.63"/>
<polygon fill="midnightblue" stroke="midnightblue" points="1307.17,-210.14 1299.93,-217.88 1310.42,-216.34 1307.17,-210.14"/>
</g>
<!-- Node19 -->
<g id="node19" class="node">
<title>Node19</title>
<g id="a_node19"><a xlink:href="gnrc__tcp__pkt_8h.html" target="_top" xlink:title="TCP packet handling declarations.">
<polygon fill="none" stroke="black" points="1499.5,-134.5 1499.5,-175.5 1626.5,-175.5 1626.5,-134.5 1499.5,-134.5"/>
<text text-anchor="start" x="1507.5" y="-163.5" font-family="Helvetica,sans-Serif" font-size="10.00">sys/net/gnrc/transport</text>
<text text-anchor="start" x="1507.5" y="-152.5" font-family="Helvetica,sans-Serif" font-size="10.00">_layer/tcp/include/gnrc</text>
<text text-anchor="middle" x="1563" y="-141.5" font-family="Helvetica,sans-Serif" font-size="10.00">_tcp_pkt.h</text>
</a>
</g>
</g>
<!-- Node14&#45;&gt;Node19 -->
<g id="edge22" class="edge">
<title>Node14&#45;&gt;Node19</title>
<path fill="none" stroke="midnightblue" d="M1338.93,-215.42C1382.21,-204.45 1440.04,-189.62 1491,-176 1493.76,-175.26 1496.57,-174.5 1499.42,-173.73"/>
<polygon fill="midnightblue" stroke="midnightblue" points="1337.92,-212.07 1329.08,-217.91 1339.64,-218.85 1337.92,-212.07"/>
</g>
<!-- Node20 -->
<g id="node20" class="node">
<title>Node20</title>
<g id="a_node20"><a xlink:href="gnrc__tcp__rcvbuf_8h.html" target="_top" xlink:title="Functions for allocating and freeing the receive buffer.">
<polygon fill="none" stroke="black" points="786.5,-134.5 786.5,-175.5 913.5,-175.5 913.5,-134.5 786.5,-134.5"/>
<text text-anchor="start" x="794.5" y="-163.5" font-family="Helvetica,sans-Serif" font-size="10.00">sys/net/gnrc/transport</text>
<text text-anchor="start" x="794.5" y="-152.5" font-family="Helvetica,sans-Serif" font-size="10.00">_layer/tcp/include/gnrc</text>
<text text-anchor="middle" x="850" y="-141.5" font-family="Helvetica,sans-Serif" font-size="10.00">_tcp_rcvbuf.h</text>
</a>
</g>
</g>
<!-- Node14&#45;&gt;Node20 -->
<g id="edge23" class="edge">
<title>Node14&#45;&gt;Node20</title>
<path fill="none" stroke="midnightblue" d="M1205.85,-223.47C1135.09,-213.96 1020.6,-197.11 923,-176 919.92,-175.33 916.77,-174.62 913.6,-173.86"/>
<polygon fill="midnightblue" stroke="midnightblue" points="1205.59,-226.96 1215.97,-224.82 1206.52,-220.02 1205.59,-226.96"/>
</g>
<!-- Node21&#45;&gt;Node4 -->
<g id="edge31" class="edge">
<title>Node21&#45;&gt;Node4</title>
<path fill="none" stroke="midnightblue" d="M1731.65,-203.76C1726.2,-194.35 1720.27,-184.1 1715.29,-175.51"/>
<polygon fill="midnightblue" stroke="midnightblue" points="1728.63,-205.53 1736.67,-212.43 1734.69,-202.02 1728.63,-205.53"/>
</g>
<!-- Node22 -->
<g id="node22" class="node">
<title>Node22</title>
<g id="a_node22"><a xlink:href="__nib-arsm_8h_source.html" target="_top" xlink:title=" ">
<polygon fill="none" stroke="black" points="1858.5,-134.5 1858.5,-175.5 1977.5,-175.5 1977.5,-134.5 1858.5,-134.5"/>
<text text-anchor="start" x="1866.5" y="-163.5" font-family="Helvetica,sans-Serif" font-size="10.00">sys/net/gnrc/network</text>
<text text-anchor="start" x="1866.5" y="-152.5" font-family="Helvetica,sans-Serif" font-size="10.00">_layer/ipv6/nib/_nib</text>
<text text-anchor="middle" x="1918" y="-141.5" font-family="Helvetica,sans-Serif" font-size="10.00">&#45;arsm.h</text>
</a>
</g>
</g>
<!-- Node21&#45;&gt;Node22 -->
<g id="edge25" class="edge">
<title>Node21&#45;&gt;Node22</title>
<path fill="none" stroke="midnightblue" d="M1800.95,-208.33C1824.54,-197.78 1851.98,-185.51 1874.37,-175.51"/>
<polygon fill="midnightblue" stroke="midnightblue" points="1799.48,-205.15 1791.78,-212.43 1802.34,-211.54 1799.48,-205.15"/>
</g>
<!-- Node23 -->
<g id="node23" class="node">
<title>Node23</title>
<g id="a_node23"><a xlink:href="__nib-6ln_8h.html" target="_top" xlink:title="Definitions related to 6Lo node (6LN) functionality of the NIB.">
<polygon fill="none" stroke="black" points="1820,-67.5 1820,-97.5 1960,-97.5 1960,-67.5 1820,-67.5"/>
<text text-anchor="start" x="1828" y="-85.5" font-family="Helvetica,sans-Serif" font-size="10.00">sys/net/gnrc/network</text>
<text text-anchor="middle" x="1890" y="-74.5" font-family="Helvetica,sans-Serif" font-size="10.00">_layer/ipv6/nib/_nib&#45;6ln.h</text>
</a>
</g>
</g>
<!-- Node21&#45;&gt;Node23 -->
<g id="edge29" class="edge">
<title>Node21&#45;&gt;Node23</title>
<path fill="none" stroke="midnightblue" d="M1776.37,-205.32C1785.92,-196.16 1796.54,-185.75 1806,-176 1832.28,-148.91 1861.64,-115.91 1877.75,-97.55"/>
<polygon fill="midnightblue" stroke="midnightblue" points="1773.81,-202.93 1768.99,-212.37 1778.64,-207.99 1773.81,-202.93"/>
</g>
<!-- Node24 -->
<g id="node24" class="node">
<title>Node24</title>
<g id="a_node24"><a xlink:href="__nib-6lr_8h.html" target="_top" xlink:title="Definitions related to 6Lo router (6LR) functionality of the NIB.">
<polygon fill="none" stroke="black" points="1821.5,-0.5 1821.5,-30.5 1958.5,-30.5 1958.5,-0.5 1821.5,-0.5"/>
<text text-anchor="start" x="1829.5" y="-18.5" font-family="Helvetica,sans-Serif" font-size="10.00">sys/net/gnrc/network</text>
<text text-anchor="middle" x="1890" y="-7.5" font-family="Helvetica,sans-Serif" font-size="10.00">_layer/ipv6/nib/_nib&#45;6lr.h</text>
</a>
</g>
</g>
<!-- Node21&#45;&gt;Node24 -->
<g id="edge30" class="edge">
<title>Node21&#45;&gt;Node24</title>
<path fill="none" stroke="midnightblue" d="M1761.43,-203.16C1765.32,-194.49 1769.46,-184.92 1773,-176 1791.92,-128.31 1779.19,-107.25 1811,-67 1823.41,-51.29 1842.14,-39.02 1858.24,-30.51"/>
<polygon fill="midnightblue" stroke="midnightblue" points="1758.15,-201.92 1757.2,-212.48 1764.52,-204.82 1758.15,-201.92"/>
</g>
<!-- Node22&#45;&gt;Node23 -->
<g id="edge26" class="edge">
<title>Node22&#45;&gt;Node23</title>
<path fill="none" stroke="midnightblue" d="M1906.47,-124.97C1902.76,-115.63 1898.82,-105.7 1895.72,-97.89"/>
<polygon fill="midnightblue" stroke="midnightblue" points="1903.26,-126.36 1910.2,-134.36 1909.76,-123.78 1903.26,-126.36"/>
</g>
<!-- Node22&#45;&gt;Node24 -->
<g id="edge28" class="edge">
<title>Node22&#45;&gt;Node24</title>
<path fill="none" stroke="midnightblue" d="M1949.87,-127.07C1966.05,-110 1980.16,-87.37 1969,-67 1960.01,-50.58 1943.15,-38.72 1927.31,-30.64"/>
<polygon fill="midnightblue" stroke="midnightblue" points="1947.02,-124.97 1942.37,-134.49 1951.94,-129.94 1947.02,-124.97"/>
</g>
<!-- Node23&#45;&gt;Node24 -->
<g id="edge27" class="edge">
<title>Node23&#45;&gt;Node24</title>
<path fill="none" stroke="midnightblue" d="M1890,-57.11C1890,-48.15 1890,-38.32 1890,-30.58"/>
<polygon fill="midnightblue" stroke="midnightblue" points="1886.5,-57.4 1890,-67.4 1893.5,-57.4 1886.5,-57.4"/>
</g>
</g>
</svg>
