<?xml version="1.0" encoding="UTF-8" standalone="no"?>
<!DOCTYPE svg PUBLIC "-//W3C//DTD SVG 1.1//EN"
 "http://www.w3.org/Graphics/SVG/1.1/DTD/svg11.dtd">
<!-- Generated by graphviz version 2.40.1 (20161225.0304)
 -->
<!-- Title: sys/include/net/gnrc/sixlowpan/frag/fb.h Pages: 1 -->
<svg width="740pt" height="263pt"
 viewBox="0.00 0.00 739.50 263.00" xmlns="http://www.w3.org/2000/svg" xmlns:xlink="http://www.w3.org/1999/xlink">
<g id="graph0" class="graph" transform="scale(1 1) rotate(0) translate(4 259)">
<title>sys/include/net/gnrc/sixlowpan/frag/fb.h</title>
<!-- Node0 -->
<g id="node1" class="node">
<title>Node0</title>
<polygon fill="#bfbfbf" stroke="#000000" points="54,-224.5 54,-254.5 158,-254.5 158,-224.5 54,-224.5"/>
<text text-anchor="start" x="62" y="-242.5" font-family="Helvetica,sans-Serif" font-size="10.00" fill="#000000">sys/include/net/gnrc</text>
<text text-anchor="middle" x="106" y="-231.5" font-family="Helvetica,sans-Serif" font-size="10.00" fill="#000000">/sixlowpan/frag/fb.h</text>
</g>
<!-- Node1 -->
<g id="node2" class="node">
<title>Node1</title>
<polygon fill="none" stroke="#bfbfbf" points="0,-112.5 0,-131.5 56,-131.5 56,-112.5 0,-112.5"/>
<text text-anchor="middle" x="28" y="-119.5" font-family="Helvetica,sans-Serif" font-size="10.00" fill="#000000">stdbool.h</text>
</g>
<!-- Node0&#45;&gt;Node1 -->
<g id="edge1" class="edge">
<title>Node0&#45;&gt;Node1</title>
<path fill="none" stroke="#191970" d="M84.8905,-224.3945C73.1873,-215.0677 59.1873,-202.1927 50,-188 40.7815,-173.7592 35.0562,-155.2779 31.7658,-141.4958"/>
<polygon fill="#191970" stroke="#191970" points="35.1648,-140.6546 29.6288,-131.6212 28.3232,-142.1352 35.1648,-140.6546"/>
</g>
<!-- Node2 -->
<g id="node3" class="node">
<title>Node2</title>
<polygon fill="none" stroke="#bfbfbf" points="40.5,-56.5 40.5,-75.5 89.5,-75.5 89.5,-56.5 40.5,-56.5"/>
<text text-anchor="middle" x="65" y="-63.5" font-family="Helvetica,sans-Serif" font-size="10.00" fill="#000000">stdint.h</text>
</g>
<!-- Node0&#45;&gt;Node2 -->
<g id="edge2" class="edge">
<title>Node0&#45;&gt;Node2</title>
<path fill="none" stroke="#191970" d="M109.8265,-224.2733C112.8957,-209.6863 116.0757,-187.1278 112,-168 105.3653,-136.8627 88.0739,-103.9505 76.419,-84.1945"/>
<polygon fill="#191970" stroke="#191970" points="79.3977,-82.3565 71.2216,-75.6184 73.4112,-85.9845 79.3977,-82.3565"/>
</g>
<!-- Node3 -->
<g id="node4" class="node">
<title>Node3</title>
<g id="a_node4"><a xlink:href="msg_8h.html" target="_top" xlink:title="Messaging API for inter process communication. ">
<polygon fill="none" stroke="#000000" points="59,-168.5 59,-187.5 103,-187.5 103,-168.5 59,-168.5"/>
<text text-anchor="middle" x="81" y="-175.5" font-family="Helvetica,sans-Serif" font-size="10.00" fill="#000000">msg.h</text>
</a>
</g>
</g>
<!-- Node0&#45;&gt;Node3 -->
<g id="edge3" class="edge">
<title>Node0&#45;&gt;Node3</title>
<path fill="none" stroke="#191970" d="M99.8202,-224.2977C96.4946,-216.1166 92.3589,-205.943 88.8121,-197.2179"/>
<polygon fill="#191970" stroke="#191970" points="92.011,-195.7927 85.0028,-187.8469 85.5263,-198.4288 92.011,-195.7927"/>
</g>
<!-- Node9 -->
<g id="node10" class="node">
<title>Node9</title>
<g id="a_node10"><a xlink:href="include_2net_2gnrc_2pkt_8h.html" target="_top" xlink:title="General definitions for network packets and their helper functions. ">
<polygon fill="none" stroke="#000000" points="289.5,-168.5 289.5,-187.5 366.5,-187.5 366.5,-168.5 289.5,-168.5"/>
<text text-anchor="middle" x="328" y="-175.5" font-family="Helvetica,sans-Serif" font-size="10.00" fill="#000000">net/gnrc/pkt.h</text>
</a>
</g>
</g>
<!-- Node0&#45;&gt;Node9 -->
<g id="edge12" class="edge">
<title>Node0&#45;&gt;Node9</title>
<path fill="none" stroke="#191970" d="M158.0491,-225.081C196.238,-214.5016 247.5416,-200.2892 283.7588,-190.256"/>
<polygon fill="#191970" stroke="#191970" points="284.8478,-193.5862 293.5504,-187.5435 282.9789,-186.8403 284.8478,-193.5862"/>
</g>
<!-- Node3&#45;&gt;Node1 -->
<g id="edge5" class="edge">
<title>Node3&#45;&gt;Node1</title>
<path fill="none" stroke="#191970" d="M71.7681,-168.2455C64.1683,-160.2155 53.2123,-148.6394 44.1632,-139.0781"/>
<polygon fill="#191970" stroke="#191970" points="46.542,-136.4998 37.1261,-131.6427 41.4579,-141.3115 46.542,-136.4998"/>
</g>
<!-- Node3&#45;&gt;Node2 -->
<g id="edge4" class="edge">
<title>Node3&#45;&gt;Node2</title>
<path fill="none" stroke="#191970" d="M79.6358,-168.4509C77.0263,-150.184 71.2793,-109.9553 67.8139,-85.6976"/>
<polygon fill="#191970" stroke="#191970" points="71.2398,-84.9294 66.3607,-75.5249 64.3102,-85.9194 71.2398,-84.9294"/>
</g>
<!-- Node4 -->
<g id="node5" class="node">
<title>Node4</title>
<g id="a_node5"><a xlink:href="kernel__types_8h.html" target="_top" xlink:title="Types used by the kernel. ">
<polygon fill="none" stroke="#000000" points="178,-112.5 178,-131.5 258,-131.5 258,-112.5 178,-112.5"/>
<text text-anchor="middle" x="218" y="-119.5" font-family="Helvetica,sans-Serif" font-size="10.00" fill="#000000">kernel_types.h</text>
</a>
</g>
</g>
<!-- Node3&#45;&gt;Node4 -->
<g id="edge6" class="edge">
<title>Node3&#45;&gt;Node4</title>
<path fill="none" stroke="#191970" d="M103.0114,-169.0026C125.2786,-159.9007 159.955,-145.7264 185.4089,-135.3219"/>
<polygon fill="#191970" stroke="#191970" points="186.7354,-138.5609 194.6677,-131.5373 184.0868,-132.0813 186.7354,-138.5609"/>
</g>
<!-- Node4&#45;&gt;Node2 -->
<g id="edge7" class="edge">
<title>Node4&#45;&gt;Node2</title>
<path fill="none" stroke="#191970" d="M191.6984,-112.3733C166.0949,-103.0021 127.0601,-88.7148 99.0872,-78.4764"/>
<polygon fill="#191970" stroke="#191970" points="100.2881,-75.1889 89.6943,-75.0384 97.882,-81.7624 100.2881,-75.1889"/>
</g>
<!-- Node5 -->
<g id="node6" class="node">
<title>Node5</title>
<g id="a_node6"><a xlink:href="inttypes_8h.html" target="_top" xlink:title="Adds include for missing inttype definitions. ">
<polygon fill="none" stroke="#000000" points="298.5,-56.5 298.5,-75.5 357.5,-75.5 357.5,-56.5 298.5,-56.5"/>
<text text-anchor="middle" x="328" y="-63.5" font-family="Helvetica,sans-Serif" font-size="10.00" fill="#000000">inttypes.h</text>
</a>
</g>
</g>
<!-- Node4&#45;&gt;Node5 -->
<g id="edge8" class="edge">
<title>Node4&#45;&gt;Node5</title>
<path fill="none" stroke="#191970" d="M237.1605,-112.2455C254.5111,-103.4125 280.2901,-90.2887 299.9583,-80.2758"/>
<polygon fill="#191970" stroke="#191970" points="301.7353,-83.2986 309.059,-75.6427 298.5595,-77.0605 301.7353,-83.2986"/>
</g>
<!-- Node6 -->
<g id="node7" class="node">
<title>Node6</title>
<polygon fill="none" stroke="#bfbfbf" points="194,-56.5 194,-75.5 242,-75.5 242,-56.5 194,-56.5"/>
<text text-anchor="middle" x="218" y="-63.5" font-family="Helvetica,sans-Serif" font-size="10.00" fill="#000000">limits.h</text>
</g>
<!-- Node4&#45;&gt;Node6 -->
<g id="edge9" class="edge">
<title>Node4&#45;&gt;Node6</title>
<path fill="none" stroke="#191970" d="M218,-112.2455C218,-104.9382 218,-94.6944 218,-85.7046"/>
<polygon fill="#191970" stroke="#191970" points="221.5001,-85.6426 218,-75.6427 214.5001,-85.6427 221.5001,-85.6426"/>
</g>
<!-- Node7 -->
<g id="node8" class="node">
<title>Node7</title>
<polygon fill="none" stroke="#bfbfbf" points="319,-.5 319,-19.5 371,-19.5 371,-.5 319,-.5"/>
<text text-anchor="middle" x="345" y="-7.5" font-family="Helvetica,sans-Serif" font-size="10.00" fill="#000000">stddef.h</text>
</g>
<!-- Node4&#45;&gt;Node7 -->
<g id="edge10" class="edge">
<title>Node4&#45;&gt;Node7</title>
<path fill="none" stroke="#191970" d="M227.9336,-112.4032C241.5028,-99.3784 266.6983,-75.493 289,-56 300.6608,-45.8078 314.0551,-34.7818 324.8198,-26.0803"/>
<polygon fill="#191970" stroke="#191970" points="327.2047,-28.6539 332.8058,-19.6606 322.819,-23.1981 327.2047,-28.6539"/>
</g>
<!-- Node8 -->
<g id="node9" class="node">
<title>Node8</title>
<polygon fill="none" stroke="#bfbfbf" points="108,-56.5 108,-75.5 176,-75.5 176,-56.5 108,-56.5"/>
<text text-anchor="middle" x="142" y="-63.5" font-family="Helvetica,sans-Serif" font-size="10.00" fill="#000000">sys/types.h</text>
</g>
<!-- Node4&#45;&gt;Node8 -->
<g id="edge11" class="edge">
<title>Node4&#45;&gt;Node8</title>
<path fill="none" stroke="#191970" d="M204.7618,-112.2455C193.319,-103.814 176.5704,-91.4729 163.2525,-81.6598"/>
<polygon fill="#191970" stroke="#191970" points="165.2133,-78.757 155.0865,-75.6427 161.0609,-84.3924 165.2133,-78.757"/>
</g>
<!-- Node9&#45;&gt;Node4 -->
<g id="edge17" class="edge">
<title>Node9&#45;&gt;Node4</title>
<path fill="none" stroke="#191970" d="M308.8395,-168.2455C291.4889,-159.4125 265.7099,-146.2887 246.0417,-136.2758"/>
<polygon fill="#191970" stroke="#191970" points="247.4405,-133.0605 236.941,-131.6427 244.2647,-139.2986 247.4405,-133.0605"/>
</g>
<!-- Node9&#45;&gt;Node5 -->
<g id="edge13" class="edge">
<title>Node9&#45;&gt;Node5</title>
<path fill="none" stroke="#191970" d="M328,-168.4509C328,-150.184 328,-109.9553 328,-85.6976"/>
<polygon fill="#191970" stroke="#191970" points="331.5001,-85.5249 328,-75.5249 324.5001,-85.5249 331.5001,-85.5249"/>
</g>
<!-- Node10 -->
<g id="node11" class="node">
<title>Node10</title>
<g id="a_node11"><a xlink:href="stdlib_8h.html" target="_top" xlink:title="stdlib.h wrapper for MSP430 ">
<polygon fill="none" stroke="#000000" points="681,-112.5 681,-131.5 729,-131.5 729,-112.5 681,-112.5"/>
<text text-anchor="middle" x="705" y="-119.5" font-family="Helvetica,sans-Serif" font-size="10.00" fill="#000000">stdlib.h</text>
</a>
</g>
</g>
<!-- Node9&#45;&gt;Node10 -->
<g id="edge14" class="edge">
<title>Node9&#45;&gt;Node10</title>
<path fill="none" stroke="#191970" d="M366.5739,-172.2702C440.2952,-161.3195 600.1148,-137.5798 670.516,-127.1223"/>
<polygon fill="#191970" stroke="#191970" points="671.2502,-130.5517 680.6274,-125.6203 670.2217,-123.6277 671.2502,-130.5517"/>
</g>
<!-- Node12 -->
<g id="node13" class="node">
<title>Node12</title>
<g id="a_node13"><a xlink:href="nettype_8h.html" target="_top" xlink:title="Protocol type definitions. ">
<polygon fill="none" stroke="#000000" points="372.5,-112.5 372.5,-131.5 467.5,-131.5 467.5,-112.5 372.5,-112.5"/>
<text text-anchor="middle" x="420" y="-119.5" font-family="Helvetica,sans-Serif" font-size="10.00" fill="#000000">net/gnrc/nettype.h</text>
</a>
</g>
</g>
<!-- Node9&#45;&gt;Node12 -->
<g id="edge18" class="edge">
<title>Node9&#45;&gt;Node12</title>
<path fill="none" stroke="#191970" d="M344.0252,-168.2455C358.1408,-159.6534 378.9263,-147.0014 395.1899,-137.1018"/>
<polygon fill="#191970" stroke="#191970" points="397.4363,-139.8319 404.1585,-131.6427 393.7966,-133.8525 397.4363,-139.8319"/>
</g>
<!-- Node11 -->
<g id="node12" class="node">
<title>Node11</title>
<g id="a_node12"><a xlink:href="malloc_8h.html" target="_top" xlink:title="malloc.h">
<polygon fill="none" stroke="#000000" points="678.5,-56.5 678.5,-75.5 731.5,-75.5 731.5,-56.5 678.5,-56.5"/>
<text text-anchor="middle" x="705" y="-63.5" font-family="Helvetica,sans-Serif" font-size="10.00" fill="#000000">malloc.h</text>
</a>
</g>
</g>
<!-- Node10&#45;&gt;Node11 -->
<g id="edge15" class="edge">
<title>Node10&#45;&gt;Node11</title>
<path fill="none" stroke="#191970" d="M699.7332,-112.2455C698.3221,-104.9382 697.9179,-94.6944 698.5205,-85.7046"/>
<polygon fill="#191970" stroke="#191970" points="702.0111,-85.9945 699.7549,-75.6427 695.0632,-85.1421 702.0111,-85.9945"/>
</g>
<!-- Node11&#45;&gt;Node10 -->
<g id="edge16" class="edge">
<title>Node11&#45;&gt;Node10</title>
<path fill="none" stroke="#191970" d="M710.2451,-75.6427C711.6665,-82.9199 712.081,-93.155 711.4887,-102.1575"/>
<polygon fill="#191970" stroke="#191970" points="707.9947,-101.8972 710.2668,-112.2455 714.9439,-102.739 707.9947,-101.8972"/>
</g>
<!-- Node12&#45;&gt;Node5 -->
<g id="edge19" class="edge">
<title>Node12&#45;&gt;Node5</title>
<path fill="none" stroke="#191970" d="M403.9748,-112.2455C389.8592,-103.6534 369.0737,-91.0014 352.8101,-81.1018"/>
<polygon fill="#191970" stroke="#191970" points="354.2034,-77.8525 343.8415,-75.6427 350.5637,-83.8319 354.2034,-77.8525"/>
</g>
<!-- Node13 -->
<g id="node14" class="node">
<title>Node13</title>
<g id="a_node14"><a xlink:href="kernel__defines_8h.html" target="_top" xlink:title="Common macros and compiler attributes/pragmas configuration. ">
<polygon fill="none" stroke="#000000" points="376,-56.5 376,-75.5 464,-75.5 464,-56.5 376,-56.5"/>
<text text-anchor="middle" x="420" y="-63.5" font-family="Helvetica,sans-Serif" font-size="10.00" fill="#000000">kernel_defines.h</text>
</a>
</g>
</g>
<!-- Node12&#45;&gt;Node13 -->
<g id="edge20" class="edge">
<title>Node12&#45;&gt;Node13</title>
<path fill="none" stroke="#191970" d="M420,-112.2455C420,-104.9382 420,-94.6944 420,-85.7046"/>
<polygon fill="#191970" stroke="#191970" points="423.5001,-85.6426 420,-75.6427 416.5001,-85.6427 423.5001,-85.6426"/>
</g>
<!-- Node14 -->
<g id="node15" class="node">
<title>Node14</title>
<g id="a_node15"><a xlink:href="ethertype_8h.html" target="_top" xlink:title="Ether type definitions. ">
<polygon fill="none" stroke="#000000" points="578,-56.5 578,-75.5 660,-75.5 660,-56.5 578,-56.5"/>
<text text-anchor="middle" x="619" y="-63.5" font-family="Helvetica,sans-Serif" font-size="10.00" fill="#000000">net/ethertype.h</text>
</a>
</g>
</g>
<!-- Node12&#45;&gt;Node14 -->
<g id="edge22" class="edge">
<title>Node12&#45;&gt;Node14</title>
<path fill="none" stroke="#191970" d="M454.2093,-112.3733C487.7297,-102.9404 538.9505,-88.5265 575.381,-78.2747"/>
<polygon fill="#191970" stroke="#191970" points="576.5591,-81.5792 585.2371,-75.5011 574.6628,-74.8409 576.5591,-81.5792"/>
</g>
<!-- Node15 -->
<g id="node16" class="node">
<title>Node15</title>
<g id="a_node16"><a xlink:href="protnum_8h.html" target="_top" xlink:title="Protocol number definitions. ">
<polygon fill="none" stroke="#000000" points="482.5,-56.5 482.5,-75.5 559.5,-75.5 559.5,-56.5 482.5,-56.5"/>
<text text-anchor="middle" x="521" y="-63.5" font-family="Helvetica,sans-Serif" font-size="10.00" fill="#000000">net/protnum.h</text>
</a>
</g>
</g>
<!-- Node12&#45;&gt;Node15 -->
<g id="edge23" class="edge">
<title>Node12&#45;&gt;Node15</title>
<path fill="none" stroke="#191970" d="M437.5929,-112.2455C453.379,-103.4928 476.7639,-90.527 494.7587,-80.5496"/>
<polygon fill="#191970" stroke="#191970" points="496.5603,-83.5528 503.6087,-75.6427 493.1659,-77.4308 496.5603,-83.5528"/>
</g>
<!-- Node13&#45;&gt;Node7 -->
<g id="edge21" class="edge">
<title>Node13&#45;&gt;Node7</title>
<path fill="none" stroke="#191970" d="M406.936,-56.2455C395.6438,-47.814 379.1155,-35.4729 365.9729,-25.6598"/>
<polygon fill="#191970" stroke="#191970" points="368.0211,-22.8211 357.9143,-19.6427 363.8331,-28.4301 368.0211,-22.8211"/>
</g>
</g>
</svg>
