<?xml version="1.0" encoding="UTF-8" standalone="no"?>
<!DOCTYPE svg PUBLIC "-//W3C//DTD SVG 1.1//EN"
 "http://www.w3.org/Graphics/SVG/1.1/DTD/svg11.dtd">
<!-- Generated by graphviz version 2.43.0 (0)
 -->
<!-- Title: sys/include/net/gnrc/sixlowpan/frag/fb.h Pages: 1 -->
<svg width="855pt" height="263pt"
 viewBox="0.00 0.00 854.74 263.00" xmlns="http://www.w3.org/2000/svg" xmlns:xlink="http://www.w3.org/1999/xlink">
<g id="graph0" class="graph" transform="scale(1 1) rotate(0) translate(4 259)">
<title>sys/include/net/gnrc/sixlowpan/frag/fb.h</title>
<!-- Node1 -->
<g id="node1" class="node">
<title>Node1</title>
<g id="a_node1"><a xlink:title="Fragmentation buffer definitions.">
<polygon fill="#bfbfbf" stroke="black" points="18.24,-224.5 18.24,-254.5 132.24,-254.5 132.24,-224.5 18.24,-224.5"/>
<text text-anchor="start" x="26.24" y="-242.5" font-family="Helvetica,sans-Serif" font-size="10.00">sys/include/net/gnrc</text>
<text text-anchor="middle" x="75.24" y="-231.5" font-family="Helvetica,sans-Serif" font-size="10.00">/sixlowpan/frag/fb.h</text>
</a>
</g>
</g>
<!-- Node2 -->
<g id="node2" class="node">
<title>Node2</title>
<g id="a_node2"><a xlink:title=" ">
<polygon fill="none" stroke="#bfbfbf" points="13.24,-112.5 13.24,-131.5 75.24,-131.5 75.24,-112.5 13.24,-112.5"/>
<text text-anchor="middle" x="44.24" y="-119.5" font-family="Helvetica,sans-Serif" font-size="10.00">stdbool.h</text>
</a>
</g>
</g>
<!-- Node1&#45;&gt;Node2 -->
<g id="edge1" class="edge">
<title>Node1&#45;&gt;Node2</title>
<path fill="none" stroke="midnightblue" d="M71.44,-224.34C65.85,-203.53 55.42,-164.66 49.23,-141.58"/>
<polygon fill="midnightblue" stroke="midnightblue" points="52.54,-140.42 46.57,-131.67 45.78,-142.23 52.54,-140.42"/>
</g>
<!-- Node3 -->
<g id="node3" class="node">
<title>Node3</title>
<g id="a_node3"><a xlink:title=" ">
<polygon fill="none" stroke="#bfbfbf" points="76.74,-0.5 76.74,-19.5 129.74,-19.5 129.74,-0.5 76.74,-0.5"/>
<text text-anchor="middle" x="103.24" y="-7.5" font-family="Helvetica,sans-Serif" font-size="10.00">stdint.h</text>
</a>
</g>
</g>
<!-- Node1&#45;&gt;Node3 -->
<g id="edge2" class="edge">
<title>Node1&#45;&gt;Node3</title>
<path fill="none" stroke="midnightblue" d="M57.39,-224.29C31.06,-201.48 -13.28,-154.9 4.24,-112 19.71,-74.11 57.01,-42.74 81.15,-25.46"/>
<polygon fill="midnightblue" stroke="midnightblue" points="83.46,-28.12 89.69,-19.55 79.48,-22.37 83.46,-28.12"/>
</g>
<!-- Node4 -->
<g id="node4" class="node">
<title>Node4</title>
<g id="a_node4"><a xlink:href="msg_8h.html" target="_top" xlink:title="Messaging API for inter process communication.">
<polygon fill="none" stroke="black" points="76.74,-168.5 76.74,-187.5 123.74,-187.5 123.74,-168.5 76.74,-168.5"/>
<text text-anchor="middle" x="100.24" y="-175.5" font-family="Helvetica,sans-Serif" font-size="10.00">msg.h</text>
</a>
</g>
</g>
<!-- Node1&#45;&gt;Node4 -->
<g id="edge3" class="edge">
<title>Node1&#45;&gt;Node4</title>
<path fill="none" stroke="midnightblue" d="M81.16,-224.4C84.61,-216.2 88.99,-205.78 92.68,-196.99"/>
<polygon fill="midnightblue" stroke="midnightblue" points="95.95,-198.23 96.6,-187.66 89.5,-195.52 95.95,-198.23"/>
</g>
<!-- Node12 -->
<g id="node12" class="node">
<title>Node12</title>
<g id="a_node12"><a xlink:href="net_2gnrc_2pkt_8h.html" target="_top" xlink:title="General definitions for network packets and their helper functions.">
<polygon fill="none" stroke="black" points="488.24,-168.5 488.24,-187.5 572.24,-187.5 572.24,-168.5 488.24,-168.5"/>
<text text-anchor="middle" x="530.24" y="-175.5" font-family="Helvetica,sans-Serif" font-size="10.00">net/gnrc/pkt.h</text>
</a>
</g>
</g>
<!-- Node1&#45;&gt;Node12 -->
<g id="edge16" class="edge">
<title>Node1&#45;&gt;Node12</title>
<path fill="none" stroke="midnightblue" d="M132.4,-231.02C221.51,-219.37 392.18,-197.05 478.1,-185.82"/>
<polygon fill="midnightblue" stroke="midnightblue" points="478.69,-189.27 488.15,-184.5 477.78,-182.33 478.69,-189.27"/>
</g>
<!-- Node4&#45;&gt;Node2 -->
<g id="edge5" class="edge">
<title>Node4&#45;&gt;Node2</title>
<path fill="none" stroke="midnightblue" d="M91.24,-168.32C83.04,-160.42 70.73,-148.55 60.77,-138.94"/>
<polygon fill="midnightblue" stroke="midnightblue" points="63.03,-136.26 53.4,-131.83 58.17,-141.29 63.03,-136.26"/>
</g>
<!-- Node4&#45;&gt;Node3 -->
<g id="edge4" class="edge">
<title>Node4&#45;&gt;Node3</title>
<path fill="none" stroke="midnightblue" d="M100.4,-168.08C100.87,-141.95 102.26,-65.21 102.9,-29.58"/>
<polygon fill="midnightblue" stroke="midnightblue" points="106.4,-29.63 103.08,-19.57 99.4,-29.5 106.4,-29.63"/>
</g>
<!-- Node5 -->
<g id="node5" class="node">
<title>Node5</title>
<g id="a_node5"><a xlink:href="sched_8h.html" target="_top" xlink:title="Scheduler API definition.">
<polygon fill="none" stroke="black" points="299.24,-112.5 299.24,-131.5 353.24,-131.5 353.24,-112.5 299.24,-112.5"/>
<text text-anchor="middle" x="326.24" y="-119.5" font-family="Helvetica,sans-Serif" font-size="10.00">sched.h</text>
</a>
</g>
</g>
<!-- Node4&#45;&gt;Node5 -->
<g id="edge6" class="edge">
<title>Node4&#45;&gt;Node5</title>
<path fill="none" stroke="midnightblue" d="M124,-171.32C163.38,-161.91 242.47,-143.02 289.22,-131.85"/>
<polygon fill="midnightblue" stroke="midnightblue" points="290.05,-135.25 298.96,-129.52 288.42,-128.44 290.05,-135.25"/>
</g>
<!-- Node6 -->
<g id="node6" class="node">
<title>Node6</title>
<g id="a_node6"><a xlink:title=" ">
<polygon fill="none" stroke="#bfbfbf" points="298.24,-0.5 298.24,-19.5 354.24,-19.5 354.24,-0.5 298.24,-0.5"/>
<text text-anchor="middle" x="326.24" y="-7.5" font-family="Helvetica,sans-Serif" font-size="10.00">stddef.h</text>
</a>
</g>
</g>
<!-- Node5&#45;&gt;Node6 -->
<g id="edge7" class="edge">
<title>Node5&#45;&gt;Node6</title>
<path fill="none" stroke="midnightblue" d="M308.27,-112.34C287.26,-100.92 256.73,-79.5 268.24,-56 274.76,-42.68 287.33,-32.18 299.11,-24.68"/>
<polygon fill="midnightblue" stroke="midnightblue" points="301.01,-27.62 307.85,-19.53 297.46,-21.59 301.01,-27.62"/>
</g>
<!-- Node7 -->
<g id="node7" class="node">
<title>Node7</title>
<g id="a_node7"><a xlink:href="inttypes_8h.html" target="_top" xlink:title="Adds include for missing inttype definitions.">
<polygon fill="none" stroke="black" points="457.74,-56.5 457.74,-75.5 522.74,-75.5 522.74,-56.5 457.74,-56.5"/>
<text text-anchor="middle" x="490.24" y="-63.5" font-family="Helvetica,sans-Serif" font-size="10.00">inttypes.h</text>
</a>
</g>
</g>
<!-- Node5&#45;&gt;Node7 -->
<g id="edge8" class="edge">
<title>Node5&#45;&gt;Node7</title>
<path fill="none" stroke="midnightblue" d="M352.22,-112.44C379.93,-103.32 423.99,-88.81 454.85,-78.65"/>
<polygon fill="midnightblue" stroke="midnightblue" points="455.97,-81.97 464.37,-75.52 453.78,-75.32 455.97,-81.97"/>
</g>
<!-- Node8 -->
<g id="node8" class="node">
<title>Node8</title>
<g id="a_node8"><a xlink:href="kernel__defines_8h.html" target="_top" xlink:title="Common macros and compiler attributes/pragmas configuration.">
<polygon fill="none" stroke="black" points="277.74,-56.5 277.74,-75.5 374.74,-75.5 374.74,-56.5 277.74,-56.5"/>
<text text-anchor="middle" x="326.24" y="-63.5" font-family="Helvetica,sans-Serif" font-size="10.00">kernel_defines.h</text>
</a>
</g>
</g>
<!-- Node5&#45;&gt;Node8 -->
<g id="edge9" class="edge">
<title>Node5&#45;&gt;Node8</title>
<path fill="none" stroke="midnightblue" d="M326.24,-112.08C326.24,-105.01 326.24,-94.86 326.24,-85.99"/>
<polygon fill="midnightblue" stroke="midnightblue" points="329.74,-85.75 326.24,-75.75 322.74,-85.75 329.74,-85.75"/>
</g>
<!-- Node9 -->
<g id="node9" class="node">
<title>Node9</title>
<g id="a_node9"><a xlink:href="native__sched_8h.html" target="_top" xlink:title="Add definitions required on the native board.">
<polygon fill="none" stroke="black" points="131.24,-56.5 131.24,-75.5 221.24,-75.5 221.24,-56.5 131.24,-56.5"/>
<text text-anchor="middle" x="176.24" y="-63.5" font-family="Helvetica,sans-Serif" font-size="10.00">native_sched.h</text>
</a>
</g>
</g>
<!-- Node5&#45;&gt;Node9 -->
<g id="edge12" class="edge">
<title>Node5&#45;&gt;Node9</title>
<path fill="none" stroke="midnightblue" d="M302.47,-112.44C277.35,-103.4 237.53,-89.06 209.34,-78.92"/>
<polygon fill="midnightblue" stroke="midnightblue" points="210.49,-75.61 199.9,-75.52 208.12,-82.2 210.49,-75.61"/>
</g>
<!-- Node10 -->
<g id="node10" class="node">
<title>Node10</title>
<g id="a_node10"><a xlink:href="clist_8h.html" target="_top" xlink:title="Circular linked list.">
<polygon fill="none" stroke="black" points="393.24,-56.5 393.24,-75.5 439.24,-75.5 439.24,-56.5 393.24,-56.5"/>
<text text-anchor="middle" x="416.24" y="-63.5" font-family="Helvetica,sans-Serif" font-size="10.00">clist.h</text>
</a>
</g>
</g>
<!-- Node5&#45;&gt;Node10 -->
<g id="edge13" class="edge">
<title>Node5&#45;&gt;Node10</title>
<path fill="none" stroke="midnightblue" d="M340.7,-112.32C354.74,-103.9 376.29,-90.97 392.78,-81.07"/>
<polygon fill="midnightblue" stroke="midnightblue" points="395.04,-83.8 401.81,-75.65 391.44,-77.8 395.04,-83.8"/>
</g>
<!-- Node8&#45;&gt;Node3 -->
<g id="edge11" class="edge">
<title>Node8&#45;&gt;Node3</title>
<path fill="none" stroke="midnightblue" d="M290.9,-56.44C249.61,-46.44 181.6,-29.98 139.79,-19.85"/>
<polygon fill="midnightblue" stroke="midnightblue" points="140.55,-16.43 130.01,-17.48 138.9,-23.24 140.55,-16.43"/>
</g>
<!-- Node8&#45;&gt;Node6 -->
<g id="edge10" class="edge">
<title>Node8&#45;&gt;Node6</title>
<path fill="none" stroke="midnightblue" d="M326.24,-56.08C326.24,-49.01 326.24,-38.86 326.24,-29.99"/>
<polygon fill="midnightblue" stroke="midnightblue" points="329.74,-29.75 326.24,-19.75 322.74,-29.75 329.74,-29.75"/>
</g>
<!-- Node10&#45;&gt;Node6 -->
<g id="edge14" class="edge">
<title>Node10&#45;&gt;Node6</title>
<path fill="none" stroke="midnightblue" d="M401.78,-56.32C387.74,-47.9 366.19,-34.97 349.7,-25.07"/>
<polygon fill="midnightblue" stroke="midnightblue" points="351.04,-21.8 340.66,-19.65 347.44,-27.8 351.04,-21.8"/>
</g>
<!-- Node11 -->
<g id="node11" class="node">
<title>Node11</title>
<g id="a_node11"><a xlink:href="list_8h.html" target="_top" xlink:title="Intrusive linked list.">
<polygon fill="none" stroke="black" points="569.74,-0.5 569.74,-19.5 610.74,-19.5 610.74,-0.5 569.74,-0.5"/>
<text text-anchor="middle" x="590.24" y="-7.5" font-family="Helvetica,sans-Serif" font-size="10.00">list.h</text>
</a>
</g>
</g>
<!-- Node10&#45;&gt;Node11 -->
<g id="edge15" class="edge">
<title>Node10&#45;&gt;Node11</title>
<path fill="none" stroke="midnightblue" d="M439.34,-57.83C470.26,-48.24 525.16,-31.2 559.53,-20.53"/>
<polygon fill="midnightblue" stroke="midnightblue" points="560.97,-23.75 569.48,-17.44 558.9,-17.06 560.97,-23.75"/>
</g>
<!-- Node12&#45;&gt;Node5 -->
<g id="edge19" class="edge">
<title>Node12&#45;&gt;Node5</title>
<path fill="none" stroke="midnightblue" d="M497.91,-168.44C461.3,-158.75 401.75,-142.99 363.29,-132.81"/>
<polygon fill="midnightblue" stroke="midnightblue" points="364.08,-129.4 353.52,-130.22 362.29,-136.16 364.08,-129.4"/>
</g>
<!-- Node12&#45;&gt;Node7 -->
<g id="edge17" class="edge">
<title>Node12&#45;&gt;Node7</title>
<path fill="none" stroke="midnightblue" d="M525.65,-168.21C521.09,-159.26 514.1,-144.91 509.24,-132 503.41,-116.53 498.25,-98.44 494.78,-85.28"/>
<polygon fill="midnightblue" stroke="midnightblue" points="498.16,-84.37 492.29,-75.55 491.38,-86.1 498.16,-84.37"/>
</g>
<!-- Node12&#45;&gt;Node11 -->
<g id="edge25" class="edge">
<title>Node12&#45;&gt;Node11</title>
<path fill="none" stroke="midnightblue" d="M572.62,-171.06C624.1,-161.3 708.7,-136.5 746.24,-76 775.76,-28.42 674.56,-15.66 621.14,-12.24"/>
<polygon fill="midnightblue" stroke="midnightblue" points="621.02,-8.73 610.84,-11.66 620.63,-15.72 621.02,-8.73"/>
</g>
<!-- Node13 -->
<g id="node13" class="node">
<title>Node13</title>
<g id="a_node13"><a xlink:title=" ">
<polygon fill="none" stroke="#bfbfbf" points="793.74,-112.5 793.74,-131.5 846.74,-131.5 846.74,-112.5 793.74,-112.5"/>
<text text-anchor="middle" x="820.24" y="-119.5" font-family="Helvetica,sans-Serif" font-size="10.00">stdlib.h</text>
</a>
</g>
</g>
<!-- Node12&#45;&gt;Node13 -->
<g id="edge18" class="edge">
<title>Node12&#45;&gt;Node13</title>
<path fill="none" stroke="midnightblue" d="M572.63,-169.84C622.25,-161.33 706.87,-146.48 779.24,-132 780.52,-131.74 781.83,-131.48 783.15,-131.21"/>
<polygon fill="midnightblue" stroke="midnightblue" points="784.3,-134.54 793.36,-129.05 782.86,-127.69 784.3,-134.54"/>
</g>
<!-- Node14 -->
<g id="node14" class="node">
<title>Node14</title>
<g id="a_node14"><a xlink:href="nettype_8h.html" target="_top" xlink:title="Protocol type definitions.">
<polygon fill="none" stroke="black" points="518.24,-112.5 518.24,-131.5 624.24,-131.5 624.24,-112.5 518.24,-112.5"/>
<text text-anchor="middle" x="571.24" y="-119.5" font-family="Helvetica,sans-Serif" font-size="10.00">net/gnrc/nettype.h</text>
</a>
</g>
</g>
<!-- Node12&#45;&gt;Node14 -->
<g id="edge20" class="edge">
<title>Node12&#45;&gt;Node14</title>
<path fill="none" stroke="midnightblue" d="M537.01,-168.08C542.8,-160.46 551.3,-149.26 558.38,-139.94"/>
<polygon fill="midnightblue" stroke="midnightblue" points="561.33,-141.83 564.59,-131.75 555.76,-137.6 561.33,-141.83"/>
</g>
<!-- Node14&#45;&gt;Node7 -->
<g id="edge21" class="edge">
<title>Node14&#45;&gt;Node7</title>
<path fill="none" stroke="midnightblue" d="M558.22,-112.32C545.71,-103.98 526.56,-91.21 511.77,-81.35"/>
<polygon fill="midnightblue" stroke="midnightblue" points="513.48,-78.29 503.22,-75.65 509.6,-84.11 513.48,-78.29"/>
</g>
<!-- Node14&#45;&gt;Node8 -->
<g id="edge22" class="edge">
<title>Node14&#45;&gt;Node8</title>
<path fill="none" stroke="midnightblue" d="M532.42,-112.44C489.68,-103.02 420.91,-87.87 374.67,-77.68"/>
<polygon fill="midnightblue" stroke="midnightblue" points="375.4,-74.25 364.88,-75.52 373.89,-81.09 375.4,-74.25"/>
</g>
<!-- Node15 -->
<g id="node15" class="node">
<title>Node15</title>
<g id="a_node15"><a xlink:href="ethertype_8h.html" target="_top" xlink:title="Ether type definitions.">
<polygon fill="none" stroke="black" points="541.24,-56.5 541.24,-75.5 633.24,-75.5 633.24,-56.5 541.24,-56.5"/>
<text text-anchor="middle" x="587.24" y="-63.5" font-family="Helvetica,sans-Serif" font-size="10.00">net/ethertype.h</text>
</a>
</g>
</g>
<!-- Node14&#45;&gt;Node15 -->
<g id="edge23" class="edge">
<title>Node14&#45;&gt;Node15</title>
<path fill="none" stroke="midnightblue" d="M573.88,-112.08C576.02,-104.85 579.12,-94.41 581.79,-85.4"/>
<polygon fill="midnightblue" stroke="midnightblue" points="585.16,-86.33 584.65,-75.75 578.45,-84.34 585.16,-86.33"/>
</g>
<!-- Node16 -->
<g id="node16" class="node">
<title>Node16</title>
<g id="a_node16"><a xlink:href="protnum_8h.html" target="_top" xlink:title="Protocol number definitions.">
<polygon fill="none" stroke="black" points="651.24,-56.5 651.24,-75.5 737.24,-75.5 737.24,-56.5 651.24,-56.5"/>
<text text-anchor="middle" x="694.24" y="-63.5" font-family="Helvetica,sans-Serif" font-size="10.00">net/protnum.h</text>
</a>
</g>
</g>
<!-- Node14&#45;&gt;Node16 -->
<g id="edge24" class="edge">
<title>Node14&#45;&gt;Node16</title>
<path fill="none" stroke="midnightblue" d="M590.73,-112.44C610.88,-103.6 642.56,-89.69 665.57,-79.59"/>
<polygon fill="midnightblue" stroke="midnightblue" points="667.09,-82.74 674.84,-75.52 664.28,-76.33 667.09,-82.74"/>
</g>
</g>
</svg>
