<?xml version="1.0" encoding="UTF-8" standalone="no"?>
<!DOCTYPE svg PUBLIC "-//W3C//DTD SVG 1.1//EN"
 "http://www.w3.org/Graphics/SVG/1.1/DTD/svg11.dtd">
<!-- Generated by graphviz version 2.40.1 (20161225.0304)
 -->
<!-- Title: cpu/fe310/include/irq_arch.h Pages: 1 -->
<svg width="448pt" height="151pt"
 viewBox="0.00 0.00 447.50 151.00" xmlns="http://www.w3.org/2000/svg" xmlns:xlink="http://www.w3.org/1999/xlink">
<g id="graph0" class="graph" transform="scale(1 1) rotate(0) translate(4 147)">
<title>cpu/fe310/include/irq_arch.h</title>
<!-- Node0 -->
<g id="node1" class="node">
<title>Node0</title>
<polygon fill="#bfbfbf" stroke="#000000" points="121.5,-112.5 121.5,-142.5 228.5,-142.5 228.5,-112.5 121.5,-112.5"/>
<text text-anchor="start" x="129.5" y="-130.5" font-family="Helvetica,sans-Serif" font-size="10.00" fill="#000000">cpu/fe310/include/irq</text>
<text text-anchor="middle" x="175" y="-119.5" font-family="Helvetica,sans-Serif" font-size="10.00" fill="#000000">_arch.h</text>
</g>
<!-- Node1 -->
<g id="node2" class="node">
<title>Node1</title>
<polygon fill="none" stroke="#bfbfbf" points="22.5,-56.5 22.5,-75.5 71.5,-75.5 71.5,-56.5 22.5,-56.5"/>
<text text-anchor="middle" x="47" y="-63.5" font-family="Helvetica,sans-Serif" font-size="10.00" fill="#000000">stdint.h</text>
</g>
<!-- Node0&#45;&gt;Node1 -->
<g id="edge1" class="edge">
<title>Node0&#45;&gt;Node1</title>
<path fill="none" stroke="#191970" d="M143.6877,-112.4554C122.9862,-102.509 96.0477,-89.5659 75.8647,-79.8686"/>
<polygon fill="#191970" stroke="#191970" points="77.3648,-76.7064 66.8355,-75.5303 74.3333,-83.0159 77.3648,-76.7064"/>
</g>
<!-- Node2 -->
<g id="node3" class="node">
<title>Node2</title>
<g id="a_node3"><a xlink:href="irq_8h.html" target="_top" xlink:title="IRQ driver interface. ">
<polygon fill="none" stroke="#000000" points="89.5,-56.5 89.5,-75.5 124.5,-75.5 124.5,-56.5 89.5,-56.5"/>
<text text-anchor="middle" x="107" y="-63.5" font-family="Helvetica,sans-Serif" font-size="10.00" fill="#000000">irq.h</text>
</a>
</g>
</g>
<!-- Node0&#45;&gt;Node2 -->
<g id="edge2" class="edge">
<title>Node0&#45;&gt;Node2</title>
<path fill="none" stroke="#191970" d="M158.191,-112.2977C148.2603,-103.3163 135.6743,-91.9334 125.4673,-82.702"/>
<polygon fill="#191970" stroke="#191970" points="127.652,-79.9588 117.8877,-75.8469 122.9566,-85.1505 127.652,-79.9588"/>
</g>
<!-- Node5 -->
<g id="node6" class="node">
<title>Node5</title>
<g id="a_node6"><a xlink:href="fe310_2include_2cpu__conf_8h.html" target="_top" xlink:title="CPU specific configuration options. ">
<polygon fill="none" stroke="#000000" points="142.5,-56.5 142.5,-75.5 207.5,-75.5 207.5,-56.5 142.5,-56.5"/>
<text text-anchor="middle" x="175" y="-63.5" font-family="Helvetica,sans-Serif" font-size="10.00" fill="#000000">cpu_conf.h</text>
</a>
</g>
</g>
<!-- Node0&#45;&gt;Node5 -->
<g id="edge5" class="edge">
<title>Node0&#45;&gt;Node5</title>
<path fill="none" stroke="#191970" d="M175,-112.2977C175,-104.3834 175,-94.6043 175,-86.0759"/>
<polygon fill="#191970" stroke="#191970" points="178.5001,-85.8469 175,-75.8469 171.5001,-85.847 178.5001,-85.8469"/>
</g>
<!-- Node6 -->
<g id="node7" class="node">
<title>Node6</title>
<g id="a_node7"><a xlink:href="fe310_2include_2cpu_8h.html" target="_top" xlink:title="Basic definitions for the RISC&#45;V common module. ">
<polygon fill="none" stroke="#000000" points="225.5,-56.5 225.5,-75.5 266.5,-75.5 266.5,-56.5 225.5,-56.5"/>
<text text-anchor="middle" x="246" y="-63.5" font-family="Helvetica,sans-Serif" font-size="10.00" fill="#000000">cpu.h</text>
</a>
</g>
</g>
<!-- Node0&#45;&gt;Node6 -->
<g id="edge6" class="edge">
<title>Node0&#45;&gt;Node6</title>
<path fill="none" stroke="#191970" d="M192.5506,-112.2977C203.0221,-103.2274 216.3211,-91.7077 227.0338,-82.4285"/>
<polygon fill="#191970" stroke="#191970" points="229.3649,-85.0398 234.632,-75.8469 224.7818,-79.7487 229.3649,-85.0398"/>
</g>
<!-- Node10 -->
<g id="node11" class="node">
<title>Node10</title>
<polygon fill="none" stroke="#bfbfbf" points="285,-56.5 285,-75.5 381,-75.5 381,-56.5 285,-56.5"/>
<text text-anchor="middle" x="333" y="-63.5" font-family="Helvetica,sans-Serif" font-size="10.00" fill="#000000">vendor/encoding.h</text>
</g>
<!-- Node0&#45;&gt;Node10 -->
<g id="edge10" class="edge">
<title>Node0&#45;&gt;Node10</title>
<path fill="none" stroke="#191970" d="M213.6511,-112.4554C239.7826,-102.284 273.9653,-88.9787 299.0481,-79.2155"/>
<polygon fill="#191970" stroke="#191970" points="300.4662,-82.4193 308.5156,-75.5303 297.9271,-75.8961 300.4662,-82.4193"/>
</g>
<!-- Node3 -->
<g id="node4" class="node">
<title>Node3</title>
<polygon fill="none" stroke="#bfbfbf" points="0,-.5 0,-19.5 56,-19.5 56,-.5 0,-.5"/>
<text text-anchor="middle" x="28" y="-7.5" font-family="Helvetica,sans-Serif" font-size="10.00" fill="#000000">stdbool.h</text>
</g>
<!-- Node2&#45;&gt;Node3 -->
<g id="edge3" class="edge">
<title>Node2&#45;&gt;Node3</title>
<path fill="none" stroke="#191970" d="M93.2393,-56.2455C81.3448,-47.814 63.935,-35.4729 50.0915,-25.6598"/>
<polygon fill="#191970" stroke="#191970" points="51.7854,-22.5704 41.6031,-19.6427 47.7372,-28.2811 51.7854,-22.5704"/>
</g>
<!-- Node4 -->
<g id="node5" class="node">
<title>Node4</title>
<polygon fill="none" stroke="#bfbfbf" points="74.5,-.5 74.5,-19.5 139.5,-19.5 139.5,-.5 74.5,-.5"/>
<text text-anchor="middle" x="107" y="-7.5" font-family="Helvetica,sans-Serif" font-size="10.00" fill="#000000">cpu_conf.h</text>
</g>
<!-- Node2&#45;&gt;Node4 -->
<g id="edge4" class="edge">
<title>Node2&#45;&gt;Node4</title>
<path fill="none" stroke="#191970" d="M107,-56.2455C107,-48.9382 107,-38.6944 107,-29.7046"/>
<polygon fill="#191970" stroke="#191970" points="110.5001,-29.6426 107,-19.6427 103.5001,-29.6427 110.5001,-29.6426"/>
</g>
<!-- Node7 -->
<g id="node8" class="node">
<title>Node7</title>
<polygon fill="none" stroke="#bfbfbf" points="158,-.5 158,-19.5 210,-19.5 210,-.5 158,-.5"/>
<text text-anchor="middle" x="184" y="-7.5" font-family="Helvetica,sans-Serif" font-size="10.00" fill="#000000">thread.h</text>
</g>
<!-- Node6&#45;&gt;Node7 -->
<g id="edge7" class="edge">
<title>Node6&#45;&gt;Node7</title>
<path fill="none" stroke="#191970" d="M235.2004,-56.2455C226.1322,-48.0549 212.9794,-36.1749 202.2755,-26.5069"/>
<polygon fill="#191970" stroke="#191970" points="204.4429,-23.7482 194.6758,-19.6427 199.7509,-28.9429 204.4429,-23.7482"/>
</g>
<!-- Node8 -->
<g id="node9" class="node">
<title>Node8</title>
<polygon fill="none" stroke="#bfbfbf" points="228,-.5 228,-19.5 320,-19.5 320,-.5 228,-.5"/>
<text text-anchor="middle" x="274" y="-7.5" font-family="Helvetica,sans-Serif" font-size="10.00" fill="#000000">vendor/platform.h</text>
</g>
<!-- Node6&#45;&gt;Node8 -->
<g id="edge8" class="edge">
<title>Node6&#45;&gt;Node8</title>
<path fill="none" stroke="#191970" d="M250.8772,-56.2455C254.6513,-48.6973 259.9921,-38.0158 264.5901,-28.8197"/>
<polygon fill="#191970" stroke="#191970" points="267.837,-30.1522 269.1787,-19.6427 261.576,-27.0217 267.837,-30.1522"/>
</g>
<!-- Node9 -->
<g id="node10" class="node">
<title>Node9</title>
<polygon fill="none" stroke="#bfbfbf" points="338.5,-.5 338.5,-19.5 439.5,-19.5 439.5,-.5 338.5,-.5"/>
<text text-anchor="middle" x="389" y="-7.5" font-family="Helvetica,sans-Serif" font-size="10.00" fill="#000000">vendor/plic_driver.h</text>
</g>
<!-- Node6&#45;&gt;Node9 -->
<g id="edge9" class="edge">
<title>Node6&#45;&gt;Node9</title>
<path fill="none" stroke="#191970" d="M266.7934,-57.8571C289.836,-48.8334 327.3547,-34.1408 354.7503,-23.4125"/>
<polygon fill="#191970" stroke="#191970" points="356.3047,-26.5626 364.3399,-19.6571 353.7521,-20.0446 356.3047,-26.5626"/>
</g>
</g>
</svg>
