<?xml version="1.0" encoding="UTF-8" standalone="no"?>
<!DOCTYPE svg PUBLIC "-//W3C//DTD SVG 1.1//EN"
 "http://www.w3.org/Graphics/SVG/1.1/DTD/svg11.dtd">
<!-- Generated by graphviz version 2.40.1 (20161225.0304)
 -->
<!-- Title: boards/feather&#45;nrf52840/include/board.h Pages: 1 -->
<svg width="343pt" height="151pt"
 viewBox="0.00 0.00 343.00 151.00" xmlns="http://www.w3.org/2000/svg" xmlns:xlink="http://www.w3.org/1999/xlink">
<g id="graph0" class="graph" transform="scale(1 1) rotate(0) translate(4 147)">
<title>boards/feather&#45;nrf52840/include/board.h</title>
<!-- Node0 -->
<g id="node1" class="node">
<title>Node0</title>
<polygon fill="#bfbfbf" stroke="#000000" points="46,-112.5 46,-142.5 165,-142.5 165,-112.5 46,-112.5"/>
<text text-anchor="start" x="54" y="-130.5" font-family="Helvetica,sans-Serif" font-size="10.00" fill="#000000">boards/feather&#45;nrf52840</text>
<text text-anchor="middle" x="105.5" y="-119.5" font-family="Helvetica,sans-Serif" font-size="10.00" fill="#000000">/include/board.h</text>
</g>
<!-- Node1 -->
<g id="node2" class="node">
<title>Node1</title>
<polygon fill="none" stroke="#bfbfbf" points="0,-56.5 0,-75.5 41,-75.5 41,-56.5 0,-56.5"/>
<text text-anchor="middle" x="20.5" y="-63.5" font-family="Helvetica,sans-Serif" font-size="10.00" fill="#000000">cpu.h</text>
</g>
<!-- Node0&#45;&gt;Node1 -->
<g id="edge1" class="edge">
<title>Node0&#45;&gt;Node1</title>
<path fill="none" stroke="#191970" d="M84.4888,-112.2977C71.7066,-103.0495 55.4054,-91.2551 42.4552,-81.8853"/>
<polygon fill="#191970" stroke="#191970" points="44.263,-78.8732 34.1096,-75.8469 40.1597,-84.5445 44.263,-78.8732"/>
</g>
<!-- Node2 -->
<g id="node3" class="node">
<title>Node2</title>
<polygon fill="none" stroke="#bfbfbf" points="59.5,-56.5 59.5,-75.5 151.5,-75.5 151.5,-56.5 59.5,-56.5"/>
<text text-anchor="middle" x="105.5" y="-63.5" font-family="Helvetica,sans-Serif" font-size="10.00" fill="#000000">board_common.h</text>
</g>
<!-- Node0&#45;&gt;Node2 -->
<g id="edge2" class="edge">
<title>Node0&#45;&gt;Node2</title>
<path fill="none" stroke="#191970" d="M105.5,-112.2977C105.5,-104.3834 105.5,-94.6043 105.5,-86.0759"/>
<polygon fill="#191970" stroke="#191970" points="109.0001,-85.8469 105.5,-75.8469 102.0001,-85.847 109.0001,-85.8469"/>
</g>
<!-- Node3 -->
<g id="node4" class="node">
<title>Node3</title>
<g id="a_node4"><a xlink:href="gpio_8h.html" target="_top" xlink:title="Low&#45;level GPIO peripheral driver interface definitions. ">
<polygon fill="none" stroke="#000000" points="169.5,-56.5 169.5,-75.5 241.5,-75.5 241.5,-56.5 169.5,-56.5"/>
<text text-anchor="middle" x="205.5" y="-63.5" font-family="Helvetica,sans-Serif" font-size="10.00" fill="#000000">periph/gpio.h</text>
</a>
</g>
</g>
<!-- Node0&#45;&gt;Node3 -->
<g id="edge3" class="edge">
<title>Node0&#45;&gt;Node3</title>
<path fill="none" stroke="#191970" d="M129.9628,-112.4554C145.6235,-102.8241 165.8532,-90.3828 181.4356,-80.7996"/>
<polygon fill="#191970" stroke="#191970" points="183.319,-83.7503 190.0035,-75.5303 179.652,-77.7876 183.319,-83.7503"/>
</g>
<!-- Node4 -->
<g id="node5" class="node">
<title>Node4</title>
<polygon fill="none" stroke="#bfbfbf" points="103.5,-.5 103.5,-19.5 151.5,-19.5 151.5,-.5 103.5,-.5"/>
<text text-anchor="middle" x="127.5" y="-7.5" font-family="Helvetica,sans-Serif" font-size="10.00" fill="#000000">limits.h</text>
</g>
<!-- Node3&#45;&gt;Node4 -->
<g id="edge4" class="edge">
<title>Node3&#45;&gt;Node4</title>
<path fill="none" stroke="#191970" d="M191.9134,-56.2455C180.1695,-47.814 162.9801,-35.4729 149.3118,-25.6598"/>
<polygon fill="#191970" stroke="#191970" points="151.0954,-22.6316 140.9309,-19.6427 147.0129,-28.3179 151.0954,-22.6316"/>
</g>
<!-- Node5 -->
<g id="node6" class="node">
<title>Node5</title>
<polygon fill="none" stroke="#bfbfbf" points="169.5,-.5 169.5,-19.5 241.5,-19.5 241.5,-.5 169.5,-.5"/>
<text text-anchor="middle" x="205.5" y="-7.5" font-family="Helvetica,sans-Serif" font-size="10.00" fill="#000000">periph_cpu.h</text>
</g>
<!-- Node3&#45;&gt;Node5 -->
<g id="edge5" class="edge">
<title>Node3&#45;&gt;Node5</title>
<path fill="none" stroke="#191970" d="M205.5,-56.2455C205.5,-48.9382 205.5,-38.6944 205.5,-29.7046"/>
<polygon fill="#191970" stroke="#191970" points="209.0001,-29.6426 205.5,-19.6427 202.0001,-29.6427 209.0001,-29.6426"/>
</g>
<!-- Node6 -->
<g id="node7" class="node">
<title>Node6</title>
<polygon fill="none" stroke="#bfbfbf" points="260,-.5 260,-19.5 335,-19.5 335,-.5 260,-.5"/>
<text text-anchor="middle" x="297.5" y="-7.5" font-family="Helvetica,sans-Serif" font-size="10.00" fill="#000000">periph_conf.h</text>
</g>
<!-- Node3&#45;&gt;Node6 -->
<g id="edge6" class="edge">
<title>Node3&#45;&gt;Node6</title>
<path fill="none" stroke="#191970" d="M221.5252,-56.2455C235.6408,-47.6534 256.4263,-35.0014 272.6899,-25.1018"/>
<polygon fill="#191970" stroke="#191970" points="274.9363,-27.8319 281.6585,-19.6427 271.2966,-21.8525 274.9363,-27.8319"/>
</g>
</g>
</svg>
