<?xml version="1.0" encoding="UTF-8" standalone="no"?>
<!DOCTYPE svg PUBLIC "-//W3C//DTD SVG 1.1//EN"
 "http://www.w3.org/Graphics/SVG/1.1/DTD/svg11.dtd">
<!-- Generated by graphviz version 2.40.1 (20161225.0304)
 -->
<!-- Title: sys/include/net/fib.h Pages: 1 -->
<svg width="842pt" height="364pt"
 viewBox="0.00 0.00 841.50 364.00" xmlns="http://www.w3.org/2000/svg" xmlns:xlink="http://www.w3.org/1999/xlink">
<g id="graph0" class="graph" transform="scale(1 1) rotate(0) translate(4 360)">
<title>sys/include/net/fib.h</title>
<!-- Node0 -->
<g id="node1" class="node">
<title>Node0</title>
<polygon fill="#bfbfbf" stroke="#000000" points="166,-336.5 166,-355.5 270,-355.5 270,-336.5 166,-336.5"/>
<text text-anchor="middle" x="218" y="-343.5" font-family="Helvetica,sans-Serif" font-size="10.00" fill="#000000">sys/include/net/fib.h</text>
</g>
<!-- Node1 -->
<g id="node2" class="node">
<title>Node1</title>
<polygon fill="none" stroke="#bfbfbf" points="445.5,-.5 445.5,-19.5 494.5,-19.5 494.5,-.5 445.5,-.5"/>
<text text-anchor="middle" x="470" y="-7.5" font-family="Helvetica,sans-Serif" font-size="10.00" fill="#000000">stdint.h</text>
</g>
<!-- Node0&#45;&gt;Node1 -->
<g id="edge1" class="edge">
<title>Node0&#45;&gt;Node1</title>
<path fill="none" stroke="#191970" d="M165.7836,-341.7494C101.2902,-333.3152 0,-308.2497 0,-234 0,-234 0,-234 0,-122 0,-32.5004 326.5747,-14.3872 435.278,-10.8371"/>
<polygon fill="#191970" stroke="#191970" points="435.5038,-14.3319 445.3925,-10.5288 435.2905,-7.3352 435.5038,-14.3319"/>
</g>
<!-- Node2 -->
<g id="node3" class="node">
<title>Node2</title>
<g id="a_node3"><a xlink:href="table_8h.html" target="_top" xlink:title="Types and functions for operating fib tables. ">
<polygon fill="none" stroke="#000000" points="338,-280.5 338,-299.5 414,-299.5 414,-280.5 338,-280.5"/>
<text text-anchor="middle" x="376" y="-287.5" font-family="Helvetica,sans-Serif" font-size="10.00" fill="#000000">net/fib/table.h</text>
</a>
</g>
</g>
<!-- Node0&#45;&gt;Node2 -->
<g id="edge2" class="edge">
<title>Node0&#45;&gt;Node2</title>
<path fill="none" stroke="#191970" d="M245.1612,-336.3733C271.2067,-327.1419 310.7116,-313.1402 339.4979,-302.9375"/>
<polygon fill="#191970" stroke="#191970" points="340.937,-306.1408 349.1933,-299.5011 338.5985,-299.5429 340.937,-306.1408"/>
</g>
<!-- Node3 -->
<g id="node4" class="node">
<title>Node3</title>
<g id="a_node4"><a xlink:href="kernel__types_8h.html" target="_top" xlink:title="Types used by the kernel. ">
<polygon fill="none" stroke="#000000" points="178,-224.5 178,-243.5 258,-243.5 258,-224.5 178,-224.5"/>
<text text-anchor="middle" x="218" y="-231.5" font-family="Helvetica,sans-Serif" font-size="10.00" fill="#000000">kernel_types.h</text>
</a>
</g>
</g>
<!-- Node0&#45;&gt;Node3 -->
<g id="edge28" class="edge">
<title>Node0&#45;&gt;Node3</title>
<path fill="none" stroke="#191970" d="M218,-336.4509C218,-318.184 218,-277.9553 218,-253.6976"/>
<polygon fill="#191970" stroke="#191970" points="221.5001,-253.5249 218,-243.5249 214.5001,-253.5249 221.5001,-253.5249"/>
</g>
<!-- Node2&#45;&gt;Node1 -->
<g id="edge3" class="edge">
<title>Node2&#45;&gt;Node1</title>
<path fill="none" stroke="#191970" d="M392.8053,-280.3224C419.843,-263.351 470,-225.4704 470,-178 470,-178 470,-178 470,-122 470,-89.7116 470,-52.1872 470,-29.8048"/>
<polygon fill="#191970" stroke="#191970" points="473.5001,-29.5883 470,-19.5884 466.5001,-29.5884 473.5001,-29.5883"/>
</g>
<!-- Node2&#45;&gt;Node3 -->
<g id="edge4" class="edge">
<title>Node2&#45;&gt;Node3</title>
<path fill="none" stroke="#191970" d="M348.8388,-280.3733C322.7933,-271.1419 283.2884,-257.1402 254.5021,-246.9375"/>
<polygon fill="#191970" stroke="#191970" points="255.4015,-243.5429 244.8067,-243.5011 253.063,-250.1408 255.4015,-243.5429"/>
</g>
<!-- Node8 -->
<g id="node9" class="node">
<title>Node8</title>
<g id="a_node9"><a xlink:href="universal__address_8h.html" target="_top" xlink:title="Types and functions for operating universal addresses. ">
<polygon fill="none" stroke="#000000" points="504,-224.5 504,-243.5 608,-243.5 608,-224.5 504,-224.5"/>
<text text-anchor="middle" x="556" y="-231.5" font-family="Helvetica,sans-Serif" font-size="10.00" fill="#000000">universal_address.h</text>
</a>
</g>
</g>
<!-- Node2&#45;&gt;Node8 -->
<g id="edge10" class="edge">
<title>Node2&#45;&gt;Node8</title>
<path fill="none" stroke="#191970" d="M406.9431,-280.3733C437.0039,-271.021 482.8026,-256.7725 515.6978,-246.5385"/>
<polygon fill="#191970" stroke="#191970" points="516.9519,-249.8139 525.4607,-243.5011 514.8723,-243.1299 516.9519,-249.8139"/>
</g>
<!-- Node16 -->
<g id="node17" class="node">
<title>Node16</title>
<g id="a_node17"><a xlink:href="mutex_8h.html" target="_top" xlink:title="Mutex for thread synchronization. ">
<polygon fill="none" stroke="#000000" points="350,-224.5 350,-243.5 402,-243.5 402,-224.5 350,-224.5"/>
<text text-anchor="middle" x="376" y="-231.5" font-family="Helvetica,sans-Serif" font-size="10.00" fill="#000000">mutex.h</text>
</a>
</g>
</g>
<!-- Node2&#45;&gt;Node16 -->
<g id="edge24" class="edge">
<title>Node2&#45;&gt;Node16</title>
<path fill="none" stroke="#191970" d="M376,-280.2455C376,-272.9382 376,-262.6944 376,-253.7046"/>
<polygon fill="#191970" stroke="#191970" points="379.5001,-253.6426 376,-243.6427 372.5001,-253.6427 379.5001,-253.6426"/>
</g>
<!-- Node3&#45;&gt;Node1 -->
<g id="edge5" class="edge">
<title>Node3&#45;&gt;Node1</title>
<path fill="none" stroke="#191970" d="M191.0347,-224.3067C163.7758,-212.8995 127.6976,-192.3889 143,-168 208.6602,-63.3512 365.3751,-26.3366 435.293,-14.7289"/>
<polygon fill="#191970" stroke="#191970" points="436.0209,-18.1573 445.3504,-13.1364 434.9261,-11.2435 436.0209,-18.1573"/>
</g>
<!-- Node4 -->
<g id="node5" class="node">
<title>Node4</title>
<g id="a_node5"><a xlink:href="inttypes_8h.html" target="_top" xlink:title="Adds include for missing inttype definitions. ">
<polygon fill="none" stroke="#000000" points="152.5,-168.5 152.5,-187.5 211.5,-187.5 211.5,-168.5 152.5,-168.5"/>
<text text-anchor="middle" x="182" y="-175.5" font-family="Helvetica,sans-Serif" font-size="10.00" fill="#000000">inttypes.h</text>
</a>
</g>
</g>
<!-- Node3&#45;&gt;Node4 -->
<g id="edge6" class="edge">
<title>Node3&#45;&gt;Node4</title>
<path fill="none" stroke="#191970" d="M211.7293,-224.2455C206.7736,-216.5367 199.717,-205.5598 193.7224,-196.2348"/>
<polygon fill="#191970" stroke="#191970" points="196.5506,-194.1618 188.1989,-187.6427 190.6624,-197.9471 196.5506,-194.1618"/>
</g>
<!-- Node5 -->
<g id="node6" class="node">
<title>Node5</title>
<polygon fill="none" stroke="#bfbfbf" points="230,-168.5 230,-187.5 278,-187.5 278,-168.5 230,-168.5"/>
<text text-anchor="middle" x="254" y="-175.5" font-family="Helvetica,sans-Serif" font-size="10.00" fill="#000000">limits.h</text>
</g>
<!-- Node3&#45;&gt;Node5 -->
<g id="edge7" class="edge">
<title>Node3&#45;&gt;Node5</title>
<path fill="none" stroke="#191970" d="M224.2707,-224.2455C229.2264,-216.5367 236.283,-205.5598 242.2776,-196.2348"/>
<polygon fill="#191970" stroke="#191970" points="245.3376,-197.9471 247.8011,-187.6427 239.4494,-194.1618 245.3376,-197.9471"/>
</g>
<!-- Node6 -->
<g id="node7" class="node">
<title>Node6</title>
<polygon fill="none" stroke="#bfbfbf" points="296,-168.5 296,-187.5 348,-187.5 348,-168.5 296,-168.5"/>
<text text-anchor="middle" x="322" y="-175.5" font-family="Helvetica,sans-Serif" font-size="10.00" fill="#000000">stddef.h</text>
</g>
<!-- Node3&#45;&gt;Node6 -->
<g id="edge8" class="edge">
<title>Node3&#45;&gt;Node6</title>
<path fill="none" stroke="#191970" d="M236.1154,-224.2455C252.445,-215.4527 276.671,-202.4079 295.2339,-192.4125"/>
<polygon fill="#191970" stroke="#191970" points="296.9468,-195.4654 304.0922,-187.6427 293.6281,-189.3021 296.9468,-195.4654"/>
</g>
<!-- Node7 -->
<g id="node8" class="node">
<title>Node7</title>
<polygon fill="none" stroke="#bfbfbf" points="28,-168.5 28,-187.5 96,-187.5 96,-168.5 28,-168.5"/>
<text text-anchor="middle" x="62" y="-175.5" font-family="Helvetica,sans-Serif" font-size="10.00" fill="#000000">sys/types.h</text>
</g>
<!-- Node3&#45;&gt;Node7 -->
<g id="edge9" class="edge">
<title>Node3&#45;&gt;Node7</title>
<path fill="none" stroke="#191970" d="M191.1826,-224.3733C165.4668,-215.1419 126.462,-201.1402 98.0401,-190.9375"/>
<polygon fill="#191970" stroke="#191970" points="99.0619,-187.5857 88.4674,-187.5011 96.6968,-194.174 99.0619,-187.5857"/>
</g>
<!-- Node8&#45;&gt;Node1 -->
<g id="edge11" class="edge">
<title>Node8&#45;&gt;Node1</title>
<path fill="none" stroke="#191970" d="M549.8675,-224.4086C544.2114,-215.291 535.8325,-201.0682 530,-188 516.912,-158.6754 488.4512,-69.1231 476.0165,-29.366"/>
<polygon fill="#191970" stroke="#191970" points="479.3428,-28.276 473.0246,-19.7712 472.6602,-30.3598 479.3428,-28.276"/>
</g>
<!-- Node9 -->
<g id="node10" class="node">
<title>Node9</title>
<g id="a_node10"><a xlink:href="stdlib_8h.html" target="_top" xlink:title="stdlib.h wrapper for MSP430 ">
<polygon fill="none" stroke="#000000" points="539,-168.5 539,-187.5 587,-187.5 587,-168.5 539,-168.5"/>
<text text-anchor="middle" x="563" y="-175.5" font-family="Helvetica,sans-Serif" font-size="10.00" fill="#000000">stdlib.h</text>
</a>
</g>
</g>
<!-- Node8&#45;&gt;Node9 -->
<g id="edge12" class="edge">
<title>Node8&#45;&gt;Node9</title>
<path fill="none" stroke="#191970" d="M557.2193,-224.2455C558.1327,-216.9382 559.4132,-206.6944 560.5369,-197.7046"/>
<polygon fill="#191970" stroke="#191970" points="564.0272,-197.9996 561.7947,-187.6427 557.0813,-197.1313 564.0272,-197.9996"/>
</g>
<!-- Node11 -->
<g id="node12" class="node">
<title>Node11</title>
<g id="a_node12"><a xlink:href="ipv6_2addr_8h.html" target="_top" xlink:title="Definitions for IPv6 addresses. ">
<polygon fill="none" stroke="#000000" points="646.5,-168.5 646.5,-187.5 727.5,-187.5 727.5,-168.5 646.5,-168.5"/>
<text text-anchor="middle" x="687" y="-175.5" font-family="Helvetica,sans-Serif" font-size="10.00" fill="#000000">net/ipv6/addr.h</text>
</a>
</g>
</g>
<!-- Node8&#45;&gt;Node11 -->
<g id="edge15" class="edge">
<title>Node8&#45;&gt;Node11</title>
<path fill="none" stroke="#191970" d="M578.5197,-224.3733C599.7372,-215.3032 631.7276,-201.6279 655.4769,-191.4755"/>
<polygon fill="#191970" stroke="#191970" points="656.9548,-194.6502 664.7742,-187.5011 654.2033,-188.2136 656.9548,-194.6502"/>
</g>
<!-- Node10 -->
<g id="node11" class="node">
<title>Node10</title>
<g id="a_node11"><a xlink:href="malloc_8h.html" target="_top" xlink:title="malloc.h">
<polygon fill="none" stroke="#000000" points="536.5,-112.5 536.5,-131.5 589.5,-131.5 589.5,-112.5 536.5,-112.5"/>
<text text-anchor="middle" x="563" y="-119.5" font-family="Helvetica,sans-Serif" font-size="10.00" fill="#000000">malloc.h</text>
</a>
</g>
</g>
<!-- Node9&#45;&gt;Node10 -->
<g id="edge13" class="edge">
<title>Node9&#45;&gt;Node10</title>
<path fill="none" stroke="#191970" d="M557.7332,-168.2455C556.3221,-160.9382 555.9179,-150.6944 556.5205,-141.7046"/>
<polygon fill="#191970" stroke="#191970" points="560.0111,-141.9945 557.7549,-131.6427 553.0632,-141.1421 560.0111,-141.9945"/>
</g>
<!-- Node10&#45;&gt;Node9 -->
<g id="edge14" class="edge">
<title>Node10&#45;&gt;Node9</title>
<path fill="none" stroke="#191970" d="M568.2451,-131.6427C569.6665,-138.9199 570.081,-149.155 569.4887,-158.1575"/>
<polygon fill="#191970" stroke="#191970" points="565.9947,-157.8972 568.2668,-168.2455 572.9439,-158.739 565.9947,-157.8972"/>
</g>
<!-- Node12 -->
<g id="node13" class="node">
<title>Node12</title>
<polygon fill="none" stroke="#bfbfbf" points="719,-56.5 719,-75.5 775,-75.5 775,-56.5 719,-56.5"/>
<text text-anchor="middle" x="747" y="-63.5" font-family="Helvetica,sans-Serif" font-size="10.00" fill="#000000">stdbool.h</text>
</g>
<!-- Node11&#45;&gt;Node12 -->
<g id="edge16" class="edge">
<title>Node11&#45;&gt;Node12</title>
<path fill="none" stroke="#191970" d="M702.2831,-168.2417C713.7891,-160.0288 728.9149,-147.2053 737,-132 744.5663,-117.7704 746.8631,-99.5249 747.3828,-85.8254"/>
<polygon fill="#191970" stroke="#191970" points="750.8849,-85.607 747.4779,-75.5749 743.8852,-85.542 750.8849,-85.607"/>
</g>
<!-- Node13 -->
<g id="node14" class="node">
<title>Node13</title>
<polygon fill="none" stroke="#bfbfbf" points="784.5,-112.5 784.5,-131.5 833.5,-131.5 833.5,-112.5 784.5,-112.5"/>
<text text-anchor="middle" x="809" y="-119.5" font-family="Helvetica,sans-Serif" font-size="10.00" fill="#000000">string.h</text>
</g>
<!-- Node11&#45;&gt;Node13 -->
<g id="edge17" class="edge">
<title>Node11&#45;&gt;Node13</title>
<path fill="none" stroke="#191970" d="M707.9725,-168.3733C727.5567,-159.3838 756.9961,-145.8706 779.051,-135.7471"/>
<polygon fill="#191970" stroke="#191970" points="780.6729,-138.8538 788.3011,-131.5011 777.7527,-132.4919 780.6729,-138.8538"/>
</g>
<!-- Node14 -->
<g id="node15" class="node">
<title>Node14</title>
<g id="a_node15"><a xlink:href="byteorder_8h.html" target="_top" xlink:title="Functions to work with different byte orders. ">
<polygon fill="none" stroke="#000000" points="585.5,-56.5 585.5,-75.5 650.5,-75.5 650.5,-56.5 585.5,-56.5"/>
<text text-anchor="middle" x="618" y="-63.5" font-family="Helvetica,sans-Serif" font-size="10.00" fill="#000000">byteorder.h</text>
</a>
</g>
</g>
<!-- Node11&#45;&gt;Node14 -->
<g id="edge18" class="edge">
<title>Node11&#45;&gt;Node14</title>
<path fill="none" stroke="#191970" d="M673.0588,-168.1803C662.0625,-159.7535 647.1085,-146.6714 638,-132 629.1302,-117.7132 623.9729,-99.2364 621.1243,-85.4677"/>
<polygon fill="#191970" stroke="#191970" points="624.5614,-84.8056 619.308,-75.6049 617.6771,-86.0735 624.5614,-84.8056"/>
</g>
<!-- Node15 -->
<g id="node16" class="node">
<title>Node15</title>
<g id="a_node16"><a xlink:href="ipv4_2addr_8h.html" target="_top" xlink:title="IPv6 address type and helper functions definitions. ">
<polygon fill="none" stroke="#000000" points="646.5,-112.5 646.5,-131.5 727.5,-131.5 727.5,-112.5 646.5,-112.5"/>
<text text-anchor="middle" x="687" y="-119.5" font-family="Helvetica,sans-Serif" font-size="10.00" fill="#000000">net/ipv4/addr.h</text>
</a>
</g>
</g>
<!-- Node11&#45;&gt;Node15 -->
<g id="edge20" class="edge">
<title>Node11&#45;&gt;Node15</title>
<path fill="none" stroke="#191970" d="M687,-168.2455C687,-160.9382 687,-150.6944 687,-141.7046"/>
<polygon fill="#191970" stroke="#191970" points="690.5001,-141.6426 687,-131.6427 683.5001,-141.6427 690.5001,-141.6426"/>
</g>
<!-- Node14&#45;&gt;Node1 -->
<g id="edge19" class="edge">
<title>Node14&#45;&gt;Node1</title>
<path fill="none" stroke="#191970" d="M592.5579,-56.3733C568.1201,-47.1265 531.0328,-33.0935 504.0571,-22.8865"/>
<polygon fill="#191970" stroke="#191970" points="505.2098,-19.5805 494.6183,-19.315 502.7325,-26.1275 505.2098,-19.5805"/>
</g>
<!-- Node15&#45;&gt;Node1 -->
<g id="edge22" class="edge">
<title>Node15&#45;&gt;Node1</title>
<path fill="none" stroke="#191970" d="M685.8194,-112.3255C683.5252,-97.8495 677.0871,-70.687 660,-56 636.9207,-36.1624 552.9314,-21.5438 504.6998,-14.5676"/>
<polygon fill="#191970" stroke="#191970" points="505.0895,-11.088 494.6985,-13.1564 504.1114,-18.0193 505.0895,-11.088"/>
</g>
<!-- Node15&#45;&gt;Node12 -->
<g id="edge21" class="edge">
<title>Node15&#45;&gt;Node12</title>
<path fill="none" stroke="#191970" d="M697.4512,-112.2455C706.2269,-104.0549 718.9554,-92.1749 729.314,-82.5069"/>
<polygon fill="#191970" stroke="#191970" points="731.7461,-85.0246 736.6686,-75.6427 726.9699,-79.9072 731.7461,-85.0246"/>
</g>
<!-- Node15&#45;&gt;Node14 -->
<g id="edge23" class="edge">
<title>Node15&#45;&gt;Node14</title>
<path fill="none" stroke="#191970" d="M674.9811,-112.2455C664.7902,-103.9746 649.9638,-91.9416 637.9893,-82.2232"/>
<polygon fill="#191970" stroke="#191970" points="639.8514,-79.2268 629.8812,-75.6427 635.4402,-84.662 639.8514,-79.2268"/>
</g>
<!-- Node16&#45;&gt;Node1 -->
<g id="edge26" class="edge">
<title>Node16&#45;&gt;Node1</title>
<path fill="none" stroke="#191970" d="M378.2309,-224.4426C381.3777,-211.4625 387.573,-187.6275 395,-168 414.6099,-116.1764 444.3722,-57.9517 459.8488,-28.7846"/>
<polygon fill="#191970" stroke="#191970" points="463.0574,-30.2065 464.6872,-19.7378 456.8847,-26.9052 463.0574,-30.2065"/>
</g>
<!-- Node16&#45;&gt;Node6 -->
<g id="edge25" class="edge">
<title>Node16&#45;&gt;Node6</title>
<path fill="none" stroke="#191970" d="M366.5939,-224.2455C358.8507,-216.2155 347.688,-204.6394 338.4682,-195.0781"/>
<polygon fill="#191970" stroke="#191970" points="340.7591,-192.4117 331.2983,-187.6427 335.7202,-197.2706 340.7591,-192.4117"/>
</g>
<!-- Node17 -->
<g id="node18" class="node">
<title>Node17</title>
<g id="a_node18"><a xlink:href="list_8h.html" target="_top" xlink:title="Intrusive linked list. ">
<polygon fill="none" stroke="#000000" points="404,-168.5 404,-187.5 442,-187.5 442,-168.5 404,-168.5"/>
<text text-anchor="middle" x="423" y="-175.5" font-family="Helvetica,sans-Serif" font-size="10.00" fill="#000000">list.h</text>
</a>
</g>
</g>
<!-- Node16&#45;&gt;Node17 -->
<g id="edge27" class="edge">
<title>Node16&#45;&gt;Node17</title>
<path fill="none" stroke="#191970" d="M384.1868,-224.2455C390.8589,-216.2958 400.4479,-204.8706 408.4253,-195.3656"/>
<polygon fill="#191970" stroke="#191970" points="411.1592,-197.5525 414.907,-187.6427 405.7974,-193.0524 411.1592,-197.5525"/>
</g>
</g>
</svg>
