<?xml version="1.0" encoding="UTF-8" standalone="no"?>
<!DOCTYPE svg PUBLIC "-//W3C//DTD SVG 1.1//EN"
 "http://www.w3.org/Graphics/SVG/1.1/DTD/svg11.dtd">
<!-- Generated by graphviz version 2.43.0 (0)
 -->
<!-- Title: boards/frdm&#45;kw41z/include/board.h Pages: 1 -->
<svg width="414pt" height="151pt"
 viewBox="0.00 0.00 413.50 151.00" xmlns="http://www.w3.org/2000/svg" xmlns:xlink="http://www.w3.org/1999/xlink">
<g id="graph0" class="graph" transform="scale(1 1) rotate(0) translate(4 147)">
<title>boards/frdm&#45;kw41z/include/board.h</title>
<!-- Node1 -->
<g id="node1" class="node">
<title>Node1</title>
<g id="a_node1"><a xlink:title="Board specific definitions for the FRDM&#45;KW41Z.">
<polygon fill="#bfbfbf" stroke="black" points="37,-112.5 37,-142.5 186,-142.5 186,-112.5 37,-112.5"/>
<text text-anchor="start" x="45" y="-130.5" font-family="Helvetica,sans-Serif" font-size="10.00">boards/frdm&#45;kw41z/include</text>
<text text-anchor="middle" x="111.5" y="-119.5" font-family="Helvetica,sans-Serif" font-size="10.00">/board.h</text>
</a>
</g>
</g>
<!-- Node2 -->
<g id="node2" class="node">
<title>Node2</title>
<g id="a_node2"><a xlink:title=" ">
<polygon fill="none" stroke="#bfbfbf" points="0,-56.5 0,-75.5 43,-75.5 43,-56.5 0,-56.5"/>
<text text-anchor="middle" x="21.5" y="-63.5" font-family="Helvetica,sans-Serif" font-size="10.00">cpu.h</text>
</a>
</g>
</g>
<!-- Node1&#45;&gt;Node2 -->
<g id="edge1" class="edge">
<title>Node1&#45;&gt;Node2</title>
<path fill="none" stroke="midnightblue" d="M90.17,-112.4C76.01,-103.04 57.49,-90.79 43.25,-81.38"/>
<polygon fill="midnightblue" stroke="midnightblue" points="44.87,-78.25 34.6,-75.66 41.01,-84.09 44.87,-78.25"/>
</g>
<!-- Node3 -->
<g id="node3" class="node">
<title>Node3</title>
<g id="a_node3"><a xlink:title=" ">
<polygon fill="none" stroke="#bfbfbf" points="61,-56.5 61,-75.5 162,-75.5 162,-56.5 61,-56.5"/>
<text text-anchor="middle" x="111.5" y="-63.5" font-family="Helvetica,sans-Serif" font-size="10.00">board_common.h</text>
</a>
</g>
</g>
<!-- Node1&#45;&gt;Node3 -->
<g id="edge2" class="edge">
<title>Node1&#45;&gt;Node3</title>
<path fill="none" stroke="midnightblue" d="M111.5,-112.4C111.5,-104.47 111.5,-94.46 111.5,-85.86"/>
<polygon fill="midnightblue" stroke="midnightblue" points="115,-85.66 111.5,-75.66 108,-85.66 115,-85.66"/>
</g>
<!-- Node4 -->
<g id="node4" class="node">
<title>Node4</title>
<g id="a_node4"><a xlink:href="boards_2frdm-kw41z_2include_2periph__conf_8h.html" target="_top" xlink:title=" ">
<polygon fill="none" stroke="black" points="180.5,-56.5 180.5,-75.5 262.5,-75.5 262.5,-56.5 180.5,-56.5"/>
<text text-anchor="middle" x="221.5" y="-63.5" font-family="Helvetica,sans-Serif" font-size="10.00">periph_conf.h</text>
</a>
</g>
</g>
<!-- Node1&#45;&gt;Node4 -->
<g id="edge3" class="edge">
<title>Node1&#45;&gt;Node4</title>
<path fill="none" stroke="midnightblue" d="M137.57,-112.4C155.37,-102.77 178.81,-90.09 196.4,-80.58"/>
<polygon fill="midnightblue" stroke="midnightblue" points="198.36,-83.49 205.49,-75.66 195.03,-77.34 198.36,-83.49"/>
</g>
<!-- Node5 -->
<g id="node5" class="node">
<title>Node5</title>
<g id="a_node5"><a xlink:title=" ">
<polygon fill="none" stroke="#bfbfbf" points="59,-0.5 59,-19.5 138,-19.5 138,-0.5 59,-0.5"/>
<text text-anchor="middle" x="98.5" y="-7.5" font-family="Helvetica,sans-Serif" font-size="10.00">periph_cpu.h</text>
</a>
</g>
</g>
<!-- Node4&#45;&gt;Node5 -->
<g id="edge4" class="edge">
<title>Node4&#45;&gt;Node5</title>
<path fill="none" stroke="midnightblue" d="M202.01,-56.44C181.86,-47.6 150.18,-33.69 127.17,-23.59"/>
<polygon fill="midnightblue" stroke="midnightblue" points="128.46,-20.33 117.9,-19.52 125.65,-26.74 128.46,-20.33"/>
</g>
<!-- Node6 -->
<g id="node6" class="node">
<title>Node6</title>
<g id="a_node6"><a xlink:title=" ">
<polygon fill="none" stroke="#bfbfbf" points="156,-0.5 156,-19.5 287,-19.5 287,-0.5 156,-0.5"/>
<text text-anchor="middle" x="221.5" y="-7.5" font-family="Helvetica,sans-Serif" font-size="10.00">periph_conf_common.h</text>
</a>
</g>
</g>
<!-- Node4&#45;&gt;Node6 -->
<g id="edge5" class="edge">
<title>Node4&#45;&gt;Node6</title>
<path fill="none" stroke="midnightblue" d="M221.5,-56.08C221.5,-49.01 221.5,-38.86 221.5,-29.99"/>
<polygon fill="midnightblue" stroke="midnightblue" points="225,-29.75 221.5,-19.75 218,-29.75 225,-29.75"/>
</g>
<!-- Node7 -->
<g id="node7" class="node">
<title>Node7</title>
<g id="a_node7"><a xlink:title=" ">
<polygon fill="none" stroke="#bfbfbf" points="305.5,-0.5 305.5,-19.5 405.5,-19.5 405.5,-0.5 305.5,-0.5"/>
<text text-anchor="middle" x="355.5" y="-7.5" font-family="Helvetica,sans-Serif" font-size="10.00">cfg_i2c_default.h</text>
</a>
</g>
</g>
<!-- Node4&#45;&gt;Node7 -->
<g id="edge6" class="edge">
<title>Node4&#45;&gt;Node7</title>
<path fill="none" stroke="midnightblue" d="M242.73,-56.44C264.88,-47.52 299.82,-33.44 324.94,-23.32"/>
<polygon fill="midnightblue" stroke="midnightblue" points="326.4,-26.5 334.37,-19.52 323.78,-20.01 326.4,-26.5"/>
</g>
</g>
</svg>
