<?xml version="1.0" encoding="UTF-8" standalone="no"?>
<!DOCTYPE svg PUBLIC "-//W3C//DTD SVG 1.1//EN"
 "http://www.w3.org/Graphics/SVG/1.1/DTD/svg11.dtd">
<!-- Generated by graphviz version 2.40.1 (20161225.0304)
 -->
<!-- Title: sys/include/net/gnrc/ipv6/nib/ft.h Pages: 1 -->
<svg width="1423pt" height="474pt"
 viewBox="0.00 0.00 1423.00 474.00" xmlns="http://www.w3.org/2000/svg" xmlns:xlink="http://www.w3.org/1999/xlink">
<g id="graph0" class="graph" transform="scale(1 1) rotate(0) translate(4 470)">
<title>sys/include/net/gnrc/ipv6/nib/ft.h</title>
<!-- Node19 -->
<g id="node1" class="node">
<title>Node19</title>
<polygon fill="#bfbfbf" stroke="#000000" points="799,-435.5 799,-465.5 903,-465.5 903,-435.5 799,-435.5"/>
<text text-anchor="start" x="807" y="-453.5" font-family="Helvetica,sans-Serif" font-size="10.00" fill="#000000">sys/include/net/gnrc</text>
<text text-anchor="middle" x="851" y="-442.5" font-family="Helvetica,sans-Serif" font-size="10.00" fill="#000000">/ipv6/nib/ft.h</text>
</g>
<!-- Node20 -->
<g id="node2" class="node">
<title>Node20</title>
<g id="a_node2"><a xlink:href="nib_8h.html" target="_top" xlink:title="NIB definitions. ">
<polygon fill="none" stroke="#000000" points="759,-368.5 759,-398.5 863,-398.5 863,-368.5 759,-368.5"/>
<text text-anchor="start" x="767" y="-386.5" font-family="Helvetica,sans-Serif" font-size="10.00" fill="#000000">sys/include/net/gnrc</text>
<text text-anchor="middle" x="811" y="-375.5" font-family="Helvetica,sans-Serif" font-size="10.00" fill="#000000">/ipv6/nib.h</text>
</a>
</g>
</g>
<!-- Node19&#45;&gt;Node20 -->
<g id="edge1" class="edge">
<title>Node19&#45;&gt;Node20</title>
<path fill="none" stroke="#191970" d="M836.6619,-426.4837C831.1192,-417.1996 824.9442,-406.8565 820.0407,-398.6432"/>
<polygon fill="#191970" stroke="#191970" points="833.7921,-428.5046 841.9234,-435.2967 839.8024,-424.9163 833.7921,-428.5046"/>
</g>
<!-- Node34 -->
<g id="node16" class="node">
<title>Node34</title>
<g id="a_node16"><a xlink:href="__nib-internal_8h_source.html" target="_top" xlink:title="sys/net/gnrc/network\l_layer/ipv6/nib/_nib\l&#45;internal.h">
<polygon fill="none" stroke="#000000" points="1102,-223.5 1102,-264.5 1210,-264.5 1210,-223.5 1102,-223.5"/>
<text text-anchor="start" x="1110" y="-252.5" font-family="Helvetica,sans-Serif" font-size="10.00" fill="#000000">sys/net/gnrc/network</text>
<text text-anchor="start" x="1110" y="-241.5" font-family="Helvetica,sans-Serif" font-size="10.00" fill="#000000">_layer/ipv6/nib/_nib</text>
<text text-anchor="middle" x="1156" y="-230.5" font-family="Helvetica,sans-Serif" font-size="10.00" fill="#000000">&#45;internal.h</text>
</a>
</g>
</g>
<!-- Node19&#45;&gt;Node34 -->
<g id="edge25" class="edge">
<title>Node19&#45;&gt;Node34</title>
<path fill="none" stroke="#191970" d="M881.9025,-429.5775C940.5523,-389.8687 1067.3356,-304.0302 1125.5965,-264.5847"/>
<polygon fill="#191970" stroke="#191970" points="879.7458,-426.8109 873.4274,-435.3156 883.6703,-432.6074 879.7458,-426.8109"/>
</g>
<!-- Node21 -->
<g id="node3" class="node">
<title>Node21</title>
<g id="a_node3"><a xlink:href="gnrc_2ipv6_8h.html" target="_top" xlink:title="Definitions for GNRC&#39;s IPv6 implementation. ">
<polygon fill="none" stroke="#000000" points="463,-301.5 463,-331.5 567,-331.5 567,-301.5 463,-301.5"/>
<text text-anchor="start" x="471" y="-319.5" font-family="Helvetica,sans-Serif" font-size="10.00" fill="#000000">sys/include/net/gnrc</text>
<text text-anchor="middle" x="515" y="-308.5" font-family="Helvetica,sans-Serif" font-size="10.00" fill="#000000">/ipv6.h</text>
</a>
</g>
</g>
<!-- Node20&#45;&gt;Node21 -->
<g id="edge2" class="edge">
<title>Node20&#45;&gt;Node21</title>
<path fill="none" stroke="#191970" d="M748.9866,-369.4632C695.1187,-357.2701 617.9827,-339.8103 567.2123,-328.3183"/>
<polygon fill="#191970" stroke="#191970" points="748.2365,-372.8819 758.7625,-371.676 749.7819,-366.0546 748.2365,-372.8819"/>
</g>
<!-- Node22 -->
<g id="node4" class="node">
<title>Node22</title>
<g id="a_node4"><a xlink:href="error_8h.html" target="_top" xlink:title="ICMPv6 error message definitions. ">
<polygon fill="none" stroke="#000000" points="0,-229 0,-259 104,-259 104,-229 0,-229"/>
<text text-anchor="start" x="8" y="-247" font-family="Helvetica,sans-Serif" font-size="10.00" fill="#000000">sys/include/net/gnrc</text>
<text text-anchor="middle" x="52" y="-236" font-family="Helvetica,sans-Serif" font-size="10.00" fill="#000000">/icmpv6/error.h</text>
</a>
</g>
</g>
<!-- Node21&#45;&gt;Node22 -->
<g id="edge3" class="edge">
<title>Node21&#45;&gt;Node22</title>
<path fill="none" stroke="#191970" d="M452.6562,-312.4749C373.0284,-306.4333 231.3598,-292.6489 113,-265 106.1288,-263.3949 98.9453,-261.308 92.0192,-259.0736"/>
<polygon fill="#191970" stroke="#191970" points="452.7671,-315.9927 462.9987,-313.2424 453.2852,-309.0119 452.7671,-315.9927"/>
</g>
<!-- Node25 -->
<g id="node7" class="node">
<title>Node25</title>
<g id="a_node7"><a xlink:href="rpl_8h.html" target="_top" xlink:title="RPL header. ">
<polygon fill="none" stroke="#000000" points="122,-229 122,-259 226,-259 226,-229 122,-229"/>
<text text-anchor="start" x="130" y="-247" font-family="Helvetica,sans-Serif" font-size="10.00" fill="#000000">sys/include/net/gnrc</text>
<text text-anchor="middle" x="174" y="-236" font-family="Helvetica,sans-Serif" font-size="10.00" fill="#000000">/rpl.h</text>
</a>
</g>
</g>
<!-- Node21&#45;&gt;Node25 -->
<g id="edge6" class="edge">
<title>Node21&#45;&gt;Node25</title>
<path fill="none" stroke="#191970" d="M452.7308,-303.261C387.77,-289.4496 287.0746,-268.0408 226.1559,-255.0889"/>
<polygon fill="#191970" stroke="#191970" points="452.329,-306.7537 462.8382,-305.4099 453.7848,-299.9067 452.329,-306.7537"/>
</g>
<!-- Node27 -->
<g id="node9" class="node">
<title>Node27</title>
<g id="a_node9"><a xlink:href="tcb_8h.html" target="_top" xlink:title="GNRC TCP transmission control block (TCB) ">
<polygon fill="none" stroke="#000000" points="537,-229 537,-259 641,-259 641,-229 537,-229"/>
<text text-anchor="start" x="545" y="-247" font-family="Helvetica,sans-Serif" font-size="10.00" fill="#000000">sys/include/net/gnrc</text>
<text text-anchor="middle" x="589" y="-236" font-family="Helvetica,sans-Serif" font-size="10.00" fill="#000000">/tcp/tcb.h</text>
</a>
</g>
</g>
<!-- Node21&#45;&gt;Node27 -->
<g id="edge9" class="edge">
<title>Node21&#45;&gt;Node27</title>
<path fill="none" stroke="#191970" d="M537.6274,-294.3313C549.3171,-282.8785 563.2731,-269.2054 573.6868,-259.0028"/>
<polygon fill="#191970" stroke="#191970" points="535.0266,-291.9795 530.3328,-301.478 539.9254,-296.9797 535.0266,-291.9795"/>
</g>
<!-- Node28 -->
<g id="node10" class="node">
<title>Node28</title>
<g id="a_node10"><a xlink:href="gnrc_2tcp_8h.html" target="_top" xlink:title="GNRC TCP API. ">
<polygon fill="none" stroke="#000000" points="244,-151 244,-181 348,-181 348,-151 244,-151"/>
<text text-anchor="start" x="252" y="-169" font-family="Helvetica,sans-Serif" font-size="10.00" fill="#000000">sys/include/net/gnrc</text>
<text text-anchor="middle" x="296" y="-158" font-family="Helvetica,sans-Serif" font-size="10.00" fill="#000000">/tcp.h</text>
</a>
</g>
</g>
<!-- Node21&#45;&gt;Node28 -->
<g id="edge16" class="edge">
<title>Node21&#45;&gt;Node28</title>
<path fill="none" stroke="#191970" d="M484.3571,-295.4418C439.5417,-264.6439 357.196,-208.0548 317.9372,-181.0756"/>
<polygon fill="#191970" stroke="#191970" points="482.5721,-298.4618 492.7959,-301.241 486.5367,-292.6928 482.5721,-298.4618"/>
</g>
<!-- Node21&#45;&gt;Node34 -->
<g id="edge17" class="edge">
<title>Node21&#45;&gt;Node34</title>
<path fill="none" stroke="#191970" d="M577.3863,-309.4438C702.8086,-295.258 983.5974,-263.4995 1101.8543,-250.1241"/>
<polygon fill="#191970" stroke="#191970" points="576.7272,-305.996 567.1839,-310.5978 577.514,-312.9516 576.7272,-305.996"/>
</g>
<!-- Node23 -->
<g id="node5" class="node">
<title>Node23</title>
<g id="a_node5"><a xlink:href="gnrc_2icmpv6_8h.html" target="_top" xlink:title="Definitions for GNRC&#39;s ICMPv6 implementation. ">
<polygon fill="none" stroke="#000000" points="0,-151 0,-181 104,-181 104,-151 0,-151"/>
<text text-anchor="start" x="8" y="-169" font-family="Helvetica,sans-Serif" font-size="10.00" fill="#000000">sys/include/net/gnrc</text>
<text text-anchor="middle" x="52" y="-158" font-family="Helvetica,sans-Serif" font-size="10.00" fill="#000000">/icmpv6.h</text>
</a>
</g>
</g>
<!-- Node22&#45;&gt;Node23 -->
<g id="edge4" class="edge">
<title>Node22&#45;&gt;Node23</title>
<path fill="none" stroke="#191970" d="M52,-218.7875C52,-206.4187 52,-191.9264 52,-181.2592"/>
<polygon fill="#191970" stroke="#191970" points="48.5001,-218.9608 52,-228.9608 55.5001,-218.9608 48.5001,-218.9608"/>
</g>
<!-- Node24 -->
<g id="node6" class="node">
<title>Node24</title>
<g id="a_node6"><a xlink:href="validation_8h.html" target="_top" xlink:title="RPL control message validation functions. ">
<polygon fill="none" stroke="#000000" points="0,-67.5 0,-108.5 104,-108.5 104,-67.5 0,-67.5"/>
<text text-anchor="start" x="8" y="-96.5" font-family="Helvetica,sans-Serif" font-size="10.00" fill="#000000">sys/net/gnrc/routing</text>
<text text-anchor="start" x="8" y="-85.5" font-family="Helvetica,sans-Serif" font-size="10.00" fill="#000000">/rpl/gnrc_rpl_internal</text>
<text text-anchor="middle" x="52" y="-74.5" font-family="Helvetica,sans-Serif" font-size="10.00" fill="#000000">/validation.h</text>
</a>
</g>
</g>
<!-- Node23&#45;&gt;Node24 -->
<g id="edge5" class="edge">
<title>Node23&#45;&gt;Node24</title>
<path fill="none" stroke="#191970" d="M52,-140.8044C52,-130.3919 52,-118.4721 52,-108.5956"/>
<polygon fill="#191970" stroke="#191970" points="48.5001,-140.9608 52,-150.9608 55.5001,-140.9608 48.5001,-140.9608"/>
</g>
<!-- Node26 -->
<g id="node8" class="node">
<title>Node26</title>
<g id="a_node8"><a xlink:href="dodag_8h.html" target="_top" xlink:title="DODAG&#45;related functions for RPL. ">
<polygon fill="none" stroke="#000000" points="122,-151 122,-181 226,-181 226,-151 122,-151"/>
<text text-anchor="start" x="130" y="-169" font-family="Helvetica,sans-Serif" font-size="10.00" fill="#000000">sys/include/net/gnrc</text>
<text text-anchor="middle" x="174" y="-158" font-family="Helvetica,sans-Serif" font-size="10.00" fill="#000000">/rpl/dodag.h</text>
</a>
</g>
</g>
<!-- Node25&#45;&gt;Node26 -->
<g id="edge7" class="edge">
<title>Node25&#45;&gt;Node26</title>
<path fill="none" stroke="#191970" d="M167.6398,-218.7875C166.9118,-206.4187 167.2035,-191.9264 168.5147,-181.2592"/>
<polygon fill="#191970" stroke="#191970" points="164.1722,-219.3091 168.542,-228.9608 171.1449,-218.6907 164.1722,-219.3091"/>
</g>
<!-- Node26&#45;&gt;Node25 -->
<g id="edge8" class="edge">
<title>Node26&#45;&gt;Node25</title>
<path fill="none" stroke="#191970" d="M180.3751,-191.4685C181.089,-203.8663 180.7833,-218.3466 179.458,-228.9608"/>
<polygon fill="#191970" stroke="#191970" points="183.8404,-190.9175 179.4853,-181.2592 176.8669,-191.5253 183.8404,-190.9175"/>
</g>
<!-- Node27&#45;&gt;Node28 -->
<g id="edge10" class="edge">
<title>Node27&#45;&gt;Node28</title>
<path fill="none" stroke="#191970" d="M526.5614,-230.2766C479.6259,-219.5705 413.8997,-203.7466 357,-187 350.8756,-185.1975 344.4543,-183.1565 338.172,-181.0727"/>
<polygon fill="#191970" stroke="#191970" points="526.0521,-233.7499 536.5786,-232.549 527.6007,-226.9234 526.0521,-233.7499"/>
</g>
<!-- Node29 -->
<g id="node11" class="node">
<title>Node29</title>
<g id="a_node11"><a xlink:href="net_2gnrc_2transport__layer_2tcp_2internal_2common_8h.html" target="_top" xlink:title="Internally used defines, macros and variable declarations. ">
<polygon fill="none" stroke="#000000" points="366.5,-151 366.5,-181 509.5,-181 509.5,-151 366.5,-151"/>
<text text-anchor="start" x="374.5" y="-169" font-family="Helvetica,sans-Serif" font-size="10.00" fill="#000000">sys/net/gnrc/transport</text>
<text text-anchor="middle" x="438" y="-158" font-family="Helvetica,sans-Serif" font-size="10.00" fill="#000000">_layer/tcp/internal/common.h</text>
</a>
</g>
</g>
<!-- Node27&#45;&gt;Node29 -->
<g id="edge11" class="edge">
<title>Node27&#45;&gt;Node29</title>
<path fill="none" stroke="#191970" d="M550.7212,-224.2268C524.7979,-210.836 491.0669,-193.412 467.2822,-181.1259"/>
<polygon fill="#191970" stroke="#191970" points="549.3947,-227.481 559.8857,-228.9608 552.6073,-221.2617 549.3947,-227.481"/>
</g>
<!-- Node30 -->
<g id="node12" class="node">
<title>Node30</title>
<g id="a_node12"><a xlink:href="fsm_8h.html" target="_top" xlink:title="TCP finite state maschine declarations. ">
<polygon fill="none" stroke="#000000" points="528,-151 528,-181 650,-181 650,-151 528,-151"/>
<text text-anchor="start" x="536" y="-169" font-family="Helvetica,sans-Serif" font-size="10.00" fill="#000000">sys/net/gnrc/transport</text>
<text text-anchor="middle" x="589" y="-158" font-family="Helvetica,sans-Serif" font-size="10.00" fill="#000000">_layer/tcp/internal/fsm.h</text>
</a>
</g>
</g>
<!-- Node27&#45;&gt;Node30 -->
<g id="edge12" class="edge">
<title>Node27&#45;&gt;Node30</title>
<path fill="none" stroke="#191970" d="M589,-218.7875C589,-206.4187 589,-191.9264 589,-181.2592"/>
<polygon fill="#191970" stroke="#191970" points="585.5001,-218.9608 589,-228.9608 592.5001,-218.9608 585.5001,-218.9608"/>
</g>
<!-- Node31 -->
<g id="node13" class="node">
<title>Node31</title>
<g id="a_node13"><a xlink:href="option_8h.html" target="_top" xlink:title="TCP option handling declarations. ">
<polygon fill="none" stroke="#000000" points="668.5,-151 668.5,-181 799.5,-181 799.5,-151 668.5,-151"/>
<text text-anchor="start" x="676.5" y="-169" font-family="Helvetica,sans-Serif" font-size="10.00" fill="#000000">sys/net/gnrc/transport</text>
<text text-anchor="middle" x="734" y="-158" font-family="Helvetica,sans-Serif" font-size="10.00" fill="#000000">_layer/tcp/internal/option.h</text>
</a>
</g>
</g>
<!-- Node27&#45;&gt;Node31 -->
<g id="edge13" class="edge">
<title>Node27&#45;&gt;Node31</title>
<path fill="none" stroke="#191970" d="M626.0552,-224.0669C650.8184,-210.746 682.899,-193.4888 705.6336,-181.2592"/>
<polygon fill="#191970" stroke="#191970" points="624.106,-221.1411 616.9575,-228.9608 627.4222,-227.3057 624.106,-221.1411"/>
</g>
<!-- Node32 -->
<g id="node14" class="node">
<title>Node32</title>
<g id="a_node14"><a xlink:href="net_2gnrc_2transport__layer_2tcp_2internal_2pkt_8h.html" target="_top" xlink:title="TCP packet handling declarations. ">
<polygon fill="none" stroke="#000000" points="817.5,-151 817.5,-181 936.5,-181 936.5,-151 817.5,-151"/>
<text text-anchor="start" x="825.5" y="-169" font-family="Helvetica,sans-Serif" font-size="10.00" fill="#000000">sys/net/gnrc/transport</text>
<text text-anchor="middle" x="877" y="-158" font-family="Helvetica,sans-Serif" font-size="10.00" fill="#000000">_layer/tcp/internal/pkt.h</text>
</a>
</g>
</g>
<!-- Node27&#45;&gt;Node32 -->
<g id="edge14" class="edge">
<title>Node27&#45;&gt;Node32</title>
<path fill="none" stroke="#191970" d="M651.3337,-228.4966C695.2565,-217.3965 755.3822,-201.8479 808,-187 814.6281,-185.1297 821.5931,-183.0937 828.4442,-181.0495"/>
<polygon fill="#191970" stroke="#191970" points="650.2167,-225.1686 641.3758,-231.0071 651.928,-231.9562 650.2167,-225.1686"/>
</g>
<!-- Node33 -->
<g id="node15" class="node">
<title>Node33</title>
<g id="a_node15"><a xlink:href="rcvbuf_8h.html" target="_top" xlink:title="Functions for allocating and freeing the receive buffer. ">
<polygon fill="none" stroke="#000000" points="955,-151 955,-181 1087,-181 1087,-151 955,-151"/>
<text text-anchor="start" x="963" y="-169" font-family="Helvetica,sans-Serif" font-size="10.00" fill="#000000">sys/net/gnrc/transport</text>
<text text-anchor="middle" x="1021" y="-158" font-family="Helvetica,sans-Serif" font-size="10.00" fill="#000000">_layer/tcp/internal/rcvbuf.h</text>
</a>
</g>
</g>
<!-- Node27&#45;&gt;Node33 -->
<g id="edge15" class="edge">
<title>Node27&#45;&gt;Node33</title>
<path fill="none" stroke="#191970" d="M651.3904,-236.1435C722.7758,-226.6618 842.9827,-209.1901 945,-187 953.0257,-185.2543 961.4641,-183.1734 969.681,-181.0102"/>
<polygon fill="#191970" stroke="#191970" points="650.6772,-232.7072 641.2204,-237.4841 651.5921,-239.6471 650.6772,-232.7072"/>
</g>
<!-- Node35 -->
<g id="node17" class="node">
<title>Node35</title>
<g id="a_node17"><a xlink:href="__nib-arsm_8h_source.html" target="_top" xlink:title="sys/net/gnrc/network\l_layer/ipv6/nib/_nib\l&#45;arsm.h">
<polygon fill="none" stroke="#000000" points="1143,-145.5 1143,-186.5 1251,-186.5 1251,-145.5 1143,-145.5"/>
<text text-anchor="start" x="1151" y="-174.5" font-family="Helvetica,sans-Serif" font-size="10.00" fill="#000000">sys/net/gnrc/network</text>
<text text-anchor="start" x="1151" y="-163.5" font-family="Helvetica,sans-Serif" font-size="10.00" fill="#000000">_layer/ipv6/nib/_nib</text>
<text text-anchor="middle" x="1197" y="-152.5" font-family="Helvetica,sans-Serif" font-size="10.00" fill="#000000">&#45;arsm.h</text>
</a>
</g>
</g>
<!-- Node34&#45;&gt;Node35 -->
<g id="edge18" class="edge">
<title>Node34&#45;&gt;Node35</title>
<path fill="none" stroke="#191970" d="M1171.6477,-214.2312C1176.4782,-205.0415 1181.69,-195.1263 1186.1246,-186.6898"/>
<polygon fill="#191970" stroke="#191970" points="1168.542,-212.6173 1166.9872,-223.0974 1174.7382,-215.8743 1168.542,-212.6173"/>
</g>
<!-- Node36 -->
<g id="node18" class="node">
<title>Node36</title>
<g id="a_node18"><a xlink:href="__nib-6ln_8h.html" target="_top" xlink:title="Definitions related to 6Lo node (6LN) functionality of the NIB. ">
<polygon fill="none" stroke="#000000" points="1069.5,-73 1069.5,-103 1194.5,-103 1194.5,-73 1069.5,-73"/>
<text text-anchor="start" x="1077.5" y="-91" font-family="Helvetica,sans-Serif" font-size="10.00" fill="#000000">sys/net/gnrc/network</text>
<text text-anchor="middle" x="1132" y="-80" font-family="Helvetica,sans-Serif" font-size="10.00" fill="#000000">_layer/ipv6/nib/_nib&#45;6ln.h</text>
</a>
</g>
</g>
<!-- Node34&#45;&gt;Node36 -->
<g id="edge22" class="edge">
<title>Node34&#45;&gt;Node36</title>
<path fill="none" stroke="#191970" d="M1142.1388,-213.8914C1138.8396,-205.3748 1135.7662,-195.9767 1134,-187 1128.2585,-157.819 1129.3636,-122.8666 1130.6838,-103.2696"/>
<polygon fill="#191970" stroke="#191970" points="1139.0109,-215.4882 1146.0507,-223.4061 1145.4851,-212.8264 1139.0109,-215.4882"/>
</g>
<!-- Node37 -->
<g id="node19" class="node">
<title>Node37</title>
<g id="a_node19"><a xlink:href="__nib-6lr_8h.html" target="_top" xlink:title="Definitions related to 6Lo router (6LR) functionality of the NIB. ">
<polygon fill="none" stroke="#000000" points="1162,-.5 1162,-30.5 1284,-30.5 1284,-.5 1162,-.5"/>
<text text-anchor="start" x="1170" y="-18.5" font-family="Helvetica,sans-Serif" font-size="10.00" fill="#000000">sys/net/gnrc/network</text>
<text text-anchor="middle" x="1223" y="-7.5" font-family="Helvetica,sans-Serif" font-size="10.00" fill="#000000">_layer/ipv6/nib/_nib&#45;6lr.h</text>
</a>
</g>
</g>
<!-- Node34&#45;&gt;Node37 -->
<g id="edge23" class="edge">
<title>Node34&#45;&gt;Node37</title>
<path fill="none" stroke="#191970" d="M1219.1,-223.011C1235.2412,-214.4642 1250.6602,-202.7696 1260,-187 1290.4231,-135.633 1252.5721,-62.3916 1233.1583,-30.8813"/>
<polygon fill="#191970" stroke="#191970" points="1217.5211,-219.8871 1210.0924,-227.4413 1220.6105,-226.1685 1217.5211,-219.8871"/>
</g>
<!-- Node38 -->
<g id="node20" class="node">
<title>Node38</title>
<g id="a_node20"><a xlink:href="__nib-router_8h_source.html" target="_top" xlink:title="sys/net/gnrc/network\l_layer/ipv6/nib/_nib\l&#45;router.h">
<polygon fill="none" stroke="#000000" points="1307,-145.5 1307,-186.5 1415,-186.5 1415,-145.5 1307,-145.5"/>
<text text-anchor="start" x="1315" y="-174.5" font-family="Helvetica,sans-Serif" font-size="10.00" fill="#000000">sys/net/gnrc/network</text>
<text text-anchor="start" x="1315" y="-163.5" font-family="Helvetica,sans-Serif" font-size="10.00" fill="#000000">_layer/ipv6/nib/_nib</text>
<text text-anchor="middle" x="1361" y="-152.5" font-family="Helvetica,sans-Serif" font-size="10.00" fill="#000000">&#45;router.h</text>
</a>
</g>
</g>
<!-- Node34&#45;&gt;Node38 -->
<g id="edge24" class="edge">
<title>Node34&#45;&gt;Node38</title>
<path fill="none" stroke="#191970" d="M1219.8089,-219.7215C1247.7513,-209.0897 1280.1899,-196.7473 1306.9229,-186.5757"/>
<polygon fill="#191970" stroke="#191970" points="1218.2311,-216.577 1210.1295,-223.4044 1220.7205,-223.1194 1218.2311,-216.577"/>
</g>
<!-- Node35&#45;&gt;Node36 -->
<g id="edge19" class="edge">
<title>Node35&#45;&gt;Node36</title>
<path fill="none" stroke="#191970" d="M1173.139,-137.3668C1163.5162,-125.8194 1152.8038,-112.9646 1144.7232,-103.2679"/>
<polygon fill="#191970" stroke="#191970" points="1170.4905,-139.6559 1179.5812,-145.0974 1175.8681,-135.1745 1170.4905,-139.6559"/>
</g>
<!-- Node35&#45;&gt;Node37 -->
<g id="edge21" class="edge">
<title>Node35&#45;&gt;Node37</title>
<path fill="none" stroke="#191970" d="M1202.3006,-135.3177C1207.7838,-103.5786 1216.1238,-55.3026 1220.3484,-30.8485"/>
<polygon fill="#191970" stroke="#191970" points="1198.8142,-134.9393 1200.5607,-145.3892 1205.712,-136.131 1198.8142,-134.9393"/>
</g>
<!-- Node36&#45;&gt;Node37 -->
<g id="edge20" class="edge">
<title>Node36&#45;&gt;Node37</title>
<path fill="none" stroke="#191970" d="M1159.0072,-66.4833C1173.5454,-54.9007 1191.1189,-40.8998 1204.1689,-30.5028"/>
<polygon fill="#191970" stroke="#191970" points="1156.4956,-64.0093 1150.8553,-72.978 1160.8575,-69.4841 1156.4956,-64.0093"/>
</g>
</g>
</svg>
