<?xml version="1.0" encoding="UTF-8" standalone="no"?>
<!DOCTYPE svg PUBLIC "-//W3C//DTD SVG 1.1//EN"
 "http://www.w3.org/Graphics/SVG/1.1/DTD/svg11.dtd">
<!-- Generated by graphviz version 2.43.0 (0)
 -->
<!-- Title: sys/include/net/gnrc/ipv6/ext.h Pages: 1 -->
<svg width="1089pt" height="319pt"
 viewBox="0.00 0.00 1088.50 319.00" xmlns="http://www.w3.org/2000/svg" xmlns:xlink="http://www.w3.org/1999/xlink">
<g id="graph0" class="graph" transform="scale(1 1) rotate(0) translate(4 315)">
<title>sys/include/net/gnrc/ipv6/ext.h</title>
<!-- Node1 -->
<g id="node1" class="node">
<title>Node1</title>
<g id="a_node1"><a xlink:title="Definititions for IPv6 extension headers.">
<polygon fill="#bfbfbf" stroke="black" points="572.5,-280.5 572.5,-310.5 686.5,-310.5 686.5,-280.5 572.5,-280.5"/>
<text text-anchor="start" x="580.5" y="-298.5" font-family="Helvetica,sans-Serif" font-size="10.00">sys/include/net/gnrc</text>
<text text-anchor="middle" x="629.5" y="-287.5" font-family="Helvetica,sans-Serif" font-size="10.00">/ipv6/ext.h</text>
</a>
</g>
</g>
<!-- Node2 -->
<g id="node2" class="node">
<title>Node2</title>
<g id="a_node2"><a xlink:title=" ">
<polygon fill="none" stroke="#bfbfbf" points="283.5,-112.5 283.5,-131.5 345.5,-131.5 345.5,-112.5 283.5,-112.5"/>
<text text-anchor="middle" x="314.5" y="-119.5" font-family="Helvetica,sans-Serif" font-size="10.00">stdbool.h</text>
</a>
</g>
</g>
<!-- Node1&#45;&gt;Node2 -->
<g id="edge1" class="edge">
<title>Node1&#45;&gt;Node2</title>
<path fill="none" stroke="midnightblue" d="M603.72,-280.47C544.15,-248.03 397.57,-168.23 339.13,-136.41"/>
<polygon fill="midnightblue" stroke="midnightblue" points="340.68,-133.27 330.22,-131.56 337.33,-139.42 340.68,-133.27"/>
</g>
<!-- Node3 -->
<g id="node3" class="node">
<title>Node3</title>
<g id="a_node3"><a xlink:title=" ">
<polygon fill="none" stroke="#bfbfbf" points="248,-0.5 248,-19.5 301,-19.5 301,-0.5 248,-0.5"/>
<text text-anchor="middle" x="274.5" y="-7.5" font-family="Helvetica,sans-Serif" font-size="10.00">stdint.h</text>
</a>
</g>
</g>
<!-- Node1&#45;&gt;Node3 -->
<g id="edge2" class="edge">
<title>Node1&#45;&gt;Node3</title>
<path fill="none" stroke="midnightblue" d="M686.62,-291.83C807.98,-284.61 1080.5,-259.42 1080.5,-179 1080.5,-179 1080.5,-179 1080.5,-121 1080.5,-80.77 1054.06,-72.8 1017.5,-56 953.05,-26.38 452.75,-14.47 311.52,-11.68"/>
<polygon fill="midnightblue" stroke="midnightblue" points="311.29,-8.17 301.22,-11.48 311.15,-15.17 311.29,-8.17"/>
</g>
<!-- Node4 -->
<g id="node4" class="node">
<title>Node4</title>
<g id="a_node4"><a xlink:title=" ">
<polygon fill="none" stroke="#bfbfbf" points="520,-168.5 520,-187.5 573,-187.5 573,-168.5 520,-168.5"/>
<text text-anchor="middle" x="546.5" y="-175.5" font-family="Helvetica,sans-Serif" font-size="10.00">stdlib.h</text>
</a>
</g>
</g>
<!-- Node1&#45;&gt;Node4 -->
<g id="edge3" class="edge">
<title>Node1&#45;&gt;Node4</title>
<path fill="none" stroke="midnightblue" d="M619.32,-280.34C604.03,-259.05 575.16,-218.89 558.74,-196.03"/>
<polygon fill="midnightblue" stroke="midnightblue" points="561.41,-193.75 552.73,-187.67 555.72,-197.83 561.41,-193.75"/>
</g>
<!-- Node5 -->
<g id="node5" class="node">
<title>Node5</title>
<g id="a_node5"><a xlink:href="net_2gnrc_2pkt_8h.html" target="_top" xlink:title="General definitions for network packets and their helper functions.">
<polygon fill="none" stroke="black" points="642.5,-224.5 642.5,-243.5 726.5,-243.5 726.5,-224.5 642.5,-224.5"/>
<text text-anchor="middle" x="684.5" y="-231.5" font-family="Helvetica,sans-Serif" font-size="10.00">net/gnrc/pkt.h</text>
</a>
</g>
</g>
<!-- Node1&#45;&gt;Node5 -->
<g id="edge4" class="edge">
<title>Node1&#45;&gt;Node5</title>
<path fill="none" stroke="midnightblue" d="M642.53,-280.4C650.69,-271.58 661.22,-260.18 669.69,-251.02"/>
<polygon fill="midnightblue" stroke="midnightblue" points="672.28,-253.38 676.5,-243.66 667.14,-248.63 672.28,-253.38"/>
</g>
<!-- Node16 -->
<g id="node16" class="node">
<title>Node16</title>
<g id="a_node16"><a xlink:href="ipv6_2ext_8h.html" target="_top" xlink:title="IPv6 extension header definitions.">
<polygon fill="none" stroke="black" points="136.5,-224.5 136.5,-243.5 220.5,-243.5 220.5,-224.5 136.5,-224.5"/>
<text text-anchor="middle" x="178.5" y="-231.5" font-family="Helvetica,sans-Serif" font-size="10.00">net/ipv6/ext.h</text>
</a>
</g>
</g>
<!-- Node1&#45;&gt;Node16 -->
<g id="edge23" class="edge">
<title>Node1&#45;&gt;Node16</title>
<path fill="none" stroke="midnightblue" d="M572.38,-286.96C484.12,-275.32 315.91,-253.13 230.72,-241.89"/>
<polygon fill="midnightblue" stroke="midnightblue" points="231.12,-238.41 220.75,-240.57 230.21,-245.35 231.12,-238.41"/>
</g>
<!-- Node21 -->
<g id="node21" class="node">
<title>Node21</title>
<g id="a_node21"><a xlink:href="timex_8h.html" target="_top" xlink:title="Utility library for comparing and computing timestamps.">
<polygon fill="none" stroke="black" points="998.5,-168.5 998.5,-187.5 1052.5,-187.5 1052.5,-168.5 998.5,-168.5"/>
<text text-anchor="middle" x="1025.5" y="-175.5" font-family="Helvetica,sans-Serif" font-size="10.00">timex.h</text>
</a>
</g>
</g>
<!-- Node1&#45;&gt;Node21 -->
<g id="edge34" class="edge">
<title>Node1&#45;&gt;Node21</title>
<path fill="none" stroke="midnightblue" d="M677.66,-280.45C757.62,-257.13 916.09,-210.91 988.2,-189.88"/>
<polygon fill="midnightblue" stroke="midnightblue" points="989.58,-193.12 998.2,-186.96 987.62,-186.4 989.58,-193.12"/>
</g>
<!-- Node5&#45;&gt;Node4 -->
<g id="edge6" class="edge">
<title>Node5&#45;&gt;Node4</title>
<path fill="none" stroke="midnightblue" d="M662.63,-224.44C639.72,-215.48 603.52,-201.31 577.63,-191.18"/>
<polygon fill="midnightblue" stroke="midnightblue" points="578.85,-187.9 568.26,-187.52 576.3,-194.42 578.85,-187.9"/>
</g>
<!-- Node6 -->
<g id="node6" class="node">
<title>Node6</title>
<g id="a_node6"><a xlink:href="inttypes_8h.html" target="_top" xlink:title="Adds include for missing inttype definitions.">
<polygon fill="none" stroke="black" points="693,-112.5 693,-131.5 758,-131.5 758,-112.5 693,-112.5"/>
<text text-anchor="middle" x="725.5" y="-119.5" font-family="Helvetica,sans-Serif" font-size="10.00">inttypes.h</text>
</a>
</g>
</g>
<!-- Node5&#45;&gt;Node6 -->
<g id="edge5" class="edge">
<title>Node5&#45;&gt;Node6</title>
<path fill="none" stroke="midnightblue" d="M689.34,-224.24C694.14,-215.31 701.47,-200.97 706.5,-188 712.47,-172.58 717.62,-154.49 721.04,-141.31"/>
<polygon fill="midnightblue" stroke="midnightblue" points="724.45,-142.12 723.49,-131.57 717.66,-140.41 724.45,-142.12"/>
</g>
<!-- Node7 -->
<g id="node7" class="node">
<title>Node7</title>
<g id="a_node7"><a xlink:href="sched_8h.html" target="_top" xlink:title="Scheduler API definition.">
<polygon fill="none" stroke="black" points="756.5,-168.5 756.5,-187.5 810.5,-187.5 810.5,-168.5 756.5,-168.5"/>
<text text-anchor="middle" x="783.5" y="-175.5" font-family="Helvetica,sans-Serif" font-size="10.00">sched.h</text>
</a>
</g>
</g>
<!-- Node5&#45;&gt;Node7 -->
<g id="edge7" class="edge">
<title>Node5&#45;&gt;Node7</title>
<path fill="none" stroke="midnightblue" d="M700.41,-224.32C716.14,-215.74 740.44,-202.49 758.71,-192.52"/>
<polygon fill="midnightblue" stroke="midnightblue" points="760.53,-195.52 767.63,-187.65 757.18,-189.37 760.53,-195.52"/>
</g>
<!-- Node12 -->
<g id="node12" class="node">
<title>Node12</title>
<g id="a_node12"><a xlink:href="list_8h.html" target="_top" xlink:title="Intrusive linked list.">
<polygon fill="none" stroke="black" points="945,-56.5 945,-75.5 986,-75.5 986,-56.5 945,-56.5"/>
<text text-anchor="middle" x="965.5" y="-63.5" font-family="Helvetica,sans-Serif" font-size="10.00">list.h</text>
</a>
</g>
</g>
<!-- Node5&#45;&gt;Node12 -->
<g id="edge22" class="edge">
<title>Node5&#45;&gt;Node12</title>
<path fill="none" stroke="midnightblue" d="M726.71,-224.71C800.51,-209.25 947.97,-173.8 977.5,-132 987.2,-118.27 981.87,-98.98 975.54,-84.98"/>
<polygon fill="midnightblue" stroke="midnightblue" points="978.58,-83.23 970.95,-75.88 972.33,-86.38 978.58,-83.23"/>
</g>
<!-- Node13 -->
<g id="node13" class="node">
<title>Node13</title>
<g id="a_node13"><a xlink:href="nettype_8h.html" target="_top" xlink:title="Protocol type definitions.">
<polygon fill="none" stroke="black" points="591.5,-168.5 591.5,-187.5 697.5,-187.5 697.5,-168.5 591.5,-168.5"/>
<text text-anchor="middle" x="644.5" y="-175.5" font-family="Helvetica,sans-Serif" font-size="10.00">net/gnrc/nettype.h</text>
</a>
</g>
</g>
<!-- Node5&#45;&gt;Node13 -->
<g id="edge17" class="edge">
<title>Node5&#45;&gt;Node13</title>
<path fill="none" stroke="midnightblue" d="M677.89,-224.08C672.24,-216.46 663.96,-205.26 657.05,-195.94"/>
<polygon fill="midnightblue" stroke="midnightblue" points="659.75,-193.7 650.98,-187.75 654.12,-197.87 659.75,-193.7"/>
</g>
<!-- Node7&#45;&gt;Node6 -->
<g id="edge9" class="edge">
<title>Node7&#45;&gt;Node6</title>
<path fill="none" stroke="midnightblue" d="M774.18,-168.32C765.61,-160.34 752.69,-148.31 742.31,-138.65"/>
<polygon fill="midnightblue" stroke="midnightblue" points="744.69,-136.09 734.99,-131.83 739.92,-141.21 744.69,-136.09"/>
</g>
<!-- Node8 -->
<g id="node8" class="node">
<title>Node8</title>
<g id="a_node8"><a xlink:title=" ">
<polygon fill="none" stroke="#bfbfbf" points="758.5,-56.5 758.5,-75.5 814.5,-75.5 814.5,-56.5 758.5,-56.5"/>
<text text-anchor="middle" x="786.5" y="-63.5" font-family="Helvetica,sans-Serif" font-size="10.00">stddef.h</text>
</a>
</g>
</g>
<!-- Node7&#45;&gt;Node8 -->
<g id="edge8" class="edge">
<title>Node7&#45;&gt;Node8</title>
<path fill="none" stroke="midnightblue" d="M783.74,-168.37C784.22,-150.62 785.34,-109.67 785.99,-85.6"/>
<polygon fill="midnightblue" stroke="midnightblue" points="789.49,-85.68 786.27,-75.59 782.49,-85.49 789.49,-85.68"/>
</g>
<!-- Node9 -->
<g id="node9" class="node">
<title>Node9</title>
<g id="a_node9"><a xlink:href="kernel__defines_8h.html" target="_top" xlink:title="Common macros and compiler attributes/pragmas configuration.">
<polygon fill="none" stroke="black" points="578,-112.5 578,-131.5 675,-131.5 675,-112.5 578,-112.5"/>
<text text-anchor="middle" x="626.5" y="-119.5" font-family="Helvetica,sans-Serif" font-size="10.00">kernel_defines.h</text>
</a>
</g>
</g>
<!-- Node7&#45;&gt;Node9 -->
<g id="edge10" class="edge">
<title>Node7&#45;&gt;Node9</title>
<path fill="none" stroke="midnightblue" d="M758.62,-168.44C732.21,-159.36 690.28,-144.94 660.76,-134.78"/>
<polygon fill="midnightblue" stroke="midnightblue" points="661.86,-131.46 651.26,-131.52 659.58,-138.08 661.86,-131.46"/>
</g>
<!-- Node10 -->
<g id="node10" class="node">
<title>Node10</title>
<g id="a_node10"><a xlink:href="native__sched_8h.html" target="_top" xlink:title="Add definitions required on the native board.">
<polygon fill="none" stroke="black" points="814.5,-112.5 814.5,-131.5 904.5,-131.5 904.5,-112.5 814.5,-112.5"/>
<text text-anchor="middle" x="859.5" y="-119.5" font-family="Helvetica,sans-Serif" font-size="10.00">native_sched.h</text>
</a>
</g>
</g>
<!-- Node7&#45;&gt;Node10 -->
<g id="edge13" class="edge">
<title>Node7&#45;&gt;Node10</title>
<path fill="none" stroke="midnightblue" d="M795.71,-168.32C807.28,-160.11 824.88,-147.6 838.66,-137.81"/>
<polygon fill="midnightblue" stroke="midnightblue" points="840.94,-140.48 847.07,-131.83 836.89,-134.77 840.94,-140.48"/>
</g>
<!-- Node11 -->
<g id="node11" class="node">
<title>Node11</title>
<g id="a_node11"><a xlink:href="clist_8h.html" target="_top" xlink:title="Circular linked list.">
<polygon fill="none" stroke="black" points="922.5,-112.5 922.5,-131.5 968.5,-131.5 968.5,-112.5 922.5,-112.5"/>
<text text-anchor="middle" x="945.5" y="-119.5" font-family="Helvetica,sans-Serif" font-size="10.00">clist.h</text>
</a>
</g>
</g>
<!-- Node7&#45;&gt;Node11 -->
<g id="edge14" class="edge">
<title>Node7&#45;&gt;Node11</title>
<path fill="none" stroke="midnightblue" d="M809.17,-168.44C837.14,-159.12 881.99,-144.17 912.54,-133.99"/>
<polygon fill="midnightblue" stroke="midnightblue" points="913.93,-137.21 922.31,-130.73 911.72,-130.57 913.93,-137.21"/>
</g>
<!-- Node9&#45;&gt;Node3 -->
<g id="edge12" class="edge">
<title>Node9&#45;&gt;Node3</title>
<path fill="none" stroke="midnightblue" d="M599.17,-112.46C536.36,-92.83 381.67,-44.49 310.9,-22.37"/>
<polygon fill="midnightblue" stroke="midnightblue" points="311.68,-18.95 301.09,-19.31 309.59,-25.63 311.68,-18.95"/>
</g>
<!-- Node9&#45;&gt;Node8 -->
<g id="edge11" class="edge">
<title>Node9&#45;&gt;Node8</title>
<path fill="none" stroke="midnightblue" d="M651.85,-112.44C678.77,-103.36 721.5,-88.94 751.59,-78.78"/>
<polygon fill="midnightblue" stroke="midnightblue" points="752.91,-82.03 761.27,-75.52 750.67,-75.4 752.91,-82.03"/>
</g>
<!-- Node11&#45;&gt;Node8 -->
<g id="edge15" class="edge">
<title>Node11&#45;&gt;Node8</title>
<path fill="none" stroke="midnightblue" d="M922.38,-113.15C895.92,-104.16 852.28,-89.34 821.61,-78.92"/>
<polygon fill="midnightblue" stroke="midnightblue" points="822.34,-75.48 811.75,-75.58 820.09,-82.11 822.34,-75.48"/>
</g>
<!-- Node11&#45;&gt;Node12 -->
<g id="edge16" class="edge">
<title>Node11&#45;&gt;Node12</title>
<path fill="none" stroke="midnightblue" d="M948.8,-112.08C951.48,-104.85 955.35,-94.41 958.69,-85.4"/>
<polygon fill="midnightblue" stroke="midnightblue" points="962.07,-86.34 962.26,-75.75 955.5,-83.91 962.07,-86.34"/>
</g>
<!-- Node13&#45;&gt;Node6 -->
<g id="edge18" class="edge">
<title>Node13&#45;&gt;Node6</title>
<path fill="none" stroke="midnightblue" d="M657.51,-168.32C670.03,-159.98 689.18,-147.21 703.97,-137.35"/>
<polygon fill="midnightblue" stroke="midnightblue" points="706.14,-140.11 712.52,-131.65 702.26,-134.29 706.14,-140.11"/>
</g>
<!-- Node13&#45;&gt;Node9 -->
<g id="edge19" class="edge">
<title>Node13&#45;&gt;Node9</title>
<path fill="none" stroke="midnightblue" d="M641.53,-168.08C639.12,-160.85 635.64,-150.41 632.63,-141.4"/>
<polygon fill="midnightblue" stroke="midnightblue" points="635.9,-140.13 629.42,-131.75 629.26,-142.34 635.9,-140.13"/>
</g>
<!-- Node14 -->
<g id="node14" class="node">
<title>Node14</title>
<g id="a_node14"><a xlink:href="ethertype_8h.html" target="_top" xlink:title="Ether type definitions.">
<polygon fill="none" stroke="black" points="363.5,-112.5 363.5,-131.5 455.5,-131.5 455.5,-112.5 363.5,-112.5"/>
<text text-anchor="middle" x="409.5" y="-119.5" font-family="Helvetica,sans-Serif" font-size="10.00">net/ethertype.h</text>
</a>
</g>
</g>
<!-- Node13&#45;&gt;Node14 -->
<g id="edge20" class="edge">
<title>Node13&#45;&gt;Node14</title>
<path fill="none" stroke="midnightblue" d="M607.26,-168.44C566.44,-159.06 500.86,-143.99 456.52,-133.8"/>
<polygon fill="midnightblue" stroke="midnightblue" points="457.09,-130.34 446.56,-131.52 455.52,-137.17 457.09,-130.34"/>
</g>
<!-- Node15 -->
<g id="node15" class="node">
<title>Node15</title>
<g id="a_node15"><a xlink:href="protnum_8h.html" target="_top" xlink:title="Protocol number definitions.">
<polygon fill="none" stroke="black" points="473.5,-112.5 473.5,-131.5 559.5,-131.5 559.5,-112.5 473.5,-112.5"/>
<text text-anchor="middle" x="516.5" y="-119.5" font-family="Helvetica,sans-Serif" font-size="10.00">net/protnum.h</text>
</a>
</g>
</g>
<!-- Node13&#45;&gt;Node15 -->
<g id="edge21" class="edge">
<title>Node13&#45;&gt;Node15</title>
<path fill="none" stroke="midnightblue" d="M624.22,-168.44C603.15,-159.56 569.98,-145.56 546.01,-135.45"/>
<polygon fill="midnightblue" stroke="midnightblue" points="547.26,-132.18 536.69,-131.52 544.54,-138.63 547.26,-132.18"/>
</g>
<!-- Node16&#45;&gt;Node3 -->
<g id="edge24" class="edge">
<title>Node16&#45;&gt;Node3</title>
<path fill="none" stroke="midnightblue" d="M172.67,-224.29C155.05,-196.77 105.84,-110.29 144.5,-56 165.44,-26.59 206.99,-16.22 237.49,-12.66"/>
<polygon fill="midnightblue" stroke="midnightblue" points="238.16,-16.11 247.77,-11.67 237.48,-9.15 238.16,-16.11"/>
</g>
<!-- Node17 -->
<g id="node17" class="node">
<title>Node17</title>
<g id="a_node17"><a xlink:href="ipv6_2ext_2frag_8h.html" target="_top" xlink:title="Fragmentation extension definitions.">
<polygon fill="none" stroke="black" points="178,-168.5 178,-187.5 285,-187.5 285,-168.5 178,-168.5"/>
<text text-anchor="middle" x="231.5" y="-175.5" font-family="Helvetica,sans-Serif" font-size="10.00">net/ipv6/ext/frag.h</text>
</a>
</g>
</g>
<!-- Node16&#45;&gt;Node17 -->
<g id="edge25" class="edge">
<title>Node16&#45;&gt;Node17</title>
<path fill="none" stroke="midnightblue" d="M187.25,-224.08C194.97,-216.22 206.4,-204.57 215.72,-195.08"/>
<polygon fill="midnightblue" stroke="midnightblue" points="218.4,-197.34 222.91,-187.75 213.41,-192.44 218.4,-197.34"/>
</g>
<!-- Node20 -->
<g id="node20" class="node">
<title>Node20</title>
<g id="a_node20"><a xlink:href="ipv6_2ext_2rh_8h.html" target="_top" xlink:title="Routing extension header definitions.">
<polygon fill="none" stroke="black" points="0,-56.5 0,-75.5 97,-75.5 97,-56.5 0,-56.5"/>
<text text-anchor="middle" x="48.5" y="-63.5" font-family="Helvetica,sans-Serif" font-size="10.00">net/ipv6/ext/rh.h</text>
</a>
</g>
</g>
<!-- Node16&#45;&gt;Node20 -->
<g id="edge32" class="edge">
<title>Node16&#45;&gt;Node20</title>
<path fill="none" stroke="midnightblue" d="M161.05,-224.46C146.38,-216.59 125.6,-203.77 111.5,-188 83.46,-156.64 64,-110.55 54.71,-85.26"/>
<polygon fill="midnightblue" stroke="midnightblue" points="58,-84.06 51.36,-75.8 51.4,-86.4 58,-84.06"/>
</g>
<!-- Node17&#45;&gt;Node2 -->
<g id="edge26" class="edge">
<title>Node17&#45;&gt;Node2</title>
<path fill="none" stroke="midnightblue" d="M244.84,-168.32C257.66,-159.98 277.28,-147.21 292.44,-137.35"/>
<polygon fill="midnightblue" stroke="midnightblue" points="294.72,-140.04 301.2,-131.65 290.91,-134.17 294.72,-140.04"/>
</g>
<!-- Node17&#45;&gt;Node3 -->
<g id="edge27" class="edge">
<title>Node17&#45;&gt;Node3</title>
<path fill="none" stroke="midnightblue" d="M233.81,-168.08C240.58,-141.95 260.46,-65.21 269.69,-29.58"/>
<polygon fill="midnightblue" stroke="midnightblue" points="273.16,-30.13 272.28,-19.57 266.38,-28.37 273.16,-30.13"/>
</g>
<!-- Node18 -->
<g id="node18" class="node">
<title>Node18</title>
<g id="a_node18"><a xlink:href="byteorder_8h.html" target="_top" xlink:title="Functions to work with different byte orders.">
<polygon fill="none" stroke="black" points="154,-112.5 154,-131.5 227,-131.5 227,-112.5 154,-112.5"/>
<text text-anchor="middle" x="190.5" y="-119.5" font-family="Helvetica,sans-Serif" font-size="10.00">byteorder.h</text>
</a>
</g>
</g>
<!-- Node17&#45;&gt;Node18 -->
<g id="edge28" class="edge">
<title>Node17&#45;&gt;Node18</title>
<path fill="none" stroke="midnightblue" d="M224.73,-168.08C218.94,-160.46 210.44,-149.26 203.36,-139.94"/>
<polygon fill="midnightblue" stroke="midnightblue" points="205.98,-137.6 197.14,-131.75 200.4,-141.83 205.98,-137.6"/>
</g>
<!-- Node18&#45;&gt;Node3 -->
<g id="edge29" class="edge">
<title>Node18&#45;&gt;Node3</title>
<path fill="none" stroke="midnightblue" d="M200.79,-112.38C210.66,-103.8 225.64,-89.92 236.5,-76 248.04,-61.22 258.57,-42.6 265.61,-29.08"/>
<polygon fill="midnightblue" stroke="midnightblue" points="268.87,-30.38 270.27,-19.88 262.63,-27.22 268.87,-30.38"/>
</g>
<!-- Node19 -->
<g id="node19" class="node">
<title>Node19</title>
<g id="a_node19"><a xlink:href="unaligned_8h.html" target="_top" xlink:title="Unaligned but safe memory access functions.">
<polygon fill="none" stroke="black" points="153.5,-56.5 153.5,-75.5 227.5,-75.5 227.5,-56.5 153.5,-56.5"/>
<text text-anchor="middle" x="190.5" y="-63.5" font-family="Helvetica,sans-Serif" font-size="10.00">unaligned.h</text>
</a>
</g>
</g>
<!-- Node18&#45;&gt;Node19 -->
<g id="edge30" class="edge">
<title>Node18&#45;&gt;Node19</title>
<path fill="none" stroke="midnightblue" d="M190.5,-112.08C190.5,-105.01 190.5,-94.86 190.5,-85.99"/>
<polygon fill="midnightblue" stroke="midnightblue" points="194,-85.75 190.5,-75.75 187,-85.75 194,-85.75"/>
</g>
<!-- Node19&#45;&gt;Node3 -->
<g id="edge31" class="edge">
<title>Node19&#45;&gt;Node3</title>
<path fill="none" stroke="midnightblue" d="M204,-56.32C217.1,-47.9 237.21,-34.97 252.61,-25.07"/>
<polygon fill="midnightblue" stroke="midnightblue" points="254.52,-28.01 261.04,-19.65 250.73,-22.12 254.52,-28.01"/>
</g>
<!-- Node20&#45;&gt;Node3 -->
<g id="edge33" class="edge">
<title>Node20&#45;&gt;Node3</title>
<path fill="none" stroke="midnightblue" d="M84.31,-56.44C126.28,-46.42 195.46,-29.89 237.81,-19.77"/>
<polygon fill="midnightblue" stroke="midnightblue" points="238.79,-23.13 247.7,-17.4 237.16,-16.32 238.79,-23.13"/>
</g>
<!-- Node21&#45;&gt;Node3 -->
<g id="edge35" class="edge">
<title>Node21&#45;&gt;Node3</title>
<path fill="none" stroke="midnightblue" d="M1026.43,-168.22C1028.3,-145.5 1029.74,-84.55 995.5,-56 942.69,-11.97 451.32,-10.35 311.47,-10.79"/>
<polygon fill="midnightblue" stroke="midnightblue" points="311.26,-7.29 301.27,-10.83 311.29,-14.29 311.26,-7.29"/>
</g>
<!-- Node21&#45;&gt;Node6 -->
<g id="edge36" class="edge">
<title>Node21&#45;&gt;Node6</title>
<path fill="none" stroke="midnightblue" d="M998.35,-172.11C946.02,-162.69 830.85,-141.96 768.17,-130.68"/>
<polygon fill="midnightblue" stroke="midnightblue" points="768.68,-127.22 758.21,-128.89 767.44,-134.1 768.68,-127.22"/>
</g>
</g>
</svg>
