<?xml version="1.0" encoding="UTF-8" standalone="no"?>
<!DOCTYPE svg PUBLIC "-//W3C//DTD SVG 1.1//EN"
 "http://www.w3.org/Graphics/SVG/1.1/DTD/svg11.dtd">
<!-- Generated by graphviz version 2.40.1 (20161225.0304)
 -->
<!-- Title: sys/include/net/gnrc/ipv6/ext/frag.h Pages: 1 -->
<svg width="1175pt" height="375pt"
 viewBox="0.00 0.00 1174.50 375.00" xmlns="http://www.w3.org/2000/svg" xmlns:xlink="http://www.w3.org/1999/xlink">
<g id="graph0" class="graph" transform="scale(1 1) rotate(0) translate(4 371)">
<title>sys/include/net/gnrc/ipv6/ext/frag.h</title>
<!-- Node0 -->
<g id="node1" class="node">
<title>Node0</title>
<polygon fill="#bfbfbf" stroke="#000000" points="356,-336.5 356,-366.5 460,-366.5 460,-336.5 356,-336.5"/>
<text text-anchor="start" x="364" y="-354.5" font-family="Helvetica,sans-Serif" font-size="10.00" fill="#000000">sys/include/net/gnrc</text>
<text text-anchor="middle" x="408" y="-343.5" font-family="Helvetica,sans-Serif" font-size="10.00" fill="#000000">/ipv6/ext/frag.h</text>
</g>
<!-- Node1 -->
<g id="node2" class="node">
<title>Node1</title>
<polygon fill="none" stroke="#bfbfbf" points="434,-112.5 434,-131.5 490,-131.5 490,-112.5 434,-112.5"/>
<text text-anchor="middle" x="462" y="-119.5" font-family="Helvetica,sans-Serif" font-size="10.00" fill="#000000">stdbool.h</text>
</g>
<!-- Node0&#45;&gt;Node1 -->
<g id="edge1" class="edge">
<title>Node0&#45;&gt;Node1</title>
<path fill="none" stroke="#191970" d="M411.5431,-336.4419C420.9741,-296.3599 446.6933,-187.0534 457.315,-141.9113"/>
<polygon fill="#191970" stroke="#191970" points="460.7875,-142.434 459.671,-131.8981 453.9736,-140.8306 460.7875,-142.434"/>
</g>
<!-- Node2 -->
<g id="node3" class="node">
<title>Node2</title>
<polygon fill="none" stroke="#bfbfbf" points="262.5,-56.5 262.5,-75.5 311.5,-75.5 311.5,-56.5 262.5,-56.5"/>
<text text-anchor="middle" x="287" y="-63.5" font-family="Helvetica,sans-Serif" font-size="10.00" fill="#000000">stdint.h</text>
</g>
<!-- Node0&#45;&gt;Node2 -->
<g id="edge2" class="edge">
<title>Node0&#45;&gt;Node2</title>
<path fill="none" stroke="#191970" d="M355.7405,-342.4239C268.8224,-325.829 104,-287.3294 104,-234 104,-234 104,-234 104,-178 104,-109.2061 199.2459,-81.3804 252.3101,-71.2161"/>
<polygon fill="#191970" stroke="#191970" points="253.0993,-74.6304 262.3198,-69.4119 251.8575,-67.7414 253.0993,-74.6304"/>
</g>
<!-- Node3 -->
<g id="node4" class="node">
<title>Node3</title>
<g id="a_node4"><a xlink:href="clist_8h.html" target="_top" xlink:title="Circular linked list. ">
<polygon fill="none" stroke="#000000" points="32.5,-280.5 32.5,-299.5 75.5,-299.5 75.5,-280.5 32.5,-280.5"/>
<text text-anchor="middle" x="54" y="-287.5" font-family="Helvetica,sans-Serif" font-size="10.00" fill="#000000">clist.h</text>
</a>
</g>
</g>
<!-- Node0&#45;&gt;Node3 -->
<g id="edge3" class="edge">
<title>Node0&#45;&gt;Node3</title>
<path fill="none" stroke="#191970" d="M355.8924,-344.8601C292.6302,-336.3859 182.8727,-320.3542 90,-300 88.5347,-299.6789 87.0404,-299.3342 85.5343,-298.9727"/>
<polygon fill="#191970" stroke="#191970" points="86.1619,-295.5203 75.6052,-296.4182 84.4177,-302.2995 86.1619,-295.5203"/>
</g>
<!-- Node6 -->
<g id="node7" class="node">
<title>Node6</title>
<g id="a_node7"><a xlink:href="include_2net_2gnrc_2pkt_8h.html" target="_top" xlink:title="General definitions for network packets and their helper functions. ">
<polygon fill="none" stroke="#000000" points="910.5,-168.5 910.5,-187.5 987.5,-187.5 987.5,-168.5 910.5,-168.5"/>
<text text-anchor="middle" x="949" y="-175.5" font-family="Helvetica,sans-Serif" font-size="10.00" fill="#000000">net/gnrc/pkt.h</text>
</a>
</g>
</g>
<!-- Node0&#45;&gt;Node6 -->
<g id="edge6" class="edge">
<title>Node0&#45;&gt;Node6</title>
<path fill="none" stroke="#191970" d="M460.0848,-348.7231C560.4485,-342.8262 776.8317,-327.3092 846,-300 885.0254,-284.5919 896.2077,-277.0931 922,-244 932.6891,-230.2853 939.7764,-211.7528 943.9967,-197.8174"/>
<polygon fill="#191970" stroke="#191970" points="947.4732,-198.379 946.7806,-187.8069 940.7292,-196.5035 947.4732,-198.379"/>
</g>
<!-- Node17 -->
<g id="node18" class="node">
<title>Node17</title>
<g id="a_node18"><a xlink:href="pktbuf_8h.html" target="_top" xlink:title="Interface definition for the global network buffer. ">
<polygon fill="none" stroke="#000000" points="747,-280.5 747,-299.5 837,-299.5 837,-280.5 747,-280.5"/>
<text text-anchor="middle" x="792" y="-287.5" font-family="Helvetica,sans-Serif" font-size="10.00" fill="#000000">net/gnrc/pktbuf.h</text>
</a>
</g>
</g>
<!-- Node0&#45;&gt;Node17 -->
<g id="edge23" class="edge">
<title>Node0&#45;&gt;Node17</title>
<path fill="none" stroke="#191970" d="M460.1876,-343.1418C532.5549,-331.5518 662.7998,-310.6922 736.7566,-298.8476"/>
<polygon fill="#191970" stroke="#191970" points="737.4861,-302.2754 746.8067,-297.238 736.379,-295.3635 737.4861,-302.2754"/>
</g>
<!-- Node27 -->
<g id="node28" class="node">
<title>Node27</title>
<g id="a_node28"><a xlink:href="net_2ipv6_2hdr_8h.html" target="_top" xlink:title="IPv6 header type and helper function definitions. ">
<polygon fill="none" stroke="#000000" points="283,-280.5 283,-299.5 359,-299.5 359,-280.5 283,-280.5"/>
<text text-anchor="middle" x="321" y="-287.5" font-family="Helvetica,sans-Serif" font-size="10.00" fill="#000000">net/ipv6/hdr.h</text>
</a>
</g>
</g>
<!-- Node0&#45;&gt;Node27 -->
<g id="edge44" class="edge">
<title>Node0&#45;&gt;Node27</title>
<path fill="none" stroke="#191970" d="M386.4944,-336.2977C373.2032,-326.9022 356.1943,-314.8787 342.8412,-305.4395"/>
<polygon fill="#191970" stroke="#191970" points="344.8561,-302.5776 334.67,-299.6633 340.8154,-308.2937 344.8561,-302.5776"/>
</g>
<!-- Node4 -->
<g id="node5" class="node">
<title>Node4</title>
<polygon fill="none" stroke="#bfbfbf" points="660,-.5 660,-19.5 712,-19.5 712,-.5 660,-.5"/>
<text text-anchor="middle" x="686" y="-7.5" font-family="Helvetica,sans-Serif" font-size="10.00" fill="#000000">stddef.h</text>
</g>
<!-- Node3&#45;&gt;Node4 -->
<g id="edge4" class="edge">
<title>Node3&#45;&gt;Node4</title>
<path fill="none" stroke="#191970" d="M55.7193,-280.4486C59.0374,-261.1572 66,-216.1337 66,-178 66,-178 66,-178 66,-122 66,-33.8643 167.0382,-75.4544 253,-56 397.4168,-23.3163 574.318,-13.7178 649.4558,-11.0118"/>
<polygon fill="#191970" stroke="#191970" points="649.912,-14.4985 659.7873,-10.6607 649.6742,-7.5025 649.912,-14.4985"/>
</g>
<!-- Node5 -->
<g id="node6" class="node">
<title>Node5</title>
<g id="a_node6"><a xlink:href="list_8h.html" target="_top" xlink:title="Intrusive linked list. ">
<polygon fill="none" stroke="#000000" points="0,-224.5 0,-243.5 38,-243.5 38,-224.5 0,-224.5"/>
<text text-anchor="middle" x="19" y="-231.5" font-family="Helvetica,sans-Serif" font-size="10.00" fill="#000000">list.h</text>
</a>
</g>
</g>
<!-- Node3&#45;&gt;Node5 -->
<g id="edge5" class="edge">
<title>Node3&#45;&gt;Node5</title>
<path fill="none" stroke="#191970" d="M47.9035,-280.2455C43.0855,-272.5367 36.2249,-261.5598 30.3968,-252.2348"/>
<polygon fill="#191970" stroke="#191970" points="33.2947,-250.2677 25.0267,-243.6427 27.3587,-253.9777 33.2947,-250.2677"/>
</g>
<!-- Node7 -->
<g id="node8" class="node">
<title>Node7</title>
<g id="a_node8"><a xlink:href="inttypes_8h.html" target="_top" xlink:title="Adds include for missing inttype definitions. ">
<polygon fill="none" stroke="#000000" points="733.5,-56.5 733.5,-75.5 792.5,-75.5 792.5,-56.5 733.5,-56.5"/>
<text text-anchor="middle" x="763" y="-63.5" font-family="Helvetica,sans-Serif" font-size="10.00" fill="#000000">inttypes.h</text>
</a>
</g>
</g>
<!-- Node6&#45;&gt;Node7 -->
<g id="edge7" class="edge">
<title>Node6&#45;&gt;Node7</title>
<path fill="none" stroke="#191970" d="M915.407,-168.4208C891.3432,-160.6897 858.7708,-148.4008 833,-132 811.7971,-118.5063 791.336,-98.0738 778.0696,-83.521"/>
<polygon fill="#191970" stroke="#191970" points="780.4001,-80.8747 771.1388,-75.7289 775.1697,-85.527 780.4001,-80.8747"/>
</g>
<!-- Node8 -->
<g id="node9" class="node">
<title>Node8</title>
<g id="a_node9"><a xlink:href="stdlib_8h.html" target="_top" xlink:title="stdlib.h wrapper for MSP430 ">
<polygon fill="none" stroke="#000000" points="1073,-112.5 1073,-131.5 1121,-131.5 1121,-112.5 1073,-112.5"/>
<text text-anchor="middle" x="1097" y="-119.5" font-family="Helvetica,sans-Serif" font-size="10.00" fill="#000000">stdlib.h</text>
</a>
</g>
</g>
<!-- Node6&#45;&gt;Node8 -->
<g id="edge8" class="edge">
<title>Node6&#45;&gt;Node8</title>
<path fill="none" stroke="#191970" d="M974.4421,-168.3733C999.0271,-159.0708 1036.4145,-144.9242 1063.4293,-134.7024"/>
<polygon fill="#191970" stroke="#191970" points="1064.7557,-137.9428 1072.8699,-131.1303 1062.2784,-131.3958 1064.7557,-137.9428"/>
</g>
<!-- Node10 -->
<g id="node11" class="node">
<title>Node10</title>
<g id="a_node11"><a xlink:href="kernel__types_8h.html" target="_top" xlink:title="Types used by the kernel. ">
<polygon fill="none" stroke="#000000" points="602,-112.5 602,-131.5 682,-131.5 682,-112.5 602,-112.5"/>
<text text-anchor="middle" x="642" y="-119.5" font-family="Helvetica,sans-Serif" font-size="10.00" fill="#000000">kernel_types.h</text>
</a>
</g>
</g>
<!-- Node6&#45;&gt;Node10 -->
<g id="edge11" class="edge">
<title>Node6&#45;&gt;Node10</title>
<path fill="none" stroke="#191970" d="M910.251,-169.8038C907.1238,-169.18 904.0107,-168.5715 901,-168 811.0554,-150.9268 785.7326,-149.5461 691.9963,-132.1404"/>
<polygon fill="#191970" stroke="#191970" points="692.564,-128.6859 682.0912,-130.289 691.2779,-135.5668 692.564,-128.6859"/>
</g>
<!-- Node13 -->
<g id="node14" class="node">
<title>Node13</title>
<g id="a_node14"><a xlink:href="nettype_8h.html" target="_top" xlink:title="Protocol type definitions. ">
<polygon fill="none" stroke="#000000" points="908.5,-112.5 908.5,-131.5 1003.5,-131.5 1003.5,-112.5 908.5,-112.5"/>
<text text-anchor="middle" x="956" y="-119.5" font-family="Helvetica,sans-Serif" font-size="10.00" fill="#000000">net/gnrc/nettype.h</text>
</a>
</g>
</g>
<!-- Node6&#45;&gt;Node13 -->
<g id="edge17" class="edge">
<title>Node6&#45;&gt;Node13</title>
<path fill="none" stroke="#191970" d="M950.2193,-168.2455C951.1327,-160.9382 952.4132,-150.6944 953.5369,-141.7046"/>
<polygon fill="#191970" stroke="#191970" points="957.0272,-141.9996 954.7947,-131.6427 950.0813,-141.1313 957.0272,-141.9996"/>
</g>
<!-- Node9 -->
<g id="node10" class="node">
<title>Node9</title>
<g id="a_node10"><a xlink:href="malloc_8h.html" target="_top" xlink:title="malloc.h">
<polygon fill="none" stroke="#000000" points="1113.5,-56.5 1113.5,-75.5 1166.5,-75.5 1166.5,-56.5 1113.5,-56.5"/>
<text text-anchor="middle" x="1140" y="-63.5" font-family="Helvetica,sans-Serif" font-size="10.00" fill="#000000">malloc.h</text>
</a>
</g>
</g>
<!-- Node8&#45;&gt;Node9 -->
<g id="edge9" class="edge">
<title>Node8&#45;&gt;Node9</title>
<path fill="none" stroke="#191970" d="M1099.2232,-112.2455C1103.8385,-104.2155 1112.3926,-92.6394 1120.6153,-83.0781"/>
<polygon fill="#191970" stroke="#191970" points="1123.2311,-85.4038 1127.3507,-75.6427 1118.0431,-80.7043 1123.2311,-85.4038"/>
</g>
<!-- Node9&#45;&gt;Node8 -->
<g id="edge10" class="edge">
<title>Node9&#45;&gt;Node8</title>
<path fill="none" stroke="#191970" d="M1137.8409,-75.6427C1133.2623,-83.6396 1124.7252,-95.2085 1116.4995,-104.7884"/>
<polygon fill="#191970" stroke="#191970" points="1113.8675,-102.4806 1109.7569,-112.2455 1119.0598,-107.1754 1113.8675,-102.4806"/>
</g>
<!-- Node10&#45;&gt;Node2 -->
<g id="edge12" class="edge">
<title>Node10&#45;&gt;Node2</title>
<path fill="none" stroke="#191970" d="M601.9204,-114.4329C597.2313,-113.5905 592.5126,-112.7624 588,-112 491.7762,-95.7419 377.8099,-79.0118 321.725,-70.9445"/>
<polygon fill="#191970" stroke="#191970" points="322.0183,-67.4508 311.6226,-69.4951 321.0242,-74.3798 322.0183,-67.4508"/>
</g>
<!-- Node10&#45;&gt;Node4 -->
<g id="edge15" class="edge">
<title>Node10&#45;&gt;Node4</title>
<path fill="none" stroke="#191970" d="M645.7514,-112.4509C652.9927,-94.0186 669.0186,-53.2254 678.5188,-29.043"/>
<polygon fill="#191970" stroke="#191970" points="681.8591,-30.1122 682.2581,-19.5249 675.3439,-27.5526 681.8591,-30.1122"/>
</g>
<!-- Node10&#45;&gt;Node7 -->
<g id="edge13" class="edge">
<title>Node10&#45;&gt;Node7</title>
<path fill="none" stroke="#191970" d="M662.8006,-112.3733C682.2243,-103.3838 711.4224,-89.8706 733.2964,-79.7471"/>
<polygon fill="#191970" stroke="#191970" points="734.8656,-82.8776 742.4708,-75.5011 731.9255,-76.5249 734.8656,-82.8776"/>
</g>
<!-- Node11 -->
<g id="node12" class="node">
<title>Node11</title>
<polygon fill="none" stroke="#bfbfbf" points="505,-56.5 505,-75.5 553,-75.5 553,-56.5 505,-56.5"/>
<text text-anchor="middle" x="529" y="-63.5" font-family="Helvetica,sans-Serif" font-size="10.00" fill="#000000">limits.h</text>
</g>
<!-- Node10&#45;&gt;Node11 -->
<g id="edge14" class="edge">
<title>Node10&#45;&gt;Node11</title>
<path fill="none" stroke="#191970" d="M622.5746,-112.3733C604.5979,-103.4644 577.6559,-90.1127 557.291,-80.0203"/>
<polygon fill="#191970" stroke="#191970" points="558.6861,-76.8055 548.1719,-75.5011 555.5778,-83.0776 558.6861,-76.8055"/>
</g>
<!-- Node12 -->
<g id="node13" class="node">
<title>Node12</title>
<polygon fill="none" stroke="#bfbfbf" points="571,-56.5 571,-75.5 639,-75.5 639,-56.5 571,-56.5"/>
<text text-anchor="middle" x="605" y="-63.5" font-family="Helvetica,sans-Serif" font-size="10.00" fill="#000000">sys/types.h</text>
</g>
<!-- Node10&#45;&gt;Node12 -->
<g id="edge16" class="edge">
<title>Node10&#45;&gt;Node12</title>
<path fill="none" stroke="#191970" d="M635.5551,-112.2455C630.4618,-104.5367 623.2092,-93.5598 617.048,-84.2348"/>
<polygon fill="#191970" stroke="#191970" points="619.8038,-82.0566 611.3711,-75.6427 613.9635,-85.9155 619.8038,-82.0566"/>
</g>
<!-- Node13&#45;&gt;Node7 -->
<g id="edge18" class="edge">
<title>Node13&#45;&gt;Node7</title>
<path fill="none" stroke="#191970" d="M922.8221,-112.3733C889.4704,-102.6961 838.0512,-87.7765 802.588,-77.4867"/>
<polygon fill="#191970" stroke="#191970" points="803.1644,-74.0096 792.5851,-74.5843 801.2137,-80.7323 803.1644,-74.0096"/>
</g>
<!-- Node14 -->
<g id="node15" class="node">
<title>Node14</title>
<g id="a_node15"><a xlink:href="kernel__defines_8h.html" target="_top" xlink:title="Common macros and compiler attributes/pragmas configuration. ">
<polygon fill="none" stroke="#000000" points="811,-56.5 811,-75.5 899,-75.5 899,-56.5 811,-56.5"/>
<text text-anchor="middle" x="855" y="-63.5" font-family="Helvetica,sans-Serif" font-size="10.00" fill="#000000">kernel_defines.h</text>
</a>
</g>
</g>
<!-- Node13&#45;&gt;Node14 -->
<g id="edge19" class="edge">
<title>Node13&#45;&gt;Node14</title>
<path fill="none" stroke="#191970" d="M938.4071,-112.2455C922.621,-103.4928 899.2361,-90.527 881.2413,-80.5496"/>
<polygon fill="#191970" stroke="#191970" points="882.8341,-77.4308 872.3913,-75.6427 879.4397,-83.5528 882.8341,-77.4308"/>
</g>
<!-- Node15 -->
<g id="node16" class="node">
<title>Node15</title>
<g id="a_node16"><a xlink:href="ethertype_8h.html" target="_top" xlink:title="Ether type definitions. ">
<polygon fill="none" stroke="#000000" points="1013,-56.5 1013,-75.5 1095,-75.5 1095,-56.5 1013,-56.5"/>
<text text-anchor="middle" x="1054" y="-63.5" font-family="Helvetica,sans-Serif" font-size="10.00" fill="#000000">net/ethertype.h</text>
</a>
</g>
</g>
<!-- Node13&#45;&gt;Node15 -->
<g id="edge21" class="edge">
<title>Node13&#45;&gt;Node15</title>
<path fill="none" stroke="#191970" d="M973.0703,-112.2455C988.247,-103.5731 1010.6621,-90.7645 1028.0563,-80.825"/>
<polygon fill="#191970" stroke="#191970" points="1030.1794,-83.643 1037.1253,-75.6427 1026.7064,-77.5653 1030.1794,-83.643"/>
</g>
<!-- Node16 -->
<g id="node17" class="node">
<title>Node16</title>
<g id="a_node17"><a xlink:href="protnum_8h.html" target="_top" xlink:title="Protocol number definitions. ">
<polygon fill="none" stroke="#000000" points="917.5,-56.5 917.5,-75.5 994.5,-75.5 994.5,-56.5 917.5,-56.5"/>
<text text-anchor="middle" x="956" y="-63.5" font-family="Helvetica,sans-Serif" font-size="10.00" fill="#000000">net/protnum.h</text>
</a>
</g>
</g>
<!-- Node13&#45;&gt;Node16 -->
<g id="edge22" class="edge">
<title>Node13&#45;&gt;Node16</title>
<path fill="none" stroke="#191970" d="M956,-112.2455C956,-104.9382 956,-94.6944 956,-85.7046"/>
<polygon fill="#191970" stroke="#191970" points="959.5001,-85.6426 956,-75.6427 952.5001,-85.6427 959.5001,-85.6426"/>
</g>
<!-- Node14&#45;&gt;Node4 -->
<g id="edge20" class="edge">
<title>Node14&#45;&gt;Node4</title>
<path fill="none" stroke="#191970" d="M825.9479,-56.3733C797.0793,-46.8073 752.7519,-32.119 721.7419,-21.8435"/>
<polygon fill="#191970" stroke="#191970" points="722.7715,-18.4976 712.1782,-18.6744 720.5697,-25.1423 722.7715,-18.4976"/>
</g>
<!-- Node17&#45;&gt;Node1 -->
<g id="edge24" class="edge">
<title>Node17&#45;&gt;Node1</title>
<path fill="none" stroke="#191970" d="M746.6603,-281.2669C689.2057,-268.4688 589.218,-240.2601 519,-188 501.0665,-174.6529 484.8578,-154.7458 474.3503,-140.2864"/>
<polygon fill="#191970" stroke="#191970" points="476.9235,-137.861 468.3079,-131.6948 471.1978,-141.8879 476.9235,-137.861"/>
</g>
<!-- Node17&#45;&gt;Node6 -->
<g id="edge28" class="edge">
<title>Node17&#45;&gt;Node6</title>
<path fill="none" stroke="#191970" d="M825.3578,-280.3615C847.4757,-272.8635 876.3081,-260.876 898,-244 914.8759,-230.8708 929.2509,-210.9302 938.3958,-196.4035"/>
<polygon fill="#191970" stroke="#191970" points="941.4404,-198.1325 943.6237,-187.7651 935.4517,-194.5082 941.4404,-198.1325"/>
</g>
<!-- Node17&#45;&gt;Node8 -->
<g id="edge25" class="edge">
<title>Node17&#45;&gt;Node8</title>
<path fill="none" stroke="#191970" d="M837.1538,-284.8158C874.6279,-279.0386 928.3341,-267.2574 970,-244 1018.6897,-216.822 1062.4633,-166.4466 1083.6126,-139.7215"/>
<polygon fill="#191970" stroke="#191970" points="1086.5246,-141.678 1089.8921,-131.6325 1080.9952,-137.3855 1086.5246,-141.678"/>
</g>
<!-- Node17&#45;&gt;Node13 -->
<g id="edge39" class="edge">
<title>Node17&#45;&gt;Node13</title>
<path fill="none" stroke="#191970" d="M837.2432,-283.243C887.7796,-272.878 966.3783,-247.564 996,-188 1004.759,-170.3872 990.3162,-151.2692 976.4027,-138.1652"/>
<polygon fill="#191970" stroke="#191970" points="978.6999,-135.5245 968.8782,-131.5516 974.0787,-140.7823 978.6999,-135.5245"/>
</g>
<!-- Node18 -->
<g id="node19" class="node">
<title>Node18</title>
<polygon fill="none" stroke="#bfbfbf" points="384.5,-168.5 384.5,-187.5 433.5,-187.5 433.5,-168.5 384.5,-168.5"/>
<text text-anchor="middle" x="409" y="-175.5" font-family="Helvetica,sans-Serif" font-size="10.00" fill="#000000">string.h</text>
</g>
<!-- Node17&#45;&gt;Node18 -->
<g id="edge26" class="edge">
<title>Node17&#45;&gt;Node18</title>
<path fill="none" stroke="#191970" d="M746.6719,-287.0755C692.3673,-282.4792 599.2893,-271.0995 524,-244 489.1631,-231.4609 452.7062,-208.6253 430.4163,-193.3811"/>
<polygon fill="#191970" stroke="#191970" points="432.2585,-190.3989 422.0513,-187.5592 428.2597,-196.1444 432.2585,-190.3989"/>
</g>
<!-- Node19 -->
<g id="node20" class="node">
<title>Node19</title>
<polygon fill="none" stroke="#bfbfbf" points="759.5,-224.5 759.5,-243.5 824.5,-243.5 824.5,-224.5 759.5,-224.5"/>
<text text-anchor="middle" x="792" y="-231.5" font-family="Helvetica,sans-Serif" font-size="10.00" fill="#000000">cpu_conf.h</text>
</g>
<!-- Node17&#45;&gt;Node19 -->
<g id="edge27" class="edge">
<title>Node17&#45;&gt;Node19</title>
<path fill="none" stroke="#191970" d="M792,-280.2455C792,-272.9382 792,-262.6944 792,-253.7046"/>
<polygon fill="#191970" stroke="#191970" points="795.5001,-253.6426 792,-243.6427 788.5001,-253.6427 795.5001,-253.6426"/>
</g>
<!-- Node20 -->
<g id="node21" class="node">
<title>Node20</title>
<g id="a_node21"><a xlink:href="neterr_8h.html" target="_top" xlink:title="Error reporting definitions. ">
<polygon fill="none" stroke="#000000" points="653,-224.5 653,-243.5 741,-243.5 741,-224.5 653,-224.5"/>
<text text-anchor="middle" x="697" y="-231.5" font-family="Helvetica,sans-Serif" font-size="10.00" fill="#000000">net/gnrc/neterr.h</text>
</a>
</g>
</g>
<!-- Node17&#45;&gt;Node20 -->
<g id="edge29" class="edge">
<title>Node17&#45;&gt;Node20</title>
<path fill="none" stroke="#191970" d="M775.4523,-280.2455C760.7401,-271.5731 739.0112,-258.7645 722.1495,-248.825"/>
<polygon fill="#191970" stroke="#191970" points="723.7502,-245.7057 713.3581,-243.6427 720.1954,-251.736 723.7502,-245.7057"/>
</g>
<!-- Node24 -->
<g id="node25" class="node">
<title>Node24</title>
<g id="a_node25"><a xlink:href="utlist_8h.html" target="_top" xlink:title="Macros for basic linked list operations. ">
<polygon fill="none" stroke="#000000" points="843,-224.5 843,-243.5 889,-243.5 889,-224.5 843,-224.5"/>
<text text-anchor="middle" x="866" y="-231.5" font-family="Helvetica,sans-Serif" font-size="10.00" fill="#000000">utlist.h</text>
</a>
</g>
</g>
<!-- Node17&#45;&gt;Node24 -->
<g id="edge40" class="edge">
<title>Node17&#45;&gt;Node24</title>
<path fill="none" stroke="#191970" d="M804.8898,-280.2455C815.9254,-271.8943 832.0292,-259.7076 844.9353,-249.9408"/>
<polygon fill="#191970" stroke="#191970" points="847.3959,-252.4681 853.2579,-243.6427 843.1717,-246.8862 847.3959,-252.4681"/>
</g>
<!-- Node20&#45;&gt;Node2 -->
<g id="edge31" class="edge">
<title>Node20&#45;&gt;Node2</title>
<path fill="none" stroke="#191970" d="M686.6499,-224.2397C661.1997,-200.8275 592.6307,-141.2563 524,-112 455.8934,-82.9671 368.9377,-72.099 321.5706,-68.1508"/>
<polygon fill="#191970" stroke="#191970" points="321.7696,-64.6558 311.528,-67.3689 321.2261,-71.6347 321.7696,-64.6558"/>
</g>
<!-- Node20&#45;&gt;Node6 -->
<g id="edge37" class="edge">
<title>Node20&#45;&gt;Node6</title>
<path fill="none" stroke="#191970" d="M740.034,-224.4369C784.5621,-214.5418 853.9757,-199.1165 900.4399,-188.7911"/>
<polygon fill="#191970" stroke="#191970" points="901.2758,-192.1909 910.2783,-186.6048 899.7572,-185.3575 901.2758,-192.1909"/>
</g>
<!-- Node20&#45;&gt;Node10 -->
<g id="edge32" class="edge">
<title>Node20&#45;&gt;Node10</title>
<path fill="none" stroke="#191970" d="M692.3107,-224.4509C683.2186,-205.936 663.0469,-164.8591 651.1922,-140.7187"/>
<polygon fill="#191970" stroke="#191970" points="654.227,-138.9582 646.6774,-131.5249 647.9437,-142.0438 654.227,-138.9582"/>
</g>
<!-- Node21 -->
<g id="node22" class="node">
<title>Node21</title>
<g id="a_node22"><a xlink:href="errno_8h.html" target="_top" xlink:title="errno.h">
<polygon fill="none" stroke="#000000" points="774.5,-168.5 774.5,-187.5 821.5,-187.5 821.5,-168.5 774.5,-168.5"/>
<text text-anchor="middle" x="798" y="-175.5" font-family="Helvetica,sans-Serif" font-size="10.00" fill="#000000">errno.h</text>
</a>
</g>
</g>
<!-- Node20&#45;&gt;Node21 -->
<g id="edge30" class="edge">
<title>Node20&#45;&gt;Node21</title>
<path fill="none" stroke="#191970" d="M714.5929,-224.2455C730.379,-215.4928 753.7639,-202.527 771.7587,-192.5496"/>
<polygon fill="#191970" stroke="#191970" points="773.5603,-195.5528 780.6087,-187.6427 770.1659,-189.4308 773.5603,-195.5528"/>
</g>
<!-- Node22 -->
<g id="node23" class="node">
<title>Node22</title>
<g id="a_node23"><a xlink:href="msg_8h.html" target="_top" xlink:title="Messaging API for inter process communication. ">
<polygon fill="none" stroke="#000000" points="528,-168.5 528,-187.5 572,-187.5 572,-168.5 528,-168.5"/>
<text text-anchor="middle" x="550" y="-175.5" font-family="Helvetica,sans-Serif" font-size="10.00" fill="#000000">msg.h</text>
</a>
</g>
</g>
<!-- Node20&#45;&gt;Node22 -->
<g id="edge33" class="edge">
<title>Node20&#45;&gt;Node22</title>
<path fill="none" stroke="#191970" d="M671.7298,-224.3733C646.7261,-214.848 608.3899,-200.2438 581.4338,-189.9748"/>
<polygon fill="#191970" stroke="#191970" points="582.6542,-186.6944 572.0633,-186.4051 580.1622,-193.2358 582.6542,-186.6944"/>
</g>
<!-- Node23 -->
<g id="node24" class="node">
<title>Node23</title>
<polygon fill="none" stroke="#bfbfbf" points="704,-168.5 704,-187.5 756,-187.5 756,-168.5 704,-168.5"/>
<text text-anchor="middle" x="730" y="-175.5" font-family="Helvetica,sans-Serif" font-size="10.00" fill="#000000">thread.h</text>
</g>
<!-- Node20&#45;&gt;Node23 -->
<g id="edge38" class="edge">
<title>Node20&#45;&gt;Node23</title>
<path fill="none" stroke="#191970" d="M702.7482,-224.2455C707.2435,-216.617 713.6248,-205.7881 719.0825,-196.5267"/>
<polygon fill="#191970" stroke="#191970" points="722.2561,-198.035 724.3177,-187.6427 716.2253,-194.4811 722.2561,-198.035"/>
</g>
<!-- Node22&#45;&gt;Node1 -->
<g id="edge35" class="edge">
<title>Node22&#45;&gt;Node1</title>
<path fill="none" stroke="#191970" d="M534.6716,-168.2455C521.1697,-159.6534 501.2878,-147.0014 485.7314,-137.1018"/>
<polygon fill="#191970" stroke="#191970" points="487.4685,-134.0587 477.1528,-131.6427 483.7103,-139.9643 487.4685,-134.0587"/>
</g>
<!-- Node22&#45;&gt;Node2 -->
<g id="edge34" class="edge">
<title>Node22&#45;&gt;Node2</title>
<path fill="none" stroke="#191970" d="M545.2651,-168.1715C537.6595,-153.4943 521.2831,-126.0727 499,-112 469.8793,-93.6091 374.156,-78.0168 321.8629,-70.6116"/>
<polygon fill="#191970" stroke="#191970" points="322.0962,-67.1104 311.7094,-69.1994 321.1319,-74.0437 322.0962,-67.1104"/>
</g>
<!-- Node22&#45;&gt;Node10 -->
<g id="edge36" class="edge">
<title>Node22&#45;&gt;Node10</title>
<path fill="none" stroke="#191970" d="M566.0252,-168.2455C580.1408,-159.6534 600.9263,-147.0014 617.1899,-137.1018"/>
<polygon fill="#191970" stroke="#191970" points="619.4363,-139.8319 626.1585,-131.6427 615.7966,-133.8525 619.4363,-139.8319"/>
</g>
<!-- Node25 -->
<g id="node26" class="node">
<title>Node25</title>
<g id="a_node26"><a xlink:href="assert_8h.html" target="_top" xlink:title="POSIX.1&#45;2008 compliant version of the assert macro. ">
<polygon fill="none" stroke="#000000" points="840,-168.5 840,-187.5 892,-187.5 892,-168.5 840,-168.5"/>
<text text-anchor="middle" x="866" y="-175.5" font-family="Helvetica,sans-Serif" font-size="10.00" fill="#000000">assert.h</text>
</a>
</g>
</g>
<!-- Node24&#45;&gt;Node25 -->
<g id="edge41" class="edge">
<title>Node24&#45;&gt;Node25</title>
<path fill="none" stroke="#191970" d="M866,-224.2455C866,-216.9382 866,-206.6944 866,-197.7046"/>
<polygon fill="#191970" stroke="#191970" points="869.5001,-197.6426 866,-187.6427 862.5001,-197.6427 869.5001,-197.6426"/>
</g>
<!-- Node26 -->
<g id="node27" class="node">
<title>Node26</title>
<g id="a_node27"><a xlink:href="panic_8h.html" target="_top" xlink:title="Crash handling header. ">
<polygon fill="none" stroke="#000000" points="842,-112.5 842,-131.5 890,-131.5 890,-112.5 842,-112.5"/>
<text text-anchor="middle" x="866" y="-119.5" font-family="Helvetica,sans-Serif" font-size="10.00" fill="#000000">panic.h</text>
</a>
</g>
</g>
<!-- Node25&#45;&gt;Node26 -->
<g id="edge42" class="edge">
<title>Node25&#45;&gt;Node26</title>
<path fill="none" stroke="#191970" d="M866,-168.2455C866,-160.9382 866,-150.6944 866,-141.7046"/>
<polygon fill="#191970" stroke="#191970" points="869.5001,-141.6426 866,-131.6427 862.5001,-141.6427 869.5001,-141.6426"/>
</g>
<!-- Node26&#45;&gt;Node14 -->
<g id="edge43" class="edge">
<title>Node26&#45;&gt;Node14</title>
<path fill="none" stroke="#191970" d="M864.0839,-112.2455C862.6486,-104.9382 860.6364,-94.6944 858.8705,-85.7046"/>
<polygon fill="#191970" stroke="#191970" points="862.256,-84.7805 856.8941,-75.6427 855.3873,-86.1298 862.256,-84.7805"/>
</g>
<!-- Node27&#45;&gt;Node2 -->
<g id="edge45" class="edge">
<title>Node27&#45;&gt;Node2</title>
<path fill="none" stroke="#191970" d="M297.3316,-280.3411C280.3446,-272.4993 257.762,-260.1079 242,-244 202.2076,-203.3343 194.23,-187.0876 180,-132 177.7768,-123.3936 175.1109,-119.4236 180,-112 195.8621,-87.9149 227.2618,-76.3888 251.9626,-70.9035"/>
<polygon fill="#191970" stroke="#191970" points="252.943,-74.2775 262.0738,-68.9035 251.5847,-67.4105 252.943,-74.2775"/>
</g>
<!-- Node28 -->
<g id="node29" class="node">
<title>Node28</title>
<g id="a_node29"><a xlink:href="byteorder_8h.html" target="_top" xlink:title="Functions to work with different byte orders. ">
<polygon fill="none" stroke="#000000" points="189.5,-112.5 189.5,-131.5 254.5,-131.5 254.5,-112.5 189.5,-112.5"/>
<text text-anchor="middle" x="222" y="-119.5" font-family="Helvetica,sans-Serif" font-size="10.00" fill="#000000">byteorder.h</text>
</a>
</g>
</g>
<!-- Node27&#45;&gt;Node28 -->
<g id="edge46" class="edge">
<title>Node27&#45;&gt;Node28</title>
<path fill="none" stroke="#191970" d="M306.0989,-280.3035C283.1212,-264.3264 240.0193,-230.0142 224,-188 218.3844,-173.2718 218.2242,-155.3248 219.2791,-141.8656"/>
<polygon fill="#191970" stroke="#191970" points="222.7739,-142.1002 220.358,-131.7845 215.8137,-141.3553 222.7739,-142.1002"/>
</g>
<!-- Node29 -->
<g id="node30" class="node">
<title>Node29</title>
<g id="a_node30"><a xlink:href="inet__csum_8h.html" target="_top" xlink:title="Internet Checksum definitions. ">
<polygon fill="none" stroke="#000000" points="700,-112.5 700,-131.5 786,-131.5 786,-112.5 700,-112.5"/>
<text text-anchor="middle" x="743" y="-119.5" font-family="Helvetica,sans-Serif" font-size="10.00" fill="#000000">net/inet_csum.h</text>
</a>
</g>
</g>
<!-- Node27&#45;&gt;Node29 -->
<g id="edge48" class="edge">
<title>Node27&#45;&gt;Node29</title>
<path fill="none" stroke="#191970" d="M345.7782,-280.4029C392.0647,-262.4479 494.7816,-222.4734 581,-188 625.8496,-170.0674 677.5007,-148.942 710.1908,-135.5128"/>
<polygon fill="#191970" stroke="#191970" points="711.7806,-138.6435 719.6988,-131.6042 709.119,-132.1692 711.7806,-138.6435"/>
</g>
<!-- Node30 -->
<g id="node31" class="node">
<title>Node30</title>
<g id="a_node31"><a xlink:href="ipv6_2addr_8h.html" target="_top" xlink:title="Definitions for IPv6 addresses. ">
<polygon fill="none" stroke="#000000" points="280.5,-224.5 280.5,-243.5 361.5,-243.5 361.5,-224.5 280.5,-224.5"/>
<text text-anchor="middle" x="321" y="-231.5" font-family="Helvetica,sans-Serif" font-size="10.00" fill="#000000">net/ipv6/addr.h</text>
</a>
</g>
</g>
<!-- Node27&#45;&gt;Node30 -->
<g id="edge51" class="edge">
<title>Node27&#45;&gt;Node30</title>
<path fill="none" stroke="#191970" d="M321,-280.2455C321,-272.9382 321,-262.6944 321,-253.7046"/>
<polygon fill="#191970" stroke="#191970" points="324.5001,-253.6426 321,-243.6427 317.5001,-253.6427 324.5001,-253.6426"/>
</g>
<!-- Node28&#45;&gt;Node2 -->
<g id="edge47" class="edge">
<title>Node28&#45;&gt;Node2</title>
<path fill="none" stroke="#191970" d="M233.3221,-112.2455C242.9223,-103.9746 256.8892,-91.9416 268.1695,-82.2232"/>
<polygon fill="#191970" stroke="#191970" points="270.516,-84.8214 275.8076,-75.6427 265.947,-79.5182 270.516,-84.8214"/>
</g>
<!-- Node29&#45;&gt;Node4 -->
<g id="edge50" class="edge">
<title>Node29&#45;&gt;Node4</title>
<path fill="none" stroke="#191970" d="M738.1402,-112.4509C728.7174,-93.936 707.8122,-52.8591 695.5265,-28.7187"/>
<polygon fill="#191970" stroke="#191970" points="698.5025,-26.8496 690.8475,-19.5249 692.2639,-30.0246 698.5025,-26.8496"/>
</g>
<!-- Node29&#45;&gt;Node7 -->
<g id="edge49" class="edge">
<title>Node29&#45;&gt;Node7</title>
<path fill="none" stroke="#191970" d="M746.4837,-112.2455C749.1508,-104.7776 752.9133,-94.2427 756.1737,-85.1137"/>
<polygon fill="#191970" stroke="#191970" points="759.4889,-86.2373 759.5562,-75.6427 752.8967,-83.8829 759.4889,-86.2373"/>
</g>
<!-- Node30&#45;&gt;Node1 -->
<g id="edge52" class="edge">
<title>Node30&#45;&gt;Node1</title>
<path fill="none" stroke="#191970" d="M326.9986,-224.4649C336.057,-210.6488 354.3748,-184.8748 375,-168 391.0284,-154.8861 411.3825,-143.8782 428.3727,-135.9218"/>
<polygon fill="#191970" stroke="#191970" points="430.262,-138.9086 437.9295,-131.5969 427.3759,-132.5312 430.262,-138.9086"/>
</g>
<!-- Node30&#45;&gt;Node18 -->
<g id="edge53" class="edge">
<title>Node30&#45;&gt;Node18</title>
<path fill="none" stroke="#191970" d="M336.3284,-224.2455C349.8303,-215.6534 369.7122,-203.0014 385.2686,-193.1018"/>
<polygon fill="#191970" stroke="#191970" points="387.2897,-195.9643 393.8472,-187.6427 383.5315,-190.0587 387.2897,-195.9643"/>
</g>
<!-- Node30&#45;&gt;Node28 -->
<g id="edge54" class="edge">
<title>Node30&#45;&gt;Node28</title>
<path fill="none" stroke="#191970" d="M290.2754,-224.407C272.1431,-217.1992 250.2233,-205.5167 237,-188 226.9446,-174.6798 223.4297,-155.8243 222.293,-141.6756"/>
<polygon fill="#191970" stroke="#191970" points="225.7818,-141.3563 221.8117,-131.5335 218.7897,-141.6882 225.7818,-141.3563"/>
</g>
<!-- Node31 -->
<g id="node32" class="node">
<title>Node31</title>
<g id="a_node32"><a xlink:href="ipv4_2addr_8h.html" target="_top" xlink:title="IPv6 address type and helper functions definitions. ">
<polygon fill="none" stroke="#000000" points="246.5,-168.5 246.5,-187.5 327.5,-187.5 327.5,-168.5 246.5,-168.5"/>
<text text-anchor="middle" x="287" y="-175.5" font-family="Helvetica,sans-Serif" font-size="10.00" fill="#000000">net/ipv4/addr.h</text>
</a>
</g>
</g>
<!-- Node30&#45;&gt;Node31 -->
<g id="edge55" class="edge">
<title>Node30&#45;&gt;Node31</title>
<path fill="none" stroke="#191970" d="M315.0777,-224.2455C310.3973,-216.5367 303.7327,-205.5598 298.0711,-196.2348"/>
<polygon fill="#191970" stroke="#191970" points="301.0361,-194.3741 292.8545,-187.6427 295.0525,-198.007 301.0361,-194.3741"/>
</g>
<!-- Node31&#45;&gt;Node1 -->
<g id="edge56" class="edge">
<title>Node31&#45;&gt;Node1</title>
<path fill="none" stroke="#191970" d="M317.0836,-168.3733C346.6243,-158.9202 391.7973,-144.4649 423.8468,-134.209"/>
<polygon fill="#191970" stroke="#191970" points="425.2974,-137.4197 433.7549,-131.0384 423.1639,-130.7528 425.2974,-137.4197"/>
</g>
<!-- Node31&#45;&gt;Node2 -->
<g id="edge57" class="edge">
<title>Node31&#45;&gt;Node2</title>
<path fill="none" stroke="#191970" d="M287,-168.4509C287,-150.184 287,-109.9553 287,-85.6976"/>
<polygon fill="#191970" stroke="#191970" points="290.5001,-85.5249 287,-75.5249 283.5001,-85.5249 290.5001,-85.5249"/>
</g>
<!-- Node31&#45;&gt;Node28 -->
<g id="edge58" class="edge">
<title>Node31&#45;&gt;Node28</title>
<path fill="none" stroke="#191970" d="M275.6779,-168.2455C266.0777,-159.9746 252.1108,-147.9416 240.8305,-138.2232"/>
<polygon fill="#191970" stroke="#191970" points="243.053,-135.5182 233.1924,-131.6427 238.484,-140.8214 243.053,-135.5182"/>
</g>
</g>
</svg>
