<?xml version="1.0" encoding="UTF-8" standalone="no"?>
<!DOCTYPE svg PUBLIC "-//W3C//DTD SVG 1.1//EN"
 "http://www.w3.org/Graphics/SVG/1.1/DTD/svg11.dtd">
<!-- Generated by graphviz version 2.40.1 (20161225.0304)
 -->
<!-- Title: sys/net/gnrc/sock/include/gnrc_sock_internal.h Pages: 1 -->
<svg width="2555pt" height="599pt"
 viewBox="0.00 0.00 2554.62 599.00" xmlns="http://www.w3.org/2000/svg" xmlns:xlink="http://www.w3.org/1999/xlink">
<g id="graph0" class="graph" transform="scale(1 1) rotate(0) translate(4 595)">
<title>sys/net/gnrc/sock/include/gnrc_sock_internal.h</title>
<!-- Node0 -->
<g id="node1" class="node">
<title>Node0</title>
<polygon fill="#bfbfbf" stroke="#000000" points="1898.6241,-560.5 1898.6241,-590.5 2026.6241,-590.5 2026.6241,-560.5 1898.6241,-560.5"/>
<text text-anchor="start" x="1906.6241" y="-578.5" font-family="Helvetica,sans-Serif" font-size="10.00" fill="#000000">sys/net/gnrc/sock/include</text>
<text text-anchor="middle" x="1962.6241" y="-567.5" font-family="Helvetica,sans-Serif" font-size="10.00" fill="#000000">/gnrc_sock_internal.h</text>
</g>
<!-- Node1 -->
<g id="node2" class="node">
<title>Node1</title>
<polygon fill="none" stroke="#bfbfbf" points="1241.6241,-56.5 1241.6241,-75.5 1297.6241,-75.5 1297.6241,-56.5 1241.6241,-56.5"/>
<text text-anchor="middle" x="1269.6241" y="-63.5" font-family="Helvetica,sans-Serif" font-size="10.00" fill="#000000">stdbool.h</text>
</g>
<!-- Node0&#45;&gt;Node1 -->
<g id="edge1" class="edge">
<title>Node0&#45;&gt;Node1</title>
<path fill="none" stroke="#191970" d="M1996.0485,-560.3854C2098.6238,-511.6778 2397.2749,-351.2939 2317.6241,-168 2303.0863,-134.5453 2291.243,-126.1542 2257.6241,-112 2177.5608,-78.2917 1563.3974,-80.0959 1476.6241,-76 1417.7748,-73.2222 1349.5194,-69.9066 1307.9679,-67.8777"/>
<polygon fill="#191970" stroke="#191970" points="1307.9066,-64.3707 1297.7477,-67.3784 1307.5649,-71.3623 1307.9066,-64.3707"/>
</g>
<!-- Node2 -->
<g id="node3" class="node">
<title>Node2</title>
<polygon fill="none" stroke="#bfbfbf" points="1434.1241,-.5 1434.1241,-19.5 1483.1241,-19.5 1483.1241,-.5 1434.1241,-.5"/>
<text text-anchor="middle" x="1458.6241" y="-7.5" font-family="Helvetica,sans-Serif" font-size="10.00" fill="#000000">stdint.h</text>
</g>
<!-- Node0&#45;&gt;Node2 -->
<g id="edge2" class="edge">
<title>Node0&#45;&gt;Node2</title>
<path fill="none" stroke="#191970" d="M2026.7095,-572.6065C2161.5953,-566.0605 2465.7045,-548.7362 2505.6241,-524 2534.978,-505.8109 2546.6241,-492.5325 2546.6241,-458 2546.6241,-458 2546.6241,-458 2546.6241,-122 2546.6241,-33.8643 2446.0869,-73.0908 2359.6241,-56 2189.1095,-22.2949 1637.025,-12.457 1493.1611,-10.4361"/>
<polygon fill="#191970" stroke="#191970" points="1493.1869,-6.9363 1483.1399,-10.2988 1493.091,-13.9356 1493.1869,-6.9363"/>
</g>
<!-- Node3 -->
<g id="node4" class="node">
<title>Node3</title>
<polygon fill="none" stroke="#bfbfbf" points="1192.1241,-112.5 1192.1241,-131.5 1241.1241,-131.5 1241.1241,-112.5 1192.1241,-112.5"/>
<text text-anchor="middle" x="1216.6241" y="-119.5" font-family="Helvetica,sans-Serif" font-size="10.00" fill="#000000">string.h</text>
</g>
<!-- Node0&#45;&gt;Node3 -->
<g id="edge3" class="edge">
<title>Node0&#45;&gt;Node3</title>
<path fill="none" stroke="#191970" d="M1983.0144,-560.4494C2062.8247,-500.0557 2342.5834,-273.4909 2196.6241,-168 2155.7078,-138.4281 1338.9092,-136.4779 1288.6241,-132 1276.374,-130.9091 1263.0167,-129.1996 1251.1704,-127.5006"/>
<polygon fill="#191970" stroke="#191970" points="1251.6197,-124.0291 1241.2148,-126.026 1250.5941,-130.9535 1251.6197,-124.0291"/>
</g>
<!-- Node4 -->
<g id="node5" class="node">
<title>Node4</title>
<g id="a_node5"><a xlink:href="mbox_8h.html" target="_top" xlink:title="Mailbox API. ">
<polygon fill="none" stroke="#000000" points="1204.1241,-280.5 1204.1241,-299.5 1253.1241,-299.5 1253.1241,-280.5 1204.1241,-280.5"/>
<text text-anchor="middle" x="1228.6241" y="-287.5" font-family="Helvetica,sans-Serif" font-size="10.00" fill="#000000">mbox.h</text>
</a>
</g>
</g>
<!-- Node0&#45;&gt;Node4 -->
<g id="edge4" class="edge">
<title>Node0&#45;&gt;Node4</title>
<path fill="none" stroke="#191970" d="M2026.6909,-573.9483C2160.1425,-570.0528 2458.1127,-557.6447 2488.6241,-524 2494.5954,-517.4155 2494.6397,-510.5441 2488.6241,-504 2323.9684,-324.875 1625.7837,-496.5016 1397.6241,-412 1334.3094,-388.5506 1273.5136,-334.4761 1245.1979,-306.8742"/>
<polygon fill="#191970" stroke="#191970" points="1247.3561,-304.0852 1237.7909,-299.529 1242.4271,-309.0557 1247.3561,-304.0852"/>
</g>
<!-- Node16 -->
<g id="node17" class="node">
<title>Node16</title>
<g id="a_node17"><a xlink:href="af_8h.html" target="_top" xlink:title="Global UNIX address family definitions. ">
<polygon fill="none" stroke="#000000" points="131.6241,-448.5 131.6241,-467.5 181.6241,-467.5 181.6241,-448.5 131.6241,-448.5"/>
<text text-anchor="middle" x="156.6241" y="-455.5" font-family="Helvetica,sans-Serif" font-size="10.00" fill="#000000">net/af.h</text>
</a>
</g>
</g>
<!-- Node0&#45;&gt;Node16 -->
<g id="edge20" class="edge">
<title>Node0&#45;&gt;Node16</title>
<path fill="none" stroke="#191970" d="M1898.5639,-575.3166C1609.6346,-574.25 434.9964,-567.2669 276.6241,-524 239.1651,-513.7663 200.6608,-489.7278 177.6911,-473.6638"/>
<polygon fill="#191970" stroke="#191970" points="179.5742,-470.7077 169.4038,-467.7391 175.5032,-476.4021 179.5742,-470.7077"/>
</g>
<!-- Node17 -->
<g id="node18" class="node">
<title>Node17</title>
<g id="a_node18"><a xlink:href="gnrc_8h.html" target="_top" xlink:title="Includes all essential GNRC network stack base modules. ">
<polygon fill="none" stroke="#000000" points="741.6241,-448.5 741.6241,-467.5 801.6241,-467.5 801.6241,-448.5 741.6241,-448.5"/>
<text text-anchor="middle" x="771.6241" y="-455.5" font-family="Helvetica,sans-Serif" font-size="10.00" fill="#000000">net/gnrc.h</text>
</a>
</g>
</g>
<!-- Node0&#45;&gt;Node17 -->
<g id="edge21" class="edge">
<title>Node0&#45;&gt;Node17</title>
<path fill="none" stroke="#191970" d="M1898.5908,-569.1827C1682.9129,-547.9046 986.6982,-479.2185 811.7844,-461.9621"/>
<polygon fill="#191970" stroke="#191970" points="812.0212,-458.4685 801.7259,-460.9697 811.3339,-465.4347 812.0212,-458.4685"/>
</g>
<!-- Node27 -->
<g id="node28" class="node">
<title>Node27</title>
<g id="a_node28"><a xlink:href="netreg_8h.html" target="_top" xlink:title="Definitions to register network protocol PIDs to use with GNRC communication interface. ">
<polygon fill="none" stroke="#000000" points="351.6241,-224.5 351.6241,-243.5 441.6241,-243.5 441.6241,-224.5 351.6241,-224.5"/>
<text text-anchor="middle" x="396.6241" y="-231.5" font-family="Helvetica,sans-Serif" font-size="10.00" fill="#000000">net/gnrc/netreg.h</text>
</a>
</g>
</g>
<!-- Node0&#45;&gt;Node27 -->
<g id="edge133" class="edge">
<title>Node0&#45;&gt;Node27</title>
<path fill="none" stroke="#191970" d="M1898.4387,-574.0923C1604.3228,-567.2286 399.6241,-534.4487 399.6241,-458 399.6241,-458 399.6241,-458 399.6241,-346 399.6241,-313.7 398.3619,-276.1791 397.4749,-253.8005"/>
<polygon fill="#191970" stroke="#191970" points="400.9628,-253.4334 397.054,-243.5861 393.9688,-253.7217 400.9628,-253.4334"/>
</g>
<!-- Node55 -->
<g id="node56" class="node">
<title>Node55</title>
<g id="a_node56"><a xlink:href="portrange_8h.html" target="_top" xlink:title="Service Name and Transport Protocol Port Number Registry. ">
<polygon fill="none" stroke="#000000" points="2377.1241,-504.5 2377.1241,-523.5 2480.1241,-523.5 2480.1241,-504.5 2377.1241,-504.5"/>
<text text-anchor="middle" x="2428.6241" y="-511.5" font-family="Helvetica,sans-Serif" font-size="10.00" fill="#000000">net/iana/portrange.h</text>
</a>
</g>
</g>
<!-- Node0&#45;&gt;Node55 -->
<g id="edge134" class="edge">
<title>Node0&#45;&gt;Node55</title>
<path fill="none" stroke="#191970" d="M2026.7651,-567.6895C2105.8174,-557.96 2244.2255,-540.5894 2362.6241,-524 2364.0946,-523.794 2365.5832,-523.5835 2367.0845,-523.3696"/>
<polygon fill="#191970" stroke="#191970" points="2367.7221,-526.8139 2377.1176,-521.9175 2366.7194,-519.886 2367.7221,-526.8139"/>
</g>
<!-- Node56 -->
<g id="node57" class="node">
<title>Node56</title>
<g id="a_node57"><a xlink:href="ip_8h.html" target="_top" xlink:title="Raw IPv4/IPv6 sock definitions. ">
<polygon fill="none" stroke="#000000" points="178.1241,-224.5 178.1241,-243.5 251.1241,-243.5 251.1241,-224.5 178.1241,-224.5"/>
<text text-anchor="middle" x="214.6241" y="-231.5" font-family="Helvetica,sans-Serif" font-size="10.00" fill="#000000">net/sock/ip.h</text>
</a>
</g>
</g>
<!-- Node0&#45;&gt;Node56 -->
<g id="edge135" class="edge">
<title>Node0&#45;&gt;Node56</title>
<path fill="none" stroke="#191970" d="M1898.5682,-575.3773C1604.1604,-574.5739 388.2777,-568.5633 224.6241,-524 174.7248,-510.4123 148.9624,-512.5069 122.6241,-468 77.9075,-392.437 160.2555,-291.1569 197.601,-251.2207"/>
<polygon fill="#191970" stroke="#191970" points="200.2471,-253.5177 204.6226,-243.8686 195.1848,-248.6831 200.2471,-253.5177"/>
</g>
<!-- Node59 -->
<g id="node60" class="node">
<title>Node59</title>
<g id="a_node60"><a xlink:href="sys_2net_2gnrc_2sock_2include_2sock__types_8h.html" target="_top" xlink:title="GNRC&#45;specific types and function definitions. ">
<polygon fill="none" stroke="#000000" points="286.1241,-504.5 286.1241,-523.5 361.1241,-523.5 361.1241,-504.5 286.1241,-504.5"/>
<text text-anchor="middle" x="323.6241" y="-511.5" font-family="Helvetica,sans-Serif" font-size="10.00" fill="#000000">sock_types.h</text>
</a>
</g>
</g>
<!-- Node0&#45;&gt;Node59 -->
<g id="edge143" class="edge">
<title>Node0&#45;&gt;Node59</title>
<path fill="none" stroke="#191970" d="M1898.2766,-574.4928C1641.112,-570.2981 686.5748,-553.0652 385.6241,-524 380.9202,-523.5457 376.0319,-522.9586 371.1564,-522.2966"/>
<polygon fill="#191970" stroke="#191970" points="371.6299,-518.8288 361.23,-520.8514 370.6213,-525.7557 371.6299,-518.8288"/>
</g>
<!-- Node5 -->
<g id="node6" class="node">
<title>Node5</title>
<g id="a_node6"><a xlink:href="list_8h.html" target="_top" xlink:title="Intrusive linked list. ">
<polygon fill="none" stroke="#000000" points="1978.6241,-56.5 1978.6241,-75.5 2016.6241,-75.5 2016.6241,-56.5 1978.6241,-56.5"/>
<text text-anchor="middle" x="1997.6241" y="-63.5" font-family="Helvetica,sans-Serif" font-size="10.00" fill="#000000">list.h</text>
</a>
</g>
</g>
<!-- Node4&#45;&gt;Node5 -->
<g id="edge5" class="edge">
<title>Node4&#45;&gt;Node5</title>
<path fill="none" stroke="#191970" d="M1229.9816,-280.4425C1231.52,-267.4623 1233.2575,-243.6272 1228.6241,-224 1216.2605,-171.6269 1145.5311,-150.986 1182.6241,-112 1210.3453,-82.8642 1865.5332,-79.1742 1905.6241,-76 1926.5459,-74.3435 1950.0707,-71.7738 1968.0945,-69.6541"/>
<polygon fill="#191970" stroke="#191970" points="1968.7576,-73.0998 1978.271,-68.4366 1967.9261,-66.1494 1968.7576,-73.0998"/>
</g>
<!-- Node6 -->
<g id="node7" class="node">
<title>Node6</title>
<g id="a_node7"><a xlink:href="cib_8h.html" target="_top" xlink:title="Circular integer buffer interface. ">
<polygon fill="none" stroke="#000000" points="835.6241,-224.5 835.6241,-243.5 873.6241,-243.5 873.6241,-224.5 835.6241,-224.5"/>
<text text-anchor="middle" x="854.6241" y="-231.5" font-family="Helvetica,sans-Serif" font-size="10.00" fill="#000000">cib.h</text>
</a>
</g>
</g>
<!-- Node4&#45;&gt;Node6 -->
<g id="edge6" class="edge">
<title>Node4&#45;&gt;Node6</title>
<path fill="none" stroke="#191970" d="M1204.0849,-286.3257C1137.7724,-276.3965 955.1907,-249.0581 883.7878,-238.3668"/>
<polygon fill="#191970" stroke="#191970" points="884.1093,-234.8759 873.7012,-236.8565 883.0726,-241.7988 884.1093,-234.8759"/>
</g>
<!-- Node11 -->
<g id="node12" class="node">
<title>Node11</title>
<g id="a_node12"><a xlink:href="msg_8h.html" target="_top" xlink:title="Messaging API for inter process communication. ">
<polygon fill="none" stroke="#000000" points="1134.6241,-168.5 1134.6241,-187.5 1178.6241,-187.5 1178.6241,-168.5 1134.6241,-168.5"/>
<text text-anchor="middle" x="1156.6241" y="-175.5" font-family="Helvetica,sans-Serif" font-size="10.00" fill="#000000">msg.h</text>
</a>
</g>
</g>
<!-- Node4&#45;&gt;Node11 -->
<g id="edge11" class="edge">
<title>Node4&#45;&gt;Node11</title>
<path fill="none" stroke="#191970" d="M1227.5879,-280.3349C1225.7689,-266.81 1221.0442,-241.8899 1209.6241,-224 1202.0441,-212.1257 1190.4994,-201.5938 1180.1178,-193.6141"/>
<polygon fill="#191970" stroke="#191970" points="1181.9257,-190.6008 1171.7833,-187.5379 1177.802,-196.2572 1181.9257,-190.6008"/>
</g>
<!-- Node7 -->
<g id="node8" class="node">
<title>Node7</title>
<g id="a_node8"><a xlink:href="assert_8h.html" target="_top" xlink:title="POSIX.1&#45;2008 compliant version of the assert macro. ">
<polygon fill="none" stroke="#000000" points="465.6241,-168.5 465.6241,-187.5 517.6241,-187.5 517.6241,-168.5 465.6241,-168.5"/>
<text text-anchor="middle" x="491.6241" y="-175.5" font-family="Helvetica,sans-Serif" font-size="10.00" fill="#000000">assert.h</text>
</a>
</g>
</g>
<!-- Node6&#45;&gt;Node7 -->
<g id="edge7" class="edge">
<title>Node6&#45;&gt;Node7</title>
<path fill="none" stroke="#191970" d="M835.5038,-226.5831C832.5601,-225.613 829.5324,-224.7109 826.6241,-224 719.8867,-197.9087 590.1497,-185.3802 528.1032,-180.5294"/>
<polygon fill="#191970" stroke="#191970" points="528.2686,-177.0319 518.032,-179.7634 527.7377,-184.0118 528.2686,-177.0319"/>
</g>
<!-- Node8 -->
<g id="node9" class="node">
<title>Node8</title>
<g id="a_node9"><a xlink:href="panic_8h.html" target="_top" xlink:title="Crash handling header. ">
<polygon fill="none" stroke="#000000" points="496.6241,-112.5 496.6241,-131.5 544.6241,-131.5 544.6241,-112.5 496.6241,-112.5"/>
<text text-anchor="middle" x="520.6241" y="-119.5" font-family="Helvetica,sans-Serif" font-size="10.00" fill="#000000">panic.h</text>
</a>
</g>
</g>
<!-- Node7&#45;&gt;Node8 -->
<g id="edge8" class="edge">
<title>Node7&#45;&gt;Node8</title>
<path fill="none" stroke="#191970" d="M496.6755,-168.2455C500.626,-160.617 506.2338,-149.7881 511.0299,-140.5267"/>
<polygon fill="#191970" stroke="#191970" points="514.14,-142.1321 515.6306,-131.6427 507.924,-138.9131 514.14,-142.1321"/>
</g>
<!-- Node9 -->
<g id="node10" class="node">
<title>Node9</title>
<g id="a_node10"><a xlink:href="kernel__defines_8h.html" target="_top" xlink:title="Common macros and compiler attributes/pragmas configuration. ">
<polygon fill="none" stroke="#000000" points="1808.6241,-56.5 1808.6241,-75.5 1896.6241,-75.5 1896.6241,-56.5 1808.6241,-56.5"/>
<text text-anchor="middle" x="1852.6241" y="-63.5" font-family="Helvetica,sans-Serif" font-size="10.00" fill="#000000">kernel_defines.h</text>
</a>
</g>
</g>
<!-- Node8&#45;&gt;Node9 -->
<g id="edge9" class="edge">
<title>Node8&#45;&gt;Node9</title>
<path fill="none" stroke="#191970" d="M544.9134,-118.8471C563.2189,-116.5887 588.9571,-113.6633 611.6241,-112 671.4812,-107.6076 1566.3581,-76.0455 1798.1378,-67.9093"/>
<polygon fill="#191970" stroke="#191970" points="1798.4784,-71.3996 1808.3494,-67.551 1798.2328,-64.4039 1798.4784,-71.3996"/>
</g>
<!-- Node10 -->
<g id="node11" class="node">
<title>Node10</title>
<polygon fill="none" stroke="#bfbfbf" points="2130.6241,-.5 2130.6241,-19.5 2182.6241,-19.5 2182.6241,-.5 2130.6241,-.5"/>
<text text-anchor="middle" x="2156.6241" y="-7.5" font-family="Helvetica,sans-Serif" font-size="10.00" fill="#000000">stddef.h</text>
</g>
<!-- Node9&#45;&gt;Node10 -->
<g id="edge10" class="edge">
<title>Node9&#45;&gt;Node10</title>
<path fill="none" stroke="#191970" d="M1896.8283,-57.8571C1957.1631,-46.7428 2064.1836,-27.0285 2120.177,-16.7139"/>
<polygon fill="#191970" stroke="#191970" points="2121.1407,-20.0954 2130.3411,-14.8416 2119.8725,-13.2112 2121.1407,-20.0954"/>
</g>
<!-- Node11&#45;&gt;Node1 -->
<g id="edge13" class="edge">
<title>Node11&#45;&gt;Node1</title>
<path fill="none" stroke="#191970" d="M1151.8341,-168.0593C1145.9268,-154.207 1138.0031,-128.9003 1149.6241,-112 1159.2917,-97.9406 1200.2411,-84.2612 1231.6428,-75.5263"/>
<polygon fill="#191970" stroke="#191970" points="1232.7138,-78.8624 1241.451,-72.8697 1230.8837,-72.1058 1232.7138,-78.8624"/>
</g>
<!-- Node11&#45;&gt;Node2 -->
<g id="edge12" class="edge">
<title>Node11&#45;&gt;Node2</title>
<path fill="none" stroke="#191970" d="M1134.5458,-170.335C1100.4508,-158.3958 1038.5747,-136.2783 1035.6241,-132 1016.4473,-104.1938 1013.0676,-81.1424 1035.6241,-56 1061.4187,-27.2483 1327.4307,-14.7719 1423.9126,-11.1688"/>
<polygon fill="#191970" stroke="#191970" points="1424.1609,-14.6622 1434.0269,-10.8006 1423.9061,-7.6668 1424.1609,-14.6622"/>
</g>
<!-- Node12 -->
<g id="node13" class="node">
<title>Node12</title>
<g id="a_node13"><a xlink:href="kernel__types_8h.html" target="_top" xlink:title="Types used by the kernel. ">
<polygon fill="none" stroke="#000000" points="865.6241,-112.5 865.6241,-131.5 945.6241,-131.5 945.6241,-112.5 865.6241,-112.5"/>
<text text-anchor="middle" x="905.6241" y="-119.5" font-family="Helvetica,sans-Serif" font-size="10.00" fill="#000000">kernel_types.h</text>
</a>
</g>
</g>
<!-- Node11&#45;&gt;Node12 -->
<g id="edge14" class="edge">
<title>Node11&#45;&gt;Node12</title>
<path fill="none" stroke="#191970" d="M1134.3567,-170.5054C1131.4334,-169.6133 1128.4666,-168.7534 1125.6241,-168 1094.1995,-159.6713 1010.4772,-142.6963 955.8511,-131.8592"/>
<polygon fill="#191970" stroke="#191970" points="956.4984,-128.4195 946.009,-129.9106 955.1388,-135.2862 956.4984,-128.4195"/>
</g>
<!-- Node12&#45;&gt;Node2 -->
<g id="edge15" class="edge">
<title>Node12&#45;&gt;Node2</title>
<path fill="none" stroke="#191970" d="M910.3275,-112.3083C918.1968,-97.2868 935.5693,-68.7841 959.6241,-56 1000.4279,-34.3145 1317.1815,-16.9409 1423.7624,-11.6578"/>
<polygon fill="#191970" stroke="#191970" points="1424.1636,-15.1424 1433.9801,-11.1566 1423.8206,-8.1508 1424.1636,-15.1424"/>
</g>
<!-- Node12&#45;&gt;Node10 -->
<g id="edge18" class="edge">
<title>Node12&#45;&gt;Node10</title>
<path fill="none" stroke="#191970" d="M943.5803,-112.4136C1004.2163,-97.5364 1126.8835,-69.2279 1232.6241,-56 1408.9021,-33.9481 1970.4804,-15.6589 2119.8428,-11.0957"/>
<polygon fill="#191970" stroke="#191970" points="2120.3801,-14.5811 2130.2692,-10.7791 2120.1675,-7.5843 2120.3801,-14.5811"/>
</g>
<!-- Node13 -->
<g id="node14" class="node">
<title>Node13</title>
<g id="a_node14"><a xlink:href="inttypes_8h.html" target="_top" xlink:title="Adds include for missing inttype definitions. ">
<polygon fill="none" stroke="#000000" points="725.1241,-56.5 725.1241,-75.5 784.1241,-75.5 784.1241,-56.5 725.1241,-56.5"/>
<text text-anchor="middle" x="754.6241" y="-63.5" font-family="Helvetica,sans-Serif" font-size="10.00" fill="#000000">inttypes.h</text>
</a>
</g>
</g>
<!-- Node12&#45;&gt;Node13 -->
<g id="edge16" class="edge">
<title>Node12&#45;&gt;Node13</title>
<path fill="none" stroke="#191970" d="M879.6663,-112.3733C854.8834,-103.1822 817.3495,-89.2624 789.8701,-79.0713"/>
<polygon fill="#191970" stroke="#191970" points="790.8363,-75.6968 780.2432,-75.5011 788.4022,-82.26 790.8363,-75.6968"/>
</g>
<!-- Node14 -->
<g id="node15" class="node">
<title>Node14</title>
<polygon fill="none" stroke="#bfbfbf" points="859.6241,-56.5 859.6241,-75.5 907.6241,-75.5 907.6241,-56.5 859.6241,-56.5"/>
<text text-anchor="middle" x="883.6241" y="-63.5" font-family="Helvetica,sans-Serif" font-size="10.00" fill="#000000">limits.h</text>
</g>
<!-- Node12&#45;&gt;Node14 -->
<g id="edge17" class="edge">
<title>Node12&#45;&gt;Node14</title>
<path fill="none" stroke="#191970" d="M901.792,-112.2455C898.8582,-104.7776 894.7195,-94.2427 891.1331,-85.1137"/>
<polygon fill="#191970" stroke="#191970" points="894.3265,-83.6704 887.4123,-75.6427 887.8113,-86.23 894.3265,-83.6704"/>
</g>
<!-- Node15 -->
<g id="node16" class="node">
<title>Node15</title>
<polygon fill="none" stroke="#bfbfbf" points="169.6241,-56.5 169.6241,-75.5 237.6241,-75.5 237.6241,-56.5 169.6241,-56.5"/>
<text text-anchor="middle" x="203.6241" y="-63.5" font-family="Helvetica,sans-Serif" font-size="10.00" fill="#000000">sys/types.h</text>
</g>
<!-- Node12&#45;&gt;Node15 -->
<g id="edge19" class="edge">
<title>Node12&#45;&gt;Node15</title>
<path fill="none" stroke="#191970" d="M865.3303,-118.8918C770.6365,-111.5719 526.5312,-92.6118 322.6241,-76 297.9172,-73.9872 270.331,-71.6732 247.9444,-69.7784"/>
<polygon fill="#191970" stroke="#191970" points="247.9915,-66.2699 237.7316,-68.9126 247.4001,-73.2449 247.9915,-66.2699"/>
</g>
<!-- Node18 -->
<g id="node19" class="node">
<title>Node18</title>
<g id="a_node19"><a xlink:href="netopt_8h.html" target="_top" xlink:title="Definition of global configuration options. ">
<polygon fill="none" stroke="#000000" points="1953.6241,-168.5 1953.6241,-187.5 2021.6241,-187.5 2021.6241,-168.5 1953.6241,-168.5"/>
<text text-anchor="middle" x="1987.6241" y="-175.5" font-family="Helvetica,sans-Serif" font-size="10.00" fill="#000000">net/netopt.h</text>
</a>
</g>
</g>
<!-- Node17&#45;&gt;Node18 -->
<g id="edge22" class="edge">
<title>Node17&#45;&gt;Node18</title>
<path fill="none" stroke="#191970" d="M801.7125,-457.764C906.3894,-456.6189 1264.2011,-449.9868 1556.6241,-412 1805.3026,-379.6958 1876.1277,-391.4546 2109.6241,-300 2154.1954,-282.5426 2178.1723,-285.7297 2201.6241,-244 2205.979,-236.251 2207.2102,-230.9144 2201.6241,-224 2190.9856,-210.8316 2091.4742,-193.7082 2031.9661,-184.5157"/>
<polygon fill="#191970" stroke="#191970" points="2032.4789,-181.0536 2022.0648,-183.0023 2031.4211,-187.9732 2032.4789,-181.0536"/>
</g>
<!-- Node19 -->
<g id="node20" class="node">
<title>Node19</title>
<g id="a_node20"><a xlink:href="netapi_8h.html" target="_top" xlink:title="Generic interface to communicate with GNRC modules. ">
<polygon fill="none" stroke="#000000" points="1006.1241,-224.5 1006.1241,-243.5 1095.1241,-243.5 1095.1241,-224.5 1006.1241,-224.5"/>
<text text-anchor="middle" x="1050.6241" y="-231.5" font-family="Helvetica,sans-Serif" font-size="10.00" fill="#000000">net/gnrc/netapi.h</text>
</a>
</g>
</g>
<!-- Node17&#45;&gt;Node19 -->
<g id="edge23" class="edge">
<title>Node17&#45;&gt;Node19</title>
<path fill="none" stroke="#191970" d="M783.6124,-448.375C827.0756,-413.4799 976.6602,-293.3832 1030.8357,-249.8875"/>
<polygon fill="#191970" stroke="#191970" points="1033.0739,-252.579 1038.6805,-243.5891 1028.6915,-247.1205 1033.0739,-252.579"/>
</g>
<!-- Node21 -->
<g id="node22" class="node">
<title>Node21</title>
<g id="a_node22"><a xlink:href="nettype_8h.html" target="_top" xlink:title="Protocol type definitions. ">
<polygon fill="none" stroke="#000000" points="621.1241,-112.5 621.1241,-131.5 716.1241,-131.5 716.1241,-112.5 621.1241,-112.5"/>
<text text-anchor="middle" x="668.6241" y="-119.5" font-family="Helvetica,sans-Serif" font-size="10.00" fill="#000000">net/gnrc/nettype.h</text>
</a>
</g>
</g>
<!-- Node17&#45;&gt;Node21 -->
<g id="edge43" class="edge">
<title>Node17&#45;&gt;Node21</title>
<path fill="none" stroke="#191970" d="M741.2827,-453.3499C697.6596,-446.1023 620.1961,-430.9564 599.6241,-412 580.1887,-394.0909 586.415,-381.5412 579.6241,-356 570.8701,-323.075 560.2133,-312.7434 569.6241,-280 585.9929,-223.0475 629.5752,-166.7537 653.0807,-139.2992"/>
<polygon fill="#191970" stroke="#191970" points="655.7422,-141.5724 659.6786,-131.7359 650.4673,-136.9707 655.7422,-141.5724"/>
</g>
<!-- Node24 -->
<g id="node25" class="node">
<title>Node24</title>
<g id="a_node25"><a xlink:href="include_2net_2gnrc_2pkt_8h.html" target="_top" xlink:title="General definitions for network packets and their helper functions. ">
<polygon fill="none" stroke="#000000" points="688.1241,-168.5 688.1241,-187.5 765.1241,-187.5 765.1241,-168.5 688.1241,-168.5"/>
<text text-anchor="middle" x="726.6241" y="-175.5" font-family="Helvetica,sans-Serif" font-size="10.00" fill="#000000">net/gnrc/pkt.h</text>
</a>
</g>
</g>
<!-- Node17&#45;&gt;Node24 -->
<g id="edge132" class="edge">
<title>Node17&#45;&gt;Node24</title>
<path fill="none" stroke="#191970" d="M741.4187,-454.0396C688.2754,-445.1946 583.6241,-418.5645 583.6241,-346 583.6241,-346 583.6241,-346 583.6241,-290 583.6241,-238.3635 642.1291,-206.9614 684.2961,-191.0344"/>
<polygon fill="#191970" stroke="#191970" points="685.6029,-194.2837 693.817,-187.592 683.2228,-187.7008 685.6029,-194.2837"/>
</g>
<!-- Node17&#45;&gt;Node27 -->
<g id="edge38" class="edge">
<title>Node17&#45;&gt;Node27</title>
<path fill="none" stroke="#191970" d="M741.4881,-457.3545C672.178,-455.2808 504.1395,-446.7101 461.6241,-412 413.2679,-372.5214 435.1107,-338.6107 413.6241,-280 410.3685,-271.1194 406.7371,-261.2837 403.669,-252.9942"/>
<polygon fill="#191970" stroke="#191970" points="406.9112,-251.6705 400.155,-243.5094 400.3472,-254.1025 406.9112,-251.6705"/>
</g>
<!-- Node28 -->
<g id="node29" class="node">
<title>Node28</title>
<g id="a_node29"><a xlink:href="gnrc_2netif_8h.html" target="_top" xlink:title="Definition for GNRC&#39;s network interfaces. ">
<polygon fill="none" stroke="#000000" points="1720.6241,-280.5 1720.6241,-299.5 1802.6241,-299.5 1802.6241,-280.5 1720.6241,-280.5"/>
<text text-anchor="middle" x="1761.6241" y="-287.5" font-family="Helvetica,sans-Serif" font-size="10.00" fill="#000000">net/gnrc/netif.h</text>
</a>
</g>
</g>
<!-- Node17&#45;&gt;Node28 -->
<g id="edge44" class="edge">
<title>Node17&#45;&gt;Node28</title>
<path fill="none" stroke="#191970" d="M801.7105,-457.7081C922.9541,-456.29 1375.7821,-448.6018 1513.6241,-412 1602.1963,-388.481 1696.6425,-332.152 1738.9011,-305.0582"/>
<polygon fill="#191970" stroke="#191970" points="1740.8491,-307.9666 1747.3374,-299.5909 1737.0421,-302.0923 1740.8491,-307.9666"/>
</g>
<!-- Node48 -->
<g id="node49" class="node">
<title>Node48</title>
<g id="a_node49"><a xlink:href="net_2gnrc_2netif_2hdr_8h.html" target="_top" xlink:title="Generic network interface header. ">
<polygon fill="none" stroke="#000000" points="1406.6241,-392.5 1406.6241,-411.5 1504.6241,-411.5 1504.6241,-392.5 1406.6241,-392.5"/>
<text text-anchor="middle" x="1455.6241" y="-399.5" font-family="Helvetica,sans-Serif" font-size="10.00" fill="#000000">net/gnrc/netif/hdr.h</text>
</a>
</g>
</g>
<!-- Node17&#45;&gt;Node48 -->
<g id="edge101" class="edge">
<title>Node17&#45;&gt;Node48</title>
<path fill="none" stroke="#191970" d="M801.8973,-455.5215C906.6997,-446.9412 1255.3157,-418.3995 1395.9947,-406.8819"/>
<polygon fill="#191970" stroke="#191970" points="1396.4774,-410.3542 1406.1585,-406.0498 1395.9062,-403.3776 1396.4774,-410.3542"/>
</g>
<!-- Node51 -->
<g id="node52" class="node">
<title>Node51</title>
<g id="a_node52"><a xlink:href="pktbuf_8h.html" target="_top" xlink:title="Interface definition for the global network buffer. ">
<polygon fill="none" stroke="#000000" points="687.6241,-280.5 687.6241,-299.5 777.6241,-299.5 777.6241,-280.5 687.6241,-280.5"/>
<text text-anchor="middle" x="732.6241" y="-287.5" font-family="Helvetica,sans-Serif" font-size="10.00" fill="#000000">net/gnrc/pktbuf.h</text>
</a>
</g>
</g>
<!-- Node17&#45;&gt;Node51 -->
<g id="edge131" class="edge">
<title>Node17&#45;&gt;Node51</title>
<path fill="none" stroke="#191970" d="M769.4156,-448.4862C763.2239,-421.8144 745.6036,-345.9117 737.1962,-309.695"/>
<polygon fill="#191970" stroke="#191970" points="740.5763,-308.7774 734.9056,-299.8279 733.7576,-310.3603 740.5763,-308.7774"/>
</g>
<!-- Node19&#45;&gt;Node18 -->
<g id="edge25" class="edge">
<title>Node19&#45;&gt;Node18</title>
<path fill="none" stroke="#191970" d="M1095.378,-225.1179C1098.1624,-224.7012 1100.9279,-224.323 1103.6241,-224 1187.233,-213.9831 1775.6446,-187.4005 1943.2,-179.9599"/>
<polygon fill="#191970" stroke="#191970" points="1943.5555,-183.4477 1953.3906,-179.508 1943.2453,-176.4546 1943.5555,-183.4477"/>
</g>
<!-- Node20 -->
<g id="node21" class="node">
<title>Node20</title>
<polygon fill="none" stroke="#bfbfbf" points="1064.6241,-168.5 1064.6241,-187.5 1116.6241,-187.5 1116.6241,-168.5 1064.6241,-168.5"/>
<text text-anchor="middle" x="1090.6241" y="-175.5" font-family="Helvetica,sans-Serif" font-size="10.00" fill="#000000">thread.h</text>
</g>
<!-- Node19&#45;&gt;Node20 -->
<g id="edge24" class="edge">
<title>Node19&#45;&gt;Node20</title>
<path fill="none" stroke="#191970" d="M1057.5916,-224.2455C1063.1553,-216.4564 1071.1022,-205.3308 1077.807,-195.9439"/>
<polygon fill="#191970" stroke="#191970" points="1080.7722,-197.8144 1083.7365,-187.6427 1075.076,-193.7457 1080.7722,-197.8144"/>
</g>
<!-- Node19&#45;&gt;Node21 -->
<g id="edge26" class="edge">
<title>Node19&#45;&gt;Node21</title>
<path fill="none" stroke="#191970" d="M1006.051,-228.3354C958.5768,-221.5812 881.6131,-208.552 817.6241,-188 797.1721,-181.4312 793.2402,-176.7546 773.6241,-168 748.992,-157.0068 721.0105,-144.7601 700.1306,-135.6686"/>
<polygon fill="#191970" stroke="#191970" points="701.3523,-132.3833 690.7861,-131.6041 698.5601,-138.8024 701.3523,-132.3833"/>
</g>
<!-- Node19&#45;&gt;Node24 -->
<g id="edge31" class="edge">
<title>Node19&#45;&gt;Node24</title>
<path fill="none" stroke="#191970" d="M1005.9832,-226.6804C952.2331,-217.8076 859.244,-202.2675 779.6241,-188 778.184,-187.7419 776.7222,-187.4781 775.2468,-187.2102"/>
<polygon fill="#191970" stroke="#191970" points="775.8641,-183.7651 765.3963,-185.4004 774.5992,-190.6499 775.8641,-183.7651"/>
</g>
<!-- Node21&#45;&gt;Node9 -->
<g id="edge28" class="edge">
<title>Node21&#45;&gt;Node9</title>
<path fill="none" stroke="#191970" d="M716.1376,-119.3807C754.144,-117.3077 808.7996,-114.3763 856.6241,-112 1215.822,-94.1524 1648.0089,-74.976 1798.1242,-68.3831"/>
<polygon fill="#191970" stroke="#191970" points="1798.6033,-71.8655 1808.4402,-67.9303 1798.2963,-64.8722 1798.6033,-71.8655"/>
</g>
<!-- Node21&#45;&gt;Node13 -->
<g id="edge27" class="edge">
<title>Node21&#45;&gt;Node13</title>
<path fill="none" stroke="#191970" d="M683.6042,-112.2455C696.7992,-103.6534 716.2292,-91.0014 731.4321,-81.1018"/>
<polygon fill="#191970" stroke="#191970" points="733.3456,-84.0325 739.8157,-75.6427 729.5259,-78.1665 733.3456,-84.0325"/>
</g>
<!-- Node22 -->
<g id="node23" class="node">
<title>Node22</title>
<g id="a_node23"><a xlink:href="ethertype_8h.html" target="_top" xlink:title="Ether type definitions. ">
<polygon fill="none" stroke="#000000" points="529.6241,-56.5 529.6241,-75.5 611.6241,-75.5 611.6241,-56.5 529.6241,-56.5"/>
<text text-anchor="middle" x="570.6241" y="-63.5" font-family="Helvetica,sans-Serif" font-size="10.00" fill="#000000">net/ethertype.h</text>
</a>
</g>
</g>
<!-- Node21&#45;&gt;Node22 -->
<g id="edge29" class="edge">
<title>Node21&#45;&gt;Node22</title>
<path fill="none" stroke="#191970" d="M651.5538,-112.2455C636.3771,-103.5731 613.962,-90.7645 596.5678,-80.825"/>
<polygon fill="#191970" stroke="#191970" points="597.9178,-77.5653 587.4988,-75.6427 594.4447,-83.643 597.9178,-77.5653"/>
</g>
<!-- Node23 -->
<g id="node24" class="node">
<title>Node23</title>
<g id="a_node24"><a xlink:href="protnum_8h.html" target="_top" xlink:title="Protocol number definitions. ">
<polygon fill="none" stroke="#000000" points="630.1241,-56.5 630.1241,-75.5 707.1241,-75.5 707.1241,-56.5 630.1241,-56.5"/>
<text text-anchor="middle" x="668.6241" y="-63.5" font-family="Helvetica,sans-Serif" font-size="10.00" fill="#000000">net/protnum.h</text>
</a>
</g>
</g>
<!-- Node21&#45;&gt;Node23 -->
<g id="edge30" class="edge">
<title>Node21&#45;&gt;Node23</title>
<path fill="none" stroke="#191970" d="M668.6241,-112.2455C668.6241,-104.9382 668.6241,-94.6944 668.6241,-85.7046"/>
<polygon fill="#191970" stroke="#191970" points="672.1242,-85.6426 668.6241,-75.6427 665.1242,-85.6427 672.1242,-85.6426"/>
</g>
<!-- Node24&#45;&gt;Node12 -->
<g id="edge36" class="edge">
<title>Node24&#45;&gt;Node12</title>
<path fill="none" stroke="#191970" d="M757.3953,-168.3733C787.2892,-159.021 832.8334,-144.7725 865.5458,-134.5385"/>
<polygon fill="#191970" stroke="#191970" points="866.7557,-137.8273 875.2545,-131.5011 864.6656,-131.1466 866.7557,-137.8273"/>
</g>
<!-- Node24&#45;&gt;Node13 -->
<g id="edge32" class="edge">
<title>Node24&#45;&gt;Node13</title>
<path fill="none" stroke="#191970" d="M729.0114,-168.4509C733.5988,-150.1013 743.7264,-109.5908 749.7818,-85.3693"/>
<polygon fill="#191970" stroke="#191970" points="753.213,-86.0752 752.2429,-75.5249 746.422,-84.3774 753.213,-86.0752"/>
</g>
<!-- Node24&#45;&gt;Node21 -->
<g id="edge37" class="edge">
<title>Node24&#45;&gt;Node21</title>
<path fill="none" stroke="#191970" d="M716.5213,-168.2455C708.1213,-160.1352 695.9748,-148.4075 686.0158,-138.7919"/>
<polygon fill="#191970" stroke="#191970" points="688.2363,-136.0707 678.6112,-131.6427 683.3741,-141.1066 688.2363,-136.0707"/>
</g>
<!-- Node25 -->
<g id="node26" class="node">
<title>Node25</title>
<g id="a_node26"><a xlink:href="stdlib_8h.html" target="_top" xlink:title="stdlib.h wrapper for MSP430 ">
<polygon fill="none" stroke="#000000" points="331.6241,-112.5 331.6241,-131.5 379.6241,-131.5 379.6241,-112.5 331.6241,-112.5"/>
<text text-anchor="middle" x="355.6241" y="-119.5" font-family="Helvetica,sans-Serif" font-size="10.00" fill="#000000">stdlib.h</text>
</a>
</g>
</g>
<!-- Node24&#45;&gt;Node25 -->
<g id="edge33" class="edge">
<title>Node24&#45;&gt;Node25</title>
<path fill="none" stroke="#191970" d="M687.9705,-172.1655C615.2408,-161.1874 459.1463,-137.626 389.9085,-127.175"/>
<polygon fill="#191970" stroke="#191970" points="390.3657,-123.7044 379.9553,-125.6726 389.3209,-130.626 390.3657,-123.7044"/>
</g>
<!-- Node26 -->
<g id="node27" class="node">
<title>Node26</title>
<g id="a_node27"><a xlink:href="malloc_8h.html" target="_top" xlink:title="malloc.h">
<polygon fill="none" stroke="#000000" points="332.1241,-56.5 332.1241,-75.5 385.1241,-75.5 385.1241,-56.5 332.1241,-56.5"/>
<text text-anchor="middle" x="358.6241" y="-63.5" font-family="Helvetica,sans-Serif" font-size="10.00" fill="#000000">malloc.h</text>
</a>
</g>
</g>
<!-- Node25&#45;&gt;Node26 -->
<g id="edge34" class="edge">
<title>Node25&#45;&gt;Node26</title>
<path fill="none" stroke="#191970" d="M350.8798,-112.2455C349.8603,-104.9382 350.0048,-94.6944 351.089,-85.7046"/>
<polygon fill="#191970" stroke="#191970" points="354.5735,-86.0984 352.8624,-75.6427 347.6797,-84.8834 354.5735,-86.0984"/>
</g>
<!-- Node26&#45;&gt;Node25 -->
<g id="edge35" class="edge">
<title>Node26&#45;&gt;Node25</title>
<path fill="none" stroke="#191970" d="M363.3527,-75.6427C364.3842,-82.9199 364.2504,-93.155 363.1758,-102.1575"/>
<polygon fill="#191970" stroke="#191970" points="359.6866,-101.7924 361.4135,-112.2455 366.5822,-102.997 359.6866,-101.7924"/>
</g>
<!-- Node27&#45;&gt;Node12 -->
<g id="edge40" class="edge">
<title>Node27&#45;&gt;Node12</title>
<path fill="none" stroke="#191970" d="M435.7734,-224.4461C490.1514,-211.2654 591.6737,-186.9805 678.6241,-168 739.2529,-154.7653 809.2789,-140.7701 855.3382,-131.7412"/>
<polygon fill="#191970" stroke="#191970" points="856.2208,-135.1349 865.3629,-129.7803 854.877,-128.2651 856.2208,-135.1349"/>
</g>
<!-- Node27&#45;&gt;Node13 -->
<g id="edge39" class="edge">
<title>Node27&#45;&gt;Node13</title>
<path fill="none" stroke="#191970" d="M400.6511,-224.393C411.0924,-200.7913 441.4806,-139.8649 487.6241,-112 572.6985,-60.6259 612.6294,-94.4899 714.796,-75.9019"/>
<polygon fill="#191970" stroke="#191970" points="715.7361,-79.2845 724.881,-73.9347 714.3958,-72.414 715.7361,-79.2845"/>
</g>
<!-- Node27&#45;&gt;Node21 -->
<g id="edge41" class="edge">
<title>Node27&#45;&gt;Node21</title>
<path fill="none" stroke="#191970" d="M426.0952,-224.4644C452.6415,-215.6646 492.603,-201.8942 526.6241,-188 546.1368,-180.0311 550.5113,-176.8852 569.6241,-168 592.9594,-157.1519 619.3915,-144.8706 639.0706,-135.7283"/>
<polygon fill="#191970" stroke="#191970" points="640.5511,-138.8999 648.1456,-131.5125 637.6018,-132.5514 640.5511,-138.8999"/>
</g>
<!-- Node27&#45;&gt;Node24 -->
<g id="edge42" class="edge">
<title>Node27&#45;&gt;Node24</title>
<path fill="none" stroke="#191970" d="M441.776,-226.8136C496.6481,-218.0082 592.0244,-202.4717 673.6241,-188 675.0647,-187.7445 676.5269,-187.483 678.0027,-187.217"/>
<polygon fill="#191970" stroke="#191970" points="678.6471,-190.6573 687.8548,-185.4164 677.3885,-183.7714 678.6471,-190.6573"/>
</g>
<!-- Node28&#45;&gt;Node1 -->
<g id="edge47" class="edge">
<title>Node28&#45;&gt;Node1</title>
<path fill="none" stroke="#191970" d="M1786.9902,-280.4182C1815.2747,-268.3358 1854.7007,-246.4193 1835.6241,-224 1770.8483,-147.8738 1706.7295,-224.3663 1613.6241,-188 1556.5587,-165.7106 1555.262,-135.3546 1498.6241,-112 1434.6688,-85.628 1354.2573,-73.9766 1307.7239,-69.1376"/>
<polygon fill="#191970" stroke="#191970" points="1308.0649,-65.6543 1297.769,-68.1531 1307.376,-72.6204 1308.0649,-65.6543"/>
</g>
<!-- Node28&#45;&gt;Node2 -->
<g id="edge46" class="edge">
<title>Node28&#45;&gt;Node2</title>
<path fill="none" stroke="#191970" d="M1802.8823,-287.0438C1894.6142,-280.2231 2113.0237,-262.5438 2184.6241,-244 2246.7128,-227.9196 2260.9692,-218.0633 2317.6241,-188 2362.682,-164.0905 2434.0525,-152.9388 2403.6241,-112 2352.124,-42.7109 2302.6152,-71.1576 2217.6241,-56 2075.5728,-30.6661 1622.6714,-15.0561 1493.3863,-11.0362"/>
<polygon fill="#191970" stroke="#191970" points="1493.3671,-7.534 1483.2641,-10.7247 1493.1517,-14.5307 1493.3671,-7.534"/>
</g>
<!-- Node28&#45;&gt;Node10 -->
<g id="edge45" class="edge">
<title>Node28&#45;&gt;Node10</title>
<path fill="none" stroke="#191970" d="M1802.833,-287.6582C1901.5743,-281.7724 2149.4356,-265.2961 2229.6241,-244 2325.1051,-218.6427 2379.7871,-221.4945 2421.6241,-132 2464.93,-39.3635 2275.0964,-16.9622 2192.9283,-11.6313"/>
<polygon fill="#191970" stroke="#191970" points="2192.9637,-8.1272 2182.7726,-11.0242 2192.5459,-15.1147 2192.9637,-8.1272"/>
</g>
<!-- Node28&#45;&gt;Node11 -->
<g id="edge49" class="edge">
<title>Node28&#45;&gt;Node11</title>
<path fill="none" stroke="#191970" d="M1720.3813,-286.4693C1653.6163,-280.3551 1517.9088,-266.2716 1404.6241,-244 1325.8138,-228.506 1235.0194,-202.1052 1188.1997,-187.8417"/>
<polygon fill="#191970" stroke="#191970" points="1189.2125,-184.4914 1178.6258,-184.907 1187.161,-191.1841 1189.2125,-184.4914"/>
</g>
<!-- Node28&#45;&gt;Node12 -->
<g id="edge48" class="edge">
<title>Node28&#45;&gt;Node12</title>
<path fill="none" stroke="#191970" d="M1720.5209,-286.5649C1658.5706,-280.8498 1537.8552,-267.6156 1437.6241,-244 1410.2642,-237.5537 1404.4428,-232.4192 1377.6241,-224 1293.6299,-197.6318 1273.4575,-187.5692 1187.6241,-168 1107.4904,-149.7303 1012.9576,-135.8406 956.2316,-128.3143"/>
<polygon fill="#191970" stroke="#191970" points="956.462,-124.8146 946.0915,-126.9834 955.551,-131.755 956.462,-124.8146"/>
</g>
<!-- Node28&#45;&gt;Node18 -->
<g id="edge88" class="edge">
<title>Node28&#45;&gt;Node18</title>
<path fill="none" stroke="#191970" d="M1802.9398,-283.9962C1851.5617,-276.2549 1928.6026,-261.6648 1951.6241,-244 1966.7893,-232.3635 1976.385,-212.4407 1981.8204,-197.5209"/>
<polygon fill="#191970" stroke="#191970" points="1985.2412,-198.3245 1985.0631,-187.7312 1978.5962,-196.1234 1985.2412,-198.3245"/>
</g>
<!-- Node28&#45;&gt;Node19 -->
<g id="edge60" class="edge">
<title>Node28&#45;&gt;Node19</title>
<path fill="none" stroke="#191970" d="M1720.2202,-287.7408C1598.551,-281.0038 1242.5794,-260.5678 1105.6342,-244.1039"/>
<polygon fill="#191970" stroke="#191970" points="1105.7414,-240.5902 1095.385,-242.8256 1104.8749,-247.5364 1105.7414,-240.5902"/>
</g>
<!-- Node28&#45;&gt;Node24 -->
<g id="edge61" class="edge">
<title>Node28&#45;&gt;Node24</title>
<path fill="none" stroke="#191970" d="M1720.5452,-287.9633C1572.0784,-280.5427 1068.2834,-254.823 996.6241,-244 914.146,-231.543 819.9483,-205.8168 767.4628,-190.4206"/>
<polygon fill="#191970" stroke="#191970" points="768.431,-187.0572 757.849,-187.5788 766.4466,-193.77 768.431,-187.0572"/>
</g>
<!-- Node29 -->
<g id="node30" class="node">
<title>Node29</title>
<polygon fill="none" stroke="#bfbfbf" points="2127.1241,-224.5 2127.1241,-243.5 2176.1241,-243.5 2176.1241,-224.5 2127.1241,-224.5"/>
<text text-anchor="middle" x="2151.6241" y="-231.5" font-family="Helvetica,sans-Serif" font-size="10.00" fill="#000000">event.h</text>
</g>
<!-- Node28&#45;&gt;Node29 -->
<g id="edge50" class="edge">
<title>Node28&#45;&gt;Node29</title>
<path fill="none" stroke="#191970" d="M1802.6832,-286.2422C1868.4792,-279.857 2001.4386,-265.459 2112.6241,-244 2114.0826,-243.7185 2115.5676,-243.4149 2117.0648,-243.0947"/>
<polygon fill="#191970" stroke="#191970" points="2118.0159,-246.4671 2126.9682,-240.8008 2116.4363,-239.6476 2118.0159,-246.4671"/>
</g>
<!-- Node30 -->
<g id="node31" class="node">
<title>Node30</title>
<g id="a_node31"><a xlink:href="ipv6_2addr_8h.html" target="_top" xlink:title="Definitions for IPv6 addresses. ">
<polygon fill="none" stroke="#000000" points="1409.1241,-168.5 1409.1241,-187.5 1490.1241,-187.5 1490.1241,-168.5 1409.1241,-168.5"/>
<text text-anchor="middle" x="1449.6241" y="-175.5" font-family="Helvetica,sans-Serif" font-size="10.00" fill="#000000">net/ipv6/addr.h</text>
</a>
</g>
</g>
<!-- Node28&#45;&gt;Node30 -->
<g id="edge51" class="edge">
<title>Node28&#45;&gt;Node30</title>
<path fill="none" stroke="#191970" d="M1720.3241,-281.1501C1685.0761,-273.0795 1633.3093,-259.9923 1589.6241,-244 1548.9945,-229.1263 1504.0903,-206.8531 1476.3617,-192.3726"/>
<polygon fill="#191970" stroke="#191970" points="1477.7838,-189.1658 1467.3053,-187.6005 1474.5206,-195.3587 1477.7838,-189.1658"/>
</g>
<!-- Node33 -->
<g id="node34" class="node">
<title>Node33</title>
<g id="a_node34"><a xlink:href="netif_2conf_8h.html" target="_top" xlink:title="Configuration macros for Network interface API. ">
<polygon fill="none" stroke="#000000" points="1598.6241,-224.5 1598.6241,-243.5 1702.6241,-243.5 1702.6241,-224.5 1598.6241,-224.5"/>
<text text-anchor="middle" x="1650.6241" y="-231.5" font-family="Helvetica,sans-Serif" font-size="10.00" fill="#000000">net/gnrc/netif/conf.h</text>
</a>
</g>
</g>
<!-- Node28&#45;&gt;Node33 -->
<g id="edge62" class="edge">
<title>Node28&#45;&gt;Node33</title>
<path fill="none" stroke="#191970" d="M1742.5425,-280.3733C1724.884,-271.4644 1698.4189,-258.1127 1678.4144,-248.0203"/>
<polygon fill="#191970" stroke="#191970" points="1679.9614,-244.8806 1669.4567,-243.5011 1676.8083,-251.1303 1679.9614,-244.8806"/>
</g>
<!-- Node38 -->
<g id="node39" class="node">
<title>Node38</title>
<g id="a_node39"><a xlink:href="flags_8h.html" target="_top" xlink:title="Flag definitions for Network interface API. ">
<polygon fill="none" stroke="#000000" points="1720.6241,-224.5 1720.6241,-243.5 1826.6241,-243.5 1826.6241,-224.5 1720.6241,-224.5"/>
<text text-anchor="middle" x="1773.6241" y="-231.5" font-family="Helvetica,sans-Serif" font-size="10.00" fill="#000000">net/gnrc/netif/flags.h</text>
</a>
</g>
</g>
<!-- Node28&#45;&gt;Node38 -->
<g id="edge77" class="edge">
<title>Node28&#45;&gt;Node38</title>
<path fill="none" stroke="#191970" d="M1763.7144,-280.2455C1765.2802,-272.9382 1767.4753,-262.6944 1769.4017,-253.7046"/>
<polygon fill="#191970" stroke="#191970" points="1772.8848,-254.1541 1771.5578,-243.6427 1766.0402,-252.6873 1772.8848,-254.1541"/>
</g>
<!-- Node39 -->
<g id="node40" class="node">
<title>Node39</title>
<g id="a_node40"><a xlink:href="ndp_8h.html" target="_top" xlink:title="IPv6 neighbor discovery message type definitions. ">
<polygon fill="none" stroke="#000000" points="1447.1241,-224.5 1447.1241,-243.5 1504.1241,-243.5 1504.1241,-224.5 1447.1241,-224.5"/>
<text text-anchor="middle" x="1475.6241" y="-231.5" font-family="Helvetica,sans-Serif" font-size="10.00" fill="#000000">net/ndp.h</text>
</a>
</g>
</g>
<!-- Node28&#45;&gt;Node39 -->
<g id="edge78" class="edge">
<title>Node28&#45;&gt;Node39</title>
<path fill="none" stroke="#191970" d="M1720.3427,-281.9169C1665.119,-271.1039 1567.9329,-252.0744 1514.1484,-241.5432"/>
<polygon fill="#191970" stroke="#191970" points="1514.7992,-238.1043 1504.313,-239.6174 1513.4541,-244.9738 1514.7992,-238.1043"/>
</g>
<!-- Node40 -->
<g id="node41" class="node">
<title>Node40</title>
<g id="a_node41"><a xlink:href="drivers_2include_2net_2netdev_8h.html" target="_top" xlink:title="Definitions low&#45;level network driver interface. ">
<polygon fill="none" stroke="#000000" points="1999.1241,-224.5 1999.1241,-243.5 2070.1241,-243.5 2070.1241,-224.5 1999.1241,-224.5"/>
<text text-anchor="middle" x="2034.6241" y="-231.5" font-family="Helvetica,sans-Serif" font-size="10.00" fill="#000000">net/netdev.h</text>
</a>
</g>
</g>
<!-- Node28&#45;&gt;Node40 -->
<g id="edge82" class="edge">
<title>Node28&#45;&gt;Node40</title>
<path fill="none" stroke="#191970" d="M1802.7906,-281.5556C1852.7836,-271.3006 1936.8537,-254.0555 1988.8424,-243.3911"/>
<polygon fill="#191970" stroke="#191970" points="1989.7001,-246.7881 1998.7928,-241.35 1988.2934,-239.9309 1989.7001,-246.7881"/>
</g>
<!-- Node44 -->
<g id="node45" class="node">
<title>Node44</title>
<g id="a_node45"><a xlink:href="rmutex_8h.html" target="_top" xlink:title="Recursive Mutex for thread synchronization. ">
<polygon fill="none" stroke="#000000" points="2254.1241,-168.5 2254.1241,-187.5 2309.1241,-187.5 2309.1241,-168.5 2254.1241,-168.5"/>
<text text-anchor="middle" x="2281.6241" y="-175.5" font-family="Helvetica,sans-Serif" font-size="10.00" fill="#000000">rmutex.h</text>
</a>
</g>
</g>
<!-- Node28&#45;&gt;Node44 -->
<g id="edge89" class="edge">
<title>Node28&#45;&gt;Node44</title>
<path fill="none" stroke="#191970" d="M1802.8705,-288.3359C1864.3007,-284.9009 1982.867,-274.5658 2078.6241,-244 2097.1813,-238.0765 2099.4886,-231.1105 2117.6241,-224 2159.9137,-207.4193 2210.4999,-194.1746 2244.2001,-186.2323"/>
<polygon fill="#191970" stroke="#191970" points="2245.1375,-189.6079 2254.0887,-183.9398 2243.5566,-182.7887 2245.1375,-189.6079"/>
</g>
<!-- Node47 -->
<g id="node48" class="node">
<title>Node47</title>
<g id="a_node48"><a xlink:href="netif_8h.html" target="_top" xlink:title="Common network interface API definitions. ">
<polygon fill="none" stroke="#000000" points="1882.6241,-224.5 1882.6241,-243.5 1942.6241,-243.5 1942.6241,-224.5 1882.6241,-224.5"/>
<text text-anchor="middle" x="1912.6241" y="-231.5" font-family="Helvetica,sans-Serif" font-size="10.00" fill="#000000">net/netif.h</text>
</a>
</g>
</g>
<!-- Node28&#45;&gt;Node47 -->
<g id="edge97" class="edge">
<title>Node28&#45;&gt;Node47</title>
<path fill="none" stroke="#191970" d="M1787.582,-280.3733C1812.3649,-271.1822 1849.8987,-257.2624 1877.3782,-247.0713"/>
<polygon fill="#191970" stroke="#191970" points="1878.8461,-250.26 1887.005,-243.5011 1876.412,-243.6968 1878.8461,-250.26"/>
</g>
<!-- Node30&#45;&gt;Node1 -->
<g id="edge52" class="edge">
<title>Node30&#45;&gt;Node1</title>
<path fill="none" stroke="#191970" d="M1409.093,-168.5835C1364.2995,-157.842 1297.2918,-140.6503 1288.6241,-132 1276.3839,-119.7842 1271.9144,-100.2266 1270.3395,-85.5666"/>
<polygon fill="#191970" stroke="#191970" points="1273.825,-85.2374 1269.6187,-75.5134 1266.8429,-85.7381 1273.825,-85.2374"/>
</g>
<!-- Node30&#45;&gt;Node3 -->
<g id="edge53" class="edge">
<title>Node30&#45;&gt;Node3</title>
<path fill="none" stroke="#191970" d="M1409.0717,-168.6108C1369.7872,-159.4617 1308.5544,-145.06 1255.6241,-132 1254.182,-131.6442 1252.7106,-131.2785 1251.2247,-130.9071"/>
<polygon fill="#191970" stroke="#191970" points="1251.9173,-127.4722 1241.3646,-128.4159 1250.2026,-134.2589 1251.9173,-127.4722"/>
</g>
<!-- Node31 -->
<g id="node32" class="node">
<title>Node31</title>
<g id="a_node32"><a xlink:href="byteorder_8h.html" target="_top" xlink:title="Functions to work with different byte orders. ">
<polygon fill="none" stroke="#000000" points="1486.1241,-56.5 1486.1241,-75.5 1551.1241,-75.5 1551.1241,-56.5 1486.1241,-56.5"/>
<text text-anchor="middle" x="1518.6241" y="-63.5" font-family="Helvetica,sans-Serif" font-size="10.00" fill="#000000">byteorder.h</text>
</a>
</g>
</g>
<!-- Node30&#45;&gt;Node31 -->
<g id="edge54" class="edge">
<title>Node30&#45;&gt;Node31</title>
<path fill="none" stroke="#191970" d="M1463.5653,-168.1803C1474.5616,-159.7535 1489.5156,-146.6714 1498.6241,-132 1507.4939,-117.7132 1512.6512,-99.2364 1515.4998,-85.4677"/>
<polygon fill="#191970" stroke="#191970" points="1518.947,-86.0735 1517.3161,-75.6049 1512.0628,-84.8056 1518.947,-86.0735"/>
</g>
<!-- Node32 -->
<g id="node33" class="node">
<title>Node32</title>
<g id="a_node33"><a xlink:href="ipv4_2addr_8h.html" target="_top" xlink:title="IPv6 address type and helper functions definitions. ">
<polygon fill="none" stroke="#000000" points="1298.1241,-112.5 1298.1241,-131.5 1379.1241,-131.5 1379.1241,-112.5 1298.1241,-112.5"/>
<text text-anchor="middle" x="1338.6241" y="-119.5" font-family="Helvetica,sans-Serif" font-size="10.00" fill="#000000">net/ipv4/addr.h</text>
</a>
</g>
</g>
<!-- Node30&#45;&gt;Node32 -->
<g id="edge56" class="edge">
<title>Node30&#45;&gt;Node32</title>
<path fill="none" stroke="#191970" d="M1430.5425,-168.3733C1412.884,-159.4644 1386.4189,-146.1127 1366.4144,-136.0203"/>
<polygon fill="#191970" stroke="#191970" points="1367.9614,-132.8806 1357.4567,-131.5011 1364.8083,-139.1303 1367.9614,-132.8806"/>
</g>
<!-- Node31&#45;&gt;Node2 -->
<g id="edge55" class="edge">
<title>Node31&#45;&gt;Node2</title>
<path fill="none" stroke="#191970" d="M1508.1729,-56.2455C1499.3973,-48.0549 1486.6687,-36.1749 1476.3101,-26.5069"/>
<polygon fill="#191970" stroke="#191970" points="1478.6543,-23.9072 1468.9556,-19.6427 1473.878,-29.0246 1478.6543,-23.9072"/>
</g>
<!-- Node32&#45;&gt;Node1 -->
<g id="edge57" class="edge">
<title>Node32&#45;&gt;Node1</title>
<path fill="none" stroke="#191970" d="M1326.6052,-112.2455C1316.4143,-103.9746 1301.5879,-91.9416 1289.6135,-82.2232"/>
<polygon fill="#191970" stroke="#191970" points="1291.4755,-79.2268 1281.5053,-75.6427 1287.0643,-84.662 1291.4755,-79.2268"/>
</g>
<!-- Node32&#45;&gt;Node2 -->
<g id="edge58" class="edge">
<title>Node32&#45;&gt;Node2</title>
<path fill="none" stroke="#191970" d="M1348.8553,-112.4509C1369.3126,-93.3574 1415.478,-50.2697 1440.9388,-26.5063"/>
<polygon fill="#191970" stroke="#191970" points="1443.4964,-28.9068 1448.4189,-19.5249 1438.7202,-23.7894 1443.4964,-28.9068"/>
</g>
<!-- Node32&#45;&gt;Node31 -->
<g id="edge59" class="edge">
<title>Node32&#45;&gt;Node31</title>
<path fill="none" stroke="#191970" d="M1369.5672,-112.3733C1399.6281,-103.021 1445.4267,-88.7725 1478.3219,-78.5385"/>
<polygon fill="#191970" stroke="#191970" points="1479.576,-81.8139 1488.0848,-75.5011 1477.4965,-75.1299 1479.576,-81.8139"/>
</g>
<!-- Node33&#45;&gt;Node9 -->
<g id="edge63" class="edge">
<title>Node33&#45;&gt;Node9</title>
<path fill="none" stroke="#191970" d="M1674.6049,-224.3359C1693.3081,-216.175 1719.4138,-203.3754 1739.6241,-188 1750.6974,-179.5758 1809.1695,-114.6598 1837.3768,-83.1079"/>
<polygon fill="#191970" stroke="#191970" points="1840.1088,-85.3032 1844.1582,-75.5127 1834.8872,-80.641 1840.1088,-85.3032"/>
</g>
<!-- Node33&#45;&gt;Node20 -->
<g id="edge76" class="edge">
<title>Node33&#45;&gt;Node20</title>
<path fill="none" stroke="#191970" d="M1598.3052,-229.9871C1480.9292,-220.9065 1201.631,-198.8411 1127.0289,-187.7607"/>
<polygon fill="#191970" stroke="#191970" points="1127.3066,-184.2591 1116.8694,-186.0803 1126.1642,-191.1653 1127.3066,-184.2591"/>
</g>
<!-- Node34 -->
<g id="node35" class="node">
<title>Node34</title>
<g id="a_node35"><a xlink:href="sys_2include_2net_2ieee802154_8h.html" target="_top" xlink:title="IEEE 802.15.4 header definitions. ">
<polygon fill="none" stroke="#000000" points="1623.1241,-168.5 1623.1241,-187.5 1714.1241,-187.5 1714.1241,-168.5 1623.1241,-168.5"/>
<text text-anchor="middle" x="1668.6241" y="-175.5" font-family="Helvetica,sans-Serif" font-size="10.00" fill="#000000">net/ieee802154.h</text>
</a>
</g>
</g>
<!-- Node33&#45;&gt;Node34 -->
<g id="edge64" class="edge">
<title>Node33&#45;&gt;Node34</title>
<path fill="none" stroke="#191970" d="M1653.7595,-224.2455C1656.1341,-216.8579 1659.4734,-206.4689 1662.3856,-197.4087"/>
<polygon fill="#191970" stroke="#191970" points="1665.7966,-198.234 1665.5247,-187.6427 1659.1324,-196.0919 1665.7966,-198.234"/>
</g>
<!-- Node36 -->
<g id="node37" class="node">
<title>Node36</title>
<g id="a_node37"><a xlink:href="net_2ethernet_2hdr_8h.html" target="_top" xlink:title="Ethernet header definitions. ">
<polygon fill="none" stroke="#000000" points="1397.1241,-112.5 1397.1241,-131.5 1490.1241,-131.5 1490.1241,-112.5 1397.1241,-112.5"/>
<text text-anchor="middle" x="1443.6241" y="-119.5" font-family="Helvetica,sans-Serif" font-size="10.00" fill="#000000">net/ethernet/hdr.h</text>
</a>
</g>
</g>
<!-- Node33&#45;&gt;Node36 -->
<g id="edge71" class="edge">
<title>Node33&#45;&gt;Node36</title>
<path fill="none" stroke="#191970" d="M1632.9754,-224.4509C1596.6171,-204.7788 1513.1841,-159.6363 1470.2393,-136.4005"/>
<polygon fill="#191970" stroke="#191970" points="1471.6889,-133.2054 1461.2282,-131.5249 1468.3577,-139.362 1471.6889,-133.2054"/>
</g>
<!-- Node37 -->
<g id="node38" class="node">
<title>Node37</title>
<g id="a_node38"><a xlink:href="ipv6_2nib_2conf_8h.html" target="_top" xlink:title="Configuration macro definitions for neighbor information base. ">
<polygon fill="none" stroke="#000000" points="1821.1241,-112.5 1821.1241,-131.5 1940.1241,-131.5 1940.1241,-112.5 1821.1241,-112.5"/>
<text text-anchor="middle" x="1880.6241" y="-119.5" font-family="Helvetica,sans-Serif" font-size="10.00" fill="#000000">net/gnrc/ipv6/nib/conf.h</text>
</a>
</g>
</g>
<!-- Node33&#45;&gt;Node37 -->
<g id="edge74" class="edge">
<title>Node33&#45;&gt;Node37</title>
<path fill="none" stroke="#191970" d="M1702.7605,-224.6671C1734.2054,-217.6017 1774.2973,-205.9777 1806.6241,-188 1829.7271,-175.1519 1851.7403,-153.9694 1865.6581,-139.0743"/>
<polygon fill="#191970" stroke="#191970" points="1868.3727,-141.2915 1872.5128,-131.539 1863.1946,-136.581 1868.3727,-141.2915"/>
</g>
<!-- Node34&#45;&gt;Node2 -->
<g id="edge65" class="edge">
<title>Node34&#45;&gt;Node2</title>
<path fill="none" stroke="#191970" d="M1691.1936,-168.3823C1715.896,-156.431 1750.0682,-134.8113 1734.6241,-112 1706.6342,-70.6579 1560.4815,-32.9833 1492.9276,-17.4777"/>
<polygon fill="#191970" stroke="#191970" points="1493.6982,-14.0637 1483.172,-15.2675 1492.1515,-20.8907 1493.6982,-14.0637"/>
</g>
<!-- Node34&#45;&gt;Node25 -->
<g id="edge66" class="edge">
<title>Node34&#45;&gt;Node25</title>
<path fill="none" stroke="#191970" d="M1622.8222,-175.0176C1588.6143,-172.8602 1540.7073,-169.9867 1498.6241,-168 1049.5062,-146.7973 936.5474,-156.9873 487.6241,-132 454.4014,-130.1508 416.537,-127.1948 389.9074,-124.9753"/>
<polygon fill="#191970" stroke="#191970" points="390.1923,-121.487 379.9337,-124.1347 389.6044,-128.4622 390.1923,-121.487"/>
</g>
<!-- Node34&#45;&gt;Node31 -->
<g id="edge67" class="edge">
<title>Node34&#45;&gt;Node31</title>
<path fill="none" stroke="#191970" d="M1661.7545,-168.4794C1651.435,-154.6814 1630.7678,-128.9296 1608.6241,-112 1591.4515,-98.8709 1569.9659,-87.7258 1552.2946,-79.6953"/>
<polygon fill="#191970" stroke="#191970" points="1553.4833,-76.3944 1542.9213,-75.5616 1550.6587,-82.7992 1553.4833,-76.3944"/>
</g>
<!-- Node35 -->
<g id="node36" class="node">
<title>Node35</title>
<g id="a_node36"><a xlink:href="eui64_8h.html" target="_top" xlink:title="EUI&#45;64 data type definition. ">
<polygon fill="none" stroke="#000000" points="1661.1241,-112.5 1661.1241,-131.5 1726.1241,-131.5 1726.1241,-112.5 1661.1241,-112.5"/>
<text text-anchor="middle" x="1693.6241" y="-119.5" font-family="Helvetica,sans-Serif" font-size="10.00" fill="#000000">net/eui64.h</text>
</a>
</g>
</g>
<!-- Node34&#45;&gt;Node35 -->
<g id="edge68" class="edge">
<title>Node34&#45;&gt;Node35</title>
<path fill="none" stroke="#191970" d="M1672.9788,-168.2455C1676.3485,-160.6973 1681.1171,-150.0158 1685.2225,-140.8197"/>
<polygon fill="#191970" stroke="#191970" points="1688.4388,-142.2009 1689.3194,-131.6427 1682.0468,-139.3473 1688.4388,-142.2009"/>
</g>
<!-- Node35&#45;&gt;Node2 -->
<g id="edge69" class="edge">
<title>Node35&#45;&gt;Node2</title>
<path fill="none" stroke="#191970" d="M1674.6286,-112.4183C1648.7383,-99.4105 1600.8693,-75.5443 1559.6241,-56 1536.1318,-44.868 1509.3475,-32.6926 1489.2666,-23.6657"/>
<polygon fill="#191970" stroke="#191970" points="1490.5477,-20.4044 1479.991,-19.5056 1487.6831,-26.7915 1490.5477,-20.4044"/>
</g>
<!-- Node35&#45;&gt;Node31 -->
<g id="edge70" class="edge">
<title>Node35&#45;&gt;Node31</title>
<path fill="none" stroke="#191970" d="M1663.5406,-112.3733C1634.4407,-103.0613 1590.1718,-88.8953 1558.2211,-78.671"/>
<polygon fill="#191970" stroke="#191970" points="1558.9061,-75.2155 1548.3151,-75.5011 1556.7726,-81.8824 1558.9061,-75.2155"/>
</g>
<!-- Node36&#45;&gt;Node13 -->
<g id="edge72" class="edge">
<title>Node36&#45;&gt;Node13</title>
<path fill="none" stroke="#191970" d="M1396.9311,-113.2666C1393.7871,-112.8006 1390.663,-112.372 1387.6241,-112 1150.1946,-82.9315 1088.9555,-96.3949 850.6241,-76 832.2352,-74.4264 811.8995,-72.3558 794.6961,-70.5071"/>
<polygon fill="#191970" stroke="#191970" points="794.7545,-66.9929 784.4347,-69.3912 793.9976,-73.9519 794.7545,-66.9929"/>
</g>
<!-- Node36&#45;&gt;Node31 -->
<g id="edge73" class="edge">
<title>Node36&#45;&gt;Node31</title>
<path fill="none" stroke="#191970" d="M1456.6881,-112.2455C1467.9803,-103.814 1484.5086,-91.4729 1497.6512,-81.6598"/>
<polygon fill="#191970" stroke="#191970" points="1499.791,-84.4301 1505.7098,-75.6427 1495.603,-78.8211 1499.791,-84.4301"/>
</g>
<!-- Node37&#45;&gt;Node9 -->
<g id="edge75" class="edge">
<title>Node37&#45;&gt;Node9</title>
<path fill="none" stroke="#191970" d="M1875.7469,-112.2455C1871.9728,-104.6973 1866.632,-94.0158 1862.034,-84.8197"/>
<polygon fill="#191970" stroke="#191970" points="1865.0482,-83.0217 1857.4455,-75.6427 1858.7872,-86.1522 1865.0482,-83.0217"/>
</g>
<!-- Node39&#45;&gt;Node2 -->
<g id="edge79" class="edge">
<title>Node39&#45;&gt;Node2</title>
<path fill="none" stroke="#191970" d="M1447.0176,-226.0749C1376.4478,-206.2461 1198.5965,-154.4729 1182.6241,-132 1120.1295,-44.071 1336.7318,-18.6621 1423.884,-12.0853"/>
<polygon fill="#191970" stroke="#191970" points="1424.3584,-15.5605 1434.0839,-11.3575 1423.8601,-8.5782 1424.3584,-15.5605"/>
</g>
<!-- Node39&#45;&gt;Node30 -->
<g id="edge81" class="edge">
<title>Node39&#45;&gt;Node30</title>
<path fill="none" stroke="#191970" d="M1471.0953,-224.2455C1467.5907,-216.6973 1462.6314,-206.0158 1458.3619,-196.8197"/>
<polygon fill="#191970" stroke="#191970" points="1461.4868,-195.2389 1454.1011,-187.6427 1455.1377,-198.1867 1461.4868,-195.2389"/>
</g>
<!-- Node39&#45;&gt;Node31 -->
<g id="edge80" class="edge">
<title>Node39&#45;&gt;Node31</title>
<path fill="none" stroke="#191970" d="M1480.9551,-224.3107C1485.8922,-215.1239 1493.2594,-200.8543 1498.6241,-188 1508.7469,-163.7452 1513.1485,-157.8985 1517.6241,-132 1520.2504,-116.8031 1520.3918,-99.3446 1519.9351,-86.2021"/>
<polygon fill="#191970" stroke="#191970" points="1523.4168,-85.7439 1519.4272,-75.9289 1516.4253,-86.0896 1523.4168,-85.7439"/>
</g>
<!-- Node40&#45;&gt;Node2 -->
<g id="edge83" class="edge">
<title>Node40&#45;&gt;Node2</title>
<path fill="none" stroke="#191970" d="M2037.9656,-224.2054C2047.4965,-194.2562 2071.2975,-103.0849 2025.6241,-56 1988.5322,-17.7617 1611.1903,-11.3035 1493.4919,-10.218"/>
<polygon fill="#191970" stroke="#191970" points="1493.2755,-6.7162 1483.2462,-10.1313 1493.2162,-13.7159 1493.2755,-6.7162"/>
</g>
<!-- Node40&#45;&gt;Node18 -->
<g id="edge87" class="edge">
<title>Node40&#45;&gt;Node18</title>
<path fill="none" stroke="#191970" d="M2026.4374,-224.2455C2019.7653,-216.2958 2010.1762,-204.8706 2002.1988,-195.3656"/>
<polygon fill="#191970" stroke="#191970" points="2004.8268,-193.0524 1995.7171,-187.6427 1999.4649,-197.5525 2004.8268,-193.0524"/>
</g>
<!-- Node41 -->
<g id="node42" class="node">
<title>Node41</title>
<g id="a_node42"><a xlink:href="errno_8h.html" target="_top" xlink:title="errno.h">
<polygon fill="none" stroke="#000000" points="2078.1241,-168.5 2078.1241,-187.5 2125.1241,-187.5 2125.1241,-168.5 2078.1241,-168.5"/>
<text text-anchor="middle" x="2101.6241" y="-175.5" font-family="Helvetica,sans-Serif" font-size="10.00" fill="#000000">errno.h</text>
</a>
</g>
</g>
<!-- Node40&#45;&gt;Node41 -->
<g id="edge84" class="edge">
<title>Node40&#45;&gt;Node41</title>
<path fill="none" stroke="#191970" d="M2046.2946,-224.2455C2056.1902,-215.9746 2070.5868,-203.9416 2082.2142,-194.2232"/>
<polygon fill="#191970" stroke="#191970" points="2084.6591,-196.7413 2090.0874,-187.6427 2080.1699,-191.3703 2084.6591,-196.7413"/>
</g>
<!-- Node42 -->
<g id="node43" class="node">
<title>Node42</title>
<g id="a_node43"><a xlink:href="iolist_8h.html" target="_top" xlink:title="iolist scatter / gather IO ">
<polygon fill="none" stroke="#000000" points="2143.1241,-168.5 2143.1241,-187.5 2188.1241,-187.5 2188.1241,-168.5 2143.1241,-168.5"/>
<text text-anchor="middle" x="2165.6241" y="-175.5" font-family="Helvetica,sans-Serif" font-size="10.00" fill="#000000">iolist.h</text>
</a>
</g>
</g>
<!-- Node40&#45;&gt;Node42 -->
<g id="edge85" class="edge">
<title>Node40&#45;&gt;Node42</title>
<path fill="none" stroke="#191970" d="M2057.1438,-224.3733C2078.3613,-215.3032 2110.3517,-201.6279 2134.101,-191.4755"/>
<polygon fill="#191970" stroke="#191970" points="2135.579,-194.6502 2143.3983,-187.5011 2132.8274,-188.2136 2135.579,-194.6502"/>
</g>
<!-- Node43 -->
<g id="node44" class="node">
<title>Node43</title>
<polygon fill="none" stroke="#bfbfbf" points="2073.1241,-112.5 2073.1241,-131.5 2124.1241,-131.5 2124.1241,-112.5 2073.1241,-112.5"/>
<text text-anchor="middle" x="2098.6241" y="-119.5" font-family="Helvetica,sans-Serif" font-size="10.00" fill="#000000">unistd.h</text>
</g>
<!-- Node42&#45;&gt;Node43 -->
<g id="edge86" class="edge">
<title>Node42&#45;&gt;Node43</title>
<path fill="none" stroke="#191970" d="M2153.9536,-168.2455C2144.0581,-159.9746 2129.6614,-147.9416 2118.0341,-138.2232"/>
<polygon fill="#191970" stroke="#191970" points="2120.0783,-135.3703 2110.1609,-131.6427 2115.5891,-140.7413 2120.0783,-135.3703"/>
</g>
<!-- Node44&#45;&gt;Node2 -->
<g id="edge90" class="edge">
<title>Node44&#45;&gt;Node2</title>
<path fill="none" stroke="#191970" d="M2254.7245,-168.4447C2232.0275,-159.9865 2198.9605,-146.7244 2171.6241,-132 2118.338,-103.298 2115.798,-75.8584 2058.6241,-56 1953.1002,-19.3481 1605.1833,-11.8313 1493.48,-10.3496"/>
<polygon fill="#191970" stroke="#191970" points="1493.4663,-6.8493 1483.4235,-10.2243 1493.379,-13.8487 1493.4663,-6.8493"/>
</g>
<!-- Node44&#45;&gt;Node12 -->
<g id="edge96" class="edge">
<title>Node44&#45;&gt;Node12</title>
<path fill="none" stroke="#191970" d="M2254.1174,-174.1872C2237.5026,-172.0281 2215.8843,-169.4724 2196.6241,-168 1746.9855,-133.6266 1633.286,-148.1346 1182.6241,-132 1103.5608,-129.1694 1011.805,-125.8502 956.2668,-123.8373"/>
<polygon fill="#191970" stroke="#191970" points="956.1133,-120.3296 945.9931,-123.4649 955.8597,-127.325 956.1133,-120.3296"/>
</g>
<!-- Node45 -->
<g id="node46" class="node">
<title>Node45</title>
<polygon fill="none" stroke="#bfbfbf" points="2180.6241,-112.5 2180.6241,-131.5 2248.6241,-131.5 2248.6241,-112.5 2180.6241,-112.5"/>
<text text-anchor="middle" x="2214.6241" y="-119.5" font-family="Helvetica,sans-Serif" font-size="10.00" fill="#000000">stdatomic.h</text>
</g>
<!-- Node44&#45;&gt;Node45 -->
<g id="edge91" class="edge">
<title>Node44&#45;&gt;Node45</title>
<path fill="none" stroke="#191970" d="M2269.9536,-168.2455C2260.0581,-159.9746 2245.6614,-147.9416 2234.0341,-138.2232"/>
<polygon fill="#191970" stroke="#191970" points="2236.0783,-135.3703 2226.1609,-131.6427 2231.5891,-140.7413 2236.0783,-135.3703"/>
</g>
<!-- Node46 -->
<g id="node47" class="node">
<title>Node46</title>
<g id="a_node47"><a xlink:href="mutex_8h.html" target="_top" xlink:title="Mutex for thread synchronization. ">
<polygon fill="none" stroke="#000000" points="2342.6241,-112.5 2342.6241,-131.5 2394.6241,-131.5 2394.6241,-112.5 2342.6241,-112.5"/>
<text text-anchor="middle" x="2368.6241" y="-119.5" font-family="Helvetica,sans-Serif" font-size="10.00" fill="#000000">mutex.h</text>
</a>
</g>
</g>
<!-- Node44&#45;&gt;Node46 -->
<g id="edge92" class="edge">
<title>Node44&#45;&gt;Node46</title>
<path fill="none" stroke="#191970" d="M2296.7784,-168.2455C2310.1268,-159.6534 2329.7827,-147.0014 2345.1624,-137.1018"/>
<polygon fill="#191970" stroke="#191970" points="2347.1293,-139.9982 2353.6435,-131.6427 2343.3405,-134.1121 2347.1293,-139.9982"/>
</g>
<!-- Node46&#45;&gt;Node2 -->
<g id="edge94" class="edge">
<title>Node46&#45;&gt;Node2</title>
<path fill="none" stroke="#191970" d="M2345.7959,-112.4443C2308.8819,-97.4749 2233.464,-68.8782 2166.6241,-56 2035.2889,-30.6954 1617.2705,-15.2198 1493.4836,-11.1073"/>
<polygon fill="#191970" stroke="#191970" points="1493.5338,-7.6072 1483.4242,-10.7767 1493.3038,-14.6034 1493.5338,-7.6072"/>
</g>
<!-- Node46&#45;&gt;Node5 -->
<g id="edge95" class="edge">
<title>Node46&#45;&gt;Node5</title>
<path fill="none" stroke="#191970" d="M2342.4636,-115.0342C2337.8703,-113.9332 2333.1216,-112.8721 2328.6241,-112 2218.13,-90.574 2085.0201,-75.2052 2027.0236,-69.0175"/>
<polygon fill="#191970" stroke="#191970" points="2027.0843,-65.5045 2016.7723,-67.9363 2026.35,-72.4659 2027.0843,-65.5045"/>
</g>
<!-- Node46&#45;&gt;Node10 -->
<g id="edge93" class="edge">
<title>Node46&#45;&gt;Node10</title>
<path fill="none" stroke="#191970" d="M2358.2365,-112.3156C2342.7711,-98.3135 2312.3165,-72.3101 2282.6241,-56 2253.7941,-40.1636 2218.4195,-27.7988 2192.4992,-19.8959"/>
<polygon fill="#191970" stroke="#191970" points="2193.2969,-16.4817 2182.7141,-16.9868 2191.3021,-23.1915 2193.2969,-16.4817"/>
</g>
<!-- Node47&#45;&gt;Node2 -->
<g id="edge98" class="edge">
<title>Node47&#45;&gt;Node2</title>
<path fill="none" stroke="#191970" d="M1914.1227,-224.3549C1916.3419,-211.2753 1921.0726,-187.328 1928.6241,-168 1935.285,-150.9517 1944.0329,-149.7182 1948.6241,-132 1950.8538,-123.3953 1951.4828,-120.4167 1948.6241,-112 1938.5325,-82.2872 1933.0221,-71.2985 1905.6241,-56 1869.8889,-36.0461 1592.3684,-17.8954 1493.4781,-12.0001"/>
<polygon fill="#191970" stroke="#191970" points="1493.589,-8.5007 1483.4,-11.405 1493.1763,-15.4885 1493.589,-8.5007"/>
</g>
<!-- Node47&#45;&gt;Node5 -->
<g id="edge99" class="edge">
<title>Node47&#45;&gt;Node5</title>
<path fill="none" stroke="#191970" d="M1915.997,-224.4461C1920.9943,-211.0535 1931.2347,-186.2894 1944.6241,-168 1958.3666,-149.2283 1971.1059,-152.213 1982.6241,-132 1990.7143,-117.8027 1994.4413,-99.5544 1996.1582,-85.8456"/>
<polygon fill="#191970" stroke="#191970" points="1999.6716,-85.8839 1997.1792,-75.5864 1992.706,-85.1906 1999.6716,-85.8839"/>
</g>
<!-- Node47&#45;&gt;Node18 -->
<g id="edge100" class="edge">
<title>Node47&#45;&gt;Node18</title>
<path fill="none" stroke="#191970" d="M1925.6881,-224.2455C1936.9803,-215.814 1953.5086,-203.4729 1966.6512,-193.6598"/>
<polygon fill="#191970" stroke="#191970" points="1968.791,-196.4301 1974.7098,-187.6427 1964.603,-190.8211 1968.791,-196.4301"/>
</g>
<!-- Node48&#45;&gt;Node2 -->
<g id="edge104" class="edge">
<title>Node48&#45;&gt;Node2</title>
<path fill="none" stroke="#191970" d="M1504.8469,-399.4123C1620.5949,-393.0756 1907.3734,-375.8414 2001.6241,-356 2076.5818,-340.2201 2095.0539,-332.0567 2164.6241,-300 2293.1566,-240.7745 2496.8604,-231.8656 2421.6241,-112 2391.1892,-63.5114 2361.0647,-70.2749 2305.6241,-56 2226.1525,-35.5375 1642.9403,-15.8348 1493.4556,-11.0819"/>
<polygon fill="#191970" stroke="#191970" points="1493.5608,-7.5836 1483.4551,-10.7657 1493.3395,-14.5801 1493.5608,-7.5836"/>
</g>
<!-- Node48&#45;&gt;Node3 -->
<g id="edge103" class="edge">
<title>Node48&#45;&gt;Node3</title>
<path fill="none" stroke="#191970" d="M1447.3972,-392.3618C1412.5638,-351.5528 1276.9321,-192.6537 1231.5276,-139.4602"/>
<polygon fill="#191970" stroke="#191970" points="1233.9708,-136.9314 1224.8164,-131.5977 1228.6466,-141.476 1233.9708,-136.9314"/>
</g>
<!-- Node48&#45;&gt;Node24 -->
<g id="edge113" class="edge">
<title>Node48&#45;&gt;Node24</title>
<path fill="none" stroke="#191970" d="M1406.393,-399.0723C1243.4648,-388.9089 729.2165,-352.8623 678.6241,-300 655.1967,-275.5214 658.4189,-254.7613 672.6241,-224 678.45,-211.384 689.631,-200.9528 700.3146,-193.2314"/>
<polygon fill="#191970" stroke="#191970" points="702.3097,-196.1076 708.6642,-187.6299 698.4099,-190.2946 702.3097,-196.1076"/>
</g>
<!-- Node48&#45;&gt;Node28 -->
<g id="edge130" class="edge">
<title>Node48&#45;&gt;Node28</title>
<path fill="none" stroke="#191970" d="M1468.6032,-392.4763C1488.6495,-378.1972 1528.792,-351.2885 1566.6241,-336 1613.6465,-316.9976 1670.3626,-304.7188 1710.476,-297.6691"/>
<polygon fill="#191970" stroke="#191970" points="1711.2895,-301.0809 1720.5568,-295.9459 1710.11,-294.181 1711.2895,-301.0809"/>
</g>
<!-- Node48&#45;&gt;Node41 -->
<g id="edge102" class="edge">
<title>Node48&#45;&gt;Node41</title>
<path fill="none" stroke="#191970" d="M1504.7545,-400.5685C1659.7697,-394.8001 2132.3865,-367.2004 2201.6241,-244 2205.979,-236.251 2206.4196,-231.4844 2201.6241,-224 2193.8994,-211.9439 2160.9522,-198.24 2134.9587,-188.9486"/>
<polygon fill="#191970" stroke="#191970" points="2135.9987,-185.6046 2125.4039,-185.6163 2133.6935,-192.2142 2135.9987,-185.6046"/>
</g>
<!-- Node49 -->
<g id="node50" class="node">
<title>Node49</title>
<g id="a_node50"><a xlink:href="netif_2internal_8h_source.html" target="_top" xlink:title="net/gnrc/netif/internal.h">
<polygon fill="none" stroke="#000000" points="1703.6241,-336.5 1703.6241,-355.5 1819.6241,-355.5 1819.6241,-336.5 1703.6241,-336.5"/>
<text text-anchor="middle" x="1761.6241" y="-343.5" font-family="Helvetica,sans-Serif" font-size="10.00" fill="#000000">net/gnrc/netif/internal.h</text>
</a>
</g>
</g>
<!-- Node48&#45;&gt;Node49 -->
<g id="edge105" class="edge">
<title>Node48&#45;&gt;Node49</title>
<path fill="none" stroke="#191970" d="M1504.7883,-393.0026C1557.7007,-383.3193 1641.9841,-367.8949 1699.4594,-357.3766"/>
<polygon fill="#191970" stroke="#191970" points="1700.303,-360.7804 1709.5096,-355.5373 1699.0428,-353.8947 1700.303,-360.7804"/>
</g>
<!-- Node48&#45;&gt;Node51 -->
<g id="edge114" class="edge">
<title>Node48&#45;&gt;Node51</title>
<path fill="none" stroke="#191970" d="M1406.4978,-394.3898C1276.7091,-374.2843 925.2797,-319.8443 788.3254,-298.6287"/>
<polygon fill="#191970" stroke="#191970" points="788.484,-295.1116 778.066,-297.0394 787.4123,-302.0291 788.484,-295.1116"/>
</g>
<!-- Node49&#45;&gt;Node9 -->
<g id="edge106" class="edge">
<title>Node49&#45;&gt;Node9</title>
<path fill="none" stroke="#191970" d="M1819.8666,-340.87C1904.4915,-332.98 2057.0732,-316.989 2109.6241,-300 2209.5275,-267.7026 2263.7845,-278.1393 2317.6241,-188 2342.5337,-146.2959 2273.3463,-119.2488 2257.6241,-112 2241.9206,-104.7598 2014.0303,-81.753 1907.1765,-71.2815"/>
<polygon fill="#191970" stroke="#191970" points="1907.21,-67.7682 1896.9168,-70.2781 1906.5286,-74.7349 1907.21,-67.7682"/>
</g>
<!-- Node49&#45;&gt;Node18 -->
<g id="edge112" class="edge">
<title>Node49&#45;&gt;Node18</title>
<path fill="none" stroke="#191970" d="M1819.7155,-340.7025C1924.8132,-329.7868 2139.8139,-300.8999 2184.6241,-244 2190.1237,-237.0167 2190.1489,-230.9634 2184.6241,-224 2175.094,-211.9882 2086.8956,-194.9589 2031.7911,-185.347"/>
<polygon fill="#191970" stroke="#191970" points="2032.3631,-181.894 2021.9134,-183.6414 2031.172,-188.792 2032.3631,-181.894"/>
</g>
<!-- Node49&#45;&gt;Node28 -->
<g id="edge107" class="edge">
<title>Node49&#45;&gt;Node28</title>
<path fill="none" stroke="#191970" d="M1761.6241,-336.2455C1761.6241,-328.9382 1761.6241,-318.6944 1761.6241,-309.7046"/>
<polygon fill="#191970" stroke="#191970" points="1765.1242,-309.6426 1761.6241,-299.6427 1758.1242,-309.6427 1765.1242,-309.6426"/>
</g>
<!-- Node50 -->
<g id="node51" class="node">
<title>Node50</title>
<g id="a_node51"><a xlink:href="l2util_8h.html" target="_top" xlink:title="Link&#45;layer helper function definitions. ">
<polygon fill="none" stroke="#000000" points="1473.6241,-280.5 1473.6241,-299.5 1535.6241,-299.5 1535.6241,-280.5 1473.6241,-280.5"/>
<text text-anchor="middle" x="1504.6241" y="-287.5" font-family="Helvetica,sans-Serif" font-size="10.00" fill="#000000">net/l2util.h</text>
</a>
</g>
</g>
<!-- Node49&#45;&gt;Node50 -->
<g id="edge108" class="edge">
<title>Node49&#45;&gt;Node50</title>
<path fill="none" stroke="#191970" d="M1717.7363,-336.4369C1669.5198,-325.9306 1592.6923,-309.1899 1545.6467,-298.9388"/>
<polygon fill="#191970" stroke="#191970" points="1546.3107,-295.5014 1535.7948,-296.7921 1544.8204,-302.3409 1546.3107,-295.5014"/>
</g>
<!-- Node50&#45;&gt;Node2 -->
<g id="edge109" class="edge">
<title>Node50&#45;&gt;Node2</title>
<path fill="none" stroke="#191970" d="M1473.5059,-286.5676C1403.6847,-276.9698 1235.5134,-242.8213 1169.6241,-132 1158.9249,-114.0046 1166.4737,-69.7324 1180.6241,-56 1214.6975,-22.933 1356.9372,-13.5647 1423.7154,-10.9677"/>
<polygon fill="#191970" stroke="#191970" points="1423.8892,-14.4638 1433.7569,-10.6064 1423.6375,-7.4683 1423.8892,-14.4638"/>
</g>
<!-- Node50&#45;&gt;Node35 -->
<g id="edge110" class="edge">
<title>Node50&#45;&gt;Node35</title>
<path fill="none" stroke="#191970" d="M1514.1962,-280.4454C1529.0676,-266.126 1559.1899,-239.1653 1589.6241,-224 1644.4345,-196.6881 1685.4064,-236.6309 1722.6241,-188 1733.9422,-173.211 1722.306,-153.3166 1710.5757,-139.248"/>
<polygon fill="#191970" stroke="#191970" points="1713.1109,-136.8325 1703.8309,-131.7204 1707.8975,-141.5038 1713.1109,-136.8325"/>
</g>
<!-- Node50&#45;&gt;Node39 -->
<g id="edge111" class="edge">
<title>Node50&#45;&gt;Node39</title>
<path fill="none" stroke="#191970" d="M1499.5727,-280.2455C1495.6222,-272.617 1490.0144,-261.7881 1485.2183,-252.5267"/>
<polygon fill="#191970" stroke="#191970" points="1488.3242,-250.9131 1480.6177,-243.6427 1482.1083,-254.1321 1488.3242,-250.9131"/>
</g>
<!-- Node51&#45;&gt;Node1 -->
<g id="edge115" class="edge">
<title>Node51&#45;&gt;Node1</title>
<path fill="none" stroke="#191970" d="M773.0805,-280.499C803.8423,-272.5873 846.8288,-260.0373 882.6241,-244 898.2751,-236.9879 900.8637,-232.7323 915.6241,-224 958.4679,-198.6537 968.1969,-190.4555 1012.6241,-168 1068.0425,-139.9891 1082.9005,-134.8865 1140.6241,-112 1170.9668,-99.9696 1205.8619,-87.6141 1231.702,-78.7416"/>
<polygon fill="#191970" stroke="#191970" points="1233.1498,-81.9457 1241.4817,-75.4013 1230.8872,-75.3214 1233.1498,-81.9457"/>
</g>
<!-- Node51&#45;&gt;Node3 -->
<g id="edge117" class="edge">
<title>Node51&#45;&gt;Node3</title>
<path fill="none" stroke="#191970" d="M777.9749,-281.9031C815.6158,-274.4066 870.148,-261.7329 915.6241,-244 981.586,-218.2789 990.0827,-194.7743 1055.6241,-168 1097.8765,-150.7395 1148.8615,-137.3481 1181.9742,-129.5725"/>
<polygon fill="#191970" stroke="#191970" points="1183.1047,-132.9038 1192.0633,-127.2475 1181.5327,-126.0826 1183.1047,-132.9038"/>
</g>
<!-- Node51&#45;&gt;Node21 -->
<g id="edge127" class="edge">
<title>Node51&#45;&gt;Node21</title>
<path fill="none" stroke="#191970" d="M712.3003,-280.457C698.4264,-272.7433 681.084,-260.4606 672.6241,-244 655.8231,-211.31 659.9512,-166.9171 664.3614,-141.6831"/>
<polygon fill="#191970" stroke="#191970" points="667.8589,-142.0325 666.3334,-131.5481 660.9878,-140.6955 667.8589,-142.0325"/>
</g>
<!-- Node51&#45;&gt;Node24 -->
<g id="edge119" class="edge">
<title>Node51&#45;&gt;Node24</title>
<path fill="none" stroke="#191970" d="M714.6642,-280.3701C701.9917,-272.4681 686.0075,-259.9885 678.6241,-244 669.924,-225.1598 686.892,-206.2732 703.0044,-193.5606"/>
<polygon fill="#191970" stroke="#191970" points="705.2406,-196.2604 711.2117,-187.5085 701.0861,-190.6266 705.2406,-196.2604"/>
</g>
<!-- Node51&#45;&gt;Node25 -->
<g id="edge116" class="edge">
<title>Node51&#45;&gt;Node25</title>
<path fill="none" stroke="#191970" d="M699.7617,-280.4928C647.0065,-264.6545 540.8077,-230.3821 456.6241,-188 427.42,-173.2972 396.2796,-151.9865 376.4218,-137.5923"/>
<polygon fill="#191970" stroke="#191970" points="378.2721,-134.6089 368.1393,-131.5141 374.1306,-140.2523 378.2721,-134.6089"/>
</g>
<!-- Node52 -->
<g id="node53" class="node">
<title>Node52</title>
<polygon fill="none" stroke="#bfbfbf" points="688.1241,-224.5 688.1241,-243.5 753.1241,-243.5 753.1241,-224.5 688.1241,-224.5"/>
<text text-anchor="middle" x="720.6241" y="-231.5" font-family="Helvetica,sans-Serif" font-size="10.00" fill="#000000">cpu_conf.h</text>
</g>
<!-- Node51&#45;&gt;Node52 -->
<g id="edge118" class="edge">
<title>Node51&#45;&gt;Node52</title>
<path fill="none" stroke="#191970" d="M730.5339,-280.2455C728.968,-272.9382 726.7729,-262.6944 724.8465,-253.7046"/>
<polygon fill="#191970" stroke="#191970" points="728.2081,-252.6873 722.6904,-243.6427 721.3635,-254.1541 728.2081,-252.6873"/>
</g>
<!-- Node53 -->
<g id="node54" class="node">
<title>Node53</title>
<g id="a_node54"><a xlink:href="neterr_8h.html" target="_top" xlink:title="Error reporting definitions. ">
<polygon fill="none" stroke="#000000" points="1112.6241,-224.5 1112.6241,-243.5 1200.6241,-243.5 1200.6241,-224.5 1112.6241,-224.5"/>
<text text-anchor="middle" x="1156.6241" y="-231.5" font-family="Helvetica,sans-Serif" font-size="10.00" fill="#000000">net/gnrc/neterr.h</text>
</a>
</g>
</g>
<!-- Node51&#45;&gt;Node53 -->
<g id="edge120" class="edge">
<title>Node51&#45;&gt;Node53</title>
<path fill="none" stroke="#191970" d="M777.8691,-285.3216C846.0308,-278.0692 979.3274,-263.0938 1102.4359,-244.1088"/>
<polygon fill="#191970" stroke="#191970" points="1103.0702,-247.5523 1112.4138,-242.5576 1101.9948,-240.6354 1103.0702,-247.5523"/>
</g>
<!-- Node54 -->
<g id="node55" class="node">
<title>Node54</title>
<g id="a_node55"><a xlink:href="utlist_8h.html" target="_top" xlink:title="Macros for basic linked list operations. ">
<polygon fill="none" stroke="#000000" points="771.6241,-224.5 771.6241,-243.5 817.6241,-243.5 817.6241,-224.5 771.6241,-224.5"/>
<text text-anchor="middle" x="794.6241" y="-231.5" font-family="Helvetica,sans-Serif" font-size="10.00" fill="#000000">utlist.h</text>
</a>
</g>
</g>
<!-- Node51&#45;&gt;Node54 -->
<g id="edge128" class="edge">
<title>Node51&#45;&gt;Node54</title>
<path fill="none" stroke="#191970" d="M743.4237,-280.2455C752.4919,-272.0549 765.6447,-260.1749 776.3486,-250.5069"/>
<polygon fill="#191970" stroke="#191970" points="778.8733,-252.9429 783.9483,-243.6427 774.1812,-247.7482 778.8733,-252.9429"/>
</g>
<!-- Node53&#45;&gt;Node2 -->
<g id="edge122" class="edge">
<title>Node53&#45;&gt;Node2</title>
<path fill="none" stroke="#191970" d="M1112.3371,-225.0939C1036.9638,-208.9848 888.7614,-172.8622 856.6241,-132 835.678,-105.3672 827.5868,-80.8461 850.6241,-56 870.2278,-34.8571 1296.9481,-16.3801 1423.5326,-11.3485"/>
<polygon fill="#191970" stroke="#191970" points="1423.9641,-14.8343 1433.8185,-10.9431 1423.6883,-7.8398 1423.9641,-14.8343"/>
</g>
<!-- Node53&#45;&gt;Node11 -->
<g id="edge124" class="edge">
<title>Node53&#45;&gt;Node11</title>
<path fill="none" stroke="#191970" d="M1156.6241,-224.2455C1156.6241,-216.9382 1156.6241,-206.6944 1156.6241,-197.7046"/>
<polygon fill="#191970" stroke="#191970" points="1160.1242,-197.6426 1156.6241,-187.6427 1153.1242,-197.6427 1160.1242,-197.6426"/>
</g>
<!-- Node53&#45;&gt;Node12 -->
<g id="edge123" class="edge">
<title>Node53&#45;&gt;Node12</title>
<path fill="none" stroke="#191970" d="M1135.224,-224.4509C1090.6742,-204.5722 987.8382,-158.6852 936.272,-135.6756"/>
<polygon fill="#191970" stroke="#191970" points="937.5284,-132.4036 926.9701,-131.5249 934.676,-138.7961 937.5284,-132.4036"/>
</g>
<!-- Node53&#45;&gt;Node20 -->
<g id="edge126" class="edge">
<title>Node53&#45;&gt;Node20</title>
<path fill="none" stroke="#191970" d="M1145.1278,-224.2455C1135.3799,-215.9746 1121.1982,-203.9416 1109.7444,-194.2232"/>
<polygon fill="#191970" stroke="#191970" points="1111.8783,-191.4437 1101.9887,-187.6427 1107.3494,-196.7813 1111.8783,-191.4437"/>
</g>
<!-- Node53&#45;&gt;Node24 -->
<g id="edge125" class="edge">
<title>Node53&#45;&gt;Node24</title>
<path fill="none" stroke="#191970" d="M1112.4148,-225.4359C1109.4435,-224.9291 1106.4926,-224.4451 1103.6241,-224 1041.4819,-214.3568 862.6426,-193.5458 775.5086,-183.563"/>
<polygon fill="#191970" stroke="#191970" points="775.6842,-180.0603 765.3511,-182.4007 774.8883,-187.0149 775.6842,-180.0603"/>
</g>
<!-- Node53&#45;&gt;Node41 -->
<g id="edge121" class="edge">
<title>Node53&#45;&gt;Node41</title>
<path fill="none" stroke="#191970" d="M1200.6665,-232.1926C1354.413,-225.8033 1866.8093,-203.8167 2030.6241,-188 2042.8907,-186.8156 2056.2879,-185.0518 2068.1069,-183.3338"/>
<polygon fill="#191970" stroke="#191970" points="2068.6466,-186.7921 2078.0189,-181.8515 2067.6112,-179.8691 2068.6466,-186.7921"/>
</g>
<!-- Node54&#45;&gt;Node7 -->
<g id="edge129" class="edge">
<title>Node54&#45;&gt;Node7</title>
<path fill="none" stroke="#191970" d="M771.2868,-226.5325C768.0579,-225.6154 764.7706,-224.7417 761.6241,-224 678.923,-204.5059 580.1264,-189.814 527.9967,-182.7182"/>
<polygon fill="#191970" stroke="#191970" points="528.285,-179.2255 517.9075,-181.3607 527.3515,-186.163 528.285,-179.2255"/>
</g>
<!-- Node56&#45;&gt;Node2 -->
<g id="edge137" class="edge">
<title>Node56&#45;&gt;Node2</title>
<path fill="none" stroke="#191970" d="M217.2331,-224.3075C226.6212,-190.2081 259.712,-76.7142 289.6241,-56 337.4074,-22.91 1234.582,-12.2159 1423.7802,-10.3243"/>
<polygon fill="#191970" stroke="#191970" points="1424.0218,-13.8222 1433.9869,-10.224 1423.953,-6.8225 1424.0218,-13.8222"/>
</g>
<!-- Node56&#45;&gt;Node7 -->
<g id="edge136" class="edge">
<title>Node56&#45;&gt;Node7</title>
<path fill="none" stroke="#191970" d="M251.4076,-226.5636C304.6636,-215.7971 402.638,-195.99 455.5141,-185.3002"/>
<polygon fill="#191970" stroke="#191970" points="456.3532,-188.7015 465.4614,-183.2892 454.9661,-181.8403 456.3532,-188.7015"/>
</g>
<!-- Node56&#45;&gt;Node15 -->
<g id="edge139" class="edge">
<title>Node56&#45;&gt;Node15</title>
<path fill="none" stroke="#191970" d="M214.0012,-224.4862C212.2624,-197.9293 207.3278,-122.5651 204.9445,-86.1655"/>
<polygon fill="#191970" stroke="#191970" points="208.4136,-85.5778 204.2676,-75.8279 201.4286,-86.0352 208.4136,-85.5778"/>
</g>
<!-- Node56&#45;&gt;Node25 -->
<g id="edge138" class="edge">
<title>Node56&#45;&gt;Node25</title>
<path fill="none" stroke="#191970" d="M226.6457,-224.4509C250.8912,-205.1921 305.869,-161.5218 335.6154,-137.8935"/>
<polygon fill="#191970" stroke="#191970" points="337.9796,-140.4854 343.633,-131.5249 333.6257,-135.0041 337.9796,-140.4854"/>
</g>
<!-- Node57 -->
<g id="node58" class="node">
<title>Node57</title>
<g id="a_node58"><a xlink:href="sock_8h.html" target="_top" xlink:title="Common sock API definitions. ">
<polygon fill="none" stroke="#000000" points="119.6241,-168.5 119.6241,-187.5 181.6241,-187.5 181.6241,-168.5 119.6241,-168.5"/>
<text text-anchor="middle" x="150.6241" y="-175.5" font-family="Helvetica,sans-Serif" font-size="10.00" fill="#000000">net/sock.h</text>
</a>
</g>
</g>
<!-- Node56&#45;&gt;Node57 -->
<g id="edge140" class="edge">
<title>Node56&#45;&gt;Node57</title>
<path fill="none" stroke="#191970" d="M203.4762,-224.2455C194.1155,-216.0549 180.5383,-204.1749 169.4892,-194.5069"/>
<polygon fill="#191970" stroke="#191970" points="171.4749,-191.5937 161.6443,-187.6427 166.8653,-196.8618 171.4749,-191.5937"/>
</g>
<!-- Node58 -->
<g id="node59" class="node">
<title>Node58</title>
<polygon fill="none" stroke="#bfbfbf" points="27.1241,-168.5 27.1241,-187.5 102.1241,-187.5 102.1241,-168.5 27.1241,-168.5"/>
<text text-anchor="middle" x="64.6241" y="-175.5" font-family="Helvetica,sans-Serif" font-size="10.00" fill="#000000">sock_types.h</text>
</g>
<!-- Node56&#45;&gt;Node58 -->
<g id="edge142" class="edge">
<title>Node56&#45;&gt;Node58</title>
<path fill="none" stroke="#191970" d="M188.8382,-224.3733C164.2194,-215.1822 126.9341,-201.2624 99.6367,-191.0713"/>
<polygon fill="#191970" stroke="#191970" points="100.6661,-187.7198 90.0736,-187.5011 98.2178,-194.2777 100.6661,-187.7198"/>
</g>
<!-- Node57&#45;&gt;Node2 -->
<g id="edge141" class="edge">
<title>Node57&#45;&gt;Node2</title>
<path fill="none" stroke="#191970" d="M147.7201,-168.3083C141.4157,-145.0484 129.4202,-85.7899 160.6241,-56 184.1455,-33.5446 1219.808,-14.1976 1423.9094,-10.599"/>
<polygon fill="#191970" stroke="#191970" points="1424.1188,-14.096 1434.0559,-10.4211 1423.996,-7.0971 1424.1188,-14.096"/>
</g>
<!-- Node59&#45;&gt;Node1 -->
<g id="edge144" class="edge">
<title>Node59&#45;&gt;Node1</title>
<path fill="none" stroke="#191970" d="M323.6241,-504.4116C323.6241,-485.0538 323.6241,-439.9167 323.6241,-402 323.6241,-402 323.6241,-402 323.6241,-290 323.6241,-182.4298 386.8823,-149.7154 487.6241,-112 557.5958,-85.8042 1083.6588,-70.6862 1231.2355,-66.93"/>
<polygon fill="#191970" stroke="#191970" points="1231.682,-70.42 1241.5907,-66.6694 1231.5058,-63.4222 1231.682,-70.42"/>
</g>
<!-- Node59&#45;&gt;Node2 -->
<g id="edge145" class="edge">
<title>Node59&#45;&gt;Node2</title>
<path fill="none" stroke="#191970" d="M318.0171,-504.4834C307.4468,-485.6141 285.6241,-441.8343 285.6241,-402 285.6241,-402 285.6241,-402 285.6241,-290 285.6241,-184.7079 243.9685,-125.9979 322.6241,-56 364.7738,-18.4898 1238.1359,-11.288 1424.026,-10.1782"/>
<polygon fill="#191970" stroke="#191970" points="1424.0839,-13.678 1434.0635,-10.1203 1424.0434,-6.6781 1424.0839,-13.678"/>
</g>
<!-- Node59&#45;&gt;Node4 -->
<g id="edge146" class="edge">
<title>Node59&#45;&gt;Node4</title>
<path fill="none" stroke="#191970" d="M361.3136,-511.9438C460.2381,-506.3073 725.5271,-489.5819 810.6241,-468 965.8848,-428.6236 1137.8535,-339.7096 1202.3223,-304.6289"/>
<polygon fill="#191970" stroke="#191970" points="1204.2946,-307.5392 1211.3841,-299.6658 1200.9321,-301.3997 1204.2946,-307.5392"/>
</g>
<!-- Node59&#45;&gt;Node16 -->
<g id="edge147" class="edge">
<title>Node59&#45;&gt;Node16</title>
<path fill="none" stroke="#191970" d="M294.9158,-504.3733C266.261,-494.7645 222.1931,-479.9872 191.5318,-469.7056"/>
<polygon fill="#191970" stroke="#191970" points="192.2832,-466.266 181.6892,-466.4051 190.0576,-472.9028 192.2832,-466.266"/>
</g>
<!-- Node59&#45;&gt;Node17 -->
<g id="edge148" class="edge">
<title>Node59&#45;&gt;Node17</title>
<path fill="none" stroke="#191970" d="M361.4343,-509.2737C445.1699,-498.8068 645.6172,-473.7509 731.4773,-463.0184"/>
<polygon fill="#191970" stroke="#191970" points="732.1173,-466.4657 741.6059,-461.7523 731.249,-459.5197 732.1173,-466.4657"/>
</g>
<!-- Node59&#45;&gt;Node27 -->
<g id="edge149" class="edge">
<title>Node59&#45;&gt;Node27</title>
<path fill="none" stroke="#191970" d="M329.2312,-504.4834C339.8015,-485.6141 361.6241,-441.8343 361.6241,-402 361.6241,-402 361.6241,-402 361.6241,-346 361.6241,-311.8821 376.6036,-274.4701 386.9632,-252.676"/>
<polygon fill="#191970" stroke="#191970" points="390.1696,-254.0877 391.4598,-243.5717 383.8933,-250.9879 390.1696,-254.0877"/>
</g>
<!-- Node59&#45;&gt;Node56 -->
<g id="edge150" class="edge">
<title>Node59&#45;&gt;Node56</title>
<path fill="none" stroke="#191970" d="M309.0279,-504.2204C297.4736,-495.8168 281.6621,-482.7464 271.6241,-468 254.0606,-442.198 247.6241,-433.2125 247.6241,-402 247.6241,-402 247.6241,-402 247.6241,-346 247.6241,-312.051 233.5006,-274.5869 223.733,-252.7366"/>
<polygon fill="#191970" stroke="#191970" points="226.8794,-251.202 219.4934,-243.6061 220.5304,-254.1501 226.8794,-251.202"/>
</g>
<!-- Node60 -->
<g id="node61" class="node">
<title>Node60</title>
<g id="a_node61"><a xlink:href="sock_2udp_8h.html" target="_top" xlink:title="UDP sock definitions. ">
<polygon fill="none" stroke="#000000" points="24.1241,-224.5 24.1241,-243.5 105.1241,-243.5 105.1241,-224.5 24.1241,-224.5"/>
<text text-anchor="middle" x="64.6241" y="-231.5" font-family="Helvetica,sans-Serif" font-size="10.00" fill="#000000">net/sock/udp.h</text>
</a>
</g>
</g>
<!-- Node59&#45;&gt;Node60 -->
<g id="edge151" class="edge">
<title>Node59&#45;&gt;Node60</title>
<path fill="none" stroke="#191970" d="M306.7071,-504.4605C292.314,-495.915 271.5103,-482.52 255.6241,-468 178.0573,-397.1041 104.8924,-293.8187 76.7661,-252.2918"/>
<polygon fill="#191970" stroke="#191970" points="79.514,-250.1057 71.0325,-243.7563 73.7033,-254.009 79.514,-250.1057"/>
</g>
<!-- Node60&#45;&gt;Node2 -->
<g id="edge153" class="edge">
<title>Node60&#45;&gt;Node2</title>
<path fill="none" stroke="#191970" d="M42.8583,-224.3857C28.5577,-216.773 10.9989,-204.6416 2.6241,-188 -1.3717,-180.0599 .1192,-176.5287 2.6241,-168 25.275,-90.8782 66.9569,-76.7038 144.6241,-56 271.2592,-22.2428 1228.1826,-12.0325 1423.7721,-10.2886"/>
<polygon fill="#191970" stroke="#191970" points="1424.0692,-13.7863 1434.0381,-10.1987 1424.0078,-6.7865 1424.0692,-13.7863"/>
</g>
<!-- Node60&#45;&gt;Node7 -->
<g id="edge152" class="edge">
<title>Node60&#45;&gt;Node7</title>
<path fill="none" stroke="#191970" d="M105.1802,-228.6812C188.2597,-217.7855 376.6107,-193.0837 455.6487,-182.7181"/>
<polygon fill="#191970" stroke="#191970" points="456.1542,-186.1819 465.6142,-181.4111 455.2439,-179.2413 456.1542,-186.1819"/>
</g>
<!-- Node60&#45;&gt;Node15 -->
<g id="edge155" class="edge">
<title>Node60&#45;&gt;Node15</title>
<path fill="none" stroke="#191970" d="M46.4611,-224.4383C25.7475,-212.2044 -3.6399,-189.9595 9.6241,-168 42.0665,-114.2895 113.2082,-87.4516 159.7325,-75.1523"/>
<polygon fill="#191970" stroke="#191970" points="160.7113,-78.5151 169.5511,-72.6749 158.9986,-71.7279 160.7113,-78.5151"/>
</g>
<!-- Node60&#45;&gt;Node25 -->
<g id="edge154" class="edge">
<title>Node60&#45;&gt;Node25</title>
<path fill="none" stroke="#191970" d="M49.2807,-224.3818C29.9853,-211.1263 1.2485,-186.7552 17.6241,-168 37.4475,-145.296 239.4864,-129.6121 321.4016,-124.1407"/>
<polygon fill="#191970" stroke="#191970" points="321.7064,-127.6283 331.4554,-123.4803 321.2475,-120.6433 321.7064,-127.6283"/>
</g>
<!-- Node60&#45;&gt;Node57 -->
<g id="edge156" class="edge">
<title>Node60&#45;&gt;Node57</title>
<path fill="none" stroke="#191970" d="M79.6042,-224.2455C92.7992,-215.6534 112.2292,-203.0014 127.4321,-193.1018"/>
<polygon fill="#191970" stroke="#191970" points="129.3456,-196.0325 135.8157,-187.6427 125.5259,-190.1665 129.3456,-196.0325"/>
</g>
<!-- Node60&#45;&gt;Node58 -->
<g id="edge157" class="edge">
<title>Node60&#45;&gt;Node58</title>
<path fill="none" stroke="#191970" d="M64.6241,-224.2455C64.6241,-216.9382 64.6241,-206.6944 64.6241,-197.7046"/>
<polygon fill="#191970" stroke="#191970" points="68.1242,-197.6426 64.6241,-187.6427 61.1242,-197.6427 68.1242,-197.6426"/>
</g>
</g>
</svg>
