<?xml version="1.0" encoding="UTF-8" standalone="no"?>
<!DOCTYPE svg PUBLIC "-//W3C//DTD SVG 1.1//EN"
 "http://www.w3.org/Graphics/SVG/1.1/DTD/svg11.dtd">
<!-- Generated by graphviz version 2.40.1 (20161225.0304)
 -->
<!-- Title: drivers/include/grove_ledbar.h Pages: 1 -->
<svg width="241pt" height="207pt"
 viewBox="0.00 0.00 241.00 207.00" xmlns="http://www.w3.org/2000/svg" xmlns:xlink="http://www.w3.org/1999/xlink">
<g id="graph0" class="graph" transform="scale(1 1) rotate(0) translate(4 203)">
<title>drivers/include/grove_ledbar.h</title>
<!-- Node0 -->
<g id="node1" class="node">
<title>Node0</title>
<polygon fill="#bfbfbf" stroke="#000000" points="0,-168.5 0,-198.5 107,-198.5 107,-168.5 0,-168.5"/>
<text text-anchor="start" x="8" y="-186.5" font-family="Helvetica,sans-Serif" font-size="10.00" fill="#000000">drivers/include/grove</text>
<text text-anchor="middle" x="53.5" y="-175.5" font-family="Helvetica,sans-Serif" font-size="10.00" fill="#000000">_ledbar.h</text>
</g>
<!-- Node1 -->
<g id="node2" class="node">
<title>Node1</title>
<polygon fill="none" stroke="#bfbfbf" points="0,-56.5 0,-75.5 49,-75.5 49,-56.5 0,-56.5"/>
<text text-anchor="middle" x="24.5" y="-63.5" font-family="Helvetica,sans-Serif" font-size="10.00" fill="#000000">stdint.h</text>
</g>
<!-- Node0&#45;&gt;Node1 -->
<g id="edge1" class="edge">
<title>Node0&#45;&gt;Node1</title>
<path fill="none" stroke="#191970" d="M49.7088,-168.1389C44.4602,-146.873 34.982,-108.4702 29.2623,-85.2956"/>
<polygon fill="#191970" stroke="#191970" points="32.6537,-84.4295 26.8594,-75.5595 25.8576,-86.1068 32.6537,-84.4295"/>
</g>
<!-- Node2 -->
<g id="node3" class="node">
<title>Node2</title>
<g id="a_node3"><a xlink:href="my9221_8h.html" target="_top" xlink:title="Interface for the MY9221 LED controller driver. ">
<polygon fill="none" stroke="#000000" points="53,-112.5 53,-131.5 112,-131.5 112,-112.5 53,-112.5"/>
<text text-anchor="middle" x="82.5" y="-119.5" font-family="Helvetica,sans-Serif" font-size="10.00" fill="#000000">my9221.h</text>
</a>
</g>
</g>
<!-- Node0&#45;&gt;Node2 -->
<g id="edge2" class="edge">
<title>Node0&#45;&gt;Node2</title>
<path fill="none" stroke="#191970" d="M60.6685,-168.2977C64.5682,-160.0277 69.428,-149.7215 73.5718,-140.9339"/>
<polygon fill="#191970" stroke="#191970" points="76.7573,-142.3846 77.8567,-131.8469 70.4259,-139.399 76.7573,-142.3846"/>
</g>
<!-- Node2&#45;&gt;Node1 -->
<g id="edge3" class="edge">
<title>Node2&#45;&gt;Node1</title>
<path fill="none" stroke="#191970" d="M72.3972,-112.2455C63.9972,-104.1352 51.8506,-92.4075 41.8916,-82.7919"/>
<polygon fill="#191970" stroke="#191970" points="44.1122,-80.0707 34.4871,-75.6427 39.25,-85.1066 44.1122,-80.0707"/>
</g>
<!-- Node3 -->
<g id="node4" class="node">
<title>Node3</title>
<g id="a_node4"><a xlink:href="gpio_8h.html" target="_top" xlink:title="Low&#45;level GPIO peripheral driver interface definitions. ">
<polygon fill="none" stroke="#000000" points="67.5,-56.5 67.5,-75.5 139.5,-75.5 139.5,-56.5 67.5,-56.5"/>
<text text-anchor="middle" x="103.5" y="-63.5" font-family="Helvetica,sans-Serif" font-size="10.00" fill="#000000">periph/gpio.h</text>
</a>
</g>
</g>
<!-- Node2&#45;&gt;Node3 -->
<g id="edge4" class="edge">
<title>Node2&#45;&gt;Node3</title>
<path fill="none" stroke="#191970" d="M86.1579,-112.2455C88.9584,-104.7776 92.909,-94.2427 96.3324,-85.1137"/>
<polygon fill="#191970" stroke="#191970" points="99.6499,-86.2349 99.884,-75.6427 93.0955,-83.777 99.6499,-86.2349"/>
</g>
<!-- Node4 -->
<g id="node5" class="node">
<title>Node4</title>
<polygon fill="none" stroke="#bfbfbf" points="1.5,-.5 1.5,-19.5 49.5,-19.5 49.5,-.5 1.5,-.5"/>
<text text-anchor="middle" x="25.5" y="-7.5" font-family="Helvetica,sans-Serif" font-size="10.00" fill="#000000">limits.h</text>
</g>
<!-- Node3&#45;&gt;Node4 -->
<g id="edge5" class="edge">
<title>Node3&#45;&gt;Node4</title>
<path fill="none" stroke="#191970" d="M89.9134,-56.2455C78.1695,-47.814 60.9801,-35.4729 47.3118,-25.6598"/>
<polygon fill="#191970" stroke="#191970" points="49.0954,-22.6316 38.9309,-19.6427 45.0129,-28.3179 49.0954,-22.6316"/>
</g>
<!-- Node5 -->
<g id="node6" class="node">
<title>Node5</title>
<polygon fill="none" stroke="#bfbfbf" points="67.5,-.5 67.5,-19.5 139.5,-19.5 139.5,-.5 67.5,-.5"/>
<text text-anchor="middle" x="103.5" y="-7.5" font-family="Helvetica,sans-Serif" font-size="10.00" fill="#000000">periph_cpu.h</text>
</g>
<!-- Node3&#45;&gt;Node5 -->
<g id="edge6" class="edge">
<title>Node3&#45;&gt;Node5</title>
<path fill="none" stroke="#191970" d="M103.5,-56.2455C103.5,-48.9382 103.5,-38.6944 103.5,-29.7046"/>
<polygon fill="#191970" stroke="#191970" points="107.0001,-29.6426 103.5,-19.6427 100.0001,-29.6427 107.0001,-29.6426"/>
</g>
<!-- Node6 -->
<g id="node7" class="node">
<title>Node6</title>
<polygon fill="none" stroke="#bfbfbf" points="158,-.5 158,-19.5 233,-19.5 233,-.5 158,-.5"/>
<text text-anchor="middle" x="195.5" y="-7.5" font-family="Helvetica,sans-Serif" font-size="10.00" fill="#000000">periph_conf.h</text>
</g>
<!-- Node3&#45;&gt;Node6 -->
<g id="edge7" class="edge">
<title>Node3&#45;&gt;Node6</title>
<path fill="none" stroke="#191970" d="M119.5252,-56.2455C133.6408,-47.6534 154.4263,-35.0014 170.6899,-25.1018"/>
<polygon fill="#191970" stroke="#191970" points="172.9363,-27.8319 179.6585,-19.6427 169.2966,-21.8525 172.9363,-27.8319"/>
</g>
</g>
</svg>
