<?xml version="1.0" encoding="UTF-8" standalone="no"?>
<!DOCTYPE svg PUBLIC "-//W3C//DTD SVG 1.1//EN"
 "http://www.w3.org/Graphics/SVG/1.1/DTD/svg11.dtd">
<!-- Generated by graphviz version 2.43.0 (0)
 -->
<!-- Title: pkg/uwb&#45;dw1000/include/hal/hal_spi.h Pages: 1 -->
<svg width="465pt" height="207pt"
 viewBox="0.00 0.00 465.00 207.00" xmlns="http://www.w3.org/2000/svg" xmlns:xlink="http://www.w3.org/1999/xlink">
<g id="graph0" class="graph" transform="scale(1 1) rotate(0) translate(4 203)">
<title>pkg/uwb&#45;dw1000/include/hal/hal_spi.h</title>
<!-- Node1 -->
<g id="node1" class="node">
<title>Node1</title>
<g id="a_node1"><a xlink:title="SPI abstraction layer RIOT adaption.">
<polygon fill="#bfbfbf" stroke="black" points="167,-168.5 167,-198.5 305,-198.5 305,-168.5 167,-168.5"/>
<text text-anchor="start" x="175" y="-186.5" font-family="Helvetica,sans-Serif" font-size="10.00">pkg/uwb&#45;dw1000/include</text>
<text text-anchor="middle" x="236" y="-175.5" font-family="Helvetica,sans-Serif" font-size="10.00">/hal/hal_spi.h</text>
</a>
</g>
</g>
<!-- Node2 -->
<g id="node2" class="node">
<title>Node2</title>
<g id="a_node2"><a xlink:href="spi_8h.html" target="_top" xlink:title="Low&#45;level SPI peripheral driver interface definition.">
<polygon fill="none" stroke="black" points="199,-112.5 199,-131.5 273,-131.5 273,-112.5 199,-112.5"/>
<text text-anchor="middle" x="236" y="-119.5" font-family="Helvetica,sans-Serif" font-size="10.00">periph/spi.h</text>
</a>
</g>
</g>
<!-- Node1&#45;&gt;Node2 -->
<g id="edge1" class="edge">
<title>Node1&#45;&gt;Node2</title>
<path fill="none" stroke="midnightblue" d="M236,-168.4C236,-160.47 236,-150.46 236,-141.86"/>
<polygon fill="midnightblue" stroke="midnightblue" points="239.5,-141.66 236,-131.66 232.5,-141.66 239.5,-141.66"/>
</g>
<!-- Node3 -->
<g id="node3" class="node">
<title>Node3</title>
<g id="a_node3"><a xlink:title=" ">
<polygon fill="none" stroke="#bfbfbf" points="0,-56.5 0,-75.5 62,-75.5 62,-56.5 0,-56.5"/>
<text text-anchor="middle" x="31" y="-63.5" font-family="Helvetica,sans-Serif" font-size="10.00">stdbool.h</text>
</a>
</g>
</g>
<!-- Node2&#45;&gt;Node3 -->
<g id="edge2" class="edge">
<title>Node2&#45;&gt;Node3</title>
<path fill="none" stroke="midnightblue" d="M203.52,-112.44C167.97,-103.08 110.9,-88.05 72.22,-77.86"/>
<polygon fill="midnightblue" stroke="midnightblue" points="72.88,-74.41 62.32,-75.25 71.1,-81.18 72.88,-74.41"/>
</g>
<!-- Node4 -->
<g id="node4" class="node">
<title>Node4</title>
<g id="a_node4"><a xlink:title=" ">
<polygon fill="none" stroke="#bfbfbf" points="80,-56.5 80,-75.5 136,-75.5 136,-56.5 80,-56.5"/>
<text text-anchor="middle" x="108" y="-63.5" font-family="Helvetica,sans-Serif" font-size="10.00">stddef.h</text>
</a>
</g>
</g>
<!-- Node2&#45;&gt;Node4 -->
<g id="edge3" class="edge">
<title>Node2&#45;&gt;Node4</title>
<path fill="none" stroke="midnightblue" d="M215.72,-112.44C194.65,-103.56 161.48,-89.56 137.51,-79.45"/>
<polygon fill="midnightblue" stroke="midnightblue" points="138.76,-76.18 128.19,-75.52 136.04,-82.63 138.76,-76.18"/>
</g>
<!-- Node5 -->
<g id="node5" class="node">
<title>Node5</title>
<g id="a_node5"><a xlink:title=" ">
<polygon fill="none" stroke="#bfbfbf" points="154.5,-56.5 154.5,-75.5 207.5,-75.5 207.5,-56.5 154.5,-56.5"/>
<text text-anchor="middle" x="181" y="-63.5" font-family="Helvetica,sans-Serif" font-size="10.00">stdint.h</text>
</a>
</g>
</g>
<!-- Node2&#45;&gt;Node5 -->
<g id="edge4" class="edge">
<title>Node2&#45;&gt;Node5</title>
<path fill="none" stroke="midnightblue" d="M226.92,-112.08C218.83,-104.14 206.8,-92.34 197.09,-82.8"/>
<polygon fill="midnightblue" stroke="midnightblue" points="199.5,-80.26 189.91,-75.75 194.6,-85.25 199.5,-80.26"/>
</g>
<!-- Node6 -->
<g id="node6" class="node">
<title>Node6</title>
<g id="a_node6"><a xlink:title=" ">
<polygon fill="none" stroke="#bfbfbf" points="206.5,-0.5 206.5,-19.5 259.5,-19.5 259.5,-0.5 206.5,-0.5"/>
<text text-anchor="middle" x="233" y="-7.5" font-family="Helvetica,sans-Serif" font-size="10.00">limits.h</text>
</a>
</g>
</g>
<!-- Node2&#45;&gt;Node6 -->
<g id="edge5" class="edge">
<title>Node2&#45;&gt;Node6</title>
<path fill="none" stroke="midnightblue" d="M235.76,-112.37C235.28,-94.62 234.16,-53.67 233.51,-29.6"/>
<polygon fill="midnightblue" stroke="midnightblue" points="237.01,-29.49 233.23,-19.59 230.01,-29.68 237.01,-29.49"/>
</g>
<!-- Node7 -->
<g id="node7" class="node">
<title>Node7</title>
<g id="a_node7"><a xlink:title=" ">
<polygon fill="none" stroke="#bfbfbf" points="277.5,-0.5 277.5,-19.5 356.5,-19.5 356.5,-0.5 277.5,-0.5"/>
<text text-anchor="middle" x="317" y="-7.5" font-family="Helvetica,sans-Serif" font-size="10.00">periph_cpu.h</text>
</a>
</g>
</g>
<!-- Node2&#45;&gt;Node7 -->
<g id="edge6" class="edge">
<title>Node2&#45;&gt;Node7</title>
<path fill="none" stroke="midnightblue" d="M242.36,-112.37C255.78,-94.14 287.23,-51.43 304.72,-27.68"/>
<polygon fill="midnightblue" stroke="midnightblue" points="307.56,-29.72 310.67,-19.59 301.93,-25.57 307.56,-29.72"/>
</g>
<!-- Node8 -->
<g id="node8" class="node">
<title>Node8</title>
<g id="a_node8"><a xlink:title=" ">
<polygon fill="none" stroke="#bfbfbf" points="375,-0.5 375,-19.5 457,-19.5 457,-0.5 375,-0.5"/>
<text text-anchor="middle" x="416" y="-7.5" font-family="Helvetica,sans-Serif" font-size="10.00">periph_conf.h</text>
</a>
</g>
</g>
<!-- Node2&#45;&gt;Node8 -->
<g id="edge7" class="edge">
<title>Node2&#45;&gt;Node8</title>
<path fill="none" stroke="midnightblue" d="M273.08,-119.37C307.65,-115.95 358.6,-105.76 391,-76 404.2,-63.88 410.49,-44 413.45,-29.42"/>
<polygon fill="midnightblue" stroke="midnightblue" points="416.91,-29.95 415.13,-19.51 410.01,-28.79 416.91,-29.95"/>
</g>
<!-- Node9 -->
<g id="node9" class="node">
<title>Node9</title>
<g id="a_node9"><a xlink:href="gpio_8h.html" target="_top" xlink:title="Low&#45;level GPIO peripheral driver interface definitions.">
<polygon fill="none" stroke="black" points="302,-56.5 302,-75.5 382,-75.5 382,-56.5 302,-56.5"/>
<text text-anchor="middle" x="342" y="-63.5" font-family="Helvetica,sans-Serif" font-size="10.00">periph/gpio.h</text>
</a>
</g>
</g>
<!-- Node2&#45;&gt;Node9 -->
<g id="edge8" class="edge">
<title>Node2&#45;&gt;Node9</title>
<path fill="none" stroke="midnightblue" d="M253.03,-112.32C270.03,-103.66 296.38,-90.24 315.99,-80.25"/>
<polygon fill="midnightblue" stroke="midnightblue" points="317.69,-83.31 325.01,-75.65 314.51,-77.08 317.69,-83.31"/>
</g>
<!-- Node9&#45;&gt;Node6 -->
<g id="edge9" class="edge">
<title>Node9&#45;&gt;Node6</title>
<path fill="none" stroke="midnightblue" d="M324.49,-56.32C306.93,-47.62 279.67,-34.12 259.47,-24.11"/>
<polygon fill="midnightblue" stroke="midnightblue" points="260.98,-20.96 250.47,-19.65 257.88,-27.23 260.98,-20.96"/>
</g>
<!-- Node9&#45;&gt;Node7 -->
<g id="edge10" class="edge">
<title>Node9&#45;&gt;Node7</title>
<path fill="none" stroke="midnightblue" d="M337.87,-56.08C334.49,-48.77 329.58,-38.18 325.38,-29.1"/>
<polygon fill="midnightblue" stroke="midnightblue" points="328.43,-27.36 321.05,-19.75 322.08,-30.3 328.43,-27.36"/>
</g>
<!-- Node9&#45;&gt;Node8 -->
<g id="edge11" class="edge">
<title>Node9&#45;&gt;Node8</title>
<path fill="none" stroke="midnightblue" d="M353.89,-56.32C365.15,-48.11 382.29,-35.6 395.71,-25.81"/>
<polygon fill="midnightblue" stroke="midnightblue" points="397.88,-28.56 403.89,-19.83 393.75,-22.9 397.88,-28.56"/>
</g>
</g>
</svg>
