<?xml version="1.0" encoding="UTF-8" standalone="no"?>
<!DOCTYPE svg PUBLIC "-//W3C//DTD SVG 1.1//EN"
 "http://www.w3.org/Graphics/SVG/1.1/DTD/svg11.dtd">
<!-- Generated by graphviz version 2.43.0 (0)
 -->
<!-- Title: drivers/hdc1000/include/hdc1000_params.h Pages: 1 -->
<svg width="577pt" height="319pt"
 viewBox="0.00 0.00 576.68 319.00" xmlns="http://www.w3.org/2000/svg" xmlns:xlink="http://www.w3.org/1999/xlink">
<g id="graph0" class="graph" transform="scale(1 1) rotate(0) translate(4 315)">
<title>drivers/hdc1000/include/hdc1000_params.h</title>
<!-- Node1 -->
<g id="node1" class="node">
<title>Node1</title>
<g id="a_node1"><a xlink:title="Default configuration for HDC1000 devices.">
<polygon fill="#bfbfbf" stroke="black" points="238.5,-280.5 238.5,-310.5 371.5,-310.5 371.5,-280.5 238.5,-280.5"/>
<text text-anchor="start" x="246.5" y="-298.5" font-family="Helvetica,sans-Serif" font-size="10.00">drivers/hdc1000/include</text>
<text text-anchor="middle" x="305" y="-287.5" font-family="Helvetica,sans-Serif" font-size="10.00">/hdc1000_params.h</text>
</a>
</g>
</g>
<!-- Node2 -->
<g id="node2" class="node">
<title>Node2</title>
<g id="a_node2"><a xlink:title=" ">
<polygon fill="none" stroke="#bfbfbf" points="223.5,-224.5 223.5,-243.5 276.5,-243.5 276.5,-224.5 223.5,-224.5"/>
<text text-anchor="middle" x="250" y="-231.5" font-family="Helvetica,sans-Serif" font-size="10.00">board.h</text>
</a>
</g>
</g>
<!-- Node1&#45;&gt;Node2 -->
<g id="edge1" class="edge">
<title>Node1&#45;&gt;Node2</title>
<path fill="none" stroke="midnightblue" d="M291.97,-280.4C283.81,-271.58 273.28,-260.18 264.81,-251.02"/>
<polygon fill="midnightblue" stroke="midnightblue" points="267.36,-248.63 258,-243.66 262.22,-253.38 267.36,-248.63"/>
</g>
<!-- Node3 -->
<g id="node3" class="node">
<title>Node3</title>
<g id="a_node3"><a xlink:href="hdc1000_8h.html" target="_top" xlink:title="Interface definition for the HDC1000 sensor driver.">
<polygon fill="none" stroke="black" points="234.5,-112.5 234.5,-131.5 301.5,-131.5 301.5,-112.5 234.5,-112.5"/>
<text text-anchor="middle" x="268" y="-119.5" font-family="Helvetica,sans-Serif" font-size="10.00">hdc1000.h</text>
</a>
</g>
</g>
<!-- Node1&#45;&gt;Node3 -->
<g id="edge2" class="edge">
<title>Node1&#45;&gt;Node3</title>
<path fill="none" stroke="midnightblue" d="M301.97,-280.47C295.34,-249.7 279.51,-176.33 272.03,-141.7"/>
<polygon fill="midnightblue" stroke="midnightblue" points="275.38,-140.6 269.85,-131.56 268.53,-142.07 275.38,-140.6"/>
</g>
<!-- Node11 -->
<g id="node11" class="node">
<title>Node11</title>
<g id="a_node11"><a xlink:href="saul__reg_8h.html" target="_top" xlink:title="SAUL registry interface definition.">
<polygon fill="none" stroke="black" points="362.5,-224.5 362.5,-243.5 429.5,-243.5 429.5,-224.5 362.5,-224.5"/>
<text text-anchor="middle" x="396" y="-231.5" font-family="Helvetica,sans-Serif" font-size="10.00">saul_reg.h</text>
</a>
</g>
</g>
<!-- Node1&#45;&gt;Node11 -->
<g id="edge11" class="edge">
<title>Node1&#45;&gt;Node11</title>
<path fill="none" stroke="midnightblue" d="M326.57,-280.4C340.88,-271.04 359.61,-258.79 374.01,-249.38"/>
<polygon fill="midnightblue" stroke="midnightblue" points="376.3,-252.06 382.76,-243.66 372.47,-246.2 376.3,-252.06"/>
</g>
<!-- Node4 -->
<g id="node4" class="node">
<title>Node4</title>
<g id="a_node4"><a xlink:title=" ">
<polygon fill="none" stroke="#bfbfbf" points="347.5,-0.5 347.5,-19.5 400.5,-19.5 400.5,-0.5 347.5,-0.5"/>
<text text-anchor="middle" x="374" y="-7.5" font-family="Helvetica,sans-Serif" font-size="10.00">stdint.h</text>
</a>
</g>
</g>
<!-- Node3&#45;&gt;Node4 -->
<g id="edge3" class="edge">
<title>Node3&#45;&gt;Node4</title>
<path fill="none" stroke="midnightblue" d="M276.32,-112.37C294.04,-93.97 335.77,-50.67 358.53,-27.05"/>
<polygon fill="midnightblue" stroke="midnightblue" points="361.3,-29.22 365.72,-19.59 356.26,-24.36 361.3,-29.22"/>
</g>
<!-- Node5 -->
<g id="node5" class="node">
<title>Node5</title>
<g id="a_node5"><a xlink:href="i2c_8h.html" target="_top" xlink:title="Low&#45;level I2C peripheral driver interface definition.">
<polygon fill="none" stroke="black" points="103,-56.5 103,-75.5 177,-75.5 177,-56.5 103,-56.5"/>
<text text-anchor="middle" x="140" y="-63.5" font-family="Helvetica,sans-Serif" font-size="10.00">periph/i2c.h</text>
</a>
</g>
</g>
<!-- Node3&#45;&gt;Node5 -->
<g id="edge4" class="edge">
<title>Node3&#45;&gt;Node5</title>
<path fill="none" stroke="midnightblue" d="M247.72,-112.44C226.65,-103.56 193.48,-89.56 169.51,-79.45"/>
<polygon fill="midnightblue" stroke="midnightblue" points="170.76,-76.18 160.19,-75.52 168.04,-82.63 170.76,-76.18"/>
</g>
<!-- Node10 -->
<g id="node10" class="node">
<title>Node10</title>
<g id="a_node10"><a xlink:href="hdc1000__regs_8h.html" target="_top" xlink:title="Register definitions for HDC1000 devices.">
<polygon fill="none" stroke="black" points="195.5,-56.5 195.5,-75.5 288.5,-75.5 288.5,-56.5 195.5,-56.5"/>
<text text-anchor="middle" x="242" y="-63.5" font-family="Helvetica,sans-Serif" font-size="10.00">hdc1000_regs.h</text>
</a>
</g>
</g>
<!-- Node3&#45;&gt;Node10 -->
<g id="edge10" class="edge">
<title>Node3&#45;&gt;Node10</title>
<path fill="none" stroke="midnightblue" d="M263.71,-112.08C260.15,-104.69 254.98,-93.95 250.58,-84.81"/>
<polygon fill="midnightblue" stroke="midnightblue" points="253.71,-83.24 246.21,-75.75 247.4,-86.28 253.71,-83.24"/>
</g>
<!-- Node5&#45;&gt;Node4 -->
<g id="edge5" class="edge">
<title>Node5&#45;&gt;Node4</title>
<path fill="none" stroke="midnightblue" d="M177.08,-56.44C220.98,-46.31 293.65,-29.54 337.36,-19.46"/>
<polygon fill="midnightblue" stroke="midnightblue" points="338.33,-22.82 347.29,-17.16 336.75,-16 338.33,-22.82"/>
</g>
<!-- Node6 -->
<g id="node6" class="node">
<title>Node6</title>
<g id="a_node6"><a xlink:title=" ">
<polygon fill="none" stroke="#bfbfbf" points="480,-0.5 480,-19.5 536,-19.5 536,-0.5 480,-0.5"/>
<text text-anchor="middle" x="508" y="-7.5" font-family="Helvetica,sans-Serif" font-size="10.00">stddef.h</text>
</a>
</g>
</g>
<!-- Node5&#45;&gt;Node6 -->
<g id="edge6" class="edge">
<title>Node5&#45;&gt;Node6</title>
<path fill="none" stroke="midnightblue" d="M177.17,-57.7C180.49,-57.11 183.8,-56.53 187,-56 288.6,-39.16 408.99,-23.4 469.38,-15.78"/>
<polygon fill="midnightblue" stroke="midnightblue" points="470.1,-19.22 479.59,-14.5 469.23,-12.27 470.1,-19.22"/>
</g>
<!-- Node7 -->
<g id="node7" class="node">
<title>Node7</title>
<g id="a_node7"><a xlink:title=" ">
<polygon fill="none" stroke="#bfbfbf" points="197.5,-0.5 197.5,-19.5 250.5,-19.5 250.5,-0.5 197.5,-0.5"/>
<text text-anchor="middle" x="224" y="-7.5" font-family="Helvetica,sans-Serif" font-size="10.00">limits.h</text>
</a>
</g>
</g>
<!-- Node5&#45;&gt;Node7 -->
<g id="edge7" class="edge">
<title>Node5&#45;&gt;Node7</title>
<path fill="none" stroke="midnightblue" d="M153.5,-56.32C166.6,-47.9 186.71,-34.97 202.11,-25.07"/>
<polygon fill="midnightblue" stroke="midnightblue" points="204.02,-28.01 210.54,-19.65 200.23,-22.12 204.02,-28.01"/>
</g>
<!-- Node8 -->
<g id="node8" class="node">
<title>Node8</title>
<g id="a_node8"><a xlink:title=" ">
<polygon fill="none" stroke="#bfbfbf" points="0,-0.5 0,-19.5 82,-19.5 82,-0.5 0,-0.5"/>
<text text-anchor="middle" x="41" y="-7.5" font-family="Helvetica,sans-Serif" font-size="10.00">periph_conf.h</text>
</a>
</g>
</g>
<!-- Node5&#45;&gt;Node8 -->
<g id="edge8" class="edge">
<title>Node5&#45;&gt;Node8</title>
<path fill="none" stroke="midnightblue" d="M124.09,-56.32C108.36,-47.74 84.06,-34.49 65.79,-24.52"/>
<polygon fill="midnightblue" stroke="midnightblue" points="67.32,-21.37 56.87,-19.65 63.97,-27.52 67.32,-21.37"/>
</g>
<!-- Node9 -->
<g id="node9" class="node">
<title>Node9</title>
<g id="a_node9"><a xlink:title=" ">
<polygon fill="none" stroke="#bfbfbf" points="100.5,-0.5 100.5,-19.5 179.5,-19.5 179.5,-0.5 100.5,-0.5"/>
<text text-anchor="middle" x="140" y="-7.5" font-family="Helvetica,sans-Serif" font-size="10.00">periph_cpu.h</text>
</a>
</g>
</g>
<!-- Node5&#45;&gt;Node9 -->
<g id="edge9" class="edge">
<title>Node5&#45;&gt;Node9</title>
<path fill="none" stroke="midnightblue" d="M140,-56.08C140,-49.01 140,-38.86 140,-29.99"/>
<polygon fill="midnightblue" stroke="midnightblue" points="143.5,-29.75 140,-19.75 136.5,-29.75 143.5,-29.75"/>
</g>
<!-- Node11&#45;&gt;Node4 -->
<g id="edge12" class="edge">
<title>Node11&#45;&gt;Node4</title>
<path fill="none" stroke="midnightblue" d="M395.14,-224.3C391.9,-191.63 380.43,-75.87 375.88,-29.96"/>
<polygon fill="midnightblue" stroke="midnightblue" points="379.35,-29.49 374.88,-19.88 372.38,-30.18 379.35,-29.49"/>
</g>
<!-- Node12 -->
<g id="node12" class="node">
<title>Node12</title>
<g id="a_node12"><a xlink:href="saul_8h.html" target="_top" xlink:title="Definition of the generic [S]ensor [A]ctuator [U]ber [L]ayer.">
<polygon fill="none" stroke="black" points="403,-168.5 403,-187.5 449,-187.5 449,-168.5 403,-168.5"/>
<text text-anchor="middle" x="426" y="-175.5" font-family="Helvetica,sans-Serif" font-size="10.00">saul.h</text>
</a>
</g>
</g>
<!-- Node11&#45;&gt;Node12 -->
<g id="edge13" class="edge">
<title>Node11&#45;&gt;Node12</title>
<path fill="none" stroke="midnightblue" d="M400.95,-224.08C405.1,-216.61 411.15,-205.72 416.27,-196.52"/>
<polygon fill="midnightblue" stroke="midnightblue" points="419.34,-198.19 421.14,-187.75 413.22,-194.79 419.34,-198.19"/>
</g>
<!-- Node14 -->
<g id="node14" class="node">
<title>Node14</title>
<g id="a_node14"><a xlink:href="phydat_8h.html" target="_top" xlink:title="Generic data container for physical data interface.">
<polygon fill="none" stroke="black" points="490.5,-112.5 490.5,-131.5 549.5,-131.5 549.5,-112.5 490.5,-112.5"/>
<text text-anchor="middle" x="520" y="-119.5" font-family="Helvetica,sans-Serif" font-size="10.00">phydat.h</text>
</a>
</g>
</g>
<!-- Node11&#45;&gt;Node14 -->
<g id="edge22" class="edge">
<title>Node11&#45;&gt;Node14</title>
<path fill="none" stroke="midnightblue" d="M409.35,-224.35C422.27,-215.73 442.18,-201.83 458,-188 475.5,-172.7 493.64,-153.18 505.74,-139.54"/>
<polygon fill="midnightblue" stroke="midnightblue" points="508.48,-141.73 512.44,-131.9 503.22,-137.11 508.48,-141.73"/>
</g>
<!-- Node12&#45;&gt;Node4 -->
<g id="edge14" class="edge">
<title>Node12&#45;&gt;Node4</title>
<path fill="none" stroke="midnightblue" d="M423.2,-168.08C414.98,-141.83 390.77,-64.55 379.68,-29.12"/>
<polygon fill="midnightblue" stroke="midnightblue" points="383.01,-28.06 376.68,-19.57 376.33,-30.16 383.01,-28.06"/>
</g>
<!-- Node13 -->
<g id="node13" class="node">
<title>Node13</title>
<g id="a_node13"><a xlink:href="errno_8h.html" target="_top" xlink:title=" ">
<polygon fill="none" stroke="black" points="421.5,-112.5 421.5,-131.5 472.5,-131.5 472.5,-112.5 421.5,-112.5"/>
<text text-anchor="middle" x="447" y="-119.5" font-family="Helvetica,sans-Serif" font-size="10.00">errno.h</text>
</a>
</g>
</g>
<!-- Node12&#45;&gt;Node13 -->
<g id="edge15" class="edge">
<title>Node12&#45;&gt;Node13</title>
<path fill="none" stroke="midnightblue" d="M429.47,-168.08C432.31,-160.77 436.43,-150.18 439.96,-141.1"/>
<polygon fill="midnightblue" stroke="midnightblue" points="443.23,-142.34 443.6,-131.75 436.71,-139.8 443.23,-142.34"/>
</g>
<!-- Node12&#45;&gt;Node14 -->
<g id="edge16" class="edge">
<title>Node12&#45;&gt;Node14</title>
<path fill="none" stroke="midnightblue" d="M441.1,-168.32C455.9,-159.82 478.69,-146.73 495.98,-136.8"/>
<polygon fill="midnightblue" stroke="midnightblue" points="498.01,-139.67 504.93,-131.65 494.52,-133.6 498.01,-139.67"/>
</g>
<!-- Node14&#45;&gt;Node4 -->
<g id="edge18" class="edge">
<title>Node14&#45;&gt;Node4</title>
<path fill="none" stroke="midnightblue" d="M505.65,-112.36C491.44,-103.64 469.25,-89.57 451,-76 429.68,-60.14 406.56,-40.22 391.27,-26.64"/>
<polygon fill="midnightblue" stroke="midnightblue" points="393.43,-23.88 383.65,-19.82 388.76,-29.09 393.43,-23.88"/>
</g>
<!-- Node14&#45;&gt;Node6 -->
<g id="edge17" class="edge">
<title>Node14&#45;&gt;Node6</title>
<path fill="none" stroke="midnightblue" d="M533.8,-112.33C550.95,-100.38 576.7,-77.85 566,-56 559.48,-42.68 546.9,-32.18 535.13,-24.68"/>
<polygon fill="midnightblue" stroke="midnightblue" points="536.78,-21.59 526.39,-19.53 533.23,-27.62 536.78,-21.59"/>
</g>
<!-- Node15 -->
<g id="node15" class="node">
<title>Node15</title>
<g id="a_node15"><a xlink:href="kernel__defines_8h.html" target="_top" xlink:title="Common macros and compiler attributes/pragmas configuration.">
<polygon fill="none" stroke="black" points="459.5,-56.5 459.5,-75.5 556.5,-75.5 556.5,-56.5 459.5,-56.5"/>
<text text-anchor="middle" x="508" y="-63.5" font-family="Helvetica,sans-Serif" font-size="10.00">kernel_defines.h</text>
</a>
</g>
</g>
<!-- Node14&#45;&gt;Node15 -->
<g id="edge19" class="edge">
<title>Node14&#45;&gt;Node15</title>
<path fill="none" stroke="midnightblue" d="M518.02,-112.08C516.43,-104.93 514.14,-94.64 512.15,-85.69"/>
<polygon fill="midnightblue" stroke="midnightblue" points="515.53,-84.75 509.94,-75.75 508.7,-86.27 515.53,-84.75"/>
</g>
<!-- Node15&#45;&gt;Node4 -->
<g id="edge21" class="edge">
<title>Node15&#45;&gt;Node4</title>
<path fill="none" stroke="midnightblue" d="M486.77,-56.44C464.62,-47.52 429.68,-33.44 404.56,-23.32"/>
<polygon fill="midnightblue" stroke="midnightblue" points="405.72,-20.01 395.13,-19.52 403.1,-26.5 405.72,-20.01"/>
</g>
<!-- Node15&#45;&gt;Node6 -->
<g id="edge20" class="edge">
<title>Node15&#45;&gt;Node6</title>
<path fill="none" stroke="midnightblue" d="M508,-56.08C508,-49.01 508,-38.86 508,-29.99"/>
<polygon fill="midnightblue" stroke="midnightblue" points="511.5,-29.75 508,-19.75 504.5,-29.75 511.5,-29.75"/>
</g>
</g>
</svg>
