<?xml version="1.0" encoding="UTF-8" standalone="no"?>
<!DOCTYPE svg PUBLIC "-//W3C//DTD SVG 1.1//EN"
 "http://www.w3.org/Graphics/SVG/1.1/DTD/svg11.dtd">
<!-- Generated by graphviz version 2.40.1 (20161225.0304)
 -->
<!-- Title: drivers/hmc5883l/include/hmc5883l_params.h Pages: 1 -->
<svg width="548pt" height="319pt"
 viewBox="0.00 0.00 547.54 319.00" xmlns="http://www.w3.org/2000/svg" xmlns:xlink="http://www.w3.org/1999/xlink">
<g id="graph0" class="graph" transform="scale(1 1) rotate(0) translate(4 315)">
<title>drivers/hmc5883l/include/hmc5883l_params.h</title>
<!-- Node0 -->
<g id="node1" class="node">
<title>Node0</title>
<polygon fill="#bfbfbf" stroke="#000000" points="214.0437,-280.5 214.0437,-310.5 339.0437,-310.5 339.0437,-280.5 214.0437,-280.5"/>
<text text-anchor="start" x="222.0437" y="-298.5" font-family="Helvetica,sans-Serif" font-size="10.00" fill="#000000">drivers/hmc5883l/include</text>
<text text-anchor="middle" x="276.5437" y="-287.5" font-family="Helvetica,sans-Serif" font-size="10.00" fill="#000000">/hmc5883l_params.h</text>
</g>
<!-- Node1 -->
<g id="node2" class="node">
<title>Node1</title>
<polygon fill="none" stroke="#bfbfbf" points="199.0437,-224.5 199.0437,-243.5 248.0437,-243.5 248.0437,-224.5 199.0437,-224.5"/>
<text text-anchor="middle" x="223.5437" y="-231.5" font-family="Helvetica,sans-Serif" font-size="10.00" fill="#000000">board.h</text>
</g>
<!-- Node0&#45;&gt;Node1 -->
<g id="edge1" class="edge">
<title>Node0&#45;&gt;Node1</title>
<path fill="none" stroke="#191970" d="M263.4426,-280.2977C255.9324,-271.5831 246.4737,-260.6075 238.6511,-251.5302"/>
<polygon fill="#191970" stroke="#191970" points="241.2092,-249.1372 232.0297,-243.8469 235.9066,-253.707 241.2092,-249.1372"/>
</g>
<!-- Node2 -->
<g id="node3" class="node">
<title>Node2</title>
<g id="a_node3"><a xlink:href="hmc5883l_8h.html" target="_top" xlink:title="hmc5883l.h">
<polygon fill="none" stroke="#000000" points="226.0437,-168.5 226.0437,-187.5 293.0437,-187.5 293.0437,-168.5 226.0437,-168.5"/>
<text text-anchor="middle" x="259.5437" y="-175.5" font-family="Helvetica,sans-Serif" font-size="10.00" fill="#000000">hmc5883l.h</text>
</a>
</g>
</g>
<!-- Node0&#45;&gt;Node2 -->
<g id="edge2" class="edge">
<title>Node0&#45;&gt;Node2</title>
<path fill="none" stroke="#191970" d="M274.3213,-280.1389C271.2584,-258.9692 265.7386,-220.8174 262.3811,-197.6112"/>
<polygon fill="#191970" stroke="#191970" points="265.8227,-196.9552 260.9268,-187.5595 258.8949,-197.9576 265.8227,-196.9552"/>
</g>
<!-- Node12 -->
<g id="node13" class="node">
<title>Node12</title>
<g id="a_node13"><a xlink:href="saul__reg_8h.html" target="_top" xlink:title="SAUL registry interface definition. ">
<polygon fill="none" stroke="#000000" points="348.5437,-224.5 348.5437,-243.5 410.5437,-243.5 410.5437,-224.5 348.5437,-224.5"/>
<text text-anchor="middle" x="379.5437" y="-231.5" font-family="Helvetica,sans-Serif" font-size="10.00" fill="#000000">saul_reg.h</text>
</a>
</g>
</g>
<!-- Node0&#45;&gt;Node12 -->
<g id="edge17" class="edge">
<title>Node0&#45;&gt;Node12</title>
<path fill="none" stroke="#191970" d="M301.7404,-280.4554C317.8709,-270.8241 338.7075,-258.3828 354.7574,-248.7996"/>
<polygon fill="#191970" stroke="#191970" points="356.7907,-251.662 363.5824,-243.5303 353.2021,-245.6518 356.7907,-251.662"/>
</g>
<!-- Node3 -->
<g id="node4" class="node">
<title>Node3</title>
<polygon fill="none" stroke="#bfbfbf" points="231.5437,-112.5 231.5437,-131.5 287.5437,-131.5 287.5437,-112.5 231.5437,-112.5"/>
<text text-anchor="middle" x="259.5437" y="-119.5" font-family="Helvetica,sans-Serif" font-size="10.00" fill="#000000">stdbool.h</text>
</g>
<!-- Node2&#45;&gt;Node3 -->
<g id="edge3" class="edge">
<title>Node2&#45;&gt;Node3</title>
<path fill="none" stroke="#191970" d="M259.5437,-168.2455C259.5437,-160.9382 259.5437,-150.6944 259.5437,-141.7046"/>
<polygon fill="#191970" stroke="#191970" points="263.0438,-141.6426 259.5437,-131.6427 256.0438,-141.6427 263.0438,-141.6426"/>
</g>
<!-- Node4 -->
<g id="node5" class="node">
<title>Node4</title>
<polygon fill="none" stroke="#bfbfbf" points="368.0437,-56.5 368.0437,-75.5 417.0437,-75.5 417.0437,-56.5 368.0437,-56.5"/>
<text text-anchor="middle" x="392.5437" y="-63.5" font-family="Helvetica,sans-Serif" font-size="10.00" fill="#000000">stdint.h</text>
</g>
<!-- Node2&#45;&gt;Node4 -->
<g id="edge4" class="edge">
<title>Node2&#45;&gt;Node4</title>
<path fill="none" stroke="#191970" d="M270.8832,-168.4509C293.655,-149.2747 345.1669,-105.8962 373.3076,-82.1988"/>
<polygon fill="#191970" stroke="#191970" points="375.8383,-84.6435 381.2329,-75.5249 371.3293,-79.2891 375.8383,-84.6435"/>
</g>
<!-- Node5 -->
<g id="node6" class="node">
<title>Node5</title>
<g id="a_node6"><a xlink:href="gpio_8h.html" target="_top" xlink:title="Low&#45;level GPIO peripheral driver interface definitions. ">
<polygon fill="none" stroke="#000000" points="28.5437,-112.5 28.5437,-131.5 100.5437,-131.5 100.5437,-112.5 28.5437,-112.5"/>
<text text-anchor="middle" x="64.5437" y="-119.5" font-family="Helvetica,sans-Serif" font-size="10.00" fill="#000000">periph/gpio.h</text>
</a>
</g>
</g>
<!-- Node2&#45;&gt;Node5 -->
<g id="edge5" class="edge">
<title>Node2&#45;&gt;Node5</title>
<path fill="none" stroke="#191970" d="M226.022,-168.3733C193.1754,-158.9404 142.9842,-144.5265 107.286,-134.2747"/>
<polygon fill="#191970" stroke="#191970" points="108.2056,-130.8974 97.628,-131.5011 106.2734,-137.6255 108.2056,-130.8974"/>
</g>
<!-- Node9 -->
<g id="node10" class="node">
<title>Node9</title>
<g id="a_node10"><a xlink:href="i2c_8h.html" target="_top" xlink:title="Low&#45;level I2C peripheral driver interface definition. ">
<polygon fill="none" stroke="#000000" points="146.0437,-112.5 146.0437,-131.5 213.0437,-131.5 213.0437,-112.5 146.0437,-112.5"/>
<text text-anchor="middle" x="179.5437" y="-119.5" font-family="Helvetica,sans-Serif" font-size="10.00" fill="#000000">periph/i2c.h</text>
</a>
</g>
</g>
<!-- Node2&#45;&gt;Node9 -->
<g id="edge9" class="edge">
<title>Node2&#45;&gt;Node9</title>
<path fill="none" stroke="#191970" d="M245.6088,-168.2455C233.449,-159.7337 215.5973,-147.2375 201.5153,-137.3801"/>
<polygon fill="#191970" stroke="#191970" points="203.5184,-134.51 193.319,-131.6427 199.5042,-140.2447 203.5184,-134.51"/>
</g>
<!-- Node6 -->
<g id="node7" class="node">
<title>Node6</title>
<polygon fill="none" stroke="#bfbfbf" points="13.5437,-56.5 13.5437,-75.5 61.5437,-75.5 61.5437,-56.5 13.5437,-56.5"/>
<text text-anchor="middle" x="37.5437" y="-63.5" font-family="Helvetica,sans-Serif" font-size="10.00" fill="#000000">limits.h</text>
</g>
<!-- Node5&#45;&gt;Node6 -->
<g id="edge6" class="edge">
<title>Node5&#45;&gt;Node6</title>
<path fill="none" stroke="#191970" d="M59.8407,-112.2455C56.2014,-104.6973 51.0513,-94.0158 46.6175,-84.8197"/>
<polygon fill="#191970" stroke="#191970" points="49.6886,-83.1303 42.1929,-75.6427 43.3832,-86.1704 49.6886,-83.1303"/>
</g>
<!-- Node7 -->
<g id="node8" class="node">
<title>Node7</title>
<polygon fill="none" stroke="#bfbfbf" points="79.5437,-56.5 79.5437,-75.5 151.5437,-75.5 151.5437,-56.5 79.5437,-56.5"/>
<text text-anchor="middle" x="115.5437" y="-63.5" font-family="Helvetica,sans-Serif" font-size="10.00" fill="#000000">periph_cpu.h</text>
</g>
<!-- Node5&#45;&gt;Node7 -->
<g id="edge7" class="edge">
<title>Node5&#45;&gt;Node7</title>
<path fill="none" stroke="#191970" d="M73.4272,-112.2455C80.7403,-104.2155 91.2829,-92.6394 99.9904,-83.0781"/>
<polygon fill="#191970" stroke="#191970" points="102.6164,-85.3928 106.762,-75.6427 97.441,-80.6795 102.6164,-85.3928"/>
</g>
<!-- Node8 -->
<g id="node9" class="node">
<title>Node8</title>
<polygon fill="none" stroke="#bfbfbf" points="142.0437,-.5 142.0437,-19.5 217.0437,-19.5 217.0437,-.5 142.0437,-.5"/>
<text text-anchor="middle" x="179.5437" y="-7.5" font-family="Helvetica,sans-Serif" font-size="10.00" fill="#000000">periph_conf.h</text>
</g>
<!-- Node5&#45;&gt;Node8 -->
<g id="edge8" class="edge">
<title>Node5&#45;&gt;Node8</title>
<path fill="none" stroke="#191970" d="M44.5533,-112.3756C21.3367,-99.8975 -11.8154,-77.215 4.5437,-56 20.0148,-35.9367 85.4652,-22.8943 131.7708,-15.9905"/>
<polygon fill="#191970" stroke="#191970" points="132.5198,-19.4189 141.9187,-14.5291 131.5219,-12.4903 132.5198,-19.4189"/>
</g>
<!-- Node9&#45;&gt;Node4 -->
<g id="edge10" class="edge">
<title>Node9&#45;&gt;Node4</title>
<path fill="none" stroke="#191970" d="M213.2942,-113.1266C252.8978,-102.7144 318.2109,-85.5429 358.1081,-75.0535"/>
<polygon fill="#191970" stroke="#191970" points="359.1343,-78.4027 367.9157,-72.475 357.3544,-71.6328 359.1343,-78.4027"/>
</g>
<!-- Node9&#45;&gt;Node6 -->
<g id="edge12" class="edge">
<title>Node9&#45;&gt;Node6</title>
<path fill="none" stroke="#191970" d="M155.1331,-112.3733C131.9295,-103.2226 96.8399,-89.3844 71.0295,-79.2057"/>
<polygon fill="#191970" stroke="#191970" points="72.2227,-75.9139 61.6359,-75.5011 69.6545,-82.4258 72.2227,-75.9139"/>
</g>
<!-- Node9&#45;&gt;Node7 -->
<g id="edge14" class="edge">
<title>Node9&#45;&gt;Node7</title>
<path fill="none" stroke="#191970" d="M168.3958,-112.2455C159.0351,-104.0549 145.4579,-92.1749 134.4088,-82.5069"/>
<polygon fill="#191970" stroke="#191970" points="136.3945,-79.5937 126.5639,-75.6427 131.7849,-84.8618 136.3945,-79.5937"/>
</g>
<!-- Node9&#45;&gt;Node8 -->
<g id="edge13" class="edge">
<title>Node9&#45;&gt;Node8</title>
<path fill="none" stroke="#191970" d="M179.5437,-112.4509C179.5437,-94.184 179.5437,-53.9553 179.5437,-29.6976"/>
<polygon fill="#191970" stroke="#191970" points="183.0438,-29.5249 179.5437,-19.5249 176.0438,-29.5249 183.0438,-29.5249"/>
</g>
<!-- Node10 -->
<g id="node11" class="node">
<title>Node10</title>
<polygon fill="none" stroke="#bfbfbf" points="453.5437,-.5 453.5437,-19.5 505.5437,-19.5 505.5437,-.5 453.5437,-.5"/>
<text text-anchor="middle" x="479.5437" y="-7.5" font-family="Helvetica,sans-Serif" font-size="10.00" fill="#000000">stddef.h</text>
</g>
<!-- Node9&#45;&gt;Node10 -->
<g id="edge11" class="edge">
<title>Node9&#45;&gt;Node10</title>
<path fill="none" stroke="#191970" d="M213.1317,-112.6762C242.0443,-104.2657 284.6509,-90.9474 320.5437,-76 338.5264,-68.5112 341.7567,-63.9422 359.5437,-56 387.4768,-43.5274 419.9109,-31.2199 444.012,-22.4785"/>
<polygon fill="#191970" stroke="#191970" points="445.241,-25.756 453.4657,-19.0773 442.8713,-19.1693 445.241,-25.756"/>
</g>
<!-- Node11 -->
<g id="node12" class="node">
<title>Node11</title>
<g id="a_node12"><a xlink:href="dev__enums_8h.html" target="_top" xlink:title="Device enumerations for backward compatibility with existing peripheral driver implementations. ">
<polygon fill="none" stroke="#000000" points="207.5437,-56.5 207.5437,-75.5 311.5437,-75.5 311.5437,-56.5 207.5437,-56.5"/>
<text text-anchor="middle" x="259.5437" y="-63.5" font-family="Helvetica,sans-Serif" font-size="10.00" fill="#000000">periph/dev_enums.h</text>
</a>
</g>
</g>
<!-- Node9&#45;&gt;Node11 -->
<g id="edge15" class="edge">
<title>Node9&#45;&gt;Node11</title>
<path fill="none" stroke="#191970" d="M193.4787,-112.2455C205.6384,-103.7337 223.4902,-91.2375 237.5722,-81.3801"/>
<polygon fill="#191970" stroke="#191970" points="239.5833,-84.2447 245.7685,-75.6427 235.569,-78.51 239.5833,-84.2447"/>
</g>
<!-- Node11&#45;&gt;Node8 -->
<g id="edge16" class="edge">
<title>Node11&#45;&gt;Node8</title>
<path fill="none" stroke="#191970" d="M245.6088,-56.2455C233.449,-47.7337 215.5973,-35.2375 201.5153,-25.3801"/>
<polygon fill="#191970" stroke="#191970" points="203.5184,-22.51 193.319,-19.6427 199.5042,-28.2447 203.5184,-22.51"/>
</g>
<!-- Node12&#45;&gt;Node4 -->
<g id="edge18" class="edge">
<title>Node12&#45;&gt;Node4</title>
<path fill="none" stroke="#191970" d="M377.5011,-224.3929C373.4305,-203.6433 365.3728,-153.1855 373.5437,-112 375.4086,-102.6003 379.2236,-92.7115 382.9492,-84.5215"/>
<polygon fill="#191970" stroke="#191970" points="386.0995,-86.0464 387.3119,-75.5212 379.8005,-82.993 386.0995,-86.0464"/>
</g>
<!-- Node13 -->
<g id="node14" class="node">
<title>Node13</title>
<g id="a_node14"><a xlink:href="saul_8h.html" target="_top" xlink:title="Definition of the generic [S]ensor [A]ctuator [U]ber [L]ayer. ">
<polygon fill="none" stroke="#000000" points="398.0437,-168.5 398.0437,-187.5 441.0437,-187.5 441.0437,-168.5 398.0437,-168.5"/>
<text text-anchor="middle" x="419.5437" y="-175.5" font-family="Helvetica,sans-Serif" font-size="10.00" fill="#000000">saul.h</text>
</a>
</g>
</g>
<!-- Node12&#45;&gt;Node13 -->
<g id="edge19" class="edge">
<title>Node12&#45;&gt;Node13</title>
<path fill="none" stroke="#191970" d="M386.5112,-224.2455C392.0749,-216.4564 400.0218,-205.3308 406.7266,-195.9439"/>
<polygon fill="#191970" stroke="#191970" points="409.6918,-197.8144 412.6561,-187.6427 403.9956,-193.7457 409.6918,-197.8144"/>
</g>
<!-- Node15 -->
<g id="node16" class="node">
<title>Node15</title>
<g id="a_node16"><a xlink:href="phydat_8h.html" target="_top" xlink:title="Generic data container for physical data interface. ">
<polygon fill="none" stroke="#000000" points="485.5437,-112.5 485.5437,-131.5 539.5437,-131.5 539.5437,-112.5 485.5437,-112.5"/>
<text text-anchor="middle" x="512.5437" y="-119.5" font-family="Helvetica,sans-Serif" font-size="10.00" fill="#000000">phydat.h</text>
</a>
</g>
</g>
<!-- Node12&#45;&gt;Node15 -->
<g id="edge27" class="edge">
<title>Node12&#45;&gt;Node15</title>
<path fill="none" stroke="#191970" d="M396.6922,-224.4778C411.5907,-215.8433 433.408,-202.3095 450.5437,-188 468.3312,-173.1461 486.1907,-153.5157 498.1417,-139.5343"/>
<polygon fill="#191970" stroke="#191970" points="501.0116,-141.5595 504.766,-131.6521 495.6528,-137.0558 501.0116,-141.5595"/>
</g>
<!-- Node13&#45;&gt;Node4 -->
<g id="edge20" class="edge">
<title>Node13&#45;&gt;Node4</title>
<path fill="none" stroke="#191970" d="M426.3033,-168.3725C434.5826,-155.313 446.5746,-131.3882 438.5437,-112 433.7125,-100.3363 424.33,-90.0881 415.2919,-82.243"/>
<polygon fill="#191970" stroke="#191970" points="417.2107,-79.2942 407.229,-75.7423 412.8171,-84.7436 417.2107,-79.2942"/>
</g>
<!-- Node14 -->
<g id="node15" class="node">
<title>Node14</title>
<g id="a_node15"><a xlink:href="errno_8h.html" target="_top" xlink:title="errno.h">
<polygon fill="none" stroke="#000000" points="382.0437,-112.5 382.0437,-131.5 429.0437,-131.5 429.0437,-112.5 382.0437,-112.5"/>
<text text-anchor="middle" x="405.5437" y="-119.5" font-family="Helvetica,sans-Serif" font-size="10.00" fill="#000000">errno.h</text>
</a>
</g>
</g>
<!-- Node13&#45;&gt;Node14 -->
<g id="edge21" class="edge">
<title>Node13&#45;&gt;Node14</title>
<path fill="none" stroke="#191970" d="M417.1051,-168.2455C415.2582,-160.8579 412.6609,-150.4689 410.3959,-141.4087"/>
<polygon fill="#191970" stroke="#191970" points="413.7753,-140.4952 407.9544,-131.6427 406.9843,-142.193 413.7753,-140.4952"/>
</g>
<!-- Node13&#45;&gt;Node15 -->
<g id="edge22" class="edge">
<title>Node13&#45;&gt;Node15</title>
<path fill="none" stroke="#191970" d="M435.7431,-168.2455C450.1455,-159.5731 471.417,-146.7645 487.9237,-136.825"/>
<polygon fill="#191970" stroke="#191970" points="489.7687,-139.7996 496.53,-131.6427 486.1577,-133.8028 489.7687,-139.7996"/>
</g>
<!-- Node15&#45;&gt;Node4 -->
<g id="edge24" class="edge">
<title>Node15&#45;&gt;Node4</title>
<path fill="none" stroke="#191970" d="M491.915,-112.3733C472.6519,-103.3838 443.6951,-89.8706 422.0018,-79.7471"/>
<polygon fill="#191970" stroke="#191970" points="423.4452,-76.5584 412.9033,-75.5011 420.485,-82.9017 423.4452,-76.5584"/>
</g>
<!-- Node15&#45;&gt;Node10 -->
<g id="edge23" class="edge">
<title>Node15&#45;&gt;Node10</title>
<path fill="none" stroke="#191970" d="M519.7447,-112.309C528.5568,-99.1775 541.2897,-75.1715 532.5437,-56 526.8548,-43.5296 515.9306,-33.1361 505.4711,-25.4023"/>
<polygon fill="#191970" stroke="#191970" points="507.1475,-22.3082 496.9195,-19.5442 503.1915,-28.0832 507.1475,-22.3082"/>
</g>
<!-- Node16 -->
<g id="node17" class="node">
<title>Node16</title>
<g id="a_node17"><a xlink:href="kernel__defines_8h.html" target="_top" xlink:title="Common macros and compiler attributes/pragmas configuration. ">
<polygon fill="none" stroke="#000000" points="435.5437,-56.5 435.5437,-75.5 523.5437,-75.5 523.5437,-56.5 435.5437,-56.5"/>
<text text-anchor="middle" x="479.5437" y="-63.5" font-family="Helvetica,sans-Serif" font-size="10.00" fill="#000000">kernel_defines.h</text>
</a>
</g>
</g>
<!-- Node15&#45;&gt;Node16 -->
<g id="edge25" class="edge">
<title>Node15&#45;&gt;Node16</title>
<path fill="none" stroke="#191970" d="M506.7956,-112.2455C502.3002,-104.617 495.9189,-93.7881 490.4613,-84.5267"/>
<polygon fill="#191970" stroke="#191970" points="493.3184,-82.4811 485.226,-75.6427 487.2876,-86.035 493.3184,-82.4811"/>
</g>
<!-- Node16&#45;&gt;Node10 -->
<g id="edge26" class="edge">
<title>Node16&#45;&gt;Node10</title>
<path fill="none" stroke="#191970" d="M479.5437,-56.2455C479.5437,-48.9382 479.5437,-38.6944 479.5437,-29.7046"/>
<polygon fill="#191970" stroke="#191970" points="483.0438,-29.6426 479.5437,-19.6427 476.0438,-29.6427 483.0438,-29.6426"/>
</g>
</g>
</svg>
