<?xml version="1.0" encoding="UTF-8" standalone="no"?>
<!DOCTYPE svg PUBLIC "-//W3C//DTD SVG 1.1//EN"
 "http://www.w3.org/Graphics/SVG/1.1/DTD/svg11.dtd">
<!-- Generated by graphviz version 2.43.0 (0)
 -->
<!-- Title: drivers/hts221/include/hts221_regs.h Pages: 1 -->
<svg width="186pt" height="162pt"
 viewBox="0.00 0.00 185.50 162.00" xmlns="http://www.w3.org/2000/svg" xmlns:xlink="http://www.w3.org/1999/xlink">
<g id="graph0" class="graph" transform="scale(1 1) rotate(0) translate(4 158)">
<title>drivers/hts221/include/hts221_regs.h</title>
<!-- Node1 -->
<g id="node1" class="node">
<title>Node1</title>
<g id="a_node1"><a xlink:title="Register definitions for ST HTS221 devices.">
<polygon fill="#bfbfbf" stroke="black" points="48,-123.5 48,-153.5 173,-153.5 173,-123.5 48,-123.5"/>
<text text-anchor="start" x="56" y="-141.5" font-family="Helvetica,sans-Serif" font-size="10.00">drivers/hts221/include</text>
<text text-anchor="middle" x="110.5" y="-130.5" font-family="Helvetica,sans-Serif" font-size="10.00">/hts221_regs.h</text>
</a>
</g>
</g>
<!-- Node2 -->
<g id="node2" class="node">
<title>Node2</title>
<g id="a_node2"><a xlink:href="hts221__params_8h.html" target="_top" xlink:title="Default configuration for ST HTS221 devices.">
<polygon fill="none" stroke="black" points="0,-0.5 0,-30.5 125,-30.5 125,-0.5 0,-0.5"/>
<text text-anchor="start" x="8" y="-18.5" font-family="Helvetica,sans-Serif" font-size="10.00">drivers/hts221/include</text>
<text text-anchor="middle" x="62.5" y="-7.5" font-family="Helvetica,sans-Serif" font-size="10.00">/hts221_params.h</text>
</a>
</g>
</g>
<!-- Node1&#45;&gt;Node2 -->
<g id="edge1" class="edge">
<title>Node1&#45;&gt;Node2</title>
<path fill="none" stroke="midnightblue" d="M66.59,-118.46C53.93,-110.65 41.62,-100.27 34.5,-87 24.48,-68.31 38.14,-45.25 49.65,-30.7"/>
<polygon fill="midnightblue" stroke="midnightblue" points="64.94,-121.54 75.36,-123.45 68.4,-115.46 64.94,-121.54"/>
</g>
<!-- Node3 -->
<g id="node3" class="node">
<title>Node3</title>
<g id="a_node3"><a xlink:href="hts221_8h.html" target="_top" xlink:title="Interface definition for the ST HTS221 driver.">
<polygon fill="none" stroke="black" points="43.5,-67.5 43.5,-86.5 177.5,-86.5 177.5,-67.5 43.5,-67.5"/>
<text text-anchor="middle" x="110.5" y="-74.5" font-family="Helvetica,sans-Serif" font-size="10.00">drivers/include/hts221.h</text>
</a>
</g>
</g>
<!-- Node1&#45;&gt;Node3 -->
<g id="edge2" class="edge">
<title>Node1&#45;&gt;Node3</title>
<path fill="none" stroke="midnightblue" d="M103.86,-113.29C103.49,-103.86 104.07,-93.65 105.57,-86.66"/>
<polygon fill="midnightblue" stroke="midnightblue" points="100.38,-113.71 104.66,-123.4 107.36,-113.15 100.38,-113.71"/>
</g>
<!-- Node3&#45;&gt;Node1 -->
<g id="edge4" class="edge">
<title>Node3&#45;&gt;Node1</title>
<path fill="none" stroke="midnightblue" d="M116.81,-96.57C117.53,-105.23 117.37,-115.38 116.34,-123.4"/>
<polygon fill="midnightblue" stroke="midnightblue" points="120.27,-96.08 115.43,-86.66 113.34,-97.04 120.27,-96.08"/>
</g>
<!-- Node3&#45;&gt;Node2 -->
<g id="edge3" class="edge">
<title>Node3&#45;&gt;Node2</title>
<path fill="none" stroke="midnightblue" d="M97.21,-59.53C89.86,-50.42 80.82,-39.21 73.81,-30.52"/>
<polygon fill="midnightblue" stroke="midnightblue" points="94.62,-61.89 103.62,-67.48 100.07,-57.49 94.62,-61.89"/>
</g>
</g>
</svg>
