<?xml version="1.0" encoding="UTF-8" standalone="no"?>
<!DOCTYPE svg PUBLIC "-//W3C//DTD SVG 1.1//EN"
 "http://www.w3.org/Graphics/SVG/1.1/DTD/svg11.dtd">
<!-- Generated by graphviz version 2.40.1 (20161225.0304)
 -->
<!-- Title: drivers/include/hts221.h Pages: 1 -->
<svg width="166pt" height="162pt"
 viewBox="0.00 0.00 166.00 162.00" xmlns="http://www.w3.org/2000/svg" xmlns:xlink="http://www.w3.org/1999/xlink">
<g id="graph0" class="graph" transform="scale(1 1) rotate(0) translate(4 158)">
<title>drivers/include/hts221.h</title>
<!-- Node10 -->
<g id="node1" class="node">
<title>Node10</title>
<polygon fill="#bfbfbf" stroke="#000000" points="38,-134.5 38,-153.5 158,-153.5 158,-134.5 38,-134.5"/>
<text text-anchor="middle" x="98" y="-141.5" font-family="Helvetica,sans-Serif" font-size="10.00" fill="#000000">drivers/include/hts221.h</text>
</g>
<!-- Node11 -->
<g id="node2" class="node">
<title>Node11</title>
<g id="a_node2"><a xlink:href="hts221__params_8h.html" target="_top" xlink:title="Default configuration for ST HTS221 devices. ">
<polygon fill="none" stroke="#000000" points="0,-.5 0,-30.5 112,-30.5 112,-.5 0,-.5"/>
<text text-anchor="start" x="8" y="-18.5" font-family="Helvetica,sans-Serif" font-size="10.00" fill="#000000">drivers/hts221/include</text>
<text text-anchor="middle" x="56" y="-7.5" font-family="Helvetica,sans-Serif" font-size="10.00" fill="#000000">/hts221_params.h</text>
</a>
</g>
</g>
<!-- Node10&#45;&gt;Node11 -->
<g id="edge1" class="edge">
<title>Node10&#45;&gt;Node11</title>
<path fill="none" stroke="#191970" d="M65.8663,-129.5718C53.2195,-122.0964 40.0546,-111.635 33,-98 21.6576,-76.0777 34.6957,-47.897 45.265,-30.792"/>
<polygon fill="#191970" stroke="#191970" points="64.4334,-132.7769 74.8888,-134.4901 67.7837,-126.6308 64.4334,-132.7769"/>
</g>
<!-- Node12 -->
<g id="node3" class="node">
<title>Node12</title>
<g id="a_node3"><a xlink:href="hts221__regs_8h.html" target="_top" xlink:title="Register definitions for ST HTS221 devices. ">
<polygon fill="none" stroke="#000000" points="42,-67.5 42,-97.5 154,-97.5 154,-67.5 42,-67.5"/>
<text text-anchor="start" x="50" y="-85.5" font-family="Helvetica,sans-Serif" font-size="10.00" fill="#000000">drivers/hts221/include</text>
<text text-anchor="middle" x="98" y="-74.5" font-family="Helvetica,sans-Serif" font-size="10.00" fill="#000000">/hts221_regs.h</text>
</a>
</g>
</g>
<!-- Node10&#45;&gt;Node12 -->
<g id="edge2" class="edge">
<title>Node10&#45;&gt;Node12</title>
<path fill="none" stroke="#191970" d="M91.6586,-124.3693C90.9926,-115.681 91.1407,-105.6241 92.1029,-97.5446"/>
<polygon fill="#191970" stroke="#191970" points="88.1997,-124.9142 92.9375,-134.3906 95.1433,-124.028 88.1997,-124.9142"/>
</g>
<!-- Node12&#45;&gt;Node10 -->
<g id="edge4" class="edge">
<title>Node12&#45;&gt;Node10</title>
<path fill="none" stroke="#191970" d="M104.6503,-107.671C104.9902,-117.0862 104.461,-127.2234 103.0625,-134.3906"/>
<polygon fill="#191970" stroke="#191970" points="108.1293,-107.2574 103.8971,-97.5446 101.1485,-107.7767 108.1293,-107.2574"/>
</g>
<!-- Node12&#45;&gt;Node11 -->
<g id="edge3" class="edge">
<title>Node12&#45;&gt;Node11</title>
<path fill="none" stroke="#191970" d="M83.1267,-58.7735C77.2604,-49.4154 70.695,-38.9421 65.4927,-30.6432"/>
<polygon fill="#191970" stroke="#191970" points="80.1926,-60.6828 88.4695,-67.2967 86.1237,-56.9648 80.1926,-60.6828"/>
</g>
</g>
</svg>
