<?xml version="1.0" encoding="UTF-8" standalone="no"?>
<!DOCTYPE svg PUBLIC "-//W3C//DTD SVG 1.1//EN"
 "http://www.w3.org/Graphics/SVG/1.1/DTD/svg11.dtd">
<!-- Generated by graphviz version 2.40.1 (20161225.0304)
 -->
<!-- Title: drivers/include/hts221.h Pages: 1 -->
<svg width="511pt" height="196pt"
 viewBox="0.00 0.00 511.00 196.00" xmlns="http://www.w3.org/2000/svg" xmlns:xlink="http://www.w3.org/1999/xlink">
<g id="graph0" class="graph" transform="scale(1 1) rotate(0) translate(4 192)">
<title>drivers/include/hts221.h</title>
<!-- Node0 -->
<g id="node1" class="node">
<title>Node0</title>
<polygon fill="#bfbfbf" stroke="#000000" points="172.5,-168.5 172.5,-187.5 292.5,-187.5 292.5,-168.5 172.5,-168.5"/>
<text text-anchor="middle" x="232.5" y="-175.5" font-family="Helvetica,sans-Serif" font-size="10.00" fill="#000000">drivers/include/hts221.h</text>
</g>
<!-- Node1 -->
<g id="node2" class="node">
<title>Node1</title>
<polygon fill="none" stroke="#bfbfbf" points="0,-56.5 0,-75.5 49,-75.5 49,-56.5 0,-56.5"/>
<text text-anchor="middle" x="24.5" y="-63.5" font-family="Helvetica,sans-Serif" font-size="10.00" fill="#000000">stdint.h</text>
</g>
<!-- Node0&#45;&gt;Node1 -->
<g id="edge1" class="edge">
<title>Node0&#45;&gt;Node1</title>
<path fill="none" stroke="#191970" d="M213.8986,-168.4216C196.046,-159.1947 168.352,-144.7915 144.5,-132 111.9435,-114.5404 74.7021,-93.9621 50.4554,-80.4824"/>
<polygon fill="#191970" stroke="#191970" points="51.9678,-77.3186 41.5279,-75.5135 48.5635,-83.4351 51.9678,-77.3186"/>
</g>
<!-- Node2 -->
<g id="node3" class="node">
<title>Node2</title>
<g id="a_node3"><a xlink:href="i2c_8h.html" target="_top" xlink:title="Low&#45;level I2C peripheral driver interface definition. ">
<polygon fill="none" stroke="#000000" points="154,-112.5 154,-131.5 221,-131.5 221,-112.5 154,-112.5"/>
<text text-anchor="middle" x="187.5" y="-119.5" font-family="Helvetica,sans-Serif" font-size="10.00" fill="#000000">periph/i2c.h</text>
</a>
</g>
</g>
<!-- Node0&#45;&gt;Node2 -->
<g id="edge2" class="edge">
<title>Node0&#45;&gt;Node2</title>
<path fill="none" stroke="#191970" d="M224.6616,-168.2455C218.338,-160.3761 209.2776,-149.101 201.6864,-139.6542"/>
<polygon fill="#191970" stroke="#191970" points="204.2408,-137.2454 195.2486,-131.6427 198.7842,-141.6302 204.2408,-137.2454"/>
</g>
<!-- Node8 -->
<g id="node9" class="node">
<title>Node8</title>
<g id="a_node9"><a xlink:href="hts221__regs_8h.html" target="_top" xlink:title="Register definitions for ST HTS221 devices. ">
<polygon fill="none" stroke="#000000" points="239.5,-112.5 239.5,-131.5 317.5,-131.5 317.5,-112.5 239.5,-112.5"/>
<text text-anchor="middle" x="278.5" y="-119.5" font-family="Helvetica,sans-Serif" font-size="10.00" fill="#000000">hts221_regs.h</text>
</a>
</g>
</g>
<!-- Node0&#45;&gt;Node8 -->
<g id="edge10" class="edge">
<title>Node0&#45;&gt;Node8</title>
<path fill="none" stroke="#191970" d="M235.2457,-168.2455C240.2912,-160.2155 249.4654,-148.6394 258.2004,-139.0781"/>
<polygon fill="#191970" stroke="#191970" points="260.9365,-141.2818 265.3341,-131.6427 255.8853,-136.4356 260.9365,-141.2818"/>
</g>
<!-- Node2&#45;&gt;Node1 -->
<g id="edge3" class="edge">
<title>Node2&#45;&gt;Node1</title>
<path fill="none" stroke="#191970" d="M159.4793,-112.3733C131.5926,-102.7926 88.7498,-88.0736 58.8344,-77.7959"/>
<polygon fill="#191970" stroke="#191970" points="59.8197,-74.4336 49.2251,-74.4945 57.5452,-81.0538 59.8197,-74.4336"/>
</g>
<!-- Node3 -->
<g id="node4" class="node">
<title>Node3</title>
<polygon fill="none" stroke="#bfbfbf" points="67.5,-56.5 67.5,-75.5 119.5,-75.5 119.5,-56.5 67.5,-56.5"/>
<text text-anchor="middle" x="93.5" y="-63.5" font-family="Helvetica,sans-Serif" font-size="10.00" fill="#000000">stddef.h</text>
</g>
<!-- Node2&#45;&gt;Node3 -->
<g id="edge4" class="edge">
<title>Node2&#45;&gt;Node3</title>
<path fill="none" stroke="#191970" d="M171.1264,-112.2455C156.5692,-103.5731 135.069,-90.7645 118.3848,-80.825"/>
<polygon fill="#191970" stroke="#191970" points="120.0683,-77.7539 109.6859,-75.6427 116.4856,-83.7676 120.0683,-77.7539"/>
</g>
<!-- Node4 -->
<g id="node5" class="node">
<title>Node4</title>
<polygon fill="none" stroke="#bfbfbf" points="137.5,-56.5 137.5,-75.5 185.5,-75.5 185.5,-56.5 137.5,-56.5"/>
<text text-anchor="middle" x="161.5" y="-63.5" font-family="Helvetica,sans-Serif" font-size="10.00" fill="#000000">limits.h</text>
</g>
<!-- Node2&#45;&gt;Node4 -->
<g id="edge5" class="edge">
<title>Node2&#45;&gt;Node4</title>
<path fill="none" stroke="#191970" d="M182.9711,-112.2455C179.4666,-104.6973 174.5073,-94.0158 170.2377,-84.8197"/>
<polygon fill="#191970" stroke="#191970" points="173.3627,-83.2389 165.977,-75.6427 167.0136,-86.1867 173.3627,-83.2389"/>
</g>
<!-- Node5 -->
<g id="node6" class="node">
<title>Node5</title>
<polygon fill="none" stroke="#bfbfbf" points="261,-.5 261,-19.5 336,-19.5 336,-.5 261,-.5"/>
<text text-anchor="middle" x="298.5" y="-7.5" font-family="Helvetica,sans-Serif" font-size="10.00" fill="#000000">periph_conf.h</text>
</g>
<!-- Node2&#45;&gt;Node5 -->
<g id="edge6" class="edge">
<title>Node2&#45;&gt;Node5</title>
<path fill="none" stroke="#191970" d="M192.6506,-112.2387C200.1623,-98.5996 215.1346,-73.5447 232.5,-56 244.2802,-44.0982 259.5033,-33.2545 272.3601,-25.0886"/>
<polygon fill="#191970" stroke="#191970" points="274.5364,-27.8591 281.2207,-19.639 270.8692,-21.8966 274.5364,-27.8591"/>
</g>
<!-- Node6 -->
<g id="node7" class="node">
<title>Node6</title>
<polygon fill="none" stroke="#bfbfbf" points="241.5,-56.5 241.5,-75.5 313.5,-75.5 313.5,-56.5 241.5,-56.5"/>
<text text-anchor="middle" x="277.5" y="-63.5" font-family="Helvetica,sans-Serif" font-size="10.00" fill="#000000">periph_cpu.h</text>
</g>
<!-- Node2&#45;&gt;Node6 -->
<g id="edge7" class="edge">
<title>Node2&#45;&gt;Node6</title>
<path fill="none" stroke="#191970" d="M203.1768,-112.2455C216.9856,-103.6534 237.3193,-91.0014 253.2292,-81.1018"/>
<polygon fill="#191970" stroke="#191970" points="255.3613,-83.8974 262.0028,-75.6427 251.6632,-77.954 255.3613,-83.8974"/>
</g>
<!-- Node7 -->
<g id="node8" class="node">
<title>Node7</title>
<g id="a_node8"><a xlink:href="dev__enums_8h.html" target="_top" xlink:title="Device enumerations for backward compatibility with existing peripheral driver implementations. ">
<polygon fill="none" stroke="#000000" points="331.5,-56.5 331.5,-75.5 435.5,-75.5 435.5,-56.5 331.5,-56.5"/>
<text text-anchor="middle" x="383.5" y="-63.5" font-family="Helvetica,sans-Serif" font-size="10.00" fill="#000000">periph/dev_enums.h</text>
</a>
</g>
</g>
<!-- Node2&#45;&gt;Node7 -->
<g id="edge8" class="edge">
<title>Node2&#45;&gt;Node7</title>
<path fill="none" stroke="#191970" d="M221.1936,-112.3733C254.2087,-102.9404 304.6573,-88.5265 340.5386,-78.2747"/>
<polygon fill="#191970" stroke="#191970" points="341.5924,-81.6137 350.2461,-75.5011 339.6693,-74.8831 341.5924,-81.6137"/>
</g>
<!-- Node7&#45;&gt;Node5 -->
<g id="edge9" class="edge">
<title>Node7&#45;&gt;Node5</title>
<path fill="none" stroke="#191970" d="M368.6941,-56.2455C355.7744,-47.7337 336.8069,-35.2375 321.8448,-25.3801"/>
<polygon fill="#191970" stroke="#191970" points="323.4124,-22.2216 313.1362,-19.6427 319.5613,-28.067 323.4124,-22.2216"/>
</g>
<!-- Node8&#45;&gt;Node0 -->
<g id="edge12" class="edge">
<title>Node8&#45;&gt;Node0</title>
<path fill="none" stroke="#191970" d="M275.8244,-131.6427C270.8174,-139.6396 261.6604,-151.2085 252.9215,-160.7884"/>
<polygon fill="#191970" stroke="#191970" points="250.1686,-158.6026 245.7794,-168.2455 255.224,-163.4444 250.1686,-158.6026"/>
</g>
<!-- Node9 -->
<g id="node10" class="node">
<title>Node9</title>
<polygon fill="none" stroke="#bfbfbf" points="454,-56.5 454,-75.5 503,-75.5 503,-56.5 454,-56.5"/>
<text text-anchor="middle" x="478.5" y="-63.5" font-family="Helvetica,sans-Serif" font-size="10.00" fill="#000000">board.h</text>
</g>
<!-- Node8&#45;&gt;Node9 -->
<g id="edge11" class="edge">
<title>Node8&#45;&gt;Node9</title>
<path fill="none" stroke="#191970" d="M313.5204,-112.4674C345.1111,-103.8303 393.0997,-90.6159 444.1038,-76.0817"/>
<polygon fill="#191970" stroke="#191970" points="445.3447,-79.3674 453.9993,-73.256 443.4226,-72.6364 445.3447,-79.3674"/>
</g>
</g>
</svg>
