<?xml version="1.0" encoding="UTF-8" standalone="no"?>
<!DOCTYPE svg PUBLIC "-//W3C//DTD SVG 1.1//EN"
 "http://www.w3.org/Graphics/SVG/1.1/DTD/svg11.dtd">
<!-- Generated by graphviz version 2.43.0 (0)
 -->
<!-- Title: sys/include/net/icmpv6.h Pages: 1 -->
<svg width="1465pt" height="463pt"
 viewBox="0.00 0.00 1465.00 463.00" xmlns="http://www.w3.org/2000/svg" xmlns:xlink="http://www.w3.org/1999/xlink">
<g id="graph0" class="graph" transform="scale(1 1) rotate(0) translate(4 459)">
<title>sys/include/net/icmpv6.h</title>
<!-- Node1 -->
<g id="node1" class="node">
<title>Node1</title>
<g id="a_node1"><a xlink:title="ICMPv6 type and function definitions.">
<polygon fill="#bfbfbf" stroke="black" points="137.5,-435.5 137.5,-454.5 275.5,-454.5 275.5,-435.5 137.5,-435.5"/>
<text text-anchor="middle" x="206.5" y="-442.5" font-family="Helvetica,sans-Serif" font-size="10.00">sys/include/net/icmpv6.h</text>
</a>
</g>
</g>
<!-- Node2 -->
<g id="node2" class="node">
<title>Node2</title>
<g id="a_node2"><a xlink:href="error_8h.html" target="_top" xlink:title="ICMPv6 error message definitions.">
<polygon fill="none" stroke="black" points="86.5,-229 86.5,-259 200.5,-259 200.5,-229 86.5,-229"/>
<text text-anchor="start" x="94.5" y="-247" font-family="Helvetica,sans-Serif" font-size="10.00">sys/include/net/gnrc</text>
<text text-anchor="middle" x="143.5" y="-236" font-family="Helvetica,sans-Serif" font-size="10.00">/icmpv6/error.h</text>
</a>
</g>
</g>
<!-- Node1&#45;&gt;Node2 -->
<g id="edge1" class="edge">
<title>Node1&#45;&gt;Node2</title>
<path fill="none" stroke="midnightblue" d="M200.76,-425.86C188.32,-386.57 159.1,-294.29 147.94,-259.03"/>
<polygon fill="midnightblue" stroke="midnightblue" points="197.44,-426.97 203.79,-435.45 204.11,-424.86 197.44,-426.97"/>
</g>
<!-- Node3 -->
<g id="node3" class="node">
<title>Node3</title>
<g id="a_node3"><a xlink:href="gnrc_2icmpv6_8h.html" target="_top" xlink:title="Definitions for GNRC&#39;s ICMPv6 implementation.">
<polygon fill="none" stroke="black" points="1.5,-151 1.5,-181 115.5,-181 115.5,-151 1.5,-151"/>
<text text-anchor="start" x="9.5" y="-169" font-family="Helvetica,sans-Serif" font-size="10.00">sys/include/net/gnrc</text>
<text text-anchor="middle" x="58.5" y="-158" font-family="Helvetica,sans-Serif" font-size="10.00">/icmpv6.h</text>
</a>
</g>
</g>
<!-- Node1&#45;&gt;Node3 -->
<g id="edge4" class="edge">
<title>Node1&#45;&gt;Node3</title>
<path fill="none" stroke="midnightblue" d="M191.01,-427.82C163.52,-398.14 106.4,-331.85 77.5,-265 65.33,-236.84 60.91,-200.77 59.33,-181.19"/>
<polygon fill="midnightblue" stroke="midnightblue" points="188.53,-430.3 197.93,-435.19 193.64,-425.51 188.53,-430.3"/>
</g>
<!-- Node5 -->
<g id="node5" class="node">
<title>Node5</title>
<g id="a_node5"><a xlink:href="nib_8h.html" target="_top" xlink:title="NIB definitions.">
<polygon fill="none" stroke="black" points="284.5,-368.5 284.5,-398.5 398.5,-398.5 398.5,-368.5 284.5,-368.5"/>
<text text-anchor="start" x="292.5" y="-386.5" font-family="Helvetica,sans-Serif" font-size="10.00">sys/include/net/gnrc</text>
<text text-anchor="middle" x="341.5" y="-375.5" font-family="Helvetica,sans-Serif" font-size="10.00">/ipv6/nib.h</text>
</a>
</g>
</g>
<!-- Node1&#45;&gt;Node5 -->
<g id="edge5" class="edge">
<title>Node1&#45;&gt;Node5</title>
<path fill="none" stroke="midnightblue" d="M235.25,-431.33C257.09,-421.7 287.12,-408.47 309.68,-398.52"/>
<polygon fill="midnightblue" stroke="midnightblue" points="233.58,-428.24 225.84,-435.48 236.4,-434.64 233.58,-428.24"/>
</g>
<!-- Node17 -->
<g id="node17" class="node">
<title>Node17</title>
<g id="a_node17"><a xlink:href="__nib-arsm_8h_source.html" target="_top" xlink:title=" ">
<polygon fill="none" stroke="black" points="134,-145.5 134,-186.5 253,-186.5 253,-145.5 134,-145.5"/>
<text text-anchor="start" x="142" y="-174.5" font-family="Helvetica,sans-Serif" font-size="10.00">sys/net/gnrc/network</text>
<text text-anchor="start" x="142" y="-163.5" font-family="Helvetica,sans-Serif" font-size="10.00">_layer/ipv6/nib/_nib</text>
<text text-anchor="middle" x="193.5" y="-152.5" font-family="Helvetica,sans-Serif" font-size="10.00">&#45;arsm.h</text>
</a>
</g>
</g>
<!-- Node1&#45;&gt;Node17 -->
<g id="edge27" class="edge">
<title>Node1&#45;&gt;Node17</title>
<path fill="none" stroke="midnightblue" d="M208.71,-424.87C212.72,-386.4 219.87,-297.04 209.5,-223 207.77,-210.68 204.01,-197.27 200.57,-186.67"/>
<polygon fill="midnightblue" stroke="midnightblue" points="205.2,-424.78 207.59,-435.1 212.15,-425.54 205.2,-424.78"/>
</g>
<!-- Node2&#45;&gt;Node3 -->
<g id="edge2" class="edge">
<title>Node2&#45;&gt;Node3</title>
<path fill="none" stroke="midnightblue" d="M119.89,-221.89C105.4,-208.93 87.22,-192.68 74.42,-181.23"/>
<polygon fill="midnightblue" stroke="midnightblue" points="117.72,-224.65 127.51,-228.7 122.39,-219.43 117.72,-224.65"/>
</g>
<!-- Node4 -->
<g id="node4" class="node">
<title>Node4</title>
<g id="a_node4"><a xlink:href="validation_8h.html" target="_top" xlink:title="RPL control message validation functions.">
<polygon fill="none" stroke="black" points="0,-67.5 0,-108.5 117,-108.5 117,-67.5 0,-67.5"/>
<text text-anchor="start" x="8" y="-96.5" font-family="Helvetica,sans-Serif" font-size="10.00">sys/net/gnrc/routing</text>
<text text-anchor="start" x="8" y="-85.5" font-family="Helvetica,sans-Serif" font-size="10.00">/rpl/gnrc_rpl_internal</text>
<text text-anchor="middle" x="58.5" y="-74.5" font-family="Helvetica,sans-Serif" font-size="10.00">/validation.h</text>
</a>
</g>
</g>
<!-- Node3&#45;&gt;Node4 -->
<g id="edge3" class="edge">
<title>Node3&#45;&gt;Node4</title>
<path fill="none" stroke="midnightblue" d="M58.5,-140.66C58.5,-130.33 58.5,-118.44 58.5,-108.68"/>
<polygon fill="midnightblue" stroke="midnightblue" points="55,-140.7 58.5,-150.7 62,-140.71 55,-140.7"/>
</g>
<!-- Node6 -->
<g id="node6" class="node">
<title>Node6</title>
<g id="a_node6"><a xlink:href="gnrc_2ipv6_8h.html" target="_top" xlink:title="Definitions for GNRC&#39;s IPv6 implementation.">
<polygon fill="none" stroke="black" points="398.5,-301.5 398.5,-331.5 512.5,-331.5 512.5,-301.5 398.5,-301.5"/>
<text text-anchor="start" x="406.5" y="-319.5" font-family="Helvetica,sans-Serif" font-size="10.00">sys/include/net/gnrc</text>
<text text-anchor="middle" x="455.5" y="-308.5" font-family="Helvetica,sans-Serif" font-size="10.00">/ipv6.h</text>
</a>
</g>
</g>
<!-- Node5&#45;&gt;Node6 -->
<g id="edge6" class="edge">
<title>Node5&#45;&gt;Node6</title>
<path fill="none" stroke="midnightblue" d="M375.18,-363.3C393.02,-353.12 414.54,-340.85 430.81,-331.58"/>
<polygon fill="midnightblue" stroke="midnightblue" points="373.19,-360.4 366.24,-368.4 376.66,-366.48 373.19,-360.4"/>
</g>
<!-- Node6&#45;&gt;Node2 -->
<g id="edge7" class="edge">
<title>Node6&#45;&gt;Node2</title>
<path fill="none" stroke="midnightblue" d="M388.45,-300.35C332.5,-287.71 253.62,-269.88 200.63,-257.91"/>
<polygon fill="midnightblue" stroke="midnightblue" points="387.75,-303.78 398.27,-302.57 389.29,-296.95 387.75,-303.78"/>
</g>
<!-- Node7 -->
<g id="node7" class="node">
<title>Node7</title>
<g id="a_node7"><a xlink:href="rpl_8h.html" target="_top" xlink:title="RPL header. Declaration of global variables and functions needed for core functionality of RPL.">
<polygon fill="none" stroke="black" points="485.5,-229 485.5,-259 599.5,-259 599.5,-229 485.5,-229"/>
<text text-anchor="start" x="493.5" y="-247" font-family="Helvetica,sans-Serif" font-size="10.00">sys/include/net/gnrc</text>
<text text-anchor="middle" x="542.5" y="-236" font-family="Helvetica,sans-Serif" font-size="10.00">/rpl.h</text>
</a>
</g>
</g>
<!-- Node6&#45;&gt;Node7 -->
<g id="edge8" class="edge">
<title>Node6&#45;&gt;Node7</title>
<path fill="none" stroke="midnightblue" d="M481.06,-294.79C495.28,-283.27 512.6,-269.23 525.22,-259"/>
<polygon fill="midnightblue" stroke="midnightblue" points="478.67,-292.22 473.11,-301.23 483.08,-297.66 478.67,-292.22"/>
</g>
<!-- Node9 -->
<g id="node9" class="node">
<title>Node9</title>
<g id="a_node9"><a xlink:href="tcb_8h.html" target="_top" xlink:title="GNRC TCP transmission control block (TCB)">
<polygon fill="none" stroke="black" points="901.5,-229 901.5,-259 1015.5,-259 1015.5,-229 901.5,-229"/>
<text text-anchor="start" x="909.5" y="-247" font-family="Helvetica,sans-Serif" font-size="10.00">sys/include/net/gnrc</text>
<text text-anchor="middle" x="958.5" y="-236" font-family="Helvetica,sans-Serif" font-size="10.00">/tcp/tcb.h</text>
</a>
</g>
</g>
<!-- Node6&#45;&gt;Node9 -->
<g id="edge11" class="edge">
<title>Node6&#45;&gt;Node9</title>
<path fill="none" stroke="midnightblue" d="M522.67,-306.09C622.37,-292.11 807.78,-266.13 901.34,-253.01"/>
<polygon fill="midnightblue" stroke="midnightblue" points="522.13,-302.63 512.71,-307.48 523.1,-309.56 522.13,-302.63"/>
</g>
<!-- Node10 -->
<g id="node10" class="node">
<title>Node10</title>
<g id="a_node10"><a xlink:href="gnrc_2tcp_8h.html" target="_top" xlink:title="GNRC TCP API.">
<polygon fill="none" stroke="black" points="617.5,-151 617.5,-181 731.5,-181 731.5,-151 617.5,-151"/>
<text text-anchor="start" x="625.5" y="-169" font-family="Helvetica,sans-Serif" font-size="10.00">sys/include/net/gnrc</text>
<text text-anchor="middle" x="674.5" y="-158" font-family="Helvetica,sans-Serif" font-size="10.00">/tcp.h</text>
</a>
</g>
</g>
<!-- Node6&#45;&gt;Node10 -->
<g id="edge18" class="edge">
<title>Node6&#45;&gt;Node10</title>
<path fill="none" stroke="midnightblue" d="M522.71,-303.46C551.23,-295.91 583.57,-283.89 608.5,-265 638.26,-242.45 659.06,-202.43 668.6,-181.18"/>
<polygon fill="midnightblue" stroke="midnightblue" points="521.64,-300.12 512.8,-305.95 523.35,-306.91 521.64,-300.12"/>
</g>
<!-- Node16 -->
<g id="node16" class="node">
<title>Node16</title>
<g id="a_node16"><a xlink:href="__nib-internal_8h_source.html" target="_top" xlink:title=" ">
<polygon fill="none" stroke="black" points="310,-223.5 310,-264.5 429,-264.5 429,-223.5 310,-223.5"/>
<text text-anchor="start" x="318" y="-252.5" font-family="Helvetica,sans-Serif" font-size="10.00">sys/net/gnrc/network</text>
<text text-anchor="start" x="318" y="-241.5" font-family="Helvetica,sans-Serif" font-size="10.00">_layer/ipv6/nib/_nib</text>
<text text-anchor="middle" x="369.5" y="-230.5" font-family="Helvetica,sans-Serif" font-size="10.00">&#45;internal.h</text>
</a>
</g>
</g>
<!-- Node6&#45;&gt;Node16 -->
<g id="edge19" class="edge">
<title>Node6&#45;&gt;Node16</title>
<path fill="none" stroke="midnightblue" d="M430.07,-294.66C418.47,-285.15 404.81,-273.94 393.4,-264.59"/>
<polygon fill="midnightblue" stroke="midnightblue" points="428.14,-297.6 438.1,-301.23 432.58,-292.19 428.14,-297.6"/>
</g>
<!-- Node8 -->
<g id="node8" class="node">
<title>Node8</title>
<g id="a_node8"><a xlink:href="dodag_8h.html" target="_top" xlink:title="DODAG&#45;related functions for RPL.">
<polygon fill="none" stroke="black" points="485.5,-151 485.5,-181 599.5,-181 599.5,-151 485.5,-151"/>
<text text-anchor="start" x="493.5" y="-169" font-family="Helvetica,sans-Serif" font-size="10.00">sys/include/net/gnrc</text>
<text text-anchor="middle" x="542.5" y="-158" font-family="Helvetica,sans-Serif" font-size="10.00">/rpl/dodag.h</text>
</a>
</g>
</g>
<!-- Node7&#45;&gt;Node8 -->
<g id="edge9" class="edge">
<title>Node7&#45;&gt;Node8</title>
<path fill="none" stroke="midnightblue" d="M536.15,-218.59C535.39,-206.26 535.71,-191.72 537.1,-181.23"/>
<polygon fill="midnightblue" stroke="midnightblue" points="532.68,-219.07 537.09,-228.7 539.65,-218.42 532.68,-219.07"/>
</g>
<!-- Node8&#45;&gt;Node7 -->
<g id="edge10" class="edge">
<title>Node8&#45;&gt;Node7</title>
<path fill="none" stroke="midnightblue" d="M548.85,-191.33C549.61,-203.66 549.29,-218.2 547.91,-228.7"/>
<polygon fill="midnightblue" stroke="midnightblue" points="552.32,-190.86 547.9,-181.23 545.35,-191.51 552.32,-190.86"/>
</g>
<!-- Node9&#45;&gt;Node10 -->
<g id="edge12" class="edge">
<title>Node9&#45;&gt;Node10</title>
<path fill="none" stroke="midnightblue" d="M891.9,-226.5C848.88,-215.67 791.75,-200.98 741.5,-187 734.83,-185.15 727.81,-183.13 720.93,-181.11"/>
<polygon fill="midnightblue" stroke="midnightblue" points="891.14,-229.92 901.69,-228.96 892.84,-223.13 891.14,-229.92"/>
</g>
<!-- Node11 -->
<g id="node11" class="node">
<title>Node11</title>
<g id="a_node11"><a xlink:href="gnrc__tcp__common_8h.html" target="_top" xlink:title="Internally used defines, macros and variable declarations.">
<polygon fill="none" stroke="black" points="1330,-145.5 1330,-186.5 1457,-186.5 1457,-145.5 1330,-145.5"/>
<text text-anchor="start" x="1338" y="-174.5" font-family="Helvetica,sans-Serif" font-size="10.00">sys/net/gnrc/transport</text>
<text text-anchor="start" x="1338" y="-163.5" font-family="Helvetica,sans-Serif" font-size="10.00">_layer/tcp/include/gnrc</text>
<text text-anchor="middle" x="1393.5" y="-152.5" font-family="Helvetica,sans-Serif" font-size="10.00">_tcp_common.h</text>
</a>
</g>
</g>
<!-- Node9&#45;&gt;Node11 -->
<g id="edge13" class="edge">
<title>Node9&#45;&gt;Node11</title>
<path fill="none" stroke="midnightblue" d="M1025.79,-235.03C1098.99,-225.81 1219.24,-209.01 1321.5,-187 1324.29,-186.4 1327.13,-185.75 1330,-185.08"/>
<polygon fill="midnightblue" stroke="midnightblue" points="1025.27,-231.57 1015.78,-236.28 1026.14,-238.52 1025.27,-231.57"/>
</g>
<!-- Node12 -->
<g id="node12" class="node">
<title>Node12</title>
<g id="a_node12"><a xlink:href="gnrc__tcp__fsm_8h.html" target="_top" xlink:title="TCP finite state maschine declarations.">
<polygon fill="none" stroke="black" points="750,-145.5 750,-186.5 877,-186.5 877,-145.5 750,-145.5"/>
<text text-anchor="start" x="758" y="-174.5" font-family="Helvetica,sans-Serif" font-size="10.00">sys/net/gnrc/transport</text>
<text text-anchor="start" x="758" y="-163.5" font-family="Helvetica,sans-Serif" font-size="10.00">_layer/tcp/include/gnrc</text>
<text text-anchor="middle" x="813.5" y="-152.5" font-family="Helvetica,sans-Serif" font-size="10.00">_tcp_fsm.h</text>
</a>
</g>
</g>
<!-- Node9&#45;&gt;Node12 -->
<g id="edge14" class="edge">
<title>Node9&#45;&gt;Node12</title>
<path fill="none" stroke="midnightblue" d="M922.62,-224.2C900.82,-212.77 873.03,-198.2 850.95,-186.63"/>
<polygon fill="midnightblue" stroke="midnightblue" points="921.08,-227.34 931.57,-228.88 924.33,-221.14 921.08,-227.34"/>
</g>
<!-- Node13 -->
<g id="node13" class="node">
<title>Node13</title>
<g id="a_node13"><a xlink:href="gnrc__tcp__option_8h.html" target="_top" xlink:title="TCP option handling declarations.">
<polygon fill="none" stroke="black" points="895,-145.5 895,-186.5 1022,-186.5 1022,-145.5 895,-145.5"/>
<text text-anchor="start" x="903" y="-174.5" font-family="Helvetica,sans-Serif" font-size="10.00">sys/net/gnrc/transport</text>
<text text-anchor="start" x="903" y="-163.5" font-family="Helvetica,sans-Serif" font-size="10.00">_layer/tcp/include/gnrc</text>
<text text-anchor="middle" x="958.5" y="-152.5" font-family="Helvetica,sans-Serif" font-size="10.00">_tcp_option.h</text>
</a>
</g>
</g>
<!-- Node9&#45;&gt;Node13 -->
<g id="edge15" class="edge">
<title>Node9&#45;&gt;Node13</title>
<path fill="none" stroke="midnightblue" d="M958.5,-218.66C958.5,-208.33 958.5,-196.44 958.5,-186.68"/>
<polygon fill="midnightblue" stroke="midnightblue" points="955,-218.7 958.5,-228.7 962,-218.71 955,-218.7"/>
</g>
<!-- Node14 -->
<g id="node14" class="node">
<title>Node14</title>
<g id="a_node14"><a xlink:href="gnrc__tcp__pkt_8h.html" target="_top" xlink:title="TCP packet handling declarations.">
<polygon fill="none" stroke="black" points="1040,-145.5 1040,-186.5 1167,-186.5 1167,-145.5 1040,-145.5"/>
<text text-anchor="start" x="1048" y="-174.5" font-family="Helvetica,sans-Serif" font-size="10.00">sys/net/gnrc/transport</text>
<text text-anchor="start" x="1048" y="-163.5" font-family="Helvetica,sans-Serif" font-size="10.00">_layer/tcp/include/gnrc</text>
<text text-anchor="middle" x="1103.5" y="-152.5" font-family="Helvetica,sans-Serif" font-size="10.00">_tcp_pkt.h</text>
</a>
</g>
</g>
<!-- Node9&#45;&gt;Node14 -->
<g id="edge16" class="edge">
<title>Node9&#45;&gt;Node14</title>
<path fill="none" stroke="midnightblue" d="M994.38,-224.2C1016.18,-212.77 1043.97,-198.2 1066.05,-186.63"/>
<polygon fill="midnightblue" stroke="midnightblue" points="992.67,-221.14 985.43,-228.88 995.92,-227.34 992.67,-221.14"/>
</g>
<!-- Node15 -->
<g id="node15" class="node">
<title>Node15</title>
<g id="a_node15"><a xlink:href="gnrc__tcp__rcvbuf_8h.html" target="_top" xlink:title="Functions for allocating and freeing the receive buffer.">
<polygon fill="none" stroke="black" points="1185,-145.5 1185,-186.5 1312,-186.5 1312,-145.5 1185,-145.5"/>
<text text-anchor="start" x="1193" y="-174.5" font-family="Helvetica,sans-Serif" font-size="10.00">sys/net/gnrc/transport</text>
<text text-anchor="start" x="1193" y="-163.5" font-family="Helvetica,sans-Serif" font-size="10.00">_layer/tcp/include/gnrc</text>
<text text-anchor="middle" x="1248.5" y="-152.5" font-family="Helvetica,sans-Serif" font-size="10.00">_tcp_rcvbuf.h</text>
</a>
</g>
</g>
<!-- Node9&#45;&gt;Node15 -->
<g id="edge17" class="edge">
<title>Node9&#45;&gt;Node15</title>
<path fill="none" stroke="midnightblue" d="M1024.43,-226.42C1067.71,-215.45 1125.54,-200.62 1176.5,-187 1179.26,-186.26 1182.07,-185.5 1184.92,-184.73"/>
<polygon fill="midnightblue" stroke="midnightblue" points="1023.42,-223.07 1014.58,-228.91 1025.14,-229.85 1023.42,-223.07"/>
</g>
<!-- Node16&#45;&gt;Node17 -->
<g id="edge20" class="edge">
<title>Node16&#45;&gt;Node17</title>
<path fill="none" stroke="midnightblue" d="M314.68,-219.33C290.26,-208.78 261.85,-196.51 238.67,-186.51"/>
<polygon fill="midnightblue" stroke="midnightblue" points="313.61,-222.68 324.18,-223.43 316.38,-216.25 313.61,-222.68"/>
</g>
<!-- Node18 -->
<g id="node18" class="node">
<title>Node18</title>
<g id="a_node18"><a xlink:href="__nib-6ln_8h.html" target="_top" xlink:title="Definitions related to 6Lo node (6LN) functionality of the NIB.">
<polygon fill="none" stroke="black" points="216.5,-73 216.5,-103 356.5,-103 356.5,-73 216.5,-73"/>
<text text-anchor="start" x="224.5" y="-91" font-family="Helvetica,sans-Serif" font-size="10.00">sys/net/gnrc/network</text>
<text text-anchor="middle" x="286.5" y="-80" font-family="Helvetica,sans-Serif" font-size="10.00">_layer/ipv6/nib/_nib&#45;6ln.h</text>
</a>
</g>
</g>
<!-- Node16&#45;&gt;Node18 -->
<g id="edge24" class="edge">
<title>Node16&#45;&gt;Node18</title>
<path fill="none" stroke="midnightblue" d="M328.25,-217.07C317.99,-208.69 308.06,-198.54 301.5,-187 286.36,-160.36 285.02,-123.39 285.61,-103.33"/>
<polygon fill="midnightblue" stroke="midnightblue" points="326.43,-220.09 336.49,-223.4 330.69,-214.54 326.43,-220.09"/>
</g>
<!-- Node19 -->
<g id="node19" class="node">
<title>Node19</title>
<g id="a_node19"><a xlink:href="__nib-6lr_8h.html" target="_top" xlink:title="Definitions related to 6Lo router (6LR) functionality of the NIB.">
<polygon fill="none" stroke="black" points="218,-0.5 218,-30.5 355,-30.5 355,-0.5 218,-0.5"/>
<text text-anchor="start" x="226" y="-18.5" font-family="Helvetica,sans-Serif" font-size="10.00">sys/net/gnrc/network</text>
<text text-anchor="middle" x="286.5" y="-7.5" font-family="Helvetica,sans-Serif" font-size="10.00">_layer/ipv6/nib/_nib&#45;6lr.h</text>
</a>
</g>
</g>
<!-- Node16&#45;&gt;Node19 -->
<g id="edge25" class="edge">
<title>Node16&#45;&gt;Node19</title>
<path fill="none" stroke="midnightblue" d="M413.39,-217.1C423.49,-208.85 432.9,-198.76 438.5,-187 446.53,-170.15 445.36,-162.36 438.5,-145 416.48,-89.24 354.49,-50.04 316.82,-30.56"/>
<polygon fill="midnightblue" stroke="midnightblue" points="411.05,-214.48 405.2,-223.32 415.28,-220.06 411.05,-214.48"/>
</g>
<!-- Node20 -->
<g id="node20" class="node">
<title>Node20</title>
<g id="a_node20"><a xlink:href="__nib-router_8h_source.html" target="_top" xlink:title=" ">
<polygon fill="none" stroke="black" points="310,-145.5 310,-186.5 429,-186.5 429,-145.5 310,-145.5"/>
<text text-anchor="start" x="318" y="-174.5" font-family="Helvetica,sans-Serif" font-size="10.00">sys/net/gnrc/network</text>
<text text-anchor="start" x="318" y="-163.5" font-family="Helvetica,sans-Serif" font-size="10.00">_layer/ipv6/nib/_nib</text>
<text text-anchor="middle" x="369.5" y="-152.5" font-family="Helvetica,sans-Serif" font-size="10.00">&#45;router.h</text>
</a>
</g>
</g>
<!-- Node16&#45;&gt;Node20 -->
<g id="edge26" class="edge">
<title>Node16&#45;&gt;Node20</title>
<path fill="none" stroke="midnightblue" d="M369.5,-213.3C369.5,-204.3 369.5,-194.65 369.5,-186.51"/>
<polygon fill="midnightblue" stroke="midnightblue" points="366,-213.43 369.5,-223.43 373,-213.43 366,-213.43"/>
</g>
<!-- Node17&#45;&gt;Node18 -->
<g id="edge21" class="edge">
<title>Node17&#45;&gt;Node18</title>
<path fill="none" stroke="midnightblue" d="M225.33,-138.99C239.98,-127.02 256.8,-113.27 269.09,-103.23"/>
<polygon fill="midnightblue" stroke="midnightblue" points="222.98,-136.39 217.45,-145.43 227.41,-141.81 222.98,-136.39"/>
</g>
<!-- Node17&#45;&gt;Node19 -->
<g id="edge23" class="edge">
<title>Node17&#45;&gt;Node19</title>
<path fill="none" stroke="midnightblue" d="M191.5,-135.18C191.52,-114.51 194.51,-87.18 207.5,-67 217.9,-50.85 235.49,-38.86 251.44,-30.62"/>
<polygon fill="midnightblue" stroke="midnightblue" points="188,-135.39 191.71,-145.31 195,-135.24 188,-135.39"/>
</g>
<!-- Node18&#45;&gt;Node19 -->
<g id="edge22" class="edge">
<title>Node18&#45;&gt;Node19</title>
<path fill="none" stroke="midnightblue" d="M286.5,-62.73C286.5,-52.07 286.5,-39.91 286.5,-30.75"/>
<polygon fill="midnightblue" stroke="midnightblue" points="283,-62.73 286.5,-72.73 290,-62.73 283,-62.73"/>
</g>
</g>
</svg>
