<?xml version="1.0" encoding="UTF-8" standalone="no"?>
<!DOCTYPE svg PUBLIC "-//W3C//DTD SVG 1.1//EN"
 "http://www.w3.org/Graphics/SVG/1.1/DTD/svg11.dtd">
<!-- Generated by graphviz version 2.43.0 (0)
 -->
<!-- Title: sys/include/net/icmp.h Pages: 1 -->
<svg width="141pt" height="196pt"
 viewBox="0.00 0.00 141.00 196.00" xmlns="http://www.w3.org/2000/svg" xmlns:xlink="http://www.w3.org/1999/xlink">
<g id="graph0" class="graph" transform="scale(1 1) rotate(0) translate(4 192)">
<title>sys/include/net/icmp.h</title>
<!-- Node1 -->
<g id="node1" class="node">
<title>Node1</title>
<g id="a_node1"><a xlink:title="ICMPv4 type and function definitions.">
<polygon fill="#bfbfbf" stroke="black" points="0,-168.5 0,-187.5 126,-187.5 126,-168.5 0,-168.5"/>
<text text-anchor="middle" x="63" y="-175.5" font-family="Helvetica,sans-Serif" font-size="10.00">sys/include/net/icmp.h</text>
</a>
</g>
</g>
<!-- Node2 -->
<g id="node2" class="node">
<title>Node2</title>
<g id="a_node2"><a xlink:href="byteorder_8h.html" target="_top" xlink:title="Functions to work with different byte orders.">
<polygon fill="none" stroke="black" points="26.5,-112.5 26.5,-131.5 99.5,-131.5 99.5,-112.5 26.5,-112.5"/>
<text text-anchor="middle" x="63" y="-119.5" font-family="Helvetica,sans-Serif" font-size="10.00">byteorder.h</text>
</a>
</g>
</g>
<!-- Node1&#45;&gt;Node2 -->
<g id="edge1" class="edge">
<title>Node1&#45;&gt;Node2</title>
<path fill="none" stroke="midnightblue" d="M63,-168.08C63,-161.01 63,-150.86 63,-141.99"/>
<polygon fill="midnightblue" stroke="midnightblue" points="66.5,-141.75 63,-131.75 59.5,-141.75 66.5,-141.75"/>
</g>
<!-- Node3 -->
<g id="node3" class="node">
<title>Node3</title>
<g id="a_node3"><a xlink:title=" ">
<polygon fill="none" stroke="#bfbfbf" points="36.5,-0.5 36.5,-19.5 89.5,-19.5 89.5,-0.5 36.5,-0.5"/>
<text text-anchor="middle" x="63" y="-7.5" font-family="Helvetica,sans-Serif" font-size="10.00">stdint.h</text>
</a>
</g>
</g>
<!-- Node2&#45;&gt;Node3 -->
<g id="edge2" class="edge">
<title>Node2&#45;&gt;Node3</title>
<path fill="none" stroke="midnightblue" d="M59.66,-112.2C56.45,-103.24 51.82,-88.88 50,-76 47.76,-60.15 51.79,-42.34 55.94,-29.38"/>
<polygon fill="midnightblue" stroke="midnightblue" points="59.3,-30.37 59.32,-19.78 52.69,-28.05 59.3,-30.37"/>
</g>
<!-- Node4 -->
<g id="node4" class="node">
<title>Node4</title>
<g id="a_node4"><a xlink:href="unaligned_8h.html" target="_top" xlink:title="Unaligned but safe memory access functions.">
<polygon fill="none" stroke="black" points="59,-56.5 59,-75.5 133,-75.5 133,-56.5 59,-56.5"/>
<text text-anchor="middle" x="96" y="-63.5" font-family="Helvetica,sans-Serif" font-size="10.00">unaligned.h</text>
</a>
</g>
</g>
<!-- Node2&#45;&gt;Node4 -->
<g id="edge3" class="edge">
<title>Node2&#45;&gt;Node4</title>
<path fill="none" stroke="midnightblue" d="M68.45,-112.08C73.01,-104.61 79.67,-93.72 85.29,-84.52"/>
<polygon fill="midnightblue" stroke="midnightblue" points="88.42,-86.11 90.65,-75.75 82.45,-82.46 88.42,-86.11"/>
</g>
<!-- Node4&#45;&gt;Node3 -->
<g id="edge4" class="edge">
<title>Node4&#45;&gt;Node3</title>
<path fill="none" stroke="midnightblue" d="M90.55,-56.08C85.99,-48.61 79.33,-37.72 73.71,-28.52"/>
<polygon fill="midnightblue" stroke="midnightblue" points="76.55,-26.46 68.35,-19.75 70.58,-30.11 76.55,-26.46"/>
</g>
</g>
</svg>
