<?xml version="1.0" encoding="UTF-8" standalone="no"?>
<!DOCTYPE svg PUBLIC "-//W3C//DTD SVG 1.1//EN"
 "http://www.w3.org/Graphics/SVG/1.1/DTD/svg11.dtd">
<!-- Generated by graphviz version 2.43.0 (0)
 -->
<!-- Title: drivers/include/ili9341.h Pages: 1 -->
<svg width="425pt" height="196pt"
 viewBox="0.00 0.00 425.06 196.00" xmlns="http://www.w3.org/2000/svg" xmlns:xlink="http://www.w3.org/1999/xlink">
<g id="graph0" class="graph" transform="scale(1 1) rotate(0) translate(4 192)">
<title>drivers/include/ili9341.h</title>
<!-- Node1 -->
<g id="node1" class="node">
<title>Node1</title>
<g id="a_node1"><a xlink:title="Driver for ili941 display.">
<polygon fill="#bfbfbf" stroke="black" points="187.06,-168.5 187.06,-187.5 321.06,-187.5 321.06,-168.5 187.06,-168.5"/>
<text text-anchor="middle" x="254.06" y="-175.5" font-family="Helvetica,sans-Serif" font-size="10.00">drivers/include/ili9341.h</text>
</a>
</g>
</g>
<!-- Node2 -->
<g id="node2" class="node">
<title>Node2</title>
<g id="a_node2"><a xlink:href="spi_8h.html" target="_top" xlink:title="Low&#45;level SPI peripheral driver interface definition.">
<polygon fill="none" stroke="black" points="185.06,-112.5 185.06,-131.5 259.06,-131.5 259.06,-112.5 185.06,-112.5"/>
<text text-anchor="middle" x="222.06" y="-119.5" font-family="Helvetica,sans-Serif" font-size="10.00">periph/spi.h</text>
</a>
</g>
</g>
<!-- Node1&#45;&gt;Node2 -->
<g id="edge1" class="edge">
<title>Node1&#45;&gt;Node2</title>
<path fill="none" stroke="midnightblue" d="M248.77,-168.08C244.34,-160.61 237.89,-149.72 232.44,-140.52"/>
<polygon fill="midnightblue" stroke="midnightblue" points="235.35,-138.57 227.24,-131.75 229.33,-142.14 235.35,-138.57"/>
</g>
<!-- Node9 -->
<g id="node9" class="node">
<title>Node9</title>
<g id="a_node9"><a xlink:href="gpio_8h.html" target="_top" xlink:title="Low&#45;level GPIO peripheral driver interface definitions.">
<polygon fill="none" stroke="black" points="278.06,-56.5 278.06,-75.5 358.06,-75.5 358.06,-56.5 278.06,-56.5"/>
<text text-anchor="middle" x="318.06" y="-63.5" font-family="Helvetica,sans-Serif" font-size="10.00">periph/gpio.h</text>
</a>
</g>
</g>
<!-- Node1&#45;&gt;Node9 -->
<g id="edge12" class="edge">
<title>Node1&#45;&gt;Node9</title>
<path fill="none" stroke="midnightblue" d="M259.08,-168.37C269.59,-150.3 294.1,-108.18 307.99,-84.31"/>
<polygon fill="midnightblue" stroke="midnightblue" points="311.05,-86 313.06,-75.59 305,-82.47 311.05,-86"/>
</g>
<!-- Node3 -->
<g id="node3" class="node">
<title>Node3</title>
<g id="a_node3"><a xlink:title=" ">
<polygon fill="none" stroke="#bfbfbf" points="14.06,-56.5 14.06,-75.5 76.06,-75.5 76.06,-56.5 14.06,-56.5"/>
<text text-anchor="middle" x="45.06" y="-63.5" font-family="Helvetica,sans-Serif" font-size="10.00">stdbool.h</text>
</a>
</g>
</g>
<!-- Node2&#45;&gt;Node3 -->
<g id="edge2" class="edge">
<title>Node2&#45;&gt;Node3</title>
<path fill="none" stroke="midnightblue" d="M194.01,-112.44C163.97,-103.28 116.14,-88.69 82.81,-78.52"/>
<polygon fill="midnightblue" stroke="midnightblue" points="83.56,-75.09 72.97,-75.52 81.51,-81.78 83.56,-75.09"/>
</g>
<!-- Node4 -->
<g id="node4" class="node">
<title>Node4</title>
<g id="a_node4"><a xlink:title=" ">
<polygon fill="none" stroke="#bfbfbf" points="94.06,-56.5 94.06,-75.5 150.06,-75.5 150.06,-56.5 94.06,-56.5"/>
<text text-anchor="middle" x="122.06" y="-63.5" font-family="Helvetica,sans-Serif" font-size="10.00">stddef.h</text>
</a>
</g>
</g>
<!-- Node2&#45;&gt;Node4 -->
<g id="edge3" class="edge">
<title>Node2&#45;&gt;Node4</title>
<path fill="none" stroke="midnightblue" d="M205.99,-112.32C190.1,-103.74 165.55,-90.49 147.1,-80.52"/>
<polygon fill="midnightblue" stroke="midnightblue" points="148.54,-77.33 138.08,-75.65 145.22,-83.49 148.54,-77.33"/>
</g>
<!-- Node5 -->
<g id="node5" class="node">
<title>Node5</title>
<g id="a_node5"><a xlink:title=" ">
<polygon fill="none" stroke="#bfbfbf" points="168.56,-56.5 168.56,-75.5 221.56,-75.5 221.56,-56.5 168.56,-56.5"/>
<text text-anchor="middle" x="195.06" y="-63.5" font-family="Helvetica,sans-Serif" font-size="10.00">stdint.h</text>
</a>
</g>
</g>
<!-- Node2&#45;&gt;Node5 -->
<g id="edge4" class="edge">
<title>Node2&#45;&gt;Node5</title>
<path fill="none" stroke="midnightblue" d="M217.6,-112.08C213.9,-104.69 208.53,-93.95 203.96,-84.81"/>
<polygon fill="midnightblue" stroke="midnightblue" points="207.03,-83.13 199.43,-75.75 200.77,-86.26 207.03,-83.13"/>
</g>
<!-- Node6 -->
<g id="node6" class="node">
<title>Node6</title>
<g id="a_node6"><a xlink:title=" ">
<polygon fill="none" stroke="#bfbfbf" points="58.56,-0.5 58.56,-19.5 111.56,-19.5 111.56,-0.5 58.56,-0.5"/>
<text text-anchor="middle" x="85.06" y="-7.5" font-family="Helvetica,sans-Serif" font-size="10.00">limits.h</text>
</a>
</g>
</g>
<!-- Node2&#45;&gt;Node6 -->
<g id="edge5" class="edge">
<title>Node2&#45;&gt;Node6</title>
<path fill="none" stroke="midnightblue" d="M184.6,-118.77C128.62,-114.57 27.28,-103.3 5.06,-76 -12.45,-54.49 20.56,-35.2 49.34,-23.33"/>
<polygon fill="midnightblue" stroke="midnightblue" points="50.82,-26.5 58.85,-19.59 48.27,-19.99 50.82,-26.5"/>
</g>
<!-- Node7 -->
<g id="node7" class="node">
<title>Node7</title>
<g id="a_node7"><a xlink:title=" ">
<polygon fill="none" stroke="#bfbfbf" points="219.56,-0.5 219.56,-19.5 298.56,-19.5 298.56,-0.5 219.56,-0.5"/>
<text text-anchor="middle" x="259.06" y="-7.5" font-family="Helvetica,sans-Serif" font-size="10.00">periph_cpu.h</text>
</a>
</g>
</g>
<!-- Node2&#45;&gt;Node7 -->
<g id="edge6" class="edge">
<title>Node2&#45;&gt;Node7</title>
<path fill="none" stroke="midnightblue" d="M224.96,-112.37C230.96,-94.54 244.83,-53.3 252.91,-29.27"/>
<polygon fill="midnightblue" stroke="midnightblue" points="256.29,-30.19 256.17,-19.59 249.66,-27.95 256.29,-30.19"/>
</g>
<!-- Node8 -->
<g id="node8" class="node">
<title>Node8</title>
<g id="a_node8"><a xlink:title=" ">
<polygon fill="none" stroke="#bfbfbf" points="335.06,-0.5 335.06,-19.5 417.06,-19.5 417.06,-0.5 335.06,-0.5"/>
<text text-anchor="middle" x="376.06" y="-7.5" font-family="Helvetica,sans-Serif" font-size="10.00">periph_conf.h</text>
</a>
</g>
</g>
<!-- Node2&#45;&gt;Node8 -->
<g id="edge7" class="edge">
<title>Node2&#45;&gt;Node8</title>
<path fill="none" stroke="midnightblue" d="M259.29,-120.09C292.73,-117.14 340.53,-107.25 367.06,-76 377.76,-63.39 379.22,-44.18 378.47,-29.9"/>
<polygon fill="midnightblue" stroke="midnightblue" points="381.94,-29.38 377.54,-19.74 374.97,-30.02 381.94,-29.38"/>
</g>
<!-- Node2&#45;&gt;Node9 -->
<g id="edge8" class="edge">
<title>Node2&#45;&gt;Node9</title>
<path fill="none" stroke="midnightblue" d="M237.48,-112.32C252.59,-103.82 275.87,-90.73 293.53,-80.8"/>
<polygon fill="midnightblue" stroke="midnightblue" points="295.67,-83.61 302.67,-75.65 292.24,-77.51 295.67,-83.61"/>
</g>
<!-- Node9&#45;&gt;Node6 -->
<g id="edge9" class="edge">
<title>Node9&#45;&gt;Node6</title>
<path fill="none" stroke="midnightblue" d="M281.14,-56.44C237.42,-46.31 165.06,-29.54 121.54,-19.46"/>
<polygon fill="midnightblue" stroke="midnightblue" points="122.19,-16.01 111.66,-17.16 120.61,-22.83 122.19,-16.01"/>
</g>
<!-- Node9&#45;&gt;Node7 -->
<g id="edge10" class="edge">
<title>Node9&#45;&gt;Node7</title>
<path fill="none" stroke="midnightblue" d="M308.58,-56.32C299.85,-48.34 286.71,-36.31 276.16,-26.65"/>
<polygon fill="midnightblue" stroke="midnightblue" points="278.45,-24 268.71,-19.83 273.72,-29.17 278.45,-24"/>
</g>
<!-- Node9&#45;&gt;Node8 -->
<g id="edge11" class="edge">
<title>Node9&#45;&gt;Node8</title>
<path fill="none" stroke="midnightblue" d="M327.37,-56.32C335.95,-48.34 348.87,-36.31 359.24,-26.65"/>
<polygon fill="midnightblue" stroke="midnightblue" points="361.63,-29.21 366.57,-19.83 356.86,-24.09 361.63,-29.21"/>
</g>
</g>
</svg>
