<?xml version="1.0" encoding="UTF-8" standalone="no"?>
<!DOCTYPE svg PUBLIC "-//W3C//DTD SVG 1.1//EN"
 "http://www.w3.org/Graphics/SVG/1.1/DTD/svg11.dtd">
<!-- Generated by graphviz version 2.40.1 (20161225.0304)
 -->
<!-- Title: sys/include/xtimer/implementation.h Pages: 1 -->
<svg width="494pt" height="207pt"
 viewBox="0.00 0.00 493.50 207.00" xmlns="http://www.w3.org/2000/svg" xmlns:xlink="http://www.w3.org/1999/xlink">
<g id="graph0" class="graph" transform="scale(1 1) rotate(0) translate(4 203)">
<title>sys/include/xtimer/implementation.h</title>
<!-- Node0 -->
<g id="node1" class="node">
<title>Node0</title>
<polygon fill="#bfbfbf" stroke="#000000" points="224,-168.5 224,-198.5 320,-198.5 320,-168.5 224,-168.5"/>
<text text-anchor="start" x="232" y="-186.5" font-family="Helvetica,sans-Serif" font-size="10.00" fill="#000000">sys/include/xtimer</text>
<text text-anchor="middle" x="272" y="-175.5" font-family="Helvetica,sans-Serif" font-size="10.00" fill="#000000">/implementation.h</text>
</g>
<!-- Node1 -->
<g id="node2" class="node">
<title>Node1</title>
<g id="a_node2"><a xlink:href="drivers_2include_2periph_2timer_8h.html" target="_top" xlink:title="Low&#45;level timer peripheral driver interface definitions. ">
<polygon fill="none" stroke="#000000" points="132,-112.5 132,-131.5 208,-131.5 208,-112.5 132,-112.5"/>
<text text-anchor="middle" x="170" y="-119.5" font-family="Helvetica,sans-Serif" font-size="10.00" fill="#000000">periph/timer.h</text>
</a>
</g>
</g>
<!-- Node0&#45;&gt;Node1 -->
<g id="edge1" class="edge">
<title>Node0&#45;&gt;Node1</title>
<path fill="none" stroke="#191970" d="M247.048,-168.4554C231.0741,-158.8241 210.4398,-146.3828 194.5457,-136.7996"/>
<polygon fill="#191970" stroke="#191970" points="196.1774,-133.6965 185.8064,-131.5303 192.563,-139.6912 196.1774,-133.6965"/>
</g>
<!-- Node7 -->
<g id="node8" class="node">
<title>Node7</title>
<g id="a_node8"><a xlink:href="irq_8h.html" target="_top" xlink:title="IRQ driver interface. ">
<polygon fill="none" stroke="#000000" points="356.5,-112.5 356.5,-131.5 391.5,-131.5 391.5,-112.5 356.5,-112.5"/>
<text text-anchor="middle" x="374" y="-119.5" font-family="Helvetica,sans-Serif" font-size="10.00" fill="#000000">irq.h</text>
</a>
</g>
</g>
<!-- Node0&#45;&gt;Node7 -->
<g id="edge7" class="edge">
<title>Node0&#45;&gt;Node7</title>
<path fill="none" stroke="#191970" d="M296.952,-168.4554C312.9259,-158.8241 333.5602,-146.3828 349.4543,-136.7996"/>
<polygon fill="#191970" stroke="#191970" points="351.437,-139.6912 358.1936,-131.5303 347.8226,-133.6965 351.437,-139.6912"/>
</g>
<!-- Node2 -->
<g id="node3" class="node">
<title>Node2</title>
<polygon fill="none" stroke="#bfbfbf" points="0,-56.5 0,-75.5 48,-75.5 48,-56.5 0,-56.5"/>
<text text-anchor="middle" x="24" y="-63.5" font-family="Helvetica,sans-Serif" font-size="10.00" fill="#000000">limits.h</text>
</g>
<!-- Node1&#45;&gt;Node2 -->
<g id="edge2" class="edge">
<title>Node1&#45;&gt;Node2</title>
<path fill="none" stroke="#191970" d="M144.9017,-112.3733C120.8999,-103.1671 84.5287,-89.2165 57.9476,-79.021"/>
<polygon fill="#191970" stroke="#191970" points="58.8758,-75.6285 48.2856,-75.315 56.369,-82.1642 58.8758,-75.6285"/>
</g>
<!-- Node3 -->
<g id="node4" class="node">
<title>Node3</title>
<polygon fill="none" stroke="#bfbfbf" points="66.5,-56.5 66.5,-75.5 115.5,-75.5 115.5,-56.5 66.5,-56.5"/>
<text text-anchor="middle" x="91" y="-63.5" font-family="Helvetica,sans-Serif" font-size="10.00" fill="#000000">stdint.h</text>
</g>
<!-- Node1&#45;&gt;Node3 -->
<g id="edge3" class="edge">
<title>Node1&#45;&gt;Node3</title>
<path fill="none" stroke="#191970" d="M156.2393,-112.2455C144.3448,-103.814 126.935,-91.4729 113.0915,-81.6598"/>
<polygon fill="#191970" stroke="#191970" points="114.7854,-78.5704 104.6031,-75.6427 110.7372,-84.2811 114.7854,-78.5704"/>
</g>
<!-- Node4 -->
<g id="node5" class="node">
<title>Node4</title>
<polygon fill="none" stroke="#bfbfbf" points="134,-56.5 134,-75.5 206,-75.5 206,-56.5 134,-56.5"/>
<text text-anchor="middle" x="170" y="-63.5" font-family="Helvetica,sans-Serif" font-size="10.00" fill="#000000">periph_cpu.h</text>
</g>
<!-- Node1&#45;&gt;Node4 -->
<g id="edge4" class="edge">
<title>Node1&#45;&gt;Node4</title>
<path fill="none" stroke="#191970" d="M170,-112.2455C170,-104.9382 170,-94.6944 170,-85.7046"/>
<polygon fill="#191970" stroke="#191970" points="173.5001,-85.6426 170,-75.6427 166.5001,-85.6427 173.5001,-85.6426"/>
</g>
<!-- Node5 -->
<g id="node6" class="node">
<title>Node5</title>
<g id="a_node6"><a xlink:href="dev__enums_8h.html" target="_top" xlink:title="Device enumerations for backward compatibility with existing peripheral driver implementations. ">
<polygon fill="none" stroke="#000000" points="224,-56.5 224,-75.5 328,-75.5 328,-56.5 224,-56.5"/>
<text text-anchor="middle" x="276" y="-63.5" font-family="Helvetica,sans-Serif" font-size="10.00" fill="#000000">periph/dev_enums.h</text>
</a>
</g>
</g>
<!-- Node1&#45;&gt;Node5 -->
<g id="edge5" class="edge">
<title>Node1&#45;&gt;Node5</title>
<path fill="none" stroke="#191970" d="M188.4638,-112.2455C205.1074,-103.4527 229.7993,-90.4079 248.7192,-80.4125"/>
<polygon fill="#191970" stroke="#191970" points="250.5408,-83.4086 257.7478,-75.6427 247.2709,-77.2193 250.5408,-83.4086"/>
</g>
<!-- Node6 -->
<g id="node7" class="node">
<title>Node6</title>
<polygon fill="none" stroke="#bfbfbf" points="238.5,-.5 238.5,-19.5 313.5,-19.5 313.5,-.5 238.5,-.5"/>
<text text-anchor="middle" x="276" y="-7.5" font-family="Helvetica,sans-Serif" font-size="10.00" fill="#000000">periph_conf.h</text>
</g>
<!-- Node5&#45;&gt;Node6 -->
<g id="edge6" class="edge">
<title>Node5&#45;&gt;Node6</title>
<path fill="none" stroke="#191970" d="M276,-56.2455C276,-48.9382 276,-38.6944 276,-29.7046"/>
<polygon fill="#191970" stroke="#191970" points="279.5001,-29.6426 276,-19.6427 272.5001,-29.6427 279.5001,-29.6426"/>
</g>
<!-- Node8 -->
<g id="node9" class="node">
<title>Node8</title>
<polygon fill="none" stroke="#bfbfbf" points="346,-56.5 346,-75.5 402,-75.5 402,-56.5 346,-56.5"/>
<text text-anchor="middle" x="374" y="-63.5" font-family="Helvetica,sans-Serif" font-size="10.00" fill="#000000">stdbool.h</text>
</g>
<!-- Node7&#45;&gt;Node8 -->
<g id="edge8" class="edge">
<title>Node7&#45;&gt;Node8</title>
<path fill="none" stroke="#191970" d="M374,-112.2455C374,-104.9382 374,-94.6944 374,-85.7046"/>
<polygon fill="#191970" stroke="#191970" points="377.5001,-85.6426 374,-75.6427 370.5001,-85.6427 377.5001,-85.6426"/>
</g>
<!-- Node9 -->
<g id="node10" class="node">
<title>Node9</title>
<polygon fill="none" stroke="#bfbfbf" points="420.5,-56.5 420.5,-75.5 485.5,-75.5 485.5,-56.5 420.5,-56.5"/>
<text text-anchor="middle" x="453" y="-63.5" font-family="Helvetica,sans-Serif" font-size="10.00" fill="#000000">cpu_conf.h</text>
</g>
<!-- Node7&#45;&gt;Node9 -->
<g id="edge9" class="edge">
<title>Node7&#45;&gt;Node9</title>
<path fill="none" stroke="#191970" d="M387.7607,-112.2455C399.6552,-103.814 417.065,-91.4729 430.9085,-81.6598"/>
<polygon fill="#191970" stroke="#191970" points="433.2628,-84.2811 439.3969,-75.6427 429.2146,-78.5704 433.2628,-84.2811"/>
</g>
</g>
</svg>
