<?xml version="1.0" encoding="UTF-8" standalone="no"?>
<!DOCTYPE svg PUBLIC "-//W3C//DTD SVG 1.1//EN"
 "http://www.w3.org/Graphics/SVG/1.1/DTD/svg11.dtd">
<!-- Generated by graphviz version 2.43.0 (0)
 -->
<!-- Title: sys/include/xtimer/implementation.h Pages: 1 -->
<svg width="496pt" height="151pt"
 viewBox="0.00 0.00 495.50 151.00" xmlns="http://www.w3.org/2000/svg" xmlns:xlink="http://www.w3.org/1999/xlink">
<g id="graph0" class="graph" transform="scale(1 1) rotate(0) translate(4 147)">
<title>sys/include/xtimer/implementation.h</title>
<!-- Node1 -->
<g id="node1" class="node">
<title>Node1</title>
<g id="a_node1"><a xlink:title="xtimer implementation">
<polygon fill="#bfbfbf" stroke="black" points="222,-112.5 222,-142.5 329,-142.5 329,-112.5 222,-112.5"/>
<text text-anchor="start" x="230" y="-130.5" font-family="Helvetica,sans-Serif" font-size="10.00">sys/include/xtimer</text>
<text text-anchor="middle" x="275.5" y="-119.5" font-family="Helvetica,sans-Serif" font-size="10.00">/implementation.h</text>
</a>
</g>
</g>
<!-- Node2 -->
<g id="node2" class="node">
<title>Node2</title>
<g id="a_node2"><a xlink:href="drivers_2include_2periph_2timer_8h.html" target="_top" xlink:title="Low&#45;level timer peripheral driver interface definitions.">
<polygon fill="none" stroke="black" points="138.5,-56.5 138.5,-75.5 224.5,-75.5 224.5,-56.5 138.5,-56.5"/>
<text text-anchor="middle" x="181.5" y="-63.5" font-family="Helvetica,sans-Serif" font-size="10.00">periph/timer.h</text>
</a>
</g>
</g>
<!-- Node1&#45;&gt;Node2 -->
<g id="edge1" class="edge">
<title>Node1&#45;&gt;Node2</title>
<path fill="none" stroke="midnightblue" d="M253.22,-112.4C238.3,-102.95 218.72,-90.56 203.79,-81.11"/>
<polygon fill="midnightblue" stroke="midnightblue" points="205.5,-78.05 195.18,-75.66 201.76,-83.96 205.5,-78.05"/>
</g>
<!-- Node7 -->
<g id="node7" class="node">
<title>Node7</title>
<g id="a_node7"><a xlink:href="irq_8h.html" target="_top" xlink:title="IRQ driver interface.">
<polygon fill="none" stroke="black" points="351.5,-56.5 351.5,-75.5 389.5,-75.5 389.5,-56.5 351.5,-56.5"/>
<text text-anchor="middle" x="370.5" y="-63.5" font-family="Helvetica,sans-Serif" font-size="10.00">irq.h</text>
</a>
</g>
</g>
<!-- Node1&#45;&gt;Node7 -->
<g id="edge6" class="edge">
<title>Node1&#45;&gt;Node7</title>
<path fill="none" stroke="midnightblue" d="M298.01,-112.4C313.1,-102.95 332.89,-90.56 347.97,-81.11"/>
<polygon fill="midnightblue" stroke="midnightblue" points="350.06,-83.93 356.68,-75.66 346.34,-78 350.06,-83.93"/>
</g>
<!-- Node3 -->
<g id="node3" class="node">
<title>Node3</title>
<g id="a_node3"><a xlink:title=" ">
<polygon fill="none" stroke="#bfbfbf" points="0,-0.5 0,-19.5 53,-19.5 53,-0.5 0,-0.5"/>
<text text-anchor="middle" x="26.5" y="-7.5" font-family="Helvetica,sans-Serif" font-size="10.00">limits.h</text>
</a>
</g>
</g>
<!-- Node2&#45;&gt;Node3 -->
<g id="edge2" class="edge">
<title>Node2&#45;&gt;Node3</title>
<path fill="none" stroke="midnightblue" d="M156.94,-56.44C130.98,-47.4 89.83,-33.06 60.7,-22.92"/>
<polygon fill="midnightblue" stroke="midnightblue" points="61.54,-19.5 50.95,-19.52 59.24,-26.11 61.54,-19.5"/>
</g>
<!-- Node4 -->
<g id="node4" class="node">
<title>Node4</title>
<g id="a_node4"><a xlink:title=" ">
<polygon fill="none" stroke="#bfbfbf" points="71,-0.5 71,-19.5 124,-19.5 124,-0.5 71,-0.5"/>
<text text-anchor="middle" x="97.5" y="-7.5" font-family="Helvetica,sans-Serif" font-size="10.00">stdint.h</text>
</a>
</g>
</g>
<!-- Node2&#45;&gt;Node4 -->
<g id="edge3" class="edge">
<title>Node2&#45;&gt;Node4</title>
<path fill="none" stroke="midnightblue" d="M168,-56.32C154.9,-47.9 134.79,-34.97 119.39,-25.07"/>
<polygon fill="midnightblue" stroke="midnightblue" points="121.27,-22.12 110.96,-19.65 117.48,-28.01 121.27,-22.12"/>
</g>
<!-- Node5 -->
<g id="node5" class="node">
<title>Node5</title>
<g id="a_node5"><a xlink:title=" ">
<polygon fill="none" stroke="#bfbfbf" points="142,-0.5 142,-19.5 221,-19.5 221,-0.5 142,-0.5"/>
<text text-anchor="middle" x="181.5" y="-7.5" font-family="Helvetica,sans-Serif" font-size="10.00">periph_cpu.h</text>
</a>
</g>
</g>
<!-- Node2&#45;&gt;Node5 -->
<g id="edge4" class="edge">
<title>Node2&#45;&gt;Node5</title>
<path fill="none" stroke="midnightblue" d="M181.5,-56.08C181.5,-49.01 181.5,-38.86 181.5,-29.99"/>
<polygon fill="midnightblue" stroke="midnightblue" points="185,-29.75 181.5,-19.75 178,-29.75 185,-29.75"/>
</g>
<!-- Node6 -->
<g id="node6" class="node">
<title>Node6</title>
<g id="a_node6"><a xlink:title=" ">
<polygon fill="none" stroke="#bfbfbf" points="239.5,-0.5 239.5,-19.5 321.5,-19.5 321.5,-0.5 239.5,-0.5"/>
<text text-anchor="middle" x="280.5" y="-7.5" font-family="Helvetica,sans-Serif" font-size="10.00">periph_conf.h</text>
</a>
</g>
</g>
<!-- Node2&#45;&gt;Node6 -->
<g id="edge5" class="edge">
<title>Node2&#45;&gt;Node6</title>
<path fill="none" stroke="midnightblue" d="M197.41,-56.32C213.14,-47.74 237.44,-34.49 255.71,-24.52"/>
<polygon fill="midnightblue" stroke="midnightblue" points="257.53,-27.52 264.63,-19.65 254.18,-21.37 257.53,-27.52"/>
</g>
<!-- Node8 -->
<g id="node8" class="node">
<title>Node8</title>
<g id="a_node8"><a xlink:title=" ">
<polygon fill="none" stroke="#bfbfbf" points="339.5,-0.5 339.5,-19.5 401.5,-19.5 401.5,-0.5 339.5,-0.5"/>
<text text-anchor="middle" x="370.5" y="-7.5" font-family="Helvetica,sans-Serif" font-size="10.00">stdbool.h</text>
</a>
</g>
</g>
<!-- Node7&#45;&gt;Node8 -->
<g id="edge7" class="edge">
<title>Node7&#45;&gt;Node8</title>
<path fill="none" stroke="midnightblue" d="M370.5,-56.08C370.5,-49.01 370.5,-38.86 370.5,-29.99"/>
<polygon fill="midnightblue" stroke="midnightblue" points="374,-29.75 370.5,-19.75 367,-29.75 374,-29.75"/>
</g>
<!-- Node9 -->
<g id="node9" class="node">
<title>Node9</title>
<g id="a_node9"><a xlink:title=" ">
<polygon fill="none" stroke="#bfbfbf" points="419.5,-0.5 419.5,-19.5 487.5,-19.5 487.5,-0.5 419.5,-0.5"/>
<text text-anchor="middle" x="453.5" y="-7.5" font-family="Helvetica,sans-Serif" font-size="10.00">cpu_conf.h</text>
</a>
</g>
</g>
<!-- Node7&#45;&gt;Node9 -->
<g id="edge8" class="edge">
<title>Node7&#45;&gt;Node9</title>
<path fill="none" stroke="midnightblue" d="M383.84,-56.32C396.66,-47.98 416.28,-35.21 431.44,-25.35"/>
<polygon fill="midnightblue" stroke="midnightblue" points="433.72,-28.04 440.2,-19.65 429.91,-22.17 433.72,-28.04"/>
</g>
</g>
</svg>
