<?xml version="1.0" encoding="UTF-8" standalone="no"?>
<!DOCTYPE svg PUBLIC "-//W3C//DTD SVG 1.1//EN"
 "http://www.w3.org/Graphics/SVG/1.1/DTD/svg11.dtd">
<!-- Generated by graphviz version 2.40.1 (20161225.0304)
 -->
<!-- Title: sys/include/can/pkt.h Pages: 1 -->
<svg width="254pt" height="84pt"
 viewBox="0.00 0.00 253.50 84.00" xmlns="http://www.w3.org/2000/svg" xmlns:xlink="http://www.w3.org/1999/xlink">
<g id="graph0" class="graph" transform="scale(1 1) rotate(0) translate(4 80)">
<title>sys/include/can/pkt.h</title>
<!-- Node17 -->
<g id="node1" class="node">
<title>Node17</title>
<polygon fill="#bfbfbf" stroke="#000000" points="64,-56.5 64,-75.5 174,-75.5 174,-56.5 64,-56.5"/>
<text text-anchor="middle" x="119" y="-63.5" font-family="Helvetica,sans-Serif" font-size="10.00" fill="#000000">sys/include/can/pkt.h</text>
</g>
<!-- Node18 -->
<g id="node2" class="node">
<title>Node18</title>
<g id="a_node2"><a xlink:href="dll_8h.html" target="_top" xlink:title="Definitions of low&#45;level CAN DLL interface. ">
<polygon fill="none" stroke="#000000" points="0,-.5 0,-19.5 106,-19.5 106,-.5 0,-.5"/>
<text text-anchor="middle" x="53" y="-7.5" font-family="Helvetica,sans-Serif" font-size="10.00" fill="#000000">sys/include/can/dll.h</text>
</a>
</g>
</g>
<!-- Node17&#45;&gt;Node18 -->
<g id="edge1" class="edge">
<title>Node17&#45;&gt;Node18</title>
<path fill="none" stroke="#191970" d="M99.7245,-49.645C88.2462,-39.9058 74.0723,-27.8795 64.3646,-19.6427"/>
<polygon fill="#191970" stroke="#191970" points="97.6141,-52.4445 107.5037,-56.2455 102.143,-47.1069 97.6141,-52.4445"/>
</g>
<!-- Node19 -->
<g id="node3" class="node">
<title>Node19</title>
<g id="a_node3"><a xlink:href="router_8h.html" target="_top" xlink:title="Functions for routing RX can frames. ">
<polygon fill="none" stroke="#000000" points="124.5,-.5 124.5,-19.5 245.5,-19.5 245.5,-.5 124.5,-.5"/>
<text text-anchor="middle" x="185" y="-7.5" font-family="Helvetica,sans-Serif" font-size="10.00" fill="#000000">sys/include/can/router.h</text>
</a>
</g>
</g>
<!-- Node17&#45;&gt;Node19 -->
<g id="edge2" class="edge">
<title>Node17&#45;&gt;Node19</title>
<path fill="none" stroke="#191970" d="M138.2755,-49.645C149.7538,-39.9058 163.9277,-27.8795 173.6354,-19.6427"/>
<polygon fill="#191970" stroke="#191970" points="135.857,-47.1069 130.4963,-56.2455 140.3859,-52.4445 135.857,-47.1069"/>
</g>
</g>
</svg>
