<?xml version="1.0" encoding="UTF-8" standalone="no"?>
<!DOCTYPE svg PUBLIC "-//W3C//DTD SVG 1.1//EN"
 "http://www.w3.org/Graphics/SVG/1.1/DTD/svg11.dtd">
<!-- Generated by graphviz version 2.40.1 (20161225.0304)
 -->
<!-- Title: Graphical Class Hierarchy Pages: 1 -->
<svg width="181pt" height="66pt"
 viewBox="0.00 0.00 181.00 66.00" xmlns="http://www.w3.org/2000/svg" xmlns:xlink="http://www.w3.org/1999/xlink">
<g id="graph0" class="graph" transform="scale(1 1) rotate(0) translate(4 62)">
<title>Graphical Class Hierarchy</title>
<!-- Node0 -->
<g id="node1" class="node">
<title>Node0</title>
<g id="a_node1"><a xlink:href="structuhcp__hdr__t.html" target="_top" xlink:title="UHCP packet header struct. ">
<polygon fill="none" stroke="#000000" points="0,-19.5 0,-38.5 65,-38.5 65,-19.5 0,-19.5"/>
<text text-anchor="middle" x="32.5" y="-26.5" font-family="Helvetica,sans-Serif" font-size="10.00" fill="#000000">uhcp_hdr_t</text>
</a>
</g>
</g>
<!-- Node1 -->
<g id="node2" class="node">
<title>Node1</title>
<g id="a_node2"><a xlink:href="structuhcp__push__t.html" target="_top" xlink:title="struct for push packets ">
<polygon fill="none" stroke="#000000" points="101,-38.5 101,-57.5 173,-57.5 173,-38.5 101,-38.5"/>
<text text-anchor="middle" x="137" y="-45.5" font-family="Helvetica,sans-Serif" font-size="10.00" fill="#000000">uhcp_push_t</text>
</a>
</g>
</g>
<!-- Node0&#45;&gt;Node1 -->
<g id="edge1" class="edge">
<title>Node0&#45;&gt;Node1</title>
<path fill="none" stroke="#191970" d="M75.3271,-36.7867C83.7537,-38.3189 92.5186,-39.9125 100.7053,-41.401"/>
<polygon fill="#191970" stroke="#191970" points="75.7426,-33.305 65.2777,-34.9596 74.4903,-40.1921 75.7426,-33.305"/>
</g>
<!-- Node2 -->
<g id="node3" class="node">
<title>Node2</title>
<g id="a_node3"><a xlink:href="structuhcp__req__t.html" target="_top" xlink:title="struct for request packets ">
<polygon fill="none" stroke="#000000" points="104.5,-.5 104.5,-19.5 169.5,-19.5 169.5,-.5 104.5,-.5"/>
<text text-anchor="middle" x="137" y="-7.5" font-family="Helvetica,sans-Serif" font-size="10.00" fill="#000000">uhcp_req_t</text>
</a>
</g>
</g>
<!-- Node0&#45;&gt;Node2 -->
<g id="edge2" class="edge">
<title>Node0&#45;&gt;Node2</title>
<path fill="none" stroke="#191970" d="M75.1912,-21.238C84.9198,-19.4691 95.1062,-17.617 104.3386,-15.9384"/>
<polygon fill="#191970" stroke="#191970" points="74.4903,-17.8079 65.2777,-23.0404 75.7426,-24.695 74.4903,-17.8079"/>
</g>
</g>
</svg>
