<?xml version="1.0" encoding="UTF-8" standalone="no"?>
<!DOCTYPE svg PUBLIC "-//W3C//DTD SVG 1.1//EN"
 "http://www.w3.org/Graphics/SVG/1.1/DTD/svg11.dtd">
<!-- Generated by graphviz version 2.40.1 (20161225.0304)
 -->
<!-- Title: sys/include/net/gnrc/sixlowpan/iphc.h Pages: 1 -->
<svg width="811pt" height="263pt"
 viewBox="0.00 0.00 810.50 263.00" xmlns="http://www.w3.org/2000/svg" xmlns:xlink="http://www.w3.org/1999/xlink">
<g id="graph0" class="graph" transform="scale(1 1) rotate(0) translate(4 259)">
<title>sys/include/net/gnrc/sixlowpan/iphc.h</title>
<!-- Node0 -->
<g id="node1" class="node">
<title>Node0</title>
<polygon fill="#bfbfbf" stroke="#000000" points="59,-224.5 59,-254.5 163,-254.5 163,-224.5 59,-224.5"/>
<text text-anchor="start" x="67" y="-242.5" font-family="Helvetica,sans-Serif" font-size="10.00" fill="#000000">sys/include/net/gnrc</text>
<text text-anchor="middle" x="111" y="-231.5" font-family="Helvetica,sans-Serif" font-size="10.00" fill="#000000">/sixlowpan/iphc.h</text>
</g>
<!-- Node1 -->
<g id="node2" class="node">
<title>Node1</title>
<polygon fill="none" stroke="#bfbfbf" points="0,-112.5 0,-131.5 56,-131.5 56,-112.5 0,-112.5"/>
<text text-anchor="middle" x="28" y="-119.5" font-family="Helvetica,sans-Serif" font-size="10.00" fill="#000000">stdbool.h</text>
</g>
<!-- Node0&#45;&gt;Node1 -->
<g id="edge1" class="edge">
<title>Node0&#45;&gt;Node1</title>
<path fill="none" stroke="#191970" d="M92.532,-224.1605C81.7862,-214.564 68.5256,-201.4944 59,-188 48.6447,-173.3302 40.2476,-154.6547 34.8178,-140.9161"/>
<polygon fill="#191970" stroke="#191970" points="38.0748,-139.6335 31.2608,-131.5205 31.5282,-142.112 38.0748,-139.6335"/>
</g>
<!-- Node2 -->
<g id="node3" class="node">
<title>Node2</title>
<g id="a_node3"><a xlink:href="include_2net_2gnrc_2pkt_8h.html" target="_top" xlink:title="General definitions for network packets and their helper functions. ">
<polygon fill="none" stroke="#000000" points="361.5,-168.5 361.5,-187.5 438.5,-187.5 438.5,-168.5 361.5,-168.5"/>
<text text-anchor="middle" x="400" y="-175.5" font-family="Helvetica,sans-Serif" font-size="10.00" fill="#000000">net/gnrc/pkt.h</text>
</a>
</g>
</g>
<!-- Node0&#45;&gt;Node2 -->
<g id="edge2" class="edge">
<title>Node0&#45;&gt;Node2</title>
<path fill="none" stroke="#191970" d="M163.0012,-228.434C216.477,-217.0542 299.1105,-199.4696 351.3336,-188.3564"/>
<polygon fill="#191970" stroke="#191970" points="352.3026,-191.7286 361.355,-186.2238 350.8455,-184.8819 352.3026,-191.7286"/>
</g>
<!-- Node15 -->
<g id="node16" class="node">
<title>Node15</title>
<g id="a_node16"><a xlink:href="sixlowpan_8h.html" target="_top" xlink:title="6LoWPAN dispatch type and helper function definitions. ">
<polygon fill="none" stroke="#000000" points="68.5,-168.5 68.5,-187.5 153.5,-187.5 153.5,-168.5 68.5,-168.5"/>
<text text-anchor="middle" x="111" y="-175.5" font-family="Helvetica,sans-Serif" font-size="10.00" fill="#000000">net/sixlowpan.h</text>
</a>
</g>
</g>
<!-- Node0&#45;&gt;Node15 -->
<g id="edge19" class="edge">
<title>Node0&#45;&gt;Node15</title>
<path fill="none" stroke="#191970" d="M111,-224.2977C111,-216.3834 111,-206.6043 111,-198.0759"/>
<polygon fill="#191970" stroke="#191970" points="114.5001,-197.8469 111,-187.8469 107.5001,-197.847 114.5001,-197.8469"/>
</g>
<!-- Node3 -->
<g id="node4" class="node">
<title>Node3</title>
<g id="a_node4"><a xlink:href="inttypes_8h.html" target="_top" xlink:title="Adds include for missing inttype definitions. ">
<polygon fill="none" stroke="#000000" points="370.5,-56.5 370.5,-75.5 429.5,-75.5 429.5,-56.5 370.5,-56.5"/>
<text text-anchor="middle" x="400" y="-63.5" font-family="Helvetica,sans-Serif" font-size="10.00" fill="#000000">inttypes.h</text>
</a>
</g>
</g>
<!-- Node2&#45;&gt;Node3 -->
<g id="edge3" class="edge">
<title>Node2&#45;&gt;Node3</title>
<path fill="none" stroke="#191970" d="M400,-168.4509C400,-150.184 400,-109.9553 400,-85.6976"/>
<polygon fill="#191970" stroke="#191970" points="403.5001,-85.5249 400,-75.5249 396.5001,-85.5249 403.5001,-85.5249"/>
</g>
<!-- Node4 -->
<g id="node5" class="node">
<title>Node4</title>
<g id="a_node5"><a xlink:href="stdlib_8h.html" target="_top" xlink:title="stdlib.h wrapper for MSP430 ">
<polygon fill="none" stroke="#000000" points="752,-112.5 752,-131.5 800,-131.5 800,-112.5 752,-112.5"/>
<text text-anchor="middle" x="776" y="-119.5" font-family="Helvetica,sans-Serif" font-size="10.00" fill="#000000">stdlib.h</text>
</a>
</g>
</g>
<!-- Node2&#45;&gt;Node4 -->
<g id="edge4" class="edge">
<title>Node2&#45;&gt;Node4</title>
<path fill="none" stroke="#191970" d="M438.8224,-172.2179C512.5305,-161.2401 671.6221,-137.5456 741.6853,-127.1107"/>
<polygon fill="#191970" stroke="#191970" points="742.3726,-130.547 751.7478,-125.612 741.3413,-123.6234 742.3726,-130.547"/>
</g>
<!-- Node6 -->
<g id="node7" class="node">
<title>Node6</title>
<g id="a_node7"><a xlink:href="kernel__types_8h.html" target="_top" xlink:title="Types used by the kernel. ">
<polygon fill="none" stroke="#000000" points="266,-112.5 266,-131.5 346,-131.5 346,-112.5 266,-112.5"/>
<text text-anchor="middle" x="306" y="-119.5" font-family="Helvetica,sans-Serif" font-size="10.00" fill="#000000">kernel_types.h</text>
</a>
</g>
</g>
<!-- Node2&#45;&gt;Node6 -->
<g id="edge7" class="edge">
<title>Node2&#45;&gt;Node6</title>
<path fill="none" stroke="#191970" d="M383.6264,-168.2455C369.0692,-159.5731 347.569,-146.7645 330.8848,-136.825"/>
<polygon fill="#191970" stroke="#191970" points="332.5683,-133.7539 322.1859,-131.6427 328.9856,-139.7676 332.5683,-133.7539"/>
</g>
<!-- Node11 -->
<g id="node12" class="node">
<title>Node11</title>
<g id="a_node12"><a xlink:href="nettype_8h.html" target="_top" xlink:title="Protocol type definitions. ">
<polygon fill="none" stroke="#000000" points="441.5,-112.5 441.5,-131.5 536.5,-131.5 536.5,-112.5 441.5,-112.5"/>
<text text-anchor="middle" x="489" y="-119.5" font-family="Helvetica,sans-Serif" font-size="10.00" fill="#000000">net/gnrc/nettype.h</text>
</a>
</g>
</g>
<!-- Node2&#45;&gt;Node11 -->
<g id="edge13" class="edge">
<title>Node2&#45;&gt;Node11</title>
<path fill="none" stroke="#191970" d="M415.5026,-168.2455C429.158,-159.6534 449.2657,-147.0014 464.9989,-137.1018"/>
<polygon fill="#191970" stroke="#191970" points="467.0751,-139.9307 473.675,-131.6427 463.3471,-134.006 467.0751,-139.9307"/>
</g>
<!-- Node5 -->
<g id="node6" class="node">
<title>Node5</title>
<g id="a_node6"><a xlink:href="malloc_8h.html" target="_top" xlink:title="malloc.h">
<polygon fill="none" stroke="#000000" points="749.5,-56.5 749.5,-75.5 802.5,-75.5 802.5,-56.5 749.5,-56.5"/>
<text text-anchor="middle" x="776" y="-63.5" font-family="Helvetica,sans-Serif" font-size="10.00" fill="#000000">malloc.h</text>
</a>
</g>
</g>
<!-- Node4&#45;&gt;Node5 -->
<g id="edge5" class="edge">
<title>Node4&#45;&gt;Node5</title>
<path fill="none" stroke="#191970" d="M770.7332,-112.2455C769.3221,-104.9382 768.9179,-94.6944 769.5205,-85.7046"/>
<polygon fill="#191970" stroke="#191970" points="773.0111,-85.9945 770.7549,-75.6427 766.0632,-85.1421 773.0111,-85.9945"/>
</g>
<!-- Node5&#45;&gt;Node4 -->
<g id="edge6" class="edge">
<title>Node5&#45;&gt;Node4</title>
<path fill="none" stroke="#191970" d="M781.2451,-75.6427C782.6665,-82.9199 783.081,-93.155 782.4887,-102.1575"/>
<polygon fill="#191970" stroke="#191970" points="778.9947,-101.8972 781.2668,-112.2455 785.9439,-102.739 778.9947,-101.8972"/>
</g>
<!-- Node6&#45;&gt;Node3 -->
<g id="edge9" class="edge">
<title>Node6&#45;&gt;Node3</title>
<path fill="none" stroke="#191970" d="M322.3736,-112.2455C336.9308,-103.5731 358.431,-90.7645 375.1152,-80.825"/>
<polygon fill="#191970" stroke="#191970" points="377.0144,-83.7676 383.8141,-75.6427 373.4317,-77.7539 377.0144,-83.7676"/>
</g>
<!-- Node7 -->
<g id="node8" class="node">
<title>Node7</title>
<polygon fill="none" stroke="#bfbfbf" points="112.5,-56.5 112.5,-75.5 161.5,-75.5 161.5,-56.5 112.5,-56.5"/>
<text text-anchor="middle" x="137" y="-63.5" font-family="Helvetica,sans-Serif" font-size="10.00" fill="#000000">stdint.h</text>
</g>
<!-- Node6&#45;&gt;Node7 -->
<g id="edge8" class="edge">
<title>Node6&#45;&gt;Node7</title>
<path fill="none" stroke="#191970" d="M276.9479,-112.3733C247.5684,-102.638 202.1779,-87.5974 171.108,-77.3021"/>
<polygon fill="#191970" stroke="#191970" points="172.1554,-73.962 161.562,-74.1389 169.9536,-80.6067 172.1554,-73.962"/>
</g>
<!-- Node8 -->
<g id="node9" class="node">
<title>Node8</title>
<polygon fill="none" stroke="#bfbfbf" points="180,-56.5 180,-75.5 228,-75.5 228,-56.5 180,-56.5"/>
<text text-anchor="middle" x="204" y="-63.5" font-family="Helvetica,sans-Serif" font-size="10.00" fill="#000000">limits.h</text>
</g>
<!-- Node6&#45;&gt;Node8 -->
<g id="edge10" class="edge">
<title>Node6&#45;&gt;Node8</title>
<path fill="none" stroke="#191970" d="M288.233,-112.2455C272.2905,-103.4928 248.6741,-90.527 230.5011,-80.5496"/>
<polygon fill="#191970" stroke="#191970" points="232.0137,-77.3873 221.5634,-75.6427 228.6448,-83.5233 232.0137,-77.3873"/>
</g>
<!-- Node9 -->
<g id="node10" class="node">
<title>Node9</title>
<polygon fill="none" stroke="#bfbfbf" points="316,-.5 316,-19.5 368,-19.5 368,-.5 316,-.5"/>
<text text-anchor="middle" x="342" y="-7.5" font-family="Helvetica,sans-Serif" font-size="10.00" fill="#000000">stddef.h</text>
</g>
<!-- Node6&#45;&gt;Node9 -->
<g id="edge11" class="edge">
<title>Node6&#45;&gt;Node9</title>
<path fill="none" stroke="#191970" d="M309.8593,-112.2032C313.4513,-102.9405 318.8579,-88.6195 323,-76 328.0548,-60.5996 333.0988,-42.9448 336.7181,-29.7721"/>
<polygon fill="#191970" stroke="#191970" points="340.1533,-30.4767 339.3922,-19.9092 333.3972,-28.6449 340.1533,-30.4767"/>
</g>
<!-- Node10 -->
<g id="node11" class="node">
<title>Node10</title>
<polygon fill="none" stroke="#bfbfbf" points="246,-56.5 246,-75.5 314,-75.5 314,-56.5 246,-56.5"/>
<text text-anchor="middle" x="280" y="-63.5" font-family="Helvetica,sans-Serif" font-size="10.00" fill="#000000">sys/types.h</text>
</g>
<!-- Node6&#45;&gt;Node10 -->
<g id="edge12" class="edge">
<title>Node6&#45;&gt;Node10</title>
<path fill="none" stroke="#191970" d="M301.4711,-112.2455C297.9666,-104.6973 293.0073,-94.0158 288.7377,-84.8197"/>
<polygon fill="#191970" stroke="#191970" points="291.8627,-83.2389 284.477,-75.6427 285.5136,-86.1867 291.8627,-83.2389"/>
</g>
<!-- Node11&#45;&gt;Node3 -->
<g id="edge14" class="edge">
<title>Node11&#45;&gt;Node3</title>
<path fill="none" stroke="#191970" d="M473.4974,-112.2455C459.842,-103.6534 439.7343,-91.0014 424.0011,-81.1018"/>
<polygon fill="#191970" stroke="#191970" points="425.6529,-78.006 415.325,-75.6427 421.9249,-83.9307 425.6529,-78.006"/>
</g>
<!-- Node12 -->
<g id="node13" class="node">
<title>Node12</title>
<g id="a_node13"><a xlink:href="kernel__defines_8h.html" target="_top" xlink:title="Common macros and compiler attributes/pragmas configuration. ">
<polygon fill="none" stroke="#000000" points="644,-56.5 644,-75.5 732,-75.5 732,-56.5 644,-56.5"/>
<text text-anchor="middle" x="688" y="-63.5" font-family="Helvetica,sans-Serif" font-size="10.00" fill="#000000">kernel_defines.h</text>
</a>
</g>
</g>
<!-- Node11&#45;&gt;Node12 -->
<g id="edge15" class="edge">
<title>Node11&#45;&gt;Node12</title>
<path fill="none" stroke="#191970" d="M523.2093,-112.3733C556.7297,-102.9404 607.9505,-88.5265 644.381,-78.2747"/>
<polygon fill="#191970" stroke="#191970" points="645.5591,-81.5792 654.2371,-75.5011 643.6628,-74.8409 645.5591,-81.5792"/>
</g>
<!-- Node13 -->
<g id="node14" class="node">
<title>Node13</title>
<g id="a_node14"><a xlink:href="ethertype_8h.html" target="_top" xlink:title="Ether type definitions. ">
<polygon fill="none" stroke="#000000" points="448,-56.5 448,-75.5 530,-75.5 530,-56.5 448,-56.5"/>
<text text-anchor="middle" x="489" y="-63.5" font-family="Helvetica,sans-Serif" font-size="10.00" fill="#000000">net/ethertype.h</text>
</a>
</g>
</g>
<!-- Node11&#45;&gt;Node13 -->
<g id="edge17" class="edge">
<title>Node11&#45;&gt;Node13</title>
<path fill="none" stroke="#191970" d="M489,-112.2455C489,-104.9382 489,-94.6944 489,-85.7046"/>
<polygon fill="#191970" stroke="#191970" points="492.5001,-85.6426 489,-75.6427 485.5001,-85.6427 492.5001,-85.6426"/>
</g>
<!-- Node14 -->
<g id="node15" class="node">
<title>Node14</title>
<g id="a_node15"><a xlink:href="protnum_8h.html" target="_top" xlink:title="Protocol number definitions. ">
<polygon fill="none" stroke="#000000" points="548.5,-56.5 548.5,-75.5 625.5,-75.5 625.5,-56.5 548.5,-56.5"/>
<text text-anchor="middle" x="587" y="-63.5" font-family="Helvetica,sans-Serif" font-size="10.00" fill="#000000">net/protnum.h</text>
</a>
</g>
</g>
<!-- Node11&#45;&gt;Node14 -->
<g id="edge18" class="edge">
<title>Node11&#45;&gt;Node14</title>
<path fill="none" stroke="#191970" d="M506.0703,-112.2455C521.247,-103.5731 543.6621,-90.7645 561.0563,-80.825"/>
<polygon fill="#191970" stroke="#191970" points="563.1794,-83.643 570.1253,-75.6427 559.7064,-77.5653 563.1794,-83.643"/>
</g>
<!-- Node12&#45;&gt;Node9 -->
<g id="edge16" class="edge">
<title>Node12&#45;&gt;Node9</title>
<path fill="none" stroke="#191970" d="M643.772,-57.5498C640.8052,-57.0155 637.8604,-56.4943 635,-56 542.7641,-40.062 433.78,-23.5642 378.3418,-15.3381"/>
<polygon fill="#191970" stroke="#191970" points="378.7138,-11.8551 368.309,-13.8531 377.6887,-18.7797 378.7138,-11.8551"/>
</g>
<!-- Node15&#45;&gt;Node1 -->
<g id="edge20" class="edge">
<title>Node15&#45;&gt;Node1</title>
<path fill="none" stroke="#191970" d="M96.5425,-168.2455C83.9268,-159.7337 65.4056,-147.2375 50.7955,-137.3801"/>
<polygon fill="#191970" stroke="#191970" points="52.5391,-134.3343 42.2918,-131.6427 48.6239,-140.1371 52.5391,-134.3343"/>
</g>
<!-- Node15&#45;&gt;Node7 -->
<g id="edge22" class="edge">
<title>Node15&#45;&gt;Node7</title>
<path fill="none" stroke="#191970" d="M113.2167,-168.4509C117.4765,-150.1013 126.8807,-109.5908 132.5035,-85.3693"/>
<polygon fill="#191970" stroke="#191970" points="135.9368,-86.0573 134.7889,-75.5249 129.1182,-84.4744 135.9368,-86.0573"/>
</g>
<!-- Node15&#45;&gt;Node9 -->
<g id="edge21" class="edge">
<title>Node15&#45;&gt;Node9</title>
<path fill="none" stroke="#191970" d="M106.556,-168.4172C96.851,-145.9041 76.7232,-89.0535 104,-56 129.1425,-25.5327 245.3948,-15.0131 305.6123,-11.5691"/>
<polygon fill="#191970" stroke="#191970" points="306.0225,-15.0523 315.821,-11.0225 305.6482,-8.0623 306.0225,-15.0523"/>
</g>
<!-- Node16 -->
<g id="node17" class="node">
<title>Node16</title>
<g id="a_node17"><a xlink:href="byteorder_8h.html" target="_top" xlink:title="Functions to work with different byte orders. ">
<polygon fill="none" stroke="#000000" points="150.5,-112.5 150.5,-131.5 215.5,-131.5 215.5,-112.5 150.5,-112.5"/>
<text text-anchor="middle" x="183" y="-119.5" font-family="Helvetica,sans-Serif" font-size="10.00" fill="#000000">byteorder.h</text>
</a>
</g>
</g>
<!-- Node15&#45;&gt;Node16 -->
<g id="edge23" class="edge">
<title>Node15&#45;&gt;Node16</title>
<path fill="none" stroke="#191970" d="M123.5414,-168.2455C134.2787,-159.8943 149.9473,-147.7076 162.5047,-137.9408"/>
<polygon fill="#191970" stroke="#191970" points="164.8575,-140.5449 170.6023,-131.6427 160.5599,-135.0194 164.8575,-140.5449"/>
</g>
<!-- Node16&#45;&gt;Node7 -->
<g id="edge24" class="edge">
<title>Node16&#45;&gt;Node7</title>
<path fill="none" stroke="#191970" d="M174.9874,-112.2455C168.5232,-104.3761 159.2615,-93.101 151.5017,-83.6542"/>
<polygon fill="#191970" stroke="#191970" points="153.9727,-81.1484 144.9208,-75.6427 148.5636,-85.5916 153.9727,-81.1484"/>
</g>
</g>
</svg>
