<?xml version="1.0" encoding="UTF-8" standalone="no"?>
<!DOCTYPE svg PUBLIC "-//W3C//DTD SVG 1.1//EN"
 "http://www.w3.org/Graphics/SVG/1.1/DTD/svg11.dtd">
<!-- Generated by graphviz version 2.43.0 (0)
 -->
<!-- Title: sys/include/net/ipv6/ext.h Pages: 1 -->
<svg width="285pt" height="263pt"
 viewBox="0.00 0.00 284.65 263.00" xmlns="http://www.w3.org/2000/svg" xmlns:xlink="http://www.w3.org/1999/xlink">
<g id="graph0" class="graph" transform="scale(1 1) rotate(0) translate(4 259)">
<title>sys/include/net/ipv6/ext.h</title>
<!-- Node1 -->
<g id="node1" class="node">
<title>Node1</title>
<g id="a_node1"><a xlink:title="IPv6 extension header definitions.">
<polygon fill="#bfbfbf" stroke="black" points="20.15,-224.5 20.15,-254.5 134.15,-254.5 134.15,-224.5 20.15,-224.5"/>
<text text-anchor="start" x="28.15" y="-242.5" font-family="Helvetica,sans-Serif" font-size="10.00">sys/include/net/ipv6</text>
<text text-anchor="middle" x="77.15" y="-231.5" font-family="Helvetica,sans-Serif" font-size="10.00">/ext.h</text>
</a>
</g>
</g>
<!-- Node2 -->
<g id="node2" class="node">
<title>Node2</title>
<g id="a_node2"><a xlink:title=" ">
<polygon fill="none" stroke="#bfbfbf" points="32.65,-0.5 32.65,-19.5 85.65,-19.5 85.65,-0.5 32.65,-0.5"/>
<text text-anchor="middle" x="59.15" y="-7.5" font-family="Helvetica,sans-Serif" font-size="10.00">stdint.h</text>
</a>
</g>
</g>
<!-- Node1&#45;&gt;Node2 -->
<g id="edge1" class="edge">
<title>Node1&#45;&gt;Node2</title>
<path fill="none" stroke="midnightblue" d="M49.85,-224.36C36.45,-215.81 21.61,-203.54 14.15,-188 1.51,-161.67 -16.45,-184.95 31.15,-56 34.81,-46.09 40.81,-36.02 46.33,-27.92"/>
<polygon fill="midnightblue" stroke="midnightblue" points="49.22,-29.91 52.19,-19.74 43.53,-25.83 49.22,-29.91"/>
</g>
<!-- Node3 -->
<g id="node3" class="node">
<title>Node3</title>
<g id="a_node3"><a xlink:href="ipv6_2ext_2frag_8h.html" target="_top" xlink:title="Fragmentation extension definitions.">
<polygon fill="none" stroke="black" points="23.65,-168.5 23.65,-187.5 130.65,-187.5 130.65,-168.5 23.65,-168.5"/>
<text text-anchor="middle" x="77.15" y="-175.5" font-family="Helvetica,sans-Serif" font-size="10.00">net/ipv6/ext/frag.h</text>
</a>
</g>
</g>
<!-- Node1&#45;&gt;Node3 -->
<g id="edge2" class="edge">
<title>Node1&#45;&gt;Node3</title>
<path fill="none" stroke="midnightblue" d="M77.15,-224.4C77.15,-216.47 77.15,-206.46 77.15,-197.86"/>
<polygon fill="midnightblue" stroke="midnightblue" points="80.65,-197.66 77.15,-187.66 73.65,-197.66 80.65,-197.66"/>
</g>
<!-- Node7 -->
<g id="node7" class="node">
<title>Node7</title>
<g id="a_node7"><a xlink:href="ipv6_2ext_2rh_8h.html" target="_top" xlink:title="Routing extension header definitions.">
<polygon fill="none" stroke="black" points="179.65,-56.5 179.65,-75.5 276.65,-75.5 276.65,-56.5 179.65,-56.5"/>
<text text-anchor="middle" x="228.15" y="-63.5" font-family="Helvetica,sans-Serif" font-size="10.00">net/ipv6/ext/rh.h</text>
</a>
</g>
</g>
<!-- Node1&#45;&gt;Node7 -->
<g id="edge9" class="edge">
<title>Node1&#45;&gt;Node7</title>
<path fill="none" stroke="midnightblue" d="M102.4,-224.35C131.95,-206.52 180.37,-173.19 208.15,-132 217.54,-118.08 222.67,-99.57 225.37,-85.87"/>
<polygon fill="midnightblue" stroke="midnightblue" points="228.88,-86.14 227.11,-75.69 221.98,-84.95 228.88,-86.14"/>
</g>
<!-- Node3&#45;&gt;Node2 -->
<g id="edge4" class="edge">
<title>Node3&#45;&gt;Node2</title>
<path fill="none" stroke="midnightblue" d="M65.88,-168.43C56.18,-160.27 42.87,-147.05 37.15,-132 23.8,-96.9 39.18,-52.92 50.11,-28.82"/>
<polygon fill="midnightblue" stroke="midnightblue" points="53.27,-30.33 54.43,-19.8 46.95,-27.31 53.27,-30.33"/>
</g>
<!-- Node4 -->
<g id="node4" class="node">
<title>Node4</title>
<g id="a_node4"><a xlink:title=" ">
<polygon fill="none" stroke="#bfbfbf" points="46.15,-112.5 46.15,-131.5 108.15,-131.5 108.15,-112.5 46.15,-112.5"/>
<text text-anchor="middle" x="77.15" y="-119.5" font-family="Helvetica,sans-Serif" font-size="10.00">stdbool.h</text>
</a>
</g>
</g>
<!-- Node3&#45;&gt;Node4 -->
<g id="edge3" class="edge">
<title>Node3&#45;&gt;Node4</title>
<path fill="none" stroke="midnightblue" d="M77.15,-168.08C77.15,-161.01 77.15,-150.86 77.15,-141.99"/>
<polygon fill="midnightblue" stroke="midnightblue" points="80.65,-141.75 77.15,-131.75 73.65,-141.75 80.65,-141.75"/>
</g>
<!-- Node5 -->
<g id="node5" class="node">
<title>Node5</title>
<g id="a_node5"><a xlink:href="byteorder_8h.html" target="_top" xlink:title="Functions to work with different byte orders.">
<polygon fill="none" stroke="black" points="126.65,-112.5 126.65,-131.5 199.65,-131.5 199.65,-112.5 126.65,-112.5"/>
<text text-anchor="middle" x="163.15" y="-119.5" font-family="Helvetica,sans-Serif" font-size="10.00">byteorder.h</text>
</a>
</g>
</g>
<!-- Node3&#45;&gt;Node5 -->
<g id="edge5" class="edge">
<title>Node3&#45;&gt;Node5</title>
<path fill="none" stroke="midnightblue" d="M90.97,-168.32C104.38,-159.9 124.97,-146.97 140.73,-137.07"/>
<polygon fill="midnightblue" stroke="midnightblue" points="142.76,-139.94 149.37,-131.65 139.04,-134.01 142.76,-139.94"/>
</g>
<!-- Node5&#45;&gt;Node2 -->
<g id="edge6" class="edge">
<title>Node5&#45;&gt;Node2</title>
<path fill="none" stroke="midnightblue" d="M134.5,-112.36C115.93,-105.37 92.61,-93.73 78.15,-76 67.36,-62.77 62.7,-43.64 60.68,-29.56"/>
<polygon fill="midnightblue" stroke="midnightblue" points="64.15,-29.11 59.57,-19.55 57.2,-29.88 64.15,-29.11"/>
</g>
<!-- Node6 -->
<g id="node6" class="node">
<title>Node6</title>
<g id="a_node6"><a xlink:href="unaligned_8h.html" target="_top" xlink:title="Unaligned but safe memory access functions.">
<polygon fill="none" stroke="black" points="87.15,-56.5 87.15,-75.5 161.15,-75.5 161.15,-56.5 87.15,-56.5"/>
<text text-anchor="middle" x="124.15" y="-63.5" font-family="Helvetica,sans-Serif" font-size="10.00">unaligned.h</text>
</a>
</g>
</g>
<!-- Node5&#45;&gt;Node6 -->
<g id="edge7" class="edge">
<title>Node5&#45;&gt;Node6</title>
<path fill="none" stroke="midnightblue" d="M156.71,-112.08C151.2,-104.46 143.12,-93.26 136.38,-83.94"/>
<polygon fill="midnightblue" stroke="midnightblue" points="139.16,-81.81 130.47,-75.75 133.49,-85.91 139.16,-81.81"/>
</g>
<!-- Node6&#45;&gt;Node2 -->
<g id="edge8" class="edge">
<title>Node6&#45;&gt;Node2</title>
<path fill="none" stroke="midnightblue" d="M113.71,-56.32C104,-48.26 89.33,-36.08 77.65,-26.37"/>
<polygon fill="midnightblue" stroke="midnightblue" points="79.71,-23.53 69.78,-19.83 75.24,-28.92 79.71,-23.53"/>
</g>
<!-- Node7&#45;&gt;Node2 -->
<g id="edge10" class="edge">
<title>Node7&#45;&gt;Node2</title>
<path fill="none" stroke="midnightblue" d="M201.37,-56.44C172.82,-47.32 127.42,-32.81 95.61,-22.65"/>
<polygon fill="midnightblue" stroke="midnightblue" points="96.39,-19.23 85.8,-19.52 94.26,-25.89 96.39,-19.23"/>
</g>
</g>
</svg>
