<?xml version="1.0" encoding="UTF-8" standalone="no"?>
<!DOCTYPE svg PUBLIC "-//W3C//DTD SVG 1.1//EN"
 "http://www.w3.org/Graphics/SVG/1.1/DTD/svg11.dtd">
<!-- Generated by graphviz version 2.43.0 (0)
 -->
<!-- Title: sys/include/net/ipv6/addr.h Pages: 1 -->
<svg width="297pt" height="263pt"
 viewBox="0.00 0.00 296.50 263.00" xmlns="http://www.w3.org/2000/svg" xmlns:xlink="http://www.w3.org/1999/xlink">
<g id="graph0" class="graph" transform="scale(1 1) rotate(0) translate(4 259)">
<title>sys/include/net/ipv6/addr.h</title>
<!-- Node1 -->
<g id="node1" class="node">
<title>Node1</title>
<g id="a_node1"><a xlink:title="Definitions for IPv6 addresses.">
<polygon fill="#bfbfbf" stroke="black" points="78,-224.5 78,-254.5 192,-254.5 192,-224.5 78,-224.5"/>
<text text-anchor="start" x="86" y="-242.5" font-family="Helvetica,sans-Serif" font-size="10.00">sys/include/net/ipv6</text>
<text text-anchor="middle" x="135" y="-231.5" font-family="Helvetica,sans-Serif" font-size="10.00">/addr.h</text>
</a>
</g>
</g>
<!-- Node2 -->
<g id="node2" class="node">
<title>Node2</title>
<g id="a_node2"><a xlink:title=" ">
<polygon fill="none" stroke="#bfbfbf" points="0,-112.5 0,-131.5 62,-131.5 62,-112.5 0,-112.5"/>
<text text-anchor="middle" x="31" y="-119.5" font-family="Helvetica,sans-Serif" font-size="10.00">stdbool.h</text>
</a>
</g>
</g>
<!-- Node1&#45;&gt;Node2 -->
<g id="edge1" class="edge">
<title>Node1&#45;&gt;Node2</title>
<path fill="none" stroke="midnightblue" d="M122.25,-224.34C102.83,-202.77 65.95,-161.81 45.52,-139.13"/>
<polygon fill="midnightblue" stroke="midnightblue" points="48.1,-136.76 38.81,-131.67 42.9,-141.44 48.1,-136.76"/>
</g>
<!-- Node3 -->
<g id="node3" class="node">
<title>Node3</title>
<g id="a_node3"><a xlink:title=" ">
<polygon fill="none" stroke="#bfbfbf" points="235.5,-168.5 235.5,-187.5 288.5,-187.5 288.5,-168.5 235.5,-168.5"/>
<text text-anchor="middle" x="262" y="-175.5" font-family="Helvetica,sans-Serif" font-size="10.00">string.h</text>
</a>
</g>
</g>
<!-- Node1&#45;&gt;Node3 -->
<g id="edge2" class="edge">
<title>Node1&#45;&gt;Node3</title>
<path fill="none" stroke="midnightblue" d="M165.1,-224.4C186.12,-214.55 213.97,-201.5 234.42,-191.92"/>
<polygon fill="midnightblue" stroke="midnightblue" points="235.95,-195.07 243.52,-187.66 232.98,-188.73 235.95,-195.07"/>
</g>
<!-- Node4 -->
<g id="node4" class="node">
<title>Node4</title>
<g id="a_node4"><a xlink:href="byteorder_8h.html" target="_top" xlink:title="Functions to work with different byte orders.">
<polygon fill="none" stroke="black" points="80.5,-112.5 80.5,-131.5 153.5,-131.5 153.5,-112.5 80.5,-112.5"/>
<text text-anchor="middle" x="117" y="-119.5" font-family="Helvetica,sans-Serif" font-size="10.00">byteorder.h</text>
</a>
</g>
</g>
<!-- Node1&#45;&gt;Node4 -->
<g id="edge3" class="edge">
<title>Node1&#45;&gt;Node4</title>
<path fill="none" stroke="midnightblue" d="M128.87,-224.22C124.93,-214.27 120.16,-200.58 118,-188 115.37,-172.69 115.28,-155.04 115.76,-142.01"/>
<polygon fill="midnightblue" stroke="midnightblue" points="119.26,-142.08 116.28,-131.91 112.27,-141.72 119.26,-142.08"/>
</g>
<!-- Node7 -->
<g id="node7" class="node">
<title>Node7</title>
<g id="a_node7"><a xlink:href="ipv4_2addr_8h.html" target="_top" xlink:title="IPv6 address type and helper functions definitions.">
<polygon fill="none" stroke="black" points="127,-168.5 127,-187.5 217,-187.5 217,-168.5 127,-168.5"/>
<text text-anchor="middle" x="172" y="-175.5" font-family="Helvetica,sans-Serif" font-size="10.00">net/ipv4/addr.h</text>
</a>
</g>
</g>
<!-- Node1&#45;&gt;Node7 -->
<g id="edge7" class="edge">
<title>Node1&#45;&gt;Node7</title>
<path fill="none" stroke="midnightblue" d="M143.77,-224.4C148.98,-216.02 155.63,-205.33 161.17,-196.42"/>
<polygon fill="midnightblue" stroke="midnightblue" points="164.31,-198 166.62,-187.66 158.36,-194.3 164.31,-198"/>
</g>
<!-- Node5 -->
<g id="node5" class="node">
<title>Node5</title>
<g id="a_node5"><a xlink:title=" ">
<polygon fill="none" stroke="#bfbfbf" points="117.5,-0.5 117.5,-19.5 170.5,-19.5 170.5,-0.5 117.5,-0.5"/>
<text text-anchor="middle" x="144" y="-7.5" font-family="Helvetica,sans-Serif" font-size="10.00">stdint.h</text>
</a>
</g>
</g>
<!-- Node4&#45;&gt;Node5 -->
<g id="edge4" class="edge">
<title>Node4&#45;&gt;Node5</title>
<path fill="none" stroke="midnightblue" d="M119.12,-112.37C123.48,-94.62 133.53,-53.67 139.44,-29.6"/>
<polygon fill="midnightblue" stroke="midnightblue" points="142.91,-30.14 141.89,-19.59 136.11,-28.47 142.91,-30.14"/>
</g>
<!-- Node6 -->
<g id="node6" class="node">
<title>Node6</title>
<g id="a_node6"><a xlink:href="unaligned_8h.html" target="_top" xlink:title="Unaligned but safe memory access functions.">
<polygon fill="none" stroke="black" points="42,-56.5 42,-75.5 116,-75.5 116,-56.5 42,-56.5"/>
<text text-anchor="middle" x="79" y="-63.5" font-family="Helvetica,sans-Serif" font-size="10.00">unaligned.h</text>
</a>
</g>
</g>
<!-- Node4&#45;&gt;Node6 -->
<g id="edge5" class="edge">
<title>Node4&#45;&gt;Node6</title>
<path fill="none" stroke="midnightblue" d="M110.73,-112.08C105.36,-104.46 97.48,-93.26 90.92,-83.94"/>
<polygon fill="midnightblue" stroke="midnightblue" points="93.78,-81.91 85.16,-75.75 88.05,-85.94 93.78,-81.91"/>
</g>
<!-- Node6&#45;&gt;Node5 -->
<g id="edge6" class="edge">
<title>Node6&#45;&gt;Node5</title>
<path fill="none" stroke="midnightblue" d="M89.44,-56.32C99.15,-48.26 113.82,-36.08 125.5,-26.37"/>
<polygon fill="midnightblue" stroke="midnightblue" points="127.91,-28.92 133.37,-19.83 123.44,-23.53 127.91,-28.92"/>
</g>
<!-- Node7&#45;&gt;Node2 -->
<g id="edge8" class="edge">
<title>Node7&#45;&gt;Node2</title>
<path fill="none" stroke="midnightblue" d="M149.66,-168.44C126.25,-159.48 89.26,-145.31 62.81,-135.18"/>
<polygon fill="midnightblue" stroke="midnightblue" points="63.83,-131.82 53.24,-131.52 61.32,-138.36 63.83,-131.82"/>
</g>
<!-- Node7&#45;&gt;Node4 -->
<g id="edge11" class="edge">
<title>Node7&#45;&gt;Node4</title>
<path fill="none" stroke="midnightblue" d="M162.92,-168.08C154.83,-160.14 142.8,-148.34 133.09,-138.8"/>
<polygon fill="midnightblue" stroke="midnightblue" points="135.5,-136.26 125.91,-131.75 130.6,-141.25 135.5,-136.26"/>
</g>
<!-- Node7&#45;&gt;Node5 -->
<g id="edge9" class="edge">
<title>Node7&#45;&gt;Node5</title>
<path fill="none" stroke="midnightblue" d="M170.71,-168.16C168.86,-155.64 165.33,-132.05 162,-112 157.22,-83.22 151.19,-49.93 147.47,-29.68"/>
<polygon fill="midnightblue" stroke="midnightblue" points="150.87,-28.83 145.61,-19.63 143.99,-30.1 150.87,-28.83"/>
</g>
<!-- Node8 -->
<g id="node8" class="node">
<title>Node8</title>
<g id="a_node8"><a xlink:title=" ">
<polygon fill="none" stroke="#bfbfbf" points="210,-112.5 210,-131.5 266,-131.5 266,-112.5 210,-112.5"/>
<text text-anchor="middle" x="238" y="-119.5" font-family="Helvetica,sans-Serif" font-size="10.00">stddef.h</text>
</a>
</g>
</g>
<!-- Node7&#45;&gt;Node8 -->
<g id="edge10" class="edge">
<title>Node7&#45;&gt;Node8</title>
<path fill="none" stroke="midnightblue" d="M182.6,-168.32C192.46,-160.26 207.35,-148.08 219.22,-138.37"/>
<polygon fill="midnightblue" stroke="midnightblue" points="221.68,-140.88 227.2,-131.83 217.25,-135.46 221.68,-140.88"/>
</g>
</g>
</svg>
