<?xml version="1.0" encoding="UTF-8" standalone="no"?>
<!DOCTYPE svg PUBLIC "-//W3C//DTD SVG 1.1//EN"
 "http://www.w3.org/Graphics/SVG/1.1/DTD/svg11.dtd">
<!-- Generated by graphviz version 2.40.1 (20161225.0304)
 -->
<!-- Title: sys/include/irq_handler.h Pages: 1 -->
<svg width="480pt" height="308pt"
 viewBox="0.00 0.00 479.50 308.00" xmlns="http://www.w3.org/2000/svg" xmlns:xlink="http://www.w3.org/1999/xlink">
<g id="graph0" class="graph" transform="scale(1 1) rotate(0) translate(4 304)">
<title>sys/include/irq_handler.h</title>
<!-- Node0 -->
<g id="node1" class="node">
<title>Node0</title>
<polygon fill="#bfbfbf" stroke="#000000" points="18.5,-280.5 18.5,-299.5 143.5,-299.5 143.5,-280.5 18.5,-280.5"/>
<text text-anchor="middle" x="81" y="-287.5" font-family="Helvetica,sans-Serif" font-size="10.00" fill="#000000">sys/include/irq_handler.h</text>
</g>
<!-- Node1 -->
<g id="node2" class="node">
<title>Node1</title>
<polygon fill="none" stroke="#bfbfbf" points="53,-112.5 53,-131.5 109,-131.5 109,-112.5 53,-112.5"/>
<text text-anchor="middle" x="81" y="-119.5" font-family="Helvetica,sans-Serif" font-size="10.00" fill="#000000">stdbool.h</text>
</g>
<!-- Node0&#45;&gt;Node1 -->
<g id="edge1" class="edge">
<title>Node0&#45;&gt;Node1</title>
<path fill="none" stroke="#191970" d="M81,-280.4862C81,-253.9293 81,-178.5651 81,-142.1655"/>
<polygon fill="#191970" stroke="#191970" points="84.5001,-141.8278 81,-131.8279 77.5001,-141.8279 84.5001,-141.8278"/>
</g>
<!-- Node2 -->
<g id="node3" class="node">
<title>Node2</title>
<g id="a_node3"><a xlink:href="assert_8h.html" target="_top" xlink:title="POSIX.1&#45;2008 compliant version of the assert macro. ">
<polygon fill="none" stroke="#000000" points="0,-224.5 0,-243.5 52,-243.5 52,-224.5 0,-224.5"/>
<text text-anchor="middle" x="26" y="-231.5" font-family="Helvetica,sans-Serif" font-size="10.00" fill="#000000">assert.h</text>
</a>
</g>
</g>
<!-- Node0&#45;&gt;Node2 -->
<g id="edge2" class="edge">
<title>Node0&#45;&gt;Node2</title>
<path fill="none" stroke="#191970" d="M71.4197,-280.2455C63.4542,-272.1352 51.9359,-260.4075 42.4921,-250.7919"/>
<polygon fill="#191970" stroke="#191970" points="44.9747,-248.3247 35.4705,-243.6427 39.9805,-253.2297 44.9747,-248.3247"/>
</g>
<!-- Node6 -->
<g id="node7" class="node">
<title>Node6</title>
<g id="a_node7"><a xlink:href="event_8h.html" target="_top" xlink:title="Event API. ">
<polygon fill="none" stroke="#000000" points="196.5,-224.5 196.5,-243.5 245.5,-243.5 245.5,-224.5 196.5,-224.5"/>
<text text-anchor="middle" x="221" y="-231.5" font-family="Helvetica,sans-Serif" font-size="10.00" fill="#000000">event.h</text>
</a>
</g>
</g>
<!-- Node0&#45;&gt;Node6 -->
<g id="edge6" class="edge">
<title>Node0&#45;&gt;Node6</title>
<path fill="none" stroke="#191970" d="M105.0669,-280.3733C127.8428,-271.2629 162.2344,-257.5062 187.649,-247.3404"/>
<polygon fill="#191970" stroke="#191970" points="189.2623,-250.4648 197.2472,-243.5011 186.6625,-243.9654 189.2623,-250.4648"/>
</g>
<!-- Node3 -->
<g id="node4" class="node">
<title>Node3</title>
<g id="a_node4"><a xlink:href="panic_8h.html" target="_top" xlink:title="Crash handling header. ">
<polygon fill="none" stroke="#000000" points="1,-168.5 1,-187.5 49,-187.5 49,-168.5 1,-168.5"/>
<text text-anchor="middle" x="25" y="-175.5" font-family="Helvetica,sans-Serif" font-size="10.00" fill="#000000">panic.h</text>
</a>
</g>
</g>
<!-- Node2&#45;&gt;Node3 -->
<g id="edge3" class="edge">
<title>Node2&#45;&gt;Node3</title>
<path fill="none" stroke="#191970" d="M25.8258,-224.2455C25.6953,-216.9382 25.5124,-206.6944 25.3519,-197.7046"/>
<polygon fill="#191970" stroke="#191970" points="28.8503,-197.5786 25.1722,-187.6427 21.8514,-197.7036 28.8503,-197.5786"/>
</g>
<!-- Node4 -->
<g id="node5" class="node">
<title>Node4</title>
<g id="a_node5"><a xlink:href="kernel__defines_8h.html" target="_top" xlink:title="Common macros and compiler attributes/pragmas configuration. ">
<polygon fill="none" stroke="#000000" points="89,-56.5 89,-75.5 177,-75.5 177,-56.5 89,-56.5"/>
<text text-anchor="middle" x="133" y="-63.5" font-family="Helvetica,sans-Serif" font-size="10.00" fill="#000000">kernel_defines.h</text>
</a>
</g>
</g>
<!-- Node3&#45;&gt;Node4 -->
<g id="edge4" class="edge">
<title>Node3&#45;&gt;Node4</title>
<path fill="none" stroke="#191970" d="M25.4302,-168.3905C26.5243,-154.4818 30.3875,-128.5935 44,-112 56.0804,-97.2742 74.1111,-86.7295 90.791,-79.4835"/>
<polygon fill="#191970" stroke="#191970" points="92.4457,-82.5896 100.4005,-75.5917 89.818,-76.1015 92.4457,-82.5896"/>
</g>
<!-- Node5 -->
<g id="node6" class="node">
<title>Node5</title>
<polygon fill="none" stroke="#bfbfbf" points="115,-.5 115,-19.5 167,-19.5 167,-.5 115,-.5"/>
<text text-anchor="middle" x="141" y="-7.5" font-family="Helvetica,sans-Serif" font-size="10.00" fill="#000000">stddef.h</text>
</g>
<!-- Node4&#45;&gt;Node5 -->
<g id="edge5" class="edge">
<title>Node4&#45;&gt;Node5</title>
<path fill="none" stroke="#191970" d="M134.3935,-56.2455C135.4374,-48.9382 136.9008,-38.6944 138.1851,-29.7046"/>
<polygon fill="#191970" stroke="#191970" points="141.673,-30.0372 139.6225,-19.6427 134.7434,-29.0472 141.673,-30.0372"/>
</g>
<!-- Node7 -->
<g id="node8" class="node">
<title>Node7</title>
<polygon fill="none" stroke="#bfbfbf" points="422.5,-.5 422.5,-19.5 471.5,-19.5 471.5,-.5 422.5,-.5"/>
<text text-anchor="middle" x="447" y="-7.5" font-family="Helvetica,sans-Serif" font-size="10.00" fill="#000000">stdint.h</text>
</g>
<!-- Node6&#45;&gt;Node7 -->
<g id="edge7" class="edge">
<title>Node6&#45;&gt;Node7</title>
<path fill="none" stroke="#191970" d="M245.7677,-228.1444C270.4221,-221.4339 308.4586,-208.6202 336,-188 386.6756,-150.0593 393.6141,-131.5356 424,-76 432.0885,-61.2168 438.1699,-43.05 442.0414,-29.5211"/>
<polygon fill="#191970" stroke="#191970" points="445.4332,-30.386 444.6687,-19.8188 438.6765,-28.5563 445.4332,-30.386"/>
</g>
<!-- Node8 -->
<g id="node9" class="node">
<title>Node8</title>
<g id="a_node9"><a xlink:href="irq_8h.html" target="_top" xlink:title="IRQ driver interface. ">
<polygon fill="none" stroke="#000000" points="142.5,-168.5 142.5,-187.5 177.5,-187.5 177.5,-168.5 142.5,-168.5"/>
<text text-anchor="middle" x="160" y="-175.5" font-family="Helvetica,sans-Serif" font-size="10.00" fill="#000000">irq.h</text>
</a>
</g>
</g>
<!-- Node6&#45;&gt;Node8 -->
<g id="edge8" class="edge">
<title>Node6&#45;&gt;Node8</title>
<path fill="none" stroke="#191970" d="M210.3746,-224.2455C201.4527,-216.0549 188.512,-204.1749 177.9808,-194.5069"/>
<polygon fill="#191970" stroke="#191970" points="180.2371,-191.8271 170.5036,-187.6427 175.5032,-196.9837 180.2371,-191.8271"/>
</g>
<!-- Node10 -->
<g id="node11" class="node">
<title>Node10</title>
<g id="a_node11"><a xlink:href="thread__flags_8h.html" target="_top" xlink:title="Thread Flags API. ">
<polygon fill="none" stroke="#000000" points="249,-168.5 249,-187.5 327,-187.5 327,-168.5 249,-168.5"/>
<text text-anchor="middle" x="288" y="-175.5" font-family="Helvetica,sans-Serif" font-size="10.00" fill="#000000">thread_flags.h</text>
</a>
</g>
</g>
<!-- Node6&#45;&gt;Node10 -->
<g id="edge11" class="edge">
<title>Node6&#45;&gt;Node10</title>
<path fill="none" stroke="#191970" d="M232.6705,-224.2455C242.5661,-215.9746 256.9627,-203.9416 268.5901,-194.2232"/>
<polygon fill="#191970" stroke="#191970" points="271.035,-196.7413 276.4632,-187.6427 266.5458,-191.3703 271.035,-196.7413"/>
</g>
<!-- Node17 -->
<g id="node18" class="node">
<title>Node17</title>
<g id="a_node18"><a xlink:href="clist_8h.html" target="_top" xlink:title="Circular linked list. ">
<polygon fill="none" stroke="#000000" points="27.5,-56.5 27.5,-75.5 70.5,-75.5 70.5,-56.5 27.5,-56.5"/>
<text text-anchor="middle" x="49" y="-63.5" font-family="Helvetica,sans-Serif" font-size="10.00" fill="#000000">clist.h</text>
</a>
</g>
</g>
<!-- Node6&#45;&gt;Node17 -->
<g id="edge26" class="edge">
<title>Node6&#45;&gt;Node17</title>
<path fill="none" stroke="#191970" d="M222.5307,-224.3481C225.5412,-201.6859 229.655,-144.5364 201,-112 165.8726,-72.1145 136.8086,-90.3977 80.3499,-75.8138"/>
<polygon fill="#191970" stroke="#191970" points="81.2363,-72.4271 70.6602,-73.0568 79.3206,-79.1599 81.2363,-72.4271"/>
</g>
<!-- Node8&#45;&gt;Node1 -->
<g id="edge9" class="edge">
<title>Node8&#45;&gt;Node1</title>
<path fill="none" stroke="#191970" d="M146.2393,-168.2455C134.3448,-159.814 116.935,-147.4729 103.0915,-137.6598"/>
<polygon fill="#191970" stroke="#191970" points="104.7854,-134.5704 94.6031,-131.6427 100.7372,-140.2811 104.7854,-134.5704"/>
</g>
<!-- Node9 -->
<g id="node10" class="node">
<title>Node9</title>
<polygon fill="none" stroke="#bfbfbf" points="127.5,-112.5 127.5,-131.5 192.5,-131.5 192.5,-112.5 127.5,-112.5"/>
<text text-anchor="middle" x="160" y="-119.5" font-family="Helvetica,sans-Serif" font-size="10.00" fill="#000000">cpu_conf.h</text>
</g>
<!-- Node8&#45;&gt;Node9 -->
<g id="edge10" class="edge">
<title>Node8&#45;&gt;Node9</title>
<path fill="none" stroke="#191970" d="M160,-168.2455C160,-160.9382 160,-150.6944 160,-141.7046"/>
<polygon fill="#191970" stroke="#191970" points="163.5001,-141.6426 160,-131.6427 156.5001,-141.6427 163.5001,-141.6426"/>
</g>
<!-- Node11 -->
<g id="node12" class="node">
<title>Node11</title>
<g id="a_node12"><a xlink:href="kernel__types_8h.html" target="_top" xlink:title="Types used by the kernel. ">
<polygon fill="none" stroke="#000000" points="335,-56.5 335,-75.5 415,-75.5 415,-56.5 335,-56.5"/>
<text text-anchor="middle" x="375" y="-63.5" font-family="Helvetica,sans-Serif" font-size="10.00" fill="#000000">kernel_types.h</text>
</a>
</g>
</g>
<!-- Node10&#45;&gt;Node11 -->
<g id="edge12" class="edge">
<title>Node10&#45;&gt;Node11</title>
<path fill="none" stroke="#191970" d="M295.4176,-168.4509C310.0565,-149.6054 342.8528,-107.3849 361.4514,-83.4419"/>
<polygon fill="#191970" stroke="#191970" points="364.2307,-85.5693 367.6012,-75.5249 358.7026,-81.2751 364.2307,-85.5693"/>
</g>
<!-- Node15 -->
<g id="node16" class="node">
<title>Node15</title>
<g id="a_node16"><a xlink:href="sched_8h.html" target="_top" xlink:title="Scheduler API definition. ">
<polygon fill="none" stroke="#000000" points="249.5,-112.5 249.5,-131.5 300.5,-131.5 300.5,-112.5 249.5,-112.5"/>
<text text-anchor="middle" x="275" y="-119.5" font-family="Helvetica,sans-Serif" font-size="10.00" fill="#000000">sched.h</text>
</a>
</g>
</g>
<!-- Node10&#45;&gt;Node15 -->
<g id="edge18" class="edge">
<title>Node10&#45;&gt;Node15</title>
<path fill="none" stroke="#191970" d="M285.7356,-168.2455C284.0206,-160.8579 281.6088,-150.4689 279.5056,-141.4087"/>
<polygon fill="#191970" stroke="#191970" points="282.9092,-140.5922 277.2385,-131.6427 276.0905,-142.1751 282.9092,-140.5922"/>
</g>
<!-- Node11&#45;&gt;Node5 -->
<g id="edge16" class="edge">
<title>Node11&#45;&gt;Node5</title>
<path fill="none" stroke="#191970" d="M335.0398,-56.4369C290.6625,-45.8167 219.6666,-28.8262 176.9676,-18.6076"/>
<polygon fill="#191970" stroke="#191970" points="177.5536,-15.1491 167.0136,-16.2255 175.9243,-21.9569 177.5536,-15.1491"/>
</g>
<!-- Node11&#45;&gt;Node7 -->
<g id="edge13" class="edge">
<title>Node11&#45;&gt;Node7</title>
<path fill="none" stroke="#191970" d="M387.5414,-56.2455C398.2787,-47.8943 413.9473,-35.7076 426.5047,-25.9408"/>
<polygon fill="#191970" stroke="#191970" points="428.8575,-28.5449 434.6023,-19.6427 424.5599,-23.0194 428.8575,-28.5449"/>
</g>
<!-- Node12 -->
<g id="node13" class="node">
<title>Node12</title>
<g id="a_node13"><a xlink:href="inttypes_8h.html" target="_top" xlink:title="Adds include for missing inttype definitions. ">
<polygon fill="none" stroke="#000000" points="345.5,-.5 345.5,-19.5 404.5,-19.5 404.5,-.5 345.5,-.5"/>
<text text-anchor="middle" x="375" y="-7.5" font-family="Helvetica,sans-Serif" font-size="10.00" fill="#000000">inttypes.h</text>
</a>
</g>
</g>
<!-- Node11&#45;&gt;Node12 -->
<g id="edge14" class="edge">
<title>Node11&#45;&gt;Node12</title>
<path fill="none" stroke="#191970" d="M375,-56.2455C375,-48.9382 375,-38.6944 375,-29.7046"/>
<polygon fill="#191970" stroke="#191970" points="378.5001,-29.6426 375,-19.6427 371.5001,-29.6427 378.5001,-29.6426"/>
</g>
<!-- Node13 -->
<g id="node14" class="node">
<title>Node13</title>
<polygon fill="none" stroke="#bfbfbf" points="193,-.5 193,-19.5 241,-19.5 241,-.5 193,-.5"/>
<text text-anchor="middle" x="217" y="-7.5" font-family="Helvetica,sans-Serif" font-size="10.00" fill="#000000">limits.h</text>
</g>
<!-- Node11&#45;&gt;Node13 -->
<g id="edge15" class="edge">
<title>Node11&#45;&gt;Node13</title>
<path fill="none" stroke="#191970" d="M347.8388,-56.3733C321.004,-46.8622 279.8818,-32.2872 250.9154,-22.0207"/>
<polygon fill="#191970" stroke="#191970" points="251.8147,-18.6261 241.2199,-18.5843 249.4762,-25.2239 251.8147,-18.6261"/>
</g>
<!-- Node14 -->
<g id="node15" class="node">
<title>Node14</title>
<polygon fill="none" stroke="#bfbfbf" points="259,-.5 259,-19.5 327,-19.5 327,-.5 259,-.5"/>
<text text-anchor="middle" x="293" y="-7.5" font-family="Helvetica,sans-Serif" font-size="10.00" fill="#000000">sys/types.h</text>
</g>
<!-- Node11&#45;&gt;Node14 -->
<g id="edge17" class="edge">
<title>Node11&#45;&gt;Node14</title>
<path fill="none" stroke="#191970" d="M360.7167,-56.2455C348.253,-47.7337 329.9549,-35.2375 315.5208,-25.3801"/>
<polygon fill="#191970" stroke="#191970" points="317.3515,-22.392 307.1196,-19.6427 313.4038,-28.1726 317.3515,-22.392"/>
</g>
<!-- Node15&#45;&gt;Node4 -->
<g id="edge20" class="edge">
<title>Node15&#45;&gt;Node4</title>
<path fill="none" stroke="#191970" d="M250.5893,-112.3733C227.3858,-103.2226 192.2962,-89.3844 166.4858,-79.2057"/>
<polygon fill="#191970" stroke="#191970" points="167.6789,-75.9139 157.0921,-75.5011 165.1108,-82.4258 167.6789,-75.9139"/>
</g>
<!-- Node15&#45;&gt;Node5 -->
<g id="edge19" class="edge">
<title>Node15&#45;&gt;Node5</title>
<path fill="none" stroke="#191970" d="M263.5752,-112.4509C240.6323,-93.2747 188.733,-49.8962 160.3807,-26.1988"/>
<polygon fill="#191970" stroke="#191970" points="162.3133,-23.2525 152.3958,-19.5249 157.8241,-28.6235 162.3133,-23.2525"/>
</g>
<!-- Node15&#45;&gt;Node11 -->
<g id="edge21" class="edge">
<title>Node15&#45;&gt;Node11</title>
<path fill="none" stroke="#191970" d="M292.4187,-112.2455C308.0485,-103.4928 331.2019,-90.527 349.0185,-80.5496"/>
<polygon fill="#191970" stroke="#191970" points="350.766,-83.5825 357.7809,-75.6427 347.3457,-77.475 350.766,-83.5825"/>
</g>
<!-- Node16 -->
<g id="node17" class="node">
<title>Node16</title>
<g id="a_node17"><a xlink:href="native__sched_8h.html" target="_top" xlink:title="Add definitions required on the native board. ">
<polygon fill="none" stroke="#000000" points="233.5,-56.5 233.5,-75.5 316.5,-75.5 316.5,-56.5 233.5,-56.5"/>
<text text-anchor="middle" x="275" y="-63.5" font-family="Helvetica,sans-Serif" font-size="10.00" fill="#000000">native_sched.h</text>
</a>
</g>
</g>
<!-- Node15&#45;&gt;Node16 -->
<g id="edge22" class="edge">
<title>Node15&#45;&gt;Node16</title>
<path fill="none" stroke="#191970" d="M275,-112.2455C275,-104.9382 275,-94.6944 275,-85.7046"/>
<polygon fill="#191970" stroke="#191970" points="278.5001,-85.6426 275,-75.6427 271.5001,-85.6427 278.5001,-85.6426"/>
</g>
<!-- Node15&#45;&gt;Node17 -->
<g id="edge23" class="edge">
<title>Node15&#45;&gt;Node17</title>
<path fill="none" stroke="#191970" d="M249.1949,-115.4813C244.4761,-114.3084 239.5928,-113.1074 235,-112 169.2019,-96.1353 149.8061,-94.9495 80.2862,-75.9028"/>
<polygon fill="#191970" stroke="#191970" points="81.1816,-72.5192 70.6104,-73.2264 79.3154,-79.2658 81.1816,-72.5192"/>
</g>
<!-- Node17&#45;&gt;Node5 -->
<g id="edge24" class="edge">
<title>Node17&#45;&gt;Node5</title>
<path fill="none" stroke="#191970" d="M65.0252,-56.2455C79.1408,-47.6534 99.9263,-35.0014 116.1899,-25.1018"/>
<polygon fill="#191970" stroke="#191970" points="118.4363,-27.8319 125.1585,-19.6427 114.7966,-21.8525 118.4363,-27.8319"/>
</g>
<!-- Node18 -->
<g id="node19" class="node">
<title>Node18</title>
<g id="a_node19"><a xlink:href="list_8h.html" target="_top" xlink:title="Intrusive linked list. ">
<polygon fill="none" stroke="#000000" points="30,-.5 30,-19.5 68,-19.5 68,-.5 30,-.5"/>
<text text-anchor="middle" x="49" y="-7.5" font-family="Helvetica,sans-Serif" font-size="10.00" fill="#000000">list.h</text>
</a>
</g>
</g>
<!-- Node17&#45;&gt;Node18 -->
<g id="edge25" class="edge">
<title>Node17&#45;&gt;Node18</title>
<path fill="none" stroke="#191970" d="M49,-56.2455C49,-48.9382 49,-38.6944 49,-29.7046"/>
<polygon fill="#191970" stroke="#191970" points="52.5001,-29.6426 49,-19.6427 45.5001,-29.6427 52.5001,-29.6426"/>
</g>
</g>
</svg>
