<?xml version="1.0" encoding="UTF-8" standalone="no"?>
<!DOCTYPE svg PUBLIC "-//W3C//DTD SVG 1.1//EN"
 "http://www.w3.org/Graphics/SVG/1.1/DTD/svg11.dtd">
<!-- Generated by graphviz version 2.43.0 (0)
 -->
<!-- Title: drivers/include/isl29125.h Pages: 1 -->
<svg width="405pt" height="140pt"
 viewBox="0.00 0.00 405.00 140.00" xmlns="http://www.w3.org/2000/svg" xmlns:xlink="http://www.w3.org/1999/xlink">
<g id="graph0" class="graph" transform="scale(1 1) rotate(0) translate(4 136)">
<title>drivers/include/isl29125.h</title>
<!-- Node1 -->
<g id="node1" class="node">
<title>Node1</title>
<g id="a_node1"><a xlink:title="Device driver interface for the ISL29125 RGB light sensor.">
<polygon fill="#bfbfbf" stroke="black" points="51.5,-112.5 51.5,-131.5 193.5,-131.5 193.5,-112.5 51.5,-112.5"/>
<text text-anchor="middle" x="122.5" y="-119.5" font-family="Helvetica,sans-Serif" font-size="10.00">drivers/include/isl29125.h</text>
</a>
</g>
</g>
<!-- Node2 -->
<g id="node2" class="node">
<title>Node2</title>
<g id="a_node2"><a xlink:title=" ">
<polygon fill="none" stroke="#bfbfbf" points="0,-0.5 0,-19.5 53,-19.5 53,-0.5 0,-0.5"/>
<text text-anchor="middle" x="26.5" y="-7.5" font-family="Helvetica,sans-Serif" font-size="10.00">stdint.h</text>
</a>
</g>
</g>
<!-- Node1&#45;&gt;Node2 -->
<g id="edge1" class="edge">
<title>Node1&#45;&gt;Node2</title>
<path fill="none" stroke="midnightblue" d="M100.17,-112.4C83.76,-105.02 62.04,-92.9 48.5,-76 37.8,-62.65 32.18,-43.82 29.31,-29.86"/>
<polygon fill="midnightblue" stroke="midnightblue" points="32.74,-29.15 27.55,-19.91 25.85,-30.37 32.74,-29.15"/>
</g>
<!-- Node3 -->
<g id="node3" class="node">
<title>Node3</title>
<g id="a_node3"><a xlink:href="i2c_8h.html" target="_top" xlink:title="Low&#45;level I2C peripheral driver interface definition.">
<polygon fill="none" stroke="black" points="125.5,-56.5 125.5,-75.5 199.5,-75.5 199.5,-56.5 125.5,-56.5"/>
<text text-anchor="middle" x="162.5" y="-63.5" font-family="Helvetica,sans-Serif" font-size="10.00">periph/i2c.h</text>
</a>
</g>
</g>
<!-- Node1&#45;&gt;Node3 -->
<g id="edge2" class="edge">
<title>Node1&#45;&gt;Node3</title>
<path fill="none" stroke="midnightblue" d="M129.11,-112.08C134.76,-104.46 143.04,-93.26 149.95,-83.94"/>
<polygon fill="midnightblue" stroke="midnightblue" points="152.88,-85.87 156.02,-75.75 147.25,-81.7 152.88,-85.87"/>
</g>
<!-- Node8 -->
<g id="node8" class="node">
<title>Node8</title>
<g id="a_node8"><a xlink:href="gpio_8h.html" target="_top" xlink:title="Low&#45;level GPIO peripheral driver interface definitions.">
<polygon fill="none" stroke="black" points="217.5,-56.5 217.5,-75.5 297.5,-75.5 297.5,-56.5 217.5,-56.5"/>
<text text-anchor="middle" x="257.5" y="-63.5" font-family="Helvetica,sans-Serif" font-size="10.00">periph/gpio.h</text>
</a>
</g>
</g>
<!-- Node1&#45;&gt;Node8 -->
<g id="edge8" class="edge">
<title>Node1&#45;&gt;Node8</title>
<path fill="none" stroke="midnightblue" d="M143.89,-112.44C166.21,-103.52 201.4,-89.44 226.71,-79.32"/>
<polygon fill="midnightblue" stroke="midnightblue" points="228.22,-82.48 236.21,-75.52 225.62,-75.98 228.22,-82.48"/>
</g>
<!-- Node9 -->
<g id="node9" class="node">
<title>Node9</title>
<g id="a_node9"><a xlink:href="color_8h.html" target="_top" xlink:title="Headers for the color handling module.">
<polygon fill="none" stroke="black" points="57.5,-56.5 57.5,-75.5 107.5,-75.5 107.5,-56.5 57.5,-56.5"/>
<text text-anchor="middle" x="82.5" y="-63.5" font-family="Helvetica,sans-Serif" font-size="10.00">color.h</text>
</a>
</g>
</g>
<!-- Node1&#45;&gt;Node9 -->
<g id="edge12" class="edge">
<title>Node1&#45;&gt;Node9</title>
<path fill="none" stroke="midnightblue" d="M115.89,-112.08C110.24,-104.46 101.96,-93.26 95.05,-83.94"/>
<polygon fill="midnightblue" stroke="midnightblue" points="97.75,-81.7 88.98,-75.75 92.12,-85.87 97.75,-81.7"/>
</g>
<!-- Node3&#45;&gt;Node2 -->
<g id="edge3" class="edge">
<title>Node3&#45;&gt;Node2</title>
<path fill="none" stroke="midnightblue" d="M140.95,-56.44C118.47,-47.52 83.01,-33.44 57.52,-23.32"/>
<polygon fill="midnightblue" stroke="midnightblue" points="58.53,-19.95 47.95,-19.52 55.95,-26.46 58.53,-19.95"/>
</g>
<!-- Node4 -->
<g id="node4" class="node">
<title>Node4</title>
<g id="a_node4"><a xlink:title=" ">
<polygon fill="none" stroke="#bfbfbf" points="71.5,-0.5 71.5,-19.5 127.5,-19.5 127.5,-0.5 71.5,-0.5"/>
<text text-anchor="middle" x="99.5" y="-7.5" font-family="Helvetica,sans-Serif" font-size="10.00">stddef.h</text>
</a>
</g>
</g>
<!-- Node3&#45;&gt;Node4 -->
<g id="edge4" class="edge">
<title>Node3&#45;&gt;Node4</title>
<path fill="none" stroke="midnightblue" d="M152.38,-56.32C142.97,-48.26 128.76,-36.08 117.43,-26.37"/>
<polygon fill="midnightblue" stroke="midnightblue" points="119.68,-23.68 109.81,-19.83 115.12,-29 119.68,-23.68"/>
</g>
<!-- Node5 -->
<g id="node5" class="node">
<title>Node5</title>
<g id="a_node5"><a xlink:title=" ">
<polygon fill="none" stroke="#bfbfbf" points="146,-0.5 146,-19.5 199,-19.5 199,-0.5 146,-0.5"/>
<text text-anchor="middle" x="172.5" y="-7.5" font-family="Helvetica,sans-Serif" font-size="10.00">limits.h</text>
</a>
</g>
</g>
<!-- Node3&#45;&gt;Node5 -->
<g id="edge5" class="edge">
<title>Node3&#45;&gt;Node5</title>
<path fill="none" stroke="midnightblue" d="M164.15,-56.08C165.48,-48.93 167.38,-38.64 169.04,-29.69"/>
<polygon fill="midnightblue" stroke="midnightblue" points="172.5,-30.22 170.88,-19.75 165.62,-28.95 172.5,-30.22"/>
</g>
<!-- Node6 -->
<g id="node6" class="node">
<title>Node6</title>
<g id="a_node6"><a xlink:title=" ">
<polygon fill="none" stroke="#bfbfbf" points="217.5,-0.5 217.5,-19.5 299.5,-19.5 299.5,-0.5 217.5,-0.5"/>
<text text-anchor="middle" x="258.5" y="-7.5" font-family="Helvetica,sans-Serif" font-size="10.00">periph_conf.h</text>
</a>
</g>
</g>
<!-- Node3&#45;&gt;Node6 -->
<g id="edge6" class="edge">
<title>Node3&#45;&gt;Node6</title>
<path fill="none" stroke="midnightblue" d="M177.92,-56.32C193.04,-47.82 216.32,-34.73 233.97,-24.8"/>
<polygon fill="midnightblue" stroke="midnightblue" points="236.11,-27.61 243.11,-19.65 232.68,-21.51 236.11,-27.61"/>
</g>
<!-- Node7 -->
<g id="node7" class="node">
<title>Node7</title>
<g id="a_node7"><a xlink:title=" ">
<polygon fill="none" stroke="#bfbfbf" points="318,-0.5 318,-19.5 397,-19.5 397,-0.5 318,-0.5"/>
<text text-anchor="middle" x="357.5" y="-7.5" font-family="Helvetica,sans-Serif" font-size="10.00">periph_cpu.h</text>
</a>
</g>
</g>
<!-- Node3&#45;&gt;Node7 -->
<g id="edge7" class="edge">
<title>Node3&#45;&gt;Node7</title>
<path fill="none" stroke="midnightblue" d="M193.4,-56.44C226.77,-47.2 280.09,-32.44 316.85,-22.26"/>
<polygon fill="midnightblue" stroke="midnightblue" points="318.04,-25.56 326.75,-19.52 316.17,-18.81 318.04,-25.56"/>
</g>
<!-- Node8&#45;&gt;Node5 -->
<g id="edge9" class="edge">
<title>Node8&#45;&gt;Node5</title>
<path fill="none" stroke="midnightblue" d="M243.84,-56.32C230.58,-47.9 210.23,-34.97 194.65,-25.07"/>
<polygon fill="midnightblue" stroke="midnightblue" points="196.44,-22.06 186.12,-19.65 192.69,-27.97 196.44,-22.06"/>
</g>
<!-- Node8&#45;&gt;Node6 -->
<g id="edge11" class="edge">
<title>Node8&#45;&gt;Node6</title>
<path fill="none" stroke="midnightblue" d="M257.67,-56.08C257.8,-49.01 257.98,-38.86 258.15,-29.99"/>
<polygon fill="midnightblue" stroke="midnightblue" points="261.65,-29.81 258.34,-19.75 254.65,-29.68 261.65,-29.81"/>
</g>
<!-- Node8&#45;&gt;Node7 -->
<g id="edge10" class="edge">
<title>Node8&#45;&gt;Node7</title>
<path fill="none" stroke="midnightblue" d="M273.57,-56.32C289.46,-47.74 314.01,-34.49 332.46,-24.52"/>
<polygon fill="midnightblue" stroke="midnightblue" points="334.34,-27.49 341.47,-19.65 331.01,-21.33 334.34,-27.49"/>
</g>
<!-- Node9&#45;&gt;Node2 -->
<g id="edge13" class="edge">
<title>Node9&#45;&gt;Node2</title>
<path fill="none" stroke="midnightblue" d="M73.5,-56.32C65.31,-48.42 52.99,-36.55 43.03,-26.94"/>
<polygon fill="midnightblue" stroke="midnightblue" points="45.29,-24.26 35.66,-19.83 40.43,-29.29 45.29,-24.26"/>
</g>
</g>
</svg>
