<?xml version="1.0" encoding="UTF-8" standalone="no"?>
<!DOCTYPE svg PUBLIC "-//W3C//DTD SVG 1.1//EN"
 "http://www.w3.org/Graphics/SVG/1.1/DTD/svg11.dtd">
<!-- Generated by graphviz version 2.43.0 (0)
 -->
<!-- Title: drivers/jc42/include/jc42_params.h Pages: 1 -->
<svg width="521pt" height="319pt"
 viewBox="0.00 0.00 521.00 319.00" xmlns="http://www.w3.org/2000/svg" xmlns:xlink="http://www.w3.org/1999/xlink">
<g id="graph0" class="graph" transform="scale(1 1) rotate(0) translate(4 315)">
<title>drivers/jc42/include/jc42_params.h</title>
<!-- Node1 -->
<g id="node1" class="node">
<title>Node1</title>
<g id="a_node1"><a xlink:title="Default configuration for jc42.">
<polygon fill="#bfbfbf" stroke="black" points="149.5,-280.5 149.5,-310.5 261.5,-310.5 261.5,-280.5 149.5,-280.5"/>
<text text-anchor="start" x="157.5" y="-298.5" font-family="Helvetica,sans-Serif" font-size="10.00">drivers/jc42/include</text>
<text text-anchor="middle" x="205.5" y="-287.5" font-family="Helvetica,sans-Serif" font-size="10.00">/jc42_params.h</text>
</a>
</g>
</g>
<!-- Node2 -->
<g id="node2" class="node">
<title>Node2</title>
<g id="a_node2"><a xlink:title=" ">
<polygon fill="none" stroke="#bfbfbf" points="124,-224.5 124,-243.5 177,-243.5 177,-224.5 124,-224.5"/>
<text text-anchor="middle" x="150.5" y="-231.5" font-family="Helvetica,sans-Serif" font-size="10.00">board.h</text>
</a>
</g>
</g>
<!-- Node1&#45;&gt;Node2 -->
<g id="edge1" class="edge">
<title>Node1&#45;&gt;Node2</title>
<path fill="none" stroke="midnightblue" d="M192.47,-280.4C184.31,-271.58 173.78,-260.18 165.31,-251.02"/>
<polygon fill="midnightblue" stroke="midnightblue" points="167.86,-248.63 158.5,-243.66 162.72,-253.38 167.86,-248.63"/>
</g>
<!-- Node3 -->
<g id="node3" class="node">
<title>Node3</title>
<g id="a_node3"><a xlink:href="jc42_8h.html" target="_top" xlink:title="Driver for jc42 compliant temperature sensors.">
<polygon fill="none" stroke="black" points="233.5,-224.5 233.5,-243.5 279.5,-243.5 279.5,-224.5 233.5,-224.5"/>
<text text-anchor="middle" x="256.5" y="-231.5" font-family="Helvetica,sans-Serif" font-size="10.00">jc42.h</text>
</a>
</g>
</g>
<!-- Node1&#45;&gt;Node3 -->
<g id="edge2" class="edge">
<title>Node1&#45;&gt;Node3</title>
<path fill="none" stroke="midnightblue" d="M217.59,-280.4C225.07,-271.66 234.72,-260.41 242.53,-251.3"/>
<polygon fill="midnightblue" stroke="midnightblue" points="245.23,-253.53 249.08,-243.66 239.91,-248.97 245.23,-253.53"/>
</g>
<!-- Node4 -->
<g id="node4" class="node">
<title>Node4</title>
<g id="a_node4"><a xlink:href="i2c_8h.html" target="_top" xlink:title="Low&#45;level I2C peripheral driver interface definition.">
<polygon fill="none" stroke="black" points="168.5,-168.5 168.5,-187.5 242.5,-187.5 242.5,-168.5 168.5,-168.5"/>
<text text-anchor="middle" x="205.5" y="-175.5" font-family="Helvetica,sans-Serif" font-size="10.00">periph/i2c.h</text>
</a>
</g>
</g>
<!-- Node1&#45;&gt;Node4 -->
<g id="edge18" class="edge">
<title>Node1&#45;&gt;Node4</title>
<path fill="none" stroke="midnightblue" d="M205.5,-280.34C205.5,-259.62 205.5,-221.02 205.5,-197.9"/>
<polygon fill="midnightblue" stroke="midnightblue" points="209,-197.67 205.5,-187.67 202,-197.67 209,-197.67"/>
</g>
<!-- Node3&#45;&gt;Node4 -->
<g id="edge3" class="edge">
<title>Node3&#45;&gt;Node4</title>
<path fill="none" stroke="midnightblue" d="M248.08,-224.08C240.65,-216.22 229.65,-204.57 220.69,-195.08"/>
<polygon fill="midnightblue" stroke="midnightblue" points="223.18,-192.62 213.76,-187.75 218.09,-197.42 223.18,-192.62"/>
</g>
<!-- Node10 -->
<g id="node10" class="node">
<title>Node10</title>
<g id="a_node10"><a xlink:href="saul_8h.html" target="_top" xlink:title="Definition of the generic [S]ensor [A]ctuator [U]ber [L]ayer.">
<polygon fill="none" stroke="black" points="362.5,-168.5 362.5,-187.5 408.5,-187.5 408.5,-168.5 362.5,-168.5"/>
<text text-anchor="middle" x="385.5" y="-175.5" font-family="Helvetica,sans-Serif" font-size="10.00">saul.h</text>
</a>
</g>
</g>
<!-- Node3&#45;&gt;Node10 -->
<g id="edge9" class="edge">
<title>Node3&#45;&gt;Node10</title>
<path fill="none" stroke="midnightblue" d="M276.94,-224.44C298.17,-215.56 331.6,-201.56 355.75,-191.45"/>
<polygon fill="midnightblue" stroke="midnightblue" points="357.28,-194.61 365.16,-187.52 354.58,-188.15 357.28,-194.61"/>
</g>
<!-- Node5 -->
<g id="node5" class="node">
<title>Node5</title>
<g id="a_node5"><a xlink:title=" ">
<polygon fill="none" stroke="#bfbfbf" points="350,-0.5 350,-19.5 403,-19.5 403,-0.5 350,-0.5"/>
<text text-anchor="middle" x="376.5" y="-7.5" font-family="Helvetica,sans-Serif" font-size="10.00">stdint.h</text>
</a>
</g>
</g>
<!-- Node4&#45;&gt;Node5 -->
<g id="edge4" class="edge">
<title>Node4&#45;&gt;Node5</title>
<path fill="none" stroke="midnightblue" d="M242.66,-172.51C287.9,-166.19 360.29,-153.03 376.5,-132 399.39,-102.3 390.36,-55.19 382.79,-29.39"/>
<polygon fill="midnightblue" stroke="midnightblue" points="386.1,-28.22 379.74,-19.75 379.42,-30.34 386.1,-28.22"/>
</g>
<!-- Node6 -->
<g id="node6" class="node">
<title>Node6</title>
<g id="a_node6"><a xlink:title=" ">
<polygon fill="none" stroke="#bfbfbf" points="175.5,-0.5 175.5,-19.5 231.5,-19.5 231.5,-0.5 175.5,-0.5"/>
<text text-anchor="middle" x="203.5" y="-7.5" font-family="Helvetica,sans-Serif" font-size="10.00">stddef.h</text>
</a>
</g>
</g>
<!-- Node4&#45;&gt;Node6 -->
<g id="edge5" class="edge">
<title>Node4&#45;&gt;Node6</title>
<path fill="none" stroke="midnightblue" d="M175.62,-168.39C157.96,-161.59 137.05,-150.15 126.5,-132 103.72,-92.81 152.27,-48.18 182.22,-25.65"/>
<polygon fill="midnightblue" stroke="midnightblue" points="184.44,-28.37 190.47,-19.66 180.32,-22.71 184.44,-28.37"/>
</g>
<!-- Node7 -->
<g id="node7" class="node">
<title>Node7</title>
<g id="a_node7"><a xlink:title=" ">
<polygon fill="none" stroke="#bfbfbf" points="136,-112.5 136,-131.5 189,-131.5 189,-112.5 136,-112.5"/>
<text text-anchor="middle" x="162.5" y="-119.5" font-family="Helvetica,sans-Serif" font-size="10.00">limits.h</text>
</a>
</g>
</g>
<!-- Node4&#45;&gt;Node7 -->
<g id="edge6" class="edge">
<title>Node4&#45;&gt;Node7</title>
<path fill="none" stroke="midnightblue" d="M198.4,-168.08C192.26,-160.38 183.23,-149.03 175.76,-139.65"/>
<polygon fill="midnightblue" stroke="midnightblue" points="178.44,-137.39 169.47,-131.75 172.96,-141.75 178.44,-137.39"/>
</g>
<!-- Node8 -->
<g id="node8" class="node">
<title>Node8</title>
<g id="a_node8"><a xlink:title=" ">
<polygon fill="none" stroke="#bfbfbf" points="207.5,-112.5 207.5,-131.5 289.5,-131.5 289.5,-112.5 207.5,-112.5"/>
<text text-anchor="middle" x="248.5" y="-119.5" font-family="Helvetica,sans-Serif" font-size="10.00">periph_conf.h</text>
</a>
</g>
</g>
<!-- Node4&#45;&gt;Node8 -->
<g id="edge7" class="edge">
<title>Node4&#45;&gt;Node8</title>
<path fill="none" stroke="midnightblue" d="M212.6,-168.08C218.74,-160.38 227.77,-149.03 235.24,-139.65"/>
<polygon fill="midnightblue" stroke="midnightblue" points="238.04,-141.75 241.53,-131.75 232.56,-137.39 238.04,-141.75"/>
</g>
<!-- Node9 -->
<g id="node9" class="node">
<title>Node9</title>
<g id="a_node9"><a xlink:title=" ">
<polygon fill="none" stroke="#bfbfbf" points="0,-112.5 0,-131.5 79,-131.5 79,-112.5 0,-112.5"/>
<text text-anchor="middle" x="39.5" y="-119.5" font-family="Helvetica,sans-Serif" font-size="10.00">periph_cpu.h</text>
</a>
</g>
</g>
<!-- Node4&#45;&gt;Node9 -->
<g id="edge8" class="edge">
<title>Node4&#45;&gt;Node9</title>
<path fill="none" stroke="midnightblue" d="M179.2,-168.44C151.15,-159.32 106.56,-144.81 75.32,-134.65"/>
<polygon fill="midnightblue" stroke="midnightblue" points="76.27,-131.28 65.68,-131.52 74.11,-137.94 76.27,-131.28"/>
</g>
<!-- Node10&#45;&gt;Node5 -->
<g id="edge10" class="edge">
<title>Node10&#45;&gt;Node5</title>
<path fill="none" stroke="midnightblue" d="M391.87,-168.23C397.76,-159.53 406.11,-145.57 409.5,-132 417.69,-99.23 420.01,-88.1 409.5,-56 406.01,-45.34 398.93,-35.12 392.21,-27.12"/>
<polygon fill="midnightblue" stroke="midnightblue" points="394.8,-24.76 385.52,-19.66 389.6,-29.44 394.8,-24.76"/>
</g>
<!-- Node11 -->
<g id="node11" class="node">
<title>Node11</title>
<g id="a_node11"><a xlink:href="errno_8h.html" target="_top" xlink:title=" ">
<polygon fill="none" stroke="black" points="462,-112.5 462,-131.5 513,-131.5 513,-112.5 462,-112.5"/>
<text text-anchor="middle" x="487.5" y="-119.5" font-family="Helvetica,sans-Serif" font-size="10.00">errno.h</text>
</a>
</g>
</g>
<!-- Node10&#45;&gt;Node11 -->
<g id="edge11" class="edge">
<title>Node10&#45;&gt;Node11</title>
<path fill="none" stroke="midnightblue" d="M401.89,-168.32C418.17,-159.7 443.37,-146.36 462.22,-136.39"/>
<polygon fill="midnightblue" stroke="midnightblue" points="463.95,-139.43 471.15,-131.65 460.68,-133.24 463.95,-139.43"/>
</g>
<!-- Node12 -->
<g id="node12" class="node">
<title>Node12</title>
<g id="a_node12"><a xlink:href="phydat_8h.html" target="_top" xlink:title="Generic data container for physical data interface.">
<polygon fill="none" stroke="black" points="308,-112.5 308,-131.5 367,-131.5 367,-112.5 308,-112.5"/>
<text text-anchor="middle" x="337.5" y="-119.5" font-family="Helvetica,sans-Serif" font-size="10.00">phydat.h</text>
</a>
</g>
</g>
<!-- Node10&#45;&gt;Node12 -->
<g id="edge12" class="edge">
<title>Node10&#45;&gt;Node12</title>
<path fill="none" stroke="midnightblue" d="M377.57,-168.08C370.65,-160.3 360.43,-148.8 352.05,-139.37"/>
<polygon fill="midnightblue" stroke="midnightblue" points="354.54,-136.9 345.28,-131.75 349.31,-141.55 354.54,-136.9"/>
</g>
<!-- Node12&#45;&gt;Node5 -->
<g id="edge14" class="edge">
<title>Node12&#45;&gt;Node5</title>
<path fill="none" stroke="midnightblue" d="M340.56,-112.37C346.88,-94.54 361.5,-53.3 370.02,-29.27"/>
<polygon fill="midnightblue" stroke="midnightblue" points="373.41,-30.19 373.45,-19.59 366.81,-27.85 373.41,-30.19"/>
</g>
<!-- Node12&#45;&gt;Node6 -->
<g id="edge13" class="edge">
<title>Node12&#45;&gt;Node6</title>
<path fill="none" stroke="midnightblue" d="M307.96,-112.54C278.27,-103.49 235.28,-88.73 223.5,-76 211.86,-63.42 206.99,-44.2 204.95,-29.92"/>
<polygon fill="midnightblue" stroke="midnightblue" points="208.41,-29.32 203.85,-19.75 201.45,-30.07 208.41,-29.32"/>
</g>
<!-- Node13 -->
<g id="node13" class="node">
<title>Node13</title>
<g id="a_node13"><a xlink:href="kernel__defines_8h.html" target="_top" xlink:title="Common macros and compiler attributes/pragmas configuration.">
<polygon fill="none" stroke="black" points="232,-56.5 232,-75.5 329,-75.5 329,-56.5 232,-56.5"/>
<text text-anchor="middle" x="280.5" y="-63.5" font-family="Helvetica,sans-Serif" font-size="10.00">kernel_defines.h</text>
</a>
</g>
</g>
<!-- Node12&#45;&gt;Node13 -->
<g id="edge15" class="edge">
<title>Node12&#45;&gt;Node13</title>
<path fill="none" stroke="midnightblue" d="M328.34,-112.32C320,-104.42 307.47,-92.55 297.32,-82.94"/>
<polygon fill="midnightblue" stroke="midnightblue" points="299.49,-80.17 289.82,-75.83 294.68,-85.25 299.49,-80.17"/>
</g>
<!-- Node13&#45;&gt;Node5 -->
<g id="edge17" class="edge">
<title>Node13&#45;&gt;Node5</title>
<path fill="none" stroke="midnightblue" d="M295.92,-56.32C311.04,-47.82 334.32,-34.73 351.97,-24.8"/>
<polygon fill="midnightblue" stroke="midnightblue" points="354.11,-27.61 361.11,-19.65 350.68,-21.51 354.11,-27.61"/>
</g>
<!-- Node13&#45;&gt;Node6 -->
<g id="edge16" class="edge">
<title>Node13&#45;&gt;Node6</title>
<path fill="none" stroke="midnightblue" d="M268.13,-56.32C256.34,-48.06 238.37,-35.45 224.36,-25.63"/>
<polygon fill="midnightblue" stroke="midnightblue" points="226.04,-22.53 215.84,-19.65 222.02,-28.26 226.04,-22.53"/>
</g>
</g>
</svg>
