<?xml version="1.0" encoding="UTF-8" standalone="no"?>
<!DOCTYPE svg PUBLIC "-//W3C//DTD SVG 1.1//EN"
 "http://www.w3.org/Graphics/SVG/1.1/DTD/svg11.dtd">
<!-- Generated by graphviz version 2.40.1 (20161225.0304)
 -->
<!-- Title: drivers/include/jc42.h Pages: 1 -->
<svg width="532pt" height="252pt"
 viewBox="0.00 0.00 531.85 252.00" xmlns="http://www.w3.org/2000/svg" xmlns:xlink="http://www.w3.org/1999/xlink">
<g id="graph0" class="graph" transform="scale(1 1) rotate(0) translate(4 248)">
<title>drivers/include/jc42.h</title>
<!-- Node0 -->
<g id="node1" class="node">
<title>Node0</title>
<polygon fill="#bfbfbf" stroke="#000000" points="236.3473,-224.5 236.3473,-243.5 345.3473,-243.5 345.3473,-224.5 236.3473,-224.5"/>
<text text-anchor="middle" x="290.8473" y="-231.5" font-family="Helvetica,sans-Serif" font-size="10.00" fill="#000000">drivers/include/jc42.h</text>
</g>
<!-- Node1 -->
<g id="node2" class="node">
<title>Node1</title>
<g id="a_node2"><a xlink:href="i2c_8h.html" target="_top" xlink:title="Low&#45;level I2C peripheral driver interface definition. ">
<polygon fill="none" stroke="#000000" points="193.3473,-112.5 193.3473,-131.5 260.3473,-131.5 260.3473,-112.5 193.3473,-112.5"/>
<text text-anchor="middle" x="226.8473" y="-119.5" font-family="Helvetica,sans-Serif" font-size="10.00" fill="#000000">periph/i2c.h</text>
</a>
</g>
</g>
<!-- Node0&#45;&gt;Node1 -->
<g id="edge1" class="edge">
<title>Node0&#45;&gt;Node1</title>
<path fill="none" stroke="#191970" d="M285.3907,-224.4509C274.7635,-205.8533 251.1284,-164.4919 237.3596,-140.3964"/>
<polygon fill="#191970" stroke="#191970" points="240.2904,-138.4708 232.2901,-131.5249 234.2127,-141.9438 240.2904,-138.4708"/>
</g>
<!-- Node8 -->
<g id="node9" class="node">
<title>Node8</title>
<g id="a_node9"><a xlink:href="saul_8h.html" target="_top" xlink:title="Definition of the generic [S]ensor [A]ctuator [U]ber [L]ayer. ">
<polygon fill="none" stroke="#000000" points="306.3473,-168.5 306.3473,-187.5 349.3473,-187.5 349.3473,-168.5 306.3473,-168.5"/>
<text text-anchor="middle" x="327.8473" y="-175.5" font-family="Helvetica,sans-Serif" font-size="10.00" fill="#000000">saul.h</text>
</a>
</g>
</g>
<!-- Node0&#45;&gt;Node8 -->
<g id="edge9" class="edge">
<title>Node0&#45;&gt;Node8</title>
<path fill="none" stroke="#191970" d="M297.2922,-224.2455C302.3856,-216.5367 309.6382,-205.5598 315.7993,-196.2348"/>
<polygon fill="#191970" stroke="#191970" points="318.8838,-197.9155 321.4763,-187.6427 313.0435,-194.0566 318.8838,-197.9155"/>
</g>
<!-- Node2 -->
<g id="node3" class="node">
<title>Node2</title>
<polygon fill="none" stroke="#bfbfbf" points="330.3473,-56.5 330.3473,-75.5 379.3473,-75.5 379.3473,-56.5 330.3473,-56.5"/>
<text text-anchor="middle" x="354.8473" y="-63.5" font-family="Helvetica,sans-Serif" font-size="10.00" fill="#000000">stdint.h</text>
</g>
<!-- Node1&#45;&gt;Node2 -->
<g id="edge2" class="edge">
<title>Node1&#45;&gt;Node2</title>
<path fill="none" stroke="#191970" d="M248.8513,-112.3733C269.4908,-103.3435 300.5631,-89.7494 323.7362,-79.6111"/>
<polygon fill="#191970" stroke="#191970" points="325.3718,-82.7159 333.1305,-75.5011 322.566,-76.3028 325.3718,-82.7159"/>
</g>
<!-- Node3 -->
<g id="node4" class="node">
<title>Node3</title>
<polygon fill="none" stroke="#bfbfbf" points="381.8473,-.5 381.8473,-19.5 433.8473,-19.5 433.8473,-.5 381.8473,-.5"/>
<text text-anchor="middle" x="407.8473" y="-7.5" font-family="Helvetica,sans-Serif" font-size="10.00" fill="#000000">stddef.h</text>
</g>
<!-- Node1&#45;&gt;Node3 -->
<g id="edge3" class="edge">
<title>Node1&#45;&gt;Node3</title>
<path fill="none" stroke="#191970" d="M239.7423,-112.3244C257.7205,-99.0025 291.5279,-74.5546 321.8473,-56 340.4397,-44.622 362.0804,-33.055 379.0021,-24.3662"/>
<polygon fill="#191970" stroke="#191970" points="381.0345,-27.2593 388.3613,-19.6062 377.8612,-21.0199 381.0345,-27.2593"/>
</g>
<!-- Node4 -->
<g id="node5" class="node">
<title>Node4</title>
<polygon fill="none" stroke="#bfbfbf" points="225.8473,-56.5 225.8473,-75.5 273.8473,-75.5 273.8473,-56.5 225.8473,-56.5"/>
<text text-anchor="middle" x="249.8473" y="-63.5" font-family="Helvetica,sans-Serif" font-size="10.00" fill="#000000">limits.h</text>
</g>
<!-- Node1&#45;&gt;Node4 -->
<g id="edge4" class="edge">
<title>Node1&#45;&gt;Node4</title>
<path fill="none" stroke="#191970" d="M230.8536,-112.2455C233.9208,-104.7776 238.2477,-94.2427 241.9971,-85.1137"/>
<polygon fill="#191970" stroke="#191970" points="245.3253,-86.2226 245.887,-75.6427 238.8501,-83.5631 245.3253,-86.2226"/>
</g>
<!-- Node5 -->
<g id="node6" class="node">
<title>Node5</title>
<polygon fill="none" stroke="#bfbfbf" points="33.3473,-.5 33.3473,-19.5 108.3473,-19.5 108.3473,-.5 33.3473,-.5"/>
<text text-anchor="middle" x="70.8473" y="-7.5" font-family="Helvetica,sans-Serif" font-size="10.00" fill="#000000">periph_conf.h</text>
</g>
<!-- Node1&#45;&gt;Node5 -->
<g id="edge5" class="edge">
<title>Node1&#45;&gt;Node5</title>
<path fill="none" stroke="#191970" d="M193.122,-120.061C136.9822,-116.0516 28.205,-104.6937 4.8473,-76 -10.7551,-56.8332 15.6589,-37.0785 39.5634,-24.2393"/>
<polygon fill="#191970" stroke="#191970" points="41.1939,-27.3367 48.5094,-19.6728 38.0114,-21.102 41.1939,-27.3367"/>
</g>
<!-- Node6 -->
<g id="node7" class="node">
<title>Node6</title>
<polygon fill="none" stroke="#bfbfbf" points="13.8473,-56.5 13.8473,-75.5 85.8473,-75.5 85.8473,-56.5 13.8473,-56.5"/>
<text text-anchor="middle" x="49.8473" y="-63.5" font-family="Helvetica,sans-Serif" font-size="10.00" fill="#000000">periph_cpu.h</text>
</g>
<!-- Node1&#45;&gt;Node6 -->
<g id="edge6" class="edge">
<title>Node1&#45;&gt;Node6</title>
<path fill="none" stroke="#191970" d="M196.4199,-112.3733C166.8601,-103.021 121.8248,-88.7725 89.4778,-78.5385"/>
<polygon fill="#191970" stroke="#191970" points="90.4677,-75.1807 79.8777,-75.5011 88.3561,-81.8546 90.4677,-75.1807"/>
</g>
<!-- Node7 -->
<g id="node8" class="node">
<title>Node7</title>
<g id="a_node8"><a xlink:href="dev__enums_8h.html" target="_top" xlink:title="Device enumerations for backward compatibility with existing peripheral driver implementations. ">
<polygon fill="none" stroke="#000000" points="103.8473,-56.5 103.8473,-75.5 207.8473,-75.5 207.8473,-56.5 103.8473,-56.5"/>
<text text-anchor="middle" x="155.8473" y="-63.5" font-family="Helvetica,sans-Serif" font-size="10.00" fill="#000000">periph/dev_enums.h</text>
</a>
</g>
</g>
<!-- Node1&#45;&gt;Node7 -->
<g id="edge7" class="edge">
<title>Node1&#45;&gt;Node7</title>
<path fill="none" stroke="#191970" d="M214.4801,-112.2455C203.8919,-103.8943 188.4409,-91.7076 176.058,-81.9408"/>
<polygon fill="#191970" stroke="#191970" points="178.0921,-79.0875 168.0729,-75.6427 173.757,-84.5837 178.0921,-79.0875"/>
</g>
<!-- Node7&#45;&gt;Node5 -->
<g id="edge8" class="edge">
<title>Node7&#45;&gt;Node5</title>
<path fill="none" stroke="#191970" d="M141.0415,-56.2455C128.1217,-47.7337 109.1542,-35.2375 94.1921,-25.3801"/>
<polygon fill="#191970" stroke="#191970" points="95.7597,-22.2216 85.4835,-19.6427 91.9086,-28.067 95.7597,-22.2216"/>
</g>
<!-- Node8&#45;&gt;Node2 -->
<g id="edge10" class="edge">
<title>Node8&#45;&gt;Node2</title>
<path fill="none" stroke="#191970" d="M330.1493,-168.4509C334.5729,-150.1013 344.3388,-109.5908 350.1779,-85.3693"/>
<polygon fill="#191970" stroke="#191970" points="353.61,-86.0667 352.5512,-75.5249 346.805,-84.4261 353.61,-86.0667"/>
</g>
<!-- Node9 -->
<g id="node10" class="node">
<title>Node9</title>
<g id="a_node10"><a xlink:href="errno_8h.html" target="_top" xlink:title="errno.h">
<polygon fill="none" stroke="#000000" points="278.3473,-112.5 278.3473,-131.5 325.3473,-131.5 325.3473,-112.5 278.3473,-112.5"/>
<text text-anchor="middle" x="301.8473" y="-119.5" font-family="Helvetica,sans-Serif" font-size="10.00" fill="#000000">errno.h</text>
</a>
</g>
</g>
<!-- Node8&#45;&gt;Node9 -->
<g id="edge11" class="edge">
<title>Node8&#45;&gt;Node9</title>
<path fill="none" stroke="#191970" d="M323.3185,-168.2455C319.8139,-160.6973 314.8547,-150.0158 310.5851,-140.8197"/>
<polygon fill="#191970" stroke="#191970" points="313.71,-139.2389 306.3243,-131.6427 307.3609,-142.1867 313.71,-139.2389"/>
</g>
<!-- Node10 -->
<g id="node11" class="node">
<title>Node10</title>
<g id="a_node11"><a xlink:href="phydat_8h.html" target="_top" xlink:title="Generic data container for physical data interface. ">
<polygon fill="none" stroke="#000000" points="381.8473,-112.5 381.8473,-131.5 435.8473,-131.5 435.8473,-112.5 381.8473,-112.5"/>
<text text-anchor="middle" x="408.8473" y="-119.5" font-family="Helvetica,sans-Serif" font-size="10.00" fill="#000000">phydat.h</text>
</a>
</g>
</g>
<!-- Node8&#45;&gt;Node10 -->
<g id="edge12" class="edge">
<title>Node8&#45;&gt;Node10</title>
<path fill="none" stroke="#191970" d="M341.9565,-168.2455C354.2682,-159.7337 372.3431,-147.2375 386.6011,-137.3801"/>
<polygon fill="#191970" stroke="#191970" points="388.6647,-140.2085 394.8999,-131.6427 384.6839,-134.4506 388.6647,-140.2085"/>
</g>
<!-- Node10&#45;&gt;Node2 -->
<g id="edge14" class="edge">
<title>Node10&#45;&gt;Node2</title>
<path fill="none" stroke="#191970" d="M399.4413,-112.2455C391.698,-104.2155 380.5353,-92.6394 371.3155,-83.0781"/>
<polygon fill="#191970" stroke="#191970" points="373.6065,-80.4117 364.1456,-75.6427 368.5675,-85.2706 373.6065,-80.4117"/>
</g>
<!-- Node10&#45;&gt;Node3 -->
<g id="edge13" class="edge">
<title>Node10&#45;&gt;Node3</title>
<path fill="none" stroke="#191970" d="M408.7621,-112.4509C408.599,-94.184 408.2398,-53.9553 408.0232,-29.6976"/>
<polygon fill="#191970" stroke="#191970" points="411.5216,-29.4932 407.9324,-19.5249 404.5219,-29.5558 411.5216,-29.4932"/>
</g>
<!-- Node11 -->
<g id="node12" class="node">
<title>Node11</title>
<g id="a_node12"><a xlink:href="kernel__defines_8h.html" target="_top" xlink:title="Common macros and compiler attributes/pragmas configuration. ">
<polygon fill="none" stroke="#000000" points="435.8473,-56.5 435.8473,-75.5 523.8473,-75.5 523.8473,-56.5 435.8473,-56.5"/>
<text text-anchor="middle" x="479.8473" y="-63.5" font-family="Helvetica,sans-Serif" font-size="10.00" fill="#000000">kernel_defines.h</text>
</a>
</g>
</g>
<!-- Node10&#45;&gt;Node11 -->
<g id="edge15" class="edge">
<title>Node10&#45;&gt;Node11</title>
<path fill="none" stroke="#191970" d="M421.2146,-112.2455C431.8027,-103.8943 447.2537,-91.7076 459.6367,-81.9408"/>
<polygon fill="#191970" stroke="#191970" points="461.9376,-84.5837 467.6218,-75.6427 457.6026,-79.0875 461.9376,-84.5837"/>
</g>
<!-- Node11&#45;&gt;Node3 -->
<g id="edge16" class="edge">
<title>Node11&#45;&gt;Node3</title>
<path fill="none" stroke="#191970" d="M467.3059,-56.2455C456.5686,-47.8943 440.9,-35.7076 428.3427,-25.9408"/>
<polygon fill="#191970" stroke="#191970" points="430.2874,-23.0194 420.2451,-19.6427 425.9898,-28.5449 430.2874,-23.0194"/>
</g>
</g>
</svg>
