<?xml version="1.0" encoding="UTF-8" standalone="no"?>
<!DOCTYPE svg PUBLIC "-//W3C//DTD SVG 1.1//EN"
 "http://www.w3.org/Graphics/SVG/1.1/DTD/svg11.dtd">
<!-- Generated by graphviz version 2.40.1 (20161225.0304)
 -->
<!-- Title: drivers/jc42/include/jc42_params.h Pages: 1 -->
<svg width="534pt" height="319pt"
 viewBox="0.00 0.00 533.88 319.00" xmlns="http://www.w3.org/2000/svg" xmlns:xlink="http://www.w3.org/1999/xlink">
<g id="graph0" class="graph" transform="scale(1 1) rotate(0) translate(4 315)">
<title>drivers/jc42/include/jc42_params.h</title>
<!-- Node0 -->
<g id="node1" class="node">
<title>Node0</title>
<polygon fill="#bfbfbf" stroke="#000000" points="185.3833,-280.5 185.3833,-310.5 286.3833,-310.5 286.3833,-280.5 185.3833,-280.5"/>
<text text-anchor="start" x="193.3833" y="-298.5" font-family="Helvetica,sans-Serif" font-size="10.00" fill="#000000">drivers/jc42/include</text>
<text text-anchor="middle" x="235.8833" y="-287.5" font-family="Helvetica,sans-Serif" font-size="10.00" fill="#000000">/jc42_params.h</text>
</g>
<!-- Node1 -->
<g id="node2" class="node">
<title>Node1</title>
<polygon fill="none" stroke="#bfbfbf" points="158.3833,-224.5 158.3833,-243.5 207.3833,-243.5 207.3833,-224.5 158.3833,-224.5"/>
<text text-anchor="middle" x="182.8833" y="-231.5" font-family="Helvetica,sans-Serif" font-size="10.00" fill="#000000">board.h</text>
</g>
<!-- Node0&#45;&gt;Node1 -->
<g id="edge1" class="edge">
<title>Node0&#45;&gt;Node1</title>
<path fill="none" stroke="#191970" d="M222.7821,-280.2977C215.2719,-271.5831 205.8133,-260.6075 197.9906,-251.5302"/>
<polygon fill="#191970" stroke="#191970" points="200.5488,-249.1372 191.3692,-243.8469 195.2461,-253.707 200.5488,-249.1372"/>
</g>
<!-- Node2 -->
<g id="node3" class="node">
<title>Node2</title>
<g id="a_node3"><a xlink:href="jc42_8h.html" target="_top" xlink:title="Driver for jc42 compliant temperature sensors. ">
<polygon fill="none" stroke="#000000" points="264.3833,-224.5 264.3833,-243.5 307.3833,-243.5 307.3833,-224.5 264.3833,-224.5"/>
<text text-anchor="middle" x="285.8833" y="-231.5" font-family="Helvetica,sans-Serif" font-size="10.00" fill="#000000">jc42.h</text>
</a>
</g>
</g>
<!-- Node0&#45;&gt;Node2 -->
<g id="edge2" class="edge">
<title>Node0&#45;&gt;Node2</title>
<path fill="none" stroke="#191970" d="M248.2428,-280.2977C255.2556,-271.672 264.0693,-260.8312 271.4047,-251.8087"/>
<polygon fill="#191970" stroke="#191970" points="274.285,-253.8141 277.8776,-243.8469 268.8536,-249.3982 274.285,-253.8141"/>
</g>
<!-- Node3 -->
<g id="node4" class="node">
<title>Node3</title>
<g id="a_node4"><a xlink:href="i2c_8h.html" target="_top" xlink:title="Low&#45;level I2C peripheral driver interface definition. ">
<polygon fill="none" stroke="#000000" points="202.3833,-168.5 202.3833,-187.5 269.3833,-187.5 269.3833,-168.5 202.3833,-168.5"/>
<text text-anchor="middle" x="235.8833" y="-175.5" font-family="Helvetica,sans-Serif" font-size="10.00" fill="#000000">periph/i2c.h</text>
</a>
</g>
</g>
<!-- Node0&#45;&gt;Node3 -->
<g id="edge19" class="edge">
<title>Node0&#45;&gt;Node3</title>
<path fill="none" stroke="#191970" d="M235.8833,-280.1389C235.8833,-258.9692 235.8833,-220.8174 235.8833,-197.6112"/>
<polygon fill="#191970" stroke="#191970" points="239.3834,-197.5594 235.8833,-187.5595 232.3834,-197.5595 239.3834,-197.5594"/>
</g>
<!-- Node2&#45;&gt;Node3 -->
<g id="edge3" class="edge">
<title>Node2&#45;&gt;Node3</title>
<path fill="none" stroke="#191970" d="M277.1739,-224.2455C270.076,-216.2958 259.8748,-204.8706 251.3882,-195.3656"/>
<polygon fill="#191970" stroke="#191970" points="253.7638,-192.771 244.4928,-187.6427 248.5422,-197.4331 253.7638,-192.771"/>
</g>
<!-- Node10 -->
<g id="node11" class="node">
<title>Node10</title>
<g id="a_node11"><a xlink:href="saul_8h.html" target="_top" xlink:title="Definition of the generic [S]ensor [A]ctuator [U]ber [L]ayer. ">
<polygon fill="none" stroke="#000000" points="382.3833,-168.5 382.3833,-187.5 425.3833,-187.5 425.3833,-168.5 382.3833,-168.5"/>
<text text-anchor="middle" x="403.8833" y="-175.5" font-family="Helvetica,sans-Serif" font-size="10.00" fill="#000000">saul.h</text>
</a>
</g>
</g>
<!-- Node2&#45;&gt;Node10 -->
<g id="edge11" class="edge">
<title>Node2&#45;&gt;Node10</title>
<path fill="none" stroke="#191970" d="M306.1682,-224.3733C325.0253,-215.4241 353.3292,-201.9917 374.6288,-191.8835"/>
<polygon fill="#191970" stroke="#191970" points="376.3294,-194.9506 383.863,-187.5011 373.3282,-188.6266 376.3294,-194.9506"/>
</g>
<!-- Node4 -->
<g id="node5" class="node">
<title>Node4</title>
<polygon fill="none" stroke="#bfbfbf" points="334.3833,-56.5 334.3833,-75.5 383.3833,-75.5 383.3833,-56.5 334.3833,-56.5"/>
<text text-anchor="middle" x="358.8833" y="-63.5" font-family="Helvetica,sans-Serif" font-size="10.00" fill="#000000">stdint.h</text>
</g>
<!-- Node3&#45;&gt;Node4 -->
<g id="edge4" class="edge">
<title>Node3&#45;&gt;Node4</title>
<path fill="none" stroke="#191970" d="M242.9584,-168.3775C253.1278,-154.9033 272.8655,-130.0431 292.8833,-112 305.5725,-100.5625 321.2026,-89.5535 334.0667,-81.1746"/>
<polygon fill="#191970" stroke="#191970" points="336.3105,-83.895 342.8633,-75.5696 332.549,-77.9915 336.3105,-83.895"/>
</g>
<!-- Node5 -->
<g id="node6" class="node">
<title>Node5</title>
<polygon fill="none" stroke="#bfbfbf" points="419.8833,-.5 419.8833,-19.5 471.8833,-19.5 471.8833,-.5 419.8833,-.5"/>
<text text-anchor="middle" x="445.8833" y="-7.5" font-family="Helvetica,sans-Serif" font-size="10.00" fill="#000000">stddef.h</text>
</g>
<!-- Node3&#45;&gt;Node5 -->
<g id="edge5" class="edge">
<title>Node3&#45;&gt;Node5</title>
<path fill="none" stroke="#191970" d="M240.0502,-168.0883C245.9121,-154.7065 257.3982,-130.4179 270.8833,-112 291.4919,-83.8527 296.7074,-75.1248 325.8833,-56 351.7958,-39.0143 384.9061,-26.9208 409.7804,-19.41"/>
<polygon fill="#191970" stroke="#191970" points="410.9291,-22.721 419.5525,-16.5657 408.9727,-15.9999 410.9291,-22.721"/>
</g>
<!-- Node6 -->
<g id="node7" class="node">
<title>Node6</title>
<polygon fill="none" stroke="#bfbfbf" points="301.8833,-112.5 301.8833,-131.5 349.8833,-131.5 349.8833,-112.5 301.8833,-112.5"/>
<text text-anchor="middle" x="325.8833" y="-119.5" font-family="Helvetica,sans-Serif" font-size="10.00" fill="#000000">limits.h</text>
</g>
<!-- Node3&#45;&gt;Node6 -->
<g id="edge6" class="edge">
<title>Node3&#45;&gt;Node6</title>
<path fill="none" stroke="#191970" d="M251.5601,-168.2455C265.3688,-159.6534 285.7025,-147.0014 301.6125,-137.1018"/>
<polygon fill="#191970" stroke="#191970" points="303.7446,-139.8974 310.3861,-131.6427 300.0465,-133.954 303.7446,-139.8974"/>
</g>
<!-- Node7 -->
<g id="node8" class="node">
<title>Node7</title>
<polygon fill="none" stroke="#bfbfbf" points="33.3833,-56.5 33.3833,-75.5 108.3833,-75.5 108.3833,-56.5 33.3833,-56.5"/>
<text text-anchor="middle" x="70.8833" y="-63.5" font-family="Helvetica,sans-Serif" font-size="10.00" fill="#000000">periph_conf.h</text>
</g>
<!-- Node3&#45;&gt;Node7 -->
<g id="edge7" class="edge">
<title>Node3&#45;&gt;Node7</title>
<path fill="none" stroke="#191970" d="M202.1941,-176.3641C144.2271,-172.7669 29.4595,-161.9527 4.8833,-132 -10.7934,-112.8938 15.6349,-93.1275 39.563,-80.269"/>
<polygon fill="#191970" stroke="#191970" points="41.2048,-83.3607 48.5183,-75.6949 38.0206,-77.1267 41.2048,-83.3607"/>
</g>
<!-- Node8 -->
<g id="node9" class="node">
<title>Node8</title>
<polygon fill="none" stroke="#bfbfbf" points="13.8833,-112.5 13.8833,-131.5 85.8833,-131.5 85.8833,-112.5 13.8833,-112.5"/>
<text text-anchor="middle" x="49.8833" y="-119.5" font-family="Helvetica,sans-Serif" font-size="10.00" fill="#000000">periph_cpu.h</text>
</g>
<!-- Node3&#45;&gt;Node8 -->
<g id="edge8" class="edge">
<title>Node3&#45;&gt;Node8</title>
<path fill="none" stroke="#191970" d="M203.9087,-168.3733C172.712,-158.9807 125.1123,-144.6496 91.0901,-134.4064"/>
<polygon fill="#191970" stroke="#191970" points="92.025,-131.0327 81.4406,-131.5011 90.0069,-137.7355 92.025,-131.0327"/>
</g>
<!-- Node9 -->
<g id="node10" class="node">
<title>Node9</title>
<g id="a_node10"><a xlink:href="dev__enums_8h.html" target="_top" xlink:title="Device enumerations for backward compatibility with existing peripheral driver implementations. ">
<polygon fill="none" stroke="#000000" points="103.8833,-112.5 103.8833,-131.5 207.8833,-131.5 207.8833,-112.5 103.8833,-112.5"/>
<text text-anchor="middle" x="155.8833" y="-119.5" font-family="Helvetica,sans-Serif" font-size="10.00" fill="#000000">periph/dev_enums.h</text>
</a>
</g>
</g>
<!-- Node3&#45;&gt;Node9 -->
<g id="edge9" class="edge">
<title>Node3&#45;&gt;Node9</title>
<path fill="none" stroke="#191970" d="M221.9483,-168.2455C209.7886,-159.7337 191.9368,-147.2375 177.8548,-137.3801"/>
<polygon fill="#191970" stroke="#191970" points="179.858,-134.51 169.6585,-131.6427 175.8437,-140.2447 179.858,-134.51"/>
</g>
<!-- Node9&#45;&gt;Node7 -->
<g id="edge10" class="edge">
<title>Node9&#45;&gt;Node7</title>
<path fill="none" stroke="#191970" d="M141.0774,-112.2455C128.1577,-103.7337 109.1902,-91.2375 94.228,-81.3801"/>
<polygon fill="#191970" stroke="#191970" points="95.7957,-78.2216 85.5195,-75.6427 91.9445,-84.067 95.7957,-78.2216"/>
</g>
<!-- Node10&#45;&gt;Node4 -->
<g id="edge12" class="edge">
<title>Node10&#45;&gt;Node4</title>
<path fill="none" stroke="#191970" d="M400.0466,-168.4509C392.6408,-150.0186 376.2506,-109.2254 366.5345,-85.043"/>
<polygon fill="#191970" stroke="#191970" points="369.6861,-83.499 362.7102,-75.5249 363.1908,-86.1088 369.6861,-83.499"/>
</g>
<!-- Node11 -->
<g id="node12" class="node">
<title>Node11</title>
<g id="a_node12"><a xlink:href="errno_8h.html" target="_top" xlink:title="errno.h">
<polygon fill="none" stroke="#000000" points="406.3833,-112.5 406.3833,-131.5 453.3833,-131.5 453.3833,-112.5 406.3833,-112.5"/>
<text text-anchor="middle" x="429.8833" y="-119.5" font-family="Helvetica,sans-Serif" font-size="10.00" fill="#000000">errno.h</text>
</a>
</g>
</g>
<!-- Node10&#45;&gt;Node11 -->
<g id="edge13" class="edge">
<title>Node10&#45;&gt;Node11</title>
<path fill="none" stroke="#191970" d="M408.4121,-168.2455C411.9167,-160.6973 416.876,-150.0158 421.1455,-140.8197"/>
<polygon fill="#191970" stroke="#191970" points="424.3697,-142.1867 425.4063,-131.6427 418.0206,-139.2389 424.3697,-142.1867"/>
</g>
<!-- Node12 -->
<g id="node13" class="node">
<title>Node12</title>
<g id="a_node13"><a xlink:href="phydat_8h.html" target="_top" xlink:title="Generic data container for physical data interface. ">
<polygon fill="none" stroke="#000000" points="471.8833,-112.5 471.8833,-131.5 525.8833,-131.5 525.8833,-112.5 471.8833,-112.5"/>
<text text-anchor="middle" x="498.8833" y="-119.5" font-family="Helvetica,sans-Serif" font-size="10.00" fill="#000000">phydat.h</text>
</a>
</g>
</g>
<!-- Node10&#45;&gt;Node12 -->
<g id="edge14" class="edge">
<title>Node10&#45;&gt;Node12</title>
<path fill="none" stroke="#191970" d="M420.431,-168.2455C435.1431,-159.5731 456.872,-146.7645 473.7338,-136.825"/>
<polygon fill="#191970" stroke="#191970" points="475.6878,-139.736 482.5252,-131.6427 472.1331,-133.7057 475.6878,-139.736"/>
</g>
<!-- Node12&#45;&gt;Node4 -->
<g id="edge16" class="edge">
<title>Node12&#45;&gt;Node4</title>
<path fill="none" stroke="#191970" d="M474.8164,-112.3733C452.0404,-103.2629 417.6489,-89.5062 392.2342,-79.3404"/>
<polygon fill="#191970" stroke="#191970" points="393.2207,-75.9654 382.6361,-75.5011 390.621,-82.4648 393.2207,-75.9654"/>
</g>
<!-- Node12&#45;&gt;Node5 -->
<g id="edge15" class="edge">
<title>Node12&#45;&gt;Node5</title>
<path fill="none" stroke="#191970" d="M501.3354,-112.0677C504.1146,-98.6626 507.2534,-74.3476 498.8833,-56 493.1943,-43.5296 482.2701,-33.1361 471.8106,-25.4023"/>
<polygon fill="#191970" stroke="#191970" points="473.487,-22.3082 463.259,-19.5442 469.531,-28.0832 473.487,-22.3082"/>
</g>
<!-- Node13 -->
<g id="node14" class="node">
<title>Node13</title>
<g id="a_node14"><a xlink:href="kernel__defines_8h.html" target="_top" xlink:title="Common macros and compiler attributes/pragmas configuration. ">
<polygon fill="none" stroke="#000000" points="401.8833,-56.5 401.8833,-75.5 489.8833,-75.5 489.8833,-56.5 401.8833,-56.5"/>
<text text-anchor="middle" x="445.8833" y="-63.5" font-family="Helvetica,sans-Serif" font-size="10.00" fill="#000000">kernel_defines.h</text>
</a>
</g>
</g>
<!-- Node12&#45;&gt;Node13 -->
<g id="edge17" class="edge">
<title>Node12&#45;&gt;Node13</title>
<path fill="none" stroke="#191970" d="M489.6514,-112.2455C482.0515,-104.2155 471.0955,-92.6394 462.0465,-83.0781"/>
<polygon fill="#191970" stroke="#191970" points="464.4253,-80.4998 455.0094,-75.6427 459.3412,-85.3115 464.4253,-80.4998"/>
</g>
<!-- Node13&#45;&gt;Node5 -->
<g id="edge18" class="edge">
<title>Node13&#45;&gt;Node5</title>
<path fill="none" stroke="#191970" d="M445.8833,-56.2455C445.8833,-48.9382 445.8833,-38.6944 445.8833,-29.7046"/>
<polygon fill="#191970" stroke="#191970" points="449.3834,-29.6426 445.8833,-19.6427 442.3834,-29.6427 449.3834,-29.6426"/>
</g>
</g>
</svg>
