<?xml version="1.0" encoding="UTF-8" standalone="no"?>
<!DOCTYPE svg PUBLIC "-//W3C//DTD SVG 1.1//EN"
 "http://www.w3.org/Graphics/SVG/1.1/DTD/svg11.dtd">
<!-- Generated by graphviz version 2.43.0 (0)
 -->
<!-- Title: drivers/include/kw2xrf.h Pages: 1 -->
<svg width="1116pt" height="420pt"
 viewBox="0.00 0.00 1116.00 420.00" xmlns="http://www.w3.org/2000/svg" xmlns:xlink="http://www.w3.org/1999/xlink">
<g id="graph0" class="graph" transform="scale(1 1) rotate(0) translate(4 416)">
<title>drivers/include/kw2xrf.h</title>
<!-- Node1 -->
<g id="node1" class="node">
<title>Node1</title>
<g id="a_node1"><a xlink:title="Interface definition for the kw2xrf driver.">
<polygon fill="#bfbfbf" stroke="black" points="407,-392.5 407,-411.5 541,-411.5 541,-392.5 407,-392.5"/>
<text text-anchor="middle" x="474" y="-399.5" font-family="Helvetica,sans-Serif" font-size="10.00">drivers/include/kw2xrf.h</text>
</a>
</g>
</g>
<!-- Node2 -->
<g id="node2" class="node">
<title>Node2</title>
<g id="a_node2"><a xlink:title=" ">
<polygon fill="none" stroke="#bfbfbf" points="526.5,-0.5 526.5,-19.5 579.5,-19.5 579.5,-0.5 526.5,-0.5"/>
<text text-anchor="middle" x="553" y="-7.5" font-family="Helvetica,sans-Serif" font-size="10.00">stdint.h</text>
</a>
</g>
</g>
<!-- Node1&#45;&gt;Node2 -->
<g id="edge1" class="edge">
<title>Node1&#45;&gt;Node2</title>
<path fill="none" stroke="midnightblue" d="M519.43,-392.46C589.14,-376.7 720.76,-335.86 781,-244 827.03,-173.81 831.72,-104.2 763,-56 710.86,-19.43 634.81,-11.63 589.97,-10.48"/>
<polygon fill="midnightblue" stroke="midnightblue" points="589.87,-6.98 579.81,-10.33 589.76,-13.98 589.87,-6.98"/>
</g>
<!-- Node3 -->
<g id="node3" class="node">
<title>Node3</title>
<g id="a_node3"><a xlink:title=" ">
<polygon fill="none" stroke="#bfbfbf" points="148.5,-336.5 148.5,-355.5 201.5,-355.5 201.5,-336.5 148.5,-336.5"/>
<text text-anchor="middle" x="175" y="-343.5" font-family="Helvetica,sans-Serif" font-size="10.00">board.h</text>
</a>
</g>
</g>
<!-- Node1&#45;&gt;Node3 -->
<g id="edge2" class="edge">
<title>Node1&#45;&gt;Node3</title>
<path fill="none" stroke="midnightblue" d="M416.82,-392.49C365.58,-384.58 288.16,-371.91 211.51,-355.97"/>
<polygon fill="midnightblue" stroke="midnightblue" points="212.19,-352.54 201.68,-353.91 210.75,-359.39 212.19,-352.54"/>
</g>
<!-- Node4 -->
<g id="node4" class="node">
<title>Node4</title>
<g id="a_node4"><a xlink:href="spi_8h.html" target="_top" xlink:title="Low&#45;level SPI peripheral driver interface definition.">
<polygon fill="none" stroke="black" points="220,-336.5 220,-355.5 294,-355.5 294,-336.5 220,-336.5"/>
<text text-anchor="middle" x="257" y="-343.5" font-family="Helvetica,sans-Serif" font-size="10.00">periph/spi.h</text>
</a>
</g>
</g>
<!-- Node1&#45;&gt;Node4 -->
<g id="edge3" class="edge">
<title>Node1&#45;&gt;Node4</title>
<path fill="none" stroke="midnightblue" d="M439.62,-392.44C402.08,-383.1 341.87,-368.12 300.93,-357.93"/>
<polygon fill="midnightblue" stroke="midnightblue" points="301.77,-354.53 291.22,-355.52 300.08,-361.33 301.77,-354.53"/>
</g>
<!-- Node10 -->
<g id="node10" class="node">
<title>Node10</title>
<g id="a_node10"><a xlink:href="gpio_8h.html" target="_top" xlink:title="Low&#45;level GPIO peripheral driver interface definitions.">
<polygon fill="none" stroke="black" points="80,-280.5 80,-299.5 160,-299.5 160,-280.5 80,-280.5"/>
<text text-anchor="middle" x="120" y="-287.5" font-family="Helvetica,sans-Serif" font-size="10.00">periph/gpio.h</text>
</a>
</g>
</g>
<!-- Node1&#45;&gt;Node10 -->
<g id="edge14" class="edge">
<title>Node1&#45;&gt;Node10</title>
<path fill="none" stroke="midnightblue" d="M406.67,-400.4C320.59,-398.23 178,-389.52 139,-356 125.78,-344.64 121.5,-324.65 120.24,-309.82"/>
<polygon fill="midnightblue" stroke="midnightblue" points="123.73,-309.55 119.76,-299.72 116.74,-309.88 123.73,-309.55"/>
</g>
<!-- Node11 -->
<g id="node11" class="node">
<title>Node11</title>
<g id="a_node11"><a xlink:href="drivers_2include_2net_2netdev_8h.html" target="_top" xlink:title="Definitions low&#45;level network driver interface.">
<polygon fill="none" stroke="black" points="345.5,-224.5 345.5,-243.5 422.5,-243.5 422.5,-224.5 345.5,-224.5"/>
<text text-anchor="middle" x="384" y="-231.5" font-family="Helvetica,sans-Serif" font-size="10.00">net/netdev.h</text>
</a>
</g>
</g>
<!-- Node1&#45;&gt;Node11 -->
<g id="edge15" class="edge">
<title>Node1&#45;&gt;Node11</title>
<path fill="none" stroke="midnightblue" d="M469.16,-392.08C454.87,-365.72 412.67,-287.88 393.58,-252.66"/>
<polygon fill="midnightblue" stroke="midnightblue" points="396.49,-250.69 388.65,-243.57 390.33,-254.03 396.49,-250.69"/>
</g>
<!-- Node18 -->
<g id="node18" class="node">
<title>Node18</title>
<g id="a_node18"><a xlink:href="drivers_2include_2net_2netdev_2ieee802154_8h.html" target="_top" xlink:title="Definitions for netdev common IEEE 802.15.4 code.">
<polygon fill="none" stroke="black" points="459,-336.5 459,-355.5 597,-355.5 597,-336.5 459,-336.5"/>
<text text-anchor="middle" x="528" y="-343.5" font-family="Helvetica,sans-Serif" font-size="10.00">net/netdev/ieee802154.h</text>
</a>
</g>
</g>
<!-- Node1&#45;&gt;Node18 -->
<g id="edge29" class="edge">
<title>Node1&#45;&gt;Node18</title>
<path fill="none" stroke="midnightblue" d="M482.92,-392.08C490.78,-384.22 502.43,-372.57 511.92,-363.08"/>
<polygon fill="midnightblue" stroke="midnightblue" points="514.65,-365.3 519.25,-355.75 509.7,-360.35 514.65,-365.3"/>
</g>
<!-- Node26 -->
<g id="node26" class="node">
<title>Node26</title>
<g id="a_node26"><a xlink:href="nettype_8h.html" target="_top" xlink:title="Protocol type definitions.">
<polygon fill="none" stroke="black" points="823,-280.5 823,-299.5 929,-299.5 929,-280.5 823,-280.5"/>
<text text-anchor="middle" x="876" y="-287.5" font-family="Helvetica,sans-Serif" font-size="10.00">net/gnrc/nettype.h</text>
</a>
</g>
</g>
<!-- Node1&#45;&gt;Node26 -->
<g id="edge53" class="edge">
<title>Node1&#45;&gt;Node26</title>
<path fill="none" stroke="midnightblue" d="M541.32,-396.94C625.21,-391.03 763.14,-378.26 809,-356 831.91,-344.88 851.94,-322.92 864,-307.61"/>
<polygon fill="midnightblue" stroke="midnightblue" points="866.89,-309.59 870.13,-299.51 861.31,-305.37 866.89,-309.59"/>
</g>
<!-- Node30 -->
<g id="node30" class="node">
<title>Node30</title>
<g id="a_node30"><a xlink:title=" ">
<polygon fill="none" stroke="#bfbfbf" points="861.5,-336.5 861.5,-355.5 918.5,-355.5 918.5,-336.5 861.5,-336.5"/>
<text text-anchor="middle" x="890" y="-343.5" font-family="Helvetica,sans-Serif" font-size="10.00">thread.h</text>
</a>
</g>
</g>
<!-- Node1&#45;&gt;Node30 -->
<g id="edge54" class="edge">
<title>Node1&#45;&gt;Node30</title>
<path fill="none" stroke="midnightblue" d="M541.29,-394.65C616.17,-387.17 740.65,-373.51 847,-356 848.46,-355.76 849.94,-355.5 851.44,-355.24"/>
<polygon fill="midnightblue" stroke="midnightblue" points="852.21,-358.65 861.38,-353.35 850.91,-351.78 852.21,-358.65"/>
</g>
<!-- Node4&#45;&gt;Node2 -->
<g id="edge6" class="edge">
<title>Node4&#45;&gt;Node2</title>
<path fill="none" stroke="midnightblue" d="M280.45,-336.41C296.16,-329.28 315.62,-317.46 325,-300 329.21,-292.17 326.9,-288.68 325,-280 307.79,-201.31 217.88,-182.41 257,-112 279.88,-70.82 303.35,-73.73 347,-56 403.75,-32.95 474.32,-20.81 516.4,-15.16"/>
<polygon fill="midnightblue" stroke="midnightblue" points="516.99,-18.61 526.46,-13.86 516.09,-11.67 516.99,-18.61"/>
</g>
<!-- Node5 -->
<g id="node5" class="node">
<title>Node5</title>
<g id="a_node5"><a xlink:title=" ">
<polygon fill="none" stroke="#bfbfbf" points="254,-280.5 254,-299.5 316,-299.5 316,-280.5 254,-280.5"/>
<text text-anchor="middle" x="285" y="-287.5" font-family="Helvetica,sans-Serif" font-size="10.00">stdbool.h</text>
</a>
</g>
</g>
<!-- Node4&#45;&gt;Node5 -->
<g id="edge4" class="edge">
<title>Node4&#45;&gt;Node5</title>
<path fill="none" stroke="midnightblue" d="M261.62,-336.08C265.46,-328.69 271.02,-317.95 275.76,-308.81"/>
<polygon fill="midnightblue" stroke="midnightblue" points="278.97,-310.24 280.46,-299.75 272.75,-307.02 278.97,-310.24"/>
</g>
<!-- Node6 -->
<g id="node6" class="node">
<title>Node6</title>
<g id="a_node6"><a xlink:title=" ">
<polygon fill="none" stroke="#bfbfbf" points="48,-0.5 48,-19.5 104,-19.5 104,-0.5 48,-0.5"/>
<text text-anchor="middle" x="76" y="-7.5" font-family="Helvetica,sans-Serif" font-size="10.00">stddef.h</text>
</a>
</g>
</g>
<!-- Node4&#45;&gt;Node6 -->
<g id="edge5" class="edge">
<title>Node4&#45;&gt;Node6</title>
<path fill="none" stroke="midnightblue" d="M219.92,-337.33C163.81,-325.63 63.05,-304.23 56,-300 23.29,-280.4 0,-273.13 0,-235 0,-235 0,-235 0,-121 0,-81.28 33.96,-45.5 56.48,-26.15"/>
<polygon fill="midnightblue" stroke="midnightblue" points="58.98,-28.63 64.46,-19.57 54.52,-23.24 58.98,-28.63"/>
</g>
<!-- Node7 -->
<g id="node7" class="node">
<title>Node7</title>
<g id="a_node7"><a xlink:title=" ">
<polygon fill="none" stroke="#bfbfbf" points="28.5,-224.5 28.5,-243.5 81.5,-243.5 81.5,-224.5 28.5,-224.5"/>
<text text-anchor="middle" x="55" y="-231.5" font-family="Helvetica,sans-Serif" font-size="10.00">limits.h</text>
</a>
</g>
</g>
<!-- Node4&#45;&gt;Node7 -->
<g id="edge7" class="edge">
<title>Node4&#45;&gt;Node7</title>
<path fill="none" stroke="midnightblue" d="M219.83,-337.04C167.1,-325.6 76.33,-305.3 71,-300 58.92,-287.96 55.43,-268.36 54.65,-253.83"/>
<polygon fill="midnightblue" stroke="midnightblue" points="58.15,-253.45 54.5,-243.5 51.15,-253.55 58.15,-253.45"/>
</g>
<!-- Node8 -->
<g id="node8" class="node">
<title>Node8</title>
<g id="a_node8"><a xlink:title=" ">
<polygon fill="none" stroke="#bfbfbf" points="99.5,-224.5 99.5,-243.5 178.5,-243.5 178.5,-224.5 99.5,-224.5"/>
<text text-anchor="middle" x="139" y="-231.5" font-family="Helvetica,sans-Serif" font-size="10.00">periph_cpu.h</text>
</a>
</g>
</g>
<!-- Node4&#45;&gt;Node8 -->
<g id="edge8" class="edge">
<title>Node4&#45;&gt;Node8</title>
<path fill="none" stroke="midnightblue" d="M247.74,-336.37C227.84,-317.81 180.74,-273.91 155.56,-250.44"/>
<polygon fill="midnightblue" stroke="midnightblue" points="157.92,-247.85 148.22,-243.59 153.14,-252.97 157.92,-247.85"/>
</g>
<!-- Node9 -->
<g id="node9" class="node">
<title>Node9</title>
<g id="a_node9"><a xlink:title=" ">
<polygon fill="none" stroke="#bfbfbf" points="197,-224.5 197,-243.5 279,-243.5 279,-224.5 197,-224.5"/>
<text text-anchor="middle" x="238" y="-231.5" font-family="Helvetica,sans-Serif" font-size="10.00">periph_conf.h</text>
</a>
</g>
</g>
<!-- Node4&#45;&gt;Node9 -->
<g id="edge9" class="edge">
<title>Node4&#45;&gt;Node9</title>
<path fill="none" stroke="midnightblue" d="M254.3,-336.46C251.56,-327.48 247.4,-312.88 245,-300 242.14,-284.64 240.33,-267 239.27,-253.98"/>
<polygon fill="midnightblue" stroke="midnightblue" points="242.75,-253.61 238.52,-243.89 235.77,-254.13 242.75,-253.61"/>
</g>
<!-- Node4&#45;&gt;Node10 -->
<g id="edge10" class="edge">
<title>Node4&#45;&gt;Node10</title>
<path fill="none" stroke="midnightblue" d="M235.29,-336.44C212.65,-327.52 176.93,-313.44 151.25,-303.32"/>
<polygon fill="midnightblue" stroke="midnightblue" points="152.19,-299.93 141.61,-299.52 149.63,-306.44 152.19,-299.93"/>
</g>
<!-- Node10&#45;&gt;Node7 -->
<g id="edge11" class="edge">
<title>Node10&#45;&gt;Node7</title>
<path fill="none" stroke="midnightblue" d="M109.56,-280.32C99.85,-272.26 85.18,-260.08 73.5,-250.37"/>
<polygon fill="midnightblue" stroke="midnightblue" points="75.56,-247.53 65.63,-243.83 71.09,-252.92 75.56,-247.53"/>
</g>
<!-- Node10&#45;&gt;Node8 -->
<g id="edge12" class="edge">
<title>Node10&#45;&gt;Node8</title>
<path fill="none" stroke="midnightblue" d="M123.14,-280.08C125.68,-272.85 129.36,-262.41 132.53,-253.4"/>
<polygon fill="midnightblue" stroke="midnightblue" points="135.9,-254.35 135.92,-243.75 129.3,-252.02 135.9,-254.35"/>
</g>
<!-- Node10&#45;&gt;Node9 -->
<g id="edge13" class="edge">
<title>Node10&#45;&gt;Node9</title>
<path fill="none" stroke="midnightblue" d="M138.7,-280.44C157.94,-271.64 188.15,-257.81 210.2,-247.72"/>
<polygon fill="midnightblue" stroke="midnightblue" points="211.75,-250.86 219.39,-243.52 208.84,-244.5 211.75,-250.86"/>
</g>
<!-- Node11&#45;&gt;Node2 -->
<g id="edge16" class="edge">
<title>Node11&#45;&gt;Node2</title>
<path fill="none" stroke="midnightblue" d="M385,-224.49C386.8,-211.56 391.45,-186.51 402,-168 436.92,-106.73 501.08,-51.42 533.36,-25.9"/>
<polygon fill="midnightblue" stroke="midnightblue" points="535.83,-28.41 541.57,-19.51 531.53,-22.89 535.83,-28.41"/>
</g>
<!-- Node12 -->
<g id="node12" class="node">
<title>Node12</title>
<g id="a_node12"><a xlink:href="errno_8h.html" target="_top" xlink:title=" ">
<polygon fill="none" stroke="black" points="303.5,-168.5 303.5,-187.5 354.5,-187.5 354.5,-168.5 303.5,-168.5"/>
<text text-anchor="middle" x="329" y="-175.5" font-family="Helvetica,sans-Serif" font-size="10.00">errno.h</text>
</a>
</g>
</g>
<!-- Node11&#45;&gt;Node12 -->
<g id="edge17" class="edge">
<title>Node11&#45;&gt;Node12</title>
<path fill="none" stroke="midnightblue" d="M374.92,-224.08C366.83,-216.14 354.8,-204.34 345.09,-194.8"/>
<polygon fill="midnightblue" stroke="midnightblue" points="347.5,-192.26 337.91,-187.75 342.6,-197.25 347.5,-192.26"/>
</g>
<!-- Node13 -->
<g id="node13" class="node">
<title>Node13</title>
<g id="a_node13"><a xlink:href="iolist_8h.html" target="_top" xlink:title="iolist scatter / gather IO">
<polygon fill="none" stroke="black" points="150,-168.5 150,-187.5 200,-187.5 200,-168.5 150,-168.5"/>
<text text-anchor="middle" x="175" y="-175.5" font-family="Helvetica,sans-Serif" font-size="10.00">iolist.h</text>
</a>
</g>
</g>
<!-- Node11&#45;&gt;Node13 -->
<g id="edge18" class="edge">
<title>Node11&#45;&gt;Node13</title>
<path fill="none" stroke="midnightblue" d="M350.88,-224.44C312.42,-214.51 249.25,-198.18 210,-188.04"/>
<polygon fill="midnightblue" stroke="midnightblue" points="210.65,-184.6 200.09,-185.48 208.9,-191.37 210.65,-184.6"/>
</g>
<!-- Node16 -->
<g id="node16" class="node">
<title>Node16</title>
<g id="a_node16"><a xlink:href="netopt_8h.html" target="_top" xlink:title="Definition of global configuration options.">
<polygon fill="none" stroke="black" points="411,-168.5 411,-187.5 487,-187.5 487,-168.5 411,-168.5"/>
<text text-anchor="middle" x="449" y="-175.5" font-family="Helvetica,sans-Serif" font-size="10.00">net/netopt.h</text>
</a>
</g>
</g>
<!-- Node11&#45;&gt;Node16 -->
<g id="edge25" class="edge">
<title>Node11&#45;&gt;Node16</title>
<path fill="none" stroke="midnightblue" d="M394.44,-224.32C404.15,-216.26 418.82,-204.08 430.5,-194.37"/>
<polygon fill="midnightblue" stroke="midnightblue" points="432.91,-196.92 438.37,-187.83 428.44,-191.53 432.91,-196.92"/>
</g>
<!-- Node17 -->
<g id="node17" class="node">
<title>Node17</title>
<g id="a_node17"><a xlink:href="kernel__defines_8h.html" target="_top" xlink:title="Common macros and compiler attributes/pragmas configuration.">
<polygon fill="none" stroke="black" points="265.5,-112.5 265.5,-131.5 362.5,-131.5 362.5,-112.5 265.5,-112.5"/>
<text text-anchor="middle" x="314" y="-119.5" font-family="Helvetica,sans-Serif" font-size="10.00">kernel_defines.h</text>
</a>
</g>
</g>
<!-- Node11&#45;&gt;Node17 -->
<g id="edge26" class="edge">
<title>Node11&#45;&gt;Node17</title>
<path fill="none" stroke="midnightblue" d="M347.3,-224.35C328.17,-217.77 306.43,-206.58 295,-188 285.89,-173.19 293.65,-153.8 301.82,-140.07"/>
<polygon fill="midnightblue" stroke="midnightblue" points="304.82,-141.87 307.35,-131.58 298.95,-138.05 304.82,-141.87"/>
</g>
<!-- Node14 -->
<g id="node14" class="node">
<title>Node14</title>
<g id="a_node14"><a xlink:href="unistd_8h_source.html" target="_top" xlink:title=" ">
<polygon fill="none" stroke="black" points="141,-112.5 141,-131.5 197,-131.5 197,-112.5 141,-112.5"/>
<text text-anchor="middle" x="169" y="-119.5" font-family="Helvetica,sans-Serif" font-size="10.00">unistd.h</text>
</a>
</g>
</g>
<!-- Node13&#45;&gt;Node14 -->
<g id="edge19" class="edge">
<title>Node13&#45;&gt;Node14</title>
<path fill="none" stroke="midnightblue" d="M174.01,-168.08C173.21,-160.93 172.07,-150.64 171.08,-141.69"/>
<polygon fill="midnightblue" stroke="midnightblue" points="174.56,-141.3 169.97,-131.75 167.6,-142.08 174.56,-141.3"/>
</g>
<!-- Node14&#45;&gt;Node2 -->
<g id="edge21" class="edge">
<title>Node14&#45;&gt;Node2</title>
<path fill="none" stroke="midnightblue" d="M176.59,-112.08C189.46,-97.63 217.07,-69.38 247,-56 337.64,-15.48 456.98,-10.02 516.27,-10.11"/>
<polygon fill="midnightblue" stroke="midnightblue" points="516.26,-13.61 526.29,-10.18 516.31,-6.61 516.26,-13.61"/>
</g>
<!-- Node14&#45;&gt;Node6 -->
<g id="edge20" class="edge">
<title>Node14&#45;&gt;Node6</title>
<path fill="none" stroke="midnightblue" d="M140.65,-114.38C120.46,-108.07 94.6,-96.42 81,-76 72.08,-62.6 71.53,-44.04 72.8,-30.18"/>
<polygon fill="midnightblue" stroke="midnightblue" points="76.32,-30.23 74.15,-19.86 69.38,-29.32 76.32,-30.23"/>
</g>
<!-- Node15 -->
<g id="node15" class="node">
<title>Node15</title>
<g id="a_node15"><a xlink:href="cpu_2atmega__common_2avr__libc__extra_2include_2sys_2types_8h_source.html" target="_top" xlink:title=" ">
<polygon fill="none" stroke="black" points="123,-56.5 123,-75.5 195,-75.5 195,-56.5 123,-56.5"/>
<text text-anchor="middle" x="159" y="-63.5" font-family="Helvetica,sans-Serif" font-size="10.00">sys/types.h</text>
</a>
</g>
</g>
<!-- Node14&#45;&gt;Node15 -->
<g id="edge22" class="edge">
<title>Node14&#45;&gt;Node15</title>
<path fill="none" stroke="midnightblue" d="M167.35,-112.08C166.02,-104.93 164.12,-94.64 162.46,-85.69"/>
<polygon fill="midnightblue" stroke="midnightblue" points="165.88,-84.95 160.62,-75.75 159,-86.22 165.88,-84.95"/>
</g>
<!-- Node15&#45;&gt;Node2 -->
<g id="edge23" class="edge">
<title>Node15&#45;&gt;Node2</title>
<path fill="none" stroke="midnightblue" d="M195.02,-58.3C199.71,-57.49 204.47,-56.7 209,-56 320.4,-38.7 452.79,-22.64 515.93,-15.26"/>
<polygon fill="midnightblue" stroke="midnightblue" points="516.65,-18.7 526.18,-14.06 515.84,-11.74 516.65,-18.7"/>
</g>
<!-- Node15&#45;&gt;Node6 -->
<g id="edge24" class="edge">
<title>Node15&#45;&gt;Node6</title>
<path fill="none" stroke="midnightblue" d="M145.66,-56.32C132.84,-47.98 113.22,-35.21 98.06,-25.35"/>
<polygon fill="midnightblue" stroke="midnightblue" points="99.59,-22.17 89.3,-19.65 95.78,-28.04 99.59,-22.17"/>
</g>
<!-- Node17&#45;&gt;Node2 -->
<g id="edge28" class="edge">
<title>Node17&#45;&gt;Node2</title>
<path fill="none" stroke="midnightblue" d="M319.88,-112.37C329.92,-98.33 351.72,-70.67 377,-56 420.7,-30.65 478.62,-19.4 515.86,-14.54"/>
<polygon fill="midnightblue" stroke="midnightblue" points="516.74,-17.96 526.25,-13.28 515.9,-11.01 516.74,-17.96"/>
</g>
<!-- Node17&#45;&gt;Node6 -->
<g id="edge27" class="edge">
<title>Node17&#45;&gt;Node6</title>
<path fill="none" stroke="midnightblue" d="M265.14,-114.56C213.93,-107.02 137.7,-93.33 114,-76 98.21,-64.45 87.89,-44.19 82.05,-29.35"/>
<polygon fill="midnightblue" stroke="midnightblue" points="85.25,-27.92 78.57,-19.7 78.67,-30.3 85.25,-27.92"/>
</g>
<!-- Node18&#45;&gt;Node11 -->
<g id="edge52" class="edge">
<title>Node18&#45;&gt;Node11</title>
<path fill="none" stroke="midnightblue" d="M513.85,-336.35C499.85,-327.63 477.97,-313.55 460,-300 438.95,-284.12 416.12,-264.21 401.04,-250.63"/>
<polygon fill="midnightblue" stroke="midnightblue" points="403.28,-247.94 393.52,-243.81 398.58,-253.12 403.28,-247.94"/>
</g>
<!-- Node18&#45;&gt;Node16 -->
<g id="edge51" class="edge">
<title>Node18&#45;&gt;Node16</title>
<path fill="none" stroke="midnightblue" d="M523.75,-336.08C511.21,-309.72 474.16,-231.88 457.4,-196.66"/>
<polygon fill="midnightblue" stroke="midnightblue" points="460.54,-195.09 453.08,-187.57 454.21,-198.1 460.54,-195.09"/>
</g>
<!-- Node19 -->
<g id="node19" class="node">
<title>Node19</title>
<g id="a_node19"><a xlink:href="eui__provider_8h.html" target="_top" xlink:title="EUI&#45;48 and EUI&#45;64 address provider.">
<polygon fill="none" stroke="black" points="515.5,-280.5 515.5,-299.5 620.5,-299.5 620.5,-280.5 515.5,-280.5"/>
<text text-anchor="middle" x="568" y="-287.5" font-family="Helvetica,sans-Serif" font-size="10.00">net/eui_provider.h</text>
</a>
</g>
</g>
<!-- Node18&#45;&gt;Node19 -->
<g id="edge30" class="edge">
<title>Node18&#45;&gt;Node19</title>
<path fill="none" stroke="midnightblue" d="M534.61,-336.08C540.26,-328.46 548.54,-317.26 555.45,-307.94"/>
<polygon fill="midnightblue" stroke="midnightblue" points="558.38,-309.87 561.52,-299.75 552.75,-305.7 558.38,-309.87"/>
</g>
<!-- Node24 -->
<g id="node24" class="node">
<title>Node24</title>
<g id="a_node24"><a xlink:href="sys_2include_2net_2ieee802154_8h.html" target="_top" xlink:title="IEEE 802.15.4 header definitions.">
<polygon fill="none" stroke="black" points="670.5,-224.5 670.5,-243.5 771.5,-243.5 771.5,-224.5 670.5,-224.5"/>
<text text-anchor="middle" x="721" y="-231.5" font-family="Helvetica,sans-Serif" font-size="10.00">net/ieee802154.h</text>
</a>
</g>
</g>
<!-- Node18&#45;&gt;Node24 -->
<g id="edge41" class="edge">
<title>Node18&#45;&gt;Node24</title>
<path fill="none" stroke="midnightblue" d="M550.93,-336.45C572.04,-328.22 603.93,-314.85 630,-300 656.53,-284.89 684.81,-263.81 702.67,-249.8"/>
<polygon fill="midnightblue" stroke="midnightblue" points="704.89,-252.51 710.55,-243.55 700.54,-247.02 704.89,-252.51"/>
</g>
<!-- Node18&#45;&gt;Node26 -->
<g id="edge46" class="edge">
<title>Node18&#45;&gt;Node26</title>
<path fill="none" stroke="midnightblue" d="M583.14,-336.44C645.54,-326.76 747,-311.02 812.62,-300.84"/>
<polygon fill="midnightblue" stroke="midnightblue" points="813.48,-304.24 822.83,-299.25 812.41,-297.33 813.48,-304.24"/>
</g>
<!-- Node19&#45;&gt;Node11 -->
<g id="edge40" class="edge">
<title>Node19&#45;&gt;Node11</title>
<path fill="none" stroke="midnightblue" d="M538.84,-280.44C507.49,-271.24 457.47,-256.56 422.8,-246.39"/>
<polygon fill="midnightblue" stroke="midnightblue" points="423.6,-242.97 413.02,-243.52 421.63,-249.69 423.6,-242.97"/>
</g>
<!-- Node20 -->
<g id="node20" class="node">
<title>Node20</title>
<g id="a_node20"><a xlink:href="eui48_8h.html" target="_top" xlink:title="Definition and IPv6 IID conversion for IEEE EUI&#45;48 identifiers.">
<polygon fill="none" stroke="black" points="542.5,-224.5 542.5,-243.5 613.5,-243.5 613.5,-224.5 542.5,-224.5"/>
<text text-anchor="middle" x="578" y="-231.5" font-family="Helvetica,sans-Serif" font-size="10.00">net/eui48.h</text>
</a>
</g>
</g>
<!-- Node19&#45;&gt;Node20 -->
<g id="edge31" class="edge">
<title>Node19&#45;&gt;Node20</title>
<path fill="none" stroke="midnightblue" d="M569.65,-280.08C570.98,-272.93 572.88,-262.64 574.54,-253.69"/>
<polygon fill="midnightblue" stroke="midnightblue" points="578,-254.22 576.38,-243.75 571.12,-252.95 578,-254.22"/>
</g>
<!-- Node21 -->
<g id="node21" class="node">
<title>Node21</title>
<g id="a_node21"><a xlink:href="eui64_8h.html" target="_top" xlink:title="EUI&#45;64 data type definition.">
<polygon fill="none" stroke="black" points="581.5,-168.5 581.5,-187.5 652.5,-187.5 652.5,-168.5 581.5,-168.5"/>
<text text-anchor="middle" x="617" y="-175.5" font-family="Helvetica,sans-Serif" font-size="10.00">net/eui64.h</text>
</a>
</g>
</g>
<!-- Node19&#45;&gt;Node21 -->
<g id="edge39" class="edge">
<title>Node19&#45;&gt;Node21</title>
<path fill="none" stroke="midnightblue" d="M585.2,-280.39C598.25,-272.79 615.23,-260.39 623,-244 629.89,-229.45 627.29,-211.04 623.61,-197.53"/>
<polygon fill="midnightblue" stroke="midnightblue" points="626.92,-196.4 620.58,-187.91 620.24,-198.5 626.92,-196.4"/>
</g>
<!-- Node20&#45;&gt;Node2 -->
<g id="edge32" class="edge">
<title>Node20&#45;&gt;Node2</title>
<path fill="none" stroke="midnightblue" d="M577.02,-224.3C573.34,-191.63 560.3,-75.87 555.13,-29.96"/>
<polygon fill="midnightblue" stroke="midnightblue" points="558.6,-29.43 554,-19.88 551.64,-30.21 558.6,-29.43"/>
</g>
<!-- Node20&#45;&gt;Node21 -->
<g id="edge33" class="edge">
<title>Node20&#45;&gt;Node21</title>
<path fill="none" stroke="midnightblue" d="M584.44,-224.08C589.95,-216.46 598.03,-205.26 604.76,-195.94"/>
<polygon fill="midnightblue" stroke="midnightblue" points="607.66,-197.91 610.68,-187.75 601.99,-193.81 607.66,-197.91"/>
</g>
<!-- Node21&#45;&gt;Node2 -->
<g id="edge34" class="edge">
<title>Node21&#45;&gt;Node2</title>
<path fill="none" stroke="midnightblue" d="M613.56,-168.08C603.44,-141.83 573.64,-64.55 559.98,-29.12"/>
<polygon fill="midnightblue" stroke="midnightblue" points="563.17,-27.64 556.3,-19.57 556.64,-30.16 563.17,-27.64"/>
</g>
<!-- Node22 -->
<g id="node22" class="node">
<title>Node22</title>
<g id="a_node22"><a xlink:href="byteorder_8h.html" target="_top" xlink:title="Functions to work with different byte orders.">
<polygon fill="none" stroke="black" points="631.5,-112.5 631.5,-131.5 704.5,-131.5 704.5,-112.5 631.5,-112.5"/>
<text text-anchor="middle" x="668" y="-119.5" font-family="Helvetica,sans-Serif" font-size="10.00">byteorder.h</text>
</a>
</g>
</g>
<!-- Node21&#45;&gt;Node22 -->
<g id="edge35" class="edge">
<title>Node21&#45;&gt;Node22</title>
<path fill="none" stroke="midnightblue" d="M625.42,-168.08C632.85,-160.22 643.85,-148.57 652.81,-139.08"/>
<polygon fill="midnightblue" stroke="midnightblue" points="655.41,-141.42 659.74,-131.75 650.32,-136.62 655.41,-141.42"/>
</g>
<!-- Node22&#45;&gt;Node2 -->
<g id="edge36" class="edge">
<title>Node22&#45;&gt;Node2</title>
<path fill="none" stroke="midnightblue" d="M660.08,-112.35C648.35,-99.67 625.56,-75.43 605,-56 594.15,-45.75 581.5,-34.78 571.39,-26.24"/>
<polygon fill="midnightblue" stroke="midnightblue" points="573.51,-23.44 563.6,-19.7 569.01,-28.81 573.51,-23.44"/>
</g>
<!-- Node23 -->
<g id="node23" class="node">
<title>Node23</title>
<g id="a_node23"><a xlink:href="unaligned_8h.html" target="_top" xlink:title="Unaligned but safe memory access functions.">
<polygon fill="none" stroke="black" points="657,-56.5 657,-75.5 731,-75.5 731,-56.5 657,-56.5"/>
<text text-anchor="middle" x="694" y="-63.5" font-family="Helvetica,sans-Serif" font-size="10.00">unaligned.h</text>
</a>
</g>
</g>
<!-- Node22&#45;&gt;Node23 -->
<g id="edge37" class="edge">
<title>Node22&#45;&gt;Node23</title>
<path fill="none" stroke="midnightblue" d="M672.29,-112.08C675.85,-104.69 681.02,-93.95 685.42,-84.81"/>
<polygon fill="midnightblue" stroke="midnightblue" points="688.6,-86.28 689.79,-75.75 682.29,-83.24 688.6,-86.28"/>
</g>
<!-- Node23&#45;&gt;Node2 -->
<g id="edge38" class="edge">
<title>Node23&#45;&gt;Node2</title>
<path fill="none" stroke="midnightblue" d="M671.66,-56.44C648.25,-47.48 611.26,-33.31 584.81,-23.18"/>
<polygon fill="midnightblue" stroke="midnightblue" points="585.83,-19.82 575.24,-19.52 583.32,-26.36 585.83,-19.82"/>
</g>
<!-- Node24&#45;&gt;Node2 -->
<g id="edge42" class="edge">
<title>Node24&#45;&gt;Node2</title>
<path fill="none" stroke="midnightblue" d="M736.73,-224.24C748.89,-216.48 764.81,-203.93 772,-188 790.51,-146.99 802.68,-116.09 740,-56 718.72,-35.6 637.86,-21.94 589.71,-15.42"/>
<polygon fill="midnightblue" stroke="midnightblue" points="590.05,-11.93 579.68,-14.1 589.13,-18.87 590.05,-11.93"/>
</g>
<!-- Node24&#45;&gt;Node21 -->
<g id="edge45" class="edge">
<title>Node24&#45;&gt;Node21</title>
<path fill="none" stroke="midnightblue" d="M704.29,-224.32C687.69,-215.7 662,-202.36 642.78,-192.39"/>
<polygon fill="midnightblue" stroke="midnightblue" points="644.16,-189.16 633.67,-187.65 640.93,-195.37 644.16,-189.16"/>
</g>
<!-- Node24&#45;&gt;Node22 -->
<g id="edge44" class="edge">
<title>Node24&#45;&gt;Node22</title>
<path fill="none" stroke="midnightblue" d="M716.84,-224.37C708.17,-206.38 688.02,-164.55 676.49,-140.63"/>
<polygon fill="midnightblue" stroke="midnightblue" points="679.63,-139.08 672.14,-131.59 673.33,-142.12 679.63,-139.08"/>
</g>
<!-- Node25 -->
<g id="node25" class="node">
<title>Node25</title>
<g id="a_node25"><a xlink:title=" ">
<polygon fill="none" stroke="#bfbfbf" points="709.5,-168.5 709.5,-187.5 762.5,-187.5 762.5,-168.5 709.5,-168.5"/>
<text text-anchor="middle" x="736" y="-175.5" font-family="Helvetica,sans-Serif" font-size="10.00">stdlib.h</text>
</a>
</g>
</g>
<!-- Node24&#45;&gt;Node25 -->
<g id="edge43" class="edge">
<title>Node24&#45;&gt;Node25</title>
<path fill="none" stroke="midnightblue" d="M723.48,-224.08C725.49,-216.85 728.39,-206.41 730.89,-197.4"/>
<polygon fill="midnightblue" stroke="midnightblue" points="734.26,-198.32 733.57,-187.75 727.52,-196.45 734.26,-198.32"/>
</g>
<!-- Node26&#45;&gt;Node17 -->
<g id="edge48" class="edge">
<title>Node26&#45;&gt;Node17</title>
<path fill="none" stroke="midnightblue" d="M822.77,-287.97C738.49,-285.38 579.24,-276.23 534,-244 503.24,-222.09 525.49,-191.59 496,-168 461.12,-140.09 411.33,-129.18 372.65,-125.05"/>
<polygon fill="midnightblue" stroke="midnightblue" points="372.84,-121.55 362.56,-124.1 372.19,-128.52 372.84,-121.55"/>
</g>
<!-- Node27 -->
<g id="node27" class="node">
<title>Node27</title>
<g id="a_node27"><a xlink:href="inttypes_8h.html" target="_top" xlink:title="Adds include for missing inttype definitions.">
<polygon fill="none" stroke="black" points="932.5,-224.5 932.5,-243.5 997.5,-243.5 997.5,-224.5 932.5,-224.5"/>
<text text-anchor="middle" x="965" y="-231.5" font-family="Helvetica,sans-Serif" font-size="10.00">inttypes.h</text>
</a>
</g>
</g>
<!-- Node26&#45;&gt;Node27 -->
<g id="edge47" class="edge">
<title>Node26&#45;&gt;Node27</title>
<path fill="none" stroke="midnightblue" d="M890.3,-280.32C904.18,-271.9 925.49,-258.97 941.8,-249.07"/>
<polygon fill="midnightblue" stroke="midnightblue" points="944,-251.83 950.74,-243.65 940.37,-245.85 944,-251.83"/>
</g>
<!-- Node28 -->
<g id="node28" class="node">
<title>Node28</title>
<g id="a_node28"><a xlink:href="ethertype_8h.html" target="_top" xlink:title="Ether type definitions.">
<polygon fill="none" stroke="black" points="1016,-224.5 1016,-243.5 1108,-243.5 1108,-224.5 1016,-224.5"/>
<text text-anchor="middle" x="1062" y="-231.5" font-family="Helvetica,sans-Serif" font-size="10.00">net/ethertype.h</text>
</a>
</g>
</g>
<!-- Node26&#45;&gt;Node28 -->
<g id="edge49" class="edge">
<title>Node26&#45;&gt;Node28</title>
<path fill="none" stroke="midnightblue" d="M905.47,-280.44C937.17,-271.24 987.73,-256.56 1022.77,-246.39"/>
<polygon fill="midnightblue" stroke="midnightblue" points="1024.04,-249.67 1032.67,-243.52 1022.09,-242.94 1024.04,-249.67"/>
</g>
<!-- Node29 -->
<g id="node29" class="node">
<title>Node29</title>
<g id="a_node29"><a xlink:href="protnum_8h.html" target="_top" xlink:title="Protocol number definitions.">
<polygon fill="none" stroke="black" points="828,-224.5 828,-243.5 914,-243.5 914,-224.5 828,-224.5"/>
<text text-anchor="middle" x="871" y="-231.5" font-family="Helvetica,sans-Serif" font-size="10.00">net/protnum.h</text>
</a>
</g>
</g>
<!-- Node26&#45;&gt;Node29 -->
<g id="edge50" class="edge">
<title>Node26&#45;&gt;Node29</title>
<path fill="none" stroke="midnightblue" d="M875.17,-280.08C874.52,-273.01 873.58,-262.86 872.76,-253.99"/>
<polygon fill="midnightblue" stroke="midnightblue" points="876.22,-253.39 871.81,-243.75 869.25,-254.03 876.22,-253.39"/>
</g>
</g>
</svg>
