<?xml version="1.0" encoding="UTF-8" standalone="no"?>
<!DOCTYPE svg PUBLIC "-//W3C//DTD SVG 1.1//EN"
 "http://www.w3.org/Graphics/SVG/1.1/DTD/svg11.dtd">
<!-- Generated by graphviz version 2.43.0 (0)
 -->
<!-- Title: drivers/kw2xrf/include/kw2xrf_intern.h Pages: 1 -->
<svg width="1233pt" height="487pt"
 viewBox="0.00 0.00 1233.00 487.00" xmlns="http://www.w3.org/2000/svg" xmlns:xlink="http://www.w3.org/1999/xlink">
<g id="graph0" class="graph" transform="scale(1 1) rotate(0) translate(4 483)">
<title>drivers/kw2xrf/include/kw2xrf_intern.h</title>
<!-- Node1 -->
<g id="node1" class="node">
<title>Node1</title>
<g id="a_node1"><a xlink:title="Internal function interfaces for kw2xrf driver.">
<polygon fill="#bfbfbf" stroke="black" points="883.5,-448.5 883.5,-478.5 1008.5,-478.5 1008.5,-448.5 883.5,-448.5"/>
<text text-anchor="start" x="891.5" y="-466.5" font-family="Helvetica,sans-Serif" font-size="10.00">drivers/kw2xrf/include</text>
<text text-anchor="middle" x="946" y="-455.5" font-family="Helvetica,sans-Serif" font-size="10.00">/kw2xrf_intern.h</text>
</a>
</g>
</g>
<!-- Node2 -->
<g id="node2" class="node">
<title>Node2</title>
<g id="a_node2"><a xlink:title=" ">
<polygon fill="none" stroke="#bfbfbf" points="638.5,-0.5 638.5,-19.5 691.5,-19.5 691.5,-0.5 638.5,-0.5"/>
<text text-anchor="middle" x="665" y="-7.5" font-family="Helvetica,sans-Serif" font-size="10.00">stdint.h</text>
</a>
</g>
</g>
<!-- Node1&#45;&gt;Node2 -->
<g id="edge1" class="edge">
<title>Node1&#45;&gt;Node2</title>
<path fill="none" stroke="midnightblue" d="M1008.61,-462.83C1090.87,-459.59 1225,-440.05 1225,-347 1225,-347 1225,-347 1225,-121 1225,-14.02 826.49,-9.25 701.82,-10.38"/>
<polygon fill="midnightblue" stroke="midnightblue" points="701.59,-6.88 691.63,-10.49 701.67,-13.88 701.59,-6.88"/>
</g>
<!-- Node3 -->
<g id="node3" class="node">
<title>Node3</title>
<g id="a_node3"><a xlink:href="kw2xrf_8h.html" target="_top" xlink:title="Interface definition for the kw2xrf driver.">
<polygon fill="none" stroke="black" points="637.5,-392.5 637.5,-411.5 696.5,-411.5 696.5,-392.5 637.5,-392.5"/>
<text text-anchor="middle" x="667" y="-399.5" font-family="Helvetica,sans-Serif" font-size="10.00">kw2xrf.h</text>
</a>
</g>
</g>
<!-- Node1&#45;&gt;Node3 -->
<g id="edge2" class="edge">
<title>Node1&#45;&gt;Node3</title>
<path fill="none" stroke="midnightblue" d="M883.39,-449.15C829.32,-437.62 752.84,-421.31 706.77,-411.48"/>
<polygon fill="midnightblue" stroke="midnightblue" points="707.37,-408.03 696.86,-409.37 705.91,-414.88 707.37,-408.03"/>
</g>
<!-- Node3&#45;&gt;Node2 -->
<g id="edge3" class="edge">
<title>Node3&#45;&gt;Node2</title>
<path fill="none" stroke="midnightblue" d="M686,-392.47C727.23,-372.85 824.86,-320.31 870,-244 900.28,-192.81 909.12,-168.96 892,-112 883.41,-83.43 879.46,-73.08 855,-56 808.86,-23.77 742.64,-14.42 701.8,-11.82"/>
<polygon fill="midnightblue" stroke="midnightblue" points="701.91,-8.33 691.74,-11.29 701.54,-15.32 701.91,-8.33"/>
</g>
<!-- Node4 -->
<g id="node4" class="node">
<title>Node4</title>
<g id="a_node4"><a xlink:title=" ">
<polygon fill="none" stroke="#bfbfbf" points="369.5,-336.5 369.5,-355.5 422.5,-355.5 422.5,-336.5 369.5,-336.5"/>
<text text-anchor="middle" x="396" y="-343.5" font-family="Helvetica,sans-Serif" font-size="10.00">board.h</text>
</a>
</g>
</g>
<!-- Node3&#45;&gt;Node4 -->
<g id="edge4" class="edge">
<title>Node3&#45;&gt;Node4</title>
<path fill="none" stroke="midnightblue" d="M637.18,-395.39C593.29,-387.08 508.71,-370.88 437,-356 435.72,-355.73 434.41,-355.46 433.09,-355.18"/>
<polygon fill="midnightblue" stroke="midnightblue" points="433.4,-351.67 422.89,-352.99 431.93,-358.51 433.4,-351.67"/>
</g>
<!-- Node5 -->
<g id="node5" class="node">
<title>Node5</title>
<g id="a_node5"><a xlink:href="spi_8h.html" target="_top" xlink:title="Low&#45;level SPI peripheral driver interface definition.">
<polygon fill="none" stroke="black" points="143,-336.5 143,-355.5 217,-355.5 217,-336.5 143,-336.5"/>
<text text-anchor="middle" x="180" y="-343.5" font-family="Helvetica,sans-Serif" font-size="10.00">periph/spi.h</text>
</a>
</g>
</g>
<!-- Node3&#45;&gt;Node5 -->
<g id="edge5" class="edge">
<title>Node3&#45;&gt;Node5</title>
<path fill="none" stroke="midnightblue" d="M637.27,-397.7C555.49,-388.64 326.69,-363.27 227.2,-352.23"/>
<polygon fill="midnightblue" stroke="midnightblue" points="227.46,-348.74 217.13,-351.12 226.69,-355.7 227.46,-348.74"/>
</g>
<!-- Node11 -->
<g id="node11" class="node">
<title>Node11</title>
<g id="a_node11"><a xlink:href="gpio_8h.html" target="_top" xlink:title="Low&#45;level GPIO peripheral driver interface definitions.">
<polygon fill="none" stroke="black" points="184,-280.5 184,-299.5 264,-299.5 264,-280.5 184,-280.5"/>
<text text-anchor="middle" x="224" y="-287.5" font-family="Helvetica,sans-Serif" font-size="10.00">periph/gpio.h</text>
</a>
</g>
</g>
<!-- Node3&#45;&gt;Node11 -->
<g id="edge16" class="edge">
<title>Node3&#45;&gt;Node11</title>
<path fill="none" stroke="midnightblue" d="M637.19,-395.98C598.98,-389.1 530.98,-375.35 475,-356 455.08,-349.11 451.98,-342.71 432,-336 379.42,-318.33 316.98,-305.91 274.33,-298.66"/>
<polygon fill="midnightblue" stroke="midnightblue" points="274.64,-295.16 264.2,-296.97 273.49,-302.07 274.64,-295.16"/>
</g>
<!-- Node12 -->
<g id="node12" class="node">
<title>Node12</title>
<g id="a_node12"><a xlink:href="drivers_2include_2net_2netdev_8h.html" target="_top" xlink:title="Definitions low&#45;level network driver interface.">
<polygon fill="none" stroke="black" points="441.5,-224.5 441.5,-243.5 518.5,-243.5 518.5,-224.5 441.5,-224.5"/>
<text text-anchor="middle" x="480" y="-231.5" font-family="Helvetica,sans-Serif" font-size="10.00">net/netdev.h</text>
</a>
</g>
</g>
<!-- Node3&#45;&gt;Node12 -->
<g id="edge17" class="edge">
<title>Node3&#45;&gt;Node12</title>
<path fill="none" stroke="midnightblue" d="M649.2,-392.37C619.44,-377.2 559.1,-343.24 521,-300 508.08,-285.34 496.53,-266.18 489,-252.47"/>
<polygon fill="midnightblue" stroke="midnightblue" points="492.06,-250.77 484.27,-243.59 485.88,-254.06 492.06,-250.77"/>
</g>
<!-- Node19 -->
<g id="node19" class="node">
<title>Node19</title>
<g id="a_node19"><a xlink:href="drivers_2include_2net_2netdev_2ieee802154_8h.html" target="_top" xlink:title="Definitions for netdev common IEEE 802.15.4 code.">
<polygon fill="none" stroke="black" points="598,-336.5 598,-355.5 736,-355.5 736,-336.5 598,-336.5"/>
<text text-anchor="middle" x="667" y="-343.5" font-family="Helvetica,sans-Serif" font-size="10.00">net/netdev/ieee802154.h</text>
</a>
</g>
</g>
<!-- Node3&#45;&gt;Node19 -->
<g id="edge31" class="edge">
<title>Node3&#45;&gt;Node19</title>
<path fill="none" stroke="midnightblue" d="M667,-392.08C667,-385.01 667,-374.86 667,-365.99"/>
<polygon fill="midnightblue" stroke="midnightblue" points="670.5,-365.75 667,-355.75 663.5,-365.75 670.5,-365.75"/>
</g>
<!-- Node27 -->
<g id="node27" class="node">
<title>Node27</title>
<g id="a_node27"><a xlink:href="nettype_8h.html" target="_top" xlink:title="Protocol type definitions.">
<polygon fill="none" stroke="black" points="919,-280.5 919,-299.5 1025,-299.5 1025,-280.5 919,-280.5"/>
<text text-anchor="middle" x="972" y="-287.5" font-family="Helvetica,sans-Serif" font-size="10.00">net/gnrc/nettype.h</text>
</a>
</g>
</g>
<!-- Node3&#45;&gt;Node27 -->
<g id="edge55" class="edge">
<title>Node3&#45;&gt;Node27</title>
<path fill="none" stroke="midnightblue" d="M696.65,-400.76C763.91,-399.57 925.11,-392.84 962,-356 973.86,-344.16 975.41,-324.53 974.57,-309.94"/>
<polygon fill="midnightblue" stroke="midnightblue" points="978.01,-309.16 973.54,-299.56 971.04,-309.85 978.01,-309.16"/>
</g>
<!-- Node31 -->
<g id="node31" class="node">
<title>Node31</title>
<g id="a_node31"><a xlink:title=" ">
<polygon fill="none" stroke="#bfbfbf" points="895.5,-336.5 895.5,-355.5 952.5,-355.5 952.5,-336.5 895.5,-336.5"/>
<text text-anchor="middle" x="924" y="-343.5" font-family="Helvetica,sans-Serif" font-size="10.00">thread.h</text>
</a>
</g>
</g>
<!-- Node3&#45;&gt;Node31 -->
<g id="edge56" class="edge">
<title>Node3&#45;&gt;Node31</title>
<path fill="none" stroke="midnightblue" d="M696.73,-394.75C743.33,-384.96 833.58,-366 885.22,-355.15"/>
<polygon fill="midnightblue" stroke="midnightblue" points="886.25,-358.51 895.32,-353.03 884.81,-351.66 886.25,-358.51"/>
</g>
<!-- Node5&#45;&gt;Node2 -->
<g id="edge8" class="edge">
<title>Node5&#45;&gt;Node2</title>
<path fill="none" stroke="midnightblue" d="M213.66,-336.48C257.89,-323.04 330,-292.32 330,-235 330,-235 330,-235 330,-177 330,-104.32 372.43,-82.76 440,-56 503.57,-30.83 583.03,-19.18 628.51,-14.24"/>
<polygon fill="midnightblue" stroke="midnightblue" points="628.91,-17.72 638.49,-13.2 628.18,-10.75 628.91,-17.72"/>
</g>
<!-- Node6 -->
<g id="node6" class="node">
<title>Node6</title>
<g id="a_node6"><a xlink:title=" ">
<polygon fill="none" stroke="#bfbfbf" points="104,-280.5 104,-299.5 166,-299.5 166,-280.5 104,-280.5"/>
<text text-anchor="middle" x="135" y="-287.5" font-family="Helvetica,sans-Serif" font-size="10.00">stdbool.h</text>
</a>
</g>
</g>
<!-- Node5&#45;&gt;Node6 -->
<g id="edge6" class="edge">
<title>Node5&#45;&gt;Node6</title>
<path fill="none" stroke="midnightblue" d="M172.57,-336.08C166.15,-328.38 156.69,-317.03 148.88,-307.65"/>
<polygon fill="midnightblue" stroke="midnightblue" points="151.38,-305.19 142.29,-299.75 146.01,-309.67 151.38,-305.19"/>
</g>
<!-- Node7 -->
<g id="node7" class="node">
<title>Node7</title>
<g id="a_node7"><a xlink:title=" ">
<polygon fill="none" stroke="#bfbfbf" points="129,-0.5 129,-19.5 185,-19.5 185,-0.5 129,-0.5"/>
<text text-anchor="middle" x="157" y="-7.5" font-family="Helvetica,sans-Serif" font-size="10.00">stddef.h</text>
</a>
</g>
</g>
<!-- Node5&#45;&gt;Node7 -->
<g id="edge7" class="edge">
<title>Node5&#45;&gt;Node7</title>
<path fill="none" stroke="midnightblue" d="M142.7,-339.28C89.98,-328.83 0,-301.29 0,-235 0,-235 0,-235 0,-121 0,-63.02 72.71,-33.01 119.17,-19.75"/>
<polygon fill="midnightblue" stroke="midnightblue" points="120.2,-23.1 128.93,-17.1 118.36,-16.35 120.2,-23.1"/>
</g>
<!-- Node8 -->
<g id="node8" class="node">
<title>Node8</title>
<g id="a_node8"><a xlink:title=" ">
<polygon fill="none" stroke="#bfbfbf" points="31.5,-224.5 31.5,-243.5 84.5,-243.5 84.5,-224.5 31.5,-224.5"/>
<text text-anchor="middle" x="58" y="-231.5" font-family="Helvetica,sans-Serif" font-size="10.00">limits.h</text>
</a>
</g>
</g>
<!-- Node5&#45;&gt;Node8 -->
<g id="edge9" class="edge">
<title>Node5&#45;&gt;Node8</title>
<path fill="none" stroke="midnightblue" d="M150.74,-336.47C130.92,-329.42 105.28,-317.67 88,-300 75.26,-286.97 67.27,-267.54 62.77,-253.32"/>
<polygon fill="midnightblue" stroke="midnightblue" points="66.12,-252.29 59.99,-243.65 59.39,-254.23 66.12,-252.29"/>
</g>
<!-- Node9 -->
<g id="node9" class="node">
<title>Node9</title>
<g id="a_node9"><a xlink:title=" ">
<polygon fill="none" stroke="#bfbfbf" points="113.5,-224.5 113.5,-243.5 192.5,-243.5 192.5,-224.5 113.5,-224.5"/>
<text text-anchor="middle" x="153" y="-231.5" font-family="Helvetica,sans-Serif" font-size="10.00">periph_cpu.h</text>
</a>
</g>
</g>
<!-- Node5&#45;&gt;Node9 -->
<g id="edge10" class="edge">
<title>Node5&#45;&gt;Node9</title>
<path fill="none" stroke="midnightblue" d="M146.2,-336.39C127.61,-329.74 106.11,-318.45 95,-300 83.11,-280.25 105.94,-260.97 126.37,-248.61"/>
<polygon fill="midnightblue" stroke="midnightblue" points="128.2,-251.59 135.15,-243.59 124.73,-245.51 128.2,-251.59"/>
</g>
<!-- Node10 -->
<g id="node10" class="node">
<title>Node10</title>
<g id="a_node10"><a xlink:title=" ">
<polygon fill="none" stroke="#bfbfbf" points="217,-224.5 217,-243.5 299,-243.5 299,-224.5 217,-224.5"/>
<text text-anchor="middle" x="258" y="-231.5" font-family="Helvetica,sans-Serif" font-size="10.00">periph_conf.h</text>
</a>
</g>
</g>
<!-- Node5&#45;&gt;Node10 -->
<g id="edge11" class="edge">
<title>Node5&#45;&gt;Node10</title>
<path fill="none" stroke="midnightblue" d="M217.35,-337.09C237.55,-330.7 260.8,-319.45 273,-300 282.01,-285.63 275.8,-266.43 268.84,-252.63"/>
<polygon fill="midnightblue" stroke="midnightblue" points="271.77,-250.7 263.84,-243.68 265.66,-254.11 271.77,-250.7"/>
</g>
<!-- Node5&#45;&gt;Node11 -->
<g id="edge12" class="edge">
<title>Node5&#45;&gt;Node11</title>
<path fill="none" stroke="midnightblue" d="M187.27,-336.08C193.54,-328.38 202.79,-317.03 210.43,-307.65"/>
<polygon fill="midnightblue" stroke="midnightblue" points="213.27,-309.71 216.87,-299.75 207.84,-305.29 213.27,-309.71"/>
</g>
<!-- Node11&#45;&gt;Node8 -->
<g id="edge13" class="edge">
<title>Node11&#45;&gt;Node8</title>
<path fill="none" stroke="midnightblue" d="M197.7,-280.44C169.65,-271.32 125.06,-256.81 93.82,-246.65"/>
<polygon fill="midnightblue" stroke="midnightblue" points="94.77,-243.28 84.18,-243.52 92.61,-249.94 94.77,-243.28"/>
</g>
<!-- Node11&#45;&gt;Node9 -->
<g id="edge14" class="edge">
<title>Node11&#45;&gt;Node9</title>
<path fill="none" stroke="midnightblue" d="M212.59,-280.32C201.89,-272.18 185.66,-259.84 172.84,-250.09"/>
<polygon fill="midnightblue" stroke="midnightblue" points="174.69,-247.1 164.61,-243.83 170.46,-252.67 174.69,-247.1"/>
</g>
<!-- Node11&#45;&gt;Node10 -->
<g id="edge15" class="edge">
<title>Node11&#45;&gt;Node10</title>
<path fill="none" stroke="midnightblue" d="M229.61,-280.08C234.37,-272.53 241.32,-261.49 247.15,-252.23"/>
<polygon fill="midnightblue" stroke="midnightblue" points="250.12,-254.08 252.49,-243.75 244.2,-250.35 250.12,-254.08"/>
</g>
<!-- Node12&#45;&gt;Node2 -->
<g id="edge18" class="edge">
<title>Node12&#45;&gt;Node2</title>
<path fill="none" stroke="midnightblue" d="M480.38,-224.42C481.3,-211.39 484.42,-186.23 495,-168 532.56,-103.3 605.43,-49.65 642.36,-25.21"/>
<polygon fill="midnightblue" stroke="midnightblue" points="644.46,-28.03 650.94,-19.64 640.65,-22.16 644.46,-28.03"/>
</g>
<!-- Node13 -->
<g id="node13" class="node">
<title>Node13</title>
<g id="a_node13"><a xlink:href="errno_8h.html" target="_top" xlink:title=" ">
<polygon fill="none" stroke="black" points="396.5,-168.5 396.5,-187.5 447.5,-187.5 447.5,-168.5 396.5,-168.5"/>
<text text-anchor="middle" x="422" y="-175.5" font-family="Helvetica,sans-Serif" font-size="10.00">errno.h</text>
</a>
</g>
</g>
<!-- Node12&#45;&gt;Node13 -->
<g id="edge19" class="edge">
<title>Node12&#45;&gt;Node13</title>
<path fill="none" stroke="midnightblue" d="M470.68,-224.32C462.11,-216.34 449.19,-204.31 438.81,-194.65"/>
<polygon fill="midnightblue" stroke="midnightblue" points="441.19,-192.09 431.49,-187.83 436.42,-197.21 441.19,-192.09"/>
</g>
<!-- Node14 -->
<g id="node14" class="node">
<title>Node14</title>
<g id="a_node14"><a xlink:href="iolist_8h.html" target="_top" xlink:title="iolist scatter / gather IO">
<polygon fill="none" stroke="black" points="239,-168.5 239,-187.5 289,-187.5 289,-168.5 239,-168.5"/>
<text text-anchor="middle" x="264" y="-175.5" font-family="Helvetica,sans-Serif" font-size="10.00">iolist.h</text>
</a>
</g>
</g>
<!-- Node12&#45;&gt;Node14 -->
<g id="edge20" class="edge">
<title>Node12&#45;&gt;Node14</title>
<path fill="none" stroke="midnightblue" d="M445.77,-224.44C405.64,-214.41 339.46,-197.87 298.99,-187.75"/>
<polygon fill="midnightblue" stroke="midnightblue" points="299.84,-184.35 289.29,-185.32 298.14,-191.14 299.84,-184.35"/>
</g>
<!-- Node17 -->
<g id="node17" class="node">
<title>Node17</title>
<g id="a_node17"><a xlink:href="netopt_8h.html" target="_top" xlink:title="Definition of global configuration options.">
<polygon fill="none" stroke="black" points="504,-168.5 504,-187.5 580,-187.5 580,-168.5 504,-168.5"/>
<text text-anchor="middle" x="542" y="-175.5" font-family="Helvetica,sans-Serif" font-size="10.00">net/netopt.h</text>
</a>
</g>
</g>
<!-- Node12&#45;&gt;Node17 -->
<g id="edge27" class="edge">
<title>Node12&#45;&gt;Node17</title>
<path fill="none" stroke="midnightblue" d="M489.96,-224.32C499.13,-216.34 512.94,-204.31 524.03,-194.65"/>
<polygon fill="midnightblue" stroke="midnightblue" points="526.62,-197.04 531.86,-187.83 522.02,-191.76 526.62,-197.04"/>
</g>
<!-- Node18 -->
<g id="node18" class="node">
<title>Node18</title>
<g id="a_node18"><a xlink:href="kernel__defines_8h.html" target="_top" xlink:title="Common macros and compiler attributes/pragmas configuration.">
<polygon fill="none" stroke="black" points="358.5,-112.5 358.5,-131.5 455.5,-131.5 455.5,-112.5 358.5,-112.5"/>
<text text-anchor="middle" x="407" y="-119.5" font-family="Helvetica,sans-Serif" font-size="10.00">kernel_defines.h</text>
</a>
</g>
</g>
<!-- Node12&#45;&gt;Node18 -->
<g id="edge28" class="edge">
<title>Node12&#45;&gt;Node18</title>
<path fill="none" stroke="midnightblue" d="M441.15,-224.36C421.62,-217.85 399.67,-206.7 388,-188 378.8,-173.25 386.56,-153.85 394.77,-140.1"/>
<polygon fill="midnightblue" stroke="midnightblue" points="397.78,-141.89 400.32,-131.6 391.92,-138.06 397.78,-141.89"/>
</g>
<!-- Node15 -->
<g id="node15" class="node">
<title>Node15</title>
<g id="a_node15"><a xlink:href="unistd_8h_source.html" target="_top" xlink:title=" ">
<polygon fill="none" stroke="black" points="223,-112.5 223,-131.5 279,-131.5 279,-112.5 223,-112.5"/>
<text text-anchor="middle" x="251" y="-119.5" font-family="Helvetica,sans-Serif" font-size="10.00">unistd.h</text>
</a>
</g>
</g>
<!-- Node14&#45;&gt;Node15 -->
<g id="edge21" class="edge">
<title>Node14&#45;&gt;Node15</title>
<path fill="none" stroke="midnightblue" d="M261.85,-168.08C260.13,-160.93 257.65,-150.64 255.5,-141.69"/>
<polygon fill="midnightblue" stroke="midnightblue" points="258.85,-140.65 253.11,-131.75 252.04,-142.29 258.85,-140.65"/>
</g>
<!-- Node15&#45;&gt;Node2 -->
<g id="edge23" class="edge">
<title>Node15&#45;&gt;Node2</title>
<path fill="none" stroke="midnightblue" d="M258.05,-112.5C270.5,-98.13 297.93,-69.32 328,-56 381.22,-32.43 552.46,-18.47 628.28,-13.3"/>
<polygon fill="midnightblue" stroke="midnightblue" points="628.58,-16.79 638.32,-12.63 628.11,-9.8 628.58,-16.79"/>
</g>
<!-- Node15&#45;&gt;Node7 -->
<g id="edge22" class="edge">
<title>Node15&#45;&gt;Node7</title>
<path fill="none" stroke="midnightblue" d="M222.76,-114.6C202.29,-108.37 175.87,-96.72 162,-76 153.05,-62.63 152.5,-44.06 153.78,-30.19"/>
<polygon fill="midnightblue" stroke="midnightblue" points="157.3,-30.23 155.14,-19.86 150.36,-29.32 157.3,-30.23"/>
</g>
<!-- Node16 -->
<g id="node16" class="node">
<title>Node16</title>
<g id="a_node16"><a xlink:href="cpu_2atmega__common_2avr__libc__extra_2include_2sys_2types_8h_source.html" target="_top" xlink:title=" ">
<polygon fill="none" stroke="black" points="204,-56.5 204,-75.5 276,-75.5 276,-56.5 204,-56.5"/>
<text text-anchor="middle" x="240" y="-63.5" font-family="Helvetica,sans-Serif" font-size="10.00">sys/types.h</text>
</a>
</g>
</g>
<!-- Node15&#45;&gt;Node16 -->
<g id="edge24" class="edge">
<title>Node15&#45;&gt;Node16</title>
<path fill="none" stroke="midnightblue" d="M249.18,-112.08C247.73,-104.93 245.63,-94.64 243.81,-85.69"/>
<polygon fill="midnightblue" stroke="midnightblue" points="247.21,-84.85 241.78,-75.75 240.35,-86.25 247.21,-84.85"/>
</g>
<!-- Node16&#45;&gt;Node2 -->
<g id="edge25" class="edge">
<title>Node16&#45;&gt;Node2</title>
<path fill="none" stroke="midnightblue" d="M276.01,-58.26C280.71,-57.45 285.46,-56.68 290,-56 413.42,-37.5 560.59,-21.64 627.98,-14.71"/>
<polygon fill="midnightblue" stroke="midnightblue" points="628.51,-18.18 638.1,-13.68 627.8,-11.22 628.51,-18.18"/>
</g>
<!-- Node16&#45;&gt;Node7 -->
<g id="edge26" class="edge">
<title>Node16&#45;&gt;Node7</title>
<path fill="none" stroke="midnightblue" d="M226.66,-56.32C213.84,-47.98 194.22,-35.21 179.06,-25.35"/>
<polygon fill="midnightblue" stroke="midnightblue" points="180.59,-22.17 170.3,-19.65 176.78,-28.04 180.59,-22.17"/>
</g>
<!-- Node18&#45;&gt;Node2 -->
<g id="edge30" class="edge">
<title>Node18&#45;&gt;Node2</title>
<path fill="none" stroke="midnightblue" d="M412.85,-112.3C422.82,-98.17 444.55,-70.37 470,-56 520.24,-27.64 587.34,-17.14 628.3,-13.26"/>
<polygon fill="midnightblue" stroke="midnightblue" points="628.71,-16.74 638.37,-12.39 628.11,-9.76 628.71,-16.74"/>
</g>
<!-- Node18&#45;&gt;Node7 -->
<g id="edge29" class="edge">
<title>Node18&#45;&gt;Node7</title>
<path fill="none" stroke="midnightblue" d="M358.15,-115.26C303.92,-108.1 220.62,-94.5 195,-76 179.14,-64.55 168.84,-44.27 163.01,-29.4"/>
<polygon fill="midnightblue" stroke="midnightblue" points="166.22,-27.96 159.55,-19.73 159.63,-30.32 166.22,-27.96"/>
</g>
<!-- Node19&#45;&gt;Node12 -->
<g id="edge54" class="edge">
<title>Node19&#45;&gt;Node12</title>
<path fill="none" stroke="midnightblue" d="M635.99,-336.43C611.75,-328.93 577.79,-316.64 551,-300 529.16,-286.44 507.94,-265.71 494.47,-251.32"/>
<polygon fill="midnightblue" stroke="midnightblue" points="496.82,-248.7 487.49,-243.68 491.65,-253.43 496.82,-248.7"/>
</g>
<!-- Node19&#45;&gt;Node17 -->
<g id="edge53" class="edge">
<title>Node19&#45;&gt;Node17</title>
<path fill="none" stroke="midnightblue" d="M651.7,-336.42C638.36,-328.35 619.14,-315.26 606,-300 578.46,-268.01 558.32,-222.16 548.58,-197.08"/>
<polygon fill="midnightblue" stroke="midnightblue" points="551.85,-195.83 545.05,-187.71 545.3,-198.3 551.85,-195.83"/>
</g>
<!-- Node20 -->
<g id="node20" class="node">
<title>Node20</title>
<g id="a_node20"><a xlink:href="eui__provider_8h.html" target="_top" xlink:title="EUI&#45;48 and EUI&#45;64 address provider.">
<polygon fill="none" stroke="black" points="614.5,-280.5 614.5,-299.5 719.5,-299.5 719.5,-280.5 614.5,-280.5"/>
<text text-anchor="middle" x="667" y="-287.5" font-family="Helvetica,sans-Serif" font-size="10.00">net/eui_provider.h</text>
</a>
</g>
</g>
<!-- Node19&#45;&gt;Node20 -->
<g id="edge32" class="edge">
<title>Node19&#45;&gt;Node20</title>
<path fill="none" stroke="midnightblue" d="M667,-336.08C667,-329.01 667,-318.86 667,-309.99"/>
<polygon fill="midnightblue" stroke="midnightblue" points="670.5,-309.75 667,-299.75 663.5,-309.75 670.5,-309.75"/>
</g>
<!-- Node25 -->
<g id="node25" class="node">
<title>Node25</title>
<g id="a_node25"><a xlink:href="sys_2include_2net_2ieee802154_8h.html" target="_top" xlink:title="IEEE 802.15.4 header definitions.">
<polygon fill="none" stroke="black" points="759.5,-224.5 759.5,-243.5 860.5,-243.5 860.5,-224.5 759.5,-224.5"/>
<text text-anchor="middle" x="810" y="-231.5" font-family="Helvetica,sans-Serif" font-size="10.00">net/ieee802154.h</text>
</a>
</g>
</g>
<!-- Node19&#45;&gt;Node25 -->
<g id="edge43" class="edge">
<title>Node19&#45;&gt;Node25</title>
<path fill="none" stroke="midnightblue" d="M679.48,-336.21C692.1,-327.26 712.09,-312.91 729,-300 750.77,-283.38 775.21,-263.61 791.5,-250.27"/>
<polygon fill="midnightblue" stroke="midnightblue" points="794.14,-252.63 799.64,-243.58 789.69,-247.22 794.14,-252.63"/>
</g>
<!-- Node19&#45;&gt;Node27 -->
<g id="edge48" class="edge">
<title>Node19&#45;&gt;Node27</title>
<path fill="none" stroke="midnightblue" d="M715.33,-336.44C769.2,-326.9 856.31,-311.48 913.86,-301.29"/>
<polygon fill="midnightblue" stroke="midnightblue" points="914.66,-304.71 923.9,-299.52 913.44,-297.81 914.66,-304.71"/>
</g>
<!-- Node20&#45;&gt;Node12 -->
<g id="edge42" class="edge">
<title>Node20&#45;&gt;Node12</title>
<path fill="none" stroke="midnightblue" d="M637.37,-280.44C605.5,-271.24 554.67,-256.56 519.44,-246.39"/>
<polygon fill="midnightblue" stroke="midnightblue" points="520.07,-242.93 509.49,-243.52 518.13,-249.65 520.07,-242.93"/>
</g>
<!-- Node21 -->
<g id="node21" class="node">
<title>Node21</title>
<g id="a_node21"><a xlink:href="eui48_8h.html" target="_top" xlink:title="Definition and IPv6 IID conversion for IEEE EUI&#45;48 identifiers.">
<polygon fill="none" stroke="black" points="631.5,-224.5 631.5,-243.5 702.5,-243.5 702.5,-224.5 631.5,-224.5"/>
<text text-anchor="middle" x="667" y="-231.5" font-family="Helvetica,sans-Serif" font-size="10.00">net/eui48.h</text>
</a>
</g>
</g>
<!-- Node20&#45;&gt;Node21 -->
<g id="edge33" class="edge">
<title>Node20&#45;&gt;Node21</title>
<path fill="none" stroke="midnightblue" d="M667,-280.08C667,-273.01 667,-262.86 667,-253.99"/>
<polygon fill="midnightblue" stroke="midnightblue" points="670.5,-253.75 667,-243.75 663.5,-253.75 670.5,-253.75"/>
</g>
<!-- Node22 -->
<g id="node22" class="node">
<title>Node22</title>
<g id="a_node22"><a xlink:href="eui64_8h.html" target="_top" xlink:title="EUI&#45;64 data type definition.">
<polygon fill="none" stroke="black" points="674.5,-168.5 674.5,-187.5 745.5,-187.5 745.5,-168.5 674.5,-168.5"/>
<text text-anchor="middle" x="710" y="-175.5" font-family="Helvetica,sans-Serif" font-size="10.00">net/eui64.h</text>
</a>
</g>
</g>
<!-- Node20&#45;&gt;Node22 -->
<g id="edge41" class="edge">
<title>Node20&#45;&gt;Node22</title>
<path fill="none" stroke="midnightblue" d="M680.06,-280.44C690.91,-272.47 705.57,-259.52 712,-244 718.08,-229.33 716.87,-211.16 714.55,-197.77"/>
<polygon fill="midnightblue" stroke="midnightblue" points="717.95,-196.9 712.48,-187.82 711.1,-198.32 717.95,-196.9"/>
</g>
<!-- Node21&#45;&gt;Node2 -->
<g id="edge34" class="edge">
<title>Node21&#45;&gt;Node2</title>
<path fill="none" stroke="midnightblue" d="M666.77,-224.37C666.53,-215.32 666.18,-200.66 666,-188 665.2,-130.53 665.03,-62.56 665,-30.11"/>
<polygon fill="midnightblue" stroke="midnightblue" points="668.5,-29.84 665,-19.84 661.5,-29.84 668.5,-29.84"/>
</g>
<!-- Node21&#45;&gt;Node22 -->
<g id="edge35" class="edge">
<title>Node21&#45;&gt;Node22</title>
<path fill="none" stroke="midnightblue" d="M674.1,-224.08C680.24,-216.38 689.27,-205.03 696.74,-195.65"/>
<polygon fill="midnightblue" stroke="midnightblue" points="699.54,-197.75 703.03,-187.75 694.06,-193.39 699.54,-197.75"/>
</g>
<!-- Node22&#45;&gt;Node2 -->
<g id="edge36" class="edge">
<title>Node22&#45;&gt;Node2</title>
<path fill="none" stroke="midnightblue" d="M707.58,-168.08C700.5,-141.95 679.7,-65.21 670.04,-29.58"/>
<polygon fill="midnightblue" stroke="midnightblue" points="673.32,-28.3 667.32,-19.57 666.56,-30.14 673.32,-28.3"/>
</g>
<!-- Node23 -->
<g id="node23" class="node">
<title>Node23</title>
<g id="a_node23"><a xlink:href="byteorder_8h.html" target="_top" xlink:title="Functions to work with different byte orders.">
<polygon fill="none" stroke="black" points="724.5,-112.5 724.5,-131.5 797.5,-131.5 797.5,-112.5 724.5,-112.5"/>
<text text-anchor="middle" x="761" y="-119.5" font-family="Helvetica,sans-Serif" font-size="10.00">byteorder.h</text>
</a>
</g>
</g>
<!-- Node22&#45;&gt;Node23 -->
<g id="edge37" class="edge">
<title>Node22&#45;&gt;Node23</title>
<path fill="none" stroke="midnightblue" d="M718.42,-168.08C725.85,-160.22 736.85,-148.57 745.81,-139.08"/>
<polygon fill="midnightblue" stroke="midnightblue" points="748.41,-141.42 752.74,-131.75 743.32,-136.62 748.41,-141.42"/>
</g>
<!-- Node23&#45;&gt;Node2 -->
<g id="edge38" class="edge">
<title>Node23&#45;&gt;Node2</title>
<path fill="none" stroke="midnightblue" d="M753.47,-112.37C737.48,-94.05 699.95,-51.05 679.28,-27.36"/>
<polygon fill="midnightblue" stroke="midnightblue" points="681.71,-24.82 672.5,-19.59 676.44,-29.43 681.71,-24.82"/>
</g>
<!-- Node24 -->
<g id="node24" class="node">
<title>Node24</title>
<g id="a_node24"><a xlink:href="unaligned_8h.html" target="_top" xlink:title="Unaligned but safe memory access functions.">
<polygon fill="none" stroke="black" points="750,-56.5 750,-75.5 824,-75.5 824,-56.5 750,-56.5"/>
<text text-anchor="middle" x="787" y="-63.5" font-family="Helvetica,sans-Serif" font-size="10.00">unaligned.h</text>
</a>
</g>
</g>
<!-- Node23&#45;&gt;Node24 -->
<g id="edge39" class="edge">
<title>Node23&#45;&gt;Node24</title>
<path fill="none" stroke="midnightblue" d="M765.29,-112.08C768.85,-104.69 774.02,-93.95 778.42,-84.81"/>
<polygon fill="midnightblue" stroke="midnightblue" points="781.6,-86.28 782.79,-75.75 775.29,-83.24 781.6,-86.28"/>
</g>
<!-- Node24&#45;&gt;Node2 -->
<g id="edge40" class="edge">
<title>Node24&#45;&gt;Node2</title>
<path fill="none" stroke="midnightblue" d="M767.67,-56.44C747.68,-47.6 716.26,-33.69 693.44,-23.59"/>
<polygon fill="midnightblue" stroke="midnightblue" points="694.8,-20.36 684.24,-19.52 691.97,-26.76 694.8,-20.36"/>
</g>
<!-- Node25&#45;&gt;Node2 -->
<g id="edge44" class="edge">
<title>Node25&#45;&gt;Node2</title>
<path fill="none" stroke="midnightblue" d="M827.2,-224.39C840.25,-216.79 857.23,-204.39 865,-188 884.05,-147.79 898.86,-120.77 833,-56 797.97,-21.55 739.61,-12.71 701.72,-10.85"/>
<polygon fill="midnightblue" stroke="midnightblue" points="701.73,-7.35 691.61,-10.49 701.48,-14.34 701.73,-7.35"/>
</g>
<!-- Node25&#45;&gt;Node22 -->
<g id="edge47" class="edge">
<title>Node25&#45;&gt;Node22</title>
<path fill="none" stroke="midnightblue" d="M793.93,-224.32C778.04,-215.74 753.49,-202.49 735.04,-192.52"/>
<polygon fill="midnightblue" stroke="midnightblue" points="736.49,-189.33 726.03,-187.65 733.16,-195.49 736.49,-189.33"/>
</g>
<!-- Node25&#45;&gt;Node23 -->
<g id="edge46" class="edge">
<title>Node25&#45;&gt;Node23</title>
<path fill="none" stroke="midnightblue" d="M806.16,-224.37C798.18,-206.46 779.67,-164.92 769,-140.95"/>
<polygon fill="midnightblue" stroke="midnightblue" points="772.09,-139.3 764.83,-131.59 765.7,-142.15 772.09,-139.3"/>
</g>
<!-- Node26 -->
<g id="node26" class="node">
<title>Node26</title>
<g id="a_node26"><a xlink:title=" ">
<polygon fill="none" stroke="#bfbfbf" points="802.5,-168.5 802.5,-187.5 855.5,-187.5 855.5,-168.5 802.5,-168.5"/>
<text text-anchor="middle" x="829" y="-175.5" font-family="Helvetica,sans-Serif" font-size="10.00">stdlib.h</text>
</a>
</g>
</g>
<!-- Node25&#45;&gt;Node26 -->
<g id="edge45" class="edge">
<title>Node25&#45;&gt;Node26</title>
<path fill="none" stroke="midnightblue" d="M813.14,-224.08C815.68,-216.85 819.36,-206.41 822.53,-197.4"/>
<polygon fill="midnightblue" stroke="midnightblue" points="825.9,-198.35 825.92,-187.75 819.3,-196.02 825.9,-198.35"/>
</g>
<!-- Node27&#45;&gt;Node18 -->
<g id="edge50" class="edge">
<title>Node27&#45;&gt;Node18</title>
<path fill="none" stroke="midnightblue" d="M918.91,-288.37C833.05,-286.34 668.72,-277.98 623,-244 593.3,-221.93 617.39,-191.73 589,-168 554.61,-139.26 504.56,-128.41 465.65,-124.53"/>
<polygon fill="midnightblue" stroke="midnightblue" points="465.77,-121.03 455.5,-123.65 465.16,-128 465.77,-121.03"/>
</g>
<!-- Node28 -->
<g id="node28" class="node">
<title>Node28</title>
<g id="a_node28"><a xlink:href="inttypes_8h.html" target="_top" xlink:title="Adds include for missing inttype definitions.">
<polygon fill="none" stroke="black" points="1021.5,-224.5 1021.5,-243.5 1086.5,-243.5 1086.5,-224.5 1021.5,-224.5"/>
<text text-anchor="middle" x="1054" y="-231.5" font-family="Helvetica,sans-Serif" font-size="10.00">inttypes.h</text>
</a>
</g>
</g>
<!-- Node27&#45;&gt;Node28 -->
<g id="edge49" class="edge">
<title>Node27&#45;&gt;Node28</title>
<path fill="none" stroke="midnightblue" d="M985.17,-280.32C997.85,-271.98 1017.23,-259.21 1032.21,-249.35"/>
<polygon fill="midnightblue" stroke="midnightblue" points="1034.43,-252.08 1040.86,-243.65 1030.58,-246.23 1034.43,-252.08"/>
</g>
<!-- Node29 -->
<g id="node29" class="node">
<title>Node29</title>
<g id="a_node29"><a xlink:href="ethertype_8h.html" target="_top" xlink:title="Ether type definitions.">
<polygon fill="none" stroke="black" points="1105,-224.5 1105,-243.5 1197,-243.5 1197,-224.5 1105,-224.5"/>
<text text-anchor="middle" x="1151" y="-231.5" font-family="Helvetica,sans-Serif" font-size="10.00">net/ethertype.h</text>
</a>
</g>
</g>
<!-- Node27&#45;&gt;Node29 -->
<g id="edge51" class="edge">
<title>Node27&#45;&gt;Node29</title>
<path fill="none" stroke="midnightblue" d="M1000.36,-280.44C1030.74,-271.28 1079.11,-256.69 1112.82,-246.52"/>
<polygon fill="midnightblue" stroke="midnightblue" points="1114.21,-249.76 1122.77,-243.52 1112.18,-243.05 1114.21,-249.76"/>
</g>
<!-- Node30 -->
<g id="node30" class="node">
<title>Node30</title>
<g id="a_node30"><a xlink:href="protnum_8h.html" target="_top" xlink:title="Protocol number definitions.">
<polygon fill="none" stroke="black" points="917,-224.5 917,-243.5 1003,-243.5 1003,-224.5 917,-224.5"/>
<text text-anchor="middle" x="960" y="-231.5" font-family="Helvetica,sans-Serif" font-size="10.00">net/protnum.h</text>
</a>
</g>
</g>
<!-- Node27&#45;&gt;Node30 -->
<g id="edge52" class="edge">
<title>Node27&#45;&gt;Node30</title>
<path fill="none" stroke="midnightblue" d="M970.02,-280.08C968.43,-272.93 966.14,-262.64 964.15,-253.69"/>
<polygon fill="midnightblue" stroke="midnightblue" points="967.53,-252.75 961.94,-243.75 960.7,-254.27 967.53,-252.75"/>
</g>
</g>
</svg>
