<?xml version="1.0" encoding="UTF-8" standalone="no"?>
<!DOCTYPE svg PUBLIC "-//W3C//DTD SVG 1.1//EN"
 "http://www.w3.org/Graphics/SVG/1.1/DTD/svg11.dtd">
<!-- Generated by graphviz version 2.40.1 (20161225.0304)
 -->
<!-- Title: drivers/kw2xrf/include/kw2xrf_getset.h Pages: 1 -->
<svg width="1266pt" height="375pt"
 viewBox="0.00 0.00 1265.50 375.00" xmlns="http://www.w3.org/2000/svg" xmlns:xlink="http://www.w3.org/1999/xlink">
<g id="graph0" class="graph" transform="scale(1 1) rotate(0) translate(4 371)">
<title>drivers/kw2xrf/include/kw2xrf_getset.h</title>
<!-- Node0 -->
<g id="node1" class="node">
<title>Node0</title>
<polygon fill="#bfbfbf" stroke="#000000" points="849.5,-336.5 849.5,-366.5 961.5,-366.5 961.5,-336.5 849.5,-336.5"/>
<text text-anchor="start" x="857.5" y="-354.5" font-family="Helvetica,sans-Serif" font-size="10.00" fill="#000000">drivers/kw2xrf/include</text>
<text text-anchor="middle" x="905.5" y="-343.5" font-family="Helvetica,sans-Serif" font-size="10.00" fill="#000000">/kw2xrf_getset.h</text>
</g>
<!-- Node1 -->
<g id="node2" class="node">
<title>Node1</title>
<g id="a_node2"><a xlink:href="kw2xrf_8h.html" target="_top" xlink:title="Interface definition for the kw2xrf driver. ">
<polygon fill="none" stroke="#000000" points="878.5,-280.5 878.5,-299.5 932.5,-299.5 932.5,-280.5 878.5,-280.5"/>
<text text-anchor="middle" x="905.5" y="-287.5" font-family="Helvetica,sans-Serif" font-size="10.00" fill="#000000">kw2xrf.h</text>
</a>
</g>
</g>
<!-- Node0&#45;&gt;Node1 -->
<g id="edge1" class="edge">
<title>Node0&#45;&gt;Node1</title>
<path fill="none" stroke="#191970" d="M905.5,-336.2977C905.5,-328.3834 905.5,-318.6043 905.5,-310.0759"/>
<polygon fill="#191970" stroke="#191970" points="909.0001,-309.8469 905.5,-299.8469 902.0001,-309.847 909.0001,-309.8469"/>
</g>
<!-- Node2 -->
<g id="node3" class="node">
<title>Node2</title>
<polygon fill="none" stroke="#bfbfbf" points="371,-.5 371,-19.5 420,-19.5 420,-.5 371,-.5"/>
<text text-anchor="middle" x="395.5" y="-7.5" font-family="Helvetica,sans-Serif" font-size="10.00" fill="#000000">stdint.h</text>
</g>
<!-- Node1&#45;&gt;Node2 -->
<g id="edge2" class="edge">
<title>Node1&#45;&gt;Node2</title>
<path fill="none" stroke="#191970" d="M878.4608,-288.6001C786.0558,-283.0896 488.5,-259.0522 488.5,-178 488.5,-178 488.5,-178 488.5,-122 488.5,-79.3531 448.0955,-44.267 420.5504,-25.3028"/>
<polygon fill="#191970" stroke="#191970" points="422.3963,-22.3273 412.1265,-19.7229 418.5307,-28.1632 422.3963,-22.3273"/>
</g>
<!-- Node3 -->
<g id="node4" class="node">
<title>Node3</title>
<polygon fill="none" stroke="#bfbfbf" points="1063,-224.5 1063,-243.5 1112,-243.5 1112,-224.5 1063,-224.5"/>
<text text-anchor="middle" x="1087.5" y="-231.5" font-family="Helvetica,sans-Serif" font-size="10.00" fill="#000000">board.h</text>
</g>
<!-- Node1&#45;&gt;Node3 -->
<g id="edge3" class="edge">
<title>Node1&#45;&gt;Node3</title>
<path fill="none" stroke="#191970" d="M932.7472,-281.6162C964.8779,-271.7299 1018.3182,-255.2867 1053.2288,-244.545"/>
<polygon fill="#191970" stroke="#191970" points="1054.4587,-247.8286 1062.9872,-241.5424 1052.4,-241.1381 1054.4587,-247.8286"/>
</g>
<!-- Node4 -->
<g id="node5" class="node">
<title>Node4</title>
<g id="a_node5"><a xlink:href="spi_8h.html" target="_top" xlink:title="Low&#45;level SPI peripheral driver interface definition. ">
<polygon fill="none" stroke="#000000" points="939,-224.5 939,-243.5 1006,-243.5 1006,-224.5 939,-224.5"/>
<text text-anchor="middle" x="972.5" y="-231.5" font-family="Helvetica,sans-Serif" font-size="10.00" fill="#000000">periph/spi.h</text>
</a>
</g>
</g>
<!-- Node1&#45;&gt;Node4 -->
<g id="edge4" class="edge">
<title>Node1&#45;&gt;Node4</title>
<path fill="none" stroke="#191970" d="M917.1705,-280.2455C927.0661,-271.9746 941.4627,-259.9416 953.0901,-250.2232"/>
<polygon fill="#191970" stroke="#191970" points="955.535,-252.7413 960.9632,-243.6427 951.0458,-247.3703 955.535,-252.7413"/>
</g>
<!-- Node10 -->
<g id="node11" class="node">
<title>Node10</title>
<g id="a_node11"><a xlink:href="gpio_8h.html" target="_top" xlink:title="Low&#45;level GPIO peripheral driver interface definitions. ">
<polygon fill="none" stroke="#000000" points="1122.5,-168.5 1122.5,-187.5 1194.5,-187.5 1194.5,-168.5 1122.5,-168.5"/>
<text text-anchor="middle" x="1158.5" y="-175.5" font-family="Helvetica,sans-Serif" font-size="10.00" fill="#000000">periph/gpio.h</text>
</a>
</g>
</g>
<!-- Node1&#45;&gt;Node10 -->
<g id="edge15" class="edge">
<title>Node1&#45;&gt;Node10</title>
<path fill="none" stroke="#191970" d="M929.5396,-280.4559C951.7768,-271.4859 985.6498,-257.4624 1014.5,-244 1032.1524,-235.7629 1035.9039,-232.3567 1053.5,-224 1077.5553,-212.5757 1105.1502,-200.5267 1126.0124,-191.6273"/>
<polygon fill="#191970" stroke="#191970" points="1127.5403,-194.781 1135.3769,-187.651 1124.8044,-188.3378 1127.5403,-194.781"/>
</g>
<!-- Node11 -->
<g id="node12" class="node">
<title>Node11</title>
<g id="a_node12"><a xlink:href="drivers_2include_2net_2netdev_8h.html" target="_top" xlink:title="Definitions low&#45;level network driver interface. ">
<polygon fill="none" stroke="#000000" points="134,-168.5 134,-187.5 205,-187.5 205,-168.5 134,-168.5"/>
<text text-anchor="middle" x="169.5" y="-175.5" font-family="Helvetica,sans-Serif" font-size="10.00" fill="#000000">net/netdev.h</text>
</a>
</g>
</g>
<!-- Node1&#45;&gt;Node11 -->
<g id="edge16" class="edge">
<title>Node1&#45;&gt;Node11</title>
<path fill="none" stroke="#191970" d="M878.4298,-289.1706C777.2886,-285.8752 421.7917,-272.4793 312.5,-244 268.9493,-232.6515 222.287,-208.613 194.5171,-192.8936"/>
<polygon fill="#191970" stroke="#191970" points="195.9316,-189.6695 185.5186,-187.7149 192.4399,-195.7365 195.9316,-189.6695"/>
</g>
<!-- Node16 -->
<g id="node17" class="node">
<title>Node16</title>
<g id="a_node17"><a xlink:href="drivers_2include_2net_2netdev_2ieee802154_8h.html" target="_top" xlink:title="Definitions for netdev common IEEE 802.15.4 code. ">
<polygon fill="none" stroke="#000000" points="322,-224.5 322,-243.5 445,-243.5 445,-224.5 322,-224.5"/>
<text text-anchor="middle" x="383.5" y="-231.5" font-family="Helvetica,sans-Serif" font-size="10.00" fill="#000000">net/netdev/ieee802154.h</text>
</a>
</g>
</g>
<!-- Node1&#45;&gt;Node16 -->
<g id="edge22" class="edge">
<title>Node1&#45;&gt;Node16</title>
<path fill="none" stroke="#191970" d="M878.2667,-287.1233C810.1912,-279.9258 627.1202,-260.5301 474.5,-244 468.2782,-243.3261 461.8176,-242.623 455.3388,-241.9155"/>
<polygon fill="#191970" stroke="#191970" points="455.4958,-238.4119 445.1745,-240.8038 454.7346,-245.3704 455.4958,-238.4119"/>
</g>
<!-- Node22 -->
<g id="node23" class="node">
<title>Node22</title>
<g id="a_node23"><a xlink:href="nettype_8h.html" target="_top" xlink:title="Protocol type definitions. ">
<polygon fill="none" stroke="#000000" points="637,-168.5 637,-187.5 732,-187.5 732,-168.5 637,-168.5"/>
<text text-anchor="middle" x="684.5" y="-175.5" font-family="Helvetica,sans-Serif" font-size="10.00" fill="#000000">net/gnrc/nettype.h</text>
</a>
</g>
</g>
<!-- Node1&#45;&gt;Node22 -->
<g id="edge41" class="edge">
<title>Node1&#45;&gt;Node22</title>
<path fill="none" stroke="#191970" d="M886.6577,-280.4509C847.6772,-260.6961 758.0151,-215.2565 712.3396,-192.1088"/>
<polygon fill="#191970" stroke="#191970" points="713.7968,-188.9235 703.2946,-187.5249 710.6324,-195.1674 713.7968,-188.9235"/>
</g>
<!-- Node27 -->
<g id="node28" class="node">
<title>Node27</title>
<polygon fill="none" stroke="#bfbfbf" points="1130.5,-224.5 1130.5,-243.5 1182.5,-243.5 1182.5,-224.5 1130.5,-224.5"/>
<text text-anchor="middle" x="1156.5" y="-231.5" font-family="Helvetica,sans-Serif" font-size="10.00" fill="#000000">thread.h</text>
</g>
<!-- Node1&#45;&gt;Node27 -->
<g id="edge42" class="edge">
<title>Node1&#45;&gt;Node27</title>
<path fill="none" stroke="#191970" d="M932.7716,-284.7124C973.7093,-276.6517 1053.4046,-260.4806 1120.5,-244 1120.5984,-243.9758 1120.697,-243.9516 1120.7957,-243.9272"/>
<polygon fill="#191970" stroke="#191970" points="1121.3926,-247.3879 1130.2019,-241.5017 1119.6447,-240.6096 1121.3926,-247.3879"/>
</g>
<!-- Node4&#45;&gt;Node2 -->
<g id="edge7" class="edge">
<title>Node4&#45;&gt;Node2</title>
<path fill="none" stroke="#191970" d="M969.8528,-224.3613C960.3356,-190.4431 926.863,-77.4856 897.5,-56 859.9059,-28.4915 537.6149,-14.9217 430.1841,-11.133"/>
<polygon fill="#191970" stroke="#191970" points="430.3002,-7.635 420.1851,-10.7868 430.058,-14.6308 430.3002,-7.635"/>
</g>
<!-- Node5 -->
<g id="node6" class="node">
<title>Node5</title>
<polygon fill="none" stroke="#bfbfbf" points="972.5,-168.5 972.5,-187.5 1028.5,-187.5 1028.5,-168.5 972.5,-168.5"/>
<text text-anchor="middle" x="1000.5" y="-175.5" font-family="Helvetica,sans-Serif" font-size="10.00" fill="#000000">stdbool.h</text>
</g>
<!-- Node4&#45;&gt;Node5 -->
<g id="edge5" class="edge">
<title>Node4&#45;&gt;Node5</title>
<path fill="none" stroke="#191970" d="M977.3772,-224.2455C981.1513,-216.6973 986.4921,-206.0158 991.0901,-196.8197"/>
<polygon fill="#191970" stroke="#191970" points="994.337,-198.1522 995.6787,-187.6427 988.076,-195.0217 994.337,-198.1522"/>
</g>
<!-- Node6 -->
<g id="node7" class="node">
<title>Node6</title>
<polygon fill="none" stroke="#bfbfbf" points="836.5,-56.5 836.5,-75.5 888.5,-75.5 888.5,-56.5 836.5,-56.5"/>
<text text-anchor="middle" x="862.5" y="-63.5" font-family="Helvetica,sans-Serif" font-size="10.00" fill="#000000">stddef.h</text>
</g>
<!-- Node4&#45;&gt;Node6 -->
<g id="edge6" class="edge">
<title>Node4&#45;&gt;Node6</title>
<path fill="none" stroke="#191970" d="M962.4462,-224.3472C953.4554,-215.4146 940.2337,-201.5131 930.5,-188 927.1124,-183.2971 890.8462,-117.5522 872.7086,-84.5796"/>
<polygon fill="#191970" stroke="#191970" points="875.6031,-82.5794 867.7182,-75.5027 869.469,-85.9519 875.6031,-82.5794"/>
</g>
<!-- Node7 -->
<g id="node8" class="node">
<title>Node7</title>
<polygon fill="none" stroke="#bfbfbf" points="1117.5,-112.5 1117.5,-131.5 1165.5,-131.5 1165.5,-112.5 1117.5,-112.5"/>
<text text-anchor="middle" x="1141.5" y="-119.5" font-family="Helvetica,sans-Serif" font-size="10.00" fill="#000000">limits.h</text>
</g>
<!-- Node4&#45;&gt;Node7 -->
<g id="edge8" class="edge">
<title>Node4&#45;&gt;Node7</title>
<path fill="none" stroke="#191970" d="M992.2854,-224.4956C1009.8702,-215.7695 1036.0402,-202.0907 1057.5,-188 1080.9993,-172.5702 1106.1198,-152.2738 1122.7031,-138.2834"/>
<polygon fill="#191970" stroke="#191970" points="1125.2027,-140.7517 1130.5431,-131.6012 1120.662,-135.4242 1125.2027,-140.7517"/>
</g>
<!-- Node8 -->
<g id="node9" class="node">
<title>Node8</title>
<polygon fill="none" stroke="#bfbfbf" points="1185.5,-112.5 1185.5,-131.5 1257.5,-131.5 1257.5,-112.5 1185.5,-112.5"/>
<text text-anchor="middle" x="1221.5" y="-119.5" font-family="Helvetica,sans-Serif" font-size="10.00" fill="#000000">periph_cpu.h</text>
</g>
<!-- Node4&#45;&gt;Node8 -->
<g id="edge9" class="edge">
<title>Node4&#45;&gt;Node8</title>
<path fill="none" stroke="#191970" d="M1006.3761,-229.254C1067.0241,-220.4687 1189.1832,-201.3523 1203.5,-188 1216.0969,-176.2517 1220.198,-156.6319 1221.3865,-141.8301"/>
<polygon fill="#191970" stroke="#191970" points="1224.8908,-141.8005 1221.82,-131.6605 1217.8972,-141.5023 1224.8908,-141.8005"/>
</g>
<!-- Node9 -->
<g id="node10" class="node">
<title>Node9</title>
<polygon fill="none" stroke="#bfbfbf" points="1020,-112.5 1020,-131.5 1095,-131.5 1095,-112.5 1020,-112.5"/>
<text text-anchor="middle" x="1057.5" y="-119.5" font-family="Helvetica,sans-Serif" font-size="10.00" fill="#000000">periph_conf.h</text>
</g>
<!-- Node4&#45;&gt;Node9 -->
<g id="edge10" class="edge">
<title>Node4&#45;&gt;Node9</title>
<path fill="none" stroke="#191970" d="M992.5561,-224.3984C1007.0127,-216.511 1025.9397,-204.0371 1037.5,-188 1047.3334,-174.3585 1052.397,-155.8189 1054.9646,-141.8621"/>
<polygon fill="#191970" stroke="#191970" points="1058.4459,-142.2533 1056.5321,-131.8327 1051.5298,-141.1723 1058.4459,-142.2533"/>
</g>
<!-- Node4&#45;&gt;Node10 -->
<g id="edge11" class="edge">
<title>Node4&#45;&gt;Node10</title>
<path fill="none" stroke="#191970" d="M1004.4745,-224.3733C1035.6713,-214.9807 1083.271,-200.6496 1117.2932,-190.4064"/>
<polygon fill="#191970" stroke="#191970" points="1118.3763,-193.7355 1126.9427,-187.5011 1116.3582,-187.0327 1118.3763,-193.7355"/>
</g>
<!-- Node10&#45;&gt;Node7 -->
<g id="edge12" class="edge">
<title>Node10&#45;&gt;Node7</title>
<path fill="none" stroke="#191970" d="M1155.5388,-168.2455C1153.2962,-160.8579 1150.1423,-150.4689 1147.3919,-141.4087"/>
<polygon fill="#191970" stroke="#191970" points="1150.6812,-140.1948 1144.4272,-131.6427 1143.983,-142.2282 1150.6812,-140.1948"/>
</g>
<!-- Node10&#45;&gt;Node8 -->
<g id="edge13" class="edge">
<title>Node10&#45;&gt;Node8</title>
<path fill="none" stroke="#191970" d="M1169.4738,-168.2455C1178.6882,-160.0549 1192.0532,-148.1749 1202.9297,-138.5069"/>
<polygon fill="#191970" stroke="#191970" points="1205.5032,-140.9023 1210.652,-131.6427 1200.8526,-135.6704 1205.5032,-140.9023"/>
</g>
<!-- Node10&#45;&gt;Node9 -->
<g id="edge14" class="edge">
<title>Node10&#45;&gt;Node9</title>
<path fill="none" stroke="#191970" d="M1140.9071,-168.2455C1125.121,-159.4928 1101.7361,-146.527 1083.7413,-136.5496"/>
<polygon fill="#191970" stroke="#191970" points="1085.3341,-133.4308 1074.8913,-131.6427 1081.9397,-139.5528 1085.3341,-133.4308"/>
</g>
<!-- Node11&#45;&gt;Node2 -->
<g id="edge17" class="edge">
<title>Node11&#45;&gt;Node2</title>
<path fill="none" stroke="#191970" d="M164.1706,-168.4734C157.4677,-155.1131 147.9266,-130.3873 157.5,-112 177.5431,-73.5042 198.3635,-74.7613 237.5,-56 277.8325,-36.6654 327.9252,-23.7752 360.7564,-16.6784"/>
<polygon fill="#191970" stroke="#191970" points="361.7065,-20.0553 370.775,-14.5769 360.2695,-13.2044 361.7065,-20.0553"/>
</g>
<!-- Node12 -->
<g id="node13" class="node">
<title>Node12</title>
<g id="a_node13"><a xlink:href="errno_8h.html" target="_top" xlink:title="errno.h">
<polygon fill="none" stroke="#000000" points="0,-112.5 0,-131.5 47,-131.5 47,-112.5 0,-112.5"/>
<text text-anchor="middle" x="23.5" y="-119.5" font-family="Helvetica,sans-Serif" font-size="10.00" fill="#000000">errno.h</text>
</a>
</g>
</g>
<!-- Node11&#45;&gt;Node12 -->
<g id="edge18" class="edge">
<title>Node11&#45;&gt;Node12</title>
<path fill="none" stroke="#191970" d="M144.4017,-168.3733C120.2553,-159.1116 83.5901,-145.0482 56.9683,-134.8371"/>
<polygon fill="#191970" stroke="#191970" points="57.8942,-131.4437 47.304,-131.1303 55.3873,-137.9794 57.8942,-131.4437"/>
</g>
<!-- Node13 -->
<g id="node14" class="node">
<title>Node13</title>
<g id="a_node14"><a xlink:href="iolist_8h.html" target="_top" xlink:title="iolist scatter / gather IO ">
<polygon fill="none" stroke="#000000" points="65,-112.5 65,-131.5 110,-131.5 110,-112.5 65,-112.5"/>
<text text-anchor="middle" x="87.5" y="-119.5" font-family="Helvetica,sans-Serif" font-size="10.00" fill="#000000">iolist.h</text>
</a>
</g>
</g>
<!-- Node11&#45;&gt;Node13 -->
<g id="edge19" class="edge">
<title>Node11&#45;&gt;Node13</title>
<path fill="none" stroke="#191970" d="M155.2167,-168.2455C142.753,-159.7337 124.4549,-147.2375 110.0208,-137.3801"/>
<polygon fill="#191970" stroke="#191970" points="111.8515,-134.392 101.6196,-131.6427 107.9038,-140.1726 111.8515,-134.392"/>
</g>
<!-- Node15 -->
<g id="node16" class="node">
<title>Node15</title>
<g id="a_node16"><a xlink:href="netopt_8h.html" target="_top" xlink:title="Definition of global configuration options. ">
<polygon fill="none" stroke="#000000" points="166.5,-112.5 166.5,-131.5 234.5,-131.5 234.5,-112.5 166.5,-112.5"/>
<text text-anchor="middle" x="200.5" y="-119.5" font-family="Helvetica,sans-Serif" font-size="10.00" fill="#000000">net/netopt.h</text>
</a>
</g>
</g>
<!-- Node11&#45;&gt;Node15 -->
<g id="edge21" class="edge">
<title>Node11&#45;&gt;Node15</title>
<path fill="none" stroke="#191970" d="M174.8998,-168.2455C179.1227,-160.617 185.1173,-149.7881 190.2441,-140.5267"/>
<polygon fill="#191970" stroke="#191970" points="193.381,-142.0867 195.1621,-131.6427 187.2568,-138.6965 193.381,-142.0867"/>
</g>
<!-- Node14 -->
<g id="node15" class="node">
<title>Node14</title>
<polygon fill="none" stroke="#bfbfbf" points="59,-56.5 59,-75.5 110,-75.5 110,-56.5 59,-56.5"/>
<text text-anchor="middle" x="84.5" y="-63.5" font-family="Helvetica,sans-Serif" font-size="10.00" fill="#000000">unistd.h</text>
</g>
<!-- Node13&#45;&gt;Node14 -->
<g id="edge20" class="edge">
<title>Node13&#45;&gt;Node14</title>
<path fill="none" stroke="#191970" d="M86.9774,-112.2455C86.586,-104.9382 86.0372,-94.6944 85.5556,-85.7046"/>
<polygon fill="#191970" stroke="#191970" points="89.0466,-85.4411 85.0166,-75.6427 82.0566,-85.8156 89.0466,-85.4411"/>
</g>
<!-- Node16&#45;&gt;Node11 -->
<g id="edge40" class="edge">
<title>Node16&#45;&gt;Node11</title>
<path fill="none" stroke="#191970" d="M346.7121,-224.3733C310.2141,-214.8224 254.2023,-200.1651 214.9441,-189.8919"/>
<polygon fill="#191970" stroke="#191970" points="215.6571,-186.4607 205.0968,-187.315 213.8849,-193.2327 215.6571,-186.4607"/>
</g>
<!-- Node16&#45;&gt;Node15 -->
<g id="edge39" class="edge">
<title>Node16&#45;&gt;Node15</title>
<path fill="none" stroke="#191970" d="M367.8975,-224.4509C336.0248,-204.9441 263.2318,-160.3932 224.994,-136.9909"/>
<polygon fill="#191970" stroke="#191970" points="226.4194,-133.7598 216.063,-131.5249 222.7653,-139.7304 226.4194,-133.7598"/>
</g>
<!-- Node17 -->
<g id="node18" class="node">
<title>Node17</title>
<g id="a_node18"><a xlink:href="sys_2include_2net_2ieee802154_8h.html" target="_top" xlink:title="IEEE 802.15.4 header definitions. ">
<polygon fill="none" stroke="#000000" points="338,-168.5 338,-187.5 429,-187.5 429,-168.5 338,-168.5"/>
<text text-anchor="middle" x="383.5" y="-175.5" font-family="Helvetica,sans-Serif" font-size="10.00" fill="#000000">net/ieee802154.h</text>
</a>
</g>
</g>
<!-- Node16&#45;&gt;Node17 -->
<g id="edge23" class="edge">
<title>Node16&#45;&gt;Node17</title>
<path fill="none" stroke="#191970" d="M383.5,-224.2455C383.5,-216.9382 383.5,-206.6944 383.5,-197.7046"/>
<polygon fill="#191970" stroke="#191970" points="387.0001,-197.6426 383.5,-187.6427 380.0001,-197.6427 387.0001,-197.6426"/>
</g>
<!-- Node16&#45;&gt;Node22 -->
<g id="edge33" class="edge">
<title>Node16&#45;&gt;Node22</title>
<path fill="none" stroke="#191970" d="M434.9017,-224.4369C488.1714,-214.5263 571.2585,-199.0682 626.7583,-188.7427"/>
<polygon fill="#191970" stroke="#191970" points="627.5957,-192.147 636.7868,-186.8769 626.3153,-185.2651 627.5957,-192.147"/>
</g>
<!-- Node17&#45;&gt;Node2 -->
<g id="edge24" class="edge">
<title>Node17&#45;&gt;Node2</title>
<path fill="none" stroke="#191970" d="M398.8074,-168.4046C410.2037,-160.2816 424.8859,-147.4994 431.5,-132 435.9522,-121.5667 441.4762,-87.6175 430.5,-56 426.8362,-45.4461 419.7399,-35.3721 412.8894,-27.3566"/>
<polygon fill="#191970" stroke="#191970" points="415.3246,-24.8331 405.9936,-19.8148 410.1585,-29.5567 415.3246,-24.8331"/>
</g>
<!-- Node18 -->
<g id="node19" class="node">
<title>Node18</title>
<g id="a_node19"><a xlink:href="stdlib_8h.html" target="_top" xlink:title="stdlib.h wrapper for MSP430 ">
<polygon fill="none" stroke="#000000" points="374.5,-112.5 374.5,-131.5 422.5,-131.5 422.5,-112.5 374.5,-112.5"/>
<text text-anchor="middle" x="398.5" y="-119.5" font-family="Helvetica,sans-Serif" font-size="10.00" fill="#000000">stdlib.h</text>
</a>
</g>
</g>
<!-- Node17&#45;&gt;Node18 -->
<g id="edge25" class="edge">
<title>Node17&#45;&gt;Node18</title>
<path fill="none" stroke="#191970" d="M386.1128,-168.2455C388.0916,-160.8579 390.8744,-150.4689 393.3012,-141.4087"/>
<polygon fill="#191970" stroke="#191970" points="396.7105,-142.2078 395.9171,-131.6427 389.9489,-140.3966 396.7105,-142.2078"/>
</g>
<!-- Node20 -->
<g id="node21" class="node">
<title>Node20</title>
<g id="a_node21"><a xlink:href="byteorder_8h.html" target="_top" xlink:title="Functions to work with different byte orders. ">
<polygon fill="none" stroke="#000000" points="247,-56.5 247,-75.5 312,-75.5 312,-56.5 247,-56.5"/>
<text text-anchor="middle" x="279.5" y="-63.5" font-family="Helvetica,sans-Serif" font-size="10.00" fill="#000000">byteorder.h</text>
</a>
</g>
</g>
<!-- Node17&#45;&gt;Node20 -->
<g id="edge28" class="edge">
<title>Node17&#45;&gt;Node20</title>
<path fill="none" stroke="#191970" d="M337.8955,-169.0129C317.0866,-162.4216 294.2825,-151.1444 281.5,-132 272.5593,-118.6095 272.8271,-100.0455 274.8903,-86.0156"/>
<polygon fill="#191970" stroke="#191970" points="278.38,-86.3959 276.7882,-75.9213 271.5006,-85.1023 278.38,-86.3959"/>
</g>
<!-- Node21 -->
<g id="node22" class="node">
<title>Node21</title>
<g id="a_node22"><a xlink:href="eui64_8h.html" target="_top" xlink:title="EUI&#45;64 data type definition. ">
<polygon fill="none" stroke="#000000" points="291,-112.5 291,-131.5 356,-131.5 356,-112.5 291,-112.5"/>
<text text-anchor="middle" x="323.5" y="-119.5" font-family="Helvetica,sans-Serif" font-size="10.00" fill="#000000">net/eui64.h</text>
</a>
</g>
</g>
<!-- Node17&#45;&gt;Node21 -->
<g id="edge30" class="edge">
<title>Node17&#45;&gt;Node21</title>
<path fill="none" stroke="#191970" d="M373.0488,-168.2455C364.2731,-160.0549 351.5446,-148.1749 341.186,-138.5069"/>
<polygon fill="#191970" stroke="#191970" points="343.5301,-135.9072 333.8314,-131.6427 338.7539,-141.0246 343.5301,-135.9072"/>
</g>
<!-- Node19 -->
<g id="node20" class="node">
<title>Node19</title>
<g id="a_node20"><a xlink:href="malloc_8h.html" target="_top" xlink:title="malloc.h">
<polygon fill="none" stroke="#000000" points="369,-56.5 369,-75.5 422,-75.5 422,-56.5 369,-56.5"/>
<text text-anchor="middle" x="395.5" y="-63.5" font-family="Helvetica,sans-Serif" font-size="10.00" fill="#000000">malloc.h</text>
</a>
</g>
</g>
<!-- Node18&#45;&gt;Node19 -->
<g id="edge26" class="edge">
<title>Node18&#45;&gt;Node19</title>
<path fill="none" stroke="#191970" d="M392.7106,-112.2455C390.9081,-104.9382 389.9551,-94.6944 390.0761,-85.7046"/>
<polygon fill="#191970" stroke="#191970" points="393.5736,-85.8602 390.7714,-75.6427 386.5903,-85.3776 393.5736,-85.8602"/>
</g>
<!-- Node19&#45;&gt;Node18 -->
<g id="edge27" class="edge">
<title>Node19&#45;&gt;Node18</title>
<path fill="none" stroke="#191970" d="M401.2617,-75.6427C403.0729,-82.9199 404.0357,-93.155 403.9257,-102.1575"/>
<polygon fill="#191970" stroke="#191970" points="400.4262,-102.0324 403.2443,-112.2455 407.4103,-102.5042 400.4262,-102.0324"/>
</g>
<!-- Node20&#45;&gt;Node2 -->
<g id="edge29" class="edge">
<title>Node20&#45;&gt;Node2</title>
<path fill="none" stroke="#191970" d="M299.4411,-56.3733C317.9786,-47.4241 345.8028,-33.9917 366.7413,-23.8835"/>
<polygon fill="#191970" stroke="#191970" points="368.3352,-27.0006 375.8191,-19.5011 365.2919,-20.6967 368.3352,-27.0006"/>
</g>
<!-- Node21&#45;&gt;Node2 -->
<g id="edge31" class="edge">
<title>Node21&#45;&gt;Node2</title>
<path fill="none" stroke="#191970" d="M328.1519,-112.3155C334.5959,-99.1913 346.8784,-75.1935 359.5,-56 365.9512,-46.1897 373.9308,-35.844 380.7367,-27.4538"/>
<polygon fill="#191970" stroke="#191970" points="383.6186,-29.4608 387.291,-19.5227 378.2227,-25.0015 383.6186,-29.4608"/>
</g>
<!-- Node21&#45;&gt;Node20 -->
<g id="edge32" class="edge">
<title>Node21&#45;&gt;Node20</title>
<path fill="none" stroke="#191970" d="M315.8358,-112.2455C309.6527,-104.3761 300.7937,-93.101 293.3711,-83.6542"/>
<polygon fill="#191970" stroke="#191970" points="296.0068,-81.3435 287.0764,-75.6427 290.5025,-85.6683 296.0068,-81.3435"/>
</g>
<!-- Node23 -->
<g id="node24" class="node">
<title>Node23</title>
<g id="a_node24"><a xlink:href="inttypes_8h.html" target="_top" xlink:title="Adds include for missing inttype definitions. ">
<polygon fill="none" stroke="#000000" points="517,-112.5 517,-131.5 576,-131.5 576,-112.5 517,-112.5"/>
<text text-anchor="middle" x="546.5" y="-119.5" font-family="Helvetica,sans-Serif" font-size="10.00" fill="#000000">inttypes.h</text>
</a>
</g>
</g>
<!-- Node22&#45;&gt;Node23 -->
<g id="edge34" class="edge">
<title>Node22&#45;&gt;Node23</title>
<path fill="none" stroke="#191970" d="M660.777,-168.3733C638.3263,-159.2629 604.4261,-145.5062 579.3745,-135.3404"/>
<polygon fill="#191970" stroke="#191970" points="580.4957,-132.0182 569.9135,-131.5011 577.8635,-138.5045 580.4957,-132.0182"/>
</g>
<!-- Node24 -->
<g id="node25" class="node">
<title>Node24</title>
<g id="a_node25"><a xlink:href="kernel__defines_8h.html" target="_top" xlink:title="Common macros and compiler attributes/pragmas configuration. ">
<polygon fill="none" stroke="#000000" points="790.5,-112.5 790.5,-131.5 878.5,-131.5 878.5,-112.5 790.5,-112.5"/>
<text text-anchor="middle" x="834.5" y="-119.5" font-family="Helvetica,sans-Serif" font-size="10.00" fill="#000000">kernel_defines.h</text>
</a>
</g>
</g>
<!-- Node22&#45;&gt;Node24 -->
<g id="edge35" class="edge">
<title>Node22&#45;&gt;Node24</title>
<path fill="none" stroke="#191970" d="M710.2859,-168.3733C734.9047,-159.1822 772.19,-145.2624 799.4875,-135.0713"/>
<polygon fill="#191970" stroke="#191970" points="800.9063,-138.2777 809.0506,-131.5011 798.458,-131.7198 800.9063,-138.2777"/>
</g>
<!-- Node25 -->
<g id="node26" class="node">
<title>Node25</title>
<g id="a_node26"><a xlink:href="ethertype_8h.html" target="_top" xlink:title="Ether type definitions. ">
<polygon fill="none" stroke="#000000" points="594.5,-112.5 594.5,-131.5 676.5,-131.5 676.5,-112.5 594.5,-112.5"/>
<text text-anchor="middle" x="635.5" y="-119.5" font-family="Helvetica,sans-Serif" font-size="10.00" fill="#000000">net/ethertype.h</text>
</a>
</g>
</g>
<!-- Node22&#45;&gt;Node25 -->
<g id="edge37" class="edge">
<title>Node22&#45;&gt;Node25</title>
<path fill="none" stroke="#191970" d="M675.9649,-168.2455C669.0088,-160.2958 659.0117,-148.8706 650.6949,-139.3656"/>
<polygon fill="#191970" stroke="#191970" points="653.1564,-136.8637 643.9373,-131.6427 647.8884,-141.4732 653.1564,-136.8637"/>
</g>
<!-- Node26 -->
<g id="node27" class="node">
<title>Node26</title>
<g id="a_node27"><a xlink:href="protnum_8h.html" target="_top" xlink:title="Protocol number definitions. ">
<polygon fill="none" stroke="#000000" points="695,-112.5 695,-131.5 772,-131.5 772,-112.5 695,-112.5"/>
<text text-anchor="middle" x="733.5" y="-119.5" font-family="Helvetica,sans-Serif" font-size="10.00" fill="#000000">net/protnum.h</text>
</a>
</g>
</g>
<!-- Node22&#45;&gt;Node26 -->
<g id="edge38" class="edge">
<title>Node22&#45;&gt;Node26</title>
<path fill="none" stroke="#191970" d="M693.0351,-168.2455C699.9912,-160.2958 709.9883,-148.8706 718.3051,-139.3656"/>
<polygon fill="#191970" stroke="#191970" points="721.1116,-141.4732 725.0627,-131.6427 715.8436,-136.8637 721.1116,-141.4732"/>
</g>
<!-- Node24&#45;&gt;Node6 -->
<g id="edge36" class="edge">
<title>Node24&#45;&gt;Node6</title>
<path fill="none" stroke="#191970" d="M839.3772,-112.2455C843.1513,-104.6973 848.4921,-94.0158 853.0901,-84.8197"/>
<polygon fill="#191970" stroke="#191970" points="856.337,-86.1522 857.6787,-75.6427 850.076,-83.0217 856.337,-86.1522"/>
</g>
</g>
</svg>
