<?xml version="1.0" encoding="UTF-8" standalone="no"?>
<!DOCTYPE svg PUBLIC "-//W3C//DTD SVG 1.1//EN"
 "http://www.w3.org/Graphics/SVG/1.1/DTD/svg11.dtd">
<!-- Generated by graphviz version 2.43.0 (0)
 -->
<!-- Title: drivers/kw2xrf/include/kw2xrf_spi.h Pages: 1 -->
<svg width="466pt" height="207pt"
 viewBox="0.00 0.00 466.11 207.00" xmlns="http://www.w3.org/2000/svg" xmlns:xlink="http://www.w3.org/1999/xlink">
<g id="graph0" class="graph" transform="scale(1 1) rotate(0) translate(4 203)">
<title>drivers/kw2xrf/include/kw2xrf_spi.h</title>
<!-- Node1 -->
<g id="node1" class="node">
<title>Node1</title>
<g id="a_node1"><a xlink:title="Definition of KW2XRF SPI functions.">
<polygon fill="#bfbfbf" stroke="black" points="98.5,-168.5 98.5,-198.5 223.5,-198.5 223.5,-168.5 98.5,-168.5"/>
<text text-anchor="start" x="106.5" y="-186.5" font-family="Helvetica,sans-Serif" font-size="10.00">drivers/kw2xrf/include</text>
<text text-anchor="middle" x="161" y="-175.5" font-family="Helvetica,sans-Serif" font-size="10.00">/kw2xrf_spi.h</text>
</a>
</g>
</g>
<!-- Node2 -->
<g id="node2" class="node">
<title>Node2</title>
<g id="a_node2"><a xlink:title=" ">
<polygon fill="none" stroke="#bfbfbf" points="0,-112.5 0,-131.5 50,-131.5 50,-112.5 0,-112.5"/>
<text text-anchor="middle" x="25" y="-119.5" font-family="Helvetica,sans-Serif" font-size="10.00">stdio.h</text>
</a>
</g>
</g>
<!-- Node1&#45;&gt;Node2 -->
<g id="edge1" class="edge">
<title>Node1&#45;&gt;Node2</title>
<path fill="none" stroke="midnightblue" d="M128.77,-168.4C106.16,-158.51 76.16,-145.38 54.24,-135.79"/>
<polygon fill="midnightblue" stroke="midnightblue" points="55.35,-132.46 44.79,-131.66 52.55,-138.87 55.35,-132.46"/>
</g>
<!-- Node3 -->
<g id="node3" class="node">
<title>Node3</title>
<g id="a_node3"><a xlink:title=" ">
<polygon fill="none" stroke="#bfbfbf" points="68.5,-112.5 68.5,-131.5 121.5,-131.5 121.5,-112.5 68.5,-112.5"/>
<text text-anchor="middle" x="95" y="-119.5" font-family="Helvetica,sans-Serif" font-size="10.00">board.h</text>
</a>
</g>
</g>
<!-- Node1&#45;&gt;Node3 -->
<g id="edge2" class="edge">
<title>Node1&#45;&gt;Node3</title>
<path fill="none" stroke="midnightblue" d="M145.36,-168.4C135.37,-159.4 122.42,-147.72 112.15,-138.47"/>
<polygon fill="midnightblue" stroke="midnightblue" points="114.37,-135.75 104.6,-131.66 109.69,-140.95 114.37,-135.75"/>
</g>
<!-- Node4 -->
<g id="node4" class="node">
<title>Node4</title>
<g id="a_node4"><a xlink:title=" ">
<polygon fill="none" stroke="#bfbfbf" points="139.5,-112.5 139.5,-131.5 182.5,-131.5 182.5,-112.5 139.5,-112.5"/>
<text text-anchor="middle" x="161" y="-119.5" font-family="Helvetica,sans-Serif" font-size="10.00">cpu.h</text>
</a>
</g>
</g>
<!-- Node1&#45;&gt;Node4 -->
<g id="edge3" class="edge">
<title>Node1&#45;&gt;Node4</title>
<path fill="none" stroke="midnightblue" d="M161,-168.4C161,-160.47 161,-150.46 161,-141.86"/>
<polygon fill="midnightblue" stroke="midnightblue" points="164.5,-141.66 161,-131.66 157.5,-141.66 164.5,-141.66"/>
</g>
<!-- Node5 -->
<g id="node5" class="node">
<title>Node5</title>
<g id="a_node5"><a xlink:href="spi_8h.html" target="_top" xlink:title="Low&#45;level SPI peripheral driver interface definition.">
<polygon fill="none" stroke="black" points="201,-112.5 201,-131.5 275,-131.5 275,-112.5 201,-112.5"/>
<text text-anchor="middle" x="238" y="-119.5" font-family="Helvetica,sans-Serif" font-size="10.00">periph/spi.h</text>
</a>
</g>
</g>
<!-- Node1&#45;&gt;Node5 -->
<g id="edge4" class="edge">
<title>Node1&#45;&gt;Node5</title>
<path fill="none" stroke="midnightblue" d="M179.25,-168.4C191.13,-159.22 206.61,-147.26 218.69,-137.92"/>
<polygon fill="midnightblue" stroke="midnightblue" points="221.02,-140.54 226.8,-131.66 216.74,-135 221.02,-140.54"/>
</g>
<!-- Node11 -->
<g id="node11" class="node">
<title>Node11</title>
<g id="a_node11"><a xlink:title=" ">
<polygon fill="none" stroke="#bfbfbf" points="177,-0.5 177,-19.5 259,-19.5 259,-0.5 177,-0.5"/>
<text text-anchor="middle" x="218" y="-7.5" font-family="Helvetica,sans-Serif" font-size="10.00">periph_conf.h</text>
</a>
</g>
</g>
<!-- Node1&#45;&gt;Node11 -->
<g id="edge15" class="edge">
<title>Node1&#45;&gt;Node11</title>
<path fill="none" stroke="midnightblue" d="M223.5,-179.71C292.93,-172.86 402.06,-150.14 454,-76 459.1,-68.72 459.67,-62.85 454,-56 431.02,-28.22 331.45,-17.44 269.22,-13.37"/>
<polygon fill="midnightblue" stroke="midnightblue" points="269.39,-9.87 259.19,-12.75 268.96,-16.86 269.39,-9.87"/>
</g>
<!-- Node6 -->
<g id="node6" class="node">
<title>Node6</title>
<g id="a_node6"><a xlink:title=" ">
<polygon fill="none" stroke="#bfbfbf" points="237,-56.5 237,-75.5 299,-75.5 299,-56.5 237,-56.5"/>
<text text-anchor="middle" x="268" y="-63.5" font-family="Helvetica,sans-Serif" font-size="10.00">stdbool.h</text>
</a>
</g>
</g>
<!-- Node5&#45;&gt;Node6 -->
<g id="edge5" class="edge">
<title>Node5&#45;&gt;Node6</title>
<path fill="none" stroke="midnightblue" d="M242.95,-112.08C247.1,-104.61 253.15,-93.72 258.27,-84.52"/>
<polygon fill="midnightblue" stroke="midnightblue" points="261.34,-86.19 263.14,-75.75 255.22,-82.79 261.34,-86.19"/>
</g>
<!-- Node7 -->
<g id="node7" class="node">
<title>Node7</title>
<g id="a_node7"><a xlink:title=" ">
<polygon fill="none" stroke="#bfbfbf" points="317,-56.5 317,-75.5 373,-75.5 373,-56.5 317,-56.5"/>
<text text-anchor="middle" x="345" y="-63.5" font-family="Helvetica,sans-Serif" font-size="10.00">stddef.h</text>
</a>
</g>
</g>
<!-- Node5&#45;&gt;Node7 -->
<g id="edge6" class="edge">
<title>Node5&#45;&gt;Node7</title>
<path fill="none" stroke="midnightblue" d="M255.19,-112.32C272.35,-103.66 298.95,-90.24 318.75,-80.25"/>
<polygon fill="midnightblue" stroke="midnightblue" points="320.5,-83.28 327.85,-75.65 317.35,-77.04 320.5,-83.28"/>
</g>
<!-- Node8 -->
<g id="node8" class="node">
<title>Node8</title>
<g id="a_node8"><a xlink:title=" ">
<polygon fill="none" stroke="#bfbfbf" points="391.5,-56.5 391.5,-75.5 444.5,-75.5 444.5,-56.5 391.5,-56.5"/>
<text text-anchor="middle" x="418" y="-63.5" font-family="Helvetica,sans-Serif" font-size="10.00">stdint.h</text>
</a>
</g>
</g>
<!-- Node5&#45;&gt;Node8 -->
<g id="edge7" class="edge">
<title>Node5&#45;&gt;Node8</title>
<path fill="none" stroke="midnightblue" d="M266.52,-112.44C297.61,-103.12 347.43,-88.17 381.38,-77.99"/>
<polygon fill="midnightblue" stroke="midnightblue" points="382.8,-81.21 391.37,-74.99 380.79,-74.51 382.8,-81.21"/>
</g>
<!-- Node9 -->
<g id="node9" class="node">
<title>Node9</title>
<g id="a_node9"><a xlink:title=" ">
<polygon fill="none" stroke="#bfbfbf" points="8.5,-0.5 8.5,-19.5 61.5,-19.5 61.5,-0.5 8.5,-0.5"/>
<text text-anchor="middle" x="35" y="-7.5" font-family="Helvetica,sans-Serif" font-size="10.00">limits.h</text>
</a>
</g>
</g>
<!-- Node5&#45;&gt;Node9 -->
<g id="edge8" class="edge">
<title>Node5&#45;&gt;Node9</title>
<path fill="none" stroke="midnightblue" d="M200.83,-112.9C148.64,-101.4 59.36,-81.13 54,-76 41.53,-64.07 37.11,-44.46 35.61,-29.89"/>
<polygon fill="midnightblue" stroke="midnightblue" points="39.08,-29.28 34.94,-19.53 32.1,-29.74 39.08,-29.28"/>
</g>
<!-- Node10 -->
<g id="node10" class="node">
<title>Node10</title>
<g id="a_node10"><a xlink:title=" ">
<polygon fill="none" stroke="#bfbfbf" points="79.5,-0.5 79.5,-19.5 158.5,-19.5 158.5,-0.5 79.5,-0.5"/>
<text text-anchor="middle" x="119" y="-7.5" font-family="Helvetica,sans-Serif" font-size="10.00">periph_cpu.h</text>
</a>
</g>
</g>
<!-- Node5&#45;&gt;Node10 -->
<g id="edge9" class="edge">
<title>Node5&#45;&gt;Node10</title>
<path fill="none" stroke="midnightblue" d="M228.66,-112.37C208.59,-93.81 161.1,-49.91 135.7,-26.44"/>
<polygon fill="midnightblue" stroke="midnightblue" points="138.01,-23.81 128.29,-19.59 133.26,-28.95 138.01,-23.81"/>
</g>
<!-- Node5&#45;&gt;Node11 -->
<g id="edge10" class="edge">
<title>Node5&#45;&gt;Node11</title>
<path fill="none" stroke="midnightblue" d="M235.91,-112.41C233.76,-103.38 230.39,-88.74 228,-76 225.1,-60.55 222.43,-42.92 220.57,-29.92"/>
<polygon fill="midnightblue" stroke="midnightblue" points="224.02,-29.28 219.17,-19.86 217.09,-30.25 224.02,-29.28"/>
</g>
<!-- Node12 -->
<g id="node12" class="node">
<title>Node12</title>
<g id="a_node12"><a xlink:href="gpio_8h.html" target="_top" xlink:title="Low&#45;level GPIO peripheral driver interface definitions.">
<polygon fill="none" stroke="black" points="63,-56.5 63,-75.5 143,-75.5 143,-56.5 63,-56.5"/>
<text text-anchor="middle" x="103" y="-63.5" font-family="Helvetica,sans-Serif" font-size="10.00">periph/gpio.h</text>
</a>
</g>
</g>
<!-- Node5&#45;&gt;Node12 -->
<g id="edge11" class="edge">
<title>Node5&#45;&gt;Node12</title>
<path fill="none" stroke="midnightblue" d="M216.61,-112.44C194.29,-103.52 159.1,-89.44 133.79,-79.32"/>
<polygon fill="midnightblue" stroke="midnightblue" points="134.88,-75.98 124.29,-75.52 132.28,-82.48 134.88,-75.98"/>
</g>
<!-- Node12&#45;&gt;Node9 -->
<g id="edge12" class="edge">
<title>Node12&#45;&gt;Node9</title>
<path fill="none" stroke="midnightblue" d="M92.07,-56.32C81.83,-48.18 66.28,-35.84 54,-26.09"/>
<polygon fill="midnightblue" stroke="midnightblue" points="56.13,-23.31 46.12,-19.83 51.78,-28.79 56.13,-23.31"/>
</g>
<!-- Node12&#45;&gt;Node10 -->
<g id="edge13" class="edge">
<title>Node12&#45;&gt;Node10</title>
<path fill="none" stroke="midnightblue" d="M105.64,-56.08C107.79,-48.85 110.88,-38.41 113.55,-29.4"/>
<polygon fill="midnightblue" stroke="midnightblue" points="116.92,-30.33 116.41,-19.75 110.21,-28.34 116.92,-30.33"/>
</g>
<!-- Node12&#45;&gt;Node11 -->
<g id="edge14" class="edge">
<title>Node12&#45;&gt;Node11</title>
<path fill="none" stroke="midnightblue" d="M121.22,-56.44C139.9,-47.68 169.16,-33.94 190.62,-23.86"/>
<polygon fill="midnightblue" stroke="midnightblue" points="192.3,-26.93 199.86,-19.52 189.32,-20.6 192.3,-26.93"/>
</g>
</g>
</svg>
