<?xml version="1.0" encoding="UTF-8" standalone="no"?>
<!DOCTYPE svg PUBLIC "-//W3C//DTD SVG 1.1//EN"
 "http://www.w3.org/Graphics/SVG/1.1/DTD/svg11.dtd">
<!-- Generated by graphviz version 2.43.0 (0)
 -->
<!-- Title: boards/common/kw41z/include/board_common.h Pages: 1 -->
<svg width="162pt" height="95pt"
 viewBox="0.00 0.00 161.50 95.00" xmlns="http://www.w3.org/2000/svg" xmlns:xlink="http://www.w3.org/1999/xlink">
<g id="graph0" class="graph" transform="scale(1 1) rotate(0) translate(4 91)">
<title>boards/common/kw41z/include/board_common.h</title>
<!-- Node1 -->
<g id="node1" class="node">
<title>Node1</title>
<g id="a_node1"><a xlink:title="Shared configuration for some kw41z&#45;based boards.">
<polygon fill="#bfbfbf" stroke="black" points="0,-56.5 0,-86.5 143,-86.5 143,-56.5 0,-56.5"/>
<text text-anchor="start" x="8" y="-74.5" font-family="Helvetica,sans-Serif" font-size="10.00">boards/common/kw41z</text>
<text text-anchor="middle" x="71.5" y="-63.5" font-family="Helvetica,sans-Serif" font-size="10.00">/include/board_common.h</text>
</a>
</g>
</g>
<!-- Node2 -->
<g id="node2" class="node">
<title>Node2</title>
<g id="a_node2"><a xlink:title=" ">
<polygon fill="none" stroke="#bfbfbf" points="10,-0.5 10,-19.5 53,-19.5 53,-0.5 10,-0.5"/>
<text text-anchor="middle" x="31.5" y="-7.5" font-family="Helvetica,sans-Serif" font-size="10.00">cpu.h</text>
</a>
</g>
</g>
<!-- Node1&#45;&gt;Node2 -->
<g id="edge1" class="edge">
<title>Node1&#45;&gt;Node2</title>
<path fill="none" stroke="midnightblue" d="M62.02,-56.4C56.33,-47.93 49.05,-37.1 43.02,-28.14"/>
<polygon fill="midnightblue" stroke="midnightblue" points="45.8,-26 37.32,-19.66 39.99,-29.91 45.8,-26"/>
</g>
<!-- Node3 -->
<g id="node3" class="node">
<title>Node3</title>
<g id="a_node3"><a xlink:title=" ">
<polygon fill="none" stroke="#bfbfbf" points="71.5,-0.5 71.5,-19.5 153.5,-19.5 153.5,-0.5 71.5,-0.5"/>
<text text-anchor="middle" x="112.5" y="-7.5" font-family="Helvetica,sans-Serif" font-size="10.00">periph_conf.h</text>
</a>
</g>
</g>
<!-- Node1&#45;&gt;Node3 -->
<g id="edge2" class="edge">
<title>Node1&#45;&gt;Node3</title>
<path fill="none" stroke="midnightblue" d="M81.22,-56.4C87.05,-47.93 94.52,-37.1 100.69,-28.14"/>
<polygon fill="midnightblue" stroke="midnightblue" points="103.74,-29.88 106.53,-19.66 97.98,-25.91 103.74,-29.88"/>
</g>
</g>
</svg>
