<?xml version="1.0" encoding="UTF-8" standalone="no"?>
<!DOCTYPE svg PUBLIC "-//W3C//DTD SVG 1.1//EN"
 "http://www.w3.org/Graphics/SVG/1.1/DTD/svg11.dtd">
<!-- Generated by graphviz version 2.43.0 (0)
 -->
<!-- Title: drivers/kw41zrf/include/kw41zrf_intern.h Pages: 1 -->
<svg width="1344pt" height="543pt"
 viewBox="0.00 0.00 1344.01 543.00" xmlns="http://www.w3.org/2000/svg" xmlns:xlink="http://www.w3.org/1999/xlink">
<g id="graph0" class="graph" transform="scale(1 1) rotate(0) translate(4 539)">
<title>drivers/kw41zrf/include/kw41zrf_intern.h</title>
<!-- Node1 -->
<g id="node1" class="node">
<title>Node1</title>
<g id="a_node1"><a xlink:title="Internal function interfaces for kw41zrf driver.">
<polygon fill="#bfbfbf" stroke="black" points="1104.01,-504.5 1104.01,-534.5 1235.01,-534.5 1235.01,-504.5 1104.01,-504.5"/>
<text text-anchor="start" x="1112.01" y="-522.5" font-family="Helvetica,sans-Serif" font-size="10.00">drivers/kw41zrf/include</text>
<text text-anchor="middle" x="1169.51" y="-511.5" font-family="Helvetica,sans-Serif" font-size="10.00">/kw41zrf_intern.h</text>
</a>
</g>
</g>
<!-- Node2 -->
<g id="node2" class="node">
<title>Node2</title>
<g id="a_node2"><a xlink:title=" ">
<polygon fill="none" stroke="#bfbfbf" points="818.01,-0.5 818.01,-19.5 871.01,-19.5 871.01,-0.5 818.01,-0.5"/>
<text text-anchor="middle" x="844.51" y="-7.5" font-family="Helvetica,sans-Serif" font-size="10.00">stdint.h</text>
</a>
</g>
</g>
<!-- Node1&#45;&gt;Node2 -->
<g id="edge1" class="edge">
<title>Node1&#45;&gt;Node2</title>
<path fill="none" stroke="midnightblue" d="M1192.51,-504.45C1220.62,-485.3 1264.51,-448.18 1264.51,-403 1264.51,-403 1264.51,-403 1264.51,-121 1264.51,-42.1 983.66,-18.68 881.28,-12.77"/>
<polygon fill="midnightblue" stroke="midnightblue" points="881.28,-9.26 871.1,-12.2 880.89,-16.25 881.28,-9.26"/>
</g>
<!-- Node3 -->
<g id="node3" class="node">
<title>Node3</title>
<g id="a_node3"><a xlink:href="kw41zrf_8h.html" target="_top" xlink:title="Interface definition for the kw41zrf driver.">
<polygon fill="none" stroke="black" points="830.51,-392.5 830.51,-411.5 894.51,-411.5 894.51,-392.5 830.51,-392.5"/>
<text text-anchor="middle" x="862.51" y="-399.5" font-family="Helvetica,sans-Serif" font-size="10.00">kw41zrf.h</text>
</a>
</g>
</g>
<!-- Node1&#45;&gt;Node3 -->
<g id="edge2" class="edge">
<title>Node1&#45;&gt;Node3</title>
<path fill="none" stroke="midnightblue" d="M1132.17,-504.45C1071.42,-481.6 952.21,-436.75 894.85,-415.17"/>
<polygon fill="midnightblue" stroke="midnightblue" points="895.81,-411.79 885.22,-411.54 893.34,-418.34 895.81,-411.79"/>
</g>
<!-- Node38 -->
<g id="node38" class="node">
<title>Node38</title>
<g id="a_node38"><a xlink:href="kw41zrf__getset_8h.html" target="_top" xlink:title="get/set interfaces for kw41zrf driver">
<polygon fill="none" stroke="black" points="869.01,-448.5 869.01,-467.5 970.01,-467.5 970.01,-448.5 869.01,-448.5"/>
<text text-anchor="middle" x="919.51" y="-455.5" font-family="Helvetica,sans-Serif" font-size="10.00">kw41zrf_getset.h</text>
</a>
</g>
</g>
<!-- Node1&#45;&gt;Node38 -->
<g id="edge71" class="edge">
<title>Node1&#45;&gt;Node38</title>
<path fill="none" stroke="midnightblue" d="M1110.58,-504.47C1066.13,-493.9 1006.04,-479.59 965.2,-469.87"/>
<polygon fill="midnightblue" stroke="midnightblue" points="965.79,-466.42 955.25,-467.51 964.17,-473.23 965.79,-466.42"/>
</g>
<!-- Node39 -->
<g id="node39" class="node">
<title>Node39</title>
<g id="a_node39"><a xlink:title=" ">
<polygon fill="none" stroke="#bfbfbf" points="1293.01,-448.5 1293.01,-467.5 1336.01,-467.5 1336.01,-448.5 1293.01,-448.5"/>
<text text-anchor="middle" x="1314.51" y="-455.5" font-family="Helvetica,sans-Serif" font-size="10.00">cpu.h</text>
</a>
</g>
</g>
<!-- Node1&#45;&gt;Node39 -->
<g id="edge73" class="edge">
<title>Node1&#45;&gt;Node39</title>
<path fill="none" stroke="midnightblue" d="M1203.87,-504.4C1228.2,-494.42 1260.54,-481.15 1283.97,-471.53"/>
<polygon fill="midnightblue" stroke="midnightblue" points="1285.49,-474.69 1293.41,-467.66 1282.83,-468.22 1285.49,-474.69"/>
</g>
<!-- Node3&#45;&gt;Node2 -->
<g id="edge3" class="edge">
<title>Node3&#45;&gt;Node2</title>
<path fill="none" stroke="midnightblue" d="M859.84,-392.26C855.02,-378.06 843.47,-350.17 823.51,-336 759.11,-290.3 699.38,-361.24 649.51,-300 628.18,-273.81 639.59,-256.29 649.51,-224 664.69,-174.59 781.94,-66.58 826.97,-26.43"/>
<polygon fill="midnightblue" stroke="midnightblue" points="829.58,-28.8 834.74,-19.55 824.93,-23.56 829.58,-28.8"/>
</g>
<!-- Node4 -->
<g id="node4" class="node">
<title>Node4</title>
<g id="a_node4"><a xlink:href="mutex_8h.html" target="_top" xlink:title="Mutex for thread synchronization.">
<polygon fill="none" stroke="black" points="224.01,-336.5 224.01,-355.5 281.01,-355.5 281.01,-336.5 224.01,-336.5"/>
<text text-anchor="middle" x="252.51" y="-343.5" font-family="Helvetica,sans-Serif" font-size="10.00">mutex.h</text>
</a>
</g>
</g>
<!-- Node3&#45;&gt;Node4 -->
<g id="edge4" class="edge">
<title>Node3&#45;&gt;Node4</title>
<path fill="none" stroke="midnightblue" d="M830.15,-398.13C726.59,-388.97 403.6,-360.37 291.39,-350.44"/>
<polygon fill="midnightblue" stroke="midnightblue" points="291.47,-346.94 281.2,-349.54 290.85,-353.91 291.47,-346.94"/>
</g>
<!-- Node20 -->
<g id="node20" class="node">
<title>Node20</title>
<g id="a_node20"><a xlink:title=" ">
<polygon fill="none" stroke="#bfbfbf" points="762.01,-336.5 762.01,-355.5 815.01,-355.5 815.01,-336.5 762.01,-336.5"/>
<text text-anchor="middle" x="788.51" y="-343.5" font-family="Helvetica,sans-Serif" font-size="10.00">board.h</text>
</a>
</g>
</g>
<!-- Node3&#45;&gt;Node20 -->
<g id="edge33" class="edge">
<title>Node3&#45;&gt;Node20</title>
<path fill="none" stroke="midnightblue" d="M850.62,-392.32C839.36,-384.11 822.23,-371.6 808.8,-361.81"/>
<polygon fill="midnightblue" stroke="midnightblue" points="810.76,-358.9 800.62,-355.83 806.63,-364.56 810.76,-358.9"/>
</g>
<!-- Node21 -->
<g id="node21" class="node">
<title>Node21</title>
<g id="a_node21"><a xlink:href="drivers_2include_2net_2netdev_8h.html" target="_top" xlink:title="Definitions low&#45;level network driver interface.">
<polygon fill="none" stroke="black" points="873.01,-224.5 873.01,-243.5 950.01,-243.5 950.01,-224.5 873.01,-224.5"/>
<text text-anchor="middle" x="911.51" y="-231.5" font-family="Helvetica,sans-Serif" font-size="10.00">net/netdev.h</text>
</a>
</g>
</g>
<!-- Node3&#45;&gt;Node21 -->
<g id="edge34" class="edge">
<title>Node3&#45;&gt;Node21</title>
<path fill="none" stroke="midnightblue" d="M830.5,-395.75C791.75,-387.8 733.87,-369.92 752.51,-336 778.03,-289.56 834.93,-261.45 873.28,-247.07"/>
<polygon fill="midnightblue" stroke="midnightblue" points="874.85,-250.22 883.08,-243.54 872.48,-243.63 874.85,-250.22"/>
</g>
<!-- Node27 -->
<g id="node27" class="node">
<title>Node27</title>
<g id="a_node27"><a xlink:href="drivers_2include_2net_2netdev_2ieee802154_8h.html" target="_top" xlink:title="Definitions for netdev common IEEE 802.15.4 code.">
<polygon fill="none" stroke="black" points="909.51,-336.5 909.51,-355.5 1047.51,-355.5 1047.51,-336.5 909.51,-336.5"/>
<text text-anchor="middle" x="978.51" y="-343.5" font-family="Helvetica,sans-Serif" font-size="10.00">net/netdev/ieee802154.h</text>
</a>
</g>
</g>
<!-- Node3&#45;&gt;Node27 -->
<g id="edge46" class="edge">
<title>Node3&#45;&gt;Node27</title>
<path fill="none" stroke="midnightblue" d="M880.89,-392.44C899.73,-383.68 929.24,-369.94 950.89,-359.86"/>
<polygon fill="midnightblue" stroke="midnightblue" points="952.63,-362.91 960.22,-355.52 949.67,-356.56 952.63,-362.91"/>
</g>
<!-- Node35 -->
<g id="node35" class="node">
<title>Node35</title>
<g id="a_node35"><a xlink:href="nettype_8h.html" target="_top" xlink:title="Protocol type definitions.">
<polygon fill="none" stroke="black" points="658.51,-280.5 658.51,-299.5 764.51,-299.5 764.51,-280.5 658.51,-280.5"/>
<text text-anchor="middle" x="711.51" y="-287.5" font-family="Helvetica,sans-Serif" font-size="10.00">net/gnrc/nettype.h</text>
</a>
</g>
</g>
<!-- Node3&#45;&gt;Node35 -->
<g id="edge70" class="edge">
<title>Node3&#45;&gt;Node35</title>
<path fill="none" stroke="midnightblue" d="M864.63,-392.33C867.41,-378.73 870.51,-352.27 857.51,-336 837.65,-311.15 804.35,-299.71 774.56,-294.56"/>
<polygon fill="midnightblue" stroke="midnightblue" points="775.04,-291.09 764.62,-293.05 773.98,-298.02 775.04,-291.09"/>
</g>
<!-- Node4&#45;&gt;Node2 -->
<g id="edge6" class="edge">
<title>Node4&#45;&gt;Node2</title>
<path fill="none" stroke="midnightblue" d="M281.24,-338.5C311.79,-331.09 361.17,-317.68 401.51,-300 536.19,-240.99 583.47,-236.89 686.51,-132 713.71,-104.31 700.19,-81.43 729.51,-56 751.76,-36.7 783.25,-25.16 807.65,-18.6"/>
<polygon fill="midnightblue" stroke="midnightblue" points="808.78,-21.93 817.63,-16.09 807.07,-15.14 808.78,-21.93"/>
</g>
<!-- Node5 -->
<g id="node5" class="node">
<title>Node5</title>
<g id="a_node5"><a xlink:title=" ">
<polygon fill="none" stroke="#bfbfbf" points="273.51,-0.5 273.51,-19.5 329.51,-19.5 329.51,-0.5 273.51,-0.5"/>
<text text-anchor="middle" x="301.51" y="-7.5" font-family="Helvetica,sans-Serif" font-size="10.00">stddef.h</text>
</a>
</g>
</g>
<!-- Node4&#45;&gt;Node5 -->
<g id="edge5" class="edge">
<title>Node4&#45;&gt;Node5</title>
<path fill="none" stroke="midnightblue" d="M223.6,-345.25C157.41,-344.17 0.51,-331.43 0.51,-235 0.51,-235 0.51,-235 0.51,-121 0.51,-90.64 -1.53,-75.76 21.51,-56 57.17,-25.43 195.2,-15.43 263.21,-12.32"/>
<polygon fill="midnightblue" stroke="midnightblue" points="263.65,-15.8 273.49,-11.88 263.35,-8.81 263.65,-15.8"/>
</g>
<!-- Node6 -->
<g id="node6" class="node">
<title>Node6</title>
<g id="a_node6"><a xlink:href="irq_8h.html" target="_top" xlink:title="IRQ driver interface.">
<polygon fill="none" stroke="black" points="119.51,-280.5 119.51,-299.5 157.51,-299.5 157.51,-280.5 119.51,-280.5"/>
<text text-anchor="middle" x="138.51" y="-287.5" font-family="Helvetica,sans-Serif" font-size="10.00">irq.h</text>
</a>
</g>
</g>
<!-- Node4&#45;&gt;Node6 -->
<g id="edge7" class="edge">
<title>Node4&#45;&gt;Node6</title>
<path fill="none" stroke="midnightblue" d="M234.45,-336.44C215.94,-327.68 186.93,-313.94 165.66,-303.86"/>
<polygon fill="midnightblue" stroke="midnightblue" points="167.03,-300.63 156.49,-299.52 164.03,-306.96 167.03,-300.63"/>
</g>
<!-- Node9 -->
<g id="node9" class="node">
<title>Node9</title>
<g id="a_node9"><a xlink:href="kernel__defines_8h.html" target="_top" xlink:title="Common macros and compiler attributes/pragmas configuration.">
<polygon fill="none" stroke="black" points="414.01,-56.5 414.01,-75.5 511.01,-75.5 511.01,-56.5 414.01,-56.5"/>
<text text-anchor="middle" x="462.51" y="-63.5" font-family="Helvetica,sans-Serif" font-size="10.00">kernel_defines.h</text>
</a>
</g>
</g>
<!-- Node4&#45;&gt;Node9 -->
<g id="edge10" class="edge">
<title>Node4&#45;&gt;Node9</title>
<path fill="none" stroke="midnightblue" d="M281.22,-336.7C335.23,-319.34 450.73,-273.54 497.51,-188 513.72,-158.36 508.47,-143.95 497.51,-112 493.79,-101.16 486.28,-90.92 479.16,-82.96"/>
<polygon fill="midnightblue" stroke="midnightblue" points="481.51,-80.35 472.07,-75.55 476.46,-85.19 481.51,-80.35"/>
</g>
<!-- Node10 -->
<g id="node10" class="node">
<title>Node10</title>
<g id="a_node10"><a xlink:href="list_8h.html" target="_top" xlink:title="Intrusive linked list.">
<polygon fill="none" stroke="black" points="31.01,-56.5 31.01,-75.5 72.01,-75.5 72.01,-56.5 31.01,-56.5"/>
<text text-anchor="middle" x="51.51" y="-63.5" font-family="Helvetica,sans-Serif" font-size="10.00">list.h</text>
</a>
</g>
</g>
<!-- Node4&#45;&gt;Node10 -->
<g id="edge13" class="edge">
<title>Node4&#45;&gt;Node10</title>
<path fill="none" stroke="midnightblue" d="M223.65,-343.28C165.24,-338.07 38.51,-317.29 38.51,-235 38.51,-235 38.51,-235 38.51,-177 38.51,-144.58 44.15,-107.15 48,-85.37"/>
<polygon fill="midnightblue" stroke="midnightblue" points="51.45,-85.99 49.81,-75.52 44.56,-84.72 51.45,-85.99"/>
</g>
<!-- Node11 -->
<g id="node11" class="node">
<title>Node11</title>
<g id="a_node11"><a xlink:href="core_2include_2thread_8h.html" target="_top" xlink:title="Threading API.">
<polygon fill="none" stroke="black" points="224.01,-280.5 224.01,-299.5 281.01,-299.5 281.01,-280.5 224.01,-280.5"/>
<text text-anchor="middle" x="252.51" y="-287.5" font-family="Helvetica,sans-Serif" font-size="10.00">thread.h</text>
</a>
</g>
</g>
<!-- Node4&#45;&gt;Node11 -->
<g id="edge14" class="edge">
<title>Node4&#45;&gt;Node11</title>
<path fill="none" stroke="midnightblue" d="M252.51,-336.08C252.51,-329.01 252.51,-318.86 252.51,-309.99"/>
<polygon fill="midnightblue" stroke="midnightblue" points="256.01,-309.75 252.51,-299.75 249.01,-309.75 256.01,-309.75"/>
</g>
<!-- Node7 -->
<g id="node7" class="node">
<title>Node7</title>
<g id="a_node7"><a xlink:title=" ">
<polygon fill="none" stroke="#bfbfbf" points="86.51,-168.5 86.51,-187.5 148.51,-187.5 148.51,-168.5 86.51,-168.5"/>
<text text-anchor="middle" x="117.51" y="-175.5" font-family="Helvetica,sans-Serif" font-size="10.00">stdbool.h</text>
</a>
</g>
</g>
<!-- Node6&#45;&gt;Node7 -->
<g id="edge8" class="edge">
<title>Node6&#45;&gt;Node7</title>
<path fill="none" stroke="midnightblue" d="M126.01,-280.3C115.64,-272.25 101.62,-259.24 95.51,-244 89.09,-227.98 96.98,-209.28 105.04,-196.06"/>
<polygon fill="midnightblue" stroke="midnightblue" points="108.1,-197.78 110.74,-187.52 102.27,-193.9 108.1,-197.78"/>
</g>
<!-- Node8 -->
<g id="node8" class="node">
<title>Node8</title>
<g id="a_node8"><a xlink:title=" ">
<polygon fill="none" stroke="#bfbfbf" points="104.51,-224.5 104.51,-243.5 172.51,-243.5 172.51,-224.5 104.51,-224.5"/>
<text text-anchor="middle" x="138.51" y="-231.5" font-family="Helvetica,sans-Serif" font-size="10.00">cpu_conf.h</text>
</a>
</g>
</g>
<!-- Node6&#45;&gt;Node8 -->
<g id="edge9" class="edge">
<title>Node6&#45;&gt;Node8</title>
<path fill="none" stroke="midnightblue" d="M138.51,-280.08C138.51,-273.01 138.51,-262.86 138.51,-253.99"/>
<polygon fill="midnightblue" stroke="midnightblue" points="142.01,-253.75 138.51,-243.75 135.01,-253.75 142.01,-253.75"/>
</g>
<!-- Node9&#45;&gt;Node2 -->
<g id="edge12" class="edge">
<title>Node9&#45;&gt;Node2</title>
<path fill="none" stroke="midnightblue" d="M511.28,-58.11C588.76,-47.15 738.29,-26.02 807.59,-16.22"/>
<polygon fill="midnightblue" stroke="midnightblue" points="808.2,-19.67 817.61,-14.8 807.22,-12.74 808.2,-19.67"/>
</g>
<!-- Node9&#45;&gt;Node5 -->
<g id="edge11" class="edge">
<title>Node9&#45;&gt;Node5</title>
<path fill="none" stroke="midnightblue" d="M437,-56.44C409.92,-47.36 366.92,-32.94 336.64,-22.78"/>
<polygon fill="midnightblue" stroke="midnightblue" points="337.5,-19.38 326.9,-19.52 335.27,-26.01 337.5,-19.38"/>
</g>
<!-- Node11&#45;&gt;Node8 -->
<g id="edge31" class="edge">
<title>Node11&#45;&gt;Node8</title>
<path fill="none" stroke="midnightblue" d="M234.45,-280.44C215.94,-271.68 186.93,-257.94 165.66,-247.86"/>
<polygon fill="midnightblue" stroke="midnightblue" points="167.03,-244.63 156.49,-243.52 164.03,-250.96 167.03,-244.63"/>
</g>
<!-- Node12 -->
<g id="node12" class="node">
<title>Node12</title>
<g id="a_node12"><a xlink:href="clist_8h.html" target="_top" xlink:title="Circular linked list.">
<polygon fill="none" stroke="black" points="66.51,-112.5 66.51,-131.5 112.51,-131.5 112.51,-112.5 66.51,-112.5"/>
<text text-anchor="middle" x="89.51" y="-119.5" font-family="Helvetica,sans-Serif" font-size="10.00">clist.h</text>
</a>
</g>
</g>
<!-- Node11&#45;&gt;Node12 -->
<g id="edge15" class="edge">
<title>Node11&#45;&gt;Node12</title>
<path fill="none" stroke="midnightblue" d="M245.98,-280.36C226.24,-254.28 167.92,-177.6 157.51,-168 144.4,-155.91 127.74,-144.83 114.18,-136.68"/>
<polygon fill="midnightblue" stroke="midnightblue" points="115.78,-133.56 105.38,-131.54 112.25,-139.61 115.78,-133.56"/>
</g>
<!-- Node13 -->
<g id="node13" class="node">
<title>Node13</title>
<g id="a_node13"><a xlink:href="cib_8h.html" target="_top" xlink:title="Circular integer buffer interface.">
<polygon fill="none" stroke="black" points="352.51,-224.5 352.51,-243.5 392.51,-243.5 392.51,-224.5 352.51,-224.5"/>
<text text-anchor="middle" x="372.51" y="-231.5" font-family="Helvetica,sans-Serif" font-size="10.00">cib.h</text>
</a>
</g>
</g>
<!-- Node11&#45;&gt;Node13 -->
<g id="edge18" class="edge">
<title>Node11&#45;&gt;Node13</title>
<path fill="none" stroke="midnightblue" d="M271.53,-280.44C291.1,-271.64 321.82,-257.81 344.24,-247.72"/>
<polygon fill="midnightblue" stroke="midnightblue" points="345.9,-250.81 353.59,-243.52 343.03,-244.43 345.9,-250.81"/>
</g>
<!-- Node16 -->
<g id="node16" class="node">
<title>Node16</title>
<g id="a_node16"><a xlink:href="msg_8h.html" target="_top" xlink:title="Messaging API for inter process communication.">
<polygon fill="none" stroke="black" points="229.01,-224.5 229.01,-243.5 276.01,-243.5 276.01,-224.5 229.01,-224.5"/>
<text text-anchor="middle" x="252.51" y="-231.5" font-family="Helvetica,sans-Serif" font-size="10.00">msg.h</text>
</a>
</g>
</g>
<!-- Node11&#45;&gt;Node16 -->
<g id="edge22" class="edge">
<title>Node11&#45;&gt;Node16</title>
<path fill="none" stroke="midnightblue" d="M252.51,-280.08C252.51,-273.01 252.51,-262.86 252.51,-253.99"/>
<polygon fill="midnightblue" stroke="midnightblue" points="256.01,-253.75 252.51,-243.75 249.01,-253.75 256.01,-253.75"/>
</g>
<!-- Node17 -->
<g id="node17" class="node">
<title>Node17</title>
<g id="a_node17"><a xlink:href="sched_8h.html" target="_top" xlink:title="Scheduler API definition.">
<polygon fill="none" stroke="black" points="226.51,-168.5 226.51,-187.5 280.51,-187.5 280.51,-168.5 226.51,-168.5"/>
<text text-anchor="middle" x="253.51" y="-175.5" font-family="Helvetica,sans-Serif" font-size="10.00">sched.h</text>
</a>
</g>
</g>
<!-- Node11&#45;&gt;Node17 -->
<g id="edge32" class="edge">
<title>Node11&#45;&gt;Node17</title>
<path fill="none" stroke="midnightblue" d="M261.26,-280.29C269.07,-271.84 279.96,-258.25 284.51,-244 290.01,-226.78 279.4,-208.27 269.13,-195.42"/>
<polygon fill="midnightblue" stroke="midnightblue" points="271.47,-192.78 262.28,-187.52 266.19,-197.37 271.47,-192.78"/>
</g>
<!-- Node12&#45;&gt;Node5 -->
<g id="edge16" class="edge">
<title>Node12&#45;&gt;Node5</title>
<path fill="none" stroke="midnightblue" d="M91.99,-112.37C96.48,-98.33 107.32,-70.66 126.51,-56 166.5,-25.44 225.09,-15.51 263.26,-12.36"/>
<polygon fill="midnightblue" stroke="midnightblue" points="263.73,-15.83 273.46,-11.63 263.24,-8.85 263.73,-15.83"/>
</g>
<!-- Node12&#45;&gt;Node10 -->
<g id="edge17" class="edge">
<title>Node12&#45;&gt;Node10</title>
<path fill="none" stroke="midnightblue" d="M83.24,-112.08C77.87,-104.46 69.99,-93.26 63.43,-83.94"/>
<polygon fill="midnightblue" stroke="midnightblue" points="66.29,-81.91 57.67,-75.75 60.56,-85.94 66.29,-81.91"/>
</g>
<!-- Node14 -->
<g id="node14" class="node">
<title>Node14</title>
<g id="a_node14"><a xlink:href="assert_8h.html" target="_top" xlink:title="POSIX.1&#45;2008 compliant version of the assert macro.">
<polygon fill="none" stroke="black" points="432.51,-168.5 432.51,-187.5 488.51,-187.5 488.51,-168.5 432.51,-168.5"/>
<text text-anchor="middle" x="460.51" y="-175.5" font-family="Helvetica,sans-Serif" font-size="10.00">assert.h</text>
</a>
</g>
</g>
<!-- Node13&#45;&gt;Node14 -->
<g id="edge19" class="edge">
<title>Node13&#45;&gt;Node14</title>
<path fill="none" stroke="midnightblue" d="M386.65,-224.32C400.38,-215.9 421.45,-202.97 437.58,-193.07"/>
<polygon fill="midnightblue" stroke="midnightblue" points="439.72,-195.87 446.41,-187.65 436.05,-189.9 439.72,-195.87"/>
</g>
<!-- Node15 -->
<g id="node15" class="node">
<title>Node15</title>
<g id="a_node15"><a xlink:href="panic_8h.html" target="_top" xlink:title="Crash handling header.">
<polygon fill="none" stroke="black" points="436.51,-112.5 436.51,-131.5 488.51,-131.5 488.51,-112.5 436.51,-112.5"/>
<text text-anchor="middle" x="462.51" y="-119.5" font-family="Helvetica,sans-Serif" font-size="10.00">panic.h</text>
</a>
</g>
</g>
<!-- Node14&#45;&gt;Node15 -->
<g id="edge20" class="edge">
<title>Node14&#45;&gt;Node15</title>
<path fill="none" stroke="midnightblue" d="M460.84,-168.08C461.1,-161.01 461.48,-150.86 461.81,-141.99"/>
<polygon fill="midnightblue" stroke="midnightblue" points="465.31,-141.87 462.19,-131.75 458.32,-141.61 465.31,-141.87"/>
</g>
<!-- Node15&#45;&gt;Node9 -->
<g id="edge21" class="edge">
<title>Node15&#45;&gt;Node9</title>
<path fill="none" stroke="midnightblue" d="M462.51,-112.08C462.51,-105.01 462.51,-94.86 462.51,-85.99"/>
<polygon fill="midnightblue" stroke="midnightblue" points="466.01,-85.75 462.51,-75.75 459.01,-85.75 466.01,-85.75"/>
</g>
<!-- Node16&#45;&gt;Node2 -->
<g id="edge23" class="edge">
<title>Node16&#45;&gt;Node2</title>
<path fill="none" stroke="midnightblue" d="M260.07,-224.18C267.68,-215.22 279.68,-200.85 289.51,-188 336.78,-126.2 333.54,-87.89 404.51,-56 476.26,-23.76 715,-14.3 807.48,-11.81"/>
<polygon fill="midnightblue" stroke="midnightblue" points="807.85,-15.3 817.75,-11.55 807.67,-8.3 807.85,-15.3"/>
</g>
<!-- Node16&#45;&gt;Node7 -->
<g id="edge24" class="edge">
<title>Node16&#45;&gt;Node7</title>
<path fill="none" stroke="midnightblue" d="M231.12,-224.44C208.8,-215.52 173.61,-201.44 148.3,-191.32"/>
<polygon fill="midnightblue" stroke="midnightblue" points="149.39,-187.98 138.8,-187.52 146.79,-194.48 149.39,-187.98"/>
</g>
<!-- Node16&#45;&gt;Node17 -->
<g id="edge25" class="edge">
<title>Node16&#45;&gt;Node17</title>
<path fill="none" stroke="midnightblue" d="M252.68,-224.08C252.81,-217.01 253,-206.86 253.16,-197.99"/>
<polygon fill="midnightblue" stroke="midnightblue" points="256.66,-197.81 253.35,-187.75 249.66,-197.68 256.66,-197.81"/>
</g>
<!-- Node17&#45;&gt;Node5 -->
<g id="edge26" class="edge">
<title>Node17&#45;&gt;Node5</title>
<path fill="none" stroke="midnightblue" d="M233.39,-168.44C210.76,-157.43 178.51,-136.74 189.51,-112 207.22,-72.2 249.22,-41.47 276.45,-24.83"/>
<polygon fill="midnightblue" stroke="midnightblue" points="278.58,-27.64 285.41,-19.54 275.02,-21.62 278.58,-27.64"/>
</g>
<!-- Node17&#45;&gt;Node9 -->
<g id="edge28" class="edge">
<title>Node17&#45;&gt;Node9</title>
<path fill="none" stroke="midnightblue" d="M236.69,-168.42C214.54,-156.03 180.31,-132.37 197.51,-112 223.38,-81.37 333.87,-71.59 403.76,-68.46"/>
<polygon fill="midnightblue" stroke="midnightblue" points="403.92,-71.96 413.76,-68.05 403.63,-64.97 403.92,-71.96"/>
</g>
<!-- Node17&#45;&gt;Node12 -->
<g id="edge30" class="edge">
<title>Node17&#45;&gt;Node12</title>
<path fill="none" stroke="midnightblue" d="M227.53,-168.44C199.12,-159.09 153.55,-144.09 122.61,-133.9"/>
<polygon fill="midnightblue" stroke="midnightblue" points="123.32,-130.45 112.72,-130.64 121.13,-137.1 123.32,-130.45"/>
</g>
<!-- Node18 -->
<g id="node18" class="node">
<title>Node18</title>
<g id="a_node18"><a xlink:href="inttypes_8h.html" target="_top" xlink:title="Adds include for missing inttype definitions.">
<polygon fill="none" stroke="black" points="353.01,-112.5 353.01,-131.5 418.01,-131.5 418.01,-112.5 353.01,-112.5"/>
<text text-anchor="middle" x="385.51" y="-119.5" font-family="Helvetica,sans-Serif" font-size="10.00">inttypes.h</text>
</a>
</g>
</g>
<!-- Node17&#45;&gt;Node18 -->
<g id="edge27" class="edge">
<title>Node17&#45;&gt;Node18</title>
<path fill="none" stroke="midnightblue" d="M274.43,-168.44C296.25,-159.52 330.66,-145.44 355.4,-135.32"/>
<polygon fill="midnightblue" stroke="midnightblue" points="356.76,-138.54 364.69,-131.52 354.11,-132.06 356.76,-138.54"/>
</g>
<!-- Node19 -->
<g id="node19" class="node">
<title>Node19</title>
<g id="a_node19"><a xlink:href="native__sched_8h.html" target="_top" xlink:title="Add definitions required on the native board.">
<polygon fill="none" stroke="black" points="206.51,-112.5 206.51,-131.5 296.51,-131.5 296.51,-112.5 206.51,-112.5"/>
<text text-anchor="middle" x="251.51" y="-119.5" font-family="Helvetica,sans-Serif" font-size="10.00">native_sched.h</text>
</a>
</g>
</g>
<!-- Node17&#45;&gt;Node19 -->
<g id="edge29" class="edge">
<title>Node17&#45;&gt;Node19</title>
<path fill="none" stroke="midnightblue" d="M253.18,-168.08C252.92,-161.01 252.54,-150.86 252.21,-141.99"/>
<polygon fill="midnightblue" stroke="midnightblue" points="255.7,-141.61 251.84,-131.75 248.71,-141.87 255.7,-141.61"/>
</g>
<!-- Node21&#45;&gt;Node2 -->
<g id="edge35" class="edge">
<title>Node21&#45;&gt;Node2</title>
<path fill="none" stroke="midnightblue" d="M898.02,-224.45C886.73,-216.49 871.26,-203.54 863.51,-188 837.37,-135.54 839.53,-63.67 842.41,-29.94"/>
<polygon fill="midnightblue" stroke="midnightblue" points="845.92,-29.99 843.41,-19.69 838.96,-29.3 845.92,-29.99"/>
</g>
<!-- Node21&#45;&gt;Node9 -->
<g id="edge45" class="edge">
<title>Node21&#45;&gt;Node9</title>
<path fill="none" stroke="midnightblue" d="M872.84,-225.62C811.05,-213.76 696.09,-191.46 687.51,-188 629.31,-164.53 624.03,-141.25 568.51,-112 544.69,-99.45 516.6,-87.65 495.32,-79.29"/>
<polygon fill="midnightblue" stroke="midnightblue" points="496.36,-75.93 485.77,-75.58 493.82,-82.46 496.36,-75.93"/>
</g>
<!-- Node22 -->
<g id="node22" class="node">
<title>Node22</title>
<g id="a_node22"><a xlink:href="errno_8h.html" target="_top" xlink:title=" ">
<polygon fill="none" stroke="black" points="765.01,-168.5 765.01,-187.5 816.01,-187.5 816.01,-168.5 765.01,-168.5"/>
<text text-anchor="middle" x="790.51" y="-175.5" font-family="Helvetica,sans-Serif" font-size="10.00">errno.h</text>
</a>
</g>
</g>
<!-- Node21&#45;&gt;Node22 -->
<g id="edge36" class="edge">
<title>Node21&#45;&gt;Node22</title>
<path fill="none" stroke="midnightblue" d="M892.34,-224.44C872.6,-215.64 841.63,-201.81 819.02,-191.72"/>
<polygon fill="midnightblue" stroke="midnightblue" points="820.15,-188.4 809.59,-187.52 817.3,-194.79 820.15,-188.4"/>
</g>
<!-- Node23 -->
<g id="node23" class="node">
<title>Node23</title>
<g id="a_node23"><a xlink:href="iolist_8h.html" target="_top" xlink:title="iolist scatter / gather IO">
<polygon fill="none" stroke="black" points="696.51,-168.5 696.51,-187.5 746.51,-187.5 746.51,-168.5 696.51,-168.5"/>
<text text-anchor="middle" x="721.51" y="-175.5" font-family="Helvetica,sans-Serif" font-size="10.00">iolist.h</text>
</a>
</g>
</g>
<!-- Node21&#45;&gt;Node23 -->
<g id="edge37" class="edge">
<title>Node21&#45;&gt;Node23</title>
<path fill="none" stroke="midnightblue" d="M881.41,-224.44C847.5,-214.81 792.47,-199.17 756.64,-188.98"/>
<polygon fill="midnightblue" stroke="midnightblue" points="757.2,-185.5 746.62,-186.14 755.28,-192.24 757.2,-185.5"/>
</g>
<!-- Node26 -->
<g id="node26" class="node">
<title>Node26</title>
<g id="a_node26"><a xlink:href="netopt_8h.html" target="_top" xlink:title="Definition of global configuration options.">
<polygon fill="none" stroke="black" points="872.51,-168.5 872.51,-187.5 948.51,-187.5 948.51,-168.5 872.51,-168.5"/>
<text text-anchor="middle" x="910.51" y="-175.5" font-family="Helvetica,sans-Serif" font-size="10.00">net/netopt.h</text>
</a>
</g>
</g>
<!-- Node21&#45;&gt;Node26 -->
<g id="edge44" class="edge">
<title>Node21&#45;&gt;Node26</title>
<path fill="none" stroke="midnightblue" d="M911.35,-224.08C911.22,-217.01 911.03,-206.86 910.86,-197.99"/>
<polygon fill="midnightblue" stroke="midnightblue" points="914.36,-197.68 910.67,-187.75 907.36,-197.81 914.36,-197.68"/>
</g>
<!-- Node24 -->
<g id="node24" class="node">
<title>Node24</title>
<g id="a_node24"><a xlink:href="unistd_8h_source.html" target="_top" xlink:title=" ">
<polygon fill="none" stroke="black" points="621.51,-112.5 621.51,-131.5 677.51,-131.5 677.51,-112.5 621.51,-112.5"/>
<text text-anchor="middle" x="649.51" y="-119.5" font-family="Helvetica,sans-Serif" font-size="10.00">unistd.h</text>
</a>
</g>
</g>
<!-- Node23&#45;&gt;Node24 -->
<g id="edge38" class="edge">
<title>Node23&#45;&gt;Node24</title>
<path fill="none" stroke="midnightblue" d="M709.94,-168.32C699.09,-160.18 682.63,-147.84 669.63,-138.09"/>
<polygon fill="midnightblue" stroke="midnightblue" points="671.39,-135.03 661.29,-131.83 667.19,-140.63 671.39,-135.03"/>
</g>
<!-- Node24&#45;&gt;Node2 -->
<g id="edge40" class="edge">
<title>Node24&#45;&gt;Node2</title>
<path fill="none" stroke="midnightblue" d="M652.72,-112.43C658.39,-98.49 671.49,-70.96 691.51,-56 725.84,-30.36 774.57,-19.27 807.75,-14.52"/>
<polygon fill="midnightblue" stroke="midnightblue" points="808.48,-17.95 817.94,-13.18 807.57,-11.01 808.48,-17.95"/>
</g>
<!-- Node24&#45;&gt;Node5 -->
<g id="edge39" class="edge">
<title>Node24&#45;&gt;Node5</title>
<path fill="none" stroke="midnightblue" d="M632.03,-112.45C613.68,-103.45 584.01,-88.84 558.51,-76 541.11,-67.24 537.88,-62.47 519.51,-56 458.43,-34.48 383.91,-21.85 339.72,-15.7"/>
<polygon fill="midnightblue" stroke="midnightblue" points="340.07,-12.21 329.69,-14.34 339.13,-19.15 340.07,-12.21"/>
</g>
<!-- Node25 -->
<g id="node25" class="node">
<title>Node25</title>
<g id="a_node25"><a xlink:href="cpu_2atmega__common_2avr__libc__extra_2include_2sys_2types_8h_source.html" target="_top" xlink:title=" ">
<polygon fill="none" stroke="black" points="567.51,-56.5 567.51,-75.5 639.51,-75.5 639.51,-56.5 567.51,-56.5"/>
<text text-anchor="middle" x="603.51" y="-63.5" font-family="Helvetica,sans-Serif" font-size="10.00">sys/types.h</text>
</a>
</g>
</g>
<!-- Node24&#45;&gt;Node25 -->
<g id="edge41" class="edge">
<title>Node24&#45;&gt;Node25</title>
<path fill="none" stroke="midnightblue" d="M641.92,-112.08C635.28,-104.3 625.49,-92.8 617.45,-83.37"/>
<polygon fill="midnightblue" stroke="midnightblue" points="620.12,-81.09 610.97,-75.75 614.79,-85.63 620.12,-81.09"/>
</g>
<!-- Node25&#45;&gt;Node2 -->
<g id="edge42" class="edge">
<title>Node25&#45;&gt;Node2</title>
<path fill="none" stroke="midnightblue" d="M639.59,-56.92C685,-46.74 762.57,-29.36 808.12,-19.15"/>
<polygon fill="midnightblue" stroke="midnightblue" points="808.89,-22.57 817.88,-16.97 807.36,-15.74 808.89,-22.57"/>
</g>
<!-- Node25&#45;&gt;Node5 -->
<g id="edge43" class="edge">
<title>Node25&#45;&gt;Node5</title>
<path fill="none" stroke="midnightblue" d="M567.46,-58.51C562.77,-57.66 558.03,-56.81 553.51,-56 477.75,-42.42 389.17,-26.62 339.78,-17.82"/>
<polygon fill="midnightblue" stroke="midnightblue" points="340.32,-14.36 329.86,-16.05 339.09,-21.25 340.32,-14.36"/>
</g>
<!-- Node27&#45;&gt;Node21 -->
<g id="edge69" class="edge">
<title>Node27&#45;&gt;Node21</title>
<path fill="none" stroke="midnightblue" d="M973.25,-336.37C962.25,-318.3 936.59,-276.18 922.05,-252.31"/>
<polygon fill="midnightblue" stroke="midnightblue" points="924.94,-250.31 916.74,-243.59 918.96,-253.95 924.94,-250.31"/>
</g>
<!-- Node27&#45;&gt;Node26 -->
<g id="edge68" class="edge">
<title>Node27&#45;&gt;Node26</title>
<path fill="none" stroke="midnightblue" d="M978.91,-336.49C979.52,-315.87 978.88,-262.12 958.51,-224 952.18,-212.16 941.54,-201.7 931.89,-193.86"/>
<polygon fill="midnightblue" stroke="midnightblue" points="933.86,-190.96 923.79,-187.66 929.61,-196.52 933.86,-190.96"/>
</g>
<!-- Node28 -->
<g id="node28" class="node">
<title>Node28</title>
<g id="a_node28"><a xlink:href="eui__provider_8h.html" target="_top" xlink:title="EUI&#45;48 and EUI&#45;64 address provider.">
<polygon fill="none" stroke="black" points="1065.01,-280.5 1065.01,-299.5 1170.01,-299.5 1170.01,-280.5 1065.01,-280.5"/>
<text text-anchor="middle" x="1117.51" y="-287.5" font-family="Helvetica,sans-Serif" font-size="10.00">net/eui_provider.h</text>
</a>
</g>
</g>
<!-- Node27&#45;&gt;Node28 -->
<g id="edge47" class="edge">
<title>Node27&#45;&gt;Node28</title>
<path fill="none" stroke="midnightblue" d="M1000.54,-336.44C1023.62,-327.48 1060.07,-313.31 1086.15,-303.18"/>
<polygon fill="midnightblue" stroke="midnightblue" points="1087.54,-306.4 1095.59,-299.52 1085,-299.88 1087.54,-306.4"/>
</g>
<!-- Node33 -->
<g id="node33" class="node">
<title>Node33</title>
<g id="a_node33"><a xlink:href="sys_2include_2net_2ieee802154_8h.html" target="_top" xlink:title="IEEE 802.15.4 header definitions.">
<polygon fill="none" stroke="black" points="1007.01,-224.5 1007.01,-243.5 1108.01,-243.5 1108.01,-224.5 1007.01,-224.5"/>
<text text-anchor="middle" x="1057.51" y="-231.5" font-family="Helvetica,sans-Serif" font-size="10.00">net/ieee802154.h</text>
</a>
</g>
</g>
<!-- Node27&#45;&gt;Node33 -->
<g id="edge58" class="edge">
<title>Node27&#45;&gt;Node33</title>
<path fill="none" stroke="midnightblue" d="M984.71,-336.37C997.75,-318.22 1028.21,-275.8 1045.31,-251.99"/>
<polygon fill="midnightblue" stroke="midnightblue" points="1048.35,-253.76 1051.34,-243.59 1042.67,-249.67 1048.35,-253.76"/>
</g>
<!-- Node27&#45;&gt;Node35 -->
<g id="edge63" class="edge">
<title>Node27&#45;&gt;Node35</title>
<path fill="none" stroke="midnightblue" d="M936.2,-336.44C889.43,-326.98 814.05,-311.74 763.66,-301.55"/>
<polygon fill="midnightblue" stroke="midnightblue" points="764.12,-298.07 753.62,-299.52 762.73,-304.93 764.12,-298.07"/>
</g>
<!-- Node28&#45;&gt;Node21 -->
<g id="edge57" class="edge">
<title>Node28&#45;&gt;Node21</title>
<path fill="none" stroke="midnightblue" d="M1084.87,-280.44C1049.46,-271.16 992.8,-256.31 953.96,-246.13"/>
<polygon fill="midnightblue" stroke="midnightblue" points="954.56,-242.67 944,-243.52 952.79,-249.44 954.56,-242.67"/>
</g>
<!-- Node29 -->
<g id="node29" class="node">
<title>Node29</title>
<g id="a_node29"><a xlink:href="eui48_8h.html" target="_top" xlink:title="Definition and IPv6 IID conversion for IEEE EUI&#45;48 identifiers.">
<polygon fill="none" stroke="black" points="1165.01,-224.5 1165.01,-243.5 1236.01,-243.5 1236.01,-224.5 1165.01,-224.5"/>
<text text-anchor="middle" x="1200.51" y="-231.5" font-family="Helvetica,sans-Serif" font-size="10.00">net/eui48.h</text>
</a>
</g>
</g>
<!-- Node28&#45;&gt;Node29 -->
<g id="edge48" class="edge">
<title>Node28&#45;&gt;Node29</title>
<path fill="none" stroke="midnightblue" d="M1130.85,-280.32C1143.67,-271.98 1163.3,-259.21 1178.45,-249.35"/>
<polygon fill="midnightblue" stroke="midnightblue" points="1180.74,-252.04 1187.21,-243.65 1176.92,-246.17 1180.74,-252.04"/>
</g>
<!-- Node30 -->
<g id="node30" class="node">
<title>Node30</title>
<g id="a_node30"><a xlink:href="eui64_8h.html" target="_top" xlink:title="EUI&#45;64 data type definition.">
<polygon fill="none" stroke="black" points="1115.01,-168.5 1115.01,-187.5 1186.01,-187.5 1186.01,-168.5 1115.01,-168.5"/>
<text text-anchor="middle" x="1150.51" y="-175.5" font-family="Helvetica,sans-Serif" font-size="10.00">net/eui64.h</text>
</a>
</g>
</g>
<!-- Node28&#45;&gt;Node30 -->
<g id="edge56" class="edge">
<title>Node28&#45;&gt;Node30</title>
<path fill="none" stroke="midnightblue" d="M1120.1,-280.37C1125.45,-262.54 1137.82,-221.3 1145.03,-197.27"/>
<polygon fill="midnightblue" stroke="midnightblue" points="1148.41,-198.18 1147.93,-187.59 1141.71,-196.16 1148.41,-198.18"/>
</g>
<!-- Node29&#45;&gt;Node2 -->
<g id="edge49" class="edge">
<title>Node29&#45;&gt;Node2</title>
<path fill="none" stroke="midnightblue" d="M1201.02,-224.37C1201.5,-211.71 1201.43,-187.49 1195.51,-168 1178.93,-113.35 1179.43,-88.56 1132.51,-56 1092.55,-28.27 950.23,-16.81 881.8,-12.82"/>
<polygon fill="midnightblue" stroke="midnightblue" points="881.65,-9.31 871.47,-12.25 881.26,-16.3 881.65,-9.31"/>
</g>
<!-- Node29&#45;&gt;Node30 -->
<g id="edge50" class="edge">
<title>Node29&#45;&gt;Node30</title>
<path fill="none" stroke="midnightblue" d="M1192.26,-224.08C1185.05,-216.3 1174.4,-204.8 1165.67,-195.37"/>
<polygon fill="midnightblue" stroke="midnightblue" points="1167.98,-192.71 1158.61,-187.75 1162.84,-197.47 1167.98,-192.71"/>
</g>
<!-- Node30&#45;&gt;Node2 -->
<g id="edge51" class="edge">
<title>Node30&#45;&gt;Node2</title>
<path fill="none" stroke="midnightblue" d="M1150.64,-168.27C1150.47,-145.65 1146.59,-84.92 1111.51,-56 1076.98,-27.53 946.12,-16.52 881.32,-12.74"/>
<polygon fill="midnightblue" stroke="midnightblue" points="881.32,-9.24 871.14,-12.18 880.93,-16.23 881.32,-9.24"/>
</g>
<!-- Node31 -->
<g id="node31" class="node">
<title>Node31</title>
<g id="a_node31"><a xlink:href="byteorder_8h.html" target="_top" xlink:title="Functions to work with different byte orders.">
<polygon fill="none" stroke="black" points="1050.01,-112.5 1050.01,-131.5 1123.01,-131.5 1123.01,-112.5 1050.01,-112.5"/>
<text text-anchor="middle" x="1086.51" y="-119.5" font-family="Helvetica,sans-Serif" font-size="10.00">byteorder.h</text>
</a>
</g>
</g>
<!-- Node30&#45;&gt;Node31 -->
<g id="edge52" class="edge">
<title>Node30&#45;&gt;Node31</title>
<path fill="none" stroke="midnightblue" d="M1140.23,-168.32C1130.68,-160.26 1116.23,-148.08 1104.73,-138.37"/>
<polygon fill="midnightblue" stroke="midnightblue" points="1106.88,-135.61 1096.98,-131.83 1102.37,-140.96 1106.88,-135.61"/>
</g>
<!-- Node31&#45;&gt;Node2 -->
<g id="edge53" class="edge">
<title>Node31&#45;&gt;Node2</title>
<path fill="none" stroke="midnightblue" d="M1091.24,-112.28C1097.93,-98.61 1107.93,-72.05 1094.51,-56 1067.77,-24.02 944.17,-14.73 881.37,-12.06"/>
<polygon fill="midnightblue" stroke="midnightblue" points="881.23,-8.55 871.11,-11.66 880.96,-15.55 881.23,-8.55"/>
</g>
<!-- Node32 -->
<g id="node32" class="node">
<title>Node32</title>
<g id="a_node32"><a xlink:href="unaligned_8h.html" target="_top" xlink:title="Unaligned but safe memory access functions.">
<polygon fill="none" stroke="black" points="1011.51,-56.5 1011.51,-75.5 1085.51,-75.5 1085.51,-56.5 1011.51,-56.5"/>
<text text-anchor="middle" x="1048.51" y="-63.5" font-family="Helvetica,sans-Serif" font-size="10.00">unaligned.h</text>
</a>
</g>
</g>
<!-- Node31&#45;&gt;Node32 -->
<g id="edge54" class="edge">
<title>Node31&#45;&gt;Node32</title>
<path fill="none" stroke="midnightblue" d="M1080.24,-112.08C1074.87,-104.46 1066.99,-93.26 1060.43,-83.94"/>
<polygon fill="midnightblue" stroke="midnightblue" points="1063.29,-81.91 1054.67,-75.75 1057.56,-85.94 1063.29,-81.91"/>
</g>
<!-- Node32&#45;&gt;Node2 -->
<g id="edge55" class="edge">
<title>Node32&#45;&gt;Node2</title>
<path fill="none" stroke="midnightblue" d="M1016.19,-56.44C979.37,-46.7 919.35,-30.81 880.91,-20.64"/>
<polygon fill="midnightblue" stroke="midnightblue" points="881.72,-17.23 871.16,-18.05 879.93,-24 881.72,-17.23"/>
</g>
<!-- Node33&#45;&gt;Node2 -->
<g id="edge59" class="edge">
<title>Node33&#45;&gt;Node2</title>
<path fill="none" stroke="midnightblue" d="M1055.02,-224.36C1050.95,-211.27 1041.98,-186.01 1028.51,-168 981.45,-105.06 904.87,-50.24 867.07,-25.31"/>
<polygon fill="midnightblue" stroke="midnightblue" points="868.63,-22.14 858.34,-19.62 864.81,-28.01 868.63,-22.14"/>
</g>
<!-- Node33&#45;&gt;Node30 -->
<g id="edge62" class="edge">
<title>Node33&#45;&gt;Node30</title>
<path fill="none" stroke="midnightblue" d="M1072.45,-224.32C1087.1,-215.82 1109.65,-202.73 1126.75,-192.8"/>
<polygon fill="midnightblue" stroke="midnightblue" points="1128.72,-195.7 1135.61,-187.65 1125.2,-189.65 1128.72,-195.7"/>
</g>
<!-- Node33&#45;&gt;Node31 -->
<g id="edge61" class="edge">
<title>Node33&#45;&gt;Node31</title>
<path fill="none" stroke="midnightblue" d="M1059.79,-224.37C1064.49,-206.54 1075.36,-165.3 1081.69,-141.27"/>
<polygon fill="midnightblue" stroke="midnightblue" points="1085.08,-142.15 1084.25,-131.59 1078.31,-140.37 1085.08,-142.15"/>
</g>
<!-- Node34 -->
<g id="node34" class="node">
<title>Node34</title>
<g id="a_node34"><a xlink:title=" ">
<polygon fill="none" stroke="#bfbfbf" points="967.01,-168.5 967.01,-187.5 1020.01,-187.5 1020.01,-168.5 967.01,-168.5"/>
<text text-anchor="middle" x="993.51" y="-175.5" font-family="Helvetica,sans-Serif" font-size="10.00">stdlib.h</text>
</a>
</g>
</g>
<!-- Node33&#45;&gt;Node34 -->
<g id="edge60" class="edge">
<title>Node33&#45;&gt;Node34</title>
<path fill="none" stroke="midnightblue" d="M1047.23,-224.32C1037.68,-216.26 1023.23,-204.08 1011.73,-194.37"/>
<polygon fill="midnightblue" stroke="midnightblue" points="1013.88,-191.61 1003.98,-187.83 1009.37,-196.96 1013.88,-191.61"/>
</g>
<!-- Node35&#45;&gt;Node9 -->
<g id="edge65" class="edge">
<title>Node35&#45;&gt;Node9</title>
<path fill="none" stroke="midnightblue" d="M698.08,-280.44C685.09,-271.9 665.14,-258.05 649.51,-244 590.78,-191.18 590.37,-163.54 530.51,-112 516.91,-100.29 500.11,-89.15 486.61,-80.88"/>
<polygon fill="midnightblue" stroke="midnightblue" points="488.25,-77.78 477.87,-75.64 484.65,-83.78 488.25,-77.78"/>
</g>
<!-- Node35&#45;&gt;Node18 -->
<g id="edge64" class="edge">
<title>Node35&#45;&gt;Node18</title>
<path fill="none" stroke="midnightblue" d="M658.28,-283.12C595.04,-273.53 489.78,-249.01 423.51,-188 409.27,-174.89 398.79,-155.2 392.49,-140.93"/>
<polygon fill="midnightblue" stroke="midnightblue" points="395.71,-139.56 388.64,-131.67 389.24,-142.24 395.71,-139.56"/>
</g>
<!-- Node36 -->
<g id="node36" class="node">
<title>Node36</title>
<g id="a_node36"><a xlink:href="ethertype_8h.html" target="_top" xlink:title="Ether type definitions.">
<polygon fill="none" stroke="black" points="658.51,-224.5 658.51,-243.5 750.51,-243.5 750.51,-224.5 658.51,-224.5"/>
<text text-anchor="middle" x="704.51" y="-231.5" font-family="Helvetica,sans-Serif" font-size="10.00">net/ethertype.h</text>
</a>
</g>
</g>
<!-- Node35&#45;&gt;Node36 -->
<g id="edge66" class="edge">
<title>Node35&#45;&gt;Node36</title>
<path fill="none" stroke="midnightblue" d="M710.36,-280.08C709.43,-272.93 708.09,-262.64 706.93,-253.69"/>
<polygon fill="midnightblue" stroke="midnightblue" points="710.4,-253.22 705.65,-243.75 703.46,-254.12 710.4,-253.22"/>
</g>
<!-- Node37 -->
<g id="node37" class="node">
<title>Node37</title>
<g id="a_node37"><a xlink:href="protnum_8h.html" target="_top" xlink:title="Protocol number definitions.">
<polygon fill="none" stroke="black" points="768.51,-224.5 768.51,-243.5 854.51,-243.5 854.51,-224.5 768.51,-224.5"/>
<text text-anchor="middle" x="811.51" y="-231.5" font-family="Helvetica,sans-Serif" font-size="10.00">net/protnum.h</text>
</a>
</g>
</g>
<!-- Node35&#45;&gt;Node37 -->
<g id="edge67" class="edge">
<title>Node35&#45;&gt;Node37</title>
<path fill="none" stroke="midnightblue" d="M727.58,-280.32C743.47,-271.74 768.02,-258.49 786.47,-248.52"/>
<polygon fill="midnightblue" stroke="midnightblue" points="788.35,-251.49 795.48,-243.65 785.02,-245.33 788.35,-251.49"/>
</g>
<!-- Node38&#45;&gt;Node3 -->
<g id="edge72" class="edge">
<title>Node38&#45;&gt;Node3</title>
<path fill="none" stroke="midnightblue" d="M910.35,-448.32C902.01,-440.42 889.48,-428.55 879.33,-418.94"/>
<polygon fill="midnightblue" stroke="midnightblue" points="881.5,-416.17 871.84,-411.83 876.69,-421.25 881.5,-416.17"/>
</g>
</g>
</svg>
