<?xml version="1.0" encoding="UTF-8" standalone="no"?>
<!DOCTYPE svg PUBLIC "-//W3C//DTD SVG 1.1//EN"
 "http://www.w3.org/Graphics/SVG/1.1/DTD/svg11.dtd">
<!-- Generated by graphviz version 2.40.1 (20161225.0304)
 -->
<!-- Title: drivers/kw41zrf/include/kw41zrf_getset.h Pages: 1 -->
<svg width="948pt" height="375pt"
 viewBox="0.00 0.00 947.50 375.00" xmlns="http://www.w3.org/2000/svg" xmlns:xlink="http://www.w3.org/1999/xlink">
<g id="graph0" class="graph" transform="scale(1 1) rotate(0) translate(4 371)">
<title>drivers/kw41zrf/include/kw41zrf_getset.h</title>
<!-- Node0 -->
<g id="node1" class="node">
<title>Node0</title>
<polygon fill="#bfbfbf" stroke="#000000" points="366.5,-336.5 366.5,-366.5 483.5,-366.5 483.5,-336.5 366.5,-336.5"/>
<text text-anchor="start" x="374.5" y="-354.5" font-family="Helvetica,sans-Serif" font-size="10.00" fill="#000000">drivers/kw41zrf/include</text>
<text text-anchor="middle" x="425" y="-343.5" font-family="Helvetica,sans-Serif" font-size="10.00" fill="#000000">/kw41zrf_getset.h</text>
</g>
<!-- Node1 -->
<g id="node2" class="node">
<title>Node1</title>
<g id="a_node2"><a xlink:href="kw41zrf_8h.html" target="_top" xlink:title="Interface definition for the kw41zrf driver. ">
<polygon fill="none" stroke="#000000" points="395.5,-280.5 395.5,-299.5 454.5,-299.5 454.5,-280.5 395.5,-280.5"/>
<text text-anchor="middle" x="425" y="-287.5" font-family="Helvetica,sans-Serif" font-size="10.00" fill="#000000">kw41zrf.h</text>
</a>
</g>
</g>
<!-- Node0&#45;&gt;Node1 -->
<g id="edge1" class="edge">
<title>Node0&#45;&gt;Node1</title>
<path fill="none" stroke="#191970" d="M425,-336.2977C425,-328.3834 425,-318.6043 425,-310.0759"/>
<polygon fill="#191970" stroke="#191970" points="428.5001,-309.8469 425,-299.8469 421.5001,-309.847 428.5001,-309.8469"/>
</g>
<!-- Node2 -->
<g id="node3" class="node">
<title>Node2</title>
<polygon fill="none" stroke="#bfbfbf" points="527.5,-.5 527.5,-19.5 576.5,-19.5 576.5,-.5 527.5,-.5"/>
<text text-anchor="middle" x="552" y="-7.5" font-family="Helvetica,sans-Serif" font-size="10.00" fill="#000000">stdint.h</text>
</g>
<!-- Node1&#45;&gt;Node2 -->
<g id="edge2" class="edge">
<title>Node1&#45;&gt;Node2</title>
<path fill="none" stroke="#191970" d="M395.4523,-288.595C299.0717,-283.2178 0,-259.9312 0,-178 0,-178 0,-178 0,-122 0,-83.5305 21.8747,-73.7586 56,-56 96.6994,-34.8202 410.7558,-17.145 517.0019,-11.7181"/>
<polygon fill="#191970" stroke="#191970" points="517.3833,-15.2034 527.1937,-11.2027 517.0296,-8.2123 517.3833,-15.2034"/>
</g>
<!-- Node3 -->
<g id="node4" class="node">
<title>Node3</title>
<g id="a_node4"><a xlink:href="mutex_8h.html" target="_top" xlink:title="Mutex for thread synchronization. ">
<polygon fill="none" stroke="#000000" points="28,-112.5 28,-131.5 80,-131.5 80,-112.5 28,-112.5"/>
<text text-anchor="middle" x="54" y="-119.5" font-family="Helvetica,sans-Serif" font-size="10.00" fill="#000000">mutex.h</text>
</a>
</g>
</g>
<!-- Node1&#45;&gt;Node3 -->
<g id="edge3" class="edge">
<title>Node1&#45;&gt;Node3</title>
<path fill="none" stroke="#191970" d="M403.9904,-280.4862C341.6429,-252.2534 157.4796,-168.8587 84.3908,-135.7619"/>
<polygon fill="#191970" stroke="#191970" points="85.7923,-132.5544 75.239,-131.6177 82.9047,-138.9311 85.7923,-132.5544"/>
</g>
<!-- Node6 -->
<g id="node7" class="node">
<title>Node6</title>
<polygon fill="none" stroke="#bfbfbf" points="644.5,-224.5 644.5,-243.5 693.5,-243.5 693.5,-224.5 644.5,-224.5"/>
<text text-anchor="middle" x="669" y="-231.5" font-family="Helvetica,sans-Serif" font-size="10.00" fill="#000000">board.h</text>
</g>
<!-- Node1&#45;&gt;Node6 -->
<g id="edge7" class="edge">
<title>Node1&#45;&gt;Node6</title>
<path fill="none" stroke="#191970" d="M454.5999,-283.6526C494.511,-275.0268 567.7583,-258.9593 630,-244 631.4442,-243.6529 632.9174,-243.2945 634.4048,-242.9291"/>
<polygon fill="#191970" stroke="#191970" points="635.4189,-246.2834 644.2705,-240.461 633.72,-239.4926 635.4189,-246.2834"/>
</g>
<!-- Node7 -->
<g id="node8" class="node">
<title>Node7</title>
<g id="a_node8"><a xlink:href="drivers_2include_2net_2netdev_8h.html" target="_top" xlink:title="Definitions low&#45;level network driver interface. ">
<polygon fill="none" stroke="#000000" points="739.5,-168.5 739.5,-187.5 810.5,-187.5 810.5,-168.5 739.5,-168.5"/>
<text text-anchor="middle" x="775" y="-175.5" font-family="Helvetica,sans-Serif" font-size="10.00" fill="#000000">net/netdev.h</text>
</a>
</g>
</g>
<!-- Node1&#45;&gt;Node7 -->
<g id="edge8" class="edge">
<title>Node1&#45;&gt;Node7</title>
<path fill="none" stroke="#191970" d="M454.5109,-284.1117C489.2582,-276.7237 548.3951,-262.7173 597,-244 615.1783,-236.9997 618.0333,-231.5269 636,-224 667.3208,-210.8787 703.8057,-198.925 731.5353,-190.4936"/>
<polygon fill="#191970" stroke="#191970" points="732.7596,-193.7804 741.3296,-187.551 730.7454,-187.0764 732.7596,-193.7804"/>
</g>
<!-- Node12 -->
<g id="node13" class="node">
<title>Node12</title>
<g id="a_node13"><a xlink:href="drivers_2include_2net_2netdev_2ieee802154_8h.html" target="_top" xlink:title="Definitions for netdev common IEEE 802.15.4 code. ">
<polygon fill="none" stroke="#000000" points="464.5,-224.5 464.5,-243.5 587.5,-243.5 587.5,-224.5 464.5,-224.5"/>
<text text-anchor="middle" x="526" y="-231.5" font-family="Helvetica,sans-Serif" font-size="10.00" fill="#000000">net/netdev/ieee802154.h</text>
</a>
</g>
</g>
<!-- Node1&#45;&gt;Node12 -->
<g id="edge14" class="edge">
<title>Node1&#45;&gt;Node12</title>
<path fill="none" stroke="#191970" d="M442.5929,-280.2455C458.379,-271.4928 481.7639,-258.527 499.7587,-248.5496"/>
<polygon fill="#191970" stroke="#191970" points="501.5603,-251.5528 508.6087,-243.6427 498.1659,-245.4308 501.5603,-251.5528"/>
</g>
<!-- Node18 -->
<g id="node19" class="node">
<title>Node18</title>
<g id="a_node19"><a xlink:href="nettype_8h.html" target="_top" xlink:title="Protocol type definitions. ">
<polygon fill="none" stroke="#000000" points="318.5,-168.5 318.5,-187.5 413.5,-187.5 413.5,-168.5 318.5,-168.5"/>
<text text-anchor="middle" x="366" y="-175.5" font-family="Helvetica,sans-Serif" font-size="10.00" fill="#000000">net/gnrc/nettype.h</text>
</a>
</g>
</g>
<!-- Node1&#45;&gt;Node18 -->
<g id="edge33" class="edge">
<title>Node1&#45;&gt;Node18</title>
<path fill="none" stroke="#191970" d="M419.9697,-280.4509C410.1727,-261.8533 388.3841,-220.4919 375.691,-196.3964"/>
<polygon fill="#191970" stroke="#191970" points="378.775,-194.7411 371.0176,-187.5249 372.5817,-198.0036 378.775,-194.7411"/>
</g>
<!-- Node3&#45;&gt;Node2 -->
<g id="edge5" class="edge">
<title>Node3&#45;&gt;Node2</title>
<path fill="none" stroke="#191970" d="M53.6603,-112.1196C53.7457,-97.3746 56.3063,-69.8657 73,-56 107.056,-27.7134 413.1163,-14.7324 517.3883,-11.1039"/>
<polygon fill="#191970" stroke="#191970" points="517.5233,-14.6014 527.3983,-10.7629 517.2849,-7.6055 517.5233,-14.6014"/>
</g>
<!-- Node4 -->
<g id="node5" class="node">
<title>Node4</title>
<polygon fill="none" stroke="#bfbfbf" points="225,-56.5 225,-75.5 277,-75.5 277,-56.5 225,-56.5"/>
<text text-anchor="middle" x="251" y="-63.5" font-family="Helvetica,sans-Serif" font-size="10.00" fill="#000000">stddef.h</text>
</g>
<!-- Node3&#45;&gt;Node4 -->
<g id="edge4" class="edge">
<title>Node3&#45;&gt;Node4</title>
<path fill="none" stroke="#191970" d="M80.372,-114.4602C83.2831,-113.6294 86.2042,-112.7963 89,-112 132.2602,-99.6781 182.0335,-85.5527 214.8671,-76.2417"/>
<polygon fill="#191970" stroke="#191970" points="216.2365,-79.4915 224.9025,-73.3963 214.3269,-72.757 216.2365,-79.4915"/>
</g>
<!-- Node5 -->
<g id="node6" class="node">
<title>Node5</title>
<g id="a_node6"><a xlink:href="list_8h.html" target="_top" xlink:title="Intrusive linked list. ">
<polygon fill="none" stroke="#000000" points="82,-56.5 82,-75.5 120,-75.5 120,-56.5 82,-56.5"/>
<text text-anchor="middle" x="101" y="-63.5" font-family="Helvetica,sans-Serif" font-size="10.00" fill="#000000">list.h</text>
</a>
</g>
</g>
<!-- Node3&#45;&gt;Node5 -->
<g id="edge6" class="edge">
<title>Node3&#45;&gt;Node5</title>
<path fill="none" stroke="#191970" d="M62.1868,-112.2455C68.8589,-104.2958 78.4479,-92.8706 86.4253,-83.3656"/>
<polygon fill="#191970" stroke="#191970" points="89.1592,-85.5525 92.907,-75.6427 83.7974,-81.0524 89.1592,-85.5525"/>
</g>
<!-- Node7&#45;&gt;Node2 -->
<g id="edge9" class="edge">
<title>Node7&#45;&gt;Node2</title>
<path fill="none" stroke="#191970" d="M800.885,-168.4647C816.7227,-161.1252 835.6794,-149.2779 845,-132 861.0368,-102.2719 866.9543,-81.67 845,-56 828.3729,-36.5588 660.9973,-19.5813 586.9375,-12.9578"/>
<polygon fill="#191970" stroke="#191970" points="586.9856,-9.4485 576.7168,-12.0566 586.3707,-16.4215 586.9856,-9.4485"/>
</g>
<!-- Node8 -->
<g id="node9" class="node">
<title>Node8</title>
<g id="a_node9"><a xlink:href="errno_8h.html" target="_top" xlink:title="errno.h">
<polygon fill="none" stroke="#000000" points="892.5,-112.5 892.5,-131.5 939.5,-131.5 939.5,-112.5 892.5,-112.5"/>
<text text-anchor="middle" x="916" y="-119.5" font-family="Helvetica,sans-Serif" font-size="10.00" fill="#000000">errno.h</text>
</a>
</g>
</g>
<!-- Node7&#45;&gt;Node8 -->
<g id="edge10" class="edge">
<title>Node7&#45;&gt;Node8</title>
<path fill="none" stroke="#191970" d="M799.2388,-168.3733C822.2789,-159.2226 857.1214,-145.3844 882.7501,-135.2057"/>
<polygon fill="#191970" stroke="#191970" points="884.0756,-138.4452 892.0775,-131.5011 881.4918,-131.9395 884.0756,-138.4452"/>
</g>
<!-- Node9 -->
<g id="node10" class="node">
<title>Node9</title>
<g id="a_node10"><a xlink:href="iolist_8h.html" target="_top" xlink:title="iolist scatter / gather IO ">
<polygon fill="none" stroke="#000000" points="790.5,-112.5 790.5,-131.5 835.5,-131.5 835.5,-112.5 790.5,-112.5"/>
<text text-anchor="middle" x="813" y="-119.5" font-family="Helvetica,sans-Serif" font-size="10.00" fill="#000000">iolist.h</text>
</a>
</g>
</g>
<!-- Node7&#45;&gt;Node9 -->
<g id="edge11" class="edge">
<title>Node7&#45;&gt;Node9</title>
<path fill="none" stroke="#191970" d="M781.6191,-168.2455C786.9046,-160.4564 794.4541,-149.3308 800.8238,-139.9439"/>
<polygon fill="#191970" stroke="#191970" points="803.7379,-141.8827 806.4568,-131.6427 797.9455,-137.9522 803.7379,-141.8827"/>
</g>
<!-- Node11 -->
<g id="node12" class="node">
<title>Node11</title>
<g id="a_node12"><a xlink:href="netopt_8h.html" target="_top" xlink:title="Definition of global configuration options. ">
<polygon fill="none" stroke="#000000" points="704,-112.5 704,-131.5 772,-131.5 772,-112.5 704,-112.5"/>
<text text-anchor="middle" x="738" y="-119.5" font-family="Helvetica,sans-Serif" font-size="10.00" fill="#000000">net/netopt.h</text>
</a>
</g>
</g>
<!-- Node7&#45;&gt;Node11 -->
<g id="edge13" class="edge">
<title>Node7&#45;&gt;Node11</title>
<path fill="none" stroke="#191970" d="M768.5551,-168.2455C763.4618,-160.5367 756.2092,-149.5598 750.048,-140.2348"/>
<polygon fill="#191970" stroke="#191970" points="752.8038,-138.0566 744.3711,-131.6427 746.9635,-141.9155 752.8038,-138.0566"/>
</g>
<!-- Node10 -->
<g id="node11" class="node">
<title>Node10</title>
<polygon fill="none" stroke="#bfbfbf" points="784.5,-56.5 784.5,-75.5 835.5,-75.5 835.5,-56.5 784.5,-56.5"/>
<text text-anchor="middle" x="810" y="-63.5" font-family="Helvetica,sans-Serif" font-size="10.00" fill="#000000">unistd.h</text>
</g>
<!-- Node9&#45;&gt;Node10 -->
<g id="edge12" class="edge">
<title>Node9&#45;&gt;Node10</title>
<path fill="none" stroke="#191970" d="M812.4774,-112.2455C812.086,-104.9382 811.5372,-94.6944 811.0556,-85.7046"/>
<polygon fill="#191970" stroke="#191970" points="814.5466,-85.4411 810.5166,-75.6427 807.5566,-85.8156 814.5466,-85.4411"/>
</g>
<!-- Node12&#45;&gt;Node7 -->
<g id="edge32" class="edge">
<title>Node12&#45;&gt;Node7</title>
<path fill="none" stroke="#191970" d="M568.5217,-224.4369C613.2023,-214.3882 683.2409,-198.6366 729.1382,-188.3143"/>
<polygon fill="#191970" stroke="#191970" points="730.1279,-191.6792 739.1162,-186.0702 728.5919,-184.8498 730.1279,-191.6792"/>
</g>
<!-- Node12&#45;&gt;Node11 -->
<g id="edge31" class="edge">
<title>Node12&#45;&gt;Node11</title>
<path fill="none" stroke="#191970" d="M544.075,-224.4509C581.3898,-204.7375 667.119,-159.4465 711.0186,-136.2543"/>
<polygon fill="#191970" stroke="#191970" points="712.7637,-139.2908 719.9707,-131.5249 709.4939,-133.1015 712.7637,-139.2908"/>
</g>
<!-- Node13 -->
<g id="node14" class="node">
<title>Node13</title>
<g id="a_node14"><a xlink:href="sys_2include_2net_2ieee802154_8h.html" target="_top" xlink:title="IEEE 802.15.4 header definitions. ">
<polygon fill="none" stroke="#000000" points="494.5,-168.5 494.5,-187.5 585.5,-187.5 585.5,-168.5 494.5,-168.5"/>
<text text-anchor="middle" x="540" y="-175.5" font-family="Helvetica,sans-Serif" font-size="10.00" fill="#000000">net/ieee802154.h</text>
</a>
</g>
</g>
<!-- Node12&#45;&gt;Node13 -->
<g id="edge15" class="edge">
<title>Node12&#45;&gt;Node13</title>
<path fill="none" stroke="#191970" d="M528.4386,-224.2455C530.2855,-216.8579 532.8828,-206.4689 535.1478,-197.4087"/>
<polygon fill="#191970" stroke="#191970" points="538.5594,-198.193 537.5893,-187.6427 531.7684,-196.4952 538.5594,-198.193"/>
</g>
<!-- Node12&#45;&gt;Node18 -->
<g id="edge25" class="edge">
<title>Node12&#45;&gt;Node18</title>
<path fill="none" stroke="#191970" d="M498.495,-224.3733C472.1198,-215.1419 432.1149,-201.1402 402.9642,-190.9375"/>
<polygon fill="#191970" stroke="#191970" points="403.7409,-187.5012 393.1461,-187.5011 401.4284,-194.1082 403.7409,-187.5012"/>
</g>
<!-- Node13&#45;&gt;Node2 -->
<g id="edge16" class="edge">
<title>Node13&#45;&gt;Node2</title>
<path fill="none" stroke="#191970" d="M530.4136,-168.4141C522.453,-159.7386 511.7006,-146.1807 507,-132 496.3712,-99.935 493.0727,-87.2093 506,-56 510.8312,-44.3363 520.2137,-34.0881 529.2518,-26.243"/>
<polygon fill="#191970" stroke="#191970" points="531.7266,-28.7436 537.3148,-19.7423 527.333,-23.2942 531.7266,-28.7436"/>
</g>
<!-- Node14 -->
<g id="node15" class="node">
<title>Node14</title>
<g id="a_node15"><a xlink:href="stdlib_8h.html" target="_top" xlink:title="stdlib.h wrapper for MSP430 ">
<polygon fill="none" stroke="#000000" points="516,-112.5 516,-131.5 564,-131.5 564,-112.5 516,-112.5"/>
<text text-anchor="middle" x="540" y="-119.5" font-family="Helvetica,sans-Serif" font-size="10.00" fill="#000000">stdlib.h</text>
</a>
</g>
</g>
<!-- Node13&#45;&gt;Node14 -->
<g id="edge17" class="edge">
<title>Node13&#45;&gt;Node14</title>
<path fill="none" stroke="#191970" d="M540,-168.2455C540,-160.9382 540,-150.6944 540,-141.7046"/>
<polygon fill="#191970" stroke="#191970" points="543.5001,-141.6426 540,-131.6427 536.5001,-141.6427 543.5001,-141.6426"/>
</g>
<!-- Node16 -->
<g id="node17" class="node">
<title>Node16</title>
<g id="a_node17"><a xlink:href="byteorder_8h.html" target="_top" xlink:title="Functions to work with different byte orders. ">
<polygon fill="none" stroke="#000000" points="585.5,-56.5 585.5,-75.5 650.5,-75.5 650.5,-56.5 585.5,-56.5"/>
<text text-anchor="middle" x="618" y="-63.5" font-family="Helvetica,sans-Serif" font-size="10.00" fill="#000000">byteorder.h</text>
</a>
</g>
</g>
<!-- Node13&#45;&gt;Node16 -->
<g id="edge20" class="edge">
<title>Node13&#45;&gt;Node16</title>
<path fill="none" stroke="#191970" d="M547.1494,-168.1779C553.8802,-158.8973 564.2119,-144.5642 573,-132 584.2376,-115.9338 596.7872,-97.4842 605.7726,-84.1835"/>
<polygon fill="#191970" stroke="#191970" points="608.6757,-86.1385 611.3639,-75.8904 602.8716,-82.2253 608.6757,-86.1385"/>
</g>
<!-- Node17 -->
<g id="node18" class="node">
<title>Node17</title>
<g id="a_node18"><a xlink:href="eui64_8h.html" target="_top" xlink:title="EUI&#45;64 data type definition. ">
<polygon fill="none" stroke="#000000" points="620.5,-112.5 620.5,-131.5 685.5,-131.5 685.5,-112.5 620.5,-112.5"/>
<text text-anchor="middle" x="653" y="-119.5" font-family="Helvetica,sans-Serif" font-size="10.00" fill="#000000">net/eui64.h</text>
</a>
</g>
</g>
<!-- Node13&#45;&gt;Node17 -->
<g id="edge22" class="edge">
<title>Node13&#45;&gt;Node17</title>
<path fill="none" stroke="#191970" d="M559.4254,-168.3733C577.4021,-159.4644 604.3441,-146.1127 624.709,-136.0203"/>
<polygon fill="#191970" stroke="#191970" points="626.4222,-139.0776 633.8281,-131.5011 623.3139,-132.8055 626.4222,-139.0776"/>
</g>
<!-- Node15 -->
<g id="node16" class="node">
<title>Node15</title>
<g id="a_node16"><a xlink:href="malloc_8h.html" target="_top" xlink:title="malloc.h">
<polygon fill="none" stroke="#000000" points="514.5,-56.5 514.5,-75.5 567.5,-75.5 567.5,-56.5 514.5,-56.5"/>
<text text-anchor="middle" x="541" y="-63.5" font-family="Helvetica,sans-Serif" font-size="10.00" fill="#000000">malloc.h</text>
</a>
</g>
</g>
<!-- Node14&#45;&gt;Node15 -->
<g id="edge18" class="edge">
<title>Node14&#45;&gt;Node15</title>
<path fill="none" stroke="#191970" d="M534.9073,-112.2455C533.6268,-104.9382 533.4055,-94.6944 534.1686,-85.7046"/>
<polygon fill="#191970" stroke="#191970" points="537.6569,-86.0325 535.5827,-75.6427 530.725,-85.0583 537.6569,-86.0325"/>
</g>
<!-- Node15&#45;&gt;Node14 -->
<g id="edge19" class="edge">
<title>Node15&#45;&gt;Node14</title>
<path fill="none" stroke="#191970" d="M546.0729,-75.6427C547.3643,-82.9199 547.5961,-93.155 546.843,-102.1575"/>
<polygon fill="#191970" stroke="#191970" points="543.3509,-101.8589 545.441,-112.2455 550.2843,-102.8225 543.3509,-101.8589"/>
</g>
<!-- Node16&#45;&gt;Node2 -->
<g id="edge21" class="edge">
<title>Node16&#45;&gt;Node2</title>
<path fill="none" stroke="#191970" d="M606.5037,-56.2455C596.7558,-47.9746 582.5741,-35.9416 571.1202,-26.2232"/>
<polygon fill="#191970" stroke="#191970" points="573.2541,-23.4437 563.3646,-19.6427 568.7253,-28.7813 573.2541,-23.4437"/>
</g>
<!-- Node17&#45;&gt;Node2 -->
<g id="edge23" class="edge">
<title>Node17&#45;&gt;Node2</title>
<path fill="none" stroke="#191970" d="M657.7034,-112.1177C663.5077,-98.3348 671.3098,-73.1101 660,-56 643.8015,-31.494 611.6055,-20.0011 586.562,-14.6362"/>
<polygon fill="#191970" stroke="#191970" points="587.1575,-11.1867 576.6786,-12.7497 585.845,-18.0626 587.1575,-11.1867"/>
</g>
<!-- Node17&#45;&gt;Node16 -->
<g id="edge24" class="edge">
<title>Node17&#45;&gt;Node16</title>
<path fill="none" stroke="#191970" d="M646.9035,-112.2455C642.0855,-104.5367 635.2249,-93.5598 629.3968,-84.2348"/>
<polygon fill="#191970" stroke="#191970" points="632.2947,-82.2677 624.0267,-75.6427 626.3587,-85.9777 632.2947,-82.2677"/>
</g>
<!-- Node19 -->
<g id="node20" class="node">
<title>Node19</title>
<g id="a_node20"><a xlink:href="inttypes_8h.html" target="_top" xlink:title="Adds include for missing inttype definitions. ">
<polygon fill="none" stroke="#000000" points="400.5,-112.5 400.5,-131.5 459.5,-131.5 459.5,-112.5 400.5,-112.5"/>
<text text-anchor="middle" x="430" y="-119.5" font-family="Helvetica,sans-Serif" font-size="10.00" fill="#000000">inttypes.h</text>
</a>
</g>
</g>
<!-- Node18&#45;&gt;Node19 -->
<g id="edge26" class="edge">
<title>Node18&#45;&gt;Node19</title>
<path fill="none" stroke="#191970" d="M377.1479,-168.2455C386.5087,-160.0549 400.0858,-148.1749 411.1349,-138.5069"/>
<polygon fill="#191970" stroke="#191970" points="413.7588,-140.8618 418.9798,-131.6427 409.1492,-135.5937 413.7588,-140.8618"/>
</g>
<!-- Node20 -->
<g id="node21" class="node">
<title>Node20</title>
<g id="a_node21"><a xlink:href="kernel__defines_8h.html" target="_top" xlink:title="Common macros and compiler attributes/pragmas configuration. ">
<polygon fill="none" stroke="#000000" points="294,-112.5 294,-131.5 382,-131.5 382,-112.5 294,-112.5"/>
<text text-anchor="middle" x="338" y="-119.5" font-family="Helvetica,sans-Serif" font-size="10.00" fill="#000000">kernel_defines.h</text>
</a>
</g>
</g>
<!-- Node18&#45;&gt;Node20 -->
<g id="edge27" class="edge">
<title>Node18&#45;&gt;Node20</title>
<path fill="none" stroke="#191970" d="M361.1228,-168.2455C357.3487,-160.6973 352.0079,-150.0158 347.4099,-140.8197"/>
<polygon fill="#191970" stroke="#191970" points="350.424,-139.0217 342.8213,-131.6427 344.163,-142.1522 350.424,-139.0217"/>
</g>
<!-- Node21 -->
<g id="node22" class="node">
<title>Node21</title>
<g id="a_node22"><a xlink:href="ethertype_8h.html" target="_top" xlink:title="Ether type definitions. ">
<polygon fill="none" stroke="#000000" points="98,-112.5 98,-131.5 180,-131.5 180,-112.5 98,-112.5"/>
<text text-anchor="middle" x="139" y="-119.5" font-family="Helvetica,sans-Serif" font-size="10.00" fill="#000000">net/ethertype.h</text>
</a>
</g>
</g>
<!-- Node18&#45;&gt;Node21 -->
<g id="edge29" class="edge">
<title>Node18&#45;&gt;Node21</title>
<path fill="none" stroke="#191970" d="M327.2352,-168.4369C288.6308,-158.9133 229.2616,-144.2672 187.5428,-133.9753"/>
<polygon fill="#191970" stroke="#191970" points="188.1521,-130.5208 177.6049,-131.5237 186.4755,-137.317 188.1521,-130.5208"/>
</g>
<!-- Node22 -->
<g id="node23" class="node">
<title>Node22</title>
<g id="a_node23"><a xlink:href="protnum_8h.html" target="_top" xlink:title="Protocol number definitions. ">
<polygon fill="none" stroke="#000000" points="198.5,-112.5 198.5,-131.5 275.5,-131.5 275.5,-112.5 198.5,-112.5"/>
<text text-anchor="middle" x="237" y="-119.5" font-family="Helvetica,sans-Serif" font-size="10.00" fill="#000000">net/protnum.h</text>
</a>
</g>
</g>
<!-- Node18&#45;&gt;Node22 -->
<g id="edge30" class="edge">
<title>Node18&#45;&gt;Node22</title>
<path fill="none" stroke="#191970" d="M343.8241,-168.3733C323.0234,-159.3435 291.7083,-145.7494 268.3542,-135.6111"/>
<polygon fill="#191970" stroke="#191970" points="269.4532,-132.2727 258.8865,-131.5011 266.6657,-138.6938 269.4532,-132.2727"/>
</g>
<!-- Node20&#45;&gt;Node4 -->
<g id="edge28" class="edge">
<title>Node20&#45;&gt;Node4</title>
<path fill="none" stroke="#191970" d="M322.8458,-112.2455C309.4973,-103.6534 289.8414,-91.0014 274.4617,-81.1018"/>
<polygon fill="#191970" stroke="#191970" points="276.2836,-78.1121 265.9806,-75.6427 272.4949,-83.9982 276.2836,-78.1121"/>
</g>
</g>
</svg>
