<?xml version="1.0" encoding="UTF-8" standalone="no"?>
<!DOCTYPE svg PUBLIC "-//W3C//DTD SVG 1.1//EN"
 "http://www.w3.org/Graphics/SVG/1.1/DTD/svg11.dtd">
<!-- Generated by graphviz version 2.40.1 (20161225.0304)
 -->
<!-- Title: drivers/kw41zrf/include/kw41zrf_intern.h Pages: 1 -->
<svg width="976pt" height="431pt"
 viewBox="0.00 0.00 976.00 431.00" xmlns="http://www.w3.org/2000/svg" xmlns:xlink="http://www.w3.org/1999/xlink">
<g id="graph0" class="graph" transform="scale(1 1) rotate(0) translate(4 427)">
<title>drivers/kw41zrf/include/kw41zrf_intern.h</title>
<!-- Node0 -->
<g id="node1" class="node">
<title>Node0</title>
<polygon fill="#bfbfbf" stroke="#000000" points="467.5,-392.5 467.5,-422.5 584.5,-422.5 584.5,-392.5 467.5,-392.5"/>
<text text-anchor="start" x="475.5" y="-410.5" font-family="Helvetica,sans-Serif" font-size="10.00" fill="#000000">drivers/kw41zrf/include</text>
<text text-anchor="middle" x="526" y="-399.5" font-family="Helvetica,sans-Serif" font-size="10.00" fill="#000000">/kw41zrf_intern.h</text>
</g>
<!-- Node1 -->
<g id="node2" class="node">
<title>Node1</title>
<polygon fill="none" stroke="#bfbfbf" points="595.5,-.5 595.5,-19.5 644.5,-19.5 644.5,-.5 595.5,-.5"/>
<text text-anchor="middle" x="620" y="-7.5" font-family="Helvetica,sans-Serif" font-size="10.00" fill="#000000">stdint.h</text>
</g>
<!-- Node0&#45;&gt;Node1 -->
<g id="edge1" class="edge">
<title>Node0&#45;&gt;Node1</title>
<path fill="none" stroke="#191970" d="M467.4458,-400.5511C330.3413,-383.4897 0,-337.4576 0,-290 0,-290 0,-290 0,-122 0,-83.5305 21.7767,-73.569 56,-56 103.0374,-31.8527 469.8086,-15.7881 585.2996,-11.2885"/>
<polygon fill="#191970" stroke="#191970" points="585.506,-14.7832 595.3639,-10.901 585.2366,-7.7884 585.506,-14.7832"/>
</g>
<!-- Node2 -->
<g id="node3" class="node">
<title>Node2</title>
<g id="a_node3"><a xlink:href="kw41zrf_8h.html" target="_top" xlink:title="Interface definition for the kw41zrf driver. ">
<polygon fill="none" stroke="#000000" points="533.5,-280.5 533.5,-299.5 592.5,-299.5 592.5,-280.5 533.5,-280.5"/>
<text text-anchor="middle" x="563" y="-287.5" font-family="Helvetica,sans-Serif" font-size="10.00" fill="#000000">kw41zrf.h</text>
</a>
</g>
</g>
<!-- Node0&#45;&gt;Node2 -->
<g id="edge2" class="edge">
<title>Node0&#45;&gt;Node2</title>
<path fill="none" stroke="#191970" d="M516.4945,-392.4252C508.4141,-377.555 499.3837,-354.439 508,-336 513.9463,-323.2749 525.3358,-312.8307 536.215,-305.129"/>
<polygon fill="#191970" stroke="#191970" points="538.277,-307.9622 544.7167,-299.5491 534.436,-302.1101 538.277,-307.9622"/>
</g>
<!-- Node23 -->
<g id="node24" class="node">
<title>Node23</title>
<g id="a_node24"><a xlink:href="kw41zrf__getset_8h.html" target="_top" xlink:title="get/set interfaces for kw41zrf driver ">
<polygon fill="none" stroke="#000000" points="517,-336.5 517,-355.5 609,-355.5 609,-336.5 517,-336.5"/>
<text text-anchor="middle" x="563" y="-343.5" font-family="Helvetica,sans-Serif" font-size="10.00" fill="#000000">kw41zrf_getset.h</text>
</a>
</g>
</g>
<!-- Node0&#45;&gt;Node23 -->
<g id="edge35" class="edge">
<title>Node0&#45;&gt;Node23</title>
<path fill="none" stroke="#191970" d="M535.1461,-392.2977C540.1751,-383.9388 546.4555,-373.4997 551.7791,-364.6509"/>
<polygon fill="#191970" stroke="#191970" points="554.9197,-366.2201 557.0758,-355.8469 548.9215,-362.6114 554.9197,-366.2201"/>
</g>
<!-- Node24 -->
<g id="node25" class="node">
<title>Node24</title>
<polygon fill="none" stroke="#bfbfbf" points="627.5,-336.5 627.5,-355.5 668.5,-355.5 668.5,-336.5 627.5,-336.5"/>
<text text-anchor="middle" x="648" y="-343.5" font-family="Helvetica,sans-Serif" font-size="10.00" fill="#000000">cpu.h</text>
</g>
<!-- Node0&#45;&gt;Node24 -->
<g id="edge37" class="edge">
<title>Node0&#45;&gt;Node24</title>
<path fill="none" stroke="#191970" d="M555.8446,-392.4554C575.397,-382.599 600.7872,-369.7999 619.9645,-360.1327"/>
<polygon fill="#191970" stroke="#191970" points="621.7402,-363.1571 629.0943,-355.5303 618.5892,-356.9064 621.7402,-363.1571"/>
</g>
<!-- Node2&#45;&gt;Node1 -->
<g id="edge3" class="edge">
<title>Node2&#45;&gt;Node1</title>
<path fill="none" stroke="#191970" d="M592.7806,-288.2034C686.3104,-281.7566 968,-255.8758 968,-178 968,-178 968,-178 968,-122 968,-56.6652 742.9229,-23.9792 654.7927,-13.685"/>
<polygon fill="#191970" stroke="#191970" points="655.0804,-10.1952 644.7483,-12.5399 654.2875,-17.1502 655.0804,-10.1952"/>
</g>
<!-- Node3 -->
<g id="node4" class="node">
<title>Node3</title>
<g id="a_node4"><a xlink:href="mutex_8h.html" target="_top" xlink:title="Mutex for thread synchronization. ">
<polygon fill="none" stroke="#000000" points="28,-112.5 28,-131.5 80,-131.5 80,-112.5 28,-112.5"/>
<text text-anchor="middle" x="54" y="-119.5" font-family="Helvetica,sans-Serif" font-size="10.00" fill="#000000">mutex.h</text>
</a>
</g>
</g>
<!-- Node2&#45;&gt;Node3 -->
<g id="edge4" class="edge">
<title>Node2&#45;&gt;Node3</title>
<path fill="none" stroke="#191970" d="M534.1756,-280.4862C446.8357,-251.6589 185.2561,-165.3222 89.5665,-133.7391"/>
<polygon fill="#191970" stroke="#191970" points="90.6389,-130.4073 80.0458,-130.5966 88.4449,-137.0546 90.6389,-130.4073"/>
</g>
<!-- Node6 -->
<g id="node7" class="node">
<title>Node6</title>
<polygon fill="none" stroke="#bfbfbf" points="681.5,-224.5 681.5,-243.5 730.5,-243.5 730.5,-224.5 681.5,-224.5"/>
<text text-anchor="middle" x="706" y="-231.5" font-family="Helvetica,sans-Serif" font-size="10.00" fill="#000000">board.h</text>
</g>
<!-- Node2&#45;&gt;Node6 -->
<g id="edge8" class="edge">
<title>Node2&#45;&gt;Node6</title>
<path fill="none" stroke="#191970" d="M587.5826,-280.3733C610.9496,-271.2226 646.2862,-257.3844 672.2784,-247.2057"/>
<polygon fill="#191970" stroke="#191970" points="673.703,-250.4066 681.7382,-243.5011 671.1505,-243.8886 673.703,-250.4066"/>
</g>
<!-- Node7 -->
<g id="node8" class="node">
<title>Node7</title>
<g id="a_node8"><a xlink:href="drivers_2include_2net_2netdev_8h.html" target="_top" xlink:title="Definitions low&#45;level network driver interface. ">
<polygon fill="none" stroke="#000000" points="739.5,-168.5 739.5,-187.5 810.5,-187.5 810.5,-168.5 739.5,-168.5"/>
<text text-anchor="middle" x="775" y="-175.5" font-family="Helvetica,sans-Serif" font-size="10.00" fill="#000000">net/netdev.h</text>
</a>
</g>
</g>
<!-- Node2&#45;&gt;Node7 -->
<g id="edge9" class="edge">
<title>Node2&#45;&gt;Node7</title>
<path fill="none" stroke="#191970" d="M577.6301,-280.4708C598.4151,-267.1073 637.8749,-242.3779 673,-224 695.6314,-212.159 721.9225,-200.3467 742.144,-191.6572"/>
<polygon fill="#191970" stroke="#191970" points="743.7113,-194.794 751.5407,-187.6559 740.9688,-188.3536 743.7113,-194.794"/>
</g>
<!-- Node12 -->
<g id="node13" class="node">
<title>Node12</title>
<g id="a_node13"><a xlink:href="drivers_2include_2net_2netdev_2ieee802154_8h.html" target="_top" xlink:title="Definitions for netdev common IEEE 802.15.4 code. ">
<polygon fill="none" stroke="#000000" points="501.5,-224.5 501.5,-243.5 624.5,-243.5 624.5,-224.5 501.5,-224.5"/>
<text text-anchor="middle" x="563" y="-231.5" font-family="Helvetica,sans-Serif" font-size="10.00" fill="#000000">net/netdev/ieee802154.h</text>
</a>
</g>
</g>
<!-- Node2&#45;&gt;Node12 -->
<g id="edge15" class="edge">
<title>Node2&#45;&gt;Node12</title>
<path fill="none" stroke="#191970" d="M563,-280.2455C563,-272.9382 563,-262.6944 563,-253.7046"/>
<polygon fill="#191970" stroke="#191970" points="566.5001,-253.6426 563,-243.6427 559.5001,-253.6427 566.5001,-253.6426"/>
</g>
<!-- Node18 -->
<g id="node19" class="node">
<title>Node18</title>
<g id="a_node19"><a xlink:href="nettype_8h.html" target="_top" xlink:title="Protocol type definitions. ">
<polygon fill="none" stroke="#000000" points="359.5,-168.5 359.5,-187.5 454.5,-187.5 454.5,-168.5 359.5,-168.5"/>
<text text-anchor="middle" x="407" y="-175.5" font-family="Helvetica,sans-Serif" font-size="10.00" fill="#000000">net/gnrc/nettype.h</text>
</a>
</g>
</g>
<!-- Node2&#45;&gt;Node18 -->
<g id="edge34" class="edge">
<title>Node2&#45;&gt;Node18</title>
<path fill="none" stroke="#191970" d="M547.5138,-280.4998C532.9589,-271.4466 510.6802,-257.2672 492,-244 469.0409,-227.6938 443.6515,-207.7096 426.6525,-194.0311"/>
<polygon fill="#191970" stroke="#191970" points="428.5614,-191.0735 418.5853,-187.5059 424.1591,-196.516 428.5614,-191.0735"/>
</g>
<!-- Node3&#45;&gt;Node1 -->
<g id="edge6" class="edge">
<title>Node3&#45;&gt;Node1</title>
<path fill="none" stroke="#191970" d="M53.6398,-112.0948C53.6984,-97.3173 56.2245,-69.7666 73,-56 112.5645,-23.532 470.9035,-13.1632 585.1633,-10.6675"/>
<polygon fill="#191970" stroke="#191970" points="585.5162,-14.1609 595.4399,-10.4501 585.368,-7.1625 585.5162,-14.1609"/>
</g>
<!-- Node4 -->
<g id="node5" class="node">
<title>Node4</title>
<polygon fill="none" stroke="#bfbfbf" points="225,-56.5 225,-75.5 277,-75.5 277,-56.5 225,-56.5"/>
<text text-anchor="middle" x="251" y="-63.5" font-family="Helvetica,sans-Serif" font-size="10.00" fill="#000000">stddef.h</text>
</g>
<!-- Node3&#45;&gt;Node4 -->
<g id="edge5" class="edge">
<title>Node3&#45;&gt;Node4</title>
<path fill="none" stroke="#191970" d="M80.372,-114.4602C83.2831,-113.6294 86.2042,-112.7963 89,-112 132.2602,-99.6781 182.0335,-85.5527 214.8671,-76.2417"/>
<polygon fill="#191970" stroke="#191970" points="216.2365,-79.4915 224.9025,-73.3963 214.3269,-72.757 216.2365,-79.4915"/>
</g>
<!-- Node5 -->
<g id="node6" class="node">
<title>Node5</title>
<g id="a_node6"><a xlink:href="list_8h.html" target="_top" xlink:title="Intrusive linked list. ">
<polygon fill="none" stroke="#000000" points="82,-56.5 82,-75.5 120,-75.5 120,-56.5 82,-56.5"/>
<text text-anchor="middle" x="101" y="-63.5" font-family="Helvetica,sans-Serif" font-size="10.00" fill="#000000">list.h</text>
</a>
</g>
</g>
<!-- Node3&#45;&gt;Node5 -->
<g id="edge7" class="edge">
<title>Node3&#45;&gt;Node5</title>
<path fill="none" stroke="#191970" d="M62.1868,-112.2455C68.8589,-104.2958 78.4479,-92.8706 86.4253,-83.3656"/>
<polygon fill="#191970" stroke="#191970" points="89.1592,-85.5525 92.907,-75.6427 83.7974,-81.0524 89.1592,-85.5525"/>
</g>
<!-- Node7&#45;&gt;Node1 -->
<g id="edge10" class="edge">
<title>Node7&#45;&gt;Node1</title>
<path fill="none" stroke="#191970" d="M800.885,-168.4647C816.7227,-161.1252 835.6794,-149.2779 845,-132 861.0368,-102.2719 866.3589,-82.1674 845,-56 821.3843,-27.0678 711.8391,-15.8463 654.7769,-11.9083"/>
<polygon fill="#191970" stroke="#191970" points="654.9722,-8.4137 644.7655,-11.2551 654.5164,-15.3988 654.9722,-8.4137"/>
</g>
<!-- Node8 -->
<g id="node9" class="node">
<title>Node8</title>
<g id="a_node9"><a xlink:href="errno_8h.html" target="_top" xlink:title="errno.h">
<polygon fill="none" stroke="#000000" points="892.5,-112.5 892.5,-131.5 939.5,-131.5 939.5,-112.5 892.5,-112.5"/>
<text text-anchor="middle" x="916" y="-119.5" font-family="Helvetica,sans-Serif" font-size="10.00" fill="#000000">errno.h</text>
</a>
</g>
</g>
<!-- Node7&#45;&gt;Node8 -->
<g id="edge11" class="edge">
<title>Node7&#45;&gt;Node8</title>
<path fill="none" stroke="#191970" d="M799.2388,-168.3733C822.2789,-159.2226 857.1214,-145.3844 882.7501,-135.2057"/>
<polygon fill="#191970" stroke="#191970" points="884.0756,-138.4452 892.0775,-131.5011 881.4918,-131.9395 884.0756,-138.4452"/>
</g>
<!-- Node9 -->
<g id="node10" class="node">
<title>Node9</title>
<g id="a_node10"><a xlink:href="iolist_8h.html" target="_top" xlink:title="iolist scatter / gather IO ">
<polygon fill="none" stroke="#000000" points="790.5,-112.5 790.5,-131.5 835.5,-131.5 835.5,-112.5 790.5,-112.5"/>
<text text-anchor="middle" x="813" y="-119.5" font-family="Helvetica,sans-Serif" font-size="10.00" fill="#000000">iolist.h</text>
</a>
</g>
</g>
<!-- Node7&#45;&gt;Node9 -->
<g id="edge12" class="edge">
<title>Node7&#45;&gt;Node9</title>
<path fill="none" stroke="#191970" d="M781.6191,-168.2455C786.9046,-160.4564 794.4541,-149.3308 800.8238,-139.9439"/>
<polygon fill="#191970" stroke="#191970" points="803.7379,-141.8827 806.4568,-131.6427 797.9455,-137.9522 803.7379,-141.8827"/>
</g>
<!-- Node11 -->
<g id="node12" class="node">
<title>Node11</title>
<g id="a_node12"><a xlink:href="netopt_8h.html" target="_top" xlink:title="Definition of global configuration options. ">
<polygon fill="none" stroke="#000000" points="704,-112.5 704,-131.5 772,-131.5 772,-112.5 704,-112.5"/>
<text text-anchor="middle" x="738" y="-119.5" font-family="Helvetica,sans-Serif" font-size="10.00" fill="#000000">net/netopt.h</text>
</a>
</g>
</g>
<!-- Node7&#45;&gt;Node11 -->
<g id="edge14" class="edge">
<title>Node7&#45;&gt;Node11</title>
<path fill="none" stroke="#191970" d="M768.5551,-168.2455C763.4618,-160.5367 756.2092,-149.5598 750.048,-140.2348"/>
<polygon fill="#191970" stroke="#191970" points="752.8038,-138.0566 744.3711,-131.6427 746.9635,-141.9155 752.8038,-138.0566"/>
</g>
<!-- Node10 -->
<g id="node11" class="node">
<title>Node10</title>
<polygon fill="none" stroke="#bfbfbf" points="784.5,-56.5 784.5,-75.5 835.5,-75.5 835.5,-56.5 784.5,-56.5"/>
<text text-anchor="middle" x="810" y="-63.5" font-family="Helvetica,sans-Serif" font-size="10.00" fill="#000000">unistd.h</text>
</g>
<!-- Node9&#45;&gt;Node10 -->
<g id="edge13" class="edge">
<title>Node9&#45;&gt;Node10</title>
<path fill="none" stroke="#191970" d="M812.4774,-112.2455C812.086,-104.9382 811.5372,-94.6944 811.0556,-85.7046"/>
<polygon fill="#191970" stroke="#191970" points="814.5466,-85.4411 810.5166,-75.6427 807.5566,-85.8156 814.5466,-85.4411"/>
</g>
<!-- Node12&#45;&gt;Node7 -->
<g id="edge33" class="edge">
<title>Node12&#45;&gt;Node7</title>
<path fill="none" stroke="#191970" d="M599.4441,-224.3733C635.4156,-214.8714 690.5206,-200.3153 729.3809,-190.0503"/>
<polygon fill="#191970" stroke="#191970" points="730.6098,-193.3458 739.3843,-187.4079 728.822,-186.578 730.6098,-193.3458"/>
</g>
<!-- Node12&#45;&gt;Node11 -->
<g id="edge32" class="edge">
<title>Node12&#45;&gt;Node11</title>
<path fill="none" stroke="#191970" d="M577.9204,-224.4509C608.3998,-204.9441 678.0106,-160.3932 714.5768,-136.9909"/>
<polygon fill="#191970" stroke="#191970" points="716.5813,-139.8634 723.1174,-131.5249 712.8079,-133.9675 716.5813,-139.8634"/>
</g>
<!-- Node13 -->
<g id="node14" class="node">
<title>Node13</title>
<g id="a_node14"><a xlink:href="sys_2include_2net_2ieee802154_8h.html" target="_top" xlink:title="IEEE 802.15.4 header definitions. ">
<polygon fill="none" stroke="#000000" points="517.5,-168.5 517.5,-187.5 608.5,-187.5 608.5,-168.5 517.5,-168.5"/>
<text text-anchor="middle" x="563" y="-175.5" font-family="Helvetica,sans-Serif" font-size="10.00" fill="#000000">net/ieee802154.h</text>
</a>
</g>
</g>
<!-- Node12&#45;&gt;Node13 -->
<g id="edge16" class="edge">
<title>Node12&#45;&gt;Node13</title>
<path fill="none" stroke="#191970" d="M563,-224.2455C563,-216.9382 563,-206.6944 563,-197.7046"/>
<polygon fill="#191970" stroke="#191970" points="566.5001,-197.6426 563,-187.6427 559.5001,-197.6427 566.5001,-197.6426"/>
</g>
<!-- Node12&#45;&gt;Node18 -->
<g id="edge26" class="edge">
<title>Node12&#45;&gt;Node18</title>
<path fill="none" stroke="#191970" d="M536.1826,-224.3733C510.4668,-215.1419 471.462,-201.1402 443.0401,-190.9375"/>
<polygon fill="#191970" stroke="#191970" points="444.0619,-187.5857 433.4674,-187.5011 441.6968,-194.174 444.0619,-187.5857"/>
</g>
<!-- Node13&#45;&gt;Node1 -->
<g id="edge17" class="edge">
<title>Node13&#45;&gt;Node1</title>
<path fill="none" stroke="#191970" d="M544.1176,-168.3676C531.03,-160.5389 514.6351,-148.1524 507,-132 492.565,-101.462 488.1484,-84.0278 507,-56 524.3239,-30.2435 558.8435,-18.9015 585.1945,-13.9112"/>
<polygon fill="#191970" stroke="#191970" points="585.9103,-17.3402 595.1972,-12.2408 584.7572,-10.4358 585.9103,-17.3402"/>
</g>
<!-- Node14 -->
<g id="node15" class="node">
<title>Node14</title>
<g id="a_node15"><a xlink:href="stdlib_8h.html" target="_top" xlink:title="stdlib.h wrapper for MSP430 ">
<polygon fill="none" stroke="#000000" points="516,-112.5 516,-131.5 564,-131.5 564,-112.5 516,-112.5"/>
<text text-anchor="middle" x="540" y="-119.5" font-family="Helvetica,sans-Serif" font-size="10.00" fill="#000000">stdlib.h</text>
</a>
</g>
</g>
<!-- Node13&#45;&gt;Node14 -->
<g id="edge18" class="edge">
<title>Node13&#45;&gt;Node14</title>
<path fill="none" stroke="#191970" d="M558.9937,-168.2455C555.9265,-160.7776 551.5997,-150.2427 547.8503,-141.1137"/>
<polygon fill="#191970" stroke="#191970" points="550.9972,-139.5631 543.9604,-131.6427 544.5221,-142.2226 550.9972,-139.5631"/>
</g>
<!-- Node16 -->
<g id="node17" class="node">
<title>Node16</title>
<g id="a_node17"><a xlink:href="byteorder_8h.html" target="_top" xlink:title="Functions to work with different byte orders. ">
<polygon fill="none" stroke="#000000" points="587.5,-56.5 587.5,-75.5 652.5,-75.5 652.5,-56.5 587.5,-56.5"/>
<text text-anchor="middle" x="620" y="-63.5" font-family="Helvetica,sans-Serif" font-size="10.00" fill="#000000">byteorder.h</text>
</a>
</g>
</g>
<!-- Node13&#45;&gt;Node16 -->
<g id="edge21" class="edge">
<title>Node13&#45;&gt;Node16</title>
<path fill="none" stroke="#191970" d="M567.8598,-168.4509C577.2826,-149.936 598.1878,-108.8591 610.4735,-84.7187"/>
<polygon fill="#191970" stroke="#191970" points="613.7361,-86.0246 615.1525,-75.5249 607.4975,-82.8496 613.7361,-86.0246"/>
</g>
<!-- Node17 -->
<g id="node18" class="node">
<title>Node17</title>
<g id="a_node18"><a xlink:href="eui64_8h.html" target="_top" xlink:title="EUI&#45;64 data type definition. ">
<polygon fill="none" stroke="#000000" points="620.5,-112.5 620.5,-131.5 685.5,-131.5 685.5,-112.5 620.5,-112.5"/>
<text text-anchor="middle" x="653" y="-119.5" font-family="Helvetica,sans-Serif" font-size="10.00" fill="#000000">net/eui64.h</text>
</a>
</g>
</g>
<!-- Node13&#45;&gt;Node17 -->
<g id="edge23" class="edge">
<title>Node13&#45;&gt;Node17</title>
<path fill="none" stroke="#191970" d="M578.6768,-168.2455C592.4856,-159.6534 612.8193,-147.0014 628.7292,-137.1018"/>
<polygon fill="#191970" stroke="#191970" points="630.8613,-139.8974 637.5028,-131.6427 627.1632,-133.954 630.8613,-139.8974"/>
</g>
<!-- Node15 -->
<g id="node16" class="node">
<title>Node15</title>
<g id="a_node16"><a xlink:href="malloc_8h.html" target="_top" xlink:title="malloc.h">
<polygon fill="none" stroke="#000000" points="516.5,-56.5 516.5,-75.5 569.5,-75.5 569.5,-56.5 516.5,-56.5"/>
<text text-anchor="middle" x="543" y="-63.5" font-family="Helvetica,sans-Serif" font-size="10.00" fill="#000000">malloc.h</text>
</a>
</g>
</g>
<!-- Node14&#45;&gt;Node15 -->
<g id="edge19" class="edge">
<title>Node14&#45;&gt;Node15</title>
<path fill="none" stroke="#191970" d="M535.2557,-112.2455C534.2361,-104.9382 534.3807,-94.6944 535.4649,-85.7046"/>
<polygon fill="#191970" stroke="#191970" points="538.9494,-86.0984 537.2383,-75.6427 532.0556,-84.8834 538.9494,-86.0984"/>
</g>
<!-- Node15&#45;&gt;Node14 -->
<g id="edge20" class="edge">
<title>Node15&#45;&gt;Node14</title>
<path fill="none" stroke="#191970" d="M547.7286,-75.6427C548.76,-82.9199 548.6262,-93.155 547.5517,-102.1575"/>
<polygon fill="#191970" stroke="#191970" points="544.0625,-101.7924 545.7894,-112.2455 550.9581,-102.997 544.0625,-101.7924"/>
</g>
<!-- Node16&#45;&gt;Node1 -->
<g id="edge22" class="edge">
<title>Node16&#45;&gt;Node1</title>
<path fill="none" stroke="#191970" d="M620,-56.2455C620,-48.9382 620,-38.6944 620,-29.7046"/>
<polygon fill="#191970" stroke="#191970" points="623.5001,-29.6426 620,-19.6427 616.5001,-29.6427 623.5001,-29.6426"/>
</g>
<!-- Node17&#45;&gt;Node1 -->
<g id="edge24" class="edge">
<title>Node17&#45;&gt;Node1</title>
<path fill="none" stroke="#191970" d="M657.2436,-112.2518C662.346,-99.0553 669.3598,-74.976 662,-56 657.6142,-44.692 649.0098,-34.463 640.7251,-26.5381"/>
<polygon fill="#191970" stroke="#191970" points="642.8244,-23.721 633.028,-19.6859 638.1699,-28.9494 642.8244,-23.721"/>
</g>
<!-- Node17&#45;&gt;Node16 -->
<g id="edge25" class="edge">
<title>Node17&#45;&gt;Node16</title>
<path fill="none" stroke="#191970" d="M647.2518,-112.2455C642.7565,-104.617 636.3752,-93.7881 630.9175,-84.5267"/>
<polygon fill="#191970" stroke="#191970" points="633.7747,-82.4811 625.6823,-75.6427 627.7439,-86.035 633.7747,-82.4811"/>
</g>
<!-- Node19 -->
<g id="node20" class="node">
<title>Node19</title>
<g id="a_node20"><a xlink:href="inttypes_8h.html" target="_top" xlink:title="Adds include for missing inttype definitions. ">
<polygon fill="none" stroke="#000000" points="400.5,-112.5 400.5,-131.5 459.5,-131.5 459.5,-112.5 400.5,-112.5"/>
<text text-anchor="middle" x="430" y="-119.5" font-family="Helvetica,sans-Serif" font-size="10.00" fill="#000000">inttypes.h</text>
</a>
</g>
</g>
<!-- Node18&#45;&gt;Node19 -->
<g id="edge27" class="edge">
<title>Node18&#45;&gt;Node19</title>
<path fill="none" stroke="#191970" d="M411.0063,-168.2455C414.0735,-160.7776 418.4003,-150.2427 422.1497,-141.1137"/>
<polygon fill="#191970" stroke="#191970" points="425.4779,-142.2226 426.0396,-131.6427 419.0028,-139.5631 425.4779,-142.2226"/>
</g>
<!-- Node20 -->
<g id="node21" class="node">
<title>Node20</title>
<g id="a_node21"><a xlink:href="kernel__defines_8h.html" target="_top" xlink:title="Common macros and compiler attributes/pragmas configuration. ">
<polygon fill="none" stroke="#000000" points="294,-112.5 294,-131.5 382,-131.5 382,-112.5 294,-112.5"/>
<text text-anchor="middle" x="338" y="-119.5" font-family="Helvetica,sans-Serif" font-size="10.00" fill="#000000">kernel_defines.h</text>
</a>
</g>
</g>
<!-- Node18&#45;&gt;Node20 -->
<g id="edge28" class="edge">
<title>Node18&#45;&gt;Node20</title>
<path fill="none" stroke="#191970" d="M394.9811,-168.2455C384.7902,-159.9746 369.9638,-147.9416 357.9893,-138.2232"/>
<polygon fill="#191970" stroke="#191970" points="359.8514,-135.2268 349.8812,-131.6427 355.4402,-140.662 359.8514,-135.2268"/>
</g>
<!-- Node21 -->
<g id="node22" class="node">
<title>Node21</title>
<g id="a_node22"><a xlink:href="ethertype_8h.html" target="_top" xlink:title="Ether type definitions. ">
<polygon fill="none" stroke="#000000" points="98,-112.5 98,-131.5 180,-131.5 180,-112.5 98,-112.5"/>
<text text-anchor="middle" x="139" y="-119.5" font-family="Helvetica,sans-Serif" font-size="10.00" fill="#000000">net/ethertype.h</text>
</a>
</g>
</g>
<!-- Node18&#45;&gt;Node21 -->
<g id="edge30" class="edge">
<title>Node18&#45;&gt;Node21</title>
<path fill="none" stroke="#191970" d="M361.2337,-168.4369C313.6798,-158.5003 239.4381,-142.9871 190.023,-132.6615"/>
<polygon fill="#191970" stroke="#191970" points="190.6847,-129.2243 180.1802,-130.6048 189.2529,-136.0763 190.6847,-129.2243"/>
</g>
<!-- Node22 -->
<g id="node23" class="node">
<title>Node22</title>
<g id="a_node23"><a xlink:href="protnum_8h.html" target="_top" xlink:title="Protocol number definitions. ">
<polygon fill="none" stroke="#000000" points="198.5,-112.5 198.5,-131.5 275.5,-131.5 275.5,-112.5 198.5,-112.5"/>
<text text-anchor="middle" x="237" y="-119.5" font-family="Helvetica,sans-Serif" font-size="10.00" fill="#000000">net/protnum.h</text>
</a>
</g>
</g>
<!-- Node18&#45;&gt;Node22 -->
<g id="edge31" class="edge">
<title>Node18&#45;&gt;Node22</title>
<path fill="none" stroke="#191970" d="M377.776,-168.3733C349.5075,-159.0613 306.5035,-144.8953 275.4656,-134.671"/>
<polygon fill="#191970" stroke="#191970" points="276.4357,-131.3056 265.8427,-131.5011 274.2456,-137.9542 276.4357,-131.3056"/>
</g>
<!-- Node20&#45;&gt;Node4 -->
<g id="edge29" class="edge">
<title>Node20&#45;&gt;Node4</title>
<path fill="none" stroke="#191970" d="M322.8458,-112.2455C309.4973,-103.6534 289.8414,-91.0014 274.4617,-81.1018"/>
<polygon fill="#191970" stroke="#191970" points="276.2836,-78.1121 265.9806,-75.6427 272.4949,-83.9982 276.2836,-78.1121"/>
</g>
<!-- Node23&#45;&gt;Node2 -->
<g id="edge36" class="edge">
<title>Node23&#45;&gt;Node2</title>
<path fill="none" stroke="#191970" d="M563,-336.2455C563,-328.9382 563,-318.6944 563,-309.7046"/>
<polygon fill="#191970" stroke="#191970" points="566.5001,-309.6426 563,-299.6427 559.5001,-309.6427 566.5001,-309.6426"/>
</g>
</g>
</svg>
