<?xml version="1.0" encoding="UTF-8" standalone="no"?>
<!DOCTYPE svg PUBLIC "-//W3C//DTD SVG 1.1//EN"
 "http://www.w3.org/Graphics/SVG/1.1/DTD/svg11.dtd">
<!-- Generated by graphviz version 2.40.1 (20161225.0304)
 -->
<!-- Title: sys/include/net/l2filter.h Pages: 1 -->
<svg width="268pt" height="84pt"
 viewBox="0.00 0.00 267.50 84.00" xmlns="http://www.w3.org/2000/svg" xmlns:xlink="http://www.w3.org/1999/xlink">
<g id="graph0" class="graph" transform="scale(1 1) rotate(0) translate(4 80)">
<title>sys/include/net/l2filter.h</title>
<!-- Node0 -->
<g id="node1" class="node">
<title>Node0</title>
<polygon fill="#bfbfbf" stroke="#000000" points="70,-56.5 70,-75.5 190,-75.5 190,-56.5 70,-56.5"/>
<text text-anchor="middle" x="130" y="-63.5" font-family="Helvetica,sans-Serif" font-size="10.00" fill="#000000">sys/include/net/l2filter.h</text>
</g>
<!-- Node1 -->
<g id="node2" class="node">
<title>Node1</title>
<polygon fill="none" stroke="#bfbfbf" points="0,-.5 0,-19.5 52,-19.5 52,-.5 0,-.5"/>
<text text-anchor="middle" x="26" y="-7.5" font-family="Helvetica,sans-Serif" font-size="10.00" fill="#000000">stddef.h</text>
</g>
<!-- Node0&#45;&gt;Node1 -->
<g id="edge1" class="edge">
<title>Node0&#45;&gt;Node1</title>
<path fill="none" stroke="#191970" d="M111.8846,-56.2455C95.555,-47.4527 71.329,-34.4079 52.7661,-24.4125"/>
<polygon fill="#191970" stroke="#191970" points="54.3719,-21.3021 43.9078,-19.6427 51.0532,-27.4654 54.3719,-21.3021"/>
</g>
<!-- Node2 -->
<g id="node3" class="node">
<title>Node2</title>
<polygon fill="none" stroke="#bfbfbf" points="70.5,-.5 70.5,-19.5 119.5,-19.5 119.5,-.5 70.5,-.5"/>
<text text-anchor="middle" x="95" y="-7.5" font-family="Helvetica,sans-Serif" font-size="10.00" fill="#000000">stdint.h</text>
</g>
<!-- Node0&#45;&gt;Node2 -->
<g id="edge2" class="edge">
<title>Node0&#45;&gt;Node2</title>
<path fill="none" stroke="#191970" d="M123.9035,-56.2455C119.0855,-48.5367 112.2249,-37.5598 106.3968,-28.2348"/>
<polygon fill="#191970" stroke="#191970" points="109.2947,-26.2677 101.0267,-19.6427 103.3587,-29.9777 109.2947,-26.2677"/>
</g>
<!-- Node3 -->
<g id="node4" class="node">
<title>Node3</title>
<polygon fill="none" stroke="#bfbfbf" points="138,-.5 138,-19.5 194,-19.5 194,-.5 138,-.5"/>
<text text-anchor="middle" x="166" y="-7.5" font-family="Helvetica,sans-Serif" font-size="10.00" fill="#000000">stdbool.h</text>
</g>
<!-- Node0&#45;&gt;Node3 -->
<g id="edge3" class="edge">
<title>Node0&#45;&gt;Node3</title>
<path fill="none" stroke="#191970" d="M136.2707,-56.2455C141.2264,-48.5367 148.283,-37.5598 154.2776,-28.2348"/>
<polygon fill="#191970" stroke="#191970" points="157.3376,-29.9471 159.8011,-19.6427 151.4494,-26.1618 157.3376,-29.9471"/>
</g>
<!-- Node4 -->
<g id="node5" class="node">
<title>Node4</title>
<g id="a_node5"><a xlink:href="errno_8h.html" target="_top" xlink:title="errno.h">
<polygon fill="none" stroke="#000000" points="212.5,-.5 212.5,-19.5 259.5,-19.5 259.5,-.5 212.5,-.5"/>
<text text-anchor="middle" x="236" y="-7.5" font-family="Helvetica,sans-Serif" font-size="10.00" fill="#000000">errno.h</text>
</a>
</g>
</g>
<!-- Node0&#45;&gt;Node4 -->
<g id="edge4" class="edge">
<title>Node0&#45;&gt;Node4</title>
<path fill="none" stroke="#191970" d="M148.4638,-56.2455C165.1074,-47.4527 189.7993,-34.4079 208.7192,-24.4125"/>
<polygon fill="#191970" stroke="#191970" points="210.5408,-27.4086 217.7478,-19.6427 207.2709,-21.2193 210.5408,-27.4086"/>
</g>
</g>
</svg>
