<?xml version="1.0" encoding="UTF-8" standalone="no"?>
<!DOCTYPE svg PUBLIC "-//W3C//DTD SVG 1.1//EN"
 "http://www.w3.org/Graphics/SVG/1.1/DTD/svg11.dtd">
<!-- Generated by graphviz version 2.43.0 (0)
 -->
<!-- Title: sys/include/net/l2util.h Pages: 1 -->
<svg width="430pt" height="364pt"
 viewBox="0.00 0.00 430.00 364.00" xmlns="http://www.w3.org/2000/svg" xmlns:xlink="http://www.w3.org/1999/xlink">
<g id="graph0" class="graph" transform="scale(1 1) rotate(0) translate(4 360)">
<title>sys/include/net/l2util.h</title>
<!-- Node1 -->
<g id="node1" class="node">
<title>Node1</title>
<g id="a_node1"><a xlink:title="Link&#45;layer helper function definitions.">
<polygon fill="#bfbfbf" stroke="black" points="0.5,-336.5 0.5,-355.5 127.5,-355.5 127.5,-336.5 0.5,-336.5"/>
<text text-anchor="middle" x="64" y="-343.5" font-family="Helvetica,sans-Serif" font-size="10.00">sys/include/net/l2util.h</text>
</a>
</g>
</g>
<!-- Node2 -->
<g id="node2" class="node">
<title>Node2</title>
<g id="a_node2"><a xlink:title=" ">
<polygon fill="none" stroke="#bfbfbf" points="140.5,-0.5 140.5,-19.5 193.5,-19.5 193.5,-0.5 140.5,-0.5"/>
<text text-anchor="middle" x="167" y="-7.5" font-family="Helvetica,sans-Serif" font-size="10.00">stdint.h</text>
</a>
</g>
</g>
<!-- Node1&#45;&gt;Node2 -->
<g id="edge1" class="edge">
<title>Node1&#45;&gt;Node2</title>
<path fill="none" stroke="midnightblue" d="M54.56,-336.31C36.75,-318.93 0,-277.86 0,-235 0,-235 0,-235 0,-121 0,-59.09 81.03,-30.06 130.2,-18.14"/>
<polygon fill="midnightblue" stroke="midnightblue" points="131.21,-21.5 140.17,-15.85 129.64,-14.68 131.21,-21.5"/>
</g>
<!-- Node3 -->
<g id="node3" class="node">
<title>Node3</title>
<g id="a_node3"><a xlink:href="eui64_8h.html" target="_top" xlink:title="EUI&#45;64 data type definition.">
<polygon fill="none" stroke="black" points="28.5,-168.5 28.5,-187.5 99.5,-187.5 99.5,-168.5 28.5,-168.5"/>
<text text-anchor="middle" x="64" y="-175.5" font-family="Helvetica,sans-Serif" font-size="10.00">net/eui64.h</text>
</a>
</g>
</g>
<!-- Node1&#45;&gt;Node3 -->
<g id="edge2" class="edge">
<title>Node1&#45;&gt;Node3</title>
<path fill="none" stroke="midnightblue" d="M64,-336.08C64,-309.95 64,-233.21 64,-197.58"/>
<polygon fill="midnightblue" stroke="midnightblue" points="67.5,-197.57 64,-187.57 60.5,-197.57 67.5,-197.57"/>
</g>
<!-- Node6 -->
<g id="node6" class="node">
<title>Node6</title>
<g id="a_node6"><a xlink:href="ndp_8h.html" target="_top" xlink:title="IPv6 neighbor discovery message type definitions.">
<polygon fill="none" stroke="black" points="135,-280.5 135,-299.5 197,-299.5 197,-280.5 135,-280.5"/>
<text text-anchor="middle" x="166" y="-287.5" font-family="Helvetica,sans-Serif" font-size="10.00">net/ndp.h</text>
</a>
</g>
</g>
<!-- Node1&#45;&gt;Node6 -->
<g id="edge8" class="edge">
<title>Node1&#45;&gt;Node6</title>
<path fill="none" stroke="midnightblue" d="M80.39,-336.32C96.67,-327.7 121.87,-314.36 140.72,-304.39"/>
<polygon fill="midnightblue" stroke="midnightblue" points="142.45,-307.43 149.65,-299.65 139.18,-301.24 142.45,-307.43"/>
</g>
<!-- Node3&#45;&gt;Node2 -->
<g id="edge3" class="edge">
<title>Node3&#45;&gt;Node2</title>
<path fill="none" stroke="midnightblue" d="M63.5,-168.44C62.71,-147.25 63.37,-91.47 89,-56 99.54,-41.41 116.37,-30.85 131.7,-23.63"/>
<polygon fill="midnightblue" stroke="midnightblue" points="133.23,-26.78 140.99,-19.57 130.42,-20.37 133.23,-26.78"/>
</g>
<!-- Node4 -->
<g id="node4" class="node">
<title>Node4</title>
<g id="a_node4"><a xlink:href="byteorder_8h.html" target="_top" xlink:title="Functions to work with different byte orders.">
<polygon fill="none" stroke="black" points="102.5,-112.5 102.5,-131.5 175.5,-131.5 175.5,-112.5 102.5,-112.5"/>
<text text-anchor="middle" x="139" y="-119.5" font-family="Helvetica,sans-Serif" font-size="10.00">byteorder.h</text>
</a>
</g>
</g>
<!-- Node3&#45;&gt;Node4 -->
<g id="edge4" class="edge">
<title>Node3&#45;&gt;Node4</title>
<path fill="none" stroke="midnightblue" d="M76.05,-168.32C87.46,-160.11 104.83,-147.6 118.43,-137.81"/>
<polygon fill="midnightblue" stroke="midnightblue" points="120.66,-140.52 126.73,-131.83 116.57,-134.84 120.66,-140.52"/>
</g>
<!-- Node4&#45;&gt;Node2 -->
<g id="edge5" class="edge">
<title>Node4&#45;&gt;Node2</title>
<path fill="none" stroke="midnightblue" d="M151.21,-112.24C161.35,-104.14 175.04,-91.11 181,-76 187.07,-60.6 181.94,-42.05 176.26,-28.71"/>
<polygon fill="midnightblue" stroke="midnightblue" points="179.42,-27.22 171.98,-19.67 173.1,-30.21 179.42,-27.22"/>
</g>
<!-- Node5 -->
<g id="node5" class="node">
<title>Node5</title>
<g id="a_node5"><a xlink:href="unaligned_8h.html" target="_top" xlink:title="Unaligned but safe memory access functions.">
<polygon fill="none" stroke="black" points="98,-56.5 98,-75.5 172,-75.5 172,-56.5 98,-56.5"/>
<text text-anchor="middle" x="135" y="-63.5" font-family="Helvetica,sans-Serif" font-size="10.00">unaligned.h</text>
</a>
</g>
</g>
<!-- Node4&#45;&gt;Node5 -->
<g id="edge6" class="edge">
<title>Node4&#45;&gt;Node5</title>
<path fill="none" stroke="midnightblue" d="M138.34,-112.08C137.82,-105.01 137.06,-94.86 136.41,-85.99"/>
<polygon fill="midnightblue" stroke="midnightblue" points="139.88,-85.47 135.65,-75.75 132.9,-85.98 139.88,-85.47"/>
</g>
<!-- Node5&#45;&gt;Node2 -->
<g id="edge7" class="edge">
<title>Node5&#45;&gt;Node2</title>
<path fill="none" stroke="midnightblue" d="M140.28,-56.08C144.71,-48.61 151.16,-37.72 156.62,-28.52"/>
<polygon fill="midnightblue" stroke="midnightblue" points="159.73,-30.14 161.81,-19.75 153.71,-26.57 159.73,-30.14"/>
</g>
<!-- Node6&#45;&gt;Node2 -->
<g id="edge9" class="edge">
<title>Node6&#45;&gt;Node2</title>
<path fill="none" stroke="midnightblue" d="M197.13,-289.4C265.36,-288.5 422,-275.87 422,-179 422,-179 422,-179 422,-121 422,-27.22 274.78,-12.44 204.06,-10.76"/>
<polygon fill="midnightblue" stroke="midnightblue" points="203.86,-7.25 193.81,-10.59 203.75,-14.25 203.86,-7.25"/>
</g>
<!-- Node6&#45;&gt;Node4 -->
<g id="edge10" class="edge">
<title>Node6&#45;&gt;Node4</title>
<path fill="none" stroke="midnightblue" d="M162.14,-280.23C158.38,-271.3 152.85,-256.96 150,-244 142.19,-208.41 139.91,-165.76 139.25,-141.78"/>
<polygon fill="midnightblue" stroke="midnightblue" points="142.75,-141.55 139.05,-131.62 135.75,-141.69 142.75,-141.55"/>
</g>
<!-- Node7 -->
<g id="node7" class="node">
<title>Node7</title>
<g id="a_node7"><a xlink:href="ipv6_2addr_8h.html" target="_top" xlink:title="Definitions for IPv6 addresses.">
<polygon fill="none" stroke="black" points="159,-224.5 159,-243.5 249,-243.5 249,-224.5 159,-224.5"/>
<text text-anchor="middle" x="204" y="-231.5" font-family="Helvetica,sans-Serif" font-size="10.00">net/ipv6/addr.h</text>
</a>
</g>
</g>
<!-- Node6&#45;&gt;Node7 -->
<g id="edge11" class="edge">
<title>Node6&#45;&gt;Node7</title>
<path fill="none" stroke="midnightblue" d="M172.27,-280.08C177.64,-272.46 185.52,-261.26 192.08,-251.94"/>
<polygon fill="midnightblue" stroke="midnightblue" points="194.95,-253.94 197.84,-243.75 189.22,-249.91 194.95,-253.94"/>
</g>
<!-- Node7&#45;&gt;Node4 -->
<g id="edge14" class="edge">
<title>Node7&#45;&gt;Node4</title>
<path fill="none" stroke="midnightblue" d="M198.9,-224.37C188.22,-206.3 163.33,-164.18 149.23,-140.31"/>
<polygon fill="midnightblue" stroke="midnightblue" points="152.18,-138.42 144.08,-131.59 146.15,-141.98 152.18,-138.42"/>
</g>
<!-- Node8 -->
<g id="node8" class="node">
<title>Node8</title>
<g id="a_node8"><a xlink:title=" ">
<polygon fill="none" stroke="#bfbfbf" points="196,-112.5 196,-131.5 258,-131.5 258,-112.5 196,-112.5"/>
<text text-anchor="middle" x="227" y="-119.5" font-family="Helvetica,sans-Serif" font-size="10.00">stdbool.h</text>
</a>
</g>
</g>
<!-- Node7&#45;&gt;Node8 -->
<g id="edge12" class="edge">
<title>Node7&#45;&gt;Node8</title>
<path fill="none" stroke="midnightblue" d="M205.8,-224.37C209.52,-206.62 218.08,-165.67 223.11,-141.6"/>
<polygon fill="midnightblue" stroke="midnightblue" points="226.58,-142.1 225.2,-131.59 219.73,-140.66 226.58,-142.1"/>
</g>
<!-- Node9 -->
<g id="node9" class="node">
<title>Node9</title>
<g id="a_node9"><a xlink:title=" ">
<polygon fill="none" stroke="#bfbfbf" points="232.5,-168.5 232.5,-187.5 285.5,-187.5 285.5,-168.5 232.5,-168.5"/>
<text text-anchor="middle" x="259" y="-175.5" font-family="Helvetica,sans-Serif" font-size="10.00">string.h</text>
</a>
</g>
</g>
<!-- Node7&#45;&gt;Node9 -->
<g id="edge13" class="edge">
<title>Node7&#45;&gt;Node9</title>
<path fill="none" stroke="midnightblue" d="M213.08,-224.08C221.17,-216.14 233.2,-204.34 242.91,-194.8"/>
<polygon fill="midnightblue" stroke="midnightblue" points="245.4,-197.25 250.09,-187.75 240.5,-192.26 245.4,-197.25"/>
</g>
<!-- Node10 -->
<g id="node10" class="node">
<title>Node10</title>
<g id="a_node10"><a xlink:href="ipv4_2addr_8h.html" target="_top" xlink:title="IPv6 address type and helper functions definitions.">
<polygon fill="none" stroke="black" points="304,-168.5 304,-187.5 394,-187.5 394,-168.5 304,-168.5"/>
<text text-anchor="middle" x="349" y="-175.5" font-family="Helvetica,sans-Serif" font-size="10.00">net/ipv4/addr.h</text>
</a>
</g>
</g>
<!-- Node7&#45;&gt;Node10 -->
<g id="edge15" class="edge">
<title>Node7&#45;&gt;Node10</title>
<path fill="none" stroke="midnightblue" d="M226.98,-224.44C251.16,-215.44 289.42,-201.19 316.65,-191.05"/>
<polygon fill="midnightblue" stroke="midnightblue" points="317.98,-194.29 326.13,-187.52 315.54,-187.73 317.98,-194.29"/>
</g>
<!-- Node10&#45;&gt;Node2 -->
<g id="edge17" class="edge">
<title>Node10&#45;&gt;Node2</title>
<path fill="none" stroke="midnightblue" d="M339.21,-168.08C309.7,-141.15 221.29,-60.51 183.94,-26.45"/>
<polygon fill="midnightblue" stroke="midnightblue" points="186.14,-23.72 176.39,-19.57 181.42,-28.89 186.14,-23.72"/>
</g>
<!-- Node10&#45;&gt;Node4 -->
<g id="edge19" class="edge">
<title>Node10&#45;&gt;Node4</title>
<path fill="none" stroke="midnightblue" d="M315.72,-168.44C279.55,-159.14 221.62,-144.25 182.02,-134.06"/>
<polygon fill="midnightblue" stroke="midnightblue" points="182.68,-130.62 172.12,-131.52 180.93,-137.4 182.68,-130.62"/>
</g>
<!-- Node10&#45;&gt;Node8 -->
<g id="edge16" class="edge">
<title>Node10&#45;&gt;Node8</title>
<path fill="none" stroke="midnightblue" d="M329.67,-168.44C309.68,-159.6 278.26,-145.69 255.44,-135.59"/>
<polygon fill="midnightblue" stroke="midnightblue" points="256.8,-132.36 246.24,-131.52 253.97,-138.76 256.8,-132.36"/>
</g>
<!-- Node11 -->
<g id="node11" class="node">
<title>Node11</title>
<g id="a_node11"><a xlink:title=" ">
<polygon fill="none" stroke="#bfbfbf" points="321,-112.5 321,-131.5 377,-131.5 377,-112.5 321,-112.5"/>
<text text-anchor="middle" x="349" y="-119.5" font-family="Helvetica,sans-Serif" font-size="10.00">stddef.h</text>
</a>
</g>
</g>
<!-- Node10&#45;&gt;Node11 -->
<g id="edge18" class="edge">
<title>Node10&#45;&gt;Node11</title>
<path fill="none" stroke="midnightblue" d="M349,-168.08C349,-161.01 349,-150.86 349,-141.99"/>
<polygon fill="midnightblue" stroke="midnightblue" points="352.5,-141.75 349,-131.75 345.5,-141.75 352.5,-141.75"/>
</g>
</g>
</svg>
