<?xml version="1.0" encoding="UTF-8" standalone="no"?>
<!DOCTYPE svg PUBLIC "-//W3C//DTD SVG 1.1//EN"
 "http://www.w3.org/Graphics/SVG/1.1/DTD/svg11.dtd">
<!-- Generated by graphviz version 2.43.0 (0)
 -->
<!-- Title: core/include/log.h Pages: 1 -->
<svg width="264pt" height="95pt"
 viewBox="0.00 0.00 263.50 95.00" xmlns="http://www.w3.org/2000/svg" xmlns:xlink="http://www.w3.org/1999/xlink">
<g id="graph0" class="graph" transform="scale(1 1) rotate(0) translate(4 91)">
<title>core/include/log.h</title>
<!-- Node1 -->
<g id="node1" class="node">
<title>Node1</title>
<g id="a_node1"><a xlink:title="System logging header.">
<polygon fill="#bfbfbf" stroke="black" points="77,-67.5 77,-86.5 180,-86.5 180,-67.5 77,-67.5"/>
<text text-anchor="middle" x="128.5" y="-74.5" font-family="Helvetica,sans-Serif" font-size="10.00">core/include/log.h</text>
</a>
</g>
</g>
<!-- Node2 -->
<g id="node2" class="node">
<title>Node2</title>
<g id="a_node2"><a xlink:href="dpl__log_8h.html" target="_top" xlink:title="System logging header for uwb&#45;core.">
<polygon fill="none" stroke="black" points="0,-0.5 0,-30.5 121,-30.5 121,-0.5 0,-0.5"/>
<text text-anchor="start" x="8" y="-18.5" font-family="Helvetica,sans-Serif" font-size="10.00">pkg/uwb&#45;core/include</text>
<text text-anchor="middle" x="60.5" y="-7.5" font-family="Helvetica,sans-Serif" font-size="10.00">/log/dpl_log.h</text>
</a>
</g>
</g>
<!-- Node1&#45;&gt;Node2 -->
<g id="edge1" class="edge">
<title>Node1&#45;&gt;Node2</title>
<path fill="none" stroke="midnightblue" d="M110.95,-60.65C100.32,-51.35 86.87,-39.57 76.53,-30.52"/>
<polygon fill="midnightblue" stroke="midnightblue" points="108.93,-63.52 118.76,-67.48 113.54,-58.26 108.93,-63.52"/>
</g>
<!-- Node3 -->
<g id="node3" class="node">
<title>Node3</title>
<g id="a_node3"><a xlink:href="sys_2log_2log__color_2log__module_8h.html" target="_top" xlink:title="log_module header">
<polygon fill="none" stroke="black" points="139.5,-0.5 139.5,-30.5 255.5,-30.5 255.5,-0.5 139.5,-0.5"/>
<text text-anchor="start" x="147.5" y="-18.5" font-family="Helvetica,sans-Serif" font-size="10.00">sys/log/log_color/log</text>
<text text-anchor="middle" x="197.5" y="-7.5" font-family="Helvetica,sans-Serif" font-size="10.00">_module.h</text>
</a>
</g>
</g>
<!-- Node1&#45;&gt;Node3 -->
<g id="edge2" class="edge">
<title>Node1&#45;&gt;Node3</title>
<path fill="none" stroke="midnightblue" d="M145.99,-60.92C156.82,-51.58 170.64,-39.66 181.24,-30.52"/>
<polygon fill="midnightblue" stroke="midnightblue" points="143.67,-58.29 138.39,-67.48 148.24,-63.6 143.67,-58.29"/>
</g>
</g>
</svg>
