<?xml version="1.0" encoding="UTF-8" standalone="no"?>
<!DOCTYPE svg PUBLIC "-//W3C//DTD SVG 1.1//EN"
 "http://www.w3.org/Graphics/SVG/1.1/DTD/svg11.dtd">
<!-- Generated by graphviz version 2.43.0 (0)
 -->
<!-- Title: sys/include/net/gnrc/lorawan.h Pages: 1 -->
<svg width="254pt" height="106pt"
 viewBox="0.00 0.00 254.00 106.00" xmlns="http://www.w3.org/2000/svg" xmlns:xlink="http://www.w3.org/1999/xlink">
<g id="graph0" class="graph" transform="scale(1 1) rotate(0) translate(4 102)">
<title>sys/include/net/gnrc/lorawan.h</title>
<!-- Node1 -->
<g id="node1" class="node">
<title>Node1</title>
<g id="a_node1"><a xlink:title="GNRC LoRaWAN API definition.">
<polygon fill="#bfbfbf" stroke="black" points="66,-67.5 66,-97.5 180,-97.5 180,-67.5 66,-67.5"/>
<text text-anchor="start" x="74" y="-85.5" font-family="Helvetica,sans-Serif" font-size="10.00">sys/include/net/gnrc</text>
<text text-anchor="middle" x="123" y="-74.5" font-family="Helvetica,sans-Serif" font-size="10.00">/lorawan.h</text>
</a>
</g>
</g>
<!-- Node2 -->
<g id="node2" class="node">
<title>Node2</title>
<g id="a_node2"><a xlink:href="region_8h.html" target="_top" xlink:title="GNRC LoRaWAN region specific functions.">
<polygon fill="none" stroke="black" points="0,-0.5 0,-30.5 114,-30.5 114,-0.5 0,-0.5"/>
<text text-anchor="start" x="8" y="-18.5" font-family="Helvetica,sans-Serif" font-size="10.00">sys/include/net/gnrc</text>
<text text-anchor="middle" x="57" y="-7.5" font-family="Helvetica,sans-Serif" font-size="10.00">/lorawan/region.h</text>
</a>
</g>
</g>
<!-- Node1&#45;&gt;Node2 -->
<g id="edge1" class="edge">
<title>Node1&#45;&gt;Node2</title>
<path fill="none" stroke="midnightblue" d="M101.49,-60.31C91.59,-50.56 80.11,-39.26 71.29,-30.58"/>
<polygon fill="midnightblue" stroke="midnightblue" points="99.1,-62.87 108.68,-67.4 104.01,-57.89 99.1,-62.87"/>
</g>
<!-- Node3 -->
<g id="node3" class="node">
<title>Node3</title>
<g id="a_node3"><a xlink:href="netif_2lorawan_8h.html" target="_top" xlink:title="LoRaWAN adaption for Network interface API.">
<polygon fill="none" stroke="black" points="132,-0.5 132,-30.5 246,-30.5 246,-0.5 132,-0.5"/>
<text text-anchor="start" x="140" y="-18.5" font-family="Helvetica,sans-Serif" font-size="10.00">sys/include/net/gnrc</text>
<text text-anchor="middle" x="189" y="-7.5" font-family="Helvetica,sans-Serif" font-size="10.00">/netif/lorawan.h</text>
</a>
</g>
</g>
<!-- Node1&#45;&gt;Node3 -->
<g id="edge2" class="edge">
<title>Node1&#45;&gt;Node3</title>
<path fill="none" stroke="midnightblue" d="M144.51,-60.31C154.41,-50.56 165.89,-39.26 174.71,-30.58"/>
<polygon fill="midnightblue" stroke="midnightblue" points="141.99,-57.89 137.32,-67.4 146.9,-62.87 141.99,-57.89"/>
</g>
</g>
</svg>
