<?xml version="1.0" encoding="UTF-8" standalone="no"?>
<!DOCTYPE svg PUBLIC "-//W3C//DTD SVG 1.1//EN"
 "http://www.w3.org/Graphics/SVG/1.1/DTD/svg11.dtd">
<!-- Generated by graphviz version 2.43.0 (0)
 -->
<!-- Title: sys/include/net/loramac.h Pages: 1 -->
<svg width="702pt" height="307pt"
 viewBox="0.00 0.00 701.50 307.00" xmlns="http://www.w3.org/2000/svg" xmlns:xlink="http://www.w3.org/1999/xlink">
<g id="graph0" class="graph" transform="scale(1 1) rotate(0) translate(4 303)">
<title>sys/include/net/loramac.h</title>
<!-- Node1 -->
<g id="node1" class="node">
<title>Node1</title>
<g id="a_node1"><a xlink:title="LoRaMAC header definitions.">
<polygon fill="#bfbfbf" stroke="black" points="371.5,-279.5 371.5,-298.5 513.5,-298.5 513.5,-279.5 371.5,-279.5"/>
<text text-anchor="middle" x="442.5" y="-286.5" font-family="Helvetica,sans-Serif" font-size="10.00">sys/include/net/loramac.h</text>
</a>
</g>
</g>
<!-- Node2 -->
<g id="node2" class="node">
<title>Node2</title>
<g id="a_node2"><a xlink:href="rn2xx3_8h.html" target="_top" xlink:title="High&#45;level driver for the RN2483/RN2903 LoRa modules.">
<polygon fill="none" stroke="black" points="133.5,-218 133.5,-237 267.5,-237 267.5,-218 133.5,-218"/>
<text text-anchor="middle" x="200.5" y="-225" font-family="Helvetica,sans-Serif" font-size="10.00">drivers/include/rn2xx3.h</text>
</a>
</g>
</g>
<!-- Node1&#45;&gt;Node2 -->
<g id="edge1" class="edge">
<title>Node1&#45;&gt;Node2</title>
<path fill="none" stroke="midnightblue" d="M397.93,-277.04C350.95,-265.49 277.94,-247.54 235.11,-237.01"/>
<polygon fill="midnightblue" stroke="midnightblue" points="397.28,-280.49 407.83,-279.48 398.95,-273.69 397.28,-280.49"/>
</g>
<!-- Node5 -->
<g id="node5" class="node">
<title>Node5</title>
<g id="a_node5"><a xlink:href="semtech__loramac_8h.html" target="_top" xlink:title="Public API and definitions of the Semtech LoRaMAC.">
<polygon fill="none" stroke="black" points="285.5,-212.5 285.5,-242.5 439.5,-242.5 439.5,-212.5 285.5,-212.5"/>
<text text-anchor="start" x="293.5" y="-230.5" font-family="Helvetica,sans-Serif" font-size="10.00">pkg/semtech&#45;loramac</text>
<text text-anchor="middle" x="362.5" y="-219.5" font-family="Helvetica,sans-Serif" font-size="10.00">/include/semtech_loramac.h</text>
</a>
</g>
</g>
<!-- Node1&#45;&gt;Node5 -->
<g id="edge4" class="edge">
<title>Node1&#45;&gt;Node5</title>
<path fill="none" stroke="midnightblue" d="M422.96,-273.47C410.29,-264.05 393.88,-251.84 381.35,-242.52"/>
<polygon fill="midnightblue" stroke="midnightblue" points="420.93,-276.32 431.04,-279.48 425.1,-270.7 420.93,-276.32"/>
</g>
<!-- Node7 -->
<g id="node7" class="node">
<title>Node7</title>
<g id="a_node7"><a xlink:href="net_2lorawan_2hdr_8h.html" target="_top" xlink:title="LoRaWAN header type and helper function definitions.">
<polygon fill="none" stroke="black" points="457.5,-212.5 457.5,-242.5 589.5,-242.5 589.5,-212.5 457.5,-212.5"/>
<text text-anchor="start" x="465.5" y="-230.5" font-family="Helvetica,sans-Serif" font-size="10.00">sys/include/net/lorawan</text>
<text text-anchor="middle" x="523.5" y="-219.5" font-family="Helvetica,sans-Serif" font-size="10.00">/hdr.h</text>
</a>
</g>
</g>
<!-- Node1&#45;&gt;Node7 -->
<g id="edge6" class="edge">
<title>Node1&#45;&gt;Node7</title>
<path fill="none" stroke="midnightblue" d="M462.28,-273.47C475.11,-264.05 491.73,-251.84 504.41,-242.52"/>
<polygon fill="midnightblue" stroke="midnightblue" points="460.09,-270.73 454.11,-279.48 464.24,-276.38 460.09,-270.73"/>
</g>
<!-- Node8 -->
<g id="node8" class="node">
<title>Node8</title>
<g id="a_node8"><a xlink:href="gnrc__lorawan__internal_8h.html" target="_top" xlink:title="GNRC LoRaWAN internal header.">
<polygon fill="none" stroke="black" points="507,-134.5 507,-175.5 634,-175.5 634,-134.5 507,-134.5"/>
<text text-anchor="start" x="515" y="-163.5" font-family="Helvetica,sans-Serif" font-size="10.00">sys/net/gnrc/link_layer</text>
<text text-anchor="start" x="515" y="-152.5" font-family="Helvetica,sans-Serif" font-size="10.00">/lorawan/include/gnrc</text>
<text text-anchor="middle" x="570.5" y="-141.5" font-family="Helvetica,sans-Serif" font-size="10.00">_lorawan_internal.h</text>
</a>
</g>
</g>
<!-- Node1&#45;&gt;Node8 -->
<g id="edge11" class="edge">
<title>Node1&#45;&gt;Node8</title>
<path fill="none" stroke="midnightblue" d="M506.49,-277.52C544.34,-269.88 587.07,-258.2 598.5,-243 613.57,-222.97 599.37,-194.52 586.29,-175.68"/>
<polygon fill="midnightblue" stroke="midnightblue" points="505.63,-274.13 496.49,-279.48 506.97,-281 505.63,-274.13"/>
</g>
<!-- Node3 -->
<g id="node3" class="node">
<title>Node3</title>
<g id="a_node3"><a xlink:href="rn2xx3__internal_8h.html" target="_top" xlink:title="Internal driver definitions for the RN2483/RN2903 LoRa modules.">
<polygon fill="none" stroke="black" points="0,-140 0,-170 125,-170 125,-140 0,-140"/>
<text text-anchor="start" x="8" y="-158" font-family="Helvetica,sans-Serif" font-size="10.00">drivers/rn2xx3/include</text>
<text text-anchor="middle" x="62.5" y="-147" font-family="Helvetica,sans-Serif" font-size="10.00">/rn2xx3_internal.h</text>
</a>
</g>
</g>
<!-- Node2&#45;&gt;Node3 -->
<g id="edge2" class="edge">
<title>Node2&#45;&gt;Node3</title>
<path fill="none" stroke="midnightblue" d="M174.92,-213.43C150.77,-201.09 114.65,-182.64 89.92,-170.01"/>
<polygon fill="midnightblue" stroke="midnightblue" points="173.36,-216.56 183.85,-218 176.54,-210.33 173.36,-216.56"/>
</g>
<!-- Node4 -->
<g id="node4" class="node">
<title>Node4</title>
<g id="a_node4"><a xlink:href="rn2xx3__params_8h.html" target="_top" xlink:title="Default configuration for RN2483/RN2903 devices.">
<polygon fill="none" stroke="black" points="143,-140 143,-170 268,-170 268,-140 143,-140"/>
<text text-anchor="start" x="151" y="-158" font-family="Helvetica,sans-Serif" font-size="10.00">drivers/rn2xx3/include</text>
<text text-anchor="middle" x="205.5" y="-147" font-family="Helvetica,sans-Serif" font-size="10.00">/rn2xx3_params.h</text>
</a>
</g>
</g>
<!-- Node2&#45;&gt;Node4 -->
<g id="edge3" class="edge">
<title>Node2&#45;&gt;Node4</title>
<path fill="none" stroke="midnightblue" d="M201.83,-207.74C202.67,-195.91 203.74,-180.88 204.5,-170.08"/>
<polygon fill="midnightblue" stroke="midnightblue" points="198.33,-207.63 201.11,-217.86 205.31,-208.13 198.33,-207.63"/>
</g>
<!-- Node6 -->
<g id="node6" class="node">
<title>Node6</title>
<g id="a_node6"><a xlink:href="pkg_2semtech-loramac_2include_2semtech-loramac_2timer_8h.html" target="_top" xlink:title="Semtech LoRaMAC timer compatibility definitions.">
<polygon fill="none" stroke="black" points="291,-134.5 291,-175.5 434,-175.5 434,-134.5 291,-134.5"/>
<text text-anchor="start" x="299" y="-163.5" font-family="Helvetica,sans-Serif" font-size="10.00">pkg/semtech&#45;loramac</text>
<text text-anchor="start" x="299" y="-152.5" font-family="Helvetica,sans-Serif" font-size="10.00">/include/semtech&#45;loramac</text>
<text text-anchor="middle" x="362.5" y="-141.5" font-family="Helvetica,sans-Serif" font-size="10.00">/timer.h</text>
</a>
</g>
</g>
<!-- Node5&#45;&gt;Node6 -->
<g id="edge5" class="edge">
<title>Node5&#45;&gt;Node6</title>
<path fill="none" stroke="midnightblue" d="M362.5,-201.98C362.5,-193.35 362.5,-183.76 362.5,-175.59"/>
<polygon fill="midnightblue" stroke="midnightblue" points="359,-202.23 362.5,-212.23 366,-202.23 359,-202.23"/>
</g>
<!-- Node7&#45;&gt;Node8 -->
<g id="edge7" class="edge">
<title>Node7&#45;&gt;Node8</title>
<path fill="none" stroke="midnightblue" d="M538.7,-203.7C544.75,-194.63 551.63,-184.31 557.44,-175.59"/>
<polygon fill="midnightblue" stroke="midnightblue" points="535.65,-201.97 533.01,-212.23 541.47,-205.85 535.65,-201.97"/>
</g>
<!-- Node9 -->
<g id="node9" class="node">
<title>Node9</title>
<g id="a_node9"><a xlink:href="lorawan_8h.html" target="_top" xlink:title="GNRC LoRaWAN API definition.">
<polygon fill="none" stroke="black" points="513.5,-67.5 513.5,-97.5 627.5,-97.5 627.5,-67.5 513.5,-67.5"/>
<text text-anchor="start" x="521.5" y="-85.5" font-family="Helvetica,sans-Serif" font-size="10.00">sys/include/net/gnrc</text>
<text text-anchor="middle" x="570.5" y="-74.5" font-family="Helvetica,sans-Serif" font-size="10.00">/lorawan.h</text>
</a>
</g>
</g>
<!-- Node8&#45;&gt;Node9 -->
<g id="edge8" class="edge">
<title>Node8&#45;&gt;Node9</title>
<path fill="none" stroke="midnightblue" d="M570.5,-124.08C570.5,-115.01 570.5,-105.45 570.5,-97.89"/>
<polygon fill="midnightblue" stroke="midnightblue" points="567,-124.36 570.5,-134.36 574,-124.36 567,-124.36"/>
</g>
<!-- Node10 -->
<g id="node10" class="node">
<title>Node10</title>
<g id="a_node10"><a xlink:href="region_8h.html" target="_top" xlink:title="GNRC LoRaWAN region specific functions.">
<polygon fill="none" stroke="black" points="447.5,-0.5 447.5,-30.5 561.5,-30.5 561.5,-0.5 447.5,-0.5"/>
<text text-anchor="start" x="455.5" y="-18.5" font-family="Helvetica,sans-Serif" font-size="10.00">sys/include/net/gnrc</text>
<text text-anchor="middle" x="504.5" y="-7.5" font-family="Helvetica,sans-Serif" font-size="10.00">/lorawan/region.h</text>
</a>
</g>
</g>
<!-- Node9&#45;&gt;Node10 -->
<g id="edge9" class="edge">
<title>Node9&#45;&gt;Node10</title>
<path fill="none" stroke="midnightblue" d="M548.99,-60.31C539.09,-50.56 527.61,-39.26 518.79,-30.58"/>
<polygon fill="midnightblue" stroke="midnightblue" points="546.6,-62.87 556.18,-67.4 551.51,-57.89 546.6,-62.87"/>
</g>
<!-- Node11 -->
<g id="node11" class="node">
<title>Node11</title>
<g id="a_node11"><a xlink:href="netif_2lorawan_8h.html" target="_top" xlink:title="LoRaWAN adaption for Network interface API.">
<polygon fill="none" stroke="black" points="579.5,-0.5 579.5,-30.5 693.5,-30.5 693.5,-0.5 579.5,-0.5"/>
<text text-anchor="start" x="587.5" y="-18.5" font-family="Helvetica,sans-Serif" font-size="10.00">sys/include/net/gnrc</text>
<text text-anchor="middle" x="636.5" y="-7.5" font-family="Helvetica,sans-Serif" font-size="10.00">/netif/lorawan.h</text>
</a>
</g>
</g>
<!-- Node9&#45;&gt;Node11 -->
<g id="edge10" class="edge">
<title>Node9&#45;&gt;Node11</title>
<path fill="none" stroke="midnightblue" d="M592.01,-60.31C601.91,-50.56 613.39,-39.26 622.21,-30.58"/>
<polygon fill="midnightblue" stroke="midnightblue" points="589.49,-57.89 584.82,-67.4 594.4,-62.87 589.49,-57.89"/>
</g>
</g>
</svg>
