<?xml version="1.0" encoding="UTF-8" standalone="no"?>
<!DOCTYPE svg PUBLIC "-//W3C//DTD SVG 1.1//EN"
 "http://www.w3.org/Graphics/SVG/1.1/DTD/svg11.dtd">
<!-- Generated by graphviz version 2.40.1 (20161225.0304)
 -->
<!-- Title: cpu/lpc1768/include/cpu_conf.h Pages: 1 -->
<svg width="232pt" height="95pt"
 viewBox="0.00 0.00 231.50 95.00" xmlns="http://www.w3.org/2000/svg" xmlns:xlink="http://www.w3.org/1999/xlink">
<g id="graph0" class="graph" transform="scale(1 1) rotate(0) translate(4 91)">
<title>cpu/lpc1768/include/cpu_conf.h</title>
<!-- Node0 -->
<g id="node1" class="node">
<title>Node0</title>
<polygon fill="#bfbfbf" stroke="#000000" points="62,-56.5 62,-86.5 165,-86.5 165,-56.5 62,-56.5"/>
<text text-anchor="start" x="70" y="-74.5" font-family="Helvetica,sans-Serif" font-size="10.00" fill="#000000">cpu/lpc1768/include</text>
<text text-anchor="middle" x="113.5" y="-63.5" font-family="Helvetica,sans-Serif" font-size="10.00" fill="#000000">/cpu_conf.h</text>
</g>
<!-- Node1 -->
<g id="node2" class="node">
<title>Node1</title>
<polygon fill="none" stroke="#bfbfbf" points="0,-.5 0,-19.5 107,-19.5 107,-.5 0,-.5"/>
<text text-anchor="middle" x="53.5" y="-7.5" font-family="Helvetica,sans-Serif" font-size="10.00" fill="#000000">cpu_conf_common.h</text>
</g>
<!-- Node0&#45;&gt;Node1 -->
<g id="edge1" class="edge">
<title>Node0&#45;&gt;Node1</title>
<path fill="none" stroke="#191970" d="M98.6685,-56.2977C90.0796,-47.4941 79.2398,-36.3833 70.3321,-27.2529"/>
<polygon fill="#191970" stroke="#191970" points="72.5953,-24.5606 63.1068,-19.8469 67.5848,-29.4489 72.5953,-24.5606"/>
</g>
<!-- Node2 -->
<g id="node3" class="node">
<title>Node2</title>
<polygon fill="none" stroke="#bfbfbf" points="125.5,-.5 125.5,-19.5 223.5,-19.5 223.5,-.5 125.5,-.5"/>
<text text-anchor="middle" x="174.5" y="-7.5" font-family="Helvetica,sans-Serif" font-size="10.00" fill="#000000">vendor/LPC17xx.h</text>
</g>
<!-- Node0&#45;&gt;Node2 -->
<g id="edge2" class="edge">
<title>Node0&#45;&gt;Node2</title>
<path fill="none" stroke="#191970" d="M128.5787,-56.2977C137.3989,-47.4052 148.5541,-36.1586 157.6612,-26.9769"/>
<polygon fill="#191970" stroke="#191970" points="160.1759,-29.4116 164.7331,-19.8469 155.206,-24.4821 160.1759,-29.4116"/>
</g>
</g>
</svg>
