<?xml version="1.0" encoding="UTF-8" standalone="no"?>
<!DOCTYPE svg PUBLIC "-//W3C//DTD SVG 1.1//EN"
 "http://www.w3.org/Graphics/SVG/1.1/DTD/svg11.dtd">
<!-- Generated by graphviz version 2.43.0 (0)
 -->
<!-- Title: cpu/lpc1768/include/periph_cpu.h Pages: 1 -->
<svg width="124pt" height="95pt"
 viewBox="0.00 0.00 124.00 95.00" xmlns="http://www.w3.org/2000/svg" xmlns:xlink="http://www.w3.org/1999/xlink">
<g id="graph0" class="graph" transform="scale(1 1) rotate(0) translate(4 91)">
<title>cpu/lpc1768/include/periph_cpu.h</title>
<!-- Node1 -->
<g id="node1" class="node">
<title>Node1</title>
<g id="a_node1"><a xlink:title="CPU specific definitions for internal peripheral handling.">
<polygon fill="#bfbfbf" stroke="black" points="3,-56.5 3,-86.5 116,-86.5 116,-56.5 3,-56.5"/>
<text text-anchor="start" x="11" y="-74.5" font-family="Helvetica,sans-Serif" font-size="10.00">cpu/lpc1768/include</text>
<text text-anchor="middle" x="59.5" y="-63.5" font-family="Helvetica,sans-Serif" font-size="10.00">/periph_cpu.h</text>
</a>
</g>
</g>
<!-- Node2 -->
<g id="node2" class="node">
<title>Node2</title>
<g id="a_node2"><a xlink:title=" ">
<polygon fill="none" stroke="#bfbfbf" points="0,-0.5 0,-19.5 53,-19.5 53,-0.5 0,-0.5"/>
<text text-anchor="middle" x="26.5" y="-7.5" font-family="Helvetica,sans-Serif" font-size="10.00">stdint.h</text>
</a>
</g>
</g>
<!-- Node1&#45;&gt;Node2 -->
<g id="edge1" class="edge">
<title>Node1&#45;&gt;Node2</title>
<path fill="none" stroke="midnightblue" d="M51.68,-56.4C47.03,-48.02 41.1,-37.33 36.16,-28.42"/>
<polygon fill="midnightblue" stroke="midnightblue" points="39.21,-26.71 31.3,-19.66 33.09,-30.1 39.21,-26.71"/>
</g>
<!-- Node3 -->
<g id="node3" class="node">
<title>Node3</title>
<g id="a_node3"><a xlink:title=" ">
<polygon fill="none" stroke="#bfbfbf" points="71,-0.5 71,-19.5 114,-19.5 114,-0.5 71,-0.5"/>
<text text-anchor="middle" x="92.5" y="-7.5" font-family="Helvetica,sans-Serif" font-size="10.00">cpu.h</text>
</a>
</g>
</g>
<!-- Node1&#45;&gt;Node3 -->
<g id="edge2" class="edge">
<title>Node1&#45;&gt;Node3</title>
<path fill="none" stroke="midnightblue" d="M67.32,-56.4C71.97,-48.02 77.9,-37.33 82.84,-28.42"/>
<polygon fill="midnightblue" stroke="midnightblue" points="85.91,-30.1 87.7,-19.66 79.79,-26.71 85.91,-30.1"/>
</g>
</g>
</svg>
