<?xml version="1.0" encoding="UTF-8" standalone="no"?>
<!DOCTYPE svg PUBLIC "-//W3C//DTD SVG 1.1//EN"
 "http://www.w3.org/Graphics/SVG/1.1/DTD/svg11.dtd">
<!-- Generated by graphviz version 2.43.0 (0)
 -->
<!-- Title: cpu/lpc23xx/include/periph_cpu.h Pages: 1 -->
<svg width="462pt" height="319pt"
 viewBox="0.00 0.00 461.97 319.00" xmlns="http://www.w3.org/2000/svg" xmlns:xlink="http://www.w3.org/1999/xlink">
<g id="graph0" class="graph" transform="scale(1 1) rotate(0) translate(4 315)">
<title>cpu/lpc23xx/include/periph_cpu.h</title>
<!-- Node1 -->
<g id="node1" class="node">
<title>Node1</title>
<g id="a_node1"><a xlink:title="CPU specific definitions for internal peripheral handling.">
<polygon fill="#bfbfbf" stroke="black" points="8.5,-280.5 8.5,-310.5 121.5,-310.5 121.5,-280.5 8.5,-280.5"/>
<text text-anchor="start" x="16.5" y="-298.5" font-family="Helvetica,sans-Serif" font-size="10.00">cpu/lpc23xx/include</text>
<text text-anchor="middle" x="65" y="-287.5" font-family="Helvetica,sans-Serif" font-size="10.00">/periph_cpu.h</text>
</a>
</g>
</g>
<!-- Node2 -->
<g id="node2" class="node">
<title>Node2</title>
<g id="a_node2"><a xlink:title=" ">
<polygon fill="none" stroke="#bfbfbf" points="44.5,-0.5 44.5,-19.5 97.5,-19.5 97.5,-0.5 44.5,-0.5"/>
<text text-anchor="middle" x="71" y="-7.5" font-family="Helvetica,sans-Serif" font-size="10.00">stdint.h</text>
</a>
</g>
</g>
<!-- Node1&#45;&gt;Node2 -->
<g id="edge1" class="edge">
<title>Node1&#45;&gt;Node2</title>
<path fill="none" stroke="midnightblue" d="M50.57,-280.27C31.42,-259.8 0,-219.96 0,-179 0,-179 0,-179 0,-121 0,-82.1 31.73,-46.05 52.77,-26.43"/>
<polygon fill="midnightblue" stroke="midnightblue" points="55.11,-29.02 60.22,-19.74 50.44,-23.81 55.11,-29.02"/>
</g>
<!-- Node3 -->
<g id="node3" class="node">
<title>Node3</title>
<g id="a_node3"><a xlink:href="lpc23xx_2include_2cpu_8h_source.html" target="_top" xlink:title=" ">
<polygon fill="none" stroke="black" points="108.5,-224.5 108.5,-243.5 151.5,-243.5 151.5,-224.5 108.5,-224.5"/>
<text text-anchor="middle" x="130" y="-231.5" font-family="Helvetica,sans-Serif" font-size="10.00">cpu.h</text>
</a>
</g>
</g>
<!-- Node1&#45;&gt;Node3 -->
<g id="edge2" class="edge">
<title>Node1&#45;&gt;Node3</title>
<path fill="none" stroke="midnightblue" d="M80.4,-280.4C90.24,-271.4 102.99,-259.72 113.11,-250.47"/>
<polygon fill="midnightblue" stroke="midnightblue" points="115.53,-252.99 120.54,-243.66 110.8,-247.83 115.53,-252.99"/>
</g>
<!-- Node4 -->
<g id="node4" class="node">
<title>Node4</title>
<g id="a_node4"><a xlink:title=" ">
<polygon fill="none" stroke="#bfbfbf" points="28,-168.5 28,-187.5 78,-187.5 78,-168.5 28,-168.5"/>
<text text-anchor="middle" x="53" y="-175.5" font-family="Helvetica,sans-Serif" font-size="10.00">stdio.h</text>
</a>
</g>
</g>
<!-- Node3&#45;&gt;Node4 -->
<g id="edge3" class="edge">
<title>Node3&#45;&gt;Node4</title>
<path fill="none" stroke="midnightblue" d="M117.63,-224.32C105.84,-216.06 87.87,-203.45 73.86,-193.63"/>
<polygon fill="midnightblue" stroke="midnightblue" points="75.54,-190.53 65.34,-187.65 71.52,-196.26 75.54,-190.53"/>
</g>
<!-- Node5 -->
<g id="node5" class="node">
<title>Node5</title>
<g id="a_node5"><a xlink:title=" ">
<polygon fill="none" stroke="#bfbfbf" points="161,-56.5 161,-75.5 223,-75.5 223,-56.5 161,-56.5"/>
<text text-anchor="middle" x="192" y="-63.5" font-family="Helvetica,sans-Serif" font-size="10.00">stdbool.h</text>
</a>
</g>
</g>
<!-- Node3&#45;&gt;Node5 -->
<g id="edge4" class="edge">
<title>Node3&#45;&gt;Node5</title>
<path fill="none" stroke="midnightblue" d="M141.53,-224.37C151.56,-216.17 165.62,-202.92 173,-188 189.44,-154.76 192.3,-110.66 192.45,-85.92"/>
<polygon fill="midnightblue" stroke="midnightblue" points="195.95,-85.71 192.36,-75.74 188.95,-85.77 195.95,-85.71"/>
</g>
<!-- Node6 -->
<g id="node6" class="node">
<title>Node6</title>
<g id="a_node6"><a xlink:href="lpc23xx_8h_source.html" target="_top" xlink:title=" ">
<polygon fill="none" stroke="black" points="297,-168.5 297,-187.5 361,-187.5 361,-168.5 297,-168.5"/>
<text text-anchor="middle" x="329" y="-175.5" font-family="Helvetica,sans-Serif" font-size="10.00">lpc23xx.h</text>
</a>
</g>
</g>
<!-- Node3&#45;&gt;Node6 -->
<g id="edge5" class="edge">
<title>Node3&#45;&gt;Node6</title>
<path fill="none" stroke="midnightblue" d="M151.68,-227.12C184.25,-218.28 246.4,-201.41 287.78,-190.18"/>
<polygon fill="midnightblue" stroke="midnightblue" points="288.83,-193.53 297.57,-187.53 287,-186.77 288.83,-193.53"/>
</g>
<!-- Node11 -->
<g id="node11" class="node">
<title>Node11</title>
<g id="a_node11"><a xlink:href="arm__cpu_8h_source.html" target="_top" xlink:title=" ">
<polygon fill="none" stroke="black" points="96,-168.5 96,-187.5 164,-187.5 164,-168.5 96,-168.5"/>
<text text-anchor="middle" x="130" y="-175.5" font-family="Helvetica,sans-Serif" font-size="10.00">arm_cpu.h</text>
</a>
</g>
</g>
<!-- Node3&#45;&gt;Node11 -->
<g id="edge12" class="edge">
<title>Node3&#45;&gt;Node11</title>
<path fill="none" stroke="midnightblue" d="M130,-224.08C130,-217.01 130,-206.86 130,-197.99"/>
<polygon fill="midnightblue" stroke="midnightblue" points="133.5,-197.75 130,-187.75 126.5,-197.75 133.5,-197.75"/>
</g>
<!-- Node7 -->
<g id="node7" class="node">
<title>Node7</title>
<g id="a_node7"><a xlink:title=" ">
<polygon fill="none" stroke="#bfbfbf" points="337.5,-112.5 337.5,-131.5 438.5,-131.5 438.5,-112.5 337.5,-112.5"/>
<text text-anchor="middle" x="388" y="-119.5" font-family="Helvetica,sans-Serif" font-size="10.00">vendor/lpc23xx.h</text>
</a>
</g>
</g>
<!-- Node6&#45;&gt;Node7 -->
<g id="edge6" class="edge">
<title>Node6&#45;&gt;Node7</title>
<path fill="none" stroke="midnightblue" d="M338.48,-168.32C347.2,-160.34 360.34,-148.31 370.9,-138.65"/>
<polygon fill="midnightblue" stroke="midnightblue" points="373.33,-141.17 378.35,-131.83 368.61,-136 373.33,-141.17"/>
</g>
<!-- Node8 -->
<g id="node8" class="node">
<title>Node8</title>
<g id="a_node8"><a xlink:href="arm7__common_8h.html" target="_top" xlink:title="ARM7 CPU common declarations.">
<polygon fill="none" stroke="black" points="220.5,-112.5 220.5,-131.5 319.5,-131.5 319.5,-112.5 220.5,-112.5"/>
<text text-anchor="middle" x="270" y="-119.5" font-family="Helvetica,sans-Serif" font-size="10.00">arm7_common.h</text>
</a>
</g>
</g>
<!-- Node6&#45;&gt;Node8 -->
<g id="edge7" class="edge">
<title>Node6&#45;&gt;Node8</title>
<path fill="none" stroke="midnightblue" d="M319.52,-168.32C310.8,-160.34 297.66,-148.31 287.1,-138.65"/>
<polygon fill="midnightblue" stroke="midnightblue" points="289.39,-136 279.65,-131.83 284.67,-141.17 289.39,-136"/>
</g>
<!-- Node9 -->
<g id="node9" class="node">
<title>Node9</title>
<g id="a_node9"><a xlink:href="bitarithm_8h.html" target="_top" xlink:title="Helper functions for bit arithmetic.">
<polygon fill="none" stroke="black" points="241.5,-56.5 241.5,-75.5 312.5,-75.5 312.5,-56.5 241.5,-56.5"/>
<text text-anchor="middle" x="277" y="-63.5" font-family="Helvetica,sans-Serif" font-size="10.00">bitarithm.h</text>
</a>
</g>
</g>
<!-- Node6&#45;&gt;Node9 -->
<g id="edge11" class="edge">
<title>Node6&#45;&gt;Node9</title>
<path fill="none" stroke="midnightblue" d="M361.08,-172.09C404.53,-164.06 473.87,-145.56 448,-112 432.75,-92.22 367.82,-79.41 322.51,-72.69"/>
<polygon fill="midnightblue" stroke="midnightblue" points="322.99,-69.23 312.6,-71.28 322,-76.16 322.99,-69.23"/>
</g>
<!-- Node8&#45;&gt;Node9 -->
<g id="edge8" class="edge">
<title>Node8&#45;&gt;Node9</title>
<path fill="none" stroke="midnightblue" d="M271.16,-112.08C272.08,-104.93 273.42,-94.64 274.58,-85.69"/>
<polygon fill="midnightblue" stroke="midnightblue" points="278.05,-86.12 275.87,-75.75 271.11,-85.22 278.05,-86.12"/>
</g>
<!-- Node9&#45;&gt;Node2 -->
<g id="edge9" class="edge">
<title>Node9&#45;&gt;Node2</title>
<path fill="none" stroke="midnightblue" d="M244.36,-56.44C207.08,-46.67 146.23,-30.72 107.43,-20.55"/>
<polygon fill="midnightblue" stroke="midnightblue" points="108.15,-17.12 97.59,-17.97 106.38,-23.89 108.15,-17.12"/>
</g>
<!-- Node10 -->
<g id="node10" class="node">
<title>Node10</title>
<g id="a_node10"><a xlink:title=" ">
<polygon fill="none" stroke="#bfbfbf" points="243,-0.5 243,-19.5 311,-19.5 311,-0.5 243,-0.5"/>
<text text-anchor="middle" x="277" y="-7.5" font-family="Helvetica,sans-Serif" font-size="10.00">cpu_conf.h</text>
</a>
</g>
</g>
<!-- Node9&#45;&gt;Node10 -->
<g id="edge10" class="edge">
<title>Node9&#45;&gt;Node10</title>
<path fill="none" stroke="midnightblue" d="M277,-56.08C277,-49.01 277,-38.86 277,-29.99"/>
<polygon fill="midnightblue" stroke="midnightblue" points="280.5,-29.75 277,-19.75 273.5,-29.75 280.5,-29.75"/>
</g>
<!-- Node11&#45;&gt;Node2 -->
<g id="edge13" class="edge">
<title>Node11&#45;&gt;Node2</title>
<path fill="none" stroke="midnightblue" d="M122.79,-168.24C115.97,-159.55 105.94,-145.6 100,-132 84.93,-97.48 76.93,-53.84 73.37,-29.53"/>
<polygon fill="midnightblue" stroke="midnightblue" points="76.82,-28.97 72,-19.54 69.89,-29.93 76.82,-28.97"/>
</g>
<!-- Node11&#45;&gt;Node8 -->
<g id="edge17" class="edge">
<title>Node11&#45;&gt;Node8</title>
<path fill="none" stroke="midnightblue" d="M152.18,-168.44C175.43,-159.48 212.15,-145.31 238.42,-135.18"/>
<polygon fill="midnightblue" stroke="midnightblue" points="239.85,-138.38 247.92,-131.52 237.33,-131.85 239.85,-138.38"/>
</g>
<!-- Node12 -->
<g id="node12" class="node">
<title>Node12</title>
<g id="a_node12"><a xlink:href="VIC_8h_source.html" target="_top" xlink:title=" ">
<polygon fill="none" stroke="black" points="109,-112.5 109,-131.5 151,-131.5 151,-112.5 109,-112.5"/>
<text text-anchor="middle" x="130" y="-119.5" font-family="Helvetica,sans-Serif" font-size="10.00">VIC.h</text>
</a>
</g>
</g>
<!-- Node11&#45;&gt;Node12 -->
<g id="edge14" class="edge">
<title>Node11&#45;&gt;Node12</title>
<path fill="none" stroke="midnightblue" d="M130,-168.08C130,-161.01 130,-150.86 130,-141.99"/>
<polygon fill="midnightblue" stroke="midnightblue" points="133.5,-141.75 130,-131.75 126.5,-141.75 133.5,-141.75"/>
</g>
<!-- Node12&#45;&gt;Node5 -->
<g id="edge15" class="edge">
<title>Node12&#45;&gt;Node5</title>
<path fill="none" stroke="midnightblue" d="M139.96,-112.32C149.13,-104.34 162.94,-92.31 174.03,-82.65"/>
<polygon fill="midnightblue" stroke="midnightblue" points="176.62,-85.04 181.86,-75.83 172.02,-79.76 176.62,-85.04"/>
</g>
<!-- Node13 -->
<g id="node13" class="node">
<title>Node13</title>
<g id="a_node13"><a xlink:title=" ">
<polygon fill="none" stroke="#bfbfbf" points="99.5,-56.5 99.5,-75.5 142.5,-75.5 142.5,-56.5 99.5,-56.5"/>
<text text-anchor="middle" x="121" y="-63.5" font-family="Helvetica,sans-Serif" font-size="10.00">cpu.h</text>
</a>
</g>
</g>
<!-- Node12&#45;&gt;Node13 -->
<g id="edge16" class="edge">
<title>Node12&#45;&gt;Node13</title>
<path fill="none" stroke="midnightblue" d="M128.51,-112.08C127.32,-104.93 125.61,-94.64 124.12,-85.69"/>
<polygon fill="midnightblue" stroke="midnightblue" points="127.55,-85.04 122.46,-75.75 120.65,-86.19 127.55,-85.04"/>
</g>
</g>
</svg>
