<?xml version="1.0" encoding="UTF-8" standalone="no"?>
<!DOCTYPE svg PUBLIC "-//W3C//DTD SVG 1.1//EN"
 "http://www.w3.org/Graphics/SVG/1.1/DTD/svg11.dtd">
<!-- Generated by graphviz version 2.40.1 (20161225.0304)
 -->
<!-- Title: drivers/lsm303dlhc/include/lsm303dlhc_params.h Pages: 1 -->
<svg width="570pt" height="330pt"
 viewBox="0.00 0.00 569.75 330.00" xmlns="http://www.w3.org/2000/svg" xmlns:xlink="http://www.w3.org/1999/xlink">
<g id="graph0" class="graph" transform="scale(1 1) rotate(0) translate(4 326)">
<title>drivers/lsm303dlhc/include/lsm303dlhc_params.h</title>
<!-- Node0 -->
<g id="node1" class="node">
<title>Node0</title>
<polygon fill="#bfbfbf" stroke="#000000" points="232.2503,-280.5 232.2503,-321.5 335.2503,-321.5 335.2503,-280.5 232.2503,-280.5"/>
<text text-anchor="start" x="240.2503" y="-309.5" font-family="Helvetica,sans-Serif" font-size="10.00" fill="#000000">drivers/lsm303dlhc</text>
<text text-anchor="start" x="240.2503" y="-298.5" font-family="Helvetica,sans-Serif" font-size="10.00" fill="#000000">/include/lsm303dlhc</text>
<text text-anchor="middle" x="283.7503" y="-287.5" font-family="Helvetica,sans-Serif" font-size="10.00" fill="#000000">_params.h</text>
</g>
<!-- Node1 -->
<g id="node2" class="node">
<title>Node1</title>
<polygon fill="none" stroke="#bfbfbf" points="206.2503,-224.5 206.2503,-243.5 255.2503,-243.5 255.2503,-224.5 206.2503,-224.5"/>
<text text-anchor="middle" x="230.7503" y="-231.5" font-family="Helvetica,sans-Serif" font-size="10.00" fill="#000000">board.h</text>
</g>
<!-- Node0&#45;&gt;Node1 -->
<g id="edge1" class="edge">
<title>Node0&#45;&gt;Node1</title>
<path fill="none" stroke="#191970" d="M267.2713,-280.168C260.0695,-271.0639 251.7097,-260.4959 244.8071,-251.7699"/>
<polygon fill="#191970" stroke="#191970" points="247.4361,-249.4519 238.4871,-243.7805 241.9461,-253.7947 247.4361,-249.4519"/>
</g>
<!-- Node2 -->
<g id="node3" class="node">
<title>Node2</title>
<g id="a_node3"><a xlink:href="lsm303dlhc_8h.html" target="_top" xlink:title="Device driver interface for the LSM303DLHC 3D accelerometer/magnetometer. ">
<polygon fill="none" stroke="#000000" points="235.7503,-168.5 235.7503,-187.5 309.7503,-187.5 309.7503,-168.5 235.7503,-168.5"/>
<text text-anchor="middle" x="272.7503" y="-175.5" font-family="Helvetica,sans-Serif" font-size="10.00" fill="#000000">lsm303dlhc.h</text>
</a>
</g>
</g>
<!-- Node0&#45;&gt;Node2 -->
<g id="edge2" class="edge">
<title>Node0&#45;&gt;Node2</title>
<path fill="none" stroke="#191970" d="M281.9091,-280.4126C279.8477,-257.3618 276.5312,-220.2774 274.5054,-197.6259"/>
<polygon fill="#191970" stroke="#191970" points="277.9784,-197.1666 273.6015,-187.5182 271.0062,-197.7902 277.9784,-197.1666"/>
</g>
<!-- Node11 -->
<g id="node12" class="node">
<title>Node11</title>
<g id="a_node12"><a xlink:href="saul__reg_8h.html" target="_top" xlink:title="SAUL registry interface definition. ">
<polygon fill="none" stroke="#000000" points="358.7503,-224.5 358.7503,-243.5 420.7503,-243.5 420.7503,-224.5 358.7503,-224.5"/>
<text text-anchor="middle" x="389.7503" y="-231.5" font-family="Helvetica,sans-Serif" font-size="10.00" fill="#000000">saul_reg.h</text>
</a>
</g>
</g>
<!-- Node0&#45;&gt;Node11 -->
<g id="edge16" class="edge">
<title>Node0&#45;&gt;Node11</title>
<path fill="none" stroke="#191970" d="M316.4187,-280.3511C332.4381,-270.2256 351.3783,-258.254 365.9969,-249.0139"/>
<polygon fill="#191970" stroke="#191970" points="367.8928,-251.9562 374.4758,-243.6546 364.1527,-246.0391 367.8928,-251.9562"/>
</g>
<!-- Node3 -->
<g id="node4" class="node">
<title>Node3</title>
<polygon fill="none" stroke="#bfbfbf" points="368.2503,-56.5 368.2503,-75.5 417.2503,-75.5 417.2503,-56.5 368.2503,-56.5"/>
<text text-anchor="middle" x="392.7503" y="-63.5" font-family="Helvetica,sans-Serif" font-size="10.00" fill="#000000">stdint.h</text>
</g>
<!-- Node2&#45;&gt;Node3 -->
<g id="edge3" class="edge">
<title>Node2&#45;&gt;Node3</title>
<path fill="none" stroke="#191970" d="M282.2996,-168.4583C295.3357,-155.496 319.512,-131.6811 340.7503,-112 351.525,-102.0153 363.8262,-91.1117 373.7584,-82.4272"/>
<polygon fill="#191970" stroke="#191970" points="376.2149,-84.9292 381.4588,-75.7231 371.6184,-79.6497 376.2149,-84.9292"/>
</g>
<!-- Node4 -->
<g id="node5" class="node">
<title>Node4</title>
<g id="a_node5"><a xlink:href="i2c_8h.html" target="_top" xlink:title="Low&#45;level I2C peripheral driver interface definition. ">
<polygon fill="none" stroke="#000000" points="221.2503,-112.5 221.2503,-131.5 288.2503,-131.5 288.2503,-112.5 221.2503,-112.5"/>
<text text-anchor="middle" x="254.7503" y="-119.5" font-family="Helvetica,sans-Serif" font-size="10.00" fill="#000000">periph/i2c.h</text>
</a>
</g>
</g>
<!-- Node2&#45;&gt;Node4 -->
<g id="edge4" class="edge">
<title>Node2&#45;&gt;Node4</title>
<path fill="none" stroke="#191970" d="M269.6149,-168.2455C267.2403,-160.8579 263.901,-150.4689 260.9888,-141.4087"/>
<polygon fill="#191970" stroke="#191970" points="264.242,-140.0919 257.8497,-131.6427 257.5778,-142.234 264.242,-140.0919"/>
</g>
<!-- Node10 -->
<g id="node11" class="node">
<title>Node10</title>
<g id="a_node11"><a xlink:href="gpio_8h.html" target="_top" xlink:title="Low&#45;level GPIO peripheral driver interface definitions. ">
<polygon fill="none" stroke="#000000" points="40.7503,-112.5 40.7503,-131.5 112.7503,-131.5 112.7503,-112.5 40.7503,-112.5"/>
<text text-anchor="middle" x="76.7503" y="-119.5" font-family="Helvetica,sans-Serif" font-size="10.00" fill="#000000">periph/gpio.h</text>
</a>
</g>
</g>
<!-- Node2&#45;&gt;Node10 -->
<g id="edge12" class="edge">
<title>Node2&#45;&gt;Node10</title>
<path fill="none" stroke="#191970" d="M239.0567,-168.3733C206.0416,-158.9404 155.593,-144.5265 119.7117,-134.2747"/>
<polygon fill="#191970" stroke="#191970" points="120.581,-130.8831 110.0042,-131.5011 118.6579,-137.6137 120.581,-130.8831"/>
</g>
<!-- Node4&#45;&gt;Node3 -->
<g id="edge5" class="edge">
<title>Node4&#45;&gt;Node3</title>
<path fill="none" stroke="#191970" d="M278.4733,-112.3733C300.9239,-103.2629 334.8242,-89.5062 359.8757,-79.3404"/>
<polygon fill="#191970" stroke="#191970" points="361.3867,-82.5045 369.3368,-75.5011 358.7546,-76.0182 361.3867,-82.5045"/>
</g>
<!-- Node5 -->
<g id="node6" class="node">
<title>Node5</title>
<polygon fill="none" stroke="#bfbfbf" points="419.7503,-.5 419.7503,-19.5 471.7503,-19.5 471.7503,-.5 419.7503,-.5"/>
<text text-anchor="middle" x="445.7503" y="-7.5" font-family="Helvetica,sans-Serif" font-size="10.00" fill="#000000">stddef.h</text>
</g>
<!-- Node4&#45;&gt;Node5 -->
<g id="edge6" class="edge">
<title>Node4&#45;&gt;Node5</title>
<path fill="none" stroke="#191970" d="M268.9973,-112.4521C288.83,-99.2783 326.0149,-75.0016 358.7503,-56 378.0752,-44.7827 400.3608,-33.0212 417.5385,-24.1991"/>
<polygon fill="#191970" stroke="#191970" points="419.1893,-27.2861 426.505,-19.6225 416.0069,-21.0513 419.1893,-27.2861"/>
</g>
<!-- Node6 -->
<g id="node7" class="node">
<title>Node6</title>
<polygon fill="none" stroke="#bfbfbf" points="13.7503,-56.5 13.7503,-75.5 61.7503,-75.5 61.7503,-56.5 13.7503,-56.5"/>
<text text-anchor="middle" x="37.7503" y="-63.5" font-family="Helvetica,sans-Serif" font-size="10.00" fill="#000000">limits.h</text>
</g>
<!-- Node4&#45;&gt;Node6 -->
<g id="edge7" class="edge">
<title>Node4&#45;&gt;Node6</title>
<path fill="none" stroke="#191970" d="M221.0444,-114.1005C185.9975,-105.7706 129.3352,-91.9796 71.5233,-76.1228"/>
<polygon fill="#191970" stroke="#191970" points="72.4318,-72.7427 61.861,-73.4559 70.5693,-79.4904 72.4318,-72.7427"/>
</g>
<!-- Node7 -->
<g id="node8" class="node">
<title>Node7</title>
<polygon fill="none" stroke="#bfbfbf" points="142.2503,-.5 142.2503,-19.5 217.2503,-19.5 217.2503,-.5 142.2503,-.5"/>
<text text-anchor="middle" x="179.7503" y="-7.5" font-family="Helvetica,sans-Serif" font-size="10.00" fill="#000000">periph_conf.h</text>
</g>
<!-- Node4&#45;&gt;Node7 -->
<g id="edge8" class="edge">
<title>Node4&#45;&gt;Node7</title>
<path fill="none" stroke="#191970" d="M238.4658,-112.4879C225.8688,-104.3267 208.9125,-91.4531 198.7503,-76 189.5484,-62.0073 184.7245,-43.5019 182.2444,-29.6475"/>
<polygon fill="#191970" stroke="#191970" points="185.6956,-29.0621 180.7191,-19.7088 178.7766,-30.124 185.6956,-29.0621"/>
</g>
<!-- Node8 -->
<g id="node9" class="node">
<title>Node8</title>
<polygon fill="none" stroke="#bfbfbf" points="79.7503,-56.5 79.7503,-75.5 151.7503,-75.5 151.7503,-56.5 79.7503,-56.5"/>
<text text-anchor="middle" x="115.7503" y="-63.5" font-family="Helvetica,sans-Serif" font-size="10.00" fill="#000000">periph_cpu.h</text>
</g>
<!-- Node4&#45;&gt;Node8 -->
<g id="edge9" class="edge">
<title>Node4&#45;&gt;Node8</title>
<path fill="none" stroke="#191970" d="M230.8553,-112.3733C208.242,-103.2629 174.0961,-89.5062 148.863,-79.3404"/>
<polygon fill="#191970" stroke="#191970" points="149.9169,-75.9917 139.3334,-75.5011 147.301,-82.4845 149.9169,-75.9917"/>
</g>
<!-- Node9 -->
<g id="node10" class="node">
<title>Node9</title>
<g id="a_node10"><a xlink:href="dev__enums_8h.html" target="_top" xlink:title="Device enumerations for backward compatibility with existing peripheral driver implementations. ">
<polygon fill="none" stroke="#000000" points="207.7503,-56.5 207.7503,-75.5 311.7503,-75.5 311.7503,-56.5 207.7503,-56.5"/>
<text text-anchor="middle" x="259.7503" y="-63.5" font-family="Helvetica,sans-Serif" font-size="10.00" fill="#000000">periph/dev_enums.h</text>
</a>
</g>
</g>
<!-- Node4&#45;&gt;Node9 -->
<g id="edge10" class="edge">
<title>Node4&#45;&gt;Node9</title>
<path fill="none" stroke="#191970" d="M255.6212,-112.2455C256.2736,-104.9382 257.1883,-94.6944 257.9909,-85.7046"/>
<polygon fill="#191970" stroke="#191970" points="261.486,-85.9143 258.8893,-75.6427 254.5138,-85.2918 261.486,-85.9143"/>
</g>
<!-- Node9&#45;&gt;Node7 -->
<g id="edge11" class="edge">
<title>Node9&#45;&gt;Node7</title>
<path fill="none" stroke="#191970" d="M245.8153,-56.2455C233.6556,-47.7337 215.8038,-35.2375 201.7218,-25.3801"/>
<polygon fill="#191970" stroke="#191970" points="203.725,-22.51 193.5255,-19.6427 199.7107,-28.2447 203.725,-22.51"/>
</g>
<!-- Node10&#45;&gt;Node6 -->
<g id="edge13" class="edge">
<title>Node10&#45;&gt;Node6</title>
<path fill="none" stroke="#191970" d="M69.957,-112.2455C64.5324,-104.4564 56.7842,-93.3308 50.2469,-83.9439"/>
<polygon fill="#191970" stroke="#191970" points="53.0528,-81.8485 44.4657,-75.6427 47.3085,-85.849 53.0528,-81.8485"/>
</g>
<!-- Node10&#45;&gt;Node7 -->
<g id="edge15" class="edge">
<title>Node10&#45;&gt;Node7</title>
<path fill="none" stroke="#191970" d="M51.8733,-112.3881C24.6736,-100.4423 -12.8529,-78.8283 4.7503,-56 20.2213,-35.9367 85.6717,-22.8943 131.9774,-15.9905"/>
<polygon fill="#191970" stroke="#191970" points="132.7263,-19.4189 142.1252,-14.5291 131.7284,-12.4903 132.7263,-19.4189"/>
</g>
<!-- Node10&#45;&gt;Node8 -->
<g id="edge14" class="edge">
<title>Node10&#45;&gt;Node8</title>
<path fill="none" stroke="#191970" d="M83.5435,-112.2455C88.9681,-104.4564 96.7163,-93.3308 103.2536,-83.9439"/>
<polygon fill="#191970" stroke="#191970" points="106.192,-85.849 109.0348,-75.6427 100.4477,-81.8485 106.192,-85.849"/>
</g>
<!-- Node11&#45;&gt;Node3 -->
<g id="edge17" class="edge">
<title>Node11&#45;&gt;Node3</title>
<path fill="none" stroke="#191970" d="M389.9202,-224.4862C390.3944,-197.9293 391.7402,-122.5651 392.3902,-86.1655"/>
<polygon fill="#191970" stroke="#191970" points="395.8956,-85.8888 392.5748,-75.8279 388.8967,-85.7638 395.8956,-85.8888"/>
</g>
<!-- Node12 -->
<g id="node13" class="node">
<title>Node12</title>
<g id="a_node13"><a xlink:href="saul_8h.html" target="_top" xlink:title="Definition of the generic [S]ensor [A]ctuator [U]ber [L]ayer. ">
<polygon fill="none" stroke="#000000" points="403.2503,-168.5 403.2503,-187.5 446.2503,-187.5 446.2503,-168.5 403.2503,-168.5"/>
<text text-anchor="middle" x="424.7503" y="-175.5" font-family="Helvetica,sans-Serif" font-size="10.00" fill="#000000">saul.h</text>
</a>
</g>
</g>
<!-- Node11&#45;&gt;Node12 -->
<g id="edge18" class="edge">
<title>Node11&#45;&gt;Node12</title>
<path fill="none" stroke="#191970" d="M395.8468,-224.2455C400.6648,-216.5367 407.5254,-205.5598 413.3535,-196.2348"/>
<polygon fill="#191970" stroke="#191970" points="416.3916,-197.9777 418.7236,-187.6427 410.4556,-194.2677 416.3916,-197.9777"/>
</g>
<!-- Node14 -->
<g id="node15" class="node">
<title>Node14</title>
<g id="a_node15"><a xlink:href="phydat_8h.html" target="_top" xlink:title="Generic data container for physical data interface. ">
<polygon fill="none" stroke="#000000" points="486.7503,-112.5 486.7503,-131.5 540.7503,-131.5 540.7503,-112.5 486.7503,-112.5"/>
<text text-anchor="middle" x="513.7503" y="-119.5" font-family="Helvetica,sans-Serif" font-size="10.00" fill="#000000">phydat.h</text>
</a>
</g>
</g>
<!-- Node11&#45;&gt;Node14 -->
<g id="edge26" class="edge">
<title>Node11&#45;&gt;Node14</title>
<path fill="none" stroke="#191970" d="M405.74,-224.3967C419.6206,-215.7101 439.92,-202.1456 455.7503,-188 472.3588,-173.1589 488.8901,-153.7762 500.0291,-139.861"/>
<polygon fill="#191970" stroke="#191970" points="503.0878,-141.6334 506.5169,-131.6089 497.5848,-137.307 503.0878,-141.6334"/>
</g>
<!-- Node12&#45;&gt;Node3 -->
<g id="edge19" class="edge">
<title>Node12&#45;&gt;Node3</title>
<path fill="none" stroke="#191970" d="M422.022,-168.4509C416.7792,-150.1013 405.2048,-109.5908 398.2844,-85.3693"/>
<polygon fill="#191970" stroke="#191970" points="401.5843,-84.1786 395.4717,-75.5249 394.8536,-86.1017 401.5843,-84.1786"/>
</g>
<!-- Node13 -->
<g id="node14" class="node">
<title>Node13</title>
<g id="a_node14"><a xlink:href="errno_8h.html" target="_top" xlink:title="errno.h">
<polygon fill="none" stroke="#000000" points="421.2503,-112.5 421.2503,-131.5 468.2503,-131.5 468.2503,-112.5 421.2503,-112.5"/>
<text text-anchor="middle" x="444.7503" y="-119.5" font-family="Helvetica,sans-Serif" font-size="10.00" fill="#000000">errno.h</text>
</a>
</g>
</g>
<!-- Node12&#45;&gt;Node13 -->
<g id="edge20" class="edge">
<title>Node12&#45;&gt;Node13</title>
<path fill="none" stroke="#191970" d="M428.234,-168.2455C430.9011,-160.7776 434.6636,-150.2427 437.9239,-141.1137"/>
<polygon fill="#191970" stroke="#191970" points="441.2391,-142.2373 441.3065,-131.6427 434.6469,-139.8829 441.2391,-142.2373"/>
</g>
<!-- Node12&#45;&gt;Node14 -->
<g id="edge21" class="edge">
<title>Node12&#45;&gt;Node14</title>
<path fill="none" stroke="#191970" d="M440.2529,-168.2455C453.9082,-159.6534 474.016,-147.0014 489.7492,-137.1018"/>
<polygon fill="#191970" stroke="#191970" points="491.8253,-139.9307 498.4253,-131.6427 488.0974,-134.006 491.8253,-139.9307"/>
</g>
<!-- Node14&#45;&gt;Node3 -->
<g id="edge23" class="edge">
<title>Node14&#45;&gt;Node3</title>
<path fill="none" stroke="#191970" d="M492.9496,-112.3733C473.526,-103.3838 444.3279,-89.8706 422.4538,-79.7471"/>
<polygon fill="#191970" stroke="#191970" points="423.8247,-76.5249 413.2795,-75.5011 420.8846,-82.8776 423.8247,-76.5249"/>
</g>
<!-- Node14&#45;&gt;Node5 -->
<g id="edge22" class="edge">
<title>Node14&#45;&gt;Node5</title>
<path fill="none" stroke="#191970" d="M499.7544,-112.214C488.7264,-103.8067 473.7564,-90.7345 464.7503,-76 456.1027,-61.8521 451.2436,-43.5996 448.6087,-29.8765"/>
<polygon fill="#191970" stroke="#191970" points="451.9916,-28.8866 446.8843,-19.604 445.0882,-30.0455 451.9916,-28.8866"/>
</g>
<!-- Node15 -->
<g id="node16" class="node">
<title>Node15</title>
<g id="a_node16"><a xlink:href="kernel__defines_8h.html" target="_top" xlink:title="Common macros and compiler attributes/pragmas configuration. ">
<polygon fill="none" stroke="#000000" points="473.7503,-56.5 473.7503,-75.5 561.7503,-75.5 561.7503,-56.5 473.7503,-56.5"/>
<text text-anchor="middle" x="517.7503" y="-63.5" font-family="Helvetica,sans-Serif" font-size="10.00" fill="#000000">kernel_defines.h</text>
</a>
</g>
</g>
<!-- Node14&#45;&gt;Node15 -->
<g id="edge24" class="edge">
<title>Node14&#45;&gt;Node15</title>
<path fill="none" stroke="#191970" d="M514.447,-112.2455C514.969,-104.9382 515.7007,-94.6944 516.3428,-85.7046"/>
<polygon fill="#191970" stroke="#191970" points="519.84,-85.8667 517.0615,-75.6427 512.8578,-85.3679 519.84,-85.8667"/>
</g>
<!-- Node15&#45;&gt;Node5 -->
<g id="edge25" class="edge">
<title>Node15&#45;&gt;Node5</title>
<path fill="none" stroke="#191970" d="M505.2088,-56.2455C494.4715,-47.8943 478.8029,-35.7076 466.2456,-25.9408"/>
<polygon fill="#191970" stroke="#191970" points="468.1903,-23.0194 458.148,-19.6427 463.8927,-28.5449 468.1903,-23.0194"/>
</g>
</g>
</svg>
