<?xml version="1.0" encoding="UTF-8" standalone="no"?>
<!DOCTYPE svg PUBLIC "-//W3C//DTD SVG 1.1//EN"
 "http://www.w3.org/Graphics/SVG/1.1/DTD/svg11.dtd">
<!-- Generated by graphviz version 2.40.1 (20161225.0304)
 -->
<!-- Title: drivers/include/ltc4150.h Pages: 1 -->
<svg width="1031pt" height="420pt"
 viewBox="0.00 0.00 1031.00 420.00" xmlns="http://www.w3.org/2000/svg" xmlns:xlink="http://www.w3.org/1999/xlink">
<g id="graph0" class="graph" transform="scale(1 1) rotate(0) translate(4 416)">
<title>drivers/include/ltc4150.h</title>
<!-- Node0 -->
<g id="node1" class="node">
<title>Node0</title>
<polygon fill="#bfbfbf" stroke="#000000" points="246.5,-392.5 246.5,-411.5 368.5,-411.5 368.5,-392.5 246.5,-392.5"/>
<text text-anchor="middle" x="307.5" y="-399.5" font-family="Helvetica,sans-Serif" font-size="10.00" fill="#000000">drivers/include/ltc4150.h</text>
</g>
<!-- Node1 -->
<g id="node2" class="node">
<title>Node1</title>
<polygon fill="none" stroke="#bfbfbf" points="265,-168.5 265,-187.5 314,-187.5 314,-168.5 265,-168.5"/>
<text text-anchor="middle" x="289.5" y="-175.5" font-family="Helvetica,sans-Serif" font-size="10.00" fill="#000000">stdint.h</text>
</g>
<!-- Node0&#45;&gt;Node1 -->
<g id="edge1" class="edge">
<title>Node0&#45;&gt;Node1</title>
<path fill="none" stroke="#191970" d="M303.3235,-392.3863C295.8035,-374.5659 280.1505,-335.0267 273.5,-300 268.8507,-275.5129 271.1669,-268.9157 270.5,-244 270.2622,-235.1143 268.7702,-232.719 270.5,-224 272.3648,-214.6003 276.1799,-204.7115 279.9054,-196.5215"/>
<polygon fill="#191970" stroke="#191970" points="283.0557,-198.0464 284.2682,-187.5212 276.7567,-194.993 283.0557,-198.0464"/>
</g>
<!-- Node2 -->
<g id="node3" class="node">
<title>Node2</title>
<g id="a_node3"><a xlink:href="mutex_8h.html" target="_top" xlink:title="Mutex for thread synchronization. ">
<polygon fill="none" stroke="#000000" points="147.5,-224.5 147.5,-243.5 199.5,-243.5 199.5,-224.5 147.5,-224.5"/>
<text text-anchor="middle" x="173.5" y="-231.5" font-family="Helvetica,sans-Serif" font-size="10.00" fill="#000000">mutex.h</text>
</a>
</g>
</g>
<!-- Node0&#45;&gt;Node2 -->
<g id="edge2" class="edge">
<title>Node0&#45;&gt;Node2</title>
<path fill="none" stroke="#191970" d="M272.8716,-392.4862C253.0055,-385.3991 229.0077,-373.8153 213.5,-356 187.8758,-326.5629 178.5915,-280.3233 175.2824,-254.0353"/>
<polygon fill="#191970" stroke="#191970" points="178.7297,-253.3592 174.1723,-243.7946 171.7704,-254.1136 178.7297,-253.3592"/>
</g>
<!-- Node5 -->
<g id="node6" class="node">
<title>Node5</title>
<g id="a_node6"><a xlink:href="gpio_8h.html" target="_top" xlink:title="Low&#45;level GPIO peripheral driver interface definitions. ">
<polygon fill="none" stroke="#000000" points="846.5,-224.5 846.5,-243.5 918.5,-243.5 918.5,-224.5 846.5,-224.5"/>
<text text-anchor="middle" x="882.5" y="-231.5" font-family="Helvetica,sans-Serif" font-size="10.00" fill="#000000">periph/gpio.h</text>
</a>
</g>
</g>
<!-- Node0&#45;&gt;Node5 -->
<g id="edge6" class="edge">
<title>Node0&#45;&gt;Node5</title>
<path fill="none" stroke="#191970" d="M368.5838,-392.8646C455.6103,-378.7664 619.4793,-348.1876 752.5,-300 790.8633,-286.1026 832.4597,-263.5372 858.0056,-248.7308"/>
<polygon fill="#191970" stroke="#191970" points="859.8004,-251.7358 866.6553,-243.6573 856.2588,-245.6978 859.8004,-251.7358"/>
</g>
<!-- Node9 -->
<g id="node10" class="node">
<title>Node9</title>
<g id="a_node10"><a xlink:href="xtimer_8h.html" target="_top" xlink:title="xtimer interface definitions ">
<polygon fill="none" stroke="#000000" points="362.5,-336.5 362.5,-355.5 414.5,-355.5 414.5,-336.5 362.5,-336.5"/>
<text text-anchor="middle" x="388.5" y="-343.5" font-family="Helvetica,sans-Serif" font-size="10.00" fill="#000000">xtimer.h</text>
</a>
</g>
</g>
<!-- Node0&#45;&gt;Node9 -->
<g id="edge10" class="edge">
<title>Node0&#45;&gt;Node9</title>
<path fill="none" stroke="#191970" d="M321.6091,-392.2455C333.9209,-383.7337 351.9958,-371.2375 366.2538,-361.3801"/>
<polygon fill="#191970" stroke="#191970" points="368.3174,-364.2085 374.5526,-355.6427 364.3366,-358.4506 368.3174,-364.2085"/>
</g>
<!-- Node2&#45;&gt;Node1 -->
<g id="edge4" class="edge">
<title>Node2&#45;&gt;Node1</title>
<path fill="none" stroke="#191970" d="M193.4411,-224.3733C211.9786,-215.4241 239.8028,-201.9917 260.7413,-191.8835"/>
<polygon fill="#191970" stroke="#191970" points="262.3352,-195.0006 269.8191,-187.5011 259.2919,-188.6967 262.3352,-195.0006"/>
</g>
<!-- Node3 -->
<g id="node4" class="node">
<title>Node3</title>
<polygon fill="none" stroke="#bfbfbf" points="147.5,-.5 147.5,-19.5 199.5,-19.5 199.5,-.5 147.5,-.5"/>
<text text-anchor="middle" x="173.5" y="-7.5" font-family="Helvetica,sans-Serif" font-size="10.00" fill="#000000">stddef.h</text>
</g>
<!-- Node2&#45;&gt;Node3 -->
<g id="edge3" class="edge">
<title>Node2&#45;&gt;Node3</title>
<path fill="none" stroke="#191970" d="M173.5,-224.375C173.5,-190.4851 173.5,-76.2317 173.5,-29.8332"/>
<polygon fill="#191970" stroke="#191970" points="177.0001,-29.5891 173.5,-19.5891 170.0001,-29.5892 177.0001,-29.5891"/>
</g>
<!-- Node4 -->
<g id="node5" class="node">
<title>Node4</title>
<g id="a_node5"><a xlink:href="list_8h.html" target="_top" xlink:title="Intrusive linked list. ">
<polygon fill="none" stroke="#000000" points="201.5,-168.5 201.5,-187.5 239.5,-187.5 239.5,-168.5 201.5,-168.5"/>
<text text-anchor="middle" x="220.5" y="-175.5" font-family="Helvetica,sans-Serif" font-size="10.00" fill="#000000">list.h</text>
</a>
</g>
</g>
<!-- Node2&#45;&gt;Node4 -->
<g id="edge5" class="edge">
<title>Node2&#45;&gt;Node4</title>
<path fill="none" stroke="#191970" d="M181.6868,-224.2455C188.3589,-216.2958 197.9479,-204.8706 205.9253,-195.3656"/>
<polygon fill="#191970" stroke="#191970" points="208.6592,-197.5525 212.407,-187.6427 203.2974,-193.0524 208.6592,-197.5525"/>
</g>
<!-- Node6 -->
<g id="node7" class="node">
<title>Node6</title>
<polygon fill="none" stroke="#bfbfbf" points="819.5,-168.5 819.5,-187.5 867.5,-187.5 867.5,-168.5 819.5,-168.5"/>
<text text-anchor="middle" x="843.5" y="-175.5" font-family="Helvetica,sans-Serif" font-size="10.00" fill="#000000">limits.h</text>
</g>
<!-- Node5&#45;&gt;Node6 -->
<g id="edge7" class="edge">
<title>Node5&#45;&gt;Node6</title>
<path fill="none" stroke="#191970" d="M875.7067,-224.2455C870.2822,-216.4564 862.5339,-205.3308 855.9967,-195.9439"/>
<polygon fill="#191970" stroke="#191970" points="858.8025,-193.8485 850.2154,-187.6427 853.0583,-197.849 858.8025,-193.8485"/>
</g>
<!-- Node7 -->
<g id="node8" class="node">
<title>Node7</title>
<polygon fill="none" stroke="#bfbfbf" points="885.5,-168.5 885.5,-187.5 957.5,-187.5 957.5,-168.5 885.5,-168.5"/>
<text text-anchor="middle" x="921.5" y="-175.5" font-family="Helvetica,sans-Serif" font-size="10.00" fill="#000000">periph_cpu.h</text>
</g>
<!-- Node5&#45;&gt;Node7 -->
<g id="edge8" class="edge">
<title>Node5&#45;&gt;Node7</title>
<path fill="none" stroke="#191970" d="M889.2933,-224.2455C894.7178,-216.4564 902.4661,-205.3308 909.0033,-195.9439"/>
<polygon fill="#191970" stroke="#191970" points="911.9417,-197.849 914.7846,-187.6427 906.1975,-193.8485 911.9417,-197.849"/>
</g>
<!-- Node8 -->
<g id="node9" class="node">
<title>Node8</title>
<polygon fill="none" stroke="#bfbfbf" points="948,-112.5 948,-131.5 1023,-131.5 1023,-112.5 948,-112.5"/>
<text text-anchor="middle" x="985.5" y="-119.5" font-family="Helvetica,sans-Serif" font-size="10.00" fill="#000000">periph_conf.h</text>
</g>
<!-- Node5&#45;&gt;Node8 -->
<g id="edge9" class="edge">
<title>Node5&#45;&gt;Node8</title>
<path fill="none" stroke="#191970" d="M912.0625,-224.4668C930.2144,-217.1816 952.5766,-205.3935 966.5,-188 977.0834,-174.7789 981.7717,-155.9125 983.8485,-141.7345"/>
<polygon fill="#191970" stroke="#191970" points="987.3524,-141.9009 985.0169,-131.5667 980.3981,-141.1017 987.3524,-141.9009"/>
</g>
<!-- Node9&#45;&gt;Node1 -->
<g id="edge12" class="edge">
<title>Node9&#45;&gt;Node1</title>
<path fill="none" stroke="#191970" d="M362.1765,-342.3511C337.6264,-337.3985 302.3379,-325.9607 285.5,-300 265.2185,-268.73 274.6922,-222.8435 282.6093,-197.1829"/>
<polygon fill="#191970" stroke="#191970" points="285.9864,-198.1189 285.8158,-187.5254 279.343,-195.9131 285.9864,-198.1189"/>
</g>
<!-- Node9&#45;&gt;Node2 -->
<g id="edge16" class="edge">
<title>Node9&#45;&gt;Node2</title>
<path fill="none" stroke="#191970" d="M362.2865,-340.3358C333.7724,-333.4763 287.4577,-320.2598 251.5,-300 228.0282,-286.7752 204.9534,-266.0126 190.0657,-251.3106"/>
<polygon fill="#191970" stroke="#191970" points="192.2079,-248.4995 182.6865,-243.8527 187.232,-253.4229 192.2079,-248.4995"/>
</g>
<!-- Node9&#45;&gt;Node8 -->
<g id="edge29" class="edge">
<title>Node9&#45;&gt;Node8</title>
<path fill="none" stroke="#191970" d="M414.8241,-344.3408C475.1515,-340.1772 627.802,-327.5846 752.5,-300 832.2354,-282.3617 857.4058,-285.9004 927.5,-244 958.2561,-225.6149 971.4978,-220.9831 985.5,-188 991.6567,-173.4975 991.1998,-155.5338 989.4575,-142.0107"/>
<polygon fill="#191970" stroke="#191970" points="992.8682,-141.1779 987.8088,-131.8692 985.9589,-142.3013 992.8682,-141.1779"/>
</g>
<!-- Node10 -->
<g id="node11" class="node">
<title>Node10</title>
<polygon fill="none" stroke="#bfbfbf" points="539.5,-168.5 539.5,-187.5 595.5,-187.5 595.5,-168.5 539.5,-168.5"/>
<text text-anchor="middle" x="567.5" y="-175.5" font-family="Helvetica,sans-Serif" font-size="10.00" fill="#000000">stdbool.h</text>
</g>
<!-- Node9&#45;&gt;Node10 -->
<g id="edge11" class="edge">
<title>Node9&#45;&gt;Node10</title>
<path fill="none" stroke="#191970" d="M414.7869,-340.5129C457.2255,-330.0797 539.5992,-302.9433 574.5,-244 582.8272,-229.9363 579.7776,-211.1953 575.4019,-197.2777"/>
<polygon fill="#191970" stroke="#191970" points="578.6456,-195.9546 571.9638,-187.7324 572.0597,-198.3268 578.6456,-195.9546"/>
</g>
<!-- Node11 -->
<g id="node12" class="node">
<title>Node11</title>
<g id="a_node12"><a xlink:href="timex_8h.html" target="_top" xlink:title="Utility library for comparing and computing timestamps. ">
<polygon fill="none" stroke="#000000" points="418,-224.5 418,-243.5 467,-243.5 467,-224.5 418,-224.5"/>
<text text-anchor="middle" x="442.5" y="-231.5" font-family="Helvetica,sans-Serif" font-size="10.00" fill="#000000">timex.h</text>
</a>
</g>
</g>
<!-- Node9&#45;&gt;Node11 -->
<g id="edge13" class="edge">
<title>Node9&#45;&gt;Node11</title>
<path fill="none" stroke="#191970" d="M398.4009,-336.288C406.7831,-327.5318 418.5179,-313.9261 425.5,-300 432.7918,-285.4561 437.1549,-267.4954 439.6318,-253.9841"/>
<polygon fill="#191970" stroke="#191970" points="443.1286,-254.288 441.2916,-243.8537 436.2207,-253.1561 443.1286,-254.288"/>
</g>
<!-- Node13 -->
<g id="node14" class="node">
<title>Node13</title>
<g id="a_node14"><a xlink:href="kernel__types_8h.html" target="_top" xlink:title="Types used by the kernel. ">
<polygon fill="none" stroke="#000000" points="485.5,-224.5 485.5,-243.5 565.5,-243.5 565.5,-224.5 485.5,-224.5"/>
<text text-anchor="middle" x="525.5" y="-231.5" font-family="Helvetica,sans-Serif" font-size="10.00" fill="#000000">kernel_types.h</text>
</a>
</g>
</g>
<!-- Node9&#45;&gt;Node13 -->
<g id="edge17" class="edge">
<title>Node9&#45;&gt;Node13</title>
<path fill="none" stroke="#191970" d="M400.1805,-336.4509C423.7383,-317.1921 477.1563,-273.5218 506.0589,-249.8935"/>
<polygon fill="#191970" stroke="#191970" points="508.3222,-252.564 513.849,-243.5249 503.8916,-247.1445 508.3222,-252.564"/>
</g>
<!-- Node15 -->
<g id="node16" class="node">
<title>Node15</title>
<g id="a_node16"><a xlink:href="rmutex_8h.html" target="_top" xlink:title="Recursive Mutex for thread synchronization. ">
<polygon fill="none" stroke="#000000" points="361,-280.5 361,-299.5 416,-299.5 416,-280.5 361,-280.5"/>
<text text-anchor="middle" x="388.5" y="-287.5" font-family="Helvetica,sans-Serif" font-size="10.00" fill="#000000">rmutex.h</text>
</a>
</g>
</g>
<!-- Node9&#45;&gt;Node15 -->
<g id="edge23" class="edge">
<title>Node9&#45;&gt;Node15</title>
<path fill="none" stroke="#191970" d="M388.5,-336.2455C388.5,-328.9382 388.5,-318.6944 388.5,-309.7046"/>
<polygon fill="#191970" stroke="#191970" points="392.0001,-309.6426 388.5,-299.6427 385.0001,-309.6427 392.0001,-309.6426"/>
</g>
<!-- Node17 -->
<g id="node18" class="node">
<title>Node17</title>
<polygon fill="none" stroke="#bfbfbf" points="294,-280.5 294,-299.5 343,-299.5 343,-280.5 294,-280.5"/>
<text text-anchor="middle" x="318.5" y="-287.5" font-family="Helvetica,sans-Serif" font-size="10.00" fill="#000000">board.h</text>
</g>
<!-- Node9&#45;&gt;Node17 -->
<g id="edge28" class="edge">
<title>Node9&#45;&gt;Node17</title>
<path fill="none" stroke="#191970" d="M376.3069,-336.2455C365.8679,-327.8943 350.6345,-315.7076 338.426,-305.9408"/>
<polygon fill="#191970" stroke="#191970" points="340.5485,-303.1566 330.5533,-299.6427 336.1756,-308.6227 340.5485,-303.1566"/>
</g>
<!-- Node18 -->
<g id="node19" class="node">
<title>Node18</title>
<g id="a_node19"><a xlink:href="tick__conversion_8h.html" target="_top" xlink:title="xtimer tick &lt;&#45;&gt; seconds conversions for different values of XTIMER_HZ ">
<polygon fill="none" stroke="#000000" points="0,-280.5 0,-299.5 123,-299.5 123,-280.5 0,-280.5"/>
<text text-anchor="middle" x="61.5" y="-287.5" font-family="Helvetica,sans-Serif" font-size="10.00" fill="#000000">xtimer/tick_conversion.h</text>
</a>
</g>
</g>
<!-- Node9&#45;&gt;Node18 -->
<g id="edge30" class="edge">
<title>Node9&#45;&gt;Node18</title>
<path fill="none" stroke="#191970" d="M362.293,-341.5119C311.7041,-332.8484 199.2286,-313.5865 127.0632,-301.2279"/>
<polygon fill="#191970" stroke="#191970" points="127.6058,-297.77 117.1585,-299.5317 126.4242,-304.6696 127.6058,-297.77"/>
</g>
<!-- Node23 -->
<g id="node24" class="node">
<title>Node23</title>
<g id="a_node24"><a xlink:href="implementation_8h.html" target="_top" xlink:title="xtimer implementation ">
<polygon fill="none" stroke="#000000" points="622,-280.5 622,-299.5 743,-299.5 743,-280.5 622,-280.5"/>
<text text-anchor="middle" x="682.5" y="-287.5" font-family="Helvetica,sans-Serif" font-size="10.00" fill="#000000">xtimer/implementation.h</text>
</a>
</g>
</g>
<!-- Node9&#45;&gt;Node23 -->
<g id="edge37" class="edge">
<title>Node9&#45;&gt;Node23</title>
<path fill="none" stroke="#191970" d="M414.5905,-341.0304C460.9458,-332.2008 558.7691,-313.5678 622.5045,-301.4277"/>
<polygon fill="#191970" stroke="#191970" points="623.2594,-304.8469 632.4278,-299.5376 621.9495,-297.9706 623.2594,-304.8469"/>
</g>
<!-- Node11&#45;&gt;Node1 -->
<g id="edge14" class="edge">
<title>Node11&#45;&gt;Node1</title>
<path fill="none" stroke="#191970" d="M417.9179,-225.0026C392.3777,-215.6546 352.2194,-200.9561 323.6143,-190.4863"/>
<polygon fill="#191970" stroke="#191970" points="324.6149,-187.1255 314.0211,-186.975 322.2088,-193.699 324.6149,-187.1255"/>
</g>
<!-- Node12 -->
<g id="node13" class="node">
<title>Node12</title>
<g id="a_node13"><a xlink:href="inttypes_8h.html" target="_top" xlink:title="Adds include for missing inttype definitions. ">
<polygon fill="none" stroke="#000000" points="338,-168.5 338,-187.5 397,-187.5 397,-168.5 338,-168.5"/>
<text text-anchor="middle" x="367.5" y="-175.5" font-family="Helvetica,sans-Serif" font-size="10.00" fill="#000000">inttypes.h</text>
</a>
</g>
</g>
<!-- Node11&#45;&gt;Node12 -->
<g id="edge15" class="edge">
<title>Node11&#45;&gt;Node12</title>
<path fill="none" stroke="#191970" d="M429.436,-224.2455C418.1438,-215.814 401.6155,-203.4729 388.4729,-193.6598"/>
<polygon fill="#191970" stroke="#191970" points="390.5211,-190.8211 380.4143,-187.6427 386.3331,-196.4301 390.5211,-190.8211"/>
</g>
<!-- Node13&#45;&gt;Node1 -->
<g id="edge18" class="edge">
<title>Node13&#45;&gt;Node1</title>
<path fill="none" stroke="#191970" d="M485.294,-224.7429C445.6455,-215.5719 383.3411,-201.0475 329.5,-188 327.6217,-187.5448 325.6946,-187.0744 323.75,-186.5971"/>
<polygon fill="#191970" stroke="#191970" points="324.5727,-183.1952 314.0248,-184.1907 322.8913,-189.9902 324.5727,-183.1952"/>
</g>
<!-- Node13&#45;&gt;Node3 -->
<g id="edge21" class="edge">
<title>Node13&#45;&gt;Node3</title>
<path fill="none" stroke="#191970" d="M522.8209,-224.3062C518.5143,-210.2925 508.8362,-184.2747 492.5,-168 409.172,-84.9854 273.4332,-38.0771 209.2658,-19.4713"/>
<polygon fill="#191970" stroke="#191970" points="210.1766,-16.0916 199.6008,-16.727 208.2645,-22.8254 210.1766,-16.0916"/>
</g>
<!-- Node13&#45;&gt;Node6 -->
<g id="edge20" class="edge">
<title>Node13&#45;&gt;Node6</title>
<path fill="none" stroke="#191970" d="M565.9487,-229.2098C619.5965,-222.4762 717.3378,-208.8899 809.6698,-187.9465"/>
<polygon fill="#191970" stroke="#191970" points="810.49,-191.3493 819.45,-185.6953 808.9197,-184.5277 810.49,-191.3493"/>
</g>
<!-- Node13&#45;&gt;Node12 -->
<g id="edge19" class="edge">
<title>Node13&#45;&gt;Node12</title>
<path fill="none" stroke="#191970" d="M498.3388,-224.3733C472.2933,-215.1419 432.7884,-201.1402 404.0021,-190.9375"/>
<polygon fill="#191970" stroke="#191970" points="404.9015,-187.5429 394.3067,-187.5011 402.563,-194.1408 404.9015,-187.5429"/>
</g>
<!-- Node14 -->
<g id="node15" class="node">
<title>Node14</title>
<polygon fill="none" stroke="#bfbfbf" points="415.5,-168.5 415.5,-187.5 483.5,-187.5 483.5,-168.5 415.5,-168.5"/>
<text text-anchor="middle" x="449.5" y="-175.5" font-family="Helvetica,sans-Serif" font-size="10.00" fill="#000000">sys/types.h</text>
</g>
<!-- Node13&#45;&gt;Node14 -->
<g id="edge22" class="edge">
<title>Node13&#45;&gt;Node14</title>
<path fill="none" stroke="#191970" d="M512.2618,-224.2455C500.819,-215.814 484.0704,-203.4729 470.7525,-193.6598"/>
<polygon fill="#191970" stroke="#191970" points="472.7133,-190.757 462.5865,-187.6427 468.5609,-196.3924 472.7133,-190.757"/>
</g>
<!-- Node15&#45;&gt;Node1 -->
<g id="edge24" class="edge">
<title>Node15&#45;&gt;Node1</title>
<path fill="none" stroke="#191970" d="M369.802,-280.3639C355.4278,-272.2184 335.8363,-259.4258 322.5,-244 310.6157,-230.2537 301.77,-211.4783 296.2441,-197.467"/>
<polygon fill="#191970" stroke="#191970" points="299.4327,-195.9993 292.6703,-187.8433 292.8706,-198.4362 299.4327,-195.9993"/>
</g>
<!-- Node15&#45;&gt;Node2 -->
<g id="edge26" class="edge">
<title>Node15&#45;&gt;Node2</title>
<path fill="none" stroke="#191970" d="M360.9976,-282.3013C358.1302,-281.5163 355.2573,-280.7372 352.5,-280 303.1281,-266.8003 245.9007,-252.2189 209.7048,-243.0848"/>
<polygon fill="#191970" stroke="#191970" points="210.1806,-239.5953 199.6285,-240.5456 208.4701,-246.3831 210.1806,-239.5953"/>
</g>
<!-- Node15&#45;&gt;Node13 -->
<g id="edge27" class="edge">
<title>Node15&#45;&gt;Node13</title>
<path fill="none" stroke="#191970" d="M412.0511,-280.3733C434.3391,-271.2629 467.9937,-257.5062 492.8637,-247.3404"/>
<polygon fill="#191970" stroke="#191970" points="494.3239,-250.5247 502.2562,-243.5011 491.6753,-244.0451 494.3239,-250.5247"/>
</g>
<!-- Node16 -->
<g id="node17" class="node">
<title>Node16</title>
<polygon fill="none" stroke="#bfbfbf" points="331.5,-224.5 331.5,-243.5 399.5,-243.5 399.5,-224.5 331.5,-224.5"/>
<text text-anchor="middle" x="365.5" y="-231.5" font-family="Helvetica,sans-Serif" font-size="10.00" fill="#000000">stdatomic.h</text>
</g>
<!-- Node15&#45;&gt;Node16 -->
<g id="edge25" class="edge">
<title>Node15&#45;&gt;Node16</title>
<path fill="none" stroke="#191970" d="M384.4937,-280.2455C381.4265,-272.7776 377.0997,-262.2427 373.3503,-253.1137"/>
<polygon fill="#191970" stroke="#191970" points="376.4972,-251.5631 369.4604,-243.6427 370.0221,-254.2226 376.4972,-251.5631"/>
</g>
<!-- Node19 -->
<g id="node20" class="node">
<title>Node19</title>
<g id="a_node20"><a xlink:href="div_8h.html" target="_top" xlink:title="div.h">
<polygon fill="none" stroke="#000000" points="82.5,-224.5 82.5,-243.5 120.5,-243.5 120.5,-224.5 82.5,-224.5"/>
<text text-anchor="middle" x="101.5" y="-231.5" font-family="Helvetica,sans-Serif" font-size="10.00" fill="#000000">div.h</text>
</a>
</g>
</g>
<!-- Node18&#45;&gt;Node19 -->
<g id="edge31" class="edge">
<title>Node18&#45;&gt;Node19</title>
<path fill="none" stroke="#191970" d="M68.4675,-280.2455C74.0311,-272.4564 81.978,-261.3308 88.6829,-251.9439"/>
<polygon fill="#191970" stroke="#191970" points="91.648,-253.8144 94.6124,-243.6427 85.9519,-249.7457 91.648,-253.8144"/>
</g>
<!-- Node19&#45;&gt;Node1 -->
<g id="edge36" class="edge">
<title>Node19&#45;&gt;Node1</title>
<path fill="none" stroke="#191970" d="M120.561,-228.3222C152.077,-218.9345 215.4853,-200.0469 255.0233,-188.2697"/>
<polygon fill="#191970" stroke="#191970" points="256.1844,-191.5759 264.769,-185.3667 254.186,-184.8672 256.1844,-191.5759"/>
</g>
<!-- Node20 -->
<g id="node21" class="node">
<title>Node20</title>
<g id="a_node21"><a xlink:href="assert_8h.html" target="_top" xlink:title="POSIX.1&#45;2008 compliant version of the assert macro. ">
<polygon fill="none" stroke="#000000" points="75.5,-168.5 75.5,-187.5 127.5,-187.5 127.5,-168.5 75.5,-168.5"/>
<text text-anchor="middle" x="101.5" y="-175.5" font-family="Helvetica,sans-Serif" font-size="10.00" fill="#000000">assert.h</text>
</a>
</g>
</g>
<!-- Node19&#45;&gt;Node20 -->
<g id="edge32" class="edge">
<title>Node19&#45;&gt;Node20</title>
<path fill="none" stroke="#191970" d="M101.5,-224.2455C101.5,-216.9382 101.5,-206.6944 101.5,-197.7046"/>
<polygon fill="#191970" stroke="#191970" points="105.0001,-197.6426 101.5,-187.6427 98.0001,-197.6427 105.0001,-197.6426"/>
</g>
<!-- Node21 -->
<g id="node22" class="node">
<title>Node21</title>
<g id="a_node22"><a xlink:href="panic_8h.html" target="_top" xlink:title="Crash handling header. ">
<polygon fill="none" stroke="#000000" points="77.5,-112.5 77.5,-131.5 125.5,-131.5 125.5,-112.5 77.5,-112.5"/>
<text text-anchor="middle" x="101.5" y="-119.5" font-family="Helvetica,sans-Serif" font-size="10.00" fill="#000000">panic.h</text>
</a>
</g>
</g>
<!-- Node20&#45;&gt;Node21 -->
<g id="edge33" class="edge">
<title>Node20&#45;&gt;Node21</title>
<path fill="none" stroke="#191970" d="M101.5,-168.2455C101.5,-160.9382 101.5,-150.6944 101.5,-141.7046"/>
<polygon fill="#191970" stroke="#191970" points="105.0001,-141.6426 101.5,-131.6427 98.0001,-141.6427 105.0001,-141.6426"/>
</g>
<!-- Node22 -->
<g id="node23" class="node">
<title>Node22</title>
<g id="a_node23"><a xlink:href="kernel__defines_8h.html" target="_top" xlink:title="Common macros and compiler attributes/pragmas configuration. ">
<polygon fill="none" stroke="#000000" points="57.5,-56.5 57.5,-75.5 145.5,-75.5 145.5,-56.5 57.5,-56.5"/>
<text text-anchor="middle" x="101.5" y="-63.5" font-family="Helvetica,sans-Serif" font-size="10.00" fill="#000000">kernel_defines.h</text>
</a>
</g>
</g>
<!-- Node21&#45;&gt;Node22 -->
<g id="edge34" class="edge">
<title>Node21&#45;&gt;Node22</title>
<path fill="none" stroke="#191970" d="M101.5,-112.2455C101.5,-104.9382 101.5,-94.6944 101.5,-85.7046"/>
<polygon fill="#191970" stroke="#191970" points="105.0001,-85.6426 101.5,-75.6427 98.0001,-85.6427 105.0001,-85.6426"/>
</g>
<!-- Node22&#45;&gt;Node3 -->
<g id="edge35" class="edge">
<title>Node22&#45;&gt;Node3</title>
<path fill="none" stroke="#191970" d="M114.0414,-56.2455C124.7787,-47.8943 140.4473,-35.7076 153.0047,-25.9408"/>
<polygon fill="#191970" stroke="#191970" points="155.3575,-28.5449 161.1023,-19.6427 151.0599,-23.0194 155.3575,-28.5449"/>
</g>
<!-- Node24 -->
<g id="node25" class="node">
<title>Node24</title>
<g id="a_node25"><a xlink:href="drivers_2include_2periph_2timer_8h.html" target="_top" xlink:title="Low&#45;level timer peripheral driver interface definitions. ">
<polygon fill="none" stroke="#000000" points="711.5,-224.5 711.5,-243.5 787.5,-243.5 787.5,-224.5 711.5,-224.5"/>
<text text-anchor="middle" x="749.5" y="-231.5" font-family="Helvetica,sans-Serif" font-size="10.00" fill="#000000">periph/timer.h</text>
</a>
</g>
</g>
<!-- Node23&#45;&gt;Node24 -->
<g id="edge38" class="edge">
<title>Node23&#45;&gt;Node24</title>
<path fill="none" stroke="#191970" d="M694.1705,-280.2455C704.0661,-271.9746 718.4627,-259.9416 730.0901,-250.2232"/>
<polygon fill="#191970" stroke="#191970" points="732.535,-252.7413 737.9632,-243.6427 728.0458,-247.3703 732.535,-252.7413"/>
</g>
<!-- Node26 -->
<g id="node27" class="node">
<title>Node26</title>
<g id="a_node27"><a xlink:href="irq_8h.html" target="_top" xlink:title="IRQ driver interface. ">
<polygon fill="none" stroke="#000000" points="629,-224.5 629,-243.5 664,-243.5 664,-224.5 629,-224.5"/>
<text text-anchor="middle" x="646.5" y="-231.5" font-family="Helvetica,sans-Serif" font-size="10.00" fill="#000000">irq.h</text>
</a>
</g>
</g>
<!-- Node23&#45;&gt;Node26 -->
<g id="edge44" class="edge">
<title>Node23&#45;&gt;Node26</title>
<path fill="none" stroke="#191970" d="M676.2293,-280.2455C671.2736,-272.5367 664.217,-261.5598 658.2224,-252.2348"/>
<polygon fill="#191970" stroke="#191970" points="661.0506,-250.1618 652.6989,-243.6427 655.1624,-253.9471 661.0506,-250.1618"/>
</g>
<!-- Node24&#45;&gt;Node1 -->
<g id="edge40" class="edge">
<title>Node24&#45;&gt;Node1</title>
<path fill="none" stroke="#191970" d="M711.2514,-228.7657C699.182,-227.1681 685.7912,-225.4515 673.5,-224 520.837,-205.9714 480.8859,-214.7078 329.5,-188 327.8038,-187.7007 326.073,-187.3694 324.3292,-187.0146"/>
<polygon fill="#191970" stroke="#191970" points="324.871,-183.5495 314.3487,-184.7872 323.3462,-190.3814 324.871,-183.5495"/>
</g>
<!-- Node24&#45;&gt;Node6 -->
<g id="edge39" class="edge">
<title>Node24&#45;&gt;Node6</title>
<path fill="none" stroke="#191970" d="M765.8736,-224.2455C780.4308,-215.5731 801.931,-202.7645 818.6152,-192.825"/>
<polygon fill="#191970" stroke="#191970" points="820.5144,-195.7676 827.3141,-187.6427 816.9317,-189.7539 820.5144,-195.7676"/>
</g>
<!-- Node24&#45;&gt;Node7 -->
<g id="edge41" class="edge">
<title>Node24&#45;&gt;Node7</title>
<path fill="none" stroke="#191970" d="M779.0679,-224.3733C807.6688,-215.0613 851.1788,-200.8953 882.5819,-190.671"/>
<polygon fill="#191970" stroke="#191970" points="883.8928,-193.9251 892.318,-187.5011 881.7257,-187.269 883.8928,-193.9251"/>
</g>
<!-- Node25 -->
<g id="node26" class="node">
<title>Node25</title>
<g id="a_node26"><a xlink:href="dev__enums_8h.html" target="_top" xlink:title="Device enumerations for backward compatibility with existing peripheral driver implementations. ">
<polygon fill="none" stroke="#000000" points="697.5,-168.5 697.5,-187.5 801.5,-187.5 801.5,-168.5 697.5,-168.5"/>
<text text-anchor="middle" x="749.5" y="-175.5" font-family="Helvetica,sans-Serif" font-size="10.00" fill="#000000">periph/dev_enums.h</text>
</a>
</g>
</g>
<!-- Node24&#45;&gt;Node25 -->
<g id="edge42" class="edge">
<title>Node24&#45;&gt;Node25</title>
<path fill="none" stroke="#191970" d="M749.5,-224.2455C749.5,-216.9382 749.5,-206.6944 749.5,-197.7046"/>
<polygon fill="#191970" stroke="#191970" points="753.0001,-197.6426 749.5,-187.6427 746.0001,-197.6427 753.0001,-197.6426"/>
</g>
<!-- Node25&#45;&gt;Node8 -->
<g id="edge43" class="edge">
<title>Node25&#45;&gt;Node8</title>
<path fill="none" stroke="#191970" d="M789.8017,-168.4369C830.8392,-158.6992 894.4466,-143.6059 937.9303,-133.2877"/>
<polygon fill="#191970" stroke="#191970" points="938.7835,-136.6825 947.7052,-130.9682 937.1673,-129.8717 938.7835,-136.6825"/>
</g>
<!-- Node26&#45;&gt;Node10 -->
<g id="edge45" class="edge">
<title>Node26&#45;&gt;Node10</title>
<path fill="none" stroke="#191970" d="M632.7393,-224.2455C620.8448,-215.814 603.435,-203.4729 589.5915,-193.6598"/>
<polygon fill="#191970" stroke="#191970" points="591.2854,-190.5704 581.1031,-187.6427 587.2372,-196.2811 591.2854,-190.5704"/>
</g>
<!-- Node27 -->
<g id="node28" class="node">
<title>Node27</title>
<polygon fill="none" stroke="#bfbfbf" points="614,-168.5 614,-187.5 679,-187.5 679,-168.5 614,-168.5"/>
<text text-anchor="middle" x="646.5" y="-175.5" font-family="Helvetica,sans-Serif" font-size="10.00" fill="#000000">cpu_conf.h</text>
</g>
<!-- Node26&#45;&gt;Node27 -->
<g id="edge46" class="edge">
<title>Node26&#45;&gt;Node27</title>
<path fill="none" stroke="#191970" d="M646.5,-224.2455C646.5,-216.9382 646.5,-206.6944 646.5,-197.7046"/>
<polygon fill="#191970" stroke="#191970" points="650.0001,-197.6426 646.5,-187.6427 643.0001,-197.6427 650.0001,-197.6426"/>
</g>
</g>
</svg>
