<?xml version="1.0" encoding="UTF-8" standalone="no"?>
<!DOCTYPE svg PUBLIC "-//W3C//DTD SVG 1.1//EN"
 "http://www.w3.org/Graphics/SVG/1.1/DTD/svg11.dtd">
<!-- Generated by graphviz version 2.43.0 (0)
 -->
<!-- Title: drivers/include/ltc4150.h Pages: 1 -->
<svg width="1103pt" height="532pt"
 viewBox="0.00 0.00 1103.00 532.00" xmlns="http://www.w3.org/2000/svg" xmlns:xlink="http://www.w3.org/1999/xlink">
<g id="graph0" class="graph" transform="scale(1 1) rotate(0) translate(4 528)">
<title>drivers/include/ltc4150.h</title>
<!-- Node1 -->
<g id="node1" class="node">
<title>Node1</title>
<g id="a_node1"><a xlink:title="LTC4150 coulomb counter.">
<polygon fill="#bfbfbf" stroke="black" points="753.5,-504.5 753.5,-523.5 890.5,-523.5 890.5,-504.5 753.5,-504.5"/>
<text text-anchor="middle" x="822" y="-511.5" font-family="Helvetica,sans-Serif" font-size="10.00">drivers/include/ltc4150.h</text>
</a>
</g>
</g>
<!-- Node2 -->
<g id="node2" class="node">
<title>Node2</title>
<g id="a_node2"><a xlink:title=" ">
<polygon fill="none" stroke="#bfbfbf" points="601.5,-0.5 601.5,-19.5 654.5,-19.5 654.5,-0.5 601.5,-0.5"/>
<text text-anchor="middle" x="628" y="-7.5" font-family="Helvetica,sans-Serif" font-size="10.00">stdint.h</text>
</a>
</g>
</g>
<!-- Node1&#45;&gt;Node2 -->
<g id="edge1" class="edge">
<title>Node1&#45;&gt;Node2</title>
<path fill="none" stroke="midnightblue" d="M867.39,-504.45C945.02,-488.53 1095,-451.48 1095,-403 1095,-403 1095,-403 1095,-121 1095,-32.83 775.64,-15.26 665.11,-11.82"/>
<polygon fill="midnightblue" stroke="midnightblue" points="664.88,-8.31 654.79,-11.52 664.68,-15.31 664.88,-8.31"/>
</g>
<!-- Node3 -->
<g id="node3" class="node">
<title>Node3</title>
<g id="a_node3"><a xlink:href="mutex_8h.html" target="_top" xlink:title="Mutex for thread synchronization.">
<polygon fill="none" stroke="black" points="83.5,-336.5 83.5,-355.5 140.5,-355.5 140.5,-336.5 83.5,-336.5"/>
<text text-anchor="middle" x="112" y="-343.5" font-family="Helvetica,sans-Serif" font-size="10.00">mutex.h</text>
</a>
</g>
</g>
<!-- Node1&#45;&gt;Node3 -->
<g id="edge2" class="edge">
<title>Node1&#45;&gt;Node3</title>
<path fill="none" stroke="midnightblue" d="M753.35,-507.65C608.58,-495.5 277.09,-462.89 177,-412 154.88,-400.75 135.65,-379.19 123.96,-363.99"/>
<polygon fill="midnightblue" stroke="midnightblue" points="126.74,-361.87 117.99,-355.9 121.12,-366.03 126.74,-361.87"/>
</g>
<!-- Node19 -->
<g id="node19" class="node">
<title>Node19</title>
<g id="a_node19"><a xlink:href="gpio_8h.html" target="_top" xlink:title="Low&#45;level GPIO peripheral driver interface definitions.">
<polygon fill="none" stroke="black" points="896,-336.5 896,-355.5 976,-355.5 976,-336.5 896,-336.5"/>
<text text-anchor="middle" x="936" y="-343.5" font-family="Helvetica,sans-Serif" font-size="10.00">periph/gpio.h</text>
</a>
</g>
</g>
<!-- Node1&#45;&gt;Node19 -->
<g id="edge31" class="edge">
<title>Node1&#45;&gt;Node19</title>
<path fill="none" stroke="midnightblue" d="M832.33,-504.32C851.11,-488.04 891,-451.03 914,-412 922.51,-397.57 928.31,-379.38 931.81,-365.91"/>
<polygon fill="midnightblue" stroke="midnightblue" points="935.28,-366.44 934.21,-355.9 928.47,-364.8 935.28,-366.44"/>
</g>
<!-- Node23 -->
<g id="node23" class="node">
<title>Node23</title>
<g id="a_node23"><a xlink:href="xtimer_8h.html" target="_top" xlink:title="xtimer interface definitions">
<polygon fill="none" stroke="black" points="573,-448.5 573,-467.5 631,-467.5 631,-448.5 573,-448.5"/>
<text text-anchor="middle" x="602" y="-455.5" font-family="Helvetica,sans-Serif" font-size="10.00">xtimer.h</text>
</a>
</g>
</g>
<!-- Node1&#45;&gt;Node23 -->
<g id="edge35" class="edge">
<title>Node1&#45;&gt;Node23</title>
<path fill="none" stroke="midnightblue" d="M787.14,-504.44C747.29,-494.66 682.25,-478.7 640.82,-468.53"/>
<polygon fill="midnightblue" stroke="midnightblue" points="641.62,-465.12 631.08,-466.14 639.95,-471.92 641.62,-465.12"/>
</g>
<!-- Node3&#45;&gt;Node2 -->
<g id="edge4" class="edge">
<title>Node3&#45;&gt;Node2</title>
<path fill="none" stroke="midnightblue" d="M140.69,-338.07C219.05,-318.93 432.49,-265.39 457,-244 484.88,-219.67 472.14,-199.83 491,-168 522.86,-114.24 533.25,-101.58 576,-56 586.08,-45.25 598.53,-34.4 608.72,-26.06"/>
<polygon fill="midnightblue" stroke="midnightblue" points="611.04,-28.68 616.65,-19.69 606.66,-23.22 611.04,-28.68"/>
</g>
<!-- Node4 -->
<g id="node4" class="node">
<title>Node4</title>
<g id="a_node4"><a xlink:title=" ">
<polygon fill="none" stroke="#bfbfbf" points="131,-0.5 131,-19.5 187,-19.5 187,-0.5 131,-0.5"/>
<text text-anchor="middle" x="159" y="-7.5" font-family="Helvetica,sans-Serif" font-size="10.00">stddef.h</text>
</a>
</g>
</g>
<!-- Node3&#45;&gt;Node4 -->
<g id="edge3" class="edge">
<title>Node3&#45;&gt;Node4</title>
<path fill="none" stroke="midnightblue" d="M91.98,-336.44C59.76,-321.17 0,-285.97 0,-235 0,-235 0,-235 0,-121 0,-62.37 74.03,-32.53 121.06,-19.5"/>
<polygon fill="midnightblue" stroke="midnightblue" points="122.16,-22.83 130.94,-16.89 120.38,-16.06 122.16,-22.83"/>
</g>
<!-- Node5 -->
<g id="node5" class="node">
<title>Node5</title>
<g id="a_node5"><a xlink:href="irq_8h.html" target="_top" xlink:title="IRQ driver interface.">
<polygon fill="none" stroke="black" points="486,-280.5 486,-299.5 524,-299.5 524,-280.5 486,-280.5"/>
<text text-anchor="middle" x="505" y="-287.5" font-family="Helvetica,sans-Serif" font-size="10.00">irq.h</text>
</a>
</g>
</g>
<!-- Node3&#45;&gt;Node5 -->
<g id="edge5" class="edge">
<title>Node3&#45;&gt;Node5</title>
<path fill="none" stroke="midnightblue" d="M140.56,-337.84C143.73,-337.17 146.93,-336.53 150,-336 291.88,-311.36 330.56,-327.03 472,-300 473.28,-299.76 474.58,-299.49 475.89,-299.2"/>
<polygon fill="midnightblue" stroke="midnightblue" points="477.04,-302.52 485.92,-296.74 475.38,-295.72 477.04,-302.52"/>
</g>
<!-- Node8 -->
<g id="node8" class="node">
<title>Node8</title>
<g id="a_node8"><a xlink:href="kernel__defines_8h.html" target="_top" xlink:title="Common macros and compiler attributes/pragmas configuration.">
<polygon fill="none" stroke="black" points="275.5,-56.5 275.5,-75.5 372.5,-75.5 372.5,-56.5 275.5,-56.5"/>
<text text-anchor="middle" x="324" y="-63.5" font-family="Helvetica,sans-Serif" font-size="10.00">kernel_defines.h</text>
</a>
</g>
</g>
<!-- Node3&#45;&gt;Node8 -->
<g id="edge8" class="edge">
<title>Node3&#45;&gt;Node8</title>
<path fill="none" stroke="midnightblue" d="M112.58,-336.43C115.3,-302.83 129.71,-178.67 197,-112 215.4,-93.77 241.65,-82.89 265.51,-76.41"/>
<polygon fill="midnightblue" stroke="midnightblue" points="266.36,-79.81 275.21,-73.98 264.66,-73.02 266.36,-79.81"/>
</g>
<!-- Node9 -->
<g id="node9" class="node">
<title>Node9</title>
<g id="a_node9"><a xlink:href="list_8h.html" target="_top" xlink:title="Intrusive linked list.">
<polygon fill="none" stroke="black" points="48.5,-56.5 48.5,-75.5 89.5,-75.5 89.5,-56.5 48.5,-56.5"/>
<text text-anchor="middle" x="69" y="-63.5" font-family="Helvetica,sans-Serif" font-size="10.00">list.h</text>
</a>
</g>
</g>
<!-- Node3&#45;&gt;Node9 -->
<g id="edge11" class="edge">
<title>Node3&#45;&gt;Node9</title>
<path fill="none" stroke="midnightblue" d="M106.12,-336.3C95.06,-319.4 71.42,-280.57 62,-244 47.35,-187.15 49.37,-170.21 57,-112 58.16,-103.18 60.53,-93.63 62.87,-85.61"/>
<polygon fill="midnightblue" stroke="midnightblue" points="66.29,-86.42 65.91,-75.83 59.6,-84.34 66.29,-86.42"/>
</g>
<!-- Node10 -->
<g id="node10" class="node">
<title>Node10</title>
<g id="a_node10"><a xlink:href="core_2include_2thread_8h.html" target="_top" xlink:title="Threading API.">
<polygon fill="none" stroke="black" points="165.5,-280.5 165.5,-299.5 222.5,-299.5 222.5,-280.5 165.5,-280.5"/>
<text text-anchor="middle" x="194" y="-287.5" font-family="Helvetica,sans-Serif" font-size="10.00">thread.h</text>
</a>
</g>
</g>
<!-- Node3&#45;&gt;Node10 -->
<g id="edge12" class="edge">
<title>Node3&#45;&gt;Node10</title>
<path fill="none" stroke="midnightblue" d="M125.17,-336.32C137.85,-327.98 157.23,-315.21 172.21,-305.35"/>
<polygon fill="midnightblue" stroke="midnightblue" points="174.43,-308.08 180.86,-299.65 170.58,-302.23 174.43,-308.08"/>
</g>
<!-- Node6 -->
<g id="node6" class="node">
<title>Node6</title>
<g id="a_node6"><a xlink:title=" ">
<polygon fill="none" stroke="#bfbfbf" points="500,-168.5 500,-187.5 562,-187.5 562,-168.5 500,-168.5"/>
<text text-anchor="middle" x="531" y="-175.5" font-family="Helvetica,sans-Serif" font-size="10.00">stdbool.h</text>
</a>
</g>
</g>
<!-- Node5&#45;&gt;Node6 -->
<g id="edge6" class="edge">
<title>Node5&#45;&gt;Node6</title>
<path fill="none" stroke="midnightblue" d="M507.04,-280.37C511.24,-262.62 520.92,-221.67 526.6,-197.6"/>
<polygon fill="midnightblue" stroke="midnightblue" points="530.08,-198.13 528.97,-187.59 523.26,-196.52 530.08,-198.13"/>
</g>
<!-- Node7 -->
<g id="node7" class="node">
<title>Node7</title>
<g id="a_node7"><a xlink:title=" ">
<polygon fill="none" stroke="#bfbfbf" points="380,-224.5 380,-243.5 448,-243.5 448,-224.5 380,-224.5"/>
<text text-anchor="middle" x="414" y="-231.5" font-family="Helvetica,sans-Serif" font-size="10.00">cpu_conf.h</text>
</a>
</g>
</g>
<!-- Node5&#45;&gt;Node7 -->
<g id="edge7" class="edge">
<title>Node5&#45;&gt;Node7</title>
<path fill="none" stroke="midnightblue" d="M490.38,-280.32C476.05,-271.82 453.99,-258.73 437.25,-248.8"/>
<polygon fill="midnightblue" stroke="midnightblue" points="438.97,-245.75 428.58,-243.65 435.4,-251.77 438.97,-245.75"/>
</g>
<!-- Node8&#45;&gt;Node2 -->
<g id="edge10" class="edge">
<title>Node8&#45;&gt;Node2</title>
<path fill="none" stroke="midnightblue" d="M372.17,-56.44C433.04,-45.63 536.46,-27.26 591.31,-17.52"/>
<polygon fill="midnightblue" stroke="midnightblue" points="592.05,-20.94 601.29,-15.75 590.83,-14.05 592.05,-20.94"/>
</g>
<!-- Node8&#45;&gt;Node4 -->
<g id="edge9" class="edge">
<title>Node8&#45;&gt;Node4</title>
<path fill="none" stroke="midnightblue" d="M297.86,-56.44C269.98,-47.32 225.65,-32.81 194.6,-22.65"/>
<polygon fill="midnightblue" stroke="midnightblue" points="195.62,-19.3 185.02,-19.52 193.44,-25.95 195.62,-19.3"/>
</g>
<!-- Node10&#45;&gt;Node7 -->
<g id="edge29" class="edge">
<title>Node10&#45;&gt;Node7</title>
<path fill="none" stroke="midnightblue" d="M222.76,-281.94C260.26,-272.74 326.2,-256.55 370,-245.8"/>
<polygon fill="midnightblue" stroke="midnightblue" points="370.93,-249.18 379.81,-243.39 369.26,-242.38 370.93,-249.18"/>
</g>
<!-- Node11 -->
<g id="node11" class="node">
<title>Node11</title>
<g id="a_node11"><a xlink:href="clist_8h.html" target="_top" xlink:title="Circular linked list.">
<polygon fill="none" stroke="black" points="66,-112.5 66,-131.5 112,-131.5 112,-112.5 66,-112.5"/>
<text text-anchor="middle" x="89" y="-119.5" font-family="Helvetica,sans-Serif" font-size="10.00">clist.h</text>
</a>
</g>
</g>
<!-- Node10&#45;&gt;Node11 -->
<g id="edge13" class="edge">
<title>Node10&#45;&gt;Node11</title>
<path fill="none" stroke="midnightblue" d="M188.35,-280.08C171.61,-253.61 122.02,-175.21 99.89,-140.21"/>
<polygon fill="midnightblue" stroke="midnightblue" points="102.72,-138.15 94.42,-131.57 96.81,-141.89 102.72,-138.15"/>
</g>
<!-- Node12 -->
<g id="node12" class="node">
<title>Node12</title>
<g id="a_node12"><a xlink:href="cib_8h.html" target="_top" xlink:title="Circular integer buffer interface.">
<polygon fill="none" stroke="black" points="256,-224.5 256,-243.5 296,-243.5 296,-224.5 256,-224.5"/>
<text text-anchor="middle" x="276" y="-231.5" font-family="Helvetica,sans-Serif" font-size="10.00">cib.h</text>
</a>
</g>
</g>
<!-- Node10&#45;&gt;Node12 -->
<g id="edge16" class="edge">
<title>Node10&#45;&gt;Node12</title>
<path fill="none" stroke="midnightblue" d="M207.17,-280.32C219.85,-271.98 239.23,-259.21 254.21,-249.35"/>
<polygon fill="midnightblue" stroke="midnightblue" points="256.43,-252.08 262.86,-243.65 252.58,-246.23 256.43,-252.08"/>
</g>
<!-- Node15 -->
<g id="node15" class="node">
<title>Node15</title>
<g id="a_node15"><a xlink:href="msg_8h.html" target="_top" xlink:title="Messaging API for inter process communication.">
<polygon fill="none" stroke="black" points="314.5,-224.5 314.5,-243.5 361.5,-243.5 361.5,-224.5 314.5,-224.5"/>
<text text-anchor="middle" x="338" y="-231.5" font-family="Helvetica,sans-Serif" font-size="10.00">msg.h</text>
</a>
</g>
</g>
<!-- Node10&#45;&gt;Node15 -->
<g id="edge20" class="edge">
<title>Node10&#45;&gt;Node15</title>
<path fill="none" stroke="midnightblue" d="M216.82,-280.44C240.83,-271.44 278.83,-257.19 305.87,-247.05"/>
<polygon fill="midnightblue" stroke="midnightblue" points="307.16,-250.3 315.29,-243.52 304.7,-243.75 307.16,-250.3"/>
</g>
<!-- Node16 -->
<g id="node16" class="node">
<title>Node16</title>
<g id="a_node16"><a xlink:href="sched_8h.html" target="_top" xlink:title="Scheduler API definition.">
<polygon fill="none" stroke="black" points="201,-168.5 201,-187.5 255,-187.5 255,-168.5 201,-168.5"/>
<text text-anchor="middle" x="228" y="-175.5" font-family="Helvetica,sans-Serif" font-size="10.00">sched.h</text>
</a>
</g>
</g>
<!-- Node10&#45;&gt;Node16 -->
<g id="edge30" class="edge">
<title>Node10&#45;&gt;Node16</title>
<path fill="none" stroke="midnightblue" d="M196.71,-280.17C200.55,-267.66 207.79,-244.08 214,-224 216.72,-215.2 219.76,-205.43 222.31,-197.25"/>
<polygon fill="midnightblue" stroke="midnightblue" points="225.67,-198.21 225.31,-187.62 218.99,-196.13 225.67,-198.21"/>
</g>
<!-- Node11&#45;&gt;Node4 -->
<g id="edge14" class="edge">
<title>Node11&#45;&gt;Node4</title>
<path fill="none" stroke="midnightblue" d="M94.49,-112.37C105.99,-94.3 132.8,-52.18 147.99,-28.31"/>
<polygon fill="midnightblue" stroke="midnightblue" points="151.12,-29.91 153.53,-19.59 145.21,-26.15 151.12,-29.91"/>
</g>
<!-- Node11&#45;&gt;Node9 -->
<g id="edge15" class="edge">
<title>Node11&#45;&gt;Node9</title>
<path fill="none" stroke="midnightblue" d="M85.7,-112.08C83.02,-104.85 79.15,-94.41 75.81,-85.4"/>
<polygon fill="midnightblue" stroke="midnightblue" points="79,-83.91 72.24,-75.75 72.43,-86.34 79,-83.91"/>
</g>
<!-- Node13 -->
<g id="node13" class="node">
<title>Node13</title>
<g id="a_node13"><a xlink:href="assert_8h.html" target="_top" xlink:title="POSIX.1&#45;2008 compliant version of the assert macro.">
<polygon fill="none" stroke="black" points="350,-168.5 350,-187.5 406,-187.5 406,-168.5 350,-168.5"/>
<text text-anchor="middle" x="378" y="-175.5" font-family="Helvetica,sans-Serif" font-size="10.00">assert.h</text>
</a>
</g>
</g>
<!-- Node12&#45;&gt;Node13 -->
<g id="edge17" class="edge">
<title>Node12&#45;&gt;Node13</title>
<path fill="none" stroke="midnightblue" d="M292.39,-224.32C308.67,-215.7 333.87,-202.36 352.72,-192.39"/>
<polygon fill="midnightblue" stroke="midnightblue" points="354.45,-195.43 361.65,-187.65 351.18,-189.24 354.45,-195.43"/>
</g>
<!-- Node14 -->
<g id="node14" class="node">
<title>Node14</title>
<g id="a_node14"><a xlink:href="panic_8h.html" target="_top" xlink:title="Crash handling header.">
<polygon fill="none" stroke="black" points="352,-112.5 352,-131.5 404,-131.5 404,-112.5 352,-112.5"/>
<text text-anchor="middle" x="378" y="-119.5" font-family="Helvetica,sans-Serif" font-size="10.00">panic.h</text>
</a>
</g>
</g>
<!-- Node13&#45;&gt;Node14 -->
<g id="edge18" class="edge">
<title>Node13&#45;&gt;Node14</title>
<path fill="none" stroke="midnightblue" d="M378,-168.08C378,-161.01 378,-150.86 378,-141.99"/>
<polygon fill="midnightblue" stroke="midnightblue" points="381.5,-141.75 378,-131.75 374.5,-141.75 381.5,-141.75"/>
</g>
<!-- Node14&#45;&gt;Node8 -->
<g id="edge19" class="edge">
<title>Node14&#45;&gt;Node8</title>
<path fill="none" stroke="midnightblue" d="M369.08,-112.08C361.22,-104.22 349.57,-92.57 340.08,-83.08"/>
<polygon fill="midnightblue" stroke="midnightblue" points="342.3,-80.35 332.75,-75.75 337.35,-85.3 342.3,-80.35"/>
</g>
<!-- Node15&#45;&gt;Node2 -->
<g id="edge21" class="edge">
<title>Node15&#45;&gt;Node2</title>
<path fill="none" stroke="midnightblue" d="M361.64,-224.51C378.71,-217.26 401.1,-205.24 415,-188 453.72,-139.96 413.16,-98.39 458,-56 494.1,-21.88 552.98,-12.95 591.1,-10.98"/>
<polygon fill="midnightblue" stroke="midnightblue" points="591.41,-14.47 601.27,-10.59 591.14,-7.47 591.41,-14.47"/>
</g>
<!-- Node15&#45;&gt;Node6 -->
<g id="edge22" class="edge">
<title>Node15&#45;&gt;Node6</title>
<path fill="none" stroke="midnightblue" d="M361.67,-226.38C393.73,-217.41 451.44,-201.26 490.47,-190.34"/>
<polygon fill="midnightblue" stroke="midnightblue" points="491.77,-193.61 500.46,-187.55 489.89,-186.87 491.77,-193.61"/>
</g>
<!-- Node15&#45;&gt;Node16 -->
<g id="edge23" class="edge">
<title>Node15&#45;&gt;Node16</title>
<path fill="none" stroke="midnightblue" d="M320.33,-224.32C302.61,-215.62 275.1,-202.12 254.71,-192.11"/>
<polygon fill="midnightblue" stroke="midnightblue" points="256.15,-188.92 245.63,-187.65 253.06,-195.2 256.15,-188.92"/>
</g>
<!-- Node16&#45;&gt;Node4 -->
<g id="edge24" class="edge">
<title>Node16&#45;&gt;Node4</title>
<path fill="none" stroke="midnightblue" d="M220.74,-168.19C213.84,-159.46 203.57,-145.47 197,-132 180.17,-97.49 168.64,-53.85 162.99,-29.53"/>
<polygon fill="midnightblue" stroke="midnightblue" points="166.36,-28.54 160.76,-19.54 159.53,-30.07 166.36,-28.54"/>
</g>
<!-- Node16&#45;&gt;Node8 -->
<g id="edge26" class="edge">
<title>Node16&#45;&gt;Node8</title>
<path fill="none" stroke="midnightblue" d="M252.16,-168.48C269.25,-161.28 291.46,-149.33 305,-132 315.39,-118.69 320.11,-99.86 322.24,-85.89"/>
<polygon fill="midnightblue" stroke="midnightblue" points="325.72,-86.28 323.46,-75.93 318.77,-85.43 325.72,-86.28"/>
</g>
<!-- Node16&#45;&gt;Node11 -->
<g id="edge28" class="edge">
<title>Node16&#45;&gt;Node11</title>
<path fill="none" stroke="midnightblue" d="M205.98,-168.44C182.9,-159.48 146.44,-145.31 120.36,-135.18"/>
<polygon fill="midnightblue" stroke="midnightblue" points="121.51,-131.88 110.92,-131.52 118.98,-138.4 121.51,-131.88"/>
</g>
<!-- Node17 -->
<g id="node17" class="node">
<title>Node17</title>
<g id="a_node17"><a xlink:href="inttypes_8h.html" target="_top" xlink:title="Adds include for missing inttype definitions.">
<polygon fill="none" stroke="black" points="656.5,-112.5 656.5,-131.5 721.5,-131.5 721.5,-112.5 656.5,-112.5"/>
<text text-anchor="middle" x="689" y="-119.5" font-family="Helvetica,sans-Serif" font-size="10.00">inttypes.h</text>
</a>
</g>
</g>
<!-- Node16&#45;&gt;Node17 -->
<g id="edge25" class="edge">
<title>Node16&#45;&gt;Node17</title>
<path fill="none" stroke="midnightblue" d="M255.12,-173.82C332.23,-164.79 553.19,-138.91 646.55,-127.97"/>
<polygon fill="midnightblue" stroke="midnightblue" points="646.97,-131.45 656.49,-126.81 646.15,-124.49 646.97,-131.45"/>
</g>
<!-- Node18 -->
<g id="node18" class="node">
<title>Node18</title>
<g id="a_node18"><a xlink:href="native__sched_8h.html" target="_top" xlink:title="Add definitions required on the native board.">
<polygon fill="none" stroke="black" points="206,-112.5 206,-131.5 296,-131.5 296,-112.5 206,-112.5"/>
<text text-anchor="middle" x="251" y="-119.5" font-family="Helvetica,sans-Serif" font-size="10.00">native_sched.h</text>
</a>
</g>
</g>
<!-- Node16&#45;&gt;Node18 -->
<g id="edge27" class="edge">
<title>Node16&#45;&gt;Node18</title>
<path fill="none" stroke="midnightblue" d="M231.8,-168.08C234.91,-160.77 239.42,-150.18 243.29,-141.1"/>
<polygon fill="midnightblue" stroke="midnightblue" points="246.57,-142.32 247.27,-131.75 240.13,-139.58 246.57,-142.32"/>
</g>
<!-- Node20 -->
<g id="node20" class="node">
<title>Node20</title>
<g id="a_node20"><a xlink:title=" ">
<polygon fill="none" stroke="#bfbfbf" points="816.5,-280.5 816.5,-299.5 869.5,-299.5 869.5,-280.5 816.5,-280.5"/>
<text text-anchor="middle" x="843" y="-287.5" font-family="Helvetica,sans-Serif" font-size="10.00">limits.h</text>
</a>
</g>
</g>
<!-- Node19&#45;&gt;Node20 -->
<g id="edge32" class="edge">
<title>Node19&#45;&gt;Node20</title>
<path fill="none" stroke="midnightblue" d="M921.06,-336.32C906.41,-327.82 883.87,-314.73 866.76,-304.8"/>
<polygon fill="midnightblue" stroke="midnightblue" points="868.31,-301.65 857.9,-299.65 864.8,-307.7 868.31,-301.65"/>
</g>
<!-- Node21 -->
<g id="node21" class="node">
<title>Node21</title>
<g id="a_node21"><a xlink:title=" ">
<polygon fill="none" stroke="#bfbfbf" points="887.5,-280.5 887.5,-299.5 966.5,-299.5 966.5,-280.5 887.5,-280.5"/>
<text text-anchor="middle" x="927" y="-287.5" font-family="Helvetica,sans-Serif" font-size="10.00">periph_cpu.h</text>
</a>
</g>
</g>
<!-- Node19&#45;&gt;Node21 -->
<g id="edge33" class="edge">
<title>Node19&#45;&gt;Node21</title>
<path fill="none" stroke="midnightblue" d="M934.51,-336.08C933.32,-328.93 931.61,-318.64 930.12,-309.69"/>
<polygon fill="midnightblue" stroke="midnightblue" points="933.55,-309.04 928.46,-299.75 926.65,-310.19 933.55,-309.04"/>
</g>
<!-- Node22 -->
<g id="node22" class="node">
<title>Node22</title>
<g id="a_node22"><a xlink:title=" ">
<polygon fill="none" stroke="#bfbfbf" points="985,-280.5 985,-299.5 1067,-299.5 1067,-280.5 985,-280.5"/>
<text text-anchor="middle" x="1026" y="-287.5" font-family="Helvetica,sans-Serif" font-size="10.00">periph_conf.h</text>
</a>
</g>
</g>
<!-- Node19&#45;&gt;Node22 -->
<g id="edge34" class="edge">
<title>Node19&#45;&gt;Node22</title>
<path fill="none" stroke="midnightblue" d="M950.46,-336.32C964.5,-327.9 986.05,-314.97 1002.54,-305.07"/>
<polygon fill="midnightblue" stroke="midnightblue" points="1004.8,-307.8 1011.58,-299.65 1001.2,-301.8 1004.8,-307.8"/>
</g>
<!-- Node23&#45;&gt;Node2 -->
<g id="edge37" class="edge">
<title>Node23&#45;&gt;Node2</title>
<path fill="none" stroke="midnightblue" d="M626.83,-448.41C644.1,-441.22 666.38,-429.33 680,-412 698.59,-388.33 699,-377.1 699,-347 699,-347 699,-347 699,-289 699,-269.53 649.36,-137.32 648,-132 638.93,-96.36 632.99,-53.73 630.09,-29.76"/>
<polygon fill="midnightblue" stroke="midnightblue" points="633.54,-29.14 628.91,-19.61 626.59,-29.95 633.54,-29.14"/>
</g>
<!-- Node23&#45;&gt;Node3 -->
<g id="edge41" class="edge">
<title>Node23&#45;&gt;Node3</title>
<path fill="none" stroke="midnightblue" d="M572.99,-457.59C508.2,-458.05 347.56,-454.42 222,-412 187.61,-400.38 152.25,-377.06 131.2,-361.74"/>
<polygon fill="midnightblue" stroke="midnightblue" points="133.22,-358.88 123.1,-355.73 129.04,-364.5 133.22,-358.88"/>
</g>
<!-- Node23&#45;&gt;Node6 -->
<g id="edge36" class="edge">
<title>Node23&#45;&gt;Node6</title>
<path fill="none" stroke="midnightblue" d="M573.63,-448.49C556.25,-441.65 535.4,-430.13 525,-412 520.58,-404.29 524.61,-400.88 525,-392 526.78,-351 531.22,-341 533,-300 533.39,-291.12 533.08,-288.89 533,-280 532.78,-255.11 532.5,-248.89 532,-224 531.83,-215.4 531.62,-205.87 531.44,-197.8"/>
<polygon fill="midnightblue" stroke="midnightblue" points="534.93,-197.54 531.2,-187.63 527.93,-197.7 534.93,-197.54"/>
</g>
<!-- Node23&#45;&gt;Node16 -->
<g id="edge42" class="edge">
<title>Node23&#45;&gt;Node16</title>
<path fill="none" stroke="midnightblue" d="M572.93,-456.75C469.94,-455.12 125.81,-443.14 74,-356 33.15,-287.3 145.4,-219.93 200.05,-192.21"/>
<polygon fill="midnightblue" stroke="midnightblue" points="201.82,-195.24 209.22,-187.65 198.71,-188.97 201.82,-195.24"/>
</g>
<!-- Node23&#45;&gt;Node22 -->
<g id="edge49" class="edge">
<title>Node23&#45;&gt;Node22</title>
<path fill="none" stroke="midnightblue" d="M631.31,-457.73C688.23,-458.11 816.69,-453.78 914,-412 950.93,-396.14 958.11,-385.87 985,-356 998.07,-341.48 1009.61,-322.3 1017.08,-308.54"/>
<polygon fill="midnightblue" stroke="midnightblue" points="1020.21,-310.11 1021.78,-299.63 1014.02,-306.85 1020.21,-310.11"/>
</g>
<!-- Node24 -->
<g id="node24" class="node">
<title>Node24</title>
<g id="a_node24"><a xlink:href="timex_8h.html" target="_top" xlink:title="Utility library for comparing and computing timestamps.">
<polygon fill="none" stroke="black" points="706,-168.5 706,-187.5 760,-187.5 760,-168.5 706,-168.5"/>
<text text-anchor="middle" x="733" y="-175.5" font-family="Helvetica,sans-Serif" font-size="10.00">timex.h</text>
</a>
</g>
</g>
<!-- Node23&#45;&gt;Node24 -->
<g id="edge38" class="edge">
<title>Node23&#45;&gt;Node24</title>
<path fill="none" stroke="midnightblue" d="M631.18,-451.99C656,-446.31 691,-434.7 713,-412 734.43,-389.88 737,-377.8 737,-347 737,-347 737,-347 737,-289 737,-256.93 735.28,-219.63 734.1,-197.74"/>
<polygon fill="midnightblue" stroke="midnightblue" points="737.58,-197.34 733.52,-187.55 730.59,-197.73 737.58,-197.34"/>
</g>
<!-- Node25 -->
<g id="node25" class="node">
<title>Node25</title>
<g id="a_node25"><a xlink:href="rmutex_8h.html" target="_top" xlink:title="Recursive Mutex for thread synchronization.">
<polygon fill="none" stroke="black" points="230.5,-392.5 230.5,-411.5 291.5,-411.5 291.5,-392.5 230.5,-392.5"/>
<text text-anchor="middle" x="261" y="-399.5" font-family="Helvetica,sans-Serif" font-size="10.00">rmutex.h</text>
</a>
</g>
</g>
<!-- Node23&#45;&gt;Node25 -->
<g id="edge43" class="edge">
<title>Node23&#45;&gt;Node25</title>
<path fill="none" stroke="midnightblue" d="M572.93,-452.4C512.26,-442.79 372.04,-420.58 302.14,-409.52"/>
<polygon fill="midnightblue" stroke="midnightblue" points="302.38,-406.01 291.96,-407.9 301.29,-412.92 302.38,-406.01"/>
</g>
<!-- Node27 -->
<g id="node27" class="node">
<title>Node27</title>
<g id="a_node27"><a xlink:title=" ">
<polygon fill="none" stroke="#bfbfbf" points="423.5,-392.5 423.5,-411.5 476.5,-411.5 476.5,-392.5 423.5,-392.5"/>
<text text-anchor="middle" x="450" y="-399.5" font-family="Helvetica,sans-Serif" font-size="10.00">board.h</text>
</a>
</g>
</g>
<!-- Node23&#45;&gt;Node27 -->
<g id="edge48" class="edge">
<title>Node23&#45;&gt;Node27</title>
<path fill="none" stroke="midnightblue" d="M577.92,-448.44C552.46,-439.4 512.11,-425.06 483.54,-414.92"/>
<polygon fill="midnightblue" stroke="midnightblue" points="484.57,-411.57 473.97,-411.52 482.22,-418.16 484.57,-411.57"/>
</g>
<!-- Node28 -->
<g id="node28" class="node">
<title>Node28</title>
<g id="a_node28"><a xlink:href="tick__conversion_8h.html" target="_top" xlink:title="xtimer tick &lt;&#45;&gt; seconds conversions for different values of XTIMER_HZ">
<polygon fill="none" stroke="black" points="533.5,-392.5 533.5,-411.5 670.5,-411.5 670.5,-392.5 533.5,-392.5"/>
<text text-anchor="middle" x="602" y="-399.5" font-family="Helvetica,sans-Serif" font-size="10.00">xtimer/tick_conversion.h</text>
</a>
</g>
</g>
<!-- Node23&#45;&gt;Node28 -->
<g id="edge50" class="edge">
<title>Node23&#45;&gt;Node28</title>
<path fill="none" stroke="midnightblue" d="M602,-448.08C602,-441.01 602,-430.86 602,-421.99"/>
<polygon fill="midnightblue" stroke="midnightblue" points="605.5,-421.75 602,-411.75 598.5,-421.75 605.5,-421.75"/>
</g>
<!-- Node30 -->
<g id="node30" class="node">
<title>Node30</title>
<g id="a_node30"><a xlink:href="implementation_8h.html" target="_top" xlink:title="xtimer implementation">
<polygon fill="none" stroke="black" points="765.5,-392.5 765.5,-411.5 904.5,-411.5 904.5,-392.5 765.5,-392.5"/>
<text text-anchor="middle" x="835" y="-399.5" font-family="Helvetica,sans-Serif" font-size="10.00">xtimer/implementation.h</text>
</a>
</g>
</g>
<!-- Node23&#45;&gt;Node30 -->
<g id="edge54" class="edge">
<title>Node23&#45;&gt;Node30</title>
<path fill="none" stroke="midnightblue" d="M631.04,-450.27C670.48,-441.13 741.43,-424.69 788.37,-413.81"/>
<polygon fill="midnightblue" stroke="midnightblue" points="789.34,-417.17 798.29,-411.51 787.76,-410.36 789.34,-417.17"/>
</g>
<!-- Node24&#45;&gt;Node2 -->
<g id="edge39" class="edge">
<title>Node24&#45;&gt;Node2</title>
<path fill="none" stroke="midnightblue" d="M734.73,-168.14C736.83,-155.19 739.16,-130.61 731,-112 714.26,-73.8 675.71,-42.55 650.81,-25.38"/>
<polygon fill="midnightblue" stroke="midnightblue" points="652.58,-22.36 642.32,-19.71 648.69,-28.18 652.58,-22.36"/>
</g>
<!-- Node24&#45;&gt;Node17 -->
<g id="edge40" class="edge">
<title>Node24&#45;&gt;Node17</title>
<path fill="none" stroke="midnightblue" d="M725.73,-168.08C719.46,-160.38 710.21,-149.03 702.57,-139.65"/>
<polygon fill="midnightblue" stroke="midnightblue" points="705.16,-137.29 696.13,-131.75 699.73,-141.71 705.16,-137.29"/>
</g>
<!-- Node25&#45;&gt;Node2 -->
<g id="edge44" class="edge">
<title>Node25&#45;&gt;Node2</title>
<path fill="none" stroke="midnightblue" d="M291.66,-399.7C373.33,-394.42 590,-367.91 590,-235 590,-235 590,-235 590,-121 590,-86.81 606.6,-49.76 617.86,-28.57"/>
<polygon fill="midnightblue" stroke="midnightblue" points="620.95,-30.22 622.72,-19.77 614.82,-26.83 620.95,-30.22"/>
</g>
<!-- Node25&#45;&gt;Node3 -->
<g id="edge46" class="edge">
<title>Node25&#45;&gt;Node3</title>
<path fill="none" stroke="midnightblue" d="M237.39,-392.44C212.54,-383.44 173.23,-369.19 145.25,-359.05"/>
<polygon fill="midnightblue" stroke="midnightblue" points="146.09,-355.63 135.5,-355.52 143.71,-362.21 146.09,-355.63"/>
</g>
<!-- Node25&#45;&gt;Node16 -->
<g id="edge47" class="edge">
<title>Node25&#45;&gt;Node16</title>
<path fill="none" stroke="midnightblue" d="M259.71,-392.3C254.85,-359.63 237.64,-243.87 230.82,-197.96"/>
<polygon fill="midnightblue" stroke="midnightblue" points="234.25,-197.26 229.32,-187.88 227.33,-198.29 234.25,-197.26"/>
</g>
<!-- Node26 -->
<g id="node26" class="node">
<title>Node26</title>
<g id="a_node26"><a xlink:title=" ">
<polygon fill="none" stroke="#bfbfbf" points="159,-336.5 159,-355.5 233,-355.5 233,-336.5 159,-336.5"/>
<text text-anchor="middle" x="196" y="-343.5" font-family="Helvetica,sans-Serif" font-size="10.00">stdatomic.h</text>
</a>
</g>
</g>
<!-- Node25&#45;&gt;Node26 -->
<g id="edge45" class="edge">
<title>Node25&#45;&gt;Node26</title>
<path fill="none" stroke="midnightblue" d="M250.56,-392.32C240.85,-384.26 226.18,-372.08 214.5,-362.37"/>
<polygon fill="midnightblue" stroke="midnightblue" points="216.56,-359.53 206.63,-355.83 212.09,-364.92 216.56,-359.53"/>
</g>
<!-- Node29 -->
<g id="node29" class="node">
<title>Node29</title>
<g id="a_node29"><a xlink:href="div_8h.html" target="_top" xlink:title=" ">
<polygon fill="none" stroke="black" points="631,-224.5 631,-243.5 671,-243.5 671,-224.5 631,-224.5"/>
<text text-anchor="middle" x="651" y="-231.5" font-family="Helvetica,sans-Serif" font-size="10.00">div.h</text>
</a>
</g>
</g>
<!-- Node28&#45;&gt;Node29 -->
<g id="edge51" class="edge">
<title>Node28&#45;&gt;Node29</title>
<path fill="none" stroke="midnightblue" d="M604.63,-392.08C612.35,-365.95 635,-289.21 645.52,-253.58"/>
<polygon fill="midnightblue" stroke="midnightblue" points="649,-254.15 648.47,-243.57 642.28,-252.17 649,-254.15"/>
</g>
<!-- Node29&#45;&gt;Node2 -->
<g id="edge53" class="edge">
<title>Node29&#45;&gt;Node2</title>
<path fill="none" stroke="midnightblue" d="M671.02,-231.96C698.46,-229.34 746.86,-220.14 769,-188 774.04,-180.68 770.65,-176.73 769,-168 758.61,-113.12 752.79,-94.15 712,-56 697.25,-42.21 677.48,-31.34 660.82,-23.74"/>
<polygon fill="midnightblue" stroke="midnightblue" points="661.99,-20.43 651.43,-19.65 659.2,-26.85 661.99,-20.43"/>
</g>
<!-- Node29&#45;&gt;Node13 -->
<g id="edge52" class="edge">
<title>Node29&#45;&gt;Node13</title>
<path fill="none" stroke="midnightblue" d="M630.93,-229.03C585.62,-220.07 474.83,-198.15 416.06,-186.53"/>
<polygon fill="midnightblue" stroke="midnightblue" points="416.55,-183.06 406.06,-184.55 415.19,-189.92 416.55,-183.06"/>
</g>
<!-- Node30&#45;&gt;Node5 -->
<g id="edge60" class="edge">
<title>Node30&#45;&gt;Node5</title>
<path fill="none" stroke="midnightblue" d="M809.38,-392.46C748.99,-372.33 598.01,-322 534.2,-300.73"/>
<polygon fill="midnightblue" stroke="midnightblue" points="534.98,-297.3 524.39,-297.46 532.77,-303.94 534.98,-297.3"/>
</g>
<!-- Node31 -->
<g id="node31" class="node">
<title>Node31</title>
<g id="a_node31"><a xlink:href="drivers_2include_2periph_2timer_8h.html" target="_top" xlink:title="Low&#45;level timer peripheral driver interface definitions.">
<polygon fill="none" stroke="black" points="792,-336.5 792,-355.5 878,-355.5 878,-336.5 792,-336.5"/>
<text text-anchor="middle" x="835" y="-343.5" font-family="Helvetica,sans-Serif" font-size="10.00">periph/timer.h</text>
</a>
</g>
</g>
<!-- Node30&#45;&gt;Node31 -->
<g id="edge55" class="edge">
<title>Node30&#45;&gt;Node31</title>
<path fill="none" stroke="midnightblue" d="M835,-392.08C835,-385.01 835,-374.86 835,-365.99"/>
<polygon fill="midnightblue" stroke="midnightblue" points="838.5,-365.75 835,-355.75 831.5,-365.75 838.5,-365.75"/>
</g>
<!-- Node31&#45;&gt;Node2 -->
<g id="edge57" class="edge">
<title>Node31&#45;&gt;Node2</title>
<path fill="none" stroke="midnightblue" d="M828.39,-336.19C822.17,-327.46 813.07,-313.47 808,-300 768.11,-194.07 821.66,-128.82 735,-56 714.53,-38.8 686.54,-27.34 664.32,-20.29"/>
<polygon fill="midnightblue" stroke="midnightblue" points="665.15,-16.89 654.56,-17.36 663.13,-23.59 665.15,-16.89"/>
</g>
<!-- Node31&#45;&gt;Node20 -->
<g id="edge56" class="edge">
<title>Node31&#45;&gt;Node20</title>
<path fill="none" stroke="midnightblue" d="M836.32,-336.08C837.38,-328.93 838.91,-318.64 840.23,-309.69"/>
<polygon fill="midnightblue" stroke="midnightblue" points="843.7,-310.16 841.7,-299.75 836.78,-309.13 843.7,-310.16"/>
</g>
<!-- Node31&#45;&gt;Node21 -->
<g id="edge58" class="edge">
<title>Node31&#45;&gt;Node21</title>
<path fill="none" stroke="midnightblue" d="M849.78,-336.32C864.27,-327.82 886.57,-314.73 903.49,-304.8"/>
<polygon fill="midnightblue" stroke="midnightblue" points="905.4,-307.74 912.26,-299.65 901.86,-301.7 905.4,-307.74"/>
</g>
<!-- Node31&#45;&gt;Node22 -->
<g id="edge59" class="edge">
<title>Node31&#45;&gt;Node22</title>
<path fill="none" stroke="midnightblue" d="M865.26,-336.44C897.96,-327.2 950.18,-312.44 986.18,-302.26"/>
<polygon fill="midnightblue" stroke="midnightblue" points="987.21,-305.61 995.88,-299.52 985.3,-298.87 987.21,-305.61"/>
</g>
</g>
</svg>
