<?xml version="1.0" encoding="UTF-8" standalone="no"?>
<!DOCTYPE svg PUBLIC "-//W3C//DTD SVG 1.1//EN"
 "http://www.w3.org/Graphics/SVG/1.1/DTD/svg11.dtd">
<!-- Generated by graphviz version 2.40.1 (20161225.0304)
 -->
<!-- Title: pkg/lua/include/lua_run.h Pages: 1 -->
<svg width="114pt" height="95pt"
 viewBox="0.00 0.00 113.50 95.00" xmlns="http://www.w3.org/2000/svg" xmlns:xlink="http://www.w3.org/1999/xlink">
<g id="graph0" class="graph" transform="scale(1 1) rotate(0) translate(4 91)">
<title>pkg/lua/include/lua_run.h</title>
<!-- Node0 -->
<g id="node1" class="node">
<title>Node0</title>
<polygon fill="#bfbfbf" stroke="#000000" points="6.5,-56.5 6.5,-86.5 104.5,-86.5 104.5,-56.5 6.5,-56.5"/>
<text text-anchor="start" x="14.5" y="-74.5" font-family="Helvetica,sans-Serif" font-size="10.00" fill="#000000">pkg/lua/include/lua</text>
<text text-anchor="middle" x="55.5" y="-63.5" font-family="Helvetica,sans-Serif" font-size="10.00" fill="#000000">_run.h</text>
</g>
<!-- Node1 -->
<g id="node2" class="node">
<title>Node1</title>
<polygon fill="none" stroke="#bfbfbf" points="0,-.5 0,-19.5 49,-19.5 49,-.5 0,-.5"/>
<text text-anchor="middle" x="24.5" y="-7.5" font-family="Helvetica,sans-Serif" font-size="10.00" fill="#000000">stdint.h</text>
</g>
<!-- Node0&#45;&gt;Node1 -->
<g id="edge1" class="edge">
<title>Node0&#45;&gt;Node1</title>
<path fill="none" stroke="#191970" d="M47.8371,-56.2977C43.6684,-48.0277 38.4735,-37.7215 34.0439,-28.9339"/>
<polygon fill="#191970" stroke="#191970" points="37.0901,-27.2012 29.4635,-19.8469 30.8393,-30.3521 37.0901,-27.2012"/>
</g>
<!-- Node2 -->
<g id="node3" class="node">
<title>Node2</title>
<polygon fill="none" stroke="#bfbfbf" points="67.5,-.5 67.5,-19.5 105.5,-19.5 105.5,-.5 67.5,-.5"/>
<text text-anchor="middle" x="86.5" y="-7.5" font-family="Helvetica,sans-Serif" font-size="10.00" fill="#000000">lua.h</text>
</g>
<!-- Node0&#45;&gt;Node2 -->
<g id="edge2" class="edge">
<title>Node0&#45;&gt;Node2</title>
<path fill="none" stroke="#191970" d="M63.1629,-56.2977C67.3316,-48.0277 72.5265,-37.7215 76.9561,-28.9339"/>
<polygon fill="#191970" stroke="#191970" points="80.1607,-30.3521 81.5365,-19.8469 73.9099,-27.2012 80.1607,-30.3521"/>
</g>
</g>
</svg>
