<?xml version="1.0" encoding="UTF-8" standalone="no"?>
<!DOCTYPE svg PUBLIC "-//W3C//DTD SVG 1.1//EN"
 "http://www.w3.org/Graphics/SVG/1.1/DTD/svg11.dtd">
<!-- Generated by graphviz version 2.43.0 (0)
 -->
<!-- Title: pkg/wakaama/include/lwm2m_client_objects.h Pages: 1 -->
<svg width="1037pt" height="263pt"
 viewBox="0.00 0.00 1036.50 263.00" xmlns="http://www.w3.org/2000/svg" xmlns:xlink="http://www.w3.org/1999/xlink">
<g id="graph0" class="graph" transform="scale(1 1) rotate(0) translate(4 259)">
<title>pkg/wakaama/include/lwm2m_client_objects.h</title>
<!-- Node1 -->
<g id="node1" class="node">
<title>Node1</title>
<g id="a_node1"><a xlink:title="Public API and definitions for the helper functions to interact with basic objects from a LwM2M clien...">
<polygon fill="#bfbfbf" stroke="black" points="364.5,-224.5 364.5,-254.5 502.5,-254.5 502.5,-224.5 364.5,-224.5"/>
<text text-anchor="start" x="372.5" y="-242.5" font-family="Helvetica,sans-Serif" font-size="10.00">pkg/wakaama/include</text>
<text text-anchor="middle" x="433.5" y="-231.5" font-family="Helvetica,sans-Serif" font-size="10.00">/lwm2m_client_objects.h</text>
</a>
</g>
</g>
<!-- Node2 -->
<g id="node2" class="node">
<title>Node2</title>
<g id="a_node2"><a xlink:href="lwm2m__client_8h.html" target="_top" xlink:title="Definitions and public API for a LwM2M client using Wakaama.">
<polygon fill="none" stroke="black" points="386,-168.5 386,-187.5 481,-187.5 481,-168.5 386,-168.5"/>
<text text-anchor="middle" x="433.5" y="-175.5" font-family="Helvetica,sans-Serif" font-size="10.00">lwm2m_client.h</text>
</a>
</g>
</g>
<!-- Node1&#45;&gt;Node2 -->
<g id="edge1" class="edge">
<title>Node1&#45;&gt;Node2</title>
<path fill="none" stroke="midnightblue" d="M433.5,-224.4C433.5,-216.47 433.5,-206.46 433.5,-197.86"/>
<polygon fill="midnightblue" stroke="midnightblue" points="437,-197.66 433.5,-187.66 430,-197.66 437,-197.66"/>
</g>
<!-- Node3 -->
<g id="node3" class="node">
<title>Node3</title>
<g id="a_node3"><a xlink:title=" ">
<polygon fill="none" stroke="#bfbfbf" points="0,-112.5 0,-131.5 53,-131.5 53,-112.5 0,-112.5"/>
<text text-anchor="middle" x="26.5" y="-119.5" font-family="Helvetica,sans-Serif" font-size="10.00">ctype.h</text>
</a>
</g>
</g>
<!-- Node2&#45;&gt;Node3 -->
<g id="edge2" class="edge">
<title>Node2&#45;&gt;Node3</title>
<path fill="none" stroke="midnightblue" d="M385.92,-173.26C316.82,-167.38 184.54,-154.48 63.36,-132.15"/>
<polygon fill="midnightblue" stroke="midnightblue" points="63.65,-128.64 53.17,-130.24 62.36,-135.52 63.65,-128.64"/>
</g>
<!-- Node4 -->
<g id="node4" class="node">
<title>Node4</title>
<g id="a_node4"><a xlink:href="errno_8h.html" target="_top" xlink:title=" ">
<polygon fill="none" stroke="black" points="71,-112.5 71,-131.5 122,-131.5 122,-112.5 71,-112.5"/>
<text text-anchor="middle" x="96.5" y="-119.5" font-family="Helvetica,sans-Serif" font-size="10.00">errno.h</text>
</a>
</g>
</g>
<!-- Node2&#45;&gt;Node4 -->
<g id="edge3" class="edge">
<title>Node2&#45;&gt;Node4</title>
<path fill="none" stroke="midnightblue" d="M385.98,-171.6C328.12,-164.67 227.28,-151.4 132.13,-132.15"/>
<polygon fill="midnightblue" stroke="midnightblue" points="132.55,-128.67 122.05,-130.09 131.14,-135.53 132.55,-128.67"/>
</g>
<!-- Node5 -->
<g id="node5" class="node">
<title>Node5</title>
<g id="a_node5"><a xlink:title=" ">
<polygon fill="none" stroke="#bfbfbf" points="140,-112.5 140,-131.5 195,-131.5 195,-112.5 140,-112.5"/>
<text text-anchor="middle" x="167.5" y="-119.5" font-family="Helvetica,sans-Serif" font-size="10.00">signal.h</text>
</a>
</g>
</g>
<!-- Node2&#45;&gt;Node5 -->
<g id="edge4" class="edge">
<title>Node2&#45;&gt;Node5</title>
<path fill="none" stroke="midnightblue" d="M386.88,-168.47C342.69,-160.24 274.22,-147.13 205.49,-132.14"/>
<polygon fill="midnightblue" stroke="midnightblue" points="205.87,-128.64 195.35,-129.91 204.37,-135.48 205.87,-128.64"/>
</g>
<!-- Node6 -->
<g id="node6" class="node">
<title>Node6</title>
<g id="a_node6"><a xlink:title=" ">
<polygon fill="none" stroke="#bfbfbf" points="213.5,-112.5 213.5,-131.5 263.5,-131.5 263.5,-112.5 213.5,-112.5"/>
<text text-anchor="middle" x="238.5" y="-119.5" font-family="Helvetica,sans-Serif" font-size="10.00">stdio.h</text>
</a>
</g>
</g>
<!-- Node2&#45;&gt;Node6 -->
<g id="edge5" class="edge">
<title>Node2&#45;&gt;Node6</title>
<path fill="none" stroke="midnightblue" d="M402.6,-168.44C367.46,-158.71 310.2,-142.86 273.46,-132.68"/>
<polygon fill="midnightblue" stroke="midnightblue" points="274.24,-129.27 263.67,-129.97 272.38,-136.01 274.24,-129.27"/>
</g>
<!-- Node7 -->
<g id="node7" class="node">
<title>Node7</title>
<g id="a_node7"><a xlink:title=" ">
<polygon fill="none" stroke="#bfbfbf" points="255,-56.5 255,-75.5 308,-75.5 308,-56.5 255,-56.5"/>
<text text-anchor="middle" x="281.5" y="-63.5" font-family="Helvetica,sans-Serif" font-size="10.00">stdlib.h</text>
</a>
</g>
</g>
<!-- Node2&#45;&gt;Node7 -->
<g id="edge6" class="edge">
<title>Node2&#45;&gt;Node7</title>
<path fill="none" stroke="midnightblue" d="M385.86,-168.87C360.85,-162.49 331.2,-151.32 310.5,-132 297.25,-119.64 289.67,-100.11 285.6,-85.69"/>
<polygon fill="midnightblue" stroke="midnightblue" points="288.97,-84.7 283.15,-75.85 282.18,-86.4 288.97,-84.7"/>
</g>
<!-- Node8 -->
<g id="node8" class="node">
<title>Node8</title>
<g id="a_node8"><a xlink:title=" ">
<polygon fill="none" stroke="#bfbfbf" points="642,-112.5 642,-131.5 695,-131.5 695,-112.5 642,-112.5"/>
<text text-anchor="middle" x="668.5" y="-119.5" font-family="Helvetica,sans-Serif" font-size="10.00">string.h</text>
</a>
</g>
</g>
<!-- Node2&#45;&gt;Node8 -->
<g id="edge7" class="edge">
<title>Node2&#45;&gt;Node8</title>
<path fill="none" stroke="midnightblue" d="M472.45,-168.46C510.58,-160.05 570.54,-146.65 631.92,-132.1"/>
<polygon fill="midnightblue" stroke="midnightblue" points="632.86,-135.47 641.78,-129.75 631.24,-128.66 632.86,-135.47"/>
</g>
<!-- Node9 -->
<g id="node9" class="node">
<title>Node9</title>
<g id="a_node9"><a xlink:title=" ">
<polygon fill="none" stroke="#bfbfbf" points="326.5,-56.5 326.5,-75.5 398.5,-75.5 398.5,-56.5 326.5,-56.5"/>
<text text-anchor="middle" x="362.5" y="-63.5" font-family="Helvetica,sans-Serif" font-size="10.00">sys/types.h</text>
</a>
</g>
</g>
<!-- Node2&#45;&gt;Node9 -->
<g id="edge8" class="edge">
<title>Node2&#45;&gt;Node9</title>
<path fill="none" stroke="midnightblue" d="M432.55,-168.36C430.79,-155.26 426.06,-130 414.5,-112 406.84,-100.07 395.1,-89.53 384.71,-81.65"/>
<polygon fill="midnightblue" stroke="midnightblue" points="386.58,-78.68 376.42,-75.69 382.49,-84.37 386.58,-78.68"/>
</g>
<!-- Node10 -->
<g id="node10" class="node">
<title>Node10</title>
<g id="a_node10"><a xlink:href="unistd_8h_source.html" target="_top" xlink:title=" ">
<polygon fill="none" stroke="black" points="567.5,-112.5 567.5,-131.5 623.5,-131.5 623.5,-112.5 567.5,-112.5"/>
<text text-anchor="middle" x="595.5" y="-119.5" font-family="Helvetica,sans-Serif" font-size="10.00">unistd.h</text>
</a>
</g>
</g>
<!-- Node2&#45;&gt;Node10 -->
<g id="edge9" class="edge">
<title>Node2&#45;&gt;Node10</title>
<path fill="none" stroke="midnightblue" d="M459.17,-168.44C486.42,-159.36 529.68,-144.94 560.15,-134.78"/>
<polygon fill="midnightblue" stroke="midnightblue" points="561.57,-138 569.95,-131.52 559.36,-131.36 561.57,-138"/>
</g>
<!-- Node14 -->
<g id="node14" class="node">
<title>Node14</title>
<g id="a_node14"><a xlink:href="time_8h_source.html" target="_top" xlink:title=" ">
<polygon fill="none" stroke="black" points="319.5,-112.5 319.5,-131.5 387.5,-131.5 387.5,-112.5 319.5,-112.5"/>
<text text-anchor="middle" x="353.5" y="-119.5" font-family="Helvetica,sans-Serif" font-size="10.00">sys/time.h</text>
</a>
</g>
</g>
<!-- Node2&#45;&gt;Node14 -->
<g id="edge15" class="edge">
<title>Node2&#45;&gt;Node14</title>
<path fill="none" stroke="midnightblue" d="M420.65,-168.32C408.28,-159.98 389.37,-147.21 374.76,-137.35"/>
<polygon fill="midnightblue" stroke="midnightblue" points="376.57,-134.35 366.32,-131.65 372.65,-140.15 376.57,-134.35"/>
</g>
<!-- Node15 -->
<g id="node15" class="node">
<title>Node15</title>
<g id="a_node15"><a xlink:href="pm_8h.html" target="_top" xlink:title="Power management interface.">
<polygon fill="none" stroke="black" points="713,-112.5 713,-131.5 788,-131.5 788,-112.5 713,-112.5"/>
<text text-anchor="middle" x="750.5" y="-119.5" font-family="Helvetica,sans-Serif" font-size="10.00">periph/pm.h</text>
</a>
</g>
</g>
<!-- Node2&#45;&gt;Node15 -->
<g id="edge18" class="edge">
<title>Node2&#45;&gt;Node15</title>
<path fill="none" stroke="midnightblue" d="M481.06,-169.53C533.16,-161.24 619.47,-147.25 702.96,-132.24"/>
<polygon fill="midnightblue" stroke="midnightblue" points="703.64,-135.68 712.86,-130.46 702.4,-128.79 703.64,-135.68"/>
</g>
<!-- Node17 -->
<g id="node17" class="node">
<title>Node17</title>
<g id="a_node17"><a xlink:href="sock_2udp_8h.html" target="_top" xlink:title="UDP sock definitions.">
<polygon fill="none" stroke="black" points="461.5,-112.5 461.5,-131.5 549.5,-131.5 549.5,-112.5 461.5,-112.5"/>
<text text-anchor="middle" x="505.5" y="-119.5" font-family="Helvetica,sans-Serif" font-size="10.00">net/sock/udp.h</text>
</a>
</g>
</g>
<!-- Node2&#45;&gt;Node17 -->
<g id="edge20" class="edge">
<title>Node2&#45;&gt;Node17</title>
<path fill="none" stroke="midnightblue" d="M445.07,-168.32C455.92,-160.18 472.38,-147.84 485.38,-138.09"/>
<polygon fill="midnightblue" stroke="midnightblue" points="487.82,-140.63 493.72,-131.83 483.62,-135.03 487.82,-140.63"/>
</g>
<!-- Node20 -->
<g id="node20" class="node">
<title>Node20</title>
<g id="a_node20"><a xlink:href="lwm2m__client__config_8h.html" target="_top" xlink:title="LwM2M client configurations.">
<polygon fill="none" stroke="black" points="806.5,-112.5 806.5,-131.5 936.5,-131.5 936.5,-112.5 806.5,-112.5"/>
<text text-anchor="middle" x="871.5" y="-119.5" font-family="Helvetica,sans-Serif" font-size="10.00">lwm2m_client_config.h</text>
</a>
</g>
</g>
<!-- Node2&#45;&gt;Node20 -->
<g id="edge27" class="edge">
<title>Node2&#45;&gt;Node20</title>
<path fill="none" stroke="midnightblue" d="M481.21,-171.12C557.1,-161.76 705.97,-143.41 796.31,-132.27"/>
<polygon fill="midnightblue" stroke="midnightblue" points="796.99,-135.71 806.49,-131.02 796.14,-128.77 796.99,-135.71"/>
</g>
<!-- Node21 -->
<g id="node21" class="node">
<title>Node21</title>
<g id="a_node21"><a xlink:title=" ">
<polygon fill="none" stroke="#bfbfbf" points="954.5,-112.5 954.5,-131.5 1028.5,-131.5 1028.5,-112.5 954.5,-112.5"/>
<text text-anchor="middle" x="991.5" y="-119.5" font-family="Helvetica,sans-Serif" font-size="10.00">liblwm2m.h</text>
</a>
</g>
</g>
<!-- Node2&#45;&gt;Node21 -->
<g id="edge28" class="edge">
<title>Node2&#45;&gt;Node21</title>
<path fill="none" stroke="midnightblue" d="M481.34,-174.49C570.47,-169.43 768.13,-156.5 944.42,-132.01"/>
<polygon fill="midnightblue" stroke="midnightblue" points="944.98,-135.47 954.4,-130.61 944.01,-128.53 944.98,-135.47"/>
</g>
<!-- Node11 -->
<g id="node11" class="node">
<title>Node11</title>
<g id="a_node11"><a xlink:title=" ">
<polygon fill="none" stroke="#bfbfbf" points="716.5,-0.5 716.5,-19.5 772.5,-19.5 772.5,-0.5 716.5,-0.5"/>
<text text-anchor="middle" x="744.5" y="-7.5" font-family="Helvetica,sans-Serif" font-size="10.00">stddef.h</text>
</a>
</g>
</g>
<!-- Node10&#45;&gt;Node11 -->
<g id="edge10" class="edge">
<title>Node10&#45;&gt;Node11</title>
<path fill="none" stroke="midnightblue" d="M623.56,-114.14C668.83,-102.94 753.37,-81.43 757.5,-76 767.81,-62.43 761.85,-42.82 754.98,-28.69"/>
<polygon fill="midnightblue" stroke="midnightblue" points="757.87,-26.67 750.05,-19.53 751.71,-30 757.87,-26.67"/>
</g>
<!-- Node12 -->
<g id="node12" class="node">
<title>Node12</title>
<g id="a_node12"><a xlink:title=" ">
<polygon fill="none" stroke="#bfbfbf" points="570,-0.5 570,-19.5 623,-19.5 623,-0.5 570,-0.5"/>
<text text-anchor="middle" x="596.5" y="-7.5" font-family="Helvetica,sans-Serif" font-size="10.00">stdint.h</text>
</a>
</g>
</g>
<!-- Node10&#45;&gt;Node12 -->
<g id="edge11" class="edge">
<title>Node10&#45;&gt;Node12</title>
<path fill="none" stroke="midnightblue" d="M604.79,-112.39C613.08,-104.02 624.64,-90.48 629.5,-76 635.31,-58.68 624.07,-40.22 613.16,-27.42"/>
<polygon fill="midnightblue" stroke="midnightblue" points="615.58,-24.87 606.23,-19.89 610.43,-29.61 615.58,-24.87"/>
</g>
<!-- Node13 -->
<g id="node13" class="node">
<title>Node13</title>
<g id="a_node13"><a xlink:href="cpu_2atmega__common_2avr__libc__extra_2include_2sys_2types_8h_source.html" target="_top" xlink:title=" ">
<polygon fill="none" stroke="black" points="676.5,-56.5 676.5,-75.5 748.5,-75.5 748.5,-56.5 676.5,-56.5"/>
<text text-anchor="middle" x="712.5" y="-63.5" font-family="Helvetica,sans-Serif" font-size="10.00">sys/types.h</text>
</a>
</g>
</g>
<!-- Node10&#45;&gt;Node13 -->
<g id="edge12" class="edge">
<title>Node10&#45;&gt;Node13</title>
<path fill="none" stroke="midnightblue" d="M614.04,-112.44C633.12,-103.64 663.07,-89.81 684.94,-79.72"/>
<polygon fill="midnightblue" stroke="midnightblue" points="686.43,-82.88 694.05,-75.52 683.5,-76.53 686.43,-82.88"/>
</g>
<!-- Node13&#45;&gt;Node11 -->
<g id="edge14" class="edge">
<title>Node13&#45;&gt;Node11</title>
<path fill="none" stroke="midnightblue" d="M717.78,-56.08C722.21,-48.61 728.66,-37.72 734.12,-28.52"/>
<polygon fill="midnightblue" stroke="midnightblue" points="737.23,-30.14 739.31,-19.75 731.21,-26.57 737.23,-30.14"/>
</g>
<!-- Node13&#45;&gt;Node12 -->
<g id="edge13" class="edge">
<title>Node13&#45;&gt;Node12</title>
<path fill="none" stroke="midnightblue" d="M694.12,-56.44C675.28,-47.68 645.77,-33.94 624.12,-23.86"/>
<polygon fill="midnightblue" stroke="midnightblue" points="625.34,-20.56 614.79,-19.52 622.38,-26.91 625.34,-20.56"/>
</g>
<!-- Node14&#45;&gt;Node9 -->
<g id="edge16" class="edge">
<title>Node14&#45;&gt;Node9</title>
<path fill="none" stroke="midnightblue" d="M354.99,-112.08C356.18,-104.93 357.89,-94.64 359.38,-85.69"/>
<polygon fill="midnightblue" stroke="midnightblue" points="362.85,-86.19 361.04,-75.75 355.95,-85.04 362.85,-86.19"/>
</g>
<!-- Node14&#45;&gt;Node14 -->
<g id="edge17" class="edge">
<title>Node14&#45;&gt;Node14</title>
<path fill="none" stroke="midnightblue" d="M375.68,-131.53C390.75,-134.31 405.5,-131.13 405.5,-122 405.5,-114.94 396.67,-111.44 385.7,-111.5"/>
<polygon fill="midnightblue" stroke="midnightblue" points="385.29,-108.02 375.68,-112.47 385.97,-114.99 385.29,-108.02"/>
</g>
<!-- Node16 -->
<g id="node16" class="node">
<title>Node16</title>
<g id="a_node16"><a xlink:title=" ">
<polygon fill="none" stroke="#bfbfbf" points="805,-56.5 805,-75.5 884,-75.5 884,-56.5 805,-56.5"/>
<text text-anchor="middle" x="844.5" y="-63.5" font-family="Helvetica,sans-Serif" font-size="10.00">periph_cpu.h</text>
</a>
</g>
</g>
<!-- Node15&#45;&gt;Node16 -->
<g id="edge19" class="edge">
<title>Node15&#45;&gt;Node16</title>
<path fill="none" stroke="midnightblue" d="M765.6,-112.32C780.4,-103.82 803.19,-90.73 820.48,-80.8"/>
<polygon fill="midnightblue" stroke="midnightblue" points="822.51,-83.67 829.43,-75.65 819.02,-77.6 822.51,-83.67"/>
</g>
<!-- Node17&#45;&gt;Node7 -->
<g id="edge22" class="edge">
<title>Node17&#45;&gt;Node7</title>
<path fill="none" stroke="midnightblue" d="M469.43,-112.48C433.56,-103.98 376.71,-90.44 318.04,-76.11"/>
<polygon fill="midnightblue" stroke="midnightblue" points="318.77,-72.69 308.23,-73.71 317.11,-79.49 318.77,-72.69"/>
</g>
<!-- Node17&#45;&gt;Node9 -->
<g id="edge23" class="edge">
<title>Node17&#45;&gt;Node9</title>
<path fill="none" stroke="midnightblue" d="M482.84,-112.44C459.1,-103.48 421.59,-89.31 394.76,-79.18"/>
<polygon fill="midnightblue" stroke="midnightblue" points="395.64,-75.77 385.05,-75.52 393.17,-82.32 395.64,-75.77"/>
</g>
<!-- Node17&#45;&gt;Node12 -->
<g id="edge21" class="edge">
<title>Node17&#45;&gt;Node12</title>
<path fill="none" stroke="midnightblue" d="M487.51,-112.43C464.77,-100.43 430.4,-77.64 446.5,-56 472.31,-21.31 523.95,-12.35 559.36,-10.55"/>
<polygon fill="midnightblue" stroke="midnightblue" points="559.9,-14.03 569.78,-10.19 559.67,-7.03 559.9,-14.03"/>
</g>
<!-- Node18 -->
<g id="node18" class="node">
<title>Node18</title>
<g id="a_node18"><a xlink:href="sock_8h.html" target="_top" xlink:title="Common sock API definitions.">
<polygon fill="none" stroke="black" points="455,-56.5 455,-75.5 522,-75.5 522,-56.5 455,-56.5"/>
<text text-anchor="middle" x="488.5" y="-63.5" font-family="Helvetica,sans-Serif" font-size="10.00">net/sock.h</text>
</a>
</g>
</g>
<!-- Node17&#45;&gt;Node18 -->
<g id="edge24" class="edge">
<title>Node17&#45;&gt;Node18</title>
<path fill="none" stroke="midnightblue" d="M502.69,-112.08C500.42,-104.85 497.13,-94.41 494.29,-85.4"/>
<polygon fill="midnightblue" stroke="midnightblue" points="497.6,-84.24 491.25,-75.75 490.92,-86.34 497.6,-84.24"/>
</g>
<!-- Node19 -->
<g id="node19" class="node">
<title>Node19</title>
<g id="a_node19"><a xlink:title=" ">
<polygon fill="none" stroke="#bfbfbf" points="540.5,-56.5 540.5,-75.5 620.5,-75.5 620.5,-56.5 540.5,-56.5"/>
<text text-anchor="middle" x="580.5" y="-63.5" font-family="Helvetica,sans-Serif" font-size="10.00">sock_types.h</text>
</a>
</g>
</g>
<!-- Node17&#45;&gt;Node19 -->
<g id="edge26" class="edge">
<title>Node17&#45;&gt;Node19</title>
<path fill="none" stroke="midnightblue" d="M517.55,-112.32C528.96,-104.11 546.33,-91.6 559.93,-81.81"/>
<polygon fill="midnightblue" stroke="midnightblue" points="562.16,-84.52 568.23,-75.83 558.07,-78.84 562.16,-84.52"/>
</g>
<!-- Node18&#45;&gt;Node12 -->
<g id="edge25" class="edge">
<title>Node18&#45;&gt;Node12</title>
<path fill="none" stroke="midnightblue" d="M505.85,-56.32C523.17,-47.66 550.02,-34.24 570,-24.25"/>
<polygon fill="midnightblue" stroke="midnightblue" points="571.81,-27.26 579.19,-19.65 568.68,-21 571.81,-27.26"/>
</g>
</g>
</svg>
