<?xml version="1.0" encoding="UTF-8" standalone="no"?>
<!DOCTYPE svg PUBLIC "-//W3C//DTD SVG 1.1//EN"
 "http://www.w3.org/Graphics/SVG/1.1/DTD/svg11.dtd">
<!-- Generated by graphviz version 2.40.1 (20161225.0304)
 -->
<!-- Title: sys/oneway&#45;malloc/include/malloc.h Pages: 1 -->
<svg width="142pt" height="95pt"
 viewBox="0.00 0.00 142.00 95.00" xmlns="http://www.w3.org/2000/svg" xmlns:xlink="http://www.w3.org/1999/xlink">
<g id="graph0" class="graph" transform="scale(1 1) rotate(0) translate(4 91)">
<title>sys/oneway&#45;malloc/include/malloc.h</title>
<!-- Node0 -->
<g id="node1" class="node">
<title>Node0</title>
<polygon fill="#bfbfbf" stroke="#000000" points="0,-56.5 0,-86.5 134,-86.5 134,-56.5 0,-56.5"/>
<text text-anchor="start" x="8" y="-74.5" font-family="Helvetica,sans-Serif" font-size="10.00" fill="#000000">sys/oneway&#45;malloc/include</text>
<text text-anchor="middle" x="67" y="-63.5" font-family="Helvetica,sans-Serif" font-size="10.00" fill="#000000">/malloc.h</text>
</g>
<!-- Node1 -->
<g id="node2" class="node">
<title>Node1</title>
<g id="a_node2"><a xlink:href="stdlib_8h.html" target="_top" xlink:title="stdlib.h wrapper for MSP430 ">
<polygon fill="none" stroke="#000000" points="43,-.5 43,-19.5 91,-19.5 91,-.5 43,-.5"/>
<text text-anchor="middle" x="67" y="-7.5" font-family="Helvetica,sans-Serif" font-size="10.00" fill="#000000">stdlib.h</text>
</a>
</g>
</g>
<!-- Node0&#45;&gt;Node1 -->
<g id="edge1" class="edge">
<title>Node0&#45;&gt;Node1</title>
<path fill="none" stroke="#191970" d="M61.0843,-56.2977C60.1446,-48.2945 59.9987,-38.3843 60.6466,-29.7889"/>
<polygon fill="#191970" stroke="#191970" points="64.1218,-30.2044 61.8917,-19.8469 57.176,-29.3345 64.1218,-30.2044"/>
</g>
<!-- Node1&#45;&gt;Node0 -->
<g id="edge2" class="edge">
<title>Node1&#45;&gt;Node0</title>
<path fill="none" stroke="#191970" d="M72.1083,-19.8469C73.4704,-26.9883 73.9849,-36.9858 73.6519,-46.2849"/>
<polygon fill="#191970" stroke="#191970" points="70.1584,-46.068 72.9157,-56.2977 77.1396,-46.5813 70.1584,-46.068"/>
</g>
</g>
</svg>
