<?xml version="1.0" encoding="UTF-8" standalone="no"?>
<!DOCTYPE svg PUBLIC "-//W3C//DTD SVG 1.1//EN"
 "http://www.w3.org/Graphics/SVG/1.1/DTD/svg11.dtd">
<!-- Generated by graphviz version 2.43.0 (0)
 -->
<!-- Title: boards/mbed_lpc1768/include/gpio_params.h Pages: 1 -->
<svg width="462pt" height="207pt"
 viewBox="0.00 0.00 462.00 207.00" xmlns="http://www.w3.org/2000/svg" xmlns:xlink="http://www.w3.org/1999/xlink">
<g id="graph0" class="graph" transform="scale(1 1) rotate(0) translate(4 203)">
<title>boards/mbed_lpc1768/include/gpio_params.h</title>
<!-- Node1 -->
<g id="node1" class="node">
<title>Node1</title>
<g id="a_node1"><a xlink:title="Board specific configuration of direct mapped GPIOs.">
<polygon fill="#bfbfbf" stroke="black" points="140.5,-168.5 140.5,-198.5 270.5,-198.5 270.5,-168.5 140.5,-168.5"/>
<text text-anchor="start" x="148.5" y="-186.5" font-family="Helvetica,sans-Serif" font-size="10.00">boards/mbed_lpc1768</text>
<text text-anchor="middle" x="205.5" y="-175.5" font-family="Helvetica,sans-Serif" font-size="10.00">/include/gpio_params.h</text>
</a>
</g>
</g>
<!-- Node2 -->
<g id="node2" class="node">
<title>Node2</title>
<g id="a_node2"><a xlink:href="mbed__lpc1768_2include_2board_8h.html" target="_top" xlink:title="Board specific definitions for the mbed_lpc1768 board.">
<polygon fill="none" stroke="black" points="137,-112.5 137,-131.5 190,-131.5 190,-112.5 137,-112.5"/>
<text text-anchor="middle" x="163.5" y="-119.5" font-family="Helvetica,sans-Serif" font-size="10.00">board.h</text>
</a>
</g>
</g>
<!-- Node1&#45;&gt;Node2 -->
<g id="edge1" class="edge">
<title>Node1&#45;&gt;Node2</title>
<path fill="none" stroke="midnightblue" d="M195.55,-168.4C189.51,-159.84 181.76,-148.87 175.4,-139.86"/>
<polygon fill="midnightblue" stroke="midnightblue" points="178.24,-137.81 169.61,-131.66 172.52,-141.85 178.24,-137.81"/>
</g>
<!-- Node10 -->
<g id="node10" class="node">
<title>Node10</title>
<g id="a_node10"><a xlink:href="periph_8h.html" target="_top" xlink:title="Parameter definitions for mapping peripherals directly to SAUL.">
<polygon fill="none" stroke="black" points="234.5,-112.5 234.5,-131.5 314.5,-131.5 314.5,-112.5 234.5,-112.5"/>
<text text-anchor="middle" x="274.5" y="-119.5" font-family="Helvetica,sans-Serif" font-size="10.00">saul/periph.h</text>
</a>
</g>
</g>
<!-- Node1&#45;&gt;Node10 -->
<g id="edge10" class="edge">
<title>Node1&#45;&gt;Node10</title>
<path fill="none" stroke="midnightblue" d="M221.85,-168.4C232.4,-159.31 246.1,-147.49 256.88,-138.19"/>
<polygon fill="midnightblue" stroke="midnightblue" points="259.17,-140.84 264.46,-131.66 254.6,-135.54 259.17,-140.84"/>
</g>
<!-- Node3 -->
<g id="node3" class="node">
<title>Node3</title>
<g id="a_node3"><a xlink:title=" ">
<polygon fill="none" stroke="#bfbfbf" points="102,-56.5 102,-75.5 145,-75.5 145,-56.5 102,-56.5"/>
<text text-anchor="middle" x="123.5" y="-63.5" font-family="Helvetica,sans-Serif" font-size="10.00">cpu.h</text>
</a>
</g>
</g>
<!-- Node2&#45;&gt;Node3 -->
<g id="edge2" class="edge">
<title>Node2&#45;&gt;Node3</title>
<path fill="none" stroke="midnightblue" d="M156.89,-112.08C151.24,-104.46 142.96,-93.26 136.05,-83.94"/>
<polygon fill="midnightblue" stroke="midnightblue" points="138.75,-81.7 129.98,-75.75 133.12,-85.87 138.75,-81.7"/>
</g>
<!-- Node4 -->
<g id="node4" class="node">
<title>Node4</title>
<g id="a_node4"><a xlink:href="boards_2mbed__lpc1768_2include_2periph__conf_8h.html" target="_top" xlink:title="Peripheral MCU configuration for the mbed LPC1768 board.">
<polygon fill="none" stroke="black" points="1.5,-56.5 1.5,-75.5 83.5,-75.5 83.5,-56.5 1.5,-56.5"/>
<text text-anchor="middle" x="42.5" y="-63.5" font-family="Helvetica,sans-Serif" font-size="10.00">periph_conf.h</text>
</a>
</g>
</g>
<!-- Node2&#45;&gt;Node4 -->
<g id="edge3" class="edge">
<title>Node2&#45;&gt;Node4</title>
<path fill="none" stroke="midnightblue" d="M144.33,-112.44C124.59,-103.64 93.61,-89.81 71.01,-79.72"/>
<polygon fill="midnightblue" stroke="midnightblue" points="72.14,-76.4 61.58,-75.52 69.29,-82.79 72.14,-76.4"/>
</g>
<!-- Node7 -->
<g id="node7" class="node">
<title>Node7</title>
<g id="a_node7"><a xlink:href="gpio_8h.html" target="_top" xlink:title="Low&#45;level GPIO peripheral driver interface definitions.">
<polygon fill="none" stroke="black" points="163.5,-56.5 163.5,-75.5 243.5,-75.5 243.5,-56.5 163.5,-56.5"/>
<text text-anchor="middle" x="203.5" y="-63.5" font-family="Helvetica,sans-Serif" font-size="10.00">periph/gpio.h</text>
</a>
</g>
</g>
<!-- Node2&#45;&gt;Node7 -->
<g id="edge6" class="edge">
<title>Node2&#45;&gt;Node7</title>
<path fill="none" stroke="midnightblue" d="M170.11,-112.08C175.76,-104.46 184.04,-93.26 190.95,-83.94"/>
<polygon fill="midnightblue" stroke="midnightblue" points="193.88,-85.87 197.02,-75.75 188.25,-81.7 193.88,-85.87"/>
</g>
<!-- Node5 -->
<g id="node5" class="node">
<title>Node5</title>
<g id="a_node5"><a xlink:title=" ">
<polygon fill="none" stroke="#bfbfbf" points="132,-0.5 132,-19.5 211,-19.5 211,-0.5 132,-0.5"/>
<text text-anchor="middle" x="171.5" y="-7.5" font-family="Helvetica,sans-Serif" font-size="10.00">periph_cpu.h</text>
</a>
</g>
</g>
<!-- Node4&#45;&gt;Node5 -->
<g id="edge4" class="edge">
<title>Node4&#45;&gt;Node5</title>
<path fill="none" stroke="midnightblue" d="M62.94,-56.44C84.17,-47.56 117.6,-33.56 141.75,-23.45"/>
<polygon fill="midnightblue" stroke="midnightblue" points="143.28,-26.61 151.16,-19.52 140.58,-20.15 143.28,-26.61"/>
</g>
<!-- Node6 -->
<g id="node6" class="node">
<title>Node6</title>
<g id="a_node6"><a xlink:href="mbed__lpc1768_2include_2vendor__conf_8h.html" target="_top" xlink:title="CMSIS Cortex&#45;M3 Device Peripheral Access Layer Source File for the NXP LPC17xx Device Series.">
<polygon fill="none" stroke="black" points="0,-0.5 0,-19.5 85,-19.5 85,-0.5 0,-0.5"/>
<text text-anchor="middle" x="42.5" y="-7.5" font-family="Helvetica,sans-Serif" font-size="10.00">vendor_conf.h</text>
</a>
</g>
</g>
<!-- Node4&#45;&gt;Node6 -->
<g id="edge5" class="edge">
<title>Node4&#45;&gt;Node6</title>
<path fill="none" stroke="midnightblue" d="M42.5,-56.08C42.5,-49.01 42.5,-38.86 42.5,-29.99"/>
<polygon fill="midnightblue" stroke="midnightblue" points="46,-29.75 42.5,-19.75 39,-29.75 46,-29.75"/>
</g>
<!-- Node7&#45;&gt;Node5 -->
<g id="edge8" class="edge">
<title>Node7&#45;&gt;Node5</title>
<path fill="none" stroke="midnightblue" d="M198.22,-56.08C193.79,-48.61 187.34,-37.72 181.88,-28.52"/>
<polygon fill="midnightblue" stroke="midnightblue" points="184.79,-26.57 176.69,-19.75 178.77,-30.14 184.79,-26.57"/>
</g>
<!-- Node8 -->
<g id="node8" class="node">
<title>Node8</title>
<g id="a_node8"><a xlink:title=" ">
<polygon fill="none" stroke="#bfbfbf" points="330,-0.5 330,-19.5 383,-19.5 383,-0.5 330,-0.5"/>
<text text-anchor="middle" x="356.5" y="-7.5" font-family="Helvetica,sans-Serif" font-size="10.00">limits.h</text>
</a>
</g>
</g>
<!-- Node7&#45;&gt;Node8 -->
<g id="edge7" class="edge">
<title>Node7&#45;&gt;Node8</title>
<path fill="none" stroke="midnightblue" d="M227.74,-56.44C253.37,-47.4 293.99,-33.06 322.74,-22.92"/>
<polygon fill="midnightblue" stroke="midnightblue" points="324.11,-26.15 332.37,-19.52 321.78,-19.54 324.11,-26.15"/>
</g>
<!-- Node9 -->
<g id="node9" class="node">
<title>Node9</title>
<g id="a_node9"><a xlink:title=" ">
<polygon fill="none" stroke="#bfbfbf" points="229.5,-0.5 229.5,-19.5 311.5,-19.5 311.5,-0.5 229.5,-0.5"/>
<text text-anchor="middle" x="270.5" y="-7.5" font-family="Helvetica,sans-Serif" font-size="10.00">periph_conf.h</text>
</a>
</g>
</g>
<!-- Node7&#45;&gt;Node9 -->
<g id="edge9" class="edge">
<title>Node7&#45;&gt;Node9</title>
<path fill="none" stroke="midnightblue" d="M214.26,-56.32C224.27,-48.26 239.39,-36.08 251.43,-26.37"/>
<polygon fill="midnightblue" stroke="midnightblue" points="253.95,-28.83 259.54,-19.83 249.56,-23.38 253.95,-28.83"/>
</g>
<!-- Node10&#45;&gt;Node7 -->
<g id="edge11" class="edge">
<title>Node10&#45;&gt;Node7</title>
<path fill="none" stroke="midnightblue" d="M263.09,-112.32C252.39,-104.18 236.16,-91.84 223.34,-82.09"/>
<polygon fill="midnightblue" stroke="midnightblue" points="225.19,-79.1 215.11,-75.83 220.96,-84.67 225.19,-79.1"/>
</g>
<!-- Node11 -->
<g id="node11" class="node">
<title>Node11</title>
<g id="a_node11"><a xlink:href="adc_8h.html" target="_top" xlink:title="Low&#45;level ADC peripheral driver interface definitions.">
<polygon fill="none" stroke="black" points="262,-56.5 262,-75.5 339,-75.5 339,-56.5 262,-56.5"/>
<text text-anchor="middle" x="300.5" y="-63.5" font-family="Helvetica,sans-Serif" font-size="10.00">periph/adc.h</text>
</a>
</g>
</g>
<!-- Node10&#45;&gt;Node11 -->
<g id="edge12" class="edge">
<title>Node10&#45;&gt;Node11</title>
<path fill="none" stroke="midnightblue" d="M278.79,-112.08C282.35,-104.69 287.52,-93.95 291.92,-84.81"/>
<polygon fill="midnightblue" stroke="midnightblue" points="295.1,-86.28 296.29,-75.75 288.79,-83.24 295.1,-86.28"/>
</g>
<!-- Node13 -->
<g id="node13" class="node">
<title>Node13</title>
<g id="a_node13"><a xlink:href="pwm_8h.html" target="_top" xlink:title="Low&#45;level PWM peripheral driver interface definitions.">
<polygon fill="none" stroke="black" points="357,-56.5 357,-75.5 440,-75.5 440,-56.5 357,-56.5"/>
<text text-anchor="middle" x="398.5" y="-63.5" font-family="Helvetica,sans-Serif" font-size="10.00">periph/pwm.h</text>
</a>
</g>
</g>
<!-- Node10&#45;&gt;Node13 -->
<g id="edge17" class="edge">
<title>Node10&#45;&gt;Node13</title>
<path fill="none" stroke="midnightblue" d="M294.15,-112.44C314.46,-103.6 346.4,-89.69 369.6,-79.59"/>
<polygon fill="midnightblue" stroke="midnightblue" points="371.17,-82.72 378.94,-75.52 368.38,-76.3 371.17,-82.72"/>
</g>
<!-- Node11&#45;&gt;Node5 -->
<g id="edge15" class="edge">
<title>Node11&#45;&gt;Node5</title>
<path fill="none" stroke="midnightblue" d="M280.06,-56.44C258.83,-47.56 225.4,-33.56 201.25,-23.45"/>
<polygon fill="midnightblue" stroke="midnightblue" points="202.42,-20.15 191.84,-19.52 199.72,-26.61 202.42,-20.15"/>
</g>
<!-- Node11&#45;&gt;Node8 -->
<g id="edge13" class="edge">
<title>Node11&#45;&gt;Node8</title>
<path fill="none" stroke="midnightblue" d="M309.5,-56.32C317.69,-48.42 330.01,-36.55 339.97,-26.94"/>
<polygon fill="midnightblue" stroke="midnightblue" points="342.57,-29.29 347.34,-19.83 337.71,-24.26 342.57,-29.29"/>
</g>
<!-- Node11&#45;&gt;Node9 -->
<g id="edge16" class="edge">
<title>Node11&#45;&gt;Node9</title>
<path fill="none" stroke="midnightblue" d="M295.55,-56.08C291.4,-48.61 285.35,-37.72 280.23,-28.52"/>
<polygon fill="midnightblue" stroke="midnightblue" points="283.28,-26.79 275.36,-19.75 277.16,-30.19 283.28,-26.79"/>
</g>
<!-- Node12 -->
<g id="node12" class="node">
<title>Node12</title>
<g id="a_node12"><a xlink:title=" ">
<polygon fill="none" stroke="#bfbfbf" points="401,-0.5 401,-19.5 454,-19.5 454,-0.5 401,-0.5"/>
<text text-anchor="middle" x="427.5" y="-7.5" font-family="Helvetica,sans-Serif" font-size="10.00">stdint.h</text>
</a>
</g>
</g>
<!-- Node11&#45;&gt;Node12 -->
<g id="edge14" class="edge">
<title>Node11&#45;&gt;Node12</title>
<path fill="none" stroke="midnightblue" d="M320.62,-56.44C341.52,-47.56 374.43,-33.56 398.22,-23.45"/>
<polygon fill="midnightblue" stroke="midnightblue" points="399.64,-26.65 407.47,-19.52 396.9,-20.21 399.64,-26.65"/>
</g>
<!-- Node13&#45;&gt;Node5 -->
<g id="edge20" class="edge">
<title>Node13&#45;&gt;Node5</title>
<path fill="none" stroke="midnightblue" d="M362.53,-56.44C323.18,-47.08 260.01,-32.06 217.19,-21.87"/>
<polygon fill="midnightblue" stroke="midnightblue" points="217.84,-18.43 207.3,-19.52 216.22,-25.24 217.84,-18.43"/>
</g>
<!-- Node13&#45;&gt;Node8 -->
<g id="edge19" class="edge">
<title>Node13&#45;&gt;Node8</title>
<path fill="none" stroke="midnightblue" d="M391.56,-56.08C385.57,-48.38 376.75,-37.03 369.45,-27.65"/>
<polygon fill="midnightblue" stroke="midnightblue" points="372.21,-25.5 363.31,-19.75 366.68,-29.79 372.21,-25.5"/>
</g>
<!-- Node13&#45;&gt;Node9 -->
<g id="edge21" class="edge">
<title>Node13&#45;&gt;Node9</title>
<path fill="none" stroke="midnightblue" d="M378.22,-56.44C357.15,-47.56 323.98,-33.56 300.01,-23.45"/>
<polygon fill="midnightblue" stroke="midnightblue" points="301.26,-20.18 290.69,-19.52 298.54,-26.63 301.26,-20.18"/>
</g>
<!-- Node13&#45;&gt;Node12 -->
<g id="edge18" class="edge">
<title>Node13&#45;&gt;Node12</title>
<path fill="none" stroke="midnightblue" d="M403.29,-56.08C407.26,-48.69 413.03,-37.95 417.93,-28.81"/>
<polygon fill="midnightblue" stroke="midnightblue" points="421.15,-30.22 422.8,-19.75 414.99,-26.91 421.15,-30.22"/>
</g>
</g>
</svg>
