<?xml version="1.0" encoding="UTF-8" standalone="no"?>
<!DOCTYPE svg PUBLIC "-//W3C//DTD SVG 1.1//EN"
 "http://www.w3.org/Graphics/SVG/1.1/DTD/svg11.dtd">
<!-- Generated by graphviz version 2.43.0 (0)
 -->
<!-- Title: boards/mcb2388/include/gpio_params.h Pages: 1 -->
<svg width="471pt" height="319pt"
 viewBox="0.00 0.00 470.50 319.00" xmlns="http://www.w3.org/2000/svg" xmlns:xlink="http://www.w3.org/1999/xlink">
<g id="graph0" class="graph" transform="scale(1 1) rotate(0) translate(4 315)">
<title>boards/mcb2388/include/gpio_params.h</title>
<!-- Node1 -->
<g id="node1" class="node">
<title>Node1</title>
<g id="a_node1"><a xlink:title="Board specific configuration of direct mapped GPIOs.">
<polygon fill="#bfbfbf" stroke="black" points="123.5,-280.5 123.5,-310.5 259.5,-310.5 259.5,-280.5 123.5,-280.5"/>
<text text-anchor="start" x="131.5" y="-298.5" font-family="Helvetica,sans-Serif" font-size="10.00">boards/mcb2388/include</text>
<text text-anchor="middle" x="191.5" y="-287.5" font-family="Helvetica,sans-Serif" font-size="10.00">/gpio_params.h</text>
</a>
</g>
</g>
<!-- Node2 -->
<g id="node2" class="node">
<title>Node2</title>
<g id="a_node2"><a xlink:href="mcb2388_2include_2board_8h.html" target="_top" xlink:title="Basic definitions for the MCB2388 board.">
<polygon fill="none" stroke="black" points="135,-224.5 135,-243.5 188,-243.5 188,-224.5 135,-224.5"/>
<text text-anchor="middle" x="161.5" y="-231.5" font-family="Helvetica,sans-Serif" font-size="10.00">board.h</text>
</a>
</g>
</g>
<!-- Node1&#45;&gt;Node2 -->
<g id="edge1" class="edge">
<title>Node1&#45;&gt;Node2</title>
<path fill="none" stroke="midnightblue" d="M184.39,-280.4C180.21,-272.11 174.89,-261.55 170.43,-252.71"/>
<polygon fill="midnightblue" stroke="midnightblue" points="173.49,-251.01 165.87,-243.66 167.24,-254.16 173.49,-251.01"/>
</g>
<!-- Node10 -->
<g id="node10" class="node">
<title>Node10</title>
<g id="a_node10"><a xlink:href="periph_8h.html" target="_top" xlink:title="Parameter definitions for mapping peripherals directly to SAUL.">
<polygon fill="none" stroke="black" points="278.5,-112.5 278.5,-131.5 358.5,-131.5 358.5,-112.5 278.5,-112.5"/>
<text text-anchor="middle" x="318.5" y="-119.5" font-family="Helvetica,sans-Serif" font-size="10.00">saul/periph.h</text>
</a>
</g>
</g>
<!-- Node1&#45;&gt;Node10 -->
<g id="edge10" class="edge">
<title>Node1&#45;&gt;Node10</title>
<path fill="none" stroke="midnightblue" d="M201.89,-280.47C225.07,-249.17 280.91,-173.76 305.96,-139.93"/>
<polygon fill="midnightblue" stroke="midnightblue" points="309.02,-141.68 312.16,-131.56 303.4,-137.51 309.02,-141.68"/>
</g>
<!-- Node3 -->
<g id="node3" class="node">
<title>Node3</title>
<g id="a_node3"><a xlink:href="lpc23xx_8h_source.html" target="_top" xlink:title=" ">
<polygon fill="none" stroke="black" points="129.5,-168.5 129.5,-187.5 193.5,-187.5 193.5,-168.5 129.5,-168.5"/>
<text text-anchor="middle" x="161.5" y="-175.5" font-family="Helvetica,sans-Serif" font-size="10.00">lpc23xx.h</text>
</a>
</g>
</g>
<!-- Node2&#45;&gt;Node3 -->
<g id="edge2" class="edge">
<title>Node2&#45;&gt;Node3</title>
<path fill="none" stroke="midnightblue" d="M161.5,-224.08C161.5,-217.01 161.5,-206.86 161.5,-197.99"/>
<polygon fill="midnightblue" stroke="midnightblue" points="165,-197.75 161.5,-187.75 158,-197.75 165,-197.75"/>
</g>
<!-- Node9 -->
<g id="node9" class="node">
<title>Node9</title>
<g id="a_node9"><a xlink:title=" ">
<polygon fill="none" stroke="#bfbfbf" points="66,-168.5 66,-187.5 111,-187.5 111,-168.5 66,-168.5"/>
<text text-anchor="middle" x="88.5" y="-175.5" font-family="Helvetica,sans-Serif" font-size="10.00">mtd.h</text>
</a>
</g>
</g>
<!-- Node2&#45;&gt;Node9 -->
<g id="edge9" class="edge">
<title>Node2&#45;&gt;Node9</title>
<path fill="none" stroke="midnightblue" d="M149.77,-224.32C138.66,-216.11 121.76,-203.6 108.52,-193.81"/>
<polygon fill="midnightblue" stroke="midnightblue" points="110.56,-190.97 100.44,-187.83 106.4,-196.59 110.56,-190.97"/>
</g>
<!-- Node4 -->
<g id="node4" class="node">
<title>Node4</title>
<g id="a_node4"><a xlink:title=" ">
<polygon fill="none" stroke="#bfbfbf" points="0,-112.5 0,-131.5 101,-131.5 101,-112.5 0,-112.5"/>
<text text-anchor="middle" x="50.5" y="-119.5" font-family="Helvetica,sans-Serif" font-size="10.00">vendor/lpc23xx.h</text>
</a>
</g>
</g>
<!-- Node3&#45;&gt;Node4 -->
<g id="edge3" class="edge">
<title>Node3&#45;&gt;Node4</title>
<path fill="none" stroke="midnightblue" d="M143.67,-168.32C125.78,-159.62 98.02,-146.12 77.45,-136.11"/>
<polygon fill="midnightblue" stroke="midnightblue" points="78.81,-132.88 68.29,-131.65 75.75,-139.18 78.81,-132.88"/>
</g>
<!-- Node5 -->
<g id="node5" class="node">
<title>Node5</title>
<g id="a_node5"><a xlink:href="arm7__common_8h.html" target="_top" xlink:title="ARM7 CPU common declarations.">
<polygon fill="none" stroke="black" points="158,-112.5 158,-131.5 257,-131.5 257,-112.5 158,-112.5"/>
<text text-anchor="middle" x="207.5" y="-119.5" font-family="Helvetica,sans-Serif" font-size="10.00">arm7_common.h</text>
</a>
</g>
</g>
<!-- Node3&#45;&gt;Node5 -->
<g id="edge4" class="edge">
<title>Node3&#45;&gt;Node5</title>
<path fill="none" stroke="midnightblue" d="M169.1,-168.08C175.73,-160.3 185.52,-148.8 193.56,-139.37"/>
<polygon fill="midnightblue" stroke="midnightblue" points="196.23,-141.63 200.05,-131.75 190.9,-137.09 196.23,-141.63"/>
</g>
<!-- Node6 -->
<g id="node6" class="node">
<title>Node6</title>
<g id="a_node6"><a xlink:href="bitarithm_8h.html" target="_top" xlink:title="Helper functions for bit arithmetic.">
<polygon fill="none" stroke="black" points="94,-56.5 94,-75.5 165,-75.5 165,-56.5 94,-56.5"/>
<text text-anchor="middle" x="129.5" y="-63.5" font-family="Helvetica,sans-Serif" font-size="10.00">bitarithm.h</text>
</a>
</g>
</g>
<!-- Node3&#45;&gt;Node6 -->
<g id="edge8" class="edge">
<title>Node3&#45;&gt;Node6</title>
<path fill="none" stroke="midnightblue" d="M158.99,-168.37C153.8,-150.54 141.8,-109.3 134.82,-85.27"/>
<polygon fill="midnightblue" stroke="midnightblue" points="138.15,-84.22 132,-75.59 131.43,-86.17 138.15,-84.22"/>
</g>
<!-- Node5&#45;&gt;Node6 -->
<g id="edge5" class="edge">
<title>Node5&#45;&gt;Node6</title>
<path fill="none" stroke="midnightblue" d="M194.97,-112.32C182.91,-103.98 164.47,-91.21 150.23,-81.35"/>
<polygon fill="midnightblue" stroke="midnightblue" points="152.22,-78.47 142,-75.65 148.23,-84.22 152.22,-78.47"/>
</g>
<!-- Node7 -->
<g id="node7" class="node">
<title>Node7</title>
<g id="a_node7"><a xlink:title=" ">
<polygon fill="none" stroke="#bfbfbf" points="141,-0.5 141,-19.5 194,-19.5 194,-0.5 141,-0.5"/>
<text text-anchor="middle" x="167.5" y="-7.5" font-family="Helvetica,sans-Serif" font-size="10.00">stdint.h</text>
</a>
</g>
</g>
<!-- Node6&#45;&gt;Node7 -->
<g id="edge6" class="edge">
<title>Node6&#45;&gt;Node7</title>
<path fill="none" stroke="midnightblue" d="M135.77,-56.08C141.14,-48.46 149.02,-37.26 155.58,-27.94"/>
<polygon fill="midnightblue" stroke="midnightblue" points="158.45,-29.94 161.34,-19.75 152.72,-25.91 158.45,-29.94"/>
</g>
<!-- Node8 -->
<g id="node8" class="node">
<title>Node8</title>
<g id="a_node8"><a xlink:title=" ">
<polygon fill="none" stroke="#bfbfbf" points="54.5,-0.5 54.5,-19.5 122.5,-19.5 122.5,-0.5 54.5,-0.5"/>
<text text-anchor="middle" x="88.5" y="-7.5" font-family="Helvetica,sans-Serif" font-size="10.00">cpu_conf.h</text>
</a>
</g>
</g>
<!-- Node6&#45;&gt;Node8 -->
<g id="edge7" class="edge">
<title>Node6&#45;&gt;Node8</title>
<path fill="none" stroke="midnightblue" d="M122.73,-56.08C116.94,-48.46 108.44,-37.26 101.36,-27.94"/>
<polygon fill="midnightblue" stroke="midnightblue" points="103.98,-25.6 95.14,-19.75 98.4,-29.83 103.98,-25.6"/>
</g>
<!-- Node11 -->
<g id="node11" class="node">
<title>Node11</title>
<g id="a_node11"><a xlink:href="gpio_8h.html" target="_top" xlink:title="Low&#45;level GPIO peripheral driver interface definitions.">
<polygon fill="none" stroke="black" points="379.5,-56.5 379.5,-75.5 459.5,-75.5 459.5,-56.5 379.5,-56.5"/>
<text text-anchor="middle" x="419.5" y="-63.5" font-family="Helvetica,sans-Serif" font-size="10.00">periph/gpio.h</text>
</a>
</g>
</g>
<!-- Node10&#45;&gt;Node11 -->
<g id="edge11" class="edge">
<title>Node10&#45;&gt;Node11</title>
<path fill="none" stroke="midnightblue" d="M334.73,-112.32C350.85,-103.7 375.8,-90.36 394.46,-80.39"/>
<polygon fill="midnightblue" stroke="midnightblue" points="396.14,-83.46 403.31,-75.65 392.84,-77.28 396.14,-83.46"/>
</g>
<!-- Node15 -->
<g id="node15" class="node">
<title>Node15</title>
<g id="a_node15"><a xlink:href="adc_8h.html" target="_top" xlink:title="Low&#45;level ADC peripheral driver interface definitions.">
<polygon fill="none" stroke="black" points="284,-56.5 284,-75.5 361,-75.5 361,-56.5 284,-56.5"/>
<text text-anchor="middle" x="322.5" y="-63.5" font-family="Helvetica,sans-Serif" font-size="10.00">periph/adc.h</text>
</a>
</g>
</g>
<!-- Node10&#45;&gt;Node15 -->
<g id="edge15" class="edge">
<title>Node10&#45;&gt;Node15</title>
<path fill="none" stroke="midnightblue" d="M319.16,-112.08C319.68,-105.01 320.44,-94.86 321.09,-85.99"/>
<polygon fill="midnightblue" stroke="midnightblue" points="324.6,-85.98 321.85,-75.75 317.62,-85.47 324.6,-85.98"/>
</g>
<!-- Node16 -->
<g id="node16" class="node">
<title>Node16</title>
<g id="a_node16"><a xlink:href="pwm_8h.html" target="_top" xlink:title="Low&#45;level PWM peripheral driver interface definitions.">
<polygon fill="none" stroke="black" points="183,-56.5 183,-75.5 266,-75.5 266,-56.5 183,-56.5"/>
<text text-anchor="middle" x="224.5" y="-63.5" font-family="Helvetica,sans-Serif" font-size="10.00">periph/pwm.h</text>
</a>
</g>
</g>
<!-- Node10&#45;&gt;Node16 -->
<g id="edge20" class="edge">
<title>Node10&#45;&gt;Node16</title>
<path fill="none" stroke="midnightblue" d="M303.4,-112.32C288.6,-103.82 265.81,-90.73 248.52,-80.8"/>
<polygon fill="midnightblue" stroke="midnightblue" points="249.98,-77.6 239.57,-75.65 246.49,-83.67 249.98,-77.6"/>
</g>
<!-- Node12 -->
<g id="node12" class="node">
<title>Node12</title>
<g id="a_node12"><a xlink:title=" ">
<polygon fill="none" stroke="#bfbfbf" points="212,-0.5 212,-19.5 265,-19.5 265,-0.5 212,-0.5"/>
<text text-anchor="middle" x="238.5" y="-7.5" font-family="Helvetica,sans-Serif" font-size="10.00">limits.h</text>
</a>
</g>
</g>
<!-- Node11&#45;&gt;Node12 -->
<g id="edge12" class="edge">
<title>Node11&#45;&gt;Node12</title>
<path fill="none" stroke="midnightblue" d="M390.82,-56.44C359.43,-47.08 309.03,-32.04 274.88,-21.85"/>
<polygon fill="midnightblue" stroke="midnightblue" points="275.86,-18.49 265.28,-18.99 273.86,-25.2 275.86,-18.49"/>
</g>
<!-- Node13 -->
<g id="node13" class="node">
<title>Node13</title>
<g id="a_node13"><a xlink:title=" ">
<polygon fill="none" stroke="#bfbfbf" points="283,-0.5 283,-19.5 362,-19.5 362,-0.5 283,-0.5"/>
<text text-anchor="middle" x="322.5" y="-7.5" font-family="Helvetica,sans-Serif" font-size="10.00">periph_cpu.h</text>
</a>
</g>
</g>
<!-- Node11&#45;&gt;Node13 -->
<g id="edge13" class="edge">
<title>Node11&#45;&gt;Node13</title>
<path fill="none" stroke="midnightblue" d="M403.92,-56.32C388.5,-47.74 364.69,-34.49 346.79,-24.52"/>
<polygon fill="midnightblue" stroke="midnightblue" points="348.49,-21.46 338.05,-19.65 345.08,-27.58 348.49,-21.46"/>
</g>
<!-- Node14 -->
<g id="node14" class="node">
<title>Node14</title>
<g id="a_node14"><a xlink:title=" ">
<polygon fill="none" stroke="#bfbfbf" points="380.5,-0.5 380.5,-19.5 462.5,-19.5 462.5,-0.5 380.5,-0.5"/>
<text text-anchor="middle" x="421.5" y="-7.5" font-family="Helvetica,sans-Serif" font-size="10.00">periph_conf.h</text>
</a>
</g>
</g>
<!-- Node11&#45;&gt;Node14 -->
<g id="edge14" class="edge">
<title>Node11&#45;&gt;Node14</title>
<path fill="none" stroke="midnightblue" d="M419.83,-56.08C420.09,-49.01 420.47,-38.86 420.8,-29.99"/>
<polygon fill="midnightblue" stroke="midnightblue" points="424.3,-29.87 421.18,-19.75 417.31,-29.61 424.3,-29.87"/>
</g>
<!-- Node15&#45;&gt;Node7 -->
<g id="edge17" class="edge">
<title>Node15&#45;&gt;Node7</title>
<path fill="none" stroke="midnightblue" d="M297.94,-56.44C271.98,-47.4 230.83,-33.06 201.7,-22.92"/>
<polygon fill="midnightblue" stroke="midnightblue" points="202.54,-19.5 191.95,-19.52 200.24,-26.11 202.54,-19.5"/>
</g>
<!-- Node15&#45;&gt;Node12 -->
<g id="edge16" class="edge">
<title>Node15&#45;&gt;Node12</title>
<path fill="none" stroke="midnightblue" d="M309,-56.32C295.9,-47.9 275.79,-34.97 260.39,-25.07"/>
<polygon fill="midnightblue" stroke="midnightblue" points="262.27,-22.12 251.96,-19.65 258.48,-28.01 262.27,-22.12"/>
</g>
<!-- Node15&#45;&gt;Node13 -->
<g id="edge18" class="edge">
<title>Node15&#45;&gt;Node13</title>
<path fill="none" stroke="midnightblue" d="M322.5,-56.08C322.5,-49.01 322.5,-38.86 322.5,-29.99"/>
<polygon fill="midnightblue" stroke="midnightblue" points="326,-29.75 322.5,-19.75 319,-29.75 326,-29.75"/>
</g>
<!-- Node15&#45;&gt;Node14 -->
<g id="edge19" class="edge">
<title>Node15&#45;&gt;Node14</title>
<path fill="none" stroke="midnightblue" d="M338.41,-56.32C354.14,-47.74 378.44,-34.49 396.71,-24.52"/>
<polygon fill="midnightblue" stroke="midnightblue" points="398.53,-27.52 405.63,-19.65 395.18,-21.37 398.53,-27.52"/>
</g>
<!-- Node16&#45;&gt;Node7 -->
<g id="edge21" class="edge">
<title>Node16&#45;&gt;Node7</title>
<path fill="none" stroke="midnightblue" d="M215.34,-56.32C207,-48.42 194.47,-36.55 184.32,-26.94"/>
<polygon fill="midnightblue" stroke="midnightblue" points="186.49,-24.17 176.82,-19.83 181.68,-29.25 186.49,-24.17"/>
</g>
<!-- Node16&#45;&gt;Node12 -->
<g id="edge22" class="edge">
<title>Node16&#45;&gt;Node12</title>
<path fill="none" stroke="midnightblue" d="M226.81,-56.08C228.67,-48.93 231.34,-38.64 233.65,-29.69"/>
<polygon fill="midnightblue" stroke="midnightblue" points="237.11,-30.31 236.23,-19.75 230.33,-28.55 237.11,-30.31"/>
</g>
<!-- Node16&#45;&gt;Node13 -->
<g id="edge23" class="edge">
<title>Node16&#45;&gt;Node13</title>
<path fill="none" stroke="midnightblue" d="M240.25,-56.32C255.82,-47.74 279.88,-34.49 297.96,-24.52"/>
<polygon fill="midnightblue" stroke="midnightblue" points="299.72,-27.55 306.79,-19.65 296.35,-21.42 299.72,-27.55"/>
</g>
<!-- Node16&#45;&gt;Node14 -->
<g id="edge24" class="edge">
<title>Node16&#45;&gt;Node14</title>
<path fill="none" stroke="midnightblue" d="M255.72,-56.44C289.43,-47.2 343.3,-32.44 380.43,-22.26"/>
<polygon fill="midnightblue" stroke="midnightblue" points="381.71,-25.54 390.43,-19.52 379.86,-18.78 381.71,-25.54"/>
</g>
</g>
</svg>
