<?xml version="1.0" encoding="UTF-8" standalone="no"?>
<!DOCTYPE svg PUBLIC "-//W3C//DTD SVG 1.1//EN"
 "http://www.w3.org/Graphics/SVG/1.1/DTD/svg11.dtd">
<!-- Generated by graphviz version 2.40.1 (20161225.0304)
 -->
<!-- Title: drivers/mhz19/include/mhz19_params.h Pages: 1 -->
<svg width="296pt" height="319pt"
 viewBox="0.00 0.00 295.50 319.00" xmlns="http://www.w3.org/2000/svg" xmlns:xlink="http://www.w3.org/1999/xlink">
<g id="graph0" class="graph" transform="scale(1 1) rotate(0) translate(4 315)">
<title>drivers/mhz19/include/mhz19_params.h</title>
<!-- Node0 -->
<g id="node1" class="node">
<title>Node0</title>
<polygon fill="#bfbfbf" stroke="#000000" points="38.5,-280.5 38.5,-310.5 150.5,-310.5 150.5,-280.5 38.5,-280.5"/>
<text text-anchor="start" x="46.5" y="-298.5" font-family="Helvetica,sans-Serif" font-size="10.00" fill="#000000">drivers/mhz19/include</text>
<text text-anchor="middle" x="94.5" y="-287.5" font-family="Helvetica,sans-Serif" font-size="10.00" fill="#000000">/mhz19_params.h</text>
</g>
<!-- Node1 -->
<g id="node2" class="node">
<title>Node1</title>
<polygon fill="none" stroke="#bfbfbf" points="0,-224.5 0,-243.5 49,-243.5 49,-224.5 0,-224.5"/>
<text text-anchor="middle" x="24.5" y="-231.5" font-family="Helvetica,sans-Serif" font-size="10.00" fill="#000000">board.h</text>
</g>
<!-- Node0&#45;&gt;Node1 -->
<g id="edge1" class="edge">
<title>Node0&#45;&gt;Node1</title>
<path fill="none" stroke="#191970" d="M77.1966,-280.2977C66.9738,-271.3163 54.0177,-259.9334 43.5104,-250.702"/>
<polygon fill="#191970" stroke="#191970" points="45.5305,-247.8178 35.7079,-243.8469 40.9103,-253.0766 45.5305,-247.8178"/>
</g>
<!-- Node2 -->
<g id="node3" class="node">
<title>Node2</title>
<g id="a_node3"><a xlink:href="mhz19_8h.html" target="_top" xlink:title="Interface definition for the MH&#45;Z19 CO2 sensor driver. ">
<polygon fill="none" stroke="#000000" points="67.5,-224.5 67.5,-243.5 121.5,-243.5 121.5,-224.5 67.5,-224.5"/>
<text text-anchor="middle" x="94.5" y="-231.5" font-family="Helvetica,sans-Serif" font-size="10.00" fill="#000000">mhz19.h</text>
</a>
</g>
</g>
<!-- Node0&#45;&gt;Node2 -->
<g id="edge2" class="edge">
<title>Node0&#45;&gt;Node2</title>
<path fill="none" stroke="#191970" d="M94.5,-280.2977C94.5,-272.3834 94.5,-262.6043 94.5,-254.0759"/>
<polygon fill="#191970" stroke="#191970" points="98.0001,-253.8469 94.5,-243.8469 91.0001,-253.847 98.0001,-253.8469"/>
</g>
<!-- Node10 -->
<g id="node11" class="node">
<title>Node10</title>
<g id="a_node11"><a xlink:href="saul__reg_8h.html" target="_top" xlink:title="SAUL registry interface definition. ">
<polygon fill="none" stroke="#000000" points="139.5,-224.5 139.5,-243.5 201.5,-243.5 201.5,-224.5 139.5,-224.5"/>
<text text-anchor="middle" x="170.5" y="-231.5" font-family="Helvetica,sans-Serif" font-size="10.00" fill="#000000">saul_reg.h</text>
</a>
</g>
</g>
<!-- Node0&#45;&gt;Node10 -->
<g id="edge12" class="edge">
<title>Node0&#45;&gt;Node10</title>
<path fill="none" stroke="#191970" d="M113.2865,-280.2977C124.6053,-271.1384 139.0105,-259.4816 150.5346,-250.1562"/>
<polygon fill="#191970" stroke="#191970" points="152.7595,-252.8583 158.3314,-243.8469 148.3561,-247.4167 152.7595,-252.8583"/>
</g>
<!-- Node3 -->
<g id="node4" class="node">
<title>Node3</title>
<polygon fill="none" stroke="#bfbfbf" points="24.5,-168.5 24.5,-187.5 80.5,-187.5 80.5,-168.5 24.5,-168.5"/>
<text text-anchor="middle" x="52.5" y="-175.5" font-family="Helvetica,sans-Serif" font-size="10.00" fill="#000000">stdbool.h</text>
</g>
<!-- Node2&#45;&gt;Node3 -->
<g id="edge3" class="edge">
<title>Node2&#45;&gt;Node3</title>
<path fill="none" stroke="#191970" d="M87.1842,-224.2455C81.2821,-216.3761 72.8258,-205.101 65.7406,-195.6542"/>
<polygon fill="#191970" stroke="#191970" points="68.5321,-193.5427 59.732,-187.6427 62.932,-197.7427 68.5321,-193.5427"/>
</g>
<!-- Node4 -->
<g id="node5" class="node">
<title>Node4</title>
<g id="a_node5"><a xlink:href="saul_8h.html" target="_top" xlink:title="Definition of the generic [S]ensor [A]ctuator [U]ber [L]ayer. ">
<polygon fill="none" stroke="#000000" points="99,-168.5 99,-187.5 142,-187.5 142,-168.5 99,-168.5"/>
<text text-anchor="middle" x="120.5" y="-175.5" font-family="Helvetica,sans-Serif" font-size="10.00" fill="#000000">saul.h</text>
</a>
</g>
</g>
<!-- Node2&#45;&gt;Node4 -->
<g id="edge4" class="edge">
<title>Node2&#45;&gt;Node4</title>
<path fill="none" stroke="#191970" d="M99.0289,-224.2455C102.5334,-216.6973 107.4927,-206.0158 111.7623,-196.8197"/>
<polygon fill="#191970" stroke="#191970" points="114.9864,-198.1867 116.023,-187.6427 108.6373,-195.2389 114.9864,-198.1867"/>
</g>
<!-- Node5 -->
<g id="node6" class="node">
<title>Node5</title>
<polygon fill="none" stroke="#bfbfbf" points="114,-56.5 114,-75.5 163,-75.5 163,-56.5 114,-56.5"/>
<text text-anchor="middle" x="138.5" y="-63.5" font-family="Helvetica,sans-Serif" font-size="10.00" fill="#000000">stdint.h</text>
</g>
<!-- Node4&#45;&gt;Node5 -->
<g id="edge5" class="edge">
<title>Node4&#45;&gt;Node5</title>
<path fill="none" stroke="#191970" d="M122.0347,-168.4509C124.9704,-150.184 131.4358,-109.9553 135.3343,-85.6976"/>
<polygon fill="#191970" stroke="#191970" points="138.838,-85.9536 136.9692,-75.5249 131.9267,-84.8428 138.838,-85.9536"/>
</g>
<!-- Node6 -->
<g id="node7" class="node">
<title>Node6</title>
<g id="a_node7"><a xlink:href="errno_8h.html" target="_top" xlink:title="errno.h">
<polygon fill="none" stroke="#000000" points="57,-112.5 57,-131.5 104,-131.5 104,-112.5 57,-112.5"/>
<text text-anchor="middle" x="80.5" y="-119.5" font-family="Helvetica,sans-Serif" font-size="10.00" fill="#000000">errno.h</text>
</a>
</g>
</g>
<!-- Node4&#45;&gt;Node6 -->
<g id="edge6" class="edge">
<title>Node4&#45;&gt;Node6</title>
<path fill="none" stroke="#191970" d="M113.5325,-168.2455C107.9689,-160.4564 100.022,-149.3308 93.3171,-139.9439"/>
<polygon fill="#191970" stroke="#191970" points="96.0481,-137.7457 87.3876,-131.6427 90.352,-141.8144 96.0481,-137.7457"/>
</g>
<!-- Node7 -->
<g id="node8" class="node">
<title>Node7</title>
<g id="a_node8"><a xlink:href="phydat_8h.html" target="_top" xlink:title="Generic data container for physical data interface. ">
<polygon fill="none" stroke="#000000" points="198.5,-112.5 198.5,-131.5 252.5,-131.5 252.5,-112.5 198.5,-112.5"/>
<text text-anchor="middle" x="225.5" y="-119.5" font-family="Helvetica,sans-Serif" font-size="10.00" fill="#000000">phydat.h</text>
</a>
</g>
</g>
<!-- Node4&#45;&gt;Node7 -->
<g id="edge7" class="edge">
<title>Node4&#45;&gt;Node7</title>
<path fill="none" stroke="#191970" d="M138.7896,-168.2455C155.2762,-159.4527 179.7352,-146.4079 198.4765,-136.4125"/>
<polygon fill="#191970" stroke="#191970" points="200.2435,-139.4368 207.42,-131.6427 196.9494,-133.2604 200.2435,-139.4368"/>
</g>
<!-- Node7&#45;&gt;Node5 -->
<g id="edge9" class="edge">
<title>Node7&#45;&gt;Node5</title>
<path fill="none" stroke="#191970" d="M210.3458,-112.2455C196.9973,-103.6534 177.3414,-91.0014 161.9617,-81.1018"/>
<polygon fill="#191970" stroke="#191970" points="163.7836,-78.1121 153.4806,-75.6427 159.9949,-83.9982 163.7836,-78.1121"/>
</g>
<!-- Node8 -->
<g id="node9" class="node">
<title>Node8</title>
<polygon fill="none" stroke="#bfbfbf" points="235.5,-.5 235.5,-19.5 287.5,-19.5 287.5,-.5 235.5,-.5"/>
<text text-anchor="middle" x="261.5" y="-7.5" font-family="Helvetica,sans-Serif" font-size="10.00" fill="#000000">stddef.h</text>
</g>
<!-- Node7&#45;&gt;Node8 -->
<g id="edge8" class="edge">
<title>Node7&#45;&gt;Node8</title>
<path fill="none" stroke="#191970" d="M242.8758,-112.4558C255.3589,-104.5215 271.2182,-91.9621 278.5,-76 285.4552,-60.754 279.5119,-42.1772 272.8129,-28.6211"/>
<polygon fill="#191970" stroke="#191970" points="275.838,-26.8579 267.9751,-19.7569 269.6936,-30.2114 275.838,-26.8579"/>
</g>
<!-- Node9 -->
<g id="node10" class="node">
<title>Node9</title>
<g id="a_node10"><a xlink:href="kernel__defines_8h.html" target="_top" xlink:title="Common macros and compiler attributes/pragmas configuration. ">
<polygon fill="none" stroke="#000000" points="181.5,-56.5 181.5,-75.5 269.5,-75.5 269.5,-56.5 181.5,-56.5"/>
<text text-anchor="middle" x="225.5" y="-63.5" font-family="Helvetica,sans-Serif" font-size="10.00" fill="#000000">kernel_defines.h</text>
</a>
</g>
</g>
<!-- Node7&#45;&gt;Node9 -->
<g id="edge10" class="edge">
<title>Node7&#45;&gt;Node9</title>
<path fill="none" stroke="#191970" d="M225.5,-112.2455C225.5,-104.9382 225.5,-94.6944 225.5,-85.7046"/>
<polygon fill="#191970" stroke="#191970" points="229.0001,-85.6426 225.5,-75.6427 222.0001,-85.6427 229.0001,-85.6426"/>
</g>
<!-- Node9&#45;&gt;Node8 -->
<g id="edge11" class="edge">
<title>Node9&#45;&gt;Node8</title>
<path fill="none" stroke="#191970" d="M231.7707,-56.2455C236.7264,-48.5367 243.783,-37.5598 249.7776,-28.2348"/>
<polygon fill="#191970" stroke="#191970" points="252.8376,-29.9471 255.3011,-19.6427 246.9494,-26.1618 252.8376,-29.9471"/>
</g>
<!-- Node10&#45;&gt;Node4 -->
<g id="edge14" class="edge">
<title>Node10&#45;&gt;Node4</title>
<path fill="none" stroke="#191970" d="M161.7907,-224.2455C154.6927,-216.2958 144.4916,-204.8706 136.005,-195.3656"/>
<polygon fill="#191970" stroke="#191970" points="138.3805,-192.771 129.1095,-187.6427 133.1589,-197.4331 138.3805,-192.771"/>
</g>
<!-- Node10&#45;&gt;Node5 -->
<g id="edge13" class="edge">
<title>Node10&#45;&gt;Node5</title>
<path fill="none" stroke="#191970" d="M168.6879,-224.4862C163.6075,-197.8144 149.1499,-121.9117 142.2514,-85.695"/>
<polygon fill="#191970" stroke="#191970" points="145.6814,-84.9963 140.372,-75.8279 138.805,-86.3062 145.6814,-84.9963"/>
</g>
<!-- Node10&#45;&gt;Node7 -->
<g id="edge15" class="edge">
<title>Node10&#45;&gt;Node7</title>
<path fill="none" stroke="#191970" d="M175.1893,-224.4509C184.2814,-205.936 204.4531,-164.8591 216.3078,-140.7187"/>
<polygon fill="#191970" stroke="#191970" points="219.5563,-142.0438 220.8226,-131.5249 213.273,-138.9582 219.5563,-142.0438"/>
</g>
</g>
</svg>
