<?xml version="1.0" encoding="UTF-8" standalone="no"?>
<!DOCTYPE svg PUBLIC "-//W3C//DTD SVG 1.1//EN"
 "http://www.w3.org/Graphics/SVG/1.1/DTD/svg11.dtd">
<!-- Generated by graphviz version 2.43.0 (0)
 -->
<!-- Title: drivers/mhz19/include/mhz19_params.h Pages: 1 -->
<svg width="371pt" height="319pt"
 viewBox="0.00 0.00 370.50 319.00" xmlns="http://www.w3.org/2000/svg" xmlns:xlink="http://www.w3.org/1999/xlink">
<g id="graph0" class="graph" transform="scale(1 1) rotate(0) translate(4 315)">
<title>drivers/mhz19/include/mhz19_params.h</title>
<!-- Node1 -->
<g id="node1" class="node">
<title>Node1</title>
<g id="a_node1"><a xlink:title="Default configuration for MH&#45;Z19.">
<polygon fill="#bfbfbf" stroke="black" points="38,-280.5 38,-310.5 163,-310.5 163,-280.5 38,-280.5"/>
<text text-anchor="start" x="46" y="-298.5" font-family="Helvetica,sans-Serif" font-size="10.00">drivers/mhz19/include</text>
<text text-anchor="middle" x="100.5" y="-287.5" font-family="Helvetica,sans-Serif" font-size="10.00">/mhz19_params.h</text>
</a>
</g>
</g>
<!-- Node2 -->
<g id="node2" class="node">
<title>Node2</title>
<g id="a_node2"><a xlink:title=" ">
<polygon fill="none" stroke="#bfbfbf" points="0,-224.5 0,-243.5 53,-243.5 53,-224.5 0,-224.5"/>
<text text-anchor="middle" x="26.5" y="-231.5" font-family="Helvetica,sans-Serif" font-size="10.00">board.h</text>
</a>
</g>
</g>
<!-- Node1&#45;&gt;Node2 -->
<g id="edge1" class="edge">
<title>Node1&#45;&gt;Node2</title>
<path fill="none" stroke="midnightblue" d="M82.96,-280.4C71.66,-271.31 56.96,-259.49 45.39,-250.19"/>
<polygon fill="midnightblue" stroke="midnightblue" points="47.25,-247.2 37.27,-243.66 42.87,-252.65 47.25,-247.2"/>
</g>
<!-- Node3 -->
<g id="node3" class="node">
<title>Node3</title>
<g id="a_node3"><a xlink:href="mhz19_8h.html" target="_top" xlink:title="Interface definition for the MH&#45;Z19 CO2 sensor driver.">
<polygon fill="none" stroke="black" points="71,-224.5 71,-243.5 130,-243.5 130,-224.5 71,-224.5"/>
<text text-anchor="middle" x="100.5" y="-231.5" font-family="Helvetica,sans-Serif" font-size="10.00">mhz19.h</text>
</a>
</g>
</g>
<!-- Node1&#45;&gt;Node3 -->
<g id="edge2" class="edge">
<title>Node1&#45;&gt;Node3</title>
<path fill="none" stroke="midnightblue" d="M100.5,-280.4C100.5,-272.47 100.5,-262.46 100.5,-253.86"/>
<polygon fill="midnightblue" stroke="midnightblue" points="104,-253.66 100.5,-243.66 97,-253.66 104,-253.66"/>
</g>
<!-- Node11 -->
<g id="node11" class="node">
<title>Node11</title>
<g id="a_node11"><a xlink:href="saul__reg_8h.html" target="_top" xlink:title="SAUL registry interface definition.">
<polygon fill="none" stroke="black" points="148,-224.5 148,-243.5 215,-243.5 215,-224.5 148,-224.5"/>
<text text-anchor="middle" x="181.5" y="-231.5" font-family="Helvetica,sans-Serif" font-size="10.00">saul_reg.h</text>
</a>
</g>
</g>
<!-- Node1&#45;&gt;Node11 -->
<g id="edge13" class="edge">
<title>Node1&#45;&gt;Node11</title>
<path fill="none" stroke="midnightblue" d="M119.7,-280.4C132.32,-271.13 148.79,-259.03 161.56,-249.65"/>
<polygon fill="midnightblue" stroke="midnightblue" points="163.73,-252.4 169.71,-243.66 159.58,-246.76 163.73,-252.4"/>
</g>
<!-- Node4 -->
<g id="node4" class="node">
<title>Node4</title>
<g id="a_node4"><a xlink:title=" ">
<polygon fill="none" stroke="#bfbfbf" points="26.5,-168.5 26.5,-187.5 88.5,-187.5 88.5,-168.5 26.5,-168.5"/>
<text text-anchor="middle" x="57.5" y="-175.5" font-family="Helvetica,sans-Serif" font-size="10.00">stdbool.h</text>
</a>
</g>
</g>
<!-- Node3&#45;&gt;Node4 -->
<g id="edge3" class="edge">
<title>Node3&#45;&gt;Node4</title>
<path fill="none" stroke="midnightblue" d="M93.4,-224.08C87.26,-216.38 78.23,-205.03 70.76,-195.65"/>
<polygon fill="midnightblue" stroke="midnightblue" points="73.44,-193.39 64.47,-187.75 67.96,-197.75 73.44,-193.39"/>
</g>
<!-- Node5 -->
<g id="node5" class="node">
<title>Node5</title>
<g id="a_node5"><a xlink:href="saul_8h.html" target="_top" xlink:title="Definition of the generic [S]ensor [A]ctuator [U]ber [L]ayer.">
<polygon fill="none" stroke="black" points="106.5,-168.5 106.5,-187.5 152.5,-187.5 152.5,-168.5 106.5,-168.5"/>
<text text-anchor="middle" x="129.5" y="-175.5" font-family="Helvetica,sans-Serif" font-size="10.00">saul.h</text>
</a>
</g>
</g>
<!-- Node3&#45;&gt;Node5 -->
<g id="edge4" class="edge">
<title>Node3&#45;&gt;Node5</title>
<path fill="none" stroke="midnightblue" d="M105.29,-224.08C109.26,-216.69 115.03,-205.95 119.93,-196.81"/>
<polygon fill="midnightblue" stroke="midnightblue" points="123.15,-198.22 124.8,-187.75 116.99,-194.91 123.15,-198.22"/>
</g>
<!-- Node6 -->
<g id="node6" class="node">
<title>Node6</title>
<g id="a_node6"><a xlink:title=" ">
<polygon fill="none" stroke="#bfbfbf" points="174,-0.5 174,-19.5 227,-19.5 227,-0.5 174,-0.5"/>
<text text-anchor="middle" x="200.5" y="-7.5" font-family="Helvetica,sans-Serif" font-size="10.00">stdint.h</text>
</a>
</g>
</g>
<!-- Node5&#45;&gt;Node6 -->
<g id="edge5" class="edge">
<title>Node5&#45;&gt;Node6</title>
<path fill="none" stroke="midnightblue" d="M118.73,-168.48C104.78,-156.35 83.3,-133.2 92.5,-112 109.5,-72.82 150.03,-41.9 176.31,-25.06"/>
<polygon fill="midnightblue" stroke="midnightblue" points="178.3,-27.95 184.95,-19.7 174.61,-22 178.3,-27.95"/>
</g>
<!-- Node7 -->
<g id="node7" class="node">
<title>Node7</title>
<g id="a_node7"><a xlink:href="errno_8h.html" target="_top" xlink:title=" ">
<polygon fill="none" stroke="black" points="102,-112.5 102,-131.5 153,-131.5 153,-112.5 102,-112.5"/>
<text text-anchor="middle" x="127.5" y="-119.5" font-family="Helvetica,sans-Serif" font-size="10.00">errno.h</text>
</a>
</g>
</g>
<!-- Node5&#45;&gt;Node7 -->
<g id="edge6" class="edge">
<title>Node5&#45;&gt;Node7</title>
<path fill="none" stroke="midnightblue" d="M129.17,-168.08C128.91,-161.01 128.53,-150.86 128.2,-141.99"/>
<polygon fill="midnightblue" stroke="midnightblue" points="131.69,-141.61 127.82,-131.75 124.7,-141.87 131.69,-141.61"/>
</g>
<!-- Node8 -->
<g id="node8" class="node">
<title>Node8</title>
<g id="a_node8"><a xlink:href="phydat_8h.html" target="_top" xlink:title="Generic data container for physical data interface.">
<polygon fill="none" stroke="black" points="210,-112.5 210,-131.5 269,-131.5 269,-112.5 210,-112.5"/>
<text text-anchor="middle" x="239.5" y="-119.5" font-family="Helvetica,sans-Serif" font-size="10.00">phydat.h</text>
</a>
</g>
</g>
<!-- Node5&#45;&gt;Node8 -->
<g id="edge7" class="edge">
<title>Node5&#45;&gt;Node8</title>
<path fill="none" stroke="midnightblue" d="M147.17,-168.32C164.89,-159.62 192.4,-146.12 212.79,-136.11"/>
<polygon fill="midnightblue" stroke="midnightblue" points="214.44,-139.2 221.87,-131.65 211.35,-132.92 214.44,-139.2"/>
</g>
<!-- Node8&#45;&gt;Node6 -->
<g id="edge9" class="edge">
<title>Node8&#45;&gt;Node6</title>
<path fill="none" stroke="midnightblue" d="M236.44,-112.37C230.12,-94.54 215.5,-53.3 206.98,-29.27"/>
<polygon fill="midnightblue" stroke="midnightblue" points="210.19,-27.85 203.55,-19.59 203.59,-30.19 210.19,-27.85"/>
</g>
<!-- Node9 -->
<g id="node9" class="node">
<title>Node9</title>
<g id="a_node9"><a xlink:title=" ">
<polygon fill="none" stroke="#bfbfbf" points="306.5,-0.5 306.5,-19.5 362.5,-19.5 362.5,-0.5 306.5,-0.5"/>
<text text-anchor="middle" x="334.5" y="-7.5" font-family="Helvetica,sans-Serif" font-size="10.00">stddef.h</text>
</a>
</g>
</g>
<!-- Node8&#45;&gt;Node9 -->
<g id="edge8" class="edge">
<title>Node8&#45;&gt;Node9</title>
<path fill="none" stroke="midnightblue" d="M269.02,-118.53C296.32,-114.5 335.46,-103.89 354.5,-76 364.34,-61.58 356.14,-42.13 347.46,-28.27"/>
<polygon fill="midnightblue" stroke="midnightblue" points="350.12,-25.97 341.58,-19.7 344.35,-29.93 350.12,-25.97"/>
</g>
<!-- Node10 -->
<g id="node10" class="node">
<title>Node10</title>
<g id="a_node10"><a xlink:href="kernel__defines_8h.html" target="_top" xlink:title="Common macros and compiler attributes/pragmas configuration.">
<polygon fill="none" stroke="black" points="248,-56.5 248,-75.5 345,-75.5 345,-56.5 248,-56.5"/>
<text text-anchor="middle" x="296.5" y="-63.5" font-family="Helvetica,sans-Serif" font-size="10.00">kernel_defines.h</text>
</a>
</g>
</g>
<!-- Node8&#45;&gt;Node10 -->
<g id="edge10" class="edge">
<title>Node8&#45;&gt;Node10</title>
<path fill="none" stroke="midnightblue" d="M248.66,-112.32C257,-104.42 269.53,-92.55 279.68,-82.94"/>
<polygon fill="midnightblue" stroke="midnightblue" points="282.32,-85.25 287.18,-75.83 277.51,-80.17 282.32,-85.25"/>
</g>
<!-- Node10&#45;&gt;Node6 -->
<g id="edge12" class="edge">
<title>Node10&#45;&gt;Node6</title>
<path fill="none" stroke="midnightblue" d="M281.08,-56.32C265.96,-47.82 242.68,-34.73 225.03,-24.8"/>
<polygon fill="midnightblue" stroke="midnightblue" points="226.32,-21.51 215.89,-19.65 222.89,-27.61 226.32,-21.51"/>
</g>
<!-- Node10&#45;&gt;Node9 -->
<g id="edge11" class="edge">
<title>Node10&#45;&gt;Node9</title>
<path fill="none" stroke="midnightblue" d="M302.77,-56.08C308.14,-48.46 316.02,-37.26 322.58,-27.94"/>
<polygon fill="midnightblue" stroke="midnightblue" points="325.45,-29.94 328.34,-19.75 319.72,-25.91 325.45,-29.94"/>
</g>
<!-- Node11&#45;&gt;Node5 -->
<g id="edge15" class="edge">
<title>Node11&#45;&gt;Node5</title>
<path fill="none" stroke="midnightblue" d="M172.91,-224.08C165.34,-216.22 154.12,-204.57 144.99,-195.08"/>
<polygon fill="midnightblue" stroke="midnightblue" points="147.38,-192.53 137.93,-187.75 142.34,-197.38 147.38,-192.53"/>
</g>
<!-- Node11&#45;&gt;Node6 -->
<g id="edge14" class="edge">
<title>Node11&#45;&gt;Node6</title>
<path fill="none" stroke="midnightblue" d="M182.24,-224.3C185.04,-191.63 194.95,-75.87 198.88,-29.96"/>
<polygon fill="midnightblue" stroke="midnightblue" points="202.37,-30.15 199.74,-19.88 195.4,-29.55 202.37,-30.15"/>
</g>
<!-- Node11&#45;&gt;Node8 -->
<g id="edge16" class="edge">
<title>Node11&#45;&gt;Node8</title>
<path fill="none" stroke="midnightblue" d="M186.05,-224.37C195.54,-206.38 217.59,-164.55 230.21,-140.63"/>
<polygon fill="midnightblue" stroke="midnightblue" points="233.4,-142.07 234.97,-131.59 227.21,-138.8 233.4,-142.07"/>
</g>
</g>
</svg>
