<?xml version="1.0" encoding="UTF-8" standalone="no"?>
<!DOCTYPE svg PUBLIC "-//W3C//DTD SVG 1.1//EN"
 "http://www.w3.org/Graphics/SVG/1.1/DTD/svg11.dtd">
<!-- Generated by graphviz version 2.40.1 (20161225.0304)
 -->
<!-- Title: drivers/include/mhz19.h Pages: 1 -->
<svg width="272pt" height="252pt"
 viewBox="0.00 0.00 272.00 252.00" xmlns="http://www.w3.org/2000/svg" xmlns:xlink="http://www.w3.org/1999/xlink">
<g id="graph0" class="graph" transform="scale(1 1) rotate(0) translate(4 248)">
<title>drivers/include/mhz19.h</title>
<!-- Node0 -->
<g id="node1" class="node">
<title>Node0</title>
<polygon fill="#bfbfbf" stroke="#000000" points="2,-224.5 2,-243.5 122,-243.5 122,-224.5 2,-224.5"/>
<text text-anchor="middle" x="62" y="-231.5" font-family="Helvetica,sans-Serif" font-size="10.00" fill="#000000">drivers/include/mhz19.h</text>
</g>
<!-- Node1 -->
<g id="node2" class="node">
<title>Node1</title>
<polygon fill="none" stroke="#bfbfbf" points="0,-168.5 0,-187.5 56,-187.5 56,-168.5 0,-168.5"/>
<text text-anchor="middle" x="28" y="-175.5" font-family="Helvetica,sans-Serif" font-size="10.00" fill="#000000">stdbool.h</text>
</g>
<!-- Node0&#45;&gt;Node1 -->
<g id="edge1" class="edge">
<title>Node0&#45;&gt;Node1</title>
<path fill="none" stroke="#191970" d="M56.0777,-224.2455C51.3973,-216.5367 44.7327,-205.5598 39.0711,-196.2348"/>
<polygon fill="#191970" stroke="#191970" points="42.0361,-194.3741 33.8545,-187.6427 36.0525,-198.007 42.0361,-194.3741"/>
</g>
<!-- Node2 -->
<g id="node3" class="node">
<title>Node2</title>
<g id="a_node3"><a xlink:href="saul_8h.html" target="_top" xlink:title="Definition of the generic [S]ensor [A]ctuator [U]ber [L]ayer. ">
<polygon fill="none" stroke="#000000" points="74.5,-168.5 74.5,-187.5 117.5,-187.5 117.5,-168.5 74.5,-168.5"/>
<text text-anchor="middle" x="96" y="-175.5" font-family="Helvetica,sans-Serif" font-size="10.00" fill="#000000">saul.h</text>
</a>
</g>
</g>
<!-- Node0&#45;&gt;Node2 -->
<g id="edge2" class="edge">
<title>Node0&#45;&gt;Node2</title>
<path fill="none" stroke="#191970" d="M67.9223,-224.2455C72.6027,-216.5367 79.2673,-205.5598 84.9289,-196.2348"/>
<polygon fill="#191970" stroke="#191970" points="87.9475,-198.007 90.1455,-187.6427 81.9639,-194.3741 87.9475,-198.007"/>
</g>
<!-- Node3 -->
<g id="node4" class="node">
<title>Node3</title>
<polygon fill="none" stroke="#bfbfbf" points="53.5,-56.5 53.5,-75.5 102.5,-75.5 102.5,-56.5 53.5,-56.5"/>
<text text-anchor="middle" x="78" y="-63.5" font-family="Helvetica,sans-Serif" font-size="10.00" fill="#000000">stdint.h</text>
</g>
<!-- Node2&#45;&gt;Node3 -->
<g id="edge3" class="edge">
<title>Node2&#45;&gt;Node3</title>
<path fill="none" stroke="#191970" d="M86.3508,-168.4346C78.35,-159.7723 67.5738,-146.2221 63,-132 57.9545,-116.3112 62.9395,-98.0034 68.4789,-84.655"/>
<polygon fill="#191970" stroke="#191970" points="71.6723,-86.0878 72.666,-75.5397 65.3113,-83.1658 71.6723,-86.0878"/>
</g>
<!-- Node4 -->
<g id="node5" class="node">
<title>Node4</title>
<g id="a_node5"><a xlink:href="errno_8h.html" target="_top" xlink:title="errno.h">
<polygon fill="none" stroke="#000000" points="72.5,-112.5 72.5,-131.5 119.5,-131.5 119.5,-112.5 72.5,-112.5"/>
<text text-anchor="middle" x="96" y="-119.5" font-family="Helvetica,sans-Serif" font-size="10.00" fill="#000000">errno.h</text>
</a>
</g>
</g>
<!-- Node2&#45;&gt;Node4 -->
<g id="edge4" class="edge">
<title>Node2&#45;&gt;Node4</title>
<path fill="none" stroke="#191970" d="M96,-168.2455C96,-160.9382 96,-150.6944 96,-141.7046"/>
<polygon fill="#191970" stroke="#191970" points="99.5001,-141.6426 96,-131.6427 92.5001,-141.6427 99.5001,-141.6426"/>
</g>
<!-- Node5 -->
<g id="node6" class="node">
<title>Node5</title>
<g id="a_node6"><a xlink:href="phydat_8h.html" target="_top" xlink:title="Generic data container for physical data interface. ">
<polygon fill="none" stroke="#000000" points="138,-112.5 138,-131.5 192,-131.5 192,-112.5 138,-112.5"/>
<text text-anchor="middle" x="165" y="-119.5" font-family="Helvetica,sans-Serif" font-size="10.00" fill="#000000">phydat.h</text>
</a>
</g>
</g>
<!-- Node2&#45;&gt;Node5 -->
<g id="edge5" class="edge">
<title>Node2&#45;&gt;Node5</title>
<path fill="none" stroke="#191970" d="M108.0189,-168.2455C118.2098,-159.9746 133.0362,-147.9416 145.0107,-138.2232"/>
<polygon fill="#191970" stroke="#191970" points="147.5598,-140.662 153.1188,-131.6427 143.1486,-135.2268 147.5598,-140.662"/>
</g>
<!-- Node5&#45;&gt;Node3 -->
<g id="edge7" class="edge">
<title>Node5&#45;&gt;Node3</title>
<path fill="none" stroke="#191970" d="M149.8458,-112.2455C136.4973,-103.6534 116.8414,-91.0014 101.4617,-81.1018"/>
<polygon fill="#191970" stroke="#191970" points="103.2836,-78.1121 92.9806,-75.6427 99.4949,-83.9982 103.2836,-78.1121"/>
</g>
<!-- Node6 -->
<g id="node7" class="node">
<title>Node6</title>
<polygon fill="none" stroke="#bfbfbf" points="158,-.5 158,-19.5 210,-19.5 210,-.5 158,-.5"/>
<text text-anchor="middle" x="184" y="-7.5" font-family="Helvetica,sans-Serif" font-size="10.00" fill="#000000">stddef.h</text>
</g>
<!-- Node5&#45;&gt;Node6 -->
<g id="edge6" class="edge">
<title>Node5&#45;&gt;Node6</title>
<path fill="none" stroke="#191970" d="M164.3351,-112.4945C163.6466,-99.5732 163.1471,-75.8046 167,-56 168.7834,-46.833 172.1595,-37.0767 175.436,-28.9189"/>
<polygon fill="#191970" stroke="#191970" points="178.7044,-30.177 179.4056,-19.6054 172.2649,-27.4323 178.7044,-30.177"/>
</g>
<!-- Node7 -->
<g id="node8" class="node">
<title>Node7</title>
<g id="a_node8"><a xlink:href="kernel__defines_8h.html" target="_top" xlink:title="Common macros and compiler attributes/pragmas configuration. ">
<polygon fill="none" stroke="#000000" points="176,-56.5 176,-75.5 264,-75.5 264,-56.5 176,-56.5"/>
<text text-anchor="middle" x="220" y="-63.5" font-family="Helvetica,sans-Serif" font-size="10.00" fill="#000000">kernel_defines.h</text>
</a>
</g>
</g>
<!-- Node5&#45;&gt;Node7 -->
<g id="edge8" class="edge">
<title>Node5&#45;&gt;Node7</title>
<path fill="none" stroke="#191970" d="M174.5803,-112.2455C182.5458,-104.1352 194.0641,-92.4075 203.5079,-82.7919"/>
<polygon fill="#191970" stroke="#191970" points="206.0195,-85.2297 210.5295,-75.6427 201.0253,-80.3247 206.0195,-85.2297"/>
</g>
<!-- Node7&#45;&gt;Node6 -->
<g id="edge9" class="edge">
<title>Node7&#45;&gt;Node6</title>
<path fill="none" stroke="#191970" d="M213.7293,-56.2455C208.7736,-48.5367 201.717,-37.5598 195.7224,-28.2348"/>
<polygon fill="#191970" stroke="#191970" points="198.5506,-26.1618 190.1989,-19.6427 192.6624,-29.9471 198.5506,-26.1618"/>
</g>
</g>
</svg>
