<?xml version="1.0" encoding="UTF-8" standalone="no"?>
<!DOCTYPE svg PUBLIC "-//W3C//DTD SVG 1.1//EN"
 "http://www.w3.org/Graphics/SVG/1.1/DTD/svg11.dtd">
<!-- Generated by graphviz version 2.43.0 (0)
 -->
<!-- Title: drivers/mpl3115a2/include/mpl3115a2_params.h Pages: 1 -->
<svg width="617pt" height="319pt"
 viewBox="0.00 0.00 616.51 319.00" xmlns="http://www.w3.org/2000/svg" xmlns:xlink="http://www.w3.org/1999/xlink">
<g id="graph0" class="graph" transform="scale(1 1) rotate(0) translate(4 315)">
<title>drivers/mpl3115a2/include/mpl3115a2_params.h</title>
<!-- Node1 -->
<g id="node1" class="node">
<title>Node1</title>
<g id="a_node1"><a xlink:title="Default configuration for MPL3115A2 devices.">
<polygon fill="#bfbfbf" stroke="black" points="97.01,-280.5 97.01,-310.5 243.01,-310.5 243.01,-280.5 97.01,-280.5"/>
<text text-anchor="start" x="105.01" y="-298.5" font-family="Helvetica,sans-Serif" font-size="10.00">drivers/mpl3115a2/include</text>
<text text-anchor="middle" x="170.01" y="-287.5" font-family="Helvetica,sans-Serif" font-size="10.00">/mpl3115a2_params.h</text>
</a>
</g>
</g>
<!-- Node2 -->
<g id="node2" class="node">
<title>Node2</title>
<g id="a_node2"><a xlink:title=" ">
<polygon fill="none" stroke="#bfbfbf" points="34.51,-224.5 34.51,-243.5 87.51,-243.5 87.51,-224.5 34.51,-224.5"/>
<text text-anchor="middle" x="61.01" y="-231.5" font-family="Helvetica,sans-Serif" font-size="10.00">board.h</text>
</a>
</g>
</g>
<!-- Node1&#45;&gt;Node2 -->
<g id="edge1" class="edge">
<title>Node1&#45;&gt;Node2</title>
<path fill="none" stroke="midnightblue" d="M144.18,-280.4C126.54,-270.77 103.31,-258.09 85.88,-248.58"/>
<polygon fill="midnightblue" stroke="midnightblue" points="87.32,-245.38 76.87,-243.66 83.97,-251.52 87.32,-245.38"/>
</g>
<!-- Node3 -->
<g id="node3" class="node">
<title>Node3</title>
<g id="a_node3"><a xlink:href="saul__reg_8h.html" target="_top" xlink:title="SAUL registry interface definition.">
<polygon fill="none" stroke="black" points="105.51,-224.5 105.51,-243.5 172.51,-243.5 172.51,-224.5 105.51,-224.5"/>
<text text-anchor="middle" x="139.01" y="-231.5" font-family="Helvetica,sans-Serif" font-size="10.00">saul_reg.h</text>
</a>
</g>
</g>
<!-- Node1&#45;&gt;Node3 -->
<g id="edge2" class="edge">
<title>Node1&#45;&gt;Node3</title>
<path fill="none" stroke="midnightblue" d="M162.66,-280.4C158.34,-272.11 152.84,-261.55 148.23,-252.71"/>
<polygon fill="midnightblue" stroke="midnightblue" points="151.24,-250.91 143.52,-243.66 145.04,-254.14 151.24,-250.91"/>
</g>
<!-- Node10 -->
<g id="node10" class="node">
<title>Node10</title>
<g id="a_node10"><a xlink:href="mpl3115a2_8h.html" target="_top" xlink:title="Interface definition for the MPL3115A2 sensor driver.">
<polygon fill="none" stroke="black" points="314.01,-112.5 314.01,-131.5 394.01,-131.5 394.01,-112.5 314.01,-112.5"/>
<text text-anchor="middle" x="354.01" y="-119.5" font-family="Helvetica,sans-Serif" font-size="10.00">mpl3115a2.h</text>
</a>
</g>
</g>
<!-- Node1&#45;&gt;Node10 -->
<g id="edge14" class="edge">
<title>Node1&#45;&gt;Node10</title>
<path fill="none" stroke="midnightblue" d="M178.5,-280.32C187.83,-265.38 203.8,-241.61 221.01,-224 255.78,-188.41 303.69,-155.15 331.51,-137.09"/>
<polygon fill="midnightblue" stroke="midnightblue" points="333.6,-139.91 340.12,-131.57 329.82,-134.02 333.6,-139.91"/>
</g>
<!-- Node16 -->
<g id="node16" class="node">
<title>Node16</title>
<g id="a_node16"><a xlink:href="mpl3115a2__reg_8h.html" target="_top" xlink:title="Register definition for the MPL3115A2 sensor driver.">
<polygon fill="none" stroke="black" points="229.51,-224.5 229.51,-243.5 330.51,-243.5 330.51,-224.5 229.51,-224.5"/>
<text text-anchor="middle" x="280.01" y="-231.5" font-family="Helvetica,sans-Serif" font-size="10.00">mpl3115a2_reg.h</text>
</a>
</g>
</g>
<!-- Node1&#45;&gt;Node16 -->
<g id="edge23" class="edge">
<title>Node1&#45;&gt;Node16</title>
<path fill="none" stroke="midnightblue" d="M196.08,-280.4C213.87,-270.77 237.32,-258.09 254.91,-248.58"/>
<polygon fill="midnightblue" stroke="midnightblue" points="256.87,-251.49 264,-243.66 253.54,-245.34 256.87,-251.49"/>
</g>
<!-- Node4 -->
<g id="node4" class="node">
<title>Node4</title>
<g id="a_node4"><a xlink:title=" ">
<polygon fill="none" stroke="#bfbfbf" points="145.51,-0.5 145.51,-19.5 198.51,-19.5 198.51,-0.5 145.51,-0.5"/>
<text text-anchor="middle" x="172.01" y="-7.5" font-family="Helvetica,sans-Serif" font-size="10.00">stdint.h</text>
</a>
</g>
</g>
<!-- Node3&#45;&gt;Node4 -->
<g id="edge3" class="edge">
<title>Node3&#45;&gt;Node4</title>
<path fill="none" stroke="midnightblue" d="M114.16,-224.44C68.01,-207.06 -23.67,-164.79 6.01,-112 33.59,-62.93 95.74,-34.92 135.68,-21.36"/>
<polygon fill="midnightblue" stroke="midnightblue" points="136.89,-24.65 145.32,-18.22 134.72,-17.99 136.89,-24.65"/>
</g>
<!-- Node5 -->
<g id="node5" class="node">
<title>Node5</title>
<g id="a_node5"><a xlink:href="saul_8h.html" target="_top" xlink:title="Definition of the generic [S]ensor [A]ctuator [U]ber [L]ayer.">
<polygon fill="none" stroke="black" points="74.01,-168.5 74.01,-187.5 120.01,-187.5 120.01,-168.5 74.01,-168.5"/>
<text text-anchor="middle" x="97.01" y="-175.5" font-family="Helvetica,sans-Serif" font-size="10.00">saul.h</text>
</a>
</g>
</g>
<!-- Node3&#45;&gt;Node5 -->
<g id="edge4" class="edge">
<title>Node3&#45;&gt;Node5</title>
<path fill="none" stroke="midnightblue" d="M132.07,-224.08C126.08,-216.38 117.26,-205.03 109.96,-195.65"/>
<polygon fill="midnightblue" stroke="midnightblue" points="112.72,-193.5 103.81,-187.75 107.19,-197.79 112.72,-193.5"/>
</g>
<!-- Node7 -->
<g id="node7" class="node">
<title>Node7</title>
<g id="a_node7"><a xlink:href="phydat_8h.html" target="_top" xlink:title="Generic data container for physical data interface.">
<polygon fill="none" stroke="black" points="123.51,-112.5 123.51,-131.5 182.51,-131.5 182.51,-112.5 123.51,-112.5"/>
<text text-anchor="middle" x="153.01" y="-119.5" font-family="Helvetica,sans-Serif" font-size="10.00">phydat.h</text>
</a>
</g>
</g>
<!-- Node3&#45;&gt;Node7 -->
<g id="edge13" class="edge">
<title>Node3&#45;&gt;Node7</title>
<path fill="none" stroke="midnightblue" d="M140.11,-224.37C142.37,-206.62 147.58,-165.67 150.64,-141.6"/>
<polygon fill="midnightblue" stroke="midnightblue" points="154.12,-141.95 151.91,-131.59 147.18,-141.07 154.12,-141.95"/>
</g>
<!-- Node5&#45;&gt;Node4 -->
<g id="edge5" class="edge">
<title>Node5&#45;&gt;Node4</title>
<path fill="none" stroke="midnightblue" d="M98.72,-168.37C101.38,-155.72 107.04,-131.51 115.01,-112 125.77,-85.67 132,-80.76 146.01,-56 151.18,-46.86 157.03,-36.72 161.86,-28.39"/>
<polygon fill="midnightblue" stroke="midnightblue" points="164.97,-30 166.98,-19.6 158.92,-26.48 164.97,-30"/>
</g>
<!-- Node6 -->
<g id="node6" class="node">
<title>Node6</title>
<g id="a_node6"><a xlink:href="errno_8h.html" target="_top" xlink:title=" ">
<polygon fill="none" stroke="black" points="15.51,-112.5 15.51,-131.5 66.51,-131.5 66.51,-112.5 15.51,-112.5"/>
<text text-anchor="middle" x="41.01" y="-119.5" font-family="Helvetica,sans-Serif" font-size="10.00">errno.h</text>
</a>
</g>
</g>
<!-- Node5&#45;&gt;Node6 -->
<g id="edge6" class="edge">
<title>Node5&#45;&gt;Node6</title>
<path fill="none" stroke="midnightblue" d="M88.01,-168.32C79.81,-160.42 67.5,-148.55 57.54,-138.94"/>
<polygon fill="midnightblue" stroke="midnightblue" points="59.8,-136.26 50.17,-131.83 54.94,-141.29 59.8,-136.26"/>
</g>
<!-- Node5&#45;&gt;Node7 -->
<g id="edge7" class="edge">
<title>Node5&#45;&gt;Node7</title>
<path fill="none" stroke="midnightblue" d="M106.01,-168.32C114.2,-160.42 126.51,-148.55 136.48,-138.94"/>
<polygon fill="midnightblue" stroke="midnightblue" points="139.08,-141.29 143.85,-131.83 134.22,-136.26 139.08,-141.29"/>
</g>
<!-- Node7&#45;&gt;Node4 -->
<g id="edge9" class="edge">
<title>Node7&#45;&gt;Node4</title>
<path fill="none" stroke="midnightblue" d="M151.94,-112.48C150.62,-99.96 148.98,-75.91 153.01,-56 154.9,-46.65 158.8,-36.83 162.58,-28.75"/>
<polygon fill="midnightblue" stroke="midnightblue" points="165.8,-30.14 167.13,-19.63 159.53,-27.01 165.8,-30.14"/>
</g>
<!-- Node8 -->
<g id="node8" class="node">
<title>Node8</title>
<g id="a_node8"><a xlink:title=" ">
<polygon fill="none" stroke="#bfbfbf" points="259.01,-0.5 259.01,-19.5 315.01,-19.5 315.01,-0.5 259.01,-0.5"/>
<text text-anchor="middle" x="287.01" y="-7.5" font-family="Helvetica,sans-Serif" font-size="10.00">stddef.h</text>
</a>
</g>
</g>
<!-- Node7&#45;&gt;Node8 -->
<g id="edge8" class="edge">
<title>Node7&#45;&gt;Node8</title>
<path fill="none" stroke="midnightblue" d="M182.61,-116.86C208.63,-111.69 245.72,-100.36 268.01,-76 279.53,-63.41 284.1,-44.19 285.89,-29.91"/>
<polygon fill="midnightblue" stroke="midnightblue" points="289.39,-30.02 286.81,-19.75 282.42,-29.39 289.39,-30.02"/>
</g>
<!-- Node9 -->
<g id="node9" class="node">
<title>Node9</title>
<g id="a_node9"><a xlink:href="kernel__defines_8h.html" target="_top" xlink:title="Common macros and compiler attributes/pragmas configuration.">
<polygon fill="none" stroke="black" points="161.51,-56.5 161.51,-75.5 258.51,-75.5 258.51,-56.5 161.51,-56.5"/>
<text text-anchor="middle" x="210.01" y="-63.5" font-family="Helvetica,sans-Serif" font-size="10.00">kernel_defines.h</text>
</a>
</g>
</g>
<!-- Node7&#45;&gt;Node9 -->
<g id="edge10" class="edge">
<title>Node7&#45;&gt;Node9</title>
<path fill="none" stroke="midnightblue" d="M162.17,-112.32C170.51,-104.42 183.04,-92.55 193.19,-82.94"/>
<polygon fill="midnightblue" stroke="midnightblue" points="195.83,-85.25 200.68,-75.83 191.02,-80.17 195.83,-85.25"/>
</g>
<!-- Node9&#45;&gt;Node4 -->
<g id="edge12" class="edge">
<title>Node9&#45;&gt;Node4</title>
<path fill="none" stroke="midnightblue" d="M203.73,-56.08C198.37,-48.46 190.49,-37.26 183.93,-27.94"/>
<polygon fill="midnightblue" stroke="midnightblue" points="186.78,-25.91 178.17,-19.75 181.06,-29.94 186.78,-25.91"/>
</g>
<!-- Node9&#45;&gt;Node8 -->
<g id="edge11" class="edge">
<title>Node9&#45;&gt;Node8</title>
<path fill="none" stroke="midnightblue" d="M222.38,-56.32C234.17,-48.06 252.14,-35.45 266.14,-25.63"/>
<polygon fill="midnightblue" stroke="midnightblue" points="268.49,-28.26 274.67,-19.65 264.47,-22.53 268.49,-28.26"/>
</g>
<!-- Node10&#45;&gt;Node4 -->
<g id="edge15" class="edge">
<title>Node10&#45;&gt;Node4</title>
<path fill="none" stroke="midnightblue" d="M344.17,-112.47C328.68,-99.3 297.34,-73.69 268.01,-56 247.11,-43.39 222.1,-31.77 202.85,-23.5"/>
<polygon fill="midnightblue" stroke="midnightblue" points="204.21,-20.27 193.64,-19.61 201.49,-26.72 204.21,-20.27"/>
</g>
<!-- Node11 -->
<g id="node11" class="node">
<title>Node11</title>
<g id="a_node11"><a xlink:title=" ">
<polygon fill="none" stroke="#bfbfbf" points="353.01,-56.5 353.01,-75.5 415.01,-75.5 415.01,-56.5 353.01,-56.5"/>
<text text-anchor="middle" x="384.01" y="-63.5" font-family="Helvetica,sans-Serif" font-size="10.00">stdbool.h</text>
</a>
</g>
</g>
<!-- Node10&#45;&gt;Node11 -->
<g id="edge16" class="edge">
<title>Node10&#45;&gt;Node11</title>
<path fill="none" stroke="midnightblue" d="M358.96,-112.08C363.11,-104.61 369.16,-93.72 374.28,-84.52"/>
<polygon fill="midnightblue" stroke="midnightblue" points="377.35,-86.19 379.15,-75.75 371.23,-82.79 377.35,-86.19"/>
</g>
<!-- Node12 -->
<g id="node12" class="node">
<title>Node12</title>
<g id="a_node12"><a xlink:href="i2c_8h.html" target="_top" xlink:title="Low&#45;level I2C peripheral driver interface definition.">
<polygon fill="none" stroke="black" points="433.01,-56.5 433.01,-75.5 507.01,-75.5 507.01,-56.5 433.01,-56.5"/>
<text text-anchor="middle" x="470.01" y="-63.5" font-family="Helvetica,sans-Serif" font-size="10.00">periph/i2c.h</text>
</a>
</g>
</g>
<!-- Node10&#45;&gt;Node12 -->
<g id="edge17" class="edge">
<title>Node10&#45;&gt;Node12</title>
<path fill="none" stroke="midnightblue" d="M372.39,-112.44C391.22,-103.68 420.74,-89.94 442.39,-79.86"/>
<polygon fill="midnightblue" stroke="midnightblue" points="444.13,-82.91 451.71,-75.52 441.17,-76.56 444.13,-82.91"/>
</g>
<!-- Node12&#45;&gt;Node4 -->
<g id="edge18" class="edge">
<title>Node12&#45;&gt;Node4</title>
<path fill="none" stroke="midnightblue" d="M432.86,-57.68C429.87,-57.1 426.89,-56.54 424.01,-56 347.5,-41.68 257.72,-25.89 208.64,-17.35"/>
<polygon fill="midnightblue" stroke="midnightblue" points="208.97,-13.85 198.52,-15.59 207.77,-20.75 208.97,-13.85"/>
</g>
<!-- Node12&#45;&gt;Node8 -->
<g id="edge19" class="edge">
<title>Node12&#45;&gt;Node8</title>
<path fill="none" stroke="midnightblue" d="M441.01,-56.44C409.64,-47.19 359.49,-32.39 324.99,-22.21"/>
<polygon fill="midnightblue" stroke="midnightblue" points="325.85,-18.81 315.27,-19.34 323.87,-25.53 325.85,-18.81"/>
</g>
<!-- Node13 -->
<g id="node13" class="node">
<title>Node13</title>
<g id="a_node13"><a xlink:title=" ">
<polygon fill="none" stroke="#bfbfbf" points="357.51,-0.5 357.51,-19.5 410.51,-19.5 410.51,-0.5 357.51,-0.5"/>
<text text-anchor="middle" x="384.01" y="-7.5" font-family="Helvetica,sans-Serif" font-size="10.00">limits.h</text>
</a>
</g>
</g>
<!-- Node12&#45;&gt;Node13 -->
<g id="edge20" class="edge">
<title>Node12&#45;&gt;Node13</title>
<path fill="none" stroke="midnightblue" d="M456.19,-56.32C442.78,-47.9 422.18,-34.97 406.42,-25.07"/>
<polygon fill="midnightblue" stroke="midnightblue" points="408.12,-22.01 397.79,-19.65 404.4,-27.94 408.12,-22.01"/>
</g>
<!-- Node14 -->
<g id="node14" class="node">
<title>Node14</title>
<g id="a_node14"><a xlink:title=" ">
<polygon fill="none" stroke="#bfbfbf" points="429.01,-0.5 429.01,-19.5 511.01,-19.5 511.01,-0.5 429.01,-0.5"/>
<text text-anchor="middle" x="470.01" y="-7.5" font-family="Helvetica,sans-Serif" font-size="10.00">periph_conf.h</text>
</a>
</g>
</g>
<!-- Node12&#45;&gt;Node14 -->
<g id="edge21" class="edge">
<title>Node12&#45;&gt;Node14</title>
<path fill="none" stroke="midnightblue" d="M470.01,-56.08C470.01,-49.01 470.01,-38.86 470.01,-29.99"/>
<polygon fill="midnightblue" stroke="midnightblue" points="473.51,-29.75 470.01,-19.75 466.51,-29.75 473.51,-29.75"/>
</g>
<!-- Node15 -->
<g id="node15" class="node">
<title>Node15</title>
<g id="a_node15"><a xlink:title=" ">
<polygon fill="none" stroke="#bfbfbf" points="529.51,-0.5 529.51,-19.5 608.51,-19.5 608.51,-0.5 529.51,-0.5"/>
<text text-anchor="middle" x="569.01" y="-7.5" font-family="Helvetica,sans-Serif" font-size="10.00">periph_cpu.h</text>
</a>
</g>
</g>
<!-- Node12&#45;&gt;Node15 -->
<g id="edge22" class="edge">
<title>Node12&#45;&gt;Node15</title>
<path fill="none" stroke="midnightblue" d="M485.91,-56.32C501.65,-47.74 525.95,-34.49 544.22,-24.52"/>
<polygon fill="midnightblue" stroke="midnightblue" points="546.04,-27.52 553.14,-19.65 542.69,-21.37 546.04,-27.52"/>
</g>
</g>
</svg>
