<?xml version="1.0" encoding="UTF-8" standalone="no"?>
<!DOCTYPE svg PUBLIC "-//W3C//DTD SVG 1.1//EN"
 "http://www.w3.org/Graphics/SVG/1.1/DTD/svg11.dtd">
<!-- Generated by graphviz version 2.40.1 (20161225.0304)
 -->
<!-- Title: core/include/msg.h Pages: 1 -->
<svg width="357pt" height="140pt"
 viewBox="0.00 0.00 356.50 140.00" xmlns="http://www.w3.org/2000/svg" xmlns:xlink="http://www.w3.org/1999/xlink">
<g id="graph0" class="graph" transform="scale(1 1) rotate(0) translate(4 136)">
<title>core/include/msg.h</title>
<!-- Node0 -->
<g id="node1" class="node">
<title>Node0</title>
<polygon fill="#bfbfbf" stroke="#000000" points="32,-112.5 32,-131.5 131,-131.5 131,-112.5 32,-112.5"/>
<text text-anchor="middle" x="81.5" y="-119.5" font-family="Helvetica,sans-Serif" font-size="10.00" fill="#000000">core/include/msg.h</text>
</g>
<!-- Node1 -->
<g id="node2" class="node">
<title>Node1</title>
<polygon fill="none" stroke="#bfbfbf" points="0,-.5 0,-19.5 49,-19.5 49,-.5 0,-.5"/>
<text text-anchor="middle" x="24.5" y="-7.5" font-family="Helvetica,sans-Serif" font-size="10.00" fill="#000000">stdint.h</text>
</g>
<!-- Node0&#45;&gt;Node1 -->
<g id="edge1" class="edge">
<title>Node0&#45;&gt;Node1</title>
<path fill="none" stroke="#191970" d="M71.7436,-112.2136C63.454,-103.4097 51.7739,-89.7759 44.5,-76 36.8131,-61.4421 31.6139,-43.4824 28.4476,-29.975"/>
<polygon fill="#191970" stroke="#191970" points="31.7921,-28.8818 26.2561,-19.8484 24.9505,-30.3625 31.7921,-28.8818"/>
</g>
<!-- Node2 -->
<g id="node3" class="node">
<title>Node2</title>
<polygon fill="none" stroke="#bfbfbf" points="53.5,-56.5 53.5,-75.5 109.5,-75.5 109.5,-56.5 53.5,-56.5"/>
<text text-anchor="middle" x="81.5" y="-63.5" font-family="Helvetica,sans-Serif" font-size="10.00" fill="#000000">stdbool.h</text>
</g>
<!-- Node0&#45;&gt;Node2 -->
<g id="edge2" class="edge">
<title>Node0&#45;&gt;Node2</title>
<path fill="none" stroke="#191970" d="M81.5,-112.2455C81.5,-104.9382 81.5,-94.6944 81.5,-85.7046"/>
<polygon fill="#191970" stroke="#191970" points="85.0001,-85.6426 81.5,-75.6427 78.0001,-85.6427 85.0001,-85.6426"/>
</g>
<!-- Node3 -->
<g id="node4" class="node">
<title>Node3</title>
<g id="a_node4"><a xlink:href="kernel__types_8h.html" target="_top" xlink:title="Types used by the kernel. ">
<polygon fill="none" stroke="#000000" points="127.5,-56.5 127.5,-75.5 207.5,-75.5 207.5,-56.5 127.5,-56.5"/>
<text text-anchor="middle" x="167.5" y="-63.5" font-family="Helvetica,sans-Serif" font-size="10.00" fill="#000000">kernel_types.h</text>
</a>
</g>
</g>
<!-- Node0&#45;&gt;Node3 -->
<g id="edge3" class="edge">
<title>Node0&#45;&gt;Node3</title>
<path fill="none" stroke="#191970" d="M96.4801,-112.2455C109.6751,-103.6534 129.1051,-91.0014 144.3079,-81.1018"/>
<polygon fill="#191970" stroke="#191970" points="146.2215,-84.0325 152.6916,-75.6427 142.4017,-78.1665 146.2215,-84.0325"/>
</g>
<!-- Node3&#45;&gt;Node1 -->
<g id="edge4" class="edge">
<title>Node3&#45;&gt;Node1</title>
<path fill="none" stroke="#191970" d="M142.9174,-56.3733C119.5504,-47.2226 84.2138,-33.3844 58.2216,-23.2057"/>
<polygon fill="#191970" stroke="#191970" points="59.3495,-19.8886 48.7618,-19.5011 56.797,-26.4066 59.3495,-19.8886"/>
</g>
<!-- Node4 -->
<g id="node5" class="node">
<title>Node4</title>
<g id="a_node5"><a xlink:href="inttypes_8h.html" target="_top" xlink:title="Adds include for missing inttype definitions. ">
<polygon fill="none" stroke="#000000" points="67,-.5 67,-19.5 126,-19.5 126,-.5 67,-.5"/>
<text text-anchor="middle" x="96.5" y="-7.5" font-family="Helvetica,sans-Serif" font-size="10.00" fill="#000000">inttypes.h</text>
</a>
</g>
</g>
<!-- Node3&#45;&gt;Node4 -->
<g id="edge5" class="edge">
<title>Node3&#45;&gt;Node4</title>
<path fill="none" stroke="#191970" d="M155.1327,-56.2455C144.5446,-47.8943 129.0936,-35.7076 116.7107,-25.9408"/>
<polygon fill="#191970" stroke="#191970" points="118.7447,-23.0875 108.7255,-19.6427 114.4097,-28.5837 118.7447,-23.0875"/>
</g>
<!-- Node5 -->
<g id="node6" class="node">
<title>Node5</title>
<polygon fill="none" stroke="#bfbfbf" points="144.5,-.5 144.5,-19.5 192.5,-19.5 192.5,-.5 144.5,-.5"/>
<text text-anchor="middle" x="168.5" y="-7.5" font-family="Helvetica,sans-Serif" font-size="10.00" fill="#000000">limits.h</text>
</g>
<!-- Node3&#45;&gt;Node5 -->
<g id="edge6" class="edge">
<title>Node3&#45;&gt;Node5</title>
<path fill="none" stroke="#191970" d="M167.6742,-56.2455C167.8047,-48.9382 167.9876,-38.6944 168.1481,-29.7046"/>
<polygon fill="#191970" stroke="#191970" points="171.6486,-29.7036 168.3278,-19.6427 164.6497,-29.5786 171.6486,-29.7036"/>
</g>
<!-- Node6 -->
<g id="node7" class="node">
<title>Node6</title>
<polygon fill="none" stroke="#bfbfbf" points="210.5,-.5 210.5,-19.5 262.5,-19.5 262.5,-.5 210.5,-.5"/>
<text text-anchor="middle" x="236.5" y="-7.5" font-family="Helvetica,sans-Serif" font-size="10.00" fill="#000000">stddef.h</text>
</g>
<!-- Node3&#45;&gt;Node6 -->
<g id="edge7" class="edge">
<title>Node3&#45;&gt;Node6</title>
<path fill="none" stroke="#191970" d="M179.5189,-56.2455C189.7098,-47.9746 204.5362,-35.9416 216.5107,-26.2232"/>
<polygon fill="#191970" stroke="#191970" points="219.0598,-28.662 224.6188,-19.6427 214.6486,-23.2268 219.0598,-28.662"/>
</g>
<!-- Node7 -->
<g id="node8" class="node">
<title>Node7</title>
<polygon fill="none" stroke="#bfbfbf" points="280.5,-.5 280.5,-19.5 348.5,-19.5 348.5,-.5 280.5,-.5"/>
<text text-anchor="middle" x="314.5" y="-7.5" font-family="Helvetica,sans-Serif" font-size="10.00" fill="#000000">sys/types.h</text>
</g>
<!-- Node3&#45;&gt;Node7 -->
<g id="edge8" class="edge">
<title>Node3&#45;&gt;Node7</title>
<path fill="none" stroke="#191970" d="M192.7702,-56.3733C216.8966,-47.1822 253.4362,-33.2624 280.1877,-23.0713"/>
<polygon fill="#191970" stroke="#191970" points="281.4607,-26.3318 289.5596,-19.5011 278.9687,-19.7904 281.4607,-26.3318"/>
</g>
</g>
</svg>
