<?xml version="1.0" encoding="UTF-8" standalone="no"?>
<!DOCTYPE svg PUBLIC "-//W3C//DTD SVG 1.1//EN"
 "http://www.w3.org/Graphics/SVG/1.1/DTD/svg11.dtd">
<!-- Generated by graphviz version 2.40.1 (20161225.0304)
 -->
<!-- Title: drivers/include/mtd_spi_nor.h Pages: 1 -->
<svg width="435pt" height="207pt"
 viewBox="0.00 0.00 434.76 207.00" xmlns="http://www.w3.org/2000/svg" xmlns:xlink="http://www.w3.org/1999/xlink">
<g id="graph0" class="graph" transform="scale(1 1) rotate(0) translate(4 203)">
<title>drivers/include/mtd_spi_nor.h</title>
<!-- Node0 -->
<g id="node1" class="node">
<title>Node0</title>
<polygon fill="#bfbfbf" stroke="#000000" points="40.2579,-168.5 40.2579,-198.5 139.2579,-198.5 139.2579,-168.5 40.2579,-168.5"/>
<text text-anchor="start" x="48.2579" y="-186.5" font-family="Helvetica,sans-Serif" font-size="10.00" fill="#000000">drivers/include/mtd</text>
<text text-anchor="middle" x="89.7579" y="-175.5" font-family="Helvetica,sans-Serif" font-size="10.00" fill="#000000">_spi_nor.h</text>
</g>
<!-- Node1 -->
<g id="node2" class="node">
<title>Node1</title>
<polygon fill="none" stroke="#bfbfbf" points="16.2579,-56.5 16.2579,-75.5 65.2579,-75.5 65.2579,-56.5 16.2579,-56.5"/>
<text text-anchor="middle" x="40.7579" y="-63.5" font-family="Helvetica,sans-Serif" font-size="10.00" fill="#000000">stdint.h</text>
</g>
<!-- Node0&#45;&gt;Node1 -->
<g id="edge1" class="edge">
<title>Node0&#45;&gt;Node1</title>
<path fill="none" stroke="#191970" d="M79.5245,-168.2461C73.1712,-158.2625 65.207,-144.7499 59.7579,-132 53.3148,-116.9241 48.3117,-99.0029 45.0606,-85.6421"/>
<polygon fill="#191970" stroke="#191970" points="48.4136,-84.6072 42.7485,-75.6541 41.594,-86.1859 48.4136,-84.6072"/>
</g>
<!-- Node2 -->
<g id="node3" class="node">
<title>Node2</title>
<polygon fill="none" stroke="#bfbfbf" points="56.2579,-.5 56.2579,-19.5 131.2579,-19.5 131.2579,-.5 56.2579,-.5"/>
<text text-anchor="middle" x="93.7579" y="-7.5" font-family="Helvetica,sans-Serif" font-size="10.00" fill="#000000">periph_conf.h</text>
</g>
<!-- Node0&#45;&gt;Node2 -->
<g id="edge2" class="edge">
<title>Node0&#45;&gt;Node2</title>
<path fill="none" stroke="#191970" d="M67.2753,-168.4098C34.9462,-144.7648 -18.1844,-97.4021 6.7579,-56 15.8116,-40.9718 31.6002,-30.5985 47.264,-23.5638"/>
<polygon fill="#191970" stroke="#191970" points="49.0107,-26.6308 56.9395,-19.6034 46.3589,-20.1525 49.0107,-26.6308"/>
</g>
<!-- Node3 -->
<g id="node4" class="node">
<title>Node3</title>
<g id="a_node4"><a xlink:href="spi_8h.html" target="_top" xlink:title="Low&#45;level SPI peripheral driver interface definition. ">
<polygon fill="none" stroke="#000000" points="158.2579,-112.5 158.2579,-131.5 225.2579,-131.5 225.2579,-112.5 158.2579,-112.5"/>
<text text-anchor="middle" x="191.7579" y="-119.5" font-family="Helvetica,sans-Serif" font-size="10.00" fill="#000000">periph/spi.h</text>
</a>
</g>
</g>
<!-- Node0&#45;&gt;Node3 -->
<g id="edge3" class="edge">
<title>Node0&#45;&gt;Node3</title>
<path fill="none" stroke="#191970" d="M114.7099,-168.4554C130.6839,-158.8241 151.3182,-146.3828 167.2122,-136.7996"/>
<polygon fill="#191970" stroke="#191970" points="169.195,-139.6912 175.9516,-131.5303 165.5805,-133.6965 169.195,-139.6912"/>
</g>
<!-- Node8 -->
<g id="node9" class="node">
<title>Node8</title>
<g id="a_node9"><a xlink:href="gpio_8h.html" target="_top" xlink:title="Low&#45;level GPIO peripheral driver interface definitions. ">
<polygon fill="none" stroke="#000000" points="303.7579,-56.5 303.7579,-75.5 375.7579,-75.5 375.7579,-56.5 303.7579,-56.5"/>
<text text-anchor="middle" x="339.7579" y="-63.5" font-family="Helvetica,sans-Serif" font-size="10.00" fill="#000000">periph/gpio.h</text>
</a>
</g>
</g>
<!-- Node0&#45;&gt;Node8 -->
<g id="edge14" class="edge">
<title>Node0&#45;&gt;Node8</title>
<path fill="none" stroke="#191970" d="M139.514,-168.8258C168.0191,-159.6852 204.1062,-146.8526 234.7579,-132 265.1394,-117.2783 297.6942,-95.831 318.3626,-81.4195"/>
<polygon fill="#191970" stroke="#191970" points="320.5589,-84.1535 326.7119,-75.5284 316.5232,-78.4339 320.5589,-84.1535"/>
</g>
<!-- Node9 -->
<g id="node10" class="node">
<title>Node9</title>
<g id="a_node10"><a xlink:href="mtd_8h.html" target="_top" xlink:title="mtd.h">
<polygon fill="none" stroke="#000000" points="69.2579,-112.5 69.2579,-131.5 110.2579,-131.5 110.2579,-112.5 69.2579,-112.5"/>
<text text-anchor="middle" x="89.7579" y="-119.5" font-family="Helvetica,sans-Serif" font-size="10.00" fill="#000000">mtd.h</text>
</a>
</g>
</g>
<!-- Node0&#45;&gt;Node9 -->
<g id="edge15" class="edge">
<title>Node0&#45;&gt;Node9</title>
<path fill="none" stroke="#191970" d="M89.7579,-168.2977C89.7579,-160.3834 89.7579,-150.6043 89.7579,-142.0759"/>
<polygon fill="#191970" stroke="#191970" points="93.258,-141.8469 89.7579,-131.8469 86.258,-141.847 93.258,-141.8469"/>
</g>
<!-- Node3&#45;&gt;Node1 -->
<g id="edge6" class="edge">
<title>Node3&#45;&gt;Node1</title>
<path fill="none" stroke="#191970" d="M165.8001,-112.3733C140.7168,-103.0708 102.5715,-88.9242 75.0091,-78.7024"/>
<polygon fill="#191970" stroke="#191970" points="75.9702,-75.326 65.3771,-75.1303 73.5361,-81.8892 75.9702,-75.326"/>
</g>
<!-- Node3&#45;&gt;Node2 -->
<g id="edge9" class="edge">
<title>Node3&#45;&gt;Node2</title>
<path fill="none" stroke="#191970" d="M164.7011,-112.3769C147.491,-104.9446 126.0242,-93.0263 112.7579,-76 102.3491,-62.641 97.6417,-43.7897 95.5132,-29.6525"/>
<polygon fill="#191970" stroke="#191970" points="98.9641,-29.0332 94.2995,-19.5205 92.0138,-29.8658 98.9641,-29.0332"/>
</g>
<!-- Node4 -->
<g id="node5" class="node">
<title>Node4</title>
<polygon fill="none" stroke="#bfbfbf" points="121.7579,-56.5 121.7579,-75.5 177.7579,-75.5 177.7579,-56.5 121.7579,-56.5"/>
<text text-anchor="middle" x="149.7579" y="-63.5" font-family="Helvetica,sans-Serif" font-size="10.00" fill="#000000">stdbool.h</text>
</g>
<!-- Node3&#45;&gt;Node4 -->
<g id="edge4" class="edge">
<title>Node3&#45;&gt;Node4</title>
<path fill="none" stroke="#191970" d="M184.4421,-112.2455C178.54,-104.3761 170.0837,-93.101 162.9986,-83.6542"/>
<polygon fill="#191970" stroke="#191970" points="165.79,-81.5427 156.9899,-75.6427 160.19,-85.7427 165.79,-81.5427"/>
</g>
<!-- Node5 -->
<g id="node6" class="node">
<title>Node5</title>
<polygon fill="none" stroke="#bfbfbf" points="195.7579,-56.5 195.7579,-75.5 247.7579,-75.5 247.7579,-56.5 195.7579,-56.5"/>
<text text-anchor="middle" x="221.7579" y="-63.5" font-family="Helvetica,sans-Serif" font-size="10.00" fill="#000000">stddef.h</text>
</g>
<!-- Node3&#45;&gt;Node5 -->
<g id="edge5" class="edge">
<title>Node3&#45;&gt;Node5</title>
<path fill="none" stroke="#191970" d="M196.9835,-112.2455C201.0702,-104.617 206.8714,-93.7881 211.8329,-84.5267"/>
<polygon fill="#191970" stroke="#191970" points="214.9551,-86.1103 216.5922,-75.6427 208.7848,-82.8047 214.9551,-86.1103"/>
</g>
<!-- Node6 -->
<g id="node7" class="node">
<title>Node6</title>
<polygon fill="none" stroke="#bfbfbf" points="263.7579,-.5 263.7579,-19.5 311.7579,-19.5 311.7579,-.5 263.7579,-.5"/>
<text text-anchor="middle" x="287.7579" y="-7.5" font-family="Helvetica,sans-Serif" font-size="10.00" fill="#000000">limits.h</text>
</g>
<!-- Node3&#45;&gt;Node6 -->
<g id="edge7" class="edge">
<title>Node3&#45;&gt;Node6</title>
<path fill="none" stroke="#191970" d="M210.2709,-112.3918C224.4815,-104.2618 243.8011,-91.4763 256.7579,-76 268.2848,-62.2317 276.5552,-43.4587 281.639,-29.4539"/>
<polygon fill="#191970" stroke="#191970" points="285.0038,-30.43 284.9066,-19.8356 278.3758,-28.1782 285.0038,-30.43"/>
</g>
<!-- Node7 -->
<g id="node8" class="node">
<title>Node7</title>
<polygon fill="none" stroke="#bfbfbf" points="354.7579,-.5 354.7579,-19.5 426.7579,-19.5 426.7579,-.5 354.7579,-.5"/>
<text text-anchor="middle" x="390.7579" y="-7.5" font-family="Helvetica,sans-Serif" font-size="10.00" fill="#000000">periph_cpu.h</text>
</g>
<!-- Node3&#45;&gt;Node7 -->
<g id="edge8" class="edge">
<title>Node3&#45;&gt;Node7</title>
<path fill="none" stroke="#191970" d="M225.2619,-118.6774C274.857,-113.0211 364.1808,-99.7597 384.7579,-76 395.5621,-63.5248 396.1427,-44.3094 394.5645,-29.8234"/>
<polygon fill="#191970" stroke="#191970" points="398.0144,-29.2281 393.0703,-19.8576 391.0918,-30.2661 398.0144,-29.2281"/>
</g>
<!-- Node3&#45;&gt;Node8 -->
<g id="edge10" class="edge">
<title>Node3&#45;&gt;Node8</title>
<path fill="none" stroke="#191970" d="M217.2,-112.3733C241.4906,-103.1822 278.2788,-89.2624 305.2122,-79.0713"/>
<polygon fill="#191970" stroke="#191970" points="306.5336,-82.3136 314.6478,-75.5011 304.0563,-75.7666 306.5336,-82.3136"/>
</g>
<!-- Node8&#45;&gt;Node2 -->
<g id="edge13" class="edge">
<title>Node8&#45;&gt;Node2</title>
<path fill="none" stroke="#191970" d="M303.724,-57.7971C260.8295,-48.0325 189.0449,-31.6913 141.5469,-20.8788"/>
<polygon fill="#191970" stroke="#191970" points="142.0321,-17.3998 131.5047,-18.5928 140.4783,-24.2252 142.0321,-17.3998"/>
</g>
<!-- Node8&#45;&gt;Node6 -->
<g id="edge11" class="edge">
<title>Node8&#45;&gt;Node6</title>
<path fill="none" stroke="#191970" d="M330.7002,-56.2455C323.2438,-48.2155 312.4945,-36.6394 303.6162,-27.0781"/>
<polygon fill="#191970" stroke="#191970" points="306.0812,-24.589 296.7119,-19.6427 300.9516,-29.3522 306.0812,-24.589"/>
</g>
<!-- Node8&#45;&gt;Node7 -->
<g id="edge12" class="edge">
<title>Node8&#45;&gt;Node7</title>
<path fill="none" stroke="#191970" d="M348.6415,-56.2455C355.9545,-48.2155 366.4971,-36.6394 375.2046,-27.0781"/>
<polygon fill="#191970" stroke="#191970" points="377.8306,-29.3928 381.9762,-19.6427 372.6552,-24.6795 377.8306,-29.3928"/>
</g>
<!-- Node9&#45;&gt;Node1 -->
<g id="edge16" class="edge">
<title>Node9&#45;&gt;Node1</title>
<path fill="none" stroke="#191970" d="M81.2228,-112.2455C74.2668,-104.2958 64.2697,-92.8706 55.9528,-83.3656"/>
<polygon fill="#191970" stroke="#191970" points="58.4144,-80.8637 49.1953,-75.6427 53.1463,-85.4732 58.4144,-80.8637"/>
</g>
</g>
</svg>
