<?xml version="1.0" encoding="UTF-8" standalone="no"?>
<!DOCTYPE svg PUBLIC "-//W3C//DTD SVG 1.1//EN"
 "http://www.w3.org/Graphics/SVG/1.1/DTD/svg11.dtd">
<!-- Generated by graphviz version 2.40.1 (20161225.0304)
 -->
<!-- Title: boards/mulle/include/board.h Pages: 1 -->
<svg width="298pt" height="207pt"
 viewBox="0.00 0.00 298.00 207.00" xmlns="http://www.w3.org/2000/svg" xmlns:xlink="http://www.w3.org/1999/xlink">
<g id="graph0" class="graph" transform="scale(1 1) rotate(0) translate(4 203)">
<title>boards/mulle/include/board.h</title>
<!-- Node0 -->
<g id="node1" class="node">
<title>Node0</title>
<polygon fill="#bfbfbf" stroke="#000000" points="90.5,-168.5 90.5,-198.5 196.5,-198.5 196.5,-168.5 90.5,-168.5"/>
<text text-anchor="start" x="98.5" y="-186.5" font-family="Helvetica,sans-Serif" font-size="10.00" fill="#000000">boards/mulle/include</text>
<text text-anchor="middle" x="143.5" y="-175.5" font-family="Helvetica,sans-Serif" font-size="10.00" fill="#000000">/board.h</text>
</g>
<!-- Node1 -->
<g id="node2" class="node">
<title>Node1</title>
<polygon fill="none" stroke="#bfbfbf" points="0,-112.5 0,-131.5 41,-131.5 41,-112.5 0,-112.5"/>
<text text-anchor="middle" x="20.5" y="-119.5" font-family="Helvetica,sans-Serif" font-size="10.00" fill="#000000">cpu.h</text>
</g>
<!-- Node0&#45;&gt;Node1 -->
<g id="edge1" class="edge">
<title>Node0&#45;&gt;Node1</title>
<path fill="none" stroke="#191970" d="M113.4108,-168.4554C93.6981,-158.599 68.0998,-145.7999 48.7653,-136.1327"/>
<polygon fill="#191970" stroke="#191970" points="50.0702,-132.872 39.5606,-131.5303 46.9397,-139.133 50.0702,-132.872"/>
</g>
<!-- Node2 -->
<g id="node3" class="node">
<title>Node2</title>
<g id="a_node3"><a xlink:href="boards_2mulle_2include_2periph__conf_8h.html" target="_top" xlink:title="periph_conf.h">
<polygon fill="none" stroke="#000000" points="59,-112.5 59,-131.5 134,-131.5 134,-112.5 59,-112.5"/>
<text text-anchor="middle" x="96.5" y="-119.5" font-family="Helvetica,sans-Serif" font-size="10.00" fill="#000000">periph_conf.h</text>
</a>
</g>
</g>
<!-- Node0&#45;&gt;Node2 -->
<g id="edge2" class="edge">
<title>Node0&#45;&gt;Node2</title>
<path fill="none" stroke="#191970" d="M131.882,-168.2977C125.29,-159.672 117.0052,-148.8312 110.1099,-139.8087"/>
<polygon fill="#191970" stroke="#191970" points="112.8783,-137.6671 104.0253,-131.8469 107.3165,-141.9176 112.8783,-137.6671"/>
</g>
<!-- Node4 -->
<g id="node5" class="node">
<title>Node4</title>
<g id="a_node5"><a xlink:href="mulle-nvram_8h.html" target="_top" xlink:title="NVRAM offsets for the Eistec Mulle IoT board. ">
<polygon fill="none" stroke="#000000" points="152.5,-112.5 152.5,-131.5 230.5,-131.5 230.5,-112.5 152.5,-112.5"/>
<text text-anchor="middle" x="191.5" y="-119.5" font-family="Helvetica,sans-Serif" font-size="10.00" fill="#000000">mulle&#45;nvram.h</text>
</a>
</g>
</g>
<!-- Node0&#45;&gt;Node4 -->
<g id="edge4" class="edge">
<title>Node0&#45;&gt;Node4</title>
<path fill="none" stroke="#191970" d="M155.3652,-168.2977C162.0975,-159.672 170.5585,-148.8312 177.6006,-139.8087"/>
<polygon fill="#191970" stroke="#191970" points="180.421,-141.8836 183.8146,-131.8469 174.9027,-137.5766 180.421,-141.8836"/>
</g>
<!-- Node8 -->
<g id="node9" class="node">
<title>Node8</title>
<polygon fill="none" stroke="#bfbfbf" points="249,-112.5 249,-131.5 290,-131.5 290,-112.5 249,-112.5"/>
<text text-anchor="middle" x="269.5" y="-119.5" font-family="Helvetica,sans-Serif" font-size="10.00" fill="#000000">mtd.h</text>
</g>
<!-- Node0&#45;&gt;Node8 -->
<g id="edge8" class="edge">
<title>Node0&#45;&gt;Node8</title>
<path fill="none" stroke="#191970" d="M174.3231,-168.4554C194.6088,-158.554 220.9788,-145.683 240.8162,-136.0004"/>
<polygon fill="#191970" stroke="#191970" points="242.523,-139.062 249.9745,-131.5303 239.4526,-132.7714 242.523,-139.062"/>
</g>
<!-- Node3 -->
<g id="node4" class="node">
<title>Node3</title>
<polygon fill="none" stroke="#bfbfbf" points="60.5,-56.5 60.5,-75.5 132.5,-75.5 132.5,-56.5 60.5,-56.5"/>
<text text-anchor="middle" x="96.5" y="-63.5" font-family="Helvetica,sans-Serif" font-size="10.00" fill="#000000">periph_cpu.h</text>
</g>
<!-- Node2&#45;&gt;Node3 -->
<g id="edge3" class="edge">
<title>Node2&#45;&gt;Node3</title>
<path fill="none" stroke="#191970" d="M96.5,-112.2455C96.5,-104.9382 96.5,-94.6944 96.5,-85.7046"/>
<polygon fill="#191970" stroke="#191970" points="100.0001,-85.6426 96.5,-75.6427 93.0001,-85.6427 100.0001,-85.6426"/>
</g>
<!-- Node5 -->
<g id="node6" class="node">
<title>Node5</title>
<g id="a_node6"><a xlink:href="nvram_8h.html" target="_top" xlink:title="Generic non&#45;volatile RAM driver interface. ">
<polygon fill="none" stroke="#000000" points="165.5,-56.5 165.5,-75.5 217.5,-75.5 217.5,-56.5 165.5,-56.5"/>
<text text-anchor="middle" x="191.5" y="-63.5" font-family="Helvetica,sans-Serif" font-size="10.00" fill="#000000">nvram.h</text>
</a>
</g>
</g>
<!-- Node4&#45;&gt;Node5 -->
<g id="edge5" class="edge">
<title>Node4&#45;&gt;Node5</title>
<path fill="none" stroke="#191970" d="M191.5,-112.2455C191.5,-104.9382 191.5,-94.6944 191.5,-85.7046"/>
<polygon fill="#191970" stroke="#191970" points="195.0001,-85.6426 191.5,-75.6427 188.0001,-85.6427 195.0001,-85.6426"/>
</g>
<!-- Node6 -->
<g id="node7" class="node">
<title>Node6</title>
<polygon fill="none" stroke="#bfbfbf" points="132,-.5 132,-19.5 181,-19.5 181,-.5 132,-.5"/>
<text text-anchor="middle" x="156.5" y="-7.5" font-family="Helvetica,sans-Serif" font-size="10.00" fill="#000000">stdint.h</text>
</g>
<!-- Node5&#45;&gt;Node6 -->
<g id="edge6" class="edge">
<title>Node5&#45;&gt;Node6</title>
<path fill="none" stroke="#191970" d="M185.4035,-56.2455C180.5855,-48.5367 173.7249,-37.5598 167.8968,-28.2348"/>
<polygon fill="#191970" stroke="#191970" points="170.7947,-26.2677 162.5267,-19.6427 164.8587,-29.9777 170.7947,-26.2677"/>
</g>
<!-- Node7 -->
<g id="node8" class="node">
<title>Node7</title>
<polygon fill="none" stroke="#bfbfbf" points="199.5,-.5 199.5,-19.5 251.5,-19.5 251.5,-.5 199.5,-.5"/>
<text text-anchor="middle" x="225.5" y="-7.5" font-family="Helvetica,sans-Serif" font-size="10.00" fill="#000000">stddef.h</text>
</g>
<!-- Node5&#45;&gt;Node7 -->
<g id="edge7" class="edge">
<title>Node5&#45;&gt;Node7</title>
<path fill="none" stroke="#191970" d="M197.4223,-56.2455C202.1027,-48.5367 208.7673,-37.5598 214.4289,-28.2348"/>
<polygon fill="#191970" stroke="#191970" points="217.4475,-30.007 219.6455,-19.6427 211.4639,-26.3741 217.4475,-30.007"/>
</g>
</g>
</svg>
