<?xml version="1.0" encoding="UTF-8" standalone="no"?>
<!DOCTYPE svg PUBLIC "-//W3C//DTD SVG 1.1//EN"
 "http://www.w3.org/Graphics/SVG/1.1/DTD/svg11.dtd">
<!-- Generated by graphviz version 2.43.0 (0)
 -->
<!-- Title: drivers/include/my9221.h Pages: 1 -->
<svg width="261pt" height="140pt"
 viewBox="0.00 0.00 261.00 140.00" xmlns="http://www.w3.org/2000/svg" xmlns:xlink="http://www.w3.org/1999/xlink">
<g id="graph0" class="graph" transform="scale(1 1) rotate(0) translate(4 136)">
<title>drivers/include/my9221.h</title>
<!-- Node1 -->
<g id="node1" class="node">
<title>Node1</title>
<g id="a_node1"><a xlink:title="Interface for the MY9221 LED controller driver.">
<polygon fill="#bfbfbf" stroke="black" points="0,-112.5 0,-131.5 140,-131.5 140,-112.5 0,-112.5"/>
<text text-anchor="middle" x="70" y="-119.5" font-family="Helvetica,sans-Serif" font-size="10.00">drivers/include/my9221.h</text>
</a>
</g>
</g>
<!-- Node2 -->
<g id="node2" class="node">
<title>Node2</title>
<g id="a_node2"><a xlink:title=" ">
<polygon fill="none" stroke="#bfbfbf" points="1.5,-56.5 1.5,-75.5 54.5,-75.5 54.5,-56.5 1.5,-56.5"/>
<text text-anchor="middle" x="28" y="-63.5" font-family="Helvetica,sans-Serif" font-size="10.00">stdint.h</text>
</a>
</g>
</g>
<!-- Node1&#45;&gt;Node2 -->
<g id="edge1" class="edge">
<title>Node1&#45;&gt;Node2</title>
<path fill="none" stroke="midnightblue" d="M63.06,-112.08C57.07,-104.38 48.25,-93.03 40.95,-83.65"/>
<polygon fill="midnightblue" stroke="midnightblue" points="43.71,-81.5 34.81,-75.75 38.18,-85.79 43.71,-81.5"/>
</g>
<!-- Node3 -->
<g id="node3" class="node">
<title>Node3</title>
<g id="a_node3"><a xlink:href="gpio_8h.html" target="_top" xlink:title="Low&#45;level GPIO peripheral driver interface definitions.">
<polygon fill="none" stroke="black" points="73,-56.5 73,-75.5 153,-75.5 153,-56.5 73,-56.5"/>
<text text-anchor="middle" x="113" y="-63.5" font-family="Helvetica,sans-Serif" font-size="10.00">periph/gpio.h</text>
</a>
</g>
</g>
<!-- Node1&#45;&gt;Node3 -->
<g id="edge2" class="edge">
<title>Node1&#45;&gt;Node3</title>
<path fill="none" stroke="midnightblue" d="M77.1,-112.08C83.24,-104.38 92.27,-93.03 99.74,-83.65"/>
<polygon fill="midnightblue" stroke="midnightblue" points="102.54,-85.75 106.03,-75.75 97.06,-81.39 102.54,-85.75"/>
</g>
<!-- Node4 -->
<g id="node4" class="node">
<title>Node4</title>
<g id="a_node4"><a xlink:title=" ">
<polygon fill="none" stroke="#bfbfbf" points="2.5,-0.5 2.5,-19.5 55.5,-19.5 55.5,-0.5 2.5,-0.5"/>
<text text-anchor="middle" x="29" y="-7.5" font-family="Helvetica,sans-Serif" font-size="10.00">limits.h</text>
</a>
</g>
</g>
<!-- Node3&#45;&gt;Node4 -->
<g id="edge3" class="edge">
<title>Node3&#45;&gt;Node4</title>
<path fill="none" stroke="midnightblue" d="M99.5,-56.32C86.4,-47.9 66.29,-34.97 50.89,-25.07"/>
<polygon fill="midnightblue" stroke="midnightblue" points="52.77,-22.12 42.46,-19.65 48.98,-28.01 52.77,-22.12"/>
</g>
<!-- Node5 -->
<g id="node5" class="node">
<title>Node5</title>
<g id="a_node5"><a xlink:title=" ">
<polygon fill="none" stroke="#bfbfbf" points="73.5,-0.5 73.5,-19.5 152.5,-19.5 152.5,-0.5 73.5,-0.5"/>
<text text-anchor="middle" x="113" y="-7.5" font-family="Helvetica,sans-Serif" font-size="10.00">periph_cpu.h</text>
</a>
</g>
</g>
<!-- Node3&#45;&gt;Node5 -->
<g id="edge4" class="edge">
<title>Node3&#45;&gt;Node5</title>
<path fill="none" stroke="midnightblue" d="M113,-56.08C113,-49.01 113,-38.86 113,-29.99"/>
<polygon fill="midnightblue" stroke="midnightblue" points="116.5,-29.75 113,-19.75 109.5,-29.75 116.5,-29.75"/>
</g>
<!-- Node6 -->
<g id="node6" class="node">
<title>Node6</title>
<g id="a_node6"><a xlink:title=" ">
<polygon fill="none" stroke="#bfbfbf" points="171,-0.5 171,-19.5 253,-19.5 253,-0.5 171,-0.5"/>
<text text-anchor="middle" x="212" y="-7.5" font-family="Helvetica,sans-Serif" font-size="10.00">periph_conf.h</text>
</a>
</g>
</g>
<!-- Node3&#45;&gt;Node6 -->
<g id="edge5" class="edge">
<title>Node3&#45;&gt;Node6</title>
<path fill="none" stroke="midnightblue" d="M128.91,-56.32C144.64,-47.74 168.94,-34.49 187.21,-24.52"/>
<polygon fill="midnightblue" stroke="midnightblue" points="189.03,-27.52 196.13,-19.65 185.68,-21.37 189.03,-27.52"/>
</g>
</g>
</svg>
