<?xml version="1.0" encoding="UTF-8" standalone="no"?>
<!DOCTYPE svg PUBLIC "-//W3C//DTD SVG 1.1//EN"
 "http://www.w3.org/Graphics/SVG/1.1/DTD/svg11.dtd">
<!-- Generated by graphviz version 2.40.1 (20161225.0304)
 -->
<!-- Title: drivers/include/my9221.h Pages: 1 -->
<svg width="165pt" height="173pt"
 viewBox="0.00 0.00 165.00 173.00" xmlns="http://www.w3.org/2000/svg" xmlns:xlink="http://www.w3.org/1999/xlink">
<g id="graph0" class="graph" transform="scale(1 1) rotate(0) translate(4 169)">
<title>drivers/include/my9221.h</title>
<!-- Node6 -->
<g id="node1" class="node">
<title>Node6</title>
<polygon fill="#bfbfbf" stroke="#000000" points="0,-145.5 0,-164.5 125,-164.5 125,-145.5 0,-145.5"/>
<text text-anchor="middle" x="62.5" y="-152.5" font-family="Helvetica,sans-Serif" font-size="10.00" fill="#000000">drivers/include/my9221.h</text>
</g>
<!-- Node7 -->
<g id="node2" class="node">
<title>Node7</title>
<g id="a_node2"><a xlink:href="grove__ledbar__params_8h.html" target="_top" xlink:title="Config for the Grove LED bar based on MY9221 LED controller. ">
<polygon fill="none" stroke="#000000" points="8,-.5 8,-41.5 117,-41.5 117,-.5 8,-.5"/>
<text text-anchor="start" x="16" y="-29.5" font-family="Helvetica,sans-Serif" font-size="10.00" fill="#000000">drivers/grove_ledbar</text>
<text text-anchor="start" x="16" y="-18.5" font-family="Helvetica,sans-Serif" font-size="10.00" fill="#000000">/include/grove_ledbar</text>
<text text-anchor="middle" x="62.5" y="-7.5" font-family="Helvetica,sans-Serif" font-size="10.00" fill="#000000">_params.h</text>
</a>
</g>
</g>
<!-- Node6&#45;&gt;Node7 -->
<g id="edge1" class="edge">
<title>Node6&#45;&gt;Node7</title>
<path fill="none" stroke="#191970" d="M51.7447,-136.2736C47.6789,-128.1643 43.5425,-118.3921 41.5,-109 36.4601,-85.8245 44.6719,-59.3722 52.2561,-41.5719"/>
<polygon fill="#191970" stroke="#191970" points="48.7191,-138.0378 56.5235,-145.2032 54.8909,-134.7349 48.7191,-138.0378"/>
</g>
<!-- Node8 -->
<g id="node3" class="node">
<title>Node8</title>
<g id="a_node3"><a xlink:href="grove__ledbar_8h.html" target="_top" xlink:title="Interface for the Grove ledbar driver. ">
<polygon fill="none" stroke="#000000" points="50,-78.5 50,-108.5 157,-108.5 157,-78.5 50,-78.5"/>
<text text-anchor="start" x="58" y="-96.5" font-family="Helvetica,sans-Serif" font-size="10.00" fill="#000000">drivers/include/grove</text>
<text text-anchor="middle" x="103.5" y="-85.5" font-family="Helvetica,sans-Serif" font-size="10.00" fill="#000000">_ledbar.h</text>
</a>
</g>
</g>
<!-- Node6&#45;&gt;Node8 -->
<g id="edge2" class="edge">
<title>Node6&#45;&gt;Node8</title>
<path fill="none" stroke="#191970" d="M74.6306,-136.8041C80.6303,-127.8045 87.7847,-117.073 93.4703,-108.5446"/>
<polygon fill="#191970" stroke="#191970" points="71.5411,-135.1286 68.9063,-145.3906 77.3655,-139.0116 71.5411,-135.1286"/>
</g>
<!-- Node8&#45;&gt;Node7 -->
<g id="edge3" class="edge">
<title>Node8&#45;&gt;Node7</title>
<path fill="none" stroke="#191970" d="M89.9582,-69.5541C84.8251,-60.4774 79.0317,-50.2329 74.094,-41.5015"/>
<polygon fill="#191970" stroke="#191970" points="87.0356,-71.4963 95.0048,-78.478 93.1288,-68.0505 87.0356,-71.4963"/>
</g>
</g>
</svg>
