<?xml version="1.0" encoding="UTF-8" standalone="no"?>
<!DOCTYPE svg PUBLIC "-//W3C//DTD SVG 1.1//EN"
 "http://www.w3.org/Graphics/SVG/1.1/DTD/svg11.dtd">
<!-- Generated by graphviz version 2.40.1 (20161225.0304)
 -->
<!-- Title: sys/include/net/nanocoap.h Pages: 1 -->
<svg width="977pt" height="364pt"
 viewBox="0.00 0.00 976.76 364.00" xmlns="http://www.w3.org/2000/svg" xmlns:xlink="http://www.w3.org/1999/xlink">
<g id="graph0" class="graph" transform="scale(1 1) rotate(0) translate(4 360)">
<title>sys/include/net/nanocoap.h</title>
<!-- Node0 -->
<g id="node1" class="node">
<title>Node0</title>
<polygon fill="#bfbfbf" stroke="#000000" points="690,-336.5 690,-355.5 826,-355.5 826,-336.5 690,-336.5"/>
<text text-anchor="middle" x="758" y="-343.5" font-family="Helvetica,sans-Serif" font-size="10.00" fill="#000000">sys/include/net/nanocoap.h</text>
</g>
<!-- Node1 -->
<g id="node2" class="node">
<title>Node1</title>
<g id="a_node2"><a xlink:href="assert_8h.html" target="_top" xlink:title="POSIX.1&#45;2008 compliant version of the assert macro. ">
<polygon fill="none" stroke="#000000" points="27,-280.5 27,-299.5 79,-299.5 79,-280.5 27,-280.5"/>
<text text-anchor="middle" x="53" y="-287.5" font-family="Helvetica,sans-Serif" font-size="10.00" fill="#000000">assert.h</text>
</a>
</g>
</g>
<!-- Node0&#45;&gt;Node1 -->
<g id="edge1" class="edge">
<title>Node0&#45;&gt;Node1</title>
<path fill="none" stroke="#191970" d="M689.7027,-344.1629C570.1152,-340.2892 315.2304,-329.1061 102,-300 97.7901,-299.4254 93.3992,-298.705 89.0503,-297.9156"/>
<polygon fill="#191970" stroke="#191970" points="89.5671,-294.4507 79.0839,-295.9845 88.2355,-301.3229 89.5671,-294.4507"/>
</g>
<!-- Node4 -->
<g id="node5" class="node">
<title>Node4</title>
<polygon fill="none" stroke="#bfbfbf" points="122,-56.5 122,-75.5 174,-75.5 174,-56.5 122,-56.5"/>
<text text-anchor="middle" x="148" y="-63.5" font-family="Helvetica,sans-Serif" font-size="10.00" fill="#000000">stddef.h</text>
</g>
<!-- Node0&#45;&gt;Node4 -->
<g id="edge8" class="edge">
<title>Node0&#45;&gt;Node4</title>
<path fill="none" stroke="#191970" d="M689.9026,-341.2026C524.6761,-328.653 116,-291.773 116,-234 116,-234 116,-234 116,-178 116,-144.132 129.6955,-106.643 139.1672,-84.7657"/>
<polygon fill="#191970" stroke="#191970" points="142.3695,-86.1784 143.2783,-75.6226 135.9851,-83.3077 142.3695,-86.1784"/>
</g>
<!-- Node5 -->
<g id="node6" class="node">
<title>Node5</title>
<g id="a_node6"><a xlink:href="errno_8h.html" target="_top" xlink:title="errno.h">
<polygon fill="none" stroke="#000000" points="421.5,-280.5 421.5,-299.5 468.5,-299.5 468.5,-280.5 421.5,-280.5"/>
<text text-anchor="middle" x="445" y="-287.5" font-family="Helvetica,sans-Serif" font-size="10.00" fill="#000000">errno.h</text>
</a>
</g>
</g>
<!-- Node0&#45;&gt;Node5 -->
<g id="edge5" class="edge">
<title>Node0&#45;&gt;Node5</title>
<path fill="none" stroke="#191970" d="M689.8997,-337.364C635.2336,-329.8484 556.4006,-317.7042 478.6593,-299.9017"/>
<polygon fill="#191970" stroke="#191970" points="479.225,-296.44 468.6924,-297.5863 477.641,-303.2584 479.225,-296.44"/>
</g>
<!-- Node6 -->
<g id="node7" class="node">
<title>Node6</title>
<polygon fill="none" stroke="#bfbfbf" points="602.5,-.5 602.5,-19.5 651.5,-19.5 651.5,-.5 602.5,-.5"/>
<text text-anchor="middle" x="627" y="-7.5" font-family="Helvetica,sans-Serif" font-size="10.00" fill="#000000">stdint.h</text>
</g>
<!-- Node0&#45;&gt;Node6 -->
<g id="edge6" class="edge">
<title>Node0&#45;&gt;Node6</title>
<path fill="none" stroke="#191970" d="M826.491,-336.8801C873.8484,-329.2384 931.3809,-316.8611 949,-300 971.0534,-278.8955 968,-264.5246 968,-234 968,-234 968,-234 968,-122 968,-57.9948 748.4117,-24.591 661.66,-13.8917"/>
<polygon fill="#191970" stroke="#191970" points="661.8707,-10.3918 651.5239,-12.6708 661.0336,-17.3416 661.8707,-10.3918"/>
</g>
<!-- Node7 -->
<g id="node8" class="node">
<title>Node7</title>
<polygon fill="none" stroke="#bfbfbf" points="704,-56.5 704,-75.5 760,-75.5 760,-56.5 704,-56.5"/>
<text text-anchor="middle" x="732" y="-63.5" font-family="Helvetica,sans-Serif" font-size="10.00" fill="#000000">stdbool.h</text>
</g>
<!-- Node0&#45;&gt;Node7 -->
<g id="edge7" class="edge">
<title>Node0&#45;&gt;Node7</title>
<path fill="none" stroke="#191970" d="M765.4298,-336.3358C790.1967,-302.8616 865.7952,-189.6759 819,-112 808.2382,-94.1363 787.96,-82.8498 769.687,-75.9296"/>
<polygon fill="#191970" stroke="#191970" points="770.6907,-72.5733 760.0959,-72.6087 768.4004,-79.1881 770.6907,-72.5733"/>
</g>
<!-- Node8 -->
<g id="node9" class="node">
<title>Node8</title>
<polygon fill="none" stroke="#bfbfbf" points="760.5,-112.5 760.5,-131.5 809.5,-131.5 809.5,-112.5 760.5,-112.5"/>
<text text-anchor="middle" x="785" y="-119.5" font-family="Helvetica,sans-Serif" font-size="10.00" fill="#000000">string.h</text>
</g>
<!-- Node0&#45;&gt;Node8 -->
<g id="edge9" class="edge">
<title>Node0&#45;&gt;Node8</title>
<path fill="none" stroke="#191970" d="M759.1602,-336.375C763.2538,-302.4133 777.0751,-187.7472 782.6448,-141.5392"/>
<polygon fill="#191970" stroke="#191970" points="786.1222,-141.9362 783.8442,-131.5891 779.1725,-141.0984 786.1222,-141.9362"/>
</g>
<!-- Node9 -->
<g id="node10" class="node">
<title>Node9</title>
<polygon fill="none" stroke="#bfbfbf" points="824.5,-280.5 824.5,-299.5 875.5,-299.5 875.5,-280.5 824.5,-280.5"/>
<text text-anchor="middle" x="850" y="-287.5" font-family="Helvetica,sans-Serif" font-size="10.00" fill="#000000">unistd.h</text>
</g>
<!-- Node0&#45;&gt;Node9 -->
<g id="edge10" class="edge">
<title>Node0&#45;&gt;Node9</title>
<path fill="none" stroke="#191970" d="M774.0252,-336.2455C788.1408,-327.6534 808.9263,-315.0014 825.1899,-305.1018"/>
<polygon fill="#191970" stroke="#191970" points="827.4363,-307.8319 834.1585,-299.6427 823.7966,-301.8525 827.4363,-307.8319"/>
</g>
<!-- Node10 -->
<g id="node11" class="node">
<title>Node10</title>
<g id="a_node11"><a xlink:href="net_2coap_8h.html" target="_top" xlink:title="Generic CoAP values as defined by RFC7252. ">
<polygon fill="none" stroke="#000000" points="894,-280.5 894,-299.5 940,-299.5 940,-280.5 894,-280.5"/>
<text text-anchor="middle" x="917" y="-287.5" font-family="Helvetica,sans-Serif" font-size="10.00" fill="#000000">coap.h</text>
</a>
</g>
</g>
<!-- Node0&#45;&gt;Node10 -->
<g id="edge11" class="edge">
<title>Node0&#45;&gt;Node10</title>
<path fill="none" stroke="#191970" d="M785.3331,-336.3733C812.6554,-326.7503 854.6959,-311.9436 883.8936,-301.6601"/>
<polygon fill="#191970" stroke="#191970" points="885.3711,-304.8506 893.6404,-298.2273 883.0456,-298.2481 885.3711,-304.8506"/>
</g>
<!-- Node11 -->
<g id="node12" class="node">
<title>Node11</title>
<g id="a_node12"><a xlink:href="inet_8h.html" target="_top" xlink:title="Definitions for internet operations. ">
<polygon fill="none" stroke="#000000" points="487,-280.5 487,-299.5 549,-299.5 549,-280.5 487,-280.5"/>
<text text-anchor="middle" x="518" y="-287.5" font-family="Helvetica,sans-Serif" font-size="10.00" fill="#000000">arpa/inet.h</text>
</a>
</g>
</g>
<!-- Node0&#45;&gt;Node11 -->
<g id="edge12" class="edge">
<title>Node0&#45;&gt;Node11</title>
<path fill="none" stroke="#191970" d="M717.0152,-336.4369C672.9222,-326.1485 603.2077,-309.8818 559.0784,-299.585"/>
<polygon fill="#191970" stroke="#191970" points="559.7898,-296.157 549.2561,-297.2931 558.1991,-302.9739 559.7898,-296.157"/>
</g>
<!-- Node2 -->
<g id="node3" class="node">
<title>Node2</title>
<g id="a_node3"><a xlink:href="panic_8h.html" target="_top" xlink:title="Crash handling header. ">
<polygon fill="none" stroke="#000000" points="25,-224.5 25,-243.5 73,-243.5 73,-224.5 25,-224.5"/>
<text text-anchor="middle" x="49" y="-231.5" font-family="Helvetica,sans-Serif" font-size="10.00" fill="#000000">panic.h</text>
</a>
</g>
</g>
<!-- Node1&#45;&gt;Node2 -->
<g id="edge2" class="edge">
<title>Node1&#45;&gt;Node2</title>
<path fill="none" stroke="#191970" d="M52.3033,-280.2455C51.7813,-272.9382 51.0496,-262.6944 50.4075,-253.7046"/>
<polygon fill="#191970" stroke="#191970" points="53.8924,-253.3679 49.6888,-243.6427 46.9102,-253.8667 53.8924,-253.3679"/>
</g>
<!-- Node3 -->
<g id="node4" class="node">
<title>Node3</title>
<g id="a_node4"><a xlink:href="kernel__defines_8h.html" target="_top" xlink:title="Common macros and compiler attributes/pragmas configuration. ">
<polygon fill="none" stroke="#000000" points="0,-168.5 0,-187.5 88,-187.5 88,-168.5 0,-168.5"/>
<text text-anchor="middle" x="44" y="-175.5" font-family="Helvetica,sans-Serif" font-size="10.00" fill="#000000">kernel_defines.h</text>
</a>
</g>
</g>
<!-- Node2&#45;&gt;Node3 -->
<g id="edge3" class="edge">
<title>Node2&#45;&gt;Node3</title>
<path fill="none" stroke="#191970" d="M48.1291,-224.2455C47.4766,-216.9382 46.562,-206.6944 45.7593,-197.7046"/>
<polygon fill="#191970" stroke="#191970" points="49.2365,-197.2918 44.861,-187.6427 42.2642,-197.9143 49.2365,-197.2918"/>
</g>
<!-- Node3&#45;&gt;Node4 -->
<g id="edge4" class="edge">
<title>Node3&#45;&gt;Node4</title>
<path fill="none" stroke="#191970" d="M52.0725,-168.4303C63.1093,-155.4362 83.6374,-131.5854 102,-112 111.2263,-102.1593 121.8563,-91.4882 130.572,-82.9035"/>
<polygon fill="#191970" stroke="#191970" points="133.244,-85.1857 137.9428,-75.6898 128.3479,-80.1829 133.244,-85.1857"/>
</g>
<!-- Node12 -->
<g id="node13" class="node">
<title>Node12</title>
<g id="a_node13"><a xlink:href="af_8h.html" target="_top" xlink:title="Global UNIX address family definitions. ">
<polygon fill="none" stroke="#000000" points="144,-112.5 144,-131.5 194,-131.5 194,-112.5 144,-112.5"/>
<text text-anchor="middle" x="169" y="-119.5" font-family="Helvetica,sans-Serif" font-size="10.00" fill="#000000">net/af.h</text>
</a>
</g>
</g>
<!-- Node11&#45;&gt;Node12 -->
<g id="edge13" class="edge">
<title>Node11&#45;&gt;Node12</title>
<path fill="none" stroke="#191970" d="M490.8544,-280.4353C444.9244,-263.8724 349.4219,-227.7853 273,-188 243.424,-172.6027 211.2942,-151.4769 190.6938,-137.3131"/>
<polygon fill="#191970" stroke="#191970" points="192.5624,-134.3497 182.3514,-131.5237 188.5714,-140.1005 192.5624,-134.3497"/>
</g>
<!-- Node13 -->
<g id="node14" class="node">
<title>Node13</title>
<g id="a_node14"><a xlink:href="bytes_8h.html" target="_top" xlink:title="System&#45;internal byte operations. ">
<polygon fill="none" stroke="#000000" points="460,-112.5 460,-131.5 528,-131.5 528,-112.5 460,-112.5"/>
<text text-anchor="middle" x="494" y="-119.5" font-family="Helvetica,sans-Serif" font-size="10.00" fill="#000000">sys/bytes.h</text>
</a>
</g>
</g>
<!-- Node11&#45;&gt;Node13 -->
<g id="edge14" class="edge">
<title>Node11&#45;&gt;Node13</title>
<path fill="none" stroke="#191970" d="M499.7217,-280.4628C472.6416,-265.1633 422.9211,-232.2971 403,-188 391.4934,-162.4135 421.6023,-144.7515 450.2187,-134.182"/>
<polygon fill="#191970" stroke="#191970" points="451.4964,-137.4436 459.8039,-130.8683 449.2091,-130.8278 451.4964,-137.4436"/>
</g>
<!-- Node15 -->
<g id="node16" class="node">
<title>Node15</title>
<g id="a_node16"><a xlink:href="in_8h.html" target="_top" xlink:title="Main socket header. ">
<polygon fill="none" stroke="#000000" points="485.5,-224.5 485.5,-243.5 550.5,-243.5 550.5,-224.5 485.5,-224.5"/>
<text text-anchor="middle" x="518" y="-231.5" font-family="Helvetica,sans-Serif" font-size="10.00" fill="#000000">netinet/in.h</text>
</a>
</g>
</g>
<!-- Node11&#45;&gt;Node15 -->
<g id="edge18" class="edge">
<title>Node11&#45;&gt;Node15</title>
<path fill="none" stroke="#191970" d="M518,-280.2455C518,-272.9382 518,-262.6944 518,-253.7046"/>
<polygon fill="#191970" stroke="#191970" points="521.5001,-253.6426 518,-243.6427 514.5001,-253.6427 521.5001,-253.6426"/>
</g>
<!-- Node13&#45;&gt;Node4 -->
<g id="edge15" class="edge">
<title>Node13&#45;&gt;Node4</title>
<path fill="none" stroke="#191970" d="M459.7836,-113.7896C456.8189,-113.1551 453.8603,-112.5489 451,-112 437.9932,-109.5042 261.8834,-83.0577 184.2854,-71.4315"/>
<polygon fill="#191970" stroke="#191970" points="184.4252,-67.9135 174.0171,-69.8934 183.3882,-74.8363 184.4252,-67.9135"/>
</g>
<!-- Node14 -->
<g id="node15" class="node">
<title>Node14</title>
<g id="a_node15"><a xlink:href="byteorder_8h.html" target="_top" xlink:title="Functions to work with different byte orders. ">
<polygon fill="none" stroke="#000000" points="563.5,-56.5 563.5,-75.5 628.5,-75.5 628.5,-56.5 563.5,-56.5"/>
<text text-anchor="middle" x="596" y="-63.5" font-family="Helvetica,sans-Serif" font-size="10.00" fill="#000000">byteorder.h</text>
</a>
</g>
</g>
<!-- Node13&#45;&gt;Node14 -->
<g id="edge16" class="edge">
<title>Node13&#45;&gt;Node14</title>
<path fill="none" stroke="#191970" d="M511.767,-112.2455C527.7095,-103.4928 551.3259,-90.527 569.4989,-80.5496"/>
<polygon fill="#191970" stroke="#191970" points="571.3552,-83.5233 578.4366,-75.6427 567.9863,-77.3873 571.3552,-83.5233"/>
</g>
<!-- Node14&#45;&gt;Node6 -->
<g id="edge17" class="edge">
<title>Node14&#45;&gt;Node6</title>
<path fill="none" stroke="#191970" d="M601.3998,-56.2455C605.6227,-48.617 611.6173,-37.7881 616.7441,-28.5267"/>
<polygon fill="#191970" stroke="#191970" points="619.881,-30.0867 621.6621,-19.6427 613.7568,-26.6965 619.881,-30.0867"/>
</g>
<!-- Node15&#45;&gt;Node13 -->
<g id="edge45" class="edge">
<title>Node15&#45;&gt;Node13</title>
<path fill="none" stroke="#191970" d="M515.9538,-224.4509C512.0217,-206.1013 503.3409,-165.5908 498.1506,-141.3693"/>
<polygon fill="#191970" stroke="#191970" points="501.5587,-140.5695 496.041,-131.5249 494.7141,-142.0363 501.5587,-140.5695"/>
</g>
<!-- Node16 -->
<g id="node17" class="node">
<title>Node16</title>
<g id="a_node17"><a xlink:href="inttypes_8h.html" target="_top" xlink:title="Adds include for missing inttype definitions. ">
<polygon fill="none" stroke="#000000" points="486.5,-56.5 486.5,-75.5 545.5,-75.5 545.5,-56.5 486.5,-56.5"/>
<text text-anchor="middle" x="516" y="-63.5" font-family="Helvetica,sans-Serif" font-size="10.00" fill="#000000">inttypes.h</text>
</a>
</g>
</g>
<!-- Node15&#45;&gt;Node16 -->
<g id="edge19" class="edge">
<title>Node15&#45;&gt;Node16</title>
<path fill="none" stroke="#191970" d="M521.8728,-224.4372C529.7209,-203.7738 546.0191,-153.4737 537,-112 534.9575,-102.6079 530.8211,-92.8357 526.7553,-84.7264"/>
<polygon fill="#191970" stroke="#191970" points="529.7809,-82.9622 521.9765,-75.7968 523.6091,-86.2651 529.7809,-82.9622"/>
</g>
<!-- Node17 -->
<g id="node18" class="node">
<title>Node17</title>
<g id="a_node18"><a xlink:href="socket_8h.html" target="_top" xlink:title="Main socket header. ">
<polygon fill="none" stroke="#000000" points="282.5,-168.5 282.5,-187.5 355.5,-187.5 355.5,-168.5 282.5,-168.5"/>
<text text-anchor="middle" x="319" y="-175.5" font-family="Helvetica,sans-Serif" font-size="10.00" fill="#000000">sys/socket.h</text>
</a>
</g>
</g>
<!-- Node15&#45;&gt;Node17 -->
<g id="edge20" class="edge">
<title>Node15&#45;&gt;Node17</title>
<path fill="none" stroke="#191970" d="M485.1392,-224.7527C451.7391,-215.3537 399.7981,-200.7371 362.892,-190.3515"/>
<polygon fill="#191970" stroke="#191970" points="363.4834,-186.8821 352.9091,-187.5423 361.5871,-193.6203 363.4834,-186.8821"/>
</g>
<!-- Node24 -->
<g id="node25" class="node">
<title>Node24</title>
<g id="a_node25"><a xlink:href="protnum_8h.html" target="_top" xlink:title="Protocol number definitions. ">
<polygon fill="none" stroke="#000000" points="412.5,-168.5 412.5,-187.5 489.5,-187.5 489.5,-168.5 412.5,-168.5"/>
<text text-anchor="middle" x="451" y="-175.5" font-family="Helvetica,sans-Serif" font-size="10.00" fill="#000000">net/protnum.h</text>
</a>
</g>
</g>
<!-- Node15&#45;&gt;Node24 -->
<g id="edge36" class="edge">
<title>Node15&#45;&gt;Node24</title>
<path fill="none" stroke="#191970" d="M506.3295,-224.2455C496.4339,-215.9746 482.0373,-203.9416 470.4099,-194.2232"/>
<polygon fill="#191970" stroke="#191970" points="472.4542,-191.3703 462.5368,-187.6427 467.965,-196.7413 472.4542,-191.3703"/>
</g>
<!-- Node25 -->
<g id="node26" class="node">
<title>Node25</title>
<g id="a_node26"><a xlink:href="ipv6_2addr_8h.html" target="_top" xlink:title="Definitions for IPv6 addresses. ">
<polygon fill="none" stroke="#000000" points="622.5,-168.5 622.5,-187.5 703.5,-187.5 703.5,-168.5 622.5,-168.5"/>
<text text-anchor="middle" x="663" y="-175.5" font-family="Helvetica,sans-Serif" font-size="10.00" fill="#000000">net/ipv6/addr.h</text>
</a>
</g>
</g>
<!-- Node15&#45;&gt;Node25 -->
<g id="edge37" class="edge">
<title>Node15&#45;&gt;Node25</title>
<path fill="none" stroke="#191970" d="M542.9264,-224.3733C566.6202,-215.2226 602.4511,-201.3844 628.8068,-191.2057"/>
<polygon fill="#191970" stroke="#191970" points="630.3314,-194.3689 638.3989,-187.5011 627.8094,-187.8389 630.3314,-194.3689"/>
</g>
<!-- Node17&#45;&gt;Node12 -->
<g id="edge34" class="edge">
<title>Node17&#45;&gt;Node12</title>
<path fill="none" stroke="#191970" d="M293.2141,-168.3733C268.5953,-159.1822 231.31,-145.2624 204.0125,-135.0713"/>
<polygon fill="#191970" stroke="#191970" points="205.042,-131.7198 194.4494,-131.5011 202.5937,-138.2777 205.042,-131.7198"/>
</g>
<!-- Node17&#45;&gt;Node13 -->
<g id="edge35" class="edge">
<title>Node17&#45;&gt;Node13</title>
<path fill="none" stroke="#191970" d="M349.0836,-168.3733C378.1834,-159.0613 422.4523,-144.8953 454.403,-134.671"/>
<polygon fill="#191970" stroke="#191970" points="455.8515,-137.8824 464.309,-131.5011 453.718,-131.2155 455.8515,-137.8824"/>
</g>
<!-- Node18 -->
<g id="node19" class="node">
<title>Node18</title>
<g id="a_node19"><a xlink:href="stdlib_8h.html" target="_top" xlink:title="stdlib.h wrapper for MSP430 ">
<polygon fill="none" stroke="#000000" points="310,-56.5 310,-75.5 358,-75.5 358,-56.5 310,-56.5"/>
<text text-anchor="middle" x="334" y="-63.5" font-family="Helvetica,sans-Serif" font-size="10.00" fill="#000000">stdlib.h</text>
</a>
</g>
</g>
<!-- Node17&#45;&gt;Node18 -->
<g id="edge21" class="edge">
<title>Node17&#45;&gt;Node18</title>
<path fill="none" stroke="#191970" d="M320.2789,-168.4509C322.7254,-150.184 328.1131,-109.9553 331.3619,-85.6976"/>
<polygon fill="#191970" stroke="#191970" points="334.8659,-85.901 332.7243,-75.5249 327.9278,-84.9718 334.8659,-85.901"/>
</g>
<!-- Node20 -->
<g id="node21" class="node">
<title>Node20</title>
<polygon fill="none" stroke="#bfbfbf" points="224,-56.5 224,-75.5 292,-75.5 292,-56.5 224,-56.5"/>
<text text-anchor="middle" x="258" y="-63.5" font-family="Helvetica,sans-Serif" font-size="10.00" fill="#000000">sys/types.h</text>
</g>
<!-- Node17&#45;&gt;Node20 -->
<g id="edge24" class="edge">
<title>Node17&#45;&gt;Node20</title>
<path fill="none" stroke="#191970" d="M288.2809,-168.4362C271.0926,-161.3313 251.1368,-149.7464 241,-132 232.594,-117.2836 238.9163,-98.3738 246.1172,-84.57"/>
<polygon fill="#191970" stroke="#191970" points="249.3529,-85.9652 251.3178,-75.5542 243.2894,-82.4676 249.3529,-85.9652"/>
</g>
<!-- Node21 -->
<g id="node22" class="node">
<title>Node21</title>
<g id="a_node22"><a xlink:href="uio_8h.html" target="_top" xlink:title="libc header for scatter/gather I/O ">
<polygon fill="none" stroke="#000000" points="250,-112.5 250,-131.5 306,-131.5 306,-112.5 250,-112.5"/>
<text text-anchor="middle" x="278" y="-119.5" font-family="Helvetica,sans-Serif" font-size="10.00" fill="#000000">sys/uio.h</text>
</a>
</g>
</g>
<!-- Node17&#45;&gt;Node21 -->
<g id="edge25" class="edge">
<title>Node17&#45;&gt;Node21</title>
<path fill="none" stroke="#191970" d="M311.8583,-168.2455C306.1556,-160.4564 298.01,-149.3308 291.1375,-139.9439"/>
<polygon fill="#191970" stroke="#191970" points="293.7913,-137.6437 285.0598,-131.6427 288.1432,-141.7789 293.7913,-137.6437"/>
</g>
<!-- Node22 -->
<g id="node23" class="node">
<title>Node22</title>
<g id="a_node23"><a xlink:href="kernel__types_8h.html" target="_top" xlink:title="Types used by the kernel. ">
<polygon fill="none" stroke="#000000" points="362,-112.5 362,-131.5 442,-131.5 442,-112.5 362,-112.5"/>
<text text-anchor="middle" x="402" y="-119.5" font-family="Helvetica,sans-Serif" font-size="10.00" fill="#000000">kernel_types.h</text>
</a>
</g>
</g>
<!-- Node17&#45;&gt;Node22 -->
<g id="edge28" class="edge">
<title>Node17&#45;&gt;Node22</title>
<path fill="none" stroke="#191970" d="M333.4575,-168.2455C346.0732,-159.7337 364.5944,-147.2375 379.2045,-137.3801"/>
<polygon fill="#191970" stroke="#191970" points="381.3761,-140.1371 387.7082,-131.6427 377.4609,-134.3343 381.3761,-140.1371"/>
</g>
<!-- Node19 -->
<g id="node20" class="node">
<title>Node19</title>
<g id="a_node20"><a xlink:href="malloc_8h.html" target="_top" xlink:title="malloc.h">
<polygon fill="none" stroke="#000000" points="307.5,-.5 307.5,-19.5 360.5,-19.5 360.5,-.5 307.5,-.5"/>
<text text-anchor="middle" x="334" y="-7.5" font-family="Helvetica,sans-Serif" font-size="10.00" fill="#000000">malloc.h</text>
</a>
</g>
</g>
<!-- Node18&#45;&gt;Node19 -->
<g id="edge22" class="edge">
<title>Node18&#45;&gt;Node19</title>
<path fill="none" stroke="#191970" d="M328.7332,-56.2455C327.3221,-48.9382 326.9179,-38.6944 327.5205,-29.7046"/>
<polygon fill="#191970" stroke="#191970" points="331.0111,-29.9945 328.7549,-19.6427 324.0632,-29.1421 331.0111,-29.9945"/>
</g>
<!-- Node19&#45;&gt;Node18 -->
<g id="edge23" class="edge">
<title>Node19&#45;&gt;Node18</title>
<path fill="none" stroke="#191970" d="M339.2451,-19.6427C340.6665,-26.9199 341.081,-37.155 340.4887,-46.1575"/>
<polygon fill="#191970" stroke="#191970" points="336.9947,-45.8972 339.2668,-56.2455 343.9439,-46.739 336.9947,-45.8972"/>
</g>
<!-- Node21&#45;&gt;Node18 -->
<g id="edge26" class="edge">
<title>Node21&#45;&gt;Node18</title>
<path fill="none" stroke="#191970" d="M287.7545,-112.2455C295.8648,-104.1352 307.5925,-92.4075 317.2081,-82.7919"/>
<polygon fill="#191970" stroke="#191970" points="319.7611,-85.1887 324.3573,-75.6427 314.8113,-80.2389 319.7611,-85.1887"/>
</g>
<!-- Node21&#45;&gt;Node20 -->
<g id="edge27" class="edge">
<title>Node21&#45;&gt;Node20</title>
<path fill="none" stroke="#191970" d="M274.5163,-112.2455C271.8492,-104.7776 268.0867,-94.2427 264.8263,-85.1137"/>
<polygon fill="#191970" stroke="#191970" points="268.1033,-83.8829 261.4438,-75.6427 261.5111,-86.2373 268.1033,-83.8829"/>
</g>
<!-- Node22&#45;&gt;Node4 -->
<g id="edge32" class="edge">
<title>Node22&#45;&gt;Node4</title>
<path fill="none" stroke="#191970" d="M361.7529,-113.1266C312.8544,-102.3459 231.0885,-84.3187 184.1281,-73.9653"/>
<polygon fill="#191970" stroke="#191970" points="184.6188,-70.4895 174.0998,-71.7543 183.1117,-77.3253 184.6188,-70.4895"/>
</g>
<!-- Node22&#45;&gt;Node6 -->
<g id="edge29" class="edge">
<title>Node22&#45;&gt;Node6</title>
<path fill="none" stroke="#191970" d="M410.848,-112.0434C424.1019,-97.7024 450.5055,-71.2808 478,-56 514.4614,-35.7356 561.009,-23.2007 592.2928,-16.4318"/>
<polygon fill="#191970" stroke="#191970" points="593.2025,-19.8176 602.2803,-14.3545 591.7771,-12.9643 593.2025,-19.8176"/>
</g>
<!-- Node22&#45;&gt;Node16 -->
<g id="edge30" class="edge">
<title>Node22&#45;&gt;Node16</title>
<path fill="none" stroke="#191970" d="M421.5973,-112.3733C439.7331,-103.4644 466.9135,-90.1127 487.4587,-80.0203"/>
<polygon fill="#191970" stroke="#191970" points="489.2261,-83.0517 496.6584,-75.5011 486.1397,-76.7688 489.2261,-83.0517"/>
</g>
<!-- Node22&#45;&gt;Node20 -->
<g id="edge33" class="edge">
<title>Node22&#45;&gt;Node20</title>
<path fill="none" stroke="#191970" d="M377.2455,-112.3733C353.7151,-103.2226 318.1313,-89.3844 291.9574,-79.2057"/>
<polygon fill="#191970" stroke="#191970" points="293.0201,-75.8636 282.4315,-75.5011 290.4829,-82.3877 293.0201,-75.8636"/>
</g>
<!-- Node23 -->
<g id="node24" class="node">
<title>Node23</title>
<polygon fill="none" stroke="#bfbfbf" points="378,-56.5 378,-75.5 426,-75.5 426,-56.5 378,-56.5"/>
<text text-anchor="middle" x="402" y="-63.5" font-family="Helvetica,sans-Serif" font-size="10.00" fill="#000000">limits.h</text>
</g>
<!-- Node22&#45;&gt;Node23 -->
<g id="edge31" class="edge">
<title>Node22&#45;&gt;Node23</title>
<path fill="none" stroke="#191970" d="M402,-112.2455C402,-104.9382 402,-94.6944 402,-85.7046"/>
<polygon fill="#191970" stroke="#191970" points="405.5001,-85.6426 402,-75.6427 398.5001,-85.6427 405.5001,-85.6426"/>
</g>
<!-- Node25&#45;&gt;Node7 -->
<g id="edge38" class="edge">
<title>Node25&#45;&gt;Node7</title>
<path fill="none" stroke="#191970" d="M677.2872,-168.2752C688.5437,-159.9034 703.8208,-146.849 713,-132 721.8059,-117.7548 726.6684,-99.274 729.2638,-85.4932"/>
<polygon fill="#191970" stroke="#191970" points="732.7183,-86.0558 730.8914,-75.6196 725.8115,-84.9172 732.7183,-86.0558"/>
</g>
<!-- Node25&#45;&gt;Node8 -->
<g id="edge39" class="edge">
<title>Node25&#45;&gt;Node8</title>
<path fill="none" stroke="#191970" d="M683.9725,-168.3733C703.5567,-159.3838 732.9961,-145.8706 755.051,-135.7471"/>
<polygon fill="#191970" stroke="#191970" points="756.6729,-138.8538 764.3011,-131.5011 753.7527,-132.4919 756.6729,-138.8538"/>
</g>
<!-- Node25&#45;&gt;Node14 -->
<g id="edge40" class="edge">
<title>Node25&#45;&gt;Node14</title>
<path fill="none" stroke="#191970" d="M648.9488,-168.2476C637.8886,-159.8598 622.9024,-146.7974 614,-132 605.4856,-117.8476 600.91,-99.5954 598.5065,-85.8737"/>
<polygon fill="#191970" stroke="#191970" points="601.9099,-84.9696 596.9595,-75.6024 594.9879,-86.0122 601.9099,-84.9696"/>
</g>
<!-- Node26 -->
<g id="node27" class="node">
<title>Node26</title>
<g id="a_node27"><a xlink:href="ipv4_2addr_8h.html" target="_top" xlink:title="IPv6 address type and helper functions definitions. ">
<polygon fill="none" stroke="#000000" points="622.5,-112.5 622.5,-131.5 703.5,-131.5 703.5,-112.5 622.5,-112.5"/>
<text text-anchor="middle" x="663" y="-119.5" font-family="Helvetica,sans-Serif" font-size="10.00" fill="#000000">net/ipv4/addr.h</text>
</a>
</g>
</g>
<!-- Node25&#45;&gt;Node26 -->
<g id="edge41" class="edge">
<title>Node25&#45;&gt;Node26</title>
<path fill="none" stroke="#191970" d="M663,-168.2455C663,-160.9382 663,-150.6944 663,-141.7046"/>
<polygon fill="#191970" stroke="#191970" points="666.5001,-141.6426 663,-131.6427 659.5001,-141.6427 666.5001,-141.6426"/>
</g>
<!-- Node26&#45;&gt;Node6 -->
<g id="edge43" class="edge">
<title>Node26&#45;&gt;Node6</title>
<path fill="none" stroke="#191970" d="M659.9307,-112.4509C654.0326,-94.1013 641.0113,-53.5908 633.2259,-29.3693"/>
<polygon fill="#191970" stroke="#191970" points="636.4538,-27.9741 630.0616,-19.5249 629.7896,-30.1162 636.4538,-27.9741"/>
</g>
<!-- Node26&#45;&gt;Node7 -->
<g id="edge42" class="edge">
<title>Node26&#45;&gt;Node7</title>
<path fill="none" stroke="#191970" d="M675.0189,-112.2455C685.2098,-103.9746 700.0362,-91.9416 712.0107,-82.2232"/>
<polygon fill="#191970" stroke="#191970" points="714.5598,-84.662 720.1188,-75.6427 710.1486,-79.2268 714.5598,-84.662"/>
</g>
<!-- Node26&#45;&gt;Node14 -->
<g id="edge44" class="edge">
<title>Node26&#45;&gt;Node14</title>
<path fill="none" stroke="#191970" d="M651.3295,-112.2455C641.4339,-103.9746 627.0373,-91.9416 615.4099,-82.2232"/>
<polygon fill="#191970" stroke="#191970" points="617.4542,-79.3703 607.5368,-75.6427 612.965,-84.7413 617.4542,-79.3703"/>
</g>
</g>
</svg>
