<?xml version="1.0" encoding="UTF-8" standalone="no"?>
<!DOCTYPE svg PUBLIC "-//W3C//DTD SVG 1.1//EN"
 "http://www.w3.org/Graphics/SVG/1.1/DTD/svg11.dtd">
<!-- Generated by graphviz version 2.43.0 (0)
 -->
<!-- Title: sys/include/net/nanocoap_sock.h Pages: 1 -->
<svg width="1352pt" height="487pt"
 viewBox="0.00 0.00 1351.50 487.00" xmlns="http://www.w3.org/2000/svg" xmlns:xlink="http://www.w3.org/1999/xlink">
<g id="graph0" class="graph" transform="scale(1 1) rotate(0) translate(4 483)">
<title>sys/include/net/nanocoap_sock.h</title>
<!-- Node1 -->
<g id="node1" class="node">
<title>Node1</title>
<g id="a_node1"><a xlink:title="nanocoap high&#45;level API">
<polygon fill="#bfbfbf" stroke="black" points="160,-448.5 160,-478.5 300,-478.5 300,-448.5 160,-448.5"/>
<text text-anchor="start" x="168" y="-466.5" font-family="Helvetica,sans-Serif" font-size="10.00">sys/include/net/nanocoap</text>
<text text-anchor="middle" x="230" y="-455.5" font-family="Helvetica,sans-Serif" font-size="10.00">_sock.h</text>
</a>
</g>
</g>
<!-- Node2 -->
<g id="node2" class="node">
<title>Node2</title>
<g id="a_node2"><a xlink:title=" ">
<polygon fill="none" stroke="#bfbfbf" points="552.5,-0.5 552.5,-19.5 605.5,-19.5 605.5,-0.5 552.5,-0.5"/>
<text text-anchor="middle" x="579" y="-7.5" font-family="Helvetica,sans-Serif" font-size="10.00">stdint.h</text>
</a>
</g>
</g>
<!-- Node1&#45;&gt;Node2 -->
<g id="edge1" class="edge">
<title>Node1&#45;&gt;Node2</title>
<path fill="none" stroke="midnightblue" d="M159.74,-456.5C92.1,-446.41 0,-419.39 0,-347 0,-347 0,-347 0,-121 0,-61.9 59.61,-73.68 116,-56 195.48,-31.08 447.46,-17.1 542.37,-12.61"/>
<polygon fill="midnightblue" stroke="midnightblue" points="542.53,-16.11 552.36,-12.15 542.21,-9.12 542.53,-16.11"/>
</g>
<!-- Node3 -->
<g id="node3" class="node">
<title>Node3</title>
<g id="a_node3"><a xlink:href="unistd_8h_source.html" target="_top" xlink:title=" ">
<polygon fill="none" stroke="black" points="141,-224.5 141,-243.5 197,-243.5 197,-224.5 141,-224.5"/>
<text text-anchor="middle" x="169" y="-231.5" font-family="Helvetica,sans-Serif" font-size="10.00">unistd.h</text>
</a>
</g>
</g>
<!-- Node1&#45;&gt;Node3 -->
<g id="edge2" class="edge">
<title>Node1&#45;&gt;Node3</title>
<path fill="none" stroke="midnightblue" d="M220.81,-448.3C208.36,-428.43 186.3,-390.87 174,-356 165.56,-332.08 165.46,-325.25 163,-300 161.49,-284.47 163.34,-266.85 165.37,-253.87"/>
<polygon fill="midnightblue" stroke="midnightblue" points="168.85,-254.29 167.12,-243.83 161.96,-253.08 168.85,-254.29"/>
</g>
<!-- Node6 -->
<g id="node6" class="node">
<title>Node6</title>
<g id="a_node6"><a xlink:href="nanocoap_8h.html" target="_top" xlink:title="nanocoap API">
<polygon fill="none" stroke="black" points="258,-392.5 258,-411.5 350,-411.5 350,-392.5 258,-392.5"/>
<text text-anchor="middle" x="304" y="-399.5" font-family="Helvetica,sans-Serif" font-size="10.00">net/nanocoap.h</text>
</a>
</g>
</g>
<!-- Node1&#45;&gt;Node6 -->
<g id="edge8" class="edge">
<title>Node1&#45;&gt;Node6</title>
<path fill="none" stroke="midnightblue" d="M247.54,-448.4C258.84,-439.31 273.54,-427.49 285.11,-418.19"/>
<polygon fill="midnightblue" stroke="midnightblue" points="287.63,-420.65 293.23,-411.66 283.25,-415.2 287.63,-420.65"/>
</g>
<!-- Node30 -->
<g id="node30" class="node">
<title>Node30</title>
<g id="a_node30"><a xlink:href="sock_2udp_8h.html" target="_top" xlink:title="UDP sock definitions.">
<polygon fill="none" stroke="black" points="1140,-168.5 1140,-187.5 1228,-187.5 1228,-168.5 1140,-168.5"/>
<text text-anchor="middle" x="1184" y="-175.5" font-family="Helvetica,sans-Serif" font-size="10.00">net/sock/udp.h</text>
</a>
</g>
</g>
<!-- Node1&#45;&gt;Node30 -->
<g id="edge56" class="edge">
<title>Node1&#45;&gt;Node30</title>
<path fill="none" stroke="midnightblue" d="M300.04,-461.21C517.58,-456.3 1167,-434.33 1167,-347 1167,-347 1167,-347 1167,-289 1167,-256.58 1174.3,-219.42 1179.33,-197.64"/>
<polygon fill="midnightblue" stroke="midnightblue" points="1182.77,-198.31 1181.71,-187.77 1175.97,-196.67 1182.77,-198.31"/>
</g>
<!-- Node3&#45;&gt;Node2 -->
<g id="edge4" class="edge">
<title>Node3&#45;&gt;Node2</title>
<path fill="none" stroke="midnightblue" d="M167.29,-224.35C165.16,-211.23 162.94,-185.95 173,-168 218.32,-87.12 262.25,-88.72 349,-56 414.52,-31.29 495.89,-19.47 542.19,-14.37"/>
<polygon fill="midnightblue" stroke="midnightblue" points="542.77,-17.83 552.35,-13.3 542.03,-10.87 542.77,-17.83"/>
</g>
<!-- Node4 -->
<g id="node4" class="node">
<title>Node4</title>
<g id="a_node4"><a xlink:title=" ">
<polygon fill="none" stroke="#bfbfbf" points="292,-112.5 292,-131.5 348,-131.5 348,-112.5 292,-112.5"/>
<text text-anchor="middle" x="320" y="-119.5" font-family="Helvetica,sans-Serif" font-size="10.00">stddef.h</text>
</a>
</g>
</g>
<!-- Node3&#45;&gt;Node4 -->
<g id="edge3" class="edge">
<title>Node3&#45;&gt;Node4</title>
<path fill="none" stroke="midnightblue" d="M193.68,-224.37C213.58,-216.69 241.66,-204.18 263,-188 281.05,-174.31 297.63,-154.17 308.2,-139.94"/>
<polygon fill="midnightblue" stroke="midnightblue" points="311.22,-141.73 314.23,-131.57 305.55,-137.64 311.22,-141.73"/>
</g>
<!-- Node5 -->
<g id="node5" class="node">
<title>Node5</title>
<g id="a_node5"><a xlink:href="cpu_2atmega__common_2avr__libc__extra_2include_2sys_2types_8h_source.html" target="_top" xlink:title=" ">
<polygon fill="none" stroke="black" points="182,-168.5 182,-187.5 254,-187.5 254,-168.5 182,-168.5"/>
<text text-anchor="middle" x="218" y="-175.5" font-family="Helvetica,sans-Serif" font-size="10.00">sys/types.h</text>
</a>
</g>
</g>
<!-- Node3&#45;&gt;Node5 -->
<g id="edge5" class="edge">
<title>Node3&#45;&gt;Node5</title>
<path fill="none" stroke="midnightblue" d="M177.09,-224.08C184.16,-216.3 194.59,-204.8 203.15,-195.37"/>
<polygon fill="midnightblue" stroke="midnightblue" points="205.93,-197.51 210.06,-187.75 200.75,-192.8 205.93,-197.51"/>
</g>
<!-- Node5&#45;&gt;Node2 -->
<g id="edge6" class="edge">
<title>Node5&#45;&gt;Node2</title>
<path fill="none" stroke="midnightblue" d="M224.62,-168.15C235.4,-154.31 258.08,-127.53 283,-112 368,-59.05 484.15,-29.97 542.46,-17.85"/>
<polygon fill="midnightblue" stroke="midnightblue" points="543.21,-21.27 552.31,-15.85 541.82,-14.41 543.21,-21.27"/>
</g>
<!-- Node5&#45;&gt;Node4 -->
<g id="edge7" class="edge">
<title>Node5&#45;&gt;Node4</title>
<path fill="none" stroke="midnightblue" d="M234.39,-168.32C250.67,-159.7 275.87,-146.36 294.72,-136.39"/>
<polygon fill="midnightblue" stroke="midnightblue" points="296.45,-139.43 303.65,-131.65 293.18,-133.24 296.45,-139.43"/>
</g>
<!-- Node6&#45;&gt;Node2 -->
<g id="edge15" class="edge">
<title>Node6&#45;&gt;Node2</title>
<path fill="none" stroke="midnightblue" d="M350.05,-399.62C521.36,-393.88 1112,-368.47 1112,-291 1112,-291 1112,-291 1112,-121 1112,-19.54 736.87,-10.9 616.03,-10.75"/>
<polygon fill="midnightblue" stroke="midnightblue" points="615.79,-7.25 605.8,-10.75 615.8,-14.25 615.79,-7.25"/>
</g>
<!-- Node6&#45;&gt;Node3 -->
<g id="edge19" class="edge">
<title>Node6&#45;&gt;Node3</title>
<path fill="none" stroke="midnightblue" d="M257.73,-394.07C233.68,-388.04 205.87,-376.82 189,-356 165.18,-326.6 164.8,-279.71 166.78,-253.78"/>
<polygon fill="midnightblue" stroke="midnightblue" points="170.27,-254.06 167.76,-243.77 163.31,-253.39 170.27,-254.06"/>
</g>
<!-- Node6&#45;&gt;Node4 -->
<g id="edge17" class="edge">
<title>Node6&#45;&gt;Node4</title>
<path fill="none" stroke="midnightblue" d="M302.26,-392.42C300.53,-383.4 297.99,-368.77 297,-356 296.31,-347.14 296.52,-344.88 297,-336 300.86,-264.28 311.98,-179.57 317.22,-142.27"/>
<polygon fill="midnightblue" stroke="midnightblue" points="320.75,-142.29 318.69,-131.9 313.82,-141.31 320.75,-142.29"/>
</g>
<!-- Node7 -->
<g id="node7" class="node">
<title>Node7</title>
<g id="a_node7"><a xlink:href="assert_8h.html" target="_top" xlink:title="POSIX.1&#45;2008 compliant version of the assert macro.">
<polygon fill="none" stroke="black" points="47,-280.5 47,-299.5 103,-299.5 103,-280.5 47,-280.5"/>
<text text-anchor="middle" x="75" y="-287.5" font-family="Helvetica,sans-Serif" font-size="10.00">assert.h</text>
</a>
</g>
</g>
<!-- Node6&#45;&gt;Node7 -->
<g id="edge9" class="edge">
<title>Node6&#45;&gt;Node7</title>
<path fill="none" stroke="midnightblue" d="M259.87,-392.42C229.26,-385.36 188.18,-373.6 155,-356 130.46,-342.98 106.26,-321.85 91.02,-307.23"/>
<polygon fill="midnightblue" stroke="midnightblue" points="93.11,-304.38 83.52,-299.87 88.21,-309.37 93.11,-304.38"/>
</g>
<!-- Node10 -->
<g id="node10" class="node">
<title>Node10</title>
<g id="a_node10"><a xlink:href="errno_8h.html" target="_top" xlink:title=" ">
<polygon fill="none" stroke="black" points="197.5,-336.5 197.5,-355.5 248.5,-355.5 248.5,-336.5 197.5,-336.5"/>
<text text-anchor="middle" x="223" y="-343.5" font-family="Helvetica,sans-Serif" font-size="10.00">errno.h</text>
</a>
</g>
</g>
<!-- Node6&#45;&gt;Node10 -->
<g id="edge14" class="edge">
<title>Node6&#45;&gt;Node10</title>
<path fill="none" stroke="midnightblue" d="M290.99,-392.32C278.47,-383.98 259.32,-371.21 244.53,-361.35"/>
<polygon fill="midnightblue" stroke="midnightblue" points="246.24,-358.29 235.98,-355.65 242.36,-364.11 246.24,-358.29"/>
</g>
<!-- Node11 -->
<g id="node11" class="node">
<title>Node11</title>
<g id="a_node11"><a xlink:title=" ">
<polygon fill="none" stroke="#bfbfbf" points="437,-112.5 437,-131.5 499,-131.5 499,-112.5 437,-112.5"/>
<text text-anchor="middle" x="468" y="-119.5" font-family="Helvetica,sans-Serif" font-size="10.00">stdbool.h</text>
</a>
</g>
</g>
<!-- Node6&#45;&gt;Node11 -->
<g id="edge16" class="edge">
<title>Node6&#45;&gt;Node11</title>
<path fill="none" stroke="midnightblue" d="M322.66,-392.45C336.64,-384.97 354.87,-372.68 364,-356 404.23,-282.5 331.33,-237.59 378,-168 389.38,-151.03 409.15,-140.17 427.27,-133.38"/>
<polygon fill="midnightblue" stroke="midnightblue" points="428.5,-136.66 436.82,-130.11 426.23,-130.04 428.5,-136.66"/>
</g>
<!-- Node12 -->
<g id="node12" class="node">
<title>Node12</title>
<g id="a_node12"><a xlink:title=" ">
<polygon fill="none" stroke="#bfbfbf" points="386.5,-168.5 386.5,-187.5 439.5,-187.5 439.5,-168.5 386.5,-168.5"/>
<text text-anchor="middle" x="413" y="-175.5" font-family="Helvetica,sans-Serif" font-size="10.00">string.h</text>
</a>
</g>
</g>
<!-- Node6&#45;&gt;Node12 -->
<g id="edge18" class="edge">
<title>Node6&#45;&gt;Node12</title>
<path fill="none" stroke="midnightblue" d="M341.64,-392.35C361.41,-385.78 384.14,-374.59 397,-356 430.59,-307.44 422.9,-232.57 416.88,-197.86"/>
<polygon fill="midnightblue" stroke="midnightblue" points="420.26,-196.9 414.96,-187.73 413.38,-198.21 420.26,-196.9"/>
</g>
<!-- Node13 -->
<g id="node13" class="node">
<title>Node13</title>
<g id="a_node13"><a xlink:href="net_2coap_8h.html" target="_top" xlink:title="Generic CoAP values as defined by RFC7252.">
<polygon fill="none" stroke="black" points="305.5,-336.5 305.5,-355.5 354.5,-355.5 354.5,-336.5 305.5,-336.5"/>
<text text-anchor="middle" x="330" y="-343.5" font-family="Helvetica,sans-Serif" font-size="10.00">coap.h</text>
</a>
</g>
</g>
<!-- Node6&#45;&gt;Node13 -->
<g id="edge20" class="edge">
<title>Node6&#45;&gt;Node13</title>
<path fill="none" stroke="midnightblue" d="M308.29,-392.08C311.85,-384.69 317.02,-373.95 321.42,-364.81"/>
<polygon fill="midnightblue" stroke="midnightblue" points="324.6,-366.28 325.79,-355.75 318.29,-363.24 324.6,-366.28"/>
</g>
<!-- Node14 -->
<g id="node14" class="node">
<title>Node14</title>
<g id="a_node14"><a xlink:href="inet_8h.html" target="_top" xlink:title="Definitions for internet operations.">
<polygon fill="none" stroke="black" points="635.5,-336.5 635.5,-355.5 704.5,-355.5 704.5,-336.5 635.5,-336.5"/>
<text text-anchor="middle" x="670" y="-343.5" font-family="Helvetica,sans-Serif" font-size="10.00">arpa/inet.h</text>
</a>
</g>
</g>
<!-- Node6&#45;&gt;Node14 -->
<g id="edge21" class="edge">
<title>Node6&#45;&gt;Node14</title>
<path fill="none" stroke="midnightblue" d="M350.35,-394.16C421.16,-383.71 555.38,-363.91 625.23,-353.61"/>
<polygon fill="midnightblue" stroke="midnightblue" points="626.07,-357.02 635.46,-352.1 625.05,-350.09 626.07,-357.02"/>
</g>
<!-- Node8 -->
<g id="node8" class="node">
<title>Node8</title>
<g id="a_node8"><a xlink:href="panic_8h.html" target="_top" xlink:title="Crash handling header.">
<polygon fill="none" stroke="black" points="50,-224.5 50,-243.5 102,-243.5 102,-224.5 50,-224.5"/>
<text text-anchor="middle" x="76" y="-231.5" font-family="Helvetica,sans-Serif" font-size="10.00">panic.h</text>
</a>
</g>
</g>
<!-- Node7&#45;&gt;Node8 -->
<g id="edge10" class="edge">
<title>Node7&#45;&gt;Node8</title>
<path fill="none" stroke="midnightblue" d="M75.17,-280.08C75.3,-273.01 75.48,-262.86 75.65,-253.99"/>
<polygon fill="midnightblue" stroke="midnightblue" points="79.15,-253.81 75.84,-243.75 72.15,-253.68 79.15,-253.81"/>
</g>
<!-- Node9 -->
<g id="node9" class="node">
<title>Node9</title>
<g id="a_node9"><a xlink:href="kernel__defines_8h.html" target="_top" xlink:title="Common macros and compiler attributes/pragmas configuration.">
<polygon fill="none" stroke="black" points="28.5,-168.5 28.5,-187.5 125.5,-187.5 125.5,-168.5 28.5,-168.5"/>
<text text-anchor="middle" x="77" y="-175.5" font-family="Helvetica,sans-Serif" font-size="10.00">kernel_defines.h</text>
</a>
</g>
</g>
<!-- Node8&#45;&gt;Node9 -->
<g id="edge11" class="edge">
<title>Node8&#45;&gt;Node9</title>
<path fill="none" stroke="midnightblue" d="M76.17,-224.08C76.3,-217.01 76.48,-206.86 76.65,-197.99"/>
<polygon fill="midnightblue" stroke="midnightblue" points="80.15,-197.81 76.84,-187.75 73.15,-197.68 80.15,-197.81"/>
</g>
<!-- Node9&#45;&gt;Node2 -->
<g id="edge13" class="edge">
<title>Node9&#45;&gt;Node2</title>
<path fill="none" stroke="midnightblue" d="M78.58,-168.42C83.28,-145.65 99.44,-83.54 140,-56 205.15,-11.76 448.76,-9.56 542.2,-10.4"/>
<polygon fill="midnightblue" stroke="midnightblue" points="542.28,-13.9 552.31,-10.51 542.35,-6.9 542.28,-13.9"/>
</g>
<!-- Node9&#45;&gt;Node4 -->
<g id="edge12" class="edge">
<title>Node9&#45;&gt;Node4</title>
<path fill="none" stroke="midnightblue" d="M115.5,-168.44C161.07,-158.32 236.47,-141.56 281.87,-131.47"/>
<polygon fill="midnightblue" stroke="midnightblue" points="282.9,-134.83 291.9,-129.24 281.38,-128 282.9,-134.83"/>
</g>
<!-- Node15 -->
<g id="node15" class="node">
<title>Node15</title>
<g id="a_node15"><a xlink:href="af_8h.html" target="_top" xlink:title="Global UNIX address family definitions.">
<polygon fill="none" stroke="black" points="770.5,-168.5 770.5,-187.5 823.5,-187.5 823.5,-168.5 770.5,-168.5"/>
<text text-anchor="middle" x="797" y="-175.5" font-family="Helvetica,sans-Serif" font-size="10.00">net/af.h</text>
</a>
</g>
</g>
<!-- Node14&#45;&gt;Node15 -->
<g id="edge22" class="edge">
<title>Node14&#45;&gt;Node15</title>
<path fill="none" stroke="midnightblue" d="M676.83,-336.08C697.17,-309.49 757.57,-230.54 784.18,-195.76"/>
<polygon fill="midnightblue" stroke="midnightblue" points="787.15,-197.64 790.44,-187.57 781.59,-193.38 787.15,-197.64"/>
</g>
<!-- Node16 -->
<g id="node16" class="node">
<title>Node16</title>
<g id="a_node16"><a xlink:href="bytes_8h.html" target="_top" xlink:title="System&#45;internal byte operations.">
<polygon fill="none" stroke="black" points="642,-168.5 642,-187.5 714,-187.5 714,-168.5 642,-168.5"/>
<text text-anchor="middle" x="678" y="-175.5" font-family="Helvetica,sans-Serif" font-size="10.00">sys/bytes.h</text>
</a>
</g>
</g>
<!-- Node14&#45;&gt;Node16 -->
<g id="edge23" class="edge">
<title>Node14&#45;&gt;Node16</title>
<path fill="none" stroke="midnightblue" d="M672.54,-336.46C675.11,-327.47 678.98,-312.87 681,-300 686.24,-266.58 687.61,-257.72 685,-224 684.32,-215.22 682.91,-205.56 681.53,-197.45"/>
<polygon fill="midnightblue" stroke="midnightblue" points="684.97,-196.8 679.74,-187.58 678.08,-198.04 684.97,-196.8"/>
</g>
<!-- Node19 -->
<g id="node19" class="node">
<title>Node19</title>
<g id="a_node19"><a xlink:href="in_8h.html" target="_top" xlink:title="Main socket header.">
<polygon fill="none" stroke="black" points="600,-280.5 600,-299.5 672,-299.5 672,-280.5 600,-280.5"/>
<text text-anchor="middle" x="636" y="-287.5" font-family="Helvetica,sans-Serif" font-size="10.00">netinet/in.h</text>
</a>
</g>
</g>
<!-- Node14&#45;&gt;Node19 -->
<g id="edge29" class="edge">
<title>Node14&#45;&gt;Node19</title>
<path fill="none" stroke="midnightblue" d="M664.39,-336.08C659.63,-328.53 652.68,-317.49 646.85,-308.23"/>
<polygon fill="midnightblue" stroke="midnightblue" points="649.8,-306.35 641.51,-299.75 643.88,-310.08 649.8,-306.35"/>
</g>
<!-- Node16&#45;&gt;Node4 -->
<g id="edge24" class="edge">
<title>Node16&#45;&gt;Node4</title>
<path fill="none" stroke="midnightblue" d="M641.7,-171.53C573.73,-161.27 427.86,-139.27 358.35,-128.78"/>
<polygon fill="midnightblue" stroke="midnightblue" points="358.68,-125.3 348.27,-127.26 357.64,-132.22 358.68,-125.3"/>
</g>
<!-- Node17 -->
<g id="node17" class="node">
<title>Node17</title>
<g id="a_node17"><a xlink:href="byteorder_8h.html" target="_top" xlink:title="Functions to work with different byte orders.">
<polygon fill="none" stroke="black" points="577.5,-112.5 577.5,-131.5 650.5,-131.5 650.5,-112.5 577.5,-112.5"/>
<text text-anchor="middle" x="614" y="-119.5" font-family="Helvetica,sans-Serif" font-size="10.00">byteorder.h</text>
</a>
</g>
</g>
<!-- Node16&#45;&gt;Node17 -->
<g id="edge25" class="edge">
<title>Node16&#45;&gt;Node17</title>
<path fill="none" stroke="midnightblue" d="M667.72,-168.32C658.16,-160.26 643.72,-148.08 632.22,-138.37"/>
<polygon fill="midnightblue" stroke="midnightblue" points="634.37,-135.61 624.47,-131.83 629.86,-140.96 634.37,-135.61"/>
</g>
<!-- Node17&#45;&gt;Node2 -->
<g id="edge26" class="edge">
<title>Node17&#45;&gt;Node2</title>
<path fill="none" stroke="midnightblue" d="M610.79,-112.42C607.44,-103.41 602.14,-88.78 598,-76 592.97,-60.44 587.79,-42.61 584.12,-29.56"/>
<polygon fill="midnightblue" stroke="midnightblue" points="587.48,-28.57 581.42,-19.88 580.74,-30.45 587.48,-28.57"/>
</g>
<!-- Node18 -->
<g id="node18" class="node">
<title>Node18</title>
<g id="a_node18"><a xlink:href="unaligned_8h.html" target="_top" xlink:title="Unaligned but safe memory access functions.">
<polygon fill="none" stroke="black" points="607,-56.5 607,-75.5 681,-75.5 681,-56.5 607,-56.5"/>
<text text-anchor="middle" x="644" y="-63.5" font-family="Helvetica,sans-Serif" font-size="10.00">unaligned.h</text>
</a>
</g>
</g>
<!-- Node17&#45;&gt;Node18 -->
<g id="edge27" class="edge">
<title>Node17&#45;&gt;Node18</title>
<path fill="none" stroke="midnightblue" d="M618.95,-112.08C623.1,-104.61 629.15,-93.72 634.27,-84.52"/>
<polygon fill="midnightblue" stroke="midnightblue" points="637.34,-86.19 639.14,-75.75 631.22,-82.79 637.34,-86.19"/>
</g>
<!-- Node18&#45;&gt;Node2 -->
<g id="edge28" class="edge">
<title>Node18&#45;&gt;Node2</title>
<path fill="none" stroke="midnightblue" d="M633.56,-56.32C623.85,-48.26 609.18,-36.08 597.5,-26.37"/>
<polygon fill="midnightblue" stroke="midnightblue" points="599.56,-23.53 589.63,-19.83 595.09,-28.92 599.56,-23.53"/>
</g>
<!-- Node19&#45;&gt;Node16 -->
<g id="edge55" class="edge">
<title>Node19&#45;&gt;Node16</title>
<path fill="none" stroke="midnightblue" d="M619.14,-280.35C598.25,-268.43 567,-245.93 581,-224 592.37,-206.2 612.79,-195.33 631.97,-188.75"/>
<polygon fill="midnightblue" stroke="midnightblue" points="633.04,-192.09 641.54,-185.77 630.95,-185.4 633.04,-192.09"/>
</g>
<!-- Node20 -->
<g id="node20" class="node">
<title>Node20</title>
<g id="a_node20"><a xlink:href="inttypes_8h.html" target="_top" xlink:title="Adds include for missing inttype definitions.">
<polygon fill="none" stroke="black" points="716.5,-112.5 716.5,-131.5 781.5,-131.5 781.5,-112.5 716.5,-112.5"/>
<text text-anchor="middle" x="749" y="-119.5" font-family="Helvetica,sans-Serif" font-size="10.00">inttypes.h</text>
</a>
</g>
</g>
<!-- Node19&#45;&gt;Node20 -->
<g id="edge30" class="edge">
<title>Node19&#45;&gt;Node20</title>
<path fill="none" stroke="midnightblue" d="M646.8,-280.34C657.21,-271.72 673.08,-257.81 685,-244 704.65,-221.23 708.89,-214.56 723,-188 731.02,-172.91 738.07,-154.78 742.8,-141.51"/>
<polygon fill="midnightblue" stroke="midnightblue" points="746.24,-142.27 746.2,-131.68 739.63,-139.99 746.24,-142.27"/>
</g>
<!-- Node21 -->
<g id="node21" class="node">
<title>Node21</title>
<g id="a_node21"><a xlink:href="socket_8h.html" target="_top" xlink:title="Main socket header.">
<polygon fill="none" stroke="black" points="847.5,-224.5 847.5,-243.5 924.5,-243.5 924.5,-224.5 847.5,-224.5"/>
<text text-anchor="middle" x="886" y="-231.5" font-family="Helvetica,sans-Serif" font-size="10.00">sys/socket.h</text>
</a>
</g>
</g>
<!-- Node19&#45;&gt;Node21 -->
<g id="edge31" class="edge">
<title>Node19&#45;&gt;Node21</title>
<path fill="none" stroke="midnightblue" d="M672.09,-281.21C715.64,-271.8 789.05,-255.94 837.52,-245.47"/>
<polygon fill="midnightblue" stroke="midnightblue" points="838.43,-248.86 847.46,-243.32 836.95,-242.01 838.43,-248.86"/>
</g>
<!-- Node27 -->
<g id="node27" class="node">
<title>Node27</title>
<g id="a_node27"><a xlink:href="protnum_8h.html" target="_top" xlink:title="Protocol number definitions.">
<polygon fill="none" stroke="black" points="590,-224.5 590,-243.5 676,-243.5 676,-224.5 590,-224.5"/>
<text text-anchor="middle" x="633" y="-231.5" font-family="Helvetica,sans-Serif" font-size="10.00">net/protnum.h</text>
</a>
</g>
</g>
<!-- Node19&#45;&gt;Node27 -->
<g id="edge45" class="edge">
<title>Node19&#45;&gt;Node27</title>
<path fill="none" stroke="midnightblue" d="M635.5,-280.08C635.11,-273.01 634.55,-262.86 634.05,-253.99"/>
<polygon fill="midnightblue" stroke="midnightblue" points="637.54,-253.54 633.49,-243.75 630.55,-253.93 637.54,-253.54"/>
</g>
<!-- Node28 -->
<g id="node28" class="node">
<title>Node28</title>
<g id="a_node28"><a xlink:href="ipv6_2addr_8h.html" target="_top" xlink:title="Definitions for IPv6 addresses.">
<polygon fill="none" stroke="black" points="444,-224.5 444,-243.5 534,-243.5 534,-224.5 444,-224.5"/>
<text text-anchor="middle" x="489" y="-231.5" font-family="Helvetica,sans-Serif" font-size="10.00">net/ipv6/addr.h</text>
</a>
</g>
</g>
<!-- Node19&#45;&gt;Node28 -->
<g id="edge46" class="edge">
<title>Node19&#45;&gt;Node28</title>
<path fill="none" stroke="midnightblue" d="M612.71,-280.44C588.19,-271.44 549.4,-257.19 521.8,-247.05"/>
<polygon fill="midnightblue" stroke="midnightblue" points="522.78,-243.68 512.18,-243.52 520.36,-250.25 522.78,-243.68"/>
</g>
<!-- Node21&#45;&gt;Node15 -->
<g id="edge43" class="edge">
<title>Node21&#45;&gt;Node15</title>
<path fill="none" stroke="midnightblue" d="M871.7,-224.32C857.82,-215.9 836.51,-202.97 820.2,-193.07"/>
<polygon fill="midnightblue" stroke="midnightblue" points="821.63,-189.85 811.26,-187.65 818,-195.83 821.63,-189.85"/>
</g>
<!-- Node21&#45;&gt;Node16 -->
<g id="edge44" class="edge">
<title>Node21&#45;&gt;Node16</title>
<path fill="none" stroke="midnightblue" d="M853.04,-224.44C817.21,-215.14 759.84,-200.25 720.61,-190.06"/>
<polygon fill="midnightblue" stroke="midnightblue" points="721.36,-186.64 710.8,-187.52 719.6,-193.42 721.36,-186.64"/>
</g>
<!-- Node22 -->
<g id="node22" class="node">
<title>Node22</title>
<g id="a_node22"><a xlink:title=" ">
<polygon fill="none" stroke="#bfbfbf" points="1030.5,-112.5 1030.5,-131.5 1083.5,-131.5 1083.5,-112.5 1030.5,-112.5"/>
<text text-anchor="middle" x="1057" y="-119.5" font-family="Helvetica,sans-Serif" font-size="10.00">stdlib.h</text>
</a>
</g>
</g>
<!-- Node21&#45;&gt;Node22 -->
<g id="edge32" class="edge">
<title>Node21&#45;&gt;Node22</title>
<path fill="none" stroke="midnightblue" d="M924.58,-228.08C969.29,-221.51 1038.91,-208.28 1055,-188 1065.19,-175.16 1064.46,-155.98 1061.93,-141.78"/>
<polygon fill="midnightblue" stroke="midnightblue" points="1065.27,-140.67 1059.68,-131.67 1058.43,-142.19 1065.27,-140.67"/>
</g>
<!-- Node23 -->
<g id="node23" class="node">
<title>Node23</title>
<g id="a_node23"><a xlink:title=" ">
<polygon fill="none" stroke="#bfbfbf" points="936,-112.5 936,-131.5 1008,-131.5 1008,-112.5 936,-112.5"/>
<text text-anchor="middle" x="972" y="-119.5" font-family="Helvetica,sans-Serif" font-size="10.00">sys/types.h</text>
</a>
</g>
</g>
<!-- Node21&#45;&gt;Node23 -->
<g id="edge33" class="edge">
<title>Node21&#45;&gt;Node23</title>
<path fill="none" stroke="midnightblue" d="M899.05,-224.21C910.64,-215.91 927.48,-202.59 939,-188 950.37,-173.59 959.45,-154.65 965.19,-140.93"/>
<polygon fill="midnightblue" stroke="midnightblue" points="968.44,-142.21 968.9,-131.62 961.94,-139.61 968.44,-142.21"/>
</g>
<!-- Node24 -->
<g id="node24" class="node">
<title>Node24</title>
<g id="a_node24"><a xlink:href="uio_8h.html" target="_top" xlink:title="libc header for scatter/gather I/O">
<polygon fill="none" stroke="black" points="986,-168.5 986,-187.5 1046,-187.5 1046,-168.5 986,-168.5"/>
<text text-anchor="middle" x="1016" y="-175.5" font-family="Helvetica,sans-Serif" font-size="10.00">sys/uio.h</text>
</a>
</g>
</g>
<!-- Node21&#45;&gt;Node24 -->
<g id="edge34" class="edge">
<title>Node21&#45;&gt;Node24</title>
<path fill="none" stroke="midnightblue" d="M906.6,-224.44C927.99,-215.56 961.68,-201.56 986.02,-191.45"/>
<polygon fill="midnightblue" stroke="midnightblue" points="987.61,-194.58 995.5,-187.52 984.92,-188.12 987.61,-194.58"/>
</g>
<!-- Node25 -->
<g id="node25" class="node">
<title>Node25</title>
<g id="a_node25"><a xlink:href="kernel__types_8h.html" target="_top" xlink:title="Types used by the kernel.">
<polygon fill="none" stroke="black" points="842,-168.5 842,-187.5 930,-187.5 930,-168.5 842,-168.5"/>
<text text-anchor="middle" x="886" y="-175.5" font-family="Helvetica,sans-Serif" font-size="10.00">kernel_types.h</text>
</a>
</g>
</g>
<!-- Node21&#45;&gt;Node25 -->
<g id="edge37" class="edge">
<title>Node21&#45;&gt;Node25</title>
<path fill="none" stroke="midnightblue" d="M886,-224.08C886,-217.01 886,-206.86 886,-197.99"/>
<polygon fill="midnightblue" stroke="midnightblue" points="889.5,-197.75 886,-187.75 882.5,-197.75 889.5,-197.75"/>
</g>
<!-- Node24&#45;&gt;Node22 -->
<g id="edge35" class="edge">
<title>Node24&#45;&gt;Node22</title>
<path fill="none" stroke="midnightblue" d="M1022.77,-168.08C1028.56,-160.46 1037.06,-149.26 1044.14,-139.94"/>
<polygon fill="midnightblue" stroke="midnightblue" points="1047.1,-141.83 1050.36,-131.75 1041.52,-137.6 1047.1,-141.83"/>
</g>
<!-- Node24&#45;&gt;Node23 -->
<g id="edge36" class="edge">
<title>Node24&#45;&gt;Node23</title>
<path fill="none" stroke="midnightblue" d="M1008.73,-168.08C1002.46,-160.38 993.21,-149.03 985.57,-139.65"/>
<polygon fill="midnightblue" stroke="midnightblue" points="988.16,-137.29 979.13,-131.75 982.73,-141.71 988.16,-137.29"/>
</g>
<!-- Node25&#45;&gt;Node2 -->
<g id="edge38" class="edge">
<title>Node25&#45;&gt;Node2</title>
<path fill="none" stroke="midnightblue" d="M874.24,-168.43C856.52,-155.63 821.78,-131 791,-112 747.33,-85.03 736.31,-78.13 690,-56 664.18,-43.66 634.04,-31.58 611.68,-23.05"/>
<polygon fill="midnightblue" stroke="midnightblue" points="612.9,-19.77 602.31,-19.51 610.43,-26.32 612.9,-19.77"/>
</g>
<!-- Node25&#45;&gt;Node4 -->
<g id="edge41" class="edge">
<title>Node25&#45;&gt;Node4</title>
<path fill="none" stroke="midnightblue" d="M841.79,-169.22C838.82,-168.78 835.87,-168.37 833,-168 786.29,-162 468.95,-135.39 358.11,-126.16"/>
<polygon fill="midnightblue" stroke="midnightblue" points="358.3,-122.67 348.05,-125.33 357.72,-129.64 358.3,-122.67"/>
</g>
<!-- Node25&#45;&gt;Node20 -->
<g id="edge39" class="edge">
<title>Node25&#45;&gt;Node20</title>
<path fill="none" stroke="midnightblue" d="M864.29,-168.44C841.65,-159.52 805.93,-145.44 780.25,-135.32"/>
<polygon fill="midnightblue" stroke="midnightblue" points="781.19,-131.93 770.61,-131.52 778.63,-138.44 781.19,-131.93"/>
</g>
<!-- Node25&#45;&gt;Node23 -->
<g id="edge42" class="edge">
<title>Node25&#45;&gt;Node23</title>
<path fill="none" stroke="midnightblue" d="M899.82,-168.32C913.23,-159.9 933.82,-146.97 949.59,-137.07"/>
<polygon fill="midnightblue" stroke="midnightblue" points="951.61,-139.94 958.22,-131.65 947.89,-134.01 951.61,-139.94"/>
</g>
<!-- Node26 -->
<g id="node26" class="node">
<title>Node26</title>
<g id="a_node26"><a xlink:title=" ">
<polygon fill="none" stroke="#bfbfbf" points="859.5,-112.5 859.5,-131.5 912.5,-131.5 912.5,-112.5 859.5,-112.5"/>
<text text-anchor="middle" x="886" y="-119.5" font-family="Helvetica,sans-Serif" font-size="10.00">limits.h</text>
</a>
</g>
</g>
<!-- Node25&#45;&gt;Node26 -->
<g id="edge40" class="edge">
<title>Node25&#45;&gt;Node26</title>
<path fill="none" stroke="midnightblue" d="M886,-168.08C886,-161.01 886,-150.86 886,-141.99"/>
<polygon fill="midnightblue" stroke="midnightblue" points="889.5,-141.75 886,-131.75 882.5,-141.75 889.5,-141.75"/>
</g>
<!-- Node28&#45;&gt;Node11 -->
<g id="edge47" class="edge">
<title>Node28&#45;&gt;Node11</title>
<path fill="none" stroke="midnightblue" d="M487.35,-224.37C483.96,-206.62 476.15,-165.67 471.55,-141.6"/>
<polygon fill="midnightblue" stroke="midnightblue" points="474.95,-140.76 469.64,-131.59 468.08,-142.07 474.95,-140.76"/>
</g>
<!-- Node28&#45;&gt;Node12 -->
<g id="edge48" class="edge">
<title>Node28&#45;&gt;Node12</title>
<path fill="none" stroke="midnightblue" d="M476.79,-224.32C465.22,-216.11 447.62,-203.6 433.84,-193.81"/>
<polygon fill="midnightblue" stroke="midnightblue" points="435.61,-190.77 425.43,-187.83 431.56,-196.48 435.61,-190.77"/>
</g>
<!-- Node28&#45;&gt;Node17 -->
<g id="edge49" class="edge">
<title>Node28&#45;&gt;Node17</title>
<path fill="none" stroke="midnightblue" d="M530.55,-224.46C552.53,-217.93 578.33,-206.75 595,-188 606.34,-175.24 610.93,-156.05 612.78,-141.82"/>
<polygon fill="midnightblue" stroke="midnightblue" points="616.28,-141.98 613.75,-131.7 609.31,-141.32 616.28,-141.98"/>
</g>
<!-- Node29 -->
<g id="node29" class="node">
<title>Node29</title>
<g id="a_node29"><a xlink:href="ipv4_2addr_8h.html" target="_top" xlink:title="IPv6 address type and helper functions definitions.">
<polygon fill="none" stroke="black" points="496,-168.5 496,-187.5 586,-187.5 586,-168.5 496,-168.5"/>
<text text-anchor="middle" x="541" y="-175.5" font-family="Helvetica,sans-Serif" font-size="10.00">net/ipv4/addr.h</text>
</a>
</g>
</g>
<!-- Node28&#45;&gt;Node29 -->
<g id="edge50" class="edge">
<title>Node28&#45;&gt;Node29</title>
<path fill="none" stroke="midnightblue" d="M497.59,-224.08C505.16,-216.22 516.38,-204.57 525.51,-195.08"/>
<polygon fill="midnightblue" stroke="midnightblue" points="528.16,-197.38 532.57,-187.75 523.12,-192.53 528.16,-197.38"/>
</g>
<!-- Node29&#45;&gt;Node2 -->
<g id="edge52" class="edge">
<title>Node29&#45;&gt;Node2</title>
<path fill="none" stroke="midnightblue" d="M543.04,-168.08C549.02,-141.95 566.59,-65.21 574.75,-29.58"/>
<polygon fill="midnightblue" stroke="midnightblue" points="578.22,-30.1 577.04,-19.57 571.4,-28.53 578.22,-30.1"/>
</g>
<!-- Node29&#45;&gt;Node4 -->
<g id="edge53" class="edge">
<title>Node29&#45;&gt;Node4</title>
<path fill="none" stroke="midnightblue" d="M505.98,-168.44C465.62,-158.58 399.51,-142.43 357.94,-132.27"/>
<polygon fill="midnightblue" stroke="midnightblue" points="358.74,-128.86 348.19,-129.89 357.08,-135.66 358.74,-128.86"/>
</g>
<!-- Node29&#45;&gt;Node11 -->
<g id="edge51" class="edge">
<title>Node29&#45;&gt;Node11</title>
<path fill="none" stroke="midnightblue" d="M529.27,-168.32C518.16,-160.11 501.26,-147.6 488.02,-137.81"/>
<polygon fill="midnightblue" stroke="midnightblue" points="490.06,-134.97 479.94,-131.83 485.9,-140.59 490.06,-134.97"/>
</g>
<!-- Node29&#45;&gt;Node17 -->
<g id="edge54" class="edge">
<title>Node29&#45;&gt;Node17</title>
<path fill="none" stroke="midnightblue" d="M552.73,-168.32C563.84,-160.11 580.74,-147.6 593.98,-137.81"/>
<polygon fill="midnightblue" stroke="midnightblue" points="596.1,-140.59 602.06,-131.83 591.94,-134.97 596.1,-140.59"/>
</g>
<!-- Node30&#45;&gt;Node2 -->
<g id="edge57" class="edge">
<title>Node30&#45;&gt;Node2</title>
<path fill="none" stroke="midnightblue" d="M1197.46,-168.42C1214.85,-156.22 1241.49,-133 1229,-112 1202.37,-67.21 1175.93,-70.9 1126,-56 1030,-27.35 722.65,-15.4 615.93,-12.05"/>
<polygon fill="midnightblue" stroke="midnightblue" points="615.76,-8.55 605.66,-11.74 615.54,-15.54 615.76,-8.55"/>
</g>
<!-- Node30&#45;&gt;Node22 -->
<g id="edge58" class="edge">
<title>Node30&#45;&gt;Node22</title>
<path fill="none" stroke="midnightblue" d="M1163.88,-168.44C1142.98,-159.56 1110.07,-145.56 1086.28,-135.45"/>
<polygon fill="midnightblue" stroke="midnightblue" points="1087.6,-132.21 1077.03,-131.52 1084.86,-138.65 1087.6,-132.21"/>
</g>
<!-- Node30&#45;&gt;Node23 -->
<g id="edge59" class="edge">
<title>Node30&#45;&gt;Node23</title>
<path fill="none" stroke="midnightblue" d="M1150.41,-168.44C1113.81,-159.12 1055.16,-144.18 1015.17,-134"/>
<polygon fill="midnightblue" stroke="midnightblue" points="1015.99,-130.59 1005.43,-131.52 1014.26,-137.38 1015.99,-130.59"/>
</g>
<!-- Node31 -->
<g id="node31" class="node">
<title>Node31</title>
<g id="a_node31"><a xlink:href="sock_8h.html" target="_top" xlink:title="Common sock API definitions.">
<polygon fill="none" stroke="black" points="1276.5,-56.5 1276.5,-75.5 1343.5,-75.5 1343.5,-56.5 1276.5,-56.5"/>
<text text-anchor="middle" x="1310" y="-63.5" font-family="Helvetica,sans-Serif" font-size="10.00">net/sock.h</text>
</a>
</g>
</g>
<!-- Node30&#45;&gt;Node31 -->
<g id="edge60" class="edge">
<title>Node30&#45;&gt;Node31</title>
<path fill="none" stroke="midnightblue" d="M1203.72,-168.44C1220.42,-160.56 1244.39,-147.73 1262,-132 1277.47,-118.18 1291.09,-98.64 1299.83,-84.6"/>
<polygon fill="midnightblue" stroke="midnightblue" points="1302.91,-86.26 1305.06,-75.89 1296.91,-82.66 1302.91,-86.26"/>
</g>
<!-- Node32 -->
<g id="node32" class="node">
<title>Node32</title>
<g id="a_node32"><a xlink:title=" ">
<polygon fill="none" stroke="#bfbfbf" points="1140,-112.5 1140,-131.5 1220,-131.5 1220,-112.5 1140,-112.5"/>
<text text-anchor="middle" x="1180" y="-119.5" font-family="Helvetica,sans-Serif" font-size="10.00">sock_types.h</text>
</a>
</g>
</g>
<!-- Node30&#45;&gt;Node32 -->
<g id="edge62" class="edge">
<title>Node30&#45;&gt;Node32</title>
<path fill="none" stroke="midnightblue" d="M1183.34,-168.08C1182.82,-161.01 1182.06,-150.86 1181.41,-141.99"/>
<polygon fill="midnightblue" stroke="midnightblue" points="1184.88,-141.47 1180.65,-131.75 1177.9,-141.98 1184.88,-141.47"/>
</g>
<!-- Node31&#45;&gt;Node2 -->
<g id="edge61" class="edge">
<title>Node31&#45;&gt;Node2</title>
<path fill="none" stroke="midnightblue" d="M1276.25,-58.15C1271.48,-57.33 1266.63,-56.58 1262,-56 1016.61,-25.02 718.77,-14.67 615.97,-11.88"/>
<polygon fill="midnightblue" stroke="midnightblue" points="615.89,-8.38 605.8,-11.61 615.7,-15.38 615.89,-8.38"/>
</g>
</g>
</svg>
