<?xml version="1.0" encoding="UTF-8" standalone="no"?>
<!DOCTYPE svg PUBLIC "-//W3C//DTD SVG 1.1//EN"
 "http://www.w3.org/Graphics/SVG/1.1/DTD/svg11.dtd">
<!-- Generated by graphviz version 2.43.0 (0)
 -->
<!-- Title: sys/include/net/nanocoap.h Pages: 1 -->
<svg width="1092pt" height="420pt"
 viewBox="0.00 0.00 1091.50 420.00" xmlns="http://www.w3.org/2000/svg" xmlns:xlink="http://www.w3.org/1999/xlink">
<g id="graph0" class="graph" transform="scale(1 1) rotate(0) translate(4 416)">
<title>sys/include/net/nanocoap.h</title>
<!-- Node1 -->
<g id="node1" class="node">
<title>Node1</title>
<g id="a_node1"><a xlink:title="nanocoap API">
<polygon fill="#bfbfbf" stroke="black" points="245.5,-392.5 245.5,-411.5 394.5,-411.5 394.5,-392.5 245.5,-392.5"/>
<text text-anchor="middle" x="320" y="-399.5" font-family="Helvetica,sans-Serif" font-size="10.00">sys/include/net/nanocoap.h</text>
</a>
</g>
</g>
<!-- Node2 -->
<g id="node2" class="node">
<title>Node2</title>
<g id="a_node2"><a xlink:href="assert_8h.html" target="_top" xlink:title="POSIX.1&#45;2008 compliant version of the assert macro.">
<polygon fill="none" stroke="black" points="89,-280.5 89,-299.5 145,-299.5 145,-280.5 89,-280.5"/>
<text text-anchor="middle" x="117" y="-287.5" font-family="Helvetica,sans-Serif" font-size="10.00">assert.h</text>
</a>
</g>
</g>
<!-- Node1&#45;&gt;Node2 -->
<g id="edge1" class="edge">
<title>Node1&#45;&gt;Node2</title>
<path fill="none" stroke="midnightblue" d="M288.45,-392.44C263.07,-384.84 226.98,-372.4 198,-356 173.64,-342.22 149.03,-321.25 133.44,-306.87"/>
<polygon fill="midnightblue" stroke="midnightblue" points="135.45,-303.96 125.77,-299.66 130.65,-309.06 135.45,-303.96"/>
</g>
<!-- Node5 -->
<g id="node5" class="node">
<title>Node5</title>
<g id="a_node5"><a xlink:title=" ">
<polygon fill="none" stroke="#bfbfbf" points="292,-112.5 292,-131.5 348,-131.5 348,-112.5 292,-112.5"/>
<text text-anchor="middle" x="320" y="-119.5" font-family="Helvetica,sans-Serif" font-size="10.00">stddef.h</text>
</a>
</g>
</g>
<!-- Node1&#45;&gt;Node5 -->
<g id="edge9" class="edge">
<title>Node1&#45;&gt;Node5</title>
<path fill="none" stroke="midnightblue" d="M320,-392.44C320,-373.94 320,-328.81 320,-291 320,-291 320,-291 320,-233 320,-200.95 320,-163.64 320,-141.75"/>
<polygon fill="midnightblue" stroke="midnightblue" points="323.5,-141.56 320,-131.56 316.5,-141.56 323.5,-141.56"/>
</g>
<!-- Node6 -->
<g id="node6" class="node">
<title>Node6</title>
<g id="a_node6"><a xlink:title=" ">
<polygon fill="none" stroke="#bfbfbf" points="334.5,-0.5 334.5,-19.5 387.5,-19.5 387.5,-0.5 334.5,-0.5"/>
<text text-anchor="middle" x="361" y="-7.5" font-family="Helvetica,sans-Serif" font-size="10.00">stdint.h</text>
</a>
</g>
</g>
<!-- Node1&#45;&gt;Node6 -->
<g id="edge7" class="edge">
<title>Node1&#45;&gt;Node6</title>
<path fill="none" stroke="midnightblue" d="M257.54,-392.5C164.42,-378.05 0,-344.9 0,-291 0,-291 0,-291 0,-121 0,-53.65 232.8,-23.54 324.5,-14.28"/>
<polygon fill="midnightblue" stroke="midnightblue" points="324.84,-17.77 334.45,-13.31 324.16,-10.8 324.84,-17.77"/>
</g>
<!-- Node7 -->
<g id="node7" class="node">
<title>Node7</title>
<g id="a_node7"><a xlink:href="errno_8h.html" target="_top" xlink:title=" ">
<polygon fill="none" stroke="black" points="240.5,-336.5 240.5,-355.5 291.5,-355.5 291.5,-336.5 240.5,-336.5"/>
<text text-anchor="middle" x="266" y="-343.5" font-family="Helvetica,sans-Serif" font-size="10.00">errno.h</text>
</a>
</g>
</g>
<!-- Node1&#45;&gt;Node7 -->
<g id="edge6" class="edge">
<title>Node1&#45;&gt;Node7</title>
<path fill="none" stroke="midnightblue" d="M311.08,-392.08C303.22,-384.22 291.57,-372.57 282.08,-363.08"/>
<polygon fill="midnightblue" stroke="midnightblue" points="284.3,-360.35 274.75,-355.75 279.35,-365.3 284.3,-360.35"/>
</g>
<!-- Node8 -->
<g id="node8" class="node">
<title>Node8</title>
<g id="a_node8"><a xlink:title=" ">
<polygon fill="none" stroke="#bfbfbf" points="398,-112.5 398,-131.5 460,-131.5 460,-112.5 398,-112.5"/>
<text text-anchor="middle" x="429" y="-119.5" font-family="Helvetica,sans-Serif" font-size="10.00">stdbool.h</text>
</a>
</g>
</g>
<!-- Node1&#45;&gt;Node8 -->
<g id="edge8" class="edge">
<title>Node1&#45;&gt;Node8</title>
<path fill="none" stroke="midnightblue" d="M325.28,-392.23C335.73,-374.04 358,-330.6 358,-291 358,-291 358,-291 358,-233 358,-202.77 361.61,-193.4 378,-168 385.6,-156.22 397.13,-145.68 407.3,-137.78"/>
<polygon fill="midnightblue" stroke="midnightblue" points="409.45,-140.54 415.41,-131.78 405.29,-134.91 409.45,-140.54"/>
</g>
<!-- Node9 -->
<g id="node9" class="node">
<title>Node9</title>
<g id="a_node9"><a xlink:title=" ">
<polygon fill="none" stroke="#bfbfbf" points="386.5,-168.5 386.5,-187.5 439.5,-187.5 439.5,-168.5 386.5,-168.5"/>
<text text-anchor="middle" x="413" y="-175.5" font-family="Helvetica,sans-Serif" font-size="10.00">string.h</text>
</a>
</g>
</g>
<!-- Node1&#45;&gt;Node9 -->
<g id="edge10" class="edge">
<title>Node1&#45;&gt;Node9</title>
<path fill="none" stroke="midnightblue" d="M334.13,-392.45C346.06,-384.49 362.63,-371.54 372,-356 402.88,-304.77 410.51,-232.31 412.39,-198.19"/>
<polygon fill="midnightblue" stroke="midnightblue" points="415.9,-197.96 412.84,-187.81 408.91,-197.65 415.9,-197.96"/>
</g>
<!-- Node10 -->
<g id="node10" class="node">
<title>Node10</title>
<g id="a_node10"><a xlink:href="unistd_8h_source.html" target="_top" xlink:title=" ">
<polygon fill="none" stroke="black" points="187,-224.5 187,-243.5 243,-243.5 243,-224.5 187,-224.5"/>
<text text-anchor="middle" x="215" y="-231.5" font-family="Helvetica,sans-Serif" font-size="10.00">unistd.h</text>
</a>
</g>
</g>
<!-- Node1&#45;&gt;Node10 -->
<g id="edge11" class="edge">
<title>Node1&#45;&gt;Node10</title>
<path fill="none" stroke="midnightblue" d="M286.87,-392.39C267.78,-385.66 245.04,-374.31 232,-356 210.23,-325.43 210.43,-279.33 212.63,-253.76"/>
<polygon fill="midnightblue" stroke="midnightblue" points="216.14,-253.9 213.71,-243.59 209.18,-253.16 216.14,-253.9"/>
</g>
<!-- Node12 -->
<g id="node12" class="node">
<title>Node12</title>
<g id="a_node12"><a xlink:href="net_2coap_8h.html" target="_top" xlink:title="Generic CoAP values as defined by RFC7252.">
<polygon fill="none" stroke="black" points="424.5,-336.5 424.5,-355.5 473.5,-355.5 473.5,-336.5 424.5,-336.5"/>
<text text-anchor="middle" x="449" y="-343.5" font-family="Helvetica,sans-Serif" font-size="10.00">coap.h</text>
</a>
</g>
</g>
<!-- Node1&#45;&gt;Node12 -->
<g id="edge17" class="edge">
<title>Node1&#45;&gt;Node12</title>
<path fill="none" stroke="midnightblue" d="M340.44,-392.44C361.67,-383.56 395.1,-369.56 419.25,-359.45"/>
<polygon fill="midnightblue" stroke="midnightblue" points="420.78,-362.61 428.66,-355.52 418.08,-356.15 420.78,-362.61"/>
</g>
<!-- Node13 -->
<g id="node13" class="node">
<title>Node13</title>
<g id="a_node13"><a xlink:href="inet_8h.html" target="_top" xlink:title="Definitions for internet operations.">
<polygon fill="none" stroke="black" points="598.5,-336.5 598.5,-355.5 667.5,-355.5 667.5,-336.5 598.5,-336.5"/>
<text text-anchor="middle" x="633" y="-343.5" font-family="Helvetica,sans-Serif" font-size="10.00">arpa/inet.h</text>
</a>
</g>
</g>
<!-- Node1&#45;&gt;Node13 -->
<g id="edge18" class="edge">
<title>Node1&#45;&gt;Node13</title>
<path fill="none" stroke="midnightblue" d="M369.6,-392.44C429.76,-382.06 530.31,-364.72 588.22,-354.73"/>
<polygon fill="midnightblue" stroke="midnightblue" points="588.91,-358.16 598.17,-353.01 587.72,-351.26 588.91,-358.16"/>
</g>
<!-- Node3 -->
<g id="node3" class="node">
<title>Node3</title>
<g id="a_node3"><a xlink:href="panic_8h.html" target="_top" xlink:title="Crash handling header.">
<polygon fill="none" stroke="black" points="71,-224.5 71,-243.5 123,-243.5 123,-224.5 71,-224.5"/>
<text text-anchor="middle" x="97" y="-231.5" font-family="Helvetica,sans-Serif" font-size="10.00">panic.h</text>
</a>
</g>
</g>
<!-- Node2&#45;&gt;Node3 -->
<g id="edge2" class="edge">
<title>Node2&#45;&gt;Node3</title>
<path fill="none" stroke="midnightblue" d="M113.7,-280.08C111.02,-272.85 107.15,-262.41 103.81,-253.4"/>
<polygon fill="midnightblue" stroke="midnightblue" points="107,-251.91 100.24,-243.75 100.43,-254.34 107,-251.91"/>
</g>
<!-- Node4 -->
<g id="node4" class="node">
<title>Node4</title>
<g id="a_node4"><a xlink:href="kernel__defines_8h.html" target="_top" xlink:title="Common macros and compiler attributes/pragmas configuration.">
<polygon fill="none" stroke="black" points="28.5,-168.5 28.5,-187.5 125.5,-187.5 125.5,-168.5 28.5,-168.5"/>
<text text-anchor="middle" x="77" y="-175.5" font-family="Helvetica,sans-Serif" font-size="10.00">kernel_defines.h</text>
</a>
</g>
</g>
<!-- Node3&#45;&gt;Node4 -->
<g id="edge3" class="edge">
<title>Node3&#45;&gt;Node4</title>
<path fill="none" stroke="midnightblue" d="M93.7,-224.08C91.02,-216.85 87.15,-206.41 83.81,-197.4"/>
<polygon fill="midnightblue" stroke="midnightblue" points="87,-195.91 80.24,-187.75 80.43,-198.34 87,-195.91"/>
</g>
<!-- Node4&#45;&gt;Node5 -->
<g id="edge4" class="edge">
<title>Node4&#45;&gt;Node5</title>
<path fill="none" stroke="midnightblue" d="M115.5,-168.44C161.07,-158.32 236.47,-141.56 281.87,-131.47"/>
<polygon fill="midnightblue" stroke="midnightblue" points="282.9,-134.83 291.9,-129.24 281.38,-128 282.9,-134.83"/>
</g>
<!-- Node4&#45;&gt;Node6 -->
<g id="edge5" class="edge">
<title>Node4&#45;&gt;Node6</title>
<path fill="none" stroke="midnightblue" d="M78.81,-168.32C83.99,-145.82 101.04,-85.36 140,-56 168.57,-34.47 268.95,-20.75 324.07,-14.66"/>
<polygon fill="midnightblue" stroke="midnightblue" points="324.56,-18.13 334.13,-13.58 323.81,-11.17 324.56,-18.13"/>
</g>
<!-- Node10&#45;&gt;Node5 -->
<g id="edge12" class="edge">
<title>Node10&#45;&gt;Node5</title>
<path fill="none" stroke="midnightblue" d="M224.83,-224.3C234.72,-215.43 250.29,-201.14 263,-188 278.41,-172.07 295,-152.89 306.29,-139.51"/>
<polygon fill="midnightblue" stroke="midnightblue" points="309.14,-141.56 312.88,-131.65 303.77,-137.07 309.14,-141.56"/>
</g>
<!-- Node10&#45;&gt;Node6 -->
<g id="edge13" class="edge">
<title>Node10&#45;&gt;Node6</title>
<path fill="none" stroke="midnightblue" d="M202.64,-224.43C186.96,-212.41 163.09,-189.62 173,-168 205.77,-96.51 289.3,-46.38 333.15,-24.05"/>
<polygon fill="midnightblue" stroke="midnightblue" points="334.73,-27.18 342.13,-19.59 331.62,-20.91 334.73,-27.18"/>
</g>
<!-- Node11 -->
<g id="node11" class="node">
<title>Node11</title>
<g id="a_node11"><a xlink:href="cpu_2atmega__common_2avr__libc__extra_2include_2sys_2types_8h_source.html" target="_top" xlink:title=" ">
<polygon fill="none" stroke="black" points="182,-168.5 182,-187.5 254,-187.5 254,-168.5 182,-168.5"/>
<text text-anchor="middle" x="218" y="-175.5" font-family="Helvetica,sans-Serif" font-size="10.00">sys/types.h</text>
</a>
</g>
</g>
<!-- Node10&#45;&gt;Node11 -->
<g id="edge14" class="edge">
<title>Node10&#45;&gt;Node11</title>
<path fill="none" stroke="midnightblue" d="M215.5,-224.08C215.89,-217.01 216.45,-206.86 216.95,-197.99"/>
<polygon fill="midnightblue" stroke="midnightblue" points="220.45,-197.93 217.51,-187.75 213.46,-197.54 220.45,-197.93"/>
</g>
<!-- Node11&#45;&gt;Node5 -->
<g id="edge16" class="edge">
<title>Node11&#45;&gt;Node5</title>
<path fill="none" stroke="midnightblue" d="M234.39,-168.32C250.67,-159.7 275.87,-146.36 294.72,-136.39"/>
<polygon fill="midnightblue" stroke="midnightblue" points="296.45,-139.43 303.65,-131.65 293.18,-133.24 296.45,-139.43"/>
</g>
<!-- Node11&#45;&gt;Node6 -->
<g id="edge15" class="edge">
<title>Node11&#45;&gt;Node6</title>
<path fill="none" stroke="midnightblue" d="M225.69,-168.08C248.68,-141.38 317.18,-61.87 346.94,-27.32"/>
<polygon fill="midnightblue" stroke="midnightblue" points="349.74,-29.43 353.62,-19.57 344.44,-24.86 349.74,-29.43"/>
</g>
<!-- Node14 -->
<g id="node14" class="node">
<title>Node14</title>
<g id="a_node14"><a xlink:href="af_8h.html" target="_top" xlink:title="Global UNIX address family definitions.">
<polygon fill="none" stroke="black" points="1030.5,-168.5 1030.5,-187.5 1083.5,-187.5 1083.5,-168.5 1030.5,-168.5"/>
<text text-anchor="middle" x="1057" y="-175.5" font-family="Helvetica,sans-Serif" font-size="10.00">net/af.h</text>
</a>
</g>
</g>
<!-- Node13&#45;&gt;Node14 -->
<g id="edge19" class="edge">
<title>Node13&#45;&gt;Node14</title>
<path fill="none" stroke="midnightblue" d="M663.95,-336.43C719.19,-320.72 837.99,-285.15 934,-244 969.86,-228.63 1009.45,-206.77 1033.77,-192.74"/>
<polygon fill="midnightblue" stroke="midnightblue" points="1035.73,-195.65 1042.61,-187.59 1032.21,-189.6 1035.73,-195.65"/>
</g>
<!-- Node15 -->
<g id="node15" class="node">
<title>Node15</title>
<g id="a_node15"><a xlink:href="bytes_8h.html" target="_top" xlink:title="System&#45;internal byte operations.">
<polygon fill="none" stroke="black" points="642,-168.5 642,-187.5 714,-187.5 714,-168.5 642,-168.5"/>
<text text-anchor="middle" x="678" y="-175.5" font-family="Helvetica,sans-Serif" font-size="10.00">sys/bytes.h</text>
</a>
</g>
</g>
<!-- Node13&#45;&gt;Node15 -->
<g id="edge20" class="edge">
<title>Node13&#45;&gt;Node15</title>
<path fill="none" stroke="midnightblue" d="M623.72,-336.32C602.89,-315.76 556.15,-262.93 581,-224 592.37,-206.2 612.79,-195.33 631.97,-188.75"/>
<polygon fill="midnightblue" stroke="midnightblue" points="633.04,-192.09 641.54,-185.77 630.95,-185.4 633.04,-192.09"/>
</g>
<!-- Node18 -->
<g id="node18" class="node">
<title>Node18</title>
<g id="a_node18"><a xlink:href="in_8h.html" target="_top" xlink:title="Main socket header.">
<polygon fill="none" stroke="black" points="633,-280.5 633,-299.5 705,-299.5 705,-280.5 633,-280.5"/>
<text text-anchor="middle" x="669" y="-287.5" font-family="Helvetica,sans-Serif" font-size="10.00">netinet/in.h</text>
</a>
</g>
</g>
<!-- Node13&#45;&gt;Node18 -->
<g id="edge26" class="edge">
<title>Node13&#45;&gt;Node18</title>
<path fill="none" stroke="midnightblue" d="M638.94,-336.08C643.98,-328.53 651.34,-317.49 657.51,-308.23"/>
<polygon fill="midnightblue" stroke="midnightblue" points="660.53,-310.01 663.17,-299.75 654.71,-306.13 660.53,-310.01"/>
</g>
<!-- Node15&#45;&gt;Node5 -->
<g id="edge21" class="edge">
<title>Node15&#45;&gt;Node5</title>
<path fill="none" stroke="midnightblue" d="M641.7,-171.53C573.73,-161.27 427.86,-139.27 358.35,-128.78"/>
<polygon fill="midnightblue" stroke="midnightblue" points="358.68,-125.3 348.27,-127.26 357.64,-132.22 358.68,-125.3"/>
</g>
<!-- Node16 -->
<g id="node16" class="node">
<title>Node16</title>
<g id="a_node16"><a xlink:href="byteorder_8h.html" target="_top" xlink:title="Functions to work with different byte orders.">
<polygon fill="none" stroke="black" points="554.5,-112.5 554.5,-131.5 627.5,-131.5 627.5,-112.5 554.5,-112.5"/>
<text text-anchor="middle" x="591" y="-119.5" font-family="Helvetica,sans-Serif" font-size="10.00">byteorder.h</text>
</a>
</g>
</g>
<!-- Node15&#45;&gt;Node16 -->
<g id="edge22" class="edge">
<title>Node15&#45;&gt;Node16</title>
<path fill="none" stroke="midnightblue" d="M664.02,-168.32C650.45,-159.9 629.62,-146.97 613.68,-137.07"/>
<polygon fill="midnightblue" stroke="midnightblue" points="615.29,-133.95 604.94,-131.65 611.59,-139.9 615.29,-133.95"/>
</g>
<!-- Node16&#45;&gt;Node6 -->
<g id="edge23" class="edge">
<title>Node16&#45;&gt;Node6</title>
<path fill="none" stroke="midnightblue" d="M581.29,-112.25C565.63,-98.55 533.39,-71.94 502,-56 468.29,-38.88 426.74,-26.57 397.51,-19.2"/>
<polygon fill="midnightblue" stroke="midnightblue" points="398.26,-15.78 387.72,-16.8 396.6,-22.58 398.26,-15.78"/>
</g>
<!-- Node17 -->
<g id="node17" class="node">
<title>Node17</title>
<g id="a_node17"><a xlink:href="unaligned_8h.html" target="_top" xlink:title="Unaligned but safe memory access functions.">
<polygon fill="none" stroke="black" points="554,-56.5 554,-75.5 628,-75.5 628,-56.5 554,-56.5"/>
<text text-anchor="middle" x="591" y="-63.5" font-family="Helvetica,sans-Serif" font-size="10.00">unaligned.h</text>
</a>
</g>
</g>
<!-- Node16&#45;&gt;Node17 -->
<g id="edge24" class="edge">
<title>Node16&#45;&gt;Node17</title>
<path fill="none" stroke="midnightblue" d="M591,-112.08C591,-105.01 591,-94.86 591,-85.99"/>
<polygon fill="midnightblue" stroke="midnightblue" points="594.5,-85.75 591,-75.75 587.5,-85.75 594.5,-85.75"/>
</g>
<!-- Node17&#45;&gt;Node6 -->
<g id="edge25" class="edge">
<title>Node17&#45;&gt;Node6</title>
<path fill="none" stroke="midnightblue" d="M554.56,-56.44C511.52,-46.34 440.37,-29.63 397.36,-19.54"/>
<polygon fill="midnightblue" stroke="midnightblue" points="398.13,-16.12 387.59,-17.24 396.53,-22.94 398.13,-16.12"/>
</g>
<!-- Node18&#45;&gt;Node15 -->
<g id="edge52" class="edge">
<title>Node18&#45;&gt;Node15</title>
<path fill="none" stroke="midnightblue" d="M673.11,-280.28C677.06,-271.38 682.74,-257.07 685,-244 687.66,-228.6 685.43,-210.97 682.81,-197.95"/>
<polygon fill="midnightblue" stroke="midnightblue" points="686.15,-196.85 680.51,-187.88 679.32,-198.41 686.15,-196.85"/>
</g>
<!-- Node19 -->
<g id="node19" class="node">
<title>Node19</title>
<g id="a_node19"><a xlink:href="inttypes_8h.html" target="_top" xlink:title="Adds include for missing inttype definitions.">
<polygon fill="none" stroke="black" points="671.5,-112.5 671.5,-131.5 736.5,-131.5 736.5,-112.5 671.5,-112.5"/>
<text text-anchor="middle" x="704" y="-119.5" font-family="Helvetica,sans-Serif" font-size="10.00">inttypes.h</text>
</a>
</g>
</g>
<!-- Node18&#45;&gt;Node19 -->
<g id="edge27" class="edge">
<title>Node18&#45;&gt;Node19</title>
<path fill="none" stroke="midnightblue" d="M675.8,-280.49C688.51,-263.91 715.28,-225.59 723,-188 726.32,-171.82 720.28,-153.83 714.15,-140.89"/>
<polygon fill="midnightblue" stroke="midnightblue" points="717.1,-138.98 709.39,-131.72 710.89,-142.2 717.1,-138.98"/>
</g>
<!-- Node20 -->
<g id="node20" class="node">
<title>Node20</title>
<g id="a_node20"><a xlink:href="socket_8h.html" target="_top" xlink:title="Main socket header.">
<polygon fill="none" stroke="black" points="847.5,-224.5 847.5,-243.5 924.5,-243.5 924.5,-224.5 847.5,-224.5"/>
<text text-anchor="middle" x="886" y="-231.5" font-family="Helvetica,sans-Serif" font-size="10.00">sys/socket.h</text>
</a>
</g>
</g>
<!-- Node18&#45;&gt;Node20 -->
<g id="edge28" class="edge">
<title>Node18&#45;&gt;Node20</title>
<path fill="none" stroke="midnightblue" d="M703.38,-280.44C740.92,-271.1 801.13,-256.12 842.07,-245.93"/>
<polygon fill="midnightblue" stroke="midnightblue" points="842.92,-249.33 851.78,-243.52 841.23,-242.53 842.92,-249.33"/>
</g>
<!-- Node26 -->
<g id="node26" class="node">
<title>Node26</title>
<g id="a_node26"><a xlink:href="protnum_8h.html" target="_top" xlink:title="Protocol number definitions.">
<polygon fill="none" stroke="black" points="590,-224.5 590,-243.5 676,-243.5 676,-224.5 590,-224.5"/>
<text text-anchor="middle" x="633" y="-231.5" font-family="Helvetica,sans-Serif" font-size="10.00">net/protnum.h</text>
</a>
</g>
</g>
<!-- Node18&#45;&gt;Node26 -->
<g id="edge42" class="edge">
<title>Node18&#45;&gt;Node26</title>
<path fill="none" stroke="midnightblue" d="M663.06,-280.08C658.02,-272.53 650.66,-261.49 644.49,-252.23"/>
<polygon fill="midnightblue" stroke="midnightblue" points="647.29,-250.13 638.83,-243.75 641.47,-254.01 647.29,-250.13"/>
</g>
<!-- Node27 -->
<g id="node27" class="node">
<title>Node27</title>
<g id="a_node27"><a xlink:href="ipv6_2addr_8h.html" target="_top" xlink:title="Definitions for IPv6 addresses.">
<polygon fill="none" stroke="black" points="444,-224.5 444,-243.5 534,-243.5 534,-224.5 444,-224.5"/>
<text text-anchor="middle" x="489" y="-231.5" font-family="Helvetica,sans-Serif" font-size="10.00">net/ipv6/addr.h</text>
</a>
</g>
</g>
<!-- Node18&#45;&gt;Node27 -->
<g id="edge43" class="edge">
<title>Node18&#45;&gt;Node27</title>
<path fill="none" stroke="midnightblue" d="M640.48,-280.44C609.93,-271.28 561.29,-256.69 527.4,-246.52"/>
<polygon fill="midnightblue" stroke="midnightblue" points="527.97,-243.04 517.39,-243.52 525.96,-249.74 527.97,-243.04"/>
</g>
<!-- Node20&#45;&gt;Node14 -->
<g id="edge40" class="edge">
<title>Node20&#45;&gt;Node14</title>
<path fill="none" stroke="midnightblue" d="M913.1,-224.44C942.07,-215.29 988.2,-200.73 1020.39,-190.56"/>
<polygon fill="midnightblue" stroke="midnightblue" points="1021.83,-193.78 1030.31,-187.43 1019.72,-187.1 1021.83,-193.78"/>
</g>
<!-- Node20&#45;&gt;Node15 -->
<g id="edge41" class="edge">
<title>Node20&#45;&gt;Node15</title>
<path fill="none" stroke="midnightblue" d="M853.04,-224.44C817.21,-215.14 759.84,-200.25 720.61,-190.06"/>
<polygon fill="midnightblue" stroke="midnightblue" points="721.36,-186.64 710.8,-187.52 719.6,-193.42 721.36,-186.64"/>
</g>
<!-- Node21 -->
<g id="node21" class="node">
<title>Node21</title>
<g id="a_node21"><a xlink:title=" ">
<polygon fill="none" stroke="#bfbfbf" points="968.5,-112.5 968.5,-131.5 1021.5,-131.5 1021.5,-112.5 968.5,-112.5"/>
<text text-anchor="middle" x="995" y="-119.5" font-family="Helvetica,sans-Serif" font-size="10.00">stdlib.h</text>
</a>
</g>
</g>
<!-- Node20&#45;&gt;Node21 -->
<g id="edge29" class="edge">
<title>Node20&#45;&gt;Node21</title>
<path fill="none" stroke="midnightblue" d="M924.06,-224.43C944.57,-217.85 968.55,-206.63 983,-188 993.21,-174.83 995.7,-155.69 995.94,-141.59"/>
<polygon fill="midnightblue" stroke="midnightblue" points="999.44,-141.51 995.76,-131.57 992.44,-141.64 999.44,-141.51"/>
</g>
<!-- Node22 -->
<g id="node22" class="node">
<title>Node22</title>
<g id="a_node22"><a xlink:title=" ">
<polygon fill="none" stroke="#bfbfbf" points="865,-112.5 865,-131.5 937,-131.5 937,-112.5 865,-112.5"/>
<text text-anchor="middle" x="901" y="-119.5" font-family="Helvetica,sans-Serif" font-size="10.00">sys/types.h</text>
</a>
</g>
</g>
<!-- Node20&#45;&gt;Node22 -->
<g id="edge30" class="edge">
<title>Node20&#45;&gt;Node22</title>
<path fill="none" stroke="midnightblue" d="M887.18,-224.37C889.6,-206.62 895.18,-165.67 898.46,-141.6"/>
<polygon fill="midnightblue" stroke="midnightblue" points="901.95,-141.97 899.83,-131.59 895.01,-141.03 901.95,-141.97"/>
</g>
<!-- Node23 -->
<g id="node23" class="node">
<title>Node23</title>
<g id="a_node23"><a xlink:href="uio_8h.html" target="_top" xlink:title="libc header for scatter/gather I/O">
<polygon fill="none" stroke="black" points="914,-168.5 914,-187.5 974,-187.5 974,-168.5 914,-168.5"/>
<text text-anchor="middle" x="944" y="-175.5" font-family="Helvetica,sans-Serif" font-size="10.00">sys/uio.h</text>
</a>
</g>
</g>
<!-- Node20&#45;&gt;Node23 -->
<g id="edge31" class="edge">
<title>Node20&#45;&gt;Node23</title>
<path fill="none" stroke="midnightblue" d="M895.32,-224.32C903.89,-216.34 916.81,-204.31 927.19,-194.65"/>
<polygon fill="midnightblue" stroke="midnightblue" points="929.58,-197.21 934.51,-187.83 924.81,-192.09 929.58,-197.21"/>
</g>
<!-- Node24 -->
<g id="node24" class="node">
<title>Node24</title>
<g id="a_node24"><a xlink:href="kernel__types_8h.html" target="_top" xlink:title="Types used by the kernel.">
<polygon fill="none" stroke="black" points="770,-168.5 770,-187.5 858,-187.5 858,-168.5 770,-168.5"/>
<text text-anchor="middle" x="814" y="-175.5" font-family="Helvetica,sans-Serif" font-size="10.00">kernel_types.h</text>
</a>
</g>
</g>
<!-- Node20&#45;&gt;Node24 -->
<g id="edge34" class="edge">
<title>Node20&#45;&gt;Node24</title>
<path fill="none" stroke="midnightblue" d="M874.43,-224.32C863.58,-216.18 847.12,-203.84 834.12,-194.09"/>
<polygon fill="midnightblue" stroke="midnightblue" points="835.88,-191.03 825.78,-187.83 831.68,-196.63 835.88,-191.03"/>
</g>
<!-- Node23&#45;&gt;Node21 -->
<g id="edge32" class="edge">
<title>Node23&#45;&gt;Node21</title>
<path fill="none" stroke="midnightblue" d="M952.42,-168.08C959.85,-160.22 970.85,-148.57 979.81,-139.08"/>
<polygon fill="midnightblue" stroke="midnightblue" points="982.41,-141.42 986.74,-131.75 977.32,-136.62 982.41,-141.42"/>
</g>
<!-- Node23&#45;&gt;Node22 -->
<g id="edge33" class="edge">
<title>Node23&#45;&gt;Node22</title>
<path fill="none" stroke="midnightblue" d="M936.9,-168.08C930.76,-160.38 921.73,-149.03 914.26,-139.65"/>
<polygon fill="midnightblue" stroke="midnightblue" points="916.94,-137.39 907.97,-131.75 911.46,-141.75 916.94,-137.39"/>
</g>
<!-- Node24&#45;&gt;Node5 -->
<g id="edge38" class="edge">
<title>Node24&#45;&gt;Node5</title>
<path fill="none" stroke="midnightblue" d="M769.67,-172.44C676.29,-162.82 461.95,-140.62 389,-132 379.03,-130.82 368.26,-129.46 358.26,-128.16"/>
<polygon fill="midnightblue" stroke="midnightblue" points="358.55,-124.67 348.18,-126.83 357.64,-131.61 358.55,-124.67"/>
</g>
<!-- Node24&#45;&gt;Node6 -->
<g id="edge35" class="edge">
<title>Node24&#45;&gt;Node6</title>
<path fill="none" stroke="midnightblue" d="M806.31,-168.17C794.37,-154.82 770.21,-129.24 746,-112 701.63,-80.41 688.73,-73.03 637,-56 554,-28.67 451.27,-17.52 397.59,-13.32"/>
<polygon fill="midnightblue" stroke="midnightblue" points="397.76,-9.82 387.52,-12.56 397.24,-16.8 397.76,-9.82"/>
</g>
<!-- Node24&#45;&gt;Node19 -->
<g id="edge36" class="edge">
<title>Node24&#45;&gt;Node19</title>
<path fill="none" stroke="midnightblue" d="M796.33,-168.32C778.61,-159.62 751.1,-146.12 730.71,-136.11"/>
<polygon fill="midnightblue" stroke="midnightblue" points="732.15,-132.92 721.63,-131.65 729.06,-139.2 732.15,-132.92"/>
</g>
<!-- Node24&#45;&gt;Node22 -->
<g id="edge39" class="edge">
<title>Node24&#45;&gt;Node22</title>
<path fill="none" stroke="midnightblue" d="M827.98,-168.32C841.55,-159.9 862.38,-146.97 878.32,-137.07"/>
<polygon fill="midnightblue" stroke="midnightblue" points="880.41,-139.9 887.06,-131.65 876.71,-133.95 880.41,-139.9"/>
</g>
<!-- Node25 -->
<g id="node25" class="node">
<title>Node25</title>
<g id="a_node25"><a xlink:title=" ">
<polygon fill="none" stroke="#bfbfbf" points="793.5,-112.5 793.5,-131.5 846.5,-131.5 846.5,-112.5 793.5,-112.5"/>
<text text-anchor="middle" x="820" y="-119.5" font-family="Helvetica,sans-Serif" font-size="10.00">limits.h</text>
</a>
</g>
</g>
<!-- Node24&#45;&gt;Node25 -->
<g id="edge37" class="edge">
<title>Node24&#45;&gt;Node25</title>
<path fill="none" stroke="midnightblue" d="M814.99,-168.08C815.79,-160.93 816.93,-150.64 817.92,-141.69"/>
<polygon fill="midnightblue" stroke="midnightblue" points="821.4,-142.08 819.03,-131.75 814.44,-141.3 821.4,-142.08"/>
</g>
<!-- Node27&#45;&gt;Node8 -->
<g id="edge44" class="edge">
<title>Node27&#45;&gt;Node8</title>
<path fill="none" stroke="midnightblue" d="M484.29,-224.37C474.48,-206.38 451.66,-164.55 438.61,-140.63"/>
<polygon fill="midnightblue" stroke="midnightblue" points="441.55,-138.69 433.69,-131.59 435.4,-142.05 441.55,-138.69"/>
</g>
<!-- Node27&#45;&gt;Node9 -->
<g id="edge45" class="edge">
<title>Node27&#45;&gt;Node9</title>
<path fill="none" stroke="midnightblue" d="M476.79,-224.32C465.22,-216.11 447.62,-203.6 433.84,-193.81"/>
<polygon fill="midnightblue" stroke="midnightblue" points="435.61,-190.77 425.43,-187.83 431.56,-196.48 435.61,-190.77"/>
</g>
<!-- Node27&#45;&gt;Node16 -->
<g id="edge46" class="edge">
<title>Node27&#45;&gt;Node16</title>
<path fill="none" stroke="midnightblue" d="M534.11,-225.79C556.43,-219.7 581.43,-208.51 595,-188 603.96,-174.46 601.61,-155.66 597.82,-141.76"/>
<polygon fill="midnightblue" stroke="midnightblue" points="601.03,-140.31 594.66,-131.85 594.36,-142.44 601.03,-140.31"/>
</g>
<!-- Node28 -->
<g id="node28" class="node">
<title>Node28</title>
<g id="a_node28"><a xlink:href="ipv4_2addr_8h.html" target="_top" xlink:title="IPv6 address type and helper functions definitions.">
<polygon fill="none" stroke="black" points="496,-168.5 496,-187.5 586,-187.5 586,-168.5 496,-168.5"/>
<text text-anchor="middle" x="541" y="-175.5" font-family="Helvetica,sans-Serif" font-size="10.00">net/ipv4/addr.h</text>
</a>
</g>
</g>
<!-- Node27&#45;&gt;Node28 -->
<g id="edge47" class="edge">
<title>Node27&#45;&gt;Node28</title>
<path fill="none" stroke="midnightblue" d="M497.59,-224.08C505.16,-216.22 516.38,-204.57 525.51,-195.08"/>
<polygon fill="midnightblue" stroke="midnightblue" points="528.16,-197.38 532.57,-187.75 523.12,-192.53 528.16,-197.38"/>
</g>
<!-- Node28&#45;&gt;Node5 -->
<g id="edge50" class="edge">
<title>Node28&#45;&gt;Node5</title>
<path fill="none" stroke="midnightblue" d="M505.98,-168.44C465.62,-158.58 399.51,-142.43 357.94,-132.27"/>
<polygon fill="midnightblue" stroke="midnightblue" points="358.74,-128.86 348.19,-129.89 357.08,-135.66 358.74,-128.86"/>
</g>
<!-- Node28&#45;&gt;Node6 -->
<g id="edge49" class="edge">
<title>Node28&#45;&gt;Node6</title>
<path fill="none" stroke="midnightblue" d="M531.32,-168.08C502.13,-141.15 414.69,-60.51 377.76,-26.45"/>
<polygon fill="midnightblue" stroke="midnightblue" points="380.01,-23.77 370.29,-19.57 375.27,-28.92 380.01,-23.77"/>
</g>
<!-- Node28&#45;&gt;Node8 -->
<g id="edge48" class="edge">
<title>Node28&#45;&gt;Node8</title>
<path fill="none" stroke="midnightblue" d="M523.01,-168.32C504.96,-159.62 476.95,-146.12 456.2,-136.11"/>
<polygon fill="midnightblue" stroke="midnightblue" points="457.48,-132.84 446.95,-131.65 454.44,-139.15 457.48,-132.84"/>
</g>
<!-- Node28&#45;&gt;Node16 -->
<g id="edge51" class="edge">
<title>Node28&#45;&gt;Node16</title>
<path fill="none" stroke="midnightblue" d="M549.26,-168.08C556.46,-160.3 567.11,-148.8 575.85,-139.37"/>
<polygon fill="midnightblue" stroke="midnightblue" points="578.67,-141.47 582.9,-131.75 573.53,-136.71 578.67,-141.47"/>
</g>
</g>
</svg>
