<?xml version="1.0" encoding="UTF-8" standalone="no"?>
<!DOCTYPE svg PUBLIC "-//W3C//DTD SVG 1.1//EN"
 "http://www.w3.org/Graphics/SVG/1.1/DTD/svg11.dtd">
<!-- Generated by graphviz version 2.43.0 (0)
 -->
<!-- Title: sys/include/net/ndp.h Pages: 1 -->
<svg width="358pt" height="308pt"
 viewBox="0.00 0.00 357.50 308.00" xmlns="http://www.w3.org/2000/svg" xmlns:xlink="http://www.w3.org/1999/xlink">
<g id="graph0" class="graph" transform="scale(1 1) rotate(0) translate(4 304)">
<title>sys/include/net/ndp.h</title>
<!-- Node1 -->
<g id="node1" class="node">
<title>Node1</title>
<g id="a_node1"><a xlink:title="IPv6 neighbor discovery message type definitions.">
<polygon fill="#bfbfbf" stroke="black" points="24,-280.5 24,-299.5 144,-299.5 144,-280.5 24,-280.5"/>
<text text-anchor="middle" x="84" y="-287.5" font-family="Helvetica,sans-Serif" font-size="10.00">sys/include/net/ndp.h</text>
</a>
</g>
</g>
<!-- Node2 -->
<g id="node2" class="node">
<title>Node2</title>
<g id="a_node2"><a xlink:title=" ">
<polygon fill="none" stroke="#bfbfbf" points="43.5,-0.5 43.5,-19.5 96.5,-19.5 96.5,-0.5 43.5,-0.5"/>
<text text-anchor="middle" x="70" y="-7.5" font-family="Helvetica,sans-Serif" font-size="10.00">stdint.h</text>
</a>
</g>
</g>
<!-- Node1&#45;&gt;Node2 -->
<g id="edge1" class="edge">
<title>Node1&#45;&gt;Node2</title>
<path fill="none" stroke="midnightblue" d="M70.88,-280.46C47.25,-263.94 0,-225.14 0,-179 0,-179 0,-179 0,-121 0,-82.23 31.33,-46.1 52.07,-26.43"/>
<polygon fill="midnightblue" stroke="midnightblue" points="54.64,-28.83 59.67,-19.5 49.92,-23.65 54.64,-28.83"/>
</g>
<!-- Node3 -->
<g id="node3" class="node">
<title>Node3</title>
<g id="a_node3"><a xlink:href="byteorder_8h.html" target="_top" xlink:title="Functions to work with different byte orders.">
<polygon fill="none" stroke="black" points="66.5,-112.5 66.5,-131.5 139.5,-131.5 139.5,-112.5 66.5,-112.5"/>
<text text-anchor="middle" x="103" y="-119.5" font-family="Helvetica,sans-Serif" font-size="10.00">byteorder.h</text>
</a>
</g>
</g>
<!-- Node1&#45;&gt;Node3 -->
<g id="edge2" class="edge">
<title>Node1&#45;&gt;Node3</title>
<path fill="none" stroke="midnightblue" d="M85.02,-280.08C88.01,-253.95 96.8,-177.21 100.87,-141.58"/>
<polygon fill="midnightblue" stroke="midnightblue" points="104.36,-141.9 102.02,-131.57 97.4,-141.11 104.36,-141.9"/>
</g>
<!-- Node5 -->
<g id="node5" class="node">
<title>Node5</title>
<g id="a_node5"><a xlink:href="ipv6_2addr_8h.html" target="_top" xlink:title="Definitions for IPv6 addresses.">
<polygon fill="none" stroke="black" points="150,-224.5 150,-243.5 240,-243.5 240,-224.5 150,-224.5"/>
<text text-anchor="middle" x="195" y="-231.5" font-family="Helvetica,sans-Serif" font-size="10.00">net/ipv6/addr.h</text>
</a>
</g>
</g>
<!-- Node1&#45;&gt;Node5 -->
<g id="edge6" class="edge">
<title>Node1&#45;&gt;Node5</title>
<path fill="none" stroke="midnightblue" d="M101.83,-280.32C119.72,-271.62 147.48,-258.12 168.05,-248.11"/>
<polygon fill="midnightblue" stroke="midnightblue" points="169.75,-251.18 177.21,-243.65 166.69,-244.88 169.75,-251.18"/>
</g>
<!-- Node3&#45;&gt;Node2 -->
<g id="edge3" class="edge">
<title>Node3&#45;&gt;Node2</title>
<path fill="none" stroke="midnightblue" d="M89.21,-112.19C78.17,-104.24 63.5,-91.45 57,-76 50.66,-60.93 55.36,-42.58 60.8,-29.22"/>
<polygon fill="midnightblue" stroke="midnightblue" points="64.16,-30.29 65.12,-19.74 57.79,-27.38 64.16,-30.29"/>
</g>
<!-- Node4 -->
<g id="node4" class="node">
<title>Node4</title>
<g id="a_node4"><a xlink:href="unaligned_8h.html" target="_top" xlink:title="Unaligned but safe memory access functions.">
<polygon fill="none" stroke="black" points="66,-56.5 66,-75.5 140,-75.5 140,-56.5 66,-56.5"/>
<text text-anchor="middle" x="103" y="-63.5" font-family="Helvetica,sans-Serif" font-size="10.00">unaligned.h</text>
</a>
</g>
</g>
<!-- Node3&#45;&gt;Node4 -->
<g id="edge4" class="edge">
<title>Node3&#45;&gt;Node4</title>
<path fill="none" stroke="midnightblue" d="M103,-112.08C103,-105.01 103,-94.86 103,-85.99"/>
<polygon fill="midnightblue" stroke="midnightblue" points="106.5,-85.75 103,-75.75 99.5,-85.75 106.5,-85.75"/>
</g>
<!-- Node4&#45;&gt;Node2 -->
<g id="edge5" class="edge">
<title>Node4&#45;&gt;Node2</title>
<path fill="none" stroke="midnightblue" d="M97.55,-56.08C92.99,-48.61 86.33,-37.72 80.71,-28.52"/>
<polygon fill="midnightblue" stroke="midnightblue" points="83.55,-26.46 75.35,-19.75 77.58,-30.11 83.55,-26.46"/>
</g>
<!-- Node5&#45;&gt;Node3 -->
<g id="edge9" class="edge">
<title>Node5&#45;&gt;Node3</title>
<path fill="none" stroke="midnightblue" d="M182.35,-224.42C170.66,-216.06 153.3,-202.53 141,-188 128.75,-173.53 118.18,-154.59 111.33,-140.9"/>
<polygon fill="midnightblue" stroke="midnightblue" points="114.34,-139.08 106.84,-131.6 108.03,-142.13 114.34,-139.08"/>
</g>
<!-- Node6 -->
<g id="node6" class="node">
<title>Node6</title>
<g id="a_node6"><a xlink:title=" ">
<polygon fill="none" stroke="#bfbfbf" points="270,-112.5 270,-131.5 332,-131.5 332,-112.5 270,-112.5"/>
<text text-anchor="middle" x="301" y="-119.5" font-family="Helvetica,sans-Serif" font-size="10.00">stdbool.h</text>
</a>
</g>
</g>
<!-- Node5&#45;&gt;Node6 -->
<g id="edge7" class="edge">
<title>Node5&#45;&gt;Node6</title>
<path fill="none" stroke="midnightblue" d="M206.75,-224.32C218.1,-215.68 235.5,-201.77 249,-188 263.79,-172.91 278.66,-153.84 288.68,-140.27"/>
<polygon fill="midnightblue" stroke="midnightblue" points="291.74,-142.02 294.79,-131.87 286.08,-137.9 291.74,-142.02"/>
</g>
<!-- Node7 -->
<g id="node7" class="node">
<title>Node7</title>
<g id="a_node7"><a xlink:title=" ">
<polygon fill="none" stroke="#bfbfbf" points="296.5,-168.5 296.5,-187.5 349.5,-187.5 349.5,-168.5 296.5,-168.5"/>
<text text-anchor="middle" x="323" y="-175.5" font-family="Helvetica,sans-Serif" font-size="10.00">string.h</text>
</a>
</g>
</g>
<!-- Node5&#45;&gt;Node7 -->
<g id="edge8" class="edge">
<title>Node5&#45;&gt;Node7</title>
<path fill="none" stroke="midnightblue" d="M215.28,-224.44C236.35,-215.56 269.52,-201.56 293.49,-191.45"/>
<polygon fill="midnightblue" stroke="midnightblue" points="294.96,-194.63 302.81,-187.52 292.24,-188.18 294.96,-194.63"/>
</g>
<!-- Node8 -->
<g id="node8" class="node">
<title>Node8</title>
<g id="a_node8"><a xlink:href="ipv4_2addr_8h.html" target="_top" xlink:title="IPv6 address type and helper functions definitions.">
<polygon fill="none" stroke="black" points="150,-168.5 150,-187.5 240,-187.5 240,-168.5 150,-168.5"/>
<text text-anchor="middle" x="195" y="-175.5" font-family="Helvetica,sans-Serif" font-size="10.00">net/ipv4/addr.h</text>
</a>
</g>
</g>
<!-- Node5&#45;&gt;Node8 -->
<g id="edge10" class="edge">
<title>Node5&#45;&gt;Node8</title>
<path fill="none" stroke="midnightblue" d="M195,-224.08C195,-217.01 195,-206.86 195,-197.99"/>
<polygon fill="midnightblue" stroke="midnightblue" points="198.5,-197.75 195,-187.75 191.5,-197.75 198.5,-197.75"/>
</g>
<!-- Node8&#45;&gt;Node2 -->
<g id="edge12" class="edge">
<title>Node8&#45;&gt;Node2</title>
<path fill="none" stroke="midnightblue" d="M193.77,-168.36C190.32,-146.98 178.82,-90.82 149,-56 136.84,-41.8 119.03,-31.11 103.39,-23.72"/>
<polygon fill="midnightblue" stroke="midnightblue" points="104.57,-20.41 94.01,-19.54 101.72,-26.81 104.57,-20.41"/>
</g>
<!-- Node8&#45;&gt;Node3 -->
<g id="edge14" class="edge">
<title>Node8&#45;&gt;Node3</title>
<path fill="none" stroke="midnightblue" d="M180.22,-168.32C165.73,-159.82 143.43,-146.73 126.51,-136.8"/>
<polygon fill="midnightblue" stroke="midnightblue" points="128.14,-133.7 117.74,-131.65 124.6,-139.74 128.14,-133.7"/>
</g>
<!-- Node8&#45;&gt;Node6 -->
<g id="edge11" class="edge">
<title>Node8&#45;&gt;Node6</title>
<path fill="none" stroke="midnightblue" d="M212.03,-168.32C229.03,-159.66 255.38,-146.24 274.99,-136.25"/>
<polygon fill="midnightblue" stroke="midnightblue" points="276.69,-139.31 284.01,-131.65 273.51,-133.08 276.69,-139.31"/>
</g>
<!-- Node9 -->
<g id="node9" class="node">
<title>Node9</title>
<g id="a_node9"><a xlink:title=" ">
<polygon fill="none" stroke="#bfbfbf" points="196,-112.5 196,-131.5 252,-131.5 252,-112.5 196,-112.5"/>
<text text-anchor="middle" x="224" y="-119.5" font-family="Helvetica,sans-Serif" font-size="10.00">stddef.h</text>
</a>
</g>
</g>
<!-- Node8&#45;&gt;Node9 -->
<g id="edge13" class="edge">
<title>Node8&#45;&gt;Node9</title>
<path fill="none" stroke="midnightblue" d="M199.79,-168.08C203.76,-160.69 209.53,-149.95 214.43,-140.81"/>
<polygon fill="midnightblue" stroke="midnightblue" points="217.65,-142.22 219.3,-131.75 211.49,-138.91 217.65,-142.22"/>
</g>
</g>
</svg>
