<?xml version="1.0" encoding="UTF-8" standalone="no"?>
<!DOCTYPE svg PUBLIC "-//W3C//DTD SVG 1.1//EN"
 "http://www.w3.org/Graphics/SVG/1.1/DTD/svg11.dtd">
<!-- Generated by graphviz version 2.43.0 (0)
 -->
<!-- Title: sys/include/net/ipv6/hdr.h Pages: 1 -->
<svg width="1465pt" height="474pt"
 viewBox="0.00 0.00 1465.00 474.00" xmlns="http://www.w3.org/2000/svg" xmlns:xlink="http://www.w3.org/1999/xlink">
<g id="graph0" class="graph" transform="scale(1 1) rotate(0) translate(4 470)">
<title>sys/include/net/ipv6/hdr.h</title>
<!-- Node1 -->
<g id="node1" class="node">
<title>Node1</title>
<g id="a_node1"><a xlink:title="IPv6 header type and helper function definitions.">
<polygon fill="#bfbfbf" stroke="black" points="388.5,-435.5 388.5,-465.5 502.5,-465.5 502.5,-435.5 388.5,-435.5"/>
<text text-anchor="start" x="396.5" y="-453.5" font-family="Helvetica,sans-Serif" font-size="10.00">sys/include/net/ipv6</text>
<text text-anchor="middle" x="445.5" y="-442.5" font-family="Helvetica,sans-Serif" font-size="10.00">/hdr.h</text>
</a>
</g>
</g>
<!-- Node2 -->
<g id="node2" class="node">
<title>Node2</title>
<g id="a_node2"><a xlink:href="echo_8h.html" target="_top" xlink:title="ICMPv6 echo message definitions.">
<polygon fill="none" stroke="black" points="24.5,-301.5 24.5,-331.5 138.5,-331.5 138.5,-301.5 24.5,-301.5"/>
<text text-anchor="start" x="32.5" y="-319.5" font-family="Helvetica,sans-Serif" font-size="10.00">sys/include/net/gnrc</text>
<text text-anchor="middle" x="81.5" y="-308.5" font-family="Helvetica,sans-Serif" font-size="10.00">/icmpv6/echo.h</text>
</a>
</g>
</g>
<!-- Node1&#45;&gt;Node2 -->
<g id="edge1" class="edge">
<title>Node1&#45;&gt;Node2</title>
<path fill="none" stroke="midnightblue" d="M378.01,-443.15C303.82,-435.25 190.15,-420.18 152.5,-399 123.71,-382.81 100.95,-350.36 89.53,-331.66"/>
<polygon fill="midnightblue" stroke="midnightblue" points="377.89,-446.66 388.2,-444.22 378.62,-439.69 377.89,-446.66"/>
</g>
<!-- Node5 -->
<g id="node5" class="node">
<title>Node5</title>
<g id="a_node5"><a xlink:href="error_8h.html" target="_top" xlink:title="ICMPv6 error message definitions.">
<polygon fill="none" stroke="black" points="86.5,-229 86.5,-259 200.5,-259 200.5,-229 86.5,-229"/>
<text text-anchor="start" x="94.5" y="-247" font-family="Helvetica,sans-Serif" font-size="10.00">sys/include/net/gnrc</text>
<text text-anchor="middle" x="143.5" y="-236" font-family="Helvetica,sans-Serif" font-size="10.00">/icmpv6/error.h</text>
</a>
</g>
</g>
<!-- Node1&#45;&gt;Node5 -->
<g id="edge4" class="edge">
<title>Node1&#45;&gt;Node5</title>
<path fill="none" stroke="midnightblue" d="M378.42,-441.54C319.51,-433.38 239.42,-419.03 214.5,-399 168.83,-362.3 151.26,-289.6 145.7,-259.05"/>
<polygon fill="midnightblue" stroke="midnightblue" points="378.04,-445.02 388.42,-442.9 378.98,-438.09 378.04,-445.02"/>
</g>
<!-- Node6 -->
<g id="node6" class="node">
<title>Node6</title>
<g id="a_node6"><a xlink:href="gnrc_2ipv6_2ext_2frag_8h.html" target="_top" xlink:title="GNRC fragmentation extension definitions.">
<polygon fill="none" stroke="black" points="662.5,-368.5 662.5,-398.5 776.5,-398.5 776.5,-368.5 662.5,-368.5"/>
<text text-anchor="start" x="670.5" y="-386.5" font-family="Helvetica,sans-Serif" font-size="10.00">sys/include/net/gnrc</text>
<text text-anchor="middle" x="719.5" y="-375.5" font-family="Helvetica,sans-Serif" font-size="10.00">/ipv6/ext/frag.h</text>
</a>
</g>
</g>
<!-- Node1&#45;&gt;Node6 -->
<g id="edge6" class="edge">
<title>Node1&#45;&gt;Node6</title>
<path fill="none" stroke="midnightblue" d="M512.48,-433.61C558.45,-422.71 618.8,-408.39 662.47,-398.03"/>
<polygon fill="midnightblue" stroke="midnightblue" points="511.53,-430.24 502.61,-435.95 513.14,-437.05 511.53,-430.24"/>
</g>
<!-- Node7 -->
<g id="node7" class="node">
<title>Node7</title>
<g id="a_node7"><a xlink:href="net_2gnrc_2ipv6_2hdr_8h.html" target="_top" xlink:title="IPv6 header.">
<polygon fill="none" stroke="black" points="256.5,-368.5 256.5,-398.5 370.5,-398.5 370.5,-368.5 256.5,-368.5"/>
<text text-anchor="start" x="264.5" y="-386.5" font-family="Helvetica,sans-Serif" font-size="10.00">sys/include/net/gnrc</text>
<text text-anchor="middle" x="313.5" y="-375.5" font-family="Helvetica,sans-Serif" font-size="10.00">/ipv6/hdr.h</text>
</a>
</g>
</g>
<!-- Node1&#45;&gt;Node7 -->
<g id="edge7" class="edge">
<title>Node1&#45;&gt;Node7</title>
<path fill="none" stroke="midnightblue" d="M407.63,-430.85C386.76,-420.58 361.27,-408.03 342.09,-398.58"/>
<polygon fill="midnightblue" stroke="midnightblue" points="406.34,-434.12 416.86,-435.4 409.43,-427.84 406.34,-434.12"/>
</g>
<!-- Node19 -->
<g id="node19" class="node">
<title>Node19</title>
<g id="a_node19"><a xlink:href="__nib-arsm_8h_source.html" target="_top" xlink:title=" ">
<polygon fill="none" stroke="black" points="134,-145.5 134,-186.5 253,-186.5 253,-145.5 134,-145.5"/>
<text text-anchor="start" x="142" y="-174.5" font-family="Helvetica,sans-Serif" font-size="10.00">sys/net/gnrc/network</text>
<text text-anchor="start" x="142" y="-163.5" font-family="Helvetica,sans-Serif" font-size="10.00">_layer/ipv6/nib/_nib</text>
<text text-anchor="middle" x="193.5" y="-152.5" font-family="Helvetica,sans-Serif" font-size="10.00">&#45;arsm.h</text>
</a>
</g>
</g>
<!-- Node1&#45;&gt;Node19 -->
<g id="edge35" class="edge">
<title>Node1&#45;&gt;Node19</title>
<path fill="none" stroke="midnightblue" d="M378.1,-440.02C328.09,-431.62 265.58,-417.76 247.5,-399 191.97,-341.37 228.95,-300.63 209.5,-223 206.45,-210.84 202.6,-197.32 199.44,-186.61"/>
<polygon fill="midnightblue" stroke="midnightblue" points="377.8,-443.52 388.24,-441.68 378.93,-436.61 377.8,-443.52"/>
</g>
<!-- Node23 -->
<g id="node23" class="node">
<title>Node23</title>
<g id="a_node23"><a xlink:href="nib_8h.html" target="_top" xlink:title="NIB definitions.">
<polygon fill="none" stroke="black" points="388.5,-368.5 388.5,-398.5 502.5,-398.5 502.5,-368.5 388.5,-368.5"/>
<text text-anchor="start" x="396.5" y="-386.5" font-family="Helvetica,sans-Serif" font-size="10.00">sys/include/net/gnrc</text>
<text text-anchor="middle" x="445.5" y="-375.5" font-family="Helvetica,sans-Serif" font-size="10.00">/ipv6/nib.h</text>
</a>
</g>
</g>
<!-- Node1&#45;&gt;Node23 -->
<g id="edge29" class="edge">
<title>Node1&#45;&gt;Node23</title>
<path fill="none" stroke="midnightblue" d="M445.5,-425.11C445.5,-416.15 445.5,-406.32 445.5,-398.58"/>
<polygon fill="midnightblue" stroke="midnightblue" points="442,-425.4 445.5,-435.4 449,-425.4 442,-425.4"/>
</g>
<!-- Node24 -->
<g id="node24" class="node">
<title>Node24</title>
<g id="a_node24"><a xlink:href="gnrc_2ndp_8h.html" target="_top" xlink:title="GNRC&#45;specific neighbor discovery definitions.">
<polygon fill="none" stroke="black" points="794.5,-368.5 794.5,-398.5 908.5,-398.5 908.5,-368.5 794.5,-368.5"/>
<text text-anchor="start" x="802.5" y="-386.5" font-family="Helvetica,sans-Serif" font-size="10.00">sys/include/net/gnrc</text>
<text text-anchor="middle" x="851.5" y="-375.5" font-family="Helvetica,sans-Serif" font-size="10.00">/ndp.h</text>
</a>
</g>
</g>
<!-- Node1&#45;&gt;Node24 -->
<g id="edge31" class="edge">
<title>Node1&#45;&gt;Node24</title>
<path fill="none" stroke="midnightblue" d="M512.8,-440.89C581.56,-431.78 691.29,-416.32 785.5,-399 788.38,-398.47 791.34,-397.9 794.31,-397.32"/>
<polygon fill="midnightblue" stroke="midnightblue" points="512,-437.47 502.55,-442.25 512.92,-444.41 512,-437.47"/>
</g>
<!-- Node25 -->
<g id="node25" class="node">
<title>Node25</title>
<g id="a_node25"><a xlink:href="srh_8h.html" target="_top" xlink:title="Definititions for RPL source routing extension headers.">
<polygon fill="none" stroke="black" points="926.5,-368.5 926.5,-398.5 1040.5,-398.5 1040.5,-368.5 926.5,-368.5"/>
<text text-anchor="start" x="934.5" y="-386.5" font-family="Helvetica,sans-Serif" font-size="10.00">sys/include/net/gnrc</text>
<text text-anchor="middle" x="983.5" y="-375.5" font-family="Helvetica,sans-Serif" font-size="10.00">/rpl/srh.h</text>
</a>
</g>
</g>
<!-- Node1&#45;&gt;Node25 -->
<g id="edge32" class="edge">
<title>Node1&#45;&gt;Node25</title>
<path fill="none" stroke="midnightblue" d="M512.8,-444.64C604.65,-437.46 774.22,-422.33 917.5,-399 920.39,-398.53 923.35,-398.01 926.34,-397.46"/>
<polygon fill="midnightblue" stroke="midnightblue" points="512.51,-441.15 502.81,-445.41 513.05,-448.13 512.51,-441.15"/>
</g>
<!-- Node26 -->
<g id="node26" class="node">
<title>Node26</title>
<g id="a_node26"><a xlink:href="ipv6_8h.html" target="_top" xlink:title="IPv6 include gathering header.">
<polygon fill="none" stroke="black" points="521,-374 521,-393 644,-393 644,-374 521,-374"/>
<text text-anchor="middle" x="582.5" y="-381" font-family="Helvetica,sans-Serif" font-size="10.00">sys/include/net/ipv6.h</text>
</a>
</g>
</g>
<!-- Node1&#45;&gt;Node26 -->
<g id="edge33" class="edge">
<title>Node1&#45;&gt;Node26</title>
<path fill="none" stroke="midnightblue" d="M484.56,-430.97C510.88,-418.48 544.36,-402.6 564.57,-393.01"/>
<polygon fill="midnightblue" stroke="midnightblue" points="482.76,-427.95 475.23,-435.4 485.76,-434.27 482.76,-427.95"/>
</g>
<!-- Node3 -->
<g id="node3" class="node">
<title>Node3</title>
<g id="a_node3"><a xlink:href="gnrc_2icmpv6_8h.html" target="_top" xlink:title="Definitions for GNRC&#39;s ICMPv6 implementation.">
<polygon fill="none" stroke="black" points="1.5,-151 1.5,-181 115.5,-181 115.5,-151 1.5,-151"/>
<text text-anchor="start" x="9.5" y="-169" font-family="Helvetica,sans-Serif" font-size="10.00">sys/include/net/gnrc</text>
<text text-anchor="middle" x="58.5" y="-158" font-family="Helvetica,sans-Serif" font-size="10.00">/icmpv6.h</text>
</a>
</g>
</g>
<!-- Node2&#45;&gt;Node3 -->
<g id="edge2" class="edge">
<title>Node2&#45;&gt;Node3</title>
<path fill="none" stroke="midnightblue" d="M77.74,-291.22C72.91,-260.03 64.67,-206.87 60.73,-181.41"/>
<polygon fill="midnightblue" stroke="midnightblue" points="74.31,-291.91 79.29,-301.26 81.22,-290.84 74.31,-291.91"/>
</g>
<!-- Node4 -->
<g id="node4" class="node">
<title>Node4</title>
<g id="a_node4"><a xlink:href="validation_8h.html" target="_top" xlink:title="RPL control message validation functions.">
<polygon fill="none" stroke="black" points="0,-67.5 0,-108.5 117,-108.5 117,-67.5 0,-67.5"/>
<text text-anchor="start" x="8" y="-96.5" font-family="Helvetica,sans-Serif" font-size="10.00">sys/net/gnrc/routing</text>
<text text-anchor="start" x="8" y="-85.5" font-family="Helvetica,sans-Serif" font-size="10.00">/rpl/gnrc_rpl_internal</text>
<text text-anchor="middle" x="58.5" y="-74.5" font-family="Helvetica,sans-Serif" font-size="10.00">/validation.h</text>
</a>
</g>
</g>
<!-- Node3&#45;&gt;Node4 -->
<g id="edge3" class="edge">
<title>Node3&#45;&gt;Node4</title>
<path fill="none" stroke="midnightblue" d="M58.5,-140.66C58.5,-130.33 58.5,-118.44 58.5,-108.68"/>
<polygon fill="midnightblue" stroke="midnightblue" points="55,-140.7 58.5,-150.7 62,-140.71 55,-140.7"/>
</g>
<!-- Node5&#45;&gt;Node3 -->
<g id="edge5" class="edge">
<title>Node5&#45;&gt;Node3</title>
<path fill="none" stroke="midnightblue" d="M119.89,-221.89C105.4,-208.93 87.22,-192.68 74.42,-181.23"/>
<polygon fill="midnightblue" stroke="midnightblue" points="117.72,-224.65 127.51,-228.7 122.39,-219.43 117.72,-224.65"/>
</g>
<!-- Node8 -->
<g id="node8" class="node">
<title>Node8</title>
<g id="a_node8"><a xlink:href="gnrc_2ipv6_8h.html" target="_top" xlink:title="Definitions for GNRC&#39;s IPv6 implementation.">
<polygon fill="none" stroke="black" points="436.5,-301.5 436.5,-331.5 550.5,-331.5 550.5,-301.5 436.5,-301.5"/>
<text text-anchor="start" x="444.5" y="-319.5" font-family="Helvetica,sans-Serif" font-size="10.00">sys/include/net/gnrc</text>
<text text-anchor="middle" x="493.5" y="-308.5" font-family="Helvetica,sans-Serif" font-size="10.00">/ipv6.h</text>
</a>
</g>
</g>
<!-- Node7&#45;&gt;Node8 -->
<g id="edge8" class="edge">
<title>Node7&#45;&gt;Node8</title>
<path fill="none" stroke="midnightblue" d="M362.09,-364.96C391.08,-354.48 427.41,-341.37 454.52,-331.58"/>
<polygon fill="midnightblue" stroke="midnightblue" points="360.77,-361.71 352.56,-368.4 363.15,-368.29 360.77,-361.71"/>
</g>
<!-- Node8&#45;&gt;Node5 -->
<g id="edge9" class="edge">
<title>Node8&#45;&gt;Node5</title>
<path fill="none" stroke="midnightblue" d="M426.28,-301.96C360.88,-288.79 262.57,-268.98 200.78,-256.54"/>
<polygon fill="midnightblue" stroke="midnightblue" points="425.99,-305.47 436.49,-304.02 427.38,-298.61 425.99,-305.47"/>
</g>
<!-- Node9 -->
<g id="node9" class="node">
<title>Node9</title>
<g id="a_node9"><a xlink:href="rpl_8h.html" target="_top" xlink:title="RPL header. Declaration of global variables and functions needed for core functionality of RPL.">
<polygon fill="none" stroke="black" points="485.5,-229 485.5,-259 599.5,-259 599.5,-229 485.5,-229"/>
<text text-anchor="start" x="493.5" y="-247" font-family="Helvetica,sans-Serif" font-size="10.00">sys/include/net/gnrc</text>
<text text-anchor="middle" x="542.5" y="-236" font-family="Helvetica,sans-Serif" font-size="10.00">/rpl.h</text>
</a>
</g>
</g>
<!-- Node8&#45;&gt;Node9 -->
<g id="edge10" class="edge">
<title>Node8&#45;&gt;Node9</title>
<path fill="none" stroke="midnightblue" d="M509.22,-292.89C516.89,-281.84 525.89,-268.89 532.6,-259.25"/>
<polygon fill="midnightblue" stroke="midnightblue" points="506.25,-291.02 503.42,-301.23 512,-295.02 506.25,-291.02"/>
</g>
<!-- Node11 -->
<g id="node11" class="node">
<title>Node11</title>
<g id="a_node11"><a xlink:href="tcb_8h.html" target="_top" xlink:title="GNRC TCP transmission control block (TCB)">
<polygon fill="none" stroke="black" points="901.5,-229 901.5,-259 1015.5,-259 1015.5,-229 901.5,-229"/>
<text text-anchor="start" x="909.5" y="-247" font-family="Helvetica,sans-Serif" font-size="10.00">sys/include/net/gnrc</text>
<text text-anchor="middle" x="958.5" y="-236" font-family="Helvetica,sans-Serif" font-size="10.00">/tcp/tcb.h</text>
</a>
</g>
</g>
<!-- Node8&#45;&gt;Node11 -->
<g id="edge13" class="edge">
<title>Node8&#45;&gt;Node11</title>
<path fill="none" stroke="midnightblue" d="M560.52,-305.34C652.21,-291.44 815.18,-266.73 901.38,-253.66"/>
<polygon fill="midnightblue" stroke="midnightblue" points="559.88,-301.9 550.52,-306.86 560.93,-308.82 559.88,-301.9"/>
</g>
<!-- Node12 -->
<g id="node12" class="node">
<title>Node12</title>
<g id="a_node12"><a xlink:href="gnrc_2tcp_8h.html" target="_top" xlink:title="GNRC TCP API.">
<polygon fill="none" stroke="black" points="617.5,-151 617.5,-181 731.5,-181 731.5,-151 617.5,-151"/>
<text text-anchor="start" x="625.5" y="-169" font-family="Helvetica,sans-Serif" font-size="10.00">sys/include/net/gnrc</text>
<text text-anchor="middle" x="674.5" y="-158" font-family="Helvetica,sans-Serif" font-size="10.00">/tcp.h</text>
</a>
</g>
</g>
<!-- Node8&#45;&gt;Node12 -->
<g id="edge20" class="edge">
<title>Node8&#45;&gt;Node12</title>
<path fill="none" stroke="midnightblue" d="M550.6,-297.8C570.32,-289.86 591.67,-279.06 608.5,-265 636.99,-241.2 658.19,-202.06 668.16,-181.18"/>
<polygon fill="midnightblue" stroke="midnightblue" points="549.15,-294.61 541.08,-301.47 551.67,-301.14 549.15,-294.61"/>
</g>
<!-- Node18 -->
<g id="node18" class="node">
<title>Node18</title>
<g id="a_node18"><a xlink:href="__nib-internal_8h_source.html" target="_top" xlink:title=" ">
<polygon fill="none" stroke="black" points="310,-223.5 310,-264.5 429,-264.5 429,-223.5 310,-223.5"/>
<text text-anchor="start" x="318" y="-252.5" font-family="Helvetica,sans-Serif" font-size="10.00">sys/net/gnrc/network</text>
<text text-anchor="start" x="318" y="-241.5" font-family="Helvetica,sans-Serif" font-size="10.00">_layer/ipv6/nib/_nib</text>
<text text-anchor="middle" x="369.5" y="-230.5" font-family="Helvetica,sans-Serif" font-size="10.00">&#45;internal.h</text>
</a>
</g>
</g>
<!-- Node8&#45;&gt;Node18 -->
<g id="edge21" class="edge">
<title>Node8&#45;&gt;Node18</title>
<path fill="none" stroke="midnightblue" d="M459.56,-296.2C442.33,-286.41 421.44,-274.53 404.11,-264.68"/>
<polygon fill="midnightblue" stroke="midnightblue" points="458.28,-299.5 468.7,-301.4 461.74,-293.42 458.28,-299.5"/>
</g>
<!-- Node10 -->
<g id="node10" class="node">
<title>Node10</title>
<g id="a_node10"><a xlink:href="dodag_8h.html" target="_top" xlink:title="DODAG&#45;related functions for RPL.">
<polygon fill="none" stroke="black" points="485.5,-151 485.5,-181 599.5,-181 599.5,-151 485.5,-151"/>
<text text-anchor="start" x="493.5" y="-169" font-family="Helvetica,sans-Serif" font-size="10.00">sys/include/net/gnrc</text>
<text text-anchor="middle" x="542.5" y="-158" font-family="Helvetica,sans-Serif" font-size="10.00">/rpl/dodag.h</text>
</a>
</g>
</g>
<!-- Node9&#45;&gt;Node10 -->
<g id="edge11" class="edge">
<title>Node9&#45;&gt;Node10</title>
<path fill="none" stroke="midnightblue" d="M536.15,-218.59C535.39,-206.26 535.71,-191.72 537.1,-181.23"/>
<polygon fill="midnightblue" stroke="midnightblue" points="532.68,-219.07 537.09,-228.7 539.65,-218.42 532.68,-219.07"/>
</g>
<!-- Node10&#45;&gt;Node9 -->
<g id="edge12" class="edge">
<title>Node10&#45;&gt;Node9</title>
<path fill="none" stroke="midnightblue" d="M548.85,-191.33C549.61,-203.66 549.29,-218.2 547.91,-228.7"/>
<polygon fill="midnightblue" stroke="midnightblue" points="552.32,-190.86 547.9,-181.23 545.35,-191.51 552.32,-190.86"/>
</g>
<!-- Node11&#45;&gt;Node12 -->
<g id="edge14" class="edge">
<title>Node11&#45;&gt;Node12</title>
<path fill="none" stroke="midnightblue" d="M891.9,-226.5C848.88,-215.67 791.75,-200.98 741.5,-187 734.83,-185.15 727.81,-183.13 720.93,-181.11"/>
<polygon fill="midnightblue" stroke="midnightblue" points="891.14,-229.92 901.69,-228.96 892.84,-223.13 891.14,-229.92"/>
</g>
<!-- Node13 -->
<g id="node13" class="node">
<title>Node13</title>
<g id="a_node13"><a xlink:href="gnrc__tcp__common_8h.html" target="_top" xlink:title="Internally used defines, macros and variable declarations.">
<polygon fill="none" stroke="black" points="1330,-145.5 1330,-186.5 1457,-186.5 1457,-145.5 1330,-145.5"/>
<text text-anchor="start" x="1338" y="-174.5" font-family="Helvetica,sans-Serif" font-size="10.00">sys/net/gnrc/transport</text>
<text text-anchor="start" x="1338" y="-163.5" font-family="Helvetica,sans-Serif" font-size="10.00">_layer/tcp/include/gnrc</text>
<text text-anchor="middle" x="1393.5" y="-152.5" font-family="Helvetica,sans-Serif" font-size="10.00">_tcp_common.h</text>
</a>
</g>
</g>
<!-- Node11&#45;&gt;Node13 -->
<g id="edge15" class="edge">
<title>Node11&#45;&gt;Node13</title>
<path fill="none" stroke="midnightblue" d="M1025.79,-235.03C1098.99,-225.81 1219.24,-209.01 1321.5,-187 1324.29,-186.4 1327.13,-185.75 1330,-185.08"/>
<polygon fill="midnightblue" stroke="midnightblue" points="1025.27,-231.57 1015.78,-236.28 1026.14,-238.52 1025.27,-231.57"/>
</g>
<!-- Node14 -->
<g id="node14" class="node">
<title>Node14</title>
<g id="a_node14"><a xlink:href="gnrc__tcp__fsm_8h.html" target="_top" xlink:title="TCP finite state maschine declarations.">
<polygon fill="none" stroke="black" points="750,-145.5 750,-186.5 877,-186.5 877,-145.5 750,-145.5"/>
<text text-anchor="start" x="758" y="-174.5" font-family="Helvetica,sans-Serif" font-size="10.00">sys/net/gnrc/transport</text>
<text text-anchor="start" x="758" y="-163.5" font-family="Helvetica,sans-Serif" font-size="10.00">_layer/tcp/include/gnrc</text>
<text text-anchor="middle" x="813.5" y="-152.5" font-family="Helvetica,sans-Serif" font-size="10.00">_tcp_fsm.h</text>
</a>
</g>
</g>
<!-- Node11&#45;&gt;Node14 -->
<g id="edge16" class="edge">
<title>Node11&#45;&gt;Node14</title>
<path fill="none" stroke="midnightblue" d="M922.62,-224.2C900.82,-212.77 873.03,-198.2 850.95,-186.63"/>
<polygon fill="midnightblue" stroke="midnightblue" points="921.08,-227.34 931.57,-228.88 924.33,-221.14 921.08,-227.34"/>
</g>
<!-- Node15 -->
<g id="node15" class="node">
<title>Node15</title>
<g id="a_node15"><a xlink:href="gnrc__tcp__option_8h.html" target="_top" xlink:title="TCP option handling declarations.">
<polygon fill="none" stroke="black" points="895,-145.5 895,-186.5 1022,-186.5 1022,-145.5 895,-145.5"/>
<text text-anchor="start" x="903" y="-174.5" font-family="Helvetica,sans-Serif" font-size="10.00">sys/net/gnrc/transport</text>
<text text-anchor="start" x="903" y="-163.5" font-family="Helvetica,sans-Serif" font-size="10.00">_layer/tcp/include/gnrc</text>
<text text-anchor="middle" x="958.5" y="-152.5" font-family="Helvetica,sans-Serif" font-size="10.00">_tcp_option.h</text>
</a>
</g>
</g>
<!-- Node11&#45;&gt;Node15 -->
<g id="edge17" class="edge">
<title>Node11&#45;&gt;Node15</title>
<path fill="none" stroke="midnightblue" d="M958.5,-218.66C958.5,-208.33 958.5,-196.44 958.5,-186.68"/>
<polygon fill="midnightblue" stroke="midnightblue" points="955,-218.7 958.5,-228.7 962,-218.71 955,-218.7"/>
</g>
<!-- Node16 -->
<g id="node16" class="node">
<title>Node16</title>
<g id="a_node16"><a xlink:href="gnrc__tcp__pkt_8h.html" target="_top" xlink:title="TCP packet handling declarations.">
<polygon fill="none" stroke="black" points="1040,-145.5 1040,-186.5 1167,-186.5 1167,-145.5 1040,-145.5"/>
<text text-anchor="start" x="1048" y="-174.5" font-family="Helvetica,sans-Serif" font-size="10.00">sys/net/gnrc/transport</text>
<text text-anchor="start" x="1048" y="-163.5" font-family="Helvetica,sans-Serif" font-size="10.00">_layer/tcp/include/gnrc</text>
<text text-anchor="middle" x="1103.5" y="-152.5" font-family="Helvetica,sans-Serif" font-size="10.00">_tcp_pkt.h</text>
</a>
</g>
</g>
<!-- Node11&#45;&gt;Node16 -->
<g id="edge18" class="edge">
<title>Node11&#45;&gt;Node16</title>
<path fill="none" stroke="midnightblue" d="M994.38,-224.2C1016.18,-212.77 1043.97,-198.2 1066.05,-186.63"/>
<polygon fill="midnightblue" stroke="midnightblue" points="992.67,-221.14 985.43,-228.88 995.92,-227.34 992.67,-221.14"/>
</g>
<!-- Node17 -->
<g id="node17" class="node">
<title>Node17</title>
<g id="a_node17"><a xlink:href="gnrc__tcp__rcvbuf_8h.html" target="_top" xlink:title="Functions for allocating and freeing the receive buffer.">
<polygon fill="none" stroke="black" points="1185,-145.5 1185,-186.5 1312,-186.5 1312,-145.5 1185,-145.5"/>
<text text-anchor="start" x="1193" y="-174.5" font-family="Helvetica,sans-Serif" font-size="10.00">sys/net/gnrc/transport</text>
<text text-anchor="start" x="1193" y="-163.5" font-family="Helvetica,sans-Serif" font-size="10.00">_layer/tcp/include/gnrc</text>
<text text-anchor="middle" x="1248.5" y="-152.5" font-family="Helvetica,sans-Serif" font-size="10.00">_tcp_rcvbuf.h</text>
</a>
</g>
</g>
<!-- Node11&#45;&gt;Node17 -->
<g id="edge19" class="edge">
<title>Node11&#45;&gt;Node17</title>
<path fill="none" stroke="midnightblue" d="M1024.43,-226.42C1067.71,-215.45 1125.54,-200.62 1176.5,-187 1179.26,-186.26 1182.07,-185.5 1184.92,-184.73"/>
<polygon fill="midnightblue" stroke="midnightblue" points="1023.42,-223.07 1014.58,-228.91 1025.14,-229.85 1023.42,-223.07"/>
</g>
<!-- Node18&#45;&gt;Node19 -->
<g id="edge22" class="edge">
<title>Node18&#45;&gt;Node19</title>
<path fill="none" stroke="midnightblue" d="M314.68,-219.33C290.26,-208.78 261.85,-196.51 238.67,-186.51"/>
<polygon fill="midnightblue" stroke="midnightblue" points="313.61,-222.68 324.18,-223.43 316.38,-216.25 313.61,-222.68"/>
</g>
<!-- Node20 -->
<g id="node20" class="node">
<title>Node20</title>
<g id="a_node20"><a xlink:href="__nib-6ln_8h.html" target="_top" xlink:title="Definitions related to 6Lo node (6LN) functionality of the NIB.">
<polygon fill="none" stroke="black" points="216.5,-73 216.5,-103 356.5,-103 356.5,-73 216.5,-73"/>
<text text-anchor="start" x="224.5" y="-91" font-family="Helvetica,sans-Serif" font-size="10.00">sys/net/gnrc/network</text>
<text text-anchor="middle" x="286.5" y="-80" font-family="Helvetica,sans-Serif" font-size="10.00">_layer/ipv6/nib/_nib&#45;6ln.h</text>
</a>
</g>
</g>
<!-- Node18&#45;&gt;Node20 -->
<g id="edge26" class="edge">
<title>Node18&#45;&gt;Node20</title>
<path fill="none" stroke="midnightblue" d="M327.59,-217.23C317.17,-208.85 307.11,-198.66 300.5,-187 285.42,-160.38 284.54,-123.4 285.41,-103.34"/>
<polygon fill="midnightblue" stroke="midnightblue" points="325.49,-220.03 335.57,-223.28 329.72,-214.46 325.49,-220.03"/>
</g>
<!-- Node21 -->
<g id="node21" class="node">
<title>Node21</title>
<g id="a_node21"><a xlink:href="__nib-6lr_8h.html" target="_top" xlink:title="Definitions related to 6Lo router (6LR) functionality of the NIB.">
<polygon fill="none" stroke="black" points="218,-0.5 218,-30.5 355,-30.5 355,-0.5 218,-0.5"/>
<text text-anchor="start" x="226" y="-18.5" font-family="Helvetica,sans-Serif" font-size="10.00">sys/net/gnrc/network</text>
<text text-anchor="middle" x="286.5" y="-7.5" font-family="Helvetica,sans-Serif" font-size="10.00">_layer/ipv6/nib/_nib&#45;6lr.h</text>
</a>
</g>
</g>
<!-- Node18&#45;&gt;Node21 -->
<g id="edge27" class="edge">
<title>Node18&#45;&gt;Node21</title>
<path fill="none" stroke="midnightblue" d="M412.48,-217.22C422.54,-208.93 431.94,-198.79 437.5,-187 445.47,-170.12 444.3,-162.39 437.5,-145 415.75,-89.38 354.12,-50.13 316.66,-30.6"/>
<polygon fill="midnightblue" stroke="midnightblue" points="410.14,-214.61 404.34,-223.47 414.4,-220.16 410.14,-214.61"/>
</g>
<!-- Node22 -->
<g id="node22" class="node">
<title>Node22</title>
<g id="a_node22"><a xlink:href="__nib-router_8h_source.html" target="_top" xlink:title=" ">
<polygon fill="none" stroke="black" points="310,-145.5 310,-186.5 429,-186.5 429,-145.5 310,-145.5"/>
<text text-anchor="start" x="318" y="-174.5" font-family="Helvetica,sans-Serif" font-size="10.00">sys/net/gnrc/network</text>
<text text-anchor="start" x="318" y="-163.5" font-family="Helvetica,sans-Serif" font-size="10.00">_layer/ipv6/nib/_nib</text>
<text text-anchor="middle" x="369.5" y="-152.5" font-family="Helvetica,sans-Serif" font-size="10.00">&#45;router.h</text>
</a>
</g>
</g>
<!-- Node18&#45;&gt;Node22 -->
<g id="edge28" class="edge">
<title>Node18&#45;&gt;Node22</title>
<path fill="none" stroke="midnightblue" d="M369.5,-213.3C369.5,-204.3 369.5,-194.65 369.5,-186.51"/>
<polygon fill="midnightblue" stroke="midnightblue" points="366,-213.43 369.5,-223.43 373,-213.43 366,-213.43"/>
</g>
<!-- Node19&#45;&gt;Node20 -->
<g id="edge23" class="edge">
<title>Node19&#45;&gt;Node20</title>
<path fill="none" stroke="midnightblue" d="M225.33,-138.99C239.98,-127.02 256.8,-113.27 269.09,-103.23"/>
<polygon fill="midnightblue" stroke="midnightblue" points="222.98,-136.39 217.45,-145.43 227.41,-141.81 222.98,-136.39"/>
</g>
<!-- Node19&#45;&gt;Node21 -->
<g id="edge25" class="edge">
<title>Node19&#45;&gt;Node21</title>
<path fill="none" stroke="midnightblue" d="M191.5,-135.18C191.52,-114.51 194.51,-87.18 207.5,-67 217.9,-50.85 235.49,-38.86 251.44,-30.62"/>
<polygon fill="midnightblue" stroke="midnightblue" points="188,-135.39 191.71,-145.31 195,-135.24 188,-135.39"/>
</g>
<!-- Node20&#45;&gt;Node21 -->
<g id="edge24" class="edge">
<title>Node20&#45;&gt;Node21</title>
<path fill="none" stroke="midnightblue" d="M286.5,-62.73C286.5,-52.07 286.5,-39.91 286.5,-30.75"/>
<polygon fill="midnightblue" stroke="midnightblue" points="283,-62.73 286.5,-72.73 290,-62.73 283,-62.73"/>
</g>
<!-- Node23&#45;&gt;Node8 -->
<g id="edge30" class="edge">
<title>Node23&#45;&gt;Node8</title>
<path fill="none" stroke="midnightblue" d="M462,-360.16C469,-350.68 476.94,-339.92 483.11,-331.58"/>
<polygon fill="midnightblue" stroke="midnightblue" points="459.04,-358.27 455.92,-368.4 464.67,-362.43 459.04,-358.27"/>
</g>
<!-- Node26&#45;&gt;Node8 -->
<g id="edge34" class="edge">
<title>Node26&#45;&gt;Node8</title>
<path fill="none" stroke="midnightblue" d="M562.02,-367.54C547.21,-356.73 527.32,-342.2 512.79,-331.59"/>
<polygon fill="midnightblue" stroke="midnightblue" points="560.36,-370.66 570.5,-373.73 564.49,-365.01 560.36,-370.66"/>
</g>
</g>
</svg>
