<?xml version="1.0" encoding="UTF-8" standalone="no"?>
<!DOCTYPE svg PUBLIC "-//W3C//DTD SVG 1.1//EN"
 "http://www.w3.org/Graphics/SVG/1.1/DTD/svg11.dtd">
<!-- Generated by graphviz version 2.40.1 (20161225.0304)
 -->
<!-- Title: sys/include/net/ipv4/hdr.h Pages: 1 -->
<svg width="186pt" height="207pt"
 viewBox="0.00 0.00 185.50 207.00" xmlns="http://www.w3.org/2000/svg" xmlns:xlink="http://www.w3.org/1999/xlink">
<g id="graph0" class="graph" transform="scale(1 1) rotate(0) translate(4 203)">
<title>sys/include/net/ipv4/hdr.h</title>
<!-- Node0 -->
<g id="node1" class="node">
<title>Node0</title>
<polygon fill="#bfbfbf" stroke="#000000" points="10.5,-168.5 10.5,-198.5 114.5,-198.5 114.5,-168.5 10.5,-168.5"/>
<text text-anchor="start" x="18.5" y="-186.5" font-family="Helvetica,sans-Serif" font-size="10.00" fill="#000000">sys/include/net/ipv4</text>
<text text-anchor="middle" x="62.5" y="-175.5" font-family="Helvetica,sans-Serif" font-size="10.00" fill="#000000">/hdr.h</text>
</g>
<!-- Node1 -->
<g id="node2" class="node">
<title>Node1</title>
<g id="a_node2"><a xlink:href="byteorder_8h.html" target="_top" xlink:title="Functions to work with different byte orders. ">
<polygon fill="none" stroke="#000000" points="0,-56.5 0,-75.5 65,-75.5 65,-56.5 0,-56.5"/>
<text text-anchor="middle" x="32.5" y="-63.5" font-family="Helvetica,sans-Serif" font-size="10.00" fill="#000000">byteorder.h</text>
</a>
</g>
</g>
<!-- Node0&#45;&gt;Node1 -->
<g id="edge1" class="edge">
<title>Node0&#45;&gt;Node1</title>
<path fill="none" stroke="#191970" d="M57.7956,-168.2427C54.7106,-158.0288 50.6757,-144.2604 47.5,-132 43.4948,-116.5369 39.5136,-98.886 36.6603,-85.7308"/>
<polygon fill="#191970" stroke="#191970" points="40.0684,-84.9306 34.5531,-75.8845 33.2234,-86.3956 40.0684,-84.9306"/>
</g>
<!-- Node3 -->
<g id="node4" class="node">
<title>Node3</title>
<g id="a_node4"><a xlink:href="ipv4_2addr_8h.html" target="_top" xlink:title="IPv6 address type and helper functions definitions. ">
<polygon fill="none" stroke="#000000" points="57,-112.5 57,-131.5 138,-131.5 138,-112.5 57,-112.5"/>
<text text-anchor="middle" x="97.5" y="-119.5" font-family="Helvetica,sans-Serif" font-size="10.00" fill="#000000">net/ipv4/addr.h</text>
</a>
</g>
</g>
<!-- Node0&#45;&gt;Node3 -->
<g id="edge3" class="edge">
<title>Node0&#45;&gt;Node3</title>
<path fill="none" stroke="#191970" d="M71.1517,-168.2977C75.9088,-159.9388 81.8498,-149.4997 86.8857,-140.6509"/>
<polygon fill="#191970" stroke="#191970" points="89.9917,-142.2692 91.8961,-131.8469 83.9079,-138.8069 89.9917,-142.2692"/>
</g>
<!-- Node2 -->
<g id="node3" class="node">
<title>Node2</title>
<polygon fill="none" stroke="#bfbfbf" points="38,-.5 38,-19.5 87,-19.5 87,-.5 38,-.5"/>
<text text-anchor="middle" x="62.5" y="-7.5" font-family="Helvetica,sans-Serif" font-size="10.00" fill="#000000">stdint.h</text>
</g>
<!-- Node1&#45;&gt;Node2 -->
<g id="edge2" class="edge">
<title>Node1&#45;&gt;Node2</title>
<path fill="none" stroke="#191970" d="M37.7256,-56.2455C41.8123,-48.617 47.6135,-37.7881 52.575,-28.5267"/>
<polygon fill="#191970" stroke="#191970" points="55.6972,-30.1103 57.3343,-19.6427 49.5268,-26.8047 55.6972,-30.1103"/>
</g>
<!-- Node3&#45;&gt;Node1 -->
<g id="edge6" class="edge">
<title>Node3&#45;&gt;Node1</title>
<path fill="none" stroke="#191970" d="M86.1779,-112.2455C76.5777,-103.9746 62.6108,-91.9416 51.3305,-82.2232"/>
<polygon fill="#191970" stroke="#191970" points="53.553,-79.5182 43.6924,-75.6427 48.984,-84.8214 53.553,-79.5182"/>
</g>
<!-- Node3&#45;&gt;Node2 -->
<g id="edge5" class="edge">
<title>Node3&#45;&gt;Node2</title>
<path fill="none" stroke="#191970" d="M94.5159,-112.4509C88.7817,-94.1013 76.1221,-53.5908 68.5529,-29.3693"/>
<polygon fill="#191970" stroke="#191970" points="71.8,-28.0257 65.4765,-19.5249 65.1187,-30.1137 71.8,-28.0257"/>
</g>
<!-- Node4 -->
<g id="node5" class="node">
<title>Node4</title>
<polygon fill="none" stroke="#bfbfbf" points="121.5,-56.5 121.5,-75.5 177.5,-75.5 177.5,-56.5 121.5,-56.5"/>
<text text-anchor="middle" x="149.5" y="-63.5" font-family="Helvetica,sans-Serif" font-size="10.00" fill="#000000">stdbool.h</text>
</g>
<!-- Node3&#45;&gt;Node4 -->
<g id="edge4" class="edge">
<title>Node3&#45;&gt;Node4</title>
<path fill="none" stroke="#191970" d="M106.5577,-112.2455C114.0142,-104.2155 124.7634,-92.6394 133.6417,-83.0781"/>
<polygon fill="#191970" stroke="#191970" points="136.3063,-85.3522 140.5461,-75.6427 131.1768,-80.589 136.3063,-85.3522"/>
</g>
</g>
</svg>
