<?xml version="1.0" encoding="UTF-8" standalone="no"?>
<!DOCTYPE svg PUBLIC "-//W3C//DTD SVG 1.1//EN"
 "http://www.w3.org/Graphics/SVG/1.1/DTD/svg11.dtd">
<!-- Generated by graphviz version 2.40.1 (20161225.0304)
 -->
<!-- Title: sys/include/net/gnrc/netreg.h Pages: 1 -->
<svg width="698pt" height="263pt"
 viewBox="0.00 0.00 698.00 263.00" xmlns="http://www.w3.org/2000/svg" xmlns:xlink="http://www.w3.org/1999/xlink">
<g id="graph0" class="graph" transform="scale(1 1) rotate(0) translate(4 259)">
<title>sys/include/net/gnrc/netreg.h</title>
<!-- Node0 -->
<g id="node1" class="node">
<title>Node0</title>
<polygon fill="#bfbfbf" stroke="#000000" points="246.5,-224.5 246.5,-254.5 350.5,-254.5 350.5,-224.5 246.5,-224.5"/>
<text text-anchor="start" x="254.5" y="-242.5" font-family="Helvetica,sans-Serif" font-size="10.00" fill="#000000">sys/include/net/gnrc</text>
<text text-anchor="middle" x="298.5" y="-231.5" font-family="Helvetica,sans-Serif" font-size="10.00" fill="#000000">/netreg.h</text>
</g>
<!-- Node1 -->
<g id="node2" class="node">
<title>Node1</title>
<g id="a_node2"><a xlink:href="inttypes_8h.html" target="_top" xlink:title="Adds include for missing inttype definitions. ">
<polygon fill="none" stroke="#000000" points="258,-56.5 258,-75.5 317,-75.5 317,-56.5 258,-56.5"/>
<text text-anchor="middle" x="287.5" y="-63.5" font-family="Helvetica,sans-Serif" font-size="10.00" fill="#000000">inttypes.h</text>
</a>
</g>
</g>
<!-- Node0&#45;&gt;Node1 -->
<g id="edge1" class="edge">
<title>Node0&#45;&gt;Node1</title>
<path fill="none" stroke="#191970" d="M293.2545,-224.3942C290.0144,-214.2442 286.1674,-200.4902 284.5,-188 279.7078,-152.1037 282.6525,-109.7534 285.1388,-85.5708"/>
<polygon fill="#191970" stroke="#191970" points="288.6268,-85.8717 286.253,-75.5462 281.6696,-85.0983 288.6268,-85.8717"/>
</g>
<!-- Node2 -->
<g id="node3" class="node">
<title>Node2</title>
<g id="a_node3"><a xlink:href="kernel__types_8h.html" target="_top" xlink:title="Types used by the kernel. ">
<polygon fill="none" stroke="#000000" points="157.5,-112.5 157.5,-131.5 237.5,-131.5 237.5,-112.5 157.5,-112.5"/>
<text text-anchor="middle" x="197.5" y="-119.5" font-family="Helvetica,sans-Serif" font-size="10.00" fill="#000000">kernel_types.h</text>
</a>
</g>
</g>
<!-- Node0&#45;&gt;Node2 -->
<g id="edge2" class="edge">
<title>Node0&#45;&gt;Node2</title>
<path fill="none" stroke="#191970" d="M284.2962,-224.371C274.8567,-214.2112 262.2648,-200.455 251.5,-188 237.523,-171.8286 222.1361,-152.9057 211.3749,-139.4782"/>
<polygon fill="#191970" stroke="#191970" points="214.0064,-137.1644 205.0326,-131.5321 208.5354,-141.5312 214.0064,-137.1644"/>
</g>
<!-- Node7 -->
<g id="node8" class="node">
<title>Node7</title>
<g id="a_node8"><a xlink:href="nettype_8h.html" target="_top" xlink:title="Protocol type definitions. ">
<polygon fill="none" stroke="#000000" points="346,-112.5 346,-131.5 441,-131.5 441,-112.5 346,-112.5"/>
<text text-anchor="middle" x="393.5" y="-119.5" font-family="Helvetica,sans-Serif" font-size="10.00" fill="#000000">net/gnrc/nettype.h</text>
</a>
</g>
</g>
<!-- Node0&#45;&gt;Node7 -->
<g id="edge8" class="edge">
<title>Node0&#45;&gt;Node7</title>
<path fill="none" stroke="#191970" d="M334.7894,-224.3874C350.8134,-215.943 368.4778,-203.8801 379.5,-188 388.8807,-174.4848 392.1822,-155.933 393.2515,-141.9393"/>
<polygon fill="#191970" stroke="#191970" points="396.7511,-142.0244 393.7039,-131.8773 389.7581,-141.7099 396.7511,-142.0244"/>
</g>
<!-- Node11 -->
<g id="node12" class="node">
<title>Node11</title>
<g id="a_node12"><a xlink:href="include_2net_2gnrc_2pkt_8h.html" target="_top" xlink:title="General definitions for network packets and their helper functions. ">
<polygon fill="none" stroke="#000000" points="294,-168.5 294,-187.5 371,-187.5 371,-168.5 294,-168.5"/>
<text text-anchor="middle" x="332.5" y="-175.5" font-family="Helvetica,sans-Serif" font-size="10.00" fill="#000000">net/gnrc/pkt.h</text>
</a>
</g>
</g>
<!-- Node0&#45;&gt;Node11 -->
<g id="edge14" class="edge">
<title>Node0&#45;&gt;Node11</title>
<path fill="none" stroke="#191970" d="M306.9045,-224.2977C311.5257,-215.9388 317.2969,-205.4997 322.1889,-196.6509"/>
<polygon fill="#191970" stroke="#191970" points="325.2809,-198.292 327.0562,-187.8469 319.1548,-194.9051 325.2809,-198.292"/>
</g>
<!-- Node2&#45;&gt;Node1 -->
<g id="edge4" class="edge">
<title>Node2&#45;&gt;Node1</title>
<path fill="none" stroke="#191970" d="M213.1768,-112.2455C226.9856,-103.6534 247.3193,-91.0014 263.2292,-81.1018"/>
<polygon fill="#191970" stroke="#191970" points="265.3613,-83.8974 272.0028,-75.6427 261.6632,-77.954 265.3613,-83.8974"/>
</g>
<!-- Node3 -->
<g id="node4" class="node">
<title>Node3</title>
<polygon fill="none" stroke="#bfbfbf" points="0,-56.5 0,-75.5 49,-75.5 49,-56.5 0,-56.5"/>
<text text-anchor="middle" x="24.5" y="-63.5" font-family="Helvetica,sans-Serif" font-size="10.00" fill="#000000">stdint.h</text>
</g>
<!-- Node2&#45;&gt;Node3 -->
<g id="edge3" class="edge">
<title>Node2&#45;&gt;Node3</title>
<path fill="none" stroke="#191970" d="M167.7602,-112.3733C137.511,-102.5816 90.6813,-87.4229 58.8637,-77.1235"/>
<polygon fill="#191970" stroke="#191970" points="59.6927,-73.7131 49.1008,-73.9633 57.5369,-80.3729 59.6927,-73.7131"/>
</g>
<!-- Node4 -->
<g id="node5" class="node">
<title>Node4</title>
<polygon fill="none" stroke="#bfbfbf" points="67.5,-56.5 67.5,-75.5 115.5,-75.5 115.5,-56.5 67.5,-56.5"/>
<text text-anchor="middle" x="91.5" y="-63.5" font-family="Helvetica,sans-Serif" font-size="10.00" fill="#000000">limits.h</text>
</g>
<!-- Node2&#45;&gt;Node4 -->
<g id="edge5" class="edge">
<title>Node2&#45;&gt;Node4</title>
<path fill="none" stroke="#191970" d="M179.0362,-112.2455C162.3926,-103.4527 137.7007,-90.4079 118.7808,-80.4125"/>
<polygon fill="#191970" stroke="#191970" points="120.2291,-77.2193 109.7522,-75.6427 116.9592,-83.4086 120.2291,-77.2193"/>
</g>
<!-- Node5 -->
<g id="node6" class="node">
<title>Node5</title>
<polygon fill="none" stroke="#bfbfbf" points="235.5,-.5 235.5,-19.5 287.5,-19.5 287.5,-.5 235.5,-.5"/>
<text text-anchor="middle" x="261.5" y="-7.5" font-family="Helvetica,sans-Serif" font-size="10.00" fill="#000000">stddef.h</text>
</g>
<!-- Node2&#45;&gt;Node5 -->
<g id="edge6" class="edge">
<title>Node2&#45;&gt;Node5</title>
<path fill="none" stroke="#191970" d="M185.7853,-112.3302C171.3692,-99.2226 150.222,-75.2436 162.5,-56 176.2905,-34.3858 203.1519,-22.7698 225.4188,-16.6208"/>
<polygon fill="#191970" stroke="#191970" points="226.4079,-19.9814 235.2627,-14.164 224.7128,-13.1897 226.4079,-19.9814"/>
</g>
<!-- Node6 -->
<g id="node7" class="node">
<title>Node6</title>
<polygon fill="none" stroke="#bfbfbf" points="171.5,-56.5 171.5,-75.5 239.5,-75.5 239.5,-56.5 171.5,-56.5"/>
<text text-anchor="middle" x="205.5" y="-63.5" font-family="Helvetica,sans-Serif" font-size="10.00" fill="#000000">sys/types.h</text>
</g>
<!-- Node2&#45;&gt;Node6 -->
<g id="edge7" class="edge">
<title>Node2&#45;&gt;Node6</title>
<path fill="none" stroke="#191970" d="M198.8935,-112.2455C199.9374,-104.9382 201.4008,-94.6944 202.6851,-85.7046"/>
<polygon fill="#191970" stroke="#191970" points="206.173,-86.0372 204.1225,-75.6427 199.2434,-85.0472 206.173,-86.0372"/>
</g>
<!-- Node7&#45;&gt;Node1 -->
<g id="edge9" class="edge">
<title>Node7&#45;&gt;Node1</title>
<path fill="none" stroke="#191970" d="M375.0362,-112.2455C358.3926,-103.4527 333.7007,-90.4079 314.7808,-80.4125"/>
<polygon fill="#191970" stroke="#191970" points="316.2291,-77.2193 305.7522,-75.6427 312.9592,-83.4086 316.2291,-77.2193"/>
</g>
<!-- Node8 -->
<g id="node9" class="node">
<title>Node8</title>
<g id="a_node9"><a xlink:href="kernel__defines_8h.html" target="_top" xlink:title="Common macros and compiler attributes/pragmas configuration. ">
<polygon fill="none" stroke="#000000" points="335.5,-56.5 335.5,-75.5 423.5,-75.5 423.5,-56.5 335.5,-56.5"/>
<text text-anchor="middle" x="379.5" y="-63.5" font-family="Helvetica,sans-Serif" font-size="10.00" fill="#000000">kernel_defines.h</text>
</a>
</g>
</g>
<!-- Node7&#45;&gt;Node8 -->
<g id="edge10" class="edge">
<title>Node7&#45;&gt;Node8</title>
<path fill="none" stroke="#191970" d="M391.0614,-112.2455C389.2145,-104.8579 386.6172,-94.4689 384.3522,-85.4087"/>
<polygon fill="#191970" stroke="#191970" points="387.7316,-84.4952 381.9107,-75.6427 380.9406,-86.193 387.7316,-84.4952"/>
</g>
<!-- Node9 -->
<g id="node10" class="node">
<title>Node9</title>
<g id="a_node10"><a xlink:href="ethertype_8h.html" target="_top" xlink:title="Ether type definitions. ">
<polygon fill="none" stroke="#000000" points="441.5,-56.5 441.5,-75.5 523.5,-75.5 523.5,-56.5 441.5,-56.5"/>
<text text-anchor="middle" x="482.5" y="-63.5" font-family="Helvetica,sans-Serif" font-size="10.00" fill="#000000">net/ethertype.h</text>
</a>
</g>
</g>
<!-- Node7&#45;&gt;Node9 -->
<g id="edge12" class="edge">
<title>Node7&#45;&gt;Node9</title>
<path fill="none" stroke="#191970" d="M409.0026,-112.2455C422.658,-103.6534 442.7657,-91.0014 458.4989,-81.1018"/>
<polygon fill="#191970" stroke="#191970" points="460.5751,-83.9307 467.175,-75.6427 456.8471,-78.006 460.5751,-83.9307"/>
</g>
<!-- Node10 -->
<g id="node11" class="node">
<title>Node10</title>
<g id="a_node11"><a xlink:href="protnum_8h.html" target="_top" xlink:title="Protocol number definitions. ">
<polygon fill="none" stroke="#000000" points="542,-56.5 542,-75.5 619,-75.5 619,-56.5 542,-56.5"/>
<text text-anchor="middle" x="580.5" y="-63.5" font-family="Helvetica,sans-Serif" font-size="10.00" fill="#000000">net/protnum.h</text>
</a>
</g>
</g>
<!-- Node7&#45;&gt;Node10 -->
<g id="edge13" class="edge">
<title>Node7&#45;&gt;Node10</title>
<path fill="none" stroke="#191970" d="M425.6464,-112.3733C457.0109,-102.9807 504.8665,-88.6496 539.0716,-78.4064"/>
<polygon fill="#191970" stroke="#191970" points="540.1975,-81.7229 548.773,-75.5011 538.1893,-75.0171 540.1975,-81.7229"/>
</g>
<!-- Node8&#45;&gt;Node5 -->
<g id="edge11" class="edge">
<title>Node8&#45;&gt;Node5</title>
<path fill="none" stroke="#191970" d="M359.2151,-56.3733C340.3579,-47.4241 312.054,-33.9917 290.7545,-23.8835"/>
<polygon fill="#191970" stroke="#191970" points="292.0551,-20.6266 281.5202,-19.5011 289.0539,-26.9506 292.0551,-20.6266"/>
</g>
<!-- Node11&#45;&gt;Node1 -->
<g id="edge15" class="edge">
<title>Node11&#45;&gt;Node1</title>
<path fill="none" stroke="#191970" d="M328.6633,-168.4509C321.2575,-150.0186 304.8673,-109.2254 295.1512,-85.043"/>
<polygon fill="#191970" stroke="#191970" points="298.3029,-83.499 291.327,-75.5249 291.8075,-86.1088 298.3029,-83.499"/>
</g>
<!-- Node11&#45;&gt;Node2 -->
<g id="edge19" class="edge">
<title>Node11&#45;&gt;Node2</title>
<path fill="none" stroke="#191970" d="M309.2927,-168.3733C287.3301,-159.2629 254.1668,-145.5062 229.6599,-135.3404"/>
<polygon fill="#191970" stroke="#191970" points="230.9824,-132.0999 220.4045,-131.5011 228.3003,-138.5657 230.9824,-132.0999"/>
</g>
<!-- Node11&#45;&gt;Node7 -->
<g id="edge20" class="edge">
<title>Node11&#45;&gt;Node7</title>
<path fill="none" stroke="#191970" d="M343.1254,-168.2455C352.0473,-160.0549 364.988,-148.1749 375.5192,-138.5069"/>
<polygon fill="#191970" stroke="#191970" points="377.9968,-140.9837 382.9964,-131.6427 373.2629,-135.8271 377.9968,-140.9837"/>
</g>
<!-- Node12 -->
<g id="node13" class="node">
<title>Node12</title>
<g id="a_node13"><a xlink:href="stdlib_8h.html" target="_top" xlink:title="stdlib.h wrapper for MSP430 ">
<polygon fill="none" stroke="#000000" points="639.5,-112.5 639.5,-131.5 687.5,-131.5 687.5,-112.5 639.5,-112.5"/>
<text text-anchor="middle" x="663.5" y="-119.5" font-family="Helvetica,sans-Serif" font-size="10.00" fill="#000000">stdlib.h</text>
</a>
</g>
</g>
<!-- Node11&#45;&gt;Node12 -->
<g id="edge16" class="edge">
<title>Node11&#45;&gt;Node12</title>
<path fill="none" stroke="#191970" d="M371.1177,-171.4665C436.2463,-160.4478 566.8911,-138.3447 629.0772,-127.8238"/>
<polygon fill="#191970" stroke="#191970" points="629.8806,-131.2377 639.1566,-126.1185 628.7128,-124.3358 629.8806,-131.2377"/>
</g>
<!-- Node13 -->
<g id="node14" class="node">
<title>Node13</title>
<g id="a_node14"><a xlink:href="malloc_8h.html" target="_top" xlink:title="malloc.h">
<polygon fill="none" stroke="#000000" points="637,-56.5 637,-75.5 690,-75.5 690,-56.5 637,-56.5"/>
<text text-anchor="middle" x="663.5" y="-63.5" font-family="Helvetica,sans-Serif" font-size="10.00" fill="#000000">malloc.h</text>
</a>
</g>
</g>
<!-- Node12&#45;&gt;Node13 -->
<g id="edge17" class="edge">
<title>Node12&#45;&gt;Node13</title>
<path fill="none" stroke="#191970" d="M658.2332,-112.2455C656.8221,-104.9382 656.4179,-94.6944 657.0205,-85.7046"/>
<polygon fill="#191970" stroke="#191970" points="660.5111,-85.9945 658.2549,-75.6427 653.5632,-85.1421 660.5111,-85.9945"/>
</g>
<!-- Node13&#45;&gt;Node12 -->
<g id="edge18" class="edge">
<title>Node13&#45;&gt;Node12</title>
<path fill="none" stroke="#191970" d="M668.7451,-75.6427C670.1665,-82.9199 670.581,-93.155 669.9887,-102.1575"/>
<polygon fill="#191970" stroke="#191970" points="666.4947,-101.8972 668.7668,-112.2455 673.4439,-102.739 666.4947,-101.8972"/>
</g>
</g>
</svg>
