<?xml version="1.0" encoding="UTF-8" standalone="no"?>
<!DOCTYPE svg PUBLIC "-//W3C//DTD SVG 1.1//EN"
 "http://www.w3.org/Graphics/SVG/1.1/DTD/svg11.dtd">
<!-- Generated by graphviz version 2.43.0 (0)
 -->
<!-- Title: sys/include/net/gnrc/nettype.h Pages: 1 -->
<svg width="403pt" height="151pt"
 viewBox="0.00 0.00 402.50 151.00" xmlns="http://www.w3.org/2000/svg" xmlns:xlink="http://www.w3.org/1999/xlink">
<g id="graph0" class="graph" transform="scale(1 1) rotate(0) translate(4 147)">
<title>sys/include/net/gnrc/nettype.h</title>
<!-- Node1 -->
<g id="node1" class="node">
<title>Node1</title>
<g id="a_node1"><a xlink:title="Protocol type definitions.">
<polygon fill="#bfbfbf" stroke="black" points="130.5,-112.5 130.5,-142.5 244.5,-142.5 244.5,-112.5 130.5,-112.5"/>
<text text-anchor="start" x="138.5" y="-130.5" font-family="Helvetica,sans-Serif" font-size="10.00">sys/include/net/gnrc</text>
<text text-anchor="middle" x="187.5" y="-119.5" font-family="Helvetica,sans-Serif" font-size="10.00">/nettype.h</text>
</a>
</g>
</g>
<!-- Node2 -->
<g id="node2" class="node">
<title>Node2</title>
<g id="a_node2"><a xlink:href="inttypes_8h.html" target="_top" xlink:title="Adds include for missing inttype definitions.">
<polygon fill="none" stroke="black" points="0,-56.5 0,-75.5 65,-75.5 65,-56.5 0,-56.5"/>
<text text-anchor="middle" x="32.5" y="-63.5" font-family="Helvetica,sans-Serif" font-size="10.00">inttypes.h</text>
</a>
</g>
</g>
<!-- Node1&#45;&gt;Node2 -->
<g id="edge1" class="edge">
<title>Node1&#45;&gt;Node2</title>
<path fill="none" stroke="midnightblue" d="M150.77,-112.4C124.53,-102.33 89.57,-88.91 64.48,-79.28"/>
<polygon fill="midnightblue" stroke="midnightblue" points="65.64,-75.97 55.05,-75.66 63.14,-82.51 65.64,-75.97"/>
</g>
<!-- Node3 -->
<g id="node3" class="node">
<title>Node3</title>
<g id="a_node3"><a xlink:href="kernel__defines_8h.html" target="_top" xlink:title="Common macros and compiler attributes/pragmas configuration.">
<polygon fill="none" stroke="black" points="83,-56.5 83,-75.5 180,-75.5 180,-56.5 83,-56.5"/>
<text text-anchor="middle" x="131.5" y="-63.5" font-family="Helvetica,sans-Serif" font-size="10.00">kernel_defines.h</text>
</a>
</g>
</g>
<!-- Node1&#45;&gt;Node3 -->
<g id="edge2" class="edge">
<title>Node1&#45;&gt;Node3</title>
<path fill="none" stroke="midnightblue" d="M174.23,-112.4C165.92,-103.58 155.2,-92.18 146.58,-83.02"/>
<polygon fill="midnightblue" stroke="midnightblue" points="149.05,-80.54 139.65,-75.66 143.95,-85.34 149.05,-80.54"/>
</g>
<!-- Node6 -->
<g id="node6" class="node">
<title>Node6</title>
<g id="a_node6"><a xlink:href="ethertype_8h.html" target="_top" xlink:title="Ether type definitions.">
<polygon fill="none" stroke="black" points="198.5,-56.5 198.5,-75.5 290.5,-75.5 290.5,-56.5 198.5,-56.5"/>
<text text-anchor="middle" x="244.5" y="-63.5" font-family="Helvetica,sans-Serif" font-size="10.00">net/ethertype.h</text>
</a>
</g>
</g>
<!-- Node1&#45;&gt;Node6 -->
<g id="edge5" class="edge">
<title>Node1&#45;&gt;Node6</title>
<path fill="none" stroke="midnightblue" d="M201.01,-112.4C209.46,-103.58 220.38,-92.18 229.16,-83.02"/>
<polygon fill="midnightblue" stroke="midnightblue" points="231.82,-85.3 236.21,-75.66 226.76,-80.46 231.82,-85.3"/>
</g>
<!-- Node7 -->
<g id="node7" class="node">
<title>Node7</title>
<g id="a_node7"><a xlink:href="protnum_8h.html" target="_top" xlink:title="Protocol number definitions.">
<polygon fill="none" stroke="black" points="308.5,-56.5 308.5,-75.5 394.5,-75.5 394.5,-56.5 308.5,-56.5"/>
<text text-anchor="middle" x="351.5" y="-63.5" font-family="Helvetica,sans-Serif" font-size="10.00">net/protnum.h</text>
</a>
</g>
</g>
<!-- Node1&#45;&gt;Node7 -->
<g id="edge6" class="edge">
<title>Node1&#45;&gt;Node7</title>
<path fill="none" stroke="midnightblue" d="M226.37,-112.4C254.25,-102.28 291.44,-88.79 318.01,-79.15"/>
<polygon fill="midnightblue" stroke="midnightblue" points="319.43,-82.36 327.64,-75.66 317.04,-75.78 319.43,-82.36"/>
</g>
<!-- Node4 -->
<g id="node4" class="node">
<title>Node4</title>
<g id="a_node4"><a xlink:title=" ">
<polygon fill="none" stroke="#bfbfbf" points="66.5,-0.5 66.5,-19.5 122.5,-19.5 122.5,-0.5 66.5,-0.5"/>
<text text-anchor="middle" x="94.5" y="-7.5" font-family="Helvetica,sans-Serif" font-size="10.00">stddef.h</text>
</a>
</g>
</g>
<!-- Node3&#45;&gt;Node4 -->
<g id="edge3" class="edge">
<title>Node3&#45;&gt;Node4</title>
<path fill="none" stroke="midnightblue" d="M125.39,-56.08C120.22,-48.53 112.65,-37.49 106.31,-28.23"/>
<polygon fill="midnightblue" stroke="midnightblue" points="109.04,-26.02 100.5,-19.75 103.26,-29.98 109.04,-26.02"/>
</g>
<!-- Node5 -->
<g id="node5" class="node">
<title>Node5</title>
<g id="a_node5"><a xlink:title=" ">
<polygon fill="none" stroke="#bfbfbf" points="141,-0.5 141,-19.5 194,-19.5 194,-0.5 141,-0.5"/>
<text text-anchor="middle" x="167.5" y="-7.5" font-family="Helvetica,sans-Serif" font-size="10.00">stdint.h</text>
</a>
</g>
</g>
<!-- Node3&#45;&gt;Node5 -->
<g id="edge4" class="edge">
<title>Node3&#45;&gt;Node5</title>
<path fill="none" stroke="midnightblue" d="M137.44,-56.08C142.48,-48.53 149.84,-37.49 156.01,-28.23"/>
<polygon fill="midnightblue" stroke="midnightblue" points="159.03,-30.01 161.67,-19.75 153.21,-26.13 159.03,-30.01"/>
</g>
</g>
</svg>
