<?xml version="1.0" encoding="UTF-8" standalone="no"?>
<!DOCTYPE svg PUBLIC "-//W3C//DTD SVG 1.1//EN"
 "http://www.w3.org/Graphics/SVG/1.1/DTD/svg11.dtd">
<!-- Generated by graphviz version 2.40.1 (20161225.0304)
 -->
<!-- Title: sys/include/net/gnrc/nettest.h Pages: 1 -->
<svg width="698pt" height="319pt"
 viewBox="0.00 0.00 698.00 319.00" xmlns="http://www.w3.org/2000/svg" xmlns:xlink="http://www.w3.org/1999/xlink">
<g id="graph0" class="graph" transform="scale(1 1) rotate(0) translate(4 315)">
<title>sys/include/net/gnrc/nettest.h</title>
<!-- Node0 -->
<g id="node1" class="node">
<title>Node0</title>
<polygon fill="#bfbfbf" stroke="#000000" points="342.5,-280.5 342.5,-310.5 446.5,-310.5 446.5,-280.5 342.5,-280.5"/>
<text text-anchor="start" x="350.5" y="-298.5" font-family="Helvetica,sans-Serif" font-size="10.00" fill="#000000">sys/include/net/gnrc</text>
<text text-anchor="middle" x="394.5" y="-287.5" font-family="Helvetica,sans-Serif" font-size="10.00" fill="#000000">/nettest.h</text>
</g>
<!-- Node1 -->
<g id="node2" class="node">
<title>Node1</title>
<polygon fill="none" stroke="#bfbfbf" points="0,-56.5 0,-75.5 49,-75.5 49,-56.5 0,-56.5"/>
<text text-anchor="middle" x="24.5" y="-63.5" font-family="Helvetica,sans-Serif" font-size="10.00" fill="#000000">stdint.h</text>
</g>
<!-- Node0&#45;&gt;Node1 -->
<g id="edge1" class="edge">
<title>Node0&#45;&gt;Node1</title>
<path fill="none" stroke="#191970" d="M353.4725,-280.4139C329.7966,-271.0935 299.7966,-258.2185 274.5,-244 183.44,-192.8177 85.2273,-115.6316 44.2251,-82.29"/>
<polygon fill="#191970" stroke="#191970" points="46.3245,-79.4856 36.3671,-75.8659 41.8939,-84.905 46.3245,-79.4856"/>
</g>
<!-- Node2 -->
<g id="node3" class="node">
<title>Node2</title>
<g id="a_node3"><a xlink:href="stdlib_8h.html" target="_top" xlink:title="stdlib.h wrapper for MSP430 ">
<polygon fill="none" stroke="#000000" points="627.5,-112.5 627.5,-131.5 675.5,-131.5 675.5,-112.5 627.5,-112.5"/>
<text text-anchor="middle" x="651.5" y="-119.5" font-family="Helvetica,sans-Serif" font-size="10.00" fill="#000000">stdlib.h</text>
</a>
</g>
</g>
<!-- Node0&#45;&gt;Node2 -->
<g id="edge2" class="edge">
<title>Node0&#45;&gt;Node2</title>
<path fill="none" stroke="#191970" d="M443.2394,-280.4545C467.9814,-271.7057 497.9213,-259.3604 522.5,-244 553.9884,-224.3215 557.4895,-213.4794 584.5,-188 601.9743,-171.5162 621.4927,-152.1801 634.9341,-138.7146"/>
<polygon fill="#191970" stroke="#191970" points="637.5107,-141.0873 642.0846,-131.5306 632.5494,-136.1491 637.5107,-141.0873"/>
</g>
<!-- Node4 -->
<g id="node5" class="node">
<title>Node4</title>
<g id="a_node5"><a xlink:href="kernel__types_8h.html" target="_top" xlink:title="Types used by the kernel. ">
<polygon fill="none" stroke="#000000" points="184.5,-112.5 184.5,-131.5 264.5,-131.5 264.5,-112.5 184.5,-112.5"/>
<text text-anchor="middle" x="224.5" y="-119.5" font-family="Helvetica,sans-Serif" font-size="10.00" fill="#000000">kernel_types.h</text>
</a>
</g>
</g>
<!-- Node0&#45;&gt;Node4 -->
<g id="edge5" class="edge">
<title>Node0&#45;&gt;Node4</title>
<path fill="none" stroke="#191970" d="M362.8002,-280.4033C329.0282,-262.7637 276.2831,-230.4935 245.5,-188 235.5921,-174.323 230.2348,-155.7869 227.4172,-141.8405"/>
<polygon fill="#191970" stroke="#191970" points="230.8351,-141.0671 225.6636,-131.8202 223.9399,-142.2739 230.8351,-141.0671"/>
</g>
<!-- Node9 -->
<g id="node10" class="node">
<title>Node9</title>
<g id="a_node10"><a xlink:href="netapi_8h.html" target="_top" xlink:title="Generic interface to communicate with GNRC modules. ">
<polygon fill="none" stroke="#000000" points="387,-224.5 387,-243.5 476,-243.5 476,-224.5 387,-224.5"/>
<text text-anchor="middle" x="431.5" y="-231.5" font-family="Helvetica,sans-Serif" font-size="10.00" fill="#000000">net/gnrc/netapi.h</text>
</a>
</g>
</g>
<!-- Node0&#45;&gt;Node9 -->
<g id="edge11" class="edge">
<title>Node0&#45;&gt;Node9</title>
<path fill="none" stroke="#191970" d="M403.6461,-280.2977C408.6751,-271.9388 414.9555,-261.4997 420.2791,-252.6509"/>
<polygon fill="#191970" stroke="#191970" points="423.4197,-254.2201 425.5758,-243.8469 417.4215,-250.6114 423.4197,-254.2201"/>
</g>
<!-- Node10 -->
<g id="node11" class="node">
<title>Node10</title>
<polygon fill="none" stroke="#bfbfbf" points="435.5,-168.5 435.5,-187.5 487.5,-187.5 487.5,-168.5 435.5,-168.5"/>
<text text-anchor="middle" x="461.5" y="-175.5" font-family="Helvetica,sans-Serif" font-size="10.00" fill="#000000">thread.h</text>
</g>
<!-- Node0&#45;&gt;Node10 -->
<g id="edge28" class="edge">
<title>Node0&#45;&gt;Node10</title>
<path fill="none" stroke="#191970" d="M441.6317,-280.2977C458.5395,-272.3094 475.8072,-260.6228 485.5,-244 494.3669,-228.7936 485.5992,-209.7472 476.2673,-196.0286"/>
<polygon fill="#191970" stroke="#191970" points="478.9959,-193.832 470.2332,-187.8767 473.3696,-197.9967 478.9959,-193.832"/>
</g>
<!-- Node11 -->
<g id="node12" class="node">
<title>Node11</title>
<g id="a_node12"><a xlink:href="netopt_8h.html" target="_top" xlink:title="Definition of global configuration options. ">
<polygon fill="none" stroke="#000000" points="507.5,-168.5 507.5,-187.5 575.5,-187.5 575.5,-168.5 507.5,-168.5"/>
<text text-anchor="middle" x="541.5" y="-175.5" font-family="Helvetica,sans-Serif" font-size="10.00" fill="#000000">net/netopt.h</text>
</a>
</g>
</g>
<!-- Node0&#45;&gt;Node11 -->
<g id="edge25" class="edge">
<title>Node0&#45;&gt;Node11</title>
<path fill="none" stroke="#191970" d="M439.1147,-280.3968C459.4547,-271.9544 482.8715,-259.8905 500.5,-244 515.0126,-230.9182 526.2279,-211.5114 533.2314,-197.1248"/>
<polygon fill="#191970" stroke="#191970" points="536.5685,-198.2456 537.5735,-187.6985 530.2106,-195.3168 536.5685,-198.2456"/>
</g>
<!-- Node12 -->
<g id="node13" class="node">
<title>Node12</title>
<g id="a_node13"><a xlink:href="nettype_8h.html" target="_top" xlink:title="Protocol type definitions. ">
<polygon fill="none" stroke="#000000" points="332,-112.5 332,-131.5 427,-131.5 427,-112.5 332,-112.5"/>
<text text-anchor="middle" x="379.5" y="-119.5" font-family="Helvetica,sans-Serif" font-size="10.00" fill="#000000">net/gnrc/nettype.h</text>
</a>
</g>
</g>
<!-- Node0&#45;&gt;Node12 -->
<g id="edge26" class="edge">
<title>Node0&#45;&gt;Node12</title>
<path fill="none" stroke="#191970" d="M388.5084,-280.4593C384.8067,-270.3368 380.4105,-256.5889 378.5,-244 373.0676,-208.2048 375.3354,-165.8206 377.4425,-141.6043"/>
<polygon fill="#191970" stroke="#191970" points="380.9347,-141.8515 378.4002,-131.5642 373.9663,-141.1866 380.9347,-141.8515"/>
</g>
<!-- Node16 -->
<g id="node17" class="node">
<title>Node16</title>
<g id="a_node17"><a xlink:href="include_2net_2gnrc_2pkt_8h.html" target="_top" xlink:title="General definitions for network packets and their helper functions. ">
<polygon fill="none" stroke="#000000" points="254,-168.5 254,-187.5 331,-187.5 331,-168.5 254,-168.5"/>
<text text-anchor="middle" x="292.5" y="-175.5" font-family="Helvetica,sans-Serif" font-size="10.00" fill="#000000">net/gnrc/pkt.h</text>
</a>
</g>
</g>
<!-- Node0&#45;&gt;Node16 -->
<g id="edge27" class="edge">
<title>Node0&#45;&gt;Node16</title>
<path fill="none" stroke="#191970" d="M378.7497,-280.1206C368.6816,-270.0868 355.4978,-256.5655 344.5,-244 330.6293,-228.1521 315.8649,-209.1878 305.6264,-195.6627"/>
<polygon fill="#191970" stroke="#191970" points="308.4107,-193.5418 299.6067,-187.6477 302.8135,-197.7455 308.4107,-193.5418"/>
</g>
<!-- Node3 -->
<g id="node4" class="node">
<title>Node3</title>
<g id="a_node4"><a xlink:href="malloc_8h.html" target="_top" xlink:title="malloc.h">
<polygon fill="none" stroke="#000000" points="637,-56.5 637,-75.5 690,-75.5 690,-56.5 637,-56.5"/>
<text text-anchor="middle" x="663.5" y="-63.5" font-family="Helvetica,sans-Serif" font-size="10.00" fill="#000000">malloc.h</text>
</a>
</g>
</g>
<!-- Node2&#45;&gt;Node3 -->
<g id="edge3" class="edge">
<title>Node2&#45;&gt;Node3</title>
<path fill="none" stroke="#191970" d="M648.3234,-112.2455C648.4816,-104.7776 650.3486,-94.2427 652.9659,-85.1137"/>
<polygon fill="#191970" stroke="#191970" points="656.2806,-86.2371 656.1886,-75.6427 649.6538,-83.9822 656.2806,-86.2371"/>
</g>
<!-- Node3&#45;&gt;Node2 -->
<g id="edge4" class="edge">
<title>Node3&#45;&gt;Node2</title>
<path fill="none" stroke="#191970" d="M666.6789,-75.6427C666.5377,-83.0798 664.6831,-93.6064 662.0733,-102.7493"/>
<polygon fill="#191970" stroke="#191970" points="658.75,-101.6512 658.8571,-112.2455 665.38,-103.8968 658.75,-101.6512"/>
</g>
<!-- Node4&#45;&gt;Node1 -->
<g id="edge6" class="edge">
<title>Node4&#45;&gt;Node1</title>
<path fill="none" stroke="#191970" d="M189.4796,-112.4674C157.8889,-103.8303 109.9003,-90.6159 58.8962,-76.0817"/>
<polygon fill="#191970" stroke="#191970" points="59.5774,-72.6364 49.0007,-73.256 57.6553,-79.3674 59.5774,-72.6364"/>
</g>
<!-- Node5 -->
<g id="node6" class="node">
<title>Node5</title>
<g id="a_node6"><a xlink:href="inttypes_8h.html" target="_top" xlink:title="Adds include for missing inttype definitions. ">
<polygon fill="none" stroke="#000000" points="258,-56.5 258,-75.5 317,-75.5 317,-56.5 258,-56.5"/>
<text text-anchor="middle" x="287.5" y="-63.5" font-family="Helvetica,sans-Serif" font-size="10.00" fill="#000000">inttypes.h</text>
</a>
</g>
</g>
<!-- Node4&#45;&gt;Node5 -->
<g id="edge7" class="edge">
<title>Node4&#45;&gt;Node5</title>
<path fill="none" stroke="#191970" d="M235.4738,-112.2455C244.6882,-104.0549 258.0532,-92.1749 268.9297,-82.5069"/>
<polygon fill="#191970" stroke="#191970" points="271.5032,-84.9023 276.652,-75.6427 266.8526,-79.6704 271.5032,-84.9023"/>
</g>
<!-- Node6 -->
<g id="node7" class="node">
<title>Node6</title>
<polygon fill="none" stroke="#bfbfbf" points="67.5,-56.5 67.5,-75.5 115.5,-75.5 115.5,-56.5 67.5,-56.5"/>
<text text-anchor="middle" x="91.5" y="-63.5" font-family="Helvetica,sans-Serif" font-size="10.00" fill="#000000">limits.h</text>
</g>
<!-- Node4&#45;&gt;Node6 -->
<g id="edge8" class="edge">
<title>Node4&#45;&gt;Node6</title>
<path fill="none" stroke="#191970" d="M201.6365,-112.3733C180.095,-103.3032 147.6162,-89.6279 123.5044,-79.4755"/>
<polygon fill="#191970" stroke="#191970" points="124.6397,-76.156 114.0652,-75.5011 121.9233,-82.6075 124.6397,-76.156"/>
</g>
<!-- Node7 -->
<g id="node8" class="node">
<title>Node7</title>
<polygon fill="none" stroke="#bfbfbf" points="278.5,-.5 278.5,-19.5 330.5,-19.5 330.5,-.5 278.5,-.5"/>
<text text-anchor="middle" x="304.5" y="-7.5" font-family="Helvetica,sans-Serif" font-size="10.00" fill="#000000">stddef.h</text>
</g>
<!-- Node4&#45;&gt;Node7 -->
<g id="edge9" class="edge">
<title>Node4&#45;&gt;Node7</title>
<path fill="none" stroke="#191970" d="M226.528,-112.3025C229.711,-98.7392 236.8599,-73.7737 249.5,-56 257.925,-44.1533 270.1087,-33.5425 280.8687,-25.5053"/>
<polygon fill="#191970" stroke="#191970" points="282.9861,-28.2941 289.0938,-19.6369 278.9205,-22.5958 282.9861,-28.2941"/>
</g>
<!-- Node8 -->
<g id="node9" class="node">
<title>Node8</title>
<polygon fill="none" stroke="#bfbfbf" points="133.5,-56.5 133.5,-75.5 201.5,-75.5 201.5,-56.5 133.5,-56.5"/>
<text text-anchor="middle" x="167.5" y="-63.5" font-family="Helvetica,sans-Serif" font-size="10.00" fill="#000000">sys/types.h</text>
</g>
<!-- Node4&#45;&gt;Node8 -->
<g id="edge10" class="edge">
<title>Node4&#45;&gt;Node8</title>
<path fill="none" stroke="#191970" d="M214.5714,-112.2455C206.3162,-104.1352 194.3791,-92.4075 184.5918,-82.7919"/>
<polygon fill="#191970" stroke="#191970" points="186.9011,-80.1542 177.3149,-75.6427 181.9954,-85.1476 186.9011,-80.1542"/>
</g>
<!-- Node9&#45;&gt;Node10 -->
<g id="edge12" class="edge">
<title>Node9&#45;&gt;Node10</title>
<path fill="none" stroke="#191970" d="M436.7256,-224.2455C440.8123,-216.617 446.6135,-205.7881 451.575,-196.5267"/>
<polygon fill="#191970" stroke="#191970" points="454.6972,-198.1103 456.3343,-187.6427 448.5268,-194.8047 454.6972,-198.1103"/>
</g>
<!-- Node9&#45;&gt;Node11 -->
<g id="edge13" class="edge">
<title>Node9&#45;&gt;Node11</title>
<path fill="none" stroke="#191970" d="M450.6605,-224.2455C468.0111,-215.4125 493.7901,-202.2887 513.4583,-192.2758"/>
<polygon fill="#191970" stroke="#191970" points="515.2353,-195.2986 522.559,-187.6427 512.0595,-189.0605 515.2353,-195.2986"/>
</g>
<!-- Node9&#45;&gt;Node12 -->
<g id="edge14" class="edge">
<title>Node9&#45;&gt;Node12</title>
<path fill="none" stroke="#191970" d="M427.0665,-224.4509C418.4703,-205.936 399.3989,-164.8591 388.1908,-140.7187"/>
<polygon fill="#191970" stroke="#191970" points="391.308,-139.1211 383.9223,-131.5249 384.9589,-142.0689 391.308,-139.1211"/>
</g>
<!-- Node9&#45;&gt;Node16 -->
<g id="edge20" class="edge">
<title>Node9&#45;&gt;Node16</title>
<path fill="none" stroke="#191970" d="M407.605,-224.3733C384.9918,-215.2629 350.8458,-201.5062 325.6127,-191.3404"/>
<polygon fill="#191970" stroke="#191970" points="326.6666,-187.9917 316.0831,-187.5011 324.0507,-194.4845 326.6666,-187.9917"/>
</g>
<!-- Node12&#45;&gt;Node5 -->
<g id="edge15" class="edge">
<title>Node12&#45;&gt;Node5</title>
<path fill="none" stroke="#191970" d="M363.4748,-112.2455C349.3592,-103.6534 328.5737,-91.0014 312.3101,-81.1018"/>
<polygon fill="#191970" stroke="#191970" points="313.7034,-77.8525 303.3415,-75.6427 310.0637,-83.8319 313.7034,-77.8525"/>
</g>
<!-- Node13 -->
<g id="node14" class="node">
<title>Node13</title>
<g id="a_node14"><a xlink:href="kernel__defines_8h.html" target="_top" xlink:title="Common macros and compiler attributes/pragmas configuration. ">
<polygon fill="none" stroke="#000000" points="335.5,-56.5 335.5,-75.5 423.5,-75.5 423.5,-56.5 335.5,-56.5"/>
<text text-anchor="middle" x="379.5" y="-63.5" font-family="Helvetica,sans-Serif" font-size="10.00" fill="#000000">kernel_defines.h</text>
</a>
</g>
</g>
<!-- Node12&#45;&gt;Node13 -->
<g id="edge16" class="edge">
<title>Node12&#45;&gt;Node13</title>
<path fill="none" stroke="#191970" d="M379.5,-112.2455C379.5,-104.9382 379.5,-94.6944 379.5,-85.7046"/>
<polygon fill="#191970" stroke="#191970" points="383.0001,-85.6426 379.5,-75.6427 376.0001,-85.6427 383.0001,-85.6426"/>
</g>
<!-- Node14 -->
<g id="node15" class="node">
<title>Node14</title>
<g id="a_node15"><a xlink:href="ethertype_8h.html" target="_top" xlink:title="Ether type definitions. ">
<polygon fill="none" stroke="#000000" points="441.5,-56.5 441.5,-75.5 523.5,-75.5 523.5,-56.5 441.5,-56.5"/>
<text text-anchor="middle" x="482.5" y="-63.5" font-family="Helvetica,sans-Serif" font-size="10.00" fill="#000000">net/ethertype.h</text>
</a>
</g>
</g>
<!-- Node12&#45;&gt;Node14 -->
<g id="edge18" class="edge">
<title>Node12&#45;&gt;Node14</title>
<path fill="none" stroke="#191970" d="M397.4412,-112.2455C413.54,-103.4928 437.3879,-90.527 455.7391,-80.5496"/>
<polygon fill="#191970" stroke="#191970" points="457.6507,-83.4942 464.7644,-75.6427 454.3071,-77.3444 457.6507,-83.4942"/>
</g>
<!-- Node15 -->
<g id="node16" class="node">
<title>Node15</title>
<g id="a_node16"><a xlink:href="protnum_8h.html" target="_top" xlink:title="Protocol number definitions. ">
<polygon fill="none" stroke="#000000" points="542,-56.5 542,-75.5 619,-75.5 619,-56.5 542,-56.5"/>
<text text-anchor="middle" x="580.5" y="-63.5" font-family="Helvetica,sans-Serif" font-size="10.00" fill="#000000">net/protnum.h</text>
</a>
</g>
</g>
<!-- Node12&#45;&gt;Node15 -->
<g id="edge19" class="edge">
<title>Node12&#45;&gt;Node15</title>
<path fill="none" stroke="#191970" d="M414.0531,-112.3733C447.9104,-102.9404 499.646,-88.5265 536.4426,-78.2747"/>
<polygon fill="#191970" stroke="#191970" points="537.704,-81.5566 546.3978,-75.5011 535.8253,-74.8135 537.704,-81.5566"/>
</g>
<!-- Node13&#45;&gt;Node7 -->
<g id="edge17" class="edge">
<title>Node13&#45;&gt;Node7</title>
<path fill="none" stroke="#191970" d="M366.436,-56.2455C355.1438,-47.814 338.6155,-35.4729 325.4729,-25.6598"/>
<polygon fill="#191970" stroke="#191970" points="327.5211,-22.8211 317.4143,-19.6427 323.3331,-28.4301 327.5211,-22.8211"/>
</g>
<!-- Node16&#45;&gt;Node2 -->
<g id="edge22" class="edge">
<title>Node16&#45;&gt;Node2</title>
<path fill="none" stroke="#191970" d="M331.2604,-171.9538C401.8216,-160.947 550.1405,-137.811 617.2386,-127.3444"/>
<polygon fill="#191970" stroke="#191970" points="617.9446,-130.7767 627.2857,-125.7772 616.8657,-123.8603 617.9446,-130.7767"/>
</g>
<!-- Node16&#45;&gt;Node4 -->
<g id="edge23" class="edge">
<title>Node16&#45;&gt;Node4</title>
<path fill="none" stroke="#191970" d="M280.6553,-168.2455C270.612,-159.9746 256.0005,-147.9416 244.1996,-138.2232"/>
<polygon fill="#191970" stroke="#191970" points="246.1533,-135.298 236.209,-131.6427 241.7033,-140.7015 246.1533,-135.298"/>
</g>
<!-- Node16&#45;&gt;Node5 -->
<g id="edge21" class="edge">
<title>Node16&#45;&gt;Node5</title>
<path fill="none" stroke="#191970" d="M292.0737,-168.4509C291.2582,-150.184 289.4623,-109.9553 288.3794,-85.6976"/>
<polygon fill="#191970" stroke="#191970" points="291.8678,-85.3588 287.9252,-75.5249 284.8748,-85.6711 291.8678,-85.3588"/>
</g>
<!-- Node16&#45;&gt;Node12 -->
<g id="edge24" class="edge">
<title>Node16&#45;&gt;Node12</title>
<path fill="none" stroke="#191970" d="M307.6542,-168.2455C321.0027,-159.6534 340.6586,-147.0014 356.0383,-137.1018"/>
<polygon fill="#191970" stroke="#191970" points="358.0051,-139.9982 364.5194,-131.6427 354.2164,-134.1121 358.0051,-139.9982"/>
</g>
</g>
</svg>
