<?xml version="1.0" encoding="UTF-8" standalone="no"?>
<!DOCTYPE svg PUBLIC "-//W3C//DTD SVG 1.1//EN"
 "http://www.w3.org/Graphics/SVG/1.1/DTD/svg11.dtd">
<!-- Generated by graphviz version 2.43.0 (0)
 -->
<!-- Title: boards/common/nrf52xxxdk/include/periph_conf_common.h Pages: 1 -->
<svg width="641pt" height="95pt"
 viewBox="0.00 0.00 641.00 95.00" xmlns="http://www.w3.org/2000/svg" xmlns:xlink="http://www.w3.org/1999/xlink">
<g id="graph0" class="graph" transform="scale(1 1) rotate(0) translate(4 91)">
<title>boards/common/nrf52xxxdk/include/periph_conf_common.h</title>
<!-- Node1 -->
<g id="node1" class="node">
<title>Node1</title>
<g id="a_node1"><a xlink:title="Peripheral configuration for the nRF52 DK.">
<polygon fill="#bfbfbf" stroke="black" points="237.5,-56.5 237.5,-86.5 409.5,-86.5 409.5,-56.5 237.5,-56.5"/>
<text text-anchor="start" x="245.5" y="-74.5" font-family="Helvetica,sans-Serif" font-size="10.00">boards/common/nrf52xxxdk</text>
<text text-anchor="middle" x="323.5" y="-63.5" font-family="Helvetica,sans-Serif" font-size="10.00">/include/periph_conf_common.h</text>
</a>
</g>
</g>
<!-- Node2 -->
<g id="node2" class="node">
<title>Node2</title>
<g id="a_node2"><a xlink:title=" ">
<polygon fill="none" stroke="#bfbfbf" points="0,-0.5 0,-19.5 79,-19.5 79,-0.5 0,-0.5"/>
<text text-anchor="middle" x="39.5" y="-7.5" font-family="Helvetica,sans-Serif" font-size="10.00">periph_cpu.h</text>
</a>
</g>
</g>
<!-- Node1&#45;&gt;Node2 -->
<g id="edge1" class="edge">
<title>Node1&#45;&gt;Node2</title>
<path fill="none" stroke="midnightblue" d="M256.56,-56.47C205.22,-45.72 135.52,-31.12 89.1,-21.39"/>
<polygon fill="midnightblue" stroke="midnightblue" points="89.78,-17.96 79.28,-19.33 88.35,-24.81 89.78,-17.96"/>
</g>
<!-- Node3 -->
<g id="node3" class="node">
<title>Node3</title>
<g id="a_node3"><a xlink:href="cfg__clock__32__1_8h.html" target="_top" xlink:title="Common clock configuration for the nRF52 based boards.">
<polygon fill="none" stroke="black" points="97.5,-0.5 97.5,-19.5 197.5,-19.5 197.5,-0.5 97.5,-0.5"/>
<text text-anchor="middle" x="147.5" y="-7.5" font-family="Helvetica,sans-Serif" font-size="10.00">cfg_clock_32_1.h</text>
</a>
</g>
</g>
<!-- Node1&#45;&gt;Node3 -->
<g id="edge2" class="edge">
<title>Node1&#45;&gt;Node3</title>
<path fill="none" stroke="midnightblue" d="M281.79,-56.4C251.51,-46.16 211.01,-32.47 182.43,-22.81"/>
<polygon fill="midnightblue" stroke="midnightblue" points="183.45,-19.46 172.85,-19.57 181.2,-26.09 183.45,-19.46"/>
</g>
<!-- Node4 -->
<g id="node4" class="node">
<title>Node4</title>
<g id="a_node4"><a xlink:title=" ">
<polygon fill="none" stroke="#bfbfbf" points="215.5,-0.5 215.5,-19.5 315.5,-19.5 315.5,-0.5 215.5,-0.5"/>
<text text-anchor="middle" x="265.5" y="-7.5" font-family="Helvetica,sans-Serif" font-size="10.00">cfg_i2c_default.h</text>
</a>
</g>
</g>
<!-- Node1&#45;&gt;Node4 -->
<g id="edge3" class="edge">
<title>Node1&#45;&gt;Node4</title>
<path fill="none" stroke="midnightblue" d="M309.75,-56.4C301.15,-47.58 290.05,-36.18 281.11,-27.02"/>
<polygon fill="midnightblue" stroke="midnightblue" points="283.43,-24.38 273.94,-19.66 278.41,-29.26 283.43,-24.38"/>
</g>
<!-- Node5 -->
<g id="node5" class="node">
<title>Node5</title>
<g id="a_node5"><a xlink:title=" ">
<polygon fill="none" stroke="#bfbfbf" points="334,-0.5 334,-19.5 431,-19.5 431,-0.5 334,-0.5"/>
<text text-anchor="middle" x="382.5" y="-7.5" font-family="Helvetica,sans-Serif" font-size="10.00">cfg_rtt_default.h</text>
</a>
</g>
</g>
<!-- Node1&#45;&gt;Node5 -->
<g id="edge4" class="edge">
<title>Node1&#45;&gt;Node5</title>
<path fill="none" stroke="midnightblue" d="M337.48,-56.4C346.23,-47.58 357.53,-36.18 366.62,-27.02"/>
<polygon fill="midnightblue" stroke="midnightblue" points="369.36,-29.22 373.91,-19.66 364.39,-24.29 369.36,-29.22"/>
</g>
<!-- Node6 -->
<g id="node6" class="node">
<title>Node6</title>
<g id="a_node6"><a xlink:title=" ">
<polygon fill="none" stroke="#bfbfbf" points="449.5,-0.5 449.5,-19.5 561.5,-19.5 561.5,-0.5 449.5,-0.5"/>
<text text-anchor="middle" x="505.5" y="-7.5" font-family="Helvetica,sans-Serif" font-size="10.00">cfg_timer_default.h</text>
</a>
</g>
</g>
<!-- Node1&#45;&gt;Node6 -->
<g id="edge5" class="edge">
<title>Node1&#45;&gt;Node6</title>
<path fill="none" stroke="midnightblue" d="M366.63,-56.4C398.08,-46.12 440.19,-32.35 469.77,-22.68"/>
<polygon fill="midnightblue" stroke="midnightblue" points="470.87,-26.01 479.28,-19.57 468.69,-19.35 470.87,-26.01"/>
</g>
<!-- Node7 -->
<g id="node7" class="node">
<title>Node7</title>
<g id="a_node7"><a xlink:title=" ">
<polygon fill="none" stroke="#bfbfbf" points="580,-0.5 580,-19.5 633,-19.5 633,-0.5 580,-0.5"/>
<text text-anchor="middle" x="606.5" y="-7.5" font-family="Helvetica,sans-Serif" font-size="10.00">board.h</text>
</a>
</g>
</g>
<!-- Node1&#45;&gt;Node7 -->
<g id="edge6" class="edge">
<title>Node1&#45;&gt;Node7</title>
<path fill="none" stroke="midnightblue" d="M396.36,-56.46C443.24,-47.23 505.68,-34.57 569.89,-20.06"/>
<polygon fill="midnightblue" stroke="midnightblue" points="570.82,-23.44 579.79,-17.81 569.27,-16.61 570.82,-23.44"/>
</g>
</g>
</svg>
