<?xml version="1.0" encoding="UTF-8" standalone="no"?>
<!DOCTYPE svg PUBLIC "-//W3C//DTD SVG 1.1//EN"
 "http://www.w3.org/Graphics/SVG/1.1/DTD/svg11.dtd">
<!-- Generated by graphviz version 2.43.0 (0)
 -->
<!-- Title: cpu/nrf5x_common/include/nrfx.h Pages: 1 -->
<svg width="176pt" height="95pt"
 viewBox="0.00 0.00 176.00 95.00" xmlns="http://www.w3.org/2000/svg" xmlns:xlink="http://www.w3.org/1999/xlink">
<g id="graph0" class="graph" transform="scale(1 1) rotate(0) translate(4 91)">
<title>cpu/nrf5x_common/include/nrfx.h</title>
<!-- Node1 -->
<g id="node1" class="node">
<title>Node1</title>
<g id="a_node1"><a xlink:title="nrfx compatibility layer">
<polygon fill="#bfbfbf" stroke="black" points="5.5,-56.5 5.5,-86.5 154.5,-86.5 154.5,-56.5 5.5,-56.5"/>
<text text-anchor="start" x="13.5" y="-74.5" font-family="Helvetica,sans-Serif" font-size="10.00">cpu/nrf5x_common/include</text>
<text text-anchor="middle" x="80" y="-63.5" font-family="Helvetica,sans-Serif" font-size="10.00">/nrfx.h</text>
</a>
</g>
</g>
<!-- Node2 -->
<g id="node2" class="node">
<title>Node2</title>
<g id="a_node2"><a xlink:title=" ">
<polygon fill="none" stroke="#bfbfbf" points="0,-0.5 0,-19.5 68,-19.5 68,-0.5 0,-0.5"/>
<text text-anchor="middle" x="34" y="-7.5" font-family="Helvetica,sans-Serif" font-size="10.00">cpu_conf.h</text>
</a>
</g>
</g>
<!-- Node1&#45;&gt;Node2 -->
<g id="edge1" class="edge">
<title>Node1&#45;&gt;Node2</title>
<path fill="none" stroke="midnightblue" d="M69.1,-56.4C62.41,-47.75 53.82,-36.64 46.82,-27.58"/>
<polygon fill="midnightblue" stroke="midnightblue" points="49.58,-25.43 40.69,-19.66 44.04,-29.71 49.58,-25.43"/>
</g>
<!-- Node3 -->
<g id="node3" class="node">
<title>Node3</title>
<g id="a_node3"><a xlink:title=" ">
<polygon fill="none" stroke="#bfbfbf" points="86,-0.5 86,-19.5 168,-19.5 168,-0.5 86,-0.5"/>
<text text-anchor="middle" x="127" y="-7.5" font-family="Helvetica,sans-Serif" font-size="10.00">periph_conf.h</text>
</a>
</g>
</g>
<!-- Node1&#45;&gt;Node3 -->
<g id="edge2" class="edge">
<title>Node1&#45;&gt;Node3</title>
<path fill="none" stroke="midnightblue" d="M91.14,-56.4C97.97,-47.75 106.74,-36.64 113.91,-27.58"/>
<polygon fill="midnightblue" stroke="midnightblue" points="116.71,-29.67 120.16,-19.66 111.22,-25.34 116.71,-29.67"/>
</g>
</g>
</svg>
