<?xml version="1.0" encoding="UTF-8" standalone="no"?>
<!DOCTYPE svg PUBLIC "-//W3C//DTD SVG 1.1//EN"
 "http://www.w3.org/Graphics/SVG/1.1/DTD/svg11.dtd">
<!-- Generated by graphviz version 2.40.1 (20161225.0304)
 -->
<!-- Title: boards/nz32&#45;sc151/include/board.h Pages: 1 -->
<svg width="252pt" height="207pt"
 viewBox="0.00 0.00 252.00 207.00" xmlns="http://www.w3.org/2000/svg" xmlns:xlink="http://www.w3.org/1999/xlink">
<g id="graph0" class="graph" transform="scale(1 1) rotate(0) translate(4 203)">
<title>boards/nz32&#45;sc151/include/board.h</title>
<!-- Node0 -->
<g id="node1" class="node">
<title>Node0</title>
<polygon fill="#bfbfbf" stroke="#000000" points="21,-168.5 21,-198.5 154,-198.5 154,-168.5 21,-168.5"/>
<text text-anchor="start" x="29" y="-186.5" font-family="Helvetica,sans-Serif" font-size="10.00" fill="#000000">boards/nz32&#45;sc151/include</text>
<text text-anchor="middle" x="87.5" y="-175.5" font-family="Helvetica,sans-Serif" font-size="10.00" fill="#000000">/board.h</text>
</g>
<!-- Node1 -->
<g id="node2" class="node">
<title>Node1</title>
<polygon fill="none" stroke="#bfbfbf" points="0,-112.5 0,-131.5 49,-131.5 49,-112.5 0,-112.5"/>
<text text-anchor="middle" x="24.5" y="-119.5" font-family="Helvetica,sans-Serif" font-size="10.00" fill="#000000">stdint.h</text>
</g>
<!-- Node0&#45;&gt;Node1 -->
<g id="edge1" class="edge">
<title>Node0&#45;&gt;Node1</title>
<path fill="none" stroke="#191970" d="M71.927,-168.2977C62.8175,-159.4052 51.2966,-148.1586 41.8909,-138.9769"/>
<polygon fill="#191970" stroke="#191970" points="44.1878,-136.3278 34.5871,-131.8469 39.298,-141.3368 44.1878,-136.3278"/>
</g>
<!-- Node2 -->
<g id="node3" class="node">
<title>Node2</title>
<polygon fill="none" stroke="#bfbfbf" points="67,-112.5 67,-131.5 108,-131.5 108,-112.5 67,-112.5"/>
<text text-anchor="middle" x="87.5" y="-119.5" font-family="Helvetica,sans-Serif" font-size="10.00" fill="#000000">cpu.h</text>
</g>
<!-- Node0&#45;&gt;Node2 -->
<g id="edge2" class="edge">
<title>Node0&#45;&gt;Node2</title>
<path fill="none" stroke="#191970" d="M87.5,-168.2977C87.5,-160.3834 87.5,-150.6043 87.5,-142.0759"/>
<polygon fill="#191970" stroke="#191970" points="91.0001,-141.8469 87.5,-131.8469 84.0001,-141.847 91.0001,-141.8469"/>
</g>
<!-- Node3 -->
<g id="node4" class="node">
<title>Node3</title>
<g id="a_node4"><a xlink:href="boards_2nz32-sc151_2include_2periph__conf_8h.html" target="_top" xlink:title="Peripheral MCU configuration for the limifrog&#45;v1 board. ">
<polygon fill="none" stroke="#000000" points="126,-112.5 126,-131.5 201,-131.5 201,-112.5 126,-112.5"/>
<text text-anchor="middle" x="163.5" y="-119.5" font-family="Helvetica,sans-Serif" font-size="10.00" fill="#000000">periph_conf.h</text>
</a>
</g>
</g>
<!-- Node0&#45;&gt;Node3 -->
<g id="edge3" class="edge">
<title>Node0&#45;&gt;Node3</title>
<path fill="none" stroke="#191970" d="M106.2865,-168.2977C117.6053,-159.1384 132.0105,-147.4816 143.5346,-138.1562"/>
<polygon fill="#191970" stroke="#191970" points="145.7595,-140.8583 151.3314,-131.8469 141.3561,-135.4167 145.7595,-140.8583"/>
</g>
<!-- Node4 -->
<g id="node5" class="node">
<title>Node4</title>
<polygon fill="none" stroke="#bfbfbf" points="126.5,-.5 126.5,-19.5 198.5,-19.5 198.5,-.5 126.5,-.5"/>
<text text-anchor="middle" x="162.5" y="-7.5" font-family="Helvetica,sans-Serif" font-size="10.00" fill="#000000">periph_cpu.h</text>
</g>
<!-- Node3&#45;&gt;Node4 -->
<g id="edge4" class="edge">
<title>Node3&#45;&gt;Node4</title>
<path fill="none" stroke="#191970" d="M158.5415,-112.4444C154.122,-103.352 147.9805,-89.1462 145.5,-76 142.4879,-60.0363 147.5964,-42.2118 152.9816,-29.1143"/>
<polygon fill="#191970" stroke="#191970" points="156.2846,-30.3039 157.2098,-19.7496 149.9048,-27.4234 156.2846,-30.3039"/>
</g>
<!-- Node5 -->
<g id="node6" class="node">
<title>Node5</title>
<g id="a_node6"><a xlink:href="cfg__timer__tim5_8h.html" target="_top" xlink:title="Common configuration for STM32 Timer peripheral based on TIM5. ">
<polygon fill="none" stroke="#000000" points="155,-56.5 155,-75.5 244,-75.5 244,-56.5 155,-56.5"/>
<text text-anchor="middle" x="199.5" y="-63.5" font-family="Helvetica,sans-Serif" font-size="10.00" fill="#000000">cfg_timer_tim5.h</text>
</a>
</g>
</g>
<!-- Node3&#45;&gt;Node5 -->
<g id="edge5" class="edge">
<title>Node3&#45;&gt;Node5</title>
<path fill="none" stroke="#191970" d="M169.7707,-112.2455C174.7264,-104.5367 181.783,-93.5598 187.7776,-84.2348"/>
<polygon fill="#191970" stroke="#191970" points="190.8376,-85.9471 193.3011,-75.6427 184.9494,-82.1618 190.8376,-85.9471"/>
</g>
<!-- Node5&#45;&gt;Node4 -->
<g id="edge6" class="edge">
<title>Node5&#45;&gt;Node4</title>
<path fill="none" stroke="#191970" d="M193.0551,-56.2455C187.9618,-48.5367 180.7092,-37.5598 174.548,-28.2348"/>
<polygon fill="#191970" stroke="#191970" points="177.3038,-26.0566 168.8711,-19.6427 171.4635,-29.9155 177.3038,-26.0566"/>
</g>
</g>
</svg>
