<?xml version="1.0" encoding="UTF-8" standalone="no"?>
<!DOCTYPE svg PUBLIC "-//W3C//DTD SVG 1.1//EN"
 "http://www.w3.org/Graphics/SVG/1.1/DTD/svg11.dtd">
<!-- Generated by graphviz version 2.40.1 (20161225.0304)
 -->
<!-- Title: sys/include/crypto/modes/ocb.h Pages: 1 -->
<svg width="202pt" height="151pt"
 viewBox="0.00 0.00 202.00 151.00" xmlns="http://www.w3.org/2000/svg" xmlns:xlink="http://www.w3.org/1999/xlink">
<g id="graph0" class="graph" transform="scale(1 1) rotate(0) translate(4 147)">
<title>sys/include/crypto/modes/ocb.h</title>
<!-- Node0 -->
<g id="node1" class="node">
<title>Node0</title>
<polygon fill="#bfbfbf" stroke="#000000" points="66,-112.5 66,-142.5 162,-142.5 162,-112.5 66,-112.5"/>
<text text-anchor="start" x="74" y="-130.5" font-family="Helvetica,sans-Serif" font-size="10.00" fill="#000000">sys/include/crypto</text>
<text text-anchor="middle" x="114" y="-119.5" font-family="Helvetica,sans-Serif" font-size="10.00" fill="#000000">/modes/ocb.h</text>
</g>
<!-- Node1 -->
<g id="node2" class="node">
<title>Node1</title>
<g id="a_node2"><a xlink:href="ciphers_8h.html" target="_top" xlink:title="Headers for the packet encryption class. ">
<polygon fill="none" stroke="#000000" points="0,-56.5 0,-75.5 86,-75.5 86,-56.5 0,-56.5"/>
<text text-anchor="middle" x="43" y="-63.5" font-family="Helvetica,sans-Serif" font-size="10.00" fill="#000000">crypto/ciphers.h</text>
</a>
</g>
</g>
<!-- Node0&#45;&gt;Node1 -->
<g id="edge1" class="edge">
<title>Node0&#45;&gt;Node1</title>
<path fill="none" stroke="#191970" d="M96.4494,-112.2977C85.9779,-103.2274 72.6789,-91.7077 61.9662,-82.4285"/>
<polygon fill="#191970" stroke="#191970" points="64.2182,-79.7487 54.368,-75.8469 59.6351,-85.0398 64.2182,-79.7487"/>
</g>
<!-- Node2 -->
<g id="node3" class="node">
<title>Node2</title>
<polygon fill="none" stroke="#bfbfbf" points="53.5,-.5 53.5,-19.5 102.5,-19.5 102.5,-.5 53.5,-.5"/>
<text text-anchor="middle" x="78" y="-7.5" font-family="Helvetica,sans-Serif" font-size="10.00" fill="#000000">stdint.h</text>
</g>
<!-- Node0&#45;&gt;Node2 -->
<g id="edge3" class="edge">
<title>Node0&#45;&gt;Node2</title>
<path fill="none" stroke="#191970" d="M110.4062,-112.316C106.8574,-97.76 101.0913,-75.2231 95,-56 92.179,-47.0974 88.6545,-37.3789 85.5472,-29.178"/>
<polygon fill="#191970" stroke="#191970" points="88.785,-27.8464 81.9188,-19.7776 82.2545,-30.3671 88.785,-27.8464"/>
</g>
<!-- Node3 -->
<g id="node4" class="node">
<title>Node3</title>
<polygon fill="none" stroke="#bfbfbf" points="142,-56.5 142,-75.5 194,-75.5 194,-56.5 142,-56.5"/>
<text text-anchor="middle" x="168" y="-63.5" font-family="Helvetica,sans-Serif" font-size="10.00" fill="#000000">stddef.h</text>
</g>
<!-- Node0&#45;&gt;Node3 -->
<g id="edge4" class="edge">
<title>Node0&#45;&gt;Node3</title>
<path fill="none" stroke="#191970" d="M127.3483,-112.2977C135.0002,-103.5831 144.6373,-92.6075 152.6076,-83.5302"/>
<polygon fill="#191970" stroke="#191970" points="155.3859,-85.6707 159.3539,-75.8469 150.1258,-81.052 155.3859,-85.6707"/>
</g>
<!-- Node1&#45;&gt;Node2 -->
<g id="edge2" class="edge">
<title>Node1&#45;&gt;Node2</title>
<path fill="none" stroke="#191970" d="M49.0965,-56.2455C53.9145,-48.5367 60.7751,-37.5598 66.6032,-28.2348"/>
<polygon fill="#191970" stroke="#191970" points="69.6413,-29.9777 71.9733,-19.6427 63.7053,-26.2677 69.6413,-29.9777"/>
</g>
</g>
</svg>
