<?xml version="1.0" encoding="UTF-8" standalone="no"?>
<!DOCTYPE svg PUBLIC "-//W3C//DTD SVG 1.1//EN"
 "http://www.w3.org/Graphics/SVG/1.1/DTD/svg11.dtd">
<!-- Generated by graphviz version 2.43.0 (0)
 -->
<!-- Title: boards/olimexino&#45;stm32/include/gpio_params.h Pages: 1 -->
<svg width="487pt" height="207pt"
 viewBox="0.00 0.00 487.00 207.00" xmlns="http://www.w3.org/2000/svg" xmlns:xlink="http://www.w3.org/1999/xlink">
<g id="graph0" class="graph" transform="scale(1 1) rotate(0) translate(4 203)">
<title>boards/olimexino&#45;stm32/include/gpio_params.h</title>
<!-- Node1 -->
<g id="node1" class="node">
<title>Node1</title>
<g id="a_node1"><a xlink:title="Board specific configuration of direct mapped GPIOs.">
<polygon fill="#bfbfbf" stroke="black" points="83.5,-168.5 83.5,-198.5 219.5,-198.5 219.5,-168.5 83.5,-168.5"/>
<text text-anchor="start" x="91.5" y="-186.5" font-family="Helvetica,sans-Serif" font-size="10.00">boards/olimexino&#45;stm32</text>
<text text-anchor="middle" x="151.5" y="-175.5" font-family="Helvetica,sans-Serif" font-size="10.00">/include/gpio_params.h</text>
</a>
</g>
</g>
<!-- Node2 -->
<g id="node2" class="node">
<title>Node2</title>
<g id="a_node2"><a xlink:href="olimexino-stm32_2include_2board_8h.html" target="_top" xlink:title="Board specific definitions for the OLIMEXINO STM32 board.">
<polygon fill="none" stroke="black" points="76,-112.5 76,-131.5 129,-131.5 129,-112.5 76,-112.5"/>
<text text-anchor="middle" x="102.5" y="-119.5" font-family="Helvetica,sans-Serif" font-size="10.00">board.h</text>
</a>
</g>
</g>
<!-- Node1&#45;&gt;Node2 -->
<g id="edge1" class="edge">
<title>Node1&#45;&gt;Node2</title>
<path fill="none" stroke="midnightblue" d="M139.89,-168.4C132.77,-159.75 123.62,-148.64 116.15,-139.58"/>
<polygon fill="midnightblue" stroke="midnightblue" points="118.69,-137.15 109.63,-131.66 113.29,-141.6 118.69,-137.15"/>
</g>
<!-- Node7 -->
<g id="node7" class="node">
<title>Node7</title>
<g id="a_node7"><a xlink:href="periph_8h.html" target="_top" xlink:title="Parameter definitions for mapping peripherals directly to SAUL.">
<polygon fill="none" stroke="black" points="211.5,-112.5 211.5,-131.5 291.5,-131.5 291.5,-112.5 211.5,-112.5"/>
<text text-anchor="middle" x="251.5" y="-119.5" font-family="Helvetica,sans-Serif" font-size="10.00">saul/periph.h</text>
</a>
</g>
</g>
<!-- Node1&#45;&gt;Node7 -->
<g id="edge6" class="edge">
<title>Node1&#45;&gt;Node7</title>
<path fill="none" stroke="midnightblue" d="M175.2,-168.4C191.23,-158.86 212.3,-146.32 228.24,-136.84"/>
<polygon fill="midnightblue" stroke="midnightblue" points="230.14,-139.78 236.95,-131.66 226.57,-133.76 230.14,-139.78"/>
</g>
<!-- Node3 -->
<g id="node3" class="node">
<title>Node3</title>
<g id="a_node3"><a xlink:title=" ">
<polygon fill="none" stroke="#bfbfbf" points="0,-56.5 0,-75.5 43,-75.5 43,-56.5 0,-56.5"/>
<text text-anchor="middle" x="21.5" y="-63.5" font-family="Helvetica,sans-Serif" font-size="10.00">cpu.h</text>
</a>
</g>
</g>
<!-- Node2&#45;&gt;Node3 -->
<g id="edge2" class="edge">
<title>Node2&#45;&gt;Node3</title>
<path fill="none" stroke="midnightblue" d="M89.49,-112.32C76.97,-103.98 57.82,-91.21 43.03,-81.35"/>
<polygon fill="midnightblue" stroke="midnightblue" points="44.74,-78.29 34.48,-75.65 40.86,-84.11 44.74,-78.29"/>
</g>
<!-- Node4 -->
<g id="node4" class="node">
<title>Node4</title>
<g id="a_node4"><a xlink:href="boards_2olimexino-stm32_2include_2periph__conf_8h.html" target="_top" xlink:title="Peripheral MCU configuration for the OLIMEXINO STM32 board.">
<polygon fill="none" stroke="black" points="61.5,-56.5 61.5,-75.5 143.5,-75.5 143.5,-56.5 61.5,-56.5"/>
<text text-anchor="middle" x="102.5" y="-63.5" font-family="Helvetica,sans-Serif" font-size="10.00">periph_conf.h</text>
</a>
</g>
</g>
<!-- Node2&#45;&gt;Node4 -->
<g id="edge3" class="edge">
<title>Node2&#45;&gt;Node4</title>
<path fill="none" stroke="midnightblue" d="M102.5,-112.08C102.5,-105.01 102.5,-94.86 102.5,-85.99"/>
<polygon fill="midnightblue" stroke="midnightblue" points="106,-85.75 102.5,-75.75 99,-85.75 106,-85.75"/>
</g>
<!-- Node5 -->
<g id="node5" class="node">
<title>Node5</title>
<g id="a_node5"><a xlink:title=" ">
<polygon fill="none" stroke="#bfbfbf" points="157,-0.5 157,-19.5 236,-19.5 236,-0.5 157,-0.5"/>
<text text-anchor="middle" x="196.5" y="-7.5" font-family="Helvetica,sans-Serif" font-size="10.00">periph_cpu.h</text>
</a>
</g>
</g>
<!-- Node4&#45;&gt;Node5 -->
<g id="edge4" class="edge">
<title>Node4&#45;&gt;Node5</title>
<path fill="none" stroke="midnightblue" d="M117.6,-56.32C132.4,-47.82 155.19,-34.73 172.48,-24.8"/>
<polygon fill="midnightblue" stroke="midnightblue" points="174.51,-27.67 181.43,-19.65 171.02,-21.6 174.51,-27.67"/>
</g>
<!-- Node6 -->
<g id="node6" class="node">
<title>Node6</title>
<g id="a_node6"><a xlink:title=" ">
<polygon fill="none" stroke="#bfbfbf" points="70,-0.5 70,-19.5 135,-19.5 135,-0.5 70,-0.5"/>
<text text-anchor="middle" x="102.5" y="-7.5" font-family="Helvetica,sans-Serif" font-size="10.00">clk_conf.h</text>
</a>
</g>
</g>
<!-- Node4&#45;&gt;Node6 -->
<g id="edge5" class="edge">
<title>Node4&#45;&gt;Node6</title>
<path fill="none" stroke="midnightblue" d="M102.5,-56.08C102.5,-49.01 102.5,-38.86 102.5,-29.99"/>
<polygon fill="midnightblue" stroke="midnightblue" points="106,-29.75 102.5,-19.75 99,-29.75 106,-29.75"/>
</g>
<!-- Node8 -->
<g id="node8" class="node">
<title>Node8</title>
<g id="a_node8"><a xlink:href="gpio_8h.html" target="_top" xlink:title="Low&#45;level GPIO peripheral driver interface definitions.">
<polygon fill="none" stroke="black" points="161.5,-56.5 161.5,-75.5 241.5,-75.5 241.5,-56.5 161.5,-56.5"/>
<text text-anchor="middle" x="201.5" y="-63.5" font-family="Helvetica,sans-Serif" font-size="10.00">periph/gpio.h</text>
</a>
</g>
</g>
<!-- Node7&#45;&gt;Node8 -->
<g id="edge7" class="edge">
<title>Node7&#45;&gt;Node8</title>
<path fill="none" stroke="midnightblue" d="M243.24,-112.08C236.04,-104.3 225.39,-92.8 216.65,-83.37"/>
<polygon fill="midnightblue" stroke="midnightblue" points="218.97,-80.71 209.6,-75.75 213.83,-85.47 218.97,-80.71"/>
</g>
<!-- Node11 -->
<g id="node11" class="node">
<title>Node11</title>
<g id="a_node11"><a xlink:href="adc_8h.html" target="_top" xlink:title="Low&#45;level ADC peripheral driver interface definitions.">
<polygon fill="none" stroke="black" points="361,-56.5 361,-75.5 438,-75.5 438,-56.5 361,-56.5"/>
<text text-anchor="middle" x="399.5" y="-63.5" font-family="Helvetica,sans-Serif" font-size="10.00">periph/adc.h</text>
</a>
</g>
</g>
<!-- Node7&#45;&gt;Node11 -->
<g id="edge11" class="edge">
<title>Node7&#45;&gt;Node11</title>
<path fill="none" stroke="midnightblue" d="M274.95,-112.44C299.63,-103.44 338.69,-89.19 366.48,-79.05"/>
<polygon fill="midnightblue" stroke="midnightblue" points="367.96,-82.23 376.16,-75.52 365.56,-75.66 367.96,-82.23"/>
</g>
<!-- Node13 -->
<g id="node13" class="node">
<title>Node13</title>
<g id="a_node13"><a xlink:href="pwm_8h.html" target="_top" xlink:title="Low&#45;level PWM peripheral driver interface definitions.">
<polygon fill="none" stroke="black" points="260,-56.5 260,-75.5 343,-75.5 343,-56.5 260,-56.5"/>
<text text-anchor="middle" x="301.5" y="-63.5" font-family="Helvetica,sans-Serif" font-size="10.00">periph/pwm.h</text>
</a>
</g>
</g>
<!-- Node7&#45;&gt;Node13 -->
<g id="edge16" class="edge">
<title>Node7&#45;&gt;Node13</title>
<path fill="none" stroke="midnightblue" d="M259.76,-112.08C266.96,-104.3 277.61,-92.8 286.35,-83.37"/>
<polygon fill="midnightblue" stroke="midnightblue" points="289.17,-85.47 293.4,-75.75 284.03,-80.71 289.17,-85.47"/>
</g>
<!-- Node8&#45;&gt;Node5 -->
<g id="edge9" class="edge">
<title>Node8&#45;&gt;Node5</title>
<path fill="none" stroke="midnightblue" d="M200.67,-56.08C200.02,-49.01 199.08,-38.86 198.26,-29.99"/>
<polygon fill="midnightblue" stroke="midnightblue" points="201.72,-29.39 197.31,-19.75 194.75,-30.03 201.72,-29.39"/>
</g>
<!-- Node9 -->
<g id="node9" class="node">
<title>Node9</title>
<g id="a_node9"><a xlink:title=" ">
<polygon fill="none" stroke="#bfbfbf" points="254,-0.5 254,-19.5 307,-19.5 307,-0.5 254,-0.5"/>
<text text-anchor="middle" x="280.5" y="-7.5" font-family="Helvetica,sans-Serif" font-size="10.00">limits.h</text>
</a>
</g>
</g>
<!-- Node8&#45;&gt;Node9 -->
<g id="edge8" class="edge">
<title>Node8&#45;&gt;Node9</title>
<path fill="none" stroke="midnightblue" d="M214.19,-56.32C226.4,-47.98 245.08,-35.21 259.5,-25.35"/>
<polygon fill="midnightblue" stroke="midnightblue" points="261.56,-28.19 267.84,-19.65 257.61,-22.41 261.56,-28.19"/>
</g>
<!-- Node10 -->
<g id="node10" class="node">
<title>Node10</title>
<g id="a_node10"><a xlink:title=" ">
<polygon fill="none" stroke="#bfbfbf" points="325.5,-0.5 325.5,-19.5 407.5,-19.5 407.5,-0.5 325.5,-0.5"/>
<text text-anchor="middle" x="366.5" y="-7.5" font-family="Helvetica,sans-Serif" font-size="10.00">periph_conf.h</text>
</a>
</g>
</g>
<!-- Node8&#45;&gt;Node10 -->
<g id="edge10" class="edge">
<title>Node8&#45;&gt;Node10</title>
<path fill="none" stroke="midnightblue" d="M227.64,-56.44C255.52,-47.32 299.85,-32.81 330.9,-22.65"/>
<polygon fill="midnightblue" stroke="midnightblue" points="332.06,-25.95 340.48,-19.52 329.88,-19.3 332.06,-25.95"/>
</g>
<!-- Node11&#45;&gt;Node5 -->
<g id="edge14" class="edge">
<title>Node11&#45;&gt;Node5</title>
<path fill="none" stroke="midnightblue" d="M367.33,-56.44C332.44,-47.16 276.61,-32.31 238.33,-22.13"/>
<polygon fill="midnightblue" stroke="midnightblue" points="239.08,-18.7 228.52,-19.52 237.28,-25.47 239.08,-18.7"/>
</g>
<!-- Node11&#45;&gt;Node9 -->
<g id="edge12" class="edge">
<title>Node11&#45;&gt;Node9</title>
<path fill="none" stroke="midnightblue" d="M380.64,-56.44C361.23,-47.64 330.77,-33.81 308.54,-23.72"/>
<polygon fill="midnightblue" stroke="midnightblue" points="309.82,-20.46 299.27,-19.52 306.93,-26.84 309.82,-20.46"/>
</g>
<!-- Node11&#45;&gt;Node10 -->
<g id="edge15" class="edge">
<title>Node11&#45;&gt;Node10</title>
<path fill="none" stroke="midnightblue" d="M394.05,-56.08C389.49,-48.61 382.83,-37.72 377.21,-28.52"/>
<polygon fill="midnightblue" stroke="midnightblue" points="380.05,-26.46 371.85,-19.75 374.08,-30.11 380.05,-26.46"/>
</g>
<!-- Node12 -->
<g id="node12" class="node">
<title>Node12</title>
<g id="a_node12"><a xlink:title=" ">
<polygon fill="none" stroke="#bfbfbf" points="426,-0.5 426,-19.5 479,-19.5 479,-0.5 426,-0.5"/>
<text text-anchor="middle" x="452.5" y="-7.5" font-family="Helvetica,sans-Serif" font-size="10.00">stdint.h</text>
</a>
</g>
</g>
<!-- Node11&#45;&gt;Node12 -->
<g id="edge13" class="edge">
<title>Node11&#45;&gt;Node12</title>
<path fill="none" stroke="midnightblue" d="M408.25,-56.08C415.97,-48.22 427.4,-36.57 436.72,-27.08"/>
<polygon fill="midnightblue" stroke="midnightblue" points="439.4,-29.34 443.91,-19.75 434.41,-24.44 439.4,-29.34"/>
</g>
<!-- Node13&#45;&gt;Node5 -->
<g id="edge19" class="edge">
<title>Node13&#45;&gt;Node5</title>
<path fill="none" stroke="midnightblue" d="M284.63,-56.32C267.79,-47.66 241.69,-34.24 222.26,-24.25"/>
<polygon fill="midnightblue" stroke="midnightblue" points="223.82,-21.12 213.33,-19.65 220.62,-27.34 223.82,-21.12"/>
</g>
<!-- Node13&#45;&gt;Node9 -->
<g id="edge18" class="edge">
<title>Node13&#45;&gt;Node9</title>
<path fill="none" stroke="midnightblue" d="M298.03,-56.08C295.19,-48.77 291.07,-38.18 287.54,-29.1"/>
<polygon fill="midnightblue" stroke="midnightblue" points="290.79,-27.8 283.9,-19.75 284.27,-30.34 290.79,-27.8"/>
</g>
<!-- Node13&#45;&gt;Node10 -->
<g id="edge20" class="edge">
<title>Node13&#45;&gt;Node10</title>
<path fill="none" stroke="midnightblue" d="M311.94,-56.32C321.65,-48.26 336.32,-36.08 348,-26.37"/>
<polygon fill="midnightblue" stroke="midnightblue" points="350.41,-28.92 355.87,-19.83 345.94,-23.53 350.41,-28.92"/>
</g>
<!-- Node13&#45;&gt;Node12 -->
<g id="edge17" class="edge">
<title>Node13&#45;&gt;Node12</title>
<path fill="none" stroke="midnightblue" d="M325.43,-56.44C350.72,-47.4 390.8,-33.06 419.18,-22.92"/>
<polygon fill="midnightblue" stroke="midnightblue" points="420.45,-26.18 428.69,-19.52 418.09,-19.59 420.45,-26.18"/>
</g>
</g>
</svg>
