<?xml version="1.0" encoding="UTF-8" standalone="no"?>
<!DOCTYPE svg PUBLIC "-//W3C//DTD SVG 1.1//EN"
 "http://www.w3.org/Graphics/SVG/1.1/DTD/svg11.dtd">
<!-- Generated by graphviz version 2.43.0 (0)
 -->
<!-- Title: pkg/openwsn/include/openwsn_board.h Pages: 1 -->
<svg width="324pt" height="207pt"
 viewBox="0.00 0.00 323.91 207.00" xmlns="http://www.w3.org/2000/svg" xmlns:xlink="http://www.w3.org/1999/xlink">
<g id="graph0" class="graph" transform="scale(1 1) rotate(0) translate(4 203)">
<title>pkg/openwsn/include/openwsn_board.h</title>
<!-- Node1 -->
<g id="node1" class="node">
<title>Node1</title>
<g id="a_node1"><a xlink:title="RIOT adaption&#45;specific definition of the &quot;uart&quot; bsp module.">
<polygon fill="#bfbfbf" stroke="black" points="51.91,-168.5 51.91,-198.5 170.91,-198.5 170.91,-168.5 51.91,-168.5"/>
<text text-anchor="start" x="59.91" y="-186.5" font-family="Helvetica,sans-Serif" font-size="10.00">pkg/openwsn/include</text>
<text text-anchor="middle" x="111.41" y="-175.5" font-family="Helvetica,sans-Serif" font-size="10.00">/openwsn_board.h</text>
</a>
</g>
</g>
<!-- Node2 -->
<g id="node2" class="node">
<title>Node2</title>
<g id="a_node2"><a xlink:href="board__info_8h.html" target="_top" xlink:title=" ">
<polygon fill="none" stroke="black" points="72.91,-112.5 72.91,-131.5 149.91,-131.5 149.91,-112.5 72.91,-112.5"/>
<text text-anchor="middle" x="111.41" y="-119.5" font-family="Helvetica,sans-Serif" font-size="10.00">board_info.h</text>
</a>
</g>
</g>
<!-- Node1&#45;&gt;Node2 -->
<g id="edge1" class="edge">
<title>Node1&#45;&gt;Node2</title>
<path fill="none" stroke="midnightblue" d="M111.41,-168.4C111.41,-160.47 111.41,-150.46 111.41,-141.86"/>
<polygon fill="midnightblue" stroke="midnightblue" points="114.91,-141.66 111.41,-131.66 107.91,-141.66 114.91,-141.66"/>
</g>
<!-- Node3 -->
<g id="node3" class="node">
<title>Node3</title>
<g id="a_node3"><a xlink:title=" ">
<polygon fill="none" stroke="#bfbfbf" points="69.91,-0.5 69.91,-19.5 122.91,-19.5 122.91,-0.5 69.91,-0.5"/>
<text text-anchor="middle" x="96.41" y="-7.5" font-family="Helvetica,sans-Serif" font-size="10.00">stdint.h</text>
</a>
</g>
</g>
<!-- Node2&#45;&gt;Node3 -->
<g id="edge2" class="edge">
<title>Node2&#45;&gt;Node3</title>
<path fill="none" stroke="midnightblue" d="M72.65,-115.59C48.61,-110.02 19.52,-98.75 4.41,-76 -12.9,-49.94 27.34,-31.07 59.97,-20.58"/>
<polygon fill="midnightblue" stroke="midnightblue" points="61.23,-23.85 69.78,-17.59 59.19,-17.16 61.23,-23.85"/>
</g>
<!-- Node4 -->
<g id="node4" class="node">
<title>Node4</title>
<g id="a_node4"><a xlink:title=" ">
<polygon fill="none" stroke="#bfbfbf" points="13.91,-56.5 13.91,-75.5 66.91,-75.5 66.91,-56.5 13.91,-56.5"/>
<text text-anchor="middle" x="40.41" y="-63.5" font-family="Helvetica,sans-Serif" font-size="10.00">string.h</text>
</a>
</g>
</g>
<!-- Node2&#45;&gt;Node4 -->
<g id="edge3" class="edge">
<title>Node2&#45;&gt;Node4</title>
<path fill="none" stroke="midnightblue" d="M100.01,-112.32C89.3,-104.18 73.07,-91.84 60.25,-82.09"/>
<polygon fill="midnightblue" stroke="midnightblue" points="62.11,-79.1 52.03,-75.83 57.87,-84.67 62.11,-79.1"/>
</g>
<!-- Node5 -->
<g id="node5" class="node">
<title>Node5</title>
<g id="a_node5"><a xlink:title=" ">
<polygon fill="none" stroke="#bfbfbf" points="84.91,-56.5 84.91,-75.5 137.91,-75.5 137.91,-56.5 84.91,-56.5"/>
<text text-anchor="middle" x="111.41" y="-63.5" font-family="Helvetica,sans-Serif" font-size="10.00">board.h</text>
</a>
</g>
</g>
<!-- Node2&#45;&gt;Node5 -->
<g id="edge4" class="edge">
<title>Node2&#45;&gt;Node5</title>
<path fill="none" stroke="midnightblue" d="M111.41,-112.08C111.41,-105.01 111.41,-94.86 111.41,-85.99"/>
<polygon fill="midnightblue" stroke="midnightblue" points="114.91,-85.75 111.41,-75.75 107.91,-85.75 114.91,-85.75"/>
</g>
<!-- Node6 -->
<g id="node6" class="node">
<title>Node6</title>
<g id="a_node6"><a xlink:title=" ">
<polygon fill="none" stroke="#bfbfbf" points="156.41,-56.5 156.41,-75.5 238.41,-75.5 238.41,-56.5 156.41,-56.5"/>
<text text-anchor="middle" x="197.41" y="-63.5" font-family="Helvetica,sans-Serif" font-size="10.00">periph_conf.h</text>
</a>
</g>
</g>
<!-- Node2&#45;&gt;Node6 -->
<g id="edge5" class="edge">
<title>Node2&#45;&gt;Node6</title>
<path fill="none" stroke="midnightblue" d="M125.23,-112.32C138.65,-103.9 159.24,-90.97 175,-81.07"/>
<polygon fill="midnightblue" stroke="midnightblue" points="177.02,-83.94 183.63,-75.65 173.3,-78.01 177.02,-83.94"/>
</g>
<!-- Node7 -->
<g id="node7" class="node">
<title>Node7</title>
<g id="a_node7"><a xlink:href="timex_8h.html" target="_top" xlink:title="Utility library for comparing and computing timestamps.">
<polygon fill="none" stroke="black" points="256.41,-56.5 256.41,-75.5 310.41,-75.5 310.41,-56.5 256.41,-56.5"/>
<text text-anchor="middle" x="283.41" y="-63.5" font-family="Helvetica,sans-Serif" font-size="10.00">timex.h</text>
</a>
</g>
</g>
<!-- Node2&#45;&gt;Node7 -->
<g id="edge6" class="edge">
<title>Node2&#45;&gt;Node7</title>
<path fill="none" stroke="midnightblue" d="M138.67,-112.44C167.85,-103.28 214.33,-88.69 246.72,-78.52"/>
<polygon fill="midnightblue" stroke="midnightblue" points="247.79,-81.85 256.29,-75.52 245.7,-75.17 247.79,-81.85"/>
</g>
<!-- Node7&#45;&gt;Node3 -->
<g id="edge7" class="edge">
<title>Node7&#45;&gt;Node3</title>
<path fill="none" stroke="midnightblue" d="M256.22,-57.15C223.63,-47.74 168.89,-31.93 132.71,-21.48"/>
<polygon fill="midnightblue" stroke="midnightblue" points="133.61,-18.1 123.03,-18.69 131.67,-24.82 133.61,-18.1"/>
</g>
<!-- Node8 -->
<g id="node8" class="node">
<title>Node8</title>
<g id="a_node8"><a xlink:href="inttypes_8h.html" target="_top" xlink:title="Adds include for missing inttype definitions.">
<polygon fill="none" stroke="black" points="250.91,-0.5 250.91,-19.5 315.91,-19.5 315.91,-0.5 250.91,-0.5"/>
<text text-anchor="middle" x="283.41" y="-7.5" font-family="Helvetica,sans-Serif" font-size="10.00">inttypes.h</text>
</a>
</g>
</g>
<!-- Node7&#45;&gt;Node8 -->
<g id="edge8" class="edge">
<title>Node7&#45;&gt;Node8</title>
<path fill="none" stroke="midnightblue" d="M283.41,-56.08C283.41,-49.01 283.41,-38.86 283.41,-29.99"/>
<polygon fill="midnightblue" stroke="midnightblue" points="286.91,-29.75 283.41,-19.75 279.91,-29.75 286.91,-29.75"/>
</g>
</g>
</svg>
