<?xml version="1.0" encoding="UTF-8" standalone="no"?>
<!DOCTYPE svg PUBLIC "-//W3C//DTD SVG 1.1//EN"
 "http://www.w3.org/Graphics/SVG/1.1/DTD/svg11.dtd">
<!-- Generated by graphviz version 2.40.1 (20161225.0304)
 -->
<!-- Title: drivers/opt3001/include/opt3001_params.h Pages: 1 -->
<svg width="572pt" height="319pt"
 viewBox="0.00 0.00 572.00 319.00" xmlns="http://www.w3.org/2000/svg" xmlns:xlink="http://www.w3.org/1999/xlink">
<g id="graph0" class="graph" transform="scale(1 1) rotate(0) translate(4 315)">
<title>drivers/opt3001/include/opt3001_params.h</title>
<!-- Node0 -->
<g id="node1" class="node">
<title>Node0</title>
<polygon fill="#bfbfbf" stroke="#000000" points="73.5,-280.5 73.5,-310.5 190.5,-310.5 190.5,-280.5 73.5,-280.5"/>
<text text-anchor="start" x="81.5" y="-298.5" font-family="Helvetica,sans-Serif" font-size="10.00" fill="#000000">drivers/opt3001/include</text>
<text text-anchor="middle" x="132" y="-287.5" font-family="Helvetica,sans-Serif" font-size="10.00" fill="#000000">/opt3001_params.h</text>
</g>
<!-- Node1 -->
<g id="node2" class="node">
<title>Node1</title>
<polygon fill="none" stroke="#bfbfbf" points="33.5,-224.5 33.5,-243.5 82.5,-243.5 82.5,-224.5 33.5,-224.5"/>
<text text-anchor="middle" x="58" y="-231.5" font-family="Helvetica,sans-Serif" font-size="10.00" fill="#000000">board.h</text>
</g>
<!-- Node0&#45;&gt;Node1 -->
<g id="edge1" class="edge">
<title>Node0&#45;&gt;Node1</title>
<path fill="none" stroke="#191970" d="M113.7079,-280.2977C102.7939,-271.2274 88.9329,-259.7077 77.7676,-250.4285"/>
<polygon fill="#191970" stroke="#191970" points="79.7762,-247.5468 69.8483,-243.8469 75.302,-252.9303 79.7762,-247.5468"/>
</g>
<!-- Node2 -->
<g id="node3" class="node">
<title>Node2</title>
<g id="a_node3"><a xlink:href="opt3001_8h.html" target="_top" xlink:title="Interface definition for the OPT3001 sensor driver. ">
<polygon fill="none" stroke="#000000" points="223.5,-168.5 223.5,-187.5 282.5,-187.5 282.5,-168.5 223.5,-168.5"/>
<text text-anchor="middle" x="253" y="-175.5" font-family="Helvetica,sans-Serif" font-size="10.00" fill="#000000">opt3001.h</text>
</a>
</g>
</g>
<!-- Node0&#45;&gt;Node2 -->
<g id="edge2" class="edge">
<title>Node0&#45;&gt;Node2</title>
<path fill="none" stroke="#191970" d="M147.8186,-280.1389C170.6098,-258.007 212.5149,-217.314 235.9649,-194.5423"/>
<polygon fill="#191970" stroke="#191970" points="238.42,-197.037 243.1558,-187.5595 233.5434,-192.0151 238.42,-197.037"/>
</g>
<!-- Node11 -->
<g id="node12" class="node">
<title>Node11</title>
<g id="a_node12"><a xlink:href="saul__reg_8h.html" target="_top" xlink:title="SAUL registry interface definition. ">
<polygon fill="none" stroke="#000000" points="101,-224.5 101,-243.5 163,-243.5 163,-224.5 101,-224.5"/>
<text text-anchor="middle" x="132" y="-231.5" font-family="Helvetica,sans-Serif" font-size="10.00" fill="#000000">saul_reg.h</text>
</a>
</g>
</g>
<!-- Node0&#45;&gt;Node11 -->
<g id="edge14" class="edge">
<title>Node0&#45;&gt;Node11</title>
<path fill="none" stroke="#191970" d="M132,-280.2977C132,-272.3834 132,-262.6043 132,-254.0759"/>
<polygon fill="#191970" stroke="#191970" points="135.5001,-253.8469 132,-243.8469 128.5001,-253.847 135.5001,-253.8469"/>
</g>
<!-- Node3 -->
<g id="node4" class="node">
<title>Node3</title>
<polygon fill="none" stroke="#bfbfbf" points="160.5,-56.5 160.5,-75.5 209.5,-75.5 209.5,-56.5 160.5,-56.5"/>
<text text-anchor="middle" x="185" y="-63.5" font-family="Helvetica,sans-Serif" font-size="10.00" fill="#000000">stdint.h</text>
</g>
<!-- Node2&#45;&gt;Node3 -->
<g id="edge3" class="edge">
<title>Node2&#45;&gt;Node3</title>
<path fill="none" stroke="#191970" d="M252.6646,-168.3496C251.802,-154.8421 248.7488,-129.9427 238,-112 230.8582,-100.0784 219.559,-89.6484 209.2248,-81.7474"/>
<polygon fill="#191970" stroke="#191970" points="211.0408,-78.7418 200.8836,-75.7282 206.9446,-84.4181 211.0408,-78.7418"/>
</g>
<!-- Node4 -->
<g id="node5" class="node">
<title>Node4</title>
<g id="a_node5"><a xlink:href="i2c_8h.html" target="_top" xlink:title="Low&#45;level I2C peripheral driver interface definition. ">
<polygon fill="none" stroke="#000000" points="290.5,-112.5 290.5,-131.5 357.5,-131.5 357.5,-112.5 290.5,-112.5"/>
<text text-anchor="middle" x="324" y="-119.5" font-family="Helvetica,sans-Serif" font-size="10.00" fill="#000000">periph/i2c.h</text>
</a>
</g>
</g>
<!-- Node2&#45;&gt;Node4 -->
<g id="edge4" class="edge">
<title>Node2&#45;&gt;Node4</title>
<path fill="none" stroke="#191970" d="M265.3673,-168.2455C275.9554,-159.8943 291.4064,-147.7076 303.7893,-137.9408"/>
<polygon fill="#191970" stroke="#191970" points="306.0903,-140.5837 311.7745,-131.6427 301.7553,-135.0875 306.0903,-140.5837"/>
</g>
<!-- Node10 -->
<g id="node11" class="node">
<title>Node10</title>
<g id="a_node11"><a xlink:href="kernel__defines_8h.html" target="_top" xlink:title="Common macros and compiler attributes/pragmas configuration. ">
<polygon fill="none" stroke="#000000" points="55,-56.5 55,-75.5 143,-75.5 143,-56.5 55,-56.5"/>
<text text-anchor="middle" x="99" y="-63.5" font-family="Helvetica,sans-Serif" font-size="10.00" fill="#000000">kernel_defines.h</text>
</a>
</g>
</g>
<!-- Node2&#45;&gt;Node10 -->
<g id="edge12" class="edge">
<title>Node2&#45;&gt;Node10</title>
<path fill="none" stroke="#191970" d="M239.87,-168.4509C213.2755,-149.1094 152.8265,-105.1465 120.4368,-81.5904"/>
<polygon fill="#191970" stroke="#191970" points="122.2427,-78.5761 112.0967,-75.5249 118.1255,-84.2372 122.2427,-78.5761"/>
</g>
<!-- Node4&#45;&gt;Node3 -->
<g id="edge5" class="edge">
<title>Node4&#45;&gt;Node3</title>
<path fill="none" stroke="#191970" d="M300.105,-112.3733C277.4918,-103.2629 243.3458,-89.5062 218.1127,-79.3404"/>
<polygon fill="#191970" stroke="#191970" points="219.1666,-75.9917 208.5831,-75.5011 216.5507,-82.4845 219.1666,-75.9917"/>
</g>
<!-- Node5 -->
<g id="node6" class="node">
<title>Node5</title>
<polygon fill="none" stroke="#bfbfbf" points="73,-.5 73,-19.5 125,-19.5 125,-.5 73,-.5"/>
<text text-anchor="middle" x="99" y="-7.5" font-family="Helvetica,sans-Serif" font-size="10.00" fill="#000000">stddef.h</text>
</g>
<!-- Node4&#45;&gt;Node5 -->
<g id="edge6" class="edge">
<title>Node4&#45;&gt;Node5</title>
<path fill="none" stroke="#191970" d="M310.4231,-112.3817C290.711,-98.6913 252.721,-73.3273 218,-56 190.9474,-42.4996 158.9115,-30.3181 134.8977,-21.8872"/>
<polygon fill="#191970" stroke="#191970" points="135.73,-18.4716 125.1352,-18.5107 133.4419,-25.0871 135.73,-18.4716"/>
</g>
<!-- Node6 -->
<g id="node7" class="node">
<title>Node6</title>
<polygon fill="none" stroke="#bfbfbf" points="394,-56.5 394,-75.5 442,-75.5 442,-56.5 394,-56.5"/>
<text text-anchor="middle" x="418" y="-63.5" font-family="Helvetica,sans-Serif" font-size="10.00" fill="#000000">limits.h</text>
</g>
<!-- Node4&#45;&gt;Node6 -->
<g id="edge7" class="edge">
<title>Node4&#45;&gt;Node6</title>
<path fill="none" stroke="#191970" d="M340.3736,-112.2455C354.9308,-103.5731 376.431,-90.7645 393.1152,-80.825"/>
<polygon fill="#191970" stroke="#191970" points="395.0144,-83.7676 401.8141,-75.6427 391.4317,-77.7539 395.0144,-83.7676"/>
</g>
<!-- Node7 -->
<g id="node8" class="node">
<title>Node7</title>
<polygon fill="none" stroke="#bfbfbf" points="401.5,-.5 401.5,-19.5 476.5,-19.5 476.5,-.5 401.5,-.5"/>
<text text-anchor="middle" x="439" y="-7.5" font-family="Helvetica,sans-Serif" font-size="10.00" fill="#000000">periph_conf.h</text>
</g>
<!-- Node4&#45;&gt;Node7 -->
<g id="edge8" class="edge">
<title>Node4&#45;&gt;Node7</title>
<path fill="none" stroke="#191970" d="M332.3452,-112.2649C343.7887,-99.0833 365.1932,-75.0208 385,-56 395.7939,-45.6344 408.5076,-34.7449 418.8865,-26.1644"/>
<polygon fill="#191970" stroke="#191970" points="421.1037,-28.8726 426.6284,-19.8322 416.6719,-23.4542 421.1037,-28.8726"/>
</g>
<!-- Node8 -->
<g id="node9" class="node">
<title>Node8</title>
<polygon fill="none" stroke="#bfbfbf" points="266,-56.5 266,-75.5 338,-75.5 338,-56.5 266,-56.5"/>
<text text-anchor="middle" x="302" y="-63.5" font-family="Helvetica,sans-Serif" font-size="10.00" fill="#000000">periph_cpu.h</text>
</g>
<!-- Node4&#45;&gt;Node8 -->
<g id="edge9" class="edge">
<title>Node4&#45;&gt;Node8</title>
<path fill="none" stroke="#191970" d="M320.1679,-112.2455C317.2341,-104.7776 313.0953,-94.2427 309.509,-85.1137"/>
<polygon fill="#191970" stroke="#191970" points="312.7024,-83.6704 305.7882,-75.6427 306.1871,-86.23 312.7024,-83.6704"/>
</g>
<!-- Node9 -->
<g id="node10" class="node">
<title>Node9</title>
<g id="a_node10"><a xlink:href="dev__enums_8h.html" target="_top" xlink:title="Device enumerations for backward compatibility with existing peripheral driver implementations. ">
<polygon fill="none" stroke="#000000" points="460,-56.5 460,-75.5 564,-75.5 564,-56.5 460,-56.5"/>
<text text-anchor="middle" x="512" y="-63.5" font-family="Helvetica,sans-Serif" font-size="10.00" fill="#000000">periph/dev_enums.h</text>
</a>
</g>
</g>
<!-- Node4&#45;&gt;Node9 -->
<g id="edge10" class="edge">
<title>Node4&#45;&gt;Node9</title>
<path fill="none" stroke="#191970" d="M356.3184,-112.3733C387.8506,-102.9807 435.9621,-88.6496 470.3501,-78.4064"/>
<polygon fill="#191970" stroke="#191970" points="471.5187,-81.7103 480.1034,-75.5011 469.5203,-75.0016 471.5187,-81.7103"/>
</g>
<!-- Node9&#45;&gt;Node7 -->
<g id="edge11" class="edge">
<title>Node9&#45;&gt;Node7</title>
<path fill="none" stroke="#191970" d="M499.2844,-56.2455C488.398,-47.8943 472.5117,-35.7076 459.78,-25.9408"/>
<polygon fill="#191970" stroke="#191970" points="461.6346,-22.9523 451.5699,-19.6427 457.3739,-28.5063 461.6346,-22.9523"/>
</g>
<!-- Node10&#45;&gt;Node5 -->
<g id="edge13" class="edge">
<title>Node10&#45;&gt;Node5</title>
<path fill="none" stroke="#191970" d="M99,-56.2455C99,-48.9382 99,-38.6944 99,-29.7046"/>
<polygon fill="#191970" stroke="#191970" points="102.5001,-29.6426 99,-19.6427 95.5001,-29.6427 102.5001,-29.6426"/>
</g>
<!-- Node11&#45;&gt;Node3 -->
<g id="edge15" class="edge">
<title>Node11&#45;&gt;Node3</title>
<path fill="none" stroke="#191970" d="M135.0014,-224.4862C143.4157,-197.8144 167.3612,-121.9117 178.7867,-85.695"/>
<polygon fill="#191970" stroke="#191970" points="182.2287,-86.4176 181.8995,-75.8279 175.553,-84.3115 182.2287,-86.4176"/>
</g>
<!-- Node12 -->
<g id="node13" class="node">
<title>Node12</title>
<g id="a_node13"><a xlink:href="saul_8h.html" target="_top" xlink:title="Definition of the generic [S]ensor [A]ctuator [U]ber [L]ayer. ">
<polygon fill="none" stroke="#000000" points="86.5,-168.5 86.5,-187.5 129.5,-187.5 129.5,-168.5 86.5,-168.5"/>
<text text-anchor="middle" x="108" y="-175.5" font-family="Helvetica,sans-Serif" font-size="10.00" fill="#000000">saul.h</text>
</a>
</g>
</g>
<!-- Node11&#45;&gt;Node12 -->
<g id="edge16" class="edge">
<title>Node11&#45;&gt;Node12</title>
<path fill="none" stroke="#191970" d="M127.8195,-224.2455C124.619,-216.7776 120.104,-206.2427 116.1916,-197.1137"/>
<polygon fill="#191970" stroke="#191970" points="119.2888,-195.4554 112.1326,-187.6427 112.8548,-198.2129 119.2888,-195.4554"/>
</g>
<!-- Node14 -->
<g id="node15" class="node">
<title>Node14</title>
<g id="a_node15"><a xlink:href="phydat_8h.html" target="_top" xlink:title="Generic data container for physical data interface. ">
<polygon fill="none" stroke="#000000" points="0,-112.5 0,-131.5 54,-131.5 54,-112.5 0,-112.5"/>
<text text-anchor="middle" x="27" y="-119.5" font-family="Helvetica,sans-Serif" font-size="10.00" fill="#000000">phydat.h</text>
</a>
</g>
</g>
<!-- Node11&#45;&gt;Node14 -->
<g id="edge23" class="edge">
<title>Node11&#45;&gt;Node14</title>
<path fill="none" stroke="#191970" d="M118.6065,-224.1749C106.9952,-215.3461 90.053,-201.6977 77,-188 62.8188,-173.1184 48.8793,-154.2685 39.3364,-140.5272"/>
<polygon fill="#191970" stroke="#191970" points="42.0082,-138.2327 33.4833,-131.9416 36.2244,-142.1758 42.0082,-138.2327"/>
</g>
<!-- Node12&#45;&gt;Node3 -->
<g id="edge17" class="edge">
<title>Node12&#45;&gt;Node3</title>
<path fill="none" stroke="#191970" d="M114.565,-168.4509C127.4077,-149.7707 156.0399,-108.1238 172.5726,-84.0761"/>
<polygon fill="#191970" stroke="#191970" points="175.6705,-85.7482 178.4516,-75.5249 169.9022,-81.7825 175.6705,-85.7482"/>
</g>
<!-- Node13 -->
<g id="node14" class="node">
<title>Node13</title>
<g id="a_node14"><a xlink:href="errno_8h.html" target="_top" xlink:title="errno.h">
<polygon fill="none" stroke="#000000" points="72.5,-112.5 72.5,-131.5 119.5,-131.5 119.5,-112.5 72.5,-112.5"/>
<text text-anchor="middle" x="96" y="-119.5" font-family="Helvetica,sans-Serif" font-size="10.00" fill="#000000">errno.h</text>
</a>
</g>
</g>
<!-- Node12&#45;&gt;Node13 -->
<g id="edge18" class="edge">
<title>Node12&#45;&gt;Node13</title>
<path fill="none" stroke="#191970" d="M105.9098,-168.2455C104.3439,-160.9382 102.1488,-150.6944 100.2224,-141.7046"/>
<polygon fill="#191970" stroke="#191970" points="103.584,-140.6873 98.0663,-131.6427 96.7393,-142.1541 103.584,-140.6873"/>
</g>
<!-- Node12&#45;&gt;Node14 -->
<g id="edge19" class="edge">
<title>Node12&#45;&gt;Node14</title>
<path fill="none" stroke="#191970" d="M93.8909,-168.2455C81.5791,-159.7337 63.5042,-147.2375 49.2462,-137.3801"/>
<polygon fill="#191970" stroke="#191970" points="51.1634,-134.4506 40.9474,-131.6427 47.1826,-140.2085 51.1634,-134.4506"/>
</g>
<!-- Node14&#45;&gt;Node3 -->
<g id="edge21" class="edge">
<title>Node14&#45;&gt;Node3</title>
<path fill="none" stroke="#191970" d="M54.1612,-112.3733C80.8381,-102.9181 121.6349,-88.4585 150.5722,-78.2023"/>
<polygon fill="#191970" stroke="#191970" points="152.0142,-81.4046 160.2704,-74.7649 149.6757,-74.8067 152.0142,-81.4046"/>
</g>
<!-- Node14&#45;&gt;Node5 -->
<g id="edge20" class="edge">
<title>Node14&#45;&gt;Node5</title>
<path fill="none" stroke="#191970" d="M28.0362,-112.3349C29.8552,-98.81 34.58,-73.8899 46,-56 53.58,-44.1257 65.1247,-33.5938 75.5064,-25.6141"/>
<polygon fill="#191970" stroke="#191970" points="77.8221,-28.2572 83.8409,-19.5379 73.6984,-22.6008 77.8221,-28.2572"/>
</g>
<!-- Node14&#45;&gt;Node10 -->
<g id="edge22" class="edge">
<title>Node14&#45;&gt;Node10</title>
<path fill="none" stroke="#191970" d="M39.5414,-112.2455C50.2787,-103.8943 65.9473,-91.7076 78.5047,-81.9408"/>
<polygon fill="#191970" stroke="#191970" points="80.8575,-84.5449 86.6023,-75.6427 76.5599,-79.0194 80.8575,-84.5449"/>
</g>
</g>
</svg>
