<?xml version="1.0" encoding="UTF-8" standalone="no"?>
<!DOCTYPE svg PUBLIC "-//W3C//DTD SVG 1.1//EN"
 "http://www.w3.org/Graphics/SVG/1.1/DTD/svg11.dtd">
<!-- Generated by graphviz version 2.43.0 (0)
 -->
<!-- Title: sys/include/net/gnrc/rpl/p2p_structs.h Pages: 1 -->
<svg width="1265pt" height="711pt"
 viewBox="0.00 0.00 1265.00 711.00" xmlns="http://www.w3.org/2000/svg" xmlns:xlink="http://www.w3.org/1999/xlink">
<g id="graph0" class="graph" transform="scale(1 1) rotate(0) translate(4 707)">
<title>sys/include/net/gnrc/rpl/p2p_structs.h</title>
<!-- Node1 -->
<g id="node1" class="node">
<title>Node1</title>
<g id="a_node1"><a xlink:title="P2P&#45;RPL data structs.">
<polygon fill="#bfbfbf" stroke="black" points="1091,-672.5 1091,-702.5 1205,-702.5 1205,-672.5 1091,-672.5"/>
<text text-anchor="start" x="1099" y="-690.5" font-family="Helvetica,sans-Serif" font-size="10.00">sys/include/net/gnrc</text>
<text text-anchor="middle" x="1148" y="-679.5" font-family="Helvetica,sans-Serif" font-size="10.00">/rpl/p2p_structs.h</text>
</a>
</g>
</g>
<!-- Node2 -->
<g id="node2" class="node">
<title>Node2</title>
<g id="a_node2"><a xlink:href="ipv6_2addr_8h.html" target="_top" xlink:title="Definitions for IPv6 addresses.">
<polygon fill="none" stroke="black" points="1167,-280.5 1167,-299.5 1257,-299.5 1257,-280.5 1167,-280.5"/>
<text text-anchor="middle" x="1212" y="-287.5" font-family="Helvetica,sans-Serif" font-size="10.00">net/ipv6/addr.h</text>
</a>
</g>
</g>
<!-- Node1&#45;&gt;Node2 -->
<g id="edge1" class="edge">
<title>Node1&#45;&gt;Node2</title>
<path fill="none" stroke="midnightblue" d="M1162.87,-672.36C1182.61,-651.98 1215,-612.26 1215,-571 1215,-571 1215,-571 1215,-401 1215,-368.94 1213.71,-331.63 1212.82,-309.74"/>
<polygon fill="midnightblue" stroke="midnightblue" points="1216.31,-309.4 1212.39,-299.56 1209.32,-309.69 1216.31,-309.4"/>
</g>
<!-- Node10 -->
<g id="node10" class="node">
<title>Node10</title>
<g id="a_node10"><a xlink:href="structs_8h.html" target="_top" xlink:title="RPL data structs.">
<polygon fill="none" stroke="black" points="1046.5,-616.5 1046.5,-635.5 1163.5,-635.5 1163.5,-616.5 1046.5,-616.5"/>
<text text-anchor="middle" x="1105" y="-623.5" font-family="Helvetica,sans-Serif" font-size="10.00">net/gnrc/rpl/structs.h</text>
</a>
</g>
</g>
<!-- Node1&#45;&gt;Node10 -->
<g id="edge13" class="edge">
<title>Node1&#45;&gt;Node10</title>
<path fill="none" stroke="midnightblue" d="M1137.81,-672.4C1131.63,-663.84 1123.7,-652.87 1117.18,-643.86"/>
<polygon fill="midnightblue" stroke="midnightblue" points="1119.95,-641.71 1111.26,-635.66 1114.28,-645.81 1119.95,-641.71"/>
</g>
<!-- Node3 -->
<g id="node3" class="node">
<title>Node3</title>
<g id="a_node3"><a xlink:title=" ">
<polygon fill="none" stroke="#bfbfbf" points="862,-168.5 862,-187.5 924,-187.5 924,-168.5 862,-168.5"/>
<text text-anchor="middle" x="893" y="-175.5" font-family="Helvetica,sans-Serif" font-size="10.00">stdbool.h</text>
</a>
</g>
</g>
<!-- Node2&#45;&gt;Node3 -->
<g id="edge2" class="edge">
<title>Node2&#45;&gt;Node3</title>
<path fill="none" stroke="midnightblue" d="M1166.87,-282.54C1125.64,-275.78 1063.45,-263.4 1012,-244 976.19,-230.49 937.86,-207.92 914.66,-193.25"/>
<polygon fill="midnightblue" stroke="midnightblue" points="916.29,-190.13 905.98,-187.68 912.51,-196.03 916.29,-190.13"/>
</g>
<!-- Node4 -->
<g id="node4" class="node">
<title>Node4</title>
<g id="a_node4"><a xlink:title=" ">
<polygon fill="none" stroke="#bfbfbf" points="1167.5,-224.5 1167.5,-243.5 1220.5,-243.5 1220.5,-224.5 1167.5,-224.5"/>
<text text-anchor="middle" x="1194" y="-231.5" font-family="Helvetica,sans-Serif" font-size="10.00">string.h</text>
</a>
</g>
</g>
<!-- Node2&#45;&gt;Node4 -->
<g id="edge3" class="edge">
<title>Node2&#45;&gt;Node4</title>
<path fill="none" stroke="midnightblue" d="M1209.03,-280.08C1206.62,-272.85 1203.14,-262.41 1200.13,-253.4"/>
<polygon fill="midnightblue" stroke="midnightblue" points="1203.4,-252.13 1196.92,-243.75 1196.76,-254.34 1203.4,-252.13"/>
</g>
<!-- Node5 -->
<g id="node5" class="node">
<title>Node5</title>
<g id="a_node5"><a xlink:href="byteorder_8h.html" target="_top" xlink:title="Functions to work with different byte orders.">
<polygon fill="none" stroke="black" points="1102.5,-168.5 1102.5,-187.5 1175.5,-187.5 1175.5,-168.5 1102.5,-168.5"/>
<text text-anchor="middle" x="1139" y="-175.5" font-family="Helvetica,sans-Serif" font-size="10.00">byteorder.h</text>
</a>
</g>
</g>
<!-- Node2&#45;&gt;Node5 -->
<g id="edge4" class="edge">
<title>Node2&#45;&gt;Node5</title>
<path fill="none" stroke="midnightblue" d="M1218.46,-280.38C1227.4,-267.32 1241.24,-242.1 1230,-224 1219.96,-207.83 1202.19,-197.29 1185.01,-190.52"/>
<polygon fill="midnightblue" stroke="midnightblue" points="1186.17,-187.22 1175.57,-187.13 1183.8,-193.8 1186.17,-187.22"/>
</g>
<!-- Node8 -->
<g id="node8" class="node">
<title>Node8</title>
<g id="a_node8"><a xlink:href="ipv4_2addr_8h.html" target="_top" xlink:title="IPv6 address type and helper functions definitions.">
<polygon fill="none" stroke="black" points="1021,-224.5 1021,-243.5 1111,-243.5 1111,-224.5 1021,-224.5"/>
<text text-anchor="middle" x="1066" y="-231.5" font-family="Helvetica,sans-Serif" font-size="10.00">net/ipv4/addr.h</text>
</a>
</g>
</g>
<!-- Node2&#45;&gt;Node8 -->
<g id="edge8" class="edge">
<title>Node2&#45;&gt;Node8</title>
<path fill="none" stroke="midnightblue" d="M1188.87,-280.44C1164.52,-271.44 1125.99,-257.19 1098.58,-247.05"/>
<polygon fill="midnightblue" stroke="midnightblue" points="1099.62,-243.7 1089.03,-243.52 1097.19,-250.27 1099.62,-243.7"/>
</g>
<!-- Node6 -->
<g id="node6" class="node">
<title>Node6</title>
<g id="a_node6"><a xlink:title=" ">
<polygon fill="none" stroke="#bfbfbf" points="736.5,-0.5 736.5,-19.5 789.5,-19.5 789.5,-0.5 736.5,-0.5"/>
<text text-anchor="middle" x="763" y="-7.5" font-family="Helvetica,sans-Serif" font-size="10.00">stdint.h</text>
</a>
</g>
</g>
<!-- Node5&#45;&gt;Node6 -->
<g id="edge5" class="edge">
<title>Node5&#45;&gt;Node6</title>
<path fill="none" stroke="midnightblue" d="M1142.4,-168.34C1150.39,-146.42 1167.58,-88.21 1139,-56 1116.67,-30.84 889.76,-17.15 799.62,-12.67"/>
<polygon fill="midnightblue" stroke="midnightblue" points="799.74,-9.17 789.58,-12.18 799.4,-16.16 799.74,-9.17"/>
</g>
<!-- Node7 -->
<g id="node7" class="node">
<title>Node7</title>
<g id="a_node7"><a xlink:href="unaligned_8h.html" target="_top" xlink:title="Unaligned but safe memory access functions.">
<polygon fill="none" stroke="black" points="1056,-56.5 1056,-75.5 1130,-75.5 1130,-56.5 1056,-56.5"/>
<text text-anchor="middle" x="1093" y="-63.5" font-family="Helvetica,sans-Serif" font-size="10.00">unaligned.h</text>
</a>
</g>
</g>
<!-- Node5&#45;&gt;Node7 -->
<g id="edge6" class="edge">
<title>Node5&#45;&gt;Node7</title>
<path fill="none" stroke="midnightblue" d="M1135.39,-168.37C1127.9,-150.46 1110.53,-108.92 1100.51,-84.95"/>
<polygon fill="midnightblue" stroke="midnightblue" points="1103.68,-83.47 1096.59,-75.59 1097.22,-86.17 1103.68,-83.47"/>
</g>
<!-- Node7&#45;&gt;Node6 -->
<g id="edge7" class="edge">
<title>Node7&#45;&gt;Node6</title>
<path fill="none" stroke="midnightblue" d="M1055.96,-58.4C1051.27,-57.58 1046.52,-56.76 1042,-56 955.15,-41.33 852.9,-25.11 799.56,-16.72"/>
<polygon fill="midnightblue" stroke="midnightblue" points="799.99,-13.24 789.56,-15.15 798.9,-20.16 799.99,-13.24"/>
</g>
<!-- Node8&#45;&gt;Node3 -->
<g id="edge9" class="edge">
<title>Node8&#45;&gt;Node3</title>
<path fill="none" stroke="midnightblue" d="M1038.59,-224.44C1009.23,-215.28 962.48,-200.69 929.9,-190.52"/>
<polygon fill="midnightblue" stroke="midnightblue" points="930.87,-187.16 920.28,-187.52 928.79,-193.84 930.87,-187.16"/>
</g>
<!-- Node8&#45;&gt;Node5 -->
<g id="edge12" class="edge">
<title>Node8&#45;&gt;Node5</title>
<path fill="none" stroke="midnightblue" d="M1077.73,-224.32C1088.84,-216.11 1105.74,-203.6 1118.98,-193.81"/>
<polygon fill="midnightblue" stroke="midnightblue" points="1121.1,-196.59 1127.06,-187.83 1116.94,-190.97 1121.1,-196.59"/>
</g>
<!-- Node8&#45;&gt;Node6 -->
<g id="edge10" class="edge">
<title>Node8&#45;&gt;Node6</title>
<path fill="none" stroke="midnightblue" d="M1063.82,-224.31C1056.07,-195.31 1026.99,-101.15 966,-56 916.82,-19.59 843.76,-11.67 800.01,-10.47"/>
<polygon fill="midnightblue" stroke="midnightblue" points="799.87,-6.97 789.81,-10.3 799.75,-13.97 799.87,-6.97"/>
</g>
<!-- Node9 -->
<g id="node9" class="node">
<title>Node9</title>
<g id="a_node9"><a xlink:title=" ">
<polygon fill="none" stroke="#bfbfbf" points="234,-0.5 234,-19.5 290,-19.5 290,-0.5 234,-0.5"/>
<text text-anchor="middle" x="262" y="-7.5" font-family="Helvetica,sans-Serif" font-size="10.00">stddef.h</text>
</a>
</g>
</g>
<!-- Node8&#45;&gt;Node9 -->
<g id="edge11" class="edge">
<title>Node8&#45;&gt;Node9</title>
<path fill="none" stroke="midnightblue" d="M1051.32,-224.46C1027.3,-210.8 977.79,-183.96 933,-168 699.28,-84.74 403.9,-33.35 300.13,-16.83"/>
<polygon fill="midnightblue" stroke="midnightblue" points="300.55,-13.35 290.12,-15.25 299.46,-20.27 300.55,-13.35"/>
</g>
<!-- Node10&#45;&gt;Node2 -->
<g id="edge15" class="edge">
<title>Node10&#45;&gt;Node2</title>
<path fill="none" stroke="midnightblue" d="M1117.16,-616.24C1127.88,-607.97 1143.28,-594.66 1153,-580 1170.02,-554.34 1177,-545.8 1177,-515 1177,-515 1177,-515 1177,-401 1177,-367.07 1192.31,-329.91 1202.68,-308.63"/>
<polygon fill="midnightblue" stroke="midnightblue" points="1205.88,-310.05 1207.28,-299.54 1199.64,-306.88 1205.88,-310.05"/>
</g>
<!-- Node10&#45;&gt;Node5 -->
<g id="edge14" class="edge">
<title>Node10&#45;&gt;Node5</title>
<path fill="none" stroke="midnightblue" d="M1109.59,-616.44C1118.87,-598.29 1139,-554.38 1139,-515 1139,-515 1139,-515 1139,-289 1139,-256.95 1139,-219.64 1139,-197.75"/>
<polygon fill="midnightblue" stroke="midnightblue" points="1142.5,-197.56 1139,-187.56 1135.5,-197.56 1142.5,-197.56"/>
</g>
<!-- Node11 -->
<g id="node11" class="node">
<title>Node11</title>
<g id="a_node11"><a xlink:href="evtimer_8h.html" target="_top" xlink:title="evtimer API definitions">
<polygon fill="none" stroke="black" points="517,-504.5 517,-523.5 581,-523.5 581,-504.5 517,-504.5"/>
<text text-anchor="middle" x="549" y="-511.5" font-family="Helvetica,sans-Serif" font-size="10.00">evtimer.h</text>
</a>
</g>
</g>
<!-- Node10&#45;&gt;Node11 -->
<g id="edge16" class="edge">
<title>Node10&#45;&gt;Node11</title>
<path fill="none" stroke="midnightblue" d="M1061.83,-616.46C957.86,-595.89 694.53,-543.79 591.37,-523.38"/>
<polygon fill="midnightblue" stroke="midnightblue" points="591.81,-519.9 581.32,-521.39 590.45,-526.77 591.81,-519.9"/>
</g>
<!-- Node38 -->
<g id="node38" class="node">
<title>Node38</title>
<g id="a_node38"><a xlink:href="evtimer__msg_8h.html" target="_top" xlink:title="IPC&#45;based evtimer definitions.">
<polygon fill="none" stroke="black" points="891,-560.5 891,-579.5 981,-579.5 981,-560.5 891,-560.5"/>
<text text-anchor="middle" x="936" y="-567.5" font-family="Helvetica,sans-Serif" font-size="10.00">evtimer_msg.h</text>
</a>
</g>
</g>
<!-- Node10&#45;&gt;Node38 -->
<g id="edge74" class="edge">
<title>Node10&#45;&gt;Node38</title>
<path fill="none" stroke="midnightblue" d="M1078.22,-616.44C1049.67,-607.32 1004.27,-592.81 972.46,-582.65"/>
<polygon fill="midnightblue" stroke="midnightblue" points="973.24,-579.23 962.65,-579.52 971.11,-585.89 973.24,-579.23"/>
</g>
<!-- Node39 -->
<g id="node39" class="node">
<title>Node39</title>
<g id="a_node39"><a xlink:href="trickle_8h.html" target="_top" xlink:title="Trickle timer interface definition.">
<polygon fill="none" stroke="black" points="1027,-560.5 1027,-579.5 1083,-579.5 1083,-560.5 1027,-560.5"/>
<text text-anchor="middle" x="1055" y="-567.5" font-family="Helvetica,sans-Serif" font-size="10.00">trickle.h</text>
</a>
</g>
</g>
<!-- Node10&#45;&gt;Node39 -->
<g id="edge77" class="edge">
<title>Node10&#45;&gt;Node39</title>
<path fill="none" stroke="midnightblue" d="M1096.74,-616.08C1089.54,-608.3 1078.89,-596.8 1070.15,-587.37"/>
<polygon fill="midnightblue" stroke="midnightblue" points="1072.47,-584.71 1063.1,-579.75 1067.33,-589.47 1072.47,-584.71"/>
</g>
<!-- Node11&#45;&gt;Node6 -->
<g id="edge17" class="edge">
<title>Node11&#45;&gt;Node6</title>
<path fill="none" stroke="midnightblue" d="M516.78,-512.69C407.55,-510.79 58,-497.34 58,-403 58,-403 58,-403 58,-345 58,-327.82 589.05,-62.4 605,-56 645.48,-39.75 693.99,-26.85 726.48,-19.1"/>
<polygon fill="midnightblue" stroke="midnightblue" points="727.5,-22.46 736.44,-16.77 725.91,-15.65 727.5,-22.46"/>
</g>
<!-- Node12 -->
<g id="node12" class="node">
<title>Node12</title>
<g id="a_node12"><a xlink:href="kernel__defines_8h.html" target="_top" xlink:title="Common macros and compiler attributes/pragmas configuration.">
<polygon fill="none" stroke="black" points="305.5,-56.5 305.5,-75.5 402.5,-75.5 402.5,-56.5 305.5,-56.5"/>
<text text-anchor="middle" x="354" y="-63.5" font-family="Helvetica,sans-Serif" font-size="10.00">kernel_defines.h</text>
</a>
</g>
</g>
<!-- Node11&#45;&gt;Node12 -->
<g id="edge18" class="edge">
<title>Node11&#45;&gt;Node12</title>
<path fill="none" stroke="midnightblue" d="M516.7,-511.72C411.73,-507.36 84.67,-491.96 44,-468 13.94,-450.3 0,-437.89 0,-403 0,-403 0,-403 0,-177 0,-138.58 23.29,-130.44 57,-112 96.93,-90.16 220.47,-77.18 295.05,-71.13"/>
<polygon fill="midnightblue" stroke="midnightblue" points="295.54,-74.61 305.24,-70.33 294.99,-67.63 295.54,-74.61"/>
</g>
<!-- Node13 -->
<g id="node13" class="node">
<title>Node13</title>
<g id="a_node13"><a xlink:href="xtimer_8h.html" target="_top" xlink:title="xtimer interface definitions">
<polygon fill="none" stroke="black" points="622,-448.5 622,-467.5 680,-467.5 680,-448.5 622,-448.5"/>
<text text-anchor="middle" x="651" y="-455.5" font-family="Helvetica,sans-Serif" font-size="10.00">xtimer.h</text>
</a>
</g>
</g>
<!-- Node11&#45;&gt;Node13 -->
<g id="edge21" class="edge">
<title>Node11&#45;&gt;Node13</title>
<path fill="none" stroke="midnightblue" d="M565.39,-504.32C581.67,-495.7 606.87,-482.36 625.72,-472.39"/>
<polygon fill="midnightblue" stroke="midnightblue" points="627.45,-475.43 634.65,-467.65 624.18,-469.24 627.45,-475.43"/>
</g>
<!-- Node14 -->
<g id="node14" class="node">
<title>Node14</title>
<g id="a_node14"><a xlink:href="timex_8h.html" target="_top" xlink:title="Utility library for comparing and computing timestamps.">
<polygon fill="none" stroke="black" points="207,-336.5 207,-355.5 261,-355.5 261,-336.5 207,-336.5"/>
<text text-anchor="middle" x="234" y="-343.5" font-family="Helvetica,sans-Serif" font-size="10.00">timex.h</text>
</a>
</g>
</g>
<!-- Node11&#45;&gt;Node14 -->
<g id="edge73" class="edge">
<title>Node11&#45;&gt;Node14</title>
<path fill="none" stroke="midnightblue" d="M516.75,-510.34C458.12,-503.86 333.35,-482.17 260,-412 247.12,-399.68 240.47,-380.15 237.13,-365.71"/>
<polygon fill="midnightblue" stroke="midnightblue" points="240.56,-364.99 235.18,-355.86 233.69,-366.35 240.56,-364.99"/>
</g>
<!-- Node12&#45;&gt;Node6 -->
<g id="edge20" class="edge">
<title>Node12&#45;&gt;Node6</title>
<path fill="none" stroke="midnightblue" d="M402.52,-58.59C485.21,-47.68 651.67,-25.7 725.86,-15.9"/>
<polygon fill="midnightblue" stroke="midnightblue" points="726.65,-19.33 736.11,-14.55 725.74,-12.39 726.65,-19.33"/>
</g>
<!-- Node12&#45;&gt;Node9 -->
<g id="edge19" class="edge">
<title>Node12&#45;&gt;Node9</title>
<path fill="none" stroke="midnightblue" d="M339.22,-56.32C324.73,-47.82 302.43,-34.73 285.51,-24.8"/>
<polygon fill="midnightblue" stroke="midnightblue" points="287.14,-21.7 276.74,-19.65 283.6,-27.74 287.14,-21.7"/>
</g>
<!-- Node13&#45;&gt;Node3 -->
<g id="edge22" class="edge">
<title>Node13&#45;&gt;Node3</title>
<path fill="none" stroke="midnightblue" d="M680.08,-457.08C759.48,-455.47 978.45,-438.25 1044,-300 1074.04,-236.63 959.18,-257.41 941,-244 924.12,-231.55 910.59,-211.48 902.25,-196.93"/>
<polygon fill="midnightblue" stroke="midnightblue" points="905.18,-195 897.33,-187.9 899.04,-198.35 905.18,-195"/>
</g>
<!-- Node13&#45;&gt;Node6 -->
<g id="edge23" class="edge">
<title>Node13&#45;&gt;Node6</title>
<path fill="none" stroke="midnightblue" d="M680.35,-457.21C735.52,-456.63 857.55,-450.63 951,-412 1015.19,-385.47 1041.72,-367.01 1060,-300 1062.34,-291.42 1063.98,-287.95 1060,-280 1048.07,-256.15 1032.05,-261.58 1012,-244 924.09,-166.92 917.36,-131.39 828,-56 814.66,-44.75 798.54,-33.57 785.69,-25.17"/>
<polygon fill="midnightblue" stroke="midnightblue" points="787.3,-22.05 777,-19.59 783.52,-27.94 787.3,-22.05"/>
</g>
<!-- Node13&#45;&gt;Node14 -->
<g id="edge24" class="edge">
<title>Node13&#45;&gt;Node14</title>
<path fill="none" stroke="midnightblue" d="M621.79,-456.21C545.75,-453.71 343.55,-444.15 286,-412 266.54,-401.13 251.66,-379.77 242.9,-364.5"/>
<polygon fill="midnightblue" stroke="midnightblue" points="245.87,-362.65 238.04,-355.52 239.72,-365.98 245.87,-362.65"/>
</g>
<!-- Node16 -->
<g id="node16" class="node">
<title>Node16</title>
<g id="a_node16"><a xlink:href="mutex_8h.html" target="_top" xlink:title="Mutex for thread synchronization.">
<polygon fill="none" stroke="black" points="405.5,-336.5 405.5,-355.5 462.5,-355.5 462.5,-336.5 405.5,-336.5"/>
<text text-anchor="middle" x="434" y="-343.5" font-family="Helvetica,sans-Serif" font-size="10.00">mutex.h</text>
</a>
</g>
</g>
<!-- Node13&#45;&gt;Node16 -->
<g id="edge27" class="edge">
<title>Node13&#45;&gt;Node16</title>
<path fill="none" stroke="midnightblue" d="M621.73,-455.87C564.65,-452.99 441.81,-443.22 416,-412 404.74,-398.38 413.01,-378.22 421.7,-363.97"/>
<polygon fill="midnightblue" stroke="midnightblue" points="424.65,-365.86 427.27,-355.59 418.82,-361.98 424.65,-365.86"/>
</g>
<!-- Node26 -->
<g id="node26" class="node">
<title>Node26</title>
<g id="a_node26"><a xlink:href="sched_8h.html" target="_top" xlink:title="Scheduler API definition.">
<polygon fill="none" stroke="black" points="276,-168.5 276,-187.5 330,-187.5 330,-168.5 276,-168.5"/>
<text text-anchor="middle" x="303" y="-175.5" font-family="Helvetica,sans-Serif" font-size="10.00">sched.h</text>
</a>
</g>
</g>
<!-- Node13&#45;&gt;Node26 -->
<g id="edge54" class="edge">
<title>Node13&#45;&gt;Node26</title>
<path fill="none" stroke="midnightblue" d="M621.98,-454.21C537.88,-445.34 300,-414.29 300,-347 300,-347 300,-347 300,-289 300,-256.94 301.29,-219.63 302.18,-197.74"/>
<polygon fill="midnightblue" stroke="midnightblue" points="305.68,-197.69 302.61,-187.56 298.69,-197.4 305.68,-197.69"/>
</g>
<!-- Node28 -->
<g id="node28" class="node">
<title>Node28</title>
<g id="a_node28"><a xlink:href="rmutex_8h.html" target="_top" xlink:title="Recursive Mutex for thread synchronization.">
<polygon fill="none" stroke="black" points="425.5,-392.5 425.5,-411.5 486.5,-411.5 486.5,-392.5 425.5,-392.5"/>
<text text-anchor="middle" x="456" y="-399.5" font-family="Helvetica,sans-Serif" font-size="10.00">rmutex.h</text>
</a>
</g>
</g>
<!-- Node13&#45;&gt;Node28 -->
<g id="edge55" class="edge">
<title>Node13&#45;&gt;Node28</title>
<path fill="none" stroke="midnightblue" d="M621.81,-448.92C588.59,-439.72 534.13,-424.63 496.74,-414.28"/>
<polygon fill="midnightblue" stroke="midnightblue" points="497.25,-410.79 486.68,-411.5 495.38,-417.54 497.25,-410.79"/>
</g>
<!-- Node30 -->
<g id="node30" class="node">
<title>Node30</title>
<g id="a_node30"><a xlink:title=" ">
<polygon fill="none" stroke="#bfbfbf" points="816.5,-392.5 816.5,-411.5 869.5,-411.5 869.5,-392.5 816.5,-392.5"/>
<text text-anchor="middle" x="843" y="-399.5" font-family="Helvetica,sans-Serif" font-size="10.00">board.h</text>
</a>
</g>
</g>
<!-- Node13&#45;&gt;Node30 -->
<g id="edge60" class="edge">
<title>Node13&#45;&gt;Node30</title>
<path fill="none" stroke="midnightblue" d="M680.16,-448.8C714.01,-439.28 769.87,-423.57 806.55,-413.25"/>
<polygon fill="midnightblue" stroke="midnightblue" points="807.68,-416.57 816.36,-410.49 805.78,-409.83 807.68,-416.57"/>
</g>
<!-- Node31 -->
<g id="node31" class="node">
<title>Node31</title>
<g id="a_node31"><a xlink:title=" ">
<polygon fill="none" stroke="#bfbfbf" points="953,-280.5 953,-299.5 1035,-299.5 1035,-280.5 953,-280.5"/>
<text text-anchor="middle" x="994" y="-287.5" font-family="Helvetica,sans-Serif" font-size="10.00">periph_conf.h</text>
</a>
</g>
</g>
<!-- Node13&#45;&gt;Node31 -->
<g id="edge61" class="edge">
<title>Node13&#45;&gt;Node31</title>
<path fill="none" stroke="midnightblue" d="M680.26,-456.79C725.6,-455.29 814.3,-447.58 879,-412 925.79,-386.26 964.81,-334.88 983,-308.11"/>
<polygon fill="midnightblue" stroke="midnightblue" points="985.93,-310.02 988.54,-299.75 980.1,-306.15 985.93,-310.02"/>
</g>
<!-- Node32 -->
<g id="node32" class="node">
<title>Node32</title>
<g id="a_node32"><a xlink:href="tick__conversion_8h.html" target="_top" xlink:title="xtimer tick &lt;&#45;&gt; seconds conversions for different values of XTIMER_HZ">
<polygon fill="none" stroke="black" points="504.5,-392.5 504.5,-411.5 641.5,-411.5 641.5,-392.5 504.5,-392.5"/>
<text text-anchor="middle" x="573" y="-399.5" font-family="Helvetica,sans-Serif" font-size="10.00">xtimer/tick_conversion.h</text>
</a>
</g>
</g>
<!-- Node13&#45;&gt;Node32 -->
<g id="edge62" class="edge">
<title>Node13&#45;&gt;Node32</title>
<path fill="none" stroke="midnightblue" d="M638.47,-448.32C626.41,-439.98 607.97,-427.21 593.73,-417.35"/>
<polygon fill="midnightblue" stroke="midnightblue" points="595.72,-414.47 585.5,-411.65 591.73,-420.22 595.72,-414.47"/>
</g>
<!-- Node34 -->
<g id="node34" class="node">
<title>Node34</title>
<g id="a_node34"><a xlink:href="implementation_8h.html" target="_top" xlink:title="xtimer implementation">
<polygon fill="none" stroke="black" points="659.5,-392.5 659.5,-411.5 798.5,-411.5 798.5,-392.5 659.5,-392.5"/>
<text text-anchor="middle" x="729" y="-399.5" font-family="Helvetica,sans-Serif" font-size="10.00">xtimer/implementation.h</text>
</a>
</g>
</g>
<!-- Node13&#45;&gt;Node34 -->
<g id="edge66" class="edge">
<title>Node13&#45;&gt;Node34</title>
<path fill="none" stroke="midnightblue" d="M663.53,-448.32C675.59,-439.98 694.03,-427.21 708.27,-417.35"/>
<polygon fill="midnightblue" stroke="midnightblue" points="710.27,-420.22 716.5,-411.65 706.28,-414.47 710.27,-420.22"/>
</g>
<!-- Node14&#45;&gt;Node6 -->
<g id="edge25" class="edge">
<title>Node14&#45;&gt;Node6</title>
<path fill="none" stroke="midnightblue" d="M243.75,-336.29C280.57,-303.69 415.46,-186.93 541,-112 605.06,-73.77 686.09,-40.32 730.39,-23.18"/>
<polygon fill="midnightblue" stroke="midnightblue" points="731.71,-26.43 739.79,-19.58 729.2,-19.89 731.71,-26.43"/>
</g>
<!-- Node15 -->
<g id="node15" class="node">
<title>Node15</title>
<g id="a_node15"><a xlink:href="inttypes_8h.html" target="_top" xlink:title="Adds include for missing inttype definitions.">
<polygon fill="none" stroke="black" points="66.5,-112.5 66.5,-131.5 131.5,-131.5 131.5,-112.5 66.5,-112.5"/>
<text text-anchor="middle" x="99" y="-119.5" font-family="Helvetica,sans-Serif" font-size="10.00">inttypes.h</text>
</a>
</g>
</g>
<!-- Node14&#45;&gt;Node15 -->
<g id="edge26" class="edge">
<title>Node14&#45;&gt;Node15</title>
<path fill="none" stroke="midnightblue" d="M210.7,-336.41C193.87,-329.11 171.77,-317.06 158,-300 119.07,-251.76 105.37,-176.73 100.94,-141.93"/>
<polygon fill="midnightblue" stroke="midnightblue" points="104.39,-141.29 99.77,-131.76 97.44,-142.09 104.39,-141.29"/>
</g>
<!-- Node16&#45;&gt;Node6 -->
<g id="edge29" class="edge">
<title>Node16&#45;&gt;Node6</title>
<path fill="none" stroke="midnightblue" d="M462.72,-336.96C483.28,-329.99 510.48,-318.13 529,-300 555.99,-273.58 543.42,-253.5 567,-224 582.78,-204.26 594.38,-207.03 611,-188 656.27,-136.15 643.68,-105.02 692,-56 704.69,-43.13 721.72,-32.17 735.92,-24.3"/>
<polygon fill="midnightblue" stroke="midnightblue" points="737.6,-27.37 744.77,-19.58 734.3,-21.2 737.6,-27.37"/>
</g>
<!-- Node16&#45;&gt;Node9 -->
<g id="edge28" class="edge">
<title>Node16&#45;&gt;Node9</title>
<path fill="none" stroke="midnightblue" d="M405.33,-339.36C330.89,-322.99 132.07,-267.66 57,-132 18.46,-62.35 153.96,-29.01 223.43,-16.77"/>
<polygon fill="midnightblue" stroke="midnightblue" points="224.3,-20.17 233.57,-15.05 223.13,-13.27 224.3,-20.17"/>
</g>
<!-- Node16&#45;&gt;Node12 -->
<g id="edge33" class="edge">
<title>Node16&#45;&gt;Node12</title>
<path fill="none" stroke="midnightblue" d="M436.5,-336.17C445.19,-303.64 471.16,-188.38 427,-112 418.56,-97.41 403.31,-86.92 388.93,-79.76"/>
<polygon fill="midnightblue" stroke="midnightblue" points="390.23,-76.51 379.68,-75.53 387.31,-82.88 390.23,-76.51"/>
</g>
<!-- Node17 -->
<g id="node17" class="node">
<title>Node17</title>
<g id="a_node17"><a xlink:href="irq_8h.html" target="_top" xlink:title="IRQ driver interface.">
<polygon fill="none" stroke="black" points="576,-280.5 576,-299.5 614,-299.5 614,-280.5 576,-280.5"/>
<text text-anchor="middle" x="595" y="-287.5" font-family="Helvetica,sans-Serif" font-size="10.00">irq.h</text>
</a>
</g>
</g>
<!-- Node16&#45;&gt;Node17 -->
<g id="edge30" class="edge">
<title>Node16&#45;&gt;Node17</title>
<path fill="none" stroke="midnightblue" d="M459.51,-336.44C488.51,-326.72 535.74,-310.88 566.08,-300.7"/>
<polygon fill="midnightblue" stroke="midnightblue" points="567.3,-303.98 575.67,-297.48 565.08,-297.34 567.3,-303.98"/>
</g>
<!-- Node19 -->
<g id="node19" class="node">
<title>Node19</title>
<g id="a_node19"><a xlink:href="list_8h.html" target="_top" xlink:title="Intrusive linked list.">
<polygon fill="none" stroke="black" points="143.5,-56.5 143.5,-75.5 184.5,-75.5 184.5,-56.5 143.5,-56.5"/>
<text text-anchor="middle" x="164" y="-63.5" font-family="Helvetica,sans-Serif" font-size="10.00">list.h</text>
</a>
</g>
</g>
<!-- Node16&#45;&gt;Node19 -->
<g id="edge34" class="edge">
<title>Node16&#45;&gt;Node19</title>
<path fill="none" stroke="midnightblue" d="M417.3,-336.38C371.07,-311.58 240.77,-235.19 179,-132 170.54,-117.87 166.85,-99.38 165.24,-85.74"/>
<polygon fill="midnightblue" stroke="midnightblue" points="168.71,-85.26 164.32,-75.62 161.74,-85.9 168.71,-85.26"/>
</g>
<!-- Node20 -->
<g id="node20" class="node">
<title>Node20</title>
<g id="a_node20"><a xlink:href="core_2include_2thread_8h.html" target="_top" xlink:title="Threading API.">
<polygon fill="none" stroke="black" points="462.5,-280.5 462.5,-299.5 519.5,-299.5 519.5,-280.5 462.5,-280.5"/>
<text text-anchor="middle" x="491" y="-287.5" font-family="Helvetica,sans-Serif" font-size="10.00">thread.h</text>
</a>
</g>
</g>
<!-- Node16&#45;&gt;Node20 -->
<g id="edge35" class="edge">
<title>Node16&#45;&gt;Node20</title>
<path fill="none" stroke="midnightblue" d="M443.16,-336.32C451.5,-328.42 464.03,-316.55 474.18,-306.94"/>
<polygon fill="midnightblue" stroke="midnightblue" points="476.82,-309.25 481.68,-299.83 472.01,-304.17 476.82,-309.25"/>
</g>
<!-- Node17&#45;&gt;Node3 -->
<g id="edge31" class="edge">
<title>Node17&#45;&gt;Node3</title>
<path fill="none" stroke="midnightblue" d="M614.24,-288.2C653.76,-285.9 746.14,-277.12 815,-244 839.93,-232.01 863.61,-210.29 878.2,-195.28"/>
<polygon fill="midnightblue" stroke="midnightblue" points="881,-197.41 885.32,-187.73 875.91,-192.61 881,-197.41"/>
</g>
<!-- Node18 -->
<g id="node18" class="node">
<title>Node18</title>
<g id="a_node18"><a xlink:title=" ">
<polygon fill="none" stroke="#bfbfbf" points="576,-224.5 576,-243.5 644,-243.5 644,-224.5 576,-224.5"/>
<text text-anchor="middle" x="610" y="-231.5" font-family="Helvetica,sans-Serif" font-size="10.00">cpu_conf.h</text>
</a>
</g>
</g>
<!-- Node17&#45;&gt;Node18 -->
<g id="edge32" class="edge">
<title>Node17&#45;&gt;Node18</title>
<path fill="none" stroke="midnightblue" d="M597.48,-280.08C599.49,-272.85 602.39,-262.41 604.89,-253.4"/>
<polygon fill="midnightblue" stroke="midnightblue" points="608.26,-254.32 607.57,-243.75 601.52,-252.45 608.26,-254.32"/>
</g>
<!-- Node20&#45;&gt;Node18 -->
<g id="edge52" class="edge">
<title>Node20&#45;&gt;Node18</title>
<path fill="none" stroke="midnightblue" d="M509.86,-280.44C529.27,-271.64 559.73,-257.81 581.96,-247.72"/>
<polygon fill="midnightblue" stroke="midnightblue" points="583.57,-250.84 591.23,-243.52 580.68,-244.46 583.57,-250.84"/>
</g>
<!-- Node21 -->
<g id="node21" class="node">
<title>Node21</title>
<g id="a_node21"><a xlink:href="clist_8h.html" target="_top" xlink:title="Circular linked list.">
<polygon fill="none" stroke="black" points="188,-112.5 188,-131.5 234,-131.5 234,-112.5 188,-112.5"/>
<text text-anchor="middle" x="211" y="-119.5" font-family="Helvetica,sans-Serif" font-size="10.00">clist.h</text>
</a>
</g>
</g>
<!-- Node20&#45;&gt;Node21 -->
<g id="edge36" class="edge">
<title>Node20&#45;&gt;Node21</title>
<path fill="none" stroke="midnightblue" d="M462.47,-281.02C417.46,-267.43 328.75,-236.45 267,-188 249.31,-174.12 233.01,-154.01 222.62,-139.85"/>
<polygon fill="midnightblue" stroke="midnightblue" points="225.34,-137.63 216.68,-131.52 219.64,-141.69 225.34,-137.63"/>
</g>
<!-- Node22 -->
<g id="node22" class="node">
<title>Node22</title>
<g id="a_node22"><a xlink:href="cib_8h.html" target="_top" xlink:title="Circular integer buffer interface.">
<polygon fill="none" stroke="black" points="480,-224.5 480,-243.5 520,-243.5 520,-224.5 480,-224.5"/>
<text text-anchor="middle" x="500" y="-231.5" font-family="Helvetica,sans-Serif" font-size="10.00">cib.h</text>
</a>
</g>
</g>
<!-- Node20&#45;&gt;Node22 -->
<g id="edge39" class="edge">
<title>Node20&#45;&gt;Node22</title>
<path fill="none" stroke="midnightblue" d="M492.49,-280.08C493.68,-272.93 495.39,-262.64 496.88,-253.69"/>
<polygon fill="midnightblue" stroke="midnightblue" points="500.35,-254.19 498.54,-243.75 493.45,-253.04 500.35,-254.19"/>
</g>
<!-- Node25 -->
<g id="node25" class="node">
<title>Node25</title>
<g id="a_node25"><a xlink:href="msg_8h.html" target="_top" xlink:title="Messaging API for inter process communication.">
<polygon fill="none" stroke="black" points="758.5,-224.5 758.5,-243.5 805.5,-243.5 805.5,-224.5 758.5,-224.5"/>
<text text-anchor="middle" x="782" y="-231.5" font-family="Helvetica,sans-Serif" font-size="10.00">msg.h</text>
</a>
</g>
</g>
<!-- Node20&#45;&gt;Node25 -->
<g id="edge43" class="edge">
<title>Node20&#45;&gt;Node25</title>
<path fill="none" stroke="midnightblue" d="M519.81,-284.88C565.93,-278.08 659.39,-263.51 748.3,-243.97"/>
<polygon fill="midnightblue" stroke="midnightblue" points="749.27,-247.34 758.27,-241.76 747.75,-240.51 749.27,-247.34"/>
</g>
<!-- Node20&#45;&gt;Node26 -->
<g id="edge53" class="edge">
<title>Node20&#45;&gt;Node26</title>
<path fill="none" stroke="midnightblue" d="M476.25,-280.37C443.71,-261.33 365.58,-215.62 326.33,-192.65"/>
<polygon fill="midnightblue" stroke="midnightblue" points="328.08,-189.62 317.68,-187.59 324.55,-195.66 328.08,-189.62"/>
</g>
<!-- Node21&#45;&gt;Node9 -->
<g id="edge37" class="edge">
<title>Node21&#45;&gt;Node9</title>
<path fill="none" stroke="midnightblue" d="M215,-112.37C223.31,-94.46 242.56,-52.92 253.68,-28.95"/>
<polygon fill="midnightblue" stroke="midnightblue" points="256.99,-30.14 258.02,-19.59 250.64,-27.19 256.99,-30.14"/>
</g>
<!-- Node21&#45;&gt;Node19 -->
<g id="edge38" class="edge">
<title>Node21&#45;&gt;Node19</title>
<path fill="none" stroke="midnightblue" d="M203.24,-112.08C196.46,-104.3 186.46,-92.8 178.24,-83.37"/>
<polygon fill="midnightblue" stroke="midnightblue" points="180.82,-81 171.62,-75.75 175.54,-85.59 180.82,-81"/>
</g>
<!-- Node23 -->
<g id="node23" class="node">
<title>Node23</title>
<g id="a_node23"><a xlink:href="assert_8h.html" target="_top" xlink:title="POSIX.1&#45;2008 compliant version of the assert macro.">
<polygon fill="none" stroke="black" points="546,-168.5 546,-187.5 602,-187.5 602,-168.5 546,-168.5"/>
<text text-anchor="middle" x="574" y="-175.5" font-family="Helvetica,sans-Serif" font-size="10.00">assert.h</text>
</a>
</g>
</g>
<!-- Node22&#45;&gt;Node23 -->
<g id="edge40" class="edge">
<title>Node22&#45;&gt;Node23</title>
<path fill="none" stroke="midnightblue" d="M511.89,-224.32C523.15,-216.11 540.29,-203.6 553.71,-193.81"/>
<polygon fill="midnightblue" stroke="midnightblue" points="555.88,-196.56 561.89,-187.83 551.75,-190.9 555.88,-196.56"/>
</g>
<!-- Node24 -->
<g id="node24" class="node">
<title>Node24</title>
<g id="a_node24"><a xlink:href="panic_8h.html" target="_top" xlink:title="Crash handling header.">
<polygon fill="none" stroke="black" points="550,-112.5 550,-131.5 602,-131.5 602,-112.5 550,-112.5"/>
<text text-anchor="middle" x="576" y="-119.5" font-family="Helvetica,sans-Serif" font-size="10.00">panic.h</text>
</a>
</g>
</g>
<!-- Node23&#45;&gt;Node24 -->
<g id="edge41" class="edge">
<title>Node23&#45;&gt;Node24</title>
<path fill="none" stroke="midnightblue" d="M574.33,-168.08C574.59,-161.01 574.97,-150.86 575.3,-141.99"/>
<polygon fill="midnightblue" stroke="midnightblue" points="578.8,-141.87 575.68,-131.75 571.81,-141.61 578.8,-141.87"/>
</g>
<!-- Node24&#45;&gt;Node12 -->
<g id="edge42" class="edge">
<title>Node24&#45;&gt;Node12</title>
<path fill="none" stroke="midnightblue" d="M549.66,-114.59C512.5,-105.55 444.18,-88.94 398.91,-77.92"/>
<polygon fill="midnightblue" stroke="midnightblue" points="399.61,-74.49 389.06,-75.53 397.95,-81.29 399.61,-74.49"/>
</g>
<!-- Node25&#45;&gt;Node3 -->
<g id="edge45" class="edge">
<title>Node25&#45;&gt;Node3</title>
<path fill="none" stroke="midnightblue" d="M799.83,-224.32C817.72,-215.62 845.48,-202.12 866.05,-192.11"/>
<polygon fill="midnightblue" stroke="midnightblue" points="867.75,-195.18 875.21,-187.65 864.69,-188.88 867.75,-195.18"/>
</g>
<!-- Node25&#45;&gt;Node6 -->
<g id="edge44" class="edge">
<title>Node25&#45;&gt;Node6</title>
<path fill="none" stroke="midnightblue" d="M781.26,-224.3C778.46,-191.63 768.55,-75.87 764.62,-29.96"/>
<polygon fill="midnightblue" stroke="midnightblue" points="768.1,-29.55 763.76,-19.88 761.13,-30.15 768.1,-29.55"/>
</g>
<!-- Node25&#45;&gt;Node26 -->
<g id="edge46" class="edge">
<title>Node25&#45;&gt;Node26</title>
<path fill="none" stroke="midnightblue" d="M758.32,-226.04C755.2,-225.27 752.04,-224.56 749,-224 599,-196.18 417.21,-184.58 340.26,-180.67"/>
<polygon fill="midnightblue" stroke="midnightblue" points="340.28,-177.17 330.12,-180.17 339.93,-184.16 340.28,-177.17"/>
</g>
<!-- Node26&#45;&gt;Node9 -->
<g id="edge47" class="edge">
<title>Node26&#45;&gt;Node9</title>
<path fill="none" stroke="midnightblue" d="M300.8,-168.08C294.34,-141.95 275.39,-65.21 266.59,-29.58"/>
<polygon fill="midnightblue" stroke="midnightblue" points="269.91,-28.44 264.12,-19.57 263.12,-30.12 269.91,-28.44"/>
</g>
<!-- Node26&#45;&gt;Node12 -->
<g id="edge49" class="edge">
<title>Node26&#45;&gt;Node12</title>
<path fill="none" stroke="midnightblue" d="M303.98,-168.19C305.67,-155.31 309.88,-130.83 319,-112 324.06,-101.56 331.83,-91.24 338.76,-83.12"/>
<polygon fill="midnightblue" stroke="midnightblue" points="341.48,-85.33 345.54,-75.55 336.26,-80.67 341.48,-85.33"/>
</g>
<!-- Node26&#45;&gt;Node15 -->
<g id="edge48" class="edge">
<title>Node26&#45;&gt;Node15</title>
<path fill="none" stroke="midnightblue" d="M275.91,-169.83C241.44,-160.7 181.53,-144.85 141.09,-134.14"/>
<polygon fill="midnightblue" stroke="midnightblue" points="141.81,-130.71 131.25,-131.54 140.02,-137.48 141.81,-130.71"/>
</g>
<!-- Node26&#45;&gt;Node21 -->
<g id="edge51" class="edge">
<title>Node26&#45;&gt;Node21</title>
<path fill="none" stroke="midnightblue" d="M288.22,-168.32C273.73,-159.82 251.43,-146.73 234.51,-136.8"/>
<polygon fill="midnightblue" stroke="midnightblue" points="236.14,-133.7 225.74,-131.65 232.6,-139.74 236.14,-133.7"/>
</g>
<!-- Node27 -->
<g id="node27" class="node">
<title>Node27</title>
<g id="a_node27"><a xlink:href="native__sched_8h.html" target="_top" xlink:title="Add definitions required on the native board.">
<polygon fill="none" stroke="black" points="328,-112.5 328,-131.5 418,-131.5 418,-112.5 328,-112.5"/>
<text text-anchor="middle" x="373" y="-119.5" font-family="Helvetica,sans-Serif" font-size="10.00">native_sched.h</text>
</a>
</g>
</g>
<!-- Node26&#45;&gt;Node27 -->
<g id="edge50" class="edge">
<title>Node26&#45;&gt;Node27</title>
<path fill="none" stroke="midnightblue" d="M314.25,-168.32C324.8,-160.18 340.8,-147.84 353.44,-138.09"/>
<polygon fill="midnightblue" stroke="midnightblue" points="355.77,-140.71 361.55,-131.83 351.49,-135.17 355.77,-140.71"/>
</g>
<!-- Node28&#45;&gt;Node6 -->
<g id="edge56" class="edge">
<title>Node28&#45;&gt;Node6</title>
<path fill="none" stroke="midnightblue" d="M483.99,-392.49C506.65,-384.88 538.81,-372.4 564,-356 594.3,-336.28 601.07,-328.75 623,-300 658.97,-252.84 731.87,-84.41 755.45,-28.89"/>
<polygon fill="midnightblue" stroke="midnightblue" points="758.7,-30.2 759.38,-19.63 752.25,-27.47 758.7,-30.2"/>
</g>
<!-- Node28&#45;&gt;Node16 -->
<g id="edge58" class="edge">
<title>Node28&#45;&gt;Node16</title>
<path fill="none" stroke="midnightblue" d="M452.37,-392.08C449.39,-384.77 445.07,-374.18 441.38,-365.1"/>
<polygon fill="midnightblue" stroke="midnightblue" points="444.58,-363.69 437.57,-355.75 438.1,-366.33 444.58,-363.69"/>
</g>
<!-- Node28&#45;&gt;Node26 -->
<g id="edge59" class="edge">
<title>Node28&#45;&gt;Node26</title>
<path fill="none" stroke="midnightblue" d="M440.95,-392.37C427.83,-384.28 408.92,-371.17 396,-356 352.74,-305.21 322.01,-230.92 309.39,-197.04"/>
<polygon fill="midnightblue" stroke="midnightblue" points="312.64,-195.74 305.93,-187.54 306.06,-198.13 312.64,-195.74"/>
</g>
<!-- Node29 -->
<g id="node29" class="node">
<title>Node29</title>
<g id="a_node29"><a xlink:title=" ">
<polygon fill="none" stroke="#bfbfbf" points="481,-336.5 481,-355.5 555,-355.5 555,-336.5 481,-336.5"/>
<text text-anchor="middle" x="518" y="-343.5" font-family="Helvetica,sans-Serif" font-size="10.00">stdatomic.h</text>
</a>
</g>
</g>
<!-- Node28&#45;&gt;Node29 -->
<g id="edge57" class="edge">
<title>Node28&#45;&gt;Node29</title>
<path fill="none" stroke="midnightblue" d="M465.96,-392.32C475.13,-384.34 488.94,-372.31 500.03,-362.65"/>
<polygon fill="midnightblue" stroke="midnightblue" points="502.62,-365.04 507.86,-355.83 498.02,-359.76 502.62,-365.04"/>
</g>
<!-- Node33 -->
<g id="node33" class="node">
<title>Node33</title>
<g id="a_node33"><a xlink:href="div_8h.html" target="_top" xlink:title=" ">
<polygon fill="none" stroke="black" points="700,-224.5 700,-243.5 740,-243.5 740,-224.5 700,-224.5"/>
<text text-anchor="middle" x="720" y="-231.5" font-family="Helvetica,sans-Serif" font-size="10.00">div.h</text>
</a>
</g>
</g>
<!-- Node32&#45;&gt;Node33 -->
<g id="edge63" class="edge">
<title>Node32&#45;&gt;Node33</title>
<path fill="none" stroke="midnightblue" d="M596.85,-392.48C614.87,-385.09 639.28,-372.89 656,-356 685.84,-325.85 705.18,-278.92 714.16,-253.26"/>
<polygon fill="midnightblue" stroke="midnightblue" points="717.51,-254.28 717.37,-243.68 710.87,-252.05 717.51,-254.28"/>
</g>
<!-- Node33&#45;&gt;Node6 -->
<g id="edge65" class="edge">
<title>Node33&#45;&gt;Node6</title>
<path fill="none" stroke="midnightblue" d="M721.69,-224.3C728.01,-191.63 750.44,-75.87 759.33,-29.96"/>
<polygon fill="midnightblue" stroke="midnightblue" points="762.81,-30.37 761.28,-19.88 755.94,-29.04 762.81,-30.37"/>
</g>
<!-- Node33&#45;&gt;Node23 -->
<g id="edge64" class="edge">
<title>Node33&#45;&gt;Node23</title>
<path fill="none" stroke="midnightblue" d="M699.7,-225.49C675.59,-216.57 635.05,-201.58 606.55,-191.04"/>
<polygon fill="midnightblue" stroke="midnightblue" points="607.61,-187.7 597.01,-187.51 605.18,-194.26 607.61,-187.7"/>
</g>
<!-- Node34&#45;&gt;Node17 -->
<g id="edge72" class="edge">
<title>Node34&#45;&gt;Node17</title>
<path fill="none" stroke="midnightblue" d="M718.49,-392.37C695.78,-373.73 641.94,-329.53 613.44,-306.13"/>
<polygon fill="midnightblue" stroke="midnightblue" points="615.42,-303.23 605.47,-299.59 610.97,-308.64 615.42,-303.23"/>
</g>
<!-- Node35 -->
<g id="node35" class="node">
<title>Node35</title>
<g id="a_node35"><a xlink:href="drivers_2include_2periph_2timer_8h.html" target="_top" xlink:title="Low&#45;level timer peripheral driver interface definitions.">
<polygon fill="none" stroke="black" points="784,-336.5 784,-355.5 870,-355.5 870,-336.5 784,-336.5"/>
<text text-anchor="middle" x="827" y="-343.5" font-family="Helvetica,sans-Serif" font-size="10.00">periph/timer.h</text>
</a>
</g>
</g>
<!-- Node34&#45;&gt;Node35 -->
<g id="edge67" class="edge">
<title>Node34&#45;&gt;Node35</title>
<path fill="none" stroke="midnightblue" d="M744.75,-392.32C760.32,-383.74 784.38,-370.49 802.46,-360.52"/>
<polygon fill="midnightblue" stroke="midnightblue" points="804.22,-363.55 811.29,-355.65 800.85,-357.42 804.22,-363.55"/>
</g>
<!-- Node35&#45;&gt;Node6 -->
<g id="edge69" class="edge">
<title>Node35&#45;&gt;Node6</title>
<path fill="none" stroke="midnightblue" d="M811.57,-336.3C793.15,-324.67 765.99,-302.86 776,-280 785.46,-258.39 802.57,-264.05 815,-244 830.86,-218.42 834,-209.1 834,-179 834,-179 834,-179 834,-121 834,-82.1 802.27,-46.05 781.23,-26.43"/>
<polygon fill="midnightblue" stroke="midnightblue" points="783.56,-23.81 773.78,-19.74 778.89,-29.02 783.56,-23.81"/>
</g>
<!-- Node35&#45;&gt;Node31 -->
<g id="edge71" class="edge">
<title>Node35&#45;&gt;Node31</title>
<path fill="none" stroke="midnightblue" d="M853.46,-336.44C881.68,-327.32 926.54,-312.81 957.97,-302.65"/>
<polygon fill="midnightblue" stroke="midnightblue" points="959.22,-305.92 967.66,-299.52 957.07,-299.26 959.22,-305.92"/>
</g>
<!-- Node36 -->
<g id="node36" class="node">
<title>Node36</title>
<g id="a_node36"><a xlink:title=" ">
<polygon fill="none" stroke="#bfbfbf" points="881.5,-280.5 881.5,-299.5 934.5,-299.5 934.5,-280.5 881.5,-280.5"/>
<text text-anchor="middle" x="908" y="-287.5" font-family="Helvetica,sans-Serif" font-size="10.00">limits.h</text>
</a>
</g>
</g>
<!-- Node35&#45;&gt;Node36 -->
<g id="edge68" class="edge">
<title>Node35&#45;&gt;Node36</title>
<path fill="none" stroke="midnightblue" d="M840.01,-336.32C852.53,-327.98 871.68,-315.21 886.47,-305.35"/>
<polygon fill="midnightblue" stroke="midnightblue" points="888.64,-308.11 895.02,-299.65 884.76,-302.29 888.64,-308.11"/>
</g>
<!-- Node37 -->
<g id="node37" class="node">
<title>Node37</title>
<g id="a_node37"><a xlink:title=" ">
<polygon fill="none" stroke="#bfbfbf" points="784.5,-280.5 784.5,-299.5 863.5,-299.5 863.5,-280.5 784.5,-280.5"/>
<text text-anchor="middle" x="824" y="-287.5" font-family="Helvetica,sans-Serif" font-size="10.00">periph_cpu.h</text>
</a>
</g>
</g>
<!-- Node35&#45;&gt;Node37 -->
<g id="edge70" class="edge">
<title>Node35&#45;&gt;Node37</title>
<path fill="none" stroke="midnightblue" d="M826.5,-336.08C826.11,-329.01 825.55,-318.86 825.05,-309.99"/>
<polygon fill="midnightblue" stroke="midnightblue" points="828.54,-309.54 824.49,-299.75 821.55,-309.93 828.54,-309.54"/>
</g>
<!-- Node38&#45;&gt;Node11 -->
<g id="edge76" class="edge">
<title>Node38&#45;&gt;Node11</title>
<path fill="none" stroke="midnightblue" d="M890.85,-562.7C815.4,-552.17 664.76,-531.15 591.27,-520.9"/>
<polygon fill="midnightblue" stroke="midnightblue" points="591.4,-517.38 581.01,-519.47 590.43,-524.32 591.4,-517.38"/>
</g>
<!-- Node38&#45;&gt;Node25 -->
<g id="edge75" class="edge">
<title>Node38&#45;&gt;Node25</title>
<path fill="none" stroke="midnightblue" d="M935.8,-560.26C934.69,-531.89 927.32,-441.38 879,-392 844.79,-357.04 805.46,-394.27 775,-356 751.51,-326.48 764.36,-278.96 774.16,-253.13"/>
<polygon fill="midnightblue" stroke="midnightblue" points="777.44,-254.37 777.94,-243.79 770.95,-251.75 777.44,-254.37"/>
</g>
<!-- Node39&#45;&gt;Node13 -->
<g id="edge78" class="edge">
<title>Node39&#45;&gt;Node13</title>
<path fill="none" stroke="midnightblue" d="M1026.91,-561.35C956.3,-542.13 771.22,-491.73 690.08,-469.64"/>
<polygon fill="midnightblue" stroke="midnightblue" points="690.82,-466.22 680.25,-466.97 688.98,-472.97 690.82,-466.22"/>
</g>
<!-- Node40 -->
<g id="node40" class="node">
<title>Node40</title>
<g id="a_node40"><a xlink:title=" ">
<polygon fill="none" stroke="#bfbfbf" points="1026.5,-504.5 1026.5,-523.5 1083.5,-523.5 1083.5,-504.5 1026.5,-504.5"/>
<text text-anchor="middle" x="1055" y="-511.5" font-family="Helvetica,sans-Serif" font-size="10.00">thread.h</text>
</a>
</g>
</g>
<!-- Node39&#45;&gt;Node40 -->
<g id="edge79" class="edge">
<title>Node39&#45;&gt;Node40</title>
<path fill="none" stroke="midnightblue" d="M1055,-560.08C1055,-553.01 1055,-542.86 1055,-533.99"/>
<polygon fill="midnightblue" stroke="midnightblue" points="1058.5,-533.75 1055,-523.75 1051.5,-533.75 1058.5,-533.75"/>
</g>
</g>
</svg>
