<?xml version="1.0" encoding="UTF-8" standalone="no"?>
<!DOCTYPE svg PUBLIC "-//W3C//DTD SVG 1.1//EN"
 "http://www.w3.org/Graphics/SVG/1.1/DTD/svg11.dtd">
<!-- Generated by graphviz version 2.40.1 (20161225.0304)
 -->
<!-- Title: sys/include/net/gnrc/rpl/p2p_structs.h Pages: 1 -->
<svg width="234pt" height="106pt"
 viewBox="0.00 0.00 234.00 106.00" xmlns="http://www.w3.org/2000/svg" xmlns:xlink="http://www.w3.org/1999/xlink">
<g id="graph0" class="graph" transform="scale(1 1) rotate(0) translate(4 102)">
<title>sys/include/net/gnrc/rpl/p2p_structs.h</title>
<!-- Node37 -->
<g id="node1" class="node">
<title>Node37</title>
<polygon fill="#bfbfbf" stroke="#000000" points="61,-67.5 61,-97.5 165,-97.5 165,-67.5 61,-67.5"/>
<text text-anchor="start" x="69" y="-85.5" font-family="Helvetica,sans-Serif" font-size="10.00" fill="#000000">sys/include/net/gnrc</text>
<text text-anchor="middle" x="113" y="-74.5" font-family="Helvetica,sans-Serif" font-size="10.00" fill="#000000">/rpl/p2p_structs.h</text>
</g>
<!-- Node38 -->
<g id="node2" class="node">
<title>Node38</title>
<g id="a_node2"><a xlink:href="p2p_8h.html" target="_top" xlink:title="Definititions for P2P&#45;RPL. ">
<polygon fill="none" stroke="#000000" points="0,-.5 0,-30.5 104,-30.5 104,-.5 0,-.5"/>
<text text-anchor="start" x="8" y="-18.5" font-family="Helvetica,sans-Serif" font-size="10.00" fill="#000000">sys/include/net/gnrc</text>
<text text-anchor="middle" x="52" y="-7.5" font-family="Helvetica,sans-Serif" font-size="10.00" fill="#000000">/rpl/p2p.h</text>
</a>
</g>
</g>
<!-- Node37&#45;&gt;Node38 -->
<g id="edge1" class="edge">
<title>Node37&#45;&gt;Node38</title>
<path fill="none" stroke="#191970" d="M92.1858,-59.6385C83.4699,-50.0653 73.5765,-39.1987 65.7871,-30.6432"/>
<polygon fill="#191970" stroke="#191970" points="89.8379,-62.2585 99.1582,-67.2967 95.014,-57.5459 89.8379,-62.2585"/>
</g>
<!-- Node39 -->
<g id="node3" class="node">
<title>Node39</title>
<g id="a_node3"><a xlink:href="p2p__dodag_8h.html" target="_top" xlink:title="DODAG&#45;related functions for P2P&#45;RPL. ">
<polygon fill="none" stroke="#000000" points="122,-.5 122,-30.5 226,-30.5 226,-.5 122,-.5"/>
<text text-anchor="start" x="130" y="-18.5" font-family="Helvetica,sans-Serif" font-size="10.00" fill="#000000">sys/include/net/gnrc</text>
<text text-anchor="middle" x="174" y="-7.5" font-family="Helvetica,sans-Serif" font-size="10.00" fill="#000000">/rpl/p2p_dodag.h</text>
</a>
</g>
</g>
<!-- Node37&#45;&gt;Node39 -->
<g id="edge2" class="edge">
<title>Node37&#45;&gt;Node39</title>
<path fill="none" stroke="#191970" d="M133.8142,-59.6385C142.5301,-50.0653 152.4235,-39.1987 160.2129,-30.6432"/>
<polygon fill="#191970" stroke="#191970" points="130.986,-57.5459 126.8418,-67.2967 136.1621,-62.2585 130.986,-57.5459"/>
</g>
</g>
</svg>
