<?xml version="1.0" encoding="UTF-8" standalone="no"?>
<!DOCTYPE svg PUBLIC "-//W3C//DTD SVG 1.1//EN"
 "http://www.w3.org/Graphics/SVG/1.1/DTD/svg11.dtd">
<!-- Generated by graphviz version 2.43.0 (0)
 -->
<!-- Title: boards/pba&#45;d&#45;01&#45;kw2x/include/board.h Pages: 1 -->
<svg width="153pt" height="151pt"
 viewBox="0.00 0.00 153.00 151.00" xmlns="http://www.w3.org/2000/svg" xmlns:xlink="http://www.w3.org/1999/xlink">
<g id="graph0" class="graph" transform="scale(1 1) rotate(0) translate(4 147)">
<title>boards/pba&#45;d&#45;01&#45;kw2x/include/board.h</title>
<!-- Node1 -->
<g id="node1" class="node">
<title>Node1</title>
<g id="a_node1"><a xlink:title="Board specific definitions for the phyWAVE evaluation board.">
<polygon fill="#bfbfbf" stroke="black" points="0,-112.5 0,-142.5 126,-142.5 126,-112.5 0,-112.5"/>
<text text-anchor="start" x="8" y="-130.5" font-family="Helvetica,sans-Serif" font-size="10.00">boards/pba&#45;d&#45;01&#45;kw2x</text>
<text text-anchor="middle" x="63" y="-119.5" font-family="Helvetica,sans-Serif" font-size="10.00">/include/board.h</text>
</a>
</g>
</g>
<!-- Node2 -->
<g id="node2" class="node">
<title>Node2</title>
<g id="a_node2"><a xlink:title=" ">
<polygon fill="none" stroke="#bfbfbf" points="1.5,-56.5 1.5,-75.5 44.5,-75.5 44.5,-56.5 1.5,-56.5"/>
<text text-anchor="middle" x="23" y="-63.5" font-family="Helvetica,sans-Serif" font-size="10.00">cpu.h</text>
</a>
</g>
</g>
<!-- Node1&#45;&gt;Node2 -->
<g id="edge1" class="edge">
<title>Node1&#45;&gt;Node2</title>
<path fill="none" stroke="midnightblue" d="M53.52,-112.4C47.83,-103.93 40.55,-93.1 34.52,-84.14"/>
<polygon fill="midnightblue" stroke="midnightblue" points="37.3,-82 28.82,-75.66 31.49,-85.91 37.3,-82"/>
</g>
<!-- Node3 -->
<g id="node3" class="node">
<title>Node3</title>
<g id="a_node3"><a xlink:href="boards_2pba-d-01-kw2x_2include_2periph__conf_8h.html" target="_top" xlink:title=" ">
<polygon fill="none" stroke="black" points="63,-56.5 63,-75.5 145,-75.5 145,-56.5 63,-56.5"/>
<text text-anchor="middle" x="104" y="-63.5" font-family="Helvetica,sans-Serif" font-size="10.00">periph_conf.h</text>
</a>
</g>
</g>
<!-- Node1&#45;&gt;Node3 -->
<g id="edge2" class="edge">
<title>Node1&#45;&gt;Node3</title>
<path fill="none" stroke="midnightblue" d="M72.72,-112.4C78.55,-103.93 86.02,-93.1 92.19,-84.14"/>
<polygon fill="midnightblue" stroke="midnightblue" points="95.24,-85.88 98.03,-75.66 89.48,-81.91 95.24,-85.88"/>
</g>
<!-- Node4 -->
<g id="node4" class="node">
<title>Node4</title>
<g id="a_node4"><a xlink:title=" ">
<polygon fill="none" stroke="#bfbfbf" points="64.5,-0.5 64.5,-19.5 143.5,-19.5 143.5,-0.5 64.5,-0.5"/>
<text text-anchor="middle" x="104" y="-7.5" font-family="Helvetica,sans-Serif" font-size="10.00">periph_cpu.h</text>
</a>
</g>
</g>
<!-- Node3&#45;&gt;Node4 -->
<g id="edge3" class="edge">
<title>Node3&#45;&gt;Node4</title>
<path fill="none" stroke="midnightblue" d="M104,-56.08C104,-49.01 104,-38.86 104,-29.99"/>
<polygon fill="midnightblue" stroke="midnightblue" points="107.5,-29.75 104,-19.75 100.5,-29.75 107.5,-29.75"/>
</g>
</g>
</svg>
