<?xml version="1.0" encoding="UTF-8" standalone="no"?>
<!DOCTYPE svg PUBLIC "-//W3C//DTD SVG 1.1//EN"
 "http://www.w3.org/Graphics/SVG/1.1/DTD/svg11.dtd">
<!-- Generated by graphviz version 2.43.0 (0)
 -->
<!-- Title: drivers/include/pcd8544.h Pages: 1 -->
<svg width="410pt" height="196pt"
 viewBox="0.00 0.00 410.00 196.00" xmlns="http://www.w3.org/2000/svg" xmlns:xlink="http://www.w3.org/1999/xlink">
<g id="graph0" class="graph" transform="scale(1 1) rotate(0) translate(4 192)">
<title>drivers/include/pcd8544.h</title>
<!-- Node1 -->
<g id="node1" class="node">
<title>Node1</title>
<g id="a_node1"><a xlink:title="Interface definition for the PCD8544 LCD driver.">
<polygon fill="#bfbfbf" stroke="black" points="107.5,-168.5 107.5,-187.5 249.5,-187.5 249.5,-168.5 107.5,-168.5"/>
<text text-anchor="middle" x="178.5" y="-175.5" font-family="Helvetica,sans-Serif" font-size="10.00">drivers/include/pcd8544.h</text>
</a>
</g>
</g>
<!-- Node2 -->
<g id="node2" class="node">
<title>Node2</title>
<g id="a_node2"><a xlink:title=" ">
<polygon fill="none" stroke="#bfbfbf" points="0,-56.5 0,-75.5 53,-75.5 53,-56.5 0,-56.5"/>
<text text-anchor="middle" x="26.5" y="-63.5" font-family="Helvetica,sans-Serif" font-size="10.00">stdint.h</text>
</a>
</g>
</g>
<!-- Node1&#45;&gt;Node2 -->
<g id="edge1" class="edge">
<title>Node1&#45;&gt;Node2</title>
<path fill="none" stroke="midnightblue" d="M166.57,-168.37C140.6,-149.57 78.69,-104.77 46.58,-81.53"/>
<polygon fill="midnightblue" stroke="midnightblue" points="48.52,-78.62 38.37,-75.59 44.42,-84.29 48.52,-78.62"/>
</g>
<!-- Node3 -->
<g id="node3" class="node">
<title>Node3</title>
<g id="a_node3"><a xlink:href="gpio_8h.html" target="_top" xlink:title="Low&#45;level GPIO peripheral driver interface definitions.">
<polygon fill="none" stroke="black" points="301.5,-56.5 301.5,-75.5 381.5,-75.5 381.5,-56.5 301.5,-56.5"/>
<text text-anchor="middle" x="341.5" y="-63.5" font-family="Helvetica,sans-Serif" font-size="10.00">periph/gpio.h</text>
</a>
</g>
</g>
<!-- Node1&#45;&gt;Node3 -->
<g id="edge2" class="edge">
<title>Node1&#45;&gt;Node3</title>
<path fill="none" stroke="midnightblue" d="M191.29,-168.37C219.26,-149.49 286.1,-104.38 320.4,-81.24"/>
<polygon fill="midnightblue" stroke="midnightblue" points="322.44,-84.09 328.77,-75.59 318.52,-78.28 322.44,-84.09"/>
</g>
<!-- Node7 -->
<g id="node7" class="node">
<title>Node7</title>
<g id="a_node7"><a xlink:href="spi_8h.html" target="_top" xlink:title="Low&#45;level SPI peripheral driver interface definition.">
<polygon fill="none" stroke="black" points="141.5,-112.5 141.5,-131.5 215.5,-131.5 215.5,-112.5 141.5,-112.5"/>
<text text-anchor="middle" x="178.5" y="-119.5" font-family="Helvetica,sans-Serif" font-size="10.00">periph/spi.h</text>
</a>
</g>
</g>
<!-- Node1&#45;&gt;Node7 -->
<g id="edge6" class="edge">
<title>Node1&#45;&gt;Node7</title>
<path fill="none" stroke="midnightblue" d="M178.5,-168.08C178.5,-161.01 178.5,-150.86 178.5,-141.99"/>
<polygon fill="midnightblue" stroke="midnightblue" points="182,-141.75 178.5,-131.75 175,-141.75 182,-141.75"/>
</g>
<!-- Node4 -->
<g id="node4" class="node">
<title>Node4</title>
<g id="a_node4"><a xlink:title=" ">
<polygon fill="none" stroke="#bfbfbf" points="349,-0.5 349,-19.5 402,-19.5 402,-0.5 349,-0.5"/>
<text text-anchor="middle" x="375.5" y="-7.5" font-family="Helvetica,sans-Serif" font-size="10.00">limits.h</text>
</a>
</g>
</g>
<!-- Node3&#45;&gt;Node4 -->
<g id="edge3" class="edge">
<title>Node3&#45;&gt;Node4</title>
<path fill="none" stroke="midnightblue" d="M347.11,-56.08C351.87,-48.53 358.82,-37.49 364.65,-28.23"/>
<polygon fill="midnightblue" stroke="midnightblue" points="367.62,-30.08 369.99,-19.75 361.7,-26.35 367.62,-30.08"/>
</g>
<!-- Node5 -->
<g id="node5" class="node">
<title>Node5</title>
<g id="a_node5"><a xlink:title=" ">
<polygon fill="none" stroke="#bfbfbf" points="233,-0.5 233,-19.5 312,-19.5 312,-0.5 233,-0.5"/>
<text text-anchor="middle" x="272.5" y="-7.5" font-family="Helvetica,sans-Serif" font-size="10.00">periph_cpu.h</text>
</a>
</g>
</g>
<!-- Node3&#45;&gt;Node5 -->
<g id="edge4" class="edge">
<title>Node3&#45;&gt;Node5</title>
<path fill="none" stroke="midnightblue" d="M330.41,-56.32C320.01,-48.18 304.24,-35.84 291.78,-26.09"/>
<polygon fill="midnightblue" stroke="midnightblue" points="293.82,-23.24 283.79,-19.83 289.51,-28.75 293.82,-23.24"/>
</g>
<!-- Node6 -->
<g id="node6" class="node">
<title>Node6</title>
<g id="a_node6"><a xlink:title=" ">
<polygon fill="none" stroke="#bfbfbf" points="94.5,-0.5 94.5,-19.5 176.5,-19.5 176.5,-0.5 94.5,-0.5"/>
<text text-anchor="middle" x="135.5" y="-7.5" font-family="Helvetica,sans-Serif" font-size="10.00">periph_conf.h</text>
</a>
</g>
</g>
<!-- Node3&#45;&gt;Node6 -->
<g id="edge5" class="edge">
<title>Node3&#45;&gt;Node6</title>
<path fill="none" stroke="midnightblue" d="M308.86,-56.44C273.45,-47.16 216.79,-32.31 177.95,-22.13"/>
<polygon fill="midnightblue" stroke="midnightblue" points="178.55,-18.67 167.99,-19.52 176.77,-25.44 178.55,-18.67"/>
</g>
<!-- Node7&#45;&gt;Node2 -->
<g id="edge9" class="edge">
<title>Node7&#45;&gt;Node2</title>
<path fill="none" stroke="midnightblue" d="M154.42,-112.44C128.96,-103.4 88.61,-89.06 60.04,-78.92"/>
<polygon fill="midnightblue" stroke="midnightblue" points="61.07,-75.57 50.47,-75.52 58.72,-82.16 61.07,-75.57"/>
</g>
<!-- Node7&#45;&gt;Node3 -->
<g id="edge13" class="edge">
<title>Node7&#45;&gt;Node3</title>
<path fill="none" stroke="midnightblue" d="M204.33,-112.44C231.75,-103.36 275.28,-88.94 305.93,-78.78"/>
<polygon fill="midnightblue" stroke="midnightblue" points="307.4,-81.98 315.79,-75.52 305.2,-75.34 307.4,-81.98"/>
</g>
<!-- Node7&#45;&gt;Node4 -->
<g id="edge10" class="edge">
<title>Node7&#45;&gt;Node4</title>
<path fill="none" stroke="midnightblue" d="M215.55,-118.6C270.35,-114.19 368.89,-102.68 390.5,-76 401.4,-62.55 394.45,-42.64 386.79,-28.4"/>
<polygon fill="midnightblue" stroke="midnightblue" points="389.68,-26.42 381.58,-19.6 383.66,-29.99 389.68,-26.42"/>
</g>
<!-- Node7&#45;&gt;Node5 -->
<g id="edge11" class="edge">
<title>Node7&#45;&gt;Node5</title>
<path fill="none" stroke="midnightblue" d="M166.34,-112.34C150.01,-99.63 124.58,-75.36 138.5,-56 157.53,-29.53 192.89,-18.42 222.51,-13.85"/>
<polygon fill="midnightblue" stroke="midnightblue" points="223.26,-17.28 232.71,-12.49 222.34,-10.34 223.26,-17.28"/>
</g>
<!-- Node7&#45;&gt;Node6 -->
<g id="edge12" class="edge">
<title>Node7&#45;&gt;Node6</title>
<path fill="none" stroke="midnightblue" d="M152.29,-112.41C135.65,-105.44 115.44,-93.81 105.5,-76 96.47,-59.82 108.13,-40.45 119.44,-27.08"/>
<polygon fill="midnightblue" stroke="midnightblue" points="122.1,-29.37 126.25,-19.62 116.93,-24.65 122.1,-29.37"/>
</g>
<!-- Node8 -->
<g id="node8" class="node">
<title>Node8</title>
<g id="a_node8"><a xlink:title=" ">
<polygon fill="none" stroke="#bfbfbf" points="147.5,-56.5 147.5,-75.5 209.5,-75.5 209.5,-56.5 147.5,-56.5"/>
<text text-anchor="middle" x="178.5" y="-63.5" font-family="Helvetica,sans-Serif" font-size="10.00">stdbool.h</text>
</a>
</g>
</g>
<!-- Node7&#45;&gt;Node8 -->
<g id="edge7" class="edge">
<title>Node7&#45;&gt;Node8</title>
<path fill="none" stroke="midnightblue" d="M178.5,-112.08C178.5,-105.01 178.5,-94.86 178.5,-85.99"/>
<polygon fill="midnightblue" stroke="midnightblue" points="182,-85.75 178.5,-75.75 175,-85.75 182,-85.75"/>
</g>
<!-- Node9 -->
<g id="node9" class="node">
<title>Node9</title>
<g id="a_node9"><a xlink:title=" ">
<polygon fill="none" stroke="#bfbfbf" points="227.5,-56.5 227.5,-75.5 283.5,-75.5 283.5,-56.5 227.5,-56.5"/>
<text text-anchor="middle" x="255.5" y="-63.5" font-family="Helvetica,sans-Serif" font-size="10.00">stddef.h</text>
</a>
</g>
</g>
<!-- Node7&#45;&gt;Node9 -->
<g id="edge8" class="edge">
<title>Node7&#45;&gt;Node9</title>
<path fill="none" stroke="midnightblue" d="M190.87,-112.32C202.66,-104.06 220.63,-91.45 234.64,-81.63"/>
<polygon fill="midnightblue" stroke="midnightblue" points="236.98,-84.26 243.16,-75.65 232.96,-78.53 236.98,-84.26"/>
</g>
</g>
</svg>
