<?xml version="1.0" encoding="UTF-8" standalone="no"?>
<!DOCTYPE svg PUBLIC "-//W3C//DTD SVG 1.1//EN"
 "http://www.w3.org/Graphics/SVG/1.1/DTD/svg11.dtd">
<!-- Generated by graphviz version 2.40.1 (20161225.0304)
 -->
<!-- Title: sys/include/ztimer/periph_timer.h Pages: 1 -->
<svg width="569pt" height="319pt"
 viewBox="0.00 0.00 569.00 319.00" xmlns="http://www.w3.org/2000/svg" xmlns:xlink="http://www.w3.org/1999/xlink">
<g id="graph0" class="graph" transform="scale(1 1) rotate(0) translate(4 315)">
<title>sys/include/ztimer/periph_timer.h</title>
<!-- Node0 -->
<g id="node1" class="node">
<title>Node0</title>
<polygon fill="#bfbfbf" stroke="#000000" points="234,-280.5 234,-310.5 330,-310.5 330,-280.5 234,-280.5"/>
<text text-anchor="start" x="242" y="-298.5" font-family="Helvetica,sans-Serif" font-size="10.00" fill="#000000">sys/include/ztimer</text>
<text text-anchor="middle" x="282" y="-287.5" font-family="Helvetica,sans-Serif" font-size="10.00" fill="#000000">/periph_timer.h</text>
</g>
<!-- Node1 -->
<g id="node2" class="node">
<title>Node1</title>
<g id="a_node2"><a xlink:href="ztimer_8h.html" target="_top" xlink:title="ztimer API ">
<polygon fill="none" stroke="#000000" points="229,-224.5 229,-243.5 281,-243.5 281,-224.5 229,-224.5"/>
<text text-anchor="middle" x="255" y="-231.5" font-family="Helvetica,sans-Serif" font-size="10.00" fill="#000000">ztimer.h</text>
</a>
</g>
</g>
<!-- Node0&#45;&gt;Node1 -->
<g id="edge1" class="edge">
<title>Node0&#45;&gt;Node1</title>
<path fill="none" stroke="#191970" d="M275.3258,-280.2977C271.7341,-272.1166 267.2676,-261.943 263.4371,-253.2179"/>
<polygon fill="#191970" stroke="#191970" points="266.5478,-251.5964 259.323,-243.8469 260.1382,-254.4104 266.5478,-251.5964"/>
</g>
<!-- Node10 -->
<g id="node11" class="node">
<title>Node10</title>
<g id="a_node11"><a xlink:href="drivers_2include_2periph_2timer_8h.html" target="_top" xlink:title="Low&#45;level timer peripheral driver interface definitions. ">
<polygon fill="none" stroke="#000000" points="324,-112.5 324,-131.5 400,-131.5 400,-112.5 324,-112.5"/>
<text text-anchor="middle" x="362" y="-119.5" font-family="Helvetica,sans-Serif" font-size="10.00" fill="#000000">periph/timer.h</text>
</a>
</g>
</g>
<!-- Node0&#45;&gt;Node10 -->
<g id="edge13" class="edge">
<title>Node0&#45;&gt;Node10</title>
<path fill="none" stroke="#191970" d="M288.9595,-280.4065C303.4978,-248.8767 337.069,-176.0692 353.1285,-141.24"/>
<polygon fill="#191970" stroke="#191970" points="356.5009,-142.2847 357.5099,-131.738 350.1441,-139.3536 356.5009,-142.2847"/>
</g>
<!-- Node2 -->
<g id="node3" class="node">
<title>Node2</title>
<polygon fill="none" stroke="#bfbfbf" points="233.5,-56.5 233.5,-75.5 282.5,-75.5 282.5,-56.5 233.5,-56.5"/>
<text text-anchor="middle" x="258" y="-63.5" font-family="Helvetica,sans-Serif" font-size="10.00" fill="#000000">stdint.h</text>
</g>
<!-- Node1&#45;&gt;Node2 -->
<g id="edge2" class="edge">
<title>Node1&#45;&gt;Node2</title>
<path fill="none" stroke="#191970" d="M255.1699,-224.4862C255.6441,-197.9293 256.9899,-122.5651 257.6399,-86.1655"/>
<polygon fill="#191970" stroke="#191970" points="261.1453,-85.8888 257.8245,-75.8279 254.1464,-85.7638 261.1453,-85.8888"/>
</g>
<!-- Node3 -->
<g id="node4" class="node">
<title>Node3</title>
<g id="a_node4"><a xlink:href="kernel__types_8h.html" target="_top" xlink:title="Types used by the kernel. ">
<polygon fill="none" stroke="#000000" points="76,-112.5 76,-131.5 156,-131.5 156,-112.5 76,-112.5"/>
<text text-anchor="middle" x="116" y="-119.5" font-family="Helvetica,sans-Serif" font-size="10.00" fill="#000000">kernel_types.h</text>
</a>
</g>
</g>
<!-- Node1&#45;&gt;Node3 -->
<g id="edge3" class="edge">
<title>Node1&#45;&gt;Node3</title>
<path fill="none" stroke="#191970" d="M241.4911,-224.3961C228.7913,-215.2697 209.3434,-201.0408 193,-188 172.5627,-171.6926 149.9261,-152.0959 134.5186,-138.5134"/>
<polygon fill="#191970" stroke="#191970" points="136.5696,-135.6545 126.7626,-131.6453 131.9289,-140.8952 136.5696,-135.6545"/>
</g>
<!-- Node8 -->
<g id="node9" class="node">
<title>Node8</title>
<g id="a_node9"><a xlink:href="msg_8h.html" target="_top" xlink:title="Messaging API for inter process communication. ">
<polygon fill="none" stroke="#000000" points="202,-168.5 202,-187.5 246,-187.5 246,-168.5 202,-168.5"/>
<text text-anchor="middle" x="224" y="-175.5" font-family="Helvetica,sans-Serif" font-size="10.00" fill="#000000">msg.h</text>
</a>
</g>
</g>
<!-- Node1&#45;&gt;Node8 -->
<g id="edge9" class="edge">
<title>Node1&#45;&gt;Node8</title>
<path fill="none" stroke="#191970" d="M249.6002,-224.2455C245.3773,-216.617 239.3827,-205.7881 234.2559,-196.5267"/>
<polygon fill="#191970" stroke="#191970" points="237.2432,-194.6965 229.3379,-187.6427 231.119,-198.0867 237.2432,-194.6965"/>
</g>
<!-- Node3&#45;&gt;Node2 -->
<g id="edge4" class="edge">
<title>Node3&#45;&gt;Node2</title>
<path fill="none" stroke="#191970" d="M140.4107,-112.3733C163.6142,-103.2226 198.7038,-89.3844 224.5142,-79.2057"/>
<polygon fill="#191970" stroke="#191970" points="225.8892,-82.4258 233.9079,-75.5011 223.3211,-75.9139 225.8892,-82.4258"/>
</g>
<!-- Node4 -->
<g id="node5" class="node">
<title>Node4</title>
<g id="a_node5"><a xlink:href="inttypes_8h.html" target="_top" xlink:title="Adds include for missing inttype definitions. ">
<polygon fill="none" stroke="#000000" points="156.5,-56.5 156.5,-75.5 215.5,-75.5 215.5,-56.5 156.5,-56.5"/>
<text text-anchor="middle" x="186" y="-63.5" font-family="Helvetica,sans-Serif" font-size="10.00" fill="#000000">inttypes.h</text>
</a>
</g>
</g>
<!-- Node3&#45;&gt;Node4 -->
<g id="edge5" class="edge">
<title>Node3&#45;&gt;Node4</title>
<path fill="none" stroke="#191970" d="M128.1931,-112.2455C138.6321,-103.8943 153.8655,-91.7076 166.074,-81.9408"/>
<polygon fill="#191970" stroke="#191970" points="168.3244,-84.6227 173.9467,-75.6427 163.9515,-79.1566 168.3244,-84.6227"/>
</g>
<!-- Node5 -->
<g id="node6" class="node">
<title>Node5</title>
<polygon fill="none" stroke="#bfbfbf" points="301,-56.5 301,-75.5 349,-75.5 349,-56.5 301,-56.5"/>
<text text-anchor="middle" x="325" y="-63.5" font-family="Helvetica,sans-Serif" font-size="10.00" fill="#000000">limits.h</text>
</g>
<!-- Node3&#45;&gt;Node5 -->
<g id="edge6" class="edge">
<title>Node3&#45;&gt;Node5</title>
<path fill="none" stroke="#191970" d="M154.2237,-112.4625C187.8586,-103.9692 238.3801,-90.9686 291.0291,-76.2029"/>
<polygon fill="#191970" stroke="#191970" points="292.2056,-79.5078 300.881,-73.426 290.3064,-72.7703 292.2056,-79.5078"/>
</g>
<!-- Node6 -->
<g id="node7" class="node">
<title>Node6</title>
<polygon fill="none" stroke="#bfbfbf" points="0,-56.5 0,-75.5 52,-75.5 52,-56.5 0,-56.5"/>
<text text-anchor="middle" x="26" y="-63.5" font-family="Helvetica,sans-Serif" font-size="10.00" fill="#000000">stddef.h</text>
</g>
<!-- Node3&#45;&gt;Node6 -->
<g id="edge7" class="edge">
<title>Node3&#45;&gt;Node6</title>
<path fill="none" stroke="#191970" d="M100.3232,-112.2455C86.5144,-103.6534 66.1807,-91.0014 50.2708,-81.1018"/>
<polygon fill="#191970" stroke="#191970" points="51.8368,-77.954 41.4972,-75.6427 48.1387,-83.8974 51.8368,-77.954"/>
</g>
<!-- Node7 -->
<g id="node8" class="node">
<title>Node7</title>
<polygon fill="none" stroke="#bfbfbf" points="70,-56.5 70,-75.5 138,-75.5 138,-56.5 70,-56.5"/>
<text text-anchor="middle" x="104" y="-63.5" font-family="Helvetica,sans-Serif" font-size="10.00" fill="#000000">sys/types.h</text>
</g>
<!-- Node3&#45;&gt;Node7 -->
<g id="edge8" class="edge">
<title>Node3&#45;&gt;Node7</title>
<path fill="none" stroke="#191970" d="M113.9098,-112.2455C112.3439,-104.9382 110.1488,-94.6944 108.2224,-85.7046"/>
<polygon fill="#191970" stroke="#191970" points="111.584,-84.6873 106.0663,-75.6427 104.7393,-86.1541 111.584,-84.6873"/>
</g>
<!-- Node8&#45;&gt;Node2 -->
<g id="edge10" class="edge">
<title>Node8&#45;&gt;Node2</title>
<path fill="none" stroke="#191970" d="M227.3185,-168.1611C230.4265,-158.8685 235.1556,-144.5274 239,-132 243.7553,-116.5045 248.8178,-98.8555 252.5204,-85.7094"/>
<polygon fill="#191970" stroke="#191970" points="255.9489,-86.4451 255.2741,-75.8718 249.208,-84.5581 255.9489,-86.4451"/>
</g>
<!-- Node8&#45;&gt;Node3 -->
<g id="edge12" class="edge">
<title>Node8&#45;&gt;Node3</title>
<path fill="none" stroke="#191970" d="M205.1878,-168.2455C188.1527,-159.4125 162.8425,-146.2887 143.5319,-136.2758"/>
<polygon fill="#191970" stroke="#191970" points="145.0853,-133.1388 134.5966,-131.6427 141.863,-139.353 145.0853,-133.1388"/>
</g>
<!-- Node9 -->
<g id="node10" class="node">
<title>Node9</title>
<polygon fill="none" stroke="#bfbfbf" points="174,-112.5 174,-131.5 230,-131.5 230,-112.5 174,-112.5"/>
<text text-anchor="middle" x="202" y="-119.5" font-family="Helvetica,sans-Serif" font-size="10.00" fill="#000000">stdbool.h</text>
</g>
<!-- Node8&#45;&gt;Node9 -->
<g id="edge11" class="edge">
<title>Node8&#45;&gt;Node9</title>
<path fill="none" stroke="#191970" d="M220.1679,-168.2455C217.2341,-160.7776 213.0953,-150.2427 209.509,-141.1137"/>
<polygon fill="#191970" stroke="#191970" points="212.7024,-139.6704 205.7882,-131.6427 206.1871,-142.23 212.7024,-139.6704"/>
</g>
<!-- Node10&#45;&gt;Node2 -->
<g id="edge15" class="edge">
<title>Node10&#45;&gt;Node2</title>
<path fill="none" stroke="#191970" d="M343.8846,-112.2455C327.555,-103.4527 303.329,-90.4079 284.7661,-80.4125"/>
<polygon fill="#191970" stroke="#191970" points="286.3719,-77.3021 275.9078,-75.6427 283.0532,-83.4654 286.3719,-77.3021"/>
</g>
<!-- Node10&#45;&gt;Node5 -->
<g id="edge14" class="edge">
<title>Node10&#45;&gt;Node5</title>
<path fill="none" stroke="#191970" d="M355.5551,-112.2455C350.4618,-104.5367 343.2092,-93.5598 337.048,-84.2348"/>
<polygon fill="#191970" stroke="#191970" points="339.8038,-82.0566 331.3711,-75.6427 333.9635,-85.9155 339.8038,-82.0566"/>
</g>
<!-- Node11 -->
<g id="node12" class="node">
<title>Node11</title>
<polygon fill="none" stroke="#bfbfbf" points="489,-56.5 489,-75.5 561,-75.5 561,-56.5 489,-56.5"/>
<text text-anchor="middle" x="525" y="-63.5" font-family="Helvetica,sans-Serif" font-size="10.00" fill="#000000">periph_cpu.h</text>
</g>
<!-- Node10&#45;&gt;Node11 -->
<g id="edge16" class="edge">
<title>Node10&#45;&gt;Node11</title>
<path fill="none" stroke="#191970" d="M390.0207,-112.3733C417.0078,-103.1016 458.0017,-89.0178 487.7311,-78.804"/>
<polygon fill="#191970" stroke="#191970" points="489.0248,-82.0605 497.3449,-75.5011 486.7503,-75.4403 489.0248,-82.0605"/>
</g>
<!-- Node12 -->
<g id="node13" class="node">
<title>Node12</title>
<g id="a_node13"><a xlink:href="dev__enums_8h.html" target="_top" xlink:title="Device enumerations for backward compatibility with existing peripheral driver implementations. ">
<polygon fill="none" stroke="#000000" points="367,-56.5 367,-75.5 471,-75.5 471,-56.5 367,-56.5"/>
<text text-anchor="middle" x="419" y="-63.5" font-family="Helvetica,sans-Serif" font-size="10.00" fill="#000000">periph/dev_enums.h</text>
</a>
</g>
</g>
<!-- Node10&#45;&gt;Node12 -->
<g id="edge17" class="edge">
<title>Node10&#45;&gt;Node12</title>
<path fill="none" stroke="#191970" d="M371.9286,-112.2455C380.1838,-104.1352 392.1209,-92.4075 401.9082,-82.7919"/>
<polygon fill="#191970" stroke="#191970" points="404.5046,-85.1476 409.1851,-75.6427 399.5989,-80.1542 404.5046,-85.1476"/>
</g>
<!-- Node13 -->
<g id="node14" class="node">
<title>Node13</title>
<polygon fill="none" stroke="#bfbfbf" points="381.5,-.5 381.5,-19.5 456.5,-19.5 456.5,-.5 381.5,-.5"/>
<text text-anchor="middle" x="419" y="-7.5" font-family="Helvetica,sans-Serif" font-size="10.00" fill="#000000">periph_conf.h</text>
</g>
<!-- Node12&#45;&gt;Node13 -->
<g id="edge18" class="edge">
<title>Node12&#45;&gt;Node13</title>
<path fill="none" stroke="#191970" d="M419,-56.2455C419,-48.9382 419,-38.6944 419,-29.7046"/>
<polygon fill="#191970" stroke="#191970" points="422.5001,-29.6426 419,-19.6427 415.5001,-29.6427 422.5001,-29.6426"/>
</g>
</g>
</svg>
