<?xml version="1.0" encoding="UTF-8" standalone="no"?>
<!DOCTYPE svg PUBLIC "-//W3C//DTD SVG 1.1//EN"
 "http://www.w3.org/Graphics/SVG/1.1/DTD/svg11.dtd">
<!-- Generated by graphviz version 2.40.1 (20161225.0304)
 -->
<!-- Title: boards/common/atmega/include/periph_conf_atmega_common.h Pages: 1 -->
<svg width="1342pt" height="195pt"
 viewBox="0.00 0.00 1342.00 195.00" xmlns="http://www.w3.org/2000/svg" xmlns:xlink="http://www.w3.org/1999/xlink">
<g id="graph0" class="graph" transform="scale(1 1) rotate(0) translate(4 191)">
<title>boards/common/atmega/include/periph_conf_atmega_common.h</title>
<!-- Node2 -->
<g id="node1" class="node">
<title>Node2</title>
<polygon fill="#bfbfbf" stroke="#000000" points="617,-145.5 617,-186.5 739,-186.5 739,-145.5 617,-145.5"/>
<text text-anchor="start" x="625" y="-174.5" font-family="Helvetica,sans-Serif" font-size="10.00" fill="#000000">boards/common/atmega</text>
<text text-anchor="start" x="625" y="-163.5" font-family="Helvetica,sans-Serif" font-size="10.00" fill="#000000">/include/periph_conf</text>
<text text-anchor="middle" x="678" y="-152.5" font-family="Helvetica,sans-Serif" font-size="10.00" fill="#000000">_atmega_common.h</text>
</g>
<!-- Node3 -->
<g id="node2" class="node">
<title>Node3</title>
<g id="a_node2"><a xlink:href="boards_2atmega1284p_2include_2periph__conf_8h.html" target="_top" xlink:title="Peripheral MCU configuration for the ATmega1284p standalone &quot;board&quot;. ">
<polygon fill="none" stroke="#000000" points="0,-73 0,-103 112,-103 112,-73 0,-73"/>
<text text-anchor="start" x="8" y="-91" font-family="Helvetica,sans-Serif" font-size="10.00" fill="#000000">boards/atmega1284p</text>
<text text-anchor="middle" x="56" y="-80" font-family="Helvetica,sans-Serif" font-size="10.00" fill="#000000">/include/periph_conf.h</text>
</a>
</g>
</g>
<!-- Node2&#45;&gt;Node3 -->
<g id="edge1" class="edge">
<title>Node2&#45;&gt;Node3</title>
<path fill="none" stroke="#191970" d="M606.7721,-163.5043C500.13,-158.6928 293.0973,-145.1841 121,-109 113.5726,-107.4384 105.7964,-105.345 98.31,-103.0835"/>
<polygon fill="#191970" stroke="#191970" points="606.6305,-167.0013 616.7743,-163.9432 606.9374,-160.008 606.6305,-167.0013"/>
</g>
<!-- Node5 -->
<g id="node4" class="node">
<title>Node5</title>
<g id="a_node4"><a xlink:href="boards_2atmega256rfr2-xpro_2include_2periph__conf_8h.html" target="_top" xlink:title="Peripheral MCU configuration for the Atmega256RFR2 Xplained Pro. ">
<polygon fill="none" stroke="#000000" points="130.5,-67.5 130.5,-108.5 241.5,-108.5 241.5,-67.5 130.5,-67.5"/>
<text text-anchor="start" x="138.5" y="-96.5" font-family="Helvetica,sans-Serif" font-size="10.00" fill="#000000">boards/atmega256rfr2</text>
<text text-anchor="start" x="138.5" y="-85.5" font-family="Helvetica,sans-Serif" font-size="10.00" fill="#000000">&#45;xpro/include/periph</text>
<text text-anchor="middle" x="186" y="-74.5" font-family="Helvetica,sans-Serif" font-size="10.00" fill="#000000">_conf.h</text>
</a>
</g>
</g>
<!-- Node2&#45;&gt;Node5 -->
<g id="edge3" class="edge">
<title>Node2&#45;&gt;Node5</title>
<path fill="none" stroke="#191970" d="M606.8375,-160.4421C521.5121,-152.8752 374.5422,-136.9637 251,-109 247.9927,-108.3193 244.9258,-107.5603 241.8424,-106.7458"/>
<polygon fill="#191970" stroke="#191970" points="606.665,-163.9403 616.9317,-161.3238 607.2742,-156.9668 606.665,-163.9403"/>
</g>
<!-- Node6 -->
<g id="node5" class="node">
<title>Node6</title>
<g id="a_node5"><a xlink:href="boards_2atmega328p_2include_2periph__conf_8h.html" target="_top" xlink:title="Peripheral MCU configuration for the ATmega328p standalone &quot;board&quot;. ">
<polygon fill="none" stroke="#000000" points="260,-73 260,-103 396,-103 396,-73 260,-73"/>
<text text-anchor="start" x="268" y="-91" font-family="Helvetica,sans-Serif" font-size="10.00" fill="#000000">boards/atmega328p/include</text>
<text text-anchor="middle" x="328" y="-80" font-family="Helvetica,sans-Serif" font-size="10.00" fill="#000000">/periph_conf.h</text>
</a>
</g>
</g>
<!-- Node2&#45;&gt;Node6 -->
<g id="edge4" class="edge">
<title>Node2&#45;&gt;Node6</title>
<path fill="none" stroke="#191970" d="M606.7363,-152.3461C551.4961,-141.4667 473.1374,-125.3889 405,-109 397.4556,-107.1854 389.5274,-105.1598 381.7441,-103.1023"/>
<polygon fill="#191970" stroke="#191970" points="606.2873,-155.8246 616.7742,-154.3159 607.6353,-148.9557 606.2873,-155.8246"/>
</g>
<!-- Node8 -->
<g id="node7" class="node">
<title>Node8</title>
<g id="a_node7"><a xlink:href="boards_2avr-rss2_2include_2periph__conf_8h.html" target="_top" xlink:title="Peripheral MCU configuration for the rss2 AtMega256rfr2 board. ">
<polygon fill="none" stroke="#000000" points="414,-73 414,-103 532,-103 532,-73 414,-73"/>
<text text-anchor="start" x="422" y="-91" font-family="Helvetica,sans-Serif" font-size="10.00" fill="#000000">boards/avr&#45;rss2/include</text>
<text text-anchor="middle" x="473" y="-80" font-family="Helvetica,sans-Serif" font-size="10.00" fill="#000000">/periph_conf.h</text>
</a>
</g>
</g>
<!-- Node2&#45;&gt;Node8 -->
<g id="edge6" class="edge">
<title>Node2&#45;&gt;Node8</title>
<path fill="none" stroke="#191970" d="M614.2187,-141.732C580.9405,-129.07 541.2789,-113.9793 512.4725,-103.0188"/>
<polygon fill="#191970" stroke="#191970" points="613.2795,-145.1194 623.8705,-145.4044 615.7689,-138.577 613.2795,-145.1194"/>
</g>
<!-- Node9 -->
<g id="node8" class="node">
<title>Node9</title>
<g id="a_node8"><a xlink:href="boards_2common_2arduino-atmega_2include_2periph__conf_8h.html" target="_top" xlink:title="Common configuration of MCU periphery for Arduino Atmega boards. ">
<polygon fill="none" stroke="#000000" points="550.5,-67.5 550.5,-108.5 671.5,-108.5 671.5,-67.5 550.5,-67.5"/>
<text text-anchor="start" x="558.5" y="-96.5" font-family="Helvetica,sans-Serif" font-size="10.00" fill="#000000">boards/common/arduino</text>
<text text-anchor="start" x="558.5" y="-85.5" font-family="Helvetica,sans-Serif" font-size="10.00" fill="#000000">&#45;atmega/include/periph</text>
<text text-anchor="middle" x="611" y="-74.5" font-family="Helvetica,sans-Serif" font-size="10.00" fill="#000000">_conf.h</text>
</a>
</g>
</g>
<!-- Node2&#45;&gt;Node9 -->
<g id="edge7" class="edge">
<title>Node2&#45;&gt;Node9</title>
<path fill="none" stroke="#191970" d="M653.4127,-137.376C645.2476,-127.8703 636.3207,-117.4778 628.772,-108.6898"/>
<polygon fill="#191970" stroke="#191970" points="650.8743,-139.7923 660.0452,-145.0974 656.1843,-135.2311 650.8743,-139.7923"/>
</g>
<!-- Node10 -->
<g id="node9" class="node">
<title>Node10</title>
<g id="a_node9"><a xlink:href="boards_2derfmega128_2include_2periph__conf_8h.html" target="_top" xlink:title="Peripheral MCU configuration for the deRFmega128 module. ">
<polygon fill="none" stroke="#000000" points="690,-73 690,-103 802,-103 802,-73 690,-73"/>
<text text-anchor="start" x="698" y="-91" font-family="Helvetica,sans-Serif" font-size="10.00" fill="#000000">boards/derfmega128</text>
<text text-anchor="middle" x="746" y="-80" font-family="Helvetica,sans-Serif" font-size="10.00" fill="#000000">/include/periph_conf.h</text>
</a>
</g>
</g>
<!-- Node2&#45;&gt;Node10 -->
<g id="edge8" class="edge">
<title>Node2&#45;&gt;Node10</title>
<path fill="none" stroke="#191970" d="M702.9622,-137.3668C713.0292,-125.8194 724.236,-112.9646 732.6896,-103.2679"/>
<polygon fill="#191970" stroke="#191970" points="700.1559,-135.2597 696.2228,-145.0974 705.4324,-139.8597 700.1559,-135.2597"/>
</g>
<!-- Node11 -->
<g id="node10" class="node">
<title>Node11</title>
<g id="a_node10"><a xlink:href="boards_2derfmega256_2include_2periph__conf_8h.html" target="_top" xlink:title="Peripheral MCU configuration for the deRFmega256 module. ">
<polygon fill="none" stroke="#000000" points="820,-73 820,-103 932,-103 932,-73 820,-73"/>
<text text-anchor="start" x="828" y="-91" font-family="Helvetica,sans-Serif" font-size="10.00" fill="#000000">boards/derfmega256</text>
<text text-anchor="middle" x="876" y="-80" font-family="Helvetica,sans-Serif" font-size="10.00" fill="#000000">/include/periph_conf.h</text>
</a>
</g>
</g>
<!-- Node2&#45;&gt;Node11 -->
<g id="edge9" class="edge">
<title>Node2&#45;&gt;Node11</title>
<path fill="none" stroke="#191970" d="M739.6034,-141.732C771.7453,-129.07 810.0526,-113.9793 837.8754,-103.0188"/>
<polygon fill="#191970" stroke="#191970" points="738.3024,-138.4826 730.2812,-145.4044 740.8681,-144.9955 738.3024,-138.4826"/>
</g>
<!-- Node12 -->
<g id="node11" class="node">
<title>Node12</title>
<g id="a_node11"><a xlink:href="boards_2mega-xplained_2include_2periph__conf_8h.html" target="_top" xlink:title="Common configuration of MCU periphery for Mega Xplained. ">
<polygon fill="none" stroke="#000000" points="950,-73 950,-103 1062,-103 1062,-73 950,-73"/>
<text text-anchor="start" x="958" y="-91" font-family="Helvetica,sans-Serif" font-size="10.00" fill="#000000">boards/mega&#45;xplained</text>
<text text-anchor="middle" x="1006" y="-80" font-family="Helvetica,sans-Serif" font-size="10.00" fill="#000000">/include/periph_conf.h</text>
</a>
</g>
</g>
<!-- Node2&#45;&gt;Node12 -->
<g id="edge10" class="edge">
<title>Node2&#45;&gt;Node12</title>
<path fill="none" stroke="#191970" d="M749.2712,-152.541C802.4406,-142.0203 876.6849,-126.3132 941,-109 947.6418,-107.2121 954.6105,-105.1563 961.4171,-103.046"/>
<polygon fill="#191970" stroke="#191970" points="748.3985,-149.1455 739.2619,-154.5096 749.7494,-156.0139 748.3985,-149.1455"/>
</g>
<!-- Node13 -->
<g id="node12" class="node">
<title>Node13</title>
<g id="a_node12"><a xlink:href="boards_2microduino-corerf_2include_2periph__conf_8h.html" target="_top" xlink:title="Peripheral MCU configuration for the Microduino CoreRF board. ">
<polygon fill="none" stroke="#000000" points="1080,-73 1080,-103 1204,-103 1204,-73 1080,-73"/>
<text text-anchor="start" x="1088" y="-91" font-family="Helvetica,sans-Serif" font-size="10.00" fill="#000000">boards/microduino&#45;corerf</text>
<text text-anchor="middle" x="1142" y="-80" font-family="Helvetica,sans-Serif" font-size="10.00" fill="#000000">/include/periph_conf.h</text>
</a>
</g>
</g>
<!-- Node2&#45;&gt;Node13 -->
<g id="edge11" class="edge">
<title>Node2&#45;&gt;Node13</title>
<path fill="none" stroke="#191970" d="M749.4236,-158.7611C828.6025,-150.0144 959.8234,-133.372 1071,-109 1078.6592,-107.321 1086.6996,-105.2497 1094.5046,-103.0686"/>
<polygon fill="#191970" stroke="#191970" points="748.6406,-155.3257 739.08,-159.8914 749.4011,-162.2843 748.6406,-155.3257"/>
</g>
<!-- Node14 -->
<g id="node13" class="node">
<title>Node14</title>
<g id="a_node13"><a xlink:href="boards_2waspmote-pro_2include_2periph__conf_8h.html" target="_top" xlink:title="Peripheral MCU configuration for the Waspmote PRO v1.2 board. ">
<polygon fill="none" stroke="#000000" points="1222,-73 1222,-103 1334,-103 1334,-73 1222,-73"/>
<text text-anchor="start" x="1230" y="-91" font-family="Helvetica,sans-Serif" font-size="10.00" fill="#000000">boards/waspmote&#45;pro</text>
<text text-anchor="middle" x="1278" y="-80" font-family="Helvetica,sans-Serif" font-size="10.00" fill="#000000">/include/periph_conf.h</text>
</a>
</g>
</g>
<!-- Node2&#45;&gt;Node14 -->
<g id="edge12" class="edge">
<title>Node2&#45;&gt;Node14</title>
<path fill="none" stroke="#191970" d="M749.2138,-163.0861C852.4346,-157.8114 1049.1939,-143.797 1213,-109 1220.4241,-107.4229 1228.1987,-105.3219 1235.6845,-103.0574"/>
<polygon fill="#191970" stroke="#191970" points="749.0313,-159.5907 739.218,-163.5844 749.3799,-166.582 749.0313,-159.5907"/>
</g>
<!-- Node4 -->
<g id="node3" class="node">
<title>Node4</title>
<g id="a_node3"><a xlink:href="atmega1284p_2include_2board_8h.html" target="_top" xlink:title="Board specific definitions for the standalone ATmega1284P &quot;board&quot;. ">
<polygon fill="none" stroke="#000000" points="2.5,-.5 2.5,-30.5 109.5,-30.5 109.5,-.5 2.5,-.5"/>
<text text-anchor="start" x="10.5" y="-18.5" font-family="Helvetica,sans-Serif" font-size="10.00" fill="#000000">boards/atmega1284p</text>
<text text-anchor="middle" x="56" y="-7.5" font-family="Helvetica,sans-Serif" font-size="10.00" fill="#000000">/include/board.h</text>
</a>
</g>
</g>
<!-- Node3&#45;&gt;Node4 -->
<g id="edge2" class="edge">
<title>Node3&#45;&gt;Node4</title>
<path fill="none" stroke="#191970" d="M56,-62.8409C56,-52.0601 56,-39.8309 56,-30.5028"/>
<polygon fill="#191970" stroke="#191970" points="52.5001,-62.9779 56,-72.978 59.5001,-62.978 52.5001,-62.9779"/>
</g>
<!-- Node7 -->
<g id="node6" class="node">
<title>Node7</title>
<g id="a_node6"><a xlink:href="atmega328p_2include_2board_8h.html" target="_top" xlink:title="Board specific definitions for the standalone ATmega328p &quot;board&quot;. ">
<polygon fill="none" stroke="#000000" points="260,-.5 260,-30.5 396,-30.5 396,-.5 260,-.5"/>
<text text-anchor="start" x="268" y="-18.5" font-family="Helvetica,sans-Serif" font-size="10.00" fill="#000000">boards/atmega328p/include</text>
<text text-anchor="middle" x="328" y="-7.5" font-family="Helvetica,sans-Serif" font-size="10.00" fill="#000000">/board.h</text>
</a>
</g>
</g>
<!-- Node6&#45;&gt;Node7 -->
<g id="edge5" class="edge">
<title>Node6&#45;&gt;Node7</title>
<path fill="none" stroke="#191970" d="M328,-62.8409C328,-52.0601 328,-39.8309 328,-30.5028"/>
<polygon fill="#191970" stroke="#191970" points="324.5001,-62.9779 328,-72.978 331.5001,-62.978 324.5001,-62.9779"/>
</g>
</g>
</svg>
