<?xml version="1.0" encoding="UTF-8" standalone="no"?>
<!DOCTYPE svg PUBLIC "-//W3C//DTD SVG 1.1//EN"
 "http://www.w3.org/Graphics/SVG/1.1/DTD/svg11.dtd">
<!-- Generated by graphviz version 2.40.1 (20161225.0304)
 -->
<!-- Title: boards/phynode&#45;kw41z/include/gpio_params.h Pages: 1 -->
<svg width="553pt" height="207pt"
 viewBox="0.00 0.00 552.50 207.00" xmlns="http://www.w3.org/2000/svg" xmlns:xlink="http://www.w3.org/1999/xlink">
<g id="graph0" class="graph" transform="scale(1 1) rotate(0) translate(4 203)">
<title>boards/phynode&#45;kw41z/include/gpio_params.h</title>
<!-- Node0 -->
<g id="node1" class="node">
<title>Node0</title>
<polygon fill="#bfbfbf" stroke="#000000" points="207.5,-168.5 207.5,-198.5 324.5,-198.5 324.5,-168.5 207.5,-168.5"/>
<text text-anchor="start" x="215.5" y="-186.5" font-family="Helvetica,sans-Serif" font-size="10.00" fill="#000000">boards/phynode&#45;kw41z</text>
<text text-anchor="middle" x="266" y="-175.5" font-family="Helvetica,sans-Serif" font-size="10.00" fill="#000000">/include/gpio_params.h</text>
</g>
<!-- Node1 -->
<g id="node2" class="node">
<title>Node1</title>
<g id="a_node2"><a xlink:href="phynode-kw41z_2include_2board_8h.html" target="_top" xlink:title="Board specific definitions for the USB&#45;KW41Z. ">
<polygon fill="none" stroke="#000000" points="195.5,-112.5 195.5,-131.5 244.5,-131.5 244.5,-112.5 195.5,-112.5"/>
<text text-anchor="middle" x="220" y="-119.5" font-family="Helvetica,sans-Serif" font-size="10.00" fill="#000000">board.h</text>
</a>
</g>
</g>
<!-- Node0&#45;&gt;Node1 -->
<g id="edge1" class="edge">
<title>Node0&#45;&gt;Node1</title>
<path fill="none" stroke="#191970" d="M254.6292,-168.2977C248.2439,-159.7609 240.2359,-149.0545 233.5295,-140.0883"/>
<polygon fill="#191970" stroke="#191970" points="236.1575,-137.7584 227.3652,-131.8469 230.5521,-141.9511 236.1575,-137.7584"/>
</g>
<!-- Node7 -->
<g id="node8" class="node">
<title>Node7</title>
<g id="a_node8"><a xlink:href="periph_8h.html" target="_top" xlink:title="Parameter definitions for mapping peripherals directly to SAUL. ">
<polygon fill="none" stroke="#000000" points="280,-112.5 280,-131.5 352,-131.5 352,-112.5 280,-112.5"/>
<text text-anchor="middle" x="316" y="-119.5" font-family="Helvetica,sans-Serif" font-size="10.00" fill="#000000">saul/periph.h</text>
</a>
</g>
</g>
<!-- Node0&#45;&gt;Node7 -->
<g id="edge7" class="edge">
<title>Node0&#45;&gt;Node7</title>
<path fill="none" stroke="#191970" d="M278.3596,-168.2977C285.3724,-159.672 294.186,-148.8312 301.5214,-139.8087"/>
<polygon fill="#191970" stroke="#191970" points="304.4018,-141.8141 307.9944,-131.8469 298.9703,-137.3982 304.4018,-141.8141"/>
</g>
<!-- Node2 -->
<g id="node3" class="node">
<title>Node2</title>
<polygon fill="none" stroke="#bfbfbf" points="123.5,-56.5 123.5,-75.5 164.5,-75.5 164.5,-56.5 123.5,-56.5"/>
<text text-anchor="middle" x="144" y="-63.5" font-family="Helvetica,sans-Serif" font-size="10.00" fill="#000000">cpu.h</text>
</g>
<!-- Node1&#45;&gt;Node2 -->
<g id="edge2" class="edge">
<title>Node1&#45;&gt;Node2</title>
<path fill="none" stroke="#191970" d="M206.7618,-112.2455C195.319,-103.814 178.5704,-91.4729 165.2525,-81.6598"/>
<polygon fill="#191970" stroke="#191970" points="167.2133,-78.757 157.0865,-75.6427 163.0609,-84.3924 167.2133,-78.757"/>
</g>
<!-- Node3 -->
<g id="node4" class="node">
<title>Node3</title>
<g id="a_node4"><a xlink:href="boards_2phynode-kw41z_2include_2periph__conf_8h.html" target="_top" xlink:title="periph_conf.h">
<polygon fill="none" stroke="#000000" points="182.5,-56.5 182.5,-75.5 257.5,-75.5 257.5,-56.5 182.5,-56.5"/>
<text text-anchor="middle" x="220" y="-63.5" font-family="Helvetica,sans-Serif" font-size="10.00" fill="#000000">periph_conf.h</text>
</a>
</g>
</g>
<!-- Node1&#45;&gt;Node3 -->
<g id="edge3" class="edge">
<title>Node1&#45;&gt;Node3</title>
<path fill="none" stroke="#191970" d="M220,-112.2455C220,-104.9382 220,-94.6944 220,-85.7046"/>
<polygon fill="#191970" stroke="#191970" points="223.5001,-85.6426 220,-75.6427 216.5001,-85.6427 223.5001,-85.6426"/>
</g>
<!-- Node4 -->
<g id="node5" class="node">
<title>Node4</title>
<polygon fill="none" stroke="#bfbfbf" points="246,-.5 246,-19.5 318,-19.5 318,-.5 246,-.5"/>
<text text-anchor="middle" x="282" y="-7.5" font-family="Helvetica,sans-Serif" font-size="10.00" fill="#000000">periph_cpu.h</text>
</g>
<!-- Node3&#45;&gt;Node4 -->
<g id="edge4" class="edge">
<title>Node3&#45;&gt;Node4</title>
<path fill="none" stroke="#191970" d="M230.7996,-56.2455C239.8678,-48.0549 253.0206,-36.1749 263.7245,-26.5069"/>
<polygon fill="#191970" stroke="#191970" points="266.2491,-28.9429 271.3242,-19.6427 261.5571,-23.7482 266.2491,-28.9429"/>
</g>
<!-- Node5 -->
<g id="node6" class="node">
<title>Node5</title>
<polygon fill="none" stroke="#bfbfbf" points="0,-.5 0,-19.5 118,-19.5 118,-.5 0,-.5"/>
<text text-anchor="middle" x="59" y="-7.5" font-family="Helvetica,sans-Serif" font-size="10.00" fill="#000000">periph_conf_common.h</text>
</g>
<!-- Node3&#45;&gt;Node5 -->
<g id="edge5" class="edge">
<title>Node3&#45;&gt;Node5</title>
<path fill="none" stroke="#191970" d="M192.3231,-56.3733C165.6672,-47.1016 125.1762,-33.0178 95.8116,-22.804"/>
<polygon fill="#191970" stroke="#191970" points="96.9105,-19.4807 86.3157,-19.5011 94.6109,-26.0921 96.9105,-19.4807"/>
</g>
<!-- Node6 -->
<g id="node7" class="node">
<title>Node6</title>
<polygon fill="none" stroke="#bfbfbf" points="136.5,-.5 136.5,-19.5 227.5,-19.5 227.5,-.5 136.5,-.5"/>
<text text-anchor="middle" x="182" y="-7.5" font-family="Helvetica,sans-Serif" font-size="10.00" fill="#000000">cfg_i2c_default.h</text>
</g>
<!-- Node3&#45;&gt;Node6 -->
<g id="edge6" class="edge">
<title>Node3&#45;&gt;Node6</title>
<path fill="none" stroke="#191970" d="M213.3809,-56.2455C208.0954,-48.4564 200.5459,-37.3308 194.1762,-27.9439"/>
<polygon fill="#191970" stroke="#191970" points="197.0545,-25.9522 188.5432,-19.6427 191.2621,-29.8827 197.0545,-25.9522"/>
</g>
<!-- Node8 -->
<g id="node9" class="node">
<title>Node8</title>
<g id="a_node9"><a xlink:href="gpio_8h.html" target="_top" xlink:title="Low&#45;level GPIO peripheral driver interface definitions. ">
<polygon fill="none" stroke="#000000" points="280,-56.5 280,-75.5 352,-75.5 352,-56.5 280,-56.5"/>
<text text-anchor="middle" x="316" y="-63.5" font-family="Helvetica,sans-Serif" font-size="10.00" fill="#000000">periph/gpio.h</text>
</a>
</g>
</g>
<!-- Node7&#45;&gt;Node8 -->
<g id="edge8" class="edge">
<title>Node7&#45;&gt;Node8</title>
<path fill="none" stroke="#191970" d="M316,-112.2455C316,-104.9382 316,-94.6944 316,-85.7046"/>
<polygon fill="#191970" stroke="#191970" points="319.5001,-85.6426 316,-75.6427 312.5001,-85.6427 319.5001,-85.6426"/>
</g>
<!-- Node11 -->
<g id="node12" class="node">
<title>Node11</title>
<g id="a_node12"><a xlink:href="adc_8h.html" target="_top" xlink:title="Low&#45;level ADC peripheral driver interface definitions. ">
<polygon fill="none" stroke="#000000" points="370,-56.5 370,-75.5 440,-75.5 440,-56.5 370,-56.5"/>
<text text-anchor="middle" x="405" y="-63.5" font-family="Helvetica,sans-Serif" font-size="10.00" fill="#000000">periph/adc.h</text>
</a>
</g>
</g>
<!-- Node7&#45;&gt;Node11 -->
<g id="edge12" class="edge">
<title>Node7&#45;&gt;Node11</title>
<path fill="none" stroke="#191970" d="M331.5026,-112.2455C345.158,-103.6534 365.2657,-91.0014 380.9989,-81.1018"/>
<polygon fill="#191970" stroke="#191970" points="383.0751,-83.9307 389.675,-75.6427 379.3471,-78.006 383.0751,-83.9307"/>
</g>
<!-- Node8&#45;&gt;Node4 -->
<g id="edge10" class="edge">
<title>Node8&#45;&gt;Node4</title>
<path fill="none" stroke="#191970" d="M310.0777,-56.2455C305.3973,-48.5367 298.7327,-37.5598 293.0711,-28.2348"/>
<polygon fill="#191970" stroke="#191970" points="296.0361,-26.3741 287.8545,-19.6427 290.0525,-30.007 296.0361,-26.3741"/>
</g>
<!-- Node9 -->
<g id="node10" class="node">
<title>Node9</title>
<polygon fill="none" stroke="#bfbfbf" points="336,-.5 336,-19.5 384,-19.5 384,-.5 336,-.5"/>
<text text-anchor="middle" x="360" y="-7.5" font-family="Helvetica,sans-Serif" font-size="10.00" fill="#000000">limits.h</text>
</g>
<!-- Node8&#45;&gt;Node9 -->
<g id="edge9" class="edge">
<title>Node8&#45;&gt;Node9</title>
<path fill="none" stroke="#191970" d="M323.6642,-56.2455C329.8473,-48.3761 338.7063,-37.101 346.1289,-27.6542"/>
<polygon fill="#191970" stroke="#191970" points="348.9975,-29.6683 352.4236,-19.6427 343.4932,-25.3435 348.9975,-29.6683"/>
</g>
<!-- Node10 -->
<g id="node11" class="node">
<title>Node10</title>
<polygon fill="none" stroke="#bfbfbf" points="402.5,-.5 402.5,-19.5 477.5,-19.5 477.5,-.5 402.5,-.5"/>
<text text-anchor="middle" x="440" y="-7.5" font-family="Helvetica,sans-Serif" font-size="10.00" fill="#000000">periph_conf.h</text>
</g>
<!-- Node8&#45;&gt;Node10 -->
<g id="edge11" class="edge">
<title>Node8&#45;&gt;Node10</title>
<path fill="none" stroke="#191970" d="M337.3164,-56.3733C357.2216,-47.3838 387.1436,-33.8706 409.56,-23.7471"/>
<polygon fill="#191970" stroke="#191970" points="411.2887,-26.8068 418.9618,-19.5011 408.4075,-20.4272 411.2887,-26.8068"/>
</g>
<!-- Node11&#45;&gt;Node4 -->
<g id="edge15" class="edge">
<title>Node11&#45;&gt;Node4</title>
<path fill="none" stroke="#191970" d="M383.8555,-56.3733C364.1108,-47.3838 334.4302,-33.8706 312.1945,-23.7471"/>
<polygon fill="#191970" stroke="#191970" points="313.42,-20.4594 302.8685,-19.5011 310.5194,-26.8302 313.42,-20.4594"/>
</g>
<!-- Node11&#45;&gt;Node9 -->
<g id="edge13" class="edge">
<title>Node11&#45;&gt;Node9</title>
<path fill="none" stroke="#191970" d="M397.1616,-56.2455C390.838,-48.3761 381.7776,-37.101 374.1864,-27.6542"/>
<polygon fill="#191970" stroke="#191970" points="376.7408,-25.2454 367.7486,-19.6427 371.2842,-29.6302 376.7408,-25.2454"/>
</g>
<!-- Node11&#45;&gt;Node10 -->
<g id="edge16" class="edge">
<title>Node11&#45;&gt;Node10</title>
<path fill="none" stroke="#191970" d="M411.0965,-56.2455C415.9145,-48.5367 422.7751,-37.5598 428.6032,-28.2348"/>
<polygon fill="#191970" stroke="#191970" points="431.6413,-29.9777 433.9733,-19.6427 425.7053,-26.2677 431.6413,-29.9777"/>
</g>
<!-- Node12 -->
<g id="node13" class="node">
<title>Node12</title>
<polygon fill="none" stroke="#bfbfbf" points="495.5,-.5 495.5,-19.5 544.5,-19.5 544.5,-.5 495.5,-.5"/>
<text text-anchor="middle" x="520" y="-7.5" font-family="Helvetica,sans-Serif" font-size="10.00" fill="#000000">stdint.h</text>
</g>
<!-- Node11&#45;&gt;Node12 -->
<g id="edge14" class="edge">
<title>Node11&#45;&gt;Node12</title>
<path fill="none" stroke="#191970" d="M424.7692,-56.3733C443.1469,-47.4241 470.7312,-33.9917 491.4893,-23.8835"/>
<polygon fill="#191970" stroke="#191970" points="493.0304,-27.026 500.4888,-19.5011 489.9657,-20.7325 493.0304,-27.026"/>
</g>
</g>
</svg>
