<?xml version="1.0" encoding="UTF-8" standalone="no"?>
<!DOCTYPE svg PUBLIC "-//W3C//DTD SVG 1.1//EN"
 "http://www.w3.org/Graphics/SVG/1.1/DTD/svg11.dtd">
<!-- Generated by graphviz version 2.43.0 (0)
 -->
<!-- Title: boards/phynode&#45;kw41z/include/gpio_params.h Pages: 1 -->
<svg width="598pt" height="207pt"
 viewBox="0.00 0.00 598.00 207.00" xmlns="http://www.w3.org/2000/svg" xmlns:xlink="http://www.w3.org/1999/xlink">
<g id="graph0" class="graph" transform="scale(1 1) rotate(0) translate(4 203)">
<title>boards/phynode&#45;kw41z/include/gpio_params.h</title>
<!-- Node1 -->
<g id="node1" class="node">
<title>Node1</title>
<g id="a_node1"><a xlink:title="Board specific configuration of direct mapped GPIOs.">
<polygon fill="#bfbfbf" stroke="black" points="185.5,-168.5 185.5,-198.5 315.5,-198.5 315.5,-168.5 185.5,-168.5"/>
<text text-anchor="start" x="193.5" y="-186.5" font-family="Helvetica,sans-Serif" font-size="10.00">boards/phynode&#45;kw41z</text>
<text text-anchor="middle" x="250.5" y="-175.5" font-family="Helvetica,sans-Serif" font-size="10.00">/include/gpio_params.h</text>
</a>
</g>
</g>
<!-- Node2 -->
<g id="node2" class="node">
<title>Node2</title>
<g id="a_node2"><a xlink:href="phynode-kw41z_2include_2board_8h.html" target="_top" xlink:title="Board specific definitions for the USB&#45;KW41Z.">
<polygon fill="none" stroke="black" points="175,-112.5 175,-131.5 228,-131.5 228,-112.5 175,-112.5"/>
<text text-anchor="middle" x="201.5" y="-119.5" font-family="Helvetica,sans-Serif" font-size="10.00">board.h</text>
</a>
</g>
</g>
<!-- Node1&#45;&gt;Node2 -->
<g id="edge1" class="edge">
<title>Node1&#45;&gt;Node2</title>
<path fill="none" stroke="midnightblue" d="M238.89,-168.4C231.77,-159.75 222.62,-148.64 215.15,-139.58"/>
<polygon fill="midnightblue" stroke="midnightblue" points="217.69,-137.15 208.63,-131.66 212.29,-141.6 217.69,-137.15"/>
</g>
<!-- Node8 -->
<g id="node8" class="node">
<title>Node8</title>
<g id="a_node8"><a xlink:href="periph_8h.html" target="_top" xlink:title="Parameter definitions for mapping peripherals directly to SAUL.">
<polygon fill="none" stroke="black" points="312.5,-112.5 312.5,-131.5 392.5,-131.5 392.5,-112.5 312.5,-112.5"/>
<text text-anchor="middle" x="352.5" y="-119.5" font-family="Helvetica,sans-Serif" font-size="10.00">saul/periph.h</text>
</a>
</g>
</g>
<!-- Node1&#45;&gt;Node8 -->
<g id="edge7" class="edge">
<title>Node1&#45;&gt;Node8</title>
<path fill="none" stroke="midnightblue" d="M274.67,-168.4C291.02,-158.86 312.51,-146.32 328.77,-136.84"/>
<polygon fill="midnightblue" stroke="midnightblue" points="330.78,-139.72 337.66,-131.66 327.26,-133.67 330.78,-139.72"/>
</g>
<!-- Node3 -->
<g id="node3" class="node">
<title>Node3</title>
<g id="a_node3"><a xlink:title=" ">
<polygon fill="none" stroke="#bfbfbf" points="99,-56.5 99,-75.5 142,-75.5 142,-56.5 99,-56.5"/>
<text text-anchor="middle" x="120.5" y="-63.5" font-family="Helvetica,sans-Serif" font-size="10.00">cpu.h</text>
</a>
</g>
</g>
<!-- Node2&#45;&gt;Node3 -->
<g id="edge2" class="edge">
<title>Node2&#45;&gt;Node3</title>
<path fill="none" stroke="midnightblue" d="M188.49,-112.32C175.97,-103.98 156.82,-91.21 142.03,-81.35"/>
<polygon fill="midnightblue" stroke="midnightblue" points="143.74,-78.29 133.48,-75.65 139.86,-84.11 143.74,-78.29"/>
</g>
<!-- Node4 -->
<g id="node4" class="node">
<title>Node4</title>
<g id="a_node4"><a xlink:href="boards_2phynode-kw41z_2include_2periph__conf_8h.html" target="_top" xlink:title=" ">
<polygon fill="none" stroke="black" points="160.5,-56.5 160.5,-75.5 242.5,-75.5 242.5,-56.5 160.5,-56.5"/>
<text text-anchor="middle" x="201.5" y="-63.5" font-family="Helvetica,sans-Serif" font-size="10.00">periph_conf.h</text>
</a>
</g>
</g>
<!-- Node2&#45;&gt;Node4 -->
<g id="edge3" class="edge">
<title>Node2&#45;&gt;Node4</title>
<path fill="none" stroke="midnightblue" d="M201.5,-112.08C201.5,-105.01 201.5,-94.86 201.5,-85.99"/>
<polygon fill="midnightblue" stroke="midnightblue" points="205,-85.75 201.5,-75.75 198,-85.75 205,-85.75"/>
</g>
<!-- Node5 -->
<g id="node5" class="node">
<title>Node5</title>
<g id="a_node5"><a xlink:title=" ">
<polygon fill="none" stroke="#bfbfbf" points="268,-0.5 268,-19.5 347,-19.5 347,-0.5 268,-0.5"/>
<text text-anchor="middle" x="307.5" y="-7.5" font-family="Helvetica,sans-Serif" font-size="10.00">periph_cpu.h</text>
</a>
</g>
</g>
<!-- Node4&#45;&gt;Node5 -->
<g id="edge4" class="edge">
<title>Node4&#45;&gt;Node5</title>
<path fill="none" stroke="midnightblue" d="M218.53,-56.32C235.53,-47.66 261.88,-34.24 281.49,-24.25"/>
<polygon fill="midnightblue" stroke="midnightblue" points="283.19,-27.31 290.51,-19.65 280.01,-21.08 283.19,-27.31"/>
</g>
<!-- Node6 -->
<g id="node6" class="node">
<title>Node6</title>
<g id="a_node6"><a xlink:title=" ">
<polygon fill="none" stroke="#bfbfbf" points="0,-0.5 0,-19.5 131,-19.5 131,-0.5 0,-0.5"/>
<text text-anchor="middle" x="65.5" y="-7.5" font-family="Helvetica,sans-Serif" font-size="10.00">periph_conf_common.h</text>
</a>
</g>
</g>
<!-- Node4&#45;&gt;Node6 -->
<g id="edge5" class="edge">
<title>Node4&#45;&gt;Node6</title>
<path fill="none" stroke="midnightblue" d="M179.95,-56.44C157.47,-47.52 122.01,-33.44 96.52,-23.32"/>
<polygon fill="midnightblue" stroke="midnightblue" points="97.53,-19.95 86.95,-19.52 94.95,-26.46 97.53,-19.95"/>
</g>
<!-- Node7 -->
<g id="node7" class="node">
<title>Node7</title>
<g id="a_node7"><a xlink:title=" ">
<polygon fill="none" stroke="#bfbfbf" points="149.5,-0.5 149.5,-19.5 249.5,-19.5 249.5,-0.5 149.5,-0.5"/>
<text text-anchor="middle" x="199.5" y="-7.5" font-family="Helvetica,sans-Serif" font-size="10.00">cfg_i2c_default.h</text>
</a>
</g>
</g>
<!-- Node4&#45;&gt;Node7 -->
<g id="edge6" class="edge">
<title>Node4&#45;&gt;Node7</title>
<path fill="none" stroke="midnightblue" d="M201.17,-56.08C200.91,-49.01 200.53,-38.86 200.2,-29.99"/>
<polygon fill="midnightblue" stroke="midnightblue" points="203.69,-29.61 199.82,-19.75 196.7,-29.87 203.69,-29.61"/>
</g>
<!-- Node9 -->
<g id="node9" class="node">
<title>Node9</title>
<g id="a_node9"><a xlink:href="gpio_8h.html" target="_top" xlink:title="Low&#45;level GPIO peripheral driver interface definitions.">
<polygon fill="none" stroke="black" points="264.5,-56.5 264.5,-75.5 344.5,-75.5 344.5,-56.5 264.5,-56.5"/>
<text text-anchor="middle" x="304.5" y="-63.5" font-family="Helvetica,sans-Serif" font-size="10.00">periph/gpio.h</text>
</a>
</g>
</g>
<!-- Node8&#45;&gt;Node9 -->
<g id="edge8" class="edge">
<title>Node8&#45;&gt;Node9</title>
<path fill="none" stroke="midnightblue" d="M344.57,-112.08C337.65,-104.3 327.43,-92.8 319.05,-83.37"/>
<polygon fill="midnightblue" stroke="midnightblue" points="321.54,-80.9 312.28,-75.75 316.31,-85.55 321.54,-80.9"/>
</g>
<!-- Node12 -->
<g id="node12" class="node">
<title>Node12</title>
<g id="a_node12"><a xlink:href="adc_8h.html" target="_top" xlink:title="Low&#45;level ADC peripheral driver interface definitions.">
<polygon fill="none" stroke="black" points="363,-56.5 363,-75.5 440,-75.5 440,-56.5 363,-56.5"/>
<text text-anchor="middle" x="401.5" y="-63.5" font-family="Helvetica,sans-Serif" font-size="10.00">periph/adc.h</text>
</a>
</g>
</g>
<!-- Node8&#45;&gt;Node12 -->
<g id="edge12" class="edge">
<title>Node8&#45;&gt;Node12</title>
<path fill="none" stroke="midnightblue" d="M360.59,-112.08C367.66,-104.3 378.09,-92.8 386.65,-83.37"/>
<polygon fill="midnightblue" stroke="midnightblue" points="389.43,-85.51 393.56,-75.75 384.25,-80.8 389.43,-85.51"/>
</g>
<!-- Node14 -->
<g id="node14" class="node">
<title>Node14</title>
<g id="a_node14"><a xlink:href="pwm_8h.html" target="_top" xlink:title="Low&#45;level PWM peripheral driver interface definitions.">
<polygon fill="none" stroke="black" points="458,-56.5 458,-75.5 541,-75.5 541,-56.5 458,-56.5"/>
<text text-anchor="middle" x="499.5" y="-63.5" font-family="Helvetica,sans-Serif" font-size="10.00">periph/pwm.h</text>
</a>
</g>
</g>
<!-- Node8&#45;&gt;Node14 -->
<g id="edge17" class="edge">
<title>Node8&#45;&gt;Node14</title>
<path fill="none" stroke="midnightblue" d="M375.79,-112.44C400.31,-103.44 439.1,-89.19 466.7,-79.05"/>
<polygon fill="midnightblue" stroke="midnightblue" points="468.14,-82.25 476.32,-75.52 465.72,-75.68 468.14,-82.25"/>
</g>
<!-- Node9&#45;&gt;Node5 -->
<g id="edge10" class="edge">
<title>Node9&#45;&gt;Node5</title>
<path fill="none" stroke="midnightblue" d="M305,-56.08C305.39,-49.01 305.95,-38.86 306.45,-29.99"/>
<polygon fill="midnightblue" stroke="midnightblue" points="309.95,-29.93 307.01,-19.75 302.96,-29.54 309.95,-29.93"/>
</g>
<!-- Node10 -->
<g id="node10" class="node">
<title>Node10</title>
<g id="a_node10"><a xlink:title=" ">
<polygon fill="none" stroke="#bfbfbf" points="365,-0.5 365,-19.5 418,-19.5 418,-0.5 365,-0.5"/>
<text text-anchor="middle" x="391.5" y="-7.5" font-family="Helvetica,sans-Serif" font-size="10.00">limits.h</text>
</a>
</g>
</g>
<!-- Node9&#45;&gt;Node10 -->
<g id="edge9" class="edge">
<title>Node9&#45;&gt;Node10</title>
<path fill="none" stroke="midnightblue" d="M318.48,-56.32C332.05,-47.9 352.88,-34.97 368.82,-25.07"/>
<polygon fill="midnightblue" stroke="midnightblue" points="370.91,-27.9 377.56,-19.65 367.21,-21.95 370.91,-27.9"/>
</g>
<!-- Node11 -->
<g id="node11" class="node">
<title>Node11</title>
<g id="a_node11"><a xlink:title=" ">
<polygon fill="none" stroke="#bfbfbf" points="436.5,-0.5 436.5,-19.5 518.5,-19.5 518.5,-0.5 436.5,-0.5"/>
<text text-anchor="middle" x="477.5" y="-7.5" font-family="Helvetica,sans-Serif" font-size="10.00">periph_conf.h</text>
</a>
</g>
</g>
<!-- Node9&#45;&gt;Node11 -->
<g id="edge11" class="edge">
<title>Node9&#45;&gt;Node11</title>
<path fill="none" stroke="midnightblue" d="M331.91,-56.44C361.27,-47.28 408.02,-32.69 440.6,-22.52"/>
<polygon fill="midnightblue" stroke="midnightblue" points="441.71,-25.84 450.22,-19.52 439.63,-19.16 441.71,-25.84"/>
</g>
<!-- Node12&#45;&gt;Node5 -->
<g id="edge15" class="edge">
<title>Node12&#45;&gt;Node5</title>
<path fill="none" stroke="midnightblue" d="M386.4,-56.32C371.6,-47.82 348.81,-34.73 331.52,-24.8"/>
<polygon fill="midnightblue" stroke="midnightblue" points="332.98,-21.6 322.57,-19.65 329.49,-27.67 332.98,-21.6"/>
</g>
<!-- Node12&#45;&gt;Node10 -->
<g id="edge13" class="edge">
<title>Node12&#45;&gt;Node10</title>
<path fill="none" stroke="midnightblue" d="M399.85,-56.08C398.52,-48.93 396.62,-38.64 394.96,-29.69"/>
<polygon fill="midnightblue" stroke="midnightblue" points="398.38,-28.95 393.12,-19.75 391.5,-30.22 398.38,-28.95"/>
</g>
<!-- Node12&#45;&gt;Node11 -->
<g id="edge16" class="edge">
<title>Node12&#45;&gt;Node11</title>
<path fill="none" stroke="midnightblue" d="M413.71,-56.32C425.28,-48.11 442.88,-35.6 456.66,-25.81"/>
<polygon fill="midnightblue" stroke="midnightblue" points="458.94,-28.48 465.07,-19.83 454.89,-22.77 458.94,-28.48"/>
</g>
<!-- Node13 -->
<g id="node13" class="node">
<title>Node13</title>
<g id="a_node13"><a xlink:title=" ">
<polygon fill="none" stroke="#bfbfbf" points="537,-0.5 537,-19.5 590,-19.5 590,-0.5 537,-0.5"/>
<text text-anchor="middle" x="563.5" y="-7.5" font-family="Helvetica,sans-Serif" font-size="10.00">stdint.h</text>
</a>
</g>
</g>
<!-- Node12&#45;&gt;Node13 -->
<g id="edge14" class="edge">
<title>Node12&#45;&gt;Node13</title>
<path fill="none" stroke="midnightblue" d="M427.17,-56.44C454.42,-47.36 497.68,-32.94 528.15,-22.78"/>
<polygon fill="midnightblue" stroke="midnightblue" points="529.57,-26 537.95,-19.52 527.36,-19.36 529.57,-26"/>
</g>
<!-- Node14&#45;&gt;Node5 -->
<g id="edge20" class="edge">
<title>Node14&#45;&gt;Node5</title>
<path fill="none" stroke="midnightblue" d="M469.08,-56.44C436.22,-47.2 383.72,-32.44 347.53,-22.26"/>
<polygon fill="midnightblue" stroke="midnightblue" points="348.35,-18.85 337.78,-19.52 346.46,-25.59 348.35,-18.85"/>
</g>
<!-- Node14&#45;&gt;Node10 -->
<g id="edge19" class="edge">
<title>Node14&#45;&gt;Node10</title>
<path fill="none" stroke="midnightblue" d="M482.15,-56.32C464.83,-47.66 437.98,-34.24 418,-24.25"/>
<polygon fill="midnightblue" stroke="midnightblue" points="419.32,-21 408.81,-19.65 416.19,-27.26 419.32,-21"/>
</g>
<!-- Node14&#45;&gt;Node11 -->
<g id="edge21" class="edge">
<title>Node14&#45;&gt;Node11</title>
<path fill="none" stroke="midnightblue" d="M495.87,-56.08C492.89,-48.77 488.57,-38.18 484.88,-29.1"/>
<polygon fill="midnightblue" stroke="midnightblue" points="488.08,-27.69 481.07,-19.75 481.6,-30.33 488.08,-27.69"/>
</g>
<!-- Node14&#45;&gt;Node13 -->
<g id="edge18" class="edge">
<title>Node14&#45;&gt;Node13</title>
<path fill="none" stroke="midnightblue" d="M509.78,-56.32C519.34,-48.26 533.78,-36.08 545.28,-26.37"/>
<polygon fill="midnightblue" stroke="midnightblue" points="547.64,-28.96 553.03,-19.83 543.13,-23.61 547.64,-28.96"/>
</g>
</g>
</svg>
