<?xml version="1.0" encoding="UTF-8" standalone="no"?>
<!DOCTYPE svg PUBLIC "-//W3C//DTD SVG 1.1//EN"
 "http://www.w3.org/Graphics/SVG/1.1/DTD/svg11.dtd">
<!-- Generated by graphviz version 2.40.1 (20161225.0304)
 -->
<!-- Title: boards/phynode&#45;kw41z/include/board.h Pages: 1 -->
<svg width="326pt" height="151pt"
 viewBox="0.00 0.00 325.50 151.00" xmlns="http://www.w3.org/2000/svg" xmlns:xlink="http://www.w3.org/1999/xlink">
<g id="graph0" class="graph" transform="scale(1 1) rotate(0) translate(4 147)">
<title>boards/phynode&#45;kw41z/include/board.h</title>
<!-- Node0 -->
<g id="node1" class="node">
<title>Node0</title>
<polygon fill="#bfbfbf" stroke="#000000" points="52.5,-112.5 52.5,-142.5 169.5,-142.5 169.5,-112.5 52.5,-112.5"/>
<text text-anchor="start" x="60.5" y="-130.5" font-family="Helvetica,sans-Serif" font-size="10.00" fill="#000000">boards/phynode&#45;kw41z</text>
<text text-anchor="middle" x="111" y="-119.5" font-family="Helvetica,sans-Serif" font-size="10.00" fill="#000000">/include/board.h</text>
</g>
<!-- Node1 -->
<g id="node2" class="node">
<title>Node1</title>
<polygon fill="none" stroke="#bfbfbf" points="52.5,-56.5 52.5,-75.5 93.5,-75.5 93.5,-56.5 52.5,-56.5"/>
<text text-anchor="middle" x="73" y="-63.5" font-family="Helvetica,sans-Serif" font-size="10.00" fill="#000000">cpu.h</text>
</g>
<!-- Node0&#45;&gt;Node1 -->
<g id="edge1" class="edge">
<title>Node0&#45;&gt;Node1</title>
<path fill="none" stroke="#191970" d="M101.6067,-112.2977C96.3869,-103.8498 89.8543,-93.2773 84.35,-84.369"/>
<polygon fill="#191970" stroke="#191970" points="87.3182,-82.5143 79.0843,-75.8469 81.3632,-86.1938 87.3182,-82.5143"/>
</g>
<!-- Node2 -->
<g id="node3" class="node">
<title>Node2</title>
<g id="a_node3"><a xlink:href="boards_2phynode-kw41z_2include_2periph__conf_8h.html" target="_top" xlink:title="periph_conf.h">
<polygon fill="none" stroke="#000000" points="111.5,-56.5 111.5,-75.5 186.5,-75.5 186.5,-56.5 111.5,-56.5"/>
<text text-anchor="middle" x="149" y="-63.5" font-family="Helvetica,sans-Serif" font-size="10.00" fill="#000000">periph_conf.h</text>
</a>
</g>
</g>
<!-- Node0&#45;&gt;Node2 -->
<g id="edge2" class="edge">
<title>Node0&#45;&gt;Node2</title>
<path fill="none" stroke="#191970" d="M120.3933,-112.2977C125.6131,-103.8498 132.1457,-93.2773 137.65,-84.369"/>
<polygon fill="#191970" stroke="#191970" points="140.6368,-86.1938 142.9157,-75.8469 134.6818,-82.5143 140.6368,-86.1938"/>
</g>
<!-- Node3 -->
<g id="node4" class="node">
<title>Node3</title>
<polygon fill="none" stroke="#bfbfbf" points="0,-.5 0,-19.5 72,-19.5 72,-.5 0,-.5"/>
<text text-anchor="middle" x="36" y="-7.5" font-family="Helvetica,sans-Serif" font-size="10.00" fill="#000000">periph_cpu.h</text>
</g>
<!-- Node2&#45;&gt;Node3 -->
<g id="edge3" class="edge">
<title>Node2&#45;&gt;Node3</title>
<path fill="none" stroke="#191970" d="M129.5746,-56.3733C111.5979,-47.4644 84.6559,-34.1127 64.291,-24.0203"/>
<polygon fill="#191970" stroke="#191970" points="65.6861,-20.8055 55.1719,-19.5011 62.5778,-27.0776 65.6861,-20.8055"/>
</g>
<!-- Node4 -->
<g id="node5" class="node">
<title>Node4</title>
<polygon fill="none" stroke="#bfbfbf" points="90,-.5 90,-19.5 208,-19.5 208,-.5 90,-.5"/>
<text text-anchor="middle" x="149" y="-7.5" font-family="Helvetica,sans-Serif" font-size="10.00" fill="#000000">periph_conf_common.h</text>
</g>
<!-- Node2&#45;&gt;Node4 -->
<g id="edge4" class="edge">
<title>Node2&#45;&gt;Node4</title>
<path fill="none" stroke="#191970" d="M149,-56.2455C149,-48.9382 149,-38.6944 149,-29.7046"/>
<polygon fill="#191970" stroke="#191970" points="152.5001,-29.6426 149,-19.6427 145.5001,-29.6427 152.5001,-29.6426"/>
</g>
<!-- Node5 -->
<g id="node6" class="node">
<title>Node5</title>
<polygon fill="none" stroke="#bfbfbf" points="226.5,-.5 226.5,-19.5 317.5,-19.5 317.5,-.5 226.5,-.5"/>
<text text-anchor="middle" x="272" y="-7.5" font-family="Helvetica,sans-Serif" font-size="10.00" fill="#000000">cfg_i2c_default.h</text>
</g>
<!-- Node2&#45;&gt;Node5 -->
<g id="edge5" class="edge">
<title>Node2&#45;&gt;Node5</title>
<path fill="none" stroke="#191970" d="M170.1445,-56.3733C189.8892,-47.3838 219.5698,-33.8706 241.8055,-23.7471"/>
<polygon fill="#191970" stroke="#191970" points="243.4806,-26.8302 251.1315,-19.5011 240.58,-20.4594 243.4806,-26.8302"/>
</g>
</g>
</svg>
