<?xml version="1.0" encoding="UTF-8" standalone="no"?>
<!DOCTYPE svg PUBLIC "-//W3C//DTD SVG 1.1//EN"
 "http://www.w3.org/Graphics/SVG/1.1/DTD/svg11.dtd">
<!-- Generated by graphviz version 2.43.0 (0)
 -->
<!-- Title: boards/pic32&#45;wifire/include/board.h Pages: 1 -->
<svg width="148pt" height="151pt"
 viewBox="0.00 0.00 148.00 151.00" xmlns="http://www.w3.org/2000/svg" xmlns:xlink="http://www.w3.org/1999/xlink">
<g id="graph0" class="graph" transform="scale(1 1) rotate(0) translate(4 147)">
<title>boards/pic32&#45;wifire/include/board.h</title>
<!-- Node1 -->
<g id="node1" class="node">
<title>Node1</title>
<g id="a_node1"><a xlink:title="board configuration for the Digilent PIC32 WiFire">
<polygon fill="#bfbfbf" stroke="black" points="5.5,-112.5 5.5,-142.5 115.5,-142.5 115.5,-112.5 5.5,-112.5"/>
<text text-anchor="start" x="13.5" y="-130.5" font-family="Helvetica,sans-Serif" font-size="10.00">boards/pic32&#45;wifire</text>
<text text-anchor="middle" x="60.5" y="-119.5" font-family="Helvetica,sans-Serif" font-size="10.00">/include/board.h</text>
</a>
</g>
</g>
<!-- Node2 -->
<g id="node2" class="node">
<title>Node2</title>
<g id="a_node2"><a xlink:href="boards_2pic32-wifire_2include_2periph__conf_8h.html" target="_top" xlink:title="peripheral configuration for the Digilent PIC32 WiFire">
<polygon fill="none" stroke="black" points="19.5,-56.5 19.5,-75.5 101.5,-75.5 101.5,-56.5 19.5,-56.5"/>
<text text-anchor="middle" x="60.5" y="-63.5" font-family="Helvetica,sans-Serif" font-size="10.00">periph_conf.h</text>
</a>
</g>
</g>
<!-- Node1&#45;&gt;Node2 -->
<g id="edge1" class="edge">
<title>Node1&#45;&gt;Node2</title>
<path fill="none" stroke="midnightblue" d="M60.5,-112.4C60.5,-104.47 60.5,-94.46 60.5,-85.86"/>
<polygon fill="midnightblue" stroke="midnightblue" points="64,-85.66 60.5,-75.66 57,-85.66 64,-85.66"/>
</g>
<!-- Node3 -->
<g id="node3" class="node">
<title>Node3</title>
<g id="a_node3"><a xlink:title=" ">
<polygon fill="none" stroke="#bfbfbf" points="0,-0.5 0,-19.5 43,-19.5 43,-0.5 0,-0.5"/>
<text text-anchor="middle" x="21.5" y="-7.5" font-family="Helvetica,sans-Serif" font-size="10.00">cpu.h</text>
</a>
</g>
</g>
<!-- Node2&#45;&gt;Node3 -->
<g id="edge2" class="edge">
<title>Node2&#45;&gt;Node3</title>
<path fill="none" stroke="midnightblue" d="M54.06,-56.08C48.55,-48.46 40.47,-37.26 33.74,-27.94"/>
<polygon fill="midnightblue" stroke="midnightblue" points="36.51,-25.81 27.82,-19.75 30.84,-29.91 36.51,-25.81"/>
</g>
<!-- Node4 -->
<g id="node4" class="node">
<title>Node4</title>
<g id="a_node4"><a xlink:title=" ">
<polygon fill="none" stroke="#bfbfbf" points="61,-0.5 61,-19.5 140,-19.5 140,-0.5 61,-0.5"/>
<text text-anchor="middle" x="100.5" y="-7.5" font-family="Helvetica,sans-Serif" font-size="10.00">periph_cpu.h</text>
</a>
</g>
</g>
<!-- Node2&#45;&gt;Node4 -->
<g id="edge3" class="edge">
<title>Node2&#45;&gt;Node4</title>
<path fill="none" stroke="midnightblue" d="M67.11,-56.08C72.76,-48.46 81.04,-37.26 87.95,-27.94"/>
<polygon fill="midnightblue" stroke="midnightblue" points="90.88,-29.87 94.02,-19.75 85.25,-25.7 90.88,-29.87"/>
</g>
</g>
</svg>
