<?xml version="1.0" encoding="UTF-8" standalone="no"?>
<!DOCTYPE svg PUBLIC "-//W3C//DTD SVG 1.1//EN"
 "http://www.w3.org/Graphics/SVG/1.1/DTD/svg11.dtd">
<!-- Generated by graphviz version 2.40.1 (20161225.0304)
 -->
<!-- Title: pkg/emb6/include/sock_types.h Pages: 1 -->
<svg width="677pt" height="375pt"
 viewBox="0.00 0.00 676.50 375.00" xmlns="http://www.w3.org/2000/svg" xmlns:xlink="http://www.w3.org/1999/xlink">
<g id="graph0" class="graph" transform="scale(1 1) rotate(0) translate(4 371)">
<title>pkg/emb6/include/sock_types.h</title>
<!-- Node0 -->
<g id="node1" class="node">
<title>Node0</title>
<polygon fill="#bfbfbf" stroke="#000000" points="378.5,-336.5 378.5,-366.5 495.5,-366.5 495.5,-336.5 378.5,-336.5"/>
<text text-anchor="start" x="386.5" y="-354.5" font-family="Helvetica,sans-Serif" font-size="10.00" fill="#000000">pkg/emb6/include/sock</text>
<text text-anchor="middle" x="437" y="-343.5" font-family="Helvetica,sans-Serif" font-size="10.00" fill="#000000">_types.h</text>
</g>
<!-- Node1 -->
<g id="node2" class="node">
<title>Node1</title>
<polygon fill="none" stroke="#bfbfbf" points="215,-280.5 215,-299.5 283,-299.5 283,-280.5 215,-280.5"/>
<text text-anchor="middle" x="249" y="-287.5" font-family="Helvetica,sans-Serif" font-size="10.00" fill="#000000">stdatomic.h</text>
</g>
<!-- Node0&#45;&gt;Node1 -->
<g id="edge1" class="edge">
<title>Node0&#45;&gt;Node1</title>
<path fill="none" stroke="#191970" d="M391.01,-336.4554C359.3666,-326.104 317.801,-312.5067 287.8241,-302.7004"/>
<polygon fill="#191970" stroke="#191970" points="288.7259,-299.313 278.1333,-299.5303 286.5495,-305.9661 288.7259,-299.313"/>
</g>
<!-- Node2 -->
<g id="node3" class="node">
<title>Node2</title>
<g id="a_node3"><a xlink:href="mbox_8h.html" target="_top" xlink:title="Mailbox API. ">
<polygon fill="none" stroke="#000000" points="301.5,-280.5 301.5,-299.5 350.5,-299.5 350.5,-280.5 301.5,-280.5"/>
<text text-anchor="middle" x="326" y="-287.5" font-family="Helvetica,sans-Serif" font-size="10.00" fill="#000000">mbox.h</text>
</a>
</g>
</g>
<!-- Node0&#45;&gt;Node2 -->
<g id="edge2" class="edge">
<title>Node0&#45;&gt;Node2</title>
<path fill="none" stroke="#191970" d="M409.8463,-336.4554C392.3005,-326.734 369.5878,-314.15 352.2279,-304.5317"/>
<polygon fill="#191970" stroke="#191970" points="353.6445,-301.3153 343.2011,-299.5303 350.252,-307.4383 353.6445,-301.3153"/>
</g>
<!-- Node16 -->
<g id="node17" class="node">
<title>Node16</title>
<g id="a_node17"><a xlink:href="mutex_8h.html" target="_top" xlink:title="Mutex for thread synchronization. ">
<polygon fill="none" stroke="#000000" points="369,-280.5 369,-299.5 421,-299.5 421,-280.5 369,-280.5"/>
<text text-anchor="middle" x="395" y="-287.5" font-family="Helvetica,sans-Serif" font-size="10.00" fill="#000000">mutex.h</text>
</a>
</g>
</g>
<!-- Node0&#45;&gt;Node16 -->
<g id="edge18" class="edge">
<title>Node0&#45;&gt;Node16</title>
<path fill="none" stroke="#191970" d="M426.618,-336.2977C420.8487,-327.8498 413.6284,-317.2773 407.5447,-308.369"/>
<polygon fill="#191970" stroke="#191970" points="410.2547,-306.1311 401.7247,-299.8469 404.4741,-310.0788 410.2547,-306.1311"/>
</g>
<!-- Node17 -->
<g id="node18" class="node">
<title>Node17</title>
<g id="a_node18"><a xlink:href="ipv6_2addr_8h.html" target="_top" xlink:title="Definitions for IPv6 addresses. ">
<polygon fill="none" stroke="#000000" points="439.5,-280.5 439.5,-299.5 520.5,-299.5 520.5,-280.5 439.5,-280.5"/>
<text text-anchor="middle" x="480" y="-287.5" font-family="Helvetica,sans-Serif" font-size="10.00" fill="#000000">net/ipv6/addr.h</text>
</a>
</g>
</g>
<!-- Node0&#45;&gt;Node17 -->
<g id="edge22" class="edge">
<title>Node0&#45;&gt;Node17</title>
<path fill="none" stroke="#191970" d="M447.6292,-336.2977C453.5981,-327.7609 461.0838,-317.0545 467.3529,-308.0883"/>
<polygon fill="#191970" stroke="#191970" points="470.2534,-310.048 473.1152,-299.8469 464.5165,-306.0368 470.2534,-310.048"/>
</g>
<!-- Node21 -->
<g id="node22" class="node">
<title>Node21</title>
<polygon fill="none" stroke="#bfbfbf" points="539,-280.5 539,-299.5 577,-299.5 577,-280.5 539,-280.5"/>
<text text-anchor="middle" x="558" y="-287.5" font-family="Helvetica,sans-Serif" font-size="10.00" fill="#000000">uip.h</text>
</g>
<!-- Node0&#45;&gt;Node21 -->
<g id="edge31" class="edge">
<title>Node0&#45;&gt;Node21</title>
<path fill="none" stroke="#191970" d="M466.5999,-336.4554C485.9922,-326.599 511.1742,-313.7999 530.1943,-304.1327"/>
<polygon fill="#191970" stroke="#191970" points="531.9205,-307.1815 539.2493,-299.5303 528.7488,-300.9412 531.9205,-307.1815"/>
</g>
<!-- Node22 -->
<g id="node23" class="node">
<title>Node22</title>
<polygon fill="none" stroke="#bfbfbf" points="595.5,-280.5 595.5,-299.5 668.5,-299.5 668.5,-280.5 595.5,-280.5"/>
<text text-anchor="middle" x="632" y="-287.5" font-family="Helvetica,sans-Serif" font-size="10.00" fill="#000000">udp&#45;socket.h</text>
</g>
<!-- Node0&#45;&gt;Node22 -->
<g id="edge32" class="edge">
<title>Node0&#45;&gt;Node22</title>
<path fill="none" stroke="#191970" d="M484.7024,-336.4554C517.6667,-326.059 561.0123,-312.3884 592.1352,-302.5727"/>
<polygon fill="#191970" stroke="#191970" points="593.2977,-305.8761 601.7819,-299.5303 591.1922,-299.2003 593.2977,-305.8761"/>
</g>
<!-- Node3 -->
<g id="node4" class="node">
<title>Node3</title>
<g id="a_node4"><a xlink:href="list_8h.html" target="_top" xlink:title="Intrusive linked list. ">
<polygon fill="none" stroke="#000000" points="318,-224.5 318,-243.5 356,-243.5 356,-224.5 318,-224.5"/>
<text text-anchor="middle" x="337" y="-231.5" font-family="Helvetica,sans-Serif" font-size="10.00" fill="#000000">list.h</text>
</a>
</g>
</g>
<!-- Node2&#45;&gt;Node3 -->
<g id="edge3" class="edge">
<title>Node2&#45;&gt;Node3</title>
<path fill="none" stroke="#191970" d="M327.9161,-280.2455C329.3514,-272.9382 331.3636,-262.6944 333.1295,-253.7046"/>
<polygon fill="#191970" stroke="#191970" points="336.6127,-254.1298 335.1059,-243.6427 329.744,-252.7805 336.6127,-254.1298"/>
</g>
<!-- Node4 -->
<g id="node5" class="node">
<title>Node4</title>
<g id="a_node5"><a xlink:href="cib_8h.html" target="_top" xlink:title="Circular integer buffer interface. ">
<polygon fill="none" stroke="#000000" points="172,-224.5 172,-243.5 210,-243.5 210,-224.5 172,-224.5"/>
<text text-anchor="middle" x="191" y="-231.5" font-family="Helvetica,sans-Serif" font-size="10.00" fill="#000000">cib.h</text>
</a>
</g>
</g>
<!-- Node2&#45;&gt;Node4 -->
<g id="edge4" class="edge">
<title>Node2&#45;&gt;Node4</title>
<path fill="none" stroke="#191970" d="M302.7927,-280.3733C279.7653,-270.8211 244.4247,-256.1613 219.6585,-245.888"/>
<polygon fill="#191970" stroke="#191970" points="220.9863,-242.6496 210.4084,-242.0509 218.3042,-249.1154 220.9863,-242.6496"/>
</g>
<!-- Node9 -->
<g id="node10" class="node">
<title>Node9</title>
<g id="a_node10"><a xlink:href="msg_8h.html" target="_top" xlink:title="Messaging API for inter process communication. ">
<polygon fill="none" stroke="#000000" points="256,-224.5 256,-243.5 300,-243.5 300,-224.5 256,-224.5"/>
<text text-anchor="middle" x="278" y="-231.5" font-family="Helvetica,sans-Serif" font-size="10.00" fill="#000000">msg.h</text>
</a>
</g>
</g>
<!-- Node2&#45;&gt;Node9 -->
<g id="edge9" class="edge">
<title>Node2&#45;&gt;Node9</title>
<path fill="none" stroke="#191970" d="M317.639,-280.2455C310.825,-272.2958 301.0319,-260.8706 292.8848,-251.3656"/>
<polygon fill="#191970" stroke="#191970" points="295.4305,-248.9575 286.2651,-243.6427 290.1157,-253.513 295.4305,-248.9575"/>
</g>
<!-- Node5 -->
<g id="node6" class="node">
<title>Node5</title>
<g id="a_node6"><a xlink:href="assert_8h.html" target="_top" xlink:title="POSIX.1&#45;2008 compliant version of the assert macro. ">
<polygon fill="none" stroke="#000000" points="95,-168.5 95,-187.5 147,-187.5 147,-168.5 95,-168.5"/>
<text text-anchor="middle" x="121" y="-175.5" font-family="Helvetica,sans-Serif" font-size="10.00" fill="#000000">assert.h</text>
</a>
</g>
</g>
<!-- Node4&#45;&gt;Node5 -->
<g id="edge5" class="edge">
<title>Node4&#45;&gt;Node5</title>
<path fill="none" stroke="#191970" d="M178.8069,-224.2455C168.3679,-215.8943 153.1345,-203.7076 140.926,-193.9408"/>
<polygon fill="#191970" stroke="#191970" points="143.0485,-191.1566 133.0533,-187.6427 138.6756,-196.6227 143.0485,-191.1566"/>
</g>
<!-- Node6 -->
<g id="node7" class="node">
<title>Node6</title>
<g id="a_node7"><a xlink:href="panic_8h.html" target="_top" xlink:title="Crash handling header. ">
<polygon fill="none" stroke="#000000" points="30,-112.5 30,-131.5 78,-131.5 78,-112.5 30,-112.5"/>
<text text-anchor="middle" x="54" y="-119.5" font-family="Helvetica,sans-Serif" font-size="10.00" fill="#000000">panic.h</text>
</a>
</g>
</g>
<!-- Node5&#45;&gt;Node6 -->
<g id="edge6" class="edge">
<title>Node5&#45;&gt;Node6</title>
<path fill="none" stroke="#191970" d="M109.3295,-168.2455C99.4339,-159.9746 85.0373,-147.9416 73.4099,-138.2232"/>
<polygon fill="#191970" stroke="#191970" points="75.4542,-135.3703 65.5368,-131.6427 70.965,-140.7413 75.4542,-135.3703"/>
</g>
<!-- Node7 -->
<g id="node8" class="node">
<title>Node7</title>
<g id="a_node8"><a xlink:href="kernel__defines_8h.html" target="_top" xlink:title="Common macros and compiler attributes/pragmas configuration. ">
<polygon fill="none" stroke="#000000" points="0,-56.5 0,-75.5 88,-75.5 88,-56.5 0,-56.5"/>
<text text-anchor="middle" x="44" y="-63.5" font-family="Helvetica,sans-Serif" font-size="10.00" fill="#000000">kernel_defines.h</text>
</a>
</g>
</g>
<!-- Node6&#45;&gt;Node7 -->
<g id="edge7" class="edge">
<title>Node6&#45;&gt;Node7</title>
<path fill="none" stroke="#191970" d="M52.2581,-112.2455C50.9533,-104.9382 49.124,-94.6944 47.5187,-85.7046"/>
<polygon fill="#191970" stroke="#191970" points="50.9254,-84.8717 45.7219,-75.6427 44.0344,-86.1022 50.9254,-84.8717"/>
</g>
<!-- Node8 -->
<g id="node9" class="node">
<title>Node8</title>
<polygon fill="none" stroke="#bfbfbf" points="90,-.5 90,-19.5 142,-19.5 142,-.5 90,-.5"/>
<text text-anchor="middle" x="116" y="-7.5" font-family="Helvetica,sans-Serif" font-size="10.00" fill="#000000">stddef.h</text>
</g>
<!-- Node7&#45;&gt;Node8 -->
<g id="edge8" class="edge">
<title>Node7&#45;&gt;Node8</title>
<path fill="none" stroke="#191970" d="M56.5414,-56.2455C67.2787,-47.8943 82.9473,-35.7076 95.5047,-25.9408"/>
<polygon fill="#191970" stroke="#191970" points="97.8575,-28.5449 103.6023,-19.6427 93.5599,-23.0194 97.8575,-28.5449"/>
</g>
<!-- Node10 -->
<g id="node11" class="node">
<title>Node10</title>
<polygon fill="none" stroke="#bfbfbf" points="412.5,-112.5 412.5,-131.5 461.5,-131.5 461.5,-112.5 412.5,-112.5"/>
<text text-anchor="middle" x="437" y="-119.5" font-family="Helvetica,sans-Serif" font-size="10.00" fill="#000000">stdint.h</text>
</g>
<!-- Node9&#45;&gt;Node10 -->
<g id="edge10" class="edge">
<title>Node9&#45;&gt;Node10</title>
<path fill="none" stroke="#191970" d="M291.5563,-224.4509C319.1316,-205.0268 381.96,-160.7703 415.2944,-137.2895"/>
<polygon fill="#191970" stroke="#191970" points="417.3182,-140.1451 423.4781,-131.5249 413.2871,-134.4223 417.3182,-140.1451"/>
</g>
<!-- Node11 -->
<g id="node12" class="node">
<title>Node11</title>
<polygon fill="none" stroke="#bfbfbf" points="450,-168.5 450,-187.5 506,-187.5 506,-168.5 450,-168.5"/>
<text text-anchor="middle" x="478" y="-175.5" font-family="Helvetica,sans-Serif" font-size="10.00" fill="#000000">stdbool.h</text>
</g>
<!-- Node9&#45;&gt;Node11 -->
<g id="edge11" class="edge">
<title>Node9&#45;&gt;Node11</title>
<path fill="none" stroke="#191970" d="M300.3126,-226.6661C303.2286,-225.7478 306.1812,-224.8378 309,-224 353.6414,-210.7321 405.3568,-196.8752 439.7038,-187.883"/>
<polygon fill="#191970" stroke="#191970" points="440.9861,-191.1657 449.7786,-185.2545 439.2189,-184.3924 440.9861,-191.1657"/>
</g>
<!-- Node12 -->
<g id="node13" class="node">
<title>Node12</title>
<g id="a_node13"><a xlink:href="kernel__types_8h.html" target="_top" xlink:title="Types used by the kernel. ">
<polygon fill="none" stroke="#000000" points="214,-168.5 214,-187.5 294,-187.5 294,-168.5 214,-168.5"/>
<text text-anchor="middle" x="254" y="-175.5" font-family="Helvetica,sans-Serif" font-size="10.00" fill="#000000">kernel_types.h</text>
</a>
</g>
</g>
<!-- Node9&#45;&gt;Node12 -->
<g id="edge12" class="edge">
<title>Node9&#45;&gt;Node12</title>
<path fill="none" stroke="#191970" d="M273.8195,-224.2455C270.619,-216.7776 266.104,-206.2427 262.1916,-197.1137"/>
<polygon fill="#191970" stroke="#191970" points="265.2888,-195.4554 258.1326,-187.6427 258.8548,-198.2129 265.2888,-195.4554"/>
</g>
<!-- Node12&#45;&gt;Node8 -->
<g id="edge16" class="edge">
<title>Node12&#45;&gt;Node8</title>
<path fill="none" stroke="#191970" d="M213.9689,-172.921C187.4992,-167.3926 154.247,-155.8881 135,-132 111.4522,-102.774 111.2274,-56.4568 113.4375,-30.0985"/>
<polygon fill="#191970" stroke="#191970" points="116.9523,-30.1379 114.5109,-19.8282 109.9902,-29.4101 116.9523,-30.1379"/>
</g>
<!-- Node12&#45;&gt;Node10 -->
<g id="edge13" class="edge">
<title>Node12&#45;&gt;Node10</title>
<path fill="none" stroke="#191970" d="M285.4588,-168.3733C318.0581,-158.3975 368.862,-142.851 402.5312,-132.5478"/>
<polygon fill="#191970" stroke="#191970" points="403.853,-135.8036 412.3911,-129.5306 401.8046,-129.11 403.853,-135.8036"/>
</g>
<!-- Node13 -->
<g id="node14" class="node">
<title>Node13</title>
<g id="a_node14"><a xlink:href="inttypes_8h.html" target="_top" xlink:title="Adds include for missing inttype definitions. ">
<polygon fill="none" stroke="#000000" points="144.5,-112.5 144.5,-131.5 203.5,-131.5 203.5,-112.5 144.5,-112.5"/>
<text text-anchor="middle" x="174" y="-119.5" font-family="Helvetica,sans-Serif" font-size="10.00" fill="#000000">inttypes.h</text>
</a>
</g>
</g>
<!-- Node12&#45;&gt;Node13 -->
<g id="edge14" class="edge">
<title>Node12&#45;&gt;Node13</title>
<path fill="none" stroke="#191970" d="M240.0651,-168.2455C227.9053,-159.7337 210.0536,-147.2375 195.9715,-137.3801"/>
<polygon fill="#191970" stroke="#191970" points="197.9747,-134.51 187.7752,-131.6427 193.9605,-140.2447 197.9747,-134.51"/>
</g>
<!-- Node14 -->
<g id="node15" class="node">
<title>Node14</title>
<polygon fill="none" stroke="#bfbfbf" points="222,-112.5 222,-131.5 270,-131.5 270,-112.5 222,-112.5"/>
<text text-anchor="middle" x="246" y="-119.5" font-family="Helvetica,sans-Serif" font-size="10.00" fill="#000000">limits.h</text>
</g>
<!-- Node12&#45;&gt;Node14 -->
<g id="edge15" class="edge">
<title>Node12&#45;&gt;Node14</title>
<path fill="none" stroke="#191970" d="M252.6065,-168.2455C251.5626,-160.9382 250.0992,-150.6944 248.8149,-141.7046"/>
<polygon fill="#191970" stroke="#191970" points="252.2566,-141.0472 247.3775,-131.6427 245.327,-142.0372 252.2566,-141.0472"/>
</g>
<!-- Node15 -->
<g id="node16" class="node">
<title>Node15</title>
<polygon fill="none" stroke="#bfbfbf" points="288,-112.5 288,-131.5 356,-131.5 356,-112.5 288,-112.5"/>
<text text-anchor="middle" x="322" y="-119.5" font-family="Helvetica,sans-Serif" font-size="10.00" fill="#000000">sys/types.h</text>
</g>
<!-- Node12&#45;&gt;Node15 -->
<g id="edge17" class="edge">
<title>Node12&#45;&gt;Node15</title>
<path fill="none" stroke="#191970" d="M265.8447,-168.2455C275.888,-159.9746 290.4995,-147.9416 302.3004,-138.2232"/>
<polygon fill="#191970" stroke="#191970" points="304.7967,-140.7015 310.291,-131.6427 300.3467,-135.298 304.7967,-140.7015"/>
</g>
<!-- Node16&#45;&gt;Node3 -->
<g id="edge21" class="edge">
<title>Node16&#45;&gt;Node3</title>
<path fill="none" stroke="#191970" d="M384.8972,-280.2455C376.4972,-272.1352 364.3506,-260.4075 354.3916,-250.7919"/>
<polygon fill="#191970" stroke="#191970" points="356.6122,-248.0707 346.9871,-243.6427 351.75,-253.1066 356.6122,-248.0707"/>
</g>
<!-- Node16&#45;&gt;Node8 -->
<g id="edge19" class="edge">
<title>Node16&#45;&gt;Node8</title>
<path fill="none" stroke="#191970" d="M393.424,-280.4427C390.3824,-261.1407 384,-216.0991 384,-178 384,-178 384,-178 384,-122 384,-72.3743 225.5856,-32.853 152.3441,-17.2326"/>
<polygon fill="#191970" stroke="#191970" points="152.6903,-13.7292 142.1849,-15.103 151.2541,-20.5803 152.6903,-13.7292"/>
</g>
<!-- Node16&#45;&gt;Node10 -->
<g id="edge20" class="edge">
<title>Node16&#45;&gt;Node10</title>
<path fill="none" stroke="#191970" d="M397.3784,-280.4862C404.0464,-253.8144 423.0221,-177.9117 432.0762,-141.695"/>
<polygon fill="#191970" stroke="#191970" points="435.5131,-142.3782 434.543,-131.8279 428.7221,-140.6804 435.5131,-142.3782"/>
</g>
<!-- Node17&#45;&gt;Node11 -->
<g id="edge23" class="edge">
<title>Node17&#45;&gt;Node11</title>
<path fill="none" stroke="#191970" d="M479.8295,-280.4509C479.5033,-262.184 478.7849,-221.9553 478.3517,-197.6976"/>
<polygon fill="#191970" stroke="#191970" points="481.8482,-197.4608 478.1701,-187.5249 474.8493,-197.5858 481.8482,-197.4608"/>
</g>
<!-- Node18 -->
<g id="node19" class="node">
<title>Node18</title>
<polygon fill="none" stroke="#bfbfbf" points="587.5,-224.5 587.5,-243.5 636.5,-243.5 636.5,-224.5 587.5,-224.5"/>
<text text-anchor="middle" x="612" y="-231.5" font-family="Helvetica,sans-Serif" font-size="10.00" fill="#000000">string.h</text>
</g>
<!-- Node17&#45;&gt;Node18 -->
<g id="edge24" class="edge">
<title>Node17&#45;&gt;Node18</title>
<path fill="none" stroke="#191970" d="M502.6916,-280.3733C524.0711,-271.3032 556.3057,-257.6279 580.2362,-247.4755"/>
<polygon fill="#191970" stroke="#191970" points="581.7656,-250.6287 589.6045,-243.5011 579.0317,-244.1846 581.7656,-250.6287"/>
</g>
<!-- Node19 -->
<g id="node20" class="node">
<title>Node19</title>
<g id="a_node20"><a xlink:href="byteorder_8h.html" target="_top" xlink:title="Functions to work with different byte orders. ">
<polygon fill="none" stroke="#000000" points="562.5,-168.5 562.5,-187.5 627.5,-187.5 627.5,-168.5 562.5,-168.5"/>
<text text-anchor="middle" x="595" y="-175.5" font-family="Helvetica,sans-Serif" font-size="10.00" fill="#000000">byteorder.h</text>
</a>
</g>
</g>
<!-- Node17&#45;&gt;Node19 -->
<g id="edge25" class="edge">
<title>Node17&#45;&gt;Node19</title>
<path fill="none" stroke="#191970" d="M520.5989,-281.4294C567.2116,-271.1818 638.2832,-254.146 646,-244 659.3034,-226.5088 638.912,-206.5618 620.0995,-193.2173"/>
<polygon fill="#191970" stroke="#191970" points="621.9491,-190.2436 611.6937,-187.5832 618.0517,-196.0583 621.9491,-190.2436"/>
</g>
<!-- Node20 -->
<g id="node21" class="node">
<title>Node20</title>
<g id="a_node21"><a xlink:href="ipv4_2addr_8h.html" target="_top" xlink:title="IPv6 address type and helper functions definitions. ">
<polygon fill="none" stroke="#000000" points="488.5,-224.5 488.5,-243.5 569.5,-243.5 569.5,-224.5 488.5,-224.5"/>
<text text-anchor="middle" x="529" y="-231.5" font-family="Helvetica,sans-Serif" font-size="10.00" fill="#000000">net/ipv4/addr.h</text>
</a>
</g>
</g>
<!-- Node17&#45;&gt;Node20 -->
<g id="edge27" class="edge">
<title>Node17&#45;&gt;Node20</title>
<path fill="none" stroke="#191970" d="M488.5351,-280.2455C495.4912,-272.2958 505.4883,-260.8706 513.8051,-251.3656"/>
<polygon fill="#191970" stroke="#191970" points="516.6116,-253.4732 520.5627,-243.6427 511.3436,-248.8637 516.6116,-253.4732"/>
</g>
<!-- Node19&#45;&gt;Node10 -->
<g id="edge26" class="edge">
<title>Node19&#45;&gt;Node10</title>
<path fill="none" stroke="#191970" d="M567.8388,-168.3733C541.1619,-158.9181 500.3651,-144.4585 471.4278,-134.2023"/>
<polygon fill="#191970" stroke="#191970" points="472.3243,-130.8067 461.7296,-130.7649 469.9858,-137.4046 472.3243,-130.8067"/>
</g>
<!-- Node20&#45;&gt;Node10 -->
<g id="edge29" class="edge">
<title>Node20&#45;&gt;Node10</title>
<path fill="none" stroke="#191970" d="M529.2833,-224.0666C529.1867,-210.223 527.1735,-184.9267 515,-168 504.1299,-152.8856 486.6257,-141.9113 470.951,-134.481"/>
<polygon fill="#191970" stroke="#191970" points="472.065,-131.1469 461.5034,-130.3073 469.2362,-137.5499 472.065,-131.1469"/>
</g>
<!-- Node20&#45;&gt;Node11 -->
<g id="edge28" class="edge">
<title>Node20&#45;&gt;Node11</title>
<path fill="none" stroke="#191970" d="M520.1165,-224.2455C512.8034,-216.2155 502.2609,-204.6394 493.5533,-195.0781"/>
<polygon fill="#191970" stroke="#191970" points="496.1028,-192.6795 486.7817,-187.6427 490.9273,-197.3928 496.1028,-192.6795"/>
</g>
<!-- Node20&#45;&gt;Node19 -->
<g id="edge30" class="edge">
<title>Node20&#45;&gt;Node19</title>
<path fill="none" stroke="#191970" d="M540.4963,-224.2455C550.2442,-215.9746 564.4259,-203.9416 575.8798,-194.2232"/>
<polygon fill="#191970" stroke="#191970" points="578.2747,-196.7813 583.6354,-187.6427 573.7459,-191.4437 578.2747,-196.7813"/>
</g>
</g>
</svg>
