<?xml version="1.0" encoding="UTF-8" standalone="no"?>
<!DOCTYPE svg PUBLIC "-//W3C//DTD SVG 1.1//EN"
 "http://www.w3.org/Graphics/SVG/1.1/DTD/svg11.dtd">
<!-- Generated by graphviz version 2.40.1 (20161225.0304)
 -->
<!-- Title: pkg/semtech&#45;loramac/include/semtech&#45;loramac/timer.h Pages: 1 -->
<svg width="1221pt" height="554pt"
 viewBox="0.00 0.00 1221.22 554.00" xmlns="http://www.w3.org/2000/svg" xmlns:xlink="http://www.w3.org/1999/xlink">
<g id="graph0" class="graph" transform="scale(1 1) rotate(0) translate(4 550)">
<title>pkg/semtech&#45;loramac/include/semtech&#45;loramac/timer.h</title>
<!-- Node0 -->
<g id="node1" class="node">
<title>Node0</title>
<polygon fill="#bfbfbf" stroke="#000000" points="226.5216,-504.5 226.5216,-545.5 354.5216,-545.5 354.5216,-504.5 226.5216,-504.5"/>
<text text-anchor="start" x="234.5216" y="-533.5" font-family="Helvetica,sans-Serif" font-size="10.00" fill="#000000">pkg/semtech&#45;loramac</text>
<text text-anchor="start" x="234.5216" y="-522.5" font-family="Helvetica,sans-Serif" font-size="10.00" fill="#000000">/include/semtech&#45;loramac</text>
<text text-anchor="middle" x="290.5216" y="-511.5" font-family="Helvetica,sans-Serif" font-size="10.00" fill="#000000">/timer.h</text>
</g>
<!-- Node1 -->
<g id="node2" class="node">
<title>Node1</title>
<g id="a_node2"><a xlink:href="xtimer_8h.html" target="_top" xlink:title="xtimer interface definitions ">
<polygon fill="none" stroke="#000000" points="336.5216,-336.5 336.5216,-355.5 388.5216,-355.5 388.5216,-336.5 336.5216,-336.5"/>
<text text-anchor="middle" x="362.5216" y="-343.5" font-family="Helvetica,sans-Serif" font-size="10.00" fill="#000000">xtimer.h</text>
</a>
</g>
</g>
<!-- Node0&#45;&gt;Node1 -->
<g id="edge1" class="edge">
<title>Node0&#45;&gt;Node1</title>
<path fill="none" stroke="#191970" d="M298.7809,-504.4664C312.7797,-469.6639 340.9782,-399.5593 354.6851,-365.4824"/>
<polygon fill="#191970" stroke="#191970" points="358.1052,-366.3586 358.5898,-355.7749 351.6108,-363.7463 358.1052,-366.3586"/>
</g>
<!-- Node27 -->
<g id="node28" class="node">
<title>Node27</title>
<g id="a_node28"><a xlink:href="msg_8h.html" target="_top" xlink:title="Messaging API for inter process communication. ">
<polygon fill="none" stroke="#000000" points="243.5216,-280.5 243.5216,-299.5 287.5216,-299.5 287.5216,-280.5 243.5216,-280.5"/>
<text text-anchor="middle" x="265.5216" y="-287.5" font-family="Helvetica,sans-Serif" font-size="10.00" fill="#000000">msg.h</text>
</a>
</g>
</g>
<!-- Node0&#45;&gt;Node27 -->
<g id="edge41" class="edge">
<title>Node0&#45;&gt;Node27</title>
<path fill="none" stroke="#191970" d="M288.303,-504.1453C283.5202,-459.1867 272.294,-353.6599 267.6207,-309.7309"/>
<polygon fill="#191970" stroke="#191970" points="271.0724,-309.0907 266.5341,-299.5171 264.1117,-309.8313 271.0724,-309.0907"/>
</g>
<!-- Node28 -->
<g id="node29" class="node">
<title>Node28</title>
<g id="a_node29"><a xlink:href="semtech__loramac_8h.html" target="_top" xlink:title="Public API and definitions of the Semtech LoRaMAC. ">
<polygon fill="none" stroke="#000000" points="356.5216,-448.5 356.5216,-467.5 458.5216,-467.5 458.5216,-448.5 356.5216,-448.5"/>
<text text-anchor="middle" x="407.5216" y="-455.5" font-family="Helvetica,sans-Serif" font-size="10.00" fill="#000000">semtech_loramac.h</text>
</a>
</g>
</g>
<!-- Node0&#45;&gt;Node28 -->
<g id="edge45" class="edge">
<title>Node0&#45;&gt;Node28</title>
<path fill="none" stroke="#191970" d="M326.5802,-504.3511C344.4287,-494.1301 365.5624,-482.0279 381.7586,-472.7532"/>
<polygon fill="#191970" stroke="#191970" points="383.7235,-475.6613 390.662,-467.6546 380.2449,-469.5868 383.7235,-475.6613"/>
</g>
<!-- Node2 -->
<g id="node3" class="node">
<title>Node2</title>
<polygon fill="none" stroke="#bfbfbf" points="608.5216,-168.5 608.5216,-187.5 664.5216,-187.5 664.5216,-168.5 608.5216,-168.5"/>
<text text-anchor="middle" x="636.5216" y="-175.5" font-family="Helvetica,sans-Serif" font-size="10.00" fill="#000000">stdbool.h</text>
</g>
<!-- Node1&#45;&gt;Node2 -->
<g id="edge2" class="edge">
<title>Node1&#45;&gt;Node2</title>
<path fill="none" stroke="#191970" d="M352.9563,-336.4725C340.2484,-322.6659 321.001,-296.9036 335.5216,-280 404.6593,-199.5161 477.0304,-292.2606 571.5216,-244 593.5512,-232.7486 612.5735,-211.1918 624.2496,-195.7749"/>
<polygon fill="#191970" stroke="#191970" points="627.1932,-197.678 630.2427,-187.5314 621.5314,-193.5617 627.1932,-197.678"/>
</g>
<!-- Node3 -->
<g id="node4" class="node">
<title>Node3</title>
<polygon fill="none" stroke="#bfbfbf" points="400.0216,-168.5 400.0216,-187.5 449.0216,-187.5 449.0216,-168.5 400.0216,-168.5"/>
<text text-anchor="middle" x="424.5216" y="-175.5" font-family="Helvetica,sans-Serif" font-size="10.00" fill="#000000">stdint.h</text>
</g>
<!-- Node1&#45;&gt;Node3 -->
<g id="edge3" class="edge">
<title>Node1&#45;&gt;Node3</title>
<path fill="none" stroke="#191970" d="M373.8861,-336.2339C383.1052,-327.647 395.6585,-314.3145 402.5216,-300 418.5788,-266.5095 422.9847,-222.7325 424.1511,-197.7559"/>
<polygon fill="#191970" stroke="#191970" points="427.6508,-197.8197 424.4892,-187.7076 420.6548,-197.5842 427.6508,-197.8197"/>
</g>
<!-- Node4 -->
<g id="node5" class="node">
<title>Node4</title>
<g id="a_node5"><a xlink:href="timex_8h.html" target="_top" xlink:title="Utility library for comparing and computing timestamps. ">
<polygon fill="none" stroke="#000000" points="83.0216,-224.5 83.0216,-243.5 132.0216,-243.5 132.0216,-224.5 83.0216,-224.5"/>
<text text-anchor="middle" x="107.5216" y="-231.5" font-family="Helvetica,sans-Serif" font-size="10.00" fill="#000000">timex.h</text>
</a>
</g>
</g>
<!-- Node1&#45;&gt;Node4 -->
<g id="edge4" class="edge">
<title>Node1&#45;&gt;Node4</title>
<path fill="none" stroke="#191970" d="M336.4895,-340.9896C274.5459,-329.0674 123.5216,-300 123.5216,-300 111.1456,-288.2006 107.657,-268.5876 106.9581,-253.8013"/>
<polygon fill="#191970" stroke="#191970" points="110.4566,-253.6123 106.8664,-243.6444 103.4569,-253.6756 110.4566,-253.6123"/>
</g>
<!-- Node6 -->
<g id="node7" class="node">
<title>Node6</title>
<g id="a_node7"><a xlink:href="mutex_8h.html" target="_top" xlink:title="Mutex for thread synchronization. ">
<polygon fill="none" stroke="#000000" points="12.5216,-224.5 12.5216,-243.5 64.5216,-243.5 64.5216,-224.5 12.5216,-224.5"/>
<text text-anchor="middle" x="38.5216" y="-231.5" font-family="Helvetica,sans-Serif" font-size="10.00" fill="#000000">mutex.h</text>
</a>
</g>
</g>
<!-- Node1&#45;&gt;Node6 -->
<g id="edge7" class="edge">
<title>Node1&#45;&gt;Node6</title>
<path fill="none" stroke="#191970" d="M336.3494,-340.8858C328.0912,-339.2939 318.9296,-337.5502 310.5216,-336 219.9801,-319.3061 188.4986,-341.9072 106.5216,-300 84.2349,-288.6069 64.4211,-267.445 52.0124,-252.1494"/>
<polygon fill="#191970" stroke="#191970" points="54.5136,-249.6657 45.5994,-243.9396 48.9971,-253.9749 54.5136,-249.6657"/>
</g>
<!-- Node9 -->
<g id="node10" class="node">
<title>Node9</title>
<g id="a_node10"><a xlink:href="kernel__types_8h.html" target="_top" xlink:title="Types used by the kernel. ">
<polygon fill="none" stroke="#000000" points="274.5216,-224.5 274.5216,-243.5 354.5216,-243.5 354.5216,-224.5 274.5216,-224.5"/>
<text text-anchor="middle" x="314.5216" y="-231.5" font-family="Helvetica,sans-Serif" font-size="10.00" fill="#000000">kernel_types.h</text>
</a>
</g>
</g>
<!-- Node1&#45;&gt;Node9 -->
<g id="edge11" class="edge">
<title>Node1&#45;&gt;Node9</title>
<path fill="none" stroke="#191970" d="M336.3361,-340.3109C302.4926,-332.3658 246.4751,-316.9977 234.5216,-300 219.0953,-278.064 248.6977,-259.3125 276.1555,-247.465"/>
<polygon fill="#191970" stroke="#191970" points="277.7653,-250.5883 285.7008,-243.5685 275.1197,-244.1075 277.7653,-250.5883"/>
</g>
<!-- Node12 -->
<g id="node13" class="node">
<title>Node12</title>
<g id="a_node13"><a xlink:href="rmutex_8h.html" target="_top" xlink:title="Recursive Mutex for thread synchronization. ">
<polygon fill="none" stroke="#000000" points="132.0216,-280.5 132.0216,-299.5 187.0216,-299.5 187.0216,-280.5 132.0216,-280.5"/>
<text text-anchor="middle" x="159.5216" y="-287.5" font-family="Helvetica,sans-Serif" font-size="10.00" fill="#000000">rmutex.h</text>
</a>
</g>
</g>
<!-- Node1&#45;&gt;Node12 -->
<g id="edge17" class="edge">
<title>Node1&#45;&gt;Node12</title>
<path fill="none" stroke="#191970" d="M336.3985,-338.7936C300.9587,-329.0171 237.4316,-311.4924 196.9357,-300.3211"/>
<polygon fill="#191970" stroke="#191970" points="197.7381,-296.9118 187.1674,-297.6264 195.8766,-303.6598 197.7381,-296.9118"/>
</g>
<!-- Node14 -->
<g id="node15" class="node">
<title>Node14</title>
<polygon fill="none" stroke="#bfbfbf" points="344.0216,-280.5 344.0216,-299.5 393.0216,-299.5 393.0216,-280.5 344.0216,-280.5"/>
<text text-anchor="middle" x="368.5216" y="-287.5" font-family="Helvetica,sans-Serif" font-size="10.00" fill="#000000">board.h</text>
</g>
<!-- Node1&#45;&gt;Node14 -->
<g id="edge22" class="edge">
<title>Node1&#45;&gt;Node14</title>
<path fill="none" stroke="#191970" d="M363.5667,-336.2455C364.3497,-328.9382 365.4472,-318.6944 366.4104,-309.7046"/>
<polygon fill="#191970" stroke="#191970" points="369.9031,-309.9587 367.4885,-299.6427 362.943,-309.2129 369.9031,-309.9587"/>
</g>
<!-- Node15 -->
<g id="node16" class="node">
<title>Node15</title>
<polygon fill="none" stroke="#bfbfbf" points="996.0216,-112.5 996.0216,-131.5 1071.0216,-131.5 1071.0216,-112.5 996.0216,-112.5"/>
<text text-anchor="middle" x="1033.5216" y="-119.5" font-family="Helvetica,sans-Serif" font-size="10.00" fill="#000000">periph_conf.h</text>
</g>
<!-- Node1&#45;&gt;Node15 -->
<g id="edge23" class="edge">
<title>Node1&#45;&gt;Node15</title>
<path fill="none" stroke="#191970" d="M388.8236,-344.6231C497.8985,-338.8178 910.0272,-315.9065 932.5216,-300 984.9893,-262.8984 956.2972,-221.7459 991.5216,-168 998.3497,-157.5816 1007.5363,-147.2257 1015.5767,-138.9854"/>
<polygon fill="#191970" stroke="#191970" points="1018.1853,-141.3277 1022.8198,-131.8002 1013.2555,-136.3581 1018.1853,-141.3277"/>
</g>
<!-- Node16 -->
<g id="node17" class="node">
<title>Node16</title>
<g id="a_node17"><a xlink:href="tick__conversion_8h.html" target="_top" xlink:title="xtimer tick &lt;&#45;&gt; seconds conversions for different values of XTIMER_HZ ">
<polygon fill="none" stroke="#000000" points="488.0216,-280.5 488.0216,-299.5 611.0216,-299.5 611.0216,-280.5 488.0216,-280.5"/>
<text text-anchor="middle" x="549.5216" y="-287.5" font-family="Helvetica,sans-Serif" font-size="10.00" fill="#000000">xtimer/tick_conversion.h</text>
</a>
</g>
</g>
<!-- Node1&#45;&gt;Node16 -->
<g id="edge24" class="edge">
<title>Node1&#45;&gt;Node16</title>
<path fill="none" stroke="#191970" d="M388.5232,-338.2134C419.3451,-328.9833 471.1209,-313.4783 507.6216,-302.5476"/>
<polygon fill="#191970" stroke="#191970" points="508.9059,-305.8166 517.4815,-299.5949 506.8977,-299.1109 508.9059,-305.8166"/>
</g>
<!-- Node21 -->
<g id="node22" class="node">
<title>Node21</title>
<g id="a_node22"><a xlink:href="implementation_8h.html" target="_top" xlink:title="xtimer implementation ">
<polygon fill="none" stroke="#000000" points="802.0216,-280.5 802.0216,-299.5 923.0216,-299.5 923.0216,-280.5 802.0216,-280.5"/>
<text text-anchor="middle" x="862.5216" y="-287.5" font-family="Helvetica,sans-Serif" font-size="10.00" fill="#000000">xtimer/implementation.h</text>
</a>
</g>
</g>
<!-- Node1&#45;&gt;Node21 -->
<g id="edge31" class="edge">
<title>Node1&#45;&gt;Node21</title>
<path fill="none" stroke="#191970" d="M388.799,-343.5427C454.7767,-337.2991 632.9522,-319.9822 791.9937,-300.1574"/>
<polygon fill="#191970" stroke="#191970" points="792.4698,-303.6252 801.957,-298.9089 791.5994,-296.6795 792.4698,-303.6252"/>
</g>
<!-- Node4&#45;&gt;Node3 -->
<g id="edge5" class="edge">
<title>Node4&#45;&gt;Node3</title>
<path fill="none" stroke="#191970" d="M132.3099,-226.3205C135.3968,-225.4793 138.5218,-224.6821 141.5216,-224 188.3043,-213.3618 325.0965,-192.6622 389.8172,-183.0857"/>
<polygon fill="#191970" stroke="#191970" points="390.5464,-186.5161 399.9282,-181.5934 389.5243,-179.5911 390.5464,-186.5161"/>
</g>
<!-- Node5 -->
<g id="node6" class="node">
<title>Node5</title>
<g id="a_node6"><a xlink:href="inttypes_8h.html" target="_top" xlink:title="Adds include for missing inttype definitions. ">
<polygon fill="none" stroke="#000000" points="101.0216,-168.5 101.0216,-187.5 160.0216,-187.5 160.0216,-168.5 101.0216,-168.5"/>
<text text-anchor="middle" x="130.5216" y="-175.5" font-family="Helvetica,sans-Serif" font-size="10.00" fill="#000000">inttypes.h</text>
</a>
</g>
</g>
<!-- Node4&#45;&gt;Node5 -->
<g id="edge6" class="edge">
<title>Node4&#45;&gt;Node5</title>
<path fill="none" stroke="#191970" d="M111.5279,-224.2455C114.5951,-216.7776 118.922,-206.2427 122.6713,-197.1137"/>
<polygon fill="#191970" stroke="#191970" points="125.9996,-198.2226 126.5612,-187.6427 119.5244,-195.5631 125.9996,-198.2226"/>
</g>
<!-- Node6&#45;&gt;Node3 -->
<g id="edge9" class="edge">
<title>Node6&#45;&gt;Node3</title>
<path fill="none" stroke="#191970" d="M64.7632,-226.2462C68.0325,-225.4178 71.3429,-224.6439 74.5216,-224 196.6288,-199.265 229.0412,-204.5698 352.5216,-188 364.7109,-186.3643 378.0537,-184.5248 389.9054,-182.8737"/>
<polygon fill="#191970" stroke="#191970" points="390.4508,-186.3316 399.8701,-181.4811 389.4819,-179.399 390.4508,-186.3316"/>
</g>
<!-- Node7 -->
<g id="node8" class="node">
<title>Node7</title>
<polygon fill="none" stroke="#bfbfbf" points="433.5216,-.5 433.5216,-19.5 485.5216,-19.5 485.5216,-.5 433.5216,-.5"/>
<text text-anchor="middle" x="459.5216" y="-7.5" font-family="Helvetica,sans-Serif" font-size="10.00" fill="#000000">stddef.h</text>
</g>
<!-- Node6&#45;&gt;Node7 -->
<g id="edge8" class="edge">
<title>Node6&#45;&gt;Node7</title>
<path fill="none" stroke="#191970" d="M34.7714,-224.4867C30.0118,-210.6979 23.744,-184.9575 35.5216,-168 81.8457,-101.3018 329.8965,-39.2823 423.6243,-17.8877"/>
<polygon fill="#191970" stroke="#191970" points="424.5144,-21.2748 433.4958,-15.6548 422.97,-14.4473 424.5144,-21.2748"/>
</g>
<!-- Node8 -->
<g id="node9" class="node">
<title>Node8</title>
<g id="a_node9"><a xlink:href="list_8h.html" target="_top" xlink:title="Intrusive linked list. ">
<polygon fill="none" stroke="#000000" points="44.5216,-168.5 44.5216,-187.5 82.5216,-187.5 82.5216,-168.5 44.5216,-168.5"/>
<text text-anchor="middle" x="63.5216" y="-175.5" font-family="Helvetica,sans-Serif" font-size="10.00" fill="#000000">list.h</text>
</a>
</g>
</g>
<!-- Node6&#45;&gt;Node8 -->
<g id="edge10" class="edge">
<title>Node6&#45;&gt;Node8</title>
<path fill="none" stroke="#191970" d="M42.8763,-224.2455C46.246,-216.6973 51.0146,-206.0158 55.12,-196.8197"/>
<polygon fill="#191970" stroke="#191970" points="58.3363,-198.2009 59.2169,-187.6427 51.9443,-195.3473 58.3363,-198.2009"/>
</g>
<!-- Node9&#45;&gt;Node3 -->
<g id="edge12" class="edge">
<title>Node9&#45;&gt;Node3</title>
<path fill="none" stroke="#191970" d="M333.6822,-224.2455C351.0327,-215.4125 376.8117,-202.2887 396.4799,-192.2758"/>
<polygon fill="#191970" stroke="#191970" points="398.2569,-195.2986 405.5807,-187.6427 395.0811,-189.0605 398.2569,-195.2986"/>
</g>
<!-- Node9&#45;&gt;Node5 -->
<g id="edge13" class="edge">
<title>Node9&#45;&gt;Node5</title>
<path fill="none" stroke="#191970" d="M282.8909,-224.3733C251.6964,-214.8793 203.9233,-200.3396 170.2002,-190.0761"/>
<polygon fill="#191970" stroke="#191970" points="170.8052,-186.6018 160.2193,-187.0384 168.767,-193.2985 170.8052,-186.6018"/>
</g>
<!-- Node9&#45;&gt;Node7 -->
<g id="edge15" class="edge">
<title>Node9&#45;&gt;Node7</title>
<path fill="none" stroke="#191970" d="M323.6291,-224.2536C331.7712,-215.258 343.7384,-201.3166 352.5216,-188 388.8571,-132.9101 383.8348,-110.8565 420.5216,-56 427.2443,-45.9479 435.8394,-35.6027 443.2491,-27.275"/>
<polygon fill="#191970" stroke="#191970" points="445.9994,-29.4533 450.1503,-19.7054 440.8265,-24.7372 445.9994,-29.4533"/>
</g>
<!-- Node10 -->
<g id="node11" class="node">
<title>Node10</title>
<polygon fill="none" stroke="#bfbfbf" points="890.5216,-168.5 890.5216,-187.5 938.5216,-187.5 938.5216,-168.5 890.5216,-168.5"/>
<text text-anchor="middle" x="914.5216" y="-175.5" font-family="Helvetica,sans-Serif" font-size="10.00" fill="#000000">limits.h</text>
</g>
<!-- Node9&#45;&gt;Node10 -->
<g id="edge14" class="edge">
<title>Node9&#45;&gt;Node10</title>
<path fill="none" stroke="#191970" d="M354.5861,-231.8641C463.2086,-225.901 762.5179,-208.284 880.6598,-187.7251"/>
<polygon fill="#191970" stroke="#191970" points="881.3127,-191.1639 890.5189,-185.9202 880.0521,-184.2783 881.3127,-191.1639"/>
</g>
<!-- Node11 -->
<g id="node12" class="node">
<title>Node11</title>
<polygon fill="none" stroke="#bfbfbf" points="275.5216,-168.5 275.5216,-187.5 343.5216,-187.5 343.5216,-168.5 275.5216,-168.5"/>
<text text-anchor="middle" x="309.5216" y="-175.5" font-family="Helvetica,sans-Serif" font-size="10.00" fill="#000000">sys/types.h</text>
</g>
<!-- Node9&#45;&gt;Node11 -->
<g id="edge16" class="edge">
<title>Node9&#45;&gt;Node11</title>
<path fill="none" stroke="#191970" d="M313.6507,-224.2455C312.9982,-216.9382 312.0836,-206.6944 311.281,-197.7046"/>
<polygon fill="#191970" stroke="#191970" points="314.7581,-197.2918 310.3826,-187.6427 307.7859,-197.9143 314.7581,-197.2918"/>
</g>
<!-- Node12&#45;&gt;Node3 -->
<g id="edge18" class="edge">
<title>Node12&#45;&gt;Node3</title>
<path fill="none" stroke="#191970" d="M174.0456,-280.2596C198.467,-264.0012 246.9088,-232.2955 265.5216,-224 306.6136,-205.6859 356.9109,-192.5681 389.7863,-185.1403"/>
<polygon fill="#191970" stroke="#191970" points="390.8025,-188.5004 399.8143,-182.9293 389.2952,-181.6646 390.8025,-188.5004"/>
</g>
<!-- Node12&#45;&gt;Node6 -->
<g id="edge20" class="edge">
<title>Node12&#45;&gt;Node6</title>
<path fill="none" stroke="#191970" d="M138.721,-280.3733C119.2973,-271.3838 90.0993,-257.8706 68.2252,-247.7471"/>
<polygon fill="#191970" stroke="#191970" points="69.5961,-244.5249 59.0508,-243.5011 66.656,-250.8776 69.5961,-244.5249"/>
</g>
<!-- Node12&#45;&gt;Node9 -->
<g id="edge21" class="edge">
<title>Node12&#45;&gt;Node9</title>
<path fill="none" stroke="#191970" d="M186.1671,-280.3733C211.7181,-271.1419 250.4729,-257.1402 278.7126,-246.9375"/>
<polygon fill="#191970" stroke="#191970" points="280.0082,-250.1909 288.2239,-243.5011 277.6296,-243.6074 280.0082,-250.1909"/>
</g>
<!-- Node13 -->
<g id="node14" class="node">
<title>Node13</title>
<polygon fill="none" stroke="#bfbfbf" points="150.5216,-224.5 150.5216,-243.5 218.5216,-243.5 218.5216,-224.5 150.5216,-224.5"/>
<text text-anchor="middle" x="184.5216" y="-231.5" font-family="Helvetica,sans-Serif" font-size="10.00" fill="#000000">stdatomic.h</text>
</g>
<!-- Node12&#45;&gt;Node13 -->
<g id="edge19" class="edge">
<title>Node12&#45;&gt;Node13</title>
<path fill="none" stroke="#191970" d="M163.8763,-280.2455C167.246,-272.6973 172.0146,-262.0158 176.12,-252.8197"/>
<polygon fill="#191970" stroke="#191970" points="179.3363,-254.2009 180.2169,-243.6427 172.9443,-251.3473 179.3363,-254.2009"/>
</g>
<!-- Node17 -->
<g id="node18" class="node">
<title>Node17</title>
<g id="a_node18"><a xlink:href="div_8h.html" target="_top" xlink:title="div.h">
<polygon fill="none" stroke="#000000" points="524.5216,-224.5 524.5216,-243.5 562.5216,-243.5 562.5216,-224.5 524.5216,-224.5"/>
<text text-anchor="middle" x="543.5216" y="-231.5" font-family="Helvetica,sans-Serif" font-size="10.00" fill="#000000">div.h</text>
</a>
</g>
</g>
<!-- Node16&#45;&gt;Node17 -->
<g id="edge25" class="edge">
<title>Node16&#45;&gt;Node17</title>
<path fill="none" stroke="#191970" d="M548.4765,-280.2455C547.6936,-272.9382 546.596,-262.6944 545.6328,-253.7046"/>
<polygon fill="#191970" stroke="#191970" points="549.1003,-253.2129 544.5548,-243.6427 542.1401,-253.9587 549.1003,-253.2129"/>
</g>
<!-- Node17&#45;&gt;Node3 -->
<g id="edge30" class="edge">
<title>Node17&#45;&gt;Node3</title>
<path fill="none" stroke="#191970" d="M524.4022,-225.0026C505.4015,-216.0611 475.9984,-202.2244 454.0069,-191.8754"/>
<polygon fill="#191970" stroke="#191970" points="455.3269,-188.6285 444.7884,-187.5373 452.3463,-194.9622 455.3269,-188.6285"/>
</g>
<!-- Node18 -->
<g id="node19" class="node">
<title>Node18</title>
<g id="a_node19"><a xlink:href="assert_8h.html" target="_top" xlink:title="POSIX.1&#45;2008 compliant version of the assert macro. ">
<polygon fill="none" stroke="#000000" points="490.5216,-168.5 490.5216,-187.5 542.5216,-187.5 542.5216,-168.5 490.5216,-168.5"/>
<text text-anchor="middle" x="516.5216" y="-175.5" font-family="Helvetica,sans-Serif" font-size="10.00" fill="#000000">assert.h</text>
</a>
</g>
</g>
<!-- Node17&#45;&gt;Node18 -->
<g id="edge26" class="edge">
<title>Node17&#45;&gt;Node18</title>
<path fill="none" stroke="#191970" d="M538.8186,-224.2455C535.1793,-216.6973 530.0292,-206.0158 525.5954,-196.8197"/>
<polygon fill="#191970" stroke="#191970" points="528.6665,-195.1303 521.1708,-187.6427 522.3611,-198.1704 528.6665,-195.1303"/>
</g>
<!-- Node19 -->
<g id="node20" class="node">
<title>Node19</title>
<g id="a_node20"><a xlink:href="panic_8h.html" target="_top" xlink:title="Crash handling header. ">
<polygon fill="none" stroke="#000000" points="462.5216,-112.5 462.5216,-131.5 510.5216,-131.5 510.5216,-112.5 462.5216,-112.5"/>
<text text-anchor="middle" x="486.5216" y="-119.5" font-family="Helvetica,sans-Serif" font-size="10.00" fill="#000000">panic.h</text>
</a>
</g>
</g>
<!-- Node18&#45;&gt;Node19 -->
<g id="edge27" class="edge">
<title>Node18&#45;&gt;Node19</title>
<path fill="none" stroke="#191970" d="M511.296,-168.2455C507.2093,-160.617 501.4081,-149.7881 496.4467,-140.5267"/>
<polygon fill="#191970" stroke="#191970" points="499.4948,-138.8047 491.6873,-131.6427 493.3244,-142.1103 499.4948,-138.8047"/>
</g>
<!-- Node20 -->
<g id="node21" class="node">
<title>Node20</title>
<g id="a_node21"><a xlink:href="kernel__defines_8h.html" target="_top" xlink:title="Common macros and compiler attributes/pragmas configuration. ">
<polygon fill="none" stroke="#000000" points="429.5216,-56.5 429.5216,-75.5 517.5216,-75.5 517.5216,-56.5 429.5216,-56.5"/>
<text text-anchor="middle" x="473.5216" y="-63.5" font-family="Helvetica,sans-Serif" font-size="10.00" fill="#000000">kernel_defines.h</text>
</a>
</g>
</g>
<!-- Node19&#45;&gt;Node20 -->
<g id="edge28" class="edge">
<title>Node19&#45;&gt;Node20</title>
<path fill="none" stroke="#191970" d="M484.2572,-112.2455C482.5422,-104.8579 480.1305,-94.4689 478.0272,-85.4087"/>
<polygon fill="#191970" stroke="#191970" points="481.4308,-84.5922 475.7601,-75.6427 474.6121,-86.1751 481.4308,-84.5922"/>
</g>
<!-- Node20&#45;&gt;Node7 -->
<g id="edge29" class="edge">
<title>Node20&#45;&gt;Node7</title>
<path fill="none" stroke="#191970" d="M471.083,-56.2455C469.2361,-48.8579 466.6388,-38.4689 464.3738,-29.4087"/>
<polygon fill="#191970" stroke="#191970" points="467.7532,-28.4952 461.9323,-19.6427 460.9622,-30.193 467.7532,-28.4952"/>
</g>
<!-- Node22 -->
<g id="node23" class="node">
<title>Node22</title>
<g id="a_node23"><a xlink:href="drivers_2include_2periph_2timer_8h.html" target="_top" xlink:title="Low&#45;level timer peripheral driver interface definitions. ">
<polygon fill="none" stroke="#000000" points="856.5216,-224.5 856.5216,-243.5 932.5216,-243.5 932.5216,-224.5 856.5216,-224.5"/>
<text text-anchor="middle" x="894.5216" y="-231.5" font-family="Helvetica,sans-Serif" font-size="10.00" fill="#000000">periph/timer.h</text>
</a>
</g>
</g>
<!-- Node21&#45;&gt;Node22 -->
<g id="edge32" class="edge">
<title>Node21&#45;&gt;Node22</title>
<path fill="none" stroke="#191970" d="M868.0956,-280.2455C872.4548,-272.617 878.6427,-261.7881 883.9349,-252.5267"/>
<polygon fill="#191970" stroke="#191970" points="887.0889,-254.0616 889.0115,-243.6427 881.0112,-250.5886 887.0889,-254.0616"/>
</g>
<!-- Node25 -->
<g id="node26" class="node">
<title>Node25</title>
<g id="a_node26"><a xlink:href="irq_8h.html" target="_top" xlink:title="IRQ driver interface. ">
<polygon fill="none" stroke="#000000" points="803.0216,-224.5 803.0216,-243.5 838.0216,-243.5 838.0216,-224.5 803.0216,-224.5"/>
<text text-anchor="middle" x="820.5216" y="-231.5" font-family="Helvetica,sans-Serif" font-size="10.00" fill="#000000">irq.h</text>
</a>
</g>
</g>
<!-- Node21&#45;&gt;Node25 -->
<g id="edge38" class="edge">
<title>Node21&#45;&gt;Node25</title>
<path fill="none" stroke="#191970" d="M855.2058,-280.2455C849.3037,-272.3761 840.8474,-261.101 833.7623,-251.6542"/>
<polygon fill="#191970" stroke="#191970" points="836.5537,-249.5427 827.7536,-243.6427 830.9537,-253.7427 836.5537,-249.5427"/>
</g>
<!-- Node22&#45;&gt;Node3 -->
<g id="edge34" class="edge">
<title>Node22&#45;&gt;Node3</title>
<path fill="none" stroke="#191970" d="M856.3679,-225.51C853.3819,-224.9594 850.407,-224.4474 847.5216,-224 686.0004,-198.9533 643.4671,-210.138 481.5216,-188 474.2821,-187.0104 466.5557,-185.7759 459.2033,-184.5157"/>
<polygon fill="#191970" stroke="#191970" points="459.6041,-181.0324 449.1478,-182.7397 458.3866,-187.9257 459.6041,-181.0324"/>
</g>
<!-- Node22&#45;&gt;Node10 -->
<g id="edge33" class="edge">
<title>Node22&#45;&gt;Node10</title>
<path fill="none" stroke="#191970" d="M898.0054,-224.2455C900.6725,-216.7776 904.435,-206.2427 907.6953,-197.1137"/>
<polygon fill="#191970" stroke="#191970" points="911.0105,-198.2373 911.0778,-187.6427 904.4183,-195.8829 911.0105,-198.2373"/>
</g>
<!-- Node23 -->
<g id="node24" class="node">
<title>Node23</title>
<polygon fill="none" stroke="#bfbfbf" points="1000.5216,-168.5 1000.5216,-187.5 1072.5216,-187.5 1072.5216,-168.5 1000.5216,-168.5"/>
<text text-anchor="middle" x="1036.5216" y="-175.5" font-family="Helvetica,sans-Serif" font-size="10.00" fill="#000000">periph_cpu.h</text>
</g>
<!-- Node22&#45;&gt;Node23 -->
<g id="edge35" class="edge">
<title>Node22&#45;&gt;Node23</title>
<path fill="none" stroke="#191970" d="M918.9323,-224.3733C942.1359,-215.2226 977.2254,-201.3844 1003.0359,-191.2057"/>
<polygon fill="#191970" stroke="#191970" points="1004.4108,-194.4258 1012.4295,-187.5011 1001.8427,-187.9139 1004.4108,-194.4258"/>
</g>
<!-- Node24 -->
<g id="node25" class="node">
<title>Node24</title>
<g id="a_node25"><a xlink:href="dev__enums_8h.html" target="_top" xlink:title="Device enumerations for backward compatibility with existing peripheral driver implementations. ">
<polygon fill="none" stroke="#000000" points="768.5216,-168.5 768.5216,-187.5 872.5216,-187.5 872.5216,-168.5 768.5216,-168.5"/>
<text text-anchor="middle" x="820.5216" y="-175.5" font-family="Helvetica,sans-Serif" font-size="10.00" fill="#000000">periph/dev_enums.h</text>
</a>
</g>
</g>
<!-- Node22&#45;&gt;Node24 -->
<g id="edge36" class="edge">
<title>Node22&#45;&gt;Node24</title>
<path fill="none" stroke="#191970" d="M881.6318,-224.2455C870.5963,-215.8943 854.4924,-203.7076 841.5863,-193.9408"/>
<polygon fill="#191970" stroke="#191970" points="843.3499,-190.8862 833.2637,-187.6427 839.1257,-196.4681 843.3499,-190.8862"/>
</g>
<!-- Node24&#45;&gt;Node15 -->
<g id="edge37" class="edge">
<title>Node24&#45;&gt;Node15</title>
<path fill="none" stroke="#191970" d="M857.1376,-168.3733C893.1696,-158.9001 948.3094,-144.4032 987.333,-134.1435"/>
<polygon fill="#191970" stroke="#191970" points="988.6021,-137.4289 997.3834,-131.5011 986.8221,-130.6589 988.6021,-137.4289"/>
</g>
<!-- Node25&#45;&gt;Node2 -->
<g id="edge39" class="edge">
<title>Node25&#45;&gt;Node2</title>
<path fill="none" stroke="#191970" d="M802.9252,-228.4699C798.2465,-227.008 793.1948,-225.4373 788.5216,-224 749.6927,-212.0578 705.2074,-198.6241 674.4399,-189.3719"/>
<polygon fill="#191970" stroke="#191970" points="675.1438,-185.9288 664.5595,-186.4027 673.1291,-192.6327 675.1438,-185.9288"/>
</g>
<!-- Node26 -->
<g id="node27" class="node">
<title>Node26</title>
<polygon fill="none" stroke="#bfbfbf" points="685.0216,-168.5 685.0216,-187.5 750.0216,-187.5 750.0216,-168.5 685.0216,-168.5"/>
<text text-anchor="middle" x="717.5216" y="-175.5" font-family="Helvetica,sans-Serif" font-size="10.00" fill="#000000">cpu_conf.h</text>
</g>
<!-- Node25&#45;&gt;Node26 -->
<g id="edge40" class="edge">
<title>Node25&#45;&gt;Node26</title>
<path fill="none" stroke="#191970" d="M802.5804,-224.2455C786.4816,-215.4928 762.6337,-202.527 744.2825,-192.5496"/>
<polygon fill="#191970" stroke="#191970" points="745.7145,-189.3444 735.2573,-187.6427 742.3709,-195.4942 745.7145,-189.3444"/>
</g>
<!-- Node27&#45;&gt;Node2 -->
<g id="edge43" class="edge">
<title>Node27&#45;&gt;Node2</title>
<path fill="none" stroke="#191970" d="M287.6183,-283.3293C348.9027,-264.8284 521.5597,-212.7055 598.5934,-189.45"/>
<polygon fill="#191970" stroke="#191970" points="599.8106,-192.7387 608.3723,-186.4979 597.7875,-186.0374 599.8106,-192.7387"/>
</g>
<!-- Node27&#45;&gt;Node3 -->
<g id="edge42" class="edge">
<title>Node27&#45;&gt;Node3</title>
<path fill="none" stroke="#191970" d="M287.8691,-282.3534C308.6459,-274.6101 339.8613,-261.3165 363.5216,-244 382.2899,-230.2638 399.8833,-210.1472 411.3067,-195.7376"/>
<polygon fill="#191970" stroke="#191970" points="414.2392,-197.6664 417.5774,-187.6112 408.6973,-193.39 414.2392,-197.6664"/>
</g>
<!-- Node27&#45;&gt;Node9 -->
<g id="edge44" class="edge">
<title>Node27&#45;&gt;Node9</title>
<path fill="none" stroke="#191970" d="M274.0568,-280.2455C281.0128,-272.2958 291.0099,-260.8706 299.3267,-251.3656"/>
<polygon fill="#191970" stroke="#191970" points="302.1332,-253.4732 306.0843,-243.6427 296.8652,-248.8637 302.1332,-253.4732"/>
</g>
<!-- Node28&#45;&gt;Node5 -->
<g id="edge46" class="edge">
<title>Node28&#45;&gt;Node5</title>
<path fill="none" stroke="#191970" d="M385.588,-448.37C320.9067,-419.8501 131.8828,-335.5981 74.5216,-300 40.3734,-278.8078 21.0564,-280.1627 3.5216,-244 -.3566,-236.0018 -1.5825,-231.2774 3.5216,-224 8.845,-216.4101 56.0501,-200.645 91.3645,-189.7005"/>
<polygon fill="#191970" stroke="#191970" points="92.433,-193.0338 100.9649,-186.7522 90.378,-186.3422 92.433,-193.0338"/>
</g>
<!-- Node28&#45;&gt;Node6 -->
<g id="edge47" class="edge">
<title>Node28&#45;&gt;Node6</title>
<path fill="none" stroke="#191970" d="M369.8887,-448.4897C303.1415,-429.9732 162.763,-383.4058 74.5216,-300 60.7826,-287.0138 51.066,-267.5945 45.2184,-253.1788"/>
<polygon fill="#191970" stroke="#191970" points="48.4553,-251.8434 41.6419,-243.7299 41.9085,-254.3214 48.4553,-251.8434"/>
</g>
<!-- Node29 -->
<g id="node30" class="node">
<title>Node29</title>
<g id="a_node30"><a xlink:href="drivers_2include_2net_2netdev_8h.html" target="_top" xlink:title="Definitions low&#45;level network driver interface. ">
<polygon fill="none" stroke="#000000" points="726.0216,-336.5 726.0216,-355.5 797.0216,-355.5 797.0216,-336.5 726.0216,-336.5"/>
<text text-anchor="middle" x="761.5216" y="-343.5" font-family="Helvetica,sans-Serif" font-size="10.00" fill="#000000">net/netdev.h</text>
</a>
</g>
</g>
<!-- Node28&#45;&gt;Node29 -->
<g id="edge48" class="edge">
<title>Node28&#45;&gt;Node29</title>
<path fill="none" stroke="#191970" d="M437.7035,-448.4509C501.5796,-428.2415 650.4175,-381.1516 721.8651,-358.5467"/>
<polygon fill="#191970" stroke="#191970" points="722.9378,-361.8784 731.4162,-355.5249 720.8262,-355.2045 722.9378,-361.8784"/>
</g>
<!-- Node34 -->
<g id="node35" class="node">
<title>Node34</title>
<g id="a_node35"><a xlink:href="loramac_8h.html" target="_top" xlink:title="LoRaMAC header definitions. ">
<polygon fill="none" stroke="#000000" points="421.5216,-392.5 421.5216,-411.5 497.5216,-411.5 497.5216,-392.5 421.5216,-392.5"/>
<text text-anchor="middle" x="459.5216" y="-399.5" font-family="Helvetica,sans-Serif" font-size="10.00" fill="#000000">net/loramac.h</text>
</a>
</g>
</g>
<!-- Node28&#45;&gt;Node34 -->
<g id="edge54" class="edge">
<title>Node28&#45;&gt;Node34</title>
<path fill="none" stroke="#191970" d="M416.5793,-448.2455C424.0358,-440.2155 434.785,-428.6394 443.6633,-419.0781"/>
<polygon fill="#191970" stroke="#191970" points="446.328,-421.3522 450.5677,-411.6427 441.1984,-416.589 446.328,-421.3522"/>
</g>
<!-- Node37 -->
<g id="node38" class="node">
<title>Node37</title>
<g id="a_node38"><a xlink:href="sx127x_8h.html" target="_top" xlink:title="Public interface for SX127X driver. ">
<polygon fill="none" stroke="#000000" points="733.5216,-392.5 733.5216,-411.5 789.5216,-411.5 789.5216,-392.5 733.5216,-392.5"/>
<text text-anchor="middle" x="761.5216" y="-399.5" font-family="Helvetica,sans-Serif" font-size="10.00" fill="#000000">sx127x.h</text>
</a>
</g>
</g>
<!-- Node28&#45;&gt;Node37 -->
<g id="edge59" class="edge">
<title>Node28&#45;&gt;Node37</title>
<path fill="none" stroke="#191970" d="M458.6182,-449.9169C530.2611,-438.5836 658.9622,-418.2241 723.0628,-408.0839"/>
<polygon fill="#191970" stroke="#191970" points="723.8164,-411.5083 733.1466,-406.4887 722.7226,-404.5943 723.8164,-411.5083"/>
</g>
<!-- Node29&#45;&gt;Node3 -->
<g id="edge49" class="edge">
<title>Node29&#45;&gt;Node3</title>
<path fill="none" stroke="#191970" d="M753.2538,-336.4674C740.8988,-322.6545 716.3978,-296.8843 691.5216,-280 616.4634,-229.0554 512.4471,-198.8556 459.1075,-185.7519"/>
<polygon fill="#191970" stroke="#191970" points="459.6798,-182.2899 449.1389,-183.358 458.0452,-189.0964 459.6798,-182.2899"/>
</g>
<!-- Node30 -->
<g id="node31" class="node">
<title>Node30</title>
<g id="a_node31"><a xlink:href="errno_8h.html" target="_top" xlink:title="errno.h">
<polygon fill="none" stroke="#000000" points="1066.0216,-280.5 1066.0216,-299.5 1113.0216,-299.5 1113.0216,-280.5 1066.0216,-280.5"/>
<text text-anchor="middle" x="1089.5216" y="-287.5" font-family="Helvetica,sans-Serif" font-size="10.00" fill="#000000">errno.h</text>
</a>
</g>
</g>
<!-- Node29&#45;&gt;Node30 -->
<g id="edge50" class="edge">
<title>Node29&#45;&gt;Node30</title>
<path fill="none" stroke="#191970" d="M797.2451,-342.0623C851.2374,-335.7572 956.9471,-322.0353 1055.9671,-299.8539"/>
<polygon fill="#191970" stroke="#191970" points="1056.8598,-303.2404 1065.8347,-297.6099 1055.3075,-296.4147 1056.8598,-303.2404"/>
</g>
<!-- Node31 -->
<g id="node32" class="node">
<title>Node31</title>
<g id="a_node32"><a xlink:href="iolist_8h.html" target="_top" xlink:title="iolist scatter / gather IO ">
<polygon fill="none" stroke="#000000" points="739.0216,-280.5 739.0216,-299.5 784.0216,-299.5 784.0216,-280.5 739.0216,-280.5"/>
<text text-anchor="middle" x="761.5216" y="-287.5" font-family="Helvetica,sans-Serif" font-size="10.00" fill="#000000">iolist.h</text>
</a>
</g>
</g>
<!-- Node29&#45;&gt;Node31 -->
<g id="edge51" class="edge">
<title>Node29&#45;&gt;Node31</title>
<path fill="none" stroke="#191970" d="M761.5216,-336.2455C761.5216,-328.9382 761.5216,-318.6944 761.5216,-309.7046"/>
<polygon fill="#191970" stroke="#191970" points="765.0217,-309.6426 761.5216,-299.6427 758.0217,-309.6427 765.0217,-309.6426"/>
</g>
<!-- Node33 -->
<g id="node34" class="node">
<title>Node33</title>
<g id="a_node34"><a xlink:href="netopt_8h.html" target="_top" xlink:title="Definition of global configuration options. ">
<polygon fill="none" stroke="#000000" points="979.5216,-280.5 979.5216,-299.5 1047.5216,-299.5 1047.5216,-280.5 979.5216,-280.5"/>
<text text-anchor="middle" x="1013.5216" y="-287.5" font-family="Helvetica,sans-Serif" font-size="10.00" fill="#000000">net/netopt.h</text>
</a>
</g>
</g>
<!-- Node29&#45;&gt;Node33 -->
<g id="edge53" class="edge">
<title>Node29&#45;&gt;Node33</title>
<path fill="none" stroke="#191970" d="M797.0926,-338.0953C842.311,-328.0468 920.3708,-310.7002 969.3535,-299.8151"/>
<polygon fill="#191970" stroke="#191970" points="970.3396,-303.1815 979.3422,-297.5954 968.8211,-296.3481 970.3396,-303.1815"/>
</g>
<!-- Node32 -->
<g id="node33" class="node">
<title>Node32</title>
<polygon fill="none" stroke="#bfbfbf" points="657.0216,-224.5 657.0216,-243.5 708.0216,-243.5 708.0216,-224.5 657.0216,-224.5"/>
<text text-anchor="middle" x="682.5216" y="-231.5" font-family="Helvetica,sans-Serif" font-size="10.00" fill="#000000">unistd.h</text>
</g>
<!-- Node31&#45;&gt;Node32 -->
<g id="edge52" class="edge">
<title>Node31&#45;&gt;Node32</title>
<path fill="none" stroke="#191970" d="M747.7609,-280.2455C735.8664,-271.814 718.4566,-259.4729 704.6131,-249.6598"/>
<polygon fill="#191970" stroke="#191970" points="706.307,-246.5704 696.1247,-243.6427 702.2588,-252.2811 706.307,-246.5704"/>
</g>
<!-- Node34&#45;&gt;Node3 -->
<g id="edge55" class="edge">
<title>Node34&#45;&gt;Node3</title>
<path fill="none" stroke="#191970" d="M458.4185,-392.3124C455.3066,-365.4691 445.9377,-287.8968 434.5216,-224 432.98,-215.3715 430.975,-205.899 429.1653,-197.8042"/>
<polygon fill="#191970" stroke="#191970" points="432.5248,-196.7946 426.8807,-187.8283 425.7015,-198.3573 432.5248,-196.7946"/>
</g>
<!-- Node35 -->
<g id="node36" class="node">
<title>Node35</title>
<g id="a_node36"><a xlink:href="stdlib_8h.html" target="_top" xlink:title="stdlib.h wrapper for MSP430 ">
<polygon fill="none" stroke="#000000" points="631.5216,-336.5 631.5216,-355.5 679.5216,-355.5 679.5216,-336.5 631.5216,-336.5"/>
<text text-anchor="middle" x="655.5216" y="-343.5" font-family="Helvetica,sans-Serif" font-size="10.00" fill="#000000">stdlib.h</text>
</a>
</g>
</g>
<!-- Node34&#45;&gt;Node35 -->
<g id="edge56" class="edge">
<title>Node34&#45;&gt;Node35</title>
<path fill="none" stroke="#191970" d="M493.2152,-392.3733C529.0778,-382.1268 585.5106,-366.0031 621.4986,-355.7209"/>
<polygon fill="#191970" stroke="#191970" points="622.8651,-358.9706 631.5188,-352.8579 620.942,-352.2399 622.8651,-358.9706"/>
</g>
<!-- Node36 -->
<g id="node37" class="node">
<title>Node36</title>
<g id="a_node37"><a xlink:href="malloc_8h.html" target="_top" xlink:title="malloc.h">
<polygon fill="none" stroke="#000000" points="629.0216,-280.5 629.0216,-299.5 682.0216,-299.5 682.0216,-280.5 629.0216,-280.5"/>
<text text-anchor="middle" x="655.5216" y="-287.5" font-family="Helvetica,sans-Serif" font-size="10.00" fill="#000000">malloc.h</text>
</a>
</g>
</g>
<!-- Node35&#45;&gt;Node36 -->
<g id="edge57" class="edge">
<title>Node35&#45;&gt;Node36</title>
<path fill="none" stroke="#191970" d="M650.2548,-336.2455C648.8437,-328.9382 648.4395,-318.6944 649.0421,-309.7046"/>
<polygon fill="#191970" stroke="#191970" points="652.5327,-309.9945 650.2765,-299.6427 645.5848,-309.1421 652.5327,-309.9945"/>
</g>
<!-- Node36&#45;&gt;Node35 -->
<g id="edge58" class="edge">
<title>Node36&#45;&gt;Node35</title>
<path fill="none" stroke="#191970" d="M660.7668,-299.6427C662.1881,-306.9199 662.6026,-317.155 662.0103,-326.1575"/>
<polygon fill="#191970" stroke="#191970" points="658.5163,-325.8972 660.7885,-336.2455 665.4655,-326.739 658.5163,-325.8972"/>
</g>
<!-- Node37&#45;&gt;Node1 -->
<g id="edge60" class="edge">
<title>Node37&#45;&gt;Node1</title>
<path fill="none" stroke="#191970" d="M733.4647,-398.0622C662.7586,-388.1385 477.3175,-362.1117 398.6437,-351.0698"/>
<polygon fill="#191970" stroke="#191970" points="399.102,-347.5999 388.7126,-349.6759 398.129,-354.5319 399.102,-347.5999"/>
</g>
<!-- Node37&#45;&gt;Node29 -->
<g id="edge61" class="edge">
<title>Node37&#45;&gt;Node29</title>
<path fill="none" stroke="#191970" d="M761.5216,-392.2455C761.5216,-384.9382 761.5216,-374.6944 761.5216,-365.7046"/>
<polygon fill="#191970" stroke="#191970" points="765.0217,-365.6426 761.5216,-355.6427 758.0217,-365.6427 765.0217,-365.6426"/>
</g>
<!-- Node38 -->
<g id="node39" class="node">
<title>Node38</title>
<g id="a_node39"><a xlink:href="gpio_8h.html" target="_top" xlink:title="Low&#45;level GPIO peripheral driver interface definitions. ">
<polygon fill="none" stroke="#000000" points="1064.5216,-224.5 1064.5216,-243.5 1136.5216,-243.5 1136.5216,-224.5 1064.5216,-224.5"/>
<text text-anchor="middle" x="1100.5216" y="-231.5" font-family="Helvetica,sans-Serif" font-size="10.00" fill="#000000">periph/gpio.h</text>
</a>
</g>
</g>
<!-- Node37&#45;&gt;Node38 -->
<g id="edge62" class="edge">
<title>Node37&#45;&gt;Node38</title>
<path fill="none" stroke="#191970" d="M789.6677,-400.0345C879.2654,-393.1345 1155.0404,-366.7241 1207.5216,-300 1228.5167,-273.3071 1184.4629,-254.6804 1146.6771,-244.1755"/>
<polygon fill="#191970" stroke="#191970" points="1147.3106,-240.7229 1136.7484,-241.5539 1145.5235,-247.4909 1147.3106,-240.7229"/>
</g>
<!-- Node39 -->
<g id="node40" class="node">
<title>Node39</title>
<g id="a_node40"><a xlink:href="spi_8h.html" target="_top" xlink:title="Low&#45;level SPI peripheral driver interface definition. ">
<polygon fill="none" stroke="#000000" points="1131.0216,-280.5 1131.0216,-299.5 1198.0216,-299.5 1198.0216,-280.5 1131.0216,-280.5"/>
<text text-anchor="middle" x="1164.5216" y="-287.5" font-family="Helvetica,sans-Serif" font-size="10.00" fill="#000000">periph/spi.h</text>
</a>
</g>
</g>
<!-- Node37&#45;&gt;Node39 -->
<g id="edge66" class="edge">
<title>Node37&#45;&gt;Node39</title>
<path fill="none" stroke="#191970" d="M789.5398,-394.2133C858.6804,-374.9981 1037.824,-325.2112 1120.9572,-302.1072"/>
<polygon fill="#191970" stroke="#191970" points="1122.1458,-305.4096 1130.8434,-299.3597 1120.2714,-298.6652 1122.1458,-305.4096"/>
</g>
<!-- Node38&#45;&gt;Node10 -->
<g id="edge63" class="edge">
<title>Node38&#45;&gt;Node10</title>
<path fill="none" stroke="#191970" d="M1068.5471,-224.3733C1035.131,-214.3125 982.8951,-198.5856 948.6843,-188.2855"/>
<polygon fill="#191970" stroke="#191970" points="949.2711,-184.8071 938.6866,-185.2755 947.253,-191.5099 949.2711,-184.8071"/>
</g>
<!-- Node38&#45;&gt;Node15 -->
<g id="edge65" class="edge">
<title>Node38&#45;&gt;Node15</title>
<path fill="none" stroke="#191970" d="M1099.3616,-224.4118C1097.3955,-210.9782 1092.4971,-186.166 1081.5216,-168 1074.597,-156.5387 1064.0905,-146.0182 1054.6708,-137.9397"/>
<polygon fill="#191970" stroke="#191970" points="1056.7501,-135.119 1046.7901,-131.5068 1052.3236,-140.5418 1056.7501,-135.119"/>
</g>
<!-- Node38&#45;&gt;Node23 -->
<g id="edge64" class="edge">
<title>Node38&#45;&gt;Node23</title>
<path fill="none" stroke="#191970" d="M1089.3737,-224.2455C1080.013,-216.0549 1066.4358,-204.1749 1055.3867,-194.5069"/>
<polygon fill="#191970" stroke="#191970" points="1057.3724,-191.5937 1047.5418,-187.6427 1052.7628,-196.8618 1057.3724,-191.5937"/>
</g>
<!-- Node39&#45;&gt;Node2 -->
<g id="edge67" class="edge">
<title>Node39&#45;&gt;Node2</title>
<path fill="none" stroke="#191970" d="M1130.6705,-281.5581C1127.922,-280.9894 1125.1804,-280.4606 1122.5216,-280 978.0206,-254.9676 935.9407,-282.8304 794.5216,-244 773.8073,-238.3123 770.2642,-232.4654 750.5216,-224 723.8667,-212.5706 693.3878,-200.3136 670.6552,-191.3282"/>
<polygon fill="#191970" stroke="#191970" points="671.6965,-187.9766 661.1095,-187.5673 669.1305,-194.4894 671.6965,-187.9766"/>
</g>
<!-- Node39&#45;&gt;Node3 -->
<g id="edge69" class="edge">
<title>Node39&#45;&gt;Node3</title>
<path fill="none" stroke="#191970" d="M1130.6769,-281.5203C1127.927,-280.96 1125.1833,-280.4435 1122.5216,-280 958.6748,-252.699 908.1601,-296.3568 750.5216,-244 734.2458,-238.5943 733.6429,-229.8504 717.5216,-224 617.7839,-187.8053 586.2256,-205.1683 481.5216,-188 474.3111,-186.8177 466.5972,-185.5001 459.2478,-184.2195"/>
<polygon fill="#191970" stroke="#191970" points="459.646,-180.7359 449.1911,-182.4516 458.434,-187.6302 459.646,-180.7359"/>
</g>
<!-- Node39&#45;&gt;Node7 -->
<g id="edge68" class="edge">
<title>Node39&#45;&gt;Node7</title>
<path fill="none" stroke="#191970" d="M1170.1287,-280.4834C1180.699,-261.6141 1202.5216,-217.8343 1202.5216,-178 1202.5216,-178 1202.5216,-178 1202.5216,-122 1202.5216,-49.6973 645.2746,-18.6267 495.9581,-11.599"/>
<polygon fill="#191970" stroke="#191970" points="495.6809,-8.0825 485.5297,-11.1163 495.3572,-15.075 495.6809,-8.0825"/>
</g>
<!-- Node39&#45;&gt;Node10 -->
<g id="edge70" class="edge">
<title>Node39&#45;&gt;Node10</title>
<path fill="none" stroke="#191970" d="M1135.2896,-280.4765C1109.6746,-271.8411 1071.6269,-258.3068 1039.5216,-244 1004.1416,-228.2338 964.8722,-206.8203 939.9584,-192.7162"/>
<polygon fill="#191970" stroke="#191970" points="941.5719,-189.6073 931.1509,-187.6957 938.1052,-195.6886 941.5719,-189.6073"/>
</g>
<!-- Node39&#45;&gt;Node15 -->
<g id="edge72" class="edge">
<title>Node39&#45;&gt;Node15</title>
<path fill="none" stroke="#191970" d="M1162.9757,-280.1344C1160.6051,-266.805 1155.2865,-242.5754 1145.5216,-224 1130.5343,-195.4901 1123.1784,-189.8584 1099.5216,-168 1087.0571,-156.483 1071.5562,-145.5358 1058.7094,-137.2122"/>
<polygon fill="#191970" stroke="#191970" points="1060.2277,-134.0313 1049.9053,-131.6443 1056.4862,-139.9474 1060.2277,-134.0313"/>
</g>
<!-- Node39&#45;&gt;Node23 -->
<g id="edge71" class="edge">
<title>Node39&#45;&gt;Node23</title>
<path fill="none" stroke="#191970" d="M1134.1019,-280.4523C1105.7832,-270.9999 1066.3607,-256.2128 1055.5216,-244 1044.2801,-231.3337 1039.6639,-212.4065 1037.7818,-198.0644"/>
<polygon fill="#191970" stroke="#191970" points="1041.2309,-197.3691 1036.7841,-187.7526 1034.2635,-198.0432 1041.2309,-197.3691"/>
</g>
<!-- Node39&#45;&gt;Node38 -->
<g id="edge73" class="edge">
<title>Node39&#45;&gt;Node38</title>
<path fill="none" stroke="#191970" d="M1153.3737,-280.2455C1144.013,-272.0549 1130.4358,-260.1749 1119.3867,-250.5069"/>
<polygon fill="#191970" stroke="#191970" points="1121.3724,-247.5937 1111.5418,-243.6427 1116.7628,-252.8618 1121.3724,-247.5937"/>
</g>
</g>
</svg>
