<?xml version="1.0" encoding="UTF-8" standalone="no"?>
<!DOCTYPE svg PUBLIC "-//W3C//DTD SVG 1.1//EN"
 "http://www.w3.org/Graphics/SVG/1.1/DTD/svg11.dtd">
<!-- Generated by graphviz version 2.43.0 (0)
 -->
<!-- Title: sys/include/net/gnrc/pktqueue.h Pages: 1 -->
<svg width="752pt" height="319pt"
 viewBox="0.00 0.00 751.50 319.00" xmlns="http://www.w3.org/2000/svg" xmlns:xlink="http://www.w3.org/1999/xlink">
<g id="graph0" class="graph" transform="scale(1 1) rotate(0) translate(4 315)">
<title>sys/include/net/gnrc/pktqueue.h</title>
<!-- Node1 -->
<g id="node1" class="node">
<title>Node1</title>
<g id="a_node1"><a xlink:title="Packet queue definitions.">
<polygon fill="#bfbfbf" stroke="black" points="243,-280.5 243,-310.5 357,-310.5 357,-280.5 243,-280.5"/>
<text text-anchor="start" x="251" y="-298.5" font-family="Helvetica,sans-Serif" font-size="10.00">sys/include/net/gnrc</text>
<text text-anchor="middle" x="300" y="-287.5" font-family="Helvetica,sans-Serif" font-size="10.00">/pktqueue.h</text>
</a>
</g>
</g>
<!-- Node2 -->
<g id="node2" class="node">
<title>Node2</title>
<g id="a_node2"><a xlink:title=" ">
<polygon fill="none" stroke="#bfbfbf" points="12.5,-0.5 12.5,-19.5 65.5,-19.5 65.5,-0.5 12.5,-0.5"/>
<text text-anchor="middle" x="39" y="-7.5" font-family="Helvetica,sans-Serif" font-size="10.00">stdint.h</text>
</a>
</g>
</g>
<!-- Node1&#45;&gt;Node2 -->
<g id="edge1" class="edge">
<title>Node1&#45;&gt;Node2</title>
<path fill="none" stroke="midnightblue" d="M242.87,-284.55C155.82,-267.75 0,-230.48 0,-179 0,-179 0,-179 0,-121 0,-86.72 17.04,-49.7 28.59,-28.54"/>
<polygon fill="midnightblue" stroke="midnightblue" points="31.69,-30.17 33.58,-19.75 25.6,-26.72 31.69,-30.17"/>
</g>
<!-- Node3 -->
<g id="node3" class="node">
<title>Node3</title>
<g id="a_node3"><a xlink:title=" ">
<polygon fill="none" stroke="#bfbfbf" points="690.5,-112.5 690.5,-131.5 743.5,-131.5 743.5,-112.5 690.5,-112.5"/>
<text text-anchor="middle" x="717" y="-119.5" font-family="Helvetica,sans-Serif" font-size="10.00">stdlib.h</text>
</a>
</g>
</g>
<!-- Node1&#45;&gt;Node3 -->
<g id="edge2" class="edge">
<title>Node1&#45;&gt;Node3</title>
<path fill="none" stroke="midnightblue" d="M334.12,-280.47C413.8,-247.7 611.04,-166.58 686.75,-135.44"/>
<polygon fill="midnightblue" stroke="midnightblue" points="688.27,-138.6 696.19,-131.56 685.61,-132.13 688.27,-138.6"/>
</g>
<!-- Node4 -->
<g id="node4" class="node">
<title>Node4</title>
<g id="a_node4"><a xlink:href="net_2gnrc_2pkt_8h.html" target="_top" xlink:title="General definitions for network packets and their helper functions.">
<polygon fill="none" stroke="black" points="385,-168.5 385,-187.5 469,-187.5 469,-168.5 385,-168.5"/>
<text text-anchor="middle" x="427" y="-175.5" font-family="Helvetica,sans-Serif" font-size="10.00">net/gnrc/pkt.h</text>
</a>
</g>
</g>
<!-- Node1&#45;&gt;Node4 -->
<g id="edge3" class="edge">
<title>Node1&#45;&gt;Node4</title>
<path fill="none" stroke="midnightblue" d="M315.57,-280.34C339.5,-258.58 385.11,-217.09 409.92,-194.54"/>
<polygon fill="midnightblue" stroke="midnightblue" points="412.42,-196.99 417.47,-187.67 407.71,-191.81 412.42,-196.99"/>
</g>
<!-- Node15 -->
<g id="node15" class="node">
<title>Node15</title>
<g id="a_node15"><a xlink:href="utlist_8h.html" target="_top" xlink:title="Macros for basic linked list operations.">
<polygon fill="none" stroke="black" points="120,-224.5 120,-243.5 170,-243.5 170,-224.5 120,-224.5"/>
<text text-anchor="middle" x="145" y="-231.5" font-family="Helvetica,sans-Serif" font-size="10.00">utlist.h</text>
</a>
</g>
</g>
<!-- Node1&#45;&gt;Node15 -->
<g id="edge22" class="edge">
<title>Node1&#45;&gt;Node15</title>
<path fill="none" stroke="midnightblue" d="M263.27,-280.4C237.03,-270.33 202.07,-256.91 176.98,-247.28"/>
<polygon fill="midnightblue" stroke="midnightblue" points="178.14,-243.97 167.55,-243.66 175.64,-250.51 178.14,-243.97"/>
</g>
<!-- Node4&#45;&gt;Node3 -->
<g id="edge5" class="edge">
<title>Node4&#45;&gt;Node3</title>
<path fill="none" stroke="midnightblue" d="M469.39,-169.84C519.01,-161.33 603.63,-146.48 676,-132 677.29,-131.74 678.59,-131.48 679.91,-131.21"/>
<polygon fill="midnightblue" stroke="midnightblue" points="681.06,-134.54 690.12,-129.05 679.62,-127.69 681.06,-134.54"/>
</g>
<!-- Node5 -->
<g id="node5" class="node">
<title>Node5</title>
<g id="a_node5"><a xlink:href="inttypes_8h.html" target="_top" xlink:title="Adds include for missing inttype definitions.">
<polygon fill="none" stroke="black" points="354.5,-56.5 354.5,-75.5 419.5,-75.5 419.5,-56.5 354.5,-56.5"/>
<text text-anchor="middle" x="387" y="-63.5" font-family="Helvetica,sans-Serif" font-size="10.00">inttypes.h</text>
</a>
</g>
</g>
<!-- Node4&#45;&gt;Node5 -->
<g id="edge4" class="edge">
<title>Node4&#45;&gt;Node5</title>
<path fill="none" stroke="midnightblue" d="M422.41,-168.21C417.85,-159.26 410.87,-144.91 406,-132 400.17,-116.53 395.01,-98.44 391.55,-85.28"/>
<polygon fill="midnightblue" stroke="midnightblue" points="394.93,-84.37 389.06,-75.55 388.14,-86.1 394.93,-84.37"/>
</g>
<!-- Node6 -->
<g id="node6" class="node">
<title>Node6</title>
<g id="a_node6"><a xlink:href="sched_8h.html" target="_top" xlink:title="Scheduler API definition.">
<polygon fill="none" stroke="black" points="221,-112.5 221,-131.5 275,-131.5 275,-112.5 221,-112.5"/>
<text text-anchor="middle" x="248" y="-119.5" font-family="Helvetica,sans-Serif" font-size="10.00">sched.h</text>
</a>
</g>
</g>
<!-- Node4&#45;&gt;Node6 -->
<g id="edge6" class="edge">
<title>Node4&#45;&gt;Node6</title>
<path fill="none" stroke="midnightblue" d="M398.64,-168.44C367.9,-159.17 318.75,-144.34 285,-134.16"/>
<polygon fill="midnightblue" stroke="midnightblue" points="285.64,-130.7 275.06,-131.16 283.62,-137.4 285.64,-130.7"/>
</g>
<!-- Node11 -->
<g id="node11" class="node">
<title>Node11</title>
<g id="a_node11"><a xlink:href="list_8h.html" target="_top" xlink:title="Intrusive linked list.">
<polygon fill="none" stroke="black" points="420.5,-0.5 420.5,-19.5 461.5,-19.5 461.5,-0.5 420.5,-0.5"/>
<text text-anchor="middle" x="441" y="-7.5" font-family="Helvetica,sans-Serif" font-size="10.00">list.h</text>
</a>
</g>
</g>
<!-- Node4&#45;&gt;Node11 -->
<g id="edge21" class="edge">
<title>Node4&#45;&gt;Node11</title>
<path fill="none" stroke="midnightblue" d="M469.38,-171.06C520.86,-161.3 605.46,-136.5 643,-76 647.69,-68.45 648.56,-62.94 643,-56 621.91,-29.7 523.2,-17.78 472,-13.29"/>
<polygon fill="midnightblue" stroke="midnightblue" points="472.09,-9.78 461.84,-12.44 471.51,-16.76 472.09,-9.78"/>
</g>
<!-- Node12 -->
<g id="node12" class="node">
<title>Node12</title>
<g id="a_node12"><a xlink:href="nettype_8h.html" target="_top" xlink:title="Protocol type definitions.">
<polygon fill="none" stroke="black" points="415,-112.5 415,-131.5 521,-131.5 521,-112.5 415,-112.5"/>
<text text-anchor="middle" x="468" y="-119.5" font-family="Helvetica,sans-Serif" font-size="10.00">net/gnrc/nettype.h</text>
</a>
</g>
</g>
<!-- Node4&#45;&gt;Node12 -->
<g id="edge16" class="edge">
<title>Node4&#45;&gt;Node12</title>
<path fill="none" stroke="midnightblue" d="M433.77,-168.08C439.56,-160.46 448.06,-149.26 455.14,-139.94"/>
<polygon fill="midnightblue" stroke="midnightblue" points="458.1,-141.83 461.36,-131.75 452.52,-137.6 458.1,-141.83"/>
</g>
<!-- Node6&#45;&gt;Node5 -->
<g id="edge8" class="edge">
<title>Node6&#45;&gt;Node5</title>
<path fill="none" stroke="midnightblue" d="M270.02,-112.44C293.1,-103.48 329.56,-89.31 355.64,-79.18"/>
<polygon fill="midnightblue" stroke="midnightblue" points="357.02,-82.4 365.08,-75.52 354.49,-75.88 357.02,-82.4"/>
</g>
<!-- Node7 -->
<g id="node7" class="node">
<title>Node7</title>
<g id="a_node7"><a xlink:title=" ">
<polygon fill="none" stroke="#bfbfbf" points="126,-0.5 126,-19.5 182,-19.5 182,-0.5 126,-0.5"/>
<text text-anchor="middle" x="154" y="-7.5" font-family="Helvetica,sans-Serif" font-size="10.00">stddef.h</text>
</a>
</g>
</g>
<!-- Node6&#45;&gt;Node7 -->
<g id="edge7" class="edge">
<title>Node6&#45;&gt;Node7</title>
<path fill="none" stroke="midnightblue" d="M224.82,-112.48C208.12,-105.22 186.27,-93.19 173,-76 162.68,-62.63 157.96,-43.81 155.81,-29.86"/>
<polygon fill="midnightblue" stroke="midnightblue" points="159.28,-29.4 154.57,-19.91 152.33,-30.26 159.28,-29.4"/>
</g>
<!-- Node8 -->
<g id="node8" class="node">
<title>Node8</title>
<g id="a_node8"><a xlink:href="kernel__defines_8h.html" target="_top" xlink:title="Common macros and compiler attributes/pragmas configuration.">
<polygon fill="none" stroke="black" points="28.5,-56.5 28.5,-75.5 125.5,-75.5 125.5,-56.5 28.5,-56.5"/>
<text text-anchor="middle" x="77" y="-63.5" font-family="Helvetica,sans-Serif" font-size="10.00">kernel_defines.h</text>
</a>
</g>
</g>
<!-- Node6&#45;&gt;Node8 -->
<g id="edge9" class="edge">
<title>Node6&#45;&gt;Node8</title>
<path fill="none" stroke="midnightblue" d="M220.9,-112.44C192.01,-103.32 146.08,-88.81 113.89,-78.65"/>
<polygon fill="midnightblue" stroke="midnightblue" points="114.56,-75.19 103.97,-75.52 112.45,-81.87 114.56,-75.19"/>
</g>
<!-- Node9 -->
<g id="node9" class="node">
<title>Node9</title>
<g id="a_node9"><a xlink:href="native__sched_8h.html" target="_top" xlink:title="Add definitions required on the native board.">
<polygon fill="none" stroke="black" points="246,-56.5 246,-75.5 336,-75.5 336,-56.5 246,-56.5"/>
<text text-anchor="middle" x="291" y="-63.5" font-family="Helvetica,sans-Serif" font-size="10.00">native_sched.h</text>
</a>
</g>
</g>
<!-- Node6&#45;&gt;Node9 -->
<g id="edge12" class="edge">
<title>Node6&#45;&gt;Node9</title>
<path fill="none" stroke="midnightblue" d="M255.1,-112.08C261.24,-104.38 270.27,-93.03 277.74,-83.65"/>
<polygon fill="midnightblue" stroke="midnightblue" points="280.54,-85.75 284.03,-75.75 275.06,-81.39 280.54,-85.75"/>
</g>
<!-- Node10 -->
<g id="node10" class="node">
<title>Node10</title>
<g id="a_node10"><a xlink:href="clist_8h.html" target="_top" xlink:title="Circular linked list.">
<polygon fill="none" stroke="black" points="182,-56.5 182,-75.5 228,-75.5 228,-56.5 182,-56.5"/>
<text text-anchor="middle" x="205" y="-63.5" font-family="Helvetica,sans-Serif" font-size="10.00">clist.h</text>
</a>
</g>
</g>
<!-- Node6&#45;&gt;Node10 -->
<g id="edge13" class="edge">
<title>Node6&#45;&gt;Node10</title>
<path fill="none" stroke="midnightblue" d="M240.9,-112.08C234.76,-104.38 225.73,-93.03 218.26,-83.65"/>
<polygon fill="midnightblue" stroke="midnightblue" points="220.94,-81.39 211.97,-75.75 215.46,-85.75 220.94,-81.39"/>
</g>
<!-- Node8&#45;&gt;Node2 -->
<g id="edge11" class="edge">
<title>Node8&#45;&gt;Node2</title>
<path fill="none" stroke="midnightblue" d="M70.73,-56.08C65.36,-48.46 57.48,-37.26 50.92,-27.94"/>
<polygon fill="midnightblue" stroke="midnightblue" points="53.78,-25.91 45.16,-19.75 48.05,-29.94 53.78,-25.91"/>
</g>
<!-- Node8&#45;&gt;Node7 -->
<g id="edge10" class="edge">
<title>Node8&#45;&gt;Node7</title>
<path fill="none" stroke="midnightblue" d="M89.37,-56.32C101.16,-48.06 119.13,-35.45 133.14,-25.63"/>
<polygon fill="midnightblue" stroke="midnightblue" points="135.48,-28.26 141.66,-19.65 131.46,-22.53 135.48,-28.26"/>
</g>
<!-- Node10&#45;&gt;Node7 -->
<g id="edge14" class="edge">
<title>Node10&#45;&gt;Node7</title>
<path fill="none" stroke="midnightblue" d="M196.58,-56.08C189.15,-48.22 178.15,-36.57 169.19,-27.08"/>
<polygon fill="midnightblue" stroke="midnightblue" points="171.68,-24.62 162.26,-19.75 166.59,-29.42 171.68,-24.62"/>
</g>
<!-- Node10&#45;&gt;Node11 -->
<g id="edge15" class="edge">
<title>Node10&#45;&gt;Node11</title>
<path fill="none" stroke="midnightblue" d="M228.03,-58.35C231.04,-57.53 234.09,-56.73 237,-56 298.2,-40.66 370.42,-25.39 410.43,-17.18"/>
<polygon fill="midnightblue" stroke="midnightblue" points="411.25,-20.58 420.35,-15.15 409.85,-13.72 411.25,-20.58"/>
</g>
<!-- Node12&#45;&gt;Node5 -->
<g id="edge17" class="edge">
<title>Node12&#45;&gt;Node5</title>
<path fill="none" stroke="midnightblue" d="M454.99,-112.32C442.47,-103.98 423.32,-91.21 408.53,-81.35"/>
<polygon fill="midnightblue" stroke="midnightblue" points="410.24,-78.29 399.98,-75.65 406.36,-84.11 410.24,-78.29"/>
</g>
<!-- Node12&#45;&gt;Node8 -->
<g id="edge18" class="edge">
<title>Node12&#45;&gt;Node8</title>
<path fill="none" stroke="midnightblue" d="M414.86,-113.66C342.07,-103.61 211.78,-85.61 136.03,-75.15"/>
<polygon fill="midnightblue" stroke="midnightblue" points="136.1,-71.63 125.71,-73.73 135.14,-78.56 136.1,-71.63"/>
</g>
<!-- Node13 -->
<g id="node13" class="node">
<title>Node13</title>
<g id="a_node13"><a xlink:href="ethertype_8h.html" target="_top" xlink:title="Ether type definitions.">
<polygon fill="none" stroke="black" points="438,-56.5 438,-75.5 530,-75.5 530,-56.5 438,-56.5"/>
<text text-anchor="middle" x="484" y="-63.5" font-family="Helvetica,sans-Serif" font-size="10.00">net/ethertype.h</text>
</a>
</g>
</g>
<!-- Node12&#45;&gt;Node13 -->
<g id="edge19" class="edge">
<title>Node12&#45;&gt;Node13</title>
<path fill="none" stroke="midnightblue" d="M470.64,-112.08C472.79,-104.85 475.88,-94.41 478.55,-85.4"/>
<polygon fill="midnightblue" stroke="midnightblue" points="481.92,-86.33 481.41,-75.75 475.21,-84.34 481.92,-86.33"/>
</g>
<!-- Node14 -->
<g id="node14" class="node">
<title>Node14</title>
<g id="a_node14"><a xlink:href="protnum_8h.html" target="_top" xlink:title="Protocol number definitions.">
<polygon fill="none" stroke="black" points="548,-56.5 548,-75.5 634,-75.5 634,-56.5 548,-56.5"/>
<text text-anchor="middle" x="591" y="-63.5" font-family="Helvetica,sans-Serif" font-size="10.00">net/protnum.h</text>
</a>
</g>
</g>
<!-- Node12&#45;&gt;Node14 -->
<g id="edge20" class="edge">
<title>Node12&#45;&gt;Node14</title>
<path fill="none" stroke="midnightblue" d="M487.49,-112.44C507.64,-103.6 539.32,-89.69 562.33,-79.59"/>
<polygon fill="midnightblue" stroke="midnightblue" points="563.85,-82.74 571.6,-75.52 561.04,-76.33 563.85,-82.74"/>
</g>
<!-- Node16 -->
<g id="node16" class="node">
<title>Node16</title>
<g id="a_node16"><a xlink:href="assert_8h.html" target="_top" xlink:title="POSIX.1&#45;2008 compliant version of the assert macro.">
<polygon fill="none" stroke="black" points="98,-168.5 98,-187.5 154,-187.5 154,-168.5 98,-168.5"/>
<text text-anchor="middle" x="126" y="-175.5" font-family="Helvetica,sans-Serif" font-size="10.00">assert.h</text>
</a>
</g>
</g>
<!-- Node15&#45;&gt;Node16 -->
<g id="edge23" class="edge">
<title>Node15&#45;&gt;Node16</title>
<path fill="none" stroke="midnightblue" d="M141.86,-224.08C139.32,-216.85 135.64,-206.41 132.47,-197.4"/>
<polygon fill="midnightblue" stroke="midnightblue" points="135.7,-196.02 129.08,-187.75 129.1,-198.35 135.7,-196.02"/>
</g>
<!-- Node17 -->
<g id="node17" class="node">
<title>Node17</title>
<g id="a_node17"><a xlink:href="panic_8h.html" target="_top" xlink:title="Crash handling header.">
<polygon fill="none" stroke="black" points="61,-112.5 61,-131.5 113,-131.5 113,-112.5 61,-112.5"/>
<text text-anchor="middle" x="87" y="-119.5" font-family="Helvetica,sans-Serif" font-size="10.00">panic.h</text>
</a>
</g>
</g>
<!-- Node16&#45;&gt;Node17 -->
<g id="edge24" class="edge">
<title>Node16&#45;&gt;Node17</title>
<path fill="none" stroke="midnightblue" d="M119.56,-168.08C114.05,-160.46 105.97,-149.26 99.24,-139.94"/>
<polygon fill="midnightblue" stroke="midnightblue" points="102.01,-137.81 93.32,-131.75 96.34,-141.91 102.01,-137.81"/>
</g>
<!-- Node17&#45;&gt;Node8 -->
<g id="edge25" class="edge">
<title>Node17&#45;&gt;Node8</title>
<path fill="none" stroke="midnightblue" d="M85.35,-112.08C84.02,-104.93 82.12,-94.64 80.46,-85.69"/>
<polygon fill="midnightblue" stroke="midnightblue" points="83.88,-84.95 78.62,-75.75 77,-86.22 83.88,-84.95"/>
</g>
</g>
</svg>
