<?xml version="1.0" encoding="UTF-8" standalone="no"?>
<!DOCTYPE svg PUBLIC "-//W3C//DTD SVG 1.1//EN"
 "http://www.w3.org/Graphics/SVG/1.1/DTD/svg11.dtd">
<!-- Generated by graphviz version 2.40.1 (20161225.0304)
 -->
<!-- Title: sys/include/net/gnrc/pktqueue.h Pages: 1 -->
<svg width="697pt" height="319pt"
 viewBox="0.00 0.00 696.50 319.00" xmlns="http://www.w3.org/2000/svg" xmlns:xlink="http://www.w3.org/1999/xlink">
<g id="graph0" class="graph" transform="scale(1 1) rotate(0) translate(4 315)">
<title>sys/include/net/gnrc/pktqueue.h</title>
<!-- Node0 -->
<g id="node1" class="node">
<title>Node0</title>
<polygon fill="#bfbfbf" stroke="#000000" points="111.5,-280.5 111.5,-310.5 215.5,-310.5 215.5,-280.5 111.5,-280.5"/>
<text text-anchor="start" x="119.5" y="-298.5" font-family="Helvetica,sans-Serif" font-size="10.00" fill="#000000">sys/include/net/gnrc</text>
<text text-anchor="middle" x="163.5" y="-287.5" font-family="Helvetica,sans-Serif" font-size="10.00" fill="#000000">/pktqueue.h</text>
</g>
<!-- Node1 -->
<g id="node2" class="node">
<title>Node1</title>
<polygon fill="none" stroke="#bfbfbf" points="71,-112.5 71,-131.5 120,-131.5 120,-112.5 71,-112.5"/>
<text text-anchor="middle" x="95.5" y="-119.5" font-family="Helvetica,sans-Serif" font-size="10.00" fill="#000000">stdint.h</text>
</g>
<!-- Node0&#45;&gt;Node1 -->
<g id="edge1" class="edge">
<title>Node0&#45;&gt;Node1</title>
<path fill="none" stroke="#191970" d="M157.5844,-280.4065C145.2269,-248.8767 116.6914,-176.0692 103.0408,-141.24"/>
<polygon fill="#191970" stroke="#191970" points="106.2244,-139.7713 99.3166,-131.738 99.7071,-142.3256 106.2244,-139.7713"/>
</g>
<!-- Node2 -->
<g id="node3" class="node">
<title>Node2</title>
<g id="a_node3"><a xlink:href="stdlib_8h.html" target="_top" xlink:title="stdlib.h wrapper for MSP430 ">
<polygon fill="none" stroke="#000000" points="19.5,-168.5 19.5,-187.5 67.5,-187.5 67.5,-168.5 19.5,-168.5"/>
<text text-anchor="middle" x="43.5" y="-175.5" font-family="Helvetica,sans-Serif" font-size="10.00" fill="#000000">stdlib.h</text>
</a>
</g>
</g>
<!-- Node0&#45;&gt;Node2 -->
<g id="edge2" class="edge">
<title>Node0&#45;&gt;Node2</title>
<path fill="none" stroke="#191970" d="M147.8121,-280.1389C125.3075,-258.1032 84.0115,-217.6675 60.6987,-194.8403"/>
<polygon fill="#191970" stroke="#191970" points="62.8567,-192.055 53.2629,-187.5595 57.9593,-197.0566 62.8567,-192.055"/>
</g>
<!-- Node4 -->
<g id="node5" class="node">
<title>Node4</title>
<g id="a_node5"><a xlink:href="include_2net_2gnrc_2pkt_8h.html" target="_top" xlink:title="General definitions for network packets and their helper functions. ">
<polygon fill="none" stroke="#000000" points="176,-224.5 176,-243.5 253,-243.5 253,-224.5 176,-224.5"/>
<text text-anchor="middle" x="214.5" y="-231.5" font-family="Helvetica,sans-Serif" font-size="10.00" fill="#000000">net/gnrc/pkt.h</text>
</a>
</g>
</g>
<!-- Node0&#45;&gt;Node4 -->
<g id="edge5" class="edge">
<title>Node0&#45;&gt;Node4</title>
<path fill="none" stroke="#191970" d="M176.1067,-280.2977C183.2598,-271.672 192.2497,-260.8312 199.7318,-251.8087"/>
<polygon fill="#191970" stroke="#191970" points="202.645,-253.7787 206.3343,-243.8469 197.2567,-249.3103 202.645,-253.7787"/>
</g>
<!-- Node14 -->
<g id="node15" class="node">
<title>Node14</title>
<g id="a_node15"><a xlink:href="utlist_8h.html" target="_top" xlink:title="Macros for basic linked list operations. ">
<polygon fill="none" stroke="#000000" points="378.5,-224.5 378.5,-243.5 424.5,-243.5 424.5,-224.5 378.5,-224.5"/>
<text text-anchor="middle" x="401.5" y="-231.5" font-family="Helvetica,sans-Serif" font-size="10.00" fill="#000000">utlist.h</text>
</a>
</g>
</g>
<!-- Node0&#45;&gt;Node14 -->
<g id="edge20" class="edge">
<title>Node0&#45;&gt;Node14</title>
<path fill="none" stroke="#191970" d="M215.7301,-282.0036C262.2057,-269.9941 328.771,-252.7934 368.3196,-242.5739"/>
<polygon fill="#191970" stroke="#191970" points="369.4348,-245.9008 378.2411,-240.0102 367.6835,-239.1234 369.4348,-245.9008"/>
</g>
<!-- Node3 -->
<g id="node4" class="node">
<title>Node3</title>
<g id="a_node4"><a xlink:href="malloc_8h.html" target="_top" xlink:title="malloc.h">
<polygon fill="none" stroke="#000000" points="0,-112.5 0,-131.5 53,-131.5 53,-112.5 0,-112.5"/>
<text text-anchor="middle" x="26.5" y="-119.5" font-family="Helvetica,sans-Serif" font-size="10.00" fill="#000000">malloc.h</text>
</a>
</g>
</g>
<!-- Node2&#45;&gt;Node3 -->
<g id="edge3" class="edge">
<title>Node2&#45;&gt;Node3</title>
<path fill="none" stroke="#191970" d="M35.272,-168.2455C31.6427,-160.9382 28.1287,-150.6944 26.0022,-141.7046"/>
<polygon fill="#191970" stroke="#191970" points="29.4063,-140.8599 24.1821,-131.6427 22.5181,-142.106 29.4063,-140.8599"/>
</g>
<!-- Node3&#45;&gt;Node2 -->
<g id="edge4" class="edge">
<title>Node3&#45;&gt;Node2</title>
<path fill="none" stroke="#191970" d="M34.6724,-131.6427C38.3028,-138.9199 41.8245,-149.155 43.965,-158.1575"/>
<polygon fill="#191970" stroke="#191970" points="40.5675,-159.0362 45.8057,-168.2455 47.4538,-157.7797 40.5675,-159.0362"/>
</g>
<!-- Node4&#45;&gt;Node2 -->
<g id="edge7" class="edge">
<title>Node4&#45;&gt;Node2</title>
<path fill="none" stroke="#191970" d="M185.1041,-224.3733C155.1184,-214.5534 108.6493,-199.3354 77.1949,-189.0346"/>
<polygon fill="#191970" stroke="#191970" points="78.1426,-185.6621 67.5499,-185.876 75.964,-192.3145 78.1426,-185.6621"/>
</g>
<!-- Node5 -->
<g id="node6" class="node">
<title>Node5</title>
<g id="a_node6"><a xlink:href="inttypes_8h.html" target="_top" xlink:title="Adds include for missing inttype definitions. ">
<polygon fill="none" stroke="#000000" points="329,-112.5 329,-131.5 388,-131.5 388,-112.5 329,-112.5"/>
<text text-anchor="middle" x="358.5" y="-119.5" font-family="Helvetica,sans-Serif" font-size="10.00" fill="#000000">inttypes.h</text>
</a>
</g>
</g>
<!-- Node4&#45;&gt;Node5 -->
<g id="edge6" class="edge">
<title>Node4&#45;&gt;Node5</title>
<path fill="none" stroke="#191970" d="M226.7774,-224.4509C251.5387,-205.1921 307.6862,-161.5218 338.0655,-137.8935"/>
<polygon fill="#191970" stroke="#191970" points="340.509,-140.4271 346.2537,-131.5249 336.2114,-134.9016 340.509,-140.4271"/>
</g>
<!-- Node6 -->
<g id="node7" class="node">
<title>Node6</title>
<g id="a_node7"><a xlink:href="kernel__types_8h.html" target="_top" xlink:title="Types used by the kernel. ">
<polygon fill="none" stroke="#000000" points="174.5,-168.5 174.5,-187.5 254.5,-187.5 254.5,-168.5 174.5,-168.5"/>
<text text-anchor="middle" x="214.5" y="-175.5" font-family="Helvetica,sans-Serif" font-size="10.00" fill="#000000">kernel_types.h</text>
</a>
</g>
</g>
<!-- Node4&#45;&gt;Node6 -->
<g id="edge8" class="edge">
<title>Node4&#45;&gt;Node6</title>
<path fill="none" stroke="#191970" d="M214.5,-224.2455C214.5,-216.9382 214.5,-206.6944 214.5,-197.7046"/>
<polygon fill="#191970" stroke="#191970" points="218.0001,-197.6426 214.5,-187.6427 211.0001,-197.6427 218.0001,-197.6426"/>
</g>
<!-- Node10 -->
<g id="node11" class="node">
<title>Node10</title>
<g id="a_node11"><a xlink:href="nettype_8h.html" target="_top" xlink:title="Protocol type definitions. ">
<polygon fill="none" stroke="#000000" points="369,-168.5 369,-187.5 464,-187.5 464,-168.5 369,-168.5"/>
<text text-anchor="middle" x="416.5" y="-175.5" font-family="Helvetica,sans-Serif" font-size="10.00" fill="#000000">net/gnrc/nettype.h</text>
</a>
</g>
</g>
<!-- Node4&#45;&gt;Node10 -->
<g id="edge14" class="edge">
<title>Node4&#45;&gt;Node10</title>
<path fill="none" stroke="#191970" d="M249.225,-224.3733C283.2508,-214.9404 335.2437,-200.5265 372.2234,-190.2747"/>
<polygon fill="#191970" stroke="#191970" points="373.5266,-193.5455 382.2281,-187.5011 371.6565,-186.7999 373.5266,-193.5455"/>
</g>
<!-- Node6&#45;&gt;Node1 -->
<g id="edge9" class="edge">
<title>Node6&#45;&gt;Node1</title>
<path fill="none" stroke="#191970" d="M194.0432,-168.3733C175.0262,-159.4241 146.4825,-145.9917 125.0024,-135.8835"/>
<polygon fill="#191970" stroke="#191970" points="126.2284,-132.5923 115.6899,-131.5011 123.2478,-138.926 126.2284,-132.5923"/>
</g>
<!-- Node6&#45;&gt;Node5 -->
<g id="edge10" class="edge">
<title>Node6&#45;&gt;Node5</title>
<path fill="none" stroke="#191970" d="M239.2545,-168.3733C262.7849,-159.2226 298.3687,-145.3844 324.5426,-135.2057"/>
<polygon fill="#191970" stroke="#191970" points="326.0171,-138.3877 334.0685,-131.5011 323.4799,-131.8636 326.0171,-138.3877"/>
</g>
<!-- Node7 -->
<g id="node8" class="node">
<title>Node7</title>
<polygon fill="none" stroke="#bfbfbf" points="138.5,-112.5 138.5,-131.5 186.5,-131.5 186.5,-112.5 138.5,-112.5"/>
<text text-anchor="middle" x="162.5" y="-119.5" font-family="Helvetica,sans-Serif" font-size="10.00" fill="#000000">limits.h</text>
</g>
<!-- Node6&#45;&gt;Node7 -->
<g id="edge11" class="edge">
<title>Node6&#45;&gt;Node7</title>
<path fill="none" stroke="#191970" d="M205.4423,-168.2455C197.9858,-160.2155 187.2366,-148.6394 178.3583,-139.0781"/>
<polygon fill="#191970" stroke="#191970" points="180.8232,-136.589 171.4539,-131.6427 175.6937,-141.3522 180.8232,-136.589"/>
</g>
<!-- Node8 -->
<g id="node9" class="node">
<title>Node8</title>
<polygon fill="none" stroke="#bfbfbf" points="289.5,-.5 289.5,-19.5 341.5,-19.5 341.5,-.5 289.5,-.5"/>
<text text-anchor="middle" x="315.5" y="-7.5" font-family="Helvetica,sans-Serif" font-size="10.00" fill="#000000">stddef.h</text>
</g>
<!-- Node6&#45;&gt;Node8 -->
<g id="edge12" class="edge">
<title>Node6&#45;&gt;Node8</title>
<path fill="none" stroke="#191970" d="M216.0747,-168.1494C218.4778,-154.837 223.8332,-130.6266 233.5,-112 250.717,-78.8252 279.6658,-46.1687 298.1602,-27.0625"/>
<polygon fill="#191970" stroke="#191970" points="300.8507,-29.3189 305.3816,-19.7418 295.8673,-24.4031 300.8507,-29.3189"/>
</g>
<!-- Node9 -->
<g id="node10" class="node">
<title>Node9</title>
<polygon fill="none" stroke="#bfbfbf" points="242.5,-112.5 242.5,-131.5 310.5,-131.5 310.5,-112.5 242.5,-112.5"/>
<text text-anchor="middle" x="276.5" y="-119.5" font-family="Helvetica,sans-Serif" font-size="10.00" fill="#000000">sys/types.h</text>
</g>
<!-- Node6&#45;&gt;Node9 -->
<g id="edge13" class="edge">
<title>Node6&#45;&gt;Node9</title>
<path fill="none" stroke="#191970" d="M225.2996,-168.2455C234.3678,-160.0549 247.5206,-148.1749 258.2245,-138.5069"/>
<polygon fill="#191970" stroke="#191970" points="260.7491,-140.9429 265.8242,-131.6427 256.0571,-135.7482 260.7491,-140.9429"/>
</g>
<!-- Node10&#45;&gt;Node5 -->
<g id="edge15" class="edge">
<title>Node10&#45;&gt;Node5</title>
<path fill="none" stroke="#191970" d="M406.3972,-168.2455C397.9972,-160.1352 385.8506,-148.4075 375.8916,-138.7919"/>
<polygon fill="#191970" stroke="#191970" points="378.1122,-136.0707 368.4871,-131.6427 373.25,-141.1066 378.1122,-136.0707"/>
</g>
<!-- Node11 -->
<g id="node12" class="node">
<title>Node11</title>
<g id="a_node12"><a xlink:href="kernel__defines_8h.html" target="_top" xlink:title="Common macros and compiler attributes/pragmas configuration. ">
<polygon fill="none" stroke="#000000" points="372.5,-56.5 372.5,-75.5 460.5,-75.5 460.5,-56.5 372.5,-56.5"/>
<text text-anchor="middle" x="416.5" y="-63.5" font-family="Helvetica,sans-Serif" font-size="10.00" fill="#000000">kernel_defines.h</text>
</a>
</g>
</g>
<!-- Node10&#45;&gt;Node11 -->
<g id="edge16" class="edge">
<title>Node10&#45;&gt;Node11</title>
<path fill="none" stroke="#191970" d="M416.5,-168.4509C416.5,-150.184 416.5,-109.9553 416.5,-85.6976"/>
<polygon fill="#191970" stroke="#191970" points="420.0001,-85.5249 416.5,-75.5249 413.0001,-85.5249 420.0001,-85.5249"/>
</g>
<!-- Node12 -->
<g id="node13" class="node">
<title>Node12</title>
<g id="a_node13"><a xlink:href="ethertype_8h.html" target="_top" xlink:title="Ether type definitions. ">
<polygon fill="none" stroke="#000000" points="444.5,-112.5 444.5,-131.5 526.5,-131.5 526.5,-112.5 444.5,-112.5"/>
<text text-anchor="middle" x="485.5" y="-119.5" font-family="Helvetica,sans-Serif" font-size="10.00" fill="#000000">net/ethertype.h</text>
</a>
</g>
</g>
<!-- Node10&#45;&gt;Node12 -->
<g id="edge18" class="edge">
<title>Node10&#45;&gt;Node12</title>
<path fill="none" stroke="#191970" d="M428.5189,-168.2455C438.7098,-159.9746 453.5362,-147.9416 465.5107,-138.2232"/>
<polygon fill="#191970" stroke="#191970" points="468.0598,-140.662 473.6188,-131.6427 463.6486,-135.2268 468.0598,-140.662"/>
</g>
<!-- Node13 -->
<g id="node14" class="node">
<title>Node13</title>
<g id="a_node14"><a xlink:href="protnum_8h.html" target="_top" xlink:title="Protocol number definitions. ">
<polygon fill="none" stroke="#000000" points="545,-112.5 545,-131.5 622,-131.5 622,-112.5 545,-112.5"/>
<text text-anchor="middle" x="583.5" y="-119.5" font-family="Helvetica,sans-Serif" font-size="10.00" fill="#000000">net/protnum.h</text>
</a>
</g>
</g>
<!-- Node10&#45;&gt;Node13 -->
<g id="edge19" class="edge">
<title>Node10&#45;&gt;Node13</title>
<path fill="none" stroke="#191970" d="M445.2083,-168.3733C472.8577,-159.1016 514.8576,-145.0178 545.3166,-134.804"/>
<polygon fill="#191970" stroke="#191970" points="546.7979,-137.9989 555.1663,-131.5011 544.5724,-131.3621 546.7979,-137.9989"/>
</g>
<!-- Node11&#45;&gt;Node8 -->
<g id="edge17" class="edge">
<title>Node11&#45;&gt;Node8</title>
<path fill="none" stroke="#191970" d="M398.9071,-56.2455C383.121,-47.4928 359.7361,-34.527 341.7413,-24.5496"/>
<polygon fill="#191970" stroke="#191970" points="343.3341,-21.4308 332.8913,-19.6427 339.9397,-27.5528 343.3341,-21.4308"/>
</g>
<!-- Node15 -->
<g id="node16" class="node">
<title>Node15</title>
<g id="a_node16"><a xlink:href="assert_8h.html" target="_top" xlink:title="POSIX.1&#45;2008 compliant version of the assert macro. ">
<polygon fill="none" stroke="#000000" points="560.5,-168.5 560.5,-187.5 612.5,-187.5 612.5,-168.5 560.5,-168.5"/>
<text text-anchor="middle" x="586.5" y="-175.5" font-family="Helvetica,sans-Serif" font-size="10.00" fill="#000000">assert.h</text>
</a>
</g>
</g>
<!-- Node14&#45;&gt;Node15 -->
<g id="edge21" class="edge">
<title>Node14&#45;&gt;Node15</title>
<path fill="none" stroke="#191970" d="M424.5563,-227.0208C456.1638,-217.4531 513.2644,-200.1686 550.5231,-188.8903"/>
<polygon fill="#191970" stroke="#191970" points="551.911,-192.1271 560.4681,-185.8799 549.883,-185.4273 551.911,-192.1271"/>
</g>
<!-- Node16 -->
<g id="node17" class="node">
<title>Node16</title>
<g id="a_node17"><a xlink:href="panic_8h.html" target="_top" xlink:title="Crash handling header. ">
<polygon fill="none" stroke="#000000" points="640.5,-112.5 640.5,-131.5 688.5,-131.5 688.5,-112.5 640.5,-112.5"/>
<text text-anchor="middle" x="664.5" y="-119.5" font-family="Helvetica,sans-Serif" font-size="10.00" fill="#000000">panic.h</text>
</a>
</g>
</g>
<!-- Node15&#45;&gt;Node16 -->
<g id="edge22" class="edge">
<title>Node15&#45;&gt;Node16</title>
<path fill="none" stroke="#191970" d="M600.0866,-168.2455C611.8305,-159.814 629.0199,-147.4729 642.6882,-137.6598"/>
<polygon fill="#191970" stroke="#191970" points="644.9871,-140.3179 651.0691,-131.6427 640.9046,-134.6316 644.9871,-140.3179"/>
</g>
<!-- Node16&#45;&gt;Node11 -->
<g id="edge23" class="edge">
<title>Node16&#45;&gt;Node11</title>
<path fill="none" stroke="#191970" d="M640.415,-114.448C637.4233,-113.585 634.3983,-112.7478 631.5,-112 577.1508,-97.9772 514.3021,-84.8868 470.6497,-76.2843"/>
<polygon fill="#191970" stroke="#191970" points="471.2977,-72.8448 460.8114,-74.3574 469.9522,-79.7143 471.2977,-72.8448"/>
</g>
</g>
</svg>
