<?xml version="1.0" encoding="UTF-8" standalone="no"?>
<!DOCTYPE svg PUBLIC "-//W3C//DTD SVG 1.1//EN"
 "http://www.w3.org/Graphics/SVG/1.1/DTD/svg11.dtd">
<!-- Generated by graphviz version 2.40.1 (20161225.0304)
 -->
<!-- Title: drivers/include/periph/pm.h Pages: 1 -->
<svg width="461pt" height="162pt"
 viewBox="0.00 0.00 460.50 162.00" xmlns="http://www.w3.org/2000/svg" xmlns:xlink="http://www.w3.org/1999/xlink">
<g id="graph0" class="graph" transform="scale(1 1) rotate(0) translate(4 158)">
<title>drivers/include/periph/pm.h</title>
<!-- Node6 -->
<g id="node1" class="node">
<title>Node6</title>
<polygon fill="#bfbfbf" stroke="#000000" points="215,-134.5 215,-153.5 349,-153.5 349,-134.5 215,-134.5"/>
<text text-anchor="middle" x="282" y="-141.5" font-family="Helvetica,sans-Serif" font-size="10.00" fill="#000000">drivers/include/periph/pm.h</text>
</g>
<!-- Node7 -->
<g id="node2" class="node">
<title>Node7</title>
<g id="a_node2"><a xlink:href="lwm2m__client_8h.html" target="_top" xlink:title="Definitions and public API for a LwM2M client using Wakaama. ">
<polygon fill="none" stroke="#000000" points="165.5,-67.5 165.5,-97.5 276.5,-97.5 276.5,-67.5 165.5,-67.5"/>
<text text-anchor="start" x="173.5" y="-85.5" font-family="Helvetica,sans-Serif" font-size="10.00" fill="#000000">pkg/wakaama/include</text>
<text text-anchor="middle" x="221" y="-74.5" font-family="Helvetica,sans-Serif" font-size="10.00" fill="#000000">/lwm2m_client.h</text>
</a>
</g>
</g>
<!-- Node6&#45;&gt;Node7 -->
<g id="edge1" class="edge">
<title>Node6&#45;&gt;Node7</title>
<path fill="none" stroke="#191970" d="M265.3466,-127.2101C256.1521,-117.9403 244.8265,-106.5218 235.9223,-97.5446"/>
<polygon fill="#191970" stroke="#191970" points="262.9416,-129.7555 272.4688,-134.3906 267.9115,-124.826 262.9416,-129.7555"/>
</g>
<!-- Node10 -->
<g id="node5" class="node">
<title>Node10</title>
<g id="a_node5"><a xlink:href="shell_8h.html" target="_top" xlink:title="Shell interface definition. ">
<polygon fill="none" stroke="#000000" points="311,-73 311,-92 409,-92 409,-73 311,-73"/>
<text text-anchor="middle" x="360" y="-80" font-family="Helvetica,sans-Serif" font-size="10.00" fill="#000000">sys/include/shell.h</text>
</a>
</g>
</g>
<!-- Node6&#45;&gt;Node10 -->
<g id="edge4" class="edge">
<title>Node6&#45;&gt;Node10</title>
<path fill="none" stroke="#191970" d="M302.1036,-128.1491C316.5965,-116.722 335.6806,-101.6749 347.8981,-92.0419"/>
<polygon fill="#191970" stroke="#191970" points="299.8732,-125.4506 294.1875,-134.3906 304.2073,-130.9475 299.8732,-125.4506"/>
</g>
<!-- Node8 -->
<g id="node3" class="node">
<title>Node8</title>
<g id="a_node3"><a xlink:href="lwm2m__client__connection_8h.html" target="_top" xlink:title="Public API and definitions of the connection handle for LwM2M client implementation using Wakaama...">
<polygon fill="none" stroke="#000000" points="0,-.5 0,-30.5 140,-30.5 140,-.5 0,-.5"/>
<text text-anchor="start" x="8" y="-18.5" font-family="Helvetica,sans-Serif" font-size="10.00" fill="#000000">pkg/wakaama/include</text>
<text text-anchor="middle" x="70" y="-7.5" font-family="Helvetica,sans-Serif" font-size="10.00" fill="#000000">/lwm2m_client_connection.h</text>
</a>
</g>
</g>
<!-- Node7&#45;&gt;Node8 -->
<g id="edge2" class="edge">
<title>Node7&#45;&gt;Node8</title>
<path fill="none" stroke="#191970" d="M177.7582,-63.3132C154.3497,-52.9267 125.8461,-40.2794 104.0351,-30.6017"/>
<polygon fill="#191970" stroke="#191970" points="176.5525,-66.6073 187.1127,-67.4639 179.3916,-60.2089 176.5525,-66.6073"/>
</g>
<!-- Node9 -->
<g id="node4" class="node">
<title>Node9</title>
<g id="a_node4"><a xlink:href="lwm2m__client__objects_8h.html" target="_top" xlink:title="Public API and definitions for the helper functions to interact with basic objects from a LwM2M clien...">
<polygon fill="none" stroke="#000000" points="158.5,-.5 158.5,-30.5 283.5,-30.5 283.5,-.5 158.5,-.5"/>
<text text-anchor="start" x="166.5" y="-18.5" font-family="Helvetica,sans-Serif" font-size="10.00" fill="#000000">pkg/wakaama/include</text>
<text text-anchor="middle" x="221" y="-7.5" font-family="Helvetica,sans-Serif" font-size="10.00" fill="#000000">/lwm2m_client_objects.h</text>
</a>
</g>
</g>
<!-- Node7&#45;&gt;Node9 -->
<g id="edge3" class="edge">
<title>Node7&#45;&gt;Node9</title>
<path fill="none" stroke="#191970" d="M221,-57.0249C221,-48.128 221,-38.4287 221,-30.6432"/>
<polygon fill="#191970" stroke="#191970" points="217.5001,-57.2966 221,-67.2967 224.5001,-57.2967 217.5001,-57.2966"/>
</g>
<!-- Node11 -->
<g id="node6" class="node">
<title>Node11</title>
<g id="a_node6"><a xlink:href="shell__commands_8h.html" target="_top" xlink:title="Shell command definitions. ">
<polygon fill="none" stroke="#000000" points="301.5,-6 301.5,-25 452.5,-25 452.5,-6 301.5,-6"/>
<text text-anchor="middle" x="377" y="-13" font-family="Helvetica,sans-Serif" font-size="10.00" fill="#000000">sys/include/shell_commands.h</text>
</a>
</g>
</g>
<!-- Node10&#45;&gt;Node11 -->
<g id="edge5" class="edge">
<title>Node10&#45;&gt;Node11</title>
<path fill="none" stroke="#191970" d="M364.9512,-62.9863C368.1121,-50.5286 372.0711,-34.9258 374.5688,-25.0817"/>
<polygon fill="#191970" stroke="#191970" points="361.5026,-62.3469 362.4357,-72.9005 368.2876,-64.0685 361.5026,-62.3469"/>
</g>
</g>
</svg>
