<?xml version="1.0" encoding="UTF-8" standalone="no"?>
<!DOCTYPE svg PUBLIC "-//W3C//DTD SVG 1.1//EN"
 "http://www.w3.org/Graphics/SVG/1.1/DTD/svg11.dtd">
<!-- Generated by graphviz version 2.43.0 (0)
 -->
<!-- Title: sys/posix/pthread/include/pthread_cond.h Pages: 1 -->
<svg width="806pt" height="431pt"
 viewBox="0.00 0.00 806.00 431.00" xmlns="http://www.w3.org/2000/svg" xmlns:xlink="http://www.w3.org/1999/xlink">
<g id="graph0" class="graph" transform="scale(1 1) rotate(0) translate(4 427)">
<title>sys/posix/pthread/include/pthread_cond.h</title>
<!-- Node1 -->
<g id="node1" class="node">
<title>Node1</title>
<g id="a_node1"><a xlink:title="RIOT POSIX condition variable API.">
<polygon fill="#bfbfbf" stroke="black" points="383.5,-392.5 383.5,-422.5 524.5,-422.5 524.5,-392.5 383.5,-392.5"/>
<text text-anchor="start" x="391.5" y="-410.5" font-family="Helvetica,sans-Serif" font-size="10.00">sys/posix/pthread/include</text>
<text text-anchor="middle" x="454" y="-399.5" font-family="Helvetica,sans-Serif" font-size="10.00">/pthread_cond.h</text>
</a>
</g>
</g>
<!-- Node2 -->
<g id="node2" class="node">
<title>Node2</title>
<g id="a_node2"><a xlink:href="time_8h_source.html" target="_top" xlink:title=" ">
<polygon fill="none" stroke="black" points="220,-336.5 220,-355.5 268,-355.5 268,-336.5 220,-336.5"/>
<text text-anchor="middle" x="244" y="-343.5" font-family="Helvetica,sans-Serif" font-size="10.00">time.h</text>
</a>
</g>
</g>
<!-- Node1&#45;&gt;Node2 -->
<g id="edge1" class="edge">
<title>Node1&#45;&gt;Node2</title>
<path fill="none" stroke="midnightblue" d="M404.5,-392.47C365.6,-381.45 312.43,-366.39 278.15,-356.68"/>
<polygon fill="midnightblue" stroke="midnightblue" points="278.73,-353.2 268.16,-353.84 276.82,-359.94 278.73,-353.2"/>
</g>
<!-- Node4 -->
<g id="node4" class="node">
<title>Node4</title>
<g id="a_node4"><a xlink:href="mutex_8h.html" target="_top" xlink:title="Mutex for thread synchronization.">
<polygon fill="none" stroke="black" points="425.5,-336.5 425.5,-355.5 482.5,-355.5 482.5,-336.5 425.5,-336.5"/>
<text text-anchor="middle" x="454" y="-343.5" font-family="Helvetica,sans-Serif" font-size="10.00">mutex.h</text>
</a>
</g>
</g>
<!-- Node1&#45;&gt;Node4 -->
<g id="edge4" class="edge">
<title>Node1&#45;&gt;Node4</title>
<path fill="none" stroke="midnightblue" d="M454,-392.4C454,-384.47 454,-374.46 454,-365.86"/>
<polygon fill="midnightblue" stroke="midnightblue" points="457.5,-365.66 454,-355.66 450.5,-365.66 457.5,-365.66"/>
</g>
<!-- Node21 -->
<g id="node21" class="node">
<title>Node21</title>
<g id="a_node21"><a xlink:href="priority__queue_8h.html" target="_top" xlink:title="A simple priority queue.">
<polygon fill="none" stroke="black" points="636,-56.5 636,-75.5 732,-75.5 732,-56.5 636,-56.5"/>
<text text-anchor="middle" x="684" y="-63.5" font-family="Helvetica,sans-Serif" font-size="10.00">priority_queue.h</text>
</a>
</g>
</g>
<!-- Node1&#45;&gt;Node21 -->
<g id="edge33" class="edge">
<title>Node1&#45;&gt;Node21</title>
<path fill="none" stroke="midnightblue" d="M524.86,-397.31C625.56,-382.24 798,-348.09 798,-291 798,-291 798,-291 798,-177 798,-130.11 747.45,-96.89 713.67,-79.93"/>
<polygon fill="midnightblue" stroke="midnightblue" points="715.17,-76.77 704.64,-75.58 712.13,-83.07 715.17,-76.77"/>
</g>
<!-- Node2&#45;&gt;Node2 -->
<g id="edge3" class="edge">
<title>Node2&#45;&gt;Node2</title>
<path fill="none" stroke="midnightblue" d="M262.13,-355.57C274.23,-358.27 286,-355.08 286,-346 286,-339.55 280.05,-336.07 272.26,-335.56"/>
<polygon fill="midnightblue" stroke="midnightblue" points="271.8,-332.09 262.13,-336.43 272.39,-339.07 271.8,-332.09"/>
</g>
<!-- Node3 -->
<g id="node3" class="node">
<title>Node3</title>
<g id="a_node3"><a xlink:title=" ">
<polygon fill="none" stroke="#bfbfbf" points="0,-280.5 0,-299.5 72,-299.5 72,-280.5 0,-280.5"/>
<text text-anchor="middle" x="36" y="-287.5" font-family="Helvetica,sans-Serif" font-size="10.00">sys/types.h</text>
</a>
</g>
</g>
<!-- Node2&#45;&gt;Node3 -->
<g id="edge2" class="edge">
<title>Node2&#45;&gt;Node3</title>
<path fill="none" stroke="midnightblue" d="M219.73,-338.7C185.21,-329.74 121.38,-313.17 78.8,-302.11"/>
<polygon fill="midnightblue" stroke="midnightblue" points="79.56,-298.69 69,-299.57 77.8,-305.47 79.56,-298.69"/>
</g>
<!-- Node5 -->
<g id="node5" class="node">
<title>Node5</title>
<g id="a_node5"><a xlink:title=" ">
<polygon fill="none" stroke="#bfbfbf" points="404,-0.5 404,-19.5 460,-19.5 460,-0.5 404,-0.5"/>
<text text-anchor="middle" x="432" y="-7.5" font-family="Helvetica,sans-Serif" font-size="10.00">stddef.h</text>
</a>
</g>
</g>
<!-- Node4&#45;&gt;Node5 -->
<g id="edge5" class="edge">
<title>Node4&#45;&gt;Node5</title>
<path fill="none" stroke="midnightblue" d="M425.41,-345.06C374,-344.16 263.54,-337.56 180,-300 138.22,-281.21 100,-280.81 100,-235 100,-235 100,-235 100,-121 100,-87.31 111.03,-74.78 139,-56 179.94,-28.5 323.81,-16.96 393.54,-12.89"/>
<polygon fill="midnightblue" stroke="midnightblue" points="393.88,-16.37 403.67,-12.32 393.49,-9.39 393.88,-16.37"/>
</g>
<!-- Node6 -->
<g id="node6" class="node">
<title>Node6</title>
<g id="a_node6"><a xlink:title=" ">
<polygon fill="none" stroke="#bfbfbf" points="619.5,-0.5 619.5,-19.5 672.5,-19.5 672.5,-0.5 619.5,-0.5"/>
<text text-anchor="middle" x="646" y="-7.5" font-family="Helvetica,sans-Serif" font-size="10.00">stdint.h</text>
</a>
</g>
</g>
<!-- Node4&#45;&gt;Node6 -->
<g id="edge6" class="edge">
<title>Node4&#45;&gt;Node6</title>
<path fill="none" stroke="midnightblue" d="M482.51,-341C558.48,-329.55 760,-293.64 760,-235 760,-235 760,-235 760,-121 760,-90.9 760.54,-78.9 741,-56 725.9,-38.3 702.29,-27.07 682.38,-20.26"/>
<polygon fill="midnightblue" stroke="midnightblue" points="683.26,-16.86 672.66,-17.17 681.14,-23.54 683.26,-16.86"/>
</g>
<!-- Node7 -->
<g id="node7" class="node">
<title>Node7</title>
<g id="a_node7"><a xlink:href="irq_8h.html" target="_top" xlink:title="IRQ driver interface.">
<polygon fill="none" stroke="black" points="473,-280.5 473,-299.5 511,-299.5 511,-280.5 473,-280.5"/>
<text text-anchor="middle" x="492" y="-287.5" font-family="Helvetica,sans-Serif" font-size="10.00">irq.h</text>
</a>
</g>
</g>
<!-- Node4&#45;&gt;Node7 -->
<g id="edge7" class="edge">
<title>Node4&#45;&gt;Node7</title>
<path fill="none" stroke="midnightblue" d="M460.27,-336.08C465.64,-328.46 473.52,-317.26 480.08,-307.94"/>
<polygon fill="midnightblue" stroke="midnightblue" points="482.95,-309.94 485.84,-299.75 477.22,-305.91 482.95,-309.94"/>
</g>
<!-- Node10 -->
<g id="node10" class="node">
<title>Node10</title>
<g id="a_node10"><a xlink:href="kernel__defines_8h.html" target="_top" xlink:title="Common macros and compiler attributes/pragmas configuration.">
<polygon fill="none" stroke="black" points="475.5,-56.5 475.5,-75.5 572.5,-75.5 572.5,-56.5 475.5,-56.5"/>
<text text-anchor="middle" x="524" y="-63.5" font-family="Helvetica,sans-Serif" font-size="10.00">kernel_defines.h</text>
</a>
</g>
</g>
<!-- Node4&#45;&gt;Node10 -->
<g id="edge10" class="edge">
<title>Node4&#45;&gt;Node10</title>
<path fill="none" stroke="midnightblue" d="M470.75,-336.42C485.11,-328.45 505.7,-315.48 520,-300 557.37,-259.55 563.17,-242.19 573,-188 579.13,-154.21 574.03,-142.88 559,-112 553.92,-101.56 546.15,-91.25 539.22,-83.13"/>
<polygon fill="midnightblue" stroke="midnightblue" points="541.72,-80.68 532.45,-75.55 536.5,-85.34 541.72,-80.68"/>
</g>
<!-- Node11 -->
<g id="node11" class="node">
<title>Node11</title>
<g id="a_node11"><a xlink:href="list_8h.html" target="_top" xlink:title="Intrusive linked list.">
<polygon fill="none" stroke="black" points="148.5,-56.5 148.5,-75.5 189.5,-75.5 189.5,-56.5 148.5,-56.5"/>
<text text-anchor="middle" x="169" y="-63.5" font-family="Helvetica,sans-Serif" font-size="10.00">list.h</text>
</a>
</g>
</g>
<!-- Node4&#45;&gt;Node11 -->
<g id="edge13" class="edge">
<title>Node4&#45;&gt;Node11</title>
<path fill="none" stroke="midnightblue" d="M425.4,-341.3C347.61,-330.44 138,-295.56 138,-235 138,-235 138,-235 138,-177 138,-143.41 151.56,-106.14 160.74,-84.75"/>
<polygon fill="midnightblue" stroke="midnightblue" points="163.94,-86.17 164.82,-75.61 157.55,-83.31 163.94,-86.17"/>
</g>
<!-- Node12 -->
<g id="node12" class="node">
<title>Node12</title>
<g id="a_node12"><a xlink:href="core_2include_2thread_8h.html" target="_top" xlink:title="Threading API.">
<polygon fill="none" stroke="black" points="356.5,-280.5 356.5,-299.5 413.5,-299.5 413.5,-280.5 356.5,-280.5"/>
<text text-anchor="middle" x="385" y="-287.5" font-family="Helvetica,sans-Serif" font-size="10.00">thread.h</text>
</a>
</g>
</g>
<!-- Node4&#45;&gt;Node12 -->
<g id="edge14" class="edge">
<title>Node4&#45;&gt;Node12</title>
<path fill="none" stroke="midnightblue" d="M442.91,-336.32C432.51,-328.18 416.74,-315.84 404.28,-306.09"/>
<polygon fill="midnightblue" stroke="midnightblue" points="406.32,-303.24 396.29,-299.83 402.01,-308.75 406.32,-303.24"/>
</g>
<!-- Node8 -->
<g id="node8" class="node">
<title>Node8</title>
<g id="a_node8"><a xlink:title=" ">
<polygon fill="none" stroke="#bfbfbf" points="502,-168.5 502,-187.5 564,-187.5 564,-168.5 502,-168.5"/>
<text text-anchor="middle" x="533" y="-175.5" font-family="Helvetica,sans-Serif" font-size="10.00">stdbool.h</text>
</a>
</g>
</g>
<!-- Node7&#45;&gt;Node8 -->
<g id="edge8" class="edge">
<title>Node7&#45;&gt;Node8</title>
<path fill="none" stroke="midnightblue" d="M504.5,-280.3C514.87,-272.25 528.89,-259.24 535,-244 540.91,-229.26 539.72,-211.1 537.45,-197.73"/>
<polygon fill="midnightblue" stroke="midnightblue" points="540.86,-196.89 535.42,-187.8 534,-198.3 540.86,-196.89"/>
</g>
<!-- Node9 -->
<g id="node9" class="node">
<title>Node9</title>
<g id="a_node9"><a xlink:title=" ">
<polygon fill="none" stroke="#bfbfbf" points="458,-224.5 458,-243.5 526,-243.5 526,-224.5 458,-224.5"/>
<text text-anchor="middle" x="492" y="-231.5" font-family="Helvetica,sans-Serif" font-size="10.00">cpu_conf.h</text>
</a>
</g>
</g>
<!-- Node7&#45;&gt;Node9 -->
<g id="edge9" class="edge">
<title>Node7&#45;&gt;Node9</title>
<path fill="none" stroke="midnightblue" d="M492,-280.08C492,-273.01 492,-262.86 492,-253.99"/>
<polygon fill="midnightblue" stroke="midnightblue" points="495.5,-253.75 492,-243.75 488.5,-253.75 495.5,-253.75"/>
</g>
<!-- Node10&#45;&gt;Node5 -->
<g id="edge11" class="edge">
<title>Node10&#45;&gt;Node5</title>
<path fill="none" stroke="midnightblue" d="M509.22,-56.32C494.73,-47.82 472.43,-34.73 455.51,-24.8"/>
<polygon fill="midnightblue" stroke="midnightblue" points="457.14,-21.7 446.74,-19.65 453.6,-27.74 457.14,-21.7"/>
</g>
<!-- Node10&#45;&gt;Node6 -->
<g id="edge12" class="edge">
<title>Node10&#45;&gt;Node6</title>
<path fill="none" stroke="midnightblue" d="M543.33,-56.44C563.32,-47.6 594.74,-33.69 617.56,-23.59"/>
<polygon fill="midnightblue" stroke="midnightblue" points="619.03,-26.76 626.76,-19.52 616.2,-20.36 619.03,-26.76"/>
</g>
<!-- Node12&#45;&gt;Node9 -->
<g id="edge31" class="edge">
<title>Node12&#45;&gt;Node9</title>
<path fill="none" stroke="midnightblue" d="M402.19,-280.32C419.35,-271.66 445.95,-258.24 465.75,-248.25"/>
<polygon fill="midnightblue" stroke="midnightblue" points="467.5,-251.28 474.85,-243.65 464.35,-245.04 467.5,-251.28"/>
</g>
<!-- Node13 -->
<g id="node13" class="node">
<title>Node13</title>
<g id="a_node13"><a xlink:href="clist_8h.html" target="_top" xlink:title="Circular linked list.">
<polygon fill="none" stroke="black" points="166,-112.5 166,-131.5 212,-131.5 212,-112.5 166,-112.5"/>
<text text-anchor="middle" x="189" y="-119.5" font-family="Helvetica,sans-Serif" font-size="10.00">clist.h</text>
</a>
</g>
</g>
<!-- Node12&#45;&gt;Node13 -->
<g id="edge15" class="edge">
<title>Node12&#45;&gt;Node13</title>
<path fill="none" stroke="midnightblue" d="M370.94,-280.49C357.05,-271.88 335.43,-257.88 318,-244 274.4,-209.29 227.79,-162.98 204.35,-138.96"/>
<polygon fill="midnightblue" stroke="midnightblue" points="206.8,-136.46 197.32,-131.72 201.77,-141.34 206.8,-136.46"/>
</g>
<!-- Node14 -->
<g id="node14" class="node">
<title>Node14</title>
<g id="a_node14"><a xlink:href="cib_8h.html" target="_top" xlink:title="Circular integer buffer interface.">
<polygon fill="none" stroke="black" points="334,-224.5 334,-243.5 374,-243.5 374,-224.5 334,-224.5"/>
<text text-anchor="middle" x="354" y="-231.5" font-family="Helvetica,sans-Serif" font-size="10.00">cib.h</text>
</a>
</g>
</g>
<!-- Node12&#45;&gt;Node14 -->
<g id="edge18" class="edge">
<title>Node12&#45;&gt;Node14</title>
<path fill="none" stroke="midnightblue" d="M379.88,-280.08C375.59,-272.61 369.34,-261.72 364.06,-252.52"/>
<polygon fill="midnightblue" stroke="midnightblue" points="367.04,-250.68 359.02,-243.75 360.97,-254.17 367.04,-250.68"/>
</g>
<!-- Node17 -->
<g id="node17" class="node">
<title>Node17</title>
<g id="a_node17"><a xlink:href="msg_8h.html" target="_top" xlink:title="Messaging API for inter process communication.">
<polygon fill="none" stroke="black" points="392.5,-224.5 392.5,-243.5 439.5,-243.5 439.5,-224.5 392.5,-224.5"/>
<text text-anchor="middle" x="416" y="-231.5" font-family="Helvetica,sans-Serif" font-size="10.00">msg.h</text>
</a>
</g>
</g>
<!-- Node12&#45;&gt;Node17 -->
<g id="edge22" class="edge">
<title>Node12&#45;&gt;Node17</title>
<path fill="none" stroke="midnightblue" d="M390.12,-280.08C394.41,-272.61 400.66,-261.72 405.94,-252.52"/>
<polygon fill="midnightblue" stroke="midnightblue" points="409.03,-254.17 410.98,-243.75 402.96,-250.68 409.03,-254.17"/>
</g>
<!-- Node18 -->
<g id="node18" class="node">
<title>Node18</title>
<g id="a_node18"><a xlink:href="sched_8h.html" target="_top" xlink:title="Scheduler API definition.">
<polygon fill="none" stroke="black" points="318,-168.5 318,-187.5 372,-187.5 372,-168.5 318,-168.5"/>
<text text-anchor="middle" x="345" y="-175.5" font-family="Helvetica,sans-Serif" font-size="10.00">sched.h</text>
</a>
</g>
</g>
<!-- Node12&#45;&gt;Node18 -->
<g id="edge32" class="edge">
<title>Node12&#45;&gt;Node18</title>
<path fill="none" stroke="midnightblue" d="M365.7,-280.48C351.57,-273.08 333.44,-260.89 325,-244 317.35,-228.7 324.76,-209.91 332.64,-196.47"/>
<polygon fill="midnightblue" stroke="midnightblue" points="335.78,-198.06 338.25,-187.76 329.89,-194.27 335.78,-198.06"/>
</g>
<!-- Node13&#45;&gt;Node5 -->
<g id="edge16" class="edge">
<title>Node13&#45;&gt;Node5</title>
<path fill="none" stroke="midnightblue" d="M208.07,-112.37C250.65,-93.09 353.68,-46.45 403.75,-23.79"/>
<polygon fill="midnightblue" stroke="midnightblue" points="405.35,-26.9 413.02,-19.59 402.47,-20.53 405.35,-26.9"/>
</g>
<!-- Node13&#45;&gt;Node11 -->
<g id="edge17" class="edge">
<title>Node13&#45;&gt;Node11</title>
<path fill="none" stroke="midnightblue" d="M185.7,-112.08C183.02,-104.85 179.15,-94.41 175.81,-85.4"/>
<polygon fill="midnightblue" stroke="midnightblue" points="179,-83.91 172.24,-75.75 172.43,-86.34 179,-83.91"/>
</g>
<!-- Node15 -->
<g id="node15" class="node">
<title>Node15</title>
<g id="a_node15"><a xlink:href="assert_8h.html" target="_top" xlink:title="POSIX.1&#45;2008 compliant version of the assert macro.">
<polygon fill="none" stroke="black" points="390,-168.5 390,-187.5 446,-187.5 446,-168.5 390,-168.5"/>
<text text-anchor="middle" x="418" y="-175.5" font-family="Helvetica,sans-Serif" font-size="10.00">assert.h</text>
</a>
</g>
</g>
<!-- Node14&#45;&gt;Node15 -->
<g id="edge19" class="edge">
<title>Node14&#45;&gt;Node15</title>
<path fill="none" stroke="midnightblue" d="M364.28,-224.32C373.84,-216.26 388.28,-204.08 399.78,-194.37"/>
<polygon fill="midnightblue" stroke="midnightblue" points="402.14,-196.96 407.53,-187.83 397.63,-191.61 402.14,-196.96"/>
</g>
<!-- Node16 -->
<g id="node16" class="node">
<title>Node16</title>
<g id="a_node16"><a xlink:href="panic_8h.html" target="_top" xlink:title="Crash handling header.">
<polygon fill="none" stroke="black" points="498,-112.5 498,-131.5 550,-131.5 550,-112.5 498,-112.5"/>
<text text-anchor="middle" x="524" y="-119.5" font-family="Helvetica,sans-Serif" font-size="10.00">panic.h</text>
</a>
</g>
</g>
<!-- Node15&#45;&gt;Node16 -->
<g id="edge20" class="edge">
<title>Node15&#45;&gt;Node16</title>
<path fill="none" stroke="midnightblue" d="M435.03,-168.32C452.03,-159.66 478.38,-146.24 497.99,-136.25"/>
<polygon fill="midnightblue" stroke="midnightblue" points="499.69,-139.31 507.01,-131.65 496.51,-133.08 499.69,-139.31"/>
</g>
<!-- Node16&#45;&gt;Node10 -->
<g id="edge21" class="edge">
<title>Node16&#45;&gt;Node10</title>
<path fill="none" stroke="midnightblue" d="M524,-112.08C524,-105.01 524,-94.86 524,-85.99"/>
<polygon fill="midnightblue" stroke="midnightblue" points="527.5,-85.75 524,-75.75 520.5,-85.75 527.5,-85.75"/>
</g>
<!-- Node17&#45;&gt;Node6 -->
<g id="edge23" class="edge">
<title>Node17&#45;&gt;Node6</title>
<path fill="none" stroke="midnightblue" d="M425,-224.35C438.89,-211.25 466.73,-185.98 493,-168 520.57,-149.13 533.95,-154.12 559,-132 593.93,-101.16 622.77,-53.83 636.8,-28.47"/>
<polygon fill="midnightblue" stroke="midnightblue" points="639.91,-30.09 641.59,-19.62 633.75,-26.75 639.91,-30.09"/>
</g>
<!-- Node17&#45;&gt;Node8 -->
<g id="edge24" class="edge">
<title>Node17&#45;&gt;Node8</title>
<path fill="none" stroke="midnightblue" d="M434.54,-224.44C453.62,-215.64 483.57,-201.81 505.44,-191.72"/>
<polygon fill="midnightblue" stroke="midnightblue" points="506.93,-194.88 514.55,-187.52 504,-188.53 506.93,-194.88"/>
</g>
<!-- Node17&#45;&gt;Node18 -->
<g id="edge25" class="edge">
<title>Node17&#45;&gt;Node18</title>
<path fill="none" stroke="midnightblue" d="M404.59,-224.32C393.89,-216.18 377.66,-203.84 364.84,-194.09"/>
<polygon fill="midnightblue" stroke="midnightblue" points="366.69,-191.1 356.61,-187.83 362.46,-196.67 366.69,-191.1"/>
</g>
<!-- Node18&#45;&gt;Node5 -->
<g id="edge26" class="edge">
<title>Node18&#45;&gt;Node5</title>
<path fill="none" stroke="midnightblue" d="M366.66,-168.39C382.12,-161.08 402.06,-149.03 413,-132 433.23,-100.5 434.62,-55.11 433.52,-29.82"/>
<polygon fill="midnightblue" stroke="midnightblue" points="437.01,-29.51 432.89,-19.74 430.02,-29.94 437.01,-29.51"/>
</g>
<!-- Node18&#45;&gt;Node10 -->
<g id="edge28" class="edge">
<title>Node18&#45;&gt;Node10</title>
<path fill="none" stroke="midnightblue" d="M369.2,-168.39C390.27,-160.4 421.23,-147.42 446,-132 468.98,-117.69 492.46,-97.16 507.57,-83.02"/>
<polygon fill="midnightblue" stroke="midnightblue" points="510.21,-85.33 515.04,-75.9 505.39,-80.26 510.21,-85.33"/>
</g>
<!-- Node18&#45;&gt;Node13 -->
<g id="edge30" class="edge">
<title>Node18&#45;&gt;Node13</title>
<path fill="none" stroke="midnightblue" d="M320.28,-168.44C293.69,-159.24 251.27,-144.56 221.88,-134.38"/>
<polygon fill="midnightblue" stroke="midnightblue" points="222.67,-130.95 212.08,-130.99 220.38,-137.57 222.67,-130.95"/>
</g>
<!-- Node19 -->
<g id="node19" class="node">
<title>Node19</title>
<g id="a_node19"><a xlink:href="inttypes_8h.html" target="_top" xlink:title="Adds include for missing inttype definitions.">
<polygon fill="none" stroke="black" points="230.5,-112.5 230.5,-131.5 295.5,-131.5 295.5,-112.5 230.5,-112.5"/>
<text text-anchor="middle" x="263" y="-119.5" font-family="Helvetica,sans-Serif" font-size="10.00">inttypes.h</text>
</a>
</g>
</g>
<!-- Node18&#45;&gt;Node19 -->
<g id="edge27" class="edge">
<title>Node18&#45;&gt;Node19</title>
<path fill="none" stroke="midnightblue" d="M331.83,-168.32C319.15,-159.98 299.77,-147.21 284.79,-137.35"/>
<polygon fill="midnightblue" stroke="midnightblue" points="286.42,-134.23 276.14,-131.65 282.57,-140.08 286.42,-134.23"/>
</g>
<!-- Node20 -->
<g id="node20" class="node">
<title>Node20</title>
<g id="a_node20"><a xlink:href="native__sched_8h.html" target="_top" xlink:title="Add definitions required on the native board.">
<polygon fill="none" stroke="black" points="314,-112.5 314,-131.5 404,-131.5 404,-112.5 314,-112.5"/>
<text text-anchor="middle" x="359" y="-119.5" font-family="Helvetica,sans-Serif" font-size="10.00">native_sched.h</text>
</a>
</g>
</g>
<!-- Node18&#45;&gt;Node20 -->
<g id="edge29" class="edge">
<title>Node18&#45;&gt;Node20</title>
<path fill="none" stroke="midnightblue" d="M347.31,-168.08C349.17,-160.93 351.84,-150.64 354.15,-141.69"/>
<polygon fill="midnightblue" stroke="midnightblue" points="357.61,-142.31 356.73,-131.75 350.83,-140.55 357.61,-142.31"/>
</g>
<!-- Node21&#45;&gt;Node5 -->
<g id="edge34" class="edge">
<title>Node21&#45;&gt;Node5</title>
<path fill="none" stroke="midnightblue" d="M644.07,-56.44C596.33,-46.21 517.01,-29.22 470.1,-19.16"/>
<polygon fill="midnightblue" stroke="midnightblue" points="470.55,-15.68 460.04,-17.01 469.08,-22.53 470.55,-15.68"/>
</g>
<!-- Node21&#45;&gt;Node6 -->
<g id="edge35" class="edge">
<title>Node21&#45;&gt;Node6</title>
<path fill="none" stroke="midnightblue" d="M677.73,-56.08C672.36,-48.46 664.48,-37.26 657.92,-27.94"/>
<polygon fill="midnightblue" stroke="midnightblue" points="660.78,-25.91 652.16,-19.75 655.05,-29.94 660.78,-25.91"/>
</g>
</g>
</svg>
