<?xml version="1.0" encoding="UTF-8" standalone="no"?>
<!DOCTYPE svg PUBLIC "-//W3C//DTD SVG 1.1//EN"
 "http://www.w3.org/Graphics/SVG/1.1/DTD/svg11.dtd">
<!-- Generated by graphviz version 2.43.0 (0)
 -->
<!-- Title: drivers/include/pulse_counter.h Pages: 1 -->
<svg width="352pt" height="151pt"
 viewBox="0.00 0.00 351.50 151.00" xmlns="http://www.w3.org/2000/svg" xmlns:xlink="http://www.w3.org/1999/xlink">
<g id="graph0" class="graph" transform="scale(1 1) rotate(0) translate(4 147)">
<title>drivers/include/pulse_counter.h</title>
<!-- Node1 -->
<g id="node1" class="node">
<title>Node1</title>
<g id="a_node1"><a xlink:title="Driver for the pulse counter.">
<polygon fill="#bfbfbf" stroke="black" points="49.5,-112.5 49.5,-142.5 167.5,-142.5 167.5,-112.5 49.5,-112.5"/>
<text text-anchor="start" x="57.5" y="-130.5" font-family="Helvetica,sans-Serif" font-size="10.00">drivers/include/pulse</text>
<text text-anchor="middle" x="108.5" y="-119.5" font-family="Helvetica,sans-Serif" font-size="10.00">_counter.h</text>
</a>
</g>
</g>
<!-- Node2 -->
<g id="node2" class="node">
<title>Node2</title>
<g id="a_node2"><a xlink:title=" ">
<polygon fill="none" stroke="#bfbfbf" points="0,-56.5 0,-75.5 53,-75.5 53,-56.5 0,-56.5"/>
<text text-anchor="middle" x="26.5" y="-63.5" font-family="Helvetica,sans-Serif" font-size="10.00">stdint.h</text>
</a>
</g>
</g>
<!-- Node1&#45;&gt;Node2 -->
<g id="edge1" class="edge">
<title>Node1&#45;&gt;Node2</title>
<path fill="none" stroke="midnightblue" d="M89.07,-112.4C76.29,-103.13 59.61,-91.03 46.69,-81.65"/>
<polygon fill="midnightblue" stroke="midnightblue" points="48.58,-78.7 38.43,-75.66 44.47,-84.36 48.58,-78.7"/>
</g>
<!-- Node3 -->
<g id="node3" class="node">
<title>Node3</title>
<g id="a_node3"><a xlink:title=" ">
<polygon fill="none" stroke="#bfbfbf" points="71.5,-56.5 71.5,-75.5 145.5,-75.5 145.5,-56.5 71.5,-56.5"/>
<text text-anchor="middle" x="108.5" y="-63.5" font-family="Helvetica,sans-Serif" font-size="10.00">stdatomic.h</text>
</a>
</g>
</g>
<!-- Node1&#45;&gt;Node3 -->
<g id="edge2" class="edge">
<title>Node1&#45;&gt;Node3</title>
<path fill="none" stroke="midnightblue" d="M108.5,-112.4C108.5,-104.47 108.5,-94.46 108.5,-85.86"/>
<polygon fill="midnightblue" stroke="midnightblue" points="112,-85.66 108.5,-75.66 105,-85.66 112,-85.66"/>
</g>
<!-- Node4 -->
<g id="node4" class="node">
<title>Node4</title>
<g id="a_node4"><a xlink:href="gpio_8h.html" target="_top" xlink:title="Low&#45;level GPIO peripheral driver interface definitions.">
<polygon fill="none" stroke="black" points="163.5,-56.5 163.5,-75.5 243.5,-75.5 243.5,-56.5 163.5,-56.5"/>
<text text-anchor="middle" x="203.5" y="-63.5" font-family="Helvetica,sans-Serif" font-size="10.00">periph/gpio.h</text>
</a>
</g>
</g>
<!-- Node1&#45;&gt;Node4 -->
<g id="edge3" class="edge">
<title>Node1&#45;&gt;Node4</title>
<path fill="none" stroke="midnightblue" d="M131.01,-112.4C146.1,-102.95 165.89,-90.56 180.97,-81.11"/>
<polygon fill="midnightblue" stroke="midnightblue" points="183.06,-83.93 189.68,-75.66 179.34,-78 183.06,-83.93"/>
</g>
<!-- Node5 -->
<g id="node5" class="node">
<title>Node5</title>
<g id="a_node5"><a xlink:title=" ">
<polygon fill="none" stroke="#bfbfbf" points="93,-0.5 93,-19.5 146,-19.5 146,-0.5 93,-0.5"/>
<text text-anchor="middle" x="119.5" y="-7.5" font-family="Helvetica,sans-Serif" font-size="10.00">limits.h</text>
</a>
</g>
</g>
<!-- Node4&#45;&gt;Node5 -->
<g id="edge4" class="edge">
<title>Node4&#45;&gt;Node5</title>
<path fill="none" stroke="midnightblue" d="M190,-56.32C176.9,-47.9 156.79,-34.97 141.39,-25.07"/>
<polygon fill="midnightblue" stroke="midnightblue" points="143.27,-22.12 132.96,-19.65 139.48,-28.01 143.27,-22.12"/>
</g>
<!-- Node6 -->
<g id="node6" class="node">
<title>Node6</title>
<g id="a_node6"><a xlink:title=" ">
<polygon fill="none" stroke="#bfbfbf" points="164,-0.5 164,-19.5 243,-19.5 243,-0.5 164,-0.5"/>
<text text-anchor="middle" x="203.5" y="-7.5" font-family="Helvetica,sans-Serif" font-size="10.00">periph_cpu.h</text>
</a>
</g>
</g>
<!-- Node4&#45;&gt;Node6 -->
<g id="edge5" class="edge">
<title>Node4&#45;&gt;Node6</title>
<path fill="none" stroke="midnightblue" d="M203.5,-56.08C203.5,-49.01 203.5,-38.86 203.5,-29.99"/>
<polygon fill="midnightblue" stroke="midnightblue" points="207,-29.75 203.5,-19.75 200,-29.75 207,-29.75"/>
</g>
<!-- Node7 -->
<g id="node7" class="node">
<title>Node7</title>
<g id="a_node7"><a xlink:title=" ">
<polygon fill="none" stroke="#bfbfbf" points="261.5,-0.5 261.5,-19.5 343.5,-19.5 343.5,-0.5 261.5,-0.5"/>
<text text-anchor="middle" x="302.5" y="-7.5" font-family="Helvetica,sans-Serif" font-size="10.00">periph_conf.h</text>
</a>
</g>
</g>
<!-- Node4&#45;&gt;Node7 -->
<g id="edge6" class="edge">
<title>Node4&#45;&gt;Node7</title>
<path fill="none" stroke="midnightblue" d="M219.41,-56.32C235.14,-47.74 259.44,-34.49 277.71,-24.52"/>
<polygon fill="midnightblue" stroke="midnightblue" points="279.53,-27.52 286.63,-19.65 276.18,-21.37 279.53,-27.52"/>
</g>
</g>
</svg>
