<?xml version="1.0" encoding="UTF-8" standalone="no"?>
<!DOCTYPE svg PUBLIC "-//W3C//DTD SVG 1.1//EN"
 "http://www.w3.org/Graphics/SVG/1.1/DTD/svg11.dtd">
<!-- Generated by graphviz version 2.43.0 (0)
 -->
<!-- Title: drivers/pulse_counter/include/pulse_counter_params.h Pages: 1 -->
<svg width="541pt" height="330pt"
 viewBox="0.00 0.00 540.50 330.00" xmlns="http://www.w3.org/2000/svg" xmlns:xlink="http://www.w3.org/1999/xlink">
<g id="graph0" class="graph" transform="scale(1 1) rotate(0) translate(4 326)">
<title>drivers/pulse_counter/include/pulse_counter_params.h</title>
<!-- Node1 -->
<g id="node1" class="node">
<title>Node1</title>
<g id="a_node1"><a xlink:title="Default configuration for PULSE_COUNTER devices.">
<polygon fill="#bfbfbf" stroke="black" points="55.5,-280.5 55.5,-321.5 181.5,-321.5 181.5,-280.5 55.5,-280.5"/>
<text text-anchor="start" x="63.5" y="-309.5" font-family="Helvetica,sans-Serif" font-size="10.00">drivers/pulse_counter</text>
<text text-anchor="start" x="63.5" y="-298.5" font-family="Helvetica,sans-Serif" font-size="10.00">/include/pulse_counter</text>
<text text-anchor="middle" x="118.5" y="-287.5" font-family="Helvetica,sans-Serif" font-size="10.00">_params.h</text>
</a>
</g>
</g>
<!-- Node2 -->
<g id="node2" class="node">
<title>Node2</title>
<g id="a_node2"><a xlink:title=" ">
<polygon fill="none" stroke="#bfbfbf" points="0,-224.5 0,-243.5 53,-243.5 53,-224.5 0,-224.5"/>
<text text-anchor="middle" x="26.5" y="-231.5" font-family="Helvetica,sans-Serif" font-size="10.00">board.h</text>
</a>
</g>
</g>
<!-- Node1&#45;&gt;Node2 -->
<g id="edge1" class="edge">
<title>Node1&#45;&gt;Node2</title>
<path fill="none" stroke="midnightblue" d="M90.9,-280.5C76.79,-270.53 59.92,-258.61 46.99,-249.48"/>
<polygon fill="midnightblue" stroke="midnightblue" points="48.93,-246.56 38.75,-243.65 44.89,-252.28 48.93,-246.56"/>
</g>
<!-- Node3 -->
<g id="node3" class="node">
<title>Node3</title>
<g id="a_node3"><a xlink:href="pulse__counter_8h.html" target="_top" xlink:title="Driver for the pulse counter.">
<polygon fill="none" stroke="black" points="71.5,-224.5 71.5,-243.5 165.5,-243.5 165.5,-224.5 71.5,-224.5"/>
<text text-anchor="middle" x="118.5" y="-231.5" font-family="Helvetica,sans-Serif" font-size="10.00">pulse_counter.h</text>
</a>
</g>
</g>
<!-- Node1&#45;&gt;Node3 -->
<g id="edge2" class="edge">
<title>Node1&#45;&gt;Node3</title>
<path fill="none" stroke="midnightblue" d="M118.5,-280.5C118.5,-272.07 118.5,-262.24 118.5,-253.87"/>
<polygon fill="midnightblue" stroke="midnightblue" points="122,-253.65 118.5,-243.65 115,-253.65 122,-253.65"/>
</g>
<!-- Node10 -->
<g id="node10" class="node">
<title>Node10</title>
<g id="a_node10"><a xlink:href="saul__reg_8h.html" target="_top" xlink:title="SAUL registry interface definition.">
<polygon fill="none" stroke="black" points="315,-224.5 315,-243.5 382,-243.5 382,-224.5 315,-224.5"/>
<text text-anchor="middle" x="348.5" y="-231.5" font-family="Helvetica,sans-Serif" font-size="10.00">saul_reg.h</text>
</a>
</g>
</g>
<!-- Node1&#45;&gt;Node10 -->
<g id="edge9" class="edge">
<title>Node1&#45;&gt;Node10</title>
<path fill="none" stroke="midnightblue" d="M181.65,-282.15C222.08,-270.73 273.32,-256.25 308.28,-246.37"/>
<polygon fill="midnightblue" stroke="midnightblue" points="309.46,-249.67 318.13,-243.58 307.55,-242.93 309.46,-249.67"/>
</g>
<!-- Node4 -->
<g id="node4" class="node">
<title>Node4</title>
<g id="a_node4"><a xlink:title=" ">
<polygon fill="none" stroke="#bfbfbf" points="325,-0.5 325,-19.5 378,-19.5 378,-0.5 325,-0.5"/>
<text text-anchor="middle" x="351.5" y="-7.5" font-family="Helvetica,sans-Serif" font-size="10.00">stdint.h</text>
</a>
</g>
</g>
<!-- Node3&#45;&gt;Node4 -->
<g id="edge3" class="edge">
<title>Node3&#45;&gt;Node4</title>
<path fill="none" stroke="midnightblue" d="M79.25,-224.48C59.5,-217.99 37.32,-206.84 25.5,-188 7.56,-159.38 5.46,-139.19 25.5,-112 60.33,-64.74 236.6,-30.12 314.45,-16.9"/>
<polygon fill="midnightblue" stroke="midnightblue" points="315.47,-20.27 324.76,-15.17 314.32,-13.37 315.47,-20.27"/>
</g>
<!-- Node5 -->
<g id="node5" class="node">
<title>Node5</title>
<g id="a_node5"><a xlink:title=" ">
<polygon fill="none" stroke="#bfbfbf" points="34.5,-168.5 34.5,-187.5 108.5,-187.5 108.5,-168.5 34.5,-168.5"/>
<text text-anchor="middle" x="71.5" y="-175.5" font-family="Helvetica,sans-Serif" font-size="10.00">stdatomic.h</text>
</a>
</g>
</g>
<!-- Node3&#45;&gt;Node5 -->
<g id="edge4" class="edge">
<title>Node3&#45;&gt;Node5</title>
<path fill="none" stroke="midnightblue" d="M110.74,-224.08C103.96,-216.3 93.96,-204.8 85.74,-195.37"/>
<polygon fill="midnightblue" stroke="midnightblue" points="88.32,-193 79.12,-187.75 83.04,-197.59 88.32,-193"/>
</g>
<!-- Node6 -->
<g id="node6" class="node">
<title>Node6</title>
<g id="a_node6"><a xlink:href="gpio_8h.html" target="_top" xlink:title="Low&#45;level GPIO peripheral driver interface definitions.">
<polygon fill="none" stroke="black" points="126.5,-168.5 126.5,-187.5 206.5,-187.5 206.5,-168.5 126.5,-168.5"/>
<text text-anchor="middle" x="166.5" y="-175.5" font-family="Helvetica,sans-Serif" font-size="10.00">periph/gpio.h</text>
</a>
</g>
</g>
<!-- Node3&#45;&gt;Node6 -->
<g id="edge5" class="edge">
<title>Node3&#45;&gt;Node6</title>
<path fill="none" stroke="midnightblue" d="M126.43,-224.08C133.35,-216.3 143.57,-204.8 151.95,-195.37"/>
<polygon fill="midnightblue" stroke="midnightblue" points="154.69,-197.55 158.72,-187.75 149.46,-192.9 154.69,-197.55"/>
</g>
<!-- Node7 -->
<g id="node7" class="node">
<title>Node7</title>
<g id="a_node7"><a xlink:title=" ">
<polygon fill="none" stroke="#bfbfbf" points="35,-112.5 35,-131.5 88,-131.5 88,-112.5 35,-112.5"/>
<text text-anchor="middle" x="61.5" y="-119.5" font-family="Helvetica,sans-Serif" font-size="10.00">limits.h</text>
</a>
</g>
</g>
<!-- Node6&#45;&gt;Node7 -->
<g id="edge6" class="edge">
<title>Node6&#45;&gt;Node7</title>
<path fill="none" stroke="midnightblue" d="M149.63,-168.32C132.79,-159.66 106.69,-146.24 87.26,-136.25"/>
<polygon fill="midnightblue" stroke="midnightblue" points="88.82,-133.12 78.33,-131.65 85.62,-139.34 88.82,-133.12"/>
</g>
<!-- Node8 -->
<g id="node8" class="node">
<title>Node8</title>
<g id="a_node8"><a xlink:title=" ">
<polygon fill="none" stroke="#bfbfbf" points="106,-112.5 106,-131.5 185,-131.5 185,-112.5 106,-112.5"/>
<text text-anchor="middle" x="145.5" y="-119.5" font-family="Helvetica,sans-Serif" font-size="10.00">periph_cpu.h</text>
</a>
</g>
</g>
<!-- Node6&#45;&gt;Node8 -->
<g id="edge7" class="edge">
<title>Node6&#45;&gt;Node8</title>
<path fill="none" stroke="midnightblue" d="M163.03,-168.08C160.19,-160.77 156.07,-150.18 152.54,-141.1"/>
<polygon fill="midnightblue" stroke="midnightblue" points="155.79,-139.8 148.9,-131.75 149.27,-142.34 155.79,-139.8"/>
</g>
<!-- Node9 -->
<g id="node9" class="node">
<title>Node9</title>
<g id="a_node9"><a xlink:title=" ">
<polygon fill="none" stroke="#bfbfbf" points="203.5,-112.5 203.5,-131.5 285.5,-131.5 285.5,-112.5 203.5,-112.5"/>
<text text-anchor="middle" x="244.5" y="-119.5" font-family="Helvetica,sans-Serif" font-size="10.00">periph_conf.h</text>
</a>
</g>
</g>
<!-- Node6&#45;&gt;Node9 -->
<g id="edge8" class="edge">
<title>Node6&#45;&gt;Node9</title>
<path fill="none" stroke="midnightblue" d="M179.03,-168.32C191.09,-159.98 209.53,-147.21 223.77,-137.35"/>
<polygon fill="midnightblue" stroke="midnightblue" points="225.77,-140.22 232,-131.65 221.78,-134.47 225.77,-140.22"/>
</g>
<!-- Node10&#45;&gt;Node4 -->
<g id="edge10" class="edge">
<title>Node10&#45;&gt;Node4</title>
<path fill="none" stroke="midnightblue" d="M348.62,-224.3C349.06,-191.63 350.62,-75.87 351.24,-29.96"/>
<polygon fill="midnightblue" stroke="midnightblue" points="354.74,-29.93 351.38,-19.88 347.75,-29.84 354.74,-29.93"/>
</g>
<!-- Node11 -->
<g id="node11" class="node">
<title>Node11</title>
<g id="a_node11"><a xlink:href="saul_8h.html" target="_top" xlink:title="Definition of the generic [S]ensor [A]ctuator [U]ber [L]ayer.">
<polygon fill="none" stroke="black" points="361.5,-168.5 361.5,-187.5 407.5,-187.5 407.5,-168.5 361.5,-168.5"/>
<text text-anchor="middle" x="384.5" y="-175.5" font-family="Helvetica,sans-Serif" font-size="10.00">saul.h</text>
</a>
</g>
</g>
<!-- Node10&#45;&gt;Node11 -->
<g id="edge11" class="edge">
<title>Node10&#45;&gt;Node11</title>
<path fill="none" stroke="midnightblue" d="M354.44,-224.08C359.48,-216.53 366.84,-205.49 373.01,-196.23"/>
<polygon fill="midnightblue" stroke="midnightblue" points="376.03,-198.01 378.67,-187.75 370.21,-194.13 376.03,-198.01"/>
</g>
<!-- Node13 -->
<g id="node13" class="node">
<title>Node13</title>
<g id="a_node13"><a xlink:href="phydat_8h.html" target="_top" xlink:title="Generic data container for physical data interface.">
<polygon fill="none" stroke="black" points="449,-112.5 449,-131.5 508,-131.5 508,-112.5 449,-112.5"/>
<text text-anchor="middle" x="478.5" y="-119.5" font-family="Helvetica,sans-Serif" font-size="10.00">phydat.h</text>
</a>
</g>
</g>
<!-- Node10&#45;&gt;Node13 -->
<g id="edge20" class="edge">
<title>Node10&#45;&gt;Node13</title>
<path fill="none" stroke="midnightblue" d="M363.5,-224.42C377.74,-215.96 399.46,-202.26 416.5,-188 434.53,-172.92 452.82,-153.06 464.81,-139.28"/>
<polygon fill="midnightblue" stroke="midnightblue" points="467.56,-141.46 471.41,-131.59 462.24,-136.9 467.56,-141.46"/>
</g>
<!-- Node11&#45;&gt;Node4 -->
<g id="edge12" class="edge">
<title>Node11&#45;&gt;Node4</title>
<path fill="none" stroke="midnightblue" d="M381.7,-168.45C378.84,-159.46 374.41,-144.85 371.5,-132 363.38,-96.13 357.11,-53.58 353.9,-29.69"/>
<polygon fill="midnightblue" stroke="midnightblue" points="357.34,-29.03 352.56,-19.58 350.4,-29.95 357.34,-29.03"/>
</g>
<!-- Node12 -->
<g id="node12" class="node">
<title>Node12</title>
<g id="a_node12"><a xlink:href="errno_8h.html" target="_top" xlink:title=" ">
<polygon fill="none" stroke="black" points="380,-112.5 380,-131.5 431,-131.5 431,-112.5 380,-112.5"/>
<text text-anchor="middle" x="405.5" y="-119.5" font-family="Helvetica,sans-Serif" font-size="10.00">errno.h</text>
</a>
</g>
</g>
<!-- Node11&#45;&gt;Node12 -->
<g id="edge13" class="edge">
<title>Node11&#45;&gt;Node12</title>
<path fill="none" stroke="midnightblue" d="M387.97,-168.08C390.81,-160.77 394.93,-150.18 398.46,-141.1"/>
<polygon fill="midnightblue" stroke="midnightblue" points="401.73,-142.34 402.1,-131.75 395.21,-139.8 401.73,-142.34"/>
</g>
<!-- Node11&#45;&gt;Node13 -->
<g id="edge14" class="edge">
<title>Node11&#45;&gt;Node13</title>
<path fill="none" stroke="midnightblue" d="M399.6,-168.32C414.4,-159.82 437.19,-146.73 454.48,-136.8"/>
<polygon fill="midnightblue" stroke="midnightblue" points="456.51,-139.67 463.43,-131.65 453.02,-133.6 456.51,-139.67"/>
</g>
<!-- Node13&#45;&gt;Node4 -->
<g id="edge16" class="edge">
<title>Node13&#45;&gt;Node4</title>
<path fill="none" stroke="midnightblue" d="M462.88,-112.42C448.34,-104.07 426.42,-90.54 409.5,-76 392.38,-61.28 375.5,-41.62 364.41,-27.79"/>
<polygon fill="midnightblue" stroke="midnightblue" points="366.94,-25.35 358,-19.66 361.44,-29.68 366.94,-25.35"/>
</g>
<!-- Node14 -->
<g id="node14" class="node">
<title>Node14</title>
<g id="a_node14"><a xlink:title=" ">
<polygon fill="none" stroke="#bfbfbf" points="476.5,-0.5 476.5,-19.5 532.5,-19.5 532.5,-0.5 476.5,-0.5"/>
<text text-anchor="middle" x="504.5" y="-7.5" font-family="Helvetica,sans-Serif" font-size="10.00">stddef.h</text>
</a>
</g>
</g>
<!-- Node13&#45;&gt;Node14 -->
<g id="edge15" class="edge">
<title>Node13&#45;&gt;Node14</title>
<path fill="none" stroke="midnightblue" d="M492.29,-112.19C503.33,-104.24 518,-91.45 524.5,-76 531.13,-60.24 523.86,-41.5 516.29,-28.21"/>
<polygon fill="midnightblue" stroke="midnightblue" points="519.18,-26.24 510.92,-19.61 513.25,-29.94 519.18,-26.24"/>
</g>
<!-- Node15 -->
<g id="node15" class="node">
<title>Node15</title>
<g id="a_node15"><a xlink:href="kernel__defines_8h.html" target="_top" xlink:title="Common macros and compiler attributes/pragmas configuration.">
<polygon fill="none" stroke="black" points="418,-56.5 418,-75.5 515,-75.5 515,-56.5 418,-56.5"/>
<text text-anchor="middle" x="466.5" y="-63.5" font-family="Helvetica,sans-Serif" font-size="10.00">kernel_defines.h</text>
</a>
</g>
</g>
<!-- Node13&#45;&gt;Node15 -->
<g id="edge17" class="edge">
<title>Node13&#45;&gt;Node15</title>
<path fill="none" stroke="midnightblue" d="M476.52,-112.08C474.93,-104.93 472.64,-94.64 470.65,-85.69"/>
<polygon fill="midnightblue" stroke="midnightblue" points="474.03,-84.75 468.44,-75.75 467.2,-86.27 474.03,-84.75"/>
</g>
<!-- Node15&#45;&gt;Node4 -->
<g id="edge19" class="edge">
<title>Node15&#45;&gt;Node4</title>
<path fill="none" stroke="midnightblue" d="M448.28,-56.44C429.6,-47.68 400.34,-33.94 378.88,-23.86"/>
<polygon fill="midnightblue" stroke="midnightblue" points="380.18,-20.6 369.64,-19.52 377.2,-26.93 380.18,-20.6"/>
</g>
<!-- Node15&#45;&gt;Node14 -->
<g id="edge18" class="edge">
<title>Node15&#45;&gt;Node14</title>
<path fill="none" stroke="midnightblue" d="M472.77,-56.08C478.14,-48.46 486.02,-37.26 492.58,-27.94"/>
<polygon fill="midnightblue" stroke="midnightblue" points="495.45,-29.94 498.34,-19.75 489.72,-25.91 495.45,-29.94"/>
</g>
</g>
</svg>
