<?xml version="1.0" encoding="UTF-8" standalone="no"?>
<!DOCTYPE svg PUBLIC "-//W3C//DTD SVG 1.1//EN"
 "http://www.w3.org/Graphics/SVG/1.1/DTD/svg11.dtd">
<!-- Generated by graphviz version 2.40.1 (20161225.0304)
 -->
<!-- Title: drivers/include/pulse_counter.h Pages: 1 -->
<svg width="327pt" height="151pt"
 viewBox="0.00 0.00 327.00 151.00" xmlns="http://www.w3.org/2000/svg" xmlns:xlink="http://www.w3.org/1999/xlink">
<g id="graph0" class="graph" transform="scale(1 1) rotate(0) translate(4 147)">
<title>drivers/include/pulse_counter.h</title>
<!-- Node0 -->
<g id="node1" class="node">
<title>Node0</title>
<polygon fill="#bfbfbf" stroke="#000000" points="48.5,-112.5 48.5,-142.5 154.5,-142.5 154.5,-112.5 48.5,-112.5"/>
<text text-anchor="start" x="56.5" y="-130.5" font-family="Helvetica,sans-Serif" font-size="10.00" fill="#000000">drivers/include/pulse</text>
<text text-anchor="middle" x="101.5" y="-119.5" font-family="Helvetica,sans-Serif" font-size="10.00" fill="#000000">_counter.h</text>
</g>
<!-- Node1 -->
<g id="node2" class="node">
<title>Node1</title>
<polygon fill="none" stroke="#bfbfbf" points="0,-56.5 0,-75.5 49,-75.5 49,-56.5 0,-56.5"/>
<text text-anchor="middle" x="24.5" y="-63.5" font-family="Helvetica,sans-Serif" font-size="10.00" fill="#000000">stdint.h</text>
</g>
<!-- Node0&#45;&gt;Node1 -->
<g id="edge1" class="edge">
<title>Node0&#45;&gt;Node1</title>
<path fill="none" stroke="#191970" d="M82.4663,-112.2977C70.9985,-103.1384 56.4038,-91.4816 44.7281,-82.1562"/>
<polygon fill="#191970" stroke="#191970" points="46.8266,-79.3529 36.8287,-75.8469 42.4581,-84.8225 46.8266,-79.3529"/>
</g>
<!-- Node2 -->
<g id="node3" class="node">
<title>Node2</title>
<polygon fill="none" stroke="#bfbfbf" points="67.5,-56.5 67.5,-75.5 135.5,-75.5 135.5,-56.5 67.5,-56.5"/>
<text text-anchor="middle" x="101.5" y="-63.5" font-family="Helvetica,sans-Serif" font-size="10.00" fill="#000000">stdatomic.h</text>
</g>
<!-- Node0&#45;&gt;Node2 -->
<g id="edge2" class="edge">
<title>Node0&#45;&gt;Node2</title>
<path fill="none" stroke="#191970" d="M101.5,-112.2977C101.5,-104.3834 101.5,-94.6043 101.5,-86.0759"/>
<polygon fill="#191970" stroke="#191970" points="105.0001,-85.8469 101.5,-75.8469 98.0001,-85.847 105.0001,-85.8469"/>
</g>
<!-- Node3 -->
<g id="node4" class="node">
<title>Node3</title>
<g id="a_node4"><a xlink:href="gpio_8h.html" target="_top" xlink:title="Low&#45;level GPIO peripheral driver interface definitions. ">
<polygon fill="none" stroke="#000000" points="153.5,-56.5 153.5,-75.5 225.5,-75.5 225.5,-56.5 153.5,-56.5"/>
<text text-anchor="middle" x="189.5" y="-63.5" font-family="Helvetica,sans-Serif" font-size="10.00" fill="#000000">periph/gpio.h</text>
</a>
</g>
</g>
<!-- Node0&#45;&gt;Node3 -->
<g id="edge3" class="edge">
<title>Node0&#45;&gt;Node3</title>
<path fill="none" stroke="#191970" d="M123.2528,-112.2977C136.6968,-102.9022 153.9011,-90.8787 167.4078,-81.4395"/>
<polygon fill="#191970" stroke="#191970" points="169.4811,-84.2605 175.6729,-75.6633 165.4712,-78.5228 169.4811,-84.2605"/>
</g>
<!-- Node4 -->
<g id="node5" class="node">
<title>Node4</title>
<polygon fill="none" stroke="#bfbfbf" points="87.5,-.5 87.5,-19.5 135.5,-19.5 135.5,-.5 87.5,-.5"/>
<text text-anchor="middle" x="111.5" y="-7.5" font-family="Helvetica,sans-Serif" font-size="10.00" fill="#000000">limits.h</text>
</g>
<!-- Node3&#45;&gt;Node4 -->
<g id="edge4" class="edge">
<title>Node3&#45;&gt;Node4</title>
<path fill="none" stroke="#191970" d="M175.9134,-56.2455C164.1695,-47.814 146.9801,-35.4729 133.3118,-25.6598"/>
<polygon fill="#191970" stroke="#191970" points="135.0954,-22.6316 124.9309,-19.6427 131.0129,-28.3179 135.0954,-22.6316"/>
</g>
<!-- Node5 -->
<g id="node6" class="node">
<title>Node5</title>
<polygon fill="none" stroke="#bfbfbf" points="153.5,-.5 153.5,-19.5 225.5,-19.5 225.5,-.5 153.5,-.5"/>
<text text-anchor="middle" x="189.5" y="-7.5" font-family="Helvetica,sans-Serif" font-size="10.00" fill="#000000">periph_cpu.h</text>
</g>
<!-- Node3&#45;&gt;Node5 -->
<g id="edge5" class="edge">
<title>Node3&#45;&gt;Node5</title>
<path fill="none" stroke="#191970" d="M189.5,-56.2455C189.5,-48.9382 189.5,-38.6944 189.5,-29.7046"/>
<polygon fill="#191970" stroke="#191970" points="193.0001,-29.6426 189.5,-19.6427 186.0001,-29.6427 193.0001,-29.6426"/>
</g>
<!-- Node6 -->
<g id="node7" class="node">
<title>Node6</title>
<polygon fill="none" stroke="#bfbfbf" points="244,-.5 244,-19.5 319,-19.5 319,-.5 244,-.5"/>
<text text-anchor="middle" x="281.5" y="-7.5" font-family="Helvetica,sans-Serif" font-size="10.00" fill="#000000">periph_conf.h</text>
</g>
<!-- Node3&#45;&gt;Node6 -->
<g id="edge6" class="edge">
<title>Node3&#45;&gt;Node6</title>
<path fill="none" stroke="#191970" d="M205.5252,-56.2455C219.6408,-47.6534 240.4263,-35.0014 256.6899,-25.1018"/>
<polygon fill="#191970" stroke="#191970" points="258.9363,-27.8319 265.6585,-19.6427 255.2966,-21.8525 258.9363,-27.8319"/>
</g>
</g>
</svg>
