<?xml version="1.0" encoding="UTF-8" standalone="no"?>
<!DOCTYPE svg PUBLIC "-//W3C//DTD SVG 1.1//EN"
 "http://www.w3.org/Graphics/SVG/1.1/DTD/svg11.dtd">
<!-- Generated by graphviz version 2.40.1 (20161225.0304)
 -->
<!-- Title: drivers/include/periph/pwm.h Pages: 1 -->
<svg width="1272pt" height="251pt"
 viewBox="0.00 0.00 1272.00 251.00" xmlns="http://www.w3.org/2000/svg" xmlns:xlink="http://www.w3.org/1999/xlink">
<g id="graph0" class="graph" transform="scale(1 1) rotate(0) translate(4 247)">
<title>drivers/include/periph/pwm.h</title>
<!-- Node5 -->
<g id="node1" class="node">
<title>Node5</title>
<polygon fill="#bfbfbf" stroke="#000000" points="559,-212.5 559,-242.5 668,-242.5 668,-212.5 559,-212.5"/>
<text text-anchor="start" x="567" y="-230.5" font-family="Helvetica,sans-Serif" font-size="10.00" fill="#000000">drivers/include/periph</text>
<text text-anchor="middle" x="613.5" y="-219.5" font-family="Helvetica,sans-Serif" font-size="10.00" fill="#000000">/pwm.h</text>
</g>
<!-- Node6 -->
<g id="node2" class="node">
<title>Node6</title>
<g id="a_node2"><a xlink:href="common_2arduino-atmega_2include_2arduino__board_8h.html" target="_top" xlink:title="Configuration of the Arduino API for Arduino Atmega boards. ">
<polygon fill="none" stroke="#000000" points="0,-134.5 0,-175.5 121,-175.5 121,-134.5 0,-134.5"/>
<text text-anchor="start" x="8" y="-163.5" font-family="Helvetica,sans-Serif" font-size="10.00" fill="#000000">boards/common/arduino</text>
<text text-anchor="start" x="8" y="-152.5" font-family="Helvetica,sans-Serif" font-size="10.00" fill="#000000">&#45;atmega/include/arduino</text>
<text text-anchor="middle" x="60.5" y="-141.5" font-family="Helvetica,sans-Serif" font-size="10.00" fill="#000000">_board.h</text>
</a>
</g>
</g>
<!-- Node5&#45;&gt;Node6 -->
<g id="edge1" class="edge">
<title>Node5&#45;&gt;Node6</title>
<path fill="none" stroke="#191970" d="M548.7678,-224.5137C455.3717,-219.3261 277.7537,-206.1642 129.5,-176 126.8005,-175.4508 124.0555,-174.8408 121.2926,-174.1847"/>
<polygon fill="#191970" stroke="#191970" points="548.7353,-228.0169 558.9103,-225.0639 549.1146,-221.0272 548.7353,-228.0169"/>
</g>
<!-- Node7 -->
<g id="node3" class="node">
<title>Node7</title>
<g id="a_node3"><a xlink:href="common_2arduino-mkr_2include_2arduino__board_8h.html" target="_top" xlink:title="Board specific configuration for the Arduino API. ">
<polygon fill="none" stroke="#000000" points="139,-134.5 139,-175.5 260,-175.5 260,-134.5 139,-134.5"/>
<text text-anchor="start" x="147" y="-163.5" font-family="Helvetica,sans-Serif" font-size="10.00" fill="#000000">boards/common/arduino</text>
<text text-anchor="start" x="147" y="-152.5" font-family="Helvetica,sans-Serif" font-size="10.00" fill="#000000">&#45;mkr/include/arduino</text>
<text text-anchor="middle" x="199.5" y="-141.5" font-family="Helvetica,sans-Serif" font-size="10.00" fill="#000000">_board.h</text>
</a>
</g>
</g>
<!-- Node5&#45;&gt;Node7 -->
<g id="edge2" class="edge">
<title>Node5&#45;&gt;Node7</title>
<path fill="none" stroke="#191970" d="M549.0088,-220.7486C479.3044,-212.785 365.2067,-197.8095 268.5,-176 265.8127,-175.394 263.0777,-174.737 260.3231,-174.0423"/>
<polygon fill="#191970" stroke="#191970" points="548.634,-224.2285 558.9636,-221.8727 549.4195,-217.2727 548.634,-224.2285"/>
</g>
<!-- Node8 -->
<g id="node4" class="node">
<title>Node8</title>
<g id="a_node4"><a xlink:href="common_2arduino-zero_2include_2arduino__board_8h.html" target="_top" xlink:title="Board specific configuration for the Arduino API. ">
<polygon fill="none" stroke="#000000" points="278,-134.5 278,-175.5 399,-175.5 399,-134.5 278,-134.5"/>
<text text-anchor="start" x="286" y="-163.5" font-family="Helvetica,sans-Serif" font-size="10.00" fill="#000000">boards/common/arduino</text>
<text text-anchor="start" x="286" y="-152.5" font-family="Helvetica,sans-Serif" font-size="10.00" fill="#000000">&#45;zero/include/arduino</text>
<text text-anchor="middle" x="338.5" y="-141.5" font-family="Helvetica,sans-Serif" font-size="10.00" fill="#000000">_board.h</text>
</a>
</g>
</g>
<!-- Node5&#45;&gt;Node8 -->
<g id="edge3" class="edge">
<title>Node5&#45;&gt;Node8</title>
<path fill="none" stroke="#191970" d="M549.1954,-212.1382C508.7011,-202.2687 455.401,-188.9192 408.5,-176 405.4419,-175.1576 402.3136,-174.2795 399.1578,-173.3807"/>
<polygon fill="#191970" stroke="#191970" points="548.3963,-215.5458 558.9401,-214.5064 550.0494,-208.7438 548.3963,-215.5458"/>
</g>
<!-- Node9 -->
<g id="node5" class="node">
<title>Node9</title>
<g id="a_node5"><a xlink:href="sodaq-autonomo_2include_2arduino__board_8h.html" target="_top" xlink:title="Board specific configuration for the Arduino API. ">
<polygon fill="none" stroke="#000000" points="417.5,-140 417.5,-170 539.5,-170 539.5,-140 417.5,-140"/>
<text text-anchor="start" x="425.5" y="-158" font-family="Helvetica,sans-Serif" font-size="10.00" fill="#000000">boards/sodaq&#45;autonomo</text>
<text text-anchor="middle" x="478.5" y="-147" font-family="Helvetica,sans-Serif" font-size="10.00" fill="#000000">/include/arduino_board.h</text>
</a>
</g>
</g>
<!-- Node5&#45;&gt;Node9 -->
<g id="edge4" class="edge">
<title>Node5&#45;&gt;Node9</title>
<path fill="none" stroke="#191970" d="M576.4272,-207.5905C554.3179,-195.717 526.7008,-180.8856 506.4363,-170.0028"/>
<polygon fill="#191970" stroke="#191970" points="575.062,-210.8301 585.5279,-212.478 578.3739,-204.6632 575.062,-210.8301"/>
</g>
<!-- Node10 -->
<g id="node6" class="node">
<title>Node10</title>
<g id="a_node6"><a xlink:href="dsp0401__params_8h.html" target="_top" xlink:title="Default configuration for DSP0401. ">
<polygon fill="none" stroke="#000000" points="508,-67.5 508,-97.5 627,-97.5 627,-67.5 508,-67.5"/>
<text text-anchor="start" x="516" y="-85.5" font-family="Helvetica,sans-Serif" font-size="10.00" fill="#000000">drivers/dsp0401/include</text>
<text text-anchor="middle" x="567.5" y="-74.5" font-family="Helvetica,sans-Serif" font-size="10.00" fill="#000000">/dsp0401_params.h</text>
</a>
</g>
</g>
<!-- Node5&#45;&gt;Node10 -->
<g id="edge5" class="edge">
<title>Node5&#45;&gt;Node10</title>
<path fill="none" stroke="#191970" d="M599.0391,-203.3491C594.4868,-194.926 589.7933,-185.2605 586.5,-176 577.0092,-149.3122 571.72,-116.5596 569.254,-97.752"/>
<polygon fill="#191970" stroke="#191970" points="596.0868,-205.2398 604.0368,-212.2433 602.1894,-201.8107 596.0868,-205.2398"/>
</g>
<!-- Node11 -->
<g id="node7" class="node">
<title>Node11</title>
<g id="a_node7"><a xlink:href="dsp0401_8h.html" target="_top" xlink:title="Device driver interface for the DSP0401 alphanumeric display. ">
<polygon fill="none" stroke="#000000" points="595.5,-145.5 595.5,-164.5 723.5,-164.5 723.5,-145.5 595.5,-145.5"/>
<text text-anchor="middle" x="659.5" y="-152.5" font-family="Helvetica,sans-Serif" font-size="10.00" fill="#000000">drivers/include/dsp0401.h</text>
</a>
</g>
</g>
<!-- Node5&#45;&gt;Node11 -->
<g id="edge6" class="edge">
<title>Node5&#45;&gt;Node11</title>
<path fill="none" stroke="#191970" d="M628.5116,-203.8403C636.8948,-190.6278 646.8946,-174.8672 653.2214,-164.8957"/>
<polygon fill="#191970" stroke="#191970" points="625.4334,-202.159 623.0312,-212.478 631.3441,-205.9093 625.4334,-202.159"/>
</g>
<!-- Node12 -->
<g id="node8" class="node">
<title>Node12</title>
<g id="a_node8"><a xlink:href="motor__driver_8h.html" target="_top" xlink:title="High&#45;level driver for DC motors. ">
<polygon fill="none" stroke="#000000" points="742,-140 742,-170 849,-170 849,-140 742,-140"/>
<text text-anchor="start" x="750" y="-158" font-family="Helvetica,sans-Serif" font-size="10.00" fill="#000000">drivers/include/motor</text>
<text text-anchor="middle" x="795.5" y="-147" font-family="Helvetica,sans-Serif" font-size="10.00" fill="#000000">_driver.h</text>
</a>
</g>
</g>
<!-- Node5&#45;&gt;Node12 -->
<g id="edge8" class="edge">
<title>Node5&#45;&gt;Node12</title>
<path fill="none" stroke="#191970" d="M660.7075,-208.6948C690.9495,-196.6478 729.6645,-181.2257 757.8378,-170.0028"/>
<polygon fill="#191970" stroke="#191970" points="659.2053,-205.5257 651.2105,-212.478 661.7958,-212.0287 659.2053,-205.5257"/>
</g>
<!-- Node16 -->
<g id="node12" class="node">
<title>Node16</title>
<g id="a_node12"><a xlink:href="pca9685_8h.html" target="_top" xlink:title="drivers/include/pca9685.h">
<polygon fill="none" stroke="#000000" points="867.5,-145.5 867.5,-164.5 995.5,-164.5 995.5,-145.5 867.5,-145.5"/>
<text text-anchor="middle" x="931.5" y="-152.5" font-family="Helvetica,sans-Serif" font-size="10.00" fill="#000000">drivers/include/pca9685.h</text>
</a>
</g>
</g>
<!-- Node5&#45;&gt;Node16 -->
<g id="edge12" class="edge">
<title>Node5&#45;&gt;Node16</title>
<path fill="none" stroke="#191970" d="M678.1962,-215.2382C727.7609,-205.5215 797.7287,-191.1069 858.5,-176 872.194,-172.5959 887.1936,-168.3687 900.0151,-164.6012"/>
<polygon fill="#191970" stroke="#191970" points="677.3971,-211.828 668.2524,-217.1783 678.7376,-218.6985 677.3971,-211.828"/>
</g>
<!-- Node18 -->
<g id="node14" class="node">
<title>Node18</title>
<g id="a_node14"><a xlink:href="rgbled_8h.html" target="_top" xlink:title="High&#45;level driver for easy handling of RGB&#45;LEDs. ">
<polygon fill="none" stroke="#000000" points="1014,-145.5 1014,-164.5 1131,-164.5 1131,-145.5 1014,-145.5"/>
<text text-anchor="middle" x="1072.5" y="-152.5" font-family="Helvetica,sans-Serif" font-size="10.00" fill="#000000">drivers/include/rgbled.h</text>
</a>
</g>
</g>
<!-- Node5&#45;&gt;Node18 -->
<g id="edge14" class="edge">
<title>Node5&#45;&gt;Node18</title>
<path fill="none" stroke="#191970" d="M678.2373,-222.3407C756.2603,-215.351 891.0349,-200.8072 1004.5,-176 1018.1398,-173.0179 1032.9872,-168.5768 1045.3187,-164.5458"/>
<polygon fill="#191970" stroke="#191970" points="677.7321,-218.8716 668.0783,-223.2368 678.3472,-225.8445 677.7321,-218.8716"/>
</g>
<!-- Node19 -->
<g id="node15" class="node">
<title>Node19</title>
<g id="a_node15"><a xlink:href="servo_8h.html" target="_top" xlink:title="High&#45;level driver for easy handling of servo motors. ">
<polygon fill="none" stroke="#000000" points="1149,-145.5 1149,-164.5 1264,-164.5 1264,-145.5 1149,-145.5"/>
<text text-anchor="middle" x="1206.5" y="-152.5" font-family="Helvetica,sans-Serif" font-size="10.00" fill="#000000">drivers/include/servo.h</text>
</a>
</g>
</g>
<!-- Node5&#45;&gt;Node19 -->
<g id="edge15" class="edge">
<title>Node5&#45;&gt;Node19</title>
<path fill="none" stroke="#191970" d="M678.5723,-225.5424C778.7446,-221.5441 976.3471,-209.7428 1140.5,-176 1154.0448,-173.2158 1168.7391,-168.6952 1180.8168,-164.5602"/>
<polygon fill="#191970" stroke="#191970" points="678.1667,-222.0554 668.3091,-225.9382 678.4365,-229.0502 678.1667,-222.0554"/>
</g>
<!-- Node11&#45;&gt;Node10 -->
<g id="edge7" class="edge">
<title>Node11&#45;&gt;Node10</title>
<path fill="none" stroke="#191970" d="M639.0832,-138.9107C623.4624,-126.6008 602.0703,-109.7429 586.7477,-97.668"/>
<polygon fill="#191970" stroke="#191970" points="637.0718,-141.7818 647.0925,-145.2223 641.4045,-136.2838 637.0718,-141.7818"/>
</g>
<!-- Node13 -->
<g id="node9" class="node">
<title>Node13</title>
<g id="a_node9"><a xlink:href="common_2nucleo64_2include_2board_8h.html" target="_top" xlink:title="Common pin definitions and board configuration options. ">
<polygon fill="none" stroke="#000000" points="645.5,-67.5 645.5,-97.5 773.5,-97.5 773.5,-67.5 645.5,-67.5"/>
<text text-anchor="start" x="653.5" y="-85.5" font-family="Helvetica,sans-Serif" font-size="10.00" fill="#000000">boards/common/nucleo64</text>
<text text-anchor="middle" x="709.5" y="-74.5" font-family="Helvetica,sans-Serif" font-size="10.00" fill="#000000">/include/board.h</text>
</a>
</g>
</g>
<!-- Node12&#45;&gt;Node13 -->
<g id="edge9" class="edge">
<title>Node12&#45;&gt;Node13</title>
<path fill="none" stroke="#191970" d="M769.9767,-133.4833C756.2373,-121.9007 739.6294,-107.8998 727.2964,-97.5028"/>
<polygon fill="#191970" stroke="#191970" points="767.7791,-136.2084 777.6807,-139.978 772.291,-130.8565 767.7791,-136.2084"/>
</g>
<!-- Node15 -->
<g id="node11" class="node">
<title>Node15</title>
<g id="a_node11"><a xlink:href="native_2include_2board_8h.html" target="_top" xlink:title="The native board uses call level hardware simulation. ">
<polygon fill="none" stroke="#000000" points="792,-67.5 792,-97.5 901,-97.5 901,-67.5 792,-67.5"/>
<text text-anchor="start" x="800" y="-85.5" font-family="Helvetica,sans-Serif" font-size="10.00" fill="#000000">boards/native/include</text>
<text text-anchor="middle" x="846.5" y="-74.5" font-family="Helvetica,sans-Serif" font-size="10.00" fill="#000000">/board.h</text>
</a>
</g>
</g>
<!-- Node12&#45;&gt;Node15 -->
<g id="edge11" class="edge">
<title>Node12&#45;&gt;Node15</title>
<path fill="none" stroke="#191970" d="M812.0219,-131.513C819.8803,-120.3418 829.0427,-107.3167 835.9463,-97.5028"/>
<polygon fill="#191970" stroke="#191970" points="808.9581,-129.7851 806.0672,-139.978 814.6835,-133.8126 808.9581,-129.7851"/>
</g>
<!-- Node14 -->
<g id="node10" class="node">
<title>Node14</title>
<g id="a_node10"><a xlink:href="common_2nucleo64_2include_2gpio__params_8h.html" target="_top" xlink:title="Board specific configuration of direct mapped GPIOs. ">
<polygon fill="none" stroke="#000000" points="645.5,-.5 645.5,-30.5 773.5,-30.5 773.5,-.5 645.5,-.5"/>
<text text-anchor="start" x="653.5" y="-18.5" font-family="Helvetica,sans-Serif" font-size="10.00" fill="#000000">boards/common/nucleo64</text>
<text text-anchor="middle" x="709.5" y="-7.5" font-family="Helvetica,sans-Serif" font-size="10.00" fill="#000000">/include/gpio_params.h</text>
</a>
</g>
</g>
<!-- Node13&#45;&gt;Node14 -->
<g id="edge10" class="edge">
<title>Node13&#45;&gt;Node14</title>
<path fill="none" stroke="#191970" d="M709.5,-57.0249C709.5,-48.128 709.5,-38.4287 709.5,-30.6432"/>
<polygon fill="#191970" stroke="#191970" points="706.0001,-57.2966 709.5,-67.2967 713.0001,-57.2967 706.0001,-57.2966"/>
</g>
<!-- Node17 -->
<g id="node13" class="node">
<title>Node17</title>
<g id="a_node13"><a xlink:href="pca9685__params_8h.html" target="_top" xlink:title="Default configuration for the PCA9685 I2C PWM controller. ">
<polygon fill="none" stroke="#000000" points="919,-67.5 919,-97.5 1038,-97.5 1038,-67.5 919,-67.5"/>
<text text-anchor="start" x="927" y="-85.5" font-family="Helvetica,sans-Serif" font-size="10.00" fill="#000000">drivers/pca9685/include</text>
<text text-anchor="middle" x="978.5" y="-74.5" font-family="Helvetica,sans-Serif" font-size="10.00" fill="#000000">/pca9685_params.h</text>
</a>
</g>
</g>
<!-- Node16&#45;&gt;Node17 -->
<g id="edge13" class="edge">
<title>Node16&#45;&gt;Node17</title>
<path fill="none" stroke="#191970" d="M943.2866,-136.8185C951.1152,-124.7425 961.274,-109.072 968.6669,-97.668"/>
<polygon fill="#191970" stroke="#191970" points="940.3415,-134.9274 937.8386,-145.2223 946.2153,-138.7352 940.3415,-134.9274"/>
</g>
</g>
</svg>
