<?xml version="1.0" encoding="UTF-8" standalone="no"?>
<!DOCTYPE svg PUBLIC "-//W3C//DTD SVG 1.1//EN"
 "http://www.w3.org/Graphics/SVG/1.1/DTD/svg11.dtd">
<!-- Generated by graphviz version 2.40.1 (20161225.0304)
 -->
<!-- Title: boards/remote&#45;pa/include/board.h Pages: 1 -->
<svg width="160pt" height="95pt"
 viewBox="0.00 0.00 160.00 95.00" xmlns="http://www.w3.org/2000/svg" xmlns:xlink="http://www.w3.org/1999/xlink">
<g id="graph0" class="graph" transform="scale(1 1) rotate(0) translate(4 91)">
<title>boards/remote&#45;pa/include/board.h</title>
<!-- Node0 -->
<g id="node1" class="node">
<title>Node0</title>
<polygon fill="#bfbfbf" stroke="#000000" points="0,-56.5 0,-86.5 126,-86.5 126,-56.5 0,-56.5"/>
<text text-anchor="start" x="8" y="-74.5" font-family="Helvetica,sans-Serif" font-size="10.00" fill="#000000">boards/remote&#45;pa/include</text>
<text text-anchor="middle" x="63" y="-63.5" font-family="Helvetica,sans-Serif" font-size="10.00" fill="#000000">/board.h</text>
</g>
<!-- Node1 -->
<g id="node2" class="node">
<title>Node1</title>
<polygon fill="none" stroke="#bfbfbf" points=".5,-.5 .5,-19.5 41.5,-19.5 41.5,-.5 .5,-.5"/>
<text text-anchor="middle" x="21" y="-7.5" font-family="Helvetica,sans-Serif" font-size="10.00" fill="#000000">cpu.h</text>
</g>
<!-- Node0&#45;&gt;Node1 -->
<g id="edge1" class="edge">
<title>Node0&#45;&gt;Node1</title>
<path fill="none" stroke="#191970" d="M52.618,-56.2977C46.8487,-47.8498 39.6284,-37.2773 33.5447,-28.369"/>
<polygon fill="#191970" stroke="#191970" points="36.2547,-26.1311 27.7247,-19.8469 30.4741,-30.0788 36.2547,-26.1311"/>
</g>
<!-- Node2 -->
<g id="node3" class="node">
<title>Node2</title>
<polygon fill="none" stroke="#bfbfbf" points="60,-.5 60,-19.5 152,-19.5 152,-.5 60,-.5"/>
<text text-anchor="middle" x="106" y="-7.5" font-family="Helvetica,sans-Serif" font-size="10.00" fill="#000000">board_common.h</text>
</g>
<!-- Node0&#45;&gt;Node2 -->
<g id="edge2" class="edge">
<title>Node0&#45;&gt;Node2</title>
<path fill="none" stroke="#191970" d="M73.6292,-56.2977C79.5981,-47.7609 87.0838,-37.0545 93.3529,-28.0883"/>
<polygon fill="#191970" stroke="#191970" points="96.2534,-30.048 99.1152,-19.8469 90.5165,-26.0368 96.2534,-30.048"/>
</g>
</g>
</svg>
