<?xml version="1.0" encoding="UTF-8" standalone="no"?>
<!DOCTYPE svg PUBLIC "-//W3C//DTD SVG 1.1//EN"
 "http://www.w3.org/Graphics/SVG/1.1/DTD/svg11.dtd">
<!-- Generated by graphviz version 2.43.0 (0)
 -->
<!-- Title: core/include/ringbuffer.h Pages: 1 -->
<svg width="1219pt" height="173pt"
 viewBox="0.00 0.00 1219.00 173.00" xmlns="http://www.w3.org/2000/svg" xmlns:xlink="http://www.w3.org/1999/xlink">
<g id="graph0" class="graph" transform="scale(1 1) rotate(0) translate(4 169)">
<title>core/include/ringbuffer.h</title>
<!-- Node1 -->
<g id="node1" class="node">
<title>Node1</title>
<g id="a_node1"><a xlink:title="A utility for storing and retrieving byte data using a ring buffer.">
<polygon fill="#bfbfbf" stroke="black" points="309.5,-145.5 309.5,-164.5 445.5,-164.5 445.5,-145.5 309.5,-145.5"/>
<text text-anchor="middle" x="377.5" y="-152.5" font-family="Helvetica,sans-Serif" font-size="10.00">core/include/ringbuffer.h</text>
</a>
</g>
</g>
<!-- Node2 -->
<g id="node2" class="node">
<title>Node2</title>
<g id="a_node2"><a xlink:href="esp__wifi__netdev_8h.html" target="_top" xlink:title="Network device driver for the ESP SoCs WiFi interface.">
<polygon fill="none" stroke="black" points="0,-78.5 0,-108.5 129,-108.5 129,-78.5 0,-78.5"/>
<text text-anchor="start" x="8" y="-96.5" font-family="Helvetica,sans-Serif" font-size="10.00">cpu/esp_common/esp</text>
<text text-anchor="middle" x="64.5" y="-85.5" font-family="Helvetica,sans-Serif" font-size="10.00">&#45;wifi/esp_wifi_netdev.h</text>
</a>
</g>
</g>
<!-- Node1&#45;&gt;Node2 -->
<g id="edge1" class="edge">
<title>Node1&#45;&gt;Node2</title>
<path fill="none" stroke="midnightblue" d="M321,-143.58C272.34,-134.57 200.26,-121.12 137.5,-109 134.84,-108.49 132.12,-107.96 129.37,-107.42"/>
<polygon fill="midnightblue" stroke="midnightblue" points="320.54,-147.06 331.01,-145.44 321.82,-140.17 320.54,-147.06"/>
</g>
<!-- Node3 -->
<g id="node3" class="node">
<title>Node3</title>
<g id="a_node3"><a xlink:href="atwinc15x0_8h.html" target="_top" xlink:title="Netdev Driver for the Microchip ATWINC15x0 WiFi Module.">
<polygon fill="none" stroke="black" points="147,-84 147,-103 304,-103 304,-84 147,-84"/>
<text text-anchor="middle" x="225.5" y="-91" font-family="Helvetica,sans-Serif" font-size="10.00">drivers/include/atwinc15x0.h</text>
</a>
</g>
</g>
<!-- Node1&#45;&gt;Node3 -->
<g id="edge2" class="edge">
<title>Node1&#45;&gt;Node3</title>
<path fill="none" stroke="midnightblue" d="M346.29,-141.78C316.75,-130.22 273.18,-113.16 247.24,-103.01"/>
<polygon fill="midnightblue" stroke="midnightblue" points="345.13,-145.09 355.72,-145.48 347.69,-138.57 345.13,-145.09"/>
</g>
<!-- Node5 -->
<g id="node5" class="node">
<title>Node5</title>
<g id="a_node5"><a xlink:href="serialport_8hpp.html" target="_top" xlink:title="Definition of the Arduino &#39;Serial&#39; interface.">
<polygon fill="none" stroke="black" points="322,-78.5 322,-108.5 433,-108.5 433,-78.5 322,-78.5"/>
<text text-anchor="start" x="330" y="-96.5" font-family="Helvetica,sans-Serif" font-size="10.00">sys/arduino/include</text>
<text text-anchor="middle" x="377.5" y="-85.5" font-family="Helvetica,sans-Serif" font-size="10.00">/serialport.hpp</text>
</a>
</g>
</g>
<!-- Node1&#45;&gt;Node5 -->
<g id="edge4" class="edge">
<title>Node1&#45;&gt;Node5</title>
<path fill="none" stroke="midnightblue" d="M377.5,-135.23C377.5,-126.59 377.5,-116.5 377.5,-108.52"/>
<polygon fill="midnightblue" stroke="midnightblue" points="374,-135.48 377.5,-145.48 381,-135.48 374,-135.48"/>
</g>
<!-- Node7 -->
<g id="node7" class="node">
<title>Node7</title>
<g id="a_node7"><a xlink:href="tcb_8h.html" target="_top" xlink:title="GNRC TCP transmission control block (TCB)">
<polygon fill="none" stroke="black" points="582.5,-78.5 582.5,-108.5 696.5,-108.5 696.5,-78.5 582.5,-78.5"/>
<text text-anchor="start" x="590.5" y="-96.5" font-family="Helvetica,sans-Serif" font-size="10.00">sys/include/net/gnrc</text>
<text text-anchor="middle" x="639.5" y="-85.5" font-family="Helvetica,sans-Serif" font-size="10.00">/tcp/tcb.h</text>
</a>
</g>
</g>
<!-- Node1&#45;&gt;Node7 -->
<g id="edge6" class="edge">
<title>Node1&#45;&gt;Node7</title>
<path fill="none" stroke="midnightblue" d="M424.95,-143.22C469.15,-133.19 535.13,-118.2 582.24,-107.5"/>
<polygon fill="midnightblue" stroke="midnightblue" points="424.01,-139.85 415.04,-145.48 425.57,-146.67 424.01,-139.85"/>
</g>
<!-- Node14 -->
<g id="node14" class="node">
<title>Node14</title>
<g id="a_node14"><a xlink:href="pipe_8h.html" target="_top" xlink:title=" ">
<polygon fill="none" stroke="black" points="714.5,-84 714.5,-103 818.5,-103 818.5,-84 714.5,-84"/>
<text text-anchor="middle" x="766.5" y="-91" font-family="Helvetica,sans-Serif" font-size="10.00">sys/include/pipe.h</text>
</a>
</g>
</g>
<!-- Node1&#45;&gt;Node14 -->
<g id="edge13" class="edge">
<title>Node1&#45;&gt;Node14</title>
<path fill="none" stroke="midnightblue" d="M455.67,-145.44C522.34,-137.62 620.59,-124.88 705.5,-109 714.49,-107.32 724.15,-105.18 733.06,-103.06"/>
<polygon fill="midnightblue" stroke="midnightblue" points="455.18,-141.97 445.65,-146.6 455.99,-148.92 455.18,-141.97"/>
</g>
<!-- Node4 -->
<g id="node4" class="node">
<title>Node4</title>
<g id="a_node4"><a xlink:href="atwinc15x0__internal_8h.html" target="_top" xlink:title="Internal definitions for the ATWINC15x0 WiFi netdev driver.">
<polygon fill="none" stroke="black" points="109.5,-0.5 109.5,-41.5 223.5,-41.5 223.5,-0.5 109.5,-0.5"/>
<text text-anchor="start" x="117.5" y="-29.5" font-family="Helvetica,sans-Serif" font-size="10.00">drivers/atwinc15x0</text>
<text text-anchor="start" x="117.5" y="-18.5" font-family="Helvetica,sans-Serif" font-size="10.00">/include/atwinc15x0</text>
<text text-anchor="middle" x="166.5" y="-7.5" font-family="Helvetica,sans-Serif" font-size="10.00">_internal.h</text>
</a>
</g>
</g>
<!-- Node3&#45;&gt;Node4 -->
<g id="edge3" class="edge">
<title>Node3&#45;&gt;Node4</title>
<path fill="none" stroke="midnightblue" d="M211.74,-76.05C203.14,-65.78 192.02,-52.49 182.95,-41.66"/>
<polygon fill="midnightblue" stroke="midnightblue" points="209.16,-78.43 218.27,-83.86 214.53,-73.94 209.16,-78.43"/>
</g>
<!-- Node6 -->
<g id="node6" class="node">
<title>Node6</title>
<g id="a_node6"><a xlink:href="arduino_8hpp.html" target="_top" xlink:title="Main interface definition of the Arduino API.">
<polygon fill="none" stroke="black" points="242,-6 242,-36 353,-36 353,-6 242,-6"/>
<text text-anchor="start" x="250" y="-24" font-family="Helvetica,sans-Serif" font-size="10.00">sys/arduino/include</text>
<text text-anchor="middle" x="297.5" y="-13" font-family="Helvetica,sans-Serif" font-size="10.00">/arduino.hpp</text>
</a>
</g>
</g>
<!-- Node5&#45;&gt;Node6 -->
<g id="edge5" class="edge">
<title>Node5&#45;&gt;Node6</title>
<path fill="none" stroke="midnightblue" d="M353.63,-71.46C340.63,-60 324.89,-46.14 313.39,-36"/>
<polygon fill="midnightblue" stroke="midnightblue" points="351.49,-74.25 361.31,-78.23 356.12,-69 351.49,-74.25"/>
</g>
<!-- Node8 -->
<g id="node8" class="node">
<title>Node8</title>
<g id="a_node8"><a xlink:href="gnrc_2tcp_8h.html" target="_top" xlink:title="GNRC TCP API.">
<polygon fill="none" stroke="black" points="371.5,-6 371.5,-36 485.5,-36 485.5,-6 371.5,-6"/>
<text text-anchor="start" x="379.5" y="-24" font-family="Helvetica,sans-Serif" font-size="10.00">sys/include/net/gnrc</text>
<text text-anchor="middle" x="428.5" y="-13" font-family="Helvetica,sans-Serif" font-size="10.00">/tcp.h</text>
</a>
</g>
</g>
<!-- Node7&#45;&gt;Node8 -->
<g id="edge7" class="edge">
<title>Node7&#45;&gt;Node8</title>
<path fill="none" stroke="midnightblue" d="M587.74,-75.2C551.76,-63.18 504.41,-47.36 470.72,-36.11"/>
<polygon fill="midnightblue" stroke="midnightblue" points="586.97,-78.64 597.56,-78.49 589.19,-72 586.97,-78.64"/>
</g>
<!-- Node9 -->
<g id="node9" class="node">
<title>Node9</title>
<g id="a_node9"><a xlink:href="gnrc__tcp__common_8h.html" target="_top" xlink:title="Internally used defines, macros and variable declarations.">
<polygon fill="none" stroke="black" points="504,-0.5 504,-41.5 631,-41.5 631,-0.5 504,-0.5"/>
<text text-anchor="start" x="512" y="-29.5" font-family="Helvetica,sans-Serif" font-size="10.00">sys/net/gnrc/transport</text>
<text text-anchor="start" x="512" y="-18.5" font-family="Helvetica,sans-Serif" font-size="10.00">_layer/tcp/include/gnrc</text>
<text text-anchor="middle" x="567.5" y="-7.5" font-family="Helvetica,sans-Serif" font-size="10.00">_tcp_common.h</text>
</a>
</g>
</g>
<!-- Node7&#45;&gt;Node9 -->
<g id="edge8" class="edge">
<title>Node7&#45;&gt;Node9</title>
<path fill="none" stroke="midnightblue" d="M617.65,-71.1C608.06,-61.71 596.87,-50.76 587.51,-41.59"/>
<polygon fill="midnightblue" stroke="midnightblue" points="615.34,-73.74 624.93,-78.23 620.23,-68.74 615.34,-73.74"/>
</g>
<!-- Node10 -->
<g id="node10" class="node">
<title>Node10</title>
<g id="a_node10"><a xlink:href="gnrc__tcp__fsm_8h.html" target="_top" xlink:title="TCP finite state maschine declarations.">
<polygon fill="none" stroke="black" points="649,-0.5 649,-41.5 776,-41.5 776,-0.5 649,-0.5"/>
<text text-anchor="start" x="657" y="-29.5" font-family="Helvetica,sans-Serif" font-size="10.00">sys/net/gnrc/transport</text>
<text text-anchor="start" x="657" y="-18.5" font-family="Helvetica,sans-Serif" font-size="10.00">_layer/tcp/include/gnrc</text>
<text text-anchor="middle" x="712.5" y="-7.5" font-family="Helvetica,sans-Serif" font-size="10.00">_tcp_fsm.h</text>
</a>
</g>
</g>
<!-- Node7&#45;&gt;Node10 -->
<g id="edge9" class="edge">
<title>Node7&#45;&gt;Node10</title>
<path fill="none" stroke="midnightblue" d="M661.66,-71.1C671.38,-61.71 682.72,-50.76 692.22,-41.59"/>
<polygon fill="midnightblue" stroke="midnightblue" points="659.03,-68.77 654.27,-78.23 663.9,-73.8 659.03,-68.77"/>
</g>
<!-- Node11 -->
<g id="node11" class="node">
<title>Node11</title>
<g id="a_node11"><a xlink:href="gnrc__tcp__option_8h.html" target="_top" xlink:title="TCP option handling declarations.">
<polygon fill="none" stroke="black" points="794,-0.5 794,-41.5 921,-41.5 921,-0.5 794,-0.5"/>
<text text-anchor="start" x="802" y="-29.5" font-family="Helvetica,sans-Serif" font-size="10.00">sys/net/gnrc/transport</text>
<text text-anchor="start" x="802" y="-18.5" font-family="Helvetica,sans-Serif" font-size="10.00">_layer/tcp/include/gnrc</text>
<text text-anchor="middle" x="857.5" y="-7.5" font-family="Helvetica,sans-Serif" font-size="10.00">_tcp_option.h</text>
</a>
</g>
</g>
<!-- Node7&#45;&gt;Node11 -->
<g id="edge10" class="edge">
<title>Node7&#45;&gt;Node11</title>
<path fill="none" stroke="midnightblue" d="M692.74,-75.28C724.23,-65.1 764.22,-52.17 796.92,-41.59"/>
<polygon fill="midnightblue" stroke="midnightblue" points="691.27,-72.08 682.83,-78.49 693.42,-78.74 691.27,-72.08"/>
</g>
<!-- Node12 -->
<g id="node12" class="node">
<title>Node12</title>
<g id="a_node12"><a xlink:href="gnrc__tcp__pkt_8h.html" target="_top" xlink:title="TCP packet handling declarations.">
<polygon fill="none" stroke="black" points="939,-0.5 939,-41.5 1066,-41.5 1066,-0.5 939,-0.5"/>
<text text-anchor="start" x="947" y="-29.5" font-family="Helvetica,sans-Serif" font-size="10.00">sys/net/gnrc/transport</text>
<text text-anchor="start" x="947" y="-18.5" font-family="Helvetica,sans-Serif" font-size="10.00">_layer/tcp/include/gnrc</text>
<text text-anchor="middle" x="1002.5" y="-7.5" font-family="Helvetica,sans-Serif" font-size="10.00">_tcp_pkt.h</text>
</a>
</g>
</g>
<!-- Node7&#45;&gt;Node12 -->
<g id="edge11" class="edge">
<title>Node7&#45;&gt;Node12</title>
<path fill="none" stroke="midnightblue" d="M706.61,-77.86C806.73,-59.38 834.65,-62.91 930.5,-42 933.29,-41.39 936.13,-40.74 938.99,-40.06"/>
<polygon fill="midnightblue" stroke="midnightblue" points="705.88,-74.44 696.7,-79.72 707.17,-81.32 705.88,-74.44"/>
</g>
<!-- Node13 -->
<g id="node13" class="node">
<title>Node13</title>
<g id="a_node13"><a xlink:href="gnrc__tcp__rcvbuf_8h.html" target="_top" xlink:title="Functions for allocating and freeing the receive buffer.">
<polygon fill="none" stroke="black" points="1084,-0.5 1084,-41.5 1211,-41.5 1211,-0.5 1084,-0.5"/>
<text text-anchor="start" x="1092" y="-29.5" font-family="Helvetica,sans-Serif" font-size="10.00">sys/net/gnrc/transport</text>
<text text-anchor="start" x="1092" y="-18.5" font-family="Helvetica,sans-Serif" font-size="10.00">_layer/tcp/include/gnrc</text>
<text text-anchor="middle" x="1147.5" y="-7.5" font-family="Helvetica,sans-Serif" font-size="10.00">_tcp_rcvbuf.h</text>
</a>
</g>
</g>
<!-- Node7&#45;&gt;Node13 -->
<g id="edge12" class="edge">
<title>Node7&#45;&gt;Node13</title>
<path fill="none" stroke="midnightblue" d="M706.59,-77.96C870.48,-52.99 916.24,-71.63 1075.5,-42 1078.18,-41.5 1080.9,-40.95 1083.65,-40.36"/>
<polygon fill="midnightblue" stroke="midnightblue" points="706,-74.51 696.66,-79.51 707.08,-81.43 706,-74.51"/>
</g>
</g>
</svg>
