<?xml version="1.0" encoding="UTF-8" standalone="no"?>
<!DOCTYPE svg PUBLIC "-//W3C//DTD SVG 1.1//EN"
 "http://www.w3.org/Graphics/SVG/1.1/DTD/svg11.dtd">
<!-- Generated by graphviz version 2.40.1 (20161225.0304)
 -->
<!-- Title: sys/include/can/router.h Pages: 1 -->
<svg width="565pt" height="308pt"
 viewBox="0.00 0.00 565.00 308.00" xmlns="http://www.w3.org/2000/svg" xmlns:xlink="http://www.w3.org/1999/xlink">
<g id="graph0" class="graph" transform="scale(1 1) rotate(0) translate(4 304)">
<title>sys/include/can/router.h</title>
<!-- Node0 -->
<g id="node1" class="node">
<title>Node0</title>
<polygon fill="#bfbfbf" stroke="#000000" points="345,-280.5 345,-299.5 466,-299.5 466,-280.5 345,-280.5"/>
<text text-anchor="middle" x="405.5" y="-287.5" font-family="Helvetica,sans-Serif" font-size="10.00" fill="#000000">sys/include/can/router.h</text>
</g>
<!-- Node1 -->
<g id="node2" class="node">
<title>Node1</title>
<g id="a_node2"><a xlink:href="kernel__types_8h.html" target="_top" xlink:title="Types used by the kernel. ">
<polygon fill="none" stroke="#000000" points="201.5,-112.5 201.5,-131.5 281.5,-131.5 281.5,-112.5 201.5,-112.5"/>
<text text-anchor="middle" x="241.5" y="-119.5" font-family="Helvetica,sans-Serif" font-size="10.00" fill="#000000">kernel_types.h</text>
</a>
</g>
</g>
<!-- Node0&#45;&gt;Node1 -->
<g id="edge1" class="edge">
<title>Node0&#45;&gt;Node1</title>
<path fill="none" stroke="#191970" d="M372.821,-280.4264C333.5414,-266.9596 269.4312,-238.2646 241.5,-188 233.6829,-173.9324 234.4434,-155.4343 236.7225,-141.6018"/>
<polygon fill="#191970" stroke="#191970" points="240.1766,-142.1794 238.7409,-131.6823 233.3171,-140.7836 240.1766,-142.1794"/>
</g>
<!-- Node7 -->
<g id="node8" class="node">
<title>Node7</title>
<g id="a_node8"><a xlink:href="sys_2include_2can_2can_8h.html" target="_top" xlink:title="Definitions high&#45;level CAN interface. ">
<polygon fill="none" stroke="#000000" points="498,-168.5 498,-187.5 557,-187.5 557,-168.5 498,-168.5"/>
<text text-anchor="middle" x="527.5" y="-175.5" font-family="Helvetica,sans-Serif" font-size="10.00" fill="#000000">can/can.h</text>
</a>
</g>
</g>
<!-- Node0&#45;&gt;Node7 -->
<g id="edge7" class="edge">
<title>Node0&#45;&gt;Node7</title>
<path fill="none" stroke="#191970" d="M415.9017,-280.4509C436.7,-261.3574 483.6347,-218.2697 509.5199,-194.5063"/>
<polygon fill="#191970" stroke="#191970" points="512.1251,-196.8659 517.1247,-187.5249 507.3912,-191.7093 512.1251,-196.8659"/>
</g>
<!-- Node8 -->
<g id="node9" class="node">
<title>Node8</title>
<g id="a_node9"><a xlink:href="include_2can_2pkt_8h.html" target="_top" xlink:title="CAN memory allocation module. ">
<polygon fill="none" stroke="#000000" points="377,-224.5 377,-243.5 434,-243.5 434,-224.5 377,-224.5"/>
<text text-anchor="middle" x="405.5" y="-231.5" font-family="Helvetica,sans-Serif" font-size="10.00" fill="#000000">can/pkt.h</text>
</a>
</g>
</g>
<!-- Node0&#45;&gt;Node8 -->
<g id="edge9" class="edge">
<title>Node0&#45;&gt;Node8</title>
<path fill="none" stroke="#191970" d="M405.5,-280.2455C405.5,-272.9382 405.5,-262.6944 405.5,-253.7046"/>
<polygon fill="#191970" stroke="#191970" points="409.0001,-253.6426 405.5,-243.6427 402.0001,-253.6427 409.0001,-253.6426"/>
</g>
<!-- Node2 -->
<g id="node3" class="node">
<title>Node2</title>
<polygon fill="none" stroke="#bfbfbf" points="368,-56.5 368,-75.5 417,-75.5 417,-56.5 368,-56.5"/>
<text text-anchor="middle" x="392.5" y="-63.5" font-family="Helvetica,sans-Serif" font-size="10.00" fill="#000000">stdint.h</text>
</g>
<!-- Node1&#45;&gt;Node2 -->
<g id="edge2" class="edge">
<title>Node1&#45;&gt;Node2</title>
<path fill="none" stroke="#191970" d="M267.4578,-112.3733C292.5411,-103.0708 330.6864,-88.9242 358.2488,-78.7024"/>
<polygon fill="#191970" stroke="#191970" points="359.7218,-81.8892 367.8808,-75.1303 357.2878,-75.326 359.7218,-81.8892"/>
</g>
<!-- Node3 -->
<g id="node4" class="node">
<title>Node3</title>
<g id="a_node4"><a xlink:href="inttypes_8h.html" target="_top" xlink:title="Adds include for missing inttype definitions. ">
<polygon fill="none" stroke="#000000" points="291,-56.5 291,-75.5 350,-75.5 350,-56.5 291,-56.5"/>
<text text-anchor="middle" x="320.5" y="-63.5" font-family="Helvetica,sans-Serif" font-size="10.00" fill="#000000">inttypes.h</text>
</a>
</g>
</g>
<!-- Node1&#45;&gt;Node3 -->
<g id="edge3" class="edge">
<title>Node1&#45;&gt;Node3</title>
<path fill="none" stroke="#191970" d="M255.2607,-112.2455C267.1552,-103.814 284.565,-91.4729 298.4085,-81.6598"/>
<polygon fill="#191970" stroke="#191970" points="300.7628,-84.2811 306.8969,-75.6427 296.7146,-78.5704 300.7628,-84.2811"/>
</g>
<!-- Node4 -->
<g id="node5" class="node">
<title>Node4</title>
<polygon fill="none" stroke="#bfbfbf" points="154.5,-56.5 154.5,-75.5 202.5,-75.5 202.5,-56.5 154.5,-56.5"/>
<text text-anchor="middle" x="178.5" y="-63.5" font-family="Helvetica,sans-Serif" font-size="10.00" fill="#000000">limits.h</text>
</g>
<!-- Node1&#45;&gt;Node4 -->
<g id="edge4" class="edge">
<title>Node1&#45;&gt;Node4</title>
<path fill="none" stroke="#191970" d="M230.5262,-112.2455C221.3118,-104.0549 207.9468,-92.1749 197.0703,-82.5069"/>
<polygon fill="#191970" stroke="#191970" points="199.1474,-79.6704 189.348,-75.6427 194.4968,-84.9023 199.1474,-79.6704"/>
</g>
<!-- Node5 -->
<g id="node6" class="node">
<title>Node5</title>
<polygon fill="none" stroke="#bfbfbf" points="220.5,-56.5 220.5,-75.5 272.5,-75.5 272.5,-56.5 220.5,-56.5"/>
<text text-anchor="middle" x="246.5" y="-63.5" font-family="Helvetica,sans-Serif" font-size="10.00" fill="#000000">stddef.h</text>
</g>
<!-- Node1&#45;&gt;Node5 -->
<g id="edge5" class="edge">
<title>Node1&#45;&gt;Node5</title>
<path fill="none" stroke="#191970" d="M242.3709,-112.2455C243.0234,-104.9382 243.938,-94.6944 244.7407,-85.7046"/>
<polygon fill="#191970" stroke="#191970" points="248.2358,-85.9143 245.639,-75.6427 241.2635,-85.2918 248.2358,-85.9143"/>
</g>
<!-- Node6 -->
<g id="node7" class="node">
<title>Node6</title>
<polygon fill="none" stroke="#bfbfbf" points="68.5,-56.5 68.5,-75.5 136.5,-75.5 136.5,-56.5 68.5,-56.5"/>
<text text-anchor="middle" x="102.5" y="-63.5" font-family="Helvetica,sans-Serif" font-size="10.00" fill="#000000">sys/types.h</text>
</g>
<!-- Node1&#45;&gt;Node6 -->
<g id="edge6" class="edge">
<title>Node1&#45;&gt;Node6</title>
<path fill="none" stroke="#191970" d="M217.605,-112.3733C194.9918,-103.2629 160.8458,-89.5062 135.6127,-79.3404"/>
<polygon fill="#191970" stroke="#191970" points="136.6666,-75.9917 126.0831,-75.5011 134.0507,-82.4845 136.6666,-75.9917"/>
</g>
<!-- Node7&#45;&gt;Node2 -->
<g id="edge8" class="edge">
<title>Node7&#45;&gt;Node2</title>
<path fill="none" stroke="#191970" d="M527.2835,-168.2061C526.4557,-154.0676 522.9209,-127.896 508.5,-112 487.518,-88.8719 453.389,-77.2052 427.5696,-71.4254"/>
<polygon fill="#191970" stroke="#191970" points="427.9246,-67.9258 417.4269,-69.3571 426.5259,-74.7847 427.9246,-67.9258"/>
</g>
<!-- Node8&#45;&gt;Node7 -->
<g id="edge22" class="edge">
<title>Node8&#45;&gt;Node7</title>
<path fill="none" stroke="#191970" d="M426.4725,-224.3733C446.0567,-215.3838 475.4961,-201.8706 497.551,-191.7471"/>
<polygon fill="#191970" stroke="#191970" points="499.1729,-194.8538 506.8011,-187.5011 496.2527,-188.4919 499.1729,-194.8538"/>
</g>
<!-- Node9 -->
<g id="node10" class="node">
<title>Node9</title>
<polygon fill="none" stroke="#bfbfbf" points="349.5,-168.5 349.5,-187.5 417.5,-187.5 417.5,-168.5 349.5,-168.5"/>
<text text-anchor="middle" x="383.5" y="-175.5" font-family="Helvetica,sans-Serif" font-size="10.00" fill="#000000">stdatomic.h</text>
</g>
<!-- Node8&#45;&gt;Node9 -->
<g id="edge10" class="edge">
<title>Node8&#45;&gt;Node9</title>
<path fill="none" stroke="#191970" d="M401.6679,-224.2455C398.7341,-216.7776 394.5953,-206.2427 391.009,-197.1137"/>
<polygon fill="#191970" stroke="#191970" points="394.2024,-195.6704 387.2882,-187.6427 387.6871,-198.23 394.2024,-195.6704"/>
</g>
<!-- Node10 -->
<g id="node11" class="node">
<title>Node10</title>
<g id="a_node11"><a xlink:href="include_2can_2common_8h.html" target="_top" xlink:title="Definitions of high&#45;level CAN interface. ">
<polygon fill="none" stroke="#000000" points="250,-168.5 250,-187.5 331,-187.5 331,-168.5 250,-168.5"/>
<text text-anchor="middle" x="290.5" y="-175.5" font-family="Helvetica,sans-Serif" font-size="10.00" fill="#000000">can/common.h</text>
</a>
</g>
</g>
<!-- Node8&#45;&gt;Node10 -->
<g id="edge11" class="edge">
<title>Node8&#45;&gt;Node10</title>
<path fill="none" stroke="#191970" d="M385.7308,-224.3733C367.3531,-215.4241 339.7688,-201.9917 319.0107,-191.8835"/>
<polygon fill="#191970" stroke="#191970" points="320.5343,-188.7325 310.0112,-187.5011 317.4696,-195.026 320.5343,-188.7325"/>
</g>
<!-- Node16 -->
<g id="node17" class="node">
<title>Node16</title>
<g id="a_node17"><a xlink:href="msg_8h.html" target="_top" xlink:title="Messaging API for inter process communication. ">
<polygon fill="none" stroke="#000000" points="435.5,-168.5 435.5,-187.5 479.5,-187.5 479.5,-168.5 435.5,-168.5"/>
<text text-anchor="middle" x="457.5" y="-175.5" font-family="Helvetica,sans-Serif" font-size="10.00" fill="#000000">msg.h</text>
</a>
</g>
</g>
<!-- Node8&#45;&gt;Node16 -->
<g id="edge23" class="edge">
<title>Node8&#45;&gt;Node16</title>
<path fill="none" stroke="#191970" d="M414.5577,-224.2455C422.0142,-216.2155 432.7634,-204.6394 441.6417,-195.0781"/>
<polygon fill="#191970" stroke="#191970" points="444.3063,-197.3522 448.5461,-187.6427 439.1768,-192.589 444.3063,-197.3522"/>
</g>
<!-- Node10&#45;&gt;Node2 -->
<g id="edge12" class="edge">
<title>Node10&#45;&gt;Node2</title>
<path fill="none" stroke="#191970" d="M309.7245,-168.4403C324.5121,-160.337 344.687,-147.5639 358.5,-132 370.6358,-118.3259 379.7613,-99.5427 385.4867,-85.51"/>
<polygon fill="#191970" stroke="#191970" points="388.8719,-86.4584 389.1957,-75.8685 382.3386,-83.9451 388.8719,-86.4584"/>
</g>
<!-- Node11 -->
<g id="node12" class="node">
<title>Node11</title>
<g id="a_node12"><a xlink:href="uio_8h.html" target="_top" xlink:title="libc header for scatter/gather I/O ">
<polygon fill="none" stroke="#000000" points="57.5,-112.5 57.5,-131.5 113.5,-131.5 113.5,-112.5 57.5,-112.5"/>
<text text-anchor="middle" x="85.5" y="-119.5" font-family="Helvetica,sans-Serif" font-size="10.00" fill="#000000">sys/uio.h</text>
</a>
</g>
</g>
<!-- Node10&#45;&gt;Node11 -->
<g id="edge13" class="edge">
<title>Node10&#45;&gt;Node11</title>
<path fill="none" stroke="#191970" d="M255.2592,-168.3733C218.6354,-158.3687 161.5003,-142.7611 123.786,-132.4586"/>
<polygon fill="#191970" stroke="#191970" points="124.2657,-128.9615 113.6969,-129.7026 122.4211,-135.7141 124.2657,-128.9615"/>
</g>
<!-- Node14 -->
<g id="node15" class="node">
<title>Node14</title>
<g id="a_node15"><a xlink:href="timex_8h.html" target="_top" xlink:title="Utility library for comparing and computing timestamps. ">
<polygon fill="none" stroke="#000000" points="300,-112.5 300,-131.5 349,-131.5 349,-112.5 300,-112.5"/>
<text text-anchor="middle" x="324.5" y="-119.5" font-family="Helvetica,sans-Serif" font-size="10.00" fill="#000000">timex.h</text>
</a>
</g>
</g>
<!-- Node10&#45;&gt;Node14 -->
<g id="edge18" class="edge">
<title>Node10&#45;&gt;Node14</title>
<path fill="none" stroke="#191970" d="M296.4223,-168.2455C301.1027,-160.5367 307.7673,-149.5598 313.4289,-140.2348"/>
<polygon fill="#191970" stroke="#191970" points="316.4475,-142.007 318.6455,-131.6427 310.4639,-138.3741 316.4475,-142.007"/>
</g>
<!-- Node15 -->
<g id="node16" class="node">
<title>Node15</title>
<polygon fill="none" stroke="#bfbfbf" points="131.5,-112.5 131.5,-131.5 183.5,-131.5 183.5,-112.5 131.5,-112.5"/>
<text text-anchor="middle" x="157.5" y="-119.5" font-family="Helvetica,sans-Serif" font-size="10.00" fill="#000000">thread.h</text>
</g>
<!-- Node10&#45;&gt;Node15 -->
<g id="edge21" class="edge">
<title>Node10&#45;&gt;Node15</title>
<path fill="none" stroke="#191970" d="M267.6365,-168.3733C246.095,-159.3032 213.6162,-145.6279 189.5044,-135.4755"/>
<polygon fill="#191970" stroke="#191970" points="190.6397,-132.156 180.0652,-131.5011 187.9233,-138.6075 190.6397,-132.156"/>
</g>
<!-- Node11&#45;&gt;Node6 -->
<g id="edge17" class="edge">
<title>Node11&#45;&gt;Node6</title>
<path fill="none" stroke="#191970" d="M88.4612,-112.2455C90.7038,-104.8579 93.8577,-94.4689 96.6081,-85.4087"/>
<polygon fill="#191970" stroke="#191970" points="100.017,-86.2282 99.5728,-75.6427 93.3188,-84.1948 100.017,-86.2282"/>
</g>
<!-- Node12 -->
<g id="node13" class="node">
<title>Node12</title>
<g id="a_node13"><a xlink:href="stdlib_8h.html" target="_top" xlink:title="stdlib.h wrapper for MSP430 ">
<polygon fill="none" stroke="#000000" points="2.5,-56.5 2.5,-75.5 50.5,-75.5 50.5,-56.5 2.5,-56.5"/>
<text text-anchor="middle" x="26.5" y="-63.5" font-family="Helvetica,sans-Serif" font-size="10.00" fill="#000000">stdlib.h</text>
</a>
</g>
</g>
<!-- Node11&#45;&gt;Node12 -->
<g id="edge14" class="edge">
<title>Node11&#45;&gt;Node12</title>
<path fill="none" stroke="#191970" d="M75.223,-112.2455C66.6782,-104.1352 54.3222,-92.4075 44.1915,-82.7919"/>
<polygon fill="#191970" stroke="#191970" points="46.3218,-79.9884 36.6592,-75.6427 41.5028,-85.0655 46.3218,-79.9884"/>
</g>
<!-- Node13 -->
<g id="node14" class="node">
<title>Node13</title>
<g id="a_node14"><a xlink:href="malloc_8h.html" target="_top" xlink:title="malloc.h">
<polygon fill="none" stroke="#000000" points="0,-.5 0,-19.5 53,-19.5 53,-.5 0,-.5"/>
<text text-anchor="middle" x="26.5" y="-7.5" font-family="Helvetica,sans-Serif" font-size="10.00" fill="#000000">malloc.h</text>
</a>
</g>
</g>
<!-- Node12&#45;&gt;Node13 -->
<g id="edge15" class="edge">
<title>Node12&#45;&gt;Node13</title>
<path fill="none" stroke="#191970" d="M21.2332,-56.2455C19.8221,-48.9382 19.4179,-38.6944 20.0205,-29.7046"/>
<polygon fill="#191970" stroke="#191970" points="23.5111,-29.9945 21.2549,-19.6427 16.5632,-29.1421 23.5111,-29.9945"/>
</g>
<!-- Node13&#45;&gt;Node12 -->
<g id="edge16" class="edge">
<title>Node13&#45;&gt;Node12</title>
<path fill="none" stroke="#191970" d="M31.7451,-19.6427C33.1665,-26.9199 33.581,-37.155 32.9887,-46.1575"/>
<polygon fill="#191970" stroke="#191970" points="29.4947,-45.8972 31.7668,-56.2455 36.4439,-46.739 29.4947,-45.8972"/>
</g>
<!-- Node14&#45;&gt;Node2 -->
<g id="edge19" class="edge">
<title>Node14&#45;&gt;Node2</title>
<path fill="none" stroke="#191970" d="M336.3447,-112.2455C346.388,-103.9746 360.9995,-91.9416 372.8004,-82.2232"/>
<polygon fill="#191970" stroke="#191970" points="375.2967,-84.7015 380.791,-75.6427 370.8467,-79.298 375.2967,-84.7015"/>
</g>
<!-- Node14&#45;&gt;Node3 -->
<g id="edge20" class="edge">
<title>Node14&#45;&gt;Node3</title>
<path fill="none" stroke="#191970" d="M323.8033,-112.2455C323.2813,-104.9382 322.5496,-94.6944 321.9075,-85.7046"/>
<polygon fill="#191970" stroke="#191970" points="325.3924,-85.3679 321.1888,-75.6427 318.4102,-85.8667 325.3924,-85.3679"/>
</g>
<!-- Node16&#45;&gt;Node1 -->
<g id="edge26" class="edge">
<title>Node16&#45;&gt;Node1</title>
<path fill="none" stroke="#191970" d="M435.2046,-170.6069C432.2859,-169.6982 429.3278,-168.8066 426.5,-168 381.2629,-155.0959 329.2289,-142.3406 291.8908,-133.5468"/>
<polygon fill="#191970" stroke="#191970" points="292.3019,-130.0484 281.7671,-131.1748 290.705,-136.8639 292.3019,-130.0484"/>
</g>
<!-- Node16&#45;&gt;Node2 -->
<g id="edge24" class="edge">
<title>Node16&#45;&gt;Node2</title>
<path fill="none" stroke="#191970" d="M451.9581,-168.4509C441.1649,-149.8533 417.1605,-108.4919 403.1765,-84.3964"/>
<polygon fill="#191970" stroke="#191970" points="406.0745,-82.417 398.0278,-75.5249 400.0202,-85.9307 406.0745,-82.417"/>
</g>
<!-- Node17 -->
<g id="node18" class="node">
<title>Node17</title>
<polygon fill="none" stroke="#bfbfbf" points="443.5,-112.5 443.5,-131.5 499.5,-131.5 499.5,-112.5 443.5,-112.5"/>
<text text-anchor="middle" x="471.5" y="-119.5" font-family="Helvetica,sans-Serif" font-size="10.00" fill="#000000">stdbool.h</text>
</g>
<!-- Node16&#45;&gt;Node17 -->
<g id="edge25" class="edge">
<title>Node16&#45;&gt;Node17</title>
<path fill="none" stroke="#191970" d="M459.9386,-168.2455C461.7855,-160.8579 464.3828,-150.4689 466.6478,-141.4087"/>
<polygon fill="#191970" stroke="#191970" points="470.0594,-142.193 469.0893,-131.6427 463.2684,-140.4952 470.0594,-142.193"/>
</g>
</g>
</svg>
