<?xml version="1.0" encoding="UTF-8" standalone="no"?>
<!DOCTYPE svg PUBLIC "-//W3C//DTD SVG 1.1//EN"
 "http://www.w3.org/Graphics/SVG/1.1/DTD/svg11.dtd">
<!-- Generated by graphviz version 2.43.0 (0)
 -->
<!-- Title: cpu/sam0_common/include/cpu_conf.h Pages: 1 -->
<svg width="2596pt" height="307pt"
 viewBox="0.00 0.00 2596.00 307.00" xmlns="http://www.w3.org/2000/svg" xmlns:xlink="http://www.w3.org/1999/xlink">
<g id="graph0" class="graph" transform="scale(1 1) rotate(0) translate(4 303)">
<title>cpu/sam0_common/include/cpu_conf.h</title>
<!-- Node1 -->
<g id="node1" class="node">
<title>Node1</title>
<g id="a_node1"><a xlink:title="Implementation specific CPU configuration options.">
<polygon fill="#bfbfbf" stroke="black" points="1209.5,-268.5 1209.5,-298.5 1359.5,-298.5 1359.5,-268.5 1209.5,-268.5"/>
<text text-anchor="start" x="1217.5" y="-286.5" font-family="Helvetica,sans-Serif" font-size="10.00">cpu/sam0_common/include</text>
<text text-anchor="middle" x="1284.5" y="-275.5" font-family="Helvetica,sans-Serif" font-size="10.00">/cpu_conf.h</text>
</a>
</g>
</g>
<!-- Node2 -->
<g id="node2" class="node">
<title>Node2</title>
<g id="a_node2"><a xlink:href="exti__config_8h_source.html" target="_top" xlink:title=" ">
<polygon fill="none" stroke="black" points="1209.5,-201.5 1209.5,-231.5 1359.5,-231.5 1359.5,-201.5 1209.5,-201.5"/>
<text text-anchor="start" x="1217.5" y="-219.5" font-family="Helvetica,sans-Serif" font-size="10.00">cpu/sam0_common/include</text>
<text text-anchor="middle" x="1284.5" y="-208.5" font-family="Helvetica,sans-Serif" font-size="10.00">/exti_config.h</text>
</a>
</g>
</g>
<!-- Node1&#45;&gt;Node2 -->
<g id="edge1" class="edge">
<title>Node1&#45;&gt;Node2</title>
<path fill="none" stroke="midnightblue" d="M1284.5,-258.11C1284.5,-249.15 1284.5,-239.32 1284.5,-231.58"/>
<polygon fill="midnightblue" stroke="midnightblue" points="1281,-258.4 1284.5,-268.4 1288,-258.4 1281,-258.4"/>
</g>
<!-- Node3 -->
<g id="node3" class="node">
<title>Node3</title>
<g id="a_node3"><a xlink:href="sam0__common_2include_2periph__cpu__common_8h.html" target="_top" xlink:title="Common CPU specific definitions for all SAMx21 based CPUs.">
<polygon fill="none" stroke="black" points="1209.5,-134.5 1209.5,-164.5 1359.5,-164.5 1359.5,-134.5 1209.5,-134.5"/>
<text text-anchor="start" x="1217.5" y="-152.5" font-family="Helvetica,sans-Serif" font-size="10.00">cpu/sam0_common/include</text>
<text text-anchor="middle" x="1284.5" y="-141.5" font-family="Helvetica,sans-Serif" font-size="10.00">/periph_cpu_common.h</text>
</a>
</g>
</g>
<!-- Node2&#45;&gt;Node3 -->
<g id="edge2" class="edge">
<title>Node2&#45;&gt;Node3</title>
<path fill="none" stroke="midnightblue" d="M1284.5,-191.11C1284.5,-182.15 1284.5,-172.32 1284.5,-164.58"/>
<polygon fill="midnightblue" stroke="midnightblue" points="1281,-191.4 1284.5,-201.4 1288,-191.4 1281,-191.4"/>
</g>
<!-- Node4 -->
<g id="node4" class="node">
<title>Node4</title>
<g id="a_node4"><a xlink:href="atmega1281_2include_2periph__cpu_8h.html" target="_top" xlink:title="CPU specific definitions for internal peripheral handling.">
<polygon fill="none" stroke="black" points="0,-67.5 0,-97.5 137,-97.5 137,-67.5 0,-67.5"/>
<text text-anchor="start" x="8" y="-85.5" font-family="Helvetica,sans-Serif" font-size="10.00">cpu/atmega1281/include</text>
<text text-anchor="middle" x="68.5" y="-74.5" font-family="Helvetica,sans-Serif" font-size="10.00">/periph_cpu.h</text>
</a>
</g>
</g>
<!-- Node3&#45;&gt;Node4 -->
<g id="edge3" class="edge">
<title>Node3&#45;&gt;Node4</title>
<path fill="none" stroke="midnightblue" d="M1199.12,-148.77C1009.26,-148.48 537.9,-142.84 146.5,-98 143.49,-97.66 140.42,-97.26 137.32,-96.83"/>
<polygon fill="midnightblue" stroke="midnightblue" points="1199.31,-152.27 1209.32,-148.78 1199.32,-145.27 1199.31,-152.27"/>
</g>
<!-- Node5 -->
<g id="node5" class="node">
<title>Node5</title>
<g id="a_node5"><a xlink:href="atmega1284p_2include_2default__timer__config_8h.html" target="_top" xlink:title="Default timer configuration.">
<polygon fill="none" stroke="black" points="155,-67.5 155,-97.5 298,-97.5 298,-67.5 155,-67.5"/>
<text text-anchor="start" x="163" y="-85.5" font-family="Helvetica,sans-Serif" font-size="10.00">cpu/atmega1284p/include</text>
<text text-anchor="middle" x="226.5" y="-74.5" font-family="Helvetica,sans-Serif" font-size="10.00">/default_timer_config.h</text>
</a>
</g>
</g>
<!-- Node3&#45;&gt;Node5 -->
<g id="edge4" class="edge">
<title>Node3&#45;&gt;Node5</title>
<path fill="none" stroke="midnightblue" d="M1199.15,-147.36C1029.67,-144.38 638.83,-133.87 312.5,-98 307.83,-97.49 303.04,-96.89 298.21,-96.23"/>
<polygon fill="midnightblue" stroke="midnightblue" points="1199.2,-150.86 1209.26,-147.54 1199.32,-143.87 1199.2,-150.86"/>
</g>
<!-- Node6 -->
<g id="node6" class="node">
<title>Node6</title>
<g id="a_node6"><a xlink:href="atmega1284p_2include_2periph__cpu_8h.html" target="_top" xlink:title="CPU specific definitions for internal peripheral handling.">
<polygon fill="none" stroke="black" points="205,-0.5 205,-30.5 348,-30.5 348,-0.5 205,-0.5"/>
<text text-anchor="start" x="213" y="-18.5" font-family="Helvetica,sans-Serif" font-size="10.00">cpu/atmega1284p/include</text>
<text text-anchor="middle" x="276.5" y="-7.5" font-family="Helvetica,sans-Serif" font-size="10.00">/periph_cpu.h</text>
</a>
</g>
</g>
<!-- Node3&#45;&gt;Node6 -->
<g id="edge6" class="edge">
<title>Node3&#45;&gt;Node6</title>
<path fill="none" stroke="midnightblue" d="M1199.2,-147.75C982.16,-145.3 420.75,-135.38 345.5,-98 316.11,-83.4 294.38,-50.03 283.76,-30.82"/>
<polygon fill="midnightblue" stroke="midnightblue" points="1199.23,-151.25 1209.27,-147.86 1199.31,-144.25 1199.23,-151.25"/>
</g>
<!-- Node7 -->
<g id="node7" class="node">
<title>Node7</title>
<g id="a_node7"><a xlink:href="atmega128rfa1_2include_2periph__cpu_8h.html" target="_top" xlink:title="CPU specific definitions for internal peripheral handling.">
<polygon fill="none" stroke="black" points="354.5,-67.5 354.5,-97.5 504.5,-97.5 504.5,-67.5 354.5,-67.5"/>
<text text-anchor="start" x="362.5" y="-85.5" font-family="Helvetica,sans-Serif" font-size="10.00">cpu/atmega128rfa1/include</text>
<text text-anchor="middle" x="429.5" y="-74.5" font-family="Helvetica,sans-Serif" font-size="10.00">/periph_cpu.h</text>
</a>
</g>
</g>
<!-- Node3&#45;&gt;Node7 -->
<g id="edge7" class="edge">
<title>Node3&#45;&gt;Node7</title>
<path fill="none" stroke="midnightblue" d="M1198.99,-145.78C1056.61,-140.61 762.09,-127.16 514.5,-98 511.23,-97.61 507.89,-97.19 504.53,-96.73"/>
<polygon fill="midnightblue" stroke="midnightblue" points="1199.27,-149.29 1209.39,-146.16 1199.52,-142.3 1199.27,-149.29"/>
</g>
<!-- Node8 -->
<g id="node8" class="node">
<title>Node8</title>
<g id="a_node8"><a xlink:href="atmega2560_2include_2periph__cpu_8h.html" target="_top" xlink:title="CPU specific definitions for internal peripheral handling.">
<polygon fill="none" stroke="black" points="523,-67.5 523,-97.5 660,-97.5 660,-67.5 523,-67.5"/>
<text text-anchor="start" x="531" y="-85.5" font-family="Helvetica,sans-Serif" font-size="10.00">cpu/atmega2560/include</text>
<text text-anchor="middle" x="591.5" y="-74.5" font-family="Helvetica,sans-Serif" font-size="10.00">/periph_cpu.h</text>
</a>
</g>
</g>
<!-- Node3&#45;&gt;Node8 -->
<g id="edge8" class="edge">
<title>Node3&#45;&gt;Node8</title>
<path fill="none" stroke="midnightblue" d="M1199.31,-144.25C1080.33,-137.7 857.8,-123.17 669.5,-98 666.5,-97.6 663.43,-97.16 660.34,-96.69"/>
<polygon fill="midnightblue" stroke="midnightblue" points="1199.27,-147.76 1209.45,-144.81 1199.65,-140.77 1199.27,-147.76"/>
</g>
<!-- Node9 -->
<g id="node9" class="node">
<title>Node9</title>
<g id="a_node9"><a xlink:href="atmega256rfr2_2include_2periph__cpu_8h.html" target="_top" xlink:title="CPU specific definitions for internal peripheral handling.">
<polygon fill="none" stroke="black" points="678.5,-67.5 678.5,-97.5 826.5,-97.5 826.5,-67.5 678.5,-67.5"/>
<text text-anchor="start" x="686.5" y="-85.5" font-family="Helvetica,sans-Serif" font-size="10.00">cpu/atmega256rfr2/include</text>
<text text-anchor="middle" x="752.5" y="-74.5" font-family="Helvetica,sans-Serif" font-size="10.00">/periph_cpu.h</text>
</a>
</g>
</g>
<!-- Node3&#45;&gt;Node9 -->
<g id="edge9" class="edge">
<title>Node3&#45;&gt;Node9</title>
<path fill="none" stroke="midnightblue" d="M1199.24,-140.39C1108.97,-131.46 962.41,-115.95 836.5,-98 833.28,-97.54 829.99,-97.05 826.67,-96.55"/>
<polygon fill="midnightblue" stroke="midnightblue" points="1199.13,-143.9 1209.42,-141.4 1199.81,-136.93 1199.13,-143.9"/>
</g>
<!-- Node10 -->
<g id="node10" class="node">
<title>Node10</title>
<g id="a_node10"><a xlink:href="atmega328p_2include_2periph__cpu_8h.html" target="_top" xlink:title="CPU specific definitions for internal peripheral handling.">
<polygon fill="none" stroke="black" points="845,-67.5 845,-97.5 982,-97.5 982,-67.5 845,-67.5"/>
<text text-anchor="start" x="853" y="-85.5" font-family="Helvetica,sans-Serif" font-size="10.00">cpu/atmega328p/include</text>
<text text-anchor="middle" x="913.5" y="-74.5" font-family="Helvetica,sans-Serif" font-size="10.00">/periph_cpu.h</text>
</a>
</g>
</g>
<!-- Node3&#45;&gt;Node10 -->
<g id="edge10" class="edge">
<title>Node3&#45;&gt;Node10</title>
<path fill="none" stroke="midnightblue" d="M1199.54,-134.16C1141.03,-124.21 1061.5,-110.54 991.5,-98 988.52,-97.47 985.47,-96.92 982.39,-96.36"/>
<polygon fill="midnightblue" stroke="midnightblue" points="1199.04,-137.62 1209.48,-135.85 1200.21,-130.72 1199.04,-137.62"/>
</g>
<!-- Node11 -->
<g id="node11" class="node">
<title>Node11</title>
<g id="a_node11"><a xlink:href="atmega32u4_2include_2periph__cpu_8h.html" target="_top" xlink:title="CPU specific definitions for internal peripheral handling.">
<polygon fill="none" stroke="black" points="1000,-67.5 1000,-97.5 1137,-97.5 1137,-67.5 1000,-67.5"/>
<text text-anchor="start" x="1008" y="-85.5" font-family="Helvetica,sans-Serif" font-size="10.00">cpu/atmega32u4/include</text>
<text text-anchor="middle" x="1068.5" y="-74.5" font-family="Helvetica,sans-Serif" font-size="10.00">/periph_cpu.h</text>
</a>
</g>
</g>
<!-- Node3&#45;&gt;Node11 -->
<g id="edge11" class="edge">
<title>Node3&#45;&gt;Node11</title>
<path fill="none" stroke="midnightblue" d="M1228.27,-131.58C1193.19,-121.02 1148.56,-107.59 1115.39,-97.61"/>
<polygon fill="midnightblue" stroke="midnightblue" points="1227.31,-134.95 1237.9,-134.48 1229.33,-128.24 1227.31,-134.95"/>
</g>
<!-- Node12 -->
<g id="node12" class="node">
<title>Node12</title>
<g id="a_node12"><a xlink:href="cc26x0_2include_2periph__cpu_8h.html" target="_top" xlink:title="CPU specific definitions for internal peripheral handling.">
<polygon fill="none" stroke="black" points="1155.5,-67.5 1155.5,-97.5 1265.5,-97.5 1265.5,-67.5 1155.5,-67.5"/>
<text text-anchor="start" x="1163.5" y="-85.5" font-family="Helvetica,sans-Serif" font-size="10.00">cpu/cc26x0/include</text>
<text text-anchor="middle" x="1210.5" y="-74.5" font-family="Helvetica,sans-Serif" font-size="10.00">/periph_cpu.h</text>
</a>
</g>
</g>
<!-- Node3&#45;&gt;Node12 -->
<g id="edge12" class="edge">
<title>Node3&#45;&gt;Node12</title>
<path fill="none" stroke="midnightblue" d="M1260.7,-127.6C1249.53,-117.78 1236.51,-106.34 1226.53,-97.58"/>
<polygon fill="midnightblue" stroke="midnightblue" points="1258.62,-130.43 1268.44,-134.4 1263.24,-125.17 1258.62,-130.43"/>
</g>
<!-- Node13 -->
<g id="node13" class="node">
<title>Node13</title>
<g id="a_node13"><a xlink:href="cc26x2__cc13x2_2include_2periph__cpu_8h.html" target="_top" xlink:title="CPU specific definitions for internal peripheral handling.">
<polygon fill="none" stroke="black" points="1284,-67.5 1284,-97.5 1433,-97.5 1433,-67.5 1284,-67.5"/>
<text text-anchor="start" x="1292" y="-85.5" font-family="Helvetica,sans-Serif" font-size="10.00">cpu/cc26x2_cc13x2/include</text>
<text text-anchor="middle" x="1358.5" y="-74.5" font-family="Helvetica,sans-Serif" font-size="10.00">/periph_cpu.h</text>
</a>
</g>
</g>
<!-- Node3&#45;&gt;Node13 -->
<g id="edge13" class="edge">
<title>Node3&#45;&gt;Node13</title>
<path fill="none" stroke="midnightblue" d="M1308.3,-127.6C1319.47,-117.78 1332.49,-106.34 1342.47,-97.58"/>
<polygon fill="midnightblue" stroke="midnightblue" points="1305.76,-125.17 1300.56,-134.4 1310.38,-130.43 1305.76,-125.17"/>
</g>
<!-- Node14 -->
<g id="node14" class="node">
<title>Node14</title>
<g id="a_node14"><a xlink:href="mips__pic32mx_2include_2periph__cpu_8h_source.html" target="_top" xlink:title=" ">
<polygon fill="none" stroke="black" points="1451.5,-67.5 1451.5,-97.5 1597.5,-97.5 1597.5,-67.5 1451.5,-67.5"/>
<text text-anchor="start" x="1459.5" y="-85.5" font-family="Helvetica,sans-Serif" font-size="10.00">cpu/mips_pic32mx/include</text>
<text text-anchor="middle" x="1524.5" y="-74.5" font-family="Helvetica,sans-Serif" font-size="10.00">/periph_cpu.h</text>
</a>
</g>
</g>
<!-- Node3&#45;&gt;Node14 -->
<g id="edge14" class="edge">
<title>Node3&#45;&gt;Node14</title>
<path fill="none" stroke="midnightblue" d="M1345.98,-131.85C1385.11,-121.25 1435.23,-107.68 1472.4,-97.61"/>
<polygon fill="midnightblue" stroke="midnightblue" points="1345.02,-128.48 1336.28,-134.48 1346.85,-135.24 1345.02,-128.48"/>
</g>
<!-- Node15 -->
<g id="node15" class="node">
<title>Node15</title>
<g id="a_node15"><a xlink:href="mips__pic32mz_2include_2periph__cpu_8h_source.html" target="_top" xlink:title=" ">
<polygon fill="none" stroke="black" points="1615.5,-67.5 1615.5,-97.5 1761.5,-97.5 1761.5,-67.5 1615.5,-67.5"/>
<text text-anchor="start" x="1623.5" y="-85.5" font-family="Helvetica,sans-Serif" font-size="10.00">cpu/mips_pic32mz/include</text>
<text text-anchor="middle" x="1688.5" y="-74.5" font-family="Helvetica,sans-Serif" font-size="10.00">/periph_cpu.h</text>
</a>
</g>
</g>
<!-- Node3&#45;&gt;Node15 -->
<g id="edge15" class="edge">
<title>Node3&#45;&gt;Node15</title>
<path fill="none" stroke="midnightblue" d="M1369.9,-135.57C1434.84,-125.62 1526.37,-111.37 1606.5,-98 1609.35,-97.52 1612.26,-97.03 1615.19,-96.54"/>
<polygon fill="midnightblue" stroke="midnightblue" points="1369.07,-132.16 1359.71,-137.13 1370.13,-139.08 1369.07,-132.16"/>
</g>
<!-- Node16 -->
<g id="node16" class="node">
<title>Node16</title>
<g id="a_node16"><a xlink:href="nrf51_2include_2periph__cpu_8h.html" target="_top" xlink:title="nRF51 specific definitions for handling peripherals">
<polygon fill="none" stroke="black" points="1779.5,-67.5 1779.5,-97.5 1913.5,-97.5 1913.5,-67.5 1779.5,-67.5"/>
<text text-anchor="start" x="1787.5" y="-85.5" font-family="Helvetica,sans-Serif" font-size="10.00">cpu/nrf51/include/periph</text>
<text text-anchor="middle" x="1846.5" y="-74.5" font-family="Helvetica,sans-Serif" font-size="10.00">_cpu.h</text>
</a>
</g>
</g>
<!-- Node3&#45;&gt;Node16 -->
<g id="edge16" class="edge">
<title>Node3&#45;&gt;Node16</title>
<path fill="none" stroke="midnightblue" d="M1369.75,-141.85C1467.01,-133.75 1630.68,-118.57 1770.5,-98 1773.42,-97.57 1776.41,-97.11 1779.42,-96.62"/>
<polygon fill="midnightblue" stroke="midnightblue" points="1369.36,-138.37 1359.68,-142.68 1369.93,-145.35 1369.36,-138.37"/>
</g>
<!-- Node17 -->
<g id="node17" class="node">
<title>Node17</title>
<g id="a_node17"><a xlink:href="nrf52_2include_2periph__cpu_8h.html" target="_top" xlink:title="nRF52 specific definitions for handling peripherals">
<polygon fill="none" stroke="black" points="1931.5,-67.5 1931.5,-97.5 2065.5,-97.5 2065.5,-67.5 1931.5,-67.5"/>
<text text-anchor="start" x="1939.5" y="-85.5" font-family="Helvetica,sans-Serif" font-size="10.00">cpu/nrf52/include/periph</text>
<text text-anchor="middle" x="1998.5" y="-74.5" font-family="Helvetica,sans-Serif" font-size="10.00">_cpu.h</text>
</a>
</g>
</g>
<!-- Node3&#45;&gt;Node17 -->
<g id="edge17" class="edge">
<title>Node3&#45;&gt;Node17</title>
<path fill="none" stroke="midnightblue" d="M1370,-144.71C1492.72,-138.6 1725.69,-124.48 1922.5,-98 1925.43,-97.61 1928.42,-97.17 1931.43,-96.71"/>
<polygon fill="midnightblue" stroke="midnightblue" points="1369.73,-141.22 1359.92,-145.21 1370.08,-148.21 1369.73,-141.22"/>
</g>
<!-- Node18 -->
<g id="node18" class="node">
<title>Node18</title>
<g id="a_node18"><a xlink:href="samd21_2include_2periph__cpu_8h.html" target="_top" xlink:title="CPU specific definitions for internal peripheral handling.">
<polygon fill="none" stroke="black" points="2083.5,-67.5 2083.5,-97.5 2197.5,-97.5 2197.5,-67.5 2083.5,-67.5"/>
<text text-anchor="start" x="2091.5" y="-85.5" font-family="Helvetica,sans-Serif" font-size="10.00">cpu/samd21/include</text>
<text text-anchor="middle" x="2140.5" y="-74.5" font-family="Helvetica,sans-Serif" font-size="10.00">/periph_cpu.h</text>
</a>
</g>
</g>
<!-- Node3&#45;&gt;Node18 -->
<g id="edge18" class="edge">
<title>Node3&#45;&gt;Node18</title>
<path fill="none" stroke="midnightblue" d="M1369.96,-147.3C1515.35,-144.3 1819.84,-133.9 2074.5,-98 2077.4,-97.59 2080.37,-97.12 2083.36,-96.61"/>
<polygon fill="midnightblue" stroke="midnightblue" points="1369.7,-143.8 1359.77,-147.5 1369.84,-150.8 1369.7,-143.8"/>
</g>
<!-- Node19 -->
<g id="node19" class="node">
<title>Node19</title>
<g id="a_node19"><a xlink:href="samd5x_2include_2periph__cpu_8h.html" target="_top" xlink:title="CPU specific definitions for internal peripheral handling.">
<polygon fill="none" stroke="black" points="2215.5,-67.5 2215.5,-97.5 2329.5,-97.5 2329.5,-67.5 2215.5,-67.5"/>
<text text-anchor="start" x="2223.5" y="-85.5" font-family="Helvetica,sans-Serif" font-size="10.00">cpu/samd5x/include</text>
<text text-anchor="middle" x="2272.5" y="-74.5" font-family="Helvetica,sans-Serif" font-size="10.00">/periph_cpu.h</text>
</a>
</g>
</g>
<!-- Node3&#45;&gt;Node19 -->
<g id="edge19" class="edge">
<title>Node3&#45;&gt;Node19</title>
<path fill="none" stroke="midnightblue" d="M1370.04,-148.41C1533.39,-147.24 1900.7,-139.69 2206.5,-98 2209.41,-97.6 2212.37,-97.15 2215.36,-96.64"/>
<polygon fill="midnightblue" stroke="midnightblue" points="1369.56,-144.92 1359.58,-148.48 1369.61,-151.92 1369.56,-144.92"/>
</g>
<!-- Node20 -->
<g id="node20" class="node">
<title>Node20</title>
<g id="a_node20"><a xlink:href="saml1x_2include_2periph__cpu_8h.html" target="_top" xlink:title="CPU specific definitions for internal peripheral handling.">
<polygon fill="none" stroke="black" points="2348,-67.5 2348,-97.5 2459,-97.5 2459,-67.5 2348,-67.5"/>
<text text-anchor="start" x="2356" y="-85.5" font-family="Helvetica,sans-Serif" font-size="10.00">cpu/saml1x/include</text>
<text text-anchor="middle" x="2403.5" y="-74.5" font-family="Helvetica,sans-Serif" font-size="10.00">/periph_cpu.h</text>
</a>
</g>
</g>
<!-- Node3&#45;&gt;Node20 -->
<g id="edge20" class="edge">
<title>Node3&#45;&gt;Node20</title>
<path fill="none" stroke="midnightblue" d="M1369.85,-149.35C1549.8,-150.07 1980.96,-146.08 2338.5,-98 2341.59,-97.58 2344.76,-97.09 2347.94,-96.55"/>
<polygon fill="midnightblue" stroke="midnightblue" points="1369.67,-145.85 1359.66,-149.31 1369.64,-152.85 1369.67,-145.85"/>
</g>
<!-- Node21 -->
<g id="node21" class="node">
<title>Node21</title>
<g id="a_node21"><a xlink:href="saml21_2include_2periph__cpu_8h.html" target="_top" xlink:title="CPU specific definitions for internal peripheral handling.">
<polygon fill="none" stroke="black" points="2477,-67.5 2477,-97.5 2588,-97.5 2588,-67.5 2477,-67.5"/>
<text text-anchor="start" x="2485" y="-85.5" font-family="Helvetica,sans-Serif" font-size="10.00">cpu/saml21/include</text>
<text text-anchor="middle" x="2532.5" y="-74.5" font-family="Helvetica,sans-Serif" font-size="10.00">/periph_cpu.h</text>
</a>
</g>
</g>
<!-- Node3&#45;&gt;Node21 -->
<g id="edge21" class="edge">
<title>Node3&#45;&gt;Node21</title>
<path fill="none" stroke="midnightblue" d="M1370.03,-146.85C1604.83,-142.02 2256,-126.37 2468.5,-98 2471.21,-97.64 2473.97,-97.22 2476.76,-96.75"/>
<polygon fill="midnightblue" stroke="midnightblue" points="1369.77,-143.36 1359.84,-147.06 1369.91,-150.36 1369.77,-143.36"/>
</g>
<!-- Node5&#45;&gt;Node6 -->
<g id="edge5" class="edge">
<title>Node5&#45;&gt;Node6</title>
<path fill="none" stroke="midnightblue" d="M243.46,-59.45C250.81,-49.9 259.19,-39 265.67,-30.58"/>
<polygon fill="midnightblue" stroke="midnightblue" points="240.67,-57.34 237.35,-67.4 246.22,-61.6 240.67,-57.34"/>
</g>
</g>
</svg>
