<?xml version="1.0" encoding="UTF-8" standalone="no"?>
<!DOCTYPE svg PUBLIC "-//W3C//DTD SVG 1.1//EN"
 "http://www.w3.org/Graphics/SVG/1.1/DTD/svg11.dtd">
<!-- Generated by graphviz version 2.43.0 (0)
 -->
<!-- Title: cpu/sam0_common/include/periph_cpu_common.h Pages: 1 -->
<svg width="255pt" height="207pt"
 viewBox="0.00 0.00 255.00 207.00" xmlns="http://www.w3.org/2000/svg" xmlns:xlink="http://www.w3.org/1999/xlink">
<g id="graph0" class="graph" transform="scale(1 1) rotate(0) translate(4 203)">
<title>cpu/sam0_common/include/periph_cpu_common.h</title>
<!-- Node1 -->
<g id="node1" class="node">
<title>Node1</title>
<g id="a_node1"><a xlink:title="Common CPU specific definitions for all SAMx21 based CPUs.">
<polygon fill="#bfbfbf" stroke="black" points="26.5,-168.5 26.5,-198.5 176.5,-198.5 176.5,-168.5 26.5,-168.5"/>
<text text-anchor="start" x="34.5" y="-186.5" font-family="Helvetica,sans-Serif" font-size="10.00">cpu/sam0_common/include</text>
<text text-anchor="middle" x="101.5" y="-175.5" font-family="Helvetica,sans-Serif" font-size="10.00">/periph_cpu_common.h</text>
</a>
</g>
</g>
<!-- Node2 -->
<g id="node2" class="node">
<title>Node2</title>
<g id="a_node2"><a xlink:title=" ">
<polygon fill="none" stroke="#bfbfbf" points="0,-112.5 0,-131.5 43,-131.5 43,-112.5 0,-112.5"/>
<text text-anchor="middle" x="21.5" y="-119.5" font-family="Helvetica,sans-Serif" font-size="10.00">cpu.h</text>
</a>
</g>
</g>
<!-- Node1&#45;&gt;Node2 -->
<g id="edge1" class="edge">
<title>Node1&#45;&gt;Node2</title>
<path fill="none" stroke="midnightblue" d="M82.54,-168.4C70.08,-159.13 53.8,-147.03 41.19,-137.65"/>
<polygon fill="midnightblue" stroke="midnightblue" points="43.25,-134.82 33.14,-131.66 39.08,-140.43 43.25,-134.82"/>
</g>
<!-- Node3 -->
<g id="node3" class="node">
<title>Node3</title>
<g id="a_node3"><a xlink:href="exti__config_8h_source.html" target="_top" xlink:title=" ">
<polygon fill="none" stroke="black" points="61.5,-112.5 61.5,-131.5 141.5,-131.5 141.5,-112.5 61.5,-112.5"/>
<text text-anchor="middle" x="101.5" y="-119.5" font-family="Helvetica,sans-Serif" font-size="10.00">exti_config.h</text>
</a>
</g>
</g>
<!-- Node1&#45;&gt;Node3 -->
<g id="edge2" class="edge">
<title>Node1&#45;&gt;Node3</title>
<path fill="none" stroke="midnightblue" d="M101.5,-168.4C101.5,-160.47 101.5,-150.46 101.5,-141.86"/>
<polygon fill="midnightblue" stroke="midnightblue" points="105,-141.66 101.5,-131.66 98,-141.66 105,-141.66"/>
</g>
<!-- Node6 -->
<g id="node6" class="node">
<title>Node6</title>
<g id="a_node6"><a xlink:href="timer__config_8h_source.html" target="_top" xlink:title=" ">
<polygon fill="none" stroke="black" points="160,-112.5 160,-131.5 247,-131.5 247,-112.5 160,-112.5"/>
<text text-anchor="middle" x="203.5" y="-119.5" font-family="Helvetica,sans-Serif" font-size="10.00">timer_config.h</text>
</a>
</g>
</g>
<!-- Node1&#45;&gt;Node6 -->
<g id="edge5" class="edge">
<title>Node1&#45;&gt;Node6</title>
<path fill="none" stroke="midnightblue" d="M125.67,-168.4C142.02,-158.86 163.51,-146.32 179.77,-136.84"/>
<polygon fill="midnightblue" stroke="midnightblue" points="181.78,-139.72 188.66,-131.66 178.26,-133.67 181.78,-139.72"/>
</g>
<!-- Node4 -->
<g id="node4" class="node">
<title>Node4</title>
<g id="a_node4"><a xlink:href="sam0__common_2include_2cpu__conf_8h.html" target="_top" xlink:title="Implementation specific CPU configuration options.">
<polygon fill="none" stroke="black" points="67.5,-56.5 67.5,-75.5 135.5,-75.5 135.5,-56.5 67.5,-56.5"/>
<text text-anchor="middle" x="101.5" y="-63.5" font-family="Helvetica,sans-Serif" font-size="10.00">cpu_conf.h</text>
</a>
</g>
</g>
<!-- Node3&#45;&gt;Node4 -->
<g id="edge3" class="edge">
<title>Node3&#45;&gt;Node4</title>
<path fill="none" stroke="midnightblue" d="M101.5,-112.08C101.5,-105.01 101.5,-94.86 101.5,-85.99"/>
<polygon fill="midnightblue" stroke="midnightblue" points="105,-85.75 101.5,-75.75 98,-85.75 105,-85.75"/>
</g>
<!-- Node5 -->
<g id="node5" class="node">
<title>Node5</title>
<g id="a_node5"><a xlink:title=" ">
<polygon fill="none" stroke="#bfbfbf" points="43,-0.5 43,-19.5 160,-19.5 160,-0.5 43,-0.5"/>
<text text-anchor="middle" x="101.5" y="-7.5" font-family="Helvetica,sans-Serif" font-size="10.00">cpu_conf_common.h</text>
</a>
</g>
</g>
<!-- Node4&#45;&gt;Node5 -->
<g id="edge4" class="edge">
<title>Node4&#45;&gt;Node5</title>
<path fill="none" stroke="midnightblue" d="M101.5,-56.08C101.5,-49.01 101.5,-38.86 101.5,-29.99"/>
<polygon fill="midnightblue" stroke="midnightblue" points="105,-29.75 101.5,-19.75 98,-29.75 105,-29.75"/>
</g>
</g>
</svg>
