<?xml version="1.0" encoding="UTF-8" standalone="no"?>
<!DOCTYPE svg PUBLIC "-//W3C//DTD SVG 1.1//EN"
 "http://www.w3.org/Graphics/SVG/1.1/DTD/svg11.dtd">
<!-- Generated by graphviz version 2.40.1 (20161225.0304)
 -->
<!-- Title: cpu/sam0_common/include/periph_cpu_common.h Pages: 1 -->
<svg width="2370pt" height="173pt"
 viewBox="0.00 0.00 2369.50 173.00" xmlns="http://www.w3.org/2000/svg" xmlns:xlink="http://www.w3.org/1999/xlink">
<g id="graph0" class="graph" transform="scale(1 1) rotate(0) translate(4 169)">
<title>cpu/sam0_common/include/periph_cpu_common.h</title>
<!-- Node5 -->
<g id="node1" class="node">
<title>Node5</title>
<polygon fill="#bfbfbf" stroke="#000000" points="1097,-134.5 1097,-164.5 1233,-164.5 1233,-134.5 1097,-134.5"/>
<text text-anchor="start" x="1105" y="-152.5" font-family="Helvetica,sans-Serif" font-size="10.00" fill="#000000">cpu/sam0_common/include</text>
<text text-anchor="middle" x="1165" y="-141.5" font-family="Helvetica,sans-Serif" font-size="10.00" fill="#000000">/periph_cpu_common.h</text>
</g>
<!-- Node6 -->
<g id="node2" class="node">
<title>Node6</title>
<g id="a_node2"><a xlink:href="atmega1281_2include_2periph__cpu_8h.html" target="_top" xlink:title="CPU specific definitions for internal peripheral handling. ">
<polygon fill="none" stroke="#000000" points="0,-67.5 0,-97.5 122,-97.5 122,-67.5 0,-67.5"/>
<text text-anchor="start" x="8" y="-85.5" font-family="Helvetica,sans-Serif" font-size="10.00" fill="#000000">cpu/atmega1281/include</text>
<text text-anchor="middle" x="61" y="-74.5" font-family="Helvetica,sans-Serif" font-size="10.00" fill="#000000">/periph_cpu.h</text>
</a>
</g>
</g>
<!-- Node5&#45;&gt;Node6 -->
<g id="edge1" class="edge">
<title>Node5&#45;&gt;Node6</title>
<path fill="none" stroke="#191970" d="M1086.5062,-147.3016C878.3276,-141.1974 315.4778,-122.8388 131,-98 128.1628,-97.618 125.2703,-97.1795 122.3555,-96.6978"/>
<polygon fill="#191970" stroke="#191970" points="1086.6449,-150.8071 1096.7427,-147.6003 1086.8491,-143.8101 1086.6449,-150.8071"/>
</g>
<!-- Node7 -->
<g id="node3" class="node">
<title>Node7</title>
<g id="a_node3"><a xlink:href="atmega1284p_2include_2default__timer__config_8h.html" target="_top" xlink:title="Default timer configuration. ">
<polygon fill="none" stroke="#000000" points="140,-67.5 140,-97.5 268,-97.5 268,-67.5 140,-67.5"/>
<text text-anchor="start" x="148" y="-85.5" font-family="Helvetica,sans-Serif" font-size="10.00" fill="#000000">cpu/atmega1284p/include</text>
<text text-anchor="middle" x="204" y="-74.5" font-family="Helvetica,sans-Serif" font-size="10.00" fill="#000000">/default_timer_config.h</text>
</a>
</g>
</g>
<!-- Node5&#45;&gt;Node7 -->
<g id="edge2" class="edge">
<title>Node5&#45;&gt;Node7</title>
<path fill="none" stroke="#191970" d="M1086.5145,-148.5481C931.9256,-145.8737 577.3746,-135.7787 282,-98 277.4807,-97.422 272.8304,-96.7354 268.158,-95.9779"/>
<polygon fill="#191970" stroke="#191970" points="1086.7934,-152.0532 1096.8506,-148.721 1086.9106,-145.0542 1086.7934,-152.0532"/>
</g>
<!-- Node8 -->
<g id="node4" class="node">
<title>Node8</title>
<g id="a_node4"><a xlink:href="atmega1284p_2include_2periph__cpu_8h.html" target="_top" xlink:title="CPU specific definitions for internal peripheral handling. ">
<polygon fill="none" stroke="#000000" points="186,-.5 186,-30.5 314,-30.5 314,-.5 186,-.5"/>
<text text-anchor="start" x="194" y="-18.5" font-family="Helvetica,sans-Serif" font-size="10.00" fill="#000000">cpu/atmega1284p/include</text>
<text text-anchor="middle" x="250" y="-7.5" font-family="Helvetica,sans-Serif" font-size="10.00" fill="#000000">/periph_cpu.h</text>
</a>
</g>
</g>
<!-- Node5&#45;&gt;Node8 -->
<g id="edge4" class="edge">
<title>Node5&#45;&gt;Node8</title>
<path fill="none" stroke="#191970" d="M1086.8235,-148.3912C889.5289,-145.0824 382.3161,-133.217 315,-98 286.7255,-83.2079 266.733,-50.0871 256.9122,-30.6087"/>
<polygon fill="#191970" stroke="#191970" points="1086.7733,-151.8908 1096.8296,-148.5561 1086.8887,-144.8917 1086.7733,-151.8908"/>
</g>
<!-- Node9 -->
<g id="node5" class="node">
<title>Node9</title>
<g id="a_node5"><a xlink:href="atmega128rfa1_2include_2periph__cpu_8h.html" target="_top" xlink:title="CPU specific definitions for internal peripheral handling. ">
<polygon fill="none" stroke="#000000" points="324,-67.5 324,-97.5 458,-97.5 458,-67.5 324,-67.5"/>
<text text-anchor="start" x="332" y="-85.5" font-family="Helvetica,sans-Serif" font-size="10.00" fill="#000000">cpu/atmega128rfa1/include</text>
<text text-anchor="middle" x="391" y="-74.5" font-family="Helvetica,sans-Serif" font-size="10.00" fill="#000000">/periph_cpu.h</text>
</a>
</g>
</g>
<!-- Node5&#45;&gt;Node9 -->
<g id="edge5" class="edge">
<title>Node5&#45;&gt;Node9</title>
<path fill="none" stroke="#191970" d="M1086.6089,-146.9765C957.1001,-142.0782 690.5414,-128.9136 467,-98 464.0654,-97.5942 461.0739,-97.1436 458.057,-96.659"/>
<polygon fill="#191970" stroke="#191970" points="1086.7024,-150.4823 1096.8256,-147.3565 1086.9626,-143.4872 1086.7024,-150.4823"/>
</g>
<!-- Node10 -->
<g id="node6" class="node">
<title>Node10</title>
<g id="a_node6"><a xlink:href="atmega2560_2include_2periph__cpu_8h.html" target="_top" xlink:title="CPU specific definitions for internal peripheral handling. ">
<polygon fill="none" stroke="#000000" points="476,-67.5 476,-97.5 598,-97.5 598,-67.5 476,-67.5"/>
<text text-anchor="start" x="484" y="-85.5" font-family="Helvetica,sans-Serif" font-size="10.00" fill="#000000">cpu/atmega2560/include</text>
<text text-anchor="middle" x="537" y="-74.5" font-family="Helvetica,sans-Serif" font-size="10.00" fill="#000000">/periph_cpu.h</text>
</a>
</g>
</g>
<!-- Node5&#45;&gt;Node10 -->
<g id="edge6" class="edge">
<title>Node5&#45;&gt;Node10</title>
<path fill="none" stroke="#191970" d="M1086.7656,-145.3033C978.6487,-138.8137 777.6737,-124.2632 608,-98 604.7583,-97.4982 601.4426,-96.9385 598.1016,-96.3377"/>
<polygon fill="#191970" stroke="#191970" points="1086.7448,-148.8081 1096.9345,-145.9062 1087.1592,-141.8204 1086.7448,-148.8081"/>
</g>
<!-- Node11 -->
<g id="node7" class="node">
<title>Node11</title>
<g id="a_node7"><a xlink:href="atmega256rfr2_2include_2periph__cpu_8h.html" target="_top" xlink:title="CPU specific definitions for internal peripheral handling. ">
<polygon fill="none" stroke="#000000" points="616.5,-67.5 616.5,-97.5 747.5,-97.5 747.5,-67.5 616.5,-67.5"/>
<text text-anchor="start" x="624.5" y="-85.5" font-family="Helvetica,sans-Serif" font-size="10.00" fill="#000000">cpu/atmega256rfr2/include</text>
<text text-anchor="middle" x="682" y="-74.5" font-family="Helvetica,sans-Serif" font-size="10.00" fill="#000000">/periph_cpu.h</text>
</a>
</g>
</g>
<!-- Node5&#45;&gt;Node11 -->
<g id="edge7" class="edge">
<title>Node5&#45;&gt;Node11</title>
<path fill="none" stroke="#191970" d="M1086.8747,-141.4762C1004.5568,-132.5926 871.2601,-116.9883 757,-98 753.9833,-97.4987 750.9033,-96.9623 747.7956,-96.4013"/>
<polygon fill="#191970" stroke="#191970" points="1086.5873,-144.9653 1096.9037,-142.5524 1087.3343,-138.0053 1086.5873,-144.9653"/>
</g>
<!-- Node12 -->
<g id="node8" class="node">
<title>Node12</title>
<g id="a_node8"><a xlink:href="atmega328p_2include_2periph__cpu_8h.html" target="_top" xlink:title="CPU specific definitions for internal peripheral handling. ">
<polygon fill="none" stroke="#000000" points="766,-67.5 766,-97.5 888,-97.5 888,-67.5 766,-67.5"/>
<text text-anchor="start" x="774" y="-85.5" font-family="Helvetica,sans-Serif" font-size="10.00" fill="#000000">cpu/atmega328p/include</text>
<text text-anchor="middle" x="827" y="-74.5" font-family="Helvetica,sans-Serif" font-size="10.00" fill="#000000">/periph_cpu.h</text>
</a>
</g>
</g>
<!-- Node5&#45;&gt;Node12 -->
<g id="edge8" class="edge">
<title>Node5&#45;&gt;Node12</title>
<path fill="none" stroke="#191970" d="M1086.7768,-135.0672C1033.2655,-125.0472 960.7482,-111.1802 897,-98 894.0746,-97.3952 891.0824,-96.7675 888.0618,-96.1266"/>
<polygon fill="#191970" stroke="#191970" points="1086.4059,-138.5584 1096.8788,-136.9554 1087.6921,-131.6776 1086.4059,-138.5584"/>
</g>
<!-- Node13 -->
<g id="node9" class="node">
<title>Node13</title>
<g id="a_node9"><a xlink:href="atmega32u4_2include_2periph__cpu_8h.html" target="_top" xlink:title="CPU specific definitions for internal peripheral handling. ">
<polygon fill="none" stroke="#000000" points="906,-67.5 906,-97.5 1028,-97.5 1028,-67.5 906,-67.5"/>
<text text-anchor="start" x="914" y="-85.5" font-family="Helvetica,sans-Serif" font-size="10.00" fill="#000000">cpu/atmega32u4/include</text>
<text text-anchor="middle" x="967" y="-74.5" font-family="Helvetica,sans-Serif" font-size="10.00" fill="#000000">/periph_cpu.h</text>
</a>
</g>
</g>
<!-- Node5&#45;&gt;Node13 -->
<g id="edge9" class="edge">
<title>Node5&#45;&gt;Node13</title>
<path fill="none" stroke="#191970" d="M1110.7398,-131.1392C1079.6039,-120.6033 1040.9913,-107.5375 1011.6289,-97.6017"/>
<polygon fill="#191970" stroke="#191970" points="1109.9707,-134.5739 1120.5649,-134.4639 1112.2144,-127.9432 1109.9707,-134.5739"/>
</g>
<!-- Node14 -->
<g id="node10" class="node">
<title>Node14</title>
<g id="a_node10"><a xlink:href="cc26x0_2include_2periph__cpu_8h.html" target="_top" xlink:title="CPU specific definitions for internal peripheral handling. ">
<polygon fill="none" stroke="#000000" points="1046.5,-67.5 1046.5,-97.5 1147.5,-97.5 1147.5,-67.5 1046.5,-67.5"/>
<text text-anchor="start" x="1054.5" y="-85.5" font-family="Helvetica,sans-Serif" font-size="10.00" fill="#000000">cpu/cc26x0/include</text>
<text text-anchor="middle" x="1097" y="-74.5" font-family="Helvetica,sans-Serif" font-size="10.00" fill="#000000">/periph_cpu.h</text>
</a>
</g>
</g>
<!-- Node5&#45;&gt;Node14 -->
<g id="edge10" class="edge">
<title>Node5&#45;&gt;Node14</title>
<path fill="none" stroke="#191970" d="M1142.3786,-127.2113C1132.5233,-117.5009 1121.2261,-106.3698 1112.3692,-97.6432"/>
<polygon fill="#191970" stroke="#191970" points="1139.99,-129.7713 1149.5697,-134.2967 1144.903,-124.785 1139.99,-129.7713"/>
</g>
<!-- Node15 -->
<g id="node11" class="node">
<title>Node15</title>
<g id="a_node11"><a xlink:href="cc26x2__cc13x2_2include_2periph__cpu_8h.html" target="_top" xlink:title="CPU specific definitions for internal peripheral handling. ">
<polygon fill="none" stroke="#000000" points="1165.5,-67.5 1165.5,-97.5 1302.5,-97.5 1302.5,-67.5 1165.5,-67.5"/>
<text text-anchor="start" x="1173.5" y="-85.5" font-family="Helvetica,sans-Serif" font-size="10.00" fill="#000000">cpu/cc26x2_cc13x2/include</text>
<text text-anchor="middle" x="1234" y="-74.5" font-family="Helvetica,sans-Serif" font-size="10.00" fill="#000000">/periph_cpu.h</text>
</a>
</g>
</g>
<!-- Node5&#45;&gt;Node15 -->
<g id="edge11" class="edge">
<title>Node5&#45;&gt;Node15</title>
<path fill="none" stroke="#191970" d="M1187.954,-127.2113C1197.9543,-117.5009 1209.4176,-106.3698 1218.4048,-97.6432"/>
<polygon fill="#191970" stroke="#191970" points="1185.3932,-124.8193 1180.6572,-134.2967 1190.2697,-129.8413 1185.3932,-124.8193"/>
</g>
<!-- Node16 -->
<g id="node12" class="node">
<title>Node16</title>
<g id="a_node12"><a xlink:href="mips__pic32mx_2include_2periph__cpu_8h_source.html" target="_top" xlink:title="cpu/mips_pic32mx/include\l/periph_cpu.h">
<polygon fill="none" stroke="#000000" points="1321,-67.5 1321,-97.5 1453,-97.5 1453,-67.5 1321,-67.5"/>
<text text-anchor="start" x="1329" y="-85.5" font-family="Helvetica,sans-Serif" font-size="10.00" fill="#000000">cpu/mips_pic32mx/include</text>
<text text-anchor="middle" x="1387" y="-74.5" font-family="Helvetica,sans-Serif" font-size="10.00" fill="#000000">/periph_cpu.h</text>
</a>
</g>
</g>
<!-- Node5&#45;&gt;Node16 -->
<g id="edge12" class="edge">
<title>Node5&#45;&gt;Node16</title>
<path fill="none" stroke="#191970" d="M1224.4814,-131.5484C1259.6209,-120.9432 1303.6125,-107.6665 1336.9616,-97.6017"/>
<polygon fill="#191970" stroke="#191970" points="1223.3834,-128.2238 1214.8211,-134.4639 1225.4059,-134.9252 1223.3834,-128.2238"/>
</g>
<!-- Node17 -->
<g id="node13" class="node">
<title>Node17</title>
<g id="a_node13"><a xlink:href="mips__pic32mz_2include_2periph__cpu_8h_source.html" target="_top" xlink:title="cpu/mips_pic32mz/include\l/periph_cpu.h">
<polygon fill="none" stroke="#000000" points="1471,-67.5 1471,-97.5 1603,-97.5 1603,-67.5 1471,-67.5"/>
<text text-anchor="start" x="1479" y="-85.5" font-family="Helvetica,sans-Serif" font-size="10.00" fill="#000000">cpu/mips_pic32mz/include</text>
<text text-anchor="middle" x="1537" y="-74.5" font-family="Helvetica,sans-Serif" font-size="10.00" fill="#000000">/periph_cpu.h</text>
</a>
</g>
</g>
<!-- Node5&#45;&gt;Node17 -->
<g id="edge13" class="edge">
<title>Node5&#45;&gt;Node17</title>
<path fill="none" stroke="#191970" d="M1243.3849,-136.6135C1303.3374,-126.5866 1388.0054,-112.0577 1462,-98 1464.8737,-97.454 1467.8074,-96.8875 1470.7695,-96.3078"/>
<polygon fill="#191970" stroke="#191970" points="1242.5222,-133.209 1233.2349,-138.3076 1243.6747,-140.1135 1242.5222,-133.209"/>
</g>
<!-- Node18 -->
<g id="node14" class="node">
<title>Node18</title>
<g id="a_node14"><a xlink:href="nrf51_2include_2periph__cpu_8h.html" target="_top" xlink:title="nRF51 specific definitions for handling peripherals ">
<polygon fill="none" stroke="#000000" points="1621,-67.5 1621,-97.5 1741,-97.5 1741,-67.5 1621,-67.5"/>
<text text-anchor="start" x="1629" y="-85.5" font-family="Helvetica,sans-Serif" font-size="10.00" fill="#000000">cpu/nrf51/include/periph</text>
<text text-anchor="middle" x="1681" y="-74.5" font-family="Helvetica,sans-Serif" font-size="10.00" fill="#000000">_cpu.h</text>
</a>
</g>
</g>
<!-- Node5&#45;&gt;Node18 -->
<g id="edge14" class="edge">
<title>Node5&#45;&gt;Node18</title>
<path fill="none" stroke="#191970" d="M1243.1646,-143.0306C1332.6689,-135.036 1483.5149,-119.7695 1612,-98 1614.9052,-97.5078 1617.8722,-96.9716 1620.8638,-96.404"/>
<polygon fill="#191970" stroke="#191970" points="1242.7466,-139.5539 1233.0943,-143.9225 1243.3642,-146.5266 1242.7466,-139.5539"/>
</g>
<!-- Node19 -->
<g id="node15" class="node">
<title>Node19</title>
<g id="a_node15"><a xlink:href="nrf52_2include_2periph__cpu_8h.html" target="_top" xlink:title="nRF52 specific definitions for handling peripherals ">
<polygon fill="none" stroke="#000000" points="1759,-67.5 1759,-97.5 1879,-97.5 1879,-67.5 1759,-67.5"/>
<text text-anchor="start" x="1767" y="-85.5" font-family="Helvetica,sans-Serif" font-size="10.00" fill="#000000">cpu/nrf52/include/periph</text>
<text text-anchor="middle" x="1819" y="-74.5" font-family="Helvetica,sans-Serif" font-size="10.00" fill="#000000">_cpu.h</text>
</a>
</g>
</g>
<!-- Node5&#45;&gt;Node19 -->
<g id="edge15" class="edge">
<title>Node5&#45;&gt;Node19</title>
<path fill="none" stroke="#191970" d="M1243.6128,-145.9097C1356.2946,-140.0097 1570.001,-126.0127 1750,-98 1752.9116,-97.5469 1755.8837,-97.0425 1758.8794,-96.5004"/>
<polygon fill="#191970" stroke="#191970" points="1243.1653,-142.428 1233.359,-146.4388 1243.5261,-149.4187 1243.1653,-142.428"/>
</g>
<!-- Node20 -->
<g id="node16" class="node">
<title>Node20</title>
<g id="a_node16"><a xlink:href="samd21_2include_2periph__cpu_8h.html" target="_top" xlink:title="CPU specific definitions for internal peripheral handling. ">
<polygon fill="none" stroke="#000000" points="1897,-67.5 1897,-97.5 2001,-97.5 2001,-67.5 1897,-67.5"/>
<text text-anchor="start" x="1905" y="-85.5" font-family="Helvetica,sans-Serif" font-size="10.00" fill="#000000">cpu/samd21/include</text>
<text text-anchor="middle" x="1949" y="-74.5" font-family="Helvetica,sans-Serif" font-size="10.00" fill="#000000">/periph_cpu.h</text>
</a>
</g>
</g>
<!-- Node5&#45;&gt;Node20 -->
<g id="edge16" class="edge">
<title>Node5&#45;&gt;Node20</title>
<path fill="none" stroke="#191970" d="M1243.3598,-148.4677C1376.6139,-145.6994 1655.5306,-135.509 1888,-98 1890.9126,-97.5301 1893.8893,-96.9868 1896.8843,-96.391"/>
<polygon fill="#191970" stroke="#191970" points="1243.1734,-144.9706 1233.2452,-148.6693 1243.313,-151.9692 1243.1734,-144.9706"/>
</g>
<!-- Node21 -->
<g id="node17" class="node">
<title>Node21</title>
<g id="a_node17"><a xlink:href="samd5x_2include_2periph__cpu_8h.html" target="_top" xlink:title="CPU specific definitions for internal peripheral handling. ">
<polygon fill="none" stroke="#000000" points="2019,-67.5 2019,-97.5 2123,-97.5 2123,-67.5 2019,-67.5"/>
<text text-anchor="start" x="2027" y="-85.5" font-family="Helvetica,sans-Serif" font-size="10.00" fill="#000000">cpu/samd5x/include</text>
<text text-anchor="middle" x="2071" y="-74.5" font-family="Helvetica,sans-Serif" font-size="10.00" fill="#000000">/periph_cpu.h</text>
</a>
</g>
</g>
<!-- Node5&#45;&gt;Node21 -->
<g id="edge17" class="edge">
<title>Node5&#45;&gt;Node21</title>
<path fill="none" stroke="#191970" d="M1243.4607,-146.6057C1423.816,-139.6467 1863.633,-120.8481 2010,-98 2012.9149,-97.545 2015.8936,-97.0135 2018.89,-96.4268"/>
<polygon fill="#191970" stroke="#191970" points="1243.1128,-143.1164 1233.2545,-146.9976 1243.3815,-150.1113 1243.1128,-143.1164"/>
</g>
<!-- Node22 -->
<g id="node18" class="node">
<title>Node22</title>
<g id="a_node18"><a xlink:href="saml1x_2include_2periph__cpu_8h.html" target="_top" xlink:title="CPU specific definitions for internal peripheral handling. ">
<polygon fill="none" stroke="#000000" points="2141.5,-67.5 2141.5,-97.5 2242.5,-97.5 2242.5,-67.5 2141.5,-67.5"/>
<text text-anchor="start" x="2149.5" y="-85.5" font-family="Helvetica,sans-Serif" font-size="10.00" fill="#000000">cpu/saml1x/include</text>
<text text-anchor="middle" x="2192" y="-74.5" font-family="Helvetica,sans-Serif" font-size="10.00" fill="#000000">/periph_cpu.h</text>
</a>
</g>
</g>
<!-- Node5&#45;&gt;Node22 -->
<g id="edge18" class="edge">
<title>Node5&#45;&gt;Node22</title>
<path fill="none" stroke="#191970" d="M1243.3201,-147.346C1441.8888,-141.5608 1961.3346,-124.3187 2132,-98 2135.0836,-97.5245 2138.2384,-96.9578 2141.409,-96.3267"/>
<polygon fill="#191970" stroke="#191970" points="1243.1515,-143.8493 1233.2571,-147.6373 1243.3542,-150.8464 1243.1515,-143.8493"/>
</g>
<!-- Node23 -->
<g id="node19" class="node">
<title>Node23</title>
<g id="a_node19"><a xlink:href="saml21_2include_2periph__cpu_8h.html" target="_top" xlink:title="CPU specific definitions for internal peripheral handling. ">
<polygon fill="none" stroke="#000000" points="2260.5,-67.5 2260.5,-97.5 2361.5,-97.5 2361.5,-67.5 2260.5,-67.5"/>
<text text-anchor="start" x="2268.5" y="-85.5" font-family="Helvetica,sans-Serif" font-size="10.00" fill="#000000">cpu/saml21/include</text>
<text text-anchor="middle" x="2311" y="-74.5" font-family="Helvetica,sans-Serif" font-size="10.00" fill="#000000">/periph_cpu.h</text>
</a>
</g>
</g>
<!-- Node5&#45;&gt;Node23 -->
<g id="edge19" class="edge">
<title>Node5&#45;&gt;Node23</title>
<path fill="none" stroke="#191970" d="M1243.3948,-147.9189C1458.9348,-143.2318 2057.3546,-127.8409 2252,-98 2254.7218,-97.5827 2257.4993,-97.0903 2260.2931,-96.5424"/>
<polygon fill="#191970" stroke="#191970" points="1243.0387,-144.4257 1233.1165,-148.1406 1243.1897,-151.424 1243.0387,-144.4257"/>
</g>
<!-- Node7&#45;&gt;Node8 -->
<g id="edge3" class="edge">
<title>Node7&#45;&gt;Node8</title>
<path fill="none" stroke="#191970" d="M220.2898,-58.7735C226.7148,-49.4154 233.9054,-38.9421 239.6032,-30.6432"/>
<polygon fill="#191970" stroke="#191970" points="217.2128,-57.0716 214.4381,-67.2967 222.9836,-61.0337 217.2128,-57.0716"/>
</g>
</g>
</svg>
