<?xml version="1.0" encoding="UTF-8" standalone="no"?>
<!DOCTYPE svg PUBLIC "-//W3C//DTD SVG 1.1//EN"
 "http://www.w3.org/Graphics/SVG/1.1/DTD/svg11.dtd">
<!-- Generated by graphviz version 2.43.0 (0)
 -->
<!-- Title: drivers/scd30/include/scd30_params.h Pages: 1 -->
<svg width="1337pt" height="599pt"
 viewBox="0.00 0.00 1336.54 599.00" xmlns="http://www.w3.org/2000/svg" xmlns:xlink="http://www.w3.org/1999/xlink">
<g id="graph0" class="graph" transform="scale(1 1) rotate(0) translate(4 595)">
<title>drivers/scd30/include/scd30_params.h</title>
<!-- Node1 -->
<g id="node1" class="node">
<title>Node1</title>
<g id="a_node1"><a xlink:title="Device driver params interface for the SCD30 sensor.">
<polygon fill="#bfbfbf" stroke="black" points="668.5,-560.5 668.5,-590.5 788.5,-590.5 788.5,-560.5 668.5,-560.5"/>
<text text-anchor="start" x="676.5" y="-578.5" font-family="Helvetica,sans-Serif" font-size="10.00">drivers/scd30/include</text>
<text text-anchor="middle" x="728.5" y="-567.5" font-family="Helvetica,sans-Serif" font-size="10.00">/scd30_params.h</text>
</a>
</g>
</g>
<!-- Node2 -->
<g id="node2" class="node">
<title>Node2</title>
<g id="a_node2"><a xlink:href="i2c_8h.html" target="_top" xlink:title="Low&#45;level I2C peripheral driver interface definition.">
<polygon fill="none" stroke="black" points="1206.5,-336.5 1206.5,-355.5 1280.5,-355.5 1280.5,-336.5 1206.5,-336.5"/>
<text text-anchor="middle" x="1243.5" y="-343.5" font-family="Helvetica,sans-Serif" font-size="10.00">periph/i2c.h</text>
</a>
</g>
</g>
<!-- Node1&#45;&gt;Node2 -->
<g id="edge1" class="edge">
<title>Node1&#45;&gt;Node2</title>
<path fill="none" stroke="midnightblue" d="M788.69,-561.92C865.08,-545.02 1000.16,-511.94 1110.5,-468 1160,-448.29 1180.6,-451.37 1216.5,-412 1228.45,-398.89 1235.53,-379.74 1239.42,-365.62"/>
<polygon fill="midnightblue" stroke="midnightblue" points="1242.9,-366.14 1241.89,-355.59 1236.1,-364.46 1242.9,-366.14"/>
</g>
<!-- Node8 -->
<g id="node8" class="node">
<title>Node8</title>
<g id="a_node8"><a xlink:href="scd30_8h.html" target="_top" xlink:title="Device driver interface for the SCD30 sensor.">
<polygon fill="none" stroke="black" points="701.5,-504.5 701.5,-523.5 755.5,-523.5 755.5,-504.5 701.5,-504.5"/>
<text text-anchor="middle" x="728.5" y="-511.5" font-family="Helvetica,sans-Serif" font-size="10.00">scd30.h</text>
</a>
</g>
</g>
<!-- Node1&#45;&gt;Node8 -->
<g id="edge7" class="edge">
<title>Node1&#45;&gt;Node8</title>
<path fill="none" stroke="midnightblue" d="M728.5,-560.4C728.5,-552.47 728.5,-542.46 728.5,-533.86"/>
<polygon fill="midnightblue" stroke="midnightblue" points="732,-533.66 728.5,-523.66 725,-533.66 732,-533.66"/>
</g>
<!-- Node36 -->
<g id="node36" class="node">
<title>Node36</title>
<g id="a_node36"><a xlink:href="saul__reg_8h.html" target="_top" xlink:title="SAUL registry interface definition.">
<polygon fill="none" stroke="black" points="0,-224.5 0,-243.5 67,-243.5 67,-224.5 0,-224.5"/>
<text text-anchor="middle" x="33.5" y="-231.5" font-family="Helvetica,sans-Serif" font-size="10.00">saul_reg.h</text>
</a>
</g>
</g>
<!-- Node1&#45;&gt;Node36 -->
<g id="edge70" class="edge">
<title>Node1&#45;&gt;Node36</title>
<path fill="none" stroke="midnightblue" d="M668.49,-570.65C501.82,-559.14 45.5,-521.91 45.5,-459 45.5,-459 45.5,-459 45.5,-345 45.5,-312.76 40.34,-275.51 36.79,-253.68"/>
<polygon fill="midnightblue" stroke="midnightblue" points="40.19,-252.8 35.07,-243.52 33.29,-253.97 40.19,-252.8"/>
</g>
<!-- Node3 -->
<g id="node3" class="node">
<title>Node3</title>
<g id="a_node3"><a xlink:title=" ">
<polygon fill="none" stroke="#bfbfbf" points="277,-0.5 277,-19.5 330,-19.5 330,-0.5 277,-0.5"/>
<text text-anchor="middle" x="303.5" y="-7.5" font-family="Helvetica,sans-Serif" font-size="10.00">stdint.h</text>
</a>
</g>
</g>
<!-- Node2&#45;&gt;Node3 -->
<g id="edge2" class="edge">
<title>Node2&#45;&gt;Node3</title>
<path fill="none" stroke="midnightblue" d="M1250.04,-336.41C1262.95,-318.56 1290.5,-275.7 1290.5,-235 1290.5,-235 1290.5,-235 1290.5,-121 1290.5,-72.24 519.55,-23.75 340.38,-13.14"/>
<polygon fill="midnightblue" stroke="midnightblue" points="340.34,-9.63 330.16,-12.53 339.93,-16.61 340.34,-9.63"/>
</g>
<!-- Node4 -->
<g id="node4" class="node">
<title>Node4</title>
<g id="a_node4"><a xlink:title=" ">
<polygon fill="none" stroke="#bfbfbf" points="694.5,-0.5 694.5,-19.5 750.5,-19.5 750.5,-0.5 694.5,-0.5"/>
<text text-anchor="middle" x="722.5" y="-7.5" font-family="Helvetica,sans-Serif" font-size="10.00">stddef.h</text>
</a>
</g>
</g>
<!-- Node2&#45;&gt;Node4 -->
<g id="edge3" class="edge">
<title>Node2&#45;&gt;Node4</title>
<path fill="none" stroke="midnightblue" d="M1260.11,-336.36C1273.74,-328.52 1292.64,-315.78 1304.5,-300 1323,-275.38 1328.5,-265.8 1328.5,-235 1328.5,-235 1328.5,-235 1328.5,-121 1328.5,-90.2 1329.07,-74.57 1304.5,-56 1261.24,-23.31 883.57,-13.83 760.84,-11.6"/>
<polygon fill="midnightblue" stroke="midnightblue" points="760.84,-8.1 750.78,-11.42 760.71,-15.09 760.84,-8.1"/>
</g>
<!-- Node5 -->
<g id="node5" class="node">
<title>Node5</title>
<g id="a_node5"><a xlink:title=" ">
<polygon fill="none" stroke="#bfbfbf" points="1171,-280.5 1171,-299.5 1224,-299.5 1224,-280.5 1171,-280.5"/>
<text text-anchor="middle" x="1197.5" y="-287.5" font-family="Helvetica,sans-Serif" font-size="10.00">limits.h</text>
</a>
</g>
</g>
<!-- Node2&#45;&gt;Node5 -->
<g id="edge4" class="edge">
<title>Node2&#45;&gt;Node5</title>
<path fill="none" stroke="midnightblue" d="M1235.9,-336.08C1229.27,-328.3 1219.48,-316.8 1211.44,-307.37"/>
<polygon fill="midnightblue" stroke="midnightblue" points="1214.1,-305.09 1204.95,-299.75 1208.77,-309.63 1214.1,-305.09"/>
</g>
<!-- Node6 -->
<g id="node6" class="node">
<title>Node6</title>
<g id="a_node6"><a xlink:title=" ">
<polygon fill="none" stroke="#bfbfbf" points="973.5,-280.5 973.5,-299.5 1055.5,-299.5 1055.5,-280.5 973.5,-280.5"/>
<text text-anchor="middle" x="1014.5" y="-287.5" font-family="Helvetica,sans-Serif" font-size="10.00">periph_conf.h</text>
</a>
</g>
</g>
<!-- Node2&#45;&gt;Node6 -->
<g id="edge5" class="edge">
<title>Node2&#45;&gt;Node6</title>
<path fill="none" stroke="midnightblue" d="M1207.21,-336.44C1167.52,-327.08 1103.79,-312.06 1060.59,-301.87"/>
<polygon fill="midnightblue" stroke="midnightblue" points="1061.15,-298.41 1050.62,-299.52 1059.55,-305.22 1061.15,-298.41"/>
</g>
<!-- Node7 -->
<g id="node7" class="node">
<title>Node7</title>
<g id="a_node7"><a xlink:title=" ">
<polygon fill="none" stroke="#bfbfbf" points="1074,-280.5 1074,-299.5 1153,-299.5 1153,-280.5 1074,-280.5"/>
<text text-anchor="middle" x="1113.5" y="-287.5" font-family="Helvetica,sans-Serif" font-size="10.00">periph_cpu.h</text>
</a>
</g>
</g>
<!-- Node2&#45;&gt;Node7 -->
<g id="edge6" class="edge">
<title>Node2&#45;&gt;Node7</title>
<path fill="none" stroke="midnightblue" d="M1222.9,-336.44C1201.51,-327.56 1167.82,-313.56 1143.48,-303.45"/>
<polygon fill="midnightblue" stroke="midnightblue" points="1144.58,-300.12 1134,-299.52 1141.89,-306.58 1144.58,-300.12"/>
</g>
<!-- Node8&#45;&gt;Node2 -->
<g id="edge8" class="edge">
<title>Node8&#45;&gt;Node2</title>
<path fill="none" stroke="midnightblue" d="M755.72,-513.29C831.18,-512.85 1047.03,-503.18 1192.5,-412 1211.04,-400.38 1225.6,-379.52 1234.33,-364.56"/>
<polygon fill="midnightblue" stroke="midnightblue" points="1237.43,-366.19 1239.22,-355.74 1231.31,-362.8 1237.43,-366.19"/>
</g>
<!-- Node9 -->
<g id="node9" class="node">
<title>Node9</title>
<g id="a_node9"><a xlink:href="saul_8h.html" target="_top" xlink:title="Definition of the generic [S]ensor [A]ctuator [U]ber [L]ayer.">
<polygon fill="none" stroke="black" points="61.5,-168.5 61.5,-187.5 107.5,-187.5 107.5,-168.5 61.5,-168.5"/>
<text text-anchor="middle" x="84.5" y="-175.5" font-family="Helvetica,sans-Serif" font-size="10.00">saul.h</text>
</a>
</g>
</g>
<!-- Node8&#45;&gt;Node9 -->
<g id="edge9" class="edge">
<title>Node8&#45;&gt;Node9</title>
<path fill="none" stroke="midnightblue" d="M701.3,-511.2C580.14,-502.83 95.5,-465.46 95.5,-403 95.5,-403 95.5,-403 95.5,-289 95.5,-256.79 90.77,-219.53 87.52,-197.69"/>
<polygon fill="midnightblue" stroke="midnightblue" points="90.93,-196.87 85.94,-187.53 84.01,-197.95 90.93,-196.87"/>
</g>
<!-- Node13 -->
<g id="node13" class="node">
<title>Node13</title>
<g id="a_node13"><a xlink:href="xtimer_8h.html" target="_top" xlink:title="xtimer interface definitions">
<polygon fill="none" stroke="black" points="699.5,-448.5 699.5,-467.5 757.5,-467.5 757.5,-448.5 699.5,-448.5"/>
<text text-anchor="middle" x="728.5" y="-455.5" font-family="Helvetica,sans-Serif" font-size="10.00">xtimer.h</text>
</a>
</g>
</g>
<!-- Node8&#45;&gt;Node13 -->
<g id="edge18" class="edge">
<title>Node8&#45;&gt;Node13</title>
<path fill="none" stroke="midnightblue" d="M728.5,-504.08C728.5,-497.01 728.5,-486.86 728.5,-477.99"/>
<polygon fill="midnightblue" stroke="midnightblue" points="732,-477.75 728.5,-467.75 725,-477.75 732,-477.75"/>
</g>
<!-- Node9&#45;&gt;Node3 -->
<g id="edge10" class="edge">
<title>Node9&#45;&gt;Node3</title>
<path fill="none" stroke="midnightblue" d="M71.95,-168.44C55.41,-156.07 29.82,-132.44 42.5,-112 90.23,-35.08 206.73,-16.63 266.62,-12.28"/>
<polygon fill="midnightblue" stroke="midnightblue" points="267.01,-15.76 276.77,-11.64 266.57,-8.77 267.01,-15.76"/>
</g>
<!-- Node10 -->
<g id="node10" class="node">
<title>Node10</title>
<g id="a_node10"><a xlink:href="errno_8h.html" target="_top" xlink:title=" ">
<polygon fill="none" stroke="black" points="129,-112.5 129,-131.5 180,-131.5 180,-112.5 129,-112.5"/>
<text text-anchor="middle" x="154.5" y="-119.5" font-family="Helvetica,sans-Serif" font-size="10.00">errno.h</text>
</a>
</g>
</g>
<!-- Node9&#45;&gt;Node10 -->
<g id="edge11" class="edge">
<title>Node9&#45;&gt;Node10</title>
<path fill="none" stroke="midnightblue" d="M95.75,-168.32C106.3,-160.18 122.3,-147.84 134.94,-138.09"/>
<polygon fill="midnightblue" stroke="midnightblue" points="137.27,-140.71 143.05,-131.83 132.99,-135.17 137.27,-140.71"/>
</g>
<!-- Node11 -->
<g id="node11" class="node">
<title>Node11</title>
<g id="a_node11"><a xlink:href="phydat_8h.html" target="_top" xlink:title="Generic data container for physical data interface.">
<polygon fill="none" stroke="black" points="52,-112.5 52,-131.5 111,-131.5 111,-112.5 52,-112.5"/>
<text text-anchor="middle" x="81.5" y="-119.5" font-family="Helvetica,sans-Serif" font-size="10.00">phydat.h</text>
</a>
</g>
</g>
<!-- Node9&#45;&gt;Node11 -->
<g id="edge12" class="edge">
<title>Node9&#45;&gt;Node11</title>
<path fill="none" stroke="midnightblue" d="M84,-168.08C83.61,-161.01 83.05,-150.86 82.55,-141.99"/>
<polygon fill="midnightblue" stroke="midnightblue" points="86.04,-141.54 81.99,-131.75 79.05,-141.93 86.04,-141.54"/>
</g>
<!-- Node11&#45;&gt;Node3 -->
<g id="edge14" class="edge">
<title>Node11&#45;&gt;Node3</title>
<path fill="none" stroke="midnightblue" d="M95.1,-112.4C116.01,-99.36 157.53,-74.17 194.5,-56 219.52,-43.71 248.75,-31.76 270.65,-23.27"/>
<polygon fill="midnightblue" stroke="midnightblue" points="272.07,-26.48 280.15,-19.62 269.56,-19.94 272.07,-26.48"/>
</g>
<!-- Node11&#45;&gt;Node4 -->
<g id="edge13" class="edge">
<title>Node11&#45;&gt;Node4</title>
<path fill="none" stroke="midnightblue" d="M111.3,-114.08C114.41,-113.37 117.52,-112.67 120.5,-112 235.87,-86.27 264.03,-76.17 380.5,-56 490.11,-37.02 620.72,-21.89 684.14,-15.02"/>
<polygon fill="midnightblue" stroke="midnightblue" points="684.89,-18.46 694.45,-13.91 684.14,-11.5 684.89,-18.46"/>
</g>
<!-- Node12 -->
<g id="node12" class="node">
<title>Node12</title>
<g id="a_node12"><a xlink:href="kernel__defines_8h.html" target="_top" xlink:title="Common macros and compiler attributes/pragmas configuration.">
<polygon fill="none" stroke="black" points="389,-56.5 389,-75.5 486,-75.5 486,-56.5 389,-56.5"/>
<text text-anchor="middle" x="437.5" y="-63.5" font-family="Helvetica,sans-Serif" font-size="10.00">kernel_defines.h</text>
</a>
</g>
</g>
<!-- Node11&#45;&gt;Node12 -->
<g id="edge15" class="edge">
<title>Node11&#45;&gt;Node12</title>
<path fill="none" stroke="midnightblue" d="M111.26,-113.86C114.37,-113.19 117.49,-112.56 120.5,-112 232.6,-91.16 261.62,-92.06 374.5,-76 375.79,-75.82 377.1,-75.63 378.42,-75.44"/>
<polygon fill="midnightblue" stroke="midnightblue" points="379.26,-78.86 388.66,-73.98 378.27,-71.93 379.26,-78.86"/>
</g>
<!-- Node12&#45;&gt;Node3 -->
<g id="edge17" class="edge">
<title>Node12&#45;&gt;Node3</title>
<path fill="none" stroke="midnightblue" d="M416.27,-56.44C394.12,-47.52 359.18,-33.44 334.06,-23.32"/>
<polygon fill="midnightblue" stroke="midnightblue" points="335.22,-20.01 324.63,-19.52 332.6,-26.5 335.22,-20.01"/>
</g>
<!-- Node12&#45;&gt;Node4 -->
<g id="edge16" class="edge">
<title>Node12&#45;&gt;Node4</title>
<path fill="none" stroke="midnightblue" d="M482.66,-56.44C538.43,-45.88 632.3,-28.09 684.53,-18.19"/>
<polygon fill="midnightblue" stroke="midnightblue" points="685.22,-21.63 694.4,-16.32 683.92,-14.75 685.22,-21.63"/>
</g>
<!-- Node13&#45;&gt;Node3 -->
<g id="edge20" class="edge">
<title>Node13&#45;&gt;Node3</title>
<path fill="none" stroke="midnightblue" d="M699.32,-456.87C639.93,-455.78 501.41,-449.11 392.5,-412 312.73,-384.82 246.5,-375.28 246.5,-291 246.5,-291 246.5,-291 246.5,-121 246.5,-84.3 271.82,-47.66 288.71,-27.3"/>
<polygon fill="midnightblue" stroke="midnightblue" points="291.45,-29.48 295.33,-19.62 286.15,-24.9 291.45,-29.48"/>
</g>
<!-- Node13&#45;&gt;Node6 -->
<g id="edge58" class="edge">
<title>Node13&#45;&gt;Node6</title>
<path fill="none" stroke="midnightblue" d="M757.8,-454.57C813.81,-449.42 933.45,-435.9 966.5,-412 999.67,-388.02 1009.93,-337.4 1013.1,-309.84"/>
<polygon fill="midnightblue" stroke="midnightblue" points="1016.61,-309.87 1014.06,-299.59 1009.64,-309.22 1016.61,-309.87"/>
</g>
<!-- Node14 -->
<g id="node14" class="node">
<title>Node14</title>
<g id="a_node14"><a xlink:title=" ">
<polygon fill="none" stroke="#bfbfbf" points="812.5,-168.5 812.5,-187.5 874.5,-187.5 874.5,-168.5 812.5,-168.5"/>
<text text-anchor="middle" x="843.5" y="-175.5" font-family="Helvetica,sans-Serif" font-size="10.00">stdbool.h</text>
</a>
</g>
</g>
<!-- Node13&#45;&gt;Node14 -->
<g id="edge19" class="edge">
<title>Node13&#45;&gt;Node14</title>
<path fill="none" stroke="midnightblue" d="M757.56,-455.96C787.92,-453.12 834.17,-443.52 856.5,-412 903.78,-345.26 868.4,-238.87 851.33,-196.88"/>
<polygon fill="midnightblue" stroke="midnightblue" points="854.56,-195.52 847.45,-187.66 848.1,-198.23 854.56,-195.52"/>
</g>
<!-- Node15 -->
<g id="node15" class="node">
<title>Node15</title>
<g id="a_node15"><a xlink:href="timex_8h.html" target="_top" xlink:title="Utility library for comparing and computing timestamps.">
<polygon fill="none" stroke="black" points="892.5,-168.5 892.5,-187.5 946.5,-187.5 946.5,-168.5 892.5,-168.5"/>
<text text-anchor="middle" x="919.5" y="-175.5" font-family="Helvetica,sans-Serif" font-size="10.00">timex.h</text>
</a>
</g>
</g>
<!-- Node13&#45;&gt;Node15 -->
<g id="edge21" class="edge">
<title>Node13&#45;&gt;Node15</title>
<path fill="none" stroke="midnightblue" d="M719.47,-448.34C707.37,-435.65 688.61,-411.39 699.5,-392 737.99,-323.48 795.74,-356.37 850.5,-300 880.58,-269.04 902.26,-222.43 912.63,-197.04"/>
<polygon fill="midnightblue" stroke="midnightblue" points="915.95,-198.16 916.37,-187.57 909.44,-195.58 915.95,-198.16"/>
</g>
<!-- Node17 -->
<g id="node17" class="node">
<title>Node17</title>
<g id="a_node17"><a xlink:href="mutex_8h.html" target="_top" xlink:title="Mutex for thread synchronization.">
<polygon fill="none" stroke="black" points="524,-336.5 524,-355.5 581,-355.5 581,-336.5 524,-336.5"/>
<text text-anchor="middle" x="552.5" y="-343.5" font-family="Helvetica,sans-Serif" font-size="10.00">mutex.h</text>
</a>
</g>
</g>
<!-- Node13&#45;&gt;Node17 -->
<g id="edge24" class="edge">
<title>Node13&#45;&gt;Node17</title>
<path fill="none" stroke="midnightblue" d="M714.69,-448.37C684.36,-429.41 611.7,-384 574.81,-360.94"/>
<polygon fill="midnightblue" stroke="midnightblue" points="576.58,-357.92 566.25,-355.59 572.87,-363.86 576.58,-357.92"/>
</g>
<!-- Node27 -->
<g id="node27" class="node">
<title>Node27</title>
<g id="a_node27"><a xlink:href="sched_8h.html" target="_top" xlink:title="Scheduler API definition.">
<polygon fill="none" stroke="black" points="642.5,-168.5 642.5,-187.5 696.5,-187.5 696.5,-168.5 642.5,-168.5"/>
<text text-anchor="middle" x="669.5" y="-175.5" font-family="Helvetica,sans-Serif" font-size="10.00">sched.h</text>
</a>
</g>
</g>
<!-- Node13&#45;&gt;Node27 -->
<g id="edge51" class="edge">
<title>Node13&#45;&gt;Node27</title>
<path fill="none" stroke="midnightblue" d="M757.65,-454.46C806.5,-449.67 907.59,-437.39 989.5,-412 1048.39,-393.75 1273.06,-327.28 1233.5,-280 1199.3,-239.13 827.19,-195.92 706.83,-182.92"/>
<polygon fill="midnightblue" stroke="midnightblue" points="706.95,-179.41 696.63,-181.82 706.2,-186.37 706.95,-179.41"/>
</g>
<!-- Node29 -->
<g id="node29" class="node">
<title>Node29</title>
<g id="a_node29"><a xlink:href="rmutex_8h.html" target="_top" xlink:title="Recursive Mutex for thread synchronization.">
<polygon fill="none" stroke="black" points="401,-392.5 401,-411.5 462,-411.5 462,-392.5 401,-392.5"/>
<text text-anchor="middle" x="431.5" y="-399.5" font-family="Helvetica,sans-Serif" font-size="10.00">rmutex.h</text>
</a>
</g>
</g>
<!-- Node13&#45;&gt;Node29 -->
<g id="edge52" class="edge">
<title>Node13&#45;&gt;Node29</title>
<path fill="none" stroke="midnightblue" d="M699.48,-451.72C646.36,-442.07 533.35,-421.52 472.44,-410.44"/>
<polygon fill="midnightblue" stroke="midnightblue" points="472.88,-406.97 462.41,-408.62 471.62,-413.85 472.88,-406.97"/>
</g>
<!-- Node31 -->
<g id="node31" class="node">
<title>Node31</title>
<g id="a_node31"><a xlink:title=" ">
<polygon fill="none" stroke="#bfbfbf" points="904,-392.5 904,-411.5 957,-411.5 957,-392.5 904,-392.5"/>
<text text-anchor="middle" x="930.5" y="-399.5" font-family="Helvetica,sans-Serif" font-size="10.00">board.h</text>
</a>
</g>
</g>
<!-- Node13&#45;&gt;Node31 -->
<g id="edge57" class="edge">
<title>Node13&#45;&gt;Node31</title>
<path fill="none" stroke="midnightblue" d="M757.87,-449.15C793.93,-439.51 855.09,-423.16 894.1,-412.73"/>
<polygon fill="midnightblue" stroke="midnightblue" points="895.23,-416.05 903.99,-410.09 893.43,-409.29 895.23,-416.05"/>
</g>
<!-- Node32 -->
<g id="node32" class="node">
<title>Node32</title>
<g id="a_node32"><a xlink:href="tick__conversion_8h.html" target="_top" xlink:title="xtimer tick &lt;&#45;&gt; seconds conversions for different values of XTIMER_HZ">
<polygon fill="none" stroke="black" points="124,-392.5 124,-411.5 261,-411.5 261,-392.5 124,-392.5"/>
<text text-anchor="middle" x="192.5" y="-399.5" font-family="Helvetica,sans-Serif" font-size="10.00">xtimer/tick_conversion.h</text>
</a>
</g>
</g>
<!-- Node13&#45;&gt;Node32 -->
<g id="edge59" class="edge">
<title>Node13&#45;&gt;Node32</title>
<path fill="none" stroke="midnightblue" d="M699.34,-454.2C627.36,-447.25 435.47,-428.62 275.5,-412 274.2,-411.87 272.89,-411.73 271.58,-411.59"/>
<polygon fill="midnightblue" stroke="midnightblue" points="271.65,-408.08 261.34,-410.51 270.92,-415.04 271.65,-408.08"/>
</g>
<!-- Node34 -->
<g id="node34" class="node">
<title>Node34</title>
<g id="a_node34"><a xlink:href="implementation_8h.html" target="_top" xlink:title="xtimer implementation">
<polygon fill="none" stroke="black" points="708,-392.5 708,-411.5 847,-411.5 847,-392.5 708,-392.5"/>
<text text-anchor="middle" x="777.5" y="-399.5" font-family="Helvetica,sans-Serif" font-size="10.00">xtimer/implementation.h</text>
</a>
</g>
</g>
<!-- Node13&#45;&gt;Node34 -->
<g id="edge63" class="edge">
<title>Node13&#45;&gt;Node34</title>
<path fill="none" stroke="midnightblue" d="M736.59,-448.08C743.66,-440.3 754.09,-428.8 762.65,-419.37"/>
<polygon fill="midnightblue" stroke="midnightblue" points="765.43,-421.51 769.56,-411.75 760.25,-416.8 765.43,-421.51"/>
</g>
<!-- Node15&#45;&gt;Node3 -->
<g id="edge22" class="edge">
<title>Node15&#45;&gt;Node3</title>
<path fill="none" stroke="midnightblue" d="M919.66,-168.36C919.41,-154.32 916.75,-126.64 900.5,-112 817.11,-36.85 457.31,-16.79 340.37,-12.21"/>
<polygon fill="midnightblue" stroke="midnightblue" points="340.27,-8.7 330.14,-11.83 340.01,-15.7 340.27,-8.7"/>
</g>
<!-- Node16 -->
<g id="node16" class="node">
<title>Node16</title>
<g id="a_node16"><a xlink:href="inttypes_8h.html" target="_top" xlink:title="Adds include for missing inttype definitions.">
<polygon fill="none" stroke="black" points="826,-112.5 826,-131.5 891,-131.5 891,-112.5 826,-112.5"/>
<text text-anchor="middle" x="858.5" y="-119.5" font-family="Helvetica,sans-Serif" font-size="10.00">inttypes.h</text>
</a>
</g>
</g>
<!-- Node15&#45;&gt;Node16 -->
<g id="edge23" class="edge">
<title>Node15&#45;&gt;Node16</title>
<path fill="none" stroke="midnightblue" d="M909.7,-168.32C900.68,-160.34 887.09,-148.31 876.18,-138.65"/>
<polygon fill="midnightblue" stroke="midnightblue" points="878.29,-135.84 868.48,-131.83 873.65,-141.08 878.29,-135.84"/>
</g>
<!-- Node17&#45;&gt;Node3 -->
<g id="edge26" class="edge">
<title>Node17&#45;&gt;Node3</title>
<path fill="none" stroke="midnightblue" d="M523.84,-344.19C462.18,-340.78 322.5,-323.3 322.5,-235 322.5,-235 322.5,-235 322.5,-121 322.5,-88.49 314.34,-51.35 308.72,-29.61"/>
<polygon fill="midnightblue" stroke="midnightblue" points="312.04,-28.5 306.06,-19.75 305.28,-30.32 312.04,-28.5"/>
</g>
<!-- Node17&#45;&gt;Node4 -->
<g id="edge25" class="edge">
<title>Node17&#45;&gt;Node4</title>
<path fill="none" stroke="midnightblue" d="M581.26,-341.69C630.82,-334.27 731.19,-311.29 774.5,-244 819.87,-173.52 761.1,-68.98 734.42,-28.18"/>
<polygon fill="midnightblue" stroke="midnightblue" points="737.31,-26.21 728.83,-19.86 731.49,-30.11 737.31,-26.21"/>
</g>
<!-- Node17&#45;&gt;Node12 -->
<g id="edge30" class="edge">
<title>Node17&#45;&gt;Node12</title>
<path fill="none" stroke="midnightblue" d="M536.55,-336.42C523.56,-328.61 505.76,-315.89 495.5,-300 450.45,-230.21 440.39,-127.9 438.15,-85.98"/>
<polygon fill="midnightblue" stroke="midnightblue" points="441.64,-85.67 437.7,-75.83 434.64,-85.98 441.64,-85.67"/>
</g>
<!-- Node18 -->
<g id="node18" class="node">
<title>Node18</title>
<g id="a_node18"><a xlink:href="irq_8h.html" target="_top" xlink:title="IRQ driver interface.">
<polygon fill="none" stroke="black" points="803.5,-280.5 803.5,-299.5 841.5,-299.5 841.5,-280.5 803.5,-280.5"/>
<text text-anchor="middle" x="822.5" y="-287.5" font-family="Helvetica,sans-Serif" font-size="10.00">irq.h</text>
</a>
</g>
</g>
<!-- Node17&#45;&gt;Node18 -->
<g id="edge27" class="edge">
<title>Node17&#45;&gt;Node18</title>
<path fill="none" stroke="midnightblue" d="M581.11,-340.32C625.8,-332.83 714.82,-317.24 789.5,-300 790.77,-299.71 792.06,-299.4 793.37,-299.08"/>
<polygon fill="midnightblue" stroke="midnightblue" points="794.56,-302.38 803.37,-296.49 792.81,-295.61 794.56,-302.38"/>
</g>
<!-- Node20 -->
<g id="node20" class="node">
<title>Node20</title>
<g id="a_node20"><a xlink:href="list_8h.html" target="_top" xlink:title="Intrusive linked list.">
<polygon fill="none" stroke="black" points="543,-56.5 543,-75.5 584,-75.5 584,-56.5 543,-56.5"/>
<text text-anchor="middle" x="563.5" y="-63.5" font-family="Helvetica,sans-Serif" font-size="10.00">list.h</text>
</a>
</g>
</g>
<!-- Node17&#45;&gt;Node20 -->
<g id="edge31" class="edge">
<title>Node17&#45;&gt;Node20</title>
<path fill="none" stroke="midnightblue" d="M542.84,-336.31C522.98,-317.36 480.1,-270.3 488.5,-224 497.99,-171.69 505.21,-158.76 530.5,-112 535.85,-102.11 543.13,-91.94 549.49,-83.78"/>
<polygon fill="midnightblue" stroke="midnightblue" points="552.35,-85.8 555.9,-75.82 546.9,-81.41 552.35,-85.8"/>
</g>
<!-- Node21 -->
<g id="node21" class="node">
<title>Node21</title>
<g id="a_node21"><a xlink:href="core_2include_2thread_8h.html" target="_top" xlink:title="Threading API.">
<polygon fill="none" stroke="black" points="563,-280.5 563,-299.5 620,-299.5 620,-280.5 563,-280.5"/>
<text text-anchor="middle" x="591.5" y="-287.5" font-family="Helvetica,sans-Serif" font-size="10.00">thread.h</text>
</a>
</g>
</g>
<!-- Node17&#45;&gt;Node21 -->
<g id="edge32" class="edge">
<title>Node17&#45;&gt;Node21</title>
<path fill="none" stroke="midnightblue" d="M558.94,-336.08C564.45,-328.46 572.53,-317.26 579.26,-307.94"/>
<polygon fill="midnightblue" stroke="midnightblue" points="582.16,-309.91 585.18,-299.75 576.49,-305.81 582.16,-309.91"/>
</g>
<!-- Node18&#45;&gt;Node14 -->
<g id="edge28" class="edge">
<title>Node18&#45;&gt;Node14</title>
<path fill="none" stroke="midnightblue" d="M824.15,-280.37C827.54,-262.62 835.35,-221.67 839.95,-197.6"/>
<polygon fill="midnightblue" stroke="midnightblue" points="843.42,-198.07 841.86,-187.59 836.55,-196.76 843.42,-198.07"/>
</g>
<!-- Node19 -->
<g id="node19" class="node">
<title>Node19</title>
<g id="a_node19"><a xlink:title=" ">
<polygon fill="none" stroke="#bfbfbf" points="697.5,-224.5 697.5,-243.5 765.5,-243.5 765.5,-224.5 697.5,-224.5"/>
<text text-anchor="middle" x="731.5" y="-231.5" font-family="Helvetica,sans-Serif" font-size="10.00">cpu_conf.h</text>
</a>
</g>
</g>
<!-- Node18&#45;&gt;Node19 -->
<g id="edge29" class="edge">
<title>Node18&#45;&gt;Node19</title>
<path fill="none" stroke="midnightblue" d="M807.88,-280.32C793.55,-271.82 771.49,-258.73 754.75,-248.8"/>
<polygon fill="midnightblue" stroke="midnightblue" points="756.47,-245.75 746.08,-243.65 752.9,-251.77 756.47,-245.75"/>
</g>
<!-- Node21&#45;&gt;Node19 -->
<g id="edge49" class="edge">
<title>Node21&#45;&gt;Node19</title>
<path fill="none" stroke="midnightblue" d="M613.68,-280.44C636.93,-271.48 673.65,-257.31 699.92,-247.18"/>
<polygon fill="midnightblue" stroke="midnightblue" points="701.35,-250.38 709.42,-243.52 698.83,-243.85 701.35,-250.38"/>
</g>
<!-- Node22 -->
<g id="node22" class="node">
<title>Node22</title>
<g id="a_node22"><a xlink:href="clist_8h.html" target="_top" xlink:title="Circular linked list.">
<polygon fill="none" stroke="black" points="539.5,-112.5 539.5,-131.5 585.5,-131.5 585.5,-112.5 539.5,-112.5"/>
<text text-anchor="middle" x="562.5" y="-119.5" font-family="Helvetica,sans-Serif" font-size="10.00">clist.h</text>
</a>
</g>
</g>
<!-- Node21&#45;&gt;Node22 -->
<g id="edge33" class="edge">
<title>Node21&#45;&gt;Node22</title>
<path fill="none" stroke="midnightblue" d="M589.94,-280.08C585.38,-253.95 571.97,-177.21 565.75,-141.58"/>
<polygon fill="midnightblue" stroke="midnightblue" points="569.17,-140.82 564,-131.57 562.27,-142.02 569.17,-140.82"/>
</g>
<!-- Node23 -->
<g id="node23" class="node">
<title>Node23</title>
<g id="a_node23"><a xlink:href="cib_8h.html" target="_top" xlink:title="Circular integer buffer interface.">
<polygon fill="none" stroke="black" points="497.5,-224.5 497.5,-243.5 537.5,-243.5 537.5,-224.5 497.5,-224.5"/>
<text text-anchor="middle" x="517.5" y="-231.5" font-family="Helvetica,sans-Serif" font-size="10.00">cib.h</text>
</a>
</g>
</g>
<!-- Node21&#45;&gt;Node23 -->
<g id="edge36" class="edge">
<title>Node21&#45;&gt;Node23</title>
<path fill="none" stroke="midnightblue" d="M579.61,-280.32C568.35,-272.11 551.21,-259.6 537.79,-249.81"/>
<polygon fill="midnightblue" stroke="midnightblue" points="539.75,-246.9 529.61,-243.83 535.62,-252.56 539.75,-246.9"/>
</g>
<!-- Node26 -->
<g id="node26" class="node">
<title>Node26</title>
<g id="a_node26"><a xlink:href="msg_8h.html" target="_top" xlink:title="Messaging API for inter process communication.">
<polygon fill="none" stroke="black" points="594,-224.5 594,-243.5 641,-243.5 641,-224.5 594,-224.5"/>
<text text-anchor="middle" x="617.5" y="-231.5" font-family="Helvetica,sans-Serif" font-size="10.00">msg.h</text>
</a>
</g>
</g>
<!-- Node21&#45;&gt;Node26 -->
<g id="edge40" class="edge">
<title>Node21&#45;&gt;Node26</title>
<path fill="none" stroke="midnightblue" d="M595.79,-280.08C599.35,-272.69 604.52,-261.95 608.92,-252.81"/>
<polygon fill="midnightblue" stroke="midnightblue" points="612.1,-254.28 613.29,-243.75 605.79,-251.24 612.1,-254.28"/>
</g>
<!-- Node21&#45;&gt;Node27 -->
<g id="edge50" class="edge">
<title>Node21&#45;&gt;Node27</title>
<path fill="none" stroke="midnightblue" d="M607.84,-280.44C621.18,-272.64 639.56,-259.93 650.5,-244 659.96,-230.22 664.78,-211.7 667.18,-197.95"/>
<polygon fill="midnightblue" stroke="midnightblue" points="670.69,-198.14 668.69,-187.73 663.77,-197.11 670.69,-198.14"/>
</g>
<!-- Node22&#45;&gt;Node4 -->
<g id="edge34" class="edge">
<title>Node22&#45;&gt;Node4</title>
<path fill="none" stroke="midnightblue" d="M575.05,-112.37C602.39,-93.57 667.56,-48.77 701.36,-25.53"/>
<polygon fill="midnightblue" stroke="midnightblue" points="703.75,-28.14 710,-19.59 699.78,-22.37 703.75,-28.14"/>
</g>
<!-- Node22&#45;&gt;Node20 -->
<g id="edge35" class="edge">
<title>Node22&#45;&gt;Node20</title>
<path fill="none" stroke="midnightblue" d="M562.67,-112.08C562.8,-105.01 562.98,-94.86 563.15,-85.99"/>
<polygon fill="midnightblue" stroke="midnightblue" points="566.65,-85.81 563.34,-75.75 559.65,-85.68 566.65,-85.81"/>
</g>
<!-- Node24 -->
<g id="node24" class="node">
<title>Node24</title>
<g id="a_node24"><a xlink:href="assert_8h.html" target="_top" xlink:title="POSIX.1&#45;2008 compliant version of the assert macro.">
<polygon fill="none" stroke="black" points="350.5,-168.5 350.5,-187.5 406.5,-187.5 406.5,-168.5 350.5,-168.5"/>
<text text-anchor="middle" x="378.5" y="-175.5" font-family="Helvetica,sans-Serif" font-size="10.00">assert.h</text>
</a>
</g>
</g>
<!-- Node23&#45;&gt;Node24 -->
<g id="edge37" class="edge">
<title>Node23&#45;&gt;Node24</title>
<path fill="none" stroke="midnightblue" d="M497.29,-225.15C474.45,-216.28 437,-201.73 410.25,-191.33"/>
<polygon fill="midnightblue" stroke="midnightblue" points="411.16,-187.93 400.57,-187.58 408.63,-194.46 411.16,-187.93"/>
</g>
<!-- Node25 -->
<g id="node25" class="node">
<title>Node25</title>
<g id="a_node25"><a xlink:href="panic_8h.html" target="_top" xlink:title="Crash handling header.">
<polygon fill="none" stroke="black" points="353.5,-112.5 353.5,-131.5 405.5,-131.5 405.5,-112.5 353.5,-112.5"/>
<text text-anchor="middle" x="379.5" y="-119.5" font-family="Helvetica,sans-Serif" font-size="10.00">panic.h</text>
</a>
</g>
</g>
<!-- Node24&#45;&gt;Node25 -->
<g id="edge38" class="edge">
<title>Node24&#45;&gt;Node25</title>
<path fill="none" stroke="midnightblue" d="M378.67,-168.08C378.8,-161.01 378.98,-150.86 379.15,-141.99"/>
<polygon fill="midnightblue" stroke="midnightblue" points="382.65,-141.81 379.34,-131.75 375.65,-141.68 382.65,-141.81"/>
</g>
<!-- Node25&#45;&gt;Node12 -->
<g id="edge39" class="edge">
<title>Node25&#45;&gt;Node12</title>
<path fill="none" stroke="midnightblue" d="M388.82,-112.32C397.39,-104.34 410.31,-92.31 420.69,-82.65"/>
<polygon fill="midnightblue" stroke="midnightblue" points="423.08,-85.21 428.01,-75.83 418.31,-80.09 423.08,-85.21"/>
</g>
<!-- Node26&#45;&gt;Node3 -->
<g id="edge41" class="edge">
<title>Node26&#45;&gt;Node3</title>
<path fill="none" stroke="midnightblue" d="M608.67,-224.49C591.84,-207.9 554.65,-169.57 530.5,-132 510.39,-100.72 524.31,-79.52 495.5,-56 451.01,-19.67 382.36,-11.63 340.34,-10.41"/>
<polygon fill="midnightblue" stroke="midnightblue" points="340.32,-6.9 330.26,-10.23 340.19,-13.9 340.32,-6.9"/>
</g>
<!-- Node26&#45;&gt;Node14 -->
<g id="edge42" class="edge">
<title>Node26&#45;&gt;Node14</title>
<path fill="none" stroke="midnightblue" d="M641.26,-227.32C679.48,-218.19 755.1,-200.12 802.26,-188.85"/>
<polygon fill="midnightblue" stroke="midnightblue" points="803.25,-192.22 812.16,-186.49 801.62,-185.41 803.25,-192.22"/>
</g>
<!-- Node26&#45;&gt;Node27 -->
<g id="edge43" class="edge">
<title>Node26&#45;&gt;Node27</title>
<path fill="none" stroke="midnightblue" d="M626.09,-224.08C633.66,-216.22 644.88,-204.57 654.01,-195.08"/>
<polygon fill="midnightblue" stroke="midnightblue" points="656.66,-197.38 661.07,-187.75 651.62,-192.53 656.66,-197.38"/>
</g>
<!-- Node27&#45;&gt;Node4 -->
<g id="edge44" class="edge">
<title>Node27&#45;&gt;Node4</title>
<path fill="none" stroke="midnightblue" d="M684.03,-168.34C695.69,-160.49 711.27,-147.74 718.5,-132 733.8,-98.69 730.11,-54.62 726.2,-29.9"/>
<polygon fill="midnightblue" stroke="midnightblue" points="729.59,-28.97 724.41,-19.73 722.7,-30.19 729.59,-28.97"/>
</g>
<!-- Node27&#45;&gt;Node12 -->
<g id="edge46" class="edge">
<title>Node27&#45;&gt;Node12</title>
<path fill="none" stroke="midnightblue" d="M679.9,-168.26C694.41,-155.03 717.36,-129.6 702.5,-112 689.33,-96.4 570.3,-81.1 496.32,-72.98"/>
<polygon fill="midnightblue" stroke="midnightblue" points="496.52,-69.48 486.2,-71.88 495.76,-76.44 496.52,-69.48"/>
</g>
<!-- Node27&#45;&gt;Node16 -->
<g id="edge45" class="edge">
<title>Node27&#45;&gt;Node16</title>
<path fill="none" stroke="midnightblue" d="M696.58,-169.26C728.58,-160.12 782.11,-144.83 818.79,-134.34"/>
<polygon fill="midnightblue" stroke="midnightblue" points="820.01,-137.64 828.66,-131.52 818.09,-130.91 820.01,-137.64"/>
</g>
<!-- Node27&#45;&gt;Node22 -->
<g id="edge48" class="edge">
<title>Node27&#45;&gt;Node22</title>
<path fill="none" stroke="midnightblue" d="M652.31,-168.32C635.15,-159.66 608.55,-146.24 588.75,-136.25"/>
<polygon fill="midnightblue" stroke="midnightblue" points="590.15,-133.04 579.65,-131.65 587,-139.28 590.15,-133.04"/>
</g>
<!-- Node28 -->
<g id="node28" class="node">
<title>Node28</title>
<g id="a_node28"><a xlink:href="native__sched_8h.html" target="_top" xlink:title="Add definitions required on the native board.">
<polygon fill="none" stroke="black" points="603.5,-112.5 603.5,-131.5 693.5,-131.5 693.5,-112.5 603.5,-112.5"/>
<text text-anchor="middle" x="648.5" y="-119.5" font-family="Helvetica,sans-Serif" font-size="10.00">native_sched.h</text>
</a>
</g>
</g>
<!-- Node27&#45;&gt;Node28 -->
<g id="edge47" class="edge">
<title>Node27&#45;&gt;Node28</title>
<path fill="none" stroke="midnightblue" d="M666.03,-168.08C663.19,-160.77 659.07,-150.18 655.54,-141.1"/>
<polygon fill="midnightblue" stroke="midnightblue" points="658.79,-139.8 651.9,-131.75 652.27,-142.34 658.79,-139.8"/>
</g>
<!-- Node29&#45;&gt;Node3 -->
<g id="edge53" class="edge">
<title>Node29&#45;&gt;Node3</title>
<path fill="none" stroke="midnightblue" d="M400.71,-394.5C376.58,-388.1 343.38,-376.27 320.5,-356 295.78,-334.1 284.5,-324.02 284.5,-291 284.5,-291 284.5,-291 284.5,-121 284.5,-88.49 292.66,-51.35 298.28,-29.61"/>
<polygon fill="midnightblue" stroke="midnightblue" points="301.72,-30.32 300.94,-19.75 294.96,-28.5 301.72,-30.32"/>
</g>
<!-- Node29&#45;&gt;Node17 -->
<g id="edge55" class="edge">
<title>Node29&#45;&gt;Node17</title>
<path fill="none" stroke="midnightblue" d="M450.67,-392.44C470.41,-383.64 501.39,-369.81 523.99,-359.72"/>
<polygon fill="midnightblue" stroke="midnightblue" points="525.71,-362.79 533.42,-355.52 522.86,-356.4 525.71,-362.79"/>
</g>
<!-- Node29&#45;&gt;Node27 -->
<g id="edge56" class="edge">
<title>Node29&#45;&gt;Node27</title>
<path fill="none" stroke="midnightblue" d="M431.52,-392.48C432.05,-364.02 437.78,-271.39 488.5,-224 527.59,-187.47 591.63,-179.35 632.12,-178.18"/>
<polygon fill="midnightblue" stroke="midnightblue" points="632.43,-181.68 642.37,-178.02 632.32,-174.68 632.43,-181.68"/>
</g>
<!-- Node30 -->
<g id="node30" class="node">
<title>Node30</title>
<g id="a_node30"><a xlink:title=" ">
<polygon fill="none" stroke="#bfbfbf" points="329.5,-336.5 329.5,-355.5 403.5,-355.5 403.5,-336.5 329.5,-336.5"/>
<text text-anchor="middle" x="366.5" y="-343.5" font-family="Helvetica,sans-Serif" font-size="10.00">stdatomic.h</text>
</a>
</g>
</g>
<!-- Node29&#45;&gt;Node30 -->
<g id="edge54" class="edge">
<title>Node29&#45;&gt;Node30</title>
<path fill="none" stroke="midnightblue" d="M421.06,-392.32C411.35,-384.26 396.68,-372.08 385,-362.37"/>
<polygon fill="midnightblue" stroke="midnightblue" points="387.06,-359.53 377.13,-355.83 382.59,-364.92 387.06,-359.53"/>
</g>
<!-- Node33 -->
<g id="node33" class="node">
<title>Node33</title>
<g id="a_node33"><a xlink:href="div_8h.html" target="_top" xlink:title=" ">
<polygon fill="none" stroke="black" points="178.5,-224.5 178.5,-243.5 218.5,-243.5 218.5,-224.5 178.5,-224.5"/>
<text text-anchor="middle" x="198.5" y="-231.5" font-family="Helvetica,sans-Serif" font-size="10.00">div.h</text>
</a>
</g>
</g>
<!-- Node32&#45;&gt;Node33 -->
<g id="edge60" class="edge">
<title>Node32&#45;&gt;Node33</title>
<path fill="none" stroke="midnightblue" d="M192.82,-392.08C193.77,-365.95 196.54,-289.21 197.83,-253.58"/>
<polygon fill="midnightblue" stroke="midnightblue" points="201.33,-253.69 198.19,-243.57 194.33,-253.44 201.33,-253.69"/>
</g>
<!-- Node33&#45;&gt;Node3 -->
<g id="edge62" class="edge">
<title>Node33&#45;&gt;Node3</title>
<path fill="none" stroke="midnightblue" d="M197.88,-224.36C196.36,-197.04 194.99,-111.09 232.5,-56 242.07,-41.95 257.63,-31.37 271.75,-24.01"/>
<polygon fill="midnightblue" stroke="midnightblue" points="273.28,-27.16 280.74,-19.63 270.22,-20.86 273.28,-27.16"/>
</g>
<!-- Node33&#45;&gt;Node24 -->
<g id="edge61" class="edge">
<title>Node33&#45;&gt;Node24</title>
<path fill="none" stroke="midnightblue" d="M218.8,-226.91C248.21,-218.09 303.22,-201.58 340.35,-190.44"/>
<polygon fill="midnightblue" stroke="midnightblue" points="341.75,-193.68 350.32,-187.45 339.73,-186.98 341.75,-193.68"/>
</g>
<!-- Node34&#45;&gt;Node18 -->
<g id="edge69" class="edge">
<title>Node34&#45;&gt;Node18</title>
<path fill="none" stroke="midnightblue" d="M781.03,-392.37C788.36,-374.46 805.35,-332.92 815.16,-308.95"/>
<polygon fill="midnightblue" stroke="midnightblue" points="818.44,-310.17 818.99,-299.59 811.96,-307.52 818.44,-310.17"/>
</g>
<!-- Node35 -->
<g id="node35" class="node">
<title>Node35</title>
<g id="a_node35"><a xlink:href="drivers_2include_2periph_2timer_8h.html" target="_top" xlink:title="Low&#45;level timer peripheral driver interface definitions.">
<polygon fill="none" stroke="black" points="902.5,-336.5 902.5,-355.5 988.5,-355.5 988.5,-336.5 902.5,-336.5"/>
<text text-anchor="middle" x="945.5" y="-343.5" font-family="Helvetica,sans-Serif" font-size="10.00">periph/timer.h</text>
</a>
</g>
</g>
<!-- Node34&#45;&gt;Node35 -->
<g id="edge64" class="edge">
<title>Node34&#45;&gt;Node35</title>
<path fill="none" stroke="midnightblue" d="M804.12,-392.44C832.51,-383.32 877.64,-368.81 909.25,-358.65"/>
<polygon fill="midnightblue" stroke="midnightblue" points="910.56,-361.91 919,-355.52 908.41,-355.24 910.56,-361.91"/>
</g>
<!-- Node35&#45;&gt;Node3 -->
<g id="edge66" class="edge">
<title>Node35&#45;&gt;Node3</title>
<path fill="none" stroke="midnightblue" d="M947.98,-336.3C955,-310.19 973.4,-230.43 955.5,-168 947.41,-139.79 942.25,-131.71 920.5,-112 878.96,-74.37 861.45,-71.2 807.5,-56 719.4,-31.18 440.8,-16.95 340.19,-12.52"/>
<polygon fill="midnightblue" stroke="midnightblue" points="340.34,-9.02 330.19,-12.08 340.03,-16.01 340.34,-9.02"/>
</g>
<!-- Node35&#45;&gt;Node5 -->
<g id="edge65" class="edge">
<title>Node35&#45;&gt;Node5</title>
<path fill="none" stroke="midnightblue" d="M988.86,-336.63C1030.62,-328.44 1095.78,-315.28 1160.77,-300.33"/>
<polygon fill="midnightblue" stroke="midnightblue" points="1161.83,-303.68 1170.78,-298.01 1160.25,-296.86 1161.83,-303.68"/>
</g>
<!-- Node35&#45;&gt;Node6 -->
<g id="edge68" class="edge">
<title>Node35&#45;&gt;Node6</title>
<path fill="none" stroke="midnightblue" d="M956.59,-336.32C966.99,-328.18 982.76,-315.84 995.22,-306.09"/>
<polygon fill="midnightblue" stroke="midnightblue" points="997.49,-308.75 1003.21,-299.83 993.18,-303.24 997.49,-308.75"/>
</g>
<!-- Node35&#45;&gt;Node7 -->
<g id="edge67" class="edge">
<title>Node35&#45;&gt;Node7</title>
<path fill="none" stroke="midnightblue" d="M972.12,-336.44C1000.51,-327.32 1045.64,-312.81 1077.25,-302.65"/>
<polygon fill="midnightblue" stroke="midnightblue" points="1078.56,-305.91 1087,-299.52 1076.41,-299.24 1078.56,-305.91"/>
</g>
<!-- Node36&#45;&gt;Node3 -->
<g id="edge71" class="edge">
<title>Node36&#45;&gt;Node3</title>
<path fill="none" stroke="midnightblue" d="M31.94,-224.21C28.69,-203.86 22.52,-152.19 35.5,-112 44.82,-83.14 49.1,-72.58 74.5,-56 133.65,-17.4 218.42,-10.5 266.5,-10.03"/>
<polygon fill="midnightblue" stroke="midnightblue" points="266.75,-13.53 276.75,-10.02 266.75,-6.53 266.75,-13.53"/>
</g>
<!-- Node36&#45;&gt;Node9 -->
<g id="edge72" class="edge">
<title>Node36&#45;&gt;Node9</title>
<path fill="none" stroke="midnightblue" d="M41.92,-224.08C49.35,-216.22 60.35,-204.57 69.31,-195.08"/>
<polygon fill="midnightblue" stroke="midnightblue" points="71.91,-197.42 76.24,-187.75 66.82,-192.62 71.91,-197.42"/>
</g>
<!-- Node36&#45;&gt;Node11 -->
<g id="edge73" class="edge">
<title>Node36&#45;&gt;Node11</title>
<path fill="none" stroke="midnightblue" d="M35.2,-224.3C37.89,-211.56 43.71,-187.25 52.5,-168 56.99,-158.17 63.38,-147.99 69.02,-139.8"/>
<polygon fill="midnightblue" stroke="midnightblue" points="71.97,-141.7 74.93,-131.53 66.27,-137.63 71.97,-141.7"/>
</g>
</g>
</svg>
