<?xml version="1.0" encoding="UTF-8" standalone="no"?>
<!DOCTYPE svg PUBLIC "-//W3C//DTD SVG 1.1//EN"
 "http://www.w3.org/Graphics/SVG/1.1/DTD/svg11.dtd">
<!-- Generated by graphviz version 2.43.0 (0)
 -->
<!-- Title: drivers/include/sdcard_spi.h Pages: 1 -->
<svg width="424pt" height="207pt"
 viewBox="0.00 0.00 423.50 207.00" xmlns="http://www.w3.org/2000/svg" xmlns:xlink="http://www.w3.org/1999/xlink">
<g id="graph0" class="graph" transform="scale(1 1) rotate(0) translate(4 203)">
<title>drivers/include/sdcard_spi.h</title>
<!-- Node1 -->
<g id="node1" class="node">
<title>Node1</title>
<g id="a_node1"><a xlink:title="Public interface for the sdcard_spi driver.">
<polygon fill="#bfbfbf" stroke="black" points="122,-168.5 122,-198.5 246,-198.5 246,-168.5 122,-168.5"/>
<text text-anchor="start" x="130" y="-186.5" font-family="Helvetica,sans-Serif" font-size="10.00">drivers/include/sdcard</text>
<text text-anchor="middle" x="184" y="-175.5" font-family="Helvetica,sans-Serif" font-size="10.00">_spi.h</text>
</a>
</g>
</g>
<!-- Node2 -->
<g id="node2" class="node">
<title>Node2</title>
<g id="a_node2"><a xlink:href="spi_8h.html" target="_top" xlink:title="Low&#45;level SPI peripheral driver interface definition.">
<polygon fill="none" stroke="black" points="147,-112.5 147,-131.5 221,-131.5 221,-112.5 147,-112.5"/>
<text text-anchor="middle" x="184" y="-119.5" font-family="Helvetica,sans-Serif" font-size="10.00">periph/spi.h</text>
</a>
</g>
</g>
<!-- Node1&#45;&gt;Node2 -->
<g id="edge1" class="edge">
<title>Node1&#45;&gt;Node2</title>
<path fill="none" stroke="midnightblue" d="M184,-168.4C184,-160.47 184,-150.46 184,-141.86"/>
<polygon fill="midnightblue" stroke="midnightblue" points="187.5,-141.66 184,-131.66 180.5,-141.66 187.5,-141.66"/>
</g>
<!-- Node3 -->
<g id="node3" class="node">
<title>Node3</title>
<g id="a_node3"><a xlink:title=" ">
<polygon fill="none" stroke="#bfbfbf" points="0,-56.5 0,-75.5 62,-75.5 62,-56.5 0,-56.5"/>
<text text-anchor="middle" x="31" y="-63.5" font-family="Helvetica,sans-Serif" font-size="10.00">stdbool.h</text>
</a>
</g>
</g>
<!-- Node1&#45;&gt;Node3 -->
<g id="edge13" class="edge">
<title>Node1&#45;&gt;Node3</title>
<path fill="none" stroke="midnightblue" d="M165.24,-168.34C136.17,-146.39 80.5,-104.37 50.81,-81.95"/>
<polygon fill="midnightblue" stroke="midnightblue" points="52.57,-78.9 42.48,-75.67 48.36,-84.49 52.57,-78.9"/>
</g>
<!-- Node9 -->
<g id="node9" class="node">
<title>Node9</title>
<g id="a_node9"><a xlink:href="gpio_8h.html" target="_top" xlink:title="Low&#45;level GPIO peripheral driver interface definitions.">
<polygon fill="none" stroke="black" points="302,-56.5 302,-75.5 382,-75.5 382,-56.5 302,-56.5"/>
<text text-anchor="middle" x="342" y="-63.5" font-family="Helvetica,sans-Serif" font-size="10.00">periph/gpio.h</text>
</a>
</g>
</g>
<!-- Node1&#45;&gt;Node9 -->
<g id="edge12" class="edge">
<title>Node1&#45;&gt;Node9</title>
<path fill="none" stroke="midnightblue" d="M203.37,-168.34C233.52,-146.3 291.38,-104.01 321.94,-81.66"/>
<polygon fill="midnightblue" stroke="midnightblue" points="324.13,-84.4 330.14,-75.67 320,-78.75 324.13,-84.4"/>
</g>
<!-- Node2&#45;&gt;Node3 -->
<g id="edge2" class="edge">
<title>Node2&#45;&gt;Node3</title>
<path fill="none" stroke="midnightblue" d="M159.76,-112.44C134.13,-103.4 93.51,-89.06 64.76,-78.92"/>
<polygon fill="midnightblue" stroke="midnightblue" points="65.72,-75.54 55.13,-75.52 63.39,-82.15 65.72,-75.54"/>
</g>
<!-- Node4 -->
<g id="node4" class="node">
<title>Node4</title>
<g id="a_node4"><a xlink:title=" ">
<polygon fill="none" stroke="#bfbfbf" points="156,-56.5 156,-75.5 212,-75.5 212,-56.5 156,-56.5"/>
<text text-anchor="middle" x="184" y="-63.5" font-family="Helvetica,sans-Serif" font-size="10.00">stddef.h</text>
</a>
</g>
</g>
<!-- Node2&#45;&gt;Node4 -->
<g id="edge3" class="edge">
<title>Node2&#45;&gt;Node4</title>
<path fill="none" stroke="midnightblue" d="M184,-112.08C184,-105.01 184,-94.86 184,-85.99"/>
<polygon fill="midnightblue" stroke="midnightblue" points="187.5,-85.75 184,-75.75 180.5,-85.75 187.5,-85.75"/>
</g>
<!-- Node5 -->
<g id="node5" class="node">
<title>Node5</title>
<g id="a_node5"><a xlink:title=" ">
<polygon fill="none" stroke="#bfbfbf" points="230.5,-56.5 230.5,-75.5 283.5,-75.5 283.5,-56.5 230.5,-56.5"/>
<text text-anchor="middle" x="257" y="-63.5" font-family="Helvetica,sans-Serif" font-size="10.00">stdint.h</text>
</a>
</g>
</g>
<!-- Node2&#45;&gt;Node5 -->
<g id="edge4" class="edge">
<title>Node2&#45;&gt;Node5</title>
<path fill="none" stroke="midnightblue" d="M195.73,-112.32C206.84,-104.11 223.74,-91.6 236.98,-81.81"/>
<polygon fill="midnightblue" stroke="midnightblue" points="239.1,-84.59 245.06,-75.83 234.94,-78.97 239.1,-84.59"/>
</g>
<!-- Node6 -->
<g id="node6" class="node">
<title>Node6</title>
<g id="a_node6"><a xlink:title=" ">
<polygon fill="none" stroke="#bfbfbf" points="114.5,-0.5 114.5,-19.5 167.5,-19.5 167.5,-0.5 114.5,-0.5"/>
<text text-anchor="middle" x="141" y="-7.5" font-family="Helvetica,sans-Serif" font-size="10.00">limits.h</text>
</a>
</g>
</g>
<!-- Node2&#45;&gt;Node6 -->
<g id="edge5" class="edge">
<title>Node2&#45;&gt;Node6</title>
<path fill="none" stroke="midnightblue" d="M159.53,-112.44C143.43,-105.38 123.62,-93.63 114,-76 105.35,-60.16 115.66,-40.97 125.94,-27.56"/>
<polygon fill="midnightblue" stroke="midnightblue" points="128.79,-29.61 132.49,-19.68 123.41,-25.14 128.79,-29.61"/>
</g>
<!-- Node7 -->
<g id="node7" class="node">
<title>Node7</title>
<g id="a_node7"><a xlink:title=" ">
<polygon fill="none" stroke="#bfbfbf" points="336.5,-0.5 336.5,-19.5 415.5,-19.5 415.5,-0.5 336.5,-0.5"/>
<text text-anchor="middle" x="376" y="-7.5" font-family="Helvetica,sans-Serif" font-size="10.00">periph_cpu.h</text>
</a>
</g>
</g>
<!-- Node2&#45;&gt;Node7 -->
<g id="edge6" class="edge">
<title>Node2&#45;&gt;Node7</title>
<path fill="none" stroke="midnightblue" d="M221.07,-118.39C274.76,-113.74 370.06,-101.99 391,-76 401.86,-62.52 394.92,-42.62 387.27,-28.39"/>
<polygon fill="midnightblue" stroke="midnightblue" points="390.17,-26.42 382.07,-19.6 384.15,-29.98 390.17,-26.42"/>
</g>
<!-- Node8 -->
<g id="node8" class="node">
<title>Node8</title>
<g id="a_node8"><a xlink:title=" ">
<polygon fill="none" stroke="#bfbfbf" points="219,-0.5 219,-19.5 301,-19.5 301,-0.5 219,-0.5"/>
<text text-anchor="middle" x="260" y="-7.5" font-family="Helvetica,sans-Serif" font-size="10.00">periph_conf.h</text>
</a>
</g>
</g>
<!-- Node2&#45;&gt;Node8 -->
<g id="edge7" class="edge">
<title>Node2&#45;&gt;Node8</title>
<path fill="none" stroke="midnightblue" d="M172.68,-112.33C157.5,-99.62 133.88,-75.34 147,-56 160.94,-35.45 185.92,-24.28 208.85,-18.22"/>
<polygon fill="midnightblue" stroke="midnightblue" points="209.93,-21.56 218.85,-15.84 208.32,-14.74 209.93,-21.56"/>
</g>
<!-- Node2&#45;&gt;Node9 -->
<g id="edge8" class="edge">
<title>Node2&#45;&gt;Node9</title>
<path fill="none" stroke="midnightblue" d="M209.04,-112.44C235.62,-103.36 277.81,-88.94 307.52,-78.78"/>
<polygon fill="midnightblue" stroke="midnightblue" points="308.75,-82.06 317.08,-75.52 306.49,-75.44 308.75,-82.06"/>
</g>
<!-- Node9&#45;&gt;Node6 -->
<g id="edge9" class="edge">
<title>Node9&#45;&gt;Node6</title>
<path fill="none" stroke="midnightblue" d="M310.15,-56.44C274.13,-46.77 215.57,-31.03 177.67,-20.85"/>
<polygon fill="midnightblue" stroke="midnightblue" points="178.13,-17.35 167.56,-18.14 176.31,-24.11 178.13,-17.35"/>
</g>
<!-- Node9&#45;&gt;Node7 -->
<g id="edge10" class="edge">
<title>Node9&#45;&gt;Node7</title>
<path fill="none" stroke="midnightblue" d="M347.61,-56.08C352.37,-48.53 359.32,-37.49 365.15,-28.23"/>
<polygon fill="midnightblue" stroke="midnightblue" points="368.12,-30.08 370.49,-19.75 362.2,-26.35 368.12,-30.08"/>
</g>
<!-- Node9&#45;&gt;Node8 -->
<g id="edge11" class="edge">
<title>Node9&#45;&gt;Node8</title>
<path fill="none" stroke="midnightblue" d="M328.83,-56.32C316.15,-47.98 296.77,-35.21 281.79,-25.35"/>
<polygon fill="midnightblue" stroke="midnightblue" points="283.42,-22.23 273.14,-19.65 279.57,-28.08 283.42,-22.23"/>
</g>
</g>
</svg>
