<?xml version="1.0" encoding="UTF-8" standalone="no"?>
<!DOCTYPE svg PUBLIC "-//W3C//DTD SVG 1.1//EN"
 "http://www.w3.org/Graphics/SVG/1.1/DTD/svg11.dtd">
<!-- Generated by graphviz version 2.43.0 (0)
 -->
<!-- Title: drivers/sds011/include/sds011_internal.h Pages: 1 -->
<svg width="143pt" height="162pt"
 viewBox="0.00 0.00 143.00 162.00" xmlns="http://www.w3.org/2000/svg" xmlns:xlink="http://www.w3.org/1999/xlink">
<g id="graph0" class="graph" transform="scale(1 1) rotate(0) translate(4 158)">
<title>drivers/sds011/include/sds011_internal.h</title>
<!-- Node1 -->
<g id="node1" class="node">
<title>Node1</title>
<g id="a_node1"><a xlink:title="Internal constants etc. for the SDS011 laser dust sensor.">
<polygon fill="#bfbfbf" stroke="black" points="4.5,-123.5 4.5,-153.5 130.5,-153.5 130.5,-123.5 4.5,-123.5"/>
<text text-anchor="start" x="12.5" y="-141.5" font-family="Helvetica,sans-Serif" font-size="10.00">drivers/sds011/include</text>
<text text-anchor="middle" x="67.5" y="-130.5" font-family="Helvetica,sans-Serif" font-size="10.00">/sds011_internal.h</text>
</a>
</g>
</g>
<!-- Node2 -->
<g id="node2" class="node">
<title>Node2</title>
<g id="a_node2"><a xlink:href="sds011_8h.html" target="_top" xlink:title="Interface for controlling SDS011 Laser Dust Sensor.">
<polygon fill="none" stroke="black" points="0,-67.5 0,-86.5 135,-86.5 135,-67.5 0,-67.5"/>
<text text-anchor="middle" x="67.5" y="-74.5" font-family="Helvetica,sans-Serif" font-size="10.00">drivers/include/sds011.h</text>
</a>
</g>
</g>
<!-- Node1&#45;&gt;Node2 -->
<g id="edge1" class="edge">
<title>Node1&#45;&gt;Node2</title>
<path fill="none" stroke="midnightblue" d="M67.5,-113.29C67.5,-103.86 67.5,-93.65 67.5,-86.66"/>
<polygon fill="midnightblue" stroke="midnightblue" points="64,-113.4 67.5,-123.4 71,-113.4 64,-113.4"/>
</g>
<!-- Node3 -->
<g id="node3" class="node">
<title>Node3</title>
<g id="a_node3"><a xlink:href="sds011__params_8h.html" target="_top" xlink:title="SDS011 sensor specific configuration.">
<polygon fill="none" stroke="black" points="4.5,-0.5 4.5,-30.5 130.5,-30.5 130.5,-0.5 4.5,-0.5"/>
<text text-anchor="start" x="12.5" y="-18.5" font-family="Helvetica,sans-Serif" font-size="10.00">drivers/sds011/include</text>
<text text-anchor="middle" x="67.5" y="-7.5" font-family="Helvetica,sans-Serif" font-size="10.00">/sds011_params.h</text>
</a>
</g>
</g>
<!-- Node2&#45;&gt;Node3 -->
<g id="edge2" class="edge">
<title>Node2&#45;&gt;Node3</title>
<path fill="none" stroke="midnightblue" d="M67.5,-57.23C67.5,-48.59 67.5,-38.5 67.5,-30.52"/>
<polygon fill="midnightblue" stroke="midnightblue" points="64,-57.48 67.5,-67.48 71,-57.48 64,-57.48"/>
</g>
</g>
</svg>
