<?xml version="1.0" encoding="UTF-8" standalone="no"?>
<!DOCTYPE svg PUBLIC "-//W3C//DTD SVG 1.1//EN"
 "http://www.w3.org/Graphics/SVG/1.1/DTD/svg11.dtd">
<!-- Generated by graphviz version 2.40.1 (20161225.0304)
 -->
<!-- Title: drivers/sds011/include/sds011_internal.h Pages: 1 -->
<svg width="130pt" height="162pt"
 viewBox="0.00 0.00 130.00 162.00" xmlns="http://www.w3.org/2000/svg" xmlns:xlink="http://www.w3.org/1999/xlink">
<g id="graph0" class="graph" transform="scale(1 1) rotate(0) translate(4 158)">
<title>drivers/sds011/include/sds011_internal.h</title>
<!-- Node1 -->
<g id="node1" class="node">
<title>Node1</title>
<polygon fill="#bfbfbf" stroke="#000000" points="4,-123.5 4,-153.5 118,-153.5 118,-123.5 4,-123.5"/>
<text text-anchor="start" x="12" y="-141.5" font-family="Helvetica,sans-Serif" font-size="10.00" fill="#000000">drivers/sds011/include</text>
<text text-anchor="middle" x="61" y="-130.5" font-family="Helvetica,sans-Serif" font-size="10.00" fill="#000000">/sds011_internal.h</text>
</g>
<!-- Node2 -->
<g id="node2" class="node">
<title>Node2</title>
<g id="a_node2"><a xlink:href="sds011_8h.html" target="_top" xlink:title="Interface for controlling SDS011 Laser Dust Sensor. ">
<polygon fill="none" stroke="#000000" points="0,-67.5 0,-86.5 122,-86.5 122,-67.5 0,-67.5"/>
<text text-anchor="middle" x="61" y="-74.5" font-family="Helvetica,sans-Serif" font-size="10.00" fill="#000000">drivers/include/sds011.h</text>
</a>
</g>
</g>
<!-- Node1&#45;&gt;Node2 -->
<g id="edge1" class="edge">
<title>Node1&#45;&gt;Node2</title>
<path fill="none" stroke="#191970" d="M61,-113.2849C61,-103.9858 61,-93.9883 61,-86.8469"/>
<polygon fill="#191970" stroke="#191970" points="57.5001,-113.2977 61,-123.2977 64.5001,-113.2978 57.5001,-113.2977"/>
</g>
<!-- Node3 -->
<g id="node3" class="node">
<title>Node3</title>
<g id="a_node3"><a xlink:href="sds011__params_8h.html" target="_top" xlink:title="SDS011 sensor specific configuration. ">
<polygon fill="none" stroke="#000000" points="4,-.5 4,-30.5 118,-30.5 118,-.5 4,-.5"/>
<text text-anchor="start" x="12" y="-18.5" font-family="Helvetica,sans-Serif" font-size="10.00" fill="#000000">drivers/sds011/include</text>
<text text-anchor="middle" x="61" y="-7.5" font-family="Helvetica,sans-Serif" font-size="10.00" fill="#000000">/sds011_params.h</text>
</a>
</g>
</g>
<!-- Node2&#45;&gt;Node3 -->
<g id="edge2" class="edge">
<title>Node2&#45;&gt;Node3</title>
<path fill="none" stroke="#191970" d="M61,-57.3693C61,-48.681 61,-38.6241 61,-30.5446"/>
<polygon fill="#191970" stroke="#191970" points="57.5001,-57.3906 61,-67.3906 64.5001,-57.3907 57.5001,-57.3906"/>
</g>
</g>
</svg>
