<?xml version="1.0" encoding="UTF-8" standalone="no"?>
<!DOCTYPE svg PUBLIC "-//W3C//DTD SVG 1.1//EN"
 "http://www.w3.org/Graphics/SVG/1.1/DTD/svg11.dtd">
<!-- Generated by graphviz version 2.43.0 (0)
 -->
<!-- Title: sys/posix/include/sys/select.h Pages: 1 -->
<svg width="361pt" height="151pt"
 viewBox="0.00 0.00 360.50 151.00" xmlns="http://www.w3.org/2000/svg" xmlns:xlink="http://www.w3.org/1999/xlink">
<g id="graph0" class="graph" transform="scale(1 1) rotate(0) translate(4 147)">
<title>sys/posix/include/sys/select.h</title>
<!-- Node1 -->
<g id="node1" class="node">
<title>Node1</title>
<g id="a_node1"><a xlink:title="Select types.">
<polygon fill="#bfbfbf" stroke="black" points="45.5,-112.5 45.5,-142.5 165.5,-142.5 165.5,-112.5 45.5,-112.5"/>
<text text-anchor="start" x="53.5" y="-130.5" font-family="Helvetica,sans-Serif" font-size="10.00">sys/posix/include/sys</text>
<text text-anchor="middle" x="105.5" y="-119.5" font-family="Helvetica,sans-Serif" font-size="10.00">/select.h</text>
</a>
</g>
</g>
<!-- Node2 -->
<g id="node2" class="node">
<title>Node2</title>
<g id="a_node2"><a xlink:title=" ">
<polygon fill="none" stroke="#bfbfbf" points="0,-56.5 0,-75.5 53,-75.5 53,-56.5 0,-56.5"/>
<text text-anchor="middle" x="26.5" y="-63.5" font-family="Helvetica,sans-Serif" font-size="10.00">string.h</text>
</a>
</g>
</g>
<!-- Node1&#45;&gt;Node2 -->
<g id="edge1" class="edge">
<title>Node1&#45;&gt;Node2</title>
<path fill="none" stroke="midnightblue" d="M86.78,-112.4C74.59,-103.22 58.71,-91.26 46.31,-81.92"/>
<polygon fill="midnightblue" stroke="midnightblue" points="48.09,-78.88 38,-75.66 43.88,-84.47 48.09,-78.88"/>
</g>
<!-- Node3 -->
<g id="node3" class="node">
<title>Node3</title>
<g id="a_node3"><a xlink:href="time_8h_source.html" target="_top" xlink:title=" ">
<polygon fill="none" stroke="black" points="71.5,-56.5 71.5,-75.5 139.5,-75.5 139.5,-56.5 71.5,-56.5"/>
<text text-anchor="middle" x="105.5" y="-63.5" font-family="Helvetica,sans-Serif" font-size="10.00">sys/time.h</text>
</a>
</g>
</g>
<!-- Node1&#45;&gt;Node3 -->
<g id="edge2" class="edge">
<title>Node1&#45;&gt;Node3</title>
<path fill="none" stroke="midnightblue" d="M105.5,-112.4C105.5,-104.47 105.5,-94.46 105.5,-85.86"/>
<polygon fill="midnightblue" stroke="midnightblue" points="109,-85.66 105.5,-75.66 102,-85.66 109,-85.66"/>
</g>
<!-- Node5 -->
<g id="node5" class="node">
<title>Node5</title>
<g id="a_node5"><a xlink:href="bitfield_8h.html" target="_top" xlink:title="bitfields operations on bitfields of arbitrary length">
<polygon fill="none" stroke="black" points="203.5,-56.5 203.5,-75.5 263.5,-75.5 263.5,-56.5 203.5,-56.5"/>
<text text-anchor="middle" x="233.5" y="-63.5" font-family="Helvetica,sans-Serif" font-size="10.00">bitfield.h</text>
</a>
</g>
</g>
<!-- Node1&#45;&gt;Node5 -->
<g id="edge5" class="edge">
<title>Node1&#45;&gt;Node5</title>
<path fill="none" stroke="midnightblue" d="M135.83,-112.4C157.02,-102.55 185.09,-89.5 205.7,-79.92"/>
<polygon fill="midnightblue" stroke="midnightblue" points="207.28,-83.05 214.87,-75.66 204.33,-76.7 207.28,-83.05"/>
</g>
<!-- Node3&#45;&gt;Node3 -->
<g id="edge4" class="edge">
<title>Node3&#45;&gt;Node3</title>
<path fill="none" stroke="midnightblue" d="M127.68,-75.53C142.75,-78.31 157.5,-75.13 157.5,-66 157.5,-58.94 148.67,-55.44 137.7,-55.5"/>
<polygon fill="midnightblue" stroke="midnightblue" points="137.29,-52.02 127.68,-56.47 137.97,-58.99 137.29,-52.02"/>
</g>
<!-- Node4 -->
<g id="node4" class="node">
<title>Node4</title>
<g id="a_node4"><a xlink:title=" ">
<polygon fill="none" stroke="#bfbfbf" points="54.5,-0.5 54.5,-19.5 126.5,-19.5 126.5,-0.5 54.5,-0.5"/>
<text text-anchor="middle" x="90.5" y="-7.5" font-family="Helvetica,sans-Serif" font-size="10.00">sys/types.h</text>
</a>
</g>
</g>
<!-- Node3&#45;&gt;Node4 -->
<g id="edge3" class="edge">
<title>Node3&#45;&gt;Node4</title>
<path fill="none" stroke="midnightblue" d="M103.02,-56.08C101.01,-48.85 98.11,-38.41 95.61,-29.4"/>
<polygon fill="midnightblue" stroke="midnightblue" points="98.98,-28.45 92.93,-19.75 92.24,-30.32 98.98,-28.45"/>
</g>
<!-- Node6 -->
<g id="node6" class="node">
<title>Node6</title>
<g id="a_node6"><a xlink:title=" ">
<polygon fill="none" stroke="#bfbfbf" points="145,-0.5 145,-19.5 198,-19.5 198,-0.5 145,-0.5"/>
<text text-anchor="middle" x="171.5" y="-7.5" font-family="Helvetica,sans-Serif" font-size="10.00">stdint.h</text>
</a>
</g>
</g>
<!-- Node5&#45;&gt;Node6 -->
<g id="edge6" class="edge">
<title>Node5&#45;&gt;Node6</title>
<path fill="none" stroke="midnightblue" d="M223.54,-56.32C214.37,-48.34 200.56,-36.31 189.47,-26.65"/>
<polygon fill="midnightblue" stroke="midnightblue" points="191.48,-23.76 181.64,-19.83 186.88,-29.04 191.48,-23.76"/>
</g>
<!-- Node7 -->
<g id="node7" class="node">
<title>Node7</title>
<g id="a_node7"><a xlink:title=" ">
<polygon fill="none" stroke="#bfbfbf" points="216.5,-0.5 216.5,-19.5 278.5,-19.5 278.5,-0.5 216.5,-0.5"/>
<text text-anchor="middle" x="247.5" y="-7.5" font-family="Helvetica,sans-Serif" font-size="10.00">stdbool.h</text>
</a>
</g>
</g>
<!-- Node5&#45;&gt;Node7 -->
<g id="edge7" class="edge">
<title>Node5&#45;&gt;Node7</title>
<path fill="none" stroke="midnightblue" d="M235.81,-56.08C237.67,-48.93 240.34,-38.64 242.65,-29.69"/>
<polygon fill="midnightblue" stroke="midnightblue" points="246.11,-30.31 245.23,-19.75 239.33,-28.55 246.11,-30.31"/>
</g>
<!-- Node8 -->
<g id="node8" class="node">
<title>Node8</title>
<g id="a_node8"><a xlink:title=" ">
<polygon fill="none" stroke="#bfbfbf" points="296.5,-0.5 296.5,-19.5 352.5,-19.5 352.5,-0.5 296.5,-0.5"/>
<text text-anchor="middle" x="324.5" y="-7.5" font-family="Helvetica,sans-Serif" font-size="10.00">stddef.h</text>
</a>
</g>
</g>
<!-- Node5&#45;&gt;Node8 -->
<g id="edge8" class="edge">
<title>Node5&#45;&gt;Node8</title>
<path fill="none" stroke="midnightblue" d="M248.12,-56.32C262.45,-47.82 284.51,-34.73 301.25,-24.8"/>
<polygon fill="midnightblue" stroke="midnightblue" points="303.1,-27.77 309.92,-19.65 299.53,-21.75 303.1,-27.77"/>
</g>
</g>
</svg>
