<?xml version="1.0" encoding="UTF-8" standalone="no"?>
<!DOCTYPE svg PUBLIC "-//W3C//DTD SVG 1.1//EN"
 "http://www.w3.org/Graphics/SVG/1.1/DTD/svg11.dtd">
<!-- Generated by graphviz version 2.43.0 (0)
 -->
<!-- Title: sys/include/sema.h Pages: 1 -->
<svg width="453pt" height="229pt"
 viewBox="0.00 0.00 452.50 229.00" xmlns="http://www.w3.org/2000/svg" xmlns:xlink="http://www.w3.org/1999/xlink">
<g id="graph0" class="graph" transform="scale(1 1) rotate(0) translate(4 225)">
<title>sys/include/sema.h</title>
<!-- Node1 -->
<g id="node1" class="node">
<title>Node1</title>
<g id="a_node1"><a xlink:title="Semaphore definitions.">
<polygon fill="#bfbfbf" stroke="black" points="144,-201.5 144,-220.5 254,-220.5 254,-201.5 144,-201.5"/>
<text text-anchor="middle" x="199" y="-208.5" font-family="Helvetica,sans-Serif" font-size="10.00">sys/include/sema.h</text>
</a>
</g>
</g>
<!-- Node2 -->
<g id="node2" class="node">
<title>Node2</title>
<g id="a_node2"><a xlink:href="sys__arch_8h.html" target="_top" xlink:title="OS abstraction layer.">
<polygon fill="none" stroke="black" points="0,-134.5 0,-164.5 120,-164.5 120,-134.5 0,-134.5"/>
<text text-anchor="start" x="8" y="-152.5" font-family="Helvetica,sans-Serif" font-size="10.00">pkg/lwip/include/arch</text>
<text text-anchor="middle" x="60" y="-141.5" font-family="Helvetica,sans-Serif" font-size="10.00">/sys_arch.h</text>
</a>
</g>
</g>
<!-- Node1&#45;&gt;Node2 -->
<g id="edge1" class="edge">
<title>Node1&#45;&gt;Node2</title>
<path fill="none" stroke="midnightblue" d="M169.71,-197.46C147.19,-187.82 116.1,-174.51 92.76,-164.52"/>
<polygon fill="midnightblue" stroke="midnightblue" points="168.51,-200.76 179.08,-201.48 171.27,-194.32 168.51,-200.76"/>
</g>
<!-- Node3 -->
<g id="node3" class="node">
<title>Node3</title>
<g id="a_node3"><a xlink:href="dpl__sem_8h.html" target="_top" xlink:title="uwb&#45;core DPL (Decawave Porting Layer) semapahore wrappers">
<polygon fill="none" stroke="black" points="138.5,-134.5 138.5,-164.5 259.5,-164.5 259.5,-134.5 138.5,-134.5"/>
<text text-anchor="start" x="146.5" y="-152.5" font-family="Helvetica,sans-Serif" font-size="10.00">pkg/uwb&#45;core/include</text>
<text text-anchor="middle" x="199" y="-141.5" font-family="Helvetica,sans-Serif" font-size="10.00">/dpl/dpl_sem.h</text>
</a>
</g>
</g>
<!-- Node1&#45;&gt;Node3 -->
<g id="edge2" class="edge">
<title>Node1&#45;&gt;Node3</title>
<path fill="none" stroke="midnightblue" d="M199,-191.23C199,-182.59 199,-172.5 199,-164.52"/>
<polygon fill="midnightblue" stroke="midnightblue" points="195.5,-191.48 199,-201.48 202.5,-191.48 195.5,-191.48"/>
</g>
<!-- Node7 -->
<g id="node7" class="node">
<title>Node7</title>
<g id="a_node7"><a xlink:href="semaphore_8h.html" target="_top" xlink:title="Semaphores.">
<polygon fill="none" stroke="black" points="277.5,-140 277.5,-159 444.5,-159 444.5,-140 277.5,-140"/>
<text text-anchor="middle" x="361" y="-147" font-family="Helvetica,sans-Serif" font-size="10.00">sys/posix/include/semaphore.h</text>
</a>
</g>
</g>
<!-- Node1&#45;&gt;Node7 -->
<g id="edge6" class="edge">
<title>Node1&#45;&gt;Node7</title>
<path fill="none" stroke="midnightblue" d="M231.85,-197.93C263.34,-186.37 310.06,-169.21 337.83,-159.01"/>
<polygon fill="midnightblue" stroke="midnightblue" points="230.39,-194.74 222.21,-201.48 232.8,-201.31 230.39,-194.74"/>
</g>
<!-- Node4 -->
<g id="node4" class="node">
<title>Node4</title>
<g id="a_node4"><a xlink:href="dpl_8h.html" target="_top" xlink:title="Abstraction layer for RIOT adaption.">
<polygon fill="none" stroke="black" points="64.5,-67.5 64.5,-97.5 185.5,-97.5 185.5,-67.5 64.5,-67.5"/>
<text text-anchor="start" x="72.5" y="-85.5" font-family="Helvetica,sans-Serif" font-size="10.00">pkg/uwb&#45;core/include</text>
<text text-anchor="middle" x="125" y="-74.5" font-family="Helvetica,sans-Serif" font-size="10.00">/dpl/dpl.h</text>
</a>
</g>
</g>
<!-- Node3&#45;&gt;Node4 -->
<g id="edge3" class="edge">
<title>Node3&#45;&gt;Node4</title>
<path fill="none" stroke="midnightblue" d="M175.2,-127.6C164.03,-117.78 151.01,-106.34 141.03,-97.58"/>
<polygon fill="midnightblue" stroke="midnightblue" points="173.12,-130.43 182.94,-134.4 177.74,-125.17 173.12,-130.43"/>
</g>
<!-- Node6 -->
<g id="node6" class="node">
<title>Node6</title>
<g id="a_node6"><a xlink:href="uwb__dw1000__params_8h.html" target="_top" xlink:title="Default configuration.">
<polygon fill="none" stroke="black" points="204,-67.5 204,-97.5 342,-97.5 342,-67.5 204,-67.5"/>
<text text-anchor="start" x="212" y="-85.5" font-family="Helvetica,sans-Serif" font-size="10.00">pkg/uwb&#45;dw1000/include</text>
<text text-anchor="middle" x="273" y="-74.5" font-family="Helvetica,sans-Serif" font-size="10.00">/uwb_dw1000_params.h</text>
</a>
</g>
</g>
<!-- Node3&#45;&gt;Node6 -->
<g id="edge5" class="edge">
<title>Node3&#45;&gt;Node6</title>
<path fill="none" stroke="midnightblue" d="M222.8,-127.6C233.97,-117.78 246.99,-106.34 256.97,-97.58"/>
<polygon fill="midnightblue" stroke="midnightblue" points="220.26,-125.17 215.06,-134.4 224.88,-130.43 220.26,-125.17"/>
</g>
<!-- Node5 -->
<g id="node5" class="node">
<title>Node5</title>
<g id="a_node5"><a xlink:href="os__dev_8h.html" target="_top" xlink:title="Abstraction layer for RIOT adaption.">
<polygon fill="none" stroke="black" points="64.5,-0.5 64.5,-30.5 185.5,-30.5 185.5,-0.5 64.5,-0.5"/>
<text text-anchor="start" x="72.5" y="-18.5" font-family="Helvetica,sans-Serif" font-size="10.00">pkg/uwb&#45;core/include</text>
<text text-anchor="middle" x="125" y="-7.5" font-family="Helvetica,sans-Serif" font-size="10.00">/os/os_dev.h</text>
</a>
</g>
</g>
<!-- Node4&#45;&gt;Node5 -->
<g id="edge4" class="edge">
<title>Node4&#45;&gt;Node5</title>
<path fill="none" stroke="midnightblue" d="M125,-57.11C125,-48.15 125,-38.32 125,-30.58"/>
<polygon fill="midnightblue" stroke="midnightblue" points="121.5,-57.4 125,-67.4 128.5,-57.4 121.5,-57.4"/>
</g>
</g>
</svg>
