<?xml version="1.0" encoding="UTF-8" standalone="no"?>
<!DOCTYPE svg PUBLIC "-//W3C//DTD SVG 1.1//EN"
 "http://www.w3.org/Graphics/SVG/1.1/DTD/svg11.dtd">
<!-- Generated by graphviz version 2.40.1 (20161225.0304)
 -->
<!-- Title: sys/posix/include/semaphore.h Pages: 1 -->
<svg width="276pt" height="196pt"
 viewBox="0.00 0.00 275.50 196.00" xmlns="http://www.w3.org/2000/svg" xmlns:xlink="http://www.w3.org/1999/xlink">
<g id="graph0" class="graph" transform="scale(1 1) rotate(0) translate(4 192)">
<title>sys/posix/include/semaphore.h</title>
<!-- Node0 -->
<g id="node1" class="node">
<title>Node0</title>
<polygon fill="#bfbfbf" stroke="#000000" points="11.5,-168.5 11.5,-187.5 163.5,-187.5 163.5,-168.5 11.5,-168.5"/>
<text text-anchor="middle" x="87.5" y="-175.5" font-family="Helvetica,sans-Serif" font-size="10.00" fill="#000000">sys/posix/include/semaphore.h</text>
</g>
<!-- Node1 -->
<g id="node2" class="node">
<title>Node1</title>
<g id="a_node2"><a xlink:href="errno_8h.html" target="_top" xlink:title="errno.h">
<polygon fill="none" stroke="#000000" points="0,-112.5 0,-131.5 47,-131.5 47,-112.5 0,-112.5"/>
<text text-anchor="middle" x="23.5" y="-119.5" font-family="Helvetica,sans-Serif" font-size="10.00" fill="#000000">errno.h</text>
</a>
</g>
</g>
<!-- Node0&#45;&gt;Node1 -->
<g id="edge1" class="edge">
<title>Node0&#45;&gt;Node1</title>
<path fill="none" stroke="#191970" d="M76.3521,-168.2455C66.9913,-160.0549 53.4142,-148.1749 42.3651,-138.5069"/>
<polygon fill="#191970" stroke="#191970" points="44.3508,-135.5937 34.5202,-131.6427 39.7412,-140.8618 44.3508,-135.5937"/>
</g>
<!-- Node2 -->
<g id="node3" class="node">
<title>Node2</title>
<polygon fill="none" stroke="#bfbfbf" points="65.5,-112.5 65.5,-131.5 109.5,-131.5 109.5,-112.5 65.5,-112.5"/>
<text text-anchor="middle" x="87.5" y="-119.5" font-family="Helvetica,sans-Serif" font-size="10.00" fill="#000000">time.h</text>
</g>
<!-- Node0&#45;&gt;Node2 -->
<g id="edge2" class="edge">
<title>Node0&#45;&gt;Node2</title>
<path fill="none" stroke="#191970" d="M87.5,-168.2455C87.5,-160.9382 87.5,-150.6944 87.5,-141.7046"/>
<polygon fill="#191970" stroke="#191970" points="91.0001,-141.6426 87.5,-131.6427 84.0001,-141.6427 91.0001,-141.6426"/>
</g>
<!-- Node3 -->
<g id="node4" class="node">
<title>Node3</title>
<g id="a_node4"><a xlink:href="sema_8h.html" target="_top" xlink:title="Semaphore definitions. ">
<polygon fill="none" stroke="#000000" points="128,-112.5 128,-131.5 177,-131.5 177,-112.5 128,-112.5"/>
<text text-anchor="middle" x="152.5" y="-119.5" font-family="Helvetica,sans-Serif" font-size="10.00" fill="#000000">sema.h</text>
</a>
</g>
</g>
<!-- Node0&#45;&gt;Node3 -->
<g id="edge3" class="edge">
<title>Node0&#45;&gt;Node3</title>
<path fill="none" stroke="#191970" d="M98.8221,-168.2455C108.4223,-159.9746 122.3892,-147.9416 133.6695,-138.2232"/>
<polygon fill="#191970" stroke="#191970" points="136.016,-140.8214 141.3076,-131.6427 131.447,-135.5182 136.016,-140.8214"/>
</g>
<!-- Node4 -->
<g id="node5" class="node">
<title>Node4</title>
<polygon fill="none" stroke="#bfbfbf" points="92,-.5 92,-19.5 141,-19.5 141,-.5 92,-.5"/>
<text text-anchor="middle" x="116.5" y="-7.5" font-family="Helvetica,sans-Serif" font-size="10.00" fill="#000000">stdint.h</text>
</g>
<!-- Node3&#45;&gt;Node4 -->
<g id="edge4" class="edge">
<title>Node3&#45;&gt;Node4</title>
<path fill="none" stroke="#191970" d="M149.4307,-112.4509C143.5326,-94.1013 130.5113,-53.5908 122.7259,-29.3693"/>
<polygon fill="#191970" stroke="#191970" points="125.9538,-27.9741 119.5616,-19.5249 119.2896,-30.1162 125.9538,-27.9741"/>
</g>
<!-- Node5 -->
<g id="node6" class="node">
<title>Node5</title>
<g id="a_node6"><a xlink:href="mutex_8h.html" target="_top" xlink:title="Mutex for thread synchronization. ">
<polygon fill="none" stroke="#000000" points="155.5,-56.5 155.5,-75.5 207.5,-75.5 207.5,-56.5 155.5,-56.5"/>
<text text-anchor="middle" x="181.5" y="-63.5" font-family="Helvetica,sans-Serif" font-size="10.00" fill="#000000">mutex.h</text>
</a>
</g>
</g>
<!-- Node3&#45;&gt;Node5 -->
<g id="edge5" class="edge">
<title>Node3&#45;&gt;Node5</title>
<path fill="none" stroke="#191970" d="M157.5514,-112.2455C161.5019,-104.617 167.1097,-93.7881 171.9058,-84.5267"/>
<polygon fill="#191970" stroke="#191970" points="175.0159,-86.1321 176.5065,-75.6427 168.7999,-82.9131 175.0159,-86.1321"/>
</g>
<!-- Node5&#45;&gt;Node4 -->
<g id="edge7" class="edge">
<title>Node5&#45;&gt;Node4</title>
<path fill="none" stroke="#191970" d="M170.1779,-56.2455C160.5777,-47.9746 146.6108,-35.9416 135.3305,-26.2232"/>
<polygon fill="#191970" stroke="#191970" points="137.553,-23.5182 127.6924,-19.6427 132.984,-28.8214 137.553,-23.5182"/>
</g>
<!-- Node6 -->
<g id="node7" class="node">
<title>Node6</title>
<polygon fill="none" stroke="#bfbfbf" points="159.5,-.5 159.5,-19.5 211.5,-19.5 211.5,-.5 159.5,-.5"/>
<text text-anchor="middle" x="185.5" y="-7.5" font-family="Helvetica,sans-Serif" font-size="10.00" fill="#000000">stddef.h</text>
</g>
<!-- Node5&#45;&gt;Node6 -->
<g id="edge6" class="edge">
<title>Node5&#45;&gt;Node6</title>
<path fill="none" stroke="#191970" d="M182.1967,-56.2455C182.7187,-48.9382 183.4504,-38.6944 184.0925,-29.7046"/>
<polygon fill="#191970" stroke="#191970" points="187.5898,-29.8667 184.8112,-19.6427 180.6076,-29.3679 187.5898,-29.8667"/>
</g>
<!-- Node7 -->
<g id="node8" class="node">
<title>Node7</title>
<g id="a_node8"><a xlink:href="list_8h.html" target="_top" xlink:title="Intrusive linked list. ">
<polygon fill="none" stroke="#000000" points="229.5,-.5 229.5,-19.5 267.5,-19.5 267.5,-.5 229.5,-.5"/>
<text text-anchor="middle" x="248.5" y="-7.5" font-family="Helvetica,sans-Serif" font-size="10.00" fill="#000000">list.h</text>
</a>
</g>
</g>
<!-- Node5&#45;&gt;Node7 -->
<g id="edge8" class="edge">
<title>Node5&#45;&gt;Node7</title>
<path fill="none" stroke="#191970" d="M193.1705,-56.2455C203.0661,-47.9746 217.4627,-35.9416 229.0901,-26.2232"/>
<polygon fill="#191970" stroke="#191970" points="231.535,-28.7413 236.9632,-19.6427 227.0458,-23.3703 231.535,-28.7413"/>
</g>
</g>
</svg>
