<?xml version="1.0" encoding="UTF-8" standalone="no"?>
<!DOCTYPE svg PUBLIC "-//W3C//DTD SVG 1.1//EN"
 "http://www.w3.org/Graphics/SVG/1.1/DTD/svg11.dtd">
<!-- Generated by graphviz version 2.40.1 (20161225.0304)
 -->
<!-- Title: boards/sensebox_samd21/include/board.h Pages: 1 -->
<svg width="304pt" height="106pt"
 viewBox="0.00 0.00 303.50 106.00" xmlns="http://www.w3.org/2000/svg" xmlns:xlink="http://www.w3.org/1999/xlink">
<g id="graph0" class="graph" transform="scale(1 1) rotate(0) translate(4 102)">
<title>boards/sensebox_samd21/include/board.h</title>
<!-- Node14 -->
<g id="node1" class="node">
<title>Node14</title>
<polygon fill="#bfbfbf" stroke="#000000" points="78,-67.5 78,-97.5 209,-97.5 209,-67.5 78,-67.5"/>
<text text-anchor="start" x="86" y="-85.5" font-family="Helvetica,sans-Serif" font-size="10.00" fill="#000000">boards/sensebox_samd21</text>
<text text-anchor="middle" x="143.5" y="-74.5" font-family="Helvetica,sans-Serif" font-size="10.00" fill="#000000">/include/board.h</text>
</g>
<!-- Node15 -->
<g id="node2" class="node">
<title>Node15</title>
<g id="a_node2"><a xlink:href="sensebox__samd21_2include_2gpio__params_8h.html" target="_top" xlink:title="Board specific configuration of direct mapped GPIOs. ">
<polygon fill="none" stroke="#000000" points="0,-.5 0,-30.5 131,-30.5 131,-.5 0,-.5"/>
<text text-anchor="start" x="8" y="-18.5" font-family="Helvetica,sans-Serif" font-size="10.00" fill="#000000">boards/sensebox_samd21</text>
<text text-anchor="middle" x="65.5" y="-7.5" font-family="Helvetica,sans-Serif" font-size="10.00" fill="#000000">/include/gpio_params.h</text>
</a>
</g>
</g>
<!-- Node14&#45;&gt;Node15 -->
<g id="edge1" class="edge">
<title>Node14&#45;&gt;Node15</title>
<path fill="none" stroke="#191970" d="M117.884,-60.4965C106.5016,-50.7193 93.3884,-39.4554 83.1294,-30.6432"/>
<polygon fill="#191970" stroke="#191970" points="115.9343,-63.4357 125.8006,-67.2967 120.4955,-58.1257 115.9343,-63.4357"/>
</g>
<!-- Node16 -->
<g id="node3" class="node">
<title>Node16</title>
<g id="a_node3"><a xlink:href="boards_2sensebox__samd21_2include_2sdcard__spi__params_8h.html" target="_top" xlink:title="SD card configuration for SenseBox MCU with SAMD21 board. ">
<polygon fill="none" stroke="#000000" points="149.5,-.5 149.5,-30.5 295.5,-30.5 295.5,-.5 149.5,-.5"/>
<text text-anchor="start" x="157.5" y="-18.5" font-family="Helvetica,sans-Serif" font-size="10.00" fill="#000000">boards/sensebox_samd21</text>
<text text-anchor="middle" x="222.5" y="-7.5" font-family="Helvetica,sans-Serif" font-size="10.00" fill="#000000">/include/sdcard_spi_params.h</text>
</a>
</g>
</g>
<!-- Node14&#45;&gt;Node16 -->
<g id="edge2" class="edge">
<title>Node14&#45;&gt;Node16</title>
<path fill="none" stroke="#191970" d="M169.1092,-60.7808C180.7146,-50.9383 194.1532,-39.541 204.6446,-30.6432"/>
<polygon fill="#191970" stroke="#191970" points="166.789,-58.1593 161.4263,-67.2967 171.3167,-63.4978 166.789,-58.1593"/>
</g>
</g>
</svg>
