<?xml version="1.0" encoding="UTF-8" standalone="no"?>
<!DOCTYPE svg PUBLIC "-//W3C//DTD SVG 1.1//EN"
 "http://www.w3.org/Graphics/SVG/1.1/DTD/svg11.dtd">
<!-- Generated by graphviz version 2.40.1 (20161225.0304)
 -->
<!-- Title: boards/sensebox_samd21/include/gpio_params.h Pages: 1 -->
<svg width="580pt" height="375pt"
 viewBox="0.00 0.00 580.00 375.00" xmlns="http://www.w3.org/2000/svg" xmlns:xlink="http://www.w3.org/1999/xlink">
<g id="graph0" class="graph" transform="scale(1 1) rotate(0) translate(4 371)">
<title>boards/sensebox_samd21/include/gpio_params.h</title>
<!-- Node0 -->
<g id="node1" class="node">
<title>Node0</title>
<polygon fill="#bfbfbf" stroke="#000000" points="398.5,-336.5 398.5,-366.5 529.5,-366.5 529.5,-336.5 398.5,-336.5"/>
<text text-anchor="start" x="406.5" y="-354.5" font-family="Helvetica,sans-Serif" font-size="10.00" fill="#000000">boards/sensebox_samd21</text>
<text text-anchor="middle" x="464" y="-343.5" font-family="Helvetica,sans-Serif" font-size="10.00" fill="#000000">/include/gpio_params.h</text>
</g>
<!-- Node1 -->
<g id="node2" class="node">
<title>Node1</title>
<g id="a_node2"><a xlink:href="sensebox__samd21_2include_2board_8h.html" target="_top" xlink:title="Support for the SenseBox MCU with SAMD21 board. ">
<polygon fill="none" stroke="#000000" points="387.5,-280.5 387.5,-299.5 436.5,-299.5 436.5,-280.5 387.5,-280.5"/>
<text text-anchor="middle" x="412" y="-287.5" font-family="Helvetica,sans-Serif" font-size="10.00" fill="#000000">board.h</text>
</a>
</g>
</g>
<!-- Node0&#45;&gt;Node1 -->
<g id="edge1" class="edge">
<title>Node0&#45;&gt;Node1</title>
<path fill="none" stroke="#191970" d="M451.1461,-336.2977C443.7776,-327.5831 434.4974,-316.6075 426.8223,-307.5302"/>
<polygon fill="#191970" stroke="#191970" points="429.4552,-305.2233 420.3259,-299.8469 424.1098,-309.743 429.4552,-305.2233"/>
</g>
<!-- Node15 -->
<g id="node16" class="node">
<title>Node15</title>
<g id="a_node16"><a xlink:href="periph_8h.html" target="_top" xlink:title="Parameter definitions for mapping peripherals directly to SAUL. ">
<polygon fill="none" stroke="#000000" points="500,-168.5 500,-187.5 572,-187.5 572,-168.5 500,-168.5"/>
<text text-anchor="middle" x="536" y="-175.5" font-family="Helvetica,sans-Serif" font-size="10.00" fill="#000000">saul/periph.h</text>
</a>
</g>
</g>
<!-- Node0&#45;&gt;Node15 -->
<g id="edge26" class="edge">
<title>Node0&#45;&gt;Node15</title>
<path fill="none" stroke="#191970" d="M470.2636,-336.4065C483.348,-304.8767 513.5621,-232.0692 528.0157,-197.24"/>
<polygon fill="#191970" stroke="#191970" points="531.3586,-198.3158 531.9589,-187.738 524.8932,-195.6327 531.3586,-198.3158"/>
</g>
<!-- Node2 -->
<g id="node3" class="node">
<title>Node2</title>
<polygon fill="none" stroke="#bfbfbf" points="440.5,-168.5 440.5,-187.5 481.5,-187.5 481.5,-168.5 440.5,-168.5"/>
<text text-anchor="middle" x="461" y="-175.5" font-family="Helvetica,sans-Serif" font-size="10.00" fill="#000000">cpu.h</text>
</g>
<!-- Node1&#45;&gt;Node2 -->
<g id="edge2" class="edge">
<title>Node1&#45;&gt;Node2</title>
<path fill="none" stroke="#191970" d="M426.868,-280.2756C437.9604,-272.0814 452.3061,-259.2665 459,-244 465.3296,-229.5643 465.4368,-211.5956 464.1798,-198.0536"/>
<polygon fill="#191970" stroke="#191970" points="467.6233,-197.3828 462.9097,-187.8942 460.6774,-198.2512 467.6233,-197.3828"/>
</g>
<!-- Node3 -->
<g id="node4" class="node">
<title>Node3</title>
<g id="a_node4"><a xlink:href="boards_2sensebox__samd21_2include_2periph__conf_8h.html" target="_top" xlink:title="Configuration of CPU peripherals for SenseBox MCU with SAMD21. ">
<polygon fill="none" stroke="#000000" points="374.5,-224.5 374.5,-243.5 449.5,-243.5 449.5,-224.5 374.5,-224.5"/>
<text text-anchor="middle" x="412" y="-231.5" font-family="Helvetica,sans-Serif" font-size="10.00" fill="#000000">periph_conf.h</text>
</a>
</g>
</g>
<!-- Node1&#45;&gt;Node3 -->
<g id="edge3" class="edge">
<title>Node1&#45;&gt;Node3</title>
<path fill="none" stroke="#191970" d="M412,-280.2455C412,-272.9382 412,-262.6944 412,-253.7046"/>
<polygon fill="#191970" stroke="#191970" points="415.5001,-253.6426 412,-243.6427 408.5001,-253.6427 415.5001,-253.6426"/>
</g>
<!-- Node5 -->
<g id="node6" class="node">
<title>Node5</title>
<polygon fill="none" stroke="#bfbfbf" points="114,-.5 114,-19.5 186,-19.5 186,-.5 114,-.5"/>
<text text-anchor="middle" x="150" y="-7.5" font-family="Helvetica,sans-Serif" font-size="10.00" fill="#000000">periph_cpu.h</text>
</g>
<!-- Node1&#45;&gt;Node5 -->
<g id="edge7" class="edge">
<title>Node1&#45;&gt;Node5</title>
<path fill="none" stroke="#191970" d="M387.4614,-288.6699C298.7654,-283.2037 0,-258.7947 0,-178 0,-178 0,-178 0,-122 0,-69.275 60.2388,-38.3967 104.3682,-22.85"/>
<polygon fill="#191970" stroke="#191970" points="105.711,-26.091 114.0713,-19.5829 103.4772,-19.457 105.711,-26.091"/>
</g>
<!-- Node6 -->
<g id="node7" class="node">
<title>Node6</title>
<g id="a_node7"><a xlink:href="mtd__sdcard_8h.html" target="_top" xlink:title="Interface definition for mtd_sdcard driver. ">
<polygon fill="none" stroke="#000000" points="280,-224.5 280,-243.5 356,-243.5 356,-224.5 280,-224.5"/>
<text text-anchor="middle" x="318" y="-231.5" font-family="Helvetica,sans-Serif" font-size="10.00" fill="#000000">mtd_sdcard.h</text>
</a>
</g>
</g>
<!-- Node1&#45;&gt;Node6 -->
<g id="edge8" class="edge">
<title>Node1&#45;&gt;Node6</title>
<path fill="none" stroke="#191970" d="M395.6264,-280.2455C381.0692,-271.5731 359.569,-258.7645 342.8848,-248.825"/>
<polygon fill="#191970" stroke="#191970" points="344.5683,-245.7539 334.1859,-243.6427 340.9856,-251.7676 344.5683,-245.7539"/>
</g>
<!-- Node3&#45;&gt;Node2 -->
<g id="edge5" class="edge">
<title>Node3&#45;&gt;Node2</title>
<path fill="none" stroke="#191970" d="M420.5351,-224.2455C427.4912,-216.2958 437.4883,-204.8706 445.8051,-195.3656"/>
<polygon fill="#191970" stroke="#191970" points="448.6116,-197.4732 452.5627,-187.6427 443.3436,-192.8637 448.6116,-197.4732"/>
</g>
<!-- Node4 -->
<g id="node5" class="node">
<title>Node4</title>
<polygon fill="none" stroke="#bfbfbf" points="414.5,-56.5 414.5,-75.5 463.5,-75.5 463.5,-56.5 414.5,-56.5"/>
<text text-anchor="middle" x="439" y="-63.5" font-family="Helvetica,sans-Serif" font-size="10.00" fill="#000000">stdint.h</text>
</g>
<!-- Node3&#45;&gt;Node4 -->
<g id="edge4" class="edge">
<title>Node3&#45;&gt;Node4</title>
<path fill="none" stroke="#191970" d="M413.529,-224.4862C417.7971,-197.9293 429.9092,-122.5651 435.7591,-86.1655"/>
<polygon fill="#191970" stroke="#191970" points="439.2893,-86.2566 437.4205,-75.8279 432.378,-85.1458 439.2893,-86.2566"/>
</g>
<!-- Node3&#45;&gt;Node5 -->
<g id="edge6" class="edge">
<title>Node3&#45;&gt;Node5</title>
<path fill="none" stroke="#191970" d="M374.2947,-225.9542C371.151,-225.2905 368.0212,-224.6322 365,-224 287.2767,-207.7374 261.4533,-222.6383 190,-188 120.4616,-154.29 89.5976,-146.0667 57,-76 45.1449,-50.5181 75.0324,-33.0025 104.0147,-22.4536"/>
<polygon fill="#191970" stroke="#191970" points="105.4079,-25.6767 113.7472,-19.1417 103.1528,-19.0498 105.4079,-25.6767"/>
</g>
<!-- Node6&#45;&gt;Node4 -->
<g id="edge9" class="edge">
<title>Node6&#45;&gt;Node4</title>
<path fill="none" stroke="#191970" d="M324.8522,-224.4862C344.3107,-197.4695 400.15,-119.9405 425.8123,-84.3102"/>
<polygon fill="#191970" stroke="#191970" points="428.9173,-85.9879 431.9216,-75.8279 423.2372,-81.8968 428.9173,-85.9879"/>
</g>
<!-- Node7 -->
<g id="node8" class="node">
<title>Node7</title>
<g id="a_node8"><a xlink:href="sdcard__spi_8h.html" target="_top" xlink:title="Public interface for the sdcard_spi driver. ">
<polygon fill="none" stroke="#000000" points="199,-168.5 199,-187.5 271,-187.5 271,-168.5 199,-168.5"/>
<text text-anchor="middle" x="235" y="-175.5" font-family="Helvetica,sans-Serif" font-size="10.00" fill="#000000">sdcard_spi.h</text>
</a>
</g>
</g>
<!-- Node6&#45;&gt;Node7 -->
<g id="edge10" class="edge">
<title>Node6&#45;&gt;Node7</title>
<path fill="none" stroke="#191970" d="M303.5425,-224.2455C290.9268,-215.7337 272.4056,-203.2375 257.7955,-193.3801"/>
<polygon fill="#191970" stroke="#191970" points="259.5391,-190.3343 249.2918,-187.6427 255.6239,-196.1371 259.5391,-190.3343"/>
</g>
<!-- Node14 -->
<g id="node15" class="node">
<title>Node14</title>
<g id="a_node15"><a xlink:href="mtd_8h.html" target="_top" xlink:title="mtd.h">
<polygon fill="none" stroke="#000000" points="304.5,-112.5 304.5,-131.5 345.5,-131.5 345.5,-112.5 304.5,-112.5"/>
<text text-anchor="middle" x="325" y="-119.5" font-family="Helvetica,sans-Serif" font-size="10.00" fill="#000000">mtd.h</text>
</a>
</g>
</g>
<!-- Node6&#45;&gt;Node14 -->
<g id="edge24" class="edge">
<title>Node6&#45;&gt;Node14</title>
<path fill="none" stroke="#191970" d="M318.5968,-224.4509C319.7385,-206.184 322.2528,-165.9553 323.7689,-141.6976"/>
<polygon fill="#191970" stroke="#191970" points="327.274,-141.7238 324.4047,-131.5249 320.2876,-141.2871 327.274,-141.7238"/>
</g>
<!-- Node8 -->
<g id="node9" class="node">
<title>Node8</title>
<g id="a_node9"><a xlink:href="spi_8h.html" target="_top" xlink:title="Low&#45;level SPI peripheral driver interface definition. ">
<polygon fill="none" stroke="#000000" points="180.5,-112.5 180.5,-131.5 247.5,-131.5 247.5,-112.5 180.5,-112.5"/>
<text text-anchor="middle" x="214" y="-119.5" font-family="Helvetica,sans-Serif" font-size="10.00" fill="#000000">periph/spi.h</text>
</a>
</g>
</g>
<!-- Node7&#45;&gt;Node8 -->
<g id="edge11" class="edge">
<title>Node7&#45;&gt;Node8</title>
<path fill="none" stroke="#191970" d="M231.3421,-168.2455C228.5416,-160.7776 224.591,-150.2427 221.1676,-141.1137"/>
<polygon fill="#191970" stroke="#191970" points="224.4045,-139.777 217.616,-131.6427 217.8501,-142.2349 224.4045,-139.777"/>
</g>
<!-- Node9 -->
<g id="node10" class="node">
<title>Node9</title>
<polygon fill="none" stroke="#bfbfbf" points="66,-56.5 66,-75.5 122,-75.5 122,-56.5 66,-56.5"/>
<text text-anchor="middle" x="94" y="-63.5" font-family="Helvetica,sans-Serif" font-size="10.00" fill="#000000">stdbool.h</text>
</g>
<!-- Node7&#45;&gt;Node9 -->
<g id="edge23" class="edge">
<title>Node7&#45;&gt;Node9</title>
<path fill="none" stroke="#191970" d="M221.0163,-168.4631C207.8793,-159.384 187.7855,-145.1871 171,-132 150.44,-115.8476 127.823,-96.2261 112.4537,-82.5954"/>
<polygon fill="#191970" stroke="#191970" points="114.513,-79.7423 104.72,-75.6991 109.8543,-84.9668 114.513,-79.7423"/>
</g>
<!-- Node13 -->
<g id="node14" class="node">
<title>Node13</title>
<g id="a_node14"><a xlink:href="gpio_8h.html" target="_top" xlink:title="Low&#45;level GPIO peripheral driver interface definitions. ">
<polygon fill="none" stroke="#000000" points="324,-56.5 324,-75.5 396,-75.5 396,-56.5 324,-56.5"/>
<text text-anchor="middle" x="360" y="-63.5" font-family="Helvetica,sans-Serif" font-size="10.00" fill="#000000">periph/gpio.h</text>
</a>
</g>
</g>
<!-- Node7&#45;&gt;Node13 -->
<g id="edge22" class="edge">
<title>Node7&#45;&gt;Node13</title>
<path fill="none" stroke="#191970" d="M242.7431,-168.4758C253.8297,-155.1183 275.193,-130.3959 296,-112 308.6211,-100.8414 323.9052,-89.7764 336.3716,-81.2958"/>
<polygon fill="#191970" stroke="#191970" points="338.5043,-84.0802 344.8728,-75.613 334.6141,-78.2607 338.5043,-84.0802"/>
</g>
<!-- Node8&#45;&gt;Node4 -->
<g id="edge14" class="edge">
<title>Node8&#45;&gt;Node4</title>
<path fill="none" stroke="#191970" d="M247.5951,-114.4414C283.9016,-106.1557 343.674,-92.177 404.4059,-76.065"/>
<polygon fill="#191970" stroke="#191970" points="405.399,-79.4225 414.1578,-73.4614 403.5933,-72.6594 405.399,-79.4225"/>
</g>
<!-- Node8&#45;&gt;Node5 -->
<g id="edge16" class="edge">
<title>Node8&#45;&gt;Node5</title>
<path fill="none" stroke="#191970" d="M201.5813,-112.3196C191.4335,-103.7851 177.4334,-90.4813 169,-76 160.6554,-61.6713 155.7701,-43.4344 153.0481,-29.7634"/>
<polygon fill="#191970" stroke="#191970" points="156.4284,-28.7782 151.242,-19.5396 149.5351,-29.996 156.4284,-28.7782"/>
</g>
<!-- Node8&#45;&gt;Node9 -->
<g id="edge12" class="edge">
<title>Node8&#45;&gt;Node9</title>
<path fill="none" stroke="#191970" d="M193.3713,-112.3733C174.1081,-103.3838 145.1514,-89.8706 123.4581,-79.7471"/>
<polygon fill="#191970" stroke="#191970" points="124.9015,-76.5584 114.3595,-75.5011 121.9413,-82.9017 124.9015,-76.5584"/>
</g>
<!-- Node10 -->
<g id="node11" class="node">
<title>Node10</title>
<polygon fill="none" stroke="#bfbfbf" points="178,-56.5 178,-75.5 230,-75.5 230,-56.5 178,-56.5"/>
<text text-anchor="middle" x="204" y="-63.5" font-family="Helvetica,sans-Serif" font-size="10.00" fill="#000000">stddef.h</text>
</g>
<!-- Node8&#45;&gt;Node10 -->
<g id="edge13" class="edge">
<title>Node8&#45;&gt;Node10</title>
<path fill="none" stroke="#191970" d="M212.2581,-112.2455C210.9533,-104.9382 209.124,-94.6944 207.5187,-85.7046"/>
<polygon fill="#191970" stroke="#191970" points="210.9254,-84.8717 205.7219,-75.6427 204.0344,-86.1022 210.9254,-84.8717"/>
</g>
<!-- Node11 -->
<g id="node12" class="node">
<title>Node11</title>
<polygon fill="none" stroke="#bfbfbf" points="376,-.5 376,-19.5 424,-19.5 424,-.5 376,-.5"/>
<text text-anchor="middle" x="400" y="-7.5" font-family="Helvetica,sans-Serif" font-size="10.00" fill="#000000">limits.h</text>
</g>
<!-- Node8&#45;&gt;Node11 -->
<g id="edge15" class="edge">
<title>Node8&#45;&gt;Node11</title>
<path fill="none" stroke="#191970" d="M227.8195,-112.446C247.0609,-99.265 283.1511,-74.9799 315,-56 333.6762,-44.8702 355.2216,-33.2229 371.9476,-24.433"/>
<polygon fill="#191970" stroke="#191970" points="373.9353,-27.3436 381.1806,-19.6134 370.696,-21.1382 373.9353,-27.3436"/>
</g>
<!-- Node12 -->
<g id="node13" class="node">
<title>Node12</title>
<polygon fill="none" stroke="#bfbfbf" points="282.5,-.5 282.5,-19.5 357.5,-19.5 357.5,-.5 282.5,-.5"/>
<text text-anchor="middle" x="320" y="-7.5" font-family="Helvetica,sans-Serif" font-size="10.00" fill="#000000">periph_conf.h</text>
</g>
<!-- Node8&#45;&gt;Node12 -->
<g id="edge17" class="edge">
<title>Node8&#45;&gt;Node12</title>
<path fill="none" stroke="#191970" d="M223.0375,-112.4509C241.0299,-93.4401 281.5349,-50.6423 304.0848,-26.816"/>
<polygon fill="#191970" stroke="#191970" points="306.6535,-29.1937 310.9854,-19.5249 301.5695,-24.382 306.6535,-29.1937"/>
</g>
<!-- Node8&#45;&gt;Node13 -->
<g id="edge18" class="edge">
<title>Node8&#45;&gt;Node13</title>
<path fill="none" stroke="#191970" d="M239.0983,-112.3733C262.9555,-103.2226 299.0335,-89.3844 325.571,-79.2057"/>
<polygon fill="#191970" stroke="#191970" points="327.1459,-82.3503 335.2292,-75.5011 324.639,-75.8145 327.1459,-82.3503"/>
</g>
<!-- Node13&#45;&gt;Node5 -->
<g id="edge20" class="edge">
<title>Node13&#45;&gt;Node5</title>
<path fill="none" stroke="#191970" d="M323.8997,-56.3733C288.3752,-46.9001 234.012,-32.4032 195.5381,-22.1435"/>
<polygon fill="#191970" stroke="#191970" points="196.1934,-18.696 185.6292,-19.5011 194.3897,-25.4596 196.1934,-18.696"/>
</g>
<!-- Node13&#45;&gt;Node11 -->
<g id="edge19" class="edge">
<title>Node13&#45;&gt;Node11</title>
<path fill="none" stroke="#191970" d="M366.9675,-56.2455C372.5311,-48.4564 380.478,-37.3308 387.1829,-27.9439"/>
<polygon fill="#191970" stroke="#191970" points="390.148,-29.8144 393.1124,-19.6427 384.4519,-25.7457 390.148,-29.8144"/>
</g>
<!-- Node13&#45;&gt;Node12 -->
<g id="edge21" class="edge">
<title>Node13&#45;&gt;Node12</title>
<path fill="none" stroke="#191970" d="M353.0325,-56.2455C347.4689,-48.4564 339.522,-37.3308 332.8171,-27.9439"/>
<polygon fill="#191970" stroke="#191970" points="335.5481,-25.7457 326.8876,-19.6427 329.852,-29.8144 335.5481,-25.7457"/>
</g>
<!-- Node14&#45;&gt;Node4 -->
<g id="edge25" class="edge">
<title>Node14&#45;&gt;Node4</title>
<path fill="none" stroke="#191970" d="M344.5973,-112.3733C362.7331,-103.4644 389.9135,-90.1127 410.4587,-80.0203"/>
<polygon fill="#191970" stroke="#191970" points="412.2261,-83.0517 419.6584,-75.5011 409.1397,-76.7688 412.2261,-83.0517"/>
</g>
<!-- Node15&#45;&gt;Node13 -->
<g id="edge27" class="edge">
<title>Node15&#45;&gt;Node13</title>
<path fill="none" stroke="#191970" d="M520.9943,-168.4509C490.3408,-148.9441 420.3322,-104.3932 383.5571,-80.9909"/>
<polygon fill="#191970" stroke="#191970" points="385.2834,-77.9409 374.9677,-75.5249 381.5252,-83.8465 385.2834,-77.9409"/>
</g>
<!-- Node16 -->
<g id="node17" class="node">
<title>Node16</title>
<g id="a_node17"><a xlink:href="adc_8h.html" target="_top" xlink:title="Low&#45;level ADC peripheral driver interface definitions. ">
<polygon fill="none" stroke="#000000" points="495,-112.5 495,-131.5 565,-131.5 565,-112.5 495,-112.5"/>
<text text-anchor="middle" x="530" y="-119.5" font-family="Helvetica,sans-Serif" font-size="10.00" fill="#000000">periph/adc.h</text>
</a>
</g>
</g>
<!-- Node15&#45;&gt;Node16 -->
<g id="edge28" class="edge">
<title>Node15&#45;&gt;Node16</title>
<path fill="none" stroke="#191970" d="M534.9549,-168.2455C534.172,-160.9382 533.0744,-150.6944 532.1112,-141.7046"/>
<polygon fill="#191970" stroke="#191970" points="535.5786,-141.2129 531.0331,-131.6427 528.6185,-141.9587 535.5786,-141.2129"/>
</g>
<!-- Node16&#45;&gt;Node4 -->
<g id="edge30" class="edge">
<title>Node16&#45;&gt;Node4</title>
<path fill="none" stroke="#191970" d="M514.149,-112.2455C500.1868,-103.6534 479.6272,-91.0014 463.5404,-81.1018"/>
<polygon fill="#191970" stroke="#191970" points="465.0203,-77.9029 454.6693,-75.6427 461.3516,-83.8645 465.0203,-77.9029"/>
</g>
<!-- Node16&#45;&gt;Node5 -->
<g id="edge31" class="edge">
<title>Node16&#45;&gt;Node5</title>
<path fill="none" stroke="#191970" d="M524.8115,-112.4436C516.1983,-97.6076 497.4481,-69.3545 473,-56 449.1404,-42.967 279.396,-23.6098 196.0051,-14.7448"/>
<polygon fill="#191970" stroke="#191970" points="196.3506,-11.2619 186.0381,-13.6915 195.6149,-18.2231 196.3506,-11.2619"/>
</g>
<!-- Node16&#45;&gt;Node11 -->
<g id="edge29" class="edge">
<title>Node16&#45;&gt;Node11</title>
<path fill="none" stroke="#191970" d="M536.5318,-112.0417C544.725,-98.1685 556.2969,-72.8373 544,-56 530.9479,-38.1288 472.6,-23.8407 434.2995,-16.1705"/>
<polygon fill="#191970" stroke="#191970" points="434.5667,-12.657 424.0826,-14.1851 433.2313,-19.5285 434.5667,-12.657"/>
</g>
<!-- Node16&#45;&gt;Node12 -->
<g id="edge32" class="edge">
<title>Node16&#45;&gt;Node12</title>
<path fill="none" stroke="#191970" d="M529.2799,-112.3626C527.6708,-97.9349 522.5024,-70.8349 506,-56 500.7564,-51.2862 420.8505,-32.6343 367.4937,-20.5773"/>
<polygon fill="#191970" stroke="#191970" points="368.06,-17.1173 357.5353,-18.3338 366.5215,-23.9461 368.06,-17.1173"/>
</g>
</g>
</svg>
