<?xml version="1.0" encoding="UTF-8" standalone="no"?>
<!DOCTYPE svg PUBLIC "-//W3C//DTD SVG 1.1//EN"
 "http://www.w3.org/Graphics/SVG/1.1/DTD/svg11.dtd">
<!-- Generated by graphviz version 2.43.0 (0)
 -->
<!-- Title: boards/sensebox_samd21/include/board.h Pages: 1 -->
<svg width="556pt" height="319pt"
 viewBox="0.00 0.00 555.50 319.00" xmlns="http://www.w3.org/2000/svg" xmlns:xlink="http://www.w3.org/1999/xlink">
<g id="graph0" class="graph" transform="scale(1 1) rotate(0) translate(4 315)">
<title>boards/sensebox_samd21/include/board.h</title>
<!-- Node1 -->
<g id="node1" class="node">
<title>Node1</title>
<g id="a_node1"><a xlink:title="Support for the SenseBox MCU with SAMD21 board.">
<polygon fill="#bfbfbf" stroke="black" points="397,-280.5 397,-310.5 540,-310.5 540,-280.5 397,-280.5"/>
<text text-anchor="start" x="405" y="-298.5" font-family="Helvetica,sans-Serif" font-size="10.00">boards/sensebox_samd21</text>
<text text-anchor="middle" x="468.5" y="-287.5" font-family="Helvetica,sans-Serif" font-size="10.00">/include/board.h</text>
</a>
</g>
</g>
<!-- Node2 -->
<g id="node2" class="node">
<title>Node2</title>
<g id="a_node2"><a xlink:title=" ">
<polygon fill="none" stroke="#bfbfbf" points="476,-168.5 476,-187.5 519,-187.5 519,-168.5 476,-168.5"/>
<text text-anchor="middle" x="497.5" y="-175.5" font-family="Helvetica,sans-Serif" font-size="10.00">cpu.h</text>
</a>
</g>
</g>
<!-- Node1&#45;&gt;Node2 -->
<g id="edge1" class="edge">
<title>Node1&#45;&gt;Node2</title>
<path fill="none" stroke="midnightblue" d="M473.4,-280.47C476.8,-270.4 481.29,-256.47 484.5,-244 488.45,-228.66 491.91,-211.02 494.27,-197.99"/>
<polygon fill="midnightblue" stroke="midnightblue" points="497.76,-198.36 496.04,-187.9 490.86,-197.15 497.76,-198.36"/>
</g>
<!-- Node3 -->
<g id="node3" class="node">
<title>Node3</title>
<g id="a_node3"><a xlink:href="boards_2sensebox__samd21_2include_2periph__conf_8h.html" target="_top" xlink:title="Configuration of CPU peripherals for SenseBox MCU with SAMD21.">
<polygon fill="none" stroke="black" points="393.5,-224.5 393.5,-243.5 475.5,-243.5 475.5,-224.5 393.5,-224.5"/>
<text text-anchor="middle" x="434.5" y="-231.5" font-family="Helvetica,sans-Serif" font-size="10.00">periph_conf.h</text>
</a>
</g>
</g>
<!-- Node1&#45;&gt;Node3 -->
<g id="edge2" class="edge">
<title>Node1&#45;&gt;Node3</title>
<path fill="none" stroke="midnightblue" d="M460.44,-280.4C455.65,-272.02 449.54,-261.33 444.46,-252.42"/>
<polygon fill="midnightblue" stroke="midnightblue" points="447.45,-250.6 439.45,-243.66 441.37,-254.08 447.45,-250.6"/>
</g>
<!-- Node5 -->
<g id="node5" class="node">
<title>Node5</title>
<g id="a_node5"><a xlink:title=" ">
<polygon fill="none" stroke="#bfbfbf" points="349,-0.5 349,-19.5 428,-19.5 428,-0.5 349,-0.5"/>
<text text-anchor="middle" x="388.5" y="-7.5" font-family="Helvetica,sans-Serif" font-size="10.00">periph_cpu.h</text>
</a>
</g>
</g>
<!-- Node1&#45;&gt;Node5 -->
<g id="edge6" class="edge">
<title>Node1&#45;&gt;Node5</title>
<path fill="none" stroke="midnightblue" d="M486.82,-280.24C510.16,-260.32 547.5,-221.76 547.5,-179 547.5,-179 547.5,-179 547.5,-121 547.5,-66.32 483.11,-36.68 436.28,-22.36"/>
<polygon fill="midnightblue" stroke="midnightblue" points="437.16,-18.98 426.58,-19.54 435.21,-25.7 437.16,-18.98"/>
</g>
<!-- Node6 -->
<g id="node6" class="node">
<title>Node6</title>
<g id="a_node6"><a xlink:href="mtd__sdcard_8h.html" target="_top" xlink:title="Interface definition for mtd_sdcard driver.">
<polygon fill="none" stroke="black" points="117,-224.5 117,-243.5 200,-243.5 200,-224.5 117,-224.5"/>
<text text-anchor="middle" x="158.5" y="-231.5" font-family="Helvetica,sans-Serif" font-size="10.00">mtd_sdcard.h</text>
</a>
</g>
</g>
<!-- Node1&#45;&gt;Node6 -->
<g id="edge7" class="edge">
<title>Node1&#45;&gt;Node6</title>
<path fill="none" stroke="midnightblue" d="M396.99,-280.77C339.83,-269.8 261.07,-254.69 209.97,-244.88"/>
<polygon fill="midnightblue" stroke="midnightblue" points="210.61,-241.44 200.13,-242.99 209.29,-248.31 210.61,-241.44"/>
</g>
<!-- Node3&#45;&gt;Node2 -->
<g id="edge4" class="edge">
<title>Node3&#45;&gt;Node2</title>
<path fill="none" stroke="midnightblue" d="M444.62,-224.32C454.03,-216.26 468.24,-204.08 479.57,-194.37"/>
<polygon fill="midnightblue" stroke="midnightblue" points="481.88,-197 487.19,-187.83 477.32,-191.68 481.88,-197"/>
</g>
<!-- Node4 -->
<g id="node4" class="node">
<title>Node4</title>
<g id="a_node4"><a xlink:title=" ">
<polygon fill="none" stroke="#bfbfbf" points="0,-56.5 0,-75.5 53,-75.5 53,-56.5 0,-56.5"/>
<text text-anchor="middle" x="26.5" y="-63.5" font-family="Helvetica,sans-Serif" font-size="10.00">stdint.h</text>
</a>
</g>
</g>
<!-- Node3&#45;&gt;Node4 -->
<g id="edge3" class="edge">
<title>Node3&#45;&gt;Node4</title>
<path fill="none" stroke="midnightblue" d="M393.12,-231.8C341.3,-228.96 250.81,-219.46 180.5,-188 165.27,-181.19 82.88,-113.7 45.25,-82.58"/>
<polygon fill="midnightblue" stroke="midnightblue" points="47.06,-79.53 37.13,-75.84 42.59,-84.92 47.06,-79.53"/>
</g>
<!-- Node3&#45;&gt;Node5 -->
<g id="edge5" class="edge">
<title>Node3&#45;&gt;Node5</title>
<path fill="none" stroke="midnightblue" d="M436.17,-224.48C440.93,-198.19 452.69,-116.53 428.5,-56 423.97,-44.67 415.26,-34.32 407.12,-26.41"/>
<polygon fill="midnightblue" stroke="midnightblue" points="409.4,-23.75 399.64,-19.62 404.69,-28.93 409.4,-23.75"/>
</g>
<!-- Node6&#45;&gt;Node4 -->
<g id="edge8" class="edge">
<title>Node6&#45;&gt;Node4</title>
<path fill="none" stroke="midnightblue" d="M149.34,-224.4C140.15,-215.59 125.78,-201.35 114.5,-188 106.45,-178.47 60.92,-115.09 38.7,-84.06"/>
<polygon fill="midnightblue" stroke="midnightblue" points="41.28,-81.66 32.62,-75.56 35.59,-85.73 41.28,-81.66"/>
</g>
<!-- Node7 -->
<g id="node7" class="node">
<title>Node7</title>
<g id="a_node7"><a xlink:href="sdcard__spi_8h.html" target="_top" xlink:title="Public interface for the sdcard_spi driver.">
<polygon fill="none" stroke="black" points="190,-168.5 190,-187.5 267,-187.5 267,-168.5 190,-168.5"/>
<text text-anchor="middle" x="228.5" y="-175.5" font-family="Helvetica,sans-Serif" font-size="10.00">sdcard_spi.h</text>
</a>
</g>
</g>
<!-- Node6&#45;&gt;Node7 -->
<g id="edge9" class="edge">
<title>Node6&#45;&gt;Node7</title>
<path fill="none" stroke="midnightblue" d="M169.75,-224.32C180.3,-216.18 196.3,-203.84 208.94,-194.09"/>
<polygon fill="midnightblue" stroke="midnightblue" points="211.27,-196.71 217.05,-187.83 206.99,-191.17 211.27,-196.71"/>
</g>
<!-- Node14 -->
<g id="node14" class="node">
<title>Node14</title>
<g id="a_node14"><a xlink:href="mtd_8h.html" target="_top" xlink:title=" ">
<polygon fill="none" stroke="black" points="5,-112.5 5,-131.5 50,-131.5 50,-112.5 5,-112.5"/>
<text text-anchor="middle" x="27.5" y="-119.5" font-family="Helvetica,sans-Serif" font-size="10.00">mtd.h</text>
</a>
</g>
</g>
<!-- Node6&#45;&gt;Node14 -->
<g id="edge23" class="edge">
<title>Node6&#45;&gt;Node14</title>
<path fill="none" stroke="midnightblue" d="M135.1,-224.39C116.66,-216.8 91.06,-204.4 72.5,-188 57.27,-174.54 44.61,-154.91 36.63,-140.75"/>
<polygon fill="midnightblue" stroke="midnightblue" points="39.51,-138.71 31.69,-131.56 33.35,-142.03 39.51,-138.71"/>
</g>
<!-- Node8 -->
<g id="node8" class="node">
<title>Node8</title>
<g id="a_node8"><a xlink:href="spi_8h.html" target="_top" xlink:title="Low&#45;level SPI peripheral driver interface definition.">
<polygon fill="none" stroke="black" points="157.5,-112.5 157.5,-131.5 231.5,-131.5 231.5,-112.5 157.5,-112.5"/>
<text text-anchor="middle" x="194.5" y="-119.5" font-family="Helvetica,sans-Serif" font-size="10.00">periph/spi.h</text>
</a>
</g>
</g>
<!-- Node7&#45;&gt;Node8 -->
<g id="edge10" class="edge">
<title>Node7&#45;&gt;Node8</title>
<path fill="none" stroke="midnightblue" d="M222.89,-168.08C218.13,-160.53 211.18,-149.49 205.35,-140.23"/>
<polygon fill="midnightblue" stroke="midnightblue" points="208.3,-138.35 200.01,-131.75 202.38,-142.08 208.3,-138.35"/>
</g>
<!-- Node9 -->
<g id="node9" class="node">
<title>Node9</title>
<g id="a_node9"><a xlink:title=" ">
<polygon fill="none" stroke="#bfbfbf" points="357.5,-56.5 357.5,-75.5 419.5,-75.5 419.5,-56.5 357.5,-56.5"/>
<text text-anchor="middle" x="388.5" y="-63.5" font-family="Helvetica,sans-Serif" font-size="10.00">stdbool.h</text>
</a>
</g>
</g>
<!-- Node7&#45;&gt;Node9 -->
<g id="edge22" class="edge">
<title>Node7&#45;&gt;Node9</title>
<path fill="none" stroke="midnightblue" d="M241.05,-168.37C268.39,-149.57 333.56,-104.77 367.36,-81.53"/>
<polygon fill="midnightblue" stroke="midnightblue" points="369.75,-84.14 376,-75.59 365.78,-78.37 369.75,-84.14"/>
</g>
<!-- Node13 -->
<g id="node13" class="node">
<title>Node13</title>
<g id="a_node13"><a xlink:href="gpio_8h.html" target="_top" xlink:title="Low&#45;level GPIO peripheral driver interface definitions.">
<polygon fill="none" stroke="black" points="221.5,-56.5 221.5,-75.5 301.5,-75.5 301.5,-56.5 221.5,-56.5"/>
<text text-anchor="middle" x="261.5" y="-63.5" font-family="Helvetica,sans-Serif" font-size="10.00">periph/gpio.h</text>
</a>
</g>
</g>
<!-- Node7&#45;&gt;Node13 -->
<g id="edge21" class="edge">
<title>Node7&#45;&gt;Node13</title>
<path fill="none" stroke="midnightblue" d="M231.09,-168.37C236.44,-150.54 248.81,-109.3 256.02,-85.27"/>
<polygon fill="midnightblue" stroke="midnightblue" points="259.4,-86.18 258.92,-75.59 252.7,-84.16 259.4,-86.18"/>
</g>
<!-- Node8&#45;&gt;Node4 -->
<g id="edge13" class="edge">
<title>Node8&#45;&gt;Node4</title>
<path fill="none" stroke="midnightblue" d="M167.88,-112.44C139.49,-103.32 94.36,-88.81 62.75,-78.65"/>
<polygon fill="midnightblue" stroke="midnightblue" points="63.59,-75.24 53,-75.52 61.44,-81.91 63.59,-75.24"/>
</g>
<!-- Node8&#45;&gt;Node5 -->
<g id="edge15" class="edge">
<title>Node8&#45;&gt;Node5</title>
<path fill="none" stroke="midnightblue" d="M224.31,-112.4C248.49,-104.73 282.96,-92.23 310.5,-76 334.08,-62.11 357.75,-41.16 372.72,-26.82"/>
<polygon fill="midnightblue" stroke="midnightblue" points="375.38,-29.12 380.09,-19.63 370.49,-24.11 375.38,-29.12"/>
</g>
<!-- Node8&#45;&gt;Node9 -->
<g id="edge11" class="edge">
<title>Node8&#45;&gt;Node9</title>
<path fill="none" stroke="midnightblue" d="M225.24,-112.44C258.44,-103.2 311.49,-88.44 348.06,-78.26"/>
<polygon fill="midnightblue" stroke="midnightblue" points="349.21,-81.57 357.9,-75.52 347.33,-74.83 349.21,-81.57"/>
</g>
<!-- Node10 -->
<g id="node10" class="node">
<title>Node10</title>
<g id="a_node10"><a xlink:title=" ">
<polygon fill="none" stroke="#bfbfbf" points="109.5,-56.5 109.5,-75.5 165.5,-75.5 165.5,-56.5 109.5,-56.5"/>
<text text-anchor="middle" x="137.5" y="-63.5" font-family="Helvetica,sans-Serif" font-size="10.00">stddef.h</text>
</a>
</g>
</g>
<!-- Node8&#45;&gt;Node10 -->
<g id="edge12" class="edge">
<title>Node8&#45;&gt;Node10</title>
<path fill="none" stroke="midnightblue" d="M185.34,-112.32C177,-104.42 164.47,-92.55 154.32,-82.94"/>
<polygon fill="midnightblue" stroke="midnightblue" points="156.49,-80.17 146.82,-75.83 151.68,-85.25 156.49,-80.17"/>
</g>
<!-- Node11 -->
<g id="node11" class="node">
<title>Node11</title>
<g id="a_node11"><a xlink:title=" ">
<polygon fill="none" stroke="#bfbfbf" points="102,-0.5 102,-19.5 155,-19.5 155,-0.5 102,-0.5"/>
<text text-anchor="middle" x="128.5" y="-7.5" font-family="Helvetica,sans-Serif" font-size="10.00">limits.h</text>
</a>
</g>
</g>
<!-- Node8&#45;&gt;Node11 -->
<g id="edge14" class="edge">
<title>Node8&#45;&gt;Node11</title>
<path fill="none" stroke="midnightblue" d="M157.24,-113.34C136.71,-107.02 112.94,-95.75 100.5,-76 90.74,-60.5 101.84,-41.02 112.81,-27.44"/>
<polygon fill="midnightblue" stroke="midnightblue" points="115.51,-29.67 119.44,-19.84 110.23,-25.07 115.51,-29.67"/>
</g>
<!-- Node12 -->
<g id="node12" class="node">
<title>Node12</title>
<g id="a_node12"><a xlink:title=" ">
<polygon fill="none" stroke="#bfbfbf" points="186.5,-0.5 186.5,-19.5 268.5,-19.5 268.5,-0.5 186.5,-0.5"/>
<text text-anchor="middle" x="227.5" y="-7.5" font-family="Helvetica,sans-Serif" font-size="10.00">periph_conf.h</text>
</a>
</g>
</g>
<!-- Node8&#45;&gt;Node12 -->
<g id="edge16" class="edge">
<title>Node8&#45;&gt;Node12</title>
<path fill="none" stroke="midnightblue" d="M196.8,-112.13C200.09,-99.57 206.42,-75.94 212.5,-56 215.21,-47.13 218.43,-37.35 221.2,-29.18"/>
<polygon fill="midnightblue" stroke="midnightblue" points="224.56,-30.18 224.49,-19.58 217.94,-27.91 224.56,-30.18"/>
</g>
<!-- Node8&#45;&gt;Node13 -->
<g id="edge17" class="edge">
<title>Node8&#45;&gt;Node13</title>
<path fill="none" stroke="midnightblue" d="M205.26,-112.32C215.27,-104.26 230.39,-92.08 242.43,-82.37"/>
<polygon fill="midnightblue" stroke="midnightblue" points="244.95,-84.83 250.54,-75.83 240.56,-79.38 244.95,-84.83"/>
</g>
<!-- Node13&#45;&gt;Node5 -->
<g id="edge19" class="edge">
<title>Node13&#45;&gt;Node5</title>
<path fill="none" stroke="midnightblue" d="M281.62,-56.44C302.52,-47.56 335.43,-33.56 359.22,-23.45"/>
<polygon fill="midnightblue" stroke="midnightblue" points="360.64,-26.65 368.47,-19.52 357.9,-20.21 360.64,-26.65"/>
</g>
<!-- Node13&#45;&gt;Node11 -->
<g id="edge18" class="edge">
<title>Node13&#45;&gt;Node11</title>
<path fill="none" stroke="midnightblue" d="M240.43,-56.44C218.44,-47.52 183.77,-33.44 158.84,-23.32"/>
<polygon fill="midnightblue" stroke="midnightblue" points="160.06,-20.04 149.48,-19.52 157.42,-26.52 160.06,-20.04"/>
</g>
<!-- Node13&#45;&gt;Node12 -->
<g id="edge20" class="edge">
<title>Node13&#45;&gt;Node12</title>
<path fill="none" stroke="midnightblue" d="M255.89,-56.08C251.13,-48.53 244.18,-37.49 238.35,-28.23"/>
<polygon fill="midnightblue" stroke="midnightblue" points="241.3,-26.35 233.01,-19.75 235.38,-30.08 241.3,-26.35"/>
</g>
<!-- Node14&#45;&gt;Node4 -->
<g id="edge24" class="edge">
<title>Node14&#45;&gt;Node4</title>
<path fill="none" stroke="midnightblue" d="M27.33,-112.08C27.2,-105.01 27.02,-94.86 26.85,-85.99"/>
<polygon fill="midnightblue" stroke="midnightblue" points="30.35,-85.68 26.66,-75.75 23.35,-85.81 30.35,-85.68"/>
</g>
</g>
</svg>
