<?xml version="1.0" encoding="UTF-8" standalone="no"?>
<!DOCTYPE svg PUBLIC "-//W3C//DTD SVG 1.1//EN"
 "http://www.w3.org/Graphics/SVG/1.1/DTD/svg11.dtd">
<!-- Generated by graphviz version 2.43.0 (0)
 -->
<!-- Title: sys/include/seq.h Pages: 1 -->
<svg width="130pt" height="84pt"
 viewBox="0.00 0.00 130.00 84.00" xmlns="http://www.w3.org/2000/svg" xmlns:xlink="http://www.w3.org/1999/xlink">
<g id="graph0" class="graph" transform="scale(1 1) rotate(0) translate(4 80)">
<title>sys/include/seq.h</title>
<!-- Node1 -->
<g id="node1" class="node">
<title>Node1</title>
<g id="a_node1"><a xlink:title="Serial Number Arithmetic (RFC 1982)">
<polygon fill="#bfbfbf" stroke="black" points="11,-56.5 11,-75.5 112,-75.5 112,-56.5 11,-56.5"/>
<text text-anchor="middle" x="61.5" y="-63.5" font-family="Helvetica,sans-Serif" font-size="10.00">sys/include/seq.h</text>
</a>
</g>
</g>
<!-- Node2 -->
<g id="node2" class="node">
<title>Node2</title>
<g id="a_node2"><a xlink:title=" ">
<polygon fill="none" stroke="#bfbfbf" points="0,-0.5 0,-19.5 53,-19.5 53,-0.5 0,-0.5"/>
<text text-anchor="middle" x="26.5" y="-7.5" font-family="Helvetica,sans-Serif" font-size="10.00">stdint.h</text>
</a>
</g>
</g>
<!-- Node1&#45;&gt;Node2 -->
<g id="edge1" class="edge">
<title>Node1&#45;&gt;Node2</title>
<path fill="none" stroke="midnightblue" d="M55.72,-56.08C50.83,-48.53 43.67,-37.49 37.67,-28.23"/>
<polygon fill="midnightblue" stroke="midnightblue" points="40.55,-26.24 32.17,-19.75 34.67,-30.05 40.55,-26.24"/>
</g>
<!-- Node3 -->
<g id="node3" class="node">
<title>Node3</title>
<g id="a_node3"><a xlink:href="errno_8h.html" target="_top" xlink:title=" ">
<polygon fill="none" stroke="black" points="71,-0.5 71,-19.5 122,-19.5 122,-0.5 71,-0.5"/>
<text text-anchor="middle" x="96.5" y="-7.5" font-family="Helvetica,sans-Serif" font-size="10.00">errno.h</text>
</a>
</g>
</g>
<!-- Node1&#45;&gt;Node3 -->
<g id="edge2" class="edge">
<title>Node1&#45;&gt;Node3</title>
<path fill="none" stroke="midnightblue" d="M67.28,-56.08C72.17,-48.53 79.33,-37.49 85.33,-28.23"/>
<polygon fill="midnightblue" stroke="midnightblue" points="88.33,-30.05 90.83,-19.75 82.45,-26.24 88.33,-30.05"/>
</g>
</g>
</svg>
