<?xml version="1.0" encoding="UTF-8" standalone="no"?>
<!DOCTYPE svg PUBLIC "-//W3C//DTD SVG 1.1//EN"
 "http://www.w3.org/Graphics/SVG/1.1/DTD/svg11.dtd">
<!-- Generated by graphviz version 2.43.0 (0)
 -->
<!-- Title: boards/serpente/include/gpio_params.h Pages: 1 -->
<svg width="463pt" height="207pt"
 viewBox="0.00 0.00 462.50 207.00" xmlns="http://www.w3.org/2000/svg" xmlns:xlink="http://www.w3.org/1999/xlink">
<g id="graph0" class="graph" transform="scale(1 1) rotate(0) translate(4 203)">
<title>boards/serpente/include/gpio_params.h</title>
<!-- Node1 -->
<g id="node1" class="node">
<title>Node1</title>
<g id="a_node1"><a xlink:title="Board specific configuration of direct mapped GPIOs.">
<polygon fill="#bfbfbf" stroke="black" points="90.5,-168.5 90.5,-198.5 224.5,-198.5 224.5,-168.5 90.5,-168.5"/>
<text text-anchor="start" x="98.5" y="-186.5" font-family="Helvetica,sans-Serif" font-size="10.00">boards/serpente/include</text>
<text text-anchor="middle" x="157.5" y="-175.5" font-family="Helvetica,sans-Serif" font-size="10.00">/gpio_params.h</text>
</a>
</g>
</g>
<!-- Node2 -->
<g id="node2" class="node">
<title>Node2</title>
<g id="a_node2"><a xlink:href="serpente_2include_2board_8h.html" target="_top" xlink:title="Support for the Serpente board.">
<polygon fill="none" stroke="black" points="89,-112.5 89,-131.5 142,-131.5 142,-112.5 89,-112.5"/>
<text text-anchor="middle" x="115.5" y="-119.5" font-family="Helvetica,sans-Serif" font-size="10.00">board.h</text>
</a>
</g>
</g>
<!-- Node1&#45;&gt;Node2 -->
<g id="edge1" class="edge">
<title>Node1&#45;&gt;Node2</title>
<path fill="none" stroke="midnightblue" d="M147.55,-168.4C141.51,-159.84 133.76,-148.87 127.4,-139.86"/>
<polygon fill="midnightblue" stroke="midnightblue" points="130.24,-137.81 121.61,-131.66 124.52,-141.85 130.24,-137.81"/>
</g>
<!-- Node8 -->
<g id="node8" class="node">
<title>Node8</title>
<g id="a_node8"><a xlink:href="periph_8h.html" target="_top" xlink:title="Parameter definitions for mapping peripherals directly to SAUL.">
<polygon fill="none" stroke="black" points="198.5,-112.5 198.5,-131.5 278.5,-131.5 278.5,-112.5 198.5,-112.5"/>
<text text-anchor="middle" x="238.5" y="-119.5" font-family="Helvetica,sans-Serif" font-size="10.00">saul/periph.h</text>
</a>
</g>
</g>
<!-- Node1&#45;&gt;Node8 -->
<g id="edge8" class="edge">
<title>Node1&#45;&gt;Node8</title>
<path fill="none" stroke="midnightblue" d="M176.7,-168.4C189.32,-159.13 205.79,-147.03 218.56,-137.65"/>
<polygon fill="midnightblue" stroke="midnightblue" points="220.73,-140.4 226.71,-131.66 216.58,-134.76 220.73,-140.4"/>
</g>
<!-- Node3 -->
<g id="node3" class="node">
<title>Node3</title>
<g id="a_node3"><a xlink:title=" ">
<polygon fill="none" stroke="#bfbfbf" points="0,-0.5 0,-19.5 43,-19.5 43,-0.5 0,-0.5"/>
<text text-anchor="middle" x="21.5" y="-7.5" font-family="Helvetica,sans-Serif" font-size="10.00">cpu.h</text>
</a>
</g>
</g>
<!-- Node2&#45;&gt;Node3 -->
<g id="edge2" class="edge">
<title>Node2&#45;&gt;Node3</title>
<path fill="none" stroke="midnightblue" d="M88.95,-118.4C62.75,-114.27 24.02,-103.58 5.5,-76 -3.99,-61.87 2.62,-42.63 10.01,-28.76"/>
<polygon fill="midnightblue" stroke="midnightblue" points="13.25,-30.15 15.31,-19.75 7.22,-26.59 13.25,-30.15"/>
</g>
<!-- Node4 -->
<g id="node4" class="node">
<title>Node4</title>
<g id="a_node4"><a xlink:href="boards_2serpente_2include_2periph__conf_8h.html" target="_top" xlink:title="Configuration of CPU peripherals for the Serpente board.">
<polygon fill="none" stroke="black" points="14.5,-56.5 14.5,-75.5 96.5,-75.5 96.5,-56.5 14.5,-56.5"/>
<text text-anchor="middle" x="55.5" y="-63.5" font-family="Helvetica,sans-Serif" font-size="10.00">periph_conf.h</text>
</a>
</g>
</g>
<!-- Node2&#45;&gt;Node4 -->
<g id="edge3" class="edge">
<title>Node2&#45;&gt;Node4</title>
<path fill="none" stroke="midnightblue" d="M105.86,-112.32C96.99,-104.34 83.63,-92.31 72.89,-82.65"/>
<polygon fill="midnightblue" stroke="midnightblue" points="75.09,-79.92 65.32,-75.83 70.41,-85.13 75.09,-79.92"/>
</g>
<!-- Node7 -->
<g id="node7" class="node">
<title>Node7</title>
<g id="a_node7"><a xlink:title=" ">
<polygon fill="none" stroke="#bfbfbf" points="115,-56.5 115,-75.5 160,-75.5 160,-56.5 115,-56.5"/>
<text text-anchor="middle" x="137.5" y="-63.5" font-family="Helvetica,sans-Serif" font-size="10.00">mtd.h</text>
</a>
</g>
</g>
<!-- Node2&#45;&gt;Node7 -->
<g id="edge7" class="edge">
<title>Node2&#45;&gt;Node7</title>
<path fill="none" stroke="midnightblue" d="M119.13,-112.08C122.11,-104.77 126.43,-94.18 130.12,-85.1"/>
<polygon fill="midnightblue" stroke="midnightblue" points="133.4,-86.33 133.93,-75.75 126.92,-83.69 133.4,-86.33"/>
</g>
<!-- Node4&#45;&gt;Node3 -->
<g id="edge5" class="edge">
<title>Node4&#45;&gt;Node3</title>
<path fill="none" stroke="midnightblue" d="M49.89,-56.08C45.13,-48.53 38.18,-37.49 32.35,-28.23"/>
<polygon fill="midnightblue" stroke="midnightblue" points="35.3,-26.35 27.01,-19.75 29.38,-30.08 35.3,-26.35"/>
</g>
<!-- Node5 -->
<g id="node5" class="node">
<title>Node5</title>
<g id="a_node5"><a xlink:title=" ">
<polygon fill="none" stroke="#bfbfbf" points="106,-0.5 106,-19.5 159,-19.5 159,-0.5 106,-0.5"/>
<text text-anchor="middle" x="132.5" y="-7.5" font-family="Helvetica,sans-Serif" font-size="10.00">stdint.h</text>
</a>
</g>
</g>
<!-- Node4&#45;&gt;Node5 -->
<g id="edge4" class="edge">
<title>Node4&#45;&gt;Node5</title>
<path fill="none" stroke="midnightblue" d="M67.87,-56.32C79.66,-48.06 97.63,-35.45 111.64,-25.63"/>
<polygon fill="midnightblue" stroke="midnightblue" points="113.98,-28.26 120.16,-19.65 109.96,-22.53 113.98,-28.26"/>
</g>
<!-- Node6 -->
<g id="node6" class="node">
<title>Node6</title>
<g id="a_node6"><a xlink:title=" ">
<polygon fill="none" stroke="#bfbfbf" points="177,-0.5 177,-19.5 256,-19.5 256,-0.5 177,-0.5"/>
<text text-anchor="middle" x="216.5" y="-7.5" font-family="Helvetica,sans-Serif" font-size="10.00">periph_cpu.h</text>
</a>
</g>
</g>
<!-- Node4&#45;&gt;Node6 -->
<g id="edge6" class="edge">
<title>Node4&#45;&gt;Node6</title>
<path fill="none" stroke="midnightblue" d="M81.01,-56.44C108.1,-47.36 151.09,-32.94 181.37,-22.78"/>
<polygon fill="midnightblue" stroke="midnightblue" points="182.74,-26.01 191.11,-19.52 180.51,-19.38 182.74,-26.01"/>
</g>
<!-- Node9 -->
<g id="node9" class="node">
<title>Node9</title>
<g id="a_node9"><a xlink:href="gpio_8h.html" target="_top" xlink:title="Low&#45;level GPIO peripheral driver interface definitions.">
<polygon fill="none" stroke="black" points="374.5,-56.5 374.5,-75.5 454.5,-75.5 454.5,-56.5 374.5,-56.5"/>
<text text-anchor="middle" x="414.5" y="-63.5" font-family="Helvetica,sans-Serif" font-size="10.00">periph/gpio.h</text>
</a>
</g>
</g>
<!-- Node8&#45;&gt;Node9 -->
<g id="edge9" class="edge">
<title>Node8&#45;&gt;Node9</title>
<path fill="none" stroke="midnightblue" d="M266.39,-112.44C296.25,-103.28 343.81,-88.69 376.96,-78.52"/>
<polygon fill="midnightblue" stroke="midnightblue" points="378.21,-81.8 386.74,-75.52 376.16,-75.1 378.21,-81.8"/>
</g>
<!-- Node12 -->
<g id="node12" class="node">
<title>Node12</title>
<g id="a_node12"><a xlink:href="adc_8h.html" target="_top" xlink:title="Low&#45;level ADC peripheral driver interface definitions.">
<polygon fill="none" stroke="black" points="178,-56.5 178,-75.5 255,-75.5 255,-56.5 178,-56.5"/>
<text text-anchor="middle" x="216.5" y="-63.5" font-family="Helvetica,sans-Serif" font-size="10.00">periph/adc.h</text>
</a>
</g>
</g>
<!-- Node8&#45;&gt;Node12 -->
<g id="edge13" class="edge">
<title>Node8&#45;&gt;Node12</title>
<path fill="none" stroke="midnightblue" d="M234.87,-112.08C231.89,-104.77 227.57,-94.18 223.88,-85.1"/>
<polygon fill="midnightblue" stroke="midnightblue" points="227.08,-83.69 220.07,-75.75 220.6,-86.33 227.08,-83.69"/>
</g>
<!-- Node13 -->
<g id="node13" class="node">
<title>Node13</title>
<g id="a_node13"><a xlink:href="pwm_8h.html" target="_top" xlink:title="Low&#45;level PWM peripheral driver interface definitions.">
<polygon fill="none" stroke="black" points="273,-56.5 273,-75.5 356,-75.5 356,-56.5 273,-56.5"/>
<text text-anchor="middle" x="314.5" y="-63.5" font-family="Helvetica,sans-Serif" font-size="10.00">periph/pwm.h</text>
</a>
</g>
</g>
<!-- Node8&#45;&gt;Node13 -->
<g id="edge18" class="edge">
<title>Node8&#45;&gt;Node13</title>
<path fill="none" stroke="midnightblue" d="M250.71,-112.32C262.28,-104.11 279.88,-91.6 293.66,-81.81"/>
<polygon fill="midnightblue" stroke="midnightblue" points="295.94,-84.48 302.07,-75.83 291.89,-78.77 295.94,-84.48"/>
</g>
<!-- Node9&#45;&gt;Node6 -->
<g id="edge11" class="edge">
<title>Node9&#45;&gt;Node6</title>
<path fill="none" stroke="midnightblue" d="M383.13,-56.44C349.24,-47.2 295.1,-32.44 257.78,-22.26"/>
<polygon fill="midnightblue" stroke="midnightblue" points="258.3,-18.77 247.73,-19.52 256.45,-25.52 258.3,-18.77"/>
</g>
<!-- Node10 -->
<g id="node10" class="node">
<title>Node10</title>
<g id="a_node10"><a xlink:title=" ">
<polygon fill="none" stroke="#bfbfbf" points="375,-0.5 375,-19.5 428,-19.5 428,-0.5 375,-0.5"/>
<text text-anchor="middle" x="401.5" y="-7.5" font-family="Helvetica,sans-Serif" font-size="10.00">limits.h</text>
</a>
</g>
</g>
<!-- Node9&#45;&gt;Node10 -->
<g id="edge10" class="edge">
<title>Node9&#45;&gt;Node10</title>
<path fill="none" stroke="midnightblue" d="M412.35,-56.08C410.63,-48.93 408.15,-38.64 406,-29.69"/>
<polygon fill="midnightblue" stroke="midnightblue" points="409.35,-28.65 403.61,-19.75 402.54,-30.29 409.35,-28.65"/>
</g>
<!-- Node11 -->
<g id="node11" class="node">
<title>Node11</title>
<g id="a_node11"><a xlink:title=" ">
<polygon fill="none" stroke="#bfbfbf" points="274.5,-0.5 274.5,-19.5 356.5,-19.5 356.5,-0.5 274.5,-0.5"/>
<text text-anchor="middle" x="315.5" y="-7.5" font-family="Helvetica,sans-Serif" font-size="10.00">periph_conf.h</text>
</a>
</g>
</g>
<!-- Node9&#45;&gt;Node11 -->
<g id="edge12" class="edge">
<title>Node9&#45;&gt;Node11</title>
<path fill="none" stroke="midnightblue" d="M398.59,-56.32C382.86,-47.74 358.56,-34.49 340.29,-24.52"/>
<polygon fill="midnightblue" stroke="midnightblue" points="341.82,-21.37 331.37,-19.65 338.47,-27.52 341.82,-21.37"/>
</g>
<!-- Node12&#45;&gt;Node5 -->
<g id="edge15" class="edge">
<title>Node12&#45;&gt;Node5</title>
<path fill="none" stroke="midnightblue" d="M203,-56.32C189.9,-47.9 169.79,-34.97 154.39,-25.07"/>
<polygon fill="midnightblue" stroke="midnightblue" points="156.27,-22.12 145.96,-19.65 152.48,-28.01 156.27,-22.12"/>
</g>
<!-- Node12&#45;&gt;Node6 -->
<g id="edge16" class="edge">
<title>Node12&#45;&gt;Node6</title>
<path fill="none" stroke="midnightblue" d="M216.5,-56.08C216.5,-49.01 216.5,-38.86 216.5,-29.99"/>
<polygon fill="midnightblue" stroke="midnightblue" points="220,-29.75 216.5,-19.75 213,-29.75 220,-29.75"/>
</g>
<!-- Node12&#45;&gt;Node10 -->
<g id="edge14" class="edge">
<title>Node12&#45;&gt;Node10</title>
<path fill="none" stroke="midnightblue" d="M245.81,-56.44C278.08,-47.02 330.01,-31.87 364.92,-21.68"/>
<polygon fill="midnightblue" stroke="midnightblue" points="366.11,-24.98 374.73,-18.82 364.15,-18.26 366.11,-24.98"/>
</g>
<!-- Node12&#45;&gt;Node11 -->
<g id="edge17" class="edge">
<title>Node12&#45;&gt;Node11</title>
<path fill="none" stroke="midnightblue" d="M232.41,-56.32C248.14,-47.74 272.44,-34.49 290.71,-24.52"/>
<polygon fill="midnightblue" stroke="midnightblue" points="292.53,-27.52 299.63,-19.65 289.18,-21.37 292.53,-27.52"/>
</g>
<!-- Node13&#45;&gt;Node5 -->
<g id="edge19" class="edge">
<title>Node13&#45;&gt;Node5</title>
<path fill="none" stroke="midnightblue" d="M285.66,-56.44C254.01,-47.05 203.13,-31.95 168.78,-21.77"/>
<polygon fill="midnightblue" stroke="midnightblue" points="169.71,-18.39 159.13,-18.9 167.72,-25.1 169.71,-18.39"/>
</g>
<!-- Node13&#45;&gt;Node6 -->
<g id="edge21" class="edge">
<title>Node13&#45;&gt;Node6</title>
<path fill="none" stroke="midnightblue" d="M298.75,-56.32C283.18,-47.74 259.12,-34.49 241.04,-24.52"/>
<polygon fill="midnightblue" stroke="midnightblue" points="242.65,-21.42 232.21,-19.65 239.28,-27.55 242.65,-21.42"/>
</g>
<!-- Node13&#45;&gt;Node10 -->
<g id="edge20" class="edge">
<title>Node13&#45;&gt;Node10</title>
<path fill="none" stroke="midnightblue" d="M328.48,-56.32C342.05,-47.9 362.88,-34.97 378.82,-25.07"/>
<polygon fill="midnightblue" stroke="midnightblue" points="380.91,-27.9 387.56,-19.65 377.21,-21.95 380.91,-27.9"/>
</g>
<!-- Node13&#45;&gt;Node11 -->
<g id="edge22" class="edge">
<title>Node13&#45;&gt;Node11</title>
<path fill="none" stroke="midnightblue" d="M314.67,-56.08C314.8,-49.01 314.98,-38.86 315.15,-29.99"/>
<polygon fill="midnightblue" stroke="midnightblue" points="318.65,-29.81 315.34,-19.75 311.65,-29.68 318.65,-29.81"/>
</g>
</g>
</svg>
