<?xml version="1.0" encoding="UTF-8" standalone="no"?>
<!DOCTYPE svg PUBLIC "-//W3C//DTD SVG 1.1//EN"
 "http://www.w3.org/Graphics/SVG/1.1/DTD/svg11.dtd">
<!-- Generated by graphviz version 2.40.1 (20161225.0304)
 -->
<!-- Title: boards/serpente/include/board.h Pages: 1 -->
<svg width="208pt" height="151pt"
 viewBox="0.00 0.00 207.50 151.00" xmlns="http://www.w3.org/2000/svg" xmlns:xlink="http://www.w3.org/1999/xlink">
<g id="graph0" class="graph" transform="scale(1 1) rotate(0) translate(4 147)">
<title>boards/serpente/include/board.h</title>
<!-- Node0 -->
<g id="node1" class="node">
<title>Node0</title>
<polygon fill="#bfbfbf" stroke="#000000" points="25.5,-112.5 25.5,-142.5 145.5,-142.5 145.5,-112.5 25.5,-112.5"/>
<text text-anchor="start" x="33.5" y="-130.5" font-family="Helvetica,sans-Serif" font-size="10.00" fill="#000000">boards/serpente/include</text>
<text text-anchor="middle" x="85.5" y="-119.5" font-family="Helvetica,sans-Serif" font-size="10.00" fill="#000000">/board.h</text>
</g>
<!-- Node1 -->
<g id="node2" class="node">
<title>Node1</title>
<polygon fill="none" stroke="#bfbfbf" points="0,-.5 0,-19.5 41,-19.5 41,-.5 0,-.5"/>
<text text-anchor="middle" x="20.5" y="-7.5" font-family="Helvetica,sans-Serif" font-size="10.00" fill="#000000">cpu.h</text>
</g>
<!-- Node0&#45;&gt;Node1 -->
<g id="edge1" class="edge">
<title>Node0&#45;&gt;Node1</title>
<path fill="none" stroke="#191970" d="M68.5155,-112.2676C58.78,-102.7092 47.0356,-89.6419 39.5,-76 31.5726,-61.6489 26.6797,-43.6739 23.8486,-30.108"/>
<polygon fill="#191970" stroke="#191970" points="27.2218,-29.1069 21.934,-19.9259 20.3423,-30.4005 27.2218,-29.1069"/>
</g>
<!-- Node2 -->
<g id="node3" class="node">
<title>Node2</title>
<g id="a_node3"><a xlink:href="boards_2serpente_2include_2periph__conf_8h.html" target="_top" xlink:title="Configuration of CPU peripherals for the Serpente board. ">
<polygon fill="none" stroke="#000000" points="48,-56.5 48,-75.5 123,-75.5 123,-56.5 48,-56.5"/>
<text text-anchor="middle" x="85.5" y="-63.5" font-family="Helvetica,sans-Serif" font-size="10.00" fill="#000000">periph_conf.h</text>
</a>
</g>
</g>
<!-- Node0&#45;&gt;Node2 -->
<g id="edge2" class="edge">
<title>Node0&#45;&gt;Node2</title>
<path fill="none" stroke="#191970" d="M85.5,-112.2977C85.5,-104.3834 85.5,-94.6043 85.5,-86.0759"/>
<polygon fill="#191970" stroke="#191970" points="89.0001,-85.8469 85.5,-75.8469 82.0001,-85.847 89.0001,-85.8469"/>
</g>
<!-- Node5 -->
<g id="node6" class="node">
<title>Node5</title>
<polygon fill="none" stroke="#bfbfbf" points="141,-56.5 141,-75.5 182,-75.5 182,-56.5 141,-56.5"/>
<text text-anchor="middle" x="161.5" y="-63.5" font-family="Helvetica,sans-Serif" font-size="10.00" fill="#000000">mtd.h</text>
</g>
<!-- Node0&#45;&gt;Node5 -->
<g id="edge6" class="edge">
<title>Node0&#45;&gt;Node5</title>
<path fill="none" stroke="#191970" d="M104.2865,-112.2977C115.6053,-103.1384 130.0105,-91.4816 141.5346,-82.1562"/>
<polygon fill="#191970" stroke="#191970" points="143.7595,-84.8583 149.3314,-75.8469 139.3561,-79.4167 143.7595,-84.8583"/>
</g>
<!-- Node2&#45;&gt;Node1 -->
<g id="edge4" class="edge">
<title>Node2&#45;&gt;Node1</title>
<path fill="none" stroke="#191970" d="M74.1779,-56.2455C64.5777,-47.9746 50.6108,-35.9416 39.3305,-26.2232"/>
<polygon fill="#191970" stroke="#191970" points="41.553,-23.5182 31.6924,-19.6427 36.984,-28.8214 41.553,-23.5182"/>
</g>
<!-- Node3 -->
<g id="node4" class="node">
<title>Node3</title>
<polygon fill="none" stroke="#bfbfbf" points="60,-.5 60,-19.5 109,-19.5 109,-.5 60,-.5"/>
<text text-anchor="middle" x="84.5" y="-7.5" font-family="Helvetica,sans-Serif" font-size="10.00" fill="#000000">stdint.h</text>
</g>
<!-- Node2&#45;&gt;Node3 -->
<g id="edge3" class="edge">
<title>Node2&#45;&gt;Node3</title>
<path fill="none" stroke="#191970" d="M85.3258,-56.2455C85.1953,-48.9382 85.0124,-38.6944 84.8519,-29.7046"/>
<polygon fill="#191970" stroke="#191970" points="88.3503,-29.5786 84.6722,-19.6427 81.3514,-29.7036 88.3503,-29.5786"/>
</g>
<!-- Node4 -->
<g id="node5" class="node">
<title>Node4</title>
<polygon fill="none" stroke="#bfbfbf" points="127.5,-.5 127.5,-19.5 199.5,-19.5 199.5,-.5 127.5,-.5"/>
<text text-anchor="middle" x="163.5" y="-7.5" font-family="Helvetica,sans-Serif" font-size="10.00" fill="#000000">periph_cpu.h</text>
</g>
<!-- Node2&#45;&gt;Node4 -->
<g id="edge5" class="edge">
<title>Node2&#45;&gt;Node4</title>
<path fill="none" stroke="#191970" d="M99.0866,-56.2455C110.8305,-47.814 128.0199,-35.4729 141.6882,-25.6598"/>
<polygon fill="#191970" stroke="#191970" points="143.9871,-28.3179 150.0691,-19.6427 139.9046,-22.6316 143.9871,-28.3179"/>
</g>
</g>
</svg>
