<?xml version="1.0" encoding="UTF-8" standalone="no"?>
<!DOCTYPE svg PUBLIC "-//W3C//DTD SVG 1.1//EN"
 "http://www.w3.org/Graphics/SVG/1.1/DTD/svg11.dtd">
<!-- Generated by graphviz version 2.43.0 (0)
 -->
<!-- Title: sys/include/net/sixlowpan/sfr.h Pages: 1 -->
<svg width="469pt" height="263pt"
 viewBox="0.00 0.00 469.00 263.00" xmlns="http://www.w3.org/2000/svg" xmlns:xlink="http://www.w3.org/1999/xlink">
<g id="graph0" class="graph" transform="scale(1 1) rotate(0) translate(4 259)">
<title>sys/include/net/sixlowpan/sfr.h</title>
<!-- Node1 -->
<g id="node1" class="node">
<title>Node1</title>
<g id="a_node1"><a xlink:title="6LoWPAN selective fragment recovery dispatch type and helper function definitions.">
<polygon fill="#bfbfbf" stroke="black" points="178.5,-224.5 178.5,-254.5 321.5,-254.5 321.5,-224.5 178.5,-224.5"/>
<text text-anchor="start" x="186.5" y="-242.5" font-family="Helvetica,sans-Serif" font-size="10.00">sys/include/net/sixlowpan</text>
<text text-anchor="middle" x="250" y="-231.5" font-family="Helvetica,sans-Serif" font-size="10.00">/sfr.h</text>
</a>
</g>
</g>
<!-- Node2 -->
<g id="node2" class="node">
<title>Node2</title>
<g id="a_node2"><a xlink:href="assert_8h.html" target="_top" xlink:title="POSIX.1&#45;2008 compliant version of the assert macro.">
<polygon fill="none" stroke="black" points="25,-168.5 25,-187.5 81,-187.5 81,-168.5 25,-168.5"/>
<text text-anchor="middle" x="53" y="-175.5" font-family="Helvetica,sans-Serif" font-size="10.00">assert.h</text>
</a>
</g>
</g>
<!-- Node1&#45;&gt;Node2 -->
<g id="edge1" class="edge">
<title>Node1&#45;&gt;Node2</title>
<path fill="none" stroke="midnightblue" d="M203.31,-224.4C169.02,-214.04 123.02,-200.15 90.97,-190.47"/>
<polygon fill="midnightblue" stroke="midnightblue" points="91.68,-187.03 81.09,-187.48 89.65,-193.73 91.68,-187.03"/>
</g>
<!-- Node6 -->
<g id="node6" class="node">
<title>Node6</title>
<g id="a_node6"><a xlink:title=" ">
<polygon fill="none" stroke="#bfbfbf" points="302.5,-0.5 302.5,-19.5 355.5,-19.5 355.5,-0.5 302.5,-0.5"/>
<text text-anchor="middle" x="329" y="-7.5" font-family="Helvetica,sans-Serif" font-size="10.00">stdint.h</text>
</a>
</g>
</g>
<!-- Node1&#45;&gt;Node6 -->
<g id="edge7" class="edge">
<title>Node1&#45;&gt;Node6</title>
<path fill="none" stroke="midnightblue" d="M291.15,-224.41C313.69,-215.7 341.53,-203.27 364,-188 417.99,-151.32 439.83,-138.39 459,-76 471.77,-34.44 408.47,-19.38 365.7,-13.97"/>
<polygon fill="midnightblue" stroke="midnightblue" points="365.93,-10.48 355.6,-12.82 365.14,-17.43 365.93,-10.48"/>
</g>
<!-- Node7 -->
<g id="node7" class="node">
<title>Node7</title>
<g id="a_node7"><a xlink:title=" ">
<polygon fill="none" stroke="#bfbfbf" points="182,-112.5 182,-131.5 244,-131.5 244,-112.5 182,-112.5"/>
<text text-anchor="middle" x="213" y="-119.5" font-family="Helvetica,sans-Serif" font-size="10.00">stdbool.h</text>
</a>
</g>
</g>
<!-- Node1&#45;&gt;Node7 -->
<g id="edge6" class="edge">
<title>Node1&#45;&gt;Node7</title>
<path fill="none" stroke="midnightblue" d="M244.74,-224.43C241.02,-214.34 236.02,-200.4 232,-188 226.96,-172.45 221.79,-154.61 218.12,-141.56"/>
<polygon fill="midnightblue" stroke="midnightblue" points="221.48,-140.58 215.42,-131.88 214.73,-142.45 221.48,-140.58"/>
</g>
<!-- Node8 -->
<g id="node8" class="node">
<title>Node8</title>
<g id="a_node8"><a xlink:href="bitfield_8h.html" target="_top" xlink:title="bitfields operations on bitfields of arbitrary length">
<polygon fill="none" stroke="black" points="125,-168.5 125,-187.5 185,-187.5 185,-168.5 125,-168.5"/>
<text text-anchor="middle" x="155" y="-175.5" font-family="Helvetica,sans-Serif" font-size="10.00">bitfield.h</text>
</a>
</g>
</g>
<!-- Node1&#45;&gt;Node8 -->
<g id="edge8" class="edge">
<title>Node1&#45;&gt;Node8</title>
<path fill="none" stroke="midnightblue" d="M227.49,-224.4C212.4,-214.95 192.61,-202.56 177.53,-193.11"/>
<polygon fill="midnightblue" stroke="midnightblue" points="179.16,-190 168.82,-187.66 175.44,-195.93 179.16,-190"/>
</g>
<!-- Node9 -->
<g id="node9" class="node">
<title>Node9</title>
<g id="a_node9"><a xlink:href="byteorder_8h.html" target="_top" xlink:title="Functions to work with different byte orders.">
<polygon fill="none" stroke="black" points="338.5,-112.5 338.5,-131.5 411.5,-131.5 411.5,-112.5 338.5,-112.5"/>
<text text-anchor="middle" x="375" y="-119.5" font-family="Helvetica,sans-Serif" font-size="10.00">byteorder.h</text>
</a>
</g>
</g>
<!-- Node1&#45;&gt;Node9 -->
<g id="edge12" class="edge">
<title>Node1&#45;&gt;Node9</title>
<path fill="none" stroke="midnightblue" d="M288.88,-224.3C307.41,-215.99 328.79,-203.96 344,-188 356.65,-174.73 364.98,-155.34 369.79,-141.19"/>
<polygon fill="midnightblue" stroke="midnightblue" points="373.15,-142.17 372.79,-131.58 366.46,-140.08 373.15,-142.17"/>
</g>
<!-- Node11 -->
<g id="node11" class="node">
<title>Node11</title>
<g id="a_node11"><a xlink:href="sixlowpan_8h.html" target="_top" xlink:title="6LoWPAN dispatch type and helper function definitions.">
<polygon fill="none" stroke="black" points="241,-168.5 241,-187.5 335,-187.5 335,-168.5 241,-168.5"/>
<text text-anchor="middle" x="288" y="-175.5" font-family="Helvetica,sans-Serif" font-size="10.00">net/sixlowpan.h</text>
</a>
</g>
</g>
<!-- Node1&#45;&gt;Node11 -->
<g id="edge16" class="edge">
<title>Node1&#45;&gt;Node11</title>
<path fill="none" stroke="midnightblue" d="M259.01,-224.4C264.41,-215.93 271.33,-205.1 277.05,-196.14"/>
<polygon fill="midnightblue" stroke="midnightblue" points="280.04,-197.97 282.47,-187.66 274.14,-194.2 280.04,-197.97"/>
</g>
<!-- Node3 -->
<g id="node3" class="node">
<title>Node3</title>
<g id="a_node3"><a xlink:href="panic_8h.html" target="_top" xlink:title="Crash handling header.">
<polygon fill="none" stroke="black" points="0,-112.5 0,-131.5 52,-131.5 52,-112.5 0,-112.5"/>
<text text-anchor="middle" x="26" y="-119.5" font-family="Helvetica,sans-Serif" font-size="10.00">panic.h</text>
</a>
</g>
</g>
<!-- Node2&#45;&gt;Node3 -->
<g id="edge2" class="edge">
<title>Node2&#45;&gt;Node3</title>
<path fill="none" stroke="midnightblue" d="M48.54,-168.08C44.85,-160.69 39.48,-149.95 34.91,-140.81"/>
<polygon fill="midnightblue" stroke="midnightblue" points="37.98,-139.13 30.38,-131.75 31.72,-142.26 37.98,-139.13"/>
</g>
<!-- Node4 -->
<g id="node4" class="node">
<title>Node4</title>
<g id="a_node4"><a xlink:href="kernel__defines_8h.html" target="_top" xlink:title="Common macros and compiler attributes/pragmas configuration.">
<polygon fill="none" stroke="black" points="146.5,-56.5 146.5,-75.5 243.5,-75.5 243.5,-56.5 146.5,-56.5"/>
<text text-anchor="middle" x="195" y="-63.5" font-family="Helvetica,sans-Serif" font-size="10.00">kernel_defines.h</text>
</a>
</g>
</g>
<!-- Node3&#45;&gt;Node4 -->
<g id="edge3" class="edge">
<title>Node3&#45;&gt;Node4</title>
<path fill="none" stroke="midnightblue" d="M52.04,-112.68C80.53,-103.58 126.41,-88.92 158.49,-78.67"/>
<polygon fill="midnightblue" stroke="midnightblue" points="159.92,-81.88 168.38,-75.51 157.79,-75.22 159.92,-81.88"/>
</g>
<!-- Node5 -->
<g id="node5" class="node">
<title>Node5</title>
<g id="a_node5"><a xlink:title=" ">
<polygon fill="none" stroke="#bfbfbf" points="90,-0.5 90,-19.5 146,-19.5 146,-0.5 90,-0.5"/>
<text text-anchor="middle" x="118" y="-7.5" font-family="Helvetica,sans-Serif" font-size="10.00">stddef.h</text>
</a>
</g>
</g>
<!-- Node4&#45;&gt;Node5 -->
<g id="edge4" class="edge">
<title>Node4&#45;&gt;Node5</title>
<path fill="none" stroke="midnightblue" d="M182.63,-56.32C170.84,-48.06 152.87,-35.45 138.86,-25.63"/>
<polygon fill="midnightblue" stroke="midnightblue" points="140.54,-22.53 130.34,-19.65 136.52,-28.26 140.54,-22.53"/>
</g>
<!-- Node4&#45;&gt;Node6 -->
<g id="edge5" class="edge">
<title>Node4&#45;&gt;Node6</title>
<path fill="none" stroke="midnightblue" d="M216.23,-56.44C238.38,-47.52 273.32,-33.44 298.44,-23.32"/>
<polygon fill="midnightblue" stroke="midnightblue" points="299.9,-26.5 307.87,-19.52 297.28,-20.01 299.9,-26.5"/>
</g>
<!-- Node8&#45;&gt;Node5 -->
<g id="edge11" class="edge">
<title>Node8&#45;&gt;Node5</title>
<path fill="none" stroke="midnightblue" d="M148.85,-168.36C137.31,-151.56 112.78,-112.88 104,-76 100.24,-60.23 104.82,-42.2 109.72,-29.13"/>
<polygon fill="midnightblue" stroke="midnightblue" points="112.97,-30.44 113.57,-19.86 106.5,-27.76 112.97,-30.44"/>
</g>
<!-- Node8&#45;&gt;Node6 -->
<g id="edge9" class="edge">
<title>Node8&#45;&gt;Node6</title>
<path fill="none" stroke="midnightblue" d="M155.15,-168.36C155.83,-154.8 159.01,-128.39 173,-112 198.05,-82.66 219.4,-96.64 252,-76 274.7,-61.63 297.87,-41.11 312.78,-26.99"/>
<polygon fill="midnightblue" stroke="midnightblue" points="315.39,-29.34 320.16,-19.88 310.53,-24.3 315.39,-29.34"/>
</g>
<!-- Node8&#45;&gt;Node7 -->
<g id="edge10" class="edge">
<title>Node8&#45;&gt;Node7</title>
<path fill="none" stroke="midnightblue" d="M164.32,-168.32C172.89,-160.34 185.81,-148.31 196.19,-138.65"/>
<polygon fill="midnightblue" stroke="midnightblue" points="198.58,-141.21 203.51,-131.83 193.81,-136.09 198.58,-141.21"/>
</g>
<!-- Node9&#45;&gt;Node6 -->
<g id="edge13" class="edge">
<title>Node9&#45;&gt;Node6</title>
<path fill="none" stroke="midnightblue" d="M371.39,-112.37C363.9,-94.46 346.53,-52.92 336.51,-28.95"/>
<polygon fill="midnightblue" stroke="midnightblue" points="339.68,-27.47 332.59,-19.59 333.22,-30.17 339.68,-27.47"/>
</g>
<!-- Node10 -->
<g id="node10" class="node">
<title>Node10</title>
<g id="a_node10"><a xlink:href="unaligned_8h.html" target="_top" xlink:title="Unaligned but safe memory access functions.">
<polygon fill="none" stroke="black" points="376,-56.5 376,-75.5 450,-75.5 450,-56.5 376,-56.5"/>
<text text-anchor="middle" x="413" y="-63.5" font-family="Helvetica,sans-Serif" font-size="10.00">unaligned.h</text>
</a>
</g>
</g>
<!-- Node9&#45;&gt;Node10 -->
<g id="edge14" class="edge">
<title>Node9&#45;&gt;Node10</title>
<path fill="none" stroke="midnightblue" d="M381.27,-112.08C386.64,-104.46 394.52,-93.26 401.08,-83.94"/>
<polygon fill="midnightblue" stroke="midnightblue" points="403.95,-85.94 406.84,-75.75 398.22,-81.91 403.95,-85.94"/>
</g>
<!-- Node10&#45;&gt;Node6 -->
<g id="edge15" class="edge">
<title>Node10&#45;&gt;Node6</title>
<path fill="none" stroke="midnightblue" d="M399.5,-56.32C386.4,-47.9 366.29,-34.97 350.89,-25.07"/>
<polygon fill="midnightblue" stroke="midnightblue" points="352.77,-22.12 342.46,-19.65 348.98,-28.01 352.77,-22.12"/>
</g>
<!-- Node11&#45;&gt;Node5 -->
<g id="edge18" class="edge">
<title>Node11&#45;&gt;Node5</title>
<path fill="none" stroke="midnightblue" d="M285.71,-168.48C281.54,-154.6 271.4,-127.15 253,-112 211.33,-77.69 174.85,-114.48 137,-76 125.03,-63.83 120.53,-44.56 118.87,-30.15"/>
<polygon fill="midnightblue" stroke="midnightblue" points="122.33,-29.57 118.06,-19.87 115.36,-30.12 122.33,-29.57"/>
</g>
<!-- Node11&#45;&gt;Node6 -->
<g id="edge19" class="edge">
<title>Node11&#45;&gt;Node6</title>
<path fill="none" stroke="midnightblue" d="M290.2,-168.08C296.66,-141.95 315.61,-65.21 324.41,-29.58"/>
<polygon fill="midnightblue" stroke="midnightblue" points="327.88,-30.12 326.88,-19.57 321.09,-28.44 327.88,-30.12"/>
</g>
<!-- Node11&#45;&gt;Node7 -->
<g id="edge17" class="edge">
<title>Node11&#45;&gt;Node7</title>
<path fill="none" stroke="midnightblue" d="M275.95,-168.32C264.54,-160.11 247.17,-147.6 233.57,-137.81"/>
<polygon fill="midnightblue" stroke="midnightblue" points="235.43,-134.84 225.27,-131.83 231.34,-140.52 235.43,-134.84"/>
</g>
<!-- Node11&#45;&gt;Node9 -->
<g id="edge20" class="edge">
<title>Node11&#45;&gt;Node9</title>
<path fill="none" stroke="midnightblue" d="M301.98,-168.32C315.55,-159.9 336.38,-146.97 352.32,-137.07"/>
<polygon fill="midnightblue" stroke="midnightblue" points="354.41,-139.9 361.06,-131.65 350.71,-133.95 354.41,-139.9"/>
</g>
</g>
</svg>
