<?xml version="1.0" encoding="UTF-8" standalone="no"?>
<!DOCTYPE svg PUBLIC "-//W3C//DTD SVG 1.1//EN"
 "http://www.w3.org/Graphics/SVG/1.1/DTD/svg11.dtd">
<!-- Generated by graphviz version 2.43.0 (0)
 -->
<!-- Title: drivers/sht1x/include/sht1x_defines.h Pages: 1 -->
<svg width="952pt" height="431pt"
 viewBox="0.00 0.00 951.50 431.00" xmlns="http://www.w3.org/2000/svg" xmlns:xlink="http://www.w3.org/1999/xlink">
<g id="graph0" class="graph" transform="scale(1 1) rotate(0) translate(4 427)">
<title>drivers/sht1x/include/sht1x_defines.h</title>
<!-- Node1 -->
<g id="node1" class="node">
<title>Node1</title>
<g id="a_node1"><a xlink:title="Internal defines required by the SHT10/SHT11/SHT15 driver.">
<polygon fill="#bfbfbf" stroke="black" points="235.5,-392.5 235.5,-422.5 354.5,-422.5 354.5,-392.5 235.5,-392.5"/>
<text text-anchor="start" x="243.5" y="-410.5" font-family="Helvetica,sans-Serif" font-size="10.00">drivers/sht1x/include</text>
<text text-anchor="middle" x="295" y="-399.5" font-family="Helvetica,sans-Serif" font-size="10.00">/sht1x_defines.h</text>
</a>
</g>
</g>
<!-- Node2 -->
<g id="node2" class="node">
<title>Node2</title>
<g id="a_node2"><a xlink:title=" ">
<polygon fill="none" stroke="#bfbfbf" points="81.5,-0.5 81.5,-19.5 134.5,-19.5 134.5,-0.5 81.5,-0.5"/>
<text text-anchor="middle" x="108" y="-7.5" font-family="Helvetica,sans-Serif" font-size="10.00">stdint.h</text>
</a>
</g>
</g>
<!-- Node1&#45;&gt;Node2 -->
<g id="edge1" class="edge">
<title>Node1&#45;&gt;Node2</title>
<path fill="none" stroke="midnightblue" d="M235.3,-395.67C149.1,-378.31 0,-341.05 0,-291 0,-291 0,-291 0,-121 0,-75.21 48.25,-41.49 80.25,-24.16"/>
<polygon fill="midnightblue" stroke="midnightblue" points="81.93,-27.23 89.19,-19.51 78.7,-21.02 81.93,-27.23"/>
</g>
<!-- Node3 -->
<g id="node3" class="node">
<title>Node3</title>
<g id="a_node3"><a xlink:href="gpio_8h.html" target="_top" xlink:title="Low&#45;level GPIO peripheral driver interface definitions.">
<polygon fill="none" stroke="black" points="737,-336.5 737,-355.5 817,-355.5 817,-336.5 737,-336.5"/>
<text text-anchor="middle" x="777" y="-343.5" font-family="Helvetica,sans-Serif" font-size="10.00">periph/gpio.h</text>
</a>
</g>
</g>
<!-- Node1&#45;&gt;Node3 -->
<g id="edge2" class="edge">
<title>Node1&#45;&gt;Node3</title>
<path fill="none" stroke="midnightblue" d="M354.59,-399.14C450.41,-387.32 637.05,-364.28 726.64,-353.22"/>
<polygon fill="midnightblue" stroke="midnightblue" points="727.32,-356.66 736.81,-351.96 726.46,-349.71 727.32,-356.66"/>
</g>
<!-- Node7 -->
<g id="node7" class="node">
<title>Node7</title>
<g id="a_node7"><a xlink:href="mutex_8h.html" target="_top" xlink:title="Mutex for thread synchronization.">
<polygon fill="none" stroke="black" points="266.5,-336.5 266.5,-355.5 323.5,-355.5 323.5,-336.5 266.5,-336.5"/>
<text text-anchor="middle" x="295" y="-343.5" font-family="Helvetica,sans-Serif" font-size="10.00">mutex.h</text>
</a>
</g>
</g>
<!-- Node1&#45;&gt;Node7 -->
<g id="edge6" class="edge">
<title>Node1&#45;&gt;Node7</title>
<path fill="none" stroke="midnightblue" d="M295,-392.4C295,-384.47 295,-374.46 295,-365.86"/>
<polygon fill="midnightblue" stroke="midnightblue" points="298.5,-365.66 295,-355.66 291.5,-365.66 298.5,-365.66"/>
</g>
<!-- Node4 -->
<g id="node4" class="node">
<title>Node4</title>
<g id="a_node4"><a xlink:title=" ">
<polygon fill="none" stroke="#bfbfbf" points="793.5,-280.5 793.5,-299.5 846.5,-299.5 846.5,-280.5 793.5,-280.5"/>
<text text-anchor="middle" x="820" y="-287.5" font-family="Helvetica,sans-Serif" font-size="10.00">limits.h</text>
</a>
</g>
</g>
<!-- Node3&#45;&gt;Node4 -->
<g id="edge3" class="edge">
<title>Node3&#45;&gt;Node4</title>
<path fill="none" stroke="midnightblue" d="M784.1,-336.08C790.24,-328.38 799.27,-317.03 806.74,-307.65"/>
<polygon fill="midnightblue" stroke="midnightblue" points="809.54,-309.75 813.03,-299.75 804.06,-305.39 809.54,-309.75"/>
</g>
<!-- Node5 -->
<g id="node5" class="node">
<title>Node5</title>
<g id="a_node5"><a xlink:title=" ">
<polygon fill="none" stroke="#bfbfbf" points="864.5,-280.5 864.5,-299.5 943.5,-299.5 943.5,-280.5 864.5,-280.5"/>
<text text-anchor="middle" x="904" y="-287.5" font-family="Helvetica,sans-Serif" font-size="10.00">periph_cpu.h</text>
</a>
</g>
</g>
<!-- Node3&#45;&gt;Node5 -->
<g id="edge4" class="edge">
<title>Node3&#45;&gt;Node5</title>
<path fill="none" stroke="midnightblue" d="M797.12,-336.44C818.02,-327.56 850.93,-313.56 874.72,-303.45"/>
<polygon fill="midnightblue" stroke="midnightblue" points="876.14,-306.65 883.97,-299.52 873.4,-300.21 876.14,-306.65"/>
</g>
<!-- Node6 -->
<g id="node6" class="node">
<title>Node6</title>
<g id="a_node6"><a xlink:title=" ">
<polygon fill="none" stroke="#bfbfbf" points="693,-280.5 693,-299.5 775,-299.5 775,-280.5 693,-280.5"/>
<text text-anchor="middle" x="734" y="-287.5" font-family="Helvetica,sans-Serif" font-size="10.00">periph_conf.h</text>
</a>
</g>
</g>
<!-- Node3&#45;&gt;Node6 -->
<g id="edge5" class="edge">
<title>Node3&#45;&gt;Node6</title>
<path fill="none" stroke="midnightblue" d="M769.9,-336.08C763.76,-328.38 754.73,-317.03 747.26,-307.65"/>
<polygon fill="midnightblue" stroke="midnightblue" points="749.94,-305.39 740.97,-299.75 744.46,-309.75 749.94,-305.39"/>
</g>
<!-- Node7&#45;&gt;Node2 -->
<g id="edge8" class="edge">
<title>Node7&#45;&gt;Node2</title>
<path fill="none" stroke="midnightblue" d="M266.02,-345.47C198.81,-344.91 38,-333.28 38,-235 38,-235 38,-235 38,-121 38,-82.23 69.33,-46.1 90.07,-26.43"/>
<polygon fill="midnightblue" stroke="midnightblue" points="92.64,-28.83 97.67,-19.5 87.92,-23.65 92.64,-28.83"/>
</g>
<!-- Node8 -->
<g id="node8" class="node">
<title>Node8</title>
<g id="a_node8"><a xlink:title=" ">
<polygon fill="none" stroke="#bfbfbf" points="363,-0.5 363,-19.5 419,-19.5 419,-0.5 363,-0.5"/>
<text text-anchor="middle" x="391" y="-7.5" font-family="Helvetica,sans-Serif" font-size="10.00">stddef.h</text>
</a>
</g>
</g>
<!-- Node7&#45;&gt;Node8 -->
<g id="edge7" class="edge">
<title>Node7&#45;&gt;Node8</title>
<path fill="none" stroke="midnightblue" d="M323.73,-342.69C410.66,-334.92 665,-306.12 665,-235 665,-235 665,-235 665,-121 665,-87.08 652.91,-75.28 625,-56 593.84,-34.47 487.54,-20.72 429.54,-14.63"/>
<polygon fill="midnightblue" stroke="midnightblue" points="429.6,-11.12 419.29,-13.58 428.89,-18.08 429.6,-11.12"/>
</g>
<!-- Node9 -->
<g id="node9" class="node">
<title>Node9</title>
<g id="a_node9"><a xlink:href="irq_8h.html" target="_top" xlink:title="IRQ driver interface.">
<polygon fill="none" stroke="black" points="119,-280.5 119,-299.5 157,-299.5 157,-280.5 119,-280.5"/>
<text text-anchor="middle" x="138" y="-287.5" font-family="Helvetica,sans-Serif" font-size="10.00">irq.h</text>
</a>
</g>
</g>
<!-- Node7&#45;&gt;Node9 -->
<g id="edge9" class="edge">
<title>Node7&#45;&gt;Node9</title>
<path fill="none" stroke="midnightblue" d="M270.12,-336.44C242.12,-326.81 196.69,-311.19 167.08,-301"/>
<polygon fill="midnightblue" stroke="midnightblue" points="167.91,-297.59 157.32,-297.64 165.63,-304.21 167.91,-297.59"/>
</g>
<!-- Node12 -->
<g id="node12" class="node">
<title>Node12</title>
<g id="a_node12"><a xlink:href="kernel__defines_8h.html" target="_top" xlink:title="Common macros and compiler attributes/pragmas configuration.">
<polygon fill="none" stroke="black" points="207.5,-56.5 207.5,-75.5 304.5,-75.5 304.5,-56.5 207.5,-56.5"/>
<text text-anchor="middle" x="256" y="-63.5" font-family="Helvetica,sans-Serif" font-size="10.00">kernel_defines.h</text>
</a>
</g>
</g>
<!-- Node7&#45;&gt;Node12 -->
<g id="edge12" class="edge">
<title>Node7&#45;&gt;Node12</title>
<path fill="none" stroke="midnightblue" d="M297.23,-336.45C299.46,-327.45 302.73,-312.84 304,-300 307.33,-266.39 308.99,-257.41 304,-224 296.27,-172.26 274.95,-114 263.5,-85.17"/>
<polygon fill="midnightblue" stroke="midnightblue" points="266.64,-83.6 259.64,-75.64 260.15,-86.22 266.64,-83.6"/>
</g>
<!-- Node13 -->
<g id="node13" class="node">
<title>Node13</title>
<g id="a_node13"><a xlink:href="list_8h.html" target="_top" xlink:title="Intrusive linked list.">
<polygon fill="none" stroke="black" points="575.5,-56.5 575.5,-75.5 616.5,-75.5 616.5,-56.5 575.5,-56.5"/>
<text text-anchor="middle" x="596" y="-63.5" font-family="Helvetica,sans-Serif" font-size="10.00">list.h</text>
</a>
</g>
</g>
<!-- Node7&#45;&gt;Node13 -->
<g id="edge15" class="edge">
<title>Node7&#45;&gt;Node13</title>
<path fill="none" stroke="midnightblue" d="M323.59,-341.76C404.12,-331.85 627,-298.68 627,-235 627,-235 627,-235 627,-177 627,-143.41 613.44,-106.14 604.26,-84.75"/>
<polygon fill="midnightblue" stroke="midnightblue" points="607.45,-83.31 600.18,-75.61 601.06,-86.17 607.45,-83.31"/>
</g>
<!-- Node14 -->
<g id="node14" class="node">
<title>Node14</title>
<g id="a_node14"><a xlink:href="core_2include_2thread_8h.html" target="_top" xlink:title="Threading API.">
<polygon fill="none" stroke="black" points="238.5,-280.5 238.5,-299.5 295.5,-299.5 295.5,-280.5 238.5,-280.5"/>
<text text-anchor="middle" x="267" y="-287.5" font-family="Helvetica,sans-Serif" font-size="10.00">thread.h</text>
</a>
</g>
</g>
<!-- Node7&#45;&gt;Node14 -->
<g id="edge16" class="edge">
<title>Node7&#45;&gt;Node14</title>
<path fill="none" stroke="midnightblue" d="M290.38,-336.08C286.54,-328.69 280.98,-317.95 276.24,-308.81"/>
<polygon fill="midnightblue" stroke="midnightblue" points="279.25,-307.02 271.54,-299.75 273.03,-310.24 279.25,-307.02"/>
</g>
<!-- Node10 -->
<g id="node10" class="node">
<title>Node10</title>
<g id="a_node10"><a xlink:title=" ">
<polygon fill="none" stroke="#bfbfbf" points="66,-168.5 66,-187.5 128,-187.5 128,-168.5 66,-168.5"/>
<text text-anchor="middle" x="97" y="-175.5" font-family="Helvetica,sans-Serif" font-size="10.00">stdbool.h</text>
</a>
</g>
</g>
<!-- Node9&#45;&gt;Node10 -->
<g id="edge10" class="edge">
<title>Node9&#45;&gt;Node10</title>
<path fill="none" stroke="midnightblue" d="M125.5,-280.3C115.13,-272.25 101.11,-259.24 95,-244 89.09,-229.26 90.28,-211.1 92.55,-197.73"/>
<polygon fill="midnightblue" stroke="midnightblue" points="96,-198.3 94.58,-187.8 89.14,-196.89 96,-198.3"/>
</g>
<!-- Node11 -->
<g id="node11" class="node">
<title>Node11</title>
<g id="a_node11"><a xlink:title=" ">
<polygon fill="none" stroke="#bfbfbf" points="104,-224.5 104,-243.5 172,-243.5 172,-224.5 104,-224.5"/>
<text text-anchor="middle" x="138" y="-231.5" font-family="Helvetica,sans-Serif" font-size="10.00">cpu_conf.h</text>
</a>
</g>
</g>
<!-- Node9&#45;&gt;Node11 -->
<g id="edge11" class="edge">
<title>Node9&#45;&gt;Node11</title>
<path fill="none" stroke="midnightblue" d="M138,-280.08C138,-273.01 138,-262.86 138,-253.99"/>
<polygon fill="midnightblue" stroke="midnightblue" points="141.5,-253.75 138,-243.75 134.5,-253.75 141.5,-253.75"/>
</g>
<!-- Node12&#45;&gt;Node2 -->
<g id="edge14" class="edge">
<title>Node12&#45;&gt;Node2</title>
<path fill="none" stroke="midnightblue" d="M232.55,-56.44C207.87,-47.44 168.81,-33.19 141.02,-23.05"/>
<polygon fill="midnightblue" stroke="midnightblue" points="141.94,-19.66 131.34,-19.52 139.54,-26.23 141.94,-19.66"/>
</g>
<!-- Node12&#45;&gt;Node8 -->
<g id="edge13" class="edge">
<title>Node12&#45;&gt;Node8</title>
<path fill="none" stroke="midnightblue" d="M277.39,-56.44C299.71,-47.52 334.9,-33.44 360.21,-23.32"/>
<polygon fill="midnightblue" stroke="midnightblue" points="361.72,-26.48 369.71,-19.52 359.12,-19.98 361.72,-26.48"/>
</g>
<!-- Node14&#45;&gt;Node11 -->
<g id="edge33" class="edge">
<title>Node14&#45;&gt;Node11</title>
<path fill="none" stroke="midnightblue" d="M246.56,-280.44C225.33,-271.56 191.9,-257.56 167.75,-247.45"/>
<polygon fill="midnightblue" stroke="midnightblue" points="168.92,-244.15 158.34,-243.52 166.22,-250.61 168.92,-244.15"/>
</g>
<!-- Node15 -->
<g id="node15" class="node">
<title>Node15</title>
<g id="a_node15"><a xlink:href="clist_8h.html" target="_top" xlink:title="Circular linked list.">
<polygon fill="none" stroke="black" points="553,-112.5 553,-131.5 599,-131.5 599,-112.5 553,-112.5"/>
<text text-anchor="middle" x="576" y="-119.5" font-family="Helvetica,sans-Serif" font-size="10.00">clist.h</text>
</a>
</g>
</g>
<!-- Node14&#45;&gt;Node15 -->
<g id="edge17" class="edge">
<title>Node14&#45;&gt;Node15</title>
<path fill="none" stroke="midnightblue" d="M283.18,-280.31C333.86,-253.08 489.83,-169.29 551.01,-136.43"/>
<polygon fill="midnightblue" stroke="midnightblue" points="552.83,-139.42 559.98,-131.61 549.52,-133.25 552.83,-139.42"/>
</g>
<!-- Node16 -->
<g id="node16" class="node">
<title>Node16</title>
<g id="a_node16"><a xlink:href="cib_8h.html" target="_top" xlink:title="Circular integer buffer interface.">
<polygon fill="none" stroke="black" points="190,-224.5 190,-243.5 230,-243.5 230,-224.5 190,-224.5"/>
<text text-anchor="middle" x="210" y="-231.5" font-family="Helvetica,sans-Serif" font-size="10.00">cib.h</text>
</a>
</g>
</g>
<!-- Node14&#45;&gt;Node16 -->
<g id="edge20" class="edge">
<title>Node14&#45;&gt;Node16</title>
<path fill="none" stroke="midnightblue" d="M257.84,-280.32C249.5,-272.42 236.97,-260.55 226.82,-250.94"/>
<polygon fill="midnightblue" stroke="midnightblue" points="228.99,-248.17 219.32,-243.83 224.18,-253.25 228.99,-248.17"/>
</g>
<!-- Node19 -->
<g id="node19" class="node">
<title>Node19</title>
<g id="a_node19"><a xlink:href="msg_8h.html" target="_top" xlink:title="Messaging API for inter process communication.">
<polygon fill="none" stroke="black" points="248.5,-224.5 248.5,-243.5 295.5,-243.5 295.5,-224.5 248.5,-224.5"/>
<text text-anchor="middle" x="272" y="-231.5" font-family="Helvetica,sans-Serif" font-size="10.00">msg.h</text>
</a>
</g>
</g>
<!-- Node14&#45;&gt;Node19 -->
<g id="edge24" class="edge">
<title>Node14&#45;&gt;Node19</title>
<path fill="none" stroke="midnightblue" d="M267.83,-280.08C268.48,-273.01 269.42,-262.86 270.24,-253.99"/>
<polygon fill="midnightblue" stroke="midnightblue" points="273.75,-254.03 271.19,-243.75 266.78,-253.39 273.75,-254.03"/>
</g>
<!-- Node20 -->
<g id="node20" class="node">
<title>Node20</title>
<g id="a_node20"><a xlink:href="sched_8h.html" target="_top" xlink:title="Scheduler API definition.">
<polygon fill="none" stroke="black" points="335,-168.5 335,-187.5 389,-187.5 389,-168.5 335,-168.5"/>
<text text-anchor="middle" x="362" y="-175.5" font-family="Helvetica,sans-Serif" font-size="10.00">sched.h</text>
</a>
</g>
</g>
<!-- Node14&#45;&gt;Node20 -->
<g id="edge34" class="edge">
<title>Node14&#45;&gt;Node20</title>
<path fill="none" stroke="midnightblue" d="M274.45,-280.37C290.27,-262.05 327.41,-219.05 347.87,-195.36"/>
<polygon fill="midnightblue" stroke="midnightblue" points="350.69,-197.45 354.58,-187.59 345.4,-192.87 350.69,-197.45"/>
</g>
<!-- Node15&#45;&gt;Node8 -->
<g id="edge18" class="edge">
<title>Node15&#45;&gt;Node8</title>
<path fill="none" stroke="midnightblue" d="M561.48,-112.37C529.6,-93.41 453.23,-48 414.45,-24.94"/>
<polygon fill="midnightblue" stroke="midnightblue" points="415.83,-21.69 405.45,-19.59 412.26,-27.71 415.83,-21.69"/>
</g>
<!-- Node15&#45;&gt;Node13 -->
<g id="edge19" class="edge">
<title>Node15&#45;&gt;Node13</title>
<path fill="none" stroke="midnightblue" d="M579.3,-112.08C581.98,-104.85 585.85,-94.41 589.19,-85.4"/>
<polygon fill="midnightblue" stroke="midnightblue" points="592.57,-86.34 592.76,-75.75 586,-83.91 592.57,-86.34"/>
</g>
<!-- Node17 -->
<g id="node17" class="node">
<title>Node17</title>
<g id="a_node17"><a xlink:href="assert_8h.html" target="_top" xlink:title="POSIX.1&#45;2008 compliant version of the assert macro.">
<polygon fill="none" stroke="black" points="146,-168.5 146,-187.5 202,-187.5 202,-168.5 146,-168.5"/>
<text text-anchor="middle" x="174" y="-175.5" font-family="Helvetica,sans-Serif" font-size="10.00">assert.h</text>
</a>
</g>
</g>
<!-- Node16&#45;&gt;Node17 -->
<g id="edge21" class="edge">
<title>Node16&#45;&gt;Node17</title>
<path fill="none" stroke="midnightblue" d="M204.06,-224.08C199.02,-216.53 191.66,-205.49 185.49,-196.23"/>
<polygon fill="midnightblue" stroke="midnightblue" points="188.29,-194.13 179.83,-187.75 182.47,-198.01 188.29,-194.13"/>
</g>
<!-- Node18 -->
<g id="node18" class="node">
<title>Node18</title>
<g id="a_node18"><a xlink:href="panic_8h.html" target="_top" xlink:title="Crash handling header.">
<polygon fill="none" stroke="black" points="177,-112.5 177,-131.5 229,-131.5 229,-112.5 177,-112.5"/>
<text text-anchor="middle" x="203" y="-119.5" font-family="Helvetica,sans-Serif" font-size="10.00">panic.h</text>
</a>
</g>
</g>
<!-- Node17&#45;&gt;Node18 -->
<g id="edge22" class="edge">
<title>Node17&#45;&gt;Node18</title>
<path fill="none" stroke="midnightblue" d="M178.79,-168.08C182.76,-160.69 188.53,-149.95 193.43,-140.81"/>
<polygon fill="midnightblue" stroke="midnightblue" points="196.65,-142.22 198.3,-131.75 190.49,-138.91 196.65,-142.22"/>
</g>
<!-- Node18&#45;&gt;Node12 -->
<g id="edge23" class="edge">
<title>Node18&#45;&gt;Node12</title>
<path fill="none" stroke="midnightblue" d="M211.75,-112.08C219.47,-104.22 230.9,-92.57 240.22,-83.08"/>
<polygon fill="midnightblue" stroke="midnightblue" points="242.9,-85.34 247.41,-75.75 237.91,-80.44 242.9,-85.34"/>
</g>
<!-- Node19&#45;&gt;Node2 -->
<g id="edge25" class="edge">
<title>Node19&#45;&gt;Node2</title>
<path fill="none" stroke="midnightblue" d="M264.42,-224.27C253.18,-211.49 231.25,-187.13 211,-168 192.88,-150.88 183.42,-151.58 168,-132 142.35,-99.42 123.51,-54.12 114.31,-29.21"/>
<polygon fill="midnightblue" stroke="midnightblue" points="117.53,-27.84 110.86,-19.6 110.94,-30.2 117.53,-27.84"/>
</g>
<!-- Node19&#45;&gt;Node10 -->
<g id="edge26" class="edge">
<title>Node19&#45;&gt;Node10</title>
<path fill="none" stroke="midnightblue" d="M248.4,-225.72C219.19,-216.7 169.09,-201.24 134.57,-190.59"/>
<polygon fill="midnightblue" stroke="midnightblue" points="135.43,-187.19 124.84,-187.59 133.36,-193.88 135.43,-187.19"/>
</g>
<!-- Node19&#45;&gt;Node20 -->
<g id="edge27" class="edge">
<title>Node19&#45;&gt;Node20</title>
<path fill="none" stroke="midnightblue" d="M286.46,-224.32C300.5,-215.9 322.05,-202.97 338.54,-193.07"/>
<polygon fill="midnightblue" stroke="midnightblue" points="340.8,-195.8 347.58,-187.65 337.2,-189.8 340.8,-195.8"/>
</g>
<!-- Node20&#45;&gt;Node8 -->
<g id="edge28" class="edge">
<title>Node20&#45;&gt;Node8</title>
<path fill="none" stroke="midnightblue" d="M358.74,-168.14C354.57,-155.6 348.28,-131.98 352,-112 357.69,-81.47 372.28,-48.28 381.91,-28.58"/>
<polygon fill="midnightblue" stroke="midnightblue" points="385.06,-30.1 386.42,-19.59 378.81,-26.96 385.06,-30.1"/>
</g>
<!-- Node20&#45;&gt;Node12 -->
<g id="edge30" class="edge">
<title>Node20&#45;&gt;Node12</title>
<path fill="none" stroke="midnightblue" d="M353.68,-168.37C335.96,-149.97 294.23,-106.67 271.47,-83.05"/>
<polygon fill="midnightblue" stroke="midnightblue" points="273.74,-80.36 264.28,-75.59 268.7,-85.22 273.74,-80.36"/>
</g>
<!-- Node20&#45;&gt;Node15 -->
<g id="edge32" class="edge">
<title>Node20&#45;&gt;Node15</title>
<path fill="none" stroke="midnightblue" d="M389.2,-170.56C423.03,-162.49 482.78,-148.03 543.24,-132.14"/>
<polygon fill="midnightblue" stroke="midnightblue" points="544.18,-135.51 552.95,-129.58 542.39,-128.74 544.18,-135.51"/>
</g>
<!-- Node21 -->
<g id="node21" class="node">
<title>Node21</title>
<g id="a_node21"><a xlink:href="inttypes_8h.html" target="_top" xlink:title="Adds include for missing inttype definitions.">
<polygon fill="none" stroke="black" points="361.5,-112.5 361.5,-131.5 426.5,-131.5 426.5,-112.5 361.5,-112.5"/>
<text text-anchor="middle" x="394" y="-119.5" font-family="Helvetica,sans-Serif" font-size="10.00">inttypes.h</text>
</a>
</g>
</g>
<!-- Node20&#45;&gt;Node21 -->
<g id="edge29" class="edge">
<title>Node20&#45;&gt;Node21</title>
<path fill="none" stroke="midnightblue" d="M367.28,-168.08C371.71,-160.61 378.16,-149.72 383.62,-140.52"/>
<polygon fill="midnightblue" stroke="midnightblue" points="386.73,-142.14 388.81,-131.75 380.71,-138.57 386.73,-142.14"/>
</g>
<!-- Node22 -->
<g id="node22" class="node">
<title>Node22</title>
<g id="a_node22"><a xlink:href="native__sched_8h.html" target="_top" xlink:title="Add definitions required on the native board.">
<polygon fill="none" stroke="black" points="445,-112.5 445,-131.5 535,-131.5 535,-112.5 445,-112.5"/>
<text text-anchor="middle" x="490" y="-119.5" font-family="Helvetica,sans-Serif" font-size="10.00">native_sched.h</text>
</a>
</g>
</g>
<!-- Node20&#45;&gt;Node22 -->
<g id="edge31" class="edge">
<title>Node20&#45;&gt;Node22</title>
<path fill="none" stroke="midnightblue" d="M382.28,-168.44C403.35,-159.56 436.52,-145.56 460.49,-135.45"/>
<polygon fill="midnightblue" stroke="midnightblue" points="461.96,-138.63 469.81,-131.52 459.24,-132.18 461.96,-138.63"/>
</g>
</g>
</svg>
