<?xml version="1.0" encoding="UTF-8" standalone="no"?>
<!DOCTYPE svg PUBLIC "-//W3C//DTD SVG 1.1//EN"
 "http://www.w3.org/Graphics/SVG/1.1/DTD/svg11.dtd">
<!-- Generated by graphviz version 2.40.1 (20161225.0304)
 -->
<!-- Title: drivers/sht2x/include/sht2x_params.h Pages: 1 -->
<svg width="536pt" height="319pt"
 viewBox="0.00 0.00 535.51 319.00" xmlns="http://www.w3.org/2000/svg" xmlns:xlink="http://www.w3.org/1999/xlink">
<g id="graph0" class="graph" transform="scale(1 1) rotate(0) translate(4 315)">
<title>drivers/sht2x/include/sht2x_params.h</title>
<!-- Node0 -->
<g id="node1" class="node">
<title>Node0</title>
<polygon fill="#bfbfbf" stroke="#000000" points="267.0134,-280.5 267.0134,-310.5 374.0134,-310.5 374.0134,-280.5 267.0134,-280.5"/>
<text text-anchor="start" x="275.0134" y="-298.5" font-family="Helvetica,sans-Serif" font-size="10.00" fill="#000000">drivers/sht2x/include</text>
<text text-anchor="middle" x="320.5134" y="-287.5" font-family="Helvetica,sans-Serif" font-size="10.00" fill="#000000">/sht2x_params.h</text>
</g>
<!-- Node1 -->
<g id="node2" class="node">
<title>Node1</title>
<g id="a_node2"><a xlink:href="sht2x_8h.html" target="_top" xlink:title="Device driver implementation for the SHT2x temperature and humidity sensor. ">
<polygon fill="none" stroke="#000000" points="244.0134,-168.5 244.0134,-187.5 293.0134,-187.5 293.0134,-168.5 244.0134,-168.5"/>
<text text-anchor="middle" x="268.5134" y="-175.5" font-family="Helvetica,sans-Serif" font-size="10.00" fill="#000000">sht2x.h</text>
</a>
</g>
</g>
<!-- Node0&#45;&gt;Node1 -->
<g id="edge1" class="edge">
<title>Node0&#45;&gt;Node1</title>
<path fill="none" stroke="#191970" d="M313.7153,-280.1389C304.2614,-258.7768 287.1548,-220.1224 276.9139,-196.982"/>
<polygon fill="#191970" stroke="#191970" points="279.9915,-195.2876 272.744,-187.5595 273.5904,-198.1205 279.9915,-195.2876"/>
</g>
<!-- Node10 -->
<g id="node11" class="node">
<title>Node10</title>
<g id="a_node11"><a xlink:href="saul__reg_8h.html" target="_top" xlink:title="SAUL registry interface definition. ">
<polygon fill="none" stroke="#000000" points="330.5134,-224.5 330.5134,-243.5 392.5134,-243.5 392.5134,-224.5 330.5134,-224.5"/>
<text text-anchor="middle" x="361.5134" y="-231.5" font-family="Helvetica,sans-Serif" font-size="10.00" fill="#000000">saul_reg.h</text>
</a>
</g>
</g>
<!-- Node0&#45;&gt;Node10 -->
<g id="edge12" class="edge">
<title>Node0&#45;&gt;Node10</title>
<path fill="none" stroke="#191970" d="M330.6482,-280.2977C336.2801,-271.8498 343.3285,-261.2773 349.2673,-252.369"/>
<polygon fill="#191970" stroke="#191970" points="352.3139,-254.1089 354.9488,-243.8469 346.4895,-250.226 352.3139,-254.1089"/>
</g>
<!-- Node2 -->
<g id="node3" class="node">
<title>Node2</title>
<polygon fill="none" stroke="#bfbfbf" points="330.0134,-56.5 330.0134,-75.5 379.0134,-75.5 379.0134,-56.5 330.0134,-56.5"/>
<text text-anchor="middle" x="354.5134" y="-63.5" font-family="Helvetica,sans-Serif" font-size="10.00" fill="#000000">stdint.h</text>
</g>
<!-- Node1&#45;&gt;Node2 -->
<g id="edge2" class="edge">
<title>Node1&#45;&gt;Node2</title>
<path fill="none" stroke="#191970" d="M275.8457,-168.4509C290.2529,-149.688 322.4517,-107.7548 340.8778,-83.758"/>
<polygon fill="#191970" stroke="#191970" points="343.8854,-85.588 347.1996,-75.5249 338.3333,-81.3248 343.8854,-85.588"/>
</g>
<!-- Node3 -->
<g id="node4" class="node">
<title>Node3</title>
<polygon fill="none" stroke="#bfbfbf" points="219.5134,-112.5 219.5134,-131.5 275.5134,-131.5 275.5134,-112.5 219.5134,-112.5"/>
<text text-anchor="middle" x="247.5134" y="-119.5" font-family="Helvetica,sans-Serif" font-size="10.00" fill="#000000">stdbool.h</text>
</g>
<!-- Node1&#45;&gt;Node3 -->
<g id="edge3" class="edge">
<title>Node1&#45;&gt;Node3</title>
<path fill="none" stroke="#191970" d="M264.8555,-168.2455C262.055,-160.7776 258.1044,-150.2427 254.681,-141.1137"/>
<polygon fill="#191970" stroke="#191970" points="257.9178,-139.777 251.1294,-131.6427 251.3635,-142.2349 257.9178,-139.777"/>
</g>
<!-- Node4 -->
<g id="node5" class="node">
<title>Node4</title>
<g id="a_node5"><a xlink:href="i2c_8h.html" target="_top" xlink:title="Low&#45;level I2C peripheral driver interface definition. ">
<polygon fill="none" stroke="#000000" points="134.0134,-112.5 134.0134,-131.5 201.0134,-131.5 201.0134,-112.5 134.0134,-112.5"/>
<text text-anchor="middle" x="167.5134" y="-119.5" font-family="Helvetica,sans-Serif" font-size="10.00" fill="#000000">periph/i2c.h</text>
</a>
</g>
</g>
<!-- Node1&#45;&gt;Node4 -->
<g id="edge4" class="edge">
<title>Node1&#45;&gt;Node4</title>
<path fill="none" stroke="#191970" d="M250.9205,-168.2455C235.1344,-159.4928 211.7495,-146.527 193.7547,-136.5496"/>
<polygon fill="#191970" stroke="#191970" points="195.3475,-133.4308 184.9046,-131.6427 191.9531,-139.5528 195.3475,-133.4308"/>
</g>
<!-- Node4&#45;&gt;Node2 -->
<g id="edge5" class="edge">
<title>Node4&#45;&gt;Node2</title>
<path fill="none" stroke="#191970" d="M199.6598,-112.3733C233.3054,-102.2976 285.9279,-86.539 320.3198,-76.2398"/>
<polygon fill="#191970" stroke="#191970" points="321.3602,-79.5819 329.9358,-73.3601 319.352,-72.8761 321.3602,-79.5819"/>
</g>
<!-- Node5 -->
<g id="node6" class="node">
<title>Node5</title>
<polygon fill="none" stroke="#bfbfbf" points="415.5134,-.5 415.5134,-19.5 467.5134,-19.5 467.5134,-.5 415.5134,-.5"/>
<text text-anchor="middle" x="441.5134" y="-7.5" font-family="Helvetica,sans-Serif" font-size="10.00" fill="#000000">stddef.h</text>
</g>
<!-- Node4&#45;&gt;Node5 -->
<g id="edge6" class="edge">
<title>Node4&#45;&gt;Node5</title>
<path fill="none" stroke="#191970" d="M193.3808,-112.4455C216.8803,-103.5793 252.3741,-89.7197 282.5134,-76 300.2425,-67.9295 303.7264,-63.9422 321.5134,-56 349.4465,-43.5274 381.8805,-31.2199 405.9816,-22.4785"/>
<polygon fill="#191970" stroke="#191970" points="407.2106,-25.756 415.4353,-19.0773 404.8409,-19.1693 407.2106,-25.756"/>
</g>
<!-- Node6 -->
<g id="node7" class="node">
<title>Node6</title>
<polygon fill="none" stroke="#bfbfbf" points="225.5134,-56.5 225.5134,-75.5 273.5134,-75.5 273.5134,-56.5 225.5134,-56.5"/>
<text text-anchor="middle" x="249.5134" y="-63.5" font-family="Helvetica,sans-Serif" font-size="10.00" fill="#000000">limits.h</text>
</g>
<!-- Node4&#45;&gt;Node6 -->
<g id="edge7" class="edge">
<title>Node4&#45;&gt;Node6</title>
<path fill="none" stroke="#191970" d="M181.7967,-112.2455C194.2604,-103.7337 212.5585,-91.2375 226.9925,-81.3801"/>
<polygon fill="#191970" stroke="#191970" points="229.1096,-84.1726 235.3937,-75.6427 225.1618,-78.392 229.1096,-84.1726"/>
</g>
<!-- Node7 -->
<g id="node8" class="node">
<title>Node7</title>
<polygon fill="none" stroke="#bfbfbf" points="33.0134,-.5 33.0134,-19.5 108.0134,-19.5 108.0134,-.5 33.0134,-.5"/>
<text text-anchor="middle" x="70.5134" y="-7.5" font-family="Helvetica,sans-Serif" font-size="10.00" fill="#000000">periph_conf.h</text>
</g>
<!-- Node4&#45;&gt;Node7 -->
<g id="edge8" class="edge">
<title>Node4&#45;&gt;Node7</title>
<path fill="none" stroke="#191970" d="M133.9162,-117.3181C90.912,-110.5578 20.0846,-96.5737 4.5134,-76 -10.2495,-56.4943 15.3493,-37.0427 38.8414,-24.3643"/>
<polygon fill="#191970" stroke="#191970" points="40.6754,-27.3576 47.986,-19.6891 37.4889,-21.1249 40.6754,-27.3576"/>
</g>
<!-- Node8 -->
<g id="node9" class="node">
<title>Node8</title>
<polygon fill="none" stroke="#bfbfbf" points="13.5134,-56.5 13.5134,-75.5 85.5134,-75.5 85.5134,-56.5 13.5134,-56.5"/>
<text text-anchor="middle" x="49.5134" y="-63.5" font-family="Helvetica,sans-Serif" font-size="10.00" fill="#000000">periph_cpu.h</text>
</g>
<!-- Node4&#45;&gt;Node8 -->
<g id="edge9" class="edge">
<title>Node4&#45;&gt;Node8</title>
<path fill="none" stroke="#191970" d="M147.2285,-112.3733C128.3713,-103.4241 100.0674,-89.9917 78.7679,-79.8835"/>
<polygon fill="#191970" stroke="#191970" points="80.0685,-76.6266 69.5336,-75.5011 77.0672,-82.9506 80.0685,-76.6266"/>
</g>
<!-- Node9 -->
<g id="node10" class="node">
<title>Node9</title>
<g id="a_node10"><a xlink:href="dev__enums_8h.html" target="_top" xlink:title="Device enumerations for backward compatibility with existing peripheral driver implementations. ">
<polygon fill="none" stroke="#000000" points="103.5134,-56.5 103.5134,-75.5 207.5134,-75.5 207.5134,-56.5 103.5134,-56.5"/>
<text text-anchor="middle" x="155.5134" y="-63.5" font-family="Helvetica,sans-Serif" font-size="10.00" fill="#000000">periph/dev_enums.h</text>
</a>
</g>
</g>
<!-- Node4&#45;&gt;Node9 -->
<g id="edge10" class="edge">
<title>Node4&#45;&gt;Node9</title>
<path fill="none" stroke="#191970" d="M165.4231,-112.2455C163.8573,-104.9382 161.6622,-94.6944 159.7358,-85.7046"/>
<polygon fill="#191970" stroke="#191970" points="163.0973,-84.6873 157.5797,-75.6427 156.2527,-86.1541 163.0973,-84.6873"/>
</g>
<!-- Node9&#45;&gt;Node7 -->
<g id="edge11" class="edge">
<title>Node9&#45;&gt;Node7</title>
<path fill="none" stroke="#191970" d="M140.7075,-56.2455C127.7878,-47.7337 108.8203,-35.2375 93.8581,-25.3801"/>
<polygon fill="#191970" stroke="#191970" points="95.4258,-22.2216 85.1496,-19.6427 91.5746,-28.067 95.4258,-22.2216"/>
</g>
<!-- Node10&#45;&gt;Node2 -->
<g id="edge13" class="edge">
<title>Node10&#45;&gt;Node2</title>
<path fill="none" stroke="#191970" d="M361.117,-224.4862C360.0104,-197.9293 356.8703,-122.5651 355.3536,-86.1655"/>
<polygon fill="#191970" stroke="#191970" points="358.8362,-85.6735 354.9229,-75.8279 351.8423,-85.965 358.8362,-85.6735"/>
</g>
<!-- Node11 -->
<g id="node12" class="node">
<title>Node11</title>
<g id="a_node12"><a xlink:href="saul_8h.html" target="_top" xlink:title="Definition of the generic [S]ensor [A]ctuator [U]ber [L]ayer. ">
<polygon fill="none" stroke="#000000" points="386.0134,-168.5 386.0134,-187.5 429.0134,-187.5 429.0134,-168.5 386.0134,-168.5"/>
<text text-anchor="middle" x="407.5134" y="-175.5" font-family="Helvetica,sans-Serif" font-size="10.00" fill="#000000">saul.h</text>
</a>
</g>
</g>
<!-- Node10&#45;&gt;Node11 -->
<g id="edge14" class="edge">
<title>Node10&#45;&gt;Node11</title>
<path fill="none" stroke="#191970" d="M369.526,-224.2455C375.9901,-216.3761 385.2518,-205.101 393.0117,-195.6542"/>
<polygon fill="#191970" stroke="#191970" points="395.9497,-197.5916 399.5926,-187.6427 390.5406,-193.1484 395.9497,-197.5916"/>
</g>
<!-- Node13 -->
<g id="node14" class="node">
<title>Node13</title>
<g id="a_node14"><a xlink:href="phydat_8h.html" target="_top" xlink:title="Generic data container for physical data interface. ">
<polygon fill="none" stroke="#000000" points="473.5134,-112.5 473.5134,-131.5 527.5134,-131.5 527.5134,-112.5 473.5134,-112.5"/>
<text text-anchor="middle" x="500.5134" y="-119.5" font-family="Helvetica,sans-Serif" font-size="10.00" fill="#000000">phydat.h</text>
</a>
</g>
</g>
<!-- Node10&#45;&gt;Node13 -->
<g id="edge22" class="edge">
<title>Node10&#45;&gt;Node13</title>
<path fill="none" stroke="#191970" d="M380.8253,-224.4029C397.0073,-215.9192 420.3154,-202.6431 438.5134,-188 456.5681,-173.4722 474.3871,-153.7923 486.2557,-139.7103"/>
<polygon fill="#191970" stroke="#191970" points="489.1523,-141.6995 492.8255,-131.7617 483.7568,-137.2398 489.1523,-141.6995"/>
</g>
<!-- Node11&#45;&gt;Node2 -->
<g id="edge15" class="edge">
<title>Node11&#45;&gt;Node2</title>
<path fill="none" stroke="#191970" d="M414.8738,-168.0845C423.8341,-154.6986 436.5954,-130.4052 426.5134,-112 418.3293,-97.0595 402.9982,-86.2664 388.5794,-78.9064"/>
<polygon fill="#191970" stroke="#191970" points="389.8596,-75.6408 379.3203,-74.5564 386.883,-81.9764 389.8596,-75.6408"/>
</g>
<!-- Node12 -->
<g id="node13" class="node">
<title>Node12</title>
<g id="a_node13"><a xlink:href="errno_8h.html" target="_top" xlink:title="errno.h">
<polygon fill="none" stroke="#000000" points="370.0134,-112.5 370.0134,-131.5 417.0134,-131.5 417.0134,-112.5 370.0134,-112.5"/>
<text text-anchor="middle" x="393.5134" y="-119.5" font-family="Helvetica,sans-Serif" font-size="10.00" fill="#000000">errno.h</text>
</a>
</g>
</g>
<!-- Node11&#45;&gt;Node12 -->
<g id="edge16" class="edge">
<title>Node11&#45;&gt;Node12</title>
<path fill="none" stroke="#191970" d="M405.0748,-168.2455C403.2279,-160.8579 400.6306,-150.4689 398.3655,-141.4087"/>
<polygon fill="#191970" stroke="#191970" points="401.745,-140.4952 395.924,-131.6427 394.954,-142.193 401.745,-140.4952"/>
</g>
<!-- Node11&#45;&gt;Node13 -->
<g id="edge17" class="edge">
<title>Node11&#45;&gt;Node13</title>
<path fill="none" stroke="#191970" d="M423.7127,-168.2455C438.1152,-159.5731 459.3866,-146.7645 475.8933,-136.825"/>
<polygon fill="#191970" stroke="#191970" points="477.7383,-139.7996 484.4996,-131.6427 474.1274,-133.8028 477.7383,-139.7996"/>
</g>
<!-- Node13&#45;&gt;Node2 -->
<g id="edge19" class="edge">
<title>Node13&#45;&gt;Node2</title>
<path fill="none" stroke="#191970" d="M475.4151,-112.3733C451.5579,-103.2226 415.4799,-89.3844 388.9424,-79.2057"/>
<polygon fill="#191970" stroke="#191970" points="389.8744,-75.8145 379.2842,-75.5011 387.3675,-82.3503 389.8744,-75.8145"/>
</g>
<!-- Node13&#45;&gt;Node5 -->
<g id="edge18" class="edge">
<title>Node13&#45;&gt;Node5</title>
<path fill="none" stroke="#191970" d="M501.7818,-112.4291C503.1031,-99.0162 503.8491,-74.2283 494.5134,-56 488.2218,-43.7155 477.1204,-33.2956 466.6978,-25.4956"/>
<polygon fill="#191970" stroke="#191970" points="468.4255,-22.4331 458.223,-19.5763 464.4172,-28.1719 468.4255,-22.4331"/>
</g>
<!-- Node14 -->
<g id="node15" class="node">
<title>Node14</title>
<g id="a_node15"><a xlink:href="kernel__defines_8h.html" target="_top" xlink:title="Common macros and compiler attributes/pragmas configuration. ">
<polygon fill="none" stroke="#000000" points="397.5134,-56.5 397.5134,-75.5 485.5134,-75.5 485.5134,-56.5 397.5134,-56.5"/>
<text text-anchor="middle" x="441.5134" y="-63.5" font-family="Helvetica,sans-Serif" font-size="10.00" fill="#000000">kernel_defines.h</text>
</a>
</g>
</g>
<!-- Node13&#45;&gt;Node14 -->
<g id="edge20" class="edge">
<title>Node13&#45;&gt;Node14</title>
<path fill="none" stroke="#191970" d="M490.2364,-112.2455C481.6916,-104.1352 469.3356,-92.4075 459.2049,-82.7919"/>
<polygon fill="#191970" stroke="#191970" points="461.3352,-79.9884 451.6726,-75.6427 456.5162,-85.0655 461.3352,-79.9884"/>
</g>
<!-- Node14&#45;&gt;Node5 -->
<g id="edge21" class="edge">
<title>Node14&#45;&gt;Node5</title>
<path fill="none" stroke="#191970" d="M441.5134,-56.2455C441.5134,-48.9382 441.5134,-38.6944 441.5134,-29.7046"/>
<polygon fill="#191970" stroke="#191970" points="445.0135,-29.6426 441.5134,-19.6427 438.0135,-29.6427 445.0135,-29.6426"/>
</g>
</g>
</svg>
