<?xml version="1.0" encoding="UTF-8" standalone="no"?>
<!DOCTYPE svg PUBLIC "-//W3C//DTD SVG 1.1//EN"
 "http://www.w3.org/Graphics/SVG/1.1/DTD/svg11.dtd">
<!-- Generated by graphviz version 2.43.0 (0)
 -->
<!-- Title: sys/include/net/sixlowpan/nd.h Pages: 1 -->
<svg width="402pt" height="308pt"
 viewBox="0.00 0.00 401.50 308.00" xmlns="http://www.w3.org/2000/svg" xmlns:xlink="http://www.w3.org/1999/xlink">
<g id="graph0" class="graph" transform="scale(1 1) rotate(0) translate(4 304)">
<title>sys/include/net/sixlowpan/nd.h</title>
<!-- Node1 -->
<g id="node1" class="node">
<title>Node1</title>
<g id="a_node1"><a xlink:title="Message type and helper function definitions for 6LoWPAN&#45;ND.">
<polygon fill="#bfbfbf" stroke="black" points="25.5,-280.5 25.5,-299.5 192.5,-299.5 192.5,-280.5 25.5,-280.5"/>
<text text-anchor="middle" x="109" y="-287.5" font-family="Helvetica,sans-Serif" font-size="10.00">sys/include/net/sixlowpan/nd.h</text>
</a>
</g>
</g>
<!-- Node2 -->
<g id="node2" class="node">
<title>Node2</title>
<g id="a_node2"><a xlink:title=" ">
<polygon fill="none" stroke="#bfbfbf" points="94.5,-0.5 94.5,-19.5 147.5,-19.5 147.5,-0.5 94.5,-0.5"/>
<text text-anchor="middle" x="121" y="-7.5" font-family="Helvetica,sans-Serif" font-size="10.00">stdint.h</text>
</a>
</g>
</g>
<!-- Node1&#45;&gt;Node2 -->
<g id="edge1" class="edge">
<title>Node1&#45;&gt;Node2</title>
<path fill="none" stroke="midnightblue" d="M89.76,-280.42C58.47,-264.99 0,-229.41 0,-179 0,-179 0,-179 0,-121 0,-72.99 52.8,-40.41 88.64,-23.82"/>
<polygon fill="midnightblue" stroke="midnightblue" points="90.52,-26.82 98.24,-19.57 87.68,-20.42 90.52,-26.82"/>
</g>
<!-- Node3 -->
<g id="node3" class="node">
<title>Node3</title>
<g id="a_node3"><a xlink:href="byteorder_8h.html" target="_top" xlink:title="Functions to work with different byte orders.">
<polygon fill="none" stroke="black" points="84.5,-112.5 84.5,-131.5 157.5,-131.5 157.5,-112.5 84.5,-112.5"/>
<text text-anchor="middle" x="121" y="-119.5" font-family="Helvetica,sans-Serif" font-size="10.00">byteorder.h</text>
</a>
</g>
</g>
<!-- Node1&#45;&gt;Node3 -->
<g id="edge2" class="edge">
<title>Node1&#45;&gt;Node3</title>
<path fill="none" stroke="midnightblue" d="M109.65,-280.08C111.53,-253.95 117.08,-177.21 119.66,-141.58"/>
<polygon fill="midnightblue" stroke="midnightblue" points="123.15,-141.79 120.38,-131.57 116.17,-141.29 123.15,-141.79"/>
</g>
<!-- Node5 -->
<g id="node5" class="node">
<title>Node5</title>
<g id="a_node5"><a xlink:href="eui64_8h.html" target="_top" xlink:title="EUI&#45;64 data type definition.">
<polygon fill="none" stroke="black" points="28.5,-168.5 28.5,-187.5 99.5,-187.5 99.5,-168.5 28.5,-168.5"/>
<text text-anchor="middle" x="64" y="-175.5" font-family="Helvetica,sans-Serif" font-size="10.00">net/eui64.h</text>
</a>
</g>
</g>
<!-- Node1&#45;&gt;Node5 -->
<g id="edge6" class="edge">
<title>Node1&#45;&gt;Node5</title>
<path fill="none" stroke="midnightblue" d="M105.47,-280.37C98.14,-262.46 81.15,-220.92 71.34,-196.95"/>
<polygon fill="midnightblue" stroke="midnightblue" points="74.54,-195.52 67.51,-187.59 68.06,-198.17 74.54,-195.52"/>
</g>
<!-- Node6 -->
<g id="node6" class="node">
<title>Node6</title>
<g id="a_node6"><a xlink:href="ipv6_2addr_8h.html" target="_top" xlink:title="Definitions for IPv6 addresses.">
<polygon fill="none" stroke="black" points="194,-224.5 194,-243.5 284,-243.5 284,-224.5 194,-224.5"/>
<text text-anchor="middle" x="239" y="-231.5" font-family="Helvetica,sans-Serif" font-size="10.00">net/ipv6/addr.h</text>
</a>
</g>
</g>
<!-- Node1&#45;&gt;Node6 -->
<g id="edge9" class="edge">
<title>Node1&#45;&gt;Node6</title>
<path fill="none" stroke="midnightblue" d="M129.6,-280.44C150.99,-271.56 184.68,-257.56 209.02,-247.45"/>
<polygon fill="midnightblue" stroke="midnightblue" points="210.61,-250.58 218.5,-243.52 207.92,-244.12 210.61,-250.58"/>
</g>
<!-- Node3&#45;&gt;Node2 -->
<g id="edge3" class="edge">
<title>Node3&#45;&gt;Node2</title>
<path fill="none" stroke="midnightblue" d="M134.79,-112.19C145.83,-104.24 160.5,-91.45 167,-76 174.96,-57.08 158.21,-38.24 142.73,-25.75"/>
<polygon fill="midnightblue" stroke="midnightblue" points="144.53,-22.72 134.43,-19.51 140.32,-28.31 144.53,-22.72"/>
</g>
<!-- Node4 -->
<g id="node4" class="node">
<title>Node4</title>
<g id="a_node4"><a xlink:href="unaligned_8h.html" target="_top" xlink:title="Unaligned but safe memory access functions.">
<polygon fill="none" stroke="black" points="84,-56.5 84,-75.5 158,-75.5 158,-56.5 84,-56.5"/>
<text text-anchor="middle" x="121" y="-63.5" font-family="Helvetica,sans-Serif" font-size="10.00">unaligned.h</text>
</a>
</g>
</g>
<!-- Node3&#45;&gt;Node4 -->
<g id="edge4" class="edge">
<title>Node3&#45;&gt;Node4</title>
<path fill="none" stroke="midnightblue" d="M121,-112.08C121,-105.01 121,-94.86 121,-85.99"/>
<polygon fill="midnightblue" stroke="midnightblue" points="124.5,-85.75 121,-75.75 117.5,-85.75 124.5,-85.75"/>
</g>
<!-- Node4&#45;&gt;Node2 -->
<g id="edge5" class="edge">
<title>Node4&#45;&gt;Node2</title>
<path fill="none" stroke="midnightblue" d="M121,-56.08C121,-49.01 121,-38.86 121,-29.99"/>
<polygon fill="midnightblue" stroke="midnightblue" points="124.5,-29.75 121,-19.75 117.5,-29.75 124.5,-29.75"/>
</g>
<!-- Node5&#45;&gt;Node2 -->
<g id="edge7" class="edge">
<title>Node5&#45;&gt;Node2</title>
<path fill="none" stroke="midnightblue" d="M62.82,-168.26C60.44,-147.57 56.72,-94.49 75,-56 80.64,-44.14 90.8,-33.68 100.14,-25.84"/>
<polygon fill="midnightblue" stroke="midnightblue" points="102.31,-28.59 108,-19.65 97.98,-23.08 102.31,-28.59"/>
</g>
<!-- Node5&#45;&gt;Node3 -->
<g id="edge8" class="edge">
<title>Node5&#45;&gt;Node3</title>
<path fill="none" stroke="midnightblue" d="M73.16,-168.32C81.5,-160.42 94.03,-148.55 104.18,-138.94"/>
<polygon fill="midnightblue" stroke="midnightblue" points="106.82,-141.25 111.68,-131.83 102.01,-136.17 106.82,-141.25"/>
</g>
<!-- Node6&#45;&gt;Node3 -->
<g id="edge12" class="edge">
<title>Node6&#45;&gt;Node3</title>
<path fill="none" stroke="midnightblue" d="M227.98,-224.34C216.87,-215.5 199.37,-201.22 185,-188 167.63,-172.01 148.79,-152.61 136.08,-139.18"/>
<polygon fill="midnightblue" stroke="midnightblue" points="138.43,-136.57 129.03,-131.68 133.33,-141.36 138.43,-136.57"/>
</g>
<!-- Node7 -->
<g id="node7" class="node">
<title>Node7</title>
<g id="a_node7"><a xlink:title=" ">
<polygon fill="none" stroke="#bfbfbf" points="288,-112.5 288,-131.5 350,-131.5 350,-112.5 288,-112.5"/>
<text text-anchor="middle" x="319" y="-119.5" font-family="Helvetica,sans-Serif" font-size="10.00">stdbool.h</text>
</a>
</g>
</g>
<!-- Node6&#45;&gt;Node7 -->
<g id="edge10" class="edge">
<title>Node6&#45;&gt;Node7</title>
<path fill="none" stroke="midnightblue" d="M253.1,-224.18C265.1,-216.06 282.1,-203.01 293,-188 303.26,-173.88 310.19,-155.15 314.3,-141.42"/>
<polygon fill="midnightblue" stroke="midnightblue" points="317.7,-142.24 317,-131.67 310.96,-140.37 317.7,-142.24"/>
</g>
<!-- Node8 -->
<g id="node8" class="node">
<title>Node8</title>
<g id="a_node8"><a xlink:title=" ">
<polygon fill="none" stroke="#bfbfbf" points="340.5,-168.5 340.5,-187.5 393.5,-187.5 393.5,-168.5 340.5,-168.5"/>
<text text-anchor="middle" x="367" y="-175.5" font-family="Helvetica,sans-Serif" font-size="10.00">string.h</text>
</a>
</g>
</g>
<!-- Node6&#45;&gt;Node8 -->
<g id="edge11" class="edge">
<title>Node6&#45;&gt;Node8</title>
<path fill="none" stroke="midnightblue" d="M259.28,-224.44C280.35,-215.56 313.52,-201.56 337.49,-191.45"/>
<polygon fill="midnightblue" stroke="midnightblue" points="338.96,-194.63 346.81,-187.52 336.24,-188.18 338.96,-194.63"/>
</g>
<!-- Node9 -->
<g id="node9" class="node">
<title>Node9</title>
<g id="a_node9"><a xlink:href="ipv4_2addr_8h.html" target="_top" xlink:title="IPv6 address type and helper functions definitions.">
<polygon fill="none" stroke="black" points="194,-168.5 194,-187.5 284,-187.5 284,-168.5 194,-168.5"/>
<text text-anchor="middle" x="239" y="-175.5" font-family="Helvetica,sans-Serif" font-size="10.00">net/ipv4/addr.h</text>
</a>
</g>
</g>
<!-- Node6&#45;&gt;Node9 -->
<g id="edge13" class="edge">
<title>Node6&#45;&gt;Node9</title>
<path fill="none" stroke="midnightblue" d="M239,-224.08C239,-217.01 239,-206.86 239,-197.99"/>
<polygon fill="midnightblue" stroke="midnightblue" points="242.5,-197.75 239,-187.75 235.5,-197.75 242.5,-197.75"/>
</g>
<!-- Node9&#45;&gt;Node2 -->
<g id="edge15" class="edge">
<title>Node9&#45;&gt;Node2</title>
<path fill="none" stroke="midnightblue" d="M241.52,-168.16C244.73,-155.24 248.94,-130.71 241,-112 223.33,-70.38 178.11,-40.27 148.5,-24.24"/>
<polygon fill="midnightblue" stroke="midnightblue" points="149.98,-21.06 139.49,-19.53 146.73,-27.26 149.98,-21.06"/>
</g>
<!-- Node9&#45;&gt;Node3 -->
<g id="edge17" class="edge">
<title>Node9&#45;&gt;Node3</title>
<path fill="none" stroke="midnightblue" d="M220.3,-168.44C201.06,-159.64 170.85,-145.81 148.8,-135.72"/>
<polygon fill="midnightblue" stroke="midnightblue" points="150.16,-132.5 139.61,-131.52 147.25,-138.86 150.16,-132.5"/>
</g>
<!-- Node9&#45;&gt;Node7 -->
<g id="edge14" class="edge">
<title>Node9&#45;&gt;Node7</title>
<path fill="none" stroke="midnightblue" d="M251.85,-168.32C264.22,-159.98 283.13,-147.21 297.74,-137.35"/>
<polygon fill="midnightblue" stroke="midnightblue" points="299.85,-140.15 306.18,-131.65 295.93,-134.35 299.85,-140.15"/>
</g>
<!-- Node10 -->
<g id="node10" class="node">
<title>Node10</title>
<g id="a_node10"><a xlink:title=" ">
<polygon fill="none" stroke="#bfbfbf" points="176,-112.5 176,-131.5 232,-131.5 232,-112.5 176,-112.5"/>
<text text-anchor="middle" x="204" y="-119.5" font-family="Helvetica,sans-Serif" font-size="10.00">stddef.h</text>
</a>
</g>
</g>
<!-- Node9&#45;&gt;Node10 -->
<g id="edge16" class="edge">
<title>Node9&#45;&gt;Node10</title>
<path fill="none" stroke="midnightblue" d="M233.22,-168.08C228.33,-160.53 221.17,-149.49 215.17,-140.23"/>
<polygon fill="midnightblue" stroke="midnightblue" points="218.05,-138.24 209.67,-131.75 212.17,-142.05 218.05,-138.24"/>
</g>
</g>
</svg>
