<?xml version="1.0" encoding="UTF-8" standalone="no"?>
<!DOCTYPE svg PUBLIC "-//W3C//DTD SVG 1.1//EN"
 "http://www.w3.org/Graphics/SVG/1.1/DTD/svg11.dtd">
<!-- Generated by graphviz version 2.40.1 (20161225.0304)
 -->
<!-- Title: sys/include/net/gnrc/sixlowpan/internal.h Pages: 1 -->
<svg width="1653pt" height="375pt"
 viewBox="0.00 0.00 1653.00 375.00" xmlns="http://www.w3.org/2000/svg" xmlns:xlink="http://www.w3.org/1999/xlink">
<g id="graph0" class="graph" transform="scale(1 1) rotate(0) translate(4 371)">
<title>sys/include/net/gnrc/sixlowpan/internal.h</title>
<!-- Node0 -->
<g id="node1" class="node">
<title>Node0</title>
<polygon fill="#bfbfbf" stroke="#000000" points="843,-336.5 843,-366.5 949,-366.5 949,-336.5 843,-336.5"/>
<text text-anchor="start" x="851" y="-354.5" font-family="Helvetica,sans-Serif" font-size="10.00" fill="#000000">sys/include/net/gnrc</text>
<text text-anchor="middle" x="896" y="-343.5" font-family="Helvetica,sans-Serif" font-size="10.00" fill="#000000">/sixlowpan/internal.h</text>
</g>
<!-- Node1 -->
<g id="node2" class="node">
<title>Node1</title>
<polygon fill="none" stroke="#bfbfbf" points="1344,-.5 1344,-19.5 1396,-19.5 1396,-.5 1344,-.5"/>
<text text-anchor="middle" x="1370" y="-7.5" font-family="Helvetica,sans-Serif" font-size="10.00" fill="#000000">stddef.h</text>
</g>
<!-- Node0&#45;&gt;Node1 -->
<g id="edge1" class="edge">
<title>Node0&#45;&gt;Node1</title>
<path fill="none" stroke="#191970" d="M949.2658,-348.7693C1120.3816,-339.2956 1645,-304.5017 1645,-234 1645,-234 1645,-234 1645,-122 1645,-72.7548 1600.5491,-76.9873 1556,-56 1506.9012,-32.8693 1444.8335,-20.5375 1406.2724,-14.6352"/>
<polygon fill="#191970" stroke="#191970" points="1406.4517,-11.1242 1396.0499,-13.1373 1405.4368,-18.0502 1406.4517,-11.1242"/>
</g>
<!-- Node2 -->
<g id="node3" class="node">
<title>Node2</title>
<g id="a_node3"><a xlink:href="include_2net_2gnrc_2pkt_8h.html" target="_top" xlink:title="General definitions for network packets and their helper functions. ">
<polygon fill="none" stroke="#000000" points="815.5,-168.5 815.5,-187.5 892.5,-187.5 892.5,-168.5 815.5,-168.5"/>
<text text-anchor="middle" x="854" y="-175.5" font-family="Helvetica,sans-Serif" font-size="10.00" fill="#000000">net/gnrc/pkt.h</text>
</a>
</g>
</g>
<!-- Node0&#45;&gt;Node2 -->
<g id="edge2" class="edge">
<title>Node0&#45;&gt;Node2</title>
<path fill="none" stroke="#191970" d="M892.3462,-336.4065C884.7466,-305.0126 867.2405,-232.6961 858.7671,-197.6925"/>
<polygon fill="#191970" stroke="#191970" points="862.1119,-196.6338 856.3573,-187.738 855.3084,-198.2808 862.1119,-196.6338"/>
</g>
<!-- Node14 -->
<g id="node15" class="node">
<title>Node14</title>
<g id="a_node15"><a xlink:href="gnrc_2netif_8h.html" target="_top" xlink:title="Definition for GNRC&#39;s network interfaces. ">
<polygon fill="none" stroke="#000000" points="786,-280.5 786,-299.5 868,-299.5 868,-280.5 786,-280.5"/>
<text text-anchor="middle" x="827" y="-287.5" font-family="Helvetica,sans-Serif" font-size="10.00" fill="#000000">net/gnrc/netif.h</text>
</a>
</g>
</g>
<!-- Node0&#45;&gt;Node14 -->
<g id="edge19" class="edge">
<title>Node0&#45;&gt;Node14</title>
<path fill="none" stroke="#191970" d="M878.9438,-336.2977C868.8671,-327.3163 856.096,-315.9334 845.7389,-306.702"/>
<polygon fill="#191970" stroke="#191970" points="847.8417,-303.8879 838.0478,-299.8469 843.1841,-309.1135 847.8417,-303.8879"/>
</g>
<!-- Node3 -->
<g id="node4" class="node">
<title>Node3</title>
<g id="a_node4"><a xlink:href="inttypes_8h.html" target="_top" xlink:title="Adds include for missing inttype definitions. ">
<polygon fill="none" stroke="#000000" points="795.5,-56.5 795.5,-75.5 854.5,-75.5 854.5,-56.5 795.5,-56.5"/>
<text text-anchor="middle" x="825" y="-63.5" font-family="Helvetica,sans-Serif" font-size="10.00" fill="#000000">inttypes.h</text>
</a>
</g>
</g>
<!-- Node2&#45;&gt;Node3 -->
<g id="edge3" class="edge">
<title>Node2&#45;&gt;Node3</title>
<path fill="none" stroke="#191970" d="M851.5275,-168.4509C846.7762,-150.1013 836.2869,-109.5908 830.0153,-85.3693"/>
<polygon fill="#191970" stroke="#191970" points="833.3612,-84.3283 827.4663,-75.5249 826.5847,-86.083 833.3612,-84.3283"/>
</g>
<!-- Node4 -->
<g id="node5" class="node">
<title>Node4</title>
<g id="a_node5"><a xlink:href="stdlib_8h.html" target="_top" xlink:title="stdlib.h wrapper for MSP430 ">
<polygon fill="none" stroke="#000000" points="870,-112.5 870,-131.5 918,-131.5 918,-112.5 870,-112.5"/>
<text text-anchor="middle" x="894" y="-119.5" font-family="Helvetica,sans-Serif" font-size="10.00" fill="#000000">stdlib.h</text>
</a>
</g>
</g>
<!-- Node2&#45;&gt;Node4 -->
<g id="edge4" class="edge">
<title>Node2&#45;&gt;Node4</title>
<path fill="none" stroke="#191970" d="M860.9675,-168.2455C866.5311,-160.4564 874.478,-149.3308 881.1829,-139.9439"/>
<polygon fill="#191970" stroke="#191970" points="884.148,-141.8144 887.1124,-131.6427 878.4519,-137.7457 884.148,-141.8144"/>
</g>
<!-- Node6 -->
<g id="node7" class="node">
<title>Node6</title>
<g id="a_node7"><a xlink:href="kernel__types_8h.html" target="_top" xlink:title="Types used by the kernel. ">
<polygon fill="none" stroke="#000000" points="734,-112.5 734,-131.5 814,-131.5 814,-112.5 734,-112.5"/>
<text text-anchor="middle" x="774" y="-119.5" font-family="Helvetica,sans-Serif" font-size="10.00" fill="#000000">kernel_types.h</text>
</a>
</g>
</g>
<!-- Node2&#45;&gt;Node6 -->
<g id="edge7" class="edge">
<title>Node2&#45;&gt;Node6</title>
<path fill="none" stroke="#191970" d="M840.0651,-168.2455C827.9053,-159.7337 810.0536,-147.2375 795.9715,-137.3801"/>
<polygon fill="#191970" stroke="#191970" points="797.9747,-134.51 787.7752,-131.6427 793.9605,-140.2447 797.9747,-134.51"/>
</g>
<!-- Node10 -->
<g id="node11" class="node">
<title>Node10</title>
<g id="a_node11"><a xlink:href="nettype_8h.html" target="_top" xlink:title="Protocol type definitions. ">
<polygon fill="none" stroke="#000000" points="974.5,-112.5 974.5,-131.5 1069.5,-131.5 1069.5,-112.5 974.5,-112.5"/>
<text text-anchor="middle" x="1022" y="-119.5" font-family="Helvetica,sans-Serif" font-size="10.00" fill="#000000">net/gnrc/nettype.h</text>
</a>
</g>
</g>
<!-- Node2&#45;&gt;Node10 -->
<g id="edge13" class="edge">
<title>Node2&#45;&gt;Node10</title>
<path fill="none" stroke="#191970" d="M882.8802,-168.3733C910.8161,-159.0613 953.3142,-144.8953 983.9869,-134.671"/>
<polygon fill="#191970" stroke="#191970" points="985.1166,-137.9839 993.4966,-131.5011 982.903,-131.3431 985.1166,-137.9839"/>
</g>
<!-- Node5 -->
<g id="node6" class="node">
<title>Node5</title>
<g id="a_node6"><a xlink:href="malloc_8h.html" target="_top" xlink:title="malloc.h">
<polygon fill="none" stroke="#000000" points="872.5,-56.5 872.5,-75.5 925.5,-75.5 925.5,-56.5 872.5,-56.5"/>
<text text-anchor="middle" x="899" y="-63.5" font-family="Helvetica,sans-Serif" font-size="10.00" fill="#000000">malloc.h</text>
</a>
</g>
</g>
<!-- Node4&#45;&gt;Node5 -->
<g id="edge5" class="edge">
<title>Node4&#45;&gt;Node5</title>
<path fill="none" stroke="#191970" d="M889.6041,-112.2455C888.8455,-104.9382 889.3559,-94.6944 890.7612,-85.7046"/>
<polygon fill="#191970" stroke="#191970" points="894.2442,-86.1511 892.8939,-75.6427 887.3963,-84.6996 894.2442,-86.1511"/>
</g>
<!-- Node5&#45;&gt;Node4 -->
<g id="edge6" class="edge">
<title>Node5&#45;&gt;Node4</title>
<path fill="none" stroke="#191970" d="M903.3842,-75.6427C904.1642,-82.9998 903.6453,-93.3803 902.214,-102.4538"/>
<polygon fill="#191970" stroke="#191970" points="898.7882,-101.737 900.1378,-112.2455 905.636,-103.189 898.7882,-101.737"/>
</g>
<!-- Node6&#45;&gt;Node1 -->
<g id="edge11" class="edge">
<title>Node6&#45;&gt;Node1</title>
<path fill="none" stroke="#191970" d="M772.486,-112.206C770.8426,-97.5738 770.2729,-70.2102 786,-56 826.6085,-19.3081 1211.8157,-11.7977 1333.411,-10.3365"/>
<polygon fill="#191970" stroke="#191970" points="1333.7239,-13.8332 1343.6836,-10.22 1333.6445,-6.8337 1333.7239,-13.8332"/>
</g>
<!-- Node6&#45;&gt;Node3 -->
<g id="edge9" class="edge">
<title>Node6&#45;&gt;Node3</title>
<path fill="none" stroke="#191970" d="M782.8835,-112.2455C790.1966,-104.2155 800.7391,-92.6394 809.4467,-83.0781"/>
<polygon fill="#191970" stroke="#191970" points="812.0727,-85.3928 816.2183,-75.6427 806.8972,-80.6795 812.0727,-85.3928"/>
</g>
<!-- Node7 -->
<g id="node8" class="node">
<title>Node7</title>
<polygon fill="none" stroke="#bfbfbf" points="495.5,-.5 495.5,-19.5 544.5,-19.5 544.5,-.5 495.5,-.5"/>
<text text-anchor="middle" x="520" y="-7.5" font-family="Helvetica,sans-Serif" font-size="10.00" fill="#000000">stdint.h</text>
</g>
<!-- Node6&#45;&gt;Node7 -->
<g id="edge8" class="edge">
<title>Node6&#45;&gt;Node7</title>
<path fill="none" stroke="#191970" d="M733.7734,-113.8528C688.9738,-104.3876 619.7317,-88.4757 596,-76 572.2467,-63.513 549.6437,-42.2583 535.3581,-27.2478"/>
<polygon fill="#191970" stroke="#191970" points="537.684,-24.6081 528.3228,-19.6463 532.5466,-29.3628 537.684,-24.6081"/>
</g>
<!-- Node8 -->
<g id="node9" class="node">
<title>Node8</title>
<polygon fill="none" stroke="#bfbfbf" points="691,-56.5 691,-75.5 739,-75.5 739,-56.5 691,-56.5"/>
<text text-anchor="middle" x="715" y="-63.5" font-family="Helvetica,sans-Serif" font-size="10.00" fill="#000000">limits.h</text>
</g>
<!-- Node6&#45;&gt;Node8 -->
<g id="edge10" class="edge">
<title>Node6&#45;&gt;Node8</title>
<path fill="none" stroke="#191970" d="M763.723,-112.2455C755.1782,-104.1352 742.8222,-92.4075 732.6915,-82.7919"/>
<polygon fill="#191970" stroke="#191970" points="734.8218,-79.9884 725.1592,-75.6427 730.0028,-85.0655 734.8218,-79.9884"/>
</g>
<!-- Node9 -->
<g id="node10" class="node">
<title>Node9</title>
<polygon fill="none" stroke="#bfbfbf" points="605,-56.5 605,-75.5 673,-75.5 673,-56.5 605,-56.5"/>
<text text-anchor="middle" x="639" y="-63.5" font-family="Helvetica,sans-Serif" font-size="10.00" fill="#000000">sys/types.h</text>
</g>
<!-- Node6&#45;&gt;Node9 -->
<g id="edge12" class="edge">
<title>Node6&#45;&gt;Node9</title>
<path fill="none" stroke="#191970" d="M750.7927,-112.3733C728.8301,-103.2629 695.6668,-89.5062 671.1599,-79.3404"/>
<polygon fill="#191970" stroke="#191970" points="672.4824,-76.0999 661.9045,-75.5011 669.8003,-82.5657 672.4824,-76.0999"/>
</g>
<!-- Node10&#45;&gt;Node3 -->
<g id="edge14" class="edge">
<title>Node10&#45;&gt;Node3</title>
<path fill="none" stroke="#191970" d="M988.1345,-112.3733C953.7443,-102.5974 900.5341,-87.4716 864.3059,-77.1733"/>
<polygon fill="#191970" stroke="#191970" points="865.1438,-73.7728 854.5678,-74.4051 863.2297,-80.5061 865.1438,-73.7728"/>
</g>
<!-- Node11 -->
<g id="node12" class="node">
<title>Node11</title>
<g id="a_node12"><a xlink:href="kernel__defines_8h.html" target="_top" xlink:title="Common macros and compiler attributes/pragmas configuration. ">
<polygon fill="none" stroke="#000000" points="1178,-56.5 1178,-75.5 1266,-75.5 1266,-56.5 1178,-56.5"/>
<text text-anchor="middle" x="1222" y="-63.5" font-family="Helvetica,sans-Serif" font-size="10.00" fill="#000000">kernel_defines.h</text>
</a>
</g>
</g>
<!-- Node10&#45;&gt;Node11 -->
<g id="edge15" class="edge">
<title>Node10&#45;&gt;Node11</title>
<path fill="none" stroke="#191970" d="M1056.3812,-112.3733C1090.0701,-102.9404 1141.5482,-88.5265 1178.1618,-78.2747"/>
<polygon fill="#191970" stroke="#191970" points="1179.3815,-81.5679 1188.0674,-75.5011 1177.494,-74.8271 1179.3815,-81.5679"/>
</g>
<!-- Node12 -->
<g id="node13" class="node">
<title>Node12</title>
<g id="a_node13"><a xlink:href="ethertype_8h.html" target="_top" xlink:title="Ether type definitions. ">
<polygon fill="none" stroke="#000000" points="1078,-56.5 1078,-75.5 1160,-75.5 1160,-56.5 1078,-56.5"/>
<text text-anchor="middle" x="1119" y="-63.5" font-family="Helvetica,sans-Serif" font-size="10.00" fill="#000000">net/ethertype.h</text>
</a>
</g>
</g>
<!-- Node10&#45;&gt;Node12 -->
<g id="edge17" class="edge">
<title>Node10&#45;&gt;Node12</title>
<path fill="none" stroke="#191970" d="M1038.8961,-112.2455C1053.918,-103.5731 1076.1043,-90.7645 1093.321,-80.825"/>
<polygon fill="#191970" stroke="#191970" points="1095.3871,-83.6737 1102.2975,-75.6427 1091.8872,-77.6114 1095.3871,-83.6737"/>
</g>
<!-- Node13 -->
<g id="node14" class="node">
<title>Node13</title>
<g id="a_node14"><a xlink:href="protnum_8h.html" target="_top" xlink:title="Protocol number definitions. ">
<polygon fill="none" stroke="#000000" points="982.5,-56.5 982.5,-75.5 1059.5,-75.5 1059.5,-56.5 982.5,-56.5"/>
<text text-anchor="middle" x="1021" y="-63.5" font-family="Helvetica,sans-Serif" font-size="10.00" fill="#000000">net/protnum.h</text>
</a>
</g>
</g>
<!-- Node10&#45;&gt;Node13 -->
<g id="edge18" class="edge">
<title>Node10&#45;&gt;Node13</title>
<path fill="none" stroke="#191970" d="M1021.8258,-112.2455C1021.6953,-104.9382 1021.5124,-94.6944 1021.3519,-85.7046"/>
<polygon fill="#191970" stroke="#191970" points="1024.8503,-85.5786 1021.1722,-75.6427 1017.8514,-85.7036 1024.8503,-85.5786"/>
</g>
<!-- Node11&#45;&gt;Node1 -->
<g id="edge16" class="edge">
<title>Node11&#45;&gt;Node1</title>
<path fill="none" stroke="#191970" d="M1247.4421,-56.3733C1271.7326,-47.1822 1308.5208,-33.2624 1335.4543,-23.0713"/>
<polygon fill="#191970" stroke="#191970" points="1336.7757,-26.3136 1344.8899,-19.5011 1334.2984,-19.7666 1336.7757,-26.3136"/>
</g>
<!-- Node14&#45;&gt;Node1 -->
<g id="edge20" class="edge">
<title>Node14&#45;&gt;Node1</title>
<path fill="none" stroke="#191970" d="M868.302,-289.3928C993.6811,-287.1917 1368.4374,-277.8774 1485,-244 1544.1986,-226.7947 1607,-239.6481 1607,-178 1607,-178 1607,-178 1607,-122 1607,-78.1541 1472.7256,-36.8593 1406.3138,-19.1165"/>
<polygon fill="#191970" stroke="#191970" points="1406.8301,-15.6333 1396.2687,-16.4743 1405.0494,-22.403 1406.8301,-15.6333"/>
</g>
<!-- Node14&#45;&gt;Node2 -->
<g id="edge43" class="edge">
<title>Node14&#45;&gt;Node2</title>
<path fill="none" stroke="#191970" d="M829.6655,-280.1523C832.1595,-270.8536 835.9479,-256.5083 839,-244 842.7865,-228.4819 846.7812,-210.8344 849.6953,-197.6945"/>
<polygon fill="#191970" stroke="#191970" points="853.1278,-198.3817 851.8607,-187.8629 846.2916,-196.8759 853.1278,-198.3817"/>
</g>
<!-- Node14&#45;&gt;Node6 -->
<g id="edge23" class="edge">
<title>Node14&#45;&gt;Node6</title>
<path fill="none" stroke="#191970" d="M785.9002,-284.6203C760.8591,-278.9894 730.7426,-267.4844 715,-244 691.4762,-208.9079 729.9814,-163.0205 755.0713,-138.7476"/>
<polygon fill="#191970" stroke="#191970" points="757.7321,-141.0515 762.6503,-131.6674 752.9536,-135.9363 757.7321,-141.0515"/>
</g>
<!-- Node14&#45;&gt;Node7 -->
<g id="edge21" class="edge">
<title>Node14&#45;&gt;Node7</title>
<path fill="none" stroke="#191970" d="M785.9889,-288.8173C619.1174,-283.4714 0,-258.2312 0,-178 0,-178 0,-178 0,-122 0,-58.7826 65.5943,-74.6439 126,-56 192.8236,-35.3752 401.6035,-18.5232 485.0386,-12.439"/>
<polygon fill="#191970" stroke="#191970" points="485.5428,-15.9118 495.2652,-11.7016 485.0393,-8.9299 485.5428,-15.9118"/>
</g>
<!-- Node15 -->
<g id="node16" class="node">
<title>Node15</title>
<polygon fill="none" stroke="#bfbfbf" points="135,-56.5 135,-75.5 191,-75.5 191,-56.5 135,-56.5"/>
<text text-anchor="middle" x="163" y="-63.5" font-family="Helvetica,sans-Serif" font-size="10.00" fill="#000000">stdbool.h</text>
</g>
<!-- Node14&#45;&gt;Node15 -->
<g id="edge22" class="edge">
<title>Node14&#45;&gt;Node15</title>
<path fill="none" stroke="#191970" d="M785.8697,-288.2222C678.6351,-283.2972 392.4957,-268.2202 301,-244 185.6499,-213.4652 121.4142,-232.4432 57,-132 37.6632,-101.8474 87.4479,-83.1229 125.1813,-73.6357"/>
<polygon fill="#191970" stroke="#191970" points="126.0318,-77.0311 134.9505,-71.312 124.412,-70.2211 126.0318,-77.0311"/>
</g>
<!-- Node16 -->
<g id="node17" class="node">
<title>Node16</title>
<g id="a_node17"><a xlink:href="msg_8h.html" target="_top" xlink:title="Messaging API for inter process communication. ">
<polygon fill="none" stroke="#000000" points="474,-168.5 474,-187.5 518,-187.5 518,-168.5 474,-168.5"/>
<text text-anchor="middle" x="496" y="-175.5" font-family="Helvetica,sans-Serif" font-size="10.00" fill="#000000">msg.h</text>
</a>
</g>
</g>
<!-- Node14&#45;&gt;Node16 -->
<g id="edge24" class="edge">
<title>Node14&#45;&gt;Node16</title>
<path fill="none" stroke="#191970" d="M792.9114,-280.4379C763.2735,-271.8285 719.348,-258.3534 682,-244 661.9488,-236.294 658.0277,-231.7669 638,-224 600.8263,-209.5838 557.0436,-195.8802 528.0238,-187.2401"/>
<polygon fill="#191970" stroke="#191970" points="528.9917,-183.8766 518.4099,-184.4023 527.0099,-190.5902 528.9917,-183.8766"/>
</g>
<!-- Node17 -->
<g id="node18" class="node">
<title>Node17</title>
<polygon fill="none" stroke="#bfbfbf" points="580.5,-224.5 580.5,-243.5 629.5,-243.5 629.5,-224.5 580.5,-224.5"/>
<text text-anchor="middle" x="605" y="-231.5" font-family="Helvetica,sans-Serif" font-size="10.00" fill="#000000">event.h</text>
</g>
<!-- Node14&#45;&gt;Node17 -->
<g id="edge28" class="edge">
<title>Node14&#45;&gt;Node17</title>
<path fill="none" stroke="#191970" d="M788.7825,-280.4494C751.7515,-271.1821 694.0091,-256.6966 644,-244 642.5603,-243.6345 641.0909,-243.2608 639.6067,-242.8827"/>
<polygon fill="#191970" stroke="#191970" points="640.3082,-239.4495 629.753,-240.3657 638.5757,-246.2318 640.3082,-239.4495"/>
</g>
<!-- Node18 -->
<g id="node19" class="node">
<title>Node18</title>
<g id="a_node19"><a xlink:href="ipv6_2addr_8h.html" target="_top" xlink:title="Definitions for IPv6 addresses. ">
<polygon fill="none" stroke="#000000" points="210.5,-168.5 210.5,-187.5 291.5,-187.5 291.5,-168.5 210.5,-168.5"/>
<text text-anchor="middle" x="251" y="-175.5" font-family="Helvetica,sans-Serif" font-size="10.00" fill="#000000">net/ipv6/addr.h</text>
</a>
</g>
</g>
<!-- Node14&#45;&gt;Node18 -->
<g id="edge29" class="edge">
<title>Node14&#45;&gt;Node18</title>
<path fill="none" stroke="#191970" d="M785.9271,-288.9829C683.7044,-285.9984 420.2628,-275.4014 339,-244 310.8324,-233.1155 283.8876,-210.4967 267.4016,-194.7922"/>
<polygon fill="#191970" stroke="#191970" points="269.7798,-192.2222 260.1892,-187.7199 264.8788,-197.2203 269.7798,-192.2222"/>
</g>
<!-- Node22 -->
<g id="node23" class="node">
<title>Node22</title>
<g id="a_node23"><a xlink:href="netapi_8h.html" target="_top" xlink:title="Generic interface to communicate with GNRC modules. ">
<polygon fill="none" stroke="#000000" points="1141.5,-224.5 1141.5,-243.5 1230.5,-243.5 1230.5,-224.5 1141.5,-224.5"/>
<text text-anchor="middle" x="1186" y="-231.5" font-family="Helvetica,sans-Serif" font-size="10.00" fill="#000000">net/gnrc/netapi.h</text>
</a>
</g>
</g>
<!-- Node14&#45;&gt;Node22 -->
<g id="edge38" class="edge">
<title>Node14&#45;&gt;Node22</title>
<path fill="none" stroke="#191970" d="M868.1819,-283.5761C932.9568,-273.4719 1058.7068,-253.8563 1131.0972,-242.5642"/>
<polygon fill="#191970" stroke="#191970" points="1132.0359,-245.9602 1141.3769,-240.9607 1130.9569,-239.0439 1132.0359,-245.9602"/>
</g>
<!-- Node24 -->
<g id="node25" class="node">
<title>Node24</title>
<g id="a_node25"><a xlink:href="netopt_8h.html" target="_top" xlink:title="Definition of global configuration options. ">
<polygon fill="none" stroke="#000000" points="1268,-168.5 1268,-187.5 1336,-187.5 1336,-168.5 1268,-168.5"/>
<text text-anchor="middle" x="1302" y="-175.5" font-family="Helvetica,sans-Serif" font-size="10.00" fill="#000000">net/netopt.h</text>
</a>
</g>
</g>
<!-- Node14&#45;&gt;Node24 -->
<g id="edge70" class="edge">
<title>Node14&#45;&gt;Node24</title>
<path fill="none" stroke="#191970" d="M868.261,-288.9456C959.3193,-286.0529 1174.5065,-275.9468 1239,-244 1260.8329,-233.1851 1279.1729,-211.5402 1290.3356,-195.9835"/>
<polygon fill="#191970" stroke="#191970" points="1293.2783,-197.881 1296.0509,-187.6553 1287.5067,-193.9201 1293.2783,-197.881"/>
</g>
<!-- Node25 -->
<g id="node26" class="node">
<title>Node25</title>
<g id="a_node26"><a xlink:href="netif_2conf_8h.html" target="_top" xlink:title="Configuration macros for Network interface API. ">
<polygon fill="none" stroke="#000000" points="962,-224.5 962,-243.5 1066,-243.5 1066,-224.5 962,-224.5"/>
<text text-anchor="middle" x="1014" y="-231.5" font-family="Helvetica,sans-Serif" font-size="10.00" fill="#000000">net/gnrc/netif/conf.h</text>
</a>
</g>
</g>
<!-- Node14&#45;&gt;Node25 -->
<g id="edge44" class="edge">
<title>Node14&#45;&gt;Node25</title>
<path fill="none" stroke="#191970" d="M859.1464,-280.3733C890.5109,-270.9807 938.3665,-256.6496 972.5716,-246.4064"/>
<polygon fill="#191970" stroke="#191970" points="973.6975,-249.7229 982.273,-243.5011 971.6893,-243.0171 973.6975,-249.7229"/>
</g>
<!-- Node30 -->
<g id="node31" class="node">
<title>Node30</title>
<g id="a_node31"><a xlink:href="flags_8h.html" target="_top" xlink:title="Flag definitions for Network interface API. ">
<polygon fill="none" stroke="#000000" points="724,-224.5 724,-243.5 830,-243.5 830,-224.5 724,-224.5"/>
<text text-anchor="middle" x="777" y="-231.5" font-family="Helvetica,sans-Serif" font-size="10.00" fill="#000000">net/gnrc/netif/flags.h</text>
</a>
</g>
</g>
<!-- Node14&#45;&gt;Node30 -->
<g id="edge59" class="edge">
<title>Node14&#45;&gt;Node30</title>
<path fill="none" stroke="#191970" d="M818.2907,-280.2455C811.1927,-272.2958 800.9916,-260.8706 792.505,-251.3656"/>
<polygon fill="#191970" stroke="#191970" points="794.8805,-248.771 785.6095,-243.6427 789.6589,-253.4331 794.8805,-248.771"/>
</g>
<!-- Node31 -->
<g id="node32" class="node">
<title>Node31</title>
<g id="a_node32"><a xlink:href="ndp_8h.html" target="_top" xlink:title="IPv6 neighbor discovery message type definitions. ">
<polygon fill="none" stroke="#000000" points="348.5,-224.5 348.5,-243.5 405.5,-243.5 405.5,-224.5 348.5,-224.5"/>
<text text-anchor="middle" x="377" y="-231.5" font-family="Helvetica,sans-Serif" font-size="10.00" fill="#000000">net/ndp.h</text>
</a>
</g>
</g>
<!-- Node14&#45;&gt;Node31 -->
<g id="edge60" class="edge">
<title>Node14&#45;&gt;Node31</title>
<path fill="none" stroke="#191970" d="M785.8726,-284.8819C699.436,-274.1254 499.9674,-249.3026 415.697,-238.8156"/>
<polygon fill="#191970" stroke="#191970" points="416.126,-235.3421 405.7703,-237.5803 415.2615,-242.2885 416.126,-235.3421"/>
</g>
<!-- Node32 -->
<g id="node33" class="node">
<title>Node32</title>
<g id="a_node33"><a xlink:href="drivers_2include_2net_2netdev_8h.html" target="_top" xlink:title="Definitions low&#45;level network driver interface. ">
<polygon fill="none" stroke="#000000" points="1404.5,-224.5 1404.5,-243.5 1475.5,-243.5 1475.5,-224.5 1404.5,-224.5"/>
<text text-anchor="middle" x="1440" y="-231.5" font-family="Helvetica,sans-Serif" font-size="10.00" fill="#000000">net/netdev.h</text>
</a>
</g>
</g>
<!-- Node14&#45;&gt;Node32 -->
<g id="edge64" class="edge">
<title>Node14&#45;&gt;Node32</title>
<path fill="none" stroke="#191970" d="M868.1,-287.9884C960.6803,-283.1562 1192.5007,-269.3729 1385,-244 1388.0294,-243.6007 1391.1456,-243.1484 1394.2813,-242.6621"/>
<polygon fill="#191970" stroke="#191970" points="1394.9821,-246.0939 1404.2811,-241.0167 1393.8455,-239.1868 1394.9821,-246.0939"/>
</g>
<!-- Node36 -->
<g id="node37" class="node">
<title>Node36</title>
<g id="a_node37"><a xlink:href="rmutex_8h.html" target="_top" xlink:title="Recursive Mutex for thread synchronization. ">
<polygon fill="none" stroke="#000000" points="910.5,-168.5 910.5,-187.5 965.5,-187.5 965.5,-168.5 910.5,-168.5"/>
<text text-anchor="middle" x="938" y="-175.5" font-family="Helvetica,sans-Serif" font-size="10.00" fill="#000000">rmutex.h</text>
</a>
</g>
</g>
<!-- Node14&#45;&gt;Node36 -->
<g id="edge71" class="edge">
<title>Node14&#45;&gt;Node36</title>
<path fill="none" stroke="#191970" d="M836.4638,-280.4509C855.3049,-261.4401 897.7205,-218.6423 921.3341,-194.816"/>
<polygon fill="#191970" stroke="#191970" points="924.0068,-197.0914 928.5602,-187.5249 919.0349,-192.1639 924.0068,-197.0914"/>
</g>
<!-- Node40 -->
<g id="node41" class="node">
<title>Node40</title>
<g id="a_node41"><a xlink:href="netif_8h.html" target="_top" xlink:title="Common network interface API definitions. ">
<polygon fill="none" stroke="#000000" points="1316,-224.5 1316,-243.5 1376,-243.5 1376,-224.5 1316,-224.5"/>
<text text-anchor="middle" x="1346" y="-231.5" font-family="Helvetica,sans-Serif" font-size="10.00" fill="#000000">net/netif.h</text>
</a>
</g>
</g>
<!-- Node14&#45;&gt;Node40 -->
<g id="edge79" class="edge">
<title>Node14&#45;&gt;Node40</title>
<path fill="none" stroke="#191970" d="M868.2758,-286.6283C948.394,-279.9085 1130.5111,-263.7773 1283,-244 1290.3994,-243.0403 1298.2678,-241.8931 1305.8457,-240.7236"/>
<polygon fill="#191970" stroke="#191970" points="1306.5967,-244.1484 1315.9279,-239.1304 1305.5041,-237.2342 1306.5967,-244.1484"/>
</g>
<!-- Node16&#45;&gt;Node6 -->
<g id="edge27" class="edge">
<title>Node16&#45;&gt;Node6</title>
<path fill="none" stroke="#191970" d="M518.2834,-172.6557C524.9366,-171.1038 532.254,-169.4403 539,-168 620.9183,-150.5102 641.8197,-148.2138 724,-132 724.1004,-131.9802 724.201,-131.9603 724.3016,-131.9405"/>
<polygon fill="#191970" stroke="#191970" points="724.7573,-135.4183 733.8866,-130.0418 723.397,-128.5517 724.7573,-135.4183"/>
</g>
<!-- Node16&#45;&gt;Node7 -->
<g id="edge25" class="edge">
<title>Node16&#45;&gt;Node7</title>
<path fill="none" stroke="#191970" d="M477.6575,-168.4075C441.6228,-148.2887 367.6318,-99.9055 398,-56 408.254,-41.1751 452.9681,-26.9923 485.2967,-18.3905"/>
<polygon fill="#191970" stroke="#191970" points="486.4954,-21.6956 495.2985,-15.8 484.7403,-14.9192 486.4954,-21.6956"/>
</g>
<!-- Node16&#45;&gt;Node15 -->
<g id="edge26" class="edge">
<title>Node16&#45;&gt;Node15</title>
<path fill="none" stroke="#191970" d="M473.9019,-176.9951C413.2164,-173.8615 245.5517,-162.5803 201,-132 184.8802,-120.9354 174.704,-100.6316 168.9834,-85.4543"/>
<polygon fill="#191970" stroke="#191970" points="172.2751,-84.2633 165.7166,-75.9425 165.6547,-86.5371 172.2751,-84.2633"/>
</g>
<!-- Node18&#45;&gt;Node15 -->
<g id="edge30" class="edge">
<title>Node18&#45;&gt;Node15</title>
<path fill="none" stroke="#191970" d="M218.456,-168.4786C200.4574,-161.4312 179.4715,-149.8905 168,-132 159.2882,-118.4134 158.6307,-99.8685 159.812,-85.8957"/>
<polygon fill="#191970" stroke="#191970" points="163.3005,-86.2018 161.0348,-75.8521 156.3518,-85.3558 163.3005,-86.2018"/>
</g>
<!-- Node19 -->
<g id="node20" class="node">
<title>Node19</title>
<polygon fill="none" stroke="#bfbfbf" points="66.5,-112.5 66.5,-131.5 115.5,-131.5 115.5,-112.5 66.5,-112.5"/>
<text text-anchor="middle" x="91" y="-119.5" font-family="Helvetica,sans-Serif" font-size="10.00" fill="#000000">string.h</text>
</g>
<!-- Node18&#45;&gt;Node19 -->
<g id="edge31" class="edge">
<title>Node18&#45;&gt;Node19</title>
<path fill="none" stroke="#191970" d="M223.495,-168.3733C196.3206,-158.8622 154.6778,-144.2872 125.3447,-134.0207"/>
<polygon fill="#191970" stroke="#191970" points="126.1214,-130.5843 115.5265,-130.5843 123.8089,-137.1914 126.1214,-130.5843"/>
</g>
<!-- Node20 -->
<g id="node21" class="node">
<title>Node20</title>
<g id="a_node21"><a xlink:href="byteorder_8h.html" target="_top" xlink:title="Functions to work with different byte orders. ">
<polygon fill="none" stroke="#000000" points="407.5,-56.5 407.5,-75.5 472.5,-75.5 472.5,-56.5 407.5,-56.5"/>
<text text-anchor="middle" x="440" y="-63.5" font-family="Helvetica,sans-Serif" font-size="10.00" fill="#000000">byteorder.h</text>
</a>
</g>
</g>
<!-- Node18&#45;&gt;Node20 -->
<g id="edge32" class="edge">
<title>Node18&#45;&gt;Node20</title>
<path fill="none" stroke="#191970" d="M267.114,-168.4509C300.1713,-148.8615 375.8493,-104.0152 415.203,-80.6945"/>
<polygon fill="#191970" stroke="#191970" points="417.1081,-83.634 423.9268,-75.5249 413.5395,-77.6119 417.1081,-83.634"/>
</g>
<!-- Node21 -->
<g id="node22" class="node">
<title>Node21</title>
<g id="a_node22"><a xlink:href="ipv4_2addr_8h.html" target="_top" xlink:title="IPv6 address type and helper functions definitions. ">
<polygon fill="none" stroke="#000000" points="210.5,-112.5 210.5,-131.5 291.5,-131.5 291.5,-112.5 210.5,-112.5"/>
<text text-anchor="middle" x="251" y="-119.5" font-family="Helvetica,sans-Serif" font-size="10.00" fill="#000000">net/ipv4/addr.h</text>
</a>
</g>
</g>
<!-- Node18&#45;&gt;Node21 -->
<g id="edge34" class="edge">
<title>Node18&#45;&gt;Node21</title>
<path fill="none" stroke="#191970" d="M251,-168.2455C251,-160.9382 251,-150.6944 251,-141.7046"/>
<polygon fill="#191970" stroke="#191970" points="254.5001,-141.6426 251,-131.6427 247.5001,-141.6427 254.5001,-141.6426"/>
</g>
<!-- Node20&#45;&gt;Node7 -->
<g id="edge33" class="edge">
<title>Node20&#45;&gt;Node7</title>
<path fill="none" stroke="#191970" d="M453.9349,-56.2455C466.0947,-47.7337 483.9464,-35.2375 498.0285,-25.3801"/>
<polygon fill="#191970" stroke="#191970" points="500.0395,-28.2447 506.2248,-19.6427 496.0253,-22.51 500.0395,-28.2447"/>
</g>
<!-- Node21&#45;&gt;Node7 -->
<g id="edge36" class="edge">
<title>Node21&#45;&gt;Node7</title>
<path fill="none" stroke="#191970" d="M256.3073,-112.1652C264.772,-97.4796 282.7711,-70.0473 306,-56 335.8135,-37.9707 432.7111,-22.1689 485.2951,-14.6536"/>
<polygon fill="#191970" stroke="#191970" points="486.0801,-18.0777 495.4958,-13.2203 485.1061,-11.1458 486.0801,-18.0777"/>
</g>
<!-- Node21&#45;&gt;Node15 -->
<g id="edge35" class="edge">
<title>Node21&#45;&gt;Node15</title>
<path fill="none" stroke="#191970" d="M235.6716,-112.2455C222.1697,-103.6534 202.2878,-91.0014 186.7314,-81.1018"/>
<polygon fill="#191970" stroke="#191970" points="188.4685,-78.0587 178.1528,-75.6427 184.7103,-83.9643 188.4685,-78.0587"/>
</g>
<!-- Node21&#45;&gt;Node20 -->
<g id="edge37" class="edge">
<title>Node21&#45;&gt;Node20</title>
<path fill="none" stroke="#191970" d="M283.4903,-112.3733C315.1902,-102.9807 363.5576,-88.6496 398.1286,-78.4064"/>
<polygon fill="#191970" stroke="#191970" points="399.3401,-81.6979 407.9337,-75.5011 397.3514,-74.9863 399.3401,-81.6979"/>
</g>
<!-- Node22&#45;&gt;Node2 -->
<g id="edge42" class="edge">
<title>Node22&#45;&gt;Node2</title>
<path fill="none" stroke="#191970" d="M1141.4524,-227.5095C1087.2378,-219.4555 992.6815,-204.9115 902.5328,-188.2249"/>
<polygon fill="#191970" stroke="#191970" points="903.1701,-184.7835 892.6982,-186.3926 901.8879,-191.6651 903.1701,-184.7835"/>
</g>
<!-- Node22&#45;&gt;Node10 -->
<g id="edge41" class="edge">
<title>Node22&#45;&gt;Node10</title>
<path fill="none" stroke="#191970" d="M1197.7695,-224.3849C1212.8351,-210.9194 1235.3691,-186.0695 1221,-168 1216.4976,-162.3381 1136.8598,-145.2002 1079.7148,-133.5194"/>
<polygon fill="#191970" stroke="#191970" points="1080.1831,-130.0431 1069.6859,-131.4781 1078.7869,-136.9024 1080.1831,-130.0431"/>
</g>
<!-- Node23 -->
<g id="node24" class="node">
<title>Node23</title>
<polygon fill="none" stroke="#bfbfbf" points="1160,-168.5 1160,-187.5 1212,-187.5 1212,-168.5 1160,-168.5"/>
<text text-anchor="middle" x="1186" y="-175.5" font-family="Helvetica,sans-Serif" font-size="10.00" fill="#000000">thread.h</text>
</g>
<!-- Node22&#45;&gt;Node23 -->
<g id="edge39" class="edge">
<title>Node22&#45;&gt;Node23</title>
<path fill="none" stroke="#191970" d="M1186,-224.2455C1186,-216.9382 1186,-206.6944 1186,-197.7046"/>
<polygon fill="#191970" stroke="#191970" points="1189.5001,-197.6426 1186,-187.6427 1182.5001,-197.6427 1189.5001,-197.6426"/>
</g>
<!-- Node22&#45;&gt;Node24 -->
<g id="edge40" class="edge">
<title>Node22&#45;&gt;Node24</title>
<path fill="none" stroke="#191970" d="M1205.9411,-224.3733C1224.4786,-215.4241 1252.3028,-201.9917 1273.2413,-191.8835"/>
<polygon fill="#191970" stroke="#191970" points="1274.8352,-195.0006 1282.3191,-187.5011 1271.7919,-188.6967 1274.8352,-195.0006"/>
</g>
<!-- Node25&#45;&gt;Node11 -->
<g id="edge45" class="edge">
<title>Node25&#45;&gt;Node11</title>
<path fill="none" stroke="#191970" d="M1010.4049,-224.281C1005.8973,-210.2359 1000.2049,-184.1794 1013,-168 1056.0637,-113.5457 1105.6512,-168.0204 1165,-132 1184.5072,-120.1606 1200.8022,-99.385 1210.9058,-84.2993"/>
<polygon fill="#191970" stroke="#191970" points="1213.9214,-86.0803 1216.37,-75.7723 1208.0277,-82.3035 1213.9214,-86.0803"/>
</g>
<!-- Node25&#45;&gt;Node23 -->
<g id="edge58" class="edge">
<title>Node25&#45;&gt;Node23</title>
<path fill="none" stroke="#191970" d="M1043.5679,-224.3733C1073.1222,-214.7509 1118.5961,-199.9455 1150.1808,-189.6621"/>
<polygon fill="#191970" stroke="#191970" points="1151.4846,-192.9185 1159.9098,-186.4945 1149.3175,-186.2624 1151.4846,-192.9185"/>
</g>
<!-- Node26 -->
<g id="node27" class="node">
<title>Node26</title>
<g id="a_node27"><a xlink:href="sys_2include_2net_2ieee802154_8h.html" target="_top" xlink:title="IEEE 802.15.4 header definitions. ">
<polygon fill="none" stroke="#000000" points="548.5,-168.5 548.5,-187.5 639.5,-187.5 639.5,-168.5 548.5,-168.5"/>
<text text-anchor="middle" x="594" y="-175.5" font-family="Helvetica,sans-Serif" font-size="10.00" fill="#000000">net/ieee802154.h</text>
</a>
</g>
</g>
<!-- Node25&#45;&gt;Node26 -->
<g id="edge46" class="edge">
<title>Node25&#45;&gt;Node26</title>
<path fill="none" stroke="#191970" d="M961.6559,-227.0208C882.0488,-216.4065 731.2107,-196.2948 649.6701,-185.4227"/>
<polygon fill="#191970" stroke="#191970" points="649.9738,-181.9323 639.5989,-184.0799 649.0486,-188.8709 649.9738,-181.9323"/>
</g>
<!-- Node28 -->
<g id="node29" class="node">
<title>Node28</title>
<g id="a_node29"><a xlink:href="net_2ethernet_2hdr_8h.html" target="_top" xlink:title="Ethernet header definitions. ">
<polygon fill="none" stroke="#000000" points="622.5,-112.5 622.5,-131.5 715.5,-131.5 715.5,-112.5 622.5,-112.5"/>
<text text-anchor="middle" x="669" y="-119.5" font-family="Helvetica,sans-Serif" font-size="10.00" fill="#000000">net/ethernet/hdr.h</text>
</a>
</g>
</g>
<!-- Node25&#45;&gt;Node28 -->
<g id="edge53" class="edge">
<title>Node25&#45;&gt;Node28</title>
<path fill="none" stroke="#191970" d="M961.7937,-225.9081C919.1613,-218.4839 857.7236,-205.9074 806,-188 765.6066,-174.0153 721.5067,-151.3197 694.5464,-136.5258"/>
<polygon fill="#191970" stroke="#191970" points="696.2015,-133.4414 685.7592,-131.6497 692.805,-139.5622 696.2015,-133.4414"/>
</g>
<!-- Node29 -->
<g id="node30" class="node">
<title>Node29</title>
<g id="a_node30"><a xlink:href="ipv6_2nib_2conf_8h.html" target="_top" xlink:title="Configuration macro definitions for neighbor information base. ">
<polygon fill="none" stroke="#000000" points="1022.5,-168.5 1022.5,-187.5 1141.5,-187.5 1141.5,-168.5 1022.5,-168.5"/>
<text text-anchor="middle" x="1082" y="-175.5" font-family="Helvetica,sans-Serif" font-size="10.00" fill="#000000">net/gnrc/ipv6/nib/conf.h</text>
</a>
</g>
</g>
<!-- Node25&#45;&gt;Node29 -->
<g id="edge56" class="edge">
<title>Node25&#45;&gt;Node29</title>
<path fill="none" stroke="#191970" d="M1025.8447,-224.2455C1035.888,-215.9746 1050.4995,-203.9416 1062.3004,-194.2232"/>
<polygon fill="#191970" stroke="#191970" points="1064.7967,-196.7015 1070.291,-187.6427 1060.3467,-191.298 1064.7967,-196.7015"/>
</g>
<!-- Node26&#45;&gt;Node4 -->
<g id="edge48" class="edge">
<title>Node26&#45;&gt;Node4</title>
<path fill="none" stroke="#191970" d="M639.5635,-169.4948C700.1093,-158.1929 805.7217,-138.4786 859.8632,-128.3722"/>
<polygon fill="#191970" stroke="#191970" points="860.7886,-131.76 869.9766,-126.4844 859.5041,-124.8789 860.7886,-131.76"/>
</g>
<!-- Node26&#45;&gt;Node7 -->
<g id="edge47" class="edge">
<title>Node26&#45;&gt;Node7</title>
<path fill="none" stroke="#191970" d="M591.7117,-168.401C588.4672,-155.3737 582.0225,-131.4854 574,-112 561.4789,-81.5881 542.8146,-48.2422 531.0323,-28.2272"/>
<polygon fill="#191970" stroke="#191970" points="533.9837,-26.3427 525.8581,-19.5438 527.9703,-29.9259 533.9837,-26.3427"/>
</g>
<!-- Node26&#45;&gt;Node20 -->
<g id="edge49" class="edge">
<title>Node26&#45;&gt;Node20</title>
<path fill="none" stroke="#191970" d="M562.0629,-168.3393C540.5139,-160.7697 512.2429,-148.7079 491,-132 474.1938,-118.7816 459.8081,-98.8548 450.6417,-84.3556"/>
<polygon fill="#191970" stroke="#191970" points="453.586,-82.461 445.3988,-75.7363 447.6055,-86.0988 453.586,-82.461"/>
</g>
<!-- Node27 -->
<g id="node28" class="node">
<title>Node27</title>
<g id="a_node28"><a xlink:href="eui64_8h.html" target="_top" xlink:title="EUI&#45;64 data type definition. ">
<polygon fill="none" stroke="#000000" points="500.5,-112.5 500.5,-131.5 565.5,-131.5 565.5,-112.5 500.5,-112.5"/>
<text text-anchor="middle" x="533" y="-119.5" font-family="Helvetica,sans-Serif" font-size="10.00" fill="#000000">net/eui64.h</text>
</a>
</g>
</g>
<!-- Node26&#45;&gt;Node27 -->
<g id="edge50" class="edge">
<title>Node26&#45;&gt;Node27</title>
<path fill="none" stroke="#191970" d="M583.3746,-168.2455C574.4527,-160.0549 561.512,-148.1749 550.9808,-138.5069"/>
<polygon fill="#191970" stroke="#191970" points="553.2371,-135.8271 543.5036,-131.6427 548.5032,-140.9837 553.2371,-135.8271"/>
</g>
<!-- Node27&#45;&gt;Node7 -->
<g id="edge51" class="edge">
<title>Node27&#45;&gt;Node7</title>
<path fill="none" stroke="#191970" d="M531.0069,-112.1707C529.1916,-102.885 526.5628,-88.5484 525,-76 523.0888,-60.654 521.8052,-43.2031 521.0176,-30.1014"/>
<polygon fill="#191970" stroke="#191970" points="524.4986,-29.6603 520.4498,-19.8696 517.5093,-30.0482 524.4986,-29.6603"/>
</g>
<!-- Node27&#45;&gt;Node20 -->
<g id="edge52" class="edge">
<title>Node27&#45;&gt;Node20</title>
<path fill="none" stroke="#191970" d="M516.8006,-112.2455C502.3982,-103.5731 481.1268,-90.7645 464.6201,-80.825"/>
<polygon fill="#191970" stroke="#191970" points="466.386,-77.8028 456.0137,-75.6427 462.775,-83.7996 466.386,-77.8028"/>
</g>
<!-- Node28&#45;&gt;Node3 -->
<g id="edge54" class="edge">
<title>Node28&#45;&gt;Node3</title>
<path fill="none" stroke="#191970" d="M695.8174,-112.3733C721.5332,-103.1419 760.538,-89.1402 788.9599,-78.9375"/>
<polygon fill="#191970" stroke="#191970" points="790.3032,-82.174 798.5326,-75.5011 787.9381,-75.5857 790.3032,-82.174"/>
</g>
<!-- Node28&#45;&gt;Node20 -->
<g id="edge55" class="edge">
<title>Node28&#45;&gt;Node20</title>
<path fill="none" stroke="#191970" d="M629.8937,-112.4369C588.9429,-102.4227 524.8306,-86.7446 482.6133,-76.4207"/>
<polygon fill="#191970" stroke="#191970" points="483.1876,-72.9581 472.6424,-73.9824 481.5247,-79.7577 483.1876,-72.9581"/>
</g>
<!-- Node29&#45;&gt;Node11 -->
<g id="edge57" class="edge">
<title>Node29&#45;&gt;Node11</title>
<path fill="none" stroke="#191970" d="M1130.6713,-168.4644C1153.7058,-161.7298 1180.0342,-150.49 1198,-132 1210.1871,-119.4572 1216.2518,-100.25 1219.2289,-85.7842"/>
<polygon fill="#191970" stroke="#191970" points="1222.694,-86.2862 1220.9539,-75.8352 1215.7969,-85.0902 1222.694,-86.2862"/>
</g>
<!-- Node31&#45;&gt;Node7 -->
<g id="edge61" class="edge">
<title>Node31&#45;&gt;Node7</title>
<path fill="none" stroke="#191970" d="M374.1693,-224.264C366.3672,-195.2419 347.6346,-108.1101 387,-56 399.0635,-40.0309 450.1557,-25.6619 485.3831,-17.385"/>
<polygon fill="#191970" stroke="#191970" points="486.3312,-20.7586 495.2986,-15.1163 484.7699,-13.9349 486.3312,-20.7586"/>
</g>
<!-- Node31&#45;&gt;Node18 -->
<g id="edge63" class="edge">
<title>Node31&#45;&gt;Node18</title>
<path fill="none" stroke="#191970" d="M355.3398,-224.3733C335.0228,-215.3435 304.436,-201.7494 281.625,-191.6111"/>
<polygon fill="#191970" stroke="#191970" points="282.9372,-188.3642 272.3775,-187.5011 280.0941,-194.7609 282.9372,-188.3642"/>
</g>
<!-- Node31&#45;&gt;Node20 -->
<g id="edge62" class="edge">
<title>Node31&#45;&gt;Node20</title>
<path fill="none" stroke="#191970" d="M380.5677,-224.4862C390.6127,-197.6994 419.2788,-121.2565 432.7892,-85.2289"/>
<polygon fill="#191970" stroke="#191970" points="436.0804,-86.4201 436.3145,-75.8279 429.5261,-83.9622 436.0804,-86.4201"/>
</g>
<!-- Node32&#45;&gt;Node7 -->
<g id="edge65" class="edge">
<title>Node32&#45;&gt;Node7</title>
<path fill="none" stroke="#191970" d="M1442.0137,-224.0925C1448.6327,-190.2795 1468.0152,-80.1882 1445,-56 1413.7517,-23.1591 719.5414,-12.4797 554.8258,-10.4037"/>
<polygon fill="#191970" stroke="#191970" points="554.7972,-6.9032 544.7547,-10.2793 554.7106,-13.9027 554.7972,-6.9032"/>
</g>
<!-- Node32&#45;&gt;Node24 -->
<g id="edge69" class="edge">
<title>Node32&#45;&gt;Node24</title>
<path fill="none" stroke="#191970" d="M1416.277,-224.3733C1393.8263,-215.2629 1359.9261,-201.5062 1334.8745,-191.3404"/>
<polygon fill="#191970" stroke="#191970" points="1335.9957,-188.0182 1325.4135,-187.5011 1333.3635,-194.5045 1335.9957,-188.0182"/>
</g>
<!-- Node33 -->
<g id="node34" class="node">
<title>Node33</title>
<g id="a_node34"><a xlink:href="errno_8h.html" target="_top" xlink:title="errno.h">
<polygon fill="none" stroke="#000000" points="1468.5,-168.5 1468.5,-187.5 1515.5,-187.5 1515.5,-168.5 1468.5,-168.5"/>
<text text-anchor="middle" x="1492" y="-175.5" font-family="Helvetica,sans-Serif" font-size="10.00" fill="#000000">errno.h</text>
</a>
</g>
</g>
<!-- Node32&#45;&gt;Node33 -->
<g id="edge66" class="edge">
<title>Node32&#45;&gt;Node33</title>
<path fill="none" stroke="#191970" d="M1449.0577,-224.2455C1456.5142,-216.2155 1467.2634,-204.6394 1476.1417,-195.0781"/>
<polygon fill="#191970" stroke="#191970" points="1478.8063,-197.3522 1483.0461,-187.6427 1473.6768,-192.589 1478.8063,-197.3522"/>
</g>
<!-- Node34 -->
<g id="node35" class="node">
<title>Node34</title>
<g id="a_node35"><a xlink:href="iolist_8h.html" target="_top" xlink:title="iolist scatter / gather IO ">
<polygon fill="none" stroke="#000000" points="1533.5,-168.5 1533.5,-187.5 1578.5,-187.5 1578.5,-168.5 1533.5,-168.5"/>
<text text-anchor="middle" x="1556" y="-175.5" font-family="Helvetica,sans-Serif" font-size="10.00" fill="#000000">iolist.h</text>
</a>
</g>
</g>
<!-- Node32&#45;&gt;Node34 -->
<g id="edge67" class="edge">
<title>Node32&#45;&gt;Node34</title>
<path fill="none" stroke="#191970" d="M1459.9411,-224.3733C1478.4786,-215.4241 1506.3028,-201.9917 1527.2413,-191.8835"/>
<polygon fill="#191970" stroke="#191970" points="1528.8352,-195.0006 1536.3191,-187.5011 1525.7919,-188.6967 1528.8352,-195.0006"/>
</g>
<!-- Node35 -->
<g id="node36" class="node">
<title>Node35</title>
<polygon fill="none" stroke="#bfbfbf" points="1527.5,-112.5 1527.5,-131.5 1578.5,-131.5 1578.5,-112.5 1527.5,-112.5"/>
<text text-anchor="middle" x="1553" y="-119.5" font-family="Helvetica,sans-Serif" font-size="10.00" fill="#000000">unistd.h</text>
</g>
<!-- Node34&#45;&gt;Node35 -->
<g id="edge68" class="edge">
<title>Node34&#45;&gt;Node35</title>
<path fill="none" stroke="#191970" d="M1555.4774,-168.2455C1555.086,-160.9382 1554.5372,-150.6944 1554.0556,-141.7046"/>
<polygon fill="#191970" stroke="#191970" points="1557.5466,-141.4411 1553.5166,-131.6427 1550.5566,-141.8156 1557.5466,-141.4411"/>
</g>
<!-- Node36&#45;&gt;Node6 -->
<g id="edge78" class="edge">
<title>Node36&#45;&gt;Node6</title>
<path fill="none" stroke="#191970" d="M910.1796,-168.5004C883.0849,-159.2485 841.7056,-145.119 811.6707,-134.8632"/>
<polygon fill="#191970" stroke="#191970" points="812.5514,-131.4655 801.9568,-131.5462 810.2893,-138.09 812.5514,-131.4655"/>
</g>
<!-- Node36&#45;&gt;Node7 -->
<g id="edge72" class="edge">
<title>Node36&#45;&gt;Node7</title>
<path fill="none" stroke="#191970" d="M941.4213,-168.1998C948.7536,-145.2171 963.0682,-87.4251 934,-56 908.4074,-28.3324 649.9657,-15.222 554.873,-11.3072"/>
<polygon fill="#191970" stroke="#191970" points="554.7616,-7.8 544.629,-10.8952 554.4803,-14.7943 554.7616,-7.8"/>
</g>
<!-- Node37 -->
<g id="node38" class="node">
<title>Node37</title>
<polygon fill="none" stroke="#bfbfbf" points="1088,-112.5 1088,-131.5 1156,-131.5 1156,-112.5 1088,-112.5"/>
<text text-anchor="middle" x="1122" y="-119.5" font-family="Helvetica,sans-Serif" font-size="10.00" fill="#000000">stdatomic.h</text>
</g>
<!-- Node36&#45;&gt;Node37 -->
<g id="edge73" class="edge">
<title>Node36&#45;&gt;Node37</title>
<path fill="none" stroke="#191970" d="M965.5467,-169.6162C996.023,-160.3408 1045.4627,-145.294 1080.6038,-134.5989"/>
<polygon fill="#191970" stroke="#191970" points="1082.0127,-137.8286 1090.5604,-131.5686 1079.9746,-131.1319 1082.0127,-137.8286"/>
</g>
<!-- Node38 -->
<g id="node39" class="node">
<title>Node38</title>
<g id="a_node39"><a xlink:href="mutex_8h.html" target="_top" xlink:title="Mutex for thread synchronization. ">
<polygon fill="none" stroke="#000000" points="1322,-112.5 1322,-131.5 1374,-131.5 1374,-112.5 1322,-112.5"/>
<text text-anchor="middle" x="1348" y="-119.5" font-family="Helvetica,sans-Serif" font-size="10.00" fill="#000000">mutex.h</text>
</a>
</g>
</g>
<!-- Node36&#45;&gt;Node38 -->
<g id="edge74" class="edge">
<title>Node36&#45;&gt;Node38</title>
<path fill="none" stroke="#191970" d="M965.5379,-174.2387C1037.4489,-164.4167 1230.8944,-137.9949 1311.7264,-126.9544"/>
<polygon fill="#191970" stroke="#191970" points="1312.4774,-130.3844 1321.9117,-125.5633 1311.5301,-123.4488 1312.4774,-130.3844"/>
</g>
<!-- Node38&#45;&gt;Node1 -->
<g id="edge75" class="edge">
<title>Node38&#45;&gt;Node1</title>
<path fill="none" stroke="#191970" d="M1349.8757,-112.4509C1353.4801,-94.1013 1361.4375,-53.5908 1366.1953,-29.3693"/>
<polygon fill="#191970" stroke="#191970" points="1369.6359,-30.012 1368.129,-19.5249 1362.7671,-28.6627 1369.6359,-30.012"/>
</g>
<!-- Node38&#45;&gt;Node7 -->
<g id="edge76" class="edge">
<title>Node38&#45;&gt;Node7</title>
<path fill="none" stroke="#191970" d="M1345.2991,-112.293C1340.5431,-97.2506 1329.1183,-68.7199 1308,-56 1242.8648,-16.768 698.373,-10.9866 554.6645,-10.1427"/>
<polygon fill="#191970" stroke="#191970" points="554.6612,-6.6428 544.6423,-10.0882 554.6231,-13.6427 554.6612,-6.6428"/>
</g>
<!-- Node39 -->
<g id="node40" class="node">
<title>Node39</title>
<g id="a_node40"><a xlink:href="list_8h.html" target="_top" xlink:title="Intrusive linked list. ">
<polygon fill="none" stroke="#000000" points="1398,-56.5 1398,-75.5 1436,-75.5 1436,-56.5 1398,-56.5"/>
<text text-anchor="middle" x="1417" y="-63.5" font-family="Helvetica,sans-Serif" font-size="10.00" fill="#000000">list.h</text>
</a>
</g>
</g>
<!-- Node38&#45;&gt;Node39 -->
<g id="edge77" class="edge">
<title>Node38&#45;&gt;Node39</title>
<path fill="none" stroke="#191970" d="M1360.0189,-112.2455C1370.2098,-103.9746 1385.0362,-91.9416 1397.0107,-82.2232"/>
<polygon fill="#191970" stroke="#191970" points="1399.5598,-84.662 1405.1188,-75.6427 1395.1486,-79.2268 1399.5598,-84.662"/>
</g>
<!-- Node40&#45;&gt;Node7 -->
<g id="edge80" class="edge">
<title>Node40&#45;&gt;Node7</title>
<path fill="none" stroke="#191970" d="M1347.9097,-224.1995C1350.0416,-210.9438 1352.3103,-186.7975 1345,-168 1337.2409,-148.0484 1325.0015,-149.7267 1313,-132 1291.828,-100.7283 1306.5057,-76.8222 1275,-56 1244.6059,-35.9125 699.4202,-16.08 554.9122,-11.159"/>
<polygon fill="#191970" stroke="#191970" points="554.9431,-7.6582 544.8304,-10.8178 554.7063,-14.6542 554.9431,-7.6582"/>
</g>
<!-- Node40&#45;&gt;Node24 -->
<g id="edge82" class="edge">
<title>Node40&#45;&gt;Node24</title>
<path fill="none" stroke="#191970" d="M1338.3358,-224.2455C1332.1527,-216.3761 1323.2937,-205.101 1315.8711,-195.6542"/>
<polygon fill="#191970" stroke="#191970" points="1318.5068,-193.3435 1309.5764,-187.6427 1313.0025,-197.6683 1318.5068,-193.3435"/>
</g>
<!-- Node40&#45;&gt;Node39 -->
<g id="edge81" class="edge">
<title>Node40&#45;&gt;Node39</title>
<path fill="none" stroke="#191970" d="M1354.0333,-224.3093C1361.1347,-215.3514 1371.3676,-201.4337 1378,-188 1394.9878,-153.5916 1406.7947,-110.1342 1412.6862,-85.4634"/>
<polygon fill="#191970" stroke="#191970" points="1416.1355,-86.0811 1414.9741,-75.5501 1409.3148,-84.5069 1416.1355,-86.0811"/>
</g>
</g>
</svg>
