<?xml version="1.0" encoding="UTF-8" standalone="no"?>
<!DOCTYPE svg PUBLIC "-//W3C//DTD SVG 1.1//EN"
 "http://www.w3.org/Graphics/SVG/1.1/DTD/svg11.dtd">
<!-- Generated by graphviz version 2.43.0 (0)
 -->
<!-- Title: drivers/include/slipdev.h Pages: 1 -->
<svg width="815pt" height="308pt"
 viewBox="0.00 0.00 814.50 308.00" xmlns="http://www.w3.org/2000/svg" xmlns:xlink="http://www.w3.org/1999/xlink">
<g id="graph0" class="graph" transform="scale(1 1) rotate(0) translate(4 304)">
<title>drivers/include/slipdev.h</title>
<!-- Node1 -->
<g id="node1" class="node">
<title>Node1</title>
<g id="a_node1"><a xlink:title="SLIP device definitions.">
<polygon fill="#bfbfbf" stroke="black" points="294.5,-280.5 294.5,-299.5 429.5,-299.5 429.5,-280.5 294.5,-280.5"/>
<text text-anchor="middle" x="362" y="-287.5" font-family="Helvetica,sans-Serif" font-size="10.00">drivers/include/slipdev.h</text>
</a>
</g>
</g>
<!-- Node2 -->
<g id="node2" class="node">
<title>Node2</title>
<g id="a_node2"><a xlink:title=" ">
<polygon fill="none" stroke="#bfbfbf" points="174.5,-0.5 174.5,-19.5 227.5,-19.5 227.5,-0.5 174.5,-0.5"/>
<text text-anchor="middle" x="201" y="-7.5" font-family="Helvetica,sans-Serif" font-size="10.00">stdint.h</text>
</a>
</g>
</g>
<!-- Node1&#45;&gt;Node2 -->
<g id="edge1" class="edge">
<title>Node1&#45;&gt;Node2</title>
<path fill="none" stroke="midnightblue" d="M294.34,-282.38C189.56,-270.23 0,-239.84 0,-179 0,-179 0,-179 0,-121 0,-47.04 106.02,-22.49 164.07,-14.59"/>
<polygon fill="midnightblue" stroke="midnightblue" points="164.82,-18.02 174.31,-13.3 163.95,-11.08 164.82,-18.02"/>
</g>
<!-- Node3 -->
<g id="node3" class="node">
<title>Node3</title>
<g id="a_node3"><a xlink:href="cib_8h.html" target="_top" xlink:title="Circular integer buffer interface.">
<polygon fill="none" stroke="black" points="342,-224.5 342,-243.5 382,-243.5 382,-224.5 342,-224.5"/>
<text text-anchor="middle" x="362" y="-231.5" font-family="Helvetica,sans-Serif" font-size="10.00">cib.h</text>
</a>
</g>
</g>
<!-- Node1&#45;&gt;Node3 -->
<g id="edge2" class="edge">
<title>Node1&#45;&gt;Node3</title>
<path fill="none" stroke="midnightblue" d="M362,-280.08C362,-273.01 362,-262.86 362,-253.99"/>
<polygon fill="midnightblue" stroke="midnightblue" points="365.5,-253.75 362,-243.75 358.5,-253.75 365.5,-253.75"/>
</g>
<!-- Node8 -->
<g id="node8" class="node">
<title>Node8</title>
<g id="a_node8"><a xlink:href="drivers_2include_2net_2netdev_8h.html" target="_top" xlink:title="Definitions low&#45;level network driver interface.">
<polygon fill="none" stroke="black" points="175.5,-224.5 175.5,-243.5 252.5,-243.5 252.5,-224.5 175.5,-224.5"/>
<text text-anchor="middle" x="214" y="-231.5" font-family="Helvetica,sans-Serif" font-size="10.00">net/netdev.h</text>
</a>
</g>
</g>
<!-- Node1&#45;&gt;Node8 -->
<g id="edge8" class="edge">
<title>Node1&#45;&gt;Node8</title>
<path fill="none" stroke="midnightblue" d="M338.55,-280.44C313.87,-271.44 274.81,-257.19 247.02,-247.05"/>
<polygon fill="midnightblue" stroke="midnightblue" points="247.94,-243.66 237.34,-243.52 245.54,-250.23 247.94,-243.66"/>
</g>
<!-- Node14 -->
<g id="node14" class="node">
<title>Node14</title>
<g id="a_node14"><a xlink:href="uart_8h.html" target="_top" xlink:title="Low&#45;level UART peripheral driver interface definition.">
<polygon fill="none" stroke="black" points="643.5,-56.5 643.5,-75.5 722.5,-75.5 722.5,-56.5 643.5,-56.5"/>
<text text-anchor="middle" x="683" y="-63.5" font-family="Helvetica,sans-Serif" font-size="10.00">periph/uart.h</text>
</a>
</g>
</g>
<!-- Node1&#45;&gt;Node14 -->
<g id="edge20" class="edge">
<title>Node1&#45;&gt;Node14</title>
<path fill="none" stroke="midnightblue" d="M395.66,-280.4C443.6,-266.89 532.54,-237.05 594,-188 630.89,-158.56 660.1,-110.27 674.05,-84.5"/>
<polygon fill="midnightblue" stroke="midnightblue" points="677.22,-86 678.79,-75.52 671.03,-82.74 677.22,-86"/>
</g>
<!-- Node18 -->
<g id="node18" class="node">
<title>Node18</title>
<g id="a_node18"><a xlink:href="tsrb_8h.html" target="_top" xlink:title="Thread&#45;safe ringbuffer interface definition.">
<polygon fill="none" stroke="black" points="400,-224.5 400,-243.5 444,-243.5 444,-224.5 400,-224.5"/>
<text text-anchor="middle" x="422" y="-231.5" font-family="Helvetica,sans-Serif" font-size="10.00">tsrb.h</text>
</a>
</g>
</g>
<!-- Node1&#45;&gt;Node18 -->
<g id="edge26" class="edge">
<title>Node1&#45;&gt;Node18</title>
<path fill="none" stroke="midnightblue" d="M371.64,-280.32C380.51,-272.34 393.87,-260.31 404.61,-250.65"/>
<polygon fill="midnightblue" stroke="midnightblue" points="407.09,-253.13 412.18,-243.83 402.41,-247.92 407.09,-253.13"/>
</g>
<!-- Node4 -->
<g id="node4" class="node">
<title>Node4</title>
<g id="a_node4"><a xlink:href="assert_8h.html" target="_top" xlink:title="POSIX.1&#45;2008 compliant version of the assert macro.">
<polygon fill="none" stroke="black" points="336,-168.5 336,-187.5 392,-187.5 392,-168.5 336,-168.5"/>
<text text-anchor="middle" x="364" y="-175.5" font-family="Helvetica,sans-Serif" font-size="10.00">assert.h</text>
</a>
</g>
</g>
<!-- Node3&#45;&gt;Node4 -->
<g id="edge3" class="edge">
<title>Node3&#45;&gt;Node4</title>
<path fill="none" stroke="midnightblue" d="M362.33,-224.08C362.59,-217.01 362.97,-206.86 363.3,-197.99"/>
<polygon fill="midnightblue" stroke="midnightblue" points="366.8,-197.87 363.68,-187.75 359.81,-197.61 366.8,-197.87"/>
</g>
<!-- Node5 -->
<g id="node5" class="node">
<title>Node5</title>
<g id="a_node5"><a xlink:href="panic_8h.html" target="_top" xlink:title="Crash handling header.">
<polygon fill="none" stroke="black" points="337,-112.5 337,-131.5 389,-131.5 389,-112.5 337,-112.5"/>
<text text-anchor="middle" x="363" y="-119.5" font-family="Helvetica,sans-Serif" font-size="10.00">panic.h</text>
</a>
</g>
</g>
<!-- Node4&#45;&gt;Node5 -->
<g id="edge4" class="edge">
<title>Node4&#45;&gt;Node5</title>
<path fill="none" stroke="midnightblue" d="M363.83,-168.08C363.7,-161.01 363.52,-150.86 363.35,-141.99"/>
<polygon fill="midnightblue" stroke="midnightblue" points="366.85,-141.68 363.16,-131.75 359.85,-141.81 366.85,-141.68"/>
</g>
<!-- Node6 -->
<g id="node6" class="node">
<title>Node6</title>
<g id="a_node6"><a xlink:href="kernel__defines_8h.html" target="_top" xlink:title="Common macros and compiler attributes/pragmas configuration.">
<polygon fill="none" stroke="black" points="293.5,-56.5 293.5,-75.5 390.5,-75.5 390.5,-56.5 293.5,-56.5"/>
<text text-anchor="middle" x="342" y="-63.5" font-family="Helvetica,sans-Serif" font-size="10.00">kernel_defines.h</text>
</a>
</g>
</g>
<!-- Node5&#45;&gt;Node6 -->
<g id="edge5" class="edge">
<title>Node5&#45;&gt;Node6</title>
<path fill="none" stroke="midnightblue" d="M359.53,-112.08C356.69,-104.77 352.57,-94.18 349.04,-85.1"/>
<polygon fill="midnightblue" stroke="midnightblue" points="352.29,-83.8 345.4,-75.75 345.77,-86.34 352.29,-83.8"/>
</g>
<!-- Node6&#45;&gt;Node2 -->
<g id="edge7" class="edge">
<title>Node6&#45;&gt;Node2</title>
<path fill="none" stroke="midnightblue" d="M319.66,-56.44C296.25,-47.48 259.26,-33.31 232.81,-23.18"/>
<polygon fill="midnightblue" stroke="midnightblue" points="233.83,-19.82 223.24,-19.52 231.32,-26.36 233.83,-19.82"/>
</g>
<!-- Node7 -->
<g id="node7" class="node">
<title>Node7</title>
<g id="a_node7"><a xlink:title=" ">
<polygon fill="none" stroke="#bfbfbf" points="314,-0.5 314,-19.5 370,-19.5 370,-0.5 314,-0.5"/>
<text text-anchor="middle" x="342" y="-7.5" font-family="Helvetica,sans-Serif" font-size="10.00">stddef.h</text>
</a>
</g>
</g>
<!-- Node6&#45;&gt;Node7 -->
<g id="edge6" class="edge">
<title>Node6&#45;&gt;Node7</title>
<path fill="none" stroke="midnightblue" d="M342,-56.08C342,-49.01 342,-38.86 342,-29.99"/>
<polygon fill="midnightblue" stroke="midnightblue" points="345.5,-29.75 342,-19.75 338.5,-29.75 345.5,-29.75"/>
</g>
<!-- Node8&#45;&gt;Node2 -->
<g id="edge9" class="edge">
<title>Node8&#45;&gt;Node2</title>
<path fill="none" stroke="midnightblue" d="M175.43,-227.32C133.72,-220.3 71.25,-206.91 57,-188 9.77,-125.33 121.87,-53.66 174.99,-24.45"/>
<polygon fill="midnightblue" stroke="midnightblue" points="176.73,-27.48 183.87,-19.66 173.41,-21.32 176.73,-27.48"/>
</g>
<!-- Node8&#45;&gt;Node6 -->
<g id="edge19" class="edge">
<title>Node8&#45;&gt;Node6</title>
<path fill="none" stroke="midnightblue" d="M235.53,-224.43C252.02,-216.94 274.35,-204.64 289,-188 303.17,-171.9 324.92,-114.74 335.62,-85.11"/>
<polygon fill="midnightblue" stroke="midnightblue" points="338.96,-86.16 339.02,-75.57 332.37,-83.81 338.96,-86.16"/>
</g>
<!-- Node9 -->
<g id="node9" class="node">
<title>Node9</title>
<g id="a_node9"><a xlink:href="errno_8h.html" target="_top" xlink:title=" ">
<polygon fill="none" stroke="black" points="66.5,-168.5 66.5,-187.5 117.5,-187.5 117.5,-168.5 66.5,-168.5"/>
<text text-anchor="middle" x="92" y="-175.5" font-family="Helvetica,sans-Serif" font-size="10.00">errno.h</text>
</a>
</g>
</g>
<!-- Node8&#45;&gt;Node9 -->
<g id="edge10" class="edge">
<title>Node8&#45;&gt;Node9</title>
<path fill="none" stroke="midnightblue" d="M194.67,-224.44C174.68,-215.6 143.26,-201.69 120.44,-191.59"/>
<polygon fill="midnightblue" stroke="midnightblue" points="121.8,-188.36 111.24,-187.52 118.97,-194.76 121.8,-188.36"/>
</g>
<!-- Node10 -->
<g id="node10" class="node">
<title>Node10</title>
<g id="a_node10"><a xlink:href="iolist_8h.html" target="_top" xlink:title="iolist scatter / gather IO">
<polygon fill="none" stroke="black" points="230,-168.5 230,-187.5 280,-187.5 280,-168.5 230,-168.5"/>
<text text-anchor="middle" x="255" y="-175.5" font-family="Helvetica,sans-Serif" font-size="10.00">iolist.h</text>
</a>
</g>
</g>
<!-- Node8&#45;&gt;Node10 -->
<g id="edge11" class="edge">
<title>Node8&#45;&gt;Node10</title>
<path fill="none" stroke="midnightblue" d="M220.77,-224.08C226.56,-216.46 235.06,-205.26 242.14,-195.94"/>
<polygon fill="midnightblue" stroke="midnightblue" points="245.1,-197.83 248.36,-187.75 239.52,-193.6 245.1,-197.83"/>
</g>
<!-- Node13 -->
<g id="node13" class="node">
<title>Node13</title>
<g id="a_node13"><a xlink:href="netopt_8h.html" target="_top" xlink:title="Definition of global configuration options.">
<polygon fill="none" stroke="black" points="136,-168.5 136,-187.5 212,-187.5 212,-168.5 136,-168.5"/>
<text text-anchor="middle" x="174" y="-175.5" font-family="Helvetica,sans-Serif" font-size="10.00">net/netopt.h</text>
</a>
</g>
</g>
<!-- Node8&#45;&gt;Node13 -->
<g id="edge18" class="edge">
<title>Node8&#45;&gt;Node13</title>
<path fill="none" stroke="midnightblue" d="M207.39,-224.08C201.74,-216.46 193.46,-205.26 186.55,-195.94"/>
<polygon fill="midnightblue" stroke="midnightblue" points="189.25,-193.7 180.48,-187.75 183.62,-197.87 189.25,-193.7"/>
</g>
<!-- Node11 -->
<g id="node11" class="node">
<title>Node11</title>
<g id="a_node11"><a xlink:href="unistd_8h_source.html" target="_top" xlink:title=" ">
<polygon fill="none" stroke="black" points="198,-112.5 198,-131.5 254,-131.5 254,-112.5 198,-112.5"/>
<text text-anchor="middle" x="226" y="-119.5" font-family="Helvetica,sans-Serif" font-size="10.00">unistd.h</text>
</a>
</g>
</g>
<!-- Node10&#45;&gt;Node11 -->
<g id="edge12" class="edge">
<title>Node10&#45;&gt;Node11</title>
<path fill="none" stroke="midnightblue" d="M250.21,-168.08C246.24,-160.69 240.47,-149.95 235.57,-140.81"/>
<polygon fill="midnightblue" stroke="midnightblue" points="238.51,-138.91 230.7,-131.75 232.35,-142.22 238.51,-138.91"/>
</g>
<!-- Node11&#45;&gt;Node2 -->
<g id="edge14" class="edge">
<title>Node11&#45;&gt;Node2</title>
<path fill="none" stroke="midnightblue" d="M201.53,-112.44C185.43,-105.38 165.62,-93.63 156,-76 146.09,-57.84 163.45,-38.53 179.4,-25.72"/>
<polygon fill="midnightblue" stroke="midnightblue" points="181.58,-28.47 187.46,-19.66 177.37,-22.87 181.58,-28.47"/>
</g>
<!-- Node11&#45;&gt;Node7 -->
<g id="edge13" class="edge">
<title>Node11&#45;&gt;Node7</title>
<path fill="none" stroke="midnightblue" d="M233.04,-112.13C243.51,-99.17 264.1,-74.58 284,-56 295.73,-45.05 309.95,-33.99 321.38,-25.57"/>
<polygon fill="midnightblue" stroke="midnightblue" points="323.44,-28.4 329.48,-19.69 319.33,-22.73 323.44,-28.4"/>
</g>
<!-- Node12 -->
<g id="node12" class="node">
<title>Node12</title>
<g id="a_node12"><a xlink:href="cpu_2atmega__common_2avr__libc__extra_2include_2sys_2types_8h_source.html" target="_top" xlink:title=" ">
<polygon fill="none" stroke="black" points="165,-56.5 165,-75.5 237,-75.5 237,-56.5 165,-56.5"/>
<text text-anchor="middle" x="201" y="-63.5" font-family="Helvetica,sans-Serif" font-size="10.00">sys/types.h</text>
</a>
</g>
</g>
<!-- Node11&#45;&gt;Node12 -->
<g id="edge15" class="edge">
<title>Node11&#45;&gt;Node12</title>
<path fill="none" stroke="midnightblue" d="M221.87,-112.08C218.49,-104.77 213.58,-94.18 209.38,-85.1"/>
<polygon fill="midnightblue" stroke="midnightblue" points="212.43,-83.36 205.05,-75.75 206.08,-86.3 212.43,-83.36"/>
</g>
<!-- Node12&#45;&gt;Node2 -->
<g id="edge16" class="edge">
<title>Node12&#45;&gt;Node2</title>
<path fill="none" stroke="midnightblue" d="M201,-56.08C201,-49.01 201,-38.86 201,-29.99"/>
<polygon fill="midnightblue" stroke="midnightblue" points="204.5,-29.75 201,-19.75 197.5,-29.75 204.5,-29.75"/>
</g>
<!-- Node12&#45;&gt;Node7 -->
<g id="edge17" class="edge">
<title>Node12&#45;&gt;Node7</title>
<path fill="none" stroke="midnightblue" d="M223.34,-56.44C246.75,-47.48 283.74,-33.31 310.19,-23.18"/>
<polygon fill="midnightblue" stroke="midnightblue" points="311.68,-26.36 319.76,-19.52 309.17,-19.82 311.68,-26.36"/>
</g>
<!-- Node14&#45;&gt;Node2 -->
<g id="edge22" class="edge">
<title>Node14&#45;&gt;Node2</title>
<path fill="none" stroke="midnightblue" d="M643.15,-60.54C551.36,-50.25 326.15,-25.02 237.6,-15.1"/>
<polygon fill="midnightblue" stroke="midnightblue" points="237.83,-11.6 227.5,-13.97 237.05,-18.56 237.83,-11.6"/>
</g>
<!-- Node14&#45;&gt;Node7 -->
<g id="edge21" class="edge">
<title>Node14&#45;&gt;Node7</title>
<path fill="none" stroke="midnightblue" d="M643.49,-58.37C638.61,-57.56 633.69,-56.76 629,-56 539.9,-41.59 435.11,-25.33 380.12,-16.86"/>
<polygon fill="midnightblue" stroke="midnightblue" points="380.54,-13.38 370.12,-15.32 379.47,-20.3 380.54,-13.38"/>
</g>
<!-- Node15 -->
<g id="node15" class="node">
<title>Node15</title>
<g id="a_node15"><a xlink:title=" ">
<polygon fill="none" stroke="#bfbfbf" points="656.5,-0.5 656.5,-19.5 709.5,-19.5 709.5,-0.5 656.5,-0.5"/>
<text text-anchor="middle" x="683" y="-7.5" font-family="Helvetica,sans-Serif" font-size="10.00">limits.h</text>
</a>
</g>
</g>
<!-- Node14&#45;&gt;Node15 -->
<g id="edge23" class="edge">
<title>Node14&#45;&gt;Node15</title>
<path fill="none" stroke="midnightblue" d="M683,-56.08C683,-49.01 683,-38.86 683,-29.99"/>
<polygon fill="midnightblue" stroke="midnightblue" points="686.5,-29.75 683,-19.75 679.5,-29.75 686.5,-29.75"/>
</g>
<!-- Node16 -->
<g id="node16" class="node">
<title>Node16</title>
<g id="a_node16"><a xlink:title=" ">
<polygon fill="none" stroke="#bfbfbf" points="727.5,-0.5 727.5,-19.5 806.5,-19.5 806.5,-0.5 727.5,-0.5"/>
<text text-anchor="middle" x="767" y="-7.5" font-family="Helvetica,sans-Serif" font-size="10.00">periph_cpu.h</text>
</a>
</g>
</g>
<!-- Node14&#45;&gt;Node16 -->
<g id="edge24" class="edge">
<title>Node14&#45;&gt;Node16</title>
<path fill="none" stroke="midnightblue" d="M696.5,-56.32C709.6,-47.9 729.71,-34.97 745.11,-25.07"/>
<polygon fill="midnightblue" stroke="midnightblue" points="747.02,-28.01 753.54,-19.65 743.23,-22.12 747.02,-28.01"/>
</g>
<!-- Node17 -->
<g id="node17" class="node">
<title>Node17</title>
<g id="a_node17"><a xlink:title=" ">
<polygon fill="none" stroke="#bfbfbf" points="556,-0.5 556,-19.5 638,-19.5 638,-0.5 556,-0.5"/>
<text text-anchor="middle" x="597" y="-7.5" font-family="Helvetica,sans-Serif" font-size="10.00">periph_conf.h</text>
</a>
</g>
</g>
<!-- Node14&#45;&gt;Node17 -->
<g id="edge25" class="edge">
<title>Node14&#45;&gt;Node17</title>
<path fill="none" stroke="midnightblue" d="M669.18,-56.32C655.77,-47.9 635.18,-34.97 619.41,-25.07"/>
<polygon fill="midnightblue" stroke="midnightblue" points="621.11,-22.01 610.78,-19.65 617.39,-27.94 621.11,-22.01"/>
</g>
<!-- Node18&#45;&gt;Node2 -->
<g id="edge29" class="edge">
<title>Node18&#45;&gt;Node2</title>
<path fill="none" stroke="midnightblue" d="M423.95,-224.23C429.72,-195.78 443.63,-105.05 399,-56 377.69,-32.58 288.81,-19.87 237.66,-14.37"/>
<polygon fill="midnightblue" stroke="midnightblue" points="237.97,-10.89 227.67,-13.34 237.25,-17.85 237.97,-10.89"/>
</g>
<!-- Node18&#45;&gt;Node4 -->
<g id="edge27" class="edge">
<title>Node18&#45;&gt;Node4</title>
<path fill="none" stroke="midnightblue" d="M412.68,-224.32C404.11,-216.34 391.19,-204.31 380.81,-194.65"/>
<polygon fill="midnightblue" stroke="midnightblue" points="383.19,-192.09 373.49,-187.83 378.42,-197.21 383.19,-192.09"/>
</g>
<!-- Node18&#45;&gt;Node7 -->
<g id="edge28" class="edge">
<title>Node18&#45;&gt;Node7</title>
<path fill="none" stroke="midnightblue" d="M444.34,-228.52C502.02,-215.9 648.44,-176.76 604,-112 553.26,-38.06 440.16,-18.23 380.52,-12.93"/>
<polygon fill="midnightblue" stroke="midnightblue" points="380.62,-9.42 370.38,-12.12 380.07,-16.4 380.62,-9.42"/>
</g>
<!-- Node19 -->
<g id="node19" class="node">
<title>Node19</title>
<g id="a_node19"><a xlink:href="irq_8h.html" target="_top" xlink:title="IRQ driver interface.">
<polygon fill="none" stroke="black" points="459,-168.5 459,-187.5 497,-187.5 497,-168.5 459,-168.5"/>
<text text-anchor="middle" x="478" y="-175.5" font-family="Helvetica,sans-Serif" font-size="10.00">irq.h</text>
</a>
</g>
</g>
<!-- Node18&#45;&gt;Node19 -->
<g id="edge30" class="edge">
<title>Node18&#45;&gt;Node19</title>
<path fill="none" stroke="midnightblue" d="M431,-224.32C439.19,-216.42 451.51,-204.55 461.47,-194.94"/>
<polygon fill="midnightblue" stroke="midnightblue" points="464.07,-197.29 468.84,-187.83 459.21,-192.26 464.07,-197.29"/>
</g>
<!-- Node20 -->
<g id="node20" class="node">
<title>Node20</title>
<g id="a_node20"><a xlink:title=" ">
<polygon fill="none" stroke="#bfbfbf" points="447,-112.5 447,-131.5 509,-131.5 509,-112.5 447,-112.5"/>
<text text-anchor="middle" x="478" y="-119.5" font-family="Helvetica,sans-Serif" font-size="10.00">stdbool.h</text>
</a>
</g>
</g>
<!-- Node19&#45;&gt;Node20 -->
<g id="edge31" class="edge">
<title>Node19&#45;&gt;Node20</title>
<path fill="none" stroke="midnightblue" d="M478,-168.08C478,-161.01 478,-150.86 478,-141.99"/>
<polygon fill="midnightblue" stroke="midnightblue" points="481.5,-141.75 478,-131.75 474.5,-141.75 481.5,-141.75"/>
</g>
<!-- Node21 -->
<g id="node21" class="node">
<title>Node21</title>
<g id="a_node21"><a xlink:title=" ">
<polygon fill="none" stroke="#bfbfbf" points="527,-112.5 527,-131.5 595,-131.5 595,-112.5 527,-112.5"/>
<text text-anchor="middle" x="561" y="-119.5" font-family="Helvetica,sans-Serif" font-size="10.00">cpu_conf.h</text>
</a>
</g>
</g>
<!-- Node19&#45;&gt;Node21 -->
<g id="edge32" class="edge">
<title>Node19&#45;&gt;Node21</title>
<path fill="none" stroke="midnightblue" d="M491.34,-168.32C504.16,-159.98 523.78,-147.21 538.94,-137.35"/>
<polygon fill="midnightblue" stroke="midnightblue" points="541.22,-140.04 547.7,-131.65 537.41,-134.17 541.22,-140.04"/>
</g>
</g>
</svg>
