<?xml version="1.0" encoding="UTF-8" standalone="no"?>
<!DOCTYPE svg PUBLIC "-//W3C//DTD SVG 1.1//EN"
 "http://www.w3.org/Graphics/SVG/1.1/DTD/svg11.dtd">
<!-- Generated by graphviz version 2.43.0 (0)
 -->
<!-- Title: sys/include/riotboot/slot.h Pages: 1 -->
<svg width="166pt" height="151pt"
 viewBox="0.00 0.00 165.50 151.00" xmlns="http://www.w3.org/2000/svg" xmlns:xlink="http://www.w3.org/1999/xlink">
<g id="graph0" class="graph" transform="scale(1 1) rotate(0) translate(4 147)">
<title>sys/include/riotboot/slot.h</title>
<!-- Node1 -->
<g id="node1" class="node">
<title>Node1</title>
<g id="a_node1"><a xlink:title="Slot management tools.">
<polygon fill="#bfbfbf" stroke="black" points="15.5,-112.5 15.5,-142.5 128.5,-142.5 128.5,-112.5 15.5,-112.5"/>
<text text-anchor="start" x="23.5" y="-130.5" font-family="Helvetica,sans-Serif" font-size="10.00">sys/include/riotboot</text>
<text text-anchor="middle" x="72" y="-119.5" font-family="Helvetica,sans-Serif" font-size="10.00">/slot.h</text>
</a>
</g>
</g>
<!-- Node2 -->
<g id="node2" class="node">
<title>Node2</title>
<g id="a_node2"><a xlink:title=" ">
<polygon fill="none" stroke="#bfbfbf" points="0,-56.5 0,-75.5 56,-75.5 56,-56.5 0,-56.5"/>
<text text-anchor="middle" x="28" y="-63.5" font-family="Helvetica,sans-Serif" font-size="10.00">stddef.h</text>
</a>
</g>
</g>
<!-- Node1&#45;&gt;Node2 -->
<g id="edge1" class="edge">
<title>Node1&#45;&gt;Node2</title>
<path fill="none" stroke="midnightblue" d="M61.57,-112.4C55.24,-103.84 47.13,-92.87 40.47,-83.86"/>
<polygon fill="midnightblue" stroke="midnightblue" points="43.16,-81.62 34.4,-75.66 37.53,-85.78 43.16,-81.62"/>
</g>
<!-- Node3 -->
<g id="node3" class="node">
<title>Node3</title>
<g id="a_node3"><a xlink:href="riotboot_2hdr_8h.html" target="_top" xlink:title="RIOT &quot;partition&quot; header and tools.">
<polygon fill="none" stroke="black" points="74.5,-56.5 74.5,-75.5 157.5,-75.5 157.5,-56.5 74.5,-56.5"/>
<text text-anchor="middle" x="116" y="-63.5" font-family="Helvetica,sans-Serif" font-size="10.00">riotboot/hdr.h</text>
</a>
</g>
</g>
<!-- Node1&#45;&gt;Node3 -->
<g id="edge2" class="edge">
<title>Node1&#45;&gt;Node3</title>
<path fill="none" stroke="midnightblue" d="M82.43,-112.4C88.76,-103.84 96.87,-92.87 103.53,-83.86"/>
<polygon fill="midnightblue" stroke="midnightblue" points="106.47,-85.78 109.6,-75.66 100.84,-81.62 106.47,-85.78"/>
</g>
<!-- Node4 -->
<g id="node4" class="node">
<title>Node4</title>
<g id="a_node4"><a xlink:title=" ">
<polygon fill="none" stroke="#bfbfbf" points="89.5,-0.5 89.5,-19.5 142.5,-19.5 142.5,-0.5 89.5,-0.5"/>
<text text-anchor="middle" x="116" y="-7.5" font-family="Helvetica,sans-Serif" font-size="10.00">stdint.h</text>
</a>
</g>
</g>
<!-- Node3&#45;&gt;Node4 -->
<g id="edge3" class="edge">
<title>Node3&#45;&gt;Node4</title>
<path fill="none" stroke="midnightblue" d="M116,-56.08C116,-49.01 116,-38.86 116,-29.99"/>
<polygon fill="midnightblue" stroke="midnightblue" points="119.5,-29.75 116,-19.75 112.5,-29.75 119.5,-29.75"/>
</g>
</g>
</svg>
