<?xml version="1.0" encoding="UTF-8" standalone="no"?>
<!DOCTYPE svg PUBLIC "-//W3C//DTD SVG 1.1//EN"
 "http://www.w3.org/Graphics/SVG/1.1/DTD/svg11.dtd">
<!-- Generated by graphviz version 2.40.1 (20161225.0304)
 -->
<!-- Title: boards/slwstk6220a/include/board.h Pages: 1 -->
<svg width="366pt" height="151pt"
 viewBox="0.00 0.00 366.00 151.00" xmlns="http://www.w3.org/2000/svg" xmlns:xlink="http://www.w3.org/1999/xlink">
<g id="graph0" class="graph" transform="scale(1 1) rotate(0) translate(4 147)">
<title>boards/slwstk6220a/include/board.h</title>
<!-- Node0 -->
<g id="node1" class="node">
<title>Node0</title>
<polygon fill="#bfbfbf" stroke="#000000" points="74.5,-112.5 74.5,-142.5 178.5,-142.5 178.5,-112.5 74.5,-112.5"/>
<text text-anchor="start" x="82.5" y="-130.5" font-family="Helvetica,sans-Serif" font-size="10.00" fill="#000000">boards/slwstk6220a</text>
<text text-anchor="middle" x="126.5" y="-119.5" font-family="Helvetica,sans-Serif" font-size="10.00" fill="#000000">/include/board.h</text>
</g>
<!-- Node1 -->
<g id="node2" class="node">
<title>Node1</title>
<polygon fill="none" stroke="#bfbfbf" points="0,-.5 0,-19.5 41,-19.5 41,-.5 0,-.5"/>
<text text-anchor="middle" x="20.5" y="-7.5" font-family="Helvetica,sans-Serif" font-size="10.00" fill="#000000">cpu.h</text>
</g>
<!-- Node0&#45;&gt;Node1 -->
<g id="edge1" class="edge">
<title>Node0&#45;&gt;Node1</title>
<path fill="none" stroke="#191970" d="M93.3993,-112.314C77.4358,-103.5981 59.072,-91.3244 46.5,-76 35.529,-62.6271 28.7701,-44.0614 24.9038,-30.0263"/>
<polygon fill="#191970" stroke="#191970" points="28.2033,-28.7903 22.398,-19.9275 21.4093,-30.4761 28.2033,-28.7903"/>
</g>
<!-- Node2 -->
<g id="node3" class="node">
<title>Node2</title>
<g id="a_node3"><a xlink:href="boards_2slwstk6220a_2include_2periph__conf_8h.html" target="_top" xlink:title="Configuration of CPU peripherals for the WSTK6220 board. ">
<polygon fill="none" stroke="#000000" points="56,-56.5 56,-75.5 131,-75.5 131,-56.5 56,-56.5"/>
<text text-anchor="middle" x="93.5" y="-63.5" font-family="Helvetica,sans-Serif" font-size="10.00" fill="#000000">periph_conf.h</text>
</a>
</g>
</g>
<!-- Node0&#45;&gt;Node2 -->
<g id="edge2" class="edge">
<title>Node0&#45;&gt;Node2</title>
<path fill="none" stroke="#191970" d="M118.3427,-112.2977C113.9051,-104.0277 108.375,-93.7215 103.6596,-84.9339"/>
<polygon fill="#191970" stroke="#191970" points="106.596,-83.0037 98.7837,-75.8469 100.4279,-86.3134 106.596,-83.0037"/>
</g>
<!-- Node4 -->
<g id="node5" class="node">
<title>Node4</title>
<polygon fill="none" stroke="#bfbfbf" points="126.5,-.5 126.5,-19.5 198.5,-19.5 198.5,-.5 126.5,-.5"/>
<text text-anchor="middle" x="162.5" y="-7.5" font-family="Helvetica,sans-Serif" font-size="10.00" fill="#000000">periph_cpu.h</text>
</g>
<!-- Node0&#45;&gt;Node4 -->
<g id="edge6" class="edge">
<title>Node0&#45;&gt;Node4</title>
<path fill="none" stroke="#191970" d="M131.2064,-112.1389C137.7219,-90.873 149.4878,-52.4702 156.5881,-29.2956"/>
<polygon fill="#191970" stroke="#191970" points="159.9881,-30.1461 159.5711,-19.5595 153.2952,-28.0955 159.9881,-30.1461"/>
</g>
<!-- Node5 -->
<g id="node6" class="node">
<title>Node5</title>
<g id="a_node6"><a xlink:href="gpio_8h.html" target="_top" xlink:title="Low&#45;level GPIO peripheral driver interface definitions. ">
<polygon fill="none" stroke="#000000" points="196.5,-56.5 196.5,-75.5 268.5,-75.5 268.5,-56.5 196.5,-56.5"/>
<text text-anchor="middle" x="232.5" y="-63.5" font-family="Helvetica,sans-Serif" font-size="10.00" fill="#000000">periph/gpio.h</text>
</a>
</g>
</g>
<!-- Node0&#45;&gt;Node5 -->
<g id="edge7" class="edge">
<title>Node0&#45;&gt;Node5</title>
<path fill="none" stroke="#191970" d="M152.4305,-112.4554C169.0309,-102.8241 190.4744,-90.3828 206.9917,-80.7996"/>
<polygon fill="#191970" stroke="#191970" points="209.1806,-83.5761 216.0738,-75.5303 205.6677,-77.5214 209.1806,-83.5761"/>
</g>
<!-- Node2&#45;&gt;Node1 -->
<g id="edge4" class="edge">
<title>Node2&#45;&gt;Node1</title>
<path fill="none" stroke="#191970" d="M80.7844,-56.2455C69.898,-47.8943 54.0117,-35.7076 41.28,-25.9408"/>
<polygon fill="#191970" stroke="#191970" points="43.1346,-22.9523 33.0699,-19.6427 38.8739,-28.5063 43.1346,-22.9523"/>
</g>
<!-- Node3 -->
<g id="node4" class="node">
<title>Node3</title>
<polygon fill="none" stroke="#bfbfbf" points="59,-.5 59,-19.5 108,-19.5 108,-.5 59,-.5"/>
<text text-anchor="middle" x="83.5" y="-7.5" font-family="Helvetica,sans-Serif" font-size="10.00" fill="#000000">stdint.h</text>
</g>
<!-- Node2&#45;&gt;Node3 -->
<g id="edge3" class="edge">
<title>Node2&#45;&gt;Node3</title>
<path fill="none" stroke="#191970" d="M91.7581,-56.2455C90.4533,-48.9382 88.624,-38.6944 87.0187,-29.7046"/>
<polygon fill="#191970" stroke="#191970" points="90.4254,-28.8717 85.2219,-19.6427 83.5344,-30.1022 90.4254,-28.8717"/>
</g>
<!-- Node2&#45;&gt;Node4 -->
<g id="edge5" class="edge">
<title>Node2&#45;&gt;Node4</title>
<path fill="none" stroke="#191970" d="M105.5189,-56.2455C115.7098,-47.9746 130.5362,-35.9416 142.5107,-26.2232"/>
<polygon fill="#191970" stroke="#191970" points="145.0598,-28.662 150.6188,-19.6427 140.6486,-23.2268 145.0598,-28.662"/>
</g>
<!-- Node5&#45;&gt;Node4 -->
<g id="edge9" class="edge">
<title>Node5&#45;&gt;Node4</title>
<path fill="none" stroke="#191970" d="M220.3069,-56.2455C209.8679,-47.8943 194.6345,-35.7076 182.426,-25.9408"/>
<polygon fill="#191970" stroke="#191970" points="184.5485,-23.1566 174.5533,-19.6427 180.1756,-28.6227 184.5485,-23.1566"/>
</g>
<!-- Node6 -->
<g id="node7" class="node">
<title>Node6</title>
<polygon fill="none" stroke="#bfbfbf" points="216.5,-.5 216.5,-19.5 264.5,-19.5 264.5,-.5 216.5,-.5"/>
<text text-anchor="middle" x="240.5" y="-7.5" font-family="Helvetica,sans-Serif" font-size="10.00" fill="#000000">limits.h</text>
</g>
<!-- Node5&#45;&gt;Node6 -->
<g id="edge8" class="edge">
<title>Node5&#45;&gt;Node6</title>
<path fill="none" stroke="#191970" d="M233.8935,-56.2455C234.9374,-48.9382 236.4008,-38.6944 237.6851,-29.7046"/>
<polygon fill="#191970" stroke="#191970" points="241.173,-30.0372 239.1225,-19.6427 234.2434,-29.0472 241.173,-30.0372"/>
</g>
<!-- Node7 -->
<g id="node8" class="node">
<title>Node7</title>
<polygon fill="none" stroke="#bfbfbf" points="283,-.5 283,-19.5 358,-19.5 358,-.5 283,-.5"/>
<text text-anchor="middle" x="320.5" y="-7.5" font-family="Helvetica,sans-Serif" font-size="10.00" fill="#000000">periph_conf.h</text>
</g>
<!-- Node5&#45;&gt;Node7 -->
<g id="edge10" class="edge">
<title>Node5&#45;&gt;Node7</title>
<path fill="none" stroke="#191970" d="M247.8284,-56.2455C261.3303,-47.6534 281.2122,-35.0014 296.7686,-25.1018"/>
<polygon fill="#191970" stroke="#191970" points="298.7897,-27.9643 305.3472,-19.6427 295.0315,-22.0587 298.7897,-27.9643"/>
</g>
</g>
</svg>
