<?xml version="1.0" encoding="UTF-8" standalone="no"?>
<!DOCTYPE svg PUBLIC "-//W3C//DTD SVG 1.1//EN"
 "http://www.w3.org/Graphics/SVG/1.1/DTD/svg11.dtd">
<!-- Generated by graphviz version 2.43.0 (0)
 -->
<!-- Title: pkg/tinydtls/include/sock_dtls_types.h Pages: 1 -->
<svg width="543pt" height="263pt"
 viewBox="0.00 0.00 543.45 263.00" xmlns="http://www.w3.org/2000/svg" xmlns:xlink="http://www.w3.org/1999/xlink">
<g id="graph0" class="graph" transform="scale(1 1) rotate(0) translate(4 259)">
<title>pkg/tinydtls/include/sock_dtls_types.h</title>
<!-- Node1 -->
<g id="node1" class="node">
<title>Node1</title>
<g id="a_node1"><a xlink:title="tinydtls&#45;specific types and functions definitions">
<polygon fill="#bfbfbf" stroke="black" points="178.95,-224.5 178.95,-254.5 291.95,-254.5 291.95,-224.5 178.95,-224.5"/>
<text text-anchor="start" x="186.95" y="-242.5" font-family="Helvetica,sans-Serif" font-size="10.00">pkg/tinydtls/include</text>
<text text-anchor="middle" x="235.45" y="-231.5" font-family="Helvetica,sans-Serif" font-size="10.00">/sock_dtls_types.h</text>
</a>
</g>
</g>
<!-- Node2 -->
<g id="node2" class="node">
<title>Node2</title>
<g id="a_node2"><a xlink:title=" ">
<polygon fill="none" stroke="#bfbfbf" points="163.45,-168.5 163.45,-187.5 207.45,-187.5 207.45,-168.5 163.45,-168.5"/>
<text text-anchor="middle" x="185.45" y="-175.5" font-family="Helvetica,sans-Serif" font-size="10.00">dtls.h</text>
</a>
</g>
</g>
<!-- Node1&#45;&gt;Node2 -->
<g id="edge1" class="edge">
<title>Node1&#45;&gt;Node2</title>
<path fill="none" stroke="midnightblue" d="M223.6,-224.4C216.34,-215.75 207,-204.64 199.38,-195.58"/>
<polygon fill="midnightblue" stroke="midnightblue" points="201.84,-193.06 192.73,-187.66 196.48,-197.57 201.84,-193.06"/>
</g>
<!-- Node3 -->
<g id="node3" class="node">
<title>Node3</title>
<g id="a_node3"><a xlink:href="sock_2udp_8h.html" target="_top" xlink:title="UDP sock definitions.">
<polygon fill="none" stroke="black" points="125.45,-112.5 125.45,-131.5 213.45,-131.5 213.45,-112.5 125.45,-112.5"/>
<text text-anchor="middle" x="169.45" y="-119.5" font-family="Helvetica,sans-Serif" font-size="10.00">net/sock/udp.h</text>
</a>
</g>
</g>
<!-- Node1&#45;&gt;Node3 -->
<g id="edge2" class="edge">
<title>Node1&#45;&gt;Node3</title>
<path fill="none" stroke="midnightblue" d="M233.92,-224.38C231.81,-209.49 226.99,-185.77 216.45,-168 209.59,-156.43 198.94,-145.88 189.51,-137.91"/>
<polygon fill="midnightblue" stroke="midnightblue" points="191.65,-135.14 181.66,-131.61 187.27,-140.6 191.65,-135.14"/>
</g>
<!-- Node9 -->
<g id="node9" class="node">
<title>Node9</title>
<g id="a_node9"><a xlink:href="credman_8h.html" target="_top" xlink:title="(D)TLS credentials management module definitions">
<polygon fill="none" stroke="black" points="329.95,-168.5 329.95,-187.5 416.95,-187.5 416.95,-168.5 329.95,-168.5"/>
<text text-anchor="middle" x="373.45" y="-175.5" font-family="Helvetica,sans-Serif" font-size="10.00">net/credman.h</text>
</a>
</g>
</g>
<!-- Node1&#45;&gt;Node9 -->
<g id="edge9" class="edge">
<title>Node1&#45;&gt;Node9</title>
<path fill="none" stroke="midnightblue" d="M268.15,-224.4C291.21,-214.46 321.81,-201.26 344.08,-191.66"/>
<polygon fill="midnightblue" stroke="midnightblue" points="345.57,-194.83 353.37,-187.66 342.8,-188.4 345.57,-194.83"/>
</g>
<!-- Node4 -->
<g id="node4" class="node">
<title>Node4</title>
<g id="a_node4"><a xlink:title=" ">
<polygon fill="none" stroke="#bfbfbf" points="346.95,-0.5 346.95,-19.5 399.95,-19.5 399.95,-0.5 346.95,-0.5"/>
<text text-anchor="middle" x="373.45" y="-7.5" font-family="Helvetica,sans-Serif" font-size="10.00">stdint.h</text>
</a>
</g>
</g>
<!-- Node3&#45;&gt;Node4 -->
<g id="edge3" class="edge">
<title>Node3&#45;&gt;Node4</title>
<path fill="none" stroke="midnightblue" d="M125.31,-117.91C66.18,-112.18 -27.39,-96.53 8.45,-56 29.99,-31.64 248.39,-17.55 336.69,-12.82"/>
<polygon fill="midnightblue" stroke="midnightblue" points="336.99,-16.31 346.8,-12.28 336.63,-9.31 336.99,-16.31"/>
</g>
<!-- Node5 -->
<g id="node5" class="node">
<title>Node5</title>
<g id="a_node5"><a xlink:title=" ">
<polygon fill="none" stroke="#bfbfbf" points="17.95,-56.5 17.95,-75.5 70.95,-75.5 70.95,-56.5 17.95,-56.5"/>
<text text-anchor="middle" x="44.45" y="-63.5" font-family="Helvetica,sans-Serif" font-size="10.00">stdlib.h</text>
</a>
</g>
</g>
<!-- Node3&#45;&gt;Node5 -->
<g id="edge4" class="edge">
<title>Node3&#45;&gt;Node5</title>
<path fill="none" stroke="midnightblue" d="M149.64,-112.44C129.16,-103.6 96.97,-89.69 73.59,-79.59"/>
<polygon fill="midnightblue" stroke="midnightblue" points="74.73,-76.27 64.16,-75.52 71.96,-82.7 74.73,-76.27"/>
</g>
<!-- Node6 -->
<g id="node6" class="node">
<title>Node6</title>
<g id="a_node6"><a xlink:title=" ">
<polygon fill="none" stroke="#bfbfbf" points="89.45,-56.5 89.45,-75.5 161.45,-75.5 161.45,-56.5 89.45,-56.5"/>
<text text-anchor="middle" x="125.45" y="-63.5" font-family="Helvetica,sans-Serif" font-size="10.00">sys/types.h</text>
</a>
</g>
</g>
<!-- Node3&#45;&gt;Node6 -->
<g id="edge5" class="edge">
<title>Node3&#45;&gt;Node6</title>
<path fill="none" stroke="midnightblue" d="M162.18,-112.08C155.91,-104.38 146.66,-93.03 139.02,-83.65"/>
<polygon fill="midnightblue" stroke="midnightblue" points="141.61,-81.29 132.58,-75.75 136.18,-85.71 141.61,-81.29"/>
</g>
<!-- Node7 -->
<g id="node7" class="node">
<title>Node7</title>
<g id="a_node7"><a xlink:href="sock_8h.html" target="_top" xlink:title="Common sock API definitions.">
<polygon fill="none" stroke="black" points="179.95,-56.5 179.95,-75.5 246.95,-75.5 246.95,-56.5 179.95,-56.5"/>
<text text-anchor="middle" x="213.45" y="-63.5" font-family="Helvetica,sans-Serif" font-size="10.00">net/sock.h</text>
</a>
</g>
</g>
<!-- Node3&#45;&gt;Node7 -->
<g id="edge6" class="edge">
<title>Node3&#45;&gt;Node7</title>
<path fill="none" stroke="midnightblue" d="M176.72,-112.08C183,-104.38 192.24,-93.03 199.88,-83.65"/>
<polygon fill="midnightblue" stroke="midnightblue" points="202.72,-85.71 206.32,-75.75 197.29,-81.29 202.72,-85.71"/>
</g>
<!-- Node8 -->
<g id="node8" class="node">
<title>Node8</title>
<g id="a_node8"><a xlink:title=" ">
<polygon fill="none" stroke="#bfbfbf" points="265.45,-56.5 265.45,-75.5 345.45,-75.5 345.45,-56.5 265.45,-56.5"/>
<text text-anchor="middle" x="305.45" y="-63.5" font-family="Helvetica,sans-Serif" font-size="10.00">sock_types.h</text>
</a>
</g>
</g>
<!-- Node3&#45;&gt;Node8 -->
<g id="edge8" class="edge">
<title>Node3&#45;&gt;Node8</title>
<path fill="none" stroke="midnightblue" d="M191,-112.44C213.48,-103.52 248.94,-89.44 274.43,-79.32"/>
<polygon fill="midnightblue" stroke="midnightblue" points="276,-82.46 284,-75.52 273.42,-75.95 276,-82.46"/>
</g>
<!-- Node7&#45;&gt;Node4 -->
<g id="edge7" class="edge">
<title>Node7&#45;&gt;Node4</title>
<path fill="none" stroke="midnightblue" d="M238.8,-56.44C265.72,-47.36 308.45,-32.94 338.54,-22.78"/>
<polygon fill="midnightblue" stroke="midnightblue" points="339.86,-26.03 348.22,-19.52 337.62,-19.4 339.86,-26.03"/>
</g>
<!-- Node9&#45;&gt;Node4 -->
<g id="edge16" class="edge">
<title>Node9&#45;&gt;Node4</title>
<path fill="none" stroke="midnightblue" d="M373.45,-168.08C373.45,-141.95 373.45,-65.21 373.45,-29.58"/>
<polygon fill="midnightblue" stroke="midnightblue" points="376.95,-29.57 373.45,-19.57 369.95,-29.57 376.95,-29.57"/>
</g>
<!-- Node10 -->
<g id="node10" class="node">
<title>Node10</title>
<g id="a_node10"><a xlink:href="unistd_8h_source.html" target="_top" xlink:title=" ">
<polygon fill="none" stroke="black" points="424.45,-112.5 424.45,-131.5 480.45,-131.5 480.45,-112.5 424.45,-112.5"/>
<text text-anchor="middle" x="452.45" y="-119.5" font-family="Helvetica,sans-Serif" font-size="10.00">unistd.h</text>
</a>
</g>
</g>
<!-- Node9&#45;&gt;Node10 -->
<g id="edge10" class="edge">
<title>Node9&#45;&gt;Node10</title>
<path fill="none" stroke="midnightblue" d="M386.14,-168.32C398.35,-159.98 417.03,-147.21 431.45,-137.35"/>
<polygon fill="midnightblue" stroke="midnightblue" points="433.51,-140.19 439.79,-131.65 429.56,-134.41 433.51,-140.19"/>
</g>
<!-- Node10&#45;&gt;Node4 -->
<g id="edge12" class="edge">
<title>Node10&#45;&gt;Node4</title>
<path fill="none" stroke="midnightblue" d="M446.25,-112.37C433.21,-94.22 402.75,-51.8 385.65,-27.99"/>
<polygon fill="midnightblue" stroke="midnightblue" points="388.3,-25.67 379.62,-19.59 382.61,-29.76 388.3,-25.67"/>
</g>
<!-- Node11 -->
<g id="node11" class="node">
<title>Node11</title>
<g id="a_node11"><a xlink:title=" ">
<polygon fill="none" stroke="#bfbfbf" points="479.45,-0.5 479.45,-19.5 535.45,-19.5 535.45,-0.5 479.45,-0.5"/>
<text text-anchor="middle" x="507.45" y="-7.5" font-family="Helvetica,sans-Serif" font-size="10.00">stddef.h</text>
</a>
</g>
</g>
<!-- Node10&#45;&gt;Node11 -->
<g id="edge11" class="edge">
<title>Node10&#45;&gt;Node11</title>
<path fill="none" stroke="midnightblue" d="M475.9,-112.41C491.61,-105.28 511.07,-93.46 520.45,-76 528.35,-61.3 523.13,-42.39 517.11,-28.76"/>
<polygon fill="midnightblue" stroke="midnightblue" points="520.12,-26.95 512.57,-19.53 513.84,-30.05 520.12,-26.95"/>
</g>
<!-- Node12 -->
<g id="node12" class="node">
<title>Node12</title>
<g id="a_node12"><a xlink:href="cpu_2atmega__common_2avr__libc__extra_2include_2sys_2types_8h_source.html" target="_top" xlink:title=" ">
<polygon fill="none" stroke="black" points="439.45,-56.5 439.45,-75.5 511.45,-75.5 511.45,-56.5 439.45,-56.5"/>
<text text-anchor="middle" x="475.45" y="-63.5" font-family="Helvetica,sans-Serif" font-size="10.00">sys/types.h</text>
</a>
</g>
</g>
<!-- Node10&#45;&gt;Node12 -->
<g id="edge13" class="edge">
<title>Node10&#45;&gt;Node12</title>
<path fill="none" stroke="midnightblue" d="M456.25,-112.08C459.36,-104.77 463.87,-94.18 467.74,-85.1"/>
<polygon fill="midnightblue" stroke="midnightblue" points="471.02,-86.32 471.72,-75.75 464.58,-83.58 471.02,-86.32"/>
</g>
<!-- Node12&#45;&gt;Node4 -->
<g id="edge14" class="edge">
<title>Node12&#45;&gt;Node4</title>
<path fill="none" stroke="midnightblue" d="M459.06,-56.32C442.78,-47.7 417.58,-34.36 398.73,-24.39"/>
<polygon fill="midnightblue" stroke="midnightblue" points="400.27,-21.24 389.8,-19.65 397,-27.43 400.27,-21.24"/>
</g>
<!-- Node12&#45;&gt;Node11 -->
<g id="edge15" class="edge">
<title>Node12&#45;&gt;Node11</title>
<path fill="none" stroke="midnightblue" d="M480.73,-56.08C485.16,-48.61 491.61,-37.72 497.07,-28.52"/>
<polygon fill="midnightblue" stroke="midnightblue" points="500.18,-30.14 502.26,-19.75 494.16,-26.57 500.18,-30.14"/>
</g>
</g>
</svg>
