<?xml version="1.0" encoding="UTF-8" standalone="no"?>
<!DOCTYPE svg PUBLIC "-//W3C//DTD SVG 1.1//EN"
 "http://www.w3.org/Graphics/SVG/1.1/DTD/svg11.dtd">
<!-- Generated by graphviz version 2.40.1 (20161225.0304)
 -->
<!-- Title: pkg/tinydtls/include/sock_dtls_types.h Pages: 1 -->
<svg width="551pt" height="319pt"
 viewBox="0.00 0.00 550.50 319.00" xmlns="http://www.w3.org/2000/svg" xmlns:xlink="http://www.w3.org/1999/xlink">
<g id="graph0" class="graph" transform="scale(1 1) rotate(0) translate(4 315)">
<title>pkg/tinydtls/include/sock_dtls_types.h</title>
<!-- Node0 -->
<g id="node1" class="node">
<title>Node0</title>
<polygon fill="#bfbfbf" stroke="#000000" points="176.5,-280.5 176.5,-310.5 277.5,-310.5 277.5,-280.5 176.5,-280.5"/>
<text text-anchor="start" x="184.5" y="-298.5" font-family="Helvetica,sans-Serif" font-size="10.00" fill="#000000">pkg/tinydtls/include</text>
<text text-anchor="middle" x="227" y="-287.5" font-family="Helvetica,sans-Serif" font-size="10.00" fill="#000000">/sock_dtls_types.h</text>
</g>
<!-- Node1 -->
<g id="node2" class="node">
<title>Node1</title>
<polygon fill="none" stroke="#bfbfbf" points="127.5,-224.5 127.5,-243.5 168.5,-243.5 168.5,-224.5 127.5,-224.5"/>
<text text-anchor="middle" x="148" y="-231.5" font-family="Helvetica,sans-Serif" font-size="10.00" fill="#000000">dtls.h</text>
</g>
<!-- Node0&#45;&gt;Node1 -->
<g id="edge1" class="edge">
<title>Node0&#45;&gt;Node1</title>
<path fill="none" stroke="#191970" d="M207.4719,-280.2977C195.7063,-271.1384 180.7325,-259.4816 168.7535,-250.1562"/>
<polygon fill="#191970" stroke="#191970" points="170.6898,-247.228 160.6489,-243.8469 166.3897,-252.7516 170.6898,-247.228"/>
</g>
<!-- Node2 -->
<g id="node3" class="node">
<title>Node2</title>
<g id="a_node3"><a xlink:href="sock_2udp_8h.html" target="_top" xlink:title="UDP sock definitions. ">
<polygon fill="none" stroke="#000000" points="186.5,-224.5 186.5,-243.5 267.5,-243.5 267.5,-224.5 186.5,-224.5"/>
<text text-anchor="middle" x="227" y="-231.5" font-family="Helvetica,sans-Serif" font-size="10.00" fill="#000000">net/sock/udp.h</text>
</a>
</g>
</g>
<!-- Node0&#45;&gt;Node2 -->
<g id="edge2" class="edge">
<title>Node0&#45;&gt;Node2</title>
<path fill="none" stroke="#191970" d="M227,-280.2977C227,-272.3834 227,-262.6043 227,-254.0759"/>
<polygon fill="#191970" stroke="#191970" points="230.5001,-253.8469 227,-243.8469 223.5001,-253.847 230.5001,-253.8469"/>
</g>
<!-- Node13 -->
<g id="node14" class="node">
<title>Node13</title>
<g id="a_node14"><a xlink:href="credman_8h.html" target="_top" xlink:title="(D)TLS credentials management module definitions ">
<polygon fill="none" stroke="#000000" points="423.5,-224.5 423.5,-243.5 502.5,-243.5 502.5,-224.5 423.5,-224.5"/>
<text text-anchor="middle" x="463" y="-231.5" font-family="Helvetica,sans-Serif" font-size="10.00" fill="#000000">net/credman.h</text>
</a>
</g>
</g>
<!-- Node0&#45;&gt;Node13 -->
<g id="edge15" class="edge">
<title>Node0&#45;&gt;Node13</title>
<path fill="none" stroke="#191970" d="M277.6279,-282.3067C318.8309,-271.5695 376.5151,-256.5374 416.5484,-246.105"/>
<polygon fill="#191970" stroke="#191970" points="417.5311,-249.4658 426.3253,-243.5572 415.7659,-242.6921 417.5311,-249.4658"/>
</g>
<!-- Node3 -->
<g id="node4" class="node">
<title>Node3</title>
<g id="a_node4"><a xlink:href="assert_8h.html" target="_top" xlink:title="POSIX.1&#45;2008 compliant version of the assert macro. ">
<polygon fill="none" stroke="#000000" points="19,-168.5 19,-187.5 71,-187.5 71,-168.5 19,-168.5"/>
<text text-anchor="middle" x="45" y="-175.5" font-family="Helvetica,sans-Serif" font-size="10.00" fill="#000000">assert.h</text>
</a>
</g>
</g>
<!-- Node2&#45;&gt;Node3 -->
<g id="edge3" class="edge">
<title>Node2&#45;&gt;Node3</title>
<path fill="none" stroke="#191970" d="M195.7131,-224.3733C163.8445,-214.5676 114.4829,-199.3793 81.0074,-189.0792"/>
<polygon fill="#191970" stroke="#191970" points="81.7526,-185.6466 71.1654,-186.0509 79.6939,-192.3371 81.7526,-185.6466"/>
</g>
<!-- Node7 -->
<g id="node8" class="node">
<title>Node7</title>
<polygon fill="none" stroke="#bfbfbf" points="285.5,-112.5 285.5,-131.5 334.5,-131.5 334.5,-112.5 285.5,-112.5"/>
<text text-anchor="middle" x="310" y="-119.5" font-family="Helvetica,sans-Serif" font-size="10.00" fill="#000000">stdint.h</text>
</g>
<!-- Node2&#45;&gt;Node7 -->
<g id="edge7" class="edge">
<title>Node2&#45;&gt;Node7</title>
<path fill="none" stroke="#191970" d="M212.9851,-224.4706C195.7018,-211.5222 170.2041,-187.7231 184,-168 194.7657,-152.6089 241.9935,-138.3498 275.4572,-129.9072"/>
<polygon fill="#191970" stroke="#191970" points="276.4682,-133.263 285.345,-127.479 274.7988,-126.4649 276.4682,-133.263"/>
</g>
<!-- Node8 -->
<g id="node9" class="node">
<title>Node8</title>
<g id="a_node9"><a xlink:href="stdlib_8h.html" target="_top" xlink:title="stdlib.h wrapper for MSP430 ">
<polygon fill="none" stroke="#000000" points="89,-168.5 89,-187.5 137,-187.5 137,-168.5 89,-168.5"/>
<text text-anchor="middle" x="113" y="-175.5" font-family="Helvetica,sans-Serif" font-size="10.00" fill="#000000">stdlib.h</text>
</a>
</g>
</g>
<!-- Node2&#45;&gt;Node8 -->
<g id="edge8" class="edge">
<title>Node2&#45;&gt;Node8</title>
<path fill="none" stroke="#191970" d="M207.4027,-224.3733C189.2669,-215.4644 162.0865,-202.1127 141.5413,-192.0203"/>
<polygon fill="#191970" stroke="#191970" points="142.8603,-188.7688 132.3416,-187.5011 139.7739,-195.0517 142.8603,-188.7688"/>
</g>
<!-- Node10 -->
<g id="node11" class="node">
<title>Node10</title>
<polygon fill="none" stroke="#bfbfbf" points="193,-168.5 193,-187.5 261,-187.5 261,-168.5 193,-168.5"/>
<text text-anchor="middle" x="227" y="-175.5" font-family="Helvetica,sans-Serif" font-size="10.00" fill="#000000">sys/types.h</text>
</g>
<!-- Node2&#45;&gt;Node10 -->
<g id="edge11" class="edge">
<title>Node2&#45;&gt;Node10</title>
<path fill="none" stroke="#191970" d="M227,-224.2455C227,-216.9382 227,-206.6944 227,-197.7046"/>
<polygon fill="#191970" stroke="#191970" points="230.5001,-197.6426 227,-187.6427 223.5001,-197.6427 230.5001,-197.6426"/>
</g>
<!-- Node11 -->
<g id="node12" class="node">
<title>Node11</title>
<g id="a_node12"><a xlink:href="sock_8h.html" target="_top" xlink:title="Common sock API definitions. ">
<polygon fill="none" stroke="#000000" points="279,-168.5 279,-187.5 341,-187.5 341,-168.5 279,-168.5"/>
<text text-anchor="middle" x="310" y="-175.5" font-family="Helvetica,sans-Serif" font-size="10.00" fill="#000000">net/sock.h</text>
</a>
</g>
</g>
<!-- Node2&#45;&gt;Node11 -->
<g id="edge12" class="edge">
<title>Node2&#45;&gt;Node11</title>
<path fill="none" stroke="#191970" d="M241.4575,-224.2455C254.0732,-215.7337 272.5944,-203.2375 287.2045,-193.3801"/>
<polygon fill="#191970" stroke="#191970" points="289.3761,-196.1371 295.7082,-187.6427 285.4609,-190.3343 289.3761,-196.1371"/>
</g>
<!-- Node12 -->
<g id="node13" class="node">
<title>Node12</title>
<polygon fill="none" stroke="#bfbfbf" points="359.5,-168.5 359.5,-187.5 434.5,-187.5 434.5,-168.5 359.5,-168.5"/>
<text text-anchor="middle" x="397" y="-175.5" font-family="Helvetica,sans-Serif" font-size="10.00" fill="#000000">sock_types.h</text>
</g>
<!-- Node2&#45;&gt;Node12 -->
<g id="edge14" class="edge">
<title>Node2&#45;&gt;Node12</title>
<path fill="none" stroke="#191970" d="M256.224,-224.3733C284.4925,-215.0613 327.4965,-200.8953 358.5344,-190.671"/>
<polygon fill="#191970" stroke="#191970" points="359.7544,-193.9542 368.1573,-187.5011 357.5643,-187.3056 359.7544,-193.9542"/>
</g>
<!-- Node4 -->
<g id="node5" class="node">
<title>Node4</title>
<g id="a_node5"><a xlink:href="panic_8h.html" target="_top" xlink:title="Crash handling header. ">
<polygon fill="none" stroke="#000000" points="20,-112.5 20,-131.5 68,-131.5 68,-112.5 20,-112.5"/>
<text text-anchor="middle" x="44" y="-119.5" font-family="Helvetica,sans-Serif" font-size="10.00" fill="#000000">panic.h</text>
</a>
</g>
</g>
<!-- Node3&#45;&gt;Node4 -->
<g id="edge4" class="edge">
<title>Node3&#45;&gt;Node4</title>
<path fill="none" stroke="#191970" d="M44.8258,-168.2455C44.6953,-160.9382 44.5124,-150.6944 44.3519,-141.7046"/>
<polygon fill="#191970" stroke="#191970" points="47.8503,-141.5786 44.1722,-131.6427 40.8514,-141.7036 47.8503,-141.5786"/>
</g>
<!-- Node5 -->
<g id="node6" class="node">
<title>Node5</title>
<g id="a_node6"><a xlink:href="kernel__defines_8h.html" target="_top" xlink:title="Common macros and compiler attributes/pragmas configuration. ">
<polygon fill="none" stroke="#000000" points="0,-56.5 0,-75.5 88,-75.5 88,-56.5 0,-56.5"/>
<text text-anchor="middle" x="44" y="-63.5" font-family="Helvetica,sans-Serif" font-size="10.00" fill="#000000">kernel_defines.h</text>
</a>
</g>
</g>
<!-- Node4&#45;&gt;Node5 -->
<g id="edge5" class="edge">
<title>Node4&#45;&gt;Node5</title>
<path fill="none" stroke="#191970" d="M44,-112.2455C44,-104.9382 44,-94.6944 44,-85.7046"/>
<polygon fill="#191970" stroke="#191970" points="47.5001,-85.6426 44,-75.6427 40.5001,-85.6427 47.5001,-85.6426"/>
</g>
<!-- Node6 -->
<g id="node7" class="node">
<title>Node6</title>
<polygon fill="none" stroke="#bfbfbf" points="18,-.5 18,-19.5 70,-19.5 70,-.5 18,-.5"/>
<text text-anchor="middle" x="44" y="-7.5" font-family="Helvetica,sans-Serif" font-size="10.00" fill="#000000">stddef.h</text>
</g>
<!-- Node5&#45;&gt;Node6 -->
<g id="edge6" class="edge">
<title>Node5&#45;&gt;Node6</title>
<path fill="none" stroke="#191970" d="M44,-56.2455C44,-48.9382 44,-38.6944 44,-29.7046"/>
<polygon fill="#191970" stroke="#191970" points="47.5001,-29.6426 44,-19.6427 40.5001,-29.6427 47.5001,-29.6426"/>
</g>
<!-- Node9 -->
<g id="node10" class="node">
<title>Node9</title>
<g id="a_node10"><a xlink:href="malloc_8h.html" target="_top" xlink:title="malloc.h">
<polygon fill="none" stroke="#000000" points="86.5,-112.5 86.5,-131.5 139.5,-131.5 139.5,-112.5 86.5,-112.5"/>
<text text-anchor="middle" x="113" y="-119.5" font-family="Helvetica,sans-Serif" font-size="10.00" fill="#000000">malloc.h</text>
</a>
</g>
</g>
<!-- Node8&#45;&gt;Node9 -->
<g id="edge9" class="edge">
<title>Node8&#45;&gt;Node9</title>
<path fill="none" stroke="#191970" d="M107.7332,-168.2455C106.3221,-160.9382 105.9179,-150.6944 106.5205,-141.7046"/>
<polygon fill="#191970" stroke="#191970" points="110.0111,-141.9945 107.7549,-131.6427 103.0632,-141.1421 110.0111,-141.9945"/>
</g>
<!-- Node9&#45;&gt;Node8 -->
<g id="edge10" class="edge">
<title>Node9&#45;&gt;Node8</title>
<path fill="none" stroke="#191970" d="M118.2451,-131.6427C119.6665,-138.9199 120.081,-149.155 119.4887,-158.1575"/>
<polygon fill="#191970" stroke="#191970" points="115.9947,-157.8972 118.2668,-168.2455 122.9439,-158.739 115.9947,-157.8972"/>
</g>
<!-- Node11&#45;&gt;Node7 -->
<g id="edge13" class="edge">
<title>Node11&#45;&gt;Node7</title>
<path fill="none" stroke="#191970" d="M310,-168.2455C310,-160.9382 310,-150.6944 310,-141.7046"/>
<polygon fill="#191970" stroke="#191970" points="313.5001,-141.6426 310,-131.6427 306.5001,-141.6427 313.5001,-141.6426"/>
</g>
<!-- Node13&#45;&gt;Node7 -->
<g id="edge17" class="edge">
<title>Node13&#45;&gt;Node7</title>
<path fill="none" stroke="#191970" d="M462.8809,-224.1156C462.1745,-209.8645 458.7893,-183.5538 444,-168 417.9986,-140.6545 375.0386,-129.5639 344.7831,-125.0666"/>
<polygon fill="#191970" stroke="#191970" points="345.0309,-121.5691 334.6598,-123.7349 344.1179,-128.5093 345.0309,-121.5691"/>
</g>
<!-- Node14 -->
<g id="node15" class="node">
<title>Node14</title>
<polygon fill="none" stroke="#bfbfbf" points="491.5,-168.5 491.5,-187.5 542.5,-187.5 542.5,-168.5 491.5,-168.5"/>
<text text-anchor="middle" x="517" y="-175.5" font-family="Helvetica,sans-Serif" font-size="10.00" fill="#000000">unistd.h</text>
</g>
<!-- Node13&#45;&gt;Node14 -->
<g id="edge16" class="edge">
<title>Node13&#45;&gt;Node14</title>
<path fill="none" stroke="#191970" d="M472.4061,-224.2455C480.1493,-216.2155 491.312,-204.6394 500.5318,-195.0781"/>
<polygon fill="#191970" stroke="#191970" points="503.2798,-197.2706 507.7017,-187.6427 498.2409,-192.4117 503.2798,-197.2706"/>
</g>
</g>
</svg>
