<?xml version="1.0" encoding="UTF-8" standalone="no"?>
<!DOCTYPE svg PUBLIC "-//W3C//DTD SVG 1.1//EN"
 "http://www.w3.org/Graphics/SVG/1.1/DTD/svg11.dtd">
<!-- Generated by graphviz version 2.40.1 (20161225.0304)
 -->
<!-- Title: sys/include/net/sock/dns.h Pages: 1 -->
<svg width="455pt" height="319pt"
 viewBox="0.00 0.00 454.61 319.00" xmlns="http://www.w3.org/2000/svg" xmlns:xlink="http://www.w3.org/1999/xlink">
<g id="graph0" class="graph" transform="scale(1 1) rotate(0) translate(4 315)">
<title>sys/include/net/sock/dns.h</title>
<!-- Node0 -->
<g id="node1" class="node">
<title>Node0</title>
<polygon fill="#bfbfbf" stroke="#000000" points="257.5,-280.5 257.5,-310.5 364.5,-310.5 364.5,-280.5 257.5,-280.5"/>
<text text-anchor="start" x="265.5" y="-298.5" font-family="Helvetica,sans-Serif" font-size="10.00" fill="#000000">sys/include/net/sock</text>
<text text-anchor="middle" x="311" y="-287.5" font-family="Helvetica,sans-Serif" font-size="10.00" fill="#000000">/dns.h</text>
</g>
<!-- Node1 -->
<g id="node2" class="node">
<title>Node1</title>
<g id="a_node2"><a xlink:href="errno_8h.html" target="_top" xlink:title="errno.h">
<polygon fill="none" stroke="#000000" points="163.5,-224.5 163.5,-243.5 210.5,-243.5 210.5,-224.5 163.5,-224.5"/>
<text text-anchor="middle" x="187" y="-231.5" font-family="Helvetica,sans-Serif" font-size="10.00" fill="#000000">errno.h</text>
</a>
</g>
</g>
<!-- Node0&#45;&gt;Node1 -->
<g id="edge1" class="edge">
<title>Node0&#45;&gt;Node1</title>
<path fill="none" stroke="#191970" d="M280.6662,-280.4554C260.7024,-270.554 234.751,-257.683 215.2285,-248.0004"/>
<polygon fill="#191970" stroke="#191970" points="216.7294,-244.838 206.2156,-243.5303 213.6191,-251.1091 216.7294,-244.838"/>
</g>
<!-- Node2 -->
<g id="node3" class="node">
<title>Node2</title>
<polygon fill="none" stroke="#bfbfbf" points="306.5,-112.5 306.5,-131.5 355.5,-131.5 355.5,-112.5 306.5,-112.5"/>
<text text-anchor="middle" x="331" y="-119.5" font-family="Helvetica,sans-Serif" font-size="10.00" fill="#000000">stdint.h</text>
</g>
<!-- Node0&#45;&gt;Node2 -->
<g id="edge2" class="edge">
<title>Node0&#45;&gt;Node2</title>
<path fill="none" stroke="#191970" d="M344.4886,-280.4784C377.5213,-263.4883 425.6508,-232.2989 444,-188 458.8049,-152.2579 403.9175,-134.8632 365.5016,-127.2217"/>
<polygon fill="#191970" stroke="#191970" points="366.1289,-123.7785 355.659,-125.4007 364.8554,-130.6616 366.1289,-123.7785"/>
</g>
<!-- Node3 -->
<g id="node4" class="node">
<title>Node3</title>
<polygon fill="none" stroke="#bfbfbf" points="327.5,-224.5 327.5,-243.5 378.5,-243.5 378.5,-224.5 327.5,-224.5"/>
<text text-anchor="middle" x="353" y="-231.5" font-family="Helvetica,sans-Serif" font-size="10.00" fill="#000000">unistd.h</text>
</g>
<!-- Node0&#45;&gt;Node3 -->
<g id="edge3" class="edge">
<title>Node0&#45;&gt;Node3</title>
<path fill="none" stroke="#191970" d="M321.382,-280.2977C327.1513,-271.8498 334.3716,-261.2773 340.4553,-252.369"/>
<polygon fill="#191970" stroke="#191970" points="343.5259,-254.0788 346.2753,-243.8469 337.7453,-250.1311 343.5259,-254.0788"/>
</g>
<!-- Node4 -->
<g id="node5" class="node">
<title>Node4</title>
<g id="a_node5"><a xlink:href="sock_2udp_8h.html" target="_top" xlink:title="UDP sock definitions. ">
<polygon fill="none" stroke="#000000" points="228.5,-224.5 228.5,-243.5 309.5,-243.5 309.5,-224.5 228.5,-224.5"/>
<text text-anchor="middle" x="269" y="-231.5" font-family="Helvetica,sans-Serif" font-size="10.00" fill="#000000">net/sock/udp.h</text>
</a>
</g>
</g>
<!-- Node0&#45;&gt;Node4 -->
<g id="edge4" class="edge">
<title>Node0&#45;&gt;Node4</title>
<path fill="none" stroke="#191970" d="M300.618,-280.2977C294.8487,-271.8498 287.6284,-261.2773 281.5447,-252.369"/>
<polygon fill="#191970" stroke="#191970" points="284.2547,-250.1311 275.7247,-243.8469 278.4741,-254.0788 284.2547,-250.1311"/>
</g>
<!-- Node4&#45;&gt;Node2 -->
<g id="edge9" class="edge">
<title>Node4&#45;&gt;Node2</title>
<path fill="none" stroke="#191970" d="M280.8501,-224.2073C290.5369,-215.6044 303.9091,-202.2629 312,-188 320.1814,-173.5775 325.0808,-155.3487 327.8497,-141.7046"/>
<polygon fill="#191970" stroke="#191970" points="331.3586,-141.9703 329.6998,-131.5062 324.471,-140.7208 331.3586,-141.9703"/>
</g>
<!-- Node5 -->
<g id="node6" class="node">
<title>Node5</title>
<g id="a_node6"><a xlink:href="assert_8h.html" target="_top" xlink:title="POSIX.1&#45;2008 compliant version of the assert macro. ">
<polygon fill="none" stroke="#000000" points="19,-168.5 19,-187.5 71,-187.5 71,-168.5 19,-168.5"/>
<text text-anchor="middle" x="45" y="-175.5" font-family="Helvetica,sans-Serif" font-size="10.00" fill="#000000">assert.h</text>
</a>
</g>
</g>
<!-- Node4&#45;&gt;Node5 -->
<g id="edge5" class="edge">
<title>Node4&#45;&gt;Node5</title>
<path fill="none" stroke="#191970" d="M228.3276,-224.5918C192.0703,-216.0951 137.3269,-202.9989 81.1105,-188.2271"/>
<polygon fill="#191970" stroke="#191970" points="81.9047,-184.8169 71.3425,-185.6471 80.1171,-191.5848 81.9047,-184.8169"/>
</g>
<!-- Node9 -->
<g id="node10" class="node">
<title>Node9</title>
<g id="a_node10"><a xlink:href="stdlib_8h.html" target="_top" xlink:title="stdlib.h wrapper for MSP430 ">
<polygon fill="none" stroke="#000000" points="89,-168.5 89,-187.5 137,-187.5 137,-168.5 89,-168.5"/>
<text text-anchor="middle" x="113" y="-175.5" font-family="Helvetica,sans-Serif" font-size="10.00" fill="#000000">stdlib.h</text>
</a>
</g>
</g>
<!-- Node4&#45;&gt;Node9 -->
<g id="edge10" class="edge">
<title>Node4&#45;&gt;Node9</title>
<path fill="none" stroke="#191970" d="M242.1826,-224.3733C215.7655,-214.8902 175.3246,-200.3729 146.7388,-190.1114"/>
<polygon fill="#191970" stroke="#191970" points="147.759,-186.7589 137.1645,-186.6744 145.3939,-193.3473 147.759,-186.7589"/>
</g>
<!-- Node11 -->
<g id="node12" class="node">
<title>Node11</title>
<polygon fill="none" stroke="#bfbfbf" points="235,-168.5 235,-187.5 303,-187.5 303,-168.5 235,-168.5"/>
<text text-anchor="middle" x="269" y="-175.5" font-family="Helvetica,sans-Serif" font-size="10.00" fill="#000000">sys/types.h</text>
</g>
<!-- Node4&#45;&gt;Node11 -->
<g id="edge13" class="edge">
<title>Node4&#45;&gt;Node11</title>
<path fill="none" stroke="#191970" d="M269,-224.2455C269,-216.9382 269,-206.6944 269,-197.7046"/>
<polygon fill="#191970" stroke="#191970" points="272.5001,-197.6426 269,-187.6427 265.5001,-197.6427 272.5001,-197.6426"/>
</g>
<!-- Node12 -->
<g id="node13" class="node">
<title>Node12</title>
<g id="a_node13"><a xlink:href="sock_8h.html" target="_top" xlink:title="Common sock API definitions. ">
<polygon fill="none" stroke="#000000" points="155,-168.5 155,-187.5 217,-187.5 217,-168.5 155,-168.5"/>
<text text-anchor="middle" x="186" y="-175.5" font-family="Helvetica,sans-Serif" font-size="10.00" fill="#000000">net/sock.h</text>
</a>
</g>
</g>
<!-- Node4&#45;&gt;Node12 -->
<g id="edge14" class="edge">
<title>Node4&#45;&gt;Node12</title>
<path fill="none" stroke="#191970" d="M254.5425,-224.2455C241.9268,-215.7337 223.4056,-203.2375 208.7955,-193.3801"/>
<polygon fill="#191970" stroke="#191970" points="210.5391,-190.3343 200.2918,-187.6427 206.6239,-196.1371 210.5391,-190.3343"/>
</g>
<!-- Node13 -->
<g id="node14" class="node">
<title>Node13</title>
<polygon fill="none" stroke="#bfbfbf" points="359.5,-168.5 359.5,-187.5 434.5,-187.5 434.5,-168.5 359.5,-168.5"/>
<text text-anchor="middle" x="397" y="-175.5" font-family="Helvetica,sans-Serif" font-size="10.00" fill="#000000">sock_types.h</text>
</g>
<!-- Node4&#45;&gt;Node13 -->
<g id="edge16" class="edge">
<title>Node4&#45;&gt;Node13</title>
<path fill="none" stroke="#191970" d="M291.004,-224.3733C311.6435,-215.3435 342.7158,-201.7494 365.8889,-191.6111"/>
<polygon fill="#191970" stroke="#191970" points="367.5245,-194.7159 375.2831,-187.5011 364.7187,-188.3028 367.5245,-194.7159"/>
</g>
<!-- Node6 -->
<g id="node7" class="node">
<title>Node6</title>
<g id="a_node7"><a xlink:href="panic_8h.html" target="_top" xlink:title="Crash handling header. ">
<polygon fill="none" stroke="#000000" points="20,-112.5 20,-131.5 68,-131.5 68,-112.5 20,-112.5"/>
<text text-anchor="middle" x="44" y="-119.5" font-family="Helvetica,sans-Serif" font-size="10.00" fill="#000000">panic.h</text>
</a>
</g>
</g>
<!-- Node5&#45;&gt;Node6 -->
<g id="edge6" class="edge">
<title>Node5&#45;&gt;Node6</title>
<path fill="none" stroke="#191970" d="M44.8258,-168.2455C44.6953,-160.9382 44.5124,-150.6944 44.3519,-141.7046"/>
<polygon fill="#191970" stroke="#191970" points="47.8503,-141.5786 44.1722,-131.6427 40.8514,-141.7036 47.8503,-141.5786"/>
</g>
<!-- Node7 -->
<g id="node8" class="node">
<title>Node7</title>
<g id="a_node8"><a xlink:href="kernel__defines_8h.html" target="_top" xlink:title="Common macros and compiler attributes/pragmas configuration. ">
<polygon fill="none" stroke="#000000" points="0,-56.5 0,-75.5 88,-75.5 88,-56.5 0,-56.5"/>
<text text-anchor="middle" x="44" y="-63.5" font-family="Helvetica,sans-Serif" font-size="10.00" fill="#000000">kernel_defines.h</text>
</a>
</g>
</g>
<!-- Node6&#45;&gt;Node7 -->
<g id="edge7" class="edge">
<title>Node6&#45;&gt;Node7</title>
<path fill="none" stroke="#191970" d="M44,-112.2455C44,-104.9382 44,-94.6944 44,-85.7046"/>
<polygon fill="#191970" stroke="#191970" points="47.5001,-85.6426 44,-75.6427 40.5001,-85.6427 47.5001,-85.6426"/>
</g>
<!-- Node8 -->
<g id="node9" class="node">
<title>Node8</title>
<polygon fill="none" stroke="#bfbfbf" points="18,-.5 18,-19.5 70,-19.5 70,-.5 18,-.5"/>
<text text-anchor="middle" x="44" y="-7.5" font-family="Helvetica,sans-Serif" font-size="10.00" fill="#000000">stddef.h</text>
</g>
<!-- Node7&#45;&gt;Node8 -->
<g id="edge8" class="edge">
<title>Node7&#45;&gt;Node8</title>
<path fill="none" stroke="#191970" d="M44,-56.2455C44,-48.9382 44,-38.6944 44,-29.7046"/>
<polygon fill="#191970" stroke="#191970" points="47.5001,-29.6426 44,-19.6427 40.5001,-29.6427 47.5001,-29.6426"/>
</g>
<!-- Node10 -->
<g id="node11" class="node">
<title>Node10</title>
<g id="a_node11"><a xlink:href="malloc_8h.html" target="_top" xlink:title="malloc.h">
<polygon fill="none" stroke="#000000" points="86.5,-112.5 86.5,-131.5 139.5,-131.5 139.5,-112.5 86.5,-112.5"/>
<text text-anchor="middle" x="113" y="-119.5" font-family="Helvetica,sans-Serif" font-size="10.00" fill="#000000">malloc.h</text>
</a>
</g>
</g>
<!-- Node9&#45;&gt;Node10 -->
<g id="edge11" class="edge">
<title>Node9&#45;&gt;Node10</title>
<path fill="none" stroke="#191970" d="M107.7332,-168.2455C106.3221,-160.9382 105.9179,-150.6944 106.5205,-141.7046"/>
<polygon fill="#191970" stroke="#191970" points="110.0111,-141.9945 107.7549,-131.6427 103.0632,-141.1421 110.0111,-141.9945"/>
</g>
<!-- Node10&#45;&gt;Node9 -->
<g id="edge12" class="edge">
<title>Node10&#45;&gt;Node9</title>
<path fill="none" stroke="#191970" d="M118.2451,-131.6427C119.6665,-138.9199 120.081,-149.155 119.4887,-158.1575"/>
<polygon fill="#191970" stroke="#191970" points="115.9947,-157.8972 118.2668,-168.2455 122.9439,-158.739 115.9947,-157.8972"/>
</g>
<!-- Node12&#45;&gt;Node2 -->
<g id="edge15" class="edge">
<title>Node12&#45;&gt;Node2</title>
<path fill="none" stroke="#191970" d="M210.9264,-168.3733C234.6202,-159.2226 270.4511,-145.3844 296.8068,-135.2057"/>
<polygon fill="#191970" stroke="#191970" points="298.3314,-138.3689 306.3989,-131.5011 295.8094,-131.8389 298.3314,-138.3689"/>
</g>
</g>
</svg>
