<?xml version="1.0" encoding="UTF-8" standalone="no"?>
<!DOCTYPE svg PUBLIC "-//W3C//DTD SVG 1.1//EN"
 "http://www.w3.org/Graphics/SVG/1.1/DTD/svg11.dtd">
<!-- Generated by graphviz version 2.43.0 (0)
 -->
<!-- Title: cpu/native/include/socket_zep.h Pages: 1 -->
<svg width="964pt" height="431pt"
 viewBox="0.00 0.00 964.00 431.00" xmlns="http://www.w3.org/2000/svg" xmlns:xlink="http://www.w3.org/1999/xlink">
<g id="graph0" class="graph" transform="scale(1 1) rotate(0) translate(4 427)">
<title>cpu/native/include/socket_zep.h</title>
<!-- Node1 -->
<g id="node1" class="node">
<title>Node1</title>
<g id="a_node1"><a xlink:title="Socket ZEP definitions.">
<polygon fill="#bfbfbf" stroke="black" points="347,-392.5 347,-422.5 453,-422.5 453,-392.5 347,-392.5"/>
<text text-anchor="start" x="355" y="-410.5" font-family="Helvetica,sans-Serif" font-size="10.00">cpu/native/include</text>
<text text-anchor="middle" x="400" y="-399.5" font-family="Helvetica,sans-Serif" font-size="10.00">/socket_zep.h</text>
</a>
</g>
</g>
<!-- Node2 -->
<g id="node2" class="node">
<title>Node2</title>
<g id="a_node2"><a xlink:href="drivers_2include_2net_2netdev_8h.html" target="_top" xlink:title="Definitions low&#45;level network driver interface.">
<polygon fill="none" stroke="black" points="173.5,-224.5 173.5,-243.5 250.5,-243.5 250.5,-224.5 173.5,-224.5"/>
<text text-anchor="middle" x="212" y="-231.5" font-family="Helvetica,sans-Serif" font-size="10.00">net/netdev.h</text>
</a>
</g>
</g>
<!-- Node1&#45;&gt;Node2 -->
<g id="edge1" class="edge">
<title>Node1&#45;&gt;Node2</title>
<path fill="none" stroke="midnightblue" d="M370.3,-392.46C336,-374.96 279.72,-342.16 244,-300 232.21,-286.08 223.51,-267.07 218.18,-253.21"/>
<polygon fill="midnightblue" stroke="midnightblue" points="221.46,-251.99 214.77,-243.78 214.88,-254.37 221.46,-251.99"/>
</g>
<!-- Node11 -->
<g id="node11" class="node">
<title>Node11</title>
<g id="a_node11"><a xlink:href="drivers_2include_2net_2netdev_2ieee802154_8h.html" target="_top" xlink:title="Definitions for netdev common IEEE 802.15.4 code.">
<polygon fill="none" stroke="black" points="331,-336.5 331,-355.5 469,-355.5 469,-336.5 331,-336.5"/>
<text text-anchor="middle" x="400" y="-343.5" font-family="Helvetica,sans-Serif" font-size="10.00">net/netdev/ieee802154.h</text>
</a>
</g>
</g>
<!-- Node1&#45;&gt;Node11 -->
<g id="edge15" class="edge">
<title>Node1&#45;&gt;Node11</title>
<path fill="none" stroke="midnightblue" d="M400,-392.4C400,-384.47 400,-374.46 400,-365.86"/>
<polygon fill="midnightblue" stroke="midnightblue" points="403.5,-365.66 400,-355.66 396.5,-365.66 403.5,-365.66"/>
</g>
<!-- Node23 -->
<g id="node23" class="node">
<title>Node23</title>
<g id="a_node23"><a xlink:href="zep_8h.html" target="_top" xlink:title="Definitions for the ZigBee Encapsulation Protocol.">
<polygon fill="none" stroke="black" points="894,-224.5 894,-243.5 956,-243.5 956,-224.5 894,-224.5"/>
<text text-anchor="middle" x="925" y="-231.5" font-family="Helvetica,sans-Serif" font-size="10.00">net/zep.h</text>
</a>
</g>
</g>
<!-- Node1&#45;&gt;Node23 -->
<g id="edge39" class="edge">
<title>Node1&#45;&gt;Node23</title>
<path fill="none" stroke="midnightblue" d="M453.25,-392.51C524.27,-373.47 653.65,-337.45 762,-300 809.49,-283.58 863.45,-261.34 895.83,-247.59"/>
<polygon fill="midnightblue" stroke="midnightblue" points="897.33,-250.76 905.15,-243.61 894.58,-244.32 897.33,-250.76"/>
</g>
<!-- Node3 -->
<g id="node3" class="node">
<title>Node3</title>
<g id="a_node3"><a xlink:title=" ">
<polygon fill="none" stroke="#bfbfbf" points="544.5,-0.5 544.5,-19.5 597.5,-19.5 597.5,-0.5 544.5,-0.5"/>
<text text-anchor="middle" x="571" y="-7.5" font-family="Helvetica,sans-Serif" font-size="10.00">stdint.h</text>
</a>
</g>
</g>
<!-- Node2&#45;&gt;Node3 -->
<g id="edge2" class="edge">
<title>Node2&#45;&gt;Node3</title>
<path fill="none" stroke="midnightblue" d="M213.67,-224.33C216.71,-210.73 224.3,-184.27 240,-168 324.45,-80.44 467.48,-36.08 534.41,-19.24"/>
<polygon fill="midnightblue" stroke="midnightblue" points="535.6,-22.56 544.48,-16.77 533.93,-15.76 535.6,-22.56"/>
</g>
<!-- Node4 -->
<g id="node4" class="node">
<title>Node4</title>
<g id="a_node4"><a xlink:href="errno_8h.html" target="_top" xlink:title=" ">
<polygon fill="none" stroke="black" points="141.5,-168.5 141.5,-187.5 192.5,-187.5 192.5,-168.5 141.5,-168.5"/>
<text text-anchor="middle" x="167" y="-175.5" font-family="Helvetica,sans-Serif" font-size="10.00">errno.h</text>
</a>
</g>
</g>
<!-- Node2&#45;&gt;Node4 -->
<g id="edge3" class="edge">
<title>Node2&#45;&gt;Node4</title>
<path fill="none" stroke="midnightblue" d="M204.57,-224.08C198.15,-216.38 188.69,-205.03 180.88,-195.65"/>
<polygon fill="midnightblue" stroke="midnightblue" points="183.38,-193.19 174.29,-187.75 178.01,-197.67 183.38,-193.19"/>
</g>
<!-- Node5 -->
<g id="node5" class="node">
<title>Node5</title>
<g id="a_node5"><a xlink:href="iolist_8h.html" target="_top" xlink:title="iolist scatter / gather IO">
<polygon fill="none" stroke="black" points="35,-168.5 35,-187.5 85,-187.5 85,-168.5 35,-168.5"/>
<text text-anchor="middle" x="60" y="-175.5" font-family="Helvetica,sans-Serif" font-size="10.00">iolist.h</text>
</a>
</g>
</g>
<!-- Node2&#45;&gt;Node5 -->
<g id="edge4" class="edge">
<title>Node2&#45;&gt;Node5</title>
<path fill="none" stroke="midnightblue" d="M187.92,-224.44C162.46,-215.4 122.11,-201.06 93.54,-190.92"/>
<polygon fill="midnightblue" stroke="midnightblue" points="94.57,-187.57 83.97,-187.52 92.22,-194.16 94.57,-187.57"/>
</g>
<!-- Node9 -->
<g id="node9" class="node">
<title>Node9</title>
<g id="a_node9"><a xlink:href="netopt_8h.html" target="_top" xlink:title="Definition of global configuration options.">
<polygon fill="none" stroke="black" points="249,-168.5 249,-187.5 325,-187.5 325,-168.5 249,-168.5"/>
<text text-anchor="middle" x="287" y="-175.5" font-family="Helvetica,sans-Serif" font-size="10.00">net/netopt.h</text>
</a>
</g>
</g>
<!-- Node2&#45;&gt;Node9 -->
<g id="edge11" class="edge">
<title>Node2&#45;&gt;Node9</title>
<path fill="none" stroke="midnightblue" d="M224.05,-224.32C235.46,-216.11 252.83,-203.6 266.43,-193.81"/>
<polygon fill="midnightblue" stroke="midnightblue" points="268.66,-196.52 274.73,-187.83 264.57,-190.84 268.66,-196.52"/>
</g>
<!-- Node10 -->
<g id="node10" class="node">
<title>Node10</title>
<g id="a_node10"><a xlink:href="kernel__defines_8h.html" target="_top" xlink:title="Common macros and compiler attributes/pragmas configuration.">
<polygon fill="none" stroke="black" points="106.5,-112.5 106.5,-131.5 203.5,-131.5 203.5,-112.5 106.5,-112.5"/>
<text text-anchor="middle" x="155" y="-119.5" font-family="Helvetica,sans-Serif" font-size="10.00">kernel_defines.h</text>
</a>
</g>
</g>
<!-- Node2&#45;&gt;Node10 -->
<g id="edge12" class="edge">
<title>Node2&#45;&gt;Node10</title>
<path fill="none" stroke="midnightblue" d="M181.75,-224.49C163.87,-217.73 142.7,-206.29 132,-188 123.16,-172.89 131.93,-153.83 141.07,-140.26"/>
<polygon fill="midnightblue" stroke="midnightblue" points="144.14,-142 147.25,-131.87 138.5,-137.85 144.14,-142"/>
</g>
<!-- Node6 -->
<g id="node6" class="node">
<title>Node6</title>
<g id="a_node6"><a xlink:href="unistd_8h_source.html" target="_top" xlink:title=" ">
<polygon fill="none" stroke="black" points="32,-112.5 32,-131.5 88,-131.5 88,-112.5 32,-112.5"/>
<text text-anchor="middle" x="60" y="-119.5" font-family="Helvetica,sans-Serif" font-size="10.00">unistd.h</text>
</a>
</g>
</g>
<!-- Node5&#45;&gt;Node6 -->
<g id="edge5" class="edge">
<title>Node5&#45;&gt;Node6</title>
<path fill="none" stroke="midnightblue" d="M60,-168.08C60,-161.01 60,-150.86 60,-141.99"/>
<polygon fill="midnightblue" stroke="midnightblue" points="63.5,-141.75 60,-131.75 56.5,-141.75 63.5,-141.75"/>
</g>
<!-- Node6&#45;&gt;Node3 -->
<g id="edge7" class="edge">
<title>Node6&#45;&gt;Node3</title>
<path fill="none" stroke="midnightblue" d="M73.27,-112.32C95.96,-97.96 144.09,-69.5 189,-56 311.62,-19.14 464.86,-12.25 534.06,-11.12"/>
<polygon fill="midnightblue" stroke="midnightblue" points="534.47,-14.61 544.42,-10.98 534.38,-7.61 534.47,-14.61"/>
</g>
<!-- Node7 -->
<g id="node7" class="node">
<title>Node7</title>
<g id="a_node7"><a xlink:title=" ">
<polygon fill="none" stroke="#bfbfbf" points="0,-0.5 0,-19.5 56,-19.5 56,-0.5 0,-0.5"/>
<text text-anchor="middle" x="28" y="-7.5" font-family="Helvetica,sans-Serif" font-size="10.00">stddef.h</text>
</a>
</g>
</g>
<!-- Node6&#45;&gt;Node7 -->
<g id="edge6" class="edge">
<title>Node6&#45;&gt;Node7</title>
<path fill="none" stroke="midnightblue" d="M46.21,-112.19C35.17,-104.24 20.5,-91.45 14,-76 7.58,-60.74 12.75,-42.17 18.54,-28.8"/>
<polygon fill="midnightblue" stroke="midnightblue" points="21.72,-30.25 22.9,-19.72 15.41,-27.22 21.72,-30.25"/>
</g>
<!-- Node8 -->
<g id="node8" class="node">
<title>Node8</title>
<g id="a_node8"><a xlink:href="cpu_2atmega__common_2avr__libc__extra_2include_2sys_2types_8h_source.html" target="_top" xlink:title=" ">
<polygon fill="none" stroke="black" points="56,-56.5 56,-75.5 128,-75.5 128,-56.5 56,-56.5"/>
<text text-anchor="middle" x="92" y="-63.5" font-family="Helvetica,sans-Serif" font-size="10.00">sys/types.h</text>
</a>
</g>
</g>
<!-- Node6&#45;&gt;Node8 -->
<g id="edge8" class="edge">
<title>Node6&#45;&gt;Node8</title>
<path fill="none" stroke="midnightblue" d="M65.28,-112.08C69.71,-104.61 76.16,-93.72 81.62,-84.52"/>
<polygon fill="midnightblue" stroke="midnightblue" points="84.73,-86.14 86.81,-75.75 78.71,-82.57 84.73,-86.14"/>
</g>
<!-- Node8&#45;&gt;Node3 -->
<g id="edge9" class="edge">
<title>Node8&#45;&gt;Node3</title>
<path fill="none" stroke="midnightblue" d="M128.27,-58.15C132.88,-57.37 137.55,-56.63 142,-56 286.51,-35.44 459.66,-20.1 534.06,-13.95"/>
<polygon fill="midnightblue" stroke="midnightblue" points="534.63,-17.42 544.31,-13.11 534.06,-10.44 534.63,-17.42"/>
</g>
<!-- Node8&#45;&gt;Node7 -->
<g id="edge10" class="edge">
<title>Node8&#45;&gt;Node7</title>
<path fill="none" stroke="midnightblue" d="M81.72,-56.32C72.16,-48.26 57.72,-36.08 46.22,-26.37"/>
<polygon fill="midnightblue" stroke="midnightblue" points="48.37,-23.61 38.47,-19.83 43.86,-28.96 48.37,-23.61"/>
</g>
<!-- Node10&#45;&gt;Node3 -->
<g id="edge14" class="edge">
<title>Node10&#45;&gt;Node3</title>
<path fill="none" stroke="midnightblue" d="M160.38,-112.48C169.99,-98.08 191.58,-69.22 218,-56 272.88,-28.54 455.15,-16.6 534.06,-12.63"/>
<polygon fill="midnightblue" stroke="midnightblue" points="534.67,-16.1 544.48,-12.12 534.33,-9.11 534.67,-16.1"/>
</g>
<!-- Node10&#45;&gt;Node7 -->
<g id="edge13" class="edge">
<title>Node10&#45;&gt;Node7</title>
<path fill="none" stroke="midnightblue" d="M112.14,-112.49C89.87,-106 63.87,-94.84 47,-76 35.61,-63.28 31.03,-44.08 29.2,-29.84"/>
<polygon fill="midnightblue" stroke="midnightblue" points="32.67,-29.33 28.24,-19.71 25.7,-29.99 32.67,-29.33"/>
</g>
<!-- Node11&#45;&gt;Node2 -->
<g id="edge38" class="edge">
<title>Node11&#45;&gt;Node2</title>
<path fill="none" stroke="midnightblue" d="M357.94,-336.46C330.92,-329.61 295.96,-318.09 269,-300 250.19,-287.38 233.74,-267.05 223.42,-252.48"/>
<polygon fill="midnightblue" stroke="midnightblue" points="226.08,-250.17 217.55,-243.88 220.29,-254.11 226.08,-250.17"/>
</g>
<!-- Node11&#45;&gt;Node9 -->
<g id="edge37" class="edge">
<title>Node11&#45;&gt;Node9</title>
<path fill="none" stroke="midnightblue" d="M389.44,-336.41C370.28,-320.27 329.67,-283.48 307,-244 298.73,-229.6 293.51,-211.41 290.49,-197.93"/>
<polygon fill="midnightblue" stroke="midnightblue" points="293.87,-197.01 288.44,-187.91 287.01,-198.41 293.87,-197.01"/>
</g>
<!-- Node12 -->
<g id="node12" class="node">
<title>Node12</title>
<g id="a_node12"><a xlink:href="eui__provider_8h.html" target="_top" xlink:title="EUI&#45;48 and EUI&#45;64 address provider.">
<polygon fill="none" stroke="black" points="647.5,-280.5 647.5,-299.5 752.5,-299.5 752.5,-280.5 647.5,-280.5"/>
<text text-anchor="middle" x="700" y="-287.5" font-family="Helvetica,sans-Serif" font-size="10.00">net/eui_provider.h</text>
</a>
</g>
</g>
<!-- Node11&#45;&gt;Node12 -->
<g id="edge16" class="edge">
<title>Node11&#45;&gt;Node12</title>
<path fill="none" stroke="midnightblue" d="M447.54,-336.44C500.53,-326.9 586.2,-311.48 642.82,-301.29"/>
<polygon fill="midnightblue" stroke="midnightblue" points="643.46,-304.73 652.69,-299.52 642.22,-297.84 643.46,-304.73"/>
</g>
<!-- Node17 -->
<g id="node17" class="node">
<title>Node17</title>
<g id="a_node17"><a xlink:href="sys_2include_2net_2ieee802154_8h.html" target="_top" xlink:title="IEEE 802.15.4 header definitions.">
<polygon fill="none" stroke="black" points="349.5,-224.5 349.5,-243.5 450.5,-243.5 450.5,-224.5 349.5,-224.5"/>
<text text-anchor="middle" x="400" y="-231.5" font-family="Helvetica,sans-Serif" font-size="10.00">net/ieee802154.h</text>
</a>
</g>
</g>
<!-- Node11&#45;&gt;Node17 -->
<g id="edge27" class="edge">
<title>Node11&#45;&gt;Node17</title>
<path fill="none" stroke="midnightblue" d="M400,-336.37C400,-318.62 400,-277.67 400,-253.6"/>
<polygon fill="midnightblue" stroke="midnightblue" points="403.5,-253.59 400,-243.59 396.5,-253.59 403.5,-253.59"/>
</g>
<!-- Node19 -->
<g id="node19" class="node">
<title>Node19</title>
<g id="a_node19"><a xlink:href="nettype_8h.html" target="_top" xlink:title="Protocol type definitions.">
<polygon fill="none" stroke="black" points="448,-280.5 448,-299.5 554,-299.5 554,-280.5 448,-280.5"/>
<text text-anchor="middle" x="501" y="-287.5" font-family="Helvetica,sans-Serif" font-size="10.00">net/gnrc/nettype.h</text>
</a>
</g>
</g>
<!-- Node11&#45;&gt;Node19 -->
<g id="edge32" class="edge">
<title>Node11&#45;&gt;Node19</title>
<path fill="none" stroke="midnightblue" d="M416.23,-336.32C432.35,-327.7 457.3,-314.36 475.96,-304.39"/>
<polygon fill="midnightblue" stroke="midnightblue" points="477.64,-307.46 484.81,-299.65 474.34,-301.28 477.64,-307.46"/>
</g>
<!-- Node12&#45;&gt;Node2 -->
<g id="edge26" class="edge">
<title>Node12&#45;&gt;Node2</title>
<path fill="none" stroke="midnightblue" d="M647.31,-283.17C552.15,-272.64 352.95,-250.6 260.74,-240.39"/>
<polygon fill="midnightblue" stroke="midnightblue" points="260.9,-236.89 250.57,-239.27 260.13,-243.85 260.9,-236.89"/>
</g>
<!-- Node13 -->
<g id="node13" class="node">
<title>Node13</title>
<g id="a_node13"><a xlink:href="eui48_8h.html" target="_top" xlink:title="Definition and IPv6 IID conversion for IEEE EUI&#45;48 identifiers.">
<polygon fill="none" stroke="black" points="804.5,-224.5 804.5,-243.5 875.5,-243.5 875.5,-224.5 804.5,-224.5"/>
<text text-anchor="middle" x="840" y="-231.5" font-family="Helvetica,sans-Serif" font-size="10.00">net/eui48.h</text>
</a>
</g>
</g>
<!-- Node12&#45;&gt;Node13 -->
<g id="edge17" class="edge">
<title>Node12&#45;&gt;Node13</title>
<path fill="none" stroke="midnightblue" d="M722.18,-280.44C745.43,-271.48 782.15,-257.31 808.42,-247.18"/>
<polygon fill="midnightblue" stroke="midnightblue" points="809.85,-250.38 817.92,-243.52 807.33,-243.85 809.85,-250.38"/>
</g>
<!-- Node14 -->
<g id="node14" class="node">
<title>Node14</title>
<g id="a_node14"><a xlink:href="eui64_8h.html" target="_top" xlink:title="EUI&#45;64 data type definition.">
<polygon fill="none" stroke="black" points="535.5,-168.5 535.5,-187.5 606.5,-187.5 606.5,-168.5 535.5,-168.5"/>
<text text-anchor="middle" x="571" y="-175.5" font-family="Helvetica,sans-Serif" font-size="10.00">net/eui64.h</text>
</a>
</g>
</g>
<!-- Node12&#45;&gt;Node14 -->
<g id="edge25" class="edge">
<title>Node12&#45;&gt;Node14</title>
<path fill="none" stroke="midnightblue" d="M717.25,-280.42C739.51,-268.22 773.52,-245 757,-224 752.58,-218.39 670.21,-200.02 616.58,-188.56"/>
<polygon fill="midnightblue" stroke="midnightblue" points="617.11,-185.09 606.6,-186.43 615.65,-191.94 617.11,-185.09"/>
</g>
<!-- Node13&#45;&gt;Node3 -->
<g id="edge18" class="edge">
<title>Node13&#45;&gt;Node3</title>
<path fill="none" stroke="midnightblue" d="M804.42,-225.38C776.37,-218.37 736.96,-206.28 706,-188 640.57,-149.37 596.02,-65.69 578.87,-28.93"/>
<polygon fill="midnightblue" stroke="midnightblue" points="581.91,-27.17 574.59,-19.5 575.53,-30.06 581.91,-27.17"/>
</g>
<!-- Node13&#45;&gt;Node14 -->
<g id="edge19" class="edge">
<title>Node13&#45;&gt;Node14</title>
<path fill="none" stroke="midnightblue" d="M804.28,-225.83C755.94,-216.13 669.68,-198.81 616.68,-188.17"/>
<polygon fill="midnightblue" stroke="midnightblue" points="617.36,-184.74 606.87,-186.2 615.98,-191.6 617.36,-184.74"/>
</g>
<!-- Node14&#45;&gt;Node3 -->
<g id="edge20" class="edge">
<title>Node14&#45;&gt;Node3</title>
<path fill="none" stroke="midnightblue" d="M571,-168.08C571,-141.95 571,-65.21 571,-29.58"/>
<polygon fill="midnightblue" stroke="midnightblue" points="574.5,-29.57 571,-19.57 567.5,-29.57 574.5,-29.57"/>
</g>
<!-- Node15 -->
<g id="node15" class="node">
<title>Node15</title>
<g id="a_node15"><a xlink:href="byteorder_8h.html" target="_top" xlink:title="Functions to work with different byte orders.">
<polygon fill="none" stroke="black" points="653.5,-112.5 653.5,-131.5 726.5,-131.5 726.5,-112.5 653.5,-112.5"/>
<text text-anchor="middle" x="690" y="-119.5" font-family="Helvetica,sans-Serif" font-size="10.00">byteorder.h</text>
</a>
</g>
</g>
<!-- Node14&#45;&gt;Node15 -->
<g id="edge21" class="edge">
<title>Node14&#45;&gt;Node15</title>
<path fill="none" stroke="midnightblue" d="M589.86,-168.44C609.27,-159.64 639.73,-145.81 661.96,-135.72"/>
<polygon fill="midnightblue" stroke="midnightblue" points="663.57,-138.84 671.23,-131.52 660.68,-132.46 663.57,-138.84"/>
</g>
<!-- Node15&#45;&gt;Node3 -->
<g id="edge22" class="edge">
<title>Node15&#45;&gt;Node3</title>
<path fill="none" stroke="midnightblue" d="M702.01,-112.46C718.48,-99.7 744.47,-75.13 730,-56 715.25,-36.5 649.66,-23.02 607.46,-16.18"/>
<polygon fill="midnightblue" stroke="midnightblue" points="607.97,-12.72 597.55,-14.63 606.88,-19.64 607.97,-12.72"/>
</g>
<!-- Node16 -->
<g id="node16" class="node">
<title>Node16</title>
<g id="a_node16"><a xlink:href="unaligned_8h.html" target="_top" xlink:title="Unaligned but safe memory access functions.">
<polygon fill="none" stroke="black" points="647,-56.5 647,-75.5 721,-75.5 721,-56.5 647,-56.5"/>
<text text-anchor="middle" x="684" y="-63.5" font-family="Helvetica,sans-Serif" font-size="10.00">unaligned.h</text>
</a>
</g>
</g>
<!-- Node15&#45;&gt;Node16 -->
<g id="edge23" class="edge">
<title>Node15&#45;&gt;Node16</title>
<path fill="none" stroke="midnightblue" d="M689.01,-112.08C688.21,-104.93 687.07,-94.64 686.08,-85.69"/>
<polygon fill="midnightblue" stroke="midnightblue" points="689.56,-85.3 684.97,-75.75 682.6,-86.08 689.56,-85.3"/>
</g>
<!-- Node16&#45;&gt;Node3 -->
<g id="edge24" class="edge">
<title>Node16&#45;&gt;Node3</title>
<path fill="none" stroke="midnightblue" d="M666.09,-56.44C647.75,-47.68 618.99,-33.94 597.91,-23.86"/>
<polygon fill="midnightblue" stroke="midnightblue" points="599.35,-20.67 588.82,-19.52 596.33,-26.99 599.35,-20.67"/>
</g>
<!-- Node17&#45;&gt;Node3 -->
<g id="edge28" class="edge">
<title>Node17&#45;&gt;Node3</title>
<path fill="none" stroke="midnightblue" d="M400.65,-224.47C401.94,-211.52 405.67,-186.46 416,-168 450.85,-105.71 517.1,-50.92 550.56,-25.71"/>
<polygon fill="midnightblue" stroke="midnightblue" points="552.75,-28.44 558.7,-19.68 548.58,-22.82 552.75,-28.44"/>
</g>
<!-- Node17&#45;&gt;Node14 -->
<g id="edge31" class="edge">
<title>Node17&#45;&gt;Node14</title>
<path fill="none" stroke="midnightblue" d="M427.1,-224.44C455.99,-215.32 501.92,-200.81 534.11,-190.65"/>
<polygon fill="midnightblue" stroke="midnightblue" points="535.55,-193.87 544.03,-187.52 533.44,-187.19 535.55,-193.87"/>
</g>
<!-- Node17&#45;&gt;Node15 -->
<g id="edge30" class="edge">
<title>Node17&#45;&gt;Node15</title>
<path fill="none" stroke="midnightblue" d="M416.51,-224.46C450.36,-206.94 524.58,-168.55 526,-168 564.64,-152.92 610.25,-140.84 643.55,-133.01"/>
<polygon fill="midnightblue" stroke="midnightblue" points="644.51,-136.38 653.47,-130.72 642.94,-129.56 644.51,-136.38"/>
</g>
<!-- Node18 -->
<g id="node18" class="node">
<title>Node18</title>
<g id="a_node18"><a xlink:title=" ">
<polygon fill="none" stroke="#bfbfbf" points="425.5,-168.5 425.5,-187.5 478.5,-187.5 478.5,-168.5 425.5,-168.5"/>
<text text-anchor="middle" x="452" y="-175.5" font-family="Helvetica,sans-Serif" font-size="10.00">stdlib.h</text>
</a>
</g>
</g>
<!-- Node17&#45;&gt;Node18 -->
<g id="edge29" class="edge">
<title>Node17&#45;&gt;Node18</title>
<path fill="none" stroke="midnightblue" d="M408.59,-224.08C416.16,-216.22 427.38,-204.57 436.51,-195.08"/>
<polygon fill="midnightblue" stroke="midnightblue" points="439.16,-197.38 443.57,-187.75 434.12,-192.53 439.16,-197.38"/>
</g>
<!-- Node19&#45;&gt;Node10 -->
<g id="edge34" class="edge">
<title>Node19&#45;&gt;Node10</title>
<path fill="none" stroke="midnightblue" d="M447.75,-280.81C406.38,-273.29 353.78,-260.75 340,-244 318.47,-217.84 355.87,-193.88 334,-168 318.49,-149.65 259.7,-137.35 213.68,-130.32"/>
<polygon fill="midnightblue" stroke="midnightblue" points="214.18,-126.85 203.78,-128.85 213.16,-133.78 214.18,-126.85"/>
</g>
<!-- Node20 -->
<g id="node20" class="node">
<title>Node20</title>
<g id="a_node20"><a xlink:href="inttypes_8h.html" target="_top" xlink:title="Adds include for missing inttype definitions.">
<polygon fill="none" stroke="black" points="468.5,-224.5 468.5,-243.5 533.5,-243.5 533.5,-224.5 468.5,-224.5"/>
<text text-anchor="middle" x="501" y="-231.5" font-family="Helvetica,sans-Serif" font-size="10.00">inttypes.h</text>
</a>
</g>
</g>
<!-- Node19&#45;&gt;Node20 -->
<g id="edge33" class="edge">
<title>Node19&#45;&gt;Node20</title>
<path fill="none" stroke="midnightblue" d="M501,-280.08C501,-273.01 501,-262.86 501,-253.99"/>
<polygon fill="midnightblue" stroke="midnightblue" points="504.5,-253.75 501,-243.75 497.5,-253.75 504.5,-253.75"/>
</g>
<!-- Node21 -->
<g id="node21" class="node">
<title>Node21</title>
<g id="a_node21"><a xlink:href="ethertype_8h.html" target="_top" xlink:title="Ether type definitions.">
<polygon fill="none" stroke="black" points="552,-224.5 552,-243.5 644,-243.5 644,-224.5 552,-224.5"/>
<text text-anchor="middle" x="598" y="-231.5" font-family="Helvetica,sans-Serif" font-size="10.00">net/ethertype.h</text>
</a>
</g>
</g>
<!-- Node19&#45;&gt;Node21 -->
<g id="edge35" class="edge">
<title>Node19&#45;&gt;Node21</title>
<path fill="none" stroke="midnightblue" d="M516.58,-280.32C532,-271.74 555.81,-258.49 573.71,-248.52"/>
<polygon fill="midnightblue" stroke="midnightblue" points="575.42,-251.58 582.45,-243.65 572.01,-245.46 575.42,-251.58"/>
</g>
<!-- Node22 -->
<g id="node22" class="node">
<title>Node22</title>
<g id="a_node22"><a xlink:href="protnum_8h.html" target="_top" xlink:title="Protocol number definitions.">
<polygon fill="none" stroke="black" points="662,-224.5 662,-243.5 748,-243.5 748,-224.5 662,-224.5"/>
<text text-anchor="middle" x="705" y="-231.5" font-family="Helvetica,sans-Serif" font-size="10.00">net/protnum.h</text>
</a>
</g>
</g>
<!-- Node19&#45;&gt;Node22 -->
<g id="edge36" class="edge">
<title>Node19&#45;&gt;Node22</title>
<path fill="none" stroke="midnightblue" d="M533.32,-280.44C568.39,-271.16 624.5,-256.31 662.96,-246.13"/>
<polygon fill="midnightblue" stroke="midnightblue" points="664.06,-249.46 672.83,-243.52 662.26,-242.69 664.06,-249.46"/>
</g>
<!-- Node23&#45;&gt;Node3 -->
<g id="edge40" class="edge">
<title>Node23&#45;&gt;Node3</title>
<path fill="none" stroke="midnightblue" d="M920.01,-224.3C902.86,-195.28 843.24,-101.07 767,-56 716.96,-26.42 649.1,-16.28 607.77,-12.81"/>
<polygon fill="midnightblue" stroke="midnightblue" points="607.84,-9.3 597.6,-12.04 607.31,-16.28 607.84,-9.3"/>
</g>
<!-- Node23&#45;&gt;Node15 -->
<g id="edge41" class="edge">
<title>Node23&#45;&gt;Node15</title>
<path fill="none" stroke="midnightblue" d="M893.67,-225.89C838.53,-213.36 729.84,-188.61 729,-188 713.06,-176.43 702.43,-156.17 696.35,-141.34"/>
<polygon fill="midnightblue" stroke="midnightblue" points="699.51,-139.82 692.71,-131.7 692.96,-142.29 699.51,-139.82"/>
</g>
<!-- Node24 -->
<g id="node24" class="node">
<title>Node24</title>
<g id="a_node24"><a xlink:href="ntp__packet_8h.html" target="_top" xlink:title="NTP packet definitions.">
<polygon fill="none" stroke="black" points="738,-168.5 738,-187.5 836,-187.5 836,-168.5 738,-168.5"/>
<text text-anchor="middle" x="787" y="-175.5" font-family="Helvetica,sans-Serif" font-size="10.00">net/ntp_packet.h</text>
</a>
</g>
</g>
<!-- Node23&#45;&gt;Node24 -->
<g id="edge42" class="edge">
<title>Node23&#45;&gt;Node24</title>
<path fill="none" stroke="midnightblue" d="M903.13,-224.44C880.22,-215.48 844.02,-201.31 818.13,-191.18"/>
<polygon fill="midnightblue" stroke="midnightblue" points="819.35,-187.9 808.76,-187.52 816.8,-194.42 819.35,-187.9"/>
</g>
<!-- Node24&#45;&gt;Node3 -->
<g id="edge43" class="edge">
<title>Node24&#45;&gt;Node3</title>
<path fill="none" stroke="midnightblue" d="M786.74,-168.19C785.57,-145.91 779.33,-86.92 746,-56 708.29,-21.02 647.1,-12.39 607.97,-10.7"/>
<polygon fill="midnightblue" stroke="midnightblue" points="607.9,-7.2 597.8,-10.4 607.69,-14.2 607.9,-7.2"/>
</g>
<!-- Node24&#45;&gt;Node15 -->
<g id="edge44" class="edge">
<title>Node24&#45;&gt;Node15</title>
<path fill="none" stroke="midnightblue" d="M771.42,-168.32C756,-159.74 732.19,-146.49 714.29,-136.52"/>
<polygon fill="midnightblue" stroke="midnightblue" points="715.99,-133.46 705.55,-131.65 712.58,-139.58 715.99,-133.46"/>
</g>
</g>
</svg>
