<?xml version="1.0" encoding="UTF-8" standalone="no"?>
<!DOCTYPE svg PUBLIC "-//W3C//DTD SVG 1.1//EN"
 "http://www.w3.org/Graphics/SVG/1.1/DTD/svg11.dtd">
<!-- Generated by graphviz version 2.43.0 (0)
 -->
<!-- Title: drivers/include/soft_uart.h Pages: 1 -->
<svg width="405pt" height="151pt"
 viewBox="0.00 0.00 404.50 151.00" xmlns="http://www.w3.org/2000/svg" xmlns:xlink="http://www.w3.org/1999/xlink">
<g id="graph0" class="graph" transform="scale(1 1) rotate(0) translate(4 147)">
<title>drivers/include/soft_uart.h</title>
<!-- Node1 -->
<g id="node1" class="node">
<title>Node1</title>
<g id="a_node1"><a xlink:title="Software UART port descriptor definition.">
<polygon fill="#bfbfbf" stroke="black" points="105.5,-112.5 105.5,-142.5 215.5,-142.5 215.5,-112.5 105.5,-112.5"/>
<text text-anchor="start" x="113.5" y="-130.5" font-family="Helvetica,sans-Serif" font-size="10.00">drivers/include/soft</text>
<text text-anchor="middle" x="160.5" y="-119.5" font-family="Helvetica,sans-Serif" font-size="10.00">_uart.h</text>
</a>
</g>
</g>
<!-- Node2 -->
<g id="node2" class="node">
<title>Node2</title>
<g id="a_node2"><a xlink:href="gpio_8h.html" target="_top" xlink:title="Low&#45;level GPIO peripheral driver interface definitions.">
<polygon fill="none" stroke="black" points="19.5,-56.5 19.5,-75.5 99.5,-75.5 99.5,-56.5 19.5,-56.5"/>
<text text-anchor="middle" x="59.5" y="-63.5" font-family="Helvetica,sans-Serif" font-size="10.00">periph/gpio.h</text>
</a>
</g>
</g>
<!-- Node1&#45;&gt;Node2 -->
<g id="edge1" class="edge">
<title>Node1&#45;&gt;Node2</title>
<path fill="none" stroke="midnightblue" d="M136.56,-112.4C120.37,-102.86 99.09,-90.32 83,-80.84"/>
<polygon fill="midnightblue" stroke="midnightblue" points="84.59,-77.72 74.2,-75.66 81.04,-83.75 84.59,-77.72"/>
</g>
<!-- Node6 -->
<g id="node6" class="node">
<title>Node6</title>
<g id="a_node6"><a xlink:href="uart_8h.html" target="_top" xlink:title="Low&#45;level UART peripheral driver interface definition.">
<polygon fill="none" stroke="black" points="222,-56.5 222,-75.5 301,-75.5 301,-56.5 222,-56.5"/>
<text text-anchor="middle" x="261.5" y="-63.5" font-family="Helvetica,sans-Serif" font-size="10.00">periph/uart.h</text>
</a>
</g>
</g>
<!-- Node1&#45;&gt;Node6 -->
<g id="edge5" class="edge">
<title>Node1&#45;&gt;Node6</title>
<path fill="none" stroke="midnightblue" d="M184.44,-112.4C200.63,-102.86 221.91,-90.32 238,-80.84"/>
<polygon fill="midnightblue" stroke="midnightblue" points="239.96,-83.75 246.8,-75.66 236.41,-77.72 239.96,-83.75"/>
</g>
<!-- Node9 -->
<g id="node9" class="node">
<title>Node9</title>
<g id="a_node9"><a xlink:href="drivers_2include_2periph_2timer_8h.html" target="_top" xlink:title="Low&#45;level timer peripheral driver interface definitions.">
<polygon fill="none" stroke="black" points="117.5,-56.5 117.5,-75.5 203.5,-75.5 203.5,-56.5 117.5,-56.5"/>
<text text-anchor="middle" x="160.5" y="-63.5" font-family="Helvetica,sans-Serif" font-size="10.00">periph/timer.h</text>
</a>
</g>
</g>
<!-- Node1&#45;&gt;Node9 -->
<g id="edge11" class="edge">
<title>Node1&#45;&gt;Node9</title>
<path fill="none" stroke="midnightblue" d="M160.5,-112.4C160.5,-104.47 160.5,-94.46 160.5,-85.86"/>
<polygon fill="midnightblue" stroke="midnightblue" points="164,-85.66 160.5,-75.66 157,-85.66 164,-85.66"/>
</g>
<!-- Node3 -->
<g id="node3" class="node">
<title>Node3</title>
<g id="a_node3"><a xlink:title=" ">
<polygon fill="none" stroke="#bfbfbf" points="0,-0.5 0,-19.5 53,-19.5 53,-0.5 0,-0.5"/>
<text text-anchor="middle" x="26.5" y="-7.5" font-family="Helvetica,sans-Serif" font-size="10.00">limits.h</text>
</a>
</g>
</g>
<!-- Node2&#45;&gt;Node3 -->
<g id="edge2" class="edge">
<title>Node2&#45;&gt;Node3</title>
<path fill="none" stroke="midnightblue" d="M54.05,-56.08C49.49,-48.61 42.83,-37.72 37.21,-28.52"/>
<polygon fill="midnightblue" stroke="midnightblue" points="40.05,-26.46 31.85,-19.75 34.08,-30.11 40.05,-26.46"/>
</g>
<!-- Node4 -->
<g id="node4" class="node">
<title>Node4</title>
<g id="a_node4"><a xlink:title=" ">
<polygon fill="none" stroke="#bfbfbf" points="71,-0.5 71,-19.5 150,-19.5 150,-0.5 71,-0.5"/>
<text text-anchor="middle" x="110.5" y="-7.5" font-family="Helvetica,sans-Serif" font-size="10.00">periph_cpu.h</text>
</a>
</g>
</g>
<!-- Node2&#45;&gt;Node4 -->
<g id="edge3" class="edge">
<title>Node2&#45;&gt;Node4</title>
<path fill="none" stroke="midnightblue" d="M67.92,-56.08C75.35,-48.22 86.35,-36.57 95.31,-27.08"/>
<polygon fill="midnightblue" stroke="midnightblue" points="97.91,-29.42 102.24,-19.75 92.82,-24.62 97.91,-29.42"/>
</g>
<!-- Node5 -->
<g id="node5" class="node">
<title>Node5</title>
<g id="a_node5"><a xlink:title=" ">
<polygon fill="none" stroke="#bfbfbf" points="168.5,-0.5 168.5,-19.5 250.5,-19.5 250.5,-0.5 168.5,-0.5"/>
<text text-anchor="middle" x="209.5" y="-7.5" font-family="Helvetica,sans-Serif" font-size="10.00">periph_conf.h</text>
</a>
</g>
</g>
<!-- Node2&#45;&gt;Node5 -->
<g id="edge4" class="edge">
<title>Node2&#45;&gt;Node5</title>
<path fill="none" stroke="midnightblue" d="M83.27,-56.44C108.39,-47.4 148.21,-33.06 176.4,-22.92"/>
<polygon fill="midnightblue" stroke="midnightblue" points="177.62,-26.2 185.84,-19.52 175.25,-19.61 177.62,-26.2"/>
</g>
<!-- Node6&#45;&gt;Node3 -->
<g id="edge8" class="edge">
<title>Node6&#45;&gt;Node3</title>
<path fill="none" stroke="midnightblue" d="M221.95,-56.47C183.68,-48.14 123.77,-34.88 63.33,-20.39"/>
<polygon fill="midnightblue" stroke="midnightblue" points="63.77,-16.9 53.23,-17.96 62.14,-23.71 63.77,-16.9"/>
</g>
<!-- Node6&#45;&gt;Node4 -->
<g id="edge9" class="edge">
<title>Node6&#45;&gt;Node4</title>
<path fill="none" stroke="midnightblue" d="M237.57,-56.44C212.28,-47.4 172.2,-33.06 143.82,-22.92"/>
<polygon fill="midnightblue" stroke="midnightblue" points="144.91,-19.59 134.31,-19.52 142.55,-26.18 144.91,-19.59"/>
</g>
<!-- Node6&#45;&gt;Node5 -->
<g id="edge10" class="edge">
<title>Node6&#45;&gt;Node5</title>
<path fill="none" stroke="midnightblue" d="M252.91,-56.08C245.34,-48.22 234.12,-36.57 224.99,-27.08"/>
<polygon fill="midnightblue" stroke="midnightblue" points="227.38,-24.53 217.93,-19.75 222.34,-29.38 227.38,-24.53"/>
</g>
<!-- Node7 -->
<g id="node7" class="node">
<title>Node7</title>
<g id="a_node7"><a xlink:title=" ">
<polygon fill="none" stroke="#bfbfbf" points="340.5,-0.5 340.5,-19.5 396.5,-19.5 396.5,-0.5 340.5,-0.5"/>
<text text-anchor="middle" x="368.5" y="-7.5" font-family="Helvetica,sans-Serif" font-size="10.00">stddef.h</text>
</a>
</g>
</g>
<!-- Node6&#45;&gt;Node7 -->
<g id="edge6" class="edge">
<title>Node6&#45;&gt;Node7</title>
<path fill="none" stroke="midnightblue" d="M278.69,-56.32C295.85,-47.66 322.45,-34.24 342.25,-24.25"/>
<polygon fill="midnightblue" stroke="midnightblue" points="344,-27.28 351.35,-19.65 340.85,-21.04 344,-27.28"/>
</g>
<!-- Node8 -->
<g id="node8" class="node">
<title>Node8</title>
<g id="a_node8"><a xlink:title=" ">
<polygon fill="none" stroke="#bfbfbf" points="269,-0.5 269,-19.5 322,-19.5 322,-0.5 269,-0.5"/>
<text text-anchor="middle" x="295.5" y="-7.5" font-family="Helvetica,sans-Serif" font-size="10.00">stdint.h</text>
</a>
</g>
</g>
<!-- Node6&#45;&gt;Node8 -->
<g id="edge7" class="edge">
<title>Node6&#45;&gt;Node8</title>
<path fill="none" stroke="midnightblue" d="M267.11,-56.08C271.87,-48.53 278.82,-37.49 284.65,-28.23"/>
<polygon fill="midnightblue" stroke="midnightblue" points="287.62,-30.08 289.99,-19.75 281.7,-26.35 287.62,-30.08"/>
</g>
<!-- Node9&#45;&gt;Node3 -->
<g id="edge12" class="edge">
<title>Node9&#45;&gt;Node3</title>
<path fill="none" stroke="midnightblue" d="M139.27,-56.44C117.12,-47.52 82.18,-33.44 57.06,-23.32"/>
<polygon fill="midnightblue" stroke="midnightblue" points="58.22,-20.01 47.63,-19.52 55.6,-26.5 58.22,-20.01"/>
</g>
<!-- Node9&#45;&gt;Node4 -->
<g id="edge14" class="edge">
<title>Node9&#45;&gt;Node4</title>
<path fill="none" stroke="midnightblue" d="M152.24,-56.08C145.04,-48.3 134.39,-36.8 125.65,-27.37"/>
<polygon fill="midnightblue" stroke="midnightblue" points="127.97,-24.71 118.6,-19.75 122.83,-29.47 127.97,-24.71"/>
</g>
<!-- Node9&#45;&gt;Node5 -->
<g id="edge15" class="edge">
<title>Node9&#45;&gt;Node5</title>
<path fill="none" stroke="midnightblue" d="M168.59,-56.08C175.66,-48.3 186.09,-36.8 194.65,-27.37"/>
<polygon fill="midnightblue" stroke="midnightblue" points="197.43,-29.51 201.56,-19.75 192.25,-24.8 197.43,-29.51"/>
</g>
<!-- Node9&#45;&gt;Node8 -->
<g id="edge13" class="edge">
<title>Node9&#45;&gt;Node8</title>
<path fill="none" stroke="midnightblue" d="M181.89,-56.44C204.21,-47.52 239.4,-33.44 264.71,-23.32"/>
<polygon fill="midnightblue" stroke="midnightblue" points="266.22,-26.48 274.21,-19.52 263.62,-19.98 266.22,-26.48"/>
</g>
</g>
</svg>
