<?xml version="1.0" encoding="UTF-8" standalone="no"?>
<!DOCTYPE svg PUBLIC "-//W3C//DTD SVG 1.1//EN"
 "http://www.w3.org/Graphics/SVG/1.1/DTD/svg11.dtd">
<!-- Generated by graphviz version 2.40.1 (20161225.0304)
 -->
<!-- Title: drivers/include/periph/spi.h Pages: 1 -->
<svg width="437pt" height="151pt"
 viewBox="0.00 0.00 436.50 151.00" xmlns="http://www.w3.org/2000/svg" xmlns:xlink="http://www.w3.org/1999/xlink">
<g id="graph0" class="graph" transform="scale(1 1) rotate(0) translate(4 147)">
<title>drivers/include/periph/spi.h</title>
<!-- Node0 -->
<g id="node1" class="node">
<title>Node0</title>
<polygon fill="#bfbfbf" stroke="#000000" points="167.5,-112.5 167.5,-142.5 276.5,-142.5 276.5,-112.5 167.5,-112.5"/>
<text text-anchor="start" x="175.5" y="-130.5" font-family="Helvetica,sans-Serif" font-size="10.00" fill="#000000">drivers/include/periph</text>
<text text-anchor="middle" x="222" y="-119.5" font-family="Helvetica,sans-Serif" font-size="10.00" fill="#000000">/spi.h</text>
</g>
<!-- Node1 -->
<g id="node2" class="node">
<title>Node1</title>
<polygon fill="none" stroke="#bfbfbf" points="0,-56.5 0,-75.5 56,-75.5 56,-56.5 0,-56.5"/>
<text text-anchor="middle" x="28" y="-63.5" font-family="Helvetica,sans-Serif" font-size="10.00" fill="#000000">stdbool.h</text>
</g>
<!-- Node0&#45;&gt;Node1 -->
<g id="edge1" class="edge">
<title>Node0&#45;&gt;Node1</title>
<path fill="none" stroke="#191970" d="M174.5423,-112.4554C141.0384,-101.8343 96.7555,-87.7962 65.6707,-77.942"/>
<polygon fill="#191970" stroke="#191970" points="66.6626,-74.5848 56.0724,-74.8992 64.5472,-81.2576 66.6626,-74.5848"/>
</g>
<!-- Node2 -->
<g id="node3" class="node">
<title>Node2</title>
<polygon fill="none" stroke="#bfbfbf" points="74,-56.5 74,-75.5 126,-75.5 126,-56.5 74,-56.5"/>
<text text-anchor="middle" x="100" y="-63.5" font-family="Helvetica,sans-Serif" font-size="10.00" fill="#000000">stddef.h</text>
</g>
<!-- Node0&#45;&gt;Node2 -->
<g id="edge2" class="edge">
<title>Node0&#45;&gt;Node2</title>
<path fill="none" stroke="#191970" d="M192.1554,-112.4554C172.603,-102.599 147.2128,-89.7999 128.0355,-80.1327"/>
<polygon fill="#191970" stroke="#191970" points="129.4108,-76.9064 118.9057,-75.5303 126.2598,-83.1571 129.4108,-76.9064"/>
</g>
<!-- Node3 -->
<g id="node4" class="node">
<title>Node3</title>
<polygon fill="none" stroke="#bfbfbf" points="144.5,-56.5 144.5,-75.5 193.5,-75.5 193.5,-56.5 144.5,-56.5"/>
<text text-anchor="middle" x="169" y="-63.5" font-family="Helvetica,sans-Serif" font-size="10.00" fill="#000000">stdint.h</text>
</g>
<!-- Node0&#45;&gt;Node3 -->
<g id="edge3" class="edge">
<title>Node0&#45;&gt;Node3</title>
<path fill="none" stroke="#191970" d="M208.8989,-112.2977C201.3887,-103.5831 191.93,-92.6075 184.1073,-83.5302"/>
<polygon fill="#191970" stroke="#191970" points="186.6655,-81.1372 177.486,-75.8469 181.3629,-85.707 186.6655,-81.1372"/>
</g>
<!-- Node4 -->
<g id="node5" class="node">
<title>Node4</title>
<polygon fill="none" stroke="#bfbfbf" points="197,-.5 197,-19.5 245,-19.5 245,-.5 197,-.5"/>
<text text-anchor="middle" x="221" y="-7.5" font-family="Helvetica,sans-Serif" font-size="10.00" fill="#000000">limits.h</text>
</g>
<!-- Node0&#45;&gt;Node4 -->
<g id="edge4" class="edge">
<title>Node0&#45;&gt;Node4</title>
<path fill="none" stroke="#191970" d="M221.8693,-112.1389C221.6891,-90.9692 221.3644,-52.8174 221.1669,-29.6112"/>
<polygon fill="#191970" stroke="#191970" points="224.6664,-29.5293 221.0814,-19.5595 217.6667,-29.5889 224.6664,-29.5293"/>
</g>
<!-- Node5 -->
<g id="node6" class="node">
<title>Node5</title>
<polygon fill="none" stroke="#bfbfbf" points="263,-.5 263,-19.5 335,-19.5 335,-.5 263,-.5"/>
<text text-anchor="middle" x="299" y="-7.5" font-family="Helvetica,sans-Serif" font-size="10.00" fill="#000000">periph_cpu.h</text>
</g>
<!-- Node0&#45;&gt;Node5 -->
<g id="edge5" class="edge">
<title>Node0&#45;&gt;Node5</title>
<path fill="none" stroke="#191970" d="M232.0664,-112.1389C246.2546,-90.4881 272.0831,-51.0745 287.1699,-28.0525"/>
<polygon fill="#191970" stroke="#191970" points="290.1817,-29.842 292.7355,-19.5595 284.3269,-26.0051 290.1817,-29.842"/>
</g>
<!-- Node6 -->
<g id="node7" class="node">
<title>Node6</title>
<polygon fill="none" stroke="#bfbfbf" points="353.5,-.5 353.5,-19.5 428.5,-19.5 428.5,-.5 353.5,-.5"/>
<text text-anchor="middle" x="391" y="-7.5" font-family="Helvetica,sans-Serif" font-size="10.00" fill="#000000">periph_conf.h</text>
</g>
<!-- Node0&#45;&gt;Node6 -->
<g id="edge6" class="edge">
<title>Node0&#45;&gt;Node6</title>
<path fill="none" stroke="#191970" d="M276.5659,-120.4019C307.3867,-113.7364 344.5219,-100.8537 369,-76 381.1567,-63.6568 386.5972,-44.4254 389.0312,-29.8999"/>
<polygon fill="#191970" stroke="#191970" points="392.5119,-30.277 390.368,-19.9014 385.5736,-29.3494 392.5119,-30.277"/>
</g>
<!-- Node7 -->
<g id="node8" class="node">
<title>Node7</title>
<g id="a_node8"><a xlink:href="gpio_8h.html" target="_top" xlink:title="Low&#45;level GPIO peripheral driver interface definitions. ">
<polygon fill="none" stroke="#000000" points="288,-56.5 288,-75.5 360,-75.5 360,-56.5 288,-56.5"/>
<text text-anchor="middle" x="324" y="-63.5" font-family="Helvetica,sans-Serif" font-size="10.00" fill="#000000">periph/gpio.h</text>
</a>
</g>
</g>
<!-- Node0&#45;&gt;Node7 -->
<g id="edge7" class="edge">
<title>Node0&#45;&gt;Node7</title>
<path fill="none" stroke="#191970" d="M246.952,-112.4554C262.9259,-102.8241 283.5602,-90.3828 299.4543,-80.7996"/>
<polygon fill="#191970" stroke="#191970" points="301.437,-83.6912 308.1936,-75.5303 297.8226,-77.6965 301.437,-83.6912"/>
</g>
<!-- Node7&#45;&gt;Node4 -->
<g id="edge8" class="edge">
<title>Node7&#45;&gt;Node4</title>
<path fill="none" stroke="#191970" d="M306.0588,-56.2455C289.96,-47.4928 266.1121,-34.527 247.7609,-24.5496"/>
<polygon fill="#191970" stroke="#191970" points="249.1929,-21.3444 238.7356,-19.6427 245.8493,-27.4942 249.1929,-21.3444"/>
</g>
<!-- Node7&#45;&gt;Node5 -->
<g id="edge9" class="edge">
<title>Node7&#45;&gt;Node5</title>
<path fill="none" stroke="#191970" d="M319.6453,-56.2455C316.2756,-48.6973 311.507,-38.0158 307.4017,-28.8197"/>
<polygon fill="#191970" stroke="#191970" points="310.5773,-27.3473 303.3048,-19.6427 304.1853,-30.2009 310.5773,-27.3473"/>
</g>
<!-- Node7&#45;&gt;Node6 -->
<g id="edge10" class="edge">
<title>Node7&#45;&gt;Node6</title>
<path fill="none" stroke="#191970" d="M335.6705,-56.2455C345.5661,-47.9746 359.9627,-35.9416 371.5901,-26.2232"/>
<polygon fill="#191970" stroke="#191970" points="374.035,-28.7413 379.4632,-19.6427 369.5458,-23.3703 374.035,-28.7413"/>
</g>
</g>
</svg>
