<?xml version="1.0" encoding="UTF-8" standalone="no"?>
<!DOCTYPE svg PUBLIC "-//W3C//DTD SVG 1.1//EN"
 "http://www.w3.org/Graphics/SVG/1.1/DTD/svg11.dtd">
<!-- Generated by graphviz version 2.40.1 (20161225.0304)
 -->
<!-- Title: cpu/native/include/spidev_linux.h Pages: 1 -->
<svg width="475pt" height="207pt"
 viewBox="0.00 0.00 475.00 207.00" xmlns="http://www.w3.org/2000/svg" xmlns:xlink="http://www.w3.org/1999/xlink">
<g id="graph0" class="graph" transform="scale(1 1) rotate(0) translate(4 203)">
<title>cpu/native/include/spidev_linux.h</title>
<!-- Node0 -->
<g id="node1" class="node">
<title>Node0</title>
<polygon fill="#bfbfbf" stroke="#000000" points="179.5,-168.5 179.5,-198.5 274.5,-198.5 274.5,-168.5 179.5,-168.5"/>
<text text-anchor="start" x="187.5" y="-186.5" font-family="Helvetica,sans-Serif" font-size="10.00" fill="#000000">cpu/native/include</text>
<text text-anchor="middle" x="227" y="-175.5" font-family="Helvetica,sans-Serif" font-size="10.00" fill="#000000">/spidev_linux.h</text>
</g>
<!-- Node1 -->
<g id="node2" class="node">
<title>Node1</title>
<g id="a_node2"><a xlink:href="spi_8h.html" target="_top" xlink:title="Low&#45;level SPI peripheral driver interface definition. ">
<polygon fill="none" stroke="#000000" points="193.5,-112.5 193.5,-131.5 260.5,-131.5 260.5,-112.5 193.5,-112.5"/>
<text text-anchor="middle" x="227" y="-119.5" font-family="Helvetica,sans-Serif" font-size="10.00" fill="#000000">periph/spi.h</text>
</a>
</g>
</g>
<!-- Node0&#45;&gt;Node1 -->
<g id="edge1" class="edge">
<title>Node0&#45;&gt;Node1</title>
<path fill="none" stroke="#191970" d="M227,-168.2977C227,-160.3834 227,-150.6043 227,-142.0759"/>
<polygon fill="#191970" stroke="#191970" points="230.5001,-141.8469 227,-131.8469 223.5001,-141.847 230.5001,-141.8469"/>
</g>
<!-- Node9 -->
<g id="node10" class="node">
<title>Node9</title>
<g id="a_node10"><a xlink:href="mutex_8h.html" target="_top" xlink:title="Mutex for thread synchronization. ">
<polygon fill="none" stroke="#000000" points="101,-112.5 101,-131.5 153,-131.5 153,-112.5 101,-112.5"/>
<text text-anchor="middle" x="127" y="-119.5" font-family="Helvetica,sans-Serif" font-size="10.00" fill="#000000">mutex.h</text>
</a>
</g>
</g>
<!-- Node0&#45;&gt;Node9 -->
<g id="edge12" class="edge">
<title>Node0&#45;&gt;Node9</title>
<path fill="none" stroke="#191970" d="M202.5372,-168.4554C186.8765,-158.8241 166.6468,-146.3828 151.0644,-136.7996"/>
<polygon fill="#191970" stroke="#191970" points="152.848,-133.7876 142.4965,-131.5303 149.181,-139.7503 152.848,-133.7876"/>
</g>
<!-- Node11 -->
<g id="node12" class="node">
<title>Node11</title>
<g id="a_node12"><a xlink:href="cpu_2native_2include_2periph__conf_8h.html" target="_top" xlink:title="Native CPU peripheral configuration. ">
<polygon fill="none" stroke="#000000" points="278.5,-112.5 278.5,-131.5 353.5,-131.5 353.5,-112.5 278.5,-112.5"/>
<text text-anchor="middle" x="316" y="-119.5" font-family="Helvetica,sans-Serif" font-size="10.00" fill="#000000">periph_conf.h</text>
</a>
</g>
</g>
<!-- Node0&#45;&gt;Node11 -->
<g id="edge16" class="edge">
<title>Node0&#45;&gt;Node11</title>
<path fill="none" stroke="#191970" d="M249,-168.2977C262.5968,-158.9022 279.9966,-146.8787 293.6567,-137.4395"/>
<polygon fill="#191970" stroke="#191970" points="295.7785,-140.2276 302.0158,-131.6633 291.7991,-134.4688 295.7785,-140.2276"/>
</g>
<!-- Node2 -->
<g id="node3" class="node">
<title>Node2</title>
<polygon fill="none" stroke="#bfbfbf" points="232,-56.5 232,-75.5 288,-75.5 288,-56.5 232,-56.5"/>
<text text-anchor="middle" x="260" y="-63.5" font-family="Helvetica,sans-Serif" font-size="10.00" fill="#000000">stdbool.h</text>
</g>
<!-- Node1&#45;&gt;Node2 -->
<g id="edge2" class="edge">
<title>Node1&#45;&gt;Node2</title>
<path fill="none" stroke="#191970" d="M232.7482,-112.2455C237.2435,-104.617 243.6248,-93.7881 249.0825,-84.5267"/>
<polygon fill="#191970" stroke="#191970" points="252.2561,-86.035 254.3177,-75.6427 246.2253,-82.4811 252.2561,-86.035"/>
</g>
<!-- Node3 -->
<g id="node4" class="node">
<title>Node3</title>
<polygon fill="none" stroke="#bfbfbf" points="56,-56.5 56,-75.5 108,-75.5 108,-56.5 56,-56.5"/>
<text text-anchor="middle" x="82" y="-63.5" font-family="Helvetica,sans-Serif" font-size="10.00" fill="#000000">stddef.h</text>
</g>
<!-- Node1&#45;&gt;Node3 -->
<g id="edge3" class="edge">
<title>Node1&#45;&gt;Node3</title>
<path fill="none" stroke="#191970" d="M202.0736,-112.3733C178.3798,-103.2226 142.5489,-89.3844 116.1932,-79.2057"/>
<polygon fill="#191970" stroke="#191970" points="117.1906,-75.8389 106.6011,-75.5011 114.6686,-82.3689 117.1906,-75.8389"/>
</g>
<!-- Node4 -->
<g id="node5" class="node">
<title>Node4</title>
<polygon fill="none" stroke="#bfbfbf" points="126.5,-56.5 126.5,-75.5 175.5,-75.5 175.5,-56.5 126.5,-56.5"/>
<text text-anchor="middle" x="151" y="-63.5" font-family="Helvetica,sans-Serif" font-size="10.00" fill="#000000">stdint.h</text>
</g>
<!-- Node1&#45;&gt;Node4 -->
<g id="edge4" class="edge">
<title>Node1&#45;&gt;Node4</title>
<path fill="none" stroke="#191970" d="M213.7618,-112.2455C202.319,-103.814 185.5704,-91.4729 172.2525,-81.6598"/>
<polygon fill="#191970" stroke="#191970" points="174.2133,-78.757 164.0865,-75.6427 170.0609,-84.3924 174.2133,-78.757"/>
</g>
<!-- Node5 -->
<g id="node6" class="node">
<title>Node5</title>
<polygon fill="none" stroke="#bfbfbf" points="304,-.5 304,-19.5 352,-19.5 352,-.5 304,-.5"/>
<text text-anchor="middle" x="328" y="-7.5" font-family="Helvetica,sans-Serif" font-size="10.00" fill="#000000">limits.h</text>
</g>
<!-- Node1&#45;&gt;Node5 -->
<g id="edge5" class="edge">
<title>Node1&#45;&gt;Node5</title>
<path fill="none" stroke="#191970" d="M247.595,-112.3754C262.849,-104.399 283.2827,-91.822 297,-76 308.7626,-62.4325 317.0075,-43.6378 322.0217,-29.5737"/>
<polygon fill="#191970" stroke="#191970" points="325.4022,-30.4992 325.2311,-19.9058 318.7587,-28.2938 325.4022,-30.4992"/>
</g>
<!-- Node6 -->
<g id="node7" class="node">
<title>Node6</title>
<polygon fill="none" stroke="#bfbfbf" points="395,-.5 395,-19.5 467,-19.5 467,-.5 395,-.5"/>
<text text-anchor="middle" x="431" y="-7.5" font-family="Helvetica,sans-Serif" font-size="10.00" fill="#000000">periph_cpu.h</text>
</g>
<!-- Node1&#45;&gt;Node6 -->
<g id="edge6" class="edge">
<title>Node1&#45;&gt;Node6</title>
<path fill="none" stroke="#191970" d="M260.9212,-113.9022C263.654,-113.2563 266.3728,-112.6159 269,-112 338.2774,-95.7594 378.2242,-129.6203 425,-76 435.8489,-63.5637 436.4241,-44.3436 434.8324,-29.8459"/>
<polygon fill="#191970" stroke="#191970" points="438.2802,-29.2363 433.3272,-19.8705 431.3585,-30.2808 438.2802,-29.2363"/>
</g>
<!-- Node7 -->
<g id="node8" class="node">
<title>Node7</title>
<polygon fill="none" stroke="#bfbfbf" points="194.5,-.5 194.5,-19.5 269.5,-19.5 269.5,-.5 194.5,-.5"/>
<text text-anchor="middle" x="232" y="-7.5" font-family="Helvetica,sans-Serif" font-size="10.00" fill="#000000">periph_conf.h</text>
</g>
<!-- Node1&#45;&gt;Node7 -->
<g id="edge7" class="edge">
<title>Node1&#45;&gt;Node7</title>
<path fill="none" stroke="#191970" d="M225.4387,-112.1426C223.6137,-99.2266 221.0734,-75.8809 223,-56 223.8418,-47.3132 225.5579,-37.8313 227.268,-29.7451"/>
<polygon fill="#191970" stroke="#191970" points="230.7274,-30.3146 229.5135,-19.7895 223.899,-28.7743 230.7274,-30.3146"/>
</g>
<!-- Node8 -->
<g id="node9" class="node">
<title>Node8</title>
<g id="a_node9"><a xlink:href="gpio_8h.html" target="_top" xlink:title="Low&#45;level GPIO peripheral driver interface definitions. ">
<polygon fill="none" stroke="#000000" points="344,-56.5 344,-75.5 416,-75.5 416,-56.5 344,-56.5"/>
<text text-anchor="middle" x="380" y="-63.5" font-family="Helvetica,sans-Serif" font-size="10.00" fill="#000000">periph/gpio.h</text>
</a>
</g>
</g>
<!-- Node1&#45;&gt;Node8 -->
<g id="edge8" class="edge">
<title>Node1&#45;&gt;Node8</title>
<path fill="none" stroke="#191970" d="M253.3016,-112.3733C278.4128,-103.1822 316.4438,-89.2624 344.2872,-79.0713"/>
<polygon fill="#191970" stroke="#191970" points="345.8538,-82.2251 354.0416,-75.5011 343.4478,-75.6516 345.8538,-82.2251"/>
</g>
<!-- Node8&#45;&gt;Node5 -->
<g id="edge9" class="edge">
<title>Node8&#45;&gt;Node5</title>
<path fill="none" stroke="#191970" d="M370.9423,-56.2455C363.4858,-48.2155 352.7366,-36.6394 343.8583,-27.0781"/>
<polygon fill="#191970" stroke="#191970" points="346.3232,-24.589 336.9539,-19.6427 341.1937,-29.3522 346.3232,-24.589"/>
</g>
<!-- Node8&#45;&gt;Node6 -->
<g id="edge10" class="edge">
<title>Node8&#45;&gt;Node6</title>
<path fill="none" stroke="#191970" d="M388.8835,-56.2455C396.1966,-48.2155 406.7391,-36.6394 415.4467,-27.0781"/>
<polygon fill="#191970" stroke="#191970" points="418.0727,-29.3928 422.2183,-19.6427 412.8972,-24.6795 418.0727,-29.3928"/>
</g>
<!-- Node8&#45;&gt;Node7 -->
<g id="edge11" class="edge">
<title>Node8&#45;&gt;Node7</title>
<path fill="none" stroke="#191970" d="M354.5579,-56.3733C330.2674,-47.1822 293.4792,-33.2624 266.5457,-23.0713"/>
<polygon fill="#191970" stroke="#191970" points="267.7016,-19.7666 257.1101,-19.5011 265.2243,-26.3136 267.7016,-19.7666"/>
</g>
<!-- Node9&#45;&gt;Node3 -->
<g id="edge13" class="edge">
<title>Node9&#45;&gt;Node3</title>
<path fill="none" stroke="#191970" d="M119.1616,-112.2455C112.838,-104.3761 103.7776,-93.101 96.1864,-83.6542"/>
<polygon fill="#191970" stroke="#191970" points="98.7408,-81.2454 89.7486,-75.6427 93.2842,-85.6302 98.7408,-81.2454"/>
</g>
<!-- Node9&#45;&gt;Node4 -->
<g id="edge14" class="edge">
<title>Node9&#45;&gt;Node4</title>
<path fill="none" stroke="#191970" d="M131.1805,-112.2455C134.381,-104.7776 138.896,-94.2427 142.8084,-85.1137"/>
<polygon fill="#191970" stroke="#191970" points="146.1452,-86.2129 146.8674,-75.6427 139.7112,-83.4554 146.1452,-86.2129"/>
</g>
<!-- Node10 -->
<g id="node11" class="node">
<title>Node10</title>
<g id="a_node11"><a xlink:href="list_8h.html" target="_top" xlink:title="Intrusive linked list. ">
<polygon fill="none" stroke="#000000" points="0,-56.5 0,-75.5 38,-75.5 38,-56.5 0,-56.5"/>
<text text-anchor="middle" x="19" y="-63.5" font-family="Helvetica,sans-Serif" font-size="10.00" fill="#000000">list.h</text>
</a>
</g>
</g>
<!-- Node9&#45;&gt;Node10 -->
<g id="edge15" class="edge">
<title>Node9&#45;&gt;Node10</title>
<path fill="none" stroke="#191970" d="M108.1878,-112.2455C91.1527,-103.4125 65.8425,-90.2887 46.5319,-80.2758"/>
<polygon fill="#191970" stroke="#191970" points="48.0853,-77.1388 37.5966,-75.6427 44.863,-83.353 48.0853,-77.1388"/>
</g>
</g>
</svg>
