<?xml version="1.0" encoding="UTF-8" standalone="no"?>
<!DOCTYPE svg PUBLIC "-//W3C//DTD SVG 1.1//EN"
 "http://www.w3.org/Graphics/SVG/1.1/DTD/svg11.dtd">
<!-- Generated by graphviz version 2.40.1 (20161225.0304)
 -->
<!-- Title: drivers/sps30/include/sps30_params.h Pages: 1 -->
<svg width="570pt" height="319pt"
 viewBox="0.00 0.00 569.69 319.00" xmlns="http://www.w3.org/2000/svg" xmlns:xlink="http://www.w3.org/1999/xlink">
<g id="graph0" class="graph" transform="scale(1 1) rotate(0) translate(4 315)">
<title>drivers/sps30/include/sps30_params.h</title>
<!-- Node0 -->
<g id="node1" class="node">
<title>Node0</title>
<polygon fill="#bfbfbf" stroke="#000000" points="163.1936,-280.5 163.1936,-310.5 272.1936,-310.5 272.1936,-280.5 163.1936,-280.5"/>
<text text-anchor="start" x="171.1936" y="-298.5" font-family="Helvetica,sans-Serif" font-size="10.00" fill="#000000">drivers/sps30/include</text>
<text text-anchor="middle" x="217.6936" y="-287.5" font-family="Helvetica,sans-Serif" font-size="10.00" fill="#000000">/sps30_params.h</text>
</g>
<!-- Node1 -->
<g id="node2" class="node">
<title>Node1</title>
<polygon fill="none" stroke="#bfbfbf" points="140.1936,-224.5 140.1936,-243.5 189.1936,-243.5 189.1936,-224.5 140.1936,-224.5"/>
<text text-anchor="middle" x="164.6936" y="-231.5" font-family="Helvetica,sans-Serif" font-size="10.00" fill="#000000">board.h</text>
</g>
<!-- Node0&#45;&gt;Node1 -->
<g id="edge1" class="edge">
<title>Node0&#45;&gt;Node1</title>
<path fill="none" stroke="#191970" d="M204.5924,-280.2977C197.0822,-271.5831 187.6236,-260.6075 179.8009,-251.5302"/>
<polygon fill="#191970" stroke="#191970" points="182.3591,-249.1372 173.1795,-243.8469 177.0564,-253.707 182.3591,-249.1372"/>
</g>
<!-- Node2 -->
<g id="node3" class="node">
<title>Node2</title>
<g id="a_node3"><a xlink:href="sps30_8h.html" target="_top" xlink:title="Driver for the Sensirion SPS30 Particulate Matter Sensor. ">
<polygon fill="none" stroke="#000000" points="157.1936,-168.5 157.1936,-187.5 208.1936,-187.5 208.1936,-168.5 157.1936,-168.5"/>
<text text-anchor="middle" x="182.6936" y="-175.5" font-family="Helvetica,sans-Serif" font-size="10.00" fill="#000000">sps30.h</text>
</a>
</g>
</g>
<!-- Node0&#45;&gt;Node2 -->
<g id="edge2" class="edge">
<title>Node0&#45;&gt;Node2</title>
<path fill="none" stroke="#191970" d="M213.6647,-280.3813C209.7512,-265.8725 203.5575,-243.3686 197.6936,-224 195.0534,-215.2795 191.9577,-205.6907 189.2664,-197.5349"/>
<polygon fill="#191970" stroke="#191970" points="192.5153,-196.2133 186.0337,-187.8323 185.8742,-198.426 192.5153,-196.2133"/>
</g>
<!-- Node12 -->
<g id="node13" class="node">
<title>Node12</title>
<g id="a_node13"><a xlink:href="saul__reg_8h.html" target="_top" xlink:title="SAUL registry interface definition. ">
<polygon fill="none" stroke="#000000" points="314.6936,-224.5 314.6936,-243.5 376.6936,-243.5 376.6936,-224.5 314.6936,-224.5"/>
<text text-anchor="middle" x="345.6936" y="-231.5" font-family="Helvetica,sans-Serif" font-size="10.00" fill="#000000">saul_reg.h</text>
</a>
</g>
</g>
<!-- Node0&#45;&gt;Node12 -->
<g id="edge16" class="edge">
<title>Node0&#45;&gt;Node12</title>
<path fill="none" stroke="#191970" d="M249.0059,-280.4554C269.7073,-270.509 296.6459,-257.5659 316.8288,-247.8686"/>
<polygon fill="#191970" stroke="#191970" points="318.3603,-251.0159 325.8581,-243.5303 315.3287,-244.7064 318.3603,-251.0159"/>
</g>
<!-- Node3 -->
<g id="node4" class="node">
<title>Node3</title>
<polygon fill="none" stroke="#bfbfbf" points="114.6936,-112.5 114.6936,-131.5 170.6936,-131.5 170.6936,-112.5 114.6936,-112.5"/>
<text text-anchor="middle" x="142.6936" y="-119.5" font-family="Helvetica,sans-Serif" font-size="10.00" fill="#000000">stdbool.h</text>
</g>
<!-- Node2&#45;&gt;Node3 -->
<g id="edge3" class="edge">
<title>Node2&#45;&gt;Node3</title>
<path fill="none" stroke="#191970" d="M175.7261,-168.2455C170.1624,-160.4564 162.2155,-149.3308 155.5107,-139.9439"/>
<polygon fill="#191970" stroke="#191970" points="158.2417,-137.7457 149.5812,-131.6427 152.5455,-141.8144 158.2417,-137.7457"/>
</g>
<!-- Node4 -->
<g id="node5" class="node">
<title>Node4</title>
<g id="a_node5"><a xlink:href="gpio_8h.html" target="_top" xlink:title="Low&#45;level GPIO peripheral driver interface definitions. ">
<polygon fill="none" stroke="#000000" points="19.6936,-112.5 19.6936,-131.5 91.6936,-131.5 91.6936,-112.5 19.6936,-112.5"/>
<text text-anchor="middle" x="55.6936" y="-119.5" font-family="Helvetica,sans-Serif" font-size="10.00" fill="#000000">periph/gpio.h</text>
</a>
</g>
</g>
<!-- Node2&#45;&gt;Node4 -->
<g id="edge4" class="edge">
<title>Node2&#45;&gt;Node4</title>
<path fill="none" stroke="#191970" d="M160.8615,-168.3733C140.3833,-159.3435 109.5537,-145.7494 86.5616,-135.6111"/>
<polygon fill="#191970" stroke="#191970" points="87.8029,-132.3333 77.2408,-131.5011 84.9786,-138.7383 87.8029,-132.3333"/>
</g>
<!-- Node8 -->
<g id="node9" class="node">
<title>Node8</title>
<g id="a_node9"><a xlink:href="i2c_8h.html" target="_top" xlink:title="Low&#45;level I2C peripheral driver interface definition. ">
<polygon fill="none" stroke="#000000" points="189.1936,-112.5 189.1936,-131.5 256.1936,-131.5 256.1936,-112.5 189.1936,-112.5"/>
<text text-anchor="middle" x="222.6936" y="-119.5" font-family="Helvetica,sans-Serif" font-size="10.00" fill="#000000">periph/i2c.h</text>
</a>
</g>
</g>
<!-- Node2&#45;&gt;Node8 -->
<g id="edge8" class="edge">
<title>Node2&#45;&gt;Node8</title>
<path fill="none" stroke="#191970" d="M189.661,-168.2455C195.2247,-160.4564 203.1716,-149.3308 209.8765,-139.9439"/>
<polygon fill="#191970" stroke="#191970" points="212.8416,-141.8144 215.8059,-131.6427 207.1454,-137.7457 212.8416,-141.8144"/>
</g>
<!-- Node5 -->
<g id="node6" class="node">
<title>Node5</title>
<polygon fill="none" stroke="#bfbfbf" points="103.6936,-56.5 103.6936,-75.5 151.6936,-75.5 151.6936,-56.5 103.6936,-56.5"/>
<text text-anchor="middle" x="127.6936" y="-63.5" font-family="Helvetica,sans-Serif" font-size="10.00" fill="#000000">limits.h</text>
</g>
<!-- Node4&#45;&gt;Node5 -->
<g id="edge5" class="edge">
<title>Node4&#45;&gt;Node5</title>
<path fill="none" stroke="#191970" d="M68.235,-112.2455C78.9723,-103.8943 94.6409,-91.7076 107.1982,-81.9408"/>
<polygon fill="#191970" stroke="#191970" points="109.5511,-84.5449 115.2958,-75.6427 105.2535,-79.0194 109.5511,-84.5449"/>
</g>
<!-- Node6 -->
<g id="node7" class="node">
<title>Node6</title>
<polygon fill="none" stroke="#bfbfbf" points="13.6936,-56.5 13.6936,-75.5 85.6936,-75.5 85.6936,-56.5 13.6936,-56.5"/>
<text text-anchor="middle" x="49.6936" y="-63.5" font-family="Helvetica,sans-Serif" font-size="10.00" fill="#000000">periph_cpu.h</text>
</g>
<!-- Node4&#45;&gt;Node6 -->
<g id="edge6" class="edge">
<title>Node4&#45;&gt;Node6</title>
<path fill="none" stroke="#191970" d="M54.6484,-112.2455C53.8655,-104.9382 52.768,-94.6944 51.8048,-85.7046"/>
<polygon fill="#191970" stroke="#191970" points="55.2722,-85.2129 50.7267,-75.6427 48.312,-85.9587 55.2722,-85.2129"/>
</g>
<!-- Node7 -->
<g id="node8" class="node">
<title>Node7</title>
<polygon fill="none" stroke="#bfbfbf" points="184.1936,-.5 184.1936,-19.5 259.1936,-19.5 259.1936,-.5 184.1936,-.5"/>
<text text-anchor="middle" x="221.6936" y="-7.5" font-family="Helvetica,sans-Serif" font-size="10.00" fill="#000000">periph_conf.h</text>
</g>
<!-- Node4&#45;&gt;Node7 -->
<g id="edge7" class="edge">
<title>Node4&#45;&gt;Node7</title>
<path fill="none" stroke="#191970" d="M39.1645,-112.4937C18.7714,-99.5715 -11.3507,-75.8019 4.6936,-56 25.5198,-30.2962 116.1294,-18.3746 173.4762,-13.3132"/>
<polygon fill="#191970" stroke="#191970" points="174.1017,-16.773 183.7727,-12.4462 173.5143,-9.7977 174.1017,-16.773"/>
</g>
<!-- Node8&#45;&gt;Node5 -->
<g id="edge11" class="edge">
<title>Node8&#45;&gt;Node5</title>
<path fill="none" stroke="#191970" d="M206.1458,-112.2455C191.4337,-103.5731 169.7048,-90.7645 152.8431,-80.825"/>
<polygon fill="#191970" stroke="#191970" points="154.4437,-77.7057 144.0517,-75.6427 150.889,-83.736 154.4437,-77.7057"/>
</g>
<!-- Node8&#45;&gt;Node6 -->
<g id="edge13" class="edge">
<title>Node8&#45;&gt;Node6</title>
<path fill="none" stroke="#191970" d="M192.9538,-112.3733C164.1865,-103.0613 120.4236,-88.8953 88.838,-78.671"/>
<polygon fill="#191970" stroke="#191970" points="89.6371,-75.251 79.0452,-75.5011 87.4813,-81.9107 89.6371,-75.251"/>
</g>
<!-- Node8&#45;&gt;Node7 -->
<g id="edge12" class="edge">
<title>Node8&#45;&gt;Node7</title>
<path fill="none" stroke="#191970" d="M242.817,-112.4288C264.4793,-100.6835 294.3667,-79.4229 282.6936,-56 276.0932,-42.756 263.6609,-32.3192 251.7331,-24.7581"/>
<polygon fill="#191970" stroke="#191970" points="253.2134,-21.5691 242.8151,-19.5378 249.6771,-27.6102 253.2134,-21.5691"/>
</g>
<!-- Node9 -->
<g id="node10" class="node">
<title>Node9</title>
<polygon fill="none" stroke="#bfbfbf" points="368.1936,-56.5 368.1936,-75.5 417.1936,-75.5 417.1936,-56.5 368.1936,-56.5"/>
<text text-anchor="middle" x="392.6936" y="-63.5" font-family="Helvetica,sans-Serif" font-size="10.00" fill="#000000">stdint.h</text>
</g>
<!-- Node8&#45;&gt;Node9 -->
<g id="edge9" class="edge">
<title>Node8&#45;&gt;Node9</title>
<path fill="none" stroke="#191970" d="M251.9176,-112.3733C281.471,-102.638 327.13,-87.5974 358.3837,-77.3021"/>
<polygon fill="#191970" stroke="#191970" points="359.5833,-80.592 367.9862,-74.1389 357.3931,-73.9434 359.5833,-80.592"/>
</g>
<!-- Node10 -->
<g id="node11" class="node">
<title>Node10</title>
<polygon fill="none" stroke="#bfbfbf" points="419.6936,-.5 419.6936,-19.5 471.6936,-19.5 471.6936,-.5 419.6936,-.5"/>
<text text-anchor="middle" x="445.6936" y="-7.5" font-family="Helvetica,sans-Serif" font-size="10.00" fill="#000000">stddef.h</text>
</g>
<!-- Node8&#45;&gt;Node10 -->
<g id="edge10" class="edge">
<title>Node8&#45;&gt;Node10</title>
<path fill="none" stroke="#191970" d="M241.7064,-112.4509C281.0396,-92.6961 371.5131,-47.2565 417.602,-24.1088"/>
<polygon fill="#191970" stroke="#191970" points="419.3635,-27.1408 426.7288,-19.5249 416.2217,-20.8854 419.3635,-27.1408"/>
</g>
<!-- Node11 -->
<g id="node12" class="node">
<title>Node11</title>
<g id="a_node12"><a xlink:href="dev__enums_8h.html" target="_top" xlink:title="Device enumerations for backward compatibility with existing peripheral driver implementations. ">
<polygon fill="none" stroke="#000000" points="169.6936,-56.5 169.6936,-75.5 273.6936,-75.5 273.6936,-56.5 169.6936,-56.5"/>
<text text-anchor="middle" x="221.6936" y="-63.5" font-family="Helvetica,sans-Serif" font-size="10.00" fill="#000000">periph/dev_enums.h</text>
</a>
</g>
</g>
<!-- Node8&#45;&gt;Node11 -->
<g id="edge14" class="edge">
<title>Node8&#45;&gt;Node11</title>
<path fill="none" stroke="#191970" d="M222.5194,-112.2455C222.3889,-104.9382 222.206,-94.6944 222.0454,-85.7046"/>
<polygon fill="#191970" stroke="#191970" points="225.5438,-85.5786 221.8658,-75.6427 218.545,-85.7036 225.5438,-85.5786"/>
</g>
<!-- Node11&#45;&gt;Node7 -->
<g id="edge15" class="edge">
<title>Node11&#45;&gt;Node7</title>
<path fill="none" stroke="#191970" d="M221.6936,-56.2455C221.6936,-48.9382 221.6936,-38.6944 221.6936,-29.7046"/>
<polygon fill="#191970" stroke="#191970" points="225.1937,-29.6426 221.6936,-19.6427 218.1937,-29.6427 225.1937,-29.6426"/>
</g>
<!-- Node12&#45;&gt;Node9 -->
<g id="edge17" class="edge">
<title>Node12&#45;&gt;Node9</title>
<path fill="none" stroke="#191970" d="M347.2802,-224.3437C350.8415,-203.4985 360.2263,-152.866 373.6936,-112 376.66,-102.9986 380.5724,-93.266 384.0757,-85.0812"/>
<polygon fill="#191970" stroke="#191970" points="387.3735,-86.2764 388.1923,-75.7132 380.9649,-83.4602 387.3735,-86.2764"/>
</g>
<!-- Node13 -->
<g id="node14" class="node">
<title>Node13</title>
<g id="a_node14"><a xlink:href="saul_8h.html" target="_top" xlink:title="Definition of the generic [S]ensor [A]ctuator [U]ber [L]ayer. ">
<polygon fill="none" stroke="#000000" points="369.1936,-168.5 369.1936,-187.5 412.1936,-187.5 412.1936,-168.5 369.1936,-168.5"/>
<text text-anchor="middle" x="390.6936" y="-175.5" font-family="Helvetica,sans-Serif" font-size="10.00" fill="#000000">saul.h</text>
</a>
</g>
</g>
<!-- Node12&#45;&gt;Node13 -->
<g id="edge18" class="edge">
<title>Node12&#45;&gt;Node13</title>
<path fill="none" stroke="#191970" d="M353.532,-224.2455C359.8556,-216.3761 368.916,-205.101 376.5072,-195.6542"/>
<polygon fill="#191970" stroke="#191970" points="379.4093,-197.6302 382.945,-187.6427 373.9528,-193.2454 379.4093,-197.6302"/>
</g>
<!-- Node15 -->
<g id="node16" class="node">
<title>Node15</title>
<g id="a_node16"><a xlink:href="phydat_8h.html" target="_top" xlink:title="Generic data container for physical data interface. ">
<polygon fill="none" stroke="#000000" points="452.6936,-112.5 452.6936,-131.5 506.6936,-131.5 506.6936,-112.5 452.6936,-112.5"/>
<text text-anchor="middle" x="479.6936" y="-119.5" font-family="Helvetica,sans-Serif" font-size="10.00" fill="#000000">phydat.h</text>
</a>
</g>
</g>
<!-- Node12&#45;&gt;Node15 -->
<g id="edge26" class="edge">
<title>Node12&#45;&gt;Node15</title>
<path fill="none" stroke="#191970" d="M365.1914,-224.3411C381.2186,-215.9151 404.0736,-202.7525 421.6936,-188 438.934,-173.5652 455.5502,-153.8712 466.5449,-139.7605"/>
<polygon fill="#191970" stroke="#191970" points="469.3398,-141.8674 472.6196,-131.793 463.7731,-137.6233 469.3398,-141.8674"/>
</g>
<!-- Node13&#45;&gt;Node9 -->
<g id="edge19" class="edge">
<title>Node13&#45;&gt;Node9</title>
<path fill="none" stroke="#191970" d="M386.5649,-168.2004C381.656,-155.3469 374.5041,-132.0687 377.6936,-112 379.1236,-103.0016 382.0348,-93.3703 384.9151,-85.2579"/>
<polygon fill="#191970" stroke="#191970" points="388.2855,-86.2407 388.5568,-75.6493 381.7399,-83.7599 388.2855,-86.2407"/>
</g>
<!-- Node14 -->
<g id="node15" class="node">
<title>Node14</title>
<g id="a_node15"><a xlink:href="errno_8h.html" target="_top" xlink:title="errno.h">
<polygon fill="none" stroke="#000000" points="387.1936,-112.5 387.1936,-131.5 434.1936,-131.5 434.1936,-112.5 387.1936,-112.5"/>
<text text-anchor="middle" x="410.6936" y="-119.5" font-family="Helvetica,sans-Serif" font-size="10.00" fill="#000000">errno.h</text>
</a>
</g>
</g>
<!-- Node13&#45;&gt;Node14 -->
<g id="edge20" class="edge">
<title>Node13&#45;&gt;Node14</title>
<path fill="none" stroke="#191970" d="M394.1773,-168.2455C396.8444,-160.7776 400.6069,-150.2427 403.8672,-141.1137"/>
<polygon fill="#191970" stroke="#191970" points="407.1824,-142.2373 407.2498,-131.6427 400.5902,-139.8829 407.1824,-142.2373"/>
</g>
<!-- Node13&#45;&gt;Node15 -->
<g id="edge21" class="edge">
<title>Node13&#45;&gt;Node15</title>
<path fill="none" stroke="#191970" d="M406.1962,-168.2455C419.8515,-159.6534 439.9593,-147.0014 455.6925,-137.1018"/>
<polygon fill="#191970" stroke="#191970" points="457.7687,-139.9307 464.3686,-131.6427 454.0407,-134.006 457.7687,-139.9307"/>
</g>
<!-- Node15&#45;&gt;Node9 -->
<g id="edge23" class="edge">
<title>Node15&#45;&gt;Node9</title>
<path fill="none" stroke="#191970" d="M464.5393,-112.2455C451.1908,-103.6534 431.535,-91.0014 416.1553,-81.1018"/>
<polygon fill="#191970" stroke="#191970" points="417.9772,-78.1121 407.6742,-75.6427 414.1884,-83.9982 417.9772,-78.1121"/>
</g>
<!-- Node15&#45;&gt;Node10 -->
<g id="edge22" class="edge">
<title>Node15&#45;&gt;Node10</title>
<path fill="none" stroke="#191970" d="M476.3751,-112.1611C473.2671,-102.8685 468.538,-88.5274 464.6936,-76 459.9383,-60.5045 454.8758,-42.8555 451.1732,-29.7094"/>
<polygon fill="#191970" stroke="#191970" points="454.4855,-28.5581 448.4194,-19.8718 447.7447,-30.4451 454.4855,-28.5581"/>
</g>
<!-- Node16 -->
<g id="node17" class="node">
<title>Node16</title>
<g id="a_node17"><a xlink:href="kernel__defines_8h.html" target="_top" xlink:title="Common macros and compiler attributes/pragmas configuration. ">
<polygon fill="none" stroke="#000000" points="473.6936,-56.5 473.6936,-75.5 561.6936,-75.5 561.6936,-56.5 473.6936,-56.5"/>
<text text-anchor="middle" x="517.6936" y="-63.5" font-family="Helvetica,sans-Serif" font-size="10.00" fill="#000000">kernel_defines.h</text>
</a>
</g>
</g>
<!-- Node15&#45;&gt;Node16 -->
<g id="edge24" class="edge">
<title>Node15&#45;&gt;Node16</title>
<path fill="none" stroke="#191970" d="M486.3127,-112.2455C491.5981,-104.4564 499.1477,-93.3308 505.5173,-83.9439"/>
<polygon fill="#191970" stroke="#191970" points="508.4314,-85.8827 511.1503,-75.6427 502.6391,-81.9522 508.4314,-85.8827"/>
</g>
<!-- Node16&#45;&gt;Node10 -->
<g id="edge25" class="edge">
<title>Node16&#45;&gt;Node10</title>
<path fill="none" stroke="#191970" d="M505.1521,-56.2455C494.4148,-47.8943 478.7462,-35.7076 466.1889,-25.9408"/>
<polygon fill="#191970" stroke="#191970" points="468.1336,-23.0194 458.0913,-19.6427 463.836,-28.5449 468.1336,-23.0194"/>
</g>
</g>
</svg>
