<?xml version="1.0" encoding="UTF-8" standalone="no"?>
<!DOCTYPE svg PUBLIC "-//W3C//DTD SVG 1.1//EN"
 "http://www.w3.org/Graphics/SVG/1.1/DTD/svg11.dtd">
<!-- Generated by graphviz version 2.40.1 (20161225.0304)
 -->
<!-- Title: drivers/include/srf04.h Pages: 1 -->
<svg width="1007pt" height="420pt"
 viewBox="0.00 0.00 1007.00 420.00" xmlns="http://www.w3.org/2000/svg" xmlns:xlink="http://www.w3.org/1999/xlink">
<g id="graph0" class="graph" transform="scale(1 1) rotate(0) translate(4 416)">
<title>drivers/include/srf04.h</title>
<!-- Node0 -->
<g id="node1" class="node">
<title>Node0</title>
<polygon fill="#bfbfbf" stroke="#000000" points="630.5038,-392.5 630.5038,-411.5 743.5038,-411.5 743.5038,-392.5 630.5038,-392.5"/>
<text text-anchor="middle" x="687.0038" y="-399.5" font-family="Helvetica,sans-Serif" font-size="10.00" fill="#000000">drivers/include/srf04.h</text>
</g>
<!-- Node1 -->
<g id="node2" class="node">
<title>Node1</title>
<polygon fill="none" stroke="#bfbfbf" points="223.5038,-168.5 223.5038,-187.5 272.5038,-187.5 272.5038,-168.5 223.5038,-168.5"/>
<text text-anchor="middle" x="248.0038" y="-175.5" font-family="Helvetica,sans-Serif" font-size="10.00" fill="#000000">stdint.h</text>
</g>
<!-- Node0&#45;&gt;Node1 -->
<g id="edge1" class="edge">
<title>Node0&#45;&gt;Node1</title>
<path fill="none" stroke="#191970" d="M630.4167,-398.7926C480.9224,-388.8616 83.0663,-352.4594 27.0038,-244 -24.0329,-145.2635 -20.7276,-242.2245 213.3291,-187.9405"/>
<polygon fill="#191970" stroke="#191970" points="214.2763,-191.3129 223.1957,-185.595 212.6573,-184.5027 214.2763,-191.3129"/>
</g>
<!-- Node2 -->
<g id="node3" class="node">
<title>Node2</title>
<g id="a_node3"><a xlink:href="stdio_8h.html" target="_top" xlink:title="stdio.h wrapper for MSP430 ">
<polygon fill="none" stroke="#000000" points="953.0038,-336.5 953.0038,-355.5 999.0038,-355.5 999.0038,-336.5 953.0038,-336.5"/>
<text text-anchor="middle" x="976.0038" y="-343.5" font-family="Helvetica,sans-Serif" font-size="10.00" fill="#000000">stdio.h</text>
</a>
</g>
</g>
<!-- Node0&#45;&gt;Node2 -->
<g id="edge2" class="edge">
<title>Node0&#45;&gt;Node2</title>
<path fill="none" stroke="#191970" d="M743.5753,-393.0604C794.8286,-384.6327 872.3086,-371.0725 939.0038,-356 940.2816,-355.7112 941.5817,-355.4077 942.8931,-355.0935"/>
<polygon fill="#191970" stroke="#191970" points="944.1494,-358.386 952.9853,-352.5398 942.4323,-351.5998 944.1494,-358.386"/>
</g>
<!-- Node3 -->
<g id="node4" class="node">
<title>Node3</title>
<g id="a_node4"><a xlink:href="gpio_8h.html" target="_top" xlink:title="Low&#45;level GPIO peripheral driver interface definitions. ">
<polygon fill="none" stroke="#000000" points="660.0038,-224.5 660.0038,-243.5 732.0038,-243.5 732.0038,-224.5 660.0038,-224.5"/>
<text text-anchor="middle" x="696.0038" y="-231.5" font-family="Helvetica,sans-Serif" font-size="10.00" fill="#000000">periph/gpio.h</text>
</a>
</g>
</g>
<!-- Node0&#45;&gt;Node3 -->
<g id="edge3" class="edge">
<title>Node0&#45;&gt;Node3</title>
<path fill="none" stroke="#191970" d="M694.4214,-392.2731C707.1542,-374.894 732.6973,-336.8678 742.0038,-300 744.1794,-291.3815 745.4055,-288.2123 742.0038,-280 737.1726,-268.3363 727.7901,-258.0881 718.752,-250.243"/>
<polygon fill="#191970" stroke="#191970" points="720.6708,-247.2942 710.6891,-243.7423 716.2772,-252.7436 720.6708,-247.2942"/>
</g>
<!-- Node7 -->
<g id="node8" class="node">
<title>Node7</title>
<g id="a_node8"><a xlink:href="xtimer_8h.html" target="_top" xlink:title="xtimer interface definitions ">
<polygon fill="none" stroke="#000000" points="440.0038,-336.5 440.0038,-355.5 492.0038,-355.5 492.0038,-336.5 440.0038,-336.5"/>
<text text-anchor="middle" x="466.0038" y="-343.5" font-family="Helvetica,sans-Serif" font-size="10.00" fill="#000000">xtimer.h</text>
</a>
</g>
</g>
<!-- Node0&#45;&gt;Node7 -->
<g id="edge7" class="edge">
<title>Node0&#45;&gt;Node7</title>
<path fill="none" stroke="#191970" d="M649.2637,-392.4369C608.0086,-381.9831 542.3956,-365.3572 501.8888,-355.093"/>
<polygon fill="#191970" stroke="#191970" points="502.7148,-351.6918 492.1615,-352.6282 500.9954,-358.4773 502.7148,-351.6918"/>
</g>
<!-- Node4 -->
<g id="node5" class="node">
<title>Node4</title>
<polygon fill="none" stroke="#bfbfbf" points="560.0038,-168.5 560.0038,-187.5 608.0038,-187.5 608.0038,-168.5 560.0038,-168.5"/>
<text text-anchor="middle" x="584.0038" y="-175.5" font-family="Helvetica,sans-Serif" font-size="10.00" fill="#000000">limits.h</text>
</g>
<!-- Node3&#45;&gt;Node4 -->
<g id="edge4" class="edge">
<title>Node3&#45;&gt;Node4</title>
<path fill="none" stroke="#191970" d="M676.7503,-224.3733C658.9327,-215.4644 632.2292,-202.1127 612.0444,-192.0203"/>
<polygon fill="#191970" stroke="#191970" points="613.5156,-188.8428 603.0061,-187.5011 610.3851,-195.1038 613.5156,-188.8428"/>
</g>
<!-- Node5 -->
<g id="node6" class="node">
<title>Node5</title>
<polygon fill="none" stroke="#bfbfbf" points="626.0038,-168.5 626.0038,-187.5 698.0038,-187.5 698.0038,-168.5 626.0038,-168.5"/>
<text text-anchor="middle" x="662.0038" y="-175.5" font-family="Helvetica,sans-Serif" font-size="10.00" fill="#000000">periph_cpu.h</text>
</g>
<!-- Node3&#45;&gt;Node5 -->
<g id="edge5" class="edge">
<title>Node3&#45;&gt;Node5</title>
<path fill="none" stroke="#191970" d="M690.0815,-224.2455C685.4011,-216.5367 678.7366,-205.5598 673.075,-196.2348"/>
<polygon fill="#191970" stroke="#191970" points="676.0399,-194.3741 667.8583,-187.6427 670.0564,-198.007 676.0399,-194.3741"/>
</g>
<!-- Node6 -->
<g id="node7" class="node">
<title>Node6</title>
<polygon fill="none" stroke="#bfbfbf" points="688.5038,-112.5 688.5038,-131.5 763.5038,-131.5 763.5038,-112.5 688.5038,-112.5"/>
<text text-anchor="middle" x="726.0038" y="-119.5" font-family="Helvetica,sans-Serif" font-size="10.00" fill="#000000">periph_conf.h</text>
</g>
<!-- Node3&#45;&gt;Node6 -->
<g id="edge6" class="edge">
<title>Node3&#45;&gt;Node6</title>
<path fill="none" stroke="#191970" d="M698.5616,-224.4509C703.4767,-206.1013 714.3277,-165.5908 720.8156,-141.3693"/>
<polygon fill="#191970" stroke="#191970" points="724.2459,-142.09 723.4525,-131.5249 717.4843,-140.2788 724.2459,-142.09"/>
</g>
<!-- Node7&#45;&gt;Node1 -->
<g id="edge9" class="edge">
<title>Node7&#45;&gt;Node1</title>
<path fill="none" stroke="#191970" d="M444.8066,-336.4428C427.7015,-328.1683 403.5226,-315.163 385.0038,-300 350.3898,-271.6583 352.7756,-253.3403 319.0038,-224 305.2701,-212.0684 288.2044,-200.9138 274.2464,-192.5777"/>
<polygon fill="#191970" stroke="#191970" points="275.9902,-189.543 265.589,-187.5268 272.4627,-195.5892 275.9902,-189.543"/>
</g>
<!-- Node7&#45;&gt;Node6 -->
<g id="edge29" class="edge">
<title>Node7&#45;&gt;Node6</title>
<path fill="none" stroke="#191970" d="M492.0907,-343.9C556.5814,-338.4203 721.9081,-322.5342 772.0038,-300 841.8622,-268.5761 871.3512,-257.755 903.0038,-188 906.6769,-179.9055 908.4416,-175.0316 903.0038,-168 887.261,-147.6429 820.4834,-134.6222 773.6164,-127.8095"/>
<polygon fill="#191970" stroke="#191970" points="774.039,-124.3345 763.6494,-126.4096 773.0654,-131.2665 774.039,-124.3345"/>
</g>
<!-- Node8 -->
<g id="node9" class="node">
<title>Node8</title>
<polygon fill="none" stroke="#bfbfbf" points="838.0038,-168.5 838.0038,-187.5 894.0038,-187.5 894.0038,-168.5 838.0038,-168.5"/>
<text text-anchor="middle" x="866.0038" y="-175.5" font-family="Helvetica,sans-Serif" font-size="10.00" fill="#000000">stdbool.h</text>
</g>
<!-- Node7&#45;&gt;Node8 -->
<g id="edge8" class="edge">
<title>Node7&#45;&gt;Node8</title>
<path fill="none" stroke="#191970" d="M492.1191,-343.3253C551.9533,-336.9292 697.2457,-319.7996 742.0038,-300 792.8718,-277.4976 834.7294,-224.2254 854.2119,-196.1057"/>
<polygon fill="#191970" stroke="#191970" points="857.2494,-197.8615 859.9419,-187.6145 851.447,-193.9459 857.2494,-197.8615"/>
</g>
<!-- Node9 -->
<g id="node10" class="node">
<title>Node9</title>
<g id="a_node10"><a xlink:href="timex_8h.html" target="_top" xlink:title="Utility library for comparing and computing timestamps. ">
<polygon fill="none" stroke="#000000" points="366.5038,-224.5 366.5038,-243.5 415.5038,-243.5 415.5038,-224.5 366.5038,-224.5"/>
<text text-anchor="middle" x="391.0038" y="-231.5" font-family="Helvetica,sans-Serif" font-size="10.00" fill="#000000">timex.h</text>
</a>
</g>
</g>
<!-- Node7&#45;&gt;Node9 -->
<g id="edge10" class="edge">
<title>Node7&#45;&gt;Node9</title>
<path fill="none" stroke="#191970" d="M440.1106,-336.3625C424.195,-328.9811 404.997,-317.1255 395.0038,-300 386.8778,-286.0744 386.4644,-267.5624 387.7466,-253.6885"/>
<polygon fill="#191970" stroke="#191970" points="391.2228,-254.0964 389.0235,-243.7324 384.2797,-253.2059 391.2228,-254.0964"/>
</g>
<!-- Node11 -->
<g id="node12" class="node">
<title>Node11</title>
<g id="a_node12"><a xlink:href="mutex_8h.html" target="_top" xlink:title="Mutex for thread synchronization. ">
<polygon fill="none" stroke="#000000" points="36.0038,-224.5 36.0038,-243.5 88.0038,-243.5 88.0038,-224.5 36.0038,-224.5"/>
<text text-anchor="middle" x="62.0038" y="-231.5" font-family="Helvetica,sans-Serif" font-size="10.00" fill="#000000">mutex.h</text>
</a>
</g>
</g>
<!-- Node7&#45;&gt;Node11 -->
<g id="edge13" class="edge">
<title>Node7&#45;&gt;Node11</title>
<path fill="none" stroke="#191970" d="M439.7915,-344.1497C372.3997,-339.0994 194.6389,-323.8422 141.0038,-300 115.4152,-288.6252 91.5553,-266.4497 76.894,-250.9561"/>
<polygon fill="#191970" stroke="#191970" points="79.4443,-248.5586 70.1051,-243.5556 74.286,-253.2907 79.4443,-248.5586"/>
</g>
<!-- Node14 -->
<g id="node15" class="node">
<title>Node14</title>
<g id="a_node15"><a xlink:href="kernel__types_8h.html" target="_top" xlink:title="Types used by the kernel. ">
<polygon fill="none" stroke="#000000" points="230.0038,-224.5 230.0038,-243.5 310.0038,-243.5 310.0038,-224.5 230.0038,-224.5"/>
<text text-anchor="middle" x="270.0038" y="-231.5" font-family="Helvetica,sans-Serif" font-size="10.00" fill="#000000">kernel_types.h</text>
</a>
</g>
</g>
<!-- Node7&#45;&gt;Node14 -->
<g id="edge17" class="edge">
<title>Node7&#45;&gt;Node14</title>
<path fill="none" stroke="#191970" d="M439.9463,-342.1339C409.875,-336.6902 359.9557,-324.5523 324.0038,-300 305.7509,-287.5347 290.4219,-267.1613 280.8143,-252.3433"/>
<polygon fill="#191970" stroke="#191970" points="283.6016,-250.1971 275.3538,-243.5469 277.6543,-253.889 283.6016,-250.1971"/>
</g>
<!-- Node16 -->
<g id="node17" class="node">
<title>Node16</title>
<g id="a_node17"><a xlink:href="rmutex_8h.html" target="_top" xlink:title="Recursive Mutex for thread synchronization. ">
<polygon fill="none" stroke="#000000" points="150.5038,-280.5 150.5038,-299.5 205.5038,-299.5 205.5038,-280.5 150.5038,-280.5"/>
<text text-anchor="middle" x="178.0038" y="-287.5" font-family="Helvetica,sans-Serif" font-size="10.00" fill="#000000">rmutex.h</text>
</a>
</g>
</g>
<!-- Node7&#45;&gt;Node16 -->
<g id="edge23" class="edge">
<title>Node7&#45;&gt;Node16</title>
<path fill="none" stroke="#191970" d="M439.9378,-340.9316C388.8647,-331.0007 275.4355,-308.9451 216.002,-297.3885"/>
<polygon fill="#191970" stroke="#191970" points="216.39,-293.8985 205.9058,-295.4254 215.0539,-300.7698 216.39,-293.8985"/>
</g>
<!-- Node18 -->
<g id="node19" class="node">
<title>Node18</title>
<polygon fill="none" stroke="#bfbfbf" points="684.5038,-280.5 684.5038,-299.5 733.5038,-299.5 733.5038,-280.5 684.5038,-280.5"/>
<text text-anchor="middle" x="709.0038" y="-287.5" font-family="Helvetica,sans-Serif" font-size="10.00" fill="#000000">board.h</text>
</g>
<!-- Node7&#45;&gt;Node18 -->
<g id="edge28" class="edge">
<title>Node7&#45;&gt;Node18</title>
<path fill="none" stroke="#191970" d="M492.208,-340.8413C530.1487,-333.2411 602.7805,-318.2023 674.1222,-300.0935"/>
<polygon fill="#191970" stroke="#191970" points="675.3576,-303.3901 684.1765,-297.5183 673.6208,-296.609 675.3576,-303.3901"/>
</g>
<!-- Node19 -->
<g id="node20" class="node">
<title>Node19</title>
<g id="a_node20"><a xlink:href="tick__conversion_8h.html" target="_top" xlink:title="xtimer tick &lt;&#45;&gt; seconds conversions for different values of XTIMER_HZ ">
<polygon fill="none" stroke="#000000" points="404.5038,-280.5 404.5038,-299.5 527.5038,-299.5 527.5038,-280.5 404.5038,-280.5"/>
<text text-anchor="middle" x="466.0038" y="-287.5" font-family="Helvetica,sans-Serif" font-size="10.00" fill="#000000">xtimer/tick_conversion.h</text>
</a>
</g>
</g>
<!-- Node7&#45;&gt;Node19 -->
<g id="edge30" class="edge">
<title>Node7&#45;&gt;Node19</title>
<path fill="none" stroke="#191970" d="M466.0038,-336.2455C466.0038,-328.9382 466.0038,-318.6944 466.0038,-309.7046"/>
<polygon fill="#191970" stroke="#191970" points="469.5039,-309.6426 466.0038,-299.6427 462.5039,-309.6427 469.5039,-309.6426"/>
</g>
<!-- Node24 -->
<g id="node25" class="node">
<title>Node24</title>
<g id="a_node25"><a xlink:href="implementation_8h.html" target="_top" xlink:title="xtimer implementation ">
<polygon fill="none" stroke="#000000" points="545.5038,-280.5 545.5038,-299.5 666.5038,-299.5 666.5038,-280.5 545.5038,-280.5"/>
<text text-anchor="middle" x="606.0038" y="-287.5" font-family="Helvetica,sans-Serif" font-size="10.00" fill="#000000">xtimer/implementation.h</text>
</a>
</g>
</g>
<!-- Node7&#45;&gt;Node24 -->
<g id="edge37" class="edge">
<title>Node7&#45;&gt;Node24</title>
<path fill="none" stroke="#191970" d="M490.0707,-336.3733C512.8467,-327.2629 547.2382,-313.5062 572.6529,-303.3404"/>
<polygon fill="#191970" stroke="#191970" points="574.2661,-306.4648 582.251,-299.5011 571.6664,-299.9654 574.2661,-306.4648"/>
</g>
<!-- Node9&#45;&gt;Node1 -->
<g id="edge11" class="edge">
<title>Node9&#45;&gt;Node1</title>
<path fill="none" stroke="#191970" d="M366.4213,-224.3733C343.0543,-215.2226 307.7176,-201.3844 281.7254,-191.2057"/>
<polygon fill="#191970" stroke="#191970" points="282.8534,-187.8886 272.2656,-187.5011 280.3008,-194.4066 282.8534,-187.8886"/>
</g>
<!-- Node10 -->
<g id="node11" class="node">
<title>Node10</title>
<g id="a_node11"><a xlink:href="inttypes_8h.html" target="_top" xlink:title="Adds include for missing inttype definitions. ">
<polygon fill="none" stroke="#000000" points="290.5038,-168.5 290.5038,-187.5 349.5038,-187.5 349.5038,-168.5 290.5038,-168.5"/>
<text text-anchor="middle" x="320.0038" y="-175.5" font-family="Helvetica,sans-Serif" font-size="10.00" fill="#000000">inttypes.h</text>
</a>
</g>
</g>
<!-- Node9&#45;&gt;Node10 -->
<g id="edge12" class="edge">
<title>Node9&#45;&gt;Node10</title>
<path fill="none" stroke="#191970" d="M378.6366,-224.2455C368.0484,-215.8943 352.5974,-203.7076 340.2145,-193.9408"/>
<polygon fill="#191970" stroke="#191970" points="342.2486,-191.0875 332.2294,-187.6427 337.9135,-196.5837 342.2486,-191.0875"/>
</g>
<!-- Node11&#45;&gt;Node1 -->
<g id="edge15" class="edge">
<title>Node11&#45;&gt;Node1</title>
<path fill="none" stroke="#191970" d="M88.2586,-226.0953C121.119,-216.2019 177.4768,-199.2339 213.7142,-188.3238"/>
<polygon fill="#191970" stroke="#191970" points="214.7989,-191.6525 223.3652,-185.4181 212.7808,-184.9497 214.7989,-191.6525"/>
</g>
<!-- Node12 -->
<g id="node13" class="node">
<title>Node12</title>
<polygon fill="none" stroke="#bfbfbf" points="83.0038,-.5 83.0038,-19.5 135.0038,-19.5 135.0038,-.5 83.0038,-.5"/>
<text text-anchor="middle" x="109.0038" y="-7.5" font-family="Helvetica,sans-Serif" font-size="10.00" fill="#000000">stddef.h</text>
</g>
<!-- Node11&#45;&gt;Node12 -->
<g id="edge14" class="edge">
<title>Node11&#45;&gt;Node12</title>
<path fill="none" stroke="#191970" d="M53.7949,-224.1677C46.9924,-215.3343 37.8408,-201.6831 34.0038,-188 31.6038,-179.4412 32.0502,-176.6715 34.0038,-168 46.1753,-113.9753 79.0711,-56.7339 96.9841,-28.2801"/>
<polygon fill="#191970" stroke="#191970" points="99.9826,-30.0879 102.433,-19.7803 94.0895,-26.3101 99.9826,-30.0879"/>
</g>
<!-- Node13 -->
<g id="node14" class="node">
<title>Node13</title>
<g id="a_node14"><a xlink:href="list_8h.html" target="_top" xlink:title="Intrusive linked list. ">
<polygon fill="none" stroke="#000000" points="43.0038,-168.5 43.0038,-187.5 81.0038,-187.5 81.0038,-168.5 43.0038,-168.5"/>
<text text-anchor="middle" x="62.0038" y="-175.5" font-family="Helvetica,sans-Serif" font-size="10.00" fill="#000000">list.h</text>
</a>
</g>
</g>
<!-- Node11&#45;&gt;Node13 -->
<g id="edge16" class="edge">
<title>Node11&#45;&gt;Node13</title>
<path fill="none" stroke="#191970" d="M62.0038,-224.2455C62.0038,-216.9382 62.0038,-206.6944 62.0038,-197.7046"/>
<polygon fill="#191970" stroke="#191970" points="65.5039,-197.6426 62.0038,-187.6427 58.5039,-197.6427 65.5039,-197.6426"/>
</g>
<!-- Node14&#45;&gt;Node1 -->
<g id="edge18" class="edge">
<title>Node14&#45;&gt;Node1</title>
<path fill="none" stroke="#191970" d="M266.1717,-224.2455C263.2379,-216.7776 259.0992,-206.2427 255.5128,-197.1137"/>
<polygon fill="#191970" stroke="#191970" points="258.7062,-195.6704 251.792,-187.6427 252.191,-198.23 258.7062,-195.6704"/>
</g>
<!-- Node14&#45;&gt;Node4 -->
<g id="edge20" class="edge">
<title>Node14&#45;&gt;Node4</title>
<path fill="none" stroke="#191970" d="M310.3488,-229.0986C363.2912,-222.2942 459.2093,-208.6872 550.0455,-187.9807"/>
<polygon fill="#191970" stroke="#191970" points="550.9985,-191.3527 559.9524,-185.6889 549.4208,-184.5328 550.9985,-191.3527"/>
</g>
<!-- Node14&#45;&gt;Node10 -->
<g id="edge19" class="edge">
<title>Node14&#45;&gt;Node10</title>
<path fill="none" stroke="#191970" d="M278.7132,-224.2455C285.8111,-216.2958 296.0123,-204.8706 304.4988,-195.3656"/>
<polygon fill="#191970" stroke="#191970" points="307.3449,-197.4331 311.3943,-187.6427 302.1233,-192.771 307.3449,-197.4331"/>
</g>
<!-- Node14&#45;&gt;Node12 -->
<g id="edge21" class="edge">
<title>Node14&#45;&gt;Node12</title>
<path fill="none" stroke="#191970" d="M233.6335,-224.4257C193.8744,-213.6198 134.8639,-196.4498 128.0038,-188 90.7085,-142.0618 98.3789,-65.9972 104.7596,-30.0278"/>
<polygon fill="#191970" stroke="#191970" points="108.266,-30.3298 106.7274,-19.8473 101.3932,-29.0013 108.266,-30.3298"/>
</g>
<!-- Node15 -->
<g id="node16" class="node">
<title>Node15</title>
<polygon fill="none" stroke="#bfbfbf" points="137.0038,-168.5 137.0038,-187.5 205.0038,-187.5 205.0038,-168.5 137.0038,-168.5"/>
<text text-anchor="middle" x="171.0038" y="-175.5" font-family="Helvetica,sans-Serif" font-size="10.00" fill="#000000">sys/types.h</text>
</g>
<!-- Node14&#45;&gt;Node15 -->
<g id="edge22" class="edge">
<title>Node14&#45;&gt;Node15</title>
<path fill="none" stroke="#191970" d="M252.7593,-224.2455C237.4277,-215.5731 214.7839,-202.7645 197.2123,-192.825"/>
<polygon fill="#191970" stroke="#191970" points="198.4779,-189.5198 188.0507,-187.6427 195.0315,-195.6126 198.4779,-189.5198"/>
</g>
<!-- Node16&#45;&gt;Node1 -->
<g id="edge24" class="edge">
<title>Node16&#45;&gt;Node1</title>
<path fill="none" stroke="#191970" d="M163.8019,-280.3232C146.6454,-267.4085 121.647,-243.8584 135.0038,-224 139.6973,-217.0219 182.0553,-200.9987 213.5404,-189.8383"/>
<polygon fill="#191970" stroke="#191970" points="215.0443,-193.0198 223.3192,-186.4033 212.7244,-186.4154 215.0443,-193.0198"/>
</g>
<!-- Node16&#45;&gt;Node11 -->
<g id="edge26" class="edge">
<title>Node16&#45;&gt;Node11</title>
<path fill="none" stroke="#191970" d="M158.0627,-280.3733C139.5252,-271.4241 111.701,-257.9917 90.7625,-247.8835"/>
<polygon fill="#191970" stroke="#191970" points="92.2119,-244.6967 81.6847,-243.5011 89.1686,-251.0006 92.2119,-244.6967"/>
</g>
<!-- Node16&#45;&gt;Node14 -->
<g id="edge27" class="edge">
<title>Node16&#45;&gt;Node14</title>
<path fill="none" stroke="#191970" d="M194.029,-280.2455C208.1446,-271.6534 228.9302,-259.0014 245.1937,-249.1018"/>
<polygon fill="#191970" stroke="#191970" points="247.4401,-251.8319 254.1623,-243.6427 243.8005,-245.8525 247.4401,-251.8319"/>
</g>
<!-- Node17 -->
<g id="node18" class="node">
<title>Node17</title>
<polygon fill="none" stroke="#bfbfbf" points="144.0038,-224.5 144.0038,-243.5 212.0038,-243.5 212.0038,-224.5 144.0038,-224.5"/>
<text text-anchor="middle" x="178.0038" y="-231.5" font-family="Helvetica,sans-Serif" font-size="10.00" fill="#000000">stdatomic.h</text>
</g>
<!-- Node16&#45;&gt;Node17 -->
<g id="edge25" class="edge">
<title>Node16&#45;&gt;Node17</title>
<path fill="none" stroke="#191970" d="M178.0038,-280.2455C178.0038,-272.9382 178.0038,-262.6944 178.0038,-253.7046"/>
<polygon fill="#191970" stroke="#191970" points="181.5039,-253.6426 178.0038,-243.6427 174.5039,-253.6427 181.5039,-253.6426"/>
</g>
<!-- Node20 -->
<g id="node21" class="node">
<title>Node20</title>
<g id="a_node21"><a xlink:href="div_8h.html" target="_top" xlink:title="div.h">
<polygon fill="none" stroke="#000000" points="434.0038,-224.5 434.0038,-243.5 472.0038,-243.5 472.0038,-224.5 434.0038,-224.5"/>
<text text-anchor="middle" x="453.0038" y="-231.5" font-family="Helvetica,sans-Serif" font-size="10.00" fill="#000000">div.h</text>
</a>
</g>
</g>
<!-- Node19&#45;&gt;Node20 -->
<g id="edge31" class="edge">
<title>Node19&#45;&gt;Node20</title>
<path fill="none" stroke="#191970" d="M463.7394,-280.2455C462.0244,-272.8579 459.6127,-262.4689 457.5094,-253.4087"/>
<polygon fill="#191970" stroke="#191970" points="460.913,-252.5922 455.2423,-243.6427 454.0943,-254.1751 460.913,-252.5922"/>
</g>
<!-- Node20&#45;&gt;Node1 -->
<g id="edge36" class="edge">
<title>Node20&#45;&gt;Node1</title>
<path fill="none" stroke="#191970" d="M433.7351,-227.0986C430.5012,-226.0144 427.1685,-224.9421 424.0038,-224 364.134,-206.177 345.8576,-205.5304 282.516,-188.325"/>
<polygon fill="#191970" stroke="#191970" points="283.4033,-184.9391 272.8332,-185.6623 281.5472,-191.6886 283.4033,-184.9391"/>
</g>
<!-- Node21 -->
<g id="node22" class="node">
<title>Node21</title>
<g id="a_node22"><a xlink:href="assert_8h.html" target="_top" xlink:title="POSIX.1&#45;2008 compliant version of the assert macro. ">
<polygon fill="none" stroke="#000000" points="368.0038,-168.5 368.0038,-187.5 420.0038,-187.5 420.0038,-168.5 368.0038,-168.5"/>
<text text-anchor="middle" x="394.0038" y="-175.5" font-family="Helvetica,sans-Serif" font-size="10.00" fill="#000000">assert.h</text>
</a>
</g>
</g>
<!-- Node20&#45;&gt;Node21 -->
<g id="edge32" class="edge">
<title>Node20&#45;&gt;Node21</title>
<path fill="none" stroke="#191970" d="M442.7268,-224.2455C434.182,-216.1352 421.826,-204.4075 411.6953,-194.7919"/>
<polygon fill="#191970" stroke="#191970" points="413.8257,-191.9884 404.1631,-187.6427 409.0067,-197.0655 413.8257,-191.9884"/>
</g>
<!-- Node22 -->
<g id="node23" class="node">
<title>Node22</title>
<g id="a_node23"><a xlink:href="panic_8h.html" target="_top" xlink:title="Crash handling header. ">
<polygon fill="none" stroke="#000000" points="316.0038,-112.5 316.0038,-131.5 364.0038,-131.5 364.0038,-112.5 316.0038,-112.5"/>
<text text-anchor="middle" x="340.0038" y="-119.5" font-family="Helvetica,sans-Serif" font-size="10.00" fill="#000000">panic.h</text>
</a>
</g>
</g>
<!-- Node21&#45;&gt;Node22 -->
<g id="edge33" class="edge">
<title>Node21&#45;&gt;Node22</title>
<path fill="none" stroke="#191970" d="M384.5977,-168.2455C376.8545,-160.2155 365.6918,-148.6394 356.472,-139.0781"/>
<polygon fill="#191970" stroke="#191970" points="358.763,-136.4117 349.3021,-131.6427 353.724,-141.2706 358.763,-136.4117"/>
</g>
<!-- Node23 -->
<g id="node24" class="node">
<title>Node23</title>
<g id="a_node24"><a xlink:href="kernel__defines_8h.html" target="_top" xlink:title="Common macros and compiler attributes/pragmas configuration. ">
<polygon fill="none" stroke="#000000" points="243.0038,-56.5 243.0038,-75.5 331.0038,-75.5 331.0038,-56.5 243.0038,-56.5"/>
<text text-anchor="middle" x="287.0038" y="-63.5" font-family="Helvetica,sans-Serif" font-size="10.00" fill="#000000">kernel_defines.h</text>
</a>
</g>
</g>
<!-- Node22&#45;&gt;Node23 -->
<g id="edge34" class="edge">
<title>Node22&#45;&gt;Node23</title>
<path fill="none" stroke="#191970" d="M330.7719,-112.2455C323.1721,-104.2155 312.2161,-92.6394 303.1671,-83.0781"/>
<polygon fill="#191970" stroke="#191970" points="305.5458,-80.4998 296.1299,-75.6427 300.4618,-85.3115 305.5458,-80.4998"/>
</g>
<!-- Node23&#45;&gt;Node12 -->
<g id="edge35" class="edge">
<title>Node23&#45;&gt;Node12</title>
<path fill="none" stroke="#191970" d="M256.4045,-56.3733C225.4166,-46.6242 177.5171,-31.5547 144.7892,-21.2583"/>
<polygon fill="#191970" stroke="#191970" points="145.7442,-17.8897 135.1548,-18.2273 143.6435,-24.5671 145.7442,-17.8897"/>
</g>
<!-- Node25 -->
<g id="node26" class="node">
<title>Node25</title>
<g id="a_node26"><a xlink:href="drivers_2include_2periph_2timer_8h.html" target="_top" xlink:title="Low&#45;level timer peripheral driver interface definitions. ">
<polygon fill="none" stroke="#000000" points="546.0038,-224.5 546.0038,-243.5 622.0038,-243.5 622.0038,-224.5 546.0038,-224.5"/>
<text text-anchor="middle" x="584.0038" y="-231.5" font-family="Helvetica,sans-Serif" font-size="10.00" fill="#000000">periph/timer.h</text>
</a>
</g>
</g>
<!-- Node24&#45;&gt;Node25 -->
<g id="edge38" class="edge">
<title>Node24&#45;&gt;Node25</title>
<path fill="none" stroke="#191970" d="M602.1717,-280.2455C599.2379,-272.7776 595.0992,-262.2427 591.5128,-253.1137"/>
<polygon fill="#191970" stroke="#191970" points="594.7062,-251.6704 587.792,-243.6427 588.191,-254.23 594.7062,-251.6704"/>
</g>
<!-- Node27 -->
<g id="node28" class="node">
<title>Node27</title>
<g id="a_node28"><a xlink:href="irq_8h.html" target="_top" xlink:title="IRQ driver interface. ">
<polygon fill="none" stroke="#000000" points="769.5038,-224.5 769.5038,-243.5 804.5038,-243.5 804.5038,-224.5 769.5038,-224.5"/>
<text text-anchor="middle" x="787.0038" y="-231.5" font-family="Helvetica,sans-Serif" font-size="10.00" fill="#000000">irq.h</text>
</a>
</g>
</g>
<!-- Node24&#45;&gt;Node27 -->
<g id="edge44" class="edge">
<title>Node24&#45;&gt;Node27</title>
<path fill="none" stroke="#191970" d="M637.1188,-280.3733C671.5942,-269.7068 726.6548,-252.6715 759.5733,-242.4868"/>
<polygon fill="#191970" stroke="#191970" points="760.9102,-245.7369 769.4289,-239.4375 758.8412,-239.0497 760.9102,-245.7369"/>
</g>
<!-- Node25&#45;&gt;Node1 -->
<g id="edge40" class="edge">
<title>Node25&#45;&gt;Node1</title>
<path fill="none" stroke="#191970" d="M545.8872,-229.9933C489.9929,-223.7312 382.4167,-210.2137 282.7013,-188.1532"/>
<polygon fill="#191970" stroke="#191970" points="283.2922,-184.6988 272.7681,-185.921 281.7573,-191.5285 283.2922,-184.6988"/>
</g>
<!-- Node25&#45;&gt;Node4 -->
<g id="edge39" class="edge">
<title>Node25&#45;&gt;Node4</title>
<path fill="none" stroke="#191970" d="M584.0038,-224.2455C584.0038,-216.9382 584.0038,-206.6944 584.0038,-197.7046"/>
<polygon fill="#191970" stroke="#191970" points="587.5039,-197.6426 584.0038,-187.6427 580.5039,-197.6427 587.5039,-197.6426"/>
</g>
<!-- Node25&#45;&gt;Node5 -->
<g id="edge41" class="edge">
<title>Node25&#45;&gt;Node5</title>
<path fill="none" stroke="#191970" d="M597.5904,-224.2455C609.3343,-215.814 626.5237,-203.4729 640.192,-193.6598"/>
<polygon fill="#191970" stroke="#191970" points="642.4909,-196.3179 648.573,-187.6427 638.4085,-190.6316 642.4909,-196.3179"/>
</g>
<!-- Node26 -->
<g id="node27" class="node">
<title>Node26</title>
<g id="a_node27"><a xlink:href="dev__enums_8h.html" target="_top" xlink:title="Device enumerations for backward compatibility with existing peripheral driver implementations. ">
<polygon fill="none" stroke="#000000" points="438.0038,-168.5 438.0038,-187.5 542.0038,-187.5 542.0038,-168.5 438.0038,-168.5"/>
<text text-anchor="middle" x="490.0038" y="-175.5" font-family="Helvetica,sans-Serif" font-size="10.00" fill="#000000">periph/dev_enums.h</text>
</a>
</g>
</g>
<!-- Node25&#45;&gt;Node26 -->
<g id="edge42" class="edge">
<title>Node25&#45;&gt;Node26</title>
<path fill="none" stroke="#191970" d="M567.6303,-224.2455C553.073,-215.5731 531.5728,-202.7645 514.8886,-192.825"/>
<polygon fill="#191970" stroke="#191970" points="516.5721,-189.7539 506.1897,-187.6427 512.9894,-195.7676 516.5721,-189.7539"/>
</g>
<!-- Node26&#45;&gt;Node6 -->
<g id="edge43" class="edge">
<title>Node26&#45;&gt;Node6</title>
<path fill="none" stroke="#191970" d="M530.3055,-168.4369C571.3431,-158.6992 634.9504,-143.6059 678.4341,-133.2877"/>
<polygon fill="#191970" stroke="#191970" points="679.2873,-136.6825 688.2091,-130.9682 677.6711,-129.8717 679.2873,-136.6825"/>
</g>
<!-- Node27&#45;&gt;Node8 -->
<g id="edge45" class="edge">
<title>Node27&#45;&gt;Node8</title>
<path fill="none" stroke="#191970" d="M800.7646,-224.2455C812.659,-215.814 830.0688,-203.4729 843.9124,-193.6598"/>
<polygon fill="#191970" stroke="#191970" points="846.2666,-196.2811 852.4008,-187.6427 842.2185,-190.5704 846.2666,-196.2811"/>
</g>
<!-- Node28 -->
<g id="node29" class="node">
<title>Node28</title>
<polygon fill="none" stroke="#bfbfbf" points="754.5038,-168.5 754.5038,-187.5 819.5038,-187.5 819.5038,-168.5 754.5038,-168.5"/>
<text text-anchor="middle" x="787.0038" y="-175.5" font-family="Helvetica,sans-Serif" font-size="10.00" fill="#000000">cpu_conf.h</text>
</g>
<!-- Node27&#45;&gt;Node28 -->
<g id="edge46" class="edge">
<title>Node27&#45;&gt;Node28</title>
<path fill="none" stroke="#191970" d="M787.0038,-224.2455C787.0038,-216.9382 787.0038,-206.6944 787.0038,-197.7046"/>
<polygon fill="#191970" stroke="#191970" points="790.5039,-197.6426 787.0038,-187.6427 783.5039,-197.6427 790.5039,-197.6426"/>
</g>
</g>
</svg>
