<?xml version="1.0" encoding="UTF-8" standalone="no"?>
<!DOCTYPE svg PUBLIC "-//W3C//DTD SVG 1.1//EN"
 "http://www.w3.org/Graphics/SVG/1.1/DTD/svg11.dtd">
<!-- Generated by graphviz version 2.40.1 (20161225.0304)
 -->
<!-- Title: drivers/include/srf02.h Pages: 1 -->
<svg width="444pt" height="196pt"
 viewBox="0.00 0.00 443.50 196.00" xmlns="http://www.w3.org/2000/svg" xmlns:xlink="http://www.w3.org/1999/xlink">
<g id="graph0" class="graph" transform="scale(1 1) rotate(0) translate(4 192)">
<title>drivers/include/srf02.h</title>
<!-- Node0 -->
<g id="node1" class="node">
<title>Node0</title>
<polygon fill="#bfbfbf" stroke="#000000" points="37,-168.5 37,-187.5 150,-187.5 150,-168.5 37,-168.5"/>
<text text-anchor="middle" x="93.5" y="-175.5" font-family="Helvetica,sans-Serif" font-size="10.00" fill="#000000">drivers/include/srf02.h</text>
</g>
<!-- Node1 -->
<g id="node2" class="node">
<title>Node1</title>
<polygon fill="none" stroke="#bfbfbf" points="0,-56.5 0,-75.5 49,-75.5 49,-56.5 0,-56.5"/>
<text text-anchor="middle" x="24.5" y="-63.5" font-family="Helvetica,sans-Serif" font-size="10.00" fill="#000000">stdint.h</text>
</g>
<!-- Node0&#45;&gt;Node1 -->
<g id="edge1" class="edge">
<title>Node0&#45;&gt;Node1</title>
<path fill="none" stroke="#191970" d="M87.6171,-168.4509C76.1087,-149.7707 50.4512,-108.1238 35.6362,-84.0761"/>
<polygon fill="#191970" stroke="#191970" points="38.5932,-82.203 30.368,-75.5249 32.6334,-85.8747 38.5932,-82.203"/>
</g>
<!-- Node2 -->
<g id="node3" class="node">
<title>Node2</title>
<g id="a_node3"><a xlink:href="i2c_8h.html" target="_top" xlink:title="Low&#45;level I2C peripheral driver interface definition. ">
<polygon fill="none" stroke="#000000" points="128,-112.5 128,-131.5 195,-131.5 195,-112.5 128,-112.5"/>
<text text-anchor="middle" x="161.5" y="-119.5" font-family="Helvetica,sans-Serif" font-size="10.00" fill="#000000">periph/i2c.h</text>
</a>
</g>
</g>
<!-- Node0&#45;&gt;Node2 -->
<g id="edge2" class="edge">
<title>Node0&#45;&gt;Node2</title>
<path fill="none" stroke="#191970" d="M105.3447,-168.2455C115.388,-159.9746 129.9995,-147.9416 141.8004,-138.2232"/>
<polygon fill="#191970" stroke="#191970" points="144.2967,-140.7015 149.791,-131.6427 139.8467,-135.298 144.2967,-140.7015"/>
</g>
<!-- Node2&#45;&gt;Node1 -->
<g id="edge3" class="edge">
<title>Node2&#45;&gt;Node1</title>
<path fill="none" stroke="#191970" d="M137.9489,-112.3733C115.6609,-103.2629 82.0063,-89.5062 57.1363,-79.3404"/>
<polygon fill="#191970" stroke="#191970" points="58.3247,-76.0451 47.7438,-75.5011 55.6761,-82.5247 58.3247,-76.0451"/>
</g>
<!-- Node3 -->
<g id="node4" class="node">
<title>Node3</title>
<polygon fill="none" stroke="#bfbfbf" points="67.5,-56.5 67.5,-75.5 119.5,-75.5 119.5,-56.5 67.5,-56.5"/>
<text text-anchor="middle" x="93.5" y="-63.5" font-family="Helvetica,sans-Serif" font-size="10.00" fill="#000000">stddef.h</text>
</g>
<!-- Node2&#45;&gt;Node3 -->
<g id="edge4" class="edge">
<title>Node2&#45;&gt;Node3</title>
<path fill="none" stroke="#191970" d="M149.6553,-112.2455C139.612,-103.9746 125.0005,-91.9416 113.1996,-82.2232"/>
<polygon fill="#191970" stroke="#191970" points="115.1533,-79.298 105.209,-75.6427 110.7033,-84.7015 115.1533,-79.298"/>
</g>
<!-- Node4 -->
<g id="node5" class="node">
<title>Node4</title>
<polygon fill="none" stroke="#bfbfbf" points="137.5,-56.5 137.5,-75.5 185.5,-75.5 185.5,-56.5 137.5,-56.5"/>
<text text-anchor="middle" x="161.5" y="-63.5" font-family="Helvetica,sans-Serif" font-size="10.00" fill="#000000">limits.h</text>
</g>
<!-- Node2&#45;&gt;Node4 -->
<g id="edge5" class="edge">
<title>Node2&#45;&gt;Node4</title>
<path fill="none" stroke="#191970" d="M161.5,-112.2455C161.5,-104.9382 161.5,-94.6944 161.5,-85.7046"/>
<polygon fill="#191970" stroke="#191970" points="165.0001,-85.6426 161.5,-75.6427 158.0001,-85.6427 165.0001,-85.6426"/>
</g>
<!-- Node5 -->
<g id="node6" class="node">
<title>Node5</title>
<polygon fill="none" stroke="#bfbfbf" points="261,-.5 261,-19.5 336,-19.5 336,-.5 261,-.5"/>
<text text-anchor="middle" x="298.5" y="-7.5" font-family="Helvetica,sans-Serif" font-size="10.00" fill="#000000">periph_conf.h</text>
</g>
<!-- Node2&#45;&gt;Node5 -->
<g id="edge6" class="edge">
<title>Node2&#45;&gt;Node5</title>
<path fill="none" stroke="#191970" d="M171.2132,-112.1408C184.5327,-98.8186 209.446,-74.5973 232.5,-56 245.9712,-45.133 261.8657,-34.0079 274.6809,-25.421"/>
<polygon fill="#191970" stroke="#191970" points="276.9823,-28.0949 283.3894,-19.6569 273.1187,-22.2577 276.9823,-28.0949"/>
</g>
<!-- Node6 -->
<g id="node7" class="node">
<title>Node6</title>
<polygon fill="none" stroke="#bfbfbf" points="241.5,-56.5 241.5,-75.5 313.5,-75.5 313.5,-56.5 241.5,-56.5"/>
<text text-anchor="middle" x="277.5" y="-63.5" font-family="Helvetica,sans-Serif" font-size="10.00" fill="#000000">periph_cpu.h</text>
</g>
<!-- Node2&#45;&gt;Node6 -->
<g id="edge7" class="edge">
<title>Node2&#45;&gt;Node6</title>
<path fill="none" stroke="#191970" d="M181.4411,-112.3733C199.9786,-103.4241 227.8028,-89.9917 248.7413,-79.8835"/>
<polygon fill="#191970" stroke="#191970" points="250.3352,-83.0006 257.8191,-75.5011 247.2919,-76.6967 250.3352,-83.0006"/>
</g>
<!-- Node7 -->
<g id="node8" class="node">
<title>Node7</title>
<g id="a_node8"><a xlink:href="dev__enums_8h.html" target="_top" xlink:title="Device enumerations for backward compatibility with existing peripheral driver implementations. ">
<polygon fill="none" stroke="#000000" points="331.5,-56.5 331.5,-75.5 435.5,-75.5 435.5,-56.5 331.5,-56.5"/>
<text text-anchor="middle" x="383.5" y="-63.5" font-family="Helvetica,sans-Serif" font-size="10.00" fill="#000000">periph/dev_enums.h</text>
</a>
</g>
</g>
<!-- Node2&#45;&gt;Node7 -->
<g id="edge8" class="edge">
<title>Node2&#45;&gt;Node7</title>
<path fill="none" stroke="#191970" d="M195.217,-113.4948C232.7232,-104.0338 293.5995,-88.6776 335.9387,-77.9974"/>
<polygon fill="#191970" stroke="#191970" points="336.9023,-81.3641 345.7425,-75.5244 335.1901,-74.5767 336.9023,-81.3641"/>
</g>
<!-- Node7&#45;&gt;Node5 -->
<g id="edge9" class="edge">
<title>Node7&#45;&gt;Node5</title>
<path fill="none" stroke="#191970" d="M368.6941,-56.2455C355.7744,-47.7337 336.8069,-35.2375 321.8448,-25.3801"/>
<polygon fill="#191970" stroke="#191970" points="323.4124,-22.2216 313.1362,-19.6427 319.5613,-28.067 323.4124,-22.2216"/>
</g>
</g>
</svg>
