<?xml version="1.0" encoding="UTF-8" standalone="no"?>
<!DOCTYPE svg PUBLIC "-//W3C//DTD SVG 1.1//EN"
 "http://www.w3.org/Graphics/SVG/1.1/DTD/svg11.dtd">
<!-- Generated by graphviz version 2.43.0 (0)
 -->
<!-- Title: drivers/include/srf04.h Pages: 1 -->
<svg width="1165pt" height="532pt"
 viewBox="0.00 0.00 1165.00 532.00" xmlns="http://www.w3.org/2000/svg" xmlns:xlink="http://www.w3.org/1999/xlink">
<g id="graph0" class="graph" transform="scale(1 1) rotate(0) translate(4 528)">
<title>drivers/include/srf04.h</title>
<!-- Node1 -->
<g id="node1" class="node">
<title>Node1</title>
<g id="a_node1"><a xlink:title="Device driver for the srf04 ultra sonic range finder.">
<polygon fill="#bfbfbf" stroke="black" points="1029.5,-504.5 1029.5,-523.5 1154.5,-523.5 1154.5,-504.5 1029.5,-504.5"/>
<text text-anchor="middle" x="1092" y="-511.5" font-family="Helvetica,sans-Serif" font-size="10.00">drivers/include/srf04.h</text>
</a>
</g>
</g>
<!-- Node2 -->
<g id="node2" class="node">
<title>Node2</title>
<g id="a_node2"><a xlink:title=" ">
<polygon fill="none" stroke="#bfbfbf" points="671.5,-0.5 671.5,-19.5 724.5,-19.5 724.5,-0.5 671.5,-0.5"/>
<text text-anchor="middle" x="698" y="-7.5" font-family="Helvetica,sans-Serif" font-size="10.00">stdint.h</text>
</a>
</g>
</g>
<!-- Node1&#45;&gt;Node2 -->
<g id="edge1" class="edge">
<title>Node1&#45;&gt;Node2</title>
<path fill="none" stroke="midnightblue" d="M1101.59,-504.34C1119.67,-487.02 1157,-446.03 1157,-403 1157,-403 1157,-403 1157,-121 1157,-34.36 843.83,-15.8 734.85,-11.96"/>
<polygon fill="midnightblue" stroke="midnightblue" points="734.77,-8.46 724.66,-11.63 734.54,-15.45 734.77,-8.46"/>
</g>
<!-- Node3 -->
<g id="node3" class="node">
<title>Node3</title>
<g id="a_node3"><a xlink:title=" ">
<polygon fill="none" stroke="#bfbfbf" points="1041,-448.5 1041,-467.5 1091,-467.5 1091,-448.5 1041,-448.5"/>
<text text-anchor="middle" x="1066" y="-455.5" font-family="Helvetica,sans-Serif" font-size="10.00">stdio.h</text>
</a>
</g>
</g>
<!-- Node1&#45;&gt;Node3 -->
<g id="edge2" class="edge">
<title>Node1&#45;&gt;Node3</title>
<path fill="none" stroke="midnightblue" d="M1087.71,-504.08C1084.15,-496.69 1078.98,-485.95 1074.58,-476.81"/>
<polygon fill="midnightblue" stroke="midnightblue" points="1077.71,-475.24 1070.21,-467.75 1071.4,-478.28 1077.71,-475.24"/>
</g>
<!-- Node4 -->
<g id="node4" class="node">
<title>Node4</title>
<g id="a_node4"><a xlink:href="gpio_8h.html" target="_top" xlink:title="Low&#45;level GPIO peripheral driver interface definitions.">
<polygon fill="none" stroke="black" points="974,-336.5 974,-355.5 1054,-355.5 1054,-336.5 974,-336.5"/>
<text text-anchor="middle" x="1014" y="-343.5" font-family="Helvetica,sans-Serif" font-size="10.00">periph/gpio.h</text>
</a>
</g>
</g>
<!-- Node1&#45;&gt;Node4 -->
<g id="edge3" class="edge">
<title>Node1&#45;&gt;Node4</title>
<path fill="none" stroke="midnightblue" d="M1095.57,-504.29C1100.24,-491.54 1107.07,-467.21 1100,-448 1086.79,-412.1 1054.51,-380.26 1033.47,-362.33"/>
<polygon fill="midnightblue" stroke="midnightblue" points="1035.44,-359.41 1025.5,-355.74 1030.98,-364.81 1035.44,-359.41"/>
</g>
<!-- Node8 -->
<g id="node8" class="node">
<title>Node8</title>
<g id="a_node8"><a xlink:href="xtimer_8h.html" target="_top" xlink:title="xtimer interface definitions">
<polygon fill="none" stroke="black" points="673,-448.5 673,-467.5 731,-467.5 731,-448.5 673,-448.5"/>
<text text-anchor="middle" x="702" y="-455.5" font-family="Helvetica,sans-Serif" font-size="10.00">xtimer.h</text>
</a>
</g>
</g>
<!-- Node1&#45;&gt;Node8 -->
<g id="edge7" class="edge">
<title>Node1&#45;&gt;Node8</title>
<path fill="none" stroke="midnightblue" d="M1030.2,-504.44C949.26,-493.24 809.68,-473.91 741.62,-464.49"/>
<polygon fill="midnightblue" stroke="midnightblue" points="741.72,-460.97 731.33,-463.06 740.76,-467.9 741.72,-460.97"/>
</g>
<!-- Node5 -->
<g id="node5" class="node">
<title>Node5</title>
<g id="a_node5"><a xlink:title=" ">
<polygon fill="none" stroke="#bfbfbf" points="973.5,-280.5 973.5,-299.5 1026.5,-299.5 1026.5,-280.5 973.5,-280.5"/>
<text text-anchor="middle" x="1000" y="-287.5" font-family="Helvetica,sans-Serif" font-size="10.00">limits.h</text>
</a>
</g>
</g>
<!-- Node4&#45;&gt;Node5 -->
<g id="edge4" class="edge">
<title>Node4&#45;&gt;Node5</title>
<path fill="none" stroke="midnightblue" d="M1011.69,-336.08C1009.83,-328.93 1007.16,-318.64 1004.85,-309.69"/>
<polygon fill="midnightblue" stroke="midnightblue" points="1008.17,-308.55 1002.27,-299.75 1001.39,-310.31 1008.17,-308.55"/>
</g>
<!-- Node6 -->
<g id="node6" class="node">
<title>Node6</title>
<g id="a_node6"><a xlink:title=" ">
<polygon fill="none" stroke="#bfbfbf" points="876.5,-280.5 876.5,-299.5 955.5,-299.5 955.5,-280.5 876.5,-280.5"/>
<text text-anchor="middle" x="916" y="-287.5" font-family="Helvetica,sans-Serif" font-size="10.00">periph_cpu.h</text>
</a>
</g>
</g>
<!-- Node4&#45;&gt;Node6 -->
<g id="edge5" class="edge">
<title>Node4&#45;&gt;Node6</title>
<path fill="none" stroke="midnightblue" d="M998.25,-336.32C982.68,-327.74 958.62,-314.49 940.54,-304.52"/>
<polygon fill="midnightblue" stroke="midnightblue" points="942.15,-301.42 931.71,-299.65 938.78,-307.55 942.15,-301.42"/>
</g>
<!-- Node7 -->
<g id="node7" class="node">
<title>Node7</title>
<g id="a_node7"><a xlink:title=" ">
<polygon fill="none" stroke="#bfbfbf" points="1045,-280.5 1045,-299.5 1127,-299.5 1127,-280.5 1045,-280.5"/>
<text text-anchor="middle" x="1086" y="-287.5" font-family="Helvetica,sans-Serif" font-size="10.00">periph_conf.h</text>
</a>
</g>
</g>
<!-- Node4&#45;&gt;Node7 -->
<g id="edge6" class="edge">
<title>Node4&#45;&gt;Node7</title>
<path fill="none" stroke="midnightblue" d="M1025.57,-336.32C1036.42,-328.18 1052.88,-315.84 1065.88,-306.09"/>
<polygon fill="midnightblue" stroke="midnightblue" points="1068.32,-308.63 1074.22,-299.83 1064.12,-303.03 1068.32,-308.63"/>
</g>
<!-- Node8&#45;&gt;Node2 -->
<g id="edge9" class="edge">
<title>Node8&#45;&gt;Node2</title>
<path fill="none" stroke="midnightblue" d="M731.24,-457.3C800.52,-457.32 971.5,-453.12 1007,-412 1012.81,-405.27 1012.48,-399 1007,-392 965.79,-339.39 911.82,-399.4 861,-356 816.62,-318.1 810,-293.36 810,-235 810,-235 810,-235 810,-121 810,-74.61 760.49,-41.28 727.31,-24.15"/>
<polygon fill="midnightblue" stroke="midnightblue" points="728.54,-20.86 718.02,-19.56 725.43,-27.13 728.54,-20.86"/>
</g>
<!-- Node8&#45;&gt;Node7 -->
<g id="edge49" class="edge">
<title>Node8&#45;&gt;Node7</title>
<path fill="none" stroke="midnightblue" d="M731.03,-456.82C804.06,-455.82 993.02,-449.56 1041,-412 1072.81,-387.1 1082.13,-337.28 1084.87,-309.97"/>
<polygon fill="midnightblue" stroke="midnightblue" points="1088.37,-310.03 1085.68,-299.79 1081.4,-309.48 1088.37,-310.03"/>
</g>
<!-- Node9 -->
<g id="node9" class="node">
<title>Node9</title>
<g id="a_node9"><a xlink:title=" ">
<polygon fill="none" stroke="#bfbfbf" points="498,-168.5 498,-187.5 560,-187.5 560,-168.5 498,-168.5"/>
<text text-anchor="middle" x="529" y="-175.5" font-family="Helvetica,sans-Serif" font-size="10.00">stdbool.h</text>
</a>
</g>
</g>
<!-- Node8&#45;&gt;Node9 -->
<g id="edge8" class="edge">
<title>Node8&#45;&gt;Node9</title>
<path fill="none" stroke="midnightblue" d="M673.14,-448.44C654.03,-441.43 629.68,-429.74 614,-412 556.79,-347.28 537.05,-240.92 531.18,-197.92"/>
<polygon fill="midnightblue" stroke="midnightblue" points="534.62,-197.25 529.9,-187.77 527.68,-198.13 534.62,-197.25"/>
</g>
<!-- Node10 -->
<g id="node10" class="node">
<title>Node10</title>
<g id="a_node10"><a xlink:href="timex_8h.html" target="_top" xlink:title="Utility library for comparing and computing timestamps.">
<polygon fill="none" stroke="black" points="616,-168.5 616,-187.5 670,-187.5 670,-168.5 616,-168.5"/>
<text text-anchor="middle" x="643" y="-175.5" font-family="Helvetica,sans-Serif" font-size="10.00">timex.h</text>
</a>
</g>
</g>
<!-- Node8&#45;&gt;Node10 -->
<g id="edge10" class="edge">
<title>Node8&#45;&gt;Node10</title>
<path fill="none" stroke="midnightblue" d="M672.88,-448.44C655.36,-441.62 634.48,-430.14 624,-412 603.05,-375.72 628.25,-246.42 638.79,-197.73"/>
<polygon fill="midnightblue" stroke="midnightblue" points="642.27,-198.18 641.01,-187.66 635.43,-196.67 642.27,-198.18"/>
</g>
<!-- Node12 -->
<g id="node12" class="node">
<title>Node12</title>
<g id="a_node12"><a xlink:href="mutex_8h.html" target="_top" xlink:title="Mutex for thread synchronization.">
<polygon fill="none" stroke="black" points="348.5,-336.5 348.5,-355.5 405.5,-355.5 405.5,-336.5 348.5,-336.5"/>
<text text-anchor="middle" x="377" y="-343.5" font-family="Helvetica,sans-Serif" font-size="10.00">mutex.h</text>
</a>
</g>
</g>
<!-- Node8&#45;&gt;Node12 -->
<g id="edge13" class="edge">
<title>Node8&#45;&gt;Node12</title>
<path fill="none" stroke="midnightblue" d="M672.96,-457.03C624.02,-455.99 523.1,-449.05 448,-412 424.7,-400.5 403.51,-378.99 390.46,-363.88"/>
<polygon fill="midnightblue" stroke="midnightblue" points="392.86,-361.28 383.77,-355.84 387.48,-365.76 392.86,-361.28"/>
</g>
<!-- Node24 -->
<g id="node24" class="node">
<title>Node24</title>
<g id="a_node24"><a xlink:href="sched_8h.html" target="_top" xlink:title="Scheduler API definition.">
<polygon fill="none" stroke="black" points="216,-168.5 216,-187.5 270,-187.5 270,-168.5 216,-168.5"/>
<text text-anchor="middle" x="243" y="-175.5" font-family="Helvetica,sans-Serif" font-size="10.00">sched.h</text>
</a>
</g>
</g>
<!-- Node8&#45;&gt;Node24 -->
<g id="edge42" class="edge">
<title>Node8&#45;&gt;Node24</title>
<path fill="none" stroke="midnightblue" d="M672.73,-455.56C539.87,-448.63 0,-416.24 0,-347 0,-347 0,-347 0,-289 0,-199.99 137,-182.63 205.26,-179.51"/>
<polygon fill="midnightblue" stroke="midnightblue" points="205.74,-182.99 215.6,-179.12 205.47,-176 205.74,-182.99"/>
</g>
<!-- Node26 -->
<g id="node26" class="node">
<title>Node26</title>
<g id="a_node26"><a xlink:href="rmutex_8h.html" target="_top" xlink:title="Recursive Mutex for thread synchronization.">
<polygon fill="none" stroke="black" points="457.5,-392.5 457.5,-411.5 518.5,-411.5 518.5,-392.5 457.5,-392.5"/>
<text text-anchor="middle" x="488" y="-399.5" font-family="Helvetica,sans-Serif" font-size="10.00">rmutex.h</text>
</a>
</g>
</g>
<!-- Node8&#45;&gt;Node26 -->
<g id="edge43" class="edge">
<title>Node8&#45;&gt;Node26</title>
<path fill="none" stroke="midnightblue" d="M672.69,-449.6C635.36,-440.18 570.66,-423.86 528.6,-413.24"/>
<polygon fill="midnightblue" stroke="midnightblue" points="529.23,-409.8 518.68,-410.74 527.52,-416.58 529.23,-409.8"/>
</g>
<!-- Node28 -->
<g id="node28" class="node">
<title>Node28</title>
<g id="a_node28"><a xlink:title=" ">
<polygon fill="none" stroke="#bfbfbf" points="788.5,-392.5 788.5,-411.5 841.5,-411.5 841.5,-392.5 788.5,-392.5"/>
<text text-anchor="middle" x="815" y="-399.5" font-family="Helvetica,sans-Serif" font-size="10.00">board.h</text>
</a>
</g>
</g>
<!-- Node8&#45;&gt;Node28 -->
<g id="edge48" class="edge">
<title>Node8&#45;&gt;Node28</title>
<path fill="none" stroke="midnightblue" d="M719.91,-448.44C738.25,-439.68 767.01,-425.94 788.09,-415.86"/>
<polygon fill="midnightblue" stroke="midnightblue" points="789.67,-418.99 797.18,-411.52 786.65,-412.67 789.67,-418.99"/>
</g>
<!-- Node29 -->
<g id="node29" class="node">
<title>Node29</title>
<g id="a_node29"><a xlink:href="tick__conversion_8h.html" target="_top" xlink:title="xtimer tick &lt;&#45;&gt; seconds conversions for different values of XTIMER_HZ">
<polygon fill="none" stroke="black" points="633.5,-392.5 633.5,-411.5 770.5,-411.5 770.5,-392.5 633.5,-392.5"/>
<text text-anchor="middle" x="702" y="-399.5" font-family="Helvetica,sans-Serif" font-size="10.00">xtimer/tick_conversion.h</text>
</a>
</g>
</g>
<!-- Node8&#45;&gt;Node29 -->
<g id="edge50" class="edge">
<title>Node8&#45;&gt;Node29</title>
<path fill="none" stroke="midnightblue" d="M702,-448.08C702,-441.01 702,-430.86 702,-421.99"/>
<polygon fill="midnightblue" stroke="midnightblue" points="705.5,-421.75 702,-411.75 698.5,-421.75 705.5,-421.75"/>
</g>
<!-- Node31 -->
<g id="node31" class="node">
<title>Node31</title>
<g id="a_node31"><a xlink:href="implementation_8h.html" target="_top" xlink:title="xtimer implementation">
<polygon fill="none" stroke="black" points="859.5,-392.5 859.5,-411.5 998.5,-411.5 998.5,-392.5 859.5,-392.5"/>
<text text-anchor="middle" x="929" y="-399.5" font-family="Helvetica,sans-Serif" font-size="10.00">xtimer/implementation.h</text>
</a>
</g>
</g>
<!-- Node8&#45;&gt;Node31 -->
<g id="edge54" class="edge">
<title>Node8&#45;&gt;Node31</title>
<path fill="none" stroke="midnightblue" d="M731.21,-450.05C769.73,-440.89 837.92,-424.67 883.29,-413.87"/>
<polygon fill="midnightblue" stroke="midnightblue" points="884.26,-417.24 893.17,-411.52 882.64,-410.43 884.26,-417.24"/>
</g>
<!-- Node10&#45;&gt;Node2 -->
<g id="edge11" class="edge">
<title>Node10&#45;&gt;Node2</title>
<path fill="none" stroke="midnightblue" d="M645.96,-168.08C654.65,-141.83 680.26,-64.55 692,-29.12"/>
<polygon fill="midnightblue" stroke="midnightblue" points="695.34,-30.16 695.16,-19.57 688.69,-27.96 695.34,-30.16"/>
</g>
<!-- Node11 -->
<g id="node11" class="node">
<title>Node11</title>
<g id="a_node11"><a xlink:href="inttypes_8h.html" target="_top" xlink:title="Adds include for missing inttype definitions.">
<polygon fill="none" stroke="black" points="498.5,-112.5 498.5,-131.5 563.5,-131.5 563.5,-112.5 498.5,-112.5"/>
<text text-anchor="middle" x="531" y="-119.5" font-family="Helvetica,sans-Serif" font-size="10.00">inttypes.h</text>
</a>
</g>
</g>
<!-- Node10&#45;&gt;Node11 -->
<g id="edge12" class="edge">
<title>Node10&#45;&gt;Node11</title>
<path fill="none" stroke="midnightblue" d="M625.01,-168.32C606.96,-159.62 578.95,-146.12 558.2,-136.11"/>
<polygon fill="midnightblue" stroke="midnightblue" points="559.48,-132.84 548.95,-131.65 556.44,-139.15 559.48,-132.84"/>
</g>
<!-- Node12&#45;&gt;Node2 -->
<g id="edge15" class="edge">
<title>Node12&#45;&gt;Node2</title>
<path fill="none" stroke="midnightblue" d="M405.51,-340.16C432.81,-334.37 474.01,-322.51 503,-300 554.19,-260.26 656.19,-84.78 688.17,-28.46"/>
<polygon fill="midnightblue" stroke="midnightblue" points="691.27,-30.09 693.15,-19.66 685.18,-26.64 691.27,-30.09"/>
</g>
<!-- Node13 -->
<g id="node13" class="node">
<title>Node13</title>
<g id="a_node13"><a xlink:title=" ">
<polygon fill="none" stroke="#bfbfbf" points="131,-0.5 131,-19.5 187,-19.5 187,-0.5 131,-0.5"/>
<text text-anchor="middle" x="159" y="-7.5" font-family="Helvetica,sans-Serif" font-size="10.00">stddef.h</text>
</a>
</g>
</g>
<!-- Node12&#45;&gt;Node13 -->
<g id="edge14" class="edge">
<title>Node12&#45;&gt;Node13</title>
<path fill="none" stroke="midnightblue" d="M348.15,-344.83C298.45,-343.53 194.48,-336.25 116,-300 75.03,-281.08 38,-280.13 38,-235 38,-235 38,-235 38,-121 38,-90.77 37.95,-78.62 58,-56 74.38,-37.52 99.79,-26.25 121.03,-19.61"/>
<polygon fill="midnightblue" stroke="midnightblue" points="122.13,-22.94 130.76,-16.79 120.18,-16.21 122.13,-22.94"/>
</g>
<!-- Node14 -->
<g id="node14" class="node">
<title>Node14</title>
<g id="a_node14"><a xlink:href="irq_8h.html" target="_top" xlink:title="IRQ driver interface.">
<polygon fill="none" stroke="black" points="456,-280.5 456,-299.5 494,-299.5 494,-280.5 456,-280.5"/>
<text text-anchor="middle" x="475" y="-287.5" font-family="Helvetica,sans-Serif" font-size="10.00">irq.h</text>
</a>
</g>
</g>
<!-- Node12&#45;&gt;Node14 -->
<g id="edge16" class="edge">
<title>Node12&#45;&gt;Node14</title>
<path fill="none" stroke="midnightblue" d="M392.75,-336.32C408.32,-327.74 432.38,-314.49 450.46,-304.52"/>
<polygon fill="midnightblue" stroke="midnightblue" points="452.22,-307.55 459.29,-299.65 448.85,-301.42 452.22,-307.55"/>
</g>
<!-- Node16 -->
<g id="node16" class="node">
<title>Node16</title>
<g id="a_node16"><a xlink:href="kernel__defines_8h.html" target="_top" xlink:title="Common macros and compiler attributes/pragmas configuration.">
<polygon fill="none" stroke="black" points="313.5,-56.5 313.5,-75.5 410.5,-75.5 410.5,-56.5 313.5,-56.5"/>
<text text-anchor="middle" x="362" y="-63.5" font-family="Helvetica,sans-Serif" font-size="10.00">kernel_defines.h</text>
</a>
</g>
</g>
<!-- Node12&#45;&gt;Node16 -->
<g id="edge19" class="edge">
<title>Node12&#45;&gt;Node16</title>
<path fill="none" stroke="midnightblue" d="M364.34,-336.2C353.12,-327.9 336.88,-314.57 326,-300 309.59,-278.01 305.92,-270.8 300,-244 288.5,-191.93 324.18,-181.89 343,-132 348.84,-116.53 353.99,-98.44 357.46,-85.28"/>
<polygon fill="midnightblue" stroke="midnightblue" points="360.86,-86.11 359.95,-75.55 354.08,-84.37 360.86,-86.11"/>
</g>
<!-- Node17 -->
<g id="node17" class="node">
<title>Node17</title>
<g id="a_node17"><a xlink:href="list_8h.html" target="_top" xlink:title="Intrusive linked list.">
<polygon fill="none" stroke="black" points="67.5,-56.5 67.5,-75.5 108.5,-75.5 108.5,-56.5 67.5,-56.5"/>
<text text-anchor="middle" x="88" y="-63.5" font-family="Helvetica,sans-Serif" font-size="10.00">list.h</text>
</a>
</g>
</g>
<!-- Node12&#45;&gt;Node17 -->
<g id="edge22" class="edge">
<title>Node12&#45;&gt;Node17</title>
<path fill="none" stroke="midnightblue" d="M348.41,-340.82C273.28,-329.05 76,-292.65 76,-235 76,-235 76,-235 76,-177 76,-144.76 81.16,-107.51 84.71,-85.68"/>
<polygon fill="midnightblue" stroke="midnightblue" points="88.21,-85.97 86.43,-75.52 81.31,-84.8 88.21,-85.97"/>
</g>
<!-- Node18 -->
<g id="node18" class="node">
<title>Node18</title>
<g id="a_node18"><a xlink:href="core_2include_2thread_8h.html" target="_top" xlink:title="Threading API.">
<polygon fill="none" stroke="black" points="335.5,-280.5 335.5,-299.5 392.5,-299.5 392.5,-280.5 335.5,-280.5"/>
<text text-anchor="middle" x="364" y="-287.5" font-family="Helvetica,sans-Serif" font-size="10.00">thread.h</text>
</a>
</g>
</g>
<!-- Node12&#45;&gt;Node18 -->
<g id="edge23" class="edge">
<title>Node12&#45;&gt;Node18</title>
<path fill="none" stroke="midnightblue" d="M374.85,-336.08C373.13,-328.93 370.65,-318.64 368.5,-309.69"/>
<polygon fill="midnightblue" stroke="midnightblue" points="371.85,-308.65 366.11,-299.75 365.04,-310.29 371.85,-308.65"/>
</g>
<!-- Node14&#45;&gt;Node9 -->
<g id="edge17" class="edge">
<title>Node14&#45;&gt;Node9</title>
<path fill="none" stroke="midnightblue" d="M483.33,-280.39C491.22,-271.8 502.88,-257.92 510,-244 517.53,-229.28 522.52,-211.12 525.49,-197.74"/>
<polygon fill="midnightblue" stroke="midnightblue" points="528.94,-198.3 527.52,-187.8 522.09,-196.9 528.94,-198.3"/>
</g>
<!-- Node15 -->
<g id="node15" class="node">
<title>Node15</title>
<g id="a_node15"><a xlink:title=" ">
<polygon fill="none" stroke="#bfbfbf" points="433,-224.5 433,-243.5 501,-243.5 501,-224.5 433,-224.5"/>
<text text-anchor="middle" x="467" y="-231.5" font-family="Helvetica,sans-Serif" font-size="10.00">cpu_conf.h</text>
</a>
</g>
</g>
<!-- Node14&#45;&gt;Node15 -->
<g id="edge18" class="edge">
<title>Node14&#45;&gt;Node15</title>
<path fill="none" stroke="midnightblue" d="M473.68,-280.08C472.62,-272.93 471.09,-262.64 469.77,-253.69"/>
<polygon fill="midnightblue" stroke="midnightblue" points="473.22,-253.13 468.3,-243.75 466.3,-254.16 473.22,-253.13"/>
</g>
<!-- Node16&#45;&gt;Node2 -->
<g id="edge21" class="edge">
<title>Node16&#45;&gt;Node2</title>
<path fill="none" stroke="midnightblue" d="M410.86,-57.15C478.82,-46.23 600.38,-26.69 661.21,-16.91"/>
<polygon fill="midnightblue" stroke="midnightblue" points="661.81,-20.36 671.13,-15.32 660.7,-13.45 661.81,-20.36"/>
</g>
<!-- Node16&#45;&gt;Node13 -->
<g id="edge20" class="edge">
<title>Node16&#45;&gt;Node13</title>
<path fill="none" stroke="midnightblue" d="M329.83,-56.44C293.71,-46.83 235.14,-31.25 196.84,-21.07"/>
<polygon fill="midnightblue" stroke="midnightblue" points="197.66,-17.66 187.09,-18.47 195.86,-24.43 197.66,-17.66"/>
</g>
<!-- Node18&#45;&gt;Node15 -->
<g id="edge40" class="edge">
<title>Node18&#45;&gt;Node15</title>
<path fill="none" stroke="midnightblue" d="M380.55,-280.32C396.99,-271.7 422.43,-258.36 441.47,-248.39"/>
<polygon fill="midnightblue" stroke="midnightblue" points="443.26,-251.4 450.49,-243.65 440.01,-245.2 443.26,-251.4"/>
</g>
<!-- Node19 -->
<g id="node19" class="node">
<title>Node19</title>
<g id="a_node19"><a xlink:href="clist_8h.html" target="_top" xlink:title="Circular linked list.">
<polygon fill="none" stroke="black" points="104,-112.5 104,-131.5 150,-131.5 150,-112.5 104,-112.5"/>
<text text-anchor="middle" x="127" y="-119.5" font-family="Helvetica,sans-Serif" font-size="10.00">clist.h</text>
</a>
</g>
</g>
<!-- Node18&#45;&gt;Node19 -->
<g id="edge24" class="edge">
<title>Node18&#45;&gt;Node19</title>
<path fill="none" stroke="midnightblue" d="M345.32,-280.47C327.52,-272.05 300.2,-258.39 278,-244 226.13,-210.39 170.83,-162.6 143.82,-138.37"/>
<polygon fill="midnightblue" stroke="midnightblue" points="146.14,-135.75 136.38,-131.64 141.45,-140.94 146.14,-135.75"/>
</g>
<!-- Node20 -->
<g id="node20" class="node">
<title>Node20</title>
<g id="a_node20"><a xlink:href="cib_8h.html" target="_top" xlink:title="Circular integer buffer interface.">
<polygon fill="none" stroke="black" points="309,-224.5 309,-243.5 349,-243.5 349,-224.5 309,-224.5"/>
<text text-anchor="middle" x="329" y="-231.5" font-family="Helvetica,sans-Serif" font-size="10.00">cib.h</text>
</a>
</g>
</g>
<!-- Node18&#45;&gt;Node20 -->
<g id="edge27" class="edge">
<title>Node18&#45;&gt;Node20</title>
<path fill="none" stroke="midnightblue" d="M358.22,-280.08C353.33,-272.53 346.17,-261.49 340.17,-252.23"/>
<polygon fill="midnightblue" stroke="midnightblue" points="343.05,-250.24 334.67,-243.75 337.17,-254.05 343.05,-250.24"/>
</g>
<!-- Node23 -->
<g id="node23" class="node">
<title>Node23</title>
<g id="a_node23"><a xlink:href="msg_8h.html" target="_top" xlink:title="Messaging API for inter process communication.">
<polygon fill="none" stroke="black" points="367.5,-224.5 367.5,-243.5 414.5,-243.5 414.5,-224.5 367.5,-224.5"/>
<text text-anchor="middle" x="391" y="-231.5" font-family="Helvetica,sans-Serif" font-size="10.00">msg.h</text>
</a>
</g>
</g>
<!-- Node18&#45;&gt;Node23 -->
<g id="edge31" class="edge">
<title>Node18&#45;&gt;Node23</title>
<path fill="none" stroke="midnightblue" d="M368.46,-280.08C372.15,-272.69 377.52,-261.95 382.09,-252.81"/>
<polygon fill="midnightblue" stroke="midnightblue" points="385.28,-254.26 386.62,-243.75 379.02,-251.13 385.28,-254.26"/>
</g>
<!-- Node18&#45;&gt;Node24 -->
<g id="edge41" class="edge">
<title>Node18&#45;&gt;Node24</title>
<path fill="none" stroke="midnightblue" d="M349.81,-280.41C336.34,-271.95 315.86,-258.25 300,-244 283.33,-229.03 266.72,-209.41 255.76,-195.66"/>
<polygon fill="midnightblue" stroke="midnightblue" points="258.36,-193.3 249.44,-187.58 252.85,-197.61 258.36,-193.3"/>
</g>
<!-- Node19&#45;&gt;Node13 -->
<g id="edge25" class="edge">
<title>Node19&#45;&gt;Node13</title>
<path fill="none" stroke="midnightblue" d="M129.51,-112.37C134.7,-94.54 146.7,-53.3 153.68,-29.27"/>
<polygon fill="midnightblue" stroke="midnightblue" points="157.07,-30.17 156.5,-19.59 150.35,-28.22 157.07,-30.17"/>
</g>
<!-- Node19&#45;&gt;Node17 -->
<g id="edge26" class="edge">
<title>Node19&#45;&gt;Node17</title>
<path fill="none" stroke="midnightblue" d="M120.56,-112.08C115.05,-104.46 106.97,-93.26 100.24,-83.94"/>
<polygon fill="midnightblue" stroke="midnightblue" points="103.01,-81.81 94.32,-75.75 97.34,-85.91 103.01,-81.81"/>
</g>
<!-- Node21 -->
<g id="node21" class="node">
<title>Node21</title>
<g id="a_node21"><a xlink:href="assert_8h.html" target="_top" xlink:title="POSIX.1&#45;2008 compliant version of the assert macro.">
<polygon fill="none" stroke="black" points="386,-168.5 386,-187.5 442,-187.5 442,-168.5 386,-168.5"/>
<text text-anchor="middle" x="414" y="-175.5" font-family="Helvetica,sans-Serif" font-size="10.00">assert.h</text>
</a>
</g>
</g>
<!-- Node20&#45;&gt;Node21 -->
<g id="edge28" class="edge">
<title>Node20&#45;&gt;Node21</title>
<path fill="none" stroke="midnightblue" d="M342.66,-224.32C355.92,-215.9 376.27,-202.97 391.85,-193.07"/>
<polygon fill="midnightblue" stroke="midnightblue" points="393.81,-195.97 400.38,-187.65 390.06,-190.06 393.81,-195.97"/>
</g>
<!-- Node22 -->
<g id="node22" class="node">
<title>Node22</title>
<g id="a_node22"><a xlink:href="panic_8h.html" target="_top" xlink:title="Crash handling header.">
<polygon fill="none" stroke="black" points="390,-112.5 390,-131.5 442,-131.5 442,-112.5 390,-112.5"/>
<text text-anchor="middle" x="416" y="-119.5" font-family="Helvetica,sans-Serif" font-size="10.00">panic.h</text>
</a>
</g>
</g>
<!-- Node21&#45;&gt;Node22 -->
<g id="edge29" class="edge">
<title>Node21&#45;&gt;Node22</title>
<path fill="none" stroke="midnightblue" d="M414.33,-168.08C414.59,-161.01 414.97,-150.86 415.3,-141.99"/>
<polygon fill="midnightblue" stroke="midnightblue" points="418.8,-141.87 415.68,-131.75 411.81,-141.61 418.8,-141.87"/>
</g>
<!-- Node22&#45;&gt;Node16 -->
<g id="edge30" class="edge">
<title>Node22&#45;&gt;Node16</title>
<path fill="none" stroke="midnightblue" d="M407.08,-112.08C399.22,-104.22 387.57,-92.57 378.08,-83.08"/>
<polygon fill="midnightblue" stroke="midnightblue" points="380.3,-80.35 370.75,-75.75 375.35,-85.3 380.3,-80.35"/>
</g>
<!-- Node23&#45;&gt;Node2 -->
<g id="edge32" class="edge">
<title>Node23&#45;&gt;Node2</title>
<path fill="none" stroke="midnightblue" d="M406.12,-224.44C419.3,-216.38 438.24,-203.3 451,-188 475.2,-159.01 463.64,-139.98 489,-112 520.39,-77.38 536.13,-76.76 578,-56 605.16,-42.54 637.39,-30.66 661.61,-22.49"/>
<polygon fill="midnightblue" stroke="midnightblue" points="662.74,-25.81 671.13,-19.33 660.54,-19.16 662.74,-25.81"/>
</g>
<!-- Node23&#45;&gt;Node9 -->
<g id="edge33" class="edge">
<title>Node23&#45;&gt;Node9</title>
<path fill="none" stroke="midnightblue" d="M412.87,-224.44C435.78,-215.48 471.98,-201.31 497.87,-191.18"/>
<polygon fill="midnightblue" stroke="midnightblue" points="499.2,-194.42 507.24,-187.52 496.65,-187.9 499.2,-194.42"/>
</g>
<!-- Node23&#45;&gt;Node24 -->
<g id="edge34" class="edge">
<title>Node23&#45;&gt;Node24</title>
<path fill="none" stroke="midnightblue" d="M367.55,-224.44C342.87,-215.44 303.81,-201.19 276.02,-191.05"/>
<polygon fill="midnightblue" stroke="midnightblue" points="276.94,-187.66 266.34,-187.52 274.54,-194.23 276.94,-187.66"/>
</g>
<!-- Node24&#45;&gt;Node11 -->
<g id="edge36" class="edge">
<title>Node24&#45;&gt;Node11</title>
<path fill="none" stroke="midnightblue" d="M270.09,-171.92C320.26,-162.51 427.97,-142.32 488.13,-131.04"/>
<polygon fill="midnightblue" stroke="midnightblue" points="488.89,-134.46 498.07,-129.17 487.6,-127.58 488.89,-134.46"/>
</g>
<!-- Node24&#45;&gt;Node13 -->
<g id="edge35" class="edge">
<title>Node24&#45;&gt;Node13</title>
<path fill="none" stroke="midnightblue" d="M238.48,-168.08C225.15,-141.72 185.76,-63.88 167.94,-28.66"/>
<polygon fill="midnightblue" stroke="midnightblue" points="170.97,-26.91 163.34,-19.57 164.73,-30.07 170.97,-26.91"/>
</g>
<!-- Node24&#45;&gt;Node16 -->
<g id="edge37" class="edge">
<title>Node24&#45;&gt;Node16</title>
<path fill="none" stroke="midnightblue" d="M238.39,-168.08C232.14,-154.62 223.06,-128.9 235,-112 250.61,-89.91 278.04,-78.59 303.41,-72.82"/>
<polygon fill="midnightblue" stroke="midnightblue" points="304.27,-76.22 313.38,-70.81 302.88,-69.36 304.27,-76.22"/>
</g>
<!-- Node24&#45;&gt;Node19 -->
<g id="edge39" class="edge">
<title>Node24&#45;&gt;Node19</title>
<path fill="none" stroke="midnightblue" d="M224.62,-168.44C205.78,-159.68 176.27,-145.94 154.62,-135.86"/>
<polygon fill="midnightblue" stroke="midnightblue" points="155.84,-132.56 145.29,-131.52 152.88,-138.91 155.84,-132.56"/>
</g>
<!-- Node25 -->
<g id="node25" class="node">
<title>Node25</title>
<g id="a_node25"><a xlink:href="native__sched_8h.html" target="_top" xlink:title="Add definitions required on the native board.">
<polygon fill="none" stroke="black" points="244,-112.5 244,-131.5 334,-131.5 334,-112.5 244,-112.5"/>
<text text-anchor="middle" x="289" y="-119.5" font-family="Helvetica,sans-Serif" font-size="10.00">native_sched.h</text>
</a>
</g>
</g>
<!-- Node24&#45;&gt;Node25 -->
<g id="edge38" class="edge">
<title>Node24&#45;&gt;Node25</title>
<path fill="none" stroke="midnightblue" d="M250.6,-168.08C257.23,-160.3 267.02,-148.8 275.06,-139.37"/>
<polygon fill="midnightblue" stroke="midnightblue" points="277.73,-141.63 281.55,-131.75 272.4,-137.09 277.73,-141.63"/>
</g>
<!-- Node26&#45;&gt;Node2 -->
<g id="edge44" class="edge">
<title>Node26&#45;&gt;Node2</title>
<path fill="none" stroke="midnightblue" d="M513.45,-392.45C577.26,-369.22 739,-298.55 739,-179 739,-179 739,-179 739,-121 739,-86.52 721.09,-49.56 708.94,-28.47"/>
<polygon fill="midnightblue" stroke="midnightblue" points="711.84,-26.49 703.7,-19.71 705.84,-30.09 711.84,-26.49"/>
</g>
<!-- Node26&#45;&gt;Node12 -->
<g id="edge46" class="edge">
<title>Node26&#45;&gt;Node12</title>
<path fill="none" stroke="midnightblue" d="M470.17,-392.32C452.28,-383.62 424.52,-370.12 403.95,-360.11"/>
<polygon fill="midnightblue" stroke="midnightblue" points="405.31,-356.88 394.79,-355.65 402.25,-363.18 405.31,-356.88"/>
</g>
<!-- Node26&#45;&gt;Node24 -->
<g id="edge47" class="edge">
<title>Node26&#45;&gt;Node24</title>
<path fill="none" stroke="midnightblue" d="M457.11,-397.51C406.72,-389.96 308.31,-366.96 267,-300 247.29,-268.06 243.32,-223.15 242.78,-197.99"/>
<polygon fill="midnightblue" stroke="midnightblue" points="246.27,-197.64 242.72,-187.65 239.27,-197.67 246.27,-197.64"/>
</g>
<!-- Node27 -->
<g id="node27" class="node">
<title>Node27</title>
<g id="a_node27"><a xlink:title=" ">
<polygon fill="none" stroke="#bfbfbf" points="451,-336.5 451,-355.5 525,-355.5 525,-336.5 451,-336.5"/>
<text text-anchor="middle" x="488" y="-343.5" font-family="Helvetica,sans-Serif" font-size="10.00">stdatomic.h</text>
</a>
</g>
</g>
<!-- Node26&#45;&gt;Node27 -->
<g id="edge45" class="edge">
<title>Node26&#45;&gt;Node27</title>
<path fill="none" stroke="midnightblue" d="M488,-392.08C488,-385.01 488,-374.86 488,-365.99"/>
<polygon fill="midnightblue" stroke="midnightblue" points="491.5,-365.75 488,-355.75 484.5,-365.75 491.5,-365.75"/>
</g>
<!-- Node30 -->
<g id="node30" class="node">
<title>Node30</title>
<g id="a_node30"><a xlink:href="div_8h.html" target="_top" xlink:title=" ">
<polygon fill="none" stroke="black" points="671,-224.5 671,-243.5 711,-243.5 711,-224.5 671,-224.5"/>
<text text-anchor="middle" x="691" y="-231.5" font-family="Helvetica,sans-Serif" font-size="10.00">div.h</text>
</a>
</g>
</g>
<!-- Node29&#45;&gt;Node30 -->
<g id="edge51" class="edge">
<title>Node29&#45;&gt;Node30</title>
<path fill="none" stroke="midnightblue" d="M701.41,-392.08C699.68,-365.95 694.59,-289.21 692.23,-253.58"/>
<polygon fill="midnightblue" stroke="midnightblue" points="695.72,-253.31 691.57,-243.57 688.74,-253.78 695.72,-253.31"/>
</g>
<!-- Node30&#45;&gt;Node2 -->
<g id="edge53" class="edge">
<title>Node30&#45;&gt;Node2</title>
<path fill="none" stroke="midnightblue" d="M691.27,-224.3C692.3,-191.63 695.95,-75.87 697.4,-29.96"/>
<polygon fill="midnightblue" stroke="midnightblue" points="700.9,-29.99 697.72,-19.88 693.91,-29.77 700.9,-29.99"/>
</g>
<!-- Node30&#45;&gt;Node21 -->
<g id="edge52" class="edge">
<title>Node30&#45;&gt;Node21</title>
<path fill="none" stroke="midnightblue" d="M670.63,-229.03C624.55,-220.05 511.67,-198.04 452.16,-186.44"/>
<polygon fill="midnightblue" stroke="midnightblue" points="452.52,-182.94 442.04,-184.47 451.18,-189.82 452.52,-182.94"/>
</g>
<!-- Node31&#45;&gt;Node14 -->
<g id="edge60" class="edge">
<title>Node31&#45;&gt;Node14</title>
<path fill="none" stroke="midnightblue" d="M893.75,-392.46C807.02,-371.45 584.48,-317.53 504.33,-298.11"/>
<polygon fill="midnightblue" stroke="midnightblue" points="504.96,-294.66 494.42,-295.7 503.31,-301.46 504.96,-294.66"/>
</g>
<!-- Node32 -->
<g id="node32" class="node">
<title>Node32</title>
<g id="a_node32"><a xlink:href="drivers_2include_2periph_2timer_8h.html" target="_top" xlink:title="Low&#45;level timer peripheral driver interface definitions.">
<polygon fill="none" stroke="black" points="870,-336.5 870,-355.5 956,-355.5 956,-336.5 870,-336.5"/>
<text text-anchor="middle" x="913" y="-343.5" font-family="Helvetica,sans-Serif" font-size="10.00">periph/timer.h</text>
</a>
</g>
</g>
<!-- Node31&#45;&gt;Node32 -->
<g id="edge55" class="edge">
<title>Node31&#45;&gt;Node32</title>
<path fill="none" stroke="midnightblue" d="M926.36,-392.08C924.21,-384.85 921.12,-374.41 918.45,-365.4"/>
<polygon fill="midnightblue" stroke="midnightblue" points="921.79,-364.34 915.59,-355.75 915.08,-366.33 921.79,-364.34"/>
</g>
<!-- Node32&#45;&gt;Node2 -->
<g id="edge57" class="edge">
<title>Node32&#45;&gt;Node2</title>
<path fill="none" stroke="midnightblue" d="M901.13,-336.29C890.7,-328.04 875.85,-314.75 867,-300 851.52,-274.19 848,-265.1 848,-235 848,-235 848,-235 848,-121 848,-90.2 845.89,-77.66 824,-56 799.99,-32.24 762.6,-20.96 734.78,-15.64"/>
<polygon fill="midnightblue" stroke="midnightblue" points="735.08,-12.14 724.63,-13.88 733.89,-19.03 735.08,-12.14"/>
</g>
<!-- Node32&#45;&gt;Node5 -->
<g id="edge56" class="edge">
<title>Node32&#45;&gt;Node5</title>
<path fill="none" stroke="midnightblue" d="M926.98,-336.32C940.55,-327.9 961.38,-314.97 977.32,-305.07"/>
<polygon fill="midnightblue" stroke="midnightblue" points="979.41,-307.9 986.06,-299.65 975.71,-301.95 979.41,-307.9"/>
</g>
<!-- Node32&#45;&gt;Node6 -->
<g id="edge58" class="edge">
<title>Node32&#45;&gt;Node6</title>
<path fill="none" stroke="midnightblue" d="M913.5,-336.08C913.89,-329.01 914.45,-318.86 914.95,-309.99"/>
<polygon fill="midnightblue" stroke="midnightblue" points="918.45,-309.93 915.51,-299.75 911.46,-309.54 918.45,-309.93"/>
</g>
<!-- Node32&#45;&gt;Node7 -->
<g id="edge59" class="edge">
<title>Node32&#45;&gt;Node7</title>
<path fill="none" stroke="midnightblue" d="M940.41,-336.44C969.77,-327.28 1016.52,-312.69 1049.1,-302.52"/>
<polygon fill="midnightblue" stroke="midnightblue" points="1050.21,-305.84 1058.72,-299.52 1048.13,-299.16 1050.21,-305.84"/>
</g>
</g>
</svg>
