<?xml version="1.0" encoding="UTF-8" standalone="no"?>
<!DOCTYPE svg PUBLIC "-//W3C//DTD SVG 1.1//EN"
 "http://www.w3.org/Graphics/SVG/1.1/DTD/svg11.dtd">
<!-- Generated by graphviz version 2.43.0 (0)
 -->
<!-- Title: sys/include/stdio_semihosting.h Pages: 1 -->
<svg width="181pt" height="252pt"
 viewBox="0.00 0.00 181.00 252.00" xmlns="http://www.w3.org/2000/svg" xmlns:xlink="http://www.w3.org/1999/xlink">
<g id="graph0" class="graph" transform="scale(1 1) rotate(0) translate(4 248)">
<title>sys/include/stdio_semihosting.h</title>
<!-- Node1 -->
<g id="node1" class="node">
<title>Node1</title>
<g id="a_node1"><a xlink:title=" ">
<polygon fill="#bfbfbf" stroke="black" points="0,-224.5 0,-243.5 173,-243.5 173,-224.5 0,-224.5"/>
<text text-anchor="middle" x="86.5" y="-231.5" font-family="Helvetica,sans-Serif" font-size="10.00">sys/include/stdio_semihosting.h</text>
</a>
</g>
</g>
<!-- Node2 -->
<g id="node2" class="node">
<title>Node2</title>
<g id="a_node2"><a xlink:href="stdio__base_8h.html" target="_top" xlink:title=" ">
<polygon fill="none" stroke="black" points="47.5,-168.5 47.5,-187.5 125.5,-187.5 125.5,-168.5 47.5,-168.5"/>
<text text-anchor="middle" x="86.5" y="-175.5" font-family="Helvetica,sans-Serif" font-size="10.00">stdio_base.h</text>
</a>
</g>
</g>
<!-- Node1&#45;&gt;Node2 -->
<g id="edge1" class="edge">
<title>Node1&#45;&gt;Node2</title>
<path fill="none" stroke="midnightblue" d="M86.5,-224.08C86.5,-217.01 86.5,-206.86 86.5,-197.99"/>
<polygon fill="midnightblue" stroke="midnightblue" points="90,-197.75 86.5,-187.75 83,-197.75 90,-197.75"/>
</g>
<!-- Node3 -->
<g id="node3" class="node">
<title>Node3</title>
<g id="a_node3"><a xlink:href="unistd_8h_source.html" target="_top" xlink:title=" ">
<polygon fill="none" stroke="black" points="58.5,-112.5 58.5,-131.5 114.5,-131.5 114.5,-112.5 58.5,-112.5"/>
<text text-anchor="middle" x="86.5" y="-119.5" font-family="Helvetica,sans-Serif" font-size="10.00">unistd.h</text>
</a>
</g>
</g>
<!-- Node2&#45;&gt;Node3 -->
<g id="edge2" class="edge">
<title>Node2&#45;&gt;Node3</title>
<path fill="none" stroke="midnightblue" d="M86.5,-168.08C86.5,-161.01 86.5,-150.86 86.5,-141.99"/>
<polygon fill="midnightblue" stroke="midnightblue" points="90,-141.75 86.5,-131.75 83,-141.75 90,-141.75"/>
</g>
<!-- Node4 -->
<g id="node4" class="node">
<title>Node4</title>
<g id="a_node4"><a xlink:title=" ">
<polygon fill="none" stroke="#bfbfbf" points="21.5,-0.5 21.5,-19.5 77.5,-19.5 77.5,-0.5 21.5,-0.5"/>
<text text-anchor="middle" x="49.5" y="-7.5" font-family="Helvetica,sans-Serif" font-size="10.00">stddef.h</text>
</a>
</g>
</g>
<!-- Node3&#45;&gt;Node4 -->
<g id="edge3" class="edge">
<title>Node3&#45;&gt;Node4</title>
<path fill="none" stroke="midnightblue" d="M73.44,-112.44C62.59,-104.47 47.93,-91.52 41.5,-76 35.32,-61.08 38.46,-42.71 42.48,-29.31"/>
<polygon fill="midnightblue" stroke="midnightblue" points="45.81,-30.38 45.73,-19.79 39.19,-28.12 45.81,-30.38"/>
</g>
<!-- Node5 -->
<g id="node5" class="node">
<title>Node5</title>
<g id="a_node5"><a xlink:title=" ">
<polygon fill="none" stroke="#bfbfbf" points="110,-0.5 110,-19.5 163,-19.5 163,-0.5 110,-0.5"/>
<text text-anchor="middle" x="136.5" y="-7.5" font-family="Helvetica,sans-Serif" font-size="10.00">stdint.h</text>
</a>
</g>
</g>
<!-- Node3&#45;&gt;Node5 -->
<g id="edge4" class="edge">
<title>Node3&#45;&gt;Node5</title>
<path fill="none" stroke="midnightblue" d="M99.27,-112.31C109.93,-104.26 124.48,-91.26 131.5,-76 138.15,-61.54 139,-43.35 138.42,-29.9"/>
<polygon fill="midnightblue" stroke="midnightblue" points="141.91,-29.61 137.69,-19.89 134.93,-30.12 141.91,-29.61"/>
</g>
<!-- Node6 -->
<g id="node6" class="node">
<title>Node6</title>
<g id="a_node6"><a xlink:href="cpu_2atmega__common_2avr__libc__extra_2include_2sys_2types_8h_source.html" target="_top" xlink:title=" ">
<polygon fill="none" stroke="black" points="50.5,-56.5 50.5,-75.5 122.5,-75.5 122.5,-56.5 50.5,-56.5"/>
<text text-anchor="middle" x="86.5" y="-63.5" font-family="Helvetica,sans-Serif" font-size="10.00">sys/types.h</text>
</a>
</g>
</g>
<!-- Node3&#45;&gt;Node6 -->
<g id="edge5" class="edge">
<title>Node3&#45;&gt;Node6</title>
<path fill="none" stroke="midnightblue" d="M86.5,-112.08C86.5,-105.01 86.5,-94.86 86.5,-85.99"/>
<polygon fill="midnightblue" stroke="midnightblue" points="90,-85.75 86.5,-75.75 83,-85.75 90,-85.75"/>
</g>
<!-- Node6&#45;&gt;Node4 -->
<g id="edge7" class="edge">
<title>Node6&#45;&gt;Node4</title>
<path fill="none" stroke="midnightblue" d="M80.39,-56.08C75.22,-48.53 67.65,-37.49 61.31,-28.23"/>
<polygon fill="midnightblue" stroke="midnightblue" points="64.04,-26.02 55.5,-19.75 58.26,-29.98 64.04,-26.02"/>
</g>
<!-- Node6&#45;&gt;Node5 -->
<g id="edge6" class="edge">
<title>Node6&#45;&gt;Node5</title>
<path fill="none" stroke="midnightblue" d="M94.76,-56.08C101.96,-48.3 112.61,-36.8 121.35,-27.37"/>
<polygon fill="midnightblue" stroke="midnightblue" points="124.17,-29.47 128.4,-19.75 119.03,-24.71 124.17,-29.47"/>
</g>
</g>
</svg>
