<?xml version="1.0" encoding="UTF-8" standalone="no"?>
<!DOCTYPE svg PUBLIC "-//W3C//DTD SVG 1.1//EN"
 "http://www.w3.org/Graphics/SVG/1.1/DTD/svg11.dtd">
<!-- Generated by graphviz version 2.40.1 (20161225.0304)
 -->
<!-- Title: boards/stm32f4discovery/include/gpio_params.h Pages: 1 -->
<svg width="616pt" height="274pt"
 viewBox="0.00 0.00 615.50 274.00" xmlns="http://www.w3.org/2000/svg" xmlns:xlink="http://www.w3.org/1999/xlink">
<g id="graph0" class="graph" transform="scale(1 1) rotate(0) translate(4 270)">
<title>boards/stm32f4discovery/include/gpio_params.h</title>
<!-- Node0 -->
<g id="node1" class="node">
<title>Node0</title>
<polygon fill="#bfbfbf" stroke="#000000" points="311,-235.5 311,-265.5 437,-265.5 437,-235.5 311,-235.5"/>
<text text-anchor="start" x="319" y="-253.5" font-family="Helvetica,sans-Serif" font-size="10.00" fill="#000000">boards/stm32f4discovery</text>
<text text-anchor="middle" x="374" y="-242.5" font-family="Helvetica,sans-Serif" font-size="10.00" fill="#000000">/include/gpio_params.h</text>
</g>
<!-- Node1 -->
<g id="node2" class="node">
<title>Node1</title>
<g id="a_node2"><a xlink:href="stm32f4discovery_2include_2board_8h.html" target="_top" xlink:title="Board specific definitions for the STM32F4Discovery evaluation board. ">
<polygon fill="none" stroke="#000000" points="323.5,-179.5 323.5,-198.5 372.5,-198.5 372.5,-179.5 323.5,-179.5"/>
<text text-anchor="middle" x="348" y="-186.5" font-family="Helvetica,sans-Serif" font-size="10.00" fill="#000000">board.h</text>
</a>
</g>
</g>
<!-- Node0&#45;&gt;Node1 -->
<g id="edge1" class="edge">
<title>Node0&#45;&gt;Node1</title>
<path fill="none" stroke="#191970" d="M367.573,-235.2977C364.1143,-227.1166 359.8133,-216.943 356.1246,-208.2179"/>
<polygon fill="#191970" stroke="#191970" points="359.2807,-206.6947 352.1629,-198.8469 352.8332,-209.4205 359.2807,-206.6947"/>
</g>
<!-- Node9 -->
<g id="node10" class="node">
<title>Node9</title>
<g id="a_node10"><a xlink:href="periph_8h.html" target="_top" xlink:title="Parameter definitions for mapping peripherals directly to SAUL. ">
<polygon fill="none" stroke="#000000" points="400,-123.5 400,-142.5 472,-142.5 472,-123.5 400,-123.5"/>
<text text-anchor="middle" x="436" y="-130.5" font-family="Helvetica,sans-Serif" font-size="10.00" fill="#000000">saul/periph.h</text>
</a>
</g>
</g>
<!-- Node0&#45;&gt;Node9 -->
<g id="edge10" class="edge">
<title>Node0&#45;&gt;Node9</title>
<path fill="none" stroke="#191970" d="M382.1054,-235.1389C393.4281,-213.6806 413.9577,-174.7738 426.1485,-151.6702"/>
<polygon fill="#191970" stroke="#191970" points="429.3845,-153.0372 430.9558,-142.5595 423.1935,-149.7704 429.3845,-153.0372"/>
</g>
<!-- Node2 -->
<g id="node3" class="node">
<title>Node2</title>
<polygon fill="none" stroke="#bfbfbf" points="327.5,-123.5 327.5,-142.5 368.5,-142.5 368.5,-123.5 327.5,-123.5"/>
<text text-anchor="middle" x="348" y="-130.5" font-family="Helvetica,sans-Serif" font-size="10.00" fill="#000000">cpu.h</text>
</g>
<!-- Node1&#45;&gt;Node2 -->
<g id="edge2" class="edge">
<title>Node1&#45;&gt;Node2</title>
<path fill="none" stroke="#191970" d="M348,-179.2455C348,-171.9382 348,-161.6944 348,-152.7046"/>
<polygon fill="#191970" stroke="#191970" points="351.5001,-152.6426 348,-142.6427 344.5001,-152.6427 351.5001,-152.6426"/>
</g>
<!-- Node3 -->
<g id="node4" class="node">
<title>Node3</title>
<g id="a_node4"><a xlink:href="boards_2stm32f4discovery_2include_2periph__conf_8h.html" target="_top" xlink:title="periph_conf.h">
<polygon fill="none" stroke="#000000" points="220.5,-123.5 220.5,-142.5 295.5,-142.5 295.5,-123.5 220.5,-123.5"/>
<text text-anchor="middle" x="258" y="-130.5" font-family="Helvetica,sans-Serif" font-size="10.00" fill="#000000">periph_conf.h</text>
</a>
</g>
</g>
<!-- Node1&#45;&gt;Node3 -->
<g id="edge3" class="edge">
<title>Node1&#45;&gt;Node3</title>
<path fill="none" stroke="#191970" d="M332.3232,-179.2455C318.5144,-170.6534 298.1807,-158.0014 282.2708,-148.1018"/>
<polygon fill="#191970" stroke="#191970" points="283.8368,-144.954 273.4972,-142.6427 280.1387,-150.8974 283.8368,-144.954"/>
</g>
<!-- Node4 -->
<g id="node5" class="node">
<title>Node4</title>
<polygon fill="none" stroke="#bfbfbf" points="265,-6 265,-25 337,-25 337,-6 265,-6"/>
<text text-anchor="middle" x="301" y="-13" font-family="Helvetica,sans-Serif" font-size="10.00" fill="#000000">periph_cpu.h</text>
</g>
<!-- Node3&#45;&gt;Node4 -->
<g id="edge4" class="edge">
<title>Node3&#45;&gt;Node4</title>
<path fill="none" stroke="#191970" d="M260.4805,-123.4764C263.9428,-110.5345 270.6334,-86.7427 278,-67 282.1158,-55.9694 287.439,-43.94 291.9276,-34.2832"/>
<polygon fill="#191970" stroke="#191970" points="295.1026,-35.7561 296.2173,-25.22 288.7756,-32.7613 295.1026,-35.7561"/>
</g>
<!-- Node5 -->
<g id="node6" class="node">
<title>Node5</title>
<g id="a_node6"><a xlink:href="cfg__clock__168__8__0_8h.html" target="_top" xlink:title="Configure STM32F4 clock to 168MHz using PLL and without LSE. ">
<polygon fill="none" stroke="#000000" points="0,-67.5 0,-86.5 120,-86.5 120,-67.5 0,-67.5"/>
<text text-anchor="middle" x="60" y="-74.5" font-family="Helvetica,sans-Serif" font-size="10.00" fill="#000000">f4/cfg_clock_168_8_0.h</text>
</a>
</g>
</g>
<!-- Node3&#45;&gt;Node5 -->
<g id="edge5" class="edge">
<title>Node3&#45;&gt;Node5</title>
<path fill="none" stroke="#191970" d="M223.9626,-123.3733C190.6106,-113.9404 139.6473,-99.5265 103.3998,-89.2747"/>
<polygon fill="#191970" stroke="#191970" points="104.1684,-85.8548 93.5933,-86.5011 102.2632,-92.5906 104.1684,-85.8548"/>
</g>
<!-- Node7 -->
<g id="node8" class="node">
<title>Node7</title>
<g id="a_node8"><a xlink:href="cfg__spi__divtable_8h.html" target="_top" xlink:title="Collection of pre&#45;computed bus pre&#45;scalers for SPI configuration. ">
<polygon fill="none" stroke="#000000" points="286.5,-67.5 286.5,-86.5 381.5,-86.5 381.5,-67.5 286.5,-67.5"/>
<text text-anchor="middle" x="334" y="-74.5" font-family="Helvetica,sans-Serif" font-size="10.00" fill="#000000">cfg_spi_divtable.h</text>
</a>
</g>
</g>
<!-- Node3&#45;&gt;Node7 -->
<g id="edge7" class="edge">
<title>Node3&#45;&gt;Node7</title>
<path fill="none" stroke="#191970" d="M271.2382,-123.2455C282.681,-114.814 299.4296,-102.4729 312.7475,-92.6598"/>
<polygon fill="#191970" stroke="#191970" points="314.9391,-95.3924 320.9135,-86.6427 310.7867,-89.757 314.9391,-95.3924"/>
</g>
<!-- Node8 -->
<g id="node9" class="node">
<title>Node8</title>
<g id="a_node9"><a xlink:href="cfg__usb__otg__fs_8h.html" target="_top" xlink:title="Common configuration for STM32 OTG FS peripheral. ">
<polygon fill="none" stroke="#000000" points="138,-67.5 138,-86.5 230,-86.5 230,-67.5 138,-67.5"/>
<text text-anchor="middle" x="184" y="-74.5" font-family="Helvetica,sans-Serif" font-size="10.00" fill="#000000">cfg_usb_otg_fs.h</text>
</a>
</g>
</g>
<!-- Node3&#45;&gt;Node8 -->
<g id="edge8" class="edge">
<title>Node3&#45;&gt;Node8</title>
<path fill="none" stroke="#191970" d="M245.1102,-123.2455C234.0746,-114.8943 217.9708,-102.7076 205.0647,-92.9408"/>
<polygon fill="#191970" stroke="#191970" points="206.8283,-89.8862 196.7421,-86.6427 202.6041,-95.4681 206.8283,-89.8862"/>
</g>
<!-- Node6 -->
<g id="node7" class="node">
<title>Node6</title>
<g id="a_node7"><a xlink:href="cfg__clock__168__8__common_8h.html" target="_top" xlink:title="Configure STM32F4 clock to 168MHz using PLL. ">
<polygon fill="none" stroke="#000000" points="9.5,-.5 9.5,-30.5 110.5,-30.5 110.5,-.5 9.5,-.5"/>
<text text-anchor="start" x="17.5" y="-18.5" font-family="Helvetica,sans-Serif" font-size="10.00" fill="#000000">f4/cfg_clock_168_8</text>
<text text-anchor="middle" x="60" y="-7.5" font-family="Helvetica,sans-Serif" font-size="10.00" fill="#000000">_common.h</text>
</a>
</g>
</g>
<!-- Node5&#45;&gt;Node6 -->
<g id="edge6" class="edge">
<title>Node5&#45;&gt;Node6</title>
<path fill="none" stroke="#191970" d="M60,-67.3906C60,-60.2234 60,-50.0862 60,-40.671"/>
<polygon fill="#191970" stroke="#191970" points="63.5001,-40.5446 60,-30.5446 56.5001,-40.5446 63.5001,-40.5446"/>
</g>
<!-- Node8&#45;&gt;Node4 -->
<g id="edge9" class="edge">
<title>Node8&#45;&gt;Node4</title>
<path fill="none" stroke="#191970" d="M202.2813,-67.3906C221.5141,-57.2811 251.9879,-41.2628 273.9925,-29.6962"/>
<polygon fill="#191970" stroke="#191970" points="275.624,-32.7928 282.8471,-25.0419 272.367,-26.5967 275.624,-32.7928"/>
</g>
<!-- Node10 -->
<g id="node11" class="node">
<title>Node10</title>
<g id="a_node11"><a xlink:href="gpio_8h.html" target="_top" xlink:title="Low&#45;level GPIO peripheral driver interface definitions. ">
<polygon fill="none" stroke="#000000" points="400,-67.5 400,-86.5 472,-86.5 472,-67.5 400,-67.5"/>
<text text-anchor="middle" x="436" y="-74.5" font-family="Helvetica,sans-Serif" font-size="10.00" fill="#000000">periph/gpio.h</text>
</a>
</g>
</g>
<!-- Node9&#45;&gt;Node10 -->
<g id="edge11" class="edge">
<title>Node9&#45;&gt;Node10</title>
<path fill="none" stroke="#191970" d="M436,-123.2455C436,-115.9382 436,-105.6944 436,-96.7046"/>
<polygon fill="#191970" stroke="#191970" points="439.5001,-96.6426 436,-86.6427 432.5001,-96.6427 439.5001,-96.6426"/>
</g>
<!-- Node13 -->
<g id="node14" class="node">
<title>Node13</title>
<g id="a_node14"><a xlink:href="adc_8h.html" target="_top" xlink:title="Low&#45;level ADC peripheral driver interface definitions. ">
<polygon fill="none" stroke="#000000" points="490,-67.5 490,-86.5 560,-86.5 560,-67.5 490,-67.5"/>
<text text-anchor="middle" x="525" y="-74.5" font-family="Helvetica,sans-Serif" font-size="10.00" fill="#000000">periph/adc.h</text>
</a>
</g>
</g>
<!-- Node9&#45;&gt;Node13 -->
<g id="edge15" class="edge">
<title>Node9&#45;&gt;Node13</title>
<path fill="none" stroke="#191970" d="M451.5026,-123.2455C465.158,-114.6534 485.2657,-102.0014 500.9989,-92.1018"/>
<polygon fill="#191970" stroke="#191970" points="503.0751,-94.9307 509.675,-86.6427 499.3471,-89.006 503.0751,-94.9307"/>
</g>
<!-- Node10&#45;&gt;Node4 -->
<g id="edge13" class="edge">
<title>Node10&#45;&gt;Node4</title>
<path fill="none" stroke="#191970" d="M414.9063,-67.3906C392.4173,-57.1457 356.6082,-40.8326 331.1476,-29.2339"/>
<polygon fill="#191970" stroke="#191970" points="332.4968,-26.0025 321.9456,-25.0419 329.5948,-32.3727 332.4968,-26.0025"/>
</g>
<!-- Node11 -->
<g id="node12" class="node">
<title>Node11</title>
<polygon fill="none" stroke="#bfbfbf" points="492,-6 492,-25 540,-25 540,-6 492,-6"/>
<text text-anchor="middle" x="516" y="-13" font-family="Helvetica,sans-Serif" font-size="10.00" fill="#000000">limits.h</text>
</g>
<!-- Node10&#45;&gt;Node11 -->
<g id="edge12" class="edge">
<title>Node10&#45;&gt;Node11</title>
<path fill="none" stroke="#191970" d="M448.5,-67.3906C461.0636,-57.7324 480.6423,-42.6812 495.4849,-31.271"/>
<polygon fill="#191970" stroke="#191970" points="497.7928,-33.9115 503.5878,-25.0419 493.5265,-28.3618 497.7928,-33.9115"/>
</g>
<!-- Node12 -->
<g id="node13" class="node">
<title>Node12</title>
<polygon fill="none" stroke="#bfbfbf" points="398.5,-6 398.5,-25 473.5,-25 473.5,-6 398.5,-6"/>
<text text-anchor="middle" x="436" y="-13" font-family="Helvetica,sans-Serif" font-size="10.00" fill="#000000">periph_conf.h</text>
</g>
<!-- Node10&#45;&gt;Node12 -->
<g id="edge14" class="edge">
<title>Node10&#45;&gt;Node12</title>
<path fill="none" stroke="#191970" d="M436,-67.3906C436,-58.8657 436,-46.1392 436,-35.4235"/>
<polygon fill="#191970" stroke="#191970" points="439.5001,-35.2448 436,-25.2449 432.5001,-35.2449 439.5001,-35.2448"/>
</g>
<!-- Node13&#45;&gt;Node4 -->
<g id="edge18" class="edge">
<title>Node13&#45;&gt;Node4</title>
<path fill="none" stroke="#191970" d="M490,-67.3906C451.0412,-56.6944 387.9907,-39.3836 345.5429,-27.7294"/>
<polygon fill="#191970" stroke="#191970" points="346.3241,-24.3144 335.7542,-25.0419 344.4707,-31.0646 346.3241,-24.3144"/>
</g>
<!-- Node13&#45;&gt;Node11 -->
<g id="edge16" class="edge">
<title>Node13&#45;&gt;Node11</title>
<path fill="none" stroke="#191970" d="M523.5938,-67.3906C522.3462,-58.8657 520.4838,-46.1392 518.9156,-35.4235"/>
<polygon fill="#191970" stroke="#191970" points="522.3373,-34.6326 517.4261,-25.2449 515.411,-35.6463 522.3373,-34.6326"/>
</g>
<!-- Node13&#45;&gt;Node12 -->
<g id="edge19" class="edge">
<title>Node13&#45;&gt;Node12</title>
<path fill="none" stroke="#191970" d="M511.0938,-67.3906C496.9862,-57.6421 474.9276,-42.3994 458.3615,-30.9521"/>
<polygon fill="#191970" stroke="#191970" points="460.0253,-27.8474 449.8086,-25.0419 456.0458,-33.6063 460.0253,-27.8474"/>
</g>
<!-- Node14 -->
<g id="node15" class="node">
<title>Node14</title>
<polygon fill="none" stroke="#bfbfbf" points="558.5,-6 558.5,-25 607.5,-25 607.5,-6 558.5,-6"/>
<text text-anchor="middle" x="583" y="-13" font-family="Helvetica,sans-Serif" font-size="10.00" fill="#000000">stdint.h</text>
</g>
<!-- Node13&#45;&gt;Node14 -->
<g id="edge17" class="edge">
<title>Node13&#45;&gt;Node14</title>
<path fill="none" stroke="#191970" d="M534.0625,-67.3906C542.7793,-58.1478 556.154,-43.966 566.7196,-32.7628"/>
<polygon fill="#191970" stroke="#191970" points="569.495,-34.9213 573.8097,-25.2449 564.4024,-30.1186 569.495,-34.9213"/>
</g>
</g>
</svg>
