<?xml version="1.0" encoding="UTF-8" standalone="no"?>
<!DOCTYPE svg PUBLIC "-//W3C//DTD SVG 1.1//EN"
 "http://www.w3.org/Graphics/SVG/1.1/DTD/svg11.dtd">
<!-- Generated by graphviz version 2.40.1 (20161225.0304)
 -->
<!-- Title: boards/stm32f429i&#45;disc1/include/gpio_params.h Pages: 1 -->
<svg width="751pt" height="274pt"
 viewBox="0.00 0.00 750.50 274.00" xmlns="http://www.w3.org/2000/svg" xmlns:xlink="http://www.w3.org/1999/xlink">
<g id="graph0" class="graph" transform="scale(1 1) rotate(0) translate(4 270)">
<title>boards/stm32f429i&#45;disc1/include/gpio_params.h</title>
<!-- Node0 -->
<g id="node1" class="node">
<title>Node0</title>
<polygon fill="#bfbfbf" stroke="#000000" points="243.5,-235.5 243.5,-265.5 366.5,-265.5 366.5,-235.5 243.5,-235.5"/>
<text text-anchor="start" x="251.5" y="-253.5" font-family="Helvetica,sans-Serif" font-size="10.00" fill="#000000">boards/stm32f429i&#45;disc1</text>
<text text-anchor="middle" x="305" y="-242.5" font-family="Helvetica,sans-Serif" font-size="10.00" fill="#000000">/include/gpio_params.h</text>
</g>
<!-- Node1 -->
<g id="node2" class="node">
<title>Node1</title>
<g id="a_node2"><a xlink:href="stm32f429i-disc1_2include_2board_8h.html" target="_top" xlink:title="Board specific definitions for the STM32F429I&#45;DISC1 evaluation board. ">
<polygon fill="none" stroke="#000000" points="254.5,-179.5 254.5,-198.5 303.5,-198.5 303.5,-179.5 254.5,-179.5"/>
<text text-anchor="middle" x="279" y="-186.5" font-family="Helvetica,sans-Serif" font-size="10.00" fill="#000000">board.h</text>
</a>
</g>
</g>
<!-- Node0&#45;&gt;Node1 -->
<g id="edge1" class="edge">
<title>Node0&#45;&gt;Node1</title>
<path fill="none" stroke="#191970" d="M298.573,-235.2977C295.1143,-227.1166 290.8133,-216.943 287.1246,-208.2179"/>
<polygon fill="#191970" stroke="#191970" points="290.2807,-206.6947 283.1629,-198.8469 283.8332,-209.4205 290.2807,-206.6947"/>
</g>
<!-- Node10 -->
<g id="node11" class="node">
<title>Node10</title>
<g id="a_node11"><a xlink:href="periph_8h.html" target="_top" xlink:title="Parameter definitions for mapping peripherals directly to SAUL. ">
<polygon fill="none" stroke="#000000" points="522,-123.5 522,-142.5 594,-142.5 594,-123.5 522,-123.5"/>
<text text-anchor="middle" x="558" y="-130.5" font-family="Helvetica,sans-Serif" font-size="10.00" fill="#000000">saul/periph.h</text>
</a>
</g>
</g>
<!-- Node0&#45;&gt;Node10 -->
<g id="edge12" class="edge">
<title>Node0&#45;&gt;Node10</title>
<path fill="none" stroke="#191970" d="M337.2996,-235.4992C386.6523,-212.5785 480.137,-169.1617 528.047,-146.911"/>
<polygon fill="#191970" stroke="#191970" points="529.6754,-150.0138 537.2708,-142.6272 526.7269,-143.6651 529.6754,-150.0138"/>
</g>
<!-- Node2 -->
<g id="node3" class="node">
<title>Node2</title>
<polygon fill="none" stroke="#bfbfbf" points="182.5,-123.5 182.5,-142.5 223.5,-142.5 223.5,-123.5 182.5,-123.5"/>
<text text-anchor="middle" x="203" y="-130.5" font-family="Helvetica,sans-Serif" font-size="10.00" fill="#000000">cpu.h</text>
</g>
<!-- Node1&#45;&gt;Node2 -->
<g id="edge2" class="edge">
<title>Node1&#45;&gt;Node2</title>
<path fill="none" stroke="#191970" d="M265.7618,-179.2455C254.319,-170.814 237.5704,-158.4729 224.2525,-148.6598"/>
<polygon fill="#191970" stroke="#191970" points="226.2133,-145.757 216.0865,-142.6427 222.0609,-151.3924 226.2133,-145.757"/>
</g>
<!-- Node3 -->
<g id="node4" class="node">
<title>Node3</title>
<g id="a_node4"><a xlink:href="boards_2stm32f429i-disc1_2include_2periph__conf_8h.html" target="_top" xlink:title="periph_conf.h">
<polygon fill="none" stroke="#000000" points="241.5,-123.5 241.5,-142.5 316.5,-142.5 316.5,-123.5 241.5,-123.5"/>
<text text-anchor="middle" x="279" y="-130.5" font-family="Helvetica,sans-Serif" font-size="10.00" fill="#000000">periph_conf.h</text>
</a>
</g>
</g>
<!-- Node1&#45;&gt;Node3 -->
<g id="edge3" class="edge">
<title>Node1&#45;&gt;Node3</title>
<path fill="none" stroke="#191970" d="M279,-179.2455C279,-171.9382 279,-161.6944 279,-152.7046"/>
<polygon fill="#191970" stroke="#191970" points="282.5001,-152.6426 279,-142.6427 275.5001,-152.6427 282.5001,-152.6426"/>
</g>
<!-- Node4 -->
<g id="node5" class="node">
<title>Node4</title>
<polygon fill="none" stroke="#bfbfbf" points="414,-6 414,-25 486,-25 486,-6 414,-6"/>
<text text-anchor="middle" x="450" y="-13" font-family="Helvetica,sans-Serif" font-size="10.00" fill="#000000">periph_cpu.h</text>
</g>
<!-- Node3&#45;&gt;Node4 -->
<g id="edge4" class="edge">
<title>Node3&#45;&gt;Node4</title>
<path fill="none" stroke="#191970" d="M244.9937,-123.4467C215.7779,-114.4704 176.9805,-100.4428 168,-87 163.0622,-79.6087 162.3071,-73.8267 168,-67 197.4684,-31.6626 331.4875,-20.5052 403.6518,-17.0335"/>
<polygon fill="#191970" stroke="#191970" points="403.998,-20.5215 413.8303,-16.5751 403.683,-13.5286 403.998,-20.5215"/>
</g>
<!-- Node5 -->
<g id="node6" class="node">
<title>Node5</title>
<g id="a_node6"><a xlink:href="cfg__clock__168__8__1_8h.html" target="_top" xlink:title="Configure STM32F4 clock to 168MHz using PLL with LSE. ">
<polygon fill="none" stroke="#000000" points="0,-67.5 0,-86.5 120,-86.5 120,-67.5 0,-67.5"/>
<text text-anchor="middle" x="60" y="-74.5" font-family="Helvetica,sans-Serif" font-size="10.00" fill="#000000">f4/cfg_clock_168_8_1.h</text>
</a>
</g>
</g>
<!-- Node3&#45;&gt;Node5 -->
<g id="edge5" class="edge">
<title>Node3&#45;&gt;Node5</title>
<path fill="none" stroke="#191970" d="M241.3526,-123.3733C204.148,-113.8598 147.1297,-99.2797 106.9784,-89.0127"/>
<polygon fill="#191970" stroke="#191970" points="107.7116,-85.5877 97.1562,-86.5011 105.9773,-92.3695 107.7116,-85.5877"/>
</g>
<!-- Node7 -->
<g id="node8" class="node">
<title>Node7</title>
<g id="a_node8"><a xlink:href="cfg__spi__divtable_8h.html" target="_top" xlink:title="Collection of pre&#45;computed bus pre&#45;scalers for SPI configuration. ">
<polygon fill="none" stroke="#000000" points="176.5,-67.5 176.5,-86.5 271.5,-86.5 271.5,-67.5 176.5,-67.5"/>
<text text-anchor="middle" x="224" y="-74.5" font-family="Helvetica,sans-Serif" font-size="10.00" fill="#000000">cfg_spi_divtable.h</text>
</a>
</g>
</g>
<!-- Node3&#45;&gt;Node7 -->
<g id="edge7" class="edge">
<title>Node3&#45;&gt;Node7</title>
<path fill="none" stroke="#191970" d="M269.4197,-123.2455C261.4542,-115.1352 249.9359,-103.4075 240.4921,-93.7919"/>
<polygon fill="#191970" stroke="#191970" points="242.9747,-91.3247 233.4705,-86.6427 237.9805,-96.2297 242.9747,-91.3247"/>
</g>
<!-- Node8 -->
<g id="node9" class="node">
<title>Node8</title>
<g id="a_node9"><a xlink:href="cfg__timer__tim5_8h.html" target="_top" xlink:title="Common configuration for STM32 Timer peripheral based on TIM5. ">
<polygon fill="none" stroke="#000000" points="289.5,-67.5 289.5,-86.5 378.5,-86.5 378.5,-67.5 289.5,-67.5"/>
<text text-anchor="middle" x="334" y="-74.5" font-family="Helvetica,sans-Serif" font-size="10.00" fill="#000000">cfg_timer_tim5.h</text>
</a>
</g>
</g>
<!-- Node3&#45;&gt;Node8 -->
<g id="edge8" class="edge">
<title>Node3&#45;&gt;Node8</title>
<path fill="none" stroke="#191970" d="M288.5803,-123.2455C296.5458,-115.1352 308.0641,-103.4075 317.5079,-93.7919"/>
<polygon fill="#191970" stroke="#191970" points="320.0195,-96.2297 324.5295,-86.6427 315.0253,-91.3247 320.0195,-96.2297"/>
</g>
<!-- Node9 -->
<g id="node10" class="node">
<title>Node9</title>
<g id="a_node10"><a xlink:href="cfg__usb__otg__hs__fs_8h.html" target="_top" xlink:title="Common configuration for STM32 OTG HS peripheral with FS phy. ">
<polygon fill="none" stroke="#000000" points="396.5,-67.5 396.5,-86.5 503.5,-86.5 503.5,-67.5 396.5,-67.5"/>
<text text-anchor="middle" x="450" y="-74.5" font-family="Helvetica,sans-Serif" font-size="10.00" fill="#000000">cfg_usb_otg_hs_fs.h</text>
</a>
</g>
</g>
<!-- Node3&#45;&gt;Node9 -->
<g id="edge10" class="edge">
<title>Node3&#45;&gt;Node9</title>
<path fill="none" stroke="#191970" d="M308.3959,-123.3733C336.8307,-114.0613 380.0877,-99.8953 411.3081,-89.671"/>
<polygon fill="#191970" stroke="#191970" points="412.5736,-92.9396 420.9876,-86.5011 410.395,-86.2872 412.5736,-92.9396"/>
</g>
<!-- Node6 -->
<g id="node7" class="node">
<title>Node6</title>
<g id="a_node7"><a xlink:href="cfg__clock__168__8__common_8h.html" target="_top" xlink:title="Configure STM32F4 clock to 168MHz using PLL. ">
<polygon fill="none" stroke="#000000" points="9.5,-.5 9.5,-30.5 110.5,-30.5 110.5,-.5 9.5,-.5"/>
<text text-anchor="start" x="17.5" y="-18.5" font-family="Helvetica,sans-Serif" font-size="10.00" fill="#000000">f4/cfg_clock_168_8</text>
<text text-anchor="middle" x="60" y="-7.5" font-family="Helvetica,sans-Serif" font-size="10.00" fill="#000000">_common.h</text>
</a>
</g>
</g>
<!-- Node5&#45;&gt;Node6 -->
<g id="edge6" class="edge">
<title>Node5&#45;&gt;Node6</title>
<path fill="none" stroke="#191970" d="M60,-67.3906C60,-60.2234 60,-50.0862 60,-40.671"/>
<polygon fill="#191970" stroke="#191970" points="63.5001,-40.5446 60,-30.5446 56.5001,-40.5446 63.5001,-40.5446"/>
</g>
<!-- Node8&#45;&gt;Node4 -->
<g id="edge9" class="edge">
<title>Node8&#45;&gt;Node4</title>
<path fill="none" stroke="#191970" d="M352.125,-67.3906C371.1083,-57.3262 401.1373,-41.4057 422.9307,-29.8514"/>
<polygon fill="#191970" stroke="#191970" points="424.8066,-32.8184 432.0023,-25.0419 421.5277,-26.6338 424.8066,-32.8184"/>
</g>
<!-- Node9&#45;&gt;Node4 -->
<g id="edge11" class="edge">
<title>Node9&#45;&gt;Node4</title>
<path fill="none" stroke="#191970" d="M450,-67.3906C450,-58.8657 450,-46.1392 450,-35.4235"/>
<polygon fill="#191970" stroke="#191970" points="453.5001,-35.2448 450,-25.2449 446.5001,-35.2449 453.5001,-35.2448"/>
</g>
<!-- Node11 -->
<g id="node12" class="node">
<title>Node11</title>
<g id="a_node12"><a xlink:href="gpio_8h.html" target="_top" xlink:title="Low&#45;level GPIO peripheral driver interface definitions. ">
<polygon fill="none" stroke="#000000" points="522,-67.5 522,-86.5 594,-86.5 594,-67.5 522,-67.5"/>
<text text-anchor="middle" x="558" y="-74.5" font-family="Helvetica,sans-Serif" font-size="10.00" fill="#000000">periph/gpio.h</text>
</a>
</g>
</g>
<!-- Node10&#45;&gt;Node11 -->
<g id="edge13" class="edge">
<title>Node10&#45;&gt;Node11</title>
<path fill="none" stroke="#191970" d="M558,-123.2455C558,-115.9382 558,-105.6944 558,-96.7046"/>
<polygon fill="#191970" stroke="#191970" points="561.5001,-96.6426 558,-86.6427 554.5001,-96.6427 561.5001,-96.6426"/>
</g>
<!-- Node14 -->
<g id="node15" class="node">
<title>Node14</title>
<g id="a_node15"><a xlink:href="adc_8h.html" target="_top" xlink:title="Low&#45;level ADC peripheral driver interface definitions. ">
<polygon fill="none" stroke="#000000" points="612,-67.5 612,-86.5 682,-86.5 682,-67.5 612,-67.5"/>
<text text-anchor="middle" x="647" y="-74.5" font-family="Helvetica,sans-Serif" font-size="10.00" fill="#000000">periph/adc.h</text>
</a>
</g>
</g>
<!-- Node10&#45;&gt;Node14 -->
<g id="edge17" class="edge">
<title>Node10&#45;&gt;Node14</title>
<path fill="none" stroke="#191970" d="M573.5026,-123.2455C587.158,-114.6534 607.2657,-102.0014 622.9989,-92.1018"/>
<polygon fill="#191970" stroke="#191970" points="625.0751,-94.9307 631.675,-86.6427 621.3471,-89.006 625.0751,-94.9307"/>
</g>
<!-- Node11&#45;&gt;Node4 -->
<g id="edge15" class="edge">
<title>Node11&#45;&gt;Node4</title>
<path fill="none" stroke="#191970" d="M541.125,-67.3906C523.5302,-57.3713 495.7434,-41.5483 475.4759,-30.0071"/>
<polygon fill="#191970" stroke="#191970" points="477.1783,-26.9489 466.7565,-25.0419 473.7144,-33.0318 477.1783,-26.9489"/>
</g>
<!-- Node12 -->
<g id="node13" class="node">
<title>Node12</title>
<polygon fill="none" stroke="#bfbfbf" points="534,-6 534,-25 582,-25 582,-6 534,-6"/>
<text text-anchor="middle" x="558" y="-13" font-family="Helvetica,sans-Serif" font-size="10.00" fill="#000000">limits.h</text>
</g>
<!-- Node11&#45;&gt;Node12 -->
<g id="edge14" class="edge">
<title>Node11&#45;&gt;Node12</title>
<path fill="none" stroke="#191970" d="M558,-67.3906C558,-58.8657 558,-46.1392 558,-35.4235"/>
<polygon fill="#191970" stroke="#191970" points="561.5001,-35.2448 558,-25.2449 554.5001,-35.2449 561.5001,-35.2448"/>
</g>
<!-- Node13 -->
<g id="node14" class="node">
<title>Node13</title>
<polygon fill="none" stroke="#bfbfbf" points="600.5,-6 600.5,-25 675.5,-25 675.5,-6 600.5,-6"/>
<text text-anchor="middle" x="638" y="-13" font-family="Helvetica,sans-Serif" font-size="10.00" fill="#000000">periph_conf.h</text>
</g>
<!-- Node11&#45;&gt;Node13 -->
<g id="edge16" class="edge">
<title>Node11&#45;&gt;Node13</title>
<path fill="none" stroke="#191970" d="M570.5,-67.3906C583.0636,-57.7324 602.6423,-42.6812 617.4849,-31.271"/>
<polygon fill="#191970" stroke="#191970" points="619.7928,-33.9115 625.5878,-25.0419 615.5265,-28.3618 619.7928,-33.9115"/>
</g>
<!-- Node14&#45;&gt;Node4 -->
<g id="edge20" class="edge">
<title>Node14&#45;&gt;Node4</title>
<path fill="none" stroke="#191970" d="M616.2188,-67.3906C582.2451,-56.7846 527.4396,-39.6753 490.1228,-28.0257"/>
<polygon fill="#191970" stroke="#191970" points="491.1538,-24.681 480.5651,-25.0419 489.0677,-31.3629 491.1538,-24.681"/>
</g>
<!-- Node14&#45;&gt;Node12 -->
<g id="edge18" class="edge">
<title>Node14&#45;&gt;Node12</title>
<path fill="none" stroke="#191970" d="M633.0938,-67.3906C618.9862,-57.6421 596.9276,-42.3994 580.3615,-30.9521"/>
<polygon fill="#191970" stroke="#191970" points="582.0253,-27.8474 571.8086,-25.0419 578.0458,-33.6063 582.0253,-27.8474"/>
</g>
<!-- Node14&#45;&gt;Node13 -->
<g id="edge21" class="edge">
<title>Node14&#45;&gt;Node13</title>
<path fill="none" stroke="#191970" d="M645.5938,-67.3906C644.3462,-58.8657 642.4838,-46.1392 640.9156,-35.4235"/>
<polygon fill="#191970" stroke="#191970" points="644.3373,-34.6326 639.4261,-25.2449 637.411,-35.6463 644.3373,-34.6326"/>
</g>
<!-- Node15 -->
<g id="node16" class="node">
<title>Node15</title>
<polygon fill="none" stroke="#bfbfbf" points="693.5,-6 693.5,-25 742.5,-25 742.5,-6 693.5,-6"/>
<text text-anchor="middle" x="718" y="-13" font-family="Helvetica,sans-Serif" font-size="10.00" fill="#000000">stdint.h</text>
</g>
<!-- Node14&#45;&gt;Node15 -->
<g id="edge19" class="edge">
<title>Node14&#45;&gt;Node15</title>
<path fill="none" stroke="#191970" d="M658.0938,-67.3906C668.9715,-57.9683 685.7748,-43.4134 698.82,-32.1137"/>
<polygon fill="#191970" stroke="#191970" points="701.4827,-34.4377 706.7498,-25.2449 696.8996,-29.1466 701.4827,-34.4377"/>
</g>
</g>
</svg>
