<?xml version="1.0" encoding="UTF-8" standalone="no"?>
<!DOCTYPE svg PUBLIC "-//W3C//DTD SVG 1.1//EN"
 "http://www.w3.org/Graphics/SVG/1.1/DTD/svg11.dtd">
<!-- Generated by graphviz version 2.43.0 (0)
 -->
<!-- Title: boards/stm32mp157c&#45;dk2/include/board.h Pages: 1 -->
<svg width="262pt" height="207pt"
 viewBox="0.00 0.00 261.50 207.00" xmlns="http://www.w3.org/2000/svg" xmlns:xlink="http://www.w3.org/1999/xlink">
<g id="graph0" class="graph" transform="scale(1 1) rotate(0) translate(4 203)">
<title>boards/stm32mp157c&#45;dk2/include/board.h</title>
<!-- Node1 -->
<g id="node1" class="node">
<title>Node1</title>
<g id="a_node1"><a xlink:title="Board specific definitions for the STM32MP157C&#45;DK2 board.">
<polygon fill="#bfbfbf" stroke="black" points="0.5,-168.5 0.5,-198.5 122.5,-198.5 122.5,-168.5 0.5,-168.5"/>
<text text-anchor="start" x="8.5" y="-186.5" font-family="Helvetica,sans-Serif" font-size="10.00">boards/stm32mp157c</text>
<text text-anchor="middle" x="61.5" y="-175.5" font-family="Helvetica,sans-Serif" font-size="10.00">&#45;dk2/include/board.h</text>
</a>
</g>
</g>
<!-- Node2 -->
<g id="node2" class="node">
<title>Node2</title>
<g id="a_node2"><a xlink:title=" ">
<polygon fill="none" stroke="#bfbfbf" points="0,-112.5 0,-131.5 43,-131.5 43,-112.5 0,-112.5"/>
<text text-anchor="middle" x="21.5" y="-119.5" font-family="Helvetica,sans-Serif" font-size="10.00">cpu.h</text>
</a>
</g>
</g>
<!-- Node1&#45;&gt;Node2 -->
<g id="edge1" class="edge">
<title>Node1&#45;&gt;Node2</title>
<path fill="none" stroke="midnightblue" d="M52.02,-168.4C46.33,-159.93 39.05,-149.1 33.02,-140.14"/>
<polygon fill="midnightblue" stroke="midnightblue" points="35.8,-138 27.32,-131.66 29.99,-141.91 35.8,-138"/>
</g>
<!-- Node3 -->
<g id="node3" class="node">
<title>Node3</title>
<g id="a_node3"><a xlink:href="boards_2stm32mp157c-dk2_2include_2periph__conf_8h.html" target="_top" xlink:title="Board specific implementations for the STM32MP157C&#45;DK2 board.">
<polygon fill="none" stroke="black" points="61.5,-112.5 61.5,-131.5 143.5,-131.5 143.5,-112.5 61.5,-112.5"/>
<text text-anchor="middle" x="102.5" y="-119.5" font-family="Helvetica,sans-Serif" font-size="10.00">periph_conf.h</text>
</a>
</g>
</g>
<!-- Node1&#45;&gt;Node3 -->
<g id="edge2" class="edge">
<title>Node1&#45;&gt;Node3</title>
<path fill="none" stroke="midnightblue" d="M71.22,-168.4C77.05,-159.93 84.52,-149.1 90.69,-140.14"/>
<polygon fill="midnightblue" stroke="midnightblue" points="93.74,-141.88 96.53,-131.66 87.98,-137.91 93.74,-141.88"/>
</g>
<!-- Node4 -->
<g id="node4" class="node">
<title>Node4</title>
<g id="a_node4"><a xlink:title=" ">
<polygon fill="none" stroke="#bfbfbf" points="83,-0.5 83,-19.5 162,-19.5 162,-0.5 83,-0.5"/>
<text text-anchor="middle" x="122.5" y="-7.5" font-family="Helvetica,sans-Serif" font-size="10.00">periph_cpu.h</text>
</a>
</g>
</g>
<!-- Node3&#45;&gt;Node4 -->
<g id="edge3" class="edge">
<title>Node3&#45;&gt;Node4</title>
<path fill="none" stroke="midnightblue" d="M89.88,-112.3C73.91,-100.15 49.7,-77.19 60.5,-56 67.5,-42.27 80.87,-31.75 93.4,-24.35"/>
<polygon fill="midnightblue" stroke="midnightblue" points="95.17,-27.37 102.28,-19.51 91.82,-21.22 95.17,-27.37"/>
</g>
<!-- Node5 -->
<g id="node5" class="node">
<title>Node5</title>
<g id="a_node5"><a xlink:title=" ">
<polygon fill="none" stroke="#bfbfbf" points="70,-56.5 70,-75.5 135,-75.5 135,-56.5 70,-56.5"/>
<text text-anchor="middle" x="102.5" y="-63.5" font-family="Helvetica,sans-Serif" font-size="10.00">clk_conf.h</text>
</a>
</g>
</g>
<!-- Node3&#45;&gt;Node5 -->
<g id="edge4" class="edge">
<title>Node3&#45;&gt;Node5</title>
<path fill="none" stroke="midnightblue" d="M102.5,-112.08C102.5,-105.01 102.5,-94.86 102.5,-85.99"/>
<polygon fill="midnightblue" stroke="midnightblue" points="106,-85.75 102.5,-75.75 99,-85.75 106,-85.75"/>
</g>
<!-- Node6 -->
<g id="node6" class="node">
<title>Node6</title>
<g id="a_node6"><a xlink:href="cfg__timer__tim2_8h.html" target="_top" xlink:title="Common configuration for STM32 Timer peripheral based on TIM2.">
<polygon fill="none" stroke="black" points="153.5,-56.5 153.5,-75.5 253.5,-75.5 253.5,-56.5 153.5,-56.5"/>
<text text-anchor="middle" x="203.5" y="-63.5" font-family="Helvetica,sans-Serif" font-size="10.00">cfg_timer_tim2.h</text>
</a>
</g>
</g>
<!-- Node3&#45;&gt;Node6 -->
<g id="edge5" class="edge">
<title>Node3&#45;&gt;Node6</title>
<path fill="none" stroke="midnightblue" d="M118.73,-112.32C134.85,-103.7 159.8,-90.36 178.46,-80.39"/>
<polygon fill="midnightblue" stroke="midnightblue" points="180.14,-83.46 187.31,-75.65 176.84,-77.28 180.14,-83.46"/>
</g>
<!-- Node6&#45;&gt;Node4 -->
<g id="edge6" class="edge">
<title>Node6&#45;&gt;Node4</title>
<path fill="none" stroke="midnightblue" d="M190.49,-56.32C177.97,-47.98 158.82,-35.21 144.03,-25.35"/>
<polygon fill="midnightblue" stroke="midnightblue" points="145.74,-22.29 135.48,-19.65 141.86,-28.11 145.74,-22.29"/>
</g>
</g>
</svg>
