<?xml version="1.0" encoding="UTF-8" standalone="no"?>
<!DOCTYPE svg PUBLIC "-//W3C//DTD SVG 1.1//EN"
 "http://www.w3.org/Graphics/SVG/1.1/DTD/svg11.dtd">
<!-- Generated by graphviz version 2.43.0 (0)
 -->
<!-- Title: boards/stm32f723e&#45;disco/include/gpio_params.h Pages: 1 -->
<svg width="798pt" height="274pt"
 viewBox="0.00 0.00 797.50 274.00" xmlns="http://www.w3.org/2000/svg" xmlns:xlink="http://www.w3.org/1999/xlink">
<g id="graph0" class="graph" transform="scale(1 1) rotate(0) translate(4 270)">
<title>boards/stm32f723e&#45;disco/include/gpio_params.h</title>
<!-- Node1 -->
<g id="node1" class="node">
<title>Node1</title>
<g id="a_node1"><a xlink:title="Board specific configuration of direct mapped GPIOs.">
<polygon fill="#bfbfbf" stroke="black" points="287,-235.5 287,-265.5 427,-265.5 427,-235.5 287,-235.5"/>
<text text-anchor="start" x="295" y="-253.5" font-family="Helvetica,sans-Serif" font-size="10.00">boards/stm32f723e&#45;disco</text>
<text text-anchor="middle" x="357" y="-242.5" font-family="Helvetica,sans-Serif" font-size="10.00">/include/gpio_params.h</text>
</a>
</g>
</g>
<!-- Node2 -->
<g id="node2" class="node">
<title>Node2</title>
<g id="a_node2"><a xlink:href="stm32f723e-disco_2include_2board_8h.html" target="_top" xlink:title="Board specific definitions for the STM32F723E&#45;DISCO board.">
<polygon fill="none" stroke="black" points="303.5,-179.5 303.5,-198.5 356.5,-198.5 356.5,-179.5 303.5,-179.5"/>
<text text-anchor="middle" x="330" y="-186.5" font-family="Helvetica,sans-Serif" font-size="10.00">board.h</text>
</a>
</g>
</g>
<!-- Node1&#45;&gt;Node2 -->
<g id="edge1" class="edge">
<title>Node1&#45;&gt;Node2</title>
<path fill="none" stroke="midnightblue" d="M350.6,-235.4C346.88,-227.2 342.15,-216.78 338.17,-207.99"/>
<polygon fill="midnightblue" stroke="midnightblue" points="341.25,-206.32 333.93,-198.66 334.87,-209.21 341.25,-206.32"/>
</g>
<!-- Node11 -->
<g id="node11" class="node">
<title>Node11</title>
<g id="a_node11"><a xlink:href="periph_8h.html" target="_top" xlink:title="Parameter definitions for mapping peripherals directly to SAUL.">
<polygon fill="none" stroke="black" points="561,-123.5 561,-142.5 641,-142.5 641,-123.5 561,-123.5"/>
<text text-anchor="middle" x="601" y="-130.5" font-family="Helvetica,sans-Serif" font-size="10.00">saul/periph.h</text>
</a>
</g>
</g>
<!-- Node1&#45;&gt;Node11 -->
<g id="edge11" class="edge">
<title>Node1&#45;&gt;Node11</title>
<path fill="none" stroke="midnightblue" d="M386.92,-235.34C434.8,-212.67 527.91,-168.6 573.93,-146.82"/>
<polygon fill="midnightblue" stroke="midnightblue" points="575.46,-149.96 583,-142.52 572.46,-143.64 575.46,-149.96"/>
</g>
<!-- Node3 -->
<g id="node3" class="node">
<title>Node3</title>
<g id="a_node3"><a xlink:title=" ">
<polygon fill="none" stroke="#bfbfbf" points="227.5,-123.5 227.5,-142.5 270.5,-142.5 270.5,-123.5 227.5,-123.5"/>
<text text-anchor="middle" x="249" y="-130.5" font-family="Helvetica,sans-Serif" font-size="10.00">cpu.h</text>
</a>
</g>
</g>
<!-- Node2&#45;&gt;Node3 -->
<g id="edge2" class="edge">
<title>Node2&#45;&gt;Node3</title>
<path fill="none" stroke="midnightblue" d="M316.99,-179.32C304.47,-170.98 285.32,-158.21 270.53,-148.35"/>
<polygon fill="midnightblue" stroke="midnightblue" points="272.24,-145.29 261.98,-142.65 268.36,-151.11 272.24,-145.29"/>
</g>
<!-- Node4 -->
<g id="node4" class="node">
<title>Node4</title>
<g id="a_node4"><a xlink:href="boards_2stm32f723e-disco_2include_2periph__conf_8h.html" target="_top" xlink:title="Peripheral MCU configuration for the STM32F723E&#45;DISCO board.">
<polygon fill="none" stroke="black" points="289,-123.5 289,-142.5 371,-142.5 371,-123.5 289,-123.5"/>
<text text-anchor="middle" x="330" y="-130.5" font-family="Helvetica,sans-Serif" font-size="10.00">periph_conf.h</text>
</a>
</g>
</g>
<!-- Node2&#45;&gt;Node4 -->
<g id="edge3" class="edge">
<title>Node2&#45;&gt;Node4</title>
<path fill="none" stroke="midnightblue" d="M330,-179.08C330,-172.01 330,-161.86 330,-152.99"/>
<polygon fill="midnightblue" stroke="midnightblue" points="333.5,-152.75 330,-142.75 326.5,-152.75 333.5,-152.75"/>
</g>
<!-- Node5 -->
<g id="node5" class="node">
<title>Node5</title>
<g id="a_node5"><a xlink:title=" ">
<polygon fill="none" stroke="#bfbfbf" points="452.5,-0.5 452.5,-19.5 531.5,-19.5 531.5,-0.5 452.5,-0.5"/>
<text text-anchor="middle" x="492" y="-7.5" font-family="Helvetica,sans-Serif" font-size="10.00">periph_cpu.h</text>
</a>
</g>
</g>
<!-- Node4&#45;&gt;Node5 -->
<g id="edge4" class="edge">
<title>Node4&#45;&gt;Node5</title>
<path fill="none" stroke="midnightblue" d="M311.92,-123.39C298.44,-115.87 281.03,-103.57 273,-87 266.99,-74.6 264.29,-66.68 273,-56 293.94,-30.32 384.37,-18.88 442.28,-14.1"/>
<polygon fill="midnightblue" stroke="midnightblue" points="442.64,-17.59 452.34,-13.31 442.1,-10.61 442.64,-17.59"/>
</g>
<!-- Node6 -->
<g id="node6" class="node">
<title>Node6</title>
<g id="a_node6"><a xlink:href="cfg__clock__default__216_8h.html" target="_top" xlink:title="Default STM32F7 clock configuration for 216MHz boards.">
<polygon fill="none" stroke="black" points="91,-56.5 91,-86.5 225,-86.5 225,-56.5 91,-56.5"/>
<text text-anchor="start" x="99" y="-74.5" font-family="Helvetica,sans-Serif" font-size="10.00">f2f4f7/cfg_clock_default</text>
<text text-anchor="middle" x="158" y="-63.5" font-family="Helvetica,sans-Serif" font-size="10.00">_216.h</text>
</a>
</g>
</g>
<!-- Node4&#45;&gt;Node6 -->
<g id="edge5" class="edge">
<title>Node4&#45;&gt;Node6</title>
<path fill="none" stroke="midnightblue" d="M305.36,-123.48C280.1,-114.74 240.12,-100.91 208.17,-89.86"/>
<polygon fill="midnightblue" stroke="midnightblue" points="209.13,-86.48 198.54,-86.52 206.84,-93.1 209.13,-86.48"/>
</g>
<!-- Node9 -->
<g id="node9" class="node">
<title>Node9</title>
<g id="a_node9"><a xlink:title=" ">
<polygon fill="none" stroke="#bfbfbf" points="281.5,-62 281.5,-81 378.5,-81 378.5,-62 281.5,-62"/>
<text text-anchor="middle" x="330" y="-69" font-family="Helvetica,sans-Serif" font-size="10.00">cfg_rtt_default.h</text>
</a>
</g>
</g>
<!-- Node4&#45;&gt;Node9 -->
<g id="edge8" class="edge">
<title>Node4&#45;&gt;Node9</title>
<path fill="none" stroke="midnightblue" d="M330,-123.48C330,-115.08 330,-101.98 330,-91.16"/>
<polygon fill="midnightblue" stroke="midnightblue" points="333.5,-91.01 330,-81.01 326.5,-91.01 333.5,-91.01"/>
</g>
<!-- Node10 -->
<g id="node10" class="node">
<title>Node10</title>
<g id="a_node10"><a xlink:href="cfg__usb__otg__fs_8h.html" target="_top" xlink:title="Common configuration for STM32 OTG FS peripheral.">
<polygon fill="none" stroke="black" points="397,-62 397,-81 495,-81 495,-62 397,-62"/>
<text text-anchor="middle" x="446" y="-69" font-family="Helvetica,sans-Serif" font-size="10.00">cfg_usb_otg_fs.h</text>
</a>
</g>
</g>
<!-- Node4&#45;&gt;Node10 -->
<g id="edge9" class="edge">
<title>Node4&#45;&gt;Node10</title>
<path fill="none" stroke="midnightblue" d="M346.62,-123.48C365.92,-113.58 397.96,-97.14 420.43,-85.62"/>
<polygon fill="midnightblue" stroke="midnightblue" points="422.11,-88.69 429.41,-81.01 418.92,-82.46 422.11,-88.69"/>
</g>
<!-- Node7 -->
<g id="node7" class="node">
<title>Node7</title>
<g id="a_node7"><a xlink:href="f2f4f7_2cfg__clock__common_8h.html" target="_top" xlink:title="Base STM32F4 clock configuration.">
<polygon fill="none" stroke="black" points="0,-0.5 0,-19.5 152,-19.5 152,-0.5 0,-0.5"/>
<text text-anchor="middle" x="76" y="-7.5" font-family="Helvetica,sans-Serif" font-size="10.00">f2f4f7/cfg_clock_common.h</text>
</a>
</g>
</g>
<!-- Node6&#45;&gt;Node7 -->
<g id="edge6" class="edge">
<title>Node6&#45;&gt;Node7</title>
<path fill="none" stroke="midnightblue" d="M138.57,-56.4C125.79,-47.13 109.11,-35.03 96.19,-25.65"/>
<polygon fill="midnightblue" stroke="midnightblue" points="98.08,-22.7 87.93,-19.66 93.97,-28.36 98.08,-22.7"/>
</g>
<!-- Node8 -->
<g id="node8" class="node">
<title>Node8</title>
<g id="a_node8"><a xlink:href="f2f4f7_2cfg__clock__values_8h.html" target="_top" xlink:title="STM32F4 clock values definitions.">
<polygon fill="none" stroke="black" points="170.5,-0.5 170.5,-19.5 311.5,-19.5 311.5,-0.5 170.5,-0.5"/>
<text text-anchor="middle" x="241" y="-7.5" font-family="Helvetica,sans-Serif" font-size="10.00">f2f4f7/cfg_clock_values.h</text>
</a>
</g>
</g>
<!-- Node6&#45;&gt;Node8 -->
<g id="edge7" class="edge">
<title>Node6&#45;&gt;Node8</title>
<path fill="none" stroke="midnightblue" d="M177.67,-56.4C190.6,-47.13 207.49,-35.03 220.57,-25.65"/>
<polygon fill="midnightblue" stroke="midnightblue" points="222.83,-28.33 228.92,-19.66 218.76,-22.64 222.83,-28.33"/>
</g>
<!-- Node10&#45;&gt;Node5 -->
<g id="edge10" class="edge">
<title>Node10&#45;&gt;Node5</title>
<path fill="none" stroke="midnightblue" d="M452.59,-61.98C459.49,-53.05 470.5,-38.81 479.13,-27.64"/>
<polygon fill="midnightblue" stroke="midnightblue" points="482.07,-29.56 485.42,-19.51 476.54,-25.28 482.07,-29.56"/>
</g>
<!-- Node12 -->
<g id="node12" class="node">
<title>Node12</title>
<g id="a_node12"><a xlink:href="gpio_8h.html" target="_top" xlink:title="Low&#45;level GPIO peripheral driver interface definitions.">
<polygon fill="none" stroke="black" points="513,-62 513,-81 593,-81 593,-62 513,-62"/>
<text text-anchor="middle" x="553" y="-69" font-family="Helvetica,sans-Serif" font-size="10.00">periph/gpio.h</text>
</a>
</g>
</g>
<!-- Node11&#45;&gt;Node12 -->
<g id="edge12" class="edge">
<title>Node11&#45;&gt;Node12</title>
<path fill="none" stroke="midnightblue" d="M594.12,-123.48C586.85,-114.46 575.2,-100.02 566.16,-88.81"/>
<polygon fill="midnightblue" stroke="midnightblue" points="568.87,-86.59 559.86,-81.01 563.42,-90.99 568.87,-86.59"/>
</g>
<!-- Node15 -->
<g id="node15" class="node">
<title>Node15</title>
<g id="a_node15"><a xlink:href="adc_8h.html" target="_top" xlink:title="Low&#45;level ADC peripheral driver interface definitions.">
<polygon fill="none" stroke="black" points="611.5,-62 611.5,-81 688.5,-81 688.5,-62 611.5,-62"/>
<text text-anchor="middle" x="650" y="-69" font-family="Helvetica,sans-Serif" font-size="10.00">periph/adc.h</text>
</a>
</g>
</g>
<!-- Node11&#45;&gt;Node15 -->
<g id="edge16" class="edge">
<title>Node11&#45;&gt;Node15</title>
<path fill="none" stroke="midnightblue" d="M608.02,-123.48C615.44,-114.46 627.33,-100.02 636.57,-88.81"/>
<polygon fill="midnightblue" stroke="midnightblue" points="639.34,-90.95 642.99,-81.01 633.93,-86.5 639.34,-90.95"/>
</g>
<!-- Node17 -->
<g id="node17" class="node">
<title>Node17</title>
<g id="a_node17"><a xlink:href="pwm_8h.html" target="_top" xlink:title="Low&#45;level PWM peripheral driver interface definitions.">
<polygon fill="none" stroke="black" points="706.5,-62 706.5,-81 789.5,-81 789.5,-62 706.5,-62"/>
<text text-anchor="middle" x="748" y="-69" font-family="Helvetica,sans-Serif" font-size="10.00">periph/pwm.h</text>
</a>
</g>
</g>
<!-- Node11&#45;&gt;Node17 -->
<g id="edge21" class="edge">
<title>Node11&#45;&gt;Node17</title>
<path fill="none" stroke="midnightblue" d="M622.06,-123.48C647.06,-113.36 688.94,-96.4 717.49,-84.85"/>
<polygon fill="midnightblue" stroke="midnightblue" points="719.02,-88.01 726.98,-81.01 716.39,-81.52 719.02,-88.01"/>
</g>
<!-- Node12&#45;&gt;Node5 -->
<g id="edge14" class="edge">
<title>Node12&#45;&gt;Node5</title>
<path fill="none" stroke="midnightblue" d="M544.26,-61.98C534.84,-52.78 519.64,-37.96 508.05,-26.66"/>
<polygon fill="midnightblue" stroke="midnightblue" points="510.33,-23.99 500.72,-19.51 505.44,-29 510.33,-23.99"/>
</g>
<!-- Node13 -->
<g id="node13" class="node">
<title>Node13</title>
<g id="a_node13"><a xlink:title=" ">
<polygon fill="none" stroke="#bfbfbf" points="549.5,-0.5 549.5,-19.5 602.5,-19.5 602.5,-0.5 549.5,-0.5"/>
<text text-anchor="middle" x="576" y="-7.5" font-family="Helvetica,sans-Serif" font-size="10.00">limits.h</text>
</a>
</g>
</g>
<!-- Node12&#45;&gt;Node13 -->
<g id="edge13" class="edge">
<title>Node12&#45;&gt;Node13</title>
<path fill="none" stroke="midnightblue" d="M556.3,-61.98C559.61,-53.4 564.82,-39.93 569.05,-28.98"/>
<polygon fill="midnightblue" stroke="midnightblue" points="572.37,-30.1 572.71,-19.51 565.84,-27.57 572.37,-30.1"/>
</g>
<!-- Node14 -->
<g id="node14" class="node">
<title>Node14</title>
<g id="a_node14"><a xlink:title=" ">
<polygon fill="none" stroke="#bfbfbf" points="621,-0.5 621,-19.5 703,-19.5 703,-0.5 621,-0.5"/>
<text text-anchor="middle" x="662" y="-7.5" font-family="Helvetica,sans-Serif" font-size="10.00">periph_conf.h</text>
</a>
</g>
</g>
<!-- Node12&#45;&gt;Node14 -->
<g id="edge15" class="edge">
<title>Node12&#45;&gt;Node14</title>
<path fill="none" stroke="midnightblue" d="M568.62,-61.98C586.59,-52.17 616.32,-35.93 637.41,-24.42"/>
<polygon fill="midnightblue" stroke="midnightblue" points="639.31,-27.37 646.41,-19.51 635.96,-21.23 639.31,-27.37"/>
</g>
<!-- Node15&#45;&gt;Node5 -->
<g id="edge19" class="edge">
<title>Node15&#45;&gt;Node5</title>
<path fill="none" stroke="midnightblue" d="M627.36,-61.98C600.26,-51.77 554.69,-34.61 524,-23.05"/>
<polygon fill="midnightblue" stroke="midnightblue" points="525.19,-19.76 514.6,-19.51 522.72,-26.31 525.19,-19.76"/>
</g>
<!-- Node15&#45;&gt;Node13 -->
<g id="edge17" class="edge">
<title>Node15&#45;&gt;Node13</title>
<path fill="none" stroke="midnightblue" d="M639.4,-61.98C627.75,-52.61 608.81,-37.38 594.67,-26.01"/>
<polygon fill="midnightblue" stroke="midnightblue" points="596.57,-23.05 586.58,-19.51 592.18,-28.5 596.57,-23.05"/>
</g>
<!-- Node15&#45;&gt;Node14 -->
<g id="edge20" class="edge">
<title>Node15&#45;&gt;Node14</title>
<path fill="none" stroke="midnightblue" d="M651.72,-61.98C653.43,-53.49 656.11,-40.2 658.3,-29.32"/>
<polygon fill="midnightblue" stroke="midnightblue" points="661.74,-30 660.28,-19.51 654.88,-28.62 661.74,-30"/>
</g>
<!-- Node16 -->
<g id="node16" class="node">
<title>Node16</title>
<g id="a_node16"><a xlink:title=" ">
<polygon fill="none" stroke="#bfbfbf" points="721.5,-0.5 721.5,-19.5 774.5,-19.5 774.5,-0.5 721.5,-0.5"/>
<text text-anchor="middle" x="748" y="-7.5" font-family="Helvetica,sans-Serif" font-size="10.00">stdint.h</text>
</a>
</g>
</g>
<!-- Node15&#45;&gt;Node16 -->
<g id="edge18" class="edge">
<title>Node15&#45;&gt;Node16</title>
<path fill="none" stroke="midnightblue" d="M664.04,-61.98C680.05,-52.25 706.45,-36.23 725.37,-24.74"/>
<polygon fill="midnightblue" stroke="midnightblue" points="727.25,-27.69 733.99,-19.51 723.62,-21.71 727.25,-27.69"/>
</g>
<!-- Node17&#45;&gt;Node5 -->
<g id="edge24" class="edge">
<title>Node17&#45;&gt;Node5</title>
<path fill="none" stroke="midnightblue" d="M719.8,-61.96C712.71,-59.91 705.1,-57.8 698,-56 644.9,-42.52 583.48,-29.42 541.62,-20.86"/>
<polygon fill="midnightblue" stroke="midnightblue" points="542.17,-17.41 531.68,-18.84 540.78,-24.26 542.17,-17.41"/>
</g>
<!-- Node17&#45;&gt;Node13 -->
<g id="edge23" class="edge">
<title>Node17&#45;&gt;Node13</title>
<path fill="none" stroke="midnightblue" d="M723.36,-61.98C693.72,-51.72 643.82,-34.46 610.4,-22.9"/>
<polygon fill="midnightblue" stroke="midnightblue" points="611.19,-19.47 600.6,-19.51 608.9,-26.09 611.19,-19.47"/>
</g>
<!-- Node17&#45;&gt;Node14 -->
<g id="edge25" class="edge">
<title>Node17&#45;&gt;Node14</title>
<path fill="none" stroke="midnightblue" d="M735.68,-61.98C721.88,-52.43 699.3,-36.81 682.77,-25.37"/>
<polygon fill="midnightblue" stroke="midnightblue" points="684.51,-22.32 674.3,-19.51 680.53,-28.08 684.51,-22.32"/>
</g>
<!-- Node17&#45;&gt;Node16 -->
<g id="edge22" class="edge">
<title>Node17&#45;&gt;Node16</title>
<path fill="none" stroke="midnightblue" d="M748,-61.98C748,-53.58 748,-40.48 748,-29.66"/>
<polygon fill="midnightblue" stroke="midnightblue" points="751.5,-29.51 748,-19.51 744.5,-29.51 751.5,-29.51"/>
</g>
</g>
</svg>
