<?xml version="1.0" encoding="UTF-8" standalone="no"?>
<!DOCTYPE svg PUBLIC "-//W3C//DTD SVG 1.1//EN"
 "http://www.w3.org/Graphics/SVG/1.1/DTD/svg11.dtd">
<!-- Generated by graphviz version 2.40.1 (20161225.0304)
 -->
<!-- Title: boards/stm32f4discovery/include/board.h Pages: 1 -->
<svg width="390pt" height="218pt"
 viewBox="0.00 0.00 390.00 218.00" xmlns="http://www.w3.org/2000/svg" xmlns:xlink="http://www.w3.org/1999/xlink">
<g id="graph0" class="graph" transform="scale(1 1) rotate(0) translate(4 214)">
<title>boards/stm32f4discovery/include/board.h</title>
<!-- Node0 -->
<g id="node1" class="node">
<title>Node0</title>
<polygon fill="#bfbfbf" stroke="#000000" points="85,-179.5 85,-209.5 211,-209.5 211,-179.5 85,-179.5"/>
<text text-anchor="start" x="93" y="-197.5" font-family="Helvetica,sans-Serif" font-size="10.00" fill="#000000">boards/stm32f4discovery</text>
<text text-anchor="middle" x="148" y="-186.5" font-family="Helvetica,sans-Serif" font-size="10.00" fill="#000000">/include/board.h</text>
</g>
<!-- Node1 -->
<g id="node2" class="node">
<title>Node1</title>
<polygon fill="none" stroke="#bfbfbf" points="89.5,-123.5 89.5,-142.5 130.5,-142.5 130.5,-123.5 89.5,-123.5"/>
<text text-anchor="middle" x="110" y="-130.5" font-family="Helvetica,sans-Serif" font-size="10.00" fill="#000000">cpu.h</text>
</g>
<!-- Node0&#45;&gt;Node1 -->
<g id="edge1" class="edge">
<title>Node0&#45;&gt;Node1</title>
<path fill="none" stroke="#191970" d="M138.6067,-179.2977C133.3869,-170.8498 126.8543,-160.2773 121.35,-151.369"/>
<polygon fill="#191970" stroke="#191970" points="124.3182,-149.5143 116.0843,-142.8469 118.3632,-153.1938 124.3182,-149.5143"/>
</g>
<!-- Node2 -->
<g id="node3" class="node">
<title>Node2</title>
<g id="a_node3"><a xlink:href="boards_2stm32f4discovery_2include_2periph__conf_8h.html" target="_top" xlink:title="periph_conf.h">
<polygon fill="none" stroke="#000000" points="148.5,-123.5 148.5,-142.5 223.5,-142.5 223.5,-123.5 148.5,-123.5"/>
<text text-anchor="middle" x="186" y="-130.5" font-family="Helvetica,sans-Serif" font-size="10.00" fill="#000000">periph_conf.h</text>
</a>
</g>
</g>
<!-- Node0&#45;&gt;Node2 -->
<g id="edge2" class="edge">
<title>Node0&#45;&gt;Node2</title>
<path fill="none" stroke="#191970" d="M157.3933,-179.2977C162.6131,-170.8498 169.1457,-160.2773 174.65,-151.369"/>
<polygon fill="#191970" stroke="#191970" points="177.6368,-153.1938 179.9157,-142.8469 171.6818,-149.5143 177.6368,-153.1938"/>
</g>
<!-- Node3 -->
<g id="node4" class="node">
<title>Node3</title>
<polygon fill="none" stroke="#bfbfbf" points="214,-6 214,-25 286,-25 286,-6 214,-6"/>
<text text-anchor="middle" x="250" y="-13" font-family="Helvetica,sans-Serif" font-size="10.00" fill="#000000">periph_cpu.h</text>
</g>
<!-- Node2&#45;&gt;Node3 -->
<g id="edge3" class="edge">
<title>Node2&#45;&gt;Node3</title>
<path fill="none" stroke="#191970" d="M178.8623,-123.0519C170.1871,-109.629 157.8868,-85.2939 168,-67 177.4505,-49.9048 195.2153,-37.7185 211.7998,-29.5067"/>
<polygon fill="#191970" stroke="#191970" points="213.7257,-32.474 221.3564,-25.124 210.8077,-26.1113 213.7257,-32.474"/>
</g>
<!-- Node4 -->
<g id="node5" class="node">
<title>Node4</title>
<g id="a_node5"><a xlink:href="cfg__clock__168__8__0_8h.html" target="_top" xlink:title="Configure STM32F4 clock to 168MHz using PLL and without LSE. ">
<polygon fill="none" stroke="#000000" points="0,-67.5 0,-86.5 120,-86.5 120,-67.5 0,-67.5"/>
<text text-anchor="middle" x="60" y="-74.5" font-family="Helvetica,sans-Serif" font-size="10.00" fill="#000000">f4/cfg_clock_168_8_0.h</text>
</a>
</g>
</g>
<!-- Node2&#45;&gt;Node4 -->
<g id="edge4" class="edge">
<title>Node2&#45;&gt;Node4</title>
<path fill="none" stroke="#191970" d="M164.3398,-123.3733C144.0228,-114.3435 113.436,-100.7494 90.625,-90.6111"/>
<polygon fill="#191970" stroke="#191970" points="91.9372,-87.3642 81.3775,-86.5011 89.0941,-93.7609 91.9372,-87.3642"/>
</g>
<!-- Node6 -->
<g id="node7" class="node">
<title>Node6</title>
<g id="a_node7"><a xlink:href="cfg__spi__divtable_8h.html" target="_top" xlink:title="Collection of pre&#45;computed bus pre&#45;scalers for SPI configuration. ">
<polygon fill="none" stroke="#000000" points="176.5,-67.5 176.5,-86.5 271.5,-86.5 271.5,-67.5 176.5,-67.5"/>
<text text-anchor="middle" x="224" y="-74.5" font-family="Helvetica,sans-Serif" font-size="10.00" fill="#000000">cfg_spi_divtable.h</text>
</a>
</g>
</g>
<!-- Node2&#45;&gt;Node6 -->
<g id="edge6" class="edge">
<title>Node2&#45;&gt;Node6</title>
<path fill="none" stroke="#191970" d="M192.6191,-123.2455C197.9046,-115.4564 205.4541,-104.3308 211.8238,-94.9439"/>
<polygon fill="#191970" stroke="#191970" points="214.7379,-96.8827 217.4568,-86.6427 208.9455,-92.9522 214.7379,-96.8827"/>
</g>
<!-- Node7 -->
<g id="node8" class="node">
<title>Node7</title>
<g id="a_node8"><a xlink:href="cfg__usb__otg__fs_8h.html" target="_top" xlink:title="Common configuration for STM32 OTG FS peripheral. ">
<polygon fill="none" stroke="#000000" points="290,-67.5 290,-86.5 382,-86.5 382,-67.5 290,-67.5"/>
<text text-anchor="middle" x="336" y="-74.5" font-family="Helvetica,sans-Serif" font-size="10.00" fill="#000000">cfg_usb_otg_fs.h</text>
</a>
</g>
</g>
<!-- Node2&#45;&gt;Node7 -->
<g id="edge7" class="edge">
<title>Node2&#45;&gt;Node7</title>
<path fill="none" stroke="#191970" d="M211.7859,-123.3733C236.4047,-114.1822 273.69,-100.2624 300.9875,-90.0713"/>
<polygon fill="#191970" stroke="#191970" points="302.4063,-93.2777 310.5506,-86.5011 299.958,-86.7198 302.4063,-93.2777"/>
</g>
<!-- Node5 -->
<g id="node6" class="node">
<title>Node5</title>
<g id="a_node6"><a xlink:href="cfg__clock__168__8__common_8h.html" target="_top" xlink:title="Configure STM32F4 clock to 168MHz using PLL. ">
<polygon fill="none" stroke="#000000" points="9.5,-.5 9.5,-30.5 110.5,-30.5 110.5,-.5 9.5,-.5"/>
<text text-anchor="start" x="17.5" y="-18.5" font-family="Helvetica,sans-Serif" font-size="10.00" fill="#000000">f4/cfg_clock_168_8</text>
<text text-anchor="middle" x="60" y="-7.5" font-family="Helvetica,sans-Serif" font-size="10.00" fill="#000000">_common.h</text>
</a>
</g>
</g>
<!-- Node4&#45;&gt;Node5 -->
<g id="edge5" class="edge">
<title>Node4&#45;&gt;Node5</title>
<path fill="none" stroke="#191970" d="M60,-67.3906C60,-60.2234 60,-50.0862 60,-40.671"/>
<polygon fill="#191970" stroke="#191970" points="63.5001,-40.5446 60,-30.5446 56.5001,-40.5446 63.5001,-40.5446"/>
</g>
<!-- Node7&#45;&gt;Node3 -->
<g id="edge8" class="edge">
<title>Node7&#45;&gt;Node3</title>
<path fill="none" stroke="#191970" d="M322.5625,-67.3906C308.9305,-57.6421 287.6154,-42.3994 271.6078,-30.9521"/>
<polygon fill="#191970" stroke="#191970" points="273.5132,-28.0118 263.3431,-25.0419 269.4414,-33.7057 273.5132,-28.0118"/>
</g>
</g>
</svg>
