<?xml version="1.0" encoding="UTF-8" standalone="no"?>
<!DOCTYPE svg PUBLIC "-//W3C//DTD SVG 1.1//EN"
 "http://www.w3.org/Graphics/SVG/1.1/DTD/svg11.dtd">
<!-- Generated by graphviz version 2.40.1 (20161225.0304)
 -->
<!-- Title: drivers/include/sx127x.h Pages: 1 -->
<svg width="1122pt" height="420pt"
 viewBox="0.00 0.00 1121.50 420.00" xmlns="http://www.w3.org/2000/svg" xmlns:xlink="http://www.w3.org/1999/xlink">
<g id="graph0" class="graph" transform="scale(1 1) rotate(0) translate(4 416)">
<title>drivers/include/sx127x.h</title>
<!-- Node0 -->
<g id="node1" class="node">
<title>Node0</title>
<polygon fill="#bfbfbf" stroke="#000000" points="844.5,-392.5 844.5,-411.5 966.5,-411.5 966.5,-392.5 844.5,-392.5"/>
<text text-anchor="middle" x="905.5" y="-399.5" font-family="Helvetica,sans-Serif" font-size="10.00" fill="#000000">drivers/include/sx127x.h</text>
</g>
<!-- Node1 -->
<g id="node2" class="node">
<title>Node1</title>
<g id="a_node2"><a xlink:href="xtimer_8h.html" target="_top" xlink:title="xtimer interface definitions ">
<polygon fill="none" stroke="#000000" points="337.5,-336.5 337.5,-355.5 389.5,-355.5 389.5,-336.5 337.5,-336.5"/>
<text text-anchor="middle" x="363.5" y="-343.5" font-family="Helvetica,sans-Serif" font-size="10.00" fill="#000000">xtimer.h</text>
</a>
</g>
</g>
<!-- Node0&#45;&gt;Node1 -->
<g id="edge1" class="edge">
<title>Node0&#45;&gt;Node1</title>
<path fill="none" stroke="#191970" d="M844.3793,-395.6849C730.9333,-383.9636 491.0522,-359.1788 399.7865,-349.7492"/>
<polygon fill="#191970" stroke="#191970" points="399.9686,-346.2494 389.6618,-348.7031 399.2491,-353.2124 399.9686,-346.2494"/>
</g>
<!-- Node27 -->
<g id="node28" class="node">
<title>Node27</title>
<g id="a_node28"><a xlink:href="drivers_2include_2net_2netdev_8h.html" target="_top" xlink:title="Definitions low&#45;level network driver interface. ">
<polygon fill="none" stroke="#000000" points="801,-336.5 801,-355.5 872,-355.5 872,-336.5 801,-336.5"/>
<text text-anchor="middle" x="836.5" y="-343.5" font-family="Helvetica,sans-Serif" font-size="10.00" fill="#000000">net/netdev.h</text>
</a>
</g>
</g>
<!-- Node0&#45;&gt;Node27 -->
<g id="edge41" class="edge">
<title>Node0&#45;&gt;Node27</title>
<path fill="none" stroke="#191970" d="M893.4811,-392.2455C883.2902,-383.9746 868.4638,-371.9416 856.4893,-362.2232"/>
<polygon fill="#191970" stroke="#191970" points="858.3514,-359.2268 848.3812,-355.6427 853.9402,-364.662 858.3514,-359.2268"/>
</g>
<!-- Node32 -->
<g id="node33" class="node">
<title>Node32</title>
<g id="a_node33"><a xlink:href="gpio_8h.html" target="_top" xlink:title="Low&#45;level GPIO peripheral driver interface definitions. ">
<polygon fill="none" stroke="#000000" points="937.5,-224.5 937.5,-243.5 1009.5,-243.5 1009.5,-224.5 937.5,-224.5"/>
<text text-anchor="middle" x="973.5" y="-231.5" font-family="Helvetica,sans-Serif" font-size="10.00" fill="#000000">periph/gpio.h</text>
</a>
</g>
</g>
<!-- Node0&#45;&gt;Node32 -->
<g id="edge47" class="edge">
<title>Node0&#45;&gt;Node32</title>
<path fill="none" stroke="#191970" d="M910.9601,-392.4275C920.9107,-374.6742 942.1948,-335.2399 955.5,-300 961.2683,-284.722 966.033,-266.8158 969.208,-253.5122"/>
<polygon fill="#191970" stroke="#191970" points="972.6622,-254.108 971.4883,-243.5784 965.8397,-252.5418 972.6622,-254.108"/>
</g>
<!-- Node33 -->
<g id="node34" class="node">
<title>Node33</title>
<g id="a_node34"><a xlink:href="spi_8h.html" target="_top" xlink:title="Low&#45;level SPI peripheral driver interface definition. ">
<polygon fill="none" stroke="#000000" points="1003,-280.5 1003,-299.5 1070,-299.5 1070,-280.5 1003,-280.5"/>
<text text-anchor="middle" x="1036.5" y="-287.5" font-family="Helvetica,sans-Serif" font-size="10.00" fill="#000000">periph/spi.h</text>
</a>
</g>
</g>
<!-- Node0&#45;&gt;Node33 -->
<g id="edge51" class="edge">
<title>Node0&#45;&gt;Node33</title>
<path fill="none" stroke="#191970" d="M928.6877,-392.48C946.3533,-384.4799 970.6043,-371.824 988.5,-356 1004.0229,-342.2741 1017.4755,-322.6906 1026.157,-308.422"/>
<polygon fill="#191970" stroke="#191970" points="1029.332,-309.9268 1031.3719,-299.5302 1023.2938,-306.3855 1029.332,-309.9268"/>
</g>
<!-- Node2 -->
<g id="node3" class="node">
<title>Node2</title>
<polygon fill="none" stroke="#bfbfbf" points="767.5,-168.5 767.5,-187.5 823.5,-187.5 823.5,-168.5 767.5,-168.5"/>
<text text-anchor="middle" x="795.5" y="-175.5" font-family="Helvetica,sans-Serif" font-size="10.00" fill="#000000">stdbool.h</text>
</g>
<!-- Node1&#45;&gt;Node2 -->
<g id="edge2" class="edge">
<title>Node1&#45;&gt;Node2</title>
<path fill="none" stroke="#191970" d="M389.5414,-344.8606C458.7166,-341.455 645.4017,-329.6865 698.5,-300 741.4122,-276.0084 772.2721,-224.6201 786.5723,-196.8075"/>
<polygon fill="#191970" stroke="#191970" points="789.7711,-198.2351 791.0832,-187.7218 783.5014,-195.1222 789.7711,-198.2351"/>
</g>
<!-- Node3 -->
<g id="node4" class="node">
<title>Node3</title>
<polygon fill="none" stroke="#bfbfbf" points="401,-168.5 401,-187.5 450,-187.5 450,-168.5 401,-168.5"/>
<text text-anchor="middle" x="425.5" y="-175.5" font-family="Helvetica,sans-Serif" font-size="10.00" fill="#000000">stdint.h</text>
</g>
<!-- Node1&#45;&gt;Node3 -->
<g id="edge3" class="edge">
<title>Node1&#45;&gt;Node3</title>
<path fill="none" stroke="#191970" d="M372.5687,-336.3544C380.6318,-327.4267 392.3698,-313.5283 400.5,-300 414.4484,-276.7906 418.8547,-270.4833 424.5,-244 427.7522,-228.7433 427.8285,-211.0506 427.1869,-197.8262"/>
<polygon fill="#191970" stroke="#191970" points="430.6578,-197.2734 426.5,-187.5286 423.6734,-197.7394 430.6578,-197.2734"/>
</g>
<!-- Node4 -->
<g id="node5" class="node">
<title>Node4</title>
<g id="a_node5"><a xlink:href="timex_8h.html" target="_top" xlink:title="Utility library for comparing and computing timestamps. ">
<polygon fill="none" stroke="#000000" points="94,-224.5 94,-243.5 143,-243.5 143,-224.5 94,-224.5"/>
<text text-anchor="middle" x="118.5" y="-231.5" font-family="Helvetica,sans-Serif" font-size="10.00" fill="#000000">timex.h</text>
</a>
</g>
</g>
<!-- Node1&#45;&gt;Node4 -->
<g id="edge4" class="edge">
<title>Node1&#45;&gt;Node4</title>
<path fill="none" stroke="#191970" d="M337.2447,-341.4159C304.9773,-335.1055 249.1413,-321.9574 205.5,-300 179.3963,-286.8664 153.1881,-265.6226 136.4638,-250.7957"/>
<polygon fill="#191970" stroke="#191970" points="138.3949,-247.8225 128.6333,-243.7039 133.6959,-253.011 138.3949,-247.8225"/>
</g>
<!-- Node6 -->
<g id="node7" class="node">
<title>Node6</title>
<g id="a_node7"><a xlink:href="mutex_8h.html" target="_top" xlink:title="Mutex for thread synchronization. ">
<polygon fill="none" stroke="#000000" points="259.5,-224.5 259.5,-243.5 311.5,-243.5 311.5,-224.5 259.5,-224.5"/>
<text text-anchor="middle" x="285.5" y="-231.5" font-family="Helvetica,sans-Serif" font-size="10.00" fill="#000000">mutex.h</text>
</a>
</g>
</g>
<!-- Node1&#45;&gt;Node6 -->
<g id="edge7" class="edge">
<title>Node1&#45;&gt;Node6</title>
<path fill="none" stroke="#191970" d="M355.4926,-336.3398C348.0029,-327.1736 336.6325,-312.9178 327.5,-300 316.3961,-284.2936 304.7237,-265.7659 296.5103,-252.3454"/>
<polygon fill="#191970" stroke="#191970" points="299.3776,-250.3238 291.1985,-243.5893 293.3927,-253.9544 299.3776,-250.3238"/>
</g>
<!-- Node9 -->
<g id="node10" class="node">
<title>Node9</title>
<g id="a_node10"><a xlink:href="kernel__types_8h.html" target="_top" xlink:title="Types used by the kernel. ">
<polygon fill="none" stroke="#000000" points="161.5,-224.5 161.5,-243.5 241.5,-243.5 241.5,-224.5 161.5,-224.5"/>
<text text-anchor="middle" x="201.5" y="-231.5" font-family="Helvetica,sans-Serif" font-size="10.00" fill="#000000">kernel_types.h</text>
</a>
</g>
</g>
<!-- Node1&#45;&gt;Node9 -->
<g id="edge11" class="edge">
<title>Node1&#45;&gt;Node9</title>
<path fill="none" stroke="#191970" d="M337.401,-340.5793C301.0481,-332.5376 237.7885,-316.6016 221.5,-300 209.4726,-287.7414 204.6444,-268.4998 202.7238,-253.949"/>
<polygon fill="#191970" stroke="#191970" points="206.201,-253.5443 201.7508,-243.9295 199.2338,-254.221 206.201,-253.5443"/>
</g>
<!-- Node12 -->
<g id="node13" class="node">
<title>Node12</title>
<g id="a_node13"><a xlink:href="rmutex_8h.html" target="_top" xlink:title="Recursive Mutex for thread synchronization. ">
<polygon fill="none" stroke="#000000" points="336,-280.5 336,-299.5 391,-299.5 391,-280.5 336,-280.5"/>
<text text-anchor="middle" x="363.5" y="-287.5" font-family="Helvetica,sans-Serif" font-size="10.00" fill="#000000">rmutex.h</text>
</a>
</g>
</g>
<!-- Node1&#45;&gt;Node12 -->
<g id="edge17" class="edge">
<title>Node1&#45;&gt;Node12</title>
<path fill="none" stroke="#191970" d="M363.5,-336.2455C363.5,-328.9382 363.5,-318.6944 363.5,-309.7046"/>
<polygon fill="#191970" stroke="#191970" points="367.0001,-309.6426 363.5,-299.6427 360.0001,-309.6427 367.0001,-309.6426"/>
</g>
<!-- Node14 -->
<g id="node15" class="node">
<title>Node14</title>
<polygon fill="none" stroke="#bfbfbf" points="230,-280.5 230,-299.5 279,-299.5 279,-280.5 230,-280.5"/>
<text text-anchor="middle" x="254.5" y="-287.5" font-family="Helvetica,sans-Serif" font-size="10.00" fill="#000000">board.h</text>
</g>
<!-- Node1&#45;&gt;Node14 -->
<g id="edge22" class="edge">
<title>Node1&#45;&gt;Node14</title>
<path fill="none" stroke="#191970" d="M344.5136,-336.2455C327.3208,-327.4125 301.7762,-314.2887 282.2868,-304.2758"/>
<polygon fill="#191970" stroke="#191970" points="283.763,-301.0993 273.2688,-299.6427 280.5641,-307.3257 283.763,-301.0993"/>
</g>
<!-- Node15 -->
<g id="node16" class="node">
<title>Node15</title>
<polygon fill="none" stroke="#bfbfbf" points="770,-112.5 770,-131.5 845,-131.5 845,-112.5 770,-112.5"/>
<text text-anchor="middle" x="807.5" y="-119.5" font-family="Helvetica,sans-Serif" font-size="10.00" fill="#000000">periph_conf.h</text>
</g>
<!-- Node1&#45;&gt;Node15 -->
<g id="edge23" class="edge">
<title>Node1&#45;&gt;Node15</title>
<path fill="none" stroke="#191970" d="M375.7805,-336.4367C387.307,-327.339 404.9105,-313.1295 419.5,-300 481.6402,-244.0783 479.2919,-206.4941 553.5,-168 588.6394,-149.7721 696.2433,-134.7954 759.5618,-127.2635"/>
<polygon fill="#191970" stroke="#191970" points="760.1799,-130.7151 769.7048,-126.0755 759.3655,-123.7626 760.1799,-130.7151"/>
</g>
<!-- Node16 -->
<g id="node17" class="node">
<title>Node16</title>
<g id="a_node17"><a xlink:href="tick__conversion_8h.html" target="_top" xlink:title="xtimer tick &lt;&#45;&gt; seconds conversions for different values of XTIMER_HZ ">
<polygon fill="none" stroke="#000000" points="0,-280.5 0,-299.5 123,-299.5 123,-280.5 0,-280.5"/>
<text text-anchor="middle" x="61.5" y="-287.5" font-family="Helvetica,sans-Serif" font-size="10.00" fill="#000000">xtimer/tick_conversion.h</text>
</a>
</g>
</g>
<!-- Node1&#45;&gt;Node16 -->
<g id="edge24" class="edge">
<title>Node1&#45;&gt;Node16</title>
<path fill="none" stroke="#191970" d="M337.4903,-341.177C290.1314,-332.3952 188.6542,-313.5783 122.8277,-301.372"/>
<polygon fill="#191970" stroke="#191970" points="123.4547,-297.9287 112.9842,-299.5467 122.1784,-304.8114 123.4547,-297.9287"/>
</g>
<!-- Node21 -->
<g id="node22" class="node">
<title>Node21</title>
<g id="a_node22"><a xlink:href="implementation_8h.html" target="_top" xlink:title="xtimer implementation ">
<polygon fill="none" stroke="#000000" points="568,-280.5 568,-299.5 689,-299.5 689,-280.5 568,-280.5"/>
<text text-anchor="middle" x="628.5" y="-287.5" font-family="Helvetica,sans-Serif" font-size="10.00" fill="#000000">xtimer/implementation.h</text>
</a>
</g>
</g>
<!-- Node1&#45;&gt;Node21 -->
<g id="edge31" class="edge">
<title>Node1&#45;&gt;Node21</title>
<path fill="none" stroke="#191970" d="M389.878,-340.4258C432.4856,-331.4219 517.3442,-313.4895 573.5228,-301.6178"/>
<polygon fill="#191970" stroke="#191970" points="574.2562,-305.0402 583.3164,-299.5482 572.8088,-298.1915 574.2562,-305.0402"/>
</g>
<!-- Node4&#45;&gt;Node3 -->
<g id="edge5" class="edge">
<title>Node4&#45;&gt;Node3</title>
<path fill="none" stroke="#191970" d="M143.2849,-226.3053C146.3723,-225.4667 149.4984,-224.6743 152.5,-224 253.0222,-201.4167 280.3205,-207.4276 381.5,-188 384.5556,-187.4133 387.7222,-186.7679 390.8919,-186.0962"/>
<polygon fill="#191970" stroke="#191970" points="391.8772,-189.4633 400.8941,-183.9005 390.3762,-182.6261 391.8772,-189.4633"/>
</g>
<!-- Node5 -->
<g id="node6" class="node">
<title>Node5</title>
<g id="a_node6"><a xlink:href="inttypes_8h.html" target="_top" xlink:title="Adds include for missing inttype definitions. ">
<polygon fill="none" stroke="#000000" points="95,-168.5 95,-187.5 154,-187.5 154,-168.5 95,-168.5"/>
<text text-anchor="middle" x="124.5" y="-175.5" font-family="Helvetica,sans-Serif" font-size="10.00" fill="#000000">inttypes.h</text>
</a>
</g>
</g>
<!-- Node4&#45;&gt;Node5 -->
<g id="edge6" class="edge">
<title>Node4&#45;&gt;Node5</title>
<path fill="none" stroke="#191970" d="M119.5451,-224.2455C120.328,-216.9382 121.4256,-206.6944 122.3888,-197.7046"/>
<polygon fill="#191970" stroke="#191970" points="125.8815,-197.9587 123.4669,-187.6427 118.9214,-197.2129 125.8815,-197.9587"/>
</g>
<!-- Node6&#45;&gt;Node3 -->
<g id="edge9" class="edge">
<title>Node6&#45;&gt;Node3</title>
<path fill="none" stroke="#191970" d="M309.5669,-224.3733C332.3428,-215.2629 366.7344,-201.5062 392.149,-191.3404"/>
<polygon fill="#191970" stroke="#191970" points="393.7623,-194.4648 401.7472,-187.5011 391.1625,-187.9654 393.7623,-194.4648"/>
</g>
<!-- Node7 -->
<g id="node8" class="node">
<title>Node7</title>
<polygon fill="none" stroke="#bfbfbf" points="218.5,-.5 218.5,-19.5 270.5,-19.5 270.5,-.5 218.5,-.5"/>
<text text-anchor="middle" x="244.5" y="-7.5" font-family="Helvetica,sans-Serif" font-size="10.00" fill="#000000">stddef.h</text>
</g>
<!-- Node6&#45;&gt;Node7 -->
<g id="edge8" class="edge">
<title>Node6&#45;&gt;Node7</title>
<path fill="none" stroke="#191970" d="M286.0343,-224.4892C286.5281,-215.1899 287.2256,-200.627 287.5,-188 287.6931,-179.1132 288.6775,-176.8106 287.5,-168 280.658,-116.8046 261.8687,-58.6934 251.5369,-29.2699"/>
<polygon fill="#191970" stroke="#191970" points="254.8116,-28.0328 248.1508,-19.7936 248.2198,-30.3882 254.8116,-28.0328"/>
</g>
<!-- Node8 -->
<g id="node9" class="node">
<title>Node8</title>
<g id="a_node9"><a xlink:href="list_8h.html" target="_top" xlink:title="Intrusive linked list. ">
<polygon fill="none" stroke="#000000" points="334.5,-168.5 334.5,-187.5 372.5,-187.5 372.5,-168.5 334.5,-168.5"/>
<text text-anchor="middle" x="353.5" y="-175.5" font-family="Helvetica,sans-Serif" font-size="10.00" fill="#000000">list.h</text>
</a>
</g>
</g>
<!-- Node6&#45;&gt;Node8 -->
<g id="edge10" class="edge">
<title>Node6&#45;&gt;Node8</title>
<path fill="none" stroke="#191970" d="M297.3447,-224.2455C307.388,-215.9746 321.9995,-203.9416 333.8004,-194.2232"/>
<polygon fill="#191970" stroke="#191970" points="336.2967,-196.7015 341.791,-187.6427 331.8467,-191.298 336.2967,-196.7015"/>
</g>
<!-- Node9&#45;&gt;Node3 -->
<g id="edge12" class="edge">
<title>Node9&#45;&gt;Node3</title>
<path fill="none" stroke="#191970" d="M239.7525,-224.4369C282.2587,-213.8103 350.2764,-196.8059 391.1427,-186.5893"/>
<polygon fill="#191970" stroke="#191970" points="392.0629,-189.9671 400.9154,-184.1461 390.3651,-183.1761 392.0629,-189.9671"/>
</g>
<!-- Node9&#45;&gt;Node5 -->
<g id="edge13" class="edge">
<title>Node9&#45;&gt;Node5</title>
<path fill="none" stroke="#191970" d="M188.0876,-224.2455C176.4943,-215.814 159.5252,-203.4729 146.0322,-193.6598"/>
<polygon fill="#191970" stroke="#191970" points="147.9047,-190.6938 137.7587,-187.6427 143.7874,-196.355 147.9047,-190.6938"/>
</g>
<!-- Node9&#45;&gt;Node7 -->
<g id="edge15" class="edge">
<title>Node9&#45;&gt;Node7</title>
<path fill="none" stroke="#191970" d="M200.6871,-224.1059C199.8081,-211.1503 198.8589,-187.7618 201.5,-168 208.342,-116.8046 227.1313,-58.6934 237.4631,-29.2699"/>
<polygon fill="#191970" stroke="#191970" points="240.7802,-30.3882 240.8492,-19.7936 234.1884,-28.0328 240.7802,-30.3882"/>
</g>
<!-- Node10 -->
<g id="node11" class="node">
<title>Node10</title>
<polygon fill="none" stroke="#bfbfbf" points="841.5,-168.5 841.5,-187.5 889.5,-187.5 889.5,-168.5 841.5,-168.5"/>
<text text-anchor="middle" x="865.5" y="-175.5" font-family="Helvetica,sans-Serif" font-size="10.00" fill="#000000">limits.h</text>
</g>
<!-- Node9&#45;&gt;Node10 -->
<g id="edge14" class="edge">
<title>Node9&#45;&gt;Node10</title>
<path fill="none" stroke="#191970" d="M241.5344,-225.3559C244.5601,-224.848 247.5735,-224.3872 250.5,-224 504.1602,-190.4379 575.6262,-232.7873 831.1955,-187.8467"/>
<polygon fill="#191970" stroke="#191970" points="831.9175,-191.2733 841.1463,-186.0695 830.6867,-184.3823 831.9175,-191.2733"/>
</g>
<!-- Node11 -->
<g id="node12" class="node">
<title>Node11</title>
<polygon fill="none" stroke="#bfbfbf" points="210.5,-168.5 210.5,-187.5 278.5,-187.5 278.5,-168.5 210.5,-168.5"/>
<text text-anchor="middle" x="244.5" y="-175.5" font-family="Helvetica,sans-Serif" font-size="10.00" fill="#000000">sys/types.h</text>
</g>
<!-- Node9&#45;&gt;Node11 -->
<g id="edge16" class="edge">
<title>Node9&#45;&gt;Node11</title>
<path fill="none" stroke="#191970" d="M208.99,-224.2455C215.0326,-216.3761 223.6903,-205.101 230.9441,-195.6542"/>
<polygon fill="#191970" stroke="#191970" points="233.7815,-197.7058 237.0958,-187.6427 228.2295,-193.4426 233.7815,-197.7058"/>
</g>
<!-- Node12&#45;&gt;Node3 -->
<g id="edge18" class="edge">
<title>Node12&#45;&gt;Node3</title>
<path fill="none" stroke="#191970" d="M375.3501,-280.2073C385.0369,-271.6044 398.4091,-258.2629 406.5,-244 414.6814,-229.5775 419.5808,-211.3487 422.3497,-197.7046"/>
<polygon fill="#191970" stroke="#191970" points="425.8586,-197.9703 424.1998,-187.5062 418.971,-196.7208 425.8586,-197.9703"/>
</g>
<!-- Node12&#45;&gt;Node6 -->
<g id="edge20" class="edge">
<title>Node12&#45;&gt;Node6</title>
<path fill="none" stroke="#191970" d="M349.9134,-280.2455C338.1695,-271.814 320.9801,-259.4729 307.3118,-249.6598"/>
<polygon fill="#191970" stroke="#191970" points="309.0954,-246.6316 298.9309,-243.6427 305.0129,-252.3179 309.0954,-246.6316"/>
</g>
<!-- Node12&#45;&gt;Node9 -->
<g id="edge21" class="edge">
<title>Node12&#45;&gt;Node9</title>
<path fill="none" stroke="#191970" d="M335.6512,-280.3733C308.8297,-271.1016 268.0873,-257.0178 238.5402,-246.804"/>
<polygon fill="#191970" stroke="#191970" points="239.5802,-243.4603 228.9854,-243.5011 237.2931,-250.0762 239.5802,-243.4603"/>
</g>
<!-- Node13 -->
<g id="node14" class="node">
<title>Node13</title>
<polygon fill="none" stroke="#bfbfbf" points="329.5,-224.5 329.5,-243.5 397.5,-243.5 397.5,-224.5 329.5,-224.5"/>
<text text-anchor="middle" x="363.5" y="-231.5" font-family="Helvetica,sans-Serif" font-size="10.00" fill="#000000">stdatomic.h</text>
</g>
<!-- Node12&#45;&gt;Node13 -->
<g id="edge19" class="edge">
<title>Node12&#45;&gt;Node13</title>
<path fill="none" stroke="#191970" d="M363.5,-280.2455C363.5,-272.9382 363.5,-262.6944 363.5,-253.7046"/>
<polygon fill="#191970" stroke="#191970" points="367.0001,-253.6426 363.5,-243.6427 360.0001,-253.6427 367.0001,-253.6426"/>
</g>
<!-- Node17 -->
<g id="node18" class="node">
<title>Node17</title>
<g id="a_node18"><a xlink:href="div_8h.html" target="_top" xlink:title="div.h">
<polygon fill="none" stroke="#000000" points="37.5,-224.5 37.5,-243.5 75.5,-243.5 75.5,-224.5 37.5,-224.5"/>
<text text-anchor="middle" x="56.5" y="-231.5" font-family="Helvetica,sans-Serif" font-size="10.00" fill="#000000">div.h</text>
</a>
</g>
</g>
<!-- Node16&#45;&gt;Node17 -->
<g id="edge25" class="edge">
<title>Node16&#45;&gt;Node17</title>
<path fill="none" stroke="#191970" d="M60.6291,-280.2455C59.9766,-272.9382 59.062,-262.6944 58.2593,-253.7046"/>
<polygon fill="#191970" stroke="#191970" points="61.7365,-253.2918 57.361,-243.6427 54.7642,-253.9143 61.7365,-253.2918"/>
</g>
<!-- Node17&#45;&gt;Node3 -->
<g id="edge30" class="edge">
<title>Node17&#45;&gt;Node3</title>
<path fill="none" stroke="#191970" d="M75.6104,-226.5417C78.5555,-225.5773 81.5862,-224.6878 84.5,-224 213.9092,-193.4506 250.497,-210.7641 381.5,-188 384.5655,-187.4673 387.7389,-186.8592 390.913,-186.2119"/>
<polygon fill="#191970" stroke="#191970" points="391.884,-189.5831 400.9224,-184.0551 390.4095,-182.7401 391.884,-189.5831"/>
</g>
<!-- Node18 -->
<g id="node19" class="node">
<title>Node18</title>
<g id="a_node19"><a xlink:href="assert_8h.html" target="_top" xlink:title="POSIX.1&#45;2008 compliant version of the assert macro. ">
<polygon fill="none" stroke="#000000" points="24.5,-168.5 24.5,-187.5 76.5,-187.5 76.5,-168.5 24.5,-168.5"/>
<text text-anchor="middle" x="50.5" y="-175.5" font-family="Helvetica,sans-Serif" font-size="10.00" fill="#000000">assert.h</text>
</a>
</g>
</g>
<!-- Node17&#45;&gt;Node18 -->
<g id="edge26" class="edge">
<title>Node17&#45;&gt;Node18</title>
<path fill="none" stroke="#191970" d="M55.4549,-224.2455C54.672,-216.9382 53.5744,-206.6944 52.6112,-197.7046"/>
<polygon fill="#191970" stroke="#191970" points="56.0786,-197.2129 51.5331,-187.6427 49.1185,-197.9587 56.0786,-197.2129"/>
</g>
<!-- Node19 -->
<g id="node20" class="node">
<title>Node19</title>
<g id="a_node20"><a xlink:href="panic_8h.html" target="_top" xlink:title="Crash handling header. ">
<polygon fill="none" stroke="#000000" points="56.5,-112.5 56.5,-131.5 104.5,-131.5 104.5,-112.5 56.5,-112.5"/>
<text text-anchor="middle" x="80.5" y="-119.5" font-family="Helvetica,sans-Serif" font-size="10.00" fill="#000000">panic.h</text>
</a>
</g>
</g>
<!-- Node18&#45;&gt;Node19 -->
<g id="edge27" class="edge">
<title>Node18&#45;&gt;Node19</title>
<path fill="none" stroke="#191970" d="M55.7256,-168.2455C59.8123,-160.617 65.6135,-149.7881 70.575,-140.5267"/>
<polygon fill="#191970" stroke="#191970" points="73.6972,-142.1103 75.3343,-131.6427 67.5268,-138.8047 73.6972,-142.1103"/>
</g>
<!-- Node20 -->
<g id="node21" class="node">
<title>Node20</title>
<g id="a_node21"><a xlink:href="kernel__defines_8h.html" target="_top" xlink:title="Common macros and compiler attributes/pragmas configuration. ">
<polygon fill="none" stroke="#000000" points="51.5,-56.5 51.5,-75.5 139.5,-75.5 139.5,-56.5 51.5,-56.5"/>
<text text-anchor="middle" x="95.5" y="-63.5" font-family="Helvetica,sans-Serif" font-size="10.00" fill="#000000">kernel_defines.h</text>
</a>
</g>
</g>
<!-- Node19&#45;&gt;Node20 -->
<g id="edge28" class="edge">
<title>Node19&#45;&gt;Node20</title>
<path fill="none" stroke="#191970" d="M83.1128,-112.2455C85.0916,-104.8579 87.8744,-94.4689 90.3012,-85.4087"/>
<polygon fill="#191970" stroke="#191970" points="93.7105,-86.2078 92.9171,-75.6427 86.9489,-84.3966 93.7105,-86.2078"/>
</g>
<!-- Node20&#45;&gt;Node7 -->
<g id="edge29" class="edge">
<title>Node20&#45;&gt;Node7</title>
<path fill="none" stroke="#191970" d="M121.114,-56.3733C145.5687,-47.1822 182.6054,-33.2624 209.7209,-23.0713"/>
<polygon fill="#191970" stroke="#191970" points="211.0909,-26.2956 219.2202,-19.5011 208.6281,-19.7431 211.0909,-26.2956"/>
</g>
<!-- Node22 -->
<g id="node23" class="node">
<title>Node22</title>
<g id="a_node23"><a xlink:href="drivers_2include_2periph_2timer_8h.html" target="_top" xlink:title="Low&#45;level timer peripheral driver interface definitions. ">
<polygon fill="none" stroke="#000000" points="659.5,-224.5 659.5,-243.5 735.5,-243.5 735.5,-224.5 659.5,-224.5"/>
<text text-anchor="middle" x="697.5" y="-231.5" font-family="Helvetica,sans-Serif" font-size="10.00" fill="#000000">periph/timer.h</text>
</a>
</g>
</g>
<!-- Node21&#45;&gt;Node22 -->
<g id="edge32" class="edge">
<title>Node21&#45;&gt;Node22</title>
<path fill="none" stroke="#191970" d="M640.5189,-280.2455C650.7098,-271.9746 665.5362,-259.9416 677.5107,-250.2232"/>
<polygon fill="#191970" stroke="#191970" points="680.0598,-252.662 685.6188,-243.6427 675.6486,-247.2268 680.0598,-252.662"/>
</g>
<!-- Node25 -->
<g id="node26" class="node">
<title>Node25</title>
<g id="a_node26"><a xlink:href="irq_8h.html" target="_top" xlink:title="IRQ driver interface. ">
<polygon fill="none" stroke="#000000" points="606,-224.5 606,-243.5 641,-243.5 641,-224.5 606,-224.5"/>
<text text-anchor="middle" x="623.5" y="-231.5" font-family="Helvetica,sans-Serif" font-size="10.00" fill="#000000">irq.h</text>
</a>
</g>
</g>
<!-- Node21&#45;&gt;Node25 -->
<g id="edge38" class="edge">
<title>Node21&#45;&gt;Node25</title>
<path fill="none" stroke="#191970" d="M627.6291,-280.2455C626.9766,-272.9382 626.062,-262.6944 625.2593,-253.7046"/>
<polygon fill="#191970" stroke="#191970" points="628.7365,-253.2918 624.361,-243.6427 621.7642,-253.9143 628.7365,-253.2918"/>
</g>
<!-- Node22&#45;&gt;Node3 -->
<g id="edge34" class="edge">
<title>Node22&#45;&gt;Node3</title>
<path fill="none" stroke="#191970" d="M659.2858,-225.8427C656.3136,-225.2164 653.3583,-224.5962 650.5,-224 583.1109,-209.9425 504.275,-193.9227 460.0866,-184.982"/>
<polygon fill="#191970" stroke="#191970" points="460.6461,-181.5243 450.1508,-182.9728 459.2586,-188.3855 460.6461,-181.5243"/>
</g>
<!-- Node22&#45;&gt;Node10 -->
<g id="edge33" class="edge">
<title>Node22&#45;&gt;Node10</title>
<path fill="none" stroke="#191970" d="M726.3802,-224.3733C755.5437,-214.6521 800.5776,-199.6408 831.46,-189.3467"/>
<polygon fill="#191970" stroke="#191970" points="832.9673,-192.5336 841.3473,-186.0509 830.7536,-185.8929 832.9673,-192.5336"/>
</g>
<!-- Node23 -->
<g id="node24" class="node">
<title>Node23</title>
<polygon fill="none" stroke="#bfbfbf" points="945.5,-168.5 945.5,-187.5 1017.5,-187.5 1017.5,-168.5 945.5,-168.5"/>
<text text-anchor="middle" x="981.5" y="-175.5" font-family="Helvetica,sans-Serif" font-size="10.00" fill="#000000">periph_cpu.h</text>
</g>
<!-- Node22&#45;&gt;Node23 -->
<g id="edge35" class="edge">
<title>Node22&#45;&gt;Node23</title>
<path fill="none" stroke="#191970" d="M735.5068,-226.5057C787.1585,-216.3209 879.446,-198.1233 935.1154,-187.1463"/>
<polygon fill="#191970" stroke="#191970" points="935.932,-190.5527 945.0659,-185.1842 934.5777,-183.685 935.932,-190.5527"/>
</g>
<!-- Node24 -->
<g id="node25" class="node">
<title>Node24</title>
<g id="a_node25"><a xlink:href="dev__enums_8h.html" target="_top" xlink:title="Device enumerations for backward compatibility with existing peripheral driver implementations. ">
<polygon fill="none" stroke="#000000" points="645.5,-168.5 645.5,-187.5 749.5,-187.5 749.5,-168.5 645.5,-168.5"/>
<text text-anchor="middle" x="697.5" y="-175.5" font-family="Helvetica,sans-Serif" font-size="10.00" fill="#000000">periph/dev_enums.h</text>
</a>
</g>
</g>
<!-- Node22&#45;&gt;Node24 -->
<g id="edge36" class="edge">
<title>Node22&#45;&gt;Node24</title>
<path fill="none" stroke="#191970" d="M697.5,-224.2455C697.5,-216.9382 697.5,-206.6944 697.5,-197.7046"/>
<polygon fill="#191970" stroke="#191970" points="701.0001,-197.6426 697.5,-187.6427 694.0001,-197.6427 701.0001,-197.6426"/>
</g>
<!-- Node24&#45;&gt;Node15 -->
<g id="edge37" class="edge">
<title>Node24&#45;&gt;Node15</title>
<path fill="none" stroke="#191970" d="M716.6605,-168.2455C734.0111,-159.4125 759.7901,-146.2887 779.4583,-136.2758"/>
<polygon fill="#191970" stroke="#191970" points="781.2353,-139.2986 788.559,-131.6427 778.0595,-133.0605 781.2353,-139.2986"/>
</g>
<!-- Node25&#45;&gt;Node2 -->
<g id="edge39" class="edge">
<title>Node25&#45;&gt;Node2</title>
<path fill="none" stroke="#191970" d="M641.1756,-227.3167C644.2742,-226.1843 647.4745,-225.0395 650.5,-224 686.5832,-211.6022 728.1181,-198.5479 757.4605,-189.5263"/>
<polygon fill="#191970" stroke="#191970" points="758.7658,-192.7871 767.3018,-186.5112 756.7152,-186.0941 758.7658,-192.7871"/>
</g>
<!-- Node26 -->
<g id="node27" class="node">
<title>Node26</title>
<polygon fill="none" stroke="#bfbfbf" points="562,-168.5 562,-187.5 627,-187.5 627,-168.5 562,-168.5"/>
<text text-anchor="middle" x="594.5" y="-175.5" font-family="Helvetica,sans-Serif" font-size="10.00" fill="#000000">cpu_conf.h</text>
</g>
<!-- Node25&#45;&gt;Node26 -->
<g id="edge40" class="edge">
<title>Node25&#45;&gt;Node26</title>
<path fill="none" stroke="#191970" d="M618.4486,-224.2455C614.4981,-216.617 608.8903,-205.7881 604.0942,-196.5267"/>
<polygon fill="#191970" stroke="#191970" points="607.2001,-194.9131 599.4935,-187.6427 600.9841,-198.1321 607.2001,-194.9131"/>
</g>
<!-- Node27&#45;&gt;Node3 -->
<g id="edge42" class="edge">
<title>Node27&#45;&gt;Node3</title>
<path fill="none" stroke="#191970" d="M800.8608,-342.6159C736.0158,-336.045 601.5533,-320.3951 559.5,-300 507.3912,-274.7282 460.9372,-222.7211 438.9481,-195.4936"/>
<polygon fill="#191970" stroke="#191970" points="441.6428,-193.2586 432.6923,-187.5895 436.1539,-197.6029 441.6428,-193.2586"/>
</g>
<!-- Node28 -->
<g id="node29" class="node">
<title>Node28</title>
<g id="a_node29"><a xlink:href="errno_8h.html" target="_top" xlink:title="errno.h">
<polygon fill="none" stroke="#000000" points="813,-280.5 813,-299.5 860,-299.5 860,-280.5 813,-280.5"/>
<text text-anchor="middle" x="836.5" y="-287.5" font-family="Helvetica,sans-Serif" font-size="10.00" fill="#000000">errno.h</text>
</a>
</g>
</g>
<!-- Node27&#45;&gt;Node28 -->
<g id="edge43" class="edge">
<title>Node27&#45;&gt;Node28</title>
<path fill="none" stroke="#191970" d="M836.5,-336.2455C836.5,-328.9382 836.5,-318.6944 836.5,-309.7046"/>
<polygon fill="#191970" stroke="#191970" points="840.0001,-309.6426 836.5,-299.6427 833.0001,-309.6427 840.0001,-309.6426"/>
</g>
<!-- Node29 -->
<g id="node30" class="node">
<title>Node29</title>
<g id="a_node30"><a xlink:href="iolist_8h.html" target="_top" xlink:title="iolist scatter / gather IO ">
<polygon fill="none" stroke="#000000" points="750,-280.5 750,-299.5 795,-299.5 795,-280.5 750,-280.5"/>
<text text-anchor="middle" x="772.5" y="-287.5" font-family="Helvetica,sans-Serif" font-size="10.00" fill="#000000">iolist.h</text>
</a>
</g>
</g>
<!-- Node27&#45;&gt;Node29 -->
<g id="edge44" class="edge">
<title>Node27&#45;&gt;Node29</title>
<path fill="none" stroke="#191970" d="M825.3521,-336.2455C815.9913,-328.0549 802.4142,-316.1749 791.3651,-306.5069"/>
<polygon fill="#191970" stroke="#191970" points="793.3508,-303.5937 783.5202,-299.6427 788.7412,-308.8618 793.3508,-303.5937"/>
</g>
<!-- Node31 -->
<g id="node32" class="node">
<title>Node31</title>
<g id="a_node32"><a xlink:href="netopt_8h.html" target="_top" xlink:title="Definition of global configuration options. ">
<polygon fill="none" stroke="#000000" points="878.5,-280.5 878.5,-299.5 946.5,-299.5 946.5,-280.5 878.5,-280.5"/>
<text text-anchor="middle" x="912.5" y="-287.5" font-family="Helvetica,sans-Serif" font-size="10.00" fill="#000000">net/netopt.h</text>
</a>
</g>
</g>
<!-- Node27&#45;&gt;Node31 -->
<g id="edge46" class="edge">
<title>Node27&#45;&gt;Node31</title>
<path fill="none" stroke="#191970" d="M849.7382,-336.2455C861.181,-327.814 877.9296,-315.4729 891.2475,-305.6598"/>
<polygon fill="#191970" stroke="#191970" points="893.4391,-308.3924 899.4135,-299.6427 889.2867,-302.757 893.4391,-308.3924"/>
</g>
<!-- Node30 -->
<g id="node31" class="node">
<title>Node30</title>
<polygon fill="none" stroke="#bfbfbf" points="792,-224.5 792,-243.5 843,-243.5 843,-224.5 792,-224.5"/>
<text text-anchor="middle" x="817.5" y="-231.5" font-family="Helvetica,sans-Serif" font-size="10.00" fill="#000000">unistd.h</text>
</g>
<!-- Node29&#45;&gt;Node30 -->
<g id="edge45" class="edge">
<title>Node29&#45;&gt;Node30</title>
<path fill="none" stroke="#191970" d="M780.3384,-280.2455C786.662,-272.3761 795.7224,-261.101 803.3136,-251.6542"/>
<polygon fill="#191970" stroke="#191970" points="806.2158,-253.6302 809.7514,-243.6427 800.7592,-249.2454 806.2158,-253.6302"/>
</g>
<!-- Node32&#45;&gt;Node10 -->
<g id="edge48" class="edge">
<title>Node32&#45;&gt;Node10</title>
<path fill="none" stroke="#191970" d="M954.6878,-224.2455C937.6527,-215.4125 912.3425,-202.2887 893.0319,-192.2758"/>
<polygon fill="#191970" stroke="#191970" points="894.5853,-189.1388 884.0966,-187.6427 891.363,-195.353 894.5853,-189.1388"/>
</g>
<!-- Node32&#45;&gt;Node15 -->
<g id="edge50" class="edge">
<title>Node32&#45;&gt;Node15</title>
<path fill="none" stroke="#191970" d="M963.9765,-224.1708C950.3415,-210.451 924.0705,-185.3008 898.5,-168 880.0674,-155.5286 857.7926,-144.2126 839.8947,-135.9249"/>
<polygon fill="#191970" stroke="#191970" points="841.0067,-132.5862 830.4539,-131.6441 838.1159,-138.9614 841.0067,-132.5862"/>
</g>
<!-- Node32&#45;&gt;Node23 -->
<g id="edge49" class="edge">
<title>Node32&#45;&gt;Node23</title>
<path fill="none" stroke="#191970" d="M974.8935,-224.2455C975.9374,-216.9382 977.4008,-206.6944 978.6851,-197.7046"/>
<polygon fill="#191970" stroke="#191970" points="982.173,-198.0372 980.1225,-187.6427 975.2434,-197.0472 982.173,-198.0372"/>
</g>
<!-- Node33&#45;&gt;Node2 -->
<g id="edge52" class="edge">
<title>Node33&#45;&gt;Node2</title>
<path fill="none" stroke="#191970" d="M1002.9459,-281.0452C974.8836,-272.9962 934.1555,-259.9951 900.5,-244 870.0081,-229.5084 837.4782,-208.0094 816.8456,-193.5232"/>
<polygon fill="#191970" stroke="#191970" points="818.6906,-190.5406 808.5125,-187.5983 814.6343,-196.2455 818.6906,-190.5406"/>
</g>
<!-- Node33&#45;&gt;Node3 -->
<g id="edge54" class="edge">
<title>Node33&#45;&gt;Node3</title>
<path fill="none" stroke="#191970" d="M1002.6274,-285.6449C988.1227,-283.825 970.9894,-281.7347 955.5,-280 796.58,-262.202 751.8972,-285.6397 597.5,-244 576.76,-238.4066 573.4019,-232.0836 553.5,-224 522.2112,-211.2914 485.9335,-198.4259 460.0061,-189.545"/>
<polygon fill="#191970" stroke="#191970" points="460.8585,-186.138 450.2641,-186.2287 458.6027,-192.7646 460.8585,-186.138"/>
</g>
<!-- Node33&#45;&gt;Node7 -->
<g id="edge53" class="edge">
<title>Node33&#45;&gt;Node7</title>
<path fill="none" stroke="#191970" d="M1049.215,-280.4453C1071.0851,-262.8115 1113.5,-222.8332 1113.5,-178 1113.5,-178 1113.5,-178 1113.5,-122 1113.5,-36.5986 444.7855,-14.843 280.5812,-10.7883"/>
<polygon fill="#191970" stroke="#191970" points="280.5886,-7.2875 270.5074,-10.5463 280.4205,-14.2855 280.5886,-7.2875"/>
</g>
<!-- Node33&#45;&gt;Node10 -->
<g id="edge55" class="edge">
<title>Node33&#45;&gt;Node10</title>
<path fill="none" stroke="#191970" d="M1005.0004,-280.3956C982.488,-272.6522 952.1245,-260.3592 928.5,-244 909.0876,-230.5576 890.9221,-210.3926 879.1331,-195.8914"/>
<polygon fill="#191970" stroke="#191970" points="881.6095,-193.38 872.6627,-187.705 876.1177,-197.7207 881.6095,-193.38"/>
</g>
<!-- Node33&#45;&gt;Node15 -->
<g id="edge57" class="edge">
<title>Node33&#45;&gt;Node15</title>
<path fill="none" stroke="#191970" d="M1039.2195,-280.4926C1045.1143,-257.6421 1056.2692,-199.2237 1026.5,-168 1003.4704,-143.8452 912.7141,-131.3935 855.5091,-125.8158"/>
<polygon fill="#191970" stroke="#191970" points="855.5251,-122.3021 845.242,-124.8531 854.8715,-129.2715 855.5251,-122.3021"/>
</g>
<!-- Node33&#45;&gt;Node23 -->
<g id="edge56" class="edge">
<title>Node33&#45;&gt;Node23</title>
<path fill="none" stroke="#191970" d="M1035.1086,-280.1473C1032.9457,-266.8324 1028.0007,-242.6194 1018.5,-224 1013.1896,-213.5927 1005.2716,-203.3325 998.1214,-195.1521"/>
<polygon fill="#191970" stroke="#191970" points="1000.6791,-192.7626 991.3522,-187.7366 995.5092,-197.4819 1000.6791,-192.7626"/>
</g>
<!-- Node33&#45;&gt;Node32 -->
<g id="edge58" class="edge">
<title>Node33&#45;&gt;Node32</title>
<path fill="none" stroke="#191970" d="M1025.5262,-280.2455C1016.3118,-272.0549 1002.9468,-260.1749 992.0703,-250.5069"/>
<polygon fill="#191970" stroke="#191970" points="994.1474,-247.6704 984.348,-243.6427 989.4968,-252.9023 994.1474,-247.6704"/>
</g>
</g>
</svg>
