<?xml version="1.0" encoding="UTF-8" standalone="no"?>
<!DOCTYPE svg PUBLIC "-//W3C//DTD SVG 1.1//EN"
 "http://www.w3.org/Graphics/SVG/1.1/DTD/svg11.dtd">
<!-- Generated by graphviz version 2.40.1 (20161225.0304)
 -->
<!-- Title: sys/include/net/gnrc/mac/types.h Pages: 1 -->
<svg width="889pt" height="319pt"
 viewBox="0.00 0.00 888.50 319.00" xmlns="http://www.w3.org/2000/svg" xmlns:xlink="http://www.w3.org/1999/xlink">
<g id="graph0" class="graph" transform="scale(1 1) rotate(0) translate(4 315)">
<title>sys/include/net/gnrc/mac/types.h</title>
<!-- Node0 -->
<g id="node1" class="node">
<title>Node0</title>
<polygon fill="#bfbfbf" stroke="#000000" points="449,-280.5 449,-310.5 553,-310.5 553,-280.5 449,-280.5"/>
<text text-anchor="start" x="457" y="-298.5" font-family="Helvetica,sans-Serif" font-size="10.00" fill="#000000">sys/include/net/gnrc</text>
<text text-anchor="middle" x="501" y="-287.5" font-family="Helvetica,sans-Serif" font-size="10.00" fill="#000000">/mac/types.h</text>
</g>
<!-- Node1 -->
<g id="node2" class="node">
<title>Node1</title>
<polygon fill="none" stroke="#bfbfbf" points="686.5,-56.5 686.5,-75.5 735.5,-75.5 735.5,-56.5 686.5,-56.5"/>
<text text-anchor="middle" x="711" y="-63.5" font-family="Helvetica,sans-Serif" font-size="10.00" fill="#000000">stdint.h</text>
</g>
<!-- Node0&#45;&gt;Node1 -->
<g id="edge1" class="edge">
<title>Node0&#45;&gt;Node1</title>
<path fill="none" stroke="#191970" d="M553.0643,-286.3328C598.4045,-277.2868 659.408,-262.1942 676,-244 716.5965,-199.4832 716.0648,-122.1041 713.2027,-85.8332"/>
<polygon fill="#191970" stroke="#191970" points="716.661,-85.2239 712.2408,-75.5952 709.6917,-85.8788 716.661,-85.2239"/>
</g>
<!-- Node2 -->
<g id="node3" class="node">
<title>Node2</title>
<polygon fill="none" stroke="#bfbfbf" points="379,-224.5 379,-243.5 435,-243.5 435,-224.5 379,-224.5"/>
<text text-anchor="middle" x="407" y="-231.5" font-family="Helvetica,sans-Serif" font-size="10.00" fill="#000000">stdbool.h</text>
</g>
<!-- Node0&#45;&gt;Node2 -->
<g id="edge2" class="edge">
<title>Node0&#45;&gt;Node2</title>
<path fill="none" stroke="#191970" d="M477.764,-280.2977C463.2666,-270.8127 444.6756,-258.6495 430.1874,-249.1705"/>
<polygon fill="#191970" stroke="#191970" points="432.0543,-246.2094 421.7699,-243.6633 428.2218,-252.0671 432.0543,-246.2094"/>
</g>
<!-- Node3 -->
<g id="node4" class="node">
<title>Node3</title>
<g id="a_node4"><a xlink:href="kernel__types_8h.html" target="_top" xlink:title="Types used by the kernel. ">
<polygon fill="none" stroke="#000000" points="395,-112.5 395,-131.5 475,-131.5 475,-112.5 395,-112.5"/>
<text text-anchor="middle" x="435" y="-119.5" font-family="Helvetica,sans-Serif" font-size="10.00" fill="#000000">kernel_types.h</text>
</a>
</g>
</g>
<!-- Node0&#45;&gt;Node3 -->
<g id="edge3" class="edge">
<title>Node0&#45;&gt;Node3</title>
<path fill="none" stroke="#191970" d="M501.5694,-280.4468C501.8898,-255.6211 499.8926,-205.147 481,-168 475.1985,-156.593 465.5205,-146.2718 456.5344,-138.3101"/>
<polygon fill="#191970" stroke="#191970" points="458.5286,-135.4157 448.6074,-131.6981 454.0448,-140.7913 458.5286,-135.4157"/>
</g>
<!-- Node8 -->
<g id="node9" class="node">
<title>Node8</title>
<g id="a_node9"><a xlink:href="include_2net_2gnrc_2pkt_8h.html" target="_top" xlink:title="General definitions for network packets and their helper functions. ">
<polygon fill="none" stroke="#000000" points="395.5,-168.5 395.5,-187.5 472.5,-187.5 472.5,-168.5 395.5,-168.5"/>
<text text-anchor="middle" x="434" y="-175.5" font-family="Helvetica,sans-Serif" font-size="10.00" fill="#000000">net/gnrc/pkt.h</text>
</a>
</g>
</g>
<!-- Node0&#45;&gt;Node8 -->
<g id="edge9" class="edge">
<title>Node0&#45;&gt;Node8</title>
<path fill="none" stroke="#191970" d="M492.2409,-280.1389C479.9502,-258.5843 457.6208,-219.4245 444.4693,-196.3604"/>
<polygon fill="#191970" stroke="#191970" points="447.4449,-194.5128 439.4509,-187.5595 441.364,-197.9802 447.4449,-194.5128"/>
</g>
<!-- Node15 -->
<g id="node16" class="node">
<title>Node15</title>
<g id="a_node16"><a xlink:href="priority__pktqueue_8h.html" target="_top" xlink:title="gnrc priority packet queue API ">
<polygon fill="none" stroke="#000000" points="529.5,-224.5 529.5,-243.5 666.5,-243.5 666.5,-224.5 529.5,-224.5"/>
<text text-anchor="middle" x="598" y="-231.5" font-family="Helvetica,sans-Serif" font-size="10.00" fill="#000000">net/gnrc/priority_pktqueue.h</text>
</a>
</g>
</g>
<!-- Node0&#45;&gt;Node15 -->
<g id="edge21" class="edge">
<title>Node0&#45;&gt;Node15</title>
<path fill="none" stroke="#191970" d="M524.9775,-280.2977C539.9376,-270.8127 559.122,-258.6495 574.0726,-249.1705"/>
<polygon fill="#191970" stroke="#191970" points="576.1873,-251.9739 582.7587,-243.6633 572.439,-246.062 576.1873,-251.9739"/>
</g>
<!-- Node17 -->
<g id="node18" class="node">
<title>Node17</title>
<g id="a_node18"><a xlink:href="sys_2include_2net_2ieee802154_8h.html" target="_top" xlink:title="IEEE 802.15.4 header definitions. ">
<polygon fill="none" stroke="#000000" points="739.5,-224.5 739.5,-243.5 830.5,-243.5 830.5,-224.5 739.5,-224.5"/>
<text text-anchor="middle" x="785" y="-231.5" font-family="Helvetica,sans-Serif" font-size="10.00" fill="#000000">net/ieee802154.h</text>
</a>
</g>
</g>
<!-- Node0&#45;&gt;Node17 -->
<g id="edge27" class="edge">
<title>Node0&#45;&gt;Node17</title>
<path fill="none" stroke="#191970" d="M553.09,-284.22C603.5321,-273.2968 679.6878,-256.8053 730.8243,-245.7317"/>
<polygon fill="#191970" stroke="#191970" points="731.6703,-249.1297 740.703,-243.5925 730.1887,-242.2883 731.6703,-249.1297"/>
</g>
<!-- Node20 -->
<g id="node21" class="node">
<title>Node20</title>
<g id="a_node21"><a xlink:href="mac_2mac_8h.html" target="_top" xlink:title="Definitions of GNRC_MAC. ">
<polygon fill="none" stroke="#000000" points="99,-168.5 99,-187.5 203,-187.5 203,-168.5 99,-168.5"/>
<text text-anchor="middle" x="151" y="-175.5" font-family="Helvetica,sans-Serif" font-size="10.00" fill="#000000">net/gnrc/mac/mac.h</text>
</a>
</g>
</g>
<!-- Node0&#45;&gt;Node20 -->
<g id="edge35" class="edge">
<title>Node0&#45;&gt;Node20</title>
<path fill="none" stroke="#191970" d="M456.3168,-280.4992C386.9019,-257.1957 254.3787,-212.7057 189.1695,-190.814"/>
<polygon fill="#191970" stroke="#191970" points="190.2708,-187.4918 179.6768,-187.6272 188.0429,-194.1279 190.2708,-187.4918"/>
</g>
<!-- Node3&#45;&gt;Node1 -->
<g id="edge4" class="edge">
<title>Node3&#45;&gt;Node1</title>
<path fill="none" stroke="#191970" d="M475.1104,-113.8095C478.1185,-113.1967 481.1072,-112.5883 484,-112 552.217,-98.1272 631.9815,-81.9808 676.4785,-72.9801"/>
<polygon fill="#191970" stroke="#191970" points="677.3685,-76.3711 686.4761,-70.958 675.9807,-69.51 677.3685,-76.3711"/>
</g>
<!-- Node4 -->
<g id="node5" class="node">
<title>Node4</title>
<g id="a_node5"><a xlink:href="inttypes_8h.html" target="_top" xlink:title="Adds include for missing inttype definitions. ">
<polygon fill="none" stroke="#000000" points="302.5,-56.5 302.5,-75.5 361.5,-75.5 361.5,-56.5 302.5,-56.5"/>
<text text-anchor="middle" x="332" y="-63.5" font-family="Helvetica,sans-Serif" font-size="10.00" fill="#000000">inttypes.h</text>
</a>
</g>
</g>
<!-- Node3&#45;&gt;Node4 -->
<g id="edge5" class="edge">
<title>Node3&#45;&gt;Node4</title>
<path fill="none" stroke="#191970" d="M417.0588,-112.2455C400.96,-103.4928 377.1121,-90.527 358.7609,-80.5496"/>
<polygon fill="#191970" stroke="#191970" points="360.1929,-77.3444 349.7356,-75.6427 356.8493,-83.4942 360.1929,-77.3444"/>
</g>
<!-- Node5 -->
<g id="node6" class="node">
<title>Node5</title>
<polygon fill="none" stroke="#bfbfbf" points="418,-56.5 418,-75.5 466,-75.5 466,-56.5 418,-56.5"/>
<text text-anchor="middle" x="442" y="-63.5" font-family="Helvetica,sans-Serif" font-size="10.00" fill="#000000">limits.h</text>
</g>
<!-- Node3&#45;&gt;Node5 -->
<g id="edge6" class="edge">
<title>Node3&#45;&gt;Node5</title>
<path fill="none" stroke="#191970" d="M436.2193,-112.2455C437.1327,-104.9382 438.4132,-94.6944 439.5369,-85.7046"/>
<polygon fill="#191970" stroke="#191970" points="443.0272,-85.9996 440.7947,-75.6427 436.0813,-85.1313 443.0272,-85.9996"/>
</g>
<!-- Node6 -->
<g id="node7" class="node">
<title>Node6</title>
<polygon fill="none" stroke="#bfbfbf" points="364,-.5 364,-19.5 416,-19.5 416,-.5 364,-.5"/>
<text text-anchor="middle" x="390" y="-7.5" font-family="Helvetica,sans-Serif" font-size="10.00" fill="#000000">stddef.h</text>
</g>
<!-- Node3&#45;&gt;Node6 -->
<g id="edge7" class="edge">
<title>Node3&#45;&gt;Node6</title>
<path fill="none" stroke="#191970" d="M428.7328,-112.467C422.9815,-103.3906 414.5382,-89.1956 409,-76 402.6551,-60.8824 397.6448,-42.9643 394.3658,-29.6153"/>
<polygon fill="#191970" stroke="#191970" points="397.7171,-28.5759 392.0274,-19.6385 390.9018,-30.1734 397.7171,-28.5759"/>
</g>
<!-- Node7 -->
<g id="node8" class="node">
<title>Node7</title>
<polygon fill="none" stroke="#bfbfbf" points="484,-56.5 484,-75.5 552,-75.5 552,-56.5 484,-56.5"/>
<text text-anchor="middle" x="518" y="-63.5" font-family="Helvetica,sans-Serif" font-size="10.00" fill="#000000">sys/types.h</text>
</g>
<!-- Node3&#45;&gt;Node7 -->
<g id="edge8" class="edge">
<title>Node3&#45;&gt;Node7</title>
<path fill="none" stroke="#191970" d="M449.4575,-112.2455C462.0732,-103.7337 480.5944,-91.2375 495.2045,-81.3801"/>
<polygon fill="#191970" stroke="#191970" points="497.3761,-84.1371 503.7082,-75.6427 493.4609,-78.3343 497.3761,-84.1371"/>
</g>
<!-- Node8&#45;&gt;Node3 -->
<g id="edge14" class="edge">
<title>Node8&#45;&gt;Node3</title>
<path fill="none" stroke="#191970" d="M434.1742,-168.2455C434.3047,-160.9382 434.4876,-150.6944 434.6481,-141.7046"/>
<polygon fill="#191970" stroke="#191970" points="438.1486,-141.7036 434.8278,-131.6427 431.1497,-141.5786 438.1486,-141.7036"/>
</g>
<!-- Node8&#45;&gt;Node4 -->
<g id="edge10" class="edge">
<title>Node8&#45;&gt;Node4</title>
<path fill="none" stroke="#191970" d="M423.3448,-168.4787C413.3737,-159.4106 398.2233,-145.2212 386,-132 371.4898,-116.3053 356.1711,-97.3214 345.5708,-83.7501"/>
<polygon fill="#191970" stroke="#191970" points="348.2307,-81.4683 339.3422,-75.7024 342.695,-85.7527 348.2307,-81.4683"/>
</g>
<!-- Node9 -->
<g id="node10" class="node">
<title>Node9</title>
<g id="a_node10"><a xlink:href="stdlib_8h.html" target="_top" xlink:title="stdlib.h wrapper for MSP430 ">
<polygon fill="none" stroke="#000000" points="493,-112.5 493,-131.5 541,-131.5 541,-112.5 493,-112.5"/>
<text text-anchor="middle" x="517" y="-119.5" font-family="Helvetica,sans-Serif" font-size="10.00" fill="#000000">stdlib.h</text>
</a>
</g>
</g>
<!-- Node8&#45;&gt;Node9 -->
<g id="edge11" class="edge">
<title>Node8&#45;&gt;Node9</title>
<path fill="none" stroke="#191970" d="M448.4575,-168.2455C461.0732,-159.7337 479.5944,-147.2375 494.2045,-137.3801"/>
<polygon fill="#191970" stroke="#191970" points="496.3761,-140.1371 502.7082,-131.6427 492.4609,-134.3343 496.3761,-140.1371"/>
</g>
<!-- Node11 -->
<g id="node12" class="node">
<title>Node11</title>
<g id="a_node12"><a xlink:href="nettype_8h.html" target="_top" xlink:title="Protocol type definitions. ">
<polygon fill="none" stroke="#000000" points="195.5,-112.5 195.5,-131.5 290.5,-131.5 290.5,-112.5 195.5,-112.5"/>
<text text-anchor="middle" x="243" y="-119.5" font-family="Helvetica,sans-Serif" font-size="10.00" fill="#000000">net/gnrc/nettype.h</text>
</a>
</g>
</g>
<!-- Node8&#45;&gt;Node11 -->
<g id="edge15" class="edge">
<title>Node8&#45;&gt;Node11</title>
<path fill="none" stroke="#191970" d="M401.1659,-168.3733C369.1305,-158.9807 320.2513,-144.6496 285.3145,-134.4064"/>
<polygon fill="#191970" stroke="#191970" points="285.9864,-130.9561 275.4056,-131.5011 284.0169,-137.6733 285.9864,-130.9561"/>
</g>
<!-- Node10 -->
<g id="node11" class="node">
<title>Node10</title>
<g id="a_node11"><a xlink:href="malloc_8h.html" target="_top" xlink:title="malloc.h">
<polygon fill="none" stroke="#000000" points="570.5,-56.5 570.5,-75.5 623.5,-75.5 623.5,-56.5 570.5,-56.5"/>
<text text-anchor="middle" x="597" y="-63.5" font-family="Helvetica,sans-Serif" font-size="10.00" fill="#000000">malloc.h</text>
</a>
</g>
</g>
<!-- Node9&#45;&gt;Node10 -->
<g id="edge12" class="edge">
<title>Node9&#45;&gt;Node10</title>
<path fill="none" stroke="#191970" d="M525.6681,-112.2455C536.2834,-103.6534 554.0907,-91.0014 569.3577,-81.1018"/>
<polygon fill="#191970" stroke="#191970" points="571.4031,-83.9493 577.9796,-75.6427 567.6584,-78.0352 571.4031,-83.9493"/>
</g>
<!-- Node10&#45;&gt;Node9 -->
<g id="edge13" class="edge">
<title>Node10&#45;&gt;Node9</title>
<path fill="none" stroke="#191970" d="M588.4699,-75.6427C577.9172,-84.1994 560.1304,-96.8456 544.8415,-106.769"/>
<polygon fill="#191970" stroke="#191970" points="542.774,-103.9355 536.2018,-112.2455 546.5217,-109.8478 542.774,-103.9355"/>
</g>
<!-- Node11&#45;&gt;Node4 -->
<g id="edge16" class="edge">
<title>Node11&#45;&gt;Node4</title>
<path fill="none" stroke="#191970" d="M258.5026,-112.2455C272.158,-103.6534 292.2657,-91.0014 307.9989,-81.1018"/>
<polygon fill="#191970" stroke="#191970" points="310.0751,-83.9307 316.675,-75.6427 306.3471,-78.006 310.0751,-83.9307"/>
</g>
<!-- Node12 -->
<g id="node13" class="node">
<title>Node12</title>
<g id="a_node13"><a xlink:href="kernel__defines_8h.html" target="_top" xlink:title="Common macros and compiler attributes/pragmas configuration. ">
<polygon fill="none" stroke="#000000" points="0,-56.5 0,-75.5 88,-75.5 88,-56.5 0,-56.5"/>
<text text-anchor="middle" x="44" y="-63.5" font-family="Helvetica,sans-Serif" font-size="10.00" fill="#000000">kernel_defines.h</text>
</a>
</g>
</g>
<!-- Node11&#45;&gt;Node12 -->
<g id="edge17" class="edge">
<title>Node11&#45;&gt;Node12</title>
<path fill="none" stroke="#191970" d="M208.7907,-112.3733C175.2703,-102.9404 124.0495,-88.5265 87.619,-78.2747"/>
<polygon fill="#191970" stroke="#191970" points="88.3372,-74.8409 77.7629,-75.5011 86.4409,-81.5792 88.3372,-74.8409"/>
</g>
<!-- Node13 -->
<g id="node14" class="node">
<title>Node13</title>
<g id="a_node14"><a xlink:href="ethertype_8h.html" target="_top" xlink:title="Ether type definitions. ">
<polygon fill="none" stroke="#000000" points="202,-56.5 202,-75.5 284,-75.5 284,-56.5 202,-56.5"/>
<text text-anchor="middle" x="243" y="-63.5" font-family="Helvetica,sans-Serif" font-size="10.00" fill="#000000">net/ethertype.h</text>
</a>
</g>
</g>
<!-- Node11&#45;&gt;Node13 -->
<g id="edge19" class="edge">
<title>Node11&#45;&gt;Node13</title>
<path fill="none" stroke="#191970" d="M243,-112.2455C243,-104.9382 243,-94.6944 243,-85.7046"/>
<polygon fill="#191970" stroke="#191970" points="246.5001,-85.6426 243,-75.6427 239.5001,-85.6427 246.5001,-85.6426"/>
</g>
<!-- Node14 -->
<g id="node15" class="node">
<title>Node14</title>
<g id="a_node15"><a xlink:href="protnum_8h.html" target="_top" xlink:title="Protocol number definitions. ">
<polygon fill="none" stroke="#000000" points="106.5,-56.5 106.5,-75.5 183.5,-75.5 183.5,-56.5 106.5,-56.5"/>
<text text-anchor="middle" x="145" y="-63.5" font-family="Helvetica,sans-Serif" font-size="10.00" fill="#000000">net/protnum.h</text>
</a>
</g>
</g>
<!-- Node11&#45;&gt;Node14 -->
<g id="edge20" class="edge">
<title>Node11&#45;&gt;Node14</title>
<path fill="none" stroke="#191970" d="M225.9297,-112.2455C210.753,-103.5731 188.3379,-90.7645 170.9437,-80.825"/>
<polygon fill="#191970" stroke="#191970" points="172.2936,-77.5653 161.8747,-75.6427 168.8206,-83.643 172.2936,-77.5653"/>
</g>
<!-- Node12&#45;&gt;Node6 -->
<g id="edge18" class="edge">
<title>Node12&#45;&gt;Node6</title>
<path fill="none" stroke="#191970" d="M88.228,-57.5498C91.1948,-57.0155 94.1396,-56.4943 97,-56 189.2359,-40.062 298.22,-23.5642 353.6582,-15.3381"/>
<polygon fill="#191970" stroke="#191970" points="354.3113,-18.7797 363.691,-13.8531 353.2862,-11.8551 354.3113,-18.7797"/>
</g>
<!-- Node15&#45;&gt;Node1 -->
<g id="edge22" class="edge">
<title>Node15&#45;&gt;Node1</title>
<path fill="none" stroke="#191970" d="M604.3991,-224.4862C622.5711,-197.4695 674.7186,-119.9405 698.6842,-84.3102"/>
<polygon fill="#191970" stroke="#191970" points="701.7126,-86.079 704.3896,-75.8279 695.9042,-82.1721 701.7126,-86.079"/>
</g>
<!-- Node15&#45;&gt;Node8 -->
<g id="edge26" class="edge">
<title>Node15&#45;&gt;Node8</title>
<path fill="none" stroke="#191970" d="M569.8074,-224.3733C542.6547,-215.1016 501.4093,-201.0178 471.4975,-190.804"/>
<polygon fill="#191970" stroke="#191970" points="472.4192,-187.4204 461.8247,-187.5011 470.1572,-194.0449 472.4192,-187.4204"/>
</g>
<!-- Node16 -->
<g id="node17" class="node">
<title>Node16</title>
<g id="a_node17"><a xlink:href="priority__queue_8h.html" target="_top" xlink:title="A simple priority queue. ">
<polygon fill="none" stroke="#000000" points="559,-112.5 559,-131.5 645,-131.5 645,-112.5 559,-112.5"/>
<text text-anchor="middle" x="602" y="-119.5" font-family="Helvetica,sans-Serif" font-size="10.00" fill="#000000">priority_queue.h</text>
</a>
</g>
</g>
<!-- Node15&#45;&gt;Node16 -->
<g id="edge23" class="edge">
<title>Node15&#45;&gt;Node16</title>
<path fill="none" stroke="#191970" d="M598.341,-224.4509C598.9934,-206.184 600.4302,-165.9553 601.2965,-141.6976"/>
<polygon fill="#191970" stroke="#191970" points="604.8006,-141.6435 601.6598,-131.5249 597.805,-141.3936 604.8006,-141.6435"/>
</g>
<!-- Node16&#45;&gt;Node1 -->
<g id="edge25" class="edge">
<title>Node16&#45;&gt;Node1</title>
<path fill="none" stroke="#191970" d="M620.9864,-112.2455C638.1792,-103.4125 663.7238,-90.2887 683.2132,-80.2758"/>
<polygon fill="#191970" stroke="#191970" points="684.9359,-83.3257 692.2312,-75.6427 681.737,-77.0993 684.9359,-83.3257"/>
</g>
<!-- Node16&#45;&gt;Node6 -->
<g id="edge24" class="edge">
<title>Node16&#45;&gt;Node6</title>
<path fill="none" stroke="#191970" d="M612.8836,-112.1851C626.7729,-98.4824 647.3757,-73.3523 633,-56 607.1705,-24.8223 487.522,-14.6165 426.301,-11.4035"/>
<polygon fill="#191970" stroke="#191970" points="426.4512,-7.9067 416.292,-10.9134 426.1088,-14.8984 426.4512,-7.9067"/>
</g>
<!-- Node17&#45;&gt;Node1 -->
<g id="edge28" class="edge">
<title>Node17&#45;&gt;Node1</title>
<path fill="none" stroke="#191970" d="M780.8094,-224.4862C769.0105,-197.6994 735.3392,-121.2565 719.4699,-85.2289"/>
<polygon fill="#191970" stroke="#191970" points="722.5631,-83.5686 715.3289,-75.8279 716.157,-86.3903 722.5631,-83.5686"/>
</g>
<!-- Node17&#45;&gt;Node9 -->
<g id="edge29" class="edge">
<title>Node17&#45;&gt;Node9</title>
<path fill="none" stroke="#191970" d="M762.1505,-224.4509C714.3856,-204.4895 603.8681,-158.3031 549.0397,-135.3897"/>
<polygon fill="#191970" stroke="#191970" points="550.368,-132.1515 539.7917,-131.5249 547.6688,-138.6102 550.368,-132.1515"/>
</g>
<!-- Node18 -->
<g id="node19" class="node">
<title>Node18</title>
<g id="a_node19"><a xlink:href="byteorder_8h.html" target="_top" xlink:title="Functions to work with different byte orders. ">
<polygon fill="none" stroke="#000000" points="815.5,-112.5 815.5,-131.5 880.5,-131.5 880.5,-112.5 815.5,-112.5"/>
<text text-anchor="middle" x="848" y="-119.5" font-family="Helvetica,sans-Serif" font-size="10.00" fill="#000000">byteorder.h</text>
</a>
</g>
</g>
<!-- Node17&#45;&gt;Node18 -->
<g id="edge30" class="edge">
<title>Node17&#45;&gt;Node18</title>
<path fill="none" stroke="#191970" d="M809.4712,-224.3462C824.7107,-216.9011 843.0612,-204.9799 852,-188 859.5106,-173.7331 857.5759,-155.2543 854.2993,-141.4799"/>
<polygon fill="#191970" stroke="#191970" points="857.6034,-140.2992 851.5386,-131.612 850.8623,-142.1852 857.6034,-140.2992"/>
</g>
<!-- Node19 -->
<g id="node20" class="node">
<title>Node19</title>
<g id="a_node20"><a xlink:href="eui64_8h.html" target="_top" xlink:title="EUI&#45;64 data type definition. ">
<polygon fill="none" stroke="#000000" points="777.5,-168.5 777.5,-187.5 842.5,-187.5 842.5,-168.5 777.5,-168.5"/>
<text text-anchor="middle" x="810" y="-175.5" font-family="Helvetica,sans-Serif" font-size="10.00" fill="#000000">net/eui64.h</text>
</a>
</g>
</g>
<!-- Node17&#45;&gt;Node19 -->
<g id="edge32" class="edge">
<title>Node17&#45;&gt;Node19</title>
<path fill="none" stroke="#191970" d="M789.3547,-224.2455C792.7244,-216.6973 797.493,-206.0158 801.5983,-196.8197"/>
<polygon fill="#191970" stroke="#191970" points="804.8147,-198.2009 805.6952,-187.6427 798.4227,-195.3473 804.8147,-198.2009"/>
</g>
<!-- Node18&#45;&gt;Node1 -->
<g id="edge31" class="edge">
<title>Node18&#45;&gt;Node1</title>
<path fill="none" stroke="#191970" d="M824.4489,-112.3733C802.1609,-103.2629 768.5063,-89.5062 743.6363,-79.3404"/>
<polygon fill="#191970" stroke="#191970" points="744.8247,-76.0451 734.2438,-75.5011 742.1761,-82.5247 744.8247,-76.0451"/>
</g>
<!-- Node19&#45;&gt;Node1 -->
<g id="edge33" class="edge">
<title>Node19&#45;&gt;Node1</title>
<path fill="none" stroke="#191970" d="M803.9505,-168.0843C795.5645,-154.698 779.5594,-130.4044 763,-112 753.3005,-101.2198 741.2326,-90.4123 731.1648,-81.9841"/>
<polygon fill="#191970" stroke="#191970" points="733.227,-79.1489 723.2742,-75.5169 728.7897,-84.5629 733.227,-79.1489"/>
</g>
<!-- Node19&#45;&gt;Node18 -->
<g id="edge34" class="edge">
<title>Node19&#45;&gt;Node18</title>
<path fill="none" stroke="#191970" d="M816.6191,-168.2455C821.9046,-160.4564 829.4541,-149.3308 835.8238,-139.9439"/>
<polygon fill="#191970" stroke="#191970" points="838.7379,-141.8827 841.4568,-131.6427 832.9455,-137.9522 838.7379,-141.8827"/>
</g>
<!-- Node20&#45;&gt;Node12 -->
<g id="edge36" class="edge">
<title>Node20&#45;&gt;Node12</title>
<path fill="none" stroke="#191970" d="M141.8772,-168.4509C123.7151,-149.4401 82.828,-106.6423 60.0653,-82.816"/>
<polygon fill="#191970" stroke="#191970" points="62.5383,-80.3378 53.0997,-75.5249 57.4768,-85.1733 62.5383,-80.3378"/>
</g>
</g>
</svg>
