<?xml version="1.0" encoding="UTF-8" standalone="no"?>
<!DOCTYPE svg PUBLIC "-//W3C//DTD SVG 1.1//EN"
 "http://www.w3.org/Graphics/SVG/1.1/DTD/svg11.dtd">
<!-- Generated by graphviz version 2.40.1 (20161225.0304)
 -->
<!-- Title: sys/log/log_color/log_module.h Pages: 1 -->
<svg width="242pt" height="263pt"
 viewBox="0.00 0.00 242.00 263.00" xmlns="http://www.w3.org/2000/svg" xmlns:xlink="http://www.w3.org/1999/xlink">
<g id="graph0" class="graph" transform="scale(1 1) rotate(0) translate(4 259)">
<title>sys/log/log_color/log_module.h</title>
<!-- Node0 -->
<g id="node1" class="node">
<title>Node0</title>
<polygon fill="#bfbfbf" stroke="#000000" points="72,-224.5 72,-254.5 178,-254.5 178,-224.5 72,-224.5"/>
<text text-anchor="start" x="80" y="-242.5" font-family="Helvetica,sans-Serif" font-size="10.00" fill="#000000">sys/log/log_color/log</text>
<text text-anchor="middle" x="125" y="-231.5" font-family="Helvetica,sans-Serif" font-size="10.00" fill="#000000">_module.h</text>
</g>
<!-- Node1 -->
<g id="node2" class="node">
<title>Node1</title>
<g id="a_node2"><a xlink:href="assert_8h.html" target="_top" xlink:title="POSIX.1&#45;2008 compliant version of the assert macro. ">
<polygon fill="none" stroke="#000000" points="18,-168.5 18,-187.5 70,-187.5 70,-168.5 18,-168.5"/>
<text text-anchor="middle" x="44" y="-175.5" font-family="Helvetica,sans-Serif" font-size="10.00" fill="#000000">assert.h</text>
</a>
</g>
</g>
<!-- Node0&#45;&gt;Node1 -->
<g id="edge1" class="edge">
<title>Node0&#45;&gt;Node1</title>
<path fill="none" stroke="#191970" d="M104.9775,-224.2977C92.914,-215.1384 77.5612,-203.4816 65.2789,-194.1562"/>
<polygon fill="#191970" stroke="#191970" points="67.0501,-191.1065 56.9691,-187.8469 62.8171,-196.6816 67.0501,-191.1065"/>
</g>
<!-- Node5 -->
<g id="node6" class="node">
<title>Node5</title>
<g id="a_node6"><a xlink:href="stdio_8h.html" target="_top" xlink:title="stdio.h wrapper for MSP430 ">
<polygon fill="none" stroke="#000000" points="139,-112.5 139,-131.5 185,-131.5 185,-112.5 139,-112.5"/>
<text text-anchor="middle" x="162" y="-119.5" font-family="Helvetica,sans-Serif" font-size="10.00" fill="#000000">stdio.h</text>
</a>
</g>
</g>
<!-- Node0&#45;&gt;Node5 -->
<g id="edge5" class="edge">
<title>Node0&#45;&gt;Node5</title>
<path fill="none" stroke="#191970" d="M119.1947,-224.4041C114.4031,-209.5177 109.5008,-186.3899 117,-168 121.7156,-156.4363 130.8927,-146.2008 139.7362,-138.3383"/>
<polygon fill="#191970" stroke="#191970" points="142.1496,-140.8842 147.6263,-131.8147 137.6891,-135.4894 142.1496,-140.8842"/>
</g>
<!-- Node6 -->
<g id="node7" class="node">
<title>Node6</title>
<polygon fill="none" stroke="#bfbfbf" points="126,-168.5 126,-187.5 178,-187.5 178,-168.5 126,-168.5"/>
<text text-anchor="middle" x="152" y="-175.5" font-family="Helvetica,sans-Serif" font-size="10.00" fill="#000000">stdarg.h</text>
</g>
<!-- Node0&#45;&gt;Node6 -->
<g id="edge6" class="edge">
<title>Node0&#45;&gt;Node6</title>
<path fill="none" stroke="#191970" d="M131.6742,-224.2977C135.2659,-216.1166 139.7324,-205.943 143.5629,-197.2179"/>
<polygon fill="#191970" stroke="#191970" points="146.8618,-198.4104 147.677,-187.8469 140.4522,-195.5964 146.8618,-198.4104"/>
</g>
<!-- Node7 -->
<g id="node8" class="node">
<title>Node7</title>
<g id="a_node8"><a xlink:href="log_8h.html" target="_top" xlink:title="System logging header. ">
<polygon fill="none" stroke="#000000" points="196,-168.5 196,-187.5 234,-187.5 234,-168.5 196,-168.5"/>
<text text-anchor="middle" x="215" y="-175.5" font-family="Helvetica,sans-Serif" font-size="10.00" fill="#000000">log.h</text>
</a>
</g>
</g>
<!-- Node0&#45;&gt;Node7 -->
<g id="edge7" class="edge">
<title>Node0&#45;&gt;Node7</title>
<path fill="none" stroke="#191970" d="M147.2472,-224.2977C160.9967,-214.9022 178.5921,-202.8787 192.4057,-193.4395"/>
<polygon fill="#191970" stroke="#191970" points="194.5768,-196.195 200.8586,-187.6633 190.6275,-190.4155 194.5768,-196.195"/>
</g>
<!-- Node2 -->
<g id="node3" class="node">
<title>Node2</title>
<g id="a_node3"><a xlink:href="panic_8h.html" target="_top" xlink:title="Crash handling header. ">
<polygon fill="none" stroke="#000000" points="20,-112.5 20,-131.5 68,-131.5 68,-112.5 20,-112.5"/>
<text text-anchor="middle" x="44" y="-119.5" font-family="Helvetica,sans-Serif" font-size="10.00" fill="#000000">panic.h</text>
</a>
</g>
</g>
<!-- Node1&#45;&gt;Node2 -->
<g id="edge2" class="edge">
<title>Node1&#45;&gt;Node2</title>
<path fill="none" stroke="#191970" d="M44,-168.2455C44,-160.9382 44,-150.6944 44,-141.7046"/>
<polygon fill="#191970" stroke="#191970" points="47.5001,-141.6426 44,-131.6427 40.5001,-141.6427 47.5001,-141.6426"/>
</g>
<!-- Node3 -->
<g id="node4" class="node">
<title>Node3</title>
<g id="a_node4"><a xlink:href="kernel__defines_8h.html" target="_top" xlink:title="Common macros and compiler attributes/pragmas configuration. ">
<polygon fill="none" stroke="#000000" points="0,-56.5 0,-75.5 88,-75.5 88,-56.5 0,-56.5"/>
<text text-anchor="middle" x="44" y="-63.5" font-family="Helvetica,sans-Serif" font-size="10.00" fill="#000000">kernel_defines.h</text>
</a>
</g>
</g>
<!-- Node2&#45;&gt;Node3 -->
<g id="edge3" class="edge">
<title>Node2&#45;&gt;Node3</title>
<path fill="none" stroke="#191970" d="M44,-112.2455C44,-104.9382 44,-94.6944 44,-85.7046"/>
<polygon fill="#191970" stroke="#191970" points="47.5001,-85.6426 44,-75.6427 40.5001,-85.6427 47.5001,-85.6426"/>
</g>
<!-- Node4 -->
<g id="node5" class="node">
<title>Node4</title>
<polygon fill="none" stroke="#bfbfbf" points="18,-.5 18,-19.5 70,-19.5 70,-.5 18,-.5"/>
<text text-anchor="middle" x="44" y="-7.5" font-family="Helvetica,sans-Serif" font-size="10.00" fill="#000000">stddef.h</text>
</g>
<!-- Node3&#45;&gt;Node4 -->
<g id="edge4" class="edge">
<title>Node3&#45;&gt;Node4</title>
<path fill="none" stroke="#191970" d="M44,-56.2455C44,-48.9382 44,-38.6944 44,-29.7046"/>
<polygon fill="#191970" stroke="#191970" points="47.5001,-29.6426 44,-19.6427 40.5001,-29.6427 47.5001,-29.6426"/>
</g>
<!-- Node7&#45;&gt;Node5 -->
<g id="edge8" class="edge">
<title>Node7&#45;&gt;Node5</title>
<path fill="none" stroke="#191970" d="M205.7681,-168.2455C198.1683,-160.2155 187.2123,-148.6394 178.1632,-139.0781"/>
<polygon fill="#191970" stroke="#191970" points="180.542,-136.4998 171.1261,-131.6427 175.4579,-141.3115 180.542,-136.4998"/>
</g>
</g>
</svg>
