<?xml version="1.0" encoding="UTF-8" standalone="no"?>
<!DOCTYPE svg PUBLIC "-//W3C//DTD SVG 1.1//EN"
 "http://www.w3.org/Graphics/SVG/1.1/DTD/svg11.dtd">
<!-- Generated by graphviz version 2.40.1 (20161225.0304)
 -->
<!-- Title: sys/include/net/ieee802154.h Pages: 1 -->
<svg width="201pt" height="196pt"
 viewBox="0.00 0.00 200.78 196.00" xmlns="http://www.w3.org/2000/svg" xmlns:xlink="http://www.w3.org/1999/xlink">
<g id="graph0" class="graph" transform="scale(1 1) rotate(0) translate(4 192)">
<title>sys/include/net/ieee802154.h</title>
<!-- Node0 -->
<g id="node1" class="node">
<title>Node0</title>
<polygon fill="#bfbfbf" stroke="#000000" points="1.7836,-168.5 1.7836,-187.5 144.7836,-187.5 144.7836,-168.5 1.7836,-168.5"/>
<text text-anchor="middle" x="73.2836" y="-175.5" font-family="Helvetica,sans-Serif" font-size="10.00" fill="#000000">sys/include/net/ieee802154.h</text>
</g>
<!-- Node1 -->
<g id="node2" class="node">
<title>Node1</title>
<polygon fill="none" stroke="#bfbfbf" points="99.7836,-.5 99.7836,-19.5 148.7836,-19.5 148.7836,-.5 99.7836,-.5"/>
<text text-anchor="middle" x="124.2836" y="-7.5" font-family="Helvetica,sans-Serif" font-size="10.00" fill="#000000">stdint.h</text>
</g>
<!-- Node0&#45;&gt;Node1 -->
<g id="edge1" class="edge">
<title>Node0&#45;&gt;Node1</title>
<path fill="none" stroke="#191970" d="M53.3045,-168.3658C39.6648,-160.6081 22.6125,-148.3101 14.2836,-132 -1.0837,-101.9072 -6.5309,-84.0668 12.2836,-56 29.4362,-30.4122 63.6529,-19.0457 89.7763,-14.0037"/>
<polygon fill="#191970" stroke="#191970" points="90.4239,-17.4438 99.6927,-12.3116 89.2464,-10.5436 90.4239,-17.4438"/>
</g>
<!-- Node2 -->
<g id="node3" class="node">
<title>Node2</title>
<g id="a_node3"><a xlink:href="stdlib_8h.html" target="_top" xlink:title="stdlib.h wrapper for MSP430 ">
<polygon fill="none" stroke="#000000" points="23.2836,-112.5 23.2836,-131.5 71.2836,-131.5 71.2836,-112.5 23.2836,-112.5"/>
<text text-anchor="middle" x="47.2836" y="-119.5" font-family="Helvetica,sans-Serif" font-size="10.00" fill="#000000">stdlib.h</text>
</a>
</g>
</g>
<!-- Node0&#45;&gt;Node2 -->
<g id="edge2" class="edge">
<title>Node0&#45;&gt;Node2</title>
<path fill="none" stroke="#191970" d="M68.7547,-168.2455C65.2502,-160.6973 60.2909,-150.0158 56.0213,-140.8197"/>
<polygon fill="#191970" stroke="#191970" points="59.1462,-139.2389 51.7605,-131.6427 52.7972,-142.1867 59.1462,-139.2389"/>
</g>
<!-- Node4 -->
<g id="node5" class="node">
<title>Node4</title>
<g id="a_node5"><a xlink:href="byteorder_8h.html" target="_top" xlink:title="Functions to work with different byte orders. ">
<polygon fill="none" stroke="#000000" points="91.7836,-56.5 91.7836,-75.5 156.7836,-75.5 156.7836,-56.5 91.7836,-56.5"/>
<text text-anchor="middle" x="124.2836" y="-63.5" font-family="Helvetica,sans-Serif" font-size="10.00" fill="#000000">byteorder.h</text>
</a>
</g>
</g>
<!-- Node0&#45;&gt;Node4 -->
<g id="edge5" class="edge">
<title>Node0&#45;&gt;Node4</title>
<path fill="none" stroke="#191970" d="M77.6318,-168.4509C86.0627,-149.936 104.7674,-108.8591 115.7599,-84.7187"/>
<polygon fill="#191970" stroke="#191970" points="118.9874,-86.0762 119.9463,-75.5249 112.6168,-83.1753 118.9874,-86.0762"/>
</g>
<!-- Node5 -->
<g id="node6" class="node">
<title>Node5</title>
<g id="a_node6"><a xlink:href="eui64_8h.html" target="_top" xlink:title="EUI&#45;64 data type definition. ">
<polygon fill="none" stroke="#000000" points="127.7836,-112.5 127.7836,-131.5 192.7836,-131.5 192.7836,-112.5 127.7836,-112.5"/>
<text text-anchor="middle" x="160.2836" y="-119.5" font-family="Helvetica,sans-Serif" font-size="10.00" fill="#000000">net/eui64.h</text>
</a>
</g>
</g>
<!-- Node0&#45;&gt;Node5 -->
<g id="edge7" class="edge">
<title>Node0&#45;&gt;Node5</title>
<path fill="none" stroke="#191970" d="M88.4378,-168.2455C101.7863,-159.6534 121.4422,-147.0014 136.8218,-137.1018"/>
<polygon fill="#191970" stroke="#191970" points="138.7887,-139.9982 145.303,-131.6427 134.9999,-134.1121 138.7887,-139.9982"/>
</g>
<!-- Node3 -->
<g id="node4" class="node">
<title>Node3</title>
<g id="a_node4"><a xlink:href="malloc_8h.html" target="_top" xlink:title="malloc.h">
<polygon fill="none" stroke="#000000" points="20.7836,-56.5 20.7836,-75.5 73.7836,-75.5 73.7836,-56.5 20.7836,-56.5"/>
<text text-anchor="middle" x="47.2836" y="-63.5" font-family="Helvetica,sans-Serif" font-size="10.00" fill="#000000">malloc.h</text>
</a>
</g>
</g>
<!-- Node2&#45;&gt;Node3 -->
<g id="edge3" class="edge">
<title>Node2&#45;&gt;Node3</title>
<path fill="none" stroke="#191970" d="M42.0167,-112.2455C40.6057,-104.9382 40.2015,-94.6944 40.8041,-85.7046"/>
<polygon fill="#191970" stroke="#191970" points="44.2947,-85.9945 42.0384,-75.6427 37.3467,-85.1421 44.2947,-85.9945"/>
</g>
<!-- Node3&#45;&gt;Node2 -->
<g id="edge4" class="edge">
<title>Node3&#45;&gt;Node2</title>
<path fill="none" stroke="#191970" d="M52.5287,-75.6427C53.95,-82.9199 54.3645,-93.155 53.7722,-102.1575"/>
<polygon fill="#191970" stroke="#191970" points="50.2783,-101.8972 52.5504,-112.2455 57.2275,-102.739 50.2783,-101.8972"/>
</g>
<!-- Node4&#45;&gt;Node1 -->
<g id="edge6" class="edge">
<title>Node4&#45;&gt;Node1</title>
<path fill="none" stroke="#191970" d="M124.2836,-56.2455C124.2836,-48.9382 124.2836,-38.6944 124.2836,-29.7046"/>
<polygon fill="#191970" stroke="#191970" points="127.7837,-29.6426 124.2836,-19.6427 120.7837,-29.6427 127.7837,-29.6426"/>
</g>
<!-- Node5&#45;&gt;Node1 -->
<g id="edge8" class="edge">
<title>Node5&#45;&gt;Node1</title>
<path fill="none" stroke="#191970" d="M163.8204,-112.2235C168.0241,-98.995 173.606,-74.8796 166.2836,-56 161.8978,-44.692 153.2934,-34.463 145.0086,-26.5381"/>
<polygon fill="#191970" stroke="#191970" points="147.108,-23.721 137.3116,-19.6859 142.4535,-28.9494 147.108,-23.721"/>
</g>
<!-- Node5&#45;&gt;Node4 -->
<g id="edge9" class="edge">
<title>Node5&#45;&gt;Node4</title>
<path fill="none" stroke="#191970" d="M154.0128,-112.2455C149.0572,-104.5367 142.0006,-93.5598 136.0059,-84.2348"/>
<polygon fill="#191970" stroke="#191970" points="138.8342,-82.1618 130.4824,-75.6427 132.9459,-85.9471 138.8342,-82.1618"/>
</g>
</g>
</svg>
