<?xml version="1.0" encoding="UTF-8" standalone="no"?>
<!DOCTYPE svg PUBLIC "-//W3C//DTD SVG 1.1//EN"
 "http://www.w3.org/Graphics/SVG/1.1/DTD/svg11.dtd">
<!-- Generated by graphviz version 2.43.0 (0)
 -->
<!-- Title: sys/log/log_color/log_module.h Pages: 1 -->
<svg width="272pt" height="263pt"
 viewBox="0.00 0.00 271.50 263.00" xmlns="http://www.w3.org/2000/svg" xmlns:xlink="http://www.w3.org/1999/xlink">
<g id="graph0" class="graph" transform="scale(1 1) rotate(0) translate(4 259)">
<title>sys/log/log_color/log_module.h</title>
<!-- Node1 -->
<g id="node1" class="node">
<title>Node1</title>
<g id="a_node1"><a xlink:title="log_module header">
<polygon fill="#bfbfbf" stroke="black" points="90,-224.5 90,-254.5 206,-254.5 206,-224.5 90,-224.5"/>
<text text-anchor="start" x="98" y="-242.5" font-family="Helvetica,sans-Serif" font-size="10.00">sys/log/log_color/log</text>
<text text-anchor="middle" x="148" y="-231.5" font-family="Helvetica,sans-Serif" font-size="10.00">_module.h</text>
</a>
</g>
</g>
<!-- Node2 -->
<g id="node2" class="node">
<title>Node2</title>
<g id="a_node2"><a xlink:href="assert_8h.html" target="_top" xlink:title="POSIX.1&#45;2008 compliant version of the assert macro.">
<polygon fill="none" stroke="black" points="36,-168.5 36,-187.5 92,-187.5 92,-168.5 36,-168.5"/>
<text text-anchor="middle" x="64" y="-175.5" font-family="Helvetica,sans-Serif" font-size="10.00">assert.h</text>
</a>
</g>
</g>
<!-- Node1&#45;&gt;Node2 -->
<g id="edge1" class="edge">
<title>Node1&#45;&gt;Node2</title>
<path fill="none" stroke="midnightblue" d="M128.09,-224.4C115.01,-215.13 97.92,-203.03 84.68,-193.65"/>
<polygon fill="midnightblue" stroke="midnightblue" points="86.41,-190.58 76.22,-187.66 82.36,-196.29 86.41,-190.58"/>
</g>
<!-- Node7 -->
<g id="node7" class="node">
<title>Node7</title>
<g id="a_node7"><a xlink:title=" ">
<polygon fill="none" stroke="#bfbfbf" points="163,-112.5 163,-131.5 213,-131.5 213,-112.5 163,-112.5"/>
<text text-anchor="middle" x="188" y="-119.5" font-family="Helvetica,sans-Serif" font-size="10.00">stdio.h</text>
</a>
</g>
</g>
<!-- Node1&#45;&gt;Node7 -->
<g id="edge6" class="edge">
<title>Node1&#45;&gt;Node7</title>
<path fill="none" stroke="midnightblue" d="M142,-224.37C136.7,-209.67 130.96,-186.3 139,-168 144.39,-155.73 154.96,-145.34 164.9,-137.65"/>
<polygon fill="midnightblue" stroke="midnightblue" points="167.25,-140.27 173.34,-131.6 163.17,-134.58 167.25,-140.27"/>
</g>
<!-- Node8 -->
<g id="node8" class="node">
<title>Node8</title>
<g id="a_node8"><a xlink:title=" ">
<polygon fill="none" stroke="#bfbfbf" points="148,-168.5 148,-187.5 204,-187.5 204,-168.5 148,-168.5"/>
<text text-anchor="middle" x="176" y="-175.5" font-family="Helvetica,sans-Serif" font-size="10.00">stdarg.h</text>
</a>
</g>
</g>
<!-- Node1&#45;&gt;Node8 -->
<g id="edge7" class="edge">
<title>Node1&#45;&gt;Node8</title>
<path fill="none" stroke="midnightblue" d="M154.64,-224.4C158.54,-216.11 163.5,-205.55 167.67,-196.71"/>
<polygon fill="midnightblue" stroke="midnightblue" points="170.83,-198.2 171.93,-187.66 164.5,-195.22 170.83,-198.2"/>
</g>
<!-- Node9 -->
<g id="node9" class="node">
<title>Node9</title>
<g id="a_node9"><a xlink:href="log_8h.html" target="_top" xlink:title="System logging header.">
<polygon fill="none" stroke="black" points="222.5,-168.5 222.5,-187.5 263.5,-187.5 263.5,-168.5 222.5,-168.5"/>
<text text-anchor="middle" x="243" y="-175.5" font-family="Helvetica,sans-Serif" font-size="10.00">log.h</text>
</a>
</g>
</g>
<!-- Node1&#45;&gt;Node9 -->
<g id="edge8" class="edge">
<title>Node1&#45;&gt;Node9</title>
<path fill="none" stroke="midnightblue" d="M170.51,-224.4C185.6,-214.95 205.39,-202.56 220.47,-193.11"/>
<polygon fill="midnightblue" stroke="midnightblue" points="222.56,-195.93 229.18,-187.66 218.84,-190 222.56,-195.93"/>
</g>
<!-- Node3 -->
<g id="node3" class="node">
<title>Node3</title>
<g id="a_node3"><a xlink:href="panic_8h.html" target="_top" xlink:title="Crash handling header.">
<polygon fill="none" stroke="black" points="38,-112.5 38,-131.5 90,-131.5 90,-112.5 38,-112.5"/>
<text text-anchor="middle" x="64" y="-119.5" font-family="Helvetica,sans-Serif" font-size="10.00">panic.h</text>
</a>
</g>
</g>
<!-- Node2&#45;&gt;Node3 -->
<g id="edge2" class="edge">
<title>Node2&#45;&gt;Node3</title>
<path fill="none" stroke="midnightblue" d="M64,-168.08C64,-161.01 64,-150.86 64,-141.99"/>
<polygon fill="midnightblue" stroke="midnightblue" points="67.5,-141.75 64,-131.75 60.5,-141.75 67.5,-141.75"/>
</g>
<!-- Node4 -->
<g id="node4" class="node">
<title>Node4</title>
<g id="a_node4"><a xlink:href="kernel__defines_8h.html" target="_top" xlink:title="Common macros and compiler attributes/pragmas configuration.">
<polygon fill="none" stroke="black" points="15.5,-56.5 15.5,-75.5 112.5,-75.5 112.5,-56.5 15.5,-56.5"/>
<text text-anchor="middle" x="64" y="-63.5" font-family="Helvetica,sans-Serif" font-size="10.00">kernel_defines.h</text>
</a>
</g>
</g>
<!-- Node3&#45;&gt;Node4 -->
<g id="edge3" class="edge">
<title>Node3&#45;&gt;Node4</title>
<path fill="none" stroke="midnightblue" d="M64,-112.08C64,-105.01 64,-94.86 64,-85.99"/>
<polygon fill="midnightblue" stroke="midnightblue" points="67.5,-85.75 64,-75.75 60.5,-85.75 67.5,-85.75"/>
</g>
<!-- Node5 -->
<g id="node5" class="node">
<title>Node5</title>
<g id="a_node5"><a xlink:title=" ">
<polygon fill="none" stroke="#bfbfbf" points="0,-0.5 0,-19.5 56,-19.5 56,-0.5 0,-0.5"/>
<text text-anchor="middle" x="28" y="-7.5" font-family="Helvetica,sans-Serif" font-size="10.00">stddef.h</text>
</a>
</g>
</g>
<!-- Node4&#45;&gt;Node5 -->
<g id="edge4" class="edge">
<title>Node4&#45;&gt;Node5</title>
<path fill="none" stroke="midnightblue" d="M58.06,-56.08C53.02,-48.53 45.66,-37.49 39.49,-28.23"/>
<polygon fill="midnightblue" stroke="midnightblue" points="42.29,-26.13 33.83,-19.75 36.47,-30.01 42.29,-26.13"/>
</g>
<!-- Node6 -->
<g id="node6" class="node">
<title>Node6</title>
<g id="a_node6"><a xlink:title=" ">
<polygon fill="none" stroke="#bfbfbf" points="74.5,-0.5 74.5,-19.5 127.5,-19.5 127.5,-0.5 74.5,-0.5"/>
<text text-anchor="middle" x="101" y="-7.5" font-family="Helvetica,sans-Serif" font-size="10.00">stdint.h</text>
</a>
</g>
</g>
<!-- Node4&#45;&gt;Node6 -->
<g id="edge5" class="edge">
<title>Node4&#45;&gt;Node6</title>
<path fill="none" stroke="midnightblue" d="M70.11,-56.08C75.28,-48.53 82.85,-37.49 89.19,-28.23"/>
<polygon fill="midnightblue" stroke="midnightblue" points="92.24,-29.98 95,-19.75 86.46,-26.02 92.24,-29.98"/>
</g>
<!-- Node9&#45;&gt;Node7 -->
<g id="edge9" class="edge">
<title>Node9&#45;&gt;Node7</title>
<path fill="none" stroke="midnightblue" d="M233.92,-168.08C225.83,-160.14 213.8,-148.34 204.09,-138.8"/>
<polygon fill="midnightblue" stroke="midnightblue" points="206.5,-136.26 196.91,-131.75 201.6,-141.25 206.5,-136.26"/>
</g>
</g>
</svg>
