<?xml version="1.0" encoding="UTF-8" standalone="no"?>
<!DOCTYPE svg PUBLIC "-//W3C//DTD SVG 1.1//EN"
 "http://www.w3.org/Graphics/SVG/1.1/DTD/svg11.dtd">
<!-- Generated by graphviz version 2.43.0 (0)
 -->
<!-- Title: sys/include/net/ble.h Pages: 1 -->
<svg width="991pt" height="162pt"
 viewBox="0.00 0.00 991.00 162.00" xmlns="http://www.w3.org/2000/svg" xmlns:xlink="http://www.w3.org/1999/xlink">
<g id="graph0" class="graph" transform="scale(1 1) rotate(0) translate(4 158)">
<title>sys/include/net/ble.h</title>
<!-- Node1 -->
<g id="node1" class="node">
<title>Node1</title>
<g id="a_node1"><a xlink:title="General BLE values as defined by the BT standard.">
<polygon fill="#bfbfbf" stroke="black" points="499,-134.5 499,-153.5 616,-153.5 616,-134.5 499,-134.5"/>
<text text-anchor="middle" x="557.5" y="-141.5" font-family="Helvetica,sans-Serif" font-size="10.00">sys/include/net/ble.h</text>
</a>
</g>
</g>
<!-- Node2 -->
<g id="node2" class="node">
<title>Node2</title>
<g id="a_node2"><a xlink:href="nimble__netif_8h.html" target="_top" xlink:title="GNRC netif implementation for NimBLE.">
<polygon fill="none" stroke="black" points="169,-67.5 169,-97.5 304,-97.5 304,-67.5 169,-67.5"/>
<text text-anchor="start" x="177" y="-85.5" font-family="Helvetica,sans-Serif" font-size="10.00">pkg/nimble/netif/include</text>
<text text-anchor="middle" x="236.5" y="-74.5" font-family="Helvetica,sans-Serif" font-size="10.00">/nimble_netif.h</text>
</a>
</g>
</g>
<!-- Node1&#45;&gt;Node2 -->
<g id="edge1" class="edge">
<title>Node1&#45;&gt;Node2</title>
<path fill="none" stroke="midnightblue" d="M500.61,-132.66C450.94,-123.61 376.92,-110.06 312.5,-98 309.73,-97.48 306.9,-96.95 304.04,-96.41"/>
<polygon fill="midnightblue" stroke="midnightblue" points="500.05,-136.12 510.51,-134.47 501.3,-129.23 500.05,-136.12"/>
</g>
<!-- Node6 -->
<g id="node6" class="node">
<title>Node6</title>
<g id="a_node6"><a xlink:href="nimble__scanlist_8h.html" target="_top" xlink:title="List for keeping scanned BLE devices.">
<polygon fill="none" stroke="black" points="322,-67.5 322,-97.5 465,-97.5 465,-67.5 322,-67.5"/>
<text text-anchor="start" x="330" y="-85.5" font-family="Helvetica,sans-Serif" font-size="10.00">pkg/nimble/scanlist</text>
<text text-anchor="middle" x="393.5" y="-74.5" font-family="Helvetica,sans-Serif" font-size="10.00">/include/nimble_scanlist.h</text>
</a>
</g>
</g>
<!-- Node1&#45;&gt;Node6 -->
<g id="edge5" class="edge">
<title>Node1&#45;&gt;Node6</title>
<path fill="none" stroke="midnightblue" d="M524.36,-130.98C497.69,-121.3 460.18,-107.69 432.15,-97.52"/>
<polygon fill="midnightblue" stroke="midnightblue" points="523.41,-134.35 534,-134.48 525.8,-127.77 523.41,-134.35"/>
</g>
<!-- Node7 -->
<g id="node7" class="node">
<title>Node7</title>
<g id="a_node7"><a xlink:href="ad_8h.html" target="_top" xlink:title="Interface for the generic BLE advertising data processing module.">
<polygon fill="none" stroke="black" points="483.5,-73 483.5,-92 631.5,-92 631.5,-73 483.5,-73"/>
<text text-anchor="middle" x="557.5" y="-80" font-family="Helvetica,sans-Serif" font-size="10.00">sys/include/net/bluetil/ad.h</text>
</a>
</g>
</g>
<!-- Node1&#45;&gt;Node7 -->
<g id="edge6" class="edge">
<title>Node1&#45;&gt;Node7</title>
<path fill="none" stroke="midnightblue" d="M557.5,-124.32C557.5,-113.5 557.5,-100.4 557.5,-92.01"/>
<polygon fill="midnightblue" stroke="midnightblue" points="554,-124.48 557.5,-134.48 561,-124.48 554,-124.48"/>
</g>
<!-- Node8 -->
<g id="node8" class="node">
<title>Node8</title>
<g id="a_node8"><a xlink:href="bluetil_2addr_8h.html" target="_top" xlink:title="Interface for the generic BLE address helper functions.">
<polygon fill="none" stroke="black" points="649.5,-67.5 649.5,-97.5 773.5,-97.5 773.5,-67.5 649.5,-67.5"/>
<text text-anchor="start" x="657.5" y="-85.5" font-family="Helvetica,sans-Serif" font-size="10.00">sys/include/net/bluetil</text>
<text text-anchor="middle" x="711.5" y="-74.5" font-family="Helvetica,sans-Serif" font-size="10.00">/addr.h</text>
</a>
</g>
</g>
<!-- Node1&#45;&gt;Node8 -->
<g id="edge7" class="edge">
<title>Node1&#45;&gt;Node8</title>
<path fill="none" stroke="midnightblue" d="M588.95,-130.85C613.97,-121.18 649,-107.65 675.21,-97.52"/>
<polygon fill="midnightblue" stroke="midnightblue" points="587.63,-127.61 579.56,-134.48 590.15,-134.14 587.63,-127.61"/>
</g>
<!-- Node9 -->
<g id="node9" class="node">
<title>Node9</title>
<g id="a_node9"><a xlink:href="skald_8h.html" target="_top" xlink:title="Skald&#39;s basic interface.">
<polygon fill="none" stroke="black" points="791.5,-73 791.5,-92 919.5,-92 919.5,-73 791.5,-73"/>
<text text-anchor="middle" x="855.5" y="-80" font-family="Helvetica,sans-Serif" font-size="10.00">sys/include/net/skald.h</text>
</a>
</g>
</g>
<!-- Node1&#45;&gt;Node9 -->
<g id="edge8" class="edge">
<title>Node1&#45;&gt;Node9</title>
<path fill="none" stroke="midnightblue" d="M610.22,-132.47C667.97,-120.94 759.48,-102.67 812.88,-92.01"/>
<polygon fill="midnightblue" stroke="midnightblue" points="609.32,-129.08 600.2,-134.48 610.69,-135.95 609.32,-129.08"/>
</g>
<!-- Node3 -->
<g id="node3" class="node">
<title>Node3</title>
<g id="a_node3"><a xlink:href="nimble__autoconn_8h.html" target="_top" xlink:title="Simple automated connection manager for NimBLE netif.">
<polygon fill="none" stroke="black" points="0,-0.5 0,-30.5 151,-30.5 151,-0.5 0,-0.5"/>
<text text-anchor="start" x="8" y="-18.5" font-family="Helvetica,sans-Serif" font-size="10.00">pkg/nimble/autoconn</text>
<text text-anchor="middle" x="75.5" y="-7.5" font-family="Helvetica,sans-Serif" font-size="10.00">/include/nimble_autoconn.h</text>
</a>
</g>
</g>
<!-- Node2&#45;&gt;Node3 -->
<g id="edge2" class="edge">
<title>Node2&#45;&gt;Node3</title>
<path fill="none" stroke="midnightblue" d="M192.02,-63.54C166.26,-53.14 134.3,-40.24 110.37,-30.58"/>
<polygon fill="midnightblue" stroke="midnightblue" points="190.98,-66.9 201.57,-67.4 193.6,-60.41 190.98,-66.9"/>
</g>
<!-- Node4 -->
<g id="node4" class="node">
<title>Node4</title>
<g id="a_node4"><a xlink:href="nimble__netif__conn_8h.html" target="_top" xlink:title="Connection allocation and maintenance for NimBLE netif.">
<polygon fill="none" stroke="black" points="169,-0.5 169,-30.5 304,-30.5 304,-0.5 169,-0.5"/>
<text text-anchor="start" x="177" y="-18.5" font-family="Helvetica,sans-Serif" font-size="10.00">pkg/nimble/netif/include</text>
<text text-anchor="middle" x="236.5" y="-7.5" font-family="Helvetica,sans-Serif" font-size="10.00">/nimble_netif_conn.h</text>
</a>
</g>
</g>
<!-- Node2&#45;&gt;Node4 -->
<g id="edge3" class="edge">
<title>Node2&#45;&gt;Node4</title>
<path fill="none" stroke="midnightblue" d="M236.5,-57.11C236.5,-48.15 236.5,-38.32 236.5,-30.58"/>
<polygon fill="midnightblue" stroke="midnightblue" points="233,-57.4 236.5,-67.4 240,-57.4 233,-57.4"/>
</g>
<!-- Node5 -->
<g id="node5" class="node">
<title>Node5</title>
<g id="a_node5"><a xlink:href="nimble__statconn_8h.html" target="_top" xlink:title="Simple static connection manager for NimBLE netif.">
<polygon fill="none" stroke="black" points="322.5,-0.5 322.5,-30.5 470.5,-30.5 470.5,-0.5 322.5,-0.5"/>
<text text-anchor="start" x="330.5" y="-18.5" font-family="Helvetica,sans-Serif" font-size="10.00">pkg/nimble/statconn</text>
<text text-anchor="middle" x="396.5" y="-7.5" font-family="Helvetica,sans-Serif" font-size="10.00">/include/nimble_statconn.h</text>
</a>
</g>
</g>
<!-- Node2&#45;&gt;Node5 -->
<g id="edge4" class="edge">
<title>Node2&#45;&gt;Node5</title>
<path fill="none" stroke="midnightblue" d="M280.7,-63.54C306.3,-53.14 338.07,-40.24 361.85,-30.58"/>
<polygon fill="midnightblue" stroke="midnightblue" points="279.16,-60.39 271.22,-67.4 281.8,-66.87 279.16,-60.39"/>
</g>
<!-- Node10 -->
<g id="node10" class="node">
<title>Node10</title>
<g id="a_node10"><a xlink:href="skald_2eddystone_8h.html" target="_top" xlink:title="Skald&#39;s basic interface.">
<polygon fill="none" stroke="black" points="727,-0.5 727,-30.5 846,-30.5 846,-0.5 727,-0.5"/>
<text text-anchor="start" x="735" y="-18.5" font-family="Helvetica,sans-Serif" font-size="10.00">sys/include/net/skald</text>
<text text-anchor="middle" x="786.5" y="-7.5" font-family="Helvetica,sans-Serif" font-size="10.00">/eddystone.h</text>
</a>
</g>
</g>
<!-- Node9&#45;&gt;Node10 -->
<g id="edge9" class="edge">
<title>Node9&#45;&gt;Node10</title>
<path fill="none" stroke="midnightblue" d="M838.64,-65.62C827.27,-54.91 812.4,-40.9 801.46,-30.59"/>
<polygon fill="midnightblue" stroke="midnightblue" points="836.52,-68.42 846.19,-72.73 841.32,-63.33 836.52,-68.42"/>
</g>
<!-- Node11 -->
<g id="node11" class="node">
<title>Node11</title>
<g id="a_node11"><a xlink:href="ibeacon_8h.html" target="_top" xlink:title="Skald&#39;s basic interface.">
<polygon fill="none" stroke="black" points="864,-0.5 864,-30.5 983,-30.5 983,-0.5 864,-0.5"/>
<text text-anchor="start" x="872" y="-18.5" font-family="Helvetica,sans-Serif" font-size="10.00">sys/include/net/skald</text>
<text text-anchor="middle" x="923.5" y="-7.5" font-family="Helvetica,sans-Serif" font-size="10.00">/ibeacon.h</text>
</a>
</g>
</g>
<!-- Node9&#45;&gt;Node11 -->
<g id="edge10" class="edge">
<title>Node9&#45;&gt;Node11</title>
<path fill="none" stroke="midnightblue" d="M872.12,-65.62C883.32,-54.91 897.97,-40.9 908.76,-30.59"/>
<polygon fill="midnightblue" stroke="midnightblue" points="869.48,-63.29 864.67,-72.73 874.32,-68.35 869.48,-63.29"/>
</g>
</g>
</svg>
