<?xml version="1.0" encoding="UTF-8" standalone="no"?>
<!DOCTYPE svg PUBLIC "-//W3C//DTD SVG 1.1//EN"
 "http://www.w3.org/Graphics/SVG/1.1/DTD/svg11.dtd">
<!-- Generated by graphviz version 2.43.0 (0)
 -->
<!-- Title: sys/include/net/gnrc/mac/types.h Pages: 1 -->
<svg width="469pt" height="117pt"
 viewBox="0.00 0.00 468.50 117.00" xmlns="http://www.w3.org/2000/svg" xmlns:xlink="http://www.w3.org/1999/xlink">
<g id="graph0" class="graph" transform="scale(1 1) rotate(0) translate(4 113)">
<title>sys/include/net/gnrc/mac/types.h</title>
<!-- Node1 -->
<g id="node1" class="node">
<title>Node1</title>
<g id="a_node1"><a xlink:title="Internal data types used by GNRC_MAC.">
<polygon fill="#bfbfbf" stroke="black" points="164,-78.5 164,-108.5 278,-108.5 278,-78.5 164,-78.5"/>
<text text-anchor="start" x="172" y="-96.5" font-family="Helvetica,sans-Serif" font-size="10.00">sys/include/net/gnrc</text>
<text text-anchor="middle" x="221" y="-85.5" font-family="Helvetica,sans-Serif" font-size="10.00">/mac/types.h</text>
</a>
</g>
</g>
<!-- Node2 -->
<g id="node2" class="node">
<title>Node2</title>
<g id="a_node2"><a xlink:href="netif_2mac_8h.html" target="_top" xlink:title="Common MAC module definitions for Network interface API">
<polygon fill="none" stroke="black" points="0,-6 0,-36 114,-36 114,-6 0,-6"/>
<text text-anchor="start" x="8" y="-24" font-family="Helvetica,sans-Serif" font-size="10.00">sys/include/net/gnrc</text>
<text text-anchor="middle" x="57" y="-13" font-family="Helvetica,sans-Serif" font-size="10.00">/netif/mac.h</text>
</a>
</g>
</g>
<!-- Node1&#45;&gt;Node2 -->
<g id="edge1" class="edge">
<title>Node1&#45;&gt;Node2</title>
<path fill="none" stroke="midnightblue" d="M178.76,-74.34C151.04,-62.42 115.31,-47.07 89.74,-36.07"/>
<polygon fill="midnightblue" stroke="midnightblue" points="177.64,-77.67 188.21,-78.4 180.4,-71.24 177.64,-77.67"/>
</g>
<!-- Node3 -->
<g id="node3" class="node">
<title>Node3</title>
<g id="a_node3"><a xlink:href="lwmac__internal_8h.html" target="_top" xlink:title="Interface definition for internal functions of LWMAC protocol.">
<polygon fill="none" stroke="black" points="132.5,-6 132.5,-36 309.5,-36 309.5,-6 132.5,-6"/>
<text text-anchor="start" x="140.5" y="-24" font-family="Helvetica,sans-Serif" font-size="10.00">sys/net/gnrc/link_layer</text>
<text text-anchor="middle" x="221" y="-13" font-family="Helvetica,sans-Serif" font-size="10.00">/lwmac/include/lwmac_internal.h</text>
</a>
</g>
</g>
<!-- Node1&#45;&gt;Node3 -->
<g id="edge2" class="edge">
<title>Node1&#45;&gt;Node3</title>
<path fill="none" stroke="midnightblue" d="M221,-68.23C221,-57.57 221,-45.41 221,-36.25"/>
<polygon fill="midnightblue" stroke="midnightblue" points="217.5,-68.23 221,-78.23 224.5,-68.23 217.5,-68.23"/>
</g>
<!-- Node4 -->
<g id="node4" class="node">
<title>Node4</title>
<g id="a_node4"><a xlink:href="tx__state__machine_8h.html" target="_top" xlink:title="Implementation of TX state machine.">
<polygon fill="none" stroke="black" points="327.5,-0.5 327.5,-41.5 460.5,-41.5 460.5,-0.5 327.5,-0.5"/>
<text text-anchor="start" x="335.5" y="-29.5" font-family="Helvetica,sans-Serif" font-size="10.00">sys/net/gnrc/link_layer</text>
<text text-anchor="start" x="335.5" y="-18.5" font-family="Helvetica,sans-Serif" font-size="10.00">/lwmac/include/tx_state</text>
<text text-anchor="middle" x="394" y="-7.5" font-family="Helvetica,sans-Serif" font-size="10.00">_machine.h</text>
</a>
</g>
</g>
<!-- Node1&#45;&gt;Node4 -->
<g id="edge3" class="edge">
<title>Node1&#45;&gt;Node4</title>
<path fill="none" stroke="midnightblue" d="M265.09,-74.53C289.82,-64.45 320.7,-51.87 346.04,-41.55"/>
<polygon fill="midnightblue" stroke="midnightblue" points="263.53,-71.39 255.59,-78.4 266.17,-77.87 263.53,-71.39"/>
</g>
</g>
</svg>
