<?xml version="1.0" encoding="UTF-8" standalone="no"?>
<!DOCTYPE svg PUBLIC "-//W3C//DTD SVG 1.1//EN"
 "http://www.w3.org/Graphics/SVG/1.1/DTD/svg11.dtd">
<!-- Generated by graphviz version 2.43.0 (0)
 -->
<!-- Title: sys/include/can/device.h Pages: 1 -->
<svg width="924pt" height="476pt"
 viewBox="0.00 0.00 924.18 476.00" xmlns="http://www.w3.org/2000/svg" xmlns:xlink="http://www.w3.org/1999/xlink">
<g id="graph0" class="graph" transform="scale(1 1) rotate(0) translate(4 472)">
<title>sys/include/can/device.h</title>
<!-- Node1 -->
<g id="node1" class="node">
<title>Node1</title>
<g id="a_node1"><a xlink:title="Definitions of CAN device interface.">
<polygon fill="#bfbfbf" stroke="black" points="495.17,-448.5 495.17,-467.5 631.17,-467.5 631.17,-448.5 495.17,-448.5"/>
<text text-anchor="middle" x="563.17" y="-455.5" font-family="Helvetica,sans-Serif" font-size="10.00">sys/include/can/device.h</text>
</a>
</g>
</g>
<!-- Node2 -->
<g id="node2" class="node">
<title>Node2</title>
<g id="a_node2"><a xlink:href="candev_8h.html" target="_top" xlink:title="Definitions for low&#45;level CAN driver interface.">
<polygon fill="none" stroke="black" points="276.17,-392.5 276.17,-411.5 356.17,-411.5 356.17,-392.5 276.17,-392.5"/>
<text text-anchor="middle" x="316.17" y="-399.5" font-family="Helvetica,sans-Serif" font-size="10.00">can/candev.h</text>
</a>
</g>
</g>
<!-- Node1&#45;&gt;Node2 -->
<g id="edge1" class="edge">
<title>Node1&#45;&gt;Node2</title>
<path fill="none" stroke="midnightblue" d="M524.04,-448.44C480.95,-439.02 411.61,-423.87 365,-413.68"/>
<polygon fill="midnightblue" stroke="midnightblue" points="365.64,-410.23 355.13,-411.52 364.15,-417.07 365.64,-410.23"/>
</g>
<!-- Node25 -->
<g id="node25" class="node">
<title>Node25</title>
<g id="a_node25"><a xlink:href="sched_8h.html" target="_top" xlink:title="Scheduler API definition.">
<polygon fill="none" stroke="black" points="687.17,-168.5 687.17,-187.5 741.17,-187.5 741.17,-168.5 687.17,-168.5"/>
<text text-anchor="middle" x="714.17" y="-175.5" font-family="Helvetica,sans-Serif" font-size="10.00">sched.h</text>
</a>
</g>
</g>
<!-- Node1&#45;&gt;Node25 -->
<g id="edge44" class="edge">
<title>Node1&#45;&gt;Node25</title>
<path fill="none" stroke="midnightblue" d="M609.85,-448.45C688.79,-432.65 840.17,-395.96 840.17,-347 840.17,-347 840.17,-347 840.17,-289 840.17,-239.95 785.32,-207.74 748,-191.5"/>
<polygon fill="midnightblue" stroke="midnightblue" points="749.04,-188.14 738.47,-187.53 746.35,-194.61 749.04,-188.14"/>
</g>
<!-- Node3 -->
<g id="node3" class="node">
<title>Node3</title>
<g id="a_node3"><a xlink:title=" ">
<polygon fill="none" stroke="#bfbfbf" points="297.67,-0.5 297.67,-19.5 350.67,-19.5 350.67,-0.5 297.67,-0.5"/>
<text text-anchor="middle" x="324.17" y="-7.5" font-family="Helvetica,sans-Serif" font-size="10.00">stdint.h</text>
</a>
</g>
</g>
<!-- Node2&#45;&gt;Node3 -->
<g id="edge2" class="edge">
<title>Node2&#45;&gt;Node3</title>
<path fill="none" stroke="midnightblue" d="M312.13,-392.38C303.94,-374.11 286.17,-330 286.17,-291 286.17,-291 286.17,-291 286.17,-121 286.17,-86.81 302.77,-49.76 314.03,-28.57"/>
<polygon fill="midnightblue" stroke="midnightblue" points="317.12,-30.22 318.89,-19.77 310.99,-26.83 317.12,-30.22"/>
</g>
<!-- Node4 -->
<g id="node4" class="node">
<title>Node4</title>
<g id="a_node4"><a xlink:title=" ">
<polygon fill="none" stroke="#bfbfbf" points="149.67,-112.5 149.67,-131.5 202.67,-131.5 202.67,-112.5 149.67,-112.5"/>
<text text-anchor="middle" x="176.17" y="-119.5" font-family="Helvetica,sans-Serif" font-size="10.00">stdlib.h</text>
</a>
</g>
</g>
<!-- Node2&#45;&gt;Node4 -->
<g id="edge3" class="edge">
<title>Node2&#45;&gt;Node4</title>
<path fill="none" stroke="midnightblue" d="M286.82,-392.5C245.77,-378.59 176.17,-346.79 176.17,-291 176.17,-291 176.17,-291 176.17,-233 176.17,-200.95 176.17,-163.64 176.17,-141.75"/>
<polygon fill="midnightblue" stroke="midnightblue" points="179.67,-141.56 176.17,-131.56 172.67,-141.56 179.67,-141.56"/>
</g>
<!-- Node5 -->
<g id="node5" class="node">
<title>Node5</title>
<g id="a_node5"><a xlink:href="sys_2include_2can_2can_8h.html" target="_top" xlink:title="Definitions high&#45;level CAN interface.">
<polygon fill="none" stroke="black" points="314.67,-336.5 314.67,-355.5 377.67,-355.5 377.67,-336.5 314.67,-336.5"/>
<text text-anchor="middle" x="346.17" y="-343.5" font-family="Helvetica,sans-Serif" font-size="10.00">can/can.h</text>
</a>
</g>
</g>
<!-- Node2&#45;&gt;Node5 -->
<g id="edge4" class="edge">
<title>Node2&#45;&gt;Node5</title>
<path fill="none" stroke="midnightblue" d="M321.13,-392.08C325.28,-384.61 331.33,-373.72 336.44,-364.52"/>
<polygon fill="midnightblue" stroke="midnightblue" points="339.51,-366.19 341.31,-355.75 333.4,-362.79 339.51,-366.19"/>
</g>
<!-- Node6 -->
<g id="node6" class="node">
<title>Node6</title>
<g id="a_node6"><a xlink:href="can_2common_8h.html" target="_top" xlink:title="Definitions of high&#45;level CAN interface.">
<polygon fill="none" stroke="black" points="58.67,-224.5 58.67,-243.5 147.67,-243.5 147.67,-224.5 58.67,-224.5"/>
<text text-anchor="middle" x="103.17" y="-231.5" font-family="Helvetica,sans-Serif" font-size="10.00">can/common.h</text>
</a>
</g>
</g>
<!-- Node2&#45;&gt;Node6 -->
<g id="edge6" class="edge">
<title>Node2&#45;&gt;Node6</title>
<path fill="none" stroke="midnightblue" d="M275.93,-398.19C242.13,-393.9 194.32,-383.12 162.17,-356 130.13,-328.97 114.02,-280.41 107.25,-253.77"/>
<polygon fill="midnightblue" stroke="midnightblue" points="110.61,-252.74 104.9,-243.82 103.8,-254.35 110.61,-252.74"/>
</g>
<!-- Node12 -->
<g id="node12" class="node">
<title>Node12</title>
<g id="a_node12"><a xlink:href="mutex_8h.html" target="_top" xlink:title="Mutex for thread synchronization.">
<polygon fill="none" stroke="black" points="482.67,-336.5 482.67,-355.5 539.67,-355.5 539.67,-336.5 482.67,-336.5"/>
<text text-anchor="middle" x="511.17" y="-343.5" font-family="Helvetica,sans-Serif" font-size="10.00">mutex.h</text>
</a>
</g>
</g>
<!-- Node2&#45;&gt;Node12 -->
<g id="edge15" class="edge">
<title>Node2&#45;&gt;Node12</title>
<path fill="none" stroke="midnightblue" d="M347.07,-392.44C381.13,-383.01 435.97,-367.83 472.77,-357.63"/>
<polygon fill="midnightblue" stroke="midnightblue" points="473.94,-360.94 482.64,-354.9 472.07,-354.2 473.94,-360.94"/>
</g>
<!-- Node5&#45;&gt;Node3 -->
<g id="edge5" class="edge">
<title>Node5&#45;&gt;Node3</title>
<path fill="none" stroke="midnightblue" d="M343.21,-336.28C337.2,-317.82 324.17,-273.37 324.17,-235 324.17,-235 324.17,-235 324.17,-121 324.17,-88.95 324.17,-51.64 324.17,-29.75"/>
<polygon fill="midnightblue" stroke="midnightblue" points="327.67,-29.56 324.17,-19.56 320.67,-29.56 327.67,-29.56"/>
</g>
<!-- Node6&#45;&gt;Node3 -->
<g id="edge7" class="edge">
<title>Node6&#45;&gt;Node3</title>
<path fill="none" stroke="midnightblue" d="M58.48,-224.48C37.95,-218.09 15.47,-207.02 3.17,-188 -1.65,-180.54 0.13,-176.35 3.17,-168 44.93,-53.31 212.1,-22.17 287.25,-13.91"/>
<polygon fill="midnightblue" stroke="midnightblue" points="287.63,-17.39 297.22,-12.88 286.92,-10.42 287.63,-17.39"/>
</g>
<!-- Node7 -->
<g id="node7" class="node">
<title>Node7</title>
<g id="a_node7"><a xlink:href="uio_8h.html" target="_top" xlink:title="libc header for scatter/gather I/O">
<polygon fill="none" stroke="black" points="88.17,-168.5 88.17,-187.5 148.17,-187.5 148.17,-168.5 88.17,-168.5"/>
<text text-anchor="middle" x="118.17" y="-175.5" font-family="Helvetica,sans-Serif" font-size="10.00">sys/uio.h</text>
</a>
</g>
</g>
<!-- Node6&#45;&gt;Node7 -->
<g id="edge8" class="edge">
<title>Node6&#45;&gt;Node7</title>
<path fill="none" stroke="midnightblue" d="M105.65,-224.08C107.66,-216.85 110.56,-206.41 113.06,-197.4"/>
<polygon fill="midnightblue" stroke="midnightblue" points="116.44,-198.32 115.74,-187.75 109.69,-196.45 116.44,-198.32"/>
</g>
<!-- Node9 -->
<g id="node9" class="node">
<title>Node9</title>
<g id="a_node9"><a xlink:href="timex_8h.html" target="_top" xlink:title="Utility library for comparing and computing timestamps.">
<polygon fill="none" stroke="black" points="204.17,-168.5 204.17,-187.5 258.17,-187.5 258.17,-168.5 204.17,-168.5"/>
<text text-anchor="middle" x="231.17" y="-175.5" font-family="Helvetica,sans-Serif" font-size="10.00">timex.h</text>
</a>
</g>
</g>
<!-- Node6&#45;&gt;Node9 -->
<g id="edge11" class="edge">
<title>Node6&#45;&gt;Node9</title>
<path fill="none" stroke="midnightblue" d="M123.46,-224.44C144.52,-215.56 177.69,-201.56 201.66,-191.45"/>
<polygon fill="midnightblue" stroke="midnightblue" points="203.13,-194.63 210.99,-187.52 200.41,-188.18 203.13,-194.63"/>
</g>
<!-- Node11 -->
<g id="node11" class="node">
<title>Node11</title>
<g id="a_node11"><a xlink:title=" ">
<polygon fill="none" stroke="#bfbfbf" points="12.67,-168.5 12.67,-187.5 69.67,-187.5 69.67,-168.5 12.67,-168.5"/>
<text text-anchor="middle" x="41.17" y="-175.5" font-family="Helvetica,sans-Serif" font-size="10.00">thread.h</text>
</a>
</g>
</g>
<!-- Node6&#45;&gt;Node11 -->
<g id="edge14" class="edge">
<title>Node6&#45;&gt;Node11</title>
<path fill="none" stroke="midnightblue" d="M93.21,-224.32C84.05,-216.34 70.24,-204.31 59.15,-194.65"/>
<polygon fill="midnightblue" stroke="midnightblue" points="61.16,-191.76 51.32,-187.83 56.56,-197.04 61.16,-191.76"/>
</g>
<!-- Node7&#45;&gt;Node4 -->
<g id="edge9" class="edge">
<title>Node7&#45;&gt;Node4</title>
<path fill="none" stroke="midnightblue" d="M127.49,-168.32C136.07,-160.34 148.99,-148.31 159.36,-138.65"/>
<polygon fill="midnightblue" stroke="midnightblue" points="161.75,-141.21 166.69,-131.83 156.98,-136.09 161.75,-141.21"/>
</g>
<!-- Node8 -->
<g id="node8" class="node">
<title>Node8</title>
<g id="a_node8"><a xlink:title=" ">
<polygon fill="none" stroke="#bfbfbf" points="59.17,-112.5 59.17,-131.5 131.17,-131.5 131.17,-112.5 59.17,-112.5"/>
<text text-anchor="middle" x="95.17" y="-119.5" font-family="Helvetica,sans-Serif" font-size="10.00">sys/types.h</text>
</a>
</g>
</g>
<!-- Node7&#45;&gt;Node8 -->
<g id="edge10" class="edge">
<title>Node7&#45;&gt;Node8</title>
<path fill="none" stroke="midnightblue" d="M114.38,-168.08C111.26,-160.77 106.75,-150.18 102.88,-141.1"/>
<polygon fill="midnightblue" stroke="midnightblue" points="106.04,-139.58 98.9,-131.75 99.6,-142.32 106.04,-139.58"/>
</g>
<!-- Node9&#45;&gt;Node3 -->
<g id="edge12" class="edge">
<title>Node9&#45;&gt;Node3</title>
<path fill="none" stroke="midnightblue" d="M232.49,-168.39C235.99,-147.55 247.05,-93.36 272.17,-56 280.09,-44.24 291.85,-33.7 302.18,-25.79"/>
<polygon fill="midnightblue" stroke="midnightblue" points="304.39,-28.51 310.41,-19.79 300.27,-22.85 304.39,-28.51"/>
</g>
<!-- Node10 -->
<g id="node10" class="node">
<title>Node10</title>
<g id="a_node10"><a xlink:href="inttypes_8h.html" target="_top" xlink:title="Adds include for missing inttype definitions.">
<polygon fill="none" stroke="black" points="428.67,-112.5 428.67,-131.5 493.67,-131.5 493.67,-112.5 428.67,-112.5"/>
<text text-anchor="middle" x="461.17" y="-119.5" font-family="Helvetica,sans-Serif" font-size="10.00">inttypes.h</text>
</a>
</g>
</g>
<!-- Node9&#45;&gt;Node10 -->
<g id="edge13" class="edge">
<title>Node9&#45;&gt;Node10</title>
<path fill="none" stroke="midnightblue" d="M258.46,-170.59C298.04,-161.3 371.74,-144 418.53,-133.01"/>
<polygon fill="midnightblue" stroke="midnightblue" points="419.43,-136.4 428.37,-130.7 417.83,-129.58 419.43,-136.4"/>
</g>
<!-- Node12&#45;&gt;Node3 -->
<g id="edge17" class="edge">
<title>Node12&#45;&gt;Node3</title>
<path fill="none" stroke="midnightblue" d="M482.44,-337.83C439.15,-325.11 362.17,-294.16 362.17,-235 362.17,-235 362.17,-235 362.17,-121 362.17,-86.81 345.57,-49.76 334.32,-28.57"/>
<polygon fill="midnightblue" stroke="midnightblue" points="337.35,-26.83 329.46,-19.77 331.23,-30.22 337.35,-26.83"/>
</g>
<!-- Node13 -->
<g id="node13" class="node">
<title>Node13</title>
<g id="a_node13"><a xlink:title=" ">
<polygon fill="none" stroke="#bfbfbf" points="767.17,-0.5 767.17,-19.5 823.17,-19.5 823.17,-0.5 767.17,-0.5"/>
<text text-anchor="middle" x="795.17" y="-7.5" font-family="Helvetica,sans-Serif" font-size="10.00">stddef.h</text>
</a>
</g>
</g>
<!-- Node12&#45;&gt;Node13 -->
<g id="edge16" class="edge">
<title>Node12&#45;&gt;Node13</title>
<path fill="none" stroke="midnightblue" d="M539.98,-343.41C632.5,-337.5 916.17,-313.05 916.17,-235 916.17,-235 916.17,-235 916.17,-121 916.17,-90.77 916.22,-78.62 896.17,-56 879.8,-37.52 854.38,-26.25 833.14,-19.61"/>
<polygon fill="midnightblue" stroke="midnightblue" points="833.99,-16.21 823.42,-16.79 832.05,-22.94 833.99,-16.21"/>
</g>
<!-- Node14 -->
<g id="node14" class="node">
<title>Node14</title>
<g id="a_node14"><a xlink:href="irq_8h.html" target="_top" xlink:title="IRQ driver interface.">
<polygon fill="none" stroke="black" points="492.17,-280.5 492.17,-299.5 530.17,-299.5 530.17,-280.5 492.17,-280.5"/>
<text text-anchor="middle" x="511.17" y="-287.5" font-family="Helvetica,sans-Serif" font-size="10.00">irq.h</text>
</a>
</g>
</g>
<!-- Node12&#45;&gt;Node14 -->
<g id="edge18" class="edge">
<title>Node12&#45;&gt;Node14</title>
<path fill="none" stroke="midnightblue" d="M511.17,-336.08C511.17,-329.01 511.17,-318.86 511.17,-309.99"/>
<polygon fill="midnightblue" stroke="midnightblue" points="514.67,-309.75 511.17,-299.75 507.67,-309.75 514.67,-309.75"/>
</g>
<!-- Node17 -->
<g id="node17" class="node">
<title>Node17</title>
<g id="a_node17"><a xlink:href="kernel__defines_8h.html" target="_top" xlink:title="Common macros and compiler attributes/pragmas configuration.">
<polygon fill="none" stroke="black" points="527.67,-56.5 527.67,-75.5 624.67,-75.5 624.67,-56.5 527.67,-56.5"/>
<text text-anchor="middle" x="576.17" y="-63.5" font-family="Helvetica,sans-Serif" font-size="10.00">kernel_defines.h</text>
</a>
</g>
</g>
<!-- Node12&#45;&gt;Node17 -->
<g id="edge21" class="edge">
<title>Node12&#45;&gt;Node17</title>
<path fill="none" stroke="midnightblue" d="M504,-336.16C483.42,-309.67 427.48,-228.94 457.17,-168 468.54,-144.66 483.25,-148.64 503.17,-132 522.77,-115.63 544.55,-96.05 559.18,-82.69"/>
<polygon fill="midnightblue" stroke="midnightblue" points="561.89,-84.95 566.89,-75.61 557.16,-79.79 561.89,-84.95"/>
</g>
<!-- Node18 -->
<g id="node18" class="node">
<title>Node18</title>
<g id="a_node18"><a xlink:href="list_8h.html" target="_top" xlink:title="Intrusive linked list.">
<polygon fill="none" stroke="black" points="845.67,-56.5 845.67,-75.5 886.67,-75.5 886.67,-56.5 845.67,-56.5"/>
<text text-anchor="middle" x="866.17" y="-63.5" font-family="Helvetica,sans-Serif" font-size="10.00">list.h</text>
</a>
</g>
</g>
<!-- Node12&#45;&gt;Node18 -->
<g id="edge24" class="edge">
<title>Node12&#45;&gt;Node18</title>
<path fill="none" stroke="midnightblue" d="M539.77,-341.69C575.17,-336.68 636.5,-324.97 683.17,-300 722.48,-278.97 852.34,-146.2 859.17,-132 866.1,-117.62 867.52,-99.42 867.41,-85.94"/>
<polygon fill="midnightblue" stroke="midnightblue" points="870.9,-85.78 867.03,-75.92 863.91,-86.04 870.9,-85.78"/>
</g>
<!-- Node19 -->
<g id="node19" class="node">
<title>Node19</title>
<g id="a_node19"><a xlink:href="core_2include_2thread_8h.html" target="_top" xlink:title="Threading API.">
<polygon fill="none" stroke="black" points="616.67,-280.5 616.67,-299.5 673.67,-299.5 673.67,-280.5 616.67,-280.5"/>
<text text-anchor="middle" x="645.17" y="-287.5" font-family="Helvetica,sans-Serif" font-size="10.00">thread.h</text>
</a>
</g>
</g>
<!-- Node12&#45;&gt;Node19 -->
<g id="edge25" class="edge">
<title>Node12&#45;&gt;Node19</title>
<path fill="none" stroke="midnightblue" d="M532.41,-336.44C554.56,-327.52 589.49,-313.44 614.61,-303.32"/>
<polygon fill="midnightblue" stroke="midnightblue" points="616.07,-306.5 624.04,-299.52 613.46,-300.01 616.07,-306.5"/>
</g>
<!-- Node15 -->
<g id="node15" class="node">
<title>Node15</title>
<g id="a_node15"><a xlink:title=" ">
<polygon fill="none" stroke="#bfbfbf" points="466.17,-168.5 466.17,-187.5 528.17,-187.5 528.17,-168.5 466.17,-168.5"/>
<text text-anchor="middle" x="497.17" y="-175.5" font-family="Helvetica,sans-Serif" font-size="10.00">stdbool.h</text>
</a>
</g>
</g>
<!-- Node14&#45;&gt;Node15 -->
<g id="edge19" class="edge">
<title>Node14&#45;&gt;Node15</title>
<path fill="none" stroke="midnightblue" d="M507.06,-280.28C503.11,-271.38 497.43,-257.07 495.17,-244 492.53,-228.68 493.31,-211.04 494.59,-198.01"/>
<polygon fill="midnightblue" stroke="midnightblue" points="498.09,-198.25 495.78,-187.91 491.14,-197.43 498.09,-198.25"/>
</g>
<!-- Node16 -->
<g id="node16" class="node">
<title>Node16</title>
<g id="a_node16"><a xlink:title=" ">
<polygon fill="none" stroke="#bfbfbf" points="504.17,-224.5 504.17,-243.5 572.17,-243.5 572.17,-224.5 504.17,-224.5"/>
<text text-anchor="middle" x="538.17" y="-231.5" font-family="Helvetica,sans-Serif" font-size="10.00">cpu_conf.h</text>
</a>
</g>
</g>
<!-- Node14&#45;&gt;Node16 -->
<g id="edge20" class="edge">
<title>Node14&#45;&gt;Node16</title>
<path fill="none" stroke="midnightblue" d="M515.63,-280.08C519.33,-272.69 524.7,-261.95 529.27,-252.81"/>
<polygon fill="midnightblue" stroke="midnightblue" points="532.46,-254.26 533.8,-243.75 526.2,-251.13 532.46,-254.26"/>
</g>
<!-- Node17&#45;&gt;Node3 -->
<g id="edge23" class="edge">
<title>Node17&#45;&gt;Node3</title>
<path fill="none" stroke="midnightblue" d="M536.24,-56.44C487.99,-46.1 407.47,-28.85 360.76,-18.84"/>
<polygon fill="midnightblue" stroke="midnightblue" points="361.29,-15.37 350.77,-16.7 359.82,-22.22 361.29,-15.37"/>
</g>
<!-- Node17&#45;&gt;Node13 -->
<g id="edge22" class="edge">
<title>Node17&#45;&gt;Node13</title>
<path fill="none" stroke="midnightblue" d="M610.87,-56.44C650.68,-46.63 715.74,-30.59 756.97,-20.42"/>
<polygon fill="midnightblue" stroke="midnightblue" points="758.03,-23.76 766.9,-17.97 756.36,-16.97 758.03,-23.76"/>
</g>
<!-- Node19&#45;&gt;Node16 -->
<g id="edge42" class="edge">
<title>Node19&#45;&gt;Node16</title>
<path fill="none" stroke="midnightblue" d="M627.98,-280.32C610.82,-271.66 584.23,-258.24 564.43,-248.25"/>
<polygon fill="midnightblue" stroke="midnightblue" points="565.83,-245.04 555.32,-243.65 562.67,-251.28 565.83,-245.04"/>
</g>
<!-- Node20 -->
<g id="node20" class="node">
<title>Node20</title>
<g id="a_node20"><a xlink:href="clist_8h.html" target="_top" xlink:title="Circular linked list.">
<polygon fill="none" stroke="black" points="804.17,-112.5 804.17,-131.5 850.17,-131.5 850.17,-112.5 804.17,-112.5"/>
<text text-anchor="middle" x="827.17" y="-119.5" font-family="Helvetica,sans-Serif" font-size="10.00">clist.h</text>
</a>
</g>
</g>
<!-- Node19&#45;&gt;Node20 -->
<g id="edge26" class="edge">
<title>Node19&#45;&gt;Node20</title>
<path fill="none" stroke="midnightblue" d="M663.68,-280.35C680,-272.24 703.94,-259.12 722.17,-244 760.71,-212.04 796.96,-165.2 815.09,-140.21"/>
<polygon fill="midnightblue" stroke="midnightblue" points="818.15,-141.95 821.12,-131.78 812.46,-137.88 818.15,-141.95"/>
</g>
<!-- Node21 -->
<g id="node21" class="node">
<title>Node21</title>
<g id="a_node21"><a xlink:href="cib_8h.html" target="_top" xlink:title="Circular integer buffer interface.">
<polygon fill="none" stroke="black" points="656.17,-224.5 656.17,-243.5 696.17,-243.5 696.17,-224.5 656.17,-224.5"/>
<text text-anchor="middle" x="676.17" y="-231.5" font-family="Helvetica,sans-Serif" font-size="10.00">cib.h</text>
</a>
</g>
</g>
<!-- Node19&#45;&gt;Node21 -->
<g id="edge29" class="edge">
<title>Node19&#45;&gt;Node21</title>
<path fill="none" stroke="midnightblue" d="M650.29,-280.08C654.58,-272.61 660.83,-261.72 666.12,-252.52"/>
<polygon fill="midnightblue" stroke="midnightblue" points="669.21,-254.17 671.15,-243.75 663.14,-250.68 669.21,-254.17"/>
</g>
<!-- Node24 -->
<g id="node24" class="node">
<title>Node24</title>
<g id="a_node24"><a xlink:href="msg_8h.html" target="_top" xlink:title="Messaging API for inter process communication.">
<polygon fill="none" stroke="black" points="590.67,-224.5 590.67,-243.5 637.67,-243.5 637.67,-224.5 590.67,-224.5"/>
<text text-anchor="middle" x="614.17" y="-231.5" font-family="Helvetica,sans-Serif" font-size="10.00">msg.h</text>
</a>
</g>
</g>
<!-- Node19&#45;&gt;Node24 -->
<g id="edge33" class="edge">
<title>Node19&#45;&gt;Node24</title>
<path fill="none" stroke="midnightblue" d="M640.05,-280.08C635.77,-272.61 629.52,-261.72 624.23,-252.52"/>
<polygon fill="midnightblue" stroke="midnightblue" points="627.21,-250.68 619.2,-243.75 621.14,-254.17 627.21,-250.68"/>
</g>
<!-- Node19&#45;&gt;Node25 -->
<g id="edge43" class="edge">
<title>Node19&#45;&gt;Node25</title>
<path fill="none" stroke="midnightblue" d="M663.26,-280.44C677.12,-272.88 695.46,-260.49 705.17,-244 713.4,-230.04 715.26,-211.54 715.29,-197.84"/>
<polygon fill="midnightblue" stroke="midnightblue" points="718.79,-197.57 714.99,-187.68 711.79,-197.78 718.79,-197.57"/>
</g>
<!-- Node20&#45;&gt;Node13 -->
<g id="edge27" class="edge">
<title>Node20&#45;&gt;Node13</title>
<path fill="none" stroke="midnightblue" d="M824.66,-112.37C819.47,-94.54 807.48,-53.3 800.49,-29.27"/>
<polygon fill="midnightblue" stroke="midnightblue" points="803.83,-28.22 797.67,-19.59 797.11,-30.17 803.83,-28.22"/>
</g>
<!-- Node20&#45;&gt;Node18 -->
<g id="edge28" class="edge">
<title>Node20&#45;&gt;Node18</title>
<path fill="none" stroke="midnightblue" d="M833.61,-112.08C839.12,-104.46 847.2,-93.26 853.94,-83.94"/>
<polygon fill="midnightblue" stroke="midnightblue" points="856.84,-85.91 859.85,-75.75 851.16,-81.81 856.84,-85.91"/>
</g>
<!-- Node22 -->
<g id="node22" class="node">
<title>Node22</title>
<g id="a_node22"><a xlink:href="assert_8h.html" target="_top" xlink:title="POSIX.1&#45;2008 compliant version of the assert macro.">
<polygon fill="none" stroke="black" points="594.17,-168.5 594.17,-187.5 650.17,-187.5 650.17,-168.5 594.17,-168.5"/>
<text text-anchor="middle" x="622.17" y="-175.5" font-family="Helvetica,sans-Serif" font-size="10.00">assert.h</text>
</a>
</g>
</g>
<!-- Node21&#45;&gt;Node22 -->
<g id="edge30" class="edge">
<title>Node21&#45;&gt;Node22</title>
<path fill="none" stroke="midnightblue" d="M667.26,-224.08C659.39,-216.22 647.74,-204.57 638.25,-195.08"/>
<polygon fill="midnightblue" stroke="midnightblue" points="640.47,-192.35 630.92,-187.75 635.52,-197.3 640.47,-192.35"/>
</g>
<!-- Node23 -->
<g id="node23" class="node">
<title>Node23</title>
<g id="a_node23"><a xlink:href="panic_8h.html" target="_top" xlink:title="Crash handling header.">
<polygon fill="none" stroke="black" points="550.17,-112.5 550.17,-131.5 602.17,-131.5 602.17,-112.5 550.17,-112.5"/>
<text text-anchor="middle" x="576.17" y="-119.5" font-family="Helvetica,sans-Serif" font-size="10.00">panic.h</text>
</a>
</g>
</g>
<!-- Node22&#45;&gt;Node23 -->
<g id="edge31" class="edge">
<title>Node22&#45;&gt;Node23</title>
<path fill="none" stroke="midnightblue" d="M614.58,-168.08C607.95,-160.3 598.15,-148.8 590.12,-139.37"/>
<polygon fill="midnightblue" stroke="midnightblue" points="592.78,-137.09 583.63,-131.75 587.45,-141.63 592.78,-137.09"/>
</g>
<!-- Node23&#45;&gt;Node17 -->
<g id="edge32" class="edge">
<title>Node23&#45;&gt;Node17</title>
<path fill="none" stroke="midnightblue" d="M576.17,-112.08C576.17,-105.01 576.17,-94.86 576.17,-85.99"/>
<polygon fill="midnightblue" stroke="midnightblue" points="579.67,-85.75 576.17,-75.75 572.67,-85.75 579.67,-85.75"/>
</g>
<!-- Node24&#45;&gt;Node3 -->
<g id="edge34" class="edge">
<title>Node24&#45;&gt;Node3</title>
<path fill="none" stroke="midnightblue" d="M606.03,-224.13C592.84,-210.26 565.43,-183.43 537.17,-168 489.42,-141.93 462.74,-165.88 420.17,-132 389.64,-107.69 401.05,-86.07 376.17,-56 366.9,-44.79 354.67,-34.05 344.4,-25.88"/>
<polygon fill="midnightblue" stroke="midnightblue" points="346.4,-23 336.34,-19.67 342.12,-28.55 346.4,-23"/>
</g>
<!-- Node24&#45;&gt;Node15 -->
<g id="edge35" class="edge">
<title>Node24&#45;&gt;Node15</title>
<path fill="none" stroke="midnightblue" d="M595.63,-224.44C576.55,-215.64 546.6,-201.81 524.74,-191.72"/>
<polygon fill="midnightblue" stroke="midnightblue" points="526.17,-188.53 515.63,-187.52 523.24,-194.88 526.17,-188.53"/>
</g>
<!-- Node24&#45;&gt;Node25 -->
<g id="edge36" class="edge">
<title>Node24&#45;&gt;Node25</title>
<path fill="none" stroke="midnightblue" d="M630.24,-224.32C646.13,-215.74 670.68,-202.49 689.13,-192.52"/>
<polygon fill="midnightblue" stroke="midnightblue" points="691.01,-195.49 698.15,-187.65 687.68,-189.33 691.01,-195.49"/>
</g>
<!-- Node25&#45;&gt;Node10 -->
<g id="edge38" class="edge">
<title>Node25&#45;&gt;Node10</title>
<path fill="none" stroke="midnightblue" d="M687.1,-171.22C643.24,-161.86 556.3,-143.3 503.99,-132.14"/>
<polygon fill="midnightblue" stroke="midnightblue" points="504.52,-128.67 494.01,-130.01 503.06,-135.52 504.52,-128.67"/>
</g>
<!-- Node25&#45;&gt;Node13 -->
<g id="edge37" class="edge">
<title>Node25&#45;&gt;Node13</title>
<path fill="none" stroke="midnightblue" d="M724.81,-168.41C734.51,-160.05 748.6,-146.51 757.17,-132 776.79,-98.79 787.35,-54.37 792.07,-29.64"/>
<polygon fill="midnightblue" stroke="midnightblue" points="795.52,-30.23 793.83,-19.77 788.63,-29 795.52,-30.23"/>
</g>
<!-- Node25&#45;&gt;Node17 -->
<g id="edge39" class="edge">
<title>Node25&#45;&gt;Node17</title>
<path fill="none" stroke="midnightblue" d="M700.89,-168.49C687.51,-159.76 666.43,-145.58 649.17,-132 629.1,-116.21 607.41,-96.53 592.93,-82.98"/>
<polygon fill="midnightblue" stroke="midnightblue" points="594.98,-80.11 585.31,-75.79 590.18,-85.2 594.98,-80.11"/>
</g>
<!-- Node25&#45;&gt;Node20 -->
<g id="edge41" class="edge">
<title>Node25&#45;&gt;Node20</title>
<path fill="none" stroke="midnightblue" d="M732.08,-168.44C750.43,-159.68 779.18,-145.94 800.27,-135.86"/>
<polygon fill="midnightblue" stroke="midnightblue" points="801.84,-138.99 809.35,-131.52 798.82,-132.67 801.84,-138.99"/>
</g>
<!-- Node26 -->
<g id="node26" class="node">
<title>Node26</title>
<g id="a_node26"><a xlink:href="native__sched_8h.html" target="_top" xlink:title="Add definitions required on the native board.">
<polygon fill="none" stroke="black" points="658.17,-112.5 658.17,-131.5 748.17,-131.5 748.17,-112.5 658.17,-112.5"/>
<text text-anchor="middle" x="703.17" y="-119.5" font-family="Helvetica,sans-Serif" font-size="10.00">native_sched.h</text>
</a>
</g>
</g>
<!-- Node25&#45;&gt;Node26 -->
<g id="edge40" class="edge">
<title>Node25&#45;&gt;Node26</title>
<path fill="none" stroke="midnightblue" d="M712.36,-168.08C710.9,-160.93 708.8,-150.64 706.98,-141.69"/>
<polygon fill="midnightblue" stroke="midnightblue" points="710.38,-140.85 704.96,-131.75 703.52,-142.25 710.38,-140.85"/>
</g>
</g>
</svg>
