<?xml version="1.0" encoding="UTF-8" standalone="no"?>
<!DOCTYPE svg PUBLIC "-//W3C//DTD SVG 1.1//EN"
 "http://www.w3.org/Graphics/SVG/1.1/DTD/svg11.dtd">
<!-- Generated by graphviz version 2.40.1 (20161225.0304)
 -->
<!-- Title: sys/include/net/gnrc/tcp/config.h Pages: 1 -->
<svg width="851pt" height="173pt"
 viewBox="0.00 0.00 851.00 173.00" xmlns="http://www.w3.org/2000/svg" xmlns:xlink="http://www.w3.org/1999/xlink">
<g id="graph0" class="graph" transform="scale(1 1) rotate(0) translate(4 169)">
<title>sys/include/net/gnrc/tcp/config.h</title>
<!-- Node4 -->
<g id="node1" class="node">
<title>Node4</title>
<polygon fill="#bfbfbf" stroke="#000000" points="478,-134.5 478,-164.5 582,-164.5 582,-134.5 478,-134.5"/>
<text text-anchor="start" x="486" y="-152.5" font-family="Helvetica,sans-Serif" font-size="10.00" fill="#000000">sys/include/net/gnrc</text>
<text text-anchor="middle" x="530" y="-141.5" font-family="Helvetica,sans-Serif" font-size="10.00" fill="#000000">/tcp/config.h</text>
</g>
<!-- Node5 -->
<g id="node2" class="node">
<title>Node5</title>
<g id="a_node2"><a xlink:href="tcb_8h.html" target="_top" xlink:title="GNRC TCP transmission control block (TCB) ">
<polygon fill="none" stroke="#000000" points="438,-67.5 438,-97.5 542,-97.5 542,-67.5 438,-67.5"/>
<text text-anchor="start" x="446" y="-85.5" font-family="Helvetica,sans-Serif" font-size="10.00" fill="#000000">sys/include/net/gnrc</text>
<text text-anchor="middle" x="490" y="-74.5" font-family="Helvetica,sans-Serif" font-size="10.00" fill="#000000">/tcp/tcb.h</text>
</a>
</g>
</g>
<!-- Node4&#45;&gt;Node5 -->
<g id="edge1" class="edge">
<title>Node4&#45;&gt;Node5</title>
<path fill="none" stroke="#191970" d="M515.6619,-125.4837C510.1192,-116.1996 503.9442,-105.8565 499.0407,-97.6432"/>
<polygon fill="#191970" stroke="#191970" points="512.7921,-127.5046 520.9234,-134.2967 518.8024,-123.9163 512.7921,-127.5046"/>
</g>
<!-- Node11 -->
<g id="node8" class="node">
<title>Node11</title>
<g id="a_node8"><a xlink:href="rcvbuf_8h.html" target="_top" xlink:title="Functions for allocating and freeing the receive buffer. ">
<polygon fill="none" stroke="#000000" points="711,-.5 711,-30.5 843,-30.5 843,-.5 711,-.5"/>
<text text-anchor="start" x="719" y="-18.5" font-family="Helvetica,sans-Serif" font-size="10.00" fill="#000000">sys/net/gnrc/transport</text>
<text text-anchor="middle" x="777" y="-7.5" font-family="Helvetica,sans-Serif" font-size="10.00" fill="#000000">_layer/tcp/internal/rcvbuf.h</text>
</a>
</g>
</g>
<!-- Node4&#45;&gt;Node11 -->
<g id="edge8" class="edge">
<title>Node4&#45;&gt;Node11</title>
<path fill="none" stroke="#191970" d="M566.6975,-129.5912C616.5399,-102.5512 704.536,-54.8124 749.2479,-30.5558"/>
<polygon fill="#191970" stroke="#191970" points="564.9747,-126.5439 557.8539,-134.389 568.3127,-132.6968 564.9747,-126.5439"/>
</g>
<!-- Node6 -->
<g id="node3" class="node">
<title>Node6</title>
<g id="a_node3"><a xlink:href="gnrc_2tcp_8h.html" target="_top" xlink:title="GNRC TCP API. ">
<polygon fill="none" stroke="#000000" points="0,-.5 0,-30.5 104,-30.5 104,-.5 0,-.5"/>
<text text-anchor="start" x="8" y="-18.5" font-family="Helvetica,sans-Serif" font-size="10.00" fill="#000000">sys/include/net/gnrc</text>
<text text-anchor="middle" x="52" y="-7.5" font-family="Helvetica,sans-Serif" font-size="10.00" fill="#000000">/tcp.h</text>
</a>
</g>
</g>
<!-- Node5&#45;&gt;Node6 -->
<g id="edge2" class="edge">
<title>Node5&#45;&gt;Node6</title>
<path fill="none" stroke="#191970" d="M427.6398,-76.1674C352.5857,-68.0431 222.9236,-52.4026 113,-31 110.1041,-30.4362 107.1406,-29.8188 104.1558,-29.1656"/>
<polygon fill="#191970" stroke="#191970" points="427.5439,-79.6771 437.8601,-77.2637 428.2905,-72.717 427.5439,-79.6771"/>
</g>
<!-- Node7 -->
<g id="node4" class="node">
<title>Node7</title>
<g id="a_node4"><a xlink:href="net_2gnrc_2transport__layer_2tcp_2internal_2common_8h.html" target="_top" xlink:title="Internally used defines, macros and variable declarations. ">
<polygon fill="none" stroke="#000000" points="122.5,-.5 122.5,-30.5 265.5,-30.5 265.5,-.5 122.5,-.5"/>
<text text-anchor="start" x="130.5" y="-18.5" font-family="Helvetica,sans-Serif" font-size="10.00" fill="#000000">sys/net/gnrc/transport</text>
<text text-anchor="middle" x="194" y="-7.5" font-family="Helvetica,sans-Serif" font-size="10.00" fill="#000000">_layer/tcp/internal/common.h</text>
</a>
</g>
</g>
<!-- Node5&#45;&gt;Node7 -->
<g id="edge3" class="edge">
<title>Node5&#45;&gt;Node7</title>
<path fill="none" stroke="#191970" d="M427.9169,-68.4474C378.8958,-57.3514 310.6372,-41.901 260.5053,-30.5536"/>
<polygon fill="#191970" stroke="#191970" points="427.2365,-71.8819 437.7625,-70.676 428.7819,-65.0546 427.2365,-71.8819"/>
</g>
<!-- Node8 -->
<g id="node5" class="node">
<title>Node8</title>
<g id="a_node5"><a xlink:href="fsm_8h.html" target="_top" xlink:title="TCP finite state maschine declarations. ">
<polygon fill="none" stroke="#000000" points="284,-.5 284,-30.5 406,-30.5 406,-.5 284,-.5"/>
<text text-anchor="start" x="292" y="-18.5" font-family="Helvetica,sans-Serif" font-size="10.00" fill="#000000">sys/net/gnrc/transport</text>
<text text-anchor="middle" x="345" y="-7.5" font-family="Helvetica,sans-Serif" font-size="10.00" fill="#000000">_layer/tcp/internal/fsm.h</text>
</a>
</g>
</g>
<!-- Node5&#45;&gt;Node8 -->
<g id="edge4" class="edge">
<title>Node5&#45;&gt;Node8</title>
<path fill="none" stroke="#191970" d="M448.1764,-63.1746C425.7549,-52.8143 398.534,-40.2364 377.6828,-30.6017"/>
<polygon fill="#191970" stroke="#191970" points="446.9133,-66.4465 457.4592,-67.4639 449.8495,-60.0921 446.9133,-66.4465"/>
</g>
<!-- Node9 -->
<g id="node6" class="node">
<title>Node9</title>
<g id="a_node6"><a xlink:href="option_8h.html" target="_top" xlink:title="TCP option handling declarations. ">
<polygon fill="none" stroke="#000000" points="424.5,-.5 424.5,-30.5 555.5,-30.5 555.5,-.5 424.5,-.5"/>
<text text-anchor="start" x="432.5" y="-18.5" font-family="Helvetica,sans-Serif" font-size="10.00" fill="#000000">sys/net/gnrc/transport</text>
<text text-anchor="middle" x="490" y="-7.5" font-family="Helvetica,sans-Serif" font-size="10.00" fill="#000000">_layer/tcp/internal/option.h</text>
</a>
</g>
</g>
<!-- Node5&#45;&gt;Node9 -->
<g id="edge5" class="edge">
<title>Node5&#45;&gt;Node9</title>
<path fill="none" stroke="#191970" d="M490,-57.0249C490,-48.128 490,-38.4287 490,-30.6432"/>
<polygon fill="#191970" stroke="#191970" points="486.5001,-57.2966 490,-67.2967 493.5001,-57.2967 486.5001,-57.2966"/>
</g>
<!-- Node10 -->
<g id="node7" class="node">
<title>Node10</title>
<g id="a_node7"><a xlink:href="net_2gnrc_2transport__layer_2tcp_2internal_2pkt_8h.html" target="_top" xlink:title="TCP packet handling declarations. ">
<polygon fill="none" stroke="#000000" points="573.5,-.5 573.5,-30.5 692.5,-30.5 692.5,-.5 573.5,-.5"/>
<text text-anchor="start" x="581.5" y="-18.5" font-family="Helvetica,sans-Serif" font-size="10.00" fill="#000000">sys/net/gnrc/transport</text>
<text text-anchor="middle" x="633" y="-7.5" font-family="Helvetica,sans-Serif" font-size="10.00" fill="#000000">_layer/tcp/internal/pkt.h</text>
</a>
</g>
</g>
<!-- Node5&#45;&gt;Node10 -->
<g id="edge6" class="edge">
<title>Node5&#45;&gt;Node10</title>
<path fill="none" stroke="#191970" d="M531.2135,-63.1902C553.2434,-52.8685 579.9789,-40.3421 600.5204,-30.7177"/>
<polygon fill="#191970" stroke="#191970" points="529.6624,-60.0517 522.092,-67.4639 532.6323,-66.3905 529.6624,-60.0517"/>
</g>
<!-- Node5&#45;&gt;Node11 -->
<g id="edge7" class="edge">
<title>Node5&#45;&gt;Node11</title>
<path fill="none" stroke="#191970" d="M552.1509,-67.9909C599.6038,-56.9131 664.7792,-41.6979 712.7455,-30.5002"/>
<polygon fill="#191970" stroke="#191970" points="551.249,-64.6073 542.3065,-70.2891 552.8404,-71.424 551.249,-64.6073"/>
</g>
</g>
</svg>
