<?xml version="1.0" encoding="UTF-8" standalone="no"?>
<!DOCTYPE svg PUBLIC "-//W3C//DTD SVG 1.1//EN"
 "http://www.w3.org/Graphics/SVG/1.1/DTD/svg11.dtd">
<!-- Generated by graphviz version 2.40.1 (20161225.0304)
 -->
<!-- Title: sys/include/can/device.h Pages: 1 -->
<svg width="537pt" height="308pt"
 viewBox="0.00 0.00 536.50 308.00" xmlns="http://www.w3.org/2000/svg" xmlns:xlink="http://www.w3.org/1999/xlink">
<g id="graph0" class="graph" transform="scale(1 1) rotate(0) translate(4 304)">
<title>sys/include/can/device.h</title>
<!-- Node0 -->
<g id="node1" class="node">
<title>Node0</title>
<polygon fill="#bfbfbf" stroke="#000000" points="267,-280.5 267,-299.5 392,-299.5 392,-280.5 267,-280.5"/>
<text text-anchor="middle" x="329.5" y="-287.5" font-family="Helvetica,sans-Serif" font-size="10.00" fill="#000000">sys/include/can/device.h</text>
</g>
<!-- Node1 -->
<g id="node2" class="node">
<title>Node1</title>
<g id="a_node2"><a xlink:href="candev_8h.html" target="_top" xlink:title="Definitions for low&#45;level CAN driver interface. ">
<polygon fill="none" stroke="#000000" points="254,-224.5 254,-243.5 329,-243.5 329,-224.5 254,-224.5"/>
<text text-anchor="middle" x="291.5" y="-231.5" font-family="Helvetica,sans-Serif" font-size="10.00" fill="#000000">can/candev.h</text>
</a>
</g>
</g>
<!-- Node0&#45;&gt;Node1 -->
<g id="edge1" class="edge">
<title>Node0&#45;&gt;Node1</title>
<path fill="none" stroke="#191970" d="M322.8809,-280.2455C317.5954,-272.4564 310.0459,-261.3308 303.6762,-251.9439"/>
<polygon fill="#191970" stroke="#191970" points="306.5545,-249.9522 298.0432,-243.6427 300.7621,-253.8827 306.5545,-249.9522"/>
</g>
<!-- Node15 -->
<g id="node16" class="node">
<title>Node15</title>
<g id="a_node16"><a xlink:href="kernel__types_8h.html" target="_top" xlink:title="Types used by the kernel. ">
<polygon fill="none" stroke="#000000" points="348.5,-112.5 348.5,-131.5 428.5,-131.5 428.5,-112.5 348.5,-112.5"/>
<text text-anchor="middle" x="388.5" y="-119.5" font-family="Helvetica,sans-Serif" font-size="10.00" fill="#000000">kernel_types.h</text>
</a>
</g>
</g>
<!-- Node0&#45;&gt;Node15 -->
<g id="edge21" class="edge">
<title>Node0&#45;&gt;Node15</title>
<path fill="none" stroke="#191970" d="M332.8411,-280.4862C342.208,-253.8144 368.8643,-177.9117 381.5833,-141.695"/>
<polygon fill="#191970" stroke="#191970" points="385.0372,-142.4227 385.0485,-131.8279 378.4327,-140.1032 385.0372,-142.4227"/>
</g>
<!-- Node2 -->
<g id="node3" class="node">
<title>Node2</title>
<polygon fill="none" stroke="#bfbfbf" points="268,-56.5 268,-75.5 317,-75.5 317,-56.5 268,-56.5"/>
<text text-anchor="middle" x="292.5" y="-63.5" font-family="Helvetica,sans-Serif" font-size="10.00" fill="#000000">stdint.h</text>
</g>
<!-- Node1&#45;&gt;Node2 -->
<g id="edge2" class="edge">
<title>Node1&#45;&gt;Node2</title>
<path fill="none" stroke="#191970" d="M293.9865,-224.2105C296.2014,-214.9529 299.2755,-200.6354 300.5,-188 303.9996,-151.8876 299.2593,-109.6098 295.7225,-85.4992"/>
<polygon fill="#191970" stroke="#191970" points="299.1639,-84.8517 294.1701,-75.5076 292.2469,-85.9265 299.1639,-84.8517"/>
</g>
<!-- Node3 -->
<g id="node4" class="node">
<title>Node3</title>
<g id="a_node4"><a xlink:href="stdlib_8h.html" target="_top" xlink:title="stdlib.h wrapper for MSP430 ">
<polygon fill="none" stroke="#000000" points="2.5,-56.5 2.5,-75.5 50.5,-75.5 50.5,-56.5 2.5,-56.5"/>
<text text-anchor="middle" x="26.5" y="-63.5" font-family="Helvetica,sans-Serif" font-size="10.00" fill="#000000">stdlib.h</text>
</a>
</g>
</g>
<!-- Node1&#45;&gt;Node3 -->
<g id="edge3" class="edge">
<title>Node1&#45;&gt;Node3</title>
<path fill="none" stroke="#191970" d="M253.7315,-226.1243C183.933,-210.6736 39.4722,-174.1935 13.5,-132 4.7314,-117.7548 9.8447,-98.7889 16.0508,-84.8443"/>
<polygon fill="#191970" stroke="#191970" points="19.27,-86.2308 20.58,-75.7173 12.9996,-83.1191 19.27,-86.2308"/>
</g>
<!-- Node5 -->
<g id="node6" class="node">
<title>Node5</title>
<g id="a_node6"><a xlink:href="sys_2include_2can_2can_8h.html" target="_top" xlink:title="Definitions high&#45;level CAN interface. ">
<polygon fill="none" stroke="#000000" points="233,-168.5 233,-187.5 292,-187.5 292,-168.5 233,-168.5"/>
<text text-anchor="middle" x="262.5" y="-175.5" font-family="Helvetica,sans-Serif" font-size="10.00" fill="#000000">can/can.h</text>
</a>
</g>
</g>
<!-- Node1&#45;&gt;Node5 -->
<g id="edge6" class="edge">
<title>Node1&#45;&gt;Node5</title>
<path fill="none" stroke="#191970" d="M286.4486,-224.2455C282.4981,-216.617 276.8903,-205.7881 272.0942,-196.5267"/>
<polygon fill="#191970" stroke="#191970" points="275.2001,-194.9131 267.4935,-187.6427 268.9841,-198.1321 275.2001,-194.9131"/>
</g>
<!-- Node6 -->
<g id="node7" class="node">
<title>Node6</title>
<g id="a_node7"><a xlink:href="include_2can_2common_8h.html" target="_top" xlink:title="Definitions of high&#45;level CAN interface. ">
<polygon fill="none" stroke="#000000" points="134,-168.5 134,-187.5 215,-187.5 215,-168.5 134,-168.5"/>
<text text-anchor="middle" x="174.5" y="-175.5" font-family="Helvetica,sans-Serif" font-size="10.00" fill="#000000">can/common.h</text>
</a>
</g>
</g>
<!-- Node1&#45;&gt;Node6 -->
<g id="edge8" class="edge">
<title>Node1&#45;&gt;Node6</title>
<path fill="none" stroke="#191970" d="M271.387,-224.3733C252.6897,-215.4241 224.6256,-201.9917 203.5066,-191.8835"/>
<polygon fill="#191970" stroke="#191970" points="204.8817,-188.6614 194.3506,-187.5011 201.8595,-194.9755 204.8817,-188.6614"/>
</g>
<!-- Node12 -->
<g id="node13" class="node">
<title>Node12</title>
<g id="a_node13"><a xlink:href="mutex_8h.html" target="_top" xlink:title="Mutex for thread synchronization. ">
<polygon fill="none" stroke="#000000" points="446.5,-112.5 446.5,-131.5 498.5,-131.5 498.5,-112.5 446.5,-112.5"/>
<text text-anchor="middle" x="472.5" y="-119.5" font-family="Helvetica,sans-Serif" font-size="10.00" fill="#000000">mutex.h</text>
</a>
</g>
</g>
<!-- Node1&#45;&gt;Node12 -->
<g id="edge17" class="edge">
<title>Node1&#45;&gt;Node12</title>
<path fill="none" stroke="#191970" d="M306.932,-224.4509C338.4564,-204.9441 410.4538,-160.3932 448.2737,-136.9909"/>
<polygon fill="#191970" stroke="#191970" points="450.4451,-139.7631 457.1071,-131.5249 446.7617,-133.8106 450.4451,-139.7631"/>
</g>
<!-- Node4 -->
<g id="node5" class="node">
<title>Node4</title>
<g id="a_node5"><a xlink:href="malloc_8h.html" target="_top" xlink:title="malloc.h">
<polygon fill="none" stroke="#000000" points="0,-.5 0,-19.5 53,-19.5 53,-.5 0,-.5"/>
<text text-anchor="middle" x="26.5" y="-7.5" font-family="Helvetica,sans-Serif" font-size="10.00" fill="#000000">malloc.h</text>
</a>
</g>
</g>
<!-- Node3&#45;&gt;Node4 -->
<g id="edge4" class="edge">
<title>Node3&#45;&gt;Node4</title>
<path fill="none" stroke="#191970" d="M21.2332,-56.2455C19.8221,-48.9382 19.4179,-38.6944 20.0205,-29.7046"/>
<polygon fill="#191970" stroke="#191970" points="23.5111,-29.9945 21.2549,-19.6427 16.5632,-29.1421 23.5111,-29.9945"/>
</g>
<!-- Node4&#45;&gt;Node3 -->
<g id="edge5" class="edge">
<title>Node4&#45;&gt;Node3</title>
<path fill="none" stroke="#191970" d="M31.7451,-19.6427C33.1665,-26.9199 33.581,-37.155 32.9887,-46.1575"/>
<polygon fill="#191970" stroke="#191970" points="29.4947,-45.8972 31.7668,-56.2455 36.4439,-46.739 29.4947,-45.8972"/>
</g>
<!-- Node5&#45;&gt;Node2 -->
<g id="edge7" class="edge">
<title>Node5&#45;&gt;Node2</title>
<path fill="none" stroke="#191970" d="M265.0578,-168.4509C269.9729,-150.1013 280.8239,-109.5908 287.3118,-85.3693"/>
<polygon fill="#191970" stroke="#191970" points="290.7421,-86.09 289.9487,-75.5249 283.9804,-84.2788 290.7421,-86.09"/>
</g>
<!-- Node6&#45;&gt;Node2 -->
<g id="edge9" class="edge">
<title>Node6&#45;&gt;Node2</title>
<path fill="none" stroke="#191970" d="M185.3056,-168.2118C195.4846,-158.9551 211.126,-144.6381 224.5,-132 241.8927,-115.5644 261.4732,-96.499 275.1406,-83.098"/>
<polygon fill="#191970" stroke="#191970" points="277.7618,-85.4295 282.4432,-75.925 272.8565,-80.4356 277.7618,-85.4295"/>
</g>
<!-- Node7 -->
<g id="node8" class="node">
<title>Node7</title>
<g id="a_node8"><a xlink:href="uio_8h.html" target="_top" xlink:title="libc header for scatter/gather I/O ">
<polygon fill="none" stroke="#000000" points="92.5,-112.5 92.5,-131.5 148.5,-131.5 148.5,-112.5 92.5,-112.5"/>
<text text-anchor="middle" x="120.5" y="-119.5" font-family="Helvetica,sans-Serif" font-size="10.00" fill="#000000">sys/uio.h</text>
</a>
</g>
</g>
<!-- Node6&#45;&gt;Node7 -->
<g id="edge10" class="edge">
<title>Node6&#45;&gt;Node7</title>
<path fill="none" stroke="#191970" d="M165.0939,-168.2455C157.3507,-160.2155 146.188,-148.6394 136.9682,-139.0781"/>
<polygon fill="#191970" stroke="#191970" points="139.2591,-136.4117 129.7983,-131.6427 134.2202,-141.2706 139.2591,-136.4117"/>
</g>
<!-- Node9 -->
<g id="node10" class="node">
<title>Node9</title>
<g id="a_node10"><a xlink:href="timex_8h.html" target="_top" xlink:title="Utility library for comparing and computing timestamps. ">
<polygon fill="none" stroke="#000000" points="167,-112.5 167,-131.5 216,-131.5 216,-112.5 167,-112.5"/>
<text text-anchor="middle" x="191.5" y="-119.5" font-family="Helvetica,sans-Serif" font-size="10.00" fill="#000000">timex.h</text>
</a>
</g>
</g>
<!-- Node6&#45;&gt;Node9 -->
<g id="edge13" class="edge">
<title>Node6&#45;&gt;Node9</title>
<path fill="none" stroke="#191970" d="M177.4612,-168.2455C179.7038,-160.8579 182.8577,-150.4689 185.6081,-141.4087"/>
<polygon fill="#191970" stroke="#191970" points="189.017,-142.2282 188.5728,-131.6427 182.3188,-140.1948 189.017,-142.2282"/>
</g>
<!-- Node11 -->
<g id="node12" class="node">
<title>Node11</title>
<polygon fill="none" stroke="#bfbfbf" points="22.5,-112.5 22.5,-131.5 74.5,-131.5 74.5,-112.5 22.5,-112.5"/>
<text text-anchor="middle" x="48.5" y="-119.5" font-family="Helvetica,sans-Serif" font-size="10.00" fill="#000000">thread.h</text>
</g>
<!-- Node6&#45;&gt;Node11 -->
<g id="edge16" class="edge">
<title>Node6&#45;&gt;Node11</title>
<path fill="none" stroke="#191970" d="M152.8398,-168.3733C132.5228,-159.3435 101.936,-145.7494 79.125,-135.6111"/>
<polygon fill="#191970" stroke="#191970" points="80.4372,-132.3642 69.8775,-131.5011 77.5941,-138.7609 80.4372,-132.3642"/>
</g>
<!-- Node7&#45;&gt;Node3 -->
<g id="edge11" class="edge">
<title>Node7&#45;&gt;Node3</title>
<path fill="none" stroke="#191970" d="M104.1264,-112.2455C89.5692,-103.5731 68.069,-90.7645 51.3848,-80.825"/>
<polygon fill="#191970" stroke="#191970" points="53.0683,-77.7539 42.6859,-75.6427 49.4856,-83.7676 53.0683,-77.7539"/>
</g>
<!-- Node8 -->
<g id="node9" class="node">
<title>Node8</title>
<polygon fill="none" stroke="#bfbfbf" points="93.5,-56.5 93.5,-75.5 161.5,-75.5 161.5,-56.5 93.5,-56.5"/>
<text text-anchor="middle" x="127.5" y="-63.5" font-family="Helvetica,sans-Serif" font-size="10.00" fill="#000000">sys/types.h</text>
</g>
<!-- Node7&#45;&gt;Node8 -->
<g id="edge12" class="edge">
<title>Node7&#45;&gt;Node8</title>
<path fill="none" stroke="#191970" d="M121.7193,-112.2455C122.6327,-104.9382 123.9132,-94.6944 125.0369,-85.7046"/>
<polygon fill="#191970" stroke="#191970" points="128.5272,-85.9996 126.2947,-75.6427 121.5813,-85.1313 128.5272,-85.9996"/>
</g>
<!-- Node9&#45;&gt;Node2 -->
<g id="edge14" class="edge">
<title>Node9&#45;&gt;Node2</title>
<path fill="none" stroke="#191970" d="M209.0929,-112.2455C224.879,-103.4928 248.2639,-90.527 266.2587,-80.5496"/>
<polygon fill="#191970" stroke="#191970" points="268.0603,-83.5528 275.1087,-75.6427 264.6659,-77.4308 268.0603,-83.5528"/>
</g>
<!-- Node10 -->
<g id="node11" class="node">
<title>Node10</title>
<g id="a_node11"><a xlink:href="inttypes_8h.html" target="_top" xlink:title="Adds include for missing inttype definitions. ">
<polygon fill="none" stroke="#000000" points="187,-56.5 187,-75.5 246,-75.5 246,-56.5 187,-56.5"/>
<text text-anchor="middle" x="216.5" y="-63.5" font-family="Helvetica,sans-Serif" font-size="10.00" fill="#000000">inttypes.h</text>
</a>
</g>
</g>
<!-- Node9&#45;&gt;Node10 -->
<g id="edge15" class="edge">
<title>Node9&#45;&gt;Node10</title>
<path fill="none" stroke="#191970" d="M195.8547,-112.2455C199.2244,-104.6973 203.993,-94.0158 208.0983,-84.8197"/>
<polygon fill="#191970" stroke="#191970" points="211.3147,-86.2009 212.1952,-75.6427 204.9227,-83.3473 211.3147,-86.2009"/>
</g>
<!-- Node12&#45;&gt;Node2 -->
<g id="edge19" class="edge">
<title>Node12&#45;&gt;Node2</title>
<path fill="none" stroke="#191970" d="M446.3265,-113.8571C414.822,-104.0557 361.8199,-87.5662 326.9995,-76.7332"/>
<polygon fill="#191970" stroke="#191970" points="327.8458,-73.3311 317.2575,-73.7023 325.7663,-80.0151 327.8458,-73.3311"/>
</g>
<!-- Node13 -->
<g id="node14" class="node">
<title>Node13</title>
<polygon fill="none" stroke="#bfbfbf" points="420.5,-56.5 420.5,-75.5 472.5,-75.5 472.5,-56.5 420.5,-56.5"/>
<text text-anchor="middle" x="446.5" y="-63.5" font-family="Helvetica,sans-Serif" font-size="10.00" fill="#000000">stddef.h</text>
</g>
<!-- Node12&#45;&gt;Node13 -->
<g id="edge18" class="edge">
<title>Node12&#45;&gt;Node13</title>
<path fill="none" stroke="#191970" d="M467.9711,-112.2455C464.4666,-104.6973 459.5073,-94.0158 455.2377,-84.8197"/>
<polygon fill="#191970" stroke="#191970" points="458.3627,-83.2389 450.977,-75.6427 452.0136,-86.1867 458.3627,-83.2389"/>
</g>
<!-- Node14 -->
<g id="node15" class="node">
<title>Node14</title>
<g id="a_node15"><a xlink:href="list_8h.html" target="_top" xlink:title="Intrusive linked list. ">
<polygon fill="none" stroke="#000000" points="490.5,-56.5 490.5,-75.5 528.5,-75.5 528.5,-56.5 490.5,-56.5"/>
<text text-anchor="middle" x="509.5" y="-63.5" font-family="Helvetica,sans-Serif" font-size="10.00" fill="#000000">list.h</text>
</a>
</g>
</g>
<!-- Node12&#45;&gt;Node14 -->
<g id="edge20" class="edge">
<title>Node12&#45;&gt;Node14</title>
<path fill="none" stroke="#191970" d="M478.9449,-112.2455C484.0382,-104.5367 491.2908,-93.5598 497.452,-84.2348"/>
<polygon fill="#191970" stroke="#191970" points="500.5365,-85.9155 503.1289,-75.6427 494.6962,-82.0566 500.5365,-85.9155"/>
</g>
<!-- Node15&#45;&gt;Node2 -->
<g id="edge22" class="edge">
<title>Node15&#45;&gt;Node2</title>
<path fill="none" stroke="#191970" d="M371.7781,-112.2455C356.9111,-103.5731 334.9534,-90.7645 317.9142,-80.825"/>
<polygon fill="#191970" stroke="#191970" points="319.4317,-77.6582 309.0303,-75.6427 315.9045,-83.7047 319.4317,-77.6582"/>
</g>
<!-- Node15&#45;&gt;Node8 -->
<g id="edge26" class="edge">
<title>Node15&#45;&gt;Node8</title>
<path fill="none" stroke="#191970" d="M348.2907,-113.3727C300.4986,-103.1185 221.017,-86.065 171.5845,-75.4587"/>
<polygon fill="#191970" stroke="#191970" points="172.0262,-71.9739 161.5145,-73.2981 170.5577,-78.8182 172.0262,-71.9739"/>
</g>
<!-- Node15&#45;&gt;Node10 -->
<g id="edge23" class="edge">
<title>Node15&#45;&gt;Node10</title>
<path fill="none" stroke="#191970" d="M358.9321,-112.3733C330.3312,-103.0613 286.8212,-88.8953 255.4181,-78.671"/>
<polygon fill="#191970" stroke="#191970" points="256.2743,-75.269 245.682,-75.5011 254.1072,-81.9251 256.2743,-75.269"/>
</g>
<!-- Node15&#45;&gt;Node13 -->
<g id="edge25" class="edge">
<title>Node15&#45;&gt;Node13</title>
<path fill="none" stroke="#191970" d="M398.6028,-112.2455C407.0028,-104.1352 419.1494,-92.4075 429.1084,-82.7919"/>
<polygon fill="#191970" stroke="#191970" points="431.75,-85.1066 436.5129,-75.6427 426.8878,-80.0707 431.75,-85.1066"/>
</g>
<!-- Node16 -->
<g id="node17" class="node">
<title>Node16</title>
<polygon fill="none" stroke="#bfbfbf" points="354.5,-56.5 354.5,-75.5 402.5,-75.5 402.5,-56.5 354.5,-56.5"/>
<text text-anchor="middle" x="378.5" y="-63.5" font-family="Helvetica,sans-Serif" font-size="10.00" fill="#000000">limits.h</text>
</g>
<!-- Node15&#45;&gt;Node16 -->
<g id="edge24" class="edge">
<title>Node15&#45;&gt;Node16</title>
<path fill="none" stroke="#191970" d="M386.7581,-112.2455C385.4533,-104.9382 383.624,-94.6944 382.0187,-85.7046"/>
<polygon fill="#191970" stroke="#191970" points="385.4254,-84.8717 380.2219,-75.6427 378.5344,-86.1022 385.4254,-84.8717"/>
</g>
</g>
</svg>
