<?xml version="1.0" encoding="UTF-8" standalone="no"?>
<!DOCTYPE svg PUBLIC "-//W3C//DTD SVG 1.1//EN"
 "http://www.w3.org/Graphics/SVG/1.1/DTD/svg11.dtd">
<!-- Generated by graphviz version 2.43.0 (0)
 -->
<!-- Title: pkg/uwb&#45;core/include/syscfg/syscfg_twr_ds_ext.h Pages: 1 -->
<svg width="161pt" height="240pt"
 viewBox="0.00 0.00 161.00 240.00" xmlns="http://www.w3.org/2000/svg" xmlns:xlink="http://www.w3.org/1999/xlink">
<g id="graph0" class="graph" transform="scale(1 1) rotate(0) translate(4 236)">
<title>pkg/uwb&#45;core/include/syscfg/syscfg_twr_ds_ext.h</title>
<!-- Node1 -->
<g id="node1" class="node">
<title>Node1</title>
<g id="a_node1"><a xlink:title="uwb&#45;core double side extended two&#45;way ranging module configurations taken from decawave&#45;uwb&#45;core/lib/...">
<polygon fill="#bfbfbf" stroke="black" points="0,-201.5 0,-231.5 153,-231.5 153,-201.5 0,-201.5"/>
<text text-anchor="start" x="8" y="-219.5" font-family="Helvetica,sans-Serif" font-size="10.00">pkg/uwb&#45;core/include</text>
<text text-anchor="middle" x="76.5" y="-208.5" font-family="Helvetica,sans-Serif" font-size="10.00">/syscfg/syscfg_twr_ds_ext.h</text>
</a>
</g>
</g>
<!-- Node2 -->
<g id="node2" class="node">
<title>Node2</title>
<g id="a_node2"><a xlink:href="syscfg_8h.html" target="_top" xlink:title="uwb&#45;core system configurations">
<polygon fill="none" stroke="black" points="16,-134.5 16,-164.5 137,-164.5 137,-134.5 16,-134.5"/>
<text text-anchor="start" x="24" y="-152.5" font-family="Helvetica,sans-Serif" font-size="10.00">pkg/uwb&#45;core/include</text>
<text text-anchor="middle" x="76.5" y="-141.5" font-family="Helvetica,sans-Serif" font-size="10.00">/syscfg/syscfg.h</text>
</a>
</g>
</g>
<!-- Node1&#45;&gt;Node2 -->
<g id="edge1" class="edge">
<title>Node1&#45;&gt;Node2</title>
<path fill="none" stroke="midnightblue" d="M76.5,-191.11C76.5,-182.15 76.5,-172.32 76.5,-164.58"/>
<polygon fill="midnightblue" stroke="midnightblue" points="73,-191.4 76.5,-201.4 80,-191.4 73,-191.4"/>
</g>
<!-- Node3 -->
<g id="node3" class="node">
<title>Node3</title>
<g id="a_node3"><a xlink:href="dpl_8h.html" target="_top" xlink:title="Abstraction layer for RIOT adaption.">
<polygon fill="none" stroke="black" points="16,-67.5 16,-97.5 137,-97.5 137,-67.5 16,-67.5"/>
<text text-anchor="start" x="24" y="-85.5" font-family="Helvetica,sans-Serif" font-size="10.00">pkg/uwb&#45;core/include</text>
<text text-anchor="middle" x="76.5" y="-74.5" font-family="Helvetica,sans-Serif" font-size="10.00">/dpl/dpl.h</text>
</a>
</g>
</g>
<!-- Node2&#45;&gt;Node3 -->
<g id="edge2" class="edge">
<title>Node2&#45;&gt;Node3</title>
<path fill="none" stroke="midnightblue" d="M76.5,-124.11C76.5,-115.15 76.5,-105.32 76.5,-97.58"/>
<polygon fill="midnightblue" stroke="midnightblue" points="73,-124.4 76.5,-134.4 80,-124.4 73,-124.4"/>
</g>
<!-- Node4 -->
<g id="node4" class="node">
<title>Node4</title>
<g id="a_node4"><a xlink:href="os__dev_8h.html" target="_top" xlink:title="Abstraction layer for RIOT adaption.">
<polygon fill="none" stroke="black" points="16,-0.5 16,-30.5 137,-30.5 137,-0.5 16,-0.5"/>
<text text-anchor="start" x="24" y="-18.5" font-family="Helvetica,sans-Serif" font-size="10.00">pkg/uwb&#45;core/include</text>
<text text-anchor="middle" x="76.5" y="-7.5" font-family="Helvetica,sans-Serif" font-size="10.00">/os/os_dev.h</text>
</a>
</g>
</g>
<!-- Node3&#45;&gt;Node4 -->
<g id="edge3" class="edge">
<title>Node3&#45;&gt;Node4</title>
<path fill="none" stroke="midnightblue" d="M76.5,-57.11C76.5,-48.15 76.5,-38.32 76.5,-30.58"/>
<polygon fill="midnightblue" stroke="midnightblue" points="73,-57.4 76.5,-67.4 80,-57.4 73,-57.4"/>
</g>
</g>
</svg>
