<?xml version="1.0" encoding="UTF-8" standalone="no"?>
<!DOCTYPE svg PUBLIC "-//W3C//DTD SVG 1.1//EN"
 "http://www.w3.org/Graphics/SVG/1.1/DTD/svg11.dtd">
<!-- Generated by graphviz version 2.43.0 (0)
 -->
<!-- Title: pkg/uwb&#45;core/include/syscfg/syscfg_uwb_rng.h Pages: 1 -->
<svg width="149pt" height="240pt"
 viewBox="0.00 0.00 149.00 240.00" xmlns="http://www.w3.org/2000/svg" xmlns:xlink="http://www.w3.org/1999/xlink">
<g id="graph0" class="graph" transform="scale(1 1) rotate(0) translate(4 236)">
<title>pkg/uwb&#45;core/include/syscfg/syscfg_uwb_rng.h</title>
<!-- Node1 -->
<g id="node1" class="node">
<title>Node1</title>
<g id="a_node1"><a xlink:title="uwb&#45;core uwb_rng module configurations taken from decawave&#45;uwb&#45;core/lib/uwb_rng/syscfg....">
<polygon fill="#bfbfbf" stroke="black" points="0,-201.5 0,-231.5 141,-231.5 141,-201.5 0,-201.5"/>
<text text-anchor="start" x="8" y="-219.5" font-family="Helvetica,sans-Serif" font-size="10.00">pkg/uwb&#45;core/include</text>
<text text-anchor="middle" x="70.5" y="-208.5" font-family="Helvetica,sans-Serif" font-size="10.00">/syscfg/syscfg_uwb_rng.h</text>
</a>
</g>
</g>
<!-- Node2 -->
<g id="node2" class="node">
<title>Node2</title>
<g id="a_node2"><a xlink:href="syscfg_8h.html" target="_top" xlink:title="uwb&#45;core system configurations">
<polygon fill="none" stroke="black" points="10,-134.5 10,-164.5 131,-164.5 131,-134.5 10,-134.5"/>
<text text-anchor="start" x="18" y="-152.5" font-family="Helvetica,sans-Serif" font-size="10.00">pkg/uwb&#45;core/include</text>
<text text-anchor="middle" x="70.5" y="-141.5" font-family="Helvetica,sans-Serif" font-size="10.00">/syscfg/syscfg.h</text>
</a>
</g>
</g>
<!-- Node1&#45;&gt;Node2 -->
<g id="edge1" class="edge">
<title>Node1&#45;&gt;Node2</title>
<path fill="none" stroke="midnightblue" d="M70.5,-191.11C70.5,-182.15 70.5,-172.32 70.5,-164.58"/>
<polygon fill="midnightblue" stroke="midnightblue" points="67,-191.4 70.5,-201.4 74,-191.4 67,-191.4"/>
</g>
<!-- Node3 -->
<g id="node3" class="node">
<title>Node3</title>
<g id="a_node3"><a xlink:href="dpl_8h.html" target="_top" xlink:title="Abstraction layer for RIOT adaption.">
<polygon fill="none" stroke="black" points="10,-67.5 10,-97.5 131,-97.5 131,-67.5 10,-67.5"/>
<text text-anchor="start" x="18" y="-85.5" font-family="Helvetica,sans-Serif" font-size="10.00">pkg/uwb&#45;core/include</text>
<text text-anchor="middle" x="70.5" y="-74.5" font-family="Helvetica,sans-Serif" font-size="10.00">/dpl/dpl.h</text>
</a>
</g>
</g>
<!-- Node2&#45;&gt;Node3 -->
<g id="edge2" class="edge">
<title>Node2&#45;&gt;Node3</title>
<path fill="none" stroke="midnightblue" d="M70.5,-124.11C70.5,-115.15 70.5,-105.32 70.5,-97.58"/>
<polygon fill="midnightblue" stroke="midnightblue" points="67,-124.4 70.5,-134.4 74,-124.4 67,-124.4"/>
</g>
<!-- Node4 -->
<g id="node4" class="node">
<title>Node4</title>
<g id="a_node4"><a xlink:href="os__dev_8h.html" target="_top" xlink:title="Abstraction layer for RIOT adaption.">
<polygon fill="none" stroke="black" points="10,-0.5 10,-30.5 131,-30.5 131,-0.5 10,-0.5"/>
<text text-anchor="start" x="18" y="-18.5" font-family="Helvetica,sans-Serif" font-size="10.00">pkg/uwb&#45;core/include</text>
<text text-anchor="middle" x="70.5" y="-7.5" font-family="Helvetica,sans-Serif" font-size="10.00">/os/os_dev.h</text>
</a>
</g>
</g>
<!-- Node3&#45;&gt;Node4 -->
<g id="edge3" class="edge">
<title>Node3&#45;&gt;Node4</title>
<path fill="none" stroke="midnightblue" d="M70.5,-57.11C70.5,-48.15 70.5,-38.32 70.5,-30.58"/>
<polygon fill="midnightblue" stroke="midnightblue" points="67,-57.4 70.5,-67.4 74,-57.4 67,-57.4"/>
</g>
</g>
</svg>
