<?xml version="1.0" encoding="UTF-8" standalone="no"?>
<!DOCTYPE svg PUBLIC "-//W3C//DTD SVG 1.1//EN"
 "http://www.w3.org/Graphics/SVG/1.1/DTD/svg11.dtd">
<!-- Generated by graphviz version 2.40.1 (20161225.0304)
 -->
<!-- Title: cpu/esp_common/include/syscalls_common.h Pages: 1 -->
<svg width="370pt" height="151pt"
 viewBox="0.00 0.00 369.50 151.00" xmlns="http://www.w3.org/2000/svg" xmlns:xlink="http://www.w3.org/1999/xlink">
<g id="graph0" class="graph" transform="scale(1 1) rotate(0) translate(4 147)">
<title>cpu/esp_common/include/syscalls_common.h</title>
<!-- Node0 -->
<g id="node1" class="node">
<title>Node0</title>
<polygon fill="#bfbfbf" stroke="#000000" points="105,-112.5 105,-142.5 233,-142.5 233,-112.5 105,-112.5"/>
<text text-anchor="start" x="113" y="-130.5" font-family="Helvetica,sans-Serif" font-size="10.00" fill="#000000">cpu/esp_common/include</text>
<text text-anchor="middle" x="169" y="-119.5" font-family="Helvetica,sans-Serif" font-size="10.00" fill="#000000">/syscalls_common.h</text>
</g>
<!-- Node1 -->
<g id="node2" class="node">
<title>Node1</title>
<polygon fill="none" stroke="#bfbfbf" points="0,-56.5 0,-75.5 52,-75.5 52,-56.5 0,-56.5"/>
<text text-anchor="middle" x="26" y="-63.5" font-family="Helvetica,sans-Serif" font-size="10.00" fill="#000000">stdarg.h</text>
</g>
<!-- Node0&#45;&gt;Node1 -->
<g id="edge1" class="edge">
<title>Node0&#45;&gt;Node1</title>
<path fill="none" stroke="#191970" d="M134.0183,-112.4554C110.6816,-102.419 80.2502,-89.3314 57.637,-79.6061"/>
<polygon fill="#191970" stroke="#191970" points="58.7292,-76.2659 48.1599,-75.5303 55.9636,-82.6965 58.7292,-76.2659"/>
</g>
<!-- Node2 -->
<g id="node3" class="node">
<title>Node2</title>
<polygon fill="none" stroke="#bfbfbf" points="70,-56.5 70,-75.5 126,-75.5 126,-56.5 70,-56.5"/>
<text text-anchor="middle" x="98" y="-63.5" font-family="Helvetica,sans-Serif" font-size="10.00" fill="#000000">stdbool.h</text>
</g>
<!-- Node0&#45;&gt;Node2 -->
<g id="edge2" class="edge">
<title>Node0&#45;&gt;Node2</title>
<path fill="none" stroke="#191970" d="M151.4494,-112.2977C140.9779,-103.2274 127.6789,-91.7077 116.9662,-82.4285"/>
<polygon fill="#191970" stroke="#191970" points="119.2182,-79.7487 109.368,-75.8469 114.6351,-85.0398 119.2182,-79.7487"/>
</g>
<!-- Node3 -->
<g id="node4" class="node">
<title>Node3</title>
<polygon fill="none" stroke="#bfbfbf" points="144.5,-56.5 144.5,-75.5 193.5,-75.5 193.5,-56.5 144.5,-56.5"/>
<text text-anchor="middle" x="169" y="-63.5" font-family="Helvetica,sans-Serif" font-size="10.00" fill="#000000">stdint.h</text>
</g>
<!-- Node0&#45;&gt;Node3 -->
<g id="edge3" class="edge">
<title>Node0&#45;&gt;Node3</title>
<path fill="none" stroke="#191970" d="M169,-112.2977C169,-104.3834 169,-94.6043 169,-86.0759"/>
<polygon fill="#191970" stroke="#191970" points="172.5001,-85.8469 169,-75.8469 165.5001,-85.847 172.5001,-85.8469"/>
</g>
<!-- Node4 -->
<g id="node5" class="node">
<title>Node4</title>
<g id="a_node5"><a xlink:href="stdlib_8h.html" target="_top" xlink:title="stdlib.h wrapper for MSP430 ">
<polygon fill="none" stroke="#000000" points="212,-56.5 212,-75.5 260,-75.5 260,-56.5 212,-56.5"/>
<text text-anchor="middle" x="236" y="-63.5" font-family="Helvetica,sans-Serif" font-size="10.00" fill="#000000">stdlib.h</text>
</a>
</g>
</g>
<!-- Node0&#45;&gt;Node4 -->
<g id="edge4" class="edge">
<title>Node0&#45;&gt;Node4</title>
<path fill="none" stroke="#191970" d="M185.5618,-112.2977C195.3465,-103.3163 207.7474,-91.9334 217.8043,-82.702"/>
<polygon fill="#191970" stroke="#191970" points="220.2722,-85.1876 225.2725,-75.8469 215.5387,-80.0307 220.2722,-85.1876"/>
</g>
<!-- Node6 -->
<g id="node7" class="node">
<title>Node6</title>
<g id="a_node7"><a xlink:href="esp__common_8h.html" target="_top" xlink:title="Common helper macros for ESP SoCs. ">
<polygon fill="none" stroke="#000000" points="278.5,-56.5 278.5,-75.5 361.5,-75.5 361.5,-56.5 278.5,-56.5"/>
<text text-anchor="middle" x="320" y="-63.5" font-family="Helvetica,sans-Serif" font-size="10.00" fill="#000000">esp_common.h</text>
</a>
</g>
</g>
<!-- Node0&#45;&gt;Node6 -->
<g id="edge7" class="edge">
<title>Node0&#45;&gt;Node6</title>
<path fill="none" stroke="#191970" d="M205.9388,-112.4554C230.802,-102.329 263.2918,-89.0964 287.2336,-79.3453"/>
<polygon fill="#191970" stroke="#191970" points="288.6593,-82.5438 296.6004,-75.5303 286.0188,-76.0609 288.6593,-82.5438"/>
</g>
<!-- Node5 -->
<g id="node6" class="node">
<title>Node5</title>
<g id="a_node6"><a xlink:href="malloc_8h.html" target="_top" xlink:title="malloc.h">
<polygon fill="none" stroke="#000000" points="209.5,-.5 209.5,-19.5 262.5,-19.5 262.5,-.5 209.5,-.5"/>
<text text-anchor="middle" x="236" y="-7.5" font-family="Helvetica,sans-Serif" font-size="10.00" fill="#000000">malloc.h</text>
</a>
</g>
</g>
<!-- Node4&#45;&gt;Node5 -->
<g id="edge5" class="edge">
<title>Node4&#45;&gt;Node5</title>
<path fill="none" stroke="#191970" d="M230.7332,-56.2455C229.3221,-48.9382 228.9179,-38.6944 229.5205,-29.7046"/>
<polygon fill="#191970" stroke="#191970" points="233.0111,-29.9945 230.7549,-19.6427 226.0632,-29.1421 233.0111,-29.9945"/>
</g>
<!-- Node5&#45;&gt;Node4 -->
<g id="edge6" class="edge">
<title>Node5&#45;&gt;Node4</title>
<path fill="none" stroke="#191970" d="M241.2451,-19.6427C242.6665,-26.9199 243.081,-37.155 242.4887,-46.1575"/>
<polygon fill="#191970" stroke="#191970" points="238.9947,-45.8972 241.2668,-56.2455 245.9439,-46.739 238.9947,-45.8972"/>
</g>
</g>
</svg>
