<?xml version="1.0" encoding="UTF-8" standalone="no"?>
<!DOCTYPE svg PUBLIC "-//W3C//DTD SVG 1.1//EN"
 "http://www.w3.org/Graphics/SVG/1.1/DTD/svg11.dtd">
<!-- Generated by graphviz version 2.40.1 (20161225.0304)
 -->
<!-- Title: sys/cpp11&#45;compat/include/riot/thread.hpp Pages: 1 -->
<svg width="1729pt" height="554pt"
 viewBox="0.00 0.00 1728.70 554.00" xmlns="http://www.w3.org/2000/svg" xmlns:xlink="http://www.w3.org/1999/xlink">
<g id="graph0" class="graph" transform="scale(1 1) rotate(0) translate(4 550)">
<title>sys/cpp11&#45;compat/include/riot/thread.hpp</title>
<!-- Node0 -->
<g id="node1" class="node">
<title>Node0</title>
<polygon fill="#bfbfbf" stroke="#000000" points="387.9291,-515.5 387.9291,-545.5 518.9291,-545.5 518.9291,-515.5 387.9291,-515.5"/>
<text text-anchor="start" x="395.9291" y="-533.5" font-family="Helvetica,sans-Serif" font-size="10.00" fill="#000000">sys/cpp11&#45;compat/include</text>
<text text-anchor="middle" x="453.4291" y="-522.5" font-family="Helvetica,sans-Serif" font-size="10.00" fill="#000000">/riot/thread.hpp</text>
</g>
<!-- Node1 -->
<g id="node2" class="node">
<title>Node1</title>
<polygon fill="none" stroke="#bfbfbf" points="758.4291,-336.5 758.4291,-355.5 802.4291,-355.5 802.4291,-336.5 758.4291,-336.5"/>
<text text-anchor="middle" x="780.4291" y="-343.5" font-family="Helvetica,sans-Serif" font-size="10.00" fill="#000000">time.h</text>
</g>
<!-- Node0&#45;&gt;Node1 -->
<g id="edge1" class="edge">
<title>Node0&#45;&gt;Node1</title>
<path fill="none" stroke="#191970" d="M519.1784,-523.3059C583.6182,-515.1683 676.2816,-500.2279 705.4291,-479 744.5704,-450.4937 766.0392,-394.9538 775.1273,-365.4722"/>
<polygon fill="#191970" stroke="#191970" points="778.5783,-366.1396 778.0153,-355.5597 771.8578,-364.1815 778.5783,-366.1396"/>
</g>
<!-- Node2 -->
<g id="node3" class="node">
<title>Node2</title>
<polygon fill="none" stroke="#bfbfbf" points="21.4291,-454 21.4291,-473 73.4291,-473 73.4291,-454 21.4291,-454"/>
<text text-anchor="middle" x="47.4291" y="-461" font-family="Helvetica,sans-Serif" font-size="10.00" fill="#000000">thread.h</text>
</g>
<!-- Node0&#45;&gt;Node2 -->
<g id="edge2" class="edge">
<title>Node0&#45;&gt;Node2</title>
<path fill="none" stroke="#191970" d="M387.6184,-526.9143C312.5527,-521.5568 186.7164,-508.6966 82.4291,-479 80.248,-478.3789 78.0265,-477.648 75.8141,-476.8475"/>
<polygon fill="#191970" stroke="#191970" points="76.9096,-473.5154 66.3264,-473.0183 74.2896,-480.0067 76.9096,-473.5154"/>
</g>
<!-- Node3 -->
<g id="node4" class="node">
<title>Node3</title>
<polygon fill="none" stroke="#bfbfbf" points="91.4291,-454 91.4291,-473 129.4291,-473 129.4291,-454 91.4291,-454"/>
<text text-anchor="middle" x="110.4291" y="-461" font-family="Helvetica,sans-Serif" font-size="10.00" fill="#000000">array</text>
</g>
<!-- Node0&#45;&gt;Node3 -->
<g id="edge3" class="edge">
<title>Node0&#45;&gt;Node3</title>
<path fill="none" stroke="#191970" d="M387.8046,-524.8722C324.2146,-518.1956 225.6013,-504.5872 143.4291,-479 141.5708,-478.4213 139.6827,-477.758 137.7989,-477.0388"/>
<polygon fill="#191970" stroke="#191970" points="139.1444,-473.8077 128.5726,-473.1092 136.4014,-480.2479 139.1444,-473.8077"/>
</g>
<!-- Node4 -->
<g id="node5" class="node">
<title>Node4</title>
<polygon fill="none" stroke="#bfbfbf" points="240.4291,-392.5 240.4291,-411.5 278.4291,-411.5 278.4291,-392.5 240.4291,-392.5"/>
<text text-anchor="middle" x="259.4291" y="-399.5" font-family="Helvetica,sans-Serif" font-size="10.00" fill="#000000">tuple</text>
</g>
<!-- Node0&#45;&gt;Node4 -->
<g id="edge4" class="edge">
<title>Node0&#45;&gt;Node4</title>
<path fill="none" stroke="#191970" d="M387.7014,-527.6705C314.4419,-522.9756 202.7717,-510.6917 176.4291,-479 167.6221,-468.4046 169.436,-459.8711 176.4291,-448 188.0537,-428.2669 211.5285,-416.4006 230.5555,-409.6762"/>
<polygon fill="#191970" stroke="#191970" points="231.8482,-412.9368 240.2888,-406.533 229.6971,-406.2755 231.8482,-412.9368"/>
</g>
<!-- Node5 -->
<g id="node6" class="node">
<title>Node5</title>
<polygon fill="none" stroke="#bfbfbf" points="185.4291,-454 185.4291,-473 231.4291,-473 231.4291,-454 185.4291,-454"/>
<text text-anchor="middle" x="208.4291" y="-461" font-family="Helvetica,sans-Serif" font-size="10.00" fill="#000000">atomic</text>
</g>
<!-- Node0&#45;&gt;Node5 -->
<g id="edge5" class="edge">
<title>Node0&#45;&gt;Node5</title>
<path fill="none" stroke="#191970" d="M387.5857,-518.3765C344.9482,-509.6037 288.5988,-496.2647 240.4291,-479 238.8311,-478.4272 237.2072,-477.7987 235.5813,-477.1329"/>
<polygon fill="#191970" stroke="#191970" points="236.9737,-473.9216 226.4154,-473.0424 234.1209,-480.314 236.9737,-473.9216"/>
</g>
<!-- Node6 -->
<g id="node7" class="node">
<title>Node6</title>
<polygon fill="none" stroke="#bfbfbf" points="249.4291,-454 249.4291,-473 301.4291,-473 301.4291,-454 249.4291,-454"/>
<text text-anchor="middle" x="275.4291" y="-461" font-family="Helvetica,sans-Serif" font-size="10.00" fill="#000000">memory</text>
</g>
<!-- Node0&#45;&gt;Node6 -->
<g id="edge6" class="edge">
<title>Node0&#45;&gt;Node6</title>
<path fill="none" stroke="#191970" d="M408.9955,-515.4134C380.6097,-505.5505 343.1264,-492.1086 310.4291,-479 308.8601,-478.3709 307.2573,-477.7139 305.6429,-477.0405"/>
<polygon fill="#191970" stroke="#191970" points="306.9952,-473.8123 296.4251,-473.0886 304.2369,-480.2459 306.9952,-473.8123"/>
</g>
<!-- Node7 -->
<g id="node8" class="node">
<title>Node7</title>
<polygon fill="none" stroke="#bfbfbf" points="488.4291,-336.5 488.4291,-355.5 528.4291,-355.5 528.4291,-336.5 488.4291,-336.5"/>
<text text-anchor="middle" x="508.4291" y="-343.5" font-family="Helvetica,sans-Serif" font-size="10.00" fill="#000000">utility</text>
</g>
<!-- Node0&#45;&gt;Node7 -->
<g id="edge7" class="edge">
<title>Node0&#45;&gt;Node7</title>
<path fill="none" stroke="#191970" d="M468.0763,-515.0969C476.3372,-505.4779 486.0523,-492.4069 491.4291,-479 506.6003,-441.1712 508.9713,-392.8732 508.9545,-366.1223"/>
<polygon fill="#191970" stroke="#191970" points="512.4498,-365.7207 508.824,-355.7657 505.4504,-365.809 512.4498,-365.7207"/>
</g>
<!-- Node8 -->
<g id="node9" class="node">
<title>Node8</title>
<polygon fill="none" stroke="#bfbfbf" points="423.9291,-454 423.9291,-473 482.9291,-473 482.9291,-454 423.9291,-454"/>
<text text-anchor="middle" x="453.4291" y="-461" font-family="Helvetica,sans-Serif" font-size="10.00" fill="#000000">exception</text>
</g>
<!-- Node0&#45;&gt;Node8 -->
<g id="edge8" class="edge">
<title>Node0&#45;&gt;Node8</title>
<path fill="none" stroke="#191970" d="M453.4291,-515.2967C453.4291,-505.7699 453.4291,-493.3954 453.4291,-483.1306"/>
<polygon fill="#191970" stroke="#191970" points="456.9292,-483.0549 453.4291,-473.055 449.9292,-483.055 456.9292,-483.0549"/>
</g>
<!-- Node9 -->
<g id="node10" class="node">
<title>Node9</title>
<polygon fill="none" stroke="#bfbfbf" points="194.9291,-336.5 194.9291,-355.5 253.9291,-355.5 253.9291,-336.5 194.9291,-336.5"/>
<text text-anchor="middle" x="224.4291" y="-343.5" font-family="Helvetica,sans-Serif" font-size="10.00" fill="#000000">stdexcept</text>
</g>
<!-- Node0&#45;&gt;Node9 -->
<g id="edge9" class="edge">
<title>Node0&#45;&gt;Node9</title>
<path fill="none" stroke="#191970" d="M387.7663,-527.5664C270.9523,-521.6694 36.9317,-506.5305 12.4291,-479 -43.9208,-415.6866 108.7077,-371.6364 184.5473,-354.2554"/>
<polygon fill="#191970" stroke="#191970" points="185.7153,-357.5806 194.7092,-351.9806 184.1861,-350.7497 185.7153,-357.5806"/>
</g>
<!-- Node10 -->
<g id="node11" class="node">
<title>Node10</title>
<polygon fill="none" stroke="#bfbfbf" points="539.9291,-454 539.9291,-473 598.9291,-473 598.9291,-454 539.9291,-454"/>
<text text-anchor="middle" x="569.4291" y="-461" font-family="Helvetica,sans-Serif" font-size="10.00" fill="#000000">functional</text>
</g>
<!-- Node0&#45;&gt;Node10 -->
<g id="edge10" class="edge">
<title>Node0&#45;&gt;Node10</title>
<path fill="none" stroke="#191970" d="M479.4618,-515.4639C498.7498,-504.3234 524.897,-489.2212 544.032,-478.1691"/>
<polygon fill="#191970" stroke="#191970" points="545.8926,-481.1363 552.8015,-473.1039 542.3915,-475.0747 545.8926,-481.1363"/>
</g>
<!-- Node11 -->
<g id="node12" class="node">
<title>Node11</title>
<polygon fill="none" stroke="#bfbfbf" points="617.4291,-454 617.4291,-473 679.4291,-473 679.4291,-454 617.4291,-454"/>
<text text-anchor="middle" x="648.4291" y="-461" font-family="Helvetica,sans-Serif" font-size="10.00" fill="#000000">type_traits</text>
</g>
<!-- Node0&#45;&gt;Node11 -->
<g id="edge11" class="edge">
<title>Node0&#45;&gt;Node11</title>
<path fill="none" stroke="#191970" d="M500.0897,-515.4166C530.7105,-505.3903 571.5758,-491.7667 607.4291,-479 609.526,-478.2533 611.679,-477.475 613.8478,-476.6818"/>
<polygon fill="#191970" stroke="#191970" points="615.1753,-479.9225 623.3337,-473.163 612.7407,-473.3595 615.1753,-479.9225"/>
</g>
<!-- Node12 -->
<g id="node13" class="node">
<title>Node12</title>
<g id="a_node13"><a xlink:href="mutex_8hpp.html" target="_top" xlink:title="C++11 mutex drop in replacement. ">
<polygon fill="none" stroke="#000000" points="566.9291,-392.5 566.9291,-411.5 645.9291,-411.5 645.9291,-392.5 566.9291,-392.5"/>
<text text-anchor="middle" x="606.4291" y="-399.5" font-family="Helvetica,sans-Serif" font-size="10.00" fill="#000000">riot/mutex.hpp</text>
</a>
</g>
</g>
<!-- Node0&#45;&gt;Node12 -->
<g id="edge12" class="edge">
<title>Node0&#45;&gt;Node12</title>
<path fill="none" stroke="#191970" d="M518.9481,-525.1878C580.9229,-518.6421 667.4833,-505.0332 688.4291,-479 697.066,-468.2654 695.3917,-459.8891 688.4291,-448 679.7537,-433.186 664.3666,-422.7802 649.2467,-415.6608"/>
<polygon fill="#191970" stroke="#191970" points="650.4979,-412.3888 639.9293,-411.6426 647.7258,-418.8166 650.4979,-412.3888"/>
</g>
<!-- Node18 -->
<g id="node19" class="node">
<title>Node18</title>
<g id="a_node19"><a xlink:href="chrono_8hpp.html" target="_top" xlink:title="C++11 chrono drop in replacement that adds the function now based on xtimer/timex. ">
<polygon fill="none" stroke="#000000" points="926.9291,-392.5 926.9291,-411.5 1007.9291,-411.5 1007.9291,-392.5 926.9291,-392.5"/>
<text text-anchor="middle" x="967.4291" y="-399.5" font-family="Helvetica,sans-Serif" font-size="10.00" fill="#000000">riot/chrono.hpp</text>
</a>
</g>
</g>
<!-- Node0&#45;&gt;Node18 -->
<g id="edge20" class="edge">
<title>Node0&#45;&gt;Node18</title>
<path fill="none" stroke="#191970" d="M519.2661,-526.5943C640.6396,-518.9135 890.3514,-500.6901 923.4291,-479 943.8789,-465.5904 955.8904,-439.1809 962.0625,-421.064"/>
<polygon fill="#191970" stroke="#191970" points="965.4041,-422.1049 965.0415,-411.5163 958.7218,-420.02 965.4041,-422.1049"/>
</g>
<!-- Node43 -->
<g id="node44" class="node">
<title>Node43</title>
<g id="a_node44"><a xlink:href="condition__variable_8hpp.html" target="_top" xlink:title="C++11 condition variable drop in replacement. ">
<polygon fill="none" stroke="#000000" points="784.4291,-454 784.4291,-473 914.4291,-473 914.4291,-454 784.4291,-454"/>
<text text-anchor="middle" x="849.4291" y="-461" font-family="Helvetica,sans-Serif" font-size="10.00" fill="#000000">riot/condition_variable.hpp</text>
</a>
</g>
</g>
<!-- Node0&#45;&gt;Node43 -->
<g id="edge61" class="edge">
<title>Node0&#45;&gt;Node43</title>
<path fill="none" stroke="#191970" d="M519.1019,-519.5216C581.0745,-509.1441 676.5809,-493.1058 759.4291,-479 767.4298,-477.6378 775.8292,-476.2007 784.1481,-474.773"/>
<polygon fill="#191970" stroke="#191970" points="784.9602,-478.1848 794.223,-473.0419 783.7748,-471.2859 784.9602,-478.1848"/>
</g>
<!-- Node48 -->
<g id="node49" class="node">
<title>Node48</title>
<g id="a_node49"><a xlink:href="thread__util_8hpp.html" target="_top" xlink:title="utility functions ">
<polygon fill="none" stroke="#000000" points="319.4291,-448.5 319.4291,-478.5 405.4291,-478.5 405.4291,-448.5 319.4291,-448.5"/>
<text text-anchor="start" x="327.4291" y="-466.5" font-family="Helvetica,sans-Serif" font-size="10.00" fill="#000000">riot/detail/thread</text>
<text text-anchor="middle" x="362.4291" y="-455.5" font-family="Helvetica,sans-Serif" font-size="10.00" fill="#000000">_util.hpp</text>
</a>
</g>
</g>
<!-- Node0&#45;&gt;Node48 -->
<g id="edge76" class="edge">
<title>Node0&#45;&gt;Node48</title>
<path fill="none" stroke="#191970" d="M432.7798,-515.2967C420.4468,-506.2163 404.6,-494.5488 391.0697,-484.587"/>
<polygon fill="#191970" stroke="#191970" points="393.1247,-481.7537 382.9967,-478.6432 388.9744,-487.3907 393.1247,-481.7537"/>
</g>
<!-- Node12&#45;&gt;Node7 -->
<g id="edge17" class="edge">
<title>Node12&#45;&gt;Node7</title>
<path fill="none" stroke="#191970" d="M589.3588,-392.2455C574.1821,-383.5731 551.767,-370.7645 534.3729,-360.825"/>
<polygon fill="#191970" stroke="#191970" points="535.7228,-357.5653 525.3038,-355.6427 532.2498,-363.643 535.7228,-357.5653"/>
</g>
<!-- Node12&#45;&gt;Node9 -->
<g id="edge18" class="edge">
<title>Node12&#45;&gt;Node9</title>
<path fill="none" stroke="#191970" d="M566.6295,-396.1655C493.3199,-385.4185 337.7498,-362.6124 264.3498,-351.8522"/>
<polygon fill="#191970" stroke="#191970" points="264.538,-348.3425 254.1361,-350.3549 263.5226,-355.2685 264.538,-348.3425"/>
</g>
<!-- Node13 -->
<g id="node14" class="node">
<title>Node13</title>
<g id="a_node14"><a xlink:href="mutex_8h.html" target="_top" xlink:title="Mutex for thread synchronization. ">
<polygon fill="none" stroke="#000000" points="658.4291,-224.5 658.4291,-243.5 710.4291,-243.5 710.4291,-224.5 658.4291,-224.5"/>
<text text-anchor="middle" x="684.4291" y="-231.5" font-family="Helvetica,sans-Serif" font-size="10.00" fill="#000000">mutex.h</text>
</a>
</g>
</g>
<!-- Node12&#45;&gt;Node13 -->
<g id="edge13" class="edge">
<title>Node12&#45;&gt;Node13</title>
<path fill="none" stroke="#191970" d="M611.4794,-392.1855C616.218,-382.9103 623.4511,-368.5808 629.4291,-356 646.6276,-319.8061 665.6172,-277.0042 676.1778,-252.9275"/>
<polygon fill="#191970" stroke="#191970" points="679.4782,-254.1156 680.2792,-243.551 673.0649,-251.3102 679.4782,-254.1156"/>
</g>
<!-- Node17 -->
<g id="node18" class="node">
<title>Node17</title>
<polygon fill="none" stroke="#bfbfbf" points="546.4291,-336.5 546.4291,-355.5 620.4291,-355.5 620.4291,-336.5 546.4291,-336.5"/>
<text text-anchor="middle" x="583.4291" y="-343.5" font-family="Helvetica,sans-Serif" font-size="10.00" fill="#000000">system_error</text>
</g>
<!-- Node12&#45;&gt;Node17 -->
<g id="edge19" class="edge">
<title>Node12&#45;&gt;Node17</title>
<path fill="none" stroke="#191970" d="M602.4229,-392.2455C599.3557,-384.7776 595.0288,-374.2427 591.2794,-365.1137"/>
<polygon fill="#191970" stroke="#191970" points="594.4264,-363.5631 587.3895,-355.6427 587.9512,-366.2226 594.4264,-363.5631"/>
</g>
<!-- Node14 -->
<g id="node15" class="node">
<title>Node14</title>
<polygon fill="none" stroke="#bfbfbf" points="1227.4291,-.5 1227.4291,-19.5 1279.4291,-19.5 1279.4291,-.5 1227.4291,-.5"/>
<text text-anchor="middle" x="1253.4291" y="-7.5" font-family="Helvetica,sans-Serif" font-size="10.00" fill="#000000">stddef.h</text>
</g>
<!-- Node13&#45;&gt;Node14 -->
<g id="edge14" class="edge">
<title>Node13&#45;&gt;Node14</title>
<path fill="none" stroke="#191970" d="M693.7347,-224.1104C707.6468,-209.8529 735.2591,-183.5342 763.4291,-168 920.8681,-81.181 1133.4103,-33.2498 1217.2647,-16.6954"/>
<polygon fill="#191970" stroke="#191970" points="1218.1556,-20.0878 1227.3035,-14.743 1216.8192,-13.2166 1218.1556,-20.0878"/>
</g>
<!-- Node15 -->
<g id="node16" class="node">
<title>Node15</title>
<polygon fill="none" stroke="#bfbfbf" points="772.9291,-168.5 772.9291,-187.5 821.9291,-187.5 821.9291,-168.5 772.9291,-168.5"/>
<text text-anchor="middle" x="797.4291" y="-175.5" font-family="Helvetica,sans-Serif" font-size="10.00" fill="#000000">stdint.h</text>
</g>
<!-- Node13&#45;&gt;Node15 -->
<g id="edge15" class="edge">
<title>Node13&#45;&gt;Node15</title>
<path fill="none" stroke="#191970" d="M703.8545,-224.3733C721.8313,-215.4644 748.7732,-202.1127 769.1382,-192.0203"/>
<polygon fill="#191970" stroke="#191970" points="770.8513,-195.0776 778.2572,-187.5011 767.743,-188.8055 770.8513,-195.0776"/>
</g>
<!-- Node16 -->
<g id="node17" class="node">
<title>Node16</title>
<g id="a_node17"><a xlink:href="list_8h.html" target="_top" xlink:title="Intrusive linked list. ">
<polygon fill="none" stroke="#000000" points="1427.4291,-168.5 1427.4291,-187.5 1465.4291,-187.5 1465.4291,-168.5 1427.4291,-168.5"/>
<text text-anchor="middle" x="1446.4291" y="-175.5" font-family="Helvetica,sans-Serif" font-size="10.00" fill="#000000">list.h</text>
</a>
</g>
</g>
<!-- Node13&#45;&gt;Node16 -->
<g id="edge16" class="edge">
<title>Node13&#45;&gt;Node16</title>
<path fill="none" stroke="#191970" d="M710.7242,-229.869C724.5863,-227.8253 741.8937,-225.4846 757.4291,-224 1047.0188,-196.3258 1128.1889,-244.9662 1417.4203,-187.6271"/>
<polygon fill="#191970" stroke="#191970" points="1418.2414,-191.0322 1427.3568,-185.632 1416.8634,-184.1691 1418.2414,-191.0322"/>
</g>
<!-- Node18&#45;&gt;Node1 -->
<g id="edge23" class="edge">
<title>Node18&#45;&gt;Node1</title>
<path fill="none" stroke="#191970" d="M935.2827,-392.3733C900.9298,-382.0858 846.7937,-365.8739 812.4782,-355.5976"/>
<polygon fill="#191970" stroke="#191970" points="813.0926,-352.1281 802.5088,-352.6121 811.0844,-358.8338 813.0926,-352.1281"/>
</g>
<!-- Node19 -->
<g id="node20" class="node">
<title>Node19</title>
<polygon fill="none" stroke="#bfbfbf" points="944.4291,-336.5 944.4291,-355.5 990.4291,-355.5 990.4291,-336.5 944.4291,-336.5"/>
<text text-anchor="middle" x="967.4291" y="-343.5" font-family="Helvetica,sans-Serif" font-size="10.00" fill="#000000">chrono</text>
</g>
<!-- Node18&#45;&gt;Node19 -->
<g id="edge21" class="edge">
<title>Node18&#45;&gt;Node19</title>
<path fill="none" stroke="#191970" d="M967.4291,-392.2455C967.4291,-384.9382 967.4291,-374.6944 967.4291,-365.7046"/>
<polygon fill="#191970" stroke="#191970" points="970.9292,-365.6426 967.4291,-355.6427 963.9292,-365.6427 970.9292,-365.6426"/>
</g>
<!-- Node20 -->
<g id="node21" class="node">
<title>Node20</title>
<polygon fill="none" stroke="#bfbfbf" points="1008.4291,-336.5 1008.4291,-355.5 1064.4291,-355.5 1064.4291,-336.5 1008.4291,-336.5"/>
<text text-anchor="middle" x="1036.4291" y="-343.5" font-family="Helvetica,sans-Serif" font-size="10.00" fill="#000000">algorithm</text>
</g>
<!-- Node18&#45;&gt;Node20 -->
<g id="edge22" class="edge">
<title>Node18&#45;&gt;Node20</title>
<path fill="none" stroke="#191970" d="M979.448,-392.2455C989.639,-383.9746 1004.4654,-371.9416 1016.4398,-362.2232"/>
<polygon fill="#191970" stroke="#191970" points="1018.989,-364.662 1024.548,-355.6427 1014.5778,-359.2268 1018.989,-364.662"/>
</g>
<!-- Node21 -->
<g id="node22" class="node">
<title>Node21</title>
<g id="a_node22"><a xlink:href="xtimer_8h.html" target="_top" xlink:title="xtimer interface definitions ">
<polygon fill="none" stroke="#000000" points="836.4291,-336.5 836.4291,-355.5 888.4291,-355.5 888.4291,-336.5 836.4291,-336.5"/>
<text text-anchor="middle" x="862.4291" y="-343.5" font-family="Helvetica,sans-Serif" font-size="10.00" fill="#000000">xtimer.h</text>
</a>
</g>
</g>
<!-- Node18&#45;&gt;Node21 -->
<g id="edge24" class="edge">
<title>Node18&#45;&gt;Node21</title>
<path fill="none" stroke="#191970" d="M949.1395,-392.2455C932.6529,-383.4527 908.194,-370.4079 889.4526,-360.4125"/>
<polygon fill="#191970" stroke="#191970" points="890.9798,-357.2604 880.5092,-355.6427 887.6856,-363.4368 890.9798,-357.2604"/>
</g>
<!-- Node21&#45;&gt;Node13 -->
<g id="edge30" class="edge">
<title>Node21&#45;&gt;Node13</title>
<path fill="none" stroke="#191970" d="M841.7668,-336.4908C823.3901,-327.7615 796.0103,-314.0807 773.4291,-300 748.4601,-284.4303 721.5536,-263.9023 703.9401,-249.9007"/>
<polygon fill="#191970" stroke="#191970" points="706.0794,-247.1298 696.0892,-243.6018 701.6988,-252.5897 706.0794,-247.1298"/>
</g>
<!-- Node21&#45;&gt;Node15 -->
<g id="edge26" class="edge">
<title>Node21&#45;&gt;Node15</title>
<path fill="none" stroke="#191970" d="M862.8957,-336.2052C863.5122,-314.6567 862.7461,-262.033 843.4291,-224 837.6339,-212.5898 827.9567,-202.2682 818.9694,-194.3071"/>
<polygon fill="#191970" stroke="#191970" points="820.9626,-191.412 811.0409,-187.6959 816.4797,-196.7882 820.9626,-191.412"/>
</g>
<!-- Node22 -->
<g id="node23" class="node">
<title>Node22</title>
<polygon fill="none" stroke="#bfbfbf" points="1605.4291,-168.5 1605.4291,-187.5 1661.4291,-187.5 1661.4291,-168.5 1605.4291,-168.5"/>
<text text-anchor="middle" x="1633.4291" y="-175.5" font-family="Helvetica,sans-Serif" font-size="10.00" fill="#000000">stdbool.h</text>
</g>
<!-- Node21&#45;&gt;Node22 -->
<g id="edge25" class="edge">
<title>Node21&#45;&gt;Node22</title>
<path fill="none" stroke="#191970" d="M888.7255,-341.8826C902.588,-339.8427 919.8953,-337.5012 935.4291,-336 1217.2354,-308.7661 1295.2761,-362.4172 1571.4291,-300 1635.5899,-285.4981 1671.7567,-298.6081 1708.4291,-244 1722.8114,-222.5837 1695.1651,-203.7744 1669.4722,-191.7718"/>
<polygon fill="#191970" stroke="#191970" points="1670.7378,-188.5047 1660.1762,-187.6656 1667.9093,-194.9078 1670.7378,-188.5047"/>
</g>
<!-- Node23 -->
<g id="node24" class="node">
<title>Node23</title>
<g id="a_node24"><a xlink:href="timex_8h.html" target="_top" xlink:title="Utility library for comparing and computing timestamps. ">
<polygon fill="none" stroke="#000000" points="890.9291,-224.5 890.9291,-243.5 939.9291,-243.5 939.9291,-224.5 890.9291,-224.5"/>
<text text-anchor="middle" x="915.4291" y="-231.5" font-family="Helvetica,sans-Serif" font-size="10.00" fill="#000000">timex.h</text>
</a>
</g>
</g>
<!-- Node21&#45;&gt;Node23 -->
<g id="edge27" class="edge">
<title>Node21&#45;&gt;Node23</title>
<path fill="none" stroke="#191970" d="M866.9479,-336.4509C875.7094,-317.936 895.1476,-276.8591 906.5712,-252.7187"/>
<polygon fill="#191970" stroke="#191970" points="909.808,-254.061 910.9218,-243.5249 903.4807,-251.0668 909.808,-254.061"/>
</g>
<!-- Node25 -->
<g id="node26" class="node">
<title>Node25</title>
<g id="a_node26"><a xlink:href="kernel__types_8h.html" target="_top" xlink:title="Types used by the kernel. ">
<polygon fill="none" stroke="#000000" points="958.4291,-224.5 958.4291,-243.5 1038.4291,-243.5 1038.4291,-224.5 958.4291,-224.5"/>
<text text-anchor="middle" x="998.4291" y="-231.5" font-family="Helvetica,sans-Serif" font-size="10.00" fill="#000000">kernel_types.h</text>
</a>
</g>
</g>
<!-- Node21&#45;&gt;Node25 -->
<g id="edge31" class="edge">
<title>Node21&#45;&gt;Node25</title>
<path fill="none" stroke="#191970" d="M874.0244,-336.4509C897.4102,-317.1921 950.4383,-273.5218 979.1299,-249.8935"/>
<polygon fill="#191970" stroke="#191970" points="981.3689,-252.5838 986.8632,-243.5249 976.9189,-247.1802 981.3689,-252.5838"/>
</g>
<!-- Node28 -->
<g id="node29" class="node">
<title>Node28</title>
<g id="a_node29"><a xlink:href="rmutex_8h.html" target="_top" xlink:title="Recursive Mutex for thread synchronization. ">
<polygon fill="none" stroke="#000000" points="782.9291,-280.5 782.9291,-299.5 837.9291,-299.5 837.9291,-280.5 782.9291,-280.5"/>
<text text-anchor="middle" x="810.4291" y="-287.5" font-family="Helvetica,sans-Serif" font-size="10.00" fill="#000000">rmutex.h</text>
</a>
</g>
</g>
<!-- Node21&#45;&gt;Node28 -->
<g id="edge37" class="edge">
<title>Node21&#45;&gt;Node28</title>
<path fill="none" stroke="#191970" d="M853.3714,-336.2455C845.915,-328.2155 835.1657,-316.6394 826.2874,-307.0781"/>
<polygon fill="#191970" stroke="#191970" points="828.7524,-304.589 819.3831,-299.6427 823.6228,-309.3522 828.7524,-304.589"/>
</g>
<!-- Node30 -->
<g id="node31" class="node">
<title>Node30</title>
<polygon fill="none" stroke="#bfbfbf" points="676.9291,-280.5 676.9291,-299.5 725.9291,-299.5 725.9291,-280.5 676.9291,-280.5"/>
<text text-anchor="middle" x="701.4291" y="-287.5" font-family="Helvetica,sans-Serif" font-size="10.00" fill="#000000">board.h</text>
</g>
<!-- Node21&#45;&gt;Node30 -->
<g id="edge42" class="edge">
<title>Node21&#45;&gt;Node30</title>
<path fill="none" stroke="#191970" d="M836.2034,-336.878C808.8248,-327.355 765.7681,-312.3788 735.7115,-301.9243"/>
<polygon fill="#191970" stroke="#191970" points="736.653,-298.5462 726.0582,-298.5666 734.3533,-305.1576 736.653,-298.5462"/>
</g>
<!-- Node31 -->
<g id="node32" class="node">
<title>Node31</title>
<polygon fill="none" stroke="#bfbfbf" points="1100.9291,-112.5 1100.9291,-131.5 1175.9291,-131.5 1175.9291,-112.5 1100.9291,-112.5"/>
<text text-anchor="middle" x="1138.4291" y="-119.5" font-family="Helvetica,sans-Serif" font-size="10.00" fill="#000000">periph_conf.h</text>
</g>
<!-- Node21&#45;&gt;Node31 -->
<g id="edge43" class="edge">
<title>Node21&#45;&gt;Node31</title>
<path fill="none" stroke="#191970" d="M888.6791,-338.5751C928.8132,-325.8767 1005.2055,-296.1723 1047.4291,-244 1069.6305,-216.5676 1049.4968,-196.4125 1070.4291,-168 1080.183,-154.7606 1094.9569,-144.1114 1108.2448,-136.4069"/>
<polygon fill="#191970" stroke="#191970" points="1110.0336,-139.4178 1117.1268,-131.5478 1106.674,-133.2768 1110.0336,-139.4178"/>
</g>
<!-- Node32 -->
<g id="node33" class="node">
<title>Node32</title>
<g id="a_node33"><a xlink:href="tick__conversion_8h.html" target="_top" xlink:title="xtimer tick &lt;&#45;&gt; seconds conversions for different values of XTIMER_HZ ">
<polygon fill="none" stroke="#000000" points="1079.9291,-280.5 1079.9291,-299.5 1202.9291,-299.5 1202.9291,-280.5 1079.9291,-280.5"/>
<text text-anchor="middle" x="1141.4291" y="-287.5" font-family="Helvetica,sans-Serif" font-size="10.00" fill="#000000">xtimer/tick_conversion.h</text>
</a>
</g>
</g>
<!-- Node21&#45;&gt;Node32 -->
<g id="edge44" class="edge">
<title>Node21&#45;&gt;Node32</title>
<path fill="none" stroke="#191970" d="M888.6306,-339.2312C893.2193,-338.1083 897.9559,-336.9889 902.4291,-336 961.3628,-322.9721 1028.9377,-310.1614 1077.1631,-301.3815"/>
<polygon fill="#191970" stroke="#191970" points="1077.9351,-304.7987 1087.1501,-299.5705 1076.6861,-297.911 1077.9351,-304.7987"/>
</g>
<!-- Node37 -->
<g id="node38" class="node">
<title>Node37</title>
<g id="a_node38"><a xlink:href="implementation_8h.html" target="_top" xlink:title="xtimer implementation ">
<polygon fill="none" stroke="#000000" points="1220.9291,-280.5 1220.9291,-299.5 1341.9291,-299.5 1341.9291,-280.5 1220.9291,-280.5"/>
<text text-anchor="middle" x="1281.4291" y="-287.5" font-family="Helvetica,sans-Serif" font-size="10.00" fill="#000000">xtimer/implementation.h</text>
</a>
</g>
</g>
<!-- Node21&#45;&gt;Node37 -->
<g id="edge51" class="edge">
<title>Node21&#45;&gt;Node37</title>
<path fill="none" stroke="#191970" d="M888.5736,-338.9488C893.1687,-337.8573 897.9222,-336.8215 902.4291,-336 1035.6864,-311.7106 1073.1487,-317.6465 1210.7755,-300.1761"/>
<polygon fill="#191970" stroke="#191970" points="1211.3895,-303.626 1220.8604,-298.877 1210.4952,-296.6834 1211.3895,-303.626"/>
</g>
<!-- Node23&#45;&gt;Node15 -->
<g id="edge28" class="edge">
<title>Node23&#45;&gt;Node15</title>
<path fill="none" stroke="#191970" d="M895.1442,-224.3733C876.2871,-215.4241 847.9832,-201.9917 826.6837,-191.8835"/>
<polygon fill="#191970" stroke="#191970" points="827.9843,-188.6266 817.4494,-187.5011 824.983,-194.9506 827.9843,-188.6266"/>
</g>
<!-- Node24 -->
<g id="node25" class="node">
<title>Node24</title>
<g id="a_node25"><a xlink:href="inttypes_8h.html" target="_top" xlink:title="Adds include for missing inttype definitions. ">
<polygon fill="none" stroke="#000000" points="839.9291,-168.5 839.9291,-187.5 898.9291,-187.5 898.9291,-168.5 839.9291,-168.5"/>
<text text-anchor="middle" x="869.4291" y="-175.5" font-family="Helvetica,sans-Serif" font-size="10.00" fill="#000000">inttypes.h</text>
</a>
</g>
</g>
<!-- Node23&#45;&gt;Node24 -->
<g id="edge29" class="edge">
<title>Node23&#45;&gt;Node24</title>
<path fill="none" stroke="#191970" d="M907.4166,-224.2455C900.9524,-216.3761 891.6907,-205.101 883.9308,-195.6542"/>
<polygon fill="#191970" stroke="#191970" points="886.4019,-193.1484 877.3499,-187.6427 880.9928,-197.5916 886.4019,-193.1484"/>
</g>
<!-- Node25&#45;&gt;Node14 -->
<g id="edge35" class="edge">
<title>Node25&#45;&gt;Node14</title>
<path fill="none" stroke="#191970" d="M1003.2939,-224.1346C1010.0768,-210.8053 1023.1591,-186.576 1037.4291,-168 1089.618,-100.0635 1178.6816,-48.0252 1224.4279,-24.2266"/>
<polygon fill="#191970" stroke="#191970" points="1226.1964,-27.2533 1233.5034,-19.5814 1223.007,-21.0222 1226.1964,-27.2533"/>
</g>
<!-- Node25&#45;&gt;Node15 -->
<g id="edge32" class="edge">
<title>Node25&#45;&gt;Node15</title>
<path fill="none" stroke="#191970" d="M963.1936,-224.4841C931.4097,-215.8583 883.13,-202.652 832.1782,-188.1808"/>
<polygon fill="#191970" stroke="#191970" points="832.8734,-184.7397 822.2972,-185.3679 830.9568,-191.4722 832.8734,-184.7397"/>
</g>
<!-- Node25&#45;&gt;Node24 -->
<g id="edge33" class="edge">
<title>Node25&#45;&gt;Node24</title>
<path fill="none" stroke="#191970" d="M976.2533,-224.3733C955.4525,-215.3435 924.1375,-201.7494 900.7833,-191.6111"/>
<polygon fill="#191970" stroke="#191970" points="901.8824,-188.2727 891.3157,-187.5011 899.0949,-194.6938 901.8824,-188.2727"/>
</g>
<!-- Node26 -->
<g id="node27" class="node">
<title>Node26</title>
<polygon fill="none" stroke="#bfbfbf" points="1079.4291,-168.5 1079.4291,-187.5 1127.4291,-187.5 1127.4291,-168.5 1079.4291,-168.5"/>
<text text-anchor="middle" x="1103.4291" y="-175.5" font-family="Helvetica,sans-Serif" font-size="10.00" fill="#000000">limits.h</text>
</g>
<!-- Node25&#45;&gt;Node26 -->
<g id="edge34" class="edge">
<title>Node25&#45;&gt;Node26</title>
<path fill="none" stroke="#191970" d="M1016.7187,-224.2455C1033.2054,-215.4527 1057.6643,-202.4079 1076.4057,-192.4125"/>
<polygon fill="#191970" stroke="#191970" points="1078.1727,-195.4368 1085.3491,-187.6427 1074.8785,-189.2604 1078.1727,-195.4368"/>
</g>
<!-- Node27 -->
<g id="node28" class="node">
<title>Node27</title>
<polygon fill="none" stroke="#bfbfbf" points="917.4291,-168.5 917.4291,-187.5 985.4291,-187.5 985.4291,-168.5 917.4291,-168.5"/>
<text text-anchor="middle" x="951.4291" y="-175.5" font-family="Helvetica,sans-Serif" font-size="10.00" fill="#000000">sys/types.h</text>
</g>
<!-- Node25&#45;&gt;Node27 -->
<g id="edge36" class="edge">
<title>Node25&#45;&gt;Node27</title>
<path fill="none" stroke="#191970" d="M990.2424,-224.2455C983.5703,-216.2958 973.9812,-204.8706 966.0038,-195.3656"/>
<polygon fill="#191970" stroke="#191970" points="968.6318,-193.0524 959.5221,-187.6427 963.2699,-197.5525 968.6318,-193.0524"/>
</g>
<!-- Node28&#45;&gt;Node13 -->
<g id="edge40" class="edge">
<title>Node28&#45;&gt;Node13</title>
<path fill="none" stroke="#191970" d="M788.769,-280.3733C768.452,-271.3435 737.8652,-257.7494 715.0542,-247.6111"/>
<polygon fill="#191970" stroke="#191970" points="716.3663,-244.3642 705.8067,-243.5011 713.5233,-250.7609 716.3663,-244.3642"/>
</g>
<!-- Node28&#45;&gt;Node15 -->
<g id="edge38" class="edge">
<title>Node28&#45;&gt;Node15</title>
<path fill="none" stroke="#191970" d="M793.0534,-280.4558C780.5703,-272.5215 764.711,-259.9621 757.4291,-244 749.387,-226.3713 763.196,-207.5977 776.7347,-194.5984"/>
<polygon fill="#191970" stroke="#191970" points="779.3754,-196.9331 784.5076,-187.6643 774.7155,-191.7095 779.3754,-196.9331"/>
</g>
<!-- Node28&#45;&gt;Node25 -->
<g id="edge41" class="edge">
<title>Node28&#45;&gt;Node25</title>
<path fill="none" stroke="#191970" d="M838.1692,-281.737C869.4454,-272.4207 920.6337,-257.1731 956.7294,-246.4212"/>
<polygon fill="#191970" stroke="#191970" points="957.8963,-249.7257 966.481,-243.5165 955.8979,-243.017 957.8963,-249.7257"/>
</g>
<!-- Node29 -->
<g id="node30" class="node">
<title>Node29</title>
<polygon fill="none" stroke="#bfbfbf" points="766.4291,-224.5 766.4291,-243.5 834.4291,-243.5 834.4291,-224.5 766.4291,-224.5"/>
<text text-anchor="middle" x="800.4291" y="-231.5" font-family="Helvetica,sans-Serif" font-size="10.00" fill="#000000">stdatomic.h</text>
</g>
<!-- Node28&#45;&gt;Node29 -->
<g id="edge39" class="edge">
<title>Node28&#45;&gt;Node29</title>
<path fill="none" stroke="#191970" d="M808.6873,-280.2455C807.3824,-272.9382 805.5531,-262.6944 803.9478,-253.7046"/>
<polygon fill="#191970" stroke="#191970" points="807.3545,-252.8717 802.1511,-243.6427 800.4635,-254.1022 807.3545,-252.8717"/>
</g>
<!-- Node33 -->
<g id="node34" class="node">
<title>Node33</title>
<g id="a_node34"><a xlink:href="div_8h.html" target="_top" xlink:title="div.h">
<polygon fill="none" stroke="#000000" points="1113.4291,-224.5 1113.4291,-243.5 1151.4291,-243.5 1151.4291,-224.5 1113.4291,-224.5"/>
<text text-anchor="middle" x="1132.4291" y="-231.5" font-family="Helvetica,sans-Serif" font-size="10.00" fill="#000000">div.h</text>
</a>
</g>
</g>
<!-- Node32&#45;&gt;Node33 -->
<g id="edge45" class="edge">
<title>Node32&#45;&gt;Node33</title>
<path fill="none" stroke="#191970" d="M1139.8615,-280.2455C1138.6871,-272.9382 1137.0407,-262.6944 1135.596,-253.7046"/>
<polygon fill="#191970" stroke="#191970" points="1139.0214,-252.9606 1133.9789,-243.6427 1132.1101,-254.0714 1139.0214,-252.9606"/>
</g>
<!-- Node33&#45;&gt;Node15 -->
<g id="edge50" class="edge">
<title>Node33&#45;&gt;Node15</title>
<path fill="none" stroke="#191970" d="M1113.2525,-231.4136C1058.6541,-223.998 902.3181,-202.3927 832.2883,-187.8828"/>
<polygon fill="#191970" stroke="#191970" points="832.7247,-184.3964 822.2112,-185.7071 831.2474,-191.2387 832.7247,-184.3964"/>
</g>
<!-- Node34 -->
<g id="node35" class="node">
<title>Node34</title>
<g id="a_node35"><a xlink:href="assert_8h.html" target="_top" xlink:title="POSIX.1&#45;2008 compliant version of the assert macro. ">
<polygon fill="none" stroke="#000000" points="1267.4291,-168.5 1267.4291,-187.5 1319.4291,-187.5 1319.4291,-168.5 1267.4291,-168.5"/>
<text text-anchor="middle" x="1293.4291" y="-175.5" font-family="Helvetica,sans-Serif" font-size="10.00" fill="#000000">assert.h</text>
</a>
</g>
</g>
<!-- Node33&#45;&gt;Node34 -->
<g id="edge46" class="edge">
<title>Node33&#45;&gt;Node34</title>
<path fill="none" stroke="#191970" d="M1151.6998,-227.089C1154.6228,-226.049 1157.6047,-224.9928 1160.4291,-224 1193.3356,-212.4336 1230.902,-199.462 1257.6975,-190.2496"/>
<polygon fill="#191970" stroke="#191970" points="1259.0874,-193.4729 1267.4076,-186.9136 1256.813,-186.8527 1259.0874,-193.4729"/>
</g>
<!-- Node35 -->
<g id="node36" class="node">
<title>Node35</title>
<g id="a_node36"><a xlink:href="panic_8h.html" target="_top" xlink:title="Crash handling header. ">
<polygon fill="none" stroke="#000000" points="1531.4291,-112.5 1531.4291,-131.5 1579.4291,-131.5 1579.4291,-112.5 1531.4291,-112.5"/>
<text text-anchor="middle" x="1555.4291" y="-119.5" font-family="Helvetica,sans-Serif" font-size="10.00" fill="#000000">panic.h</text>
</a>
</g>
</g>
<!-- Node34&#45;&gt;Node35 -->
<g id="edge47" class="edge">
<title>Node34&#45;&gt;Node35</title>
<path fill="none" stroke="#191970" d="M1319.7436,-170.2425C1322.6655,-169.4525 1325.6049,-168.6885 1328.4291,-168 1396.2426,-151.4683 1476.46,-136.2063 1521.0816,-128.0929"/>
<polygon fill="#191970" stroke="#191970" points="1521.8839,-131.5047 1531.1023,-126.2824 1520.6393,-124.6162 1521.8839,-131.5047"/>
</g>
<!-- Node36 -->
<g id="node37" class="node">
<title>Node36</title>
<g id="a_node37"><a xlink:href="kernel__defines_8h.html" target="_top" xlink:title="Common macros and compiler attributes/pragmas configuration. ">
<polygon fill="none" stroke="#000000" points="1521.4291,-56.5 1521.4291,-75.5 1609.4291,-75.5 1609.4291,-56.5 1521.4291,-56.5"/>
<text text-anchor="middle" x="1565.4291" y="-63.5" font-family="Helvetica,sans-Serif" font-size="10.00" fill="#000000">kernel_defines.h</text>
</a>
</g>
</g>
<!-- Node35&#45;&gt;Node36 -->
<g id="edge48" class="edge">
<title>Node35&#45;&gt;Node36</title>
<path fill="none" stroke="#191970" d="M1557.171,-112.2455C1558.4759,-104.9382 1560.3052,-94.6944 1561.9105,-85.7046"/>
<polygon fill="#191970" stroke="#191970" points="1565.3947,-86.1022 1563.7072,-75.6427 1558.5038,-84.8717 1565.3947,-86.1022"/>
</g>
<!-- Node36&#45;&gt;Node14 -->
<g id="edge49" class="edge">
<title>Node36&#45;&gt;Node14</title>
<path fill="none" stroke="#191970" d="M1521.3889,-58.0953C1459.401,-46.9693 1347.5651,-26.8962 1289.9412,-16.5534"/>
<polygon fill="#191970" stroke="#191970" points="1290.2978,-13.0616 1279.8367,-14.7398 1289.0611,-19.9515 1290.2978,-13.0616"/>
</g>
<!-- Node38 -->
<g id="node39" class="node">
<title>Node38</title>
<g id="a_node39"><a xlink:href="drivers_2include_2periph_2timer_8h.html" target="_top" xlink:title="Low&#45;level timer peripheral driver interface definitions. ">
<polygon fill="none" stroke="#000000" points="1169.4291,-224.5 1169.4291,-243.5 1245.4291,-243.5 1245.4291,-224.5 1169.4291,-224.5"/>
<text text-anchor="middle" x="1207.4291" y="-231.5" font-family="Helvetica,sans-Serif" font-size="10.00" fill="#000000">periph/timer.h</text>
</a>
</g>
</g>
<!-- Node37&#45;&gt;Node38 -->
<g id="edge52" class="edge">
<title>Node37&#45;&gt;Node38</title>
<path fill="none" stroke="#191970" d="M1268.5393,-280.2455C1257.5038,-271.8943 1241.3999,-259.7076 1228.4938,-249.9408"/>
<polygon fill="#191970" stroke="#191970" points="1230.2574,-246.8862 1220.1713,-243.6427 1226.0333,-252.4681 1230.2574,-246.8862"/>
</g>
<!-- Node41 -->
<g id="node42" class="node">
<title>Node41</title>
<g id="a_node42"><a xlink:href="irq_8h.html" target="_top" xlink:title="IRQ driver interface. ">
<polygon fill="none" stroke="#000000" points="1523.9291,-224.5 1523.9291,-243.5 1558.9291,-243.5 1558.9291,-224.5 1523.9291,-224.5"/>
<text text-anchor="middle" x="1541.4291" y="-231.5" font-family="Helvetica,sans-Serif" font-size="10.00" fill="#000000">irq.h</text>
</a>
</g>
</g>
<!-- Node37&#45;&gt;Node41 -->
<g id="edge58" class="edge">
<title>Node37&#45;&gt;Node41</title>
<path fill="none" stroke="#191970" d="M1342.2308,-281.0133C1387.5433,-273.6417 1450.984,-261.9017 1513.971,-244.0898"/>
<polygon fill="#191970" stroke="#191970" points="1515.0241,-247.4288 1523.6652,-241.2984 1513.0872,-240.7021 1515.0241,-247.4288"/>
</g>
<!-- Node38&#45;&gt;Node15 -->
<g id="edge54" class="edge">
<title>Node38&#45;&gt;Node15</title>
<path fill="none" stroke="#191970" d="M1169.2699,-225.5453C1166.2851,-224.9867 1163.312,-224.4632 1160.4291,-224 1018.459,-201.1888 977.4933,-216.1578 832.3568,-187.8525"/>
<polygon fill="#191970" stroke="#191970" points="832.6752,-184.3474 822.1849,-185.8319 831.3113,-191.2133 832.6752,-184.3474"/>
</g>
<!-- Node38&#45;&gt;Node26 -->
<g id="edge53" class="edge">
<title>Node38&#45;&gt;Node26</title>
<path fill="none" stroke="#191970" d="M1189.3137,-224.2455C1172.9841,-215.4527 1148.7581,-202.4079 1130.1952,-192.4125"/>
<polygon fill="#191970" stroke="#191970" points="1131.8011,-189.3021 1121.337,-187.6427 1128.4823,-195.4654 1131.8011,-189.3021"/>
</g>
<!-- Node39 -->
<g id="node40" class="node">
<title>Node39</title>
<polygon fill="none" stroke="#bfbfbf" points="1337.4291,-168.5 1337.4291,-187.5 1409.4291,-187.5 1409.4291,-168.5 1337.4291,-168.5"/>
<text text-anchor="middle" x="1373.4291" y="-175.5" font-family="Helvetica,sans-Serif" font-size="10.00" fill="#000000">periph_cpu.h</text>
</g>
<!-- Node38&#45;&gt;Node39 -->
<g id="edge55" class="edge">
<title>Node38&#45;&gt;Node39</title>
<path fill="none" stroke="#191970" d="M1235.9656,-224.3733C1263.4493,-215.1016 1305.1977,-201.0178 1335.4743,-190.804"/>
<polygon fill="#191970" stroke="#191970" points="1336.9085,-194.0141 1345.2651,-187.5011 1334.6709,-187.3813 1336.9085,-194.0141"/>
</g>
<!-- Node40 -->
<g id="node41" class="node">
<title>Node40</title>
<g id="a_node41"><a xlink:href="dev__enums_8h.html" target="_top" xlink:title="Device enumerations for backward compatibility with existing peripheral driver implementations. ">
<polygon fill="none" stroke="#000000" points="1145.4291,-168.5 1145.4291,-187.5 1249.4291,-187.5 1249.4291,-168.5 1145.4291,-168.5"/>
<text text-anchor="middle" x="1197.4291" y="-175.5" font-family="Helvetica,sans-Serif" font-size="10.00" fill="#000000">periph/dev_enums.h</text>
</a>
</g>
</g>
<!-- Node38&#45;&gt;Node40 -->
<g id="edge56" class="edge">
<title>Node38&#45;&gt;Node40</title>
<path fill="none" stroke="#191970" d="M1205.6873,-224.2455C1204.3824,-216.9382 1202.5531,-206.6944 1200.9478,-197.7046"/>
<polygon fill="#191970" stroke="#191970" points="1204.3545,-196.8717 1199.1511,-187.6427 1197.4635,-198.1022 1204.3545,-196.8717"/>
</g>
<!-- Node40&#45;&gt;Node31 -->
<g id="edge57" class="edge">
<title>Node40&#45;&gt;Node31</title>
<path fill="none" stroke="#191970" d="M1187.1521,-168.2455C1178.6073,-160.1352 1166.2513,-148.4075 1156.1206,-138.7919"/>
<polygon fill="#191970" stroke="#191970" points="1158.251,-135.9884 1148.5884,-131.6427 1153.432,-141.0655 1158.251,-135.9884"/>
</g>
<!-- Node41&#45;&gt;Node22 -->
<g id="edge59" class="edge">
<title>Node41&#45;&gt;Node22</title>
<path fill="none" stroke="#191970" d="M1557.4543,-224.2455C1571.57,-215.6534 1592.3555,-203.0014 1608.619,-193.1018"/>
<polygon fill="#191970" stroke="#191970" points="1610.8654,-195.8319 1617.5876,-187.6427 1607.2258,-189.8525 1610.8654,-195.8319"/>
</g>
<!-- Node42 -->
<g id="node43" class="node">
<title>Node42</title>
<polygon fill="none" stroke="#bfbfbf" points="1521.9291,-168.5 1521.9291,-187.5 1586.9291,-187.5 1586.9291,-168.5 1521.9291,-168.5"/>
<text text-anchor="middle" x="1554.4291" y="-175.5" font-family="Helvetica,sans-Serif" font-size="10.00" fill="#000000">cpu_conf.h</text>
</g>
<!-- Node41&#45;&gt;Node42 -->
<g id="edge60" class="edge">
<title>Node41&#45;&gt;Node42</title>
<path fill="none" stroke="#191970" d="M1543.6936,-224.2455C1545.4086,-216.8579 1547.8203,-206.4689 1549.9236,-197.4087"/>
<polygon fill="#191970" stroke="#191970" points="1553.3386,-198.1751 1552.1907,-187.6427 1546.52,-196.5922 1553.3386,-198.1751"/>
</g>
<!-- Node43&#45;&gt;Node12 -->
<g id="edge74" class="edge">
<title>Node43&#45;&gt;Node12</title>
<path fill="none" stroke="#191970" d="M811.727,-453.9581C769.252,-443.2082 700.1371,-425.7162 653.9878,-414.0365"/>
<polygon fill="#191970" stroke="#191970" points="654.7728,-410.6248 644.2197,-411.5643 653.0553,-417.4109 654.7728,-410.6248"/>
</g>
<!-- Node43&#45;&gt;Node18 -->
<g id="edge75" class="edge">
<title>Node43&#45;&gt;Node18</title>
<path fill="none" stroke="#191970" d="M867.8666,-453.8906C887.2638,-443.7811 917.9981,-427.7628 940.1909,-416.1962"/>
<polygon fill="#191970" stroke="#191970" points="941.8709,-419.2675 949.1211,-411.5419 938.6356,-413.06 941.8709,-419.2675"/>
</g>
<!-- Node43&#45;&gt;Node21 -->
<g id="edge70" class="edge">
<title>Node43&#45;&gt;Node21</title>
<path fill="none" stroke="#191970" d="M850.493,-453.8845C852.6165,-434.6913 857.4188,-391.286 860.2422,-365.7663"/>
<polygon fill="#191970" stroke="#191970" points="863.7296,-366.0726 861.3506,-355.7484 856.7721,-365.3028 863.7296,-366.0726"/>
</g>
<!-- Node44 -->
<g id="node45" class="node">
<title>Node44</title>
<g id="a_node45"><a xlink:href="sched_8h.html" target="_top" xlink:title="Scheduler API definition. ">
<polygon fill="none" stroke="#000000" points="1510.9291,-280.5 1510.9291,-299.5 1561.9291,-299.5 1561.9291,-280.5 1510.9291,-280.5"/>
<text text-anchor="middle" x="1536.4291" y="-287.5" font-family="Helvetica,sans-Serif" font-size="10.00" fill="#000000">sched.h</text>
</a>
</g>
</g>
<!-- Node43&#45;&gt;Node44 -->
<g id="edge62" class="edge">
<title>Node43&#45;&gt;Node44</title>
<path fill="none" stroke="#191970" d="M852.5487,-453.9738C861.1709,-429.3628 887.8864,-363.6576 935.4291,-336 959.9563,-321.7315 1374.4588,-298.6146 1500.416,-291.8905"/>
<polygon fill="#191970" stroke="#191970" points="1500.8771,-295.371 1510.6772,-291.3449 1500.5055,-288.3808 1500.8771,-295.371"/>
</g>
<!-- Node47 -->
<g id="node48" class="node">
<title>Node47</title>
<g id="a_node48"><a xlink:href="priority__queue_8h.html" target="_top" xlink:title="A simple priority queue. ">
<polygon fill="none" stroke="#000000" points="554.4291,-224.5 554.4291,-243.5 640.4291,-243.5 640.4291,-224.5 554.4291,-224.5"/>
<text text-anchor="middle" x="597.4291" y="-231.5" font-family="Helvetica,sans-Serif" font-size="10.00" fill="#000000">priority_queue.h</text>
</a>
</g>
</g>
<!-- Node43&#45;&gt;Node47 -->
<g id="edge71" class="edge">
<title>Node43&#45;&gt;Node47</title>
<path fill="none" stroke="#191970" d="M838.2657,-453.6392C809.6641,-428.3388 731.4978,-358.9661 667.4291,-300 649.5531,-283.5476 629.3928,-264.4845 615.3149,-251.0887"/>
<polygon fill="#191970" stroke="#191970" points="617.4457,-248.2845 607.7921,-243.9188 612.6162,-253.3517 617.4457,-248.2845"/>
</g>
<!-- Node44&#45;&gt;Node14 -->
<g id="edge63" class="edge">
<title>Node44&#45;&gt;Node14</title>
<path fill="none" stroke="#191970" d="M1545.4648,-280.2948C1558.3966,-266.7224 1583.2948,-241.7462 1607.4291,-224 1633.4104,-204.8957 1654.2425,-215.8925 1670.4291,-188 1696.7997,-142.5588 1708.1679,-121.5325 1618.4291,-56 1592.1863,-36.8359 1376.9975,-19.0707 1289.8594,-12.5914"/>
<polygon fill="#191970" stroke="#191970" points="1289.8772,-9.0834 1279.6474,-11.8403 1289.3636,-16.0645 1289.8772,-9.0834"/>
</g>
<!-- Node44&#45;&gt;Node25 -->
<g id="edge65" class="edge">
<title>Node44&#45;&gt;Node25</title>
<path fill="none" stroke="#191970" d="M1510.8422,-287.3367C1427.1077,-278.6208 1160.24,-250.8428 1048.4459,-239.2062"/>
<polygon fill="#191970" stroke="#191970" points="1048.7481,-235.7188 1038.4395,-238.1646 1048.0234,-242.6812 1048.7481,-235.7188"/>
</g>
<!-- Node44&#45;&gt;Node36 -->
<g id="edge64" class="edge">
<title>Node44&#45;&gt;Node36</title>
<path fill="none" stroke="#191970" d="M1561.9514,-286.9579C1605.3682,-281.2008 1690.6414,-267.17 1708.4291,-244 1755.7939,-182.3033 1646.5392,-110.6117 1592.93,-80.4933"/>
<polygon fill="#191970" stroke="#191970" points="1594.3688,-77.29 1583.9214,-75.529 1590.9904,-83.4207 1594.3688,-77.29"/>
</g>
<!-- Node45 -->
<g id="node46" class="node">
<title>Node45</title>
<g id="a_node46"><a xlink:href="native__sched_8h.html" target="_top" xlink:title="Add definitions required on the native board. ">
<polygon fill="none" stroke="#000000" points="1615.9291,-224.5 1615.9291,-243.5 1698.9291,-243.5 1698.9291,-224.5 1615.9291,-224.5"/>
<text text-anchor="middle" x="1657.4291" y="-231.5" font-family="Helvetica,sans-Serif" font-size="10.00" fill="#000000">native_sched.h</text>
</a>
</g>
</g>
<!-- Node44&#45;&gt;Node45 -->
<g id="edge66" class="edge">
<title>Node44&#45;&gt;Node45</title>
<path fill="none" stroke="#191970" d="M1557.2298,-280.3733C1576.6534,-271.3838 1605.8515,-257.8706 1627.7256,-247.7471"/>
<polygon fill="#191970" stroke="#191970" points="1629.2948,-250.8776 1636.8999,-243.5011 1626.3547,-244.5249 1629.2948,-250.8776"/>
</g>
<!-- Node46 -->
<g id="node47" class="node">
<title>Node46</title>
<g id="a_node47"><a xlink:href="clist_8h.html" target="_top" xlink:title="Circular linked list. ">
<polygon fill="none" stroke="#000000" points="1462.9291,-224.5 1462.9291,-243.5 1505.9291,-243.5 1505.9291,-224.5 1462.9291,-224.5"/>
<text text-anchor="middle" x="1484.4291" y="-231.5" font-family="Helvetica,sans-Serif" font-size="10.00" fill="#000000">clist.h</text>
</a>
</g>
</g>
<!-- Node44&#45;&gt;Node46 -->
<g id="edge67" class="edge">
<title>Node44&#45;&gt;Node46</title>
<path fill="none" stroke="#191970" d="M1527.3714,-280.2455C1519.915,-272.2155 1509.1657,-260.6394 1500.2874,-251.0781"/>
<polygon fill="#191970" stroke="#191970" points="1502.7524,-248.589 1493.3831,-243.6427 1497.6228,-253.3522 1502.7524,-248.589"/>
</g>
<!-- Node46&#45;&gt;Node14 -->
<g id="edge68" class="edge">
<title>Node46&#45;&gt;Node14</title>
<path fill="none" stroke="#191970" d="M1485.2139,-224.2496C1485.8368,-210.6234 1485.2158,-185.5838 1474.4291,-168 1429.5743,-94.8802 1336.9065,-45.9076 1287.0031,-23.6778"/>
<polygon fill="#191970" stroke="#191970" points="1288.1851,-20.3751 1277.6194,-19.5892 1285.3889,-26.7924 1288.1851,-20.3751"/>
</g>
<!-- Node46&#45;&gt;Node16 -->
<g id="edge69" class="edge">
<title>Node46&#45;&gt;Node16</title>
<path fill="none" stroke="#191970" d="M1477.8101,-224.2455C1472.5246,-216.4564 1464.975,-205.3308 1458.6054,-195.9439"/>
<polygon fill="#191970" stroke="#191970" points="1461.4836,-193.9522 1452.9724,-187.6427 1455.6913,-197.8827 1461.4836,-193.9522"/>
</g>
<!-- Node47&#45;&gt;Node14 -->
<g id="edge72" class="edge">
<title>Node47&#45;&gt;Node14</title>
<path fill="none" stroke="#191970" d="M613.1972,-224.3292C664.2856,-193.5297 830.7431,-97.3375 982.4291,-56 1064.9176,-33.5203 1164.6764,-19.9754 1217.1328,-13.8694"/>
<polygon fill="#191970" stroke="#191970" points="1217.7406,-17.3229 1227.2798,-12.7128 1216.9478,-10.3679 1217.7406,-17.3229"/>
</g>
<!-- Node47&#45;&gt;Node15 -->
<g id="edge73" class="edge">
<title>Node47&#45;&gt;Node15</title>
<path fill="none" stroke="#191970" d="M631.8104,-224.3733C668.4598,-214.1114 726.1624,-197.9547 762.8771,-187.6746"/>
<polygon fill="#191970" stroke="#191970" points="763.9551,-191.0074 772.641,-184.9407 762.0676,-184.2667 763.9551,-191.0074"/>
</g>
<!-- Node48&#45;&gt;Node4 -->
<g id="edge77" class="edge">
<title>Node48&#45;&gt;Node4</title>
<path fill="none" stroke="#191970" d="M337.2325,-448.4554C321.102,-438.8241 300.2654,-426.3828 284.2155,-416.7996"/>
<polygon fill="#191970" stroke="#191970" points="285.7708,-413.6518 275.3905,-411.5303 282.1821,-419.662 285.7708,-413.6518"/>
</g>
<!-- Node48&#45;&gt;Node7 -->
<g id="edge78" class="edge">
<title>Node48&#45;&gt;Node7</title>
<path fill="none" stroke="#191970" d="M381.2172,-448.3795C408.8564,-426.1356 460.2486,-384.7754 488.5164,-362.0256"/>
<polygon fill="#191970" stroke="#191970" points="490.8989,-364.601 496.4949,-355.6046 486.51,-359.1477 490.8989,-364.601"/>
</g>
</g>
</svg>
