<?xml version="1.0" encoding="UTF-8" standalone="no"?>
<!DOCTYPE svg PUBLIC "-//W3C//DTD SVG 1.1//EN"
 "http://www.w3.org/Graphics/SVG/1.1/DTD/svg11.dtd">
<!-- Generated by graphviz version 2.40.1 (20161225.0304)
 -->
<!-- Title: drivers/tps6274x/include/tps6274x_params.h Pages: 1 -->
<svg width="279pt" height="207pt"
 viewBox="0.00 0.00 279.00 207.00" xmlns="http://www.w3.org/2000/svg" xmlns:xlink="http://www.w3.org/1999/xlink">
<g id="graph0" class="graph" transform="scale(1 1) rotate(0) translate(4 203)">
<title>drivers/tps6274x/include/tps6274x_params.h</title>
<!-- Node0 -->
<g id="node1" class="node">
<title>Node0</title>
<polygon fill="#bfbfbf" stroke="#000000" points=".5,-168.5 .5,-198.5 122.5,-198.5 122.5,-168.5 .5,-168.5"/>
<text text-anchor="start" x="8.5" y="-186.5" font-family="Helvetica,sans-Serif" font-size="10.00" fill="#000000">drivers/tps6274x/include</text>
<text text-anchor="middle" x="61.5" y="-175.5" font-family="Helvetica,sans-Serif" font-size="10.00" fill="#000000">/tps6274x_params.h</text>
</g>
<!-- Node1 -->
<g id="node2" class="node">
<title>Node1</title>
<polygon fill="none" stroke="#bfbfbf" points="0,-112.5 0,-131.5 49,-131.5 49,-112.5 0,-112.5"/>
<text text-anchor="middle" x="24.5" y="-119.5" font-family="Helvetica,sans-Serif" font-size="10.00" fill="#000000">board.h</text>
</g>
<!-- Node0&#45;&gt;Node1 -->
<g id="edge1" class="edge">
<title>Node0&#45;&gt;Node1</title>
<path fill="none" stroke="#191970" d="M52.3539,-168.2977C47.3249,-159.9388 41.0445,-149.4997 35.7209,-140.6509"/>
<polygon fill="#191970" stroke="#191970" points="38.5785,-138.6114 30.4242,-131.8469 32.5803,-142.2201 38.5785,-138.6114"/>
</g>
<!-- Node2 -->
<g id="node3" class="node">
<title>Node2</title>
<g id="a_node3"><a xlink:href="tps6274x_8h.html" target="_top" xlink:title="Device driver interface for the TPS6274x DC&#45;DC Converter. ">
<polygon fill="none" stroke="#000000" points="67,-112.5 67,-131.5 132,-131.5 132,-112.5 67,-112.5"/>
<text text-anchor="middle" x="99.5" y="-119.5" font-family="Helvetica,sans-Serif" font-size="10.00" fill="#000000">tps6274x.h</text>
</a>
</g>
</g>
<!-- Node0&#45;&gt;Node2 -->
<g id="edge2" class="edge">
<title>Node0&#45;&gt;Node2</title>
<path fill="none" stroke="#191970" d="M70.8933,-168.2977C76.1131,-159.8498 82.6457,-149.2773 88.15,-140.369"/>
<polygon fill="#191970" stroke="#191970" points="91.1368,-142.1938 93.4157,-131.8469 85.1818,-138.5143 91.1368,-142.1938"/>
</g>
<!-- Node3 -->
<g id="node4" class="node">
<title>Node3</title>
<g id="a_node4"><a xlink:href="inttypes_8h.html" target="_top" xlink:title="Adds include for missing inttype definitions. ">
<polygon fill="none" stroke="#000000" points="28,-56.5 28,-75.5 87,-75.5 87,-56.5 28,-56.5"/>
<text text-anchor="middle" x="57.5" y="-63.5" font-family="Helvetica,sans-Serif" font-size="10.00" fill="#000000">inttypes.h</text>
</a>
</g>
</g>
<!-- Node2&#45;&gt;Node3 -->
<g id="edge3" class="edge">
<title>Node2&#45;&gt;Node3</title>
<path fill="none" stroke="#191970" d="M92.1842,-112.2455C86.2821,-104.3761 77.8258,-93.101 70.7406,-83.6542"/>
<polygon fill="#191970" stroke="#191970" points="73.5321,-81.5427 64.732,-75.6427 67.932,-85.7427 73.5321,-81.5427"/>
</g>
<!-- Node4 -->
<g id="node5" class="node">
<title>Node4</title>
<g id="a_node5"><a xlink:href="gpio_8h.html" target="_top" xlink:title="Low&#45;level GPIO peripheral driver interface definitions. ">
<polygon fill="none" stroke="#000000" points="105.5,-56.5 105.5,-75.5 177.5,-75.5 177.5,-56.5 105.5,-56.5"/>
<text text-anchor="middle" x="141.5" y="-63.5" font-family="Helvetica,sans-Serif" font-size="10.00" fill="#000000">periph/gpio.h</text>
</a>
</g>
</g>
<!-- Node2&#45;&gt;Node4 -->
<g id="edge4" class="edge">
<title>Node2&#45;&gt;Node4</title>
<path fill="none" stroke="#191970" d="M106.8158,-112.2455C112.7179,-104.3761 121.1742,-93.101 128.2594,-83.6542"/>
<polygon fill="#191970" stroke="#191970" points="131.068,-85.7427 134.268,-75.6427 125.4679,-81.5427 131.068,-85.7427"/>
</g>
<!-- Node5 -->
<g id="node6" class="node">
<title>Node5</title>
<polygon fill="none" stroke="#bfbfbf" points="39.5,-.5 39.5,-19.5 87.5,-19.5 87.5,-.5 39.5,-.5"/>
<text text-anchor="middle" x="63.5" y="-7.5" font-family="Helvetica,sans-Serif" font-size="10.00" fill="#000000">limits.h</text>
</g>
<!-- Node4&#45;&gt;Node5 -->
<g id="edge5" class="edge">
<title>Node4&#45;&gt;Node5</title>
<path fill="none" stroke="#191970" d="M127.9134,-56.2455C116.1695,-47.814 98.9801,-35.4729 85.3118,-25.6598"/>
<polygon fill="#191970" stroke="#191970" points="87.0954,-22.6316 76.9309,-19.6427 83.0129,-28.3179 87.0954,-22.6316"/>
</g>
<!-- Node6 -->
<g id="node7" class="node">
<title>Node6</title>
<polygon fill="none" stroke="#bfbfbf" points="105.5,-.5 105.5,-19.5 177.5,-19.5 177.5,-.5 105.5,-.5"/>
<text text-anchor="middle" x="141.5" y="-7.5" font-family="Helvetica,sans-Serif" font-size="10.00" fill="#000000">periph_cpu.h</text>
</g>
<!-- Node4&#45;&gt;Node6 -->
<g id="edge6" class="edge">
<title>Node4&#45;&gt;Node6</title>
<path fill="none" stroke="#191970" d="M141.5,-56.2455C141.5,-48.9382 141.5,-38.6944 141.5,-29.7046"/>
<polygon fill="#191970" stroke="#191970" points="145.0001,-29.6426 141.5,-19.6427 138.0001,-29.6427 145.0001,-29.6426"/>
</g>
<!-- Node7 -->
<g id="node8" class="node">
<title>Node7</title>
<polygon fill="none" stroke="#bfbfbf" points="196,-.5 196,-19.5 271,-19.5 271,-.5 196,-.5"/>
<text text-anchor="middle" x="233.5" y="-7.5" font-family="Helvetica,sans-Serif" font-size="10.00" fill="#000000">periph_conf.h</text>
</g>
<!-- Node4&#45;&gt;Node7 -->
<g id="edge7" class="edge">
<title>Node4&#45;&gt;Node7</title>
<path fill="none" stroke="#191970" d="M157.5252,-56.2455C171.6408,-47.6534 192.4263,-35.0014 208.6899,-25.1018"/>
<polygon fill="#191970" stroke="#191970" points="210.9363,-27.8319 217.6585,-19.6427 207.2966,-21.8525 210.9363,-27.8319"/>
</g>
</g>
</svg>
