<?xml version="1.0" encoding="UTF-8" standalone="no"?>
<!DOCTYPE svg PUBLIC "-//W3C//DTD SVG 1.1//EN"
 "http://www.w3.org/Graphics/SVG/1.1/DTD/svg11.dtd">
<!-- Generated by graphviz version 2.43.0 (0)
 -->
<!-- Title: sys/include/trickle.h Pages: 1 -->
<svg width="790pt" height="240pt"
 viewBox="0.00 0.00 790.15 240.00" xmlns="http://www.w3.org/2000/svg" xmlns:xlink="http://www.w3.org/1999/xlink">
<g id="graph0" class="graph" transform="scale(1 1) rotate(0) translate(4 236)">
<title>sys/include/trickle.h</title>
<!-- Node1 -->
<g id="node1" class="node">
<title>Node1</title>
<g id="a_node1"><a xlink:title="Trickle timer interface definition.">
<polygon fill="#bfbfbf" stroke="black" points="14.15,-212.5 14.15,-231.5 128.15,-231.5 128.15,-212.5 14.15,-212.5"/>
<text text-anchor="middle" x="71.15" y="-219.5" font-family="Helvetica,sans-Serif" font-size="10.00">sys/include/trickle.h</text>
</a>
</g>
</g>
<!-- Node2 -->
<g id="node2" class="node">
<title>Node2</title>
<g id="a_node2"><a xlink:href="dodag_8h.html" target="_top" xlink:title="DODAG&#45;related functions for RPL.">
<polygon fill="none" stroke="black" points="14.15,-73 14.15,-103 128.15,-103 128.15,-73 14.15,-73"/>
<text text-anchor="start" x="22.15" y="-91" font-family="Helvetica,sans-Serif" font-size="10.00">sys/include/net/gnrc</text>
<text text-anchor="middle" x="71.15" y="-80" font-family="Helvetica,sans-Serif" font-size="10.00">/rpl/dodag.h</text>
</a>
</g>
</g>
<!-- Node1&#45;&gt;Node2 -->
<g id="edge1" class="edge">
<title>Node1&#45;&gt;Node2</title>
<path fill="none" stroke="midnightblue" d="M71.15,-202.03C71.15,-175.31 71.15,-127.19 71.15,-103.28"/>
<polygon fill="midnightblue" stroke="midnightblue" points="67.65,-202.34 71.15,-212.34 74.65,-202.34 67.65,-202.34"/>
</g>
<!-- Node3 -->
<g id="node3" class="node">
<title>Node3</title>
<g id="a_node3"><a xlink:href="rpl_8h.html" target="_top" xlink:title="RPL header. Declaration of global variables and functions needed for core functionality of RPL.">
<polygon fill="none" stroke="black" points="14.15,-0.5 14.15,-30.5 128.15,-30.5 128.15,-0.5 14.15,-0.5"/>
<text text-anchor="start" x="22.15" y="-18.5" font-family="Helvetica,sans-Serif" font-size="10.00">sys/include/net/gnrc</text>
<text text-anchor="middle" x="71.15" y="-7.5" font-family="Helvetica,sans-Serif" font-size="10.00">/rpl.h</text>
</a>
</g>
</g>
<!-- Node1&#45;&gt;Node3 -->
<g id="edge15" class="edge">
<title>Node1&#45;&gt;Node3</title>
<path fill="none" stroke="midnightblue" d="M57.44,-204.37C41.26,-183.58 15.29,-146.18 5.15,-109 0.24,-90.99 -3.12,-83.74 5.15,-67 12.95,-51.22 28.3,-39.01 42.24,-30.55"/>
<polygon fill="midnightblue" stroke="midnightblue" points="54.92,-206.83 63.89,-212.46 60.39,-202.46 54.92,-206.83"/>
</g>
<!-- Node4 -->
<g id="node4" class="node">
<title>Node4</title>
<g id="a_node4"><a xlink:href="structs_8h.html" target="_top" xlink:title="RPL data structs.">
<polygon fill="none" stroke="black" points="251.15,-145.5 251.15,-175.5 365.15,-175.5 365.15,-145.5 251.15,-145.5"/>
<text text-anchor="start" x="259.15" y="-163.5" font-family="Helvetica,sans-Serif" font-size="10.00">sys/include/net/gnrc</text>
<text text-anchor="middle" x="308.15" y="-152.5" font-family="Helvetica,sans-Serif" font-size="10.00">/rpl/structs.h</text>
</a>
</g>
</g>
<!-- Node1&#45;&gt;Node4 -->
<g id="edge4" class="edge">
<title>Node1&#45;&gt;Node4</title>
<path fill="none" stroke="midnightblue" d="M115.03,-209.98C153.74,-200.27 210.36,-186.05 252.3,-175.52"/>
<polygon fill="midnightblue" stroke="midnightblue" points="113.95,-206.65 105.11,-212.48 115.66,-213.43 113.95,-206.65"/>
</g>
<!-- Node2&#45;&gt;Node3 -->
<g id="edge2" class="edge">
<title>Node2&#45;&gt;Node3</title>
<path fill="none" stroke="midnightblue" d="M64.7,-62.73C64.1,-52.07 64.4,-39.91 65.61,-30.75"/>
<polygon fill="midnightblue" stroke="midnightblue" points="61.22,-63.09 65.6,-72.73 68.19,-62.46 61.22,-63.09"/>
</g>
<!-- Node3&#45;&gt;Node2 -->
<g id="edge3" class="edge">
<title>Node3&#45;&gt;Node2</title>
<path fill="none" stroke="midnightblue" d="M77.6,-40.74C78.2,-51.41 77.9,-63.56 76.7,-72.73"/>
<polygon fill="midnightblue" stroke="midnightblue" points="81.08,-40.39 76.7,-30.75 74.11,-41.02 81.08,-40.39"/>
</g>
<!-- Node4&#45;&gt;Node2 -->
<g id="edge5" class="edge">
<title>Node4&#45;&gt;Node2</title>
<path fill="none" stroke="midnightblue" d="M251.3,-142.59C210.74,-130.52 156.82,-114.48 118.57,-103.11"/>
<polygon fill="midnightblue" stroke="midnightblue" points="250.46,-145.99 261.04,-145.49 252.46,-139.28 250.46,-145.99"/>
</g>
<!-- Node4&#45;&gt;Node3 -->
<g id="edge12" class="edge">
<title>Node4&#45;&gt;Node3</title>
<path fill="none" stroke="midnightblue" d="M244.51,-142.17C221.48,-134.19 196.03,-123.26 175.15,-109 154.36,-94.8 155.67,-84.05 137.15,-67 122.72,-53.71 104.99,-40.29 91.55,-30.62"/>
<polygon fill="midnightblue" stroke="midnightblue" points="243.61,-145.56 254.21,-145.42 245.83,-138.93 243.61,-145.56"/>
</g>
<!-- Node5 -->
<g id="node5" class="node">
<title>Node5</title>
<g id="a_node5"><a xlink:href="of__manager_8h.html" target="_top" xlink:title="RPL Objective functions manager header.">
<polygon fill="none" stroke="black" points="184.15,-73 184.15,-103 298.15,-103 298.15,-73 184.15,-73"/>
<text text-anchor="start" x="192.15" y="-91" font-family="Helvetica,sans-Serif" font-size="10.00">sys/include/net/gnrc</text>
<text text-anchor="middle" x="241.15" y="-80" font-family="Helvetica,sans-Serif" font-size="10.00">/rpl/of_manager.h</text>
</a>
</g>
</g>
<!-- Node4&#45;&gt;Node5 -->
<g id="edge6" class="edge">
<title>Node4&#45;&gt;Node5</title>
<path fill="none" stroke="midnightblue" d="M287.59,-137.86C276.9,-126.61 264.13,-113.18 254.69,-103.25"/>
<polygon fill="midnightblue" stroke="midnightblue" points="285.17,-140.4 294.59,-145.23 290.24,-135.57 285.17,-140.4"/>
</g>
<!-- Node6 -->
<g id="node6" class="node">
<title>Node6</title>
<g id="a_node6"><a xlink:href="p2p_8h.html" target="_top" xlink:title="Definititions for P2P&#45;RPL.">
<polygon fill="none" stroke="black" points="536.15,-0.5 536.15,-30.5 650.15,-30.5 650.15,-0.5 536.15,-0.5"/>
<text text-anchor="start" x="544.15" y="-18.5" font-family="Helvetica,sans-Serif" font-size="10.00">sys/include/net/gnrc</text>
<text text-anchor="middle" x="593.15" y="-7.5" font-family="Helvetica,sans-Serif" font-size="10.00">/rpl/p2p.h</text>
</a>
</g>
</g>
<!-- Node4&#45;&gt;Node6 -->
<g id="edge8" class="edge">
<title>Node4&#45;&gt;Node6</title>
<path fill="none" stroke="midnightblue" d="M375.36,-155.15C444.74,-149.23 546.62,-136.12 574.15,-109 595.17,-88.29 596.03,-50.97 594.68,-30.64"/>
<polygon fill="midnightblue" stroke="midnightblue" points="375.05,-151.66 365.37,-155.97 375.62,-158.64 375.05,-151.66"/>
</g>
<!-- Node7 -->
<g id="node7" class="node">
<title>Node7</title>
<g id="a_node7"><a xlink:href="p2p__structs_8h.html" target="_top" xlink:title="P2P&#45;RPL data structs.">
<polygon fill="none" stroke="black" points="621.15,-73 621.15,-103 735.15,-103 735.15,-73 621.15,-73"/>
<text text-anchor="start" x="629.15" y="-91" font-family="Helvetica,sans-Serif" font-size="10.00">sys/include/net/gnrc</text>
<text text-anchor="middle" x="678.15" y="-80" font-family="Helvetica,sans-Serif" font-size="10.00">/rpl/p2p_structs.h</text>
</a>
</g>
</g>
<!-- Node4&#45;&gt;Node7 -->
<g id="edge9" class="edge">
<title>Node4&#45;&gt;Node7</title>
<path fill="none" stroke="midnightblue" d="M375.51,-150.23C436.38,-141.36 528.25,-126.72 607.15,-109 614.9,-107.26 623.06,-105.19 630.97,-103.05"/>
<polygon fill="midnightblue" stroke="midnightblue" points="374.67,-146.82 365.27,-151.71 375.67,-153.75 374.67,-146.82"/>
</g>
<!-- Node9 -->
<g id="node9" class="node">
<title>Node9</title>
<g id="a_node9"><a xlink:href="validation_8h.html" target="_top" xlink:title="RPL control message validation functions.">
<polygon fill="none" stroke="black" points="316.65,-67.5 316.65,-108.5 433.65,-108.5 433.65,-67.5 316.65,-67.5"/>
<text text-anchor="start" x="324.65" y="-96.5" font-family="Helvetica,sans-Serif" font-size="10.00">sys/net/gnrc/routing</text>
<text text-anchor="start" x="324.65" y="-85.5" font-family="Helvetica,sans-Serif" font-size="10.00">/rpl/gnrc_rpl_internal</text>
<text text-anchor="middle" x="375.15" y="-74.5" font-family="Helvetica,sans-Serif" font-size="10.00">/validation.h</text>
</a>
</g>
</g>
<!-- Node4&#45;&gt;Node9 -->
<g id="edge13" class="edge">
<title>Node4&#45;&gt;Node9</title>
<path fill="none" stroke="midnightblue" d="M328.75,-137.82C337.62,-128.49 347.9,-117.67 356.54,-108.59"/>
<polygon fill="midnightblue" stroke="midnightblue" points="326.06,-135.57 321.71,-145.23 331.14,-140.4 326.06,-135.57"/>
</g>
<!-- Node10 -->
<g id="node10" class="node">
<title>Node10</title>
<g id="a_node10"><a xlink:href="of0_8h.html" target="_top" xlink:title="Objective Function Zero.">
<polygon fill="none" stroke="black" points="451.65,-73 451.65,-103 564.65,-103 564.65,-73 451.65,-73"/>
<text text-anchor="start" x="459.65" y="-91" font-family="Helvetica,sans-Serif" font-size="10.00">sys/net/gnrc/routing</text>
<text text-anchor="middle" x="508.15" y="-80" font-family="Helvetica,sans-Serif" font-size="10.00">/rpl/of0.h</text>
</a>
</g>
</g>
<!-- Node4&#45;&gt;Node10 -->
<g id="edge14" class="edge">
<title>Node4&#45;&gt;Node10</title>
<path fill="none" stroke="midnightblue" d="M357.9,-141.96C391.95,-129.96 436.5,-114.26 468.23,-103.07"/>
<polygon fill="midnightblue" stroke="midnightblue" points="356.41,-138.78 348.14,-145.4 358.74,-145.38 356.41,-138.78"/>
</g>
<!-- Node5&#45;&gt;Node3 -->
<g id="edge7" class="edge">
<title>Node5&#45;&gt;Node3</title>
<path fill="none" stroke="midnightblue" d="M197.75,-69C168.95,-57.06 131.71,-41.61 105.09,-30.57"/>
<polygon fill="midnightblue" stroke="midnightblue" points="196.58,-72.3 207.16,-72.9 199.26,-65.84 196.58,-72.3"/>
</g>
<!-- Node7&#45;&gt;Node6 -->
<g id="edge10" class="edge">
<title>Node7&#45;&gt;Node6</title>
<path fill="none" stroke="midnightblue" d="M653.18,-66.29C639.29,-54.77 622.37,-40.73 610.04,-30.5"/>
<polygon fill="midnightblue" stroke="midnightblue" points="651.02,-69.04 660.95,-72.73 655.49,-63.66 651.02,-69.04"/>
</g>
<!-- Node8 -->
<g id="node8" class="node">
<title>Node8</title>
<g id="a_node8"><a xlink:href="p2p__dodag_8h.html" target="_top" xlink:title="DODAG&#45;related functions for P2P&#45;RPL.">
<polygon fill="none" stroke="black" points="668.15,-0.5 668.15,-30.5 782.15,-30.5 782.15,-0.5 668.15,-0.5"/>
<text text-anchor="start" x="676.15" y="-18.5" font-family="Helvetica,sans-Serif" font-size="10.00">sys/include/net/gnrc</text>
<text text-anchor="middle" x="725.15" y="-7.5" font-family="Helvetica,sans-Serif" font-size="10.00">/rpl/p2p_dodag.h</text>
</a>
</g>
</g>
<!-- Node7&#45;&gt;Node8 -->
<g id="edge11" class="edge">
<title>Node7&#45;&gt;Node8</title>
<path fill="none" stroke="midnightblue" d="M693.23,-64.39C700.59,-53.34 709.22,-40.39 715.65,-30.75"/>
<polygon fill="midnightblue" stroke="midnightblue" points="690.3,-62.47 687.66,-72.73 696.12,-66.35 690.3,-62.47"/>
</g>
</g>
</svg>
