<?xml version="1.0" encoding="UTF-8" standalone="no"?>
<!DOCTYPE svg PUBLIC "-//W3C//DTD SVG 1.1//EN"
 "http://www.w3.org/Graphics/SVG/1.1/DTD/svg11.dtd">
<!-- Generated by graphviz version 2.40.1 (20161225.0304)
 -->
<!-- Title: drivers/include/tsl2561.h Pages: 1 -->
<svg width="532pt" height="252pt"
 viewBox="0.00 0.00 531.81 252.00" xmlns="http://www.w3.org/2000/svg" xmlns:xlink="http://www.w3.org/1999/xlink">
<g id="graph0" class="graph" transform="scale(1 1) rotate(0) translate(4 248)">
<title>drivers/include/tsl2561.h</title>
<!-- Node0 -->
<g id="node1" class="node">
<title>Node0</title>
<polygon fill="#bfbfbf" stroke="#000000" points="107,-224.5 107,-243.5 229,-243.5 229,-224.5 107,-224.5"/>
<text text-anchor="middle" x="168" y="-231.5" font-family="Helvetica,sans-Serif" font-size="10.00" fill="#000000">drivers/include/tsl2561.h</text>
</g>
<!-- Node1 -->
<g id="node2" class="node">
<title>Node1</title>
<g id="a_node2"><a xlink:href="saul_8h.html" target="_top" xlink:title="Definition of the generic [S]ensor [A]ctuator [U]ber [L]ayer. ">
<polygon fill="none" stroke="#000000" points="121.5,-168.5 121.5,-187.5 164.5,-187.5 164.5,-168.5 121.5,-168.5"/>
<text text-anchor="middle" x="143" y="-175.5" font-family="Helvetica,sans-Serif" font-size="10.00" fill="#000000">saul.h</text>
</a>
</g>
</g>
<!-- Node0&#45;&gt;Node1 -->
<g id="edge1" class="edge">
<title>Node0&#45;&gt;Node1</title>
<path fill="none" stroke="#191970" d="M163.6453,-224.2455C160.2756,-216.6973 155.507,-206.0158 151.4017,-196.8197"/>
<polygon fill="#191970" stroke="#191970" points="154.5773,-195.3473 147.3048,-187.6427 148.1853,-198.2009 154.5773,-195.3473"/>
</g>
<!-- Node7 -->
<g id="node8" class="node">
<title>Node7</title>
<g id="a_node8"><a xlink:href="i2c_8h.html" target="_top" xlink:title="Low&#45;level I2C peripheral driver interface definition. ">
<polygon fill="none" stroke="#000000" points="278.5,-112.5 278.5,-131.5 345.5,-131.5 345.5,-112.5 278.5,-112.5"/>
<text text-anchor="middle" x="312" y="-119.5" font-family="Helvetica,sans-Serif" font-size="10.00" fill="#000000">periph/i2c.h</text>
</a>
</g>
</g>
<!-- Node0&#45;&gt;Node7 -->
<g id="edge9" class="edge">
<title>Node0&#45;&gt;Node7</title>
<path fill="none" stroke="#191970" d="M180.2774,-224.4509C205.0387,-205.1921 261.1862,-161.5218 291.5655,-137.8935"/>
<polygon fill="#191970" stroke="#191970" points="294.009,-140.4271 299.7537,-131.5249 289.7114,-134.9016 294.009,-140.4271"/>
</g>
<!-- Node2 -->
<g id="node3" class="node">
<title>Node2</title>
<polygon fill="none" stroke="#bfbfbf" points="144.5,-56.5 144.5,-75.5 193.5,-75.5 193.5,-56.5 144.5,-56.5"/>
<text text-anchor="middle" x="169" y="-63.5" font-family="Helvetica,sans-Serif" font-size="10.00" fill="#000000">stdint.h</text>
</g>
<!-- Node1&#45;&gt;Node2 -->
<g id="edge2" class="edge">
<title>Node1&#45;&gt;Node2</title>
<path fill="none" stroke="#191970" d="M145.2167,-168.4509C149.4765,-150.1013 158.8807,-109.5908 164.5035,-85.3693"/>
<polygon fill="#191970" stroke="#191970" points="167.9368,-86.0573 166.7889,-75.5249 161.1182,-84.4744 167.9368,-86.0573"/>
</g>
<!-- Node3 -->
<g id="node4" class="node">
<title>Node3</title>
<g id="a_node4"><a xlink:href="errno_8h.html" target="_top" xlink:title="errno.h">
<polygon fill="none" stroke="#000000" points="23.5,-112.5 23.5,-131.5 70.5,-131.5 70.5,-112.5 23.5,-112.5"/>
<text text-anchor="middle" x="47" y="-119.5" font-family="Helvetica,sans-Serif" font-size="10.00" fill="#000000">errno.h</text>
</a>
</g>
</g>
<!-- Node1&#45;&gt;Node3 -->
<g id="edge3" class="edge">
<title>Node1&#45;&gt;Node3</title>
<path fill="none" stroke="#191970" d="M126.2781,-168.2455C111.4111,-159.5731 89.4534,-146.7645 72.4142,-136.825"/>
<polygon fill="#191970" stroke="#191970" points="73.9317,-133.6582 63.5303,-131.6427 70.4045,-139.7047 73.9317,-133.6582"/>
</g>
<!-- Node4 -->
<g id="node5" class="node">
<title>Node4</title>
<g id="a_node5"><a xlink:href="phydat_8h.html" target="_top" xlink:title="Generic data container for physical data interface. ">
<polygon fill="none" stroke="#000000" points="89,-112.5 89,-131.5 143,-131.5 143,-112.5 89,-112.5"/>
<text text-anchor="middle" x="116" y="-119.5" font-family="Helvetica,sans-Serif" font-size="10.00" fill="#000000">phydat.h</text>
</a>
</g>
</g>
<!-- Node1&#45;&gt;Node4 -->
<g id="edge4" class="edge">
<title>Node1&#45;&gt;Node4</title>
<path fill="none" stroke="#191970" d="M138.297,-168.2455C134.6576,-160.6973 129.5076,-150.0158 125.0738,-140.8197"/>
<polygon fill="#191970" stroke="#191970" points="128.1449,-139.1303 120.6491,-131.6427 121.8395,-142.1704 128.1449,-139.1303"/>
</g>
<!-- Node4&#45;&gt;Node2 -->
<g id="edge6" class="edge">
<title>Node4&#45;&gt;Node2</title>
<path fill="none" stroke="#191970" d="M125.2319,-112.2455C132.8317,-104.2155 143.7877,-92.6394 152.8368,-83.0781"/>
<polygon fill="#191970" stroke="#191970" points="155.5421,-85.3115 159.8739,-75.6427 150.458,-80.4998 155.5421,-85.3115"/>
</g>
<!-- Node5 -->
<g id="node6" class="node">
<title>Node5</title>
<polygon fill="none" stroke="#bfbfbf" points="90,-.5 90,-19.5 142,-19.5 142,-.5 90,-.5"/>
<text text-anchor="middle" x="116" y="-7.5" font-family="Helvetica,sans-Serif" font-size="10.00" fill="#000000">stddef.h</text>
</g>
<!-- Node4&#45;&gt;Node5 -->
<g id="edge5" class="edge">
<title>Node4&#45;&gt;Node5</title>
<path fill="none" stroke="#191970" d="M116,-112.4509C116,-94.184 116,-53.9553 116,-29.6976"/>
<polygon fill="#191970" stroke="#191970" points="119.5001,-29.5249 116,-19.5249 112.5001,-29.5249 119.5001,-29.5249"/>
</g>
<!-- Node6 -->
<g id="node7" class="node">
<title>Node6</title>
<g id="a_node7"><a xlink:href="kernel__defines_8h.html" target="_top" xlink:title="Common macros and compiler attributes/pragmas configuration. ">
<polygon fill="none" stroke="#000000" points="0,-56.5 0,-75.5 88,-75.5 88,-56.5 0,-56.5"/>
<text text-anchor="middle" x="44" y="-63.5" font-family="Helvetica,sans-Serif" font-size="10.00" fill="#000000">kernel_defines.h</text>
</a>
</g>
</g>
<!-- Node4&#45;&gt;Node6 -->
<g id="edge7" class="edge">
<title>Node4&#45;&gt;Node6</title>
<path fill="none" stroke="#191970" d="M103.4586,-112.2455C92.7213,-103.8943 77.0527,-91.7076 64.4953,-81.9408"/>
<polygon fill="#191970" stroke="#191970" points="66.4401,-79.0194 56.3977,-75.6427 62.1425,-84.5449 66.4401,-79.0194"/>
</g>
<!-- Node6&#45;&gt;Node5 -->
<g id="edge8" class="edge">
<title>Node6&#45;&gt;Node5</title>
<path fill="none" stroke="#191970" d="M56.5414,-56.2455C67.2787,-47.8943 82.9473,-35.7076 95.5047,-25.9408"/>
<polygon fill="#191970" stroke="#191970" points="97.8575,-28.5449 103.6023,-19.6427 93.5599,-23.0194 97.8575,-28.5449"/>
</g>
<!-- Node7&#45;&gt;Node2 -->
<g id="edge10" class="edge">
<title>Node7&#45;&gt;Node2</title>
<path fill="none" stroke="#191970" d="M287.4174,-112.3733C264.0504,-103.2226 228.7138,-89.3844 202.7216,-79.2057"/>
<polygon fill="#191970" stroke="#191970" points="203.8495,-75.8886 193.2618,-75.5011 201.297,-82.4066 203.8495,-75.8886"/>
</g>
<!-- Node7&#45;&gt;Node5 -->
<g id="edge11" class="edge">
<title>Node7&#45;&gt;Node5</title>
<path fill="none" stroke="#191970" d="M312.0514,-112.4401C311.5893,-98.1136 308.5435,-71.1439 293,-56 273.1683,-36.678 198.2002,-22.3323 152.4306,-15.1509"/>
<polygon fill="#191970" stroke="#191970" points="152.7202,-11.6546 142.3063,-13.6041 151.663,-18.5743 152.7202,-11.6546"/>
</g>
<!-- Node8 -->
<g id="node9" class="node">
<title>Node8</title>
<polygon fill="none" stroke="#bfbfbf" points="462,-56.5 462,-75.5 510,-75.5 510,-56.5 462,-56.5"/>
<text text-anchor="middle" x="486" y="-63.5" font-family="Helvetica,sans-Serif" font-size="10.00" fill="#000000">limits.h</text>
</g>
<!-- Node7&#45;&gt;Node8 -->
<g id="edge12" class="edge">
<title>Node7&#45;&gt;Node8</title>
<path fill="none" stroke="#191970" d="M341.9117,-112.3733C372.5111,-102.5252 419.9796,-87.2479 451.9895,-76.9459"/>
<polygon fill="#191970" stroke="#191970" points="453.3513,-80.1845 461.7982,-73.7891 451.2067,-73.5211 453.3513,-80.1845"/>
</g>
<!-- Node9 -->
<g id="node10" class="node">
<title>Node9</title>
<polygon fill="none" stroke="#bfbfbf" points="427.5,-.5 427.5,-19.5 502.5,-19.5 502.5,-.5 427.5,-.5"/>
<text text-anchor="middle" x="465" y="-7.5" font-family="Helvetica,sans-Serif" font-size="10.00" fill="#000000">periph_conf.h</text>
</g>
<!-- Node7&#45;&gt;Node9 -->
<g id="edge13" class="edge">
<title>Node7&#45;&gt;Node9</title>
<path fill="none" stroke="#191970" d="M345.5889,-119.5155C398.5451,-114.8226 497.6345,-102.6346 519,-76 533.1219,-58.3954 511.2775,-38.3541 491.2933,-25.0204"/>
<polygon fill="#191970" stroke="#191970" points="492.99,-21.9524 482.6662,-19.5713 489.2519,-27.8707 492.99,-21.9524"/>
</g>
<!-- Node10 -->
<g id="node11" class="node">
<title>Node10</title>
<polygon fill="none" stroke="#bfbfbf" points="212,-56.5 212,-75.5 284,-75.5 284,-56.5 212,-56.5"/>
<text text-anchor="middle" x="248" y="-63.5" font-family="Helvetica,sans-Serif" font-size="10.00" fill="#000000">periph_cpu.h</text>
</g>
<!-- Node7&#45;&gt;Node10 -->
<g id="edge14" class="edge">
<title>Node7&#45;&gt;Node10</title>
<path fill="none" stroke="#191970" d="M300.8521,-112.2455C291.4913,-104.0549 277.9142,-92.1749 266.8651,-82.5069"/>
<polygon fill="#191970" stroke="#191970" points="268.8508,-79.5937 259.0202,-75.6427 264.2412,-84.8618 268.8508,-79.5937"/>
</g>
<!-- Node11 -->
<g id="node12" class="node">
<title>Node11</title>
<g id="a_node12"><a xlink:href="dev__enums_8h.html" target="_top" xlink:title="Device enumerations for backward compatibility with existing peripheral driver implementations. ">
<polygon fill="none" stroke="#000000" points="340,-56.5 340,-75.5 444,-75.5 444,-56.5 340,-56.5"/>
<text text-anchor="middle" x="392" y="-63.5" font-family="Helvetica,sans-Serif" font-size="10.00" fill="#000000">periph/dev_enums.h</text>
</a>
</g>
</g>
<!-- Node7&#45;&gt;Node11 -->
<g id="edge15" class="edge">
<title>Node7&#45;&gt;Node11</title>
<path fill="none" stroke="#191970" d="M325.9349,-112.2455C338.0947,-103.7337 355.9464,-91.2375 370.0285,-81.3801"/>
<polygon fill="#191970" stroke="#191970" points="372.0395,-84.2447 378.2248,-75.6427 368.0253,-78.51 372.0395,-84.2447"/>
</g>
<!-- Node11&#45;&gt;Node9 -->
<g id="edge16" class="edge">
<title>Node11&#45;&gt;Node9</title>
<path fill="none" stroke="#191970" d="M404.7156,-56.2455C415.602,-47.8943 431.4883,-35.7076 444.22,-25.9408"/>
<polygon fill="#191970" stroke="#191970" points="446.6261,-28.5063 452.4301,-19.6427 442.3654,-22.9523 446.6261,-28.5063"/>
</g>
</g>
</svg>
