<?xml version="1.0" encoding="UTF-8" standalone="no"?>
<!DOCTYPE svg PUBLIC "-//W3C//DTD SVG 1.1//EN"
 "http://www.w3.org/Graphics/SVG/1.1/DTD/svg11.dtd">
<!-- Generated by graphviz version 2.40.1 (20161225.0304)
 -->
<!-- Title: sys/include/tsrb.h Pages: 1 -->
<svg width="202pt" height="252pt"
 viewBox="0.00 0.00 201.50 252.00" xmlns="http://www.w3.org/2000/svg" xmlns:xlink="http://www.w3.org/1999/xlink">
<g id="graph0" class="graph" transform="scale(1 1) rotate(0) translate(4 248)">
<title>sys/include/tsrb.h</title>
<!-- Node0 -->
<g id="node1" class="node">
<title>Node0</title>
<polygon fill="#bfbfbf" stroke="#000000" points="69,-224.5 69,-243.5 163,-243.5 163,-224.5 69,-224.5"/>
<text text-anchor="middle" x="116" y="-231.5" font-family="Helvetica,sans-Serif" font-size="10.00" fill="#000000">sys/include/tsrb.h</text>
</g>
<!-- Node1 -->
<g id="node2" class="node">
<title>Node1</title>
<g id="a_node2"><a xlink:href="assert_8h.html" target="_top" xlink:title="POSIX.1&#45;2008 compliant version of the assert macro. ">
<polygon fill="none" stroke="#000000" points="32,-168.5 32,-187.5 84,-187.5 84,-168.5 32,-168.5"/>
<text text-anchor="middle" x="58" y="-175.5" font-family="Helvetica,sans-Serif" font-size="10.00" fill="#000000">assert.h</text>
</a>
</g>
</g>
<!-- Node0&#45;&gt;Node1 -->
<g id="edge1" class="edge">
<title>Node0&#45;&gt;Node1</title>
<path fill="none" stroke="#191970" d="M105.8972,-224.2455C97.4972,-216.1352 85.3506,-204.4075 75.3916,-194.7919"/>
<polygon fill="#191970" stroke="#191970" points="77.6122,-192.0707 67.9871,-187.6427 72.75,-197.1066 77.6122,-192.0707"/>
</g>
<!-- Node4 -->
<g id="node5" class="node">
<title>Node4</title>
<polygon fill="none" stroke="#bfbfbf" points="54,-.5 54,-19.5 106,-19.5 106,-.5 54,-.5"/>
<text text-anchor="middle" x="80" y="-7.5" font-family="Helvetica,sans-Serif" font-size="10.00" fill="#000000">stddef.h</text>
</g>
<!-- Node0&#45;&gt;Node4 -->
<g id="edge5" class="edge">
<title>Node0&#45;&gt;Node4</title>
<path fill="none" stroke="#191970" d="M115.802,-224.2113C115.0734,-197.1096 111.7477,-118.9382 97,-56 94.8694,-46.9075 91.4437,-37.1618 88.2238,-28.9919"/>
<polygon fill="#191970" stroke="#191970" points="91.4198,-27.5613 84.3683,-19.6539 84.9496,-30.2328 91.4198,-27.5613"/>
</g>
<!-- Node5 -->
<g id="node6" class="node">
<title>Node5</title>
<polygon fill="none" stroke="#bfbfbf" points="144.5,-168.5 144.5,-187.5 193.5,-187.5 193.5,-168.5 144.5,-168.5"/>
<text text-anchor="middle" x="169" y="-175.5" font-family="Helvetica,sans-Serif" font-size="10.00" fill="#000000">stdint.h</text>
</g>
<!-- Node0&#45;&gt;Node5 -->
<g id="edge6" class="edge">
<title>Node0&#45;&gt;Node5</title>
<path fill="none" stroke="#191970" d="M125.2319,-224.2455C132.8317,-216.2155 143.7877,-204.6394 152.8368,-195.0781"/>
<polygon fill="#191970" stroke="#191970" points="155.5421,-197.3115 159.8739,-187.6427 150.458,-192.4998 155.5421,-197.3115"/>
</g>
<!-- Node2 -->
<g id="node3" class="node">
<title>Node2</title>
<g id="a_node3"><a xlink:href="panic_8h.html" target="_top" xlink:title="Crash handling header. ">
<polygon fill="none" stroke="#000000" points="25,-112.5 25,-131.5 73,-131.5 73,-112.5 25,-112.5"/>
<text text-anchor="middle" x="49" y="-119.5" font-family="Helvetica,sans-Serif" font-size="10.00" fill="#000000">panic.h</text>
</a>
</g>
</g>
<!-- Node1&#45;&gt;Node2 -->
<g id="edge2" class="edge">
<title>Node1&#45;&gt;Node2</title>
<path fill="none" stroke="#191970" d="M56.4323,-168.2455C55.2579,-160.9382 53.6116,-150.6944 52.1668,-141.7046"/>
<polygon fill="#191970" stroke="#191970" points="55.5922,-140.9606 50.5497,-131.6427 48.6809,-142.0714 55.5922,-140.9606"/>
</g>
<!-- Node3 -->
<g id="node4" class="node">
<title>Node3</title>
<g id="a_node4"><a xlink:href="kernel__defines_8h.html" target="_top" xlink:title="Common macros and compiler attributes/pragmas configuration. ">
<polygon fill="none" stroke="#000000" points="0,-56.5 0,-75.5 88,-75.5 88,-56.5 0,-56.5"/>
<text text-anchor="middle" x="44" y="-63.5" font-family="Helvetica,sans-Serif" font-size="10.00" fill="#000000">kernel_defines.h</text>
</a>
</g>
</g>
<!-- Node2&#45;&gt;Node3 -->
<g id="edge3" class="edge">
<title>Node2&#45;&gt;Node3</title>
<path fill="none" stroke="#191970" d="M48.1291,-112.2455C47.4766,-104.9382 46.562,-94.6944 45.7593,-85.7046"/>
<polygon fill="#191970" stroke="#191970" points="49.2365,-85.2918 44.861,-75.6427 42.2642,-85.9143 49.2365,-85.2918"/>
</g>
<!-- Node3&#45;&gt;Node4 -->
<g id="edge4" class="edge">
<title>Node3&#45;&gt;Node4</title>
<path fill="none" stroke="#191970" d="M50.2707,-56.2455C55.2264,-48.5367 62.283,-37.5598 68.2776,-28.2348"/>
<polygon fill="#191970" stroke="#191970" points="71.3376,-29.9471 73.8011,-19.6427 65.4494,-26.1618 71.3376,-29.9471"/>
</g>
</g>
</svg>
