<?xml version="1.0" encoding="UTF-8" standalone="no"?>
<!DOCTYPE svg PUBLIC "-//W3C//DTD SVG 1.1//EN"
 "http://www.w3.org/Graphics/SVG/1.1/DTD/svg11.dtd">
<!-- Generated by graphviz version 2.40.1 (20161225.0304)
 -->
<!-- Title: cpu/native/include/tty_uart.h Pages: 1 -->
<svg width="444pt" height="207pt"
 viewBox="0.00 0.00 444.00 207.00" xmlns="http://www.w3.org/2000/svg" xmlns:xlink="http://www.w3.org/1999/xlink">
<g id="graph0" class="graph" transform="scale(1 1) rotate(0) translate(4 203)">
<title>cpu/native/include/tty_uart.h</title>
<!-- Node0 -->
<g id="node1" class="node">
<title>Node0</title>
<polygon fill="#bfbfbf" stroke="#000000" points="153.5,-168.5 153.5,-198.5 248.5,-198.5 248.5,-168.5 153.5,-168.5"/>
<text text-anchor="start" x="161.5" y="-186.5" font-family="Helvetica,sans-Serif" font-size="10.00" fill="#000000">cpu/native/include</text>
<text text-anchor="middle" x="201" y="-175.5" font-family="Helvetica,sans-Serif" font-size="10.00" fill="#000000">/tty_uart.h</text>
</g>
<!-- Node1 -->
<g id="node2" class="node">
<title>Node1</title>
<g id="a_node2"><a xlink:href="uart_8h.html" target="_top" xlink:title="Low&#45;level UART peripheral driver interface definition. ">
<polygon fill="none" stroke="#000000" points="165.5,-112.5 165.5,-131.5 236.5,-131.5 236.5,-112.5 165.5,-112.5"/>
<text text-anchor="middle" x="201" y="-119.5" font-family="Helvetica,sans-Serif" font-size="10.00" fill="#000000">periph/uart.h</text>
</a>
</g>
</g>
<!-- Node0&#45;&gt;Node1 -->
<g id="edge1" class="edge">
<title>Node0&#45;&gt;Node1</title>
<path fill="none" stroke="#191970" d="M201,-168.2977C201,-160.3834 201,-150.6043 201,-142.0759"/>
<polygon fill="#191970" stroke="#191970" points="204.5001,-141.8469 201,-131.8469 197.5001,-141.847 204.5001,-141.8469"/>
</g>
<!-- Node2 -->
<g id="node3" class="node">
<title>Node2</title>
<polygon fill="none" stroke="#bfbfbf" points="0,-56.5 0,-75.5 52,-75.5 52,-56.5 0,-56.5"/>
<text text-anchor="middle" x="26" y="-63.5" font-family="Helvetica,sans-Serif" font-size="10.00" fill="#000000">stddef.h</text>
</g>
<!-- Node1&#45;&gt;Node2 -->
<g id="edge2" class="edge">
<title>Node1&#45;&gt;Node2</title>
<path fill="none" stroke="#191970" d="M170.9164,-112.3733C140.7584,-102.7227 94.3081,-87.8586 62.1616,-77.5717"/>
<polygon fill="#191970" stroke="#191970" points="62.8568,-74.1194 52.2658,-74.4051 60.7233,-80.7864 62.8568,-74.1194"/>
</g>
<!-- Node3 -->
<g id="node4" class="node">
<title>Node3</title>
<polygon fill="none" stroke="#bfbfbf" points="70.5,-56.5 70.5,-75.5 119.5,-75.5 119.5,-56.5 70.5,-56.5"/>
<text text-anchor="middle" x="95" y="-63.5" font-family="Helvetica,sans-Serif" font-size="10.00" fill="#000000">stdint.h</text>
</g>
<!-- Node1&#45;&gt;Node3 -->
<g id="edge3" class="edge">
<title>Node1&#45;&gt;Node3</title>
<path fill="none" stroke="#191970" d="M182.5362,-112.2455C165.8926,-103.4527 141.2007,-90.4079 122.2808,-80.4125"/>
<polygon fill="#191970" stroke="#191970" points="123.7291,-77.2193 113.2522,-75.6427 120.4592,-83.4086 123.7291,-77.2193"/>
</g>
<!-- Node4 -->
<g id="node5" class="node">
<title>Node4</title>
<polygon fill="none" stroke="#bfbfbf" points="138,-56.5 138,-75.5 186,-75.5 186,-56.5 138,-56.5"/>
<text text-anchor="middle" x="162" y="-63.5" font-family="Helvetica,sans-Serif" font-size="10.00" fill="#000000">limits.h</text>
</g>
<!-- Node1&#45;&gt;Node4 -->
<g id="edge4" class="edge">
<title>Node1&#45;&gt;Node4</title>
<path fill="none" stroke="#191970" d="M194.2067,-112.2455C188.7822,-104.4564 181.0339,-93.3308 174.4967,-83.9439"/>
<polygon fill="#191970" stroke="#191970" points="177.3025,-81.8485 168.7154,-75.6427 171.5583,-85.849 177.3025,-81.8485"/>
</g>
<!-- Node5 -->
<g id="node6" class="node">
<title>Node5</title>
<polygon fill="none" stroke="#bfbfbf" points="204,-56.5 204,-75.5 276,-75.5 276,-56.5 204,-56.5"/>
<text text-anchor="middle" x="240" y="-63.5" font-family="Helvetica,sans-Serif" font-size="10.00" fill="#000000">periph_cpu.h</text>
</g>
<!-- Node1&#45;&gt;Node5 -->
<g id="edge5" class="edge">
<title>Node1&#45;&gt;Node5</title>
<path fill="none" stroke="#191970" d="M207.7933,-112.2455C213.2178,-104.4564 220.9661,-93.3308 227.5033,-83.9439"/>
<polygon fill="#191970" stroke="#191970" points="230.4417,-85.849 233.2846,-75.6427 224.6975,-81.8485 230.4417,-85.849"/>
</g>
<!-- Node6 -->
<g id="node7" class="node">
<title>Node6</title>
<polygon fill="none" stroke="#bfbfbf" points="306.5,-.5 306.5,-19.5 381.5,-19.5 381.5,-.5 306.5,-.5"/>
<text text-anchor="middle" x="344" y="-7.5" font-family="Helvetica,sans-Serif" font-size="10.00" fill="#000000">periph_conf.h</text>
</g>
<!-- Node1&#45;&gt;Node6 -->
<g id="edge6" class="edge">
<title>Node1&#45;&gt;Node6</title>
<path fill="none" stroke="#191970" d="M223.3075,-112.3505C241.0041,-104.1115 265.8601,-91.2003 285,-76 302.7411,-61.9105 319.6129,-42.1642 330.7344,-27.9469"/>
<polygon fill="#191970" stroke="#191970" points="333.5849,-29.9811 336.8724,-19.9092 328.0215,-25.7326 333.5849,-29.9811"/>
</g>
<!-- Node7 -->
<g id="node8" class="node">
<title>Node7</title>
<g id="a_node8"><a xlink:href="dev__enums_8h.html" target="_top" xlink:title="Device enumerations for backward compatibility with existing peripheral driver implementations. ">
<polygon fill="none" stroke="#000000" points="332,-56.5 332,-75.5 436,-75.5 436,-56.5 332,-56.5"/>
<text text-anchor="middle" x="384" y="-63.5" font-family="Helvetica,sans-Serif" font-size="10.00" fill="#000000">periph/dev_enums.h</text>
</a>
</g>
</g>
<!-- Node1&#45;&gt;Node7 -->
<g id="edge7" class="edge">
<title>Node1&#45;&gt;Node7</title>
<path fill="none" stroke="#191970" d="M232.4588,-112.3733C263.0207,-103.021 309.5826,-88.7725 343.0261,-78.5385"/>
<polygon fill="#191970" stroke="#191970" points="344.4136,-81.7742 352.9517,-75.5011 342.3652,-75.0806 344.4136,-81.7742"/>
</g>
<!-- Node7&#45;&gt;Node6 -->
<g id="edge8" class="edge">
<title>Node7&#45;&gt;Node6</title>
<path fill="none" stroke="#191970" d="M377.0325,-56.2455C371.4689,-48.4564 363.522,-37.3308 356.8171,-27.9439"/>
<polygon fill="#191970" stroke="#191970" points="359.5481,-25.7457 350.8876,-19.6427 353.852,-29.8144 359.5481,-25.7457"/>
</g>
</g>
</svg>
