<?xml version="1.0" encoding="UTF-8" standalone="no"?>
<!DOCTYPE svg PUBLIC "-//W3C//DTD SVG 1.1//EN"
 "http://www.w3.org/Graphics/SVG/1.1/DTD/svg11.dtd">
<!-- Generated by graphviz version 2.40.1 (20161225.0304)
 -->
<!-- Title: drivers/include/periph/uart.h Pages: 1 -->
<svg width="444pt" height="151pt"
 viewBox="0.00 0.00 444.00 151.00" xmlns="http://www.w3.org/2000/svg" xmlns:xlink="http://www.w3.org/1999/xlink">
<g id="graph0" class="graph" transform="scale(1 1) rotate(0) translate(4 147)">
<title>drivers/include/periph/uart.h</title>
<!-- Node0 -->
<g id="node1" class="node">
<title>Node0</title>
<polygon fill="#bfbfbf" stroke="#000000" points="146.5,-112.5 146.5,-142.5 255.5,-142.5 255.5,-112.5 146.5,-112.5"/>
<text text-anchor="start" x="154.5" y="-130.5" font-family="Helvetica,sans-Serif" font-size="10.00" fill="#000000">drivers/include/periph</text>
<text text-anchor="middle" x="201" y="-119.5" font-family="Helvetica,sans-Serif" font-size="10.00" fill="#000000">/uart.h</text>
</g>
<!-- Node1 -->
<g id="node2" class="node">
<title>Node1</title>
<polygon fill="none" stroke="#bfbfbf" points="0,-56.5 0,-75.5 52,-75.5 52,-56.5 0,-56.5"/>
<text text-anchor="middle" x="26" y="-63.5" font-family="Helvetica,sans-Serif" font-size="10.00" fill="#000000">stddef.h</text>
</g>
<!-- Node0&#45;&gt;Node1 -->
<g id="edge1" class="edge">
<title>Node0&#45;&gt;Node1</title>
<path fill="none" stroke="#191970" d="M158.1902,-112.4554C128.6305,-102.0673 89.7692,-88.4103 61.8433,-78.5964"/>
<polygon fill="#191970" stroke="#191970" points="62.6818,-75.1813 52.087,-75.1677 60.3609,-81.7853 62.6818,-75.1813"/>
</g>
<!-- Node2 -->
<g id="node3" class="node">
<title>Node2</title>
<polygon fill="none" stroke="#bfbfbf" points="70.5,-56.5 70.5,-75.5 119.5,-75.5 119.5,-56.5 70.5,-56.5"/>
<text text-anchor="middle" x="95" y="-63.5" font-family="Helvetica,sans-Serif" font-size="10.00" fill="#000000">stdint.h</text>
</g>
<!-- Node0&#45;&gt;Node2 -->
<g id="edge2" class="edge">
<title>Node0&#45;&gt;Node2</title>
<path fill="none" stroke="#191970" d="M175.0695,-112.4554C158.4691,-102.8241 137.0256,-90.3828 120.5083,-80.7996"/>
<polygon fill="#191970" stroke="#191970" points="121.8323,-77.5214 111.4262,-75.5303 118.3194,-83.5761 121.8323,-77.5214"/>
</g>
<!-- Node3 -->
<g id="node4" class="node">
<title>Node3</title>
<polygon fill="none" stroke="#bfbfbf" points="138,-56.5 138,-75.5 186,-75.5 186,-56.5 138,-56.5"/>
<text text-anchor="middle" x="162" y="-63.5" font-family="Helvetica,sans-Serif" font-size="10.00" fill="#000000">limits.h</text>
</g>
<!-- Node0&#45;&gt;Node3 -->
<g id="edge3" class="edge">
<title>Node0&#45;&gt;Node3</title>
<path fill="none" stroke="#191970" d="M191.3595,-112.2977C186.0023,-103.8498 179.2978,-93.2773 173.6487,-84.369"/>
<polygon fill="#191970" stroke="#191970" points="176.5556,-82.4176 168.2444,-75.8469 170.6441,-86.1664 176.5556,-82.4176"/>
</g>
<!-- Node4 -->
<g id="node5" class="node">
<title>Node4</title>
<polygon fill="none" stroke="#bfbfbf" points="204,-56.5 204,-75.5 276,-75.5 276,-56.5 204,-56.5"/>
<text text-anchor="middle" x="240" y="-63.5" font-family="Helvetica,sans-Serif" font-size="10.00" fill="#000000">periph_cpu.h</text>
</g>
<!-- Node0&#45;&gt;Node4 -->
<g id="edge4" class="edge">
<title>Node0&#45;&gt;Node4</title>
<path fill="none" stroke="#191970" d="M210.6405,-112.2977C215.9977,-103.8498 222.7022,-93.2773 228.3513,-84.369"/>
<polygon fill="#191970" stroke="#191970" points="231.3559,-86.1664 233.7556,-75.8469 225.4444,-82.4176 231.3559,-86.1664"/>
</g>
<!-- Node5 -->
<g id="node6" class="node">
<title>Node5</title>
<polygon fill="none" stroke="#bfbfbf" points="306.5,-.5 306.5,-19.5 381.5,-19.5 381.5,-.5 306.5,-.5"/>
<text text-anchor="middle" x="344" y="-7.5" font-family="Helvetica,sans-Serif" font-size="10.00" fill="#000000">periph_conf.h</text>
</g>
<!-- Node0&#45;&gt;Node5 -->
<g id="edge5" class="edge">
<title>Node0&#45;&gt;Node5</title>
<path fill="none" stroke="#191970" d="M230.0013,-112.4935C246.8639,-103.109 268.061,-90.1425 285,-76 302.3908,-61.4803 319.3157,-41.7992 330.5453,-27.7147"/>
<polygon fill="#191970" stroke="#191970" points="333.3576,-29.8 336.7546,-19.7645 327.8408,-25.4913 333.3576,-29.8"/>
</g>
<!-- Node6 -->
<g id="node7" class="node">
<title>Node6</title>
<g id="a_node7"><a xlink:href="dev__enums_8h.html" target="_top" xlink:title="Device enumerations for backward compatibility with existing peripheral driver implementations. ">
<polygon fill="none" stroke="#000000" points="332,-56.5 332,-75.5 436,-75.5 436,-56.5 332,-56.5"/>
<text text-anchor="middle" x="384" y="-63.5" font-family="Helvetica,sans-Serif" font-size="10.00" fill="#000000">periph/dev_enums.h</text>
</a>
</g>
</g>
<!-- Node0&#45;&gt;Node6 -->
<g id="edge6" class="edge">
<title>Node0&#45;&gt;Node6</title>
<path fill="none" stroke="#191970" d="M245.7668,-112.4554C276.4348,-102.149 316.6771,-88.6249 345.8272,-78.8286"/>
<polygon fill="#191970" stroke="#191970" points="347.2774,-82.0336 355.6415,-75.5303 345.0475,-75.3983 347.2774,-82.0336"/>
</g>
<!-- Node6&#45;&gt;Node5 -->
<g id="edge7" class="edge">
<title>Node6&#45;&gt;Node5</title>
<path fill="none" stroke="#191970" d="M377.0325,-56.2455C371.4689,-48.4564 363.522,-37.3308 356.8171,-27.9439"/>
<polygon fill="#191970" stroke="#191970" points="359.5481,-25.7457 350.8876,-19.6427 353.852,-29.8144 359.5481,-25.7457"/>
</g>
</g>
</svg>
