<?xml version="1.0" encoding="UTF-8" standalone="no"?>
<!DOCTYPE svg PUBLIC "-//W3C//DTD SVG 1.1//EN"
 "http://www.w3.org/Graphics/SVG/1.1/DTD/svg11.dtd">
<!-- Generated by graphviz version 2.43.0 (0)
 -->
<!-- Title: sys/include/net/udp.h Pages: 1 -->
<svg width="138pt" height="196pt"
 viewBox="0.00 0.00 138.00 196.00" xmlns="http://www.w3.org/2000/svg" xmlns:xlink="http://www.w3.org/1999/xlink">
<g id="graph0" class="graph" transform="scale(1 1) rotate(0) translate(4 192)">
<title>sys/include/net/udp.h</title>
<!-- Node1 -->
<g id="node1" class="node">
<title>Node1</title>
<g id="a_node1"><a xlink:title="UDP header and helper functions definition.">
<polygon fill="#bfbfbf" stroke="black" points="0,-168.5 0,-187.5 120,-187.5 120,-168.5 0,-168.5"/>
<text text-anchor="middle" x="60" y="-175.5" font-family="Helvetica,sans-Serif" font-size="10.00">sys/include/net/udp.h</text>
</a>
</g>
</g>
<!-- Node2 -->
<g id="node2" class="node">
<title>Node2</title>
<g id="a_node2"><a xlink:href="byteorder_8h.html" target="_top" xlink:title="Functions to work with different byte orders.">
<polygon fill="none" stroke="black" points="23.5,-112.5 23.5,-131.5 96.5,-131.5 96.5,-112.5 23.5,-112.5"/>
<text text-anchor="middle" x="60" y="-119.5" font-family="Helvetica,sans-Serif" font-size="10.00">byteorder.h</text>
</a>
</g>
</g>
<!-- Node1&#45;&gt;Node2 -->
<g id="edge1" class="edge">
<title>Node1&#45;&gt;Node2</title>
<path fill="none" stroke="midnightblue" d="M60,-168.08C60,-161.01 60,-150.86 60,-141.99"/>
<polygon fill="midnightblue" stroke="midnightblue" points="63.5,-141.75 60,-131.75 56.5,-141.75 63.5,-141.75"/>
</g>
<!-- Node3 -->
<g id="node3" class="node">
<title>Node3</title>
<g id="a_node3"><a xlink:title=" ">
<polygon fill="none" stroke="#bfbfbf" points="33.5,-0.5 33.5,-19.5 86.5,-19.5 86.5,-0.5 33.5,-0.5"/>
<text text-anchor="middle" x="60" y="-7.5" font-family="Helvetica,sans-Serif" font-size="10.00">stdint.h</text>
</a>
</g>
</g>
<!-- Node2&#45;&gt;Node3 -->
<g id="edge2" class="edge">
<title>Node2&#45;&gt;Node3</title>
<path fill="none" stroke="midnightblue" d="M56.66,-112.2C53.45,-103.24 48.82,-88.88 47,-76 44.76,-60.15 48.79,-42.34 52.94,-29.38"/>
<polygon fill="midnightblue" stroke="midnightblue" points="56.3,-30.37 56.32,-19.78 49.69,-28.05 56.3,-30.37"/>
</g>
<!-- Node4 -->
<g id="node4" class="node">
<title>Node4</title>
<g id="a_node4"><a xlink:href="unaligned_8h.html" target="_top" xlink:title="Unaligned but safe memory access functions.">
<polygon fill="none" stroke="black" points="56,-56.5 56,-75.5 130,-75.5 130,-56.5 56,-56.5"/>
<text text-anchor="middle" x="93" y="-63.5" font-family="Helvetica,sans-Serif" font-size="10.00">unaligned.h</text>
</a>
</g>
</g>
<!-- Node2&#45;&gt;Node4 -->
<g id="edge3" class="edge">
<title>Node2&#45;&gt;Node4</title>
<path fill="none" stroke="midnightblue" d="M65.45,-112.08C70.01,-104.61 76.67,-93.72 82.29,-84.52"/>
<polygon fill="midnightblue" stroke="midnightblue" points="85.42,-86.11 87.65,-75.75 79.45,-82.46 85.42,-86.11"/>
</g>
<!-- Node4&#45;&gt;Node3 -->
<g id="edge4" class="edge">
<title>Node4&#45;&gt;Node3</title>
<path fill="none" stroke="midnightblue" d="M87.55,-56.08C82.99,-48.61 76.33,-37.72 70.71,-28.52"/>
<polygon fill="midnightblue" stroke="midnightblue" points="73.55,-26.46 65.35,-19.75 67.58,-30.11 73.55,-26.46"/>
</g>
</g>
</svg>
