<?xml version="1.0" encoding="UTF-8" standalone="no"?>
<!DOCTYPE svg PUBLIC "-//W3C//DTD SVG 1.1//EN"
 "http://www.w3.org/Graphics/SVG/1.1/DTD/svg11.dtd">
<!-- Generated by graphviz version 2.40.1 (20161225.0304)
 -->
<!-- Title: sys/include/universal_address.h Pages: 1 -->
<svg width="333pt" height="263pt"
 viewBox="0.00 0.00 332.50 263.00" xmlns="http://www.w3.org/2000/svg" xmlns:xlink="http://www.w3.org/1999/xlink">
<g id="graph0" class="graph" transform="scale(1 1) rotate(0) translate(4 259)">
<title>sys/include/universal_address.h</title>
<!-- Node0 -->
<g id="node1" class="node">
<title>Node0</title>
<polygon fill="#bfbfbf" stroke="#000000" points="0,-224.5 0,-254.5 108,-254.5 108,-224.5 0,-224.5"/>
<text text-anchor="start" x="8" y="-242.5" font-family="Helvetica,sans-Serif" font-size="10.00" fill="#000000">sys/include/universal</text>
<text text-anchor="middle" x="54" y="-231.5" font-family="Helvetica,sans-Serif" font-size="10.00" fill="#000000">_address.h</text>
</g>
<!-- Node1 -->
<g id="node2" class="node">
<title>Node1</title>
<polygon fill="none" stroke="#bfbfbf" points="86.5,-.5 86.5,-19.5 135.5,-19.5 135.5,-.5 86.5,-.5"/>
<text text-anchor="middle" x="111" y="-7.5" font-family="Helvetica,sans-Serif" font-size="10.00" fill="#000000">stdint.h</text>
</g>
<!-- Node0&#45;&gt;Node1 -->
<g id="edge1" class="edge">
<title>Node0&#45;&gt;Node1</title>
<path fill="none" stroke="#191970" d="M41.215,-224.3739C33.8227,-214.6537 25.1796,-201.3795 21,-188 10.9248,-155.7476 6.8774,-143.54 19,-112 33.035,-75.4844 66.8596,-43.8839 89.3487,-25.8932"/>
<polygon fill="#191970" stroke="#191970" points="91.5956,-28.5799 97.348,-19.6826 87.3027,-23.0507 91.5956,-28.5799"/>
</g>
<!-- Node2 -->
<g id="node3" class="node">
<title>Node2</title>
<g id="a_node3"><a xlink:href="stdlib_8h.html" target="_top" xlink:title="stdlib.h wrapper for MSP430 ">
<polygon fill="none" stroke="#000000" points="30,-168.5 30,-187.5 78,-187.5 78,-168.5 30,-168.5"/>
<text text-anchor="middle" x="54" y="-175.5" font-family="Helvetica,sans-Serif" font-size="10.00" fill="#000000">stdlib.h</text>
</a>
</g>
</g>
<!-- Node0&#45;&gt;Node2 -->
<g id="edge2" class="edge">
<title>Node0&#45;&gt;Node2</title>
<path fill="none" stroke="#191970" d="M54,-224.2977C54,-216.3834 54,-206.6043 54,-198.0759"/>
<polygon fill="#191970" stroke="#191970" points="57.5001,-197.8469 54,-187.8469 50.5001,-197.847 57.5001,-197.8469"/>
</g>
<!-- Node4 -->
<g id="node5" class="node">
<title>Node4</title>
<g id="a_node5"><a xlink:href="ipv6_2addr_8h.html" target="_top" xlink:title="Definitions for IPv6 addresses. ">
<polygon fill="none" stroke="#000000" points="137.5,-168.5 137.5,-187.5 218.5,-187.5 218.5,-168.5 137.5,-168.5"/>
<text text-anchor="middle" x="178" y="-175.5" font-family="Helvetica,sans-Serif" font-size="10.00" fill="#000000">net/ipv6/addr.h</text>
</a>
</g>
</g>
<!-- Node0&#45;&gt;Node4 -->
<g id="edge5" class="edge">
<title>Node0&#45;&gt;Node4</title>
<path fill="none" stroke="#191970" d="M84.3338,-224.4554C104.2976,-214.554 130.249,-201.683 149.7715,-192.0004"/>
<polygon fill="#191970" stroke="#191970" points="151.3809,-195.1091 158.7844,-187.5303 148.2706,-188.838 151.3809,-195.1091"/>
</g>
<!-- Node3 -->
<g id="node4" class="node">
<title>Node3</title>
<g id="a_node4"><a xlink:href="malloc_8h.html" target="_top" xlink:title="malloc.h">
<polygon fill="none" stroke="#000000" points="27.5,-112.5 27.5,-131.5 80.5,-131.5 80.5,-112.5 27.5,-112.5"/>
<text text-anchor="middle" x="54" y="-119.5" font-family="Helvetica,sans-Serif" font-size="10.00" fill="#000000">malloc.h</text>
</a>
</g>
</g>
<!-- Node2&#45;&gt;Node3 -->
<g id="edge3" class="edge">
<title>Node2&#45;&gt;Node3</title>
<path fill="none" stroke="#191970" d="M48.7332,-168.2455C47.3221,-160.9382 46.9179,-150.6944 47.5205,-141.7046"/>
<polygon fill="#191970" stroke="#191970" points="51.0111,-141.9945 48.7549,-131.6427 44.0632,-141.1421 51.0111,-141.9945"/>
</g>
<!-- Node3&#45;&gt;Node2 -->
<g id="edge4" class="edge">
<title>Node3&#45;&gt;Node2</title>
<path fill="none" stroke="#191970" d="M59.2451,-131.6427C60.6665,-138.9199 61.081,-149.155 60.4887,-158.1575"/>
<polygon fill="#191970" stroke="#191970" points="56.9947,-157.8972 59.2668,-168.2455 63.9439,-158.739 56.9947,-157.8972"/>
</g>
<!-- Node5 -->
<g id="node6" class="node">
<title>Node5</title>
<polygon fill="none" stroke="#bfbfbf" points="212,-56.5 212,-75.5 268,-75.5 268,-56.5 212,-56.5"/>
<text text-anchor="middle" x="240" y="-63.5" font-family="Helvetica,sans-Serif" font-size="10.00" fill="#000000">stdbool.h</text>
</g>
<!-- Node4&#45;&gt;Node5 -->
<g id="edge6" class="edge">
<title>Node4&#45;&gt;Node5</title>
<path fill="none" stroke="#191970" d="M193.1594,-168.1748C204.5972,-159.925 219.6917,-147.0845 228,-132 235.8135,-117.814 238.6792,-99.5647 239.6668,-85.8526"/>
<polygon fill="#191970" stroke="#191970" points="243.1754,-85.7358 240.1222,-75.5904 236.1823,-85.4254 243.1754,-85.7358"/>
</g>
<!-- Node6 -->
<g id="node7" class="node">
<title>Node6</title>
<polygon fill="none" stroke="#bfbfbf" points="275.5,-112.5 275.5,-131.5 324.5,-131.5 324.5,-112.5 275.5,-112.5"/>
<text text-anchor="middle" x="300" y="-119.5" font-family="Helvetica,sans-Serif" font-size="10.00" fill="#000000">string.h</text>
</g>
<!-- Node4&#45;&gt;Node6 -->
<g id="edge7" class="edge">
<title>Node4&#45;&gt;Node6</title>
<path fill="none" stroke="#191970" d="M198.9725,-168.3733C218.5567,-159.3838 247.9961,-145.8706 270.051,-135.7471"/>
<polygon fill="#191970" stroke="#191970" points="271.6729,-138.8538 279.3011,-131.5011 268.7527,-132.4919 271.6729,-138.8538"/>
</g>
<!-- Node7 -->
<g id="node8" class="node">
<title>Node7</title>
<g id="a_node8"><a xlink:href="byteorder_8h.html" target="_top" xlink:title="Functions to work with different byte orders. ">
<polygon fill="none" stroke="#000000" points="78.5,-56.5 78.5,-75.5 143.5,-75.5 143.5,-56.5 78.5,-56.5"/>
<text text-anchor="middle" x="111" y="-63.5" font-family="Helvetica,sans-Serif" font-size="10.00" fill="#000000">byteorder.h</text>
</a>
</g>
</g>
<!-- Node4&#45;&gt;Node7 -->
<g id="edge8" class="edge">
<title>Node4&#45;&gt;Node7</title>
<path fill="none" stroke="#191970" d="M163.9488,-168.2476C152.8886,-159.8598 137.9024,-146.7974 129,-132 120.4856,-117.8476 115.91,-99.5954 113.5065,-85.8737"/>
<polygon fill="#191970" stroke="#191970" points="116.9099,-84.9696 111.9595,-75.6024 109.9879,-86.0122 116.9099,-84.9696"/>
</g>
<!-- Node8 -->
<g id="node9" class="node">
<title>Node8</title>
<g id="a_node9"><a xlink:href="ipv4_2addr_8h.html" target="_top" xlink:title="IPv6 address type and helper functions definitions. ">
<polygon fill="none" stroke="#000000" points="137.5,-112.5 137.5,-131.5 218.5,-131.5 218.5,-112.5 137.5,-112.5"/>
<text text-anchor="middle" x="178" y="-119.5" font-family="Helvetica,sans-Serif" font-size="10.00" fill="#000000">net/ipv4/addr.h</text>
</a>
</g>
</g>
<!-- Node4&#45;&gt;Node8 -->
<g id="edge10" class="edge">
<title>Node4&#45;&gt;Node8</title>
<path fill="none" stroke="#191970" d="M178,-168.2455C178,-160.9382 178,-150.6944 178,-141.7046"/>
<polygon fill="#191970" stroke="#191970" points="181.5001,-141.6426 178,-131.6427 174.5001,-141.6427 181.5001,-141.6426"/>
</g>
<!-- Node7&#45;&gt;Node1 -->
<g id="edge9" class="edge">
<title>Node7&#45;&gt;Node1</title>
<path fill="none" stroke="#191970" d="M111,-56.2455C111,-48.9382 111,-38.6944 111,-29.7046"/>
<polygon fill="#191970" stroke="#191970" points="114.5001,-29.6426 111,-19.6427 107.5001,-29.6427 114.5001,-29.6426"/>
</g>
<!-- Node8&#45;&gt;Node1 -->
<g id="edge12" class="edge">
<title>Node8&#45;&gt;Node1</title>
<path fill="none" stroke="#191970" d="M175.5095,-112.0751C171.8731,-98.6784 164.2907,-74.373 153,-56 146.4782,-45.3872 137.3222,-35.0119 129.2229,-26.809"/>
<polygon fill="#191970" stroke="#191970" points="131.506,-24.1467 121.9019,-19.6732 126.62,-29.1595 131.506,-24.1467"/>
</g>
<!-- Node8&#45;&gt;Node5 -->
<g id="edge11" class="edge">
<title>Node8&#45;&gt;Node5</title>
<path fill="none" stroke="#191970" d="M188.7996,-112.2455C197.8678,-104.0549 211.0206,-92.1749 221.7245,-82.5069"/>
<polygon fill="#191970" stroke="#191970" points="224.2491,-84.9429 229.3242,-75.6427 219.5571,-79.7482 224.2491,-84.9429"/>
</g>
<!-- Node8&#45;&gt;Node7 -->
<g id="edge13" class="edge">
<title>Node8&#45;&gt;Node7</title>
<path fill="none" stroke="#191970" d="M166.3295,-112.2455C156.4339,-103.9746 142.0373,-91.9416 130.4099,-82.2232"/>
<polygon fill="#191970" stroke="#191970" points="132.4542,-79.3703 122.5368,-75.6427 127.965,-84.7413 132.4542,-79.3703"/>
</g>
</g>
</svg>
