<?xml version="1.0" encoding="UTF-8" standalone="no"?>
<!DOCTYPE svg PUBLIC "-//W3C//DTD SVG 1.1//EN"
 "http://www.w3.org/Graphics/SVG/1.1/DTD/svg11.dtd">
<!-- Generated by graphviz version 2.40.1 (20161225.0304)
 -->
<!-- Title: sys/include/usb.h Pages: 1 -->
<svg width="709pt" height="296pt"
 viewBox="0.00 0.00 708.50 296.00" xmlns="http://www.w3.org/2000/svg" xmlns:xlink="http://www.w3.org/1999/xlink">
<g id="graph0" class="graph" transform="scale(1 1) rotate(0) translate(4 292)">
<title>sys/include/usb.h</title>
<!-- Node2 -->
<g id="node1" class="node">
<title>Node2</title>
<polygon fill="#bfbfbf" stroke="#000000" points="465,-268.5 465,-287.5 558,-287.5 558,-268.5 465,-268.5"/>
<text text-anchor="middle" x="511.5" y="-275.5" font-family="Helvetica,sans-Serif" font-size="10.00" fill="#000000">sys/include/usb.h</text>
</g>
<!-- Node3 -->
<g id="node2" class="node">
<title>Node3</title>
<g id="a_node2"><a xlink:href="usbdev_8h.html" target="_top" xlink:title="Definitions low&#45;level USB driver interface. ">
<polygon fill="none" stroke="#000000" points="310,-201.5 310,-231.5 419,-231.5 419,-201.5 310,-201.5"/>
<text text-anchor="start" x="318" y="-219.5" font-family="Helvetica,sans-Serif" font-size="10.00" fill="#000000">drivers/include/periph</text>
<text text-anchor="middle" x="364.5" y="-208.5" font-family="Helvetica,sans-Serif" font-size="10.00" fill="#000000">/usbdev.h</text>
</a>
</g>
</g>
<!-- Node2&#45;&gt;Node3 -->
<g id="edge1" class="edge">
<title>Node2&#45;&gt;Node3</title>
<path fill="none" stroke="#191970" d="M479.1038,-264.4465C455.8452,-254.7159 424.493,-241.5991 400.4602,-231.5446"/>
<polygon fill="#191970" stroke="#191970" points="477.9552,-267.7599 488.5313,-268.3906 480.6569,-261.3022 477.9552,-267.7599"/>
</g>
<!-- Node7 -->
<g id="node6" class="node">
<title>Node7</title>
<g id="a_node6"><a xlink:href="usbus_8h.html" target="_top" xlink:title="USBUS basic interface. ">
<polygon fill="none" stroke="#000000" points="450.5,-140 450.5,-159 572.5,-159 572.5,-140 450.5,-140"/>
<text text-anchor="middle" x="511.5" y="-147" font-family="Helvetica,sans-Serif" font-size="10.00" fill="#000000">sys/include/usb/usbus.h</text>
</a>
</g>
</g>
<!-- Node2&#45;&gt;Node7 -->
<g id="edge14" class="edge">
<title>Node2&#45;&gt;Node7</title>
<path fill="none" stroke="#191970" d="M511.5,-258.1733C511.5,-230.2236 511.5,-180.3037 511.5,-159.2705"/>
<polygon fill="#191970" stroke="#191970" points="508.0001,-258.3416 511.5,-268.3416 515.0001,-258.3416 508.0001,-258.3416"/>
</g>
<!-- Node13 -->
<g id="node12" class="node">
<title>Node13</title>
<g id="a_node12"><a xlink:href="cdc_8h.html" target="_top" xlink:title="Definition for USB CDC interfaces. ">
<polygon fill="none" stroke="#000000" points="563.5,-207 563.5,-226 675.5,-226 675.5,-207 563.5,-207"/>
<text text-anchor="middle" x="619.5" y="-214" font-family="Helvetica,sans-Serif" font-size="10.00" fill="#000000">sys/include/usb/cdc.h</text>
</a>
</g>
</g>
<!-- Node2&#45;&gt;Node13 -->
<g id="edge12" class="edge">
<title>Node2&#45;&gt;Node13</title>
<path fill="none" stroke="#191970" d="M537.1127,-263.415C557.4139,-251.8546 585.1946,-236.035 602.7435,-226.0419"/>
<polygon fill="#191970" stroke="#191970" points="535.3329,-260.4007 528.375,-268.3906 538.7968,-266.4836 535.3329,-260.4007"/>
</g>
<!-- Node4 -->
<g id="node3" class="node">
<title>Node4</title>
<g id="a_node3"><a xlink:href="nrfusb_8h.html" target="_top" xlink:title="USB interface functions for the nrf52840 class devices. ">
<polygon fill="none" stroke="#000000" points="149,-140 149,-159 278,-159 278,-140 149,-140"/>
<text text-anchor="middle" x="213.5" y="-147" font-family="Helvetica,sans-Serif" font-size="10.00" fill="#000000">cpu/nrf52/include/nrfusb.h</text>
</a>
</g>
</g>
<!-- Node3&#45;&gt;Node4 -->
<g id="edge2" class="edge">
<title>Node3&#45;&gt;Node4</title>
<path fill="none" stroke="#191970" d="M321.3665,-197.3613C293.175,-184.8525 257.5568,-169.0484 235.1447,-159.1039"/>
<polygon fill="#191970" stroke="#191970" points="320.0525,-200.6073 330.6127,-201.4639 322.8916,-194.2088 320.0525,-200.6073"/>
</g>
<!-- Node5 -->
<g id="node4" class="node">
<title>Node5</title>
<g id="a_node4"><a xlink:href="sam__usb_8h.html" target="_top" xlink:title="USB interface functions for the sam0 class devices. ">
<polygon fill="none" stroke="#000000" points="296.5,-134.5 296.5,-164.5 432.5,-164.5 432.5,-134.5 296.5,-134.5"/>
<text text-anchor="start" x="304.5" y="-152.5" font-family="Helvetica,sans-Serif" font-size="10.00" fill="#000000">cpu/sam0_common/include</text>
<text text-anchor="middle" x="364.5" y="-141.5" font-family="Helvetica,sans-Serif" font-size="10.00" fill="#000000">/sam_usb.h</text>
</a>
</g>
</g>
<!-- Node3&#45;&gt;Node5 -->
<g id="edge3" class="edge">
<title>Node3&#45;&gt;Node5</title>
<path fill="none" stroke="#191970" d="M364.5,-191.0249C364.5,-182.128 364.5,-172.4287 364.5,-164.6432"/>
<polygon fill="#191970" stroke="#191970" points="361.0001,-191.2966 364.5,-201.2967 368.0001,-191.2967 361.0001,-191.2966"/>
</g>
<!-- Node6 -->
<g id="node5" class="node">
<title>Node6</title>
<g id="a_node5"><a xlink:href="usbdev__stm32_8h.html" target="_top" xlink:title="USB interface functions for the stm32 OTG FS/HS class devices. ">
<polygon fill="none" stroke="#000000" points="0,-134.5 0,-164.5 131,-164.5 131,-134.5 0,-134.5"/>
<text text-anchor="start" x="8" y="-152.5" font-family="Helvetica,sans-Serif" font-size="10.00" fill="#000000">cpu/stm32/include/usbdev</text>
<text text-anchor="middle" x="65.5" y="-141.5" font-family="Helvetica,sans-Serif" font-size="10.00" fill="#000000">_stm32.h</text>
</a>
</g>
</g>
<!-- Node3&#45;&gt;Node6 -->
<g id="edge4" class="edge">
<title>Node3&#45;&gt;Node6</title>
<path fill="none" stroke="#191970" d="M299.6373,-201.9655C249.8013,-190.7983 181.252,-175.4377 131.2064,-164.2235"/>
<polygon fill="#191970" stroke="#191970" points="299.1354,-205.4398 309.6588,-204.2112 300.6661,-198.6092 299.1354,-205.4398"/>
</g>
<!-- Node3&#45;&gt;Node7 -->
<g id="edge5" class="edge">
<title>Node3&#45;&gt;Node7</title>
<path fill="none" stroke="#191970" d="M406.8492,-197.198C434.2369,-184.7152 468.7051,-169.0051 490.4287,-159.1039"/>
<polygon fill="#191970" stroke="#191970" points="405.1375,-194.1317 397.4897,-201.4639 408.0407,-200.5013 405.1375,-194.1317"/>
</g>
<!-- Node8 -->
<g id="node7" class="node">
<title>Node8</title>
<g id="a_node7"><a xlink:href="acm_8h.html" target="_top" xlink:title="Interface and definitions for USB CDC ACM type interfaces in USBUS. ">
<polygon fill="none" stroke="#000000" points="586.5,-67.5 586.5,-97.5 700.5,-97.5 700.5,-67.5 586.5,-67.5"/>
<text text-anchor="start" x="594.5" y="-85.5" font-family="Helvetica,sans-Serif" font-size="10.00" fill="#000000">sys/include/usb/usbus</text>
<text text-anchor="middle" x="643.5" y="-74.5" font-family="Helvetica,sans-Serif" font-size="10.00" fill="#000000">/cdc/acm.h</text>
</a>
</g>
</g>
<!-- Node7&#45;&gt;Node8 -->
<g id="edge6" class="edge">
<title>Node7&#45;&gt;Node8</title>
<path fill="none" stroke="#191970" d="M539.5087,-135.2834C561.3661,-124.1892 591.6528,-108.8164 613.9049,-97.5218"/>
<polygon fill="#191970" stroke="#191970" points="537.7453,-132.2534 530.4124,-139.9005 540.9136,-138.4954 537.7453,-132.2534"/>
</g>
<!-- Node10 -->
<g id="node9" class="node">
<title>Node10</title>
<g id="a_node9"><a xlink:href="ecm_8h.html" target="_top" xlink:title="Interface and definitions for USB CDC ECM type interfaces. ">
<polygon fill="none" stroke="#000000" points="280.5,-.5 280.5,-30.5 394.5,-30.5 394.5,-.5 280.5,-.5"/>
<text text-anchor="start" x="288.5" y="-18.5" font-family="Helvetica,sans-Serif" font-size="10.00" fill="#000000">sys/include/usb/usbus</text>
<text text-anchor="middle" x="337.5" y="-7.5" font-family="Helvetica,sans-Serif" font-size="10.00" fill="#000000">/cdc/ecm.h</text>
</a>
</g>
</g>
<!-- Node7&#45;&gt;Node10 -->
<g id="edge8" class="edge">
<title>Node7&#45;&gt;Node10</title>
<path fill="none" stroke="#191970" d="M459.4099,-137.6115C402.2975,-124.3305 318.073,-103.9146 313.5,-98 298.0804,-78.0566 313.4788,-48.4907 325.7258,-30.6985"/>
<polygon fill="#191970" stroke="#191970" points="458.8489,-141.0742 469.3809,-139.9219 460.429,-134.2549 458.8489,-141.0742"/>
</g>
<!-- Node11 -->
<g id="node10" class="node">
<title>Node11</title>
<g id="a_node10"><a xlink:href="control_8h.html" target="_top" xlink:title="USBUS control endpoint module. ">
<polygon fill="none" stroke="#000000" points="322.5,-67.5 322.5,-97.5 436.5,-97.5 436.5,-67.5 322.5,-67.5"/>
<text text-anchor="start" x="330.5" y="-85.5" font-family="Helvetica,sans-Serif" font-size="10.00" fill="#000000">sys/include/usb/usbus</text>
<text text-anchor="middle" x="379.5" y="-74.5" font-family="Helvetica,sans-Serif" font-size="10.00" fill="#000000">/control.h</text>
</a>
</g>
</g>
<!-- Node7&#45;&gt;Node11 -->
<g id="edge9" class="edge">
<title>Node7&#45;&gt;Node11</title>
<path fill="none" stroke="#191970" d="M483.4913,-135.2834C461.6339,-124.1892 431.3472,-108.8164 409.0951,-97.5218"/>
<polygon fill="#191970" stroke="#191970" points="482.0864,-138.4954 492.5876,-139.9005 485.2547,-132.2534 482.0864,-138.4954"/>
</g>
<!-- Node12 -->
<g id="node11" class="node">
<title>Node12</title>
<g id="a_node11"><a xlink:href="usb_2usbus_2fmt_8h.html" target="_top" xlink:title="USBUS descriptor formatter functions. ">
<polygon fill="none" stroke="#000000" points="454.5,-67.5 454.5,-97.5 568.5,-97.5 568.5,-67.5 454.5,-67.5"/>
<text text-anchor="start" x="462.5" y="-85.5" font-family="Helvetica,sans-Serif" font-size="10.00" fill="#000000">sys/include/usb/usbus</text>
<text text-anchor="middle" x="511.5" y="-74.5" font-family="Helvetica,sans-Serif" font-size="10.00" fill="#000000">/fmt.h</text>
</a>
</g>
</g>
<!-- Node7&#45;&gt;Node12 -->
<g id="edge11" class="edge">
<title>Node7&#45;&gt;Node12</title>
<path fill="none" stroke="#191970" d="M511.5,-129.7758C511.5,-119.4641 511.5,-107.0437 511.5,-97.5218"/>
<polygon fill="#191970" stroke="#191970" points="508.0001,-129.9005 511.5,-139.9005 515.0001,-129.9006 508.0001,-129.9005"/>
</g>
<!-- Node9 -->
<g id="node8" class="node">
<title>Node9</title>
<g id="a_node8"><a xlink:href="usb__board__reset__internal_8h.html" target="_top" xlink:title="sys/include/usb_board\l_reset_internal.h">
<polygon fill="none" stroke="#000000" points="586.5,-.5 586.5,-30.5 700.5,-30.5 700.5,-.5 586.5,-.5"/>
<text text-anchor="start" x="594.5" y="-18.5" font-family="Helvetica,sans-Serif" font-size="10.00" fill="#000000">sys/include/usb_board</text>
<text text-anchor="middle" x="643.5" y="-7.5" font-family="Helvetica,sans-Serif" font-size="10.00" fill="#000000">_reset_internal.h</text>
</a>
</g>
</g>
<!-- Node8&#45;&gt;Node9 -->
<g id="edge7" class="edge">
<title>Node8&#45;&gt;Node9</title>
<path fill="none" stroke="#191970" d="M643.5,-57.0249C643.5,-48.128 643.5,-38.4287 643.5,-30.6432"/>
<polygon fill="#191970" stroke="#191970" points="640.0001,-57.2966 643.5,-67.2967 647.0001,-57.2967 640.0001,-57.2966"/>
</g>
<!-- Node11&#45;&gt;Node10 -->
<g id="edge10" class="edge">
<title>Node11&#45;&gt;Node10</title>
<path fill="none" stroke="#191970" d="M364.6267,-58.7735C358.7604,-49.4154 352.195,-38.9421 346.9927,-30.6432"/>
<polygon fill="#191970" stroke="#191970" points="361.6926,-60.6828 369.9695,-67.2967 367.6237,-56.9648 361.6926,-60.6828"/>
</g>
<!-- Node13&#45;&gt;Node8 -->
<g id="edge13" class="edge">
<title>Node13&#45;&gt;Node8</title>
<path fill="none" stroke="#191970" d="M623.0477,-196.6918C627.8838,-169.6902 636.4406,-121.915 640.7935,-97.611"/>
<polygon fill="#191970" stroke="#191970" points="619.5439,-196.4026 621.226,-206.8631 626.4343,-197.6368 619.5439,-196.4026"/>
</g>
</g>
</svg>
