<?xml version="1.0" encoding="UTF-8" standalone="no"?>
<!DOCTYPE svg PUBLIC "-//W3C//DTD SVG 1.1//EN"
 "http://www.w3.org/Graphics/SVG/1.1/DTD/svg11.dtd">
<!-- Generated by graphviz version 2.43.0 (0)
 -->
<!-- Title: sys/include/usb.h Pages: 1 -->
<svg width="770pt" height="296pt"
 viewBox="0.00 0.00 769.50 296.00" xmlns="http://www.w3.org/2000/svg" xmlns:xlink="http://www.w3.org/1999/xlink">
<g id="graph0" class="graph" transform="scale(1 1) rotate(0) translate(4 292)">
<title>sys/include/usb.h</title>
<!-- Node1 -->
<g id="node1" class="node">
<title>Node1</title>
<g id="a_node1"><a xlink:title="Definition of global compile time configuration options.">
<polygon fill="#bfbfbf" stroke="black" points="507.5,-268.5 507.5,-287.5 608.5,-287.5 608.5,-268.5 507.5,-268.5"/>
<text text-anchor="middle" x="558" y="-275.5" font-family="Helvetica,sans-Serif" font-size="10.00">sys/include/usb.h</text>
</a>
</g>
</g>
<!-- Node2 -->
<g id="node2" class="node">
<title>Node2</title>
<g id="a_node2"><a xlink:href="usbdev_8h.html" target="_top" xlink:title="Definitions low&#45;level USB driver interface.">
<polygon fill="none" stroke="black" points="338,-201.5 338,-231.5 460,-231.5 460,-201.5 338,-201.5"/>
<text text-anchor="start" x="346" y="-219.5" font-family="Helvetica,sans-Serif" font-size="10.00">drivers/include/periph</text>
<text text-anchor="middle" x="399" y="-208.5" font-family="Helvetica,sans-Serif" font-size="10.00">/usbdev.h</text>
</a>
</g>
</g>
<!-- Node1&#45;&gt;Node2 -->
<g id="edge1" class="edge">
<title>Node1&#45;&gt;Node2</title>
<path fill="none" stroke="midnightblue" d="M525.53,-264.85C499.7,-255.18 463.53,-241.65 436.47,-231.52"/>
<polygon fill="midnightblue" stroke="midnightblue" points="524.63,-268.25 535.22,-268.48 527.08,-261.69 524.63,-268.25"/>
</g>
<!-- Node6 -->
<g id="node6" class="node">
<title>Node6</title>
<g id="a_node6"><a xlink:href="usbus_8h.html" target="_top" xlink:title="USBUS basic interface.">
<polygon fill="none" stroke="black" points="492,-140 492,-159 624,-159 624,-140 492,-140"/>
<text text-anchor="middle" x="558" y="-147" font-family="Helvetica,sans-Serif" font-size="10.00">sys/include/usb/usbus.h</text>
</a>
</g>
</g>
<!-- Node1&#45;&gt;Node6 -->
<g id="edge14" class="edge">
<title>Node1&#45;&gt;Node6</title>
<path fill="none" stroke="midnightblue" d="M558,-257.94C558,-230.12 558,-179.54 558,-159.26"/>
<polygon fill="midnightblue" stroke="midnightblue" points="554.5,-258.31 558,-268.31 561.5,-258.31 554.5,-258.31"/>
</g>
<!-- Node12 -->
<g id="node12" class="node">
<title>Node12</title>
<g id="a_node12"><a xlink:href="cdc_8h.html" target="_top" xlink:title="Definition for USB CDC interfaces.">
<polygon fill="none" stroke="black" points="612,-207 612,-226 732,-226 732,-207 612,-207"/>
<text text-anchor="middle" x="672" y="-214" font-family="Helvetica,sans-Serif" font-size="10.00">sys/include/usb/cdc.h</text>
</a>
</g>
</g>
<!-- Node1&#45;&gt;Node12 -->
<g id="edge12" class="edge">
<title>Node1&#45;&gt;Node12</title>
<path fill="none" stroke="midnightblue" d="M583.46,-263.71C605.54,-252.19 636.83,-235.86 655.7,-226.01"/>
<polygon fill="midnightblue" stroke="midnightblue" points="581.58,-260.75 574.33,-268.48 584.82,-266.95 581.58,-260.75"/>
</g>
<!-- Node3 -->
<g id="node3" class="node">
<title>Node3</title>
<g id="a_node3"><a xlink:href="nrfusb_8h.html" target="_top" xlink:title="USB interface functions for the nrf52840 class devices.">
<polygon fill="none" stroke="black" points="162.5,-140 162.5,-159 305.5,-159 305.5,-140 162.5,-140"/>
<text text-anchor="middle" x="234" y="-147" font-family="Helvetica,sans-Serif" font-size="10.00">cpu/nrf52/include/nrfusb.h</text>
</a>
</g>
</g>
<!-- Node2&#45;&gt;Node3 -->
<g id="edge2" class="edge">
<title>Node2&#45;&gt;Node3</title>
<path fill="none" stroke="midnightblue" d="M353.62,-197.62C321.68,-185.04 280.37,-168.77 255.59,-159.01"/>
<polygon fill="midnightblue" stroke="midnightblue" points="352.61,-200.99 363.2,-201.4 355.18,-194.47 352.61,-200.99"/>
</g>
<!-- Node4 -->
<g id="node4" class="node">
<title>Node4</title>
<g id="a_node4"><a xlink:href="sam__usb_8h.html" target="_top" xlink:title="USB interface functions for the sam0 class devices.">
<polygon fill="none" stroke="black" points="324,-134.5 324,-164.5 474,-164.5 474,-134.5 324,-134.5"/>
<text text-anchor="start" x="332" y="-152.5" font-family="Helvetica,sans-Serif" font-size="10.00">cpu/sam0_common/include</text>
<text text-anchor="middle" x="399" y="-141.5" font-family="Helvetica,sans-Serif" font-size="10.00">/sam_usb.h</text>
</a>
</g>
</g>
<!-- Node2&#45;&gt;Node4 -->
<g id="edge3" class="edge">
<title>Node2&#45;&gt;Node4</title>
<path fill="none" stroke="midnightblue" d="M399,-191.11C399,-182.15 399,-172.32 399,-164.58"/>
<polygon fill="midnightblue" stroke="midnightblue" points="395.5,-191.4 399,-201.4 402.5,-191.4 395.5,-191.4"/>
</g>
<!-- Node5 -->
<g id="node5" class="node">
<title>Node5</title>
<g id="a_node5"><a xlink:href="usbdev__stm32_8h.html" target="_top" xlink:title="USB interface functions for the stm32 OTG FS/HS class devices.">
<polygon fill="none" stroke="black" points="0,-134.5 0,-164.5 144,-164.5 144,-134.5 0,-134.5"/>
<text text-anchor="start" x="8" y="-152.5" font-family="Helvetica,sans-Serif" font-size="10.00">cpu/stm32/include/usbdev</text>
<text text-anchor="middle" x="72" y="-141.5" font-family="Helvetica,sans-Serif" font-size="10.00">_stm32.h</text>
</a>
</g>
</g>
<!-- Node2&#45;&gt;Node5 -->
<g id="edge4" class="edge">
<title>Node2&#45;&gt;Node5</title>
<path fill="none" stroke="midnightblue" d="M327.87,-201.36C272.92,-190.44 197.26,-175.4 142.48,-164.51"/>
<polygon fill="midnightblue" stroke="midnightblue" points="327.39,-204.83 337.88,-203.35 328.75,-197.97 327.39,-204.83"/>
</g>
<!-- Node2&#45;&gt;Node6 -->
<g id="edge5" class="edge">
<title>Node2&#45;&gt;Node6</title>
<path fill="none" stroke="midnightblue" d="M443.13,-197.46C473.85,-184.9 513.42,-168.72 537.19,-159.01"/>
<polygon fill="midnightblue" stroke="midnightblue" points="441.43,-194.37 433.5,-201.4 444.08,-200.85 441.43,-194.37"/>
</g>
<!-- Node7 -->
<g id="node7" class="node">
<title>Node7</title>
<g id="a_node7"><a xlink:href="acm_8h.html" target="_top" xlink:title="Interface and definitions for USB CDC ACM type interfaces in USBUS.">
<polygon fill="none" stroke="black" points="637.5,-67.5 637.5,-97.5 760.5,-97.5 760.5,-67.5 637.5,-67.5"/>
<text text-anchor="start" x="645.5" y="-85.5" font-family="Helvetica,sans-Serif" font-size="10.00">sys/include/usb/usbus</text>
<text text-anchor="middle" x="699" y="-74.5" font-family="Helvetica,sans-Serif" font-size="10.00">/cdc/acm.h</text>
</a>
</g>
</g>
<!-- Node6&#45;&gt;Node7 -->
<g id="edge6" class="edge">
<title>Node6&#45;&gt;Node7</title>
<path fill="none" stroke="midnightblue" d="M585.94,-135.62C609.79,-124.63 644.03,-108.84 668.57,-97.53"/>
<polygon fill="midnightblue" stroke="midnightblue" points="584.34,-132.5 576.72,-139.87 587.27,-138.86 584.34,-132.5"/>
</g>
<!-- Node9 -->
<g id="node9" class="node">
<title>Node9</title>
<g id="a_node9"><a xlink:href="ecm_8h.html" target="_top" xlink:title="Interface and definitions for USB CDC ECM type interfaces.">
<polygon fill="none" stroke="black" points="310.5,-0.5 310.5,-30.5 433.5,-30.5 433.5,-0.5 310.5,-0.5"/>
<text text-anchor="start" x="318.5" y="-18.5" font-family="Helvetica,sans-Serif" font-size="10.00">sys/include/usb/usbus</text>
<text text-anchor="middle" x="372" y="-7.5" font-family="Helvetica,sans-Serif" font-size="10.00">/cdc/ecm.h</text>
</a>
</g>
</g>
<!-- Node6&#45;&gt;Node9 -->
<g id="edge8" class="edge">
<title>Node6&#45;&gt;Node9</title>
<path fill="none" stroke="midnightblue" d="M506.56,-137.91C445.45,-125.08 351.05,-104.4 346,-98 330.17,-77.95 347.35,-48.05 360.33,-30.59"/>
<polygon fill="midnightblue" stroke="midnightblue" points="505.93,-141.35 516.44,-139.97 507.36,-134.5 505.93,-141.35"/>
</g>
<!-- Node10 -->
<g id="node10" class="node">
<title>Node10</title>
<g id="a_node10"><a xlink:href="control_8h.html" target="_top" xlink:title="USBUS control endpoint module.">
<polygon fill="none" stroke="black" points="355.5,-67.5 355.5,-97.5 478.5,-97.5 478.5,-67.5 355.5,-67.5"/>
<text text-anchor="start" x="363.5" y="-85.5" font-family="Helvetica,sans-Serif" font-size="10.00">sys/include/usb/usbus</text>
<text text-anchor="middle" x="417" y="-74.5" font-family="Helvetica,sans-Serif" font-size="10.00">/control.h</text>
</a>
</g>
</g>
<!-- Node6&#45;&gt;Node10 -->
<g id="edge9" class="edge">
<title>Node6&#45;&gt;Node10</title>
<path fill="none" stroke="midnightblue" d="M530.06,-135.62C506.21,-124.63 471.97,-108.84 447.43,-97.53"/>
<polygon fill="midnightblue" stroke="midnightblue" points="528.73,-138.86 539.28,-139.87 531.66,-132.5 528.73,-138.86"/>
</g>
<!-- Node11 -->
<g id="node11" class="node">
<title>Node11</title>
<g id="a_node11"><a xlink:href="usb_2usbus_2fmt_8h.html" target="_top" xlink:title="USBUS descriptor formatter functions.">
<polygon fill="none" stroke="black" points="496.5,-67.5 496.5,-97.5 619.5,-97.5 619.5,-67.5 496.5,-67.5"/>
<text text-anchor="start" x="504.5" y="-85.5" font-family="Helvetica,sans-Serif" font-size="10.00">sys/include/usb/usbus</text>
<text text-anchor="middle" x="558" y="-74.5" font-family="Helvetica,sans-Serif" font-size="10.00">/fmt.h</text>
</a>
</g>
</g>
<!-- Node6&#45;&gt;Node11 -->
<g id="edge11" class="edge">
<title>Node6&#45;&gt;Node11</title>
<path fill="none" stroke="midnightblue" d="M558,-129.41C558,-119.22 558,-106.9 558,-97.59"/>
<polygon fill="midnightblue" stroke="midnightblue" points="554.5,-129.73 558,-139.73 561.5,-129.73 554.5,-129.73"/>
</g>
<!-- Node8 -->
<g id="node8" class="node">
<title>Node8</title>
<g id="a_node8"><a xlink:href="usb__board__reset__internal_8h.html" target="_top" xlink:title=" ">
<polygon fill="none" stroke="black" points="636.5,-0.5 636.5,-30.5 761.5,-30.5 761.5,-0.5 636.5,-0.5"/>
<text text-anchor="start" x="644.5" y="-18.5" font-family="Helvetica,sans-Serif" font-size="10.00">sys/include/usb_board</text>
<text text-anchor="middle" x="699" y="-7.5" font-family="Helvetica,sans-Serif" font-size="10.00">_reset_internal.h</text>
</a>
</g>
</g>
<!-- Node7&#45;&gt;Node8 -->
<g id="edge7" class="edge">
<title>Node7&#45;&gt;Node8</title>
<path fill="none" stroke="midnightblue" d="M699,-57.11C699,-48.15 699,-38.32 699,-30.58"/>
<polygon fill="midnightblue" stroke="midnightblue" points="695.5,-57.4 699,-67.4 702.5,-57.4 695.5,-57.4"/>
</g>
<!-- Node10&#45;&gt;Node9 -->
<g id="edge10" class="edge">
<title>Node10&#45;&gt;Node9</title>
<path fill="none" stroke="midnightblue" d="M401.53,-59.16C394.97,-49.68 387.52,-38.92 381.75,-30.58"/>
<polygon fill="midnightblue" stroke="midnightblue" points="398.67,-61.17 407.24,-67.4 404.42,-57.18 398.67,-61.17"/>
</g>
<!-- Node12&#45;&gt;Node7 -->
<g id="edge13" class="edge">
<title>Node12&#45;&gt;Node7</title>
<path fill="none" stroke="midnightblue" d="M675.81,-196.89C681.26,-170.24 691.17,-121.8 696.08,-97.78"/>
<polygon fill="midnightblue" stroke="midnightblue" points="672.35,-196.34 673.77,-206.84 679.2,-197.74 672.35,-196.34"/>
</g>
</g>
</svg>
