<?xml version="1.0" encoding="UTF-8" standalone="no"?>
<!DOCTYPE svg PUBLIC "-//W3C//DTD SVG 1.1//EN"
 "http://www.w3.org/Graphics/SVG/1.1/DTD/svg11.dtd">
<!-- Generated by graphviz version 2.40.1 (20161225.0304)
 -->
<!-- Title: drivers/include/periph/usbdev.h Pages: 1 -->
<svg width="275pt" height="263pt"
 viewBox="0.00 0.00 275.00 263.00" xmlns="http://www.w3.org/2000/svg" xmlns:xlink="http://www.w3.org/1999/xlink">
<g id="graph0" class="graph" transform="scale(1 1) rotate(0) translate(4 259)">
<title>drivers/include/periph/usbdev.h</title>
<!-- Node0 -->
<g id="node1" class="node">
<title>Node0</title>
<polygon fill="#bfbfbf" stroke="#000000" points="67,-224.5 67,-254.5 176,-254.5 176,-224.5 67,-224.5"/>
<text text-anchor="start" x="75" y="-242.5" font-family="Helvetica,sans-Serif" font-size="10.00" fill="#000000">drivers/include/periph</text>
<text text-anchor="middle" x="121.5" y="-231.5" font-family="Helvetica,sans-Serif" font-size="10.00" fill="#000000">/usbdev.h</text>
</g>
<!-- Node1 -->
<g id="node2" class="node">
<title>Node1</title>
<polygon fill="none" stroke="#bfbfbf" points="0,-112.5 0,-131.5 49,-131.5 49,-112.5 0,-112.5"/>
<text text-anchor="middle" x="24.5" y="-119.5" font-family="Helvetica,sans-Serif" font-size="10.00" fill="#000000">stdint.h</text>
</g>
<!-- Node0&#45;&gt;Node1 -->
<g id="edge1" class="edge">
<title>Node0&#45;&gt;Node1</title>
<path fill="none" stroke="#191970" d="M66.9307,-227.6768C45.5398,-220.0864 23.132,-207.7861 10.5,-188 1.4719,-173.8587 6.9291,-154.8805 13.4885,-140.9048"/>
<polygon fill="#191970" stroke="#191970" points="16.7411,-142.2374 18.2683,-131.7532 10.5364,-138.9968 16.7411,-142.2374"/>
</g>
<!-- Node2 -->
<g id="node3" class="node">
<title>Node2</title>
<polygon fill="none" stroke="#bfbfbf" points="131.5,-.5 131.5,-19.5 183.5,-19.5 183.5,-.5 131.5,-.5"/>
<text text-anchor="middle" x="157.5" y="-7.5" font-family="Helvetica,sans-Serif" font-size="10.00" fill="#000000">stddef.h</text>
</g>
<!-- Node0&#45;&gt;Node2 -->
<g id="edge2" class="edge">
<title>Node0&#45;&gt;Node2</title>
<path fill="none" stroke="#191970" d="M121.7977,-224.061C122.6947,-192.2246 126.2752,-117.1419 140.5,-56 142.6162,-46.9041 146.0399,-37.1579 149.2621,-28.9886"/>
<polygon fill="#191970" stroke="#191970" points="152.536,-30.2303 153.1223,-19.6517 146.0671,-27.5558 152.536,-30.2303"/>
</g>
<!-- Node3 -->
<g id="node4" class="node">
<title>Node3</title>
<g id="a_node4"><a xlink:href="assert_8h.html" target="_top" xlink:title="POSIX.1&#45;2008 compliant version of the assert macro. ">
<polygon fill="none" stroke="#000000" points="149.5,-168.5 149.5,-187.5 201.5,-187.5 201.5,-168.5 149.5,-168.5"/>
<text text-anchor="middle" x="175.5" y="-175.5" font-family="Helvetica,sans-Serif" font-size="10.00" fill="#000000">assert.h</text>
</a>
</g>
</g>
<!-- Node0&#45;&gt;Node3 -->
<g id="edge3" class="edge">
<title>Node0&#45;&gt;Node3</title>
<path fill="none" stroke="#191970" d="M134.8483,-224.2977C142.5002,-215.5831 152.1373,-204.6075 160.1076,-195.5302"/>
<polygon fill="#191970" stroke="#191970" points="162.8859,-197.6707 166.8539,-187.8469 157.6258,-193.052 162.8859,-197.6707"/>
</g>
<!-- Node6 -->
<g id="node7" class="node">
<title>Node6</title>
<g id="a_node7"><a xlink:href="usb_8h.html" target="_top" xlink:title="Definition of global compile time configuration options. ">
<polygon fill="none" stroke="#000000" points="221,-168.5 221,-187.5 262,-187.5 262,-168.5 221,-168.5"/>
<text text-anchor="middle" x="241.5" y="-175.5" font-family="Helvetica,sans-Serif" font-size="10.00" fill="#000000">usb.h</text>
</a>
</g>
</g>
<!-- Node0&#45;&gt;Node6 -->
<g id="edge7" class="edge">
<title>Node0&#45;&gt;Node6</title>
<path fill="none" stroke="#191970" d="M150.8553,-224.4554C170.0873,-214.599 195.0612,-201.7999 213.9241,-192.1327"/>
<polygon fill="#191970" stroke="#191970" points="215.6013,-195.206 222.9043,-187.5303 212.4086,-188.9765 215.6013,-195.206"/>
</g>
<!-- Node8 -->
<g id="node9" class="node">
<title>Node8</title>
<g id="a_node9"><a xlink:href="usbopt_8h.html" target="_top" xlink:title="Definition of global USB peripheral and USB peripheral endpoint configuration options. ">
<polygon fill="none" stroke="#000000" points="20,-168.5 20,-187.5 93,-187.5 93,-168.5 20,-168.5"/>
<text text-anchor="middle" x="56.5" y="-175.5" font-family="Helvetica,sans-Serif" font-size="10.00" fill="#000000">usb/usbopt.h</text>
</a>
</g>
</g>
<!-- Node0&#45;&gt;Node8 -->
<g id="edge9" class="edge">
<title>Node0&#45;&gt;Node8</title>
<path fill="none" stroke="#191970" d="M105.4326,-224.2977C96.034,-215.4052 84.1473,-204.1586 74.443,-194.9769"/>
<polygon fill="#191970" stroke="#191970" points="76.5768,-192.1774 66.9073,-187.8469 71.7658,-197.2621 76.5768,-192.1774"/>
</g>
<!-- Node4 -->
<g id="node5" class="node">
<title>Node4</title>
<g id="a_node5"><a xlink:href="panic_8h.html" target="_top" xlink:title="Crash handling header. ">
<polygon fill="none" stroke="#000000" points="151.5,-112.5 151.5,-131.5 199.5,-131.5 199.5,-112.5 151.5,-112.5"/>
<text text-anchor="middle" x="175.5" y="-119.5" font-family="Helvetica,sans-Serif" font-size="10.00" fill="#000000">panic.h</text>
</a>
</g>
</g>
<!-- Node3&#45;&gt;Node4 -->
<g id="edge4" class="edge">
<title>Node3&#45;&gt;Node4</title>
<path fill="none" stroke="#191970" d="M175.5,-168.2455C175.5,-160.9382 175.5,-150.6944 175.5,-141.7046"/>
<polygon fill="#191970" stroke="#191970" points="179.0001,-141.6426 175.5,-131.6427 172.0001,-141.6427 179.0001,-141.6426"/>
</g>
<!-- Node5 -->
<g id="node6" class="node">
<title>Node5</title>
<g id="a_node6"><a xlink:href="kernel__defines_8h.html" target="_top" xlink:title="Common macros and compiler attributes/pragmas configuration. ">
<polygon fill="none" stroke="#000000" points="149.5,-56.5 149.5,-75.5 237.5,-75.5 237.5,-56.5 149.5,-56.5"/>
<text text-anchor="middle" x="193.5" y="-63.5" font-family="Helvetica,sans-Serif" font-size="10.00" fill="#000000">kernel_defines.h</text>
</a>
</g>
</g>
<!-- Node4&#45;&gt;Node5 -->
<g id="edge5" class="edge">
<title>Node4&#45;&gt;Node5</title>
<path fill="none" stroke="#191970" d="M178.6354,-112.2455C181.01,-104.8579 184.3493,-94.4689 187.2615,-85.4087"/>
<polygon fill="#191970" stroke="#191970" points="190.6725,-86.234 190.4006,-75.6427 184.0083,-84.0919 190.6725,-86.234"/>
</g>
<!-- Node5&#45;&gt;Node2 -->
<g id="edge6" class="edge">
<title>Node5&#45;&gt;Node2</title>
<path fill="none" stroke="#191970" d="M187.2293,-56.2455C182.2736,-48.5367 175.217,-37.5598 169.2224,-28.2348"/>
<polygon fill="#191970" stroke="#191970" points="172.0506,-26.1618 163.6989,-19.6427 166.1624,-29.9471 172.0506,-26.1618"/>
</g>
<!-- Node7 -->
<g id="node8" class="node">
<title>Node7</title>
<polygon fill="none" stroke="#bfbfbf" points="218,-112.5 218,-131.5 267,-131.5 267,-112.5 218,-112.5"/>
<text text-anchor="middle" x="242.5" y="-119.5" font-family="Helvetica,sans-Serif" font-size="10.00" fill="#000000">board.h</text>
</g>
<!-- Node6&#45;&gt;Node7 -->
<g id="edge8" class="edge">
<title>Node6&#45;&gt;Node7</title>
<path fill="none" stroke="#191970" d="M241.6742,-168.2455C241.8047,-160.9382 241.9876,-150.6944 242.1481,-141.7046"/>
<polygon fill="#191970" stroke="#191970" points="245.6486,-141.7036 242.3278,-131.6427 238.6497,-141.5786 245.6486,-141.7036"/>
</g>
<!-- Node8&#45;&gt;Node1 -->
<g id="edge10" class="edge">
<title>Node8&#45;&gt;Node1</title>
<path fill="none" stroke="#191970" d="M50.926,-168.2455C46.5669,-160.617 40.3789,-149.7881 35.0867,-140.5267"/>
<polygon fill="#191970" stroke="#191970" points="38.0104,-138.5886 30.0101,-131.6427 31.9327,-142.0616 38.0104,-138.5886"/>
</g>
</g>
</svg>
