<?xml version="1.0" encoding="UTF-8" standalone="no"?>
<!DOCTYPE svg PUBLIC "-//W3C//DTD SVG 1.1//EN"
 "http://www.w3.org/Graphics/SVG/1.1/DTD/svg11.dtd">
<!-- Generated by graphviz version 2.43.0 (0)
 -->
<!-- Title: drivers/include/periph/usbdev.h Pages: 1 -->
<svg width="813pt" height="240pt"
 viewBox="0.00 0.00 813.00 240.00" xmlns="http://www.w3.org/2000/svg" xmlns:xlink="http://www.w3.org/1999/xlink">
<g id="graph0" class="graph" transform="scale(1 1) rotate(0) translate(4 236)">
<title>drivers/include/periph/usbdev.h</title>
<!-- Node1 -->
<g id="node1" class="node">
<title>Node1</title>
<g id="a_node1"><a xlink:title="Definitions low&#45;level USB driver interface.">
<polygon fill="#bfbfbf" stroke="black" points="257.5,-201.5 257.5,-231.5 379.5,-231.5 379.5,-201.5 257.5,-201.5"/>
<text text-anchor="start" x="265.5" y="-219.5" font-family="Helvetica,sans-Serif" font-size="10.00">drivers/include/periph</text>
<text text-anchor="middle" x="318.5" y="-208.5" font-family="Helvetica,sans-Serif" font-size="10.00">/usbdev.h</text>
</a>
</g>
</g>
<!-- Node2 -->
<g id="node2" class="node">
<title>Node2</title>
<g id="a_node2"><a xlink:href="nrfusb_8h.html" target="_top" xlink:title="USB interface functions for the nrf52840 class devices.">
<polygon fill="none" stroke="black" points="0,-140 0,-159 143,-159 143,-140 0,-140"/>
<text text-anchor="middle" x="71.5" y="-147" font-family="Helvetica,sans-Serif" font-size="10.00">cpu/nrf52/include/nrfusb.h</text>
</a>
</g>
</g>
<!-- Node1&#45;&gt;Node2 -->
<g id="edge1" class="edge">
<title>Node1&#45;&gt;Node2</title>
<path fill="none" stroke="midnightblue" d="M255.46,-198.91C207.09,-186.18 142.28,-169.13 103.91,-159.03"/>
<polygon fill="midnightblue" stroke="midnightblue" points="254.65,-202.32 265.21,-201.48 256.43,-195.55 254.65,-202.32"/>
</g>
<!-- Node3 -->
<g id="node3" class="node">
<title>Node3</title>
<g id="a_node3"><a xlink:href="sam__usb_8h.html" target="_top" xlink:title="USB interface functions for the sam0 class devices.">
<polygon fill="none" stroke="black" points="161.5,-134.5 161.5,-164.5 311.5,-164.5 311.5,-134.5 161.5,-134.5"/>
<text text-anchor="start" x="169.5" y="-152.5" font-family="Helvetica,sans-Serif" font-size="10.00">cpu/sam0_common/include</text>
<text text-anchor="middle" x="236.5" y="-141.5" font-family="Helvetica,sans-Serif" font-size="10.00">/sam_usb.h</text>
</a>
</g>
</g>
<!-- Node1&#45;&gt;Node3 -->
<g id="edge2" class="edge">
<title>Node1&#45;&gt;Node3</title>
<path fill="none" stroke="midnightblue" d="M292.85,-195.17C280.31,-185.23 265.53,-173.51 254.26,-164.58"/>
<polygon fill="midnightblue" stroke="midnightblue" points="290.7,-197.93 300.71,-201.4 295.04,-192.44 290.7,-197.93"/>
</g>
<!-- Node4 -->
<g id="node4" class="node">
<title>Node4</title>
<g id="a_node4"><a xlink:href="usbdev__stm32_8h.html" target="_top" xlink:title="USB interface functions for the stm32 OTG FS/HS class devices.">
<polygon fill="none" stroke="black" points="329.5,-134.5 329.5,-164.5 473.5,-164.5 473.5,-134.5 329.5,-134.5"/>
<text text-anchor="start" x="337.5" y="-152.5" font-family="Helvetica,sans-Serif" font-size="10.00">cpu/stm32/include/usbdev</text>
<text text-anchor="middle" x="401.5" y="-141.5" font-family="Helvetica,sans-Serif" font-size="10.00">_stm32.h</text>
</a>
</g>
</g>
<!-- Node1&#45;&gt;Node4 -->
<g id="edge3" class="edge">
<title>Node1&#45;&gt;Node4</title>
<path fill="none" stroke="midnightblue" d="M344.46,-195.17C357.15,-185.23 372.11,-173.51 383.53,-164.58"/>
<polygon fill="midnightblue" stroke="midnightblue" points="342.22,-192.47 336.51,-201.4 346.54,-197.99 342.22,-192.47"/>
</g>
<!-- Node5 -->
<g id="node5" class="node">
<title>Node5</title>
<g id="a_node5"><a xlink:href="usbus_8h.html" target="_top" xlink:title="USBUS basic interface.">
<polygon fill="none" stroke="black" points="491.5,-140 491.5,-159 623.5,-159 623.5,-140 491.5,-140"/>
<text text-anchor="middle" x="557.5" y="-147" font-family="Helvetica,sans-Serif" font-size="10.00">sys/include/usb/usbus.h</text>
</a>
</g>
</g>
<!-- Node1&#45;&gt;Node5 -->
<g id="edge4" class="edge">
<title>Node1&#45;&gt;Node5</title>
<path fill="none" stroke="midnightblue" d="M379.79,-198.83C426.57,-186.11 489.09,-169.11 526.14,-159.03"/>
<polygon fill="midnightblue" stroke="midnightblue" points="378.8,-195.47 370.07,-201.48 380.63,-202.23 378.8,-195.47"/>
</g>
<!-- Node6 -->
<g id="node6" class="node">
<title>Node6</title>
<g id="a_node6"><a xlink:href="acm_8h.html" target="_top" xlink:title="Interface and definitions for USB CDC ACM type interfaces in USBUS.">
<polygon fill="none" stroke="black" points="361,-67.5 361,-97.5 484,-97.5 484,-67.5 361,-67.5"/>
<text text-anchor="start" x="369" y="-85.5" font-family="Helvetica,sans-Serif" font-size="10.00">sys/include/usb/usbus</text>
<text text-anchor="middle" x="422.5" y="-74.5" font-family="Helvetica,sans-Serif" font-size="10.00">/cdc/acm.h</text>
</a>
</g>
</g>
<!-- Node5&#45;&gt;Node6 -->
<g id="edge5" class="edge">
<title>Node5&#45;&gt;Node6</title>
<path fill="none" stroke="midnightblue" d="M530.45,-135.47C507.62,-124.49 475.03,-108.79 451.64,-97.53"/>
<polygon fill="midnightblue" stroke="midnightblue" points="529.04,-138.68 539.57,-139.87 532.08,-132.38 529.04,-138.68"/>
</g>
<!-- Node8 -->
<g id="node8" class="node">
<title>Node8</title>
<g id="a_node8"><a xlink:href="ecm_8h.html" target="_top" xlink:title="Interface and definitions for USB CDC ECM type interfaces.">
<polygon fill="none" stroke="black" points="522,-0.5 522,-30.5 645,-30.5 645,-0.5 522,-0.5"/>
<text text-anchor="start" x="530" y="-18.5" font-family="Helvetica,sans-Serif" font-size="10.00">sys/include/usb/usbus</text>
<text text-anchor="middle" x="583.5" y="-7.5" font-family="Helvetica,sans-Serif" font-size="10.00">/cdc/ecm.h</text>
</a>
</g>
</g>
<!-- Node5&#45;&gt;Node8 -->
<g id="edge7" class="edge">
<title>Node5&#45;&gt;Node8</title>
<path fill="none" stroke="midnightblue" d="M545.19,-131.03C535.01,-114.29 523.55,-88.47 532.5,-67 538.69,-52.16 551.59,-39.46 562.87,-30.5"/>
<polygon fill="midnightblue" stroke="midnightblue" points="542.48,-133.28 550.88,-139.74 548.34,-129.45 542.48,-133.28"/>
</g>
<!-- Node9 -->
<g id="node9" class="node">
<title>Node9</title>
<g id="a_node9"><a xlink:href="control_8h.html" target="_top" xlink:title="USBUS control endpoint module.">
<polygon fill="none" stroke="black" points="541,-67.5 541,-97.5 664,-97.5 664,-67.5 541,-67.5"/>
<text text-anchor="start" x="549" y="-85.5" font-family="Helvetica,sans-Serif" font-size="10.00">sys/include/usb/usbus</text>
<text text-anchor="middle" x="602.5" y="-74.5" font-family="Helvetica,sans-Serif" font-size="10.00">/control.h</text>
</a>
</g>
</g>
<!-- Node5&#45;&gt;Node9 -->
<g id="edge8" class="edge">
<title>Node5&#45;&gt;Node9</title>
<path fill="none" stroke="midnightblue" d="M569.37,-131.35C576.66,-120.82 585.88,-107.5 592.75,-97.59"/>
<polygon fill="midnightblue" stroke="midnightblue" points="566.38,-129.52 563.57,-139.73 572.14,-133.5 566.38,-129.52"/>
</g>
<!-- Node10 -->
<g id="node10" class="node">
<title>Node10</title>
<g id="a_node10"><a xlink:href="usb_2usbus_2fmt_8h.html" target="_top" xlink:title="USBUS descriptor formatter functions.">
<polygon fill="none" stroke="black" points="682,-67.5 682,-97.5 805,-97.5 805,-67.5 682,-67.5"/>
<text text-anchor="start" x="690" y="-85.5" font-family="Helvetica,sans-Serif" font-size="10.00">sys/include/usb/usbus</text>
<text text-anchor="middle" x="743.5" y="-74.5" font-family="Helvetica,sans-Serif" font-size="10.00">/fmt.h</text>
</a>
</g>
</g>
<!-- Node5&#45;&gt;Node10 -->
<g id="edge10" class="edge">
<title>Node5&#45;&gt;Node10</title>
<path fill="none" stroke="midnightblue" d="M591.87,-136.49C623.4,-125.47 670.12,-109.14 703.36,-97.53"/>
<polygon fill="midnightblue" stroke="midnightblue" points="590.48,-133.27 582.2,-139.87 592.79,-139.87 590.48,-133.27"/>
</g>
<!-- Node7 -->
<g id="node7" class="node">
<title>Node7</title>
<g id="a_node7"><a xlink:href="usb__board__reset__internal_8h.html" target="_top" xlink:title=" ">
<polygon fill="none" stroke="black" points="360,-0.5 360,-30.5 485,-30.5 485,-0.5 360,-0.5"/>
<text text-anchor="start" x="368" y="-18.5" font-family="Helvetica,sans-Serif" font-size="10.00">sys/include/usb_board</text>
<text text-anchor="middle" x="422.5" y="-7.5" font-family="Helvetica,sans-Serif" font-size="10.00">_reset_internal.h</text>
</a>
</g>
</g>
<!-- Node6&#45;&gt;Node7 -->
<g id="edge6" class="edge">
<title>Node6&#45;&gt;Node7</title>
<path fill="none" stroke="midnightblue" d="M422.5,-57.11C422.5,-48.15 422.5,-38.32 422.5,-30.58"/>
<polygon fill="midnightblue" stroke="midnightblue" points="419,-57.4 422.5,-67.4 426,-57.4 419,-57.4"/>
</g>
<!-- Node9&#45;&gt;Node8 -->
<g id="edge9" class="edge">
<title>Node9&#45;&gt;Node8</title>
<path fill="none" stroke="midnightblue" d="M595.54,-57.7C592.88,-48.59 589.93,-38.49 587.61,-30.58"/>
<polygon fill="midnightblue" stroke="midnightblue" points="592.21,-58.78 598.38,-67.4 598.93,-56.82 592.21,-58.78"/>
</g>
</g>
</svg>
