<?xml version="1.0" encoding="UTF-8" standalone="no"?>
<!DOCTYPE svg PUBLIC "-//W3C//DTD SVG 1.1//EN"
 "http://www.w3.org/Graphics/SVG/1.1/DTD/svg11.dtd">
<!-- Generated by graphviz version 2.40.1 (20161225.0304)
 -->
<!-- Title: drivers/include/periph/usbdev.h Pages: 1 -->
<svg width="753pt" height="240pt"
 viewBox="0.00 0.00 752.50 240.00" xmlns="http://www.w3.org/2000/svg" xmlns:xlink="http://www.w3.org/1999/xlink">
<g id="graph0" class="graph" transform="scale(1 1) rotate(0) translate(4 236)">
<title>drivers/include/periph/usbdev.h</title>
<!-- Node9 -->
<g id="node1" class="node">
<title>Node9</title>
<polygon fill="#bfbfbf" stroke="#000000" points="237,-201.5 237,-231.5 346,-231.5 346,-201.5 237,-201.5"/>
<text text-anchor="start" x="245" y="-219.5" font-family="Helvetica,sans-Serif" font-size="10.00" fill="#000000">drivers/include/periph</text>
<text text-anchor="middle" x="291.5" y="-208.5" font-family="Helvetica,sans-Serif" font-size="10.00" fill="#000000">/usbdev.h</text>
</g>
<!-- Node10 -->
<g id="node2" class="node">
<title>Node10</title>
<g id="a_node2"><a xlink:href="nrfusb_8h.html" target="_top" xlink:title="USB interface functions for the nrf52840 class devices. ">
<polygon fill="none" stroke="#000000" points="0,-140 0,-159 129,-159 129,-140 0,-140"/>
<text text-anchor="middle" x="64.5" y="-147" font-family="Helvetica,sans-Serif" font-size="10.00" fill="#000000">cpu/nrf52/include/nrfusb.h</text>
</a>
</g>
</g>
<!-- Node9&#45;&gt;Node10 -->
<g id="edge1" class="edge">
<title>Node9&#45;&gt;Node10</title>
<path fill="none" stroke="#191970" d="M230.7363,-198.5654C187.6256,-185.841 131.4625,-169.2643 96.7045,-159.0053"/>
<polygon fill="#191970" stroke="#191970" points="229.975,-201.9898 240.5568,-201.4639 231.9566,-195.2762 229.975,-201.9898"/>
</g>
<!-- Node11 -->
<g id="node3" class="node">
<title>Node11</title>
<g id="a_node3"><a xlink:href="sam__usb_8h.html" target="_top" xlink:title="USB interface functions for the sam0 class devices. ">
<polygon fill="none" stroke="#000000" points="147.5,-134.5 147.5,-164.5 283.5,-164.5 283.5,-134.5 147.5,-134.5"/>
<text text-anchor="start" x="155.5" y="-152.5" font-family="Helvetica,sans-Serif" font-size="10.00" fill="#000000">cpu/sam0_common/include</text>
<text text-anchor="middle" x="215.5" y="-141.5" font-family="Helvetica,sans-Serif" font-size="10.00" fill="#000000">/sam_usb.h</text>
</a>
</g>
</g>
<!-- Node9&#45;&gt;Node11 -->
<g id="edge2" class="edge">
<title>Node9&#45;&gt;Node11</title>
<path fill="none" stroke="#191970" d="M266.5408,-194.4965C255.4503,-184.7193 242.6733,-173.4554 232.6773,-164.6432"/>
<polygon fill="#191970" stroke="#191970" points="264.4386,-197.3091 274.2544,-201.2967 269.0677,-192.0582 264.4386,-197.3091"/>
</g>
<!-- Node12 -->
<g id="node4" class="node">
<title>Node12</title>
<g id="a_node4"><a xlink:href="usbdev__stm32_8h.html" target="_top" xlink:title="USB interface functions for the stm32 OTG FS/HS class devices. ">
<polygon fill="none" stroke="#000000" points="302,-134.5 302,-164.5 433,-164.5 433,-134.5 302,-134.5"/>
<text text-anchor="start" x="310" y="-152.5" font-family="Helvetica,sans-Serif" font-size="10.00" fill="#000000">cpu/stm32/include/usbdev</text>
<text text-anchor="middle" x="367.5" y="-141.5" font-family="Helvetica,sans-Serif" font-size="10.00" fill="#000000">_stm32.h</text>
</a>
</g>
</g>
<!-- Node9&#45;&gt;Node12 -->
<g id="edge3" class="edge">
<title>Node9&#45;&gt;Node12</title>
<path fill="none" stroke="#191970" d="M316.4592,-194.4965C327.5497,-184.7193 340.3267,-173.4554 350.3227,-164.6432"/>
<polygon fill="#191970" stroke="#191970" points="313.9323,-192.0582 308.7456,-201.2967 318.5614,-197.3091 313.9323,-192.0582"/>
</g>
<!-- Node13 -->
<g id="node5" class="node">
<title>Node13</title>
<g id="a_node5"><a xlink:href="usbus_8h.html" target="_top" xlink:title="USBUS basic interface. ">
<polygon fill="none" stroke="#000000" points="451.5,-140 451.5,-159 573.5,-159 573.5,-140 451.5,-140"/>
<text text-anchor="middle" x="512.5" y="-147" font-family="Helvetica,sans-Serif" font-size="10.00" fill="#000000">sys/include/usb/usbus.h</text>
</a>
</g>
</g>
<!-- Node9&#45;&gt;Node13 -->
<g id="edge4" class="edge">
<title>Node9&#45;&gt;Node13</title>
<path fill="none" stroke="#191970" d="M350.9228,-198.4849C392.8589,-185.7713 447.3786,-169.2427 481.1467,-159.0053"/>
<polygon fill="#191970" stroke="#191970" points="349.6511,-195.2131 341.0967,-201.4639 351.6821,-201.912 349.6511,-195.2131"/>
</g>
<!-- Node14 -->
<g id="node6" class="node">
<title>Node14</title>
<g id="a_node6"><a xlink:href="acm_8h.html" target="_top" xlink:title="Interface and definitions for USB CDC ACM type interfaces in USBUS. ">
<polygon fill="none" stroke="#000000" points="328.5,-67.5 328.5,-97.5 442.5,-97.5 442.5,-67.5 328.5,-67.5"/>
<text text-anchor="start" x="336.5" y="-85.5" font-family="Helvetica,sans-Serif" font-size="10.00" fill="#000000">sys/include/usb/usbus</text>
<text text-anchor="middle" x="385.5" y="-74.5" font-family="Helvetica,sans-Serif" font-size="10.00" fill="#000000">/cdc/acm.h</text>
</a>
</g>
</g>
<!-- Node13&#45;&gt;Node14 -->
<g id="edge5" class="edge">
<title>Node13&#45;&gt;Node14</title>
<path fill="none" stroke="#191970" d="M485.2688,-135.1339C464.2616,-124.0514 435.2873,-108.7657 413.9741,-97.5218"/>
<polygon fill="#191970" stroke="#191970" points="483.8262,-138.33 494.304,-139.9005 487.0925,-132.1388 483.8262,-138.33"/>
</g>
<!-- Node16 -->
<g id="node8" class="node">
<title>Node16</title>
<g id="a_node8"><a xlink:href="ecm_8h.html" target="_top" xlink:title="Interface and definitions for USB CDC ECM type interfaces. ">
<polygon fill="none" stroke="#000000" points="479.5,-.5 479.5,-30.5 593.5,-30.5 593.5,-.5 479.5,-.5"/>
<text text-anchor="start" x="487.5" y="-18.5" font-family="Helvetica,sans-Serif" font-size="10.00" fill="#000000">sys/include/usb/usbus</text>
<text text-anchor="middle" x="536.5" y="-7.5" font-family="Helvetica,sans-Serif" font-size="10.00" fill="#000000">/cdc/ecm.h</text>
</a>
</g>
</g>
<!-- Node13&#45;&gt;Node16 -->
<g id="edge7" class="edge">
<title>Node13&#45;&gt;Node16</title>
<path fill="none" stroke="#191970" d="M500.4795,-130.7516C491.2026,-113.8059 481.2324,-88.3239 489.5,-67 495.0135,-52.7796 506.4853,-40.0816 516.7146,-30.8523"/>
<polygon fill="#191970" stroke="#191970" points="497.6276,-132.8062 505.7184,-139.6466 503.6592,-129.2537 497.6276,-132.8062"/>
</g>
<!-- Node17 -->
<g id="node9" class="node">
<title>Node17</title>
<g id="a_node9"><a xlink:href="control_8h.html" target="_top" xlink:title="USBUS control endpoint module. ">
<polygon fill="none" stroke="#000000" points="498.5,-67.5 498.5,-97.5 612.5,-97.5 612.5,-67.5 498.5,-67.5"/>
<text text-anchor="start" x="506.5" y="-85.5" font-family="Helvetica,sans-Serif" font-size="10.00" fill="#000000">sys/include/usb/usbus</text>
<text text-anchor="middle" x="555.5" y="-74.5" font-family="Helvetica,sans-Serif" font-size="10.00" fill="#000000">/control.h</text>
</a>
</g>
</g>
<!-- Node13&#45;&gt;Node17 -->
<g id="edge8" class="edge">
<title>Node13&#45;&gt;Node17</title>
<path fill="none" stroke="#191970" d="M524.1147,-131.4026C530.9235,-120.7936 539.423,-107.5502 545.8592,-97.5218"/>
<polygon fill="#191970" stroke="#191970" points="521.1166,-129.5942 518.6609,-139.9005 527.0077,-133.3751 521.1166,-129.5942"/>
</g>
<!-- Node18 -->
<g id="node10" class="node">
<title>Node18</title>
<g id="a_node10"><a xlink:href="usb_2usbus_2fmt_8h.html" target="_top" xlink:title="USBUS descriptor formatter functions. ">
<polygon fill="none" stroke="#000000" points="630.5,-67.5 630.5,-97.5 744.5,-97.5 744.5,-67.5 630.5,-67.5"/>
<text text-anchor="start" x="638.5" y="-85.5" font-family="Helvetica,sans-Serif" font-size="10.00" fill="#000000">sys/include/usb/usbus</text>
<text text-anchor="middle" x="687.5" y="-74.5" font-family="Helvetica,sans-Serif" font-size="10.00" fill="#000000">/fmt.h</text>
</a>
</g>
</g>
<!-- Node13&#45;&gt;Node18 -->
<g id="edge10" class="edge">
<title>Node13&#45;&gt;Node18</title>
<path fill="none" stroke="#191970" d="M546.9377,-136.3153C576.079,-125.1583 617.8372,-109.1709 648.264,-97.5218"/>
<polygon fill="#191970" stroke="#191970" points="545.6607,-133.0564 537.5732,-139.9005 548.1636,-139.5936 545.6607,-133.0564"/>
</g>
<!-- Node15 -->
<g id="node7" class="node">
<title>Node15</title>
<g id="a_node7"><a xlink:href="usb__board__reset__internal_8h.html" target="_top" xlink:title="sys/include/usb_board\l_reset_internal.h">
<polygon fill="none" stroke="#000000" points="328.5,-.5 328.5,-30.5 442.5,-30.5 442.5,-.5 328.5,-.5"/>
<text text-anchor="start" x="336.5" y="-18.5" font-family="Helvetica,sans-Serif" font-size="10.00" fill="#000000">sys/include/usb_board</text>
<text text-anchor="middle" x="385.5" y="-7.5" font-family="Helvetica,sans-Serif" font-size="10.00" fill="#000000">_reset_internal.h</text>
</a>
</g>
</g>
<!-- Node14&#45;&gt;Node15 -->
<g id="edge6" class="edge">
<title>Node14&#45;&gt;Node15</title>
<path fill="none" stroke="#191970" d="M385.5,-57.0249C385.5,-48.128 385.5,-38.4287 385.5,-30.6432"/>
<polygon fill="#191970" stroke="#191970" points="382.0001,-57.2966 385.5,-67.2967 389.0001,-57.2967 382.0001,-57.2966"/>
</g>
<!-- Node17&#45;&gt;Node16 -->
<g id="edge9" class="edge">
<title>Node17&#45;&gt;Node16</title>
<path fill="none" stroke="#191970" d="M548.4417,-57.6103C545.8739,-48.5553 543.0507,-38.5998 540.7943,-30.6432"/>
<polygon fill="#191970" stroke="#191970" points="545.0931,-58.6309 551.1886,-67.2967 551.8275,-56.7211 545.0931,-58.6309"/>
</g>
</g>
</svg>
