<?xml version="1.0" encoding="UTF-8" standalone="no"?>
<!DOCTYPE svg PUBLIC "-//W3C//DTD SVG 1.1//EN"
 "http://www.w3.org/Graphics/SVG/1.1/DTD/svg11.dtd">
<!-- Generated by graphviz version 2.43.0 (0)
 -->
<!-- Title: cpu/stm32/include/usbdev_stm32.h Pages: 1 -->
<svg width="628pt" height="319pt"
 viewBox="0.00 0.00 628.00 319.00" xmlns="http://www.w3.org/2000/svg" xmlns:xlink="http://www.w3.org/1999/xlink">
<g id="graph0" class="graph" transform="scale(1 1) rotate(0) translate(4 315)">
<title>cpu/stm32/include/usbdev_stm32.h</title>
<!-- Node1 -->
<g id="node1" class="node">
<title>Node1</title>
<g id="a_node1"><a xlink:title="USB interface functions for the stm32 OTG FS/HS class devices.">
<polygon fill="#bfbfbf" stroke="black" points="149.5,-280.5 149.5,-310.5 293.5,-310.5 293.5,-280.5 149.5,-280.5"/>
<text text-anchor="start" x="157.5" y="-298.5" font-family="Helvetica,sans-Serif" font-size="10.00">cpu/stm32/include/usbdev</text>
<text text-anchor="middle" x="221.5" y="-287.5" font-family="Helvetica,sans-Serif" font-size="10.00">_stm32.h</text>
</a>
</g>
</g>
<!-- Node2 -->
<g id="node2" class="node">
<title>Node2</title>
<g id="a_node2"><a xlink:title=" ">
<polygon fill="none" stroke="#bfbfbf" points="295,-0.5 295,-19.5 348,-19.5 348,-0.5 295,-0.5"/>
<text text-anchor="middle" x="321.5" y="-7.5" font-family="Helvetica,sans-Serif" font-size="10.00">stdint.h</text>
</a>
</g>
</g>
<!-- Node1&#45;&gt;Node2 -->
<g id="edge1" class="edge">
<title>Node1&#45;&gt;Node2</title>
<path fill="none" stroke="midnightblue" d="M227.3,-280.18C235.5,-258.62 249.5,-216.35 249.5,-179 249.5,-179 249.5,-179 249.5,-121 249.5,-81.94 281.68,-45.94 303.01,-26.37"/>
<polygon fill="midnightblue" stroke="midnightblue" points="305.38,-28.94 310.56,-19.7 300.75,-23.7 305.38,-28.94"/>
</g>
<!-- Node3 -->
<g id="node3" class="node">
<title>Node3</title>
<g id="a_node3"><a xlink:title=" ">
<polygon fill="none" stroke="#bfbfbf" points="168,-224.5 168,-243.5 221,-243.5 221,-224.5 168,-224.5"/>
<text text-anchor="middle" x="194.5" y="-231.5" font-family="Helvetica,sans-Serif" font-size="10.00">stdlib.h</text>
</a>
</g>
</g>
<!-- Node1&#45;&gt;Node3 -->
<g id="edge2" class="edge">
<title>Node1&#45;&gt;Node3</title>
<path fill="none" stroke="midnightblue" d="M215.1,-280.4C211.38,-272.2 206.65,-261.78 202.67,-252.99"/>
<polygon fill="midnightblue" stroke="midnightblue" points="205.75,-251.32 198.43,-243.66 199.37,-254.21 205.75,-251.32"/>
</g>
<!-- Node4 -->
<g id="node4" class="node">
<title>Node4</title>
<g id="a_node4"><a xlink:href="stm32_2include_2periph__cpu_8h.html" target="_top" xlink:title="Shared CPU specific definitions for the STM32 family.">
<polygon fill="none" stroke="black" points="62,-224.5 62,-243.5 141,-243.5 141,-224.5 62,-224.5"/>
<text text-anchor="middle" x="101.5" y="-231.5" font-family="Helvetica,sans-Serif" font-size="10.00">periph_cpu.h</text>
</a>
</g>
</g>
<!-- Node1&#45;&gt;Node4 -->
<g id="edge3" class="edge">
<title>Node1&#45;&gt;Node4</title>
<path fill="none" stroke="midnightblue" d="M193.06,-280.4C173.38,-270.64 147.36,-257.74 128.09,-248.18"/>
<polygon fill="midnightblue" stroke="midnightblue" points="129.48,-244.96 118.96,-243.66 126.37,-251.24 129.48,-244.96"/>
</g>
<!-- Node8 -->
<g id="node8" class="node">
<title>Node8</title>
<g id="a_node8"><a xlink:href="usbdev_8h.html" target="_top" xlink:title="Definitions low&#45;level USB driver interface.">
<polygon fill="none" stroke="black" points="354.5,-224.5 354.5,-243.5 448.5,-243.5 448.5,-224.5 354.5,-224.5"/>
<text text-anchor="middle" x="401.5" y="-231.5" font-family="Helvetica,sans-Serif" font-size="10.00">periph/usbdev.h</text>
</a>
</g>
</g>
<!-- Node1&#45;&gt;Node8 -->
<g id="edge7" class="edge">
<title>Node1&#45;&gt;Node8</title>
<path fill="none" stroke="midnightblue" d="M264.16,-280.4C295.13,-270.16 336.55,-256.47 365.78,-246.81"/>
<polygon fill="midnightblue" stroke="midnightblue" points="367.17,-250.03 375.57,-243.57 364.98,-243.39 367.17,-250.03"/>
</g>
<!-- Node5 -->
<g id="node5" class="node">
<title>Node5</title>
<g id="a_node5"><a xlink:title=" ">
<polygon fill="none" stroke="#bfbfbf" points="0,-168.5 0,-187.5 53,-187.5 53,-168.5 0,-168.5"/>
<text text-anchor="middle" x="26.5" y="-175.5" font-family="Helvetica,sans-Serif" font-size="10.00">limits.h</text>
</a>
</g>
</g>
<!-- Node4&#45;&gt;Node5 -->
<g id="edge4" class="edge">
<title>Node4&#45;&gt;Node5</title>
<path fill="none" stroke="midnightblue" d="M89.45,-224.32C78.04,-216.11 60.67,-203.6 47.07,-193.81"/>
<polygon fill="midnightblue" stroke="midnightblue" points="48.93,-190.84 38.77,-187.83 44.84,-196.52 48.93,-190.84"/>
</g>
<!-- Node6 -->
<g id="node6" class="node">
<title>Node6</title>
<g id="a_node6"><a xlink:title=" ">
<polygon fill="none" stroke="#bfbfbf" points="71,-168.5 71,-187.5 114,-187.5 114,-168.5 71,-168.5"/>
<text text-anchor="middle" x="92.5" y="-175.5" font-family="Helvetica,sans-Serif" font-size="10.00">cpu.h</text>
</a>
</g>
</g>
<!-- Node4&#45;&gt;Node6 -->
<g id="edge5" class="edge">
<title>Node4&#45;&gt;Node6</title>
<path fill="none" stroke="midnightblue" d="M100.01,-224.08C98.82,-216.93 97.11,-206.64 95.62,-197.69"/>
<polygon fill="midnightblue" stroke="midnightblue" points="99.05,-197.04 93.96,-187.75 92.15,-198.19 99.05,-197.04"/>
</g>
<!-- Node7 -->
<g id="node7" class="node">
<title>Node7</title>
<g id="a_node7"><a xlink:href="units_8h.html" target="_top" xlink:title="Unit helper macros.">
<polygon fill="none" stroke="black" points="132,-168.5 132,-187.5 221,-187.5 221,-168.5 132,-168.5"/>
<text text-anchor="middle" x="176.5" y="-175.5" font-family="Helvetica,sans-Serif" font-size="10.00">macros/units.h</text>
</a>
</g>
</g>
<!-- Node4&#45;&gt;Node7 -->
<g id="edge6" class="edge">
<title>Node4&#45;&gt;Node7</title>
<path fill="none" stroke="midnightblue" d="M113.55,-224.32C124.96,-216.11 142.33,-203.6 155.93,-193.81"/>
<polygon fill="midnightblue" stroke="midnightblue" points="158.16,-196.52 164.23,-187.83 154.07,-190.84 158.16,-196.52"/>
</g>
<!-- Node8&#45;&gt;Node2 -->
<g id="edge8" class="edge">
<title>Node8&#45;&gt;Node2</title>
<path fill="none" stroke="midnightblue" d="M393.86,-224.26C374.69,-201.69 324.85,-138.77 307.5,-76 303.18,-60.37 307.81,-42.33 312.88,-29.22"/>
<polygon fill="midnightblue" stroke="midnightblue" points="316.15,-30.48 316.87,-19.91 309.71,-27.72 316.15,-30.48"/>
</g>
<!-- Node9 -->
<g id="node9" class="node">
<title>Node9</title>
<g id="a_node9"><a xlink:title=" ">
<polygon fill="none" stroke="#bfbfbf" points="471.5,-0.5 471.5,-19.5 527.5,-19.5 527.5,-0.5 471.5,-0.5"/>
<text text-anchor="middle" x="499.5" y="-7.5" font-family="Helvetica,sans-Serif" font-size="10.00">stddef.h</text>
</a>
</g>
</g>
<!-- Node8&#45;&gt;Node9 -->
<g id="edge9" class="edge">
<title>Node8&#45;&gt;Node9</title>
<path fill="none" stroke="midnightblue" d="M419.15,-224.4C433.7,-216.59 454.04,-203.86 467.5,-188 503,-146.15 507.67,-129.59 519.5,-76 523.11,-59.65 516.58,-41.46 510.04,-28.49"/>
<polygon fill="midnightblue" stroke="midnightblue" points="513.09,-26.78 505.2,-19.71 506.96,-30.16 513.09,-26.78"/>
</g>
<!-- Node10 -->
<g id="node10" class="node">
<title>Node10</title>
<g id="a_node10"><a xlink:href="assert_8h.html" target="_top" xlink:title="POSIX.1&#45;2008 compliant version of the assert macro.">
<polygon fill="none" stroke="black" points="402.5,-168.5 402.5,-187.5 458.5,-187.5 458.5,-168.5 402.5,-168.5"/>
<text text-anchor="middle" x="430.5" y="-175.5" font-family="Helvetica,sans-Serif" font-size="10.00">assert.h</text>
</a>
</g>
</g>
<!-- Node8&#45;&gt;Node10 -->
<g id="edge10" class="edge">
<title>Node8&#45;&gt;Node10</title>
<path fill="none" stroke="midnightblue" d="M406.29,-224.08C410.26,-216.69 416.03,-205.95 420.93,-196.81"/>
<polygon fill="midnightblue" stroke="midnightblue" points="424.15,-198.22 425.8,-187.75 417.99,-194.91 424.15,-198.22"/>
</g>
<!-- Node13 -->
<g id="node13" class="node">
<title>Node13</title>
<g id="a_node13"><a xlink:href="usb_8h.html" target="_top" xlink:title="Definition of global compile time configuration options.">
<polygon fill="none" stroke="black" points="570,-168.5 570,-187.5 613,-187.5 613,-168.5 570,-168.5"/>
<text text-anchor="middle" x="591.5" y="-175.5" font-family="Helvetica,sans-Serif" font-size="10.00">usb.h</text>
</a>
</g>
</g>
<!-- Node8&#45;&gt;Node13 -->
<g id="edge15" class="edge">
<title>Node8&#45;&gt;Node13</title>
<path fill="none" stroke="midnightblue" d="M431.61,-224.44C466.65,-214.48 524.27,-198.11 559.93,-187.97"/>
<polygon fill="midnightblue" stroke="midnightblue" points="561.15,-191.27 569.81,-185.16 559.23,-184.53 561.15,-191.27"/>
</g>
<!-- Node15 -->
<g id="node15" class="node">
<title>Node15</title>
<g id="a_node15"><a xlink:href="usbopt_8h.html" target="_top" xlink:title="Definition of global USB peripheral and USB peripheral endpoint configuration options.">
<polygon fill="none" stroke="black" points="316,-56.5 316,-75.5 395,-75.5 395,-56.5 316,-56.5"/>
<text text-anchor="middle" x="355.5" y="-63.5" font-family="Helvetica,sans-Serif" font-size="10.00">usb/usbopt.h</text>
</a>
</g>
</g>
<!-- Node8&#45;&gt;Node15 -->
<g id="edge17" class="edge">
<title>Node8&#45;&gt;Node15</title>
<path fill="none" stroke="midnightblue" d="M399.03,-224.08C391.79,-197.95 370.52,-121.21 360.65,-85.58"/>
<polygon fill="midnightblue" stroke="midnightblue" points="363.92,-84.27 357.87,-75.57 357.17,-86.14 363.92,-84.27"/>
</g>
<!-- Node11 -->
<g id="node11" class="node">
<title>Node11</title>
<g id="a_node11"><a xlink:href="panic_8h.html" target="_top" xlink:title="Crash handling header.">
<polygon fill="none" stroke="black" points="410.5,-112.5 410.5,-131.5 462.5,-131.5 462.5,-112.5 410.5,-112.5"/>
<text text-anchor="middle" x="436.5" y="-119.5" font-family="Helvetica,sans-Serif" font-size="10.00">panic.h</text>
</a>
</g>
</g>
<!-- Node10&#45;&gt;Node11 -->
<g id="edge11" class="edge">
<title>Node10&#45;&gt;Node11</title>
<path fill="none" stroke="midnightblue" d="M431.49,-168.08C432.29,-160.93 433.43,-150.64 434.42,-141.69"/>
<polygon fill="midnightblue" stroke="midnightblue" points="437.9,-142.08 435.53,-131.75 430.94,-141.3 437.9,-142.08"/>
</g>
<!-- Node12 -->
<g id="node12" class="node">
<title>Node12</title>
<g id="a_node12"><a xlink:href="kernel__defines_8h.html" target="_top" xlink:title="Common macros and compiler attributes/pragmas configuration.">
<polygon fill="none" stroke="black" points="413,-56.5 413,-75.5 510,-75.5 510,-56.5 413,-56.5"/>
<text text-anchor="middle" x="461.5" y="-63.5" font-family="Helvetica,sans-Serif" font-size="10.00">kernel_defines.h</text>
</a>
</g>
</g>
<!-- Node11&#45;&gt;Node12 -->
<g id="edge12" class="edge">
<title>Node11&#45;&gt;Node12</title>
<path fill="none" stroke="midnightblue" d="M440.63,-112.08C444.01,-104.77 448.92,-94.18 453.12,-85.1"/>
<polygon fill="midnightblue" stroke="midnightblue" points="456.42,-86.3 457.45,-75.75 450.07,-83.36 456.42,-86.3"/>
</g>
<!-- Node12&#45;&gt;Node2 -->
<g id="edge14" class="edge">
<title>Node12&#45;&gt;Node2</title>
<path fill="none" stroke="midnightblue" d="M439.32,-56.44C416.07,-47.48 379.35,-33.31 353.08,-23.18"/>
<polygon fill="midnightblue" stroke="midnightblue" points="354.17,-19.85 343.58,-19.52 351.65,-26.38 354.17,-19.85"/>
</g>
<!-- Node12&#45;&gt;Node9 -->
<g id="edge13" class="edge">
<title>Node12&#45;&gt;Node9</title>
<path fill="none" stroke="midnightblue" d="M467.77,-56.08C473.14,-48.46 481.02,-37.26 487.58,-27.94"/>
<polygon fill="midnightblue" stroke="midnightblue" points="490.45,-29.94 493.34,-19.75 484.72,-25.91 490.45,-29.94"/>
</g>
<!-- Node14 -->
<g id="node14" class="node">
<title>Node14</title>
<g id="a_node14"><a xlink:title=" ">
<polygon fill="none" stroke="#bfbfbf" points="567,-112.5 567,-131.5 620,-131.5 620,-112.5 567,-112.5"/>
<text text-anchor="middle" x="593.5" y="-119.5" font-family="Helvetica,sans-Serif" font-size="10.00">board.h</text>
</a>
</g>
</g>
<!-- Node13&#45;&gt;Node14 -->
<g id="edge16" class="edge">
<title>Node13&#45;&gt;Node14</title>
<path fill="none" stroke="midnightblue" d="M591.83,-168.08C592.09,-161.01 592.47,-150.86 592.8,-141.99"/>
<polygon fill="midnightblue" stroke="midnightblue" points="596.3,-141.87 593.18,-131.75 589.31,-141.61 596.3,-141.87"/>
</g>
<!-- Node15&#45;&gt;Node2 -->
<g id="edge18" class="edge">
<title>Node15&#45;&gt;Node2</title>
<path fill="none" stroke="midnightblue" d="M349.89,-56.08C345.13,-48.53 338.18,-37.49 332.35,-28.23"/>
<polygon fill="midnightblue" stroke="midnightblue" points="335.3,-26.35 327.01,-19.75 329.38,-30.08 335.3,-26.35"/>
</g>
</g>
</svg>
