<?xml version="1.0" encoding="UTF-8" standalone="no"?>
<!DOCTYPE svg PUBLIC "-//W3C//DTD SVG 1.1//EN"
 "http://www.w3.org/Graphics/SVG/1.1/DTD/svg11.dtd">
<!-- Generated by graphviz version 2.43.0 (0)
 -->
<!-- Title: drivers/include/vcnl40x0.h Pages: 1 -->
<svg width="526pt" height="252pt"
 viewBox="0.00 0.00 526.00 252.00" xmlns="http://www.w3.org/2000/svg" xmlns:xlink="http://www.w3.org/1999/xlink">
<g id="graph0" class="graph" transform="scale(1 1) rotate(0) translate(4 248)">
<title>drivers/include/vcnl40x0.h</title>
<!-- Node1 -->
<g id="node1" class="node">
<title>Node1</title>
<g id="a_node1"><a xlink:title="Device driver interface for the VCNL40X0 sensors family.">
<polygon fill="#bfbfbf" stroke="black" points="93,-224.5 93,-243.5 238,-243.5 238,-224.5 93,-224.5"/>
<text text-anchor="middle" x="165.5" y="-231.5" font-family="Helvetica,sans-Serif" font-size="10.00">drivers/include/vcnl40x0.h</text>
</a>
</g>
</g>
<!-- Node2 -->
<g id="node2" class="node">
<title>Node2</title>
<g id="a_node2"><a xlink:href="saul_8h.html" target="_top" xlink:title="Definition of the generic [S]ensor [A]ctuator [U]ber [L]ayer.">
<polygon fill="none" stroke="black" points="113.5,-168.5 113.5,-187.5 159.5,-187.5 159.5,-168.5 113.5,-168.5"/>
<text text-anchor="middle" x="136.5" y="-175.5" font-family="Helvetica,sans-Serif" font-size="10.00">saul.h</text>
</a>
</g>
</g>
<!-- Node1&#45;&gt;Node2 -->
<g id="edge1" class="edge">
<title>Node1&#45;&gt;Node2</title>
<path fill="none" stroke="midnightblue" d="M160.71,-224.08C156.74,-216.69 150.97,-205.95 146.07,-196.81"/>
<polygon fill="midnightblue" stroke="midnightblue" points="149.01,-194.91 141.2,-187.75 142.85,-198.22 149.01,-194.91"/>
</g>
<!-- Node8 -->
<g id="node8" class="node">
<title>Node8</title>
<g id="a_node8"><a xlink:href="i2c_8h.html" target="_top" xlink:title="Low&#45;level I2C peripheral driver interface definition.">
<polygon fill="none" stroke="black" points="299.5,-56.5 299.5,-75.5 373.5,-75.5 373.5,-56.5 299.5,-56.5"/>
<text text-anchor="middle" x="336.5" y="-63.5" font-family="Helvetica,sans-Serif" font-size="10.00">periph/i2c.h</text>
</a>
</g>
</g>
<!-- Node1&#45;&gt;Node8 -->
<g id="edge10" class="edge">
<title>Node1&#45;&gt;Node8</title>
<path fill="none" stroke="midnightblue" d="M174.69,-224.08C202.31,-197.27 284.8,-117.19 320.14,-82.89"/>
<polygon fill="midnightblue" stroke="midnightblue" points="322.94,-85.04 327.67,-75.57 318.06,-80.02 322.94,-85.04"/>
</g>
<!-- Node3 -->
<g id="node3" class="node">
<title>Node3</title>
<g id="a_node3"><a xlink:title=" ">
<polygon fill="none" stroke="#bfbfbf" points="120,-0.5 120,-19.5 173,-19.5 173,-0.5 120,-0.5"/>
<text text-anchor="middle" x="146.5" y="-7.5" font-family="Helvetica,sans-Serif" font-size="10.00">stdint.h</text>
</a>
</g>
</g>
<!-- Node2&#45;&gt;Node3 -->
<g id="edge2" class="edge">
<title>Node2&#45;&gt;Node3</title>
<path fill="none" stroke="midnightblue" d="M134.02,-168.47C131.54,-159.48 127.91,-144.89 126.5,-132 124.19,-111 129.99,-58.41 130.5,-56 132.39,-46.97 135.66,-37.29 138.75,-29.23"/>
<polygon fill="midnightblue" stroke="midnightblue" points="142.08,-30.34 142.58,-19.76 135.59,-27.72 142.08,-30.34"/>
</g>
<!-- Node4 -->
<g id="node4" class="node">
<title>Node4</title>
<g id="a_node4"><a xlink:href="errno_8h.html" target="_top" xlink:title=" ">
<polygon fill="none" stroke="black" points="0,-112.5 0,-131.5 51,-131.5 51,-112.5 0,-112.5"/>
<text text-anchor="middle" x="25.5" y="-119.5" font-family="Helvetica,sans-Serif" font-size="10.00">errno.h</text>
</a>
</g>
</g>
<!-- Node2&#45;&gt;Node4 -->
<g id="edge3" class="edge">
<title>Node2&#45;&gt;Node4</title>
<path fill="none" stroke="midnightblue" d="M118.67,-168.32C100.78,-159.62 73.02,-146.12 52.45,-136.11"/>
<polygon fill="midnightblue" stroke="midnightblue" points="53.81,-132.88 43.29,-131.65 50.75,-139.18 53.81,-132.88"/>
</g>
<!-- Node5 -->
<g id="node5" class="node">
<title>Node5</title>
<g id="a_node5"><a xlink:href="phydat_8h.html" target="_top" xlink:title="Generic data container for physical data interface.">
<polygon fill="none" stroke="black" points="136,-112.5 136,-131.5 195,-131.5 195,-112.5 136,-112.5"/>
<text text-anchor="middle" x="165.5" y="-119.5" font-family="Helvetica,sans-Serif" font-size="10.00">phydat.h</text>
</a>
</g>
</g>
<!-- Node2&#45;&gt;Node5 -->
<g id="edge4" class="edge">
<title>Node2&#45;&gt;Node5</title>
<path fill="none" stroke="midnightblue" d="M141.29,-168.08C145.26,-160.69 151.03,-149.95 155.93,-140.81"/>
<polygon fill="midnightblue" stroke="midnightblue" points="159.15,-142.22 160.8,-131.75 152.99,-138.91 159.15,-142.22"/>
</g>
<!-- Node5&#45;&gt;Node3 -->
<g id="edge6" class="edge">
<title>Node5&#45;&gt;Node3</title>
<path fill="none" stroke="midnightblue" d="M157.83,-112.46C150.72,-103.93 140.65,-90.09 136.5,-76 131.97,-60.6 135.43,-42.5 139.48,-29.32"/>
<polygon fill="midnightblue" stroke="midnightblue" points="142.89,-30.17 142.85,-19.57 136.27,-27.88 142.89,-30.17"/>
</g>
<!-- Node6 -->
<g id="node6" class="node">
<title>Node6</title>
<g id="a_node6"><a xlink:title=" ">
<polygon fill="none" stroke="#bfbfbf" points="193.5,-0.5 193.5,-19.5 249.5,-19.5 249.5,-0.5 193.5,-0.5"/>
<text text-anchor="middle" x="221.5" y="-7.5" font-family="Helvetica,sans-Serif" font-size="10.00">stddef.h</text>
</a>
</g>
</g>
<!-- Node5&#45;&gt;Node6 -->
<g id="edge5" class="edge">
<title>Node5&#45;&gt;Node6</title>
<path fill="none" stroke="midnightblue" d="M195.37,-113.95C215.06,-107.58 239.37,-96.04 251.5,-76 261.09,-60.15 249.34,-40.72 237.85,-27.25"/>
<polygon fill="midnightblue" stroke="midnightblue" points="240.27,-24.71 230.93,-19.72 235.12,-29.45 240.27,-24.71"/>
</g>
<!-- Node7 -->
<g id="node7" class="node">
<title>Node7</title>
<g id="a_node7"><a xlink:href="kernel__defines_8h.html" target="_top" xlink:title="Common macros and compiler attributes/pragmas configuration.">
<polygon fill="none" stroke="black" points="146,-56.5 146,-75.5 243,-75.5 243,-56.5 146,-56.5"/>
<text text-anchor="middle" x="194.5" y="-63.5" font-family="Helvetica,sans-Serif" font-size="10.00">kernel_defines.h</text>
</a>
</g>
</g>
<!-- Node5&#45;&gt;Node7 -->
<g id="edge7" class="edge">
<title>Node5&#45;&gt;Node7</title>
<path fill="none" stroke="midnightblue" d="M170.29,-112.08C174.26,-104.69 180.03,-93.95 184.93,-84.81"/>
<polygon fill="midnightblue" stroke="midnightblue" points="188.15,-86.22 189.8,-75.75 181.99,-82.91 188.15,-86.22"/>
</g>
<!-- Node7&#45;&gt;Node3 -->
<g id="edge9" class="edge">
<title>Node7&#45;&gt;Node3</title>
<path fill="none" stroke="midnightblue" d="M186.57,-56.08C179.65,-48.3 169.43,-36.8 161.05,-27.37"/>
<polygon fill="midnightblue" stroke="midnightblue" points="163.54,-24.9 154.28,-19.75 158.31,-29.55 163.54,-24.9"/>
</g>
<!-- Node7&#45;&gt;Node6 -->
<g id="edge8" class="edge">
<title>Node7&#45;&gt;Node6</title>
<path fill="none" stroke="midnightblue" d="M198.96,-56.08C202.65,-48.69 208.02,-37.95 212.59,-28.81"/>
<polygon fill="midnightblue" stroke="midnightblue" points="215.78,-30.26 217.12,-19.75 209.52,-27.13 215.78,-30.26"/>
</g>
<!-- Node8&#45;&gt;Node3 -->
<g id="edge11" class="edge">
<title>Node8&#45;&gt;Node3</title>
<path fill="none" stroke="midnightblue" d="M306.39,-56.44C272.97,-46.94 219,-31.61 183.15,-21.41"/>
<polygon fill="midnightblue" stroke="midnightblue" points="183.67,-17.93 173.09,-18.56 181.76,-24.66 183.67,-17.93"/>
</g>
<!-- Node8&#45;&gt;Node6 -->
<g id="edge12" class="edge">
<title>Node8&#45;&gt;Node6</title>
<path fill="none" stroke="midnightblue" d="M318.28,-56.44C299.6,-47.68 270.34,-33.94 248.88,-23.86"/>
<polygon fill="midnightblue" stroke="midnightblue" points="250.18,-20.6 239.64,-19.52 247.2,-26.93 250.18,-20.6"/>
</g>
<!-- Node9 -->
<g id="node9" class="node">
<title>Node9</title>
<g id="a_node9"><a xlink:title=" ">
<polygon fill="none" stroke="#bfbfbf" points="465,-0.5 465,-19.5 518,-19.5 518,-0.5 465,-0.5"/>
<text text-anchor="middle" x="491.5" y="-7.5" font-family="Helvetica,sans-Serif" font-size="10.00">limits.h</text>
</a>
</g>
</g>
<!-- Node8&#45;&gt;Node9 -->
<g id="edge13" class="edge">
<title>Node8&#45;&gt;Node9</title>
<path fill="none" stroke="midnightblue" d="M361.06,-56.44C387.02,-47.4 428.17,-33.06 457.3,-22.92"/>
<polygon fill="midnightblue" stroke="midnightblue" points="458.76,-26.11 467.05,-19.52 456.46,-19.5 458.76,-26.11"/>
</g>
<!-- Node10 -->
<g id="node10" class="node">
<title>Node10</title>
<g id="a_node10"><a xlink:title=" ">
<polygon fill="none" stroke="#bfbfbf" points="267.5,-0.5 267.5,-19.5 349.5,-19.5 349.5,-0.5 267.5,-0.5"/>
<text text-anchor="middle" x="308.5" y="-7.5" font-family="Helvetica,sans-Serif" font-size="10.00">periph_conf.h</text>
</a>
</g>
</g>
<!-- Node8&#45;&gt;Node10 -->
<g id="edge14" class="edge">
<title>Node8&#45;&gt;Node10</title>
<path fill="none" stroke="midnightblue" d="M331.88,-56.08C328.04,-48.69 322.48,-37.95 317.74,-28.81"/>
<polygon fill="midnightblue" stroke="midnightblue" points="320.75,-27.02 313.04,-19.75 314.53,-30.24 320.75,-27.02"/>
</g>
<!-- Node11 -->
<g id="node11" class="node">
<title>Node11</title>
<g id="a_node11"><a xlink:title=" ">
<polygon fill="none" stroke="#bfbfbf" points="368,-0.5 368,-19.5 447,-19.5 447,-0.5 368,-0.5"/>
<text text-anchor="middle" x="407.5" y="-7.5" font-family="Helvetica,sans-Serif" font-size="10.00">periph_cpu.h</text>
</a>
</g>
</g>
<!-- Node8&#45;&gt;Node11 -->
<g id="edge15" class="edge">
<title>Node8&#45;&gt;Node11</title>
<path fill="none" stroke="midnightblue" d="M347.91,-56.32C358.61,-48.18 374.84,-35.84 387.66,-26.09"/>
<polygon fill="midnightblue" stroke="midnightblue" points="390.04,-28.67 395.89,-19.83 385.81,-23.1 390.04,-28.67"/>
</g>
</g>
</svg>
