<?xml version="1.0" encoding="UTF-8" standalone="no"?>
<!DOCTYPE svg PUBLIC "-//W3C//DTD SVG 1.1//EN"
 "http://www.w3.org/Graphics/SVG/1.1/DTD/svg11.dtd">
<!-- Generated by graphviz version 2.43.0 (0)
 -->
<!-- Title: boards/waspmote&#45;pro/include/board.h Pages: 1 -->
<svg width="188pt" height="95pt"
 viewBox="0.00 0.00 188.00 95.00" xmlns="http://www.w3.org/2000/svg" xmlns:xlink="http://www.w3.org/1999/xlink">
<g id="graph0" class="graph" transform="scale(1 1) rotate(0) translate(4 91)">
<title>boards/waspmote&#45;pro/include/board.h</title>
<!-- Node1 -->
<g id="node1" class="node">
<title>Node1</title>
<g id="a_node1"><a xlink:title="Board specific definitions for the Waspmote PRO v1.2 board.">
<polygon fill="#bfbfbf" stroke="black" points="9,-56.5 9,-86.5 132,-86.5 132,-56.5 9,-56.5"/>
<text text-anchor="start" x="17" y="-74.5" font-family="Helvetica,sans-Serif" font-size="10.00">boards/waspmote&#45;pro</text>
<text text-anchor="middle" x="70.5" y="-63.5" font-family="Helvetica,sans-Serif" font-size="10.00">/include/board.h</text>
</a>
</g>
</g>
<!-- Node2 -->
<g id="node2" class="node">
<title>Node2</title>
<g id="a_node2"><a xlink:title=" ">
<polygon fill="none" stroke="#bfbfbf" points="0,-0.5 0,-19.5 43,-19.5 43,-0.5 0,-0.5"/>
<text text-anchor="middle" x="21.5" y="-7.5" font-family="Helvetica,sans-Serif" font-size="10.00">cpu.h</text>
</a>
</g>
</g>
<!-- Node1&#45;&gt;Node2 -->
<g id="edge1" class="edge">
<title>Node1&#45;&gt;Node2</title>
<path fill="none" stroke="midnightblue" d="M58.89,-56.4C51.77,-47.75 42.62,-36.64 35.15,-27.58"/>
<polygon fill="midnightblue" stroke="midnightblue" points="37.69,-25.15 28.63,-19.66 32.29,-29.6 37.69,-25.15"/>
</g>
<!-- Node3 -->
<g id="node3" class="node">
<title>Node3</title>
<g id="a_node3"><a xlink:href="waspmote__pinmap_8h.html" target="_top" xlink:title="Mapping from MCU pins to Waspmote pins.">
<polygon fill="none" stroke="black" points="61,-0.5 61,-19.5 180,-19.5 180,-0.5 61,-0.5"/>
<text text-anchor="middle" x="120.5" y="-7.5" font-family="Helvetica,sans-Serif" font-size="10.00">waspmote_pinmap.h</text>
</a>
</g>
</g>
<!-- Node1&#45;&gt;Node3 -->
<g id="edge2" class="edge">
<title>Node1&#45;&gt;Node3</title>
<path fill="none" stroke="midnightblue" d="M82.35,-56.4C89.61,-47.75 98.95,-36.64 106.57,-27.58"/>
<polygon fill="midnightblue" stroke="midnightblue" points="109.47,-29.57 113.22,-19.66 104.11,-25.06 109.47,-29.57"/>
</g>
</g>
</svg>
