<?xml version="1.0" encoding="UTF-8" standalone="no"?>
<!DOCTYPE svg PUBLIC "-//W3C//DTD SVG 1.1//EN"
 "http://www.w3.org/Graphics/SVG/1.1/DTD/svg11.dtd">
<!-- Generated by graphviz version 2.43.0 (0)
 -->
<!-- Title: sys/include/xtimer.h Pages: 1 -->
<svg width="1101pt" height="476pt"
 viewBox="0.00 0.00 1100.50 476.00" xmlns="http://www.w3.org/2000/svg" xmlns:xlink="http://www.w3.org/1999/xlink">
<g id="graph0" class="graph" transform="scale(1 1) rotate(0) translate(4 472)">
<title>sys/include/xtimer.h</title>
<!-- Node1 -->
<g id="node1" class="node">
<title>Node1</title>
<g id="a_node1"><a xlink:title="xtimer interface definitions">
<polygon fill="#bfbfbf" stroke="black" points="645,-448.5 645,-467.5 761,-467.5 761,-448.5 645,-448.5"/>
<text text-anchor="middle" x="703" y="-455.5" font-family="Helvetica,sans-Serif" font-size="10.00">sys/include/xtimer.h</text>
</a>
</g>
</g>
<!-- Node2 -->
<g id="node2" class="node">
<title>Node2</title>
<g id="a_node2"><a xlink:title=" ">
<polygon fill="none" stroke="#bfbfbf" points="104,-168.5 104,-187.5 166,-187.5 166,-168.5 104,-168.5"/>
<text text-anchor="middle" x="135" y="-175.5" font-family="Helvetica,sans-Serif" font-size="10.00">stdbool.h</text>
</a>
</g>
</g>
<!-- Node1&#45;&gt;Node2 -->
<g id="edge1" class="edge">
<title>Node1&#45;&gt;Node2</title>
<path fill="none" stroke="midnightblue" d="M644.84,-455.16C517.02,-449.78 217.96,-429.45 155,-356 115.85,-310.32 118.44,-283.8 125,-224 125.97,-215.14 127.99,-205.47 129.96,-197.38"/>
<polygon fill="midnightblue" stroke="midnightblue" points="133.39,-198.09 132.52,-187.53 126.62,-196.33 133.39,-198.09"/>
</g>
<!-- Node3 -->
<g id="node3" class="node">
<title>Node3</title>
<g id="a_node3"><a xlink:title=" ">
<polygon fill="none" stroke="#bfbfbf" points="684.5,-0.5 684.5,-19.5 737.5,-19.5 737.5,-0.5 684.5,-0.5"/>
<text text-anchor="middle" x="711" y="-7.5" font-family="Helvetica,sans-Serif" font-size="10.00">stdint.h</text>
</a>
</g>
</g>
<!-- Node1&#45;&gt;Node3 -->
<g id="edge2" class="edge">
<title>Node1&#45;&gt;Node3</title>
<path fill="none" stroke="midnightblue" d="M761.06,-454.93C827.39,-451.2 929.89,-440.82 954,-412 1016.61,-337.16 868.21,-91.77 830,-56 807.23,-34.68 773.36,-23.18 747.57,-17.17"/>
<polygon fill="midnightblue" stroke="midnightblue" points="748.28,-13.74 737.77,-15.05 746.8,-20.58 748.28,-13.74"/>
</g>
<!-- Node4 -->
<g id="node4" class="node">
<title>Node4</title>
<g id="a_node4"><a xlink:href="timex_8h.html" target="_top" xlink:title="Utility library for comparing and computing timestamps.">
<polygon fill="none" stroke="black" points="989,-168.5 989,-187.5 1043,-187.5 1043,-168.5 989,-168.5"/>
<text text-anchor="middle" x="1016" y="-175.5" font-family="Helvetica,sans-Serif" font-size="10.00">timex.h</text>
</a>
</g>
</g>
<!-- Node1&#45;&gt;Node4 -->
<g id="edge3" class="edge">
<title>Node1&#45;&gt;Node4</title>
<path fill="none" stroke="midnightblue" d="M761.1,-454.6C833.95,-450.47 953.38,-439.59 987,-412 1010.81,-392.47 1011,-377.8 1011,-347 1011,-347 1011,-347 1011,-289 1011,-256.91 1013.15,-219.62 1014.63,-197.74"/>
<polygon fill="midnightblue" stroke="midnightblue" points="1018.14,-197.77 1015.35,-187.55 1011.15,-197.28 1018.14,-197.77"/>
</g>
<!-- Node6 -->
<g id="node6" class="node">
<title>Node6</title>
<g id="a_node6"><a xlink:href="mutex_8h.html" target="_top" xlink:title="Mutex for thread synchronization.">
<polygon fill="none" stroke="black" points="164.5,-336.5 164.5,-355.5 221.5,-355.5 221.5,-336.5 164.5,-336.5"/>
<text text-anchor="middle" x="193" y="-343.5" font-family="Helvetica,sans-Serif" font-size="10.00">mutex.h</text>
</a>
</g>
</g>
<!-- Node1&#45;&gt;Node6 -->
<g id="edge6" class="edge">
<title>Node1&#45;&gt;Node6</title>
<path fill="none" stroke="midnightblue" d="M644.94,-454.95C572.59,-451.23 445.71,-440.84 341,-412 295.54,-399.48 246.01,-375.4 217.32,-360.32"/>
<polygon fill="midnightblue" stroke="midnightblue" points="218.9,-357.2 208.43,-355.58 215.61,-363.38 218.9,-357.2"/>
</g>
<!-- Node18 -->
<g id="node18" class="node">
<title>Node18</title>
<g id="a_node18"><a xlink:href="sched_8h.html" target="_top" xlink:title="Scheduler API definition.">
<polygon fill="none" stroke="black" points="315,-168.5 315,-187.5 369,-187.5 369,-168.5 315,-168.5"/>
<text text-anchor="middle" x="342" y="-175.5" font-family="Helvetica,sans-Serif" font-size="10.00">sched.h</text>
</a>
</g>
</g>
<!-- Node1&#45;&gt;Node18 -->
<g id="edge35" class="edge">
<title>Node1&#45;&gt;Node18</title>
<path fill="none" stroke="midnightblue" d="M695.88,-448.13C668.47,-414.47 565.76,-293.04 457,-224 432.77,-208.62 402.43,-197.02 379,-189.45"/>
<polygon fill="midnightblue" stroke="midnightblue" points="380.01,-186.1 369.42,-186.45 377.92,-192.78 380.01,-186.1"/>
</g>
<!-- Node20 -->
<g id="node20" class="node">
<title>Node20</title>
<g id="a_node20"><a xlink:href="rmutex_8h.html" target="_top" xlink:title="Recursive Mutex for thread synchronization.">
<polygon fill="none" stroke="black" points="349.5,-392.5 349.5,-411.5 410.5,-411.5 410.5,-392.5 349.5,-392.5"/>
<text text-anchor="middle" x="380" y="-399.5" font-family="Helvetica,sans-Serif" font-size="10.00">rmutex.h</text>
</a>
</g>
</g>
<!-- Node1&#45;&gt;Node20 -->
<g id="edge36" class="edge">
<title>Node1&#45;&gt;Node20</title>
<path fill="none" stroke="midnightblue" d="M651.82,-448.44C587.72,-437.73 479.19,-419.58 420.54,-409.78"/>
<polygon fill="midnightblue" stroke="midnightblue" points="420.97,-406.3 410.53,-408.1 419.82,-413.21 420.97,-406.3"/>
</g>
<!-- Node22 -->
<g id="node22" class="node">
<title>Node22</title>
<g id="a_node22"><a xlink:title=" ">
<polygon fill="none" stroke="#bfbfbf" points="1039.5,-392.5 1039.5,-411.5 1092.5,-411.5 1092.5,-392.5 1039.5,-392.5"/>
<text text-anchor="middle" x="1066" y="-399.5" font-family="Helvetica,sans-Serif" font-size="10.00">board.h</text>
</a>
</g>
</g>
<!-- Node1&#45;&gt;Node22 -->
<g id="edge41" class="edge">
<title>Node1&#45;&gt;Node22</title>
<path fill="none" stroke="midnightblue" d="M761.09,-450.25C825.74,-442.43 933.19,-428.47 1025,-412 1026.29,-411.77 1027.6,-411.52 1028.93,-411.27"/>
<polygon fill="midnightblue" stroke="midnightblue" points="1030.05,-414.62 1039.15,-409.2 1028.66,-407.76 1030.05,-414.62"/>
</g>
<!-- Node23 -->
<g id="node23" class="node">
<title>Node23</title>
<g id="a_node23"><a xlink:title=" ">
<polygon fill="none" stroke="#bfbfbf" points="825,-280.5 825,-299.5 907,-299.5 907,-280.5 825,-280.5"/>
<text text-anchor="middle" x="866" y="-287.5" font-family="Helvetica,sans-Serif" font-size="10.00">periph_conf.h</text>
</a>
</g>
</g>
<!-- Node1&#45;&gt;Node23 -->
<g id="edge42" class="edge">
<title>Node1&#45;&gt;Node23</title>
<path fill="none" stroke="midnightblue" d="M711.76,-448.08C738.09,-421.27 816.72,-341.19 850.4,-306.89"/>
<polygon fill="midnightblue" stroke="midnightblue" points="853.08,-309.16 857.59,-299.57 848.08,-304.25 853.08,-309.16"/>
</g>
<!-- Node24 -->
<g id="node24" class="node">
<title>Node24</title>
<g id="a_node24"><a xlink:href="tick__conversion_8h.html" target="_top" xlink:title="xtimer tick &lt;&#45;&gt; seconds conversions for different values of XTIMER_HZ">
<polygon fill="none" stroke="black" points="807.5,-392.5 807.5,-411.5 944.5,-411.5 944.5,-392.5 807.5,-392.5"/>
<text text-anchor="middle" x="876" y="-399.5" font-family="Helvetica,sans-Serif" font-size="10.00">xtimer/tick_conversion.h</text>
</a>
</g>
</g>
<!-- Node1&#45;&gt;Node24 -->
<g id="edge43" class="edge">
<title>Node1&#45;&gt;Node24</title>
<path fill="none" stroke="midnightblue" d="M730.41,-448.44C759.77,-439.28 806.52,-424.69 839.1,-414.52"/>
<polygon fill="midnightblue" stroke="midnightblue" points="840.21,-417.84 848.72,-411.52 838.13,-411.16 840.21,-417.84"/>
</g>
<!-- Node26 -->
<g id="node26" class="node">
<title>Node26</title>
<g id="a_node26"><a xlink:href="implementation_8h.html" target="_top" xlink:title="xtimer implementation">
<polygon fill="none" stroke="black" points="460.5,-392.5 460.5,-411.5 599.5,-411.5 599.5,-392.5 460.5,-392.5"/>
<text text-anchor="middle" x="530" y="-399.5" font-family="Helvetica,sans-Serif" font-size="10.00">xtimer/implementation.h</text>
</a>
</g>
</g>
<!-- Node1&#45;&gt;Node26 -->
<g id="edge47" class="edge">
<title>Node1&#45;&gt;Node26</title>
<path fill="none" stroke="midnightblue" d="M675.59,-448.44C646.23,-439.28 599.48,-424.69 566.9,-414.52"/>
<polygon fill="midnightblue" stroke="midnightblue" points="567.87,-411.16 557.28,-411.52 565.79,-417.84 567.87,-411.16"/>
</g>
<!-- Node4&#45;&gt;Node3 -->
<g id="edge4" class="edge">
<title>Node4&#45;&gt;Node3</title>
<path fill="none" stroke="midnightblue" d="M1028.54,-168.4C1044.74,-156.18 1069.56,-132.93 1058,-112 1035.41,-71.09 1012.62,-72.78 969,-56 893.72,-27.05 798.9,-16.61 747.75,-12.93"/>
<polygon fill="midnightblue" stroke="midnightblue" points="747.74,-9.43 737.53,-12.25 747.27,-16.41 747.74,-9.43"/>
</g>
<!-- Node5 -->
<g id="node5" class="node">
<title>Node5</title>
<g id="a_node5"><a xlink:href="inttypes_8h.html" target="_top" xlink:title="Adds include for missing inttype definitions.">
<polygon fill="none" stroke="black" points="983.5,-112.5 983.5,-131.5 1048.5,-131.5 1048.5,-112.5 983.5,-112.5"/>
<text text-anchor="middle" x="1016" y="-119.5" font-family="Helvetica,sans-Serif" font-size="10.00">inttypes.h</text>
</a>
</g>
</g>
<!-- Node4&#45;&gt;Node5 -->
<g id="edge5" class="edge">
<title>Node4&#45;&gt;Node5</title>
<path fill="none" stroke="midnightblue" d="M1016,-168.08C1016,-161.01 1016,-150.86 1016,-141.99"/>
<polygon fill="midnightblue" stroke="midnightblue" points="1019.5,-141.75 1016,-131.75 1012.5,-141.75 1019.5,-141.75"/>
</g>
<!-- Node6&#45;&gt;Node3 -->
<g id="edge8" class="edge">
<title>Node6&#45;&gt;Node3</title>
<path fill="none" stroke="midnightblue" d="M221.63,-338.2C224.79,-337.45 227.96,-336.71 231,-336 300.72,-319.75 321.78,-327.2 388,-300 475.5,-264.06 510.57,-262.4 569,-188 607.11,-139.48 570.87,-102 612,-56 628.33,-37.74 653.54,-26.43 674.44,-19.71"/>
<polygon fill="midnightblue" stroke="midnightblue" points="675.7,-22.99 684.29,-16.78 673.7,-16.28 675.7,-22.99"/>
</g>
<!-- Node7 -->
<g id="node7" class="node">
<title>Node7</title>
<g id="a_node7"><a xlink:title=" ">
<polygon fill="none" stroke="#bfbfbf" points="230,-0.5 230,-19.5 286,-19.5 286,-0.5 230,-0.5"/>
<text text-anchor="middle" x="258" y="-7.5" font-family="Helvetica,sans-Serif" font-size="10.00">stddef.h</text>
</a>
</g>
</g>
<!-- Node6&#45;&gt;Node7 -->
<g id="edge7" class="edge">
<title>Node6&#45;&gt;Node7</title>
<path fill="none" stroke="midnightblue" d="M166.97,-336.49C114.29,-317.43 0,-266.07 0,-179 0,-179 0,-179 0,-121 0,-26.55 148.1,-12.08 219.89,-10.61"/>
<polygon fill="midnightblue" stroke="midnightblue" points="219.94,-14.11 229.9,-10.48 219.85,-7.11 219.94,-14.11"/>
</g>
<!-- Node8 -->
<g id="node8" class="node">
<title>Node8</title>
<g id="a_node8"><a xlink:href="irq_8h.html" target="_top" xlink:title="IRQ driver interface.">
<polygon fill="none" stroke="black" points="166,-280.5 166,-299.5 204,-299.5 204,-280.5 166,-280.5"/>
<text text-anchor="middle" x="185" y="-287.5" font-family="Helvetica,sans-Serif" font-size="10.00">irq.h</text>
</a>
</g>
</g>
<!-- Node6&#45;&gt;Node8 -->
<g id="edge9" class="edge">
<title>Node6&#45;&gt;Node8</title>
<path fill="none" stroke="midnightblue" d="M191.68,-336.08C190.62,-328.93 189.09,-318.64 187.77,-309.69"/>
<polygon fill="midnightblue" stroke="midnightblue" points="191.22,-309.13 186.3,-299.75 184.3,-310.16 191.22,-309.13"/>
</g>
<!-- Node10 -->
<g id="node10" class="node">
<title>Node10</title>
<g id="a_node10"><a xlink:href="kernel__defines_8h.html" target="_top" xlink:title="Common macros and compiler attributes/pragmas configuration.">
<polygon fill="none" stroke="black" points="431.5,-56.5 431.5,-75.5 528.5,-75.5 528.5,-56.5 431.5,-56.5"/>
<text text-anchor="middle" x="480" y="-63.5" font-family="Helvetica,sans-Serif" font-size="10.00">kernel_defines.h</text>
</a>
</g>
</g>
<!-- Node6&#45;&gt;Node10 -->
<g id="edge12" class="edge">
<title>Node6&#45;&gt;Node10</title>
<path fill="none" stroke="midnightblue" d="M221.94,-337.91C284.02,-322.11 426.78,-282.35 457,-244 493.87,-197.2 488.33,-120.86 483.29,-85.75"/>
<polygon fill="midnightblue" stroke="midnightblue" points="486.69,-84.85 481.66,-75.52 479.78,-85.95 486.69,-84.85"/>
</g>
<!-- Node11 -->
<g id="node11" class="node">
<title>Node11</title>
<g id="a_node11"><a xlink:href="list_8h.html" target="_top" xlink:title="Intrusive linked list.">
<polygon fill="none" stroke="black" points="97.5,-56.5 97.5,-75.5 138.5,-75.5 138.5,-56.5 97.5,-56.5"/>
<text text-anchor="middle" x="118" y="-63.5" font-family="Helvetica,sans-Serif" font-size="10.00">list.h</text>
</a>
</g>
</g>
<!-- Node6&#45;&gt;Node11 -->
<g id="edge15" class="edge">
<title>Node6&#45;&gt;Node11</title>
<path fill="none" stroke="midnightblue" d="M171.54,-336.46C137.76,-321.43 76,-286.86 76,-235 76,-235 76,-235 76,-177 76,-142.41 94.35,-105.49 106.79,-84.43"/>
<polygon fill="midnightblue" stroke="midnightblue" points="109.91,-86.04 112.16,-75.69 103.94,-82.38 109.91,-86.04"/>
</g>
<!-- Node12 -->
<g id="node12" class="node">
<title>Node12</title>
<g id="a_node12"><a xlink:href="core_2include_2thread_8h.html" target="_top" xlink:title="Threading API.">
<polygon fill="none" stroke="black" points="237.5,-280.5 237.5,-299.5 294.5,-299.5 294.5,-280.5 237.5,-280.5"/>
<text text-anchor="middle" x="266" y="-287.5" font-family="Helvetica,sans-Serif" font-size="10.00">thread.h</text>
</a>
</g>
</g>
<!-- Node6&#45;&gt;Node12 -->
<g id="edge16" class="edge">
<title>Node6&#45;&gt;Node12</title>
<path fill="none" stroke="midnightblue" d="M204.73,-336.32C215.84,-328.11 232.74,-315.6 245.98,-305.81"/>
<polygon fill="midnightblue" stroke="midnightblue" points="248.1,-308.59 254.06,-299.83 243.94,-302.97 248.1,-308.59"/>
</g>
<!-- Node8&#45;&gt;Node2 -->
<g id="edge10" class="edge">
<title>Node8&#45;&gt;Node2</title>
<path fill="none" stroke="midnightblue" d="M169.22,-280.47C156.8,-272.77 140.39,-260.18 133,-244 126.4,-229.56 127.65,-211.37 130.13,-197.91"/>
<polygon fill="midnightblue" stroke="midnightblue" points="133.6,-198.42 132.34,-187.9 126.76,-196.9 133.6,-198.42"/>
</g>
<!-- Node9 -->
<g id="node9" class="node">
<title>Node9</title>
<g id="a_node9"><a xlink:title=" ">
<polygon fill="none" stroke="#bfbfbf" points="142,-224.5 142,-243.5 210,-243.5 210,-224.5 142,-224.5"/>
<text text-anchor="middle" x="176" y="-231.5" font-family="Helvetica,sans-Serif" font-size="10.00">cpu_conf.h</text>
</a>
</g>
</g>
<!-- Node8&#45;&gt;Node9 -->
<g id="edge11" class="edge">
<title>Node8&#45;&gt;Node9</title>
<path fill="none" stroke="midnightblue" d="M183.51,-280.08C182.32,-272.93 180.61,-262.64 179.12,-253.69"/>
<polygon fill="midnightblue" stroke="midnightblue" points="182.55,-253.04 177.46,-243.75 175.65,-254.19 182.55,-253.04"/>
</g>
<!-- Node10&#45;&gt;Node3 -->
<g id="edge14" class="edge">
<title>Node10&#45;&gt;Node3</title>
<path fill="none" stroke="midnightblue" d="M516.6,-56.44C559.83,-46.34 631.29,-29.63 674.48,-19.54"/>
<polygon fill="midnightblue" stroke="midnightblue" points="675.35,-22.93 684.29,-17.24 673.76,-16.11 675.35,-22.93"/>
</g>
<!-- Node10&#45;&gt;Node7 -->
<g id="edge13" class="edge">
<title>Node10&#45;&gt;Node7</title>
<path fill="none" stroke="midnightblue" d="M444.82,-56.44C404.27,-46.58 337.87,-30.43 296.12,-20.27"/>
<polygon fill="midnightblue" stroke="midnightblue" points="296.86,-16.85 286.32,-17.89 295.21,-23.65 296.86,-16.85"/>
</g>
<!-- Node12&#45;&gt;Node9 -->
<g id="edge33" class="edge">
<title>Node12&#45;&gt;Node9</title>
<path fill="none" stroke="midnightblue" d="M251.54,-280.32C237.5,-271.9 215.95,-258.97 199.46,-249.07"/>
<polygon fill="midnightblue" stroke="midnightblue" points="200.8,-245.8 190.42,-243.65 197.2,-251.8 200.8,-245.8"/>
</g>
<!-- Node13 -->
<g id="node13" class="node">
<title>Node13</title>
<g id="a_node13"><a xlink:href="clist_8h.html" target="_top" xlink:title="Circular linked list.">
<polygon fill="none" stroke="black" points="184,-112.5 184,-131.5 230,-131.5 230,-112.5 184,-112.5"/>
<text text-anchor="middle" x="207" y="-119.5" font-family="Helvetica,sans-Serif" font-size="10.00">clist.h</text>
</a>
</g>
</g>
<!-- Node12&#45;&gt;Node13 -->
<g id="edge17" class="edge">
<title>Node12&#45;&gt;Node13</title>
<path fill="none" stroke="midnightblue" d="M262.83,-280.08C253.5,-253.83 226.03,-176.55 213.44,-141.12"/>
<polygon fill="midnightblue" stroke="midnightblue" points="216.69,-139.82 210.05,-131.57 210.1,-142.16 216.69,-139.82"/>
</g>
<!-- Node14 -->
<g id="node14" class="node">
<title>Node14</title>
<g id="a_node14"><a xlink:href="cib_8h.html" target="_top" xlink:title="Circular integer buffer interface.">
<polygon fill="none" stroke="black" points="408,-224.5 408,-243.5 448,-243.5 448,-224.5 408,-224.5"/>
<text text-anchor="middle" x="428" y="-231.5" font-family="Helvetica,sans-Serif" font-size="10.00">cib.h</text>
</a>
</g>
</g>
<!-- Node12&#45;&gt;Node14 -->
<g id="edge20" class="edge">
<title>Node12&#45;&gt;Node14</title>
<path fill="none" stroke="midnightblue" d="M291.67,-280.44C320.53,-270.82 367.33,-255.22 397.89,-245.04"/>
<polygon fill="midnightblue" stroke="midnightblue" points="399.2,-248.29 407.58,-241.81 396.99,-241.65 399.2,-248.29"/>
</g>
<!-- Node17 -->
<g id="node17" class="node">
<title>Node17</title>
<g id="a_node17"><a xlink:href="msg_8h.html" target="_top" xlink:title="Messaging API for inter process communication.">
<polygon fill="none" stroke="black" points="266.5,-224.5 266.5,-243.5 313.5,-243.5 313.5,-224.5 266.5,-224.5"/>
<text text-anchor="middle" x="290" y="-231.5" font-family="Helvetica,sans-Serif" font-size="10.00">msg.h</text>
</a>
</g>
</g>
<!-- Node12&#45;&gt;Node17 -->
<g id="edge24" class="edge">
<title>Node12&#45;&gt;Node17</title>
<path fill="none" stroke="midnightblue" d="M269.96,-280.08C273.21,-272.77 277.92,-262.18 281.95,-253.1"/>
<polygon fill="midnightblue" stroke="midnightblue" points="285.25,-254.31 286.11,-243.75 278.85,-251.47 285.25,-254.31"/>
</g>
<!-- Node12&#45;&gt;Node18 -->
<g id="edge34" class="edge">
<title>Node12&#45;&gt;Node18</title>
<path fill="none" stroke="midnightblue" d="M281.53,-280.46C294.44,-272.6 312.35,-259.78 323,-244 332.35,-230.14 337.17,-211.63 339.62,-197.9"/>
<polygon fill="midnightblue" stroke="midnightblue" points="343.12,-198.12 341.15,-187.71 336.2,-197.07 343.12,-198.12"/>
</g>
<!-- Node13&#45;&gt;Node7 -->
<g id="edge18" class="edge">
<title>Node13&#45;&gt;Node7</title>
<path fill="none" stroke="midnightblue" d="M211,-112.37C219.31,-94.46 238.56,-52.92 249.68,-28.95"/>
<polygon fill="midnightblue" stroke="midnightblue" points="252.99,-30.14 254.02,-19.59 246.64,-27.19 252.99,-30.14"/>
</g>
<!-- Node13&#45;&gt;Node11 -->
<g id="edge19" class="edge">
<title>Node13&#45;&gt;Node11</title>
<path fill="none" stroke="midnightblue" d="M192.7,-112.32C178.82,-103.9 157.51,-90.97 141.2,-81.07"/>
<polygon fill="midnightblue" stroke="midnightblue" points="142.63,-77.85 132.26,-75.65 139,-83.83 142.63,-77.85"/>
</g>
<!-- Node15 -->
<g id="node15" class="node">
<title>Node15</title>
<g id="a_node15"><a xlink:href="assert_8h.html" target="_top" xlink:title="POSIX.1&#45;2008 compliant version of the assert macro.">
<polygon fill="none" stroke="black" points="504,-168.5 504,-187.5 560,-187.5 560,-168.5 504,-168.5"/>
<text text-anchor="middle" x="532" y="-175.5" font-family="Helvetica,sans-Serif" font-size="10.00">assert.h</text>
</a>
</g>
</g>
<!-- Node14&#45;&gt;Node15 -->
<g id="edge21" class="edge">
<title>Node14&#45;&gt;Node15</title>
<path fill="none" stroke="midnightblue" d="M444.71,-224.32C461.31,-215.7 487,-202.36 506.22,-192.39"/>
<polygon fill="midnightblue" stroke="midnightblue" points="508.07,-195.37 515.33,-187.65 504.84,-189.16 508.07,-195.37"/>
</g>
<!-- Node16 -->
<g id="node16" class="node">
<title>Node16</title>
<g id="a_node16"><a xlink:href="panic_8h.html" target="_top" xlink:title="Crash handling header.">
<polygon fill="none" stroke="black" points="508,-112.5 508,-131.5 560,-131.5 560,-112.5 508,-112.5"/>
<text text-anchor="middle" x="534" y="-119.5" font-family="Helvetica,sans-Serif" font-size="10.00">panic.h</text>
</a>
</g>
</g>
<!-- Node15&#45;&gt;Node16 -->
<g id="edge22" class="edge">
<title>Node15&#45;&gt;Node16</title>
<path fill="none" stroke="midnightblue" d="M532.33,-168.08C532.59,-161.01 532.97,-150.86 533.3,-141.99"/>
<polygon fill="midnightblue" stroke="midnightblue" points="536.8,-141.87 533.68,-131.75 529.81,-141.61 536.8,-141.87"/>
</g>
<!-- Node16&#45;&gt;Node10 -->
<g id="edge23" class="edge">
<title>Node16&#45;&gt;Node10</title>
<path fill="none" stroke="midnightblue" d="M525.08,-112.08C517.22,-104.22 505.57,-92.57 496.08,-83.08"/>
<polygon fill="midnightblue" stroke="midnightblue" points="498.3,-80.35 488.75,-75.75 493.35,-85.3 498.3,-80.35"/>
</g>
<!-- Node17&#45;&gt;Node2 -->
<g id="edge26" class="edge">
<title>Node17&#45;&gt;Node2</title>
<path fill="none" stroke="midnightblue" d="M266.46,-224.8C240.51,-215.76 198.55,-201.14 169.03,-190.85"/>
<polygon fill="midnightblue" stroke="midnightblue" points="170.13,-187.53 159.53,-187.55 167.82,-194.14 170.13,-187.53"/>
</g>
<!-- Node17&#45;&gt;Node3 -->
<g id="edge25" class="edge">
<title>Node17&#45;&gt;Node3</title>
<path fill="none" stroke="midnightblue" d="M291.31,-224.34C293.4,-211.64 298.11,-187.37 306,-168 333.16,-101.34 355.93,-82.13 423,-56 508.72,-22.6 617.92,-13.95 674.03,-11.73"/>
<polygon fill="midnightblue" stroke="midnightblue" points="674.33,-15.23 684.2,-11.38 674.08,-8.23 674.33,-15.23"/>
</g>
<!-- Node17&#45;&gt;Node18 -->
<g id="edge27" class="edge">
<title>Node17&#45;&gt;Node18</title>
<path fill="none" stroke="midnightblue" d="M298.59,-224.08C306.16,-216.22 317.38,-204.57 326.51,-195.08"/>
<polygon fill="midnightblue" stroke="midnightblue" points="329.16,-197.38 333.57,-187.75 324.12,-192.53 329.16,-197.38"/>
</g>
<!-- Node18&#45;&gt;Node5 -->
<g id="edge29" class="edge">
<title>Node18&#45;&gt;Node5</title>
<path fill="none" stroke="midnightblue" d="M369.26,-174.82C473.34,-166.48 846.24,-136.6 973.27,-126.42"/>
<polygon fill="midnightblue" stroke="midnightblue" points="973.7,-129.9 983.39,-125.61 973.14,-122.92 973.7,-129.9"/>
</g>
<!-- Node18&#45;&gt;Node7 -->
<g id="edge28" class="edge">
<title>Node18&#45;&gt;Node7</title>
<path fill="none" stroke="midnightblue" d="M337.48,-168.08C324.15,-141.72 284.76,-63.88 266.94,-28.66"/>
<polygon fill="midnightblue" stroke="midnightblue" points="269.97,-26.91 262.34,-19.57 263.73,-30.07 269.97,-26.91"/>
</g>
<!-- Node18&#45;&gt;Node10 -->
<g id="edge30" class="edge">
<title>Node18&#45;&gt;Node10</title>
<path fill="none" stroke="midnightblue" d="M340.91,-168.29C339.7,-154.65 339.45,-128.12 353,-112 370,-91.78 396.72,-80.64 421.27,-74.51"/>
<polygon fill="midnightblue" stroke="midnightblue" points="422.28,-77.86 431.26,-72.25 420.74,-71.04 422.28,-77.86"/>
</g>
<!-- Node18&#45;&gt;Node13 -->
<g id="edge32" class="edge">
<title>Node18&#45;&gt;Node13</title>
<path fill="none" stroke="midnightblue" d="M320.61,-168.44C298.29,-159.52 263.1,-145.44 237.79,-135.32"/>
<polygon fill="midnightblue" stroke="midnightblue" points="238.88,-131.98 228.29,-131.52 236.28,-138.48 238.88,-131.98"/>
</g>
<!-- Node19 -->
<g id="node19" class="node">
<title>Node19</title>
<g id="a_node19"><a xlink:href="native__sched_8h.html" target="_top" xlink:title="Add definitions required on the native board.">
<polygon fill="none" stroke="black" points="362,-112.5 362,-131.5 452,-131.5 452,-112.5 362,-112.5"/>
<text text-anchor="middle" x="407" y="-119.5" font-family="Helvetica,sans-Serif" font-size="10.00">native_sched.h</text>
</a>
</g>
</g>
<!-- Node18&#45;&gt;Node19 -->
<g id="edge31" class="edge">
<title>Node18&#45;&gt;Node19</title>
<path fill="none" stroke="midnightblue" d="M352.44,-168.32C362.15,-160.26 376.82,-148.08 388.5,-138.37"/>
<polygon fill="midnightblue" stroke="midnightblue" points="390.91,-140.92 396.37,-131.83 386.44,-135.53 390.91,-140.92"/>
</g>
<!-- Node20&#45;&gt;Node3 -->
<g id="edge37" class="edge">
<title>Node20&#45;&gt;Node3</title>
<path fill="none" stroke="midnightblue" d="M389.86,-392.31C421.1,-364.49 519.8,-274.42 588,-188 632.33,-131.83 679.06,-60.82 699.87,-28.48"/>
<polygon fill="midnightblue" stroke="midnightblue" points="703.02,-30.05 705.47,-19.74 697.13,-26.27 703.02,-30.05"/>
</g>
<!-- Node20&#45;&gt;Node6 -->
<g id="edge39" class="edge">
<title>Node20&#45;&gt;Node6</title>
<path fill="none" stroke="midnightblue" d="M350.37,-392.44C318.22,-383.16 266.77,-368.3 231.51,-358.12"/>
<polygon fill="midnightblue" stroke="midnightblue" points="232.15,-354.66 221.57,-355.25 230.21,-361.39 232.15,-354.66"/>
</g>
<!-- Node20&#45;&gt;Node18 -->
<g id="edge40" class="edge">
<title>Node20&#45;&gt;Node18</title>
<path fill="none" stroke="midnightblue" d="M378.51,-392.3C372.92,-359.63 353.1,-243.87 345.24,-197.96"/>
<polygon fill="midnightblue" stroke="midnightblue" points="348.66,-197.15 343.52,-187.88 341.76,-198.33 348.66,-197.15"/>
</g>
<!-- Node21 -->
<g id="node21" class="node">
<title>Node21</title>
<g id="a_node21"><a xlink:title=" ">
<polygon fill="none" stroke="#bfbfbf" points="240,-336.5 240,-355.5 314,-355.5 314,-336.5 240,-336.5"/>
<text text-anchor="middle" x="277" y="-343.5" font-family="Helvetica,sans-Serif" font-size="10.00">stdatomic.h</text>
</a>
</g>
</g>
<!-- Node20&#45;&gt;Node21 -->
<g id="edge38" class="edge">
<title>Node20&#45;&gt;Node21</title>
<path fill="none" stroke="midnightblue" d="M363.45,-392.32C347.01,-383.7 321.57,-370.36 302.53,-360.39"/>
<polygon fill="midnightblue" stroke="midnightblue" points="303.99,-357.2 293.51,-355.65 300.74,-363.4 303.99,-357.2"/>
</g>
<!-- Node25 -->
<g id="node25" class="node">
<title>Node25</title>
<g id="a_node25"><a xlink:href="div_8h.html" target="_top" xlink:title=" ">
<polygon fill="none" stroke="black" points="825,-224.5 825,-243.5 865,-243.5 865,-224.5 825,-224.5"/>
<text text-anchor="middle" x="845" y="-231.5" font-family="Helvetica,sans-Serif" font-size="10.00">div.h</text>
</a>
</g>
</g>
<!-- Node24&#45;&gt;Node25 -->
<g id="edge44" class="edge">
<title>Node24&#45;&gt;Node25</title>
<path fill="none" stroke="midnightblue" d="M883.46,-392.35C900.18,-371.86 937.54,-319.16 916,-280 907.09,-263.8 889.6,-252.61 874.22,-245.44"/>
<polygon fill="midnightblue" stroke="midnightblue" points="875.58,-242.22 865.01,-241.49 872.82,-248.65 875.58,-242.22"/>
</g>
<!-- Node25&#45;&gt;Node3 -->
<g id="edge46" class="edge">
<title>Node25&#45;&gt;Node3</title>
<path fill="none" stroke="midnightblue" d="M845.94,-224.12C848.42,-196.1 852.33,-108.29 811,-56 795.41,-36.27 769.28,-24.92 747.65,-18.56"/>
<polygon fill="midnightblue" stroke="midnightblue" points="748.33,-15.12 737.77,-15.89 746.51,-21.88 748.33,-15.12"/>
</g>
<!-- Node25&#45;&gt;Node15 -->
<g id="edge45" class="edge">
<title>Node25&#45;&gt;Node15</title>
<path fill="none" stroke="midnightblue" d="M824.94,-229.54C773.71,-220.7 637.37,-197.18 570.32,-185.61"/>
<polygon fill="midnightblue" stroke="midnightblue" points="570.62,-182.11 560.17,-183.86 569.43,-189.01 570.62,-182.11"/>
</g>
<!-- Node26&#45;&gt;Node8 -->
<g id="edge53" class="edge">
<title>Node26&#45;&gt;Node8</title>
<path fill="none" stroke="midnightblue" d="M503.22,-392.46C439.5,-372.14 279.33,-321.07 213.71,-300.15"/>
<polygon fill="midnightblue" stroke="midnightblue" points="214.61,-296.77 204.02,-297.06 212.49,-303.44 214.61,-296.77"/>
</g>
<!-- Node27 -->
<g id="node27" class="node">
<title>Node27</title>
<g id="a_node27"><a xlink:href="drivers_2include_2periph_2timer_8h.html" target="_top" xlink:title="Low&#45;level timer peripheral driver interface definitions.">
<polygon fill="none" stroke="black" points="665,-336.5 665,-355.5 751,-355.5 751,-336.5 665,-336.5"/>
<text text-anchor="middle" x="708" y="-343.5" font-family="Helvetica,sans-Serif" font-size="10.00">periph/timer.h</text>
</a>
</g>
</g>
<!-- Node26&#45;&gt;Node27 -->
<g id="edge48" class="edge">
<title>Node26&#45;&gt;Node27</title>
<path fill="none" stroke="midnightblue" d="M558.2,-392.44C588.41,-383.28 636.51,-368.69 670.03,-358.52"/>
<polygon fill="midnightblue" stroke="midnightblue" points="671.37,-361.77 679.93,-355.52 669.34,-355.07 671.37,-361.77"/>
</g>
<!-- Node27&#45;&gt;Node3 -->
<g id="edge50" class="edge">
<title>Node27&#45;&gt;Node3</title>
<path fill="none" stroke="midnightblue" d="M728.99,-336.42C744.67,-328.99 765.46,-316.78 778,-300 796.02,-275.89 797,-265.1 797,-235 797,-235 797,-235 797,-121 797,-79.58 758.69,-44.45 733.21,-25.67"/>
<polygon fill="midnightblue" stroke="midnightblue" points="735,-22.64 724.82,-19.72 730.95,-28.36 735,-22.64"/>
</g>
<!-- Node27&#45;&gt;Node23 -->
<g id="edge52" class="edge">
<title>Node27&#45;&gt;Node23</title>
<path fill="none" stroke="midnightblue" d="M733.04,-336.44C759.62,-327.36 801.81,-312.94 831.52,-302.78"/>
<polygon fill="midnightblue" stroke="midnightblue" points="832.75,-306.06 841.08,-299.52 830.49,-299.44 832.75,-306.06"/>
</g>
<!-- Node28 -->
<g id="node28" class="node">
<title>Node28</title>
<g id="a_node28"><a xlink:title=" ">
<polygon fill="none" stroke="#bfbfbf" points="618.5,-280.5 618.5,-299.5 671.5,-299.5 671.5,-280.5 618.5,-280.5"/>
<text text-anchor="middle" x="645" y="-287.5" font-family="Helvetica,sans-Serif" font-size="10.00">limits.h</text>
</a>
</g>
</g>
<!-- Node27&#45;&gt;Node28 -->
<g id="edge49" class="edge">
<title>Node27&#45;&gt;Node28</title>
<path fill="none" stroke="midnightblue" d="M697.88,-336.32C688.47,-328.26 674.26,-316.08 662.93,-306.37"/>
<polygon fill="midnightblue" stroke="midnightblue" points="665.18,-303.68 655.31,-299.83 660.62,-309 665.18,-303.68"/>
</g>
<!-- Node29 -->
<g id="node29" class="node">
<title>Node29</title>
<g id="a_node29"><a xlink:title=" ">
<polygon fill="none" stroke="#bfbfbf" points="689.5,-280.5 689.5,-299.5 768.5,-299.5 768.5,-280.5 689.5,-280.5"/>
<text text-anchor="middle" x="729" y="-287.5" font-family="Helvetica,sans-Serif" font-size="10.00">periph_cpu.h</text>
</a>
</g>
</g>
<!-- Node27&#45;&gt;Node29 -->
<g id="edge51" class="edge">
<title>Node27&#45;&gt;Node29</title>
<path fill="none" stroke="midnightblue" d="M711.47,-336.08C714.31,-328.77 718.43,-318.18 721.96,-309.1"/>
<polygon fill="midnightblue" stroke="midnightblue" points="725.23,-310.34 725.6,-299.75 718.71,-307.8 725.23,-310.34"/>
</g>
</g>
</svg>
