<?xml version="1.0" encoding="UTF-8" standalone="no"?>
<!DOCTYPE svg PUBLIC "-//W3C//DTD SVG 1.1//EN"
 "http://www.w3.org/Graphics/SVG/1.1/DTD/svg11.dtd">
<!-- Generated by graphviz version 2.43.0 (0)
 -->
<!-- Title: sys/include/ztimer/xtimer_compat.h Pages: 1 -->
<svg width="762pt" height="431pt"
 viewBox="0.00 0.00 762.00 431.00" xmlns="http://www.w3.org/2000/svg" xmlns:xlink="http://www.w3.org/1999/xlink">
<g id="graph0" class="graph" transform="scale(1 1) rotate(0) translate(4 427)">
<title>sys/include/ztimer/xtimer_compat.h</title>
<!-- Node1 -->
<g id="node1" class="node">
<title>Node1</title>
<g id="a_node1"><a xlink:title="ztimer xtimer wrapper interface">
<polygon fill="#bfbfbf" stroke="black" points="169,-392.5 169,-422.5 275,-422.5 275,-392.5 169,-392.5"/>
<text text-anchor="start" x="177" y="-410.5" font-family="Helvetica,sans-Serif" font-size="10.00">sys/include/ztimer</text>
<text text-anchor="middle" x="222" y="-399.5" font-family="Helvetica,sans-Serif" font-size="10.00">/xtimer_compat.h</text>
</a>
</g>
</g>
<!-- Node2 -->
<g id="node2" class="node">
<title>Node2</title>
<g id="a_node2"><a xlink:title=" ">
<polygon fill="none" stroke="#bfbfbf" points="227,-168.5 227,-187.5 289,-187.5 289,-168.5 227,-168.5"/>
<text text-anchor="middle" x="258" y="-175.5" font-family="Helvetica,sans-Serif" font-size="10.00">stdbool.h</text>
</a>
</g>
</g>
<!-- Node1&#45;&gt;Node2 -->
<g id="edge1" class="edge">
<title>Node1&#45;&gt;Node2</title>
<path fill="none" stroke="midnightblue" d="M224.25,-392.27C230.48,-352.89 247.95,-242.49 255,-197.97"/>
<polygon fill="midnightblue" stroke="midnightblue" points="258.48,-198.35 256.59,-187.93 251.57,-197.26 258.48,-198.35"/>
</g>
<!-- Node3 -->
<g id="node3" class="node">
<title>Node3</title>
<g id="a_node3"><a xlink:title=" ">
<polygon fill="none" stroke="#bfbfbf" points="121.5,-0.5 121.5,-19.5 174.5,-19.5 174.5,-0.5 121.5,-0.5"/>
<text text-anchor="middle" x="148" y="-7.5" font-family="Helvetica,sans-Serif" font-size="10.00">stdint.h</text>
</a>
</g>
</g>
<!-- Node1&#45;&gt;Node3 -->
<g id="edge2" class="edge">
<title>Node1&#45;&gt;Node3</title>
<path fill="none" stroke="midnightblue" d="M168.83,-401.89C103.15,-392.94 0,-366.81 0,-291 0,-291 0,-291 0,-121 0,-65.61 67.61,-34.84 111.43,-20.72"/>
<polygon fill="midnightblue" stroke="midnightblue" points="112.67,-24 121.2,-17.72 110.61,-17.31 112.67,-24"/>
</g>
<!-- Node4 -->
<g id="node4" class="node">
<title>Node4</title>
<g id="a_node4"><a xlink:href="div_8h.html" target="_top" xlink:title=" ">
<polygon fill="none" stroke="black" points="121,-224.5 121,-243.5 161,-243.5 161,-224.5 121,-224.5"/>
<text text-anchor="middle" x="141" y="-231.5" font-family="Helvetica,sans-Serif" font-size="10.00">div.h</text>
</a>
</g>
</g>
<!-- Node1&#45;&gt;Node4 -->
<g id="edge3" class="edge">
<title>Node1&#45;&gt;Node4</title>
<path fill="none" stroke="midnightblue" d="M215.37,-392.47C200.72,-361.44 165.58,-287.05 149.41,-252.81"/>
<polygon fill="midnightblue" stroke="midnightblue" points="152.48,-251.11 145.04,-243.56 146.15,-254.1 152.48,-251.11"/>
</g>
<!-- Node9 -->
<g id="node9" class="node">
<title>Node9</title>
<g id="a_node9"><a xlink:href="timex_8h.html" target="_top" xlink:title="Utility library for comparing and computing timestamps.">
<polygon fill="none" stroke="black" points="28,-168.5 28,-187.5 82,-187.5 82,-168.5 28,-168.5"/>
<text text-anchor="middle" x="55" y="-175.5" font-family="Helvetica,sans-Serif" font-size="10.00">timex.h</text>
</a>
</g>
</g>
<!-- Node1&#45;&gt;Node9 -->
<g id="edge10" class="edge">
<title>Node1&#45;&gt;Node9</title>
<path fill="none" stroke="midnightblue" d="M206.13,-392.31C177.27,-365.76 115.76,-305.65 79,-244 70.34,-229.47 63.95,-211.29 59.95,-197.85"/>
<polygon fill="midnightblue" stroke="midnightblue" points="63.22,-196.55 57.16,-187.87 56.48,-198.44 63.22,-196.55"/>
</g>
<!-- Node11 -->
<g id="node11" class="node">
<title>Node11</title>
<g id="a_node11"><a xlink:href="mutex_8h.html" target="_top" xlink:title="Mutex for thread synchronization.">
<polygon fill="none" stroke="black" points="474.5,-336.5 474.5,-355.5 531.5,-355.5 531.5,-336.5 474.5,-336.5"/>
<text text-anchor="middle" x="503" y="-343.5" font-family="Helvetica,sans-Serif" font-size="10.00">mutex.h</text>
</a>
</g>
</g>
<!-- Node1&#45;&gt;Node11 -->
<g id="edge13" class="edge">
<title>Node1&#45;&gt;Node11</title>
<path fill="none" stroke="midnightblue" d="M275.18,-395.24C330.44,-383.54 415.56,-365.52 464.6,-355.13"/>
<polygon fill="midnightblue" stroke="midnightblue" points="465.43,-358.53 474.49,-353.04 463.98,-351.68 465.43,-358.53"/>
</g>
<!-- Node19 -->
<g id="node19" class="node">
<title>Node19</title>
<g id="a_node19"><a xlink:href="sched_8h.html" target="_top" xlink:title="Scheduler API definition.">
<polygon fill="none" stroke="black" points="514,-168.5 514,-187.5 568,-187.5 568,-168.5 514,-168.5"/>
<text text-anchor="middle" x="541" y="-175.5" font-family="Helvetica,sans-Serif" font-size="10.00">sched.h</text>
</a>
</g>
</g>
<!-- Node1&#45;&gt;Node19 -->
<g id="edge38" class="edge">
<title>Node1&#45;&gt;Node19</title>
<path fill="none" stroke="midnightblue" d="M275.03,-407.03C340.41,-405.71 453.47,-396.95 540,-356 598.76,-328.19 632.53,-281.91 603,-224 596,-210.27 582.63,-199.75 570.1,-192.35"/>
<polygon fill="midnightblue" stroke="midnightblue" points="571.68,-189.22 561.22,-187.51 568.33,-195.37 571.68,-189.22"/>
</g>
<!-- Node21 -->
<g id="node21" class="node">
<title>Node21</title>
<g id="a_node21"><a xlink:href="ztimer_8h.html" target="_top" xlink:title="ztimer API">
<polygon fill="none" stroke="black" points="288.5,-280.5 288.5,-299.5 345.5,-299.5 345.5,-280.5 288.5,-280.5"/>
<text text-anchor="middle" x="317" y="-287.5" font-family="Helvetica,sans-Serif" font-size="10.00">ztimer.h</text>
</a>
</g>
</g>
<!-- Node1&#45;&gt;Node21 -->
<g id="edge39" class="edge">
<title>Node1&#45;&gt;Node21</title>
<path fill="none" stroke="midnightblue" d="M233.65,-392.34C251.31,-370.86 284.78,-330.17 303.49,-307.43"/>
<polygon fill="midnightblue" stroke="midnightblue" points="306.22,-309.62 309.87,-299.67 300.81,-305.17 306.22,-309.62"/>
</g>
<!-- Node4&#45;&gt;Node3 -->
<g id="edge9" class="edge">
<title>Node4&#45;&gt;Node3</title>
<path fill="none" stroke="midnightblue" d="M141.27,-224.3C142.3,-191.63 145.95,-75.87 147.4,-29.96"/>
<polygon fill="midnightblue" stroke="midnightblue" points="150.9,-29.99 147.72,-19.88 143.91,-29.77 150.9,-29.99"/>
</g>
<!-- Node5 -->
<g id="node5" class="node">
<title>Node5</title>
<g id="a_node5"><a xlink:href="assert_8h.html" target="_top" xlink:title="POSIX.1&#45;2008 compliant version of the assert macro.">
<polygon fill="none" stroke="black" points="348,-168.5 348,-187.5 404,-187.5 404,-168.5 348,-168.5"/>
<text text-anchor="middle" x="376" y="-175.5" font-family="Helvetica,sans-Serif" font-size="10.00">assert.h</text>
</a>
</g>
</g>
<!-- Node4&#45;&gt;Node5 -->
<g id="edge4" class="edge">
<title>Node4&#45;&gt;Node5</title>
<path fill="none" stroke="midnightblue" d="M161.04,-228.4C200.18,-219.4 287.41,-199.36 337.89,-187.76"/>
<polygon fill="midnightblue" stroke="midnightblue" points="338.81,-191.14 347.77,-185.49 337.24,-184.31 338.81,-191.14"/>
</g>
<!-- Node6 -->
<g id="node6" class="node">
<title>Node6</title>
<g id="a_node6"><a xlink:href="panic_8h.html" target="_top" xlink:title="Crash handling header.">
<polygon fill="none" stroke="black" points="350,-112.5 350,-131.5 402,-131.5 402,-112.5 350,-112.5"/>
<text text-anchor="middle" x="376" y="-119.5" font-family="Helvetica,sans-Serif" font-size="10.00">panic.h</text>
</a>
</g>
</g>
<!-- Node5&#45;&gt;Node6 -->
<g id="edge5" class="edge">
<title>Node5&#45;&gt;Node6</title>
<path fill="none" stroke="midnightblue" d="M376,-168.08C376,-161.01 376,-150.86 376,-141.99"/>
<polygon fill="midnightblue" stroke="midnightblue" points="379.5,-141.75 376,-131.75 372.5,-141.75 379.5,-141.75"/>
</g>
<!-- Node7 -->
<g id="node7" class="node">
<title>Node7</title>
<g id="a_node7"><a xlink:href="kernel__defines_8h.html" target="_top" xlink:title="Common macros and compiler attributes/pragmas configuration.">
<polygon fill="none" stroke="black" points="381.5,-56.5 381.5,-75.5 478.5,-75.5 478.5,-56.5 381.5,-56.5"/>
<text text-anchor="middle" x="430" y="-63.5" font-family="Helvetica,sans-Serif" font-size="10.00">kernel_defines.h</text>
</a>
</g>
</g>
<!-- Node6&#45;&gt;Node7 -->
<g id="edge6" class="edge">
<title>Node6&#45;&gt;Node7</title>
<path fill="none" stroke="midnightblue" d="M384.92,-112.08C392.78,-104.22 404.43,-92.57 413.92,-83.08"/>
<polygon fill="midnightblue" stroke="midnightblue" points="416.65,-85.3 421.25,-75.75 411.7,-80.35 416.65,-85.3"/>
</g>
<!-- Node7&#45;&gt;Node3 -->
<g id="edge8" class="edge">
<title>Node7&#45;&gt;Node3</title>
<path fill="none" stroke="midnightblue" d="M385.32,-56.44C329.81,-45.82 236.17,-27.88 184.67,-18.02"/>
<polygon fill="midnightblue" stroke="midnightblue" points="185.13,-14.55 174.65,-16.1 183.82,-21.42 185.13,-14.55"/>
</g>
<!-- Node8 -->
<g id="node8" class="node">
<title>Node8</title>
<g id="a_node8"><a xlink:title=" ">
<polygon fill="none" stroke="#bfbfbf" points="605,-0.5 605,-19.5 661,-19.5 661,-0.5 605,-0.5"/>
<text text-anchor="middle" x="633" y="-7.5" font-family="Helvetica,sans-Serif" font-size="10.00">stddef.h</text>
</a>
</g>
</g>
<!-- Node7&#45;&gt;Node8 -->
<g id="edge7" class="edge">
<title>Node7&#45;&gt;Node8</title>
<path fill="none" stroke="midnightblue" d="M462.17,-56.44C498.29,-46.83 556.86,-31.25 595.16,-21.07"/>
<polygon fill="midnightblue" stroke="midnightblue" points="596.14,-24.43 604.91,-18.47 594.34,-17.66 596.14,-24.43"/>
</g>
<!-- Node9&#45;&gt;Node3 -->
<g id="edge11" class="edge">
<title>Node9&#45;&gt;Node3</title>
<path fill="none" stroke="midnightblue" d="M56.31,-168.39C59.81,-147.55 70.87,-93.36 96,-56 103.91,-44.24 115.67,-33.7 126.01,-25.79"/>
<polygon fill="midnightblue" stroke="midnightblue" points="128.22,-28.51 134.24,-19.79 124.1,-22.85 128.22,-28.51"/>
</g>
<!-- Node10 -->
<g id="node10" class="node">
<title>Node10</title>
<g id="a_node10"><a xlink:href="inttypes_8h.html" target="_top" xlink:title="Adds include for missing inttype definitions.">
<polygon fill="none" stroke="black" points="220.5,-112.5 220.5,-131.5 285.5,-131.5 285.5,-112.5 220.5,-112.5"/>
<text text-anchor="middle" x="253" y="-119.5" font-family="Helvetica,sans-Serif" font-size="10.00">inttypes.h</text>
</a>
</g>
</g>
<!-- Node9&#45;&gt;Node10 -->
<g id="edge12" class="edge">
<title>Node9&#45;&gt;Node10</title>
<path fill="none" stroke="midnightblue" d="M82.12,-169.6C115.56,-160.48 172.75,-144.89 211.68,-134.27"/>
<polygon fill="midnightblue" stroke="midnightblue" points="212.92,-137.56 221.65,-131.55 211.08,-130.81 212.92,-137.56"/>
</g>
<!-- Node11&#45;&gt;Node3 -->
<g id="edge15" class="edge">
<title>Node11&#45;&gt;Node3</title>
<path fill="none" stroke="midnightblue" d="M474.42,-342.24C391.68,-333.58 155.09,-303.9 112,-244 63.54,-176.63 114.42,-69.83 137.68,-28.31"/>
<polygon fill="midnightblue" stroke="midnightblue" points="140.72,-30.05 142.68,-19.63 134.66,-26.55 140.72,-30.05"/>
</g>
<!-- Node11&#45;&gt;Node7 -->
<g id="edge19" class="edge">
<title>Node11&#45;&gt;Node7</title>
<path fill="none" stroke="midnightblue" d="M513.44,-336.24C522.42,-327.97 534.75,-314.66 540,-300 546.24,-282.59 537.72,-237.82 532,-224 524.35,-205.52 516.81,-204.14 505,-188 486.93,-163.32 481.17,-157.96 465,-132 455.28,-116.4 445.46,-97.87 438.71,-84.6"/>
<polygon fill="midnightblue" stroke="midnightblue" points="441.81,-82.97 434.2,-75.61 435.56,-86.11 441.81,-82.97"/>
</g>
<!-- Node11&#45;&gt;Node8 -->
<g id="edge14" class="edge">
<title>Node11&#45;&gt;Node8</title>
<path fill="none" stroke="midnightblue" d="M531.79,-345.21C597.72,-344.03 754,-331.11 754,-235 754,-235 754,-235 754,-121 754,-90.64 753.25,-78.62 733,-56 716.85,-37.96 692.06,-26.74 671.21,-20.01"/>
<polygon fill="midnightblue" stroke="midnightblue" points="671.93,-16.57 661.34,-17.06 669.92,-23.28 671.93,-16.57"/>
</g>
<!-- Node12 -->
<g id="node12" class="node">
<title>Node12</title>
<g id="a_node12"><a xlink:href="irq_8h.html" target="_top" xlink:title="IRQ driver interface.">
<polygon fill="none" stroke="black" points="412,-280.5 412,-299.5 450,-299.5 450,-280.5 412,-280.5"/>
<text text-anchor="middle" x="431" y="-287.5" font-family="Helvetica,sans-Serif" font-size="10.00">irq.h</text>
</a>
</g>
</g>
<!-- Node11&#45;&gt;Node12 -->
<g id="edge16" class="edge">
<title>Node11&#45;&gt;Node12</title>
<path fill="none" stroke="midnightblue" d="M491.43,-336.32C480.58,-328.18 464.12,-315.84 451.12,-306.09"/>
<polygon fill="midnightblue" stroke="midnightblue" points="452.88,-303.03 442.78,-299.83 448.68,-308.63 452.88,-303.03"/>
</g>
<!-- Node14 -->
<g id="node14" class="node">
<title>Node14</title>
<g id="a_node14"><a xlink:href="list_8h.html" target="_top" xlink:title="Intrusive linked list.">
<polygon fill="none" stroke="black" points="683.5,-56.5 683.5,-75.5 724.5,-75.5 724.5,-56.5 683.5,-56.5"/>
<text text-anchor="middle" x="704" y="-63.5" font-family="Helvetica,sans-Serif" font-size="10.00">list.h</text>
</a>
</g>
</g>
<!-- Node11&#45;&gt;Node14 -->
<g id="edge20" class="edge">
<title>Node11&#45;&gt;Node14</title>
<path fill="none" stroke="midnightblue" d="M531.73,-343.23C589.87,-337.93 716,-316.99 716,-235 716,-235 716,-235 716,-177 716,-144.76 710.84,-107.51 707.29,-85.68"/>
<polygon fill="midnightblue" stroke="midnightblue" points="710.69,-84.8 705.57,-75.52 703.79,-85.97 710.69,-84.8"/>
</g>
<!-- Node15 -->
<g id="node15" class="node">
<title>Node15</title>
<g id="a_node15"><a xlink:href="core_2include_2thread_8h.html" target="_top" xlink:title="Threading API.">
<polygon fill="none" stroke="black" points="474.5,-280.5 474.5,-299.5 531.5,-299.5 531.5,-280.5 474.5,-280.5"/>
<text text-anchor="middle" x="503" y="-287.5" font-family="Helvetica,sans-Serif" font-size="10.00">thread.h</text>
</a>
</g>
</g>
<!-- Node11&#45;&gt;Node15 -->
<g id="edge21" class="edge">
<title>Node11&#45;&gt;Node15</title>
<path fill="none" stroke="midnightblue" d="M503,-336.08C503,-329.01 503,-318.86 503,-309.99"/>
<polygon fill="midnightblue" stroke="midnightblue" points="506.5,-309.75 503,-299.75 499.5,-309.75 506.5,-309.75"/>
</g>
<!-- Node12&#45;&gt;Node2 -->
<g id="edge17" class="edge">
<title>Node12&#45;&gt;Node2</title>
<path fill="none" stroke="midnightblue" d="M411.74,-288.25C380.93,-286.04 320.34,-277.43 284,-244 270.88,-231.94 264.26,-212.37 261,-197.85"/>
<polygon fill="midnightblue" stroke="midnightblue" points="264.42,-197.11 259.11,-187.94 257.55,-198.42 264.42,-197.11"/>
</g>
<!-- Node13 -->
<g id="node13" class="node">
<title>Node13</title>
<g id="a_node13"><a xlink:title=" ">
<polygon fill="none" stroke="#bfbfbf" points="397,-224.5 397,-243.5 465,-243.5 465,-224.5 397,-224.5"/>
<text text-anchor="middle" x="431" y="-231.5" font-family="Helvetica,sans-Serif" font-size="10.00">cpu_conf.h</text>
</a>
</g>
</g>
<!-- Node12&#45;&gt;Node13 -->
<g id="edge18" class="edge">
<title>Node12&#45;&gt;Node13</title>
<path fill="none" stroke="midnightblue" d="M431,-280.08C431,-273.01 431,-262.86 431,-253.99"/>
<polygon fill="midnightblue" stroke="midnightblue" points="434.5,-253.75 431,-243.75 427.5,-253.75 434.5,-253.75"/>
</g>
<!-- Node15&#45;&gt;Node13 -->
<g id="edge36" class="edge">
<title>Node15&#45;&gt;Node13</title>
<path fill="none" stroke="midnightblue" d="M491.43,-280.32C480.58,-272.18 464.12,-259.84 451.12,-250.09"/>
<polygon fill="midnightblue" stroke="midnightblue" points="452.88,-247.03 442.78,-243.83 448.68,-252.63 452.88,-247.03"/>
</g>
<!-- Node16 -->
<g id="node16" class="node">
<title>Node16</title>
<g id="a_node16"><a xlink:href="clist_8h.html" target="_top" xlink:title="Circular linked list.">
<polygon fill="none" stroke="black" points="642,-112.5 642,-131.5 688,-131.5 688,-112.5 642,-112.5"/>
<text text-anchor="middle" x="665" y="-119.5" font-family="Helvetica,sans-Serif" font-size="10.00">clist.h</text>
</a>
</g>
</g>
<!-- Node15&#45;&gt;Node16 -->
<g id="edge22" class="edge">
<title>Node15&#45;&gt;Node16</title>
<path fill="none" stroke="midnightblue" d="M511.9,-280.46C521.23,-271.47 536.27,-256.86 549,-244 585.81,-206.82 628.14,-162.18 650.07,-138.9"/>
<polygon fill="midnightblue" stroke="midnightblue" points="652.63,-141.28 656.94,-131.6 647.53,-136.48 652.63,-141.28"/>
</g>
<!-- Node17 -->
<g id="node17" class="node">
<title>Node17</title>
<g id="a_node17"><a xlink:href="cib_8h.html" target="_top" xlink:title="Circular integer buffer interface.">
<polygon fill="none" stroke="black" points="483,-224.5 483,-243.5 523,-243.5 523,-224.5 483,-224.5"/>
<text text-anchor="middle" x="503" y="-231.5" font-family="Helvetica,sans-Serif" font-size="10.00">cib.h</text>
</a>
</g>
</g>
<!-- Node15&#45;&gt;Node17 -->
<g id="edge25" class="edge">
<title>Node15&#45;&gt;Node17</title>
<path fill="none" stroke="midnightblue" d="M503,-280.08C503,-273.01 503,-262.86 503,-253.99"/>
<polygon fill="midnightblue" stroke="midnightblue" points="506.5,-253.75 503,-243.75 499.5,-253.75 506.5,-253.75"/>
</g>
<!-- Node18 -->
<g id="node18" class="node">
<title>Node18</title>
<g id="a_node18"><a xlink:href="msg_8h.html" target="_top" xlink:title="Messaging API for inter process communication.">
<polygon fill="none" stroke="black" points="293.5,-224.5 293.5,-243.5 340.5,-243.5 340.5,-224.5 293.5,-224.5"/>
<text text-anchor="middle" x="317" y="-231.5" font-family="Helvetica,sans-Serif" font-size="10.00">msg.h</text>
</a>
</g>
</g>
<!-- Node15&#45;&gt;Node18 -->
<g id="edge27" class="edge">
<title>Node15&#45;&gt;Node18</title>
<path fill="none" stroke="midnightblue" d="M474.35,-280.68C440.96,-270.99 385.86,-254.99 350.52,-244.73"/>
<polygon fill="midnightblue" stroke="midnightblue" points="351.25,-241.3 340.67,-241.87 349.3,-248.02 351.25,-241.3"/>
</g>
<!-- Node15&#45;&gt;Node19 -->
<g id="edge37" class="edge">
<title>Node15&#45;&gt;Node19</title>
<path fill="none" stroke="midnightblue" d="M510.25,-280.32C517.05,-271.68 526.9,-257.77 532,-244 537.51,-229.13 539.69,-211.21 540.53,-197.95"/>
<polygon fill="midnightblue" stroke="midnightblue" points="544.04,-197.84 540.98,-187.7 537.05,-197.54 544.04,-197.84"/>
</g>
<!-- Node16&#45;&gt;Node8 -->
<g id="edge23" class="edge">
<title>Node16&#45;&gt;Node8</title>
<path fill="none" stroke="midnightblue" d="M662.49,-112.37C657.3,-94.54 645.3,-53.3 638.32,-29.27"/>
<polygon fill="midnightblue" stroke="midnightblue" points="641.65,-28.22 635.5,-19.59 634.93,-30.17 641.65,-28.22"/>
</g>
<!-- Node16&#45;&gt;Node14 -->
<g id="edge24" class="edge">
<title>Node16&#45;&gt;Node14</title>
<path fill="none" stroke="midnightblue" d="M671.44,-112.08C676.95,-104.46 685.03,-93.26 691.76,-83.94"/>
<polygon fill="midnightblue" stroke="midnightblue" points="694.66,-85.91 697.68,-75.75 688.99,-81.81 694.66,-85.91"/>
</g>
<!-- Node17&#45;&gt;Node5 -->
<g id="edge26" class="edge">
<title>Node17&#45;&gt;Node5</title>
<path fill="none" stroke="midnightblue" d="M482.88,-224.44C461.98,-215.56 429.07,-201.56 405.28,-191.45"/>
<polygon fill="midnightblue" stroke="midnightblue" points="406.6,-188.21 396.03,-187.52 403.86,-194.65 406.6,-188.21"/>
</g>
<!-- Node18&#45;&gt;Node2 -->
<g id="edge29" class="edge">
<title>Node18&#45;&gt;Node2</title>
<path fill="none" stroke="midnightblue" d="M307.52,-224.32C298.8,-216.34 285.66,-204.31 275.1,-194.65"/>
<polygon fill="midnightblue" stroke="midnightblue" points="277.39,-192 267.65,-187.83 272.67,-197.17 277.39,-192"/>
</g>
<!-- Node18&#45;&gt;Node3 -->
<g id="edge28" class="edge">
<title>Node18&#45;&gt;Node3</title>
<path fill="none" stroke="midnightblue" d="M317.49,-224.27C318.26,-203.15 317.67,-148.39 294,-112 266.08,-69.09 212.93,-39.34 179.04,-23.74"/>
<polygon fill="midnightblue" stroke="midnightblue" points="180.17,-20.41 169.61,-19.54 177.32,-26.81 180.17,-20.41"/>
</g>
<!-- Node18&#45;&gt;Node19 -->
<g id="edge30" class="edge">
<title>Node18&#45;&gt;Node19</title>
<path fill="none" stroke="midnightblue" d="M340.55,-227.32C379.5,-217.93 457.64,-199.1 504.02,-187.92"/>
<polygon fill="midnightblue" stroke="midnightblue" points="505.06,-191.26 513.96,-185.52 503.42,-184.46 505.06,-191.26"/>
</g>
<!-- Node19&#45;&gt;Node7 -->
<g id="edge33" class="edge">
<title>Node19&#45;&gt;Node7</title>
<path fill="none" stroke="midnightblue" d="M529.39,-168.18C518.14,-159.45 500.8,-145.46 487,-132 471.13,-116.53 454.61,-97.28 443.46,-83.76"/>
<polygon fill="midnightblue" stroke="midnightblue" points="446,-81.34 436.97,-75.8 440.58,-85.76 446,-81.34"/>
</g>
<!-- Node19&#45;&gt;Node8 -->
<g id="edge31" class="edge">
<title>Node19&#45;&gt;Node8</title>
<path fill="none" stroke="midnightblue" d="M555.38,-168.38C567.58,-160.39 584.68,-147.41 595,-132 616.57,-99.8 626.44,-54.67 630.51,-29.61"/>
<polygon fill="midnightblue" stroke="midnightblue" points="633.98,-30.04 631.99,-19.64 627.06,-29.01 633.98,-30.04"/>
</g>
<!-- Node19&#45;&gt;Node10 -->
<g id="edge32" class="edge">
<title>Node19&#45;&gt;Node10</title>
<path fill="none" stroke="midnightblue" d="M513.91,-171.92C463.74,-162.51 356.03,-142.32 295.87,-131.04"/>
<polygon fill="midnightblue" stroke="midnightblue" points="296.4,-127.58 285.93,-129.17 295.11,-134.46 296.4,-127.58"/>
</g>
<!-- Node19&#45;&gt;Node16 -->
<g id="edge35" class="edge">
<title>Node19&#45;&gt;Node16</title>
<path fill="none" stroke="midnightblue" d="M560.65,-168.44C580.96,-159.6 612.9,-145.69 636.1,-135.59"/>
<polygon fill="midnightblue" stroke="midnightblue" points="637.67,-138.72 645.44,-131.52 634.88,-132.3 637.67,-138.72"/>
</g>
<!-- Node20 -->
<g id="node20" class="node">
<title>Node20</title>
<g id="a_node20"><a xlink:href="native__sched_8h.html" target="_top" xlink:title="Add definitions required on the native board.">
<polygon fill="none" stroke="black" points="496,-112.5 496,-131.5 586,-131.5 586,-112.5 496,-112.5"/>
<text text-anchor="middle" x="541" y="-119.5" font-family="Helvetica,sans-Serif" font-size="10.00">native_sched.h</text>
</a>
</g>
</g>
<!-- Node19&#45;&gt;Node20 -->
<g id="edge34" class="edge">
<title>Node19&#45;&gt;Node20</title>
<path fill="none" stroke="midnightblue" d="M541,-168.08C541,-161.01 541,-150.86 541,-141.99"/>
<polygon fill="midnightblue" stroke="midnightblue" points="544.5,-141.75 541,-131.75 537.5,-141.75 544.5,-141.75"/>
</g>
<!-- Node21&#45;&gt;Node3 -->
<g id="edge40" class="edge">
<title>Node21&#45;&gt;Node3</title>
<path fill="none" stroke="midnightblue" d="M292.02,-280.47C254.77,-265.97 189,-232.77 189,-179 189,-179 189,-179 189,-121 189,-86.52 171.09,-49.56 158.94,-28.47"/>
<polygon fill="midnightblue" stroke="midnightblue" points="161.84,-26.49 153.7,-19.71 155.84,-30.09 161.84,-26.49"/>
</g>
<!-- Node21&#45;&gt;Node18 -->
<g id="edge42" class="edge">
<title>Node21&#45;&gt;Node18</title>
<path fill="none" stroke="midnightblue" d="M317,-280.08C317,-273.01 317,-262.86 317,-253.99"/>
<polygon fill="midnightblue" stroke="midnightblue" points="320.5,-253.75 317,-243.75 313.5,-253.75 320.5,-253.75"/>
</g>
<!-- Node21&#45;&gt;Node19 -->
<g id="edge41" class="edge">
<title>Node21&#45;&gt;Node19</title>
<path fill="none" stroke="midnightblue" d="M324.33,-280.05C336.26,-266.08 361.22,-239.11 388,-224 424.66,-203.31 471.75,-191.33 503.94,-185"/>
<polygon fill="midnightblue" stroke="midnightblue" points="504.65,-188.43 513.84,-183.14 503.36,-181.55 504.65,-188.43"/>
</g>
</g>
</svg>
