<?xml version="1.0" encoding="UTF-8" standalone="no"?>
<!DOCTYPE svg PUBLIC "-//W3C//DTD SVG 1.1//EN"
 "http://www.w3.org/Graphics/SVG/1.1/DTD/svg11.dtd">
<!-- Generated by graphviz version 2.40.1 (20161225.0304)
 -->
<!-- Title: sys/include/net/zep.h Pages: 1 -->
<svg width="124pt" height="162pt"
 viewBox="0.00 0.00 124.00 162.00" xmlns="http://www.w3.org/2000/svg" xmlns:xlink="http://www.w3.org/1999/xlink">
<g id="graph0" class="graph" transform="scale(1 1) rotate(0) translate(4 158)">
<title>sys/include/net/zep.h</title>
<!-- Node4 -->
<g id="node1" class="node">
<title>Node4</title>
<polygon fill="#bfbfbf" stroke="#000000" points="3,-134.5 3,-153.5 113,-153.5 113,-134.5 3,-134.5"/>
<text text-anchor="middle" x="58" y="-141.5" font-family="Helvetica,sans-Serif" font-size="10.00" fill="#000000">sys/include/net/zep.h</text>
</g>
<!-- Node5 -->
<g id="node2" class="node">
<title>Node5</title>
<g id="a_node2"><a xlink:href="socket__zep_8h.html" target="_top" xlink:title="Socket ZEP definitions. ">
<polygon fill="none" stroke="#000000" points="10.5,-67.5 10.5,-97.5 105.5,-97.5 105.5,-67.5 10.5,-67.5"/>
<text text-anchor="start" x="18.5" y="-85.5" font-family="Helvetica,sans-Serif" font-size="10.00" fill="#000000">cpu/native/include</text>
<text text-anchor="middle" x="58" y="-74.5" font-family="Helvetica,sans-Serif" font-size="10.00" fill="#000000">/socket_zep.h</text>
</a>
</g>
</g>
<!-- Node4&#45;&gt;Node5 -->
<g id="edge1" class="edge">
<title>Node4&#45;&gt;Node5</title>
<path fill="none" stroke="#191970" d="M58,-124.3693C58,-115.681 58,-105.6241 58,-97.5446"/>
<polygon fill="#191970" stroke="#191970" points="54.5001,-124.3906 58,-134.3906 61.5001,-124.3907 54.5001,-124.3906"/>
</g>
<!-- Node6 -->
<g id="node3" class="node">
<title>Node6</title>
<g id="a_node3"><a xlink:href="socket__zep__params_8h.html" target="_top" xlink:title="Configuration parameters for the Socket&#45;based ZEP driver. ">
<polygon fill="none" stroke="#000000" points="0,-.5 0,-30.5 116,-30.5 116,-.5 0,-.5"/>
<text text-anchor="start" x="8" y="-18.5" font-family="Helvetica,sans-Serif" font-size="10.00" fill="#000000">cpu/native/include</text>
<text text-anchor="middle" x="58" y="-7.5" font-family="Helvetica,sans-Serif" font-size="10.00" fill="#000000">/socket_zep_params.h</text>
</a>
</g>
</g>
<!-- Node5&#45;&gt;Node6 -->
<g id="edge2" class="edge">
<title>Node5&#45;&gt;Node6</title>
<path fill="none" stroke="#191970" d="M58,-57.0249C58,-48.128 58,-38.4287 58,-30.6432"/>
<polygon fill="#191970" stroke="#191970" points="54.5001,-57.2966 58,-67.2967 61.5001,-57.2967 54.5001,-57.2966"/>
</g>
</g>
</svg>
