<?xml version="1.0" encoding="UTF-8" standalone="no"?>
<!DOCTYPE svg PUBLIC "-//W3C//DTD SVG 1.1//EN"
 "http://www.w3.org/Graphics/SVG/1.1/DTD/svg11.dtd">
<!-- Generated by graphviz version 2.43.0 (0)
 -->
<!-- Title: sys/include/zptr.h Pages: 1 -->
<svg width="227pt" height="252pt"
 viewBox="0.00 0.00 227.00 252.00" xmlns="http://www.w3.org/2000/svg" xmlns:xlink="http://www.w3.org/1999/xlink">
<g id="graph0" class="graph" transform="scale(1 1) rotate(0) translate(4 248)">
<title>sys/include/zptr.h</title>
<!-- Node1 -->
<g id="node1" class="node">
<title>Node1</title>
<g id="a_node1"><a xlink:title="32bit &#45;&gt; 16bit pointer compression implementation">
<polygon fill="#bfbfbf" stroke="black" points="74.5,-224.5 74.5,-243.5 176.5,-243.5 176.5,-224.5 74.5,-224.5"/>
<text text-anchor="middle" x="125.5" y="-231.5" font-family="Helvetica,sans-Serif" font-size="10.00">sys/include/zptr.h</text>
</a>
</g>
</g>
<!-- Node2 -->
<g id="node2" class="node">
<title>Node2</title>
<g id="a_node2"><a xlink:href="assert_8h.html" target="_top" xlink:title="POSIX.1&#45;2008 compliant version of the assert macro.">
<polygon fill="none" stroke="black" points="36.5,-168.5 36.5,-187.5 92.5,-187.5 92.5,-168.5 36.5,-168.5"/>
<text text-anchor="middle" x="64.5" y="-175.5" font-family="Helvetica,sans-Serif" font-size="10.00">assert.h</text>
</a>
</g>
</g>
<!-- Node1&#45;&gt;Node2 -->
<g id="edge1" class="edge">
<title>Node1&#45;&gt;Node2</title>
<path fill="none" stroke="midnightblue" d="M115.7,-224.32C106.68,-216.34 93.09,-204.31 82.18,-194.65"/>
<polygon fill="midnightblue" stroke="midnightblue" points="84.29,-191.84 74.48,-187.83 79.65,-197.08 84.29,-191.84"/>
</g>
<!-- Node6 -->
<g id="node6" class="node">
<title>Node6</title>
<g id="a_node6"><a xlink:title=" ">
<polygon fill="none" stroke="#bfbfbf" points="97,-0.5 97,-19.5 150,-19.5 150,-0.5 97,-0.5"/>
<text text-anchor="middle" x="123.5" y="-7.5" font-family="Helvetica,sans-Serif" font-size="10.00">stdint.h</text>
</a>
</g>
</g>
<!-- Node1&#45;&gt;Node6 -->
<g id="edge6" class="edge">
<title>Node1&#45;&gt;Node6</title>
<path fill="none" stroke="midnightblue" d="M125.42,-224.3C125.13,-191.63 124.08,-75.87 123.67,-29.96"/>
<polygon fill="midnightblue" stroke="midnightblue" points="127.17,-29.85 123.58,-19.88 120.17,-29.91 127.17,-29.85"/>
</g>
<!-- Node7 -->
<g id="node7" class="node">
<title>Node7</title>
<g id="a_node7"><a xlink:href="inttypes_8h.html" target="_top" xlink:title="Adds include for missing inttype definitions.">
<polygon fill="none" stroke="black" points="154,-168.5 154,-187.5 219,-187.5 219,-168.5 154,-168.5"/>
<text text-anchor="middle" x="186.5" y="-175.5" font-family="Helvetica,sans-Serif" font-size="10.00">inttypes.h</text>
</a>
</g>
</g>
<!-- Node1&#45;&gt;Node7 -->
<g id="edge7" class="edge">
<title>Node1&#45;&gt;Node7</title>
<path fill="none" stroke="midnightblue" d="M135.3,-224.32C144.32,-216.34 157.91,-204.31 168.82,-194.65"/>
<polygon fill="midnightblue" stroke="midnightblue" points="171.35,-197.08 176.52,-187.83 166.71,-191.84 171.35,-197.08"/>
</g>
<!-- Node3 -->
<g id="node3" class="node">
<title>Node3</title>
<g id="a_node3"><a xlink:href="panic_8h.html" target="_top" xlink:title="Crash handling header.">
<polygon fill="none" stroke="black" points="28.5,-112.5 28.5,-131.5 80.5,-131.5 80.5,-112.5 28.5,-112.5"/>
<text text-anchor="middle" x="54.5" y="-119.5" font-family="Helvetica,sans-Serif" font-size="10.00">panic.h</text>
</a>
</g>
</g>
<!-- Node2&#45;&gt;Node3 -->
<g id="edge2" class="edge">
<title>Node2&#45;&gt;Node3</title>
<path fill="none" stroke="midnightblue" d="M62.85,-168.08C61.52,-160.93 59.62,-150.64 57.96,-141.69"/>
<polygon fill="midnightblue" stroke="midnightblue" points="61.38,-140.95 56.12,-131.75 54.5,-142.22 61.38,-140.95"/>
</g>
<!-- Node4 -->
<g id="node4" class="node">
<title>Node4</title>
<g id="a_node4"><a xlink:href="kernel__defines_8h.html" target="_top" xlink:title="Common macros and compiler attributes/pragmas configuration.">
<polygon fill="none" stroke="black" points="0,-56.5 0,-75.5 97,-75.5 97,-56.5 0,-56.5"/>
<text text-anchor="middle" x="48.5" y="-63.5" font-family="Helvetica,sans-Serif" font-size="10.00">kernel_defines.h</text>
</a>
</g>
</g>
<!-- Node3&#45;&gt;Node4 -->
<g id="edge3" class="edge">
<title>Node3&#45;&gt;Node4</title>
<path fill="none" stroke="midnightblue" d="M53.51,-112.08C52.71,-104.93 51.57,-94.64 50.58,-85.69"/>
<polygon fill="midnightblue" stroke="midnightblue" points="54.06,-85.3 49.47,-75.75 47.1,-86.08 54.06,-85.3"/>
</g>
<!-- Node5 -->
<g id="node5" class="node">
<title>Node5</title>
<g id="a_node5"><a xlink:title=" ">
<polygon fill="none" stroke="#bfbfbf" points="20.5,-0.5 20.5,-19.5 76.5,-19.5 76.5,-0.5 20.5,-0.5"/>
<text text-anchor="middle" x="48.5" y="-7.5" font-family="Helvetica,sans-Serif" font-size="10.00">stddef.h</text>
</a>
</g>
</g>
<!-- Node4&#45;&gt;Node5 -->
<g id="edge4" class="edge">
<title>Node4&#45;&gt;Node5</title>
<path fill="none" stroke="midnightblue" d="M48.5,-56.08C48.5,-49.01 48.5,-38.86 48.5,-29.99"/>
<polygon fill="midnightblue" stroke="midnightblue" points="52,-29.75 48.5,-19.75 45,-29.75 52,-29.75"/>
</g>
<!-- Node4&#45;&gt;Node6 -->
<g id="edge5" class="edge">
<title>Node4&#45;&gt;Node6</title>
<path fill="none" stroke="midnightblue" d="M60.55,-56.32C71.96,-48.11 89.33,-35.6 102.93,-25.81"/>
<polygon fill="midnightblue" stroke="midnightblue" points="105.16,-28.52 111.23,-19.83 101.07,-22.84 105.16,-28.52"/>
</g>
</g>
</svg>
